<?xml version="1.0" encoding="utf-8" standalone="no"?>
<!DOCTYPE svg PUBLIC "-//W3C//DTD SVG 1.1//EN"
  "http://www.w3.org/Graphics/SVG/1.1/DTD/svg11.dtd">
<!-- Created with matplotlib (https://matplotlib.org/) -->
<svg height="329.686667pt" version="1.1" viewBox="0 0 342.686667 329.686667" width="342.686667pt" xmlns="http://www.w3.org/2000/svg" xmlns:xlink="http://www.w3.org/1999/xlink">
 <defs>
  <style type="text/css">
*{stroke-linecap:butt;stroke-linejoin:round;}
  </style>
 </defs>
 <g id="figure_1">
  <g id="patch_1">
   <path d="M 0 329.686667 
L 342.686667 329.686667 
L 342.686667 0 
L 0 0 
z
" style="fill:#ffffff;"/>
  </g>
  <g id="axes_1">
   <g id="patch_2">
    <path d="M -307.146667 295.986667 
L -14.66 295.986667 
L -14.66 3.5 
L -307.146667 3.5 
z
" style="fill:#ffffff;"/>
   </g>
   <g id="patch_3">
    <path clip-path="url(#pf0c564c7a7)" d="M -293.851818 295.986667 
L -284.988586 295.986667 
L -284.988586 295.986667 
L -293.851818 295.986667 
z
" style="fill:#7570b3;opacity:0.6;stroke:#000000;stroke-linejoin:miter;stroke-width:0.5;"/>
   </g>
   <g id="patch_4">
    <path clip-path="url(#pf0c564c7a7)" d="M -284.988586 295.986667 
L -276.125354 295.986667 
L -276.125354 295.986667 
L -284.988586 295.986667 
z
" style="fill:#7570b3;opacity:0.6;stroke:#000000;stroke-linejoin:miter;stroke-width:0.5;"/>
   </g>
   <g id="patch_5">
    <path clip-path="url(#pf0c564c7a7)" d="M -276.125354 295.986667 
L -267.262121 295.986667 
L -267.262121 295.986667 
L -276.125354 295.986667 
z
" style="fill:#7570b3;opacity:0.6;stroke:#000000;stroke-linejoin:miter;stroke-width:0.5;"/>
   </g>
   <g id="patch_6">
    <path clip-path="url(#pf0c564c7a7)" d="M -267.262121 295.986667 
L -258.398889 295.986667 
L -258.398889 295.986667 
L -267.262121 295.986667 
z
" style="fill:#7570b3;opacity:0.6;stroke:#000000;stroke-linejoin:miter;stroke-width:0.5;"/>
   </g>
   <g id="patch_7">
    <path clip-path="url(#pf0c564c7a7)" d="M -258.398889 295.986667 
L -249.535657 295.986667 
L -249.535657 295.986667 
L -258.398889 295.986667 
z
" style="fill:#7570b3;opacity:0.6;stroke:#000000;stroke-linejoin:miter;stroke-width:0.5;"/>
   </g>
   <g id="patch_8">
    <path clip-path="url(#pf0c564c7a7)" d="M -249.535657 295.986667 
L -240.672424 295.986667 
L -240.672424 295.986667 
L -249.535657 295.986667 
z
" style="fill:#7570b3;opacity:0.6;stroke:#000000;stroke-linejoin:miter;stroke-width:0.5;"/>
   </g>
   <g id="patch_9">
    <path clip-path="url(#pf0c564c7a7)" d="M -240.672424 295.986667 
L -231.809192 295.986667 
L -231.809192 295.986667 
L -240.672424 295.986667 
z
" style="fill:#7570b3;opacity:0.6;stroke:#000000;stroke-linejoin:miter;stroke-width:0.5;"/>
   </g>
   <g id="patch_10">
    <path clip-path="url(#pf0c564c7a7)" d="M -231.809192 295.986667 
L -222.94596 295.986667 
L -222.94596 295.986667 
L -231.809192 295.986667 
z
" style="fill:#7570b3;opacity:0.6;stroke:#000000;stroke-linejoin:miter;stroke-width:0.5;"/>
   </g>
   <g id="patch_11">
    <path clip-path="url(#pf0c564c7a7)" d="M -222.94596 295.986667 
L -214.082727 295.986667 
L -214.082727 295.986667 
L -222.94596 295.986667 
z
" style="fill:#7570b3;opacity:0.6;stroke:#000000;stroke-linejoin:miter;stroke-width:0.5;"/>
   </g>
   <g id="patch_12">
    <path clip-path="url(#pf0c564c7a7)" d="M -214.082727 295.986667 
L -205.219495 295.986667 
L -205.219495 295.986667 
L -214.082727 295.986667 
z
" style="fill:#7570b3;opacity:0.6;stroke:#000000;stroke-linejoin:miter;stroke-width:0.5;"/>
   </g>
   <g id="patch_13">
    <path clip-path="url(#pf0c564c7a7)" d="M -205.219495 295.986667 
L -196.356263 295.986667 
L -196.356263 295.986667 
L -205.219495 295.986667 
z
" style="fill:#7570b3;opacity:0.6;stroke:#000000;stroke-linejoin:miter;stroke-width:0.5;"/>
   </g>
   <g id="patch_14">
    <path clip-path="url(#pf0c564c7a7)" d="M -196.356263 295.986667 
L -187.49303 295.986667 
L -187.49303 295.986667 
L -196.356263 295.986667 
z
" style="fill:#7570b3;opacity:0.6;stroke:#000000;stroke-linejoin:miter;stroke-width:0.5;"/>
   </g>
   <g id="patch_15">
    <path clip-path="url(#pf0c564c7a7)" d="M -187.49303 295.986667 
L -178.629798 295.986667 
L -178.629798 295.986667 
L -187.49303 295.986667 
z
" style="fill:#7570b3;opacity:0.6;stroke:#000000;stroke-linejoin:miter;stroke-width:0.5;"/>
   </g>
   <g id="patch_16">
    <path clip-path="url(#pf0c564c7a7)" d="M -178.629798 295.986667 
L -169.766566 295.986667 
L -169.766566 294.723616 
L -178.629798 294.723616 
z
" style="fill:#7570b3;opacity:0.6;stroke:#000000;stroke-linejoin:miter;stroke-width:0.5;"/>
   </g>
   <g id="patch_17">
    <path clip-path="url(#pf0c564c7a7)" d="M -169.766566 295.986667 
L -160.903333 295.986667 
L -160.903333 289.671411 
L -169.766566 289.671411 
z
" style="fill:#7570b3;opacity:0.6;stroke:#000000;stroke-linejoin:miter;stroke-width:0.5;"/>
   </g>
   <g id="patch_18">
    <path clip-path="url(#pf0c564c7a7)" d="M -160.903333 295.986667 
L -152.040101 295.986667 
L -152.040101 287.145309 
L -160.903333 287.145309 
z
" style="fill:#7570b3;opacity:0.6;stroke:#000000;stroke-linejoin:miter;stroke-width:0.5;"/>
   </g>
   <g id="patch_19">
    <path clip-path="url(#pf0c564c7a7)" d="M -152.040101 295.986667 
L -143.176869 295.986667 
L -143.176869 295.986667 
L -152.040101 295.986667 
z
" style="fill:#7570b3;opacity:0.6;stroke:#000000;stroke-linejoin:miter;stroke-width:0.5;"/>
   </g>
   <g id="patch_20">
    <path clip-path="url(#pf0c564c7a7)" d="M -143.176869 295.986667 
L -134.313636 295.986667 
L -134.313636 295.986667 
L -143.176869 295.986667 
z
" style="fill:#7570b3;opacity:0.6;stroke:#000000;stroke-linejoin:miter;stroke-width:0.5;"/>
   </g>
   <g id="patch_21">
    <path clip-path="url(#pf0c564c7a7)" d="M -134.313636 295.986667 
L -125.450404 295.986667 
L -125.450404 295.986667 
L -134.313636 295.986667 
z
" style="fill:#7570b3;opacity:0.6;stroke:#000000;stroke-linejoin:miter;stroke-width:0.5;"/>
   </g>
   <g id="patch_22">
    <path clip-path="url(#pf0c564c7a7)" d="M -125.450404 295.986667 
L -116.587172 295.986667 
L -116.587172 294.723616 
L -125.450404 294.723616 
z
" style="fill:#7570b3;opacity:0.6;stroke:#000000;stroke-linejoin:miter;stroke-width:0.5;"/>
   </g>
   <g id="patch_23">
    <path clip-path="url(#pf0c564c7a7)" d="M -116.587172 295.986667 
L -107.723939 295.986667 
L -107.723939 227.781906 
L -116.587172 227.781906 
z
" style="fill:#7570b3;opacity:0.6;stroke:#000000;stroke-linejoin:miter;stroke-width:0.5;"/>
   </g>
   <g id="patch_24">
    <path clip-path="url(#pf0c564c7a7)" d="M -107.723939 295.986667 
L -98.860707 295.986667 
L -98.860707 42.113391 
L -107.723939 42.113391 
z
" style="fill:#7570b3;opacity:0.6;stroke:#000000;stroke-linejoin:miter;stroke-width:0.5;"/>
   </g>
   <g id="patch_25">
    <path clip-path="url(#pf0c564c7a7)" d="M -98.860707 295.986667 
L -89.997475 295.986667 
L -89.997475 158.314094 
L -98.860707 158.314094 
z
" style="fill:#7570b3;opacity:0.6;stroke:#000000;stroke-linejoin:miter;stroke-width:0.5;"/>
   </g>
   <g id="patch_26">
    <path clip-path="url(#pf0c564c7a7)" d="M -89.997475 295.986667 
L -81.134242 295.986667 
L -81.134242 279.567002 
L -89.997475 279.567002 
z
" style="fill:#7570b3;opacity:0.6;stroke:#000000;stroke-linejoin:miter;stroke-width:0.5;"/>
   </g>
   <g id="patch_27">
    <path clip-path="url(#pf0c564c7a7)" d="M -81.134242 295.986667 
L -72.27101 295.986667 
L -72.27101 293.460564 
L -81.134242 293.460564 
z
" style="fill:#7570b3;opacity:0.6;stroke:#000000;stroke-linejoin:miter;stroke-width:0.5;"/>
   </g>
   <g id="patch_28">
    <path clip-path="url(#pf0c564c7a7)" d="M -72.27101 295.986667 
L -63.407778 295.986667 
L -63.407778 295.986667 
L -72.27101 295.986667 
z
" style="fill:#7570b3;opacity:0.6;stroke:#000000;stroke-linejoin:miter;stroke-width:0.5;"/>
   </g>
   <g id="patch_29">
    <path clip-path="url(#pf0c564c7a7)" d="M -63.407778 295.986667 
L -54.544545 295.986667 
L -54.544545 295.986667 
L -63.407778 295.986667 
z
" style="fill:#7570b3;opacity:0.6;stroke:#000000;stroke-linejoin:miter;stroke-width:0.5;"/>
   </g>
   <g id="patch_30">
    <path clip-path="url(#pf0c564c7a7)" d="M -54.544545 295.986667 
L -45.681313 295.986667 
L -45.681313 295.986667 
L -54.544545 295.986667 
z
" style="fill:#7570b3;opacity:0.6;stroke:#000000;stroke-linejoin:miter;stroke-width:0.5;"/>
   </g>
   <g id="patch_31">
    <path clip-path="url(#pf0c564c7a7)" d="M -45.681313 295.986667 
L -36.818081 295.986667 
L -36.818081 295.986667 
L -45.681313 295.986667 
z
" style="fill:#7570b3;opacity:0.6;stroke:#000000;stroke-linejoin:miter;stroke-width:0.5;"/>
   </g>
   <g id="patch_32">
    <path clip-path="url(#pf0c564c7a7)" d="M -36.818081 295.986667 
L -27.954848 295.986667 
L -27.954848 295.986667 
L -36.818081 295.986667 
z
" style="fill:#7570b3;opacity:0.6;stroke:#000000;stroke-linejoin:miter;stroke-width:0.5;"/>
   </g>
   <g id="patch_33">
    <path clip-path="url(#pf0c564c7a7)" d="M -293.851818 295.986667 
L -284.988586 295.986667 
L -284.988586 295.986667 
L -293.851818 295.986667 
z
" style="fill:#d95f02;opacity:0.6;stroke:#000000;stroke-linejoin:miter;stroke-width:0.5;"/>
   </g>
   <g id="patch_34">
    <path clip-path="url(#pf0c564c7a7)" d="M -284.988586 295.986667 
L -276.125354 295.986667 
L -276.125354 295.986667 
L -284.988586 295.986667 
z
" style="fill:#d95f02;opacity:0.6;stroke:#000000;stroke-linejoin:miter;stroke-width:0.5;"/>
   </g>
   <g id="patch_35">
    <path clip-path="url(#pf0c564c7a7)" d="M -276.125354 295.986667 
L -267.262121 295.986667 
L -267.262121 295.986667 
L -276.125354 295.986667 
z
" style="fill:#d95f02;opacity:0.6;stroke:#000000;stroke-linejoin:miter;stroke-width:0.5;"/>
   </g>
   <g id="patch_36">
    <path clip-path="url(#pf0c564c7a7)" d="M -267.262121 295.986667 
L -258.398889 295.986667 
L -258.398889 295.986667 
L -267.262121 295.986667 
z
" style="fill:#d95f02;opacity:0.6;stroke:#000000;stroke-linejoin:miter;stroke-width:0.5;"/>
   </g>
   <g id="patch_37">
    <path clip-path="url(#pf0c564c7a7)" d="M -258.398889 295.986667 
L -249.535657 295.986667 
L -249.535657 295.986667 
L -258.398889 295.986667 
z
" style="fill:#d95f02;opacity:0.6;stroke:#000000;stroke-linejoin:miter;stroke-width:0.5;"/>
   </g>
   <g id="patch_38">
    <path clip-path="url(#pf0c564c7a7)" d="M -249.535657 295.986667 
L -240.672424 295.986667 
L -240.672424 295.986667 
L -249.535657 295.986667 
z
" style="fill:#d95f02;opacity:0.6;stroke:#000000;stroke-linejoin:miter;stroke-width:0.5;"/>
   </g>
   <g id="patch_39">
    <path clip-path="url(#pf0c564c7a7)" d="M -240.672424 295.986667 
L -231.809192 295.986667 
L -231.809192 295.986667 
L -240.672424 295.986667 
z
" style="fill:#d95f02;opacity:0.6;stroke:#000000;stroke-linejoin:miter;stroke-width:0.5;"/>
   </g>
   <g id="patch_40">
    <path clip-path="url(#pf0c564c7a7)" d="M -231.809192 295.986667 
L -222.94596 295.986667 
L -222.94596 295.986667 
L -231.809192 295.986667 
z
" style="fill:#d95f02;opacity:0.6;stroke:#000000;stroke-linejoin:miter;stroke-width:0.5;"/>
   </g>
   <g id="patch_41">
    <path clip-path="url(#pf0c564c7a7)" d="M -222.94596 295.986667 
L -214.082727 295.986667 
L -214.082727 295.986667 
L -222.94596 295.986667 
z
" style="fill:#d95f02;opacity:0.6;stroke:#000000;stroke-linejoin:miter;stroke-width:0.5;"/>
   </g>
   <g id="patch_42">
    <path clip-path="url(#pf0c564c7a7)" d="M -214.082727 295.986667 
L -205.219495 295.986667 
L -205.219495 295.986667 
L -214.082727 295.986667 
z
" style="fill:#d95f02;opacity:0.6;stroke:#000000;stroke-linejoin:miter;stroke-width:0.5;"/>
   </g>
   <g id="patch_43">
    <path clip-path="url(#pf0c564c7a7)" d="M -205.219495 295.986667 
L -196.356263 295.986667 
L -196.356263 295.986667 
L -205.219495 295.986667 
z
" style="fill:#d95f02;opacity:0.6;stroke:#000000;stroke-linejoin:miter;stroke-width:0.5;"/>
   </g>
   <g id="patch_44">
    <path clip-path="url(#pf0c564c7a7)" d="M -196.356263 295.986667 
L -187.49303 295.986667 
L -187.49303 295.986667 
L -196.356263 295.986667 
z
" style="fill:#d95f02;opacity:0.6;stroke:#000000;stroke-linejoin:miter;stroke-width:0.5;"/>
   </g>
   <g id="patch_45">
    <path clip-path="url(#pf0c564c7a7)" d="M -187.49303 295.986667 
L -178.629798 295.986667 
L -178.629798 295.986667 
L -187.49303 295.986667 
z
" style="fill:#d95f02;opacity:0.6;stroke:#000000;stroke-linejoin:miter;stroke-width:0.5;"/>
   </g>
   <g id="patch_46">
    <path clip-path="url(#pf0c564c7a7)" d="M -178.629798 295.986667 
L -169.766566 295.986667 
L -169.766566 295.986667 
L -178.629798 295.986667 
z
" style="fill:#d95f02;opacity:0.6;stroke:#000000;stroke-linejoin:miter;stroke-width:0.5;"/>
   </g>
   <g id="patch_47">
    <path clip-path="url(#pf0c564c7a7)" d="M -169.766566 295.986667 
L -160.903333 295.986667 
L -160.903333 295.986667 
L -169.766566 295.986667 
z
" style="fill:#d95f02;opacity:0.6;stroke:#000000;stroke-linejoin:miter;stroke-width:0.5;"/>
   </g>
   <g id="patch_48">
    <path clip-path="url(#pf0c564c7a7)" d="M -160.903333 295.986667 
L -152.040101 295.986667 
L -152.040101 289.703387 
L -160.903333 289.703387 
z
" style="fill:#d95f02;opacity:0.6;stroke:#000000;stroke-linejoin:miter;stroke-width:0.5;"/>
   </g>
   <g id="patch_49">
    <path clip-path="url(#pf0c564c7a7)" d="M -152.040101 295.986667 
L -143.176869 295.986667 
L -143.176869 287.60896 
L -152.040101 287.60896 
z
" style="fill:#d95f02;opacity:0.6;stroke:#000000;stroke-linejoin:miter;stroke-width:0.5;"/>
   </g>
   <g id="patch_50">
    <path clip-path="url(#pf0c564c7a7)" d="M -143.176869 295.986667 
L -134.313636 295.986667 
L -134.313636 289.703387 
L -143.176869 289.703387 
z
" style="fill:#d95f02;opacity:0.6;stroke:#000000;stroke-linejoin:miter;stroke-width:0.5;"/>
   </g>
   <g id="patch_51">
    <path clip-path="url(#pf0c564c7a7)" d="M -134.313636 295.986667 
L -125.450404 295.986667 
L -125.450404 295.986667 
L -134.313636 295.986667 
z
" style="fill:#d95f02;opacity:0.6;stroke:#000000;stroke-linejoin:miter;stroke-width:0.5;"/>
   </g>
   <g id="patch_52">
    <path clip-path="url(#pf0c564c7a7)" d="M -125.450404 295.986667 
L -116.587172 295.986667 
L -116.587172 283.420107 
L -125.450404 283.420107 
z
" style="fill:#d95f02;opacity:0.6;stroke:#000000;stroke-linejoin:miter;stroke-width:0.5;"/>
   </g>
   <g id="patch_53">
    <path clip-path="url(#pf0c564c7a7)" d="M -116.587172 295.986667 
L -107.723939 295.986667 
L -107.723939 272.947975 
L -116.587172 272.947975 
z
" style="fill:#d95f02;opacity:0.6;stroke:#000000;stroke-linejoin:miter;stroke-width:0.5;"/>
   </g>
   <g id="patch_54">
    <path clip-path="url(#pf0c564c7a7)" d="M -107.723939 295.986667 
L -98.860707 295.986667 
L -98.860707 216.398458 
L -107.723939 216.398458 
z
" style="fill:#d95f02;opacity:0.6;stroke:#000000;stroke-linejoin:miter;stroke-width:0.5;"/>
   </g>
   <g id="patch_55">
    <path clip-path="url(#pf0c564c7a7)" d="M -98.860707 295.986667 
L -89.997475 295.986667 
L -89.997475 17.427937 
L -98.860707 17.427937 
z
" style="fill:#d95f02;opacity:0.6;stroke:#000000;stroke-linejoin:miter;stroke-width:0.5;"/>
   </g>
   <g id="patch_56">
    <path clip-path="url(#pf0c564c7a7)" d="M -89.997475 295.986667 
L -81.134242 295.986667 
L -81.134242 218.492885 
L -89.997475 218.492885 
z
" style="fill:#d95f02;opacity:0.6;stroke:#000000;stroke-linejoin:miter;stroke-width:0.5;"/>
   </g>
   <g id="patch_57">
    <path clip-path="url(#pf0c564c7a7)" d="M -81.134242 295.986667 
L -72.27101 295.986667 
L -72.27101 291.797814 
L -81.134242 291.797814 
z
" style="fill:#d95f02;opacity:0.6;stroke:#000000;stroke-linejoin:miter;stroke-width:0.5;"/>
   </g>
   <g id="patch_58">
    <path clip-path="url(#pf0c564c7a7)" d="M -72.27101 295.986667 
L -63.407778 295.986667 
L -63.407778 295.986667 
L -72.27101 295.986667 
z
" style="fill:#d95f02;opacity:0.6;stroke:#000000;stroke-linejoin:miter;stroke-width:0.5;"/>
   </g>
   <g id="patch_59">
    <path clip-path="url(#pf0c564c7a7)" d="M -63.407778 295.986667 
L -54.544545 295.986667 
L -54.544545 295.986667 
L -63.407778 295.986667 
z
" style="fill:#d95f02;opacity:0.6;stroke:#000000;stroke-linejoin:miter;stroke-width:0.5;"/>
   </g>
   <g id="patch_60">
    <path clip-path="url(#pf0c564c7a7)" d="M -54.544545 295.986667 
L -45.681313 295.986667 
L -45.681313 295.986667 
L -54.544545 295.986667 
z
" style="fill:#d95f02;opacity:0.6;stroke:#000000;stroke-linejoin:miter;stroke-width:0.5;"/>
   </g>
   <g id="patch_61">
    <path clip-path="url(#pf0c564c7a7)" d="M -45.681313 295.986667 
L -36.818081 295.986667 
L -36.818081 295.986667 
L -45.681313 295.986667 
z
" style="fill:#d95f02;opacity:0.6;stroke:#000000;stroke-linejoin:miter;stroke-width:0.5;"/>
   </g>
   <g id="patch_62">
    <path clip-path="url(#pf0c564c7a7)" d="M -36.818081 295.986667 
L -27.954848 295.986667 
L -27.954848 295.986667 
L -36.818081 295.986667 
z
" style="fill:#d95f02;opacity:0.6;stroke:#000000;stroke-linejoin:miter;stroke-width:0.5;"/>
   </g>
   <g id="matplotlib.axis_1">
    <g id="xtick_1">
     <g id="line2d_1">
      <defs>
       <path d="M 0 0 
L 0 3.5 
" id="m1848d8486d" style="stroke:#000000;stroke-width:1.6;"/>
      </defs>
      <g/>
     </g>
     <g id="text_1">
      <!-- −1 -->
      <defs>
       <path d="M 10.59375 35.5 
L 73.1875 35.5 
L 73.1875 27.203125 
L 10.59375 27.203125 
z
" id="DejaVuSans-8722"/>
       <path d="M 12.40625 8.296875 
L 28.515625 8.296875 
L 28.515625 63.921875 
L 10.984375 60.40625 
L 10.984375 69.390625 
L 28.421875 72.90625 
L 38.28125 72.90625 
L 38.28125 8.296875 
L 54.390625 8.296875 
L 54.390625 0 
L 12.40625 0 
z
" id="DejaVuSans-49"/>
      </defs>
      <g transform="translate(-308.594006 325.883542)scale(0.2 -0.2)">
       <use xlink:href="#DejaVuSans-8722"/>
       <use x="83.789062" xlink:href="#DejaVuSans-49"/>
      </g>
     </g>
    </g>
    <g id="xtick_2">
     <g id="line2d_2">
      <g/>
     </g>
     <g id="text_2">
      <!-- 0 -->
      <defs>
       <path d="M 31.78125 66.40625 
Q 24.171875 66.40625 20.328125 58.90625 
Q 16.5 51.421875 16.5 36.375 
Q 16.5 21.390625 20.328125 13.890625 
Q 24.171875 6.390625 31.78125 6.390625 
Q 39.453125 6.390625 43.28125 13.890625 
Q 47.125 21.390625 47.125 36.375 
Q 47.125 51.421875 43.28125 58.90625 
Q 39.453125 66.40625 31.78125 66.40625 
z
M 31.78125 74.21875 
Q 44.046875 74.21875 50.515625 64.515625 
Q 56.984375 54.828125 56.984375 36.375 
Q 56.984375 17.96875 50.515625 8.265625 
Q 44.046875 -1.421875 31.78125 -1.421875 
Q 19.53125 -1.421875 13.0625 8.265625 
Q 6.59375 17.96875 6.59375 36.375 
Q 6.59375 54.828125 13.0625 64.515625 
Q 19.53125 74.21875 31.78125 74.21875 
z
" id="DejaVuSans-48"/>
      </defs>
      <g transform="translate(-167.265833 325.883542)scale(0.2 -0.2)">
       <use xlink:href="#DejaVuSans-48"/>
      </g>
     </g>
    </g>
    <g id="xtick_3">
     <g id="line2d_3">
      <g/>
     </g>
     <g id="text_3">
      <!-- 1 -->
      <g transform="translate(-34.317348 325.883542)scale(0.2 -0.2)">
       <use xlink:href="#DejaVuSans-49"/>
      </g>
     </g>
    </g>
   </g>
   <g id="matplotlib.axis_2">
    <g id="ytick_1">
     <g id="line2d_4">
      <defs>
       <path d="M 0 0 
L -3.5 0 
" id="m74c2d850ba" style="stroke:#000000;stroke-width:1.6;"/>
      </defs>
      <g/>
     </g>
     <g id="text_4">
      <!-- 0.0 -->
      <defs>
       <path d="M 10.6875 12.40625 
L 21 12.40625 
L 21 0 
L 10.6875 0 
z
" id="DejaVuSans-46"/>
      </defs>
      <g transform="translate(-353.652917 303.585104)scale(0.2 -0.2)">
       <use xlink:href="#DejaVuSans-48"/>
       <use x="63.623047" xlink:href="#DejaVuSans-46"/>
       <use x="95.410156" xlink:href="#DejaVuSans-48"/>
      </g>
     </g>
    </g>
    <g id="ytick_2">
     <g id="line2d_5">
      <g/>
     </g>
     <g id="text_5">
      <!-- 0.1 -->
      <g transform="translate(-353.652917 253.947195)scale(0.2 -0.2)">
       <use xlink:href="#DejaVuSans-48"/>
       <use x="63.623047" xlink:href="#DejaVuSans-46"/>
       <use x="95.410156" xlink:href="#DejaVuSans-49"/>
      </g>
     </g>
    </g>
    <g id="ytick_3">
     <g id="line2d_6">
      <g/>
     </g>
     <g id="text_6">
      <!-- 0.2 -->
      <defs>
       <path d="M 19.1875 8.296875 
L 53.609375 8.296875 
L 53.609375 0 
L 7.328125 0 
L 7.328125 8.296875 
Q 12.9375 14.109375 22.625 23.890625 
Q 32.328125 33.6875 34.8125 36.53125 
Q 39.546875 41.84375 41.421875 45.53125 
Q 43.3125 49.21875 43.3125 52.78125 
Q 43.3125 58.59375 39.234375 62.25 
Q 35.15625 65.921875 28.609375 65.921875 
Q 23.96875 65.921875 18.8125 64.3125 
Q 13.671875 62.703125 7.8125 59.421875 
L 7.8125 69.390625 
Q 13.765625 71.78125 18.9375 73 
Q 24.125 74.21875 28.421875 74.21875 
Q 39.75 74.21875 46.484375 68.546875 
Q 53.21875 62.890625 53.21875 53.421875 
Q 53.21875 48.921875 51.53125 44.890625 
Q 49.859375 40.875 45.40625 35.40625 
Q 44.1875 33.984375 37.640625 27.21875 
Q 31.109375 20.453125 19.1875 8.296875 
z
" id="DejaVuSans-50"/>
      </defs>
      <g transform="translate(-353.652917 204.309286)scale(0.2 -0.2)">
       <use xlink:href="#DejaVuSans-48"/>
       <use x="63.623047" xlink:href="#DejaVuSans-46"/>
       <use x="95.410156" xlink:href="#DejaVuSans-50"/>
      </g>
     </g>
    </g>
    <g id="ytick_4">
     <g id="line2d_7">
      <g/>
     </g>
     <g id="text_7">
      <!-- 0.3 -->
      <defs>
       <path d="M 40.578125 39.3125 
Q 47.65625 37.796875 51.625 33 
Q 55.609375 28.21875 55.609375 21.1875 
Q 55.609375 10.40625 48.1875 4.484375 
Q 40.765625 -1.421875 27.09375 -1.421875 
Q 22.515625 -1.421875 17.65625 -0.515625 
Q 12.796875 0.390625 7.625 2.203125 
L 7.625 11.71875 
Q 11.71875 9.328125 16.59375 8.109375 
Q 21.484375 6.890625 26.8125 6.890625 
Q 36.078125 6.890625 40.9375 10.546875 
Q 45.796875 14.203125 45.796875 21.1875 
Q 45.796875 27.640625 41.28125 31.265625 
Q 36.765625 34.90625 28.71875 34.90625 
L 20.21875 34.90625 
L 20.21875 43.015625 
L 29.109375 43.015625 
Q 36.375 43.015625 40.234375 45.921875 
Q 44.09375 48.828125 44.09375 54.296875 
Q 44.09375 59.90625 40.109375 62.90625 
Q 36.140625 65.921875 28.71875 65.921875 
Q 24.65625 65.921875 20.015625 65.03125 
Q 15.375 64.15625 9.8125 62.3125 
L 9.8125 71.09375 
Q 15.4375 72.65625 20.34375 73.4375 
Q 25.25 74.21875 29.59375 74.21875 
Q 40.828125 74.21875 47.359375 69.109375 
Q 53.90625 64.015625 53.90625 55.328125 
Q 53.90625 49.265625 50.4375 45.09375 
Q 46.96875 40.921875 40.578125 39.3125 
z
" id="DejaVuSans-51"/>
      </defs>
      <g transform="translate(-353.652917 154.671377)scale(0.2 -0.2)">
       <use xlink:href="#DejaVuSans-48"/>
       <use x="63.623047" xlink:href="#DejaVuSans-46"/>
       <use x="95.410156" xlink:href="#DejaVuSans-51"/>
      </g>
     </g>
    </g>
    <g id="ytick_5">
     <g id="line2d_8">
      <g/>
     </g>
     <g id="text_8">
      <!-- 0.4 -->
      <defs>
       <path d="M 37.796875 64.3125 
L 12.890625 25.390625 
L 37.796875 25.390625 
z
M 35.203125 72.90625 
L 47.609375 72.90625 
L 47.609375 25.390625 
L 58.015625 25.390625 
L 58.015625 17.1875 
L 47.609375 17.1875 
L 47.609375 0 
L 37.796875 0 
L 37.796875 17.1875 
L 4.890625 17.1875 
L 4.890625 26.703125 
z
" id="DejaVuSans-52"/>
      </defs>
      <g transform="translate(-353.652917 105.033468)scale(0.2 -0.2)">
       <use xlink:href="#DejaVuSans-48"/>
       <use x="63.623047" xlink:href="#DejaVuSans-46"/>
       <use x="95.410156" xlink:href="#DejaVuSans-52"/>
      </g>
     </g>
    </g>
    <g id="ytick_6">
     <g id="line2d_9">
      <g/>
     </g>
     <g id="text_9">
      <!-- 0.5 -->
      <defs>
       <path d="M 10.796875 72.90625 
L 49.515625 72.90625 
L 49.515625 64.59375 
L 19.828125 64.59375 
L 19.828125 46.734375 
Q 21.96875 47.46875 24.109375 47.828125 
Q 26.265625 48.1875 28.421875 48.1875 
Q 40.625 48.1875 47.75 41.5 
Q 54.890625 34.8125 54.890625 23.390625 
Q 54.890625 11.625 47.5625 5.09375 
Q 40.234375 -1.421875 26.90625 -1.421875 
Q 22.3125 -1.421875 17.546875 -0.640625 
Q 12.796875 0.140625 7.71875 1.703125 
L 7.71875 11.625 
Q 12.109375 9.234375 16.796875 8.0625 
Q 21.484375 6.890625 26.703125 6.890625 
Q 35.15625 6.890625 40.078125 11.328125 
Q 45.015625 15.765625 45.015625 23.390625 
Q 45.015625 31 40.078125 35.4375 
Q 35.15625 39.890625 26.703125 39.890625 
Q 22.75 39.890625 18.8125 39.015625 
Q 14.890625 38.140625 10.796875 36.28125 
z
" id="DejaVuSans-53"/>
      </defs>
      <g transform="translate(-353.652917 55.395559)scale(0.2 -0.2)">
       <use xlink:href="#DejaVuSans-48"/>
       <use x="63.623047" xlink:href="#DejaVuSans-46"/>
       <use x="95.410156" xlink:href="#DejaVuSans-53"/>
      </g>
     </g>
    </g>
   </g>
   <g id="patch_63">
    <path style="fill:none;stroke:#000000;stroke-linecap:square;stroke-linejoin:miter;stroke-width:0.8;"/>
   </g>
   <g id="patch_64">
    <path style="fill:none;stroke:#000000;stroke-linecap:square;stroke-linejoin:miter;stroke-width:0.8;"/>
   </g>
  </g>
  <g id="axes_2">
   <g id="patch_65">
    <path d="M 46.7 295.986667 
L 339.186667 295.986667 
L 339.186667 3.5 
L 46.7 3.5 
z
" style="fill:#ffffff;"/>
   </g>
   <g id="patch_66">
    <path clip-path="url(#pe0d1c4e2ee)" d="M 59.994848 295.986667 
L 68.858081 295.986667 
L 68.858081 295.986667 
L 59.994848 295.986667 
z
" style="fill:#7570b3;opacity:0.6;stroke:#000000;stroke-linejoin:miter;stroke-width:0.5;"/>
   </g>
   <g id="patch_67">
    <path clip-path="url(#pe0d1c4e2ee)" d="M 68.858081 295.986667 
L 77.721313 295.986667 
L 77.721313 295.986667 
L 68.858081 295.986667 
z
" style="fill:#7570b3;opacity:0.6;stroke:#000000;stroke-linejoin:miter;stroke-width:0.5;"/>
   </g>
   <g id="patch_68">
    <path clip-path="url(#pe0d1c4e2ee)" d="M 77.721313 295.986667 
L 86.584545 295.986667 
L 86.584545 295.986667 
L 77.721313 295.986667 
z
" style="fill:#7570b3;opacity:0.6;stroke:#000000;stroke-linejoin:miter;stroke-width:0.5;"/>
   </g>
   <g id="patch_69">
    <path clip-path="url(#pe0d1c4e2ee)" d="M 86.584545 295.986667 
L 95.447778 295.986667 
L 95.447778 295.986667 
L 86.584545 295.986667 
z
" style="fill:#7570b3;opacity:0.6;stroke:#000000;stroke-linejoin:miter;stroke-width:0.5;"/>
   </g>
   <g id="patch_70">
    <path clip-path="url(#pe0d1c4e2ee)" d="M 95.447778 295.986667 
L 104.31101 295.986667 
L 104.31101 295.986667 
L 95.447778 295.986667 
z
" style="fill:#7570b3;opacity:0.6;stroke:#000000;stroke-linejoin:miter;stroke-width:0.5;"/>
   </g>
   <g id="patch_71">
    <path clip-path="url(#pe0d1c4e2ee)" d="M 104.31101 295.986667 
L 113.174242 295.986667 
L 113.174242 295.986667 
L 104.31101 295.986667 
z
" style="fill:#7570b3;opacity:0.6;stroke:#000000;stroke-linejoin:miter;stroke-width:0.5;"/>
   </g>
   <g id="patch_72">
    <path clip-path="url(#pe0d1c4e2ee)" d="M 113.174242 295.986667 
L 122.037475 295.986667 
L 122.037475 295.986667 
L 113.174242 295.986667 
z
" style="fill:#7570b3;opacity:0.6;stroke:#000000;stroke-linejoin:miter;stroke-width:0.5;"/>
   </g>
   <g id="patch_73">
    <path clip-path="url(#pe0d1c4e2ee)" d="M 122.037475 295.986667 
L 130.900707 295.986667 
L 130.900707 295.986667 
L 122.037475 295.986667 
z
" style="fill:#7570b3;opacity:0.6;stroke:#000000;stroke-linejoin:miter;stroke-width:0.5;"/>
   </g>
   <g id="patch_74">
    <path clip-path="url(#pe0d1c4e2ee)" d="M 130.900707 295.986667 
L 139.763939 295.986667 
L 139.763939 295.986667 
L 130.900707 295.986667 
z
" style="fill:#7570b3;opacity:0.6;stroke:#000000;stroke-linejoin:miter;stroke-width:0.5;"/>
   </g>
   <g id="patch_75">
    <path clip-path="url(#pe0d1c4e2ee)" d="M 139.763939 295.986667 
L 148.627172 295.986667 
L 148.627172 295.986667 
L 139.763939 295.986667 
z
" style="fill:#7570b3;opacity:0.6;stroke:#000000;stroke-linejoin:miter;stroke-width:0.5;"/>
   </g>
   <g id="patch_76">
    <path clip-path="url(#pe0d1c4e2ee)" d="M 148.627172 295.986667 
L 157.490404 295.986667 
L 157.490404 295.986667 
L 148.627172 295.986667 
z
" style="fill:#7570b3;opacity:0.6;stroke:#000000;stroke-linejoin:miter;stroke-width:0.5;"/>
   </g>
   <g id="patch_77">
    <path clip-path="url(#pe0d1c4e2ee)" d="M 157.490404 295.986667 
L 166.353636 295.986667 
L 166.353636 294.099186 
L 157.490404 294.099186 
z
" style="fill:#7570b3;opacity:0.6;stroke:#000000;stroke-linejoin:miter;stroke-width:0.5;"/>
   </g>
   <g id="patch_78">
    <path clip-path="url(#pe0d1c4e2ee)" d="M 166.353636 295.986667 
L 175.216869 295.986667 
L 175.216869 288.436743 
L 166.353636 288.436743 
z
" style="fill:#7570b3;opacity:0.6;stroke:#000000;stroke-linejoin:miter;stroke-width:0.5;"/>
   </g>
   <g id="patch_79">
    <path clip-path="url(#pe0d1c4e2ee)" d="M 175.216869 295.986667 
L 184.080101 295.986667 
L 184.080101 233.699797 
L 175.216869 233.699797 
z
" style="fill:#7570b3;opacity:0.6;stroke:#000000;stroke-linejoin:miter;stroke-width:0.5;"/>
   </g>
   <g id="patch_80">
    <path clip-path="url(#pe0d1c4e2ee)" d="M 184.080101 295.986667 
L 192.943333 295.986667 
L 192.943333 203.500103 
L 184.080101 203.500103 
z
" style="fill:#7570b3;opacity:0.6;stroke:#000000;stroke-linejoin:miter;stroke-width:0.5;"/>
   </g>
   <g id="patch_81">
    <path clip-path="url(#pe0d1c4e2ee)" d="M 192.943333 295.986667 
L 201.806566 295.986667 
L 201.806566 171.412928 
L 192.943333 171.412928 
z
" style="fill:#7570b3;opacity:0.6;stroke:#000000;stroke-linejoin:miter;stroke-width:0.5;"/>
   </g>
   <g id="patch_82">
    <path clip-path="url(#pe0d1c4e2ee)" d="M 201.806566 295.986667 
L 210.669798 295.986667 
L 210.669798 101.576135 
L 201.806566 101.576135 
z
" style="fill:#7570b3;opacity:0.6;stroke:#000000;stroke-linejoin:miter;stroke-width:0.5;"/>
   </g>
   <g id="patch_83">
    <path clip-path="url(#pe0d1c4e2ee)" d="M 210.669798 295.986667 
L 219.53303 295.986667 
L 219.53303 111.01354 
L 210.669798 111.01354 
z
" style="fill:#7570b3;opacity:0.6;stroke:#000000;stroke-linejoin:miter;stroke-width:0.5;"/>
   </g>
   <g id="patch_84">
    <path clip-path="url(#pe0d1c4e2ee)" d="M 219.53303 295.986667 
L 228.396263 295.986667 
L 228.396263 241.249721 
L 219.53303 241.249721 
z
" style="fill:#7570b3;opacity:0.6;stroke:#000000;stroke-linejoin:miter;stroke-width:0.5;"/>
   </g>
   <g id="patch_85">
    <path clip-path="url(#pe0d1c4e2ee)" d="M 228.396263 295.986667 
L 237.259495 295.986667 
L 237.259495 284.661781 
L 228.396263 284.661781 
z
" style="fill:#7570b3;opacity:0.6;stroke:#000000;stroke-linejoin:miter;stroke-width:0.5;"/>
   </g>
   <g id="patch_86">
    <path clip-path="url(#pe0d1c4e2ee)" d="M 237.259495 295.986667 
L 246.122727 295.986667 
L 246.122727 288.436743 
L 237.259495 288.436743 
z
" style="fill:#7570b3;opacity:0.6;stroke:#000000;stroke-linejoin:miter;stroke-width:0.5;"/>
   </g>
   <g id="patch_87">
    <path clip-path="url(#pe0d1c4e2ee)" d="M 246.122727 295.986667 
L 254.98596 295.986667 
L 254.98596 295.986667 
L 246.122727 295.986667 
z
" style="fill:#7570b3;opacity:0.6;stroke:#000000;stroke-linejoin:miter;stroke-width:0.5;"/>
   </g>
   <g id="patch_88">
    <path clip-path="url(#pe0d1c4e2ee)" d="M 254.98596 295.986667 
L 263.849192 295.986667 
L 263.849192 295.986667 
L 254.98596 295.986667 
z
" style="fill:#7570b3;opacity:0.6;stroke:#000000;stroke-linejoin:miter;stroke-width:0.5;"/>
   </g>
   <g id="patch_89">
    <path clip-path="url(#pe0d1c4e2ee)" d="M 263.849192 295.986667 
L 272.712424 295.986667 
L 272.712424 295.986667 
L 263.849192 295.986667 
z
" style="fill:#7570b3;opacity:0.6;stroke:#000000;stroke-linejoin:miter;stroke-width:0.5;"/>
   </g>
   <g id="patch_90">
    <path clip-path="url(#pe0d1c4e2ee)" d="M 272.712424 295.986667 
L 281.575657 295.986667 
L 281.575657 295.986667 
L 272.712424 295.986667 
z
" style="fill:#7570b3;opacity:0.6;stroke:#000000;stroke-linejoin:miter;stroke-width:0.5;"/>
   </g>
   <g id="patch_91">
    <path clip-path="url(#pe0d1c4e2ee)" d="M 281.575657 295.986667 
L 290.438889 295.986667 
L 290.438889 295.986667 
L 281.575657 295.986667 
z
" style="fill:#7570b3;opacity:0.6;stroke:#000000;stroke-linejoin:miter;stroke-width:0.5;"/>
   </g>
   <g id="patch_92">
    <path clip-path="url(#pe0d1c4e2ee)" d="M 290.438889 295.986667 
L 299.302121 295.986667 
L 299.302121 295.986667 
L 290.438889 295.986667 
z
" style="fill:#7570b3;opacity:0.6;stroke:#000000;stroke-linejoin:miter;stroke-width:0.5;"/>
   </g>
   <g id="patch_93">
    <path clip-path="url(#pe0d1c4e2ee)" d="M 299.302121 295.986667 
L 308.165354 295.986667 
L 308.165354 295.986667 
L 299.302121 295.986667 
z
" style="fill:#7570b3;opacity:0.6;stroke:#000000;stroke-linejoin:miter;stroke-width:0.5;"/>
   </g>
   <g id="patch_94">
    <path clip-path="url(#pe0d1c4e2ee)" d="M 308.165354 295.986667 
L 317.028586 295.986667 
L 317.028586 295.986667 
L 308.165354 295.986667 
z
" style="fill:#7570b3;opacity:0.6;stroke:#000000;stroke-linejoin:miter;stroke-width:0.5;"/>
   </g>
   <g id="patch_95">
    <path clip-path="url(#pe0d1c4e2ee)" d="M 317.028586 295.986667 
L 325.891818 295.986667 
L 325.891818 295.986667 
L 317.028586 295.986667 
z
" style="fill:#7570b3;opacity:0.6;stroke:#000000;stroke-linejoin:miter;stroke-width:0.5;"/>
   </g>
   <g id="patch_96">
    <path clip-path="url(#pe0d1c4e2ee)" d="M 59.994848 295.986667 
L 68.858081 295.986667 
L 68.858081 295.986667 
L 59.994848 295.986667 
z
" style="fill:#d95f02;opacity:0.6;stroke:#000000;stroke-linejoin:miter;stroke-width:0.5;"/>
   </g>
   <g id="patch_97">
    <path clip-path="url(#pe0d1c4e2ee)" d="M 68.858081 295.986667 
L 77.721313 295.986667 
L 77.721313 295.986667 
L 68.858081 295.986667 
z
" style="fill:#d95f02;opacity:0.6;stroke:#000000;stroke-linejoin:miter;stroke-width:0.5;"/>
   </g>
   <g id="patch_98">
    <path clip-path="url(#pe0d1c4e2ee)" d="M 77.721313 295.986667 
L 86.584545 295.986667 
L 86.584545 295.986667 
L 77.721313 295.986667 
z
" style="fill:#d95f02;opacity:0.6;stroke:#000000;stroke-linejoin:miter;stroke-width:0.5;"/>
   </g>
   <g id="patch_99">
    <path clip-path="url(#pe0d1c4e2ee)" d="M 86.584545 295.986667 
L 95.447778 295.986667 
L 95.447778 295.986667 
L 86.584545 295.986667 
z
" style="fill:#d95f02;opacity:0.6;stroke:#000000;stroke-linejoin:miter;stroke-width:0.5;"/>
   </g>
   <g id="patch_100">
    <path clip-path="url(#pe0d1c4e2ee)" d="M 95.447778 295.986667 
L 104.31101 295.986667 
L 104.31101 295.986667 
L 95.447778 295.986667 
z
" style="fill:#d95f02;opacity:0.6;stroke:#000000;stroke-linejoin:miter;stroke-width:0.5;"/>
   </g>
   <g id="patch_101">
    <path clip-path="url(#pe0d1c4e2ee)" d="M 104.31101 295.986667 
L 113.174242 295.986667 
L 113.174242 295.986667 
L 104.31101 295.986667 
z
" style="fill:#d95f02;opacity:0.6;stroke:#000000;stroke-linejoin:miter;stroke-width:0.5;"/>
   </g>
   <g id="patch_102">
    <path clip-path="url(#pe0d1c4e2ee)" d="M 113.174242 295.986667 
L 122.037475 295.986667 
L 122.037475 295.986667 
L 113.174242 295.986667 
z
" style="fill:#d95f02;opacity:0.6;stroke:#000000;stroke-linejoin:miter;stroke-width:0.5;"/>
   </g>
   <g id="patch_103">
    <path clip-path="url(#pe0d1c4e2ee)" d="M 122.037475 295.986667 
L 130.900707 295.986667 
L 130.900707 295.986667 
L 122.037475 295.986667 
z
" style="fill:#d95f02;opacity:0.6;stroke:#000000;stroke-linejoin:miter;stroke-width:0.5;"/>
   </g>
   <g id="patch_104">
    <path clip-path="url(#pe0d1c4e2ee)" d="M 130.900707 295.986667 
L 139.763939 295.986667 
L 139.763939 295.986667 
L 130.900707 295.986667 
z
" style="fill:#d95f02;opacity:0.6;stroke:#000000;stroke-linejoin:miter;stroke-width:0.5;"/>
   </g>
   <g id="patch_105">
    <path clip-path="url(#pe0d1c4e2ee)" d="M 139.763939 295.986667 
L 148.627172 295.986667 
L 148.627172 295.986667 
L 139.763939 295.986667 
z
" style="fill:#d95f02;opacity:0.6;stroke:#000000;stroke-linejoin:miter;stroke-width:0.5;"/>
   </g>
   <g id="patch_106">
    <path clip-path="url(#pe0d1c4e2ee)" d="M 148.627172 295.986667 
L 157.490404 295.986667 
L 157.490404 295.986667 
L 148.627172 295.986667 
z
" style="fill:#d95f02;opacity:0.6;stroke:#000000;stroke-linejoin:miter;stroke-width:0.5;"/>
   </g>
   <g id="patch_107">
    <path clip-path="url(#pe0d1c4e2ee)" d="M 157.490404 295.986667 
L 166.353636 295.986667 
L 166.353636 295.986667 
L 157.490404 295.986667 
z
" style="fill:#d95f02;opacity:0.6;stroke:#000000;stroke-linejoin:miter;stroke-width:0.5;"/>
   </g>
   <g id="patch_108">
    <path clip-path="url(#pe0d1c4e2ee)" d="M 166.353636 295.986667 
L 175.216869 295.986667 
L 175.216869 295.986667 
L 166.353636 295.986667 
z
" style="fill:#d95f02;opacity:0.6;stroke:#000000;stroke-linejoin:miter;stroke-width:0.5;"/>
   </g>
   <g id="patch_109">
    <path clip-path="url(#pe0d1c4e2ee)" d="M 175.216869 295.986667 
L 184.080101 295.986667 
L 184.080101 295.986667 
L 175.216869 295.986667 
z
" style="fill:#d95f02;opacity:0.6;stroke:#000000;stroke-linejoin:miter;stroke-width:0.5;"/>
   </g>
   <g id="patch_110">
    <path clip-path="url(#pe0d1c4e2ee)" d="M 184.080101 295.986667 
L 192.943333 295.986667 
L 192.943333 295.986667 
L 184.080101 295.986667 
z
" style="fill:#d95f02;opacity:0.6;stroke:#000000;stroke-linejoin:miter;stroke-width:0.5;"/>
   </g>
   <g id="patch_111">
    <path clip-path="url(#pe0d1c4e2ee)" d="M 192.943333 295.986667 
L 201.806566 295.986667 
L 201.806566 289.72692 
L 192.943333 289.72692 
z
" style="fill:#d95f02;opacity:0.6;stroke:#000000;stroke-linejoin:miter;stroke-width:0.5;"/>
   </g>
   <g id="patch_112">
    <path clip-path="url(#pe0d1c4e2ee)" d="M 201.806566 295.986667 
L 210.669798 295.986667 
L 210.669798 280.3373 
L 201.806566 280.3373 
z
" style="fill:#d95f02;opacity:0.6;stroke:#000000;stroke-linejoin:miter;stroke-width:0.5;"/>
   </g>
   <g id="patch_113">
    <path clip-path="url(#pe0d1c4e2ee)" d="M 210.669798 295.986667 
L 219.53303 295.986667 
L 219.53303 198.960592 
L 210.669798 198.960592 
z
" style="fill:#d95f02;opacity:0.6;stroke:#000000;stroke-linejoin:miter;stroke-width:0.5;"/>
   </g>
   <g id="patch_114">
    <path clip-path="url(#pe0d1c4e2ee)" d="M 219.53303 295.986667 
L 228.396263 295.986667 
L 228.396263 17.427937 
L 219.53303 17.427937 
z
" style="fill:#d95f02;opacity:0.6;stroke:#000000;stroke-linejoin:miter;stroke-width:0.5;"/>
   </g>
   <g id="patch_115">
    <path clip-path="url(#pe0d1c4e2ee)" d="M 228.396263 295.986667 
L 237.259495 295.986667 
L 237.259495 20.55781 
L 228.396263 20.55781 
z
" style="fill:#d95f02;opacity:0.6;stroke:#000000;stroke-linejoin:miter;stroke-width:0.5;"/>
   </g>
   <g id="patch_116">
    <path clip-path="url(#pe0d1c4e2ee)" d="M 237.259495 295.986667 
L 246.122727 295.986667 
L 246.122727 233.389199 
L 237.259495 233.389199 
z
" style="fill:#d95f02;opacity:0.6;stroke:#000000;stroke-linejoin:miter;stroke-width:0.5;"/>
   </g>
   <g id="patch_117">
    <path clip-path="url(#pe0d1c4e2ee)" d="M 246.122727 295.986667 
L 254.98596 295.986667 
L 254.98596 289.72692 
L 246.122727 289.72692 
z
" style="fill:#d95f02;opacity:0.6;stroke:#000000;stroke-linejoin:miter;stroke-width:0.5;"/>
   </g>
   <g id="patch_118">
    <path clip-path="url(#pe0d1c4e2ee)" d="M 254.98596 295.986667 
L 263.849192 295.986667 
L 263.849192 295.986667 
L 254.98596 295.986667 
z
" style="fill:#d95f02;opacity:0.6;stroke:#000000;stroke-linejoin:miter;stroke-width:0.5;"/>
   </g>
   <g id="patch_119">
    <path clip-path="url(#pe0d1c4e2ee)" d="M 263.849192 295.986667 
L 272.712424 295.986667 
L 272.712424 295.986667 
L 263.849192 295.986667 
z
" style="fill:#d95f02;opacity:0.6;stroke:#000000;stroke-linejoin:miter;stroke-width:0.5;"/>
   </g>
   <g id="patch_120">
    <path clip-path="url(#pe0d1c4e2ee)" d="M 272.712424 295.986667 
L 281.575657 295.986667 
L 281.575657 295.986667 
L 272.712424 295.986667 
z
" style="fill:#d95f02;opacity:0.6;stroke:#000000;stroke-linejoin:miter;stroke-width:0.5;"/>
   </g>
   <g id="patch_121">
    <path clip-path="url(#pe0d1c4e2ee)" d="M 281.575657 295.986667 
L 290.438889 295.986667 
L 290.438889 295.986667 
L 281.575657 295.986667 
z
" style="fill:#d95f02;opacity:0.6;stroke:#000000;stroke-linejoin:miter;stroke-width:0.5;"/>
   </g>
   <g id="patch_122">
    <path clip-path="url(#pe0d1c4e2ee)" d="M 290.438889 295.986667 
L 299.302121 295.986667 
L 299.302121 295.986667 
L 290.438889 295.986667 
z
" style="fill:#d95f02;opacity:0.6;stroke:#000000;stroke-linejoin:miter;stroke-width:0.5;"/>
   </g>
   <g id="patch_123">
    <path clip-path="url(#pe0d1c4e2ee)" d="M 299.302121 295.986667 
L 308.165354 295.986667 
L 308.165354 295.986667 
L 299.302121 295.986667 
z
" style="fill:#d95f02;opacity:0.6;stroke:#000000;stroke-linejoin:miter;stroke-width:0.5;"/>
   </g>
   <g id="patch_124">
    <path clip-path="url(#pe0d1c4e2ee)" d="M 308.165354 295.986667 
L 317.028586 295.986667 
L 317.028586 295.986667 
L 308.165354 295.986667 
z
" style="fill:#d95f02;opacity:0.6;stroke:#000000;stroke-linejoin:miter;stroke-width:0.5;"/>
   </g>
   <g id="patch_125">
    <path clip-path="url(#pe0d1c4e2ee)" d="M 317.028586 295.986667 
L 325.891818 295.986667 
L 325.891818 295.986667 
L 317.028586 295.986667 
z
" style="fill:#d95f02;opacity:0.6;stroke:#000000;stroke-linejoin:miter;stroke-width:0.5;"/>
   </g>
   <g id="matplotlib.axis_3">
    <g id="xtick_4">
     <g id="line2d_10">
      <g>
       <use style="stroke:#000000;stroke-width:1.6;" x="59.994848" xlink:href="#m1848d8486d" y="295.986667"/>
      </g>
     </g>
     <g id="text_10">
      <!-- −1 -->
      <g transform="translate(45.252661 325.883542)scale(0.2 -0.2)">
       <use xlink:href="#DejaVuSans-8722"/>
       <use x="83.789062" xlink:href="#DejaVuSans-49"/>
      </g>
     </g>
    </g>
    <g id="xtick_5">
     <g id="line2d_11">
      <g>
       <use style="stroke:#000000;stroke-width:1.6;" x="192.943333" xlink:href="#m1848d8486d" y="295.986667"/>
      </g>
     </g>
     <g id="text_11">
      <!-- 0 -->
      <g transform="translate(186.580833 325.883542)scale(0.2 -0.2)">
       <use xlink:href="#DejaVuSans-48"/>
      </g>
     </g>
    </g>
    <g id="xtick_6">
     <g id="line2d_12">
      <g>
       <use style="stroke:#000000;stroke-width:1.6;" x="325.891818" xlink:href="#m1848d8486d" y="295.986667"/>
      </g>
     </g>
     <g id="text_12">
      <!-- 1 -->
      <g transform="translate(319.529318 325.883542)scale(0.2 -0.2)">
       <use xlink:href="#DejaVuSans-49"/>
      </g>
     </g>
    </g>
   </g>
   <g id="matplotlib.axis_4">
    <g id="ytick_7">
     <g id="line2d_13">
      <g>
       <use style="stroke:#000000;stroke-width:1.6;" x="46.7" xlink:href="#m74c2d850ba" y="295.986667"/>
      </g>
     </g>
     <g id="text_13">
      <!-- 0.0 -->
      <g transform="translate(0.19375 303.585104)scale(0.2 -0.2)">
       <use xlink:href="#DejaVuSans-48"/>
       <use x="63.623047" xlink:href="#DejaVuSans-46"/>
       <use x="95.410156" xlink:href="#DejaVuSans-48"/>
      </g>
     </g>
    </g>
    <g id="ytick_8">
     <g id="line2d_14">
      <g>
       <use style="stroke:#000000;stroke-width:1.6;" x="46.7" xlink:href="#m74c2d850ba" y="221.808668"/>
      </g>
     </g>
     <g id="text_14">
      <!-- 0.1 -->
      <g transform="translate(0.19375 229.407105)scale(0.2 -0.2)">
       <use xlink:href="#DejaVuSans-48"/>
       <use x="63.623047" xlink:href="#DejaVuSans-46"/>
       <use x="95.410156" xlink:href="#DejaVuSans-49"/>
      </g>
     </g>
    </g>
    <g id="ytick_9">
     <g id="line2d_15">
      <g>
       <use style="stroke:#000000;stroke-width:1.6;" x="46.7" xlink:href="#m74c2d850ba" y="147.630669"/>
      </g>
     </g>
     <g id="text_15">
      <!-- 0.2 -->
      <g transform="translate(0.19375 155.229106)scale(0.2 -0.2)">
       <use xlink:href="#DejaVuSans-48"/>
       <use x="63.623047" xlink:href="#DejaVuSans-46"/>
       <use x="95.410156" xlink:href="#DejaVuSans-50"/>
      </g>
     </g>
    </g>
    <g id="ytick_10">
     <g id="line2d_16">
      <g>
       <use style="stroke:#000000;stroke-width:1.6;" x="46.7" xlink:href="#m74c2d850ba" y="73.45267"/>
      </g>
     </g>
     <g id="text_16">
      <!-- 0.3 -->
      <g transform="translate(0.19375 81.051107)scale(0.2 -0.2)">
       <use xlink:href="#DejaVuSans-48"/>
       <use x="63.623047" xlink:href="#DejaVuSans-46"/>
       <use x="95.410156" xlink:href="#DejaVuSans-51"/>
      </g>
     </g>
    </g>
   </g>
   <g id="patch_126">
    <path d="M 46.7 295.986667 
L 46.7 3.5 
" style="fill:none;stroke:#000000;stroke-linecap:square;stroke-linejoin:miter;stroke-width:0.8;"/>
   </g>
   <g id="patch_127">
    <path d="M 46.7 295.986667 
L 339.186667 295.986667 
" style="fill:none;stroke:#000000;stroke-linecap:square;stroke-linejoin:miter;stroke-width:0.8;"/>
   </g>
  </g>
  <g id="axes_3">
   <g id="patch_128">
    <path d="M 400.546667 295.986667 
L 693.033333 295.986667 
L 693.033333 3.5 
L 400.546667 3.5 
z
" style="fill:#ffffff;"/>
   </g>
   <g id="patch_129">
    <path clip-path="url(#p1a3eea93ad)" d="M 413.841515 295.986667 
L 422.704747 295.986667 
L 422.704747 295.986667 
L 413.841515 295.986667 
z
" style="fill:#7570b3;opacity:0.6;stroke:#000000;stroke-linejoin:miter;stroke-width:0.5;"/>
   </g>
   <g id="patch_130">
    <path clip-path="url(#p1a3eea93ad)" d="M 422.704747 295.986667 
L 431.56798 295.986667 
L 431.56798 295.986667 
L 422.704747 295.986667 
z
" style="fill:#7570b3;opacity:0.6;stroke:#000000;stroke-linejoin:miter;stroke-width:0.5;"/>
   </g>
   <g id="patch_131">
    <path clip-path="url(#p1a3eea93ad)" d="M 431.56798 295.986667 
L 440.431212 295.986667 
L 440.431212 295.986667 
L 431.56798 295.986667 
z
" style="fill:#7570b3;opacity:0.6;stroke:#000000;stroke-linejoin:miter;stroke-width:0.5;"/>
   </g>
   <g id="patch_132">
    <path clip-path="url(#p1a3eea93ad)" d="M 440.431212 295.986667 
L 449.294444 295.986667 
L 449.294444 295.986667 
L 440.431212 295.986667 
z
" style="fill:#7570b3;opacity:0.6;stroke:#000000;stroke-linejoin:miter;stroke-width:0.5;"/>
   </g>
   <g id="patch_133">
    <path clip-path="url(#p1a3eea93ad)" d="M 449.294444 295.986667 
L 458.157677 295.986667 
L 458.157677 295.986667 
L 449.294444 295.986667 
z
" style="fill:#7570b3;opacity:0.6;stroke:#000000;stroke-linejoin:miter;stroke-width:0.5;"/>
   </g>
   <g id="patch_134">
    <path clip-path="url(#p1a3eea93ad)" d="M 458.157677 295.986667 
L 467.020909 295.986667 
L 467.020909 295.986667 
L 458.157677 295.986667 
z
" style="fill:#7570b3;opacity:0.6;stroke:#000000;stroke-linejoin:miter;stroke-width:0.5;"/>
   </g>
   <g id="patch_135">
    <path clip-path="url(#p1a3eea93ad)" d="M 467.020909 295.986667 
L 475.884141 295.986667 
L 475.884141 295.986667 
L 467.020909 295.986667 
z
" style="fill:#7570b3;opacity:0.6;stroke:#000000;stroke-linejoin:miter;stroke-width:0.5;"/>
   </g>
   <g id="patch_136">
    <path clip-path="url(#p1a3eea93ad)" d="M 475.884141 295.986667 
L 484.747374 295.986667 
L 484.747374 295.986667 
L 475.884141 295.986667 
z
" style="fill:#7570b3;opacity:0.6;stroke:#000000;stroke-linejoin:miter;stroke-width:0.5;"/>
   </g>
   <g id="patch_137">
    <path clip-path="url(#p1a3eea93ad)" d="M 484.747374 295.986667 
L 493.610606 295.986667 
L 493.610606 295.986667 
L 484.747374 295.986667 
z
" style="fill:#7570b3;opacity:0.6;stroke:#000000;stroke-linejoin:miter;stroke-width:0.5;"/>
   </g>
   <g id="patch_138">
    <path clip-path="url(#p1a3eea93ad)" d="M 493.610606 295.986667 
L 502.473838 295.986667 
L 502.473838 295.986667 
L 493.610606 295.986667 
z
" style="fill:#7570b3;opacity:0.6;stroke:#000000;stroke-linejoin:miter;stroke-width:0.5;"/>
   </g>
   <g id="patch_139">
    <path clip-path="url(#p1a3eea93ad)" d="M 502.473838 295.986667 
L 511.337071 295.986667 
L 511.337071 295.986667 
L 502.473838 295.986667 
z
" style="fill:#7570b3;opacity:0.6;stroke:#000000;stroke-linejoin:miter;stroke-width:0.5;"/>
   </g>
   <g id="patch_140">
    <path clip-path="url(#p1a3eea93ad)" d="M 511.337071 295.986667 
L 520.200303 295.986667 
L 520.200303 295.986667 
L 511.337071 295.986667 
z
" style="fill:#7570b3;opacity:0.6;stroke:#000000;stroke-linejoin:miter;stroke-width:0.5;"/>
   </g>
   <g id="patch_141">
    <path clip-path="url(#p1a3eea93ad)" d="M 520.200303 295.986667 
L 529.063535 295.986667 
L 529.063535 295.986667 
L 520.200303 295.986667 
z
" style="fill:#7570b3;opacity:0.6;stroke:#000000;stroke-linejoin:miter;stroke-width:0.5;"/>
   </g>
   <g id="patch_142">
    <path clip-path="url(#p1a3eea93ad)" d="M 529.063535 295.986667 
L 537.926768 295.986667 
L 537.926768 295.986667 
L 529.063535 295.986667 
z
" style="fill:#7570b3;opacity:0.6;stroke:#000000;stroke-linejoin:miter;stroke-width:0.5;"/>
   </g>
   <g id="patch_143">
    <path clip-path="url(#p1a3eea93ad)" d="M 537.926768 295.986667 
L 546.79 295.986667 
L 546.79 295.986667 
L 537.926768 295.986667 
z
" style="fill:#7570b3;opacity:0.6;stroke:#000000;stroke-linejoin:miter;stroke-width:0.5;"/>
   </g>
   <g id="patch_144">
    <path clip-path="url(#p1a3eea93ad)" d="M 546.79 295.986667 
L 555.653232 295.986667 
L 555.653232 295.986667 
L 546.79 295.986667 
z
" style="fill:#7570b3;opacity:0.6;stroke:#000000;stroke-linejoin:miter;stroke-width:0.5;"/>
   </g>
   <g id="patch_145">
    <path clip-path="url(#p1a3eea93ad)" d="M 555.653232 295.986667 
L 564.516465 295.986667 
L 564.516465 295.986667 
L 555.653232 295.986667 
z
" style="fill:#7570b3;opacity:0.6;stroke:#000000;stroke-linejoin:miter;stroke-width:0.5;"/>
   </g>
   <g id="patch_146">
    <path clip-path="url(#p1a3eea93ad)" d="M 564.516465 295.986667 
L 573.379697 295.986667 
L 573.379697 295.986667 
L 564.516465 295.986667 
z
" style="fill:#7570b3;opacity:0.6;stroke:#000000;stroke-linejoin:miter;stroke-width:0.5;"/>
   </g>
   <g id="patch_147">
    <path clip-path="url(#p1a3eea93ad)" d="M 573.379697 295.986667 
L 582.242929 295.986667 
L 582.242929 295.986667 
L 573.379697 295.986667 
z
" style="fill:#7570b3;opacity:0.6;stroke:#000000;stroke-linejoin:miter;stroke-width:0.5;"/>
   </g>
   <g id="patch_148">
    <path clip-path="url(#p1a3eea93ad)" d="M 582.242929 295.986667 
L 591.106162 295.986667 
L 591.106162 295.986667 
L 582.242929 295.986667 
z
" style="fill:#7570b3;opacity:0.6;stroke:#000000;stroke-linejoin:miter;stroke-width:0.5;"/>
   </g>
   <g id="patch_149">
    <path clip-path="url(#p1a3eea93ad)" d="M 591.106162 295.986667 
L 599.969394 295.986667 
L 599.969394 295.986667 
L 591.106162 295.986667 
z
" style="fill:#7570b3;opacity:0.6;stroke:#000000;stroke-linejoin:miter;stroke-width:0.5;"/>
   </g>
   <g id="patch_150">
    <path clip-path="url(#p1a3eea93ad)" d="M 599.969394 295.986667 
L 608.832626 295.986667 
L 608.832626 295.986667 
L 599.969394 295.986667 
z
" style="fill:#7570b3;opacity:0.6;stroke:#000000;stroke-linejoin:miter;stroke-width:0.5;"/>
   </g>
   <g id="patch_151">
    <path clip-path="url(#p1a3eea93ad)" d="M 608.832626 295.986667 
L 617.695859 295.986667 
L 617.695859 295.986667 
L 608.832626 295.986667 
z
" style="fill:#7570b3;opacity:0.6;stroke:#000000;stroke-linejoin:miter;stroke-width:0.5;"/>
   </g>
   <g id="patch_152">
    <path clip-path="url(#p1a3eea93ad)" d="M 617.695859 295.986667 
L 626.559091 295.986667 
L 626.559091 295.986667 
L 617.695859 295.986667 
z
" style="fill:#7570b3;opacity:0.6;stroke:#000000;stroke-linejoin:miter;stroke-width:0.5;"/>
   </g>
   <g id="patch_153">
    <path clip-path="url(#p1a3eea93ad)" d="M 626.559091 295.986667 
L 635.422323 295.986667 
L 635.422323 295.986667 
L 626.559091 295.986667 
z
" style="fill:#7570b3;opacity:0.6;stroke:#000000;stroke-linejoin:miter;stroke-width:0.5;"/>
   </g>
   <g id="patch_154">
    <path clip-path="url(#p1a3eea93ad)" d="M 635.422323 295.986667 
L 644.285556 295.986667 
L 644.285556 295.986667 
L 635.422323 295.986667 
z
" style="fill:#7570b3;opacity:0.6;stroke:#000000;stroke-linejoin:miter;stroke-width:0.5;"/>
   </g>
   <g id="patch_155">
    <path clip-path="url(#p1a3eea93ad)" d="M 644.285556 295.986667 
L 653.148788 295.986667 
L 653.148788 295.986667 
L 644.285556 295.986667 
z
" style="fill:#7570b3;opacity:0.6;stroke:#000000;stroke-linejoin:miter;stroke-width:0.5;"/>
   </g>
   <g id="patch_156">
    <path clip-path="url(#p1a3eea93ad)" d="M 653.148788 295.986667 
L 662.01202 295.986667 
L 662.01202 295.986667 
L 653.148788 295.986667 
z
" style="fill:#7570b3;opacity:0.6;stroke:#000000;stroke-linejoin:miter;stroke-width:0.5;"/>
   </g>
   <g id="patch_157">
    <path clip-path="url(#p1a3eea93ad)" d="M 662.01202 295.986667 
L 670.875253 295.986667 
L 670.875253 295.986667 
L 662.01202 295.986667 
z
" style="fill:#7570b3;opacity:0.6;stroke:#000000;stroke-linejoin:miter;stroke-width:0.5;"/>
   </g>
   <g id="patch_158">
    <path clip-path="url(#p1a3eea93ad)" d="M 670.875253 295.986667 
L 679.738485 295.986667 
L 679.738485 17.427937 
L 670.875253 17.427937 
z
" style="fill:#7570b3;opacity:0.6;stroke:#000000;stroke-linejoin:miter;stroke-width:0.5;"/>
   </g>
   <g id="patch_159">
    <path clip-path="url(#p1a3eea93ad)" d="M 413.841515 295.986667 
L 422.704747 295.986667 
L 422.704747 295.986667 
L 413.841515 295.986667 
z
" style="fill:#d95f02;opacity:0.6;stroke:#000000;stroke-linejoin:miter;stroke-width:0.5;"/>
   </g>
   <g id="patch_160">
    <path clip-path="url(#p1a3eea93ad)" d="M 422.704747 295.986667 
L 431.56798 295.986667 
L 431.56798 295.986667 
L 422.704747 295.986667 
z
" style="fill:#d95f02;opacity:0.6;stroke:#000000;stroke-linejoin:miter;stroke-width:0.5;"/>
   </g>
   <g id="patch_161">
    <path clip-path="url(#p1a3eea93ad)" d="M 431.56798 295.986667 
L 440.431212 295.986667 
L 440.431212 295.986667 
L 431.56798 295.986667 
z
" style="fill:#d95f02;opacity:0.6;stroke:#000000;stroke-linejoin:miter;stroke-width:0.5;"/>
   </g>
   <g id="patch_162">
    <path clip-path="url(#p1a3eea93ad)" d="M 440.431212 295.986667 
L 449.294444 295.986667 
L 449.294444 295.986667 
L 440.431212 295.986667 
z
" style="fill:#d95f02;opacity:0.6;stroke:#000000;stroke-linejoin:miter;stroke-width:0.5;"/>
   </g>
   <g id="patch_163">
    <path clip-path="url(#p1a3eea93ad)" d="M 449.294444 295.986667 
L 458.157677 295.986667 
L 458.157677 295.986667 
L 449.294444 295.986667 
z
" style="fill:#d95f02;opacity:0.6;stroke:#000000;stroke-linejoin:miter;stroke-width:0.5;"/>
   </g>
   <g id="patch_164">
    <path clip-path="url(#p1a3eea93ad)" d="M 458.157677 295.986667 
L 467.020909 295.986667 
L 467.020909 295.986667 
L 458.157677 295.986667 
z
" style="fill:#d95f02;opacity:0.6;stroke:#000000;stroke-linejoin:miter;stroke-width:0.5;"/>
   </g>
   <g id="patch_165">
    <path clip-path="url(#p1a3eea93ad)" d="M 467.020909 295.986667 
L 475.884141 295.986667 
L 475.884141 295.986667 
L 467.020909 295.986667 
z
" style="fill:#d95f02;opacity:0.6;stroke:#000000;stroke-linejoin:miter;stroke-width:0.5;"/>
   </g>
   <g id="patch_166">
    <path clip-path="url(#p1a3eea93ad)" d="M 475.884141 295.986667 
L 484.747374 295.986667 
L 484.747374 295.986667 
L 475.884141 295.986667 
z
" style="fill:#d95f02;opacity:0.6;stroke:#000000;stroke-linejoin:miter;stroke-width:0.5;"/>
   </g>
   <g id="patch_167">
    <path clip-path="url(#p1a3eea93ad)" d="M 484.747374 295.986667 
L 493.610606 295.986667 
L 493.610606 295.986667 
L 484.747374 295.986667 
z
" style="fill:#d95f02;opacity:0.6;stroke:#000000;stroke-linejoin:miter;stroke-width:0.5;"/>
   </g>
   <g id="patch_168">
    <path clip-path="url(#p1a3eea93ad)" d="M 493.610606 295.986667 
L 502.473838 295.986667 
L 502.473838 295.986667 
L 493.610606 295.986667 
z
" style="fill:#d95f02;opacity:0.6;stroke:#000000;stroke-linejoin:miter;stroke-width:0.5;"/>
   </g>
   <g id="patch_169">
    <path clip-path="url(#p1a3eea93ad)" d="M 502.473838 295.986667 
L 511.337071 295.986667 
L 511.337071 295.986667 
L 502.473838 295.986667 
z
" style="fill:#d95f02;opacity:0.6;stroke:#000000;stroke-linejoin:miter;stroke-width:0.5;"/>
   </g>
   <g id="patch_170">
    <path clip-path="url(#p1a3eea93ad)" d="M 511.337071 295.986667 
L 520.200303 295.986667 
L 520.200303 295.986667 
L 511.337071 295.986667 
z
" style="fill:#d95f02;opacity:0.6;stroke:#000000;stroke-linejoin:miter;stroke-width:0.5;"/>
   </g>
   <g id="patch_171">
    <path clip-path="url(#p1a3eea93ad)" d="M 520.200303 295.986667 
L 529.063535 295.986667 
L 529.063535 295.986667 
L 520.200303 295.986667 
z
" style="fill:#d95f02;opacity:0.6;stroke:#000000;stroke-linejoin:miter;stroke-width:0.5;"/>
   </g>
   <g id="patch_172">
    <path clip-path="url(#p1a3eea93ad)" d="M 529.063535 295.986667 
L 537.926768 295.986667 
L 537.926768 295.986667 
L 529.063535 295.986667 
z
" style="fill:#d95f02;opacity:0.6;stroke:#000000;stroke-linejoin:miter;stroke-width:0.5;"/>
   </g>
   <g id="patch_173">
    <path clip-path="url(#p1a3eea93ad)" d="M 537.926768 295.986667 
L 546.79 295.986667 
L 546.79 295.986667 
L 537.926768 295.986667 
z
" style="fill:#d95f02;opacity:0.6;stroke:#000000;stroke-linejoin:miter;stroke-width:0.5;"/>
   </g>
   <g id="patch_174">
    <path clip-path="url(#p1a3eea93ad)" d="M 546.79 295.986667 
L 555.653232 295.986667 
L 555.653232 295.986667 
L 546.79 295.986667 
z
" style="fill:#d95f02;opacity:0.6;stroke:#000000;stroke-linejoin:miter;stroke-width:0.5;"/>
   </g>
   <g id="patch_175">
    <path clip-path="url(#p1a3eea93ad)" d="M 555.653232 295.986667 
L 564.516465 295.986667 
L 564.516465 295.986667 
L 555.653232 295.986667 
z
" style="fill:#d95f02;opacity:0.6;stroke:#000000;stroke-linejoin:miter;stroke-width:0.5;"/>
   </g>
   <g id="patch_176">
    <path clip-path="url(#p1a3eea93ad)" d="M 564.516465 295.986667 
L 573.379697 295.986667 
L 573.379697 295.986667 
L 564.516465 295.986667 
z
" style="fill:#d95f02;opacity:0.6;stroke:#000000;stroke-linejoin:miter;stroke-width:0.5;"/>
   </g>
   <g id="patch_177">
    <path clip-path="url(#p1a3eea93ad)" d="M 573.379697 295.986667 
L 582.242929 295.986667 
L 582.242929 295.986667 
L 573.379697 295.986667 
z
" style="fill:#d95f02;opacity:0.6;stroke:#000000;stroke-linejoin:miter;stroke-width:0.5;"/>
   </g>
   <g id="patch_178">
    <path clip-path="url(#p1a3eea93ad)" d="M 582.242929 295.986667 
L 591.106162 295.986667 
L 591.106162 295.986667 
L 582.242929 295.986667 
z
" style="fill:#d95f02;opacity:0.6;stroke:#000000;stroke-linejoin:miter;stroke-width:0.5;"/>
   </g>
   <g id="patch_179">
    <path clip-path="url(#p1a3eea93ad)" d="M 591.106162 295.986667 
L 599.969394 295.986667 
L 599.969394 295.986667 
L 591.106162 295.986667 
z
" style="fill:#d95f02;opacity:0.6;stroke:#000000;stroke-linejoin:miter;stroke-width:0.5;"/>
   </g>
   <g id="patch_180">
    <path clip-path="url(#p1a3eea93ad)" d="M 599.969394 295.986667 
L 608.832626 295.986667 
L 608.832626 295.986667 
L 599.969394 295.986667 
z
" style="fill:#d95f02;opacity:0.6;stroke:#000000;stroke-linejoin:miter;stroke-width:0.5;"/>
   </g>
   <g id="patch_181">
    <path clip-path="url(#p1a3eea93ad)" d="M 608.832626 295.986667 
L 617.695859 295.986667 
L 617.695859 295.986667 
L 608.832626 295.986667 
z
" style="fill:#d95f02;opacity:0.6;stroke:#000000;stroke-linejoin:miter;stroke-width:0.5;"/>
   </g>
   <g id="patch_182">
    <path clip-path="url(#p1a3eea93ad)" d="M 617.695859 295.986667 
L 626.559091 295.986667 
L 626.559091 295.986667 
L 617.695859 295.986667 
z
" style="fill:#d95f02;opacity:0.6;stroke:#000000;stroke-linejoin:miter;stroke-width:0.5;"/>
   </g>
   <g id="patch_183">
    <path clip-path="url(#p1a3eea93ad)" d="M 626.559091 295.986667 
L 635.422323 295.986667 
L 635.422323 295.986667 
L 626.559091 295.986667 
z
" style="fill:#d95f02;opacity:0.6;stroke:#000000;stroke-linejoin:miter;stroke-width:0.5;"/>
   </g>
   <g id="patch_184">
    <path clip-path="url(#p1a3eea93ad)" d="M 635.422323 295.986667 
L 644.285556 295.986667 
L 644.285556 295.986667 
L 635.422323 295.986667 
z
" style="fill:#d95f02;opacity:0.6;stroke:#000000;stroke-linejoin:miter;stroke-width:0.5;"/>
   </g>
   <g id="patch_185">
    <path clip-path="url(#p1a3eea93ad)" d="M 644.285556 295.986667 
L 653.148788 295.986667 
L 653.148788 295.986667 
L 644.285556 295.986667 
z
" style="fill:#d95f02;opacity:0.6;stroke:#000000;stroke-linejoin:miter;stroke-width:0.5;"/>
   </g>
   <g id="patch_186">
    <path clip-path="url(#p1a3eea93ad)" d="M 653.148788 295.986667 
L 662.01202 295.986667 
L 662.01202 295.986667 
L 653.148788 295.986667 
z
" style="fill:#d95f02;opacity:0.6;stroke:#000000;stroke-linejoin:miter;stroke-width:0.5;"/>
   </g>
   <g id="patch_187">
    <path clip-path="url(#p1a3eea93ad)" d="M 662.01202 295.986667 
L 670.875253 295.986667 
L 670.875253 295.986667 
L 662.01202 295.986667 
z
" style="fill:#d95f02;opacity:0.6;stroke:#000000;stroke-linejoin:miter;stroke-width:0.5;"/>
   </g>
   <g id="patch_188">
    <path clip-path="url(#p1a3eea93ad)" d="M 670.875253 295.986667 
L 679.738485 295.986667 
L 679.738485 17.427937 
L 670.875253 17.427937 
z
" style="fill:#d95f02;opacity:0.6;stroke:#000000;stroke-linejoin:miter;stroke-width:0.5;"/>
   </g>
   <g id="matplotlib.axis_5">
    <g id="xtick_7">
     <g id="line2d_17">
      <g>
       <use style="stroke:#000000;stroke-width:1.6;" x="413.841515" xlink:href="#m1848d8486d" y="295.986667"/>
      </g>
     </g>
     <g id="text_17">
      <!-- −1 -->
      <g transform="translate(399.099328 325.883542)scale(0.2 -0.2)">
       <use xlink:href="#DejaVuSans-8722"/>
       <use x="83.789062" xlink:href="#DejaVuSans-49"/>
      </g>
     </g>
    </g>
    <g id="xtick_8">
     <g id="line2d_18">
      <g>
       <use style="stroke:#000000;stroke-width:1.6;" x="546.79" xlink:href="#m1848d8486d" y="295.986667"/>
      </g>
     </g>
     <g id="text_18">
      <!-- 0 -->
      <g transform="translate(540.4275 325.883542)scale(0.2 -0.2)">
       <use xlink:href="#DejaVuSans-48"/>
      </g>
     </g>
    </g>
    <g id="xtick_9">
     <g id="line2d_19">
      <g>
       <use style="stroke:#000000;stroke-width:1.6;" x="679.738485" xlink:href="#m1848d8486d" y="295.986667"/>
      </g>
     </g>
     <g id="text_19">
      <!-- 1 -->
      <g transform="translate(673.375985 325.883542)scale(0.2 -0.2)">
       <use xlink:href="#DejaVuSans-49"/>
      </g>
     </g>
    </g>
   </g>
   <g id="matplotlib.axis_6">
    <g id="ytick_11">
     <g id="line2d_20">
      <g>
       <use style="stroke:#000000;stroke-width:1.6;" x="400.546667" xlink:href="#m74c2d850ba" y="295.986667"/>
      </g>
     </g>
     <g id="text_20">
      <!-- 0.0 -->
      <g transform="translate(354.040417 303.585104)scale(0.2 -0.2)">
       <use xlink:href="#DejaVuSans-48"/>
       <use x="63.623047" xlink:href="#DejaVuSans-46"/>
       <use x="95.410156" xlink:href="#DejaVuSans-48"/>
      </g>
     </g>
    </g>
    <g id="ytick_12">
     <g id="line2d_21">
      <g>
       <use style="stroke:#000000;stroke-width:1.6;" x="400.546667" xlink:href="#m74c2d850ba" y="240.274921"/>
      </g>
     </g>
     <g id="text_21">
      <!-- 0.2 -->
      <g transform="translate(354.040417 247.873358)scale(0.2 -0.2)">
       <use xlink:href="#DejaVuSans-48"/>
       <use x="63.623047" xlink:href="#DejaVuSans-46"/>
       <use x="95.410156" xlink:href="#DejaVuSans-50"/>
      </g>
     </g>
    </g>
    <g id="ytick_13">
     <g id="line2d_22">
      <g>
       <use style="stroke:#000000;stroke-width:1.6;" x="400.546667" xlink:href="#m74c2d850ba" y="184.563175"/>
      </g>
     </g>
     <g id="text_22">
      <!-- 0.4 -->
      <g transform="translate(354.040417 192.161612)scale(0.2 -0.2)">
       <use xlink:href="#DejaVuSans-48"/>
       <use x="63.623047" xlink:href="#DejaVuSans-46"/>
       <use x="95.410156" xlink:href="#DejaVuSans-52"/>
      </g>
     </g>
    </g>
    <g id="ytick_14">
     <g id="line2d_23">
      <g>
       <use style="stroke:#000000;stroke-width:1.6;" x="400.546667" xlink:href="#m74c2d850ba" y="128.851429"/>
      </g>
     </g>
     <g id="text_23">
      <!-- 0.6 -->
      <defs>
       <path d="M 33.015625 40.375 
Q 26.375 40.375 22.484375 35.828125 
Q 18.609375 31.296875 18.609375 23.390625 
Q 18.609375 15.53125 22.484375 10.953125 
Q 26.375 6.390625 33.015625 6.390625 
Q 39.65625 6.390625 43.53125 10.953125 
Q 47.40625 15.53125 47.40625 23.390625 
Q 47.40625 31.296875 43.53125 35.828125 
Q 39.65625 40.375 33.015625 40.375 
z
M 52.59375 71.296875 
L 52.59375 62.3125 
Q 48.875 64.0625 45.09375 64.984375 
Q 41.3125 65.921875 37.59375 65.921875 
Q 27.828125 65.921875 22.671875 59.328125 
Q 17.53125 52.734375 16.796875 39.40625 
Q 19.671875 43.65625 24.015625 45.921875 
Q 28.375 48.1875 33.59375 48.1875 
Q 44.578125 48.1875 50.953125 41.515625 
Q 57.328125 34.859375 57.328125 23.390625 
Q 57.328125 12.15625 50.6875 5.359375 
Q 44.046875 -1.421875 33.015625 -1.421875 
Q 20.359375 -1.421875 13.671875 8.265625 
Q 6.984375 17.96875 6.984375 36.375 
Q 6.984375 53.65625 15.1875 63.9375 
Q 23.390625 74.21875 37.203125 74.21875 
Q 40.921875 74.21875 44.703125 73.484375 
Q 48.484375 72.75 52.59375 71.296875 
z
" id="DejaVuSans-54"/>
      </defs>
      <g transform="translate(354.040417 136.449866)scale(0.2 -0.2)">
       <use xlink:href="#DejaVuSans-48"/>
       <use x="63.623047" xlink:href="#DejaVuSans-46"/>
       <use x="95.410156" xlink:href="#DejaVuSans-54"/>
      </g>
     </g>
    </g>
    <g id="ytick_15">
     <g id="line2d_24">
      <g>
       <use style="stroke:#000000;stroke-width:1.6;" x="400.546667" xlink:href="#m74c2d850ba" y="73.139683"/>
      </g>
     </g>
     <g id="text_24">
      <!-- 0.8 -->
      <defs>
       <path d="M 31.78125 34.625 
Q 24.75 34.625 20.71875 30.859375 
Q 16.703125 27.09375 16.703125 20.515625 
Q 16.703125 13.921875 20.71875 10.15625 
Q 24.75 6.390625 31.78125 6.390625 
Q 38.8125 6.390625 42.859375 10.171875 
Q 46.921875 13.96875 46.921875 20.515625 
Q 46.921875 27.09375 42.890625 30.859375 
Q 38.875 34.625 31.78125 34.625 
z
M 21.921875 38.8125 
Q 15.578125 40.375 12.03125 44.71875 
Q 8.5 49.078125 8.5 55.328125 
Q 8.5 64.0625 14.71875 69.140625 
Q 20.953125 74.21875 31.78125 74.21875 
Q 42.671875 74.21875 48.875 69.140625 
Q 55.078125 64.0625 55.078125 55.328125 
Q 55.078125 49.078125 51.53125 44.71875 
Q 48 40.375 41.703125 38.8125 
Q 48.828125 37.15625 52.796875 32.3125 
Q 56.78125 27.484375 56.78125 20.515625 
Q 56.78125 9.90625 50.3125 4.234375 
Q 43.84375 -1.421875 31.78125 -1.421875 
Q 19.734375 -1.421875 13.25 4.234375 
Q 6.78125 9.90625 6.78125 20.515625 
Q 6.78125 27.484375 10.78125 32.3125 
Q 14.796875 37.15625 21.921875 38.8125 
z
M 18.3125 54.390625 
Q 18.3125 48.734375 21.84375 45.5625 
Q 25.390625 42.390625 31.78125 42.390625 
Q 38.140625 42.390625 41.71875 45.5625 
Q 45.3125 48.734375 45.3125 54.390625 
Q 45.3125 60.0625 41.71875 63.234375 
Q 38.140625 66.40625 31.78125 66.40625 
Q 25.390625 66.40625 21.84375 63.234375 
Q 18.3125 60.0625 18.3125 54.390625 
z
" id="DejaVuSans-56"/>
      </defs>
      <g transform="translate(354.040417 80.73812)scale(0.2 -0.2)">
       <use xlink:href="#DejaVuSans-48"/>
       <use x="63.623047" xlink:href="#DejaVuSans-46"/>
       <use x="95.410156" xlink:href="#DejaVuSans-56"/>
      </g>
     </g>
    </g>
    <g id="ytick_16">
     <g id="line2d_25">
      <g>
       <use style="stroke:#000000;stroke-width:1.6;" x="400.546667" xlink:href="#m74c2d850ba" y="17.427937"/>
      </g>
     </g>
     <g id="text_25">
      <!-- 1.0 -->
      <g transform="translate(354.040417 25.026374)scale(0.2 -0.2)">
       <use xlink:href="#DejaVuSans-49"/>
       <use x="63.623047" xlink:href="#DejaVuSans-46"/>
       <use x="95.410156" xlink:href="#DejaVuSans-48"/>
      </g>
     </g>
    </g>
   </g>
   <g id="patch_189">
    <path style="fill:none;stroke:#000000;stroke-linecap:square;stroke-linejoin:miter;stroke-width:0.8;"/>
   </g>
   <g id="patch_190">
    <path style="fill:none;stroke:#000000;stroke-linecap:square;stroke-linejoin:miter;stroke-width:0.8;"/>
   </g>
  </g>
 </g>
 <defs>
  <clipPath id="pf0c564c7a7">
   <rect height="292.486667" width="292.486667" x="-307.146667" y="3.5"/>
  </clipPath>
  <clipPath id="pe0d1c4e2ee">
   <rect height="292.486667" width="292.486667" x="46.7" y="3.5"/>
  </clipPath>
  <clipPath id="p1a3eea93ad">
   <rect height="292.486667" width="292.486667" x="400.546667" y="3.5"/>
  </clipPath>
 </defs>
</svg>
