<?xml version="1.0" encoding="utf-8" standalone="no"?>
<!DOCTYPE svg PUBLIC "-//W3C//DTD SVG 1.1//EN"
  "http://www.w3.org/Graphics/SVG/1.1/DTD/svg11.dtd">
<!-- Created with matplotlib (https://matplotlib.org/) -->
<svg height="335.516667pt" version="1.1" viewBox="0 0 348.516667 335.516667" width="348.516667pt" xmlns="http://www.w3.org/2000/svg" xmlns:xlink="http://www.w3.org/1999/xlink">
 <defs>
  <style type="text/css">
*{stroke-linecap:butt;stroke-linejoin:round;}
  </style>
 </defs>
 <g id="figure_1">
  <g id="patch_1">
   <path d="M 0 335.516667 
L 348.516667 335.516667 
L 348.516667 0 
L 0 0 
z
" style="fill:#ffffff;"/>
  </g>
  <g id="axes_1">
   <g id="patch_2">
    <path d="M -305.416667 301.816667 
L -7.1 301.816667 
L -7.1 3.5 
L -305.416667 3.5 
z
" style="fill:#ffffff;"/>
   </g>
   <g id="patch_3">
    <path clip-path="url(#p672a61653e)" d="M -291.856818 301.816667 
L -282.816919 301.816667 
L -282.816919 301.816667 
L -291.856818 301.816667 
z
" style="fill:#7570b3;opacity:0.6;stroke:#000000;stroke-linejoin:miter;stroke-width:0.5;"/>
   </g>
   <g id="patch_4">
    <path clip-path="url(#p672a61653e)" d="M -282.816919 301.816667 
L -273.77702 301.816667 
L -273.77702 301.816667 
L -282.816919 301.816667 
z
" style="fill:#7570b3;opacity:0.6;stroke:#000000;stroke-linejoin:miter;stroke-width:0.5;"/>
   </g>
   <g id="patch_5">
    <path clip-path="url(#p672a61653e)" d="M -273.77702 301.816667 
L -264.737121 301.816667 
L -264.737121 301.816667 
L -273.77702 301.816667 
z
" style="fill:#7570b3;opacity:0.6;stroke:#000000;stroke-linejoin:miter;stroke-width:0.5;"/>
   </g>
   <g id="patch_6">
    <path clip-path="url(#p672a61653e)" d="M -264.737121 301.816667 
L -255.697222 301.816667 
L -255.697222 301.816667 
L -264.737121 301.816667 
z
" style="fill:#7570b3;opacity:0.6;stroke:#000000;stroke-linejoin:miter;stroke-width:0.5;"/>
   </g>
   <g id="patch_7">
    <path clip-path="url(#p672a61653e)" d="M -255.697222 301.816667 
L -246.657323 301.816667 
L -246.657323 301.816667 
L -255.697222 301.816667 
z
" style="fill:#7570b3;opacity:0.6;stroke:#000000;stroke-linejoin:miter;stroke-width:0.5;"/>
   </g>
   <g id="patch_8">
    <path clip-path="url(#p672a61653e)" d="M -246.657323 301.816667 
L -237.617424 301.816667 
L -237.617424 301.816667 
L -246.657323 301.816667 
z
" style="fill:#7570b3;opacity:0.6;stroke:#000000;stroke-linejoin:miter;stroke-width:0.5;"/>
   </g>
   <g id="patch_9">
    <path clip-path="url(#p672a61653e)" d="M -237.617424 301.816667 
L -228.577525 301.816667 
L -228.577525 301.816667 
L -237.617424 301.816667 
z
" style="fill:#7570b3;opacity:0.6;stroke:#000000;stroke-linejoin:miter;stroke-width:0.5;"/>
   </g>
   <g id="patch_10">
    <path clip-path="url(#p672a61653e)" d="M -228.577525 301.816667 
L -219.537626 301.816667 
L -219.537626 301.816667 
L -228.577525 301.816667 
z
" style="fill:#7570b3;opacity:0.6;stroke:#000000;stroke-linejoin:miter;stroke-width:0.5;"/>
   </g>
   <g id="patch_11">
    <path clip-path="url(#p672a61653e)" d="M -219.537626 301.816667 
L -210.497727 301.816667 
L -210.497727 301.816667 
L -219.537626 301.816667 
z
" style="fill:#7570b3;opacity:0.6;stroke:#000000;stroke-linejoin:miter;stroke-width:0.5;"/>
   </g>
   <g id="patch_12">
    <path clip-path="url(#p672a61653e)" d="M -210.497727 301.816667 
L -201.457828 301.816667 
L -201.457828 301.816667 
L -210.497727 301.816667 
z
" style="fill:#7570b3;opacity:0.6;stroke:#000000;stroke-linejoin:miter;stroke-width:0.5;"/>
   </g>
   <g id="patch_13">
    <path clip-path="url(#p672a61653e)" d="M -201.457828 301.816667 
L -192.417929 301.816667 
L -192.417929 301.816667 
L -201.457828 301.816667 
z
" style="fill:#7570b3;opacity:0.6;stroke:#000000;stroke-linejoin:miter;stroke-width:0.5;"/>
   </g>
   <g id="patch_14">
    <path clip-path="url(#p672a61653e)" d="M -192.417929 301.816667 
L -183.37803 301.816667 
L -183.37803 301.816667 
L -192.417929 301.816667 
z
" style="fill:#7570b3;opacity:0.6;stroke:#000000;stroke-linejoin:miter;stroke-width:0.5;"/>
   </g>
   <g id="patch_15">
    <path clip-path="url(#p672a61653e)" d="M -183.37803 301.816667 
L -174.338131 301.816667 
L -174.338131 301.816667 
L -183.37803 301.816667 
z
" style="fill:#7570b3;opacity:0.6;stroke:#000000;stroke-linejoin:miter;stroke-width:0.5;"/>
   </g>
   <g id="patch_16">
    <path clip-path="url(#p672a61653e)" d="M -174.338131 301.816667 
L -165.298232 301.816667 
L -165.298232 301.816667 
L -174.338131 301.816667 
z
" style="fill:#7570b3;opacity:0.6;stroke:#000000;stroke-linejoin:miter;stroke-width:0.5;"/>
   </g>
   <g id="patch_17">
    <path clip-path="url(#p672a61653e)" d="M -165.298232 301.816667 
L -156.258333 301.816667 
L -156.258333 301.816667 
L -165.298232 301.816667 
z
" style="fill:#7570b3;opacity:0.6;stroke:#000000;stroke-linejoin:miter;stroke-width:0.5;"/>
   </g>
   <g id="patch_18">
    <path clip-path="url(#p672a61653e)" d="M -156.258333 301.816667 
L -147.218434 301.816667 
L -147.218434 301.816667 
L -156.258333 301.816667 
z
" style="fill:#7570b3;opacity:0.6;stroke:#000000;stroke-linejoin:miter;stroke-width:0.5;"/>
   </g>
   <g id="patch_19">
    <path clip-path="url(#p672a61653e)" d="M -147.218434 301.816667 
L -138.178535 301.816667 
L -138.178535 17.705556 
L -147.218434 17.705556 
z
" style="fill:#7570b3;opacity:0.6;stroke:#000000;stroke-linejoin:miter;stroke-width:0.5;"/>
   </g>
   <g id="patch_20">
    <path clip-path="url(#p672a61653e)" d="M -138.178535 301.816667 
L -129.138636 301.816667 
L -129.138636 87.354153 
L -138.178535 87.354153 
z
" style="fill:#7570b3;opacity:0.6;stroke:#000000;stroke-linejoin:miter;stroke-width:0.5;"/>
   </g>
   <g id="patch_21">
    <path clip-path="url(#p672a61653e)" d="M -129.138636 301.816667 
L -120.098737 301.816667 
L -120.098737 235.616019 
L -129.138636 235.616019 
z
" style="fill:#7570b3;opacity:0.6;stroke:#000000;stroke-linejoin:miter;stroke-width:0.5;"/>
   </g>
   <g id="patch_22">
    <path clip-path="url(#p672a61653e)" d="M -120.098737 301.816667 
L -111.058838 301.816667 
L -111.058838 251.476591 
L -120.098737 251.476591 
z
" style="fill:#7570b3;opacity:0.6;stroke:#000000;stroke-linejoin:miter;stroke-width:0.5;"/>
   </g>
   <g id="patch_23">
    <path clip-path="url(#p672a61653e)" d="M -111.058838 301.816667 
L -102.018939 301.816667 
L -102.018939 265.957983 
L -111.058838 265.957983 
z
" style="fill:#7570b3;opacity:0.6;stroke:#000000;stroke-linejoin:miter;stroke-width:0.5;"/>
   </g>
   <g id="patch_24">
    <path clip-path="url(#p672a61653e)" d="M -102.018939 301.816667 
L -92.97904 301.816667 
L -92.97904 276.301834 
L -102.018939 276.301834 
z
" style="fill:#7570b3;opacity:0.6;stroke:#000000;stroke-linejoin:miter;stroke-width:0.5;"/>
   </g>
   <g id="patch_25">
    <path clip-path="url(#p672a61653e)" d="M -92.97904 301.816667 
L -83.939141 301.816667 
L -83.939141 291.472816 
L -92.97904 291.472816 
z
" style="fill:#7570b3;opacity:0.6;stroke:#000000;stroke-linejoin:miter;stroke-width:0.5;"/>
   </g>
   <g id="patch_26">
    <path clip-path="url(#p672a61653e)" d="M -83.939141 301.816667 
L -74.899242 301.816667 
L -74.899242 299.058306 
L -83.939141 299.058306 
z
" style="fill:#7570b3;opacity:0.6;stroke:#000000;stroke-linejoin:miter;stroke-width:0.5;"/>
   </g>
   <g id="patch_27">
    <path clip-path="url(#p672a61653e)" d="M -74.899242 301.816667 
L -65.859343 301.816667 
L -65.859343 301.816667 
L -74.899242 301.816667 
z
" style="fill:#7570b3;opacity:0.6;stroke:#000000;stroke-linejoin:miter;stroke-width:0.5;"/>
   </g>
   <g id="patch_28">
    <path clip-path="url(#p672a61653e)" d="M -65.859343 301.816667 
L -56.819444 301.816667 
L -56.819444 301.816667 
L -65.859343 301.816667 
z
" style="fill:#7570b3;opacity:0.6;stroke:#000000;stroke-linejoin:miter;stroke-width:0.5;"/>
   </g>
   <g id="patch_29">
    <path clip-path="url(#p672a61653e)" d="M -56.819444 301.816667 
L -47.779545 301.816667 
L -47.779545 301.816667 
L -56.819444 301.816667 
z
" style="fill:#7570b3;opacity:0.6;stroke:#000000;stroke-linejoin:miter;stroke-width:0.5;"/>
   </g>
   <g id="patch_30">
    <path clip-path="url(#p672a61653e)" d="M -47.779545 301.816667 
L -38.739646 301.816667 
L -38.739646 301.816667 
L -47.779545 301.816667 
z
" style="fill:#7570b3;opacity:0.6;stroke:#000000;stroke-linejoin:miter;stroke-width:0.5;"/>
   </g>
   <g id="patch_31">
    <path clip-path="url(#p672a61653e)" d="M -38.739646 301.816667 
L -29.699747 301.816667 
L -29.699747 301.816667 
L -38.739646 301.816667 
z
" style="fill:#7570b3;opacity:0.6;stroke:#000000;stroke-linejoin:miter;stroke-width:0.5;"/>
   </g>
   <g id="patch_32">
    <path clip-path="url(#p672a61653e)" d="M -29.699747 301.816667 
L -20.659848 301.816667 
L -20.659848 301.816667 
L -29.699747 301.816667 
z
" style="fill:#7570b3;opacity:0.6;stroke:#000000;stroke-linejoin:miter;stroke-width:0.5;"/>
   </g>
   <g id="matplotlib.axis_1">
    <g id="xtick_1">
     <g id="line2d_1">
      <defs>
       <path d="M 0 0 
L 0 3.5 
" id="mde9bc7c662" style="stroke:#000000;stroke-width:1.6;"/>
      </defs>
      <g/>
     </g>
     <g id="text_1">
      <!-- −1 -->
      <defs>
       <path d="M 10.59375 35.5 
L 73.1875 35.5 
L 73.1875 27.203125 
L 10.59375 27.203125 
z
" id="DejaVuSans-8722"/>
       <path d="M 12.40625 8.296875 
L 28.515625 8.296875 
L 28.515625 63.921875 
L 10.984375 60.40625 
L 10.984375 69.390625 
L 28.421875 72.90625 
L 38.28125 72.90625 
L 38.28125 8.296875 
L 54.390625 8.296875 
L 54.390625 0 
L 12.40625 0 
z
" id="DejaVuSans-49"/>
      </defs>
      <g transform="translate(-306.599006 331.713542)scale(0.2 -0.2)">
       <use xlink:href="#DejaVuSans-8722"/>
       <use x="83.789062" xlink:href="#DejaVuSans-49"/>
      </g>
     </g>
    </g>
    <g id="xtick_2">
     <g id="line2d_2">
      <g/>
     </g>
     <g id="text_2">
      <!-- 0 -->
      <defs>
       <path d="M 31.78125 66.40625 
Q 24.171875 66.40625 20.328125 58.90625 
Q 16.5 51.421875 16.5 36.375 
Q 16.5 21.390625 20.328125 13.890625 
Q 24.171875 6.390625 31.78125 6.390625 
Q 39.453125 6.390625 43.28125 13.890625 
Q 47.125 21.390625 47.125 36.375 
Q 47.125 51.421875 43.28125 58.90625 
Q 39.453125 66.40625 31.78125 66.40625 
z
M 31.78125 74.21875 
Q 44.046875 74.21875 50.515625 64.515625 
Q 56.984375 54.828125 56.984375 36.375 
Q 56.984375 17.96875 50.515625 8.265625 
Q 44.046875 -1.421875 31.78125 -1.421875 
Q 19.53125 -1.421875 13.0625 8.265625 
Q 6.59375 17.96875 6.59375 36.375 
Q 6.59375 54.828125 13.0625 64.515625 
Q 19.53125 74.21875 31.78125 74.21875 
z
" id="DejaVuSans-48"/>
      </defs>
      <g transform="translate(-162.620833 331.713542)scale(0.2 -0.2)">
       <use xlink:href="#DejaVuSans-48"/>
      </g>
     </g>
    </g>
    <g id="xtick_3">
     <g id="line2d_3">
      <g/>
     </g>
     <g id="text_3">
      <!-- 1 -->
      <g transform="translate(-27.022348 331.713542)scale(0.2 -0.2)">
       <use xlink:href="#DejaVuSans-49"/>
      </g>
     </g>
    </g>
   </g>
   <g id="matplotlib.axis_2">
    <g id="ytick_1">
     <g id="line2d_4">
      <defs>
       <path d="M 0 0 
L -3.5 0 
" id="mefd61a8836" style="stroke:#000000;stroke-width:1.6;"/>
      </defs>
      <g/>
     </g>
     <g id="text_4">
      <!-- 0.0 -->
      <defs>
       <path d="M 10.6875 12.40625 
L 21 12.40625 
L 21 0 
L 10.6875 0 
z
" id="DejaVuSans-46"/>
      </defs>
      <g transform="translate(-351.922917 309.415104)scale(0.2 -0.2)">
       <use xlink:href="#DejaVuSans-48"/>
       <use x="63.623047" xlink:href="#DejaVuSans-46"/>
       <use x="95.410156" xlink:href="#DejaVuSans-48"/>
      </g>
     </g>
    </g>
    <g id="ytick_2">
     <g id="line2d_5">
      <g/>
     </g>
     <g id="text_5">
      <!-- 0.1 -->
      <g transform="translate(-351.922917 240.456097)scale(0.2 -0.2)">
       <use xlink:href="#DejaVuSans-48"/>
       <use x="63.623047" xlink:href="#DejaVuSans-46"/>
       <use x="95.410156" xlink:href="#DejaVuSans-49"/>
      </g>
     </g>
    </g>
    <g id="ytick_3">
     <g id="line2d_6">
      <g/>
     </g>
     <g id="text_6">
      <!-- 0.2 -->
      <defs>
       <path d="M 19.1875 8.296875 
L 53.609375 8.296875 
L 53.609375 0 
L 7.328125 0 
L 7.328125 8.296875 
Q 12.9375 14.109375 22.625 23.890625 
Q 32.328125 33.6875 34.8125 36.53125 
Q 39.546875 41.84375 41.421875 45.53125 
Q 43.3125 49.21875 43.3125 52.78125 
Q 43.3125 58.59375 39.234375 62.25 
Q 35.15625 65.921875 28.609375 65.921875 
Q 23.96875 65.921875 18.8125 64.3125 
Q 13.671875 62.703125 7.8125 59.421875 
L 7.8125 69.390625 
Q 13.765625 71.78125 18.9375 73 
Q 24.125 74.21875 28.421875 74.21875 
Q 39.75 74.21875 46.484375 68.546875 
Q 53.21875 62.890625 53.21875 53.421875 
Q 53.21875 48.921875 51.53125 44.890625 
Q 49.859375 40.875 45.40625 35.40625 
Q 44.1875 33.984375 37.640625 27.21875 
Q 31.109375 20.453125 19.1875 8.296875 
z
" id="DejaVuSans-50"/>
      </defs>
      <g transform="translate(-351.922917 171.497089)scale(0.2 -0.2)">
       <use xlink:href="#DejaVuSans-48"/>
       <use x="63.623047" xlink:href="#DejaVuSans-46"/>
       <use x="95.410156" xlink:href="#DejaVuSans-50"/>
      </g>
     </g>
    </g>
    <g id="ytick_4">
     <g id="line2d_7">
      <g/>
     </g>
     <g id="text_7">
      <!-- 0.3 -->
      <defs>
       <path d="M 40.578125 39.3125 
Q 47.65625 37.796875 51.625 33 
Q 55.609375 28.21875 55.609375 21.1875 
Q 55.609375 10.40625 48.1875 4.484375 
Q 40.765625 -1.421875 27.09375 -1.421875 
Q 22.515625 -1.421875 17.65625 -0.515625 
Q 12.796875 0.390625 7.625 2.203125 
L 7.625 11.71875 
Q 11.71875 9.328125 16.59375 8.109375 
Q 21.484375 6.890625 26.8125 6.890625 
Q 36.078125 6.890625 40.9375 10.546875 
Q 45.796875 14.203125 45.796875 21.1875 
Q 45.796875 27.640625 41.28125 31.265625 
Q 36.765625 34.90625 28.71875 34.90625 
L 20.21875 34.90625 
L 20.21875 43.015625 
L 29.109375 43.015625 
Q 36.375 43.015625 40.234375 45.921875 
Q 44.09375 48.828125 44.09375 54.296875 
Q 44.09375 59.90625 40.109375 62.90625 
Q 36.140625 65.921875 28.71875 65.921875 
Q 24.65625 65.921875 20.015625 65.03125 
Q 15.375 64.15625 9.8125 62.3125 
L 9.8125 71.09375 
Q 15.4375 72.65625 20.34375 73.4375 
Q 25.25 74.21875 29.59375 74.21875 
Q 40.828125 74.21875 47.359375 69.109375 
Q 53.90625 64.015625 53.90625 55.328125 
Q 53.90625 49.265625 50.4375 45.09375 
Q 46.96875 40.921875 40.578125 39.3125 
z
" id="DejaVuSans-51"/>
      </defs>
      <g transform="translate(-351.922917 102.538082)scale(0.2 -0.2)">
       <use xlink:href="#DejaVuSans-48"/>
       <use x="63.623047" xlink:href="#DejaVuSans-46"/>
       <use x="95.410156" xlink:href="#DejaVuSans-51"/>
      </g>
     </g>
    </g>
    <g id="ytick_5">
     <g id="line2d_8">
      <g/>
     </g>
     <g id="text_8">
      <!-- 0.4 -->
      <defs>
       <path d="M 37.796875 64.3125 
L 12.890625 25.390625 
L 37.796875 25.390625 
z
M 35.203125 72.90625 
L 47.609375 72.90625 
L 47.609375 25.390625 
L 58.015625 25.390625 
L 58.015625 17.1875 
L 47.609375 17.1875 
L 47.609375 0 
L 37.796875 0 
L 37.796875 17.1875 
L 4.890625 17.1875 
L 4.890625 26.703125 
z
" id="DejaVuSans-52"/>
      </defs>
      <g transform="translate(-351.922917 33.579074)scale(0.2 -0.2)">
       <use xlink:href="#DejaVuSans-48"/>
       <use x="63.623047" xlink:href="#DejaVuSans-46"/>
       <use x="95.410156" xlink:href="#DejaVuSans-52"/>
      </g>
     </g>
    </g>
   </g>
   <g id="patch_33">
    <path style="fill:none;stroke:#000000;stroke-linecap:square;stroke-linejoin:miter;stroke-width:0.8;"/>
   </g>
   <g id="patch_34">
    <path style="fill:none;stroke:#000000;stroke-linecap:square;stroke-linejoin:miter;stroke-width:0.8;"/>
   </g>
  </g>
  <g id="axes_2">
   <g id="patch_35">
    <path d="M 46.7 301.816667 
L 345.016667 301.816667 
L 345.016667 3.5 
L 46.7 3.5 
z
" style="fill:#ffffff;"/>
   </g>
   <g id="patch_36">
    <path clip-path="url(#p89bfe181e5)" d="M 60.259848 301.816667 
L 69.299747 301.816667 
L 69.299747 301.816667 
L 60.259848 301.816667 
z
" style="fill:#7570b3;opacity:0.6;stroke:#000000;stroke-linejoin:miter;stroke-width:0.5;"/>
   </g>
   <g id="patch_37">
    <path clip-path="url(#p89bfe181e5)" d="M 69.299747 301.816667 
L 78.339646 301.816667 
L 78.339646 301.816667 
L 69.299747 301.816667 
z
" style="fill:#7570b3;opacity:0.6;stroke:#000000;stroke-linejoin:miter;stroke-width:0.5;"/>
   </g>
   <g id="patch_38">
    <path clip-path="url(#p89bfe181e5)" d="M 78.339646 301.816667 
L 87.379545 301.816667 
L 87.379545 301.816667 
L 78.339646 301.816667 
z
" style="fill:#7570b3;opacity:0.6;stroke:#000000;stroke-linejoin:miter;stroke-width:0.5;"/>
   </g>
   <g id="patch_39">
    <path clip-path="url(#p89bfe181e5)" d="M 87.379545 301.816667 
L 96.419444 301.816667 
L 96.419444 301.816667 
L 87.379545 301.816667 
z
" style="fill:#7570b3;opacity:0.6;stroke:#000000;stroke-linejoin:miter;stroke-width:0.5;"/>
   </g>
   <g id="patch_40">
    <path clip-path="url(#p89bfe181e5)" d="M 96.419444 301.816667 
L 105.459343 301.816667 
L 105.459343 301.816667 
L 96.419444 301.816667 
z
" style="fill:#7570b3;opacity:0.6;stroke:#000000;stroke-linejoin:miter;stroke-width:0.5;"/>
   </g>
   <g id="patch_41">
    <path clip-path="url(#p89bfe181e5)" d="M 105.459343 301.816667 
L 114.499242 301.816667 
L 114.499242 301.816667 
L 105.459343 301.816667 
z
" style="fill:#7570b3;opacity:0.6;stroke:#000000;stroke-linejoin:miter;stroke-width:0.5;"/>
   </g>
   <g id="patch_42">
    <path clip-path="url(#p89bfe181e5)" d="M 114.499242 301.816667 
L 123.539141 301.816667 
L 123.539141 301.816667 
L 114.499242 301.816667 
z
" style="fill:#7570b3;opacity:0.6;stroke:#000000;stroke-linejoin:miter;stroke-width:0.5;"/>
   </g>
   <g id="patch_43">
    <path clip-path="url(#p89bfe181e5)" d="M 123.539141 301.816667 
L 132.57904 301.816667 
L 132.57904 301.816667 
L 123.539141 301.816667 
z
" style="fill:#7570b3;opacity:0.6;stroke:#000000;stroke-linejoin:miter;stroke-width:0.5;"/>
   </g>
   <g id="patch_44">
    <path clip-path="url(#p89bfe181e5)" d="M 132.57904 301.816667 
L 141.618939 301.816667 
L 141.618939 301.816667 
L 132.57904 301.816667 
z
" style="fill:#7570b3;opacity:0.6;stroke:#000000;stroke-linejoin:miter;stroke-width:0.5;"/>
   </g>
   <g id="patch_45">
    <path clip-path="url(#p89bfe181e5)" d="M 141.618939 301.816667 
L 150.658838 301.816667 
L 150.658838 301.816667 
L 141.618939 301.816667 
z
" style="fill:#7570b3;opacity:0.6;stroke:#000000;stroke-linejoin:miter;stroke-width:0.5;"/>
   </g>
   <g id="patch_46">
    <path clip-path="url(#p89bfe181e5)" d="M 150.658838 301.816667 
L 159.698737 301.816667 
L 159.698737 301.816667 
L 150.658838 301.816667 
z
" style="fill:#7570b3;opacity:0.6;stroke:#000000;stroke-linejoin:miter;stroke-width:0.5;"/>
   </g>
   <g id="patch_47">
    <path clip-path="url(#p89bfe181e5)" d="M 159.698737 301.816667 
L 168.738636 301.816667 
L 168.738636 301.816667 
L 159.698737 301.816667 
z
" style="fill:#7570b3;opacity:0.6;stroke:#000000;stroke-linejoin:miter;stroke-width:0.5;"/>
   </g>
   <g id="patch_48">
    <path clip-path="url(#p89bfe181e5)" d="M 168.738636 301.816667 
L 177.778535 301.816667 
L 177.778535 301.816667 
L 168.738636 301.816667 
z
" style="fill:#7570b3;opacity:0.6;stroke:#000000;stroke-linejoin:miter;stroke-width:0.5;"/>
   </g>
   <g id="patch_49">
    <path clip-path="url(#p89bfe181e5)" d="M 177.778535 301.816667 
L 186.818434 301.816667 
L 186.818434 301.816667 
L 177.778535 301.816667 
z
" style="fill:#7570b3;opacity:0.6;stroke:#000000;stroke-linejoin:miter;stroke-width:0.5;"/>
   </g>
   <g id="patch_50">
    <path clip-path="url(#p89bfe181e5)" d="M 186.818434 301.816667 
L 195.858333 301.816667 
L 195.858333 301.816667 
L 186.818434 301.816667 
z
" style="fill:#7570b3;opacity:0.6;stroke:#000000;stroke-linejoin:miter;stroke-width:0.5;"/>
   </g>
   <g id="patch_51">
    <path clip-path="url(#p89bfe181e5)" d="M 195.858333 301.816667 
L 204.898232 301.816667 
L 204.898232 298.594234 
L 195.858333 298.594234 
z
" style="fill:#7570b3;opacity:0.6;stroke:#000000;stroke-linejoin:miter;stroke-width:0.5;"/>
   </g>
   <g id="patch_52">
    <path clip-path="url(#p89bfe181e5)" d="M 204.898232 301.816667 
L 213.938131 301.816667 
L 213.938131 17.705556 
L 204.898232 17.705556 
z
" style="fill:#7570b3;opacity:0.6;stroke:#000000;stroke-linejoin:miter;stroke-width:0.5;"/>
   </g>
   <g id="patch_53">
    <path clip-path="url(#p89bfe181e5)" d="M 213.938131 301.816667 
L 222.97803 301.816667 
L 222.97803 161.103791 
L 213.938131 161.103791 
z
" style="fill:#7570b3;opacity:0.6;stroke:#000000;stroke-linejoin:miter;stroke-width:0.5;"/>
   </g>
   <g id="patch_54">
    <path clip-path="url(#p89bfe181e5)" d="M 222.97803 301.816667 
L 232.017929 301.816667 
L 232.017929 259.387975 
L 222.97803 259.387975 
z
" style="fill:#7570b3;opacity:0.6;stroke:#000000;stroke-linejoin:miter;stroke-width:0.5;"/>
   </g>
   <g id="patch_55">
    <path clip-path="url(#p89bfe181e5)" d="M 232.017929 301.816667 
L 241.057828 301.816667 
L 241.057828 270.129416 
L 232.017929 270.129416 
z
" style="fill:#7570b3;opacity:0.6;stroke:#000000;stroke-linejoin:miter;stroke-width:0.5;"/>
   </g>
   <g id="patch_56">
    <path clip-path="url(#p89bfe181e5)" d="M 241.057828 301.816667 
L 250.097727 301.816667 
L 250.097727 280.870857 
L 241.057828 280.870857 
z
" style="fill:#7570b3;opacity:0.6;stroke:#000000;stroke-linejoin:miter;stroke-width:0.5;"/>
   </g>
   <g id="patch_57">
    <path clip-path="url(#p89bfe181e5)" d="M 250.097727 301.816667 
L 259.137626 301.816667 
L 259.137626 291.075226 
L 250.097727 291.075226 
z
" style="fill:#7570b3;opacity:0.6;stroke:#000000;stroke-linejoin:miter;stroke-width:0.5;"/>
   </g>
   <g id="patch_58">
    <path clip-path="url(#p89bfe181e5)" d="M 259.137626 301.816667 
L 268.177525 301.816667 
L 268.177525 298.594234 
L 259.137626 298.594234 
z
" style="fill:#7570b3;opacity:0.6;stroke:#000000;stroke-linejoin:miter;stroke-width:0.5;"/>
   </g>
   <g id="patch_59">
    <path clip-path="url(#p89bfe181e5)" d="M 268.177525 301.816667 
L 277.217424 301.816667 
L 277.217424 301.816667 
L 268.177525 301.816667 
z
" style="fill:#7570b3;opacity:0.6;stroke:#000000;stroke-linejoin:miter;stroke-width:0.5;"/>
   </g>
   <g id="patch_60">
    <path clip-path="url(#p89bfe181e5)" d="M 277.217424 301.816667 
L 286.257323 301.816667 
L 286.257323 301.816667 
L 277.217424 301.816667 
z
" style="fill:#7570b3;opacity:0.6;stroke:#000000;stroke-linejoin:miter;stroke-width:0.5;"/>
   </g>
   <g id="patch_61">
    <path clip-path="url(#p89bfe181e5)" d="M 286.257323 301.816667 
L 295.297222 301.816667 
L 295.297222 301.816667 
L 286.257323 301.816667 
z
" style="fill:#7570b3;opacity:0.6;stroke:#000000;stroke-linejoin:miter;stroke-width:0.5;"/>
   </g>
   <g id="patch_62">
    <path clip-path="url(#p89bfe181e5)" d="M 295.297222 301.816667 
L 304.337121 301.816667 
L 304.337121 301.816667 
L 295.297222 301.816667 
z
" style="fill:#7570b3;opacity:0.6;stroke:#000000;stroke-linejoin:miter;stroke-width:0.5;"/>
   </g>
   <g id="patch_63">
    <path clip-path="url(#p89bfe181e5)" d="M 304.337121 301.816667 
L 313.37702 301.816667 
L 313.37702 301.816667 
L 304.337121 301.816667 
z
" style="fill:#7570b3;opacity:0.6;stroke:#000000;stroke-linejoin:miter;stroke-width:0.5;"/>
   </g>
   <g id="patch_64">
    <path clip-path="url(#p89bfe181e5)" d="M 313.37702 301.816667 
L 322.416919 301.816667 
L 322.416919 301.816667 
L 313.37702 301.816667 
z
" style="fill:#7570b3;opacity:0.6;stroke:#000000;stroke-linejoin:miter;stroke-width:0.5;"/>
   </g>
   <g id="patch_65">
    <path clip-path="url(#p89bfe181e5)" d="M 322.416919 301.816667 
L 331.456818 301.816667 
L 331.456818 301.816667 
L 322.416919 301.816667 
z
" style="fill:#7570b3;opacity:0.6;stroke:#000000;stroke-linejoin:miter;stroke-width:0.5;"/>
   </g>
   <g id="matplotlib.axis_3">
    <g id="xtick_4">
     <g id="line2d_9">
      <g>
       <use style="stroke:#000000;stroke-width:1.6;" x="60.259848" xlink:href="#mde9bc7c662" y="301.816667"/>
      </g>
     </g>
     <g id="text_9">
      <!-- −1 -->
      <g transform="translate(45.517661 331.713542)scale(0.2 -0.2)">
       <use xlink:href="#DejaVuSans-8722"/>
       <use x="83.789062" xlink:href="#DejaVuSans-49"/>
      </g>
     </g>
    </g>
    <g id="xtick_5">
     <g id="line2d_10">
      <g>
       <use style="stroke:#000000;stroke-width:1.6;" x="195.858333" xlink:href="#mde9bc7c662" y="301.816667"/>
      </g>
     </g>
     <g id="text_10">
      <!-- 0 -->
      <g transform="translate(189.495833 331.713542)scale(0.2 -0.2)">
       <use xlink:href="#DejaVuSans-48"/>
      </g>
     </g>
    </g>
    <g id="xtick_6">
     <g id="line2d_11">
      <g>
       <use style="stroke:#000000;stroke-width:1.6;" x="331.456818" xlink:href="#mde9bc7c662" y="301.816667"/>
      </g>
     </g>
     <g id="text_11">
      <!-- 1 -->
      <g transform="translate(325.094318 331.713542)scale(0.2 -0.2)">
       <use xlink:href="#DejaVuSans-49"/>
      </g>
     </g>
    </g>
   </g>
   <g id="matplotlib.axis_4">
    <g id="ytick_6">
     <g id="line2d_12">
      <g>
       <use style="stroke:#000000;stroke-width:1.6;" x="46.7" xlink:href="#mefd61a8836" y="301.816667"/>
      </g>
     </g>
     <g id="text_12">
      <!-- 0.0 -->
      <g transform="translate(0.19375 309.415104)scale(0.2 -0.2)">
       <use xlink:href="#DejaVuSans-48"/>
       <use x="63.623047" xlink:href="#DejaVuSans-46"/>
       <use x="95.410156" xlink:href="#DejaVuSans-48"/>
      </g>
     </g>
    </g>
    <g id="ytick_7">
     <g id="line2d_13">
      <g>
       <use style="stroke:#000000;stroke-width:1.6;" x="46.7" xlink:href="#mefd61a8836" y="248.109462"/>
      </g>
     </g>
     <g id="text_13">
      <!-- 0.1 -->
      <g transform="translate(0.19375 255.7079)scale(0.2 -0.2)">
       <use xlink:href="#DejaVuSans-48"/>
       <use x="63.623047" xlink:href="#DejaVuSans-46"/>
       <use x="95.410156" xlink:href="#DejaVuSans-49"/>
      </g>
     </g>
    </g>
    <g id="ytick_8">
     <g id="line2d_14">
      <g>
       <use style="stroke:#000000;stroke-width:1.6;" x="46.7" xlink:href="#mefd61a8836" y="194.402258"/>
      </g>
     </g>
     <g id="text_14">
      <!-- 0.2 -->
      <g transform="translate(0.19375 202.000695)scale(0.2 -0.2)">
       <use xlink:href="#DejaVuSans-48"/>
       <use x="63.623047" xlink:href="#DejaVuSans-46"/>
       <use x="95.410156" xlink:href="#DejaVuSans-50"/>
      </g>
     </g>
    </g>
    <g id="ytick_9">
     <g id="line2d_15">
      <g>
       <use style="stroke:#000000;stroke-width:1.6;" x="46.7" xlink:href="#mefd61a8836" y="140.695054"/>
      </g>
     </g>
     <g id="text_15">
      <!-- 0.3 -->
      <g transform="translate(0.19375 148.293491)scale(0.2 -0.2)">
       <use xlink:href="#DejaVuSans-48"/>
       <use x="63.623047" xlink:href="#DejaVuSans-46"/>
       <use x="95.410156" xlink:href="#DejaVuSans-51"/>
      </g>
     </g>
    </g>
    <g id="ytick_10">
     <g id="line2d_16">
      <g>
       <use style="stroke:#000000;stroke-width:1.6;" x="46.7" xlink:href="#mefd61a8836" y="86.987849"/>
      </g>
     </g>
     <g id="text_16">
      <!-- 0.4 -->
      <g transform="translate(0.19375 94.586287)scale(0.2 -0.2)">
       <use xlink:href="#DejaVuSans-48"/>
       <use x="63.623047" xlink:href="#DejaVuSans-46"/>
       <use x="95.410156" xlink:href="#DejaVuSans-52"/>
      </g>
     </g>
    </g>
    <g id="ytick_11">
     <g id="line2d_17">
      <g>
       <use style="stroke:#000000;stroke-width:1.6;" x="46.7" xlink:href="#mefd61a8836" y="33.280645"/>
      </g>
     </g>
     <g id="text_17">
      <!-- 0.5 -->
      <defs>
       <path d="M 10.796875 72.90625 
L 49.515625 72.90625 
L 49.515625 64.59375 
L 19.828125 64.59375 
L 19.828125 46.734375 
Q 21.96875 47.46875 24.109375 47.828125 
Q 26.265625 48.1875 28.421875 48.1875 
Q 40.625 48.1875 47.75 41.5 
Q 54.890625 34.8125 54.890625 23.390625 
Q 54.890625 11.625 47.5625 5.09375 
Q 40.234375 -1.421875 26.90625 -1.421875 
Q 22.3125 -1.421875 17.546875 -0.640625 
Q 12.796875 0.140625 7.71875 1.703125 
L 7.71875 11.625 
Q 12.109375 9.234375 16.796875 8.0625 
Q 21.484375 6.890625 26.703125 6.890625 
Q 35.15625 6.890625 40.078125 11.328125 
Q 45.015625 15.765625 45.015625 23.390625 
Q 45.015625 31 40.078125 35.4375 
Q 35.15625 39.890625 26.703125 39.890625 
Q 22.75 39.890625 18.8125 39.015625 
Q 14.890625 38.140625 10.796875 36.28125 
z
" id="DejaVuSans-53"/>
      </defs>
      <g transform="translate(0.19375 40.879082)scale(0.2 -0.2)">
       <use xlink:href="#DejaVuSans-48"/>
       <use x="63.623047" xlink:href="#DejaVuSans-46"/>
       <use x="95.410156" xlink:href="#DejaVuSans-53"/>
      </g>
     </g>
    </g>
   </g>
   <g id="patch_66">
    <path d="M 46.7 301.816667 
L 46.7 3.5 
" style="fill:none;stroke:#000000;stroke-linecap:square;stroke-linejoin:miter;stroke-width:0.8;"/>
   </g>
   <g id="patch_67">
    <path d="M 46.7 301.816667 
L 345.016667 301.816667 
" style="fill:none;stroke:#000000;stroke-linecap:square;stroke-linejoin:miter;stroke-width:0.8;"/>
   </g>
  </g>
  <g id="axes_3">
   <g id="patch_68">
    <path d="M 398.816667 313.225 
L 697.133333 313.225 
L 697.133333 -7.908333 
L 398.816667 -7.908333 
z
" style="fill:#ffffff;"/>
   </g>
   <g id="matplotlib.axis_5">
    <g id="xtick_7">
     <g id="line2d_18">
      <g>
       <use style="stroke:#000000;stroke-width:1.6;" x="398.816667" xlink:href="#mde9bc7c662" y="313.225"/>
      </g>
     </g>
     <g id="text_18">
      <!-- 0.0 -->
      <g transform="translate(386.094167 340.0825)scale(0.16 -0.16)">
       <use xlink:href="#DejaVuSans-48"/>
       <use x="63.623047" xlink:href="#DejaVuSans-46"/>
       <use x="95.410156" xlink:href="#DejaVuSans-48"/>
      </g>
     </g>
    </g>
    <g id="xtick_8">
     <g id="line2d_19">
      <g>
       <use style="stroke:#000000;stroke-width:1.6;" x="458.48" xlink:href="#mde9bc7c662" y="313.225"/>
      </g>
     </g>
     <g id="text_19">
      <!-- 0.2 -->
      <g transform="translate(445.7575 340.0825)scale(0.16 -0.16)">
       <use xlink:href="#DejaVuSans-48"/>
       <use x="63.623047" xlink:href="#DejaVuSans-46"/>
       <use x="95.410156" xlink:href="#DejaVuSans-50"/>
      </g>
     </g>
    </g>
    <g id="xtick_9">
     <g id="line2d_20">
      <g>
       <use style="stroke:#000000;stroke-width:1.6;" x="518.143333" xlink:href="#mde9bc7c662" y="313.225"/>
      </g>
     </g>
     <g id="text_20">
      <!-- 0.4 -->
      <g transform="translate(505.420833 340.0825)scale(0.16 -0.16)">
       <use xlink:href="#DejaVuSans-48"/>
       <use x="63.623047" xlink:href="#DejaVuSans-46"/>
       <use x="95.410156" xlink:href="#DejaVuSans-52"/>
      </g>
     </g>
    </g>
    <g id="xtick_10">
     <g id="line2d_21">
      <g>
       <use style="stroke:#000000;stroke-width:1.6;" x="577.806667" xlink:href="#mde9bc7c662" y="313.225"/>
      </g>
     </g>
     <g id="text_21">
      <!-- 0.6 -->
      <defs>
       <path d="M 33.015625 40.375 
Q 26.375 40.375 22.484375 35.828125 
Q 18.609375 31.296875 18.609375 23.390625 
Q 18.609375 15.53125 22.484375 10.953125 
Q 26.375 6.390625 33.015625 6.390625 
Q 39.65625 6.390625 43.53125 10.953125 
Q 47.40625 15.53125 47.40625 23.390625 
Q 47.40625 31.296875 43.53125 35.828125 
Q 39.65625 40.375 33.015625 40.375 
z
M 52.59375 71.296875 
L 52.59375 62.3125 
Q 48.875 64.0625 45.09375 64.984375 
Q 41.3125 65.921875 37.59375 65.921875 
Q 27.828125 65.921875 22.671875 59.328125 
Q 17.53125 52.734375 16.796875 39.40625 
Q 19.671875 43.65625 24.015625 45.921875 
Q 28.375 48.1875 33.59375 48.1875 
Q 44.578125 48.1875 50.953125 41.515625 
Q 57.328125 34.859375 57.328125 23.390625 
Q 57.328125 12.15625 50.6875 5.359375 
Q 44.046875 -1.421875 33.015625 -1.421875 
Q 20.359375 -1.421875 13.671875 8.265625 
Q 6.984375 17.96875 6.984375 36.375 
Q 6.984375 53.65625 15.1875 63.9375 
Q 23.390625 74.21875 37.203125 74.21875 
Q 40.921875 74.21875 44.703125 73.484375 
Q 48.484375 72.75 52.59375 71.296875 
z
" id="DejaVuSans-54"/>
      </defs>
      <g transform="translate(565.084167 340.0825)scale(0.16 -0.16)">
       <use xlink:href="#DejaVuSans-48"/>
       <use x="63.623047" xlink:href="#DejaVuSans-46"/>
       <use x="95.410156" xlink:href="#DejaVuSans-54"/>
      </g>
     </g>
    </g>
    <g id="xtick_11">
     <g id="line2d_22">
      <g>
       <use style="stroke:#000000;stroke-width:1.6;" x="637.47" xlink:href="#mde9bc7c662" y="313.225"/>
      </g>
     </g>
     <g id="text_22">
      <!-- 0.8 -->
      <defs>
       <path d="M 31.78125 34.625 
Q 24.75 34.625 20.71875 30.859375 
Q 16.703125 27.09375 16.703125 20.515625 
Q 16.703125 13.921875 20.71875 10.15625 
Q 24.75 6.390625 31.78125 6.390625 
Q 38.8125 6.390625 42.859375 10.171875 
Q 46.921875 13.96875 46.921875 20.515625 
Q 46.921875 27.09375 42.890625 30.859375 
Q 38.875 34.625 31.78125 34.625 
z
M 21.921875 38.8125 
Q 15.578125 40.375 12.03125 44.71875 
Q 8.5 49.078125 8.5 55.328125 
Q 8.5 64.0625 14.71875 69.140625 
Q 20.953125 74.21875 31.78125 74.21875 
Q 42.671875 74.21875 48.875 69.140625 
Q 55.078125 64.0625 55.078125 55.328125 
Q 55.078125 49.078125 51.53125 44.71875 
Q 48 40.375 41.703125 38.8125 
Q 48.828125 37.15625 52.796875 32.3125 
Q 56.78125 27.484375 56.78125 20.515625 
Q 56.78125 9.90625 50.3125 4.234375 
Q 43.84375 -1.421875 31.78125 -1.421875 
Q 19.734375 -1.421875 13.25 4.234375 
Q 6.78125 9.90625 6.78125 20.515625 
Q 6.78125 27.484375 10.78125 32.3125 
Q 14.796875 37.15625 21.921875 38.8125 
z
M 18.3125 54.390625 
Q 18.3125 48.734375 21.84375 45.5625 
Q 25.390625 42.390625 31.78125 42.390625 
Q 38.140625 42.390625 41.71875 45.5625 
Q 45.3125 48.734375 45.3125 54.390625 
Q 45.3125 60.0625 41.71875 63.234375 
Q 38.140625 66.40625 31.78125 66.40625 
Q 25.390625 66.40625 21.84375 63.234375 
Q 18.3125 60.0625 18.3125 54.390625 
z
" id="DejaVuSans-56"/>
      </defs>
      <g transform="translate(624.7475 340.0825)scale(0.16 -0.16)">
       <use xlink:href="#DejaVuSans-48"/>
       <use x="63.623047" xlink:href="#DejaVuSans-46"/>
       <use x="95.410156" xlink:href="#DejaVuSans-56"/>
      </g>
     </g>
    </g>
    <g id="xtick_12">
     <g id="line2d_23">
      <g>
       <use style="stroke:#000000;stroke-width:1.6;" x="697.133333" xlink:href="#mde9bc7c662" y="313.225"/>
      </g>
     </g>
     <g id="text_23">
      <!-- 1.0 -->
      <g transform="translate(684.410833 340.0825)scale(0.16 -0.16)">
       <use xlink:href="#DejaVuSans-49"/>
       <use x="63.623047" xlink:href="#DejaVuSans-46"/>
       <use x="95.410156" xlink:href="#DejaVuSans-48"/>
      </g>
     </g>
    </g>
   </g>
   <g id="matplotlib.axis_6">
    <g id="ytick_12">
     <g id="line2d_24">
      <g>
       <use style="stroke:#000000;stroke-width:1.6;" x="398.816667" xlink:href="#mefd61a8836" y="313.225"/>
      </g>
     </g>
     <g id="text_24">
      <!-- 0.0 -->
      <g transform="translate(358.671667 319.30375)scale(0.16 -0.16)">
       <use xlink:href="#DejaVuSans-48"/>
       <use x="63.623047" xlink:href="#DejaVuSans-46"/>
       <use x="95.410156" xlink:href="#DejaVuSans-48"/>
      </g>
     </g>
    </g>
    <g id="ytick_13">
     <g id="line2d_25">
      <g>
       <use style="stroke:#000000;stroke-width:1.6;" x="398.816667" xlink:href="#mefd61a8836" y="248.998333"/>
      </g>
     </g>
     <g id="text_25">
      <!-- 0.2 -->
      <g transform="translate(358.671667 255.077083)scale(0.16 -0.16)">
       <use xlink:href="#DejaVuSans-48"/>
       <use x="63.623047" xlink:href="#DejaVuSans-46"/>
       <use x="95.410156" xlink:href="#DejaVuSans-50"/>
      </g>
     </g>
    </g>
    <g id="ytick_14">
     <g id="line2d_26">
      <g>
       <use style="stroke:#000000;stroke-width:1.6;" x="398.816667" xlink:href="#mefd61a8836" y="184.771667"/>
      </g>
     </g>
     <g id="text_26">
      <!-- 0.4 -->
      <g transform="translate(358.671667 190.850417)scale(0.16 -0.16)">
       <use xlink:href="#DejaVuSans-48"/>
       <use x="63.623047" xlink:href="#DejaVuSans-46"/>
       <use x="95.410156" xlink:href="#DejaVuSans-52"/>
      </g>
     </g>
    </g>
    <g id="ytick_15">
     <g id="line2d_27">
      <g>
       <use style="stroke:#000000;stroke-width:1.6;" x="398.816667" xlink:href="#mefd61a8836" y="120.545"/>
      </g>
     </g>
     <g id="text_27">
      <!-- 0.6 -->
      <g transform="translate(358.671667 126.62375)scale(0.16 -0.16)">
       <use xlink:href="#DejaVuSans-48"/>
       <use x="63.623047" xlink:href="#DejaVuSans-46"/>
       <use x="95.410156" xlink:href="#DejaVuSans-54"/>
      </g>
     </g>
    </g>
    <g id="ytick_16">
     <g id="line2d_28">
      <g>
       <use style="stroke:#000000;stroke-width:1.6;" x="398.816667" xlink:href="#mefd61a8836" y="56.318333"/>
      </g>
     </g>
     <g id="text_28">
      <!-- 0.8 -->
      <g transform="translate(358.671667 62.397083)scale(0.16 -0.16)">
       <use xlink:href="#DejaVuSans-48"/>
       <use x="63.623047" xlink:href="#DejaVuSans-46"/>
       <use x="95.410156" xlink:href="#DejaVuSans-56"/>
      </g>
     </g>
    </g>
    <g id="ytick_17">
     <g id="line2d_29">
      <g/>
     </g>
     <g id="text_29">
      <!-- 1.0 -->
      <g transform="translate(358.671667 -1.829583)scale(0.16 -0.16)">
       <use xlink:href="#DejaVuSans-49"/>
       <use x="63.623047" xlink:href="#DejaVuSans-46"/>
       <use x="95.410156" xlink:href="#DejaVuSans-48"/>
      </g>
     </g>
    </g>
   </g>
   <g id="patch_69">
    <path style="fill:none;stroke:#000000;stroke-linecap:square;stroke-linejoin:miter;stroke-width:0.8;"/>
   </g>
   <g id="patch_70">
    <path style="fill:none;stroke:#000000;stroke-linecap:square;stroke-linejoin:miter;stroke-width:0.8;"/>
   </g>
   <g id="patch_71">
    <path style="fill:none;stroke:#000000;stroke-linecap:square;stroke-linejoin:miter;stroke-width:0.8;"/>
   </g>
   <g id="patch_72">
    <path style="fill:none;stroke:#000000;stroke-linecap:square;stroke-linejoin:miter;stroke-width:0.8;"/>
   </g>
  </g>
 </g>
 <defs>
  <clipPath id="p672a61653e">
   <rect height="298.316667" width="298.316667" x="-305.416667" y="3.5"/>
  </clipPath>
  <clipPath id="p89bfe181e5">
   <rect height="298.316667" width="298.316667" x="46.7" y="3.5"/>
  </clipPath>
 </defs>
</svg>
