<?xml version="1.0" encoding="utf-8" standalone="no"?>
<!DOCTYPE svg PUBLIC "-//W3C//DTD SVG 1.1//EN"
  "http://www.w3.org/Graphics/SVG/1.1/DTD/svg11.dtd">
<!-- Created with matplotlib (https://matplotlib.org/) -->
<svg height="359.166667pt" version="1.1" viewBox="0 0 385.041667 359.166667" width="385.041667pt" xmlns="http://www.w3.org/2000/svg" xmlns:xlink="http://www.w3.org/1999/xlink">
 <defs>
  <style type="text/css">
*{stroke-linecap:butt;stroke-linejoin:round;}
  </style>
 </defs>
 <g id="figure_1">
  <g id="patch_1">
   <path d="M 0 359.166667 
L 385.041667 359.166667 
L 385.041667 0 
L 0 0 
z
" style="fill:#ffffff;"/>
  </g>
  <g id="axes_1">
   <g id="patch_2">
    <path d="M 59.575 325.466667 
L 381.541667 325.466667 
L 381.541667 3.5 
L 59.575 3.5 
z
" style="fill:#ffffff;"/>
   </g>
   <g id="patch_3">
    <path clip-path="url(#p8bc50b3f72)" d="M 74.209848 325.466667 
L 83.966414 325.466667 
L 83.966414 325.466667 
L 74.209848 325.466667 
z
" style="fill:#7570b3;opacity:0.6;stroke:#000000;stroke-linejoin:miter;stroke-width:0.5;"/>
   </g>
   <g id="patch_4">
    <path clip-path="url(#p8bc50b3f72)" d="M 83.966414 325.466667 
L 93.72298 325.466667 
L 93.72298 325.466667 
L 83.966414 325.466667 
z
" style="fill:#7570b3;opacity:0.6;stroke:#000000;stroke-linejoin:miter;stroke-width:0.5;"/>
   </g>
   <g id="patch_5">
    <path clip-path="url(#p8bc50b3f72)" d="M 93.72298 325.466667 
L 103.479545 325.466667 
L 103.479545 325.466667 
L 93.72298 325.466667 
z
" style="fill:#7570b3;opacity:0.6;stroke:#000000;stroke-linejoin:miter;stroke-width:0.5;"/>
   </g>
   <g id="patch_6">
    <path clip-path="url(#p8bc50b3f72)" d="M 103.479545 325.466667 
L 113.236111 325.466667 
L 113.236111 325.466667 
L 103.479545 325.466667 
z
" style="fill:#7570b3;opacity:0.6;stroke:#000000;stroke-linejoin:miter;stroke-width:0.5;"/>
   </g>
   <g id="patch_7">
    <path clip-path="url(#p8bc50b3f72)" d="M 113.236111 325.466667 
L 122.992677 325.466667 
L 122.992677 325.466667 
L 113.236111 325.466667 
z
" style="fill:#7570b3;opacity:0.6;stroke:#000000;stroke-linejoin:miter;stroke-width:0.5;"/>
   </g>
   <g id="patch_8">
    <path clip-path="url(#p8bc50b3f72)" d="M 122.992677 325.466667 
L 132.749242 325.466667 
L 132.749242 325.466667 
L 122.992677 325.466667 
z
" style="fill:#7570b3;opacity:0.6;stroke:#000000;stroke-linejoin:miter;stroke-width:0.5;"/>
   </g>
   <g id="patch_9">
    <path clip-path="url(#p8bc50b3f72)" d="M 132.749242 325.466667 
L 142.505808 325.466667 
L 142.505808 325.466667 
L 132.749242 325.466667 
z
" style="fill:#7570b3;opacity:0.6;stroke:#000000;stroke-linejoin:miter;stroke-width:0.5;"/>
   </g>
   <g id="patch_10">
    <path clip-path="url(#p8bc50b3f72)" d="M 142.505808 325.466667 
L 152.262374 325.466667 
L 152.262374 325.466667 
L 142.505808 325.466667 
z
" style="fill:#7570b3;opacity:0.6;stroke:#000000;stroke-linejoin:miter;stroke-width:0.5;"/>
   </g>
   <g id="patch_11">
    <path clip-path="url(#p8bc50b3f72)" d="M 152.262374 325.466667 
L 162.018939 325.466667 
L 162.018939 325.466667 
L 152.262374 325.466667 
z
" style="fill:#7570b3;opacity:0.6;stroke:#000000;stroke-linejoin:miter;stroke-width:0.5;"/>
   </g>
   <g id="patch_12">
    <path clip-path="url(#p8bc50b3f72)" d="M 162.018939 325.466667 
L 171.775505 325.466667 
L 171.775505 325.466667 
L 162.018939 325.466667 
z
" style="fill:#7570b3;opacity:0.6;stroke:#000000;stroke-linejoin:miter;stroke-width:0.5;"/>
   </g>
   <g id="patch_13">
    <path clip-path="url(#p8bc50b3f72)" d="M 171.775505 325.466667 
L 181.532071 325.466667 
L 181.532071 325.466667 
L 171.775505 325.466667 
z
" style="fill:#7570b3;opacity:0.6;stroke:#000000;stroke-linejoin:miter;stroke-width:0.5;"/>
   </g>
   <g id="patch_14">
    <path clip-path="url(#p8bc50b3f72)" d="M 181.532071 325.466667 
L 191.288636 325.466667 
L 191.288636 325.466667 
L 181.532071 325.466667 
z
" style="fill:#7570b3;opacity:0.6;stroke:#000000;stroke-linejoin:miter;stroke-width:0.5;"/>
   </g>
   <g id="patch_15">
    <path clip-path="url(#p8bc50b3f72)" d="M 191.288636 325.466667 
L 201.045202 325.466667 
L 201.045202 325.466667 
L 191.288636 325.466667 
z
" style="fill:#7570b3;opacity:0.6;stroke:#000000;stroke-linejoin:miter;stroke-width:0.5;"/>
   </g>
   <g id="patch_16">
    <path clip-path="url(#p8bc50b3f72)" d="M 201.045202 325.466667 
L 210.801768 325.466667 
L 210.801768 325.466667 
L 201.045202 325.466667 
z
" style="fill:#7570b3;opacity:0.6;stroke:#000000;stroke-linejoin:miter;stroke-width:0.5;"/>
   </g>
   <g id="patch_17">
    <path clip-path="url(#p8bc50b3f72)" d="M 210.801768 325.466667 
L 220.558333 325.466667 
L 220.558333 325.466667 
L 210.801768 325.466667 
z
" style="fill:#7570b3;opacity:0.6;stroke:#000000;stroke-linejoin:miter;stroke-width:0.5;"/>
   </g>
   <g id="patch_18">
    <path clip-path="url(#p8bc50b3f72)" d="M 220.558333 325.466667 
L 230.314899 325.466667 
L 230.314899 322.806424 
L 220.558333 322.806424 
z
" style="fill:#7570b3;opacity:0.6;stroke:#000000;stroke-linejoin:miter;stroke-width:0.5;"/>
   </g>
   <g id="patch_19">
    <path clip-path="url(#p8bc50b3f72)" d="M 230.314899 325.466667 
L 240.071465 325.466667 
L 240.071465 234.685888 
L 230.314899 234.685888 
z
" style="fill:#7570b3;opacity:0.6;stroke:#000000;stroke-linejoin:miter;stroke-width:0.5;"/>
   </g>
   <g id="patch_20">
    <path clip-path="url(#p8bc50b3f72)" d="M 240.071465 325.466667 
L 249.82803 325.466667 
L 249.82803 70.415906 
L 240.071465 70.415906 
z
" style="fill:#7570b3;opacity:0.6;stroke:#000000;stroke-linejoin:miter;stroke-width:0.5;"/>
   </g>
   <g id="patch_21">
    <path clip-path="url(#p8bc50b3f72)" d="M 249.82803 325.466667 
L 259.584596 325.466667 
L 259.584596 78.729164 
L 249.82803 78.729164 
z
" style="fill:#7570b3;opacity:0.6;stroke:#000000;stroke-linejoin:miter;stroke-width:0.5;"/>
   </g>
   <g id="patch_22">
    <path clip-path="url(#p8bc50b3f72)" d="M 259.584596 325.466667 
L 269.341162 325.466667 
L 269.341162 148.893063 
L 259.584596 148.893063 
z
" style="fill:#7570b3;opacity:0.6;stroke:#000000;stroke-linejoin:miter;stroke-width:0.5;"/>
   </g>
   <g id="patch_23">
    <path clip-path="url(#p8bc50b3f72)" d="M 269.341162 325.466667 
L 279.097727 325.466667 
L 279.097727 215.399129 
L 269.341162 215.399129 
z
" style="fill:#7570b3;opacity:0.6;stroke:#000000;stroke-linejoin:miter;stroke-width:0.5;"/>
   </g>
   <g id="patch_24">
    <path clip-path="url(#p8bc50b3f72)" d="M 279.097727 325.466667 
L 288.854293 325.466667 
L 288.854293 265.943738 
L 279.097727 265.943738 
z
" style="fill:#7570b3;opacity:0.6;stroke:#000000;stroke-linejoin:miter;stroke-width:0.5;"/>
   </g>
   <g id="patch_25">
    <path clip-path="url(#p8bc50b3f72)" d="M 288.854293 325.466667 
L 298.610859 325.466667 
L 298.610859 282.902785 
L 288.854293 282.902785 
z
" style="fill:#7570b3;opacity:0.6;stroke:#000000;stroke-linejoin:miter;stroke-width:0.5;"/>
   </g>
   <g id="patch_26">
    <path clip-path="url(#p8bc50b3f72)" d="M 298.610859 325.466667 
L 308.367424 325.466667 
L 308.367424 300.859423 
L 298.610859 300.859423 
z
" style="fill:#7570b3;opacity:0.6;stroke:#000000;stroke-linejoin:miter;stroke-width:0.5;"/>
   </g>
   <g id="patch_27">
    <path clip-path="url(#p8bc50b3f72)" d="M 308.367424 325.466667 
L 318.12399 325.466667 
L 318.12399 315.158227 
L 308.367424 315.158227 
z
" style="fill:#7570b3;opacity:0.6;stroke:#000000;stroke-linejoin:miter;stroke-width:0.5;"/>
   </g>
   <g id="patch_28">
    <path clip-path="url(#p8bc50b3f72)" d="M 318.12399 325.466667 
L 327.880556 325.466667 
L 327.880556 318.48353 
L 318.12399 318.48353 
z
" style="fill:#7570b3;opacity:0.6;stroke:#000000;stroke-linejoin:miter;stroke-width:0.5;"/>
   </g>
   <g id="patch_29">
    <path clip-path="url(#p8bc50b3f72)" d="M 327.880556 325.466667 
L 337.637121 325.466667 
L 337.637121 323.471485 
L 327.880556 323.471485 
z
" style="fill:#7570b3;opacity:0.6;stroke:#000000;stroke-linejoin:miter;stroke-width:0.5;"/>
   </g>
   <g id="patch_30">
    <path clip-path="url(#p8bc50b3f72)" d="M 337.637121 325.466667 
L 347.393687 325.466667 
L 347.393687 325.134136 
L 337.637121 325.134136 
z
" style="fill:#7570b3;opacity:0.6;stroke:#000000;stroke-linejoin:miter;stroke-width:0.5;"/>
   </g>
   <g id="patch_31">
    <path clip-path="url(#p8bc50b3f72)" d="M 347.393687 325.466667 
L 357.150253 325.466667 
L 357.150253 324.801606 
L 347.393687 324.801606 
z
" style="fill:#7570b3;opacity:0.6;stroke:#000000;stroke-linejoin:miter;stroke-width:0.5;"/>
   </g>
   <g id="patch_32">
    <path clip-path="url(#p8bc50b3f72)" d="M 357.150253 325.466667 
L 366.906818 325.466667 
L 366.906818 324.801606 
L 357.150253 324.801606 
z
" style="fill:#7570b3;opacity:0.6;stroke:#000000;stroke-linejoin:miter;stroke-width:0.5;"/>
   </g>
   <g id="patch_33">
    <path clip-path="url(#p8bc50b3f72)" d="M 74.209848 325.466667 
L 83.966414 325.466667 
L 83.966414 325.466667 
L 74.209848 325.466667 
z
" style="fill:#d95f02;opacity:0.6;stroke:#000000;stroke-linejoin:miter;stroke-width:0.5;"/>
   </g>
   <g id="patch_34">
    <path clip-path="url(#p8bc50b3f72)" d="M 83.966414 325.466667 
L 93.72298 325.466667 
L 93.72298 325.466667 
L 83.966414 325.466667 
z
" style="fill:#d95f02;opacity:0.6;stroke:#000000;stroke-linejoin:miter;stroke-width:0.5;"/>
   </g>
   <g id="patch_35">
    <path clip-path="url(#p8bc50b3f72)" d="M 93.72298 325.466667 
L 103.479545 325.466667 
L 103.479545 325.466667 
L 93.72298 325.466667 
z
" style="fill:#d95f02;opacity:0.6;stroke:#000000;stroke-linejoin:miter;stroke-width:0.5;"/>
   </g>
   <g id="patch_36">
    <path clip-path="url(#p8bc50b3f72)" d="M 103.479545 325.466667 
L 113.236111 325.466667 
L 113.236111 325.466667 
L 103.479545 325.466667 
z
" style="fill:#d95f02;opacity:0.6;stroke:#000000;stroke-linejoin:miter;stroke-width:0.5;"/>
   </g>
   <g id="patch_37">
    <path clip-path="url(#p8bc50b3f72)" d="M 113.236111 325.466667 
L 122.992677 325.466667 
L 122.992677 325.466667 
L 113.236111 325.466667 
z
" style="fill:#d95f02;opacity:0.6;stroke:#000000;stroke-linejoin:miter;stroke-width:0.5;"/>
   </g>
   <g id="patch_38">
    <path clip-path="url(#p8bc50b3f72)" d="M 122.992677 325.466667 
L 132.749242 325.466667 
L 132.749242 325.466667 
L 122.992677 325.466667 
z
" style="fill:#d95f02;opacity:0.6;stroke:#000000;stroke-linejoin:miter;stroke-width:0.5;"/>
   </g>
   <g id="patch_39">
    <path clip-path="url(#p8bc50b3f72)" d="M 132.749242 325.466667 
L 142.505808 325.466667 
L 142.505808 325.466667 
L 132.749242 325.466667 
z
" style="fill:#d95f02;opacity:0.6;stroke:#000000;stroke-linejoin:miter;stroke-width:0.5;"/>
   </g>
   <g id="patch_40">
    <path clip-path="url(#p8bc50b3f72)" d="M 142.505808 325.466667 
L 152.262374 325.466667 
L 152.262374 325.466667 
L 142.505808 325.466667 
z
" style="fill:#d95f02;opacity:0.6;stroke:#000000;stroke-linejoin:miter;stroke-width:0.5;"/>
   </g>
   <g id="patch_41">
    <path clip-path="url(#p8bc50b3f72)" d="M 152.262374 325.466667 
L 162.018939 325.466667 
L 162.018939 325.466667 
L 152.262374 325.466667 
z
" style="fill:#d95f02;opacity:0.6;stroke:#000000;stroke-linejoin:miter;stroke-width:0.5;"/>
   </g>
   <g id="patch_42">
    <path clip-path="url(#p8bc50b3f72)" d="M 162.018939 325.466667 
L 171.775505 325.466667 
L 171.775505 325.466667 
L 162.018939 325.466667 
z
" style="fill:#d95f02;opacity:0.6;stroke:#000000;stroke-linejoin:miter;stroke-width:0.5;"/>
   </g>
   <g id="patch_43">
    <path clip-path="url(#p8bc50b3f72)" d="M 171.775505 325.466667 
L 181.532071 325.466667 
L 181.532071 325.466667 
L 171.775505 325.466667 
z
" style="fill:#d95f02;opacity:0.6;stroke:#000000;stroke-linejoin:miter;stroke-width:0.5;"/>
   </g>
   <g id="patch_44">
    <path clip-path="url(#p8bc50b3f72)" d="M 181.532071 325.466667 
L 191.288636 325.466667 
L 191.288636 325.466667 
L 181.532071 325.466667 
z
" style="fill:#d95f02;opacity:0.6;stroke:#000000;stroke-linejoin:miter;stroke-width:0.5;"/>
   </g>
   <g id="patch_45">
    <path clip-path="url(#p8bc50b3f72)" d="M 191.288636 325.466667 
L 201.045202 325.466667 
L 201.045202 325.466667 
L 191.288636 325.466667 
z
" style="fill:#d95f02;opacity:0.6;stroke:#000000;stroke-linejoin:miter;stroke-width:0.5;"/>
   </g>
   <g id="patch_46">
    <path clip-path="url(#p8bc50b3f72)" d="M 201.045202 325.466667 
L 210.801768 325.466667 
L 210.801768 325.466667 
L 201.045202 325.466667 
z
" style="fill:#d95f02;opacity:0.6;stroke:#000000;stroke-linejoin:miter;stroke-width:0.5;"/>
   </g>
   <g id="patch_47">
    <path clip-path="url(#p8bc50b3f72)" d="M 210.801768 325.466667 
L 220.558333 325.466667 
L 220.558333 325.466667 
L 210.801768 325.466667 
z
" style="fill:#d95f02;opacity:0.6;stroke:#000000;stroke-linejoin:miter;stroke-width:0.5;"/>
   </g>
   <g id="patch_48">
    <path clip-path="url(#p8bc50b3f72)" d="M 220.558333 325.466667 
L 230.314899 325.466667 
L 230.314899 322.760268 
L 220.558333 322.760268 
z
" style="fill:#d95f02;opacity:0.6;stroke:#000000;stroke-linejoin:miter;stroke-width:0.5;"/>
   </g>
   <g id="patch_49">
    <path clip-path="url(#p8bc50b3f72)" d="M 230.314899 325.466667 
L 240.071465 325.466667 
L 240.071465 222.623534 
L 230.314899 222.623534 
z
" style="fill:#d95f02;opacity:0.6;stroke:#000000;stroke-linejoin:miter;stroke-width:0.5;"/>
   </g>
   <g id="patch_50">
    <path clip-path="url(#p8bc50b3f72)" d="M 240.071465 325.466667 
L 249.82803 325.466667 
L 249.82803 18.831746 
L 240.071465 18.831746 
z
" style="fill:#d95f02;opacity:0.6;stroke:#000000;stroke-linejoin:miter;stroke-width:0.5;"/>
   </g>
   <g id="patch_51">
    <path clip-path="url(#p8bc50b3f72)" d="M 249.82803 325.466667 
L 259.584596 325.466667 
L 259.584596 90.551299 
L 249.82803 90.551299 
z
" style="fill:#d95f02;opacity:0.6;stroke:#000000;stroke-linejoin:miter;stroke-width:0.5;"/>
   </g>
   <g id="patch_52">
    <path clip-path="url(#p8bc50b3f72)" d="M 259.584596 325.466667 
L 269.341162 325.466667 
L 269.341162 166.05981 
L 259.584596 166.05981 
z
" style="fill:#d95f02;opacity:0.6;stroke:#000000;stroke-linejoin:miter;stroke-width:0.5;"/>
   </g>
   <g id="patch_53">
    <path clip-path="url(#p8bc50b3f72)" d="M 269.341162 325.466667 
L 279.097727 325.466667 
L 279.097727 223.976733 
L 269.341162 223.976733 
z
" style="fill:#d95f02;opacity:0.6;stroke:#000000;stroke-linejoin:miter;stroke-width:0.5;"/>
   </g>
   <g id="patch_54">
    <path clip-path="url(#p8bc50b3f72)" d="M 279.097727 325.466667 
L 288.854293 325.466667 
L 288.854293 267.820384 
L 279.097727 267.820384 
z
" style="fill:#d95f02;opacity:0.6;stroke:#000000;stroke-linejoin:miter;stroke-width:0.5;"/>
   </g>
   <g id="patch_55">
    <path clip-path="url(#p8bc50b3f72)" d="M 288.854293 325.466667 
L 298.610859 325.466667 
L 298.610859 291.095409 
L 288.854293 291.095409 
z
" style="fill:#d95f02;opacity:0.6;stroke:#000000;stroke-linejoin:miter;stroke-width:0.5;"/>
   </g>
   <g id="patch_56">
    <path clip-path="url(#p8bc50b3f72)" d="M 298.610859 325.466667 
L 308.367424 325.466667 
L 308.367424 307.063159 
L 298.610859 307.063159 
z
" style="fill:#d95f02;opacity:0.6;stroke:#000000;stroke-linejoin:miter;stroke-width:0.5;"/>
   </g>
   <g id="patch_57">
    <path clip-path="url(#p8bc50b3f72)" d="M 308.367424 325.466667 
L 318.12399 325.466667 
L 318.12399 317.888752 
L 308.367424 317.888752 
z
" style="fill:#d95f02;opacity:0.6;stroke:#000000;stroke-linejoin:miter;stroke-width:0.5;"/>
   </g>
   <g id="patch_58">
    <path clip-path="url(#p8bc50b3f72)" d="M 318.12399 325.466667 
L 327.880556 325.466667 
L 327.880556 324.113468 
L 318.12399 324.113468 
z
" style="fill:#d95f02;opacity:0.6;stroke:#000000;stroke-linejoin:miter;stroke-width:0.5;"/>
   </g>
   <g id="patch_59">
    <path clip-path="url(#p8bc50b3f72)" d="M 327.880556 325.466667 
L 337.637121 325.466667 
L 337.637121 324.654747 
L 327.880556 324.654747 
z
" style="fill:#d95f02;opacity:0.6;stroke:#000000;stroke-linejoin:miter;stroke-width:0.5;"/>
   </g>
   <g id="patch_60">
    <path clip-path="url(#p8bc50b3f72)" d="M 337.637121 325.466667 
L 347.393687 325.466667 
L 347.393687 324.384107 
L 337.637121 324.384107 
z
" style="fill:#d95f02;opacity:0.6;stroke:#000000;stroke-linejoin:miter;stroke-width:0.5;"/>
   </g>
   <g id="patch_61">
    <path clip-path="url(#p8bc50b3f72)" d="M 347.393687 325.466667 
L 357.150253 325.466667 
L 357.150253 325.466667 
L 347.393687 325.466667 
z
" style="fill:#d95f02;opacity:0.6;stroke:#000000;stroke-linejoin:miter;stroke-width:0.5;"/>
   </g>
   <g id="patch_62">
    <path clip-path="url(#p8bc50b3f72)" d="M 357.150253 325.466667 
L 366.906818 325.466667 
L 366.906818 325.196027 
L 357.150253 325.196027 
z
" style="fill:#d95f02;opacity:0.6;stroke:#000000;stroke-linejoin:miter;stroke-width:0.5;"/>
   </g>
   <g id="patch_63">
    <path clip-path="url(#p8bc50b3f72)" d="M 74.209848 325.466667 
L 83.966414 325.466667 
L 83.966414 325.466667 
L 74.209848 325.466667 
z
" style="fill:#1b9e77;opacity:0.6;stroke:#000000;stroke-linejoin:miter;stroke-width:0.5;"/>
   </g>
   <g id="patch_64">
    <path clip-path="url(#p8bc50b3f72)" d="M 83.966414 325.466667 
L 93.72298 325.466667 
L 93.72298 325.466667 
L 83.966414 325.466667 
z
" style="fill:#1b9e77;opacity:0.6;stroke:#000000;stroke-linejoin:miter;stroke-width:0.5;"/>
   </g>
   <g id="patch_65">
    <path clip-path="url(#p8bc50b3f72)" d="M 93.72298 325.466667 
L 103.479545 325.466667 
L 103.479545 325.466667 
L 93.72298 325.466667 
z
" style="fill:#1b9e77;opacity:0.6;stroke:#000000;stroke-linejoin:miter;stroke-width:0.5;"/>
   </g>
   <g id="patch_66">
    <path clip-path="url(#p8bc50b3f72)" d="M 103.479545 325.466667 
L 113.236111 325.466667 
L 113.236111 325.466667 
L 103.479545 325.466667 
z
" style="fill:#1b9e77;opacity:0.6;stroke:#000000;stroke-linejoin:miter;stroke-width:0.5;"/>
   </g>
   <g id="patch_67">
    <path clip-path="url(#p8bc50b3f72)" d="M 113.236111 325.466667 
L 122.992677 325.466667 
L 122.992677 325.466667 
L 113.236111 325.466667 
z
" style="fill:#1b9e77;opacity:0.6;stroke:#000000;stroke-linejoin:miter;stroke-width:0.5;"/>
   </g>
   <g id="patch_68">
    <path clip-path="url(#p8bc50b3f72)" d="M 122.992677 325.466667 
L 132.749242 325.466667 
L 132.749242 325.466667 
L 122.992677 325.466667 
z
" style="fill:#1b9e77;opacity:0.6;stroke:#000000;stroke-linejoin:miter;stroke-width:0.5;"/>
   </g>
   <g id="patch_69">
    <path clip-path="url(#p8bc50b3f72)" d="M 132.749242 325.466667 
L 142.505808 325.466667 
L 142.505808 325.466667 
L 132.749242 325.466667 
z
" style="fill:#1b9e77;opacity:0.6;stroke:#000000;stroke-linejoin:miter;stroke-width:0.5;"/>
   </g>
   <g id="patch_70">
    <path clip-path="url(#p8bc50b3f72)" d="M 142.505808 325.466667 
L 152.262374 325.466667 
L 152.262374 325.466667 
L 142.505808 325.466667 
z
" style="fill:#1b9e77;opacity:0.6;stroke:#000000;stroke-linejoin:miter;stroke-width:0.5;"/>
   </g>
   <g id="patch_71">
    <path clip-path="url(#p8bc50b3f72)" d="M 152.262374 325.466667 
L 162.018939 325.466667 
L 162.018939 325.466667 
L 152.262374 325.466667 
z
" style="fill:#1b9e77;opacity:0.6;stroke:#000000;stroke-linejoin:miter;stroke-width:0.5;"/>
   </g>
   <g id="patch_72">
    <path clip-path="url(#p8bc50b3f72)" d="M 162.018939 325.466667 
L 171.775505 325.466667 
L 171.775505 325.466667 
L 162.018939 325.466667 
z
" style="fill:#1b9e77;opacity:0.6;stroke:#000000;stroke-linejoin:miter;stroke-width:0.5;"/>
   </g>
   <g id="patch_73">
    <path clip-path="url(#p8bc50b3f72)" d="M 171.775505 325.466667 
L 181.532071 325.466667 
L 181.532071 325.466667 
L 171.775505 325.466667 
z
" style="fill:#1b9e77;opacity:0.6;stroke:#000000;stroke-linejoin:miter;stroke-width:0.5;"/>
   </g>
   <g id="patch_74">
    <path clip-path="url(#p8bc50b3f72)" d="M 181.532071 325.466667 
L 191.288636 325.466667 
L 191.288636 325.466667 
L 181.532071 325.466667 
z
" style="fill:#1b9e77;opacity:0.6;stroke:#000000;stroke-linejoin:miter;stroke-width:0.5;"/>
   </g>
   <g id="patch_75">
    <path clip-path="url(#p8bc50b3f72)" d="M 191.288636 325.466667 
L 201.045202 325.466667 
L 201.045202 325.466667 
L 191.288636 325.466667 
z
" style="fill:#1b9e77;opacity:0.6;stroke:#000000;stroke-linejoin:miter;stroke-width:0.5;"/>
   </g>
   <g id="patch_76">
    <path clip-path="url(#p8bc50b3f72)" d="M 201.045202 325.466667 
L 210.801768 325.466667 
L 210.801768 325.466667 
L 201.045202 325.466667 
z
" style="fill:#1b9e77;opacity:0.6;stroke:#000000;stroke-linejoin:miter;stroke-width:0.5;"/>
   </g>
   <g id="patch_77">
    <path clip-path="url(#p8bc50b3f72)" d="M 210.801768 325.466667 
L 220.558333 325.466667 
L 220.558333 325.466667 
L 210.801768 325.466667 
z
" style="fill:#1b9e77;opacity:0.6;stroke:#000000;stroke-linejoin:miter;stroke-width:0.5;"/>
   </g>
   <g id="patch_78">
    <path clip-path="url(#p8bc50b3f72)" d="M 220.558333 325.466667 
L 230.314899 325.466667 
L 230.314899 322.297848 
L 220.558333 322.297848 
z
" style="fill:#1b9e77;opacity:0.6;stroke:#000000;stroke-linejoin:miter;stroke-width:0.5;"/>
   </g>
   <g id="patch_79">
    <path clip-path="url(#p8bc50b3f72)" d="M 230.314899 325.466667 
L 240.071465 325.466667 
L 240.071465 208.924568 
L 230.314899 208.924568 
z
" style="fill:#1b9e77;opacity:0.6;stroke:#000000;stroke-linejoin:miter;stroke-width:0.5;"/>
   </g>
   <g id="patch_80">
    <path clip-path="url(#p8bc50b3f72)" d="M 240.071465 325.466667 
L 249.82803 325.466667 
L 249.82803 34.639555 
L 240.071465 34.639555 
z
" style="fill:#1b9e77;opacity:0.6;stroke:#000000;stroke-linejoin:miter;stroke-width:0.5;"/>
   </g>
   <g id="patch_81">
    <path clip-path="url(#p8bc50b3f72)" d="M 249.82803 325.466667 
L 259.584596 325.466667 
L 259.584596 76.538376 
L 249.82803 76.538376 
z
" style="fill:#1b9e77;opacity:0.6;stroke:#000000;stroke-linejoin:miter;stroke-width:0.5;"/>
   </g>
   <g id="patch_82">
    <path clip-path="url(#p8bc50b3f72)" d="M 259.584596 325.466667 
L 269.341162 325.466667 
L 269.341162 172.30711 
L 259.584596 172.30711 
z
" style="fill:#1b9e77;opacity:0.6;stroke:#000000;stroke-linejoin:miter;stroke-width:0.5;"/>
   </g>
   <g id="patch_83">
    <path clip-path="url(#p8bc50b3f72)" d="M 269.341162 325.466667 
L 279.097727 325.466667 
L 279.097727 224.76866 
L 269.341162 224.76866 
z
" style="fill:#1b9e77;opacity:0.6;stroke:#000000;stroke-linejoin:miter;stroke-width:0.5;"/>
   </g>
   <g id="patch_84">
    <path clip-path="url(#p8bc50b3f72)" d="M 279.097727 325.466667 
L 288.854293 325.466667 
L 288.854293 272.300936 
L 279.097727 272.300936 
z
" style="fill:#1b9e77;opacity:0.6;stroke:#000000;stroke-linejoin:miter;stroke-width:0.5;"/>
   </g>
   <g id="patch_85">
    <path clip-path="url(#p8bc50b3f72)" d="M 288.854293 325.466667 
L 298.610859 325.466667 
L 298.610859 291.313846 
L 288.854293 291.313846 
z
" style="fill:#1b9e77;opacity:0.6;stroke:#000000;stroke-linejoin:miter;stroke-width:0.5;"/>
   </g>
   <g id="patch_86">
    <path clip-path="url(#p8bc50b3f72)" d="M 298.610859 325.466667 
L 308.367424 325.466667 
L 308.367424 306.453756 
L 298.610859 306.453756 
z
" style="fill:#1b9e77;opacity:0.6;stroke:#000000;stroke-linejoin:miter;stroke-width:0.5;"/>
   </g>
   <g id="patch_87">
    <path clip-path="url(#p8bc50b3f72)" d="M 308.367424 325.466667 
L 318.12399 325.466667 
L 318.12399 321.945757 
L 308.367424 321.945757 
z
" style="fill:#1b9e77;opacity:0.6;stroke:#000000;stroke-linejoin:miter;stroke-width:0.5;"/>
   </g>
   <g id="patch_88">
    <path clip-path="url(#p8bc50b3f72)" d="M 318.12399 325.466667 
L 327.880556 325.466667 
L 327.880556 320.889485 
L 318.12399 320.889485 
z
" style="fill:#1b9e77;opacity:0.6;stroke:#000000;stroke-linejoin:miter;stroke-width:0.5;"/>
   </g>
   <g id="patch_89">
    <path clip-path="url(#p8bc50b3f72)" d="M 327.880556 325.466667 
L 337.637121 325.466667 
L 337.637121 324.762485 
L 327.880556 324.762485 
z
" style="fill:#1b9e77;opacity:0.6;stroke:#000000;stroke-linejoin:miter;stroke-width:0.5;"/>
   </g>
   <g id="patch_90">
    <path clip-path="url(#p8bc50b3f72)" d="M 337.637121 325.466667 
L 347.393687 325.466667 
L 347.393687 324.762485 
L 337.637121 324.762485 
z
" style="fill:#1b9e77;opacity:0.6;stroke:#000000;stroke-linejoin:miter;stroke-width:0.5;"/>
   </g>
   <g id="patch_91">
    <path clip-path="url(#p8bc50b3f72)" d="M 347.393687 325.466667 
L 357.150253 325.466667 
L 357.150253 325.466667 
L 347.393687 325.466667 
z
" style="fill:#1b9e77;opacity:0.6;stroke:#000000;stroke-linejoin:miter;stroke-width:0.5;"/>
   </g>
   <g id="patch_92">
    <path clip-path="url(#p8bc50b3f72)" d="M 357.150253 325.466667 
L 366.906818 325.466667 
L 366.906818 325.114576 
L 357.150253 325.114576 
z
" style="fill:#1b9e77;opacity:0.6;stroke:#000000;stroke-linejoin:miter;stroke-width:0.5;"/>
   </g>
   <g id="matplotlib.axis_1">
    <g id="xtick_1">
     <g id="line2d_1">
      <defs>
       <path d="M 0 0 
L 0 3.5 
" id="m43055fc225" style="stroke:#000000;stroke-width:1.6;"/>
      </defs>
      <g>
       <use style="stroke:#000000;stroke-width:1.6;" x="74.209848" xlink:href="#m43055fc225" y="325.466667"/>
      </g>
     </g>
     <g id="text_1">
      <!-- −1.0 -->
      <defs>
       <path d="M 10.59375 35.5 
L 73.1875 35.5 
L 73.1875 27.203125 
L 10.59375 27.203125 
z
" id="DejaVuSans-8722"/>
       <path d="M 12.40625 8.296875 
L 28.515625 8.296875 
L 28.515625 63.921875 
L 10.984375 60.40625 
L 10.984375 69.390625 
L 28.421875 72.90625 
L 38.28125 72.90625 
L 38.28125 8.296875 
L 54.390625 8.296875 
L 54.390625 0 
L 12.40625 0 
z
" id="DejaVuSans-49"/>
       <path d="M 10.6875 12.40625 
L 21 12.40625 
L 21 0 
L 10.6875 0 
z
" id="DejaVuSans-46"/>
       <path d="M 31.78125 66.40625 
Q 24.171875 66.40625 20.328125 58.90625 
Q 16.5 51.421875 16.5 36.375 
Q 16.5 21.390625 20.328125 13.890625 
Q 24.171875 6.390625 31.78125 6.390625 
Q 39.453125 6.390625 43.28125 13.890625 
Q 47.125 21.390625 47.125 36.375 
Q 47.125 51.421875 43.28125 58.90625 
Q 39.453125 66.40625 31.78125 66.40625 
z
M 31.78125 74.21875 
Q 44.046875 74.21875 50.515625 64.515625 
Q 56.984375 54.828125 56.984375 36.375 
Q 56.984375 17.96875 50.515625 8.265625 
Q 44.046875 -1.421875 31.78125 -1.421875 
Q 19.53125 -1.421875 13.0625 8.265625 
Q 6.59375 17.96875 6.59375 36.375 
Q 6.59375 54.828125 13.0625 64.515625 
Q 19.53125 74.21875 31.78125 74.21875 
z
" id="DejaVuSans-48"/>
      </defs>
      <g transform="translate(49.927036 355.363542)scale(0.2 -0.2)">
       <use xlink:href="#DejaVuSans-8722"/>
       <use x="83.789062" xlink:href="#DejaVuSans-49"/>
       <use x="147.412109" xlink:href="#DejaVuSans-46"/>
       <use x="179.199219" xlink:href="#DejaVuSans-48"/>
      </g>
     </g>
    </g>
    <g id="xtick_2">
     <g id="line2d_2">
      <g>
       <use style="stroke:#000000;stroke-width:1.6;" x="147.384091" xlink:href="#m43055fc225" y="325.466667"/>
      </g>
     </g>
     <g id="text_2">
      <!-- −0.5 -->
      <defs>
       <path d="M 10.796875 72.90625 
L 49.515625 72.90625 
L 49.515625 64.59375 
L 19.828125 64.59375 
L 19.828125 46.734375 
Q 21.96875 47.46875 24.109375 47.828125 
Q 26.265625 48.1875 28.421875 48.1875 
Q 40.625 48.1875 47.75 41.5 
Q 54.890625 34.8125 54.890625 23.390625 
Q 54.890625 11.625 47.5625 5.09375 
Q 40.234375 -1.421875 26.90625 -1.421875 
Q 22.3125 -1.421875 17.546875 -0.640625 
Q 12.796875 0.140625 7.71875 1.703125 
L 7.71875 11.625 
Q 12.109375 9.234375 16.796875 8.0625 
Q 21.484375 6.890625 26.703125 6.890625 
Q 35.15625 6.890625 40.078125 11.328125 
Q 45.015625 15.765625 45.015625 23.390625 
Q 45.015625 31 40.078125 35.4375 
Q 35.15625 39.890625 26.703125 39.890625 
Q 22.75 39.890625 18.8125 39.015625 
Q 14.890625 38.140625 10.796875 36.28125 
z
" id="DejaVuSans-53"/>
      </defs>
      <g transform="translate(123.101278 355.363542)scale(0.2 -0.2)">
       <use xlink:href="#DejaVuSans-8722"/>
       <use x="83.789062" xlink:href="#DejaVuSans-48"/>
       <use x="147.412109" xlink:href="#DejaVuSans-46"/>
       <use x="179.199219" xlink:href="#DejaVuSans-53"/>
      </g>
     </g>
    </g>
    <g id="xtick_3">
     <g id="line2d_3">
      <g>
       <use style="stroke:#000000;stroke-width:1.6;" x="220.558333" xlink:href="#m43055fc225" y="325.466667"/>
      </g>
     </g>
     <g id="text_3">
      <!-- 0.0 -->
      <g transform="translate(204.655208 355.363542)scale(0.2 -0.2)">
       <use xlink:href="#DejaVuSans-48"/>
       <use x="63.623047" xlink:href="#DejaVuSans-46"/>
       <use x="95.410156" xlink:href="#DejaVuSans-48"/>
      </g>
     </g>
    </g>
    <g id="xtick_4">
     <g id="line2d_4">
      <g>
       <use style="stroke:#000000;stroke-width:1.6;" x="293.732576" xlink:href="#m43055fc225" y="325.466667"/>
      </g>
     </g>
     <g id="text_4">
      <!-- 0.5 -->
      <g transform="translate(277.829451 355.363542)scale(0.2 -0.2)">
       <use xlink:href="#DejaVuSans-48"/>
       <use x="63.623047" xlink:href="#DejaVuSans-46"/>
       <use x="95.410156" xlink:href="#DejaVuSans-53"/>
      </g>
     </g>
    </g>
    <g id="xtick_5">
     <g id="line2d_5">
      <g>
       <use style="stroke:#000000;stroke-width:1.6;" x="366.906818" xlink:href="#m43055fc225" y="325.466667"/>
      </g>
     </g>
     <g id="text_5">
      <!-- 1.0 -->
      <g transform="translate(351.003693 355.363542)scale(0.2 -0.2)">
       <use xlink:href="#DejaVuSans-49"/>
       <use x="63.623047" xlink:href="#DejaVuSans-46"/>
       <use x="95.410156" xlink:href="#DejaVuSans-48"/>
      </g>
     </g>
    </g>
   </g>
   <g id="matplotlib.axis_2">
    <g id="ytick_1">
     <g id="line2d_6">
      <defs>
       <path d="M 0 0 
L -3.5 0 
" id="m438af061f9" style="stroke:#000000;stroke-width:1.6;"/>
      </defs>
      <g>
       <use style="stroke:#000000;stroke-width:1.6;" x="59.575" xlink:href="#m438af061f9" y="325.466667"/>
      </g>
     </g>
     <g id="text_6">
      <!-- 0.00 -->
      <g transform="translate(0.34375 333.065104)scale(0.2 -0.2)">
       <use xlink:href="#DejaVuSans-48"/>
       <use x="63.623047" xlink:href="#DejaVuSans-46"/>
       <use x="95.410156" xlink:href="#DejaVuSans-48"/>
       <use x="159.033203" xlink:href="#DejaVuSans-48"/>
      </g>
     </g>
    </g>
    <g id="ytick_2">
     <g id="line2d_7">
      <g>
       <use style="stroke:#000000;stroke-width:1.6;" x="59.575" xlink:href="#m438af061f9" y="273.990972"/>
      </g>
     </g>
     <g id="text_7">
      <!-- 0.05 -->
      <g transform="translate(0.34375 281.58941)scale(0.2 -0.2)">
       <use xlink:href="#DejaVuSans-48"/>
       <use x="63.623047" xlink:href="#DejaVuSans-46"/>
       <use x="95.410156" xlink:href="#DejaVuSans-48"/>
       <use x="159.033203" xlink:href="#DejaVuSans-53"/>
      </g>
     </g>
    </g>
    <g id="ytick_3">
     <g id="line2d_8">
      <g>
       <use style="stroke:#000000;stroke-width:1.6;" x="59.575" xlink:href="#m438af061f9" y="222.515278"/>
      </g>
     </g>
     <g id="text_8">
      <!-- 0.10 -->
      <g transform="translate(0.34375 230.113715)scale(0.2 -0.2)">
       <use xlink:href="#DejaVuSans-48"/>
       <use x="63.623047" xlink:href="#DejaVuSans-46"/>
       <use x="95.410156" xlink:href="#DejaVuSans-49"/>
       <use x="159.033203" xlink:href="#DejaVuSans-48"/>
      </g>
     </g>
    </g>
    <g id="ytick_4">
     <g id="line2d_9">
      <g>
       <use style="stroke:#000000;stroke-width:1.6;" x="59.575" xlink:href="#m438af061f9" y="171.039583"/>
      </g>
     </g>
     <g id="text_9">
      <!-- 0.15 -->
      <g transform="translate(0.34375 178.638021)scale(0.2 -0.2)">
       <use xlink:href="#DejaVuSans-48"/>
       <use x="63.623047" xlink:href="#DejaVuSans-46"/>
       <use x="95.410156" xlink:href="#DejaVuSans-49"/>
       <use x="159.033203" xlink:href="#DejaVuSans-53"/>
      </g>
     </g>
    </g>
    <g id="ytick_5">
     <g id="line2d_10">
      <g>
       <use style="stroke:#000000;stroke-width:1.6;" x="59.575" xlink:href="#m438af061f9" y="119.563889"/>
      </g>
     </g>
     <g id="text_10">
      <!-- 0.20 -->
      <defs>
       <path d="M 19.1875 8.296875 
L 53.609375 8.296875 
L 53.609375 0 
L 7.328125 0 
L 7.328125 8.296875 
Q 12.9375 14.109375 22.625 23.890625 
Q 32.328125 33.6875 34.8125 36.53125 
Q 39.546875 41.84375 41.421875 45.53125 
Q 43.3125 49.21875 43.3125 52.78125 
Q 43.3125 58.59375 39.234375 62.25 
Q 35.15625 65.921875 28.609375 65.921875 
Q 23.96875 65.921875 18.8125 64.3125 
Q 13.671875 62.703125 7.8125 59.421875 
L 7.8125 69.390625 
Q 13.765625 71.78125 18.9375 73 
Q 24.125 74.21875 28.421875 74.21875 
Q 39.75 74.21875 46.484375 68.546875 
Q 53.21875 62.890625 53.21875 53.421875 
Q 53.21875 48.921875 51.53125 44.890625 
Q 49.859375 40.875 45.40625 35.40625 
Q 44.1875 33.984375 37.640625 27.21875 
Q 31.109375 20.453125 19.1875 8.296875 
z
" id="DejaVuSans-50"/>
      </defs>
      <g transform="translate(0.34375 127.162326)scale(0.2 -0.2)">
       <use xlink:href="#DejaVuSans-48"/>
       <use x="63.623047" xlink:href="#DejaVuSans-46"/>
       <use x="95.410156" xlink:href="#DejaVuSans-50"/>
       <use x="159.033203" xlink:href="#DejaVuSans-48"/>
      </g>
     </g>
    </g>
    <g id="ytick_6">
     <g id="line2d_11">
      <g>
       <use style="stroke:#000000;stroke-width:1.6;" x="59.575" xlink:href="#m438af061f9" y="68.088194"/>
      </g>
     </g>
     <g id="text_11">
      <!-- 0.25 -->
      <g transform="translate(0.34375 75.686632)scale(0.2 -0.2)">
       <use xlink:href="#DejaVuSans-48"/>
       <use x="63.623047" xlink:href="#DejaVuSans-46"/>
       <use x="95.410156" xlink:href="#DejaVuSans-50"/>
       <use x="159.033203" xlink:href="#DejaVuSans-53"/>
      </g>
     </g>
    </g>
    <g id="ytick_7">
     <g id="line2d_12">
      <g>
       <use style="stroke:#000000;stroke-width:1.6;" x="59.575" xlink:href="#m438af061f9" y="16.612499"/>
      </g>
     </g>
     <g id="text_12">
      <!-- 0.30 -->
      <defs>
       <path d="M 40.578125 39.3125 
Q 47.65625 37.796875 51.625 33 
Q 55.609375 28.21875 55.609375 21.1875 
Q 55.609375 10.40625 48.1875 4.484375 
Q 40.765625 -1.421875 27.09375 -1.421875 
Q 22.515625 -1.421875 17.65625 -0.515625 
Q 12.796875 0.390625 7.625 2.203125 
L 7.625 11.71875 
Q 11.71875 9.328125 16.59375 8.109375 
Q 21.484375 6.890625 26.8125 6.890625 
Q 36.078125 6.890625 40.9375 10.546875 
Q 45.796875 14.203125 45.796875 21.1875 
Q 45.796875 27.640625 41.28125 31.265625 
Q 36.765625 34.90625 28.71875 34.90625 
L 20.21875 34.90625 
L 20.21875 43.015625 
L 29.109375 43.015625 
Q 36.375 43.015625 40.234375 45.921875 
Q 44.09375 48.828125 44.09375 54.296875 
Q 44.09375 59.90625 40.109375 62.90625 
Q 36.140625 65.921875 28.71875 65.921875 
Q 24.65625 65.921875 20.015625 65.03125 
Q 15.375 64.15625 9.8125 62.3125 
L 9.8125 71.09375 
Q 15.4375 72.65625 20.34375 73.4375 
Q 25.25 74.21875 29.59375 74.21875 
Q 40.828125 74.21875 47.359375 69.109375 
Q 53.90625 64.015625 53.90625 55.328125 
Q 53.90625 49.265625 50.4375 45.09375 
Q 46.96875 40.921875 40.578125 39.3125 
z
" id="DejaVuSans-51"/>
      </defs>
      <g transform="translate(0.34375 24.210937)scale(0.2 -0.2)">
       <use xlink:href="#DejaVuSans-48"/>
       <use x="63.623047" xlink:href="#DejaVuSans-46"/>
       <use x="95.410156" xlink:href="#DejaVuSans-51"/>
       <use x="159.033203" xlink:href="#DejaVuSans-48"/>
      </g>
     </g>
    </g>
   </g>
   <g id="patch_93">
    <path d="M 59.575 325.466667 
L 59.575 3.5 
" style="fill:none;stroke:#000000;stroke-linecap:square;stroke-linejoin:miter;stroke-width:0.8;"/>
   </g>
   <g id="patch_94">
    <path d="M 59.575 325.466667 
L 381.541667 325.466667 
" style="fill:none;stroke:#000000;stroke-linecap:square;stroke-linejoin:miter;stroke-width:0.8;"/>
   </g>
  </g>
 </g>
 <defs>
  <clipPath id="p8bc50b3f72">
   <rect height="321.966667" width="321.966667" x="59.575" y="3.5"/>
  </clipPath>
 </defs>
</svg>
