<?xml version="1.0" encoding="utf-8" standalone="no"?>
<!DOCTYPE svg PUBLIC "-//W3C//DTD SVG 1.1//EN"
  "http://www.w3.org/Graphics/SVG/1.1/DTD/svg11.dtd">
<!-- Created with matplotlib (https://matplotlib.org/) -->
<svg height="336.061667pt" version="1.1" viewBox="0 0 329.936667 336.061667" width="329.936667pt" xmlns="http://www.w3.org/2000/svg" xmlns:xlink="http://www.w3.org/1999/xlink">
 <defs>
  <style type="text/css">
*{stroke-linecap:butt;stroke-linejoin:round;}
  </style>
 </defs>
 <g id="figure_1">
  <g id="patch_1">
   <path d="M 0 336.061667 
L 329.936667 336.061667 
L 329.936667 0 
L 0 0 
z
" style="fill:#ffffff;"/>
  </g>
  <g id="axes_1">
   <g id="patch_2">
    <path d="M 27.575 302.361667 
L 326.436667 302.361667 
L 326.436667 3.5 
L 27.575 3.5 
z
" style="fill:#ffffff;"/>
   </g>
   <g id="matplotlib.axis_1">
    <g id="xtick_1">
     <g id="line2d_1">
      <defs>
       <path d="M 0 0 
L 0 3.5 
" id="m408d283f40" style="stroke:#000000;stroke-width:1.6;"/>
      </defs>
      <g>
       <use style="stroke:#000000;stroke-width:1.6;" x="44.264647" xlink:href="#m408d283f40" y="302.361667"/>
      </g>
     </g>
     <g id="text_1">
      <!-- −0.5 -->
      <defs>
       <path d="M 10.59375 35.5 
L 73.1875 35.5 
L 73.1875 27.203125 
L 10.59375 27.203125 
z
" id="DejaVuSans-8722"/>
       <path d="M 31.78125 66.40625 
Q 24.171875 66.40625 20.328125 58.90625 
Q 16.5 51.421875 16.5 36.375 
Q 16.5 21.390625 20.328125 13.890625 
Q 24.171875 6.390625 31.78125 6.390625 
Q 39.453125 6.390625 43.28125 13.890625 
Q 47.125 21.390625 47.125 36.375 
Q 47.125 51.421875 43.28125 58.90625 
Q 39.453125 66.40625 31.78125 66.40625 
z
M 31.78125 74.21875 
Q 44.046875 74.21875 50.515625 64.515625 
Q 56.984375 54.828125 56.984375 36.375 
Q 56.984375 17.96875 50.515625 8.265625 
Q 44.046875 -1.421875 31.78125 -1.421875 
Q 19.53125 -1.421875 13.0625 8.265625 
Q 6.59375 17.96875 6.59375 36.375 
Q 6.59375 54.828125 13.0625 64.515625 
Q 19.53125 74.21875 31.78125 74.21875 
z
" id="DejaVuSans-48"/>
       <path d="M 10.6875 12.40625 
L 21 12.40625 
L 21 0 
L 10.6875 0 
z
" id="DejaVuSans-46"/>
       <path d="M 10.796875 72.90625 
L 49.515625 72.90625 
L 49.515625 64.59375 
L 19.828125 64.59375 
L 19.828125 46.734375 
Q 21.96875 47.46875 24.109375 47.828125 
Q 26.265625 48.1875 28.421875 48.1875 
Q 40.625 48.1875 47.75 41.5 
Q 54.890625 34.8125 54.890625 23.390625 
Q 54.890625 11.625 47.5625 5.09375 
Q 40.234375 -1.421875 26.90625 -1.421875 
Q 22.3125 -1.421875 17.546875 -0.640625 
Q 12.796875 0.140625 7.71875 1.703125 
L 7.71875 11.625 
Q 12.109375 9.234375 16.796875 8.0625 
Q 21.484375 6.890625 26.703125 6.890625 
Q 35.15625 6.890625 40.078125 11.328125 
Q 45.015625 15.765625 45.015625 23.390625 
Q 45.015625 31 40.078125 35.4375 
Q 35.15625 39.890625 26.703125 39.890625 
Q 22.75 39.890625 18.8125 39.015625 
Q 14.890625 38.140625 10.796875 36.28125 
z
" id="DejaVuSans-53"/>
      </defs>
      <g transform="translate(19.981835 332.258542)scale(0.2 -0.2)">
       <use xlink:href="#DejaVuSans-8722"/>
       <use x="83.789062" xlink:href="#DejaVuSans-48"/>
       <use x="147.412109" xlink:href="#DejaVuSans-46"/>
       <use x="179.199219" xlink:href="#DejaVuSans-53"/>
      </g>
     </g>
    </g>
    <g id="xtick_2">
     <g id="line2d_2">
      <g>
       <use style="stroke:#000000;stroke-width:1.6;" x="124.603613" xlink:href="#m408d283f40" y="302.361667"/>
      </g>
     </g>
     <g id="text_2">
      <!-- 0.0 -->
      <g transform="translate(108.700488 332.258542)scale(0.2 -0.2)">
       <use xlink:href="#DejaVuSans-48"/>
       <use x="63.623047" xlink:href="#DejaVuSans-46"/>
       <use x="95.410156" xlink:href="#DejaVuSans-48"/>
      </g>
     </g>
    </g>
    <g id="xtick_3">
     <g id="line2d_3">
      <g>
       <use style="stroke:#000000;stroke-width:1.6;" x="204.942578" xlink:href="#m408d283f40" y="302.361667"/>
      </g>
     </g>
     <g id="text_3">
      <!-- 0.5 -->
      <g transform="translate(189.039453 332.258542)scale(0.2 -0.2)">
       <use xlink:href="#DejaVuSans-48"/>
       <use x="63.623047" xlink:href="#DejaVuSans-46"/>
       <use x="95.410156" xlink:href="#DejaVuSans-53"/>
      </g>
     </g>
    </g>
    <g id="xtick_4">
     <g id="line2d_4">
      <g>
       <use style="stroke:#000000;stroke-width:1.6;" x="285.281543" xlink:href="#m408d283f40" y="302.361667"/>
      </g>
     </g>
     <g id="text_4">
      <!-- 1.0 -->
      <defs>
       <path d="M 12.40625 8.296875 
L 28.515625 8.296875 
L 28.515625 63.921875 
L 10.984375 60.40625 
L 10.984375 69.390625 
L 28.421875 72.90625 
L 38.28125 72.90625 
L 38.28125 8.296875 
L 54.390625 8.296875 
L 54.390625 0 
L 12.40625 0 
z
" id="DejaVuSans-49"/>
      </defs>
      <g transform="translate(269.378418 332.258542)scale(0.2 -0.2)">
       <use xlink:href="#DejaVuSans-49"/>
       <use x="63.623047" xlink:href="#DejaVuSans-46"/>
       <use x="95.410156" xlink:href="#DejaVuSans-48"/>
      </g>
     </g>
    </g>
   </g>
   <g id="matplotlib.axis_2">
    <g id="ytick_1">
     <g id="line2d_5">
      <defs>
       <path d="M 0 0 
L -3.5 0 
" id="mce19625eb6" style="stroke:#000000;stroke-width:1.6;"/>
      </defs>
      <g>
       <use style="stroke:#000000;stroke-width:1.6;" x="27.575" xlink:href="#mce19625eb6" y="302.361667"/>
      </g>
     </g>
     <g id="text_5">
      <!-- 0 -->
      <g transform="translate(0.15 309.960104)scale(0.2 -0.2)">
       <use xlink:href="#DejaVuSans-48"/>
      </g>
     </g>
    </g>
    <g id="ytick_2">
     <g id="line2d_6">
      <g>
       <use style="stroke:#000000;stroke-width:1.6;" x="27.575" xlink:href="#mce19625eb6" y="235.20375"/>
      </g>
     </g>
     <g id="text_6">
      <!-- 1 -->
      <g transform="translate(0.15 242.802188)scale(0.2 -0.2)">
       <use xlink:href="#DejaVuSans-49"/>
      </g>
     </g>
    </g>
    <g id="ytick_3">
     <g id="line2d_7">
      <g>
       <use style="stroke:#000000;stroke-width:1.6;" x="27.575" xlink:href="#mce19625eb6" y="168.045834"/>
      </g>
     </g>
     <g id="text_7">
      <!-- 2 -->
      <defs>
       <path d="M 19.1875 8.296875 
L 53.609375 8.296875 
L 53.609375 0 
L 7.328125 0 
L 7.328125 8.296875 
Q 12.9375 14.109375 22.625 23.890625 
Q 32.328125 33.6875 34.8125 36.53125 
Q 39.546875 41.84375 41.421875 45.53125 
Q 43.3125 49.21875 43.3125 52.78125 
Q 43.3125 58.59375 39.234375 62.25 
Q 35.15625 65.921875 28.609375 65.921875 
Q 23.96875 65.921875 18.8125 64.3125 
Q 13.671875 62.703125 7.8125 59.421875 
L 7.8125 69.390625 
Q 13.765625 71.78125 18.9375 73 
Q 24.125 74.21875 28.421875 74.21875 
Q 39.75 74.21875 46.484375 68.546875 
Q 53.21875 62.890625 53.21875 53.421875 
Q 53.21875 48.921875 51.53125 44.890625 
Q 49.859375 40.875 45.40625 35.40625 
Q 44.1875 33.984375 37.640625 27.21875 
Q 31.109375 20.453125 19.1875 8.296875 
z
" id="DejaVuSans-50"/>
      </defs>
      <g transform="translate(0.15 175.644271)scale(0.2 -0.2)">
       <use xlink:href="#DejaVuSans-50"/>
      </g>
     </g>
    </g>
    <g id="ytick_4">
     <g id="line2d_8">
      <g>
       <use style="stroke:#000000;stroke-width:1.6;" x="27.575" xlink:href="#mce19625eb6" y="100.887917"/>
      </g>
     </g>
     <g id="text_8">
      <!-- 3 -->
      <defs>
       <path d="M 40.578125 39.3125 
Q 47.65625 37.796875 51.625 33 
Q 55.609375 28.21875 55.609375 21.1875 
Q 55.609375 10.40625 48.1875 4.484375 
Q 40.765625 -1.421875 27.09375 -1.421875 
Q 22.515625 -1.421875 17.65625 -0.515625 
Q 12.796875 0.390625 7.625 2.203125 
L 7.625 11.71875 
Q 11.71875 9.328125 16.59375 8.109375 
Q 21.484375 6.890625 26.8125 6.890625 
Q 36.078125 6.890625 40.9375 10.546875 
Q 45.796875 14.203125 45.796875 21.1875 
Q 45.796875 27.640625 41.28125 31.265625 
Q 36.765625 34.90625 28.71875 34.90625 
L 20.21875 34.90625 
L 20.21875 43.015625 
L 29.109375 43.015625 
Q 36.375 43.015625 40.234375 45.921875 
Q 44.09375 48.828125 44.09375 54.296875 
Q 44.09375 59.90625 40.109375 62.90625 
Q 36.140625 65.921875 28.71875 65.921875 
Q 24.65625 65.921875 20.015625 65.03125 
Q 15.375 64.15625 9.8125 62.3125 
L 9.8125 71.09375 
Q 15.4375 72.65625 20.34375 73.4375 
Q 25.25 74.21875 29.59375 74.21875 
Q 40.828125 74.21875 47.359375 69.109375 
Q 53.90625 64.015625 53.90625 55.328125 
Q 53.90625 49.265625 50.4375 45.09375 
Q 46.96875 40.921875 40.578125 39.3125 
z
" id="DejaVuSans-51"/>
      </defs>
      <g transform="translate(0.15 108.486355)scale(0.2 -0.2)">
       <use xlink:href="#DejaVuSans-51"/>
      </g>
     </g>
    </g>
    <g id="ytick_5">
     <g id="line2d_9">
      <g>
       <use style="stroke:#000000;stroke-width:1.6;" x="27.575" xlink:href="#mce19625eb6" y="33.730001"/>
      </g>
     </g>
     <g id="text_9">
      <!-- 4 -->
      <defs>
       <path d="M 37.796875 64.3125 
L 12.890625 25.390625 
L 37.796875 25.390625 
z
M 35.203125 72.90625 
L 47.609375 72.90625 
L 47.609375 25.390625 
L 58.015625 25.390625 
L 58.015625 17.1875 
L 47.609375 17.1875 
L 47.609375 0 
L 37.796875 0 
L 37.796875 17.1875 
L 4.890625 17.1875 
L 4.890625 26.703125 
z
" id="DejaVuSans-52"/>
      </defs>
      <g transform="translate(0.15 41.328439)scale(0.2 -0.2)">
       <use xlink:href="#DejaVuSans-52"/>
      </g>
     </g>
    </g>
   </g>
   <g id="line2d_10">
    <path clip-path="url(#pd68ff64467)" d="M 75.61603 302.306093 
L 78.06393 302.184487 
L 80.51183 301.792974 
L 81.735781 301.424575 
L 82.959731 300.905486 
L 84.183681 300.226934 
L 86.631581 298.497269 
L 89.079481 296.755464 
L 90.303431 296.12475 
L 91.527381 295.764012 
L 92.751331 295.707548 
L 93.975281 295.938136 
L 96.423181 296.954836 
L 97.647132 297.511018 
L 98.871082 297.932622 
L 100.095032 298.113859 
L 101.318982 297.981934 
L 102.542932 297.503234 
L 103.766882 296.679929 
L 104.990832 295.537661 
L 106.214782 294.108199 
L 107.438732 292.413385 
L 108.662682 290.456544 
L 109.886632 288.224334 
L 111.110582 285.697303 
L 112.334532 282.863798 
L 114.782433 276.33446 
L 120.902183 258.494546 
L 122.126133 255.664964 
L 123.350083 253.349261 
L 124.574033 251.53485 
L 127.021933 248.689877 
L 128.245883 246.933507 
L 129.469833 244.269617 
L 130.693784 240.114106 
L 131.917734 233.91832 
L 133.141684 225.250411 
L 134.365634 213.862007 
L 135.589584 199.726814 
L 136.813534 183.046694 
L 139.261434 143.868188 
L 142.933284 81.285519 
L 144.157234 62.878902 
L 145.381184 47.105502 
L 146.605134 34.558351 
L 147.829085 25.535758 
L 149.053035 20.019231 
L 150.276985 17.730247 
L 151.500935 18.247262 
L 152.724885 21.135193 
L 153.948835 26.03462 
L 155.172785 32.681684 
L 156.396735 40.868593 
L 157.620685 50.385172 
L 160.068585 72.400235 
L 163.740436 109.338134 
L 168.636236 159.754052 
L 171.084136 182.151161 
L 173.532036 201.008335 
L 174.755986 209.141793 
L 175.979936 216.494012 
L 177.203886 223.101292 
L 178.427836 228.983476 
L 179.651787 234.18172 
L 182.099687 242.980688 
L 185.771537 254.51889 
L 188.219437 261.430692 
L 189.443387 264.249529 
L 190.667337 266.491187 
L 191.891287 268.179031 
L 193.115237 269.455333 
L 195.563137 271.651132 
L 196.787088 272.979106 
L 198.011038 274.626269 
L 199.234988 276.621092 
L 200.458938 278.93246 
L 202.906838 284.203019 
L 205.354738 289.640807 
L 206.578688 292.121689 
L 207.802638 294.28964 
L 209.026588 296.061166 
L 210.250538 297.398774 
L 211.474488 298.319443 
L 212.698439 298.891117 
L 213.922389 299.217202 
L 218.818189 300.077076 
L 224.937939 301.806432 
L 227.385839 302.154917 
L 231.05769 302.313714 
L 231.05769 302.313714 
" style="fill:none;stroke:#000000;stroke-linecap:square;stroke-width:2;"/>
   </g>
   <g id="line2d_11">
    <path clip-path="url(#pd68ff64467)" d="M 41.159621 302.334818 
L 47.954543 302.213836 
L 53.050735 301.867925 
L 56.448196 301.425955 
L 59.845657 300.788763 
L 64.941849 299.528342 
L 70.038041 298.033787 
L 73.435502 296.871604 
L 76.832963 295.395759 
L 78.531694 294.464937 
L 80.230424 293.367535 
L 81.929155 292.085119 
L 83.627885 290.611535 
L 85.326616 288.952971 
L 88.724077 285.140704 
L 92.121538 280.721514 
L 93.820269 278.239728 
L 95.518999 275.501789 
L 97.21773 272.41977 
L 98.916461 268.888031 
L 100.615191 264.794354 
L 102.313922 260.033445 
L 104.012652 254.521221 
L 105.711383 248.208359 
L 107.410113 241.091547 
L 109.108844 233.220876 
L 112.506305 215.691225 
L 119.301227 178.966641 
L 120.999958 170.73046 
L 122.698689 163.269097 
L 124.397419 156.737157 
L 126.09615 151.260559 
L 127.79488 146.933899 
L 129.493611 143.81507 
L 131.192341 141.91791 
L 132.891072 141.20555 
L 134.589803 141.587723 
L 136.288533 142.9243 
L 137.987264 145.035164 
L 139.685994 147.714484 
L 143.083455 153.92036 
L 146.480917 159.957361 
L 148.179647 162.5461 
L 149.878378 164.756733 
L 151.577108 166.608829 
L 156.6733 171.331782 
L 158.372031 173.327781 
L 160.070761 175.900777 
L 161.769492 179.199946 
L 163.468222 183.287404 
L 165.166953 188.132105 
L 166.865683 193.623035 
L 170.263145 205.870123 
L 175.359336 224.911081 
L 178.756797 236.757539 
L 182.154259 247.379287 
L 183.852989 252.132774 
L 185.55172 256.480632 
L 187.25045 260.419339 
L 188.949181 263.968888 
L 190.647911 267.172244 
L 194.045373 272.785864 
L 197.442834 277.750334 
L 200.840295 282.365081 
L 204.237756 286.66383 
L 207.635217 290.544173 
L 211.032678 293.894699 
L 212.731409 295.340135 
L 214.430139 296.615647 
L 216.12887 297.709814 
L 217.827601 298.615009 
L 219.526331 299.330484 
L 221.225062 299.864853 
L 222.923792 300.237076 
L 226.321253 300.615009 
L 236.513637 301.121659 
L 248.404751 302.157138 
L 255.199673 302.32647 
L 256.898404 302.335186 
L 256.898404 302.335186 
" style="fill:none;stroke:#000000;stroke-dasharray:7.4,3.2;stroke-dashoffset:0;stroke-width:2;"/>
   </g>
   <g id="line2d_12">
    <path clip-path="url(#pd68ff64467)" d="M 107.744973 302.31778 
L 112.590022 302.203013 
L 115.820054 301.988004 
L 119.050087 301.565751 
L 122.280119 300.834181 
L 125.510152 299.712615 
L 128.740185 298.190042 
L 131.970217 296.354921 
L 143.275332 289.371809 
L 144.890348 288.237416 
L 146.505364 286.950804 
L 148.120381 285.448883 
L 149.735397 283.669384 
L 151.350413 281.55708 
L 152.96543 279.069454 
L 154.580446 276.181118 
L 156.195462 272.886457 
L 157.810479 269.200169 
L 159.425495 265.155631 
L 162.655528 256.19574 
L 167.500576 241.488872 
L 173.960642 221.686505 
L 177.190674 212.426626 
L 180.420707 204.117432 
L 182.035723 200.473608 
L 183.65074 197.244203 
L 185.265756 194.46369 
L 186.880772 192.139986 
L 188.495789 190.250124 
L 190.110805 188.740823 
L 191.725821 187.534165 
L 194.955854 185.655479 
L 198.185887 183.912828 
L 201.415919 181.888321 
L 206.260968 178.36037 
L 209.491001 176.074166 
L 212.721034 174.155955 
L 214.33605 173.393087 
L 215.951066 172.789317 
L 217.566082 172.371685 
L 219.181099 172.175634 
L 220.796115 172.245132 
L 222.411131 172.629612 
L 224.026148 173.378089 
L 225.641164 174.531644 
L 227.25618 176.115981 
L 228.871197 178.135932 
L 230.486213 180.57346 
L 232.101229 183.389982 
L 233.716246 186.532835 
L 236.946278 193.574267 
L 240.176311 201.362597 
L 243.406344 209.865333 
L 246.636376 219.314087 
L 249.866409 229.920575 
L 253.096442 241.551173 
L 257.941491 259.491578 
L 261.171523 270.427047 
L 262.786539 275.276078 
L 264.401556 279.627557 
L 266.016572 283.454147 
L 267.631588 286.755775 
L 269.246605 289.554821 
L 270.861621 291.889952 
L 272.476637 293.809836 
L 274.091654 295.367689 
L 275.70667 296.61716 
L 277.321686 297.609645 
L 278.936703 298.392767 
L 280.551719 299.009602 
L 283.781752 299.891578 
L 287.011784 300.495098 
L 293.47185 301.371946 
L 298.316899 301.854849 
L 303.161948 302.155856 
L 309.622013 302.314504 
L 312.852045 302.326301 
L 312.852045 302.326301 
" style="fill:none;stroke:#000000;stroke-dasharray:2,3.3;stroke-dashoffset:0;stroke-width:2;"/>
   </g>
   <g id="patch_3">
    <path d="M 27.575 302.361667 
L 27.575 3.5 
" style="fill:none;stroke:#000000;stroke-linecap:square;stroke-linejoin:miter;stroke-width:0.8;"/>
   </g>
   <g id="patch_4">
    <path d="M 27.575 302.361667 
L 326.436667 302.361667 
" style="fill:none;stroke:#000000;stroke-linecap:square;stroke-linejoin:miter;stroke-width:0.8;"/>
   </g>
  </g>
  <g id="axes_2">
   <g id="patch_5">
    <path d="M 387.796667 302.361667 
L 686.658333 302.361667 
L 686.658333 3.5 
L 387.796667 3.5 
z
" style="fill:#ffffff;"/>
   </g>
   <g id="matplotlib.axis_3">
    <g id="xtick_5">
     <g id="line2d_13">
      <g>
       <use style="stroke:#000000;stroke-width:1.6;" x="487.43687" xlink:href="#m408d283f40" y="302.361667"/>
      </g>
     </g>
     <g id="text_10">
      <!-- 0 -->
      <g transform="translate(481.07437 332.258542)scale(0.2 -0.2)">
       <use xlink:href="#DejaVuSans-48"/>
      </g>
     </g>
    </g>
    <g id="xtick_6">
     <g id="line2d_14">
      <g>
       <use style="stroke:#000000;stroke-width:1.6;" x="623.829297" xlink:href="#m408d283f40" y="302.361667"/>
      </g>
     </g>
     <g id="text_11">
      <!-- 1 -->
      <g transform="translate(617.466797 332.258542)scale(0.2 -0.2)">
       <use xlink:href="#DejaVuSans-49"/>
      </g>
     </g>
    </g>
   </g>
   <g id="matplotlib.axis_4">
    <g id="ytick_6">
     <g id="line2d_15">
      <g>
       <use style="stroke:#000000;stroke-width:1.6;" x="387.796667" xlink:href="#mce19625eb6" y="302.361667"/>
      </g>
     </g>
     <g id="text_12">
      <!-- 0.0 -->
      <g transform="translate(341.290417 309.960104)scale(0.2 -0.2)">
       <use xlink:href="#DejaVuSans-48"/>
       <use x="63.623047" xlink:href="#DejaVuSans-46"/>
       <use x="95.410156" xlink:href="#DejaVuSans-48"/>
      </g>
     </g>
    </g>
    <g id="ytick_7">
     <g id="line2d_16">
      <g>
       <use style="stroke:#000000;stroke-width:1.6;" x="387.796667" xlink:href="#mce19625eb6" y="218.490397"/>
      </g>
     </g>
     <g id="text_13">
      <!-- 0.5 -->
      <g transform="translate(341.290417 226.088834)scale(0.2 -0.2)">
       <use xlink:href="#DejaVuSans-48"/>
       <use x="63.623047" xlink:href="#DejaVuSans-46"/>
       <use x="95.410156" xlink:href="#DejaVuSans-53"/>
      </g>
     </g>
    </g>
    <g id="ytick_8">
     <g id="line2d_17">
      <g>
       <use style="stroke:#000000;stroke-width:1.6;" x="387.796667" xlink:href="#mce19625eb6" y="134.619127"/>
      </g>
     </g>
     <g id="text_14">
      <!-- 1.0 -->
      <g transform="translate(341.290417 142.217564)scale(0.2 -0.2)">
       <use xlink:href="#DejaVuSans-49"/>
       <use x="63.623047" xlink:href="#DejaVuSans-46"/>
       <use x="95.410156" xlink:href="#DejaVuSans-48"/>
      </g>
     </g>
    </g>
    <g id="ytick_9">
     <g id="line2d_18">
      <g>
       <use style="stroke:#000000;stroke-width:1.6;" x="387.796667" xlink:href="#mce19625eb6" y="50.747856"/>
      </g>
     </g>
     <g id="text_15">
      <!-- 1.5 -->
      <g transform="translate(341.290417 58.346294)scale(0.2 -0.2)">
       <use xlink:href="#DejaVuSans-49"/>
       <use x="63.623047" xlink:href="#DejaVuSans-46"/>
       <use x="95.410156" xlink:href="#DejaVuSans-53"/>
      </g>
     </g>
    </g>
   </g>
   <g id="line2d_19">
    <path clip-path="url(#pa6f01fd1e8)" d="M 0 0 
" style="fill:none;stroke:#000000;stroke-linecap:square;stroke-width:2;"/>
   </g>
   <g id="line2d_20">
    <path clip-path="url(#pa6f01fd1e8)" d="M 0 0 
" style="fill:none;stroke:#000000;stroke-dasharray:7.4,3.2;stroke-dashoffset:0;stroke-width:2;"/>
   </g>
   <g id="patch_6">
    <path style="fill:none;stroke:#000000;stroke-linecap:square;stroke-linejoin:miter;stroke-width:0.8;"/>
   </g>
   <g id="patch_7">
    <path style="fill:none;stroke:#000000;stroke-linecap:square;stroke-linejoin:miter;stroke-width:0.8;"/>
   </g>
  </g>
 </g>
 <defs>
  <clipPath id="pd68ff64467">
   <rect height="298.861667" width="298.861667" x="27.575" y="3.5"/>
  </clipPath>
  <clipPath id="pa6f01fd1e8">
   <rect height="298.861667" width="298.861667" x="387.796667" y="3.5"/>
  </clipPath>
 </defs>
</svg>
