<?xml version="1.0" encoding="utf-8" standalone="no"?>
<!DOCTYPE svg PUBLIC "-//W3C//DTD SVG 1.1//EN"
  "http://www.w3.org/Graphics/SVG/1.1/DTD/svg11.dtd">
<!-- Created with matplotlib (https://matplotlib.org/) -->
<svg height="348.811667pt" version="1.1" viewBox="0 0 342.686667 348.811667" width="342.686667pt" xmlns="http://www.w3.org/2000/svg" xmlns:xlink="http://www.w3.org/1999/xlink">
 <defs>
  <style type="text/css">
*{stroke-linecap:butt;stroke-linejoin:round;}
  </style>
 </defs>
 <g id="figure_1">
  <g id="patch_1">
   <path d="M 0 348.811667 
L 342.686667 348.811667 
L 342.686667 0 
L 0 0 
z
" style="fill:#ffffff;"/>
  </g>
  <g id="axes_1">
   <g id="patch_2">
    <path d="M 27.575 315.111667 
L 339.186667 315.111667 
L 339.186667 3.5 
L 27.575 3.5 
z
" style="fill:#ffffff;"/>
   </g>
   <g id="matplotlib.axis_1">
    <g id="xtick_1">
     <g id="line2d_1">
      <defs>
       <path d="M 0 0 
L 0 3.5 
" id="m1a87669571" style="stroke:#000000;stroke-width:1.6;"/>
      </defs>
      <g>
       <use style="stroke:#000000;stroke-width:1.6;" x="96.766377" xlink:href="#m1a87669571" y="315.111667"/>
      </g>
     </g>
     <g id="text_1">
      <!-- 0.0 -->
      <defs>
       <path d="M 31.78125 66.40625 
Q 24.171875 66.40625 20.328125 58.90625 
Q 16.5 51.421875 16.5 36.375 
Q 16.5 21.390625 20.328125 13.890625 
Q 24.171875 6.390625 31.78125 6.390625 
Q 39.453125 6.390625 43.28125 13.890625 
Q 47.125 21.390625 47.125 36.375 
Q 47.125 51.421875 43.28125 58.90625 
Q 39.453125 66.40625 31.78125 66.40625 
z
M 31.78125 74.21875 
Q 44.046875 74.21875 50.515625 64.515625 
Q 56.984375 54.828125 56.984375 36.375 
Q 56.984375 17.96875 50.515625 8.265625 
Q 44.046875 -1.421875 31.78125 -1.421875 
Q 19.53125 -1.421875 13.0625 8.265625 
Q 6.59375 17.96875 6.59375 36.375 
Q 6.59375 54.828125 13.0625 64.515625 
Q 19.53125 74.21875 31.78125 74.21875 
z
" id="DejaVuSans-48"/>
       <path d="M 10.6875 12.40625 
L 21 12.40625 
L 21 0 
L 10.6875 0 
z
" id="DejaVuSans-46"/>
      </defs>
      <g transform="translate(80.863252 345.008542)scale(0.2 -0.2)">
       <use xlink:href="#DejaVuSans-48"/>
       <use x="63.623047" xlink:href="#DejaVuSans-46"/>
       <use x="95.410156" xlink:href="#DejaVuSans-48"/>
      </g>
     </g>
    </g>
    <g id="xtick_2">
     <g id="line2d_2">
      <g>
       <use style="stroke:#000000;stroke-width:1.6;" x="205.785766" xlink:href="#m1a87669571" y="315.111667"/>
      </g>
     </g>
     <g id="text_2">
      <!-- 0.5 -->
      <defs>
       <path d="M 10.796875 72.90625 
L 49.515625 72.90625 
L 49.515625 64.59375 
L 19.828125 64.59375 
L 19.828125 46.734375 
Q 21.96875 47.46875 24.109375 47.828125 
Q 26.265625 48.1875 28.421875 48.1875 
Q 40.625 48.1875 47.75 41.5 
Q 54.890625 34.8125 54.890625 23.390625 
Q 54.890625 11.625 47.5625 5.09375 
Q 40.234375 -1.421875 26.90625 -1.421875 
Q 22.3125 -1.421875 17.546875 -0.640625 
Q 12.796875 0.140625 7.71875 1.703125 
L 7.71875 11.625 
Q 12.109375 9.234375 16.796875 8.0625 
Q 21.484375 6.890625 26.703125 6.890625 
Q 35.15625 6.890625 40.078125 11.328125 
Q 45.015625 15.765625 45.015625 23.390625 
Q 45.015625 31 40.078125 35.4375 
Q 35.15625 39.890625 26.703125 39.890625 
Q 22.75 39.890625 18.8125 39.015625 
Q 14.890625 38.140625 10.796875 36.28125 
z
" id="DejaVuSans-53"/>
      </defs>
      <g transform="translate(189.882641 345.008542)scale(0.2 -0.2)">
       <use xlink:href="#DejaVuSans-48"/>
       <use x="63.623047" xlink:href="#DejaVuSans-46"/>
       <use x="95.410156" xlink:href="#DejaVuSans-53"/>
      </g>
     </g>
    </g>
    <g id="xtick_3">
     <g id="line2d_3">
      <g>
       <use style="stroke:#000000;stroke-width:1.6;" x="314.805156" xlink:href="#m1a87669571" y="315.111667"/>
      </g>
     </g>
     <g id="text_3">
      <!-- 1.0 -->
      <defs>
       <path d="M 12.40625 8.296875 
L 28.515625 8.296875 
L 28.515625 63.921875 
L 10.984375 60.40625 
L 10.984375 69.390625 
L 28.421875 72.90625 
L 38.28125 72.90625 
L 38.28125 8.296875 
L 54.390625 8.296875 
L 54.390625 0 
L 12.40625 0 
z
" id="DejaVuSans-49"/>
      </defs>
      <g transform="translate(298.902031 345.008542)scale(0.2 -0.2)">
       <use xlink:href="#DejaVuSans-49"/>
       <use x="63.623047" xlink:href="#DejaVuSans-46"/>
       <use x="95.410156" xlink:href="#DejaVuSans-48"/>
      </g>
     </g>
    </g>
   </g>
   <g id="matplotlib.axis_2">
    <g id="ytick_1">
     <g id="line2d_4">
      <defs>
       <path d="M 0 0 
L -3.5 0 
" id="m58d0a3199f" style="stroke:#000000;stroke-width:1.6;"/>
      </defs>
      <g>
       <use style="stroke:#000000;stroke-width:1.6;" x="27.575" xlink:href="#m58d0a3199f" y="315.111667"/>
      </g>
     </g>
     <g id="text_4">
      <!-- 0 -->
      <g transform="translate(0.15 322.710104)scale(0.2 -0.2)">
       <use xlink:href="#DejaVuSans-48"/>
      </g>
     </g>
    </g>
    <g id="ytick_2">
     <g id="line2d_5">
      <g>
       <use style="stroke:#000000;stroke-width:1.6;" x="27.575" xlink:href="#m58d0a3199f" y="264.0639"/>
      </g>
     </g>
     <g id="text_5">
      <!-- 1 -->
      <g transform="translate(0.15 271.662337)scale(0.2 -0.2)">
       <use xlink:href="#DejaVuSans-49"/>
      </g>
     </g>
    </g>
    <g id="ytick_3">
     <g id="line2d_6">
      <g>
       <use style="stroke:#000000;stroke-width:1.6;" x="27.575" xlink:href="#m58d0a3199f" y="213.016132"/>
      </g>
     </g>
     <g id="text_6">
      <!-- 2 -->
      <defs>
       <path d="M 19.1875 8.296875 
L 53.609375 8.296875 
L 53.609375 0 
L 7.328125 0 
L 7.328125 8.296875 
Q 12.9375 14.109375 22.625 23.890625 
Q 32.328125 33.6875 34.8125 36.53125 
Q 39.546875 41.84375 41.421875 45.53125 
Q 43.3125 49.21875 43.3125 52.78125 
Q 43.3125 58.59375 39.234375 62.25 
Q 35.15625 65.921875 28.609375 65.921875 
Q 23.96875 65.921875 18.8125 64.3125 
Q 13.671875 62.703125 7.8125 59.421875 
L 7.8125 69.390625 
Q 13.765625 71.78125 18.9375 73 
Q 24.125 74.21875 28.421875 74.21875 
Q 39.75 74.21875 46.484375 68.546875 
Q 53.21875 62.890625 53.21875 53.421875 
Q 53.21875 48.921875 51.53125 44.890625 
Q 49.859375 40.875 45.40625 35.40625 
Q 44.1875 33.984375 37.640625 27.21875 
Q 31.109375 20.453125 19.1875 8.296875 
z
" id="DejaVuSans-50"/>
      </defs>
      <g transform="translate(0.15 220.61457)scale(0.2 -0.2)">
       <use xlink:href="#DejaVuSans-50"/>
      </g>
     </g>
    </g>
    <g id="ytick_4">
     <g id="line2d_7">
      <g>
       <use style="stroke:#000000;stroke-width:1.6;" x="27.575" xlink:href="#m58d0a3199f" y="161.968365"/>
      </g>
     </g>
     <g id="text_7">
      <!-- 3 -->
      <defs>
       <path d="M 40.578125 39.3125 
Q 47.65625 37.796875 51.625 33 
Q 55.609375 28.21875 55.609375 21.1875 
Q 55.609375 10.40625 48.1875 4.484375 
Q 40.765625 -1.421875 27.09375 -1.421875 
Q 22.515625 -1.421875 17.65625 -0.515625 
Q 12.796875 0.390625 7.625 2.203125 
L 7.625 11.71875 
Q 11.71875 9.328125 16.59375 8.109375 
Q 21.484375 6.890625 26.8125 6.890625 
Q 36.078125 6.890625 40.9375 10.546875 
Q 45.796875 14.203125 45.796875 21.1875 
Q 45.796875 27.640625 41.28125 31.265625 
Q 36.765625 34.90625 28.71875 34.90625 
L 20.21875 34.90625 
L 20.21875 43.015625 
L 29.109375 43.015625 
Q 36.375 43.015625 40.234375 45.921875 
Q 44.09375 48.828125 44.09375 54.296875 
Q 44.09375 59.90625 40.109375 62.90625 
Q 36.140625 65.921875 28.71875 65.921875 
Q 24.65625 65.921875 20.015625 65.03125 
Q 15.375 64.15625 9.8125 62.3125 
L 9.8125 71.09375 
Q 15.4375 72.65625 20.34375 73.4375 
Q 25.25 74.21875 29.59375 74.21875 
Q 40.828125 74.21875 47.359375 69.109375 
Q 53.90625 64.015625 53.90625 55.328125 
Q 53.90625 49.265625 50.4375 45.09375 
Q 46.96875 40.921875 40.578125 39.3125 
z
" id="DejaVuSans-51"/>
      </defs>
      <g transform="translate(0.15 169.566803)scale(0.2 -0.2)">
       <use xlink:href="#DejaVuSans-51"/>
      </g>
     </g>
    </g>
    <g id="ytick_5">
     <g id="line2d_8">
      <g>
       <use style="stroke:#000000;stroke-width:1.6;" x="27.575" xlink:href="#m58d0a3199f" y="110.920598"/>
      </g>
     </g>
     <g id="text_8">
      <!-- 4 -->
      <defs>
       <path d="M 37.796875 64.3125 
L 12.890625 25.390625 
L 37.796875 25.390625 
z
M 35.203125 72.90625 
L 47.609375 72.90625 
L 47.609375 25.390625 
L 58.015625 25.390625 
L 58.015625 17.1875 
L 47.609375 17.1875 
L 47.609375 0 
L 37.796875 0 
L 37.796875 17.1875 
L 4.890625 17.1875 
L 4.890625 26.703125 
z
" id="DejaVuSans-52"/>
      </defs>
      <g transform="translate(0.15 118.519036)scale(0.2 -0.2)">
       <use xlink:href="#DejaVuSans-52"/>
      </g>
     </g>
    </g>
    <g id="ytick_6">
     <g id="line2d_9">
      <g>
       <use style="stroke:#000000;stroke-width:1.6;" x="27.575" xlink:href="#m58d0a3199f" y="59.872831"/>
      </g>
     </g>
     <g id="text_9">
      <!-- 5 -->
      <g transform="translate(0.15 67.471269)scale(0.2 -0.2)">
       <use xlink:href="#DejaVuSans-53"/>
      </g>
     </g>
    </g>
    <g id="ytick_7">
     <g id="line2d_10">
      <g>
       <use style="stroke:#000000;stroke-width:1.6;" x="27.575" xlink:href="#m58d0a3199f" y="8.825064"/>
      </g>
     </g>
     <g id="text_10">
      <!-- 6 -->
      <defs>
       <path d="M 33.015625 40.375 
Q 26.375 40.375 22.484375 35.828125 
Q 18.609375 31.296875 18.609375 23.390625 
Q 18.609375 15.53125 22.484375 10.953125 
Q 26.375 6.390625 33.015625 6.390625 
Q 39.65625 6.390625 43.53125 10.953125 
Q 47.40625 15.53125 47.40625 23.390625 
Q 47.40625 31.296875 43.53125 35.828125 
Q 39.65625 40.375 33.015625 40.375 
z
M 52.59375 71.296875 
L 52.59375 62.3125 
Q 48.875 64.0625 45.09375 64.984375 
Q 41.3125 65.921875 37.59375 65.921875 
Q 27.828125 65.921875 22.671875 59.328125 
Q 17.53125 52.734375 16.796875 39.40625 
Q 19.671875 43.65625 24.015625 45.921875 
Q 28.375 48.1875 33.59375 48.1875 
Q 44.578125 48.1875 50.953125 41.515625 
Q 57.328125 34.859375 57.328125 23.390625 
Q 57.328125 12.15625 50.6875 5.359375 
Q 44.046875 -1.421875 33.015625 -1.421875 
Q 20.359375 -1.421875 13.671875 8.265625 
Q 6.984375 17.96875 6.984375 36.375 
Q 6.984375 53.65625 15.1875 63.9375 
Q 23.390625 74.21875 37.203125 74.21875 
Q 40.921875 74.21875 44.703125 73.484375 
Q 48.484375 72.75 52.59375 71.296875 
z
" id="DejaVuSans-54"/>
      </defs>
      <g transform="translate(0.15 16.423501)scale(0.2 -0.2)">
       <use xlink:href="#DejaVuSans-54"/>
      </g>
     </g>
    </g>
   </g>
   <g id="line2d_11">
    <path clip-path="url(#pd05169bf2e)" d="M 65.675548 315.107371 
L 73.701642 315.021846 
L 85.740781 314.730143 
L 93.766874 314.888499 
L 97.779921 314.757391 
L 109.81906 314.01521 
L 113.832107 313.588726 
L 121.8582 312.443201 
L 125.871247 311.722743 
L 129.884293 310.799541 
L 131.890817 310.190893 
L 133.89734 309.417208 
L 135.903863 308.438154 
L 137.910386 307.248949 
L 141.923433 304.40778 
L 145.936479 301.219383 
L 147.943003 299.403979 
L 149.949526 297.249008 
L 151.956049 294.564487 
L 153.962573 291.193447 
L 155.969096 287.071737 
L 157.975619 282.259527 
L 159.982142 276.922348 
L 163.995189 265.415553 
L 168.008235 253.212797 
L 172.021282 240.044917 
L 176.034329 226.839417 
L 178.040852 220.834665 
L 180.047375 215.39322 
L 188.073468 195.368573 
L 190.079992 189.409253 
L 196.099561 169.729135 
L 198.106085 164.264885 
L 200.112608 160.341678 
L 202.119131 158.305403 
L 204.125654 158.155223 
L 206.132178 159.528988 
L 208.138701 161.817427 
L 212.151748 166.820393 
L 216.164794 171.32822 
L 218.171317 174.00422 
L 220.177841 177.359486 
L 222.184364 181.492765 
L 224.190887 186.348544 
L 226.19741 191.794628 
L 230.210457 203.834386 
L 238.23655 228.626372 
L 246.262643 253.025352 
L 248.269167 258.443466 
L 250.27569 263.248988 
L 252.282213 267.490895 
L 256.29526 275.100518 
L 264.321353 290.082247 
L 266.327876 293.448003 
L 268.334399 296.521634 
L 270.340923 299.33532 
L 274.353969 304.378109 
L 276.360492 306.609414 
L 278.367016 308.571969 
L 280.373539 310.199313 
L 282.380062 311.464426 
L 284.386585 312.394578 
L 286.393109 313.058595 
L 288.399632 313.538885 
L 292.412679 314.196672 
L 296.425725 314.605671 
L 300.438772 314.799307 
L 316.490958 315.096542 
L 320.504004 315.108034 
L 320.504004 315.108034 
" style="fill:none;stroke:#000000;stroke-linecap:square;stroke-width:2;"/>
   </g>
   <g id="line2d_12">
    <path clip-path="url(#pd05169bf2e)" d="M 178.897235 315.105332 
L 183.197673 315.004675 
L 188.57322 314.740269 
L 196.098986 315.006714 
L 198.249205 314.714942 
L 200.399424 313.991329 
L 203.624752 312.579149 
L 204.699862 312.313154 
L 206.850081 312.204582 
L 209.0003 312.18214 
L 210.075409 312.029723 
L 211.150518 311.751855 
L 213.300737 310.841978 
L 215.450956 309.544174 
L 217.601175 307.998961 
L 218.676285 307.079416 
L 219.751394 305.9197 
L 220.826503 304.376482 
L 221.901613 302.362232 
L 224.051832 297.206105 
L 226.202051 292.05831 
L 227.27716 290.010435 
L 230.502488 285.020163 
L 231.577598 282.715293 
L 232.652707 279.597234 
L 233.727817 275.572903 
L 234.802926 270.714737 
L 236.953145 259.151215 
L 239.103364 245.916827 
L 243.403802 217.161396 
L 245.554021 201.499478 
L 247.70424 183.464831 
L 249.854458 162.916708 
L 254.154896 120.270806 
L 257.380225 90.594361 
L 260.605553 59.039315 
L 261.680662 49.518525 
L 262.755772 41.057956 
L 263.830881 33.750455 
L 264.905991 27.671015 
L 265.9811 22.96728 
L 267.05621 19.819628 
L 268.131319 18.338478 
L 269.206428 18.519167 
L 270.281538 20.295621 
L 271.356647 23.62671 
L 272.431757 28.530944 
L 273.506866 35.058245 
L 274.581976 43.251071 
L 275.657085 53.12723 
L 276.732195 64.657139 
L 278.882413 91.983548 
L 283.182851 153.693743 
L 286.40818 199.726894 
L 288.558398 227.146071 
L 289.633508 238.874677 
L 290.708617 249.154304 
L 291.783727 258.126923 
L 293.933946 273.175956 
L 296.084165 285.813727 
L 297.159274 291.37223 
L 298.234383 296.285958 
L 299.309493 300.441896 
L 300.384602 303.82051 
L 301.459712 306.510106 
L 302.534821 308.653741 
L 303.609931 310.379173 
L 304.68504 311.763407 
L 305.76015 312.843226 
L 306.835259 313.6458 
L 307.910368 314.20916 
L 308.985478 314.582872 
L 311.135697 314.958276 
L 314.361025 315.09758 
L 315.436135 315.10506 
L 315.436135 315.10506 
" style="fill:none;stroke:#000000;stroke-dasharray:7.4,3.2;stroke-dashoffset:0;stroke-width:2;"/>
   </g>
   <g id="line2d_13">
    <path clip-path="url(#pd05169bf2e)" d="M 41.739167 315.105928 
L 57.353209 314.99827 
L 68.506096 314.942496 
L 84.120138 314.894684 
L 88.581293 314.776641 
L 93.042448 314.441801 
L 97.503602 313.822025 
L 101.964757 312.92858 
L 106.425912 311.785043 
L 110.887067 310.424846 
L 117.578799 308.140508 
L 122.039954 306.400643 
L 124.270531 305.362566 
L 126.501109 304.144169 
L 128.731686 302.699743 
L 130.962264 300.995347 
L 133.192841 299.009269 
L 135.423419 296.729392 
L 137.653996 294.150206 
L 139.884573 291.27066 
L 142.115151 288.092079 
L 144.345728 284.615663 
L 146.576306 280.841358 
L 148.806883 276.771008 
L 151.037461 272.41612 
L 155.498615 262.98867 
L 162.190348 247.881556 
L 180.034967 207.140879 
L 182.265545 202.670926 
L 184.496122 198.692985 
L 186.726699 195.355098 
L 188.957277 192.795367 
L 191.187854 191.118505 
L 193.418432 190.366571 
L 195.649009 190.495361 
L 197.879587 191.37087 
L 200.110164 192.793607 
L 202.340741 194.54576 
L 209.032474 200.365952 
L 211.263051 202.451559 
L 213.493629 204.766351 
L 215.724206 207.435089 
L 217.954783 210.549036 
L 220.185361 214.14659 
L 222.415938 218.213072 
L 224.646516 222.692124 
L 229.107671 232.524542 
L 235.799403 247.65252 
L 238.02998 252.298985 
L 240.260558 256.600594 
L 242.491135 260.52367 
L 244.721713 264.063517 
L 246.95229 267.230855 
L 249.182867 270.043186 
L 251.413445 272.525972 
L 253.644022 274.719893 
L 255.8746 276.684411 
L 260.335755 280.192798 
L 264.796909 283.354873 
L 267.027487 284.745009 
L 269.258064 285.939144 
L 271.488642 286.915653 
L 275.949797 288.370546 
L 280.410951 289.748225 
L 282.641529 290.637804 
L 284.872106 291.748903 
L 287.102684 293.123136 
L 289.333261 294.786074 
L 291.563839 296.742989 
L 293.794416 298.967427 
L 302.716726 308.583698 
L 304.947303 310.50426 
L 307.177881 312.039806 
L 309.408458 313.183378 
L 311.639035 313.975514 
L 313.869613 314.485138 
L 316.10019 314.789191 
L 320.561345 315.042832 
L 325.0225 315.100112 
L 325.0225 315.100112 
" style="fill:none;stroke:#000000;stroke-dasharray:2,3.3;stroke-dashoffset:0;stroke-width:2;"/>
   </g>
   <g id="patch_3">
    <path d="M 27.575 315.111667 
L 27.575 3.5 
" style="fill:none;stroke:#000000;stroke-linecap:square;stroke-linejoin:miter;stroke-width:0.8;"/>
   </g>
   <g id="patch_4">
    <path d="M 27.575 315.111667 
L 339.186667 315.111667 
" style="fill:none;stroke:#000000;stroke-linecap:square;stroke-linejoin:miter;stroke-width:0.8;"/>
   </g>
  </g>
  <g id="axes_2">
   <g id="patch_5">
    <path d="M 381.421667 315.111667 
L 693.033333 315.111667 
L 693.033333 3.5 
L 381.421667 3.5 
z
" style="fill:#ffffff;"/>
   </g>
   <g id="matplotlib.axis_3">
    <g id="xtick_4">
     <g id="line2d_14">
      <g>
       <use style="stroke:#000000;stroke-width:1.6;" x="384.943161" xlink:href="#m1a87669571" y="315.111667"/>
      </g>
     </g>
     <g id="text_11">
      <!-- −1.0 -->
      <defs>
       <path d="M 10.59375 35.5 
L 73.1875 35.5 
L 73.1875 27.203125 
L 10.59375 27.203125 
z
" id="DejaVuSans-8722"/>
      </defs>
      <g transform="translate(360.660349 345.008542)scale(0.2 -0.2)">
       <use xlink:href="#DejaVuSans-8722"/>
       <use x="83.789062" xlink:href="#DejaVuSans-49"/>
       <use x="147.412109" xlink:href="#DejaVuSans-46"/>
       <use x="179.199219" xlink:href="#DejaVuSans-48"/>
      </g>
     </g>
    </g>
    <g id="xtick_5">
     <g id="line2d_15">
      <g>
       <use style="stroke:#000000;stroke-width:1.6;" x="484.295486" xlink:href="#m1a87669571" y="315.111667"/>
      </g>
     </g>
     <g id="text_12">
      <!-- −0.5 -->
      <g transform="translate(460.012674 345.008542)scale(0.2 -0.2)">
       <use xlink:href="#DejaVuSans-8722"/>
       <use x="83.789062" xlink:href="#DejaVuSans-48"/>
       <use x="147.412109" xlink:href="#DejaVuSans-46"/>
       <use x="179.199219" xlink:href="#DejaVuSans-53"/>
      </g>
     </g>
    </g>
    <g id="xtick_6">
     <g id="line2d_16">
      <g>
       <use style="stroke:#000000;stroke-width:1.6;" x="583.647811" xlink:href="#m1a87669571" y="315.111667"/>
      </g>
     </g>
     <g id="text_13">
      <!-- 0.0 -->
      <g transform="translate(567.744686 345.008542)scale(0.2 -0.2)">
       <use xlink:href="#DejaVuSans-48"/>
       <use x="63.623047" xlink:href="#DejaVuSans-46"/>
       <use x="95.410156" xlink:href="#DejaVuSans-48"/>
      </g>
     </g>
    </g>
    <g id="xtick_7">
     <g id="line2d_17">
      <g>
       <use style="stroke:#000000;stroke-width:1.6;" x="683.000135" xlink:href="#m1a87669571" y="315.111667"/>
      </g>
     </g>
     <g id="text_14">
      <!-- 0.5 -->
      <g transform="translate(667.09701 345.008542)scale(0.2 -0.2)">
       <use xlink:href="#DejaVuSans-48"/>
       <use x="63.623047" xlink:href="#DejaVuSans-46"/>
       <use x="95.410156" xlink:href="#DejaVuSans-53"/>
      </g>
     </g>
    </g>
   </g>
   <g id="matplotlib.axis_4">
    <g id="ytick_8">
     <g id="line2d_18">
      <g>
       <use style="stroke:#000000;stroke-width:1.6;" x="381.421667" xlink:href="#m58d0a3199f" y="315.111667"/>
      </g>
     </g>
     <g id="text_15">
      <!-- 0 -->
      <g transform="translate(353.996667 322.710104)scale(0.2 -0.2)">
       <use xlink:href="#DejaVuSans-48"/>
      </g>
     </g>
    </g>
    <g id="ytick_9">
     <g id="line2d_19">
      <g>
       <use style="stroke:#000000;stroke-width:1.6;" x="381.421667" xlink:href="#m58d0a3199f" y="246.762138"/>
      </g>
     </g>
     <g id="text_16">
      <!-- 1 -->
      <g transform="translate(353.996667 254.360576)scale(0.2 -0.2)">
       <use xlink:href="#DejaVuSans-49"/>
      </g>
     </g>
    </g>
    <g id="ytick_10">
     <g id="line2d_20">
      <g>
       <use style="stroke:#000000;stroke-width:1.6;" x="381.421667" xlink:href="#m58d0a3199f" y="178.412609"/>
      </g>
     </g>
     <g id="text_17">
      <!-- 2 -->
      <g transform="translate(353.996667 186.011047)scale(0.2 -0.2)">
       <use xlink:href="#DejaVuSans-50"/>
      </g>
     </g>
    </g>
    <g id="ytick_11">
     <g id="line2d_21">
      <g>
       <use style="stroke:#000000;stroke-width:1.6;" x="381.421667" xlink:href="#m58d0a3199f" y="110.063081"/>
      </g>
     </g>
     <g id="text_18">
      <!-- 3 -->
      <g transform="translate(353.996667 117.661518)scale(0.2 -0.2)">
       <use xlink:href="#DejaVuSans-51"/>
      </g>
     </g>
    </g>
    <g id="ytick_12">
     <g id="line2d_22">
      <g>
       <use style="stroke:#000000;stroke-width:1.6;" x="381.421667" xlink:href="#m58d0a3199f" y="41.713552"/>
      </g>
     </g>
     <g id="text_19">
      <!-- 4 -->
      <g transform="translate(353.996667 49.31199)scale(0.2 -0.2)">
       <use xlink:href="#DejaVuSans-52"/>
      </g>
     </g>
    </g>
   </g>
   <g id="line2d_23">
    <path clip-path="url(#p656b49200a)" d="M 0 0 
" style="fill:none;stroke:#000000;stroke-linecap:square;stroke-width:2;"/>
   </g>
   <g id="line2d_24">
    <path clip-path="url(#p656b49200a)" d="M 0 0 
" style="fill:none;stroke:#000000;stroke-dasharray:7.4,3.2;stroke-dashoffset:0;stroke-width:2;"/>
   </g>
   <g id="patch_6">
    <path style="fill:none;stroke:#000000;stroke-linecap:square;stroke-linejoin:miter;stroke-width:0.8;"/>
   </g>
   <g id="patch_7">
    <path style="fill:none;stroke:#000000;stroke-linecap:square;stroke-linejoin:miter;stroke-width:0.8;"/>
   </g>
  </g>
 </g>
 <defs>
  <clipPath id="pd05169bf2e">
   <rect height="311.611667" width="311.611667" x="27.575" y="3.5"/>
  </clipPath>
  <clipPath id="p656b49200a">
   <rect height="311.611667" width="311.611667" x="381.421667" y="3.5"/>
  </clipPath>
 </defs>
</svg>
