<?xml version="1.0" encoding="utf-8" standalone="no"?>
<!DOCTYPE svg PUBLIC "-//W3C//DTD SVG 1.1//EN"
  "http://www.w3.org/Graphics/SVG/1.1/DTD/svg11.dtd">
<!-- Created with matplotlib (https://matplotlib.org/) -->
<svg height="349.787685pt" version="1.1" viewBox="0 0 342.435036 349.787685" width="342.435036pt" xmlns="http://www.w3.org/2000/svg" xmlns:xlink="http://www.w3.org/1999/xlink">
 <defs>
  <style type="text/css">
*{stroke-linecap:butt;stroke-linejoin:round;}
  </style>
 </defs>
 <g id="figure_1">
  <g id="patch_1">
   <path d="M 0 349.787685 
L 342.435036 349.787685 
L 342.435036 -0 
L 0 -0 
z
" style="fill:#ffffff;"/>
  </g>
  <g id="axes_1">
   <g id="patch_2">
    <path d="M 27.575 316.087685 
L 338.935036 316.087685 
L 338.935036 4.727649 
L 27.575 4.727649 
z
" style="fill:#ffffff;"/>
   </g>
   <g id="matplotlib.axis_1">
    <g id="xtick_1">
     <g id="line2d_1">
      <defs>
       <path d="M 0 0 
L 0 3.5 
" id="m9d377fdf86" style="stroke:#000000;stroke-width:1.6;"/>
      </defs>
      <g>
       <use style="stroke:#000000;stroke-width:1.6;" x="106.941454" xlink:href="#m9d377fdf86" y="316.087685"/>
      </g>
     </g>
     <g id="text_1">
      <!-- 0.0 -->
      <defs>
       <path d="M 31.78125 66.40625 
Q 24.171875 66.40625 20.328125 58.90625 
Q 16.5 51.421875 16.5 36.375 
Q 16.5 21.390625 20.328125 13.890625 
Q 24.171875 6.390625 31.78125 6.390625 
Q 39.453125 6.390625 43.28125 13.890625 
Q 47.125 21.390625 47.125 36.375 
Q 47.125 51.421875 43.28125 58.90625 
Q 39.453125 66.40625 31.78125 66.40625 
z
M 31.78125 74.21875 
Q 44.046875 74.21875 50.515625 64.515625 
Q 56.984375 54.828125 56.984375 36.375 
Q 56.984375 17.96875 50.515625 8.265625 
Q 44.046875 -1.421875 31.78125 -1.421875 
Q 19.53125 -1.421875 13.0625 8.265625 
Q 6.59375 17.96875 6.59375 36.375 
Q 6.59375 54.828125 13.0625 64.515625 
Q 19.53125 74.21875 31.78125 74.21875 
z
" id="DejaVuSans-48"/>
       <path d="M 10.6875 12.40625 
L 21 12.40625 
L 21 0 
L 10.6875 0 
z
" id="DejaVuSans-46"/>
      </defs>
      <g transform="translate(91.038329 345.98456)scale(0.2 -0.2)">
       <use xlink:href="#DejaVuSans-48"/>
       <use x="63.623047" xlink:href="#DejaVuSans-46"/>
       <use x="95.410156" xlink:href="#DejaVuSans-48"/>
      </g>
     </g>
    </g>
    <g id="xtick_2">
     <g id="line2d_2">
      <g>
       <use style="stroke:#000000;stroke-width:1.6;" x="226.655485" xlink:href="#m9d377fdf86" y="316.087685"/>
      </g>
     </g>
     <g id="text_2">
      <!-- 0.5 -->
      <defs>
       <path d="M 10.796875 72.90625 
L 49.515625 72.90625 
L 49.515625 64.59375 
L 19.828125 64.59375 
L 19.828125 46.734375 
Q 21.96875 47.46875 24.109375 47.828125 
Q 26.265625 48.1875 28.421875 48.1875 
Q 40.625 48.1875 47.75 41.5 
Q 54.890625 34.8125 54.890625 23.390625 
Q 54.890625 11.625 47.5625 5.09375 
Q 40.234375 -1.421875 26.90625 -1.421875 
Q 22.3125 -1.421875 17.546875 -0.640625 
Q 12.796875 0.140625 7.71875 1.703125 
L 7.71875 11.625 
Q 12.109375 9.234375 16.796875 8.0625 
Q 21.484375 6.890625 26.703125 6.890625 
Q 35.15625 6.890625 40.078125 11.328125 
Q 45.015625 15.765625 45.015625 23.390625 
Q 45.015625 31 40.078125 35.4375 
Q 35.15625 39.890625 26.703125 39.890625 
Q 22.75 39.890625 18.8125 39.015625 
Q 14.890625 38.140625 10.796875 36.28125 
z
" id="DejaVuSans-53"/>
      </defs>
      <g transform="translate(210.75236 345.98456)scale(0.2 -0.2)">
       <use xlink:href="#DejaVuSans-48"/>
       <use x="63.623047" xlink:href="#DejaVuSans-46"/>
       <use x="95.410156" xlink:href="#DejaVuSans-53"/>
      </g>
     </g>
    </g>
   </g>
   <g id="matplotlib.axis_2">
    <g id="ytick_1">
     <g id="line2d_3">
      <defs>
       <path d="M 0 0 
L -3.5 0 
" id="m6a50cc0fec" style="stroke:#000000;stroke-width:1.6;"/>
      </defs>
      <g>
       <use style="stroke:#000000;stroke-width:1.6;" x="27.575" xlink:href="#m6a50cc0fec" y="316.087685"/>
      </g>
     </g>
     <g id="text_3">
      <!-- 0 -->
      <g transform="translate(0.15 323.686122)scale(0.2 -0.2)">
       <use xlink:href="#DejaVuSans-48"/>
      </g>
     </g>
    </g>
    <g id="ytick_2">
     <g id="line2d_4">
      <g>
       <use style="stroke:#000000;stroke-width:1.6;" x="27.575" xlink:href="#m6a50cc0fec" y="238.940764"/>
      </g>
     </g>
     <g id="text_4">
      <!-- 1 -->
      <defs>
       <path d="M 12.40625 8.296875 
L 28.515625 8.296875 
L 28.515625 63.921875 
L 10.984375 60.40625 
L 10.984375 69.390625 
L 28.421875 72.90625 
L 38.28125 72.90625 
L 38.28125 8.296875 
L 54.390625 8.296875 
L 54.390625 0 
L 12.40625 0 
z
" id="DejaVuSans-49"/>
      </defs>
      <g transform="translate(0.15 246.539201)scale(0.2 -0.2)">
       <use xlink:href="#DejaVuSans-49"/>
      </g>
     </g>
    </g>
    <g id="ytick_3">
     <g id="line2d_5">
      <g>
       <use style="stroke:#000000;stroke-width:1.6;" x="27.575" xlink:href="#m6a50cc0fec" y="161.793842"/>
      </g>
     </g>
     <g id="text_5">
      <!-- 2 -->
      <defs>
       <path d="M 19.1875 8.296875 
L 53.609375 8.296875 
L 53.609375 0 
L 7.328125 0 
L 7.328125 8.296875 
Q 12.9375 14.109375 22.625 23.890625 
Q 32.328125 33.6875 34.8125 36.53125 
Q 39.546875 41.84375 41.421875 45.53125 
Q 43.3125 49.21875 43.3125 52.78125 
Q 43.3125 58.59375 39.234375 62.25 
Q 35.15625 65.921875 28.609375 65.921875 
Q 23.96875 65.921875 18.8125 64.3125 
Q 13.671875 62.703125 7.8125 59.421875 
L 7.8125 69.390625 
Q 13.765625 71.78125 18.9375 73 
Q 24.125 74.21875 28.421875 74.21875 
Q 39.75 74.21875 46.484375 68.546875 
Q 53.21875 62.890625 53.21875 53.421875 
Q 53.21875 48.921875 51.53125 44.890625 
Q 49.859375 40.875 45.40625 35.40625 
Q 44.1875 33.984375 37.640625 27.21875 
Q 31.109375 20.453125 19.1875 8.296875 
z
" id="DejaVuSans-50"/>
      </defs>
      <g transform="translate(0.15 169.39228)scale(0.2 -0.2)">
       <use xlink:href="#DejaVuSans-50"/>
      </g>
     </g>
    </g>
    <g id="ytick_4">
     <g id="line2d_6">
      <g>
       <use style="stroke:#000000;stroke-width:1.6;" x="27.575" xlink:href="#m6a50cc0fec" y="84.646921"/>
      </g>
     </g>
     <g id="text_6">
      <!-- 3 -->
      <defs>
       <path d="M 40.578125 39.3125 
Q 47.65625 37.796875 51.625 33 
Q 55.609375 28.21875 55.609375 21.1875 
Q 55.609375 10.40625 48.1875 4.484375 
Q 40.765625 -1.421875 27.09375 -1.421875 
Q 22.515625 -1.421875 17.65625 -0.515625 
Q 12.796875 0.390625 7.625 2.203125 
L 7.625 11.71875 
Q 11.71875 9.328125 16.59375 8.109375 
Q 21.484375 6.890625 26.8125 6.890625 
Q 36.078125 6.890625 40.9375 10.546875 
Q 45.796875 14.203125 45.796875 21.1875 
Q 45.796875 27.640625 41.28125 31.265625 
Q 36.765625 34.90625 28.71875 34.90625 
L 20.21875 34.90625 
L 20.21875 43.015625 
L 29.109375 43.015625 
Q 36.375 43.015625 40.234375 45.921875 
Q 44.09375 48.828125 44.09375 54.296875 
Q 44.09375 59.90625 40.109375 62.90625 
Q 36.140625 65.921875 28.71875 65.921875 
Q 24.65625 65.921875 20.015625 65.03125 
Q 15.375 64.15625 9.8125 62.3125 
L 9.8125 71.09375 
Q 15.4375 72.65625 20.34375 73.4375 
Q 25.25 74.21875 29.59375 74.21875 
Q 40.828125 74.21875 47.359375 69.109375 
Q 53.90625 64.015625 53.90625 55.328125 
Q 53.90625 49.265625 50.4375 45.09375 
Q 46.96875 40.921875 40.578125 39.3125 
z
" id="DejaVuSans-51"/>
      </defs>
      <g transform="translate(0.15 92.245359)scale(0.2 -0.2)">
       <use xlink:href="#DejaVuSans-51"/>
      </g>
     </g>
    </g>
    <g id="ytick_5">
     <g id="line2d_7">
      <g>
       <use style="stroke:#000000;stroke-width:1.6;" x="27.575" xlink:href="#m6a50cc0fec" y="7.5"/>
      </g>
     </g>
     <g id="text_7">
      <!-- 4 -->
      <defs>
       <path d="M 37.796875 64.3125 
L 12.890625 25.390625 
L 37.796875 25.390625 
z
M 35.203125 72.90625 
L 47.609375 72.90625 
L 47.609375 25.390625 
L 58.015625 25.390625 
L 58.015625 17.1875 
L 47.609375 17.1875 
L 47.609375 0 
L 37.796875 0 
L 37.796875 17.1875 
L 4.890625 17.1875 
L 4.890625 26.703125 
z
" id="DejaVuSans-52"/>
      </defs>
      <g transform="translate(0.15 15.098437)scale(0.2 -0.2)">
       <use xlink:href="#DejaVuSans-52"/>
      </g>
     </g>
    </g>
   </g>
   <g id="line2d_8">
    <path clip-path="url(#p7b188ae54c)" d="M 41.727729 316.082482 
L 50.41844 315.989745 
L 69.97254 315.506706 
L 80.835929 315.364368 
L 83.008607 315.166833 
L 85.181285 314.837749 
L 89.52664 313.813964 
L 93.871996 312.464746 
L 98.217351 311.064999 
L 102.562707 309.958364 
L 104.735385 309.458238 
L 106.908063 308.839638 
L 109.08074 307.991192 
L 111.253418 306.881988 
L 113.426096 305.558392 
L 115.598774 304.070072 
L 117.771451 302.386653 
L 119.944129 300.379111 
L 122.116807 297.884113 
L 124.289485 294.798068 
L 126.462163 291.128665 
L 128.63484 286.978208 
L 132.980196 277.822158 
L 143.843585 254.286127 
L 146.016263 248.961533 
L 148.188941 243.009385 
L 150.361618 236.254474 
L 152.534296 228.502365 
L 154.706974 219.58689 
L 156.879652 209.511979 
L 165.570363 166.227101 
L 169.915718 147.60772 
L 176.433752 120.301824 
L 182.951785 92.607292 
L 185.124463 84.260682 
L 187.297141 77.396529 
L 189.469819 72.730857 
L 191.642496 70.598769 
L 193.815174 70.784674 
L 195.987852 72.658143 
L 198.16053 75.504676 
L 200.333207 78.817433 
L 202.505885 82.396072 
L 204.678563 86.273592 
L 206.851241 90.591403 
L 209.023919 95.512094 
L 211.196596 101.182488 
L 213.369274 107.727344 
L 215.541952 115.26343 
L 217.71463 123.91869 
L 219.887308 133.813646 
L 222.059985 144.968602 
L 226.405341 169.956032 
L 230.750696 194.906848 
L 235.096052 217.32081 
L 239.441408 237.956308 
L 241.614085 247.613457 
L 243.786763 256.57815 
L 245.959441 264.685679 
L 248.132119 271.890171 
L 250.304797 278.261415 
L 252.477474 283.933121 
L 254.650152 289.034196 
L 256.82283 293.631785 
L 258.995508 297.715798 
L 261.168186 301.236181 
L 263.340863 304.164809 
L 265.513541 306.533301 
L 267.686219 308.424428 
L 269.858897 309.938778 
L 272.031574 311.170156 
L 274.204252 312.197899 
L 278.549608 313.85333 
L 280.722286 314.509381 
L 282.894963 315.025836 
L 285.067641 315.380275 
L 287.240319 315.572408 
L 291.585675 315.602387 
L 298.103708 315.510047 
L 304.621741 315.782785 
L 311.139775 316.027611 
L 317.657808 316.0823 
L 317.657808 316.0823 
" style="fill:none;stroke:#000000;stroke-linecap:square;stroke-width:2;"/>
   </g>
   <g id="line2d_9">
    <path clip-path="url(#p7b188ae54c)" d="M 60.322455 316.081509 
L 66.420062 316.004787 
L 76.582741 315.711165 
L 84.712883 315.861596 
L 92.843026 315.717014 
L 103.005704 315.99385 
L 107.070776 315.79822 
L 113.168383 315.330016 
L 117.233454 315.405611 
L 121.298525 315.543298 
L 123.331061 315.405134 
L 125.363597 315.045853 
L 127.396132 314.466499 
L 133.493739 312.281458 
L 135.526275 311.81313 
L 137.558811 311.582798 
L 141.623882 311.582565 
L 143.656418 311.57282 
L 145.688953 311.386068 
L 147.721489 310.92793 
L 149.754025 310.141564 
L 151.78656 308.985756 
L 153.819096 307.408721 
L 155.851632 305.358287 
L 157.884167 302.831407 
L 159.916703 299.905021 
L 161.949239 296.694473 
L 163.981774 293.270358 
L 166.01431 289.621575 
L 168.046846 285.694749 
L 170.079381 281.449144 
L 172.111917 276.877127 
L 176.176988 266.946697 
L 180.24206 256.330304 
L 182.274595 250.322928 
L 184.307131 243.201795 
L 186.339667 234.579291 
L 188.372202 224.458201 
L 192.437274 201.413236 
L 196.502345 177.075287 
L 202.599952 138.891263 
L 208.697559 100.047075 
L 214.795166 57.405809 
L 216.827702 45.009603 
L 218.860237 35.162032 
L 220.892773 28.004721 
L 222.925309 23.174319 
L 224.957844 20.355197 
L 226.99038 19.554069 
L 229.022916 20.836456 
L 231.055451 23.963049 
L 233.087987 28.503854 
L 235.120523 34.338949 
L 237.153058 41.863076 
L 239.185594 51.550592 
L 241.21813 63.363456 
L 245.283201 90.681584 
L 249.348272 119.43567 
L 259.510951 193.145209 
L 265.608558 231.776691 
L 267.641093 244.328668 
L 269.673629 256.023596 
L 271.706165 266.399174 
L 273.7387 275.406467 
L 275.771236 283.276393 
L 277.803772 290.222592 
L 279.836307 296.292271 
L 281.868843 301.424671 
L 283.901379 305.566576 
L 285.933914 308.717458 
L 287.96645 310.914043 
L 289.998986 312.22884 
L 292.031521 312.809008 
L 294.064057 312.908004 
L 296.096593 312.849465 
L 298.129128 312.920177 
L 300.161664 313.260066 
L 308.291807 315.517857 
L 310.324342 315.800686 
L 314.389414 316.036344 
L 318.454485 316.080893 
L 318.454485 316.080893 
" style="fill:none;stroke:#000000;stroke-dasharray:7.4,3.2;stroke-dashoffset:0;stroke-width:2;"/>
   </g>
   <g id="line2d_10">
    <path clip-path="url(#p7b188ae54c)" d="M 56.611794 316.080674 
L 65.058109 315.963408 
L 71.392846 315.570681 
L 75.616004 315.276193 
L 79.839161 315.228671 
L 90.397055 315.691308 
L 94.620213 315.565997 
L 107.289686 314.793105 
L 111.512844 314.317367 
L 115.736002 313.482089 
L 119.959159 312.26835 
L 124.182317 310.773364 
L 128.405475 309.026579 
L 134.740211 306.129457 
L 136.85179 305.050779 
L 138.963369 303.710536 
L 141.074948 301.877505 
L 143.186527 299.340726 
L 145.298105 296.010881 
L 147.409684 291.985938 
L 153.744421 278.73684 
L 157.967578 271.040031 
L 160.079157 267.211049 
L 162.190736 262.953013 
L 164.302315 258.019501 
L 166.413894 252.343728 
L 168.525473 246.032485 
L 172.74863 232.334847 
L 185.418103 190.101182 
L 206.533892 114.565001 
L 208.645471 107.82301 
L 210.75705 101.826453 
L 212.868628 96.66936 
L 214.980207 92.39387 
L 217.091786 89.082213 
L 219.203365 86.9006 
L 221.314944 86.030799 
L 223.426523 86.527295 
L 225.538102 88.219761 
L 227.64968 90.757067 
L 229.761259 93.775226 
L 231.872838 97.071822 
L 233.984417 100.672741 
L 236.095996 104.771183 
L 238.207575 109.61054 
L 240.319153 115.395294 
L 242.430732 122.257579 
L 244.542311 130.251644 
L 246.65389 139.343703 
L 248.765469 149.396346 
L 252.988627 171.347669 
L 257.211784 193.651764 
L 261.434942 214.571189 
L 265.6581 234.077783 
L 269.881257 252.499254 
L 271.992836 261.082591 
L 274.104415 269.061196 
L 276.215994 276.37196 
L 278.327573 283.034921 
L 280.439151 289.10263 
L 282.55073 294.593336 
L 284.662309 299.458337 
L 286.773888 303.603721 
L 288.885467 306.94674 
L 290.997046 309.468417 
L 293.108625 311.23489 
L 295.220203 312.384346 
L 297.331782 313.093411 
L 299.443361 313.539347 
L 312.112834 315.496225 
L 316.335992 315.886184 
L 320.55915 316.040507 
L 324.782307 316.078781 
L 324.782307 316.078781 
" style="fill:none;stroke:#000000;stroke-dasharray:2,3.3;stroke-dashoffset:0;stroke-width:2;"/>
   </g>
   <g id="patch_3">
    <path d="M 27.575 316.087685 
L 27.575 4.727649 
" style="fill:none;stroke:#000000;stroke-linecap:square;stroke-linejoin:miter;stroke-width:0.8;"/>
   </g>
   <g id="patch_4">
    <path d="M 27.575 316.087685 
L 338.935036 316.087685 
" style="fill:none;stroke:#000000;stroke-linecap:square;stroke-linejoin:miter;stroke-width:0.8;"/>
   </g>
  </g>
  <g id="axes_2">
   <g id="patch_5">
    <path d="M 381.421667 316.087685 
L 692.781703 316.087685 
L 692.781703 4.727649 
L 381.421667 4.727649 
z
" style="fill:#ffffff;"/>
   </g>
   <g id="matplotlib.axis_3">
    <g id="xtick_3">
     <g id="line2d_11">
      <g>
       <use style="stroke:#000000;stroke-width:1.6;" x="468.233936" xlink:href="#m9d377fdf86" y="316.087685"/>
      </g>
     </g>
     <g id="text_8">
      <!-- −0.5 -->
      <defs>
       <path d="M 10.59375 35.5 
L 73.1875 35.5 
L 73.1875 27.203125 
L 10.59375 27.203125 
z
" id="DejaVuSans-8722"/>
      </defs>
      <g transform="translate(443.951124 345.98456)scale(0.2 -0.2)">
       <use xlink:href="#DejaVuSans-8722"/>
       <use x="83.789062" xlink:href="#DejaVuSans-48"/>
       <use x="147.412109" xlink:href="#DejaVuSans-46"/>
       <use x="179.199219" xlink:href="#DejaVuSans-53"/>
      </g>
     </g>
    </g>
    <g id="xtick_4">
     <g id="line2d_12">
      <g>
       <use style="stroke:#000000;stroke-width:1.6;" x="556.064183" xlink:href="#m9d377fdf86" y="316.087685"/>
      </g>
     </g>
     <g id="text_9">
      <!-- 0.0 -->
      <g transform="translate(540.161058 345.98456)scale(0.2 -0.2)">
       <use xlink:href="#DejaVuSans-48"/>
       <use x="63.623047" xlink:href="#DejaVuSans-46"/>
       <use x="95.410156" xlink:href="#DejaVuSans-48"/>
      </g>
     </g>
    </g>
    <g id="xtick_5">
     <g id="line2d_13">
      <g>
       <use style="stroke:#000000;stroke-width:1.6;" x="643.894429" xlink:href="#m9d377fdf86" y="316.087685"/>
      </g>
     </g>
     <g id="text_10">
      <!-- 0.5 -->
      <g transform="translate(627.991304 345.98456)scale(0.2 -0.2)">
       <use xlink:href="#DejaVuSans-48"/>
       <use x="63.623047" xlink:href="#DejaVuSans-46"/>
       <use x="95.410156" xlink:href="#DejaVuSans-53"/>
      </g>
     </g>
    </g>
   </g>
   <g id="matplotlib.axis_4">
    <g id="ytick_6">
     <g id="line2d_14">
      <g>
       <use style="stroke:#000000;stroke-width:1.6;" x="381.421667" xlink:href="#m6a50cc0fec" y="316.087685"/>
      </g>
     </g>
     <g id="text_11">
      <!-- 0.0 -->
      <g transform="translate(334.915417 323.686122)scale(0.2 -0.2)">
       <use xlink:href="#DejaVuSans-48"/>
       <use x="63.623047" xlink:href="#DejaVuSans-46"/>
       <use x="95.410156" xlink:href="#DejaVuSans-48"/>
      </g>
     </g>
    </g>
    <g id="ytick_7">
     <g id="line2d_15">
      <g>
       <use style="stroke:#000000;stroke-width:1.6;" x="381.421667" xlink:href="#m6a50cc0fec" y="270.555398"/>
      </g>
     </g>
     <g id="text_12">
      <!-- 0.5 -->
      <g transform="translate(334.915417 278.153836)scale(0.2 -0.2)">
       <use xlink:href="#DejaVuSans-48"/>
       <use x="63.623047" xlink:href="#DejaVuSans-46"/>
       <use x="95.410156" xlink:href="#DejaVuSans-53"/>
      </g>
     </g>
    </g>
    <g id="ytick_8">
     <g id="line2d_16">
      <g>
       <use style="stroke:#000000;stroke-width:1.6;" x="381.421667" xlink:href="#m6a50cc0fec" y="225.023111"/>
      </g>
     </g>
     <g id="text_13">
      <!-- 1.0 -->
      <g transform="translate(334.915417 232.621549)scale(0.2 -0.2)">
       <use xlink:href="#DejaVuSans-49"/>
       <use x="63.623047" xlink:href="#DejaVuSans-46"/>
       <use x="95.410156" xlink:href="#DejaVuSans-48"/>
      </g>
     </g>
    </g>
    <g id="ytick_9">
     <g id="line2d_17">
      <g>
       <use style="stroke:#000000;stroke-width:1.6;" x="381.421667" xlink:href="#m6a50cc0fec" y="179.490824"/>
      </g>
     </g>
     <g id="text_14">
      <!-- 1.5 -->
      <g transform="translate(334.915417 187.089262)scale(0.2 -0.2)">
       <use xlink:href="#DejaVuSans-49"/>
       <use x="63.623047" xlink:href="#DejaVuSans-46"/>
       <use x="95.410156" xlink:href="#DejaVuSans-53"/>
      </g>
     </g>
    </g>
    <g id="ytick_10">
     <g id="line2d_18">
      <g>
       <use style="stroke:#000000;stroke-width:1.6;" x="381.421667" xlink:href="#m6a50cc0fec" y="133.958538"/>
      </g>
     </g>
     <g id="text_15">
      <!-- 2.0 -->
      <g transform="translate(334.915417 141.556975)scale(0.2 -0.2)">
       <use xlink:href="#DejaVuSans-50"/>
       <use x="63.623047" xlink:href="#DejaVuSans-46"/>
       <use x="95.410156" xlink:href="#DejaVuSans-48"/>
      </g>
     </g>
    </g>
    <g id="ytick_11">
     <g id="line2d_19">
      <g>
       <use style="stroke:#000000;stroke-width:1.6;" x="381.421667" xlink:href="#m6a50cc0fec" y="88.426251"/>
      </g>
     </g>
     <g id="text_16">
      <!-- 2.5 -->
      <g transform="translate(334.915417 96.024688)scale(0.2 -0.2)">
       <use xlink:href="#DejaVuSans-50"/>
       <use x="63.623047" xlink:href="#DejaVuSans-46"/>
       <use x="95.410156" xlink:href="#DejaVuSans-53"/>
      </g>
     </g>
    </g>
    <g id="ytick_12">
     <g id="line2d_20">
      <g>
       <use style="stroke:#000000;stroke-width:1.6;" x="381.421667" xlink:href="#m6a50cc0fec" y="42.893964"/>
      </g>
     </g>
     <g id="text_17">
      <!-- 3.0 -->
      <g transform="translate(334.915417 50.492401)scale(0.2 -0.2)">
       <use xlink:href="#DejaVuSans-51"/>
       <use x="63.623047" xlink:href="#DejaVuSans-46"/>
       <use x="95.410156" xlink:href="#DejaVuSans-48"/>
      </g>
     </g>
    </g>
   </g>
   <g id="line2d_21">
    <path clip-path="url(#p0edf18484d)" d="M 0 0 
" style="fill:none;stroke:#000000;stroke-linecap:square;stroke-width:2;"/>
   </g>
   <g id="line2d_22">
    <path clip-path="url(#p0edf18484d)" d="M 0 0 
" style="fill:none;stroke:#000000;stroke-dasharray:7.4,3.2;stroke-dashoffset:0;stroke-width:2;"/>
   </g>
   <g id="patch_6">
    <path style="fill:none;stroke:#000000;stroke-linecap:square;stroke-linejoin:miter;stroke-width:0.8;"/>
   </g>
   <g id="patch_7">
    <path style="fill:none;stroke:#000000;stroke-linecap:square;stroke-linejoin:miter;stroke-width:0.8;"/>
   </g>
  </g>
 </g>
 <defs>
  <clipPath id="p7b188ae54c">
   <rect height="311.360036" width="311.360036" x="27.575" y="4.727649"/>
  </clipPath>
  <clipPath id="p0edf18484d">
   <rect height="311.360036" width="311.360036" x="381.421667" y="4.727649"/>
  </clipPath>
 </defs>
</svg>
