<?xml version="1.0" encoding="utf-8" standalone="no"?>
<!DOCTYPE svg PUBLIC "-//W3C//DTD SVG 1.1//EN"
  "http://www.w3.org/Graphics/SVG/1.1/DTD/svg11.dtd">
<!-- Created with matplotlib (https://matplotlib.org/) -->
<svg height="344.561667pt" version="1.1" viewBox="0 0 351.186667 344.561667" width="351.186667pt" xmlns="http://www.w3.org/2000/svg" xmlns:xlink="http://www.w3.org/1999/xlink">
 <defs>
  <style type="text/css">
*{stroke-linecap:butt;stroke-linejoin:round;}
  </style>
 </defs>
 <g id="figure_1">
  <g id="patch_1">
   <path d="M 0 344.561667 
L 351.186667 344.561667 
L 351.186667 -0 
L 0 -0 
z
" style="fill:#ffffff;"/>
  </g>
  <g id="axes_1">
   <g id="patch_2">
    <path d="M 40.325 310.861667 
L 347.686667 310.861667 
L 347.686667 3.5 
L 40.325 3.5 
z
" style="fill:#ffffff;"/>
   </g>
   <g id="matplotlib.axis_1">
    <g id="xtick_1">
     <g id="line2d_1">
      <defs>
       <path d="M 0 0 
L 0 3.5 
" id="md500b7158b" style="stroke:#000000;stroke-width:1.6;"/>
      </defs>
      <g>
       <use style="stroke:#000000;stroke-width:1.6;" x="67.396775" xlink:href="#md500b7158b" y="310.861667"/>
      </g>
     </g>
     <g id="text_1">
      <!-- 0.2 -->
      <defs>
       <path d="M 31.78125 66.40625 
Q 24.171875 66.40625 20.328125 58.90625 
Q 16.5 51.421875 16.5 36.375 
Q 16.5 21.390625 20.328125 13.890625 
Q 24.171875 6.390625 31.78125 6.390625 
Q 39.453125 6.390625 43.28125 13.890625 
Q 47.125 21.390625 47.125 36.375 
Q 47.125 51.421875 43.28125 58.90625 
Q 39.453125 66.40625 31.78125 66.40625 
z
M 31.78125 74.21875 
Q 44.046875 74.21875 50.515625 64.515625 
Q 56.984375 54.828125 56.984375 36.375 
Q 56.984375 17.96875 50.515625 8.265625 
Q 44.046875 -1.421875 31.78125 -1.421875 
Q 19.53125 -1.421875 13.0625 8.265625 
Q 6.59375 17.96875 6.59375 36.375 
Q 6.59375 54.828125 13.0625 64.515625 
Q 19.53125 74.21875 31.78125 74.21875 
z
" id="DejaVuSans-48"/>
       <path d="M 10.6875 12.40625 
L 21 12.40625 
L 21 0 
L 10.6875 0 
z
" id="DejaVuSans-46"/>
       <path d="M 19.1875 8.296875 
L 53.609375 8.296875 
L 53.609375 0 
L 7.328125 0 
L 7.328125 8.296875 
Q 12.9375 14.109375 22.625 23.890625 
Q 32.328125 33.6875 34.8125 36.53125 
Q 39.546875 41.84375 41.421875 45.53125 
Q 43.3125 49.21875 43.3125 52.78125 
Q 43.3125 58.59375 39.234375 62.25 
Q 35.15625 65.921875 28.609375 65.921875 
Q 23.96875 65.921875 18.8125 64.3125 
Q 13.671875 62.703125 7.8125 59.421875 
L 7.8125 69.390625 
Q 13.765625 71.78125 18.9375 73 
Q 24.125 74.21875 28.421875 74.21875 
Q 39.75 74.21875 46.484375 68.546875 
Q 53.21875 62.890625 53.21875 53.421875 
Q 53.21875 48.921875 51.53125 44.890625 
Q 49.859375 40.875 45.40625 35.40625 
Q 44.1875 33.984375 37.640625 27.21875 
Q 31.109375 20.453125 19.1875 8.296875 
z
" id="DejaVuSans-50"/>
      </defs>
      <g transform="translate(51.49365 340.758542)scale(0.2 -0.2)">
       <use xlink:href="#DejaVuSans-48"/>
       <use x="63.623047" xlink:href="#DejaVuSans-46"/>
       <use x="95.410156" xlink:href="#DejaVuSans-50"/>
      </g>
     </g>
    </g>
    <g id="xtick_2">
     <g id="line2d_2">
      <g>
       <use style="stroke:#000000;stroke-width:1.6;" x="154.120063" xlink:href="#md500b7158b" y="310.861667"/>
      </g>
     </g>
     <g id="text_2">
      <!-- 0.4 -->
      <defs>
       <path d="M 37.796875 64.3125 
L 12.890625 25.390625 
L 37.796875 25.390625 
z
M 35.203125 72.90625 
L 47.609375 72.90625 
L 47.609375 25.390625 
L 58.015625 25.390625 
L 58.015625 17.1875 
L 47.609375 17.1875 
L 47.609375 0 
L 37.796875 0 
L 37.796875 17.1875 
L 4.890625 17.1875 
L 4.890625 26.703125 
z
" id="DejaVuSans-52"/>
      </defs>
      <g transform="translate(138.216938 340.758542)scale(0.2 -0.2)">
       <use xlink:href="#DejaVuSans-48"/>
       <use x="63.623047" xlink:href="#DejaVuSans-46"/>
       <use x="95.410156" xlink:href="#DejaVuSans-52"/>
      </g>
     </g>
    </g>
    <g id="xtick_3">
     <g id="line2d_3">
      <g>
       <use style="stroke:#000000;stroke-width:1.6;" x="240.84335" xlink:href="#md500b7158b" y="310.861667"/>
      </g>
     </g>
     <g id="text_3">
      <!-- 0.6 -->
      <defs>
       <path d="M 33.015625 40.375 
Q 26.375 40.375 22.484375 35.828125 
Q 18.609375 31.296875 18.609375 23.390625 
Q 18.609375 15.53125 22.484375 10.953125 
Q 26.375 6.390625 33.015625 6.390625 
Q 39.65625 6.390625 43.53125 10.953125 
Q 47.40625 15.53125 47.40625 23.390625 
Q 47.40625 31.296875 43.53125 35.828125 
Q 39.65625 40.375 33.015625 40.375 
z
M 52.59375 71.296875 
L 52.59375 62.3125 
Q 48.875 64.0625 45.09375 64.984375 
Q 41.3125 65.921875 37.59375 65.921875 
Q 27.828125 65.921875 22.671875 59.328125 
Q 17.53125 52.734375 16.796875 39.40625 
Q 19.671875 43.65625 24.015625 45.921875 
Q 28.375 48.1875 33.59375 48.1875 
Q 44.578125 48.1875 50.953125 41.515625 
Q 57.328125 34.859375 57.328125 23.390625 
Q 57.328125 12.15625 50.6875 5.359375 
Q 44.046875 -1.421875 33.015625 -1.421875 
Q 20.359375 -1.421875 13.671875 8.265625 
Q 6.984375 17.96875 6.984375 36.375 
Q 6.984375 53.65625 15.1875 63.9375 
Q 23.390625 74.21875 37.203125 74.21875 
Q 40.921875 74.21875 44.703125 73.484375 
Q 48.484375 72.75 52.59375 71.296875 
z
" id="DejaVuSans-54"/>
      </defs>
      <g transform="translate(224.940225 340.758542)scale(0.2 -0.2)">
       <use xlink:href="#DejaVuSans-48"/>
       <use x="63.623047" xlink:href="#DejaVuSans-46"/>
       <use x="95.410156" xlink:href="#DejaVuSans-54"/>
      </g>
     </g>
    </g>
    <g id="xtick_4">
     <g id="line2d_4">
      <g>
       <use style="stroke:#000000;stroke-width:1.6;" x="327.566638" xlink:href="#md500b7158b" y="310.861667"/>
      </g>
     </g>
     <g id="text_4">
      <!-- 0.8 -->
      <defs>
       <path d="M 31.78125 34.625 
Q 24.75 34.625 20.71875 30.859375 
Q 16.703125 27.09375 16.703125 20.515625 
Q 16.703125 13.921875 20.71875 10.15625 
Q 24.75 6.390625 31.78125 6.390625 
Q 38.8125 6.390625 42.859375 10.171875 
Q 46.921875 13.96875 46.921875 20.515625 
Q 46.921875 27.09375 42.890625 30.859375 
Q 38.875 34.625 31.78125 34.625 
z
M 21.921875 38.8125 
Q 15.578125 40.375 12.03125 44.71875 
Q 8.5 49.078125 8.5 55.328125 
Q 8.5 64.0625 14.71875 69.140625 
Q 20.953125 74.21875 31.78125 74.21875 
Q 42.671875 74.21875 48.875 69.140625 
Q 55.078125 64.0625 55.078125 55.328125 
Q 55.078125 49.078125 51.53125 44.71875 
Q 48 40.375 41.703125 38.8125 
Q 48.828125 37.15625 52.796875 32.3125 
Q 56.78125 27.484375 56.78125 20.515625 
Q 56.78125 9.90625 50.3125 4.234375 
Q 43.84375 -1.421875 31.78125 -1.421875 
Q 19.734375 -1.421875 13.25 4.234375 
Q 6.78125 9.90625 6.78125 20.515625 
Q 6.78125 27.484375 10.78125 32.3125 
Q 14.796875 37.15625 21.921875 38.8125 
z
M 18.3125 54.390625 
Q 18.3125 48.734375 21.84375 45.5625 
Q 25.390625 42.390625 31.78125 42.390625 
Q 38.140625 42.390625 41.71875 45.5625 
Q 45.3125 48.734375 45.3125 54.390625 
Q 45.3125 60.0625 41.71875 63.234375 
Q 38.140625 66.40625 31.78125 66.40625 
Q 25.390625 66.40625 21.84375 63.234375 
Q 18.3125 60.0625 18.3125 54.390625 
z
" id="DejaVuSans-56"/>
      </defs>
      <g transform="translate(311.663513 340.758542)scale(0.2 -0.2)">
       <use xlink:href="#DejaVuSans-48"/>
       <use x="63.623047" xlink:href="#DejaVuSans-46"/>
       <use x="95.410156" xlink:href="#DejaVuSans-56"/>
      </g>
     </g>
    </g>
   </g>
   <g id="matplotlib.axis_2">
    <g id="ytick_1">
     <g id="line2d_5">
      <defs>
       <path d="M 0 0 
L -3.5 0 
" id="m36fd4c28b0" style="stroke:#000000;stroke-width:1.6;"/>
      </defs>
      <g>
       <use style="stroke:#000000;stroke-width:1.6;" x="40.325" xlink:href="#m36fd4c28b0" y="310.861667"/>
      </g>
     </g>
     <g id="text_5">
      <!-- 0 -->
      <g transform="translate(12.9 318.460104)scale(0.2 -0.2)">
       <use xlink:href="#DejaVuSans-48"/>
      </g>
     </g>
    </g>
    <g id="ytick_2">
     <g id="line2d_6">
      <g>
       <use style="stroke:#000000;stroke-width:1.6;" x="40.325" xlink:href="#m36fd4c28b0" y="252.097843"/>
      </g>
     </g>
     <g id="text_6">
      <!-- 2 -->
      <g transform="translate(12.9 259.696281)scale(0.2 -0.2)">
       <use xlink:href="#DejaVuSans-50"/>
      </g>
     </g>
    </g>
    <g id="ytick_3">
     <g id="line2d_7">
      <g>
       <use style="stroke:#000000;stroke-width:1.6;" x="40.325" xlink:href="#m36fd4c28b0" y="193.33402"/>
      </g>
     </g>
     <g id="text_7">
      <!-- 4 -->
      <g transform="translate(12.9 200.932458)scale(0.2 -0.2)">
       <use xlink:href="#DejaVuSans-52"/>
      </g>
     </g>
    </g>
    <g id="ytick_4">
     <g id="line2d_8">
      <g>
       <use style="stroke:#000000;stroke-width:1.6;" x="40.325" xlink:href="#m36fd4c28b0" y="134.570197"/>
      </g>
     </g>
     <g id="text_8">
      <!-- 6 -->
      <g transform="translate(12.9 142.168635)scale(0.2 -0.2)">
       <use xlink:href="#DejaVuSans-54"/>
      </g>
     </g>
    </g>
    <g id="ytick_5">
     <g id="line2d_9">
      <g>
       <use style="stroke:#000000;stroke-width:1.6;" x="40.325" xlink:href="#m36fd4c28b0" y="75.806374"/>
      </g>
     </g>
     <g id="text_9">
      <!-- 8 -->
      <g transform="translate(12.9 83.404811)scale(0.2 -0.2)">
       <use xlink:href="#DejaVuSans-56"/>
      </g>
     </g>
    </g>
    <g id="ytick_6">
     <g id="line2d_10">
      <g>
       <use style="stroke:#000000;stroke-width:1.6;" x="40.325" xlink:href="#m36fd4c28b0" y="17.042551"/>
      </g>
     </g>
     <g id="text_10">
      <!-- 10 -->
      <defs>
       <path d="M 12.40625 8.296875 
L 28.515625 8.296875 
L 28.515625 63.921875 
L 10.984375 60.40625 
L 10.984375 69.390625 
L 28.421875 72.90625 
L 38.28125 72.90625 
L 38.28125 8.296875 
L 54.390625 8.296875 
L 54.390625 0 
L 12.40625 0 
z
" id="DejaVuSans-49"/>
      </defs>
      <g transform="translate(0.175 24.640988)scale(0.2 -0.2)">
       <use xlink:href="#DejaVuSans-49"/>
       <use x="63.623047" xlink:href="#DejaVuSans-48"/>
      </g>
     </g>
    </g>
   </g>
   <g id="line2d_11">
    <path clip-path="url(#p35f35acb84)" d="M 54.295985 310.847269 
L 59.438224 310.759526 
L 62.866384 310.552834 
L 68.008623 309.956378 
L 71.436783 309.60499 
L 74.864943 309.574385 
L 83.435342 310.100984 
L 85.149422 309.985125 
L 88.577581 309.406963 
L 95.433901 307.792712 
L 102.29022 306.592978 
L 104.0043 306.012004 
L 105.71838 305.15736 
L 107.432459 303.997663 
L 109.146539 302.558629 
L 116.002859 296.105009 
L 117.716938 294.85685 
L 122.859178 291.711037 
L 124.573258 290.355692 
L 126.287338 288.610474 
L 128.001417 286.42612 
L 129.715497 283.828181 
L 131.429577 280.888901 
L 134.857737 274.267334 
L 138.285896 266.795438 
L 141.714056 258.482619 
L 146.856295 245.756221 
L 153.712615 229.73119 
L 155.426695 225.0031 
L 157.140774 219.550913 
L 158.854854 213.158209 
L 160.568934 205.644131 
L 162.283014 196.915263 
L 163.997094 187.02408 
L 167.425253 164.830807 
L 170.853413 142.315204 
L 172.567493 131.987473 
L 174.281573 122.650313 
L 175.995653 114.480583 
L 177.709732 107.657199 
L 179.423812 102.412343 
L 181.137892 99.008069 
L 182.851972 97.631147 
L 184.566052 98.25855 
L 186.280131 100.58063 
L 187.994211 104.049004 
L 194.850531 120.142704 
L 196.56461 124.662466 
L 198.27869 130.051596 
L 199.99277 136.574788 
L 201.70685 144.276641 
L 203.42093 152.994845 
L 206.849089 172.247553 
L 210.277249 191.831368 
L 213.705409 210.279053 
L 217.133568 227.46774 
L 220.561728 243.571453 
L 222.275808 251.067935 
L 223.989888 258.041991 
L 225.703968 264.418107 
L 227.418047 270.200759 
L 229.132127 275.468038 
L 230.846207 280.323282 
L 232.560287 284.833403 
L 234.274367 288.99097 
L 235.988446 292.721671 
L 237.702526 295.930787 
L 239.416606 298.560488 
L 241.130686 300.626853 
L 242.844766 302.220399 
L 244.558846 303.475026 
L 247.987005 305.468786 
L 251.415165 307.200567 
L 254.843325 308.672855 
L 258.271484 309.739697 
L 261.699644 310.381567 
L 265.127804 310.696011 
L 270.270043 310.839263 
L 271.984123 310.848289 
L 271.984123 310.848289 
" style="fill:none;stroke:#000000;stroke-linecap:square;stroke-width:2;"/>
   </g>
   <g id="line2d_12">
    <path clip-path="url(#p35f35acb84)" d="M 64.433373 310.849003 
L 70.630822 310.742931 
L 75.278909 310.419762 
L 87.673808 309.155614 
L 92.321895 308.732643 
L 95.420619 308.278315 
L 98.519344 307.651935 
L 101.618069 306.737835 
L 103.167431 306.106103 
L 104.716793 305.322653 
L 106.266156 304.372399 
L 107.815518 303.254717 
L 110.914242 300.595002 
L 117.111692 294.79994 
L 123.309141 289.478511 
L 124.858503 287.784317 
L 126.407866 285.764491 
L 127.957228 283.398813 
L 131.055953 277.842007 
L 140.352126 259.604868 
L 143.450851 252.763612 
L 146.549576 245.148606 
L 151.197663 232.815492 
L 154.296387 224.166447 
L 157.395112 214.631683 
L 158.944474 209.239377 
L 160.493836 203.291173 
L 162.043199 196.740276 
L 165.141923 181.946555 
L 168.240648 165.566001 
L 172.888735 140.618042 
L 175.987459 125.697087 
L 177.536822 119.208687 
L 179.086184 113.501644 
L 180.635546 108.616465 
L 182.184909 104.542886 
L 183.734271 101.227578 
L 185.283633 98.593954 
L 186.832996 96.575074 
L 188.382358 95.154991 
L 189.93172 94.406245 
L 191.481083 94.50657 
L 193.030445 95.721074 
L 194.579807 98.347866 
L 196.129169 102.640454 
L 197.678532 108.731444 
L 199.227894 116.582973 
L 200.777256 125.979598 
L 203.875981 147.899008 
L 208.524068 182.265998 
L 211.622793 202.725501 
L 214.721517 220.475586 
L 217.820242 236.183666 
L 220.918966 250.643103 
L 224.017691 263.930514 
L 225.567053 269.9882 
L 227.116416 275.578694 
L 228.665778 280.67876 
L 230.21514 285.293059 
L 231.764503 289.442819 
L 233.313865 293.15296 
L 234.863227 296.443408 
L 236.412589 299.326759 
L 237.961952 301.811348 
L 239.511314 303.9072 
L 241.060676 305.631867 
L 242.610039 307.013732 
L 244.159401 308.091616 
L 245.708763 308.911168 
L 247.258126 309.519714 
L 248.807488 309.961574 
L 251.906213 310.492028 
L 255.004937 310.731394 
L 259.653024 310.841202 
L 261.202386 310.848928 
L 261.202386 310.848928 
" style="fill:none;stroke:#000000;stroke-dasharray:7.4,3.2;stroke-dashoffset:0;stroke-width:2;"/>
   </g>
   <g id="line2d_13">
    <path clip-path="url(#p35f35acb84)" d="M 159.949053 310.84489 
L 165.422018 310.699196 
L 169.526741 310.322181 
L 173.631465 309.998133 
L 180.472671 309.968134 
L 183.209153 309.471807 
L 188.682118 308.0237 
L 190.050359 307.900603 
L 191.4186 307.945048 
L 194.155082 308.442226 
L 196.891565 309.052779 
L 198.259806 309.189962 
L 199.628047 309.116091 
L 200.996288 308.791503 
L 202.364529 308.21788 
L 205.101012 306.538172 
L 209.205735 303.818155 
L 211.942218 302.039782 
L 214.6787 299.860684 
L 218.783423 296.348444 
L 221.519906 294.479519 
L 224.256388 292.650009 
L 225.624629 291.559289 
L 226.99287 290.300733 
L 228.361112 288.873446 
L 229.729353 287.28003 
L 231.097594 285.496116 
L 232.465835 283.446466 
L 233.834076 280.997693 
L 235.202317 277.972342 
L 236.570559 274.182357 
L 237.9388 269.474249 
L 239.307041 263.774779 
L 240.675282 257.125568 
L 243.411765 241.784079 
L 246.148247 226.052597 
L 247.516488 219.019235 
L 248.884729 212.905286 
L 250.25297 207.746578 
L 252.989453 199.300637 
L 254.357694 195.132831 
L 255.725935 190.399398 
L 257.094176 184.81295 
L 258.462417 178.283012 
L 259.830659 170.888982 
L 262.567141 154.230404 
L 265.303623 136.043176 
L 268.040106 116.213778 
L 270.776588 93.508261 
L 276.249553 43.252628 
L 277.617794 33.05952 
L 278.986035 25.219671 
L 280.354276 20.168702 
L 281.722517 18.135667 
L 283.090758 19.215985 
L 284.459 23.444396 
L 285.827241 30.803566 
L 287.195482 41.154725 
L 288.563723 54.143134 
L 289.931964 69.161398 
L 296.77317 149.221407 
L 299.509653 176.515009 
L 302.246135 201.191265 
L 304.982617 223.981879 
L 307.7191 245.000418 
L 310.455582 263.877105 
L 311.823823 272.331653 
L 313.192064 280.007544 
L 314.560305 286.802506 
L 315.928547 292.62981 
L 317.296788 297.447268 
L 318.665029 301.2778 
L 320.03327 304.209708 
L 321.401511 306.376792 
L 322.769752 307.929362 
L 324.137994 309.009502 
L 325.506235 309.737856 
L 326.874476 310.211077 
L 328.242717 310.504769 
L 330.979199 310.772004 
L 333.715682 310.840658 
L 333.715682 310.840658 
" style="fill:none;stroke:#000000;stroke-dasharray:2,3.3;stroke-dashoffset:0;stroke-width:2;"/>
   </g>
   <g id="patch_3">
    <path d="M 40.325 310.861667 
L 40.325 3.5 
" style="fill:none;stroke:#000000;stroke-linecap:square;stroke-linejoin:miter;stroke-width:0.8;"/>
   </g>
   <g id="patch_4">
    <path d="M 40.325 310.861667 
L 347.686667 310.861667 
" style="fill:none;stroke:#000000;stroke-linecap:square;stroke-linejoin:miter;stroke-width:0.8;"/>
   </g>
  </g>
  <g id="axes_2">
   <g id="patch_5">
    <path d="M 389.921667 310.861667 
L 697.283333 310.861667 
L 697.283333 3.5 
L 389.921667 3.5 
z
" style="fill:#ffffff;"/>
   </g>
   <g id="matplotlib.axis_3">
    <g id="xtick_5">
     <g id="line2d_14">
      <g>
       <use style="stroke:#000000;stroke-width:1.6;" x="456.085452" xlink:href="#md500b7158b" y="310.861667"/>
      </g>
     </g>
     <g id="text_11">
      <!-- 0.0 -->
      <g transform="translate(440.182327 340.758542)scale(0.2 -0.2)">
       <use xlink:href="#DejaVuSans-48"/>
       <use x="63.623047" xlink:href="#DejaVuSans-46"/>
       <use x="95.410156" xlink:href="#DejaVuSans-48"/>
      </g>
     </g>
    </g>
    <g id="xtick_6">
     <g id="line2d_15">
      <g>
       <use style="stroke:#000000;stroke-width:1.6;" x="557.518214" xlink:href="#md500b7158b" y="310.861667"/>
      </g>
     </g>
     <g id="text_12">
      <!-- 0.2 -->
      <g transform="translate(541.615089 340.758542)scale(0.2 -0.2)">
       <use xlink:href="#DejaVuSans-48"/>
       <use x="63.623047" xlink:href="#DejaVuSans-46"/>
       <use x="95.410156" xlink:href="#DejaVuSans-50"/>
      </g>
     </g>
    </g>
    <g id="xtick_7">
     <g id="line2d_16">
      <g>
       <use style="stroke:#000000;stroke-width:1.6;" x="658.950977" xlink:href="#md500b7158b" y="310.861667"/>
      </g>
     </g>
     <g id="text_13">
      <!-- 0.4 -->
      <g transform="translate(643.047852 340.758542)scale(0.2 -0.2)">
       <use xlink:href="#DejaVuSans-48"/>
       <use x="63.623047" xlink:href="#DejaVuSans-46"/>
       <use x="95.410156" xlink:href="#DejaVuSans-52"/>
      </g>
     </g>
    </g>
   </g>
   <g id="matplotlib.axis_4">
    <g id="ytick_7">
     <g id="line2d_17">
      <g>
       <use style="stroke:#000000;stroke-width:1.6;" x="389.921667" xlink:href="#m36fd4c28b0" y="310.861667"/>
      </g>
     </g>
     <g id="text_14">
      <!-- 0 -->
      <g transform="translate(362.496667 318.460104)scale(0.2 -0.2)">
       <use xlink:href="#DejaVuSans-48"/>
      </g>
     </g>
    </g>
    <g id="ytick_8">
     <g id="line2d_18">
      <g>
       <use style="stroke:#000000;stroke-width:1.6;" x="389.921667" xlink:href="#m36fd4c28b0" y="239.043851"/>
      </g>
     </g>
     <g id="text_15">
      <!-- 2 -->
      <g transform="translate(362.496667 246.642289)scale(0.2 -0.2)">
       <use xlink:href="#DejaVuSans-50"/>
      </g>
     </g>
    </g>
    <g id="ytick_9">
     <g id="line2d_19">
      <g>
       <use style="stroke:#000000;stroke-width:1.6;" x="389.921667" xlink:href="#m36fd4c28b0" y="167.226036"/>
      </g>
     </g>
     <g id="text_16">
      <!-- 4 -->
      <g transform="translate(362.496667 174.824473)scale(0.2 -0.2)">
       <use xlink:href="#DejaVuSans-52"/>
      </g>
     </g>
    </g>
    <g id="ytick_10">
     <g id="line2d_20">
      <g>
       <use style="stroke:#000000;stroke-width:1.6;" x="389.921667" xlink:href="#m36fd4c28b0" y="95.40822"/>
      </g>
     </g>
     <g id="text_17">
      <!-- 6 -->
      <g transform="translate(362.496667 103.006658)scale(0.2 -0.2)">
       <use xlink:href="#DejaVuSans-54"/>
      </g>
     </g>
    </g>
    <g id="ytick_11">
     <g id="line2d_21">
      <g>
       <use style="stroke:#000000;stroke-width:1.6;" x="389.921667" xlink:href="#m36fd4c28b0" y="23.590405"/>
      </g>
     </g>
     <g id="text_18">
      <!-- 8 -->
      <g transform="translate(362.496667 31.188842)scale(0.2 -0.2)">
       <use xlink:href="#DejaVuSans-56"/>
      </g>
     </g>
    </g>
   </g>
   <g id="line2d_22">
    <path clip-path="url(#p519a856e7d)" d="M 0 0 
" style="fill:none;stroke:#000000;stroke-linecap:square;stroke-width:2;"/>
   </g>
   <g id="line2d_23">
    <path clip-path="url(#p519a856e7d)" d="M 0 0 
" style="fill:none;stroke:#000000;stroke-dasharray:7.4,3.2;stroke-dashoffset:0;stroke-width:2;"/>
   </g>
   <g id="patch_6">
    <path style="fill:none;stroke:#000000;stroke-linecap:square;stroke-linejoin:miter;stroke-width:0.8;"/>
   </g>
   <g id="patch_7">
    <path style="fill:none;stroke:#000000;stroke-linecap:square;stroke-linejoin:miter;stroke-width:0.8;"/>
   </g>
  </g>
 </g>
 <defs>
  <clipPath id="p35f35acb84">
   <rect height="307.361667" width="307.361667" x="40.325" y="3.5"/>
  </clipPath>
  <clipPath id="p519a856e7d">
   <rect height="307.361667" width="307.361667" x="389.921667" y="3.5"/>
  </clipPath>
 </defs>
</svg>
