<?xml version="1.0" encoding="utf-8" standalone="no"?>
<!DOCTYPE svg PUBLIC "-//W3C//DTD SVG 1.1//EN"
  "http://www.w3.org/Graphics/SVG/1.1/DTD/svg11.dtd">
<!-- Created with matplotlib (https://matplotlib.org/) -->
<svg height="348.811667pt" version="1.1" viewBox="0 0 342.686667 348.811667" width="342.686667pt" xmlns="http://www.w3.org/2000/svg" xmlns:xlink="http://www.w3.org/1999/xlink">
 <defs>
  <style type="text/css">
*{stroke-linecap:butt;stroke-linejoin:round;}
  </style>
 </defs>
 <g id="figure_1">
  <g id="patch_1">
   <path d="M 0 348.811667 
L 342.686667 348.811667 
L 342.686667 0 
L 0 0 
z
" style="fill:#ffffff;"/>
  </g>
  <g id="axes_1">
   <g id="patch_2">
    <path d="M 27.575 315.111667 
L 339.186667 315.111667 
L 339.186667 3.5 
L 27.575 3.5 
z
" style="fill:#ffffff;"/>
   </g>
   <g id="matplotlib.axis_1">
    <g id="xtick_1">
     <g id="line2d_1">
      <defs>
       <path d="M 0 0 
L 0 3.5 
" id="m2ca739a256" style="stroke:#000000;stroke-width:1.6;"/>
      </defs>
      <g>
       <use style="stroke:#000000;stroke-width:1.6;" x="39.447948" xlink:href="#m2ca739a256" y="315.111667"/>
      </g>
     </g>
     <g id="text_1">
      <!-- 0.0 -->
      <defs>
       <path d="M 31.78125 66.40625 
Q 24.171875 66.40625 20.328125 58.90625 
Q 16.5 51.421875 16.5 36.375 
Q 16.5 21.390625 20.328125 13.890625 
Q 24.171875 6.390625 31.78125 6.390625 
Q 39.453125 6.390625 43.28125 13.890625 
Q 47.125 21.390625 47.125 36.375 
Q 47.125 51.421875 43.28125 58.90625 
Q 39.453125 66.40625 31.78125 66.40625 
z
M 31.78125 74.21875 
Q 44.046875 74.21875 50.515625 64.515625 
Q 56.984375 54.828125 56.984375 36.375 
Q 56.984375 17.96875 50.515625 8.265625 
Q 44.046875 -1.421875 31.78125 -1.421875 
Q 19.53125 -1.421875 13.0625 8.265625 
Q 6.59375 17.96875 6.59375 36.375 
Q 6.59375 54.828125 13.0625 64.515625 
Q 19.53125 74.21875 31.78125 74.21875 
z
" id="DejaVuSans-48"/>
       <path d="M 10.6875 12.40625 
L 21 12.40625 
L 21 0 
L 10.6875 0 
z
" id="DejaVuSans-46"/>
      </defs>
      <g transform="translate(23.544823 345.008542)scale(0.2 -0.2)">
       <use xlink:href="#DejaVuSans-48"/>
       <use x="63.623047" xlink:href="#DejaVuSans-46"/>
       <use x="95.410156" xlink:href="#DejaVuSans-48"/>
      </g>
     </g>
    </g>
    <g id="xtick_2">
     <g id="line2d_2">
      <g>
       <use style="stroke:#000000;stroke-width:1.6;" x="109.361463" xlink:href="#m2ca739a256" y="315.111667"/>
      </g>
     </g>
     <g id="text_2">
      <!-- 0.2 -->
      <defs>
       <path d="M 19.1875 8.296875 
L 53.609375 8.296875 
L 53.609375 0 
L 7.328125 0 
L 7.328125 8.296875 
Q 12.9375 14.109375 22.625 23.890625 
Q 32.328125 33.6875 34.8125 36.53125 
Q 39.546875 41.84375 41.421875 45.53125 
Q 43.3125 49.21875 43.3125 52.78125 
Q 43.3125 58.59375 39.234375 62.25 
Q 35.15625 65.921875 28.609375 65.921875 
Q 23.96875 65.921875 18.8125 64.3125 
Q 13.671875 62.703125 7.8125 59.421875 
L 7.8125 69.390625 
Q 13.765625 71.78125 18.9375 73 
Q 24.125 74.21875 28.421875 74.21875 
Q 39.75 74.21875 46.484375 68.546875 
Q 53.21875 62.890625 53.21875 53.421875 
Q 53.21875 48.921875 51.53125 44.890625 
Q 49.859375 40.875 45.40625 35.40625 
Q 44.1875 33.984375 37.640625 27.21875 
Q 31.109375 20.453125 19.1875 8.296875 
z
" id="DejaVuSans-50"/>
      </defs>
      <g transform="translate(93.458338 345.008542)scale(0.2 -0.2)">
       <use xlink:href="#DejaVuSans-48"/>
       <use x="63.623047" xlink:href="#DejaVuSans-46"/>
       <use x="95.410156" xlink:href="#DejaVuSans-50"/>
      </g>
     </g>
    </g>
    <g id="xtick_3">
     <g id="line2d_3">
      <g>
       <use style="stroke:#000000;stroke-width:1.6;" x="179.274977" xlink:href="#m2ca739a256" y="315.111667"/>
      </g>
     </g>
     <g id="text_3">
      <!-- 0.4 -->
      <defs>
       <path d="M 37.796875 64.3125 
L 12.890625 25.390625 
L 37.796875 25.390625 
z
M 35.203125 72.90625 
L 47.609375 72.90625 
L 47.609375 25.390625 
L 58.015625 25.390625 
L 58.015625 17.1875 
L 47.609375 17.1875 
L 47.609375 0 
L 37.796875 0 
L 37.796875 17.1875 
L 4.890625 17.1875 
L 4.890625 26.703125 
z
" id="DejaVuSans-52"/>
      </defs>
      <g transform="translate(163.371852 345.008542)scale(0.2 -0.2)">
       <use xlink:href="#DejaVuSans-48"/>
       <use x="63.623047" xlink:href="#DejaVuSans-46"/>
       <use x="95.410156" xlink:href="#DejaVuSans-52"/>
      </g>
     </g>
    </g>
    <g id="xtick_4">
     <g id="line2d_4">
      <g>
       <use style="stroke:#000000;stroke-width:1.6;" x="249.188492" xlink:href="#m2ca739a256" y="315.111667"/>
      </g>
     </g>
     <g id="text_4">
      <!-- 0.6 -->
      <defs>
       <path d="M 33.015625 40.375 
Q 26.375 40.375 22.484375 35.828125 
Q 18.609375 31.296875 18.609375 23.390625 
Q 18.609375 15.53125 22.484375 10.953125 
Q 26.375 6.390625 33.015625 6.390625 
Q 39.65625 6.390625 43.53125 10.953125 
Q 47.40625 15.53125 47.40625 23.390625 
Q 47.40625 31.296875 43.53125 35.828125 
Q 39.65625 40.375 33.015625 40.375 
z
M 52.59375 71.296875 
L 52.59375 62.3125 
Q 48.875 64.0625 45.09375 64.984375 
Q 41.3125 65.921875 37.59375 65.921875 
Q 27.828125 65.921875 22.671875 59.328125 
Q 17.53125 52.734375 16.796875 39.40625 
Q 19.671875 43.65625 24.015625 45.921875 
Q 28.375 48.1875 33.59375 48.1875 
Q 44.578125 48.1875 50.953125 41.515625 
Q 57.328125 34.859375 57.328125 23.390625 
Q 57.328125 12.15625 50.6875 5.359375 
Q 44.046875 -1.421875 33.015625 -1.421875 
Q 20.359375 -1.421875 13.671875 8.265625 
Q 6.984375 17.96875 6.984375 36.375 
Q 6.984375 53.65625 15.1875 63.9375 
Q 23.390625 74.21875 37.203125 74.21875 
Q 40.921875 74.21875 44.703125 73.484375 
Q 48.484375 72.75 52.59375 71.296875 
z
" id="DejaVuSans-54"/>
      </defs>
      <g transform="translate(233.285367 345.008542)scale(0.2 -0.2)">
       <use xlink:href="#DejaVuSans-48"/>
       <use x="63.623047" xlink:href="#DejaVuSans-46"/>
       <use x="95.410156" xlink:href="#DejaVuSans-54"/>
      </g>
     </g>
    </g>
    <g id="xtick_5">
     <g id="line2d_5">
      <g>
       <use style="stroke:#000000;stroke-width:1.6;" x="319.102006" xlink:href="#m2ca739a256" y="315.111667"/>
      </g>
     </g>
     <g id="text_5">
      <!-- 0.8 -->
      <defs>
       <path d="M 31.78125 34.625 
Q 24.75 34.625 20.71875 30.859375 
Q 16.703125 27.09375 16.703125 20.515625 
Q 16.703125 13.921875 20.71875 10.15625 
Q 24.75 6.390625 31.78125 6.390625 
Q 38.8125 6.390625 42.859375 10.171875 
Q 46.921875 13.96875 46.921875 20.515625 
Q 46.921875 27.09375 42.890625 30.859375 
Q 38.875 34.625 31.78125 34.625 
z
M 21.921875 38.8125 
Q 15.578125 40.375 12.03125 44.71875 
Q 8.5 49.078125 8.5 55.328125 
Q 8.5 64.0625 14.71875 69.140625 
Q 20.953125 74.21875 31.78125 74.21875 
Q 42.671875 74.21875 48.875 69.140625 
Q 55.078125 64.0625 55.078125 55.328125 
Q 55.078125 49.078125 51.53125 44.71875 
Q 48 40.375 41.703125 38.8125 
Q 48.828125 37.15625 52.796875 32.3125 
Q 56.78125 27.484375 56.78125 20.515625 
Q 56.78125 9.90625 50.3125 4.234375 
Q 43.84375 -1.421875 31.78125 -1.421875 
Q 19.734375 -1.421875 13.25 4.234375 
Q 6.78125 9.90625 6.78125 20.515625 
Q 6.78125 27.484375 10.78125 32.3125 
Q 14.796875 37.15625 21.921875 38.8125 
z
M 18.3125 54.390625 
Q 18.3125 48.734375 21.84375 45.5625 
Q 25.390625 42.390625 31.78125 42.390625 
Q 38.140625 42.390625 41.71875 45.5625 
Q 45.3125 48.734375 45.3125 54.390625 
Q 45.3125 60.0625 41.71875 63.234375 
Q 38.140625 66.40625 31.78125 66.40625 
Q 25.390625 66.40625 21.84375 63.234375 
Q 18.3125 60.0625 18.3125 54.390625 
z
" id="DejaVuSans-56"/>
      </defs>
      <g transform="translate(303.198881 345.008542)scale(0.2 -0.2)">
       <use xlink:href="#DejaVuSans-48"/>
       <use x="63.623047" xlink:href="#DejaVuSans-46"/>
       <use x="95.410156" xlink:href="#DejaVuSans-56"/>
      </g>
     </g>
    </g>
   </g>
   <g id="matplotlib.axis_2">
    <g id="ytick_1">
     <g id="line2d_6">
      <defs>
       <path d="M 0 0 
L -3.5 0 
" id="m6a6e20349f" style="stroke:#000000;stroke-width:1.6;"/>
      </defs>
      <g>
       <use style="stroke:#000000;stroke-width:1.6;" x="27.575" xlink:href="#m6a6e20349f" y="315.111667"/>
      </g>
     </g>
     <g id="text_6">
      <!-- 0 -->
      <g transform="translate(0.15 322.710104)scale(0.2 -0.2)">
       <use xlink:href="#DejaVuSans-48"/>
      </g>
     </g>
    </g>
    <g id="ytick_2">
     <g id="line2d_7">
      <g>
       <use style="stroke:#000000;stroke-width:1.6;" x="27.575" xlink:href="#m6a6e20349f" y="250.653277"/>
      </g>
     </g>
     <g id="text_7">
      <!-- 2 -->
      <g transform="translate(0.15 258.251714)scale(0.2 -0.2)">
       <use xlink:href="#DejaVuSans-50"/>
      </g>
     </g>
    </g>
    <g id="ytick_3">
     <g id="line2d_8">
      <g>
       <use style="stroke:#000000;stroke-width:1.6;" x="27.575" xlink:href="#m6a6e20349f" y="186.194887"/>
      </g>
     </g>
     <g id="text_8">
      <!-- 4 -->
      <g transform="translate(0.15 193.793324)scale(0.2 -0.2)">
       <use xlink:href="#DejaVuSans-52"/>
      </g>
     </g>
    </g>
    <g id="ytick_4">
     <g id="line2d_9">
      <g>
       <use style="stroke:#000000;stroke-width:1.6;" x="27.575" xlink:href="#m6a6e20349f" y="121.736497"/>
      </g>
     </g>
     <g id="text_9">
      <!-- 6 -->
      <g transform="translate(0.15 129.334934)scale(0.2 -0.2)">
       <use xlink:href="#DejaVuSans-54"/>
      </g>
     </g>
    </g>
    <g id="ytick_5">
     <g id="line2d_10">
      <g>
       <use style="stroke:#000000;stroke-width:1.6;" x="27.575" xlink:href="#m6a6e20349f" y="57.278107"/>
      </g>
     </g>
     <g id="text_10">
      <!-- 8 -->
      <g transform="translate(0.15 64.876544)scale(0.2 -0.2)">
       <use xlink:href="#DejaVuSans-56"/>
      </g>
     </g>
    </g>
   </g>
   <g id="line2d_11">
    <path clip-path="url(#p5ea73d19f2)" d="M 85.488489 315.088583 
L 89.772543 314.979319 
L 92.628579 314.695445 
L 99.768669 313.716317 
L 102.624705 313.810171 
L 106.908758 314.444434 
L 109.764794 314.750347 
L 112.62083 314.693834 
L 115.476866 314.325408 
L 121.188938 313.317636 
L 126.90101 312.170921 
L 129.757046 312.033031 
L 134.0411 312.045268 
L 135.469118 311.757441 
L 136.897136 311.142762 
L 138.325154 310.171831 
L 141.18119 307.678838 
L 142.609208 306.658558 
L 144.037226 306.087206 
L 145.465244 305.995937 
L 149.749298 306.606661 
L 151.177316 306.410267 
L 154.033352 305.396322 
L 156.889388 304.40006 
L 159.745424 303.49936 
L 161.173442 302.79442 
L 162.60146 301.776587 
L 164.029478 300.412497 
L 165.457496 298.723507 
L 166.885514 296.764938 
L 169.74155 292.300314 
L 172.597586 287.224249 
L 174.025604 284.330743 
L 178.309658 274.940426 
L 179.737676 272.47918 
L 181.165694 270.710519 
L 184.02173 268.174754 
L 185.449748 266.143075 
L 186.877766 262.649849 
L 188.305784 257.279336 
L 189.733802 250.069495 
L 191.16182 241.479617 
L 195.445874 212.798623 
L 196.873892 202.501484 
L 198.301909 191.077741 
L 199.729927 177.989846 
L 201.157945 163.01771 
L 204.013981 128.744803 
L 206.870017 94.049049 
L 208.298035 78.809211 
L 209.726053 65.97737 
L 211.154071 56.08763 
L 212.582089 49.422333 
L 214.010107 45.933161 
L 215.438125 45.254813 
L 216.866143 46.866613 
L 218.294161 50.328936 
L 219.722179 55.445624 
L 221.150197 62.258708 
L 222.578215 70.906777 
L 224.006233 81.452333 
L 225.434251 93.75865 
L 228.290287 121.822547 
L 231.146323 149.438503 
L 232.574341 161.271208 
L 234.002359 171.524223 
L 238.286413 198.879085 
L 239.714431 209.267079 
L 242.570467 232.933049 
L 245.426503 257.269767 
L 246.854521 268.159546 
L 248.282539 277.572066 
L 249.710557 285.36971 
L 251.138575 291.712105 
L 252.566593 296.932173 
L 253.994611 301.34796 
L 255.422629 305.129973 
L 256.850647 308.292901 
L 258.278665 310.784297 
L 259.706683 312.586846 
L 261.134701 313.767481 
L 262.562719 314.462127 
L 263.990737 314.827674 
L 266.846773 315.068491 
L 266.846773 315.068491 
" style="fill:none;stroke:#000000;stroke-linecap:square;stroke-width:2;"/>
   </g>
   <g id="line2d_12">
    <path clip-path="url(#p5ea73d19f2)" d="M 41.739167 315.098477 
L 45.11335 315.015868 
L 48.487533 314.69695 
L 51.861716 314.261538 
L 53.548807 314.194387 
L 55.235899 314.292721 
L 60.297173 314.92521 
L 63.671356 315.084779 
L 75.480997 315.111666 
L 88.977729 315.019118 
L 92.351912 314.702949 
L 95.726095 314.251004 
L 97.413187 314.14762 
L 102.474461 314.110387 
L 107.535736 313.31295 
L 109.222827 313.340542 
L 112.59701 313.873046 
L 114.284102 313.887817 
L 115.971193 313.392165 
L 117.658285 312.289637 
L 122.71956 307.567064 
L 124.406651 306.610417 
L 126.093743 306.05525 
L 127.780834 305.696483 
L 129.467926 305.458489 
L 131.155017 305.457059 
L 132.842109 305.822304 
L 136.216292 307.244037 
L 137.903383 307.636191 
L 139.590475 307.276825 
L 141.277566 305.949642 
L 142.964658 303.83014 
L 144.651749 301.488517 
L 146.338841 299.560611 
L 148.025932 298.287784 
L 149.713024 297.3385 
L 151.400115 296.107964 
L 153.087207 294.246865 
L 156.46139 289.717509 
L 161.522664 283.996373 
L 163.209756 280.973611 
L 164.896847 276.973714 
L 166.583939 272.161639 
L 168.27103 266.707637 
L 169.958122 260.544925 
L 171.645214 253.240303 
L 173.332305 244.118426 
L 175.019397 232.703726 
L 176.706488 219.208094 
L 183.454854 160.066568 
L 185.141946 143.188301 
L 186.829037 123.705547 
L 190.20322 80.586158 
L 191.890312 61.992606 
L 193.577403 48.217118 
L 195.264495 38.874071 
L 196.951586 31.925579 
L 198.638678 25.728406 
L 200.325769 20.577782 
L 202.012861 18.338651 
L 203.699952 20.844263 
L 205.387044 28.901035 
L 207.074135 42.574608 
L 208.761227 61.648422 
L 210.448318 85.28398 
L 215.509593 162.703602 
L 217.196685 185.275434 
L 218.883776 206.089992 
L 220.570868 225.525519 
L 222.257959 243.454524 
L 223.945051 259.44185 
L 225.632142 273.176054 
L 227.319234 284.639044 
L 229.006325 293.966646 
L 230.693417 301.283873 
L 232.380508 306.700722 
L 234.0676 310.398325 
L 235.754691 312.665596 
L 237.441783 313.854748 
L 239.128874 314.315241 
L 240.815966 314.358342 
L 244.190149 314.182977 
L 245.87724 314.25906 
L 252.625606 315.015867 
L 255.999789 315.098477 
L 255.999789 315.098477 
" style="fill:none;stroke:#000000;stroke-dasharray:7.4,3.2;stroke-dashoffset:0;stroke-width:2;"/>
   </g>
   <g id="line2d_13">
    <path clip-path="url(#p5ea73d19f2)" d="M 80.298598 315.101013 
L 86.079477 314.999605 
L 91.860357 314.624894 
L 95.714277 314.42546 
L 101.495156 314.516074 
L 105.349076 314.498881 
L 111.129955 314.449639 
L 122.691715 314.99444 
L 126.545634 314.830105 
L 136.180434 314.156283 
L 141.961313 314.187452 
L 145.815233 314.263324 
L 147.742193 314.195908 
L 149.669153 314.000276 
L 157.376992 312.770141 
L 165.084832 312.285299 
L 167.011791 311.890052 
L 168.938751 311.313327 
L 176.646591 308.53956 
L 180.50051 307.563163 
L 182.42747 306.882152 
L 184.35443 305.899868 
L 190.13531 302.031286 
L 192.06227 301.130902 
L 195.916189 300.03343 
L 197.843149 299.227222 
L 199.770109 297.825789 
L 201.697069 295.742705 
L 207.477948 287.839743 
L 209.404908 285.748369 
L 211.331868 284.096858 
L 213.258828 282.595543 
L 215.185788 280.798167 
L 217.112748 278.298233 
L 219.039708 274.883015 
L 220.966667 270.545412 
L 222.893627 265.360427 
L 224.820587 259.336391 
L 226.747547 252.362985 
L 228.674507 244.295474 
L 230.601467 235.113618 
L 238.309306 194.754481 
L 242.163226 177.613495 
L 246.017146 160.507741 
L 249.871065 141.890281 
L 253.724985 122.066472 
L 257.578905 101.879463 
L 259.505865 93.629221 
L 261.432825 88.137332 
L 263.359784 86.012361 
L 265.286744 87.212749 
L 267.213704 91.376962 
L 269.140664 98.273095 
L 271.067624 107.987705 
L 272.994584 120.728594 
L 274.921544 136.42601 
L 276.848503 154.451696 
L 282.629383 211.06029 
L 284.556343 227.874688 
L 286.483303 243.249779 
L 288.410263 257.177163 
L 290.337222 269.501134 
L 292.264182 279.981847 
L 294.191142 288.484598 
L 296.118102 295.094408 
L 298.045062 300.081624 
L 299.972022 303.790967 
L 301.898982 306.551647 
L 303.825942 308.638642 
L 305.752901 310.26151 
L 307.679861 311.560163 
L 309.606821 312.60997 
L 311.533781 313.441677 
L 313.460741 314.068835 
L 315.387701 314.509191 
L 317.314661 314.792724 
L 321.16858 315.044985 
L 325.0225 315.100214 
L 325.0225 315.100214 
" style="fill:none;stroke:#000000;stroke-dasharray:2,3.3;stroke-dashoffset:0;stroke-width:2;"/>
   </g>
   <g id="patch_3">
    <path d="M 27.575 315.111667 
L 27.575 3.5 
" style="fill:none;stroke:#000000;stroke-linecap:square;stroke-linejoin:miter;stroke-width:0.8;"/>
   </g>
   <g id="patch_4">
    <path d="M 27.575 315.111667 
L 339.186667 315.111667 
" style="fill:none;stroke:#000000;stroke-linecap:square;stroke-linejoin:miter;stroke-width:0.8;"/>
   </g>
  </g>
  <g id="axes_2">
   <g id="patch_5">
    <path d="M 381.421667 315.111667 
L 693.033333 315.111667 
L 693.033333 3.5 
L 381.421667 3.5 
z
" style="fill:#ffffff;"/>
   </g>
   <g id="matplotlib.axis_3">
    <g id="xtick_6">
     <g id="line2d_14">
      <g>
       <use style="stroke:#000000;stroke-width:1.6;" x="434.006542" xlink:href="#m2ca739a256" y="315.111667"/>
      </g>
     </g>
     <g id="text_11">
      <!-- −0.25 -->
      <defs>
       <path d="M 10.59375 35.5 
L 73.1875 35.5 
L 73.1875 27.203125 
L 10.59375 27.203125 
z
" id="DejaVuSans-8722"/>
       <path d="M 10.796875 72.90625 
L 49.515625 72.90625 
L 49.515625 64.59375 
L 19.828125 64.59375 
L 19.828125 46.734375 
Q 21.96875 47.46875 24.109375 47.828125 
Q 26.265625 48.1875 28.421875 48.1875 
Q 40.625 48.1875 47.75 41.5 
Q 54.890625 34.8125 54.890625 23.390625 
Q 54.890625 11.625 47.5625 5.09375 
Q 40.234375 -1.421875 26.90625 -1.421875 
Q 22.3125 -1.421875 17.546875 -0.640625 
Q 12.796875 0.140625 7.71875 1.703125 
L 7.71875 11.625 
Q 12.109375 9.234375 16.796875 8.0625 
Q 21.484375 6.890625 26.703125 6.890625 
Q 35.15625 6.890625 40.078125 11.328125 
Q 45.015625 15.765625 45.015625 23.390625 
Q 45.015625 31 40.078125 35.4375 
Q 35.15625 39.890625 26.703125 39.890625 
Q 22.75 39.890625 18.8125 39.015625 
Q 14.890625 38.140625 10.796875 36.28125 
z
" id="DejaVuSans-53"/>
      </defs>
      <g transform="translate(403.36123 345.008542)scale(0.2 -0.2)">
       <use xlink:href="#DejaVuSans-8722"/>
       <use x="83.789062" xlink:href="#DejaVuSans-48"/>
       <use x="147.412109" xlink:href="#DejaVuSans-46"/>
       <use x="179.199219" xlink:href="#DejaVuSans-50"/>
       <use x="242.822266" xlink:href="#DejaVuSans-53"/>
      </g>
     </g>
    </g>
    <g id="xtick_7">
     <g id="line2d_15">
      <g>
       <use style="stroke:#000000;stroke-width:1.6;" x="508.262219" xlink:href="#m2ca739a256" y="315.111667"/>
      </g>
     </g>
     <g id="text_12">
      <!-- 0.00 -->
      <g transform="translate(485.996594 345.008542)scale(0.2 -0.2)">
       <use xlink:href="#DejaVuSans-48"/>
       <use x="63.623047" xlink:href="#DejaVuSans-46"/>
       <use x="95.410156" xlink:href="#DejaVuSans-48"/>
       <use x="159.033203" xlink:href="#DejaVuSans-48"/>
      </g>
     </g>
    </g>
    <g id="xtick_8">
     <g id="line2d_16">
      <g>
       <use style="stroke:#000000;stroke-width:1.6;" x="582.517895" xlink:href="#m2ca739a256" y="315.111667"/>
      </g>
     </g>
     <g id="text_13">
      <!-- 0.25 -->
      <g transform="translate(560.25227 345.008542)scale(0.2 -0.2)">
       <use xlink:href="#DejaVuSans-48"/>
       <use x="63.623047" xlink:href="#DejaVuSans-46"/>
       <use x="95.410156" xlink:href="#DejaVuSans-50"/>
       <use x="159.033203" xlink:href="#DejaVuSans-53"/>
      </g>
     </g>
    </g>
    <g id="xtick_9">
     <g id="line2d_17">
      <g>
       <use style="stroke:#000000;stroke-width:1.6;" x="656.773572" xlink:href="#m2ca739a256" y="315.111667"/>
      </g>
     </g>
     <g id="text_14">
      <!-- 0.50 -->
      <g transform="translate(634.507947 345.008542)scale(0.2 -0.2)">
       <use xlink:href="#DejaVuSans-48"/>
       <use x="63.623047" xlink:href="#DejaVuSans-46"/>
       <use x="95.410156" xlink:href="#DejaVuSans-53"/>
       <use x="159.033203" xlink:href="#DejaVuSans-48"/>
      </g>
     </g>
    </g>
   </g>
   <g id="matplotlib.axis_4">
    <g id="ytick_6">
     <g id="line2d_18">
      <g>
       <use style="stroke:#000000;stroke-width:1.6;" x="381.421667" xlink:href="#m6a6e20349f" y="315.111667"/>
      </g>
     </g>
     <g id="text_15">
      <!-- 0 -->
      <g transform="translate(353.996667 322.710104)scale(0.2 -0.2)">
       <use xlink:href="#DejaVuSans-48"/>
      </g>
     </g>
    </g>
    <g id="ytick_7">
     <g id="line2d_19">
      <g>
       <use style="stroke:#000000;stroke-width:1.6;" x="381.421667" xlink:href="#m6a6e20349f" y="229.899367"/>
      </g>
     </g>
     <g id="text_16">
      <!-- 2 -->
      <g transform="translate(353.996667 237.497805)scale(0.2 -0.2)">
       <use xlink:href="#DejaVuSans-50"/>
      </g>
     </g>
    </g>
    <g id="ytick_8">
     <g id="line2d_20">
      <g>
       <use style="stroke:#000000;stroke-width:1.6;" x="381.421667" xlink:href="#m6a6e20349f" y="144.687068"/>
      </g>
     </g>
     <g id="text_17">
      <!-- 4 -->
      <g transform="translate(353.996667 152.285505)scale(0.2 -0.2)">
       <use xlink:href="#DejaVuSans-52"/>
      </g>
     </g>
    </g>
    <g id="ytick_9">
     <g id="line2d_21">
      <g>
       <use style="stroke:#000000;stroke-width:1.6;" x="381.421667" xlink:href="#m6a6e20349f" y="59.474768"/>
      </g>
     </g>
     <g id="text_18">
      <!-- 6 -->
      <g transform="translate(353.996667 67.073206)scale(0.2 -0.2)">
       <use xlink:href="#DejaVuSans-54"/>
      </g>
     </g>
    </g>
   </g>
   <g id="line2d_22">
    <path clip-path="url(#pad565ca176)" d="M 0 0 
" style="fill:none;stroke:#000000;stroke-linecap:square;stroke-width:2;"/>
   </g>
   <g id="line2d_23">
    <path clip-path="url(#pad565ca176)" d="M 0 0 
" style="fill:none;stroke:#000000;stroke-dasharray:7.4,3.2;stroke-dashoffset:0;stroke-width:2;"/>
   </g>
   <g id="patch_6">
    <path style="fill:none;stroke:#000000;stroke-linecap:square;stroke-linejoin:miter;stroke-width:0.8;"/>
   </g>
   <g id="patch_7">
    <path style="fill:none;stroke:#000000;stroke-linecap:square;stroke-linejoin:miter;stroke-width:0.8;"/>
   </g>
  </g>
 </g>
 <defs>
  <clipPath id="p5ea73d19f2">
   <rect height="311.611667" width="311.611667" x="27.575" y="3.5"/>
  </clipPath>
  <clipPath id="pad565ca176">
   <rect height="311.611667" width="311.611667" x="381.421667" y="3.5"/>
  </clipPath>
 </defs>
</svg>
