<?xml version="1.0" encoding="utf-8" standalone="no"?>
<!DOCTYPE svg PUBLIC "-//W3C//DTD SVG 1.1//EN"
  "http://www.w3.org/Graphics/SVG/1.1/DTD/svg11.dtd">
<!-- Created with matplotlib (https://matplotlib.org/) -->
<svg height="358.891667pt" version="1.1" viewBox="0 0 352.766667 358.891667" width="352.766667pt" xmlns="http://www.w3.org/2000/svg" xmlns:xlink="http://www.w3.org/1999/xlink">
 <defs>
  <style type="text/css">
*{stroke-linecap:butt;stroke-linejoin:round;}
  </style>
 </defs>
 <g id="figure_1">
  <g id="patch_1">
   <path d="M 0 358.891667 
L 352.766667 358.891667 
L 352.766667 0 
L 0 0 
z
" style="fill:#ffffff;"/>
  </g>
  <g id="axes_1">
   <g id="patch_2">
    <path d="M 27.575 325.191667 
L 349.266667 325.191667 
L 349.266667 3.5 
L 27.575 3.5 
z
" style="fill:#ffffff;"/>
   </g>
   <g id="matplotlib.axis_1">
    <g id="xtick_1">
     <g id="line2d_1">
      <defs>
       <path d="M 0 0 
L 0 3.5 
" id="m1697f1206d" style="stroke:#000000;stroke-width:1.6;"/>
      </defs>
      <g>
       <use style="stroke:#000000;stroke-width:1.6;" x="105.57785" xlink:href="#m1697f1206d" y="325.191667"/>
      </g>
     </g>
     <g id="text_1">
      <!-- 0.0 -->
      <defs>
       <path d="M 31.78125 66.40625 
Q 24.171875 66.40625 20.328125 58.90625 
Q 16.5 51.421875 16.5 36.375 
Q 16.5 21.390625 20.328125 13.890625 
Q 24.171875 6.390625 31.78125 6.390625 
Q 39.453125 6.390625 43.28125 13.890625 
Q 47.125 21.390625 47.125 36.375 
Q 47.125 51.421875 43.28125 58.90625 
Q 39.453125 66.40625 31.78125 66.40625 
z
M 31.78125 74.21875 
Q 44.046875 74.21875 50.515625 64.515625 
Q 56.984375 54.828125 56.984375 36.375 
Q 56.984375 17.96875 50.515625 8.265625 
Q 44.046875 -1.421875 31.78125 -1.421875 
Q 19.53125 -1.421875 13.0625 8.265625 
Q 6.59375 17.96875 6.59375 36.375 
Q 6.59375 54.828125 13.0625 64.515625 
Q 19.53125 74.21875 31.78125 74.21875 
z
" id="DejaVuSans-48"/>
       <path d="M 10.6875 12.40625 
L 21 12.40625 
L 21 0 
L 10.6875 0 
z
" id="DejaVuSans-46"/>
      </defs>
      <g transform="translate(89.674725 355.088542)scale(0.2 -0.2)">
       <use xlink:href="#DejaVuSans-48"/>
       <use x="63.623047" xlink:href="#DejaVuSans-46"/>
       <use x="95.410156" xlink:href="#DejaVuSans-48"/>
      </g>
     </g>
    </g>
    <g id="xtick_2">
     <g id="line2d_2">
      <g>
       <use style="stroke:#000000;stroke-width:1.6;" x="229.00216" xlink:href="#m1697f1206d" y="325.191667"/>
      </g>
     </g>
     <g id="text_2">
      <!-- 0.5 -->
      <defs>
       <path d="M 10.796875 72.90625 
L 49.515625 72.90625 
L 49.515625 64.59375 
L 19.828125 64.59375 
L 19.828125 46.734375 
Q 21.96875 47.46875 24.109375 47.828125 
Q 26.265625 48.1875 28.421875 48.1875 
Q 40.625 48.1875 47.75 41.5 
Q 54.890625 34.8125 54.890625 23.390625 
Q 54.890625 11.625 47.5625 5.09375 
Q 40.234375 -1.421875 26.90625 -1.421875 
Q 22.3125 -1.421875 17.546875 -0.640625 
Q 12.796875 0.140625 7.71875 1.703125 
L 7.71875 11.625 
Q 12.109375 9.234375 16.796875 8.0625 
Q 21.484375 6.890625 26.703125 6.890625 
Q 35.15625 6.890625 40.078125 11.328125 
Q 45.015625 15.765625 45.015625 23.390625 
Q 45.015625 31 40.078125 35.4375 
Q 35.15625 39.890625 26.703125 39.890625 
Q 22.75 39.890625 18.8125 39.015625 
Q 14.890625 38.140625 10.796875 36.28125 
z
" id="DejaVuSans-53"/>
      </defs>
      <g transform="translate(213.099035 355.088542)scale(0.2 -0.2)">
       <use xlink:href="#DejaVuSans-48"/>
       <use x="63.623047" xlink:href="#DejaVuSans-46"/>
       <use x="95.410156" xlink:href="#DejaVuSans-53"/>
      </g>
     </g>
    </g>
   </g>
   <g id="matplotlib.axis_2">
    <g id="ytick_1">
     <g id="line2d_3">
      <defs>
       <path d="M 0 0 
L -3.5 0 
" id="m7350b5a35c" style="stroke:#000000;stroke-width:1.6;"/>
      </defs>
      <g>
       <use style="stroke:#000000;stroke-width:1.6;" x="27.575" xlink:href="#m7350b5a35c" y="325.191667"/>
      </g>
     </g>
     <g id="text_3">
      <!-- 0 -->
      <g transform="translate(0.15 332.790104)scale(0.2 -0.2)">
       <use xlink:href="#DejaVuSans-48"/>
      </g>
     </g>
    </g>
    <g id="ytick_2">
     <g id="line2d_4">
      <g>
       <use style="stroke:#000000;stroke-width:1.6;" x="27.575" xlink:href="#m7350b5a35c" y="250.431608"/>
      </g>
     </g>
     <g id="text_4">
      <!-- 1 -->
      <defs>
       <path d="M 12.40625 8.296875 
L 28.515625 8.296875 
L 28.515625 63.921875 
L 10.984375 60.40625 
L 10.984375 69.390625 
L 28.421875 72.90625 
L 38.28125 72.90625 
L 38.28125 8.296875 
L 54.390625 8.296875 
L 54.390625 0 
L 12.40625 0 
z
" id="DejaVuSans-49"/>
      </defs>
      <g transform="translate(0.15 258.030045)scale(0.2 -0.2)">
       <use xlink:href="#DejaVuSans-49"/>
      </g>
     </g>
    </g>
    <g id="ytick_3">
     <g id="line2d_5">
      <g>
       <use style="stroke:#000000;stroke-width:1.6;" x="27.575" xlink:href="#m7350b5a35c" y="175.671549"/>
      </g>
     </g>
     <g id="text_5">
      <!-- 2 -->
      <defs>
       <path d="M 19.1875 8.296875 
L 53.609375 8.296875 
L 53.609375 0 
L 7.328125 0 
L 7.328125 8.296875 
Q 12.9375 14.109375 22.625 23.890625 
Q 32.328125 33.6875 34.8125 36.53125 
Q 39.546875 41.84375 41.421875 45.53125 
Q 43.3125 49.21875 43.3125 52.78125 
Q 43.3125 58.59375 39.234375 62.25 
Q 35.15625 65.921875 28.609375 65.921875 
Q 23.96875 65.921875 18.8125 64.3125 
Q 13.671875 62.703125 7.8125 59.421875 
L 7.8125 69.390625 
Q 13.765625 71.78125 18.9375 73 
Q 24.125 74.21875 28.421875 74.21875 
Q 39.75 74.21875 46.484375 68.546875 
Q 53.21875 62.890625 53.21875 53.421875 
Q 53.21875 48.921875 51.53125 44.890625 
Q 49.859375 40.875 45.40625 35.40625 
Q 44.1875 33.984375 37.640625 27.21875 
Q 31.109375 20.453125 19.1875 8.296875 
z
" id="DejaVuSans-50"/>
      </defs>
      <g transform="translate(0.15 183.269987)scale(0.2 -0.2)">
       <use xlink:href="#DejaVuSans-50"/>
      </g>
     </g>
    </g>
    <g id="ytick_4">
     <g id="line2d_6">
      <g>
       <use style="stroke:#000000;stroke-width:1.6;" x="27.575" xlink:href="#m7350b5a35c" y="100.91149"/>
      </g>
     </g>
     <g id="text_6">
      <!-- 3 -->
      <defs>
       <path d="M 40.578125 39.3125 
Q 47.65625 37.796875 51.625 33 
Q 55.609375 28.21875 55.609375 21.1875 
Q 55.609375 10.40625 48.1875 4.484375 
Q 40.765625 -1.421875 27.09375 -1.421875 
Q 22.515625 -1.421875 17.65625 -0.515625 
Q 12.796875 0.390625 7.625 2.203125 
L 7.625 11.71875 
Q 11.71875 9.328125 16.59375 8.109375 
Q 21.484375 6.890625 26.8125 6.890625 
Q 36.078125 6.890625 40.9375 10.546875 
Q 45.796875 14.203125 45.796875 21.1875 
Q 45.796875 27.640625 41.28125 31.265625 
Q 36.765625 34.90625 28.71875 34.90625 
L 20.21875 34.90625 
L 20.21875 43.015625 
L 29.109375 43.015625 
Q 36.375 43.015625 40.234375 45.921875 
Q 44.09375 48.828125 44.09375 54.296875 
Q 44.09375 59.90625 40.109375 62.90625 
Q 36.140625 65.921875 28.71875 65.921875 
Q 24.65625 65.921875 20.015625 65.03125 
Q 15.375 64.15625 9.8125 62.3125 
L 9.8125 71.09375 
Q 15.4375 72.65625 20.34375 73.4375 
Q 25.25 74.21875 29.59375 74.21875 
Q 40.828125 74.21875 47.359375 69.109375 
Q 53.90625 64.015625 53.90625 55.328125 
Q 53.90625 49.265625 50.4375 45.09375 
Q 46.96875 40.921875 40.578125 39.3125 
z
" id="DejaVuSans-51"/>
      </defs>
      <g transform="translate(0.15 108.509928)scale(0.2 -0.2)">
       <use xlink:href="#DejaVuSans-51"/>
      </g>
     </g>
    </g>
    <g id="ytick_5">
     <g id="line2d_7">
      <g>
       <use style="stroke:#000000;stroke-width:1.6;" x="27.575" xlink:href="#m7350b5a35c" y="26.151432"/>
      </g>
     </g>
     <g id="text_7">
      <!-- 4 -->
      <defs>
       <path d="M 37.796875 64.3125 
L 12.890625 25.390625 
L 37.796875 25.390625 
z
M 35.203125 72.90625 
L 47.609375 72.90625 
L 47.609375 25.390625 
L 58.015625 25.390625 
L 58.015625 17.1875 
L 47.609375 17.1875 
L 47.609375 0 
L 37.796875 0 
L 37.796875 17.1875 
L 4.890625 17.1875 
L 4.890625 26.703125 
z
" id="DejaVuSans-52"/>
      </defs>
      <g transform="translate(0.15 33.749869)scale(0.2 -0.2)">
       <use xlink:href="#DejaVuSans-52"/>
      </g>
     </g>
    </g>
   </g>
   <g id="line2d_8">
    <path clip-path="url(#p8c2a4b2d6a)" d="M 75.948051 325.150214 
L 80.135184 325.001852 
L 82.926607 324.661771 
L 84.322318 324.355277 
L 85.71803 323.920359 
L 87.113741 323.328072 
L 88.509452 322.552172 
L 89.905163 321.571699 
L 91.300875 320.372539 
L 92.696586 318.947558 
L 94.092297 317.295336 
L 95.488009 315.418063 
L 96.88372 313.319407 
L 99.675142 308.4721 
L 102.466565 302.778989 
L 105.257988 296.277843 
L 108.04941 289.061336 
L 116.423678 266.245378 
L 117.819389 262.949197 
L 119.2151 259.968398 
L 120.610812 257.336439 
L 122.006523 255.059895 
L 123.402234 253.110351 
L 126.193657 249.854348 
L 127.589368 248.252716 
L 128.98508 246.395413 
L 130.380791 244.044397 
L 131.776502 240.969075 
L 133.172213 236.981014 
L 134.567925 231.965431 
L 135.963636 225.901155 
L 137.359347 218.863234 
L 140.15077 202.538311 
L 149.920749 140.901133 
L 152.712171 125.47647 
L 155.503594 111.601577 
L 159.690728 91.76815 
L 162.48215 76.892888 
L 165.273573 60.04535 
L 168.064996 43.035746 
L 169.460707 35.44917 
L 170.856418 28.993539 
L 172.25213 23.959723 
L 173.647841 20.535056 
L 175.043552 18.817742 
L 176.439263 18.849782 
L 177.834975 20.650949 
L 179.230686 24.237692 
L 180.626397 29.6185 
L 182.022109 36.767953 
L 183.41782 45.591112 
L 184.813531 55.894424 
L 187.604954 79.652476 
L 191.792088 117.062291 
L 194.58351 139.478294 
L 197.374933 159.220765 
L 209.936334 241.650662 
L 212.727757 258.253628 
L 215.519179 272.546372 
L 216.914891 278.827026 
L 218.310602 284.58251 
L 219.706313 289.848195 
L 221.102025 294.641312 
L 222.497736 298.961337 
L 223.893447 302.799919 
L 225.289159 306.154886 
L 226.68487 309.042043 
L 228.080581 311.50017 
L 229.476292 313.587822 
L 230.872004 315.373744 
L 232.267715 316.924753 
L 235.059138 319.521229 
L 237.85056 321.595039 
L 239.246271 322.441538 
L 240.641983 323.154675 
L 242.037694 323.734008 
L 244.829117 324.523758 
L 247.620539 324.929715 
L 250.411962 325.101784 
L 253.203384 325.152835 
L 253.203384 325.152835 
" style="fill:none;stroke:#000000;stroke-linecap:square;stroke-width:2;"/>
   </g>
   <g id="line2d_9">
    <path clip-path="url(#p8c2a4b2d6a)" d="M 42.197348 325.16269 
L 47.360247 325.038702 
L 50.80218 324.773502 
L 54.244112 324.256793 
L 57.686045 323.463486 
L 64.56991 321.465781 
L 69.732809 319.896408 
L 73.174741 318.668316 
L 76.616674 317.221687 
L 81.779572 314.751638 
L 85.221505 312.885764 
L 86.942471 311.822828 
L 88.663437 310.623451 
L 90.384404 309.245681 
L 92.10537 307.650706 
L 93.826336 305.810335 
L 95.547303 303.714981 
L 97.268269 301.379992 
L 100.710201 296.182473 
L 105.8731 288.107833 
L 112.756965 277.82367 
L 114.477931 274.905124 
L 116.198898 271.591311 
L 117.919864 267.748665 
L 119.64083 263.267628 
L 121.361796 258.079889 
L 123.082763 252.17106 
L 124.803729 245.583849 
L 128.245661 230.761671 
L 131.687594 214.502531 
L 136.850493 188.788772 
L 142.013392 162.982246 
L 145.455324 146.989591 
L 148.897257 132.32915 
L 154.060155 110.978753 
L 162.664987 74.079797 
L 164.385953 67.599366 
L 166.106919 61.804833 
L 167.827885 56.849035 
L 169.548852 52.91123 
L 171.269818 50.205639 
L 172.990784 48.960862 
L 174.71175 49.373715 
L 176.432717 51.556212 
L 178.153683 55.500092 
L 179.874649 61.076439 
L 181.595615 68.072192 
L 183.316582 76.248969 
L 185.037548 85.400626 
L 186.758514 95.387991 
L 188.479481 106.140352 
L 191.921413 129.817669 
L 195.363346 155.952603 
L 202.247211 209.71672 
L 203.968177 222.082253 
L 205.689143 233.638897 
L 207.410109 244.29252 
L 209.131076 254.009907 
L 210.852042 262.810913 
L 212.573008 270.753813 
L 214.293974 277.916579 
L 216.014941 284.378251 
L 217.735907 290.204705 
L 219.456873 295.441703 
L 221.177839 300.115706 
L 222.898806 304.240646 
L 224.619772 307.82758 
L 226.340738 310.893929 
L 228.061704 313.469828 
L 229.782671 315.600266 
L 231.503637 317.342946 
L 233.224603 318.762868 
L 234.94557 319.925287 
L 236.666536 320.88894 
L 240.108468 322.395511 
L 243.550401 323.504178 
L 246.992333 324.286016 
L 250.434266 324.773654 
L 253.876198 325.029328 
L 259.039097 325.1596 
L 260.760063 325.167374 
L 260.760063 325.167374 
" style="fill:none;stroke:#000000;stroke-dasharray:7.4,3.2;stroke-dashoffset:0;stroke-width:2;"/>
   </g>
   <g id="line2d_10">
    <path clip-path="url(#p8c2a4b2d6a)" d="M 65.989977 325.172584 
L 76.56692 325.076181 
L 82.913085 324.824466 
L 87.143862 324.495205 
L 91.374639 323.988819 
L 95.605417 323.273154 
L 99.836194 322.313771 
L 104.066971 321.041938 
L 106.182359 320.247645 
L 108.297748 319.313975 
L 110.413136 318.208929 
L 112.528525 316.897878 
L 114.643913 315.347615 
L 116.759302 313.531671 
L 118.87469 311.436174 
L 120.990079 309.06521 
L 123.105467 306.444444 
L 127.336244 300.664712 
L 133.68241 291.794111 
L 135.797798 289.082094 
L 137.913187 286.570304 
L 140.028575 284.26783 
L 142.143964 282.159819 
L 146.374741 278.389557 
L 152.720906 273.279396 
L 169.644014 260.144513 
L 173.874791 257.113137 
L 175.99018 255.757631 
L 178.105568 254.545074 
L 180.220957 253.483328 
L 184.451734 251.726073 
L 188.682511 250.085642 
L 190.797899 249.114705 
L 192.913288 247.933344 
L 195.028677 246.468871 
L 197.144065 244.662868 
L 199.259454 242.474358 
L 201.374842 239.881727 
L 203.490231 236.883857 
L 205.605619 233.500315 
L 207.721008 229.769867 
L 211.951785 221.491616 
L 216.182562 212.514644 
L 220.413339 203.112421 
L 224.644116 193.173154 
L 228.874893 182.33946 
L 233.10567 170.433546 
L 241.567224 145.54169 
L 243.682612 139.893461 
L 245.798001 134.781584 
L 247.913389 130.334481 
L 250.028778 126.657351 
L 252.144166 123.835258 
L 254.259555 121.940726 
L 256.374943 121.043262 
L 258.490332 121.217752 
L 260.60572 122.548915 
L 262.721109 125.129906 
L 264.836497 129.054469 
L 266.951886 134.403522 
L 269.067274 141.228287 
L 271.182663 149.532909 
L 273.298051 159.259774 
L 275.41344 170.280405 
L 277.528828 182.393982 
L 281.759605 208.785241 
L 285.990382 235.833989 
L 288.105771 248.755564 
L 290.221159 260.882738 
L 292.336548 271.992869 
L 294.451936 281.933633 
L 296.567325 290.62493 
L 298.682714 298.053898 
L 300.798102 304.264714 
L 302.913491 309.345286 
L 305.028879 313.412949 
L 307.144268 316.600925 
L 309.259656 319.04677 
L 311.375045 320.883401 
L 313.490433 322.232868 
L 315.605822 323.202599 
L 317.72121 323.883743 
L 319.836599 324.351074 
L 324.067376 324.868374 
L 328.298153 325.07865 
L 334.644318 325.167744 
L 334.644318 325.167744 
" style="fill:none;stroke:#000000;stroke-dasharray:2,3.3;stroke-dashoffset:0;stroke-width:2;"/>
   </g>
   <g id="patch_3">
    <path d="M 27.575 325.191667 
L 27.575 3.5 
" style="fill:none;stroke:#000000;stroke-linecap:square;stroke-linejoin:miter;stroke-width:0.8;"/>
   </g>
   <g id="patch_4">
    <path d="M 27.575 325.191667 
L 349.266667 325.191667 
" style="fill:none;stroke:#000000;stroke-linecap:square;stroke-linejoin:miter;stroke-width:0.8;"/>
   </g>
  </g>
  <g id="axes_2">
   <g id="patch_5">
    <path d="M 383.941667 325.191667 
L 705.633333 325.191667 
L 705.633333 3.5 
L 383.941667 3.5 
z
" style="fill:#ffffff;"/>
   </g>
   <g id="matplotlib.axis_3">
    <g id="xtick_3">
     <g id="line2d_11">
      <g>
       <use style="stroke:#000000;stroke-width:1.6;" x="405.167464" xlink:href="#m1697f1206d" y="325.191667"/>
      </g>
     </g>
     <g id="text_8">
      <!-- −0.5 -->
      <defs>
       <path d="M 10.59375 35.5 
L 73.1875 35.5 
L 73.1875 27.203125 
L 10.59375 27.203125 
z
" id="DejaVuSans-8722"/>
      </defs>
      <g transform="translate(380.884652 355.088542)scale(0.2 -0.2)">
       <use xlink:href="#DejaVuSans-8722"/>
       <use x="83.789062" xlink:href="#DejaVuSans-48"/>
       <use x="147.412109" xlink:href="#DejaVuSans-46"/>
       <use x="179.199219" xlink:href="#DejaVuSans-53"/>
      </g>
     </g>
    </g>
    <g id="xtick_4">
     <g id="line2d_12">
      <g>
       <use style="stroke:#000000;stroke-width:1.6;" x="513.053848" xlink:href="#m1697f1206d" y="325.191667"/>
      </g>
     </g>
     <g id="text_9">
      <!-- 0.0 -->
      <g transform="translate(497.150723 355.088542)scale(0.2 -0.2)">
       <use xlink:href="#DejaVuSans-48"/>
       <use x="63.623047" xlink:href="#DejaVuSans-46"/>
       <use x="95.410156" xlink:href="#DejaVuSans-48"/>
      </g>
     </g>
    </g>
    <g id="xtick_5">
     <g id="line2d_13">
      <g>
       <use style="stroke:#000000;stroke-width:1.6;" x="620.940231" xlink:href="#m1697f1206d" y="325.191667"/>
      </g>
     </g>
     <g id="text_10">
      <!-- 0.5 -->
      <g transform="translate(605.037106 355.088542)scale(0.2 -0.2)">
       <use xlink:href="#DejaVuSans-48"/>
       <use x="63.623047" xlink:href="#DejaVuSans-46"/>
       <use x="95.410156" xlink:href="#DejaVuSans-53"/>
      </g>
     </g>
    </g>
   </g>
   <g id="matplotlib.axis_4">
    <g id="ytick_6">
     <g id="line2d_14">
      <g>
       <use style="stroke:#000000;stroke-width:1.6;" x="383.941667" xlink:href="#m7350b5a35c" y="325.191667"/>
      </g>
     </g>
     <g id="text_11">
      <!-- 0.0 -->
      <g transform="translate(337.435417 332.790104)scale(0.2 -0.2)">
       <use xlink:href="#DejaVuSans-48"/>
       <use x="63.623047" xlink:href="#DejaVuSans-46"/>
       <use x="95.410156" xlink:href="#DejaVuSans-48"/>
      </g>
     </g>
    </g>
    <g id="ytick_7">
     <g id="line2d_15">
      <g>
       <use style="stroke:#000000;stroke-width:1.6;" x="383.941667" xlink:href="#m7350b5a35c" y="275.482908"/>
      </g>
     </g>
     <g id="text_12">
      <!-- 0.5 -->
      <g transform="translate(337.435417 283.081345)scale(0.2 -0.2)">
       <use xlink:href="#DejaVuSans-48"/>
       <use x="63.623047" xlink:href="#DejaVuSans-46"/>
       <use x="95.410156" xlink:href="#DejaVuSans-53"/>
      </g>
     </g>
    </g>
    <g id="ytick_8">
     <g id="line2d_16">
      <g>
       <use style="stroke:#000000;stroke-width:1.6;" x="383.941667" xlink:href="#m7350b5a35c" y="225.774149"/>
      </g>
     </g>
     <g id="text_13">
      <!-- 1.0 -->
      <g transform="translate(337.435417 233.372587)scale(0.2 -0.2)">
       <use xlink:href="#DejaVuSans-49"/>
       <use x="63.623047" xlink:href="#DejaVuSans-46"/>
       <use x="95.410156" xlink:href="#DejaVuSans-48"/>
      </g>
     </g>
    </g>
    <g id="ytick_9">
     <g id="line2d_17">
      <g>
       <use style="stroke:#000000;stroke-width:1.6;" x="383.941667" xlink:href="#m7350b5a35c" y="176.065391"/>
      </g>
     </g>
     <g id="text_14">
      <!-- 1.5 -->
      <g transform="translate(337.435417 183.663828)scale(0.2 -0.2)">
       <use xlink:href="#DejaVuSans-49"/>
       <use x="63.623047" xlink:href="#DejaVuSans-46"/>
       <use x="95.410156" xlink:href="#DejaVuSans-53"/>
      </g>
     </g>
    </g>
    <g id="ytick_10">
     <g id="line2d_18">
      <g>
       <use style="stroke:#000000;stroke-width:1.6;" x="383.941667" xlink:href="#m7350b5a35c" y="126.356632"/>
      </g>
     </g>
     <g id="text_15">
      <!-- 2.0 -->
      <g transform="translate(337.435417 133.955069)scale(0.2 -0.2)">
       <use xlink:href="#DejaVuSans-50"/>
       <use x="63.623047" xlink:href="#DejaVuSans-46"/>
       <use x="95.410156" xlink:href="#DejaVuSans-48"/>
      </g>
     </g>
    </g>
    <g id="ytick_11">
     <g id="line2d_19">
      <g>
       <use style="stroke:#000000;stroke-width:1.6;" x="383.941667" xlink:href="#m7350b5a35c" y="76.647873"/>
      </g>
     </g>
     <g id="text_16">
      <!-- 2.5 -->
      <g transform="translate(337.435417 84.246311)scale(0.2 -0.2)">
       <use xlink:href="#DejaVuSans-50"/>
       <use x="63.623047" xlink:href="#DejaVuSans-46"/>
       <use x="95.410156" xlink:href="#DejaVuSans-53"/>
      </g>
     </g>
    </g>
    <g id="ytick_12">
     <g id="line2d_20">
      <g>
       <use style="stroke:#000000;stroke-width:1.6;" x="383.941667" xlink:href="#m7350b5a35c" y="26.939115"/>
      </g>
     </g>
     <g id="text_17">
      <!-- 3.0 -->
      <g transform="translate(337.435417 34.537552)scale(0.2 -0.2)">
       <use xlink:href="#DejaVuSans-51"/>
       <use x="63.623047" xlink:href="#DejaVuSans-46"/>
       <use x="95.410156" xlink:href="#DejaVuSans-48"/>
      </g>
     </g>
    </g>
   </g>
   <g id="line2d_21">
    <path clip-path="url(#pf7e5ccc457)" d="M 0 0 
" style="fill:none;stroke:#000000;stroke-linecap:square;stroke-width:2;"/>
   </g>
   <g id="line2d_22">
    <path clip-path="url(#pf7e5ccc457)" d="M 0 0 
" style="fill:none;stroke:#000000;stroke-dasharray:7.4,3.2;stroke-dashoffset:0;stroke-width:2;"/>
   </g>
   <g id="patch_6">
    <path style="fill:none;stroke:#000000;stroke-linecap:square;stroke-linejoin:miter;stroke-width:0.8;"/>
   </g>
   <g id="patch_7">
    <path style="fill:none;stroke:#000000;stroke-linecap:square;stroke-linejoin:miter;stroke-width:0.8;"/>
   </g>
  </g>
 </g>
 <defs>
  <clipPath id="p8c2a4b2d6a">
   <rect height="321.691667" width="321.691667" x="27.575" y="3.5"/>
  </clipPath>
  <clipPath id="pf7e5ccc457">
   <rect height="321.691667" width="321.691667" x="383.941667" y="3.5"/>
  </clipPath>
 </defs>
</svg>
