<?xml version="1.0" encoding="utf-8" standalone="no"?>
<!DOCTYPE svg PUBLIC "-//W3C//DTD SVG 1.1//EN"
  "http://www.w3.org/Graphics/SVG/1.1/DTD/svg11.dtd">
<!-- Created with matplotlib (https://matplotlib.org/) -->
<svg height="347.415976pt" version="1.1" viewBox="0 0 341.290976 347.415976" width="341.290976pt" xmlns="http://www.w3.org/2000/svg" xmlns:xlink="http://www.w3.org/1999/xlink">
 <defs>
  <style type="text/css">
*{stroke-linecap:butt;stroke-linejoin:round;}
  </style>
 </defs>
 <g id="figure_1">
  <g id="patch_1">
   <path d="M 0 347.415976 
L 341.290976 347.415976 
L 341.290976 0 
L 0 0 
z
" style="fill:#ffffff;"/>
  </g>
  <g id="axes_1">
   <g id="patch_2">
    <path d="M 27.575 313.715976 
L 337.790976 313.715976 
L 337.790976 3.5 
L 27.575 3.5 
z
" style="fill:#ffffff;"/>
   </g>
   <g id="matplotlib.axis_1">
    <g id="xtick_1">
     <g id="line2d_1">
      <defs>
       <path d="M 0 0 
L 0 3.5 
" id="meecdc2bbc2" style="stroke:#000000;stroke-width:1.6;"/>
      </defs>
      <g>
       <use style="stroke:#000000;stroke-width:1.6;" x="39.655793" xlink:href="#meecdc2bbc2" y="313.715976"/>
      </g>
     </g>
     <g id="text_1">
      <!-- 0.2 -->
      <defs>
       <path d="M 31.78125 66.40625 
Q 24.171875 66.40625 20.328125 58.90625 
Q 16.5 51.421875 16.5 36.375 
Q 16.5 21.390625 20.328125 13.890625 
Q 24.171875 6.390625 31.78125 6.390625 
Q 39.453125 6.390625 43.28125 13.890625 
Q 47.125 21.390625 47.125 36.375 
Q 47.125 51.421875 43.28125 58.90625 
Q 39.453125 66.40625 31.78125 66.40625 
z
M 31.78125 74.21875 
Q 44.046875 74.21875 50.515625 64.515625 
Q 56.984375 54.828125 56.984375 36.375 
Q 56.984375 17.96875 50.515625 8.265625 
Q 44.046875 -1.421875 31.78125 -1.421875 
Q 19.53125 -1.421875 13.0625 8.265625 
Q 6.59375 17.96875 6.59375 36.375 
Q 6.59375 54.828125 13.0625 64.515625 
Q 19.53125 74.21875 31.78125 74.21875 
z
" id="DejaVuSans-48"/>
       <path d="M 10.6875 12.40625 
L 21 12.40625 
L 21 0 
L 10.6875 0 
z
" id="DejaVuSans-46"/>
       <path d="M 19.1875 8.296875 
L 53.609375 8.296875 
L 53.609375 0 
L 7.328125 0 
L 7.328125 8.296875 
Q 12.9375 14.109375 22.625 23.890625 
Q 32.328125 33.6875 34.8125 36.53125 
Q 39.546875 41.84375 41.421875 45.53125 
Q 43.3125 49.21875 43.3125 52.78125 
Q 43.3125 58.59375 39.234375 62.25 
Q 35.15625 65.921875 28.609375 65.921875 
Q 23.96875 65.921875 18.8125 64.3125 
Q 13.671875 62.703125 7.8125 59.421875 
L 7.8125 69.390625 
Q 13.765625 71.78125 18.9375 73 
Q 24.125 74.21875 28.421875 74.21875 
Q 39.75 74.21875 46.484375 68.546875 
Q 53.21875 62.890625 53.21875 53.421875 
Q 53.21875 48.921875 51.53125 44.890625 
Q 49.859375 40.875 45.40625 35.40625 
Q 44.1875 33.984375 37.640625 27.21875 
Q 31.109375 20.453125 19.1875 8.296875 
z
" id="DejaVuSans-50"/>
      </defs>
      <g transform="translate(23.752668 343.612851)scale(0.2 -0.2)">
       <use xlink:href="#DejaVuSans-48"/>
       <use x="63.623047" xlink:href="#DejaVuSans-46"/>
       <use x="95.410156" xlink:href="#DejaVuSans-50"/>
      </g>
     </g>
    </g>
    <g id="xtick_2">
     <g id="line2d_2">
      <g>
       <use style="stroke:#000000;stroke-width:1.6;" x="109.401254" xlink:href="#meecdc2bbc2" y="313.715976"/>
      </g>
     </g>
     <g id="text_2">
      <!-- 0.4 -->
      <defs>
       <path d="M 37.796875 64.3125 
L 12.890625 25.390625 
L 37.796875 25.390625 
z
M 35.203125 72.90625 
L 47.609375 72.90625 
L 47.609375 25.390625 
L 58.015625 25.390625 
L 58.015625 17.1875 
L 47.609375 17.1875 
L 47.609375 0 
L 37.796875 0 
L 37.796875 17.1875 
L 4.890625 17.1875 
L 4.890625 26.703125 
z
" id="DejaVuSans-52"/>
      </defs>
      <g transform="translate(93.498129 343.612851)scale(0.2 -0.2)">
       <use xlink:href="#DejaVuSans-48"/>
       <use x="63.623047" xlink:href="#DejaVuSans-46"/>
       <use x="95.410156" xlink:href="#DejaVuSans-52"/>
      </g>
     </g>
    </g>
    <g id="xtick_3">
     <g id="line2d_3">
      <g>
       <use style="stroke:#000000;stroke-width:1.6;" x="179.146714" xlink:href="#meecdc2bbc2" y="313.715976"/>
      </g>
     </g>
     <g id="text_3">
      <!-- 0.6 -->
      <defs>
       <path d="M 33.015625 40.375 
Q 26.375 40.375 22.484375 35.828125 
Q 18.609375 31.296875 18.609375 23.390625 
Q 18.609375 15.53125 22.484375 10.953125 
Q 26.375 6.390625 33.015625 6.390625 
Q 39.65625 6.390625 43.53125 10.953125 
Q 47.40625 15.53125 47.40625 23.390625 
Q 47.40625 31.296875 43.53125 35.828125 
Q 39.65625 40.375 33.015625 40.375 
z
M 52.59375 71.296875 
L 52.59375 62.3125 
Q 48.875 64.0625 45.09375 64.984375 
Q 41.3125 65.921875 37.59375 65.921875 
Q 27.828125 65.921875 22.671875 59.328125 
Q 17.53125 52.734375 16.796875 39.40625 
Q 19.671875 43.65625 24.015625 45.921875 
Q 28.375 48.1875 33.59375 48.1875 
Q 44.578125 48.1875 50.953125 41.515625 
Q 57.328125 34.859375 57.328125 23.390625 
Q 57.328125 12.15625 50.6875 5.359375 
Q 44.046875 -1.421875 33.015625 -1.421875 
Q 20.359375 -1.421875 13.671875 8.265625 
Q 6.984375 17.96875 6.984375 36.375 
Q 6.984375 53.65625 15.1875 63.9375 
Q 23.390625 74.21875 37.203125 74.21875 
Q 40.921875 74.21875 44.703125 73.484375 
Q 48.484375 72.75 52.59375 71.296875 
z
" id="DejaVuSans-54"/>
      </defs>
      <g transform="translate(163.243589 343.612851)scale(0.2 -0.2)">
       <use xlink:href="#DejaVuSans-48"/>
       <use x="63.623047" xlink:href="#DejaVuSans-46"/>
       <use x="95.410156" xlink:href="#DejaVuSans-54"/>
      </g>
     </g>
    </g>
    <g id="xtick_4">
     <g id="line2d_4">
      <g>
       <use style="stroke:#000000;stroke-width:1.6;" x="248.892174" xlink:href="#meecdc2bbc2" y="313.715976"/>
      </g>
     </g>
     <g id="text_4">
      <!-- 0.8 -->
      <defs>
       <path d="M 31.78125 34.625 
Q 24.75 34.625 20.71875 30.859375 
Q 16.703125 27.09375 16.703125 20.515625 
Q 16.703125 13.921875 20.71875 10.15625 
Q 24.75 6.390625 31.78125 6.390625 
Q 38.8125 6.390625 42.859375 10.171875 
Q 46.921875 13.96875 46.921875 20.515625 
Q 46.921875 27.09375 42.890625 30.859375 
Q 38.875 34.625 31.78125 34.625 
z
M 21.921875 38.8125 
Q 15.578125 40.375 12.03125 44.71875 
Q 8.5 49.078125 8.5 55.328125 
Q 8.5 64.0625 14.71875 69.140625 
Q 20.953125 74.21875 31.78125 74.21875 
Q 42.671875 74.21875 48.875 69.140625 
Q 55.078125 64.0625 55.078125 55.328125 
Q 55.078125 49.078125 51.53125 44.71875 
Q 48 40.375 41.703125 38.8125 
Q 48.828125 37.15625 52.796875 32.3125 
Q 56.78125 27.484375 56.78125 20.515625 
Q 56.78125 9.90625 50.3125 4.234375 
Q 43.84375 -1.421875 31.78125 -1.421875 
Q 19.734375 -1.421875 13.25 4.234375 
Q 6.78125 9.90625 6.78125 20.515625 
Q 6.78125 27.484375 10.78125 32.3125 
Q 14.796875 37.15625 21.921875 38.8125 
z
M 18.3125 54.390625 
Q 18.3125 48.734375 21.84375 45.5625 
Q 25.390625 42.390625 31.78125 42.390625 
Q 38.140625 42.390625 41.71875 45.5625 
Q 45.3125 48.734375 45.3125 54.390625 
Q 45.3125 60.0625 41.71875 63.234375 
Q 38.140625 66.40625 31.78125 66.40625 
Q 25.390625 66.40625 21.84375 63.234375 
Q 18.3125 60.0625 18.3125 54.390625 
z
" id="DejaVuSans-56"/>
      </defs>
      <g transform="translate(232.989049 343.612851)scale(0.2 -0.2)">
       <use xlink:href="#DejaVuSans-48"/>
       <use x="63.623047" xlink:href="#DejaVuSans-46"/>
       <use x="95.410156" xlink:href="#DejaVuSans-56"/>
      </g>
     </g>
    </g>
    <g id="xtick_5">
     <g id="line2d_5">
      <g>
       <use style="stroke:#000000;stroke-width:1.6;" x="318.637635" xlink:href="#meecdc2bbc2" y="313.715976"/>
      </g>
     </g>
     <g id="text_5">
      <!-- 1.0 -->
      <defs>
       <path d="M 12.40625 8.296875 
L 28.515625 8.296875 
L 28.515625 63.921875 
L 10.984375 60.40625 
L 10.984375 69.390625 
L 28.421875 72.90625 
L 38.28125 72.90625 
L 38.28125 8.296875 
L 54.390625 8.296875 
L 54.390625 0 
L 12.40625 0 
z
" id="DejaVuSans-49"/>
      </defs>
      <g transform="translate(302.73451 343.612851)scale(0.2 -0.2)">
       <use xlink:href="#DejaVuSans-49"/>
       <use x="63.623047" xlink:href="#DejaVuSans-46"/>
       <use x="95.410156" xlink:href="#DejaVuSans-48"/>
      </g>
     </g>
    </g>
   </g>
   <g id="matplotlib.axis_2">
    <g id="ytick_1">
     <g id="line2d_6">
      <defs>
       <path d="M 0 0 
L -3.5 0 
" id="mb1d99f6ae9" style="stroke:#000000;stroke-width:1.6;"/>
      </defs>
      <g>
       <use style="stroke:#000000;stroke-width:1.6;" x="27.575" xlink:href="#mb1d99f6ae9" y="313.715976"/>
      </g>
     </g>
     <g id="text_6">
      <!-- 0 -->
      <g transform="translate(0.15 321.314413)scale(0.2 -0.2)">
       <use xlink:href="#DejaVuSans-48"/>
      </g>
     </g>
    </g>
    <g id="ytick_2">
     <g id="line2d_7">
      <g>
       <use style="stroke:#000000;stroke-width:1.6;" x="27.575" xlink:href="#mb1d99f6ae9" y="234.716779"/>
      </g>
     </g>
     <g id="text_7">
      <!-- 2 -->
      <g transform="translate(0.15 242.315216)scale(0.2 -0.2)">
       <use xlink:href="#DejaVuSans-50"/>
      </g>
     </g>
    </g>
    <g id="ytick_3">
     <g id="line2d_8">
      <g>
       <use style="stroke:#000000;stroke-width:1.6;" x="27.575" xlink:href="#mb1d99f6ae9" y="155.717582"/>
      </g>
     </g>
     <g id="text_8">
      <!-- 4 -->
      <g transform="translate(0.15 163.316019)scale(0.2 -0.2)">
       <use xlink:href="#DejaVuSans-52"/>
      </g>
     </g>
    </g>
    <g id="ytick_4">
     <g id="line2d_9">
      <g>
       <use style="stroke:#000000;stroke-width:1.6;" x="27.575" xlink:href="#mb1d99f6ae9" y="76.718385"/>
      </g>
     </g>
     <g id="text_9">
      <!-- 6 -->
      <g transform="translate(0.15 84.316822)scale(0.2 -0.2)">
       <use xlink:href="#DejaVuSans-54"/>
      </g>
     </g>
    </g>
   </g>
   <g id="line2d_10">
    <path clip-path="url(#p9e79c71925)" d="M 104.390713 313.699278 
L 109.811904 313.611887 
L 113.877798 313.377444 
L 119.298989 312.822672 
L 123.364883 312.261817 
L 126.075478 311.598512 
L 127.430776 311.085321 
L 128.786074 310.414856 
L 130.141372 309.576032 
L 131.49667 308.573989 
L 134.207266 306.158059 
L 136.917861 303.308083 
L 139.628457 299.942604 
L 140.983755 297.955684 
L 142.339053 295.68668 
L 143.694351 293.081611 
L 145.049648 290.100675 
L 146.404946 286.720782 
L 147.760244 282.93284 
L 149.115542 278.735191 
L 150.47084 274.125239 
L 151.826138 269.09126 
L 153.181436 263.605995 
L 154.536733 257.62361 
L 155.892031 251.082006 
L 157.247329 243.912731 
L 158.602627 236.059872 
L 161.313223 218.304617 
L 168.089712 170.534851 
L 169.44501 162.930634 
L 170.800308 156.601837 
L 172.155606 151.601589 
L 173.510904 147.849209 
L 174.866201 145.151855 
L 176.221499 143.239957 
L 177.576797 141.808073 
L 180.287393 139.219426 
L 181.642691 137.611384 
L 182.997989 135.63555 
L 184.353286 133.305722 
L 188.41918 125.824433 
L 189.774478 123.989053 
L 191.129776 122.857507 
L 192.485074 122.521567 
L 193.840372 122.934844 
L 195.195669 123.910269 
L 197.906265 126.264916 
L 199.261563 126.88615 
L 200.616861 126.672431 
L 201.972159 125.390581 
L 203.327457 122.950865 
L 204.682754 119.429711 
L 206.038052 115.071318 
L 208.748648 105.512353 
L 210.103946 101.352235 
L 211.459244 98.315866 
L 212.814542 96.860985 
L 214.169839 97.332697 
L 215.525137 99.943404 
L 216.880435 104.77198 
L 218.235733 111.775466 
L 219.591031 120.805259 
L 220.946329 131.622403 
L 222.301627 143.911356 
L 225.012222 171.359207 
L 229.078116 213.516647 
L 231.788712 238.383603 
L 233.14401 249.286936 
L 234.499307 259.087197 
L 235.854605 267.776887 
L 237.209903 275.37292 
L 238.565201 281.909052 
L 239.920499 287.435365 
L 241.275797 292.02109 
L 242.631095 295.756433 
L 243.986392 298.750494 
L 245.34169 301.12474 
L 246.696988 303.003552 
L 248.052286 304.504308 
L 249.407584 305.729301 
L 252.11818 307.659729 
L 254.828775 309.206215 
L 257.539371 310.519769 
L 260.249967 311.612696 
L 262.960563 312.458368 
L 265.671158 313.04683 
L 268.381754 313.405327 
L 272.447648 313.642143 
L 276.513541 313.698769 
L 276.513541 313.698769 
" style="fill:none;stroke:#000000;stroke-linecap:square;stroke-width:2;"/>
   </g>
   <g id="line2d_11">
    <path clip-path="url(#p9e79c71925)" d="M 131.182061 313.698053 
L 135.729498 313.603365 
L 138.761123 313.382032 
L 141.792748 312.944233 
L 144.824373 312.224782 
L 146.340186 311.715686 
L 147.855999 311.054773 
L 149.371811 310.184159 
L 150.887624 309.042375 
L 152.403436 307.579048 
L 153.919249 305.76611 
L 155.435061 303.59936 
L 156.950874 301.089735 
L 158.466686 298.250071 
L 159.982499 295.085598 
L 161.498311 291.592539 
L 163.014124 287.761332 
L 164.529936 283.575497 
L 166.045749 278.999811 
L 167.561561 273.961909 
L 169.077374 268.341685 
L 170.593186 261.982872 
L 172.108999 254.727847 
L 173.624811 246.458348 
L 175.140624 237.11589 
L 176.656436 226.684512 
L 178.172249 215.140495 
L 179.688061 202.395826 
L 181.203874 188.272838 
L 182.719686 172.541826 
L 184.235499 155.031239 
L 187.267124 115.204545 
L 190.298749 73.620351 
L 191.814561 55.024464 
L 193.330374 39.477124 
L 194.846186 27.863071 
L 196.361999 20.724931 
L 197.877811 18.271994 
L 199.393624 20.39442 
L 200.909436 26.648114 
L 202.425249 36.244156 
L 203.941061 48.111199 
L 208.488499 86.176915 
L 210.004311 97.091262 
L 211.520124 106.583192 
L 213.035936 114.640495 
L 214.551749 121.328985 
L 216.067561 126.769189 
L 217.583374 131.151133 
L 219.099186 134.742411 
L 223.646624 144.098719 
L 225.162437 147.881935 
L 226.678249 152.545443 
L 228.194062 158.372195 
L 229.709874 165.540928 
L 231.225687 174.053333 
L 232.741499 183.696214 
L 238.804749 225.133878 
L 241.836374 243.329822 
L 244.867999 259.431774 
L 247.899624 273.593143 
L 249.415437 279.85458 
L 250.931249 285.516801 
L 252.447062 290.562198 
L 253.962874 294.988559 
L 255.478687 298.801731 
L 256.994499 302.011591 
L 258.510312 304.633379 
L 260.026124 306.693007 
L 261.541937 308.233827 
L 263.057749 309.322341 
L 264.573562 310.049809 
L 266.089374 310.526454 
L 278.215874 313.257554 
L 281.247499 313.571347 
L 285.794937 313.701635 
L 294.889812 313.657226 
L 299.43725 313.405744 
L 307.016312 312.703092 
L 310.047937 312.783905 
L 320.658625 313.658262 
L 323.69025 313.698165 
L 323.69025 313.698165 
" style="fill:none;stroke:#000000;stroke-dasharray:7.4,3.2;stroke-dashoffset:0;stroke-width:2;"/>
   </g>
   <g id="line2d_12">
    <path clip-path="url(#p9e79c71925)" d="M 41.675726 313.695841 
L 45.843561 313.616353 
L 50.011395 313.298439 
L 56.957786 312.562 
L 63.904176 312.313414 
L 65.293454 312.085677 
L 66.682733 311.736996 
L 68.072011 311.251154 
L 69.461289 310.613781 
L 70.850567 309.814531 
L 72.239845 308.853964 
L 75.018401 306.553203 
L 77.796958 304.137811 
L 79.186236 303.063101 
L 80.575514 302.137724 
L 83.35407 300.680918 
L 86.132626 299.260536 
L 87.521905 298.283273 
L 88.911183 296.957017 
L 90.300461 295.153313 
L 91.689739 292.748907 
L 93.079017 289.629428 
L 94.468295 285.692071 
L 95.857573 280.84711 
L 97.246852 275.020968 
L 98.63613 268.166627 
L 100.025408 260.285615 
L 101.414686 251.457351 
L 104.193242 231.759061 
L 113.918189 159.145117 
L 119.475302 113.505757 
L 122.253858 93.746082 
L 127.81097 57.997783 
L 130.589527 41.251296 
L 131.978805 34.324193 
L 133.368083 29.138606 
L 134.757361 26.229884 
L 136.146639 25.963773 
L 137.535917 28.470832 
L 138.925196 33.649364 
L 140.314474 41.229201 
L 141.703752 50.855202 
L 143.09303 62.141395 
L 145.871586 87.973826 
L 148.650142 114.621483 
L 150.039421 126.815267 
L 151.428699 137.681915 
L 152.817977 147.089901 
L 154.207255 155.198603 
L 159.764368 184.401745 
L 161.153646 193.335864 
L 163.932202 213.860451 
L 166.710758 234.856523 
L 168.100036 244.091544 
L 169.489314 251.973035 
L 170.878593 258.444279 
L 172.267871 263.69739 
L 173.657149 268.077247 
L 176.435705 275.626497 
L 180.60354 286.320415 
L 183.382096 292.710137 
L 186.160652 298.137927 
L 188.939208 302.688845 
L 190.328486 304.597778 
L 191.717765 306.199415 
L 193.107043 307.454962 
L 194.496321 308.361161 
L 195.885599 308.960714 
L 197.274877 309.33634 
L 201.442712 310.120567 
L 204.221268 310.977392 
L 208.389102 312.503593 
L 211.167658 313.201083 
L 213.946215 313.548065 
L 218.114049 313.691999 
L 218.114049 313.691999 
" style="fill:none;stroke:#000000;stroke-dasharray:2,3.3;stroke-dashoffset:0;stroke-width:2;"/>
   </g>
   <g id="patch_3">
    <path d="M 27.575 313.715976 
L 27.575 3.5 
" style="fill:none;stroke:#000000;stroke-linecap:square;stroke-linejoin:miter;stroke-width:0.8;"/>
   </g>
   <g id="patch_4">
    <path d="M 27.575 313.715976 
L 337.790976 313.715976 
" style="fill:none;stroke:#000000;stroke-linecap:square;stroke-linejoin:miter;stroke-width:0.8;"/>
   </g>
  </g>
  <g id="axes_2">
   <g id="patch_5">
    <path d="M 382.119512 313.715976 
L 692.335488 313.715976 
L 692.335488 3.5 
L 382.119512 3.5 
z
" style="fill:#ffffff;"/>
   </g>
   <g id="matplotlib.axis_3">
    <g id="xtick_6">
     <g id="line2d_13">
      <g>
       <use style="stroke:#000000;stroke-width:1.6;" x="405.25039" xlink:href="#meecdc2bbc2" y="313.715976"/>
      </g>
     </g>
     <g id="text_10">
      <!-- −0.6 -->
      <defs>
       <path d="M 10.59375 35.5 
L 73.1875 35.5 
L 73.1875 27.203125 
L 10.59375 27.203125 
z
" id="DejaVuSans-8722"/>
      </defs>
      <g transform="translate(380.967577 343.612851)scale(0.2 -0.2)">
       <use xlink:href="#DejaVuSans-8722"/>
       <use x="83.789062" xlink:href="#DejaVuSans-48"/>
       <use x="147.412109" xlink:href="#DejaVuSans-46"/>
       <use x="179.199219" xlink:href="#DejaVuSans-54"/>
      </g>
     </g>
    </g>
    <g id="xtick_7">
     <g id="line2d_14">
      <g>
       <use style="stroke:#000000;stroke-width:1.6;" x="480.665881" xlink:href="#meecdc2bbc2" y="313.715976"/>
      </g>
     </g>
     <g id="text_11">
      <!-- −0.4 -->
      <g transform="translate(456.383069 343.612851)scale(0.2 -0.2)">
       <use xlink:href="#DejaVuSans-8722"/>
       <use x="83.789062" xlink:href="#DejaVuSans-48"/>
       <use x="147.412109" xlink:href="#DejaVuSans-46"/>
       <use x="179.199219" xlink:href="#DejaVuSans-52"/>
      </g>
     </g>
    </g>
    <g id="xtick_8">
     <g id="line2d_15">
      <g>
       <use style="stroke:#000000;stroke-width:1.6;" x="556.081373" xlink:href="#meecdc2bbc2" y="313.715976"/>
      </g>
     </g>
     <g id="text_12">
      <!-- −0.2 -->
      <g transform="translate(531.79856 343.612851)scale(0.2 -0.2)">
       <use xlink:href="#DejaVuSans-8722"/>
       <use x="83.789062" xlink:href="#DejaVuSans-48"/>
       <use x="147.412109" xlink:href="#DejaVuSans-46"/>
       <use x="179.199219" xlink:href="#DejaVuSans-50"/>
      </g>
     </g>
    </g>
    <g id="xtick_9">
     <g id="line2d_16">
      <g>
       <use style="stroke:#000000;stroke-width:1.6;" x="631.496865" xlink:href="#meecdc2bbc2" y="313.715976"/>
      </g>
     </g>
     <g id="text_13">
      <!-- 0.0 -->
      <g transform="translate(615.59374 343.612851)scale(0.2 -0.2)">
       <use xlink:href="#DejaVuSans-48"/>
       <use x="63.623047" xlink:href="#DejaVuSans-46"/>
       <use x="95.410156" xlink:href="#DejaVuSans-48"/>
      </g>
     </g>
    </g>
   </g>
   <g id="matplotlib.axis_4">
    <g id="ytick_5">
     <g id="line2d_17">
      <g>
       <use style="stroke:#000000;stroke-width:1.6;" x="382.119512" xlink:href="#mb1d99f6ae9" y="313.715976"/>
      </g>
     </g>
     <g id="text_14">
      <!-- 0 -->
      <g transform="translate(354.694512 321.314413)scale(0.2 -0.2)">
       <use xlink:href="#DejaVuSans-48"/>
      </g>
     </g>
    </g>
    <g id="ytick_6">
     <g id="line2d_18">
      <g>
       <use style="stroke:#000000;stroke-width:1.6;" x="382.119512" xlink:href="#mb1d99f6ae9" y="266.904194"/>
      </g>
     </g>
     <g id="text_15">
      <!-- 1 -->
      <g transform="translate(354.694512 274.502632)scale(0.2 -0.2)">
       <use xlink:href="#DejaVuSans-49"/>
      </g>
     </g>
    </g>
    <g id="ytick_7">
     <g id="line2d_19">
      <g>
       <use style="stroke:#000000;stroke-width:1.6;" x="382.119512" xlink:href="#mb1d99f6ae9" y="220.092412"/>
      </g>
     </g>
     <g id="text_16">
      <!-- 2 -->
      <g transform="translate(354.694512 227.69085)scale(0.2 -0.2)">
       <use xlink:href="#DejaVuSans-50"/>
      </g>
     </g>
    </g>
    <g id="ytick_8">
     <g id="line2d_20">
      <g>
       <use style="stroke:#000000;stroke-width:1.6;" x="382.119512" xlink:href="#mb1d99f6ae9" y="173.280631"/>
      </g>
     </g>
     <g id="text_17">
      <!-- 3 -->
      <defs>
       <path d="M 40.578125 39.3125 
Q 47.65625 37.796875 51.625 33 
Q 55.609375 28.21875 55.609375 21.1875 
Q 55.609375 10.40625 48.1875 4.484375 
Q 40.765625 -1.421875 27.09375 -1.421875 
Q 22.515625 -1.421875 17.65625 -0.515625 
Q 12.796875 0.390625 7.625 2.203125 
L 7.625 11.71875 
Q 11.71875 9.328125 16.59375 8.109375 
Q 21.484375 6.890625 26.8125 6.890625 
Q 36.078125 6.890625 40.9375 10.546875 
Q 45.796875 14.203125 45.796875 21.1875 
Q 45.796875 27.640625 41.28125 31.265625 
Q 36.765625 34.90625 28.71875 34.90625 
L 20.21875 34.90625 
L 20.21875 43.015625 
L 29.109375 43.015625 
Q 36.375 43.015625 40.234375 45.921875 
Q 44.09375 48.828125 44.09375 54.296875 
Q 44.09375 59.90625 40.109375 62.90625 
Q 36.140625 65.921875 28.71875 65.921875 
Q 24.65625 65.921875 20.015625 65.03125 
Q 15.375 64.15625 9.8125 62.3125 
L 9.8125 71.09375 
Q 15.4375 72.65625 20.34375 73.4375 
Q 25.25 74.21875 29.59375 74.21875 
Q 40.828125 74.21875 47.359375 69.109375 
Q 53.90625 64.015625 53.90625 55.328125 
Q 53.90625 49.265625 50.4375 45.09375 
Q 46.96875 40.921875 40.578125 39.3125 
z
" id="DejaVuSans-51"/>
      </defs>
      <g transform="translate(354.694512 180.879068)scale(0.2 -0.2)">
       <use xlink:href="#DejaVuSans-51"/>
      </g>
     </g>
    </g>
    <g id="ytick_9">
     <g id="line2d_21">
      <g>
       <use style="stroke:#000000;stroke-width:1.6;" x="382.119512" xlink:href="#mb1d99f6ae9" y="126.468849"/>
      </g>
     </g>
     <g id="text_18">
      <!-- 4 -->
      <g transform="translate(354.694512 134.067286)scale(0.2 -0.2)">
       <use xlink:href="#DejaVuSans-52"/>
      </g>
     </g>
    </g>
    <g id="ytick_10">
     <g id="line2d_22">
      <g>
       <use style="stroke:#000000;stroke-width:1.6;" x="382.119512" xlink:href="#mb1d99f6ae9" y="79.657067"/>
      </g>
     </g>
     <g id="text_19">
      <!-- 5 -->
      <defs>
       <path d="M 10.796875 72.90625 
L 49.515625 72.90625 
L 49.515625 64.59375 
L 19.828125 64.59375 
L 19.828125 46.734375 
Q 21.96875 47.46875 24.109375 47.828125 
Q 26.265625 48.1875 28.421875 48.1875 
Q 40.625 48.1875 47.75 41.5 
Q 54.890625 34.8125 54.890625 23.390625 
Q 54.890625 11.625 47.5625 5.09375 
Q 40.234375 -1.421875 26.90625 -1.421875 
Q 22.3125 -1.421875 17.546875 -0.640625 
Q 12.796875 0.140625 7.71875 1.703125 
L 7.71875 11.625 
Q 12.109375 9.234375 16.796875 8.0625 
Q 21.484375 6.890625 26.703125 6.890625 
Q 35.15625 6.890625 40.078125 11.328125 
Q 45.015625 15.765625 45.015625 23.390625 
Q 45.015625 31 40.078125 35.4375 
Q 35.15625 39.890625 26.703125 39.890625 
Q 22.75 39.890625 18.8125 39.015625 
Q 14.890625 38.140625 10.796875 36.28125 
z
" id="DejaVuSans-53"/>
      </defs>
      <g transform="translate(354.694512 87.255505)scale(0.2 -0.2)">
       <use xlink:href="#DejaVuSans-53"/>
      </g>
     </g>
    </g>
    <g id="ytick_11">
     <g id="line2d_23">
      <g>
       <use style="stroke:#000000;stroke-width:1.6;" x="382.119512" xlink:href="#mb1d99f6ae9" y="32.845285"/>
      </g>
     </g>
     <g id="text_20">
      <!-- 6 -->
      <g transform="translate(354.694512 40.443723)scale(0.2 -0.2)">
       <use xlink:href="#DejaVuSans-54"/>
      </g>
     </g>
    </g>
   </g>
   <g id="line2d_24">
    <path clip-path="url(#p690a2f6635)" d="M 0 0 
" style="fill:none;stroke:#000000;stroke-linecap:square;stroke-width:2;"/>
   </g>
   <g id="line2d_25">
    <path clip-path="url(#p690a2f6635)" d="M 0 0 
" style="fill:none;stroke:#000000;stroke-dasharray:7.4,3.2;stroke-dashoffset:0;stroke-width:2;"/>
   </g>
   <g id="patch_6">
    <path style="fill:none;stroke:#000000;stroke-linecap:square;stroke-linejoin:miter;stroke-width:0.8;"/>
   </g>
   <g id="patch_7">
    <path style="fill:none;stroke:#000000;stroke-linecap:square;stroke-linejoin:miter;stroke-width:0.8;"/>
   </g>
  </g>
 </g>
 <defs>
  <clipPath id="p9e79c71925">
   <rect height="310.215976" width="310.215976" x="27.575" y="3.5"/>
  </clipPath>
  <clipPath id="p690a2f6635">
   <rect height="310.215976" width="310.215976" x="382.119512" y="3.5"/>
  </clipPath>
 </defs>
</svg>
