<?xml version="1.0" encoding="utf-8" standalone="no"?>
<!DOCTYPE svg PUBLIC "-//W3C//DTD SVG 1.1//EN"
  "http://www.w3.org/Graphics/SVG/1.1/DTD/svg11.dtd">
<!-- Created with matplotlib (https://matplotlib.org/) -->
<svg height="358.891667pt" version="1.1" viewBox="0 0 352.766667 358.891667" width="352.766667pt" xmlns="http://www.w3.org/2000/svg" xmlns:xlink="http://www.w3.org/1999/xlink">
 <defs>
  <style type="text/css">
*{stroke-linecap:butt;stroke-linejoin:round;}
  </style>
 </defs>
 <g id="figure_1">
  <g id="patch_1">
   <path d="M 0 358.891667 
L 352.766667 358.891667 
L 352.766667 0 
L 0 0 
z
" style="fill:#ffffff;"/>
  </g>
  <g id="axes_1">
   <g id="patch_2">
    <path d="M 27.575 325.191667 
L 349.266667 325.191667 
L 349.266667 3.5 
L 27.575 3.5 
z
" style="fill:#ffffff;"/>
   </g>
   <g id="matplotlib.axis_1">
    <g id="xtick_1">
     <g id="line2d_1">
      <defs>
       <path d="M 0 0 
L 0 3.5 
" id="m6ed54bdfa0" style="stroke:#000000;stroke-width:1.6;"/>
      </defs>
      <g>
       <use style="stroke:#000000;stroke-width:1.6;" x="105.544046" xlink:href="#m6ed54bdfa0" y="325.191667"/>
      </g>
     </g>
     <g id="text_1">
      <!-- 0.0 -->
      <defs>
       <path d="M 31.78125 66.40625 
Q 24.171875 66.40625 20.328125 58.90625 
Q 16.5 51.421875 16.5 36.375 
Q 16.5 21.390625 20.328125 13.890625 
Q 24.171875 6.390625 31.78125 6.390625 
Q 39.453125 6.390625 43.28125 13.890625 
Q 47.125 21.390625 47.125 36.375 
Q 47.125 51.421875 43.28125 58.90625 
Q 39.453125 66.40625 31.78125 66.40625 
z
M 31.78125 74.21875 
Q 44.046875 74.21875 50.515625 64.515625 
Q 56.984375 54.828125 56.984375 36.375 
Q 56.984375 17.96875 50.515625 8.265625 
Q 44.046875 -1.421875 31.78125 -1.421875 
Q 19.53125 -1.421875 13.0625 8.265625 
Q 6.59375 17.96875 6.59375 36.375 
Q 6.59375 54.828125 13.0625 64.515625 
Q 19.53125 74.21875 31.78125 74.21875 
z
" id="DejaVuSans-48"/>
       <path d="M 10.6875 12.40625 
L 21 12.40625 
L 21 0 
L 10.6875 0 
z
" id="DejaVuSans-46"/>
      </defs>
      <g transform="translate(89.640921 355.088542)scale(0.2 -0.2)">
       <use xlink:href="#DejaVuSans-48"/>
       <use x="63.623047" xlink:href="#DejaVuSans-46"/>
       <use x="95.410156" xlink:href="#DejaVuSans-48"/>
      </g>
     </g>
    </g>
    <g id="xtick_2">
     <g id="line2d_2">
      <g>
       <use style="stroke:#000000;stroke-width:1.6;" x="233.901781" xlink:href="#m6ed54bdfa0" y="325.191667"/>
      </g>
     </g>
     <g id="text_2">
      <!-- 0.5 -->
      <defs>
       <path d="M 10.796875 72.90625 
L 49.515625 72.90625 
L 49.515625 64.59375 
L 19.828125 64.59375 
L 19.828125 46.734375 
Q 21.96875 47.46875 24.109375 47.828125 
Q 26.265625 48.1875 28.421875 48.1875 
Q 40.625 48.1875 47.75 41.5 
Q 54.890625 34.8125 54.890625 23.390625 
Q 54.890625 11.625 47.5625 5.09375 
Q 40.234375 -1.421875 26.90625 -1.421875 
Q 22.3125 -1.421875 17.546875 -0.640625 
Q 12.796875 0.140625 7.71875 1.703125 
L 7.71875 11.625 
Q 12.109375 9.234375 16.796875 8.0625 
Q 21.484375 6.890625 26.703125 6.890625 
Q 35.15625 6.890625 40.078125 11.328125 
Q 45.015625 15.765625 45.015625 23.390625 
Q 45.015625 31 40.078125 35.4375 
Q 35.15625 39.890625 26.703125 39.890625 
Q 22.75 39.890625 18.8125 39.015625 
Q 14.890625 38.140625 10.796875 36.28125 
z
" id="DejaVuSans-53"/>
      </defs>
      <g transform="translate(217.998656 355.088542)scale(0.2 -0.2)">
       <use xlink:href="#DejaVuSans-48"/>
       <use x="63.623047" xlink:href="#DejaVuSans-46"/>
       <use x="95.410156" xlink:href="#DejaVuSans-53"/>
      </g>
     </g>
    </g>
   </g>
   <g id="matplotlib.axis_2">
    <g id="ytick_1">
     <g id="line2d_3">
      <defs>
       <path d="M 0 0 
L -3.5 0 
" id="m4bd0048a62" style="stroke:#000000;stroke-width:1.6;"/>
      </defs>
      <g>
       <use style="stroke:#000000;stroke-width:1.6;" x="27.575" xlink:href="#m4bd0048a62" y="325.191667"/>
      </g>
     </g>
     <g id="text_3">
      <!-- 0 -->
      <g transform="translate(0.15 332.790104)scale(0.2 -0.2)">
       <use xlink:href="#DejaVuSans-48"/>
      </g>
     </g>
    </g>
    <g id="ytick_2">
     <g id="line2d_4">
      <g>
       <use style="stroke:#000000;stroke-width:1.6;" x="27.575" xlink:href="#m4bd0048a62" y="281.268544"/>
      </g>
     </g>
     <g id="text_4">
      <!-- 1 -->
      <defs>
       <path d="M 12.40625 8.296875 
L 28.515625 8.296875 
L 28.515625 63.921875 
L 10.984375 60.40625 
L 10.984375 69.390625 
L 28.421875 72.90625 
L 38.28125 72.90625 
L 38.28125 8.296875 
L 54.390625 8.296875 
L 54.390625 0 
L 12.40625 0 
z
" id="DejaVuSans-49"/>
      </defs>
      <g transform="translate(0.15 288.866982)scale(0.2 -0.2)">
       <use xlink:href="#DejaVuSans-49"/>
      </g>
     </g>
    </g>
    <g id="ytick_3">
     <g id="line2d_5">
      <g>
       <use style="stroke:#000000;stroke-width:1.6;" x="27.575" xlink:href="#m4bd0048a62" y="237.345422"/>
      </g>
     </g>
     <g id="text_5">
      <!-- 2 -->
      <defs>
       <path d="M 19.1875 8.296875 
L 53.609375 8.296875 
L 53.609375 0 
L 7.328125 0 
L 7.328125 8.296875 
Q 12.9375 14.109375 22.625 23.890625 
Q 32.328125 33.6875 34.8125 36.53125 
Q 39.546875 41.84375 41.421875 45.53125 
Q 43.3125 49.21875 43.3125 52.78125 
Q 43.3125 58.59375 39.234375 62.25 
Q 35.15625 65.921875 28.609375 65.921875 
Q 23.96875 65.921875 18.8125 64.3125 
Q 13.671875 62.703125 7.8125 59.421875 
L 7.8125 69.390625 
Q 13.765625 71.78125 18.9375 73 
Q 24.125 74.21875 28.421875 74.21875 
Q 39.75 74.21875 46.484375 68.546875 
Q 53.21875 62.890625 53.21875 53.421875 
Q 53.21875 48.921875 51.53125 44.890625 
Q 49.859375 40.875 45.40625 35.40625 
Q 44.1875 33.984375 37.640625 27.21875 
Q 31.109375 20.453125 19.1875 8.296875 
z
" id="DejaVuSans-50"/>
      </defs>
      <g transform="translate(0.15 244.943859)scale(0.2 -0.2)">
       <use xlink:href="#DejaVuSans-50"/>
      </g>
     </g>
    </g>
    <g id="ytick_4">
     <g id="line2d_6">
      <g>
       <use style="stroke:#000000;stroke-width:1.6;" x="27.575" xlink:href="#m4bd0048a62" y="193.422299"/>
      </g>
     </g>
     <g id="text_6">
      <!-- 3 -->
      <defs>
       <path d="M 40.578125 39.3125 
Q 47.65625 37.796875 51.625 33 
Q 55.609375 28.21875 55.609375 21.1875 
Q 55.609375 10.40625 48.1875 4.484375 
Q 40.765625 -1.421875 27.09375 -1.421875 
Q 22.515625 -1.421875 17.65625 -0.515625 
Q 12.796875 0.390625 7.625 2.203125 
L 7.625 11.71875 
Q 11.71875 9.328125 16.59375 8.109375 
Q 21.484375 6.890625 26.8125 6.890625 
Q 36.078125 6.890625 40.9375 10.546875 
Q 45.796875 14.203125 45.796875 21.1875 
Q 45.796875 27.640625 41.28125 31.265625 
Q 36.765625 34.90625 28.71875 34.90625 
L 20.21875 34.90625 
L 20.21875 43.015625 
L 29.109375 43.015625 
Q 36.375 43.015625 40.234375 45.921875 
Q 44.09375 48.828125 44.09375 54.296875 
Q 44.09375 59.90625 40.109375 62.90625 
Q 36.140625 65.921875 28.71875 65.921875 
Q 24.65625 65.921875 20.015625 65.03125 
Q 15.375 64.15625 9.8125 62.3125 
L 9.8125 71.09375 
Q 15.4375 72.65625 20.34375 73.4375 
Q 25.25 74.21875 29.59375 74.21875 
Q 40.828125 74.21875 47.359375 69.109375 
Q 53.90625 64.015625 53.90625 55.328125 
Q 53.90625 49.265625 50.4375 45.09375 
Q 46.96875 40.921875 40.578125 39.3125 
z
" id="DejaVuSans-51"/>
      </defs>
      <g transform="translate(0.15 201.020737)scale(0.2 -0.2)">
       <use xlink:href="#DejaVuSans-51"/>
      </g>
     </g>
    </g>
    <g id="ytick_5">
     <g id="line2d_7">
      <g>
       <use style="stroke:#000000;stroke-width:1.6;" x="27.575" xlink:href="#m4bd0048a62" y="149.499177"/>
      </g>
     </g>
     <g id="text_7">
      <!-- 4 -->
      <defs>
       <path d="M 37.796875 64.3125 
L 12.890625 25.390625 
L 37.796875 25.390625 
z
M 35.203125 72.90625 
L 47.609375 72.90625 
L 47.609375 25.390625 
L 58.015625 25.390625 
L 58.015625 17.1875 
L 47.609375 17.1875 
L 47.609375 0 
L 37.796875 0 
L 37.796875 17.1875 
L 4.890625 17.1875 
L 4.890625 26.703125 
z
" id="DejaVuSans-52"/>
      </defs>
      <g transform="translate(0.15 157.097614)scale(0.2 -0.2)">
       <use xlink:href="#DejaVuSans-52"/>
      </g>
     </g>
    </g>
    <g id="ytick_6">
     <g id="line2d_8">
      <g>
       <use style="stroke:#000000;stroke-width:1.6;" x="27.575" xlink:href="#m4bd0048a62" y="105.576054"/>
      </g>
     </g>
     <g id="text_8">
      <!-- 5 -->
      <g transform="translate(0.15 113.174491)scale(0.2 -0.2)">
       <use xlink:href="#DejaVuSans-53"/>
      </g>
     </g>
    </g>
    <g id="ytick_7">
     <g id="line2d_9">
      <g>
       <use style="stroke:#000000;stroke-width:1.6;" x="27.575" xlink:href="#m4bd0048a62" y="61.652931"/>
      </g>
     </g>
     <g id="text_9">
      <!-- 6 -->
      <defs>
       <path d="M 33.015625 40.375 
Q 26.375 40.375 22.484375 35.828125 
Q 18.609375 31.296875 18.609375 23.390625 
Q 18.609375 15.53125 22.484375 10.953125 
Q 26.375 6.390625 33.015625 6.390625 
Q 39.65625 6.390625 43.53125 10.953125 
Q 47.40625 15.53125 47.40625 23.390625 
Q 47.40625 31.296875 43.53125 35.828125 
Q 39.65625 40.375 33.015625 40.375 
z
M 52.59375 71.296875 
L 52.59375 62.3125 
Q 48.875 64.0625 45.09375 64.984375 
Q 41.3125 65.921875 37.59375 65.921875 
Q 27.828125 65.921875 22.671875 59.328125 
Q 17.53125 52.734375 16.796875 39.40625 
Q 19.671875 43.65625 24.015625 45.921875 
Q 28.375 48.1875 33.59375 48.1875 
Q 44.578125 48.1875 50.953125 41.515625 
Q 57.328125 34.859375 57.328125 23.390625 
Q 57.328125 12.15625 50.6875 5.359375 
Q 44.046875 -1.421875 33.015625 -1.421875 
Q 20.359375 -1.421875 13.671875 8.265625 
Q 6.984375 17.96875 6.984375 36.375 
Q 6.984375 53.65625 15.1875 63.9375 
Q 23.390625 74.21875 37.203125 74.21875 
Q 40.921875 74.21875 44.703125 73.484375 
Q 48.484375 72.75 52.59375 71.296875 
z
" id="DejaVuSans-54"/>
      </defs>
      <g transform="translate(0.15 69.251369)scale(0.2 -0.2)">
       <use xlink:href="#DejaVuSans-54"/>
      </g>
     </g>
    </g>
    <g id="ytick_8">
     <g id="line2d_10">
      <g>
       <use style="stroke:#000000;stroke-width:1.6;" x="27.575" xlink:href="#m4bd0048a62" y="17.729809"/>
      </g>
     </g>
     <g id="text_10">
      <!-- 7 -->
      <defs>
       <path d="M 8.203125 72.90625 
L 55.078125 72.90625 
L 55.078125 68.703125 
L 28.609375 0 
L 18.3125 0 
L 43.21875 64.59375 
L 8.203125 64.59375 
z
" id="DejaVuSans-55"/>
      </defs>
      <g transform="translate(0.15 25.328246)scale(0.2 -0.2)">
       <use xlink:href="#DejaVuSans-55"/>
      </g>
     </g>
    </g>
   </g>
   <g id="line2d_11">
    <path clip-path="url(#p2aa4f052c4)" d="M 76.415969 325.174039 
L 80.341476 325.041146 
L 82.958481 324.740814 
L 86.883988 324.143081 
L 88.192491 324.069782 
L 90.809496 324.259258 
L 96.043505 325.012002 
L 99.969013 325.17292 
L 105.203022 325.093822 
L 107.820027 324.749514 
L 109.128529 324.365368 
L 110.437032 323.769653 
L 111.745534 322.931329 
L 113.054037 321.863501 
L 116.979544 318.298753 
L 118.288046 317.517816 
L 119.596549 317.15684 
L 120.905051 317.212287 
L 123.522056 317.875509 
L 124.830559 317.843459 
L 126.139061 317.075204 
L 127.447563 315.305807 
L 128.756066 312.489 
L 130.064568 308.852941 
L 132.681573 300.957713 
L 135.298578 294.293519 
L 136.60708 290.896595 
L 137.915583 286.552002 
L 139.224085 280.627948 
L 140.532588 272.871714 
L 141.84109 263.497145 
L 144.458095 242.073115 
L 148.383602 207.935951 
L 149.692104 195.36302 
L 151.000607 181.54369 
L 152.309109 166.206903 
L 153.617612 149.267997 
L 156.234617 111.457051 
L 158.851621 72.583784 
L 160.160124 55.088621 
L 161.468626 40.222056 
L 162.777129 28.832806 
L 164.085631 21.56624 
L 165.394133 18.818105 
L 166.702636 20.676265 
L 168.011138 26.850912 
L 169.319641 36.616693 
L 171.936646 61.955197 
L 173.245148 74.546177 
L 174.55365 85.468414 
L 175.862153 94.343243 
L 177.170655 101.603938 
L 179.78766 115.25356 
L 181.096163 123.426885 
L 182.404665 133.051633 
L 183.713167 144.139249 
L 185.02167 156.600096 
L 187.638675 185.113997 
L 191.564182 231.439114 
L 192.872684 245.610361 
L 194.181187 258.339669 
L 195.489689 269.330211 
L 196.798192 278.387591 
L 198.106694 285.425701 
L 199.415196 290.517674 
L 200.723699 293.95331 
L 202.032201 296.245021 
L 204.649206 299.993689 
L 205.957708 302.526369 
L 207.266211 305.762543 
L 211.191718 316.686495 
L 212.500221 319.383246 
L 213.808723 321.276672 
L 215.117225 322.462668 
L 216.425728 323.136474 
L 217.73423 323.492881 
L 220.351235 323.732011 
L 222.96824 323.658396 
L 226.893747 323.474501 
L 229.510752 323.575195 
L 232.127757 323.947694 
L 237.361767 324.909497 
L 239.978771 325.116481 
L 242.595776 325.173998 
L 242.595776 325.173998 
" style="fill:none;stroke:#000000;stroke-linecap:square;stroke-width:2;"/>
   </g>
   <g id="line2d_12">
    <path clip-path="url(#p2aa4f052c4)" d="M 42.197348 325.175003 
L 48.008859 325.029928 
L 52.367492 324.656189 
L 56.726125 324.323331 
L 59.63188 324.3721 
L 63.990513 324.625536 
L 66.896269 324.513626 
L 69.802024 324.011423 
L 74.160657 323.001507 
L 75.613535 322.792149 
L 78.51929 322.692066 
L 81.425045 322.699179 
L 82.877923 322.524394 
L 84.330801 322.117223 
L 85.783678 321.435254 
L 87.236556 320.485472 
L 88.689434 319.317929 
L 91.595189 316.613178 
L 100.312455 307.971916 
L 101.765333 306.336962 
L 103.21821 304.373699 
L 104.671088 301.835947 
L 106.123966 298.444176 
L 107.576843 293.937979 
L 109.029721 288.133158 
L 110.482599 280.96966 
L 111.935476 272.538493 
L 114.841232 252.943244 
L 119.199865 222.289282 
L 122.10562 203.871543 
L 126.464253 177.267114 
L 129.370008 157.202976 
L 133.728641 125.010933 
L 135.181519 115.969918 
L 136.634397 108.953563 
L 138.087274 104.365035 
L 139.540152 102.179564 
L 140.99303 101.939695 
L 142.445907 102.904124 
L 145.351663 105.544747 
L 146.80454 106.448483 
L 148.257418 107.177549 
L 149.710296 108.169735 
L 151.163173 109.958723 
L 152.616051 113.01628 
L 154.068929 117.658503 
L 155.521806 124.025774 
L 156.974684 132.108622 
L 158.427562 141.77865 
L 159.880439 152.799896 
L 162.786195 177.419739 
L 165.69195 202.396414 
L 168.597705 224.73052 
L 170.050583 234.520155 
L 171.503461 243.366505 
L 172.956338 251.264679 
L 174.409216 258.208211 
L 175.862094 264.237974 
L 177.314971 269.498679 
L 187.485115 302.477506 
L 188.937993 306.401586 
L 190.39087 309.656821 
L 191.843748 312.248124 
L 193.296626 314.25666 
L 194.749503 315.789307 
L 196.202381 316.940797 
L 197.655259 317.781931 
L 199.108136 318.369681 
L 200.561014 318.764124 
L 206.372525 319.888713 
L 209.27828 320.920472 
L 215.089791 323.509846 
L 217.995546 324.424607 
L 220.901301 324.919814 
L 223.807057 325.11784 
L 226.712812 325.17243 
L 226.712812 325.17243 
" style="fill:none;stroke:#000000;stroke-dasharray:7.4,3.2;stroke-dashoffset:0;stroke-width:2;"/>
   </g>
   <g id="line2d_13">
    <path clip-path="url(#p2aa4f052c4)" d="M 110.80135 325.179571 
L 117.851522 325.063352 
L 123.139151 324.722353 
L 133.714409 323.808818 
L 137.239496 323.488076 
L 139.002039 323.192233 
L 140.764582 322.737696 
L 142.527125 322.088547 
L 144.289668 321.236985 
L 147.814754 319.05736 
L 153.102383 315.342022 
L 154.864926 313.965887 
L 156.627469 312.324495 
L 158.390012 310.209339 
L 160.152555 307.407248 
L 161.915098 303.767604 
L 163.677641 299.265977 
L 165.440184 294.034982 
L 177.777986 254.123087 
L 179.540529 247.36988 
L 181.303072 239.806611 
L 183.065615 231.477252 
L 186.590701 213.234572 
L 190.115787 194.645304 
L 191.87833 186.073898 
L 193.640873 178.527673 
L 195.403416 172.367061 
L 197.16596 167.780883 
L 198.928503 164.696303 
L 200.691046 162.771159 
L 204.216132 160.275792 
L 205.978675 158.71178 
L 207.741218 156.56726 
L 209.503761 153.872088 
L 213.028847 148.09568 
L 214.79139 146.03287 
L 216.553933 145.254921 
L 218.316476 146.167148 
L 220.079019 148.927915 
L 221.841562 153.410168 
L 223.604105 159.249159 
L 227.129192 173.077469 
L 232.416821 194.360893 
L 237.70445 215.649588 
L 241.229536 230.988953 
L 244.754622 247.506388 
L 248.279708 264.338644 
L 250.042251 272.282584 
L 251.804794 279.54881 
L 253.567337 285.935806 
L 255.329881 291.357909 
L 257.092424 295.861199 
L 258.854967 299.602732 
L 260.61751 302.799547 
L 264.142596 308.345203 
L 267.667682 313.295217 
L 269.430225 315.446039 
L 271.192768 317.266327 
L 272.955311 318.713127 
L 274.717854 319.805999 
L 276.480397 320.617203 
L 280.005483 321.765637 
L 285.293113 323.117151 
L 288.818199 323.820351 
L 292.343285 324.265118 
L 295.868371 324.43495 
L 302.918543 324.346833 
L 313.493801 324.354601 
L 318.781431 324.541629 
L 327.594146 325.070412 
L 334.644318 325.179669 
L 334.644318 325.179669 
" style="fill:none;stroke:#000000;stroke-dasharray:2,3.3;stroke-dashoffset:0;stroke-width:2;"/>
   </g>
   <g id="patch_3">
    <path d="M 27.575 325.191667 
L 27.575 3.5 
" style="fill:none;stroke:#000000;stroke-linecap:square;stroke-linejoin:miter;stroke-width:0.8;"/>
   </g>
   <g id="patch_4">
    <path d="M 27.575 325.191667 
L 349.266667 325.191667 
" style="fill:none;stroke:#000000;stroke-linecap:square;stroke-linejoin:miter;stroke-width:0.8;"/>
   </g>
  </g>
  <g id="axes_2">
   <g id="patch_5">
    <path d="M 383.941667 325.191667 
L 705.633333 325.191667 
L 705.633333 3.5 
L 383.941667 3.5 
z
" style="fill:#ffffff;"/>
   </g>
   <g id="matplotlib.axis_3">
    <g id="xtick_3">
     <g id="line2d_14">
      <g>
       <use style="stroke:#000000;stroke-width:1.6;" x="410.605738" xlink:href="#m6ed54bdfa0" y="325.191667"/>
      </g>
     </g>
     <g id="text_11">
      <!-- −0.25 -->
      <defs>
       <path d="M 10.59375 35.5 
L 73.1875 35.5 
L 73.1875 27.203125 
L 10.59375 27.203125 
z
" id="DejaVuSans-8722"/>
      </defs>
      <g transform="translate(379.960426 355.088542)scale(0.2 -0.2)">
       <use xlink:href="#DejaVuSans-8722"/>
       <use x="83.789062" xlink:href="#DejaVuSans-48"/>
       <use x="147.412109" xlink:href="#DejaVuSans-46"/>
       <use x="179.199219" xlink:href="#DejaVuSans-50"/>
       <use x="242.822266" xlink:href="#DejaVuSans-53"/>
      </g>
     </g>
    </g>
    <g id="xtick_4">
     <g id="line2d_15">
      <g>
       <use style="stroke:#000000;stroke-width:1.6;" x="476.066311" xlink:href="#m6ed54bdfa0" y="325.191667"/>
      </g>
     </g>
     <g id="text_12">
      <!-- 0.00 -->
      <g transform="translate(453.800686 355.088542)scale(0.2 -0.2)">
       <use xlink:href="#DejaVuSans-48"/>
       <use x="63.623047" xlink:href="#DejaVuSans-46"/>
       <use x="95.410156" xlink:href="#DejaVuSans-48"/>
       <use x="159.033203" xlink:href="#DejaVuSans-48"/>
      </g>
     </g>
    </g>
    <g id="xtick_5">
     <g id="line2d_16">
      <g>
       <use style="stroke:#000000;stroke-width:1.6;" x="541.526884" xlink:href="#m6ed54bdfa0" y="325.191667"/>
      </g>
     </g>
     <g id="text_13">
      <!-- 0.25 -->
      <g transform="translate(519.261259 355.088542)scale(0.2 -0.2)">
       <use xlink:href="#DejaVuSans-48"/>
       <use x="63.623047" xlink:href="#DejaVuSans-46"/>
       <use x="95.410156" xlink:href="#DejaVuSans-50"/>
       <use x="159.033203" xlink:href="#DejaVuSans-53"/>
      </g>
     </g>
    </g>
    <g id="xtick_6">
     <g id="line2d_17">
      <g>
       <use style="stroke:#000000;stroke-width:1.6;" x="606.987457" xlink:href="#m6ed54bdfa0" y="325.191667"/>
      </g>
     </g>
     <g id="text_14">
      <!-- 0.50 -->
      <g transform="translate(584.721832 355.088542)scale(0.2 -0.2)">
       <use xlink:href="#DejaVuSans-48"/>
       <use x="63.623047" xlink:href="#DejaVuSans-46"/>
       <use x="95.410156" xlink:href="#DejaVuSans-53"/>
       <use x="159.033203" xlink:href="#DejaVuSans-48"/>
      </g>
     </g>
    </g>
    <g id="xtick_7">
     <g id="line2d_18">
      <g>
       <use style="stroke:#000000;stroke-width:1.6;" x="672.448031" xlink:href="#m6ed54bdfa0" y="325.191667"/>
      </g>
     </g>
     <g id="text_15">
      <!-- 0.75 -->
      <g transform="translate(650.182406 355.088542)scale(0.2 -0.2)">
       <use xlink:href="#DejaVuSans-48"/>
       <use x="63.623047" xlink:href="#DejaVuSans-46"/>
       <use x="95.410156" xlink:href="#DejaVuSans-55"/>
       <use x="159.033203" xlink:href="#DejaVuSans-53"/>
      </g>
     </g>
    </g>
   </g>
   <g id="matplotlib.axis_4">
    <g id="ytick_9">
     <g id="line2d_19">
      <g>
       <use style="stroke:#000000;stroke-width:1.6;" x="383.941667" xlink:href="#m4bd0048a62" y="325.191667"/>
      </g>
     </g>
     <g id="text_16">
      <!-- 0.0 -->
      <g transform="translate(337.435417 332.790104)scale(0.2 -0.2)">
       <use xlink:href="#DejaVuSans-48"/>
       <use x="63.623047" xlink:href="#DejaVuSans-46"/>
       <use x="95.410156" xlink:href="#DejaVuSans-48"/>
      </g>
     </g>
    </g>
    <g id="ytick_10">
     <g id="line2d_20">
      <g>
       <use style="stroke:#000000;stroke-width:1.6;" x="383.941667" xlink:href="#m4bd0048a62" y="279.806421"/>
      </g>
     </g>
     <g id="text_17">
      <!-- 0.5 -->
      <g transform="translate(337.435417 287.404859)scale(0.2 -0.2)">
       <use xlink:href="#DejaVuSans-48"/>
       <use x="63.623047" xlink:href="#DejaVuSans-46"/>
       <use x="95.410156" xlink:href="#DejaVuSans-53"/>
      </g>
     </g>
    </g>
    <g id="ytick_11">
     <g id="line2d_21">
      <g>
       <use style="stroke:#000000;stroke-width:1.6;" x="383.941667" xlink:href="#m4bd0048a62" y="234.421176"/>
      </g>
     </g>
     <g id="text_18">
      <!-- 1.0 -->
      <g transform="translate(337.435417 242.019613)scale(0.2 -0.2)">
       <use xlink:href="#DejaVuSans-49"/>
       <use x="63.623047" xlink:href="#DejaVuSans-46"/>
       <use x="95.410156" xlink:href="#DejaVuSans-48"/>
      </g>
     </g>
    </g>
    <g id="ytick_12">
     <g id="line2d_22">
      <g>
       <use style="stroke:#000000;stroke-width:1.6;" x="383.941667" xlink:href="#m4bd0048a62" y="189.03593"/>
      </g>
     </g>
     <g id="text_19">
      <!-- 1.5 -->
      <g transform="translate(337.435417 196.634368)scale(0.2 -0.2)">
       <use xlink:href="#DejaVuSans-49"/>
       <use x="63.623047" xlink:href="#DejaVuSans-46"/>
       <use x="95.410156" xlink:href="#DejaVuSans-53"/>
      </g>
     </g>
    </g>
    <g id="ytick_13">
     <g id="line2d_23">
      <g>
       <use style="stroke:#000000;stroke-width:1.6;" x="383.941667" xlink:href="#m4bd0048a62" y="143.650685"/>
      </g>
     </g>
     <g id="text_20">
      <!-- 2.0 -->
      <g transform="translate(337.435417 151.249123)scale(0.2 -0.2)">
       <use xlink:href="#DejaVuSans-50"/>
       <use x="63.623047" xlink:href="#DejaVuSans-46"/>
       <use x="95.410156" xlink:href="#DejaVuSans-48"/>
      </g>
     </g>
    </g>
    <g id="ytick_14">
     <g id="line2d_24">
      <g>
       <use style="stroke:#000000;stroke-width:1.6;" x="383.941667" xlink:href="#m4bd0048a62" y="98.26544"/>
      </g>
     </g>
     <g id="text_21">
      <!-- 2.5 -->
      <g transform="translate(337.435417 105.863877)scale(0.2 -0.2)">
       <use xlink:href="#DejaVuSans-50"/>
       <use x="63.623047" xlink:href="#DejaVuSans-46"/>
       <use x="95.410156" xlink:href="#DejaVuSans-53"/>
      </g>
     </g>
    </g>
    <g id="ytick_15">
     <g id="line2d_25">
      <g>
       <use style="stroke:#000000;stroke-width:1.6;" x="383.941667" xlink:href="#m4bd0048a62" y="52.880194"/>
      </g>
     </g>
     <g id="text_22">
      <!-- 3.0 -->
      <g transform="translate(337.435417 60.478632)scale(0.2 -0.2)">
       <use xlink:href="#DejaVuSans-51"/>
       <use x="63.623047" xlink:href="#DejaVuSans-46"/>
       <use x="95.410156" xlink:href="#DejaVuSans-48"/>
      </g>
     </g>
    </g>
    <g id="ytick_16">
     <g id="line2d_26">
      <g>
       <use style="stroke:#000000;stroke-width:1.6;" x="383.941667" xlink:href="#m4bd0048a62" y="7.494949"/>
      </g>
     </g>
     <g id="text_23">
      <!-- 3.5 -->
      <g transform="translate(337.435417 15.093386)scale(0.2 -0.2)">
       <use xlink:href="#DejaVuSans-51"/>
       <use x="63.623047" xlink:href="#DejaVuSans-46"/>
       <use x="95.410156" xlink:href="#DejaVuSans-53"/>
      </g>
     </g>
    </g>
   </g>
   <g id="line2d_27">
    <path clip-path="url(#p2bc0b67b57)" d="M 0 0 
" style="fill:none;stroke:#000000;stroke-linecap:square;stroke-width:2;"/>
   </g>
   <g id="line2d_28">
    <path clip-path="url(#p2bc0b67b57)" d="M 0 0 
" style="fill:none;stroke:#000000;stroke-dasharray:7.4,3.2;stroke-dashoffset:0;stroke-width:2;"/>
   </g>
   <g id="patch_6">
    <path style="fill:none;stroke:#000000;stroke-linecap:square;stroke-linejoin:miter;stroke-width:0.8;"/>
   </g>
   <g id="patch_7">
    <path style="fill:none;stroke:#000000;stroke-linecap:square;stroke-linejoin:miter;stroke-width:0.8;"/>
   </g>
  </g>
 </g>
 <defs>
  <clipPath id="p2aa4f052c4">
   <rect height="321.691667" width="321.691667" x="27.575" y="3.5"/>
  </clipPath>
  <clipPath id="p2bc0b67b57">
   <rect height="321.691667" width="321.691667" x="383.941667" y="3.5"/>
  </clipPath>
 </defs>
</svg>
