<?xml version="1.0" encoding="utf-8" standalone="no"?>
<!DOCTYPE svg PUBLIC "-//W3C//DTD SVG 1.1//EN"
  "http://www.w3.org/Graphics/SVG/1.1/DTD/svg11.dtd">
<!-- Created with matplotlib (https://matplotlib.org/) -->
<svg height="348.811667pt" version="1.1" viewBox="0 0 342.686667 348.811667" width="342.686667pt" xmlns="http://www.w3.org/2000/svg" xmlns:xlink="http://www.w3.org/1999/xlink">
 <defs>
  <style type="text/css">
*{stroke-linecap:butt;stroke-linejoin:round;}
  </style>
 </defs>
 <g id="figure_1">
  <g id="patch_1">
   <path d="M 0 348.811667 
L 342.686667 348.811667 
L 342.686667 0 
L 0 0 
z
" style="fill:#ffffff;"/>
  </g>
  <g id="axes_1">
   <g id="patch_2">
    <path d="M 27.575 315.111667 
L 339.186667 315.111667 
L 339.186667 3.5 
L 27.575 3.5 
z
" style="fill:#ffffff;"/>
   </g>
   <g id="matplotlib.axis_1">
    <g id="xtick_1">
     <g id="line2d_1">
      <defs>
       <path d="M 0 0 
L 0 3.5 
" id="m6f7aecb16b" style="stroke:#000000;stroke-width:1.6;"/>
      </defs>
      <g>
       <use style="stroke:#000000;stroke-width:1.6;" x="69.052858" xlink:href="#m6f7aecb16b" y="315.111667"/>
      </g>
     </g>
     <g id="text_1">
      <!-- 0.2 -->
      <defs>
       <path d="M 31.78125 66.40625 
Q 24.171875 66.40625 20.328125 58.90625 
Q 16.5 51.421875 16.5 36.375 
Q 16.5 21.390625 20.328125 13.890625 
Q 24.171875 6.390625 31.78125 6.390625 
Q 39.453125 6.390625 43.28125 13.890625 
Q 47.125 21.390625 47.125 36.375 
Q 47.125 51.421875 43.28125 58.90625 
Q 39.453125 66.40625 31.78125 66.40625 
z
M 31.78125 74.21875 
Q 44.046875 74.21875 50.515625 64.515625 
Q 56.984375 54.828125 56.984375 36.375 
Q 56.984375 17.96875 50.515625 8.265625 
Q 44.046875 -1.421875 31.78125 -1.421875 
Q 19.53125 -1.421875 13.0625 8.265625 
Q 6.59375 17.96875 6.59375 36.375 
Q 6.59375 54.828125 13.0625 64.515625 
Q 19.53125 74.21875 31.78125 74.21875 
z
" id="DejaVuSans-48"/>
       <path d="M 10.6875 12.40625 
L 21 12.40625 
L 21 0 
L 10.6875 0 
z
" id="DejaVuSans-46"/>
       <path d="M 19.1875 8.296875 
L 53.609375 8.296875 
L 53.609375 0 
L 7.328125 0 
L 7.328125 8.296875 
Q 12.9375 14.109375 22.625 23.890625 
Q 32.328125 33.6875 34.8125 36.53125 
Q 39.546875 41.84375 41.421875 45.53125 
Q 43.3125 49.21875 43.3125 52.78125 
Q 43.3125 58.59375 39.234375 62.25 
Q 35.15625 65.921875 28.609375 65.921875 
Q 23.96875 65.921875 18.8125 64.3125 
Q 13.671875 62.703125 7.8125 59.421875 
L 7.8125 69.390625 
Q 13.765625 71.78125 18.9375 73 
Q 24.125 74.21875 28.421875 74.21875 
Q 39.75 74.21875 46.484375 68.546875 
Q 53.21875 62.890625 53.21875 53.421875 
Q 53.21875 48.921875 51.53125 44.890625 
Q 49.859375 40.875 45.40625 35.40625 
Q 44.1875 33.984375 37.640625 27.21875 
Q 31.109375 20.453125 19.1875 8.296875 
z
" id="DejaVuSans-50"/>
      </defs>
      <g transform="translate(53.149733 345.008542)scale(0.2 -0.2)">
       <use xlink:href="#DejaVuSans-48"/>
       <use x="63.623047" xlink:href="#DejaVuSans-46"/>
       <use x="95.410156" xlink:href="#DejaVuSans-50"/>
      </g>
     </g>
    </g>
    <g id="xtick_2">
     <g id="line2d_2">
      <g>
       <use style="stroke:#000000;stroke-width:1.6;" x="142.887701" xlink:href="#m6f7aecb16b" y="315.111667"/>
      </g>
     </g>
     <g id="text_2">
      <!-- 0.4 -->
      <defs>
       <path d="M 37.796875 64.3125 
L 12.890625 25.390625 
L 37.796875 25.390625 
z
M 35.203125 72.90625 
L 47.609375 72.90625 
L 47.609375 25.390625 
L 58.015625 25.390625 
L 58.015625 17.1875 
L 47.609375 17.1875 
L 47.609375 0 
L 37.796875 0 
L 37.796875 17.1875 
L 4.890625 17.1875 
L 4.890625 26.703125 
z
" id="DejaVuSans-52"/>
      </defs>
      <g transform="translate(126.984576 345.008542)scale(0.2 -0.2)">
       <use xlink:href="#DejaVuSans-48"/>
       <use x="63.623047" xlink:href="#DejaVuSans-46"/>
       <use x="95.410156" xlink:href="#DejaVuSans-52"/>
      </g>
     </g>
    </g>
    <g id="xtick_3">
     <g id="line2d_3">
      <g>
       <use style="stroke:#000000;stroke-width:1.6;" x="216.722545" xlink:href="#m6f7aecb16b" y="315.111667"/>
      </g>
     </g>
     <g id="text_3">
      <!-- 0.6 -->
      <defs>
       <path d="M 33.015625 40.375 
Q 26.375 40.375 22.484375 35.828125 
Q 18.609375 31.296875 18.609375 23.390625 
Q 18.609375 15.53125 22.484375 10.953125 
Q 26.375 6.390625 33.015625 6.390625 
Q 39.65625 6.390625 43.53125 10.953125 
Q 47.40625 15.53125 47.40625 23.390625 
Q 47.40625 31.296875 43.53125 35.828125 
Q 39.65625 40.375 33.015625 40.375 
z
M 52.59375 71.296875 
L 52.59375 62.3125 
Q 48.875 64.0625 45.09375 64.984375 
Q 41.3125 65.921875 37.59375 65.921875 
Q 27.828125 65.921875 22.671875 59.328125 
Q 17.53125 52.734375 16.796875 39.40625 
Q 19.671875 43.65625 24.015625 45.921875 
Q 28.375 48.1875 33.59375 48.1875 
Q 44.578125 48.1875 50.953125 41.515625 
Q 57.328125 34.859375 57.328125 23.390625 
Q 57.328125 12.15625 50.6875 5.359375 
Q 44.046875 -1.421875 33.015625 -1.421875 
Q 20.359375 -1.421875 13.671875 8.265625 
Q 6.984375 17.96875 6.984375 36.375 
Q 6.984375 53.65625 15.1875 63.9375 
Q 23.390625 74.21875 37.203125 74.21875 
Q 40.921875 74.21875 44.703125 73.484375 
Q 48.484375 72.75 52.59375 71.296875 
z
" id="DejaVuSans-54"/>
      </defs>
      <g transform="translate(200.81942 345.008542)scale(0.2 -0.2)">
       <use xlink:href="#DejaVuSans-48"/>
       <use x="63.623047" xlink:href="#DejaVuSans-46"/>
       <use x="95.410156" xlink:href="#DejaVuSans-54"/>
      </g>
     </g>
    </g>
    <g id="xtick_4">
     <g id="line2d_4">
      <g>
       <use style="stroke:#000000;stroke-width:1.6;" x="290.557388" xlink:href="#m6f7aecb16b" y="315.111667"/>
      </g>
     </g>
     <g id="text_4">
      <!-- 0.8 -->
      <defs>
       <path d="M 31.78125 34.625 
Q 24.75 34.625 20.71875 30.859375 
Q 16.703125 27.09375 16.703125 20.515625 
Q 16.703125 13.921875 20.71875 10.15625 
Q 24.75 6.390625 31.78125 6.390625 
Q 38.8125 6.390625 42.859375 10.171875 
Q 46.921875 13.96875 46.921875 20.515625 
Q 46.921875 27.09375 42.890625 30.859375 
Q 38.875 34.625 31.78125 34.625 
z
M 21.921875 38.8125 
Q 15.578125 40.375 12.03125 44.71875 
Q 8.5 49.078125 8.5 55.328125 
Q 8.5 64.0625 14.71875 69.140625 
Q 20.953125 74.21875 31.78125 74.21875 
Q 42.671875 74.21875 48.875 69.140625 
Q 55.078125 64.0625 55.078125 55.328125 
Q 55.078125 49.078125 51.53125 44.71875 
Q 48 40.375 41.703125 38.8125 
Q 48.828125 37.15625 52.796875 32.3125 
Q 56.78125 27.484375 56.78125 20.515625 
Q 56.78125 9.90625 50.3125 4.234375 
Q 43.84375 -1.421875 31.78125 -1.421875 
Q 19.734375 -1.421875 13.25 4.234375 
Q 6.78125 9.90625 6.78125 20.515625 
Q 6.78125 27.484375 10.78125 32.3125 
Q 14.796875 37.15625 21.921875 38.8125 
z
M 18.3125 54.390625 
Q 18.3125 48.734375 21.84375 45.5625 
Q 25.390625 42.390625 31.78125 42.390625 
Q 38.140625 42.390625 41.71875 45.5625 
Q 45.3125 48.734375 45.3125 54.390625 
Q 45.3125 60.0625 41.71875 63.234375 
Q 38.140625 66.40625 31.78125 66.40625 
Q 25.390625 66.40625 21.84375 63.234375 
Q 18.3125 60.0625 18.3125 54.390625 
z
" id="DejaVuSans-56"/>
      </defs>
      <g transform="translate(274.654263 345.008542)scale(0.2 -0.2)">
       <use xlink:href="#DejaVuSans-48"/>
       <use x="63.623047" xlink:href="#DejaVuSans-46"/>
       <use x="95.410156" xlink:href="#DejaVuSans-56"/>
      </g>
     </g>
    </g>
   </g>
   <g id="matplotlib.axis_2">
    <g id="ytick_1">
     <g id="line2d_5">
      <defs>
       <path d="M 0 0 
L -3.5 0 
" id="m1058c2b032" style="stroke:#000000;stroke-width:1.6;"/>
      </defs>
      <g>
       <use style="stroke:#000000;stroke-width:1.6;" x="27.575" xlink:href="#m1058c2b032" y="315.111667"/>
      </g>
     </g>
     <g id="text_5">
      <!-- 0 -->
      <g transform="translate(0.15 322.710104)scale(0.2 -0.2)">
       <use xlink:href="#DejaVuSans-48"/>
      </g>
     </g>
    </g>
    <g id="ytick_2">
     <g id="line2d_6">
      <g>
       <use style="stroke:#000000;stroke-width:1.6;" x="27.575" xlink:href="#m1058c2b032" y="256.38512"/>
      </g>
     </g>
     <g id="text_6">
      <!-- 1 -->
      <defs>
       <path d="M 12.40625 8.296875 
L 28.515625 8.296875 
L 28.515625 63.921875 
L 10.984375 60.40625 
L 10.984375 69.390625 
L 28.421875 72.90625 
L 38.28125 72.90625 
L 38.28125 8.296875 
L 54.390625 8.296875 
L 54.390625 0 
L 12.40625 0 
z
" id="DejaVuSans-49"/>
      </defs>
      <g transform="translate(0.15 263.983558)scale(0.2 -0.2)">
       <use xlink:href="#DejaVuSans-49"/>
      </g>
     </g>
    </g>
    <g id="ytick_3">
     <g id="line2d_7">
      <g>
       <use style="stroke:#000000;stroke-width:1.6;" x="27.575" xlink:href="#m1058c2b032" y="197.658574"/>
      </g>
     </g>
     <g id="text_7">
      <!-- 2 -->
      <g transform="translate(0.15 205.257011)scale(0.2 -0.2)">
       <use xlink:href="#DejaVuSans-50"/>
      </g>
     </g>
    </g>
    <g id="ytick_4">
     <g id="line2d_8">
      <g>
       <use style="stroke:#000000;stroke-width:1.6;" x="27.575" xlink:href="#m1058c2b032" y="138.932027"/>
      </g>
     </g>
     <g id="text_8">
      <!-- 3 -->
      <defs>
       <path d="M 40.578125 39.3125 
Q 47.65625 37.796875 51.625 33 
Q 55.609375 28.21875 55.609375 21.1875 
Q 55.609375 10.40625 48.1875 4.484375 
Q 40.765625 -1.421875 27.09375 -1.421875 
Q 22.515625 -1.421875 17.65625 -0.515625 
Q 12.796875 0.390625 7.625 2.203125 
L 7.625 11.71875 
Q 11.71875 9.328125 16.59375 8.109375 
Q 21.484375 6.890625 26.8125 6.890625 
Q 36.078125 6.890625 40.9375 10.546875 
Q 45.796875 14.203125 45.796875 21.1875 
Q 45.796875 27.640625 41.28125 31.265625 
Q 36.765625 34.90625 28.71875 34.90625 
L 20.21875 34.90625 
L 20.21875 43.015625 
L 29.109375 43.015625 
Q 36.375 43.015625 40.234375 45.921875 
Q 44.09375 48.828125 44.09375 54.296875 
Q 44.09375 59.90625 40.109375 62.90625 
Q 36.140625 65.921875 28.71875 65.921875 
Q 24.65625 65.921875 20.015625 65.03125 
Q 15.375 64.15625 9.8125 62.3125 
L 9.8125 71.09375 
Q 15.4375 72.65625 20.34375 73.4375 
Q 25.25 74.21875 29.59375 74.21875 
Q 40.828125 74.21875 47.359375 69.109375 
Q 53.90625 64.015625 53.90625 55.328125 
Q 53.90625 49.265625 50.4375 45.09375 
Q 46.96875 40.921875 40.578125 39.3125 
z
" id="DejaVuSans-51"/>
      </defs>
      <g transform="translate(0.15 146.530464)scale(0.2 -0.2)">
       <use xlink:href="#DejaVuSans-51"/>
      </g>
     </g>
    </g>
    <g id="ytick_5">
     <g id="line2d_9">
      <g>
       <use style="stroke:#000000;stroke-width:1.6;" x="27.575" xlink:href="#m1058c2b032" y="80.20548"/>
      </g>
     </g>
     <g id="text_9">
      <!-- 4 -->
      <g transform="translate(0.15 87.803918)scale(0.2 -0.2)">
       <use xlink:href="#DejaVuSans-52"/>
      </g>
     </g>
    </g>
    <g id="ytick_6">
     <g id="line2d_10">
      <g>
       <use style="stroke:#000000;stroke-width:1.6;" x="27.575" xlink:href="#m1058c2b032" y="21.478934"/>
      </g>
     </g>
     <g id="text_10">
      <!-- 5 -->
      <defs>
       <path d="M 10.796875 72.90625 
L 49.515625 72.90625 
L 49.515625 64.59375 
L 19.828125 64.59375 
L 19.828125 46.734375 
Q 21.96875 47.46875 24.109375 47.828125 
Q 26.265625 48.1875 28.421875 48.1875 
Q 40.625 48.1875 47.75 41.5 
Q 54.890625 34.8125 54.890625 23.390625 
Q 54.890625 11.625 47.5625 5.09375 
Q 40.234375 -1.421875 26.90625 -1.421875 
Q 22.3125 -1.421875 17.546875 -0.640625 
Q 12.796875 0.140625 7.71875 1.703125 
L 7.71875 11.625 
Q 12.109375 9.234375 16.796875 8.0625 
Q 21.484375 6.890625 26.703125 6.890625 
Q 35.15625 6.890625 40.078125 11.328125 
Q 45.015625 15.765625 45.015625 23.390625 
Q 45.015625 31 40.078125 35.4375 
Q 35.15625 39.890625 26.703125 39.890625 
Q 22.75 39.890625 18.8125 39.015625 
Q 14.890625 38.140625 10.796875 36.28125 
z
" id="DejaVuSans-53"/>
      </defs>
      <g transform="translate(0.15 29.077371)scale(0.2 -0.2)">
       <use xlink:href="#DejaVuSans-53"/>
      </g>
     </g>
    </g>
   </g>
   <g id="line2d_11">
    <path clip-path="url(#p707fed7b6e)" d="M 80.511787 315.09875 
L 88.212912 314.957418 
L 92.063475 314.698204 
L 97.839318 313.996045 
L 115.166849 311.565375 
L 120.942693 310.763573 
L 122.867974 310.351271 
L 124.793255 309.815891 
L 126.718536 309.139283 
L 128.643817 308.307832 
L 130.569099 307.309067 
L 132.49438 306.135176 
L 136.344942 303.318149 
L 142.120786 298.718665 
L 149.821911 292.865286 
L 151.747192 291.074002 
L 153.672473 289.040011 
L 155.597754 286.776207 
L 159.448317 281.757079 
L 163.298879 276.350185 
L 165.22416 273.455647 
L 167.149441 270.312277 
L 169.074723 266.801683 
L 171.000004 262.832435 
L 172.925285 258.380662 
L 176.775847 248.359657 
L 182.551691 232.753936 
L 188.327535 217.44127 
L 190.252816 211.887269 
L 192.178097 205.845844 
L 194.103378 199.188791 
L 196.028659 191.831347 
L 197.953941 183.750247 
L 199.879222 174.997095 
L 203.729784 156.022748 
L 209.505628 126.617323 
L 213.35619 108.317063 
L 215.281471 99.989431 
L 217.206753 92.33189 
L 219.132034 85.34978 
L 221.057315 78.989613 
L 222.982596 73.193225 
L 224.907877 67.961885 
L 226.833159 63.386644 
L 228.75844 59.617826 
L 230.683721 56.782773 
L 232.609002 54.89309 
L 234.534284 53.792189 
L 236.459565 53.177248 
L 238.384846 52.695632 
L 240.310127 52.079775 
L 244.16069 50.422463 
L 246.085971 49.930262 
L 248.011252 50.231202 
L 249.936533 51.708097 
L 251.861814 54.594109 
L 253.787096 58.968712 
L 255.712377 64.828471 
L 257.637658 72.184262 
L 259.562939 81.122723 
L 261.48822 91.790522 
L 263.413502 104.305107 
L 265.338783 118.638942 
L 267.264064 134.539636 
L 274.965189 202.64885 
L 276.89047 217.875991 
L 278.815751 231.651415 
L 280.741032 243.909338 
L 282.666314 254.708911 
L 284.591595 264.179195 
L 286.516876 272.47065 
L 288.442157 279.722503 
L 290.367438 286.047758 
L 292.29272 291.53214 
L 294.218001 296.241383 
L 296.143282 300.231761 
L 298.068563 303.559957 
L 299.993844 306.289341 
L 301.919126 308.491021 
L 303.844407 310.240039 
L 305.769688 311.60912 
L 307.694969 312.663309 
L 309.62025 313.457831 
L 311.545532 314.039319 
L 313.470813 314.448638 
L 317.321375 314.896938 
L 321.171938 315.057161 
L 325.0225 315.097762 
L 325.0225 315.097762 
" style="fill:none;stroke:#000000;stroke-linecap:square;stroke-width:2;"/>
   </g>
   <g id="line2d_12">
    <path clip-path="url(#p707fed7b6e)" d="M 41.739167 315.10439 
L 49.352553 315.01399 
L 55.062593 314.72101 
L 60.772633 314.210031 
L 64.579326 313.762697 
L 68.386019 313.121368 
L 77.902752 311.060014 
L 81.709445 310.726637 
L 85.516138 310.422661 
L 87.419485 310.008891 
L 89.322832 309.258601 
L 91.226178 308.092905 
L 93.129525 306.502192 
L 95.032871 304.559262 
L 100.742911 298.236404 
L 102.646258 296.535952 
L 104.549604 295.202898 
L 106.452951 294.213199 
L 112.162991 291.923629 
L 114.066337 290.707009 
L 115.969684 288.928612 
L 117.87303 286.463835 
L 119.776377 283.271781 
L 121.679724 279.393388 
L 123.58307 274.928679 
L 125.486417 270.000371 
L 129.29311 259.13256 
L 133.099803 247.046455 
L 136.906496 233.49158 
L 144.519883 204.547783 
L 148.326576 191.522456 
L 152.133269 178.62822 
L 154.036616 171.509956 
L 155.939962 163.645867 
L 157.843309 154.975205 
L 161.650002 135.641179 
L 169.263389 95.123151 
L 171.166735 85.795374 
L 173.070082 77.101417 
L 174.973428 69.169062 
L 176.876775 62.102839 
L 178.780122 55.964562 
L 180.683468 50.750287 
L 182.586815 46.378157 
L 184.490161 42.704641 
L 186.393508 39.578422 
L 188.296855 36.921329 
L 190.200201 34.803133 
L 192.103548 33.466772 
L 194.006894 33.274841 
L 195.910241 34.586615 
L 197.813587 37.618348 
L 199.716934 42.358461 
L 201.620281 48.584022 
L 203.523627 55.966762 
L 205.426974 64.204186 
L 207.33032 73.101647 
L 211.137014 92.563796 
L 214.943707 113.791997 
L 220.653747 147.135018 
L 224.46044 170.355359 
L 233.977173 230.46938 
L 235.880519 240.990481 
L 237.783866 250.494505 
L 239.687213 258.952847 
L 241.590559 266.44501 
L 243.493906 273.124759 
L 245.397252 279.169923 
L 247.300599 284.728348 
L 249.203946 289.878235 
L 251.107292 294.618309 
L 253.010639 298.890102 
L 254.913985 302.618943 
L 256.817332 305.75314 
L 258.720679 308.285982 
L 260.624025 310.257124 
L 262.527372 311.739654 
L 264.430718 312.822184 
L 266.334065 313.593093 
L 268.237412 314.130262 
L 270.140758 314.496661 
L 273.947451 314.897487 
L 279.657491 315.082325 
L 283.464184 315.104207 
L 283.464184 315.104207 
" style="fill:none;stroke:#000000;stroke-dasharray:7.4,3.2;stroke-dashoffset:0;stroke-width:2;"/>
   </g>
   <g id="line2d_13">
    <path clip-path="url(#p707fed7b6e)" d="M 57.912685 315.102273 
L 65.499864 315.009027 
L 71.190249 314.736941 
L 76.880634 314.22797 
L 80.674224 313.614072 
L 86.364609 312.498269 
L 88.261404 312.304048 
L 90.158198 312.261855 
L 99.642173 312.564343 
L 101.538968 312.394611 
L 103.435763 312.104625 
L 105.332558 311.672931 
L 107.229353 311.071589 
L 109.126148 310.27667 
L 111.022943 309.275662 
L 112.919738 308.066988 
L 114.816533 306.654431 
L 116.713328 305.043016 
L 118.610122 303.240404 
L 122.403712 299.137076 
L 128.094097 292.315783 
L 133.784482 285.409962 
L 135.681277 282.840355 
L 137.578072 279.846345 
L 139.474867 276.233682 
L 141.371662 271.881211 
L 143.268457 266.776121 
L 145.165252 260.998687 
L 147.062046 254.672182 
L 150.855636 240.843272 
L 162.236406 196.954639 
L 164.133201 188.935774 
L 166.029996 179.987898 
L 167.926791 169.851298 
L 169.823586 158.479577 
L 173.617176 133.166172 
L 177.410765 107.984033 
L 179.30756 96.618598 
L 181.204355 86.250867 
L 183.10115 76.735372 
L 184.997945 67.885418 
L 186.89474 59.655035 
L 188.791535 52.20955 
L 190.68833 45.823115 
L 192.585125 40.660488 
L 194.48192 36.593538 
L 202.0691 22.969845 
L 203.965894 19.964314 
L 205.862689 18.338304 
L 207.759484 18.912166 
L 209.656279 22.153931 
L 211.553074 28.035465 
L 213.449869 36.10323 
L 215.346664 45.700332 
L 219.140254 67.164893 
L 228.624229 122.30955 
L 232.417818 144.402219 
L 236.211408 167.998946 
L 241.901793 204.191485 
L 243.798588 215.314504 
L 245.695383 225.626355 
L 247.592178 235.075416 
L 249.488973 243.68182 
L 251.385768 251.511266 
L 253.282563 258.664879 
L 257.076153 271.483314 
L 260.869742 283.101564 
L 262.766537 288.509701 
L 264.663332 293.503865 
L 266.560127 297.921666 
L 268.456922 301.632983 
L 270.353717 304.58934 
L 272.250512 306.840085 
L 274.147307 308.5139 
L 276.044102 309.777464 
L 277.940897 310.788715 
L 281.734487 312.448937 
L 285.528077 313.762841 
L 287.424872 314.244471 
L 289.321666 314.595246 
L 293.115256 314.968262 
L 298.805641 315.098584 
L 298.805641 315.098584 
" style="fill:none;stroke:#000000;stroke-dasharray:2,3.3;stroke-dashoffset:0;stroke-width:2;"/>
   </g>
   <g id="patch_3">
    <path d="M 27.575 315.111667 
L 27.575 3.5 
" style="fill:none;stroke:#000000;stroke-linecap:square;stroke-linejoin:miter;stroke-width:0.8;"/>
   </g>
   <g id="patch_4">
    <path d="M 27.575 315.111667 
L 339.186667 315.111667 
" style="fill:none;stroke:#000000;stroke-linecap:square;stroke-linejoin:miter;stroke-width:0.8;"/>
   </g>
  </g>
  <g id="axes_2">
   <g id="patch_5">
    <path d="M 381.421667 315.111667 
L 693.033333 315.111667 
L 693.033333 3.5 
L 381.421667 3.5 
z
" style="fill:#ffffff;"/>
   </g>
   <g id="matplotlib.axis_3">
    <g id="xtick_5">
     <g id="line2d_14">
      <g>
       <use style="stroke:#000000;stroke-width:1.6;" x="404.734675" xlink:href="#m6f7aecb16b" y="315.111667"/>
      </g>
     </g>
     <g id="text_11">
      <!-- −0.50 -->
      <defs>
       <path d="M 10.59375 35.5 
L 73.1875 35.5 
L 73.1875 27.203125 
L 10.59375 27.203125 
z
" id="DejaVuSans-8722"/>
      </defs>
      <g transform="translate(374.089362 345.008542)scale(0.2 -0.2)">
       <use xlink:href="#DejaVuSans-8722"/>
       <use x="83.789062" xlink:href="#DejaVuSans-48"/>
       <use x="147.412109" xlink:href="#DejaVuSans-46"/>
       <use x="179.199219" xlink:href="#DejaVuSans-53"/>
       <use x="242.822266" xlink:href="#DejaVuSans-48"/>
      </g>
     </g>
    </g>
    <g id="xtick_6">
     <g id="line2d_15">
      <g>
       <use style="stroke:#000000;stroke-width:1.6;" x="476.82051" xlink:href="#m6f7aecb16b" y="315.111667"/>
      </g>
     </g>
     <g id="text_12">
      <!-- −0.25 -->
      <g transform="translate(446.175197 345.008542)scale(0.2 -0.2)">
       <use xlink:href="#DejaVuSans-8722"/>
       <use x="83.789062" xlink:href="#DejaVuSans-48"/>
       <use x="147.412109" xlink:href="#DejaVuSans-46"/>
       <use x="179.199219" xlink:href="#DejaVuSans-50"/>
       <use x="242.822266" xlink:href="#DejaVuSans-53"/>
      </g>
     </g>
    </g>
    <g id="xtick_7">
     <g id="line2d_16">
      <g>
       <use style="stroke:#000000;stroke-width:1.6;" x="548.906345" xlink:href="#m6f7aecb16b" y="315.111667"/>
      </g>
     </g>
     <g id="text_13">
      <!-- 0.00 -->
      <g transform="translate(526.64072 345.008542)scale(0.2 -0.2)">
       <use xlink:href="#DejaVuSans-48"/>
       <use x="63.623047" xlink:href="#DejaVuSans-46"/>
       <use x="95.410156" xlink:href="#DejaVuSans-48"/>
       <use x="159.033203" xlink:href="#DejaVuSans-48"/>
      </g>
     </g>
    </g>
    <g id="xtick_8">
     <g id="line2d_17">
      <g>
       <use style="stroke:#000000;stroke-width:1.6;" x="620.992181" xlink:href="#m6f7aecb16b" y="315.111667"/>
      </g>
     </g>
     <g id="text_14">
      <!-- 0.25 -->
      <g transform="translate(598.726556 345.008542)scale(0.2 -0.2)">
       <use xlink:href="#DejaVuSans-48"/>
       <use x="63.623047" xlink:href="#DejaVuSans-46"/>
       <use x="95.410156" xlink:href="#DejaVuSans-50"/>
       <use x="159.033203" xlink:href="#DejaVuSans-53"/>
      </g>
     </g>
    </g>
    <g id="xtick_9">
     <g id="line2d_18">
      <g>
       <use style="stroke:#000000;stroke-width:1.6;" x="693.078016" xlink:href="#m6f7aecb16b" y="315.111667"/>
      </g>
     </g>
     <g id="text_15">
      <!-- 0.50 -->
      <g transform="translate(670.812391 345.008542)scale(0.2 -0.2)">
       <use xlink:href="#DejaVuSans-48"/>
       <use x="63.623047" xlink:href="#DejaVuSans-46"/>
       <use x="95.410156" xlink:href="#DejaVuSans-53"/>
       <use x="159.033203" xlink:href="#DejaVuSans-48"/>
      </g>
     </g>
    </g>
   </g>
   <g id="matplotlib.axis_4">
    <g id="ytick_7">
     <g id="line2d_19">
      <g>
       <use style="stroke:#000000;stroke-width:1.6;" x="381.421667" xlink:href="#m1058c2b032" y="315.111667"/>
      </g>
     </g>
     <g id="text_16">
      <!-- 0 -->
      <g transform="translate(353.996667 322.710104)scale(0.2 -0.2)">
       <use xlink:href="#DejaVuSans-48"/>
      </g>
     </g>
    </g>
    <g id="ytick_8">
     <g id="line2d_20">
      <g>
       <use style="stroke:#000000;stroke-width:1.6;" x="381.421667" xlink:href="#m1058c2b032" y="266.175399"/>
      </g>
     </g>
     <g id="text_17">
      <!-- 1 -->
      <g transform="translate(353.996667 273.773837)scale(0.2 -0.2)">
       <use xlink:href="#DejaVuSans-49"/>
      </g>
     </g>
    </g>
    <g id="ytick_9">
     <g id="line2d_21">
      <g>
       <use style="stroke:#000000;stroke-width:1.6;" x="381.421667" xlink:href="#m1058c2b032" y="217.239132"/>
      </g>
     </g>
     <g id="text_18">
      <!-- 2 -->
      <g transform="translate(353.996667 224.837569)scale(0.2 -0.2)">
       <use xlink:href="#DejaVuSans-50"/>
      </g>
     </g>
    </g>
    <g id="ytick_10">
     <g id="line2d_22">
      <g>
       <use style="stroke:#000000;stroke-width:1.6;" x="381.421667" xlink:href="#m1058c2b032" y="168.302864"/>
      </g>
     </g>
     <g id="text_19">
      <!-- 3 -->
      <g transform="translate(353.996667 175.901302)scale(0.2 -0.2)">
       <use xlink:href="#DejaVuSans-51"/>
      </g>
     </g>
    </g>
    <g id="ytick_11">
     <g id="line2d_23">
      <g>
       <use style="stroke:#000000;stroke-width:1.6;" x="381.421667" xlink:href="#m1058c2b032" y="119.366596"/>
      </g>
     </g>
     <g id="text_20">
      <!-- 4 -->
      <g transform="translate(353.996667 126.965034)scale(0.2 -0.2)">
       <use xlink:href="#DejaVuSans-52"/>
      </g>
     </g>
    </g>
    <g id="ytick_12">
     <g id="line2d_24">
      <g>
       <use style="stroke:#000000;stroke-width:1.6;" x="381.421667" xlink:href="#m1058c2b032" y="70.430329"/>
      </g>
     </g>
     <g id="text_21">
      <!-- 5 -->
      <g transform="translate(353.996667 78.028766)scale(0.2 -0.2)">
       <use xlink:href="#DejaVuSans-53"/>
      </g>
     </g>
    </g>
    <g id="ytick_13">
     <g id="line2d_25">
      <g>
       <use style="stroke:#000000;stroke-width:1.6;" x="381.421667" xlink:href="#m1058c2b032" y="21.494061"/>
      </g>
     </g>
     <g id="text_22">
      <!-- 6 -->
      <g transform="translate(353.996667 29.092499)scale(0.2 -0.2)">
       <use xlink:href="#DejaVuSans-54"/>
      </g>
     </g>
    </g>
   </g>
   <g id="line2d_26">
    <path clip-path="url(#p747e3507f1)" d="M 0 0 
" style="fill:none;stroke:#000000;stroke-linecap:square;stroke-width:2;"/>
   </g>
   <g id="line2d_27">
    <path clip-path="url(#p747e3507f1)" d="M 0 0 
" style="fill:none;stroke:#000000;stroke-dasharray:7.4,3.2;stroke-dashoffset:0;stroke-width:2;"/>
   </g>
   <g id="patch_6">
    <path style="fill:none;stroke:#000000;stroke-linecap:square;stroke-linejoin:miter;stroke-width:0.8;"/>
   </g>
   <g id="patch_7">
    <path style="fill:none;stroke:#000000;stroke-linecap:square;stroke-linejoin:miter;stroke-width:0.8;"/>
   </g>
  </g>
 </g>
 <defs>
  <clipPath id="p707fed7b6e">
   <rect height="311.611667" width="311.611667" x="27.575" y="3.5"/>
  </clipPath>
  <clipPath id="p747e3507f1">
   <rect height="311.611667" width="311.611667" x="381.421667" y="3.5"/>
  </clipPath>
 </defs>
</svg>
