<?xml version="1.0" encoding="utf-8" standalone="no"?>
<!DOCTYPE svg PUBLIC "-//W3C//DTD SVG 1.1//EN"
  "http://www.w3.org/Graphics/SVG/1.1/DTD/svg11.dtd">
<!-- Created with matplotlib (https://matplotlib.org/) -->
<svg height="349.775947pt" version="1.1" viewBox="0 0 345.726314 349.775947" width="345.726314pt" xmlns="http://www.w3.org/2000/svg" xmlns:xlink="http://www.w3.org/1999/xlink">
 <defs>
  <style type="text/css">
*{stroke-linecap:butt;stroke-linejoin:round;}
  </style>
 </defs>
 <g id="figure_1">
  <g id="patch_1">
   <path d="M 0 349.775947 
L 345.726314 349.775947 
L 345.726314 -0 
L 0 -0 
z
" style="fill:#ffffff;"/>
  </g>
  <g id="axes_1">
   <g id="patch_2">
    <path d="M 27.575 316.075947 
L 338.005536 316.075947 
L 338.005536 5.645411 
L 27.575 5.645411 
z
" style="fill:#ffffff;"/>
   </g>
   <g id="matplotlib.axis_1">
    <g id="xtick_1">
     <g id="line2d_1">
      <defs>
       <path d="M 0 0 
L 0 3.5 
" id="m9f9fadbc73" style="stroke:#000000;stroke-width:1.6;"/>
      </defs>
      <g>
       <use style="stroke:#000000;stroke-width:1.6;" x="96.787274" xlink:href="#m9f9fadbc73" y="316.075947"/>
      </g>
     </g>
     <g id="text_1">
      <!-- 0.00 -->
      <defs>
       <path d="M 31.78125 66.40625 
Q 24.171875 66.40625 20.328125 58.90625 
Q 16.5 51.421875 16.5 36.375 
Q 16.5 21.390625 20.328125 13.890625 
Q 24.171875 6.390625 31.78125 6.390625 
Q 39.453125 6.390625 43.28125 13.890625 
Q 47.125 21.390625 47.125 36.375 
Q 47.125 51.421875 43.28125 58.90625 
Q 39.453125 66.40625 31.78125 66.40625 
z
M 31.78125 74.21875 
Q 44.046875 74.21875 50.515625 64.515625 
Q 56.984375 54.828125 56.984375 36.375 
Q 56.984375 17.96875 50.515625 8.265625 
Q 44.046875 -1.421875 31.78125 -1.421875 
Q 19.53125 -1.421875 13.0625 8.265625 
Q 6.59375 17.96875 6.59375 36.375 
Q 6.59375 54.828125 13.0625 64.515625 
Q 19.53125 74.21875 31.78125 74.21875 
z
" id="DejaVuSans-48"/>
       <path d="M 10.6875 12.40625 
L 21 12.40625 
L 21 0 
L 10.6875 0 
z
" id="DejaVuSans-46"/>
      </defs>
      <g transform="translate(74.521649 345.972822)scale(0.2 -0.2)">
       <use xlink:href="#DejaVuSans-48"/>
       <use x="63.623047" xlink:href="#DejaVuSans-46"/>
       <use x="95.410156" xlink:href="#DejaVuSans-48"/>
       <use x="159.033203" xlink:href="#DejaVuSans-48"/>
      </g>
     </g>
    </g>
    <g id="xtick_2">
     <g id="line2d_2">
      <g>
       <use style="stroke:#000000;stroke-width:1.6;" x="172.329454" xlink:href="#m9f9fadbc73" y="316.075947"/>
      </g>
     </g>
     <g id="text_2">
      <!-- 0.25 -->
      <defs>
       <path d="M 19.1875 8.296875 
L 53.609375 8.296875 
L 53.609375 0 
L 7.328125 0 
L 7.328125 8.296875 
Q 12.9375 14.109375 22.625 23.890625 
Q 32.328125 33.6875 34.8125 36.53125 
Q 39.546875 41.84375 41.421875 45.53125 
Q 43.3125 49.21875 43.3125 52.78125 
Q 43.3125 58.59375 39.234375 62.25 
Q 35.15625 65.921875 28.609375 65.921875 
Q 23.96875 65.921875 18.8125 64.3125 
Q 13.671875 62.703125 7.8125 59.421875 
L 7.8125 69.390625 
Q 13.765625 71.78125 18.9375 73 
Q 24.125 74.21875 28.421875 74.21875 
Q 39.75 74.21875 46.484375 68.546875 
Q 53.21875 62.890625 53.21875 53.421875 
Q 53.21875 48.921875 51.53125 44.890625 
Q 49.859375 40.875 45.40625 35.40625 
Q 44.1875 33.984375 37.640625 27.21875 
Q 31.109375 20.453125 19.1875 8.296875 
z
" id="DejaVuSans-50"/>
       <path d="M 10.796875 72.90625 
L 49.515625 72.90625 
L 49.515625 64.59375 
L 19.828125 64.59375 
L 19.828125 46.734375 
Q 21.96875 47.46875 24.109375 47.828125 
Q 26.265625 48.1875 28.421875 48.1875 
Q 40.625 48.1875 47.75 41.5 
Q 54.890625 34.8125 54.890625 23.390625 
Q 54.890625 11.625 47.5625 5.09375 
Q 40.234375 -1.421875 26.90625 -1.421875 
Q 22.3125 -1.421875 17.546875 -0.640625 
Q 12.796875 0.140625 7.71875 1.703125 
L 7.71875 11.625 
Q 12.109375 9.234375 16.796875 8.0625 
Q 21.484375 6.890625 26.703125 6.890625 
Q 35.15625 6.890625 40.078125 11.328125 
Q 45.015625 15.765625 45.015625 23.390625 
Q 45.015625 31 40.078125 35.4375 
Q 35.15625 39.890625 26.703125 39.890625 
Q 22.75 39.890625 18.8125 39.015625 
Q 14.890625 38.140625 10.796875 36.28125 
z
" id="DejaVuSans-53"/>
      </defs>
      <g transform="translate(150.063829 345.972822)scale(0.2 -0.2)">
       <use xlink:href="#DejaVuSans-48"/>
       <use x="63.623047" xlink:href="#DejaVuSans-46"/>
       <use x="95.410156" xlink:href="#DejaVuSans-50"/>
       <use x="159.033203" xlink:href="#DejaVuSans-53"/>
      </g>
     </g>
    </g>
    <g id="xtick_3">
     <g id="line2d_3">
      <g>
       <use style="stroke:#000000;stroke-width:1.6;" x="247.871634" xlink:href="#m9f9fadbc73" y="316.075947"/>
      </g>
     </g>
     <g id="text_3">
      <!-- 0.50 -->
      <g transform="translate(225.606009 345.972822)scale(0.2 -0.2)">
       <use xlink:href="#DejaVuSans-48"/>
       <use x="63.623047" xlink:href="#DejaVuSans-46"/>
       <use x="95.410156" xlink:href="#DejaVuSans-53"/>
       <use x="159.033203" xlink:href="#DejaVuSans-48"/>
      </g>
     </g>
    </g>
    <g id="xtick_4">
     <g id="line2d_4">
      <g>
       <use style="stroke:#000000;stroke-width:1.6;" x="323.413814" xlink:href="#m9f9fadbc73" y="316.075947"/>
      </g>
     </g>
     <g id="text_4">
      <!-- 0.75 -->
      <defs>
       <path d="M 8.203125 72.90625 
L 55.078125 72.90625 
L 55.078125 68.703125 
L 28.609375 0 
L 18.3125 0 
L 43.21875 64.59375 
L 8.203125 64.59375 
z
" id="DejaVuSans-55"/>
      </defs>
      <g transform="translate(301.148189 345.972822)scale(0.2 -0.2)">
       <use xlink:href="#DejaVuSans-48"/>
       <use x="63.623047" xlink:href="#DejaVuSans-46"/>
       <use x="95.410156" xlink:href="#DejaVuSans-55"/>
       <use x="159.033203" xlink:href="#DejaVuSans-53"/>
      </g>
     </g>
    </g>
   </g>
   <g id="matplotlib.axis_2">
    <g id="ytick_1">
     <g id="line2d_5">
      <defs>
       <path d="M 0 0 
L -3.5 0 
" id="m326f7687bd" style="stroke:#000000;stroke-width:1.6;"/>
      </defs>
      <g>
       <use style="stroke:#000000;stroke-width:1.6;" x="27.575" xlink:href="#m326f7687bd" y="316.075947"/>
      </g>
     </g>
     <g id="text_5">
      <!-- 0 -->
      <g transform="translate(0.15 323.674384)scale(0.2 -0.2)">
       <use xlink:href="#DejaVuSans-48"/>
      </g>
     </g>
    </g>
    <g id="ytick_2">
     <g id="line2d_6">
      <g>
       <use style="stroke:#000000;stroke-width:1.6;" x="27.575" xlink:href="#m326f7687bd" y="238.93196"/>
      </g>
     </g>
     <g id="text_6">
      <!-- 2 -->
      <g transform="translate(0.15 246.530398)scale(0.2 -0.2)">
       <use xlink:href="#DejaVuSans-50"/>
      </g>
     </g>
    </g>
    <g id="ytick_3">
     <g id="line2d_7">
      <g>
       <use style="stroke:#000000;stroke-width:1.6;" x="27.575" xlink:href="#m326f7687bd" y="161.787973"/>
      </g>
     </g>
     <g id="text_7">
      <!-- 4 -->
      <defs>
       <path d="M 37.796875 64.3125 
L 12.890625 25.390625 
L 37.796875 25.390625 
z
M 35.203125 72.90625 
L 47.609375 72.90625 
L 47.609375 25.390625 
L 58.015625 25.390625 
L 58.015625 17.1875 
L 47.609375 17.1875 
L 47.609375 0 
L 37.796875 0 
L 37.796875 17.1875 
L 4.890625 17.1875 
L 4.890625 26.703125 
z
" id="DejaVuSans-52"/>
      </defs>
      <g transform="translate(0.15 169.386411)scale(0.2 -0.2)">
       <use xlink:href="#DejaVuSans-52"/>
      </g>
     </g>
    </g>
    <g id="ytick_4">
     <g id="line2d_8">
      <g>
       <use style="stroke:#000000;stroke-width:1.6;" x="27.575" xlink:href="#m326f7687bd" y="84.643987"/>
      </g>
     </g>
     <g id="text_8">
      <!-- 6 -->
      <defs>
       <path d="M 33.015625 40.375 
Q 26.375 40.375 22.484375 35.828125 
Q 18.609375 31.296875 18.609375 23.390625 
Q 18.609375 15.53125 22.484375 10.953125 
Q 26.375 6.390625 33.015625 6.390625 
Q 39.65625 6.390625 43.53125 10.953125 
Q 47.40625 15.53125 47.40625 23.390625 
Q 47.40625 31.296875 43.53125 35.828125 
Q 39.65625 40.375 33.015625 40.375 
z
M 52.59375 71.296875 
L 52.59375 62.3125 
Q 48.875 64.0625 45.09375 64.984375 
Q 41.3125 65.921875 37.59375 65.921875 
Q 27.828125 65.921875 22.671875 59.328125 
Q 17.53125 52.734375 16.796875 39.40625 
Q 19.671875 43.65625 24.015625 45.921875 
Q 28.375 48.1875 33.59375 48.1875 
Q 44.578125 48.1875 50.953125 41.515625 
Q 57.328125 34.859375 57.328125 23.390625 
Q 57.328125 12.15625 50.6875 5.359375 
Q 44.046875 -1.421875 33.015625 -1.421875 
Q 20.359375 -1.421875 13.671875 8.265625 
Q 6.984375 17.96875 6.984375 36.375 
Q 6.984375 53.65625 15.1875 63.9375 
Q 23.390625 74.21875 37.203125 74.21875 
Q 40.921875 74.21875 44.703125 73.484375 
Q 48.484375 72.75 52.59375 71.296875 
z
" id="DejaVuSans-54"/>
      </defs>
      <g transform="translate(0.15 92.242424)scale(0.2 -0.2)">
       <use xlink:href="#DejaVuSans-54"/>
      </g>
     </g>
    </g>
    <g id="ytick_5">
     <g id="line2d_9">
      <g>
       <use style="stroke:#000000;stroke-width:1.6;" x="27.575" xlink:href="#m326f7687bd" y="7.5"/>
      </g>
     </g>
     <g id="text_9">
      <!-- 8 -->
      <defs>
       <path d="M 31.78125 34.625 
Q 24.75 34.625 20.71875 30.859375 
Q 16.703125 27.09375 16.703125 20.515625 
Q 16.703125 13.921875 20.71875 10.15625 
Q 24.75 6.390625 31.78125 6.390625 
Q 38.8125 6.390625 42.859375 10.171875 
Q 46.921875 13.96875 46.921875 20.515625 
Q 46.921875 27.09375 42.890625 30.859375 
Q 38.875 34.625 31.78125 34.625 
z
M 21.921875 38.8125 
Q 15.578125 40.375 12.03125 44.71875 
Q 8.5 49.078125 8.5 55.328125 
Q 8.5 64.0625 14.71875 69.140625 
Q 20.953125 74.21875 31.78125 74.21875 
Q 42.671875 74.21875 48.875 69.140625 
Q 55.078125 64.0625 55.078125 55.328125 
Q 55.078125 49.078125 51.53125 44.71875 
Q 48 40.375 41.703125 38.8125 
Q 48.828125 37.15625 52.796875 32.3125 
Q 56.78125 27.484375 56.78125 20.515625 
Q 56.78125 9.90625 50.3125 4.234375 
Q 43.84375 -1.421875 31.78125 -1.421875 
Q 19.734375 -1.421875 13.25 4.234375 
Q 6.78125 9.90625 6.78125 20.515625 
Q 6.78125 27.484375 10.78125 32.3125 
Q 14.796875 37.15625 21.921875 38.8125 
z
M 18.3125 54.390625 
Q 18.3125 48.734375 21.84375 45.5625 
Q 25.390625 42.390625 31.78125 42.390625 
Q 38.140625 42.390625 41.71875 45.5625 
Q 45.3125 48.734375 45.3125 54.390625 
Q 45.3125 60.0625 41.71875 63.234375 
Q 38.140625 66.40625 31.78125 66.40625 
Q 25.390625 66.40625 21.84375 63.234375 
Q 18.3125 60.0625 18.3125 54.390625 
z
" id="DejaVuSans-56"/>
      </defs>
      <g transform="translate(0.15 15.098437)scale(0.2 -0.2)">
       <use xlink:href="#DejaVuSans-56"/>
      </g>
     </g>
    </g>
   </g>
   <g id="line2d_10">
    <path clip-path="url(#pf723ce85fb)" d="M 41.685479 316.071428 
L 48.728662 315.973697 
L 55.771844 315.764121 
L 62.815027 315.966254 
L 66.336618 315.974318 
L 69.858209 315.782985 
L 78.662188 315.000297 
L 87.466166 314.706683 
L 89.226962 314.492807 
L 90.987757 314.140481 
L 92.748553 313.599228 
L 94.509349 312.826917 
L 96.270144 311.79868 
L 98.03094 310.506577 
L 99.791736 308.950801 
L 101.552531 307.125102 
L 103.313327 304.998947 
L 105.074123 302.505019 
L 106.834918 299.549393 
L 108.595714 296.055472 
L 110.35651 292.022911 
L 113.878101 282.777667 
L 115.638897 277.748958 
L 117.399692 272.293209 
L 119.160488 266.021883 
L 120.921284 258.496324 
L 122.682079 249.477349 
L 124.442875 239.091272 
L 131.486058 193.976128 
L 135.007649 173.62703 
L 136.768445 164.071958 
L 138.52924 155.20738 
L 140.290036 147.407185 
L 142.050832 140.813105 
L 147.333219 123.70087 
L 150.85481 111.475088 
L 152.615606 107.080687 
L 154.376401 105.236788 
L 156.137197 106.182138 
L 157.897993 109.320946 
L 159.658788 113.722346 
L 161.419584 118.784755 
L 163.18038 124.543606 
L 164.941175 131.433223 
L 166.701971 139.755298 
L 171.984358 168.642241 
L 173.745154 176.955638 
L 179.027541 198.56219 
L 180.788336 206.960806 
L 184.309928 226.353022 
L 186.070723 236.2725 
L 187.831519 245.496601 
L 189.592314 253.552094 
L 191.35311 260.210729 
L 193.113906 265.529204 
L 194.874701 269.821013 
L 198.396293 277.080305 
L 203.67868 287.712928 
L 207.200271 294.100522 
L 210.721862 299.8985 
L 212.482658 302.516187 
L 214.243454 304.832628 
L 216.004249 306.794592 
L 217.765045 308.408799 
L 219.525841 309.732016 
L 221.286636 310.844151 
L 224.808228 312.682527 
L 226.569023 313.435825 
L 228.329819 314.043164 
L 230.090615 314.478154 
L 231.85141 314.744079 
L 235.373002 314.933618 
L 240.655389 315.138512 
L 247.698571 315.631669 
L 265.306528 316.071428 
L 265.306528 316.071428 
" style="fill:none;stroke:#000000;stroke-linecap:square;stroke-width:2;"/>
   </g>
   <g id="line2d_11">
    <path clip-path="url(#pf723ce85fb)" d="M 56.195698 316.06959 
L 62.703728 315.948675 
L 72.465773 315.485901 
L 82.227817 315.872121 
L 90.362854 315.750283 
L 95.243876 315.673101 
L 100.124899 315.295927 
L 103.378914 314.948856 
L 105.005921 314.667337 
L 106.632928 314.211091 
L 108.259936 313.489319 
L 109.886943 312.437084 
L 111.513951 311.038728 
L 113.140958 309.3261 
L 114.767966 307.35333 
L 116.394973 305.164525 
L 118.02198 302.768682 
L 119.648988 300.125025 
L 121.275995 297.138627 
L 122.903003 293.672505 
L 124.53001 289.583434 
L 126.157017 284.773805 
L 127.784025 279.231716 
L 129.411032 273.028386 
L 131.03804 266.267384 
L 134.292055 251.287531 
L 137.546069 234.255292 
L 140.800084 215.184314 
L 144.054099 194.573049 
L 152.189136 142.109329 
L 153.816144 132.866223 
L 155.443151 124.93001 
L 157.070158 118.61131 
L 158.697166 113.90404 
L 160.324173 110.51938 
L 161.951181 108.053159 
L 163.578188 106.161239 
L 165.205196 104.674799 
L 166.832203 103.662358 
L 168.45921 103.442633 
L 170.086218 104.513678 
L 171.713225 107.376965 
L 173.340233 112.305042 
L 174.96724 119.159663 
L 178.221255 136.077916 
L 179.848262 144.503329 
L 181.47527 152.197598 
L 184.729285 165.860727 
L 187.9833 179.816913 
L 191.237314 195.361377 
L 194.491329 211.975199 
L 197.745344 229.716699 
L 200.999359 248.068068 
L 202.626366 256.664789 
L 204.253374 264.399928 
L 205.880381 271.175454 
L 207.507389 277.128117 
L 209.134396 282.465672 
L 210.761403 287.280789 
L 212.388411 291.491628 
L 214.015418 294.941061 
L 215.642426 297.556918 
L 217.269433 299.44422 
L 218.896441 300.854796 
L 222.150455 303.332672 
L 225.40447 306.228837 
L 228.658485 309.25012 
L 230.285493 310.577526 
L 231.9125 311.720264 
L 233.539507 312.678632 
L 235.166515 313.462089 
L 236.793522 314.069551 
L 238.42053 314.491707 
L 240.047537 314.729299 
L 243.301552 314.790403 
L 246.555567 314.743537 
L 249.809582 315.005993 
L 256.317611 315.869215 
L 259.571626 316.02955 
L 262.825641 316.068107 
L 262.825641 316.068107 
" style="fill:none;stroke:#000000;stroke-dasharray:7.4,3.2;stroke-dashoffset:0;stroke-width:2;"/>
   </g>
   <g id="line2d_12">
    <path clip-path="url(#pf723ce85fb)" d="M 164.816036 316.067362 
L 168.573808 315.990897 
L 174.836762 315.63249 
L 178.594534 315.870143 
L 182.352306 316.009758 
L 184.857487 315.883597 
L 191.120441 315.190844 
L 194.878213 315.17326 
L 197.383395 314.843248 
L 202.393757 313.784483 
L 203.646348 313.343726 
L 206.15153 312.094891 
L 211.161892 309.291702 
L 212.414483 308.268634 
L 213.667074 306.964135 
L 216.172255 303.766034 
L 218.677437 300.082763 
L 219.930027 297.801293 
L 221.182618 295.047775 
L 223.6878 288.432721 
L 227.445572 278.135965 
L 228.698162 274.275213 
L 229.950753 269.581165 
L 231.203344 263.704945 
L 232.455935 256.515063 
L 233.708525 248.16357 
L 237.466298 220.151484 
L 239.971479 200.104454 
L 241.22407 188.595822 
L 247.487023 126.191861 
L 249.992205 103.74183 
L 252.497386 77.630003 
L 253.749977 64.534018 
L 255.002568 52.946199 
L 256.255158 43.657472 
L 257.507749 36.874666 
L 258.76034 32.244631 
L 260.01293 29.015879 
L 262.518112 23.7547 
L 263.770703 21.442842 
L 265.023293 20.427602 
L 266.275884 22.204657 
L 267.528475 28.128253 
L 268.781066 38.766528 
L 270.033656 53.597969 
L 272.538838 89.989741 
L 275.044019 125.770846 
L 276.29661 141.520041 
L 277.549201 155.6966 
L 280.054382 180.457558 
L 282.559563 202.585265 
L 285.064745 222.647275 
L 287.569926 240.591813 
L 291.327698 266.057125 
L 293.83288 281.472526 
L 295.085471 287.995418 
L 296.338061 293.464204 
L 297.590652 297.854023 
L 298.843243 301.31958 
L 300.095833 304.12927 
L 301.348424 306.533825 
L 302.601015 308.659237 
L 303.853606 310.493469 
L 305.106196 311.956695 
L 306.358787 312.988509 
L 307.611378 313.597017 
L 308.863969 313.862188 
L 313.874331 314.167178 
L 316.379513 314.937522 
L 318.884694 315.660429 
L 321.389876 315.986937 
L 323.895057 316.063368 
L 323.895057 316.063368 
" style="fill:none;stroke:#000000;stroke-dasharray:2,3.3;stroke-dashoffset:0;stroke-width:2;"/>
   </g>
   <g id="patch_3">
    <path d="M 27.575 316.075947 
L 27.575 5.645411 
" style="fill:none;stroke:#000000;stroke-linecap:square;stroke-linejoin:miter;stroke-width:0.8;"/>
   </g>
   <g id="patch_4">
    <path d="M 27.575 316.075947 
L 338.005536 316.075947 
" style="fill:none;stroke:#000000;stroke-linecap:square;stroke-linejoin:miter;stroke-width:0.8;"/>
   </g>
  </g>
  <g id="axes_2">
   <g id="patch_5">
    <path d="M 381.421667 316.075947 
L 691.852203 316.075947 
L 691.852203 5.645411 
L 381.421667 5.645411 
z
" style="fill:#ffffff;"/>
   </g>
   <g id="matplotlib.axis_3">
    <g id="xtick_5">
     <g id="line2d_13">
      <g>
       <use style="stroke:#000000;stroke-width:1.6;" x="414.398136" xlink:href="#m9f9fadbc73" y="316.075947"/>
      </g>
     </g>
     <g id="text_10">
      <!-- 0.0 -->
      <g transform="translate(398.495011 345.972822)scale(0.2 -0.2)">
       <use xlink:href="#DejaVuSans-48"/>
       <use x="63.623047" xlink:href="#DejaVuSans-46"/>
       <use x="95.410156" xlink:href="#DejaVuSans-48"/>
      </g>
     </g>
    </g>
    <g id="xtick_6">
     <g id="line2d_14">
      <g>
       <use style="stroke:#000000;stroke-width:1.6;" x="489.295273" xlink:href="#m9f9fadbc73" y="316.075947"/>
      </g>
     </g>
     <g id="text_11">
      <!-- 0.2 -->
      <g transform="translate(473.392148 345.972822)scale(0.2 -0.2)">
       <use xlink:href="#DejaVuSans-48"/>
       <use x="63.623047" xlink:href="#DejaVuSans-46"/>
       <use x="95.410156" xlink:href="#DejaVuSans-50"/>
      </g>
     </g>
    </g>
    <g id="xtick_7">
     <g id="line2d_15">
      <g>
       <use style="stroke:#000000;stroke-width:1.6;" x="564.192411" xlink:href="#m9f9fadbc73" y="316.075947"/>
      </g>
     </g>
     <g id="text_12">
      <!-- 0.4 -->
      <g transform="translate(548.289286 345.972822)scale(0.2 -0.2)">
       <use xlink:href="#DejaVuSans-48"/>
       <use x="63.623047" xlink:href="#DejaVuSans-46"/>
       <use x="95.410156" xlink:href="#DejaVuSans-52"/>
      </g>
     </g>
    </g>
    <g id="xtick_8">
     <g id="line2d_16">
      <g>
       <use style="stroke:#000000;stroke-width:1.6;" x="639.089548" xlink:href="#m9f9fadbc73" y="316.075947"/>
      </g>
     </g>
     <g id="text_13">
      <!-- 0.6 -->
      <g transform="translate(623.186423 345.972822)scale(0.2 -0.2)">
       <use xlink:href="#DejaVuSans-48"/>
       <use x="63.623047" xlink:href="#DejaVuSans-46"/>
       <use x="95.410156" xlink:href="#DejaVuSans-54"/>
      </g>
     </g>
    </g>
   </g>
   <g id="matplotlib.axis_4">
    <g id="ytick_6">
     <g id="line2d_17">
      <g>
       <use style="stroke:#000000;stroke-width:1.6;" x="381.421667" xlink:href="#m326f7687bd" y="316.075947"/>
      </g>
     </g>
     <g id="text_14">
      <!-- 0 -->
      <g transform="translate(353.996667 323.674384)scale(0.2 -0.2)">
       <use xlink:href="#DejaVuSans-48"/>
      </g>
     </g>
    </g>
    <g id="ytick_7">
     <g id="line2d_18">
      <g>
       <use style="stroke:#000000;stroke-width:1.6;" x="381.421667" xlink:href="#m326f7687bd" y="253.905689"/>
      </g>
     </g>
     <g id="text_15">
      <!-- 1 -->
      <defs>
       <path d="M 12.40625 8.296875 
L 28.515625 8.296875 
L 28.515625 63.921875 
L 10.984375 60.40625 
L 10.984375 69.390625 
L 28.421875 72.90625 
L 38.28125 72.90625 
L 38.28125 8.296875 
L 54.390625 8.296875 
L 54.390625 0 
L 12.40625 0 
z
" id="DejaVuSans-49"/>
      </defs>
      <g transform="translate(353.996667 261.504127)scale(0.2 -0.2)">
       <use xlink:href="#DejaVuSans-49"/>
      </g>
     </g>
    </g>
    <g id="ytick_8">
     <g id="line2d_19">
      <g>
       <use style="stroke:#000000;stroke-width:1.6;" x="381.421667" xlink:href="#m326f7687bd" y="191.735432"/>
      </g>
     </g>
     <g id="text_16">
      <!-- 2 -->
      <g transform="translate(353.996667 199.33387)scale(0.2 -0.2)">
       <use xlink:href="#DejaVuSans-50"/>
      </g>
     </g>
    </g>
    <g id="ytick_9">
     <g id="line2d_20">
      <g>
       <use style="stroke:#000000;stroke-width:1.6;" x="381.421667" xlink:href="#m326f7687bd" y="129.565175"/>
      </g>
     </g>
     <g id="text_17">
      <!-- 3 -->
      <defs>
       <path d="M 40.578125 39.3125 
Q 47.65625 37.796875 51.625 33 
Q 55.609375 28.21875 55.609375 21.1875 
Q 55.609375 10.40625 48.1875 4.484375 
Q 40.765625 -1.421875 27.09375 -1.421875 
Q 22.515625 -1.421875 17.65625 -0.515625 
Q 12.796875 0.390625 7.625 2.203125 
L 7.625 11.71875 
Q 11.71875 9.328125 16.59375 8.109375 
Q 21.484375 6.890625 26.8125 6.890625 
Q 36.078125 6.890625 40.9375 10.546875 
Q 45.796875 14.203125 45.796875 21.1875 
Q 45.796875 27.640625 41.28125 31.265625 
Q 36.765625 34.90625 28.71875 34.90625 
L 20.21875 34.90625 
L 20.21875 43.015625 
L 29.109375 43.015625 
Q 36.375 43.015625 40.234375 45.921875 
Q 44.09375 48.828125 44.09375 54.296875 
Q 44.09375 59.90625 40.109375 62.90625 
Q 36.140625 65.921875 28.71875 65.921875 
Q 24.65625 65.921875 20.015625 65.03125 
Q 15.375 64.15625 9.8125 62.3125 
L 9.8125 71.09375 
Q 15.4375 72.65625 20.34375 73.4375 
Q 25.25 74.21875 29.59375 74.21875 
Q 40.828125 74.21875 47.359375 69.109375 
Q 53.90625 64.015625 53.90625 55.328125 
Q 53.90625 49.265625 50.4375 45.09375 
Q 46.96875 40.921875 40.578125 39.3125 
z
" id="DejaVuSans-51"/>
      </defs>
      <g transform="translate(353.996667 137.163612)scale(0.2 -0.2)">
       <use xlink:href="#DejaVuSans-51"/>
      </g>
     </g>
    </g>
    <g id="ytick_10">
     <g id="line2d_21">
      <g>
       <use style="stroke:#000000;stroke-width:1.6;" x="381.421667" xlink:href="#m326f7687bd" y="67.394917"/>
      </g>
     </g>
     <g id="text_18">
      <!-- 4 -->
      <g transform="translate(353.996667 74.993355)scale(0.2 -0.2)">
       <use xlink:href="#DejaVuSans-52"/>
      </g>
     </g>
    </g>
    <g id="ytick_11">
     <g id="line2d_22">
      <g>
       <use style="stroke:#000000;stroke-width:1.6;" x="381.421667" xlink:href="#m326f7687bd" y="5.22466"/>
      </g>
     </g>
     <g id="text_19">
      <!-- 5 -->
      <g transform="translate(353.996667 12.823098)scale(0.2 -0.2)">
       <use xlink:href="#DejaVuSans-53"/>
      </g>
     </g>
    </g>
   </g>
   <g id="line2d_23">
    <path clip-path="url(#pebb6b33c6a)" d="M 0 0 
" style="fill:none;stroke:#000000;stroke-linecap:square;stroke-width:2;"/>
   </g>
   <g id="line2d_24">
    <path clip-path="url(#pebb6b33c6a)" d="M 0 0 
" style="fill:none;stroke:#000000;stroke-dasharray:7.4,3.2;stroke-dashoffset:0;stroke-width:2;"/>
   </g>
   <g id="patch_6">
    <path style="fill:none;stroke:#000000;stroke-linecap:square;stroke-linejoin:miter;stroke-width:0.8;"/>
   </g>
   <g id="patch_7">
    <path style="fill:none;stroke:#000000;stroke-linecap:square;stroke-linejoin:miter;stroke-width:0.8;"/>
   </g>
  </g>
 </g>
 <defs>
  <clipPath id="pf723ce85fb">
   <rect height="310.430536" width="310.430536" x="27.575" y="5.645411"/>
  </clipPath>
  <clipPath id="pebb6b33c6a">
   <rect height="310.430536" width="310.430536" x="381.421667" y="5.645411"/>
  </clipPath>
 </defs>
</svg>
