<?xml version="1.0" encoding="utf-8" standalone="no"?>
<!DOCTYPE svg PUBLIC "-//W3C//DTD SVG 1.1//EN"
  "http://www.w3.org/Graphics/SVG/1.1/DTD/svg11.dtd">
<!-- Created with matplotlib (https://matplotlib.org/) -->
<svg height="345.023605pt" version="1.1" viewBox="0 0 338.898605 345.023605" width="338.898605pt" xmlns="http://www.w3.org/2000/svg" xmlns:xlink="http://www.w3.org/1999/xlink">
 <defs>
  <style type="text/css">
*{stroke-linecap:butt;stroke-linejoin:round;}
  </style>
 </defs>
 <g id="figure_1">
  <g id="patch_1">
   <path d="M 0 345.023605 
L 338.898605 345.023605 
L 338.898605 -0 
L 0 -0 
z
" style="fill:#ffffff;"/>
  </g>
  <g id="axes_1">
   <g id="patch_2">
    <path d="M 27.575 311.323605 
L 335.398605 311.323605 
L 335.398605 3.5 
L 27.575 3.5 
z
" style="fill:#ffffff;"/>
   </g>
   <g id="matplotlib.axis_1">
    <g id="xtick_1">
     <g id="line2d_1">
      <defs>
       <path d="M 0 0 
L 0 3.5 
" id="m7b50022b9a" style="stroke:#000000;stroke-width:1.6;"/>
      </defs>
      <g>
       <use style="stroke:#000000;stroke-width:1.6;" x="73.668551" xlink:href="#m7b50022b9a" y="311.323605"/>
      </g>
     </g>
     <g id="text_1">
      <!-- 0.0 -->
      <defs>
       <path d="M 31.78125 66.40625 
Q 24.171875 66.40625 20.328125 58.90625 
Q 16.5 51.421875 16.5 36.375 
Q 16.5 21.390625 20.328125 13.890625 
Q 24.171875 6.390625 31.78125 6.390625 
Q 39.453125 6.390625 43.28125 13.890625 
Q 47.125 21.390625 47.125 36.375 
Q 47.125 51.421875 43.28125 58.90625 
Q 39.453125 66.40625 31.78125 66.40625 
z
M 31.78125 74.21875 
Q 44.046875 74.21875 50.515625 64.515625 
Q 56.984375 54.828125 56.984375 36.375 
Q 56.984375 17.96875 50.515625 8.265625 
Q 44.046875 -1.421875 31.78125 -1.421875 
Q 19.53125 -1.421875 13.0625 8.265625 
Q 6.59375 17.96875 6.59375 36.375 
Q 6.59375 54.828125 13.0625 64.515625 
Q 19.53125 74.21875 31.78125 74.21875 
z
" id="DejaVuSans-48"/>
       <path d="M 10.6875 12.40625 
L 21 12.40625 
L 21 0 
L 10.6875 0 
z
" id="DejaVuSans-46"/>
      </defs>
      <g transform="translate(57.765426 341.22048)scale(0.2 -0.2)">
       <use xlink:href="#DejaVuSans-48"/>
       <use x="63.623047" xlink:href="#DejaVuSans-46"/>
       <use x="95.410156" xlink:href="#DejaVuSans-48"/>
      </g>
     </g>
    </g>
    <g id="xtick_2">
     <g id="line2d_2">
      <g>
       <use style="stroke:#000000;stroke-width:1.6;" x="139.497719" xlink:href="#m7b50022b9a" y="311.323605"/>
      </g>
     </g>
     <g id="text_2">
      <!-- 0.2 -->
      <defs>
       <path d="M 19.1875 8.296875 
L 53.609375 8.296875 
L 53.609375 0 
L 7.328125 0 
L 7.328125 8.296875 
Q 12.9375 14.109375 22.625 23.890625 
Q 32.328125 33.6875 34.8125 36.53125 
Q 39.546875 41.84375 41.421875 45.53125 
Q 43.3125 49.21875 43.3125 52.78125 
Q 43.3125 58.59375 39.234375 62.25 
Q 35.15625 65.921875 28.609375 65.921875 
Q 23.96875 65.921875 18.8125 64.3125 
Q 13.671875 62.703125 7.8125 59.421875 
L 7.8125 69.390625 
Q 13.765625 71.78125 18.9375 73 
Q 24.125 74.21875 28.421875 74.21875 
Q 39.75 74.21875 46.484375 68.546875 
Q 53.21875 62.890625 53.21875 53.421875 
Q 53.21875 48.921875 51.53125 44.890625 
Q 49.859375 40.875 45.40625 35.40625 
Q 44.1875 33.984375 37.640625 27.21875 
Q 31.109375 20.453125 19.1875 8.296875 
z
" id="DejaVuSans-50"/>
      </defs>
      <g transform="translate(123.594594 341.22048)scale(0.2 -0.2)">
       <use xlink:href="#DejaVuSans-48"/>
       <use x="63.623047" xlink:href="#DejaVuSans-46"/>
       <use x="95.410156" xlink:href="#DejaVuSans-50"/>
      </g>
     </g>
    </g>
    <g id="xtick_3">
     <g id="line2d_3">
      <g>
       <use style="stroke:#000000;stroke-width:1.6;" x="205.326887" xlink:href="#m7b50022b9a" y="311.323605"/>
      </g>
     </g>
     <g id="text_3">
      <!-- 0.4 -->
      <defs>
       <path d="M 37.796875 64.3125 
L 12.890625 25.390625 
L 37.796875 25.390625 
z
M 35.203125 72.90625 
L 47.609375 72.90625 
L 47.609375 25.390625 
L 58.015625 25.390625 
L 58.015625 17.1875 
L 47.609375 17.1875 
L 47.609375 0 
L 37.796875 0 
L 37.796875 17.1875 
L 4.890625 17.1875 
L 4.890625 26.703125 
z
" id="DejaVuSans-52"/>
      </defs>
      <g transform="translate(189.423762 341.22048)scale(0.2 -0.2)">
       <use xlink:href="#DejaVuSans-48"/>
       <use x="63.623047" xlink:href="#DejaVuSans-46"/>
       <use x="95.410156" xlink:href="#DejaVuSans-52"/>
      </g>
     </g>
    </g>
    <g id="xtick_4">
     <g id="line2d_4">
      <g>
       <use style="stroke:#000000;stroke-width:1.6;" x="271.156054" xlink:href="#m7b50022b9a" y="311.323605"/>
      </g>
     </g>
     <g id="text_4">
      <!-- 0.6 -->
      <defs>
       <path d="M 33.015625 40.375 
Q 26.375 40.375 22.484375 35.828125 
Q 18.609375 31.296875 18.609375 23.390625 
Q 18.609375 15.53125 22.484375 10.953125 
Q 26.375 6.390625 33.015625 6.390625 
Q 39.65625 6.390625 43.53125 10.953125 
Q 47.40625 15.53125 47.40625 23.390625 
Q 47.40625 31.296875 43.53125 35.828125 
Q 39.65625 40.375 33.015625 40.375 
z
M 52.59375 71.296875 
L 52.59375 62.3125 
Q 48.875 64.0625 45.09375 64.984375 
Q 41.3125 65.921875 37.59375 65.921875 
Q 27.828125 65.921875 22.671875 59.328125 
Q 17.53125 52.734375 16.796875 39.40625 
Q 19.671875 43.65625 24.015625 45.921875 
Q 28.375 48.1875 33.59375 48.1875 
Q 44.578125 48.1875 50.953125 41.515625 
Q 57.328125 34.859375 57.328125 23.390625 
Q 57.328125 12.15625 50.6875 5.359375 
Q 44.046875 -1.421875 33.015625 -1.421875 
Q 20.359375 -1.421875 13.671875 8.265625 
Q 6.984375 17.96875 6.984375 36.375 
Q 6.984375 53.65625 15.1875 63.9375 
Q 23.390625 74.21875 37.203125 74.21875 
Q 40.921875 74.21875 44.703125 73.484375 
Q 48.484375 72.75 52.59375 71.296875 
z
" id="DejaVuSans-54"/>
      </defs>
      <g transform="translate(255.252929 341.22048)scale(0.2 -0.2)">
       <use xlink:href="#DejaVuSans-48"/>
       <use x="63.623047" xlink:href="#DejaVuSans-46"/>
       <use x="95.410156" xlink:href="#DejaVuSans-54"/>
      </g>
     </g>
    </g>
   </g>
   <g id="matplotlib.axis_2">
    <g id="ytick_1">
     <g id="line2d_5">
      <defs>
       <path d="M 0 0 
L -3.5 0 
" id="mc09c99ae16" style="stroke:#000000;stroke-width:1.6;"/>
      </defs>
      <g>
       <use style="stroke:#000000;stroke-width:1.6;" x="27.575" xlink:href="#mc09c99ae16" y="311.323605"/>
      </g>
     </g>
     <g id="text_5">
      <!-- 0 -->
      <g transform="translate(0.15 318.922043)scale(0.2 -0.2)">
       <use xlink:href="#DejaVuSans-48"/>
      </g>
     </g>
    </g>
    <g id="ytick_2">
     <g id="line2d_6">
      <g>
       <use style="stroke:#000000;stroke-width:1.6;" x="27.575" xlink:href="#mc09c99ae16" y="240.285688"/>
      </g>
     </g>
     <g id="text_6">
      <!-- 2 -->
      <g transform="translate(0.15 247.884126)scale(0.2 -0.2)">
       <use xlink:href="#DejaVuSans-50"/>
      </g>
     </g>
    </g>
    <g id="ytick_3">
     <g id="line2d_7">
      <g>
       <use style="stroke:#000000;stroke-width:1.6;" x="27.575" xlink:href="#mc09c99ae16" y="169.247771"/>
      </g>
     </g>
     <g id="text_7">
      <!-- 4 -->
      <g transform="translate(0.15 176.846209)scale(0.2 -0.2)">
       <use xlink:href="#DejaVuSans-52"/>
      </g>
     </g>
    </g>
    <g id="ytick_4">
     <g id="line2d_8">
      <g>
       <use style="stroke:#000000;stroke-width:1.6;" x="27.575" xlink:href="#mc09c99ae16" y="98.209854"/>
      </g>
     </g>
     <g id="text_8">
      <!-- 6 -->
      <g transform="translate(0.15 105.808292)scale(0.2 -0.2)">
       <use xlink:href="#DejaVuSans-54"/>
      </g>
     </g>
    </g>
    <g id="ytick_5">
     <g id="line2d_9">
      <g>
       <use style="stroke:#000000;stroke-width:1.6;" x="27.575" xlink:href="#mc09c99ae16" y="27.171937"/>
      </g>
     </g>
     <g id="text_9">
      <!-- 8 -->
      <defs>
       <path d="M 31.78125 34.625 
Q 24.75 34.625 20.71875 30.859375 
Q 16.703125 27.09375 16.703125 20.515625 
Q 16.703125 13.921875 20.71875 10.15625 
Q 24.75 6.390625 31.78125 6.390625 
Q 38.8125 6.390625 42.859375 10.171875 
Q 46.921875 13.96875 46.921875 20.515625 
Q 46.921875 27.09375 42.890625 30.859375 
Q 38.875 34.625 31.78125 34.625 
z
M 21.921875 38.8125 
Q 15.578125 40.375 12.03125 44.71875 
Q 8.5 49.078125 8.5 55.328125 
Q 8.5 64.0625 14.71875 69.140625 
Q 20.953125 74.21875 31.78125 74.21875 
Q 42.671875 74.21875 48.875 69.140625 
Q 55.078125 64.0625 55.078125 55.328125 
Q 55.078125 49.078125 51.53125 44.71875 
Q 48 40.375 41.703125 38.8125 
Q 48.828125 37.15625 52.796875 32.3125 
Q 56.78125 27.484375 56.78125 20.515625 
Q 56.78125 9.90625 50.3125 4.234375 
Q 43.84375 -1.421875 31.78125 -1.421875 
Q 19.734375 -1.421875 13.25 4.234375 
Q 6.78125 9.90625 6.78125 20.515625 
Q 6.78125 27.484375 10.78125 32.3125 
Q 14.796875 37.15625 21.921875 38.8125 
z
M 18.3125 54.390625 
Q 18.3125 48.734375 21.84375 45.5625 
Q 25.390625 42.390625 31.78125 42.390625 
Q 38.140625 42.390625 41.71875 45.5625 
Q 45.3125 48.734375 45.3125 54.390625 
Q 45.3125 60.0625 41.71875 63.234375 
Q 38.140625 66.40625 31.78125 66.40625 
Q 25.390625 66.40625 21.84375 63.234375 
Q 18.3125 60.0625 18.3125 54.390625 
z
" id="DejaVuSans-56"/>
      </defs>
      <g transform="translate(0.15 34.770374)scale(0.2 -0.2)">
       <use xlink:href="#DejaVuSans-56"/>
      </g>
     </g>
    </g>
   </g>
   <g id="line2d_10">
    <path clip-path="url(#p6aace8c5a0)" d="M 61.079221 311.318765 
L 66.06148 311.210651 
L 71.043739 311.033989 
L 76.025998 311.188303 
L 77.686751 311.098469 
L 81.008257 310.574824 
L 84.329763 310.078813 
L 87.651269 309.600895 
L 90.972774 309.072767 
L 94.29428 309.005027 
L 95.955033 309.002544 
L 97.615786 308.838215 
L 102.598045 307.736678 
L 105.919551 307.502224 
L 109.241057 307.224368 
L 110.90181 306.829417 
L 112.562563 305.990881 
L 114.223316 304.638526 
L 115.884069 302.941401 
L 117.544822 301.04487 
L 119.205575 298.849729 
L 120.866328 296.171649 
L 122.52708 293.015663 
L 124.187833 289.555837 
L 125.848586 285.830154 
L 127.509339 281.532787 
L 129.170092 276.204672 
L 130.830845 269.659524 
L 132.491598 262.081478 
L 134.152351 253.526862 
L 135.813104 243.506144 
L 137.473857 231.453011 
L 139.13461 217.524669 
L 152.420634 96.266661 
L 155.742139 62.656159 
L 157.402892 47.162268 
L 159.063645 35.067678 
L 160.724398 27.854523 
L 162.385151 25.016036 
L 164.045904 25.118236 
L 165.706657 27.893494 
L 167.36741 34.366842 
L 169.028163 45.188688 
L 170.688916 59.988085 
L 172.349669 78.037672 
L 178.992681 159.250965 
L 180.653434 176.596112 
L 182.314187 192.091411 
L 183.97494 205.659264 
L 185.635693 217.542193 
L 188.957198 238.663287 
L 192.278704 257.880783 
L 193.939457 265.802215 
L 195.60021 271.726029 
L 197.260963 275.845672 
L 200.582469 282.054213 
L 202.243222 284.822523 
L 203.903975 287.16656 
L 207.225481 291.237903 
L 210.546987 295.797155 
L 212.20774 297.5794 
L 213.868493 298.47904 
L 215.529246 298.550141 
L 217.189999 298.312293 
L 218.850752 298.507863 
L 220.511505 299.637591 
L 223.83301 303.35393 
L 225.493763 304.453337 
L 227.154516 304.767209 
L 228.815269 304.794303 
L 230.476022 305.045009 
L 232.136775 305.665597 
L 235.458281 307.185052 
L 237.119034 307.678218 
L 243.762046 308.967513 
L 247.083552 309.764398 
L 248.744305 310.043115 
L 252.065811 310.280735 
L 255.387316 310.404382 
L 258.708822 310.241641 
L 260.369575 310.151206 
L 262.030328 310.237421 
L 268.67334 311.239225 
L 271.994846 311.31737 
L 271.994846 311.31737 
" style="fill:none;stroke:#000000;stroke-linecap:square;stroke-width:2;"/>
   </g>
   <g id="line2d_11">
    <path clip-path="url(#p6aace8c5a0)" d="M 41.566982 311.320429 
L 48.948257 311.202475 
L 58.174851 310.761887 
L 61.865489 310.901309 
L 65.556127 311.075273 
L 67.401445 311.035639 
L 69.246764 310.85811 
L 72.937402 310.158004 
L 76.62804 309.524183 
L 80.318677 309.327587 
L 82.163996 309.23692 
L 84.009315 309.002441 
L 85.854634 308.525999 
L 87.699952 307.746721 
L 89.545271 306.649345 
L 91.39059 305.247977 
L 93.235909 303.564382 
L 95.081228 301.625295 
L 96.926546 299.462399 
L 98.771865 297.096637 
L 102.462503 291.790133 
L 104.307822 288.86917 
L 106.153141 285.671089 
L 107.998459 281.889593 
L 109.843778 277.081175 
L 111.689097 270.944599 
L 113.534416 263.596793 
L 117.225053 247.24251 
L 120.915691 230.169275 
L 126.451647 203.38601 
L 130.142285 186.7942 
L 131.987604 177.784384 
L 137.52356 147.69824 
L 139.368879 139.638353 
L 141.214198 133.603974 
L 143.059517 129.189844 
L 154.13143 107.716263 
L 155.976748 105.139023 
L 157.822067 103.821204 
L 159.667386 104.696066 
L 161.512705 108.641457 
L 163.358024 115.967561 
L 165.203343 126.143569 
L 172.584618 174.096005 
L 179.965893 221.487244 
L 183.656531 242.554687 
L 185.50185 252.313102 
L 187.347168 260.941609 
L 189.192487 267.885729 
L 191.037806 273.043291 
L 192.883125 276.851247 
L 200.2644 289.457001 
L 202.109719 292.371629 
L 203.955038 294.761283 
L 205.800356 296.585061 
L 207.645675 297.985417 
L 211.336313 300.210309 
L 215.026951 302.126241 
L 222.408226 305.608984 
L 224.253545 306.393515 
L 226.098863 307.040373 
L 227.944182 307.490498 
L 229.789501 307.746531 
L 240.861414 308.69528 
L 242.706733 308.906485 
L 246.39737 309.686981 
L 250.088008 310.472039 
L 253.778646 310.830672 
L 259.314602 311.006085 
L 268.541196 311.223772 
L 275.922471 311.320502 
L 275.922471 311.320502 
" style="fill:none;stroke:#000000;stroke-dasharray:7.4,3.2;stroke-dashoffset:0;stroke-width:2;"/>
   </g>
   <g id="line2d_12">
    <path clip-path="url(#p6aace8c5a0)" d="M 138.212668 311.318436 
L 142.540084 311.232875 
L 148.309973 310.965537 
L 158.407277 310.903863 
L 161.292222 310.298418 
L 162.734694 309.989194 
L 164.177166 309.836248 
L 167.06211 309.946949 
L 168.504582 310.002742 
L 169.947054 309.945016 
L 171.389526 309.735564 
L 172.831998 309.344195 
L 174.27447 308.751233 
L 178.601887 306.430911 
L 180.044359 305.890634 
L 182.929303 305.18681 
L 194.46908 302.659773 
L 195.911552 301.903734 
L 197.354024 300.690541 
L 200.238968 297.36023 
L 201.68144 295.552803 
L 203.123912 293.550181 
L 204.566384 291.077667 
L 206.008856 287.88693 
L 207.451328 283.829907 
L 208.8938 278.770112 
L 210.336272 272.48958 
L 211.778745 264.839422 
L 217.548633 229.657458 
L 221.876049 206.939188 
L 223.318521 197.571021 
L 224.760993 186.90371 
L 226.203465 175.237804 
L 227.645938 162.511157 
L 229.08841 148.27482 
L 230.530882 132.295274 
L 234.858298 81.404768 
L 236.30077 67.265751 
L 237.743242 55.624908 
L 239.185714 46.429872 
L 240.628186 39.472542 
L 242.070658 34.335963 
L 246.398075 22.271501 
L 247.840547 19.164992 
L 249.283019 18.158119 
L 250.725491 20.076471 
L 252.167963 25.121384 
L 253.610435 33.478676 
L 255.052907 45.959192 
L 256.495379 63.681427 
L 257.937851 86.945272 
L 260.822795 144.174483 
L 262.265268 173.294353 
L 263.70774 199.683688 
L 265.150212 221.755995 
L 266.592684 238.817302 
L 268.035156 251.140569 
L 269.477628 259.683233 
L 270.9201 265.575884 
L 272.362572 269.751872 
L 278.132461 282.788791 
L 279.574933 286.476616 
L 281.017405 289.644323 
L 282.459877 292.050961 
L 283.902349 293.855955 
L 286.787293 297.012606 
L 292.557181 304.076328 
L 293.999653 305.475587 
L 295.442126 306.497747 
L 296.884598 307.10338 
L 298.32707 307.350145 
L 299.769542 307.349093 
L 302.654486 307.169739 
L 304.096958 307.344302 
L 305.53943 307.848613 
L 308.424374 309.354066 
L 309.866846 309.941529 
L 311.309318 310.31809 
L 315.636735 310.993393 
L 318.521679 311.252087 
L 321.406623 311.31616 
L 321.406623 311.31616 
" style="fill:none;stroke:#000000;stroke-dasharray:2,3.3;stroke-dashoffset:0;stroke-width:2;"/>
   </g>
   <g id="patch_3">
    <path d="M 27.575 311.323605 
L 27.575 3.5 
" style="fill:none;stroke:#000000;stroke-linecap:square;stroke-linejoin:miter;stroke-width:0.8;"/>
   </g>
   <g id="patch_4">
    <path d="M 27.575 311.323605 
L 335.398605 311.323605 
" style="fill:none;stroke:#000000;stroke-linecap:square;stroke-linejoin:miter;stroke-width:0.8;"/>
   </g>
  </g>
  <g id="axes_2">
   <g id="patch_5">
    <path d="M 383.315697 311.323605 
L 691.139303 311.323605 
L 691.139303 3.5 
L 383.315697 3.5 
z
" style="fill:#ffffff;"/>
   </g>
   <g id="matplotlib.axis_3">
    <g id="xtick_5">
     <g id="line2d_13">
      <g>
       <use style="stroke:#000000;stroke-width:1.6;" x="391.596246" xlink:href="#m7b50022b9a" y="311.323605"/>
      </g>
     </g>
     <g id="text_10">
      <!-- −0.2 -->
      <defs>
       <path d="M 10.59375 35.5 
L 73.1875 35.5 
L 73.1875 27.203125 
L 10.59375 27.203125 
z
" id="DejaVuSans-8722"/>
      </defs>
      <g transform="translate(367.313433 341.22048)scale(0.2 -0.2)">
       <use xlink:href="#DejaVuSans-8722"/>
       <use x="83.789062" xlink:href="#DejaVuSans-48"/>
       <use x="147.412109" xlink:href="#DejaVuSans-46"/>
       <use x="179.199219" xlink:href="#DejaVuSans-50"/>
      </g>
     </g>
    </g>
    <g id="xtick_6">
     <g id="line2d_14">
      <g>
       <use style="stroke:#000000;stroke-width:1.6;" x="458.938705" xlink:href="#m7b50022b9a" y="311.323605"/>
      </g>
     </g>
     <g id="text_11">
      <!-- 0.0 -->
      <g transform="translate(443.03558 341.22048)scale(0.2 -0.2)">
       <use xlink:href="#DejaVuSans-48"/>
       <use x="63.623047" xlink:href="#DejaVuSans-46"/>
       <use x="95.410156" xlink:href="#DejaVuSans-48"/>
      </g>
     </g>
    </g>
    <g id="xtick_7">
     <g id="line2d_15">
      <g>
       <use style="stroke:#000000;stroke-width:1.6;" x="526.281165" xlink:href="#m7b50022b9a" y="311.323605"/>
      </g>
     </g>
     <g id="text_12">
      <!-- 0.2 -->
      <g transform="translate(510.37804 341.22048)scale(0.2 -0.2)">
       <use xlink:href="#DejaVuSans-48"/>
       <use x="63.623047" xlink:href="#DejaVuSans-46"/>
       <use x="95.410156" xlink:href="#DejaVuSans-50"/>
      </g>
     </g>
    </g>
    <g id="xtick_8">
     <g id="line2d_16">
      <g>
       <use style="stroke:#000000;stroke-width:1.6;" x="593.623625" xlink:href="#m7b50022b9a" y="311.323605"/>
      </g>
     </g>
     <g id="text_13">
      <!-- 0.4 -->
      <g transform="translate(577.7205 341.22048)scale(0.2 -0.2)">
       <use xlink:href="#DejaVuSans-48"/>
       <use x="63.623047" xlink:href="#DejaVuSans-46"/>
       <use x="95.410156" xlink:href="#DejaVuSans-52"/>
      </g>
     </g>
    </g>
    <g id="xtick_9">
     <g id="line2d_17">
      <g>
       <use style="stroke:#000000;stroke-width:1.6;" x="660.966085" xlink:href="#m7b50022b9a" y="311.323605"/>
      </g>
     </g>
     <g id="text_14">
      <!-- 0.6 -->
      <g transform="translate(645.06296 341.22048)scale(0.2 -0.2)">
       <use xlink:href="#DejaVuSans-48"/>
       <use x="63.623047" xlink:href="#DejaVuSans-46"/>
       <use x="95.410156" xlink:href="#DejaVuSans-54"/>
      </g>
     </g>
    </g>
   </g>
   <g id="matplotlib.axis_4">
    <g id="ytick_6">
     <g id="line2d_18">
      <g>
       <use style="stroke:#000000;stroke-width:1.6;" x="383.315697" xlink:href="#mc09c99ae16" y="311.323605"/>
      </g>
     </g>
     <g id="text_15">
      <!-- 0 -->
      <g transform="translate(355.890697 318.922043)scale(0.2 -0.2)">
       <use xlink:href="#DejaVuSans-48"/>
      </g>
     </g>
    </g>
    <g id="ytick_7">
     <g id="line2d_19">
      <g>
       <use style="stroke:#000000;stroke-width:1.6;" x="383.315697" xlink:href="#mc09c99ae16" y="259.3899"/>
      </g>
     </g>
     <g id="text_16">
      <!-- 1 -->
      <defs>
       <path d="M 12.40625 8.296875 
L 28.515625 8.296875 
L 28.515625 63.921875 
L 10.984375 60.40625 
L 10.984375 69.390625 
L 28.421875 72.90625 
L 38.28125 72.90625 
L 38.28125 8.296875 
L 54.390625 8.296875 
L 54.390625 0 
L 12.40625 0 
z
" id="DejaVuSans-49"/>
      </defs>
      <g transform="translate(355.890697 266.988338)scale(0.2 -0.2)">
       <use xlink:href="#DejaVuSans-49"/>
      </g>
     </g>
    </g>
    <g id="ytick_8">
     <g id="line2d_20">
      <g>
       <use style="stroke:#000000;stroke-width:1.6;" x="383.315697" xlink:href="#mc09c99ae16" y="207.456196"/>
      </g>
     </g>
     <g id="text_17">
      <!-- 2 -->
      <g transform="translate(355.890697 215.054633)scale(0.2 -0.2)">
       <use xlink:href="#DejaVuSans-50"/>
      </g>
     </g>
    </g>
    <g id="ytick_9">
     <g id="line2d_21">
      <g>
       <use style="stroke:#000000;stroke-width:1.6;" x="383.315697" xlink:href="#mc09c99ae16" y="155.522491"/>
      </g>
     </g>
     <g id="text_18">
      <!-- 3 -->
      <defs>
       <path d="M 40.578125 39.3125 
Q 47.65625 37.796875 51.625 33 
Q 55.609375 28.21875 55.609375 21.1875 
Q 55.609375 10.40625 48.1875 4.484375 
Q 40.765625 -1.421875 27.09375 -1.421875 
Q 22.515625 -1.421875 17.65625 -0.515625 
Q 12.796875 0.390625 7.625 2.203125 
L 7.625 11.71875 
Q 11.71875 9.328125 16.59375 8.109375 
Q 21.484375 6.890625 26.8125 6.890625 
Q 36.078125 6.890625 40.9375 10.546875 
Q 45.796875 14.203125 45.796875 21.1875 
Q 45.796875 27.640625 41.28125 31.265625 
Q 36.765625 34.90625 28.71875 34.90625 
L 20.21875 34.90625 
L 20.21875 43.015625 
L 29.109375 43.015625 
Q 36.375 43.015625 40.234375 45.921875 
Q 44.09375 48.828125 44.09375 54.296875 
Q 44.09375 59.90625 40.109375 62.90625 
Q 36.140625 65.921875 28.71875 65.921875 
Q 24.65625 65.921875 20.015625 65.03125 
Q 15.375 64.15625 9.8125 62.3125 
L 9.8125 71.09375 
Q 15.4375 72.65625 20.34375 73.4375 
Q 25.25 74.21875 29.59375 74.21875 
Q 40.828125 74.21875 47.359375 69.109375 
Q 53.90625 64.015625 53.90625 55.328125 
Q 53.90625 49.265625 50.4375 45.09375 
Q 46.96875 40.921875 40.578125 39.3125 
z
" id="DejaVuSans-51"/>
      </defs>
      <g transform="translate(355.890697 163.120928)scale(0.2 -0.2)">
       <use xlink:href="#DejaVuSans-51"/>
      </g>
     </g>
    </g>
    <g id="ytick_10">
     <g id="line2d_22">
      <g>
       <use style="stroke:#000000;stroke-width:1.6;" x="383.315697" xlink:href="#mc09c99ae16" y="103.588786"/>
      </g>
     </g>
     <g id="text_19">
      <!-- 4 -->
      <g transform="translate(355.890697 111.187223)scale(0.2 -0.2)">
       <use xlink:href="#DejaVuSans-52"/>
      </g>
     </g>
    </g>
    <g id="ytick_11">
     <g id="line2d_23">
      <g>
       <use style="stroke:#000000;stroke-width:1.6;" x="383.315697" xlink:href="#mc09c99ae16" y="51.655081"/>
      </g>
     </g>
     <g id="text_20">
      <!-- 5 -->
      <defs>
       <path d="M 10.796875 72.90625 
L 49.515625 72.90625 
L 49.515625 64.59375 
L 19.828125 64.59375 
L 19.828125 46.734375 
Q 21.96875 47.46875 24.109375 47.828125 
Q 26.265625 48.1875 28.421875 48.1875 
Q 40.625 48.1875 47.75 41.5 
Q 54.890625 34.8125 54.890625 23.390625 
Q 54.890625 11.625 47.5625 5.09375 
Q 40.234375 -1.421875 26.90625 -1.421875 
Q 22.3125 -1.421875 17.546875 -0.640625 
Q 12.796875 0.140625 7.71875 1.703125 
L 7.71875 11.625 
Q 12.109375 9.234375 16.796875 8.0625 
Q 21.484375 6.890625 26.703125 6.890625 
Q 35.15625 6.890625 40.078125 11.328125 
Q 45.015625 15.765625 45.015625 23.390625 
Q 45.015625 31 40.078125 35.4375 
Q 35.15625 39.890625 26.703125 39.890625 
Q 22.75 39.890625 18.8125 39.015625 
Q 14.890625 38.140625 10.796875 36.28125 
z
" id="DejaVuSans-53"/>
      </defs>
      <g transform="translate(355.890697 59.253519)scale(0.2 -0.2)">
       <use xlink:href="#DejaVuSans-53"/>
      </g>
     </g>
    </g>
   </g>
   <g id="line2d_24">
    <path clip-path="url(#p96ae43d14e)" d="M 0 0 
" style="fill:none;stroke:#000000;stroke-linecap:square;stroke-width:2;"/>
   </g>
   <g id="line2d_25">
    <path clip-path="url(#p96ae43d14e)" d="M 0 0 
" style="fill:none;stroke:#000000;stroke-dasharray:7.4,3.2;stroke-dashoffset:0;stroke-width:2;"/>
   </g>
   <g id="patch_6">
    <path style="fill:none;stroke:#000000;stroke-linecap:square;stroke-linejoin:miter;stroke-width:0.8;"/>
   </g>
   <g id="patch_7">
    <path style="fill:none;stroke:#000000;stroke-linecap:square;stroke-linejoin:miter;stroke-width:0.8;"/>
   </g>
  </g>
 </g>
 <defs>
  <clipPath id="p6aace8c5a0">
   <rect height="307.823605" width="307.823605" x="27.575" y="3.5"/>
  </clipPath>
  <clipPath id="p96ae43d14e">
   <rect height="307.823605" width="307.823605" x="383.315697" y="3.5"/>
  </clipPath>
 </defs>
</svg>
