<?xml version="1.0" encoding="utf-8" standalone="no"?>
<!DOCTYPE svg PUBLIC "-//W3C//DTD SVG 1.1//EN"
  "http://www.w3.org/Graphics/SVG/1.1/DTD/svg11.dtd">
<!-- Created with matplotlib (https://matplotlib.org/) -->
<svg height="329.686667pt" version="1.1" viewBox="0 0 336.311667 329.686667" width="336.311667pt" xmlns="http://www.w3.org/2000/svg" xmlns:xlink="http://www.w3.org/1999/xlink">
 <defs>
  <style type="text/css">
*{stroke-linecap:butt;stroke-linejoin:round;}
  </style>
 </defs>
 <g id="figure_1">
  <g id="patch_1">
   <path d="M 0 329.686667 
L 336.311667 329.686667 
L 336.311667 0 
L 0 0 
z
" style="fill:#ffffff;"/>
  </g>
  <g id="axes_1">
   <g id="patch_2">
    <path d="M 40.325 295.986667 
L 332.811667 295.986667 
L 332.811667 3.5 
L 40.325 3.5 
z
" style="fill:#ffffff;"/>
   </g>
   <g id="matplotlib.axis_1">
    <g id="xtick_1">
     <g id="line2d_1">
      <defs>
       <path d="M 0 0 
L 0 3.5 
" id="mc2e9e6dc7e" style="stroke:#000000;stroke-width:1.6;"/>
      </defs>
      <g>
       <use style="stroke:#000000;stroke-width:1.6;" x="106.494249" xlink:href="#mc2e9e6dc7e" y="295.986667"/>
      </g>
     </g>
     <g id="text_1">
      <!-- 0.0 -->
      <defs>
       <path d="M 31.78125 66.40625 
Q 24.171875 66.40625 20.328125 58.90625 
Q 16.5 51.421875 16.5 36.375 
Q 16.5 21.390625 20.328125 13.890625 
Q 24.171875 6.390625 31.78125 6.390625 
Q 39.453125 6.390625 43.28125 13.890625 
Q 47.125 21.390625 47.125 36.375 
Q 47.125 51.421875 43.28125 58.90625 
Q 39.453125 66.40625 31.78125 66.40625 
z
M 31.78125 74.21875 
Q 44.046875 74.21875 50.515625 64.515625 
Q 56.984375 54.828125 56.984375 36.375 
Q 56.984375 17.96875 50.515625 8.265625 
Q 44.046875 -1.421875 31.78125 -1.421875 
Q 19.53125 -1.421875 13.0625 8.265625 
Q 6.59375 17.96875 6.59375 36.375 
Q 6.59375 54.828125 13.0625 64.515625 
Q 19.53125 74.21875 31.78125 74.21875 
z
" id="DejaVuSans-48"/>
       <path d="M 10.6875 12.40625 
L 21 12.40625 
L 21 0 
L 10.6875 0 
z
" id="DejaVuSans-46"/>
      </defs>
      <g transform="translate(90.591124 325.883542)scale(0.2 -0.2)">
       <use xlink:href="#DejaVuSans-48"/>
       <use x="63.623047" xlink:href="#DejaVuSans-46"/>
       <use x="95.410156" xlink:href="#DejaVuSans-48"/>
      </g>
     </g>
    </g>
    <g id="xtick_2">
     <g id="line2d_2">
      <g>
       <use style="stroke:#000000;stroke-width:1.6;" x="247.583539" xlink:href="#mc2e9e6dc7e" y="295.986667"/>
      </g>
     </g>
     <g id="text_2">
      <!-- 0.5 -->
      <defs>
       <path d="M 10.796875 72.90625 
L 49.515625 72.90625 
L 49.515625 64.59375 
L 19.828125 64.59375 
L 19.828125 46.734375 
Q 21.96875 47.46875 24.109375 47.828125 
Q 26.265625 48.1875 28.421875 48.1875 
Q 40.625 48.1875 47.75 41.5 
Q 54.890625 34.8125 54.890625 23.390625 
Q 54.890625 11.625 47.5625 5.09375 
Q 40.234375 -1.421875 26.90625 -1.421875 
Q 22.3125 -1.421875 17.546875 -0.640625 
Q 12.796875 0.140625 7.71875 1.703125 
L 7.71875 11.625 
Q 12.109375 9.234375 16.796875 8.0625 
Q 21.484375 6.890625 26.703125 6.890625 
Q 35.15625 6.890625 40.078125 11.328125 
Q 45.015625 15.765625 45.015625 23.390625 
Q 45.015625 31 40.078125 35.4375 
Q 35.15625 39.890625 26.703125 39.890625 
Q 22.75 39.890625 18.8125 39.015625 
Q 14.890625 38.140625 10.796875 36.28125 
z
" id="DejaVuSans-53"/>
      </defs>
      <g transform="translate(231.680414 325.883542)scale(0.2 -0.2)">
       <use xlink:href="#DejaVuSans-48"/>
       <use x="63.623047" xlink:href="#DejaVuSans-46"/>
       <use x="95.410156" xlink:href="#DejaVuSans-53"/>
      </g>
     </g>
    </g>
   </g>
   <g id="matplotlib.axis_2">
    <g id="ytick_1">
     <g id="line2d_3">
      <defs>
       <path d="M 0 0 
L -3.5 0 
" id="m5e54031762" style="stroke:#000000;stroke-width:1.6;"/>
      </defs>
      <g>
       <use style="stroke:#000000;stroke-width:1.6;" x="40.325" xlink:href="#m5e54031762" y="295.986667"/>
      </g>
     </g>
     <g id="text_3">
      <!-- 0 -->
      <g transform="translate(12.9 303.585104)scale(0.2 -0.2)">
       <use xlink:href="#DejaVuSans-48"/>
      </g>
     </g>
    </g>
    <g id="ytick_2">
     <g id="line2d_4">
      <g>
       <use style="stroke:#000000;stroke-width:1.6;" x="40.325" xlink:href="#m5e54031762" y="250.421037"/>
      </g>
     </g>
     <g id="text_4">
      <!-- 2 -->
      <defs>
       <path d="M 19.1875 8.296875 
L 53.609375 8.296875 
L 53.609375 0 
L 7.328125 0 
L 7.328125 8.296875 
Q 12.9375 14.109375 22.625 23.890625 
Q 32.328125 33.6875 34.8125 36.53125 
Q 39.546875 41.84375 41.421875 45.53125 
Q 43.3125 49.21875 43.3125 52.78125 
Q 43.3125 58.59375 39.234375 62.25 
Q 35.15625 65.921875 28.609375 65.921875 
Q 23.96875 65.921875 18.8125 64.3125 
Q 13.671875 62.703125 7.8125 59.421875 
L 7.8125 69.390625 
Q 13.765625 71.78125 18.9375 73 
Q 24.125 74.21875 28.421875 74.21875 
Q 39.75 74.21875 46.484375 68.546875 
Q 53.21875 62.890625 53.21875 53.421875 
Q 53.21875 48.921875 51.53125 44.890625 
Q 49.859375 40.875 45.40625 35.40625 
Q 44.1875 33.984375 37.640625 27.21875 
Q 31.109375 20.453125 19.1875 8.296875 
z
" id="DejaVuSans-50"/>
      </defs>
      <g transform="translate(12.9 258.019475)scale(0.2 -0.2)">
       <use xlink:href="#DejaVuSans-50"/>
      </g>
     </g>
    </g>
    <g id="ytick_3">
     <g id="line2d_5">
      <g>
       <use style="stroke:#000000;stroke-width:1.6;" x="40.325" xlink:href="#m5e54031762" y="204.855408"/>
      </g>
     </g>
     <g id="text_5">
      <!-- 4 -->
      <defs>
       <path d="M 37.796875 64.3125 
L 12.890625 25.390625 
L 37.796875 25.390625 
z
M 35.203125 72.90625 
L 47.609375 72.90625 
L 47.609375 25.390625 
L 58.015625 25.390625 
L 58.015625 17.1875 
L 47.609375 17.1875 
L 47.609375 0 
L 37.796875 0 
L 37.796875 17.1875 
L 4.890625 17.1875 
L 4.890625 26.703125 
z
" id="DejaVuSans-52"/>
      </defs>
      <g transform="translate(12.9 212.453845)scale(0.2 -0.2)">
       <use xlink:href="#DejaVuSans-52"/>
      </g>
     </g>
    </g>
    <g id="ytick_4">
     <g id="line2d_6">
      <g>
       <use style="stroke:#000000;stroke-width:1.6;" x="40.325" xlink:href="#m5e54031762" y="159.289778"/>
      </g>
     </g>
     <g id="text_6">
      <!-- 6 -->
      <defs>
       <path d="M 33.015625 40.375 
Q 26.375 40.375 22.484375 35.828125 
Q 18.609375 31.296875 18.609375 23.390625 
Q 18.609375 15.53125 22.484375 10.953125 
Q 26.375 6.390625 33.015625 6.390625 
Q 39.65625 6.390625 43.53125 10.953125 
Q 47.40625 15.53125 47.40625 23.390625 
Q 47.40625 31.296875 43.53125 35.828125 
Q 39.65625 40.375 33.015625 40.375 
z
M 52.59375 71.296875 
L 52.59375 62.3125 
Q 48.875 64.0625 45.09375 64.984375 
Q 41.3125 65.921875 37.59375 65.921875 
Q 27.828125 65.921875 22.671875 59.328125 
Q 17.53125 52.734375 16.796875 39.40625 
Q 19.671875 43.65625 24.015625 45.921875 
Q 28.375 48.1875 33.59375 48.1875 
Q 44.578125 48.1875 50.953125 41.515625 
Q 57.328125 34.859375 57.328125 23.390625 
Q 57.328125 12.15625 50.6875 5.359375 
Q 44.046875 -1.421875 33.015625 -1.421875 
Q 20.359375 -1.421875 13.671875 8.265625 
Q 6.984375 17.96875 6.984375 36.375 
Q 6.984375 53.65625 15.1875 63.9375 
Q 23.390625 74.21875 37.203125 74.21875 
Q 40.921875 74.21875 44.703125 73.484375 
Q 48.484375 72.75 52.59375 71.296875 
z
" id="DejaVuSans-54"/>
      </defs>
      <g transform="translate(12.9 166.888216)scale(0.2 -0.2)">
       <use xlink:href="#DejaVuSans-54"/>
      </g>
     </g>
    </g>
    <g id="ytick_5">
     <g id="line2d_7">
      <g>
       <use style="stroke:#000000;stroke-width:1.6;" x="40.325" xlink:href="#m5e54031762" y="113.724149"/>
      </g>
     </g>
     <g id="text_7">
      <!-- 8 -->
      <defs>
       <path d="M 31.78125 34.625 
Q 24.75 34.625 20.71875 30.859375 
Q 16.703125 27.09375 16.703125 20.515625 
Q 16.703125 13.921875 20.71875 10.15625 
Q 24.75 6.390625 31.78125 6.390625 
Q 38.8125 6.390625 42.859375 10.171875 
Q 46.921875 13.96875 46.921875 20.515625 
Q 46.921875 27.09375 42.890625 30.859375 
Q 38.875 34.625 31.78125 34.625 
z
M 21.921875 38.8125 
Q 15.578125 40.375 12.03125 44.71875 
Q 8.5 49.078125 8.5 55.328125 
Q 8.5 64.0625 14.71875 69.140625 
Q 20.953125 74.21875 31.78125 74.21875 
Q 42.671875 74.21875 48.875 69.140625 
Q 55.078125 64.0625 55.078125 55.328125 
Q 55.078125 49.078125 51.53125 44.71875 
Q 48 40.375 41.703125 38.8125 
Q 48.828125 37.15625 52.796875 32.3125 
Q 56.78125 27.484375 56.78125 20.515625 
Q 56.78125 9.90625 50.3125 4.234375 
Q 43.84375 -1.421875 31.78125 -1.421875 
Q 19.734375 -1.421875 13.25 4.234375 
Q 6.78125 9.90625 6.78125 20.515625 
Q 6.78125 27.484375 10.78125 32.3125 
Q 14.796875 37.15625 21.921875 38.8125 
z
M 18.3125 54.390625 
Q 18.3125 48.734375 21.84375 45.5625 
Q 25.390625 42.390625 31.78125 42.390625 
Q 38.140625 42.390625 41.71875 45.5625 
Q 45.3125 48.734375 45.3125 54.390625 
Q 45.3125 60.0625 41.71875 63.234375 
Q 38.140625 66.40625 31.78125 66.40625 
Q 25.390625 66.40625 21.84375 63.234375 
Q 18.3125 60.0625 18.3125 54.390625 
z
" id="DejaVuSans-56"/>
      </defs>
      <g transform="translate(12.9 121.322586)scale(0.2 -0.2)">
       <use xlink:href="#DejaVuSans-56"/>
      </g>
     </g>
    </g>
    <g id="ytick_6">
     <g id="line2d_8">
      <g>
       <use style="stroke:#000000;stroke-width:1.6;" x="40.325" xlink:href="#m5e54031762" y="68.158519"/>
      </g>
     </g>
     <g id="text_8">
      <!-- 10 -->
      <defs>
       <path d="M 12.40625 8.296875 
L 28.515625 8.296875 
L 28.515625 63.921875 
L 10.984375 60.40625 
L 10.984375 69.390625 
L 28.421875 72.90625 
L 38.28125 72.90625 
L 38.28125 8.296875 
L 54.390625 8.296875 
L 54.390625 0 
L 12.40625 0 
z
" id="DejaVuSans-49"/>
      </defs>
      <g transform="translate(0.175 75.756957)scale(0.2 -0.2)">
       <use xlink:href="#DejaVuSans-49"/>
       <use x="63.623047" xlink:href="#DejaVuSans-48"/>
      </g>
     </g>
    </g>
    <g id="ytick_7">
     <g id="line2d_9">
      <g>
       <use style="stroke:#000000;stroke-width:1.6;" x="40.325" xlink:href="#m5e54031762" y="22.59289"/>
      </g>
     </g>
     <g id="text_9">
      <!-- 12 -->
      <g transform="translate(0.175 30.191327)scale(0.2 -0.2)">
       <use xlink:href="#DejaVuSans-49"/>
       <use x="63.623047" xlink:href="#DejaVuSans-50"/>
      </g>
     </g>
    </g>
   </g>
   <g id="line2d_10">
    <path clip-path="url(#pf66e296f7c)" d="M 119.58979 295.983507 
L 123.559745 295.886986 
L 127.5297 295.649846 
L 130.176336 295.688232 
L 132.822973 295.781809 
L 135.469609 295.697658 
L 138.116246 295.399522 
L 139.439564 295.049404 
L 143.409519 293.763147 
L 144.732837 293.386276 
L 146.056156 292.863732 
L 150.02611 290.880678 
L 152.672747 289.9473 
L 153.996065 289.294058 
L 155.319384 288.129278 
L 156.642702 286.126018 
L 157.96602 283.096523 
L 159.289338 278.992603 
L 160.612657 273.703476 
L 161.935975 266.967139 
L 163.259293 258.611563 
L 164.582612 248.764609 
L 165.90593 237.498371 
L 167.229248 224.182983 
L 168.552566 207.659813 
L 169.875885 187.613688 
L 172.522521 144.933971 
L 173.845839 127.235957 
L 175.169158 112.95746 
L 176.492476 101.955287 
L 177.815794 94.591986 
L 179.139113 90.977719 
L 180.462431 89.903921 
L 181.785749 89.393757 
L 183.109067 88.721418 
L 184.432386 89.466714 
L 185.755704 93.89921 
L 187.079022 102.653897 
L 188.40234 114.605792 
L 193.695614 168.406418 
L 200.312205 226.078657 
L 201.635523 235.862886 
L 202.958842 243.786812 
L 204.28216 250.073307 
L 205.605478 255.360462 
L 206.928796 260.052402 
L 208.252115 264.079882 
L 209.575433 267.281067 
L 210.898751 269.772771 
L 213.545388 273.77529 
L 216.192024 277.403992 
L 217.515343 278.965892 
L 218.838661 280.23515 
L 220.161979 281.277157 
L 221.485297 282.120832 
L 224.131934 283.523693 
L 225.455252 284.658434 
L 228.101889 287.755892 
L 229.425207 289.058363 
L 230.748525 289.963612 
L 232.071844 290.43281 
L 233.395162 290.510711 
L 236.041798 290.278916 
L 237.365117 290.439669 
L 243.981708 292.592378 
L 246.628345 293.285752 
L 247.951663 293.578261 
L 251.921618 294.827424 
L 254.568254 294.987243 
L 255.891573 295.096706 
L 258.538209 295.544761 
L 259.861527 295.634384 
L 265.1548 295.49643 
L 271.771392 295.655414 
L 278.387983 295.424599 
L 286.327893 295.97447 
L 287.651211 295.983508 
L 287.651211 295.983508 
" style="fill:none;stroke:#000000;stroke-linecap:square;stroke-width:2;"/>
   </g>
   <g id="line2d_11">
    <path clip-path="url(#pf66e296f7c)" d="M 53.619848 295.984226 
L 57.050361 295.920961 
L 60.480873 295.763889 
L 72.487667 295.986667 
L 96.501255 295.923626 
L 103.36228 295.505077 
L 105.077536 295.554181 
L 108.508048 295.89184 
L 111.938561 295.973022 
L 115.369073 295.831521 
L 118.799586 295.604468 
L 125.660611 295.728572 
L 130.806379 294.931594 
L 137.667404 294.768594 
L 139.382661 294.546365 
L 141.097917 294.044199 
L 144.528429 292.678733 
L 146.243686 291.690179 
L 147.958942 289.986578 
L 149.674198 287.622913 
L 151.389454 284.72027 
L 153.104711 281.474812 
L 154.819967 277.79757 
L 156.535223 272.869098 
L 158.250479 266.390661 
L 159.965736 258.502146 
L 161.680992 247.866575 
L 163.396248 233.669385 
L 165.111504 217.427951 
L 166.82676 199.857469 
L 168.542017 180.062298 
L 170.257273 157.316484 
L 171.972529 132.186697 
L 173.687785 110.169289 
L 175.403042 97.381818 
L 177.118298 91.975051 
L 178.833554 89.614217 
L 180.54881 90.519668 
L 182.264067 96.162676 
L 183.979323 104.89615 
L 185.694579 114.577042 
L 187.409835 126.610014 
L 189.125092 143.616104 
L 192.555604 186.297461 
L 194.27086 203.149076 
L 195.986117 214.930597 
L 199.416629 233.220899 
L 201.131885 241.924813 
L 202.847142 249.655306 
L 204.562398 256.432745 
L 206.277654 261.633215 
L 207.99291 265.409007 
L 211.423423 272.123192 
L 213.138679 274.427858 
L 214.853935 275.875548 
L 216.569192 277.701202 
L 219.999704 283.737356 
L 221.71496 285.842934 
L 225.145473 289.089235 
L 226.860729 289.883244 
L 228.575985 289.870872 
L 230.291241 290.074412 
L 232.006498 290.628773 
L 233.721754 291.001886 
L 235.43701 291.217925 
L 237.152266 291.685006 
L 240.582779 293.323177 
L 244.013291 294.448971 
L 247.443804 295.278309 
L 249.15906 295.465778 
L 250.874316 295.492607 
L 256.020085 295.141299 
L 259.450598 294.805941 
L 262.88111 294.871533 
L 264.596366 295.120199 
L 268.026879 295.822691 
L 271.457391 295.982015 
L 271.457391 295.982015 
" style="fill:none;stroke:#000000;stroke-dasharray:7.4,3.2;stroke-dashoffset:0;stroke-width:2;"/>
   </g>
   <g id="line2d_12">
    <path clip-path="url(#pf66e296f7c)" d="M 212.765864 295.981136 
L 215.28754 295.90127 
L 219.490333 295.640374 
L 221.171451 295.477302 
L 222.852568 295.258694 
L 224.533685 295.360828 
L 227.89592 295.92209 
L 229.577038 295.932996 
L 231.258155 295.754822 
L 234.62039 295.22784 
L 236.301507 295.03321 
L 237.142066 294.855409 
L 237.982625 294.557423 
L 238.823183 294.07474 
L 241.344859 292.041857 
L 243.866535 290.853937 
L 244.707094 289.952622 
L 247.22877 286.107251 
L 248.069329 285.13007 
L 249.750446 283.606766 
L 252.272122 281.747777 
L 253.112681 280.592452 
L 253.95324 278.451172 
L 254.793799 275.04104 
L 256.474916 265.556178 
L 258.156033 256.260098 
L 258.996592 251.739815 
L 259.837151 246.511787 
L 260.677709 240.009943 
L 261.518268 231.857025 
L 262.358827 221.785411 
L 263.199385 209.667632 
L 264.880503 180.685717 
L 266.56162 151.871732 
L 269.923855 102.337857 
L 272.445531 60.166716 
L 273.28609 49.302127 
L 274.126649 40.314373 
L 275.807766 25.683631 
L 276.648325 20.266042 
L 277.488883 17.427937 
L 278.329442 18.380753 
L 279.170001 23.48209 
L 280.010559 31.674636 
L 281.691677 51.529304 
L 282.532236 63.476413 
L 283.372794 78.358945 
L 287.575588 165.982039 
L 289.256705 195.269654 
L 290.097264 207.42533 
L 290.937822 217.588875 
L 291.778381 226.114814 
L 293.459499 239.820179 
L 295.140616 250.623356 
L 299.343409 274.677657 
L 300.183968 278.663947 
L 301.024527 282.080319 
L 301.865086 284.974872 
L 302.705644 287.38854 
L 303.546203 289.350272 
L 304.386762 290.893187 
L 305.22732 292.04206 
L 306.067879 292.809043 
L 306.908438 293.227498 
L 308.589555 293.43843 
L 310.270673 293.697555 
L 317.835701 295.883866 
L 319.516818 295.976589 
L 319.516818 295.976589 
" style="fill:none;stroke:#000000;stroke-dasharray:2,3.3;stroke-dashoffset:0;stroke-width:2;"/>
   </g>
   <g id="patch_3">
    <path d="M 40.325 295.986667 
L 40.325 3.5 
" style="fill:none;stroke:#000000;stroke-linecap:square;stroke-linejoin:miter;stroke-width:0.8;"/>
   </g>
   <g id="patch_4">
    <path d="M 40.325 295.986667 
L 332.811667 295.986667 
" style="fill:none;stroke:#000000;stroke-linecap:square;stroke-linejoin:miter;stroke-width:0.8;"/>
   </g>
  </g>
  <g id="axes_2">
   <g id="patch_5">
    <path d="M 387.796667 295.986667 
L 680.283333 295.986667 
L 680.283333 3.5 
L 387.796667 3.5 
z
" style="fill:#ffffff;"/>
   </g>
   <g id="matplotlib.axis_3">
    <g id="xtick_3">
     <g id="line2d_13">
      <g>
       <use style="stroke:#000000;stroke-width:1.6;" x="397.019111" xlink:href="#mc2e9e6dc7e" y="295.986667"/>
      </g>
     </g>
     <g id="text_10">
      <!-- 0.0 -->
      <g transform="translate(381.115986 325.883542)scale(0.2 -0.2)">
       <use xlink:href="#DejaVuSans-48"/>
       <use x="63.623047" xlink:href="#DejaVuSans-46"/>
       <use x="95.410156" xlink:href="#DejaVuSans-48"/>
      </g>
     </g>
    </g>
    <g id="xtick_4">
     <g id="line2d_14">
      <g>
       <use style="stroke:#000000;stroke-width:1.6;" x="489.607877" xlink:href="#mc2e9e6dc7e" y="295.986667"/>
      </g>
     </g>
     <g id="text_11">
      <!-- 0.2 -->
      <g transform="translate(473.704752 325.883542)scale(0.2 -0.2)">
       <use xlink:href="#DejaVuSans-48"/>
       <use x="63.623047" xlink:href="#DejaVuSans-46"/>
       <use x="95.410156" xlink:href="#DejaVuSans-50"/>
      </g>
     </g>
    </g>
    <g id="xtick_5">
     <g id="line2d_15">
      <g>
       <use style="stroke:#000000;stroke-width:1.6;" x="582.196644" xlink:href="#mc2e9e6dc7e" y="295.986667"/>
      </g>
     </g>
     <g id="text_12">
      <!-- 0.4 -->
      <g transform="translate(566.293519 325.883542)scale(0.2 -0.2)">
       <use xlink:href="#DejaVuSans-48"/>
       <use x="63.623047" xlink:href="#DejaVuSans-46"/>
       <use x="95.410156" xlink:href="#DejaVuSans-52"/>
      </g>
     </g>
    </g>
    <g id="xtick_6">
     <g id="line2d_16">
      <g>
       <use style="stroke:#000000;stroke-width:1.6;" x="674.78541" xlink:href="#mc2e9e6dc7e" y="295.986667"/>
      </g>
     </g>
     <g id="text_13">
      <!-- 0.6 -->
      <g transform="translate(658.882285 325.883542)scale(0.2 -0.2)">
       <use xlink:href="#DejaVuSans-48"/>
       <use x="63.623047" xlink:href="#DejaVuSans-46"/>
       <use x="95.410156" xlink:href="#DejaVuSans-54"/>
      </g>
     </g>
    </g>
   </g>
   <g id="matplotlib.axis_4">
    <g id="ytick_8">
     <g id="line2d_17">
      <g>
       <use style="stroke:#000000;stroke-width:1.6;" x="387.796667" xlink:href="#m5e54031762" y="295.986667"/>
      </g>
     </g>
     <g id="text_14">
      <!-- 0 -->
      <g transform="translate(360.371667 303.585104)scale(0.2 -0.2)">
       <use xlink:href="#DejaVuSans-48"/>
      </g>
     </g>
    </g>
    <g id="ytick_9">
     <g id="line2d_18">
      <g>
       <use style="stroke:#000000;stroke-width:1.6;" x="387.796667" xlink:href="#m5e54031762" y="239.491069"/>
      </g>
     </g>
     <g id="text_15">
      <!-- 2 -->
      <g transform="translate(360.371667 247.089507)scale(0.2 -0.2)">
       <use xlink:href="#DejaVuSans-50"/>
      </g>
     </g>
    </g>
    <g id="ytick_10">
     <g id="line2d_19">
      <g>
       <use style="stroke:#000000;stroke-width:1.6;" x="387.796667" xlink:href="#m5e54031762" y="182.995472"/>
      </g>
     </g>
     <g id="text_16">
      <!-- 4 -->
      <g transform="translate(360.371667 190.593909)scale(0.2 -0.2)">
       <use xlink:href="#DejaVuSans-52"/>
      </g>
     </g>
    </g>
    <g id="ytick_11">
     <g id="line2d_20">
      <g>
       <use style="stroke:#000000;stroke-width:1.6;" x="387.796667" xlink:href="#m5e54031762" y="126.499875"/>
      </g>
     </g>
     <g id="text_17">
      <!-- 6 -->
      <g transform="translate(360.371667 134.098312)scale(0.2 -0.2)">
       <use xlink:href="#DejaVuSans-54"/>
      </g>
     </g>
    </g>
    <g id="ytick_12">
     <g id="line2d_21">
      <g>
       <use style="stroke:#000000;stroke-width:1.6;" x="387.796667" xlink:href="#m5e54031762" y="70.004277"/>
      </g>
     </g>
     <g id="text_18">
      <!-- 8 -->
      <g transform="translate(360.371667 77.602715)scale(0.2 -0.2)">
       <use xlink:href="#DejaVuSans-56"/>
      </g>
     </g>
    </g>
    <g id="ytick_13">
     <g id="line2d_22">
      <g>
       <use style="stroke:#000000;stroke-width:1.6;" x="387.796667" xlink:href="#m5e54031762" y="13.50868"/>
      </g>
     </g>
     <g id="text_19">
      <!-- 10 -->
      <g transform="translate(347.646667 21.107117)scale(0.2 -0.2)">
       <use xlink:href="#DejaVuSans-49"/>
       <use x="63.623047" xlink:href="#DejaVuSans-48"/>
      </g>
     </g>
    </g>
   </g>
   <g id="line2d_23">
    <path clip-path="url(#p3b39bff46c)" d="M 0 0 
" style="fill:none;stroke:#000000;stroke-linecap:square;stroke-width:2;"/>
   </g>
   <g id="line2d_24">
    <path clip-path="url(#p3b39bff46c)" d="M 0 0 
" style="fill:none;stroke:#000000;stroke-dasharray:7.4,3.2;stroke-dashoffset:0;stroke-width:2;"/>
   </g>
   <g id="patch_6">
    <path style="fill:none;stroke:#000000;stroke-linecap:square;stroke-linejoin:miter;stroke-width:0.8;"/>
   </g>
   <g id="patch_7">
    <path style="fill:none;stroke:#000000;stroke-linecap:square;stroke-linejoin:miter;stroke-width:0.8;"/>
   </g>
  </g>
 </g>
 <defs>
  <clipPath id="pf66e296f7c">
   <rect height="292.486667" width="292.486667" x="40.325" y="3.5"/>
  </clipPath>
  <clipPath id="p3b39bff46c">
   <rect height="292.486667" width="292.486667" x="387.796667" y="3.5"/>
  </clipPath>
 </defs>
</svg>
