<?xml version="1.0" encoding="utf-8" standalone="no"?>
<!DOCTYPE svg PUBLIC "-//W3C//DTD SVG 1.1//EN"
  "http://www.w3.org/Graphics/SVG/1.1/DTD/svg11.dtd">
<!-- Created with matplotlib (https://matplotlib.org/) -->
<svg height="342.977725pt" version="1.1" viewBox="0 0 352.766667 342.977725" width="352.766667pt" xmlns="http://www.w3.org/2000/svg" xmlns:xlink="http://www.w3.org/1999/xlink">
 <defs>
  <style type="text/css">
*{stroke-linecap:butt;stroke-linejoin:round;}
  </style>
 </defs>
 <g id="figure_1">
  <g id="patch_1">
   <path d="M 0 342.977725 
L 352.766667 342.977725 
L 352.766667 0 
L 0 0 
z
" style="fill:#ffffff;"/>
  </g>
  <g id="axes_1">
   <g id="patch_2">
    <path d="M 46.7 309.277725 
L 349.266667 309.277725 
L 349.266667 6.711059 
L 46.7 6.711059 
z
" style="fill:#ffffff;"/>
   </g>
   <g id="matplotlib.axis_1">
    <g id="xtick_1">
     <g id="line2d_1">
      <defs>
       <path d="M 0 0 
L 0 3.5 
" id="mf28afc3ddc" style="stroke:#000000;stroke-width:1.6;"/>
      </defs>
      <g>
       <use style="stroke:#000000;stroke-width:1.6;" x="73.455218" xlink:href="#mf28afc3ddc" y="309.277725"/>
      </g>
     </g>
     <g id="text_1">
      <!-- −1.0 -->
      <defs>
       <path d="M 10.59375 35.5 
L 73.1875 35.5 
L 73.1875 27.203125 
L 10.59375 27.203125 
z
" id="DejaVuSans-8722"/>
       <path d="M 12.40625 8.296875 
L 28.515625 8.296875 
L 28.515625 63.921875 
L 10.984375 60.40625 
L 10.984375 69.390625 
L 28.421875 72.90625 
L 38.28125 72.90625 
L 38.28125 8.296875 
L 54.390625 8.296875 
L 54.390625 0 
L 12.40625 0 
z
" id="DejaVuSans-49"/>
       <path d="M 10.6875 12.40625 
L 21 12.40625 
L 21 0 
L 10.6875 0 
z
" id="DejaVuSans-46"/>
       <path d="M 31.78125 66.40625 
Q 24.171875 66.40625 20.328125 58.90625 
Q 16.5 51.421875 16.5 36.375 
Q 16.5 21.390625 20.328125 13.890625 
Q 24.171875 6.390625 31.78125 6.390625 
Q 39.453125 6.390625 43.28125 13.890625 
Q 47.125 21.390625 47.125 36.375 
Q 47.125 51.421875 43.28125 58.90625 
Q 39.453125 66.40625 31.78125 66.40625 
z
M 31.78125 74.21875 
Q 44.046875 74.21875 50.515625 64.515625 
Q 56.984375 54.828125 56.984375 36.375 
Q 56.984375 17.96875 50.515625 8.265625 
Q 44.046875 -1.421875 31.78125 -1.421875 
Q 19.53125 -1.421875 13.0625 8.265625 
Q 6.59375 17.96875 6.59375 36.375 
Q 6.59375 54.828125 13.0625 64.515625 
Q 19.53125 74.21875 31.78125 74.21875 
z
" id="DejaVuSans-48"/>
      </defs>
      <g transform="translate(49.172406 339.1746)scale(0.2 -0.2)">
       <use xlink:href="#DejaVuSans-8722"/>
       <use x="83.789062" xlink:href="#DejaVuSans-49"/>
       <use x="147.412109" xlink:href="#DejaVuSans-46"/>
       <use x="179.199219" xlink:href="#DejaVuSans-48"/>
      </g>
     </g>
    </g>
    <g id="xtick_2">
     <g id="line2d_2">
      <g>
       <use style="stroke:#000000;stroke-width:1.6;" x="135.719276" xlink:href="#mf28afc3ddc" y="309.277725"/>
      </g>
     </g>
     <g id="text_2">
      <!-- −0.5 -->
      <defs>
       <path d="M 10.796875 72.90625 
L 49.515625 72.90625 
L 49.515625 64.59375 
L 19.828125 64.59375 
L 19.828125 46.734375 
Q 21.96875 47.46875 24.109375 47.828125 
Q 26.265625 48.1875 28.421875 48.1875 
Q 40.625 48.1875 47.75 41.5 
Q 54.890625 34.8125 54.890625 23.390625 
Q 54.890625 11.625 47.5625 5.09375 
Q 40.234375 -1.421875 26.90625 -1.421875 
Q 22.3125 -1.421875 17.546875 -0.640625 
Q 12.796875 0.140625 7.71875 1.703125 
L 7.71875 11.625 
Q 12.109375 9.234375 16.796875 8.0625 
Q 21.484375 6.890625 26.703125 6.890625 
Q 35.15625 6.890625 40.078125 11.328125 
Q 45.015625 15.765625 45.015625 23.390625 
Q 45.015625 31 40.078125 35.4375 
Q 35.15625 39.890625 26.703125 39.890625 
Q 22.75 39.890625 18.8125 39.015625 
Q 14.890625 38.140625 10.796875 36.28125 
z
" id="DejaVuSans-53"/>
      </defs>
      <g transform="translate(111.436463 339.1746)scale(0.2 -0.2)">
       <use xlink:href="#DejaVuSans-8722"/>
       <use x="83.789062" xlink:href="#DejaVuSans-48"/>
       <use x="147.412109" xlink:href="#DejaVuSans-46"/>
       <use x="179.199219" xlink:href="#DejaVuSans-53"/>
      </g>
     </g>
    </g>
    <g id="xtick_3">
     <g id="line2d_3">
      <g>
       <use style="stroke:#000000;stroke-width:1.6;" x="197.983333" xlink:href="#mf28afc3ddc" y="309.277725"/>
      </g>
     </g>
     <g id="text_3">
      <!-- 0.0 -->
      <g transform="translate(182.080208 339.1746)scale(0.2 -0.2)">
       <use xlink:href="#DejaVuSans-48"/>
       <use x="63.623047" xlink:href="#DejaVuSans-46"/>
       <use x="95.410156" xlink:href="#DejaVuSans-48"/>
      </g>
     </g>
    </g>
    <g id="xtick_4">
     <g id="line2d_4">
      <g>
       <use style="stroke:#000000;stroke-width:1.6;" x="260.247391" xlink:href="#mf28afc3ddc" y="309.277725"/>
      </g>
     </g>
     <g id="text_4">
      <!-- 0.5 -->
      <g transform="translate(244.344266 339.1746)scale(0.2 -0.2)">
       <use xlink:href="#DejaVuSans-48"/>
       <use x="63.623047" xlink:href="#DejaVuSans-46"/>
       <use x="95.410156" xlink:href="#DejaVuSans-53"/>
      </g>
     </g>
    </g>
    <g id="xtick_5">
     <g id="line2d_5">
      <g>
       <use style="stroke:#000000;stroke-width:1.6;" x="322.511449" xlink:href="#mf28afc3ddc" y="309.277725"/>
      </g>
     </g>
     <g id="text_5">
      <!-- 1.0 -->
      <g transform="translate(306.608324 339.1746)scale(0.2 -0.2)">
       <use xlink:href="#DejaVuSans-49"/>
       <use x="63.623047" xlink:href="#DejaVuSans-46"/>
       <use x="95.410156" xlink:href="#DejaVuSans-48"/>
      </g>
     </g>
    </g>
   </g>
   <g id="matplotlib.axis_2">
    <g id="ytick_1">
     <g id="line2d_6">
      <defs>
       <path d="M 0 0 
L -3.5 0 
" id="mbcefdb4b33" style="stroke:#000000;stroke-width:1.6;"/>
      </defs>
      <g>
       <use style="stroke:#000000;stroke-width:1.6;" x="46.7" xlink:href="#mbcefdb4b33" y="309.277725"/>
      </g>
     </g>
     <g id="text_6">
      <!-- 0.0 -->
      <g transform="translate(0.19375 316.876163)scale(0.2 -0.2)">
       <use xlink:href="#DejaVuSans-48"/>
       <use x="63.623047" xlink:href="#DejaVuSans-46"/>
       <use x="95.410156" xlink:href="#DejaVuSans-48"/>
      </g>
     </g>
    </g>
    <g id="ytick_2">
     <g id="line2d_7">
      <g>
       <use style="stroke:#000000;stroke-width:1.6;" x="46.7" xlink:href="#mbcefdb4b33" y="248.92218"/>
      </g>
     </g>
     <g id="text_7">
      <!-- 0.5 -->
      <g transform="translate(0.19375 256.520618)scale(0.2 -0.2)">
       <use xlink:href="#DejaVuSans-48"/>
       <use x="63.623047" xlink:href="#DejaVuSans-46"/>
       <use x="95.410156" xlink:href="#DejaVuSans-53"/>
      </g>
     </g>
    </g>
    <g id="ytick_3">
     <g id="line2d_8">
      <g>
       <use style="stroke:#000000;stroke-width:1.6;" x="46.7" xlink:href="#mbcefdb4b33" y="188.566635"/>
      </g>
     </g>
     <g id="text_8">
      <!-- 1.0 -->
      <g transform="translate(0.19375 196.165073)scale(0.2 -0.2)">
       <use xlink:href="#DejaVuSans-49"/>
       <use x="63.623047" xlink:href="#DejaVuSans-46"/>
       <use x="95.410156" xlink:href="#DejaVuSans-48"/>
      </g>
     </g>
    </g>
    <g id="ytick_4">
     <g id="line2d_9">
      <g>
       <use style="stroke:#000000;stroke-width:1.6;" x="46.7" xlink:href="#mbcefdb4b33" y="128.21109"/>
      </g>
     </g>
     <g id="text_9">
      <!-- 1.5 -->
      <g transform="translate(0.19375 135.809528)scale(0.2 -0.2)">
       <use xlink:href="#DejaVuSans-49"/>
       <use x="63.623047" xlink:href="#DejaVuSans-46"/>
       <use x="95.410156" xlink:href="#DejaVuSans-53"/>
      </g>
     </g>
    </g>
    <g id="ytick_5">
     <g id="line2d_10">
      <g>
       <use style="stroke:#000000;stroke-width:1.6;" x="46.7" xlink:href="#mbcefdb4b33" y="67.855545"/>
      </g>
     </g>
     <g id="text_10">
      <!-- 2.0 -->
      <defs>
       <path d="M 19.1875 8.296875 
L 53.609375 8.296875 
L 53.609375 0 
L 7.328125 0 
L 7.328125 8.296875 
Q 12.9375 14.109375 22.625 23.890625 
Q 32.328125 33.6875 34.8125 36.53125 
Q 39.546875 41.84375 41.421875 45.53125 
Q 43.3125 49.21875 43.3125 52.78125 
Q 43.3125 58.59375 39.234375 62.25 
Q 35.15625 65.921875 28.609375 65.921875 
Q 23.96875 65.921875 18.8125 64.3125 
Q 13.671875 62.703125 7.8125 59.421875 
L 7.8125 69.390625 
Q 13.765625 71.78125 18.9375 73 
Q 24.125 74.21875 28.421875 74.21875 
Q 39.75 74.21875 46.484375 68.546875 
Q 53.21875 62.890625 53.21875 53.421875 
Q 53.21875 48.921875 51.53125 44.890625 
Q 49.859375 40.875 45.40625 35.40625 
Q 44.1875 33.984375 37.640625 27.21875 
Q 31.109375 20.453125 19.1875 8.296875 
z
" id="DejaVuSans-50"/>
      </defs>
      <g transform="translate(0.19375 75.453983)scale(0.2 -0.2)">
       <use xlink:href="#DejaVuSans-50"/>
       <use x="63.623047" xlink:href="#DejaVuSans-46"/>
       <use x="95.410156" xlink:href="#DejaVuSans-48"/>
      </g>
     </g>
    </g>
    <g id="ytick_6">
     <g id="line2d_11">
      <g>
       <use style="stroke:#000000;stroke-width:1.6;" x="46.7" xlink:href="#mbcefdb4b33" y="7.5"/>
      </g>
     </g>
     <g id="text_11">
      <!-- 2.5 -->
      <g transform="translate(0.19375 15.098437)scale(0.2 -0.2)">
       <use xlink:href="#DejaVuSans-50"/>
       <use x="63.623047" xlink:href="#DejaVuSans-46"/>
       <use x="95.410156" xlink:href="#DejaVuSans-53"/>
      </g>
     </g>
    </g>
   </g>
   <g id="line2d_12">
    <path clip-path="url(#p02be91526e)" d="M 62.686095 309.265356 
L 69.078091 309.197358 
L 73.339421 309.105227 
L 94.646073 309.277725 
L 126.60605 309.20013 
L 132.998046 308.935107 
L 141.520706 309.073844 
L 145.782037 308.829792 
L 150.043367 308.870221 
L 154.304697 308.865407 
L 160.696693 308.668444 
L 167.088688 308.660896 
L 179.872679 307.159837 
L 182.003345 306.685302 
L 184.13401 305.965903 
L 186.264675 304.880554 
L 188.39534 303.66951 
L 190.526005 302.827659 
L 194.787336 302.246898 
L 196.918001 301.629654 
L 199.048666 300.586459 
L 201.179331 299.244066 
L 207.571327 294.650419 
L 209.701992 293.303094 
L 211.832657 291.811008 
L 213.963322 290.019866 
L 216.093987 287.800374 
L 218.224652 284.668314 
L 220.355318 280.288271 
L 222.485983 275.503715 
L 224.616648 271.710543 
L 228.877978 266.296322 
L 231.008643 262.461665 
L 233.139309 257.462787 
L 235.269974 251.33423 
L 237.400639 244.103853 
L 241.661969 228.482541 
L 243.792634 219.472843 
L 245.9233 208.329471 
L 250.18463 182.623494 
L 254.44596 157.89715 
L 256.576625 142.880228 
L 258.707291 126.334079 
L 260.837956 111.588441 
L 262.968621 100.416106 
L 265.099286 91.086854 
L 267.229951 80.879736 
L 269.360616 68.331488 
L 271.491281 54.169438 
L 273.621947 41.594241 
L 275.752612 33.377636 
L 277.883277 29.106989 
L 280.013942 26.408592 
L 282.144607 23.400413 
L 284.275272 21.42957 
L 286.405938 25.727246 
L 288.536603 39.701051 
L 294.928598 100.676856 
L 297.059263 123.047557 
L 303.451259 197.711216 
L 305.581924 219.935727 
L 307.712589 240.077969 
L 309.843254 257.791336 
L 311.97392 272.407961 
L 314.104585 283.608615 
L 316.23525 291.167192 
L 318.365915 295.064256 
L 320.49658 296.586427 
L 322.627245 298.251904 
L 324.757911 301.457214 
L 326.888576 305.147789 
L 329.019241 307.711923 
L 331.149906 308.856968 
L 333.280571 309.197691 
L 333.280571 309.197691 
" style="fill:none;stroke:#000000;stroke-linecap:square;stroke-width:2;"/>
   </g>
   <g id="line2d_13">
    <path clip-path="url(#p02be91526e)" d="M 62.467163 309.261005 
L 68.869502 309.201341 
L 75.271841 309.130962 
L 83.808292 309.274473 
L 113.685873 309.246318 
L 124.356438 309.015539 
L 130.758777 309.250629 
L 139.295228 309.267246 
L 143.563454 309.170445 
L 147.83168 308.904798 
L 149.965793 308.698725 
L 156.368132 307.77876 
L 158.502244 307.910776 
L 162.77047 308.510695 
L 164.904583 308.530184 
L 167.038696 308.231947 
L 171.306922 307.134452 
L 173.441035 306.938097 
L 177.709261 307.198635 
L 181.977486 307.03085 
L 184.111599 306.80305 
L 186.245712 306.331525 
L 190.513938 305.09884 
L 196.916277 304.151773 
L 199.05039 303.29465 
L 201.184503 301.944455 
L 205.452729 298.508189 
L 209.720954 295.44635 
L 211.855067 293.485585 
L 213.98918 291.02338 
L 216.123293 288.019207 
L 218.257406 284.151309 
L 222.525632 274.911503 
L 224.659745 271.910533 
L 226.793858 269.919665 
L 228.927971 267.057008 
L 231.062083 262.120277 
L 233.196196 255.000694 
L 235.330309 245.438521 
L 241.732648 210.146851 
L 243.866761 199.998839 
L 246.000874 189.097539 
L 250.2691 166.359329 
L 252.403213 155.675999 
L 254.537326 144.072555 
L 260.939664 103.697928 
L 263.073777 92.318913 
L 265.20789 78.350551 
L 269.476116 42.344254 
L 271.610229 28.787744 
L 273.744342 21.929457 
L 275.878455 21.118995 
L 278.012568 24.467256 
L 280.14668 29.478142 
L 282.280793 33.45826 
L 284.414906 36.580764 
L 286.549019 44.241181 
L 288.683132 61.434177 
L 292.951358 109.129984 
L 297.219584 153.001122 
L 299.353697 175.808516 
L 301.48781 196.99671 
L 303.621923 215.419956 
L 307.890148 248.898776 
L 310.024261 264.975082 
L 312.158374 278.915762 
L 314.292487 289.326556 
L 316.4266 295.567524 
L 318.560713 297.924379 
L 320.694826 298.072353 
L 322.828939 298.705315 
L 324.963052 301.314353 
L 327.097165 304.846329 
L 329.231277 307.504109 
L 331.36539 308.771319 
L 333.499503 309.174503 
L 333.499503 309.174503 
" style="fill:none;stroke:#000000;stroke-dasharray:7.4,3.2;stroke-dashoffset:0;stroke-width:2;"/>
   </g>
   <g id="line2d_14">
    <path clip-path="url(#p02be91526e)" d="M 60.45303 309.266499 
L 66.950525 309.18796 
L 73.44802 308.992113 
L 88.60884 309.145874 
L 110.267156 309.175853 
L 116.76465 309.167439 
L 125.427977 308.850412 
L 134.091303 308.885379 
L 140.588797 308.669789 
L 151.417955 307.900431 
L 157.91545 307.241224 
L 168.744607 306.832361 
L 177.407934 306.114558 
L 181.739597 305.422959 
L 183.905428 304.908595 
L 186.07126 304.074935 
L 188.237091 302.85596 
L 203.397912 292.545405 
L 205.563744 290.882476 
L 207.729575 289.075067 
L 209.895407 286.865916 
L 212.061238 283.965097 
L 214.22707 280.31488 
L 216.392901 276.038349 
L 220.724565 266.546346 
L 222.890396 262.539723 
L 225.056228 259.767783 
L 227.222059 257.607065 
L 229.387891 254.599214 
L 231.553722 249.633447 
L 233.719554 242.737081 
L 238.051217 227.151815 
L 240.217048 220.224971 
L 242.38288 213.786088 
L 244.548712 206.949629 
L 246.714543 199.16682 
L 253.212038 173.964596 
L 255.377869 164.867346 
L 261.875364 134.366549 
L 266.207027 116.064098 
L 268.372859 106.184191 
L 272.704522 85.148441 
L 274.870353 76.723133 
L 277.036185 70.646516 
L 279.202016 66.257596 
L 281.367848 63.086559 
L 283.533679 61.692075 
L 285.699511 63.118652 
L 287.865342 67.716576 
L 290.031174 74.738801 
L 292.197005 83.339997 
L 294.362837 93.640781 
L 296.528669 106.229147 
L 298.6945 121.046285 
L 300.860332 137.546388 
L 303.026163 155.564383 
L 305.191995 175.257619 
L 313.855321 258.801305 
L 316.021152 274.911687 
L 318.186984 286.711808 
L 320.352816 294.469104 
L 322.518647 299.498797 
L 324.684479 303.096649 
L 326.85031 305.807266 
L 329.016142 307.645634 
L 331.181973 308.656575 
L 333.347805 309.089712 
L 335.513636 309.232373 
L 335.513636 309.232373 
" style="fill:none;stroke:#000000;stroke-dasharray:2,3.3;stroke-dashoffset:0;stroke-width:2;"/>
   </g>
   <g id="patch_3">
    <path d="M 46.7 309.277725 
L 46.7 6.711059 
" style="fill:none;stroke:#000000;stroke-linecap:square;stroke-linejoin:miter;stroke-width:0.8;"/>
   </g>
   <g id="patch_4">
    <path d="M 46.7 309.277725 
L 349.266667 309.277725 
" style="fill:none;stroke:#000000;stroke-linecap:square;stroke-linejoin:miter;stroke-width:0.8;"/>
   </g>
  </g>
  <g id="axes_2">
   <g id="patch_5">
    <path d="M 403.066667 309.277725 
L 705.633333 309.277725 
L 705.633333 6.711059 
L 403.066667 6.711059 
z
" style="fill:#ffffff;"/>
   </g>
   <g id="matplotlib.axis_3">
    <g id="xtick_6">
     <g id="line2d_15">
      <g>
       <use style="stroke:#000000;stroke-width:1.6;" x="425.69306" xlink:href="#mf28afc3ddc" y="309.277725"/>
      </g>
     </g>
     <g id="text_12">
      <!-- −2 -->
      <g transform="translate(410.950873 339.1746)scale(0.2 -0.2)">
       <use xlink:href="#DejaVuSans-8722"/>
       <use x="83.789062" xlink:href="#DejaVuSans-50"/>
      </g>
     </g>
    </g>
    <g id="xtick_7">
     <g id="line2d_16">
      <g>
       <use style="stroke:#000000;stroke-width:1.6;" x="510.124177" xlink:href="#mf28afc3ddc" y="309.277725"/>
      </g>
     </g>
     <g id="text_13">
      <!-- −1 -->
      <g transform="translate(495.381989 339.1746)scale(0.2 -0.2)">
       <use xlink:href="#DejaVuSans-8722"/>
       <use x="83.789062" xlink:href="#DejaVuSans-49"/>
      </g>
     </g>
    </g>
    <g id="xtick_8">
     <g id="line2d_17">
      <g>
       <use style="stroke:#000000;stroke-width:1.6;" x="594.555294" xlink:href="#mf28afc3ddc" y="309.277725"/>
      </g>
     </g>
     <g id="text_14">
      <!-- 0 -->
      <g transform="translate(588.192794 339.1746)scale(0.2 -0.2)">
       <use xlink:href="#DejaVuSans-48"/>
      </g>
     </g>
    </g>
    <g id="xtick_9">
     <g id="line2d_18">
      <g>
       <use style="stroke:#000000;stroke-width:1.6;" x="678.986411" xlink:href="#mf28afc3ddc" y="309.277725"/>
      </g>
     </g>
     <g id="text_15">
      <!-- 1 -->
      <g transform="translate(672.623911 339.1746)scale(0.2 -0.2)">
       <use xlink:href="#DejaVuSans-49"/>
      </g>
     </g>
    </g>
   </g>
   <g id="matplotlib.axis_4">
    <g id="ytick_7">
     <g id="line2d_19">
      <g>
       <use style="stroke:#000000;stroke-width:1.6;" x="403.066667" xlink:href="#mbcefdb4b33" y="309.277725"/>
      </g>
     </g>
     <g id="text_16">
      <!-- 0.0 -->
      <g transform="translate(356.560417 316.876163)scale(0.2 -0.2)">
       <use xlink:href="#DejaVuSans-48"/>
       <use x="63.623047" xlink:href="#DejaVuSans-46"/>
       <use x="95.410156" xlink:href="#DejaVuSans-48"/>
      </g>
     </g>
    </g>
    <g id="ytick_8">
     <g id="line2d_20">
      <g>
       <use style="stroke:#000000;stroke-width:1.6;" x="403.066667" xlink:href="#mbcefdb4b33" y="238.25716"/>
      </g>
     </g>
     <g id="text_17">
      <!-- 0.5 -->
      <g transform="translate(356.560417 245.855598)scale(0.2 -0.2)">
       <use xlink:href="#DejaVuSans-48"/>
       <use x="63.623047" xlink:href="#DejaVuSans-46"/>
       <use x="95.410156" xlink:href="#DejaVuSans-53"/>
      </g>
     </g>
    </g>
    <g id="ytick_9">
     <g id="line2d_21">
      <g>
       <use style="stroke:#000000;stroke-width:1.6;" x="403.066667" xlink:href="#mbcefdb4b33" y="167.236595"/>
      </g>
     </g>
     <g id="text_18">
      <!-- 1.0 -->
      <g transform="translate(356.560417 174.835032)scale(0.2 -0.2)">
       <use xlink:href="#DejaVuSans-49"/>
       <use x="63.623047" xlink:href="#DejaVuSans-46"/>
       <use x="95.410156" xlink:href="#DejaVuSans-48"/>
      </g>
     </g>
    </g>
    <g id="ytick_10">
     <g id="line2d_22">
      <g>
       <use style="stroke:#000000;stroke-width:1.6;" x="403.066667" xlink:href="#mbcefdb4b33" y="96.21603"/>
      </g>
     </g>
     <g id="text_19">
      <!-- 1.5 -->
      <g transform="translate(356.560417 103.814467)scale(0.2 -0.2)">
       <use xlink:href="#DejaVuSans-49"/>
       <use x="63.623047" xlink:href="#DejaVuSans-46"/>
       <use x="95.410156" xlink:href="#DejaVuSans-53"/>
      </g>
     </g>
    </g>
    <g id="ytick_11">
     <g id="line2d_23">
      <g>
       <use style="stroke:#000000;stroke-width:1.6;" x="403.066667" xlink:href="#mbcefdb4b33" y="25.195465"/>
      </g>
     </g>
     <g id="text_20">
      <!-- 2.0 -->
      <g transform="translate(356.560417 32.793902)scale(0.2 -0.2)">
       <use xlink:href="#DejaVuSans-50"/>
       <use x="63.623047" xlink:href="#DejaVuSans-46"/>
       <use x="95.410156" xlink:href="#DejaVuSans-48"/>
      </g>
     </g>
    </g>
   </g>
   <g id="line2d_24">
    <path clip-path="url(#p4302962059)" d="M 0 0 
" style="fill:none;stroke:#000000;stroke-linecap:square;stroke-width:2;"/>
   </g>
   <g id="line2d_25">
    <path clip-path="url(#p4302962059)" d="M 0 0 
" style="fill:none;stroke:#000000;stroke-dasharray:7.4,3.2;stroke-dashoffset:0;stroke-width:2;"/>
   </g>
   <g id="patch_6">
    <path style="fill:none;stroke:#000000;stroke-linecap:square;stroke-linejoin:miter;stroke-width:0.8;"/>
   </g>
   <g id="patch_7">
    <path style="fill:none;stroke:#000000;stroke-linecap:square;stroke-linejoin:miter;stroke-width:0.8;"/>
   </g>
  </g>
 </g>
 <defs>
  <clipPath id="p02be91526e">
   <rect height="302.566667" width="302.566667" x="46.7" y="6.711059"/>
  </clipPath>
  <clipPath id="p4302962059">
   <rect height="302.566667" width="302.566667" x="403.066667" y="6.711059"/>
  </clipPath>
 </defs>
</svg>
