<?xml version="1.0" encoding="utf-8" standalone="no"?>
<!DOCTYPE svg PUBLIC "-//W3C//DTD SVG 1.1//EN"
  "http://www.w3.org/Graphics/SVG/1.1/DTD/svg11.dtd">
<!-- Created with matplotlib (https://matplotlib.org/) -->
<svg height="336.061667pt" version="1.1" viewBox="0 0 329.936667 336.061667" width="329.936667pt" xmlns="http://www.w3.org/2000/svg" xmlns:xlink="http://www.w3.org/1999/xlink">
 <defs>
  <style type="text/css">
*{stroke-linecap:butt;stroke-linejoin:round;}
  </style>
 </defs>
 <g id="figure_1">
  <g id="patch_1">
   <path d="M 0 336.061667 
L 329.936667 336.061667 
L 329.936667 0 
L 0 0 
z
" style="fill:#ffffff;"/>
  </g>
  <g id="axes_1">
   <g id="patch_2">
    <path d="M 27.575 302.361667 
L 326.436667 302.361667 
L 326.436667 3.5 
L 27.575 3.5 
z
" style="fill:#ffffff;"/>
   </g>
   <g id="matplotlib.axis_1">
    <g id="xtick_1">
     <g id="line2d_1">
      <defs>
       <path d="M 0 0 
L 0 3.5 
" id="m8bd39fcb8e" style="stroke:#000000;stroke-width:1.6;"/>
      </defs>
      <g>
       <use style="stroke:#000000;stroke-width:1.6;" x="42.03407" xlink:href="#m8bd39fcb8e" y="302.361667"/>
      </g>
     </g>
     <g id="text_1">
      <!-- −1 -->
      <defs>
       <path d="M 10.59375 35.5 
L 73.1875 35.5 
L 73.1875 27.203125 
L 10.59375 27.203125 
z
" id="DejaVuSans-8722"/>
       <path d="M 12.40625 8.296875 
L 28.515625 8.296875 
L 28.515625 63.921875 
L 10.984375 60.40625 
L 10.984375 69.390625 
L 28.421875 72.90625 
L 38.28125 72.90625 
L 38.28125 8.296875 
L 54.390625 8.296875 
L 54.390625 0 
L 12.40625 0 
z
" id="DejaVuSans-49"/>
      </defs>
      <g transform="translate(27.291882 332.258542)scale(0.2 -0.2)">
       <use xlink:href="#DejaVuSans-8722"/>
       <use x="83.789062" xlink:href="#DejaVuSans-49"/>
      </g>
     </g>
    </g>
    <g id="xtick_2">
     <g id="line2d_2">
      <g>
       <use style="stroke:#000000;stroke-width:1.6;" x="171.713199" xlink:href="#m8bd39fcb8e" y="302.361667"/>
      </g>
     </g>
     <g id="text_2">
      <!-- 0 -->
      <defs>
       <path d="M 31.78125 66.40625 
Q 24.171875 66.40625 20.328125 58.90625 
Q 16.5 51.421875 16.5 36.375 
Q 16.5 21.390625 20.328125 13.890625 
Q 24.171875 6.390625 31.78125 6.390625 
Q 39.453125 6.390625 43.28125 13.890625 
Q 47.125 21.390625 47.125 36.375 
Q 47.125 51.421875 43.28125 58.90625 
Q 39.453125 66.40625 31.78125 66.40625 
z
M 31.78125 74.21875 
Q 44.046875 74.21875 50.515625 64.515625 
Q 56.984375 54.828125 56.984375 36.375 
Q 56.984375 17.96875 50.515625 8.265625 
Q 44.046875 -1.421875 31.78125 -1.421875 
Q 19.53125 -1.421875 13.0625 8.265625 
Q 6.59375 17.96875 6.59375 36.375 
Q 6.59375 54.828125 13.0625 64.515625 
Q 19.53125 74.21875 31.78125 74.21875 
z
" id="DejaVuSans-48"/>
      </defs>
      <g transform="translate(165.350699 332.258542)scale(0.2 -0.2)">
       <use xlink:href="#DejaVuSans-48"/>
      </g>
     </g>
    </g>
    <g id="xtick_3">
     <g id="line2d_3">
      <g>
       <use style="stroke:#000000;stroke-width:1.6;" x="301.392327" xlink:href="#m8bd39fcb8e" y="302.361667"/>
      </g>
     </g>
     <g id="text_3">
      <!-- 1 -->
      <g transform="translate(295.029827 332.258542)scale(0.2 -0.2)">
       <use xlink:href="#DejaVuSans-49"/>
      </g>
     </g>
    </g>
   </g>
   <g id="matplotlib.axis_2">
    <g id="ytick_1">
     <g id="line2d_4">
      <defs>
       <path d="M 0 0 
L -3.5 0 
" id="maadf6b056d" style="stroke:#000000;stroke-width:1.6;"/>
      </defs>
      <g>
       <use style="stroke:#000000;stroke-width:1.6;" x="27.575" xlink:href="#maadf6b056d" y="302.361667"/>
      </g>
     </g>
     <g id="text_4">
      <!-- 0 -->
      <g transform="translate(0.15 309.960104)scale(0.2 -0.2)">
       <use xlink:href="#DejaVuSans-48"/>
      </g>
     </g>
    </g>
    <g id="ytick_2">
     <g id="line2d_5">
      <g>
       <use style="stroke:#000000;stroke-width:1.6;" x="27.575" xlink:href="#maadf6b056d" y="220.507515"/>
      </g>
     </g>
     <g id="text_5">
      <!-- 1 -->
      <g transform="translate(0.15 228.105953)scale(0.2 -0.2)">
       <use xlink:href="#DejaVuSans-49"/>
      </g>
     </g>
    </g>
    <g id="ytick_3">
     <g id="line2d_6">
      <g>
       <use style="stroke:#000000;stroke-width:1.6;" x="27.575" xlink:href="#maadf6b056d" y="138.653364"/>
      </g>
     </g>
     <g id="text_6">
      <!-- 2 -->
      <defs>
       <path d="M 19.1875 8.296875 
L 53.609375 8.296875 
L 53.609375 0 
L 7.328125 0 
L 7.328125 8.296875 
Q 12.9375 14.109375 22.625 23.890625 
Q 32.328125 33.6875 34.8125 36.53125 
Q 39.546875 41.84375 41.421875 45.53125 
Q 43.3125 49.21875 43.3125 52.78125 
Q 43.3125 58.59375 39.234375 62.25 
Q 35.15625 65.921875 28.609375 65.921875 
Q 23.96875 65.921875 18.8125 64.3125 
Q 13.671875 62.703125 7.8125 59.421875 
L 7.8125 69.390625 
Q 13.765625 71.78125 18.9375 73 
Q 24.125 74.21875 28.421875 74.21875 
Q 39.75 74.21875 46.484375 68.546875 
Q 53.21875 62.890625 53.21875 53.421875 
Q 53.21875 48.921875 51.53125 44.890625 
Q 49.859375 40.875 45.40625 35.40625 
Q 44.1875 33.984375 37.640625 27.21875 
Q 31.109375 20.453125 19.1875 8.296875 
z
" id="DejaVuSans-50"/>
      </defs>
      <g transform="translate(0.15 146.251802)scale(0.2 -0.2)">
       <use xlink:href="#DejaVuSans-50"/>
      </g>
     </g>
    </g>
    <g id="ytick_4">
     <g id="line2d_7">
      <g>
       <use style="stroke:#000000;stroke-width:1.6;" x="27.575" xlink:href="#maadf6b056d" y="56.799213"/>
      </g>
     </g>
     <g id="text_7">
      <!-- 3 -->
      <defs>
       <path d="M 40.578125 39.3125 
Q 47.65625 37.796875 51.625 33 
Q 55.609375 28.21875 55.609375 21.1875 
Q 55.609375 10.40625 48.1875 4.484375 
Q 40.765625 -1.421875 27.09375 -1.421875 
Q 22.515625 -1.421875 17.65625 -0.515625 
Q 12.796875 0.390625 7.625 2.203125 
L 7.625 11.71875 
Q 11.71875 9.328125 16.59375 8.109375 
Q 21.484375 6.890625 26.8125 6.890625 
Q 36.078125 6.890625 40.9375 10.546875 
Q 45.796875 14.203125 45.796875 21.1875 
Q 45.796875 27.640625 41.28125 31.265625 
Q 36.765625 34.90625 28.71875 34.90625 
L 20.21875 34.90625 
L 20.21875 43.015625 
L 29.109375 43.015625 
Q 36.375 43.015625 40.234375 45.921875 
Q 44.09375 48.828125 44.09375 54.296875 
Q 44.09375 59.90625 40.109375 62.90625 
Q 36.140625 65.921875 28.71875 65.921875 
Q 24.65625 65.921875 20.015625 65.03125 
Q 15.375 64.15625 9.8125 62.3125 
L 9.8125 71.09375 
Q 15.4375 72.65625 20.34375 73.4375 
Q 25.25 74.21875 29.59375 74.21875 
Q 40.828125 74.21875 47.359375 69.109375 
Q 53.90625 64.015625 53.90625 55.328125 
Q 53.90625 49.265625 50.4375 45.09375 
Q 46.96875 40.921875 40.578125 39.3125 
z
" id="DejaVuSans-51"/>
      </defs>
      <g transform="translate(0.15 64.39765)scale(0.2 -0.2)">
       <use xlink:href="#DejaVuSans-51"/>
      </g>
     </g>
    </g>
   </g>
   <g id="line2d_8">
    <path clip-path="url(#p75efbf7b05)" d="M 41.796885 302.354491 
L 49.747197 302.250848 
L 59.685086 301.945005 
L 65.64782 302.126819 
L 71.610553 302.300913 
L 75.585709 302.268229 
L 79.560865 302.017966 
L 83.536021 301.434796 
L 89.498754 300.368674 
L 91.486332 300.19251 
L 97.449066 300.046607 
L 99.436644 299.798822 
L 101.424222 299.311657 
L 103.411799 298.586601 
L 113.349689 294.020769 
L 115.337267 292.992916 
L 117.324845 291.650923 
L 119.312423 289.871586 
L 121.3 287.648808 
L 133.225468 272.566772 
L 135.213046 269.536696 
L 137.200623 265.901752 
L 139.188201 261.64395 
L 141.175779 256.863411 
L 145.150935 246.305784 
L 147.138513 240.655069 
L 149.126091 234.614153 
L 151.113669 227.884977 
L 153.101247 220.09038 
L 155.088824 210.941588 
L 157.076402 200.462089 
L 161.051558 177.860924 
L 163.039136 167.590967 
L 165.026714 158.98166 
L 167.014292 152.144825 
L 169.00187 146.736406 
L 170.989447 142.261225 
L 172.977025 138.380562 
L 174.964603 135.055814 
L 176.952181 132.508882 
L 178.939759 131.079481 
L 180.927337 131.062059 
L 182.914915 132.569401 
L 184.902493 135.458688 
L 186.890071 139.359531 
L 190.865226 148.493117 
L 192.852804 153.339182 
L 194.840382 158.615946 
L 196.82796 164.756133 
L 198.815538 172.112522 
L 200.803116 180.725365 
L 208.753427 218.306282 
L 210.741005 226.348235 
L 214.716161 240.95872 
L 216.703739 247.785278 
L 218.691317 254.1975 
L 220.678895 260.002509 
L 222.666472 265.062618 
L 224.65405 269.376843 
L 226.641628 273.071764 
L 228.629206 276.328816 
L 232.604362 282.102495 
L 236.579518 287.265578 
L 238.567095 289.612083 
L 240.554673 291.753078 
L 242.542251 293.637207 
L 244.529829 295.225088 
L 246.517407 296.512516 
L 248.504985 297.534994 
L 250.492563 298.34708 
L 252.480141 298.992192 
L 254.467719 299.487106 
L 256.455296 299.832276 
L 260.430452 300.136075 
L 268.380764 300.415067 
L 274.343497 300.842343 
L 280.306231 301.575185 
L 284.281387 302.029223 
L 288.256543 302.267155 
L 294.219276 302.353361 
L 294.219276 302.353361 
" style="fill:none;stroke:#000000;stroke-linecap:square;stroke-width:2;"/>
   </g>
   <g id="line2d_9">
    <path clip-path="url(#p75efbf7b05)" d="M 41.159621 302.355083 
L 49.020412 302.264781 
L 60.811599 301.948918 
L 66.707193 301.958291 
L 70.637588 301.729876 
L 76.533182 301.190417 
L 80.463577 301.128195 
L 84.393973 301.199032 
L 86.359171 301.12906 
L 88.324369 300.926317 
L 92.254764 300.139579 
L 96.18516 299.032561 
L 100.115555 297.625069 
L 102.080753 296.741278 
L 106.011149 294.638402 
L 107.976347 293.562424 
L 109.941544 292.621618 
L 111.906742 291.92214 
L 113.87194 291.50927 
L 119.767533 291.019165 
L 121.732731 290.493501 
L 123.697929 289.564864 
L 125.663127 288.24308 
L 127.628325 286.587613 
L 129.593522 284.617451 
L 131.55872 282.250665 
L 133.523918 279.320801 
L 135.489116 275.661908 
L 137.454314 271.20424 
L 139.419511 266.016253 
L 141.384709 260.266987 
L 145.315105 247.720439 
L 149.2455 233.912114 
L 151.210698 226.334244 
L 155.141094 209.843623 
L 159.071489 192.94377 
L 161.036687 184.999673 
L 163.001885 177.560999 
L 166.932281 163.932599 
L 168.897478 157.626905 
L 170.862676 151.800904 
L 172.827874 146.715573 
L 174.793072 142.625881 
L 176.75827 139.67402 
L 178.723468 137.86568 
L 180.688665 137.127912 
L 182.653863 137.393819 
L 184.619061 138.65239 
L 186.584259 140.931107 
L 188.549457 144.222822 
L 190.514654 148.407499 
L 192.479852 153.232177 
L 198.375446 168.881241 
L 200.340643 174.330576 
L 202.305841 180.223152 
L 204.271039 186.758045 
L 206.236237 193.948488 
L 212.13183 217.331126 
L 219.992621 248.047321 
L 221.957819 255.405302 
L 223.923017 262.313866 
L 225.888215 268.561643 
L 227.853413 273.995872 
L 229.81861 278.548704 
L 231.783808 282.240617 
L 233.749006 285.164617 
L 235.714204 287.454091 
L 237.679402 289.245387 
L 239.644599 290.653534 
L 241.609797 291.772288 
L 245.540193 293.503126 
L 249.470588 295.159701 
L 257.33138 298.9156 
L 259.296577 299.647074 
L 261.261775 300.205316 
L 263.226973 300.599029 
L 267.157369 301.057162 
L 282.878951 302.248221 
L 290.739742 302.354924 
L 290.739742 302.354924 
" style="fill:none;stroke:#000000;stroke-dasharray:7.4,3.2;stroke-dashoffset:0;stroke-width:2;"/>
   </g>
   <g id="line2d_10">
    <path clip-path="url(#p75efbf7b05)" d="M 168.898756 302.282916 
L 171.165737 302.284829 
L 173.432718 302.109367 
L 175.699698 301.699945 
L 182.500641 300.060861 
L 184.767622 299.642712 
L 189.301584 298.545876 
L 190.435075 298.512926 
L 191.568565 298.666802 
L 193.835546 299.384322 
L 196.102527 300.162909 
L 197.236017 300.426069 
L 198.369508 300.574457 
L 200.636489 300.535434 
L 201.769979 300.35624 
L 202.90347 300.062202 
L 204.03696 299.631726 
L 205.170451 299.03439 
L 206.303941 298.239676 
L 207.437432 297.228387 
L 208.570922 296.003322 
L 210.837903 293.067919 
L 213.104884 289.993825 
L 214.238374 288.620224 
L 215.371865 287.428803 
L 217.638846 285.543845 
L 219.905827 283.81697 
L 221.039317 282.730744 
L 222.172808 281.346288 
L 223.306298 279.593425 
L 224.439789 277.466972 
L 226.70677 272.445425 
L 230.107241 264.890648 
L 231.240732 262.401313 
L 232.374222 259.587653 
L 233.507712 256.131926 
L 234.641203 251.763844 
L 235.774693 246.35651 
L 236.908184 239.983759 
L 241.442146 211.640801 
L 243.709127 200.043824 
L 245.976108 189.470406 
L 248.243089 177.536718 
L 255.044031 137.47568 
L 256.177522 129.583674 
L 257.311012 120.168568 
L 258.444503 108.917557 
L 260.711484 81.801151 
L 262.978465 54.085799 
L 264.111955 42.539154 
L 265.245446 33.369317 
L 266.378936 26.621977 
L 267.512427 21.994029 
L 268.645917 19.09842 
L 269.779408 17.731194 
L 270.912898 18.011108 
L 272.046388 20.333762 
L 273.179879 25.180983 
L 274.313369 32.893309 
L 275.44686 43.514245 
L 276.58035 56.761219 
L 278.847331 88.957579 
L 282.247803 143.527224 
L 284.514784 179.818774 
L 286.781765 212.02672 
L 287.915255 225.358922 
L 289.048746 236.547732 
L 290.182236 245.744697 
L 291.315727 253.31265 
L 292.449217 259.655595 
L 293.582707 265.06347 
L 294.716198 269.647654 
L 295.849688 273.390908 
L 296.983179 276.27516 
L 298.116669 278.410353 
L 300.38365 281.710481 
L 301.517141 283.6604 
L 302.650631 286.130373 
L 307.184593 297.605685 
L 308.318084 299.48402 
L 309.451574 300.760314 
L 310.585065 301.542676 
L 311.718555 301.975858 
L 312.852045 302.191159 
L 312.852045 302.191159 
" style="fill:none;stroke:#000000;stroke-dasharray:2,3.3;stroke-dashoffset:0;stroke-width:2;"/>
   </g>
   <g id="patch_3">
    <path d="M 27.575 302.361667 
L 27.575 3.5 
" style="fill:none;stroke:#000000;stroke-linecap:square;stroke-linejoin:miter;stroke-width:0.8;"/>
   </g>
   <g id="patch_4">
    <path d="M 27.575 302.361667 
L 326.436667 302.361667 
" style="fill:none;stroke:#000000;stroke-linecap:square;stroke-linejoin:miter;stroke-width:0.8;"/>
   </g>
  </g>
  <g id="axes_2">
   <g id="patch_5">
    <path d="M 387.796667 302.361667 
L 686.658333 302.361667 
L 686.658333 3.5 
L 387.796667 3.5 
z
" style="fill:#ffffff;"/>
   </g>
   <g id="matplotlib.axis_3">
    <g id="xtick_4">
     <g id="line2d_11">
      <g>
       <use style="stroke:#000000;stroke-width:1.6;" x="479.946228" xlink:href="#m8bd39fcb8e" y="302.361667"/>
      </g>
     </g>
     <g id="text_8">
      <!-- 0 -->
      <g transform="translate(473.583728 332.258542)scale(0.2 -0.2)">
       <use xlink:href="#DejaVuSans-48"/>
      </g>
     </g>
    </g>
    <g id="xtick_5">
     <g id="line2d_12">
      <g>
       <use style="stroke:#000000;stroke-width:1.6;" x="574.984686" xlink:href="#m8bd39fcb8e" y="302.361667"/>
      </g>
     </g>
     <g id="text_9">
      <!-- 1 -->
      <g transform="translate(568.622186 332.258542)scale(0.2 -0.2)">
       <use xlink:href="#DejaVuSans-49"/>
      </g>
     </g>
    </g>
    <g id="xtick_6">
     <g id="line2d_13">
      <g>
       <use style="stroke:#000000;stroke-width:1.6;" x="670.023143" xlink:href="#m8bd39fcb8e" y="302.361667"/>
      </g>
     </g>
     <g id="text_10">
      <!-- 2 -->
      <g transform="translate(663.660643 332.258542)scale(0.2 -0.2)">
       <use xlink:href="#DejaVuSans-50"/>
      </g>
     </g>
    </g>
   </g>
   <g id="matplotlib.axis_4">
    <g id="ytick_5">
     <g id="line2d_14">
      <g>
       <use style="stroke:#000000;stroke-width:1.6;" x="387.796667" xlink:href="#maadf6b056d" y="302.361667"/>
      </g>
     </g>
     <g id="text_11">
      <!-- 0.0 -->
      <defs>
       <path d="M 10.6875 12.40625 
L 21 12.40625 
L 21 0 
L 10.6875 0 
z
" id="DejaVuSans-46"/>
      </defs>
      <g transform="translate(341.290417 309.960104)scale(0.2 -0.2)">
       <use xlink:href="#DejaVuSans-48"/>
       <use x="63.623047" xlink:href="#DejaVuSans-46"/>
       <use x="95.410156" xlink:href="#DejaVuSans-48"/>
      </g>
     </g>
    </g>
    <g id="ytick_6">
     <g id="line2d_15">
      <g>
       <use style="stroke:#000000;stroke-width:1.6;" x="387.796667" xlink:href="#maadf6b056d" y="221.206111"/>
      </g>
     </g>
     <g id="text_12">
      <!-- 0.5 -->
      <defs>
       <path d="M 10.796875 72.90625 
L 49.515625 72.90625 
L 49.515625 64.59375 
L 19.828125 64.59375 
L 19.828125 46.734375 
Q 21.96875 47.46875 24.109375 47.828125 
Q 26.265625 48.1875 28.421875 48.1875 
Q 40.625 48.1875 47.75 41.5 
Q 54.890625 34.8125 54.890625 23.390625 
Q 54.890625 11.625 47.5625 5.09375 
Q 40.234375 -1.421875 26.90625 -1.421875 
Q 22.3125 -1.421875 17.546875 -0.640625 
Q 12.796875 0.140625 7.71875 1.703125 
L 7.71875 11.625 
Q 12.109375 9.234375 16.796875 8.0625 
Q 21.484375 6.890625 26.703125 6.890625 
Q 35.15625 6.890625 40.078125 11.328125 
Q 45.015625 15.765625 45.015625 23.390625 
Q 45.015625 31 40.078125 35.4375 
Q 35.15625 39.890625 26.703125 39.890625 
Q 22.75 39.890625 18.8125 39.015625 
Q 14.890625 38.140625 10.796875 36.28125 
z
" id="DejaVuSans-53"/>
      </defs>
      <g transform="translate(341.290417 228.804549)scale(0.2 -0.2)">
       <use xlink:href="#DejaVuSans-48"/>
       <use x="63.623047" xlink:href="#DejaVuSans-46"/>
       <use x="95.410156" xlink:href="#DejaVuSans-53"/>
      </g>
     </g>
    </g>
    <g id="ytick_7">
     <g id="line2d_16">
      <g>
       <use style="stroke:#000000;stroke-width:1.6;" x="387.796667" xlink:href="#maadf6b056d" y="140.050556"/>
      </g>
     </g>
     <g id="text_13">
      <!-- 1.0 -->
      <g transform="translate(341.290417 147.648994)scale(0.2 -0.2)">
       <use xlink:href="#DejaVuSans-49"/>
       <use x="63.623047" xlink:href="#DejaVuSans-46"/>
       <use x="95.410156" xlink:href="#DejaVuSans-48"/>
      </g>
     </g>
    </g>
    <g id="ytick_8">
     <g id="line2d_17">
      <g>
       <use style="stroke:#000000;stroke-width:1.6;" x="387.796667" xlink:href="#maadf6b056d" y="58.895001"/>
      </g>
     </g>
     <g id="text_14">
      <!-- 1.5 -->
      <g transform="translate(341.290417 66.493438)scale(0.2 -0.2)">
       <use xlink:href="#DejaVuSans-49"/>
       <use x="63.623047" xlink:href="#DejaVuSans-46"/>
       <use x="95.410156" xlink:href="#DejaVuSans-53"/>
      </g>
     </g>
    </g>
   </g>
   <g id="line2d_18">
    <path clip-path="url(#pda4ffc3bce)" d="M 0 0 
" style="fill:none;stroke:#000000;stroke-linecap:square;stroke-width:2;"/>
   </g>
   <g id="line2d_19">
    <path clip-path="url(#pda4ffc3bce)" d="M 0 0 
" style="fill:none;stroke:#000000;stroke-dasharray:7.4,3.2;stroke-dashoffset:0;stroke-width:2;"/>
   </g>
   <g id="patch_6">
    <path style="fill:none;stroke:#000000;stroke-linecap:square;stroke-linejoin:miter;stroke-width:0.8;"/>
   </g>
   <g id="patch_7">
    <path style="fill:none;stroke:#000000;stroke-linecap:square;stroke-linejoin:miter;stroke-width:0.8;"/>
   </g>
  </g>
 </g>
 <defs>
  <clipPath id="p75efbf7b05">
   <rect height="298.861667" width="298.861667" x="27.575" y="3.5"/>
  </clipPath>
  <clipPath id="pda4ffc3bce">
   <rect height="298.861667" width="298.861667" x="387.796667" y="3.5"/>
  </clipPath>
 </defs>
</svg>
