<?xml version="1.0" encoding="utf-8" standalone="no"?>
<!DOCTYPE svg PUBLIC "-//W3C//DTD SVG 1.1//EN"
  "http://www.w3.org/Graphics/SVG/1.1/DTD/svg11.dtd">
<!-- Created with matplotlib (https://matplotlib.org/) -->
<svg height="330.345638pt" version="1.1" viewBox="0 0 342.686667 330.345638" width="342.686667pt" xmlns="http://www.w3.org/2000/svg" xmlns:xlink="http://www.w3.org/1999/xlink">
 <defs>
  <style type="text/css">
*{stroke-linecap:butt;stroke-linejoin:round;}
  </style>
 </defs>
 <g id="figure_1">
  <g id="patch_1">
   <path d="M 0 330.345638 
L 342.686667 330.345638 
L 342.686667 0 
L 0 0 
z
" style="fill:#ffffff;"/>
  </g>
  <g id="axes_1">
   <g id="patch_2">
    <path d="M 46.7 296.645638 
L 339.186667 296.645638 
L 339.186667 4.158971 
L 46.7 4.158971 
z
" style="fill:#ffffff;"/>
   </g>
   <g id="matplotlib.axis_1">
    <g id="xtick_1">
     <g id="line2d_1">
      <defs>
       <path d="M 0 0 
L 0 3.5 
" id="m4785a0f5ae" style="stroke:#000000;stroke-width:1.6;"/>
      </defs>
      <g>
       <use style="stroke:#000000;stroke-width:1.6;" x="52.458832" xlink:href="#m4785a0f5ae" y="296.645638"/>
      </g>
     </g>
     <g id="text_1">
      <!-- −1 -->
      <defs>
       <path d="M 10.59375 35.5 
L 73.1875 35.5 
L 73.1875 27.203125 
L 10.59375 27.203125 
z
" id="DejaVuSans-8722"/>
       <path d="M 12.40625 8.296875 
L 28.515625 8.296875 
L 28.515625 63.921875 
L 10.984375 60.40625 
L 10.984375 69.390625 
L 28.421875 72.90625 
L 38.28125 72.90625 
L 38.28125 8.296875 
L 54.390625 8.296875 
L 54.390625 0 
L 12.40625 0 
z
" id="DejaVuSans-49"/>
      </defs>
      <g transform="translate(37.716645 326.542513)scale(0.2 -0.2)">
       <use xlink:href="#DejaVuSans-8722"/>
       <use x="83.789062" xlink:href="#DejaVuSans-49"/>
      </g>
     </g>
    </g>
    <g id="xtick_2">
     <g id="line2d_2">
      <g>
       <use style="stroke:#000000;stroke-width:1.6;" x="181.298729" xlink:href="#m4785a0f5ae" y="296.645638"/>
      </g>
     </g>
     <g id="text_2">
      <!-- 0 -->
      <defs>
       <path d="M 31.78125 66.40625 
Q 24.171875 66.40625 20.328125 58.90625 
Q 16.5 51.421875 16.5 36.375 
Q 16.5 21.390625 20.328125 13.890625 
Q 24.171875 6.390625 31.78125 6.390625 
Q 39.453125 6.390625 43.28125 13.890625 
Q 47.125 21.390625 47.125 36.375 
Q 47.125 51.421875 43.28125 58.90625 
Q 39.453125 66.40625 31.78125 66.40625 
z
M 31.78125 74.21875 
Q 44.046875 74.21875 50.515625 64.515625 
Q 56.984375 54.828125 56.984375 36.375 
Q 56.984375 17.96875 50.515625 8.265625 
Q 44.046875 -1.421875 31.78125 -1.421875 
Q 19.53125 -1.421875 13.0625 8.265625 
Q 6.59375 17.96875 6.59375 36.375 
Q 6.59375 54.828125 13.0625 64.515625 
Q 19.53125 74.21875 31.78125 74.21875 
z
" id="DejaVuSans-48"/>
      </defs>
      <g transform="translate(174.936229 326.542513)scale(0.2 -0.2)">
       <use xlink:href="#DejaVuSans-48"/>
      </g>
     </g>
    </g>
    <g id="xtick_3">
     <g id="line2d_3">
      <g>
       <use style="stroke:#000000;stroke-width:1.6;" x="310.138625" xlink:href="#m4785a0f5ae" y="296.645638"/>
      </g>
     </g>
     <g id="text_3">
      <!-- 1 -->
      <g transform="translate(303.776125 326.542513)scale(0.2 -0.2)">
       <use xlink:href="#DejaVuSans-49"/>
      </g>
     </g>
    </g>
   </g>
   <g id="matplotlib.axis_2">
    <g id="ytick_1">
     <g id="line2d_4">
      <defs>
       <path d="M 0 0 
L -3.5 0 
" id="mfc66f39ef8" style="stroke:#000000;stroke-width:1.6;"/>
      </defs>
      <g>
       <use style="stroke:#000000;stroke-width:1.6;" x="46.7" xlink:href="#mfc66f39ef8" y="296.645638"/>
      </g>
     </g>
     <g id="text_4">
      <!-- 0.0 -->
      <defs>
       <path d="M 10.6875 12.40625 
L 21 12.40625 
L 21 0 
L 10.6875 0 
z
" id="DejaVuSans-46"/>
      </defs>
      <g transform="translate(0.19375 304.244075)scale(0.2 -0.2)">
       <use xlink:href="#DejaVuSans-48"/>
       <use x="63.623047" xlink:href="#DejaVuSans-46"/>
       <use x="95.410156" xlink:href="#DejaVuSans-48"/>
      </g>
     </g>
    </g>
    <g id="ytick_2">
     <g id="line2d_5">
      <g>
       <use style="stroke:#000000;stroke-width:1.6;" x="46.7" xlink:href="#mfc66f39ef8" y="238.81651"/>
      </g>
     </g>
     <g id="text_5">
      <!-- 0.5 -->
      <defs>
       <path d="M 10.796875 72.90625 
L 49.515625 72.90625 
L 49.515625 64.59375 
L 19.828125 64.59375 
L 19.828125 46.734375 
Q 21.96875 47.46875 24.109375 47.828125 
Q 26.265625 48.1875 28.421875 48.1875 
Q 40.625 48.1875 47.75 41.5 
Q 54.890625 34.8125 54.890625 23.390625 
Q 54.890625 11.625 47.5625 5.09375 
Q 40.234375 -1.421875 26.90625 -1.421875 
Q 22.3125 -1.421875 17.546875 -0.640625 
Q 12.796875 0.140625 7.71875 1.703125 
L 7.71875 11.625 
Q 12.109375 9.234375 16.796875 8.0625 
Q 21.484375 6.890625 26.703125 6.890625 
Q 35.15625 6.890625 40.078125 11.328125 
Q 45.015625 15.765625 45.015625 23.390625 
Q 45.015625 31 40.078125 35.4375 
Q 35.15625 39.890625 26.703125 39.890625 
Q 22.75 39.890625 18.8125 39.015625 
Q 14.890625 38.140625 10.796875 36.28125 
z
" id="DejaVuSans-53"/>
      </defs>
      <g transform="translate(0.19375 246.414948)scale(0.2 -0.2)">
       <use xlink:href="#DejaVuSans-48"/>
       <use x="63.623047" xlink:href="#DejaVuSans-46"/>
       <use x="95.410156" xlink:href="#DejaVuSans-53"/>
      </g>
     </g>
    </g>
    <g id="ytick_3">
     <g id="line2d_6">
      <g>
       <use style="stroke:#000000;stroke-width:1.6;" x="46.7" xlink:href="#mfc66f39ef8" y="180.987383"/>
      </g>
     </g>
     <g id="text_6">
      <!-- 1.0 -->
      <g transform="translate(0.19375 188.58582)scale(0.2 -0.2)">
       <use xlink:href="#DejaVuSans-49"/>
       <use x="63.623047" xlink:href="#DejaVuSans-46"/>
       <use x="95.410156" xlink:href="#DejaVuSans-48"/>
      </g>
     </g>
    </g>
    <g id="ytick_4">
     <g id="line2d_7">
      <g>
       <use style="stroke:#000000;stroke-width:1.6;" x="46.7" xlink:href="#mfc66f39ef8" y="123.158255"/>
      </g>
     </g>
     <g id="text_7">
      <!-- 1.5 -->
      <g transform="translate(0.19375 130.756693)scale(0.2 -0.2)">
       <use xlink:href="#DejaVuSans-49"/>
       <use x="63.623047" xlink:href="#DejaVuSans-46"/>
       <use x="95.410156" xlink:href="#DejaVuSans-53"/>
      </g>
     </g>
    </g>
    <g id="ytick_5">
     <g id="line2d_8">
      <g>
       <use style="stroke:#000000;stroke-width:1.6;" x="46.7" xlink:href="#mfc66f39ef8" y="65.329128"/>
      </g>
     </g>
     <g id="text_8">
      <!-- 2.0 -->
      <defs>
       <path d="M 19.1875 8.296875 
L 53.609375 8.296875 
L 53.609375 0 
L 7.328125 0 
L 7.328125 8.296875 
Q 12.9375 14.109375 22.625 23.890625 
Q 32.328125 33.6875 34.8125 36.53125 
Q 39.546875 41.84375 41.421875 45.53125 
Q 43.3125 49.21875 43.3125 52.78125 
Q 43.3125 58.59375 39.234375 62.25 
Q 35.15625 65.921875 28.609375 65.921875 
Q 23.96875 65.921875 18.8125 64.3125 
Q 13.671875 62.703125 7.8125 59.421875 
L 7.8125 69.390625 
Q 13.765625 71.78125 18.9375 73 
Q 24.125 74.21875 28.421875 74.21875 
Q 39.75 74.21875 46.484375 68.546875 
Q 53.21875 62.890625 53.21875 53.421875 
Q 53.21875 48.921875 51.53125 44.890625 
Q 49.859375 40.875 45.40625 35.40625 
Q 44.1875 33.984375 37.640625 27.21875 
Q 31.109375 20.453125 19.1875 8.296875 
z
" id="DejaVuSans-50"/>
      </defs>
      <g transform="translate(0.19375 72.927565)scale(0.2 -0.2)">
       <use xlink:href="#DejaVuSans-50"/>
       <use x="63.623047" xlink:href="#DejaVuSans-46"/>
       <use x="95.410156" xlink:href="#DejaVuSans-48"/>
      </g>
     </g>
    </g>
    <g id="ytick_6">
     <g id="line2d_9">
      <g>
       <use style="stroke:#000000;stroke-width:1.6;" x="46.7" xlink:href="#mfc66f39ef8" y="7.5"/>
      </g>
     </g>
     <g id="text_9">
      <!-- 2.5 -->
      <g transform="translate(0.19375 15.098438)scale(0.2 -0.2)">
       <use xlink:href="#DejaVuSans-50"/>
       <use x="63.623047" xlink:href="#DejaVuSans-46"/>
       <use x="95.410156" xlink:href="#DejaVuSans-53"/>
      </g>
     </g>
    </g>
   </g>
   <g id="line2d_10">
    <path clip-path="url(#p96e7a21312)" d="M 59.994848 296.639872 
L 66.248977 296.534399 
L 70.418395 296.222328 
L 74.587814 295.795935 
L 76.672523 295.679873 
L 80.841942 295.792126 
L 91.265489 296.554175 
L 97.519617 296.631 
L 103.773745 296.520731 
L 110.027873 296.34709 
L 120.451419 296.344537 
L 126.705548 295.843865 
L 128.790257 295.605489 
L 130.874966 295.226102 
L 132.959676 294.636405 
L 143.383222 290.670838 
L 145.467932 289.778076 
L 147.552641 288.695374 
L 149.63735 287.423672 
L 153.806769 284.478036 
L 157.976188 281.110216 
L 160.060897 279.225833 
L 162.145606 277.153155 
L 164.230316 274.809887 
L 166.315025 272.125342 
L 170.484444 266.015592 
L 174.653862 259.685016 
L 176.738572 256.102591 
L 178.823281 251.78844 
L 180.90799 246.457807 
L 182.9927 239.898222 
L 185.077409 231.999427 
L 187.162119 222.881167 
L 191.331537 202.654254 
L 197.585665 171.755897 
L 199.670375 160.572786 
L 201.755084 148.020108 
L 208.009212 105.27979 
L 210.093921 93.07442 
L 212.178631 82.857299 
L 214.26334 73.945046 
L 216.348049 65.653742 
L 218.432759 58.150031 
L 220.517468 52.503315 
L 222.602177 49.905168 
L 224.686887 50.782186 
L 226.771596 54.54937 
L 228.856305 60.116534 
L 230.941015 66.622299 
L 233.025724 73.776549 
L 235.110433 81.66316 
L 237.195143 90.364475 
L 239.279852 99.807215 
L 241.364561 109.872273 
L 245.53398 131.737544 
L 255.957527 190.561837 
L 262.211655 225.890089 
L 264.296364 236.985087 
L 266.381074 246.910566 
L 268.465783 255.180036 
L 270.550492 261.74522 
L 272.635202 267.101422 
L 278.88933 281.485681 
L 280.974039 285.518642 
L 283.058748 288.478873 
L 285.143458 290.266604 
L 287.228167 291.110934 
L 293.482295 292.086195 
L 295.567004 292.863599 
L 299.736423 294.791648 
L 301.821132 295.49623 
L 303.905842 295.88662 
L 305.990551 296.018848 
L 312.244679 296.096203 
L 320.583517 296.58759 
L 324.752935 296.638386 
L 324.752935 296.638386 
" style="fill:none;stroke:#000000;stroke-linecap:square;stroke-width:2;"/>
   </g>
   <g id="line2d_11">
    <path clip-path="url(#p96e7a21312)" d="M 91.131116 296.638358 
L 96.608388 296.569917 
L 105.737175 296.33525 
L 114.865962 296.621139 
L 120.343234 296.505869 
L 136.77505 295.708082 
L 140.426565 295.890857 
L 144.078079 296.221655 
L 147.729594 296.236729 
L 151.381109 295.984917 
L 155.032624 295.530585 
L 158.684138 294.698088 
L 164.16141 293.179098 
L 165.987168 292.509694 
L 167.812925 291.604963 
L 171.46444 289.545941 
L 173.290197 288.900732 
L 175.115954 288.68414 
L 176.941712 288.712784 
L 178.767469 288.618087 
L 180.593227 288.010721 
L 182.418984 286.628591 
L 184.244741 284.439753 
L 189.722013 276.103154 
L 193.373528 271.412573 
L 195.199285 268.669584 
L 197.025043 265.156039 
L 198.8508 260.793426 
L 200.676557 255.73997 
L 202.502315 250.199855 
L 204.328072 244.26724 
L 206.153829 237.896462 
L 207.979587 230.888453 
L 209.805344 222.823827 
L 211.631101 213.124059 
L 213.456859 201.402287 
L 215.282616 187.862212 
L 220.759888 144.365545 
L 224.411403 117.680632 
L 228.062918 93.332902 
L 229.888675 82.248448 
L 233.54019 62.03353 
L 239.017462 32.267867 
L 240.843219 24.450153 
L 242.668976 19.588498 
L 244.494734 18.086633 
L 246.320491 19.518113 
L 248.146248 22.999173 
L 249.972006 27.673629 
L 251.797763 32.992842 
L 253.623521 38.757773 
L 255.449278 45.154382 
L 257.275035 52.890248 
L 259.100793 63.123455 
L 260.92655 76.873654 
L 262.752307 94.250385 
L 270.055337 173.676244 
L 271.881094 189.808726 
L 273.706851 203.833816 
L 275.532609 216.114712 
L 277.358366 226.858491 
L 279.184123 236.097797 
L 281.009881 243.993116 
L 282.835638 250.962561 
L 284.661396 257.413573 
L 286.487153 263.442885 
L 288.31291 268.895836 
L 290.138668 273.668612 
L 291.964425 277.861825 
L 293.790182 281.649693 
L 295.61594 285.086946 
L 297.441697 288.088026 
L 299.267454 290.549237 
L 301.093212 292.433676 
L 302.918969 293.755502 
L 304.744726 294.55449 
L 306.570484 294.926958 
L 312.047756 295.377393 
L 317.525028 296.342191 
L 321.176543 296.597538 
L 323.0023 296.63023 
L 323.0023 296.63023 
" style="fill:none;stroke:#000000;stroke-dasharray:7.4,3.2;stroke-dashoffset:0;stroke-width:2;"/>
   </g>
   <g id="line2d_12">
    <path clip-path="url(#p96e7a21312)" d="M 73.721774 296.636834 
L 81.664138 296.554856 
L 89.606501 296.371151 
L 97.548865 296.560213 
L 103.505637 296.612272 
L 111.448001 296.408461 
L 121.375956 296.134374 
L 133.289501 295.904471 
L 145.203046 294.862813 
L 149.174228 294.39418 
L 153.14541 293.715246 
L 157.116592 292.75973 
L 161.087774 291.401229 
L 163.073364 290.552033 
L 167.044546 288.493724 
L 174.98691 283.830514 
L 176.972501 282.504758 
L 178.958092 280.794259 
L 180.943682 278.522573 
L 182.929273 275.645608 
L 184.914864 272.278927 
L 192.857228 257.680007 
L 194.842819 253.866112 
L 196.82841 249.679776 
L 198.814001 244.932248 
L 200.799591 239.456377 
L 202.785182 233.136821 
L 204.770773 225.994103 
L 212.713137 195.460512 
L 218.66991 175.317344 
L 228.597864 142.137473 
L 230.583455 134.347575 
L 236.540228 108.99907 
L 238.525819 101.335235 
L 240.511409 94.54693 
L 242.497 88.730017 
L 244.482591 83.902719 
L 246.468182 79.889775 
L 248.453773 76.204386 
L 250.439364 72.209662 
L 254.410546 62.87979 
L 256.396137 59.315664 
L 258.381728 58.424411 
L 260.367318 61.213096 
L 262.352909 67.729768 
L 264.3385 77.134418 
L 266.324091 88.213134 
L 270.295273 112.482128 
L 272.280864 126.12116 
L 274.266455 141.812051 
L 276.252046 159.923101 
L 282.208818 219.250421 
L 284.194409 235.608882 
L 286.18 248.70425 
L 288.165591 258.67897 
L 290.151182 266.156152 
L 292.136773 271.931213 
L 294.122364 276.709393 
L 296.107955 280.928932 
L 298.093546 284.709298 
L 300.079136 287.939476 
L 302.064727 290.452082 
L 304.050318 292.183037 
L 306.035909 293.238708 
L 308.0215 293.855265 
L 317.949455 296.06394 
L 319.935045 296.342126 
L 323.906227 296.590517 
L 325.891818 296.625735 
L 325.891818 296.625735 
" style="fill:none;stroke:#000000;stroke-dasharray:2,3.3;stroke-dashoffset:0;stroke-width:2;"/>
   </g>
   <g id="patch_3">
    <path d="M 46.7 296.645638 
L 46.7 4.158971 
" style="fill:none;stroke:#000000;stroke-linecap:square;stroke-linejoin:miter;stroke-width:0.8;"/>
   </g>
   <g id="patch_4">
    <path d="M 46.7 296.645638 
L 339.186667 296.645638 
" style="fill:none;stroke:#000000;stroke-linecap:square;stroke-linejoin:miter;stroke-width:0.8;"/>
   </g>
  </g>
  <g id="axes_2">
   <g id="patch_5">
    <path d="M 400.546667 296.645638 
L 693.033333 296.645638 
L 693.033333 4.158971 
L 400.546667 4.158971 
z
" style="fill:#ffffff;"/>
   </g>
   <g id="matplotlib.axis_3">
    <g id="xtick_4">
     <g id="line2d_13">
      <g>
       <use style="stroke:#000000;stroke-width:1.6;" x="477.109627" xlink:href="#m4785a0f5ae" y="296.645638"/>
      </g>
     </g>
     <g id="text_10">
      <!-- −1 -->
      <g transform="translate(462.367439 326.542513)scale(0.2 -0.2)">
       <use xlink:href="#DejaVuSans-8722"/>
       <use x="83.789062" xlink:href="#DejaVuSans-49"/>
      </g>
     </g>
    </g>
    <g id="xtick_5">
     <g id="line2d_14">
      <g>
       <use style="stroke:#000000;stroke-width:1.6;" x="556.431004" xlink:href="#m4785a0f5ae" y="296.645638"/>
      </g>
     </g>
     <g id="text_11">
      <!-- 0 -->
      <g transform="translate(550.068504 326.542513)scale(0.2 -0.2)">
       <use xlink:href="#DejaVuSans-48"/>
      </g>
     </g>
    </g>
    <g id="xtick_6">
     <g id="line2d_15">
      <g>
       <use style="stroke:#000000;stroke-width:1.6;" x="635.752381" xlink:href="#m4785a0f5ae" y="296.645638"/>
      </g>
     </g>
     <g id="text_12">
      <!-- 1 -->
      <g transform="translate(629.389881 326.542513)scale(0.2 -0.2)">
       <use xlink:href="#DejaVuSans-49"/>
      </g>
     </g>
    </g>
   </g>
   <g id="matplotlib.axis_4">
    <g id="ytick_7">
     <g id="line2d_16">
      <g>
       <use style="stroke:#000000;stroke-width:1.6;" x="400.546667" xlink:href="#mfc66f39ef8" y="296.645638"/>
      </g>
     </g>
     <g id="text_13">
      <!-- 0.0 -->
      <g transform="translate(354.040417 304.244075)scale(0.2 -0.2)">
       <use xlink:href="#DejaVuSans-48"/>
       <use x="63.623047" xlink:href="#DejaVuSans-46"/>
       <use x="95.410156" xlink:href="#DejaVuSans-48"/>
      </g>
     </g>
    </g>
    <g id="ytick_8">
     <g id="line2d_17">
      <g>
       <use style="stroke:#000000;stroke-width:1.6;" x="400.546667" xlink:href="#mfc66f39ef8" y="221.477535"/>
      </g>
     </g>
     <g id="text_14">
      <!-- 0.5 -->
      <g transform="translate(354.040417 229.075972)scale(0.2 -0.2)">
       <use xlink:href="#DejaVuSans-48"/>
       <use x="63.623047" xlink:href="#DejaVuSans-46"/>
       <use x="95.410156" xlink:href="#DejaVuSans-53"/>
      </g>
     </g>
    </g>
    <g id="ytick_9">
     <g id="line2d_18">
      <g>
       <use style="stroke:#000000;stroke-width:1.6;" x="400.546667" xlink:href="#mfc66f39ef8" y="146.309432"/>
      </g>
     </g>
     <g id="text_15">
      <!-- 1.0 -->
      <g transform="translate(354.040417 153.907869)scale(0.2 -0.2)">
       <use xlink:href="#DejaVuSans-49"/>
       <use x="63.623047" xlink:href="#DejaVuSans-46"/>
       <use x="95.410156" xlink:href="#DejaVuSans-48"/>
      </g>
     </g>
    </g>
    <g id="ytick_10">
     <g id="line2d_19">
      <g>
       <use style="stroke:#000000;stroke-width:1.6;" x="400.546667" xlink:href="#mfc66f39ef8" y="71.141329"/>
      </g>
     </g>
     <g id="text_16">
      <!-- 1.5 -->
      <g transform="translate(354.040417 78.739766)scale(0.2 -0.2)">
       <use xlink:href="#DejaVuSans-49"/>
       <use x="63.623047" xlink:href="#DejaVuSans-46"/>
       <use x="95.410156" xlink:href="#DejaVuSans-53"/>
      </g>
     </g>
    </g>
   </g>
   <g id="line2d_20">
    <path clip-path="url(#p85dcf8c12c)" d="M 0 0 
" style="fill:none;stroke:#000000;stroke-linecap:square;stroke-width:2;"/>
   </g>
   <g id="line2d_21">
    <path clip-path="url(#p85dcf8c12c)" d="M 0 0 
" style="fill:none;stroke:#000000;stroke-dasharray:7.4,3.2;stroke-dashoffset:0;stroke-width:2;"/>
   </g>
   <g id="patch_6">
    <path style="fill:none;stroke:#000000;stroke-linecap:square;stroke-linejoin:miter;stroke-width:0.8;"/>
   </g>
   <g id="patch_7">
    <path style="fill:none;stroke:#000000;stroke-linecap:square;stroke-linejoin:miter;stroke-width:0.8;"/>
   </g>
  </g>
 </g>
 <defs>
  <clipPath id="p96e7a21312">
   <rect height="292.486667" width="292.486667" x="46.7" y="4.158971"/>
  </clipPath>
  <clipPath id="p85dcf8c12c">
   <rect height="292.486667" width="292.486667" x="400.546667" y="4.158971"/>
  </clipPath>
 </defs>
</svg>
