<?xml version="1.0" encoding="utf-8" standalone="no"?>
<!DOCTYPE svg PUBLIC "-//W3C//DTD SVG 1.1//EN"
  "http://www.w3.org/Graphics/SVG/1.1/DTD/svg11.dtd">
<!-- Created with matplotlib (https://matplotlib.org/) -->
<svg height="329.686667pt" version="1.1" viewBox="0 0 342.686667 329.686667" width="342.686667pt" xmlns="http://www.w3.org/2000/svg" xmlns:xlink="http://www.w3.org/1999/xlink">
 <defs>
  <style type="text/css">
*{stroke-linecap:butt;stroke-linejoin:round;}
  </style>
 </defs>
 <g id="figure_1">
  <g id="patch_1">
   <path d="M 0 329.686667 
L 342.686667 329.686667 
L 342.686667 0 
L 0 0 
z
" style="fill:#ffffff;"/>
  </g>
  <g id="axes_1">
   <g id="patch_2">
    <path d="M 46.7 295.986667 
L 339.186667 295.986667 
L 339.186667 3.5 
L 46.7 3.5 
z
" style="fill:#ffffff;"/>
   </g>
   <g id="matplotlib.axis_1">
    <g id="xtick_1">
     <g id="line2d_1">
      <defs>
       <path d="M 0 0 
L 0 3.5 
" id="m66d3c699c6" style="stroke:#000000;stroke-width:1.6;"/>
      </defs>
      <g>
       <use style="stroke:#000000;stroke-width:1.6;" x="75.52315" xlink:href="#m66d3c699c6" y="295.986667"/>
      </g>
     </g>
     <g id="text_1">
      <!-- −1 -->
      <defs>
       <path d="M 10.59375 35.5 
L 73.1875 35.5 
L 73.1875 27.203125 
L 10.59375 27.203125 
z
" id="DejaVuSans-8722"/>
       <path d="M 12.40625 8.296875 
L 28.515625 8.296875 
L 28.515625 63.921875 
L 10.984375 60.40625 
L 10.984375 69.390625 
L 28.421875 72.90625 
L 38.28125 72.90625 
L 38.28125 8.296875 
L 54.390625 8.296875 
L 54.390625 0 
L 12.40625 0 
z
" id="DejaVuSans-49"/>
      </defs>
      <g transform="translate(60.780962 325.883542)scale(0.2 -0.2)">
       <use xlink:href="#DejaVuSans-8722"/>
       <use x="83.789062" xlink:href="#DejaVuSans-49"/>
      </g>
     </g>
    </g>
    <g id="xtick_2">
     <g id="line2d_2">
      <g>
       <use style="stroke:#000000;stroke-width:1.6;" x="189.928733" xlink:href="#m66d3c699c6" y="295.986667"/>
      </g>
     </g>
     <g id="text_2">
      <!-- 0 -->
      <defs>
       <path d="M 31.78125 66.40625 
Q 24.171875 66.40625 20.328125 58.90625 
Q 16.5 51.421875 16.5 36.375 
Q 16.5 21.390625 20.328125 13.890625 
Q 24.171875 6.390625 31.78125 6.390625 
Q 39.453125 6.390625 43.28125 13.890625 
Q 47.125 21.390625 47.125 36.375 
Q 47.125 51.421875 43.28125 58.90625 
Q 39.453125 66.40625 31.78125 66.40625 
z
M 31.78125 74.21875 
Q 44.046875 74.21875 50.515625 64.515625 
Q 56.984375 54.828125 56.984375 36.375 
Q 56.984375 17.96875 50.515625 8.265625 
Q 44.046875 -1.421875 31.78125 -1.421875 
Q 19.53125 -1.421875 13.0625 8.265625 
Q 6.59375 17.96875 6.59375 36.375 
Q 6.59375 54.828125 13.0625 64.515625 
Q 19.53125 74.21875 31.78125 74.21875 
z
" id="DejaVuSans-48"/>
      </defs>
      <g transform="translate(183.566233 325.883542)scale(0.2 -0.2)">
       <use xlink:href="#DejaVuSans-48"/>
      </g>
     </g>
    </g>
    <g id="xtick_3">
     <g id="line2d_3">
      <g>
       <use style="stroke:#000000;stroke-width:1.6;" x="304.334317" xlink:href="#m66d3c699c6" y="295.986667"/>
      </g>
     </g>
     <g id="text_3">
      <!-- 1 -->
      <g transform="translate(297.971817 325.883542)scale(0.2 -0.2)">
       <use xlink:href="#DejaVuSans-49"/>
      </g>
     </g>
    </g>
   </g>
   <g id="matplotlib.axis_2">
    <g id="ytick_1">
     <g id="line2d_4">
      <defs>
       <path d="M 0 0 
L -3.5 0 
" id="m6a1c2be58c" style="stroke:#000000;stroke-width:1.6;"/>
      </defs>
      <g>
       <use style="stroke:#000000;stroke-width:1.6;" x="46.7" xlink:href="#m6a1c2be58c" y="295.986667"/>
      </g>
     </g>
     <g id="text_4">
      <!-- 0.0 -->
      <defs>
       <path d="M 10.6875 12.40625 
L 21 12.40625 
L 21 0 
L 10.6875 0 
z
" id="DejaVuSans-46"/>
      </defs>
      <g transform="translate(0.19375 303.585104)scale(0.2 -0.2)">
       <use xlink:href="#DejaVuSans-48"/>
       <use x="63.623047" xlink:href="#DejaVuSans-46"/>
       <use x="95.410156" xlink:href="#DejaVuSans-48"/>
      </g>
     </g>
    </g>
    <g id="ytick_2">
     <g id="line2d_5">
      <g>
       <use style="stroke:#000000;stroke-width:1.6;" x="46.7" xlink:href="#m6a1c2be58c" y="244.372681"/>
      </g>
     </g>
     <g id="text_5">
      <!-- 0.5 -->
      <defs>
       <path d="M 10.796875 72.90625 
L 49.515625 72.90625 
L 49.515625 64.59375 
L 19.828125 64.59375 
L 19.828125 46.734375 
Q 21.96875 47.46875 24.109375 47.828125 
Q 26.265625 48.1875 28.421875 48.1875 
Q 40.625 48.1875 47.75 41.5 
Q 54.890625 34.8125 54.890625 23.390625 
Q 54.890625 11.625 47.5625 5.09375 
Q 40.234375 -1.421875 26.90625 -1.421875 
Q 22.3125 -1.421875 17.546875 -0.640625 
Q 12.796875 0.140625 7.71875 1.703125 
L 7.71875 11.625 
Q 12.109375 9.234375 16.796875 8.0625 
Q 21.484375 6.890625 26.703125 6.890625 
Q 35.15625 6.890625 40.078125 11.328125 
Q 45.015625 15.765625 45.015625 23.390625 
Q 45.015625 31 40.078125 35.4375 
Q 35.15625 39.890625 26.703125 39.890625 
Q 22.75 39.890625 18.8125 39.015625 
Q 14.890625 38.140625 10.796875 36.28125 
z
" id="DejaVuSans-53"/>
      </defs>
      <g transform="translate(0.19375 251.971119)scale(0.2 -0.2)">
       <use xlink:href="#DejaVuSans-48"/>
       <use x="63.623047" xlink:href="#DejaVuSans-46"/>
       <use x="95.410156" xlink:href="#DejaVuSans-53"/>
      </g>
     </g>
    </g>
    <g id="ytick_3">
     <g id="line2d_6">
      <g>
       <use style="stroke:#000000;stroke-width:1.6;" x="46.7" xlink:href="#m6a1c2be58c" y="192.758696"/>
      </g>
     </g>
     <g id="text_6">
      <!-- 1.0 -->
      <g transform="translate(0.19375 200.357134)scale(0.2 -0.2)">
       <use xlink:href="#DejaVuSans-49"/>
       <use x="63.623047" xlink:href="#DejaVuSans-46"/>
       <use x="95.410156" xlink:href="#DejaVuSans-48"/>
      </g>
     </g>
    </g>
    <g id="ytick_4">
     <g id="line2d_7">
      <g>
       <use style="stroke:#000000;stroke-width:1.6;" x="46.7" xlink:href="#m6a1c2be58c" y="141.144711"/>
      </g>
     </g>
     <g id="text_7">
      <!-- 1.5 -->
      <g transform="translate(0.19375 148.743148)scale(0.2 -0.2)">
       <use xlink:href="#DejaVuSans-49"/>
       <use x="63.623047" xlink:href="#DejaVuSans-46"/>
       <use x="95.410156" xlink:href="#DejaVuSans-53"/>
      </g>
     </g>
    </g>
    <g id="ytick_5">
     <g id="line2d_8">
      <g>
       <use style="stroke:#000000;stroke-width:1.6;" x="46.7" xlink:href="#m6a1c2be58c" y="89.530726"/>
      </g>
     </g>
     <g id="text_8">
      <!-- 2.0 -->
      <defs>
       <path d="M 19.1875 8.296875 
L 53.609375 8.296875 
L 53.609375 0 
L 7.328125 0 
L 7.328125 8.296875 
Q 12.9375 14.109375 22.625 23.890625 
Q 32.328125 33.6875 34.8125 36.53125 
Q 39.546875 41.84375 41.421875 45.53125 
Q 43.3125 49.21875 43.3125 52.78125 
Q 43.3125 58.59375 39.234375 62.25 
Q 35.15625 65.921875 28.609375 65.921875 
Q 23.96875 65.921875 18.8125 64.3125 
Q 13.671875 62.703125 7.8125 59.421875 
L 7.8125 69.390625 
Q 13.765625 71.78125 18.9375 73 
Q 24.125 74.21875 28.421875 74.21875 
Q 39.75 74.21875 46.484375 68.546875 
Q 53.21875 62.890625 53.21875 53.421875 
Q 53.21875 48.921875 51.53125 44.890625 
Q 49.859375 40.875 45.40625 35.40625 
Q 44.1875 33.984375 37.640625 27.21875 
Q 31.109375 20.453125 19.1875 8.296875 
z
" id="DejaVuSans-50"/>
      </defs>
      <g transform="translate(0.19375 97.129163)scale(0.2 -0.2)">
       <use xlink:href="#DejaVuSans-50"/>
       <use x="63.623047" xlink:href="#DejaVuSans-46"/>
       <use x="95.410156" xlink:href="#DejaVuSans-48"/>
      </g>
     </g>
    </g>
    <g id="ytick_6">
     <g id="line2d_9">
      <g>
       <use style="stroke:#000000;stroke-width:1.6;" x="46.7" xlink:href="#m6a1c2be58c" y="37.91674"/>
      </g>
     </g>
     <g id="text_9">
      <!-- 2.5 -->
      <g transform="translate(0.19375 45.515178)scale(0.2 -0.2)">
       <use xlink:href="#DejaVuSans-50"/>
       <use x="63.623047" xlink:href="#DejaVuSans-46"/>
       <use x="95.410156" xlink:href="#DejaVuSans-53"/>
      </g>
     </g>
    </g>
   </g>
   <g id="line2d_10">
    <path clip-path="url(#pdc370972c0)" d="M 84.380798 295.981758 
L 89.637564 295.858864 
L 96.646586 295.405586 
L 101.903352 295.540606 
L 103.655607 295.386282 
L 108.912373 294.506195 
L 114.169139 294.347558 
L 115.921394 293.880614 
L 119.425905 292.430895 
L 121.17816 291.891255 
L 124.682671 291.116298 
L 126.434926 290.473728 
L 128.187182 289.622975 
L 129.939437 288.599571 
L 131.691692 287.269323 
L 133.443948 285.512936 
L 135.196203 283.548494 
L 136.948458 281.805287 
L 140.452969 278.881307 
L 142.205224 276.622965 
L 143.95748 273.087107 
L 145.709735 267.927837 
L 147.46199 261.054072 
L 152.718756 236.427622 
L 154.471012 229.751795 
L 157.975522 217.980064 
L 159.727778 210.468721 
L 161.480033 200.293769 
L 163.232288 186.979851 
L 164.984544 170.597621 
L 170.24131 112.926268 
L 171.993565 96.629147 
L 173.745821 83.87194 
L 175.498076 73.925282 
L 177.250331 64.686834 
L 179.002587 54.414196 
L 180.754842 43.401082 
L 182.507097 33.388801 
L 184.259353 25.535353 
L 186.011608 19.985642 
L 187.763863 17.427767 
L 189.516119 19.699394 
L 191.268374 28.194744 
L 193.020629 42.420764 
L 194.772885 60.674451 
L 196.52514 81.662266 
L 201.781906 151.542037 
L 203.534161 170.582026 
L 205.286417 185.339249 
L 207.038672 197.109604 
L 212.295438 229.015293 
L 214.047693 238.289936 
L 215.799949 245.904028 
L 217.552204 252.341124 
L 219.304459 258.253746 
L 221.056715 263.571107 
L 222.80897 267.672369 
L 224.561225 270.212756 
L 228.065736 272.992613 
L 229.817991 275.225849 
L 231.570247 278.461774 
L 233.322502 282.020927 
L 235.074757 285.013182 
L 236.827013 286.958217 
L 238.579268 287.996859 
L 242.083779 289.244073 
L 243.836034 290.058354 
L 249.0928 292.966843 
L 250.845055 293.480472 
L 252.597311 293.603779 
L 256.101821 293.413992 
L 257.854077 293.511384 
L 259.606332 293.850789 
L 263.110843 294.763116 
L 264.863098 295.022997 
L 271.872119 295.452205 
L 282.385651 295.922813 
L 294.651439 295.618049 
L 298.155949 295.672088 
L 305.164971 295.970565 
L 306.917226 295.98181 
L 306.917226 295.98181 
" style="fill:none;stroke:#000000;stroke-linecap:square;stroke-width:2;"/>
   </g>
   <g id="line2d_11">
    <path clip-path="url(#pdc370972c0)" d="M 59.994848 295.983113 
L 70.225863 295.854116 
L 88.641689 295.26752 
L 92.734095 295.17387 
L 96.826501 295.167043 
L 100.918907 294.897954 
L 113.196124 293.19304 
L 117.28853 292.404368 
L 119.334733 291.789371 
L 121.380936 290.883341 
L 123.427139 289.520067 
L 125.473341 287.522691 
L 127.519544 284.743463 
L 129.565747 281.084481 
L 131.61195 276.502413 
L 133.658153 271.017654 
L 135.704356 264.730487 
L 137.750559 257.812547 
L 141.842965 242.75127 
L 156.166385 187.254347 
L 158.212588 178.450957 
L 160.258791 168.728325 
L 164.351197 148.044277 
L 166.3974 138.404561 
L 168.443603 130.106542 
L 170.489805 123.596743 
L 172.536008 119.032623 
L 174.582211 116.216659 
L 176.628414 114.699288 
L 178.674617 114.090793 
L 180.72082 114.355708 
L 182.767023 115.796825 
L 184.813226 118.721463 
L 186.859429 123.102825 
L 188.905632 128.546272 
L 190.951834 134.572493 
L 192.998037 140.947482 
L 195.04424 147.767704 
L 197.090443 155.241223 
L 205.275255 187.44017 
L 207.321458 193.914154 
L 211.413864 204.99315 
L 213.460066 210.497987 
L 217.552472 222.588531 
L 221.644878 235.060616 
L 223.691081 240.872613 
L 227.783487 251.454922 
L 229.82969 256.258869 
L 231.875893 260.573927 
L 233.922096 264.203542 
L 235.968298 267.103757 
L 238.014501 269.47557 
L 242.106907 273.930228 
L 246.199313 278.753313 
L 248.245516 280.945132 
L 250.291719 282.753492 
L 252.337922 284.144769 
L 254.384125 285.221409 
L 258.47653 287.163281 
L 264.615139 290.49254 
L 266.661342 291.303424 
L 268.707545 291.85555 
L 276.892357 293.542627 
L 280.984762 294.393561 
L 285.077168 294.891236 
L 295.308183 295.689306 
L 299.400589 295.78253 
L 307.5854 295.806324 
L 317.816415 295.978409 
L 319.862618 295.983113 
L 319.862618 295.983113 
" style="fill:none;stroke:#000000;stroke-dasharray:7.4,3.2;stroke-dashoffset:0;stroke-width:2;"/>
   </g>
   <g id="line2d_12">
    <path clip-path="url(#pdc370972c0)" d="M 69.219726 295.948706 
L 79.324926 295.941149 
L 97.514287 295.830837 
L 113.682608 295.75511 
L 119.745728 295.59474 
L 123.787808 295.342225 
L 127.829889 294.880348 
L 131.871969 294.126119 
L 143.998209 291.382131 
L 148.04029 290.55256 
L 150.06133 289.975441 
L 152.08237 289.211745 
L 154.10341 288.23241 
L 156.12445 287.04394 
L 160.16653 284.216394 
L 168.250691 278.059579 
L 172.292771 274.7986 
L 176.334851 271.246579 
L 180.376931 267.425845 
L 184.419011 263.307694 
L 186.440051 261.070181 
L 188.461091 258.659627 
L 190.482132 256.0373 
L 192.503172 253.174264 
L 194.524212 250.056428 
L 198.566292 243.116386 
L 202.608372 235.736054 
L 204.629412 232.260298 
L 206.650452 229.197386 
L 208.671492 226.719433 
L 210.692533 224.910804 
L 212.713573 223.737952 
L 214.734613 223.057579 
L 220.797733 221.886092 
L 222.818773 221.222478 
L 224.839813 220.282091 
L 226.860853 219.040977 
L 228.881893 217.480179 
L 230.902934 215.573735 
L 232.923974 213.296296 
L 234.945014 210.644761 
L 236.966054 207.660742 
L 245.050214 194.780432 
L 247.071254 191.958121 
L 249.092294 189.391377 
L 255.155415 182.294974 
L 257.176455 179.677955 
L 259.197495 176.733906 
L 261.218535 173.41533 
L 265.260615 165.915142 
L 267.281655 162.119197 
L 269.302695 158.679261 
L 271.323736 155.901005 
L 273.344776 154.019789 
L 275.365816 153.153243 
L 277.386856 153.301355 
L 279.407896 154.399368 
L 281.428936 156.40332 
L 283.449976 159.369209 
L 285.471016 163.485 
L 287.492056 169.032663 
L 289.513096 176.287823 
L 291.534137 185.393467 
L 293.555177 196.257622 
L 295.576217 208.516488 
L 301.639337 247.267 
L 303.660377 258.613567 
L 305.681417 268.382592 
L 307.702457 276.396387 
L 309.723497 282.662244 
L 311.744537 287.3274 
L 313.765578 290.627772 
L 315.786618 292.839629 
L 317.807658 294.239013 
L 319.828698 295.071858 
L 321.849738 295.536559 
L 323.870778 295.778849 
L 325.891818 295.89636 
L 325.891818 295.89636 
" style="fill:none;stroke:#000000;stroke-dasharray:2,3.3;stroke-dashoffset:0;stroke-width:2;"/>
   </g>
   <g id="patch_3">
    <path d="M 46.7 295.986667 
L 46.7 3.5 
" style="fill:none;stroke:#000000;stroke-linecap:square;stroke-linejoin:miter;stroke-width:0.8;"/>
   </g>
   <g id="patch_4">
    <path d="M 46.7 295.986667 
L 339.186667 295.986667 
" style="fill:none;stroke:#000000;stroke-linecap:square;stroke-linejoin:miter;stroke-width:0.8;"/>
   </g>
  </g>
  <g id="axes_2">
   <g id="patch_5">
    <path d="M 400.546667 295.986667 
L 693.033333 295.986667 
L 693.033333 3.5 
L 400.546667 3.5 
z
" style="fill:#ffffff;"/>
   </g>
   <g id="matplotlib.axis_3">
    <g id="xtick_4">
     <g id="line2d_13">
      <g>
       <use style="stroke:#000000;stroke-width:1.6;" x="432.696293" xlink:href="#m66d3c699c6" y="295.986667"/>
      </g>
     </g>
     <g id="text_10">
      <!-- −1 -->
      <g transform="translate(417.954106 325.883542)scale(0.2 -0.2)">
       <use xlink:href="#DejaVuSans-8722"/>
       <use x="83.789062" xlink:href="#DejaVuSans-49"/>
      </g>
     </g>
    </g>
    <g id="xtick_5">
     <g id="line2d_14">
      <g>
       <use style="stroke:#000000;stroke-width:1.6;" x="514.586916" xlink:href="#m66d3c699c6" y="295.986667"/>
      </g>
     </g>
     <g id="text_11">
      <!-- 0 -->
      <g transform="translate(508.224416 325.883542)scale(0.2 -0.2)">
       <use xlink:href="#DejaVuSans-48"/>
      </g>
     </g>
    </g>
    <g id="xtick_6">
     <g id="line2d_15">
      <g>
       <use style="stroke:#000000;stroke-width:1.6;" x="596.477538" xlink:href="#m66d3c699c6" y="295.986667"/>
      </g>
     </g>
     <g id="text_12">
      <!-- 1 -->
      <g transform="translate(590.115038 325.883542)scale(0.2 -0.2)">
       <use xlink:href="#DejaVuSans-49"/>
      </g>
     </g>
    </g>
    <g id="xtick_7">
     <g id="line2d_16">
      <g>
       <use style="stroke:#000000;stroke-width:1.6;" x="678.36816" xlink:href="#m66d3c699c6" y="295.986667"/>
      </g>
     </g>
     <g id="text_13">
      <!-- 2 -->
      <g transform="translate(672.00566 325.883542)scale(0.2 -0.2)">
       <use xlink:href="#DejaVuSans-50"/>
      </g>
     </g>
    </g>
   </g>
   <g id="matplotlib.axis_4">
    <g id="ytick_7">
     <g id="line2d_17">
      <g>
       <use style="stroke:#000000;stroke-width:1.6;" x="400.546667" xlink:href="#m6a1c2be58c" y="295.986667"/>
      </g>
     </g>
     <g id="text_14">
      <!-- 0.00 -->
      <g transform="translate(341.315417 303.585104)scale(0.2 -0.2)">
       <use xlink:href="#DejaVuSans-48"/>
       <use x="63.623047" xlink:href="#DejaVuSans-46"/>
       <use x="95.410156" xlink:href="#DejaVuSans-48"/>
       <use x="159.033203" xlink:href="#DejaVuSans-48"/>
      </g>
     </g>
    </g>
    <g id="ytick_8">
     <g id="line2d_18">
      <g>
       <use style="stroke:#000000;stroke-width:1.6;" x="400.546667" xlink:href="#m6a1c2be58c" y="250.895778"/>
      </g>
     </g>
     <g id="text_15">
      <!-- 0.25 -->
      <g transform="translate(341.315417 258.494215)scale(0.2 -0.2)">
       <use xlink:href="#DejaVuSans-48"/>
       <use x="63.623047" xlink:href="#DejaVuSans-46"/>
       <use x="95.410156" xlink:href="#DejaVuSans-50"/>
       <use x="159.033203" xlink:href="#DejaVuSans-53"/>
      </g>
     </g>
    </g>
    <g id="ytick_9">
     <g id="line2d_19">
      <g>
       <use style="stroke:#000000;stroke-width:1.6;" x="400.546667" xlink:href="#m6a1c2be58c" y="205.804889"/>
      </g>
     </g>
     <g id="text_16">
      <!-- 0.50 -->
      <g transform="translate(341.315417 213.403326)scale(0.2 -0.2)">
       <use xlink:href="#DejaVuSans-48"/>
       <use x="63.623047" xlink:href="#DejaVuSans-46"/>
       <use x="95.410156" xlink:href="#DejaVuSans-53"/>
       <use x="159.033203" xlink:href="#DejaVuSans-48"/>
      </g>
     </g>
    </g>
    <g id="ytick_10">
     <g id="line2d_20">
      <g>
       <use style="stroke:#000000;stroke-width:1.6;" x="400.546667" xlink:href="#m6a1c2be58c" y="160.714"/>
      </g>
     </g>
     <g id="text_17">
      <!-- 0.75 -->
      <defs>
       <path d="M 8.203125 72.90625 
L 55.078125 72.90625 
L 55.078125 68.703125 
L 28.609375 0 
L 18.3125 0 
L 43.21875 64.59375 
L 8.203125 64.59375 
z
" id="DejaVuSans-55"/>
      </defs>
      <g transform="translate(341.315417 168.312437)scale(0.2 -0.2)">
       <use xlink:href="#DejaVuSans-48"/>
       <use x="63.623047" xlink:href="#DejaVuSans-46"/>
       <use x="95.410156" xlink:href="#DejaVuSans-55"/>
       <use x="159.033203" xlink:href="#DejaVuSans-53"/>
      </g>
     </g>
    </g>
    <g id="ytick_11">
     <g id="line2d_21">
      <g>
       <use style="stroke:#000000;stroke-width:1.6;" x="400.546667" xlink:href="#m6a1c2be58c" y="115.623111"/>
      </g>
     </g>
     <g id="text_18">
      <!-- 1.00 -->
      <g transform="translate(341.315417 123.221548)scale(0.2 -0.2)">
       <use xlink:href="#DejaVuSans-49"/>
       <use x="63.623047" xlink:href="#DejaVuSans-46"/>
       <use x="95.410156" xlink:href="#DejaVuSans-48"/>
       <use x="159.033203" xlink:href="#DejaVuSans-48"/>
      </g>
     </g>
    </g>
    <g id="ytick_12">
     <g id="line2d_22">
      <g>
       <use style="stroke:#000000;stroke-width:1.6;" x="400.546667" xlink:href="#m6a1c2be58c" y="70.532222"/>
      </g>
     </g>
     <g id="text_19">
      <!-- 1.25 -->
      <g transform="translate(341.315417 78.130659)scale(0.2 -0.2)">
       <use xlink:href="#DejaVuSans-49"/>
       <use x="63.623047" xlink:href="#DejaVuSans-46"/>
       <use x="95.410156" xlink:href="#DejaVuSans-50"/>
       <use x="159.033203" xlink:href="#DejaVuSans-53"/>
      </g>
     </g>
    </g>
    <g id="ytick_13">
     <g id="line2d_23">
      <g>
       <use style="stroke:#000000;stroke-width:1.6;" x="400.546667" xlink:href="#m6a1c2be58c" y="25.441333"/>
      </g>
     </g>
     <g id="text_20">
      <!-- 1.50 -->
      <g transform="translate(341.315417 33.03977)scale(0.2 -0.2)">
       <use xlink:href="#DejaVuSans-49"/>
       <use x="63.623047" xlink:href="#DejaVuSans-46"/>
       <use x="95.410156" xlink:href="#DejaVuSans-53"/>
       <use x="159.033203" xlink:href="#DejaVuSans-48"/>
      </g>
     </g>
    </g>
   </g>
   <g id="line2d_24">
    <path clip-path="url(#pbe6882ffe5)" d="M 0 0 
" style="fill:none;stroke:#000000;stroke-linecap:square;stroke-width:2;"/>
   </g>
   <g id="line2d_25">
    <path clip-path="url(#pbe6882ffe5)" d="M 0 0 
" style="fill:none;stroke:#000000;stroke-dasharray:7.4,3.2;stroke-dashoffset:0;stroke-width:2;"/>
   </g>
   <g id="patch_6">
    <path style="fill:none;stroke:#000000;stroke-linecap:square;stroke-linejoin:miter;stroke-width:0.8;"/>
   </g>
   <g id="patch_7">
    <path style="fill:none;stroke:#000000;stroke-linecap:square;stroke-linejoin:miter;stroke-width:0.8;"/>
   </g>
  </g>
 </g>
 <defs>
  <clipPath id="pdc370972c0">
   <rect height="292.486667" width="292.486667" x="46.7" y="3.5"/>
  </clipPath>
  <clipPath id="pbe6882ffe5">
   <rect height="292.486667" width="292.486667" x="400.546667" y="3.5"/>
  </clipPath>
 </defs>
</svg>
