<?xml version="1.0" encoding="utf-8" standalone="no"?>
<!DOCTYPE svg PUBLIC "-//W3C//DTD SVG 1.1//EN"
  "http://www.w3.org/Graphics/SVG/1.1/DTD/svg11.dtd">
<!-- Created with matplotlib (https://matplotlib.org/) -->
<svg height="350.741183pt" version="1.1" viewBox="0 0 357.016667 350.741183" width="357.016667pt" xmlns="http://www.w3.org/2000/svg" xmlns:xlink="http://www.w3.org/1999/xlink">
 <defs>
  <style type="text/css">
*{stroke-linecap:butt;stroke-linejoin:round;}
  </style>
 </defs>
 <g id="figure_1">
  <g id="patch_1">
   <path d="M 0 350.741183 
L 357.016667 350.741183 
L 357.016667 0 
L 0 0 
z
" style="fill:#ffffff;"/>
  </g>
  <g id="axes_1">
   <g id="patch_2">
    <path d="M -320.291667 317.041183 
L -7.1 317.041183 
L -7.1 3.849516 
L -320.291667 3.849516 
z
" style="fill:#ffffff;"/>
   </g>
   <g id="matplotlib.axis_1">
    <g id="xtick_1">
     <g id="line2d_1">
      <defs>
       <path d="M 0 0 
L 0 3.5 
" id="mfc8c4ea1ec" style="stroke:#000000;stroke-width:1.6;"/>
      </defs>
      <g/>
     </g>
     <g id="text_1">
      <!-- 0.00 -->
      <defs>
       <path d="M 31.78125 66.40625 
Q 24.171875 66.40625 20.328125 58.90625 
Q 16.5 51.421875 16.5 36.375 
Q 16.5 21.390625 20.328125 13.890625 
Q 24.171875 6.390625 31.78125 6.390625 
Q 39.453125 6.390625 43.28125 13.890625 
Q 47.125 21.390625 47.125 36.375 
Q 47.125 51.421875 43.28125 58.90625 
Q 39.453125 66.40625 31.78125 66.40625 
z
M 31.78125 74.21875 
Q 44.046875 74.21875 50.515625 64.515625 
Q 56.984375 54.828125 56.984375 36.375 
Q 56.984375 17.96875 50.515625 8.265625 
Q 44.046875 -1.421875 31.78125 -1.421875 
Q 19.53125 -1.421875 13.0625 8.265625 
Q 6.59375 17.96875 6.59375 36.375 
Q 6.59375 54.828125 13.0625 64.515625 
Q 19.53125 74.21875 31.78125 74.21875 
z
" id="DejaVuSans-48"/>
       <path d="M 10.6875 12.40625 
L 21 12.40625 
L 21 0 
L 10.6875 0 
z
" id="DejaVuSans-46"/>
      </defs>
      <g transform="translate(-312.513311 346.938058)scale(0.2 -0.2)">
       <use xlink:href="#DejaVuSans-48"/>
       <use x="63.623047" xlink:href="#DejaVuSans-46"/>
       <use x="95.410156" xlink:href="#DejaVuSans-48"/>
       <use x="159.033203" xlink:href="#DejaVuSans-48"/>
      </g>
     </g>
    </g>
    <g id="xtick_2">
     <g id="line2d_2">
      <g/>
     </g>
     <g id="text_2">
      <!-- 0.25 -->
      <defs>
       <path d="M 19.1875 8.296875 
L 53.609375 8.296875 
L 53.609375 0 
L 7.328125 0 
L 7.328125 8.296875 
Q 12.9375 14.109375 22.625 23.890625 
Q 32.328125 33.6875 34.8125 36.53125 
Q 39.546875 41.84375 41.421875 45.53125 
Q 43.3125 49.21875 43.3125 52.78125 
Q 43.3125 58.59375 39.234375 62.25 
Q 35.15625 65.921875 28.609375 65.921875 
Q 23.96875 65.921875 18.8125 64.3125 
Q 13.671875 62.703125 7.8125 59.421875 
L 7.8125 69.390625 
Q 13.765625 71.78125 18.9375 73 
Q 24.125 74.21875 28.421875 74.21875 
Q 39.75 74.21875 46.484375 68.546875 
Q 53.21875 62.890625 53.21875 53.421875 
Q 53.21875 48.921875 51.53125 44.890625 
Q 49.859375 40.875 45.40625 35.40625 
Q 44.1875 33.984375 37.640625 27.21875 
Q 31.109375 20.453125 19.1875 8.296875 
z
" id="DejaVuSans-50"/>
       <path d="M 10.796875 72.90625 
L 49.515625 72.90625 
L 49.515625 64.59375 
L 19.828125 64.59375 
L 19.828125 46.734375 
Q 21.96875 47.46875 24.109375 47.828125 
Q 26.265625 48.1875 28.421875 48.1875 
Q 40.625 48.1875 47.75 41.5 
Q 54.890625 34.8125 54.890625 23.390625 
Q 54.890625 11.625 47.5625 5.09375 
Q 40.234375 -1.421875 26.90625 -1.421875 
Q 22.3125 -1.421875 17.546875 -0.640625 
Q 12.796875 0.140625 7.71875 1.703125 
L 7.71875 11.625 
Q 12.109375 9.234375 16.796875 8.0625 
Q 21.484375 6.890625 26.703125 6.890625 
Q 35.15625 6.890625 40.078125 11.328125 
Q 45.015625 15.765625 45.015625 23.390625 
Q 45.015625 31 40.078125 35.4375 
Q 35.15625 39.890625 26.703125 39.890625 
Q 22.75 39.890625 18.8125 39.015625 
Q 14.890625 38.140625 10.796875 36.28125 
z
" id="DejaVuSans-53"/>
      </defs>
      <g transform="translate(-234.53227 346.938058)scale(0.2 -0.2)">
       <use xlink:href="#DejaVuSans-48"/>
       <use x="63.623047" xlink:href="#DejaVuSans-46"/>
       <use x="95.410156" xlink:href="#DejaVuSans-50"/>
       <use x="159.033203" xlink:href="#DejaVuSans-53"/>
      </g>
     </g>
    </g>
    <g id="xtick_3">
     <g id="line2d_3">
      <g/>
     </g>
     <g id="text_3">
      <!-- 0.50 -->
      <g transform="translate(-156.551228 346.938058)scale(0.2 -0.2)">
       <use xlink:href="#DejaVuSans-48"/>
       <use x="63.623047" xlink:href="#DejaVuSans-46"/>
       <use x="95.410156" xlink:href="#DejaVuSans-53"/>
       <use x="159.033203" xlink:href="#DejaVuSans-48"/>
      </g>
     </g>
    </g>
    <g id="xtick_4">
     <g id="line2d_4">
      <g/>
     </g>
     <g id="text_4">
      <!-- 0.75 -->
      <defs>
       <path d="M 8.203125 72.90625 
L 55.078125 72.90625 
L 55.078125 68.703125 
L 28.609375 0 
L 18.3125 0 
L 43.21875 64.59375 
L 8.203125 64.59375 
z
" id="DejaVuSans-55"/>
      </defs>
      <g transform="translate(-78.570187 346.938058)scale(0.2 -0.2)">
       <use xlink:href="#DejaVuSans-48"/>
       <use x="63.623047" xlink:href="#DejaVuSans-46"/>
       <use x="95.410156" xlink:href="#DejaVuSans-55"/>
       <use x="159.033203" xlink:href="#DejaVuSans-53"/>
      </g>
     </g>
    </g>
    <g id="text_5">
     <!--   -->
     <defs>
      <path id="DejaVuSans-32"/>
     </defs>
     <g transform="translate(-166.492583 368.470683)scale(0.176 -0.176)">
      <use xlink:href="#DejaVuSans-32"/>
     </g>
    </g>
   </g>
   <g id="matplotlib.axis_2">
    <g id="ytick_1">
     <g id="line2d_5">
      <defs>
       <path d="M 0 0 
L -3.5 0 
" id="m47869abdc5" style="stroke:#000000;stroke-width:1.6;"/>
      </defs>
      <g/>
     </g>
     <g id="text_6">
      <!-- 0 -->
      <g transform="translate(-347.716667 324.63962)scale(0.2 -0.2)">
       <use xlink:href="#DejaVuSans-48"/>
      </g>
     </g>
    </g>
    <g id="ytick_2">
     <g id="line2d_6">
      <g/>
     </g>
     <g id="text_7">
      <!-- 2 -->
      <g transform="translate(-347.716667 250.37336)scale(0.2 -0.2)">
       <use xlink:href="#DejaVuSans-50"/>
      </g>
     </g>
    </g>
    <g id="ytick_3">
     <g id="line2d_7">
      <g/>
     </g>
     <g id="text_8">
      <!-- 4 -->
      <defs>
       <path d="M 37.796875 64.3125 
L 12.890625 25.390625 
L 37.796875 25.390625 
z
M 35.203125 72.90625 
L 47.609375 72.90625 
L 47.609375 25.390625 
L 58.015625 25.390625 
L 58.015625 17.1875 
L 47.609375 17.1875 
L 47.609375 0 
L 37.796875 0 
L 37.796875 17.1875 
L 4.890625 17.1875 
L 4.890625 26.703125 
z
" id="DejaVuSans-52"/>
      </defs>
      <g transform="translate(-347.716667 176.107099)scale(0.2 -0.2)">
       <use xlink:href="#DejaVuSans-52"/>
      </g>
     </g>
    </g>
    <g id="ytick_4">
     <g id="line2d_8">
      <g/>
     </g>
     <g id="text_9">
      <!-- 6 -->
      <defs>
       <path d="M 33.015625 40.375 
Q 26.375 40.375 22.484375 35.828125 
Q 18.609375 31.296875 18.609375 23.390625 
Q 18.609375 15.53125 22.484375 10.953125 
Q 26.375 6.390625 33.015625 6.390625 
Q 39.65625 6.390625 43.53125 10.953125 
Q 47.40625 15.53125 47.40625 23.390625 
Q 47.40625 31.296875 43.53125 35.828125 
Q 39.65625 40.375 33.015625 40.375 
z
M 52.59375 71.296875 
L 52.59375 62.3125 
Q 48.875 64.0625 45.09375 64.984375 
Q 41.3125 65.921875 37.59375 65.921875 
Q 27.828125 65.921875 22.671875 59.328125 
Q 17.53125 52.734375 16.796875 39.40625 
Q 19.671875 43.65625 24.015625 45.921875 
Q 28.375 48.1875 33.59375 48.1875 
Q 44.578125 48.1875 50.953125 41.515625 
Q 57.328125 34.859375 57.328125 23.390625 
Q 57.328125 12.15625 50.6875 5.359375 
Q 44.046875 -1.421875 33.015625 -1.421875 
Q 20.359375 -1.421875 13.671875 8.265625 
Q 6.984375 17.96875 6.984375 36.375 
Q 6.984375 53.65625 15.1875 63.9375 
Q 23.390625 74.21875 37.203125 74.21875 
Q 40.921875 74.21875 44.703125 73.484375 
Q 48.484375 72.75 52.59375 71.296875 
z
" id="DejaVuSans-54"/>
      </defs>
      <g transform="translate(-347.716667 101.840838)scale(0.2 -0.2)">
       <use xlink:href="#DejaVuSans-54"/>
      </g>
     </g>
    </g>
    <g id="ytick_5">
     <g id="line2d_9">
      <g/>
     </g>
     <g id="text_10">
      <!-- 8 -->
      <defs>
       <path d="M 31.78125 34.625 
Q 24.75 34.625 20.71875 30.859375 
Q 16.703125 27.09375 16.703125 20.515625 
Q 16.703125 13.921875 20.71875 10.15625 
Q 24.75 6.390625 31.78125 6.390625 
Q 38.8125 6.390625 42.859375 10.171875 
Q 46.921875 13.96875 46.921875 20.515625 
Q 46.921875 27.09375 42.890625 30.859375 
Q 38.875 34.625 31.78125 34.625 
z
M 21.921875 38.8125 
Q 15.578125 40.375 12.03125 44.71875 
Q 8.5 49.078125 8.5 55.328125 
Q 8.5 64.0625 14.71875 69.140625 
Q 20.953125 74.21875 31.78125 74.21875 
Q 42.671875 74.21875 48.875 69.140625 
Q 55.078125 64.0625 55.078125 55.328125 
Q 55.078125 49.078125 51.53125 44.71875 
Q 48 40.375 41.703125 38.8125 
Q 48.828125 37.15625 52.796875 32.3125 
Q 56.78125 27.484375 56.78125 20.515625 
Q 56.78125 9.90625 50.3125 4.234375 
Q 43.84375 -1.421875 31.78125 -1.421875 
Q 19.734375 -1.421875 13.25 4.234375 
Q 6.78125 9.90625 6.78125 20.515625 
Q 6.78125 27.484375 10.78125 32.3125 
Q 14.796875 37.15625 21.921875 38.8125 
z
M 18.3125 54.390625 
Q 18.3125 48.734375 21.84375 45.5625 
Q 25.390625 42.390625 31.78125 42.390625 
Q 38.140625 42.390625 41.71875 45.5625 
Q 45.3125 48.734375 45.3125 54.390625 
Q 45.3125 60.0625 41.71875 63.234375 
Q 38.140625 66.40625 31.78125 66.40625 
Q 25.390625 66.40625 21.84375 63.234375 
Q 18.3125 60.0625 18.3125 54.390625 
z
" id="DejaVuSans-56"/>
      </defs>
      <g transform="translate(-347.716667 27.574577)scale(0.2 -0.2)">
       <use xlink:href="#DejaVuSans-56"/>
      </g>
     </g>
    </g>
    <g id="text_11">
     <!--   -->
     <g transform="translate(-355.376917 163.2421)rotate(-90)scale(0.176 -0.176)">
      <use xlink:href="#DejaVuSans-32"/>
     </g>
    </g>
   </g>
   <g id="line2d_10">
    <path clip-path="url(#pfe9c08dd7f)" d="M 0 0 
" style="fill:none;stroke:#000000;stroke-linecap:square;stroke-width:2;"/>
   </g>
   <g id="line2d_11">
    <path clip-path="url(#pfe9c08dd7f)" d="M 0 0 
" style="fill:none;stroke:#000000;stroke-dasharray:7.4,3.2;stroke-dashoffset:0;stroke-width:2;"/>
   </g>
   <g id="line2d_12">
    <path clip-path="url(#pfe9c08dd7f)" d="M 0 0 
" style="fill:none;stroke:#000000;stroke-dasharray:2,3.3;stroke-dashoffset:0;stroke-width:2;"/>
   </g>
   <g id="patch_3">
    <path style="fill:none;stroke:#000000;stroke-linecap:square;stroke-linejoin:miter;stroke-width:0.8;"/>
   </g>
   <g id="patch_4">
    <path style="fill:none;stroke:#000000;stroke-linecap:square;stroke-linejoin:miter;stroke-width:0.8;"/>
   </g>
  </g>
  <g id="axes_2">
   <g id="patch_5">
    <path d="M 40.325 317.041183 
L 353.516667 317.041183 
L 353.516667 3.849516 
L 40.325 3.849516 
z
" style="fill:#ffffff;"/>
   </g>
   <g id="matplotlib.axis_3">
    <g id="xtick_5">
     <g id="line2d_13">
      <g>
       <use style="stroke:#000000;stroke-width:1.6;" x="98.33366" xlink:href="#mfc8c4ea1ec" y="317.041183"/>
      </g>
     </g>
     <g id="text_12">
      <!-- −0.5 -->
      <defs>
       <path d="M 10.59375 35.5 
L 73.1875 35.5 
L 73.1875 27.203125 
L 10.59375 27.203125 
z
" id="DejaVuSans-8722"/>
      </defs>
      <g transform="translate(74.050848 346.938058)scale(0.2 -0.2)">
       <use xlink:href="#DejaVuSans-8722"/>
       <use x="83.789062" xlink:href="#DejaVuSans-48"/>
       <use x="147.412109" xlink:href="#DejaVuSans-46"/>
       <use x="179.199219" xlink:href="#DejaVuSans-53"/>
      </g>
     </g>
    </g>
    <g id="xtick_6">
     <g id="line2d_14">
      <g>
       <use style="stroke:#000000;stroke-width:1.6;" x="198.216844" xlink:href="#mfc8c4ea1ec" y="317.041183"/>
      </g>
     </g>
     <g id="text_13">
      <!-- 0.0 -->
      <g transform="translate(182.313719 346.938058)scale(0.2 -0.2)">
       <use xlink:href="#DejaVuSans-48"/>
       <use x="63.623047" xlink:href="#DejaVuSans-46"/>
       <use x="95.410156" xlink:href="#DejaVuSans-48"/>
      </g>
     </g>
    </g>
    <g id="xtick_7">
     <g id="line2d_15">
      <g>
       <use style="stroke:#000000;stroke-width:1.6;" x="298.100028" xlink:href="#mfc8c4ea1ec" y="317.041183"/>
      </g>
     </g>
     <g id="text_14">
      <!-- 0.5 -->
      <g transform="translate(282.196903 346.938058)scale(0.2 -0.2)">
       <use xlink:href="#DejaVuSans-48"/>
       <use x="63.623047" xlink:href="#DejaVuSans-46"/>
       <use x="95.410156" xlink:href="#DejaVuSans-53"/>
      </g>
     </g>
    </g>
   </g>
   <g id="matplotlib.axis_4">
    <g id="ytick_6">
     <g id="line2d_16">
      <g>
       <use style="stroke:#000000;stroke-width:1.6;" x="40.325" xlink:href="#m47869abdc5" y="317.041183"/>
      </g>
     </g>
     <g id="text_15">
      <!-- 0 -->
      <g transform="translate(12.9 324.63962)scale(0.2 -0.2)">
       <use xlink:href="#DejaVuSans-48"/>
      </g>
     </g>
    </g>
    <g id="ytick_7">
     <g id="line2d_17">
      <g>
       <use style="stroke:#000000;stroke-width:1.6;" x="40.325" xlink:href="#m47869abdc5" y="255.132946"/>
      </g>
     </g>
     <g id="text_16">
      <!-- 2 -->
      <g transform="translate(12.9 262.731384)scale(0.2 -0.2)">
       <use xlink:href="#DejaVuSans-50"/>
      </g>
     </g>
    </g>
    <g id="ytick_8">
     <g id="line2d_18">
      <g>
       <use style="stroke:#000000;stroke-width:1.6;" x="40.325" xlink:href="#m47869abdc5" y="193.22471"/>
      </g>
     </g>
     <g id="text_17">
      <!-- 4 -->
      <g transform="translate(12.9 200.823147)scale(0.2 -0.2)">
       <use xlink:href="#DejaVuSans-52"/>
      </g>
     </g>
    </g>
    <g id="ytick_9">
     <g id="line2d_19">
      <g>
       <use style="stroke:#000000;stroke-width:1.6;" x="40.325" xlink:href="#m47869abdc5" y="131.316473"/>
      </g>
     </g>
     <g id="text_18">
      <!-- 6 -->
      <g transform="translate(12.9 138.914911)scale(0.2 -0.2)">
       <use xlink:href="#DejaVuSans-54"/>
      </g>
     </g>
    </g>
    <g id="ytick_10">
     <g id="line2d_20">
      <g>
       <use style="stroke:#000000;stroke-width:1.6;" x="40.325" xlink:href="#m47869abdc5" y="69.408237"/>
      </g>
     </g>
     <g id="text_19">
      <!-- 8 -->
      <g transform="translate(12.9 77.006674)scale(0.2 -0.2)">
       <use xlink:href="#DejaVuSans-56"/>
      </g>
     </g>
    </g>
    <g id="ytick_11">
     <g id="line2d_21">
      <g>
       <use style="stroke:#000000;stroke-width:1.6;" x="40.325" xlink:href="#m47869abdc5" y="7.5"/>
      </g>
     </g>
     <g id="text_20">
      <!-- 10 -->
      <defs>
       <path d="M 12.40625 8.296875 
L 28.515625 8.296875 
L 28.515625 63.921875 
L 10.984375 60.40625 
L 10.984375 69.390625 
L 28.421875 72.90625 
L 38.28125 72.90625 
L 38.28125 8.296875 
L 54.390625 8.296875 
L 54.390625 0 
L 12.40625 0 
z
" id="DejaVuSans-49"/>
      </defs>
      <g transform="translate(0.175 15.098437)scale(0.2 -0.2)">
       <use xlink:href="#DejaVuSans-49"/>
       <use x="63.623047" xlink:href="#DejaVuSans-48"/>
      </g>
     </g>
    </g>
   </g>
   <g id="line2d_22">
    <path clip-path="url(#pe121141c5d)" d="M 54.560985 317.03261 
L 58.419527 316.961315 
L 62.278069 316.688317 
L 66.136611 316.428562 
L 69.995153 316.62047 
L 73.853695 316.925494 
L 79.641509 317.036993 
L 85.429322 316.977049 
L 89.287864 316.733693 
L 93.146406 316.446788 
L 95.075677 316.451855 
L 100.86349 316.819751 
L 102.792761 316.789641 
L 104.722032 316.611416 
L 108.580574 315.902961 
L 114.368388 314.717705 
L 120.156201 313.69472 
L 122.085472 313.476319 
L 125.944014 313.458046 
L 129.802556 313.711215 
L 133.661098 314.34539 
L 135.590369 314.446571 
L 137.51964 314.046599 
L 139.448911 313.107364 
L 143.307453 310.748162 
L 145.236725 309.982527 
L 147.165996 309.446078 
L 149.095267 308.677404 
L 151.024538 307.20464 
L 152.953809 304.823001 
L 156.812351 298.461579 
L 158.741622 295.819122 
L 160.670893 294.237335 
L 164.529435 292.543304 
L 166.458706 290.444519 
L 168.387977 286.504808 
L 170.317248 280.934042 
L 174.17579 268.668735 
L 178.034332 257.068543 
L 179.963604 250.278 
L 181.892875 242.415737 
L 183.822146 233.520192 
L 185.751417 223.645513 
L 187.680688 212.763724 
L 189.609959 200.5948 
L 191.53923 186.572703 
L 195.397772 154.152469 
L 197.327043 141.217086 
L 199.256314 136.160086 
L 201.185585 141.074594 
L 203.114856 154.504157 
L 205.044127 172.887579 
L 208.902669 211.554735 
L 210.83194 228.001611 
L 212.761211 241.792487 
L 214.690483 253.578957 
L 216.619754 264.192539 
L 218.549025 273.849838 
L 220.478296 282.028412 
L 222.407567 288.01605 
L 224.336838 291.612574 
L 226.266109 293.432388 
L 228.19538 294.561625 
L 230.124651 295.885331 
L 232.053922 297.690057 
L 235.912464 302.023961 
L 239.771006 306.559633 
L 241.700277 308.623884 
L 243.629548 310.263945 
L 245.558819 311.482982 
L 247.488091 312.44407 
L 249.417362 313.237943 
L 251.346633 313.844381 
L 255.205175 314.626524 
L 260.992988 315.629911 
L 262.922259 315.85337 
L 264.85153 315.937098 
L 266.780801 315.794619 
L 272.568614 314.592128 
L 274.497885 314.637144 
L 282.21497 316.020759 
L 291.861325 316.675428 
L 295.719867 316.960729 
L 299.578409 317.0326 
L 299.578409 317.0326 
" style="fill:none;stroke:#000000;stroke-linecap:square;stroke-width:2;"/>
   </g>
   <g id="line2d_23">
    <path clip-path="url(#pe121141c5d)" d="M 120.460323 317.028402 
L 122.183318 316.966513 
L 123.906313 316.738639 
L 125.629308 316.316335 
L 127.352303 316.017566 
L 129.075298 316.171986 
L 130.798293 316.50373 
L 132.521288 316.433552 
L 134.244283 315.675285 
L 135.967277 314.547128 
L 137.690272 313.767576 
L 139.413267 313.636126 
L 141.136262 313.969876 
L 144.582252 315.129964 
L 146.305247 315.091971 
L 148.028242 314.524838 
L 149.751237 313.756048 
L 151.474232 313.200817 
L 154.920222 313.085975 
L 156.643217 312.069808 
L 158.366212 310.486423 
L 160.089207 309.124602 
L 161.812202 308.485398 
L 163.535197 308.808646 
L 165.258192 308.922822 
L 166.981187 307.611262 
L 168.704182 305.89787 
L 172.150171 304.879537 
L 173.873166 301.078279 
L 175.596161 293.421256 
L 177.319156 284.879265 
L 179.042151 277.17101 
L 180.765146 268.946089 
L 182.488141 258.614962 
L 187.657126 224.726616 
L 189.380121 208.41096 
L 191.103116 182.745414 
L 192.826111 144.873132 
L 196.272101 44.231914 
L 197.995096 18.763327 
L 199.718091 33.218432 
L 204.887076 144.937248 
L 206.610071 174.368162 
L 208.333065 198.903117 
L 210.05606 219.086912 
L 211.779055 234.19216 
L 213.50205 246.057896 
L 215.225045 258.841844 
L 216.94804 272.835454 
L 218.671035 283.991365 
L 220.39403 290.810427 
L 222.117025 295.497153 
L 223.84002 299.405655 
L 225.563015 302.481895 
L 227.28601 304.697505 
L 229.009005 306.264562 
L 230.732 307.566629 
L 232.454995 309.037983 
L 234.17799 310.915143 
L 235.900985 312.596584 
L 237.62398 313.178656 
L 239.346975 312.54361 
L 241.06997 311.592496 
L 242.792965 311.360558 
L 244.515959 311.767601 
L 247.961949 313.019759 
L 249.684944 312.870555 
L 251.407939 311.602068 
L 253.130934 310.570613 
L 254.853929 311.328053 
L 258.299919 315.596841 
L 260.022914 316.643446 
L 261.745909 316.968847 
L 265.191899 317.039552 
L 268.637889 316.969158 
L 270.360884 316.745884 
L 273.806874 315.905418 
L 275.529869 315.765103 
L 277.252864 315.748755 
L 278.975859 315.86081 
L 282.421848 316.658672 
L 284.144843 316.664547 
L 285.867838 316.158646 
L 287.590833 315.424103 
L 289.313828 315.110537 
L 292.759818 315.681209 
L 294.482813 315.080917 
L 296.205808 314.030534 
L 297.928803 313.567989 
L 299.651798 314.152956 
L 301.374793 315.378531 
L 303.097788 316.418738 
L 304.820783 316.895941 
L 308.266773 317.039098 
L 311.712763 317.012427 
L 313.435758 316.898378 
L 315.158752 316.595928 
L 316.881747 316.17896 
L 318.604742 316.026309 
L 320.327737 316.329279 
L 322.050732 316.745512 
L 323.773727 316.960645 
L 325.496722 316.968756 
L 327.219717 316.739474 
L 328.942712 316.124104 
L 330.665707 315.30155 
L 332.388702 315.026611 
L 334.111697 315.643998 
L 335.834692 316.466234 
L 337.557687 316.900462 
L 339.280682 317.01976 
L 339.280682 317.01976 
" style="fill:none;stroke:#000000;stroke-dasharray:7.4,3.2;stroke-dashoffset:0;stroke-width:2;"/>
   </g>
   <g id="patch_6">
    <path d="M 40.325 317.041183 
L 40.325 3.849516 
" style="fill:none;stroke:#000000;stroke-linecap:square;stroke-linejoin:miter;stroke-width:0.8;"/>
   </g>
   <g id="patch_7">
    <path d="M 40.325 317.041183 
L 353.516667 317.041183 
" style="fill:none;stroke:#000000;stroke-linecap:square;stroke-linejoin:miter;stroke-width:0.8;"/>
   </g>
  </g>
 </g>
 <defs>
  <clipPath id="pfe9c08dd7f">
   <rect height="313.191667" width="313.191667" x="-320.291667" y="3.849516"/>
  </clipPath>
  <clipPath id="pe121141c5d">
   <rect height="313.191667" width="313.191667" x="40.325" y="3.849516"/>
  </clipPath>
 </defs>
</svg>
