<?xml version="1.0" encoding="utf-8" standalone="no"?>
<!DOCTYPE svg PUBLIC "-//W3C//DTD SVG 1.1//EN"
  "http://www.w3.org/Graphics/SVG/1.1/DTD/svg11.dtd">
<!-- Created with matplotlib (https://matplotlib.org/) -->
<svg height="333.391667pt" version="1.1" viewBox="0 0 340.016667 333.391667" width="340.016667pt" xmlns="http://www.w3.org/2000/svg" xmlns:xlink="http://www.w3.org/1999/xlink">
 <defs>
  <style type="text/css">
*{stroke-linecap:butt;stroke-linejoin:round;}
  </style>
 </defs>
 <g id="figure_1">
  <g id="patch_1">
   <path d="M 0 333.391667 
L 340.016667 333.391667 
L 340.016667 0 
L 0 0 
z
" style="fill:#ffffff;"/>
  </g>
  <g id="axes_1">
   <g id="patch_2">
    <path d="M -322.416667 299.691667 
L -26.225 299.691667 
L -26.225 3.5 
L -322.416667 3.5 
z
" style="fill:#ffffff;"/>
   </g>
   <g id="matplotlib.axis_1">
    <g id="xtick_1">
     <g id="line2d_1">
      <defs>
       <path d="M 0 0 
L 0 3.5 
" id="m09a7f97ce6" style="stroke:#000000;stroke-width:1.6;"/>
      </defs>
      <g/>
     </g>
     <g id="text_1">
      <!-- 0.2 -->
      <defs>
       <path d="M 31.78125 66.40625 
Q 24.171875 66.40625 20.328125 58.90625 
Q 16.5 51.421875 16.5 36.375 
Q 16.5 21.390625 20.328125 13.890625 
Q 24.171875 6.390625 31.78125 6.390625 
Q 39.453125 6.390625 43.28125 13.890625 
Q 47.125 21.390625 47.125 36.375 
Q 47.125 51.421875 43.28125 58.90625 
Q 39.453125 66.40625 31.78125 66.40625 
z
M 31.78125 74.21875 
Q 44.046875 74.21875 50.515625 64.515625 
Q 56.984375 54.828125 56.984375 36.375 
Q 56.984375 17.96875 50.515625 8.265625 
Q 44.046875 -1.421875 31.78125 -1.421875 
Q 19.53125 -1.421875 13.0625 8.265625 
Q 6.59375 17.96875 6.59375 36.375 
Q 6.59375 54.828125 13.0625 64.515625 
Q 19.53125 74.21875 31.78125 74.21875 
z
" id="DejaVuSans-48"/>
       <path d="M 10.6875 12.40625 
L 21 12.40625 
L 21 0 
L 10.6875 0 
z
" id="DejaVuSans-46"/>
       <path d="M 19.1875 8.296875 
L 53.609375 8.296875 
L 53.609375 0 
L 7.328125 0 
L 7.328125 8.296875 
Q 12.9375 14.109375 22.625 23.890625 
Q 32.328125 33.6875 34.8125 36.53125 
Q 39.546875 41.84375 41.421875 45.53125 
Q 43.3125 49.21875 43.3125 52.78125 
Q 43.3125 58.59375 39.234375 62.25 
Q 35.15625 65.921875 28.609375 65.921875 
Q 23.96875 65.921875 18.8125 64.3125 
Q 13.671875 62.703125 7.8125 59.421875 
L 7.8125 69.390625 
Q 13.765625 71.78125 18.9375 73 
Q 24.125 74.21875 28.421875 74.21875 
Q 39.75 74.21875 46.484375 68.546875 
Q 53.21875 62.890625 53.21875 53.421875 
Q 53.21875 48.921875 51.53125 44.890625 
Q 49.859375 40.875 45.40625 35.40625 
Q 44.1875 33.984375 37.640625 27.21875 
Q 31.109375 20.453125 19.1875 8.296875 
z
" id="DejaVuSans-50"/>
      </defs>
      <g transform="translate(-265.34431 329.588542)scale(0.2 -0.2)">
       <use xlink:href="#DejaVuSans-48"/>
       <use x="63.623047" xlink:href="#DejaVuSans-46"/>
       <use x="95.410156" xlink:href="#DejaVuSans-50"/>
      </g>
     </g>
    </g>
    <g id="xtick_2">
     <g id="line2d_2">
      <g/>
     </g>
     <g id="text_2">
      <!-- 0.4 -->
      <defs>
       <path d="M 37.796875 64.3125 
L 12.890625 25.390625 
L 37.796875 25.390625 
z
M 35.203125 72.90625 
L 47.609375 72.90625 
L 47.609375 25.390625 
L 58.015625 25.390625 
L 58.015625 17.1875 
L 47.609375 17.1875 
L 47.609375 0 
L 37.796875 0 
L 37.796875 17.1875 
L 4.890625 17.1875 
L 4.890625 26.703125 
z
" id="DejaVuSans-52"/>
      </defs>
      <g transform="translate(-160.859379 329.588542)scale(0.2 -0.2)">
       <use xlink:href="#DejaVuSans-48"/>
       <use x="63.623047" xlink:href="#DejaVuSans-46"/>
       <use x="95.410156" xlink:href="#DejaVuSans-52"/>
      </g>
     </g>
    </g>
    <g id="xtick_3">
     <g id="line2d_3">
      <g/>
     </g>
     <g id="text_3">
      <!-- 0.6 -->
      <defs>
       <path d="M 33.015625 40.375 
Q 26.375 40.375 22.484375 35.828125 
Q 18.609375 31.296875 18.609375 23.390625 
Q 18.609375 15.53125 22.484375 10.953125 
Q 26.375 6.390625 33.015625 6.390625 
Q 39.65625 6.390625 43.53125 10.953125 
Q 47.40625 15.53125 47.40625 23.390625 
Q 47.40625 31.296875 43.53125 35.828125 
Q 39.65625 40.375 33.015625 40.375 
z
M 52.59375 71.296875 
L 52.59375 62.3125 
Q 48.875 64.0625 45.09375 64.984375 
Q 41.3125 65.921875 37.59375 65.921875 
Q 27.828125 65.921875 22.671875 59.328125 
Q 17.53125 52.734375 16.796875 39.40625 
Q 19.671875 43.65625 24.015625 45.921875 
Q 28.375 48.1875 33.59375 48.1875 
Q 44.578125 48.1875 50.953125 41.515625 
Q 57.328125 34.859375 57.328125 23.390625 
Q 57.328125 12.15625 50.6875 5.359375 
Q 44.046875 -1.421875 33.015625 -1.421875 
Q 20.359375 -1.421875 13.671875 8.265625 
Q 6.984375 17.96875 6.984375 36.375 
Q 6.984375 53.65625 15.1875 63.9375 
Q 23.390625 74.21875 37.203125 74.21875 
Q 40.921875 74.21875 44.703125 73.484375 
Q 48.484375 72.75 52.59375 71.296875 
z
" id="DejaVuSans-54"/>
      </defs>
      <g transform="translate(-56.374447 329.588542)scale(0.2 -0.2)">
       <use xlink:href="#DejaVuSans-48"/>
       <use x="63.623047" xlink:href="#DejaVuSans-46"/>
       <use x="95.410156" xlink:href="#DejaVuSans-54"/>
      </g>
     </g>
    </g>
    <g id="text_4">
     <!--   -->
     <defs>
      <path id="DejaVuSans-32"/>
     </defs>
     <g transform="translate(-177.117583 351.121167)scale(0.176 -0.176)">
      <use xlink:href="#DejaVuSans-32"/>
     </g>
    </g>
   </g>
   <g id="matplotlib.axis_2">
    <g id="ytick_1">
     <g id="line2d_4">
      <defs>
       <path d="M 0 0 
L -3.5 0 
" id="mabaaf8b75d" style="stroke:#000000;stroke-width:1.6;"/>
      </defs>
      <g/>
     </g>
     <g id="text_5">
      <!-- 0 -->
      <g transform="translate(-349.841667 307.290104)scale(0.2 -0.2)">
       <use xlink:href="#DejaVuSans-48"/>
      </g>
     </g>
    </g>
    <g id="ytick_2">
     <g id="line2d_5">
      <g/>
     </g>
     <g id="text_6">
      <!-- 5 -->
      <defs>
       <path d="M 10.796875 72.90625 
L 49.515625 72.90625 
L 49.515625 64.59375 
L 19.828125 64.59375 
L 19.828125 46.734375 
Q 21.96875 47.46875 24.109375 47.828125 
Q 26.265625 48.1875 28.421875 48.1875 
Q 40.625 48.1875 47.75 41.5 
Q 54.890625 34.8125 54.890625 23.390625 
Q 54.890625 11.625 47.5625 5.09375 
Q 40.234375 -1.421875 26.90625 -1.421875 
Q 22.3125 -1.421875 17.546875 -0.640625 
Q 12.796875 0.140625 7.71875 1.703125 
L 7.71875 11.625 
Q 12.109375 9.234375 16.796875 8.0625 
Q 21.484375 6.890625 26.703125 6.890625 
Q 35.15625 6.890625 40.078125 11.328125 
Q 45.015625 15.765625 45.015625 23.390625 
Q 45.015625 31 40.078125 35.4375 
Q 35.15625 39.890625 26.703125 39.890625 
Q 22.75 39.890625 18.8125 39.015625 
Q 14.890625 38.140625 10.796875 36.28125 
z
" id="DejaVuSans-53"/>
      </defs>
      <g transform="translate(-349.841667 236.115467)scale(0.2 -0.2)">
       <use xlink:href="#DejaVuSans-53"/>
      </g>
     </g>
    </g>
    <g id="ytick_3">
     <g id="line2d_6">
      <g/>
     </g>
     <g id="text_7">
      <!-- 10 -->
      <defs>
       <path d="M 12.40625 8.296875 
L 28.515625 8.296875 
L 28.515625 63.921875 
L 10.984375 60.40625 
L 10.984375 69.390625 
L 28.421875 72.90625 
L 38.28125 72.90625 
L 38.28125 8.296875 
L 54.390625 8.296875 
L 54.390625 0 
L 12.40625 0 
z
" id="DejaVuSans-49"/>
      </defs>
      <g transform="translate(-362.566667 164.940829)scale(0.2 -0.2)">
       <use xlink:href="#DejaVuSans-49"/>
       <use x="63.623047" xlink:href="#DejaVuSans-48"/>
      </g>
     </g>
    </g>
    <g id="ytick_4">
     <g id="line2d_7">
      <g/>
     </g>
     <g id="text_8">
      <!-- 15 -->
      <g transform="translate(-362.566667 93.766191)scale(0.2 -0.2)">
       <use xlink:href="#DejaVuSans-49"/>
       <use x="63.623047" xlink:href="#DejaVuSans-53"/>
      </g>
     </g>
    </g>
    <g id="ytick_5">
     <g id="line2d_8">
      <g/>
     </g>
     <g id="text_9">
      <!-- 20 -->
      <g transform="translate(-362.566667 22.591554)scale(0.2 -0.2)">
       <use xlink:href="#DejaVuSans-50"/>
       <use x="63.623047" xlink:href="#DejaVuSans-48"/>
      </g>
     </g>
    </g>
    <g id="text_10">
     <!--   -->
     <g transform="translate(-370.226917 154.392583)rotate(-90)scale(0.176 -0.176)">
      <use xlink:href="#DejaVuSans-32"/>
     </g>
    </g>
   </g>
   <g id="line2d_9">
    <path clip-path="url(#pac66a00ca4)" d="M 0 0 
" style="fill:none;stroke:#000000;stroke-linecap:square;stroke-width:2;"/>
   </g>
   <g id="line2d_10">
    <path clip-path="url(#pac66a00ca4)" d="M 0 0 
" style="fill:none;stroke:#000000;stroke-dasharray:7.4,3.2;stroke-dashoffset:0;stroke-width:2;"/>
   </g>
   <g id="line2d_11">
    <path clip-path="url(#pac66a00ca4)" d="M 0 0 
" style="fill:none;stroke:#000000;stroke-dasharray:2,3.3;stroke-dashoffset:0;stroke-width:2;"/>
   </g>
   <g id="patch_3">
    <path style="fill:none;stroke:#000000;stroke-linecap:square;stroke-linejoin:miter;stroke-width:0.8;"/>
   </g>
   <g id="patch_4">
    <path style="fill:none;stroke:#000000;stroke-linecap:square;stroke-linejoin:miter;stroke-width:0.8;"/>
   </g>
  </g>
  <g id="axes_2">
   <g id="patch_5">
    <path d="M 40.325 299.691667 
L 336.516667 299.691667 
L 336.516667 3.5 
L 40.325 3.5 
z
" style="fill:#ffffff;"/>
   </g>
   <g id="matplotlib.axis_3">
    <g id="xtick_4">
     <g id="line2d_12">
      <g>
       <use style="stroke:#000000;stroke-width:1.6;" x="159.873965" xlink:href="#m09a7f97ce6" y="299.691667"/>
      </g>
     </g>
     <g id="text_11">
      <!-- 0.0 -->
      <g transform="translate(143.97084 329.588542)scale(0.2 -0.2)">
       <use xlink:href="#DejaVuSans-48"/>
       <use x="63.623047" xlink:href="#DejaVuSans-46"/>
       <use x="95.410156" xlink:href="#DejaVuSans-48"/>
      </g>
     </g>
    </g>
    <g id="xtick_5">
     <g id="line2d_13">
      <g>
       <use style="stroke:#000000;stroke-width:1.6;" x="291.650709" xlink:href="#m09a7f97ce6" y="299.691667"/>
      </g>
     </g>
     <g id="text_12">
      <!-- 0.2 -->
      <g transform="translate(275.747584 329.588542)scale(0.2 -0.2)">
       <use xlink:href="#DejaVuSans-48"/>
       <use x="63.623047" xlink:href="#DejaVuSans-46"/>
       <use x="95.410156" xlink:href="#DejaVuSans-50"/>
      </g>
     </g>
    </g>
   </g>
   <g id="matplotlib.axis_4">
    <g id="ytick_6">
     <g id="line2d_14">
      <g>
       <use style="stroke:#000000;stroke-width:1.6;" x="40.325" xlink:href="#mabaaf8b75d" y="299.691667"/>
      </g>
     </g>
     <g id="text_13">
      <!-- 0 -->
      <g transform="translate(12.9 307.290104)scale(0.2 -0.2)">
       <use xlink:href="#DejaVuSans-48"/>
      </g>
     </g>
    </g>
    <g id="ytick_7">
     <g id="line2d_15">
      <g>
       <use style="stroke:#000000;stroke-width:1.6;" x="40.325" xlink:href="#mabaaf8b75d" y="253.154744"/>
      </g>
     </g>
     <g id="text_14">
      <!-- 2 -->
      <g transform="translate(12.9 260.753181)scale(0.2 -0.2)">
       <use xlink:href="#DejaVuSans-50"/>
      </g>
     </g>
    </g>
    <g id="ytick_8">
     <g id="line2d_16">
      <g>
       <use style="stroke:#000000;stroke-width:1.6;" x="40.325" xlink:href="#mabaaf8b75d" y="206.61782"/>
      </g>
     </g>
     <g id="text_15">
      <!-- 4 -->
      <g transform="translate(12.9 214.216258)scale(0.2 -0.2)">
       <use xlink:href="#DejaVuSans-52"/>
      </g>
     </g>
    </g>
    <g id="ytick_9">
     <g id="line2d_17">
      <g>
       <use style="stroke:#000000;stroke-width:1.6;" x="40.325" xlink:href="#mabaaf8b75d" y="160.080897"/>
      </g>
     </g>
     <g id="text_16">
      <!-- 6 -->
      <g transform="translate(12.9 167.679335)scale(0.2 -0.2)">
       <use xlink:href="#DejaVuSans-54"/>
      </g>
     </g>
    </g>
    <g id="ytick_10">
     <g id="line2d_18">
      <g>
       <use style="stroke:#000000;stroke-width:1.6;" x="40.325" xlink:href="#mabaaf8b75d" y="113.543974"/>
      </g>
     </g>
     <g id="text_17">
      <!-- 8 -->
      <defs>
       <path d="M 31.78125 34.625 
Q 24.75 34.625 20.71875 30.859375 
Q 16.703125 27.09375 16.703125 20.515625 
Q 16.703125 13.921875 20.71875 10.15625 
Q 24.75 6.390625 31.78125 6.390625 
Q 38.8125 6.390625 42.859375 10.171875 
Q 46.921875 13.96875 46.921875 20.515625 
Q 46.921875 27.09375 42.890625 30.859375 
Q 38.875 34.625 31.78125 34.625 
z
M 21.921875 38.8125 
Q 15.578125 40.375 12.03125 44.71875 
Q 8.5 49.078125 8.5 55.328125 
Q 8.5 64.0625 14.71875 69.140625 
Q 20.953125 74.21875 31.78125 74.21875 
Q 42.671875 74.21875 48.875 69.140625 
Q 55.078125 64.0625 55.078125 55.328125 
Q 55.078125 49.078125 51.53125 44.71875 
Q 48 40.375 41.703125 38.8125 
Q 48.828125 37.15625 52.796875 32.3125 
Q 56.78125 27.484375 56.78125 20.515625 
Q 56.78125 9.90625 50.3125 4.234375 
Q 43.84375 -1.421875 31.78125 -1.421875 
Q 19.734375 -1.421875 13.25 4.234375 
Q 6.78125 9.90625 6.78125 20.515625 
Q 6.78125 27.484375 10.78125 32.3125 
Q 14.796875 37.15625 21.921875 38.8125 
z
M 18.3125 54.390625 
Q 18.3125 48.734375 21.84375 45.5625 
Q 25.390625 42.390625 31.78125 42.390625 
Q 38.140625 42.390625 41.71875 45.5625 
Q 45.3125 48.734375 45.3125 54.390625 
Q 45.3125 60.0625 41.71875 63.234375 
Q 38.140625 66.40625 31.78125 66.40625 
Q 25.390625 66.40625 21.84375 63.234375 
Q 18.3125 60.0625 18.3125 54.390625 
z
" id="DejaVuSans-56"/>
      </defs>
      <g transform="translate(12.9 121.142412)scale(0.2 -0.2)">
       <use xlink:href="#DejaVuSans-56"/>
      </g>
     </g>
    </g>
    <g id="ytick_11">
     <g id="line2d_19">
      <g>
       <use style="stroke:#000000;stroke-width:1.6;" x="40.325" xlink:href="#mabaaf8b75d" y="67.007051"/>
      </g>
     </g>
     <g id="text_18">
      <!-- 10 -->
      <g transform="translate(0.175 74.605489)scale(0.2 -0.2)">
       <use xlink:href="#DejaVuSans-49"/>
       <use x="63.623047" xlink:href="#DejaVuSans-48"/>
      </g>
     </g>
    </g>
    <g id="ytick_12">
     <g id="line2d_20">
      <g>
       <use style="stroke:#000000;stroke-width:1.6;" x="40.325" xlink:href="#mabaaf8b75d" y="20.470128"/>
      </g>
     </g>
     <g id="text_19">
      <!-- 12 -->
      <g transform="translate(0.175 28.068566)scale(0.2 -0.2)">
       <use xlink:href="#DejaVuSans-49"/>
       <use x="63.623047" xlink:href="#DejaVuSans-50"/>
      </g>
     </g>
    </g>
   </g>
   <g id="line2d_21">
    <path clip-path="url(#pe5bffc5575)" d="M 53.788258 299.67346 
L 59.98375 299.522218 
L 64.114079 299.185159 
L 68.244407 298.768871 
L 70.309571 298.654936 
L 74.4399 298.759429 
L 78.570228 299.028896 
L 80.635392 299.057801 
L 84.765721 298.803094 
L 93.026378 297.877275 
L 97.156706 297.087615 
L 99.22187 296.680999 
L 101.287034 296.424042 
L 103.352199 296.38478 
L 107.482527 296.559721 
L 109.547691 296.317688 
L 111.612855 295.582412 
L 113.67802 294.315147 
L 115.743184 292.629136 
L 119.873512 288.724717 
L 124.003841 284.5447 
L 126.069005 282.012901 
L 128.134169 278.7885 
L 130.199333 274.518794 
L 132.264497 268.879569 
L 134.329662 261.647341 
L 136.394826 252.766533 
L 138.45999 242.370701 
L 140.525154 230.716727 
L 142.590318 218.034169 
L 144.655483 204.355499 
L 146.720647 189.425085 
L 148.785811 172.759443 
L 150.850975 153.874192 
L 152.91614 132.634279 
L 159.111632 64.56855 
L 161.176796 46.577256 
L 163.241961 33.422474 
L 165.307125 25.099413 
L 167.372289 20.765981 
L 169.437453 19.435124 
L 171.502617 20.487524 
L 173.567782 23.722887 
L 175.632946 29.121248 
L 177.69811 36.623094 
L 179.763274 46.018999 
L 181.828438 56.861842 
L 185.958767 79.807653 
L 192.154259 111.463685 
L 194.219424 124.302367 
L 196.284588 139.947571 
L 200.414916 175.925064 
L 202.480081 192.010064 
L 204.545245 204.461329 
L 206.610409 213.171154 
L 208.675573 219.40034 
L 210.740737 224.952862 
L 212.805902 231.173266 
L 219.001394 252.745324 
L 221.066558 258.360395 
L 223.131723 262.705872 
L 225.196887 266.22187 
L 231.392379 275.614109 
L 233.457544 278.378987 
L 235.522708 280.663454 
L 237.587872 282.435997 
L 239.653036 283.836662 
L 243.783365 286.362384 
L 247.913693 289.179873 
L 254.109186 293.468707 
L 256.17435 294.758848 
L 258.239514 295.901182 
L 260.304678 296.847686 
L 262.369843 297.567865 
L 264.435007 298.048108 
L 266.500171 298.288823 
L 268.565335 298.312063 
L 276.825992 297.760652 
L 278.891156 297.880868 
L 285.086649 298.664685 
L 287.151813 298.750623 
L 289.216977 298.644723 
L 297.477634 297.640442 
L 299.542798 297.758638 
L 303.673127 298.48577 
L 307.803455 299.224461 
L 311.933784 299.579285 
L 316.064112 299.670817 
L 316.064112 299.670817 
" style="fill:none;stroke:#000000;stroke-linecap:square;stroke-width:2;"/>
   </g>
   <g id="line2d_22">
    <path clip-path="url(#pe5bffc5575)" d="M 67.337666 299.67391 
L 73.378195 299.513716 
L 77.405215 299.120313 
L 81.432234 298.416229 
L 85.459254 297.430776 
L 91.499783 295.742173 
L 93.513293 295.475457 
L 95.526803 295.54518 
L 97.540313 295.953047 
L 103.580842 297.758819 
L 105.594352 297.961341 
L 107.607862 297.780149 
L 109.621371 297.18591 
L 111.634881 296.169324 
L 113.648391 294.721664 
L 115.661901 292.838118 
L 117.675411 290.540827 
L 119.68892 287.904765 
L 129.756469 273.617431 
L 131.769979 270.109486 
L 133.783489 265.568784 
L 135.796999 259.566494 
L 137.810508 251.860544 
L 139.824018 242.492059 
L 141.837528 231.79538 
L 145.864548 208.475884 
L 149.891567 184.43904 
L 151.905077 171.597796 
L 153.918587 157.598042 
L 155.932097 142.285724 
L 159.959116 108.828062 
L 163.986136 74.369286 
L 165.999645 58.011975 
L 168.013155 43.413097 
L 170.026665 31.642059 
L 172.040175 23.420731 
L 174.053685 18.855118 
L 176.067194 17.60352 
L 178.080704 19.323996 
L 180.094214 23.988261 
L 182.107724 31.792904 
L 184.121234 42.774319 
L 186.134743 56.467342 
L 192.175273 102.379073 
L 194.188783 115.301551 
L 196.202292 126.168542 
L 200.229312 144.917389 
L 202.242822 155.307579 
L 204.256331 167.4278 
L 210.296861 208.559697 
L 212.310371 220.605501 
L 214.32388 230.798111 
L 216.33739 239.056586 
L 218.3509 245.531569 
L 220.36441 250.554333 
L 222.37792 254.606747 
L 226.404939 261.91063 
L 228.418449 265.867265 
L 234.458978 278.269568 
L 236.472488 281.729725 
L 238.485998 284.579278 
L 240.499508 286.836023 
L 242.513017 288.599397 
L 244.526527 289.985894 
L 246.540037 291.08092 
L 248.553547 291.933105 
L 250.567057 292.584139 
L 258.621096 294.658643 
L 262.648115 296.087375 
L 266.675135 297.577049 
L 268.688645 298.219748 
L 270.702155 298.742337 
L 272.715664 299.128216 
L 274.729174 299.381478 
L 278.756194 299.559014 
L 282.783213 299.336841 
L 284.796723 299.037584 
L 288.823743 298.051136 
L 292.850762 296.990242 
L 294.864272 296.679661 
L 296.877782 296.586902 
L 298.891292 296.690001 
L 302.918311 297.251853 
L 314.99937 299.344438 
L 319.02639 299.605105 
L 323.053409 299.673776 
L 323.053409 299.673776 
" style="fill:none;stroke:#000000;stroke-dasharray:7.4,3.2;stroke-dashoffset:0;stroke-width:2;"/>
   </g>
   <g id="patch_6">
    <path d="M 40.325 299.691667 
L 40.325 3.5 
" style="fill:none;stroke:#000000;stroke-linecap:square;stroke-linejoin:miter;stroke-width:0.8;"/>
   </g>
   <g id="patch_7">
    <path d="M 40.325 299.691667 
L 336.516667 299.691667 
" style="fill:none;stroke:#000000;stroke-linecap:square;stroke-linejoin:miter;stroke-width:0.8;"/>
   </g>
  </g>
 </g>
 <defs>
  <clipPath id="pac66a00ca4">
   <rect height="296.191667" width="296.191667" x="-322.416667" y="3.5"/>
  </clipPath>
  <clipPath id="pe5bffc5575">
   <rect height="296.191667" width="296.191667" x="40.325" y="3.5"/>
  </clipPath>
 </defs>
</svg>
