<?xml version="1.0" encoding="utf-8" standalone="no"?>
<!DOCTYPE svg PUBLIC "-//W3C//DTD SVG 1.1//EN"
  "http://www.w3.org/Graphics/SVG/1.1/DTD/svg11.dtd">
<!-- Created with matplotlib (https://matplotlib.org/) -->
<svg height="358.891667pt" version="1.1" viewBox="0 0 352.766667 358.891667" width="352.766667pt" xmlns="http://www.w3.org/2000/svg" xmlns:xlink="http://www.w3.org/1999/xlink">
 <defs>
  <style type="text/css">
*{stroke-linecap:butt;stroke-linejoin:round;}
  </style>
 </defs>
 <g id="figure_1">
  <g id="patch_1">
   <path d="M 0 358.891667 
L 352.766667 358.891667 
L 352.766667 0 
L 0 0 
z
" style="fill:#ffffff;"/>
  </g>
  <g id="axes_1">
   <g id="patch_2">
    <path d="M -328.791667 325.191667 
L -7.1 325.191667 
L -7.1 3.5 
L -328.791667 3.5 
z
" style="fill:#ffffff;"/>
   </g>
   <g id="matplotlib.axis_1">
    <g id="xtick_1">
     <g id="line2d_1">
      <defs>
       <path d="M 0 0 
L 0 3.5 
" id="m8296265064" style="stroke:#000000;stroke-width:1.6;"/>
      </defs>
      <g/>
     </g>
     <g id="text_1">
      <!-- 0.0 -->
      <defs>
       <path d="M 31.78125 66.40625 
Q 24.171875 66.40625 20.328125 58.90625 
Q 16.5 51.421875 16.5 36.375 
Q 16.5 21.390625 20.328125 13.890625 
Q 24.171875 6.390625 31.78125 6.390625 
Q 39.453125 6.390625 43.28125 13.890625 
Q 47.125 21.390625 47.125 36.375 
Q 47.125 51.421875 43.28125 58.90625 
Q 39.453125 66.40625 31.78125 66.40625 
z
M 31.78125 74.21875 
Q 44.046875 74.21875 50.515625 64.515625 
Q 56.984375 54.828125 56.984375 36.375 
Q 56.984375 17.96875 50.515625 8.265625 
Q 44.046875 -1.421875 31.78125 -1.421875 
Q 19.53125 -1.421875 13.0625 8.265625 
Q 6.59375 17.96875 6.59375 36.375 
Q 6.59375 54.828125 13.0625 64.515625 
Q 19.53125 74.21875 31.78125 74.21875 
z
" id="DejaVuSans-48"/>
       <path d="M 10.6875 12.40625 
L 21 12.40625 
L 21 0 
L 10.6875 0 
z
" id="DejaVuSans-46"/>
      </defs>
      <g transform="translate(-302.045242 355.088542)scale(0.2 -0.2)">
       <use xlink:href="#DejaVuSans-48"/>
       <use x="63.623047" xlink:href="#DejaVuSans-46"/>
       <use x="95.410156" xlink:href="#DejaVuSans-48"/>
      </g>
     </g>
    </g>
    <g id="xtick_2">
     <g id="line2d_2">
      <g/>
     </g>
     <g id="text_2">
      <!-- 0.5 -->
      <defs>
       <path d="M 10.796875 72.90625 
L 49.515625 72.90625 
L 49.515625 64.59375 
L 19.828125 64.59375 
L 19.828125 46.734375 
Q 21.96875 47.46875 24.109375 47.828125 
Q 26.265625 48.1875 28.421875 48.1875 
Q 40.625 48.1875 47.75 41.5 
Q 54.890625 34.8125 54.890625 23.390625 
Q 54.890625 11.625 47.5625 5.09375 
Q 40.234375 -1.421875 26.90625 -1.421875 
Q 22.3125 -1.421875 17.546875 -0.640625 
Q 12.796875 0.140625 7.71875 1.703125 
L 7.71875 11.625 
Q 12.109375 9.234375 16.796875 8.0625 
Q 21.484375 6.890625 26.703125 6.890625 
Q 35.15625 6.890625 40.078125 11.328125 
Q 45.015625 15.765625 45.015625 23.390625 
Q 45.015625 31 40.078125 35.4375 
Q 35.15625 39.890625 26.703125 39.890625 
Q 22.75 39.890625 18.8125 39.015625 
Q 14.890625 38.140625 10.796875 36.28125 
z
" id="DejaVuSans-53"/>
      </defs>
      <g transform="translate(-180.964405 355.088542)scale(0.2 -0.2)">
       <use xlink:href="#DejaVuSans-48"/>
       <use x="63.623047" xlink:href="#DejaVuSans-46"/>
       <use x="95.410156" xlink:href="#DejaVuSans-53"/>
      </g>
     </g>
    </g>
    <g id="xtick_3">
     <g id="line2d_3">
      <g/>
     </g>
     <g id="text_3">
      <!-- 1.0 -->
      <defs>
       <path d="M 12.40625 8.296875 
L 28.515625 8.296875 
L 28.515625 63.921875 
L 10.984375 60.40625 
L 10.984375 69.390625 
L 28.421875 72.90625 
L 38.28125 72.90625 
L 38.28125 8.296875 
L 54.390625 8.296875 
L 54.390625 0 
L 12.40625 0 
z
" id="DejaVuSans-49"/>
      </defs>
      <g transform="translate(-59.883568 355.088542)scale(0.2 -0.2)">
       <use xlink:href="#DejaVuSans-49"/>
       <use x="63.623047" xlink:href="#DejaVuSans-46"/>
       <use x="95.410156" xlink:href="#DejaVuSans-48"/>
      </g>
     </g>
    </g>
    <g id="text_4">
     <!--   -->
     <defs>
      <path id="DejaVuSans-32"/>
     </defs>
     <g transform="translate(-170.742583 376.621167)scale(0.176 -0.176)">
      <use xlink:href="#DejaVuSans-32"/>
     </g>
    </g>
   </g>
   <g id="matplotlib.axis_2">
    <g id="ytick_1">
     <g id="line2d_4">
      <defs>
       <path d="M 0 0 
L -3.5 0 
" id="mc72226d3f8" style="stroke:#000000;stroke-width:1.6;"/>
      </defs>
      <g/>
     </g>
     <g id="text_5">
      <!-- 0 -->
      <g transform="translate(-356.216667 332.790104)scale(0.2 -0.2)">
       <use xlink:href="#DejaVuSans-48"/>
      </g>
     </g>
    </g>
    <g id="ytick_2">
     <g id="line2d_5">
      <g/>
     </g>
     <g id="text_6">
      <!-- 1 -->
      <g transform="translate(-356.216667 258.175374)scale(0.2 -0.2)">
       <use xlink:href="#DejaVuSans-49"/>
      </g>
     </g>
    </g>
    <g id="ytick_3">
     <g id="line2d_6">
      <g/>
     </g>
     <g id="text_7">
      <!-- 2 -->
      <defs>
       <path d="M 19.1875 8.296875 
L 53.609375 8.296875 
L 53.609375 0 
L 7.328125 0 
L 7.328125 8.296875 
Q 12.9375 14.109375 22.625 23.890625 
Q 32.328125 33.6875 34.8125 36.53125 
Q 39.546875 41.84375 41.421875 45.53125 
Q 43.3125 49.21875 43.3125 52.78125 
Q 43.3125 58.59375 39.234375 62.25 
Q 35.15625 65.921875 28.609375 65.921875 
Q 23.96875 65.921875 18.8125 64.3125 
Q 13.671875 62.703125 7.8125 59.421875 
L 7.8125 69.390625 
Q 13.765625 71.78125 18.9375 73 
Q 24.125 74.21875 28.421875 74.21875 
Q 39.75 74.21875 46.484375 68.546875 
Q 53.21875 62.890625 53.21875 53.421875 
Q 53.21875 48.921875 51.53125 44.890625 
Q 49.859375 40.875 45.40625 35.40625 
Q 44.1875 33.984375 37.640625 27.21875 
Q 31.109375 20.453125 19.1875 8.296875 
z
" id="DejaVuSans-50"/>
      </defs>
      <g transform="translate(-356.216667 183.560643)scale(0.2 -0.2)">
       <use xlink:href="#DejaVuSans-50"/>
      </g>
     </g>
    </g>
    <g id="ytick_4">
     <g id="line2d_7">
      <g/>
     </g>
     <g id="text_8">
      <!-- 3 -->
      <defs>
       <path d="M 40.578125 39.3125 
Q 47.65625 37.796875 51.625 33 
Q 55.609375 28.21875 55.609375 21.1875 
Q 55.609375 10.40625 48.1875 4.484375 
Q 40.765625 -1.421875 27.09375 -1.421875 
Q 22.515625 -1.421875 17.65625 -0.515625 
Q 12.796875 0.390625 7.625 2.203125 
L 7.625 11.71875 
Q 11.71875 9.328125 16.59375 8.109375 
Q 21.484375 6.890625 26.8125 6.890625 
Q 36.078125 6.890625 40.9375 10.546875 
Q 45.796875 14.203125 45.796875 21.1875 
Q 45.796875 27.640625 41.28125 31.265625 
Q 36.765625 34.90625 28.71875 34.90625 
L 20.21875 34.90625 
L 20.21875 43.015625 
L 29.109375 43.015625 
Q 36.375 43.015625 40.234375 45.921875 
Q 44.09375 48.828125 44.09375 54.296875 
Q 44.09375 59.90625 40.109375 62.90625 
Q 36.140625 65.921875 28.71875 65.921875 
Q 24.65625 65.921875 20.015625 65.03125 
Q 15.375 64.15625 9.8125 62.3125 
L 9.8125 71.09375 
Q 15.4375 72.65625 20.34375 73.4375 
Q 25.25 74.21875 29.59375 74.21875 
Q 40.828125 74.21875 47.359375 69.109375 
Q 53.90625 64.015625 53.90625 55.328125 
Q 53.90625 49.265625 50.4375 45.09375 
Q 46.96875 40.921875 40.578125 39.3125 
z
" id="DejaVuSans-51"/>
      </defs>
      <g transform="translate(-356.216667 108.945912)scale(0.2 -0.2)">
       <use xlink:href="#DejaVuSans-51"/>
      </g>
     </g>
    </g>
    <g id="ytick_5">
     <g id="line2d_8">
      <g/>
     </g>
     <g id="text_9">
      <!-- 4 -->
      <defs>
       <path d="M 37.796875 64.3125 
L 12.890625 25.390625 
L 37.796875 25.390625 
z
M 35.203125 72.90625 
L 47.609375 72.90625 
L 47.609375 25.390625 
L 58.015625 25.390625 
L 58.015625 17.1875 
L 47.609375 17.1875 
L 47.609375 0 
L 37.796875 0 
L 37.796875 17.1875 
L 4.890625 17.1875 
L 4.890625 26.703125 
z
" id="DejaVuSans-52"/>
      </defs>
      <g transform="translate(-356.216667 34.331182)scale(0.2 -0.2)">
       <use xlink:href="#DejaVuSans-52"/>
      </g>
     </g>
    </g>
    <g id="text_10">
     <!--   -->
     <g transform="translate(-363.876917 167.142583)rotate(-90)scale(0.176 -0.176)">
      <use xlink:href="#DejaVuSans-32"/>
     </g>
    </g>
   </g>
   <g id="line2d_9">
    <path clip-path="url(#pbdb1e43eeb)" d="M 0 0 
" style="fill:none;stroke:#000000;stroke-linecap:square;stroke-width:2;"/>
   </g>
   <g id="line2d_10">
    <path clip-path="url(#pbdb1e43eeb)" d="M 0 0 
" style="fill:none;stroke:#000000;stroke-dasharray:7.4,3.2;stroke-dashoffset:0;stroke-width:2;"/>
   </g>
   <g id="line2d_11">
    <path clip-path="url(#pbdb1e43eeb)" d="M 0 0 
" style="fill:none;stroke:#000000;stroke-dasharray:2,3.3;stroke-dashoffset:0;stroke-width:2;"/>
   </g>
   <g id="patch_3">
    <path style="fill:none;stroke:#000000;stroke-linecap:square;stroke-linejoin:miter;stroke-width:0.8;"/>
   </g>
   <g id="patch_4">
    <path style="fill:none;stroke:#000000;stroke-linecap:square;stroke-linejoin:miter;stroke-width:0.8;"/>
   </g>
  </g>
  <g id="axes_2">
   <g id="patch_5">
    <path d="M 27.575 325.191667 
L 349.266667 325.191667 
L 349.266667 3.5 
L 27.575 3.5 
z
" style="fill:#ffffff;"/>
   </g>
   <g id="matplotlib.axis_3">
    <g id="xtick_4">
     <g id="line2d_12">
      <g>
       <use style="stroke:#000000;stroke-width:1.6;" x="118.910903" xlink:href="#m8296265064" y="325.191667"/>
      </g>
     </g>
     <g id="text_11">
      <!-- −0.5 -->
      <defs>
       <path d="M 10.59375 35.5 
L 73.1875 35.5 
L 73.1875 27.203125 
L 10.59375 27.203125 
z
" id="DejaVuSans-8722"/>
      </defs>
      <g transform="translate(94.62809 355.088542)scale(0.2 -0.2)">
       <use xlink:href="#DejaVuSans-8722"/>
       <use x="83.789062" xlink:href="#DejaVuSans-48"/>
       <use x="147.412109" xlink:href="#DejaVuSans-46"/>
       <use x="179.199219" xlink:href="#DejaVuSans-53"/>
      </g>
     </g>
    </g>
    <g id="xtick_5">
     <g id="line2d_13">
      <g>
       <use style="stroke:#000000;stroke-width:1.6;" x="212.692992" xlink:href="#m8296265064" y="325.191667"/>
      </g>
     </g>
     <g id="text_12">
      <!-- 0.0 -->
      <g transform="translate(196.789867 355.088542)scale(0.2 -0.2)">
       <use xlink:href="#DejaVuSans-48"/>
       <use x="63.623047" xlink:href="#DejaVuSans-46"/>
       <use x="95.410156" xlink:href="#DejaVuSans-48"/>
      </g>
     </g>
    </g>
    <g id="xtick_6">
     <g id="line2d_14">
      <g>
       <use style="stroke:#000000;stroke-width:1.6;" x="306.475082" xlink:href="#m8296265064" y="325.191667"/>
      </g>
     </g>
     <g id="text_13">
      <!-- 0.5 -->
      <g transform="translate(290.571957 355.088542)scale(0.2 -0.2)">
       <use xlink:href="#DejaVuSans-48"/>
       <use x="63.623047" xlink:href="#DejaVuSans-46"/>
       <use x="95.410156" xlink:href="#DejaVuSans-53"/>
      </g>
     </g>
    </g>
   </g>
   <g id="matplotlib.axis_4">
    <g id="ytick_6">
     <g id="line2d_15">
      <g>
       <use style="stroke:#000000;stroke-width:1.6;" x="27.575" xlink:href="#mc72226d3f8" y="325.191667"/>
      </g>
     </g>
     <g id="text_14">
      <!-- 0 -->
      <g transform="translate(0.15 332.790104)scale(0.2 -0.2)">
       <use xlink:href="#DejaVuSans-48"/>
      </g>
     </g>
    </g>
    <g id="ytick_7">
     <g id="line2d_16">
      <g>
       <use style="stroke:#000000;stroke-width:1.6;" x="27.575" xlink:href="#mc72226d3f8" y="265.329545"/>
      </g>
     </g>
     <g id="text_15">
      <!-- 1 -->
      <g transform="translate(0.15 272.927982)scale(0.2 -0.2)">
       <use xlink:href="#DejaVuSans-49"/>
      </g>
     </g>
    </g>
    <g id="ytick_8">
     <g id="line2d_17">
      <g>
       <use style="stroke:#000000;stroke-width:1.6;" x="27.575" xlink:href="#mc72226d3f8" y="205.467423"/>
      </g>
     </g>
     <g id="text_16">
      <!-- 2 -->
      <g transform="translate(0.15 213.06586)scale(0.2 -0.2)">
       <use xlink:href="#DejaVuSans-50"/>
      </g>
     </g>
    </g>
    <g id="ytick_9">
     <g id="line2d_18">
      <g>
       <use style="stroke:#000000;stroke-width:1.6;" x="27.575" xlink:href="#mc72226d3f8" y="145.605301"/>
      </g>
     </g>
     <g id="text_17">
      <!-- 3 -->
      <g transform="translate(0.15 153.203738)scale(0.2 -0.2)">
       <use xlink:href="#DejaVuSans-51"/>
      </g>
     </g>
    </g>
    <g id="ytick_10">
     <g id="line2d_19">
      <g>
       <use style="stroke:#000000;stroke-width:1.6;" x="27.575" xlink:href="#mc72226d3f8" y="85.743179"/>
      </g>
     </g>
     <g id="text_18">
      <!-- 4 -->
      <g transform="translate(0.15 93.341616)scale(0.2 -0.2)">
       <use xlink:href="#DejaVuSans-52"/>
      </g>
     </g>
    </g>
    <g id="ytick_11">
     <g id="line2d_20">
      <g>
       <use style="stroke:#000000;stroke-width:1.6;" x="27.575" xlink:href="#mc72226d3f8" y="25.881057"/>
      </g>
     </g>
     <g id="text_19">
      <!-- 5 -->
      <g transform="translate(0.15 33.479494)scale(0.2 -0.2)">
       <use xlink:href="#DejaVuSans-53"/>
      </g>
     </g>
    </g>
   </g>
   <g id="line2d_21">
    <path clip-path="url(#pb96cadefdb)" d="M 42.197348 325.178835 
L 48.977474 325.0287 
L 60.277682 324.418835 
L 67.057807 324.699041 
L 69.317849 324.571293 
L 71.577891 324.171994 
L 73.837932 323.477102 
L 78.358016 321.66661 
L 80.618058 321.021574 
L 82.878099 320.819411 
L 85.138141 321.041538 
L 87.398183 321.453201 
L 89.658224 321.710797 
L 91.918266 321.531607 
L 94.178308 320.835195 
L 98.698391 318.723813 
L 100.958433 317.977961 
L 103.218475 317.687685 
L 107.738558 317.591551 
L 109.9986 317.031306 
L 112.258642 315.924902 
L 114.518683 314.533521 
L 116.778725 313.273687 
L 119.038767 312.437741 
L 121.298808 312.050771 
L 123.55885 311.95063 
L 125.818892 311.982254 
L 128.078933 312.127941 
L 130.338975 312.482684 
L 132.599017 313.118975 
L 137.1191 314.701458 
L 139.379142 314.951813 
L 141.639184 314.329304 
L 143.899225 312.688117 
L 146.159267 310.221343 
L 150.679351 304.73764 
L 152.939392 302.62624 
L 155.199434 301.218337 
L 157.459476 300.484806 
L 159.719517 300.238386 
L 161.979559 300.108503 
L 164.239601 299.541824 
L 166.499643 297.928565 
L 168.759684 294.853313 
L 171.019726 290.33678 
L 177.799851 273.85671 
L 182.319935 263.588028 
L 184.579976 257.429877 
L 186.840018 249.741703 
L 189.10006 240.144865 
L 191.360101 228.398024 
L 193.620143 214.35646 
L 195.880185 198.105908 
L 200.400268 161.343101 
L 202.66031 143.051689 
L 204.920352 126.923337 
L 207.180393 114.825821 
L 209.440435 108.284654 
L 211.700477 107.724808 
L 213.960518 112.113725 
L 216.22056 119.472355 
L 218.480602 128.01552 
L 220.740644 137.124296 
L 223.000685 147.451047 
L 225.260727 160.099511 
L 227.520769 175.509727 
L 234.300894 226.972152 
L 236.560936 241.170749 
L 238.820977 253.11965 
L 241.081019 263.181532 
L 243.341061 271.738555 
L 245.601102 279.064887 
L 247.861144 285.419372 
L 250.121186 291.10873 
L 252.381228 296.373488 
L 254.641269 301.202817 
L 256.901311 305.312973 
L 259.161353 308.381808 
L 261.421394 310.36544 
L 263.681436 311.620841 
L 265.941478 312.724653 
L 268.20152 314.133805 
L 274.981645 319.574813 
L 277.241686 320.734924 
L 279.501728 321.338158 
L 281.76177 321.538848 
L 295.32202 321.561791 
L 299.842103 321.953932 
L 313.402354 323.806852 
L 317.922437 324.529558 
L 322.442521 324.99839 
L 326.962604 325.158752 
L 329.222646 325.178285 
L 329.222646 325.178285 
" style="fill:none;stroke:#000000;stroke-linecap:square;stroke-width:2;"/>
   </g>
   <g id="line2d_22">
    <path clip-path="url(#pb96cadefdb)" d="M 90.508959 325.171848 
L 94.35361 325.051684 
L 98.198261 324.589248 
L 100.120587 324.29318 
L 102.042913 324.115619 
L 103.965238 324.155964 
L 111.654541 325.08995 
L 117.421518 325.18972 
L 125.110821 325.137285 
L 127.033146 325.032942 
L 128.955472 324.813827 
L 130.877798 324.445911 
L 134.722449 323.332357 
L 140.489426 321.212043 
L 142.411752 320.379712 
L 144.334077 319.35639 
L 148.178729 317.011317 
L 150.101054 316.236917 
L 152.02338 315.854835 
L 157.790357 315.174945 
L 159.712683 314.789842 
L 161.635008 313.877458 
L 163.557334 312.133982 
L 167.401985 307.422633 
L 171.246637 303.821538 
L 173.168962 301.121277 
L 175.091288 296.864414 
L 177.013614 291.734003 
L 178.935939 287.17743 
L 180.858265 283.872692 
L 182.780591 280.868961 
L 184.702916 276.321274 
L 186.625242 268.840203 
L 188.547568 258.068188 
L 190.469893 244.433954 
L 192.392219 228.802848 
L 194.314545 212.06046 
L 196.23687 194.293516 
L 198.159196 174.184795 
L 200.081522 149.858115 
L 202.003847 120.992634 
L 203.926173 90.076182 
L 205.848499 61.297661 
L 207.770824 38.396515 
L 209.69315 23.746071 
L 211.615476 18.818607 
L 213.537801 24.50172 
L 215.460127 40.442577 
L 217.382453 63.945764 
L 219.304778 89.907015 
L 221.227104 113.085317 
L 223.14943 131.481995 
L 225.071755 147.401344 
L 226.994081 164.833545 
L 228.916407 185.764626 
L 230.838732 208.719284 
L 232.761058 230.202894 
L 234.683384 247.270399 
L 236.605709 259.124201 
L 238.528035 266.944101 
L 240.450361 272.628834 
L 244.295012 282.30811 
L 246.217338 286.616722 
L 248.139663 290.363501 
L 250.061989 293.647556 
L 251.984315 296.580579 
L 253.90664 299.086911 
L 255.828966 301.120908 
L 257.751292 302.958301 
L 259.673617 305.062933 
L 263.518269 310.26292 
L 265.440594 312.464698 
L 267.36292 313.97878 
L 269.285246 315.006624 
L 273.129897 316.87826 
L 276.974548 318.972867 
L 278.896874 319.872842 
L 280.8192 320.566382 
L 282.741525 321.057655 
L 286.586177 321.816797 
L 290.430828 322.867505 
L 292.353154 323.431116 
L 294.275479 323.835189 
L 296.197805 323.916083 
L 298.120131 323.603006 
L 301.964782 322.482189 
L 303.887108 322.281282 
L 305.809433 322.529603 
L 311.57641 324.248192 
L 313.498736 324.37843 
L 315.421062 324.060141 
L 321.188039 322.025918 
L 323.110364 322.119421 
L 325.03269 322.77599 
L 326.955016 323.655115 
L 328.877341 324.401929 
L 330.799667 324.863962 
L 332.721993 325.081527 
L 334.644318 325.159141 
L 334.644318 325.159141 
" style="fill:none;stroke:#000000;stroke-dasharray:7.4,3.2;stroke-dashoffset:0;stroke-width:2;"/>
   </g>
   <g id="patch_6">
    <path d="M 27.575 325.191667 
L 27.575 3.5 
" style="fill:none;stroke:#000000;stroke-linecap:square;stroke-linejoin:miter;stroke-width:0.8;"/>
   </g>
   <g id="patch_7">
    <path d="M 27.575 325.191667 
L 349.266667 325.191667 
" style="fill:none;stroke:#000000;stroke-linecap:square;stroke-linejoin:miter;stroke-width:0.8;"/>
   </g>
  </g>
 </g>
 <defs>
  <clipPath id="pbdb1e43eeb">
   <rect height="321.691667" width="321.691667" x="-328.791667" y="3.5"/>
  </clipPath>
  <clipPath id="pb96cadefdb">
   <rect height="321.691667" width="321.691667" x="27.575" y="3.5"/>
  </clipPath>
 </defs>
</svg>
