<?xml version="1.0" encoding="utf-8" standalone="no"?>
<!DOCTYPE svg PUBLIC "-//W3C//DTD SVG 1.1//EN"
  "http://www.w3.org/Graphics/SVG/1.1/DTD/svg11.dtd">
<!-- Created with matplotlib (https://matplotlib.org/) -->
<svg height="336.061667pt" version="1.1" viewBox="0 0 342.686667 336.061667" width="342.686667pt" xmlns="http://www.w3.org/2000/svg" xmlns:xlink="http://www.w3.org/1999/xlink">
 <defs>
  <style type="text/css">
*{stroke-linecap:butt;stroke-linejoin:round;}
  </style>
 </defs>
 <g id="figure_1">
  <g id="patch_1">
   <path d="M 0 336.061667 
L 342.686667 336.061667 
L 342.686667 0 
L 0 0 
z
" style="fill:#ffffff;"/>
  </g>
  <g id="axes_1">
   <g id="patch_2">
    <path d="M -313.521667 302.361667 
L -14.66 302.361667 
L -14.66 3.5 
L -313.521667 3.5 
z
" style="fill:#ffffff;"/>
   </g>
   <g id="matplotlib.axis_1">
    <g id="xtick_1">
     <g id="line2d_1">
      <defs>
       <path d="M 0 0 
L 0 3.5 
" id="mfaf10e67c0" style="stroke:#000000;stroke-width:1.6;"/>
      </defs>
      <g/>
     </g>
     <g id="text_1">
      <!-- 0.1 -->
      <defs>
       <path d="M 31.78125 66.40625 
Q 24.171875 66.40625 20.328125 58.90625 
Q 16.5 51.421875 16.5 36.375 
Q 16.5 21.390625 20.328125 13.890625 
Q 24.171875 6.390625 31.78125 6.390625 
Q 39.453125 6.390625 43.28125 13.890625 
Q 47.125 21.390625 47.125 36.375 
Q 47.125 51.421875 43.28125 58.90625 
Q 39.453125 66.40625 31.78125 66.40625 
z
M 31.78125 74.21875 
Q 44.046875 74.21875 50.515625 64.515625 
Q 56.984375 54.828125 56.984375 36.375 
Q 56.984375 17.96875 50.515625 8.265625 
Q 44.046875 -1.421875 31.78125 -1.421875 
Q 19.53125 -1.421875 13.0625 8.265625 
Q 6.59375 17.96875 6.59375 36.375 
Q 6.59375 54.828125 13.0625 64.515625 
Q 19.53125 74.21875 31.78125 74.21875 
z
" id="DejaVuSans-48"/>
       <path d="M 10.6875 12.40625 
L 21 12.40625 
L 21 0 
L 10.6875 0 
z
" id="DejaVuSans-46"/>
       <path d="M 12.40625 8.296875 
L 28.515625 8.296875 
L 28.515625 63.921875 
L 10.984375 60.40625 
L 10.984375 69.390625 
L 28.421875 72.90625 
L 38.28125 72.90625 
L 38.28125 8.296875 
L 54.390625 8.296875 
L 54.390625 0 
L 12.40625 0 
z
" id="DejaVuSans-49"/>
      </defs>
      <g transform="translate(-245.06645 332.258542)scale(0.2 -0.2)">
       <use xlink:href="#DejaVuSans-48"/>
       <use x="63.623047" xlink:href="#DejaVuSans-46"/>
       <use x="95.410156" xlink:href="#DejaVuSans-49"/>
      </g>
     </g>
    </g>
    <g id="xtick_2">
     <g id="line2d_2">
      <g/>
     </g>
     <g id="text_2">
      <!-- 0.2 -->
      <defs>
       <path d="M 19.1875 8.296875 
L 53.609375 8.296875 
L 53.609375 0 
L 7.328125 0 
L 7.328125 8.296875 
Q 12.9375 14.109375 22.625 23.890625 
Q 32.328125 33.6875 34.8125 36.53125 
Q 39.546875 41.84375 41.421875 45.53125 
Q 43.3125 49.21875 43.3125 52.78125 
Q 43.3125 58.59375 39.234375 62.25 
Q 35.15625 65.921875 28.609375 65.921875 
Q 23.96875 65.921875 18.8125 64.3125 
Q 13.671875 62.703125 7.8125 59.421875 
L 7.8125 69.390625 
Q 13.765625 71.78125 18.9375 73 
Q 24.125 74.21875 28.421875 74.21875 
Q 39.75 74.21875 46.484375 68.546875 
Q 53.21875 62.890625 53.21875 53.421875 
Q 53.21875 48.921875 51.53125 44.890625 
Q 49.859375 40.875 45.40625 35.40625 
Q 44.1875 33.984375 37.640625 27.21875 
Q 31.109375 20.453125 19.1875 8.296875 
z
" id="DejaVuSans-50"/>
      </defs>
      <g transform="translate(-130.481772 332.258542)scale(0.2 -0.2)">
       <use xlink:href="#DejaVuSans-48"/>
       <use x="63.623047" xlink:href="#DejaVuSans-46"/>
       <use x="95.410156" xlink:href="#DejaVuSans-50"/>
      </g>
     </g>
    </g>
    <g id="text_3">
     <!--   -->
     <defs>
      <path id="DejaVuSans-32"/>
     </defs>
     <g transform="translate(-166.887583 353.791167)scale(0.176 -0.176)">
      <use xlink:href="#DejaVuSans-32"/>
     </g>
    </g>
   </g>
   <g id="matplotlib.axis_2">
    <g id="ytick_1">
     <g id="line2d_3">
      <defs>
       <path d="M 0 0 
L -3.5 0 
" id="mcb736ad7ce" style="stroke:#000000;stroke-width:1.6;"/>
      </defs>
      <g/>
     </g>
     <g id="text_4">
      <!-- 0 -->
      <g transform="translate(-340.946667 309.960104)scale(0.2 -0.2)">
       <use xlink:href="#DejaVuSans-48"/>
      </g>
     </g>
    </g>
    <g id="ytick_2">
     <g id="line2d_4">
      <g/>
     </g>
     <g id="text_5">
      <!-- 5 -->
      <defs>
       <path d="M 10.796875 72.90625 
L 49.515625 72.90625 
L 49.515625 64.59375 
L 19.828125 64.59375 
L 19.828125 46.734375 
Q 21.96875 47.46875 24.109375 47.828125 
Q 26.265625 48.1875 28.421875 48.1875 
Q 40.625 48.1875 47.75 41.5 
Q 54.890625 34.8125 54.890625 23.390625 
Q 54.890625 11.625 47.5625 5.09375 
Q 40.234375 -1.421875 26.90625 -1.421875 
Q 22.3125 -1.421875 17.546875 -0.640625 
Q 12.796875 0.140625 7.71875 1.703125 
L 7.71875 11.625 
Q 12.109375 9.234375 16.796875 8.0625 
Q 21.484375 6.890625 26.703125 6.890625 
Q 35.15625 6.890625 40.078125 11.328125 
Q 45.015625 15.765625 45.015625 23.390625 
Q 45.015625 31 40.078125 35.4375 
Q 35.15625 39.890625 26.703125 39.890625 
Q 22.75 39.890625 18.8125 39.015625 
Q 14.890625 38.140625 10.796875 36.28125 
z
" id="DejaVuSans-53"/>
      </defs>
      <g transform="translate(-340.946667 245.235933)scale(0.2 -0.2)">
       <use xlink:href="#DejaVuSans-53"/>
      </g>
     </g>
    </g>
    <g id="ytick_3">
     <g id="line2d_5">
      <g/>
     </g>
     <g id="text_6">
      <!-- 10 -->
      <g transform="translate(-353.671667 180.511761)scale(0.2 -0.2)">
       <use xlink:href="#DejaVuSans-49"/>
       <use x="63.623047" xlink:href="#DejaVuSans-48"/>
      </g>
     </g>
    </g>
    <g id="ytick_4">
     <g id="line2d_6">
      <g/>
     </g>
     <g id="text_7">
      <!-- 15 -->
      <g transform="translate(-353.671667 115.78759)scale(0.2 -0.2)">
       <use xlink:href="#DejaVuSans-49"/>
       <use x="63.623047" xlink:href="#DejaVuSans-53"/>
      </g>
     </g>
    </g>
    <g id="ytick_5">
     <g id="line2d_7">
      <g/>
     </g>
     <g id="text_8">
      <!-- 20 -->
      <g transform="translate(-353.671667 51.063419)scale(0.2 -0.2)">
       <use xlink:href="#DejaVuSans-50"/>
       <use x="63.623047" xlink:href="#DejaVuSans-48"/>
      </g>
     </g>
    </g>
    <g id="text_9">
     <!--   -->
     <g transform="translate(-361.331917 155.727583)rotate(-90)scale(0.176 -0.176)">
      <use xlink:href="#DejaVuSans-32"/>
     </g>
    </g>
   </g>
   <g id="line2d_8">
    <path clip-path="url(#p9656b0ced5)" d="M 0 0 
" style="fill:none;stroke:#000000;stroke-linecap:square;stroke-width:2;"/>
   </g>
   <g id="line2d_9">
    <path clip-path="url(#p9656b0ced5)" d="M 0 0 
" style="fill:none;stroke:#000000;stroke-dasharray:7.4,3.2;stroke-dashoffset:0;stroke-width:2;"/>
   </g>
   <g id="line2d_10">
    <path clip-path="url(#p9656b0ced5)" d="M 0 0 
" style="fill:none;stroke:#000000;stroke-dasharray:2,3.3;stroke-dashoffset:0;stroke-width:2;"/>
   </g>
   <g id="patch_3">
    <path style="fill:none;stroke:#000000;stroke-linecap:square;stroke-linejoin:miter;stroke-width:0.8;"/>
   </g>
   <g id="patch_4">
    <path style="fill:none;stroke:#000000;stroke-linecap:square;stroke-linejoin:miter;stroke-width:0.8;"/>
   </g>
  </g>
  <g id="axes_2">
   <g id="patch_5">
    <path d="M 40.325 302.361667 
L 339.186667 302.361667 
L 339.186667 3.5 
L 40.325 3.5 
z
" style="fill:#ffffff;"/>
   </g>
   <g id="matplotlib.axis_3">
    <g id="xtick_3">
     <g id="line2d_11">
      <g>
       <use style="stroke:#000000;stroke-width:1.6;" x="148.587097" xlink:href="#mfaf10e67c0" y="302.361667"/>
      </g>
     </g>
     <g id="text_10">
      <!-- 0.0 -->
      <g transform="translate(132.683972 332.258542)scale(0.2 -0.2)">
       <use xlink:href="#DejaVuSans-48"/>
       <use x="63.623047" xlink:href="#DejaVuSans-46"/>
       <use x="95.410156" xlink:href="#DejaVuSans-48"/>
      </g>
     </g>
    </g>
    <g id="xtick_4">
     <g id="line2d_12">
      <g>
       <use style="stroke:#000000;stroke-width:1.6;" x="264.603511" xlink:href="#mfaf10e67c0" y="302.361667"/>
      </g>
     </g>
     <g id="text_11">
      <!-- 0.1 -->
      <g transform="translate(248.700386 332.258542)scale(0.2 -0.2)">
       <use xlink:href="#DejaVuSans-48"/>
       <use x="63.623047" xlink:href="#DejaVuSans-46"/>
       <use x="95.410156" xlink:href="#DejaVuSans-49"/>
      </g>
     </g>
    </g>
   </g>
   <g id="matplotlib.axis_4">
    <g id="ytick_6">
     <g id="line2d_13">
      <g>
       <use style="stroke:#000000;stroke-width:1.6;" x="40.325" xlink:href="#mcb736ad7ce" y="302.361667"/>
      </g>
     </g>
     <g id="text_12">
      <!-- 0 -->
      <g transform="translate(12.9 309.960104)scale(0.2 -0.2)">
       <use xlink:href="#DejaVuSans-48"/>
      </g>
     </g>
    </g>
    <g id="ytick_7">
     <g id="line2d_14">
      <g>
       <use style="stroke:#000000;stroke-width:1.6;" x="40.325" xlink:href="#mcb736ad7ce" y="240.211447"/>
      </g>
     </g>
     <g id="text_13">
      <!-- 5 -->
      <g transform="translate(12.9 247.809885)scale(0.2 -0.2)">
       <use xlink:href="#DejaVuSans-53"/>
      </g>
     </g>
    </g>
    <g id="ytick_8">
     <g id="line2d_15">
      <g>
       <use style="stroke:#000000;stroke-width:1.6;" x="40.325" xlink:href="#mcb736ad7ce" y="178.061228"/>
      </g>
     </g>
     <g id="text_14">
      <!-- 10 -->
      <g transform="translate(0.175 185.659666)scale(0.2 -0.2)">
       <use xlink:href="#DejaVuSans-49"/>
       <use x="63.623047" xlink:href="#DejaVuSans-48"/>
      </g>
     </g>
    </g>
    <g id="ytick_9">
     <g id="line2d_16">
      <g>
       <use style="stroke:#000000;stroke-width:1.6;" x="40.325" xlink:href="#mcb736ad7ce" y="115.911009"/>
      </g>
     </g>
     <g id="text_15">
      <!-- 15 -->
      <g transform="translate(0.175 123.509446)scale(0.2 -0.2)">
       <use xlink:href="#DejaVuSans-49"/>
       <use x="63.623047" xlink:href="#DejaVuSans-53"/>
      </g>
     </g>
    </g>
    <g id="ytick_10">
     <g id="line2d_17">
      <g>
       <use style="stroke:#000000;stroke-width:1.6;" x="40.325" xlink:href="#mcb736ad7ce" y="53.760789"/>
      </g>
     </g>
     <g id="text_16">
      <!-- 20 -->
      <g transform="translate(0.175 61.359227)scale(0.2 -0.2)">
       <use xlink:href="#DejaVuSans-50"/>
       <use x="63.623047" xlink:href="#DejaVuSans-48"/>
      </g>
     </g>
    </g>
   </g>
   <g id="line2d_18">
    <path clip-path="url(#p9cd522656c)" d="M 57.571607 302.35017 
L 63.336175 302.223733 
L 72.943789 301.644808 
L 78.708357 301.852207 
L 80.629879 301.760798 
L 82.551402 301.465591 
L 84.472925 300.964872 
L 88.31597 299.716535 
L 90.237493 299.248394 
L 92.159015 299.004732 
L 96.002061 299.023659 
L 99.845106 299.088474 
L 101.766629 298.957803 
L 103.688151 298.607005 
L 105.609674 297.86022 
L 107.531197 296.440576 
L 109.452719 294.008842 
L 111.374242 290.257806 
L 113.295765 285.028911 
L 115.217287 278.3923 
L 117.13881 270.650004 
L 122.903378 246.01811 
L 124.824901 239.096815 
L 128.667946 226.548192 
L 130.589469 218.382633 
L 132.510991 206.918488 
L 134.432514 191.445092 
L 136.354037 172.414637 
L 142.118605 109.875228 
L 144.040127 92.741313 
L 145.96165 78.901968 
L 147.883173 67.951933 
L 151.726218 50.136686 
L 155.569263 32.384714 
L 157.490786 24.58273 
L 159.412309 19.304551 
L 161.333831 17.731508 
L 163.255354 20.418995 
L 165.176877 27.247241 
L 167.098399 37.532018 
L 169.019922 50.19998 
L 176.706013 105.293147 
L 182.470581 145.219137 
L 186.313626 173.362498 
L 192.078194 216.870464 
L 193.999717 229.736789 
L 195.921239 240.57836 
L 197.842762 249.216034 
L 199.764285 256.10771 
L 203.60733 267.718788 
L 205.528853 273.272692 
L 207.450375 278.454876 
L 209.371898 282.86211 
L 211.293421 286.2417 
L 213.214943 288.592952 
L 215.136466 290.115832 
L 217.057989 291.127144 
L 218.979511 291.982703 
L 220.901034 292.970656 
L 226.665602 296.726279 
L 228.587125 297.6101 
L 230.508647 298.16475 
L 234.351693 298.9233 
L 236.273215 299.441745 
L 242.037783 301.369042 
L 243.959306 301.813617 
L 245.880829 302.095057 
L 249.723874 302.319064 
L 259.331487 302.361627 
L 276.625191 302.271999 
L 280.468237 302.040996 
L 286.232805 301.652229 
L 290.07585 301.788078 
L 295.840418 302.223735 
L 301.604986 302.35017 
L 301.604986 302.35017 
" style="fill:none;stroke:#000000;stroke-linecap:square;stroke-width:2;"/>
   </g>
   <g id="line2d_19">
    <path clip-path="url(#p9cd522656c)" d="M 53.909621 302.353999 
L 62.466863 302.272205 
L 68.884794 301.973868 
L 73.163415 301.548802 
L 77.442036 300.886386 
L 81.720657 299.954436 
L 85.999278 298.69442 
L 88.138588 297.894452 
L 90.277898 296.934112 
L 92.417209 295.762242 
L 94.556519 294.314466 
L 96.69583 292.511872 
L 98.83514 290.260309 
L 100.974451 287.455031 
L 103.113761 283.996002 
L 105.253071 279.814672 
L 107.392382 274.904706 
L 109.531692 269.342117 
L 113.810313 256.911723 
L 120.228244 237.207347 
L 122.367555 230.270953 
L 124.506865 222.766077 
L 126.646176 214.402899 
L 128.785486 204.989632 
L 130.924797 194.52397 
L 139.482038 149.552402 
L 141.621349 140.320995 
L 143.760659 132.82669 
L 145.89997 127.255518 
L 148.03928 123.628999 
L 150.17859 121.843958 
L 152.317901 121.707613 
L 154.457211 122.957446 
L 156.596522 125.274033 
L 158.735832 128.304732 
L 165.153763 138.722483 
L 169.432384 145.878281 
L 171.571695 149.887834 
L 173.711005 154.402425 
L 175.850316 159.440777 
L 182.268247 175.659491 
L 184.407557 180.448988 
L 186.546868 184.60301 
L 188.686178 188.144538 
L 190.825489 191.229028 
L 195.104109 196.946193 
L 197.24342 200.017445 
L 199.38273 203.443978 
L 201.522041 207.308929 
L 203.661351 211.626853 
L 207.939972 221.30237 
L 212.218593 231.19543 
L 214.357903 235.725211 
L 216.497214 239.818903 
L 218.636524 243.489829 
L 227.193766 256.867917 
L 229.333076 260.611524 
L 233.611697 268.711109 
L 237.890318 276.859923 
L 240.029628 280.633397 
L 242.168939 284.086082 
L 244.308249 287.175604 
L 246.44756 289.890468 
L 248.58687 292.236369 
L 250.726181 294.22339 
L 252.865491 295.859338 
L 255.004801 297.151069 
L 257.144112 298.111868 
L 259.283422 298.770409 
L 261.422733 299.176326 
L 265.701353 299.518148 
L 269.979974 299.736104 
L 274.258595 300.17947 
L 282.815837 301.280328 
L 287.094458 301.543004 
L 293.512389 301.639884 
L 302.069631 301.759458 
L 321.323425 302.338618 
L 325.602045 302.354216 
L 325.602045 302.354216 
" style="fill:none;stroke:#000000;stroke-dasharray:7.4,3.2;stroke-dashoffset:0;stroke-width:2;"/>
   </g>
   <g id="patch_6">
    <path d="M 40.325 302.361667 
L 40.325 3.5 
" style="fill:none;stroke:#000000;stroke-linecap:square;stroke-linejoin:miter;stroke-width:0.8;"/>
   </g>
   <g id="patch_7">
    <path d="M 40.325 302.361667 
L 339.186667 302.361667 
" style="fill:none;stroke:#000000;stroke-linecap:square;stroke-linejoin:miter;stroke-width:0.8;"/>
   </g>
  </g>
 </g>
 <defs>
  <clipPath id="p9656b0ced5">
   <rect height="298.861667" width="298.861667" x="-313.521667" y="3.5"/>
  </clipPath>
  <clipPath id="p9cd522656c">
   <rect height="298.861667" width="298.861667" x="40.325" y="3.5"/>
  </clipPath>
 </defs>
</svg>
