<?xml version="1.0" encoding="utf-8" standalone="no"?>
<!DOCTYPE svg PUBLIC "-//W3C//DTD SVG 1.1//EN"
  "http://www.w3.org/Graphics/SVG/1.1/DTD/svg11.dtd">
<!-- Created with matplotlib (https://matplotlib.org/) -->
<svg height="333.433333pt" version="1.1" viewBox="0 0 319.433333 333.433333" width="319.433333pt" xmlns="http://www.w3.org/2000/svg" xmlns:xlink="http://www.w3.org/1999/xlink">
 <defs>
  <style type="text/css">
*{stroke-linecap:butt;stroke-linejoin:round;}
  </style>
 </defs>
 <g id="figure_1">
  <g id="patch_1">
   <path d="M 0 333.433333 
L 319.433333 333.433333 
L 319.433333 -0 
L 0 -0 
z
" style="fill:#ffffff;"/>
  </g>
  <g id="axes_1">
   <g id="patch_2">
    <path d="M 46.7 272.733333 
L 315.933333 272.733333 
L 315.933333 3.5 
L 46.7 3.5 
z
" style="fill:#ffffff;"/>
   </g>
   <g id="patch_3">
    <path clip-path="url(#p4a5a4a3106)" d="M 58.937879 272.733333 
L 65.056818 272.733333 
L 65.056818 272.733333 
L 58.937879 272.733333 
z
" style="fill:#7570b3;opacity:0.6;stroke:#000000;stroke-linejoin:miter;stroke-width:0.5;"/>
   </g>
   <g id="patch_4">
    <path clip-path="url(#p4a5a4a3106)" d="M 65.056818 272.733333 
L 71.175758 272.733333 
L 71.175758 272.733333 
L 65.056818 272.733333 
z
" style="fill:#7570b3;opacity:0.6;stroke:#000000;stroke-linejoin:miter;stroke-width:0.5;"/>
   </g>
   <g id="patch_5">
    <path clip-path="url(#p4a5a4a3106)" d="M 71.175758 272.733333 
L 77.294697 272.733333 
L 77.294697 272.733333 
L 71.175758 272.733333 
z
" style="fill:#7570b3;opacity:0.6;stroke:#000000;stroke-linejoin:miter;stroke-width:0.5;"/>
   </g>
   <g id="patch_6">
    <path clip-path="url(#p4a5a4a3106)" d="M 77.294697 272.733333 
L 83.413636 272.733333 
L 83.413636 272.733333 
L 77.294697 272.733333 
z
" style="fill:#7570b3;opacity:0.6;stroke:#000000;stroke-linejoin:miter;stroke-width:0.5;"/>
   </g>
   <g id="patch_7">
    <path clip-path="url(#p4a5a4a3106)" d="M 83.413636 272.733333 
L 89.532576 272.733333 
L 89.532576 272.733333 
L 83.413636 272.733333 
z
" style="fill:#7570b3;opacity:0.6;stroke:#000000;stroke-linejoin:miter;stroke-width:0.5;"/>
   </g>
   <g id="patch_8">
    <path clip-path="url(#p4a5a4a3106)" d="M 89.532576 272.733333 
L 95.651515 272.733333 
L 95.651515 272.733333 
L 89.532576 272.733333 
z
" style="fill:#7570b3;opacity:0.6;stroke:#000000;stroke-linejoin:miter;stroke-width:0.5;"/>
   </g>
   <g id="patch_9">
    <path clip-path="url(#p4a5a4a3106)" d="M 95.651515 272.733333 
L 101.770455 272.733333 
L 101.770455 272.733333 
L 95.651515 272.733333 
z
" style="fill:#7570b3;opacity:0.6;stroke:#000000;stroke-linejoin:miter;stroke-width:0.5;"/>
   </g>
   <g id="patch_10">
    <path clip-path="url(#p4a5a4a3106)" d="M 101.770455 272.733333 
L 107.889394 272.733333 
L 107.889394 272.733333 
L 101.770455 272.733333 
z
" style="fill:#7570b3;opacity:0.6;stroke:#000000;stroke-linejoin:miter;stroke-width:0.5;"/>
   </g>
   <g id="patch_11">
    <path clip-path="url(#p4a5a4a3106)" d="M 107.889394 272.733333 
L 114.008333 272.733333 
L 114.008333 272.733333 
L 107.889394 272.733333 
z
" style="fill:#7570b3;opacity:0.6;stroke:#000000;stroke-linejoin:miter;stroke-width:0.5;"/>
   </g>
   <g id="patch_12">
    <path clip-path="url(#p4a5a4a3106)" d="M 114.008333 272.733333 
L 120.127273 272.733333 
L 120.127273 272.733333 
L 114.008333 272.733333 
z
" style="fill:#7570b3;opacity:0.6;stroke:#000000;stroke-linejoin:miter;stroke-width:0.5;"/>
   </g>
   <g id="patch_13">
    <path clip-path="url(#p4a5a4a3106)" d="M 120.127273 272.733333 
L 126.246212 272.733333 
L 126.246212 272.733333 
L 120.127273 272.733333 
z
" style="fill:#7570b3;opacity:0.6;stroke:#000000;stroke-linejoin:miter;stroke-width:0.5;"/>
   </g>
   <g id="patch_14">
    <path clip-path="url(#p4a5a4a3106)" d="M 126.246212 272.733333 
L 132.365152 272.733333 
L 132.365152 272.733333 
L 126.246212 272.733333 
z
" style="fill:#7570b3;opacity:0.6;stroke:#000000;stroke-linejoin:miter;stroke-width:0.5;"/>
   </g>
   <g id="patch_15">
    <path clip-path="url(#p4a5a4a3106)" d="M 132.365152 272.733333 
L 138.484091 272.733333 
L 138.484091 272.733333 
L 132.365152 272.733333 
z
" style="fill:#7570b3;opacity:0.6;stroke:#000000;stroke-linejoin:miter;stroke-width:0.5;"/>
   </g>
   <g id="patch_16">
    <path clip-path="url(#p4a5a4a3106)" d="M 138.484091 272.733333 
L 144.60303 272.733333 
L 144.60303 272.733333 
L 138.484091 272.733333 
z
" style="fill:#7570b3;opacity:0.6;stroke:#000000;stroke-linejoin:miter;stroke-width:0.5;"/>
   </g>
   <g id="patch_17">
    <path clip-path="url(#p4a5a4a3106)" d="M 144.60303 272.733333 
L 150.72197 272.733333 
L 150.72197 272.733333 
L 144.60303 272.733333 
z
" style="fill:#7570b3;opacity:0.6;stroke:#000000;stroke-linejoin:miter;stroke-width:0.5;"/>
   </g>
   <g id="patch_18">
    <path clip-path="url(#p4a5a4a3106)" d="M 150.72197 272.733333 
L 156.840909 272.733333 
L 156.840909 272.733333 
L 150.72197 272.733333 
z
" style="fill:#7570b3;opacity:0.6;stroke:#000000;stroke-linejoin:miter;stroke-width:0.5;"/>
   </g>
   <g id="patch_19">
    <path clip-path="url(#p4a5a4a3106)" d="M 156.840909 272.733333 
L 162.959848 272.733333 
L 162.959848 272.733333 
L 156.840909 272.733333 
z
" style="fill:#7570b3;opacity:0.6;stroke:#000000;stroke-linejoin:miter;stroke-width:0.5;"/>
   </g>
   <g id="patch_20">
    <path clip-path="url(#p4a5a4a3106)" d="M 162.959848 272.733333 
L 169.078788 272.733333 
L 169.078788 272.407351 
L 162.959848 272.407351 
z
" style="fill:#7570b3;opacity:0.6;stroke:#000000;stroke-linejoin:miter;stroke-width:0.5;"/>
   </g>
   <g id="patch_21">
    <path clip-path="url(#p4a5a4a3106)" d="M 169.078788 272.733333 
L 175.197727 272.733333 
L 175.197727 272.407351 
L 169.078788 272.407351 
z
" style="fill:#7570b3;opacity:0.6;stroke:#000000;stroke-linejoin:miter;stroke-width:0.5;"/>
   </g>
   <g id="patch_22">
    <path clip-path="url(#p4a5a4a3106)" d="M 175.197727 272.733333 
L 181.316667 272.733333 
L 181.316667 272.733333 
L 175.197727 272.733333 
z
" style="fill:#7570b3;opacity:0.6;stroke:#000000;stroke-linejoin:miter;stroke-width:0.5;"/>
   </g>
   <g id="patch_23">
    <path clip-path="url(#p4a5a4a3106)" d="M 181.316667 272.733333 
L 187.435606 272.733333 
L 187.435606 272.407351 
L 181.316667 272.407351 
z
" style="fill:#7570b3;opacity:0.6;stroke:#000000;stroke-linejoin:miter;stroke-width:0.5;"/>
   </g>
   <g id="patch_24">
    <path clip-path="url(#p4a5a4a3106)" d="M 187.435606 272.733333 
L 193.554545 272.733333 
L 193.554545 272.407351 
L 187.435606 272.407351 
z
" style="fill:#7570b3;opacity:0.6;stroke:#000000;stroke-linejoin:miter;stroke-width:0.5;"/>
   </g>
   <g id="patch_25">
    <path clip-path="url(#p4a5a4a3106)" d="M 193.554545 272.733333 
L 199.673485 272.733333 
L 199.673485 271.429404 
L 193.554545 271.429404 
z
" style="fill:#7570b3;opacity:0.6;stroke:#000000;stroke-linejoin:miter;stroke-width:0.5;"/>
   </g>
   <g id="patch_26">
    <path clip-path="url(#p4a5a4a3106)" d="M 199.673485 272.733333 
L 205.792424 272.733333 
L 205.792424 269.799492 
L 199.673485 269.799492 
z
" style="fill:#7570b3;opacity:0.6;stroke:#000000;stroke-linejoin:miter;stroke-width:0.5;"/>
   </g>
   <g id="patch_27">
    <path clip-path="url(#p4a5a4a3106)" d="M 205.792424 272.733333 
L 211.911364 272.733333 
L 211.911364 264.909757 
L 205.792424 264.909757 
z
" style="fill:#7570b3;opacity:0.6;stroke:#000000;stroke-linejoin:miter;stroke-width:0.5;"/>
   </g>
   <g id="patch_28">
    <path clip-path="url(#p4a5a4a3106)" d="M 211.911364 272.733333 
L 218.030303 272.733333 
L 218.030303 262.953863 
L 211.911364 262.953863 
z
" style="fill:#7570b3;opacity:0.6;stroke:#000000;stroke-linejoin:miter;stroke-width:0.5;"/>
   </g>
   <g id="patch_29">
    <path clip-path="url(#p4a5a4a3106)" d="M 218.030303 272.733333 
L 224.149242 272.733333 
L 224.149242 268.495563 
L 218.030303 268.495563 
z
" style="fill:#7570b3;opacity:0.6;stroke:#000000;stroke-linejoin:miter;stroke-width:0.5;"/>
   </g>
   <g id="patch_30">
    <path clip-path="url(#p4a5a4a3106)" d="M 224.149242 272.733333 
L 230.268182 272.733333 
L 230.268182 264.583775 
L 224.149242 264.583775 
z
" style="fill:#7570b3;opacity:0.6;stroke:#000000;stroke-linejoin:miter;stroke-width:0.5;"/>
   </g>
   <g id="patch_31">
    <path clip-path="url(#p4a5a4a3106)" d="M 230.268182 272.733333 
L 236.387121 272.733333 
L 236.387121 264.257792 
L 230.268182 264.257792 
z
" style="fill:#7570b3;opacity:0.6;stroke:#000000;stroke-linejoin:miter;stroke-width:0.5;"/>
   </g>
   <g id="patch_32">
    <path clip-path="url(#p4a5a4a3106)" d="M 236.387121 272.733333 
L 242.506061 272.733333 
L 242.506061 262.953863 
L 236.387121 262.953863 
z
" style="fill:#7570b3;opacity:0.6;stroke:#000000;stroke-linejoin:miter;stroke-width:0.5;"/>
   </g>
   <g id="patch_33">
    <path clip-path="url(#p4a5a4a3106)" d="M 242.506061 272.733333 
L 248.625 272.733333 
L 248.625 265.235739 
L 242.506061 265.235739 
z
" style="fill:#7570b3;opacity:0.6;stroke:#000000;stroke-linejoin:miter;stroke-width:0.5;"/>
   </g>
   <g id="patch_34">
    <path clip-path="url(#p4a5a4a3106)" d="M 248.625 272.733333 
L 254.743939 272.733333 
L 254.743939 259.694039 
L 248.625 259.694039 
z
" style="fill:#7570b3;opacity:0.6;stroke:#000000;stroke-linejoin:miter;stroke-width:0.5;"/>
   </g>
   <g id="patch_35">
    <path clip-path="url(#p4a5a4a3106)" d="M 254.743939 272.733333 
L 260.862879 272.733333 
L 260.862879 253.500375 
L 254.743939 253.500375 
z
" style="fill:#7570b3;opacity:0.6;stroke:#000000;stroke-linejoin:miter;stroke-width:0.5;"/>
   </g>
   <g id="patch_36">
    <path clip-path="url(#p4a5a4a3106)" d="M 260.862879 272.733333 
L 266.981818 272.733333 
L 266.981818 229.703664 
L 260.862879 229.703664 
z
" style="fill:#7570b3;opacity:0.6;stroke:#000000;stroke-linejoin:miter;stroke-width:0.5;"/>
   </g>
   <g id="patch_37">
    <path clip-path="url(#p4a5a4a3106)" d="M 266.981818 272.733333 
L 273.100758 272.733333 
L 273.100758 179.828365 
L 266.981818 179.828365 
z
" style="fill:#7570b3;opacity:0.6;stroke:#000000;stroke-linejoin:miter;stroke-width:0.5;"/>
   </g>
   <g id="patch_38">
    <path clip-path="url(#p4a5a4a3106)" d="M 273.100758 272.733333 
L 279.219697 272.733333 
L 279.219697 31.180415 
L 273.100758 31.180415 
z
" style="fill:#7570b3;opacity:0.6;stroke:#000000;stroke-linejoin:miter;stroke-width:0.5;"/>
   </g>
   <g id="patch_39">
    <path clip-path="url(#p4a5a4a3106)" d="M 279.219697 272.733333 
L 285.338636 272.733333 
L 285.338636 150.163971 
L 279.219697 150.163971 
z
" style="fill:#7570b3;opacity:0.6;stroke:#000000;stroke-linejoin:miter;stroke-width:0.5;"/>
   </g>
   <g id="patch_40">
    <path clip-path="url(#p4a5a4a3106)" d="M 285.338636 272.733333 
L 291.457576 272.733333 
L 291.457576 263.93181 
L 285.338636 263.93181 
z
" style="fill:#7570b3;opacity:0.6;stroke:#000000;stroke-linejoin:miter;stroke-width:0.5;"/>
   </g>
   <g id="patch_41">
    <path clip-path="url(#p4a5a4a3106)" d="M 291.457576 272.733333 
L 297.576515 272.733333 
L 297.576515 272.733333 
L 291.457576 272.733333 
z
" style="fill:#7570b3;opacity:0.6;stroke:#000000;stroke-linejoin:miter;stroke-width:0.5;"/>
   </g>
   <g id="patch_42">
    <path clip-path="url(#p4a5a4a3106)" d="M 297.576515 272.733333 
L 303.695455 272.733333 
L 303.695455 272.733333 
L 297.576515 272.733333 
z
" style="fill:#7570b3;opacity:0.6;stroke:#000000;stroke-linejoin:miter;stroke-width:0.5;"/>
   </g>
   <g id="patch_43">
    <path clip-path="url(#p4a5a4a3106)" d="M 58.937879 272.733333 
L 65.056818 272.733333 
L 65.056818 272.733333 
L 58.937879 272.733333 
z
" style="fill:#d95f02;opacity:0.6;stroke:#000000;stroke-linejoin:miter;stroke-width:0.5;"/>
   </g>
   <g id="patch_44">
    <path clip-path="url(#p4a5a4a3106)" d="M 65.056818 272.733333 
L 71.175758 272.733333 
L 71.175758 272.733333 
L 65.056818 272.733333 
z
" style="fill:#d95f02;opacity:0.6;stroke:#000000;stroke-linejoin:miter;stroke-width:0.5;"/>
   </g>
   <g id="patch_45">
    <path clip-path="url(#p4a5a4a3106)" d="M 71.175758 272.733333 
L 77.294697 272.733333 
L 77.294697 272.733333 
L 71.175758 272.733333 
z
" style="fill:#d95f02;opacity:0.6;stroke:#000000;stroke-linejoin:miter;stroke-width:0.5;"/>
   </g>
   <g id="patch_46">
    <path clip-path="url(#p4a5a4a3106)" d="M 77.294697 272.733333 
L 83.413636 272.733333 
L 83.413636 272.733333 
L 77.294697 272.733333 
z
" style="fill:#d95f02;opacity:0.6;stroke:#000000;stroke-linejoin:miter;stroke-width:0.5;"/>
   </g>
   <g id="patch_47">
    <path clip-path="url(#p4a5a4a3106)" d="M 83.413636 272.733333 
L 89.532576 272.733333 
L 89.532576 272.733333 
L 83.413636 272.733333 
z
" style="fill:#d95f02;opacity:0.6;stroke:#000000;stroke-linejoin:miter;stroke-width:0.5;"/>
   </g>
   <g id="patch_48">
    <path clip-path="url(#p4a5a4a3106)" d="M 89.532576 272.733333 
L 95.651515 272.733333 
L 95.651515 272.733333 
L 89.532576 272.733333 
z
" style="fill:#d95f02;opacity:0.6;stroke:#000000;stroke-linejoin:miter;stroke-width:0.5;"/>
   </g>
   <g id="patch_49">
    <path clip-path="url(#p4a5a4a3106)" d="M 95.651515 272.733333 
L 101.770455 272.733333 
L 101.770455 272.733333 
L 95.651515 272.733333 
z
" style="fill:#d95f02;opacity:0.6;stroke:#000000;stroke-linejoin:miter;stroke-width:0.5;"/>
   </g>
   <g id="patch_50">
    <path clip-path="url(#p4a5a4a3106)" d="M 101.770455 272.733333 
L 107.889394 272.733333 
L 107.889394 272.733333 
L 101.770455 272.733333 
z
" style="fill:#d95f02;opacity:0.6;stroke:#000000;stroke-linejoin:miter;stroke-width:0.5;"/>
   </g>
   <g id="patch_51">
    <path clip-path="url(#p4a5a4a3106)" d="M 107.889394 272.733333 
L 114.008333 272.733333 
L 114.008333 272.733333 
L 107.889394 272.733333 
z
" style="fill:#d95f02;opacity:0.6;stroke:#000000;stroke-linejoin:miter;stroke-width:0.5;"/>
   </g>
   <g id="patch_52">
    <path clip-path="url(#p4a5a4a3106)" d="M 114.008333 272.733333 
L 120.127273 272.733333 
L 120.127273 272.733333 
L 114.008333 272.733333 
z
" style="fill:#d95f02;opacity:0.6;stroke:#000000;stroke-linejoin:miter;stroke-width:0.5;"/>
   </g>
   <g id="patch_53">
    <path clip-path="url(#p4a5a4a3106)" d="M 120.127273 272.733333 
L 126.246212 272.733333 
L 126.246212 272.733333 
L 120.127273 272.733333 
z
" style="fill:#d95f02;opacity:0.6;stroke:#000000;stroke-linejoin:miter;stroke-width:0.5;"/>
   </g>
   <g id="patch_54">
    <path clip-path="url(#p4a5a4a3106)" d="M 126.246212 272.733333 
L 132.365152 272.733333 
L 132.365152 272.733333 
L 126.246212 272.733333 
z
" style="fill:#d95f02;opacity:0.6;stroke:#000000;stroke-linejoin:miter;stroke-width:0.5;"/>
   </g>
   <g id="patch_55">
    <path clip-path="url(#p4a5a4a3106)" d="M 132.365152 272.733333 
L 138.484091 272.733333 
L 138.484091 272.733333 
L 132.365152 272.733333 
z
" style="fill:#d95f02;opacity:0.6;stroke:#000000;stroke-linejoin:miter;stroke-width:0.5;"/>
   </g>
   <g id="patch_56">
    <path clip-path="url(#p4a5a4a3106)" d="M 138.484091 272.733333 
L 144.60303 272.733333 
L 144.60303 272.733333 
L 138.484091 272.733333 
z
" style="fill:#d95f02;opacity:0.6;stroke:#000000;stroke-linejoin:miter;stroke-width:0.5;"/>
   </g>
   <g id="patch_57">
    <path clip-path="url(#p4a5a4a3106)" d="M 144.60303 272.733333 
L 150.72197 272.733333 
L 150.72197 272.733333 
L 144.60303 272.733333 
z
" style="fill:#d95f02;opacity:0.6;stroke:#000000;stroke-linejoin:miter;stroke-width:0.5;"/>
   </g>
   <g id="patch_58">
    <path clip-path="url(#p4a5a4a3106)" d="M 150.72197 272.733333 
L 156.840909 272.733333 
L 156.840909 272.733333 
L 150.72197 272.733333 
z
" style="fill:#d95f02;opacity:0.6;stroke:#000000;stroke-linejoin:miter;stroke-width:0.5;"/>
   </g>
   <g id="patch_59">
    <path clip-path="url(#p4a5a4a3106)" d="M 156.840909 272.733333 
L 162.959848 272.733333 
L 162.959848 272.733333 
L 156.840909 272.733333 
z
" style="fill:#d95f02;opacity:0.6;stroke:#000000;stroke-linejoin:miter;stroke-width:0.5;"/>
   </g>
   <g id="patch_60">
    <path clip-path="url(#p4a5a4a3106)" d="M 162.959848 272.733333 
L 169.078788 272.733333 
L 169.078788 272.733333 
L 162.959848 272.733333 
z
" style="fill:#d95f02;opacity:0.6;stroke:#000000;stroke-linejoin:miter;stroke-width:0.5;"/>
   </g>
   <g id="patch_61">
    <path clip-path="url(#p4a5a4a3106)" d="M 169.078788 272.733333 
L 175.197727 272.733333 
L 175.197727 272.733333 
L 169.078788 272.733333 
z
" style="fill:#d95f02;opacity:0.6;stroke:#000000;stroke-linejoin:miter;stroke-width:0.5;"/>
   </g>
   <g id="patch_62">
    <path clip-path="url(#p4a5a4a3106)" d="M 175.197727 272.733333 
L 181.316667 272.733333 
L 181.316667 272.424402 
L 175.197727 272.424402 
z
" style="fill:#d95f02;opacity:0.6;stroke:#000000;stroke-linejoin:miter;stroke-width:0.5;"/>
   </g>
   <g id="patch_63">
    <path clip-path="url(#p4a5a4a3106)" d="M 181.316667 272.733333 
L 187.435606 272.733333 
L 187.435606 272.733333 
L 181.316667 272.733333 
z
" style="fill:#d95f02;opacity:0.6;stroke:#000000;stroke-linejoin:miter;stroke-width:0.5;"/>
   </g>
   <g id="patch_64">
    <path clip-path="url(#p4a5a4a3106)" d="M 187.435606 272.733333 
L 193.554545 272.733333 
L 193.554545 270.570817 
L 187.435606 270.570817 
z
" style="fill:#d95f02;opacity:0.6;stroke:#000000;stroke-linejoin:miter;stroke-width:0.5;"/>
   </g>
   <g id="patch_65">
    <path clip-path="url(#p4a5a4a3106)" d="M 193.554545 272.733333 
L 199.673485 272.733333 
L 199.673485 270.261886 
L 193.554545 270.261886 
z
" style="fill:#d95f02;opacity:0.6;stroke:#000000;stroke-linejoin:miter;stroke-width:0.5;"/>
   </g>
   <g id="patch_66">
    <path clip-path="url(#p4a5a4a3106)" d="M 199.673485 272.733333 
L 205.792424 272.733333 
L 205.792424 266.863645 
L 199.673485 266.863645 
z
" style="fill:#d95f02;opacity:0.6;stroke:#000000;stroke-linejoin:miter;stroke-width:0.5;"/>
   </g>
   <g id="patch_67">
    <path clip-path="url(#p4a5a4a3106)" d="M 205.792424 272.733333 
L 211.911364 272.733333 
L 211.911364 262.847543 
L 205.792424 262.847543 
z
" style="fill:#d95f02;opacity:0.6;stroke:#000000;stroke-linejoin:miter;stroke-width:0.5;"/>
   </g>
   <g id="patch_68">
    <path clip-path="url(#p4a5a4a3106)" d="M 211.911364 272.733333 
L 218.030303 272.733333 
L 218.030303 265.936852 
L 211.911364 265.936852 
z
" style="fill:#d95f02;opacity:0.6;stroke:#000000;stroke-linejoin:miter;stroke-width:0.5;"/>
   </g>
   <g id="patch_69">
    <path clip-path="url(#p4a5a4a3106)" d="M 218.030303 272.733333 
L 224.149242 272.733333 
L 224.149242 264.701128 
L 218.030303 264.701128 
z
" style="fill:#d95f02;opacity:0.6;stroke:#000000;stroke-linejoin:miter;stroke-width:0.5;"/>
   </g>
   <g id="patch_70">
    <path clip-path="url(#p4a5a4a3106)" d="M 224.149242 272.733333 
L 230.268182 272.733333 
L 230.268182 266.245783 
L 224.149242 266.245783 
z
" style="fill:#d95f02;opacity:0.6;stroke:#000000;stroke-linejoin:miter;stroke-width:0.5;"/>
   </g>
   <g id="patch_71">
    <path clip-path="url(#p4a5a4a3106)" d="M 230.268182 272.733333 
L 236.387121 272.733333 
L 236.387121 265.010059 
L 230.268182 265.010059 
z
" style="fill:#d95f02;opacity:0.6;stroke:#000000;stroke-linejoin:miter;stroke-width:0.5;"/>
   </g>
   <g id="patch_72">
    <path clip-path="url(#p4a5a4a3106)" d="M 236.387121 272.733333 
L 242.506061 272.733333 
L 242.506061 264.392197 
L 236.387121 264.392197 
z
" style="fill:#d95f02;opacity:0.6;stroke:#000000;stroke-linejoin:miter;stroke-width:0.5;"/>
   </g>
   <g id="patch_73">
    <path clip-path="url(#p4a5a4a3106)" d="M 242.506061 272.733333 
L 248.625 272.733333 
L 248.625 266.554714 
L 242.506061 266.554714 
z
" style="fill:#d95f02;opacity:0.6;stroke:#000000;stroke-linejoin:miter;stroke-width:0.5;"/>
   </g>
   <g id="patch_74">
    <path clip-path="url(#p4a5a4a3106)" d="M 248.625 272.733333 
L 254.743939 272.733333 
L 254.743939 263.774335 
L 248.625 263.774335 
z
" style="fill:#d95f02;opacity:0.6;stroke:#000000;stroke-linejoin:miter;stroke-width:0.5;"/>
   </g>
   <g id="patch_75">
    <path clip-path="url(#p4a5a4a3106)" d="M 254.743939 272.733333 
L 260.862879 272.733333 
L 260.862879 260.993957 
L 254.743939 260.993957 
z
" style="fill:#d95f02;opacity:0.6;stroke:#000000;stroke-linejoin:miter;stroke-width:0.5;"/>
   </g>
   <g id="patch_76">
    <path clip-path="url(#p4a5a4a3106)" d="M 260.862879 272.733333 
L 266.981818 272.733333 
L 266.981818 253.579614 
L 260.862879 253.579614 
z
" style="fill:#d95f02;opacity:0.6;stroke:#000000;stroke-linejoin:miter;stroke-width:0.5;"/>
   </g>
   <g id="patch_77">
    <path clip-path="url(#p4a5a4a3106)" d="M 266.981818 272.733333 
L 273.100758 272.733333 
L 273.100758 176.037942 
L 266.981818 176.037942 
z
" style="fill:#d95f02;opacity:0.6;stroke:#000000;stroke-linejoin:miter;stroke-width:0.5;"/>
   </g>
   <g id="patch_78">
    <path clip-path="url(#p4a5a4a3106)" d="M 273.100758 272.733333 
L 279.219697 272.733333 
L 279.219697 16.320635 
L 273.100758 16.320635 
z
" style="fill:#d95f02;opacity:0.6;stroke:#000000;stroke-linejoin:miter;stroke-width:0.5;"/>
   </g>
   <g id="patch_79">
    <path clip-path="url(#p4a5a4a3106)" d="M 279.219697 272.733333 
L 285.338636 272.733333 
L 285.338636 133.405469 
L 279.219697 133.405469 
z
" style="fill:#d95f02;opacity:0.6;stroke:#000000;stroke-linejoin:miter;stroke-width:0.5;"/>
   </g>
   <g id="patch_80">
    <path clip-path="url(#p4a5a4a3106)" d="M 285.338636 272.733333 
L 291.457576 272.733333 
L 291.457576 266.863645 
L 285.338636 266.863645 
z
" style="fill:#d95f02;opacity:0.6;stroke:#000000;stroke-linejoin:miter;stroke-width:0.5;"/>
   </g>
   <g id="patch_81">
    <path clip-path="url(#p4a5a4a3106)" d="M 291.457576 272.733333 
L 297.576515 272.733333 
L 297.576515 272.733333 
L 291.457576 272.733333 
z
" style="fill:#d95f02;opacity:0.6;stroke:#000000;stroke-linejoin:miter;stroke-width:0.5;"/>
   </g>
   <g id="patch_82">
    <path clip-path="url(#p4a5a4a3106)" d="M 297.576515 272.733333 
L 303.695455 272.733333 
L 303.695455 272.733333 
L 297.576515 272.733333 
z
" style="fill:#d95f02;opacity:0.6;stroke:#000000;stroke-linejoin:miter;stroke-width:0.5;"/>
   </g>
   <g id="matplotlib.axis_1">
    <g id="xtick_1">
     <g id="line2d_1">
      <defs>
       <path d="M 0 0 
L 0 3.5 
" id="m05d1af13cc" style="stroke:#000000;stroke-width:1.6;"/>
      </defs>
      <g>
       <use style="stroke:#000000;stroke-width:1.6;" x="58.937879" xlink:href="#m05d1af13cc" y="272.733333"/>
      </g>
     </g>
     <g id="text_1">
      <!-- 0.0 -->
      <defs>
       <path d="M 31.78125 66.40625 
Q 24.171875 66.40625 20.328125 58.90625 
Q 16.5 51.421875 16.5 36.375 
Q 16.5 21.390625 20.328125 13.890625 
Q 24.171875 6.390625 31.78125 6.390625 
Q 39.453125 6.390625 43.28125 13.890625 
Q 47.125 21.390625 47.125 36.375 
Q 47.125 51.421875 43.28125 58.90625 
Q 39.453125 66.40625 31.78125 66.40625 
z
M 31.78125 74.21875 
Q 44.046875 74.21875 50.515625 64.515625 
Q 56.984375 54.828125 56.984375 36.375 
Q 56.984375 17.96875 50.515625 8.265625 
Q 44.046875 -1.421875 31.78125 -1.421875 
Q 19.53125 -1.421875 13.0625 8.265625 
Q 6.59375 17.96875 6.59375 36.375 
Q 6.59375 54.828125 13.0625 64.515625 
Q 19.53125 74.21875 31.78125 74.21875 
z
" id="DejaVuSans-48"/>
       <path d="M 10.6875 12.40625 
L 21 12.40625 
L 21 0 
L 10.6875 0 
z
" id="DejaVuSans-46"/>
      </defs>
      <g transform="translate(43.034754 302.630208)scale(0.2 -0.2)">
       <use xlink:href="#DejaVuSans-48"/>
       <use x="63.623047" xlink:href="#DejaVuSans-46"/>
       <use x="95.410156" xlink:href="#DejaVuSans-48"/>
      </g>
     </g>
    </g>
    <g id="xtick_2">
     <g id="line2d_2">
      <g>
       <use style="stroke:#000000;stroke-width:1.6;" x="128.868615" xlink:href="#m05d1af13cc" y="272.733333"/>
      </g>
     </g>
     <g id="text_2">
      <!-- 0.2 -->
      <defs>
       <path d="M 19.1875 8.296875 
L 53.609375 8.296875 
L 53.609375 0 
L 7.328125 0 
L 7.328125 8.296875 
Q 12.9375 14.109375 22.625 23.890625 
Q 32.328125 33.6875 34.8125 36.53125 
Q 39.546875 41.84375 41.421875 45.53125 
Q 43.3125 49.21875 43.3125 52.78125 
Q 43.3125 58.59375 39.234375 62.25 
Q 35.15625 65.921875 28.609375 65.921875 
Q 23.96875 65.921875 18.8125 64.3125 
Q 13.671875 62.703125 7.8125 59.421875 
L 7.8125 69.390625 
Q 13.765625 71.78125 18.9375 73 
Q 24.125 74.21875 28.421875 74.21875 
Q 39.75 74.21875 46.484375 68.546875 
Q 53.21875 62.890625 53.21875 53.421875 
Q 53.21875 48.921875 51.53125 44.890625 
Q 49.859375 40.875 45.40625 35.40625 
Q 44.1875 33.984375 37.640625 27.21875 
Q 31.109375 20.453125 19.1875 8.296875 
z
" id="DejaVuSans-50"/>
      </defs>
      <g transform="translate(112.96549 302.630208)scale(0.2 -0.2)">
       <use xlink:href="#DejaVuSans-48"/>
       <use x="63.623047" xlink:href="#DejaVuSans-46"/>
       <use x="95.410156" xlink:href="#DejaVuSans-50"/>
      </g>
     </g>
    </g>
    <g id="xtick_3">
     <g id="line2d_3">
      <g>
       <use style="stroke:#000000;stroke-width:1.6;" x="198.799351" xlink:href="#m05d1af13cc" y="272.733333"/>
      </g>
     </g>
     <g id="text_3">
      <!-- 0.4 -->
      <defs>
       <path d="M 37.796875 64.3125 
L 12.890625 25.390625 
L 37.796875 25.390625 
z
M 35.203125 72.90625 
L 47.609375 72.90625 
L 47.609375 25.390625 
L 58.015625 25.390625 
L 58.015625 17.1875 
L 47.609375 17.1875 
L 47.609375 0 
L 37.796875 0 
L 37.796875 17.1875 
L 4.890625 17.1875 
L 4.890625 26.703125 
z
" id="DejaVuSans-52"/>
      </defs>
      <g transform="translate(182.896226 302.630208)scale(0.2 -0.2)">
       <use xlink:href="#DejaVuSans-48"/>
       <use x="63.623047" xlink:href="#DejaVuSans-46"/>
       <use x="95.410156" xlink:href="#DejaVuSans-52"/>
      </g>
     </g>
    </g>
    <g id="xtick_4">
     <g id="line2d_4">
      <g>
       <use style="stroke:#000000;stroke-width:1.6;" x="268.730087" xlink:href="#m05d1af13cc" y="272.733333"/>
      </g>
     </g>
     <g id="text_4">
      <!-- 0.6 -->
      <defs>
       <path d="M 33.015625 40.375 
Q 26.375 40.375 22.484375 35.828125 
Q 18.609375 31.296875 18.609375 23.390625 
Q 18.609375 15.53125 22.484375 10.953125 
Q 26.375 6.390625 33.015625 6.390625 
Q 39.65625 6.390625 43.53125 10.953125 
Q 47.40625 15.53125 47.40625 23.390625 
Q 47.40625 31.296875 43.53125 35.828125 
Q 39.65625 40.375 33.015625 40.375 
z
M 52.59375 71.296875 
L 52.59375 62.3125 
Q 48.875 64.0625 45.09375 64.984375 
Q 41.3125 65.921875 37.59375 65.921875 
Q 27.828125 65.921875 22.671875 59.328125 
Q 17.53125 52.734375 16.796875 39.40625 
Q 19.671875 43.65625 24.015625 45.921875 
Q 28.375 48.1875 33.59375 48.1875 
Q 44.578125 48.1875 50.953125 41.515625 
Q 57.328125 34.859375 57.328125 23.390625 
Q 57.328125 12.15625 50.6875 5.359375 
Q 44.046875 -1.421875 33.015625 -1.421875 
Q 20.359375 -1.421875 13.671875 8.265625 
Q 6.984375 17.96875 6.984375 36.375 
Q 6.984375 53.65625 15.1875 63.9375 
Q 23.390625 74.21875 37.203125 74.21875 
Q 40.921875 74.21875 44.703125 73.484375 
Q 48.484375 72.75 52.59375 71.296875 
z
" id="DejaVuSans-54"/>
      </defs>
      <g transform="translate(252.826962 302.630208)scale(0.2 -0.2)">
       <use xlink:href="#DejaVuSans-48"/>
       <use x="63.623047" xlink:href="#DejaVuSans-46"/>
       <use x="95.410156" xlink:href="#DejaVuSans-54"/>
      </g>
     </g>
    </g>
    <g id="text_5">
     <!-- Max JS Divergence within $\epsilon$ -->
     <defs>
      <path d="M 9.8125 72.90625 
L 24.515625 72.90625 
L 43.109375 23.296875 
L 61.8125 72.90625 
L 76.515625 72.90625 
L 76.515625 0 
L 66.890625 0 
L 66.890625 64.015625 
L 48.09375 14.015625 
L 38.1875 14.015625 
L 19.390625 64.015625 
L 19.390625 0 
L 9.8125 0 
z
" id="DejaVuSans-77"/>
      <path d="M 34.28125 27.484375 
Q 23.390625 27.484375 19.1875 25 
Q 14.984375 22.515625 14.984375 16.5 
Q 14.984375 11.71875 18.140625 8.90625 
Q 21.296875 6.109375 26.703125 6.109375 
Q 34.1875 6.109375 38.703125 11.40625 
Q 43.21875 16.703125 43.21875 25.484375 
L 43.21875 27.484375 
z
M 52.203125 31.203125 
L 52.203125 0 
L 43.21875 0 
L 43.21875 8.296875 
Q 40.140625 3.328125 35.546875 0.953125 
Q 30.953125 -1.421875 24.3125 -1.421875 
Q 15.921875 -1.421875 10.953125 3.296875 
Q 6 8.015625 6 15.921875 
Q 6 25.140625 12.171875 29.828125 
Q 18.359375 34.515625 30.609375 34.515625 
L 43.21875 34.515625 
L 43.21875 35.40625 
Q 43.21875 41.609375 39.140625 45 
Q 35.0625 48.390625 27.6875 48.390625 
Q 23 48.390625 18.546875 47.265625 
Q 14.109375 46.140625 10.015625 43.890625 
L 10.015625 52.203125 
Q 14.9375 54.109375 19.578125 55.046875 
Q 24.21875 56 28.609375 56 
Q 40.484375 56 46.34375 49.84375 
Q 52.203125 43.703125 52.203125 31.203125 
z
" id="DejaVuSans-97"/>
      <path d="M 54.890625 54.6875 
L 35.109375 28.078125 
L 55.90625 0 
L 45.3125 0 
L 29.390625 21.484375 
L 13.484375 0 
L 2.875 0 
L 24.125 28.609375 
L 4.6875 54.6875 
L 15.28125 54.6875 
L 29.78125 35.203125 
L 44.28125 54.6875 
z
" id="DejaVuSans-120"/>
      <path id="DejaVuSans-32"/>
      <path d="M 9.8125 72.90625 
L 19.671875 72.90625 
L 19.671875 5.078125 
Q 19.671875 -8.109375 14.671875 -14.0625 
Q 9.671875 -20.015625 -1.421875 -20.015625 
L -5.171875 -20.015625 
L -5.171875 -11.71875 
L -2.09375 -11.71875 
Q 4.4375 -11.71875 7.125 -8.046875 
Q 9.8125 -4.390625 9.8125 5.078125 
z
" id="DejaVuSans-74"/>
      <path d="M 53.515625 70.515625 
L 53.515625 60.890625 
Q 47.90625 63.578125 42.921875 64.890625 
Q 37.9375 66.21875 33.296875 66.21875 
Q 25.25 66.21875 20.875 63.09375 
Q 16.5 59.96875 16.5 54.203125 
Q 16.5 49.359375 19.40625 46.890625 
Q 22.3125 44.4375 30.421875 42.921875 
L 36.375 41.703125 
Q 47.40625 39.59375 52.65625 34.296875 
Q 57.90625 29 57.90625 20.125 
Q 57.90625 9.515625 50.796875 4.046875 
Q 43.703125 -1.421875 29.984375 -1.421875 
Q 24.8125 -1.421875 18.96875 -0.25 
Q 13.140625 0.921875 6.890625 3.21875 
L 6.890625 13.375 
Q 12.890625 10.015625 18.65625 8.296875 
Q 24.421875 6.59375 29.984375 6.59375 
Q 38.421875 6.59375 43.015625 9.90625 
Q 47.609375 13.234375 47.609375 19.390625 
Q 47.609375 24.75 44.3125 27.78125 
Q 41.015625 30.8125 33.5 32.328125 
L 27.484375 33.5 
Q 16.453125 35.6875 11.515625 40.375 
Q 6.59375 45.0625 6.59375 53.421875 
Q 6.59375 63.09375 13.40625 68.65625 
Q 20.21875 74.21875 32.171875 74.21875 
Q 37.3125 74.21875 42.625 73.28125 
Q 47.953125 72.359375 53.515625 70.515625 
z
" id="DejaVuSans-83"/>
      <path d="M 19.671875 64.796875 
L 19.671875 8.109375 
L 31.59375 8.109375 
Q 46.6875 8.109375 53.6875 14.9375 
Q 60.6875 21.78125 60.6875 36.53125 
Q 60.6875 51.171875 53.6875 57.984375 
Q 46.6875 64.796875 31.59375 64.796875 
z
M 9.8125 72.90625 
L 30.078125 72.90625 
Q 51.265625 72.90625 61.171875 64.09375 
Q 71.09375 55.28125 71.09375 36.53125 
Q 71.09375 17.671875 61.125 8.828125 
Q 51.171875 0 30.078125 0 
L 9.8125 0 
z
" id="DejaVuSans-68"/>
      <path d="M 9.421875 54.6875 
L 18.40625 54.6875 
L 18.40625 0 
L 9.421875 0 
z
M 9.421875 75.984375 
L 18.40625 75.984375 
L 18.40625 64.59375 
L 9.421875 64.59375 
z
" id="DejaVuSans-105"/>
      <path d="M 2.984375 54.6875 
L 12.5 54.6875 
L 29.59375 8.796875 
L 46.6875 54.6875 
L 56.203125 54.6875 
L 35.6875 0 
L 23.484375 0 
z
" id="DejaVuSans-118"/>
      <path d="M 56.203125 29.59375 
L 56.203125 25.203125 
L 14.890625 25.203125 
Q 15.484375 15.921875 20.484375 11.0625 
Q 25.484375 6.203125 34.421875 6.203125 
Q 39.59375 6.203125 44.453125 7.46875 
Q 49.3125 8.734375 54.109375 11.28125 
L 54.109375 2.78125 
Q 49.265625 0.734375 44.1875 -0.34375 
Q 39.109375 -1.421875 33.890625 -1.421875 
Q 20.796875 -1.421875 13.15625 6.1875 
Q 5.515625 13.8125 5.515625 26.8125 
Q 5.515625 40.234375 12.765625 48.109375 
Q 20.015625 56 32.328125 56 
Q 43.359375 56 49.78125 48.890625 
Q 56.203125 41.796875 56.203125 29.59375 
z
M 47.21875 32.234375 
Q 47.125 39.59375 43.09375 43.984375 
Q 39.0625 48.390625 32.421875 48.390625 
Q 24.90625 48.390625 20.390625 44.140625 
Q 15.875 39.890625 15.1875 32.171875 
z
" id="DejaVuSans-101"/>
      <path d="M 41.109375 46.296875 
Q 39.59375 47.171875 37.8125 47.578125 
Q 36.03125 48 33.890625 48 
Q 26.265625 48 22.1875 43.046875 
Q 18.109375 38.09375 18.109375 28.8125 
L 18.109375 0 
L 9.078125 0 
L 9.078125 54.6875 
L 18.109375 54.6875 
L 18.109375 46.1875 
Q 20.953125 51.171875 25.484375 53.578125 
Q 30.03125 56 36.53125 56 
Q 37.453125 56 38.578125 55.875 
Q 39.703125 55.765625 41.0625 55.515625 
z
" id="DejaVuSans-114"/>
      <path d="M 45.40625 27.984375 
Q 45.40625 37.75 41.375 43.109375 
Q 37.359375 48.484375 30.078125 48.484375 
Q 22.859375 48.484375 18.828125 43.109375 
Q 14.796875 37.75 14.796875 27.984375 
Q 14.796875 18.265625 18.828125 12.890625 
Q 22.859375 7.515625 30.078125 7.515625 
Q 37.359375 7.515625 41.375 12.890625 
Q 45.40625 18.265625 45.40625 27.984375 
z
M 54.390625 6.78125 
Q 54.390625 -7.171875 48.1875 -13.984375 
Q 42 -20.796875 29.203125 -20.796875 
Q 24.46875 -20.796875 20.265625 -20.09375 
Q 16.0625 -19.390625 12.109375 -17.921875 
L 12.109375 -9.1875 
Q 16.0625 -11.328125 19.921875 -12.34375 
Q 23.78125 -13.375 27.78125 -13.375 
Q 36.625 -13.375 41.015625 -8.765625 
Q 45.40625 -4.15625 45.40625 5.171875 
L 45.40625 9.625 
Q 42.625 4.78125 38.28125 2.390625 
Q 33.9375 0 27.875 0 
Q 17.828125 0 11.671875 7.65625 
Q 5.515625 15.328125 5.515625 27.984375 
Q 5.515625 40.671875 11.671875 48.328125 
Q 17.828125 56 27.875 56 
Q 33.9375 56 38.28125 53.609375 
Q 42.625 51.21875 45.40625 46.390625 
L 45.40625 54.6875 
L 54.390625 54.6875 
z
" id="DejaVuSans-103"/>
      <path d="M 54.890625 33.015625 
L 54.890625 0 
L 45.90625 0 
L 45.90625 32.71875 
Q 45.90625 40.484375 42.875 44.328125 
Q 39.84375 48.1875 33.796875 48.1875 
Q 26.515625 48.1875 22.3125 43.546875 
Q 18.109375 38.921875 18.109375 30.90625 
L 18.109375 0 
L 9.078125 0 
L 9.078125 54.6875 
L 18.109375 54.6875 
L 18.109375 46.1875 
Q 21.34375 51.125 25.703125 53.5625 
Q 30.078125 56 35.796875 56 
Q 45.21875 56 50.046875 50.171875 
Q 54.890625 44.34375 54.890625 33.015625 
z
" id="DejaVuSans-110"/>
      <path d="M 48.78125 52.59375 
L 48.78125 44.1875 
Q 44.96875 46.296875 41.140625 47.34375 
Q 37.3125 48.390625 33.40625 48.390625 
Q 24.65625 48.390625 19.8125 42.84375 
Q 14.984375 37.3125 14.984375 27.296875 
Q 14.984375 17.28125 19.8125 11.734375 
Q 24.65625 6.203125 33.40625 6.203125 
Q 37.3125 6.203125 41.140625 7.25 
Q 44.96875 8.296875 48.78125 10.40625 
L 48.78125 2.09375 
Q 45.015625 0.34375 40.984375 -0.53125 
Q 36.96875 -1.421875 32.421875 -1.421875 
Q 20.0625 -1.421875 12.78125 6.34375 
Q 5.515625 14.109375 5.515625 27.296875 
Q 5.515625 40.671875 12.859375 48.328125 
Q 20.21875 56 33.015625 56 
Q 37.15625 56 41.109375 55.140625 
Q 45.0625 54.296875 48.78125 52.59375 
z
" id="DejaVuSans-99"/>
      <path d="M 4.203125 54.6875 
L 13.1875 54.6875 
L 24.421875 12.015625 
L 35.59375 54.6875 
L 46.1875 54.6875 
L 57.421875 12.015625 
L 68.609375 54.6875 
L 77.59375 54.6875 
L 63.28125 0 
L 52.6875 0 
L 40.921875 44.828125 
L 29.109375 0 
L 18.5 0 
z
" id="DejaVuSans-119"/>
      <path d="M 18.3125 70.21875 
L 18.3125 54.6875 
L 36.8125 54.6875 
L 36.8125 47.703125 
L 18.3125 47.703125 
L 18.3125 18.015625 
Q 18.3125 11.328125 20.140625 9.421875 
Q 21.96875 7.515625 27.59375 7.515625 
L 36.8125 7.515625 
L 36.8125 0 
L 27.59375 0 
Q 17.1875 0 13.234375 3.875 
Q 9.28125 7.765625 9.28125 18.015625 
L 9.28125 47.703125 
L 2.6875 47.703125 
L 2.6875 54.6875 
L 9.28125 54.6875 
L 9.28125 70.21875 
z
" id="DejaVuSans-116"/>
      <path d="M 54.890625 33.015625 
L 54.890625 0 
L 45.90625 0 
L 45.90625 32.71875 
Q 45.90625 40.484375 42.875 44.328125 
Q 39.84375 48.1875 33.796875 48.1875 
Q 26.515625 48.1875 22.3125 43.546875 
Q 18.109375 38.921875 18.109375 30.90625 
L 18.109375 0 
L 9.078125 0 
L 9.078125 75.984375 
L 18.109375 75.984375 
L 18.109375 46.1875 
Q 21.34375 51.125 25.703125 53.5625 
Q 30.078125 56 35.796875 56 
Q 45.21875 56 50.046875 50.171875 
Q 54.890625 44.34375 54.890625 33.015625 
z
" id="DejaVuSans-104"/>
      <path d="M 19.734375 29.5 
Q 14.453125 30.671875 12.15625 33.84375 
Q 10.453125 36.078125 10.453125 39.109375 
Q 10.453125 47.40625 18.359375 52.25 
Q 24.609375 56.0625 34.1875 56.0625 
Q 37.890625 56.0625 41.9375 55.46875 
Q 46 54.890625 50.53125 53.71875 
L 48.96875 45.5625 
Q 44.484375 46.96875 40.71875 47.609375 
Q 36.859375 48.25 33.40625 48.25 
Q 27.59375 48.25 23.78125 46 
Q 19.1875 43.3125 19.1875 39.40625 
Q 19.1875 36.8125 21.578125 35.015625 
Q 24.421875 32.859375 30.078125 32.859375 
L 37.640625 32.859375 
L 36.234375 25.4375 
L 29 25.4375 
Q 22.265625 25.4375 18.3125 22.953125 
Q 12.9375 19.578125 12.9375 14.3125 
Q 12.9375 10.984375 15.828125 8.796875 
Q 19.4375 6.0625 26.8125 6.0625 
Q 31.34375 6.0625 35.6875 6.9375 
Q 40.046875 7.859375 43.84375 9.671875 
L 42.1875 1.3125 
Q 37.546875 -0.046875 33.296875 -0.734375 
Q 29.046875 -1.421875 25.140625 -1.421875 
Q 13.53125 -1.421875 8.0625 3.03125 
Q 3.90625 6.453125 3.90625 12.203125 
Q 3.90625 19.96875 9.375 24.75 
Q 13.421875 28.328125 19.734375 29.5 
z
" id="DejaVuSans-Oblique-949"/>
     </defs>
     <g transform="translate(45.716667 325.989583)scale(0.2 -0.2)">
      <use transform="translate(0 0.015625)" xlink:href="#DejaVuSans-77"/>
      <use transform="translate(86.279297 0.015625)" xlink:href="#DejaVuSans-97"/>
      <use transform="translate(147.558594 0.015625)" xlink:href="#DejaVuSans-120"/>
      <use transform="translate(206.738281 0.015625)" xlink:href="#DejaVuSans-32"/>
      <use transform="translate(238.525391 0.015625)" xlink:href="#DejaVuSans-74"/>
      <use transform="translate(268.017578 0.015625)" xlink:href="#DejaVuSans-83"/>
      <use transform="translate(331.494141 0.015625)" xlink:href="#DejaVuSans-32"/>
      <use transform="translate(363.28125 0.015625)" xlink:href="#DejaVuSans-68"/>
      <use transform="translate(440.283203 0.015625)" xlink:href="#DejaVuSans-105"/>
      <use transform="translate(468.066406 0.015625)" xlink:href="#DejaVuSans-118"/>
      <use transform="translate(527.246094 0.015625)" xlink:href="#DejaVuSans-101"/>
      <use transform="translate(588.769531 0.015625)" xlink:href="#DejaVuSans-114"/>
      <use transform="translate(629.882812 0.015625)" xlink:href="#DejaVuSans-103"/>
      <use transform="translate(693.359375 0.015625)" xlink:href="#DejaVuSans-101"/>
      <use transform="translate(754.882812 0.015625)" xlink:href="#DejaVuSans-110"/>
      <use transform="translate(818.261719 0.015625)" xlink:href="#DejaVuSans-99"/>
      <use transform="translate(873.242188 0.015625)" xlink:href="#DejaVuSans-101"/>
      <use transform="translate(934.765625 0.015625)" xlink:href="#DejaVuSans-32"/>
      <use transform="translate(966.552734 0.015625)" xlink:href="#DejaVuSans-119"/>
      <use transform="translate(1048.339844 0.015625)" xlink:href="#DejaVuSans-105"/>
      <use transform="translate(1076.123047 0.015625)" xlink:href="#DejaVuSans-116"/>
      <use transform="translate(1115.332031 0.015625)" xlink:href="#DejaVuSans-104"/>
      <use transform="translate(1178.710938 0.015625)" xlink:href="#DejaVuSans-105"/>
      <use transform="translate(1206.494141 0.015625)" xlink:href="#DejaVuSans-110"/>
      <use transform="translate(1269.873047 0.015625)" xlink:href="#DejaVuSans-32"/>
      <use transform="translate(1301.660156 0.015625)" xlink:href="#DejaVuSans-Oblique-949"/>
     </g>
    </g>
   </g>
   <g id="matplotlib.axis_2">
    <g id="ytick_1">
     <g id="line2d_5">
      <defs>
       <path d="M 0 0 
L -3.5 0 
" id="me0d2d15ab6" style="stroke:#000000;stroke-width:1.6;"/>
      </defs>
      <g>
       <use style="stroke:#000000;stroke-width:1.6;" x="46.7" xlink:href="#me0d2d15ab6" y="272.733333"/>
      </g>
     </g>
     <g id="text_6">
      <!-- 0.0 -->
      <g transform="translate(0.19375 280.331771)scale(0.2 -0.2)">
       <use xlink:href="#DejaVuSans-48"/>
       <use x="63.623047" xlink:href="#DejaVuSans-46"/>
       <use x="95.410156" xlink:href="#DejaVuSans-48"/>
      </g>
     </g>
    </g>
    <g id="ytick_2">
     <g id="line2d_6">
      <g>
       <use style="stroke:#000000;stroke-width:1.6;" x="46.7" xlink:href="#me0d2d15ab6" y="212.491796"/>
      </g>
     </g>
     <g id="text_7">
      <!-- 0.1 -->
      <defs>
       <path d="M 12.40625 8.296875 
L 28.515625 8.296875 
L 28.515625 63.921875 
L 10.984375 60.40625 
L 10.984375 69.390625 
L 28.421875 72.90625 
L 38.28125 72.90625 
L 38.28125 8.296875 
L 54.390625 8.296875 
L 54.390625 0 
L 12.40625 0 
z
" id="DejaVuSans-49"/>
      </defs>
      <g transform="translate(0.19375 220.090233)scale(0.2 -0.2)">
       <use xlink:href="#DejaVuSans-48"/>
       <use x="63.623047" xlink:href="#DejaVuSans-46"/>
       <use x="95.410156" xlink:href="#DejaVuSans-49"/>
      </g>
     </g>
    </g>
    <g id="ytick_3">
     <g id="line2d_7">
      <g>
       <use style="stroke:#000000;stroke-width:1.6;" x="46.7" xlink:href="#me0d2d15ab6" y="152.250258"/>
      </g>
     </g>
     <g id="text_8">
      <!-- 0.2 -->
      <g transform="translate(0.19375 159.848696)scale(0.2 -0.2)">
       <use xlink:href="#DejaVuSans-48"/>
       <use x="63.623047" xlink:href="#DejaVuSans-46"/>
       <use x="95.410156" xlink:href="#DejaVuSans-50"/>
      </g>
     </g>
    </g>
    <g id="ytick_4">
     <g id="line2d_8">
      <g>
       <use style="stroke:#000000;stroke-width:1.6;" x="46.7" xlink:href="#me0d2d15ab6" y="92.008721"/>
      </g>
     </g>
     <g id="text_9">
      <!-- 0.3 -->
      <defs>
       <path d="M 40.578125 39.3125 
Q 47.65625 37.796875 51.625 33 
Q 55.609375 28.21875 55.609375 21.1875 
Q 55.609375 10.40625 48.1875 4.484375 
Q 40.765625 -1.421875 27.09375 -1.421875 
Q 22.515625 -1.421875 17.65625 -0.515625 
Q 12.796875 0.390625 7.625 2.203125 
L 7.625 11.71875 
Q 11.71875 9.328125 16.59375 8.109375 
Q 21.484375 6.890625 26.8125 6.890625 
Q 36.078125 6.890625 40.9375 10.546875 
Q 45.796875 14.203125 45.796875 21.1875 
Q 45.796875 27.640625 41.28125 31.265625 
Q 36.765625 34.90625 28.71875 34.90625 
L 20.21875 34.90625 
L 20.21875 43.015625 
L 29.109375 43.015625 
Q 36.375 43.015625 40.234375 45.921875 
Q 44.09375 48.828125 44.09375 54.296875 
Q 44.09375 59.90625 40.109375 62.90625 
Q 36.140625 65.921875 28.71875 65.921875 
Q 24.65625 65.921875 20.015625 65.03125 
Q 15.375 64.15625 9.8125 62.3125 
L 9.8125 71.09375 
Q 15.4375 72.65625 20.34375 73.4375 
Q 25.25 74.21875 29.59375 74.21875 
Q 40.828125 74.21875 47.359375 69.109375 
Q 53.90625 64.015625 53.90625 55.328125 
Q 53.90625 49.265625 50.4375 45.09375 
Q 46.96875 40.921875 40.578125 39.3125 
z
" id="DejaVuSans-51"/>
      </defs>
      <g transform="translate(0.19375 99.607158)scale(0.2 -0.2)">
       <use xlink:href="#DejaVuSans-48"/>
       <use x="63.623047" xlink:href="#DejaVuSans-46"/>
       <use x="95.410156" xlink:href="#DejaVuSans-51"/>
      </g>
     </g>
    </g>
    <g id="ytick_5">
     <g id="line2d_9">
      <g>
       <use style="stroke:#000000;stroke-width:1.6;" x="46.7" xlink:href="#me0d2d15ab6" y="31.767183"/>
      </g>
     </g>
     <g id="text_10">
      <!-- 0.4 -->
      <g transform="translate(0.19375 39.365621)scale(0.2 -0.2)">
       <use xlink:href="#DejaVuSans-48"/>
       <use x="63.623047" xlink:href="#DejaVuSans-46"/>
       <use x="95.410156" xlink:href="#DejaVuSans-52"/>
      </g>
     </g>
    </g>
   </g>
   <g id="patch_83">
    <path d="M 46.7 272.733333 
L 46.7 3.5 
" style="fill:none;stroke:#000000;stroke-linecap:square;stroke-linejoin:miter;stroke-width:0.8;"/>
   </g>
   <g id="patch_84">
    <path d="M 46.7 272.733333 
L 315.933333 272.733333 
" style="fill:none;stroke:#000000;stroke-linecap:square;stroke-linejoin:miter;stroke-width:0.8;"/>
   </g>
  </g>
  <g id="axes_2">
   <g id="patch_85">
    <path d="M 419.733333 272.733333 
L 688.966667 272.733333 
L 688.966667 3.5 
L 419.733333 3.5 
z
" style="fill:#ffffff;"/>
   </g>
   <g id="PolyCollection_1">
    <defs>
     <path d="M 549.14962 -309.721081 
L 549.14962 -309.760586 
L 550.410503 -309.762575 
L 551.671386 -309.76319 
L 552.932269 -309.762341 
L 554.193152 -309.760182 
L 555.454035 -309.757109 
L 556.714918 -309.753706 
L 557.975801 -309.750638 
L 559.236684 -309.748506 
L 560.497567 -309.747698 
L 561.75845 -309.748292 
L 563.019333 -309.750039 
L 564.280216 -309.752442 
L 565.5411 -309.754933 
L 566.801983 -309.757113 
L 568.062866 -309.758947 
L 569.323749 -309.760799 
L 570.584632 -309.76327 
L 571.845515 -309.766954 
L 573.106398 -309.772255 
L 574.367281 -309.779366 
L 575.628164 -309.788381 
L 576.889047 -309.799439 
L 578.14993 -309.812873 
L 579.410813 -309.829359 
L 580.671696 -309.850049 
L 581.932579 -309.876539 
L 583.193462 -309.910495 
L 584.454345 -309.952876 
L 585.715228 -310.003059 
L 586.976111 -310.058353 
L 588.236994 -310.114336 
L 589.497877 -310.165971 
L 590.75876 -310.208944 
L 592.019643 -310.24054 
L 593.280526 -310.259705 
L 594.541409 -310.266555 
L 595.802292 -310.261857 
L 597.063175 -310.246899 
L 598.324058 -310.223749 
L 599.584941 -310.195594 
L 600.845824 -310.166781 
L 602.106707 -310.142299 
L 603.36759 -310.126751 
L 604.628473 -310.12313 
L 605.889356 -310.131934 
L 607.150239 -310.151008 
L 608.411122 -310.17625 
L 609.672005 -310.202927 
L 610.932888 -310.227134 
L 612.193771 -310.246873 
L 613.454654 -310.26234 
L 614.715537 -310.275295 
L 615.97642 -310.287777 
L 617.237303 -310.300763 
L 618.498186 -310.313469 
L 619.759069 -310.323678 
L 621.019952 -310.328948 
L 622.280835 -310.328076 
L 623.541718 -310.322079 
L 624.802601 -310.314251 
L 626.063484 -310.309323 
L 627.324367 -310.312054 
L 628.58525 -310.325663 
L 629.846133 -310.350547 
L 631.107016 -310.383916 
L 632.3679 -310.420916 
L 633.628783 -310.457293 
L 634.889666 -310.492663 
L 636.150549 -310.532654 
L 637.411432 -310.58843 
L 638.672315 -310.673417 
L 639.933198 -310.798731 
L 641.194081 -310.969748 
L 642.454964 -311.185698 
L 643.715847 -311.442483 
L 644.97673 -311.737227 
L 646.237613 -312.072657 
L 647.498496 -312.460185 
L 648.759379 -312.921482 
L 650.020262 -313.488008 
L 651.281145 -314.196917 
L 652.542028 -315.081608 
L 653.802911 -316.157265 
L 655.063794 -317.404966 
L 656.324677 -318.760004 
L 657.58556 -320.109595 
L 658.846443 -321.302866 
L 660.107326 -322.173322 
L 661.368209 -322.571148 
L 662.629092 -322.39909 
L 663.889975 -321.641738 
L 665.150858 -320.376808 
L 666.411741 -318.761275 
L 667.672624 -316.994741 
L 668.933507 -315.272464 
L 670.19439 -313.744903 
L 671.455273 -312.49663 
L 672.716156 -311.54772 
L 673.977039 -310.871193 
L 673.977039 -308.610474 
L 673.977039 -308.610474 
L 672.716156 -307.933947 
L 671.455273 -306.985036 
L 670.19439 -305.736763 
L 668.933507 -304.209203 
L 667.672624 -302.486926 
L 666.411741 -300.720392 
L 665.150858 -299.104859 
L 663.889975 -297.839929 
L 662.629092 -297.082577 
L 661.368209 -296.910518 
L 660.107326 -297.308345 
L 658.846443 -298.1788 
L 657.58556 -299.372072 
L 656.324677 -300.721663 
L 655.063794 -302.076701 
L 653.802911 -303.324402 
L 652.542028 -304.400059 
L 651.281145 -305.28475 
L 650.020262 -305.993659 
L 648.759379 -306.560185 
L 647.498496 -307.021481 
L 646.237613 -307.40901 
L 644.97673 -307.74444 
L 643.715847 -308.039184 
L 642.454964 -308.295968 
L 641.194081 -308.511919 
L 639.933198 -308.682936 
L 638.672315 -308.80825 
L 637.411432 -308.893237 
L 636.150549 -308.949013 
L 634.889666 -308.989003 
L 633.628783 -309.024373 
L 632.3679 -309.060751 
L 631.107016 -309.09775 
L 629.846133 -309.13112 
L 628.58525 -309.156004 
L 627.324367 -309.169612 
L 626.063484 -309.172344 
L 624.802601 -309.167416 
L 623.541718 -309.159588 
L 622.280835 -309.153591 
L 621.019952 -309.152719 
L 619.759069 -309.157988 
L 618.498186 -309.168197 
L 617.237303 -309.180904 
L 615.97642 -309.19389 
L 614.715537 -309.206371 
L 613.454654 -309.219327 
L 612.193771 -309.234794 
L 610.932888 -309.254533 
L 609.672005 -309.27874 
L 608.411122 -309.305417 
L 607.150239 -309.330659 
L 605.889356 -309.349733 
L 604.628473 -309.358536 
L 603.36759 -309.354916 
L 602.106707 -309.339368 
L 600.845824 -309.314886 
L 599.584941 -309.286072 
L 598.324058 -309.257917 
L 597.063175 -309.234767 
L 595.802292 -309.21981 
L 594.541409 -309.215112 
L 593.280526 -309.221961 
L 592.019643 -309.241127 
L 590.75876 -309.272722 
L 589.497877 -309.315696 
L 588.236994 -309.367331 
L 586.976111 -309.423314 
L 585.715228 -309.478607 
L 584.454345 -309.52879 
L 583.193462 -309.571172 
L 581.932579 -309.605127 
L 580.671696 -309.631618 
L 579.410813 -309.652308 
L 578.14993 -309.668794 
L 576.889047 -309.682228 
L 575.628164 -309.693286 
L 574.367281 -309.7023 
L 573.106398 -309.709412 
L 571.845515 -309.714713 
L 570.584632 -309.718397 
L 569.323749 -309.720868 
L 568.062866 -309.722719 
L 566.801983 -309.724554 
L 565.5411 -309.726734 
L 564.280216 -309.729225 
L 563.019333 -309.731627 
L 561.75845 -309.733375 
L 560.497567 -309.733969 
L 559.236684 -309.73316 
L 557.975801 -309.731029 
L 556.714918 -309.727961 
L 555.454035 -309.724557 
L 554.193152 -309.721484 
L 552.932269 -309.719326 
L 551.671386 -309.718476 
L 550.410503 -309.719092 
L 549.14962 -309.721081 
z
" id="md258b9d7e0" style="stroke:#424242;"/>
    </defs>
    <g clip-path="url(#p70129a1541)">
     <use style="fill:#7c78ab;stroke:#424242;" x="0" xlink:href="#md258b9d7e0" y="333.433333"/>
    </g>
   </g>
   <g id="PolyCollection_2">
    <defs>
     <path d="M 561.8113 -282.802945 
L 561.8113 -282.832055 
L 562.950213 -282.833926 
L 564.089126 -282.836395 
L 565.228039 -282.840184 
L 566.366952 -282.846022 
L 567.505865 -282.854426 
L 568.644778 -282.865512 
L 569.783691 -282.878928 
L 570.922603 -282.893943 
L 572.061516 -282.909698 
L 573.200429 -282.925522 
L 574.339342 -282.941225 
L 575.478255 -282.957218 
L 576.617168 -282.974403 
L 577.756081 -282.993855 
L 578.894994 -283.01643 
L 580.033907 -283.042479 
L 581.172819 -283.071814 
L 582.311732 -283.103911 
L 583.450645 -283.138214 
L 584.589558 -283.174311 
L 585.728471 -283.211853 
L 586.867384 -283.250188 
L 588.006297 -283.287938 
L 589.14521 -283.322769 
L 590.284123 -283.351615 
L 591.423035 -283.371399 
L 592.561948 -283.380051 
L 593.700861 -283.377411 
L 594.839774 -283.365598 
L 595.978687 -283.348582 
L 597.1176 -283.331061 
L 598.256513 -283.317058 
L 599.395426 -283.308798 
L 600.534339 -283.306276 
L 601.673252 -283.307632 
L 602.812164 -283.310077 
L 603.951077 -283.310953 
L 605.08999 -283.308524 
L 606.228903 -283.302307 
L 607.367816 -283.292969 
L 608.506729 -283.281956 
L 609.645642 -283.271029 
L 610.784555 -283.261847 
L 611.923468 -283.255642 
L 613.06238 -283.25306 
L 614.201293 -283.254153 
L 615.340206 -283.258519 
L 616.479119 -283.265482 
L 617.618032 -283.274245 
L 618.756945 -283.283922 
L 619.895858 -283.293503 
L 621.034771 -283.301853 
L 622.173684 -283.30786 
L 623.312597 -283.310782 
L 624.451509 -283.310652 
L 625.590422 -283.308526 
L 626.729335 -283.306331 
L 627.868248 -283.306289 
L 629.007161 -283.310125 
L 630.146074 -283.318441 
L 631.284987 -283.330599 
L 632.4239 -283.345202 
L 633.562813 -283.360974 
L 634.701725 -283.377594 
L 635.840638 -283.396107 
L 636.979551 -283.41874 
L 638.118464 -283.448316 
L 639.257377 -283.487659 
L 640.39629 -283.539423 
L 641.535203 -283.606626 
L 642.674116 -283.693885 
L 643.813029 -283.809112 
L 644.951941 -283.96521 
L 646.090854 -284.181161 
L 647.229767 -284.481857 
L 648.36868 -284.89618 
L 649.507593 -285.453215 
L 650.646506 -286.177024 
L 651.785419 -287.080924 
L 652.924332 -288.162288 
L 654.063245 -289.398665 
L 655.202158 -290.745473 
L 656.34107 -292.135375 
L 657.479983 -293.479758 
L 658.618896 -294.673421 
L 659.757809 -295.603885 
L 660.896722 -296.165833 
L 662.035635 -296.279167 
L 663.174548 -295.906667 
L 664.313461 -295.065848 
L 665.452374 -293.830348 
L 666.591286 -292.319108 
L 667.730199 -290.675583 
L 668.869112 -289.042547 
L 670.008025 -287.539278 
L 671.146938 -286.246666 
L 672.285851 -285.202724 
L 673.424764 -284.407552 
L 674.563677 -283.834305 
L 674.563677 -281.800695 
L 674.563677 -281.800695 
L 673.424764 -281.227448 
L 672.285851 -280.432276 
L 671.146938 -279.388334 
L 670.008025 -278.095722 
L 668.869112 -276.592453 
L 667.730199 -274.959417 
L 666.591286 -273.315892 
L 665.452374 -271.804652 
L 664.313461 -270.569152 
L 663.174548 -269.728333 
L 662.035635 -269.355833 
L 660.896722 -269.469167 
L 659.757809 -270.031115 
L 658.618896 -270.961579 
L 657.479983 -272.155242 
L 656.34107 -273.499625 
L 655.202158 -274.889527 
L 654.063245 -276.236335 
L 652.924332 -277.472712 
L 651.785419 -278.554076 
L 650.646506 -279.457976 
L 649.507593 -280.181785 
L 648.36868 -280.73882 
L 647.229767 -281.153143 
L 646.090854 -281.453839 
L 644.951941 -281.66979 
L 643.813029 -281.825888 
L 642.674116 -281.941115 
L 641.535203 -282.028374 
L 640.39629 -282.095577 
L 639.257377 -282.147341 
L 638.118464 -282.186684 
L 636.979551 -282.21626 
L 635.840638 -282.238893 
L 634.701725 -282.257406 
L 633.562813 -282.274026 
L 632.4239 -282.289798 
L 631.284987 -282.304401 
L 630.146074 -282.316559 
L 629.007161 -282.324875 
L 627.868248 -282.328711 
L 626.729335 -282.328669 
L 625.590422 -282.326474 
L 624.451509 -282.324348 
L 623.312597 -282.324218 
L 622.173684 -282.32714 
L 621.034771 -282.333147 
L 619.895858 -282.341497 
L 618.756945 -282.351078 
L 617.618032 -282.360755 
L 616.479119 -282.369518 
L 615.340206 -282.376481 
L 614.201293 -282.380847 
L 613.06238 -282.38194 
L 611.923468 -282.379358 
L 610.784555 -282.373153 
L 609.645642 -282.363971 
L 608.506729 -282.353044 
L 607.367816 -282.342031 
L 606.228903 -282.332693 
L 605.08999 -282.326476 
L 603.951077 -282.324047 
L 602.812164 -282.324923 
L 601.673252 -282.327368 
L 600.534339 -282.328724 
L 599.395426 -282.326202 
L 598.256513 -282.317942 
L 597.1176 -282.303939 
L 595.978687 -282.286418 
L 594.839774 -282.269402 
L 593.700861 -282.257589 
L 592.561948 -282.254949 
L 591.423035 -282.263601 
L 590.284123 -282.283385 
L 589.14521 -282.312231 
L 588.006297 -282.347062 
L 586.867384 -282.384812 
L 585.728471 -282.423147 
L 584.589558 -282.460689 
L 583.450645 -282.496786 
L 582.311732 -282.531089 
L 581.172819 -282.563186 
L 580.033907 -282.592521 
L 578.894994 -282.61857 
L 577.756081 -282.641145 
L 576.617168 -282.660597 
L 575.478255 -282.677782 
L 574.339342 -282.693775 
L 573.200429 -282.709478 
L 572.061516 -282.725302 
L 570.922603 -282.741057 
L 569.783691 -282.756072 
L 568.644778 -282.769488 
L 567.505865 -282.780574 
L 566.366952 -282.788978 
L 565.228039 -282.794816 
L 564.089126 -282.798605 
L 562.950213 -282.801074 
L 561.8113 -282.802945 
z
" id="m95ca94fa5a" style="stroke:#424242;"/>
    </defs>
    <g clip-path="url(#p70129a1541)">
     <use style="fill:#be631d;stroke:#424242;" x="0" xlink:href="#m95ca94fa5a" y="333.433333"/>
    </g>
   </g>
   <g id="patch_86">
    <path clip-path="url(#p70129a1541)" d="M 437.682222 37.154167 
L 437.682222 37.154167 
L 437.682222 37.154167 
L 437.682222 37.154167 
z
" style="fill:#7c78ab;stroke:#424242;stroke-linejoin:miter;stroke-width:0.5;"/>
   </g>
   <g id="patch_87">
    <path clip-path="url(#p70129a1541)" d="M 437.682222 37.154167 
L 437.682222 37.154167 
L 437.682222 37.154167 
L 437.682222 37.154167 
z
" style="fill:#be631d;stroke:#424242;stroke-linejoin:miter;stroke-width:0.5;"/>
   </g>
   <g id="matplotlib.axis_3">
    <g id="xtick_5">
     <g id="line2d_10">
      <g>
       <use style="stroke:#000000;stroke-width:1.6;" x="437.682222" xlink:href="#m05d1af13cc" y="272.733333"/>
      </g>
     </g>
     <g id="text_11">
      <!-- 0.0 -->
      <g transform="translate(421.779097 302.630208)scale(0.2 -0.2)">
       <use xlink:href="#DejaVuSans-48"/>
       <use x="63.623047" xlink:href="#DejaVuSans-46"/>
       <use x="95.410156" xlink:href="#DejaVuSans-48"/>
      </g>
     </g>
    </g>
    <g id="xtick_6">
     <g id="line2d_11">
      <g>
       <use style="stroke:#000000;stroke-width:1.6;" x="509.477778" xlink:href="#m05d1af13cc" y="272.733333"/>
      </g>
     </g>
     <g id="text_12">
      <!-- 0.2 -->
      <g transform="translate(493.574653 302.630208)scale(0.2 -0.2)">
       <use xlink:href="#DejaVuSans-48"/>
       <use x="63.623047" xlink:href="#DejaVuSans-46"/>
       <use x="95.410156" xlink:href="#DejaVuSans-50"/>
      </g>
     </g>
    </g>
    <g id="xtick_7">
     <g id="line2d_12">
      <g>
       <use style="stroke:#000000;stroke-width:1.6;" x="581.273333" xlink:href="#m05d1af13cc" y="272.733333"/>
      </g>
     </g>
     <g id="text_13">
      <!-- 0.4 -->
      <g transform="translate(565.370208 302.630208)scale(0.2 -0.2)">
       <use xlink:href="#DejaVuSans-48"/>
       <use x="63.623047" xlink:href="#DejaVuSans-46"/>
       <use x="95.410156" xlink:href="#DejaVuSans-52"/>
      </g>
     </g>
    </g>
    <g id="xtick_8">
     <g id="line2d_13">
      <g>
       <use style="stroke:#000000;stroke-width:1.6;" x="653.068889" xlink:href="#m05d1af13cc" y="272.733333"/>
      </g>
     </g>
     <g id="text_14">
      <!-- 0.6 -->
      <g transform="translate(637.165764 302.630208)scale(0.2 -0.2)">
       <use xlink:href="#DejaVuSans-48"/>
       <use x="63.623047" xlink:href="#DejaVuSans-46"/>
       <use x="95.410156" xlink:href="#DejaVuSans-54"/>
      </g>
     </g>
    </g>
    <g id="text_15">
     <!-- Max JS Divergence within $\epsilon$ -->
     <g transform="translate(418.75 325.989583)scale(0.2 -0.2)">
      <use transform="translate(0 0.015625)" xlink:href="#DejaVuSans-77"/>
      <use transform="translate(86.279297 0.015625)" xlink:href="#DejaVuSans-97"/>
      <use transform="translate(147.558594 0.015625)" xlink:href="#DejaVuSans-120"/>
      <use transform="translate(206.738281 0.015625)" xlink:href="#DejaVuSans-32"/>
      <use transform="translate(238.525391 0.015625)" xlink:href="#DejaVuSans-74"/>
      <use transform="translate(268.017578 0.015625)" xlink:href="#DejaVuSans-83"/>
      <use transform="translate(331.494141 0.015625)" xlink:href="#DejaVuSans-32"/>
      <use transform="translate(363.28125 0.015625)" xlink:href="#DejaVuSans-68"/>
      <use transform="translate(440.283203 0.015625)" xlink:href="#DejaVuSans-105"/>
      <use transform="translate(468.066406 0.015625)" xlink:href="#DejaVuSans-118"/>
      <use transform="translate(527.246094 0.015625)" xlink:href="#DejaVuSans-101"/>
      <use transform="translate(588.769531 0.015625)" xlink:href="#DejaVuSans-114"/>
      <use transform="translate(629.882812 0.015625)" xlink:href="#DejaVuSans-103"/>
      <use transform="translate(693.359375 0.015625)" xlink:href="#DejaVuSans-101"/>
      <use transform="translate(754.882812 0.015625)" xlink:href="#DejaVuSans-110"/>
      <use transform="translate(818.261719 0.015625)" xlink:href="#DejaVuSans-99"/>
      <use transform="translate(873.242188 0.015625)" xlink:href="#DejaVuSans-101"/>
      <use transform="translate(934.765625 0.015625)" xlink:href="#DejaVuSans-32"/>
      <use transform="translate(966.552734 0.015625)" xlink:href="#DejaVuSans-119"/>
      <use transform="translate(1048.339844 0.015625)" xlink:href="#DejaVuSans-105"/>
      <use transform="translate(1076.123047 0.015625)" xlink:href="#DejaVuSans-116"/>
      <use transform="translate(1115.332031 0.015625)" xlink:href="#DejaVuSans-104"/>
      <use transform="translate(1178.710938 0.015625)" xlink:href="#DejaVuSans-105"/>
      <use transform="translate(1206.494141 0.015625)" xlink:href="#DejaVuSans-110"/>
      <use transform="translate(1269.873047 0.015625)" xlink:href="#DejaVuSans-32"/>
      <use transform="translate(1301.660156 0.015625)" xlink:href="#DejaVuSans-Oblique-949"/>
     </g>
    </g>
   </g>
   <g id="matplotlib.axis_4">
    <g id="ytick_6">
     <g id="line2d_14">
      <g>
       <use style="stroke:#000000;stroke-width:1.6;" x="419.733333" xlink:href="#me0d2d15ab6" y="37.154167"/>
      </g>
     </g>
     <g id="text_16">
      <!-- [0.00, -->
      <defs>
       <path d="M 8.59375 75.984375 
L 29.296875 75.984375 
L 29.296875 69 
L 17.578125 69 
L 17.578125 -6.203125 
L 29.296875 -6.203125 
L 29.296875 -13.1875 
L 8.59375 -13.1875 
z
" id="DejaVuSans-91"/>
       <path d="M 11.71875 12.40625 
L 22.015625 12.40625 
L 22.015625 4 
L 14.015625 -11.625 
L 7.71875 -11.625 
L 11.71875 4 
z
" id="DejaVuSans-44"/>
      </defs>
      <g transform="translate(346.342708 33.554792)scale(0.2 -0.2)">
       <use xlink:href="#DejaVuSans-91"/>
       <use x="39.013672" xlink:href="#DejaVuSans-48"/>
       <use x="102.636719" xlink:href="#DejaVuSans-46"/>
       <use x="134.423828" xlink:href="#DejaVuSans-48"/>
       <use x="198.046875" xlink:href="#DejaVuSans-48"/>
       <use x="261.669922" xlink:href="#DejaVuSans-44"/>
      </g>
      <!-- 0.25) -->
      <defs>
       <path d="M 10.796875 72.90625 
L 49.515625 72.90625 
L 49.515625 64.59375 
L 19.828125 64.59375 
L 19.828125 46.734375 
Q 21.96875 47.46875 24.109375 47.828125 
Q 26.265625 48.1875 28.421875 48.1875 
Q 40.625 48.1875 47.75 41.5 
Q 54.890625 34.8125 54.890625 23.390625 
Q 54.890625 11.625 47.5625 5.09375 
Q 40.234375 -1.421875 26.90625 -1.421875 
Q 22.3125 -1.421875 17.546875 -0.640625 
Q 12.796875 0.140625 7.71875 1.703125 
L 7.71875 11.625 
Q 12.109375 9.234375 16.796875 8.0625 
Q 21.484375 6.890625 26.703125 6.890625 
Q 35.15625 6.890625 40.078125 11.328125 
Q 45.015625 15.765625 45.015625 23.390625 
Q 45.015625 31 40.078125 35.4375 
Q 35.15625 39.890625 26.703125 39.890625 
Q 22.75 39.890625 18.8125 39.015625 
Q 14.890625 38.140625 10.796875 36.28125 
z
" id="DejaVuSans-53"/>
       <path d="M 8.015625 75.875 
L 15.828125 75.875 
Q 23.140625 64.359375 26.78125 53.3125 
Q 30.421875 42.28125 30.421875 31.390625 
Q 30.421875 20.453125 26.78125 9.375 
Q 23.140625 -1.703125 15.828125 -13.1875 
L 8.015625 -13.1875 
Q 14.5 -2 17.703125 9.0625 
Q 20.90625 20.125 20.90625 31.390625 
Q 20.90625 42.671875 17.703125 53.65625 
Q 14.5 64.65625 8.015625 75.875 
z
" id="DejaVuSans-41"/>
      </defs>
      <g transform="translate(352.698958 55.950417)scale(0.2 -0.2)">
       <use xlink:href="#DejaVuSans-48"/>
       <use x="63.623047" xlink:href="#DejaVuSans-46"/>
       <use x="95.410156" xlink:href="#DejaVuSans-50"/>
       <use x="159.033203" xlink:href="#DejaVuSans-53"/>
       <use x="222.65625" xlink:href="#DejaVuSans-41"/>
      </g>
     </g>
    </g>
    <g id="ytick_7">
     <g id="line2d_15">
      <g>
       <use style="stroke:#000000;stroke-width:1.6;" x="419.733333" xlink:href="#me0d2d15ab6" y="104.4625"/>
      </g>
     </g>
     <g id="text_17">
      <!-- [0.25, -->
      <g transform="translate(346.342708 100.863125)scale(0.2 -0.2)">
       <use xlink:href="#DejaVuSans-91"/>
       <use x="39.013672" xlink:href="#DejaVuSans-48"/>
       <use x="102.636719" xlink:href="#DejaVuSans-46"/>
       <use x="134.423828" xlink:href="#DejaVuSans-50"/>
       <use x="198.046875" xlink:href="#DejaVuSans-53"/>
       <use x="261.669922" xlink:href="#DejaVuSans-44"/>
      </g>
      <!-- 0.50) -->
      <g transform="translate(352.698958 123.25875)scale(0.2 -0.2)">
       <use xlink:href="#DejaVuSans-48"/>
       <use x="63.623047" xlink:href="#DejaVuSans-46"/>
       <use x="95.410156" xlink:href="#DejaVuSans-53"/>
       <use x="159.033203" xlink:href="#DejaVuSans-48"/>
       <use x="222.65625" xlink:href="#DejaVuSans-41"/>
      </g>
     </g>
    </g>
    <g id="ytick_8">
     <g id="line2d_16">
      <g>
       <use style="stroke:#000000;stroke-width:1.6;" x="419.733333" xlink:href="#me0d2d15ab6" y="171.770833"/>
      </g>
     </g>
     <g id="text_18">
      <!-- [0.50, -->
      <g transform="translate(346.342708 168.171458)scale(0.2 -0.2)">
       <use xlink:href="#DejaVuSans-91"/>
       <use x="39.013672" xlink:href="#DejaVuSans-48"/>
       <use x="102.636719" xlink:href="#DejaVuSans-46"/>
       <use x="134.423828" xlink:href="#DejaVuSans-53"/>
       <use x="198.046875" xlink:href="#DejaVuSans-48"/>
       <use x="261.669922" xlink:href="#DejaVuSans-44"/>
      </g>
      <!-- 0.75) -->
      <defs>
       <path d="M 8.203125 72.90625 
L 55.078125 72.90625 
L 55.078125 68.703125 
L 28.609375 0 
L 18.3125 0 
L 43.21875 64.59375 
L 8.203125 64.59375 
z
" id="DejaVuSans-55"/>
      </defs>
      <g transform="translate(352.698958 190.567083)scale(0.2 -0.2)">
       <use xlink:href="#DejaVuSans-48"/>
       <use x="63.623047" xlink:href="#DejaVuSans-46"/>
       <use x="95.410156" xlink:href="#DejaVuSans-55"/>
       <use x="159.033203" xlink:href="#DejaVuSans-53"/>
       <use x="222.65625" xlink:href="#DejaVuSans-41"/>
      </g>
     </g>
    </g>
    <g id="ytick_9">
     <g id="line2d_17">
      <g>
       <use style="stroke:#000000;stroke-width:1.6;" x="419.733333" xlink:href="#me0d2d15ab6" y="239.079167"/>
      </g>
     </g>
     <g id="text_19">
      <!-- [0.75, -->
      <g transform="translate(346.342708 235.479792)scale(0.2 -0.2)">
       <use xlink:href="#DejaVuSans-91"/>
       <use x="39.013672" xlink:href="#DejaVuSans-48"/>
       <use x="102.636719" xlink:href="#DejaVuSans-46"/>
       <use x="134.423828" xlink:href="#DejaVuSans-55"/>
       <use x="198.046875" xlink:href="#DejaVuSans-53"/>
       <use x="261.669922" xlink:href="#DejaVuSans-44"/>
      </g>
      <!-- 1.00) -->
      <g transform="translate(352.698958 257.875417)scale(0.2 -0.2)">
       <use xlink:href="#DejaVuSans-49"/>
       <use x="63.623047" xlink:href="#DejaVuSans-46"/>
       <use x="95.410156" xlink:href="#DejaVuSans-48"/>
       <use x="159.033203" xlink:href="#DejaVuSans-48"/>
       <use x="222.65625" xlink:href="#DejaVuSans-41"/>
      </g>
     </g>
    </g>
    <g id="text_20">
     <!-- Max Attention -->
     <defs>
      <path d="M 34.1875 63.1875 
L 20.796875 26.90625 
L 47.609375 26.90625 
z
M 28.609375 72.90625 
L 39.796875 72.90625 
L 67.578125 0 
L 57.328125 0 
L 50.6875 18.703125 
L 17.828125 18.703125 
L 11.1875 0 
L 0.78125 0 
z
" id="DejaVuSans-65"/>
      <path d="M 30.609375 48.390625 
Q 23.390625 48.390625 19.1875 42.75 
Q 14.984375 37.109375 14.984375 27.296875 
Q 14.984375 17.484375 19.15625 11.84375 
Q 23.34375 6.203125 30.609375 6.203125 
Q 37.796875 6.203125 41.984375 11.859375 
Q 46.1875 17.53125 46.1875 27.296875 
Q 46.1875 37.015625 41.984375 42.703125 
Q 37.796875 48.390625 30.609375 48.390625 
z
M 30.609375 56 
Q 42.328125 56 49.015625 48.375 
Q 55.71875 40.765625 55.71875 27.296875 
Q 55.71875 13.875 49.015625 6.21875 
Q 42.328125 -1.421875 30.609375 -1.421875 
Q 18.84375 -1.421875 12.171875 6.21875 
Q 5.515625 13.875 5.515625 27.296875 
Q 5.515625 40.765625 12.171875 48.375 
Q 18.84375 56 30.609375 56 
z
" id="DejaVuSans-111"/>
     </defs>
     <g transform="translate(338.183333 208.294792)rotate(-90)scale(0.2 -0.2)">
      <use xlink:href="#DejaVuSans-77"/>
      <use x="86.279297" xlink:href="#DejaVuSans-97"/>
      <use x="147.558594" xlink:href="#DejaVuSans-120"/>
      <use x="206.738281" xlink:href="#DejaVuSans-32"/>
      <use x="238.525391" xlink:href="#DejaVuSans-65"/>
      <use x="306.917969" xlink:href="#DejaVuSans-116"/>
      <use x="346.126953" xlink:href="#DejaVuSans-116"/>
      <use x="385.335938" xlink:href="#DejaVuSans-101"/>
      <use x="446.859375" xlink:href="#DejaVuSans-110"/>
      <use x="510.238281" xlink:href="#DejaVuSans-116"/>
      <use x="549.447266" xlink:href="#DejaVuSans-105"/>
      <use x="577.230469" xlink:href="#DejaVuSans-111"/>
      <use x="638.412109" xlink:href="#DejaVuSans-110"/>
     </g>
    </g>
   </g>
   <g id="line2d_18">
    <path clip-path="url(#p70129a1541)" style="fill:none;stroke:#424242;stroke-dasharray:1.5,1.5;stroke-dashoffset:0;"/>
   </g>
   <g id="line2d_19">
    <path clip-path="url(#p70129a1541)" style="fill:none;stroke:#424242;stroke-dasharray:3,3;stroke-dashoffset:0;"/>
   </g>
   <g id="line2d_20">
    <path clip-path="url(#p70129a1541)" style="fill:none;stroke:#424242;stroke-dasharray:1.5,1.5;stroke-dashoffset:0;"/>
   </g>
   <g id="line2d_21">
    <path clip-path="url(#p70129a1541)" style="fill:none;stroke:#424242;stroke-dasharray:1.5,1.5;stroke-dashoffset:0;"/>
   </g>
   <g id="line2d_22">
    <path clip-path="url(#p70129a1541)" style="fill:none;stroke:#424242;stroke-dasharray:3,3;stroke-dashoffset:0;"/>
   </g>
   <g id="line2d_23">
    <path clip-path="url(#p70129a1541)" style="fill:none;stroke:#424242;stroke-dasharray:1.5,1.5;stroke-dashoffset:0;"/>
   </g>
   <g id="patch_88">
    <path style="fill:none;stroke:#000000;stroke-linecap:square;stroke-linejoin:miter;stroke-width:0.8;"/>
   </g>
   <g id="patch_89">
    <path style="fill:none;stroke:#000000;stroke-linecap:square;stroke-linejoin:miter;stroke-width:0.8;"/>
   </g>
  </g>
 </g>
 <defs>
  <clipPath id="p4a5a4a3106">
   <rect height="269.233333" width="269.233333" x="46.7" y="3.5"/>
  </clipPath>
  <clipPath id="p70129a1541">
   <rect height="269.233333" width="269.233333" x="419.733333" y="3.5"/>
  </clipPath>
 </defs>
</svg>
