<?xml version="1.0" encoding="utf-8" standalone="no"?>
<!DOCTYPE svg PUBLIC "-//W3C//DTD SVG 1.1//EN"
  "http://www.w3.org/Graphics/SVG/1.1/DTD/svg11.dtd">
<!-- Created with matplotlib (https://matplotlib.org/) -->
<svg height="329.141667pt" version="1.1" viewBox="0 0 328.266536 329.141667" width="328.266536pt" xmlns="http://www.w3.org/2000/svg" xmlns:xlink="http://www.w3.org/1999/xlink">
 <defs>
  <style type="text/css">
*{stroke-linecap:butt;stroke-linejoin:round;}
  </style>
 </defs>
 <g id="figure_1">
  <g id="patch_1">
   <path d="M 0 329.141667 
L 328.266536 329.141667 
L 328.266536 0 
L 0 0 
z
" style="fill:#ffffff;"/>
  </g>
  <g id="axes_1">
   <g id="patch_2">
    <path d="M 59.575 268.441667 
L 324.516667 268.441667 
L 324.516667 3.5 
L 59.575 3.5 
z
" style="fill:#ffffff;"/>
   </g>
   <g id="patch_3">
    <path clip-path="url(#pbeec865f69)" d="M 71.617803 268.441667 
L 77.639205 268.441667 
L 77.639205 268.441667 
L 71.617803 268.441667 
z
" style="fill:#7570b3;opacity:0.6;stroke:#000000;stroke-linejoin:miter;stroke-width:0.5;"/>
   </g>
   <g id="patch_4">
    <path clip-path="url(#pbeec865f69)" d="M 77.639205 268.441667 
L 83.660606 268.441667 
L 83.660606 268.441667 
L 77.639205 268.441667 
z
" style="fill:#7570b3;opacity:0.6;stroke:#000000;stroke-linejoin:miter;stroke-width:0.5;"/>
   </g>
   <g id="patch_5">
    <path clip-path="url(#pbeec865f69)" d="M 83.660606 268.441667 
L 89.682008 268.441667 
L 89.682008 268.441667 
L 83.660606 268.441667 
z
" style="fill:#7570b3;opacity:0.6;stroke:#000000;stroke-linejoin:miter;stroke-width:0.5;"/>
   </g>
   <g id="patch_6">
    <path clip-path="url(#pbeec865f69)" d="M 89.682008 268.441667 
L 95.703409 268.441667 
L 95.703409 268.441667 
L 89.682008 268.441667 
z
" style="fill:#7570b3;opacity:0.6;stroke:#000000;stroke-linejoin:miter;stroke-width:0.5;"/>
   </g>
   <g id="patch_7">
    <path clip-path="url(#pbeec865f69)" d="M 95.703409 268.441667 
L 101.724811 268.441667 
L 101.724811 268.441667 
L 95.703409 268.441667 
z
" style="fill:#7570b3;opacity:0.6;stroke:#000000;stroke-linejoin:miter;stroke-width:0.5;"/>
   </g>
   <g id="patch_8">
    <path clip-path="url(#pbeec865f69)" d="M 101.724811 268.441667 
L 107.746212 268.441667 
L 107.746212 268.441667 
L 101.724811 268.441667 
z
" style="fill:#7570b3;opacity:0.6;stroke:#000000;stroke-linejoin:miter;stroke-width:0.5;"/>
   </g>
   <g id="patch_9">
    <path clip-path="url(#pbeec865f69)" d="M 107.746212 268.441667 
L 113.767614 268.441667 
L 113.767614 268.441667 
L 107.746212 268.441667 
z
" style="fill:#7570b3;opacity:0.6;stroke:#000000;stroke-linejoin:miter;stroke-width:0.5;"/>
   </g>
   <g id="patch_10">
    <path clip-path="url(#pbeec865f69)" d="M 113.767614 268.441667 
L 119.789015 268.441667 
L 119.789015 268.441667 
L 113.767614 268.441667 
z
" style="fill:#7570b3;opacity:0.6;stroke:#000000;stroke-linejoin:miter;stroke-width:0.5;"/>
   </g>
   <g id="patch_11">
    <path clip-path="url(#pbeec865f69)" d="M 119.789015 268.441667 
L 125.810417 268.441667 
L 125.810417 268.441667 
L 119.789015 268.441667 
z
" style="fill:#7570b3;opacity:0.6;stroke:#000000;stroke-linejoin:miter;stroke-width:0.5;"/>
   </g>
   <g id="patch_12">
    <path clip-path="url(#pbeec865f69)" d="M 125.810417 268.441667 
L 131.831818 268.441667 
L 131.831818 268.441667 
L 125.810417 268.441667 
z
" style="fill:#7570b3;opacity:0.6;stroke:#000000;stroke-linejoin:miter;stroke-width:0.5;"/>
   </g>
   <g id="patch_13">
    <path clip-path="url(#pbeec865f69)" d="M 131.831818 268.441667 
L 137.85322 268.441667 
L 137.85322 268.441667 
L 131.831818 268.441667 
z
" style="fill:#7570b3;opacity:0.6;stroke:#000000;stroke-linejoin:miter;stroke-width:0.5;"/>
   </g>
   <g id="patch_14">
    <path clip-path="url(#pbeec865f69)" d="M 137.85322 268.441667 
L 143.874621 268.441667 
L 143.874621 268.441667 
L 137.85322 268.441667 
z
" style="fill:#7570b3;opacity:0.6;stroke:#000000;stroke-linejoin:miter;stroke-width:0.5;"/>
   </g>
   <g id="patch_15">
    <path clip-path="url(#pbeec865f69)" d="M 143.874621 268.441667 
L 149.896023 268.441667 
L 149.896023 268.441667 
L 143.874621 268.441667 
z
" style="fill:#7570b3;opacity:0.6;stroke:#000000;stroke-linejoin:miter;stroke-width:0.5;"/>
   </g>
   <g id="patch_16">
    <path clip-path="url(#pbeec865f69)" d="M 149.896023 268.441667 
L 155.917424 268.441667 
L 155.917424 268.441667 
L 149.896023 268.441667 
z
" style="fill:#7570b3;opacity:0.6;stroke:#000000;stroke-linejoin:miter;stroke-width:0.5;"/>
   </g>
   <g id="patch_17">
    <path clip-path="url(#pbeec865f69)" d="M 155.917424 268.441667 
L 161.938826 268.441667 
L 161.938826 268.441667 
L 155.917424 268.441667 
z
" style="fill:#7570b3;opacity:0.6;stroke:#000000;stroke-linejoin:miter;stroke-width:0.5;"/>
   </g>
   <g id="patch_18">
    <path clip-path="url(#pbeec865f69)" d="M 161.938826 268.441667 
L 167.960227 268.441667 
L 167.960227 268.441667 
L 161.938826 268.441667 
z
" style="fill:#7570b3;opacity:0.6;stroke:#000000;stroke-linejoin:miter;stroke-width:0.5;"/>
   </g>
   <g id="patch_19">
    <path clip-path="url(#pbeec865f69)" d="M 167.960227 268.441667 
L 173.981629 268.441667 
L 173.981629 268.441667 
L 167.960227 268.441667 
z
" style="fill:#7570b3;opacity:0.6;stroke:#000000;stroke-linejoin:miter;stroke-width:0.5;"/>
   </g>
   <g id="patch_20">
    <path clip-path="url(#pbeec865f69)" d="M 173.981629 268.441667 
L 180.00303 268.441667 
L 180.00303 268.441667 
L 173.981629 268.441667 
z
" style="fill:#7570b3;opacity:0.6;stroke:#000000;stroke-linejoin:miter;stroke-width:0.5;"/>
   </g>
   <g id="patch_21">
    <path clip-path="url(#pbeec865f69)" d="M 180.00303 268.441667 
L 186.024432 268.441667 
L 186.024432 268.441667 
L 180.00303 268.441667 
z
" style="fill:#7570b3;opacity:0.6;stroke:#000000;stroke-linejoin:miter;stroke-width:0.5;"/>
   </g>
   <g id="patch_22">
    <path clip-path="url(#pbeec865f69)" d="M 186.024432 268.441667 
L 192.045833 268.441667 
L 192.045833 268.441667 
L 186.024432 268.441667 
z
" style="fill:#7570b3;opacity:0.6;stroke:#000000;stroke-linejoin:miter;stroke-width:0.5;"/>
   </g>
   <g id="patch_23">
    <path clip-path="url(#pbeec865f69)" d="M 192.045833 268.441667 
L 198.067235 268.441667 
L 198.067235 268.441667 
L 192.045833 268.441667 
z
" style="fill:#7570b3;opacity:0.6;stroke:#000000;stroke-linejoin:miter;stroke-width:0.5;"/>
   </g>
   <g id="patch_24">
    <path clip-path="url(#pbeec865f69)" d="M 198.067235 268.441667 
L 204.088636 268.441667 
L 204.088636 267.18915 
L 198.067235 267.18915 
z
" style="fill:#7570b3;opacity:0.6;stroke:#000000;stroke-linejoin:miter;stroke-width:0.5;"/>
   </g>
   <g id="patch_25">
    <path clip-path="url(#pbeec865f69)" d="M 204.088636 268.441667 
L 210.110038 268.441667 
L 210.110038 268.441667 
L 204.088636 268.441667 
z
" style="fill:#7570b3;opacity:0.6;stroke:#000000;stroke-linejoin:miter;stroke-width:0.5;"/>
   </g>
   <g id="patch_26">
    <path clip-path="url(#pbeec865f69)" d="M 210.110038 268.441667 
L 216.131439 268.441667 
L 216.131439 264.684118 
L 210.110038 264.684118 
z
" style="fill:#7570b3;opacity:0.6;stroke:#000000;stroke-linejoin:miter;stroke-width:0.5;"/>
   </g>
   <g id="patch_27">
    <path clip-path="url(#pbeec865f69)" d="M 216.131439 268.441667 
L 222.152841 268.441667 
L 222.152841 252.158954 
L 216.131439 252.158954 
z
" style="fill:#7570b3;opacity:0.6;stroke:#000000;stroke-linejoin:miter;stroke-width:0.5;"/>
   </g>
   <g id="patch_28">
    <path clip-path="url(#pbeec865f69)" d="M 222.152841 268.441667 
L 228.174242 268.441667 
L 228.174242 244.017598 
L 222.152841 244.017598 
z
" style="fill:#7570b3;opacity:0.6;stroke:#000000;stroke-linejoin:miter;stroke-width:0.5;"/>
   </g>
   <g id="patch_29">
    <path clip-path="url(#pbeec865f69)" d="M 228.174242 268.441667 
L 234.195644 268.441667 
L 234.195644 215.209722 
L 228.174242 215.209722 
z
" style="fill:#7570b3;opacity:0.6;stroke:#000000;stroke-linejoin:miter;stroke-width:0.5;"/>
   </g>
   <g id="patch_30">
    <path clip-path="url(#pbeec865f69)" d="M 234.195644 268.441667 
L 240.217045 268.441667 
L 240.217045 182.018039 
L 234.195644 182.018039 
z
" style="fill:#7570b3;opacity:0.6;stroke:#000000;stroke-linejoin:miter;stroke-width:0.5;"/>
   </g>
   <g id="patch_31">
    <path clip-path="url(#pbeec865f69)" d="M 240.217045 268.441667 
L 246.238447 268.441667 
L 246.238447 161.351519 
L 240.217045 161.351519 
z
" style="fill:#7570b3;opacity:0.6;stroke:#000000;stroke-linejoin:miter;stroke-width:0.5;"/>
   </g>
   <g id="patch_32">
    <path clip-path="url(#pbeec865f69)" d="M 246.238447 268.441667 
L 252.259848 268.441667 
L 252.259848 130.664869 
L 246.238447 130.664869 
z
" style="fill:#7570b3;opacity:0.6;stroke:#000000;stroke-linejoin:miter;stroke-width:0.5;"/>
   </g>
   <g id="patch_33">
    <path clip-path="url(#pbeec865f69)" d="M 252.259848 268.441667 
L 258.28125 268.441667 
L 258.28125 128.786094 
L 252.259848 128.786094 
z
" style="fill:#7570b3;opacity:0.6;stroke:#000000;stroke-linejoin:miter;stroke-width:0.5;"/>
   </g>
   <g id="patch_34">
    <path clip-path="url(#pbeec865f69)" d="M 258.28125 268.441667 
L 264.302652 268.441667 
L 264.302652 158.220228 
L 258.28125 158.220228 
z
" style="fill:#7570b3;opacity:0.6;stroke:#000000;stroke-linejoin:miter;stroke-width:0.5;"/>
   </g>
   <g id="patch_35">
    <path clip-path="url(#pbeec865f69)" d="M 264.302652 268.441667 
L 270.324053 268.441667 
L 270.324053 184.523072 
L 264.302652 184.523072 
z
" style="fill:#7570b3;opacity:0.6;stroke:#000000;stroke-linejoin:miter;stroke-width:0.5;"/>
   </g>
   <g id="patch_36">
    <path clip-path="url(#pbeec865f69)" d="M 270.324053 268.441667 
L 276.345455 268.441667 
L 276.345455 202.684559 
L 270.324053 202.684559 
z
" style="fill:#7570b3;opacity:0.6;stroke:#000000;stroke-linejoin:miter;stroke-width:0.5;"/>
   </g>
   <g id="patch_37">
    <path clip-path="url(#pbeec865f69)" d="M 276.345455 268.441667 
L 282.366856 268.441667 
L 282.366856 217.714755 
L 276.345455 217.714755 
z
" style="fill:#7570b3;opacity:0.6;stroke:#000000;stroke-linejoin:miter;stroke-width:0.5;"/>
   </g>
   <g id="patch_38">
    <path clip-path="url(#pbeec865f69)" d="M 282.366856 268.441667 
L 288.388258 268.441667 
L 288.388258 197.674493 
L 282.366856 197.674493 
z
" style="fill:#7570b3;opacity:0.6;stroke:#000000;stroke-linejoin:miter;stroke-width:0.5;"/>
   </g>
   <g id="patch_39">
    <path clip-path="url(#pbeec865f69)" d="M 288.388258 268.441667 
L 294.409659 268.441667 
L 294.409659 129.412352 
L 288.388258 129.412352 
z
" style="fill:#7570b3;opacity:0.6;stroke:#000000;stroke-linejoin:miter;stroke-width:0.5;"/>
   </g>
   <g id="patch_40">
    <path clip-path="url(#pbeec865f69)" d="M 294.409659 268.441667 
L 300.431061 268.441667 
L 300.431061 91.836862 
L 294.409659 91.836862 
z
" style="fill:#7570b3;opacity:0.6;stroke:#000000;stroke-linejoin:miter;stroke-width:0.5;"/>
   </g>
   <g id="patch_41">
    <path clip-path="url(#pbeec865f69)" d="M 300.431061 268.441667 
L 306.452462 268.441667 
L 306.452462 178.26049 
L 300.431061 178.26049 
z
" style="fill:#7570b3;opacity:0.6;stroke:#000000;stroke-linejoin:miter;stroke-width:0.5;"/>
   </g>
   <g id="patch_42">
    <path clip-path="url(#pbeec865f69)" d="M 306.452462 268.441667 
L 312.473864 268.441667 
L 312.473864 268.441667 
L 306.452462 268.441667 
z
" style="fill:#7570b3;opacity:0.6;stroke:#000000;stroke-linejoin:miter;stroke-width:0.5;"/>
   </g>
   <g id="patch_43">
    <path clip-path="url(#pbeec865f69)" d="M 71.617803 268.441667 
L 77.639205 268.441667 
L 77.639205 268.441667 
L 71.617803 268.441667 
z
" style="fill:#d95f02;opacity:0.6;stroke:#000000;stroke-linejoin:miter;stroke-width:0.5;"/>
   </g>
   <g id="patch_44">
    <path clip-path="url(#pbeec865f69)" d="M 77.639205 268.441667 
L 83.660606 268.441667 
L 83.660606 268.441667 
L 77.639205 268.441667 
z
" style="fill:#d95f02;opacity:0.6;stroke:#000000;stroke-linejoin:miter;stroke-width:0.5;"/>
   </g>
   <g id="patch_45">
    <path clip-path="url(#pbeec865f69)" d="M 83.660606 268.441667 
L 89.682008 268.441667 
L 89.682008 268.441667 
L 83.660606 268.441667 
z
" style="fill:#d95f02;opacity:0.6;stroke:#000000;stroke-linejoin:miter;stroke-width:0.5;"/>
   </g>
   <g id="patch_46">
    <path clip-path="url(#pbeec865f69)" d="M 89.682008 268.441667 
L 95.703409 268.441667 
L 95.703409 268.441667 
L 89.682008 268.441667 
z
" style="fill:#d95f02;opacity:0.6;stroke:#000000;stroke-linejoin:miter;stroke-width:0.5;"/>
   </g>
   <g id="patch_47">
    <path clip-path="url(#pbeec865f69)" d="M 95.703409 268.441667 
L 101.724811 268.441667 
L 101.724811 268.441667 
L 95.703409 268.441667 
z
" style="fill:#d95f02;opacity:0.6;stroke:#000000;stroke-linejoin:miter;stroke-width:0.5;"/>
   </g>
   <g id="patch_48">
    <path clip-path="url(#pbeec865f69)" d="M 101.724811 268.441667 
L 107.746212 268.441667 
L 107.746212 268.441667 
L 101.724811 268.441667 
z
" style="fill:#d95f02;opacity:0.6;stroke:#000000;stroke-linejoin:miter;stroke-width:0.5;"/>
   </g>
   <g id="patch_49">
    <path clip-path="url(#pbeec865f69)" d="M 107.746212 268.441667 
L 113.767614 268.441667 
L 113.767614 268.441667 
L 107.746212 268.441667 
z
" style="fill:#d95f02;opacity:0.6;stroke:#000000;stroke-linejoin:miter;stroke-width:0.5;"/>
   </g>
   <g id="patch_50">
    <path clip-path="url(#pbeec865f69)" d="M 113.767614 268.441667 
L 119.789015 268.441667 
L 119.789015 268.441667 
L 113.767614 268.441667 
z
" style="fill:#d95f02;opacity:0.6;stroke:#000000;stroke-linejoin:miter;stroke-width:0.5;"/>
   </g>
   <g id="patch_51">
    <path clip-path="url(#pbeec865f69)" d="M 119.789015 268.441667 
L 125.810417 268.441667 
L 125.810417 268.441667 
L 119.789015 268.441667 
z
" style="fill:#d95f02;opacity:0.6;stroke:#000000;stroke-linejoin:miter;stroke-width:0.5;"/>
   </g>
   <g id="patch_52">
    <path clip-path="url(#pbeec865f69)" d="M 125.810417 268.441667 
L 131.831818 268.441667 
L 131.831818 268.441667 
L 125.810417 268.441667 
z
" style="fill:#d95f02;opacity:0.6;stroke:#000000;stroke-linejoin:miter;stroke-width:0.5;"/>
   </g>
   <g id="patch_53">
    <path clip-path="url(#pbeec865f69)" d="M 131.831818 268.441667 
L 137.85322 268.441667 
L 137.85322 268.441667 
L 131.831818 268.441667 
z
" style="fill:#d95f02;opacity:0.6;stroke:#000000;stroke-linejoin:miter;stroke-width:0.5;"/>
   </g>
   <g id="patch_54">
    <path clip-path="url(#pbeec865f69)" d="M 137.85322 268.441667 
L 143.874621 268.441667 
L 143.874621 268.441667 
L 137.85322 268.441667 
z
" style="fill:#d95f02;opacity:0.6;stroke:#000000;stroke-linejoin:miter;stroke-width:0.5;"/>
   </g>
   <g id="patch_55">
    <path clip-path="url(#pbeec865f69)" d="M 143.874621 268.441667 
L 149.896023 268.441667 
L 149.896023 268.441667 
L 143.874621 268.441667 
z
" style="fill:#d95f02;opacity:0.6;stroke:#000000;stroke-linejoin:miter;stroke-width:0.5;"/>
   </g>
   <g id="patch_56">
    <path clip-path="url(#pbeec865f69)" d="M 149.896023 268.441667 
L 155.917424 268.441667 
L 155.917424 268.441667 
L 149.896023 268.441667 
z
" style="fill:#d95f02;opacity:0.6;stroke:#000000;stroke-linejoin:miter;stroke-width:0.5;"/>
   </g>
   <g id="patch_57">
    <path clip-path="url(#pbeec865f69)" d="M 155.917424 268.441667 
L 161.938826 268.441667 
L 161.938826 268.441667 
L 155.917424 268.441667 
z
" style="fill:#d95f02;opacity:0.6;stroke:#000000;stroke-linejoin:miter;stroke-width:0.5;"/>
   </g>
   <g id="patch_58">
    <path clip-path="url(#pbeec865f69)" d="M 161.938826 268.441667 
L 167.960227 268.441667 
L 167.960227 268.441667 
L 161.938826 268.441667 
z
" style="fill:#d95f02;opacity:0.6;stroke:#000000;stroke-linejoin:miter;stroke-width:0.5;"/>
   </g>
   <g id="patch_59">
    <path clip-path="url(#pbeec865f69)" d="M 167.960227 268.441667 
L 173.981629 268.441667 
L 173.981629 268.441667 
L 167.960227 268.441667 
z
" style="fill:#d95f02;opacity:0.6;stroke:#000000;stroke-linejoin:miter;stroke-width:0.5;"/>
   </g>
   <g id="patch_60">
    <path clip-path="url(#pbeec865f69)" d="M 173.981629 268.441667 
L 180.00303 268.441667 
L 180.00303 268.441667 
L 173.981629 268.441667 
z
" style="fill:#d95f02;opacity:0.6;stroke:#000000;stroke-linejoin:miter;stroke-width:0.5;"/>
   </g>
   <g id="patch_61">
    <path clip-path="url(#pbeec865f69)" d="M 180.00303 268.441667 
L 186.024432 268.441667 
L 186.024432 268.441667 
L 180.00303 268.441667 
z
" style="fill:#d95f02;opacity:0.6;stroke:#000000;stroke-linejoin:miter;stroke-width:0.5;"/>
   </g>
   <g id="patch_62">
    <path clip-path="url(#pbeec865f69)" d="M 186.024432 268.441667 
L 192.045833 268.441667 
L 192.045833 268.441667 
L 186.024432 268.441667 
z
" style="fill:#d95f02;opacity:0.6;stroke:#000000;stroke-linejoin:miter;stroke-width:0.5;"/>
   </g>
   <g id="patch_63">
    <path clip-path="url(#pbeec865f69)" d="M 192.045833 268.441667 
L 198.067235 268.441667 
L 198.067235 267.201738 
L 192.045833 267.201738 
z
" style="fill:#d95f02;opacity:0.6;stroke:#000000;stroke-linejoin:miter;stroke-width:0.5;"/>
   </g>
   <g id="patch_64">
    <path clip-path="url(#pbeec865f69)" d="M 198.067235 268.441667 
L 204.088636 268.441667 
L 204.088636 267.201738 
L 198.067235 267.201738 
z
" style="fill:#d95f02;opacity:0.6;stroke:#000000;stroke-linejoin:miter;stroke-width:0.5;"/>
   </g>
   <g id="patch_65">
    <path clip-path="url(#pbeec865f69)" d="M 204.088636 268.441667 
L 210.110038 268.441667 
L 210.110038 267.201738 
L 204.088636 267.201738 
z
" style="fill:#d95f02;opacity:0.6;stroke:#000000;stroke-linejoin:miter;stroke-width:0.5;"/>
   </g>
   <g id="patch_66">
    <path clip-path="url(#pbeec865f69)" d="M 210.110038 268.441667 
L 216.131439 268.441667 
L 216.131439 262.86199 
L 210.110038 262.86199 
z
" style="fill:#d95f02;opacity:0.6;stroke:#000000;stroke-linejoin:miter;stroke-width:0.5;"/>
   </g>
   <g id="patch_67">
    <path clip-path="url(#pbeec865f69)" d="M 216.131439 268.441667 
L 222.152841 268.441667 
L 222.152841 259.142205 
L 216.131439 259.142205 
z
" style="fill:#d95f02;opacity:0.6;stroke:#000000;stroke-linejoin:miter;stroke-width:0.5;"/>
   </g>
   <g id="patch_68">
    <path clip-path="url(#pbeec865f69)" d="M 222.152841 268.441667 
L 228.174242 268.441667 
L 228.174242 254.182492 
L 222.152841 254.182492 
z
" style="fill:#d95f02;opacity:0.6;stroke:#000000;stroke-linejoin:miter;stroke-width:0.5;"/>
   </g>
   <g id="patch_69">
    <path clip-path="url(#pbeec865f69)" d="M 228.174242 268.441667 
L 234.195644 268.441667 
L 234.195644 218.844537 
L 228.174242 218.844537 
z
" style="fill:#d95f02;opacity:0.6;stroke:#000000;stroke-linejoin:miter;stroke-width:0.5;"/>
   </g>
   <g id="patch_70">
    <path clip-path="url(#pbeec865f69)" d="M 234.195644 268.441667 
L 240.217045 268.441667 
L 240.217045 199.625649 
L 234.195644 199.625649 
z
" style="fill:#d95f02;opacity:0.6;stroke:#000000;stroke-linejoin:miter;stroke-width:0.5;"/>
   </g>
   <g id="patch_71">
    <path clip-path="url(#pbeec865f69)" d="M 240.217045 268.441667 
L 246.238447 268.441667 
L 246.238447 164.287695 
L 240.217045 164.287695 
z
" style="fill:#d95f02;opacity:0.6;stroke:#000000;stroke-linejoin:miter;stroke-width:0.5;"/>
   </g>
   <g id="patch_72">
    <path clip-path="url(#pbeec865f69)" d="M 246.238447 268.441667 
L 252.259848 268.441667 
L 252.259848 150.648484 
L 246.238447 150.648484 
z
" style="fill:#d95f02;opacity:0.6;stroke:#000000;stroke-linejoin:miter;stroke-width:0.5;"/>
   </g>
   <g id="patch_73">
    <path clip-path="url(#pbeec865f69)" d="M 252.259848 268.441667 
L 258.28125 268.441667 
L 258.28125 164.907659 
L 252.259848 164.907659 
z
" style="fill:#d95f02;opacity:0.6;stroke:#000000;stroke-linejoin:miter;stroke-width:0.5;"/>
   </g>
   <g id="patch_74">
    <path clip-path="url(#pbeec865f69)" d="M 258.28125 268.441667 
L 264.302652 268.441667 
L 264.302652 190.326188 
L 258.28125 190.326188 
z
" style="fill:#d95f02;opacity:0.6;stroke:#000000;stroke-linejoin:miter;stroke-width:0.5;"/>
   </g>
   <g id="patch_75">
    <path clip-path="url(#pbeec865f69)" d="M 264.302652 268.441667 
L 270.324053 268.441667 
L 270.324053 202.105506 
L 264.302652 202.105506 
z
" style="fill:#d95f02;opacity:0.6;stroke:#000000;stroke-linejoin:miter;stroke-width:0.5;"/>
   </g>
   <g id="patch_76">
    <path clip-path="url(#pbeec865f69)" d="M 270.324053 268.441667 
L 276.345455 268.441667 
L 276.345455 216.364681 
L 270.324053 216.364681 
z
" style="fill:#d95f02;opacity:0.6;stroke:#000000;stroke-linejoin:miter;stroke-width:0.5;"/>
   </g>
   <g id="patch_77">
    <path clip-path="url(#pbeec865f69)" d="M 276.345455 268.441667 
L 282.366856 268.441667 
L 282.366856 231.243819 
L 276.345455 231.243819 
z
" style="fill:#d95f02;opacity:0.6;stroke:#000000;stroke-linejoin:miter;stroke-width:0.5;"/>
   </g>
   <g id="patch_78">
    <path clip-path="url(#pbeec865f69)" d="M 282.366856 268.441667 
L 288.388258 268.441667 
L 288.388258 210.165039 
L 282.366856 210.165039 
z
" style="fill:#d95f02;opacity:0.6;stroke:#000000;stroke-linejoin:miter;stroke-width:0.5;"/>
   </g>
   <g id="patch_79">
    <path clip-path="url(#pbeec865f69)" d="M 288.388258 268.441667 
L 294.409659 268.441667 
L 294.409659 128.329776 
L 288.388258 128.329776 
z
" style="fill:#d95f02;opacity:0.6;stroke:#000000;stroke-linejoin:miter;stroke-width:0.5;"/>
   </g>
   <g id="patch_80">
    <path clip-path="url(#pbeec865f69)" d="M 294.409659 268.441667 
L 300.431061 268.441667 
L 300.431061 16.11627 
L 294.409659 16.11627 
z
" style="fill:#d95f02;opacity:0.6;stroke:#000000;stroke-linejoin:miter;stroke-width:0.5;"/>
   </g>
   <g id="patch_81">
    <path clip-path="url(#pbeec865f69)" d="M 300.431061 268.441667 
L 306.452462 268.441667 
L 306.452462 74.392897 
L 300.431061 74.392897 
z
" style="fill:#d95f02;opacity:0.6;stroke:#000000;stroke-linejoin:miter;stroke-width:0.5;"/>
   </g>
   <g id="patch_82">
    <path clip-path="url(#pbeec865f69)" d="M 306.452462 268.441667 
L 312.473864 268.441667 
L 312.473864 266.581774 
L 306.452462 266.581774 
z
" style="fill:#d95f02;opacity:0.6;stroke:#000000;stroke-linejoin:miter;stroke-width:0.5;"/>
   </g>
   <g id="matplotlib.axis_1">
    <g id="xtick_1">
     <g id="line2d_1">
      <defs>
       <path d="M 0 0 
L 0 3.5 
" id="m6b34fd3706" style="stroke:#000000;stroke-width:1.6;"/>
      </defs>
      <g>
       <use style="stroke:#000000;stroke-width:1.6;" x="71.617803" xlink:href="#m6b34fd3706" y="268.441667"/>
      </g>
     </g>
     <g id="text_1">
      <!-- 0.0 -->
      <defs>
       <path d="M 31.78125 66.40625 
Q 24.171875 66.40625 20.328125 58.90625 
Q 16.5 51.421875 16.5 36.375 
Q 16.5 21.390625 20.328125 13.890625 
Q 24.171875 6.390625 31.78125 6.390625 
Q 39.453125 6.390625 43.28125 13.890625 
Q 47.125 21.390625 47.125 36.375 
Q 47.125 51.421875 43.28125 58.90625 
Q 39.453125 66.40625 31.78125 66.40625 
z
M 31.78125 74.21875 
Q 44.046875 74.21875 50.515625 64.515625 
Q 56.984375 54.828125 56.984375 36.375 
Q 56.984375 17.96875 50.515625 8.265625 
Q 44.046875 -1.421875 31.78125 -1.421875 
Q 19.53125 -1.421875 13.0625 8.265625 
Q 6.59375 17.96875 6.59375 36.375 
Q 6.59375 54.828125 13.0625 64.515625 
Q 19.53125 74.21875 31.78125 74.21875 
z
" id="DejaVuSans-48"/>
       <path d="M 10.6875 12.40625 
L 21 12.40625 
L 21 0 
L 10.6875 0 
z
" id="DejaVuSans-46"/>
      </defs>
      <g transform="translate(55.714678 298.338542)scale(0.2 -0.2)">
       <use xlink:href="#DejaVuSans-48"/>
       <use x="63.623047" xlink:href="#DejaVuSans-46"/>
       <use x="95.410156" xlink:href="#DejaVuSans-48"/>
      </g>
     </g>
    </g>
    <g id="xtick_2">
     <g id="line2d_2">
      <g>
       <use style="stroke:#000000;stroke-width:1.6;" x="140.43382" xlink:href="#m6b34fd3706" y="268.441667"/>
      </g>
     </g>
     <g id="text_2">
      <!-- 0.2 -->
      <defs>
       <path d="M 19.1875 8.296875 
L 53.609375 8.296875 
L 53.609375 0 
L 7.328125 0 
L 7.328125 8.296875 
Q 12.9375 14.109375 22.625 23.890625 
Q 32.328125 33.6875 34.8125 36.53125 
Q 39.546875 41.84375 41.421875 45.53125 
Q 43.3125 49.21875 43.3125 52.78125 
Q 43.3125 58.59375 39.234375 62.25 
Q 35.15625 65.921875 28.609375 65.921875 
Q 23.96875 65.921875 18.8125 64.3125 
Q 13.671875 62.703125 7.8125 59.421875 
L 7.8125 69.390625 
Q 13.765625 71.78125 18.9375 73 
Q 24.125 74.21875 28.421875 74.21875 
Q 39.75 74.21875 46.484375 68.546875 
Q 53.21875 62.890625 53.21875 53.421875 
Q 53.21875 48.921875 51.53125 44.890625 
Q 49.859375 40.875 45.40625 35.40625 
Q 44.1875 33.984375 37.640625 27.21875 
Q 31.109375 20.453125 19.1875 8.296875 
z
" id="DejaVuSans-50"/>
      </defs>
      <g transform="translate(124.530695 298.338542)scale(0.2 -0.2)">
       <use xlink:href="#DejaVuSans-48"/>
       <use x="63.623047" xlink:href="#DejaVuSans-46"/>
       <use x="95.410156" xlink:href="#DejaVuSans-50"/>
      </g>
     </g>
    </g>
    <g id="xtick_3">
     <g id="line2d_3">
      <g>
       <use style="stroke:#000000;stroke-width:1.6;" x="209.249838" xlink:href="#m6b34fd3706" y="268.441667"/>
      </g>
     </g>
     <g id="text_3">
      <!-- 0.4 -->
      <defs>
       <path d="M 37.796875 64.3125 
L 12.890625 25.390625 
L 37.796875 25.390625 
z
M 35.203125 72.90625 
L 47.609375 72.90625 
L 47.609375 25.390625 
L 58.015625 25.390625 
L 58.015625 17.1875 
L 47.609375 17.1875 
L 47.609375 0 
L 37.796875 0 
L 37.796875 17.1875 
L 4.890625 17.1875 
L 4.890625 26.703125 
z
" id="DejaVuSans-52"/>
      </defs>
      <g transform="translate(193.346713 298.338542)scale(0.2 -0.2)">
       <use xlink:href="#DejaVuSans-48"/>
       <use x="63.623047" xlink:href="#DejaVuSans-46"/>
       <use x="95.410156" xlink:href="#DejaVuSans-52"/>
      </g>
     </g>
    </g>
    <g id="xtick_4">
     <g id="line2d_4">
      <g>
       <use style="stroke:#000000;stroke-width:1.6;" x="278.065855" xlink:href="#m6b34fd3706" y="268.441667"/>
      </g>
     </g>
     <g id="text_4">
      <!-- 0.6 -->
      <defs>
       <path d="M 33.015625 40.375 
Q 26.375 40.375 22.484375 35.828125 
Q 18.609375 31.296875 18.609375 23.390625 
Q 18.609375 15.53125 22.484375 10.953125 
Q 26.375 6.390625 33.015625 6.390625 
Q 39.65625 6.390625 43.53125 10.953125 
Q 47.40625 15.53125 47.40625 23.390625 
Q 47.40625 31.296875 43.53125 35.828125 
Q 39.65625 40.375 33.015625 40.375 
z
M 52.59375 71.296875 
L 52.59375 62.3125 
Q 48.875 64.0625 45.09375 64.984375 
Q 41.3125 65.921875 37.59375 65.921875 
Q 27.828125 65.921875 22.671875 59.328125 
Q 17.53125 52.734375 16.796875 39.40625 
Q 19.671875 43.65625 24.015625 45.921875 
Q 28.375 48.1875 33.59375 48.1875 
Q 44.578125 48.1875 50.953125 41.515625 
Q 57.328125 34.859375 57.328125 23.390625 
Q 57.328125 12.15625 50.6875 5.359375 
Q 44.046875 -1.421875 33.015625 -1.421875 
Q 20.359375 -1.421875 13.671875 8.265625 
Q 6.984375 17.96875 6.984375 36.375 
Q 6.984375 53.65625 15.1875 63.9375 
Q 23.390625 74.21875 37.203125 74.21875 
Q 40.921875 74.21875 44.703125 73.484375 
Q 48.484375 72.75 52.59375 71.296875 
z
" id="DejaVuSans-54"/>
      </defs>
      <g transform="translate(262.16273 298.338542)scale(0.2 -0.2)">
       <use xlink:href="#DejaVuSans-48"/>
       <use x="63.623047" xlink:href="#DejaVuSans-46"/>
       <use x="95.410156" xlink:href="#DejaVuSans-54"/>
      </g>
     </g>
    </g>
    <g id="text_5">
     <!-- Max JS Divergence within $\epsilon$ -->
     <defs>
      <path d="M 9.8125 72.90625 
L 24.515625 72.90625 
L 43.109375 23.296875 
L 61.8125 72.90625 
L 76.515625 72.90625 
L 76.515625 0 
L 66.890625 0 
L 66.890625 64.015625 
L 48.09375 14.015625 
L 38.1875 14.015625 
L 19.390625 64.015625 
L 19.390625 0 
L 9.8125 0 
z
" id="DejaVuSans-77"/>
      <path d="M 34.28125 27.484375 
Q 23.390625 27.484375 19.1875 25 
Q 14.984375 22.515625 14.984375 16.5 
Q 14.984375 11.71875 18.140625 8.90625 
Q 21.296875 6.109375 26.703125 6.109375 
Q 34.1875 6.109375 38.703125 11.40625 
Q 43.21875 16.703125 43.21875 25.484375 
L 43.21875 27.484375 
z
M 52.203125 31.203125 
L 52.203125 0 
L 43.21875 0 
L 43.21875 8.296875 
Q 40.140625 3.328125 35.546875 0.953125 
Q 30.953125 -1.421875 24.3125 -1.421875 
Q 15.921875 -1.421875 10.953125 3.296875 
Q 6 8.015625 6 15.921875 
Q 6 25.140625 12.171875 29.828125 
Q 18.359375 34.515625 30.609375 34.515625 
L 43.21875 34.515625 
L 43.21875 35.40625 
Q 43.21875 41.609375 39.140625 45 
Q 35.0625 48.390625 27.6875 48.390625 
Q 23 48.390625 18.546875 47.265625 
Q 14.109375 46.140625 10.015625 43.890625 
L 10.015625 52.203125 
Q 14.9375 54.109375 19.578125 55.046875 
Q 24.21875 56 28.609375 56 
Q 40.484375 56 46.34375 49.84375 
Q 52.203125 43.703125 52.203125 31.203125 
z
" id="DejaVuSans-97"/>
      <path d="M 54.890625 54.6875 
L 35.109375 28.078125 
L 55.90625 0 
L 45.3125 0 
L 29.390625 21.484375 
L 13.484375 0 
L 2.875 0 
L 24.125 28.609375 
L 4.6875 54.6875 
L 15.28125 54.6875 
L 29.78125 35.203125 
L 44.28125 54.6875 
z
" id="DejaVuSans-120"/>
      <path id="DejaVuSans-32"/>
      <path d="M 9.8125 72.90625 
L 19.671875 72.90625 
L 19.671875 5.078125 
Q 19.671875 -8.109375 14.671875 -14.0625 
Q 9.671875 -20.015625 -1.421875 -20.015625 
L -5.171875 -20.015625 
L -5.171875 -11.71875 
L -2.09375 -11.71875 
Q 4.4375 -11.71875 7.125 -8.046875 
Q 9.8125 -4.390625 9.8125 5.078125 
z
" id="DejaVuSans-74"/>
      <path d="M 53.515625 70.515625 
L 53.515625 60.890625 
Q 47.90625 63.578125 42.921875 64.890625 
Q 37.9375 66.21875 33.296875 66.21875 
Q 25.25 66.21875 20.875 63.09375 
Q 16.5 59.96875 16.5 54.203125 
Q 16.5 49.359375 19.40625 46.890625 
Q 22.3125 44.4375 30.421875 42.921875 
L 36.375 41.703125 
Q 47.40625 39.59375 52.65625 34.296875 
Q 57.90625 29 57.90625 20.125 
Q 57.90625 9.515625 50.796875 4.046875 
Q 43.703125 -1.421875 29.984375 -1.421875 
Q 24.8125 -1.421875 18.96875 -0.25 
Q 13.140625 0.921875 6.890625 3.21875 
L 6.890625 13.375 
Q 12.890625 10.015625 18.65625 8.296875 
Q 24.421875 6.59375 29.984375 6.59375 
Q 38.421875 6.59375 43.015625 9.90625 
Q 47.609375 13.234375 47.609375 19.390625 
Q 47.609375 24.75 44.3125 27.78125 
Q 41.015625 30.8125 33.5 32.328125 
L 27.484375 33.5 
Q 16.453125 35.6875 11.515625 40.375 
Q 6.59375 45.0625 6.59375 53.421875 
Q 6.59375 63.09375 13.40625 68.65625 
Q 20.21875 74.21875 32.171875 74.21875 
Q 37.3125 74.21875 42.625 73.28125 
Q 47.953125 72.359375 53.515625 70.515625 
z
" id="DejaVuSans-83"/>
      <path d="M 19.671875 64.796875 
L 19.671875 8.109375 
L 31.59375 8.109375 
Q 46.6875 8.109375 53.6875 14.9375 
Q 60.6875 21.78125 60.6875 36.53125 
Q 60.6875 51.171875 53.6875 57.984375 
Q 46.6875 64.796875 31.59375 64.796875 
z
M 9.8125 72.90625 
L 30.078125 72.90625 
Q 51.265625 72.90625 61.171875 64.09375 
Q 71.09375 55.28125 71.09375 36.53125 
Q 71.09375 17.671875 61.125 8.828125 
Q 51.171875 0 30.078125 0 
L 9.8125 0 
z
" id="DejaVuSans-68"/>
      <path d="M 9.421875 54.6875 
L 18.40625 54.6875 
L 18.40625 0 
L 9.421875 0 
z
M 9.421875 75.984375 
L 18.40625 75.984375 
L 18.40625 64.59375 
L 9.421875 64.59375 
z
" id="DejaVuSans-105"/>
      <path d="M 2.984375 54.6875 
L 12.5 54.6875 
L 29.59375 8.796875 
L 46.6875 54.6875 
L 56.203125 54.6875 
L 35.6875 0 
L 23.484375 0 
z
" id="DejaVuSans-118"/>
      <path d="M 56.203125 29.59375 
L 56.203125 25.203125 
L 14.890625 25.203125 
Q 15.484375 15.921875 20.484375 11.0625 
Q 25.484375 6.203125 34.421875 6.203125 
Q 39.59375 6.203125 44.453125 7.46875 
Q 49.3125 8.734375 54.109375 11.28125 
L 54.109375 2.78125 
Q 49.265625 0.734375 44.1875 -0.34375 
Q 39.109375 -1.421875 33.890625 -1.421875 
Q 20.796875 -1.421875 13.15625 6.1875 
Q 5.515625 13.8125 5.515625 26.8125 
Q 5.515625 40.234375 12.765625 48.109375 
Q 20.015625 56 32.328125 56 
Q 43.359375 56 49.78125 48.890625 
Q 56.203125 41.796875 56.203125 29.59375 
z
M 47.21875 32.234375 
Q 47.125 39.59375 43.09375 43.984375 
Q 39.0625 48.390625 32.421875 48.390625 
Q 24.90625 48.390625 20.390625 44.140625 
Q 15.875 39.890625 15.1875 32.171875 
z
" id="DejaVuSans-101"/>
      <path d="M 41.109375 46.296875 
Q 39.59375 47.171875 37.8125 47.578125 
Q 36.03125 48 33.890625 48 
Q 26.265625 48 22.1875 43.046875 
Q 18.109375 38.09375 18.109375 28.8125 
L 18.109375 0 
L 9.078125 0 
L 9.078125 54.6875 
L 18.109375 54.6875 
L 18.109375 46.1875 
Q 20.953125 51.171875 25.484375 53.578125 
Q 30.03125 56 36.53125 56 
Q 37.453125 56 38.578125 55.875 
Q 39.703125 55.765625 41.0625 55.515625 
z
" id="DejaVuSans-114"/>
      <path d="M 45.40625 27.984375 
Q 45.40625 37.75 41.375 43.109375 
Q 37.359375 48.484375 30.078125 48.484375 
Q 22.859375 48.484375 18.828125 43.109375 
Q 14.796875 37.75 14.796875 27.984375 
Q 14.796875 18.265625 18.828125 12.890625 
Q 22.859375 7.515625 30.078125 7.515625 
Q 37.359375 7.515625 41.375 12.890625 
Q 45.40625 18.265625 45.40625 27.984375 
z
M 54.390625 6.78125 
Q 54.390625 -7.171875 48.1875 -13.984375 
Q 42 -20.796875 29.203125 -20.796875 
Q 24.46875 -20.796875 20.265625 -20.09375 
Q 16.0625 -19.390625 12.109375 -17.921875 
L 12.109375 -9.1875 
Q 16.0625 -11.328125 19.921875 -12.34375 
Q 23.78125 -13.375 27.78125 -13.375 
Q 36.625 -13.375 41.015625 -8.765625 
Q 45.40625 -4.15625 45.40625 5.171875 
L 45.40625 9.625 
Q 42.625 4.78125 38.28125 2.390625 
Q 33.9375 0 27.875 0 
Q 17.828125 0 11.671875 7.65625 
Q 5.515625 15.328125 5.515625 27.984375 
Q 5.515625 40.671875 11.671875 48.328125 
Q 17.828125 56 27.875 56 
Q 33.9375 56 38.28125 53.609375 
Q 42.625 51.21875 45.40625 46.390625 
L 45.40625 54.6875 
L 54.390625 54.6875 
z
" id="DejaVuSans-103"/>
      <path d="M 54.890625 33.015625 
L 54.890625 0 
L 45.90625 0 
L 45.90625 32.71875 
Q 45.90625 40.484375 42.875 44.328125 
Q 39.84375 48.1875 33.796875 48.1875 
Q 26.515625 48.1875 22.3125 43.546875 
Q 18.109375 38.921875 18.109375 30.90625 
L 18.109375 0 
L 9.078125 0 
L 9.078125 54.6875 
L 18.109375 54.6875 
L 18.109375 46.1875 
Q 21.34375 51.125 25.703125 53.5625 
Q 30.078125 56 35.796875 56 
Q 45.21875 56 50.046875 50.171875 
Q 54.890625 44.34375 54.890625 33.015625 
z
" id="DejaVuSans-110"/>
      <path d="M 48.78125 52.59375 
L 48.78125 44.1875 
Q 44.96875 46.296875 41.140625 47.34375 
Q 37.3125 48.390625 33.40625 48.390625 
Q 24.65625 48.390625 19.8125 42.84375 
Q 14.984375 37.3125 14.984375 27.296875 
Q 14.984375 17.28125 19.8125 11.734375 
Q 24.65625 6.203125 33.40625 6.203125 
Q 37.3125 6.203125 41.140625 7.25 
Q 44.96875 8.296875 48.78125 10.40625 
L 48.78125 2.09375 
Q 45.015625 0.34375 40.984375 -0.53125 
Q 36.96875 -1.421875 32.421875 -1.421875 
Q 20.0625 -1.421875 12.78125 6.34375 
Q 5.515625 14.109375 5.515625 27.296875 
Q 5.515625 40.671875 12.859375 48.328125 
Q 20.21875 56 33.015625 56 
Q 37.15625 56 41.109375 55.140625 
Q 45.0625 54.296875 48.78125 52.59375 
z
" id="DejaVuSans-99"/>
      <path d="M 4.203125 54.6875 
L 13.1875 54.6875 
L 24.421875 12.015625 
L 35.59375 54.6875 
L 46.1875 54.6875 
L 57.421875 12.015625 
L 68.609375 54.6875 
L 77.59375 54.6875 
L 63.28125 0 
L 52.6875 0 
L 40.921875 44.828125 
L 29.109375 0 
L 18.5 0 
z
" id="DejaVuSans-119"/>
      <path d="M 18.3125 70.21875 
L 18.3125 54.6875 
L 36.8125 54.6875 
L 36.8125 47.703125 
L 18.3125 47.703125 
L 18.3125 18.015625 
Q 18.3125 11.328125 20.140625 9.421875 
Q 21.96875 7.515625 27.59375 7.515625 
L 36.8125 7.515625 
L 36.8125 0 
L 27.59375 0 
Q 17.1875 0 13.234375 3.875 
Q 9.28125 7.765625 9.28125 18.015625 
L 9.28125 47.703125 
L 2.6875 47.703125 
L 2.6875 54.6875 
L 9.28125 54.6875 
L 9.28125 70.21875 
z
" id="DejaVuSans-116"/>
      <path d="M 54.890625 33.015625 
L 54.890625 0 
L 45.90625 0 
L 45.90625 32.71875 
Q 45.90625 40.484375 42.875 44.328125 
Q 39.84375 48.1875 33.796875 48.1875 
Q 26.515625 48.1875 22.3125 43.546875 
Q 18.109375 38.921875 18.109375 30.90625 
L 18.109375 0 
L 9.078125 0 
L 9.078125 75.984375 
L 18.109375 75.984375 
L 18.109375 46.1875 
Q 21.34375 51.125 25.703125 53.5625 
Q 30.078125 56 35.796875 56 
Q 45.21875 56 50.046875 50.171875 
Q 54.890625 44.34375 54.890625 33.015625 
z
" id="DejaVuSans-104"/>
      <path d="M 19.734375 29.5 
Q 14.453125 30.671875 12.15625 33.84375 
Q 10.453125 36.078125 10.453125 39.109375 
Q 10.453125 47.40625 18.359375 52.25 
Q 24.609375 56.0625 34.1875 56.0625 
Q 37.890625 56.0625 41.9375 55.46875 
Q 46 54.890625 50.53125 53.71875 
L 48.96875 45.5625 
Q 44.484375 46.96875 40.71875 47.609375 
Q 36.859375 48.25 33.40625 48.25 
Q 27.59375 48.25 23.78125 46 
Q 19.1875 43.3125 19.1875 39.40625 
Q 19.1875 36.8125 21.578125 35.015625 
Q 24.421875 32.859375 30.078125 32.859375 
L 37.640625 32.859375 
L 36.234375 25.4375 
L 29 25.4375 
Q 22.265625 25.4375 18.3125 22.953125 
Q 12.9375 19.578125 12.9375 14.3125 
Q 12.9375 10.984375 15.828125 8.796875 
Q 19.4375 6.0625 26.8125 6.0625 
Q 31.34375 6.0625 35.6875 6.9375 
Q 40.046875 7.859375 43.84375 9.671875 
L 42.1875 1.3125 
Q 37.546875 -0.046875 33.296875 -0.734375 
Q 29.046875 -1.421875 25.140625 -1.421875 
Q 13.53125 -1.421875 8.0625 3.03125 
Q 3.90625 6.453125 3.90625 12.203125 
Q 3.90625 19.96875 9.375 24.75 
Q 13.421875 28.328125 19.734375 29.5 
z
" id="DejaVuSans-Oblique-949"/>
     </defs>
     <g transform="translate(56.445833 321.697917)scale(0.2 -0.2)">
      <use transform="translate(0 0.015625)" xlink:href="#DejaVuSans-77"/>
      <use transform="translate(86.279297 0.015625)" xlink:href="#DejaVuSans-97"/>
      <use transform="translate(147.558594 0.015625)" xlink:href="#DejaVuSans-120"/>
      <use transform="translate(206.738281 0.015625)" xlink:href="#DejaVuSans-32"/>
      <use transform="translate(238.525391 0.015625)" xlink:href="#DejaVuSans-74"/>
      <use transform="translate(268.017578 0.015625)" xlink:href="#DejaVuSans-83"/>
      <use transform="translate(331.494141 0.015625)" xlink:href="#DejaVuSans-32"/>
      <use transform="translate(363.28125 0.015625)" xlink:href="#DejaVuSans-68"/>
      <use transform="translate(440.283203 0.015625)" xlink:href="#DejaVuSans-105"/>
      <use transform="translate(468.066406 0.015625)" xlink:href="#DejaVuSans-118"/>
      <use transform="translate(527.246094 0.015625)" xlink:href="#DejaVuSans-101"/>
      <use transform="translate(588.769531 0.015625)" xlink:href="#DejaVuSans-114"/>
      <use transform="translate(629.882812 0.015625)" xlink:href="#DejaVuSans-103"/>
      <use transform="translate(693.359375 0.015625)" xlink:href="#DejaVuSans-101"/>
      <use transform="translate(754.882812 0.015625)" xlink:href="#DejaVuSans-110"/>
      <use transform="translate(818.261719 0.015625)" xlink:href="#DejaVuSans-99"/>
      <use transform="translate(873.242188 0.015625)" xlink:href="#DejaVuSans-101"/>
      <use transform="translate(934.765625 0.015625)" xlink:href="#DejaVuSans-32"/>
      <use transform="translate(966.552734 0.015625)" xlink:href="#DejaVuSans-119"/>
      <use transform="translate(1048.339844 0.015625)" xlink:href="#DejaVuSans-105"/>
      <use transform="translate(1076.123047 0.015625)" xlink:href="#DejaVuSans-116"/>
      <use transform="translate(1115.332031 0.015625)" xlink:href="#DejaVuSans-104"/>
      <use transform="translate(1178.710938 0.015625)" xlink:href="#DejaVuSans-105"/>
      <use transform="translate(1206.494141 0.015625)" xlink:href="#DejaVuSans-110"/>
      <use transform="translate(1269.873047 0.015625)" xlink:href="#DejaVuSans-32"/>
      <use transform="translate(1301.660156 0.015625)" xlink:href="#DejaVuSans-Oblique-949"/>
     </g>
    </g>
   </g>
   <g id="matplotlib.axis_2">
    <g id="ytick_1">
     <g id="line2d_5">
      <defs>
       <path d="M 0 0 
L -3.5 0 
" id="m3bf22285a9" style="stroke:#000000;stroke-width:1.6;"/>
      </defs>
      <g>
       <use style="stroke:#000000;stroke-width:1.6;" x="59.575" xlink:href="#m3bf22285a9" y="268.441667"/>
      </g>
     </g>
     <g id="text_6">
      <!-- 0.00 -->
      <g transform="translate(0.34375 276.040104)scale(0.2 -0.2)">
       <use xlink:href="#DejaVuSans-48"/>
       <use x="63.623047" xlink:href="#DejaVuSans-46"/>
       <use x="95.410156" xlink:href="#DejaVuSans-48"/>
       <use x="159.033203" xlink:href="#DejaVuSans-48"/>
      </g>
     </g>
    </g>
    <g id="ytick_2">
     <g id="line2d_6">
      <g>
       <use style="stroke:#000000;stroke-width:1.6;" x="59.575" xlink:href="#m3bf22285a9" y="200.586594"/>
      </g>
     </g>
     <g id="text_7">
      <!-- 0.05 -->
      <defs>
       <path d="M 10.796875 72.90625 
L 49.515625 72.90625 
L 49.515625 64.59375 
L 19.828125 64.59375 
L 19.828125 46.734375 
Q 21.96875 47.46875 24.109375 47.828125 
Q 26.265625 48.1875 28.421875 48.1875 
Q 40.625 48.1875 47.75 41.5 
Q 54.890625 34.8125 54.890625 23.390625 
Q 54.890625 11.625 47.5625 5.09375 
Q 40.234375 -1.421875 26.90625 -1.421875 
Q 22.3125 -1.421875 17.546875 -0.640625 
Q 12.796875 0.140625 7.71875 1.703125 
L 7.71875 11.625 
Q 12.109375 9.234375 16.796875 8.0625 
Q 21.484375 6.890625 26.703125 6.890625 
Q 35.15625 6.890625 40.078125 11.328125 
Q 45.015625 15.765625 45.015625 23.390625 
Q 45.015625 31 40.078125 35.4375 
Q 35.15625 39.890625 26.703125 39.890625 
Q 22.75 39.890625 18.8125 39.015625 
Q 14.890625 38.140625 10.796875 36.28125 
z
" id="DejaVuSans-53"/>
      </defs>
      <g transform="translate(0.34375 208.185031)scale(0.2 -0.2)">
       <use xlink:href="#DejaVuSans-48"/>
       <use x="63.623047" xlink:href="#DejaVuSans-46"/>
       <use x="95.410156" xlink:href="#DejaVuSans-48"/>
       <use x="159.033203" xlink:href="#DejaVuSans-53"/>
      </g>
     </g>
    </g>
    <g id="ytick_3">
     <g id="line2d_7">
      <g>
       <use style="stroke:#000000;stroke-width:1.6;" x="59.575" xlink:href="#m3bf22285a9" y="132.731521"/>
      </g>
     </g>
     <g id="text_8">
      <!-- 0.10 -->
      <defs>
       <path d="M 12.40625 8.296875 
L 28.515625 8.296875 
L 28.515625 63.921875 
L 10.984375 60.40625 
L 10.984375 69.390625 
L 28.421875 72.90625 
L 38.28125 72.90625 
L 38.28125 8.296875 
L 54.390625 8.296875 
L 54.390625 0 
L 12.40625 0 
z
" id="DejaVuSans-49"/>
      </defs>
      <g transform="translate(0.34375 140.329958)scale(0.2 -0.2)">
       <use xlink:href="#DejaVuSans-48"/>
       <use x="63.623047" xlink:href="#DejaVuSans-46"/>
       <use x="95.410156" xlink:href="#DejaVuSans-49"/>
       <use x="159.033203" xlink:href="#DejaVuSans-48"/>
      </g>
     </g>
    </g>
    <g id="ytick_4">
     <g id="line2d_8">
      <g>
       <use style="stroke:#000000;stroke-width:1.6;" x="59.575" xlink:href="#m3bf22285a9" y="64.876448"/>
      </g>
     </g>
     <g id="text_9">
      <!-- 0.15 -->
      <g transform="translate(0.34375 72.474885)scale(0.2 -0.2)">
       <use xlink:href="#DejaVuSans-48"/>
       <use x="63.623047" xlink:href="#DejaVuSans-46"/>
       <use x="95.410156" xlink:href="#DejaVuSans-49"/>
       <use x="159.033203" xlink:href="#DejaVuSans-53"/>
      </g>
     </g>
    </g>
   </g>
   <g id="patch_83">
    <path d="M 59.575 268.441667 
L 59.575 3.5 
" style="fill:none;stroke:#000000;stroke-linecap:square;stroke-linejoin:miter;stroke-width:0.8;"/>
   </g>
   <g id="patch_84">
    <path d="M 59.575 268.441667 
L 324.516667 268.441667 
" style="fill:none;stroke:#000000;stroke-linecap:square;stroke-linejoin:miter;stroke-width:0.8;"/>
   </g>
  </g>
  <g id="axes_2">
   <g id="patch_85">
    <path d="M 428.316667 268.441667 
L 693.258333 268.441667 
L 693.258333 3.5 
L 428.316667 3.5 
z
" style="fill:#ffffff;"/>
   </g>
   <g id="PolyCollection_1">
    <defs>
     <path d="M 577.14808 -305.733101 
L 577.14808 -305.808982 
L 578.25756 -305.814162 
L 579.367039 -305.819787 
L 580.476519 -305.826393 
L 581.585999 -305.834758 
L 582.695479 -305.845868 
L 583.804959 -305.860862 
L 584.914438 -305.880964 
L 586.023918 -305.907412 
L 587.133398 -305.941392 
L 588.242878 -305.983976 
L 589.352358 -306.036068 
L 590.461837 -306.098349 
L 591.571317 -306.17125 
L 592.680797 -306.254965 
L 593.790277 -306.349518 
L 594.899757 -306.454908 
L 596.009236 -306.571287 
L 597.118716 -306.699148 
L 598.228196 -306.839442 
L 599.337676 -306.993584 
L 600.447156 -307.163307 
L 601.556636 -307.350401 
L 602.666115 -307.556378 
L 603.775595 -307.78217 
L 604.885075 -308.02792 
L 605.994555 -308.29293 
L 607.104035 -308.575753 
L 608.213514 -308.87438 
L 609.322994 -309.186449 
L 610.432474 -309.509419 
L 611.541954 -309.840663 
L 612.651434 -310.177525 
L 613.760913 -310.517367 
L 614.870393 -310.857672 
L 615.979873 -311.196177 
L 617.089353 -311.530983 
L 618.198833 -311.860551 
L 619.308313 -312.183488 
L 620.417792 -312.498161 
L 621.527272 -312.802234 
L 622.636752 -313.092332 
L 623.746232 -313.364007 
L 624.855712 -313.612075 
L 625.965191 -313.831227 
L 627.074671 -314.016714 
L 628.184151 -314.164825 
L 629.293631 -314.273013 
L 630.403111 -314.339653 
L 631.51259 -314.363599 
L 632.62207 -314.343828 
L 633.73155 -314.279362 
L 634.84103 -314.1696 
L 635.95051 -314.01495 
L 637.059989 -313.817535 
L 638.169469 -313.581702 
L 639.278949 -313.314112 
L 640.388429 -313.023322 
L 641.497909 -312.718954 
L 642.607389 -312.410626 
L 643.716868 -312.106916 
L 644.826348 -311.814568 
L 645.935828 -311.538079 
L 647.045308 -311.279723 
L 648.154788 -311.039949 
L 649.264267 -310.818051 
L 650.373747 -310.612985 
L 651.483227 -310.424177 
L 652.592707 -310.252235 
L 653.702187 -310.099457 
L 654.811666 -309.970075 
L 655.921146 -309.870217 
L 657.030626 -309.807582 
L 658.140106 -309.790858 
L 659.249586 -309.828928 
L 660.359065 -309.929928 
L 661.468545 -310.100207 
L 662.578025 -310.343302 
L 663.687505 -310.659018 
L 664.796985 -311.042774 
L 665.906465 -311.485343 
L 667.015944 -311.973088 
L 668.125424 -312.48869 
L 669.234904 -313.012231 
L 670.344384 -313.522376 
L 671.453864 -313.997376 
L 672.563343 -314.415663 
L 673.672823 -314.756039 
L 674.782303 -314.997677 
L 675.891783 -315.120378 
L 677.001263 -315.105527 
L 678.110742 -314.938018 
L 679.220222 -314.609005 
L 680.329702 -314.118926 
L 681.439182 -313.479889 
L 682.548662 -312.716526 
L 683.658141 -311.864691 
L 684.767621 -310.967964 
L 685.877101 -310.072556 
L 686.986581 -309.22167 
L 686.986581 -302.320414 
L 686.986581 -302.320414 
L 685.877101 -301.469527 
L 684.767621 -300.574119 
L 683.658141 -299.677392 
L 682.548662 -298.825557 
L 681.439182 -298.062195 
L 680.329702 -297.423158 
L 679.220222 -296.933078 
L 678.110742 -296.604066 
L 677.001263 -296.436556 
L 675.891783 -296.421705 
L 674.782303 -296.544406 
L 673.672823 -296.786044 
L 672.563343 -297.12642 
L 671.453864 -297.544708 
L 670.344384 -298.019707 
L 669.234904 -298.529852 
L 668.125424 -299.053393 
L 667.015944 -299.568995 
L 665.906465 -300.056741 
L 664.796985 -300.499309 
L 663.687505 -300.883066 
L 662.578025 -301.198782 
L 661.468545 -301.441876 
L 660.359065 -301.612155 
L 659.249586 -301.713155 
L 658.140106 -301.751225 
L 657.030626 -301.734501 
L 655.921146 -301.671866 
L 654.811666 -301.572008 
L 653.702187 -301.442626 
L 652.592707 -301.289848 
L 651.483227 -301.117907 
L 650.373747 -300.929098 
L 649.264267 -300.724032 
L 648.154788 -300.502135 
L 647.045308 -300.26236 
L 645.935828 -300.004004 
L 644.826348 -299.727515 
L 643.716868 -299.435167 
L 642.607389 -299.131458 
L 641.497909 -298.823129 
L 640.388429 -298.518761 
L 639.278949 -298.227971 
L 638.169469 -297.960381 
L 637.059989 -297.724549 
L 635.95051 -297.527133 
L 634.84103 -297.372483 
L 633.73155 -297.262721 
L 632.62207 -297.198255 
L 631.51259 -297.178484 
L 630.403111 -297.202431 
L 629.293631 -297.26907 
L 628.184151 -297.377259 
L 627.074671 -297.52537 
L 625.965191 -297.710856 
L 624.855712 -297.930009 
L 623.746232 -298.178076 
L 622.636752 -298.449752 
L 621.527272 -298.73985 
L 620.417792 -299.043922 
L 619.308313 -299.358596 
L 618.198833 -299.681533 
L 617.089353 -300.0111 
L 615.979873 -300.345907 
L 614.870393 -300.684411 
L 613.760913 -301.024716 
L 612.651434 -301.364559 
L 611.541954 -301.70142 
L 610.432474 -302.032665 
L 609.322994 -302.355634 
L 608.213514 -302.667704 
L 607.104035 -302.96633 
L 605.994555 -303.249153 
L 604.885075 -303.514164 
L 603.775595 -303.759914 
L 602.666115 -303.985705 
L 601.556636 -304.191683 
L 600.447156 -304.378776 
L 599.337676 -304.548499 
L 598.228196 -304.702641 
L 597.118716 -304.842935 
L 596.009236 -304.970796 
L 594.899757 -305.087175 
L 593.790277 -305.192565 
L 592.680797 -305.287119 
L 591.571317 -305.370833 
L 590.461837 -305.443734 
L 589.352358 -305.506015 
L 588.242878 -305.558107 
L 587.133398 -305.600692 
L 586.023918 -305.634671 
L 584.914438 -305.661119 
L 583.804959 -305.681221 
L 582.695479 -305.696216 
L 581.585999 -305.707326 
L 580.476519 -305.715691 
L 579.367039 -305.722297 
L 578.25756 -305.727921 
L 577.14808 -305.733101 
z
" id="m2d4789efcc" style="stroke:#424242;"/>
    </defs>
    <g clip-path="url(#pd7ea4202bf)">
     <use style="fill:#7c78ab;stroke:#424242;" x="0" xlink:href="#m2d4789efcc" y="329.141667"/>
    </g>
   </g>
   <g id="PolyCollection_2">
    <defs>
     <path d="M 572.84837 -279.220318 
L 572.84837 -279.333432 
L 574.007372 -279.339501 
L 575.166373 -279.345327 
L 576.325374 -279.351259 
L 577.484376 -279.357833 
L 578.643377 -279.36573 
L 579.802378 -279.375695 
L 580.96138 -279.388455 
L 582.120381 -279.404624 
L 583.279383 -279.424628 
L 584.438384 -279.448643 
L 585.597385 -279.476566 
L 586.756387 -279.508025 
L 587.915388 -279.542434 
L 589.074389 -279.5791 
L 590.233391 -279.617396 
L 591.392392 -279.656999 
L 592.551393 -279.698174 
L 593.710395 -279.742085 
L 594.869396 -279.791041 
L 596.028397 -279.848621 
L 597.187399 -279.919574 
L 598.3464 -280.009445 
L 599.505401 -280.123944 
L 600.664403 -280.268125 
L 601.823404 -280.445532 
L 602.982405 -280.657492 
L 604.141407 -280.902715 
L 605.300408 -281.177319 
L 606.459409 -281.4753 
L 607.618411 -281.78936 
L 608.777412 -282.111948 
L 609.936414 -282.436297 
L 611.095415 -282.75724 
L 612.254416 -283.071654 
L 613.413418 -283.378426 
L 614.572419 -283.677983 
L 615.73142 -283.971509 
L 616.890422 -284.26005 
L 618.049423 -284.543724 
L 619.208424 -284.821201 
L 620.367426 -285.089525 
L 621.526427 -285.344245 
L 622.685428 -285.579782 
L 623.84443 -285.789918 
L 625.003431 -285.968331 
L 626.162432 -286.109159 
L 627.321434 -286.207551 
L 628.480435 -286.260173 
L 629.639436 -286.265614 
L 630.798438 -286.224581 
L 631.957439 -286.139836 
L 633.11644 -286.015885 
L 634.275442 -285.85847 
L 635.434443 -285.674016 
L 636.593445 -285.469119 
L 637.752446 -285.250162 
L 638.911447 -285.023046 
L 640.070449 -284.792992 
L 641.22945 -284.564359 
L 642.388451 -284.340481 
L 643.547453 -284.123536 
L 644.706454 -283.914527 
L 645.865455 -283.713442 
L 647.024457 -283.519602 
L 648.183458 -283.332193 
L 649.342459 -283.150886 
L 650.501461 -282.97645 
L 651.660462 -282.811257 
L 652.819463 -282.65959 
L 653.978465 -282.527712 
L 655.137466 -282.423701 
L 656.296467 -282.357092 
L 657.455469 -282.338375 
L 658.61447 -282.378452 
L 659.773471 -282.48809 
L 660.932473 -282.677423 
L 662.091474 -282.955486 
L 663.250475 -283.329745 
L 664.409477 -283.805536 
L 665.568478 -284.385344 
L 666.72748 -285.067851 
L 667.886481 -285.846745 
L 669.045482 -286.709391 
L 670.204484 -287.635515 
L 671.363485 -288.596194 
L 672.522486 -289.553491 
L 673.681488 -290.461077 
L 674.840489 -291.266182 
L 675.99949 -291.913017 
L 677.158492 -292.347654 
L 678.317493 -292.523958 
L 679.476494 -292.409853 
L 680.635496 -291.99287 
L 681.794497 -291.283815 
L 682.953498 -290.317521 
L 684.1125 -289.150134 
L 685.271501 -287.853098 
L 686.430502 -286.504745 
L 687.589504 -285.181022 
L 687.589504 -273.372728 
L 687.589504 -273.372728 
L 686.430502 -272.049005 
L 685.271501 -270.700652 
L 684.1125 -269.403616 
L 682.953498 -268.236229 
L 681.794497 -267.269935 
L 680.635496 -266.56088 
L 679.476494 -266.143897 
L 678.317493 -266.029792 
L 677.158492 -266.206096 
L 675.99949 -266.640733 
L 674.840489 -267.287568 
L 673.681488 -268.092673 
L 672.522486 -269.000259 
L 671.363485 -269.957556 
L 670.204484 -270.918235 
L 669.045482 -271.844359 
L 667.886481 -272.707005 
L 666.72748 -273.485899 
L 665.568478 -274.168406 
L 664.409477 -274.748214 
L 663.250475 -275.224005 
L 662.091474 -275.598264 
L 660.932473 -275.876327 
L 659.773471 -276.06566 
L 658.61447 -276.175298 
L 657.455469 -276.215375 
L 656.296467 -276.196658 
L 655.137466 -276.130049 
L 653.978465 -276.026038 
L 652.819463 -275.89416 
L 651.660462 -275.742493 
L 650.501461 -275.5773 
L 649.342459 -275.402864 
L 648.183458 -275.221557 
L 647.024457 -275.034148 
L 645.865455 -274.840308 
L 644.706454 -274.639223 
L 643.547453 -274.430214 
L 642.388451 -274.213269 
L 641.22945 -273.989391 
L 640.070449 -273.760758 
L 638.911447 -273.530704 
L 637.752446 -273.303588 
L 636.593445 -273.084631 
L 635.434443 -272.879734 
L 634.275442 -272.69528 
L 633.11644 -272.537865 
L 631.957439 -272.413914 
L 630.798438 -272.329169 
L 629.639436 -272.288136 
L 628.480435 -272.293577 
L 627.321434 -272.346199 
L 626.162432 -272.444591 
L 625.003431 -272.585419 
L 623.84443 -272.763832 
L 622.685428 -272.973968 
L 621.526427 -273.209505 
L 620.367426 -273.464225 
L 619.208424 -273.732549 
L 618.049423 -274.010026 
L 616.890422 -274.2937 
L 615.73142 -274.582241 
L 614.572419 -274.875767 
L 613.413418 -275.175324 
L 612.254416 -275.482096 
L 611.095415 -275.79651 
L 609.936414 -276.117453 
L 608.777412 -276.441802 
L 607.618411 -276.76439 
L 606.459409 -277.07845 
L 605.300408 -277.376431 
L 604.141407 -277.651035 
L 602.982405 -277.896258 
L 601.823404 -278.108218 
L 600.664403 -278.285625 
L 599.505401 -278.429806 
L 598.3464 -278.544305 
L 597.187399 -278.634176 
L 596.028397 -278.705129 
L 594.869396 -278.762709 
L 593.710395 -278.811665 
L 592.551393 -278.855576 
L 591.392392 -278.896751 
L 590.233391 -278.936354 
L 589.074389 -278.97465 
L 587.915388 -279.011316 
L 586.756387 -279.045725 
L 585.597385 -279.077184 
L 584.438384 -279.105107 
L 583.279383 -279.129122 
L 582.120381 -279.149126 
L 580.96138 -279.165295 
L 579.802378 -279.178055 
L 578.643377 -279.18802 
L 577.484376 -279.195917 
L 576.325374 -279.202491 
L 575.166373 -279.208423 
L 574.007372 -279.214249 
L 572.84837 -279.220318 
z
" id="m58fe23c589" style="stroke:#424242;"/>
    </defs>
    <g clip-path="url(#pd7ea4202bf)">
     <use style="fill:#be631d;stroke:#424242;" x="0" xlink:href="#m58fe23c589" y="329.141667"/>
    </g>
   </g>
   <g id="patch_86">
    <path clip-path="url(#pd7ea4202bf)" d="M 445.979444 36.617708 
L 445.979444 36.617708 
L 445.979444 36.617708 
L 445.979444 36.617708 
z
" style="fill:#7c78ab;stroke:#424242;stroke-linejoin:miter;stroke-width:0.5;"/>
   </g>
   <g id="patch_87">
    <path clip-path="url(#pd7ea4202bf)" d="M 445.979444 36.617708 
L 445.979444 36.617708 
L 445.979444 36.617708 
L 445.979444 36.617708 
z
" style="fill:#be631d;stroke:#424242;stroke-linejoin:miter;stroke-width:0.5;"/>
   </g>
   <g id="matplotlib.axis_3">
    <g id="xtick_5">
     <g id="line2d_9">
      <g>
       <use style="stroke:#000000;stroke-width:1.6;" x="445.979444" xlink:href="#m6b34fd3706" y="268.441667"/>
      </g>
     </g>
     <g id="text_10">
      <!-- 0.0 -->
      <g transform="translate(430.076319 298.338542)scale(0.2 -0.2)">
       <use xlink:href="#DejaVuSans-48"/>
       <use x="63.623047" xlink:href="#DejaVuSans-46"/>
       <use x="95.410156" xlink:href="#DejaVuSans-48"/>
      </g>
     </g>
    </g>
    <g id="xtick_6">
     <g id="line2d_10">
      <g>
       <use style="stroke:#000000;stroke-width:1.6;" x="516.630556" xlink:href="#m6b34fd3706" y="268.441667"/>
      </g>
     </g>
     <g id="text_11">
      <!-- 0.2 -->
      <g transform="translate(500.727431 298.338542)scale(0.2 -0.2)">
       <use xlink:href="#DejaVuSans-48"/>
       <use x="63.623047" xlink:href="#DejaVuSans-46"/>
       <use x="95.410156" xlink:href="#DejaVuSans-50"/>
      </g>
     </g>
    </g>
    <g id="xtick_7">
     <g id="line2d_11">
      <g>
       <use style="stroke:#000000;stroke-width:1.6;" x="587.281667" xlink:href="#m6b34fd3706" y="268.441667"/>
      </g>
     </g>
     <g id="text_12">
      <!-- 0.4 -->
      <g transform="translate(571.378542 298.338542)scale(0.2 -0.2)">
       <use xlink:href="#DejaVuSans-48"/>
       <use x="63.623047" xlink:href="#DejaVuSans-46"/>
       <use x="95.410156" xlink:href="#DejaVuSans-52"/>
      </g>
     </g>
    </g>
    <g id="xtick_8">
     <g id="line2d_12">
      <g>
       <use style="stroke:#000000;stroke-width:1.6;" x="657.932778" xlink:href="#m6b34fd3706" y="268.441667"/>
      </g>
     </g>
     <g id="text_13">
      <!-- 0.6 -->
      <g transform="translate(642.029653 298.338542)scale(0.2 -0.2)">
       <use xlink:href="#DejaVuSans-48"/>
       <use x="63.623047" xlink:href="#DejaVuSans-46"/>
       <use x="95.410156" xlink:href="#DejaVuSans-54"/>
      </g>
     </g>
    </g>
    <g id="text_14">
     <!-- Max JS Divergence within $\epsilon$ -->
     <g transform="translate(425.1875 321.697917)scale(0.2 -0.2)">
      <use transform="translate(0 0.015625)" xlink:href="#DejaVuSans-77"/>
      <use transform="translate(86.279297 0.015625)" xlink:href="#DejaVuSans-97"/>
      <use transform="translate(147.558594 0.015625)" xlink:href="#DejaVuSans-120"/>
      <use transform="translate(206.738281 0.015625)" xlink:href="#DejaVuSans-32"/>
      <use transform="translate(238.525391 0.015625)" xlink:href="#DejaVuSans-74"/>
      <use transform="translate(268.017578 0.015625)" xlink:href="#DejaVuSans-83"/>
      <use transform="translate(331.494141 0.015625)" xlink:href="#DejaVuSans-32"/>
      <use transform="translate(363.28125 0.015625)" xlink:href="#DejaVuSans-68"/>
      <use transform="translate(440.283203 0.015625)" xlink:href="#DejaVuSans-105"/>
      <use transform="translate(468.066406 0.015625)" xlink:href="#DejaVuSans-118"/>
      <use transform="translate(527.246094 0.015625)" xlink:href="#DejaVuSans-101"/>
      <use transform="translate(588.769531 0.015625)" xlink:href="#DejaVuSans-114"/>
      <use transform="translate(629.882812 0.015625)" xlink:href="#DejaVuSans-103"/>
      <use transform="translate(693.359375 0.015625)" xlink:href="#DejaVuSans-101"/>
      <use transform="translate(754.882812 0.015625)" xlink:href="#DejaVuSans-110"/>
      <use transform="translate(818.261719 0.015625)" xlink:href="#DejaVuSans-99"/>
      <use transform="translate(873.242188 0.015625)" xlink:href="#DejaVuSans-101"/>
      <use transform="translate(934.765625 0.015625)" xlink:href="#DejaVuSans-32"/>
      <use transform="translate(966.552734 0.015625)" xlink:href="#DejaVuSans-119"/>
      <use transform="translate(1048.339844 0.015625)" xlink:href="#DejaVuSans-105"/>
      <use transform="translate(1076.123047 0.015625)" xlink:href="#DejaVuSans-116"/>
      <use transform="translate(1115.332031 0.015625)" xlink:href="#DejaVuSans-104"/>
      <use transform="translate(1178.710938 0.015625)" xlink:href="#DejaVuSans-105"/>
      <use transform="translate(1206.494141 0.015625)" xlink:href="#DejaVuSans-110"/>
      <use transform="translate(1269.873047 0.015625)" xlink:href="#DejaVuSans-32"/>
      <use transform="translate(1301.660156 0.015625)" xlink:href="#DejaVuSans-Oblique-949"/>
     </g>
    </g>
   </g>
   <g id="matplotlib.axis_4">
    <g id="ytick_5">
     <g id="line2d_13">
      <g>
       <use style="stroke:#000000;stroke-width:1.6;" x="428.316667" xlink:href="#m3bf22285a9" y="36.617708"/>
      </g>
     </g>
     <g id="text_15">
      <!-- [0.00, -->
      <defs>
       <path d="M 8.59375 75.984375 
L 29.296875 75.984375 
L 29.296875 69 
L 17.578125 69 
L 17.578125 -6.203125 
L 29.296875 -6.203125 
L 29.296875 -13.1875 
L 8.59375 -13.1875 
z
" id="DejaVuSans-91"/>
       <path d="M 11.71875 12.40625 
L 22.015625 12.40625 
L 22.015625 4 
L 14.015625 -11.625 
L 7.71875 -11.625 
L 11.71875 4 
z
" id="DejaVuSans-44"/>
      </defs>
      <g transform="translate(354.926042 33.018333)scale(0.2 -0.2)">
       <use xlink:href="#DejaVuSans-91"/>
       <use x="39.013672" xlink:href="#DejaVuSans-48"/>
       <use x="102.636719" xlink:href="#DejaVuSans-46"/>
       <use x="134.423828" xlink:href="#DejaVuSans-48"/>
       <use x="198.046875" xlink:href="#DejaVuSans-48"/>
       <use x="261.669922" xlink:href="#DejaVuSans-44"/>
      </g>
      <!-- 0.25) -->
      <defs>
       <path d="M 8.015625 75.875 
L 15.828125 75.875 
Q 23.140625 64.359375 26.78125 53.3125 
Q 30.421875 42.28125 30.421875 31.390625 
Q 30.421875 20.453125 26.78125 9.375 
Q 23.140625 -1.703125 15.828125 -13.1875 
L 8.015625 -13.1875 
Q 14.5 -2 17.703125 9.0625 
Q 20.90625 20.125 20.90625 31.390625 
Q 20.90625 42.671875 17.703125 53.65625 
Q 14.5 64.65625 8.015625 75.875 
z
" id="DejaVuSans-41"/>
      </defs>
      <g transform="translate(361.282292 55.413958)scale(0.2 -0.2)">
       <use xlink:href="#DejaVuSans-48"/>
       <use x="63.623047" xlink:href="#DejaVuSans-46"/>
       <use x="95.410156" xlink:href="#DejaVuSans-50"/>
       <use x="159.033203" xlink:href="#DejaVuSans-53"/>
       <use x="222.65625" xlink:href="#DejaVuSans-41"/>
      </g>
     </g>
    </g>
    <g id="ytick_6">
     <g id="line2d_14">
      <g>
       <use style="stroke:#000000;stroke-width:1.6;" x="428.316667" xlink:href="#m3bf22285a9" y="102.853125"/>
      </g>
     </g>
     <g id="text_16">
      <!-- [0.25, -->
      <g transform="translate(354.926042 99.25375)scale(0.2 -0.2)">
       <use xlink:href="#DejaVuSans-91"/>
       <use x="39.013672" xlink:href="#DejaVuSans-48"/>
       <use x="102.636719" xlink:href="#DejaVuSans-46"/>
       <use x="134.423828" xlink:href="#DejaVuSans-50"/>
       <use x="198.046875" xlink:href="#DejaVuSans-53"/>
       <use x="261.669922" xlink:href="#DejaVuSans-44"/>
      </g>
      <!-- 0.50) -->
      <g transform="translate(361.282292 121.649375)scale(0.2 -0.2)">
       <use xlink:href="#DejaVuSans-48"/>
       <use x="63.623047" xlink:href="#DejaVuSans-46"/>
       <use x="95.410156" xlink:href="#DejaVuSans-53"/>
       <use x="159.033203" xlink:href="#DejaVuSans-48"/>
       <use x="222.65625" xlink:href="#DejaVuSans-41"/>
      </g>
     </g>
    </g>
    <g id="ytick_7">
     <g id="line2d_15">
      <g>
       <use style="stroke:#000000;stroke-width:1.6;" x="428.316667" xlink:href="#m3bf22285a9" y="169.088542"/>
      </g>
     </g>
     <g id="text_17">
      <!-- [0.50, -->
      <g transform="translate(354.926042 165.489167)scale(0.2 -0.2)">
       <use xlink:href="#DejaVuSans-91"/>
       <use x="39.013672" xlink:href="#DejaVuSans-48"/>
       <use x="102.636719" xlink:href="#DejaVuSans-46"/>
       <use x="134.423828" xlink:href="#DejaVuSans-53"/>
       <use x="198.046875" xlink:href="#DejaVuSans-48"/>
       <use x="261.669922" xlink:href="#DejaVuSans-44"/>
      </g>
      <!-- 0.75) -->
      <defs>
       <path d="M 8.203125 72.90625 
L 55.078125 72.90625 
L 55.078125 68.703125 
L 28.609375 0 
L 18.3125 0 
L 43.21875 64.59375 
L 8.203125 64.59375 
z
" id="DejaVuSans-55"/>
      </defs>
      <g transform="translate(361.282292 187.884792)scale(0.2 -0.2)">
       <use xlink:href="#DejaVuSans-48"/>
       <use x="63.623047" xlink:href="#DejaVuSans-46"/>
       <use x="95.410156" xlink:href="#DejaVuSans-55"/>
       <use x="159.033203" xlink:href="#DejaVuSans-53"/>
       <use x="222.65625" xlink:href="#DejaVuSans-41"/>
      </g>
     </g>
    </g>
    <g id="ytick_8">
     <g id="line2d_16">
      <g>
       <use style="stroke:#000000;stroke-width:1.6;" x="428.316667" xlink:href="#m3bf22285a9" y="235.323958"/>
      </g>
     </g>
     <g id="text_18">
      <!-- [0.75, -->
      <g transform="translate(354.926042 231.724583)scale(0.2 -0.2)">
       <use xlink:href="#DejaVuSans-91"/>
       <use x="39.013672" xlink:href="#DejaVuSans-48"/>
       <use x="102.636719" xlink:href="#DejaVuSans-46"/>
       <use x="134.423828" xlink:href="#DejaVuSans-55"/>
       <use x="198.046875" xlink:href="#DejaVuSans-53"/>
       <use x="261.669922" xlink:href="#DejaVuSans-44"/>
      </g>
      <!-- 1.00) -->
      <g transform="translate(361.282292 254.120208)scale(0.2 -0.2)">
       <use xlink:href="#DejaVuSans-49"/>
       <use x="63.623047" xlink:href="#DejaVuSans-46"/>
       <use x="95.410156" xlink:href="#DejaVuSans-48"/>
       <use x="159.033203" xlink:href="#DejaVuSans-48"/>
       <use x="222.65625" xlink:href="#DejaVuSans-41"/>
      </g>
     </g>
    </g>
    <g id="text_19">
     <!-- Max Attention -->
     <defs>
      <path d="M 34.1875 63.1875 
L 20.796875 26.90625 
L 47.609375 26.90625 
z
M 28.609375 72.90625 
L 39.796875 72.90625 
L 67.578125 0 
L 57.328125 0 
L 50.6875 18.703125 
L 17.828125 18.703125 
L 11.1875 0 
L 0.78125 0 
z
" id="DejaVuSans-65"/>
      <path d="M 30.609375 48.390625 
Q 23.390625 48.390625 19.1875 42.75 
Q 14.984375 37.109375 14.984375 27.296875 
Q 14.984375 17.484375 19.15625 11.84375 
Q 23.34375 6.203125 30.609375 6.203125 
Q 37.796875 6.203125 41.984375 11.859375 
Q 46.1875 17.53125 46.1875 27.296875 
Q 46.1875 37.015625 41.984375 42.703125 
Q 37.796875 48.390625 30.609375 48.390625 
z
M 30.609375 56 
Q 42.328125 56 49.015625 48.375 
Q 55.71875 40.765625 55.71875 27.296875 
Q 55.71875 13.875 49.015625 6.21875 
Q 42.328125 -1.421875 30.609375 -1.421875 
Q 18.84375 -1.421875 12.171875 6.21875 
Q 5.515625 13.875 5.515625 27.296875 
Q 5.515625 40.765625 12.171875 48.375 
Q 18.84375 56 30.609375 56 
z
" id="DejaVuSans-111"/>
     </defs>
     <g transform="translate(346.766667 206.148958)rotate(-90)scale(0.2 -0.2)">
      <use xlink:href="#DejaVuSans-77"/>
      <use x="86.279297" xlink:href="#DejaVuSans-97"/>
      <use x="147.558594" xlink:href="#DejaVuSans-120"/>
      <use x="206.738281" xlink:href="#DejaVuSans-32"/>
      <use x="238.525391" xlink:href="#DejaVuSans-65"/>
      <use x="306.917969" xlink:href="#DejaVuSans-116"/>
      <use x="346.126953" xlink:href="#DejaVuSans-116"/>
      <use x="385.335938" xlink:href="#DejaVuSans-101"/>
      <use x="446.859375" xlink:href="#DejaVuSans-110"/>
      <use x="510.238281" xlink:href="#DejaVuSans-116"/>
      <use x="549.447266" xlink:href="#DejaVuSans-105"/>
      <use x="577.230469" xlink:href="#DejaVuSans-111"/>
      <use x="638.412109" xlink:href="#DejaVuSans-110"/>
     </g>
    </g>
   </g>
   <g id="line2d_17">
    <path clip-path="url(#pd7ea4202bf)" style="fill:none;stroke:#424242;stroke-dasharray:1.5,1.5;stroke-dashoffset:0;"/>
   </g>
   <g id="line2d_18">
    <path clip-path="url(#pd7ea4202bf)" style="fill:none;stroke:#424242;stroke-dasharray:3,3;stroke-dashoffset:0;"/>
   </g>
   <g id="line2d_19">
    <path clip-path="url(#pd7ea4202bf)" style="fill:none;stroke:#424242;stroke-dasharray:1.5,1.5;stroke-dashoffset:0;"/>
   </g>
   <g id="line2d_20">
    <path clip-path="url(#pd7ea4202bf)" style="fill:none;stroke:#424242;stroke-dasharray:1.5,1.5;stroke-dashoffset:0;"/>
   </g>
   <g id="line2d_21">
    <path clip-path="url(#pd7ea4202bf)" style="fill:none;stroke:#424242;stroke-dasharray:3,3;stroke-dashoffset:0;"/>
   </g>
   <g id="line2d_22">
    <path clip-path="url(#pd7ea4202bf)" style="fill:none;stroke:#424242;stroke-dasharray:1.5,1.5;stroke-dashoffset:0;"/>
   </g>
   <g id="patch_88">
    <path style="fill:none;stroke:#000000;stroke-linecap:square;stroke-linejoin:miter;stroke-width:0.8;"/>
   </g>
   <g id="patch_89">
    <path style="fill:none;stroke:#000000;stroke-linecap:square;stroke-linejoin:miter;stroke-width:0.8;"/>
   </g>
  </g>
 </g>
 <defs>
  <clipPath id="pbeec865f69">
   <rect height="264.941667" width="264.941667" x="59.575" y="3.5"/>
  </clipPath>
  <clipPath id="pd7ea4202bf">
   <rect height="264.941667" width="264.941667" x="428.316667" y="3.5"/>
  </clipPath>
 </defs>
</svg>
