<?xml version="1.0" encoding="utf-8" standalone="no"?>
<!DOCTYPE svg PUBLIC "-//W3C//DTD SVG 1.1//EN"
  "http://www.w3.org/Graphics/SVG/1.1/DTD/svg11.dtd">
<!-- Created with matplotlib (https://matplotlib.org/) -->
<svg height="319.061667pt" version="1.1" viewBox="0 0 323.226536 319.061667" width="323.226536pt" xmlns="http://www.w3.org/2000/svg" xmlns:xlink="http://www.w3.org/1999/xlink">
 <defs>
  <style type="text/css">
*{stroke-linecap:butt;stroke-linejoin:round;}
  </style>
 </defs>
 <g id="figure_1">
  <g id="patch_1">
   <path d="M 0 319.061667 
L 323.226536 319.061667 
L 323.226536 0 
L 0 0 
z
" style="fill:#ffffff;"/>
  </g>
  <g id="axes_1">
   <g id="patch_2">
    <path d="M 59.575 258.361667 
L 314.436667 258.361667 
L 314.436667 3.5 
L 59.575 3.5 
z
" style="fill:#ffffff;"/>
   </g>
   <g id="patch_3">
    <path clip-path="url(#p74780ad686)" d="M 71.159621 258.361667 
L 76.951932 258.361667 
L 76.951932 258.361667 
L 71.159621 258.361667 
z
" style="fill:#7570b3;opacity:0.6;stroke:#000000;stroke-linejoin:miter;stroke-width:0.5;"/>
   </g>
   <g id="patch_4">
    <path clip-path="url(#p74780ad686)" d="M 76.951932 258.361667 
L 82.744242 258.361667 
L 82.744242 258.361667 
L 76.951932 258.361667 
z
" style="fill:#7570b3;opacity:0.6;stroke:#000000;stroke-linejoin:miter;stroke-width:0.5;"/>
   </g>
   <g id="patch_5">
    <path clip-path="url(#p74780ad686)" d="M 82.744242 258.361667 
L 88.536553 258.361667 
L 88.536553 258.361667 
L 82.744242 258.361667 
z
" style="fill:#7570b3;opacity:0.6;stroke:#000000;stroke-linejoin:miter;stroke-width:0.5;"/>
   </g>
   <g id="patch_6">
    <path clip-path="url(#p74780ad686)" d="M 88.536553 258.361667 
L 94.328864 258.361667 
L 94.328864 258.361667 
L 88.536553 258.361667 
z
" style="fill:#7570b3;opacity:0.6;stroke:#000000;stroke-linejoin:miter;stroke-width:0.5;"/>
   </g>
   <g id="patch_7">
    <path clip-path="url(#p74780ad686)" d="M 94.328864 258.361667 
L 100.121174 258.361667 
L 100.121174 258.361667 
L 94.328864 258.361667 
z
" style="fill:#7570b3;opacity:0.6;stroke:#000000;stroke-linejoin:miter;stroke-width:0.5;"/>
   </g>
   <g id="patch_8">
    <path clip-path="url(#p74780ad686)" d="M 100.121174 258.361667 
L 105.913485 258.361667 
L 105.913485 258.361667 
L 100.121174 258.361667 
z
" style="fill:#7570b3;opacity:0.6;stroke:#000000;stroke-linejoin:miter;stroke-width:0.5;"/>
   </g>
   <g id="patch_9">
    <path clip-path="url(#p74780ad686)" d="M 105.913485 258.361667 
L 111.705795 258.361667 
L 111.705795 258.361667 
L 105.913485 258.361667 
z
" style="fill:#7570b3;opacity:0.6;stroke:#000000;stroke-linejoin:miter;stroke-width:0.5;"/>
   </g>
   <g id="patch_10">
    <path clip-path="url(#p74780ad686)" d="M 111.705795 258.361667 
L 117.498106 258.361667 
L 117.498106 258.361667 
L 111.705795 258.361667 
z
" style="fill:#7570b3;opacity:0.6;stroke:#000000;stroke-linejoin:miter;stroke-width:0.5;"/>
   </g>
   <g id="patch_11">
    <path clip-path="url(#p74780ad686)" d="M 117.498106 258.361667 
L 123.290417 258.361667 
L 123.290417 258.361667 
L 117.498106 258.361667 
z
" style="fill:#7570b3;opacity:0.6;stroke:#000000;stroke-linejoin:miter;stroke-width:0.5;"/>
   </g>
   <g id="patch_12">
    <path clip-path="url(#p74780ad686)" d="M 123.290417 258.361667 
L 129.082727 258.361667 
L 129.082727 258.361667 
L 123.290417 258.361667 
z
" style="fill:#7570b3;opacity:0.6;stroke:#000000;stroke-linejoin:miter;stroke-width:0.5;"/>
   </g>
   <g id="patch_13">
    <path clip-path="url(#p74780ad686)" d="M 129.082727 258.361667 
L 134.875038 258.361667 
L 134.875038 258.361667 
L 129.082727 258.361667 
z
" style="fill:#7570b3;opacity:0.6;stroke:#000000;stroke-linejoin:miter;stroke-width:0.5;"/>
   </g>
   <g id="patch_14">
    <path clip-path="url(#p74780ad686)" d="M 134.875038 258.361667 
L 140.667348 258.361667 
L 140.667348 258.361667 
L 134.875038 258.361667 
z
" style="fill:#7570b3;opacity:0.6;stroke:#000000;stroke-linejoin:miter;stroke-width:0.5;"/>
   </g>
   <g id="patch_15">
    <path clip-path="url(#p74780ad686)" d="M 140.667348 258.361667 
L 146.459659 258.361667 
L 146.459659 258.361667 
L 140.667348 258.361667 
z
" style="fill:#7570b3;opacity:0.6;stroke:#000000;stroke-linejoin:miter;stroke-width:0.5;"/>
   </g>
   <g id="patch_16">
    <path clip-path="url(#p74780ad686)" d="M 146.459659 258.361667 
L 152.25197 258.361667 
L 152.25197 258.361667 
L 146.459659 258.361667 
z
" style="fill:#7570b3;opacity:0.6;stroke:#000000;stroke-linejoin:miter;stroke-width:0.5;"/>
   </g>
   <g id="patch_17">
    <path clip-path="url(#p74780ad686)" d="M 152.25197 258.361667 
L 158.04428 258.361667 
L 158.04428 258.361667 
L 152.25197 258.361667 
z
" style="fill:#7570b3;opacity:0.6;stroke:#000000;stroke-linejoin:miter;stroke-width:0.5;"/>
   </g>
   <g id="patch_18">
    <path clip-path="url(#p74780ad686)" d="M 158.04428 258.361667 
L 163.836591 258.361667 
L 163.836591 258.361667 
L 158.04428 258.361667 
z
" style="fill:#7570b3;opacity:0.6;stroke:#000000;stroke-linejoin:miter;stroke-width:0.5;"/>
   </g>
   <g id="patch_19">
    <path clip-path="url(#p74780ad686)" d="M 163.836591 258.361667 
L 169.628902 258.361667 
L 169.628902 258.361667 
L 163.836591 258.361667 
z
" style="fill:#7570b3;opacity:0.6;stroke:#000000;stroke-linejoin:miter;stroke-width:0.5;"/>
   </g>
   <g id="patch_20">
    <path clip-path="url(#p74780ad686)" d="M 169.628902 258.361667 
L 175.421212 258.361667 
L 175.421212 258.361667 
L 169.628902 258.361667 
z
" style="fill:#7570b3;opacity:0.6;stroke:#000000;stroke-linejoin:miter;stroke-width:0.5;"/>
   </g>
   <g id="patch_21">
    <path clip-path="url(#p74780ad686)" d="M 175.421212 258.361667 
L 181.213523 258.361667 
L 181.213523 258.361667 
L 175.421212 258.361667 
z
" style="fill:#7570b3;opacity:0.6;stroke:#000000;stroke-linejoin:miter;stroke-width:0.5;"/>
   </g>
   <g id="patch_22">
    <path clip-path="url(#p74780ad686)" d="M 181.213523 258.361667 
L 187.005833 258.361667 
L 187.005833 258.361667 
L 181.213523 258.361667 
z
" style="fill:#7570b3;opacity:0.6;stroke:#000000;stroke-linejoin:miter;stroke-width:0.5;"/>
   </g>
   <g id="patch_23">
    <path clip-path="url(#p74780ad686)" d="M 187.005833 258.361667 
L 192.798144 258.361667 
L 192.798144 258.361667 
L 187.005833 258.361667 
z
" style="fill:#7570b3;opacity:0.6;stroke:#000000;stroke-linejoin:miter;stroke-width:0.5;"/>
   </g>
   <g id="patch_24">
    <path clip-path="url(#p74780ad686)" d="M 192.798144 258.361667 
L 198.590455 258.361667 
L 198.590455 254.822594 
L 192.798144 254.822594 
z
" style="fill:#7570b3;opacity:0.6;stroke:#000000;stroke-linejoin:miter;stroke-width:0.5;"/>
   </g>
   <g id="patch_25">
    <path clip-path="url(#p74780ad686)" d="M 198.590455 258.361667 
L 204.382765 258.361667 
L 204.382765 254.822594 
L 198.590455 254.822594 
z
" style="fill:#7570b3;opacity:0.6;stroke:#000000;stroke-linejoin:miter;stroke-width:0.5;"/>
   </g>
   <g id="patch_26">
    <path clip-path="url(#p74780ad686)" d="M 204.382765 258.361667 
L 210.175076 258.361667 
L 210.175076 249.513985 
L 204.382765 249.513985 
z
" style="fill:#7570b3;opacity:0.6;stroke:#000000;stroke-linejoin:miter;stroke-width:0.5;"/>
   </g>
   <g id="patch_27">
    <path clip-path="url(#p74780ad686)" d="M 210.175076 258.361667 
L 215.967386 258.361667 
L 215.967386 243.320608 
L 210.175076 243.320608 
z
" style="fill:#7570b3;opacity:0.6;stroke:#000000;stroke-linejoin:miter;stroke-width:0.5;"/>
   </g>
   <g id="patch_28">
    <path clip-path="url(#p74780ad686)" d="M 215.967386 258.361667 
L 221.759697 258.361667 
L 221.759697 230.049086 
L 215.967386 230.049086 
z
" style="fill:#7570b3;opacity:0.6;stroke:#000000;stroke-linejoin:miter;stroke-width:0.5;"/>
   </g>
   <g id="patch_29">
    <path clip-path="url(#p74780ad686)" d="M 221.759697 258.361667 
L 227.552008 258.361667 
L 227.552008 211.468955 
L 221.759697 211.468955 
z
" style="fill:#7570b3;opacity:0.6;stroke:#000000;stroke-linejoin:miter;stroke-width:0.5;"/>
   </g>
   <g id="patch_30">
    <path clip-path="url(#p74780ad686)" d="M 227.552008 258.361667 
L 233.344318 258.361667 
L 233.344318 203.506042 
L 227.552008 203.506042 
z
" style="fill:#7570b3;opacity:0.6;stroke:#000000;stroke-linejoin:miter;stroke-width:0.5;"/>
   </g>
   <g id="patch_31">
    <path clip-path="url(#p74780ad686)" d="M 233.344318 258.361667 
L 239.136629 258.361667 
L 239.136629 174.308694 
L 233.344318 174.308694 
z
" style="fill:#7570b3;opacity:0.6;stroke:#000000;stroke-linejoin:miter;stroke-width:0.5;"/>
   </g>
   <g id="patch_32">
    <path clip-path="url(#p74780ad686)" d="M 239.136629 258.361667 
L 244.928939 258.361667 
L 244.928939 165.461012 
L 239.136629 165.461012 
z
" style="fill:#7570b3;opacity:0.6;stroke:#000000;stroke-linejoin:miter;stroke-width:0.5;"/>
   </g>
   <g id="patch_33">
    <path clip-path="url(#p74780ad686)" d="M 244.928939 258.361667 
L 250.72125 258.361667 
L 250.72125 139.802736 
L 244.928939 139.802736 
z
" style="fill:#7570b3;opacity:0.6;stroke:#000000;stroke-linejoin:miter;stroke-width:0.5;"/>
   </g>
   <g id="patch_34">
    <path clip-path="url(#p74780ad686)" d="M 250.72125 258.361667 
L 256.513561 258.361667 
L 256.513561 124.761678 
L 250.72125 124.761678 
z
" style="fill:#7570b3;opacity:0.6;stroke:#000000;stroke-linejoin:miter;stroke-width:0.5;"/>
   </g>
   <g id="patch_35">
    <path clip-path="url(#p74780ad686)" d="M 256.513561 258.361667 
L 262.305871 258.361667 
L 262.305871 110.605388 
L 256.513561 110.605388 
z
" style="fill:#7570b3;opacity:0.6;stroke:#000000;stroke-linejoin:miter;stroke-width:0.5;"/>
   </g>
   <g id="patch_36">
    <path clip-path="url(#p74780ad686)" d="M 262.305871 258.361667 
L 268.098182 258.361667 
L 268.098182 120.337837 
L 262.305871 120.337837 
z
" style="fill:#7570b3;opacity:0.6;stroke:#000000;stroke-linejoin:miter;stroke-width:0.5;"/>
   </g>
   <g id="patch_37">
    <path clip-path="url(#p74780ad686)" d="M 268.098182 258.361667 
L 273.890492 258.361667 
L 273.890492 91.140488 
L 268.098182 91.140488 
z
" style="fill:#7570b3;opacity:0.6;stroke:#000000;stroke-linejoin:miter;stroke-width:0.5;"/>
   </g>
   <g id="patch_38">
    <path clip-path="url(#p74780ad686)" d="M 273.890492 258.361667 
L 279.682803 258.361667 
L 279.682803 96.449097 
L 273.890492 96.449097 
z
" style="fill:#7570b3;opacity:0.6;stroke:#000000;stroke-linejoin:miter;stroke-width:0.5;"/>
   </g>
   <g id="patch_39">
    <path clip-path="url(#p74780ad686)" d="M 279.682803 258.361667 
L 285.475114 258.361667 
L 285.475114 103.527242 
L 279.682803 103.527242 
z
" style="fill:#7570b3;opacity:0.6;stroke:#000000;stroke-linejoin:miter;stroke-width:0.5;"/>
   </g>
   <g id="patch_40">
    <path clip-path="url(#p74780ad686)" d="M 285.475114 258.361667 
L 291.267424 258.361667 
L 291.267424 80.523271 
L 285.475114 80.523271 
z
" style="fill:#7570b3;opacity:0.6;stroke:#000000;stroke-linejoin:miter;stroke-width:0.5;"/>
   </g>
   <g id="patch_41">
    <path clip-path="url(#p74780ad686)" d="M 291.267424 258.361667 
L 297.059735 258.361667 
L 297.059735 130.070287 
L 291.267424 130.070287 
z
" style="fill:#7570b3;opacity:0.6;stroke:#000000;stroke-linejoin:miter;stroke-width:0.5;"/>
   </g>
   <g id="patch_42">
    <path clip-path="url(#p74780ad686)" d="M 297.059735 258.361667 
L 302.852045 258.361667 
L 302.852045 258.361667 
L 297.059735 258.361667 
z
" style="fill:#7570b3;opacity:0.6;stroke:#000000;stroke-linejoin:miter;stroke-width:0.5;"/>
   </g>
   <g id="patch_43">
    <path clip-path="url(#p74780ad686)" d="M 71.159621 258.361667 
L 76.951932 258.361667 
L 76.951932 258.361667 
L 71.159621 258.361667 
z
" style="fill:#d95f02;opacity:0.6;stroke:#000000;stroke-linejoin:miter;stroke-width:0.5;"/>
   </g>
   <g id="patch_44">
    <path clip-path="url(#p74780ad686)" d="M 76.951932 258.361667 
L 82.744242 258.361667 
L 82.744242 258.361667 
L 76.951932 258.361667 
z
" style="fill:#d95f02;opacity:0.6;stroke:#000000;stroke-linejoin:miter;stroke-width:0.5;"/>
   </g>
   <g id="patch_45">
    <path clip-path="url(#p74780ad686)" d="M 82.744242 258.361667 
L 88.536553 258.361667 
L 88.536553 258.361667 
L 82.744242 258.361667 
z
" style="fill:#d95f02;opacity:0.6;stroke:#000000;stroke-linejoin:miter;stroke-width:0.5;"/>
   </g>
   <g id="patch_46">
    <path clip-path="url(#p74780ad686)" d="M 88.536553 258.361667 
L 94.328864 258.361667 
L 94.328864 258.361667 
L 88.536553 258.361667 
z
" style="fill:#d95f02;opacity:0.6;stroke:#000000;stroke-linejoin:miter;stroke-width:0.5;"/>
   </g>
   <g id="patch_47">
    <path clip-path="url(#p74780ad686)" d="M 94.328864 258.361667 
L 100.121174 258.361667 
L 100.121174 258.361667 
L 94.328864 258.361667 
z
" style="fill:#d95f02;opacity:0.6;stroke:#000000;stroke-linejoin:miter;stroke-width:0.5;"/>
   </g>
   <g id="patch_48">
    <path clip-path="url(#p74780ad686)" d="M 100.121174 258.361667 
L 105.913485 258.361667 
L 105.913485 258.361667 
L 100.121174 258.361667 
z
" style="fill:#d95f02;opacity:0.6;stroke:#000000;stroke-linejoin:miter;stroke-width:0.5;"/>
   </g>
   <g id="patch_49">
    <path clip-path="url(#p74780ad686)" d="M 105.913485 258.361667 
L 111.705795 258.361667 
L 111.705795 258.361667 
L 105.913485 258.361667 
z
" style="fill:#d95f02;opacity:0.6;stroke:#000000;stroke-linejoin:miter;stroke-width:0.5;"/>
   </g>
   <g id="patch_50">
    <path clip-path="url(#p74780ad686)" d="M 111.705795 258.361667 
L 117.498106 258.361667 
L 117.498106 258.361667 
L 111.705795 258.361667 
z
" style="fill:#d95f02;opacity:0.6;stroke:#000000;stroke-linejoin:miter;stroke-width:0.5;"/>
   </g>
   <g id="patch_51">
    <path clip-path="url(#p74780ad686)" d="M 117.498106 258.361667 
L 123.290417 258.361667 
L 123.290417 258.361667 
L 117.498106 258.361667 
z
" style="fill:#d95f02;opacity:0.6;stroke:#000000;stroke-linejoin:miter;stroke-width:0.5;"/>
   </g>
   <g id="patch_52">
    <path clip-path="url(#p74780ad686)" d="M 123.290417 258.361667 
L 129.082727 258.361667 
L 129.082727 258.361667 
L 123.290417 258.361667 
z
" style="fill:#d95f02;opacity:0.6;stroke:#000000;stroke-linejoin:miter;stroke-width:0.5;"/>
   </g>
   <g id="patch_53">
    <path clip-path="url(#p74780ad686)" d="M 129.082727 258.361667 
L 134.875038 258.361667 
L 134.875038 258.361667 
L 129.082727 258.361667 
z
" style="fill:#d95f02;opacity:0.6;stroke:#000000;stroke-linejoin:miter;stroke-width:0.5;"/>
   </g>
   <g id="patch_54">
    <path clip-path="url(#p74780ad686)" d="M 134.875038 258.361667 
L 140.667348 258.361667 
L 140.667348 258.361667 
L 134.875038 258.361667 
z
" style="fill:#d95f02;opacity:0.6;stroke:#000000;stroke-linejoin:miter;stroke-width:0.5;"/>
   </g>
   <g id="patch_55">
    <path clip-path="url(#p74780ad686)" d="M 140.667348 258.361667 
L 146.459659 258.361667 
L 146.459659 258.361667 
L 140.667348 258.361667 
z
" style="fill:#d95f02;opacity:0.6;stroke:#000000;stroke-linejoin:miter;stroke-width:0.5;"/>
   </g>
   <g id="patch_56">
    <path clip-path="url(#p74780ad686)" d="M 146.459659 258.361667 
L 152.25197 258.361667 
L 152.25197 258.361667 
L 146.459659 258.361667 
z
" style="fill:#d95f02;opacity:0.6;stroke:#000000;stroke-linejoin:miter;stroke-width:0.5;"/>
   </g>
   <g id="patch_57">
    <path clip-path="url(#p74780ad686)" d="M 152.25197 258.361667 
L 158.04428 258.361667 
L 158.04428 258.361667 
L 152.25197 258.361667 
z
" style="fill:#d95f02;opacity:0.6;stroke:#000000;stroke-linejoin:miter;stroke-width:0.5;"/>
   </g>
   <g id="patch_58">
    <path clip-path="url(#p74780ad686)" d="M 158.04428 258.361667 
L 163.836591 258.361667 
L 163.836591 258.361667 
L 158.04428 258.361667 
z
" style="fill:#d95f02;opacity:0.6;stroke:#000000;stroke-linejoin:miter;stroke-width:0.5;"/>
   </g>
   <g id="patch_59">
    <path clip-path="url(#p74780ad686)" d="M 163.836591 258.361667 
L 169.628902 258.361667 
L 169.628902 258.361667 
L 163.836591 258.361667 
z
" style="fill:#d95f02;opacity:0.6;stroke:#000000;stroke-linejoin:miter;stroke-width:0.5;"/>
   </g>
   <g id="patch_60">
    <path clip-path="url(#p74780ad686)" d="M 169.628902 258.361667 
L 175.421212 258.361667 
L 175.421212 258.361667 
L 169.628902 258.361667 
z
" style="fill:#d95f02;opacity:0.6;stroke:#000000;stroke-linejoin:miter;stroke-width:0.5;"/>
   </g>
   <g id="patch_61">
    <path clip-path="url(#p74780ad686)" d="M 175.421212 258.361667 
L 181.213523 258.361667 
L 181.213523 258.361667 
L 175.421212 258.361667 
z
" style="fill:#d95f02;opacity:0.6;stroke:#000000;stroke-linejoin:miter;stroke-width:0.5;"/>
   </g>
   <g id="patch_62">
    <path clip-path="url(#p74780ad686)" d="M 181.213523 258.361667 
L 187.005833 258.361667 
L 187.005833 257.491683 
L 181.213523 257.491683 
z
" style="fill:#d95f02;opacity:0.6;stroke:#000000;stroke-linejoin:miter;stroke-width:0.5;"/>
   </g>
   <g id="patch_63">
    <path clip-path="url(#p74780ad686)" d="M 187.005833 258.361667 
L 192.798144 258.361667 
L 192.798144 258.361667 
L 187.005833 258.361667 
z
" style="fill:#d95f02;opacity:0.6;stroke:#000000;stroke-linejoin:miter;stroke-width:0.5;"/>
   </g>
   <g id="patch_64">
    <path clip-path="url(#p74780ad686)" d="M 192.798144 258.361667 
L 198.590455 258.361667 
L 198.590455 254.881733 
L 192.798144 254.881733 
z
" style="fill:#d95f02;opacity:0.6;stroke:#000000;stroke-linejoin:miter;stroke-width:0.5;"/>
   </g>
   <g id="patch_65">
    <path clip-path="url(#p74780ad686)" d="M 198.590455 258.361667 
L 204.382765 258.361667 
L 204.382765 254.011749 
L 198.590455 254.011749 
z
" style="fill:#d95f02;opacity:0.6;stroke:#000000;stroke-linejoin:miter;stroke-width:0.5;"/>
   </g>
   <g id="patch_66">
    <path clip-path="url(#p74780ad686)" d="M 204.382765 258.361667 
L 210.175076 258.361667 
L 210.175076 246.181898 
L 204.382765 246.181898 
z
" style="fill:#d95f02;opacity:0.6;stroke:#000000;stroke-linejoin:miter;stroke-width:0.5;"/>
   </g>
   <g id="patch_67">
    <path clip-path="url(#p74780ad686)" d="M 210.175076 258.361667 
L 215.967386 258.361667 
L 215.967386 236.612079 
L 210.175076 236.612079 
z
" style="fill:#d95f02;opacity:0.6;stroke:#000000;stroke-linejoin:miter;stroke-width:0.5;"/>
   </g>
   <g id="patch_68">
    <path clip-path="url(#p74780ad686)" d="M 215.967386 258.361667 
L 221.759697 258.361667 
L 221.759697 228.782228 
L 215.967386 228.782228 
z
" style="fill:#d95f02;opacity:0.6;stroke:#000000;stroke-linejoin:miter;stroke-width:0.5;"/>
   </g>
   <g id="patch_69">
    <path clip-path="url(#p74780ad686)" d="M 221.759697 258.361667 
L 227.552008 258.361667 
L 227.552008 220.952376 
L 221.759697 220.952376 
z
" style="fill:#d95f02;opacity:0.6;stroke:#000000;stroke-linejoin:miter;stroke-width:0.5;"/>
   </g>
   <g id="patch_70">
    <path clip-path="url(#p74780ad686)" d="M 227.552008 258.361667 
L 233.344318 258.361667 
L 233.344318 182.673102 
L 227.552008 182.673102 
z
" style="fill:#d95f02;opacity:0.6;stroke:#000000;stroke-linejoin:miter;stroke-width:0.5;"/>
   </g>
   <g id="patch_71">
    <path clip-path="url(#p74780ad686)" d="M 233.344318 258.361667 
L 239.136629 258.361667 
L 239.136629 169.62335 
L 233.344318 169.62335 
z
" style="fill:#d95f02;opacity:0.6;stroke:#000000;stroke-linejoin:miter;stroke-width:0.5;"/>
   </g>
   <g id="patch_72">
    <path clip-path="url(#p74780ad686)" d="M 239.136629 258.361667 
L 244.928939 258.361667 
L 244.928939 164.403449 
L 239.136629 164.403449 
z
" style="fill:#d95f02;opacity:0.6;stroke:#000000;stroke-linejoin:miter;stroke-width:0.5;"/>
   </g>
   <g id="patch_73">
    <path clip-path="url(#p74780ad686)" d="M 244.928939 258.361667 
L 250.72125 258.361667 
L 250.72125 167.013399 
L 244.928939 167.013399 
z
" style="fill:#d95f02;opacity:0.6;stroke:#000000;stroke-linejoin:miter;stroke-width:0.5;"/>
   </g>
   <g id="patch_74">
    <path clip-path="url(#p74780ad686)" d="M 250.72125 258.361667 
L 256.513561 258.361667 
L 256.513561 147.003779 
L 250.72125 147.003779 
z
" style="fill:#d95f02;opacity:0.6;stroke:#000000;stroke-linejoin:miter;stroke-width:0.5;"/>
   </g>
   <g id="patch_75">
    <path clip-path="url(#p74780ad686)" d="M 256.513561 258.361667 
L 262.305871 258.361667 
L 262.305871 145.263812 
L 256.513561 145.263812 
z
" style="fill:#d95f02;opacity:0.6;stroke:#000000;stroke-linejoin:miter;stroke-width:0.5;"/>
   </g>
   <g id="patch_76">
    <path clip-path="url(#p74780ad686)" d="M 262.305871 258.361667 
L 268.098182 258.361667 
L 268.098182 145.263812 
L 262.305871 145.263812 
z
" style="fill:#d95f02;opacity:0.6;stroke:#000000;stroke-linejoin:miter;stroke-width:0.5;"/>
   </g>
   <g id="patch_77">
    <path clip-path="url(#p74780ad686)" d="M 268.098182 258.361667 
L 273.890492 258.361667 
L 273.890492 145.263812 
L 268.098182 145.263812 
z
" style="fill:#d95f02;opacity:0.6;stroke:#000000;stroke-linejoin:miter;stroke-width:0.5;"/>
   </g>
   <g id="patch_78">
    <path clip-path="url(#p74780ad686)" d="M 273.890492 258.361667 
L 279.682803 258.361667 
L 279.682803 127.864141 
L 273.890492 127.864141 
z
" style="fill:#d95f02;opacity:0.6;stroke:#000000;stroke-linejoin:miter;stroke-width:0.5;"/>
   </g>
   <g id="patch_79">
    <path clip-path="url(#p74780ad686)" d="M 279.682803 258.361667 
L 285.475114 258.361667 
L 285.475114 106.114554 
L 279.682803 106.114554 
z
" style="fill:#d95f02;opacity:0.6;stroke:#000000;stroke-linejoin:miter;stroke-width:0.5;"/>
   </g>
   <g id="patch_80">
    <path clip-path="url(#p74780ad686)" d="M 285.475114 258.361667 
L 291.267424 258.361667 
L 291.267424 27.816039 
L 285.475114 27.816039 
z
" style="fill:#d95f02;opacity:0.6;stroke:#000000;stroke-linejoin:miter;stroke-width:0.5;"/>
   </g>
   <g id="patch_81">
    <path clip-path="url(#p74780ad686)" d="M 291.267424 258.361667 
L 297.059735 258.361667 
L 297.059735 15.63627 
L 291.267424 15.63627 
z
" style="fill:#d95f02;opacity:0.6;stroke:#000000;stroke-linejoin:miter;stroke-width:0.5;"/>
   </g>
   <g id="patch_82">
    <path clip-path="url(#p74780ad686)" d="M 297.059735 258.361667 
L 302.852045 258.361667 
L 302.852045 258.361667 
L 297.059735 258.361667 
z
" style="fill:#d95f02;opacity:0.6;stroke:#000000;stroke-linejoin:miter;stroke-width:0.5;"/>
   </g>
   <g id="matplotlib.axis_1">
    <g id="xtick_1">
     <g id="line2d_1">
      <defs>
       <path d="M 0 0 
L 0 3.5 
" id="mfc13482bbe" style="stroke:#000000;stroke-width:1.6;"/>
      </defs>
      <g>
       <use style="stroke:#000000;stroke-width:1.6;" x="71.159621" xlink:href="#mfc13482bbe" y="258.361667"/>
      </g>
     </g>
     <g id="text_1">
      <!-- 0.0 -->
      <defs>
       <path d="M 31.78125 66.40625 
Q 24.171875 66.40625 20.328125 58.90625 
Q 16.5 51.421875 16.5 36.375 
Q 16.5 21.390625 20.328125 13.890625 
Q 24.171875 6.390625 31.78125 6.390625 
Q 39.453125 6.390625 43.28125 13.890625 
Q 47.125 21.390625 47.125 36.375 
Q 47.125 51.421875 43.28125 58.90625 
Q 39.453125 66.40625 31.78125 66.40625 
z
M 31.78125 74.21875 
Q 44.046875 74.21875 50.515625 64.515625 
Q 56.984375 54.828125 56.984375 36.375 
Q 56.984375 17.96875 50.515625 8.265625 
Q 44.046875 -1.421875 31.78125 -1.421875 
Q 19.53125 -1.421875 13.0625 8.265625 
Q 6.59375 17.96875 6.59375 36.375 
Q 6.59375 54.828125 13.0625 64.515625 
Q 19.53125 74.21875 31.78125 74.21875 
z
" id="DejaVuSans-48"/>
       <path d="M 10.6875 12.40625 
L 21 12.40625 
L 21 0 
L 10.6875 0 
z
" id="DejaVuSans-46"/>
      </defs>
      <g transform="translate(55.256496 288.258542)scale(0.2 -0.2)">
       <use xlink:href="#DejaVuSans-48"/>
       <use x="63.623047" xlink:href="#DejaVuSans-46"/>
       <use x="95.410156" xlink:href="#DejaVuSans-48"/>
      </g>
     </g>
    </g>
    <g id="xtick_2">
     <g id="line2d_2">
      <g>
       <use style="stroke:#000000;stroke-width:1.6;" x="137.357457" xlink:href="#mfc13482bbe" y="258.361667"/>
      </g>
     </g>
     <g id="text_2">
      <!-- 0.2 -->
      <defs>
       <path d="M 19.1875 8.296875 
L 53.609375 8.296875 
L 53.609375 0 
L 7.328125 0 
L 7.328125 8.296875 
Q 12.9375 14.109375 22.625 23.890625 
Q 32.328125 33.6875 34.8125 36.53125 
Q 39.546875 41.84375 41.421875 45.53125 
Q 43.3125 49.21875 43.3125 52.78125 
Q 43.3125 58.59375 39.234375 62.25 
Q 35.15625 65.921875 28.609375 65.921875 
Q 23.96875 65.921875 18.8125 64.3125 
Q 13.671875 62.703125 7.8125 59.421875 
L 7.8125 69.390625 
Q 13.765625 71.78125 18.9375 73 
Q 24.125 74.21875 28.421875 74.21875 
Q 39.75 74.21875 46.484375 68.546875 
Q 53.21875 62.890625 53.21875 53.421875 
Q 53.21875 48.921875 51.53125 44.890625 
Q 49.859375 40.875 45.40625 35.40625 
Q 44.1875 33.984375 37.640625 27.21875 
Q 31.109375 20.453125 19.1875 8.296875 
z
" id="DejaVuSans-50"/>
      </defs>
      <g transform="translate(121.454332 288.258542)scale(0.2 -0.2)">
       <use xlink:href="#DejaVuSans-48"/>
       <use x="63.623047" xlink:href="#DejaVuSans-46"/>
       <use x="95.410156" xlink:href="#DejaVuSans-50"/>
      </g>
     </g>
    </g>
    <g id="xtick_3">
     <g id="line2d_3">
      <g>
       <use style="stroke:#000000;stroke-width:1.6;" x="203.555292" xlink:href="#mfc13482bbe" y="258.361667"/>
      </g>
     </g>
     <g id="text_3">
      <!-- 0.4 -->
      <defs>
       <path d="M 37.796875 64.3125 
L 12.890625 25.390625 
L 37.796875 25.390625 
z
M 35.203125 72.90625 
L 47.609375 72.90625 
L 47.609375 25.390625 
L 58.015625 25.390625 
L 58.015625 17.1875 
L 47.609375 17.1875 
L 47.609375 0 
L 37.796875 0 
L 37.796875 17.1875 
L 4.890625 17.1875 
L 4.890625 26.703125 
z
" id="DejaVuSans-52"/>
      </defs>
      <g transform="translate(187.652167 288.258542)scale(0.2 -0.2)">
       <use xlink:href="#DejaVuSans-48"/>
       <use x="63.623047" xlink:href="#DejaVuSans-46"/>
       <use x="95.410156" xlink:href="#DejaVuSans-52"/>
      </g>
     </g>
    </g>
    <g id="xtick_4">
     <g id="line2d_4">
      <g>
       <use style="stroke:#000000;stroke-width:1.6;" x="269.753128" xlink:href="#mfc13482bbe" y="258.361667"/>
      </g>
     </g>
     <g id="text_4">
      <!-- 0.6 -->
      <defs>
       <path d="M 33.015625 40.375 
Q 26.375 40.375 22.484375 35.828125 
Q 18.609375 31.296875 18.609375 23.390625 
Q 18.609375 15.53125 22.484375 10.953125 
Q 26.375 6.390625 33.015625 6.390625 
Q 39.65625 6.390625 43.53125 10.953125 
Q 47.40625 15.53125 47.40625 23.390625 
Q 47.40625 31.296875 43.53125 35.828125 
Q 39.65625 40.375 33.015625 40.375 
z
M 52.59375 71.296875 
L 52.59375 62.3125 
Q 48.875 64.0625 45.09375 64.984375 
Q 41.3125 65.921875 37.59375 65.921875 
Q 27.828125 65.921875 22.671875 59.328125 
Q 17.53125 52.734375 16.796875 39.40625 
Q 19.671875 43.65625 24.015625 45.921875 
Q 28.375 48.1875 33.59375 48.1875 
Q 44.578125 48.1875 50.953125 41.515625 
Q 57.328125 34.859375 57.328125 23.390625 
Q 57.328125 12.15625 50.6875 5.359375 
Q 44.046875 -1.421875 33.015625 -1.421875 
Q 20.359375 -1.421875 13.671875 8.265625 
Q 6.984375 17.96875 6.984375 36.375 
Q 6.984375 53.65625 15.1875 63.9375 
Q 23.390625 74.21875 37.203125 74.21875 
Q 40.921875 74.21875 44.703125 73.484375 
Q 48.484375 72.75 52.59375 71.296875 
z
" id="DejaVuSans-54"/>
      </defs>
      <g transform="translate(253.850003 288.258542)scale(0.2 -0.2)">
       <use xlink:href="#DejaVuSans-48"/>
       <use x="63.623047" xlink:href="#DejaVuSans-46"/>
       <use x="95.410156" xlink:href="#DejaVuSans-54"/>
      </g>
     </g>
    </g>
    <g id="text_5">
     <!-- Max JS Divergence within $\epsilon$ -->
     <defs>
      <path d="M 9.8125 72.90625 
L 24.515625 72.90625 
L 43.109375 23.296875 
L 61.8125 72.90625 
L 76.515625 72.90625 
L 76.515625 0 
L 66.890625 0 
L 66.890625 64.015625 
L 48.09375 14.015625 
L 38.1875 14.015625 
L 19.390625 64.015625 
L 19.390625 0 
L 9.8125 0 
z
" id="DejaVuSans-77"/>
      <path d="M 34.28125 27.484375 
Q 23.390625 27.484375 19.1875 25 
Q 14.984375 22.515625 14.984375 16.5 
Q 14.984375 11.71875 18.140625 8.90625 
Q 21.296875 6.109375 26.703125 6.109375 
Q 34.1875 6.109375 38.703125 11.40625 
Q 43.21875 16.703125 43.21875 25.484375 
L 43.21875 27.484375 
z
M 52.203125 31.203125 
L 52.203125 0 
L 43.21875 0 
L 43.21875 8.296875 
Q 40.140625 3.328125 35.546875 0.953125 
Q 30.953125 -1.421875 24.3125 -1.421875 
Q 15.921875 -1.421875 10.953125 3.296875 
Q 6 8.015625 6 15.921875 
Q 6 25.140625 12.171875 29.828125 
Q 18.359375 34.515625 30.609375 34.515625 
L 43.21875 34.515625 
L 43.21875 35.40625 
Q 43.21875 41.609375 39.140625 45 
Q 35.0625 48.390625 27.6875 48.390625 
Q 23 48.390625 18.546875 47.265625 
Q 14.109375 46.140625 10.015625 43.890625 
L 10.015625 52.203125 
Q 14.9375 54.109375 19.578125 55.046875 
Q 24.21875 56 28.609375 56 
Q 40.484375 56 46.34375 49.84375 
Q 52.203125 43.703125 52.203125 31.203125 
z
" id="DejaVuSans-97"/>
      <path d="M 54.890625 54.6875 
L 35.109375 28.078125 
L 55.90625 0 
L 45.3125 0 
L 29.390625 21.484375 
L 13.484375 0 
L 2.875 0 
L 24.125 28.609375 
L 4.6875 54.6875 
L 15.28125 54.6875 
L 29.78125 35.203125 
L 44.28125 54.6875 
z
" id="DejaVuSans-120"/>
      <path id="DejaVuSans-32"/>
      <path d="M 9.8125 72.90625 
L 19.671875 72.90625 
L 19.671875 5.078125 
Q 19.671875 -8.109375 14.671875 -14.0625 
Q 9.671875 -20.015625 -1.421875 -20.015625 
L -5.171875 -20.015625 
L -5.171875 -11.71875 
L -2.09375 -11.71875 
Q 4.4375 -11.71875 7.125 -8.046875 
Q 9.8125 -4.390625 9.8125 5.078125 
z
" id="DejaVuSans-74"/>
      <path d="M 53.515625 70.515625 
L 53.515625 60.890625 
Q 47.90625 63.578125 42.921875 64.890625 
Q 37.9375 66.21875 33.296875 66.21875 
Q 25.25 66.21875 20.875 63.09375 
Q 16.5 59.96875 16.5 54.203125 
Q 16.5 49.359375 19.40625 46.890625 
Q 22.3125 44.4375 30.421875 42.921875 
L 36.375 41.703125 
Q 47.40625 39.59375 52.65625 34.296875 
Q 57.90625 29 57.90625 20.125 
Q 57.90625 9.515625 50.796875 4.046875 
Q 43.703125 -1.421875 29.984375 -1.421875 
Q 24.8125 -1.421875 18.96875 -0.25 
Q 13.140625 0.921875 6.890625 3.21875 
L 6.890625 13.375 
Q 12.890625 10.015625 18.65625 8.296875 
Q 24.421875 6.59375 29.984375 6.59375 
Q 38.421875 6.59375 43.015625 9.90625 
Q 47.609375 13.234375 47.609375 19.390625 
Q 47.609375 24.75 44.3125 27.78125 
Q 41.015625 30.8125 33.5 32.328125 
L 27.484375 33.5 
Q 16.453125 35.6875 11.515625 40.375 
Q 6.59375 45.0625 6.59375 53.421875 
Q 6.59375 63.09375 13.40625 68.65625 
Q 20.21875 74.21875 32.171875 74.21875 
Q 37.3125 74.21875 42.625 73.28125 
Q 47.953125 72.359375 53.515625 70.515625 
z
" id="DejaVuSans-83"/>
      <path d="M 19.671875 64.796875 
L 19.671875 8.109375 
L 31.59375 8.109375 
Q 46.6875 8.109375 53.6875 14.9375 
Q 60.6875 21.78125 60.6875 36.53125 
Q 60.6875 51.171875 53.6875 57.984375 
Q 46.6875 64.796875 31.59375 64.796875 
z
M 9.8125 72.90625 
L 30.078125 72.90625 
Q 51.265625 72.90625 61.171875 64.09375 
Q 71.09375 55.28125 71.09375 36.53125 
Q 71.09375 17.671875 61.125 8.828125 
Q 51.171875 0 30.078125 0 
L 9.8125 0 
z
" id="DejaVuSans-68"/>
      <path d="M 9.421875 54.6875 
L 18.40625 54.6875 
L 18.40625 0 
L 9.421875 0 
z
M 9.421875 75.984375 
L 18.40625 75.984375 
L 18.40625 64.59375 
L 9.421875 64.59375 
z
" id="DejaVuSans-105"/>
      <path d="M 2.984375 54.6875 
L 12.5 54.6875 
L 29.59375 8.796875 
L 46.6875 54.6875 
L 56.203125 54.6875 
L 35.6875 0 
L 23.484375 0 
z
" id="DejaVuSans-118"/>
      <path d="M 56.203125 29.59375 
L 56.203125 25.203125 
L 14.890625 25.203125 
Q 15.484375 15.921875 20.484375 11.0625 
Q 25.484375 6.203125 34.421875 6.203125 
Q 39.59375 6.203125 44.453125 7.46875 
Q 49.3125 8.734375 54.109375 11.28125 
L 54.109375 2.78125 
Q 49.265625 0.734375 44.1875 -0.34375 
Q 39.109375 -1.421875 33.890625 -1.421875 
Q 20.796875 -1.421875 13.15625 6.1875 
Q 5.515625 13.8125 5.515625 26.8125 
Q 5.515625 40.234375 12.765625 48.109375 
Q 20.015625 56 32.328125 56 
Q 43.359375 56 49.78125 48.890625 
Q 56.203125 41.796875 56.203125 29.59375 
z
M 47.21875 32.234375 
Q 47.125 39.59375 43.09375 43.984375 
Q 39.0625 48.390625 32.421875 48.390625 
Q 24.90625 48.390625 20.390625 44.140625 
Q 15.875 39.890625 15.1875 32.171875 
z
" id="DejaVuSans-101"/>
      <path d="M 41.109375 46.296875 
Q 39.59375 47.171875 37.8125 47.578125 
Q 36.03125 48 33.890625 48 
Q 26.265625 48 22.1875 43.046875 
Q 18.109375 38.09375 18.109375 28.8125 
L 18.109375 0 
L 9.078125 0 
L 9.078125 54.6875 
L 18.109375 54.6875 
L 18.109375 46.1875 
Q 20.953125 51.171875 25.484375 53.578125 
Q 30.03125 56 36.53125 56 
Q 37.453125 56 38.578125 55.875 
Q 39.703125 55.765625 41.0625 55.515625 
z
" id="DejaVuSans-114"/>
      <path d="M 45.40625 27.984375 
Q 45.40625 37.75 41.375 43.109375 
Q 37.359375 48.484375 30.078125 48.484375 
Q 22.859375 48.484375 18.828125 43.109375 
Q 14.796875 37.75 14.796875 27.984375 
Q 14.796875 18.265625 18.828125 12.890625 
Q 22.859375 7.515625 30.078125 7.515625 
Q 37.359375 7.515625 41.375 12.890625 
Q 45.40625 18.265625 45.40625 27.984375 
z
M 54.390625 6.78125 
Q 54.390625 -7.171875 48.1875 -13.984375 
Q 42 -20.796875 29.203125 -20.796875 
Q 24.46875 -20.796875 20.265625 -20.09375 
Q 16.0625 -19.390625 12.109375 -17.921875 
L 12.109375 -9.1875 
Q 16.0625 -11.328125 19.921875 -12.34375 
Q 23.78125 -13.375 27.78125 -13.375 
Q 36.625 -13.375 41.015625 -8.765625 
Q 45.40625 -4.15625 45.40625 5.171875 
L 45.40625 9.625 
Q 42.625 4.78125 38.28125 2.390625 
Q 33.9375 0 27.875 0 
Q 17.828125 0 11.671875 7.65625 
Q 5.515625 15.328125 5.515625 27.984375 
Q 5.515625 40.671875 11.671875 48.328125 
Q 17.828125 56 27.875 56 
Q 33.9375 56 38.28125 53.609375 
Q 42.625 51.21875 45.40625 46.390625 
L 45.40625 54.6875 
L 54.390625 54.6875 
z
" id="DejaVuSans-103"/>
      <path d="M 54.890625 33.015625 
L 54.890625 0 
L 45.90625 0 
L 45.90625 32.71875 
Q 45.90625 40.484375 42.875 44.328125 
Q 39.84375 48.1875 33.796875 48.1875 
Q 26.515625 48.1875 22.3125 43.546875 
Q 18.109375 38.921875 18.109375 30.90625 
L 18.109375 0 
L 9.078125 0 
L 9.078125 54.6875 
L 18.109375 54.6875 
L 18.109375 46.1875 
Q 21.34375 51.125 25.703125 53.5625 
Q 30.078125 56 35.796875 56 
Q 45.21875 56 50.046875 50.171875 
Q 54.890625 44.34375 54.890625 33.015625 
z
" id="DejaVuSans-110"/>
      <path d="M 48.78125 52.59375 
L 48.78125 44.1875 
Q 44.96875 46.296875 41.140625 47.34375 
Q 37.3125 48.390625 33.40625 48.390625 
Q 24.65625 48.390625 19.8125 42.84375 
Q 14.984375 37.3125 14.984375 27.296875 
Q 14.984375 17.28125 19.8125 11.734375 
Q 24.65625 6.203125 33.40625 6.203125 
Q 37.3125 6.203125 41.140625 7.25 
Q 44.96875 8.296875 48.78125 10.40625 
L 48.78125 2.09375 
Q 45.015625 0.34375 40.984375 -0.53125 
Q 36.96875 -1.421875 32.421875 -1.421875 
Q 20.0625 -1.421875 12.78125 6.34375 
Q 5.515625 14.109375 5.515625 27.296875 
Q 5.515625 40.671875 12.859375 48.328125 
Q 20.21875 56 33.015625 56 
Q 37.15625 56 41.109375 55.140625 
Q 45.0625 54.296875 48.78125 52.59375 
z
" id="DejaVuSans-99"/>
      <path d="M 4.203125 54.6875 
L 13.1875 54.6875 
L 24.421875 12.015625 
L 35.59375 54.6875 
L 46.1875 54.6875 
L 57.421875 12.015625 
L 68.609375 54.6875 
L 77.59375 54.6875 
L 63.28125 0 
L 52.6875 0 
L 40.921875 44.828125 
L 29.109375 0 
L 18.5 0 
z
" id="DejaVuSans-119"/>
      <path d="M 18.3125 70.21875 
L 18.3125 54.6875 
L 36.8125 54.6875 
L 36.8125 47.703125 
L 18.3125 47.703125 
L 18.3125 18.015625 
Q 18.3125 11.328125 20.140625 9.421875 
Q 21.96875 7.515625 27.59375 7.515625 
L 36.8125 7.515625 
L 36.8125 0 
L 27.59375 0 
Q 17.1875 0 13.234375 3.875 
Q 9.28125 7.765625 9.28125 18.015625 
L 9.28125 47.703125 
L 2.6875 47.703125 
L 2.6875 54.6875 
L 9.28125 54.6875 
L 9.28125 70.21875 
z
" id="DejaVuSans-116"/>
      <path d="M 54.890625 33.015625 
L 54.890625 0 
L 45.90625 0 
L 45.90625 32.71875 
Q 45.90625 40.484375 42.875 44.328125 
Q 39.84375 48.1875 33.796875 48.1875 
Q 26.515625 48.1875 22.3125 43.546875 
Q 18.109375 38.921875 18.109375 30.90625 
L 18.109375 0 
L 9.078125 0 
L 9.078125 75.984375 
L 18.109375 75.984375 
L 18.109375 46.1875 
Q 21.34375 51.125 25.703125 53.5625 
Q 30.078125 56 35.796875 56 
Q 45.21875 56 50.046875 50.171875 
Q 54.890625 44.34375 54.890625 33.015625 
z
" id="DejaVuSans-104"/>
      <path d="M 19.734375 29.5 
Q 14.453125 30.671875 12.15625 33.84375 
Q 10.453125 36.078125 10.453125 39.109375 
Q 10.453125 47.40625 18.359375 52.25 
Q 24.609375 56.0625 34.1875 56.0625 
Q 37.890625 56.0625 41.9375 55.46875 
Q 46 54.890625 50.53125 53.71875 
L 48.96875 45.5625 
Q 44.484375 46.96875 40.71875 47.609375 
Q 36.859375 48.25 33.40625 48.25 
Q 27.59375 48.25 23.78125 46 
Q 19.1875 43.3125 19.1875 39.40625 
Q 19.1875 36.8125 21.578125 35.015625 
Q 24.421875 32.859375 30.078125 32.859375 
L 37.640625 32.859375 
L 36.234375 25.4375 
L 29 25.4375 
Q 22.265625 25.4375 18.3125 22.953125 
Q 12.9375 19.578125 12.9375 14.3125 
Q 12.9375 10.984375 15.828125 8.796875 
Q 19.4375 6.0625 26.8125 6.0625 
Q 31.34375 6.0625 35.6875 6.9375 
Q 40.046875 7.859375 43.84375 9.671875 
L 42.1875 1.3125 
Q 37.546875 -0.046875 33.296875 -0.734375 
Q 29.046875 -1.421875 25.140625 -1.421875 
Q 13.53125 -1.421875 8.0625 3.03125 
Q 3.90625 6.453125 3.90625 12.203125 
Q 3.90625 19.96875 9.375 24.75 
Q 13.421875 28.328125 19.734375 29.5 
z
" id="DejaVuSans-Oblique-949"/>
     </defs>
     <g transform="translate(51.405833 311.617917)scale(0.2 -0.2)">
      <use transform="translate(0 0.015625)" xlink:href="#DejaVuSans-77"/>
      <use transform="translate(86.279297 0.015625)" xlink:href="#DejaVuSans-97"/>
      <use transform="translate(147.558594 0.015625)" xlink:href="#DejaVuSans-120"/>
      <use transform="translate(206.738281 0.015625)" xlink:href="#DejaVuSans-32"/>
      <use transform="translate(238.525391 0.015625)" xlink:href="#DejaVuSans-74"/>
      <use transform="translate(268.017578 0.015625)" xlink:href="#DejaVuSans-83"/>
      <use transform="translate(331.494141 0.015625)" xlink:href="#DejaVuSans-32"/>
      <use transform="translate(363.28125 0.015625)" xlink:href="#DejaVuSans-68"/>
      <use transform="translate(440.283203 0.015625)" xlink:href="#DejaVuSans-105"/>
      <use transform="translate(468.066406 0.015625)" xlink:href="#DejaVuSans-118"/>
      <use transform="translate(527.246094 0.015625)" xlink:href="#DejaVuSans-101"/>
      <use transform="translate(588.769531 0.015625)" xlink:href="#DejaVuSans-114"/>
      <use transform="translate(629.882812 0.015625)" xlink:href="#DejaVuSans-103"/>
      <use transform="translate(693.359375 0.015625)" xlink:href="#DejaVuSans-101"/>
      <use transform="translate(754.882812 0.015625)" xlink:href="#DejaVuSans-110"/>
      <use transform="translate(818.261719 0.015625)" xlink:href="#DejaVuSans-99"/>
      <use transform="translate(873.242188 0.015625)" xlink:href="#DejaVuSans-101"/>
      <use transform="translate(934.765625 0.015625)" xlink:href="#DejaVuSans-32"/>
      <use transform="translate(966.552734 0.015625)" xlink:href="#DejaVuSans-119"/>
      <use transform="translate(1048.339844 0.015625)" xlink:href="#DejaVuSans-105"/>
      <use transform="translate(1076.123047 0.015625)" xlink:href="#DejaVuSans-116"/>
      <use transform="translate(1115.332031 0.015625)" xlink:href="#DejaVuSans-104"/>
      <use transform="translate(1178.710938 0.015625)" xlink:href="#DejaVuSans-105"/>
      <use transform="translate(1206.494141 0.015625)" xlink:href="#DejaVuSans-110"/>
      <use transform="translate(1269.873047 0.015625)" xlink:href="#DejaVuSans-32"/>
      <use transform="translate(1301.660156 0.015625)" xlink:href="#DejaVuSans-Oblique-949"/>
     </g>
    </g>
   </g>
   <g id="matplotlib.axis_2">
    <g id="ytick_1">
     <g id="line2d_5">
      <defs>
       <path d="M 0 0 
L -3.5 0 
" id="m80d1e57c78" style="stroke:#000000;stroke-width:1.6;"/>
      </defs>
      <g>
       <use style="stroke:#000000;stroke-width:1.6;" x="59.575" xlink:href="#m80d1e57c78" y="258.361667"/>
      </g>
     </g>
     <g id="text_6">
      <!-- 0.00 -->
      <g transform="translate(0.34375 265.960104)scale(0.2 -0.2)">
       <use xlink:href="#DejaVuSans-48"/>
       <use x="63.623047" xlink:href="#DejaVuSans-46"/>
       <use x="95.410156" xlink:href="#DejaVuSans-48"/>
       <use x="159.033203" xlink:href="#DejaVuSans-48"/>
      </g>
     </g>
    </g>
    <g id="ytick_2">
     <g id="line2d_6">
      <g>
       <use style="stroke:#000000;stroke-width:1.6;" x="59.575" xlink:href="#m80d1e57c78" y="175.060746"/>
      </g>
     </g>
     <g id="text_7">
      <!-- 0.05 -->
      <defs>
       <path d="M 10.796875 72.90625 
L 49.515625 72.90625 
L 49.515625 64.59375 
L 19.828125 64.59375 
L 19.828125 46.734375 
Q 21.96875 47.46875 24.109375 47.828125 
Q 26.265625 48.1875 28.421875 48.1875 
Q 40.625 48.1875 47.75 41.5 
Q 54.890625 34.8125 54.890625 23.390625 
Q 54.890625 11.625 47.5625 5.09375 
Q 40.234375 -1.421875 26.90625 -1.421875 
Q 22.3125 -1.421875 17.546875 -0.640625 
Q 12.796875 0.140625 7.71875 1.703125 
L 7.71875 11.625 
Q 12.109375 9.234375 16.796875 8.0625 
Q 21.484375 6.890625 26.703125 6.890625 
Q 35.15625 6.890625 40.078125 11.328125 
Q 45.015625 15.765625 45.015625 23.390625 
Q 45.015625 31 40.078125 35.4375 
Q 35.15625 39.890625 26.703125 39.890625 
Q 22.75 39.890625 18.8125 39.015625 
Q 14.890625 38.140625 10.796875 36.28125 
z
" id="DejaVuSans-53"/>
      </defs>
      <g transform="translate(0.34375 182.659184)scale(0.2 -0.2)">
       <use xlink:href="#DejaVuSans-48"/>
       <use x="63.623047" xlink:href="#DejaVuSans-46"/>
       <use x="95.410156" xlink:href="#DejaVuSans-48"/>
       <use x="159.033203" xlink:href="#DejaVuSans-53"/>
      </g>
     </g>
    </g>
    <g id="ytick_3">
     <g id="line2d_7">
      <g>
       <use style="stroke:#000000;stroke-width:1.6;" x="59.575" xlink:href="#m80d1e57c78" y="91.759826"/>
      </g>
     </g>
     <g id="text_8">
      <!-- 0.10 -->
      <defs>
       <path d="M 12.40625 8.296875 
L 28.515625 8.296875 
L 28.515625 63.921875 
L 10.984375 60.40625 
L 10.984375 69.390625 
L 28.421875 72.90625 
L 38.28125 72.90625 
L 38.28125 8.296875 
L 54.390625 8.296875 
L 54.390625 0 
L 12.40625 0 
z
" id="DejaVuSans-49"/>
      </defs>
      <g transform="translate(0.34375 99.358264)scale(0.2 -0.2)">
       <use xlink:href="#DejaVuSans-48"/>
       <use x="63.623047" xlink:href="#DejaVuSans-46"/>
       <use x="95.410156" xlink:href="#DejaVuSans-49"/>
       <use x="159.033203" xlink:href="#DejaVuSans-48"/>
      </g>
     </g>
    </g>
    <g id="ytick_4">
     <g id="line2d_8">
      <g>
       <use style="stroke:#000000;stroke-width:1.6;" x="59.575" xlink:href="#m80d1e57c78" y="8.458906"/>
      </g>
     </g>
     <g id="text_9">
      <!-- 0.15 -->
      <g transform="translate(0.34375 16.057343)scale(0.2 -0.2)">
       <use xlink:href="#DejaVuSans-48"/>
       <use x="63.623047" xlink:href="#DejaVuSans-46"/>
       <use x="95.410156" xlink:href="#DejaVuSans-49"/>
       <use x="159.033203" xlink:href="#DejaVuSans-53"/>
      </g>
     </g>
    </g>
   </g>
   <g id="patch_83">
    <path d="M 59.575 258.361667 
L 59.575 3.5 
" style="fill:none;stroke:#000000;stroke-linecap:square;stroke-linejoin:miter;stroke-width:0.8;"/>
   </g>
   <g id="patch_84">
    <path d="M 59.575 258.361667 
L 314.436667 258.361667 
" style="fill:none;stroke:#000000;stroke-linecap:square;stroke-linejoin:miter;stroke-width:0.8;"/>
   </g>
  </g>
  <g id="axes_2">
   <g id="patch_85">
    <path d="M 425.796667 258.361667 
L 680.658333 258.361667 
L 680.658333 3.5 
L 425.796667 3.5 
z
" style="fill:#ffffff;"/>
   </g>
   <g id="PolyCollection_1">
    <defs>
     <path d="M 573.06518 -296.292117 
L 573.06518 -296.601966 
L 574.090235 -296.636887 
L 575.11529 -296.67501 
L 576.140344 -296.715376 
L 577.165399 -296.756839 
L 578.190454 -296.798245 
L 579.215508 -296.838668 
L 580.240563 -296.877658 
L 581.265617 -296.915445 
L 582.290672 -296.953043 
L 583.315727 -296.992214 
L 584.340781 -297.035285 
L 585.365836 -297.084848 
L 586.39089 -297.143401 
L 587.415945 -297.213022 
L 588.441 -297.295134 
L 589.466054 -297.390405 
L 590.491109 -297.498771 
L 591.516164 -297.619553 
L 592.541218 -297.751596 
L 593.566273 -297.893385 
L 594.591327 -298.04313 
L 595.616382 -298.198834 
L 596.641437 -298.358405 
L 597.666491 -298.519853 
L 598.691546 -298.681581 
L 599.7166 -298.842716 
L 600.741655 -299.003392 
L 601.76671 -299.164847 
L 602.791764 -299.329263 
L 603.816819 -299.499308 
L 604.841874 -299.677478 
L 605.866928 -299.865376 
L 606.891983 -300.063136 
L 607.917037 -300.269165 
L 608.942092 -300.48029 
L 609.967147 -300.692301 
L 610.992201 -300.900733 
L 612.017256 -301.101712 
L 613.04231 -301.292624 
L 614.067365 -301.472454 
L 615.09242 -301.64174 
L 616.117474 -301.802178 
L 617.142529 -301.95603 
L 618.167584 -302.105506 
L 619.192638 -302.252303 
L 620.217693 -302.39738 
L 621.242747 -302.540995 
L 622.267802 -302.682903 
L 623.292857 -302.822597 
L 624.317911 -302.959454 
L 625.342966 -303.092737 
L 626.36802 -303.221452 
L 627.393075 -303.344172 
L 628.41813 -303.458957 
L 629.443184 -303.563486 
L 630.468239 -303.65544 
L 631.493294 -303.733103 
L 632.518348 -303.796038 
L 633.543403 -303.845676 
L 634.568457 -303.885653 
L 635.593512 -303.921771 
L 636.618567 -303.96156 
L 637.643621 -304.013465 
L 638.668676 -304.085802 
L 639.69373 -304.185623 
L 640.718785 -304.317684 
L 641.74384 -304.483674 
L 642.768894 -304.68179 
L 643.793949 -304.906728 
L 644.819004 -305.15005 
L 645.844058 -305.400867 
L 646.869113 -305.646771 
L 647.894167 -305.87491 
L 648.919222 -306.073148 
L 649.944277 -306.231223 
L 650.969331 -306.341799 
L 651.994386 -306.401315 
L 653.01944 -306.410478 
L 654.044495 -306.374313 
L 655.06955 -306.301686 
L 656.094604 -306.204313 
L 657.119659 -306.09534 
L 658.144714 -305.987624 
L 659.169768 -305.8919 
L 660.194823 -305.815041 
L 661.219877 -305.758594 
L 662.244932 -305.717814 
L 663.269987 -305.681386 
L 664.295041 -305.631995 
L 665.320096 -305.547843 
L 666.34515 -305.405077 
L 667.370205 -305.180912 
L 668.39526 -304.857062 
L 669.420314 -304.422926 
L 670.445369 -303.877936 
L 671.470424 -303.232566 
L 672.495478 -302.507692 
L 673.520533 -301.732359 
L 674.545587 -300.940294 
L 674.545587 -291.95379 
L 674.545587 -291.95379 
L 673.520533 -291.161724 
L 672.495478 -290.386392 
L 671.470424 -289.661518 
L 670.445369 -289.016147 
L 669.420314 -288.471158 
L 668.39526 -288.037021 
L 667.370205 -287.713172 
L 666.34515 -287.489007 
L 665.320096 -287.34624 
L 664.295041 -287.262089 
L 663.269987 -287.212698 
L 662.244932 -287.17627 
L 661.219877 -287.13549 
L 660.194823 -287.079042 
L 659.169768 -287.002183 
L 658.144714 -286.90646 
L 657.119659 -286.798743 
L 656.094604 -286.68977 
L 655.06955 -286.592398 
L 654.044495 -286.51977 
L 653.01944 -286.483605 
L 651.994386 -286.492769 
L 650.969331 -286.552284 
L 649.944277 -286.66286 
L 648.919222 -286.820935 
L 647.894167 -287.019173 
L 646.869113 -287.247312 
L 645.844058 -287.493216 
L 644.819004 -287.744034 
L 643.793949 -287.987355 
L 642.768894 -288.212293 
L 641.74384 -288.41041 
L 640.718785 -288.576399 
L 639.69373 -288.708461 
L 638.668676 -288.808281 
L 637.643621 -288.880618 
L 636.618567 -288.932524 
L 635.593512 -288.972312 
L 634.568457 -289.008431 
L 633.543403 -289.048407 
L 632.518348 -289.098045 
L 631.493294 -289.16098 
L 630.468239 -289.238643 
L 629.443184 -289.330598 
L 628.41813 -289.435126 
L 627.393075 -289.549911 
L 626.36802 -289.672631 
L 625.342966 -289.801346 
L 624.317911 -289.934629 
L 623.292857 -290.071487 
L 622.267802 -290.21118 
L 621.242747 -290.353088 
L 620.217693 -290.496703 
L 619.192638 -290.64178 
L 618.167584 -290.788577 
L 617.142529 -290.938053 
L 616.117474 -291.091905 
L 615.09242 -291.252344 
L 614.067365 -291.42163 
L 613.04231 -291.60146 
L 612.017256 -291.792371 
L 610.992201 -291.993351 
L 609.967147 -292.201783 
L 608.942092 -292.413793 
L 607.917037 -292.624919 
L 606.891983 -292.830947 
L 605.866928 -293.028707 
L 604.841874 -293.216605 
L 603.816819 -293.394775 
L 602.791764 -293.56482 
L 601.76671 -293.729236 
L 600.741655 -293.890691 
L 599.7166 -294.051367 
L 598.691546 -294.212503 
L 597.666491 -294.37423 
L 596.641437 -294.535678 
L 595.616382 -294.695249 
L 594.591327 -294.850953 
L 593.566273 -295.000698 
L 592.541218 -295.142487 
L 591.516164 -295.27453 
L 590.491109 -295.395312 
L 589.466054 -295.503678 
L 588.441 -295.598949 
L 587.415945 -295.681061 
L 586.39089 -295.750683 
L 585.365836 -295.809235 
L 584.340781 -295.858798 
L 583.315727 -295.90187 
L 582.290672 -295.941041 
L 581.265617 -295.978638 
L 580.240563 -296.016425 
L 579.215508 -296.055415 
L 578.190454 -296.095838 
L 577.165399 -296.137244 
L 576.140344 -296.178707 
L 575.11529 -296.219073 
L 574.090235 -296.257196 
L 573.06518 -296.292117 
z
" id="mc6f4c80388" style="stroke:#424242;"/>
    </defs>
    <g clip-path="url(#p57f687ece2)">
     <use style="fill:#7c78ab;stroke:#424242;" x="0" xlink:href="#mc6f4c80388" y="319.061667"/>
    </g>
   </g>
   <g id="PolyCollection_2">
    <defs>
     <path d="M 572.273443 -270.779739 
L 572.273443 -271.142011 
L 573.308831 -271.173641 
L 574.34422 -271.207398 
L 575.379608 -271.243401 
L 576.414996 -271.281974 
L 577.450384 -271.323641 
L 578.485773 -271.369077 
L 579.521161 -271.419029 
L 580.556549 -271.474207 
L 581.591938 -271.535156 
L 582.627326 -271.602126 
L 583.662714 -271.674969 
L 584.698102 -271.753095 
L 585.733491 -271.835516 
L 586.768879 -271.920987 
L 587.804267 -272.008245 
L 588.839655 -272.096307 
L 589.875044 -272.184772 
L 590.910432 -272.274059 
L 591.94582 -272.36553 
L 592.981208 -272.461444 
L 594.016597 -272.564744 
L 595.051985 -272.678696 
L 596.087373 -272.806436 
L 597.122761 -272.95049 
L 598.15815 -273.11236 
L 599.193538 -273.292217 
L 600.228926 -273.488786 
L 601.264314 -273.699396 
L 602.299703 -273.920213 
L 603.335091 -274.146582 
L 604.370479 -274.373437 
L 605.405867 -274.595698 
L 606.441256 -274.808628 
L 607.476644 -275.008111 
L 608.512032 -275.190857 
L 609.54742 -275.354534 
L 610.582809 -275.497853 
L 611.618197 -275.620593 
L 612.653585 -275.723569 
L 613.688973 -275.808544 
L 614.724362 -275.878084 
L 615.75975 -275.93537 
L 616.795138 -275.983992 
L 617.830526 -276.027742 
L 618.865915 -276.070417 
L 619.901303 -276.115623 
L 620.936691 -276.166569 
L 621.972079 -276.225824 
L 623.007468 -276.295065 
L 624.042856 -276.374822 
L 625.078244 -276.464301 
L 626.113632 -276.561352 
L 627.149021 -276.662633 
L 628.184409 -276.764002 
L 629.219797 -276.861084 
L 630.255185 -276.94993 
L 631.290574 -277.027622 
L 632.325962 -277.092705 
L 633.36135 -277.145329 
L 634.396738 -277.187097 
L 635.432127 -277.220638 
L 636.467515 -277.249025 
L 637.502903 -277.275197 
L 638.538291 -277.301494 
L 639.57368 -277.329438 
L 640.609068 -277.359775 
L 641.644456 -277.392758 
L 642.679844 -277.42858 
L 643.715233 -277.467843 
L 644.750621 -277.511928 
L 645.786009 -277.563204 
L 646.821397 -277.625012 
L 647.856786 -277.701464 
L 648.892174 -277.797127 
L 649.927562 -277.916688 
L 650.96295 -278.064691 
L 651.998339 -278.245385 
L 653.033727 -278.462701 
L 654.069115 -278.720251 
L 655.104503 -279.021279 
L 656.139892 -279.36841 
L 657.17528 -279.763099 
L 658.210668 -280.204721 
L 659.246056 -280.689326 
L 660.281445 -281.208172 
L 661.316833 -281.746273 
L 662.352221 -282.281307 
L 663.387609 -282.783284 
L 664.422998 -283.215395 
L 665.458386 -283.536306 
L 666.493774 -283.703958 
L 667.529162 -283.680535 
L 668.564551 -283.437952 
L 669.599939 -282.96288 
L 670.635327 -282.260259 
L 671.670715 -281.354416 
L 672.706104 -280.287325 
L 673.741492 -279.114149 
L 674.77688 -277.896798 
L 674.77688 -264.024952 
L 674.77688 -264.024952 
L 673.741492 -262.807601 
L 672.706104 -261.634425 
L 671.670715 -260.567334 
L 670.635327 -259.661491 
L 669.599939 -258.95887 
L 668.564551 -258.483798 
L 667.529162 -258.241215 
L 666.493774 -258.217792 
L 665.458386 -258.385444 
L 664.422998 -258.706355 
L 663.387609 -259.138466 
L 662.352221 -259.640443 
L 661.316833 -260.175477 
L 660.281445 -260.713578 
L 659.246056 -261.232424 
L 658.210668 -261.717029 
L 657.17528 -262.158651 
L 656.139892 -262.55334 
L 655.104503 -262.900471 
L 654.069115 -263.201499 
L 653.033727 -263.459049 
L 651.998339 -263.676365 
L 650.96295 -263.857059 
L 649.927562 -264.005062 
L 648.892174 -264.124623 
L 647.856786 -264.220286 
L 646.821397 -264.296738 
L 645.786009 -264.358546 
L 644.750621 -264.409822 
L 643.715233 -264.453907 
L 642.679844 -264.49317 
L 641.644456 -264.528992 
L 640.609068 -264.561975 
L 639.57368 -264.592312 
L 638.538291 -264.620256 
L 637.502903 -264.646553 
L 636.467515 -264.672725 
L 635.432127 -264.701112 
L 634.396738 -264.734653 
L 633.36135 -264.776421 
L 632.325962 -264.829045 
L 631.290574 -264.894128 
L 630.255185 -264.97182 
L 629.219797 -265.060666 
L 628.184409 -265.157748 
L 627.149021 -265.259117 
L 626.113632 -265.360398 
L 625.078244 -265.457449 
L 624.042856 -265.546928 
L 623.007468 -265.626685 
L 621.972079 -265.695926 
L 620.936691 -265.755181 
L 619.901303 -265.806127 
L 618.865915 -265.851333 
L 617.830526 -265.894008 
L 616.795138 -265.937758 
L 615.75975 -265.98638 
L 614.724362 -266.043666 
L 613.688973 -266.113206 
L 612.653585 -266.198181 
L 611.618197 -266.301157 
L 610.582809 -266.423897 
L 609.54742 -266.567216 
L 608.512032 -266.730893 
L 607.476644 -266.913639 
L 606.441256 -267.113122 
L 605.405867 -267.326052 
L 604.370479 -267.548313 
L 603.335091 -267.775168 
L 602.299703 -268.001537 
L 601.264314 -268.222354 
L 600.228926 -268.432964 
L 599.193538 -268.629533 
L 598.15815 -268.80939 
L 597.122761 -268.97126 
L 596.087373 -269.115314 
L 595.051985 -269.243054 
L 594.016597 -269.357006 
L 592.981208 -269.460306 
L 591.94582 -269.55622 
L 590.910432 -269.647691 
L 589.875044 -269.736978 
L 588.839655 -269.825443 
L 587.804267 -269.913505 
L 586.768879 -270.000763 
L 585.733491 -270.086234 
L 584.698102 -270.168655 
L 583.662714 -270.246781 
L 582.627326 -270.319624 
L 581.591938 -270.386594 
L 580.556549 -270.447543 
L 579.521161 -270.502721 
L 578.485773 -270.552673 
L 577.450384 -270.598109 
L 576.414996 -270.639776 
L 575.379608 -270.678349 
L 574.34422 -270.714352 
L 573.308831 -270.748109 
L 572.273443 -270.779739 
z
" id="me54c38f804" style="stroke:#424242;"/>
    </defs>
    <g clip-path="url(#p57f687ece2)">
     <use style="fill:#be631d;stroke:#424242;" x="0" xlink:href="#me54c38f804" y="319.061667"/>
    </g>
   </g>
   <g id="PolyCollection_3">
    <defs>
     <path d="M 572.780804 -232.280105 
L 572.780804 -233.183145 
L 573.786432 -233.223477 
L 574.792061 -233.263419 
L 575.797689 -233.304238 
L 576.803318 -233.347603 
L 577.808947 -233.395378 
L 578.814575 -233.449374 
L 579.820204 -233.511101 
L 580.825832 -233.581587 
L 581.831461 -233.661276 
L 582.837089 -233.750035 
L 583.842718 -233.847271 
L 584.848347 -233.952123 
L 585.853975 -234.063686 
L 586.859604 -234.181225 
L 587.865232 -234.304317 
L 588.870861 -234.432903 
L 589.876489 -234.567221 
L 590.882118 -234.707651 
L 591.887747 -234.854496 
L 592.893375 -235.007764 
L 593.899004 -235.166995 
L 594.904632 -235.331175 
L 595.910261 -235.498775 
L 596.915889 -235.667902 
L 597.921518 -235.836543 
L 598.927147 -236.002857 
L 599.932775 -236.165462 
L 600.938404 -236.323677 
L 601.944032 -236.477667 
L 602.949661 -236.628493 
L 603.955289 -236.778036 
L 604.960918 -236.92885 
L 605.966547 -237.083942 
L 606.972175 -237.246522 
L 607.977804 -237.419764 
L 608.983432 -237.606577 
L 609.989061 -237.809421 
L 610.994689 -238.030151 
L 612.000318 -238.269896 
L 613.005947 -238.528968 
L 614.011575 -238.806813 
L 615.017204 -239.101997 
L 616.022832 -239.412264 
L 617.028461 -239.734664 
L 618.034089 -240.065757 
L 619.039718 -240.401891 
L 620.045347 -240.739516 
L 621.050975 -241.075485 
L 622.056604 -241.407308 
L 623.062232 -241.733296 
L 624.067861 -242.052576 
L 625.073489 -242.364963 
L 626.079118 -242.67072 
L 627.084747 -242.970246 
L 628.090375 -243.263731 
L 629.096004 -243.550865 
L 630.101632 -243.8306 
L 631.107261 -244.101037 
L 632.112889 -244.359395 
L 633.118518 -244.602088 
L 634.124147 -244.82486 
L 635.129775 -245.022979 
L 636.135404 -245.191446 
L 637.141032 -245.325253 
L 638.146661 -245.419662 
L 639.152289 -245.470534 
L 640.157918 -245.474708 
L 641.163547 -245.430417 
L 642.169175 -245.33771 
L 643.174804 -245.198837 
L 644.180432 -245.018511 
L 645.186061 -244.804 
L 646.191689 -244.564973 
L 647.197318 -244.313096 
L 648.202947 -244.061371 
L 649.208575 -243.823289 
L 650.214204 -243.611868 
L 651.219832 -243.438688 
L 652.225461 -243.313005 
L 653.231089 -243.24102 
L 654.236718 -243.22534 
L 655.242347 -243.264626 
L 656.247975 -243.35342 
L 657.253604 -243.482131 
L 658.259232 -243.637172 
L 659.264861 -243.801294 
L 660.270489 -243.954168 
L 661.276118 -244.073272 
L 662.281747 -244.135145 
L 663.287375 -244.116981 
L 664.293004 -243.998488 
L 665.298632 -243.763829 
L 666.304261 -243.403415 
L 667.309889 -242.915279 
L 668.315518 -242.305776 
L 669.321147 -241.589462 
L 670.326775 -240.788081 
L 671.332404 -239.92878 
L 672.338032 -239.041743 
L 672.338032 -226.421507 
L 672.338032 -226.421507 
L 671.332404 -225.53447 
L 670.326775 -224.675169 
L 669.321147 -223.873788 
L 668.315518 -223.157474 
L 667.309889 -222.547971 
L 666.304261 -222.059835 
L 665.298632 -221.699421 
L 664.293004 -221.464762 
L 663.287375 -221.346269 
L 662.281747 -221.328105 
L 661.276118 -221.389978 
L 660.270489 -221.509082 
L 659.264861 -221.661956 
L 658.259232 -221.826078 
L 657.253604 -221.981119 
L 656.247975 -222.10983 
L 655.242347 -222.198624 
L 654.236718 -222.23791 
L 653.231089 -222.22223 
L 652.225461 -222.150245 
L 651.219832 -222.024562 
L 650.214204 -221.851382 
L 649.208575 -221.639961 
L 648.202947 -221.401879 
L 647.197318 -221.150154 
L 646.191689 -220.898277 
L 645.186061 -220.65925 
L 644.180432 -220.444739 
L 643.174804 -220.264413 
L 642.169175 -220.12554 
L 641.163547 -220.032833 
L 640.157918 -219.988542 
L 639.152289 -219.992716 
L 638.146661 -220.043588 
L 637.141032 -220.137997 
L 636.135404 -220.271804 
L 635.129775 -220.440271 
L 634.124147 -220.63839 
L 633.118518 -220.861162 
L 632.112889 -221.103855 
L 631.107261 -221.362213 
L 630.101632 -221.63265 
L 629.096004 -221.912385 
L 628.090375 -222.199519 
L 627.084747 -222.493004 
L 626.079118 -222.79253 
L 625.073489 -223.098287 
L 624.067861 -223.410674 
L 623.062232 -223.729954 
L 622.056604 -224.055942 
L 621.050975 -224.387765 
L 620.045347 -224.723734 
L 619.039718 -225.061359 
L 618.034089 -225.397493 
L 617.028461 -225.728586 
L 616.022832 -226.050986 
L 615.017204 -226.361253 
L 614.011575 -226.656437 
L 613.005947 -226.934282 
L 612.000318 -227.193354 
L 610.994689 -227.433099 
L 609.989061 -227.653829 
L 608.983432 -227.856673 
L 607.977804 -228.043486 
L 606.972175 -228.216728 
L 605.966547 -228.379308 
L 604.960918 -228.5344 
L 603.955289 -228.685214 
L 602.949661 -228.834757 
L 601.944032 -228.985583 
L 600.938404 -229.139573 
L 599.932775 -229.297788 
L 598.927147 -229.460393 
L 597.921518 -229.626707 
L 596.915889 -229.795348 
L 595.910261 -229.964475 
L 594.904632 -230.132075 
L 593.899004 -230.296255 
L 592.893375 -230.455486 
L 591.887747 -230.608754 
L 590.882118 -230.755599 
L 589.876489 -230.896029 
L 588.870861 -231.030347 
L 587.865232 -231.158933 
L 586.859604 -231.282025 
L 585.853975 -231.399564 
L 584.848347 -231.511127 
L 583.842718 -231.615979 
L 582.837089 -231.713215 
L 581.831461 -231.801974 
L 580.825832 -231.881663 
L 579.820204 -231.952149 
L 578.814575 -232.013876 
L 577.808947 -232.067872 
L 576.803318 -232.115647 
L 575.797689 -232.159012 
L 574.792061 -232.199831 
L 573.786432 -232.239773 
L 572.780804 -232.280105 
z
" id="mbf9439bab2" style="stroke:#424242;"/>
    </defs>
    <g clip-path="url(#p57f687ece2)">
     <use style="fill:#7c78ab;stroke:#424242;" x="0" xlink:href="#mbf9439bab2" y="319.061667"/>
    </g>
   </g>
   <g id="PolyCollection_4">
    <defs>
     <path d="M 557.025426 -206.922901 
L 557.025426 -207.568016 
L 558.173164 -207.599895 
L 559.320902 -207.634095 
L 560.46864 -207.671157 
L 561.616378 -207.711709 
L 562.764116 -207.756441 
L 563.911854 -207.80608 
L 565.059592 -207.861362 
L 566.20733 -207.922999 
L 567.355068 -207.991647 
L 568.502806 -208.067875 
L 569.650544 -208.152124 
L 570.798282 -208.244675 
L 571.94602 -208.345607 
L 573.093758 -208.454767 
L 574.241496 -208.571747 
L 575.389234 -208.695872 
L 576.536972 -208.826208 
L 577.68471 -208.961604 
L 578.832448 -209.10075 
L 579.980186 -209.242267 
L 581.127924 -209.384828 
L 582.275662 -209.527283 
L 583.4234 -209.668802 
L 584.571138 -209.809 
L 585.718876 -209.948043 
L 586.866614 -210.086708 
L 588.014352 -210.226401 
L 589.16209 -210.369101 
L 590.309828 -210.517255 
L 591.457566 -210.673603 
L 592.605304 -210.84096 
L 593.753042 -211.02197 
L 594.90078 -211.218855 
L 596.048518 -211.433179 
L 597.196256 -211.665659 
L 598.343994 -211.916043 
L 599.491732 -212.183055 
L 600.63947 -212.464433 
L 601.787208 -212.757042 
L 602.934946 -213.057044 
L 604.082684 -213.360122 
L 605.230422 -213.661716 
L 606.37816 -213.957262 
L 607.525898 -214.24241 
L 608.673636 -214.513198 
L 609.821374 -214.766198 
L 610.969112 -214.998618 
L 612.11685 -215.208367 
L 613.264588 -215.394111 
L 614.412326 -215.555301 
L 615.560064 -215.692206 
L 616.707802 -215.805926 
L 617.85554 -215.898394 
L 619.003278 -215.972349 
L 620.151016 -216.031263 
L 621.298754 -216.079215 
L 622.446492 -216.120705 
L 623.59423 -216.160403 
L 624.741968 -216.202855 
L 625.889706 -216.25216 
L 627.037444 -216.311659 
L 628.185182 -216.383654 
L 629.33292 -216.469213 
L 630.480658 -216.568062 
L 631.628396 -216.678605 
L 632.776134 -216.798054 
L 633.923872 -216.922672 
L 635.07161 -217.048095 
L 636.219348 -217.169703 
L 637.367086 -217.282997 
L 638.514824 -217.383942 
L 639.662562 -217.469252 
L 640.8103 -217.536578 
L 641.958038 -217.584595 
L 643.105776 -217.612986 
L 644.253514 -217.622333 
L 645.401252 -217.613932 
L 646.54899 -217.589556 
L 647.696728 -217.551189 
L 648.844466 -217.500761 
L 649.992204 -217.439893 
L 651.139942 -217.369674 
L 652.28768 -217.290487 
L 653.435418 -217.201883 
L 654.583156 -217.102514 
L 655.730894 -216.990134 
L 656.878632 -216.86167 
L 658.02637 -216.713365 
L 659.174108 -216.541003 
L 660.321846 -216.340193 
L 661.469584 -216.106719 
L 662.617322 -215.836923 
L 663.76506 -215.528096 
L 664.912798 -215.178845 
L 666.060536 -214.789388 
L 667.208274 -214.36176 
L 668.356012 -213.899878 
L 669.50375 -213.409462 
L 670.651488 -212.897812 
L 670.651488 -201.593104 
L 670.651488 -201.593104 
L 669.50375 -201.081455 
L 668.356012 -200.591039 
L 667.208274 -200.129156 
L 666.060536 -199.701529 
L 664.912798 -199.312072 
L 663.76506 -198.96282 
L 662.617322 -198.653993 
L 661.469584 -198.384198 
L 660.321846 -198.150724 
L 659.174108 -197.949914 
L 658.02637 -197.777552 
L 656.878632 -197.629247 
L 655.730894 -197.500782 
L 654.583156 -197.388402 
L 653.435418 -197.289033 
L 652.28768 -197.200429 
L 651.139942 -197.121243 
L 649.992204 -197.051024 
L 648.844466 -196.990155 
L 647.696728 -196.939727 
L 646.54899 -196.901361 
L 645.401252 -196.876985 
L 644.253514 -196.868584 
L 643.105776 -196.877931 
L 641.958038 -196.906322 
L 640.8103 -196.954339 
L 639.662562 -197.021665 
L 638.514824 -197.106975 
L 637.367086 -197.20792 
L 636.219348 -197.321213 
L 635.07161 -197.442822 
L 633.923872 -197.568245 
L 632.776134 -197.692863 
L 631.628396 -197.812312 
L 630.480658 -197.922855 
L 629.33292 -198.021704 
L 628.185182 -198.107263 
L 627.037444 -198.179258 
L 625.889706 -198.238756 
L 624.741968 -198.288062 
L 623.59423 -198.330513 
L 622.446492 -198.370211 
L 621.298754 -198.411702 
L 620.151016 -198.459654 
L 619.003278 -198.518568 
L 617.85554 -198.592522 
L 616.707802 -198.684991 
L 615.560064 -198.79871 
L 614.412326 -198.935615 
L 613.264588 -199.096806 
L 612.11685 -199.28255 
L 610.969112 -199.492299 
L 609.821374 -199.724719 
L 608.673636 -199.977719 
L 607.525898 -200.248507 
L 606.37816 -200.533654 
L 605.230422 -200.829201 
L 604.082684 -201.130795 
L 602.934946 -201.433873 
L 601.787208 -201.733875 
L 600.63947 -202.026484 
L 599.491732 -202.307862 
L 598.343994 -202.574874 
L 597.196256 -202.825257 
L 596.048518 -203.057738 
L 594.90078 -203.272062 
L 593.753042 -203.468947 
L 592.605304 -203.649957 
L 591.457566 -203.817314 
L 590.309828 -203.973661 
L 589.16209 -204.121816 
L 588.014352 -204.264516 
L 586.866614 -204.404208 
L 585.718876 -204.542874 
L 584.571138 -204.681916 
L 583.4234 -204.822115 
L 582.275662 -204.963634 
L 581.127924 -205.106089 
L 579.980186 -205.248649 
L 578.832448 -205.390167 
L 577.68471 -205.529312 
L 576.536972 -205.664709 
L 575.389234 -205.795045 
L 574.241496 -205.919169 
L 573.093758 -206.036149 
L 571.94602 -206.14531 
L 570.798282 -206.246241 
L 569.650544 -206.338792 
L 568.502806 -206.423042 
L 567.355068 -206.49927 
L 566.20733 -206.567918 
L 565.059592 -206.629554 
L 563.911854 -206.684836 
L 562.764116 -206.734476 
L 561.616378 -206.779208 
L 560.46864 -206.81976 
L 559.320902 -206.856822 
L 558.173164 -206.891022 
L 557.025426 -206.922901 
z
" id="mf3c697ac7e" style="stroke:#424242;"/>
    </defs>
    <g clip-path="url(#p57f687ece2)">
     <use style="fill:#be631d;stroke:#424242;" x="0" xlink:href="#mf3c697ac7e" y="319.061667"/>
    </g>
   </g>
   <g id="PolyCollection_5">
    <defs>
     <path d="M 592.079588 -166.464118 
L 592.079588 -171.568299 
L 592.742909 -171.579473 
L 593.406229 -171.586557 
L 594.069549 -171.589779 
L 594.732869 -171.589423 
L 595.396189 -171.585824 
L 596.05951 -171.579373 
L 596.72283 -171.570513 
L 597.38615 -171.559736 
L 598.04947 -171.547582 
L 598.71279 -171.534635 
L 599.376111 -171.521522 
L 600.039431 -171.508907 
L 600.702751 -171.497487 
L 601.366071 -171.487986 
L 602.029391 -171.481154 
L 602.692711 -171.477758 
L 603.356032 -171.478578 
L 604.019352 -171.484402 
L 604.682672 -171.496016 
L 605.345992 -171.514203 
L 606.009312 -171.539733 
L 606.672633 -171.573357 
L 607.335953 -171.615804 
L 607.999273 -171.667769 
L 608.662593 -171.729909 
L 609.325913 -171.802839 
L 609.989233 -171.887121 
L 610.652554 -171.983263 
L 611.315874 -172.091707 
L 611.979194 -172.212829 
L 612.642514 -172.346932 
L 613.305834 -172.494238 
L 613.969155 -172.654887 
L 614.632475 -172.828933 
L 615.295795 -173.016337 
L 615.959115 -173.216966 
L 616.622435 -173.430594 
L 617.285756 -173.656893 
L 617.949076 -173.895437 
L 618.612396 -174.145703 
L 619.275716 -174.407066 
L 619.939036 -174.678807 
L 620.602356 -174.960109 
L 621.265677 -175.250064 
L 621.928997 -175.547678 
L 622.592317 -175.851871 
L 623.255637 -176.161488 
L 623.918957 -176.475301 
L 624.582278 -176.792023 
L 625.245598 -177.110306 
L 625.908918 -177.428761 
L 626.572238 -177.74596 
L 627.235558 -178.060449 
L 627.898878 -178.370757 
L 628.562199 -178.675408 
L 629.225519 -178.972933 
L 629.888839 -179.261879 
L 630.552159 -179.540822 
L 631.215479 -179.808377 
L 631.8788 -180.063208 
L 632.54212 -180.304043 
L 633.20544 -180.529678 
L 633.86876 -180.738991 
L 634.53208 -180.930948 
L 635.1954 -181.104611 
L 635.858721 -181.259147 
L 636.522041 -181.393831 
L 637.185361 -181.508054 
L 637.848681 -181.601325 
L 638.512001 -181.673272 
L 639.175322 -181.723646 
L 639.838642 -181.752321 
L 640.501962 -181.759292 
L 641.165282 -181.744672 
L 641.828602 -181.708693 
L 642.491923 -181.651696 
L 643.155243 -181.574132 
L 643.818563 -181.476551 
L 644.481883 -181.359598 
L 645.145203 -181.224004 
L 645.808523 -181.07058 
L 646.471844 -180.900209 
L 647.135164 -180.713832 
L 647.798484 -180.512446 
L 648.461804 -180.297091 
L 649.125124 -180.068842 
L 649.788445 -179.828799 
L 650.451765 -179.578083 
L 651.115085 -179.317818 
L 651.778405 -179.049134 
L 652.441725 -178.773153 
L 653.105045 -178.490982 
L 653.768366 -178.203709 
L 654.431686 -177.912397 
L 655.095006 -177.618076 
L 655.758326 -177.321741 
L 656.421646 -177.024347 
L 657.084967 -176.726806 
L 657.748287 -176.429985 
L 657.748287 -161.602432 
L 657.748287 -161.602432 
L 657.084967 -161.30561 
L 656.421646 -161.00807 
L 655.758326 -160.710676 
L 655.095006 -160.414341 
L 654.431686 -160.12002 
L 653.768366 -159.828708 
L 653.105045 -159.541435 
L 652.441725 -159.259264 
L 651.778405 -158.983282 
L 651.115085 -158.714599 
L 650.451765 -158.454334 
L 649.788445 -158.203617 
L 649.125124 -157.963575 
L 648.461804 -157.735326 
L 647.798484 -157.519971 
L 647.135164 -157.318585 
L 646.471844 -157.132208 
L 645.808523 -156.961836 
L 645.145203 -156.808413 
L 644.481883 -156.672819 
L 643.818563 -156.555866 
L 643.155243 -156.458284 
L 642.491923 -156.38072 
L 641.828602 -156.323724 
L 641.165282 -156.287745 
L 640.501962 -156.273125 
L 639.838642 -156.280096 
L 639.175322 -156.308771 
L 638.512001 -156.359145 
L 637.848681 -156.431092 
L 637.185361 -156.524362 
L 636.522041 -156.638586 
L 635.858721 -156.77327 
L 635.1954 -156.927806 
L 634.53208 -157.101469 
L 633.86876 -157.293425 
L 633.20544 -157.502738 
L 632.54212 -157.728374 
L 631.8788 -157.969209 
L 631.215479 -158.22404 
L 630.552159 -158.491595 
L 629.888839 -158.770537 
L 629.225519 -159.059483 
L 628.562199 -159.357008 
L 627.898878 -159.66166 
L 627.235558 -159.971968 
L 626.572238 -160.286456 
L 625.908918 -160.603655 
L 625.245598 -160.922111 
L 624.582278 -161.240394 
L 623.918957 -161.557115 
L 623.255637 -161.870929 
L 622.592317 -162.180546 
L 621.928997 -162.484739 
L 621.265677 -162.782352 
L 620.602356 -163.072308 
L 619.939036 -163.35361 
L 619.275716 -163.62535 
L 618.612396 -163.886714 
L 617.949076 -164.136979 
L 617.285756 -164.375524 
L 616.622435 -164.601823 
L 615.959115 -164.81545 
L 615.295795 -165.01608 
L 614.632475 -165.203484 
L 613.969155 -165.377529 
L 613.305834 -165.538179 
L 612.642514 -165.685485 
L 611.979194 -165.819587 
L 611.315874 -165.94071 
L 610.652554 -166.049154 
L 609.989233 -166.145295 
L 609.325913 -166.229578 
L 608.662593 -166.302507 
L 607.999273 -166.364648 
L 607.335953 -166.416613 
L 606.672633 -166.459059 
L 606.009312 -166.492684 
L 605.345992 -166.518214 
L 604.682672 -166.536401 
L 604.019352 -166.548015 
L 603.356032 -166.553838 
L 602.692711 -166.554659 
L 602.029391 -166.551263 
L 601.366071 -166.544431 
L 600.702751 -166.53493 
L 600.039431 -166.523509 
L 599.376111 -166.510894 
L 598.71279 -166.497782 
L 598.04947 -166.484835 
L 597.38615 -166.472681 
L 596.72283 -166.461904 
L 596.05951 -166.453043 
L 595.396189 -166.446593 
L 594.732869 -166.442994 
L 594.069549 -166.442637 
L 593.406229 -166.44586 
L 592.742909 -166.452944 
L 592.079588 -166.464118 
z
" id="mf5c21db1e5" style="stroke:#424242;"/>
    </defs>
    <g clip-path="url(#p57f687ece2)">
     <use style="fill:#7c78ab;stroke:#424242;" x="0" xlink:href="#mf5c21db1e5" y="319.061667"/>
    </g>
   </g>
   <g id="PolyCollection_6">
    <defs>
     <path d="M 609.847581 -137.869068 
L 609.847581 -149.191015 
L 610.375376 -149.257762 
L 610.90317 -149.323312 
L 611.430964 -149.387642 
L 611.958759 -149.450732 
L 612.486553 -149.512563 
L 613.014347 -149.573119 
L 613.542142 -149.632386 
L 614.069936 -149.690352 
L 614.59773 -149.747007 
L 615.125525 -149.802342 
L 615.653319 -149.856351 
L 616.181114 -149.909029 
L 616.708908 -149.960373 
L 617.236702 -150.010382 
L 617.764497 -150.059055 
L 618.292291 -150.106394 
L 618.820085 -150.152401 
L 619.34788 -150.19708 
L 619.875674 -150.240436 
L 620.403468 -150.282473 
L 620.931263 -150.323198 
L 621.459057 -150.362619 
L 621.986852 -150.400742 
L 622.514646 -150.437576 
L 623.04244 -150.473128 
L 623.570235 -150.507408 
L 624.098029 -150.540423 
L 624.625823 -150.572183 
L 625.153618 -150.602695 
L 625.681412 -150.631969 
L 626.209206 -150.660011 
L 626.737001 -150.68683 
L 627.264795 -150.712432 
L 627.792589 -150.736823 
L 628.320384 -150.76001 
L 628.848178 -150.781998 
L 629.375973 -150.80279 
L 629.903767 -150.82239 
L 630.431561 -150.840801 
L 630.959356 -150.858023 
L 631.48715 -150.874059 
L 632.014944 -150.888906 
L 632.542739 -150.902564 
L 633.070533 -150.915029 
L 633.598327 -150.926299 
L 634.126122 -150.936368 
L 634.653916 -150.94523 
L 635.181711 -150.952879 
L 635.709505 -150.959306 
L 636.237299 -150.964501 
L 636.765094 -150.968456 
L 637.292888 -150.971159 
L 637.820682 -150.972597 
L 638.348477 -150.972757 
L 638.876271 -150.971627 
L 639.404065 -150.96919 
L 639.93186 -150.965432 
L 640.459654 -150.960336 
L 640.987449 -150.953887 
L 641.515243 -150.946065 
L 642.043037 -150.936855 
L 642.570832 -150.926237 
L 643.098626 -150.914194 
L 643.62642 -150.900707 
L 644.154215 -150.885758 
L 644.682009 -150.869327 
L 645.209803 -150.851398 
L 645.737598 -150.83195 
L 646.265392 -150.810968 
L 646.793187 -150.788433 
L 647.320981 -150.764328 
L 647.848775 -150.738638 
L 648.37657 -150.711347 
L 648.904364 -150.68244 
L 649.432158 -150.651904 
L 649.959953 -150.619727 
L 650.487747 -150.585896 
L 651.015541 -150.550404 
L 651.543336 -150.51324 
L 652.07113 -150.474397 
L 652.598924 -150.433872 
L 653.126719 -150.391659 
L 653.654513 -150.347757 
L 654.182308 -150.302166 
L 654.710102 -150.254888 
L 655.237896 -150.205928 
L 655.765691 -150.15529 
L 656.293485 -150.102984 
L 656.821279 -150.049019 
L 657.349074 -149.99341 
L 657.876868 -149.936171 
L 658.404662 -149.877319 
L 658.932457 -149.816875 
L 659.460251 -149.754861 
L 659.988046 -149.691303 
L 660.51584 -149.626226 
L 661.043634 -149.559662 
L 661.571429 -149.491643 
L 662.099223 -149.422203 
L 662.099223 -137.63788 
L 662.099223 -137.63788 
L 661.571429 -137.56844 
L 661.043634 -137.500421 
L 660.51584 -137.433857 
L 659.988046 -137.368781 
L 659.460251 -137.305222 
L 658.932457 -137.243208 
L 658.404662 -137.182764 
L 657.876868 -137.123913 
L 657.349074 -137.066674 
L 656.821279 -137.011064 
L 656.293485 -136.9571 
L 655.765691 -136.904794 
L 655.237896 -136.854156 
L 654.710102 -136.805195 
L 654.182308 -136.757917 
L 653.654513 -136.712326 
L 653.126719 -136.668424 
L 652.598924 -136.626212 
L 652.07113 -136.585686 
L 651.543336 -136.546844 
L 651.015541 -136.50968 
L 650.487747 -136.474187 
L 649.959953 -136.440357 
L 649.432158 -136.408179 
L 648.904364 -136.377643 
L 648.37657 -136.348737 
L 647.848775 -136.321445 
L 647.320981 -136.295755 
L 646.793187 -136.27165 
L 646.265392 -136.249115 
L 645.737598 -136.228133 
L 645.209803 -136.208686 
L 644.682009 -136.190756 
L 644.154215 -136.174326 
L 643.62642 -136.159376 
L 643.098626 -136.145889 
L 642.570832 -136.133846 
L 642.043037 -136.123229 
L 641.515243 -136.114018 
L 640.987449 -136.106197 
L 640.459654 -136.099747 
L 639.93186 -136.094651 
L 639.404065 -136.090893 
L 638.876271 -136.088457 
L 638.348477 -136.087326 
L 637.820682 -136.087487 
L 637.292888 -136.088925 
L 636.765094 -136.091627 
L 636.237299 -136.095582 
L 635.709505 -136.100778 
L 635.181711 -136.107205 
L 634.653916 -136.114853 
L 634.126122 -136.123715 
L 633.598327 -136.133784 
L 633.070533 -136.145054 
L 632.542739 -136.15752 
L 632.014944 -136.171177 
L 631.48715 -136.186025 
L 630.959356 -136.20206 
L 630.431561 -136.219283 
L 629.903767 -136.237694 
L 629.375973 -136.257294 
L 628.848178 -136.278086 
L 628.320384 -136.300073 
L 627.792589 -136.32326 
L 627.264795 -136.347652 
L 626.737001 -136.373254 
L 626.209206 -136.400072 
L 625.681412 -136.428114 
L 625.153618 -136.457388 
L 624.625823 -136.4879 
L 624.098029 -136.51966 
L 623.570235 -136.552676 
L 623.04244 -136.586955 
L 622.514646 -136.622508 
L 621.986852 -136.659341 
L 621.459057 -136.697464 
L 620.931263 -136.736885 
L 620.403468 -136.77761 
L 619.875674 -136.819648 
L 619.34788 -136.863003 
L 618.820085 -136.907682 
L 618.292291 -136.953689 
L 617.764497 -137.001028 
L 617.236702 -137.049701 
L 616.708908 -137.09971 
L 616.181114 -137.151054 
L 615.653319 -137.203733 
L 615.125525 -137.257741 
L 614.59773 -137.313076 
L 614.069936 -137.369731 
L 613.542142 -137.427697 
L 613.014347 -137.486964 
L 612.486553 -137.54752 
L 611.958759 -137.609352 
L 611.430964 -137.672441 
L 610.90317 -137.736771 
L 610.375376 -137.802321 
L 609.847581 -137.869068 
z
" id="m0fbf2fc239" style="stroke:#424242;"/>
    </defs>
    <g clip-path="url(#p57f687ece2)">
     <use style="fill:#be631d;stroke:#424242;" x="0" xlink:href="#m0fbf2fc239" y="319.061667"/>
    </g>
   </g>
   <g id="patch_86">
    <path clip-path="url(#p57f687ece2)" d="M 442.787444 35.357708 
L 442.787444 35.357708 
L 442.787444 35.357708 
L 442.787444 35.357708 
z
" style="fill:#7c78ab;stroke:#424242;stroke-linejoin:miter;stroke-width:0.5;"/>
   </g>
   <g id="patch_87">
    <path clip-path="url(#p57f687ece2)" d="M 442.787444 35.357708 
L 442.787444 35.357708 
L 442.787444 35.357708 
L 442.787444 35.357708 
z
" style="fill:#be631d;stroke:#424242;stroke-linejoin:miter;stroke-width:0.5;"/>
   </g>
   <g id="matplotlib.axis_3">
    <g id="xtick_5">
     <g id="line2d_9">
      <g>
       <use style="stroke:#000000;stroke-width:1.6;" x="442.787444" xlink:href="#mfc13482bbe" y="258.361667"/>
      </g>
     </g>
     <g id="text_10">
      <!-- 0.0 -->
      <g transform="translate(426.884319 288.258542)scale(0.2 -0.2)">
       <use xlink:href="#DejaVuSans-48"/>
       <use x="63.623047" xlink:href="#DejaVuSans-46"/>
       <use x="95.410156" xlink:href="#DejaVuSans-48"/>
      </g>
     </g>
    </g>
    <g id="xtick_6">
     <g id="line2d_10">
      <g>
       <use style="stroke:#000000;stroke-width:1.6;" x="510.750556" xlink:href="#mfc13482bbe" y="258.361667"/>
      </g>
     </g>
     <g id="text_11">
      <!-- 0.2 -->
      <g transform="translate(494.847431 288.258542)scale(0.2 -0.2)">
       <use xlink:href="#DejaVuSans-48"/>
       <use x="63.623047" xlink:href="#DejaVuSans-46"/>
       <use x="95.410156" xlink:href="#DejaVuSans-50"/>
      </g>
     </g>
    </g>
    <g id="xtick_7">
     <g id="line2d_11">
      <g>
       <use style="stroke:#000000;stroke-width:1.6;" x="578.713667" xlink:href="#mfc13482bbe" y="258.361667"/>
      </g>
     </g>
     <g id="text_12">
      <!-- 0.4 -->
      <g transform="translate(562.810542 288.258542)scale(0.2 -0.2)">
       <use xlink:href="#DejaVuSans-48"/>
       <use x="63.623047" xlink:href="#DejaVuSans-46"/>
       <use x="95.410156" xlink:href="#DejaVuSans-52"/>
      </g>
     </g>
    </g>
    <g id="xtick_8">
     <g id="line2d_12">
      <g>
       <use style="stroke:#000000;stroke-width:1.6;" x="646.676778" xlink:href="#mfc13482bbe" y="258.361667"/>
      </g>
     </g>
     <g id="text_13">
      <!-- 0.6 -->
      <g transform="translate(630.773653 288.258542)scale(0.2 -0.2)">
       <use xlink:href="#DejaVuSans-48"/>
       <use x="63.623047" xlink:href="#DejaVuSans-46"/>
       <use x="95.410156" xlink:href="#DejaVuSans-54"/>
      </g>
     </g>
    </g>
    <g id="text_14">
     <!-- Max JS Divergence within $\epsilon$ -->
     <g transform="translate(417.6275 311.617917)scale(0.2 -0.2)">
      <use transform="translate(0 0.015625)" xlink:href="#DejaVuSans-77"/>
      <use transform="translate(86.279297 0.015625)" xlink:href="#DejaVuSans-97"/>
      <use transform="translate(147.558594 0.015625)" xlink:href="#DejaVuSans-120"/>
      <use transform="translate(206.738281 0.015625)" xlink:href="#DejaVuSans-32"/>
      <use transform="translate(238.525391 0.015625)" xlink:href="#DejaVuSans-74"/>
      <use transform="translate(268.017578 0.015625)" xlink:href="#DejaVuSans-83"/>
      <use transform="translate(331.494141 0.015625)" xlink:href="#DejaVuSans-32"/>
      <use transform="translate(363.28125 0.015625)" xlink:href="#DejaVuSans-68"/>
      <use transform="translate(440.283203 0.015625)" xlink:href="#DejaVuSans-105"/>
      <use transform="translate(468.066406 0.015625)" xlink:href="#DejaVuSans-118"/>
      <use transform="translate(527.246094 0.015625)" xlink:href="#DejaVuSans-101"/>
      <use transform="translate(588.769531 0.015625)" xlink:href="#DejaVuSans-114"/>
      <use transform="translate(629.882812 0.015625)" xlink:href="#DejaVuSans-103"/>
      <use transform="translate(693.359375 0.015625)" xlink:href="#DejaVuSans-101"/>
      <use transform="translate(754.882812 0.015625)" xlink:href="#DejaVuSans-110"/>
      <use transform="translate(818.261719 0.015625)" xlink:href="#DejaVuSans-99"/>
      <use transform="translate(873.242188 0.015625)" xlink:href="#DejaVuSans-101"/>
      <use transform="translate(934.765625 0.015625)" xlink:href="#DejaVuSans-32"/>
      <use transform="translate(966.552734 0.015625)" xlink:href="#DejaVuSans-119"/>
      <use transform="translate(1048.339844 0.015625)" xlink:href="#DejaVuSans-105"/>
      <use transform="translate(1076.123047 0.015625)" xlink:href="#DejaVuSans-116"/>
      <use transform="translate(1115.332031 0.015625)" xlink:href="#DejaVuSans-104"/>
      <use transform="translate(1178.710938 0.015625)" xlink:href="#DejaVuSans-105"/>
      <use transform="translate(1206.494141 0.015625)" xlink:href="#DejaVuSans-110"/>
      <use transform="translate(1269.873047 0.015625)" xlink:href="#DejaVuSans-32"/>
      <use transform="translate(1301.660156 0.015625)" xlink:href="#DejaVuSans-Oblique-949"/>
     </g>
    </g>
   </g>
   <g id="matplotlib.axis_4">
    <g id="ytick_5">
     <g id="line2d_13">
      <g>
       <use style="stroke:#000000;stroke-width:1.6;" x="425.796667" xlink:href="#m80d1e57c78" y="35.357708"/>
      </g>
     </g>
     <g id="text_15">
      <!-- [0.00, -->
      <defs>
       <path d="M 8.59375 75.984375 
L 29.296875 75.984375 
L 29.296875 69 
L 17.578125 69 
L 17.578125 -6.203125 
L 29.296875 -6.203125 
L 29.296875 -13.1875 
L 8.59375 -13.1875 
z
" id="DejaVuSans-91"/>
       <path d="M 11.71875 12.40625 
L 22.015625 12.40625 
L 22.015625 4 
L 14.015625 -11.625 
L 7.71875 -11.625 
L 11.71875 4 
z
" id="DejaVuSans-44"/>
      </defs>
      <g transform="translate(352.406042 31.758333)scale(0.2 -0.2)">
       <use xlink:href="#DejaVuSans-91"/>
       <use x="39.013672" xlink:href="#DejaVuSans-48"/>
       <use x="102.636719" xlink:href="#DejaVuSans-46"/>
       <use x="134.423828" xlink:href="#DejaVuSans-48"/>
       <use x="198.046875" xlink:href="#DejaVuSans-48"/>
       <use x="261.669922" xlink:href="#DejaVuSans-44"/>
      </g>
      <!-- 0.25) -->
      <defs>
       <path d="M 8.015625 75.875 
L 15.828125 75.875 
Q 23.140625 64.359375 26.78125 53.3125 
Q 30.421875 42.28125 30.421875 31.390625 
Q 30.421875 20.453125 26.78125 9.375 
Q 23.140625 -1.703125 15.828125 -13.1875 
L 8.015625 -13.1875 
Q 14.5 -2 17.703125 9.0625 
Q 20.90625 20.125 20.90625 31.390625 
Q 20.90625 42.671875 17.703125 53.65625 
Q 14.5 64.65625 8.015625 75.875 
z
" id="DejaVuSans-41"/>
      </defs>
      <g transform="translate(358.762292 54.153958)scale(0.2 -0.2)">
       <use xlink:href="#DejaVuSans-48"/>
       <use x="63.623047" xlink:href="#DejaVuSans-46"/>
       <use x="95.410156" xlink:href="#DejaVuSans-50"/>
       <use x="159.033203" xlink:href="#DejaVuSans-53"/>
       <use x="222.65625" xlink:href="#DejaVuSans-41"/>
      </g>
     </g>
    </g>
    <g id="ytick_6">
     <g id="line2d_14">
      <g>
       <use style="stroke:#000000;stroke-width:1.6;" x="425.796667" xlink:href="#m80d1e57c78" y="99.073125"/>
      </g>
     </g>
     <g id="text_16">
      <!-- [0.25, -->
      <g transform="translate(352.406042 95.47375)scale(0.2 -0.2)">
       <use xlink:href="#DejaVuSans-91"/>
       <use x="39.013672" xlink:href="#DejaVuSans-48"/>
       <use x="102.636719" xlink:href="#DejaVuSans-46"/>
       <use x="134.423828" xlink:href="#DejaVuSans-50"/>
       <use x="198.046875" xlink:href="#DejaVuSans-53"/>
       <use x="261.669922" xlink:href="#DejaVuSans-44"/>
      </g>
      <!-- 0.50) -->
      <g transform="translate(358.762292 117.869375)scale(0.2 -0.2)">
       <use xlink:href="#DejaVuSans-48"/>
       <use x="63.623047" xlink:href="#DejaVuSans-46"/>
       <use x="95.410156" xlink:href="#DejaVuSans-53"/>
       <use x="159.033203" xlink:href="#DejaVuSans-48"/>
       <use x="222.65625" xlink:href="#DejaVuSans-41"/>
      </g>
     </g>
    </g>
    <g id="ytick_7">
     <g id="line2d_15">
      <g>
       <use style="stroke:#000000;stroke-width:1.6;" x="425.796667" xlink:href="#m80d1e57c78" y="162.788542"/>
      </g>
     </g>
     <g id="text_17">
      <!-- [0.50, -->
      <g transform="translate(352.406042 159.189167)scale(0.2 -0.2)">
       <use xlink:href="#DejaVuSans-91"/>
       <use x="39.013672" xlink:href="#DejaVuSans-48"/>
       <use x="102.636719" xlink:href="#DejaVuSans-46"/>
       <use x="134.423828" xlink:href="#DejaVuSans-53"/>
       <use x="198.046875" xlink:href="#DejaVuSans-48"/>
       <use x="261.669922" xlink:href="#DejaVuSans-44"/>
      </g>
      <!-- 0.75) -->
      <defs>
       <path d="M 8.203125 72.90625 
L 55.078125 72.90625 
L 55.078125 68.703125 
L 28.609375 0 
L 18.3125 0 
L 43.21875 64.59375 
L 8.203125 64.59375 
z
" id="DejaVuSans-55"/>
      </defs>
      <g transform="translate(358.762292 181.584792)scale(0.2 -0.2)">
       <use xlink:href="#DejaVuSans-48"/>
       <use x="63.623047" xlink:href="#DejaVuSans-46"/>
       <use x="95.410156" xlink:href="#DejaVuSans-55"/>
       <use x="159.033203" xlink:href="#DejaVuSans-53"/>
       <use x="222.65625" xlink:href="#DejaVuSans-41"/>
      </g>
     </g>
    </g>
    <g id="ytick_8">
     <g id="line2d_16">
      <g>
       <use style="stroke:#000000;stroke-width:1.6;" x="425.796667" xlink:href="#m80d1e57c78" y="226.503958"/>
      </g>
     </g>
     <g id="text_18">
      <!-- [0.75, -->
      <g transform="translate(352.406042 222.904583)scale(0.2 -0.2)">
       <use xlink:href="#DejaVuSans-91"/>
       <use x="39.013672" xlink:href="#DejaVuSans-48"/>
       <use x="102.636719" xlink:href="#DejaVuSans-46"/>
       <use x="134.423828" xlink:href="#DejaVuSans-55"/>
       <use x="198.046875" xlink:href="#DejaVuSans-53"/>
       <use x="261.669922" xlink:href="#DejaVuSans-44"/>
      </g>
      <!-- 1.00) -->
      <g transform="translate(358.762292 245.300208)scale(0.2 -0.2)">
       <use xlink:href="#DejaVuSans-49"/>
       <use x="63.623047" xlink:href="#DejaVuSans-46"/>
       <use x="95.410156" xlink:href="#DejaVuSans-48"/>
       <use x="159.033203" xlink:href="#DejaVuSans-48"/>
       <use x="222.65625" xlink:href="#DejaVuSans-41"/>
      </g>
     </g>
    </g>
    <g id="text_19">
     <!-- Max Attention -->
     <defs>
      <path d="M 34.1875 63.1875 
L 20.796875 26.90625 
L 47.609375 26.90625 
z
M 28.609375 72.90625 
L 39.796875 72.90625 
L 67.578125 0 
L 57.328125 0 
L 50.6875 18.703125 
L 17.828125 18.703125 
L 11.1875 0 
L 0.78125 0 
z
" id="DejaVuSans-65"/>
      <path d="M 30.609375 48.390625 
Q 23.390625 48.390625 19.1875 42.75 
Q 14.984375 37.109375 14.984375 27.296875 
Q 14.984375 17.484375 19.15625 11.84375 
Q 23.34375 6.203125 30.609375 6.203125 
Q 37.796875 6.203125 41.984375 11.859375 
Q 46.1875 17.53125 46.1875 27.296875 
Q 46.1875 37.015625 41.984375 42.703125 
Q 37.796875 48.390625 30.609375 48.390625 
z
M 30.609375 56 
Q 42.328125 56 49.015625 48.375 
Q 55.71875 40.765625 55.71875 27.296875 
Q 55.71875 13.875 49.015625 6.21875 
Q 42.328125 -1.421875 30.609375 -1.421875 
Q 18.84375 -1.421875 12.171875 6.21875 
Q 5.515625 13.875 5.515625 27.296875 
Q 5.515625 40.765625 12.171875 48.375 
Q 18.84375 56 30.609375 56 
z
" id="DejaVuSans-111"/>
     </defs>
     <g transform="translate(344.246667 201.108958)rotate(-90)scale(0.2 -0.2)">
      <use xlink:href="#DejaVuSans-77"/>
      <use x="86.279297" xlink:href="#DejaVuSans-97"/>
      <use x="147.558594" xlink:href="#DejaVuSans-120"/>
      <use x="206.738281" xlink:href="#DejaVuSans-32"/>
      <use x="238.525391" xlink:href="#DejaVuSans-65"/>
      <use x="306.917969" xlink:href="#DejaVuSans-116"/>
      <use x="346.126953" xlink:href="#DejaVuSans-116"/>
      <use x="385.335938" xlink:href="#DejaVuSans-101"/>
      <use x="446.859375" xlink:href="#DejaVuSans-110"/>
      <use x="510.238281" xlink:href="#DejaVuSans-116"/>
      <use x="549.447266" xlink:href="#DejaVuSans-105"/>
      <use x="577.230469" xlink:href="#DejaVuSans-111"/>
      <use x="638.412109" xlink:href="#DejaVuSans-110"/>
     </g>
    </g>
   </g>
   <g id="line2d_17">
    <path clip-path="url(#p57f687ece2)" style="fill:none;stroke:#424242;stroke-dasharray:1.5,1.5;stroke-dashoffset:0;"/>
   </g>
   <g id="line2d_18">
    <path clip-path="url(#p57f687ece2)" style="fill:none;stroke:#424242;stroke-dasharray:3,3;stroke-dashoffset:0;"/>
   </g>
   <g id="line2d_19">
    <path clip-path="url(#p57f687ece2)" style="fill:none;stroke:#424242;stroke-dasharray:1.5,1.5;stroke-dashoffset:0;"/>
   </g>
   <g id="line2d_20">
    <path clip-path="url(#p57f687ece2)" style="fill:none;stroke:#424242;stroke-dasharray:1.5,1.5;stroke-dashoffset:0;"/>
   </g>
   <g id="line2d_21">
    <path clip-path="url(#p57f687ece2)" style="fill:none;stroke:#424242;stroke-dasharray:3,3;stroke-dashoffset:0;"/>
   </g>
   <g id="line2d_22">
    <path clip-path="url(#p57f687ece2)" style="fill:none;stroke:#424242;stroke-dasharray:1.5,1.5;stroke-dashoffset:0;"/>
   </g>
   <g id="line2d_23">
    <path clip-path="url(#p57f687ece2)" style="fill:none;stroke:#424242;stroke-dasharray:1.5,1.5;stroke-dashoffset:0;"/>
   </g>
   <g id="line2d_24">
    <path clip-path="url(#p57f687ece2)" style="fill:none;stroke:#424242;stroke-dasharray:3,3;stroke-dashoffset:0;"/>
   </g>
   <g id="line2d_25">
    <path clip-path="url(#p57f687ece2)" style="fill:none;stroke:#424242;stroke-dasharray:1.5,1.5;stroke-dashoffset:0;"/>
   </g>
   <g id="line2d_26">
    <path clip-path="url(#p57f687ece2)" style="fill:none;stroke:#424242;stroke-dasharray:1.5,1.5;stroke-dashoffset:0;"/>
   </g>
   <g id="line2d_27">
    <path clip-path="url(#p57f687ece2)" style="fill:none;stroke:#424242;stroke-dasharray:3,3;stroke-dashoffset:0;"/>
   </g>
   <g id="line2d_28">
    <path clip-path="url(#p57f687ece2)" style="fill:none;stroke:#424242;stroke-dasharray:1.5,1.5;stroke-dashoffset:0;"/>
   </g>
   <g id="line2d_29">
    <path clip-path="url(#p57f687ece2)" style="fill:none;stroke:#424242;stroke-dasharray:1.5,1.5;stroke-dashoffset:0;"/>
   </g>
   <g id="line2d_30">
    <path clip-path="url(#p57f687ece2)" style="fill:none;stroke:#424242;stroke-dasharray:3,3;stroke-dashoffset:0;"/>
   </g>
   <g id="line2d_31">
    <path clip-path="url(#p57f687ece2)" style="fill:none;stroke:#424242;stroke-dasharray:1.5,1.5;stroke-dashoffset:0;"/>
   </g>
   <g id="line2d_32">
    <path clip-path="url(#p57f687ece2)" style="fill:none;stroke:#424242;stroke-dasharray:1.5,1.5;stroke-dashoffset:0;"/>
   </g>
   <g id="line2d_33">
    <path clip-path="url(#p57f687ece2)" style="fill:none;stroke:#424242;stroke-dasharray:3,3;stroke-dashoffset:0;"/>
   </g>
   <g id="line2d_34">
    <path clip-path="url(#p57f687ece2)" style="fill:none;stroke:#424242;stroke-dasharray:1.5,1.5;stroke-dashoffset:0;"/>
   </g>
   <g id="patch_88">
    <path style="fill:none;stroke:#000000;stroke-linecap:square;stroke-linejoin:miter;stroke-width:0.8;"/>
   </g>
   <g id="patch_89">
    <path style="fill:none;stroke:#000000;stroke-linecap:square;stroke-linejoin:miter;stroke-width:0.8;"/>
   </g>
  </g>
 </g>
 <defs>
  <clipPath id="p74780ad686">
   <rect height="254.861667" width="254.861667" x="59.575" y="3.5"/>
  </clipPath>
  <clipPath id="p57f687ece2">
   <rect height="254.861667" width="254.861667" x="425.796667" y="3.5"/>
  </clipPath>
 </defs>
</svg>
