<?xml version="1.0" encoding="utf-8" standalone="no"?>
<!DOCTYPE svg PUBLIC "-//W3C//DTD SVG 1.1//EN"
  "http://www.w3.org/Graphics/SVG/1.1/DTD/svg11.dtd">
<!-- Created with matplotlib (https://matplotlib.org/) -->
<svg height="319.847195pt" version="1.1" viewBox="0 0 323.226536 319.847195" width="323.226536pt" xmlns="http://www.w3.org/2000/svg" xmlns:xlink="http://www.w3.org/1999/xlink">
 <defs>
  <style type="text/css">
*{stroke-linecap:butt;stroke-linejoin:round;}
  </style>
 </defs>
 <g id="figure_1">
  <g id="patch_1">
   <path d="M 0 319.847195 
L 323.226536 319.847195 
L 323.226536 0 
L 0 0 
z
" style="fill:#ffffff;"/>
  </g>
  <g id="axes_1">
   <g id="patch_2">
    <path d="M 59.575 259.147195 
L 314.436667 259.147195 
L 314.436667 4.285529 
L 59.575 4.285529 
z
" style="fill:#ffffff;"/>
   </g>
   <g id="patch_3">
    <path clip-path="url(#p631f46a9b5)" d="M 71.159621 259.147195 
L 76.951932 259.147195 
L 76.951932 259.147195 
L 71.159621 259.147195 
z
" style="fill:#43406b;opacity:0.6;stroke:#000000;stroke-linejoin:miter;stroke-width:0.5;"/>
   </g>
   <g id="patch_4">
    <path clip-path="url(#p631f46a9b5)" d="M 76.951932 259.147195 
L 82.744242 259.147195 
L 82.744242 259.147195 
L 76.951932 259.147195 
z
" style="fill:#43406b;opacity:0.6;stroke:#000000;stroke-linejoin:miter;stroke-width:0.5;"/>
   </g>
   <g id="patch_5">
    <path clip-path="url(#p631f46a9b5)" d="M 82.744242 259.147195 
L 88.536553 259.147195 
L 88.536553 259.147195 
L 82.744242 259.147195 
z
" style="fill:#43406b;opacity:0.6;stroke:#000000;stroke-linejoin:miter;stroke-width:0.5;"/>
   </g>
   <g id="patch_6">
    <path clip-path="url(#p631f46a9b5)" d="M 88.536553 259.147195 
L 94.328864 259.147195 
L 94.328864 259.147195 
L 88.536553 259.147195 
z
" style="fill:#43406b;opacity:0.6;stroke:#000000;stroke-linejoin:miter;stroke-width:0.5;"/>
   </g>
   <g id="patch_7">
    <path clip-path="url(#p631f46a9b5)" d="M 94.328864 259.147195 
L 100.121174 259.147195 
L 100.121174 259.147195 
L 94.328864 259.147195 
z
" style="fill:#43406b;opacity:0.6;stroke:#000000;stroke-linejoin:miter;stroke-width:0.5;"/>
   </g>
   <g id="patch_8">
    <path clip-path="url(#p631f46a9b5)" d="M 100.121174 259.147195 
L 105.913485 259.147195 
L 105.913485 259.147195 
L 100.121174 259.147195 
z
" style="fill:#43406b;opacity:0.6;stroke:#000000;stroke-linejoin:miter;stroke-width:0.5;"/>
   </g>
   <g id="patch_9">
    <path clip-path="url(#p631f46a9b5)" d="M 105.913485 259.147195 
L 111.705795 259.147195 
L 111.705795 259.147195 
L 105.913485 259.147195 
z
" style="fill:#43406b;opacity:0.6;stroke:#000000;stroke-linejoin:miter;stroke-width:0.5;"/>
   </g>
   <g id="patch_10">
    <path clip-path="url(#p631f46a9b5)" d="M 111.705795 259.147195 
L 117.498106 259.147195 
L 117.498106 259.147195 
L 111.705795 259.147195 
z
" style="fill:#43406b;opacity:0.6;stroke:#000000;stroke-linejoin:miter;stroke-width:0.5;"/>
   </g>
   <g id="patch_11">
    <path clip-path="url(#p631f46a9b5)" d="M 117.498106 259.147195 
L 123.290417 259.147195 
L 123.290417 259.147195 
L 117.498106 259.147195 
z
" style="fill:#43406b;opacity:0.6;stroke:#000000;stroke-linejoin:miter;stroke-width:0.5;"/>
   </g>
   <g id="patch_12">
    <path clip-path="url(#p631f46a9b5)" d="M 123.290417 259.147195 
L 129.082727 259.147195 
L 129.082727 259.147195 
L 123.290417 259.147195 
z
" style="fill:#43406b;opacity:0.6;stroke:#000000;stroke-linejoin:miter;stroke-width:0.5;"/>
   </g>
   <g id="patch_13">
    <path clip-path="url(#p631f46a9b5)" d="M 129.082727 259.147195 
L 134.875038 259.147195 
L 134.875038 259.147195 
L 129.082727 259.147195 
z
" style="fill:#43406b;opacity:0.6;stroke:#000000;stroke-linejoin:miter;stroke-width:0.5;"/>
   </g>
   <g id="patch_14">
    <path clip-path="url(#p631f46a9b5)" d="M 134.875038 259.147195 
L 140.667348 259.147195 
L 140.667348 259.147195 
L 134.875038 259.147195 
z
" style="fill:#43406b;opacity:0.6;stroke:#000000;stroke-linejoin:miter;stroke-width:0.5;"/>
   </g>
   <g id="patch_15">
    <path clip-path="url(#p631f46a9b5)" d="M 140.667348 259.147195 
L 146.459659 259.147195 
L 146.459659 259.147195 
L 140.667348 259.147195 
z
" style="fill:#43406b;opacity:0.6;stroke:#000000;stroke-linejoin:miter;stroke-width:0.5;"/>
   </g>
   <g id="patch_16">
    <path clip-path="url(#p631f46a9b5)" d="M 146.459659 259.147195 
L 152.25197 259.147195 
L 152.25197 259.147195 
L 146.459659 259.147195 
z
" style="fill:#43406b;opacity:0.6;stroke:#000000;stroke-linejoin:miter;stroke-width:0.5;"/>
   </g>
   <g id="patch_17">
    <path clip-path="url(#p631f46a9b5)" d="M 152.25197 259.147195 
L 158.04428 259.147195 
L 158.04428 259.147195 
L 152.25197 259.147195 
z
" style="fill:#43406b;opacity:0.6;stroke:#000000;stroke-linejoin:miter;stroke-width:0.5;"/>
   </g>
   <g id="patch_18">
    <path clip-path="url(#p631f46a9b5)" d="M 158.04428 259.147195 
L 163.836591 259.147195 
L 163.836591 257.808646 
L 158.04428 257.808646 
z
" style="fill:#43406b;opacity:0.6;stroke:#000000;stroke-linejoin:miter;stroke-width:0.5;"/>
   </g>
   <g id="patch_19">
    <path clip-path="url(#p631f46a9b5)" d="M 163.836591 259.147195 
L 169.628902 259.147195 
L 169.628902 259.147195 
L 163.836591 259.147195 
z
" style="fill:#43406b;opacity:0.6;stroke:#000000;stroke-linejoin:miter;stroke-width:0.5;"/>
   </g>
   <g id="patch_20">
    <path clip-path="url(#p631f46a9b5)" d="M 169.628902 259.147195 
L 175.421212 259.147195 
L 175.421212 257.808646 
L 169.628902 257.808646 
z
" style="fill:#43406b;opacity:0.6;stroke:#000000;stroke-linejoin:miter;stroke-width:0.5;"/>
   </g>
   <g id="patch_21">
    <path clip-path="url(#p631f46a9b5)" d="M 175.421212 259.147195 
L 181.213523 259.147195 
L 181.213523 255.131548 
L 175.421212 255.131548 
z
" style="fill:#43406b;opacity:0.6;stroke:#000000;stroke-linejoin:miter;stroke-width:0.5;"/>
   </g>
   <g id="patch_22">
    <path clip-path="url(#p631f46a9b5)" d="M 181.213523 259.147195 
L 187.005833 259.147195 
L 187.005833 257.808646 
L 181.213523 257.808646 
z
" style="fill:#43406b;opacity:0.6;stroke:#000000;stroke-linejoin:miter;stroke-width:0.5;"/>
   </g>
   <g id="patch_23">
    <path clip-path="url(#p631f46a9b5)" d="M 187.005833 259.147195 
L 192.798144 259.147195 
L 192.798144 251.115902 
L 187.005833 251.115902 
z
" style="fill:#43406b;opacity:0.6;stroke:#000000;stroke-linejoin:miter;stroke-width:0.5;"/>
   </g>
   <g id="patch_24">
    <path clip-path="url(#p631f46a9b5)" d="M 192.798144 259.147195 
L 198.590455 259.147195 
L 198.590455 247.100255 
L 192.798144 247.100255 
z
" style="fill:#43406b;opacity:0.6;stroke:#000000;stroke-linejoin:miter;stroke-width:0.5;"/>
   </g>
   <g id="patch_25">
    <path clip-path="url(#p631f46a9b5)" d="M 198.590455 259.147195 
L 204.382765 259.147195 
L 204.382765 244.423157 
L 198.590455 244.423157 
z
" style="fill:#43406b;opacity:0.6;stroke:#000000;stroke-linejoin:miter;stroke-width:0.5;"/>
   </g>
   <g id="patch_26">
    <path clip-path="url(#p631f46a9b5)" d="M 204.382765 259.147195 
L 210.175076 259.147195 
L 210.175076 221.667826 
L 204.382765 221.667826 
z
" style="fill:#43406b;opacity:0.6;stroke:#000000;stroke-linejoin:miter;stroke-width:0.5;"/>
   </g>
   <g id="patch_27">
    <path clip-path="url(#p631f46a9b5)" d="M 210.175076 259.147195 
L 215.967386 259.147195 
L 215.967386 213.636532 
L 210.175076 213.636532 
z
" style="fill:#43406b;opacity:0.6;stroke:#000000;stroke-linejoin:miter;stroke-width:0.5;"/>
   </g>
   <g id="patch_28">
    <path clip-path="url(#p631f46a9b5)" d="M 215.967386 259.147195 
L 221.759697 259.147195 
L 221.759697 196.235396 
L 215.967386 196.235396 
z
" style="fill:#43406b;opacity:0.6;stroke:#000000;stroke-linejoin:miter;stroke-width:0.5;"/>
   </g>
   <g id="patch_29">
    <path clip-path="url(#p631f46a9b5)" d="M 221.759697 259.147195 
L 227.552008 259.147195 
L 227.552008 172.141516 
L 221.759697 172.141516 
z
" style="fill:#43406b;opacity:0.6;stroke:#000000;stroke-linejoin:miter;stroke-width:0.5;"/>
   </g>
   <g id="patch_30">
    <path clip-path="url(#p631f46a9b5)" d="M 227.552008 259.147195 
L 233.344318 259.147195 
L 233.344318 170.802967 
L 227.552008 170.802967 
z
" style="fill:#43406b;opacity:0.6;stroke:#000000;stroke-linejoin:miter;stroke-width:0.5;"/>
   </g>
   <g id="patch_31">
    <path clip-path="url(#p631f46a9b5)" d="M 233.344318 259.147195 
L 239.136629 259.147195 
L 239.136629 126.630853 
L 233.344318 126.630853 
z
" style="fill:#43406b;opacity:0.6;stroke:#000000;stroke-linejoin:miter;stroke-width:0.5;"/>
   </g>
   <g id="patch_32">
    <path clip-path="url(#p631f46a9b5)" d="M 239.136629 259.147195 
L 244.928939 259.147195 
L 244.928939 85.135837 
L 239.136629 85.135837 
z
" style="fill:#43406b;opacity:0.6;stroke:#000000;stroke-linejoin:miter;stroke-width:0.5;"/>
   </g>
   <g id="patch_33">
    <path clip-path="url(#p631f46a9b5)" d="M 244.928939 259.147195 
L 250.72125 259.147195 
L 250.72125 82.458739 
L 244.928939 82.458739 
z
" style="fill:#43406b;opacity:0.6;stroke:#000000;stroke-linejoin:miter;stroke-width:0.5;"/>
   </g>
   <g id="patch_34">
    <path clip-path="url(#p631f46a9b5)" d="M 250.72125 259.147195 
L 256.513561 259.147195 
L 256.513561 55.687761 
L 250.72125 55.687761 
z
" style="fill:#43406b;opacity:0.6;stroke:#000000;stroke-linejoin:miter;stroke-width:0.5;"/>
   </g>
   <g id="patch_35">
    <path clip-path="url(#p631f46a9b5)" d="M 256.513561 259.147195 
L 262.305871 259.147195 
L 262.305871 48.995016 
L 256.513561 48.995016 
z
" style="fill:#43406b;opacity:0.6;stroke:#000000;stroke-linejoin:miter;stroke-width:0.5;"/>
   </g>
   <g id="patch_36">
    <path clip-path="url(#p631f46a9b5)" d="M 262.305871 259.147195 
L 268.098182 259.147195 
L 268.098182 42.302272 
L 262.305871 42.302272 
z
" style="fill:#43406b;opacity:0.6;stroke:#000000;stroke-linejoin:miter;stroke-width:0.5;"/>
   </g>
   <g id="patch_37">
    <path clip-path="url(#p631f46a9b5)" d="M 268.098182 259.147195 
L 273.890492 259.147195 
L 273.890492 51.672114 
L 268.098182 51.672114 
z
" style="fill:#43406b;opacity:0.6;stroke:#000000;stroke-linejoin:miter;stroke-width:0.5;"/>
   </g>
   <g id="patch_38">
    <path clip-path="url(#p631f46a9b5)" d="M 273.890492 259.147195 
L 279.682803 259.147195 
L 279.682803 61.041956 
L 273.890492 61.041956 
z
" style="fill:#43406b;opacity:0.6;stroke:#000000;stroke-linejoin:miter;stroke-width:0.5;"/>
   </g>
   <g id="patch_39">
    <path clip-path="url(#p631f46a9b5)" d="M 279.682803 259.147195 
L 285.475114 259.147195 
L 285.475114 27.578234 
L 279.682803 27.578234 
z
" style="fill:#43406b;opacity:0.6;stroke:#000000;stroke-linejoin:miter;stroke-width:0.5;"/>
   </g>
   <g id="patch_40">
    <path clip-path="url(#p631f46a9b5)" d="M 285.475114 259.147195 
L 291.267424 259.147195 
L 291.267424 18.208391 
L 285.475114 18.208391 
z
" style="fill:#43406b;opacity:0.6;stroke:#000000;stroke-linejoin:miter;stroke-width:0.5;"/>
   </g>
   <g id="patch_41">
    <path clip-path="url(#p631f46a9b5)" d="M 291.267424 259.147195 
L 297.059735 259.147195 
L 297.059735 106.552619 
L 291.267424 106.552619 
z
" style="fill:#43406b;opacity:0.6;stroke:#000000;stroke-linejoin:miter;stroke-width:0.5;"/>
   </g>
   <g id="patch_42">
    <path clip-path="url(#p631f46a9b5)" d="M 297.059735 259.147195 
L 302.852045 259.147195 
L 302.852045 251.115902 
L 297.059735 251.115902 
z
" style="fill:#43406b;opacity:0.6;stroke:#000000;stroke-linejoin:miter;stroke-width:0.5;"/>
   </g>
   <g id="patch_43">
    <path clip-path="url(#p631f46a9b5)" d="M 71.159621 259.147195 
L 76.951932 259.147195 
L 76.951932 259.147195 
L 71.159621 259.147195 
z
" style="fill:#d15a00;opacity:0.6;stroke:#000000;stroke-linejoin:miter;stroke-width:0.5;"/>
   </g>
   <g id="patch_44">
    <path clip-path="url(#p631f46a9b5)" d="M 76.951932 259.147195 
L 82.744242 259.147195 
L 82.744242 259.147195 
L 76.951932 259.147195 
z
" style="fill:#d15a00;opacity:0.6;stroke:#000000;stroke-linejoin:miter;stroke-width:0.5;"/>
   </g>
   <g id="patch_45">
    <path clip-path="url(#p631f46a9b5)" d="M 82.744242 259.147195 
L 88.536553 259.147195 
L 88.536553 259.147195 
L 82.744242 259.147195 
z
" style="fill:#d15a00;opacity:0.6;stroke:#000000;stroke-linejoin:miter;stroke-width:0.5;"/>
   </g>
   <g id="patch_46">
    <path clip-path="url(#p631f46a9b5)" d="M 88.536553 259.147195 
L 94.328864 259.147195 
L 94.328864 259.147195 
L 88.536553 259.147195 
z
" style="fill:#d15a00;opacity:0.6;stroke:#000000;stroke-linejoin:miter;stroke-width:0.5;"/>
   </g>
   <g id="patch_47">
    <path clip-path="url(#p631f46a9b5)" d="M 94.328864 259.147195 
L 100.121174 259.147195 
L 100.121174 259.147195 
L 94.328864 259.147195 
z
" style="fill:#d15a00;opacity:0.6;stroke:#000000;stroke-linejoin:miter;stroke-width:0.5;"/>
   </g>
   <g id="patch_48">
    <path clip-path="url(#p631f46a9b5)" d="M 100.121174 259.147195 
L 105.913485 259.147195 
L 105.913485 259.147195 
L 100.121174 259.147195 
z
" style="fill:#d15a00;opacity:0.6;stroke:#000000;stroke-linejoin:miter;stroke-width:0.5;"/>
   </g>
   <g id="patch_49">
    <path clip-path="url(#p631f46a9b5)" d="M 105.913485 259.147195 
L 111.705795 259.147195 
L 111.705795 259.147195 
L 105.913485 259.147195 
z
" style="fill:#d15a00;opacity:0.6;stroke:#000000;stroke-linejoin:miter;stroke-width:0.5;"/>
   </g>
   <g id="patch_50">
    <path clip-path="url(#p631f46a9b5)" d="M 111.705795 259.147195 
L 117.498106 259.147195 
L 117.498106 259.147195 
L 111.705795 259.147195 
z
" style="fill:#d15a00;opacity:0.6;stroke:#000000;stroke-linejoin:miter;stroke-width:0.5;"/>
   </g>
   <g id="patch_51">
    <path clip-path="url(#p631f46a9b5)" d="M 117.498106 259.147195 
L 123.290417 259.147195 
L 123.290417 257.835166 
L 117.498106 257.835166 
z
" style="fill:#d15a00;opacity:0.6;stroke:#000000;stroke-linejoin:miter;stroke-width:0.5;"/>
   </g>
   <g id="patch_52">
    <path clip-path="url(#p631f46a9b5)" d="M 123.290417 259.147195 
L 129.082727 259.147195 
L 129.082727 259.147195 
L 123.290417 259.147195 
z
" style="fill:#d15a00;opacity:0.6;stroke:#000000;stroke-linejoin:miter;stroke-width:0.5;"/>
   </g>
   <g id="patch_53">
    <path clip-path="url(#p631f46a9b5)" d="M 129.082727 259.147195 
L 134.875038 259.147195 
L 134.875038 259.147195 
L 129.082727 259.147195 
z
" style="fill:#d15a00;opacity:0.6;stroke:#000000;stroke-linejoin:miter;stroke-width:0.5;"/>
   </g>
   <g id="patch_54">
    <path clip-path="url(#p631f46a9b5)" d="M 134.875038 259.147195 
L 140.667348 259.147195 
L 140.667348 257.835166 
L 134.875038 257.835166 
z
" style="fill:#d15a00;opacity:0.6;stroke:#000000;stroke-linejoin:miter;stroke-width:0.5;"/>
   </g>
   <g id="patch_55">
    <path clip-path="url(#p631f46a9b5)" d="M 140.667348 259.147195 
L 146.459659 259.147195 
L 146.459659 259.147195 
L 140.667348 259.147195 
z
" style="fill:#d15a00;opacity:0.6;stroke:#000000;stroke-linejoin:miter;stroke-width:0.5;"/>
   </g>
   <g id="patch_56">
    <path clip-path="url(#p631f46a9b5)" d="M 146.459659 259.147195 
L 152.25197 259.147195 
L 152.25197 259.147195 
L 146.459659 259.147195 
z
" style="fill:#d15a00;opacity:0.6;stroke:#000000;stroke-linejoin:miter;stroke-width:0.5;"/>
   </g>
   <g id="patch_57">
    <path clip-path="url(#p631f46a9b5)" d="M 152.25197 259.147195 
L 158.04428 259.147195 
L 158.04428 259.147195 
L 152.25197 259.147195 
z
" style="fill:#d15a00;opacity:0.6;stroke:#000000;stroke-linejoin:miter;stroke-width:0.5;"/>
   </g>
   <g id="patch_58">
    <path clip-path="url(#p631f46a9b5)" d="M 158.04428 259.147195 
L 163.836591 259.147195 
L 163.836591 259.147195 
L 158.04428 259.147195 
z
" style="fill:#d15a00;opacity:0.6;stroke:#000000;stroke-linejoin:miter;stroke-width:0.5;"/>
   </g>
   <g id="patch_59">
    <path clip-path="url(#p631f46a9b5)" d="M 163.836591 259.147195 
L 169.628902 259.147195 
L 169.628902 256.523137 
L 163.836591 256.523137 
z
" style="fill:#d15a00;opacity:0.6;stroke:#000000;stroke-linejoin:miter;stroke-width:0.5;"/>
   </g>
   <g id="patch_60">
    <path clip-path="url(#p631f46a9b5)" d="M 169.628902 259.147195 
L 175.421212 259.147195 
L 175.421212 253.899079 
L 169.628902 253.899079 
z
" style="fill:#d15a00;opacity:0.6;stroke:#000000;stroke-linejoin:miter;stroke-width:0.5;"/>
   </g>
   <g id="patch_61">
    <path clip-path="url(#p631f46a9b5)" d="M 175.421212 259.147195 
L 181.213523 259.147195 
L 181.213523 255.211108 
L 175.421212 255.211108 
z
" style="fill:#d15a00;opacity:0.6;stroke:#000000;stroke-linejoin:miter;stroke-width:0.5;"/>
   </g>
   <g id="patch_62">
    <path clip-path="url(#p631f46a9b5)" d="M 181.213523 259.147195 
L 187.005833 259.147195 
L 187.005833 253.899079 
L 181.213523 253.899079 
z
" style="fill:#d15a00;opacity:0.6;stroke:#000000;stroke-linejoin:miter;stroke-width:0.5;"/>
   </g>
   <g id="patch_63">
    <path clip-path="url(#p631f46a9b5)" d="M 187.005833 259.147195 
L 192.798144 259.147195 
L 192.798144 248.650962 
L 187.005833 248.650962 
z
" style="fill:#d15a00;opacity:0.6;stroke:#000000;stroke-linejoin:miter;stroke-width:0.5;"/>
   </g>
   <g id="patch_64">
    <path clip-path="url(#p631f46a9b5)" d="M 192.798144 259.147195 
L 198.590455 259.147195 
L 198.590455 243.402845 
L 192.798144 243.402845 
z
" style="fill:#d15a00;opacity:0.6;stroke:#000000;stroke-linejoin:miter;stroke-width:0.5;"/>
   </g>
   <g id="patch_65">
    <path clip-path="url(#p631f46a9b5)" d="M 198.590455 259.147195 
L 204.382765 259.147195 
L 204.382765 223.722408 
L 198.590455 223.722408 
z
" style="fill:#d15a00;opacity:0.6;stroke:#000000;stroke-linejoin:miter;stroke-width:0.5;"/>
   </g>
   <g id="patch_66">
    <path clip-path="url(#p631f46a9b5)" d="M 204.382765 259.147195 
L 210.175076 259.147195 
L 210.175076 210.602116 
L 204.382765 210.602116 
z
" style="fill:#d15a00;opacity:0.6;stroke:#000000;stroke-linejoin:miter;stroke-width:0.5;"/>
   </g>
   <g id="patch_67">
    <path clip-path="url(#p631f46a9b5)" d="M 210.175076 259.147195 
L 215.967386 259.147195 
L 215.967386 181.737474 
L 210.175076 181.737474 
z
" style="fill:#d15a00;opacity:0.6;stroke:#000000;stroke-linejoin:miter;stroke-width:0.5;"/>
   </g>
   <g id="patch_68">
    <path clip-path="url(#p631f46a9b5)" d="M 215.967386 259.147195 
L 221.759697 259.147195 
L 221.759697 171.241241 
L 215.967386 171.241241 
z
" style="fill:#d15a00;opacity:0.6;stroke:#000000;stroke-linejoin:miter;stroke-width:0.5;"/>
   </g>
   <g id="patch_69">
    <path clip-path="url(#p631f46a9b5)" d="M 221.759697 259.147195 
L 227.552008 259.147195 
L 227.552008 142.376599 
L 221.759697 142.376599 
z
" style="fill:#d15a00;opacity:0.6;stroke:#000000;stroke-linejoin:miter;stroke-width:0.5;"/>
   </g>
   <g id="patch_70">
    <path clip-path="url(#p631f46a9b5)" d="M 227.552008 259.147195 
L 233.344318 259.147195 
L 233.344318 135.816453 
L 227.552008 135.816453 
z
" style="fill:#d15a00;opacity:0.6;stroke:#000000;stroke-linejoin:miter;stroke-width:0.5;"/>
   </g>
   <g id="patch_71">
    <path clip-path="url(#p631f46a9b5)" d="M 233.344318 259.147195 
L 239.136629 259.147195 
L 239.136629 79.399199 
L 233.344318 79.399199 
z
" style="fill:#d15a00;opacity:0.6;stroke:#000000;stroke-linejoin:miter;stroke-width:0.5;"/>
   </g>
   <g id="patch_72">
    <path clip-path="url(#p631f46a9b5)" d="M 239.136629 259.147195 
L 244.928939 259.147195 
L 244.928939 88.583403 
L 239.136629 88.583403 
z
" style="fill:#d15a00;opacity:0.6;stroke:#000000;stroke-linejoin:miter;stroke-width:0.5;"/>
   </g>
   <g id="patch_73">
    <path clip-path="url(#p631f46a9b5)" d="M 244.928939 259.147195 
L 250.72125 259.147195 
L 250.72125 85.959344 
L 244.928939 85.959344 
z
" style="fill:#d15a00;opacity:0.6;stroke:#000000;stroke-linejoin:miter;stroke-width:0.5;"/>
   </g>
   <g id="patch_74">
    <path clip-path="url(#p631f46a9b5)" d="M 250.72125 259.147195 
L 256.513561 259.147195 
L 256.513561 28.230061 
L 250.72125 28.230061 
z
" style="fill:#d15a00;opacity:0.6;stroke:#000000;stroke-linejoin:miter;stroke-width:0.5;"/>
   </g>
   <g id="patch_75">
    <path clip-path="url(#p631f46a9b5)" d="M 256.513561 259.147195 
L 262.305871 259.147195 
L 262.305871 16.421798 
L 256.513561 16.421798 
z
" style="fill:#d15a00;opacity:0.6;stroke:#000000;stroke-linejoin:miter;stroke-width:0.5;"/>
   </g>
   <g id="patch_76">
    <path clip-path="url(#p631f46a9b5)" d="M 262.305871 259.147195 
L 268.098182 259.147195 
L 268.098182 24.293973 
L 262.305871 24.293973 
z
" style="fill:#d15a00;opacity:0.6;stroke:#000000;stroke-linejoin:miter;stroke-width:0.5;"/>
   </g>
   <g id="patch_77">
    <path clip-path="url(#p631f46a9b5)" d="M 268.098182 259.147195 
L 273.890492 259.147195 
L 273.890492 64.966878 
L 268.098182 64.966878 
z
" style="fill:#d15a00;opacity:0.6;stroke:#000000;stroke-linejoin:miter;stroke-width:0.5;"/>
   </g>
   <g id="patch_78">
    <path clip-path="url(#p631f46a9b5)" d="M 273.890492 259.147195 
L 279.682803 259.147195 
L 279.682803 113.511957 
L 273.890492 113.511957 
z
" style="fill:#d15a00;opacity:0.6;stroke:#000000;stroke-linejoin:miter;stroke-width:0.5;"/>
   </g>
   <g id="patch_79">
    <path clip-path="url(#p631f46a9b5)" d="M 279.682803 259.147195 
L 285.475114 259.147195 
L 285.475114 110.887899 
L 279.682803 110.887899 
z
" style="fill:#d15a00;opacity:0.6;stroke:#000000;stroke-linejoin:miter;stroke-width:0.5;"/>
   </g>
   <g id="patch_80">
    <path clip-path="url(#p631f46a9b5)" d="M 285.475114 259.147195 
L 291.267424 259.147195 
L 291.267424 126.632249 
L 285.475114 126.632249 
z
" style="fill:#d15a00;opacity:0.6;stroke:#000000;stroke-linejoin:miter;stroke-width:0.5;"/>
   </g>
   <g id="patch_81">
    <path clip-path="url(#p631f46a9b5)" d="M 291.267424 259.147195 
L 297.059735 259.147195 
L 297.059735 160.745007 
L 291.267424 160.745007 
z
" style="fill:#d15a00;opacity:0.6;stroke:#000000;stroke-linejoin:miter;stroke-width:0.5;"/>
   </g>
   <g id="patch_82">
    <path clip-path="url(#p631f46a9b5)" d="M 297.059735 259.147195 
L 302.852045 259.147195 
L 302.852045 228.970524 
L 297.059735 228.970524 
z
" style="fill:#d15a00;opacity:0.6;stroke:#000000;stroke-linejoin:miter;stroke-width:0.5;"/>
   </g>
   <g id="matplotlib.axis_1">
    <g id="xtick_1">
     <g id="line2d_1">
      <defs>
       <path d="M 0 0 
L 0 3.5 
" id="mfe790ed9df" style="stroke:#000000;stroke-width:1.6;"/>
      </defs>
      <g>
       <use style="stroke:#000000;stroke-width:1.6;" x="71.159621" xlink:href="#mfe790ed9df" y="259.147195"/>
      </g>
     </g>
     <g id="text_1">
      <!-- 0.0 -->
      <defs>
       <path d="M 31.78125 66.40625 
Q 24.171875 66.40625 20.328125 58.90625 
Q 16.5 51.421875 16.5 36.375 
Q 16.5 21.390625 20.328125 13.890625 
Q 24.171875 6.390625 31.78125 6.390625 
Q 39.453125 6.390625 43.28125 13.890625 
Q 47.125 21.390625 47.125 36.375 
Q 47.125 51.421875 43.28125 58.90625 
Q 39.453125 66.40625 31.78125 66.40625 
z
M 31.78125 74.21875 
Q 44.046875 74.21875 50.515625 64.515625 
Q 56.984375 54.828125 56.984375 36.375 
Q 56.984375 17.96875 50.515625 8.265625 
Q 44.046875 -1.421875 31.78125 -1.421875 
Q 19.53125 -1.421875 13.0625 8.265625 
Q 6.59375 17.96875 6.59375 36.375 
Q 6.59375 54.828125 13.0625 64.515625 
Q 19.53125 74.21875 31.78125 74.21875 
z
" id="DejaVuSans-48"/>
       <path d="M 10.6875 12.40625 
L 21 12.40625 
L 21 0 
L 10.6875 0 
z
" id="DejaVuSans-46"/>
      </defs>
      <g transform="translate(55.256496 289.04407)scale(0.2 -0.2)">
       <use xlink:href="#DejaVuSans-48"/>
       <use x="63.623047" xlink:href="#DejaVuSans-46"/>
       <use x="95.410156" xlink:href="#DejaVuSans-48"/>
      </g>
     </g>
    </g>
    <g id="xtick_2">
     <g id="line2d_2">
      <g>
       <use style="stroke:#000000;stroke-width:1.6;" x="137.357457" xlink:href="#mfe790ed9df" y="259.147195"/>
      </g>
     </g>
     <g id="text_2">
      <!-- 0.2 -->
      <defs>
       <path d="M 19.1875 8.296875 
L 53.609375 8.296875 
L 53.609375 0 
L 7.328125 0 
L 7.328125 8.296875 
Q 12.9375 14.109375 22.625 23.890625 
Q 32.328125 33.6875 34.8125 36.53125 
Q 39.546875 41.84375 41.421875 45.53125 
Q 43.3125 49.21875 43.3125 52.78125 
Q 43.3125 58.59375 39.234375 62.25 
Q 35.15625 65.921875 28.609375 65.921875 
Q 23.96875 65.921875 18.8125 64.3125 
Q 13.671875 62.703125 7.8125 59.421875 
L 7.8125 69.390625 
Q 13.765625 71.78125 18.9375 73 
Q 24.125 74.21875 28.421875 74.21875 
Q 39.75 74.21875 46.484375 68.546875 
Q 53.21875 62.890625 53.21875 53.421875 
Q 53.21875 48.921875 51.53125 44.890625 
Q 49.859375 40.875 45.40625 35.40625 
Q 44.1875 33.984375 37.640625 27.21875 
Q 31.109375 20.453125 19.1875 8.296875 
z
" id="DejaVuSans-50"/>
      </defs>
      <g transform="translate(121.454332 289.04407)scale(0.2 -0.2)">
       <use xlink:href="#DejaVuSans-48"/>
       <use x="63.623047" xlink:href="#DejaVuSans-46"/>
       <use x="95.410156" xlink:href="#DejaVuSans-50"/>
      </g>
     </g>
    </g>
    <g id="xtick_3">
     <g id="line2d_3">
      <g>
       <use style="stroke:#000000;stroke-width:1.6;" x="203.555292" xlink:href="#mfe790ed9df" y="259.147195"/>
      </g>
     </g>
     <g id="text_3">
      <!-- 0.4 -->
      <defs>
       <path d="M 37.796875 64.3125 
L 12.890625 25.390625 
L 37.796875 25.390625 
z
M 35.203125 72.90625 
L 47.609375 72.90625 
L 47.609375 25.390625 
L 58.015625 25.390625 
L 58.015625 17.1875 
L 47.609375 17.1875 
L 47.609375 0 
L 37.796875 0 
L 37.796875 17.1875 
L 4.890625 17.1875 
L 4.890625 26.703125 
z
" id="DejaVuSans-52"/>
      </defs>
      <g transform="translate(187.652167 289.04407)scale(0.2 -0.2)">
       <use xlink:href="#DejaVuSans-48"/>
       <use x="63.623047" xlink:href="#DejaVuSans-46"/>
       <use x="95.410156" xlink:href="#DejaVuSans-52"/>
      </g>
     </g>
    </g>
    <g id="xtick_4">
     <g id="line2d_4">
      <g>
       <use style="stroke:#000000;stroke-width:1.6;" x="269.753128" xlink:href="#mfe790ed9df" y="259.147195"/>
      </g>
     </g>
     <g id="text_4">
      <!-- 0.6 -->
      <defs>
       <path d="M 33.015625 40.375 
Q 26.375 40.375 22.484375 35.828125 
Q 18.609375 31.296875 18.609375 23.390625 
Q 18.609375 15.53125 22.484375 10.953125 
Q 26.375 6.390625 33.015625 6.390625 
Q 39.65625 6.390625 43.53125 10.953125 
Q 47.40625 15.53125 47.40625 23.390625 
Q 47.40625 31.296875 43.53125 35.828125 
Q 39.65625 40.375 33.015625 40.375 
z
M 52.59375 71.296875 
L 52.59375 62.3125 
Q 48.875 64.0625 45.09375 64.984375 
Q 41.3125 65.921875 37.59375 65.921875 
Q 27.828125 65.921875 22.671875 59.328125 
Q 17.53125 52.734375 16.796875 39.40625 
Q 19.671875 43.65625 24.015625 45.921875 
Q 28.375 48.1875 33.59375 48.1875 
Q 44.578125 48.1875 50.953125 41.515625 
Q 57.328125 34.859375 57.328125 23.390625 
Q 57.328125 12.15625 50.6875 5.359375 
Q 44.046875 -1.421875 33.015625 -1.421875 
Q 20.359375 -1.421875 13.671875 8.265625 
Q 6.984375 17.96875 6.984375 36.375 
Q 6.984375 53.65625 15.1875 63.9375 
Q 23.390625 74.21875 37.203125 74.21875 
Q 40.921875 74.21875 44.703125 73.484375 
Q 48.484375 72.75 52.59375 71.296875 
z
" id="DejaVuSans-54"/>
      </defs>
      <g transform="translate(253.850003 289.04407)scale(0.2 -0.2)">
       <use xlink:href="#DejaVuSans-48"/>
       <use x="63.623047" xlink:href="#DejaVuSans-46"/>
       <use x="95.410156" xlink:href="#DejaVuSans-54"/>
      </g>
     </g>
    </g>
    <g id="text_5">
     <!-- Max JS Divergence within $\epsilon$ -->
     <defs>
      <path d="M 9.8125 72.90625 
L 24.515625 72.90625 
L 43.109375 23.296875 
L 61.8125 72.90625 
L 76.515625 72.90625 
L 76.515625 0 
L 66.890625 0 
L 66.890625 64.015625 
L 48.09375 14.015625 
L 38.1875 14.015625 
L 19.390625 64.015625 
L 19.390625 0 
L 9.8125 0 
z
" id="DejaVuSans-77"/>
      <path d="M 34.28125 27.484375 
Q 23.390625 27.484375 19.1875 25 
Q 14.984375 22.515625 14.984375 16.5 
Q 14.984375 11.71875 18.140625 8.90625 
Q 21.296875 6.109375 26.703125 6.109375 
Q 34.1875 6.109375 38.703125 11.40625 
Q 43.21875 16.703125 43.21875 25.484375 
L 43.21875 27.484375 
z
M 52.203125 31.203125 
L 52.203125 0 
L 43.21875 0 
L 43.21875 8.296875 
Q 40.140625 3.328125 35.546875 0.953125 
Q 30.953125 -1.421875 24.3125 -1.421875 
Q 15.921875 -1.421875 10.953125 3.296875 
Q 6 8.015625 6 15.921875 
Q 6 25.140625 12.171875 29.828125 
Q 18.359375 34.515625 30.609375 34.515625 
L 43.21875 34.515625 
L 43.21875 35.40625 
Q 43.21875 41.609375 39.140625 45 
Q 35.0625 48.390625 27.6875 48.390625 
Q 23 48.390625 18.546875 47.265625 
Q 14.109375 46.140625 10.015625 43.890625 
L 10.015625 52.203125 
Q 14.9375 54.109375 19.578125 55.046875 
Q 24.21875 56 28.609375 56 
Q 40.484375 56 46.34375 49.84375 
Q 52.203125 43.703125 52.203125 31.203125 
z
" id="DejaVuSans-97"/>
      <path d="M 54.890625 54.6875 
L 35.109375 28.078125 
L 55.90625 0 
L 45.3125 0 
L 29.390625 21.484375 
L 13.484375 0 
L 2.875 0 
L 24.125 28.609375 
L 4.6875 54.6875 
L 15.28125 54.6875 
L 29.78125 35.203125 
L 44.28125 54.6875 
z
" id="DejaVuSans-120"/>
      <path id="DejaVuSans-32"/>
      <path d="M 9.8125 72.90625 
L 19.671875 72.90625 
L 19.671875 5.078125 
Q 19.671875 -8.109375 14.671875 -14.0625 
Q 9.671875 -20.015625 -1.421875 -20.015625 
L -5.171875 -20.015625 
L -5.171875 -11.71875 
L -2.09375 -11.71875 
Q 4.4375 -11.71875 7.125 -8.046875 
Q 9.8125 -4.390625 9.8125 5.078125 
z
" id="DejaVuSans-74"/>
      <path d="M 53.515625 70.515625 
L 53.515625 60.890625 
Q 47.90625 63.578125 42.921875 64.890625 
Q 37.9375 66.21875 33.296875 66.21875 
Q 25.25 66.21875 20.875 63.09375 
Q 16.5 59.96875 16.5 54.203125 
Q 16.5 49.359375 19.40625 46.890625 
Q 22.3125 44.4375 30.421875 42.921875 
L 36.375 41.703125 
Q 47.40625 39.59375 52.65625 34.296875 
Q 57.90625 29 57.90625 20.125 
Q 57.90625 9.515625 50.796875 4.046875 
Q 43.703125 -1.421875 29.984375 -1.421875 
Q 24.8125 -1.421875 18.96875 -0.25 
Q 13.140625 0.921875 6.890625 3.21875 
L 6.890625 13.375 
Q 12.890625 10.015625 18.65625 8.296875 
Q 24.421875 6.59375 29.984375 6.59375 
Q 38.421875 6.59375 43.015625 9.90625 
Q 47.609375 13.234375 47.609375 19.390625 
Q 47.609375 24.75 44.3125 27.78125 
Q 41.015625 30.8125 33.5 32.328125 
L 27.484375 33.5 
Q 16.453125 35.6875 11.515625 40.375 
Q 6.59375 45.0625 6.59375 53.421875 
Q 6.59375 63.09375 13.40625 68.65625 
Q 20.21875 74.21875 32.171875 74.21875 
Q 37.3125 74.21875 42.625 73.28125 
Q 47.953125 72.359375 53.515625 70.515625 
z
" id="DejaVuSans-83"/>
      <path d="M 19.671875 64.796875 
L 19.671875 8.109375 
L 31.59375 8.109375 
Q 46.6875 8.109375 53.6875 14.9375 
Q 60.6875 21.78125 60.6875 36.53125 
Q 60.6875 51.171875 53.6875 57.984375 
Q 46.6875 64.796875 31.59375 64.796875 
z
M 9.8125 72.90625 
L 30.078125 72.90625 
Q 51.265625 72.90625 61.171875 64.09375 
Q 71.09375 55.28125 71.09375 36.53125 
Q 71.09375 17.671875 61.125 8.828125 
Q 51.171875 0 30.078125 0 
L 9.8125 0 
z
" id="DejaVuSans-68"/>
      <path d="M 9.421875 54.6875 
L 18.40625 54.6875 
L 18.40625 0 
L 9.421875 0 
z
M 9.421875 75.984375 
L 18.40625 75.984375 
L 18.40625 64.59375 
L 9.421875 64.59375 
z
" id="DejaVuSans-105"/>
      <path d="M 2.984375 54.6875 
L 12.5 54.6875 
L 29.59375 8.796875 
L 46.6875 54.6875 
L 56.203125 54.6875 
L 35.6875 0 
L 23.484375 0 
z
" id="DejaVuSans-118"/>
      <path d="M 56.203125 29.59375 
L 56.203125 25.203125 
L 14.890625 25.203125 
Q 15.484375 15.921875 20.484375 11.0625 
Q 25.484375 6.203125 34.421875 6.203125 
Q 39.59375 6.203125 44.453125 7.46875 
Q 49.3125 8.734375 54.109375 11.28125 
L 54.109375 2.78125 
Q 49.265625 0.734375 44.1875 -0.34375 
Q 39.109375 -1.421875 33.890625 -1.421875 
Q 20.796875 -1.421875 13.15625 6.1875 
Q 5.515625 13.8125 5.515625 26.8125 
Q 5.515625 40.234375 12.765625 48.109375 
Q 20.015625 56 32.328125 56 
Q 43.359375 56 49.78125 48.890625 
Q 56.203125 41.796875 56.203125 29.59375 
z
M 47.21875 32.234375 
Q 47.125 39.59375 43.09375 43.984375 
Q 39.0625 48.390625 32.421875 48.390625 
Q 24.90625 48.390625 20.390625 44.140625 
Q 15.875 39.890625 15.1875 32.171875 
z
" id="DejaVuSans-101"/>
      <path d="M 41.109375 46.296875 
Q 39.59375 47.171875 37.8125 47.578125 
Q 36.03125 48 33.890625 48 
Q 26.265625 48 22.1875 43.046875 
Q 18.109375 38.09375 18.109375 28.8125 
L 18.109375 0 
L 9.078125 0 
L 9.078125 54.6875 
L 18.109375 54.6875 
L 18.109375 46.1875 
Q 20.953125 51.171875 25.484375 53.578125 
Q 30.03125 56 36.53125 56 
Q 37.453125 56 38.578125 55.875 
Q 39.703125 55.765625 41.0625 55.515625 
z
" id="DejaVuSans-114"/>
      <path d="M 45.40625 27.984375 
Q 45.40625 37.75 41.375 43.109375 
Q 37.359375 48.484375 30.078125 48.484375 
Q 22.859375 48.484375 18.828125 43.109375 
Q 14.796875 37.75 14.796875 27.984375 
Q 14.796875 18.265625 18.828125 12.890625 
Q 22.859375 7.515625 30.078125 7.515625 
Q 37.359375 7.515625 41.375 12.890625 
Q 45.40625 18.265625 45.40625 27.984375 
z
M 54.390625 6.78125 
Q 54.390625 -7.171875 48.1875 -13.984375 
Q 42 -20.796875 29.203125 -20.796875 
Q 24.46875 -20.796875 20.265625 -20.09375 
Q 16.0625 -19.390625 12.109375 -17.921875 
L 12.109375 -9.1875 
Q 16.0625 -11.328125 19.921875 -12.34375 
Q 23.78125 -13.375 27.78125 -13.375 
Q 36.625 -13.375 41.015625 -8.765625 
Q 45.40625 -4.15625 45.40625 5.171875 
L 45.40625 9.625 
Q 42.625 4.78125 38.28125 2.390625 
Q 33.9375 0 27.875 0 
Q 17.828125 0 11.671875 7.65625 
Q 5.515625 15.328125 5.515625 27.984375 
Q 5.515625 40.671875 11.671875 48.328125 
Q 17.828125 56 27.875 56 
Q 33.9375 56 38.28125 53.609375 
Q 42.625 51.21875 45.40625 46.390625 
L 45.40625 54.6875 
L 54.390625 54.6875 
z
" id="DejaVuSans-103"/>
      <path d="M 54.890625 33.015625 
L 54.890625 0 
L 45.90625 0 
L 45.90625 32.71875 
Q 45.90625 40.484375 42.875 44.328125 
Q 39.84375 48.1875 33.796875 48.1875 
Q 26.515625 48.1875 22.3125 43.546875 
Q 18.109375 38.921875 18.109375 30.90625 
L 18.109375 0 
L 9.078125 0 
L 9.078125 54.6875 
L 18.109375 54.6875 
L 18.109375 46.1875 
Q 21.34375 51.125 25.703125 53.5625 
Q 30.078125 56 35.796875 56 
Q 45.21875 56 50.046875 50.171875 
Q 54.890625 44.34375 54.890625 33.015625 
z
" id="DejaVuSans-110"/>
      <path d="M 48.78125 52.59375 
L 48.78125 44.1875 
Q 44.96875 46.296875 41.140625 47.34375 
Q 37.3125 48.390625 33.40625 48.390625 
Q 24.65625 48.390625 19.8125 42.84375 
Q 14.984375 37.3125 14.984375 27.296875 
Q 14.984375 17.28125 19.8125 11.734375 
Q 24.65625 6.203125 33.40625 6.203125 
Q 37.3125 6.203125 41.140625 7.25 
Q 44.96875 8.296875 48.78125 10.40625 
L 48.78125 2.09375 
Q 45.015625 0.34375 40.984375 -0.53125 
Q 36.96875 -1.421875 32.421875 -1.421875 
Q 20.0625 -1.421875 12.78125 6.34375 
Q 5.515625 14.109375 5.515625 27.296875 
Q 5.515625 40.671875 12.859375 48.328125 
Q 20.21875 56 33.015625 56 
Q 37.15625 56 41.109375 55.140625 
Q 45.0625 54.296875 48.78125 52.59375 
z
" id="DejaVuSans-99"/>
      <path d="M 4.203125 54.6875 
L 13.1875 54.6875 
L 24.421875 12.015625 
L 35.59375 54.6875 
L 46.1875 54.6875 
L 57.421875 12.015625 
L 68.609375 54.6875 
L 77.59375 54.6875 
L 63.28125 0 
L 52.6875 0 
L 40.921875 44.828125 
L 29.109375 0 
L 18.5 0 
z
" id="DejaVuSans-119"/>
      <path d="M 18.3125 70.21875 
L 18.3125 54.6875 
L 36.8125 54.6875 
L 36.8125 47.703125 
L 18.3125 47.703125 
L 18.3125 18.015625 
Q 18.3125 11.328125 20.140625 9.421875 
Q 21.96875 7.515625 27.59375 7.515625 
L 36.8125 7.515625 
L 36.8125 0 
L 27.59375 0 
Q 17.1875 0 13.234375 3.875 
Q 9.28125 7.765625 9.28125 18.015625 
L 9.28125 47.703125 
L 2.6875 47.703125 
L 2.6875 54.6875 
L 9.28125 54.6875 
L 9.28125 70.21875 
z
" id="DejaVuSans-116"/>
      <path d="M 54.890625 33.015625 
L 54.890625 0 
L 45.90625 0 
L 45.90625 32.71875 
Q 45.90625 40.484375 42.875 44.328125 
Q 39.84375 48.1875 33.796875 48.1875 
Q 26.515625 48.1875 22.3125 43.546875 
Q 18.109375 38.921875 18.109375 30.90625 
L 18.109375 0 
L 9.078125 0 
L 9.078125 75.984375 
L 18.109375 75.984375 
L 18.109375 46.1875 
Q 21.34375 51.125 25.703125 53.5625 
Q 30.078125 56 35.796875 56 
Q 45.21875 56 50.046875 50.171875 
Q 54.890625 44.34375 54.890625 33.015625 
z
" id="DejaVuSans-104"/>
      <path d="M 19.734375 29.5 
Q 14.453125 30.671875 12.15625 33.84375 
Q 10.453125 36.078125 10.453125 39.109375 
Q 10.453125 47.40625 18.359375 52.25 
Q 24.609375 56.0625 34.1875 56.0625 
Q 37.890625 56.0625 41.9375 55.46875 
Q 46 54.890625 50.53125 53.71875 
L 48.96875 45.5625 
Q 44.484375 46.96875 40.71875 47.609375 
Q 36.859375 48.25 33.40625 48.25 
Q 27.59375 48.25 23.78125 46 
Q 19.1875 43.3125 19.1875 39.40625 
Q 19.1875 36.8125 21.578125 35.015625 
Q 24.421875 32.859375 30.078125 32.859375 
L 37.640625 32.859375 
L 36.234375 25.4375 
L 29 25.4375 
Q 22.265625 25.4375 18.3125 22.953125 
Q 12.9375 19.578125 12.9375 14.3125 
Q 12.9375 10.984375 15.828125 8.796875 
Q 19.4375 6.0625 26.8125 6.0625 
Q 31.34375 6.0625 35.6875 6.9375 
Q 40.046875 7.859375 43.84375 9.671875 
L 42.1875 1.3125 
Q 37.546875 -0.046875 33.296875 -0.734375 
Q 29.046875 -1.421875 25.140625 -1.421875 
Q 13.53125 -1.421875 8.0625 3.03125 
Q 3.90625 6.453125 3.90625 12.203125 
Q 3.90625 19.96875 9.375 24.75 
Q 13.421875 28.328125 19.734375 29.5 
z
" id="DejaVuSans-Oblique-949"/>
     </defs>
     <g transform="translate(51.405833 312.403445)scale(0.2 -0.2)">
      <use transform="translate(0 0.015625)" xlink:href="#DejaVuSans-77"/>
      <use transform="translate(86.279297 0.015625)" xlink:href="#DejaVuSans-97"/>
      <use transform="translate(147.558594 0.015625)" xlink:href="#DejaVuSans-120"/>
      <use transform="translate(206.738281 0.015625)" xlink:href="#DejaVuSans-32"/>
      <use transform="translate(238.525391 0.015625)" xlink:href="#DejaVuSans-74"/>
      <use transform="translate(268.017578 0.015625)" xlink:href="#DejaVuSans-83"/>
      <use transform="translate(331.494141 0.015625)" xlink:href="#DejaVuSans-32"/>
      <use transform="translate(363.28125 0.015625)" xlink:href="#DejaVuSans-68"/>
      <use transform="translate(440.283203 0.015625)" xlink:href="#DejaVuSans-105"/>
      <use transform="translate(468.066406 0.015625)" xlink:href="#DejaVuSans-118"/>
      <use transform="translate(527.246094 0.015625)" xlink:href="#DejaVuSans-101"/>
      <use transform="translate(588.769531 0.015625)" xlink:href="#DejaVuSans-114"/>
      <use transform="translate(629.882812 0.015625)" xlink:href="#DejaVuSans-103"/>
      <use transform="translate(693.359375 0.015625)" xlink:href="#DejaVuSans-101"/>
      <use transform="translate(754.882812 0.015625)" xlink:href="#DejaVuSans-110"/>
      <use transform="translate(818.261719 0.015625)" xlink:href="#DejaVuSans-99"/>
      <use transform="translate(873.242188 0.015625)" xlink:href="#DejaVuSans-101"/>
      <use transform="translate(934.765625 0.015625)" xlink:href="#DejaVuSans-32"/>
      <use transform="translate(966.552734 0.015625)" xlink:href="#DejaVuSans-119"/>
      <use transform="translate(1048.339844 0.015625)" xlink:href="#DejaVuSans-105"/>
      <use transform="translate(1076.123047 0.015625)" xlink:href="#DejaVuSans-116"/>
      <use transform="translate(1115.332031 0.015625)" xlink:href="#DejaVuSans-104"/>
      <use transform="translate(1178.710938 0.015625)" xlink:href="#DejaVuSans-105"/>
      <use transform="translate(1206.494141 0.015625)" xlink:href="#DejaVuSans-110"/>
      <use transform="translate(1269.873047 0.015625)" xlink:href="#DejaVuSans-32"/>
      <use transform="translate(1301.660156 0.015625)" xlink:href="#DejaVuSans-Oblique-949"/>
     </g>
    </g>
   </g>
   <g id="matplotlib.axis_2">
    <g id="ytick_1">
     <g id="line2d_5">
      <defs>
       <path d="M 0 0 
L -3.5 0 
" id="mdb2877f33f" style="stroke:#000000;stroke-width:1.6;"/>
      </defs>
      <g>
       <use style="stroke:#000000;stroke-width:1.6;" x="59.575" xlink:href="#mdb2877f33f" y="259.147195"/>
      </g>
     </g>
     <g id="text_6">
      <!-- 0.00 -->
      <g transform="translate(0.34375 266.745633)scale(0.2 -0.2)">
       <use xlink:href="#DejaVuSans-48"/>
       <use x="63.623047" xlink:href="#DejaVuSans-46"/>
       <use x="95.410156" xlink:href="#DejaVuSans-48"/>
       <use x="159.033203" xlink:href="#DejaVuSans-48"/>
      </g>
     </g>
    </g>
    <g id="ytick_2">
     <g id="line2d_6">
      <g>
       <use style="stroke:#000000;stroke-width:1.6;" x="59.575" xlink:href="#mdb2877f33f" y="208.817756"/>
      </g>
     </g>
     <g id="text_7">
      <!-- 0.02 -->
      <g transform="translate(0.34375 216.416194)scale(0.2 -0.2)">
       <use xlink:href="#DejaVuSans-48"/>
       <use x="63.623047" xlink:href="#DejaVuSans-46"/>
       <use x="95.410156" xlink:href="#DejaVuSans-48"/>
       <use x="159.033203" xlink:href="#DejaVuSans-50"/>
      </g>
     </g>
    </g>
    <g id="ytick_3">
     <g id="line2d_7">
      <g>
       <use style="stroke:#000000;stroke-width:1.6;" x="59.575" xlink:href="#mdb2877f33f" y="158.488317"/>
      </g>
     </g>
     <g id="text_8">
      <!-- 0.04 -->
      <g transform="translate(0.34375 166.086755)scale(0.2 -0.2)">
       <use xlink:href="#DejaVuSans-48"/>
       <use x="63.623047" xlink:href="#DejaVuSans-46"/>
       <use x="95.410156" xlink:href="#DejaVuSans-48"/>
       <use x="159.033203" xlink:href="#DejaVuSans-52"/>
      </g>
     </g>
    </g>
    <g id="ytick_4">
     <g id="line2d_8">
      <g>
       <use style="stroke:#000000;stroke-width:1.6;" x="59.575" xlink:href="#mdb2877f33f" y="108.158878"/>
      </g>
     </g>
     <g id="text_9">
      <!-- 0.06 -->
      <g transform="translate(0.34375 115.757316)scale(0.2 -0.2)">
       <use xlink:href="#DejaVuSans-48"/>
       <use x="63.623047" xlink:href="#DejaVuSans-46"/>
       <use x="95.410156" xlink:href="#DejaVuSans-48"/>
       <use x="159.033203" xlink:href="#DejaVuSans-54"/>
      </g>
     </g>
    </g>
    <g id="ytick_5">
     <g id="line2d_9">
      <g>
       <use style="stroke:#000000;stroke-width:1.6;" x="59.575" xlink:href="#mdb2877f33f" y="57.829439"/>
      </g>
     </g>
     <g id="text_10">
      <!-- 0.08 -->
      <defs>
       <path d="M 31.78125 34.625 
Q 24.75 34.625 20.71875 30.859375 
Q 16.703125 27.09375 16.703125 20.515625 
Q 16.703125 13.921875 20.71875 10.15625 
Q 24.75 6.390625 31.78125 6.390625 
Q 38.8125 6.390625 42.859375 10.171875 
Q 46.921875 13.96875 46.921875 20.515625 
Q 46.921875 27.09375 42.890625 30.859375 
Q 38.875 34.625 31.78125 34.625 
z
M 21.921875 38.8125 
Q 15.578125 40.375 12.03125 44.71875 
Q 8.5 49.078125 8.5 55.328125 
Q 8.5 64.0625 14.71875 69.140625 
Q 20.953125 74.21875 31.78125 74.21875 
Q 42.671875 74.21875 48.875 69.140625 
Q 55.078125 64.0625 55.078125 55.328125 
Q 55.078125 49.078125 51.53125 44.71875 
Q 48 40.375 41.703125 38.8125 
Q 48.828125 37.15625 52.796875 32.3125 
Q 56.78125 27.484375 56.78125 20.515625 
Q 56.78125 9.90625 50.3125 4.234375 
Q 43.84375 -1.421875 31.78125 -1.421875 
Q 19.734375 -1.421875 13.25 4.234375 
Q 6.78125 9.90625 6.78125 20.515625 
Q 6.78125 27.484375 10.78125 32.3125 
Q 14.796875 37.15625 21.921875 38.8125 
z
M 18.3125 54.390625 
Q 18.3125 48.734375 21.84375 45.5625 
Q 25.390625 42.390625 31.78125 42.390625 
Q 38.140625 42.390625 41.71875 45.5625 
Q 45.3125 48.734375 45.3125 54.390625 
Q 45.3125 60.0625 41.71875 63.234375 
Q 38.140625 66.40625 31.78125 66.40625 
Q 25.390625 66.40625 21.84375 63.234375 
Q 18.3125 60.0625 18.3125 54.390625 
z
" id="DejaVuSans-56"/>
      </defs>
      <g transform="translate(0.34375 65.427877)scale(0.2 -0.2)">
       <use xlink:href="#DejaVuSans-48"/>
       <use x="63.623047" xlink:href="#DejaVuSans-46"/>
       <use x="95.410156" xlink:href="#DejaVuSans-48"/>
       <use x="159.033203" xlink:href="#DejaVuSans-56"/>
      </g>
     </g>
    </g>
    <g id="ytick_6">
     <g id="line2d_10">
      <g>
       <use style="stroke:#000000;stroke-width:1.6;" x="59.575" xlink:href="#mdb2877f33f" y="7.5"/>
      </g>
     </g>
     <g id="text_11">
      <!-- 0.10 -->
      <defs>
       <path d="M 12.40625 8.296875 
L 28.515625 8.296875 
L 28.515625 63.921875 
L 10.984375 60.40625 
L 10.984375 69.390625 
L 28.421875 72.90625 
L 38.28125 72.90625 
L 38.28125 8.296875 
L 54.390625 8.296875 
L 54.390625 0 
L 12.40625 0 
z
" id="DejaVuSans-49"/>
      </defs>
      <g transform="translate(0.34375 15.098437)scale(0.2 -0.2)">
       <use xlink:href="#DejaVuSans-48"/>
       <use x="63.623047" xlink:href="#DejaVuSans-46"/>
       <use x="95.410156" xlink:href="#DejaVuSans-49"/>
       <use x="159.033203" xlink:href="#DejaVuSans-48"/>
      </g>
     </g>
    </g>
   </g>
   <g id="patch_83">
    <path d="M 59.575 259.147195 
L 59.575 4.285529 
" style="fill:none;stroke:#000000;stroke-linecap:square;stroke-linejoin:miter;stroke-width:0.8;"/>
   </g>
   <g id="patch_84">
    <path d="M 59.575 259.147195 
L 314.436667 259.147195 
" style="fill:none;stroke:#000000;stroke-linecap:square;stroke-linejoin:miter;stroke-width:0.8;"/>
   </g>
  </g>
  <g id="axes_2">
   <g id="patch_85">
    <path d="M 425.796667 259.147195 
L 680.658333 259.147195 
L 680.658333 4.285529 
L 425.796667 4.285529 
z
" style="fill:#ffffff;"/>
   </g>
   <g id="PolyCollection_1">
    <defs>
     <path d="M 546.98129 -296.409204 
L 546.98129 -296.484879 
L 548.291593 -296.484156 
L 549.601896 -296.481606 
L 550.912199 -296.477946 
L 552.222502 -296.474232 
L 553.532805 -296.471713 
L 554.843108 -296.471697 
L 556.153411 -296.475432 
L 557.463714 -296.484017 
L 558.774017 -296.498309 
L 560.08432 -296.518841 
L 561.394623 -296.545748 
L 562.704926 -296.578757 
L 564.015229 -296.617257 
L 565.325532 -296.66047 
L 566.635835 -296.707654 
L 567.946138 -296.758316 
L 569.256441 -296.812336 
L 570.566744 -296.870014 
L 571.877047 -296.932015 
L 573.18735 -296.999241 
L 574.497653 -297.072661 
L 575.807956 -297.153112 
L 577.118259 -297.241137 
L 578.428562 -297.336904 
L 579.738865 -297.440301 
L 581.049168 -297.551213 
L 582.359471 -297.669922 
L 583.669774 -297.797451 
L 584.980077 -297.935655 
L 586.29038 -298.086896 
L 587.600683 -298.253319 
L 588.910986 -298.435943 
L 590.221289 -298.633909 
L 591.531592 -298.844227 
L 592.841895 -299.062192 
L 594.152198 -299.282397 
L 595.462501 -299.500092 
L 596.772804 -299.712538 
L 598.083107 -299.920042 
L 599.39341 -300.1264 
L 600.703713 -300.338521 
L 602.014016 -300.565133 
L 603.324319 -300.81467 
L 604.634622 -301.09285 
L 605.944925 -301.400696 
L 607.255228 -301.733834 
L 608.565531 -302.08346 
L 609.875834 -302.438709 
L 611.186137 -302.789472 
L 612.49644 -303.128522 
L 613.806743 -303.45214 
L 615.117046 -303.759215 
L 616.427349 -304.049565 
L 617.737652 -304.322568 
L 619.047955 -304.576939 
L 620.358258 -304.811812 
L 621.668562 -305.028524 
L 622.978865 -305.232027 
L 624.289168 -305.431004 
L 625.599471 -305.636321 
L 626.909774 -305.858217 
L 628.220077 -306.103261 
L 629.53038 -306.372168 
L 630.840683 -306.659236 
L 632.150986 -306.953506 
L 633.461289 -307.241144 
L 634.771592 -307.508226 
L 636.081895 -307.743119 
L 637.392198 -307.937891 
L 638.702501 -308.088574 
L 640.012804 -308.194459 
L 641.323107 -308.256954 
L 642.63341 -308.278669 
L 643.943713 -308.263299 
L 645.254016 -308.216461 
L 646.564319 -308.147065 
L 647.874622 -308.068383 
L 649.184925 -307.997917 
L 650.495228 -307.955574 
L 651.805531 -307.960311 
L 653.115834 -308.026007 
L 654.426137 -308.157574 
L 655.73644 -308.348277 
L 657.046743 -308.578872 
L 658.357046 -308.818766 
L 659.667349 -309.029032 
L 660.977652 -309.166776 
L 662.287955 -309.190125 
L 663.598258 -309.063025 
L 664.908561 -308.759156 
L 666.218864 -308.264565 
L 667.529167 -307.579017 
L 668.83947 -306.716297 
L 670.149773 -305.703684 
L 671.460076 -304.580585 
L 672.770379 -303.396006 
L 674.080682 -302.204565 
L 675.390985 -301.061051 
L 676.701288 -300.014224 
L 676.701288 -292.87986 
L 676.701288 -292.87986 
L 675.390985 -291.833032 
L 674.080682 -290.689518 
L 672.770379 -289.498077 
L 671.460076 -288.313498 
L 670.149773 -287.190399 
L 668.83947 -286.177787 
L 667.529167 -285.315067 
L 666.218864 -284.629518 
L 664.908561 -284.134927 
L 663.598258 -283.831058 
L 662.287955 -283.703958 
L 660.977652 -283.727307 
L 659.667349 -283.865052 
L 658.357046 -284.075318 
L 657.046743 -284.315211 
L 655.73644 -284.545806 
L 654.426137 -284.73651 
L 653.115834 -284.868076 
L 651.805531 -284.933772 
L 650.495228 -284.93851 
L 649.184925 -284.896166 
L 647.874622 -284.8257 
L 646.564319 -284.747018 
L 645.254016 -284.677622 
L 643.943713 -284.630784 
L 642.63341 -284.615414 
L 641.323107 -284.637129 
L 640.012804 -284.699624 
L 638.702501 -284.80551 
L 637.392198 -284.956192 
L 636.081895 -285.150964 
L 634.771592 -285.385857 
L 633.461289 -285.652939 
L 632.150986 -285.940577 
L 630.840683 -286.234847 
L 629.53038 -286.521916 
L 628.220077 -286.790823 
L 626.909774 -287.035867 
L 625.599471 -287.257763 
L 624.289168 -287.463079 
L 622.978865 -287.662057 
L 621.668562 -287.865559 
L 620.358258 -288.082271 
L 619.047955 -288.317145 
L 617.737652 -288.571515 
L 616.427349 -288.844518 
L 615.117046 -289.134868 
L 613.806743 -289.441943 
L 612.49644 -289.765561 
L 611.186137 -290.104611 
L 609.875834 -290.455374 
L 608.565531 -290.810623 
L 607.255228 -291.16025 
L 605.944925 -291.493387 
L 604.634622 -291.801234 
L 603.324319 -292.079413 
L 602.014016 -292.328951 
L 600.703713 -292.555562 
L 599.39341 -292.767684 
L 598.083107 -292.974042 
L 596.772804 -293.181546 
L 595.462501 -293.393991 
L 594.152198 -293.611686 
L 592.841895 -293.831892 
L 591.531592 -294.049856 
L 590.221289 -294.260174 
L 588.910986 -294.45814 
L 587.600683 -294.640764 
L 586.29038 -294.807187 
L 584.980077 -294.958428 
L 583.669774 -295.096632 
L 582.359471 -295.224161 
L 581.049168 -295.34287 
L 579.738865 -295.453783 
L 578.428562 -295.55718 
L 577.118259 -295.652946 
L 575.807956 -295.740971 
L 574.497653 -295.821423 
L 573.18735 -295.894842 
L 571.877047 -295.962068 
L 570.566744 -296.024069 
L 569.256441 -296.081747 
L 567.946138 -296.135768 
L 566.635835 -296.186429 
L 565.325532 -296.233614 
L 564.015229 -296.276826 
L 562.704926 -296.315327 
L 561.394623 -296.348335 
L 560.08432 -296.375242 
L 558.774017 -296.395774 
L 557.463714 -296.410066 
L 556.153411 -296.418651 
L 554.843108 -296.422386 
L 553.532805 -296.42237 
L 552.222502 -296.419851 
L 550.912199 -296.416137 
L 549.601896 -296.412477 
L 548.291593 -296.409927 
L 546.98129 -296.409204 
z
" id="me91f0d22b9" style="stroke:#333333;"/>
    </defs>
    <g clip-path="url(#pa562f299ef)">
     <use style="fill:#484566;stroke:#333333;" x="0" xlink:href="#me91f0d22b9" y="319.847195"/>
    </g>
   </g>
   <g id="PolyCollection_2">
    <defs>
     <path d="M 544.437651 -270.855285 
L 544.437651 -271.066465 
L 545.780937 -271.087002 
L 547.124224 -271.10626 
L 548.46751 -271.122953 
L 549.810797 -271.136267 
L 551.154083 -271.146174 
L 552.497369 -271.153584 
L 553.840656 -271.160264 
L 555.183942 -271.168538 
L 556.527229 -271.180825 
L 557.870515 -271.199165 
L 559.213802 -271.224878 
L 560.557088 -271.258467 
L 561.900374 -271.299791 
L 563.243661 -271.348474 
L 564.586947 -271.404431 
L 565.930234 -271.468337 
L 567.27352 -271.541864 
L 568.616806 -271.627556 
L 569.960093 -271.728316 
L 571.303379 -271.84667 
L 572.646666 -271.98405 
L 573.989952 -272.140427 
L 575.333239 -272.314434 
L 576.676525 -272.50394 
L 578.019811 -272.706797 
L 579.363098 -272.921375 
L 580.706384 -273.146621 
L 582.049671 -273.381624 
L 583.392957 -273.624956 
L 584.736244 -273.874166 
L 586.07953 -274.125793 
L 587.422816 -274.375955 
L 588.766103 -274.62133 
L 590.109389 -274.860119 
L 591.452676 -275.092614 
L 592.795962 -275.321127 
L 594.139249 -275.549327 
L 595.482535 -275.78128 
L 596.825821 -276.020582 
L 598.169108 -276.269943 
L 599.512394 -276.531333 
L 600.855681 -276.806487 
L 602.198967 -277.09735 
L 603.542253 -277.405966 
L 604.88554 -277.733595 
L 606.228826 -278.079199 
L 607.572113 -278.437906 
L 608.915399 -278.80021 
L 610.258686 -279.152547 
L 611.601972 -279.47945 
L 612.945258 -279.766879 
L 614.288545 -280.005853 
L 615.631831 -280.195285 
L 616.975118 -280.343139 
L 618.318404 -280.465446 
L 619.661691 -280.583393 
L 621.004977 -280.719164 
L 622.348263 -280.891544 
L 623.69155 -281.112246 
L 625.034836 -281.383722 
L 626.378123 -281.698791 
L 627.721409 -282.042008 
L 629.064695 -282.392282 
L 630.407982 -282.726058 
L 631.751268 -283.020344 
L 633.094555 -283.255111 
L 634.437841 -283.414865 
L 635.781128 -283.489514 
L 637.124414 -283.474721 
L 638.4677 -283.37183 
L 639.810987 -283.187366 
L 641.154273 -282.932014 
L 642.49756 -282.619138 
L 643.840846 -282.263117 
L 645.184133 -281.877931 
L 646.527419 -281.47637 
L 647.870705 -281.069959 
L 649.213992 -280.66934 
L 650.557278 -280.284604 
L 651.900565 -279.925115 
L 653.243851 -279.598669 
L 654.587138 -279.310201 
L 655.930424 -279.060579 
L 657.27371 -278.845982 
L 658.616997 -278.658177 
L 659.960283 -278.485658 
L 661.30357 -278.315293 
L 662.646856 -278.133992 
L 663.990142 -277.929938 
L 665.333429 -277.693148 
L 666.676715 -277.415401 
L 668.020002 -277.089937 
L 669.363288 -276.711439 
L 670.706575 -276.27678 
L 672.049861 -275.786575 
L 673.393147 -275.247085 
L 674.736434 -274.671575 
L 676.07972 -274.080188 
L 677.423007 -273.497887 
L 677.423007 -268.423863 
L 677.423007 -268.423863 
L 676.07972 -267.841562 
L 674.736434 -267.250175 
L 673.393147 -266.674665 
L 672.049861 -266.135175 
L 670.706575 -265.64497 
L 669.363288 -265.210311 
L 668.020002 -264.831813 
L 666.676715 -264.506349 
L 665.333429 -264.228602 
L 663.990142 -263.991812 
L 662.646856 -263.787758 
L 661.30357 -263.606457 
L 659.960283 -263.436092 
L 658.616997 -263.263573 
L 657.27371 -263.075768 
L 655.930424 -262.861171 
L 654.587138 -262.611549 
L 653.243851 -262.323081 
L 651.900565 -261.996635 
L 650.557278 -261.637146 
L 649.213992 -261.25241 
L 647.870705 -260.851791 
L 646.527419 -260.44538 
L 645.184133 -260.043819 
L 643.840846 -259.658633 
L 642.49756 -259.302612 
L 641.154273 -258.989736 
L 639.810987 -258.734384 
L 638.4677 -258.54992 
L 637.124414 -258.447029 
L 635.781128 -258.432236 
L 634.437841 -258.506885 
L 633.094555 -258.666639 
L 631.751268 -258.901406 
L 630.407982 -259.195692 
L 629.064695 -259.529468 
L 627.721409 -259.879742 
L 626.378123 -260.222959 
L 625.034836 -260.538028 
L 623.69155 -260.809504 
L 622.348263 -261.030206 
L 621.004977 -261.202586 
L 619.661691 -261.338357 
L 618.318404 -261.456304 
L 616.975118 -261.578611 
L 615.631831 -261.726465 
L 614.288545 -261.915897 
L 612.945258 -262.154871 
L 611.601972 -262.4423 
L 610.258686 -262.769203 
L 608.915399 -263.12154 
L 607.572113 -263.483844 
L 606.228826 -263.842551 
L 604.88554 -264.188155 
L 603.542253 -264.515784 
L 602.198967 -264.8244 
L 600.855681 -265.115263 
L 599.512394 -265.390417 
L 598.169108 -265.651807 
L 596.825821 -265.901168 
L 595.482535 -266.14047 
L 594.139249 -266.372423 
L 592.795962 -266.600623 
L 591.452676 -266.829136 
L 590.109389 -267.061631 
L 588.766103 -267.30042 
L 587.422816 -267.545795 
L 586.07953 -267.795957 
L 584.736244 -268.047584 
L 583.392957 -268.296794 
L 582.049671 -268.540126 
L 580.706384 -268.775129 
L 579.363098 -269.000375 
L 578.019811 -269.214953 
L 576.676525 -269.41781 
L 575.333239 -269.607316 
L 573.989952 -269.781323 
L 572.646666 -269.9377 
L 571.303379 -270.07508 
L 569.960093 -270.193434 
L 568.616806 -270.294194 
L 567.27352 -270.379886 
L 565.930234 -270.453413 
L 564.586947 -270.517319 
L 563.243661 -270.573276 
L 561.900374 -270.621959 
L 560.557088 -270.663283 
L 559.213802 -270.696872 
L 557.870515 -270.722585 
L 556.527229 -270.740925 
L 555.183942 -270.753212 
L 553.840656 -270.761486 
L 552.497369 -270.768166 
L 551.154083 -270.775576 
L 549.810797 -270.785483 
L 548.46751 -270.798797 
L 547.124224 -270.81549 
L 545.780937 -270.834748 
L 544.437651 -270.855285 
z
" id="m0e08b8cc8f" style="stroke:#333333;"/>
    </defs>
    <g clip-path="url(#pa562f299ef)">
     <use style="fill:#b75e1a;stroke:#333333;" x="0" xlink:href="#m0e08b8cc8f" y="319.847195"/>
    </g>
   </g>
   <g id="PolyCollection_3">
    <defs>
     <path d="M 533.4494 -232.5689 
L 533.4494 -232.89435 
L 534.875141 -232.906052 
L 536.300881 -232.918538 
L 537.726622 -232.933047 
L 539.152363 -232.950968 
L 540.578103 -232.97367 
L 542.003844 -233.002331 
L 543.429585 -233.037772 
L 544.855326 -233.080366 
L 546.281066 -233.129998 
L 547.706807 -233.18611 
L 549.132548 -233.247815 
L 550.558289 -233.314048 
L 551.984029 -233.383754 
L 553.40977 -233.456054 
L 554.835511 -233.530397 
L 556.261251 -233.60667 
L 557.686992 -233.685258 
L 559.112733 -233.767065 
L 560.538474 -233.85349 
L 561.964214 -233.946367 
L 563.389955 -234.047867 
L 564.815696 -234.16038 
L 566.241437 -234.286359 
L 567.667177 -234.428165 
L 569.092918 -234.587902 
L 570.518659 -234.767259 
L 571.944399 -234.967378 
L 573.37014 -235.188744 
L 574.795881 -235.431106 
L 576.221622 -235.69343 
L 577.647362 -235.97389 
L 579.073103 -236.269896 
L 580.498844 -236.578177 
L 581.924585 -236.894905 
L 583.350325 -237.215888 
L 584.776066 -237.536801 
L 586.201807 -237.853455 
L 587.627547 -238.162069 
L 589.053288 -238.459522 
L 590.479029 -238.743576 
L 591.90477 -239.013025 
L 593.33051 -239.267795 
L 594.756251 -239.508988 
L 596.181992 -239.73886 
L 597.607733 -239.960761 
L 599.033473 -240.179004 
L 600.459214 -240.398665 
L 601.884955 -240.625285 
L 603.310695 -240.864478 
L 604.736436 -241.121438 
L 606.162177 -241.400382 
L 607.587918 -241.703986 
L 609.013658 -242.032877 
L 610.439399 -242.385266 
L 611.86514 -242.756787 
L 613.29088 -243.140574 
L 614.716621 -243.5276 
L 616.142362 -243.907235 
L 617.568103 -244.267968 
L 618.993843 -244.598212 
L 620.419584 -244.887112 
L 621.845325 -245.125281 
L 623.271066 -245.305388 
L 624.696806 -245.422581 
L 626.122547 -245.474708 
L 627.548288 -245.462337 
L 628.974028 -245.388595 
L 630.399769 -245.258858 
L 631.82551 -245.080323 
L 633.251251 -244.861524 
L 634.676991 -244.611836 
L 636.102732 -244.340997 
L 637.528473 -244.058689 
L 638.954214 -243.774154 
L 640.379954 -243.495839 
L 641.805695 -243.23104 
L 643.231436 -242.985529 
L 644.657176 -242.763153 
L 646.082917 -242.56546 
L 647.508658 -242.391375 
L 648.934399 -242.237028 
L 650.360139 -242.09579 
L 651.78588 -241.958571 
L 653.211621 -241.814398 
L 654.637362 -241.651256 
L 656.063102 -241.457108 
L 657.488843 -241.221024 
L 658.914584 -240.934264 
L 660.340324 -240.591214 
L 661.766065 -240.190052 
L 663.191806 -239.73306 
L 664.617547 -239.226531 
L 666.043287 -238.680291 
L 667.469028 -238.106888 
L 668.894769 -237.52054 
L 670.32051 -236.935984 
L 671.74625 -236.367353 
L 673.171991 -235.827212 
L 674.597732 -235.325825 
L 674.597732 -230.137425 
L 674.597732 -230.137425 
L 673.171991 -229.636038 
L 671.74625 -229.095897 
L 670.32051 -228.527266 
L 668.894769 -227.94271 
L 667.469028 -227.356362 
L 666.043287 -226.782959 
L 664.617547 -226.236719 
L 663.191806 -225.73019 
L 661.766065 -225.273198 
L 660.340324 -224.872036 
L 658.914584 -224.528986 
L 657.488843 -224.242226 
L 656.063102 -224.006142 
L 654.637362 -223.811994 
L 653.211621 -223.648852 
L 651.78588 -223.504679 
L 650.360139 -223.36746 
L 648.934399 -223.226222 
L 647.508658 -223.071875 
L 646.082917 -222.89779 
L 644.657176 -222.700097 
L 643.231436 -222.477721 
L 641.805695 -222.23221 
L 640.379954 -221.967411 
L 638.954214 -221.689096 
L 637.528473 -221.404561 
L 636.102732 -221.122253 
L 634.676991 -220.851414 
L 633.251251 -220.601726 
L 631.82551 -220.382927 
L 630.399769 -220.204392 
L 628.974028 -220.074655 
L 627.548288 -220.000913 
L 626.122547 -219.988542 
L 624.696806 -220.040669 
L 623.271066 -220.157862 
L 621.845325 -220.337969 
L 620.419584 -220.576138 
L 618.993843 -220.865038 
L 617.568103 -221.195282 
L 616.142362 -221.556015 
L 614.716621 -221.93565 
L 613.29088 -222.322676 
L 611.86514 -222.706463 
L 610.439399 -223.077984 
L 609.013658 -223.430373 
L 607.587918 -223.759264 
L 606.162177 -224.062868 
L 604.736436 -224.341812 
L 603.310695 -224.598772 
L 601.884955 -224.837965 
L 600.459214 -225.064585 
L 599.033473 -225.284246 
L 597.607733 -225.502489 
L 596.181992 -225.72439 
L 594.756251 -225.954262 
L 593.33051 -226.195455 
L 591.90477 -226.450225 
L 590.479029 -226.719674 
L 589.053288 -227.003728 
L 587.627547 -227.301181 
L 586.201807 -227.609795 
L 584.776066 -227.926449 
L 583.350325 -228.247362 
L 581.924585 -228.568345 
L 580.498844 -228.885073 
L 579.073103 -229.193354 
L 577.647362 -229.48936 
L 576.221622 -229.76982 
L 574.795881 -230.032144 
L 573.37014 -230.274506 
L 571.944399 -230.495872 
L 570.518659 -230.695991 
L 569.092918 -230.875348 
L 567.667177 -231.035085 
L 566.241437 -231.176891 
L 564.815696 -231.30287 
L 563.389955 -231.415383 
L 561.964214 -231.516883 
L 560.538474 -231.60976 
L 559.112733 -231.696185 
L 557.686992 -231.777992 
L 556.261251 -231.85658 
L 554.835511 -231.932853 
L 553.40977 -232.007196 
L 551.984029 -232.079496 
L 550.558289 -232.149202 
L 549.132548 -232.215435 
L 547.706807 -232.27714 
L 546.281066 -232.333252 
L 544.855326 -232.382884 
L 543.429585 -232.425478 
L 542.003844 -232.460919 
L 540.578103 -232.48958 
L 539.152363 -232.512282 
L 537.726622 -232.530203 
L 536.300881 -232.544712 
L 534.875141 -232.557198 
L 533.4494 -232.5689 
z
" id="m7827e5d4e2" style="stroke:#333333;"/>
    </defs>
    <g clip-path="url(#pa562f299ef)">
     <use style="fill:#484566;stroke:#333333;" x="0" xlink:href="#m7827e5d4e2" y="319.847195"/>
    </g>
   </g>
   <g id="PolyCollection_4">
    <defs>
     <path d="M 538.742073 -206.380842 
L 538.742073 -208.110075 
L 540.12543 -208.181251 
L 541.508786 -208.251741 
L 542.892143 -208.321639 
L 544.275499 -208.391388 
L 545.658856 -208.461798 
L 547.042212 -208.534031 
L 548.425569 -208.609559 
L 549.808925 -208.690101 
L 551.192282 -208.77753 
L 552.575638 -208.873775 
L 553.958995 -208.980705 
L 555.342351 -209.10002 
L 556.725708 -209.23315 
L 558.109064 -209.381164 
L 559.492421 -209.544715 
L 560.875777 -209.723994 
L 562.259134 -209.918724 
L 563.64249 -210.128177 
L 565.025847 -210.35121 
L 566.409203 -210.586328 
L 567.79256 -210.831756 
L 569.175916 -211.085517 
L 570.559273 -211.34552 
L 571.942629 -211.609632 
L 573.325986 -211.87576 
L 574.709342 -212.141903 
L 576.092699 -212.406209 
L 577.476055 -212.666998 
L 578.859412 -212.922786 
L 580.242768 -213.172281 
L 581.626125 -213.414373 
L 583.009481 -213.648106 
L 584.392838 -213.872647 
L 585.776194 -214.087252 
L 587.159551 -214.291225 
L 588.542907 -214.483897 
L 589.926264 -214.664607 
L 591.30962 -214.832703 
L 592.692977 -214.987556 
L 594.076333 -215.128592 
L 595.45969 -215.255336 
L 596.843046 -215.367465 
L 598.226403 -215.464862 
L 599.60976 -215.547657 
L 600.993116 -215.616267 
L 602.376473 -215.671408 
L 603.759829 -215.714083 
L 605.143186 -215.745559 
L 606.526542 -215.76731 
L 607.909899 -215.780953 
L 609.293255 -215.788173 
L 610.676612 -215.790645 
L 612.059968 -215.789969 
L 613.443325 -215.787615 
L 614.826681 -215.784887 
L 616.210038 -215.782915 
L 617.593394 -215.782662 
L 618.976751 -215.78495 
L 620.360107 -215.790497 
L 621.743464 -215.799965 
L 623.12682 -215.813987 
L 624.510177 -215.833202 
L 625.893533 -215.858247 
L 627.27689 -215.889741 
L 628.660246 -215.928231 
L 630.043603 -215.974117 
L 631.426959 -216.027553 
L 632.810316 -216.088334 
L 634.193672 -216.155786 
L 635.577029 -216.228659 
L 636.960385 -216.305049 
L 638.343742 -216.382352 
L 639.727098 -216.457261 
L 641.110455 -216.525821 
L 642.493811 -216.583528 
L 643.877168 -216.625491 
L 645.260524 -216.646627 
L 646.643881 -216.641894 
L 648.027237 -216.606544 
L 649.410594 -216.536373 
L 650.79395 -216.427952 
L 652.177307 -216.278831 
L 653.560663 -216.087684 
L 654.94402 -215.85441 
L 656.327376 -215.580151 
L 657.710733 -215.267258 
L 659.094089 -214.919191 
L 660.477446 -214.540364 
L 661.860802 -214.135952 
L 663.244159 -213.71167 
L 664.627515 -213.273541 
L 666.010872 -212.827669 
L 667.394228 -212.380022 
L 668.777585 -211.936253 
L 670.160941 -211.501539 
L 671.544298 -211.080475 
L 672.927654 -210.676988 
L 674.311011 -210.294303 
L 675.694367 -209.934929 
L 675.694367 -204.555988 
L 675.694367 -204.555988 
L 674.311011 -204.196614 
L 672.927654 -203.813929 
L 671.544298 -203.410442 
L 670.160941 -202.989378 
L 668.777585 -202.554664 
L 667.394228 -202.110894 
L 666.010872 -201.663248 
L 664.627515 -201.217375 
L 663.244159 -200.779247 
L 661.860802 -200.354965 
L 660.477446 -199.950553 
L 659.094089 -199.571726 
L 657.710733 -199.223659 
L 656.327376 -198.910766 
L 654.94402 -198.636507 
L 653.560663 -198.403232 
L 652.177307 -198.212086 
L 650.79395 -198.062965 
L 649.410594 -197.954544 
L 648.027237 -197.884373 
L 646.643881 -197.849023 
L 645.260524 -197.84429 
L 643.877168 -197.865426 
L 642.493811 -197.907389 
L 641.110455 -197.965096 
L 639.727098 -198.033656 
L 638.343742 -198.108565 
L 636.960385 -198.185868 
L 635.577029 -198.262258 
L 634.193672 -198.335131 
L 632.810316 -198.402583 
L 631.426959 -198.463364 
L 630.043603 -198.516799 
L 628.660246 -198.562686 
L 627.27689 -198.601176 
L 625.893533 -198.63267 
L 624.510177 -198.657715 
L 623.12682 -198.676929 
L 621.743464 -198.690952 
L 620.360107 -198.700419 
L 618.976751 -198.705967 
L 617.593394 -198.708254 
L 616.210038 -198.708001 
L 614.826681 -198.70603 
L 613.443325 -198.703302 
L 612.059968 -198.700948 
L 610.676612 -198.700272 
L 609.293255 -198.702744 
L 607.909899 -198.709963 
L 606.526542 -198.723607 
L 605.143186 -198.745358 
L 603.759829 -198.776834 
L 602.376473 -198.819509 
L 600.993116 -198.874649 
L 599.60976 -198.94326 
L 598.226403 -199.026055 
L 596.843046 -199.123452 
L 595.45969 -199.235581 
L 594.076333 -199.362325 
L 592.692977 -199.503361 
L 591.30962 -199.658213 
L 589.926264 -199.826309 
L 588.542907 -200.00702 
L 587.159551 -200.199692 
L 585.776194 -200.403665 
L 584.392838 -200.618269 
L 583.009481 -200.842811 
L 581.626125 -201.076544 
L 580.242768 -201.318636 
L 578.859412 -201.568131 
L 577.476055 -201.823919 
L 576.092699 -202.084708 
L 574.709342 -202.349013 
L 573.325986 -202.615157 
L 571.942629 -202.881285 
L 570.559273 -203.145397 
L 569.175916 -203.405399 
L 567.79256 -203.659161 
L 566.409203 -203.904589 
L 565.025847 -204.139707 
L 563.64249 -204.36274 
L 562.259134 -204.572192 
L 560.875777 -204.766922 
L 559.492421 -204.946201 
L 558.109064 -205.109752 
L 556.725708 -205.257767 
L 555.342351 -205.390897 
L 553.958995 -205.510212 
L 552.575638 -205.617142 
L 551.192282 -205.713387 
L 549.808925 -205.800816 
L 548.425569 -205.881357 
L 547.042212 -205.956886 
L 545.658856 -206.029119 
L 544.275499 -206.099529 
L 542.892143 -206.169278 
L 541.508786 -206.239175 
L 540.12543 -206.309665 
L 538.742073 -206.380842 
z
" id="m2e12ed3e9d" style="stroke:#333333;"/>
    </defs>
    <g clip-path="url(#pa562f299ef)">
     <use style="fill:#b75e1a;stroke:#333333;" x="0" xlink:href="#m2e12ed3e9d" y="319.847195"/>
    </g>
   </g>
   <g id="PolyCollection_5">
    <defs>
     <path d="M 552.65919 -158.754088 
L 552.65919 -179.278328 
L 553.787026 -179.497732 
L 554.914863 -179.709501 
L 556.042699 -179.913065 
L 557.170535 -180.10788 
L 558.298371 -180.293437 
L 559.426207 -180.46926 
L 560.554043 -180.634914 
L 561.681879 -180.790004 
L 562.809715 -180.934183 
L 563.937552 -181.067152 
L 565.065388 -181.188664 
L 566.193224 -181.298523 
L 567.32106 -181.396591 
L 568.448896 -181.482787 
L 569.576732 -181.557087 
L 570.704568 -181.619527 
L 571.832405 -181.670204 
L 572.960241 -181.709274 
L 574.088077 -181.736952 
L 575.215913 -181.753514 
L 576.343749 -181.759292 
L 577.471585 -181.754674 
L 578.599421 -181.740103 
L 579.727257 -181.716073 
L 580.855094 -181.683128 
L 581.98293 -181.641855 
L 583.110766 -181.592884 
L 584.238602 -181.536885 
L 585.366438 -181.474557 
L 586.494274 -181.406633 
L 587.62211 -181.333866 
L 588.749947 -181.257032 
L 589.877783 -181.176917 
L 591.005619 -181.094318 
L 592.133455 -181.010035 
L 593.261291 -180.924865 
L 594.389127 -180.839597 
L 595.516963 -180.755008 
L 596.644799 -180.671854 
L 597.772636 -180.590868 
L 598.900472 -180.512755 
L 600.028308 -180.438183 
L 601.156144 -180.367783 
L 602.28398 -180.302143 
L 603.411816 -180.241803 
L 604.539652 -180.18725 
L 605.667489 -180.13892 
L 606.795325 -180.097189 
L 607.923161 -180.062372 
L 609.050997 -180.034724 
L 610.178833 -180.014434 
L 611.306669 -180.001628 
L 612.434505 -179.996364 
L 613.562342 -179.998635 
L 614.690178 -180.008367 
L 615.818014 -180.025421 
L 616.94585 -180.049594 
L 618.073686 -180.080621 
L 619.201522 -180.118176 
L 620.329358 -180.161875 
L 621.457194 -180.211278 
L 622.585031 -180.265894 
L 623.712867 -180.325184 
L 624.840703 -180.388564 
L 625.968539 -180.45541 
L 627.096375 -180.525061 
L 628.224211 -180.596828 
L 629.352047 -180.669992 
L 630.479884 -180.743814 
L 631.60772 -180.817541 
L 632.735556 -180.890407 
L 633.863392 -180.96164 
L 634.991228 -181.030468 
L 636.119064 -181.096124 
L 637.2469 -181.157849 
L 638.374736 -181.214901 
L 639.502573 -181.266557 
L 640.630409 -181.312115 
L 641.758245 -181.350907 
L 642.886081 -181.382292 
L 644.013917 -181.405669 
L 645.141753 -181.420477 
L 646.269589 -181.426197 
L 647.397426 -181.422359 
L 648.525262 -181.40854 
L 649.653098 -181.38437 
L 650.780934 -181.349531 
L 651.90877 -181.303761 
L 653.036606 -181.246854 
L 654.164442 -181.17866 
L 655.292278 -181.099089 
L 656.420115 -181.008104 
L 657.547951 -180.905728 
L 658.675787 -180.792039 
L 659.803623 -180.66717 
L 660.931459 -180.531309 
L 662.059295 -180.384694 
L 663.187131 -180.227613 
L 664.314968 -180.060402 
L 664.314968 -157.972015 
L 664.314968 -157.972015 
L 663.187131 -157.804804 
L 662.059295 -157.647723 
L 660.931459 -157.501107 
L 659.803623 -157.365246 
L 658.675787 -157.240378 
L 657.547951 -157.126689 
L 656.420115 -157.024313 
L 655.292278 -156.933328 
L 654.164442 -156.853756 
L 653.036606 -156.785563 
L 651.90877 -156.728656 
L 650.780934 -156.682886 
L 649.653098 -156.648047 
L 648.525262 -156.623876 
L 647.397426 -156.610058 
L 646.269589 -156.606219 
L 645.141753 -156.61194 
L 644.013917 -156.626748 
L 642.886081 -156.650125 
L 641.758245 -156.68151 
L 640.630409 -156.720301 
L 639.502573 -156.76586 
L 638.374736 -156.817515 
L 637.2469 -156.874568 
L 636.119064 -156.936293 
L 634.991228 -157.001949 
L 633.863392 -157.070777 
L 632.735556 -157.14201 
L 631.60772 -157.214875 
L 630.479884 -157.288602 
L 629.352047 -157.362425 
L 628.224211 -157.435589 
L 627.096375 -157.507355 
L 625.968539 -157.577007 
L 624.840703 -157.643853 
L 623.712867 -157.707233 
L 622.585031 -157.766523 
L 621.457194 -157.821139 
L 620.329358 -157.870542 
L 619.201522 -157.914241 
L 618.073686 -157.951796 
L 616.94585 -157.982823 
L 615.818014 -158.006996 
L 614.690178 -158.02405 
L 613.562342 -158.033782 
L 612.434505 -158.036053 
L 611.306669 -158.030789 
L 610.178833 -158.017982 
L 609.050997 -157.997693 
L 607.923161 -157.970045 
L 606.795325 -157.935228 
L 605.667489 -157.893496 
L 604.539652 -157.845166 
L 603.411816 -157.790614 
L 602.28398 -157.730273 
L 601.156144 -157.664633 
L 600.028308 -157.594234 
L 598.900472 -157.519662 
L 597.772636 -157.441549 
L 596.644799 -157.360563 
L 595.516963 -157.277409 
L 594.389127 -157.19282 
L 593.261291 -157.107552 
L 592.133455 -157.022382 
L 591.005619 -156.938099 
L 589.877783 -156.8555 
L 588.749947 -156.775385 
L 587.62211 -156.69855 
L 586.494274 -156.625784 
L 585.366438 -156.557859 
L 584.238602 -156.495532 
L 583.110766 -156.439532 
L 581.98293 -156.390562 
L 580.855094 -156.349289 
L 579.727257 -156.316344 
L 578.599421 -156.292314 
L 577.471585 -156.277743 
L 576.343749 -156.273125 
L 575.215913 -156.278903 
L 574.088077 -156.295464 
L 572.960241 -156.323143 
L 571.832405 -156.362212 
L 570.704568 -156.412889 
L 569.576732 -156.47533 
L 568.448896 -156.54963 
L 567.32106 -156.635825 
L 566.193224 -156.733894 
L 565.065388 -156.843753 
L 563.937552 -156.965264 
L 562.809715 -157.098234 
L 561.681879 -157.242413 
L 560.554043 -157.397503 
L 559.426207 -157.563156 
L 558.298371 -157.738979 
L 557.170535 -157.924536 
L 556.042699 -158.119352 
L 554.914863 -158.322916 
L 553.787026 -158.534685 
L 552.65919 -158.754088 
z
" id="m81d82a30c8" style="stroke:#333333;"/>
    </defs>
    <g clip-path="url(#pa562f299ef)">
     <use style="fill:#484566;stroke:#333333;" x="0" xlink:href="#m81d82a30c8" y="319.847195"/>
    </g>
   </g>
   <g id="PolyCollection_6">
    <defs>
     <path d="M 490.369701 -137.567637 
L 490.369701 -149.492446 
L 491.934163 -149.54343 
L 493.498625 -149.591111 
L 495.063087 -149.635503 
L 496.627549 -149.676631 
L 498.19201 -149.714537 
L 499.756472 -149.749274 
L 501.320934 -149.780909 
L 502.885396 -149.809525 
L 504.449858 -149.835214 
L 506.01432 -149.858084 
L 507.578781 -149.878255 
L 509.143243 -149.895858 
L 510.707705 -149.911037 
L 512.272167 -149.923945 
L 513.836629 -149.934748 
L 515.401091 -149.943619 
L 516.965552 -149.950739 
L 518.530014 -149.956301 
L 520.094476 -149.960502 
L 521.658938 -149.963544 
L 523.2234 -149.965636 
L 524.787862 -149.966991 
L 526.352323 -149.967825 
L 527.916785 -149.968354 
L 529.481247 -149.968797 
L 531.045709 -149.969372 
L 532.610171 -149.970294 
L 534.174633 -149.971778 
L 535.739094 -149.974032 
L 537.303556 -149.977262 
L 538.868018 -149.981666 
L 540.43248 -149.987435 
L 541.996942 -149.994754 
L 543.561404 -150.003794 
L 545.125865 -150.014721 
L 546.690327 -150.027686 
L 548.254789 -150.042829 
L 549.819251 -150.060276 
L 551.383713 -150.080142 
L 552.948175 -150.102524 
L 554.512636 -150.127505 
L 556.077098 -150.155153 
L 557.64156 -150.185518 
L 559.206022 -150.218633 
L 560.770484 -150.254516 
L 562.334946 -150.293166 
L 563.899407 -150.334564 
L 565.463869 -150.378674 
L 567.028331 -150.425441 
L 568.592793 -150.474793 
L 570.157255 -150.526642 
L 571.721717 -150.58088 
L 573.286178 -150.637384 
L 574.85064 -150.696013 
L 576.415102 -150.756612 
L 577.979564 -150.819008 
L 579.544026 -150.883016 
L 581.108488 -150.948435 
L 582.672949 -151.015051 
L 584.237411 -151.082639 
L 585.801873 -151.150962 
L 587.366335 -151.219773 
L 588.930797 -151.288816 
L 590.495259 -151.357826 
L 592.05972 -151.426531 
L 593.624182 -151.494656 
L 595.188644 -151.561918 
L 596.753106 -151.628033 
L 598.317568 -151.692714 
L 599.88203 -151.755675 
L 601.446491 -151.816628 
L 603.010953 -151.875289 
L 604.575415 -151.931378 
L 606.139877 -151.984616 
L 607.704339 -152.034734 
L 609.268801 -152.081466 
L 610.833262 -152.124557 
L 612.397724 -152.16376 
L 613.962186 -152.198838 
L 615.526648 -152.229567 
L 617.09111 -152.255733 
L 618.655572 -152.277137 
L 620.220033 -152.293593 
L 621.784495 -152.304932 
L 623.348957 -152.310998 
L 624.913419 -152.311653 
L 626.477881 -152.306775 
L 628.042343 -152.296259 
L 629.606805 -152.280019 
L 631.171266 -152.257985 
L 632.735728 -152.230108 
L 634.30019 -152.196354 
L 635.864652 -152.156709 
L 637.429114 -152.111178 
L 638.993576 -152.059783 
L 640.558037 -152.002565 
L 642.122499 -151.939581 
L 643.686961 -151.870908 
L 645.251423 -151.796638 
L 645.251423 -135.263446 
L 645.251423 -135.263446 
L 643.686961 -135.189175 
L 642.122499 -135.120502 
L 640.558037 -135.057518 
L 638.993576 -135.0003 
L 637.429114 -134.948905 
L 635.864652 -134.903374 
L 634.30019 -134.86373 
L 632.735728 -134.829976 
L 631.171266 -134.802098 
L 629.606805 -134.780064 
L 628.042343 -134.763824 
L 626.477881 -134.753308 
L 624.913419 -134.74843 
L 623.348957 -134.749085 
L 621.784495 -134.755151 
L 620.220033 -134.76649 
L 618.655572 -134.782947 
L 617.09111 -134.804351 
L 615.526648 -134.830517 
L 613.962186 -134.861245 
L 612.397724 -134.896323 
L 610.833262 -134.935526 
L 609.268801 -134.978617 
L 607.704339 -135.025349 
L 606.139877 -135.075467 
L 604.575415 -135.128705 
L 603.010953 -135.184794 
L 601.446491 -135.243455 
L 599.88203 -135.304409 
L 598.317568 -135.367369 
L 596.753106 -135.432051 
L 595.188644 -135.498166 
L 593.624182 -135.565428 
L 592.05972 -135.633552 
L 590.495259 -135.702258 
L 588.930797 -135.771267 
L 587.366335 -135.84031 
L 585.801873 -135.909121 
L 584.237411 -135.977444 
L 582.672949 -136.045033 
L 581.108488 -136.111649 
L 579.544026 -136.177067 
L 577.979564 -136.241075 
L 576.415102 -136.303471 
L 574.85064 -136.36407 
L 573.286178 -136.422699 
L 571.721717 -136.479203 
L 570.157255 -136.533441 
L 568.592793 -136.58529 
L 567.028331 -136.634643 
L 565.463869 -136.68141 
L 563.899407 -136.725519 
L 562.334946 -136.766917 
L 560.770484 -136.805567 
L 559.206022 -136.84145 
L 557.64156 -136.874566 
L 556.077098 -136.90493 
L 554.512636 -136.932578 
L 552.948175 -136.957559 
L 551.383713 -136.979941 
L 549.819251 -136.999807 
L 548.254789 -137.017255 
L 546.690327 -137.032398 
L 545.125865 -137.045362 
L 543.561404 -137.056289 
L 541.996942 -137.06533 
L 540.43248 -137.072648 
L 538.868018 -137.078418 
L 537.303556 -137.082821 
L 535.739094 -137.086051 
L 534.174633 -137.088306 
L 532.610171 -137.089789 
L 531.045709 -137.090711 
L 529.481247 -137.091286 
L 527.916785 -137.091729 
L 526.352323 -137.092258 
L 524.787862 -137.093092 
L 523.2234 -137.094447 
L 521.658938 -137.09654 
L 520.094476 -137.099582 
L 518.530014 -137.103782 
L 516.965552 -137.109344 
L 515.401091 -137.116465 
L 513.836629 -137.125335 
L 512.272167 -137.136138 
L 510.707705 -137.149046 
L 509.143243 -137.164225 
L 507.578781 -137.181829 
L 506.01432 -137.201999 
L 504.449858 -137.22487 
L 502.885396 -137.250559 
L 501.320934 -137.279174 
L 499.756472 -137.310809 
L 498.19201 -137.345546 
L 496.627549 -137.383452 
L 495.063087 -137.424581 
L 493.498625 -137.468972 
L 491.934163 -137.516654 
L 490.369701 -137.567637 
z
" id="mfea661a511" style="stroke:#333333;"/>
    </defs>
    <g clip-path="url(#pa562f299ef)">
     <use style="fill:#b75e1a;stroke:#333333;" x="0" xlink:href="#mfea661a511" y="319.847195"/>
    </g>
   </g>
   <g id="patch_86">
    <path clip-path="url(#pa562f299ef)" d="M 442.787444 36.143237 
L 442.787444 36.143237 
L 442.787444 36.143237 
L 442.787444 36.143237 
z
" style="fill:#484566;stroke:#333333;stroke-linejoin:miter;stroke-width:0.5;"/>
   </g>
   <g id="patch_87">
    <path clip-path="url(#pa562f299ef)" d="M 442.787444 36.143237 
L 442.787444 36.143237 
L 442.787444 36.143237 
L 442.787444 36.143237 
z
" style="fill:#b75e1a;stroke:#333333;stroke-linejoin:miter;stroke-width:0.5;"/>
   </g>
   <g id="matplotlib.axis_3">
    <g id="xtick_5">
     <g id="line2d_11">
      <g>
       <use style="stroke:#000000;stroke-width:1.6;" x="442.787444" xlink:href="#mfe790ed9df" y="259.147195"/>
      </g>
     </g>
     <g id="text_12">
      <!-- 0.0 -->
      <g transform="translate(426.884319 289.04407)scale(0.2 -0.2)">
       <use xlink:href="#DejaVuSans-48"/>
       <use x="63.623047" xlink:href="#DejaVuSans-46"/>
       <use x="95.410156" xlink:href="#DejaVuSans-48"/>
      </g>
     </g>
    </g>
    <g id="xtick_6">
     <g id="line2d_12">
      <g>
       <use style="stroke:#000000;stroke-width:1.6;" x="510.750556" xlink:href="#mfe790ed9df" y="259.147195"/>
      </g>
     </g>
     <g id="text_13">
      <!-- 0.2 -->
      <g transform="translate(494.847431 289.04407)scale(0.2 -0.2)">
       <use xlink:href="#DejaVuSans-48"/>
       <use x="63.623047" xlink:href="#DejaVuSans-46"/>
       <use x="95.410156" xlink:href="#DejaVuSans-50"/>
      </g>
     </g>
    </g>
    <g id="xtick_7">
     <g id="line2d_13">
      <g>
       <use style="stroke:#000000;stroke-width:1.6;" x="578.713667" xlink:href="#mfe790ed9df" y="259.147195"/>
      </g>
     </g>
     <g id="text_14">
      <!-- 0.4 -->
      <g transform="translate(562.810542 289.04407)scale(0.2 -0.2)">
       <use xlink:href="#DejaVuSans-48"/>
       <use x="63.623047" xlink:href="#DejaVuSans-46"/>
       <use x="95.410156" xlink:href="#DejaVuSans-52"/>
      </g>
     </g>
    </g>
    <g id="xtick_8">
     <g id="line2d_14">
      <g>
       <use style="stroke:#000000;stroke-width:1.6;" x="646.676778" xlink:href="#mfe790ed9df" y="259.147195"/>
      </g>
     </g>
     <g id="text_15">
      <!-- 0.6 -->
      <g transform="translate(630.773653 289.04407)scale(0.2 -0.2)">
       <use xlink:href="#DejaVuSans-48"/>
       <use x="63.623047" xlink:href="#DejaVuSans-46"/>
       <use x="95.410156" xlink:href="#DejaVuSans-54"/>
      </g>
     </g>
    </g>
    <g id="text_16">
     <!-- Max JS Divergence within $\epsilon$ -->
     <g transform="translate(417.6275 312.403445)scale(0.2 -0.2)">
      <use transform="translate(0 0.015625)" xlink:href="#DejaVuSans-77"/>
      <use transform="translate(86.279297 0.015625)" xlink:href="#DejaVuSans-97"/>
      <use transform="translate(147.558594 0.015625)" xlink:href="#DejaVuSans-120"/>
      <use transform="translate(206.738281 0.015625)" xlink:href="#DejaVuSans-32"/>
      <use transform="translate(238.525391 0.015625)" xlink:href="#DejaVuSans-74"/>
      <use transform="translate(268.017578 0.015625)" xlink:href="#DejaVuSans-83"/>
      <use transform="translate(331.494141 0.015625)" xlink:href="#DejaVuSans-32"/>
      <use transform="translate(363.28125 0.015625)" xlink:href="#DejaVuSans-68"/>
      <use transform="translate(440.283203 0.015625)" xlink:href="#DejaVuSans-105"/>
      <use transform="translate(468.066406 0.015625)" xlink:href="#DejaVuSans-118"/>
      <use transform="translate(527.246094 0.015625)" xlink:href="#DejaVuSans-101"/>
      <use transform="translate(588.769531 0.015625)" xlink:href="#DejaVuSans-114"/>
      <use transform="translate(629.882812 0.015625)" xlink:href="#DejaVuSans-103"/>
      <use transform="translate(693.359375 0.015625)" xlink:href="#DejaVuSans-101"/>
      <use transform="translate(754.882812 0.015625)" xlink:href="#DejaVuSans-110"/>
      <use transform="translate(818.261719 0.015625)" xlink:href="#DejaVuSans-99"/>
      <use transform="translate(873.242188 0.015625)" xlink:href="#DejaVuSans-101"/>
      <use transform="translate(934.765625 0.015625)" xlink:href="#DejaVuSans-32"/>
      <use transform="translate(966.552734 0.015625)" xlink:href="#DejaVuSans-119"/>
      <use transform="translate(1048.339844 0.015625)" xlink:href="#DejaVuSans-105"/>
      <use transform="translate(1076.123047 0.015625)" xlink:href="#DejaVuSans-116"/>
      <use transform="translate(1115.332031 0.015625)" xlink:href="#DejaVuSans-104"/>
      <use transform="translate(1178.710938 0.015625)" xlink:href="#DejaVuSans-105"/>
      <use transform="translate(1206.494141 0.015625)" xlink:href="#DejaVuSans-110"/>
      <use transform="translate(1269.873047 0.015625)" xlink:href="#DejaVuSans-32"/>
      <use transform="translate(1301.660156 0.015625)" xlink:href="#DejaVuSans-Oblique-949"/>
     </g>
    </g>
   </g>
   <g id="matplotlib.axis_4">
    <g id="ytick_7">
     <g id="line2d_15">
      <g>
       <use style="stroke:#000000;stroke-width:1.6;" x="425.796667" xlink:href="#mdb2877f33f" y="36.143237"/>
      </g>
     </g>
     <g id="text_17">
      <!-- [0.00, -->
      <defs>
       <path d="M 8.59375 75.984375 
L 29.296875 75.984375 
L 29.296875 69 
L 17.578125 69 
L 17.578125 -6.203125 
L 29.296875 -6.203125 
L 29.296875 -13.1875 
L 8.59375 -13.1875 
z
" id="DejaVuSans-91"/>
       <path d="M 11.71875 12.40625 
L 22.015625 12.40625 
L 22.015625 4 
L 14.015625 -11.625 
L 7.71875 -11.625 
L 11.71875 4 
z
" id="DejaVuSans-44"/>
      </defs>
      <g transform="translate(352.406042 32.543862)scale(0.2 -0.2)">
       <use xlink:href="#DejaVuSans-91"/>
       <use x="39.013672" xlink:href="#DejaVuSans-48"/>
       <use x="102.636719" xlink:href="#DejaVuSans-46"/>
       <use x="134.423828" xlink:href="#DejaVuSans-48"/>
       <use x="198.046875" xlink:href="#DejaVuSans-48"/>
       <use x="261.669922" xlink:href="#DejaVuSans-44"/>
      </g>
      <!-- 0.25) -->
      <defs>
       <path d="M 10.796875 72.90625 
L 49.515625 72.90625 
L 49.515625 64.59375 
L 19.828125 64.59375 
L 19.828125 46.734375 
Q 21.96875 47.46875 24.109375 47.828125 
Q 26.265625 48.1875 28.421875 48.1875 
Q 40.625 48.1875 47.75 41.5 
Q 54.890625 34.8125 54.890625 23.390625 
Q 54.890625 11.625 47.5625 5.09375 
Q 40.234375 -1.421875 26.90625 -1.421875 
Q 22.3125 -1.421875 17.546875 -0.640625 
Q 12.796875 0.140625 7.71875 1.703125 
L 7.71875 11.625 
Q 12.109375 9.234375 16.796875 8.0625 
Q 21.484375 6.890625 26.703125 6.890625 
Q 35.15625 6.890625 40.078125 11.328125 
Q 45.015625 15.765625 45.015625 23.390625 
Q 45.015625 31 40.078125 35.4375 
Q 35.15625 39.890625 26.703125 39.890625 
Q 22.75 39.890625 18.8125 39.015625 
Q 14.890625 38.140625 10.796875 36.28125 
z
" id="DejaVuSans-53"/>
       <path d="M 8.015625 75.875 
L 15.828125 75.875 
Q 23.140625 64.359375 26.78125 53.3125 
Q 30.421875 42.28125 30.421875 31.390625 
Q 30.421875 20.453125 26.78125 9.375 
Q 23.140625 -1.703125 15.828125 -13.1875 
L 8.015625 -13.1875 
Q 14.5 -2 17.703125 9.0625 
Q 20.90625 20.125 20.90625 31.390625 
Q 20.90625 42.671875 17.703125 53.65625 
Q 14.5 64.65625 8.015625 75.875 
z
" id="DejaVuSans-41"/>
      </defs>
      <g transform="translate(358.762292 54.939487)scale(0.2 -0.2)">
       <use xlink:href="#DejaVuSans-48"/>
       <use x="63.623047" xlink:href="#DejaVuSans-46"/>
       <use x="95.410156" xlink:href="#DejaVuSans-50"/>
       <use x="159.033203" xlink:href="#DejaVuSans-53"/>
       <use x="222.65625" xlink:href="#DejaVuSans-41"/>
      </g>
     </g>
    </g>
    <g id="ytick_8">
     <g id="line2d_16">
      <g>
       <use style="stroke:#000000;stroke-width:1.6;" x="425.796667" xlink:href="#mdb2877f33f" y="99.858654"/>
      </g>
     </g>
     <g id="text_18">
      <!-- [0.25, -->
      <g transform="translate(352.406042 96.259279)scale(0.2 -0.2)">
       <use xlink:href="#DejaVuSans-91"/>
       <use x="39.013672" xlink:href="#DejaVuSans-48"/>
       <use x="102.636719" xlink:href="#DejaVuSans-46"/>
       <use x="134.423828" xlink:href="#DejaVuSans-50"/>
       <use x="198.046875" xlink:href="#DejaVuSans-53"/>
       <use x="261.669922" xlink:href="#DejaVuSans-44"/>
      </g>
      <!-- 0.50) -->
      <g transform="translate(358.762292 118.654904)scale(0.2 -0.2)">
       <use xlink:href="#DejaVuSans-48"/>
       <use x="63.623047" xlink:href="#DejaVuSans-46"/>
       <use x="95.410156" xlink:href="#DejaVuSans-53"/>
       <use x="159.033203" xlink:href="#DejaVuSans-48"/>
       <use x="222.65625" xlink:href="#DejaVuSans-41"/>
      </g>
     </g>
    </g>
    <g id="ytick_9">
     <g id="line2d_17">
      <g>
       <use style="stroke:#000000;stroke-width:1.6;" x="425.796667" xlink:href="#mdb2877f33f" y="163.57407"/>
      </g>
     </g>
     <g id="text_19">
      <!-- [0.50, -->
      <g transform="translate(352.406042 159.974695)scale(0.2 -0.2)">
       <use xlink:href="#DejaVuSans-91"/>
       <use x="39.013672" xlink:href="#DejaVuSans-48"/>
       <use x="102.636719" xlink:href="#DejaVuSans-46"/>
       <use x="134.423828" xlink:href="#DejaVuSans-53"/>
       <use x="198.046875" xlink:href="#DejaVuSans-48"/>
       <use x="261.669922" xlink:href="#DejaVuSans-44"/>
      </g>
      <!-- 0.75) -->
      <defs>
       <path d="M 8.203125 72.90625 
L 55.078125 72.90625 
L 55.078125 68.703125 
L 28.609375 0 
L 18.3125 0 
L 43.21875 64.59375 
L 8.203125 64.59375 
z
" id="DejaVuSans-55"/>
      </defs>
      <g transform="translate(358.762292 182.37032)scale(0.2 -0.2)">
       <use xlink:href="#DejaVuSans-48"/>
       <use x="63.623047" xlink:href="#DejaVuSans-46"/>
       <use x="95.410156" xlink:href="#DejaVuSans-55"/>
       <use x="159.033203" xlink:href="#DejaVuSans-53"/>
       <use x="222.65625" xlink:href="#DejaVuSans-41"/>
      </g>
     </g>
    </g>
    <g id="ytick_10">
     <g id="line2d_18">
      <g>
       <use style="stroke:#000000;stroke-width:1.6;" x="425.796667" xlink:href="#mdb2877f33f" y="227.289487"/>
      </g>
     </g>
     <g id="text_20">
      <!-- [0.75, -->
      <g transform="translate(352.406042 223.690112)scale(0.2 -0.2)">
       <use xlink:href="#DejaVuSans-91"/>
       <use x="39.013672" xlink:href="#DejaVuSans-48"/>
       <use x="102.636719" xlink:href="#DejaVuSans-46"/>
       <use x="134.423828" xlink:href="#DejaVuSans-55"/>
       <use x="198.046875" xlink:href="#DejaVuSans-53"/>
       <use x="261.669922" xlink:href="#DejaVuSans-44"/>
      </g>
      <!-- 1.00) -->
      <g transform="translate(358.762292 246.085737)scale(0.2 -0.2)">
       <use xlink:href="#DejaVuSans-49"/>
       <use x="63.623047" xlink:href="#DejaVuSans-46"/>
       <use x="95.410156" xlink:href="#DejaVuSans-48"/>
       <use x="159.033203" xlink:href="#DejaVuSans-48"/>
       <use x="222.65625" xlink:href="#DejaVuSans-41"/>
      </g>
     </g>
    </g>
    <g id="text_21">
     <!-- Max Attention -->
     <defs>
      <path d="M 34.1875 63.1875 
L 20.796875 26.90625 
L 47.609375 26.90625 
z
M 28.609375 72.90625 
L 39.796875 72.90625 
L 67.578125 0 
L 57.328125 0 
L 50.6875 18.703125 
L 17.828125 18.703125 
L 11.1875 0 
L 0.78125 0 
z
" id="DejaVuSans-65"/>
      <path d="M 30.609375 48.390625 
Q 23.390625 48.390625 19.1875 42.75 
Q 14.984375 37.109375 14.984375 27.296875 
Q 14.984375 17.484375 19.15625 11.84375 
Q 23.34375 6.203125 30.609375 6.203125 
Q 37.796875 6.203125 41.984375 11.859375 
Q 46.1875 17.53125 46.1875 27.296875 
Q 46.1875 37.015625 41.984375 42.703125 
Q 37.796875 48.390625 30.609375 48.390625 
z
M 30.609375 56 
Q 42.328125 56 49.015625 48.375 
Q 55.71875 40.765625 55.71875 27.296875 
Q 55.71875 13.875 49.015625 6.21875 
Q 42.328125 -1.421875 30.609375 -1.421875 
Q 18.84375 -1.421875 12.171875 6.21875 
Q 5.515625 13.875 5.515625 27.296875 
Q 5.515625 40.765625 12.171875 48.375 
Q 18.84375 56 30.609375 56 
z
" id="DejaVuSans-111"/>
     </defs>
     <g transform="translate(344.246667 201.894487)rotate(-90)scale(0.2 -0.2)">
      <use xlink:href="#DejaVuSans-77"/>
      <use x="86.279297" xlink:href="#DejaVuSans-97"/>
      <use x="147.558594" xlink:href="#DejaVuSans-120"/>
      <use x="206.738281" xlink:href="#DejaVuSans-32"/>
      <use x="238.525391" xlink:href="#DejaVuSans-65"/>
      <use x="306.917969" xlink:href="#DejaVuSans-116"/>
      <use x="346.126953" xlink:href="#DejaVuSans-116"/>
      <use x="385.335938" xlink:href="#DejaVuSans-101"/>
      <use x="446.859375" xlink:href="#DejaVuSans-110"/>
      <use x="510.238281" xlink:href="#DejaVuSans-116"/>
      <use x="549.447266" xlink:href="#DejaVuSans-105"/>
      <use x="577.230469" xlink:href="#DejaVuSans-111"/>
      <use x="638.412109" xlink:href="#DejaVuSans-110"/>
     </g>
    </g>
   </g>
   <g id="line2d_19">
    <path clip-path="url(#pa562f299ef)" style="fill:none;stroke:#333333;stroke-dasharray:1.5,1.5;stroke-dashoffset:0;"/>
   </g>
   <g id="line2d_20">
    <path clip-path="url(#pa562f299ef)" style="fill:none;stroke:#333333;stroke-dasharray:3,3;stroke-dashoffset:0;"/>
   </g>
   <g id="line2d_21">
    <path clip-path="url(#pa562f299ef)" style="fill:none;stroke:#333333;stroke-dasharray:1.5,1.5;stroke-dashoffset:0;"/>
   </g>
   <g id="line2d_22">
    <path clip-path="url(#pa562f299ef)" style="fill:none;stroke:#333333;stroke-dasharray:1.5,1.5;stroke-dashoffset:0;"/>
   </g>
   <g id="line2d_23">
    <path clip-path="url(#pa562f299ef)" style="fill:none;stroke:#333333;stroke-dasharray:3,3;stroke-dashoffset:0;"/>
   </g>
   <g id="line2d_24">
    <path clip-path="url(#pa562f299ef)" style="fill:none;stroke:#333333;stroke-dasharray:1.5,1.5;stroke-dashoffset:0;"/>
   </g>
   <g id="line2d_25">
    <path clip-path="url(#pa562f299ef)" style="fill:none;stroke:#333333;stroke-dasharray:1.5,1.5;stroke-dashoffset:0;"/>
   </g>
   <g id="line2d_26">
    <path clip-path="url(#pa562f299ef)" style="fill:none;stroke:#333333;stroke-dasharray:3,3;stroke-dashoffset:0;"/>
   </g>
   <g id="line2d_27">
    <path clip-path="url(#pa562f299ef)" style="fill:none;stroke:#333333;stroke-dasharray:1.5,1.5;stroke-dashoffset:0;"/>
   </g>
   <g id="line2d_28">
    <path clip-path="url(#pa562f299ef)" style="fill:none;stroke:#333333;stroke-dasharray:1.5,1.5;stroke-dashoffset:0;"/>
   </g>
   <g id="line2d_29">
    <path clip-path="url(#pa562f299ef)" style="fill:none;stroke:#333333;stroke-dasharray:3,3;stroke-dashoffset:0;"/>
   </g>
   <g id="line2d_30">
    <path clip-path="url(#pa562f299ef)" style="fill:none;stroke:#333333;stroke-dasharray:1.5,1.5;stroke-dashoffset:0;"/>
   </g>
   <g id="line2d_31">
    <path clip-path="url(#pa562f299ef)" style="fill:none;stroke:#333333;stroke-dasharray:1.5,1.5;stroke-dashoffset:0;"/>
   </g>
   <g id="line2d_32">
    <path clip-path="url(#pa562f299ef)" style="fill:none;stroke:#333333;stroke-dasharray:3,3;stroke-dashoffset:0;"/>
   </g>
   <g id="line2d_33">
    <path clip-path="url(#pa562f299ef)" style="fill:none;stroke:#333333;stroke-dasharray:1.5,1.5;stroke-dashoffset:0;"/>
   </g>
   <g id="line2d_34">
    <path clip-path="url(#pa562f299ef)" style="fill:none;stroke:#333333;stroke-dasharray:1.5,1.5;stroke-dashoffset:0;"/>
   </g>
   <g id="line2d_35">
    <path clip-path="url(#pa562f299ef)" style="fill:none;stroke:#333333;stroke-dasharray:3,3;stroke-dashoffset:0;"/>
   </g>
   <g id="line2d_36">
    <path clip-path="url(#pa562f299ef)" style="fill:none;stroke:#333333;stroke-dasharray:1.5,1.5;stroke-dashoffset:0;"/>
   </g>
   <g id="patch_88">
    <path style="fill:none;stroke:#000000;stroke-linecap:square;stroke-linejoin:miter;stroke-width:0.8;"/>
   </g>
   <g id="patch_89">
    <path style="fill:none;stroke:#000000;stroke-linecap:square;stroke-linejoin:miter;stroke-width:0.8;"/>
   </g>
  </g>
 </g>
 <defs>
  <clipPath id="p631f46a9b5">
   <rect height="254.861667" width="254.861667" x="59.575" y="4.285529"/>
  </clipPath>
  <clipPath id="pa562f299ef">
   <rect height="254.861667" width="254.861667" x="425.796667" y="4.285529"/>
  </clipPath>
 </defs>
</svg>
