<?xml version="1.0" encoding="utf-8" standalone="no"?>
<!DOCTYPE svg PUBLIC "-//W3C//DTD SVG 1.1//EN"
  "http://www.w3.org/Graphics/SVG/1.1/DTD/svg11.dtd">
<!-- Created with matplotlib (https://matplotlib.org/) -->
<svg height="323.353333pt" version="1.1" viewBox="0 0 312.49737 323.353333" width="312.49737pt" xmlns="http://www.w3.org/2000/svg" xmlns:xlink="http://www.w3.org/1999/xlink">
 <defs>
  <style type="text/css">
*{stroke-linecap:butt;stroke-linejoin:round;}
  </style>
 </defs>
 <g id="figure_1">
  <g id="patch_1">
   <path d="M 0 323.353333 
L 312.49737 323.353333 
L 312.49737 -0 
L 0 -0 
z
" style="fill:#ffffff;"/>
  </g>
  <g id="axes_1">
   <g id="patch_2">
    <path d="M 46.7 262.653333 
L 305.853333 262.653333 
L 305.853333 3.5 
L 46.7 3.5 
z
" style="fill:#ffffff;"/>
   </g>
   <g id="patch_3">
    <path clip-path="url(#pc344d93f02)" d="M 58.479697 262.653333 
L 64.369545 262.653333 
L 64.369545 262.653333 
L 58.479697 262.653333 
z
" style="fill:#7570b3;opacity:0.6;stroke:#000000;stroke-linejoin:miter;stroke-width:0.5;"/>
   </g>
   <g id="patch_4">
    <path clip-path="url(#pc344d93f02)" d="M 64.369545 262.653333 
L 70.259394 262.653333 
L 70.259394 262.653333 
L 64.369545 262.653333 
z
" style="fill:#7570b3;opacity:0.6;stroke:#000000;stroke-linejoin:miter;stroke-width:0.5;"/>
   </g>
   <g id="patch_5">
    <path clip-path="url(#pc344d93f02)" d="M 70.259394 262.653333 
L 76.149242 262.653333 
L 76.149242 262.653333 
L 70.259394 262.653333 
z
" style="fill:#7570b3;opacity:0.6;stroke:#000000;stroke-linejoin:miter;stroke-width:0.5;"/>
   </g>
   <g id="patch_6">
    <path clip-path="url(#pc344d93f02)" d="M 76.149242 262.653333 
L 82.039091 262.653333 
L 82.039091 262.653333 
L 76.149242 262.653333 
z
" style="fill:#7570b3;opacity:0.6;stroke:#000000;stroke-linejoin:miter;stroke-width:0.5;"/>
   </g>
   <g id="patch_7">
    <path clip-path="url(#pc344d93f02)" d="M 82.039091 262.653333 
L 87.928939 262.653333 
L 87.928939 262.653333 
L 82.039091 262.653333 
z
" style="fill:#7570b3;opacity:0.6;stroke:#000000;stroke-linejoin:miter;stroke-width:0.5;"/>
   </g>
   <g id="patch_8">
    <path clip-path="url(#pc344d93f02)" d="M 87.928939 262.653333 
L 93.818788 262.653333 
L 93.818788 262.653333 
L 87.928939 262.653333 
z
" style="fill:#7570b3;opacity:0.6;stroke:#000000;stroke-linejoin:miter;stroke-width:0.5;"/>
   </g>
   <g id="patch_9">
    <path clip-path="url(#pc344d93f02)" d="M 93.818788 262.653333 
L 99.708636 262.653333 
L 99.708636 262.653333 
L 93.818788 262.653333 
z
" style="fill:#7570b3;opacity:0.6;stroke:#000000;stroke-linejoin:miter;stroke-width:0.5;"/>
   </g>
   <g id="patch_10">
    <path clip-path="url(#pc344d93f02)" d="M 99.708636 262.653333 
L 105.598485 262.653333 
L 105.598485 262.653333 
L 99.708636 262.653333 
z
" style="fill:#7570b3;opacity:0.6;stroke:#000000;stroke-linejoin:miter;stroke-width:0.5;"/>
   </g>
   <g id="patch_11">
    <path clip-path="url(#pc344d93f02)" d="M 105.598485 262.653333 
L 111.488333 262.653333 
L 111.488333 262.653333 
L 105.598485 262.653333 
z
" style="fill:#7570b3;opacity:0.6;stroke:#000000;stroke-linejoin:miter;stroke-width:0.5;"/>
   </g>
   <g id="patch_12">
    <path clip-path="url(#pc344d93f02)" d="M 111.488333 262.653333 
L 117.378182 262.653333 
L 117.378182 262.653333 
L 111.488333 262.653333 
z
" style="fill:#7570b3;opacity:0.6;stroke:#000000;stroke-linejoin:miter;stroke-width:0.5;"/>
   </g>
   <g id="patch_13">
    <path clip-path="url(#pc344d93f02)" d="M 117.378182 262.653333 
L 123.26803 262.653333 
L 123.26803 262.653333 
L 117.378182 262.653333 
z
" style="fill:#7570b3;opacity:0.6;stroke:#000000;stroke-linejoin:miter;stroke-width:0.5;"/>
   </g>
   <g id="patch_14">
    <path clip-path="url(#pc344d93f02)" d="M 123.26803 262.653333 
L 129.157879 262.653333 
L 129.157879 262.653333 
L 123.26803 262.653333 
z
" style="fill:#7570b3;opacity:0.6;stroke:#000000;stroke-linejoin:miter;stroke-width:0.5;"/>
   </g>
   <g id="patch_15">
    <path clip-path="url(#pc344d93f02)" d="M 129.157879 262.653333 
L 135.047727 262.653333 
L 135.047727 262.653333 
L 129.157879 262.653333 
z
" style="fill:#7570b3;opacity:0.6;stroke:#000000;stroke-linejoin:miter;stroke-width:0.5;"/>
   </g>
   <g id="patch_16">
    <path clip-path="url(#pc344d93f02)" d="M 135.047727 262.653333 
L 140.937576 262.653333 
L 140.937576 262.653333 
L 135.047727 262.653333 
z
" style="fill:#7570b3;opacity:0.6;stroke:#000000;stroke-linejoin:miter;stroke-width:0.5;"/>
   </g>
   <g id="patch_17">
    <path clip-path="url(#pc344d93f02)" d="M 140.937576 262.653333 
L 146.827424 262.653333 
L 146.827424 262.653333 
L 140.937576 262.653333 
z
" style="fill:#7570b3;opacity:0.6;stroke:#000000;stroke-linejoin:miter;stroke-width:0.5;"/>
   </g>
   <g id="patch_18">
    <path clip-path="url(#pc344d93f02)" d="M 146.827424 262.653333 
L 152.717273 262.653333 
L 152.717273 262.653333 
L 146.827424 262.653333 
z
" style="fill:#7570b3;opacity:0.6;stroke:#000000;stroke-linejoin:miter;stroke-width:0.5;"/>
   </g>
   <g id="patch_19">
    <path clip-path="url(#pc344d93f02)" d="M 152.717273 262.653333 
L 158.607121 262.653333 
L 158.607121 262.653333 
L 152.717273 262.653333 
z
" style="fill:#7570b3;opacity:0.6;stroke:#000000;stroke-linejoin:miter;stroke-width:0.5;"/>
   </g>
   <g id="patch_20">
    <path clip-path="url(#pc344d93f02)" d="M 158.607121 262.653333 
L 164.49697 262.653333 
L 164.49697 262.653333 
L 158.607121 262.653333 
z
" style="fill:#7570b3;opacity:0.6;stroke:#000000;stroke-linejoin:miter;stroke-width:0.5;"/>
   </g>
   <g id="patch_21">
    <path clip-path="url(#pc344d93f02)" d="M 164.49697 262.653333 
L 170.386818 262.653333 
L 170.386818 262.653333 
L 164.49697 262.653333 
z
" style="fill:#7570b3;opacity:0.6;stroke:#000000;stroke-linejoin:miter;stroke-width:0.5;"/>
   </g>
   <g id="patch_22">
    <path clip-path="url(#pc344d93f02)" d="M 170.386818 262.653333 
L 176.276667 262.653333 
L 176.276667 262.653333 
L 170.386818 262.653333 
z
" style="fill:#7570b3;opacity:0.6;stroke:#000000;stroke-linejoin:miter;stroke-width:0.5;"/>
   </g>
   <g id="patch_23">
    <path clip-path="url(#pc344d93f02)" d="M 176.276667 262.653333 
L 182.166515 262.653333 
L 182.166515 262.653333 
L 176.276667 262.653333 
z
" style="fill:#7570b3;opacity:0.6;stroke:#000000;stroke-linejoin:miter;stroke-width:0.5;"/>
   </g>
   <g id="patch_24">
    <path clip-path="url(#pc344d93f02)" d="M 182.166515 262.653333 
L 188.056364 262.653333 
L 188.056364 262.653333 
L 182.166515 262.653333 
z
" style="fill:#7570b3;opacity:0.6;stroke:#000000;stroke-linejoin:miter;stroke-width:0.5;"/>
   </g>
   <g id="patch_25">
    <path clip-path="url(#pc344d93f02)" d="M 188.056364 262.653333 
L 193.946212 262.653333 
L 193.946212 262.653333 
L 188.056364 262.653333 
z
" style="fill:#7570b3;opacity:0.6;stroke:#000000;stroke-linejoin:miter;stroke-width:0.5;"/>
   </g>
   <g id="patch_26">
    <path clip-path="url(#pc344d93f02)" d="M 193.946212 262.653333 
L 199.836061 262.653333 
L 199.836061 262.653333 
L 193.946212 262.653333 
z
" style="fill:#7570b3;opacity:0.6;stroke:#000000;stroke-linejoin:miter;stroke-width:0.5;"/>
   </g>
   <g id="patch_27">
    <path clip-path="url(#pc344d93f02)" d="M 199.836061 262.653333 
L 205.725909 262.653333 
L 205.725909 262.653333 
L 199.836061 262.653333 
z
" style="fill:#7570b3;opacity:0.6;stroke:#000000;stroke-linejoin:miter;stroke-width:0.5;"/>
   </g>
   <g id="patch_28">
    <path clip-path="url(#pc344d93f02)" d="M 205.725909 262.653333 
L 211.615758 262.653333 
L 211.615758 262.653333 
L 205.725909 262.653333 
z
" style="fill:#7570b3;opacity:0.6;stroke:#000000;stroke-linejoin:miter;stroke-width:0.5;"/>
   </g>
   <g id="patch_29">
    <path clip-path="url(#pc344d93f02)" d="M 211.615758 262.653333 
L 217.505606 262.653333 
L 217.505606 262.653333 
L 211.615758 262.653333 
z
" style="fill:#7570b3;opacity:0.6;stroke:#000000;stroke-linejoin:miter;stroke-width:0.5;"/>
   </g>
   <g id="patch_30">
    <path clip-path="url(#pc344d93f02)" d="M 217.505606 262.653333 
L 223.395455 262.653333 
L 223.395455 262.653333 
L 217.505606 262.653333 
z
" style="fill:#7570b3;opacity:0.6;stroke:#000000;stroke-linejoin:miter;stroke-width:0.5;"/>
   </g>
   <g id="patch_31">
    <path clip-path="url(#pc344d93f02)" d="M 223.395455 262.653333 
L 229.285303 262.653333 
L 229.285303 262.653333 
L 223.395455 262.653333 
z
" style="fill:#7570b3;opacity:0.6;stroke:#000000;stroke-linejoin:miter;stroke-width:0.5;"/>
   </g>
   <g id="patch_32">
    <path clip-path="url(#pc344d93f02)" d="M 229.285303 262.653333 
L 235.175152 262.653333 
L 235.175152 261.192903 
L 229.285303 261.192903 
z
" style="fill:#7570b3;opacity:0.6;stroke:#000000;stroke-linejoin:miter;stroke-width:0.5;"/>
   </g>
   <g id="patch_33">
    <path clip-path="url(#pc344d93f02)" d="M 235.175152 262.653333 
L 241.065 262.653333 
L 241.065 259.732473 
L 235.175152 259.732473 
z
" style="fill:#7570b3;opacity:0.6;stroke:#000000;stroke-linejoin:miter;stroke-width:0.5;"/>
   </g>
   <g id="patch_34">
    <path clip-path="url(#pc344d93f02)" d="M 241.065 262.653333 
L 246.954848 262.653333 
L 246.954848 256.811613 
L 241.065 256.811613 
z
" style="fill:#7570b3;opacity:0.6;stroke:#000000;stroke-linejoin:miter;stroke-width:0.5;"/>
   </g>
   <g id="patch_35">
    <path clip-path="url(#pc344d93f02)" d="M 246.954848 262.653333 
L 252.844697 262.653333 
L 252.844697 256.811613 
L 246.954848 256.811613 
z
" style="fill:#7570b3;opacity:0.6;stroke:#000000;stroke-linejoin:miter;stroke-width:0.5;"/>
   </g>
   <g id="patch_36">
    <path clip-path="url(#pc344d93f02)" d="M 252.844697 262.653333 
L 258.734545 262.653333 
L 258.734545 245.128171 
L 252.844697 245.128171 
z
" style="fill:#7570b3;opacity:0.6;stroke:#000000;stroke-linejoin:miter;stroke-width:0.5;"/>
   </g>
   <g id="patch_37">
    <path clip-path="url(#pc344d93f02)" d="M 258.734545 262.653333 
L 264.624394 262.653333 
L 264.624394 234.90516 
L 258.734545 234.90516 
z
" style="fill:#7570b3;opacity:0.6;stroke:#000000;stroke-linejoin:miter;stroke-width:0.5;"/>
   </g>
   <g id="patch_38">
    <path clip-path="url(#pc344d93f02)" d="M 264.624394 262.653333 
L 270.514242 262.653333 
L 270.514242 204.236127 
L 264.624394 204.236127 
z
" style="fill:#7570b3;opacity:0.6;stroke:#000000;stroke-linejoin:miter;stroke-width:0.5;"/>
   </g>
   <g id="patch_39">
    <path clip-path="url(#pc344d93f02)" d="M 270.514242 262.653333 
L 276.404091 262.653333 
L 276.404091 160.423222 
L 270.514242 160.423222 
z
" style="fill:#7570b3;opacity:0.6;stroke:#000000;stroke-linejoin:miter;stroke-width:0.5;"/>
   </g>
   <g id="patch_40">
    <path clip-path="url(#pc344d93f02)" d="M 276.404091 262.653333 
L 282.293939 262.653333 
L 282.293939 102.006015 
L 276.404091 102.006015 
z
" style="fill:#7570b3;opacity:0.6;stroke:#000000;stroke-linejoin:miter;stroke-width:0.5;"/>
   </g>
   <g id="patch_41">
    <path clip-path="url(#pc344d93f02)" d="M 282.293939 262.653333 
L 288.183788 262.653333 
L 288.183788 15.840635 
L 282.293939 15.840635 
z
" style="fill:#7570b3;opacity:0.6;stroke:#000000;stroke-linejoin:miter;stroke-width:0.5;"/>
   </g>
   <g id="patch_42">
    <path clip-path="url(#pc344d93f02)" d="M 288.183788 262.653333 
L 294.073636 262.653333 
L 294.073636 218.840428 
L 288.183788 218.840428 
z
" style="fill:#7570b3;opacity:0.6;stroke:#000000;stroke-linejoin:miter;stroke-width:0.5;"/>
   </g>
   <g id="patch_43">
    <path clip-path="url(#pc344d93f02)" d="M 58.479697 262.653333 
L 64.369545 262.653333 
L 64.369545 262.653333 
L 58.479697 262.653333 
z
" style="fill:#d95f02;opacity:0.6;stroke:#000000;stroke-linejoin:miter;stroke-width:0.5;"/>
   </g>
   <g id="patch_44">
    <path clip-path="url(#pc344d93f02)" d="M 64.369545 262.653333 
L 70.259394 262.653333 
L 70.259394 262.653333 
L 64.369545 262.653333 
z
" style="fill:#d95f02;opacity:0.6;stroke:#000000;stroke-linejoin:miter;stroke-width:0.5;"/>
   </g>
   <g id="patch_45">
    <path clip-path="url(#pc344d93f02)" d="M 70.259394 262.653333 
L 76.149242 262.653333 
L 76.149242 262.653333 
L 70.259394 262.653333 
z
" style="fill:#d95f02;opacity:0.6;stroke:#000000;stroke-linejoin:miter;stroke-width:0.5;"/>
   </g>
   <g id="patch_46">
    <path clip-path="url(#pc344d93f02)" d="M 76.149242 262.653333 
L 82.039091 262.653333 
L 82.039091 262.653333 
L 76.149242 262.653333 
z
" style="fill:#d95f02;opacity:0.6;stroke:#000000;stroke-linejoin:miter;stroke-width:0.5;"/>
   </g>
   <g id="patch_47">
    <path clip-path="url(#pc344d93f02)" d="M 82.039091 262.653333 
L 87.928939 262.653333 
L 87.928939 262.653333 
L 82.039091 262.653333 
z
" style="fill:#d95f02;opacity:0.6;stroke:#000000;stroke-linejoin:miter;stroke-width:0.5;"/>
   </g>
   <g id="patch_48">
    <path clip-path="url(#pc344d93f02)" d="M 87.928939 262.653333 
L 93.818788 262.653333 
L 93.818788 262.653333 
L 87.928939 262.653333 
z
" style="fill:#d95f02;opacity:0.6;stroke:#000000;stroke-linejoin:miter;stroke-width:0.5;"/>
   </g>
   <g id="patch_49">
    <path clip-path="url(#pc344d93f02)" d="M 93.818788 262.653333 
L 99.708636 262.653333 
L 99.708636 262.653333 
L 93.818788 262.653333 
z
" style="fill:#d95f02;opacity:0.6;stroke:#000000;stroke-linejoin:miter;stroke-width:0.5;"/>
   </g>
   <g id="patch_50">
    <path clip-path="url(#pc344d93f02)" d="M 99.708636 262.653333 
L 105.598485 262.653333 
L 105.598485 262.653333 
L 99.708636 262.653333 
z
" style="fill:#d95f02;opacity:0.6;stroke:#000000;stroke-linejoin:miter;stroke-width:0.5;"/>
   </g>
   <g id="patch_51">
    <path clip-path="url(#pc344d93f02)" d="M 105.598485 262.653333 
L 111.488333 262.653333 
L 111.488333 262.653333 
L 105.598485 262.653333 
z
" style="fill:#d95f02;opacity:0.6;stroke:#000000;stroke-linejoin:miter;stroke-width:0.5;"/>
   </g>
   <g id="patch_52">
    <path clip-path="url(#pc344d93f02)" d="M 111.488333 262.653333 
L 117.378182 262.653333 
L 117.378182 262.653333 
L 111.488333 262.653333 
z
" style="fill:#d95f02;opacity:0.6;stroke:#000000;stroke-linejoin:miter;stroke-width:0.5;"/>
   </g>
   <g id="patch_53">
    <path clip-path="url(#pc344d93f02)" d="M 117.378182 262.653333 
L 123.26803 262.653333 
L 123.26803 262.653333 
L 117.378182 262.653333 
z
" style="fill:#d95f02;opacity:0.6;stroke:#000000;stroke-linejoin:miter;stroke-width:0.5;"/>
   </g>
   <g id="patch_54">
    <path clip-path="url(#pc344d93f02)" d="M 123.26803 262.653333 
L 129.157879 262.653333 
L 129.157879 262.653333 
L 123.26803 262.653333 
z
" style="fill:#d95f02;opacity:0.6;stroke:#000000;stroke-linejoin:miter;stroke-width:0.5;"/>
   </g>
   <g id="patch_55">
    <path clip-path="url(#pc344d93f02)" d="M 129.157879 262.653333 
L 135.047727 262.653333 
L 135.047727 262.653333 
L 129.157879 262.653333 
z
" style="fill:#d95f02;opacity:0.6;stroke:#000000;stroke-linejoin:miter;stroke-width:0.5;"/>
   </g>
   <g id="patch_56">
    <path clip-path="url(#pc344d93f02)" d="M 135.047727 262.653333 
L 140.937576 262.653333 
L 140.937576 262.653333 
L 135.047727 262.653333 
z
" style="fill:#d95f02;opacity:0.6;stroke:#000000;stroke-linejoin:miter;stroke-width:0.5;"/>
   </g>
   <g id="patch_57">
    <path clip-path="url(#pc344d93f02)" d="M 140.937576 262.653333 
L 146.827424 262.653333 
L 146.827424 262.653333 
L 140.937576 262.653333 
z
" style="fill:#d95f02;opacity:0.6;stroke:#000000;stroke-linejoin:miter;stroke-width:0.5;"/>
   </g>
   <g id="patch_58">
    <path clip-path="url(#pc344d93f02)" d="M 146.827424 262.653333 
L 152.717273 262.653333 
L 152.717273 262.653333 
L 146.827424 262.653333 
z
" style="fill:#d95f02;opacity:0.6;stroke:#000000;stroke-linejoin:miter;stroke-width:0.5;"/>
   </g>
   <g id="patch_59">
    <path clip-path="url(#pc344d93f02)" d="M 152.717273 262.653333 
L 158.607121 262.653333 
L 158.607121 262.653333 
L 152.717273 262.653333 
z
" style="fill:#d95f02;opacity:0.6;stroke:#000000;stroke-linejoin:miter;stroke-width:0.5;"/>
   </g>
   <g id="patch_60">
    <path clip-path="url(#pc344d93f02)" d="M 158.607121 262.653333 
L 164.49697 262.653333 
L 164.49697 262.653333 
L 158.607121 262.653333 
z
" style="fill:#d95f02;opacity:0.6;stroke:#000000;stroke-linejoin:miter;stroke-width:0.5;"/>
   </g>
   <g id="patch_61">
    <path clip-path="url(#pc344d93f02)" d="M 164.49697 262.653333 
L 170.386818 262.653333 
L 170.386818 262.653333 
L 164.49697 262.653333 
z
" style="fill:#d95f02;opacity:0.6;stroke:#000000;stroke-linejoin:miter;stroke-width:0.5;"/>
   </g>
   <g id="patch_62">
    <path clip-path="url(#pc344d93f02)" d="M 170.386818 262.653333 
L 176.276667 262.653333 
L 176.276667 262.653333 
L 170.386818 262.653333 
z
" style="fill:#d95f02;opacity:0.6;stroke:#000000;stroke-linejoin:miter;stroke-width:0.5;"/>
   </g>
   <g id="patch_63">
    <path clip-path="url(#pc344d93f02)" d="M 176.276667 262.653333 
L 182.166515 262.653333 
L 182.166515 262.653333 
L 176.276667 262.653333 
z
" style="fill:#d95f02;opacity:0.6;stroke:#000000;stroke-linejoin:miter;stroke-width:0.5;"/>
   </g>
   <g id="patch_64">
    <path clip-path="url(#pc344d93f02)" d="M 182.166515 262.653333 
L 188.056364 262.653333 
L 188.056364 262.653333 
L 182.166515 262.653333 
z
" style="fill:#d95f02;opacity:0.6;stroke:#000000;stroke-linejoin:miter;stroke-width:0.5;"/>
   </g>
   <g id="patch_65">
    <path clip-path="url(#pc344d93f02)" d="M 188.056364 262.653333 
L 193.946212 262.653333 
L 193.946212 262.653333 
L 188.056364 262.653333 
z
" style="fill:#d95f02;opacity:0.6;stroke:#000000;stroke-linejoin:miter;stroke-width:0.5;"/>
   </g>
   <g id="patch_66">
    <path clip-path="url(#pc344d93f02)" d="M 193.946212 262.653333 
L 199.836061 262.653333 
L 199.836061 262.653333 
L 193.946212 262.653333 
z
" style="fill:#d95f02;opacity:0.6;stroke:#000000;stroke-linejoin:miter;stroke-width:0.5;"/>
   </g>
   <g id="patch_67">
    <path clip-path="url(#pc344d93f02)" d="M 199.836061 262.653333 
L 205.725909 262.653333 
L 205.725909 262.653333 
L 199.836061 262.653333 
z
" style="fill:#d95f02;opacity:0.6;stroke:#000000;stroke-linejoin:miter;stroke-width:0.5;"/>
   </g>
   <g id="patch_68">
    <path clip-path="url(#pc344d93f02)" d="M 205.725909 262.653333 
L 211.615758 262.653333 
L 211.615758 261.812811 
L 205.725909 261.812811 
z
" style="fill:#d95f02;opacity:0.6;stroke:#000000;stroke-linejoin:miter;stroke-width:0.5;"/>
   </g>
   <g id="patch_69">
    <path clip-path="url(#pc344d93f02)" d="M 211.615758 262.653333 
L 217.505606 262.653333 
L 217.505606 261.812811 
L 211.615758 261.812811 
z
" style="fill:#d95f02;opacity:0.6;stroke:#000000;stroke-linejoin:miter;stroke-width:0.5;"/>
   </g>
   <g id="patch_70">
    <path clip-path="url(#pc344d93f02)" d="M 217.505606 262.653333 
L 223.395455 262.653333 
L 223.395455 260.131767 
L 217.505606 260.131767 
z
" style="fill:#d95f02;opacity:0.6;stroke:#000000;stroke-linejoin:miter;stroke-width:0.5;"/>
   </g>
   <g id="patch_71">
    <path clip-path="url(#pc344d93f02)" d="M 223.395455 262.653333 
L 229.285303 262.653333 
L 229.285303 254.248111 
L 223.395455 254.248111 
z
" style="fill:#d95f02;opacity:0.6;stroke:#000000;stroke-linejoin:miter;stroke-width:0.5;"/>
   </g>
   <g id="patch_72">
    <path clip-path="url(#pc344d93f02)" d="M 229.285303 262.653333 
L 235.175152 262.653333 
L 235.175152 242.4808 
L 229.285303 242.4808 
z
" style="fill:#d95f02;opacity:0.6;stroke:#000000;stroke-linejoin:miter;stroke-width:0.5;"/>
   </g>
   <g id="patch_73">
    <path clip-path="url(#pc344d93f02)" d="M 235.175152 262.653333 
L 241.065 262.653333 
L 241.065 224.829833 
L 235.175152 224.829833 
z
" style="fill:#d95f02;opacity:0.6;stroke:#000000;stroke-linejoin:miter;stroke-width:0.5;"/>
   </g>
   <g id="patch_74">
    <path clip-path="url(#pc344d93f02)" d="M 241.065 262.653333 
L 246.954848 262.653333 
L 246.954848 208.019388 
L 241.065 208.019388 
z
" style="fill:#d95f02;opacity:0.6;stroke:#000000;stroke-linejoin:miter;stroke-width:0.5;"/>
   </g>
   <g id="patch_75">
    <path clip-path="url(#pc344d93f02)" d="M 246.954848 262.653333 
L 252.844697 262.653333 
L 252.844697 187.846855 
L 246.954848 187.846855 
z
" style="fill:#d95f02;opacity:0.6;stroke:#000000;stroke-linejoin:miter;stroke-width:0.5;"/>
   </g>
   <g id="patch_76">
    <path clip-path="url(#pc344d93f02)" d="M 252.844697 262.653333 
L 258.734545 262.653333 
L 258.734545 200.454688 
L 252.844697 200.454688 
z
" style="fill:#d95f02;opacity:0.6;stroke:#000000;stroke-linejoin:miter;stroke-width:0.5;"/>
   </g>
   <g id="patch_77">
    <path clip-path="url(#pc344d93f02)" d="M 258.734545 262.653333 
L 264.624394 262.653333 
L 264.624394 165.152754 
L 258.734545 165.152754 
z
" style="fill:#d95f02;opacity:0.6;stroke:#000000;stroke-linejoin:miter;stroke-width:0.5;"/>
   </g>
   <g id="patch_78">
    <path clip-path="url(#pc344d93f02)" d="M 264.624394 262.653333 
L 270.514242 262.653333 
L 270.514242 192.889988 
L 264.624394 192.889988 
z
" style="fill:#d95f02;opacity:0.6;stroke:#000000;stroke-linejoin:miter;stroke-width:0.5;"/>
   </g>
   <g id="patch_79">
    <path clip-path="url(#pc344d93f02)" d="M 270.514242 262.653333 
L 276.404091 262.653333 
L 276.404091 192.049466 
L 270.514242 192.049466 
z
" style="fill:#d95f02;opacity:0.6;stroke:#000000;stroke-linejoin:miter;stroke-width:0.5;"/>
   </g>
   <g id="patch_80">
    <path clip-path="url(#pc344d93f02)" d="M 276.404091 262.653333 
L 282.293939 262.653333 
L 282.293939 168.514843 
L 276.404091 168.514843 
z
" style="fill:#d95f02;opacity:0.6;stroke:#000000;stroke-linejoin:miter;stroke-width:0.5;"/>
   </g>
   <g id="patch_81">
    <path clip-path="url(#pc344d93f02)" d="M 282.293939 262.653333 
L 288.183788 262.653333 
L 288.183788 192.049466 
L 282.293939 192.049466 
z
" style="fill:#d95f02;opacity:0.6;stroke:#000000;stroke-linejoin:miter;stroke-width:0.5;"/>
   </g>
   <g id="patch_82">
    <path clip-path="url(#pc344d93f02)" d="M 288.183788 262.653333 
L 294.073636 262.653333 
L 294.073636 254.248111 
L 288.183788 254.248111 
z
" style="fill:#d95f02;opacity:0.6;stroke:#000000;stroke-linejoin:miter;stroke-width:0.5;"/>
   </g>
   <g id="matplotlib.axis_1">
    <g id="xtick_1">
     <g id="line2d_1">
      <defs>
       <path d="M 0 0 
L 0 3.5 
" id="m7d43235eea" style="stroke:#000000;stroke-width:1.6;"/>
      </defs>
      <g>
       <use style="stroke:#000000;stroke-width:1.6;" x="58.479697" xlink:href="#m7d43235eea" y="262.653333"/>
      </g>
     </g>
     <g id="text_1">
      <!-- 0.0 -->
      <defs>
       <path d="M 31.78125 66.40625 
Q 24.171875 66.40625 20.328125 58.90625 
Q 16.5 51.421875 16.5 36.375 
Q 16.5 21.390625 20.328125 13.890625 
Q 24.171875 6.390625 31.78125 6.390625 
Q 39.453125 6.390625 43.28125 13.890625 
Q 47.125 21.390625 47.125 36.375 
Q 47.125 51.421875 43.28125 58.90625 
Q 39.453125 66.40625 31.78125 66.40625 
z
M 31.78125 74.21875 
Q 44.046875 74.21875 50.515625 64.515625 
Q 56.984375 54.828125 56.984375 36.375 
Q 56.984375 17.96875 50.515625 8.265625 
Q 44.046875 -1.421875 31.78125 -1.421875 
Q 19.53125 -1.421875 13.0625 8.265625 
Q 6.59375 17.96875 6.59375 36.375 
Q 6.59375 54.828125 13.0625 64.515625 
Q 19.53125 74.21875 31.78125 74.21875 
z
" id="DejaVuSans-48"/>
       <path d="M 10.6875 12.40625 
L 21 12.40625 
L 21 0 
L 10.6875 0 
z
" id="DejaVuSans-46"/>
      </defs>
      <g transform="translate(42.576572 292.550208)scale(0.2 -0.2)">
       <use xlink:href="#DejaVuSans-48"/>
       <use x="63.623047" xlink:href="#DejaVuSans-46"/>
       <use x="95.410156" xlink:href="#DejaVuSans-48"/>
      </g>
     </g>
    </g>
    <g id="xtick_2">
     <g id="line2d_2">
      <g>
       <use style="stroke:#000000;stroke-width:1.6;" x="125.792251" xlink:href="#m7d43235eea" y="262.653333"/>
      </g>
     </g>
     <g id="text_2">
      <!-- 0.2 -->
      <defs>
       <path d="M 19.1875 8.296875 
L 53.609375 8.296875 
L 53.609375 0 
L 7.328125 0 
L 7.328125 8.296875 
Q 12.9375 14.109375 22.625 23.890625 
Q 32.328125 33.6875 34.8125 36.53125 
Q 39.546875 41.84375 41.421875 45.53125 
Q 43.3125 49.21875 43.3125 52.78125 
Q 43.3125 58.59375 39.234375 62.25 
Q 35.15625 65.921875 28.609375 65.921875 
Q 23.96875 65.921875 18.8125 64.3125 
Q 13.671875 62.703125 7.8125 59.421875 
L 7.8125 69.390625 
Q 13.765625 71.78125 18.9375 73 
Q 24.125 74.21875 28.421875 74.21875 
Q 39.75 74.21875 46.484375 68.546875 
Q 53.21875 62.890625 53.21875 53.421875 
Q 53.21875 48.921875 51.53125 44.890625 
Q 49.859375 40.875 45.40625 35.40625 
Q 44.1875 33.984375 37.640625 27.21875 
Q 31.109375 20.453125 19.1875 8.296875 
z
" id="DejaVuSans-50"/>
      </defs>
      <g transform="translate(109.889126 292.550208)scale(0.2 -0.2)">
       <use xlink:href="#DejaVuSans-48"/>
       <use x="63.623047" xlink:href="#DejaVuSans-46"/>
       <use x="95.410156" xlink:href="#DejaVuSans-50"/>
      </g>
     </g>
    </g>
    <g id="xtick_3">
     <g id="line2d_3">
      <g>
       <use style="stroke:#000000;stroke-width:1.6;" x="193.104805" xlink:href="#m7d43235eea" y="262.653333"/>
      </g>
     </g>
     <g id="text_3">
      <!-- 0.4 -->
      <defs>
       <path d="M 37.796875 64.3125 
L 12.890625 25.390625 
L 37.796875 25.390625 
z
M 35.203125 72.90625 
L 47.609375 72.90625 
L 47.609375 25.390625 
L 58.015625 25.390625 
L 58.015625 17.1875 
L 47.609375 17.1875 
L 47.609375 0 
L 37.796875 0 
L 37.796875 17.1875 
L 4.890625 17.1875 
L 4.890625 26.703125 
z
" id="DejaVuSans-52"/>
      </defs>
      <g transform="translate(177.20168 292.550208)scale(0.2 -0.2)">
       <use xlink:href="#DejaVuSans-48"/>
       <use x="63.623047" xlink:href="#DejaVuSans-46"/>
       <use x="95.410156" xlink:href="#DejaVuSans-52"/>
      </g>
     </g>
    </g>
    <g id="xtick_4">
     <g id="line2d_4">
      <g>
       <use style="stroke:#000000;stroke-width:1.6;" x="260.417359" xlink:href="#m7d43235eea" y="262.653333"/>
      </g>
     </g>
     <g id="text_4">
      <!-- 0.6 -->
      <defs>
       <path d="M 33.015625 40.375 
Q 26.375 40.375 22.484375 35.828125 
Q 18.609375 31.296875 18.609375 23.390625 
Q 18.609375 15.53125 22.484375 10.953125 
Q 26.375 6.390625 33.015625 6.390625 
Q 39.65625 6.390625 43.53125 10.953125 
Q 47.40625 15.53125 47.40625 23.390625 
Q 47.40625 31.296875 43.53125 35.828125 
Q 39.65625 40.375 33.015625 40.375 
z
M 52.59375 71.296875 
L 52.59375 62.3125 
Q 48.875 64.0625 45.09375 64.984375 
Q 41.3125 65.921875 37.59375 65.921875 
Q 27.828125 65.921875 22.671875 59.328125 
Q 17.53125 52.734375 16.796875 39.40625 
Q 19.671875 43.65625 24.015625 45.921875 
Q 28.375 48.1875 33.59375 48.1875 
Q 44.578125 48.1875 50.953125 41.515625 
Q 57.328125 34.859375 57.328125 23.390625 
Q 57.328125 12.15625 50.6875 5.359375 
Q 44.046875 -1.421875 33.015625 -1.421875 
Q 20.359375 -1.421875 13.671875 8.265625 
Q 6.984375 17.96875 6.984375 36.375 
Q 6.984375 53.65625 15.1875 63.9375 
Q 23.390625 74.21875 37.203125 74.21875 
Q 40.921875 74.21875 44.703125 73.484375 
Q 48.484375 72.75 52.59375 71.296875 
z
" id="DejaVuSans-54"/>
      </defs>
      <g transform="translate(244.514234 292.550208)scale(0.2 -0.2)">
       <use xlink:href="#DejaVuSans-48"/>
       <use x="63.623047" xlink:href="#DejaVuSans-46"/>
       <use x="95.410156" xlink:href="#DejaVuSans-54"/>
      </g>
     </g>
    </g>
    <g id="text_5">
     <!-- Max JS Divergence within $\epsilon$ -->
     <defs>
      <path d="M 9.8125 72.90625 
L 24.515625 72.90625 
L 43.109375 23.296875 
L 61.8125 72.90625 
L 76.515625 72.90625 
L 76.515625 0 
L 66.890625 0 
L 66.890625 64.015625 
L 48.09375 14.015625 
L 38.1875 14.015625 
L 19.390625 64.015625 
L 19.390625 0 
L 9.8125 0 
z
" id="DejaVuSans-77"/>
      <path d="M 34.28125 27.484375 
Q 23.390625 27.484375 19.1875 25 
Q 14.984375 22.515625 14.984375 16.5 
Q 14.984375 11.71875 18.140625 8.90625 
Q 21.296875 6.109375 26.703125 6.109375 
Q 34.1875 6.109375 38.703125 11.40625 
Q 43.21875 16.703125 43.21875 25.484375 
L 43.21875 27.484375 
z
M 52.203125 31.203125 
L 52.203125 0 
L 43.21875 0 
L 43.21875 8.296875 
Q 40.140625 3.328125 35.546875 0.953125 
Q 30.953125 -1.421875 24.3125 -1.421875 
Q 15.921875 -1.421875 10.953125 3.296875 
Q 6 8.015625 6 15.921875 
Q 6 25.140625 12.171875 29.828125 
Q 18.359375 34.515625 30.609375 34.515625 
L 43.21875 34.515625 
L 43.21875 35.40625 
Q 43.21875 41.609375 39.140625 45 
Q 35.0625 48.390625 27.6875 48.390625 
Q 23 48.390625 18.546875 47.265625 
Q 14.109375 46.140625 10.015625 43.890625 
L 10.015625 52.203125 
Q 14.9375 54.109375 19.578125 55.046875 
Q 24.21875 56 28.609375 56 
Q 40.484375 56 46.34375 49.84375 
Q 52.203125 43.703125 52.203125 31.203125 
z
" id="DejaVuSans-97"/>
      <path d="M 54.890625 54.6875 
L 35.109375 28.078125 
L 55.90625 0 
L 45.3125 0 
L 29.390625 21.484375 
L 13.484375 0 
L 2.875 0 
L 24.125 28.609375 
L 4.6875 54.6875 
L 15.28125 54.6875 
L 29.78125 35.203125 
L 44.28125 54.6875 
z
" id="DejaVuSans-120"/>
      <path id="DejaVuSans-32"/>
      <path d="M 9.8125 72.90625 
L 19.671875 72.90625 
L 19.671875 5.078125 
Q 19.671875 -8.109375 14.671875 -14.0625 
Q 9.671875 -20.015625 -1.421875 -20.015625 
L -5.171875 -20.015625 
L -5.171875 -11.71875 
L -2.09375 -11.71875 
Q 4.4375 -11.71875 7.125 -8.046875 
Q 9.8125 -4.390625 9.8125 5.078125 
z
" id="DejaVuSans-74"/>
      <path d="M 53.515625 70.515625 
L 53.515625 60.890625 
Q 47.90625 63.578125 42.921875 64.890625 
Q 37.9375 66.21875 33.296875 66.21875 
Q 25.25 66.21875 20.875 63.09375 
Q 16.5 59.96875 16.5 54.203125 
Q 16.5 49.359375 19.40625 46.890625 
Q 22.3125 44.4375 30.421875 42.921875 
L 36.375 41.703125 
Q 47.40625 39.59375 52.65625 34.296875 
Q 57.90625 29 57.90625 20.125 
Q 57.90625 9.515625 50.796875 4.046875 
Q 43.703125 -1.421875 29.984375 -1.421875 
Q 24.8125 -1.421875 18.96875 -0.25 
Q 13.140625 0.921875 6.890625 3.21875 
L 6.890625 13.375 
Q 12.890625 10.015625 18.65625 8.296875 
Q 24.421875 6.59375 29.984375 6.59375 
Q 38.421875 6.59375 43.015625 9.90625 
Q 47.609375 13.234375 47.609375 19.390625 
Q 47.609375 24.75 44.3125 27.78125 
Q 41.015625 30.8125 33.5 32.328125 
L 27.484375 33.5 
Q 16.453125 35.6875 11.515625 40.375 
Q 6.59375 45.0625 6.59375 53.421875 
Q 6.59375 63.09375 13.40625 68.65625 
Q 20.21875 74.21875 32.171875 74.21875 
Q 37.3125 74.21875 42.625 73.28125 
Q 47.953125 72.359375 53.515625 70.515625 
z
" id="DejaVuSans-83"/>
      <path d="M 19.671875 64.796875 
L 19.671875 8.109375 
L 31.59375 8.109375 
Q 46.6875 8.109375 53.6875 14.9375 
Q 60.6875 21.78125 60.6875 36.53125 
Q 60.6875 51.171875 53.6875 57.984375 
Q 46.6875 64.796875 31.59375 64.796875 
z
M 9.8125 72.90625 
L 30.078125 72.90625 
Q 51.265625 72.90625 61.171875 64.09375 
Q 71.09375 55.28125 71.09375 36.53125 
Q 71.09375 17.671875 61.125 8.828125 
Q 51.171875 0 30.078125 0 
L 9.8125 0 
z
" id="DejaVuSans-68"/>
      <path d="M 9.421875 54.6875 
L 18.40625 54.6875 
L 18.40625 0 
L 9.421875 0 
z
M 9.421875 75.984375 
L 18.40625 75.984375 
L 18.40625 64.59375 
L 9.421875 64.59375 
z
" id="DejaVuSans-105"/>
      <path d="M 2.984375 54.6875 
L 12.5 54.6875 
L 29.59375 8.796875 
L 46.6875 54.6875 
L 56.203125 54.6875 
L 35.6875 0 
L 23.484375 0 
z
" id="DejaVuSans-118"/>
      <path d="M 56.203125 29.59375 
L 56.203125 25.203125 
L 14.890625 25.203125 
Q 15.484375 15.921875 20.484375 11.0625 
Q 25.484375 6.203125 34.421875 6.203125 
Q 39.59375 6.203125 44.453125 7.46875 
Q 49.3125 8.734375 54.109375 11.28125 
L 54.109375 2.78125 
Q 49.265625 0.734375 44.1875 -0.34375 
Q 39.109375 -1.421875 33.890625 -1.421875 
Q 20.796875 -1.421875 13.15625 6.1875 
Q 5.515625 13.8125 5.515625 26.8125 
Q 5.515625 40.234375 12.765625 48.109375 
Q 20.015625 56 32.328125 56 
Q 43.359375 56 49.78125 48.890625 
Q 56.203125 41.796875 56.203125 29.59375 
z
M 47.21875 32.234375 
Q 47.125 39.59375 43.09375 43.984375 
Q 39.0625 48.390625 32.421875 48.390625 
Q 24.90625 48.390625 20.390625 44.140625 
Q 15.875 39.890625 15.1875 32.171875 
z
" id="DejaVuSans-101"/>
      <path d="M 41.109375 46.296875 
Q 39.59375 47.171875 37.8125 47.578125 
Q 36.03125 48 33.890625 48 
Q 26.265625 48 22.1875 43.046875 
Q 18.109375 38.09375 18.109375 28.8125 
L 18.109375 0 
L 9.078125 0 
L 9.078125 54.6875 
L 18.109375 54.6875 
L 18.109375 46.1875 
Q 20.953125 51.171875 25.484375 53.578125 
Q 30.03125 56 36.53125 56 
Q 37.453125 56 38.578125 55.875 
Q 39.703125 55.765625 41.0625 55.515625 
z
" id="DejaVuSans-114"/>
      <path d="M 45.40625 27.984375 
Q 45.40625 37.75 41.375 43.109375 
Q 37.359375 48.484375 30.078125 48.484375 
Q 22.859375 48.484375 18.828125 43.109375 
Q 14.796875 37.75 14.796875 27.984375 
Q 14.796875 18.265625 18.828125 12.890625 
Q 22.859375 7.515625 30.078125 7.515625 
Q 37.359375 7.515625 41.375 12.890625 
Q 45.40625 18.265625 45.40625 27.984375 
z
M 54.390625 6.78125 
Q 54.390625 -7.171875 48.1875 -13.984375 
Q 42 -20.796875 29.203125 -20.796875 
Q 24.46875 -20.796875 20.265625 -20.09375 
Q 16.0625 -19.390625 12.109375 -17.921875 
L 12.109375 -9.1875 
Q 16.0625 -11.328125 19.921875 -12.34375 
Q 23.78125 -13.375 27.78125 -13.375 
Q 36.625 -13.375 41.015625 -8.765625 
Q 45.40625 -4.15625 45.40625 5.171875 
L 45.40625 9.625 
Q 42.625 4.78125 38.28125 2.390625 
Q 33.9375 0 27.875 0 
Q 17.828125 0 11.671875 7.65625 
Q 5.515625 15.328125 5.515625 27.984375 
Q 5.515625 40.671875 11.671875 48.328125 
Q 17.828125 56 27.875 56 
Q 33.9375 56 38.28125 53.609375 
Q 42.625 51.21875 45.40625 46.390625 
L 45.40625 54.6875 
L 54.390625 54.6875 
z
" id="DejaVuSans-103"/>
      <path d="M 54.890625 33.015625 
L 54.890625 0 
L 45.90625 0 
L 45.90625 32.71875 
Q 45.90625 40.484375 42.875 44.328125 
Q 39.84375 48.1875 33.796875 48.1875 
Q 26.515625 48.1875 22.3125 43.546875 
Q 18.109375 38.921875 18.109375 30.90625 
L 18.109375 0 
L 9.078125 0 
L 9.078125 54.6875 
L 18.109375 54.6875 
L 18.109375 46.1875 
Q 21.34375 51.125 25.703125 53.5625 
Q 30.078125 56 35.796875 56 
Q 45.21875 56 50.046875 50.171875 
Q 54.890625 44.34375 54.890625 33.015625 
z
" id="DejaVuSans-110"/>
      <path d="M 48.78125 52.59375 
L 48.78125 44.1875 
Q 44.96875 46.296875 41.140625 47.34375 
Q 37.3125 48.390625 33.40625 48.390625 
Q 24.65625 48.390625 19.8125 42.84375 
Q 14.984375 37.3125 14.984375 27.296875 
Q 14.984375 17.28125 19.8125 11.734375 
Q 24.65625 6.203125 33.40625 6.203125 
Q 37.3125 6.203125 41.140625 7.25 
Q 44.96875 8.296875 48.78125 10.40625 
L 48.78125 2.09375 
Q 45.015625 0.34375 40.984375 -0.53125 
Q 36.96875 -1.421875 32.421875 -1.421875 
Q 20.0625 -1.421875 12.78125 6.34375 
Q 5.515625 14.109375 5.515625 27.296875 
Q 5.515625 40.671875 12.859375 48.328125 
Q 20.21875 56 33.015625 56 
Q 37.15625 56 41.109375 55.140625 
Q 45.0625 54.296875 48.78125 52.59375 
z
" id="DejaVuSans-99"/>
      <path d="M 4.203125 54.6875 
L 13.1875 54.6875 
L 24.421875 12.015625 
L 35.59375 54.6875 
L 46.1875 54.6875 
L 57.421875 12.015625 
L 68.609375 54.6875 
L 77.59375 54.6875 
L 63.28125 0 
L 52.6875 0 
L 40.921875 44.828125 
L 29.109375 0 
L 18.5 0 
z
" id="DejaVuSans-119"/>
      <path d="M 18.3125 70.21875 
L 18.3125 54.6875 
L 36.8125 54.6875 
L 36.8125 47.703125 
L 18.3125 47.703125 
L 18.3125 18.015625 
Q 18.3125 11.328125 20.140625 9.421875 
Q 21.96875 7.515625 27.59375 7.515625 
L 36.8125 7.515625 
L 36.8125 0 
L 27.59375 0 
Q 17.1875 0 13.234375 3.875 
Q 9.28125 7.765625 9.28125 18.015625 
L 9.28125 47.703125 
L 2.6875 47.703125 
L 2.6875 54.6875 
L 9.28125 54.6875 
L 9.28125 70.21875 
z
" id="DejaVuSans-116"/>
      <path d="M 54.890625 33.015625 
L 54.890625 0 
L 45.90625 0 
L 45.90625 32.71875 
Q 45.90625 40.484375 42.875 44.328125 
Q 39.84375 48.1875 33.796875 48.1875 
Q 26.515625 48.1875 22.3125 43.546875 
Q 18.109375 38.921875 18.109375 30.90625 
L 18.109375 0 
L 9.078125 0 
L 9.078125 75.984375 
L 18.109375 75.984375 
L 18.109375 46.1875 
Q 21.34375 51.125 25.703125 53.5625 
Q 30.078125 56 35.796875 56 
Q 45.21875 56 50.046875 50.171875 
Q 54.890625 44.34375 54.890625 33.015625 
z
" id="DejaVuSans-104"/>
      <path d="M 19.734375 29.5 
Q 14.453125 30.671875 12.15625 33.84375 
Q 10.453125 36.078125 10.453125 39.109375 
Q 10.453125 47.40625 18.359375 52.25 
Q 24.609375 56.0625 34.1875 56.0625 
Q 37.890625 56.0625 41.9375 55.46875 
Q 46 54.890625 50.53125 53.71875 
L 48.96875 45.5625 
Q 44.484375 46.96875 40.71875 47.609375 
Q 36.859375 48.25 33.40625 48.25 
Q 27.59375 48.25 23.78125 46 
Q 19.1875 43.3125 19.1875 39.40625 
Q 19.1875 36.8125 21.578125 35.015625 
Q 24.421875 32.859375 30.078125 32.859375 
L 37.640625 32.859375 
L 36.234375 25.4375 
L 29 25.4375 
Q 22.265625 25.4375 18.3125 22.953125 
Q 12.9375 19.578125 12.9375 14.3125 
Q 12.9375 10.984375 15.828125 8.796875 
Q 19.4375 6.0625 26.8125 6.0625 
Q 31.34375 6.0625 35.6875 6.9375 
Q 40.046875 7.859375 43.84375 9.671875 
L 42.1875 1.3125 
Q 37.546875 -0.046875 33.296875 -0.734375 
Q 29.046875 -1.421875 25.140625 -1.421875 
Q 13.53125 -1.421875 8.0625 3.03125 
Q 3.90625 6.453125 3.90625 12.203125 
Q 3.90625 19.96875 9.375 24.75 
Q 13.421875 28.328125 19.734375 29.5 
z
" id="DejaVuSans-Oblique-949"/>
     </defs>
     <g transform="translate(40.676667 315.909583)scale(0.2 -0.2)">
      <use transform="translate(0 0.015625)" xlink:href="#DejaVuSans-77"/>
      <use transform="translate(86.279297 0.015625)" xlink:href="#DejaVuSans-97"/>
      <use transform="translate(147.558594 0.015625)" xlink:href="#DejaVuSans-120"/>
      <use transform="translate(206.738281 0.015625)" xlink:href="#DejaVuSans-32"/>
      <use transform="translate(238.525391 0.015625)" xlink:href="#DejaVuSans-74"/>
      <use transform="translate(268.017578 0.015625)" xlink:href="#DejaVuSans-83"/>
      <use transform="translate(331.494141 0.015625)" xlink:href="#DejaVuSans-32"/>
      <use transform="translate(363.28125 0.015625)" xlink:href="#DejaVuSans-68"/>
      <use transform="translate(440.283203 0.015625)" xlink:href="#DejaVuSans-105"/>
      <use transform="translate(468.066406 0.015625)" xlink:href="#DejaVuSans-118"/>
      <use transform="translate(527.246094 0.015625)" xlink:href="#DejaVuSans-101"/>
      <use transform="translate(588.769531 0.015625)" xlink:href="#DejaVuSans-114"/>
      <use transform="translate(629.882812 0.015625)" xlink:href="#DejaVuSans-103"/>
      <use transform="translate(693.359375 0.015625)" xlink:href="#DejaVuSans-101"/>
      <use transform="translate(754.882812 0.015625)" xlink:href="#DejaVuSans-110"/>
      <use transform="translate(818.261719 0.015625)" xlink:href="#DejaVuSans-99"/>
      <use transform="translate(873.242188 0.015625)" xlink:href="#DejaVuSans-101"/>
      <use transform="translate(934.765625 0.015625)" xlink:href="#DejaVuSans-32"/>
      <use transform="translate(966.552734 0.015625)" xlink:href="#DejaVuSans-119"/>
      <use transform="translate(1048.339844 0.015625)" xlink:href="#DejaVuSans-105"/>
      <use transform="translate(1076.123047 0.015625)" xlink:href="#DejaVuSans-116"/>
      <use transform="translate(1115.332031 0.015625)" xlink:href="#DejaVuSans-104"/>
      <use transform="translate(1178.710938 0.015625)" xlink:href="#DejaVuSans-105"/>
      <use transform="translate(1206.494141 0.015625)" xlink:href="#DejaVuSans-110"/>
      <use transform="translate(1269.873047 0.015625)" xlink:href="#DejaVuSans-32"/>
      <use transform="translate(1301.660156 0.015625)" xlink:href="#DejaVuSans-Oblique-949"/>
     </g>
    </g>
   </g>
   <g id="matplotlib.axis_2">
    <g id="ytick_1">
     <g id="line2d_5">
      <defs>
       <path d="M 0 0 
L -3.5 0 
" id="m67f3ec53f0" style="stroke:#000000;stroke-width:1.6;"/>
      </defs>
      <g>
       <use style="stroke:#000000;stroke-width:1.6;" x="46.7" xlink:href="#m67f3ec53f0" y="262.653333"/>
      </g>
     </g>
     <g id="text_6">
      <!-- 0.0 -->
      <g transform="translate(0.19375 270.251771)scale(0.2 -0.2)">
       <use xlink:href="#DejaVuSans-48"/>
       <use x="63.623047" xlink:href="#DejaVuSans-46"/>
       <use x="95.410156" xlink:href="#DejaVuSans-48"/>
      </g>
     </g>
    </g>
    <g id="ytick_2">
     <g id="line2d_6">
      <g>
       <use style="stroke:#000000;stroke-width:1.6;" x="46.7" xlink:href="#m67f3ec53f0" y="195.327503"/>
      </g>
     </g>
     <g id="text_7">
      <!-- 0.1 -->
      <defs>
       <path d="M 12.40625 8.296875 
L 28.515625 8.296875 
L 28.515625 63.921875 
L 10.984375 60.40625 
L 10.984375 69.390625 
L 28.421875 72.90625 
L 38.28125 72.90625 
L 38.28125 8.296875 
L 54.390625 8.296875 
L 54.390625 0 
L 12.40625 0 
z
" id="DejaVuSans-49"/>
      </defs>
      <g transform="translate(0.19375 202.92594)scale(0.2 -0.2)">
       <use xlink:href="#DejaVuSans-48"/>
       <use x="63.623047" xlink:href="#DejaVuSans-46"/>
       <use x="95.410156" xlink:href="#DejaVuSans-49"/>
      </g>
     </g>
    </g>
    <g id="ytick_3">
     <g id="line2d_7">
      <g>
       <use style="stroke:#000000;stroke-width:1.6;" x="46.7" xlink:href="#m67f3ec53f0" y="128.001672"/>
      </g>
     </g>
     <g id="text_8">
      <!-- 0.2 -->
      <g transform="translate(0.19375 135.600109)scale(0.2 -0.2)">
       <use xlink:href="#DejaVuSans-48"/>
       <use x="63.623047" xlink:href="#DejaVuSans-46"/>
       <use x="95.410156" xlink:href="#DejaVuSans-50"/>
      </g>
     </g>
    </g>
    <g id="ytick_4">
     <g id="line2d_8">
      <g>
       <use style="stroke:#000000;stroke-width:1.6;" x="46.7" xlink:href="#m67f3ec53f0" y="60.675841"/>
      </g>
     </g>
     <g id="text_9">
      <!-- 0.3 -->
      <defs>
       <path d="M 40.578125 39.3125 
Q 47.65625 37.796875 51.625 33 
Q 55.609375 28.21875 55.609375 21.1875 
Q 55.609375 10.40625 48.1875 4.484375 
Q 40.765625 -1.421875 27.09375 -1.421875 
Q 22.515625 -1.421875 17.65625 -0.515625 
Q 12.796875 0.390625 7.625 2.203125 
L 7.625 11.71875 
Q 11.71875 9.328125 16.59375 8.109375 
Q 21.484375 6.890625 26.8125 6.890625 
Q 36.078125 6.890625 40.9375 10.546875 
Q 45.796875 14.203125 45.796875 21.1875 
Q 45.796875 27.640625 41.28125 31.265625 
Q 36.765625 34.90625 28.71875 34.90625 
L 20.21875 34.90625 
L 20.21875 43.015625 
L 29.109375 43.015625 
Q 36.375 43.015625 40.234375 45.921875 
Q 44.09375 48.828125 44.09375 54.296875 
Q 44.09375 59.90625 40.109375 62.90625 
Q 36.140625 65.921875 28.71875 65.921875 
Q 24.65625 65.921875 20.015625 65.03125 
Q 15.375 64.15625 9.8125 62.3125 
L 9.8125 71.09375 
Q 15.4375 72.65625 20.34375 73.4375 
Q 25.25 74.21875 29.59375 74.21875 
Q 40.828125 74.21875 47.359375 69.109375 
Q 53.90625 64.015625 53.90625 55.328125 
Q 53.90625 49.265625 50.4375 45.09375 
Q 46.96875 40.921875 40.578125 39.3125 
z
" id="DejaVuSans-51"/>
      </defs>
      <g transform="translate(0.19375 68.274279)scale(0.2 -0.2)">
       <use xlink:href="#DejaVuSans-48"/>
       <use x="63.623047" xlink:href="#DejaVuSans-46"/>
       <use x="95.410156" xlink:href="#DejaVuSans-51"/>
      </g>
     </g>
    </g>
   </g>
   <g id="patch_83">
    <path d="M 46.7 262.653333 
L 46.7 3.5 
" style="fill:none;stroke:#000000;stroke-linecap:square;stroke-linejoin:miter;stroke-width:0.8;"/>
   </g>
   <g id="patch_84">
    <path d="M 46.7 262.653333 
L 305.853333 262.653333 
" style="fill:none;stroke:#000000;stroke-linecap:square;stroke-linejoin:miter;stroke-width:0.8;"/>
   </g>
  </g>
  <g id="axes_2">
   <g id="patch_85">
    <path d="M 417.213333 262.653333 
L 676.366667 262.653333 
L 676.366667 3.5 
L 417.213333 3.5 
z
" style="fill:#ffffff;"/>
   </g>
   <g id="PolyCollection_1">
    <defs>
     <path d="M 611.504727 -300.338987 
L 611.504727 -300.494679 
L 612.132654 -300.494999 
L 612.760581 -300.493286 
L 613.388508 -300.490599 
L 614.016435 -300.488401 
L 614.644362 -300.488367 
L 615.272289 -300.492168 
L 615.900217 -300.501237 
L 616.528144 -300.516572 
L 617.156071 -300.538564 
L 617.783998 -300.566893 
L 618.411925 -300.600486 
L 619.039852 -300.637553 
L 619.667779 -300.675735 
L 620.295706 -300.712351 
L 620.923633 -300.744736 
L 621.551561 -300.770631 
L 622.179488 -300.788552 
L 622.807415 -300.798051 
L 623.435342 -300.799799 
L 624.063269 -300.795473 
L 624.691196 -300.78744 
L 625.319123 -300.778352 
L 625.94705 -300.770713 
L 626.574977 -300.766561 
L 627.202905 -300.767291 
L 627.830832 -300.77365 
L 628.458759 -300.785859 
L 629.086686 -300.803797 
L 629.714613 -300.827192 
L 630.34254 -300.85576 
L 630.970467 -300.889307 
L 631.598394 -300.927772 
L 632.226321 -300.971246 
L 632.854249 -301.019973 
L 633.482176 -301.074327 
L 634.110103 -301.134781 
L 634.73803 -301.201832 
L 635.365957 -301.275899 
L 635.993884 -301.357186 
L 636.621811 -301.445534 
L 637.249738 -301.54029 
L 637.877665 -301.640233 
L 638.505593 -301.743612 
L 639.13352 -301.848327 
L 639.761447 -301.952277 
L 640.389374 -302.053855 
L 641.017301 -302.152505 
L 641.645228 -302.249199 
L 642.273155 -302.346657 
L 642.901082 -302.449142 
L 643.529009 -302.561768 
L 644.156937 -302.689405 
L 644.784864 -302.835443 
L 645.412791 -303.000806 
L 646.040718 -303.183569 
L 646.668645 -303.379431 
L 647.296572 -303.582975 
L 647.924499 -303.789382 
L 648.552426 -303.996063 
L 649.180353 -304.203643 
L 649.808281 -304.415939 
L 650.436208 -304.6389 
L 651.064135 -304.878863 
L 651.692062 -305.140697 
L 652.319989 -305.426457 
L 652.947916 -305.734977 
L 653.575843 -306.062473 
L 654.20377 -306.403896 
L 654.831697 -306.754494 
L 655.459624 -307.111023 
L 656.087552 -307.472209 
L 656.715479 -307.838351 
L 657.343406 -308.210343 
L 657.971333 -308.588602 
L 658.59926 -308.972434 
L 659.227187 -309.360189 
L 659.855114 -309.750152 
L 660.483041 -310.141735 
L 661.110968 -310.536267 
L 661.738896 -310.936671 
L 662.366823 -311.345673 
L 662.99475 -311.762745 
L 663.622677 -312.180566 
L 664.250604 -312.582188 
L 664.878531 -312.940087 
L 665.506458 -313.217846 
L 666.134385 -313.3745 
L 666.762312 -313.370759 
L 667.39024 -313.175753 
L 668.018167 -312.772746 
L 668.646094 -312.162543 
L 669.274021 -311.363932 
L 669.901948 -310.411235 
L 670.529875 -309.349692 
L 671.157802 -308.22977 
L 671.785729 -307.101506 
L 672.413656 -306.009805 
L 673.041584 -304.991185 
L 673.669511 -304.072109 
L 673.669511 -296.761557 
L 673.669511 -296.761557 
L 673.041584 -295.842481 
L 672.413656 -294.823862 
L 671.785729 -293.73216 
L 671.157802 -292.603896 
L 670.529875 -291.483974 
L 669.901948 -290.422432 
L 669.274021 -289.469735 
L 668.646094 -288.671123 
L 668.018167 -288.060921 
L 667.39024 -287.657914 
L 666.762312 -287.462908 
L 666.134385 -287.459167 
L 665.506458 -287.61582 
L 664.878531 -287.893579 
L 664.250604 -288.251478 
L 663.622677 -288.653101 
L 662.99475 -289.070921 
L 662.366823 -289.487994 
L 661.738896 -289.896996 
L 661.110968 -290.2974 
L 660.483041 -290.691932 
L 659.855114 -291.083515 
L 659.227187 -291.473477 
L 658.59926 -291.861233 
L 657.971333 -292.245065 
L 657.343406 -292.623323 
L 656.715479 -292.995316 
L 656.087552 -293.361457 
L 655.459624 -293.722643 
L 654.831697 -294.079173 
L 654.20377 -294.429771 
L 653.575843 -294.771194 
L 652.947916 -295.09869 
L 652.319989 -295.40721 
L 651.692062 -295.69297 
L 651.064135 -295.954804 
L 650.436208 -296.194767 
L 649.808281 -296.417728 
L 649.180353 -296.630024 
L 648.552426 -296.837604 
L 647.924499 -297.044285 
L 647.296572 -297.250692 
L 646.668645 -297.454235 
L 646.040718 -297.650098 
L 645.412791 -297.832861 
L 644.784864 -297.998223 
L 644.156937 -298.144262 
L 643.529009 -298.271899 
L 642.901082 -298.384525 
L 642.273155 -298.48701 
L 641.645228 -298.584468 
L 641.017301 -298.681162 
L 640.389374 -298.779811 
L 639.761447 -298.881389 
L 639.13352 -298.98534 
L 638.505593 -299.090054 
L 637.877665 -299.193434 
L 637.249738 -299.293376 
L 636.621811 -299.388132 
L 635.993884 -299.476481 
L 635.365957 -299.557768 
L 634.73803 -299.631835 
L 634.110103 -299.698886 
L 633.482176 -299.75934 
L 632.854249 -299.813694 
L 632.226321 -299.86242 
L 631.598394 -299.905895 
L 630.970467 -299.94436 
L 630.34254 -299.977907 
L 629.714613 -300.006475 
L 629.086686 -300.029869 
L 628.458759 -300.047808 
L 627.830832 -300.060017 
L 627.202905 -300.066376 
L 626.574977 -300.067106 
L 625.94705 -300.062954 
L 625.319123 -300.055315 
L 624.691196 -300.046226 
L 624.063269 -300.038194 
L 623.435342 -300.033867 
L 622.807415 -300.035616 
L 622.179488 -300.045114 
L 621.551561 -300.063036 
L 620.923633 -300.088931 
L 620.295706 -300.121316 
L 619.667779 -300.157931 
L 619.039852 -300.196114 
L 618.411925 -300.233181 
L 617.783998 -300.266773 
L 617.156071 -300.295103 
L 616.528144 -300.317095 
L 615.900217 -300.33243 
L 615.272289 -300.341499 
L 614.644362 -300.345299 
L 614.016435 -300.345266 
L 613.388508 -300.343067 
L 612.760581 -300.340381 
L 612.132654 -300.338667 
L 611.504727 -300.338987 
z
" id="m54a5a9f63a" style="stroke:#424242;"/>
    </defs>
    <g clip-path="url(#p71c1ecacd4)">
     <use style="fill:#7c78ab;stroke:#424242;" x="0" xlink:href="#m54a5a9f63a" y="323.353333"/>
    </g>
   </g>
   <g id="PolyCollection_2">
    <defs>
     <path d="M 594.502257 -274.446795 
L 594.502257 -274.556205 
L 595.302755 -274.564967 
L 596.103253 -274.575332 
L 596.903751 -274.587895 
L 597.704249 -274.603328 
L 598.504747 -274.622315 
L 599.305245 -274.645486 
L 600.105743 -274.673339 
L 600.906241 -274.706189 
L 601.706739 -274.744135 
L 602.507237 -274.787074 
L 603.307736 -274.834763 
L 604.108234 -274.886916 
L 604.908732 -274.943346 
L 605.70923 -275.004091 
L 606.509728 -275.069516 
L 607.310226 -275.140352 
L 608.110724 -275.217634 
L 608.911222 -275.30256 
L 609.71172 -275.396268 
L 610.512218 -275.499593 
L 611.312717 -275.612841 
L 612.113215 -275.735652 
L 612.913713 -275.866974 
L 613.714211 -276.005166 
L 614.514709 -276.148227 
L 615.315207 -276.294083 
L 616.115705 -276.440903 
L 616.916203 -276.587355 
L 617.716701 -276.732769 
L 618.517199 -276.877157 
L 619.317697 -277.021107 
L 620.118196 -277.165538 
L 620.918694 -277.311401 
L 621.719192 -277.459344 
L 622.51969 -277.609434 
L 623.320188 -277.760964 
L 624.120686 -277.912389 
L 624.921184 -278.061394 
L 625.721682 -278.20509 
L 626.52218 -278.340285 
L 627.322678 -278.463828 
L 628.123176 -278.572947 
L 628.923675 -278.665581 
L 629.724173 -278.740666 
L 630.524671 -278.798354 
L 631.325169 -278.840143 
L 632.125667 -278.868901 
L 632.926165 -278.888739 
L 633.726663 -278.90474 
L 634.527161 -278.922523 
L 635.327659 -278.947666 
L 636.128157 -278.985042 
L 636.928656 -279.038143 
L 637.729154 -279.108483 
L 638.529652 -279.195188 
L 639.33015 -279.294851 
L 640.130648 -279.401726 
L 640.931146 -279.508263 
L 641.731644 -279.605941 
L 642.532142 -279.686311 
L 643.33264 -279.742086 
L 644.133138 -279.768122 
L 644.933636 -279.762123 
L 645.734135 -279.724962 
L 646.534633 -279.660551 
L 647.335131 -279.575311 
L 648.135629 -279.477335 
L 648.936127 -279.375407 
L 649.736625 -279.278053 
L 650.537123 -279.192762 
L 651.337621 -279.125473 
L 652.138119 -279.080342 
L 652.938617 -279.059734 
L 653.739116 -279.06435 
L 654.539614 -279.093375 
L 655.340112 -279.144588 
L 656.14061 -279.21439 
L 656.941108 -279.297773 
L 657.741606 -279.388307 
L 658.542104 -279.478188 
L 659.342602 -279.558455 
L 660.1431 -279.619376 
L 660.943598 -279.651029 
L 661.744096 -279.64402 
L 662.544595 -279.590295 
L 663.345093 -279.483923 
L 664.145591 -279.321777 
L 664.946089 -279.104 
L 665.746587 -278.834173 
L 666.547085 -278.519151 
L 667.347583 -278.168561 
L 668.148081 -277.794007 
L 668.948579 -277.408091 
L 669.749077 -277.023373 
L 670.549575 -276.651397 
L 671.350074 -276.301909 
L 672.150572 -275.982343 
L 672.95107 -275.697596 
L 673.751568 -275.450084 
L 673.751568 -273.552916 
L 673.751568 -273.552916 
L 672.95107 -273.305404 
L 672.150572 -273.020657 
L 671.350074 -272.701091 
L 670.549575 -272.351603 
L 669.749077 -271.979627 
L 668.948579 -271.594909 
L 668.148081 -271.208993 
L 667.347583 -270.834439 
L 666.547085 -270.483849 
L 665.746587 -270.168827 
L 664.946089 -269.899 
L 664.145591 -269.681223 
L 663.345093 -269.519077 
L 662.544595 -269.412705 
L 661.744096 -269.35898 
L 660.943598 -269.351971 
L 660.1431 -269.383624 
L 659.342602 -269.444545 
L 658.542104 -269.524812 
L 657.741606 -269.614693 
L 656.941108 -269.705227 
L 656.14061 -269.78861 
L 655.340112 -269.858412 
L 654.539614 -269.909625 
L 653.739116 -269.93865 
L 652.938617 -269.943266 
L 652.138119 -269.922658 
L 651.337621 -269.877527 
L 650.537123 -269.810238 
L 649.736625 -269.724947 
L 648.936127 -269.627593 
L 648.135629 -269.525665 
L 647.335131 -269.427689 
L 646.534633 -269.342449 
L 645.734135 -269.278038 
L 644.933636 -269.240877 
L 644.133138 -269.234878 
L 643.33264 -269.260914 
L 642.532142 -269.316689 
L 641.731644 -269.397059 
L 640.931146 -269.494737 
L 640.130648 -269.601274 
L 639.33015 -269.708149 
L 638.529652 -269.807812 
L 637.729154 -269.894517 
L 636.928656 -269.964857 
L 636.128157 -270.017958 
L 635.327659 -270.055334 
L 634.527161 -270.080477 
L 633.726663 -270.09826 
L 632.926165 -270.114261 
L 632.125667 -270.134099 
L 631.325169 -270.162857 
L 630.524671 -270.204646 
L 629.724173 -270.262334 
L 628.923675 -270.337419 
L 628.123176 -270.430053 
L 627.322678 -270.539172 
L 626.52218 -270.662715 
L 625.721682 -270.79791 
L 624.921184 -270.941606 
L 624.120686 -271.090611 
L 623.320188 -271.242036 
L 622.51969 -271.393566 
L 621.719192 -271.543656 
L 620.918694 -271.691599 
L 620.118196 -271.837462 
L 619.317697 -271.981893 
L 618.517199 -272.125843 
L 617.716701 -272.270231 
L 616.916203 -272.415645 
L 616.115705 -272.562097 
L 615.315207 -272.708917 
L 614.514709 -272.854773 
L 613.714211 -272.997834 
L 612.913713 -273.136026 
L 612.113215 -273.267348 
L 611.312717 -273.390159 
L 610.512218 -273.503407 
L 609.71172 -273.606732 
L 608.911222 -273.70044 
L 608.110724 -273.785366 
L 607.310226 -273.862648 
L 606.509728 -273.933484 
L 605.70923 -273.998909 
L 604.908732 -274.059654 
L 604.108234 -274.116084 
L 603.307736 -274.168237 
L 602.507237 -274.215926 
L 601.706739 -274.258865 
L 600.906241 -274.296811 
L 600.105743 -274.329661 
L 599.305245 -274.357514 
L 598.504747 -274.380685 
L 597.704249 -274.399672 
L 596.903751 -274.415105 
L 596.103253 -274.427668 
L 595.302755 -274.438033 
L 594.502257 -274.446795 
z
" id="mcb3594989d" style="stroke:#424242;"/>
    </defs>
    <g clip-path="url(#p71c1ecacd4)">
     <use style="fill:#be631d;stroke:#424242;" x="0" xlink:href="#mcb3594989d" y="323.353333"/>
    </g>
   </g>
   <g id="PolyCollection_3">
    <defs>
     <path d="M 648.592267 -234.445386 
L 648.592267 -236.811614 
L 648.83826 -236.814524 
L 649.084253 -236.812 
L 649.330246 -236.804311 
L 649.576239 -236.791843 
L 649.822231 -236.775092 
L 650.068224 -236.754652 
L 650.314217 -236.731206 
L 650.56021 -236.705511 
L 650.806203 -236.678384 
L 651.052196 -236.650687 
L 651.298188 -236.623304 
L 651.544181 -236.597128 
L 651.790174 -236.573044 
L 652.036167 -236.551908 
L 652.28216 -236.534536 
L 652.528153 -236.521688 
L 652.774145 -236.514055 
L 653.020138 -236.51225 
L 653.266131 -236.516802 
L 653.512124 -236.528148 
L 653.758117 -236.546634 
L 654.00411 -236.57251 
L 654.250103 -236.60594 
L 654.496095 -236.646999 
L 654.742088 -236.695684 
L 654.988081 -236.751922 
L 655.234074 -236.815581 
L 655.480067 -236.886479 
L 655.72606 -236.964398 
L 655.972052 -237.049099 
L 656.218045 -237.140329 
L 656.464038 -237.237841 
L 656.710031 -237.341401 
L 656.956024 -237.450804 
L 657.202017 -237.56588 
L 657.448009 -237.686512 
L 657.694002 -237.812634 
L 657.939995 -237.944248 
L 658.185988 -238.081425 
L 658.431981 -238.224309 
L 658.677974 -238.373122 
L 658.923967 -238.528163 
L 659.169959 -238.689808 
L 659.415952 -238.85851 
L 659.661945 -239.034788 
L 659.907938 -239.219228 
L 660.153931 -239.412467 
L 660.399924 -239.615184 
L 660.645916 -239.828087 
L 660.891909 -240.05189 
L 661.137902 -240.287295 
L 661.383895 -240.534967 
L 661.629888 -240.795505 
L 661.875881 -241.069411 
L 662.121873 -241.357056 
L 662.367866 -241.658642 
L 662.613859 -241.974168 
L 662.859852 -242.303389 
L 663.105845 -242.645784 
L 663.351838 -243.000515 
L 663.59783 -243.366406 
L 663.843823 -243.741912 
L 664.089816 -244.125108 
L 664.335809 -244.513678 
L 664.581802 -244.904925 
L 664.827795 -245.295778 
L 665.073788 -245.682828 
L 665.31978 -246.062365 
L 665.565773 -246.43043 
L 665.811766 -246.782882 
L 666.057759 -247.115474 
L 666.303752 -247.423934 
L 666.549745 -247.704058 
L 666.795737 -247.951803 
L 667.04173 -248.16338 
L 667.287723 -248.33535 
L 667.533716 -248.464704 
L 667.779709 -248.548949 
L 668.025702 -248.586167 
L 668.271694 -248.575071 
L 668.517687 -248.515041 
L 668.76368 -248.406144 
L 669.009673 -248.249134 
L 669.255666 -248.04544 
L 669.501659 -247.797126 
L 669.747652 -247.506849 
L 669.993644 -247.177794 
L 670.239637 -246.813596 
L 670.48563 -246.418264 
L 670.731623 -245.996085 
L 670.977616 -245.551534 
L 671.223609 -245.089183 
L 671.469601 -244.61361 
L 671.715594 -244.129315 
L 671.961587 -243.640644 
L 672.20758 -243.151719 
L 672.453573 -242.666384 
L 672.699566 -242.188156 
L 672.945558 -241.720192 
L 672.945558 -229.536808 
L 672.945558 -229.536808 
L 672.699566 -229.068844 
L 672.453573 -228.590616 
L 672.20758 -228.105281 
L 671.961587 -227.616356 
L 671.715594 -227.127685 
L 671.469601 -226.64339 
L 671.223609 -226.167817 
L 670.977616 -225.705466 
L 670.731623 -225.260915 
L 670.48563 -224.838736 
L 670.239637 -224.443404 
L 669.993644 -224.079206 
L 669.747652 -223.750151 
L 669.501659 -223.459874 
L 669.255666 -223.21156 
L 669.009673 -223.007866 
L 668.76368 -222.850856 
L 668.517687 -222.741959 
L 668.271694 -222.681929 
L 668.025702 -222.670833 
L 667.779709 -222.708051 
L 667.533716 -222.792296 
L 667.287723 -222.92165 
L 667.04173 -223.09362 
L 666.795737 -223.305197 
L 666.549745 -223.552942 
L 666.303752 -223.833066 
L 666.057759 -224.141526 
L 665.811766 -224.474118 
L 665.565773 -224.82657 
L 665.31978 -225.194635 
L 665.073788 -225.574172 
L 664.827795 -225.961222 
L 664.581802 -226.352075 
L 664.335809 -226.743322 
L 664.089816 -227.131892 
L 663.843823 -227.515088 
L 663.59783 -227.890594 
L 663.351838 -228.256485 
L 663.105845 -228.611216 
L 662.859852 -228.953611 
L 662.613859 -229.282832 
L 662.367866 -229.598358 
L 662.121873 -229.899944 
L 661.875881 -230.187589 
L 661.629888 -230.461495 
L 661.383895 -230.722033 
L 661.137902 -230.969705 
L 660.891909 -231.20511 
L 660.645916 -231.428913 
L 660.399924 -231.641816 
L 660.153931 -231.844533 
L 659.907938 -232.037772 
L 659.661945 -232.222212 
L 659.415952 -232.39849 
L 659.169959 -232.567192 
L 658.923967 -232.728837 
L 658.677974 -232.883878 
L 658.431981 -233.032691 
L 658.185988 -233.175575 
L 657.939995 -233.312752 
L 657.694002 -233.444366 
L 657.448009 -233.570488 
L 657.202017 -233.69112 
L 656.956024 -233.806196 
L 656.710031 -233.915599 
L 656.464038 -234.019159 
L 656.218045 -234.116671 
L 655.972052 -234.207901 
L 655.72606 -234.292602 
L 655.480067 -234.370521 
L 655.234074 -234.441419 
L 654.988081 -234.505078 
L 654.742088 -234.561316 
L 654.496095 -234.610001 
L 654.250103 -234.65106 
L 654.00411 -234.68449 
L 653.758117 -234.710366 
L 653.512124 -234.728852 
L 653.266131 -234.740198 
L 653.020138 -234.74475 
L 652.774145 -234.742945 
L 652.528153 -234.735312 
L 652.28216 -234.722464 
L 652.036167 -234.705092 
L 651.790174 -234.683956 
L 651.544181 -234.659872 
L 651.298188 -234.633696 
L 651.052196 -234.606313 
L 650.806203 -234.578616 
L 650.56021 -234.551489 
L 650.314217 -234.525794 
L 650.068224 -234.502348 
L 649.822231 -234.481908 
L 649.576239 -234.465157 
L 649.330246 -234.452689 
L 649.084253 -234.445 
L 648.83826 -234.442476 
L 648.592267 -234.445386 
z
" id="m2d742be688" style="stroke:#424242;"/>
    </defs>
    <g clip-path="url(#p71c1ecacd4)">
     <use style="fill:#7c78ab;stroke:#424242;" x="0" xlink:href="#m2d742be688" y="323.353333"/>
    </g>
   </g>
   <g id="PolyCollection_4">
    <defs>
     <path d="M 590.792775 -209.443303 
L 590.792775 -209.983031 
L 591.570308 -209.992369 
L 592.34784 -210.000807 
L 593.125373 -210.008317 
L 593.902906 -210.014891 
L 594.680439 -210.020541 
L 595.457972 -210.025297 
L 596.235505 -210.029206 
L 597.013038 -210.032334 
L 597.790571 -210.034765 
L 598.568104 -210.036597 
L 599.345637 -210.037945 
L 600.12317 -210.038943 
L 600.900703 -210.039735 
L 601.678236 -210.040482 
L 602.455769 -210.041358 
L 603.233302 -210.042544 
L 604.010835 -210.044231 
L 604.788368 -210.046612 
L 605.565901 -210.049881 
L 606.343434 -210.054226 
L 607.120967 -210.059823 
L 607.8985 -210.066831 
L 608.676033 -210.07539 
L 609.453566 -210.085611 
L 610.231099 -210.097576 
L 611.008632 -210.111333 
L 611.786165 -210.126896 
L 612.563698 -210.144247 
L 613.341231 -210.163334 
L 614.118764 -210.184082 
L 614.896297 -210.206391 
L 615.673829 -210.230151 
L 616.451362 -210.255242 
L 617.228895 -210.281551 
L 618.006428 -210.308974 
L 618.783961 -210.337428 
L 619.561494 -210.366856 
L 620.339027 -210.397232 
L 621.11656 -210.428568 
L 621.894093 -210.460912 
L 622.671626 -210.494348 
L 623.449159 -210.528995 
L 624.226692 -210.564999 
L 625.004225 -210.602531 
L 625.781758 -210.641777 
L 626.559291 -210.682928 
L 627.336824 -210.726176 
L 628.114357 -210.771704 
L 628.89189 -210.819678 
L 629.669423 -210.870243 
L 630.446956 -210.92352 
L 631.224489 -210.979599 
L 632.002022 -211.038544 
L 632.779555 -211.100388 
L 633.557088 -211.165142 
L 634.334621 -211.232792 
L 635.112154 -211.303309 
L 635.889687 -211.376647 
L 636.66722 -211.452755 
L 637.444753 -211.531573 
L 638.222286 -211.613041 
L 638.999818 -211.697094 
L 639.777351 -211.783667 
L 640.554884 -211.872691 
L 641.332417 -211.964089 
L 642.10995 -212.057766 
L 642.887483 -212.15361 
L 643.665016 -212.251475 
L 644.442549 -212.351173 
L 645.220082 -212.452466 
L 645.997615 -212.555049 
L 646.775148 -212.658545 
L 647.552681 -212.762489 
L 648.330214 -212.866322 
L 649.107747 -212.969383 
L 649.88528 -213.070905 
L 650.662813 -213.170014 
L 651.440346 -213.265733 
L 652.217879 -213.356987 
L 652.995412 -213.442614 
L 653.772945 -213.521387 
L 654.550478 -213.592027 
L 655.328011 -213.653236 
L 656.105544 -213.703724 
L 656.883077 -213.742239 
L 657.66061 -213.767609 
L 658.438143 -213.778773 
L 659.215676 -213.774819 
L 659.993209 -213.755022 
L 660.770742 -213.71887 
L 661.548275 -213.666094 
L 662.325807 -213.596689 
L 663.10334 -213.510928 
L 663.880873 -213.409363 
L 664.658406 -213.29283 
L 665.435939 -213.162427 
L 666.213472 -213.019501 
L 666.991005 -212.865612 
L 667.768538 -212.702503 
L 667.768538 -206.72383 
L 667.768538 -206.72383 
L 666.991005 -206.560721 
L 666.213472 -206.406833 
L 665.435939 -206.263906 
L 664.658406 -206.133503 
L 663.880873 -206.01697 
L 663.10334 -205.915406 
L 662.325807 -205.829644 
L 661.548275 -205.760239 
L 660.770742 -205.707463 
L 659.993209 -205.671311 
L 659.215676 -205.651514 
L 658.438143 -205.647561 
L 657.66061 -205.658725 
L 656.883077 -205.684094 
L 656.105544 -205.72261 
L 655.328011 -205.773097 
L 654.550478 -205.834306 
L 653.772945 -205.904946 
L 652.995412 -205.983719 
L 652.217879 -206.069347 
L 651.440346 -206.1606 
L 650.662813 -206.256319 
L 649.88528 -206.355429 
L 649.107747 -206.456951 
L 648.330214 -206.560011 
L 647.552681 -206.663844 
L 646.775148 -206.767788 
L 645.997615 -206.871284 
L 645.220082 -206.973868 
L 644.442549 -207.07516 
L 643.665016 -207.174859 
L 642.887483 -207.272723 
L 642.10995 -207.368567 
L 641.332417 -207.462245 
L 640.554884 -207.553642 
L 639.777351 -207.642666 
L 638.999818 -207.72924 
L 638.222286 -207.813293 
L 637.444753 -207.89476 
L 636.66722 -207.973578 
L 635.889687 -208.049686 
L 635.112154 -208.123025 
L 634.334621 -208.193541 
L 633.557088 -208.261191 
L 632.779555 -208.325945 
L 632.002022 -208.38779 
L 631.224489 -208.446734 
L 630.446956 -208.502813 
L 629.669423 -208.55609 
L 628.89189 -208.606656 
L 628.114357 -208.65463 
L 627.336824 -208.700158 
L 626.559291 -208.743406 
L 625.781758 -208.784557 
L 625.004225 -208.823802 
L 624.226692 -208.861334 
L 623.449159 -208.897339 
L 622.671626 -208.931985 
L 621.894093 -208.965421 
L 621.11656 -208.997765 
L 620.339027 -209.029101 
L 619.561494 -209.059478 
L 618.783961 -209.088905 
L 618.006428 -209.117359 
L 617.228895 -209.144782 
L 616.451362 -209.171091 
L 615.673829 -209.196183 
L 614.896297 -209.219942 
L 614.118764 -209.242251 
L 613.341231 -209.262999 
L 612.563698 -209.282087 
L 611.786165 -209.299437 
L 611.008632 -209.315 
L 610.231099 -209.328757 
L 609.453566 -209.340722 
L 608.676033 -209.350943 
L 607.8985 -209.359502 
L 607.120967 -209.366511 
L 606.343434 -209.372107 
L 605.565901 -209.376452 
L 604.788368 -209.379721 
L 604.010835 -209.382103 
L 603.233302 -209.38379 
L 602.455769 -209.384976 
L 601.678236 -209.385851 
L 600.900703 -209.386598 
L 600.12317 -209.38739 
L 599.345637 -209.388388 
L 598.568104 -209.389737 
L 597.790571 -209.391569 
L 597.013038 -209.393999 
L 596.235505 -209.397127 
L 595.457972 -209.401037 
L 594.680439 -209.405792 
L 593.902906 -209.411442 
L 593.125373 -209.418017 
L 592.34784 -209.425526 
L 591.570308 -209.433964 
L 590.792775 -209.443303 
z
" id="m104adf1571" style="stroke:#424242;"/>
    </defs>
    <g clip-path="url(#p71c1ecacd4)">
     <use style="fill:#be631d;stroke:#424242;" x="0" xlink:href="#m104adf1571" y="323.353333"/>
    </g>
   </g>
   <g id="PolyCollection_5">
    <defs>
     <path d="M 630.632593 -140.665694 
L 630.632593 -149.183972 
L 631.042685 -149.230006 
L 631.452778 -149.274573 
L 631.862871 -149.317836 
L 632.272963 -149.359973 
L 632.683056 -149.40118 
L 633.093149 -149.441668 
L 633.503241 -149.481664 
L 633.913334 -149.521409 
L 634.323427 -149.561157 
L 634.733519 -149.601171 
L 635.143612 -149.641726 
L 635.553705 -149.683104 
L 635.963797 -149.725594 
L 636.37389 -149.76949 
L 636.783983 -149.815087 
L 637.194076 -149.862681 
L 637.604168 -149.91257 
L 638.014261 -149.965044 
L 638.424354 -150.020391 
L 638.834446 -150.078892 
L 639.244539 -150.140816 
L 639.654632 -150.206425 
L 640.064724 -150.275964 
L 640.474817 -150.349665 
L 640.88491 -150.427742 
L 641.295002 -150.510393 
L 641.705095 -150.597794 
L 642.115188 -150.690099 
L 642.52528 -150.78744 
L 642.935373 -150.889924 
L 643.345466 -150.997633 
L 643.755558 -151.110621 
L 644.165651 -151.228917 
L 644.575744 -151.352521 
L 644.985836 -151.481403 
L 645.395929 -151.615506 
L 645.806022 -151.754742 
L 646.216114 -151.898994 
L 646.626207 -152.048117 
L 647.0363 -152.201936 
L 647.446392 -152.360246 
L 647.856485 -152.522818 
L 648.266578 -152.68939 
L 648.67667 -152.85968 
L 649.086763 -153.033375 
L 649.496856 -153.210141 
L 649.906948 -153.389619 
L 650.317041 -153.57143 
L 650.727134 -153.755173 
L 651.137226 -153.940431 
L 651.547319 -154.126767 
L 651.957412 -154.31373 
L 652.367504 -154.500857 
L 652.777597 -154.687672 
L 653.18769 -154.873688 
L 653.597783 -155.058412 
L 654.007875 -155.241346 
L 654.417968 -155.421987 
L 654.828061 -155.599829 
L 655.238153 -155.774368 
L 655.648246 -155.945102 
L 656.058339 -156.111532 
L 656.468431 -156.273166 
L 656.878524 -156.429519 
L 657.288617 -156.580117 
L 657.698709 -156.724497 
L 658.108802 -156.862208 
L 658.518895 -156.992816 
L 658.928987 -157.115901 
L 659.33908 -157.231064 
L 659.749173 -157.337924 
L 660.159265 -157.43612 
L 660.569358 -157.525315 
L 660.979451 -157.605194 
L 661.389543 -157.675469 
L 661.799636 -157.735873 
L 662.209729 -157.78617 
L 662.619821 -157.826149 
L 663.029914 -157.855628 
L 663.440007 -157.874453 
L 663.850099 -157.8825 
L 664.260192 -157.879673 
L 664.670285 -157.865908 
L 665.080377 -157.841169 
L 665.49047 -157.805452 
L 665.900563 -157.758784 
L 666.310655 -157.701218 
L 666.720748 -157.632841 
L 667.130841 -157.553768 
L 667.540933 -157.464143 
L 667.951026 -157.364139 
L 668.361119 -157.253956 
L 668.771212 -157.133821 
L 669.181304 -157.003989 
L 669.591397 -156.864738 
L 670.00149 -156.716372 
L 670.411582 -156.559216 
L 670.821675 -156.393619 
L 671.231768 -156.219948 
L 671.231768 -133.629718 
L 671.231768 -133.629718 
L 670.821675 -133.456048 
L 670.411582 -133.290451 
L 670.00149 -133.133295 
L 669.591397 -132.984929 
L 669.181304 -132.845678 
L 668.771212 -132.715846 
L 668.361119 -132.595711 
L 667.951026 -132.485528 
L 667.540933 -132.385523 
L 667.130841 -132.295898 
L 666.720748 -132.216826 
L 666.310655 -132.148449 
L 665.900563 -132.090883 
L 665.49047 -132.044214 
L 665.080377 -132.008498 
L 664.670285 -131.983759 
L 664.260192 -131.969994 
L 663.850099 -131.967167 
L 663.440007 -131.975213 
L 663.029914 -131.994038 
L 662.619821 -132.023517 
L 662.209729 -132.063497 
L 661.799636 -132.113794 
L 661.389543 -132.174198 
L 660.979451 -132.244472 
L 660.569358 -132.324352 
L 660.159265 -132.413547 
L 659.749173 -132.511743 
L 659.33908 -132.618602 
L 658.928987 -132.733765 
L 658.518895 -132.856851 
L 658.108802 -132.987458 
L 657.698709 -133.12517 
L 657.288617 -133.269549 
L 656.878524 -133.420147 
L 656.468431 -133.576501 
L 656.058339 -133.738135 
L 655.648246 -133.904565 
L 655.238153 -134.075299 
L 654.828061 -134.249838 
L 654.417968 -134.42768 
L 654.007875 -134.60832 
L 653.597783 -134.791254 
L 653.18769 -134.975979 
L 652.777597 -135.161995 
L 652.367504 -135.348809 
L 651.957412 -135.535936 
L 651.547319 -135.7229 
L 651.137226 -135.909236 
L 650.727134 -136.094494 
L 650.317041 -136.278237 
L 649.906948 -136.460048 
L 649.496856 -136.639526 
L 649.086763 -136.816292 
L 648.67667 -136.989987 
L 648.266578 -137.160276 
L 647.856485 -137.326849 
L 647.446392 -137.48942 
L 647.0363 -137.647731 
L 646.626207 -137.80155 
L 646.216114 -137.950672 
L 645.806022 -138.094925 
L 645.395929 -138.234161 
L 644.985836 -138.368263 
L 644.575744 -138.497145 
L 644.165651 -138.620749 
L 643.755558 -138.739045 
L 643.345466 -138.852034 
L 642.935373 -138.959743 
L 642.52528 -139.062227 
L 642.115188 -139.159567 
L 641.705095 -139.251872 
L 641.295002 -139.339273 
L 640.88491 -139.421924 
L 640.474817 -139.500002 
L 640.064724 -139.573703 
L 639.654632 -139.643242 
L 639.244539 -139.70885 
L 638.834446 -139.770775 
L 638.424354 -139.829276 
L 638.014261 -139.884623 
L 637.604168 -139.937097 
L 637.194076 -139.986985 
L 636.783983 -140.03458 
L 636.37389 -140.080177 
L 635.963797 -140.124072 
L 635.553705 -140.166563 
L 635.143612 -140.207941 
L 634.733519 -140.248496 
L 634.323427 -140.28851 
L 633.913334 -140.328257 
L 633.503241 -140.368002 
L 633.093149 -140.407998 
L 632.683056 -140.448487 
L 632.272963 -140.489693 
L 631.862871 -140.53183 
L 631.452778 -140.575093 
L 631.042685 -140.619661 
L 630.632593 -140.665694 
z
" id="ma22a6fac85" style="stroke:#424242;"/>
    </defs>
    <g clip-path="url(#p71c1ecacd4)">
     <use style="fill:#be631d;stroke:#424242;" x="0" xlink:href="#ma22a6fac85" y="323.353333"/>
    </g>
   </g>
   <g id="patch_86">
    <path clip-path="url(#p71c1ecacd4)" d="M 434.490222 35.894167 
L 434.490222 35.894167 
L 434.490222 35.894167 
L 434.490222 35.894167 
z
" style="fill:#7c78ab;stroke:#424242;stroke-linejoin:miter;stroke-width:0.5;"/>
   </g>
   <g id="patch_87">
    <path clip-path="url(#p71c1ecacd4)" d="M 434.490222 35.894167 
L 434.490222 35.894167 
L 434.490222 35.894167 
L 434.490222 35.894167 
z
" style="fill:#be631d;stroke:#424242;stroke-linejoin:miter;stroke-width:0.5;"/>
   </g>
   <g id="matplotlib.axis_3">
    <g id="xtick_5">
     <g id="line2d_9">
      <g>
       <use style="stroke:#000000;stroke-width:1.6;" x="434.490222" xlink:href="#m7d43235eea" y="262.653333"/>
      </g>
     </g>
     <g id="text_10">
      <!-- 0.0 -->
      <g transform="translate(418.587097 292.550208)scale(0.2 -0.2)">
       <use xlink:href="#DejaVuSans-48"/>
       <use x="63.623047" xlink:href="#DejaVuSans-46"/>
       <use x="95.410156" xlink:href="#DejaVuSans-48"/>
      </g>
     </g>
    </g>
    <g id="xtick_6">
     <g id="line2d_10">
      <g>
       <use style="stroke:#000000;stroke-width:1.6;" x="503.597778" xlink:href="#m7d43235eea" y="262.653333"/>
      </g>
     </g>
     <g id="text_11">
      <!-- 0.2 -->
      <g transform="translate(487.694653 292.550208)scale(0.2 -0.2)">
       <use xlink:href="#DejaVuSans-48"/>
       <use x="63.623047" xlink:href="#DejaVuSans-46"/>
       <use x="95.410156" xlink:href="#DejaVuSans-50"/>
      </g>
     </g>
    </g>
    <g id="xtick_7">
     <g id="line2d_11">
      <g>
       <use style="stroke:#000000;stroke-width:1.6;" x="572.705333" xlink:href="#m7d43235eea" y="262.653333"/>
      </g>
     </g>
     <g id="text_12">
      <!-- 0.4 -->
      <g transform="translate(556.802208 292.550208)scale(0.2 -0.2)">
       <use xlink:href="#DejaVuSans-48"/>
       <use x="63.623047" xlink:href="#DejaVuSans-46"/>
       <use x="95.410156" xlink:href="#DejaVuSans-52"/>
      </g>
     </g>
    </g>
    <g id="xtick_8">
     <g id="line2d_12">
      <g>
       <use style="stroke:#000000;stroke-width:1.6;" x="641.812889" xlink:href="#m7d43235eea" y="262.653333"/>
      </g>
     </g>
     <g id="text_13">
      <!-- 0.6 -->
      <g transform="translate(625.909764 292.550208)scale(0.2 -0.2)">
       <use xlink:href="#DejaVuSans-48"/>
       <use x="63.623047" xlink:href="#DejaVuSans-46"/>
       <use x="95.410156" xlink:href="#DejaVuSans-54"/>
      </g>
     </g>
    </g>
    <g id="text_14">
     <!-- Max JS Divergence within $\epsilon$ -->
     <g transform="translate(411.19 315.909583)scale(0.2 -0.2)">
      <use transform="translate(0 0.015625)" xlink:href="#DejaVuSans-77"/>
      <use transform="translate(86.279297 0.015625)" xlink:href="#DejaVuSans-97"/>
      <use transform="translate(147.558594 0.015625)" xlink:href="#DejaVuSans-120"/>
      <use transform="translate(206.738281 0.015625)" xlink:href="#DejaVuSans-32"/>
      <use transform="translate(238.525391 0.015625)" xlink:href="#DejaVuSans-74"/>
      <use transform="translate(268.017578 0.015625)" xlink:href="#DejaVuSans-83"/>
      <use transform="translate(331.494141 0.015625)" xlink:href="#DejaVuSans-32"/>
      <use transform="translate(363.28125 0.015625)" xlink:href="#DejaVuSans-68"/>
      <use transform="translate(440.283203 0.015625)" xlink:href="#DejaVuSans-105"/>
      <use transform="translate(468.066406 0.015625)" xlink:href="#DejaVuSans-118"/>
      <use transform="translate(527.246094 0.015625)" xlink:href="#DejaVuSans-101"/>
      <use transform="translate(588.769531 0.015625)" xlink:href="#DejaVuSans-114"/>
      <use transform="translate(629.882812 0.015625)" xlink:href="#DejaVuSans-103"/>
      <use transform="translate(693.359375 0.015625)" xlink:href="#DejaVuSans-101"/>
      <use transform="translate(754.882812 0.015625)" xlink:href="#DejaVuSans-110"/>
      <use transform="translate(818.261719 0.015625)" xlink:href="#DejaVuSans-99"/>
      <use transform="translate(873.242188 0.015625)" xlink:href="#DejaVuSans-101"/>
      <use transform="translate(934.765625 0.015625)" xlink:href="#DejaVuSans-32"/>
      <use transform="translate(966.552734 0.015625)" xlink:href="#DejaVuSans-119"/>
      <use transform="translate(1048.339844 0.015625)" xlink:href="#DejaVuSans-105"/>
      <use transform="translate(1076.123047 0.015625)" xlink:href="#DejaVuSans-116"/>
      <use transform="translate(1115.332031 0.015625)" xlink:href="#DejaVuSans-104"/>
      <use transform="translate(1178.710938 0.015625)" xlink:href="#DejaVuSans-105"/>
      <use transform="translate(1206.494141 0.015625)" xlink:href="#DejaVuSans-110"/>
      <use transform="translate(1269.873047 0.015625)" xlink:href="#DejaVuSans-32"/>
      <use transform="translate(1301.660156 0.015625)" xlink:href="#DejaVuSans-Oblique-949"/>
     </g>
    </g>
   </g>
   <g id="matplotlib.axis_4">
    <g id="ytick_5">
     <g id="line2d_13">
      <g>
       <use style="stroke:#000000;stroke-width:1.6;" x="417.213333" xlink:href="#m67f3ec53f0" y="35.894167"/>
      </g>
     </g>
     <g id="text_15">
      <!-- [0.00, -->
      <defs>
       <path d="M 8.59375 75.984375 
L 29.296875 75.984375 
L 29.296875 69 
L 17.578125 69 
L 17.578125 -6.203125 
L 29.296875 -6.203125 
L 29.296875 -13.1875 
L 8.59375 -13.1875 
z
" id="DejaVuSans-91"/>
       <path d="M 11.71875 12.40625 
L 22.015625 12.40625 
L 22.015625 4 
L 14.015625 -11.625 
L 7.71875 -11.625 
L 11.71875 4 
z
" id="DejaVuSans-44"/>
      </defs>
      <g transform="translate(343.822708 32.294792)scale(0.2 -0.2)">
       <use xlink:href="#DejaVuSans-91"/>
       <use x="39.013672" xlink:href="#DejaVuSans-48"/>
       <use x="102.636719" xlink:href="#DejaVuSans-46"/>
       <use x="134.423828" xlink:href="#DejaVuSans-48"/>
       <use x="198.046875" xlink:href="#DejaVuSans-48"/>
       <use x="261.669922" xlink:href="#DejaVuSans-44"/>
      </g>
      <!-- 0.25) -->
      <defs>
       <path d="M 10.796875 72.90625 
L 49.515625 72.90625 
L 49.515625 64.59375 
L 19.828125 64.59375 
L 19.828125 46.734375 
Q 21.96875 47.46875 24.109375 47.828125 
Q 26.265625 48.1875 28.421875 48.1875 
Q 40.625 48.1875 47.75 41.5 
Q 54.890625 34.8125 54.890625 23.390625 
Q 54.890625 11.625 47.5625 5.09375 
Q 40.234375 -1.421875 26.90625 -1.421875 
Q 22.3125 -1.421875 17.546875 -0.640625 
Q 12.796875 0.140625 7.71875 1.703125 
L 7.71875 11.625 
Q 12.109375 9.234375 16.796875 8.0625 
Q 21.484375 6.890625 26.703125 6.890625 
Q 35.15625 6.890625 40.078125 11.328125 
Q 45.015625 15.765625 45.015625 23.390625 
Q 45.015625 31 40.078125 35.4375 
Q 35.15625 39.890625 26.703125 39.890625 
Q 22.75 39.890625 18.8125 39.015625 
Q 14.890625 38.140625 10.796875 36.28125 
z
" id="DejaVuSans-53"/>
       <path d="M 8.015625 75.875 
L 15.828125 75.875 
Q 23.140625 64.359375 26.78125 53.3125 
Q 30.421875 42.28125 30.421875 31.390625 
Q 30.421875 20.453125 26.78125 9.375 
Q 23.140625 -1.703125 15.828125 -13.1875 
L 8.015625 -13.1875 
Q 14.5 -2 17.703125 9.0625 
Q 20.90625 20.125 20.90625 31.390625 
Q 20.90625 42.671875 17.703125 53.65625 
Q 14.5 64.65625 8.015625 75.875 
z
" id="DejaVuSans-41"/>
      </defs>
      <g transform="translate(350.178958 54.690417)scale(0.2 -0.2)">
       <use xlink:href="#DejaVuSans-48"/>
       <use x="63.623047" xlink:href="#DejaVuSans-46"/>
       <use x="95.410156" xlink:href="#DejaVuSans-50"/>
       <use x="159.033203" xlink:href="#DejaVuSans-53"/>
       <use x="222.65625" xlink:href="#DejaVuSans-41"/>
      </g>
     </g>
    </g>
    <g id="ytick_6">
     <g id="line2d_14">
      <g>
       <use style="stroke:#000000;stroke-width:1.6;" x="417.213333" xlink:href="#m67f3ec53f0" y="100.6825"/>
      </g>
     </g>
     <g id="text_16">
      <!-- [0.25, -->
      <g transform="translate(343.822708 97.083125)scale(0.2 -0.2)">
       <use xlink:href="#DejaVuSans-91"/>
       <use x="39.013672" xlink:href="#DejaVuSans-48"/>
       <use x="102.636719" xlink:href="#DejaVuSans-46"/>
       <use x="134.423828" xlink:href="#DejaVuSans-50"/>
       <use x="198.046875" xlink:href="#DejaVuSans-53"/>
       <use x="261.669922" xlink:href="#DejaVuSans-44"/>
      </g>
      <!-- 0.50) -->
      <g transform="translate(350.178958 119.47875)scale(0.2 -0.2)">
       <use xlink:href="#DejaVuSans-48"/>
       <use x="63.623047" xlink:href="#DejaVuSans-46"/>
       <use x="95.410156" xlink:href="#DejaVuSans-53"/>
       <use x="159.033203" xlink:href="#DejaVuSans-48"/>
       <use x="222.65625" xlink:href="#DejaVuSans-41"/>
      </g>
     </g>
    </g>
    <g id="ytick_7">
     <g id="line2d_15">
      <g>
       <use style="stroke:#000000;stroke-width:1.6;" x="417.213333" xlink:href="#m67f3ec53f0" y="165.470833"/>
      </g>
     </g>
     <g id="text_17">
      <!-- [0.50, -->
      <g transform="translate(343.822708 161.871458)scale(0.2 -0.2)">
       <use xlink:href="#DejaVuSans-91"/>
       <use x="39.013672" xlink:href="#DejaVuSans-48"/>
       <use x="102.636719" xlink:href="#DejaVuSans-46"/>
       <use x="134.423828" xlink:href="#DejaVuSans-53"/>
       <use x="198.046875" xlink:href="#DejaVuSans-48"/>
       <use x="261.669922" xlink:href="#DejaVuSans-44"/>
      </g>
      <!-- 0.75) -->
      <defs>
       <path d="M 8.203125 72.90625 
L 55.078125 72.90625 
L 55.078125 68.703125 
L 28.609375 0 
L 18.3125 0 
L 43.21875 64.59375 
L 8.203125 64.59375 
z
" id="DejaVuSans-55"/>
      </defs>
      <g transform="translate(350.178958 184.267083)scale(0.2 -0.2)">
       <use xlink:href="#DejaVuSans-48"/>
       <use x="63.623047" xlink:href="#DejaVuSans-46"/>
       <use x="95.410156" xlink:href="#DejaVuSans-55"/>
       <use x="159.033203" xlink:href="#DejaVuSans-53"/>
       <use x="222.65625" xlink:href="#DejaVuSans-41"/>
      </g>
     </g>
    </g>
    <g id="ytick_8">
     <g id="line2d_16">
      <g>
       <use style="stroke:#000000;stroke-width:1.6;" x="417.213333" xlink:href="#m67f3ec53f0" y="230.259167"/>
      </g>
     </g>
     <g id="text_18">
      <!-- [0.75, -->
      <g transform="translate(343.822708 226.659792)scale(0.2 -0.2)">
       <use xlink:href="#DejaVuSans-91"/>
       <use x="39.013672" xlink:href="#DejaVuSans-48"/>
       <use x="102.636719" xlink:href="#DejaVuSans-46"/>
       <use x="134.423828" xlink:href="#DejaVuSans-55"/>
       <use x="198.046875" xlink:href="#DejaVuSans-53"/>
       <use x="261.669922" xlink:href="#DejaVuSans-44"/>
      </g>
      <!-- 1.00) -->
      <g transform="translate(350.178958 249.055417)scale(0.2 -0.2)">
       <use xlink:href="#DejaVuSans-49"/>
       <use x="63.623047" xlink:href="#DejaVuSans-46"/>
       <use x="95.410156" xlink:href="#DejaVuSans-48"/>
       <use x="159.033203" xlink:href="#DejaVuSans-48"/>
       <use x="222.65625" xlink:href="#DejaVuSans-41"/>
      </g>
     </g>
    </g>
    <g id="text_19">
     <!-- Max Attention -->
     <defs>
      <path d="M 34.1875 63.1875 
L 20.796875 26.90625 
L 47.609375 26.90625 
z
M 28.609375 72.90625 
L 39.796875 72.90625 
L 67.578125 0 
L 57.328125 0 
L 50.6875 18.703125 
L 17.828125 18.703125 
L 11.1875 0 
L 0.78125 0 
z
" id="DejaVuSans-65"/>
      <path d="M 30.609375 48.390625 
Q 23.390625 48.390625 19.1875 42.75 
Q 14.984375 37.109375 14.984375 27.296875 
Q 14.984375 17.484375 19.15625 11.84375 
Q 23.34375 6.203125 30.609375 6.203125 
Q 37.796875 6.203125 41.984375 11.859375 
Q 46.1875 17.53125 46.1875 27.296875 
Q 46.1875 37.015625 41.984375 42.703125 
Q 37.796875 48.390625 30.609375 48.390625 
z
M 30.609375 56 
Q 42.328125 56 49.015625 48.375 
Q 55.71875 40.765625 55.71875 27.296875 
Q 55.71875 13.875 49.015625 6.21875 
Q 42.328125 -1.421875 30.609375 -1.421875 
Q 18.84375 -1.421875 12.171875 6.21875 
Q 5.515625 13.875 5.515625 27.296875 
Q 5.515625 40.765625 12.171875 48.375 
Q 18.84375 56 30.609375 56 
z
" id="DejaVuSans-111"/>
     </defs>
     <g transform="translate(335.663333 203.254792)rotate(-90)scale(0.2 -0.2)">
      <use xlink:href="#DejaVuSans-77"/>
      <use x="86.279297" xlink:href="#DejaVuSans-97"/>
      <use x="147.558594" xlink:href="#DejaVuSans-120"/>
      <use x="206.738281" xlink:href="#DejaVuSans-32"/>
      <use x="238.525391" xlink:href="#DejaVuSans-65"/>
      <use x="306.917969" xlink:href="#DejaVuSans-116"/>
      <use x="346.126953" xlink:href="#DejaVuSans-116"/>
      <use x="385.335938" xlink:href="#DejaVuSans-101"/>
      <use x="446.859375" xlink:href="#DejaVuSans-110"/>
      <use x="510.238281" xlink:href="#DejaVuSans-116"/>
      <use x="549.447266" xlink:href="#DejaVuSans-105"/>
      <use x="577.230469" xlink:href="#DejaVuSans-111"/>
      <use x="638.412109" xlink:href="#DejaVuSans-110"/>
     </g>
    </g>
   </g>
   <g id="line2d_17">
    <path clip-path="url(#p71c1ecacd4)" style="fill:none;stroke:#424242;stroke-dasharray:1.5,1.5;stroke-dashoffset:0;"/>
   </g>
   <g id="line2d_18">
    <path clip-path="url(#p71c1ecacd4)" style="fill:none;stroke:#424242;stroke-dasharray:3,3;stroke-dashoffset:0;"/>
   </g>
   <g id="line2d_19">
    <path clip-path="url(#p71c1ecacd4)" style="fill:none;stroke:#424242;stroke-dasharray:1.5,1.5;stroke-dashoffset:0;"/>
   </g>
   <g id="line2d_20">
    <path clip-path="url(#p71c1ecacd4)" style="fill:none;stroke:#424242;stroke-dasharray:1.5,1.5;stroke-dashoffset:0;"/>
   </g>
   <g id="line2d_21">
    <path clip-path="url(#p71c1ecacd4)" style="fill:none;stroke:#424242;stroke-dasharray:3,3;stroke-dashoffset:0;"/>
   </g>
   <g id="line2d_22">
    <path clip-path="url(#p71c1ecacd4)" style="fill:none;stroke:#424242;stroke-dasharray:1.5,1.5;stroke-dashoffset:0;"/>
   </g>
   <g id="line2d_23">
    <path clip-path="url(#p71c1ecacd4)" style="fill:none;stroke:#424242;stroke-dasharray:1.5,1.5;stroke-dashoffset:0;"/>
   </g>
   <g id="line2d_24">
    <path clip-path="url(#p71c1ecacd4)" style="fill:none;stroke:#424242;stroke-dasharray:3,3;stroke-dashoffset:0;"/>
   </g>
   <g id="line2d_25">
    <path clip-path="url(#p71c1ecacd4)" style="fill:none;stroke:#424242;stroke-dasharray:1.5,1.5;stroke-dashoffset:0;"/>
   </g>
   <g id="line2d_26">
    <path clip-path="url(#p71c1ecacd4)" style="fill:none;stroke:#424242;stroke-dasharray:1.5,1.5;stroke-dashoffset:0;"/>
   </g>
   <g id="line2d_27">
    <path clip-path="url(#p71c1ecacd4)" style="fill:none;stroke:#424242;stroke-dasharray:3,3;stroke-dashoffset:0;"/>
   </g>
   <g id="line2d_28">
    <path clip-path="url(#p71c1ecacd4)" style="fill:none;stroke:#424242;stroke-dasharray:1.5,1.5;stroke-dashoffset:0;"/>
   </g>
   <g id="line2d_29">
    <path clip-path="url(#p71c1ecacd4)" style="fill:none;stroke:#424242;stroke-linecap:square;"/>
   </g>
   <g id="line2d_30">
    <path clip-path="url(#p71c1ecacd4)" style="fill:none;stroke:#424242;stroke-dasharray:1.5,1.5;stroke-dashoffset:0;"/>
   </g>
   <g id="line2d_31">
    <path clip-path="url(#p71c1ecacd4)" style="fill:none;stroke:#424242;stroke-dasharray:3,3;stroke-dashoffset:0;"/>
   </g>
   <g id="line2d_32">
    <path clip-path="url(#p71c1ecacd4)" style="fill:none;stroke:#424242;stroke-dasharray:1.5,1.5;stroke-dashoffset:0;"/>
   </g>
   <g id="line2d_33">
    <path clip-path="url(#p71c1ecacd4)" style="fill:none;stroke:#424242;stroke-linecap:square;"/>
   </g>
   <g id="patch_88">
    <path style="fill:none;stroke:#000000;stroke-linecap:square;stroke-linejoin:miter;stroke-width:0.8;"/>
   </g>
   <g id="patch_89">
    <path style="fill:none;stroke:#000000;stroke-linecap:square;stroke-linejoin:miter;stroke-width:0.8;"/>
   </g>
  </g>
 </g>
 <defs>
  <clipPath id="pc344d93f02">
   <rect height="259.153333" width="259.153333" x="46.7" y="3.5"/>
  </clipPath>
  <clipPath id="p71c1ecacd4">
   <rect height="259.153333" width="259.153333" x="417.213333" y="3.5"/>
  </clipPath>
 </defs>
</svg>
