<?xml version="1.0" encoding="utf-8" standalone="no"?>
<!DOCTYPE svg PUBLIC "-//W3C//DTD SVG 1.1//EN"
  "http://www.w3.org/Graphics/SVG/1.1/DTD/svg11.dtd">
<!-- Created with matplotlib (https://matplotlib.org/) -->
<svg height="332.774202pt" version="1.1" viewBox="0 0 328.266536 332.774202" width="328.266536pt" xmlns="http://www.w3.org/2000/svg" xmlns:xlink="http://www.w3.org/1999/xlink">
 <defs>
  <style type="text/css">
*{stroke-linecap:butt;stroke-linejoin:round;}
  </style>
 </defs>
 <g id="figure_1">
  <g id="patch_1">
   <path d="M 0 332.774202 
L 328.266536 332.774202 
L 328.266536 -0 
L 0 -0 
z
" style="fill:#ffffff;"/>
  </g>
  <g id="axes_1">
   <g id="patch_2">
    <path d="M 59.575 272.074202 
L 324.516667 272.074202 
L 324.516667 7.132536 
L 59.575 7.132536 
z
" style="fill:#ffffff;"/>
   </g>
   <g id="patch_3">
    <path clip-path="url(#pe7c1bb828c)" d="M 71.617803 272.074202 
L 77.639205 272.074202 
L 77.639205 272.074202 
L 71.617803 272.074202 
z
" style="fill:#7570b3;opacity:0.6;stroke:#000000;stroke-linejoin:miter;stroke-width:0.5;"/>
   </g>
   <g id="patch_4">
    <path clip-path="url(#pe7c1bb828c)" d="M 77.639205 272.074202 
L 83.660606 272.074202 
L 83.660606 272.074202 
L 77.639205 272.074202 
z
" style="fill:#7570b3;opacity:0.6;stroke:#000000;stroke-linejoin:miter;stroke-width:0.5;"/>
   </g>
   <g id="patch_5">
    <path clip-path="url(#pe7c1bb828c)" d="M 83.660606 272.074202 
L 89.682008 272.074202 
L 89.682008 272.074202 
L 83.660606 272.074202 
z
" style="fill:#7570b3;opacity:0.6;stroke:#000000;stroke-linejoin:miter;stroke-width:0.5;"/>
   </g>
   <g id="patch_6">
    <path clip-path="url(#pe7c1bb828c)" d="M 89.682008 272.074202 
L 95.703409 272.074202 
L 95.703409 272.074202 
L 89.682008 272.074202 
z
" style="fill:#7570b3;opacity:0.6;stroke:#000000;stroke-linejoin:miter;stroke-width:0.5;"/>
   </g>
   <g id="patch_7">
    <path clip-path="url(#pe7c1bb828c)" d="M 95.703409 272.074202 
L 101.724811 272.074202 
L 101.724811 272.074202 
L 95.703409 272.074202 
z
" style="fill:#7570b3;opacity:0.6;stroke:#000000;stroke-linejoin:miter;stroke-width:0.5;"/>
   </g>
   <g id="patch_8">
    <path clip-path="url(#pe7c1bb828c)" d="M 101.724811 272.074202 
L 107.746212 272.074202 
L 107.746212 272.074202 
L 101.724811 272.074202 
z
" style="fill:#7570b3;opacity:0.6;stroke:#000000;stroke-linejoin:miter;stroke-width:0.5;"/>
   </g>
   <g id="patch_9">
    <path clip-path="url(#pe7c1bb828c)" d="M 107.746212 272.074202 
L 113.767614 272.074202 
L 113.767614 272.074202 
L 107.746212 272.074202 
z
" style="fill:#7570b3;opacity:0.6;stroke:#000000;stroke-linejoin:miter;stroke-width:0.5;"/>
   </g>
   <g id="patch_10">
    <path clip-path="url(#pe7c1bb828c)" d="M 113.767614 272.074202 
L 119.789015 272.074202 
L 119.789015 272.074202 
L 113.767614 272.074202 
z
" style="fill:#7570b3;opacity:0.6;stroke:#000000;stroke-linejoin:miter;stroke-width:0.5;"/>
   </g>
   <g id="patch_11">
    <path clip-path="url(#pe7c1bb828c)" d="M 119.789015 272.074202 
L 125.810417 272.074202 
L 125.810417 272.074202 
L 119.789015 272.074202 
z
" style="fill:#7570b3;opacity:0.6;stroke:#000000;stroke-linejoin:miter;stroke-width:0.5;"/>
   </g>
   <g id="patch_12">
    <path clip-path="url(#pe7c1bb828c)" d="M 125.810417 272.074202 
L 131.831818 272.074202 
L 131.831818 272.074202 
L 125.810417 272.074202 
z
" style="fill:#7570b3;opacity:0.6;stroke:#000000;stroke-linejoin:miter;stroke-width:0.5;"/>
   </g>
   <g id="patch_13">
    <path clip-path="url(#pe7c1bb828c)" d="M 131.831818 272.074202 
L 137.85322 272.074202 
L 137.85322 272.074202 
L 131.831818 272.074202 
z
" style="fill:#7570b3;opacity:0.6;stroke:#000000;stroke-linejoin:miter;stroke-width:0.5;"/>
   </g>
   <g id="patch_14">
    <path clip-path="url(#pe7c1bb828c)" d="M 137.85322 272.074202 
L 143.874621 272.074202 
L 143.874621 272.074202 
L 137.85322 272.074202 
z
" style="fill:#7570b3;opacity:0.6;stroke:#000000;stroke-linejoin:miter;stroke-width:0.5;"/>
   </g>
   <g id="patch_15">
    <path clip-path="url(#pe7c1bb828c)" d="M 143.874621 272.074202 
L 149.896023 272.074202 
L 149.896023 272.074202 
L 143.874621 272.074202 
z
" style="fill:#7570b3;opacity:0.6;stroke:#000000;stroke-linejoin:miter;stroke-width:0.5;"/>
   </g>
   <g id="patch_16">
    <path clip-path="url(#pe7c1bb828c)" d="M 149.896023 272.074202 
L 155.917424 272.074202 
L 155.917424 272.074202 
L 149.896023 272.074202 
z
" style="fill:#7570b3;opacity:0.6;stroke:#000000;stroke-linejoin:miter;stroke-width:0.5;"/>
   </g>
   <g id="patch_17">
    <path clip-path="url(#pe7c1bb828c)" d="M 155.917424 272.074202 
L 161.938826 272.074202 
L 161.938826 272.074202 
L 155.917424 272.074202 
z
" style="fill:#7570b3;opacity:0.6;stroke:#000000;stroke-linejoin:miter;stroke-width:0.5;"/>
   </g>
   <g id="patch_18">
    <path clip-path="url(#pe7c1bb828c)" d="M 161.938826 272.074202 
L 167.960227 272.074202 
L 167.960227 272.074202 
L 161.938826 272.074202 
z
" style="fill:#7570b3;opacity:0.6;stroke:#000000;stroke-linejoin:miter;stroke-width:0.5;"/>
   </g>
   <g id="patch_19">
    <path clip-path="url(#pe7c1bb828c)" d="M 167.960227 272.074202 
L 173.981629 272.074202 
L 173.981629 272.074202 
L 167.960227 272.074202 
z
" style="fill:#7570b3;opacity:0.6;stroke:#000000;stroke-linejoin:miter;stroke-width:0.5;"/>
   </g>
   <g id="patch_20">
    <path clip-path="url(#pe7c1bb828c)" d="M 173.981629 272.074202 
L 180.00303 272.074202 
L 180.00303 272.074202 
L 173.981629 272.074202 
z
" style="fill:#7570b3;opacity:0.6;stroke:#000000;stroke-linejoin:miter;stroke-width:0.5;"/>
   </g>
   <g id="patch_21">
    <path clip-path="url(#pe7c1bb828c)" d="M 180.00303 272.074202 
L 186.024432 272.074202 
L 186.024432 272.074202 
L 180.00303 272.074202 
z
" style="fill:#7570b3;opacity:0.6;stroke:#000000;stroke-linejoin:miter;stroke-width:0.5;"/>
   </g>
   <g id="patch_22">
    <path clip-path="url(#pe7c1bb828c)" d="M 186.024432 272.074202 
L 192.045833 272.074202 
L 192.045833 272.074202 
L 186.024432 272.074202 
z
" style="fill:#7570b3;opacity:0.6;stroke:#000000;stroke-linejoin:miter;stroke-width:0.5;"/>
   </g>
   <g id="patch_23">
    <path clip-path="url(#pe7c1bb828c)" d="M 192.045833 272.074202 
L 198.067235 272.074202 
L 198.067235 272.074202 
L 192.045833 272.074202 
z
" style="fill:#7570b3;opacity:0.6;stroke:#000000;stroke-linejoin:miter;stroke-width:0.5;"/>
   </g>
   <g id="patch_24">
    <path clip-path="url(#pe7c1bb828c)" d="M 198.067235 272.074202 
L 204.088636 272.074202 
L 204.088636 272.074202 
L 198.067235 272.074202 
z
" style="fill:#7570b3;opacity:0.6;stroke:#000000;stroke-linejoin:miter;stroke-width:0.5;"/>
   </g>
   <g id="patch_25">
    <path clip-path="url(#pe7c1bb828c)" d="M 204.088636 272.074202 
L 210.110038 272.074202 
L 210.110038 272.074202 
L 204.088636 272.074202 
z
" style="fill:#7570b3;opacity:0.6;stroke:#000000;stroke-linejoin:miter;stroke-width:0.5;"/>
   </g>
   <g id="patch_26">
    <path clip-path="url(#pe7c1bb828c)" d="M 210.110038 272.074202 
L 216.131439 272.074202 
L 216.131439 272.074202 
L 210.110038 272.074202 
z
" style="fill:#7570b3;opacity:0.6;stroke:#000000;stroke-linejoin:miter;stroke-width:0.5;"/>
   </g>
   <g id="patch_27">
    <path clip-path="url(#pe7c1bb828c)" d="M 216.131439 272.074202 
L 222.152841 272.074202 
L 222.152841 272.074202 
L 216.131439 272.074202 
z
" style="fill:#7570b3;opacity:0.6;stroke:#000000;stroke-linejoin:miter;stroke-width:0.5;"/>
   </g>
   <g id="patch_28">
    <path clip-path="url(#pe7c1bb828c)" d="M 222.152841 272.074202 
L 228.174242 272.074202 
L 228.174242 272.074202 
L 222.152841 272.074202 
z
" style="fill:#7570b3;opacity:0.6;stroke:#000000;stroke-linejoin:miter;stroke-width:0.5;"/>
   </g>
   <g id="patch_29">
    <path clip-path="url(#pe7c1bb828c)" d="M 228.174242 272.074202 
L 234.195644 272.074202 
L 234.195644 272.074202 
L 228.174242 272.074202 
z
" style="fill:#7570b3;opacity:0.6;stroke:#000000;stroke-linejoin:miter;stroke-width:0.5;"/>
   </g>
   <g id="patch_30">
    <path clip-path="url(#pe7c1bb828c)" d="M 234.195644 272.074202 
L 240.217045 272.074202 
L 240.217045 272.074202 
L 234.195644 272.074202 
z
" style="fill:#7570b3;opacity:0.6;stroke:#000000;stroke-linejoin:miter;stroke-width:0.5;"/>
   </g>
   <g id="patch_31">
    <path clip-path="url(#pe7c1bb828c)" d="M 240.217045 272.074202 
L 246.238447 272.074202 
L 246.238447 272.074202 
L 240.217045 272.074202 
z
" style="fill:#7570b3;opacity:0.6;stroke:#000000;stroke-linejoin:miter;stroke-width:0.5;"/>
   </g>
   <g id="patch_32">
    <path clip-path="url(#pe7c1bb828c)" d="M 246.238447 272.074202 
L 252.259848 272.074202 
L 252.259848 264.724919 
L 246.238447 264.724919 
z
" style="fill:#7570b3;opacity:0.6;stroke:#000000;stroke-linejoin:miter;stroke-width:0.5;"/>
   </g>
   <g id="patch_33">
    <path clip-path="url(#pe7c1bb828c)" d="M 252.259848 272.074202 
L 258.28125 272.074202 
L 258.28125 134.887579 
L 252.259848 134.887579 
z
" style="fill:#7570b3;opacity:0.6;stroke:#000000;stroke-linejoin:miter;stroke-width:0.5;"/>
   </g>
   <g id="patch_34">
    <path clip-path="url(#pe7c1bb828c)" d="M 258.28125 272.074202 
L 264.302652 272.074202 
L 264.302652 19.748806 
L 258.28125 19.748806 
z
" style="fill:#7570b3;opacity:0.6;stroke:#000000;stroke-linejoin:miter;stroke-width:0.5;"/>
   </g>
   <g id="patch_35">
    <path clip-path="url(#pe7c1bb828c)" d="M 264.302652 272.074202 
L 270.324053 272.074202 
L 270.324053 27.098089 
L 264.302652 27.098089 
z
" style="fill:#7570b3;opacity:0.6;stroke:#000000;stroke-linejoin:miter;stroke-width:0.5;"/>
   </g>
   <g id="patch_36">
    <path clip-path="url(#pe7c1bb828c)" d="M 270.324053 272.074202 
L 276.345455 272.074202 
L 276.345455 137.33734 
L 270.324053 137.33734 
z
" style="fill:#7570b3;opacity:0.6;stroke:#000000;stroke-linejoin:miter;stroke-width:0.5;"/>
   </g>
   <g id="patch_37">
    <path clip-path="url(#pe7c1bb828c)" d="M 276.345455 272.074202 
L 282.366856 272.074202 
L 282.366856 203.480891 
L 276.345455 203.480891 
z
" style="fill:#7570b3;opacity:0.6;stroke:#000000;stroke-linejoin:miter;stroke-width:0.5;"/>
   </g>
   <g id="patch_38">
    <path clip-path="url(#pe7c1bb828c)" d="M 282.366856 272.074202 
L 288.388258 272.074202 
L 288.388258 245.12683 
L 282.366856 245.12683 
z
" style="fill:#7570b3;opacity:0.6;stroke:#000000;stroke-linejoin:miter;stroke-width:0.5;"/>
   </g>
   <g id="patch_39">
    <path clip-path="url(#pe7c1bb828c)" d="M 288.388258 272.074202 
L 294.409659 272.074202 
L 294.409659 218.179458 
L 288.388258 218.179458 
z
" style="fill:#7570b3;opacity:0.6;stroke:#000000;stroke-linejoin:miter;stroke-width:0.5;"/>
   </g>
   <g id="patch_40">
    <path clip-path="url(#pe7c1bb828c)" d="M 294.409659 272.074202 
L 300.431061 272.074202 
L 300.431061 218.179458 
L 294.409659 218.179458 
z
" style="fill:#7570b3;opacity:0.6;stroke:#000000;stroke-linejoin:miter;stroke-width:0.5;"/>
   </g>
   <g id="patch_41">
    <path clip-path="url(#pe7c1bb828c)" d="M 300.431061 272.074202 
L 306.452462 272.074202 
L 306.452462 203.480891 
L 300.431061 203.480891 
z
" style="fill:#7570b3;opacity:0.6;stroke:#000000;stroke-linejoin:miter;stroke-width:0.5;"/>
   </g>
   <g id="patch_42">
    <path clip-path="url(#pe7c1bb828c)" d="M 306.452462 272.074202 
L 312.473864 272.074202 
L 312.473864 262.275158 
L 306.452462 262.275158 
z
" style="fill:#7570b3;opacity:0.6;stroke:#000000;stroke-linejoin:miter;stroke-width:0.5;"/>
   </g>
   <g id="patch_43">
    <path clip-path="url(#pe7c1bb828c)" d="M 71.617803 272.074202 
L 77.639205 272.074202 
L 77.639205 272.074202 
L 71.617803 272.074202 
z
" style="fill:#d95f02;opacity:0.6;stroke:#000000;stroke-linejoin:miter;stroke-width:0.5;"/>
   </g>
   <g id="patch_44">
    <path clip-path="url(#pe7c1bb828c)" d="M 77.639205 272.074202 
L 83.660606 272.074202 
L 83.660606 272.074202 
L 77.639205 272.074202 
z
" style="fill:#d95f02;opacity:0.6;stroke:#000000;stroke-linejoin:miter;stroke-width:0.5;"/>
   </g>
   <g id="patch_45">
    <path clip-path="url(#pe7c1bb828c)" d="M 83.660606 272.074202 
L 89.682008 272.074202 
L 89.682008 272.074202 
L 83.660606 272.074202 
z
" style="fill:#d95f02;opacity:0.6;stroke:#000000;stroke-linejoin:miter;stroke-width:0.5;"/>
   </g>
   <g id="patch_46">
    <path clip-path="url(#pe7c1bb828c)" d="M 89.682008 272.074202 
L 95.703409 272.074202 
L 95.703409 272.074202 
L 89.682008 272.074202 
z
" style="fill:#d95f02;opacity:0.6;stroke:#000000;stroke-linejoin:miter;stroke-width:0.5;"/>
   </g>
   <g id="patch_47">
    <path clip-path="url(#pe7c1bb828c)" d="M 95.703409 272.074202 
L 101.724811 272.074202 
L 101.724811 272.074202 
L 95.703409 272.074202 
z
" style="fill:#d95f02;opacity:0.6;stroke:#000000;stroke-linejoin:miter;stroke-width:0.5;"/>
   </g>
   <g id="patch_48">
    <path clip-path="url(#pe7c1bb828c)" d="M 101.724811 272.074202 
L 107.746212 272.074202 
L 107.746212 272.074202 
L 101.724811 272.074202 
z
" style="fill:#d95f02;opacity:0.6;stroke:#000000;stroke-linejoin:miter;stroke-width:0.5;"/>
   </g>
   <g id="patch_49">
    <path clip-path="url(#pe7c1bb828c)" d="M 107.746212 272.074202 
L 113.767614 272.074202 
L 113.767614 272.074202 
L 107.746212 272.074202 
z
" style="fill:#d95f02;opacity:0.6;stroke:#000000;stroke-linejoin:miter;stroke-width:0.5;"/>
   </g>
   <g id="patch_50">
    <path clip-path="url(#pe7c1bb828c)" d="M 113.767614 272.074202 
L 119.789015 272.074202 
L 119.789015 272.074202 
L 113.767614 272.074202 
z
" style="fill:#d95f02;opacity:0.6;stroke:#000000;stroke-linejoin:miter;stroke-width:0.5;"/>
   </g>
   <g id="patch_51">
    <path clip-path="url(#pe7c1bb828c)" d="M 119.789015 272.074202 
L 125.810417 272.074202 
L 125.810417 272.074202 
L 119.789015 272.074202 
z
" style="fill:#d95f02;opacity:0.6;stroke:#000000;stroke-linejoin:miter;stroke-width:0.5;"/>
   </g>
   <g id="patch_52">
    <path clip-path="url(#pe7c1bb828c)" d="M 125.810417 272.074202 
L 131.831818 272.074202 
L 131.831818 272.074202 
L 125.810417 272.074202 
z
" style="fill:#d95f02;opacity:0.6;stroke:#000000;stroke-linejoin:miter;stroke-width:0.5;"/>
   </g>
   <g id="patch_53">
    <path clip-path="url(#pe7c1bb828c)" d="M 131.831818 272.074202 
L 137.85322 272.074202 
L 137.85322 272.074202 
L 131.831818 272.074202 
z
" style="fill:#d95f02;opacity:0.6;stroke:#000000;stroke-linejoin:miter;stroke-width:0.5;"/>
   </g>
   <g id="patch_54">
    <path clip-path="url(#pe7c1bb828c)" d="M 137.85322 272.074202 
L 143.874621 272.074202 
L 143.874621 272.074202 
L 137.85322 272.074202 
z
" style="fill:#d95f02;opacity:0.6;stroke:#000000;stroke-linejoin:miter;stroke-width:0.5;"/>
   </g>
   <g id="patch_55">
    <path clip-path="url(#pe7c1bb828c)" d="M 143.874621 272.074202 
L 149.896023 272.074202 
L 149.896023 272.074202 
L 143.874621 272.074202 
z
" style="fill:#d95f02;opacity:0.6;stroke:#000000;stroke-linejoin:miter;stroke-width:0.5;"/>
   </g>
   <g id="patch_56">
    <path clip-path="url(#pe7c1bb828c)" d="M 149.896023 272.074202 
L 155.917424 272.074202 
L 155.917424 272.074202 
L 149.896023 272.074202 
z
" style="fill:#d95f02;opacity:0.6;stroke:#000000;stroke-linejoin:miter;stroke-width:0.5;"/>
   </g>
   <g id="patch_57">
    <path clip-path="url(#pe7c1bb828c)" d="M 155.917424 272.074202 
L 161.938826 272.074202 
L 161.938826 272.074202 
L 155.917424 272.074202 
z
" style="fill:#d95f02;opacity:0.6;stroke:#000000;stroke-linejoin:miter;stroke-width:0.5;"/>
   </g>
   <g id="patch_58">
    <path clip-path="url(#pe7c1bb828c)" d="M 161.938826 272.074202 
L 167.960227 272.074202 
L 167.960227 272.074202 
L 161.938826 272.074202 
z
" style="fill:#d95f02;opacity:0.6;stroke:#000000;stroke-linejoin:miter;stroke-width:0.5;"/>
   </g>
   <g id="patch_59">
    <path clip-path="url(#pe7c1bb828c)" d="M 167.960227 272.074202 
L 173.981629 272.074202 
L 173.981629 272.074202 
L 167.960227 272.074202 
z
" style="fill:#d95f02;opacity:0.6;stroke:#000000;stroke-linejoin:miter;stroke-width:0.5;"/>
   </g>
   <g id="patch_60">
    <path clip-path="url(#pe7c1bb828c)" d="M 173.981629 272.074202 
L 180.00303 272.074202 
L 180.00303 272.074202 
L 173.981629 272.074202 
z
" style="fill:#d95f02;opacity:0.6;stroke:#000000;stroke-linejoin:miter;stroke-width:0.5;"/>
   </g>
   <g id="patch_61">
    <path clip-path="url(#pe7c1bb828c)" d="M 180.00303 272.074202 
L 186.024432 272.074202 
L 186.024432 272.074202 
L 180.00303 272.074202 
z
" style="fill:#d95f02;opacity:0.6;stroke:#000000;stroke-linejoin:miter;stroke-width:0.5;"/>
   </g>
   <g id="patch_62">
    <path clip-path="url(#pe7c1bb828c)" d="M 186.024432 272.074202 
L 192.045833 272.074202 
L 192.045833 272.074202 
L 186.024432 272.074202 
z
" style="fill:#d95f02;opacity:0.6;stroke:#000000;stroke-linejoin:miter;stroke-width:0.5;"/>
   </g>
   <g id="patch_63">
    <path clip-path="url(#pe7c1bb828c)" d="M 192.045833 272.074202 
L 198.067235 272.074202 
L 198.067235 272.074202 
L 192.045833 272.074202 
z
" style="fill:#d95f02;opacity:0.6;stroke:#000000;stroke-linejoin:miter;stroke-width:0.5;"/>
   </g>
   <g id="patch_64">
    <path clip-path="url(#pe7c1bb828c)" d="M 198.067235 272.074202 
L 204.088636 272.074202 
L 204.088636 272.074202 
L 198.067235 272.074202 
z
" style="fill:#d95f02;opacity:0.6;stroke:#000000;stroke-linejoin:miter;stroke-width:0.5;"/>
   </g>
   <g id="patch_65">
    <path clip-path="url(#pe7c1bb828c)" d="M 204.088636 272.074202 
L 210.110038 272.074202 
L 210.110038 272.074202 
L 204.088636 272.074202 
z
" style="fill:#d95f02;opacity:0.6;stroke:#000000;stroke-linejoin:miter;stroke-width:0.5;"/>
   </g>
   <g id="patch_66">
    <path clip-path="url(#pe7c1bb828c)" d="M 210.110038 272.074202 
L 216.131439 272.074202 
L 216.131439 272.074202 
L 210.110038 272.074202 
z
" style="fill:#d95f02;opacity:0.6;stroke:#000000;stroke-linejoin:miter;stroke-width:0.5;"/>
   </g>
   <g id="patch_67">
    <path clip-path="url(#pe7c1bb828c)" d="M 216.131439 272.074202 
L 222.152841 272.074202 
L 222.152841 272.074202 
L 216.131439 272.074202 
z
" style="fill:#d95f02;opacity:0.6;stroke:#000000;stroke-linejoin:miter;stroke-width:0.5;"/>
   </g>
   <g id="patch_68">
    <path clip-path="url(#pe7c1bb828c)" d="M 222.152841 272.074202 
L 228.174242 272.074202 
L 228.174242 272.074202 
L 222.152841 272.074202 
z
" style="fill:#d95f02;opacity:0.6;stroke:#000000;stroke-linejoin:miter;stroke-width:0.5;"/>
   </g>
   <g id="patch_69">
    <path clip-path="url(#pe7c1bb828c)" d="M 228.174242 272.074202 
L 234.195644 272.074202 
L 234.195644 272.074202 
L 228.174242 272.074202 
z
" style="fill:#d95f02;opacity:0.6;stroke:#000000;stroke-linejoin:miter;stroke-width:0.5;"/>
   </g>
   <g id="patch_70">
    <path clip-path="url(#pe7c1bb828c)" d="M 234.195644 272.074202 
L 240.217045 272.074202 
L 240.217045 270.799146 
L 234.195644 270.799146 
z
" style="fill:#d95f02;opacity:0.6;stroke:#000000;stroke-linejoin:miter;stroke-width:0.5;"/>
   </g>
   <g id="patch_71">
    <path clip-path="url(#pe7c1bb828c)" d="M 240.217045 272.074202 
L 246.238447 272.074202 
L 246.238447 270.799146 
L 240.217045 270.799146 
z
" style="fill:#d95f02;opacity:0.6;stroke:#000000;stroke-linejoin:miter;stroke-width:0.5;"/>
   </g>
   <g id="patch_72">
    <path clip-path="url(#pe7c1bb828c)" d="M 246.238447 272.074202 
L 252.259848 272.074202 
L 252.259848 245.298018 
L 246.238447 245.298018 
z
" style="fill:#d95f02;opacity:0.6;stroke:#000000;stroke-linejoin:miter;stroke-width:0.5;"/>
   </g>
   <g id="patch_73">
    <path clip-path="url(#pe7c1bb828c)" d="M 252.259848 272.074202 
L 258.28125 272.074202 
L 258.28125 154.769014 
L 252.259848 154.769014 
z
" style="fill:#d95f02;opacity:0.6;stroke:#000000;stroke-linejoin:miter;stroke-width:0.5;"/>
   </g>
   <g id="patch_74">
    <path clip-path="url(#pe7c1bb828c)" d="M 258.28125 272.074202 
L 264.302652 272.074202 
L 264.302652 46.38922 
L 258.28125 46.38922 
z
" style="fill:#d95f02;opacity:0.6;stroke:#000000;stroke-linejoin:miter;stroke-width:0.5;"/>
   </g>
   <g id="patch_75">
    <path clip-path="url(#pe7c1bb828c)" d="M 264.302652 272.074202 
L 270.324053 272.074202 
L 270.324053 34.913713 
L 264.302652 34.913713 
z
" style="fill:#d95f02;opacity:0.6;stroke:#000000;stroke-linejoin:miter;stroke-width:0.5;"/>
   </g>
   <g id="patch_76">
    <path clip-path="url(#pe7c1bb828c)" d="M 270.324053 272.074202 
L 276.345455 272.074202 
L 276.345455 164.969465 
L 270.324053 164.969465 
z
" style="fill:#d95f02;opacity:0.6;stroke:#000000;stroke-linejoin:miter;stroke-width:0.5;"/>
   </g>
   <g id="patch_77">
    <path clip-path="url(#pe7c1bb828c)" d="M 276.345455 272.074202 
L 282.366856 272.074202 
L 282.366856 196.845875 
L 276.345455 196.845875 
z
" style="fill:#d95f02;opacity:0.6;stroke:#000000;stroke-linejoin:miter;stroke-width:0.5;"/>
   </g>
   <g id="patch_78">
    <path clip-path="url(#pe7c1bb828c)" d="M 282.366856 272.074202 
L 288.388258 272.074202 
L 288.388258 233.822511 
L 282.366856 233.822511 
z
" style="fill:#d95f02;opacity:0.6;stroke:#000000;stroke-linejoin:miter;stroke-width:0.5;"/>
   </g>
   <g id="patch_79">
    <path clip-path="url(#pe7c1bb828c)" d="M 288.388258 272.074202 
L 294.409659 272.074202 
L 294.409659 249.123187 
L 288.388258 249.123187 
z
" style="fill:#d95f02;opacity:0.6;stroke:#000000;stroke-linejoin:miter;stroke-width:0.5;"/>
   </g>
   <g id="patch_80">
    <path clip-path="url(#pe7c1bb828c)" d="M 294.409659 272.074202 
L 300.431061 272.074202 
L 300.431061 226.172172 
L 294.409659 226.172172 
z
" style="fill:#d95f02;opacity:0.6;stroke:#000000;stroke-linejoin:miter;stroke-width:0.5;"/>
   </g>
   <g id="patch_81">
    <path clip-path="url(#pe7c1bb828c)" d="M 300.431061 272.074202 
L 306.452462 272.074202 
L 306.452462 136.918224 
L 300.431061 136.918224 
z
" style="fill:#d95f02;opacity:0.6;stroke:#000000;stroke-linejoin:miter;stroke-width:0.5;"/>
   </g>
   <g id="patch_82">
    <path clip-path="url(#pe7c1bb828c)" d="M 306.452462 272.074202 
L 312.473864 272.074202 
L 312.473864 247.848131 
L 306.452462 247.848131 
z
" style="fill:#d95f02;opacity:0.6;stroke:#000000;stroke-linejoin:miter;stroke-width:0.5;"/>
   </g>
   <g id="matplotlib.axis_1">
    <g id="xtick_1">
     <g id="line2d_1">
      <defs>
       <path d="M 0 0 
L 0 3.5 
" id="m37d6deace5" style="stroke:#000000;stroke-width:1.6;"/>
      </defs>
      <g>
       <use style="stroke:#000000;stroke-width:1.6;" x="71.617803" xlink:href="#m37d6deace5" y="272.074202"/>
      </g>
     </g>
     <g id="text_1">
      <!-- 0.0 -->
      <defs>
       <path d="M 31.78125 66.40625 
Q 24.171875 66.40625 20.328125 58.90625 
Q 16.5 51.421875 16.5 36.375 
Q 16.5 21.390625 20.328125 13.890625 
Q 24.171875 6.390625 31.78125 6.390625 
Q 39.453125 6.390625 43.28125 13.890625 
Q 47.125 21.390625 47.125 36.375 
Q 47.125 51.421875 43.28125 58.90625 
Q 39.453125 66.40625 31.78125 66.40625 
z
M 31.78125 74.21875 
Q 44.046875 74.21875 50.515625 64.515625 
Q 56.984375 54.828125 56.984375 36.375 
Q 56.984375 17.96875 50.515625 8.265625 
Q 44.046875 -1.421875 31.78125 -1.421875 
Q 19.53125 -1.421875 13.0625 8.265625 
Q 6.59375 17.96875 6.59375 36.375 
Q 6.59375 54.828125 13.0625 64.515625 
Q 19.53125 74.21875 31.78125 74.21875 
z
" id="DejaVuSans-48"/>
       <path d="M 10.6875 12.40625 
L 21 12.40625 
L 21 0 
L 10.6875 0 
z
" id="DejaVuSans-46"/>
      </defs>
      <g transform="translate(55.714678 301.971077)scale(0.2 -0.2)">
       <use xlink:href="#DejaVuSans-48"/>
       <use x="63.623047" xlink:href="#DejaVuSans-46"/>
       <use x="95.410156" xlink:href="#DejaVuSans-48"/>
      </g>
     </g>
    </g>
    <g id="xtick_2">
     <g id="line2d_2">
      <g>
       <use style="stroke:#000000;stroke-width:1.6;" x="140.43382" xlink:href="#m37d6deace5" y="272.074202"/>
      </g>
     </g>
     <g id="text_2">
      <!-- 0.2 -->
      <defs>
       <path d="M 19.1875 8.296875 
L 53.609375 8.296875 
L 53.609375 0 
L 7.328125 0 
L 7.328125 8.296875 
Q 12.9375 14.109375 22.625 23.890625 
Q 32.328125 33.6875 34.8125 36.53125 
Q 39.546875 41.84375 41.421875 45.53125 
Q 43.3125 49.21875 43.3125 52.78125 
Q 43.3125 58.59375 39.234375 62.25 
Q 35.15625 65.921875 28.609375 65.921875 
Q 23.96875 65.921875 18.8125 64.3125 
Q 13.671875 62.703125 7.8125 59.421875 
L 7.8125 69.390625 
Q 13.765625 71.78125 18.9375 73 
Q 24.125 74.21875 28.421875 74.21875 
Q 39.75 74.21875 46.484375 68.546875 
Q 53.21875 62.890625 53.21875 53.421875 
Q 53.21875 48.921875 51.53125 44.890625 
Q 49.859375 40.875 45.40625 35.40625 
Q 44.1875 33.984375 37.640625 27.21875 
Q 31.109375 20.453125 19.1875 8.296875 
z
" id="DejaVuSans-50"/>
      </defs>
      <g transform="translate(124.530695 301.971077)scale(0.2 -0.2)">
       <use xlink:href="#DejaVuSans-48"/>
       <use x="63.623047" xlink:href="#DejaVuSans-46"/>
       <use x="95.410156" xlink:href="#DejaVuSans-50"/>
      </g>
     </g>
    </g>
    <g id="xtick_3">
     <g id="line2d_3">
      <g>
       <use style="stroke:#000000;stroke-width:1.6;" x="209.249838" xlink:href="#m37d6deace5" y="272.074202"/>
      </g>
     </g>
     <g id="text_3">
      <!-- 0.4 -->
      <defs>
       <path d="M 37.796875 64.3125 
L 12.890625 25.390625 
L 37.796875 25.390625 
z
M 35.203125 72.90625 
L 47.609375 72.90625 
L 47.609375 25.390625 
L 58.015625 25.390625 
L 58.015625 17.1875 
L 47.609375 17.1875 
L 47.609375 0 
L 37.796875 0 
L 37.796875 17.1875 
L 4.890625 17.1875 
L 4.890625 26.703125 
z
" id="DejaVuSans-52"/>
      </defs>
      <g transform="translate(193.346713 301.971077)scale(0.2 -0.2)">
       <use xlink:href="#DejaVuSans-48"/>
       <use x="63.623047" xlink:href="#DejaVuSans-46"/>
       <use x="95.410156" xlink:href="#DejaVuSans-52"/>
      </g>
     </g>
    </g>
    <g id="xtick_4">
     <g id="line2d_4">
      <g>
       <use style="stroke:#000000;stroke-width:1.6;" x="278.065855" xlink:href="#m37d6deace5" y="272.074202"/>
      </g>
     </g>
     <g id="text_4">
      <!-- 0.6 -->
      <defs>
       <path d="M 33.015625 40.375 
Q 26.375 40.375 22.484375 35.828125 
Q 18.609375 31.296875 18.609375 23.390625 
Q 18.609375 15.53125 22.484375 10.953125 
Q 26.375 6.390625 33.015625 6.390625 
Q 39.65625 6.390625 43.53125 10.953125 
Q 47.40625 15.53125 47.40625 23.390625 
Q 47.40625 31.296875 43.53125 35.828125 
Q 39.65625 40.375 33.015625 40.375 
z
M 52.59375 71.296875 
L 52.59375 62.3125 
Q 48.875 64.0625 45.09375 64.984375 
Q 41.3125 65.921875 37.59375 65.921875 
Q 27.828125 65.921875 22.671875 59.328125 
Q 17.53125 52.734375 16.796875 39.40625 
Q 19.671875 43.65625 24.015625 45.921875 
Q 28.375 48.1875 33.59375 48.1875 
Q 44.578125 48.1875 50.953125 41.515625 
Q 57.328125 34.859375 57.328125 23.390625 
Q 57.328125 12.15625 50.6875 5.359375 
Q 44.046875 -1.421875 33.015625 -1.421875 
Q 20.359375 -1.421875 13.671875 8.265625 
Q 6.984375 17.96875 6.984375 36.375 
Q 6.984375 53.65625 15.1875 63.9375 
Q 23.390625 74.21875 37.203125 74.21875 
Q 40.921875 74.21875 44.703125 73.484375 
Q 48.484375 72.75 52.59375 71.296875 
z
" id="DejaVuSans-54"/>
      </defs>
      <g transform="translate(262.16273 301.971077)scale(0.2 -0.2)">
       <use xlink:href="#DejaVuSans-48"/>
       <use x="63.623047" xlink:href="#DejaVuSans-46"/>
       <use x="95.410156" xlink:href="#DejaVuSans-54"/>
      </g>
     </g>
    </g>
    <g id="text_5">
     <!-- Max JS Divergence within $\epsilon$ -->
     <defs>
      <path d="M 9.8125 72.90625 
L 24.515625 72.90625 
L 43.109375 23.296875 
L 61.8125 72.90625 
L 76.515625 72.90625 
L 76.515625 0 
L 66.890625 0 
L 66.890625 64.015625 
L 48.09375 14.015625 
L 38.1875 14.015625 
L 19.390625 64.015625 
L 19.390625 0 
L 9.8125 0 
z
" id="DejaVuSans-77"/>
      <path d="M 34.28125 27.484375 
Q 23.390625 27.484375 19.1875 25 
Q 14.984375 22.515625 14.984375 16.5 
Q 14.984375 11.71875 18.140625 8.90625 
Q 21.296875 6.109375 26.703125 6.109375 
Q 34.1875 6.109375 38.703125 11.40625 
Q 43.21875 16.703125 43.21875 25.484375 
L 43.21875 27.484375 
z
M 52.203125 31.203125 
L 52.203125 0 
L 43.21875 0 
L 43.21875 8.296875 
Q 40.140625 3.328125 35.546875 0.953125 
Q 30.953125 -1.421875 24.3125 -1.421875 
Q 15.921875 -1.421875 10.953125 3.296875 
Q 6 8.015625 6 15.921875 
Q 6 25.140625 12.171875 29.828125 
Q 18.359375 34.515625 30.609375 34.515625 
L 43.21875 34.515625 
L 43.21875 35.40625 
Q 43.21875 41.609375 39.140625 45 
Q 35.0625 48.390625 27.6875 48.390625 
Q 23 48.390625 18.546875 47.265625 
Q 14.109375 46.140625 10.015625 43.890625 
L 10.015625 52.203125 
Q 14.9375 54.109375 19.578125 55.046875 
Q 24.21875 56 28.609375 56 
Q 40.484375 56 46.34375 49.84375 
Q 52.203125 43.703125 52.203125 31.203125 
z
" id="DejaVuSans-97"/>
      <path d="M 54.890625 54.6875 
L 35.109375 28.078125 
L 55.90625 0 
L 45.3125 0 
L 29.390625 21.484375 
L 13.484375 0 
L 2.875 0 
L 24.125 28.609375 
L 4.6875 54.6875 
L 15.28125 54.6875 
L 29.78125 35.203125 
L 44.28125 54.6875 
z
" id="DejaVuSans-120"/>
      <path id="DejaVuSans-32"/>
      <path d="M 9.8125 72.90625 
L 19.671875 72.90625 
L 19.671875 5.078125 
Q 19.671875 -8.109375 14.671875 -14.0625 
Q 9.671875 -20.015625 -1.421875 -20.015625 
L -5.171875 -20.015625 
L -5.171875 -11.71875 
L -2.09375 -11.71875 
Q 4.4375 -11.71875 7.125 -8.046875 
Q 9.8125 -4.390625 9.8125 5.078125 
z
" id="DejaVuSans-74"/>
      <path d="M 53.515625 70.515625 
L 53.515625 60.890625 
Q 47.90625 63.578125 42.921875 64.890625 
Q 37.9375 66.21875 33.296875 66.21875 
Q 25.25 66.21875 20.875 63.09375 
Q 16.5 59.96875 16.5 54.203125 
Q 16.5 49.359375 19.40625 46.890625 
Q 22.3125 44.4375 30.421875 42.921875 
L 36.375 41.703125 
Q 47.40625 39.59375 52.65625 34.296875 
Q 57.90625 29 57.90625 20.125 
Q 57.90625 9.515625 50.796875 4.046875 
Q 43.703125 -1.421875 29.984375 -1.421875 
Q 24.8125 -1.421875 18.96875 -0.25 
Q 13.140625 0.921875 6.890625 3.21875 
L 6.890625 13.375 
Q 12.890625 10.015625 18.65625 8.296875 
Q 24.421875 6.59375 29.984375 6.59375 
Q 38.421875 6.59375 43.015625 9.90625 
Q 47.609375 13.234375 47.609375 19.390625 
Q 47.609375 24.75 44.3125 27.78125 
Q 41.015625 30.8125 33.5 32.328125 
L 27.484375 33.5 
Q 16.453125 35.6875 11.515625 40.375 
Q 6.59375 45.0625 6.59375 53.421875 
Q 6.59375 63.09375 13.40625 68.65625 
Q 20.21875 74.21875 32.171875 74.21875 
Q 37.3125 74.21875 42.625 73.28125 
Q 47.953125 72.359375 53.515625 70.515625 
z
" id="DejaVuSans-83"/>
      <path d="M 19.671875 64.796875 
L 19.671875 8.109375 
L 31.59375 8.109375 
Q 46.6875 8.109375 53.6875 14.9375 
Q 60.6875 21.78125 60.6875 36.53125 
Q 60.6875 51.171875 53.6875 57.984375 
Q 46.6875 64.796875 31.59375 64.796875 
z
M 9.8125 72.90625 
L 30.078125 72.90625 
Q 51.265625 72.90625 61.171875 64.09375 
Q 71.09375 55.28125 71.09375 36.53125 
Q 71.09375 17.671875 61.125 8.828125 
Q 51.171875 0 30.078125 0 
L 9.8125 0 
z
" id="DejaVuSans-68"/>
      <path d="M 9.421875 54.6875 
L 18.40625 54.6875 
L 18.40625 0 
L 9.421875 0 
z
M 9.421875 75.984375 
L 18.40625 75.984375 
L 18.40625 64.59375 
L 9.421875 64.59375 
z
" id="DejaVuSans-105"/>
      <path d="M 2.984375 54.6875 
L 12.5 54.6875 
L 29.59375 8.796875 
L 46.6875 54.6875 
L 56.203125 54.6875 
L 35.6875 0 
L 23.484375 0 
z
" id="DejaVuSans-118"/>
      <path d="M 56.203125 29.59375 
L 56.203125 25.203125 
L 14.890625 25.203125 
Q 15.484375 15.921875 20.484375 11.0625 
Q 25.484375 6.203125 34.421875 6.203125 
Q 39.59375 6.203125 44.453125 7.46875 
Q 49.3125 8.734375 54.109375 11.28125 
L 54.109375 2.78125 
Q 49.265625 0.734375 44.1875 -0.34375 
Q 39.109375 -1.421875 33.890625 -1.421875 
Q 20.796875 -1.421875 13.15625 6.1875 
Q 5.515625 13.8125 5.515625 26.8125 
Q 5.515625 40.234375 12.765625 48.109375 
Q 20.015625 56 32.328125 56 
Q 43.359375 56 49.78125 48.890625 
Q 56.203125 41.796875 56.203125 29.59375 
z
M 47.21875 32.234375 
Q 47.125 39.59375 43.09375 43.984375 
Q 39.0625 48.390625 32.421875 48.390625 
Q 24.90625 48.390625 20.390625 44.140625 
Q 15.875 39.890625 15.1875 32.171875 
z
" id="DejaVuSans-101"/>
      <path d="M 41.109375 46.296875 
Q 39.59375 47.171875 37.8125 47.578125 
Q 36.03125 48 33.890625 48 
Q 26.265625 48 22.1875 43.046875 
Q 18.109375 38.09375 18.109375 28.8125 
L 18.109375 0 
L 9.078125 0 
L 9.078125 54.6875 
L 18.109375 54.6875 
L 18.109375 46.1875 
Q 20.953125 51.171875 25.484375 53.578125 
Q 30.03125 56 36.53125 56 
Q 37.453125 56 38.578125 55.875 
Q 39.703125 55.765625 41.0625 55.515625 
z
" id="DejaVuSans-114"/>
      <path d="M 45.40625 27.984375 
Q 45.40625 37.75 41.375 43.109375 
Q 37.359375 48.484375 30.078125 48.484375 
Q 22.859375 48.484375 18.828125 43.109375 
Q 14.796875 37.75 14.796875 27.984375 
Q 14.796875 18.265625 18.828125 12.890625 
Q 22.859375 7.515625 30.078125 7.515625 
Q 37.359375 7.515625 41.375 12.890625 
Q 45.40625 18.265625 45.40625 27.984375 
z
M 54.390625 6.78125 
Q 54.390625 -7.171875 48.1875 -13.984375 
Q 42 -20.796875 29.203125 -20.796875 
Q 24.46875 -20.796875 20.265625 -20.09375 
Q 16.0625 -19.390625 12.109375 -17.921875 
L 12.109375 -9.1875 
Q 16.0625 -11.328125 19.921875 -12.34375 
Q 23.78125 -13.375 27.78125 -13.375 
Q 36.625 -13.375 41.015625 -8.765625 
Q 45.40625 -4.15625 45.40625 5.171875 
L 45.40625 9.625 
Q 42.625 4.78125 38.28125 2.390625 
Q 33.9375 0 27.875 0 
Q 17.828125 0 11.671875 7.65625 
Q 5.515625 15.328125 5.515625 27.984375 
Q 5.515625 40.671875 11.671875 48.328125 
Q 17.828125 56 27.875 56 
Q 33.9375 56 38.28125 53.609375 
Q 42.625 51.21875 45.40625 46.390625 
L 45.40625 54.6875 
L 54.390625 54.6875 
z
" id="DejaVuSans-103"/>
      <path d="M 54.890625 33.015625 
L 54.890625 0 
L 45.90625 0 
L 45.90625 32.71875 
Q 45.90625 40.484375 42.875 44.328125 
Q 39.84375 48.1875 33.796875 48.1875 
Q 26.515625 48.1875 22.3125 43.546875 
Q 18.109375 38.921875 18.109375 30.90625 
L 18.109375 0 
L 9.078125 0 
L 9.078125 54.6875 
L 18.109375 54.6875 
L 18.109375 46.1875 
Q 21.34375 51.125 25.703125 53.5625 
Q 30.078125 56 35.796875 56 
Q 45.21875 56 50.046875 50.171875 
Q 54.890625 44.34375 54.890625 33.015625 
z
" id="DejaVuSans-110"/>
      <path d="M 48.78125 52.59375 
L 48.78125 44.1875 
Q 44.96875 46.296875 41.140625 47.34375 
Q 37.3125 48.390625 33.40625 48.390625 
Q 24.65625 48.390625 19.8125 42.84375 
Q 14.984375 37.3125 14.984375 27.296875 
Q 14.984375 17.28125 19.8125 11.734375 
Q 24.65625 6.203125 33.40625 6.203125 
Q 37.3125 6.203125 41.140625 7.25 
Q 44.96875 8.296875 48.78125 10.40625 
L 48.78125 2.09375 
Q 45.015625 0.34375 40.984375 -0.53125 
Q 36.96875 -1.421875 32.421875 -1.421875 
Q 20.0625 -1.421875 12.78125 6.34375 
Q 5.515625 14.109375 5.515625 27.296875 
Q 5.515625 40.671875 12.859375 48.328125 
Q 20.21875 56 33.015625 56 
Q 37.15625 56 41.109375 55.140625 
Q 45.0625 54.296875 48.78125 52.59375 
z
" id="DejaVuSans-99"/>
      <path d="M 4.203125 54.6875 
L 13.1875 54.6875 
L 24.421875 12.015625 
L 35.59375 54.6875 
L 46.1875 54.6875 
L 57.421875 12.015625 
L 68.609375 54.6875 
L 77.59375 54.6875 
L 63.28125 0 
L 52.6875 0 
L 40.921875 44.828125 
L 29.109375 0 
L 18.5 0 
z
" id="DejaVuSans-119"/>
      <path d="M 18.3125 70.21875 
L 18.3125 54.6875 
L 36.8125 54.6875 
L 36.8125 47.703125 
L 18.3125 47.703125 
L 18.3125 18.015625 
Q 18.3125 11.328125 20.140625 9.421875 
Q 21.96875 7.515625 27.59375 7.515625 
L 36.8125 7.515625 
L 36.8125 0 
L 27.59375 0 
Q 17.1875 0 13.234375 3.875 
Q 9.28125 7.765625 9.28125 18.015625 
L 9.28125 47.703125 
L 2.6875 47.703125 
L 2.6875 54.6875 
L 9.28125 54.6875 
L 9.28125 70.21875 
z
" id="DejaVuSans-116"/>
      <path d="M 54.890625 33.015625 
L 54.890625 0 
L 45.90625 0 
L 45.90625 32.71875 
Q 45.90625 40.484375 42.875 44.328125 
Q 39.84375 48.1875 33.796875 48.1875 
Q 26.515625 48.1875 22.3125 43.546875 
Q 18.109375 38.921875 18.109375 30.90625 
L 18.109375 0 
L 9.078125 0 
L 9.078125 75.984375 
L 18.109375 75.984375 
L 18.109375 46.1875 
Q 21.34375 51.125 25.703125 53.5625 
Q 30.078125 56 35.796875 56 
Q 45.21875 56 50.046875 50.171875 
Q 54.890625 44.34375 54.890625 33.015625 
z
" id="DejaVuSans-104"/>
      <path d="M 19.734375 29.5 
Q 14.453125 30.671875 12.15625 33.84375 
Q 10.453125 36.078125 10.453125 39.109375 
Q 10.453125 47.40625 18.359375 52.25 
Q 24.609375 56.0625 34.1875 56.0625 
Q 37.890625 56.0625 41.9375 55.46875 
Q 46 54.890625 50.53125 53.71875 
L 48.96875 45.5625 
Q 44.484375 46.96875 40.71875 47.609375 
Q 36.859375 48.25 33.40625 48.25 
Q 27.59375 48.25 23.78125 46 
Q 19.1875 43.3125 19.1875 39.40625 
Q 19.1875 36.8125 21.578125 35.015625 
Q 24.421875 32.859375 30.078125 32.859375 
L 37.640625 32.859375 
L 36.234375 25.4375 
L 29 25.4375 
Q 22.265625 25.4375 18.3125 22.953125 
Q 12.9375 19.578125 12.9375 14.3125 
Q 12.9375 10.984375 15.828125 8.796875 
Q 19.4375 6.0625 26.8125 6.0625 
Q 31.34375 6.0625 35.6875 6.9375 
Q 40.046875 7.859375 43.84375 9.671875 
L 42.1875 1.3125 
Q 37.546875 -0.046875 33.296875 -0.734375 
Q 29.046875 -1.421875 25.140625 -1.421875 
Q 13.53125 -1.421875 8.0625 3.03125 
Q 3.90625 6.453125 3.90625 12.203125 
Q 3.90625 19.96875 9.375 24.75 
Q 13.421875 28.328125 19.734375 29.5 
z
" id="DejaVuSans-Oblique-949"/>
     </defs>
     <g transform="translate(56.445833 325.330452)scale(0.2 -0.2)">
      <use transform="translate(0 0.015625)" xlink:href="#DejaVuSans-77"/>
      <use transform="translate(86.279297 0.015625)" xlink:href="#DejaVuSans-97"/>
      <use transform="translate(147.558594 0.015625)" xlink:href="#DejaVuSans-120"/>
      <use transform="translate(206.738281 0.015625)" xlink:href="#DejaVuSans-32"/>
      <use transform="translate(238.525391 0.015625)" xlink:href="#DejaVuSans-74"/>
      <use transform="translate(268.017578 0.015625)" xlink:href="#DejaVuSans-83"/>
      <use transform="translate(331.494141 0.015625)" xlink:href="#DejaVuSans-32"/>
      <use transform="translate(363.28125 0.015625)" xlink:href="#DejaVuSans-68"/>
      <use transform="translate(440.283203 0.015625)" xlink:href="#DejaVuSans-105"/>
      <use transform="translate(468.066406 0.015625)" xlink:href="#DejaVuSans-118"/>
      <use transform="translate(527.246094 0.015625)" xlink:href="#DejaVuSans-101"/>
      <use transform="translate(588.769531 0.015625)" xlink:href="#DejaVuSans-114"/>
      <use transform="translate(629.882812 0.015625)" xlink:href="#DejaVuSans-103"/>
      <use transform="translate(693.359375 0.015625)" xlink:href="#DejaVuSans-101"/>
      <use transform="translate(754.882812 0.015625)" xlink:href="#DejaVuSans-110"/>
      <use transform="translate(818.261719 0.015625)" xlink:href="#DejaVuSans-99"/>
      <use transform="translate(873.242188 0.015625)" xlink:href="#DejaVuSans-101"/>
      <use transform="translate(934.765625 0.015625)" xlink:href="#DejaVuSans-32"/>
      <use transform="translate(966.552734 0.015625)" xlink:href="#DejaVuSans-119"/>
      <use transform="translate(1048.339844 0.015625)" xlink:href="#DejaVuSans-105"/>
      <use transform="translate(1076.123047 0.015625)" xlink:href="#DejaVuSans-116"/>
      <use transform="translate(1115.332031 0.015625)" xlink:href="#DejaVuSans-104"/>
      <use transform="translate(1178.710938 0.015625)" xlink:href="#DejaVuSans-105"/>
      <use transform="translate(1206.494141 0.015625)" xlink:href="#DejaVuSans-110"/>
      <use transform="translate(1269.873047 0.015625)" xlink:href="#DejaVuSans-32"/>
      <use transform="translate(1301.660156 0.015625)" xlink:href="#DejaVuSans-Oblique-949"/>
     </g>
    </g>
   </g>
   <g id="matplotlib.axis_2">
    <g id="ytick_1">
     <g id="line2d_5">
      <defs>
       <path d="M 0 0 
L -3.5 0 
" id="m76f9ba6950" style="stroke:#000000;stroke-width:1.6;"/>
      </defs>
      <g>
       <use style="stroke:#000000;stroke-width:1.6;" x="59.575" xlink:href="#m76f9ba6950" y="272.074202"/>
      </g>
     </g>
     <g id="text_6">
      <!-- 0.00 -->
      <g transform="translate(0.34375 279.67264)scale(0.2 -0.2)">
       <use xlink:href="#DejaVuSans-48"/>
       <use x="63.623047" xlink:href="#DejaVuSans-46"/>
       <use x="95.410156" xlink:href="#DejaVuSans-48"/>
       <use x="159.033203" xlink:href="#DejaVuSans-48"/>
      </g>
     </g>
    </g>
    <g id="ytick_2">
     <g id="line2d_6">
      <g>
       <use style="stroke:#000000;stroke-width:1.6;" x="59.575" xlink:href="#m76f9ba6950" y="219.159362"/>
      </g>
     </g>
     <g id="text_7">
      <!-- 0.05 -->
      <defs>
       <path d="M 10.796875 72.90625 
L 49.515625 72.90625 
L 49.515625 64.59375 
L 19.828125 64.59375 
L 19.828125 46.734375 
Q 21.96875 47.46875 24.109375 47.828125 
Q 26.265625 48.1875 28.421875 48.1875 
Q 40.625 48.1875 47.75 41.5 
Q 54.890625 34.8125 54.890625 23.390625 
Q 54.890625 11.625 47.5625 5.09375 
Q 40.234375 -1.421875 26.90625 -1.421875 
Q 22.3125 -1.421875 17.546875 -0.640625 
Q 12.796875 0.140625 7.71875 1.703125 
L 7.71875 11.625 
Q 12.109375 9.234375 16.796875 8.0625 
Q 21.484375 6.890625 26.703125 6.890625 
Q 35.15625 6.890625 40.078125 11.328125 
Q 45.015625 15.765625 45.015625 23.390625 
Q 45.015625 31 40.078125 35.4375 
Q 35.15625 39.890625 26.703125 39.890625 
Q 22.75 39.890625 18.8125 39.015625 
Q 14.890625 38.140625 10.796875 36.28125 
z
" id="DejaVuSans-53"/>
      </defs>
      <g transform="translate(0.34375 226.757799)scale(0.2 -0.2)">
       <use xlink:href="#DejaVuSans-48"/>
       <use x="63.623047" xlink:href="#DejaVuSans-46"/>
       <use x="95.410156" xlink:href="#DejaVuSans-48"/>
       <use x="159.033203" xlink:href="#DejaVuSans-53"/>
      </g>
     </g>
    </g>
    <g id="ytick_3">
     <g id="line2d_7">
      <g>
       <use style="stroke:#000000;stroke-width:1.6;" x="59.575" xlink:href="#m76f9ba6950" y="166.244521"/>
      </g>
     </g>
     <g id="text_8">
      <!-- 0.10 -->
      <defs>
       <path d="M 12.40625 8.296875 
L 28.515625 8.296875 
L 28.515625 63.921875 
L 10.984375 60.40625 
L 10.984375 69.390625 
L 28.421875 72.90625 
L 38.28125 72.90625 
L 38.28125 8.296875 
L 54.390625 8.296875 
L 54.390625 0 
L 12.40625 0 
z
" id="DejaVuSans-49"/>
      </defs>
      <g transform="translate(0.34375 173.842959)scale(0.2 -0.2)">
       <use xlink:href="#DejaVuSans-48"/>
       <use x="63.623047" xlink:href="#DejaVuSans-46"/>
       <use x="95.410156" xlink:href="#DejaVuSans-49"/>
       <use x="159.033203" xlink:href="#DejaVuSans-48"/>
      </g>
     </g>
    </g>
    <g id="ytick_4">
     <g id="line2d_8">
      <g>
       <use style="stroke:#000000;stroke-width:1.6;" x="59.575" xlink:href="#m76f9ba6950" y="113.329681"/>
      </g>
     </g>
     <g id="text_9">
      <!-- 0.15 -->
      <g transform="translate(0.34375 120.928118)scale(0.2 -0.2)">
       <use xlink:href="#DejaVuSans-48"/>
       <use x="63.623047" xlink:href="#DejaVuSans-46"/>
       <use x="95.410156" xlink:href="#DejaVuSans-49"/>
       <use x="159.033203" xlink:href="#DejaVuSans-53"/>
      </g>
     </g>
    </g>
    <g id="ytick_5">
     <g id="line2d_9">
      <g>
       <use style="stroke:#000000;stroke-width:1.6;" x="59.575" xlink:href="#m76f9ba6950" y="60.41484"/>
      </g>
     </g>
     <g id="text_10">
      <!-- 0.20 -->
      <g transform="translate(0.34375 68.013278)scale(0.2 -0.2)">
       <use xlink:href="#DejaVuSans-48"/>
       <use x="63.623047" xlink:href="#DejaVuSans-46"/>
       <use x="95.410156" xlink:href="#DejaVuSans-50"/>
       <use x="159.033203" xlink:href="#DejaVuSans-48"/>
      </g>
     </g>
    </g>
    <g id="ytick_6">
     <g id="line2d_10">
      <g>
       <use style="stroke:#000000;stroke-width:1.6;" x="59.575" xlink:href="#m76f9ba6950" y="7.5"/>
      </g>
     </g>
     <g id="text_11">
      <!-- 0.25 -->
      <g transform="translate(0.34375 15.098437)scale(0.2 -0.2)">
       <use xlink:href="#DejaVuSans-48"/>
       <use x="63.623047" xlink:href="#DejaVuSans-46"/>
       <use x="95.410156" xlink:href="#DejaVuSans-50"/>
       <use x="159.033203" xlink:href="#DejaVuSans-53"/>
      </g>
     </g>
    </g>
   </g>
   <g id="patch_83">
    <path d="M 59.575 272.074202 
L 59.575 7.132536 
" style="fill:none;stroke:#000000;stroke-linecap:square;stroke-linejoin:miter;stroke-width:0.8;"/>
   </g>
   <g id="patch_84">
    <path d="M 59.575 272.074202 
L 324.516667 272.074202 
" style="fill:none;stroke:#000000;stroke-linecap:square;stroke-linejoin:miter;stroke-width:0.8;"/>
   </g>
  </g>
  <g id="axes_2">
   <g id="patch_85">
    <path d="M 428.316667 272.074202 
L 693.258333 272.074202 
L 693.258333 7.132536 
L 428.316667 7.132536 
z
" style="fill:#ffffff;"/>
   </g>
   <g id="PolyCollection_1">
    <defs>
     <path d="M 626.445676 -304.722045 
L 626.445676 -306.820038 
L 627.080398 -307.0702 
L 627.715121 -307.363342 
L 628.349844 -307.70207 
L 628.984567 -308.087923 
L 629.61929 -308.521162 
L 630.254013 -309.000613 
L 630.888736 -309.523608 
L 631.523459 -310.086011 
L 632.158182 -310.682351 
L 632.792905 -311.306027 
L 633.427628 -311.949573 
L 634.062351 -312.604958 
L 634.697074 -313.26388 
L 635.331797 -313.918034 
L 635.966519 -314.55933 
L 636.601242 -315.180062 
L 637.235965 -315.773008 
L 637.870688 -316.331501 
L 638.505411 -316.849453 
L 639.140134 -317.321382 
L 639.774857 -317.74243 
L 640.40958 -318.108402 
L 641.044303 -318.415812 
L 641.679026 -318.661945 
L 642.313749 -318.844912 
L 642.948472 -318.963688 
L 643.583195 -319.018125 
L 644.217918 -319.00893 
L 644.85264 -318.937612 
L 645.487363 -318.806397 
L 646.122086 -318.61814 
L 646.756809 -318.376236 
L 647.391532 -318.084549 
L 648.026255 -317.747357 
L 648.660978 -317.36933 
L 649.295701 -316.95551 
L 649.930424 -316.511287 
L 650.565147 -316.042353 
L 651.19987 -315.554625 
L 651.834593 -315.054116 
L 652.469316 -314.546776 
L 653.104039 -314.038303 
L 653.738761 -313.533962 
L 654.373484 -313.038413 
L 655.008207 -312.555608 
L 655.64293 -312.088741 
L 656.277653 -311.640276 
L 656.912376 -311.21204 
L 657.547099 -310.805373 
L 658.181822 -310.421293 
L 658.816545 -310.060666 
L 659.451268 -309.724343 
L 660.085991 -309.413251 
L 660.720714 -309.128428 
L 661.355437 -308.870995 
L 661.99016 -308.642091 
L 662.624883 -308.442764 
L 663.259605 -308.273854 
L 663.894328 -308.135871 
L 664.529051 -308.028885 
L 665.163774 -307.952441 
L 665.798497 -307.905502 
L 666.43322 -307.886409 
L 667.067943 -307.892894 
L 667.702666 -307.922107 
L 668.337389 -307.970692 
L 668.972112 -308.034899 
L 669.606835 -308.110728 
L 670.241558 -308.194111 
L 670.876281 -308.281112 
L 671.511004 -308.368131 
L 672.145726 -308.452093 
L 672.780449 -308.530605 
L 673.415172 -308.602047 
L 674.049895 -308.665598 
L 674.684618 -308.721186 
L 675.319341 -308.769351 
L 675.954064 -308.811049 
L 676.588787 -308.847414 
L 677.22351 -308.879497 
L 677.858233 -308.908009 
L 678.492956 -308.933115 
L 679.127679 -308.954285 
L 679.762402 -308.97022 
L 680.397125 -308.978888 
L 681.031847 -308.977643 
L 681.66657 -308.963431 
L 682.301293 -308.933068 
L 682.936016 -308.88356 
L 683.570739 -308.812428 
L 684.205462 -308.718008 
L 684.840185 -308.599691 
L 685.474908 -308.458077 
L 686.109631 -308.295015 
L 686.744354 -308.113536 
L 687.379077 -307.917673 
L 688.0138 -307.712193 
L 688.648523 -307.50227 
L 689.283246 -307.293138 
L 689.283246 -304.248946 
L 689.283246 -304.248946 
L 688.648523 -304.039813 
L 688.0138 -303.829891 
L 687.379077 -303.62441 
L 686.744354 -303.428547 
L 686.109631 -303.247068 
L 685.474908 -303.084006 
L 684.840185 -302.942392 
L 684.205462 -302.824075 
L 683.570739 -302.729655 
L 682.936016 -302.658523 
L 682.301293 -302.609015 
L 681.66657 -302.578653 
L 681.031847 -302.56444 
L 680.397125 -302.563195 
L 679.762402 -302.571864 
L 679.127679 -302.587799 
L 678.492956 -302.608968 
L 677.858233 -302.634075 
L 677.22351 -302.662587 
L 676.588787 -302.694669 
L 675.954064 -302.731035 
L 675.319341 -302.772733 
L 674.684618 -302.820897 
L 674.049895 -302.876485 
L 673.415172 -302.940037 
L 672.780449 -303.011478 
L 672.145726 -303.08999 
L 671.511004 -303.173953 
L 670.876281 -303.260971 
L 670.241558 -303.347972 
L 669.606835 -303.431356 
L 668.972112 -303.507184 
L 668.337389 -303.571391 
L 667.702666 -303.619976 
L 667.067943 -303.649189 
L 666.43322 -303.655674 
L 665.798497 -303.636582 
L 665.163774 -303.589642 
L 664.529051 -303.513199 
L 663.894328 -303.406212 
L 663.259605 -303.268229 
L 662.624883 -303.099319 
L 661.99016 -302.899993 
L 661.355437 -302.671088 
L 660.720714 -302.413656 
L 660.085991 -302.128832 
L 659.451268 -301.81774 
L 658.816545 -301.481417 
L 658.181822 -301.120791 
L 657.547099 -300.736711 
L 656.912376 -300.330044 
L 656.277653 -299.901808 
L 655.64293 -299.453342 
L 655.008207 -298.986475 
L 654.373484 -298.50367 
L 653.738761 -298.008122 
L 653.104039 -297.50378 
L 652.469316 -296.995308 
L 651.834593 -296.487968 
L 651.19987 -295.987458 
L 650.565147 -295.49973 
L 649.930424 -295.030797 
L 649.295701 -294.586573 
L 648.660978 -294.172753 
L 648.026255 -293.794727 
L 647.391532 -293.457535 
L 646.756809 -293.165847 
L 646.122086 -292.923944 
L 645.487363 -292.735687 
L 644.85264 -292.604472 
L 644.217918 -292.533153 
L 643.583195 -292.523958 
L 642.948472 -292.578395 
L 642.313749 -292.697171 
L 641.679026 -292.880138 
L 641.044303 -293.126272 
L 640.40958 -293.433681 
L 639.774857 -293.799653 
L 639.140134 -294.220701 
L 638.505411 -294.69263 
L 637.870688 -295.210583 
L 637.235965 -295.769075 
L 636.601242 -296.362022 
L 635.966519 -296.982753 
L 635.331797 -297.624049 
L 634.697074 -298.278203 
L 634.062351 -298.937125 
L 633.427628 -299.592511 
L 632.792905 -300.236056 
L 632.158182 -300.859732 
L 631.523459 -301.456072 
L 630.888736 -302.018476 
L 630.254013 -302.54147 
L 629.61929 -303.020921 
L 628.984567 -303.45416 
L 628.349844 -303.840013 
L 627.715121 -304.178741 
L 627.080398 -304.471883 
L 626.445676 -304.722045 
z
" id="m5055a8c3c1" style="stroke:#424242;"/>
    </defs>
    <g clip-path="url(#pc57122b6c5)">
     <use style="fill:#7c78ab;stroke:#424242;" x="0" xlink:href="#m5055a8c3c1" y="332.774202"/>
    </g>
   </g>
   <g id="PolyCollection_2">
    <defs>
     <path d="M 618.331427 -279.143355 
L 618.331427 -279.410395 
L 619.04872 -279.438277 
L 619.766013 -279.473191 
L 620.483305 -279.517339 
L 621.200598 -279.573365 
L 621.917891 -279.644323 
L 622.635184 -279.733615 
L 623.352477 -279.844908 
L 624.06977 -279.982015 
L 624.787063 -280.148776 
L 625.504356 -280.348918 
L 626.221649 -280.585905 
L 626.938942 -280.862783 
L 627.656235 -281.182025 
L 628.373528 -281.545365 
L 629.090821 -281.953641 
L 629.808113 -282.40665 
L 630.525406 -282.903017 
L 631.242699 -283.440106 
L 631.959992 -284.013976 
L 632.677285 -284.619393 
L 633.394578 -285.249901 
L 634.111871 -285.897959 
L 634.829164 -286.555114 
L 635.546457 -287.212213 
L 636.26375 -287.859634 
L 636.981043 -288.487506 
L 637.698336 -289.085929 
L 638.415629 -289.645176 
L 639.132921 -290.155888 
L 639.850214 -290.609268 
L 640.567507 -290.997279 
L 641.2848 -291.312854 
L 642.002093 -291.550106 
L 642.719386 -291.70454 
L 643.436679 -291.773239 
L 644.153972 -291.755019 
L 644.871265 -291.650532 
L 645.588558 -291.462316 
L 646.305851 -291.19478 
L 647.023144 -290.854139 
L 647.740437 -290.448283 
L 648.457729 -289.986595 
L 649.175022 -289.479706 
L 649.892315 -288.939185 
L 650.609608 -288.377157 
L 651.326901 -287.805857 
L 652.044194 -287.237126 
L 652.761487 -286.681889 
L 653.47878 -286.149642 
L 654.196073 -285.648015 
L 654.913366 -285.182447 
L 655.630659 -284.756029 
L 656.347952 -284.36953 
L 657.065245 -284.021625 
L 657.782538 -283.70928 
L 658.49983 -283.428268 
L 659.217123 -283.173742 
L 659.934416 -282.940794 
L 660.651709 -282.724946 
L 661.369002 -282.52252 
L 662.086295 -282.33086 
L 662.803588 -282.148408 
L 663.520881 -281.974661 
L 664.238174 -281.810032 
L 664.955467 -281.655661 
L 665.67276 -281.513224 
L 666.390053 -281.384742 
L 667.107346 -281.272432 
L 667.824638 -281.178581 
L 668.541931 -281.105452 
L 669.259224 -281.055204 
L 669.976517 -281.029828 
L 670.69381 -281.031083 
L 671.411103 -281.060441 
L 672.128396 -281.119037 
L 672.845689 -281.207611 
L 673.562982 -281.326446 
L 674.280275 -281.475288 
L 674.997568 -281.653222 
L 675.714861 -281.858519 
L 676.432154 -282.088425 
L 677.149446 -282.338943 
L 677.866739 -282.604603 
L 678.584032 -282.878307 
L 679.301325 -283.151282 
L 680.018618 -283.4132 
L 680.735911 -283.65252 
L 681.453204 -283.857057 
L 682.170497 -284.014763 
L 682.88779 -284.114651 
L 683.605083 -284.147784 
L 684.322376 -284.108193 
L 685.039669 -283.993606 
L 685.756962 -283.805869 
L 686.474254 -283.550993 
L 687.191547 -283.23878 
L 687.90884 -282.882079 
L 688.626133 -282.495741 
L 689.343426 -282.095406 
L 689.343426 -276.458344 
L 689.343426 -276.458344 
L 688.626133 -276.058009 
L 687.90884 -275.671671 
L 687.191547 -275.31497 
L 686.474254 -275.002757 
L 685.756962 -274.747881 
L 685.039669 -274.560144 
L 684.322376 -274.445557 
L 683.605083 -274.405966 
L 682.88779 -274.439099 
L 682.170497 -274.538987 
L 681.453204 -274.696693 
L 680.735911 -274.90123 
L 680.018618 -275.14055 
L 679.301325 -275.402468 
L 678.584032 -275.675443 
L 677.866739 -275.949147 
L 677.149446 -276.214807 
L 676.432154 -276.465325 
L 675.714861 -276.695231 
L 674.997568 -276.900528 
L 674.280275 -277.078462 
L 673.562982 -277.227304 
L 672.845689 -277.346139 
L 672.128396 -277.434713 
L 671.411103 -277.493309 
L 670.69381 -277.522667 
L 669.976517 -277.523922 
L 669.259224 -277.498546 
L 668.541931 -277.448298 
L 667.824638 -277.375169 
L 667.107346 -277.281318 
L 666.390053 -277.169008 
L 665.67276 -277.040526 
L 664.955467 -276.898089 
L 664.238174 -276.743718 
L 663.520881 -276.579089 
L 662.803588 -276.405342 
L 662.086295 -276.22289 
L 661.369002 -276.03123 
L 660.651709 -275.828804 
L 659.934416 -275.612956 
L 659.217123 -275.380008 
L 658.49983 -275.125482 
L 657.782538 -274.84447 
L 657.065245 -274.532125 
L 656.347952 -274.18422 
L 655.630659 -273.797721 
L 654.913366 -273.371303 
L 654.196073 -272.905735 
L 653.47878 -272.404108 
L 652.761487 -271.871861 
L 652.044194 -271.316624 
L 651.326901 -270.747893 
L 650.609608 -270.176593 
L 649.892315 -269.614565 
L 649.175022 -269.074044 
L 648.457729 -268.567155 
L 647.740437 -268.105467 
L 647.023144 -267.699611 
L 646.305851 -267.35897 
L 645.588558 -267.091434 
L 644.871265 -266.903218 
L 644.153972 -266.798731 
L 643.436679 -266.780511 
L 642.719386 -266.84921 
L 642.002093 -267.003644 
L 641.2848 -267.240896 
L 640.567507 -267.556471 
L 639.850214 -267.944482 
L 639.132921 -268.397862 
L 638.415629 -268.908574 
L 637.698336 -269.467821 
L 636.981043 -270.066244 
L 636.26375 -270.694116 
L 635.546457 -271.341537 
L 634.829164 -271.998636 
L 634.111871 -272.655791 
L 633.394578 -273.303849 
L 632.677285 -273.934357 
L 631.959992 -274.539774 
L 631.242699 -275.113644 
L 630.525406 -275.650733 
L 629.808113 -276.1471 
L 629.090821 -276.600109 
L 628.373528 -277.008385 
L 627.656235 -277.371725 
L 626.938942 -277.690967 
L 626.221649 -277.967845 
L 625.504356 -278.204832 
L 624.787063 -278.404974 
L 624.06977 -278.571735 
L 623.352477 -278.708842 
L 622.635184 -278.820135 
L 621.917891 -278.909427 
L 621.200598 -278.980385 
L 620.483305 -279.036411 
L 619.766013 -279.080559 
L 619.04872 -279.115473 
L 618.331427 -279.143355 
z
" id="mc33c410350" style="stroke:#424242;"/>
    </defs>
    <g clip-path="url(#pc57122b6c5)">
     <use style="fill:#be631d;stroke:#424242;" x="0" xlink:href="#mc33c410350" y="332.774202"/>
    </g>
   </g>
   <g id="PolyCollection_3">
    <defs>
     <path d="M 640.050752 -205.162478 
L 640.050752 -220.920439 
L 640.544899 -221.258267 
L 641.039047 -221.59244 
L 641.533194 -221.921768 
L 642.027341 -222.245096 
L 642.521488 -222.561319 
L 643.015636 -222.869382 
L 643.509783 -223.168294 
L 644.00393 -223.457128 
L 644.498077 -223.73503 
L 644.992225 -224.001217 
L 645.486372 -224.25498 
L 645.980519 -224.495683 
L 646.474666 -224.722762 
L 646.968814 -224.935721 
L 647.462961 -225.134127 
L 647.957108 -225.317607 
L 648.451255 -225.485844 
L 648.945403 -225.638567 
L 649.43955 -225.775551 
L 649.933697 -225.896607 
L 650.427844 -226.001582 
L 650.921992 -226.09035 
L 651.416139 -226.162813 
L 651.910286 -226.2189 
L 652.404433 -226.258561 
L 652.898581 -226.281774 
L 653.392728 -226.288542 
L 653.886875 -226.278899 
L 654.381023 -226.252914 
L 654.87517 -226.210696 
L 655.369317 -226.152397 
L 655.863464 -226.078226 
L 656.357612 -225.988449 
L 656.851759 -225.883397 
L 657.345906 -225.763479 
L 657.840053 -225.629179 
L 658.334201 -225.481071 
L 658.828348 -225.319817 
L 659.322495 -225.146174 
L 659.816642 -224.960997 
L 660.31079 -224.765238 
L 660.804937 -224.559946 
L 661.299084 -224.346265 
L 661.793231 -224.125433 
L 662.287379 -223.89877 
L 662.781526 -223.66768 
L 663.275673 -223.433634 
L 663.76982 -223.198167 
L 664.263968 -222.962863 
L 664.758115 -222.729345 
L 665.252262 -222.499259 
L 665.746409 -222.274264 
L 666.240557 -222.056013 
L 666.734704 -221.84614 
L 667.228851 -221.646243 
L 667.722999 -221.457865 
L 668.217146 -221.282481 
L 668.711293 -221.12148 
L 669.20544 -220.976144 
L 669.699588 -220.847636 
L 670.193735 -220.73698 
L 670.687882 -220.645046 
L 671.182029 -220.572532 
L 671.676177 -220.519955 
L 672.170324 -220.487631 
L 672.664471 -220.475666 
L 673.158618 -220.483946 
L 673.652766 -220.512129 
L 674.146913 -220.559639 
L 674.64106 -220.62566 
L 675.135207 -220.709144 
L 675.629355 -220.808805 
L 676.123502 -220.923132 
L 676.617649 -221.050398 
L 677.111796 -221.188672 
L 677.605944 -221.335843 
L 678.100091 -221.489631 
L 678.594238 -221.647624 
L 679.088385 -221.807298 
L 679.582533 -221.966051 
L 680.07668 -222.121235 
L 680.570827 -222.270194 
L 681.064974 -222.4103 
L 681.559122 -222.538986 
L 682.053269 -222.653788 
L 682.547416 -222.752382 
L 683.041564 -222.832611 
L 683.535711 -222.892528 
L 684.029858 -222.930415 
L 684.524005 -222.944816 
L 685.018153 -222.934557 
L 685.5123 -222.89876 
L 686.006447 -222.836856 
L 686.500594 -222.748593 
L 686.994742 -222.634037 
L 687.488889 -222.493565 
L 687.983036 -222.327859 
L 688.477183 -222.137888 
L 688.971331 -221.924891 
L 688.971331 -204.158025 
L 688.971331 -204.158025 
L 688.477183 -203.945028 
L 687.983036 -203.755057 
L 687.488889 -203.589351 
L 686.994742 -203.44888 
L 686.500594 -203.334324 
L 686.006447 -203.246061 
L 685.5123 -203.184157 
L 685.018153 -203.148359 
L 684.524005 -203.1381 
L 684.029858 -203.152502 
L 683.535711 -203.190389 
L 683.041564 -203.250305 
L 682.547416 -203.330535 
L 682.053269 -203.429128 
L 681.559122 -203.543931 
L 681.064974 -203.672617 
L 680.570827 -203.812722 
L 680.07668 -203.961682 
L 679.582533 -204.116866 
L 679.088385 -204.275619 
L 678.594238 -204.435292 
L 678.100091 -204.593285 
L 677.605944 -204.747074 
L 677.111796 -204.894244 
L 676.617649 -205.032519 
L 676.123502 -205.159785 
L 675.629355 -205.274112 
L 675.135207 -205.373773 
L 674.64106 -205.457256 
L 674.146913 -205.523278 
L 673.652766 -205.570787 
L 673.158618 -205.59897 
L 672.664471 -205.607251 
L 672.170324 -205.595286 
L 671.676177 -205.562961 
L 671.182029 -205.510384 
L 670.687882 -205.437871 
L 670.193735 -205.345937 
L 669.699588 -205.235281 
L 669.20544 -205.106773 
L 668.711293 -204.961437 
L 668.217146 -204.800435 
L 667.722999 -204.625052 
L 667.228851 -204.436674 
L 666.734704 -204.236776 
L 666.240557 -204.026903 
L 665.746409 -203.808653 
L 665.252262 -203.583658 
L 664.758115 -203.353572 
L 664.263968 -203.120053 
L 663.76982 -202.88475 
L 663.275673 -202.649283 
L 662.781526 -202.415237 
L 662.287379 -202.184146 
L 661.793231 -201.957484 
L 661.299084 -201.736651 
L 660.804937 -201.522971 
L 660.31079 -201.317679 
L 659.816642 -201.121919 
L 659.322495 -200.936743 
L 658.828348 -200.7631 
L 658.334201 -200.601846 
L 657.840053 -200.453738 
L 657.345906 -200.319438 
L 656.851759 -200.199519 
L 656.357612 -200.094468 
L 655.863464 -200.00469 
L 655.369317 -199.930519 
L 654.87517 -199.872221 
L 654.381023 -199.830003 
L 653.886875 -199.804018 
L 653.392728 -199.794375 
L 652.898581 -199.801143 
L 652.404433 -199.824356 
L 651.910286 -199.864017 
L 651.416139 -199.920103 
L 650.921992 -199.992567 
L 650.427844 -200.081335 
L 649.933697 -200.186309 
L 649.43955 -200.307366 
L 648.945403 -200.444349 
L 648.451255 -200.597073 
L 647.957108 -200.765309 
L 647.462961 -200.94879 
L 646.968814 -201.147196 
L 646.474666 -201.360154 
L 645.980519 -201.587233 
L 645.486372 -201.827937 
L 644.992225 -202.0817 
L 644.498077 -202.347887 
L 644.00393 -202.625789 
L 643.509783 -202.914623 
L 643.015636 -203.213535 
L 642.521488 -203.521598 
L 642.027341 -203.83782 
L 641.533194 -204.161149 
L 641.039047 -204.490477 
L 640.544899 -204.82465 
L 640.050752 -205.162478 
z
" id="m934bec1729" style="stroke:#424242;"/>
    </defs>
    <g clip-path="url(#pc57122b6c5)">
     <use style="fill:#be631d;stroke:#424242;" x="0" xlink:href="#m934bec1729" y="332.774202"/>
    </g>
   </g>
   <g id="patch_86">
    <path clip-path="url(#pc57122b6c5)" d="M 445.979444 40.250244 
L 445.979444 40.250244 
L 445.979444 40.250244 
L 445.979444 40.250244 
z
" style="fill:#7c78ab;stroke:#424242;stroke-linejoin:miter;stroke-width:0.5;"/>
   </g>
   <g id="patch_87">
    <path clip-path="url(#pc57122b6c5)" d="M 445.979444 40.250244 
L 445.979444 40.250244 
L 445.979444 40.250244 
L 445.979444 40.250244 
z
" style="fill:#be631d;stroke:#424242;stroke-linejoin:miter;stroke-width:0.5;"/>
   </g>
   <g id="matplotlib.axis_3">
    <g id="xtick_5">
     <g id="line2d_11">
      <g>
       <use style="stroke:#000000;stroke-width:1.6;" x="445.979444" xlink:href="#m37d6deace5" y="272.074202"/>
      </g>
     </g>
     <g id="text_12">
      <!-- 0.0 -->
      <g transform="translate(430.076319 301.971077)scale(0.2 -0.2)">
       <use xlink:href="#DejaVuSans-48"/>
       <use x="63.623047" xlink:href="#DejaVuSans-46"/>
       <use x="95.410156" xlink:href="#DejaVuSans-48"/>
      </g>
     </g>
    </g>
    <g id="xtick_6">
     <g id="line2d_12">
      <g>
       <use style="stroke:#000000;stroke-width:1.6;" x="516.630556" xlink:href="#m37d6deace5" y="272.074202"/>
      </g>
     </g>
     <g id="text_13">
      <!-- 0.2 -->
      <g transform="translate(500.727431 301.971077)scale(0.2 -0.2)">
       <use xlink:href="#DejaVuSans-48"/>
       <use x="63.623047" xlink:href="#DejaVuSans-46"/>
       <use x="95.410156" xlink:href="#DejaVuSans-50"/>
      </g>
     </g>
    </g>
    <g id="xtick_7">
     <g id="line2d_13">
      <g>
       <use style="stroke:#000000;stroke-width:1.6;" x="587.281667" xlink:href="#m37d6deace5" y="272.074202"/>
      </g>
     </g>
     <g id="text_14">
      <!-- 0.4 -->
      <g transform="translate(571.378542 301.971077)scale(0.2 -0.2)">
       <use xlink:href="#DejaVuSans-48"/>
       <use x="63.623047" xlink:href="#DejaVuSans-46"/>
       <use x="95.410156" xlink:href="#DejaVuSans-52"/>
      </g>
     </g>
    </g>
    <g id="xtick_8">
     <g id="line2d_14">
      <g>
       <use style="stroke:#000000;stroke-width:1.6;" x="657.932778" xlink:href="#m37d6deace5" y="272.074202"/>
      </g>
     </g>
     <g id="text_15">
      <!-- 0.6 -->
      <g transform="translate(642.029653 301.971077)scale(0.2 -0.2)">
       <use xlink:href="#DejaVuSans-48"/>
       <use x="63.623047" xlink:href="#DejaVuSans-46"/>
       <use x="95.410156" xlink:href="#DejaVuSans-54"/>
      </g>
     </g>
    </g>
    <g id="text_16">
     <!-- Max JS Divergence within $\epsilon$ -->
     <g transform="translate(425.1875 325.330452)scale(0.2 -0.2)">
      <use transform="translate(0 0.015625)" xlink:href="#DejaVuSans-77"/>
      <use transform="translate(86.279297 0.015625)" xlink:href="#DejaVuSans-97"/>
      <use transform="translate(147.558594 0.015625)" xlink:href="#DejaVuSans-120"/>
      <use transform="translate(206.738281 0.015625)" xlink:href="#DejaVuSans-32"/>
      <use transform="translate(238.525391 0.015625)" xlink:href="#DejaVuSans-74"/>
      <use transform="translate(268.017578 0.015625)" xlink:href="#DejaVuSans-83"/>
      <use transform="translate(331.494141 0.015625)" xlink:href="#DejaVuSans-32"/>
      <use transform="translate(363.28125 0.015625)" xlink:href="#DejaVuSans-68"/>
      <use transform="translate(440.283203 0.015625)" xlink:href="#DejaVuSans-105"/>
      <use transform="translate(468.066406 0.015625)" xlink:href="#DejaVuSans-118"/>
      <use transform="translate(527.246094 0.015625)" xlink:href="#DejaVuSans-101"/>
      <use transform="translate(588.769531 0.015625)" xlink:href="#DejaVuSans-114"/>
      <use transform="translate(629.882812 0.015625)" xlink:href="#DejaVuSans-103"/>
      <use transform="translate(693.359375 0.015625)" xlink:href="#DejaVuSans-101"/>
      <use transform="translate(754.882812 0.015625)" xlink:href="#DejaVuSans-110"/>
      <use transform="translate(818.261719 0.015625)" xlink:href="#DejaVuSans-99"/>
      <use transform="translate(873.242188 0.015625)" xlink:href="#DejaVuSans-101"/>
      <use transform="translate(934.765625 0.015625)" xlink:href="#DejaVuSans-32"/>
      <use transform="translate(966.552734 0.015625)" xlink:href="#DejaVuSans-119"/>
      <use transform="translate(1048.339844 0.015625)" xlink:href="#DejaVuSans-105"/>
      <use transform="translate(1076.123047 0.015625)" xlink:href="#DejaVuSans-116"/>
      <use transform="translate(1115.332031 0.015625)" xlink:href="#DejaVuSans-104"/>
      <use transform="translate(1178.710938 0.015625)" xlink:href="#DejaVuSans-105"/>
      <use transform="translate(1206.494141 0.015625)" xlink:href="#DejaVuSans-110"/>
      <use transform="translate(1269.873047 0.015625)" xlink:href="#DejaVuSans-32"/>
      <use transform="translate(1301.660156 0.015625)" xlink:href="#DejaVuSans-Oblique-949"/>
     </g>
    </g>
   </g>
   <g id="matplotlib.axis_4">
    <g id="ytick_7">
     <g id="line2d_15">
      <g>
       <use style="stroke:#000000;stroke-width:1.6;" x="428.316667" xlink:href="#m76f9ba6950" y="40.250244"/>
      </g>
     </g>
     <g id="text_17">
      <!-- [0.00, -->
      <defs>
       <path d="M 8.59375 75.984375 
L 29.296875 75.984375 
L 29.296875 69 
L 17.578125 69 
L 17.578125 -6.203125 
L 29.296875 -6.203125 
L 29.296875 -13.1875 
L 8.59375 -13.1875 
z
" id="DejaVuSans-91"/>
       <path d="M 11.71875 12.40625 
L 22.015625 12.40625 
L 22.015625 4 
L 14.015625 -11.625 
L 7.71875 -11.625 
L 11.71875 4 
z
" id="DejaVuSans-44"/>
      </defs>
      <g transform="translate(354.926042 36.650869)scale(0.2 -0.2)">
       <use xlink:href="#DejaVuSans-91"/>
       <use x="39.013672" xlink:href="#DejaVuSans-48"/>
       <use x="102.636719" xlink:href="#DejaVuSans-46"/>
       <use x="134.423828" xlink:href="#DejaVuSans-48"/>
       <use x="198.046875" xlink:href="#DejaVuSans-48"/>
       <use x="261.669922" xlink:href="#DejaVuSans-44"/>
      </g>
      <!-- 0.25) -->
      <defs>
       <path d="M 8.015625 75.875 
L 15.828125 75.875 
Q 23.140625 64.359375 26.78125 53.3125 
Q 30.421875 42.28125 30.421875 31.390625 
Q 30.421875 20.453125 26.78125 9.375 
Q 23.140625 -1.703125 15.828125 -13.1875 
L 8.015625 -13.1875 
Q 14.5 -2 17.703125 9.0625 
Q 20.90625 20.125 20.90625 31.390625 
Q 20.90625 42.671875 17.703125 53.65625 
Q 14.5 64.65625 8.015625 75.875 
z
" id="DejaVuSans-41"/>
      </defs>
      <g transform="translate(361.282292 59.046494)scale(0.2 -0.2)">
       <use xlink:href="#DejaVuSans-48"/>
       <use x="63.623047" xlink:href="#DejaVuSans-46"/>
       <use x="95.410156" xlink:href="#DejaVuSans-50"/>
       <use x="159.033203" xlink:href="#DejaVuSans-53"/>
       <use x="222.65625" xlink:href="#DejaVuSans-41"/>
      </g>
     </g>
    </g>
    <g id="ytick_8">
     <g id="line2d_16">
      <g>
       <use style="stroke:#000000;stroke-width:1.6;" x="428.316667" xlink:href="#m76f9ba6950" y="106.485661"/>
      </g>
     </g>
     <g id="text_18">
      <!-- [0.25, -->
      <g transform="translate(354.926042 102.886286)scale(0.2 -0.2)">
       <use xlink:href="#DejaVuSans-91"/>
       <use x="39.013672" xlink:href="#DejaVuSans-48"/>
       <use x="102.636719" xlink:href="#DejaVuSans-46"/>
       <use x="134.423828" xlink:href="#DejaVuSans-50"/>
       <use x="198.046875" xlink:href="#DejaVuSans-53"/>
       <use x="261.669922" xlink:href="#DejaVuSans-44"/>
      </g>
      <!-- 0.50) -->
      <g transform="translate(361.282292 125.281911)scale(0.2 -0.2)">
       <use xlink:href="#DejaVuSans-48"/>
       <use x="63.623047" xlink:href="#DejaVuSans-46"/>
       <use x="95.410156" xlink:href="#DejaVuSans-53"/>
       <use x="159.033203" xlink:href="#DejaVuSans-48"/>
       <use x="222.65625" xlink:href="#DejaVuSans-41"/>
      </g>
     </g>
    </g>
    <g id="ytick_9">
     <g id="line2d_17">
      <g>
       <use style="stroke:#000000;stroke-width:1.6;" x="428.316667" xlink:href="#m76f9ba6950" y="172.721077"/>
      </g>
     </g>
     <g id="text_19">
      <!-- [0.50, -->
      <g transform="translate(354.926042 169.121702)scale(0.2 -0.2)">
       <use xlink:href="#DejaVuSans-91"/>
       <use x="39.013672" xlink:href="#DejaVuSans-48"/>
       <use x="102.636719" xlink:href="#DejaVuSans-46"/>
       <use x="134.423828" xlink:href="#DejaVuSans-53"/>
       <use x="198.046875" xlink:href="#DejaVuSans-48"/>
       <use x="261.669922" xlink:href="#DejaVuSans-44"/>
      </g>
      <!-- 0.75) -->
      <defs>
       <path d="M 8.203125 72.90625 
L 55.078125 72.90625 
L 55.078125 68.703125 
L 28.609375 0 
L 18.3125 0 
L 43.21875 64.59375 
L 8.203125 64.59375 
z
" id="DejaVuSans-55"/>
      </defs>
      <g transform="translate(361.282292 191.517327)scale(0.2 -0.2)">
       <use xlink:href="#DejaVuSans-48"/>
       <use x="63.623047" xlink:href="#DejaVuSans-46"/>
       <use x="95.410156" xlink:href="#DejaVuSans-55"/>
       <use x="159.033203" xlink:href="#DejaVuSans-53"/>
       <use x="222.65625" xlink:href="#DejaVuSans-41"/>
      </g>
     </g>
    </g>
    <g id="ytick_10">
     <g id="line2d_18">
      <g>
       <use style="stroke:#000000;stroke-width:1.6;" x="428.316667" xlink:href="#m76f9ba6950" y="238.956494"/>
      </g>
     </g>
     <g id="text_20">
      <!-- [0.75, -->
      <g transform="translate(354.926042 235.357119)scale(0.2 -0.2)">
       <use xlink:href="#DejaVuSans-91"/>
       <use x="39.013672" xlink:href="#DejaVuSans-48"/>
       <use x="102.636719" xlink:href="#DejaVuSans-46"/>
       <use x="134.423828" xlink:href="#DejaVuSans-55"/>
       <use x="198.046875" xlink:href="#DejaVuSans-53"/>
       <use x="261.669922" xlink:href="#DejaVuSans-44"/>
      </g>
      <!-- 1.00) -->
      <g transform="translate(361.282292 257.752744)scale(0.2 -0.2)">
       <use xlink:href="#DejaVuSans-49"/>
       <use x="63.623047" xlink:href="#DejaVuSans-46"/>
       <use x="95.410156" xlink:href="#DejaVuSans-48"/>
       <use x="159.033203" xlink:href="#DejaVuSans-48"/>
       <use x="222.65625" xlink:href="#DejaVuSans-41"/>
      </g>
     </g>
    </g>
    <g id="text_21">
     <!-- Max Attention -->
     <defs>
      <path d="M 34.1875 63.1875 
L 20.796875 26.90625 
L 47.609375 26.90625 
z
M 28.609375 72.90625 
L 39.796875 72.90625 
L 67.578125 0 
L 57.328125 0 
L 50.6875 18.703125 
L 17.828125 18.703125 
L 11.1875 0 
L 0.78125 0 
z
" id="DejaVuSans-65"/>
      <path d="M 30.609375 48.390625 
Q 23.390625 48.390625 19.1875 42.75 
Q 14.984375 37.109375 14.984375 27.296875 
Q 14.984375 17.484375 19.15625 11.84375 
Q 23.34375 6.203125 30.609375 6.203125 
Q 37.796875 6.203125 41.984375 11.859375 
Q 46.1875 17.53125 46.1875 27.296875 
Q 46.1875 37.015625 41.984375 42.703125 
Q 37.796875 48.390625 30.609375 48.390625 
z
M 30.609375 56 
Q 42.328125 56 49.015625 48.375 
Q 55.71875 40.765625 55.71875 27.296875 
Q 55.71875 13.875 49.015625 6.21875 
Q 42.328125 -1.421875 30.609375 -1.421875 
Q 18.84375 -1.421875 12.171875 6.21875 
Q 5.515625 13.875 5.515625 27.296875 
Q 5.515625 40.765625 12.171875 48.375 
Q 18.84375 56 30.609375 56 
z
" id="DejaVuSans-111"/>
     </defs>
     <g transform="translate(346.766667 209.781494)rotate(-90)scale(0.2 -0.2)">
      <use xlink:href="#DejaVuSans-77"/>
      <use x="86.279297" xlink:href="#DejaVuSans-97"/>
      <use x="147.558594" xlink:href="#DejaVuSans-120"/>
      <use x="206.738281" xlink:href="#DejaVuSans-32"/>
      <use x="238.525391" xlink:href="#DejaVuSans-65"/>
      <use x="306.917969" xlink:href="#DejaVuSans-116"/>
      <use x="346.126953" xlink:href="#DejaVuSans-116"/>
      <use x="385.335938" xlink:href="#DejaVuSans-101"/>
      <use x="446.859375" xlink:href="#DejaVuSans-110"/>
      <use x="510.238281" xlink:href="#DejaVuSans-116"/>
      <use x="549.447266" xlink:href="#DejaVuSans-105"/>
      <use x="577.230469" xlink:href="#DejaVuSans-111"/>
      <use x="638.412109" xlink:href="#DejaVuSans-110"/>
     </g>
    </g>
   </g>
   <g id="line2d_19">
    <path clip-path="url(#pc57122b6c5)" style="fill:none;stroke:#424242;stroke-dasharray:1.5,1.5;stroke-dashoffset:0;"/>
   </g>
   <g id="line2d_20">
    <path clip-path="url(#pc57122b6c5)" style="fill:none;stroke:#424242;stroke-dasharray:3,3;stroke-dashoffset:0;"/>
   </g>
   <g id="line2d_21">
    <path clip-path="url(#pc57122b6c5)" style="fill:none;stroke:#424242;stroke-dasharray:1.5,1.5;stroke-dashoffset:0;"/>
   </g>
   <g id="line2d_22">
    <path clip-path="url(#pc57122b6c5)" style="fill:none;stroke:#424242;stroke-dasharray:1.5,1.5;stroke-dashoffset:0;"/>
   </g>
   <g id="line2d_23">
    <path clip-path="url(#pc57122b6c5)" style="fill:none;stroke:#424242;stroke-dasharray:3,3;stroke-dashoffset:0;"/>
   </g>
   <g id="line2d_24">
    <path clip-path="url(#pc57122b6c5)" style="fill:none;stroke:#424242;stroke-dasharray:1.5,1.5;stroke-dashoffset:0;"/>
   </g>
   <g id="line2d_25">
    <path clip-path="url(#pc57122b6c5)" style="fill:none;stroke:#424242;stroke-dasharray:1.5,1.5;stroke-dashoffset:0;"/>
   </g>
   <g id="line2d_26">
    <path clip-path="url(#pc57122b6c5)" style="fill:none;stroke:#424242;stroke-dasharray:3,3;stroke-dashoffset:0;"/>
   </g>
   <g id="line2d_27">
    <path clip-path="url(#pc57122b6c5)" style="fill:none;stroke:#424242;stroke-dasharray:1.5,1.5;stroke-dashoffset:0;"/>
   </g>
   <g id="patch_88">
    <path style="fill:none;stroke:#000000;stroke-linecap:square;stroke-linejoin:miter;stroke-width:0.8;"/>
   </g>
   <g id="patch_89">
    <path style="fill:none;stroke:#000000;stroke-linecap:square;stroke-linejoin:miter;stroke-width:0.8;"/>
   </g>
  </g>
 </g>
 <defs>
  <clipPath id="pe7c1bb828c">
   <rect height="264.941667" width="264.941667" x="59.575" y="7.132536"/>
  </clipPath>
  <clipPath id="pc57122b6c5">
   <rect height="264.941667" width="264.941667" x="428.316667" y="7.132536"/>
  </clipPath>
 </defs>
</svg>
