<?xml version="1.0" encoding="utf-8" standalone="no"?>
<!DOCTYPE svg PUBLIC "-//W3C//DTD SVG 1.1//EN"
  "http://www.w3.org/Graphics/SVG/1.1/DTD/svg11.dtd">
<!-- Created with matplotlib (https://matplotlib.org/) -->
<svg height="326.627414pt" version="1.1" viewBox="0 0 312.49737 326.627414" width="312.49737pt" xmlns="http://www.w3.org/2000/svg" xmlns:xlink="http://www.w3.org/1999/xlink">
 <defs>
  <style type="text/css">
*{stroke-linecap:butt;stroke-linejoin:round;}
  </style>
 </defs>
 <g id="figure_1">
  <g id="patch_1">
   <path d="M 0 326.627414 
L 312.49737 326.627414 
L 312.49737 -0 
L 0 -0 
z
" style="fill:#ffffff;"/>
  </g>
  <g id="axes_1">
   <g id="patch_2">
    <path d="M 46.7 265.927414 
L 305.853333 265.927414 
L 305.853333 6.77408 
L 46.7 6.77408 
z
" style="fill:#ffffff;"/>
   </g>
   <g id="patch_3">
    <path clip-path="url(#pabd50575a1)" d="M 58.479697 265.927414 
L 64.369545 265.927414 
L 64.369545 265.927414 
L 58.479697 265.927414 
z
" style="fill:#7570b3;opacity:0.6;stroke:#000000;stroke-linejoin:miter;stroke-width:0.5;"/>
   </g>
   <g id="patch_4">
    <path clip-path="url(#pabd50575a1)" d="M 64.369545 265.927414 
L 70.259394 265.927414 
L 70.259394 265.927414 
L 64.369545 265.927414 
z
" style="fill:#7570b3;opacity:0.6;stroke:#000000;stroke-linejoin:miter;stroke-width:0.5;"/>
   </g>
   <g id="patch_5">
    <path clip-path="url(#pabd50575a1)" d="M 70.259394 265.927414 
L 76.149242 265.927414 
L 76.149242 265.927414 
L 70.259394 265.927414 
z
" style="fill:#7570b3;opacity:0.6;stroke:#000000;stroke-linejoin:miter;stroke-width:0.5;"/>
   </g>
   <g id="patch_6">
    <path clip-path="url(#pabd50575a1)" d="M 76.149242 265.927414 
L 82.039091 265.927414 
L 82.039091 265.927414 
L 76.149242 265.927414 
z
" style="fill:#7570b3;opacity:0.6;stroke:#000000;stroke-linejoin:miter;stroke-width:0.5;"/>
   </g>
   <g id="patch_7">
    <path clip-path="url(#pabd50575a1)" d="M 82.039091 265.927414 
L 87.928939 265.927414 
L 87.928939 265.927414 
L 82.039091 265.927414 
z
" style="fill:#7570b3;opacity:0.6;stroke:#000000;stroke-linejoin:miter;stroke-width:0.5;"/>
   </g>
   <g id="patch_8">
    <path clip-path="url(#pabd50575a1)" d="M 87.928939 265.927414 
L 93.818788 265.927414 
L 93.818788 265.927414 
L 87.928939 265.927414 
z
" style="fill:#7570b3;opacity:0.6;stroke:#000000;stroke-linejoin:miter;stroke-width:0.5;"/>
   </g>
   <g id="patch_9">
    <path clip-path="url(#pabd50575a1)" d="M 93.818788 265.927414 
L 99.708636 265.927414 
L 99.708636 265.927414 
L 93.818788 265.927414 
z
" style="fill:#7570b3;opacity:0.6;stroke:#000000;stroke-linejoin:miter;stroke-width:0.5;"/>
   </g>
   <g id="patch_10">
    <path clip-path="url(#pabd50575a1)" d="M 99.708636 265.927414 
L 105.598485 265.927414 
L 105.598485 265.927414 
L 99.708636 265.927414 
z
" style="fill:#7570b3;opacity:0.6;stroke:#000000;stroke-linejoin:miter;stroke-width:0.5;"/>
   </g>
   <g id="patch_11">
    <path clip-path="url(#pabd50575a1)" d="M 105.598485 265.927414 
L 111.488333 265.927414 
L 111.488333 265.927414 
L 105.598485 265.927414 
z
" style="fill:#7570b3;opacity:0.6;stroke:#000000;stroke-linejoin:miter;stroke-width:0.5;"/>
   </g>
   <g id="patch_12">
    <path clip-path="url(#pabd50575a1)" d="M 111.488333 265.927414 
L 117.378182 265.927414 
L 117.378182 265.927414 
L 111.488333 265.927414 
z
" style="fill:#7570b3;opacity:0.6;stroke:#000000;stroke-linejoin:miter;stroke-width:0.5;"/>
   </g>
   <g id="patch_13">
    <path clip-path="url(#pabd50575a1)" d="M 117.378182 265.927414 
L 123.26803 265.927414 
L 123.26803 265.927414 
L 117.378182 265.927414 
z
" style="fill:#7570b3;opacity:0.6;stroke:#000000;stroke-linejoin:miter;stroke-width:0.5;"/>
   </g>
   <g id="patch_14">
    <path clip-path="url(#pabd50575a1)" d="M 123.26803 265.927414 
L 129.157879 265.927414 
L 129.157879 265.927414 
L 123.26803 265.927414 
z
" style="fill:#7570b3;opacity:0.6;stroke:#000000;stroke-linejoin:miter;stroke-width:0.5;"/>
   </g>
   <g id="patch_15">
    <path clip-path="url(#pabd50575a1)" d="M 129.157879 265.927414 
L 135.047727 265.927414 
L 135.047727 265.927414 
L 129.157879 265.927414 
z
" style="fill:#7570b3;opacity:0.6;stroke:#000000;stroke-linejoin:miter;stroke-width:0.5;"/>
   </g>
   <g id="patch_16">
    <path clip-path="url(#pabd50575a1)" d="M 135.047727 265.927414 
L 140.937576 265.927414 
L 140.937576 265.927414 
L 135.047727 265.927414 
z
" style="fill:#7570b3;opacity:0.6;stroke:#000000;stroke-linejoin:miter;stroke-width:0.5;"/>
   </g>
   <g id="patch_17">
    <path clip-path="url(#pabd50575a1)" d="M 140.937576 265.927414 
L 146.827424 265.927414 
L 146.827424 265.927414 
L 140.937576 265.927414 
z
" style="fill:#7570b3;opacity:0.6;stroke:#000000;stroke-linejoin:miter;stroke-width:0.5;"/>
   </g>
   <g id="patch_18">
    <path clip-path="url(#pabd50575a1)" d="M 146.827424 265.927414 
L 152.717273 265.927414 
L 152.717273 265.927414 
L 146.827424 265.927414 
z
" style="fill:#7570b3;opacity:0.6;stroke:#000000;stroke-linejoin:miter;stroke-width:0.5;"/>
   </g>
   <g id="patch_19">
    <path clip-path="url(#pabd50575a1)" d="M 152.717273 265.927414 
L 158.607121 265.927414 
L 158.607121 265.927414 
L 152.717273 265.927414 
z
" style="fill:#7570b3;opacity:0.6;stroke:#000000;stroke-linejoin:miter;stroke-width:0.5;"/>
   </g>
   <g id="patch_20">
    <path clip-path="url(#pabd50575a1)" d="M 158.607121 265.927414 
L 164.49697 265.927414 
L 164.49697 265.927414 
L 158.607121 265.927414 
z
" style="fill:#7570b3;opacity:0.6;stroke:#000000;stroke-linejoin:miter;stroke-width:0.5;"/>
   </g>
   <g id="patch_21">
    <path clip-path="url(#pabd50575a1)" d="M 164.49697 265.927414 
L 170.386818 265.927414 
L 170.386818 265.927414 
L 164.49697 265.927414 
z
" style="fill:#7570b3;opacity:0.6;stroke:#000000;stroke-linejoin:miter;stroke-width:0.5;"/>
   </g>
   <g id="patch_22">
    <path clip-path="url(#pabd50575a1)" d="M 170.386818 265.927414 
L 176.276667 265.927414 
L 176.276667 265.927414 
L 170.386818 265.927414 
z
" style="fill:#7570b3;opacity:0.6;stroke:#000000;stroke-linejoin:miter;stroke-width:0.5;"/>
   </g>
   <g id="patch_23">
    <path clip-path="url(#pabd50575a1)" d="M 176.276667 265.927414 
L 182.166515 265.927414 
L 182.166515 265.927414 
L 176.276667 265.927414 
z
" style="fill:#7570b3;opacity:0.6;stroke:#000000;stroke-linejoin:miter;stroke-width:0.5;"/>
   </g>
   <g id="patch_24">
    <path clip-path="url(#pabd50575a1)" d="M 182.166515 265.927414 
L 188.056364 265.927414 
L 188.056364 265.927414 
L 182.166515 265.927414 
z
" style="fill:#7570b3;opacity:0.6;stroke:#000000;stroke-linejoin:miter;stroke-width:0.5;"/>
   </g>
   <g id="patch_25">
    <path clip-path="url(#pabd50575a1)" d="M 188.056364 265.927414 
L 193.946212 265.927414 
L 193.946212 265.927414 
L 188.056364 265.927414 
z
" style="fill:#7570b3;opacity:0.6;stroke:#000000;stroke-linejoin:miter;stroke-width:0.5;"/>
   </g>
   <g id="patch_26">
    <path clip-path="url(#pabd50575a1)" d="M 193.946212 265.927414 
L 199.836061 265.927414 
L 199.836061 265.927414 
L 193.946212 265.927414 
z
" style="fill:#7570b3;opacity:0.6;stroke:#000000;stroke-linejoin:miter;stroke-width:0.5;"/>
   </g>
   <g id="patch_27">
    <path clip-path="url(#pabd50575a1)" d="M 199.836061 265.927414 
L 205.725909 265.927414 
L 205.725909 265.927414 
L 199.836061 265.927414 
z
" style="fill:#7570b3;opacity:0.6;stroke:#000000;stroke-linejoin:miter;stroke-width:0.5;"/>
   </g>
   <g id="patch_28">
    <path clip-path="url(#pabd50575a1)" d="M 205.725909 265.927414 
L 211.615758 265.927414 
L 211.615758 265.927414 
L 205.725909 265.927414 
z
" style="fill:#7570b3;opacity:0.6;stroke:#000000;stroke-linejoin:miter;stroke-width:0.5;"/>
   </g>
   <g id="patch_29">
    <path clip-path="url(#pabd50575a1)" d="M 211.615758 265.927414 
L 217.505606 265.927414 
L 217.505606 265.927414 
L 211.615758 265.927414 
z
" style="fill:#7570b3;opacity:0.6;stroke:#000000;stroke-linejoin:miter;stroke-width:0.5;"/>
   </g>
   <g id="patch_30">
    <path clip-path="url(#pabd50575a1)" d="M 217.505606 265.927414 
L 223.395455 265.927414 
L 223.395455 265.927414 
L 217.505606 265.927414 
z
" style="fill:#7570b3;opacity:0.6;stroke:#000000;stroke-linejoin:miter;stroke-width:0.5;"/>
   </g>
   <g id="patch_31">
    <path clip-path="url(#pabd50575a1)" d="M 223.395455 265.927414 
L 229.285303 265.927414 
L 229.285303 262.297815 
L 223.395455 262.297815 
z
" style="fill:#7570b3;opacity:0.6;stroke:#000000;stroke-linejoin:miter;stroke-width:0.5;"/>
   </g>
   <g id="patch_32">
    <path clip-path="url(#pabd50575a1)" d="M 229.285303 265.927414 
L 235.175152 265.927414 
L 235.175152 251.40902 
L 229.285303 251.40902 
z
" style="fill:#7570b3;opacity:0.6;stroke:#000000;stroke-linejoin:miter;stroke-width:0.5;"/>
   </g>
   <g id="patch_33">
    <path clip-path="url(#pabd50575a1)" d="M 235.175152 265.927414 
L 241.065 265.927414 
L 241.065 218.742633 
L 235.175152 218.742633 
z
" style="fill:#7570b3;opacity:0.6;stroke:#000000;stroke-linejoin:miter;stroke-width:0.5;"/>
   </g>
   <g id="patch_34">
    <path clip-path="url(#pabd50575a1)" d="M 241.065 265.927414 
L 246.954848 265.927414 
L 246.954848 200.594641 
L 241.065 200.594641 
z
" style="fill:#7570b3;opacity:0.6;stroke:#000000;stroke-linejoin:miter;stroke-width:0.5;"/>
   </g>
   <g id="patch_35">
    <path clip-path="url(#pabd50575a1)" d="M 246.954848 265.927414 
L 252.844697 265.927414 
L 252.844697 186.076246 
L 246.954848 186.076246 
z
" style="fill:#7570b3;opacity:0.6;stroke:#000000;stroke-linejoin:miter;stroke-width:0.5;"/>
   </g>
   <g id="patch_36">
    <path clip-path="url(#pabd50575a1)" d="M 252.844697 265.927414 
L 258.734545 265.927414 
L 258.734545 217.532767 
L 252.844697 217.532767 
z
" style="fill:#7570b3;opacity:0.6;stroke:#000000;stroke-linejoin:miter;stroke-width:0.5;"/>
   </g>
   <g id="patch_37">
    <path clip-path="url(#pabd50575a1)" d="M 258.734545 265.927414 
L 264.624394 265.927414 
L 264.624394 241.73009 
L 258.734545 241.73009 
z
" style="fill:#7570b3;opacity:0.6;stroke:#000000;stroke-linejoin:miter;stroke-width:0.5;"/>
   </g>
   <g id="patch_38">
    <path clip-path="url(#pabd50575a1)" d="M 264.624394 265.927414 
L 270.514242 265.927414 
L 270.514242 244.149823 
L 264.624394 244.149823 
z
" style="fill:#7570b3;opacity:0.6;stroke:#000000;stroke-linejoin:miter;stroke-width:0.5;"/>
   </g>
   <g id="patch_39">
    <path clip-path="url(#pabd50575a1)" d="M 270.514242 265.927414 
L 276.404091 265.927414 
L 276.404091 246.569555 
L 270.514242 246.569555 
z
" style="fill:#7570b3;opacity:0.6;stroke:#000000;stroke-linejoin:miter;stroke-width:0.5;"/>
   </g>
   <g id="patch_40">
    <path clip-path="url(#pabd50575a1)" d="M 276.404091 265.927414 
L 282.293939 265.927414 
L 282.293939 246.569555 
L 276.404091 246.569555 
z
" style="fill:#7570b3;opacity:0.6;stroke:#000000;stroke-linejoin:miter;stroke-width:0.5;"/>
   </g>
   <g id="patch_41">
    <path clip-path="url(#pabd50575a1)" d="M 282.293939 265.927414 
L 288.183788 265.927414 
L 288.183788 19.114715 
L 282.293939 19.114715 
z
" style="fill:#7570b3;opacity:0.6;stroke:#000000;stroke-linejoin:miter;stroke-width:0.5;"/>
   </g>
   <g id="patch_42">
    <path clip-path="url(#pabd50575a1)" d="M 288.183788 265.927414 
L 294.073636 265.927414 
L 294.073636 210.27357 
L 288.183788 210.27357 
z
" style="fill:#7570b3;opacity:0.6;stroke:#000000;stroke-linejoin:miter;stroke-width:0.5;"/>
   </g>
   <g id="patch_43">
    <path clip-path="url(#pabd50575a1)" d="M 58.479697 265.927414 
L 64.369545 265.927414 
L 64.369545 265.927414 
L 58.479697 265.927414 
z
" style="fill:#d95f02;opacity:0.6;stroke:#000000;stroke-linejoin:miter;stroke-width:0.5;"/>
   </g>
   <g id="patch_44">
    <path clip-path="url(#pabd50575a1)" d="M 64.369545 265.927414 
L 70.259394 265.927414 
L 70.259394 265.927414 
L 64.369545 265.927414 
z
" style="fill:#d95f02;opacity:0.6;stroke:#000000;stroke-linejoin:miter;stroke-width:0.5;"/>
   </g>
   <g id="patch_45">
    <path clip-path="url(#pabd50575a1)" d="M 70.259394 265.927414 
L 76.149242 265.927414 
L 76.149242 265.927414 
L 70.259394 265.927414 
z
" style="fill:#d95f02;opacity:0.6;stroke:#000000;stroke-linejoin:miter;stroke-width:0.5;"/>
   </g>
   <g id="patch_46">
    <path clip-path="url(#pabd50575a1)" d="M 76.149242 265.927414 
L 82.039091 265.927414 
L 82.039091 265.927414 
L 76.149242 265.927414 
z
" style="fill:#d95f02;opacity:0.6;stroke:#000000;stroke-linejoin:miter;stroke-width:0.5;"/>
   </g>
   <g id="patch_47">
    <path clip-path="url(#pabd50575a1)" d="M 82.039091 265.927414 
L 87.928939 265.927414 
L 87.928939 265.927414 
L 82.039091 265.927414 
z
" style="fill:#d95f02;opacity:0.6;stroke:#000000;stroke-linejoin:miter;stroke-width:0.5;"/>
   </g>
   <g id="patch_48">
    <path clip-path="url(#pabd50575a1)" d="M 87.928939 265.927414 
L 93.818788 265.927414 
L 93.818788 265.927414 
L 87.928939 265.927414 
z
" style="fill:#d95f02;opacity:0.6;stroke:#000000;stroke-linejoin:miter;stroke-width:0.5;"/>
   </g>
   <g id="patch_49">
    <path clip-path="url(#pabd50575a1)" d="M 93.818788 265.927414 
L 99.708636 265.927414 
L 99.708636 265.927414 
L 93.818788 265.927414 
z
" style="fill:#d95f02;opacity:0.6;stroke:#000000;stroke-linejoin:miter;stroke-width:0.5;"/>
   </g>
   <g id="patch_50">
    <path clip-path="url(#pabd50575a1)" d="M 99.708636 265.927414 
L 105.598485 265.927414 
L 105.598485 265.927414 
L 99.708636 265.927414 
z
" style="fill:#d95f02;opacity:0.6;stroke:#000000;stroke-linejoin:miter;stroke-width:0.5;"/>
   </g>
   <g id="patch_51">
    <path clip-path="url(#pabd50575a1)" d="M 105.598485 265.927414 
L 111.488333 265.927414 
L 111.488333 265.927414 
L 105.598485 265.927414 
z
" style="fill:#d95f02;opacity:0.6;stroke:#000000;stroke-linejoin:miter;stroke-width:0.5;"/>
   </g>
   <g id="patch_52">
    <path clip-path="url(#pabd50575a1)" d="M 111.488333 265.927414 
L 117.378182 265.927414 
L 117.378182 265.927414 
L 111.488333 265.927414 
z
" style="fill:#d95f02;opacity:0.6;stroke:#000000;stroke-linejoin:miter;stroke-width:0.5;"/>
   </g>
   <g id="patch_53">
    <path clip-path="url(#pabd50575a1)" d="M 117.378182 265.927414 
L 123.26803 265.927414 
L 123.26803 265.927414 
L 117.378182 265.927414 
z
" style="fill:#d95f02;opacity:0.6;stroke:#000000;stroke-linejoin:miter;stroke-width:0.5;"/>
   </g>
   <g id="patch_54">
    <path clip-path="url(#pabd50575a1)" d="M 123.26803 265.927414 
L 129.157879 265.927414 
L 129.157879 265.927414 
L 123.26803 265.927414 
z
" style="fill:#d95f02;opacity:0.6;stroke:#000000;stroke-linejoin:miter;stroke-width:0.5;"/>
   </g>
   <g id="patch_55">
    <path clip-path="url(#pabd50575a1)" d="M 129.157879 265.927414 
L 135.047727 265.927414 
L 135.047727 265.927414 
L 129.157879 265.927414 
z
" style="fill:#d95f02;opacity:0.6;stroke:#000000;stroke-linejoin:miter;stroke-width:0.5;"/>
   </g>
   <g id="patch_56">
    <path clip-path="url(#pabd50575a1)" d="M 135.047727 265.927414 
L 140.937576 265.927414 
L 140.937576 265.927414 
L 135.047727 265.927414 
z
" style="fill:#d95f02;opacity:0.6;stroke:#000000;stroke-linejoin:miter;stroke-width:0.5;"/>
   </g>
   <g id="patch_57">
    <path clip-path="url(#pabd50575a1)" d="M 140.937576 265.927414 
L 146.827424 265.927414 
L 146.827424 265.927414 
L 140.937576 265.927414 
z
" style="fill:#d95f02;opacity:0.6;stroke:#000000;stroke-linejoin:miter;stroke-width:0.5;"/>
   </g>
   <g id="patch_58">
    <path clip-path="url(#pabd50575a1)" d="M 146.827424 265.927414 
L 152.717273 265.927414 
L 152.717273 265.927414 
L 146.827424 265.927414 
z
" style="fill:#d95f02;opacity:0.6;stroke:#000000;stroke-linejoin:miter;stroke-width:0.5;"/>
   </g>
   <g id="patch_59">
    <path clip-path="url(#pabd50575a1)" d="M 152.717273 265.927414 
L 158.607121 265.927414 
L 158.607121 265.927414 
L 152.717273 265.927414 
z
" style="fill:#d95f02;opacity:0.6;stroke:#000000;stroke-linejoin:miter;stroke-width:0.5;"/>
   </g>
   <g id="patch_60">
    <path clip-path="url(#pabd50575a1)" d="M 158.607121 265.927414 
L 164.49697 265.927414 
L 164.49697 265.927414 
L 158.607121 265.927414 
z
" style="fill:#d95f02;opacity:0.6;stroke:#000000;stroke-linejoin:miter;stroke-width:0.5;"/>
   </g>
   <g id="patch_61">
    <path clip-path="url(#pabd50575a1)" d="M 164.49697 265.927414 
L 170.386818 265.927414 
L 170.386818 265.927414 
L 164.49697 265.927414 
z
" style="fill:#d95f02;opacity:0.6;stroke:#000000;stroke-linejoin:miter;stroke-width:0.5;"/>
   </g>
   <g id="patch_62">
    <path clip-path="url(#pabd50575a1)" d="M 170.386818 265.927414 
L 176.276667 265.927414 
L 176.276667 265.927414 
L 170.386818 265.927414 
z
" style="fill:#d95f02;opacity:0.6;stroke:#000000;stroke-linejoin:miter;stroke-width:0.5;"/>
   </g>
   <g id="patch_63">
    <path clip-path="url(#pabd50575a1)" d="M 176.276667 265.927414 
L 182.166515 265.927414 
L 182.166515 265.927414 
L 176.276667 265.927414 
z
" style="fill:#d95f02;opacity:0.6;stroke:#000000;stroke-linejoin:miter;stroke-width:0.5;"/>
   </g>
   <g id="patch_64">
    <path clip-path="url(#pabd50575a1)" d="M 182.166515 265.927414 
L 188.056364 265.927414 
L 188.056364 265.927414 
L 182.166515 265.927414 
z
" style="fill:#d95f02;opacity:0.6;stroke:#000000;stroke-linejoin:miter;stroke-width:0.5;"/>
   </g>
   <g id="patch_65">
    <path clip-path="url(#pabd50575a1)" d="M 188.056364 265.927414 
L 193.946212 265.927414 
L 193.946212 265.927414 
L 188.056364 265.927414 
z
" style="fill:#d95f02;opacity:0.6;stroke:#000000;stroke-linejoin:miter;stroke-width:0.5;"/>
   </g>
   <g id="patch_66">
    <path clip-path="url(#pabd50575a1)" d="M 193.946212 265.927414 
L 199.836061 265.927414 
L 199.836061 265.927414 
L 193.946212 265.927414 
z
" style="fill:#d95f02;opacity:0.6;stroke:#000000;stroke-linejoin:miter;stroke-width:0.5;"/>
   </g>
   <g id="patch_67">
    <path clip-path="url(#pabd50575a1)" d="M 199.836061 265.927414 
L 205.725909 265.927414 
L 205.725909 265.927414 
L 199.836061 265.927414 
z
" style="fill:#d95f02;opacity:0.6;stroke:#000000;stroke-linejoin:miter;stroke-width:0.5;"/>
   </g>
   <g id="patch_68">
    <path clip-path="url(#pabd50575a1)" d="M 205.725909 265.927414 
L 211.615758 265.927414 
L 211.615758 265.927414 
L 205.725909 265.927414 
z
" style="fill:#d95f02;opacity:0.6;stroke:#000000;stroke-linejoin:miter;stroke-width:0.5;"/>
   </g>
   <g id="patch_69">
    <path clip-path="url(#pabd50575a1)" d="M 211.615758 265.927414 
L 217.505606 265.927414 
L 217.505606 265.927414 
L 211.615758 265.927414 
z
" style="fill:#d95f02;opacity:0.6;stroke:#000000;stroke-linejoin:miter;stroke-width:0.5;"/>
   </g>
   <g id="patch_70">
    <path clip-path="url(#pabd50575a1)" d="M 217.505606 265.927414 
L 223.395455 265.927414 
L 223.395455 265.927414 
L 217.505606 265.927414 
z
" style="fill:#d95f02;opacity:0.6;stroke:#000000;stroke-linejoin:miter;stroke-width:0.5;"/>
   </g>
   <g id="patch_71">
    <path clip-path="url(#pabd50575a1)" d="M 223.395455 265.927414 
L 229.285303 265.927414 
L 229.285303 252.615562 
L 223.395455 252.615562 
z
" style="fill:#d95f02;opacity:0.6;stroke:#000000;stroke-linejoin:miter;stroke-width:0.5;"/>
   </g>
   <g id="patch_72">
    <path clip-path="url(#pabd50575a1)" d="M 229.285303 265.927414 
L 235.175152 265.927414 
L 235.175152 218.892204 
L 229.285303 218.892204 
z
" style="fill:#d95f02;opacity:0.6;stroke:#000000;stroke-linejoin:miter;stroke-width:0.5;"/>
   </g>
   <g id="patch_73">
    <path clip-path="url(#pabd50575a1)" d="M 235.175152 265.927414 
L 241.065 265.927414 
L 241.065 134.583811 
L 235.175152 134.583811 
z
" style="fill:#d95f02;opacity:0.6;stroke:#000000;stroke-linejoin:miter;stroke-width:0.5;"/>
   </g>
   <g id="patch_74">
    <path clip-path="url(#pabd50575a1)" d="M 241.065 265.927414 
L 246.954848 265.927414 
L 246.954848 125.709243 
L 241.065 125.709243 
z
" style="fill:#d95f02;opacity:0.6;stroke:#000000;stroke-linejoin:miter;stroke-width:0.5;"/>
   </g>
   <g id="patch_75">
    <path clip-path="url(#pabd50575a1)" d="M 246.954848 265.927414 
L 252.844697 265.927414 
L 252.844697 168.307168 
L 246.954848 168.307168 
z
" style="fill:#d95f02;opacity:0.6;stroke:#000000;stroke-linejoin:miter;stroke-width:0.5;"/>
   </g>
   <g id="patch_76">
    <path clip-path="url(#pabd50575a1)" d="M 252.844697 265.927414 
L 258.734545 265.927414 
L 258.734545 214.454921 
L 252.844697 214.454921 
z
" style="fill:#d95f02;opacity:0.6;stroke:#000000;stroke-linejoin:miter;stroke-width:0.5;"/>
   </g>
   <g id="patch_77">
    <path clip-path="url(#pabd50575a1)" d="M 258.734545 265.927414 
L 264.624394 265.927414 
L 264.624394 230.429143 
L 258.734545 230.429143 
z
" style="fill:#d95f02;opacity:0.6;stroke:#000000;stroke-linejoin:miter;stroke-width:0.5;"/>
   </g>
   <g id="patch_78">
    <path clip-path="url(#pabd50575a1)" d="M 264.624394 265.927414 
L 270.514242 265.927414 
L 270.514242 248.178278 
L 264.624394 248.178278 
z
" style="fill:#d95f02;opacity:0.6;stroke:#000000;stroke-linejoin:miter;stroke-width:0.5;"/>
   </g>
   <g id="patch_79">
    <path clip-path="url(#pabd50575a1)" d="M 270.514242 265.927414 
L 276.404091 265.927414 
L 276.404091 259.715216 
L 270.514242 259.715216 
z
" style="fill:#d95f02;opacity:0.6;stroke:#000000;stroke-linejoin:miter;stroke-width:0.5;"/>
   </g>
   <g id="patch_80">
    <path clip-path="url(#pabd50575a1)" d="M 276.404091 265.927414 
L 282.293939 265.927414 
L 282.293939 242.853537 
L 276.404091 242.853537 
z
" style="fill:#d95f02;opacity:0.6;stroke:#000000;stroke-linejoin:miter;stroke-width:0.5;"/>
   </g>
   <g id="patch_81">
    <path clip-path="url(#pabd50575a1)" d="M 282.293939 265.927414 
L 288.183788 265.927414 
L 288.183788 195.818328 
L 282.293939 195.818328 
z
" style="fill:#d95f02;opacity:0.6;stroke:#000000;stroke-linejoin:miter;stroke-width:0.5;"/>
   </g>
   <g id="patch_82">
    <path clip-path="url(#pabd50575a1)" d="M 288.183788 265.927414 
L 294.073636 265.927414 
L 294.073636 253.503019 
L 288.183788 253.503019 
z
" style="fill:#d95f02;opacity:0.6;stroke:#000000;stroke-linejoin:miter;stroke-width:0.5;"/>
   </g>
   <g id="matplotlib.axis_1">
    <g id="xtick_1">
     <g id="line2d_1">
      <defs>
       <path d="M 0 0 
L 0 3.5 
" id="m8efbec0cb7" style="stroke:#000000;stroke-width:1.6;"/>
      </defs>
      <g>
       <use style="stroke:#000000;stroke-width:1.6;" x="58.479697" xlink:href="#m8efbec0cb7" y="265.927414"/>
      </g>
     </g>
     <g id="text_1">
      <!-- 0.0 -->
      <defs>
       <path d="M 31.78125 66.40625 
Q 24.171875 66.40625 20.328125 58.90625 
Q 16.5 51.421875 16.5 36.375 
Q 16.5 21.390625 20.328125 13.890625 
Q 24.171875 6.390625 31.78125 6.390625 
Q 39.453125 6.390625 43.28125 13.890625 
Q 47.125 21.390625 47.125 36.375 
Q 47.125 51.421875 43.28125 58.90625 
Q 39.453125 66.40625 31.78125 66.40625 
z
M 31.78125 74.21875 
Q 44.046875 74.21875 50.515625 64.515625 
Q 56.984375 54.828125 56.984375 36.375 
Q 56.984375 17.96875 50.515625 8.265625 
Q 44.046875 -1.421875 31.78125 -1.421875 
Q 19.53125 -1.421875 13.0625 8.265625 
Q 6.59375 17.96875 6.59375 36.375 
Q 6.59375 54.828125 13.0625 64.515625 
Q 19.53125 74.21875 31.78125 74.21875 
z
" id="DejaVuSans-48"/>
       <path d="M 10.6875 12.40625 
L 21 12.40625 
L 21 0 
L 10.6875 0 
z
" id="DejaVuSans-46"/>
      </defs>
      <g transform="translate(42.576572 295.824289)scale(0.2 -0.2)">
       <use xlink:href="#DejaVuSans-48"/>
       <use x="63.623047" xlink:href="#DejaVuSans-46"/>
       <use x="95.410156" xlink:href="#DejaVuSans-48"/>
      </g>
     </g>
    </g>
    <g id="xtick_2">
     <g id="line2d_2">
      <g>
       <use style="stroke:#000000;stroke-width:1.6;" x="125.792251" xlink:href="#m8efbec0cb7" y="265.927414"/>
      </g>
     </g>
     <g id="text_2">
      <!-- 0.2 -->
      <defs>
       <path d="M 19.1875 8.296875 
L 53.609375 8.296875 
L 53.609375 0 
L 7.328125 0 
L 7.328125 8.296875 
Q 12.9375 14.109375 22.625 23.890625 
Q 32.328125 33.6875 34.8125 36.53125 
Q 39.546875 41.84375 41.421875 45.53125 
Q 43.3125 49.21875 43.3125 52.78125 
Q 43.3125 58.59375 39.234375 62.25 
Q 35.15625 65.921875 28.609375 65.921875 
Q 23.96875 65.921875 18.8125 64.3125 
Q 13.671875 62.703125 7.8125 59.421875 
L 7.8125 69.390625 
Q 13.765625 71.78125 18.9375 73 
Q 24.125 74.21875 28.421875 74.21875 
Q 39.75 74.21875 46.484375 68.546875 
Q 53.21875 62.890625 53.21875 53.421875 
Q 53.21875 48.921875 51.53125 44.890625 
Q 49.859375 40.875 45.40625 35.40625 
Q 44.1875 33.984375 37.640625 27.21875 
Q 31.109375 20.453125 19.1875 8.296875 
z
" id="DejaVuSans-50"/>
      </defs>
      <g transform="translate(109.889126 295.824289)scale(0.2 -0.2)">
       <use xlink:href="#DejaVuSans-48"/>
       <use x="63.623047" xlink:href="#DejaVuSans-46"/>
       <use x="95.410156" xlink:href="#DejaVuSans-50"/>
      </g>
     </g>
    </g>
    <g id="xtick_3">
     <g id="line2d_3">
      <g>
       <use style="stroke:#000000;stroke-width:1.6;" x="193.104805" xlink:href="#m8efbec0cb7" y="265.927414"/>
      </g>
     </g>
     <g id="text_3">
      <!-- 0.4 -->
      <defs>
       <path d="M 37.796875 64.3125 
L 12.890625 25.390625 
L 37.796875 25.390625 
z
M 35.203125 72.90625 
L 47.609375 72.90625 
L 47.609375 25.390625 
L 58.015625 25.390625 
L 58.015625 17.1875 
L 47.609375 17.1875 
L 47.609375 0 
L 37.796875 0 
L 37.796875 17.1875 
L 4.890625 17.1875 
L 4.890625 26.703125 
z
" id="DejaVuSans-52"/>
      </defs>
      <g transform="translate(177.20168 295.824289)scale(0.2 -0.2)">
       <use xlink:href="#DejaVuSans-48"/>
       <use x="63.623047" xlink:href="#DejaVuSans-46"/>
       <use x="95.410156" xlink:href="#DejaVuSans-52"/>
      </g>
     </g>
    </g>
    <g id="xtick_4">
     <g id="line2d_4">
      <g>
       <use style="stroke:#000000;stroke-width:1.6;" x="260.417359" xlink:href="#m8efbec0cb7" y="265.927414"/>
      </g>
     </g>
     <g id="text_4">
      <!-- 0.6 -->
      <defs>
       <path d="M 33.015625 40.375 
Q 26.375 40.375 22.484375 35.828125 
Q 18.609375 31.296875 18.609375 23.390625 
Q 18.609375 15.53125 22.484375 10.953125 
Q 26.375 6.390625 33.015625 6.390625 
Q 39.65625 6.390625 43.53125 10.953125 
Q 47.40625 15.53125 47.40625 23.390625 
Q 47.40625 31.296875 43.53125 35.828125 
Q 39.65625 40.375 33.015625 40.375 
z
M 52.59375 71.296875 
L 52.59375 62.3125 
Q 48.875 64.0625 45.09375 64.984375 
Q 41.3125 65.921875 37.59375 65.921875 
Q 27.828125 65.921875 22.671875 59.328125 
Q 17.53125 52.734375 16.796875 39.40625 
Q 19.671875 43.65625 24.015625 45.921875 
Q 28.375 48.1875 33.59375 48.1875 
Q 44.578125 48.1875 50.953125 41.515625 
Q 57.328125 34.859375 57.328125 23.390625 
Q 57.328125 12.15625 50.6875 5.359375 
Q 44.046875 -1.421875 33.015625 -1.421875 
Q 20.359375 -1.421875 13.671875 8.265625 
Q 6.984375 17.96875 6.984375 36.375 
Q 6.984375 53.65625 15.1875 63.9375 
Q 23.390625 74.21875 37.203125 74.21875 
Q 40.921875 74.21875 44.703125 73.484375 
Q 48.484375 72.75 52.59375 71.296875 
z
" id="DejaVuSans-54"/>
      </defs>
      <g transform="translate(244.514234 295.824289)scale(0.2 -0.2)">
       <use xlink:href="#DejaVuSans-48"/>
       <use x="63.623047" xlink:href="#DejaVuSans-46"/>
       <use x="95.410156" xlink:href="#DejaVuSans-54"/>
      </g>
     </g>
    </g>
    <g id="text_5">
     <!-- Max JS Divergence within $\epsilon$ -->
     <defs>
      <path d="M 9.8125 72.90625 
L 24.515625 72.90625 
L 43.109375 23.296875 
L 61.8125 72.90625 
L 76.515625 72.90625 
L 76.515625 0 
L 66.890625 0 
L 66.890625 64.015625 
L 48.09375 14.015625 
L 38.1875 14.015625 
L 19.390625 64.015625 
L 19.390625 0 
L 9.8125 0 
z
" id="DejaVuSans-77"/>
      <path d="M 34.28125 27.484375 
Q 23.390625 27.484375 19.1875 25 
Q 14.984375 22.515625 14.984375 16.5 
Q 14.984375 11.71875 18.140625 8.90625 
Q 21.296875 6.109375 26.703125 6.109375 
Q 34.1875 6.109375 38.703125 11.40625 
Q 43.21875 16.703125 43.21875 25.484375 
L 43.21875 27.484375 
z
M 52.203125 31.203125 
L 52.203125 0 
L 43.21875 0 
L 43.21875 8.296875 
Q 40.140625 3.328125 35.546875 0.953125 
Q 30.953125 -1.421875 24.3125 -1.421875 
Q 15.921875 -1.421875 10.953125 3.296875 
Q 6 8.015625 6 15.921875 
Q 6 25.140625 12.171875 29.828125 
Q 18.359375 34.515625 30.609375 34.515625 
L 43.21875 34.515625 
L 43.21875 35.40625 
Q 43.21875 41.609375 39.140625 45 
Q 35.0625 48.390625 27.6875 48.390625 
Q 23 48.390625 18.546875 47.265625 
Q 14.109375 46.140625 10.015625 43.890625 
L 10.015625 52.203125 
Q 14.9375 54.109375 19.578125 55.046875 
Q 24.21875 56 28.609375 56 
Q 40.484375 56 46.34375 49.84375 
Q 52.203125 43.703125 52.203125 31.203125 
z
" id="DejaVuSans-97"/>
      <path d="M 54.890625 54.6875 
L 35.109375 28.078125 
L 55.90625 0 
L 45.3125 0 
L 29.390625 21.484375 
L 13.484375 0 
L 2.875 0 
L 24.125 28.609375 
L 4.6875 54.6875 
L 15.28125 54.6875 
L 29.78125 35.203125 
L 44.28125 54.6875 
z
" id="DejaVuSans-120"/>
      <path id="DejaVuSans-32"/>
      <path d="M 9.8125 72.90625 
L 19.671875 72.90625 
L 19.671875 5.078125 
Q 19.671875 -8.109375 14.671875 -14.0625 
Q 9.671875 -20.015625 -1.421875 -20.015625 
L -5.171875 -20.015625 
L -5.171875 -11.71875 
L -2.09375 -11.71875 
Q 4.4375 -11.71875 7.125 -8.046875 
Q 9.8125 -4.390625 9.8125 5.078125 
z
" id="DejaVuSans-74"/>
      <path d="M 53.515625 70.515625 
L 53.515625 60.890625 
Q 47.90625 63.578125 42.921875 64.890625 
Q 37.9375 66.21875 33.296875 66.21875 
Q 25.25 66.21875 20.875 63.09375 
Q 16.5 59.96875 16.5 54.203125 
Q 16.5 49.359375 19.40625 46.890625 
Q 22.3125 44.4375 30.421875 42.921875 
L 36.375 41.703125 
Q 47.40625 39.59375 52.65625 34.296875 
Q 57.90625 29 57.90625 20.125 
Q 57.90625 9.515625 50.796875 4.046875 
Q 43.703125 -1.421875 29.984375 -1.421875 
Q 24.8125 -1.421875 18.96875 -0.25 
Q 13.140625 0.921875 6.890625 3.21875 
L 6.890625 13.375 
Q 12.890625 10.015625 18.65625 8.296875 
Q 24.421875 6.59375 29.984375 6.59375 
Q 38.421875 6.59375 43.015625 9.90625 
Q 47.609375 13.234375 47.609375 19.390625 
Q 47.609375 24.75 44.3125 27.78125 
Q 41.015625 30.8125 33.5 32.328125 
L 27.484375 33.5 
Q 16.453125 35.6875 11.515625 40.375 
Q 6.59375 45.0625 6.59375 53.421875 
Q 6.59375 63.09375 13.40625 68.65625 
Q 20.21875 74.21875 32.171875 74.21875 
Q 37.3125 74.21875 42.625 73.28125 
Q 47.953125 72.359375 53.515625 70.515625 
z
" id="DejaVuSans-83"/>
      <path d="M 19.671875 64.796875 
L 19.671875 8.109375 
L 31.59375 8.109375 
Q 46.6875 8.109375 53.6875 14.9375 
Q 60.6875 21.78125 60.6875 36.53125 
Q 60.6875 51.171875 53.6875 57.984375 
Q 46.6875 64.796875 31.59375 64.796875 
z
M 9.8125 72.90625 
L 30.078125 72.90625 
Q 51.265625 72.90625 61.171875 64.09375 
Q 71.09375 55.28125 71.09375 36.53125 
Q 71.09375 17.671875 61.125 8.828125 
Q 51.171875 0 30.078125 0 
L 9.8125 0 
z
" id="DejaVuSans-68"/>
      <path d="M 9.421875 54.6875 
L 18.40625 54.6875 
L 18.40625 0 
L 9.421875 0 
z
M 9.421875 75.984375 
L 18.40625 75.984375 
L 18.40625 64.59375 
L 9.421875 64.59375 
z
" id="DejaVuSans-105"/>
      <path d="M 2.984375 54.6875 
L 12.5 54.6875 
L 29.59375 8.796875 
L 46.6875 54.6875 
L 56.203125 54.6875 
L 35.6875 0 
L 23.484375 0 
z
" id="DejaVuSans-118"/>
      <path d="M 56.203125 29.59375 
L 56.203125 25.203125 
L 14.890625 25.203125 
Q 15.484375 15.921875 20.484375 11.0625 
Q 25.484375 6.203125 34.421875 6.203125 
Q 39.59375 6.203125 44.453125 7.46875 
Q 49.3125 8.734375 54.109375 11.28125 
L 54.109375 2.78125 
Q 49.265625 0.734375 44.1875 -0.34375 
Q 39.109375 -1.421875 33.890625 -1.421875 
Q 20.796875 -1.421875 13.15625 6.1875 
Q 5.515625 13.8125 5.515625 26.8125 
Q 5.515625 40.234375 12.765625 48.109375 
Q 20.015625 56 32.328125 56 
Q 43.359375 56 49.78125 48.890625 
Q 56.203125 41.796875 56.203125 29.59375 
z
M 47.21875 32.234375 
Q 47.125 39.59375 43.09375 43.984375 
Q 39.0625 48.390625 32.421875 48.390625 
Q 24.90625 48.390625 20.390625 44.140625 
Q 15.875 39.890625 15.1875 32.171875 
z
" id="DejaVuSans-101"/>
      <path d="M 41.109375 46.296875 
Q 39.59375 47.171875 37.8125 47.578125 
Q 36.03125 48 33.890625 48 
Q 26.265625 48 22.1875 43.046875 
Q 18.109375 38.09375 18.109375 28.8125 
L 18.109375 0 
L 9.078125 0 
L 9.078125 54.6875 
L 18.109375 54.6875 
L 18.109375 46.1875 
Q 20.953125 51.171875 25.484375 53.578125 
Q 30.03125 56 36.53125 56 
Q 37.453125 56 38.578125 55.875 
Q 39.703125 55.765625 41.0625 55.515625 
z
" id="DejaVuSans-114"/>
      <path d="M 45.40625 27.984375 
Q 45.40625 37.75 41.375 43.109375 
Q 37.359375 48.484375 30.078125 48.484375 
Q 22.859375 48.484375 18.828125 43.109375 
Q 14.796875 37.75 14.796875 27.984375 
Q 14.796875 18.265625 18.828125 12.890625 
Q 22.859375 7.515625 30.078125 7.515625 
Q 37.359375 7.515625 41.375 12.890625 
Q 45.40625 18.265625 45.40625 27.984375 
z
M 54.390625 6.78125 
Q 54.390625 -7.171875 48.1875 -13.984375 
Q 42 -20.796875 29.203125 -20.796875 
Q 24.46875 -20.796875 20.265625 -20.09375 
Q 16.0625 -19.390625 12.109375 -17.921875 
L 12.109375 -9.1875 
Q 16.0625 -11.328125 19.921875 -12.34375 
Q 23.78125 -13.375 27.78125 -13.375 
Q 36.625 -13.375 41.015625 -8.765625 
Q 45.40625 -4.15625 45.40625 5.171875 
L 45.40625 9.625 
Q 42.625 4.78125 38.28125 2.390625 
Q 33.9375 0 27.875 0 
Q 17.828125 0 11.671875 7.65625 
Q 5.515625 15.328125 5.515625 27.984375 
Q 5.515625 40.671875 11.671875 48.328125 
Q 17.828125 56 27.875 56 
Q 33.9375 56 38.28125 53.609375 
Q 42.625 51.21875 45.40625 46.390625 
L 45.40625 54.6875 
L 54.390625 54.6875 
z
" id="DejaVuSans-103"/>
      <path d="M 54.890625 33.015625 
L 54.890625 0 
L 45.90625 0 
L 45.90625 32.71875 
Q 45.90625 40.484375 42.875 44.328125 
Q 39.84375 48.1875 33.796875 48.1875 
Q 26.515625 48.1875 22.3125 43.546875 
Q 18.109375 38.921875 18.109375 30.90625 
L 18.109375 0 
L 9.078125 0 
L 9.078125 54.6875 
L 18.109375 54.6875 
L 18.109375 46.1875 
Q 21.34375 51.125 25.703125 53.5625 
Q 30.078125 56 35.796875 56 
Q 45.21875 56 50.046875 50.171875 
Q 54.890625 44.34375 54.890625 33.015625 
z
" id="DejaVuSans-110"/>
      <path d="M 48.78125 52.59375 
L 48.78125 44.1875 
Q 44.96875 46.296875 41.140625 47.34375 
Q 37.3125 48.390625 33.40625 48.390625 
Q 24.65625 48.390625 19.8125 42.84375 
Q 14.984375 37.3125 14.984375 27.296875 
Q 14.984375 17.28125 19.8125 11.734375 
Q 24.65625 6.203125 33.40625 6.203125 
Q 37.3125 6.203125 41.140625 7.25 
Q 44.96875 8.296875 48.78125 10.40625 
L 48.78125 2.09375 
Q 45.015625 0.34375 40.984375 -0.53125 
Q 36.96875 -1.421875 32.421875 -1.421875 
Q 20.0625 -1.421875 12.78125 6.34375 
Q 5.515625 14.109375 5.515625 27.296875 
Q 5.515625 40.671875 12.859375 48.328125 
Q 20.21875 56 33.015625 56 
Q 37.15625 56 41.109375 55.140625 
Q 45.0625 54.296875 48.78125 52.59375 
z
" id="DejaVuSans-99"/>
      <path d="M 4.203125 54.6875 
L 13.1875 54.6875 
L 24.421875 12.015625 
L 35.59375 54.6875 
L 46.1875 54.6875 
L 57.421875 12.015625 
L 68.609375 54.6875 
L 77.59375 54.6875 
L 63.28125 0 
L 52.6875 0 
L 40.921875 44.828125 
L 29.109375 0 
L 18.5 0 
z
" id="DejaVuSans-119"/>
      <path d="M 18.3125 70.21875 
L 18.3125 54.6875 
L 36.8125 54.6875 
L 36.8125 47.703125 
L 18.3125 47.703125 
L 18.3125 18.015625 
Q 18.3125 11.328125 20.140625 9.421875 
Q 21.96875 7.515625 27.59375 7.515625 
L 36.8125 7.515625 
L 36.8125 0 
L 27.59375 0 
Q 17.1875 0 13.234375 3.875 
Q 9.28125 7.765625 9.28125 18.015625 
L 9.28125 47.703125 
L 2.6875 47.703125 
L 2.6875 54.6875 
L 9.28125 54.6875 
L 9.28125 70.21875 
z
" id="DejaVuSans-116"/>
      <path d="M 54.890625 33.015625 
L 54.890625 0 
L 45.90625 0 
L 45.90625 32.71875 
Q 45.90625 40.484375 42.875 44.328125 
Q 39.84375 48.1875 33.796875 48.1875 
Q 26.515625 48.1875 22.3125 43.546875 
Q 18.109375 38.921875 18.109375 30.90625 
L 18.109375 0 
L 9.078125 0 
L 9.078125 75.984375 
L 18.109375 75.984375 
L 18.109375 46.1875 
Q 21.34375 51.125 25.703125 53.5625 
Q 30.078125 56 35.796875 56 
Q 45.21875 56 50.046875 50.171875 
Q 54.890625 44.34375 54.890625 33.015625 
z
" id="DejaVuSans-104"/>
      <path d="M 19.734375 29.5 
Q 14.453125 30.671875 12.15625 33.84375 
Q 10.453125 36.078125 10.453125 39.109375 
Q 10.453125 47.40625 18.359375 52.25 
Q 24.609375 56.0625 34.1875 56.0625 
Q 37.890625 56.0625 41.9375 55.46875 
Q 46 54.890625 50.53125 53.71875 
L 48.96875 45.5625 
Q 44.484375 46.96875 40.71875 47.609375 
Q 36.859375 48.25 33.40625 48.25 
Q 27.59375 48.25 23.78125 46 
Q 19.1875 43.3125 19.1875 39.40625 
Q 19.1875 36.8125 21.578125 35.015625 
Q 24.421875 32.859375 30.078125 32.859375 
L 37.640625 32.859375 
L 36.234375 25.4375 
L 29 25.4375 
Q 22.265625 25.4375 18.3125 22.953125 
Q 12.9375 19.578125 12.9375 14.3125 
Q 12.9375 10.984375 15.828125 8.796875 
Q 19.4375 6.0625 26.8125 6.0625 
Q 31.34375 6.0625 35.6875 6.9375 
Q 40.046875 7.859375 43.84375 9.671875 
L 42.1875 1.3125 
Q 37.546875 -0.046875 33.296875 -0.734375 
Q 29.046875 -1.421875 25.140625 -1.421875 
Q 13.53125 -1.421875 8.0625 3.03125 
Q 3.90625 6.453125 3.90625 12.203125 
Q 3.90625 19.96875 9.375 24.75 
Q 13.421875 28.328125 19.734375 29.5 
z
" id="DejaVuSans-Oblique-949"/>
     </defs>
     <g transform="translate(40.676667 319.183664)scale(0.2 -0.2)">
      <use transform="translate(0 0.015625)" xlink:href="#DejaVuSans-77"/>
      <use transform="translate(86.279297 0.015625)" xlink:href="#DejaVuSans-97"/>
      <use transform="translate(147.558594 0.015625)" xlink:href="#DejaVuSans-120"/>
      <use transform="translate(206.738281 0.015625)" xlink:href="#DejaVuSans-32"/>
      <use transform="translate(238.525391 0.015625)" xlink:href="#DejaVuSans-74"/>
      <use transform="translate(268.017578 0.015625)" xlink:href="#DejaVuSans-83"/>
      <use transform="translate(331.494141 0.015625)" xlink:href="#DejaVuSans-32"/>
      <use transform="translate(363.28125 0.015625)" xlink:href="#DejaVuSans-68"/>
      <use transform="translate(440.283203 0.015625)" xlink:href="#DejaVuSans-105"/>
      <use transform="translate(468.066406 0.015625)" xlink:href="#DejaVuSans-118"/>
      <use transform="translate(527.246094 0.015625)" xlink:href="#DejaVuSans-101"/>
      <use transform="translate(588.769531 0.015625)" xlink:href="#DejaVuSans-114"/>
      <use transform="translate(629.882812 0.015625)" xlink:href="#DejaVuSans-103"/>
      <use transform="translate(693.359375 0.015625)" xlink:href="#DejaVuSans-101"/>
      <use transform="translate(754.882812 0.015625)" xlink:href="#DejaVuSans-110"/>
      <use transform="translate(818.261719 0.015625)" xlink:href="#DejaVuSans-99"/>
      <use transform="translate(873.242188 0.015625)" xlink:href="#DejaVuSans-101"/>
      <use transform="translate(934.765625 0.015625)" xlink:href="#DejaVuSans-32"/>
      <use transform="translate(966.552734 0.015625)" xlink:href="#DejaVuSans-119"/>
      <use transform="translate(1048.339844 0.015625)" xlink:href="#DejaVuSans-105"/>
      <use transform="translate(1076.123047 0.015625)" xlink:href="#DejaVuSans-116"/>
      <use transform="translate(1115.332031 0.015625)" xlink:href="#DejaVuSans-104"/>
      <use transform="translate(1178.710938 0.015625)" xlink:href="#DejaVuSans-105"/>
      <use transform="translate(1206.494141 0.015625)" xlink:href="#DejaVuSans-110"/>
      <use transform="translate(1269.873047 0.015625)" xlink:href="#DejaVuSans-32"/>
      <use transform="translate(1301.660156 0.015625)" xlink:href="#DejaVuSans-Oblique-949"/>
     </g>
    </g>
   </g>
   <g id="matplotlib.axis_2">
    <g id="ytick_1">
     <g id="line2d_5">
      <defs>
       <path d="M 0 0 
L -3.5 0 
" id="m45ae2fcd1e" style="stroke:#000000;stroke-width:1.6;"/>
      </defs>
      <g>
       <use style="stroke:#000000;stroke-width:1.6;" x="46.7" xlink:href="#m45ae2fcd1e" y="265.927414"/>
      </g>
     </g>
     <g id="text_6">
      <!-- 0.0 -->
      <g transform="translate(0.19375 273.525851)scale(0.2 -0.2)">
       <use xlink:href="#DejaVuSans-48"/>
       <use x="63.623047" xlink:href="#DejaVuSans-46"/>
       <use x="95.410156" xlink:href="#DejaVuSans-48"/>
      </g>
     </g>
    </g>
    <g id="ytick_2">
     <g id="line2d_6">
      <g>
       <use style="stroke:#000000;stroke-width:1.6;" x="46.7" xlink:href="#m45ae2fcd1e" y="201.32056"/>
      </g>
     </g>
     <g id="text_7">
      <!-- 0.1 -->
      <defs>
       <path d="M 12.40625 8.296875 
L 28.515625 8.296875 
L 28.515625 63.921875 
L 10.984375 60.40625 
L 10.984375 69.390625 
L 28.421875 72.90625 
L 38.28125 72.90625 
L 38.28125 8.296875 
L 54.390625 8.296875 
L 54.390625 0 
L 12.40625 0 
z
" id="DejaVuSans-49"/>
      </defs>
      <g transform="translate(0.19375 208.918998)scale(0.2 -0.2)">
       <use xlink:href="#DejaVuSans-48"/>
       <use x="63.623047" xlink:href="#DejaVuSans-46"/>
       <use x="95.410156" xlink:href="#DejaVuSans-49"/>
      </g>
     </g>
    </g>
    <g id="ytick_3">
     <g id="line2d_7">
      <g>
       <use style="stroke:#000000;stroke-width:1.6;" x="46.7" xlink:href="#m45ae2fcd1e" y="136.713707"/>
      </g>
     </g>
     <g id="text_8">
      <!-- 0.2 -->
      <g transform="translate(0.19375 144.312144)scale(0.2 -0.2)">
       <use xlink:href="#DejaVuSans-48"/>
       <use x="63.623047" xlink:href="#DejaVuSans-46"/>
       <use x="95.410156" xlink:href="#DejaVuSans-50"/>
      </g>
     </g>
    </g>
    <g id="ytick_4">
     <g id="line2d_8">
      <g>
       <use style="stroke:#000000;stroke-width:1.6;" x="46.7" xlink:href="#m45ae2fcd1e" y="72.106853"/>
      </g>
     </g>
     <g id="text_9">
      <!-- 0.3 -->
      <defs>
       <path d="M 40.578125 39.3125 
Q 47.65625 37.796875 51.625 33 
Q 55.609375 28.21875 55.609375 21.1875 
Q 55.609375 10.40625 48.1875 4.484375 
Q 40.765625 -1.421875 27.09375 -1.421875 
Q 22.515625 -1.421875 17.65625 -0.515625 
Q 12.796875 0.390625 7.625 2.203125 
L 7.625 11.71875 
Q 11.71875 9.328125 16.59375 8.109375 
Q 21.484375 6.890625 26.8125 6.890625 
Q 36.078125 6.890625 40.9375 10.546875 
Q 45.796875 14.203125 45.796875 21.1875 
Q 45.796875 27.640625 41.28125 31.265625 
Q 36.765625 34.90625 28.71875 34.90625 
L 20.21875 34.90625 
L 20.21875 43.015625 
L 29.109375 43.015625 
Q 36.375 43.015625 40.234375 45.921875 
Q 44.09375 48.828125 44.09375 54.296875 
Q 44.09375 59.90625 40.109375 62.90625 
Q 36.140625 65.921875 28.71875 65.921875 
Q 24.65625 65.921875 20.015625 65.03125 
Q 15.375 64.15625 9.8125 62.3125 
L 9.8125 71.09375 
Q 15.4375 72.65625 20.34375 73.4375 
Q 25.25 74.21875 29.59375 74.21875 
Q 40.828125 74.21875 47.359375 69.109375 
Q 53.90625 64.015625 53.90625 55.328125 
Q 53.90625 49.265625 50.4375 45.09375 
Q 46.96875 40.921875 40.578125 39.3125 
z
" id="DejaVuSans-51"/>
      </defs>
      <g transform="translate(0.19375 79.705291)scale(0.2 -0.2)">
       <use xlink:href="#DejaVuSans-48"/>
       <use x="63.623047" xlink:href="#DejaVuSans-46"/>
       <use x="95.410156" xlink:href="#DejaVuSans-51"/>
      </g>
     </g>
    </g>
    <g id="ytick_5">
     <g id="line2d_9">
      <g>
       <use style="stroke:#000000;stroke-width:1.6;" x="46.7" xlink:href="#m45ae2fcd1e" y="7.5"/>
      </g>
     </g>
     <g id="text_10">
      <!-- 0.4 -->
      <g transform="translate(0.19375 15.098437)scale(0.2 -0.2)">
       <use xlink:href="#DejaVuSans-48"/>
       <use x="63.623047" xlink:href="#DejaVuSans-46"/>
       <use x="95.410156" xlink:href="#DejaVuSans-52"/>
      </g>
     </g>
    </g>
   </g>
   <g id="patch_83">
    <path d="M 46.7 265.927414 
L 46.7 6.77408 
" style="fill:none;stroke:#000000;stroke-linecap:square;stroke-linejoin:miter;stroke-width:0.8;"/>
   </g>
   <g id="patch_84">
    <path d="M 46.7 265.927414 
L 305.853333 265.927414 
" style="fill:none;stroke:#000000;stroke-linecap:square;stroke-linejoin:miter;stroke-width:0.8;"/>
   </g>
  </g>
  <g id="axes_2">
   <g id="patch_85">
    <path d="M 417.213333 265.927414 
L 676.366667 265.927414 
L 676.366667 6.77408 
L 417.213333 6.77408 
z
" style="fill:#ffffff;"/>
   </g>
   <g id="PolyCollection_1">
    <defs>
     <path d="M 605.863262 -299.858741 
L 605.863262 -300.974925 
L 606.546322 -301.064237 
L 607.229383 -301.164354 
L 607.912444 -301.276057 
L 608.595504 -301.400078 
L 609.278565 -301.537074 
L 609.961626 -301.687588 
L 610.644686 -301.852013 
L 611.327747 -302.030556 
L 612.010808 -302.223193 
L 612.693868 -302.429639 
L 613.376929 -302.649314 
L 614.05999 -302.881322 
L 614.74305 -303.124435 
L 615.426111 -303.377095 
L 616.109172 -303.637426 
L 616.792232 -303.903262 
L 617.475293 -304.172191 
L 618.158354 -304.441607 
L 618.841414 -304.708776 
L 619.524475 -304.970907 
L 620.207535 -305.225222 
L 620.890596 -305.469031 
L 621.573657 -305.699788 
L 622.256717 -305.915147 
L 622.939778 -306.112998 
L 623.622839 -306.291497 
L 624.305899 -306.449076 
L 624.98896 -306.584448 
L 625.672021 -306.696605 
L 626.355081 -306.784807 
L 627.038142 -306.848577 
L 627.721203 -306.887697 
L 628.404263 -306.902201 
L 629.087324 -306.89238 
L 629.770385 -306.858779 
L 630.453445 -306.802202 
L 631.136506 -306.723709 
L 631.819567 -306.624609 
L 632.502627 -306.506445 
L 633.185688 -306.370971 
L 633.868749 -306.220122 
L 634.551809 -306.055981 
L 635.23487 -305.880729 
L 635.917931 -305.696605 
L 636.600991 -305.505859 
L 637.284052 -305.310707 
L 637.967113 -305.113291 
L 638.650173 -304.915638 
L 639.333234 -304.71963 
L 640.016295 -304.526977 
L 640.699355 -304.339196 
L 641.382416 -304.157597 
L 642.065476 -303.983278 
L 642.748537 -303.81713 
L 643.431598 -303.659851 
L 644.114658 -303.511967 
L 644.797719 -303.373872 
L 645.48078 -303.245873 
L 646.16384 -303.128249 
L 646.846901 -303.021318 
L 647.529962 -302.925512 
L 648.213022 -302.841462 
L 648.896083 -302.770088 
L 649.579144 -302.712683 
L 650.262204 -302.671006 
L 650.945265 -302.647358 
L 651.628326 -302.644646 
L 652.311386 -302.666429 
L 652.994447 -302.716918 
L 653.677508 -302.80094 
L 654.360568 -302.923832 
L 655.043629 -303.091272 
L 655.72669 -303.309029 
L 656.40975 -303.58262 
L 657.092811 -303.916902 
L 657.775872 -304.315586 
L 658.458932 -304.780716 
L 659.141993 -305.312133 
L 659.825054 -305.906982 
L 660.508114 -306.559296 
L 661.191175 -307.25972 
L 661.874236 -307.995422 
L 662.557296 -308.750228 
L 663.240357 -309.505009 
L 663.923418 -310.238321 
L 664.606478 -310.927279 
L 665.289539 -311.548635 
L 665.972599 -312.079967 
L 666.65566 -312.500922 
L 667.338721 -312.794404 
L 668.021781 -312.947615 
L 668.704842 -312.952859 
L 669.387903 -312.808044 
L 670.070963 -312.516829 
L 670.754024 -312.088409 
L 671.437085 -311.53696 
L 672.120145 -310.880775 
L 672.803206 -310.141184 
L 673.486267 -309.341339 
L 673.486267 -291.492328 
L 673.486267 -291.492328 
L 672.803206 -290.692483 
L 672.120145 -289.952892 
L 671.437085 -289.296706 
L 670.754024 -288.745257 
L 670.070963 -288.316838 
L 669.387903 -288.025623 
L 668.704842 -287.880808 
L 668.021781 -287.886052 
L 667.338721 -288.039263 
L 666.65566 -288.332745 
L 665.972599 -288.753699 
L 665.289539 -289.285031 
L 664.606478 -289.906387 
L 663.923418 -290.595346 
L 663.240357 -291.328657 
L 662.557296 -292.083438 
L 661.874236 -292.838245 
L 661.191175 -293.573947 
L 660.508114 -294.27437 
L 659.825054 -294.926684 
L 659.141993 -295.521534 
L 658.458932 -296.052951 
L 657.775872 -296.518081 
L 657.092811 -296.916765 
L 656.40975 -297.251047 
L 655.72669 -297.524638 
L 655.043629 -297.742394 
L 654.360568 -297.909835 
L 653.677508 -298.032727 
L 652.994447 -298.116748 
L 652.311386 -298.167238 
L 651.628326 -298.189021 
L 650.945265 -298.186309 
L 650.262204 -298.16266 
L 649.579144 -298.120983 
L 648.896083 -298.063579 
L 648.213022 -297.992204 
L 647.529962 -297.908155 
L 646.846901 -297.812349 
L 646.16384 -297.705417 
L 645.48078 -297.587793 
L 644.797719 -297.459795 
L 644.114658 -297.3217 
L 643.431598 -297.173816 
L 642.748537 -297.016536 
L 642.065476 -296.850389 
L 641.382416 -296.67607 
L 640.699355 -296.494471 
L 640.016295 -296.30669 
L 639.333234 -296.114037 
L 638.650173 -295.918029 
L 637.967113 -295.720376 
L 637.284052 -295.522959 
L 636.600991 -295.327808 
L 635.917931 -295.137062 
L 635.23487 -294.952938 
L 634.551809 -294.777686 
L 633.868749 -294.613544 
L 633.185688 -294.462696 
L 632.502627 -294.327222 
L 631.819567 -294.209057 
L 631.136506 -294.109957 
L 630.453445 -294.031465 
L 629.770385 -293.974888 
L 629.087324 -293.941287 
L 628.404263 -293.931466 
L 627.721203 -293.94597 
L 627.038142 -293.98509 
L 626.355081 -294.04886 
L 625.672021 -294.137062 
L 624.98896 -294.249218 
L 624.305899 -294.384591 
L 623.622839 -294.54217 
L 622.939778 -294.720669 
L 622.256717 -294.91852 
L 621.573657 -295.133878 
L 620.890596 -295.364635 
L 620.207535 -295.608444 
L 619.524475 -295.86276 
L 618.841414 -296.12489 
L 618.158354 -296.392059 
L 617.475293 -296.661475 
L 616.792232 -296.930404 
L 616.109172 -297.196241 
L 615.426111 -297.456572 
L 614.74305 -297.709231 
L 614.05999 -297.952345 
L 613.376929 -298.184353 
L 612.693868 -298.404028 
L 612.010808 -298.610474 
L 611.327747 -298.803111 
L 610.644686 -298.981653 
L 609.961626 -299.146079 
L 609.278565 -299.296592 
L 608.595504 -299.433588 
L 607.912444 -299.55761 
L 607.229383 -299.669312 
L 606.546322 -299.76943 
L 605.863262 -299.858741 
z
" id="m01c03d7717" style="stroke:#424242;"/>
    </defs>
    <g clip-path="url(#p5494212e67)">
     <use style="fill:#7c78ab;stroke:#424242;" x="0" xlink:href="#m01c03d7717" y="326.627414"/>
    </g>
   </g>
   <g id="PolyCollection_2">
    <defs>
     <path d="M 605.803917 -273.003453 
L 605.803917 -275.999547 
L 606.48226 -276.258452 
L 607.160604 -276.545691 
L 607.838947 -276.862765 
L 608.51729 -277.211229 
L 609.195633 -277.592595 
L 609.873976 -278.008173 
L 610.552319 -278.458863 
L 611.230662 -278.944895 
L 611.909005 -279.465574 
L 612.587348 -280.019015 
L 613.265691 -280.601943 
L 613.944034 -281.209562 
L 614.622377 -281.835515 
L 615.30072 -282.471975 
L 615.979063 -283.109837 
L 616.657406 -283.739024 
L 617.335749 -284.348876 
L 618.014093 -284.928591 
L 618.692436 -285.467681 
L 619.370779 -285.956409 
L 620.049122 -286.386174 
L 620.727465 -286.749811 
L 621.405808 -287.041803 
L 622.084151 -287.25839 
L 622.762494 -287.397595 
L 623.440837 -287.459167 
L 624.11918 -287.444469 
L 624.797523 -287.35633 
L 625.475866 -287.198867 
L 626.154209 -286.977306 
L 626.832552 -286.697786 
L 627.510895 -286.367177 
L 628.189239 -285.992878 
L 628.867582 -285.582627 
L 629.545925 -285.144298 
L 630.224268 -284.685702 
L 630.902611 -284.214396 
L 631.580954 -283.737497 
L 632.259297 -283.261523 
L 632.93764 -282.792258 
L 633.615983 -282.334652 
L 634.294326 -281.892761 
L 634.972669 -281.469713 
L 635.651012 -281.067725 
L 636.329355 -280.688136 
L 637.007698 -280.331473 
L 637.686041 -279.99754 
L 638.364385 -279.685522 
L 639.042728 -279.394096 
L 639.721071 -279.121559 
L 640.399414 -278.86595 
L 641.077757 -278.625176 
L 641.7561 -278.397129 
L 642.434443 -278.179793 
L 643.112786 -277.971347 
L 643.791129 -277.770248 
L 644.469472 -277.575306 
L 645.147815 -277.385737 
L 645.826158 -277.201212 
L 646.504501 -277.021872 
L 647.182844 -276.848338 
L 647.861187 -276.681687 
L 648.53953 -276.523408 
L 649.217874 -276.375338 
L 649.896217 -276.239576 
L 650.57456 -276.118384 
L 651.252903 -276.014085 
L 651.931246 -275.928964 
L 652.609589 -275.865178 
L 653.287932 -275.824688 
L 653.966275 -275.809204 
L 654.644618 -275.820155 
L 655.322961 -275.858659 
L 656.001304 -275.925504 
L 656.679647 -276.021112 
L 657.35799 -276.145481 
L 658.036333 -276.298096 
L 658.714676 -276.477807 
L 659.39302 -276.682673 
L 660.071363 -276.909791 
L 660.749706 -277.155132 
L 661.428049 -277.413419 
L 662.106392 -277.678065 
L 662.784735 -277.941231 
L 663.463078 -278.194005 
L 664.141421 -278.426733 
L 664.819764 -278.629484 
L 665.498107 -278.792636 
L 666.17645 -278.907523 
L 666.854793 -278.967089 
L 667.533136 -278.966485 
L 668.211479 -278.903516 
L 668.889822 -278.778916 
L 669.568166 -278.596367 
L 670.246509 -278.3623 
L 670.924852 -278.085447 
L 671.603195 -277.776232 
L 672.281538 -277.446024 
L 672.959881 -277.106374 
L 672.959881 -271.896626 
L 672.959881 -271.896626 
L 672.281538 -271.556976 
L 671.603195 -271.226768 
L 670.924852 -270.917553 
L 670.246509 -270.6407 
L 669.568166 -270.406633 
L 668.889822 -270.224084 
L 668.211479 -270.099484 
L 667.533136 -270.036515 
L 666.854793 -270.035911 
L 666.17645 -270.095477 
L 665.498107 -270.210364 
L 664.819764 -270.373516 
L 664.141421 -270.576267 
L 663.463078 -270.808995 
L 662.784735 -271.061769 
L 662.106392 -271.324935 
L 661.428049 -271.589581 
L 660.749706 -271.847868 
L 660.071363 -272.093209 
L 659.39302 -272.320327 
L 658.714676 -272.525193 
L 658.036333 -272.704904 
L 657.35799 -272.857519 
L 656.679647 -272.981888 
L 656.001304 -273.077496 
L 655.322961 -273.144341 
L 654.644618 -273.182845 
L 653.966275 -273.193796 
L 653.287932 -273.178312 
L 652.609589 -273.137822 
L 651.931246 -273.074036 
L 651.252903 -272.988915 
L 650.57456 -272.884616 
L 649.896217 -272.763424 
L 649.217874 -272.627662 
L 648.53953 -272.479592 
L 647.861187 -272.321313 
L 647.182844 -272.154662 
L 646.504501 -271.981128 
L 645.826158 -271.801788 
L 645.147815 -271.617263 
L 644.469472 -271.427694 
L 643.791129 -271.232752 
L 643.112786 -271.031653 
L 642.434443 -270.823207 
L 641.7561 -270.605871 
L 641.077757 -270.377824 
L 640.399414 -270.13705 
L 639.721071 -269.881441 
L 639.042728 -269.608904 
L 638.364385 -269.317478 
L 637.686041 -269.00546 
L 637.007698 -268.671527 
L 636.329355 -268.314864 
L 635.651012 -267.935275 
L 634.972669 -267.533287 
L 634.294326 -267.110239 
L 633.615983 -266.668348 
L 632.93764 -266.210742 
L 632.259297 -265.741477 
L 631.580954 -265.265503 
L 630.902611 -264.788604 
L 630.224268 -264.317298 
L 629.545925 -263.858702 
L 628.867582 -263.420373 
L 628.189239 -263.010122 
L 627.510895 -262.635823 
L 626.832552 -262.305214 
L 626.154209 -262.025694 
L 625.475866 -261.804133 
L 624.797523 -261.64667 
L 624.11918 -261.558531 
L 623.440837 -261.543833 
L 622.762494 -261.605405 
L 622.084151 -261.74461 
L 621.405808 -261.961197 
L 620.727465 -262.253189 
L 620.049122 -262.616826 
L 619.370779 -263.046591 
L 618.692436 -263.535319 
L 618.014093 -264.074409 
L 617.335749 -264.654124 
L 616.657406 -265.263976 
L 615.979063 -265.893163 
L 615.30072 -266.531025 
L 614.622377 -267.167485 
L 613.944034 -267.793438 
L 613.265691 -268.401057 
L 612.587348 -268.983985 
L 611.909005 -269.537426 
L 611.230662 -270.058105 
L 610.552319 -270.544137 
L 609.873976 -270.994827 
L 609.195633 -271.410405 
L 608.51729 -271.791771 
L 607.838947 -272.140235 
L 607.160604 -272.457309 
L 606.48226 -272.744548 
L 605.803917 -273.003453 
z
" id="mcce9c49a61" style="stroke:#424242;"/>
    </defs>
    <g clip-path="url(#p5494212e67)">
     <use style="fill:#be631d;stroke:#424242;" x="0" xlink:href="#mcce9c49a61" y="326.627414"/>
    </g>
   </g>
   <g id="patch_86">
    <path clip-path="url(#p5494212e67)" d="M 434.490222 39.168247 
L 434.490222 39.168247 
L 434.490222 39.168247 
L 434.490222 39.168247 
z
" style="fill:#7c78ab;stroke:#424242;stroke-linejoin:miter;stroke-width:0.5;"/>
   </g>
   <g id="patch_87">
    <path clip-path="url(#p5494212e67)" d="M 434.490222 39.168247 
L 434.490222 39.168247 
L 434.490222 39.168247 
L 434.490222 39.168247 
z
" style="fill:#be631d;stroke:#424242;stroke-linejoin:miter;stroke-width:0.5;"/>
   </g>
   <g id="matplotlib.axis_3">
    <g id="xtick_5">
     <g id="line2d_10">
      <g>
       <use style="stroke:#000000;stroke-width:1.6;" x="434.490222" xlink:href="#m8efbec0cb7" y="265.927414"/>
      </g>
     </g>
     <g id="text_11">
      <!-- 0.0 -->
      <g transform="translate(418.587097 295.824289)scale(0.2 -0.2)">
       <use xlink:href="#DejaVuSans-48"/>
       <use x="63.623047" xlink:href="#DejaVuSans-46"/>
       <use x="95.410156" xlink:href="#DejaVuSans-48"/>
      </g>
     </g>
    </g>
    <g id="xtick_6">
     <g id="line2d_11">
      <g>
       <use style="stroke:#000000;stroke-width:1.6;" x="503.597778" xlink:href="#m8efbec0cb7" y="265.927414"/>
      </g>
     </g>
     <g id="text_12">
      <!-- 0.2 -->
      <g transform="translate(487.694653 295.824289)scale(0.2 -0.2)">
       <use xlink:href="#DejaVuSans-48"/>
       <use x="63.623047" xlink:href="#DejaVuSans-46"/>
       <use x="95.410156" xlink:href="#DejaVuSans-50"/>
      </g>
     </g>
    </g>
    <g id="xtick_7">
     <g id="line2d_12">
      <g>
       <use style="stroke:#000000;stroke-width:1.6;" x="572.705333" xlink:href="#m8efbec0cb7" y="265.927414"/>
      </g>
     </g>
     <g id="text_13">
      <!-- 0.4 -->
      <g transform="translate(556.802208 295.824289)scale(0.2 -0.2)">
       <use xlink:href="#DejaVuSans-48"/>
       <use x="63.623047" xlink:href="#DejaVuSans-46"/>
       <use x="95.410156" xlink:href="#DejaVuSans-52"/>
      </g>
     </g>
    </g>
    <g id="xtick_8">
     <g id="line2d_13">
      <g>
       <use style="stroke:#000000;stroke-width:1.6;" x="641.812889" xlink:href="#m8efbec0cb7" y="265.927414"/>
      </g>
     </g>
     <g id="text_14">
      <!-- 0.6 -->
      <g transform="translate(625.909764 295.824289)scale(0.2 -0.2)">
       <use xlink:href="#DejaVuSans-48"/>
       <use x="63.623047" xlink:href="#DejaVuSans-46"/>
       <use x="95.410156" xlink:href="#DejaVuSans-54"/>
      </g>
     </g>
    </g>
    <g id="text_15">
     <!-- Max JS Divergence within $\epsilon$ -->
     <g transform="translate(411.19 319.183664)scale(0.2 -0.2)">
      <use transform="translate(0 0.015625)" xlink:href="#DejaVuSans-77"/>
      <use transform="translate(86.279297 0.015625)" xlink:href="#DejaVuSans-97"/>
      <use transform="translate(147.558594 0.015625)" xlink:href="#DejaVuSans-120"/>
      <use transform="translate(206.738281 0.015625)" xlink:href="#DejaVuSans-32"/>
      <use transform="translate(238.525391 0.015625)" xlink:href="#DejaVuSans-74"/>
      <use transform="translate(268.017578 0.015625)" xlink:href="#DejaVuSans-83"/>
      <use transform="translate(331.494141 0.015625)" xlink:href="#DejaVuSans-32"/>
      <use transform="translate(363.28125 0.015625)" xlink:href="#DejaVuSans-68"/>
      <use transform="translate(440.283203 0.015625)" xlink:href="#DejaVuSans-105"/>
      <use transform="translate(468.066406 0.015625)" xlink:href="#DejaVuSans-118"/>
      <use transform="translate(527.246094 0.015625)" xlink:href="#DejaVuSans-101"/>
      <use transform="translate(588.769531 0.015625)" xlink:href="#DejaVuSans-114"/>
      <use transform="translate(629.882812 0.015625)" xlink:href="#DejaVuSans-103"/>
      <use transform="translate(693.359375 0.015625)" xlink:href="#DejaVuSans-101"/>
      <use transform="translate(754.882812 0.015625)" xlink:href="#DejaVuSans-110"/>
      <use transform="translate(818.261719 0.015625)" xlink:href="#DejaVuSans-99"/>
      <use transform="translate(873.242188 0.015625)" xlink:href="#DejaVuSans-101"/>
      <use transform="translate(934.765625 0.015625)" xlink:href="#DejaVuSans-32"/>
      <use transform="translate(966.552734 0.015625)" xlink:href="#DejaVuSans-119"/>
      <use transform="translate(1048.339844 0.015625)" xlink:href="#DejaVuSans-105"/>
      <use transform="translate(1076.123047 0.015625)" xlink:href="#DejaVuSans-116"/>
      <use transform="translate(1115.332031 0.015625)" xlink:href="#DejaVuSans-104"/>
      <use transform="translate(1178.710938 0.015625)" xlink:href="#DejaVuSans-105"/>
      <use transform="translate(1206.494141 0.015625)" xlink:href="#DejaVuSans-110"/>
      <use transform="translate(1269.873047 0.015625)" xlink:href="#DejaVuSans-32"/>
      <use transform="translate(1301.660156 0.015625)" xlink:href="#DejaVuSans-Oblique-949"/>
     </g>
    </g>
   </g>
   <g id="matplotlib.axis_4">
    <g id="ytick_6">
     <g id="line2d_14">
      <g>
       <use style="stroke:#000000;stroke-width:1.6;" x="417.213333" xlink:href="#m45ae2fcd1e" y="39.168247"/>
      </g>
     </g>
     <g id="text_16">
      <!-- [0.00, -->
      <defs>
       <path d="M 8.59375 75.984375 
L 29.296875 75.984375 
L 29.296875 69 
L 17.578125 69 
L 17.578125 -6.203125 
L 29.296875 -6.203125 
L 29.296875 -13.1875 
L 8.59375 -13.1875 
z
" id="DejaVuSans-91"/>
       <path d="M 11.71875 12.40625 
L 22.015625 12.40625 
L 22.015625 4 
L 14.015625 -11.625 
L 7.71875 -11.625 
L 11.71875 4 
z
" id="DejaVuSans-44"/>
      </defs>
      <g transform="translate(343.822708 35.568872)scale(0.2 -0.2)">
       <use xlink:href="#DejaVuSans-91"/>
       <use x="39.013672" xlink:href="#DejaVuSans-48"/>
       <use x="102.636719" xlink:href="#DejaVuSans-46"/>
       <use x="134.423828" xlink:href="#DejaVuSans-48"/>
       <use x="198.046875" xlink:href="#DejaVuSans-48"/>
       <use x="261.669922" xlink:href="#DejaVuSans-44"/>
      </g>
      <!-- 0.25) -->
      <defs>
       <path d="M 10.796875 72.90625 
L 49.515625 72.90625 
L 49.515625 64.59375 
L 19.828125 64.59375 
L 19.828125 46.734375 
Q 21.96875 47.46875 24.109375 47.828125 
Q 26.265625 48.1875 28.421875 48.1875 
Q 40.625 48.1875 47.75 41.5 
Q 54.890625 34.8125 54.890625 23.390625 
Q 54.890625 11.625 47.5625 5.09375 
Q 40.234375 -1.421875 26.90625 -1.421875 
Q 22.3125 -1.421875 17.546875 -0.640625 
Q 12.796875 0.140625 7.71875 1.703125 
L 7.71875 11.625 
Q 12.109375 9.234375 16.796875 8.0625 
Q 21.484375 6.890625 26.703125 6.890625 
Q 35.15625 6.890625 40.078125 11.328125 
Q 45.015625 15.765625 45.015625 23.390625 
Q 45.015625 31 40.078125 35.4375 
Q 35.15625 39.890625 26.703125 39.890625 
Q 22.75 39.890625 18.8125 39.015625 
Q 14.890625 38.140625 10.796875 36.28125 
z
" id="DejaVuSans-53"/>
       <path d="M 8.015625 75.875 
L 15.828125 75.875 
Q 23.140625 64.359375 26.78125 53.3125 
Q 30.421875 42.28125 30.421875 31.390625 
Q 30.421875 20.453125 26.78125 9.375 
Q 23.140625 -1.703125 15.828125 -13.1875 
L 8.015625 -13.1875 
Q 14.5 -2 17.703125 9.0625 
Q 20.90625 20.125 20.90625 31.390625 
Q 20.90625 42.671875 17.703125 53.65625 
Q 14.5 64.65625 8.015625 75.875 
z
" id="DejaVuSans-41"/>
      </defs>
      <g transform="translate(350.178958 57.964497)scale(0.2 -0.2)">
       <use xlink:href="#DejaVuSans-48"/>
       <use x="63.623047" xlink:href="#DejaVuSans-46"/>
       <use x="95.410156" xlink:href="#DejaVuSans-50"/>
       <use x="159.033203" xlink:href="#DejaVuSans-53"/>
       <use x="222.65625" xlink:href="#DejaVuSans-41"/>
      </g>
     </g>
    </g>
    <g id="ytick_7">
     <g id="line2d_15">
      <g>
       <use style="stroke:#000000;stroke-width:1.6;" x="417.213333" xlink:href="#m45ae2fcd1e" y="103.95658"/>
      </g>
     </g>
     <g id="text_17">
      <!-- [0.25, -->
      <g transform="translate(343.822708 100.357205)scale(0.2 -0.2)">
       <use xlink:href="#DejaVuSans-91"/>
       <use x="39.013672" xlink:href="#DejaVuSans-48"/>
       <use x="102.636719" xlink:href="#DejaVuSans-46"/>
       <use x="134.423828" xlink:href="#DejaVuSans-50"/>
       <use x="198.046875" xlink:href="#DejaVuSans-53"/>
       <use x="261.669922" xlink:href="#DejaVuSans-44"/>
      </g>
      <!-- 0.50) -->
      <g transform="translate(350.178958 122.75283)scale(0.2 -0.2)">
       <use xlink:href="#DejaVuSans-48"/>
       <use x="63.623047" xlink:href="#DejaVuSans-46"/>
       <use x="95.410156" xlink:href="#DejaVuSans-53"/>
       <use x="159.033203" xlink:href="#DejaVuSans-48"/>
       <use x="222.65625" xlink:href="#DejaVuSans-41"/>
      </g>
     </g>
    </g>
    <g id="ytick_8">
     <g id="line2d_16">
      <g>
       <use style="stroke:#000000;stroke-width:1.6;" x="417.213333" xlink:href="#m45ae2fcd1e" y="168.744914"/>
      </g>
     </g>
     <g id="text_18">
      <!-- [0.50, -->
      <g transform="translate(343.822708 165.145539)scale(0.2 -0.2)">
       <use xlink:href="#DejaVuSans-91"/>
       <use x="39.013672" xlink:href="#DejaVuSans-48"/>
       <use x="102.636719" xlink:href="#DejaVuSans-46"/>
       <use x="134.423828" xlink:href="#DejaVuSans-53"/>
       <use x="198.046875" xlink:href="#DejaVuSans-48"/>
       <use x="261.669922" xlink:href="#DejaVuSans-44"/>
      </g>
      <!-- 0.75) -->
      <defs>
       <path d="M 8.203125 72.90625 
L 55.078125 72.90625 
L 55.078125 68.703125 
L 28.609375 0 
L 18.3125 0 
L 43.21875 64.59375 
L 8.203125 64.59375 
z
" id="DejaVuSans-55"/>
      </defs>
      <g transform="translate(350.178958 187.541164)scale(0.2 -0.2)">
       <use xlink:href="#DejaVuSans-48"/>
       <use x="63.623047" xlink:href="#DejaVuSans-46"/>
       <use x="95.410156" xlink:href="#DejaVuSans-55"/>
       <use x="159.033203" xlink:href="#DejaVuSans-53"/>
       <use x="222.65625" xlink:href="#DejaVuSans-41"/>
      </g>
     </g>
    </g>
    <g id="ytick_9">
     <g id="line2d_17">
      <g>
       <use style="stroke:#000000;stroke-width:1.6;" x="417.213333" xlink:href="#m45ae2fcd1e" y="233.533247"/>
      </g>
     </g>
     <g id="text_19">
      <!-- [0.75, -->
      <g transform="translate(343.822708 229.933872)scale(0.2 -0.2)">
       <use xlink:href="#DejaVuSans-91"/>
       <use x="39.013672" xlink:href="#DejaVuSans-48"/>
       <use x="102.636719" xlink:href="#DejaVuSans-46"/>
       <use x="134.423828" xlink:href="#DejaVuSans-55"/>
       <use x="198.046875" xlink:href="#DejaVuSans-53"/>
       <use x="261.669922" xlink:href="#DejaVuSans-44"/>
      </g>
      <!-- 1.00) -->
      <g transform="translate(350.178958 252.329497)scale(0.2 -0.2)">
       <use xlink:href="#DejaVuSans-49"/>
       <use x="63.623047" xlink:href="#DejaVuSans-46"/>
       <use x="95.410156" xlink:href="#DejaVuSans-48"/>
       <use x="159.033203" xlink:href="#DejaVuSans-48"/>
       <use x="222.65625" xlink:href="#DejaVuSans-41"/>
      </g>
     </g>
    </g>
    <g id="text_20">
     <!-- Max Attention -->
     <defs>
      <path d="M 34.1875 63.1875 
L 20.796875 26.90625 
L 47.609375 26.90625 
z
M 28.609375 72.90625 
L 39.796875 72.90625 
L 67.578125 0 
L 57.328125 0 
L 50.6875 18.703125 
L 17.828125 18.703125 
L 11.1875 0 
L 0.78125 0 
z
" id="DejaVuSans-65"/>
      <path d="M 30.609375 48.390625 
Q 23.390625 48.390625 19.1875 42.75 
Q 14.984375 37.109375 14.984375 27.296875 
Q 14.984375 17.484375 19.15625 11.84375 
Q 23.34375 6.203125 30.609375 6.203125 
Q 37.796875 6.203125 41.984375 11.859375 
Q 46.1875 17.53125 46.1875 27.296875 
Q 46.1875 37.015625 41.984375 42.703125 
Q 37.796875 48.390625 30.609375 48.390625 
z
M 30.609375 56 
Q 42.328125 56 49.015625 48.375 
Q 55.71875 40.765625 55.71875 27.296875 
Q 55.71875 13.875 49.015625 6.21875 
Q 42.328125 -1.421875 30.609375 -1.421875 
Q 18.84375 -1.421875 12.171875 6.21875 
Q 5.515625 13.875 5.515625 27.296875 
Q 5.515625 40.765625 12.171875 48.375 
Q 18.84375 56 30.609375 56 
z
" id="DejaVuSans-111"/>
     </defs>
     <g transform="translate(335.663333 206.528872)rotate(-90)scale(0.2 -0.2)">
      <use xlink:href="#DejaVuSans-77"/>
      <use x="86.279297" xlink:href="#DejaVuSans-97"/>
      <use x="147.558594" xlink:href="#DejaVuSans-120"/>
      <use x="206.738281" xlink:href="#DejaVuSans-32"/>
      <use x="238.525391" xlink:href="#DejaVuSans-65"/>
      <use x="306.917969" xlink:href="#DejaVuSans-116"/>
      <use x="346.126953" xlink:href="#DejaVuSans-116"/>
      <use x="385.335938" xlink:href="#DejaVuSans-101"/>
      <use x="446.859375" xlink:href="#DejaVuSans-110"/>
      <use x="510.238281" xlink:href="#DejaVuSans-116"/>
      <use x="549.447266" xlink:href="#DejaVuSans-105"/>
      <use x="577.230469" xlink:href="#DejaVuSans-111"/>
      <use x="638.412109" xlink:href="#DejaVuSans-110"/>
     </g>
    </g>
   </g>
   <g id="line2d_18">
    <path clip-path="url(#p5494212e67)" style="fill:none;stroke:#424242;stroke-dasharray:1.5,1.5;stroke-dashoffset:0;"/>
   </g>
   <g id="line2d_19">
    <path clip-path="url(#p5494212e67)" style="fill:none;stroke:#424242;stroke-dasharray:3,3;stroke-dashoffset:0;"/>
   </g>
   <g id="line2d_20">
    <path clip-path="url(#p5494212e67)" style="fill:none;stroke:#424242;stroke-dasharray:1.5,1.5;stroke-dashoffset:0;"/>
   </g>
   <g id="line2d_21">
    <path clip-path="url(#p5494212e67)" style="fill:none;stroke:#424242;stroke-dasharray:1.5,1.5;stroke-dashoffset:0;"/>
   </g>
   <g id="line2d_22">
    <path clip-path="url(#p5494212e67)" style="fill:none;stroke:#424242;stroke-dasharray:3,3;stroke-dashoffset:0;"/>
   </g>
   <g id="line2d_23">
    <path clip-path="url(#p5494212e67)" style="fill:none;stroke:#424242;stroke-dasharray:1.5,1.5;stroke-dashoffset:0;"/>
   </g>
   <g id="patch_88">
    <path style="fill:none;stroke:#000000;stroke-linecap:square;stroke-linejoin:miter;stroke-width:0.8;"/>
   </g>
   <g id="patch_89">
    <path style="fill:none;stroke:#000000;stroke-linecap:square;stroke-linejoin:miter;stroke-width:0.8;"/>
   </g>
  </g>
 </g>
 <defs>
  <clipPath id="pabd50575a1">
   <rect height="259.153333" width="259.153333" x="46.7" y="6.77408"/>
  </clipPath>
  <clipPath id="p5494212e67">
   <rect height="259.153333" width="259.153333" x="417.213333" y="6.77408"/>
  </clipPath>
 </defs>
</svg>
