<?xml version="1.0" encoding="utf-8" standalone="no"?>
<!DOCTYPE svg PUBLIC "-//W3C//DTD SVG 1.1//EN"
  "http://www.w3.org/Graphics/SVG/1.1/DTD/svg11.dtd">
<!-- Created with matplotlib (https://matplotlib.org/) -->
<svg height="323.353333pt" version="1.1" viewBox="0 0 312.49737 323.353333" width="312.49737pt" xmlns="http://www.w3.org/2000/svg" xmlns:xlink="http://www.w3.org/1999/xlink">
 <defs>
  <style type="text/css">
*{stroke-linecap:butt;stroke-linejoin:round;}
  </style>
 </defs>
 <g id="figure_1">
  <g id="patch_1">
   <path d="M 0 323.353333 
L 312.49737 323.353333 
L 312.49737 -0 
L 0 -0 
z
" style="fill:#ffffff;"/>
  </g>
  <g id="axes_1">
   <g id="patch_2">
    <path d="M 46.7 262.653333 
L 305.853333 262.653333 
L 305.853333 3.5 
L 46.7 3.5 
z
" style="fill:#ffffff;"/>
   </g>
   <g id="patch_3">
    <path clip-path="url(#p05151e9c1c)" d="M 58.479697 262.653333 
L 64.369545 262.653333 
L 64.369545 262.653333 
L 58.479697 262.653333 
z
" style="fill:#7570b3;opacity:0.6;stroke:#000000;stroke-linejoin:miter;stroke-width:0.5;"/>
   </g>
   <g id="patch_4">
    <path clip-path="url(#p05151e9c1c)" d="M 64.369545 262.653333 
L 70.259394 262.653333 
L 70.259394 262.653333 
L 64.369545 262.653333 
z
" style="fill:#7570b3;opacity:0.6;stroke:#000000;stroke-linejoin:miter;stroke-width:0.5;"/>
   </g>
   <g id="patch_5">
    <path clip-path="url(#p05151e9c1c)" d="M 70.259394 262.653333 
L 76.149242 262.653333 
L 76.149242 262.653333 
L 70.259394 262.653333 
z
" style="fill:#7570b3;opacity:0.6;stroke:#000000;stroke-linejoin:miter;stroke-width:0.5;"/>
   </g>
   <g id="patch_6">
    <path clip-path="url(#p05151e9c1c)" d="M 76.149242 262.653333 
L 82.039091 262.653333 
L 82.039091 262.653333 
L 76.149242 262.653333 
z
" style="fill:#7570b3;opacity:0.6;stroke:#000000;stroke-linejoin:miter;stroke-width:0.5;"/>
   </g>
   <g id="patch_7">
    <path clip-path="url(#p05151e9c1c)" d="M 82.039091 262.653333 
L 87.928939 262.653333 
L 87.928939 262.653333 
L 82.039091 262.653333 
z
" style="fill:#7570b3;opacity:0.6;stroke:#000000;stroke-linejoin:miter;stroke-width:0.5;"/>
   </g>
   <g id="patch_8">
    <path clip-path="url(#p05151e9c1c)" d="M 87.928939 262.653333 
L 93.818788 262.653333 
L 93.818788 262.653333 
L 87.928939 262.653333 
z
" style="fill:#7570b3;opacity:0.6;stroke:#000000;stroke-linejoin:miter;stroke-width:0.5;"/>
   </g>
   <g id="patch_9">
    <path clip-path="url(#p05151e9c1c)" d="M 93.818788 262.653333 
L 99.708636 262.653333 
L 99.708636 262.653333 
L 93.818788 262.653333 
z
" style="fill:#7570b3;opacity:0.6;stroke:#000000;stroke-linejoin:miter;stroke-width:0.5;"/>
   </g>
   <g id="patch_10">
    <path clip-path="url(#p05151e9c1c)" d="M 99.708636 262.653333 
L 105.598485 262.653333 
L 105.598485 262.653333 
L 99.708636 262.653333 
z
" style="fill:#7570b3;opacity:0.6;stroke:#000000;stroke-linejoin:miter;stroke-width:0.5;"/>
   </g>
   <g id="patch_11">
    <path clip-path="url(#p05151e9c1c)" d="M 105.598485 262.653333 
L 111.488333 262.653333 
L 111.488333 262.653333 
L 105.598485 262.653333 
z
" style="fill:#7570b3;opacity:0.6;stroke:#000000;stroke-linejoin:miter;stroke-width:0.5;"/>
   </g>
   <g id="patch_12">
    <path clip-path="url(#p05151e9c1c)" d="M 111.488333 262.653333 
L 117.378182 262.653333 
L 117.378182 262.653333 
L 111.488333 262.653333 
z
" style="fill:#7570b3;opacity:0.6;stroke:#000000;stroke-linejoin:miter;stroke-width:0.5;"/>
   </g>
   <g id="patch_13">
    <path clip-path="url(#p05151e9c1c)" d="M 117.378182 262.653333 
L 123.26803 262.653333 
L 123.26803 262.653333 
L 117.378182 262.653333 
z
" style="fill:#7570b3;opacity:0.6;stroke:#000000;stroke-linejoin:miter;stroke-width:0.5;"/>
   </g>
   <g id="patch_14">
    <path clip-path="url(#p05151e9c1c)" d="M 123.26803 262.653333 
L 129.157879 262.653333 
L 129.157879 262.653333 
L 123.26803 262.653333 
z
" style="fill:#7570b3;opacity:0.6;stroke:#000000;stroke-linejoin:miter;stroke-width:0.5;"/>
   </g>
   <g id="patch_15">
    <path clip-path="url(#p05151e9c1c)" d="M 129.157879 262.653333 
L 135.047727 262.653333 
L 135.047727 262.653333 
L 129.157879 262.653333 
z
" style="fill:#7570b3;opacity:0.6;stroke:#000000;stroke-linejoin:miter;stroke-width:0.5;"/>
   </g>
   <g id="patch_16">
    <path clip-path="url(#p05151e9c1c)" d="M 135.047727 262.653333 
L 140.937576 262.653333 
L 140.937576 262.653333 
L 135.047727 262.653333 
z
" style="fill:#7570b3;opacity:0.6;stroke:#000000;stroke-linejoin:miter;stroke-width:0.5;"/>
   </g>
   <g id="patch_17">
    <path clip-path="url(#p05151e9c1c)" d="M 140.937576 262.653333 
L 146.827424 262.653333 
L 146.827424 262.653333 
L 140.937576 262.653333 
z
" style="fill:#7570b3;opacity:0.6;stroke:#000000;stroke-linejoin:miter;stroke-width:0.5;"/>
   </g>
   <g id="patch_18">
    <path clip-path="url(#p05151e9c1c)" d="M 146.827424 262.653333 
L 152.717273 262.653333 
L 152.717273 262.653333 
L 146.827424 262.653333 
z
" style="fill:#7570b3;opacity:0.6;stroke:#000000;stroke-linejoin:miter;stroke-width:0.5;"/>
   </g>
   <g id="patch_19">
    <path clip-path="url(#p05151e9c1c)" d="M 152.717273 262.653333 
L 158.607121 262.653333 
L 158.607121 262.653333 
L 152.717273 262.653333 
z
" style="fill:#7570b3;opacity:0.6;stroke:#000000;stroke-linejoin:miter;stroke-width:0.5;"/>
   </g>
   <g id="patch_20">
    <path clip-path="url(#p05151e9c1c)" d="M 158.607121 262.653333 
L 164.49697 262.653333 
L 164.49697 262.653333 
L 158.607121 262.653333 
z
" style="fill:#7570b3;opacity:0.6;stroke:#000000;stroke-linejoin:miter;stroke-width:0.5;"/>
   </g>
   <g id="patch_21">
    <path clip-path="url(#p05151e9c1c)" d="M 164.49697 262.653333 
L 170.386818 262.653333 
L 170.386818 262.653333 
L 164.49697 262.653333 
z
" style="fill:#7570b3;opacity:0.6;stroke:#000000;stroke-linejoin:miter;stroke-width:0.5;"/>
   </g>
   <g id="patch_22">
    <path clip-path="url(#p05151e9c1c)" d="M 170.386818 262.653333 
L 176.276667 262.653333 
L 176.276667 262.653333 
L 170.386818 262.653333 
z
" style="fill:#7570b3;opacity:0.6;stroke:#000000;stroke-linejoin:miter;stroke-width:0.5;"/>
   </g>
   <g id="patch_23">
    <path clip-path="url(#p05151e9c1c)" d="M 176.276667 262.653333 
L 182.166515 262.653333 
L 182.166515 262.653333 
L 176.276667 262.653333 
z
" style="fill:#7570b3;opacity:0.6;stroke:#000000;stroke-linejoin:miter;stroke-width:0.5;"/>
   </g>
   <g id="patch_24">
    <path clip-path="url(#p05151e9c1c)" d="M 182.166515 262.653333 
L 188.056364 262.653333 
L 188.056364 262.653333 
L 182.166515 262.653333 
z
" style="fill:#7570b3;opacity:0.6;stroke:#000000;stroke-linejoin:miter;stroke-width:0.5;"/>
   </g>
   <g id="patch_25">
    <path clip-path="url(#p05151e9c1c)" d="M 188.056364 262.653333 
L 193.946212 262.653333 
L 193.946212 262.653333 
L 188.056364 262.653333 
z
" style="fill:#7570b3;opacity:0.6;stroke:#000000;stroke-linejoin:miter;stroke-width:0.5;"/>
   </g>
   <g id="patch_26">
    <path clip-path="url(#p05151e9c1c)" d="M 193.946212 262.653333 
L 199.836061 262.653333 
L 199.836061 262.653333 
L 193.946212 262.653333 
z
" style="fill:#7570b3;opacity:0.6;stroke:#000000;stroke-linejoin:miter;stroke-width:0.5;"/>
   </g>
   <g id="patch_27">
    <path clip-path="url(#p05151e9c1c)" d="M 199.836061 262.653333 
L 205.725909 262.653333 
L 205.725909 262.653333 
L 199.836061 262.653333 
z
" style="fill:#7570b3;opacity:0.6;stroke:#000000;stroke-linejoin:miter;stroke-width:0.5;"/>
   </g>
   <g id="patch_28">
    <path clip-path="url(#p05151e9c1c)" d="M 205.725909 262.653333 
L 211.615758 262.653333 
L 211.615758 262.653333 
L 205.725909 262.653333 
z
" style="fill:#7570b3;opacity:0.6;stroke:#000000;stroke-linejoin:miter;stroke-width:0.5;"/>
   </g>
   <g id="patch_29">
    <path clip-path="url(#p05151e9c1c)" d="M 211.615758 262.653333 
L 217.505606 262.653333 
L 217.505606 262.653333 
L 211.615758 262.653333 
z
" style="fill:#7570b3;opacity:0.6;stroke:#000000;stroke-linejoin:miter;stroke-width:0.5;"/>
   </g>
   <g id="patch_30">
    <path clip-path="url(#p05151e9c1c)" d="M 217.505606 262.653333 
L 223.395455 262.653333 
L 223.395455 262.653333 
L 217.505606 262.653333 
z
" style="fill:#7570b3;opacity:0.6;stroke:#000000;stroke-linejoin:miter;stroke-width:0.5;"/>
   </g>
   <g id="patch_31">
    <path clip-path="url(#p05151e9c1c)" d="M 223.395455 262.653333 
L 229.285303 262.653333 
L 229.285303 262.653333 
L 223.395455 262.653333 
z
" style="fill:#7570b3;opacity:0.6;stroke:#000000;stroke-linejoin:miter;stroke-width:0.5;"/>
   </g>
   <g id="patch_32">
    <path clip-path="url(#p05151e9c1c)" d="M 229.285303 262.653333 
L 235.175152 262.653333 
L 235.175152 262.653333 
L 229.285303 262.653333 
z
" style="fill:#7570b3;opacity:0.6;stroke:#000000;stroke-linejoin:miter;stroke-width:0.5;"/>
   </g>
   <g id="patch_33">
    <path clip-path="url(#p05151e9c1c)" d="M 235.175152 262.653333 
L 241.065 262.653333 
L 241.065 262.653333 
L 235.175152 262.653333 
z
" style="fill:#7570b3;opacity:0.6;stroke:#000000;stroke-linejoin:miter;stroke-width:0.5;"/>
   </g>
   <g id="patch_34">
    <path clip-path="url(#p05151e9c1c)" d="M 241.065 262.653333 
L 246.954848 262.653333 
L 246.954848 262.653333 
L 241.065 262.653333 
z
" style="fill:#7570b3;opacity:0.6;stroke:#000000;stroke-linejoin:miter;stroke-width:0.5;"/>
   </g>
   <g id="patch_35">
    <path clip-path="url(#p05151e9c1c)" d="M 246.954848 262.653333 
L 252.844697 262.653333 
L 252.844697 262.653333 
L 246.954848 262.653333 
z
" style="fill:#7570b3;opacity:0.6;stroke:#000000;stroke-linejoin:miter;stroke-width:0.5;"/>
   </g>
   <g id="patch_36">
    <path clip-path="url(#p05151e9c1c)" d="M 252.844697 262.653333 
L 258.734545 262.653333 
L 258.734545 262.653333 
L 252.844697 262.653333 
z
" style="fill:#7570b3;opacity:0.6;stroke:#000000;stroke-linejoin:miter;stroke-width:0.5;"/>
   </g>
   <g id="patch_37">
    <path clip-path="url(#p05151e9c1c)" d="M 258.734545 262.653333 
L 264.624394 262.653333 
L 264.624394 261.810969 
L 258.734545 261.810969 
z
" style="fill:#7570b3;opacity:0.6;stroke:#000000;stroke-linejoin:miter;stroke-width:0.5;"/>
   </g>
   <g id="patch_38">
    <path clip-path="url(#p05151e9c1c)" d="M 264.624394 262.653333 
L 270.514242 262.653333 
L 270.514242 258.441513 
L 264.624394 258.441513 
z
" style="fill:#7570b3;opacity:0.6;stroke:#000000;stroke-linejoin:miter;stroke-width:0.5;"/>
   </g>
   <g id="patch_39">
    <path clip-path="url(#p05151e9c1c)" d="M 270.514242 262.653333 
L 276.404091 262.653333 
L 276.404091 213.796212 
L 270.514242 213.796212 
z
" style="fill:#7570b3;opacity:0.6;stroke:#000000;stroke-linejoin:miter;stroke-width:0.5;"/>
   </g>
   <g id="patch_40">
    <path clip-path="url(#p05151e9c1c)" d="M 276.404091 262.653333 
L 282.293939 262.653333 
L 282.293939 183.471102 
L 276.404091 183.471102 
z
" style="fill:#7570b3;opacity:0.6;stroke:#000000;stroke-linejoin:miter;stroke-width:0.5;"/>
   </g>
   <g id="patch_41">
    <path clip-path="url(#p05151e9c1c)" d="M 282.293939 262.653333 
L 288.183788 262.653333 
L 288.183788 218.850397 
L 282.293939 218.850397 
z
" style="fill:#7570b3;opacity:0.6;stroke:#000000;stroke-linejoin:miter;stroke-width:0.5;"/>
   </g>
   <g id="patch_42">
    <path clip-path="url(#p05151e9c1c)" d="M 288.183788 262.653333 
L 294.073636 262.653333 
L 294.073636 15.840635 
L 288.183788 15.840635 
z
" style="fill:#7570b3;opacity:0.6;stroke:#000000;stroke-linejoin:miter;stroke-width:0.5;"/>
   </g>
   <g id="patch_43">
    <path clip-path="url(#p05151e9c1c)" d="M 58.479697 262.653333 
L 64.369545 262.653333 
L 64.369545 262.653333 
L 58.479697 262.653333 
z
" style="fill:#d95f02;opacity:0.6;stroke:#000000;stroke-linejoin:miter;stroke-width:0.5;"/>
   </g>
   <g id="patch_44">
    <path clip-path="url(#p05151e9c1c)" d="M 64.369545 262.653333 
L 70.259394 262.653333 
L 70.259394 262.653333 
L 64.369545 262.653333 
z
" style="fill:#d95f02;opacity:0.6;stroke:#000000;stroke-linejoin:miter;stroke-width:0.5;"/>
   </g>
   <g id="patch_45">
    <path clip-path="url(#p05151e9c1c)" d="M 70.259394 262.653333 
L 76.149242 262.653333 
L 76.149242 262.653333 
L 70.259394 262.653333 
z
" style="fill:#d95f02;opacity:0.6;stroke:#000000;stroke-linejoin:miter;stroke-width:0.5;"/>
   </g>
   <g id="patch_46">
    <path clip-path="url(#p05151e9c1c)" d="M 76.149242 262.653333 
L 82.039091 262.653333 
L 82.039091 262.653333 
L 76.149242 262.653333 
z
" style="fill:#d95f02;opacity:0.6;stroke:#000000;stroke-linejoin:miter;stroke-width:0.5;"/>
   </g>
   <g id="patch_47">
    <path clip-path="url(#p05151e9c1c)" d="M 82.039091 262.653333 
L 87.928939 262.653333 
L 87.928939 262.653333 
L 82.039091 262.653333 
z
" style="fill:#d95f02;opacity:0.6;stroke:#000000;stroke-linejoin:miter;stroke-width:0.5;"/>
   </g>
   <g id="patch_48">
    <path clip-path="url(#p05151e9c1c)" d="M 87.928939 262.653333 
L 93.818788 262.653333 
L 93.818788 262.653333 
L 87.928939 262.653333 
z
" style="fill:#d95f02;opacity:0.6;stroke:#000000;stroke-linejoin:miter;stroke-width:0.5;"/>
   </g>
   <g id="patch_49">
    <path clip-path="url(#p05151e9c1c)" d="M 93.818788 262.653333 
L 99.708636 262.653333 
L 99.708636 262.653333 
L 93.818788 262.653333 
z
" style="fill:#d95f02;opacity:0.6;stroke:#000000;stroke-linejoin:miter;stroke-width:0.5;"/>
   </g>
   <g id="patch_50">
    <path clip-path="url(#p05151e9c1c)" d="M 99.708636 262.653333 
L 105.598485 262.653333 
L 105.598485 262.653333 
L 99.708636 262.653333 
z
" style="fill:#d95f02;opacity:0.6;stroke:#000000;stroke-linejoin:miter;stroke-width:0.5;"/>
   </g>
   <g id="patch_51">
    <path clip-path="url(#p05151e9c1c)" d="M 105.598485 262.653333 
L 111.488333 262.653333 
L 111.488333 262.653333 
L 105.598485 262.653333 
z
" style="fill:#d95f02;opacity:0.6;stroke:#000000;stroke-linejoin:miter;stroke-width:0.5;"/>
   </g>
   <g id="patch_52">
    <path clip-path="url(#p05151e9c1c)" d="M 111.488333 262.653333 
L 117.378182 262.653333 
L 117.378182 262.653333 
L 111.488333 262.653333 
z
" style="fill:#d95f02;opacity:0.6;stroke:#000000;stroke-linejoin:miter;stroke-width:0.5;"/>
   </g>
   <g id="patch_53">
    <path clip-path="url(#p05151e9c1c)" d="M 117.378182 262.653333 
L 123.26803 262.653333 
L 123.26803 262.653333 
L 117.378182 262.653333 
z
" style="fill:#d95f02;opacity:0.6;stroke:#000000;stroke-linejoin:miter;stroke-width:0.5;"/>
   </g>
   <g id="patch_54">
    <path clip-path="url(#p05151e9c1c)" d="M 123.26803 262.653333 
L 129.157879 262.653333 
L 129.157879 262.653333 
L 123.26803 262.653333 
z
" style="fill:#d95f02;opacity:0.6;stroke:#000000;stroke-linejoin:miter;stroke-width:0.5;"/>
   </g>
   <g id="patch_55">
    <path clip-path="url(#p05151e9c1c)" d="M 129.157879 262.653333 
L 135.047727 262.653333 
L 135.047727 262.653333 
L 129.157879 262.653333 
z
" style="fill:#d95f02;opacity:0.6;stroke:#000000;stroke-linejoin:miter;stroke-width:0.5;"/>
   </g>
   <g id="patch_56">
    <path clip-path="url(#p05151e9c1c)" d="M 135.047727 262.653333 
L 140.937576 262.653333 
L 140.937576 262.653333 
L 135.047727 262.653333 
z
" style="fill:#d95f02;opacity:0.6;stroke:#000000;stroke-linejoin:miter;stroke-width:0.5;"/>
   </g>
   <g id="patch_57">
    <path clip-path="url(#p05151e9c1c)" d="M 140.937576 262.653333 
L 146.827424 262.653333 
L 146.827424 262.653333 
L 140.937576 262.653333 
z
" style="fill:#d95f02;opacity:0.6;stroke:#000000;stroke-linejoin:miter;stroke-width:0.5;"/>
   </g>
   <g id="patch_58">
    <path clip-path="url(#p05151e9c1c)" d="M 146.827424 262.653333 
L 152.717273 262.653333 
L 152.717273 262.653333 
L 146.827424 262.653333 
z
" style="fill:#d95f02;opacity:0.6;stroke:#000000;stroke-linejoin:miter;stroke-width:0.5;"/>
   </g>
   <g id="patch_59">
    <path clip-path="url(#p05151e9c1c)" d="M 152.717273 262.653333 
L 158.607121 262.653333 
L 158.607121 262.653333 
L 152.717273 262.653333 
z
" style="fill:#d95f02;opacity:0.6;stroke:#000000;stroke-linejoin:miter;stroke-width:0.5;"/>
   </g>
   <g id="patch_60">
    <path clip-path="url(#p05151e9c1c)" d="M 158.607121 262.653333 
L 164.49697 262.653333 
L 164.49697 262.653333 
L 158.607121 262.653333 
z
" style="fill:#d95f02;opacity:0.6;stroke:#000000;stroke-linejoin:miter;stroke-width:0.5;"/>
   </g>
   <g id="patch_61">
    <path clip-path="url(#p05151e9c1c)" d="M 164.49697 262.653333 
L 170.386818 262.653333 
L 170.386818 262.653333 
L 164.49697 262.653333 
z
" style="fill:#d95f02;opacity:0.6;stroke:#000000;stroke-linejoin:miter;stroke-width:0.5;"/>
   </g>
   <g id="patch_62">
    <path clip-path="url(#p05151e9c1c)" d="M 170.386818 262.653333 
L 176.276667 262.653333 
L 176.276667 262.653333 
L 170.386818 262.653333 
z
" style="fill:#d95f02;opacity:0.6;stroke:#000000;stroke-linejoin:miter;stroke-width:0.5;"/>
   </g>
   <g id="patch_63">
    <path clip-path="url(#p05151e9c1c)" d="M 176.276667 262.653333 
L 182.166515 262.653333 
L 182.166515 262.653333 
L 176.276667 262.653333 
z
" style="fill:#d95f02;opacity:0.6;stroke:#000000;stroke-linejoin:miter;stroke-width:0.5;"/>
   </g>
   <g id="patch_64">
    <path clip-path="url(#p05151e9c1c)" d="M 182.166515 262.653333 
L 188.056364 262.653333 
L 188.056364 262.653333 
L 182.166515 262.653333 
z
" style="fill:#d95f02;opacity:0.6;stroke:#000000;stroke-linejoin:miter;stroke-width:0.5;"/>
   </g>
   <g id="patch_65">
    <path clip-path="url(#p05151e9c1c)" d="M 188.056364 262.653333 
L 193.946212 262.653333 
L 193.946212 262.653333 
L 188.056364 262.653333 
z
" style="fill:#d95f02;opacity:0.6;stroke:#000000;stroke-linejoin:miter;stroke-width:0.5;"/>
   </g>
   <g id="patch_66">
    <path clip-path="url(#p05151e9c1c)" d="M 193.946212 262.653333 
L 199.836061 262.653333 
L 199.836061 262.653333 
L 193.946212 262.653333 
z
" style="fill:#d95f02;opacity:0.6;stroke:#000000;stroke-linejoin:miter;stroke-width:0.5;"/>
   </g>
   <g id="patch_67">
    <path clip-path="url(#p05151e9c1c)" d="M 199.836061 262.653333 
L 205.725909 262.653333 
L 205.725909 262.653333 
L 199.836061 262.653333 
z
" style="fill:#d95f02;opacity:0.6;stroke:#000000;stroke-linejoin:miter;stroke-width:0.5;"/>
   </g>
   <g id="patch_68">
    <path clip-path="url(#p05151e9c1c)" d="M 205.725909 262.653333 
L 211.615758 262.653333 
L 211.615758 262.653333 
L 205.725909 262.653333 
z
" style="fill:#d95f02;opacity:0.6;stroke:#000000;stroke-linejoin:miter;stroke-width:0.5;"/>
   </g>
   <g id="patch_69">
    <path clip-path="url(#p05151e9c1c)" d="M 211.615758 262.653333 
L 217.505606 262.653333 
L 217.505606 262.653333 
L 211.615758 262.653333 
z
" style="fill:#d95f02;opacity:0.6;stroke:#000000;stroke-linejoin:miter;stroke-width:0.5;"/>
   </g>
   <g id="patch_70">
    <path clip-path="url(#p05151e9c1c)" d="M 217.505606 262.653333 
L 223.395455 262.653333 
L 223.395455 262.653333 
L 217.505606 262.653333 
z
" style="fill:#d95f02;opacity:0.6;stroke:#000000;stroke-linejoin:miter;stroke-width:0.5;"/>
   </g>
   <g id="patch_71">
    <path clip-path="url(#p05151e9c1c)" d="M 223.395455 262.653333 
L 229.285303 262.653333 
L 229.285303 262.653333 
L 223.395455 262.653333 
z
" style="fill:#d95f02;opacity:0.6;stroke:#000000;stroke-linejoin:miter;stroke-width:0.5;"/>
   </g>
   <g id="patch_72">
    <path clip-path="url(#p05151e9c1c)" d="M 229.285303 262.653333 
L 235.175152 262.653333 
L 235.175152 262.653333 
L 229.285303 262.653333 
z
" style="fill:#d95f02;opacity:0.6;stroke:#000000;stroke-linejoin:miter;stroke-width:0.5;"/>
   </g>
   <g id="patch_73">
    <path clip-path="url(#p05151e9c1c)" d="M 235.175152 262.653333 
L 241.065 262.653333 
L 241.065 262.095087 
L 235.175152 262.095087 
z
" style="fill:#d95f02;opacity:0.6;stroke:#000000;stroke-linejoin:miter;stroke-width:0.5;"/>
   </g>
   <g id="patch_74">
    <path clip-path="url(#p05151e9c1c)" d="M 241.065 262.653333 
L 246.954848 262.653333 
L 246.954848 261.53684 
L 241.065 261.53684 
z
" style="fill:#d95f02;opacity:0.6;stroke:#000000;stroke-linejoin:miter;stroke-width:0.5;"/>
   </g>
   <g id="patch_75">
    <path clip-path="url(#p05151e9c1c)" d="M 246.954848 262.653333 
L 252.844697 262.653333 
L 252.844697 252.604894 
L 246.954848 252.604894 
z
" style="fill:#d95f02;opacity:0.6;stroke:#000000;stroke-linejoin:miter;stroke-width:0.5;"/>
   </g>
   <g id="patch_76">
    <path clip-path="url(#p05151e9c1c)" d="M 252.844697 262.653333 
L 258.734545 262.653333 
L 258.734545 220.784838 
L 252.844697 220.784838 
z
" style="fill:#d95f02;opacity:0.6;stroke:#000000;stroke-linejoin:miter;stroke-width:0.5;"/>
   </g>
   <g id="patch_77">
    <path clip-path="url(#p05151e9c1c)" d="M 258.734545 262.653333 
L 264.624394 262.653333 
L 264.624394 181.149329 
L 258.734545 181.149329 
z
" style="fill:#d95f02;opacity:0.6;stroke:#000000;stroke-linejoin:miter;stroke-width:0.5;"/>
   </g>
   <g id="patch_78">
    <path clip-path="url(#p05151e9c1c)" d="M 264.624394 262.653333 
L 270.514242 262.653333 
L 270.514242 145.421547 
L 264.624394 145.421547 
z
" style="fill:#d95f02;opacity:0.6;stroke:#000000;stroke-linejoin:miter;stroke-width:0.5;"/>
   </g>
   <g id="patch_79">
    <path clip-path="url(#p05151e9c1c)" d="M 270.514242 262.653333 
L 276.404091 262.653333 
L 276.404091 152.120506 
L 270.514242 152.120506 
z
" style="fill:#d95f02;opacity:0.6;stroke:#000000;stroke-linejoin:miter;stroke-width:0.5;"/>
   </g>
   <g id="patch_80">
    <path clip-path="url(#p05151e9c1c)" d="M 276.404091 262.653333 
L 282.293939 262.653333 
L 282.293939 214.085879 
L 276.404091 214.085879 
z
" style="fill:#d95f02;opacity:0.6;stroke:#000000;stroke-linejoin:miter;stroke-width:0.5;"/>
   </g>
   <g id="patch_81">
    <path clip-path="url(#p05151e9c1c)" d="M 282.293939 262.653333 
L 288.183788 262.653333 
L 288.183788 253.721388 
L 282.293939 253.721388 
z
" style="fill:#d95f02;opacity:0.6;stroke:#000000;stroke-linejoin:miter;stroke-width:0.5;"/>
   </g>
   <g id="patch_82">
    <path clip-path="url(#p05151e9c1c)" d="M 288.183788 262.653333 
L 294.073636 262.653333 
L 294.073636 259.303854 
L 288.183788 259.303854 
z
" style="fill:#d95f02;opacity:0.6;stroke:#000000;stroke-linejoin:miter;stroke-width:0.5;"/>
   </g>
   <g id="matplotlib.axis_1">
    <g id="xtick_1">
     <g id="line2d_1">
      <defs>
       <path d="M 0 0 
L 0 3.5 
" id="mff70e24029" style="stroke:#000000;stroke-width:1.6;"/>
      </defs>
      <g>
       <use style="stroke:#000000;stroke-width:1.6;" x="58.479697" xlink:href="#mff70e24029" y="262.653333"/>
      </g>
     </g>
     <g id="text_1">
      <!-- 0.0 -->
      <defs>
       <path d="M 31.78125 66.40625 
Q 24.171875 66.40625 20.328125 58.90625 
Q 16.5 51.421875 16.5 36.375 
Q 16.5 21.390625 20.328125 13.890625 
Q 24.171875 6.390625 31.78125 6.390625 
Q 39.453125 6.390625 43.28125 13.890625 
Q 47.125 21.390625 47.125 36.375 
Q 47.125 51.421875 43.28125 58.90625 
Q 39.453125 66.40625 31.78125 66.40625 
z
M 31.78125 74.21875 
Q 44.046875 74.21875 50.515625 64.515625 
Q 56.984375 54.828125 56.984375 36.375 
Q 56.984375 17.96875 50.515625 8.265625 
Q 44.046875 -1.421875 31.78125 -1.421875 
Q 19.53125 -1.421875 13.0625 8.265625 
Q 6.59375 17.96875 6.59375 36.375 
Q 6.59375 54.828125 13.0625 64.515625 
Q 19.53125 74.21875 31.78125 74.21875 
z
" id="DejaVuSans-48"/>
       <path d="M 10.6875 12.40625 
L 21 12.40625 
L 21 0 
L 10.6875 0 
z
" id="DejaVuSans-46"/>
      </defs>
      <g transform="translate(42.576572 292.550208)scale(0.2 -0.2)">
       <use xlink:href="#DejaVuSans-48"/>
       <use x="63.623047" xlink:href="#DejaVuSans-46"/>
       <use x="95.410156" xlink:href="#DejaVuSans-48"/>
      </g>
     </g>
    </g>
    <g id="xtick_2">
     <g id="line2d_2">
      <g>
       <use style="stroke:#000000;stroke-width:1.6;" x="125.792251" xlink:href="#mff70e24029" y="262.653333"/>
      </g>
     </g>
     <g id="text_2">
      <!-- 0.2 -->
      <defs>
       <path d="M 19.1875 8.296875 
L 53.609375 8.296875 
L 53.609375 0 
L 7.328125 0 
L 7.328125 8.296875 
Q 12.9375 14.109375 22.625 23.890625 
Q 32.328125 33.6875 34.8125 36.53125 
Q 39.546875 41.84375 41.421875 45.53125 
Q 43.3125 49.21875 43.3125 52.78125 
Q 43.3125 58.59375 39.234375 62.25 
Q 35.15625 65.921875 28.609375 65.921875 
Q 23.96875 65.921875 18.8125 64.3125 
Q 13.671875 62.703125 7.8125 59.421875 
L 7.8125 69.390625 
Q 13.765625 71.78125 18.9375 73 
Q 24.125 74.21875 28.421875 74.21875 
Q 39.75 74.21875 46.484375 68.546875 
Q 53.21875 62.890625 53.21875 53.421875 
Q 53.21875 48.921875 51.53125 44.890625 
Q 49.859375 40.875 45.40625 35.40625 
Q 44.1875 33.984375 37.640625 27.21875 
Q 31.109375 20.453125 19.1875 8.296875 
z
" id="DejaVuSans-50"/>
      </defs>
      <g transform="translate(109.889126 292.550208)scale(0.2 -0.2)">
       <use xlink:href="#DejaVuSans-48"/>
       <use x="63.623047" xlink:href="#DejaVuSans-46"/>
       <use x="95.410156" xlink:href="#DejaVuSans-50"/>
      </g>
     </g>
    </g>
    <g id="xtick_3">
     <g id="line2d_3">
      <g>
       <use style="stroke:#000000;stroke-width:1.6;" x="193.104805" xlink:href="#mff70e24029" y="262.653333"/>
      </g>
     </g>
     <g id="text_3">
      <!-- 0.4 -->
      <defs>
       <path d="M 37.796875 64.3125 
L 12.890625 25.390625 
L 37.796875 25.390625 
z
M 35.203125 72.90625 
L 47.609375 72.90625 
L 47.609375 25.390625 
L 58.015625 25.390625 
L 58.015625 17.1875 
L 47.609375 17.1875 
L 47.609375 0 
L 37.796875 0 
L 37.796875 17.1875 
L 4.890625 17.1875 
L 4.890625 26.703125 
z
" id="DejaVuSans-52"/>
      </defs>
      <g transform="translate(177.20168 292.550208)scale(0.2 -0.2)">
       <use xlink:href="#DejaVuSans-48"/>
       <use x="63.623047" xlink:href="#DejaVuSans-46"/>
       <use x="95.410156" xlink:href="#DejaVuSans-52"/>
      </g>
     </g>
    </g>
    <g id="xtick_4">
     <g id="line2d_4">
      <g>
       <use style="stroke:#000000;stroke-width:1.6;" x="260.417359" xlink:href="#mff70e24029" y="262.653333"/>
      </g>
     </g>
     <g id="text_4">
      <!-- 0.6 -->
      <defs>
       <path d="M 33.015625 40.375 
Q 26.375 40.375 22.484375 35.828125 
Q 18.609375 31.296875 18.609375 23.390625 
Q 18.609375 15.53125 22.484375 10.953125 
Q 26.375 6.390625 33.015625 6.390625 
Q 39.65625 6.390625 43.53125 10.953125 
Q 47.40625 15.53125 47.40625 23.390625 
Q 47.40625 31.296875 43.53125 35.828125 
Q 39.65625 40.375 33.015625 40.375 
z
M 52.59375 71.296875 
L 52.59375 62.3125 
Q 48.875 64.0625 45.09375 64.984375 
Q 41.3125 65.921875 37.59375 65.921875 
Q 27.828125 65.921875 22.671875 59.328125 
Q 17.53125 52.734375 16.796875 39.40625 
Q 19.671875 43.65625 24.015625 45.921875 
Q 28.375 48.1875 33.59375 48.1875 
Q 44.578125 48.1875 50.953125 41.515625 
Q 57.328125 34.859375 57.328125 23.390625 
Q 57.328125 12.15625 50.6875 5.359375 
Q 44.046875 -1.421875 33.015625 -1.421875 
Q 20.359375 -1.421875 13.671875 8.265625 
Q 6.984375 17.96875 6.984375 36.375 
Q 6.984375 53.65625 15.1875 63.9375 
Q 23.390625 74.21875 37.203125 74.21875 
Q 40.921875 74.21875 44.703125 73.484375 
Q 48.484375 72.75 52.59375 71.296875 
z
" id="DejaVuSans-54"/>
      </defs>
      <g transform="translate(244.514234 292.550208)scale(0.2 -0.2)">
       <use xlink:href="#DejaVuSans-48"/>
       <use x="63.623047" xlink:href="#DejaVuSans-46"/>
       <use x="95.410156" xlink:href="#DejaVuSans-54"/>
      </g>
     </g>
    </g>
    <g id="text_5">
     <!-- Max JS Divergence within $\epsilon$ -->
     <defs>
      <path d="M 9.8125 72.90625 
L 24.515625 72.90625 
L 43.109375 23.296875 
L 61.8125 72.90625 
L 76.515625 72.90625 
L 76.515625 0 
L 66.890625 0 
L 66.890625 64.015625 
L 48.09375 14.015625 
L 38.1875 14.015625 
L 19.390625 64.015625 
L 19.390625 0 
L 9.8125 0 
z
" id="DejaVuSans-77"/>
      <path d="M 34.28125 27.484375 
Q 23.390625 27.484375 19.1875 25 
Q 14.984375 22.515625 14.984375 16.5 
Q 14.984375 11.71875 18.140625 8.90625 
Q 21.296875 6.109375 26.703125 6.109375 
Q 34.1875 6.109375 38.703125 11.40625 
Q 43.21875 16.703125 43.21875 25.484375 
L 43.21875 27.484375 
z
M 52.203125 31.203125 
L 52.203125 0 
L 43.21875 0 
L 43.21875 8.296875 
Q 40.140625 3.328125 35.546875 0.953125 
Q 30.953125 -1.421875 24.3125 -1.421875 
Q 15.921875 -1.421875 10.953125 3.296875 
Q 6 8.015625 6 15.921875 
Q 6 25.140625 12.171875 29.828125 
Q 18.359375 34.515625 30.609375 34.515625 
L 43.21875 34.515625 
L 43.21875 35.40625 
Q 43.21875 41.609375 39.140625 45 
Q 35.0625 48.390625 27.6875 48.390625 
Q 23 48.390625 18.546875 47.265625 
Q 14.109375 46.140625 10.015625 43.890625 
L 10.015625 52.203125 
Q 14.9375 54.109375 19.578125 55.046875 
Q 24.21875 56 28.609375 56 
Q 40.484375 56 46.34375 49.84375 
Q 52.203125 43.703125 52.203125 31.203125 
z
" id="DejaVuSans-97"/>
      <path d="M 54.890625 54.6875 
L 35.109375 28.078125 
L 55.90625 0 
L 45.3125 0 
L 29.390625 21.484375 
L 13.484375 0 
L 2.875 0 
L 24.125 28.609375 
L 4.6875 54.6875 
L 15.28125 54.6875 
L 29.78125 35.203125 
L 44.28125 54.6875 
z
" id="DejaVuSans-120"/>
      <path id="DejaVuSans-32"/>
      <path d="M 9.8125 72.90625 
L 19.671875 72.90625 
L 19.671875 5.078125 
Q 19.671875 -8.109375 14.671875 -14.0625 
Q 9.671875 -20.015625 -1.421875 -20.015625 
L -5.171875 -20.015625 
L -5.171875 -11.71875 
L -2.09375 -11.71875 
Q 4.4375 -11.71875 7.125 -8.046875 
Q 9.8125 -4.390625 9.8125 5.078125 
z
" id="DejaVuSans-74"/>
      <path d="M 53.515625 70.515625 
L 53.515625 60.890625 
Q 47.90625 63.578125 42.921875 64.890625 
Q 37.9375 66.21875 33.296875 66.21875 
Q 25.25 66.21875 20.875 63.09375 
Q 16.5 59.96875 16.5 54.203125 
Q 16.5 49.359375 19.40625 46.890625 
Q 22.3125 44.4375 30.421875 42.921875 
L 36.375 41.703125 
Q 47.40625 39.59375 52.65625 34.296875 
Q 57.90625 29 57.90625 20.125 
Q 57.90625 9.515625 50.796875 4.046875 
Q 43.703125 -1.421875 29.984375 -1.421875 
Q 24.8125 -1.421875 18.96875 -0.25 
Q 13.140625 0.921875 6.890625 3.21875 
L 6.890625 13.375 
Q 12.890625 10.015625 18.65625 8.296875 
Q 24.421875 6.59375 29.984375 6.59375 
Q 38.421875 6.59375 43.015625 9.90625 
Q 47.609375 13.234375 47.609375 19.390625 
Q 47.609375 24.75 44.3125 27.78125 
Q 41.015625 30.8125 33.5 32.328125 
L 27.484375 33.5 
Q 16.453125 35.6875 11.515625 40.375 
Q 6.59375 45.0625 6.59375 53.421875 
Q 6.59375 63.09375 13.40625 68.65625 
Q 20.21875 74.21875 32.171875 74.21875 
Q 37.3125 74.21875 42.625 73.28125 
Q 47.953125 72.359375 53.515625 70.515625 
z
" id="DejaVuSans-83"/>
      <path d="M 19.671875 64.796875 
L 19.671875 8.109375 
L 31.59375 8.109375 
Q 46.6875 8.109375 53.6875 14.9375 
Q 60.6875 21.78125 60.6875 36.53125 
Q 60.6875 51.171875 53.6875 57.984375 
Q 46.6875 64.796875 31.59375 64.796875 
z
M 9.8125 72.90625 
L 30.078125 72.90625 
Q 51.265625 72.90625 61.171875 64.09375 
Q 71.09375 55.28125 71.09375 36.53125 
Q 71.09375 17.671875 61.125 8.828125 
Q 51.171875 0 30.078125 0 
L 9.8125 0 
z
" id="DejaVuSans-68"/>
      <path d="M 9.421875 54.6875 
L 18.40625 54.6875 
L 18.40625 0 
L 9.421875 0 
z
M 9.421875 75.984375 
L 18.40625 75.984375 
L 18.40625 64.59375 
L 9.421875 64.59375 
z
" id="DejaVuSans-105"/>
      <path d="M 2.984375 54.6875 
L 12.5 54.6875 
L 29.59375 8.796875 
L 46.6875 54.6875 
L 56.203125 54.6875 
L 35.6875 0 
L 23.484375 0 
z
" id="DejaVuSans-118"/>
      <path d="M 56.203125 29.59375 
L 56.203125 25.203125 
L 14.890625 25.203125 
Q 15.484375 15.921875 20.484375 11.0625 
Q 25.484375 6.203125 34.421875 6.203125 
Q 39.59375 6.203125 44.453125 7.46875 
Q 49.3125 8.734375 54.109375 11.28125 
L 54.109375 2.78125 
Q 49.265625 0.734375 44.1875 -0.34375 
Q 39.109375 -1.421875 33.890625 -1.421875 
Q 20.796875 -1.421875 13.15625 6.1875 
Q 5.515625 13.8125 5.515625 26.8125 
Q 5.515625 40.234375 12.765625 48.109375 
Q 20.015625 56 32.328125 56 
Q 43.359375 56 49.78125 48.890625 
Q 56.203125 41.796875 56.203125 29.59375 
z
M 47.21875 32.234375 
Q 47.125 39.59375 43.09375 43.984375 
Q 39.0625 48.390625 32.421875 48.390625 
Q 24.90625 48.390625 20.390625 44.140625 
Q 15.875 39.890625 15.1875 32.171875 
z
" id="DejaVuSans-101"/>
      <path d="M 41.109375 46.296875 
Q 39.59375 47.171875 37.8125 47.578125 
Q 36.03125 48 33.890625 48 
Q 26.265625 48 22.1875 43.046875 
Q 18.109375 38.09375 18.109375 28.8125 
L 18.109375 0 
L 9.078125 0 
L 9.078125 54.6875 
L 18.109375 54.6875 
L 18.109375 46.1875 
Q 20.953125 51.171875 25.484375 53.578125 
Q 30.03125 56 36.53125 56 
Q 37.453125 56 38.578125 55.875 
Q 39.703125 55.765625 41.0625 55.515625 
z
" id="DejaVuSans-114"/>
      <path d="M 45.40625 27.984375 
Q 45.40625 37.75 41.375 43.109375 
Q 37.359375 48.484375 30.078125 48.484375 
Q 22.859375 48.484375 18.828125 43.109375 
Q 14.796875 37.75 14.796875 27.984375 
Q 14.796875 18.265625 18.828125 12.890625 
Q 22.859375 7.515625 30.078125 7.515625 
Q 37.359375 7.515625 41.375 12.890625 
Q 45.40625 18.265625 45.40625 27.984375 
z
M 54.390625 6.78125 
Q 54.390625 -7.171875 48.1875 -13.984375 
Q 42 -20.796875 29.203125 -20.796875 
Q 24.46875 -20.796875 20.265625 -20.09375 
Q 16.0625 -19.390625 12.109375 -17.921875 
L 12.109375 -9.1875 
Q 16.0625 -11.328125 19.921875 -12.34375 
Q 23.78125 -13.375 27.78125 -13.375 
Q 36.625 -13.375 41.015625 -8.765625 
Q 45.40625 -4.15625 45.40625 5.171875 
L 45.40625 9.625 
Q 42.625 4.78125 38.28125 2.390625 
Q 33.9375 0 27.875 0 
Q 17.828125 0 11.671875 7.65625 
Q 5.515625 15.328125 5.515625 27.984375 
Q 5.515625 40.671875 11.671875 48.328125 
Q 17.828125 56 27.875 56 
Q 33.9375 56 38.28125 53.609375 
Q 42.625 51.21875 45.40625 46.390625 
L 45.40625 54.6875 
L 54.390625 54.6875 
z
" id="DejaVuSans-103"/>
      <path d="M 54.890625 33.015625 
L 54.890625 0 
L 45.90625 0 
L 45.90625 32.71875 
Q 45.90625 40.484375 42.875 44.328125 
Q 39.84375 48.1875 33.796875 48.1875 
Q 26.515625 48.1875 22.3125 43.546875 
Q 18.109375 38.921875 18.109375 30.90625 
L 18.109375 0 
L 9.078125 0 
L 9.078125 54.6875 
L 18.109375 54.6875 
L 18.109375 46.1875 
Q 21.34375 51.125 25.703125 53.5625 
Q 30.078125 56 35.796875 56 
Q 45.21875 56 50.046875 50.171875 
Q 54.890625 44.34375 54.890625 33.015625 
z
" id="DejaVuSans-110"/>
      <path d="M 48.78125 52.59375 
L 48.78125 44.1875 
Q 44.96875 46.296875 41.140625 47.34375 
Q 37.3125 48.390625 33.40625 48.390625 
Q 24.65625 48.390625 19.8125 42.84375 
Q 14.984375 37.3125 14.984375 27.296875 
Q 14.984375 17.28125 19.8125 11.734375 
Q 24.65625 6.203125 33.40625 6.203125 
Q 37.3125 6.203125 41.140625 7.25 
Q 44.96875 8.296875 48.78125 10.40625 
L 48.78125 2.09375 
Q 45.015625 0.34375 40.984375 -0.53125 
Q 36.96875 -1.421875 32.421875 -1.421875 
Q 20.0625 -1.421875 12.78125 6.34375 
Q 5.515625 14.109375 5.515625 27.296875 
Q 5.515625 40.671875 12.859375 48.328125 
Q 20.21875 56 33.015625 56 
Q 37.15625 56 41.109375 55.140625 
Q 45.0625 54.296875 48.78125 52.59375 
z
" id="DejaVuSans-99"/>
      <path d="M 4.203125 54.6875 
L 13.1875 54.6875 
L 24.421875 12.015625 
L 35.59375 54.6875 
L 46.1875 54.6875 
L 57.421875 12.015625 
L 68.609375 54.6875 
L 77.59375 54.6875 
L 63.28125 0 
L 52.6875 0 
L 40.921875 44.828125 
L 29.109375 0 
L 18.5 0 
z
" id="DejaVuSans-119"/>
      <path d="M 18.3125 70.21875 
L 18.3125 54.6875 
L 36.8125 54.6875 
L 36.8125 47.703125 
L 18.3125 47.703125 
L 18.3125 18.015625 
Q 18.3125 11.328125 20.140625 9.421875 
Q 21.96875 7.515625 27.59375 7.515625 
L 36.8125 7.515625 
L 36.8125 0 
L 27.59375 0 
Q 17.1875 0 13.234375 3.875 
Q 9.28125 7.765625 9.28125 18.015625 
L 9.28125 47.703125 
L 2.6875 47.703125 
L 2.6875 54.6875 
L 9.28125 54.6875 
L 9.28125 70.21875 
z
" id="DejaVuSans-116"/>
      <path d="M 54.890625 33.015625 
L 54.890625 0 
L 45.90625 0 
L 45.90625 32.71875 
Q 45.90625 40.484375 42.875 44.328125 
Q 39.84375 48.1875 33.796875 48.1875 
Q 26.515625 48.1875 22.3125 43.546875 
Q 18.109375 38.921875 18.109375 30.90625 
L 18.109375 0 
L 9.078125 0 
L 9.078125 75.984375 
L 18.109375 75.984375 
L 18.109375 46.1875 
Q 21.34375 51.125 25.703125 53.5625 
Q 30.078125 56 35.796875 56 
Q 45.21875 56 50.046875 50.171875 
Q 54.890625 44.34375 54.890625 33.015625 
z
" id="DejaVuSans-104"/>
      <path d="M 19.734375 29.5 
Q 14.453125 30.671875 12.15625 33.84375 
Q 10.453125 36.078125 10.453125 39.109375 
Q 10.453125 47.40625 18.359375 52.25 
Q 24.609375 56.0625 34.1875 56.0625 
Q 37.890625 56.0625 41.9375 55.46875 
Q 46 54.890625 50.53125 53.71875 
L 48.96875 45.5625 
Q 44.484375 46.96875 40.71875 47.609375 
Q 36.859375 48.25 33.40625 48.25 
Q 27.59375 48.25 23.78125 46 
Q 19.1875 43.3125 19.1875 39.40625 
Q 19.1875 36.8125 21.578125 35.015625 
Q 24.421875 32.859375 30.078125 32.859375 
L 37.640625 32.859375 
L 36.234375 25.4375 
L 29 25.4375 
Q 22.265625 25.4375 18.3125 22.953125 
Q 12.9375 19.578125 12.9375 14.3125 
Q 12.9375 10.984375 15.828125 8.796875 
Q 19.4375 6.0625 26.8125 6.0625 
Q 31.34375 6.0625 35.6875 6.9375 
Q 40.046875 7.859375 43.84375 9.671875 
L 42.1875 1.3125 
Q 37.546875 -0.046875 33.296875 -0.734375 
Q 29.046875 -1.421875 25.140625 -1.421875 
Q 13.53125 -1.421875 8.0625 3.03125 
Q 3.90625 6.453125 3.90625 12.203125 
Q 3.90625 19.96875 9.375 24.75 
Q 13.421875 28.328125 19.734375 29.5 
z
" id="DejaVuSans-Oblique-949"/>
     </defs>
     <g transform="translate(40.676667 315.909583)scale(0.2 -0.2)">
      <use transform="translate(0 0.015625)" xlink:href="#DejaVuSans-77"/>
      <use transform="translate(86.279297 0.015625)" xlink:href="#DejaVuSans-97"/>
      <use transform="translate(147.558594 0.015625)" xlink:href="#DejaVuSans-120"/>
      <use transform="translate(206.738281 0.015625)" xlink:href="#DejaVuSans-32"/>
      <use transform="translate(238.525391 0.015625)" xlink:href="#DejaVuSans-74"/>
      <use transform="translate(268.017578 0.015625)" xlink:href="#DejaVuSans-83"/>
      <use transform="translate(331.494141 0.015625)" xlink:href="#DejaVuSans-32"/>
      <use transform="translate(363.28125 0.015625)" xlink:href="#DejaVuSans-68"/>
      <use transform="translate(440.283203 0.015625)" xlink:href="#DejaVuSans-105"/>
      <use transform="translate(468.066406 0.015625)" xlink:href="#DejaVuSans-118"/>
      <use transform="translate(527.246094 0.015625)" xlink:href="#DejaVuSans-101"/>
      <use transform="translate(588.769531 0.015625)" xlink:href="#DejaVuSans-114"/>
      <use transform="translate(629.882812 0.015625)" xlink:href="#DejaVuSans-103"/>
      <use transform="translate(693.359375 0.015625)" xlink:href="#DejaVuSans-101"/>
      <use transform="translate(754.882812 0.015625)" xlink:href="#DejaVuSans-110"/>
      <use transform="translate(818.261719 0.015625)" xlink:href="#DejaVuSans-99"/>
      <use transform="translate(873.242188 0.015625)" xlink:href="#DejaVuSans-101"/>
      <use transform="translate(934.765625 0.015625)" xlink:href="#DejaVuSans-32"/>
      <use transform="translate(966.552734 0.015625)" xlink:href="#DejaVuSans-119"/>
      <use transform="translate(1048.339844 0.015625)" xlink:href="#DejaVuSans-105"/>
      <use transform="translate(1076.123047 0.015625)" xlink:href="#DejaVuSans-116"/>
      <use transform="translate(1115.332031 0.015625)" xlink:href="#DejaVuSans-104"/>
      <use transform="translate(1178.710938 0.015625)" xlink:href="#DejaVuSans-105"/>
      <use transform="translate(1206.494141 0.015625)" xlink:href="#DejaVuSans-110"/>
      <use transform="translate(1269.873047 0.015625)" xlink:href="#DejaVuSans-32"/>
      <use transform="translate(1301.660156 0.015625)" xlink:href="#DejaVuSans-Oblique-949"/>
     </g>
    </g>
   </g>
   <g id="matplotlib.axis_2">
    <g id="ytick_1">
     <g id="line2d_5">
      <defs>
       <path d="M 0 0 
L -3.5 0 
" id="m384918cd3e" style="stroke:#000000;stroke-width:1.6;"/>
      </defs>
      <g>
       <use style="stroke:#000000;stroke-width:1.6;" x="46.7" xlink:href="#m384918cd3e" y="262.653333"/>
      </g>
     </g>
     <g id="text_6">
      <!-- 0.0 -->
      <g transform="translate(0.19375 270.251771)scale(0.2 -0.2)">
       <use xlink:href="#DejaVuSans-48"/>
       <use x="63.623047" xlink:href="#DejaVuSans-46"/>
       <use x="95.410156" xlink:href="#DejaVuSans-48"/>
      </g>
     </g>
    </g>
    <g id="ytick_2">
     <g id="line2d_6">
      <g>
       <use style="stroke:#000000;stroke-width:1.6;" x="46.7" xlink:href="#m384918cd3e" y="177.911499"/>
      </g>
     </g>
     <g id="text_7">
      <!-- 0.2 -->
      <g transform="translate(0.19375 185.509936)scale(0.2 -0.2)">
       <use xlink:href="#DejaVuSans-48"/>
       <use x="63.623047" xlink:href="#DejaVuSans-46"/>
       <use x="95.410156" xlink:href="#DejaVuSans-50"/>
      </g>
     </g>
    </g>
    <g id="ytick_3">
     <g id="line2d_7">
      <g>
       <use style="stroke:#000000;stroke-width:1.6;" x="46.7" xlink:href="#m384918cd3e" y="93.169665"/>
      </g>
     </g>
     <g id="text_8">
      <!-- 0.4 -->
      <g transform="translate(0.19375 100.768102)scale(0.2 -0.2)">
       <use xlink:href="#DejaVuSans-48"/>
       <use x="63.623047" xlink:href="#DejaVuSans-46"/>
       <use x="95.410156" xlink:href="#DejaVuSans-52"/>
      </g>
     </g>
    </g>
    <g id="ytick_4">
     <g id="line2d_8">
      <g>
       <use style="stroke:#000000;stroke-width:1.6;" x="46.7" xlink:href="#m384918cd3e" y="8.42783"/>
      </g>
     </g>
     <g id="text_9">
      <!-- 0.6 -->
      <g transform="translate(0.19375 16.026268)scale(0.2 -0.2)">
       <use xlink:href="#DejaVuSans-48"/>
       <use x="63.623047" xlink:href="#DejaVuSans-46"/>
       <use x="95.410156" xlink:href="#DejaVuSans-54"/>
      </g>
     </g>
    </g>
   </g>
   <g id="patch_83">
    <path d="M 46.7 262.653333 
L 46.7 3.5 
" style="fill:none;stroke:#000000;stroke-linecap:square;stroke-linejoin:miter;stroke-width:0.8;"/>
   </g>
   <g id="patch_84">
    <path d="M 46.7 262.653333 
L 305.853333 262.653333 
" style="fill:none;stroke:#000000;stroke-linecap:square;stroke-linejoin:miter;stroke-width:0.8;"/>
   </g>
  </g>
  <g id="axes_2">
   <g id="patch_85">
    <path d="M 417.213333 262.653333 
L 676.366667 262.653333 
L 676.366667 3.5 
L 417.213333 3.5 
z
" style="fill:#ffffff;"/>
   </g>
   <g id="PolyCollection_1">
    <defs>
     <path d="M 647.730146 -300.295481 
L 647.730146 -300.538186 
L 647.994498 -300.554139 
L 648.25885 -300.571288 
L 648.523202 -300.589728 
L 648.787554 -300.609612 
L 649.051906 -300.631166 
L 649.316258 -300.65471 
L 649.58061 -300.680667 
L 649.844962 -300.709573 
L 650.109314 -300.742072 
L 650.373666 -300.778894 
L 650.638018 -300.820833 
L 650.90237 -300.868695 
L 651.166723 -300.923245 
L 651.431075 -300.985144 
L 651.695427 -301.054889 
L 651.959779 -301.13275 
L 652.224131 -301.218735 
L 652.488483 -301.312562 
L 652.752835 -301.413658 
L 653.017187 -301.521192 
L 653.281539 -301.63412 
L 653.545891 -301.751255 
L 653.810243 -301.871356 
L 654.074595 -301.993211 
L 654.338947 -302.115721 
L 654.603299 -302.237965 
L 654.867651 -302.359246 
L 655.132003 -302.479095 
L 655.396355 -302.597259 
L 655.660707 -302.713651 
L 655.925059 -302.828277 
L 656.189411 -302.941156 
L 656.453763 -303.052236 
L 656.718116 -303.161325 
L 656.982468 -303.268042 
L 657.24682 -303.371798 
L 657.511172 -303.471804 
L 657.775524 -303.567107 
L 658.039876 -303.656644 
L 658.304228 -303.7393 
L 658.56858 -303.813966 
L 658.832932 -303.879584 
L 659.097284 -303.93517 
L 659.361636 -303.979827 
L 659.625988 -304.012741 
L 659.89034 -304.033176 
L 660.154692 -304.040475 
L 660.419044 -304.034072 
L 660.683396 -304.013534 
L 660.947748 -303.978612 
L 661.2121 -303.929314 
L 661.476452 -303.86598 
L 661.740804 -303.789343 
L 662.005156 -303.700572 
L 662.269509 -303.601269 
L 662.533861 -303.493436 
L 662.798213 -303.379387 
L 663.062565 -303.261634 
L 663.326917 -303.142753 
L 663.591269 -303.025238 
L 663.855621 -302.911385 
L 664.119973 -302.803198 
L 664.384325 -302.702347 
L 664.648677 -302.610177 
L 664.913029 -302.527771 
L 665.177381 -302.456058 
L 665.441733 -302.395958 
L 665.706085 -302.348552 
L 665.970437 -302.315265 
L 666.234789 -302.298042 
L 666.499141 -302.299516 
L 666.763493 -302.32315 
L 667.027845 -302.373346 
L 667.292197 -302.455497 
L 667.55655 -302.575983 
L 667.820902 -302.742062 
L 668.085254 -302.961654 
L 668.349606 -303.242975 
L 668.613958 -303.594014 
L 668.87831 -304.021834 
L 669.142662 -304.531715 
L 669.407014 -305.126185 
L 669.671366 -305.803995 
L 669.935718 -306.55915 
L 670.20007 -307.380127 
L 670.464422 -308.249409 
L 670.728774 -309.143471 
L 670.993126 -310.033331 
L 671.257478 -310.885704 
L 671.52183 -311.664754 
L 671.786182 -312.334345 
L 672.050534 -312.860599 
L 672.314886 -313.214536 
L 672.579238 -313.3745 
L 672.84359 -313.328106 
L 673.107943 -313.073452 
L 673.372295 -312.619451 
L 673.636647 -311.985221 
L 673.900999 -311.198587 
L 673.900999 -289.63508 
L 673.900999 -289.63508 
L 673.636647 -288.848446 
L 673.372295 -288.214215 
L 673.107943 -287.760215 
L 672.84359 -287.505561 
L 672.579238 -287.459167 
L 672.314886 -287.619131 
L 672.050534 -287.973067 
L 671.786182 -288.499321 
L 671.52183 -289.168912 
L 671.257478 -289.947963 
L 670.993126 -290.800335 
L 670.728774 -291.690195 
L 670.464422 -292.584258 
L 670.20007 -293.45354 
L 669.935718 -294.274517 
L 669.671366 -295.029672 
L 669.407014 -295.707481 
L 669.142662 -296.301951 
L 668.87831 -296.811833 
L 668.613958 -297.239652 
L 668.349606 -297.590691 
L 668.085254 -297.872013 
L 667.820902 -298.091604 
L 667.55655 -298.257684 
L 667.292197 -298.37817 
L 667.027845 -298.460321 
L 666.763493 -298.510517 
L 666.499141 -298.534151 
L 666.234789 -298.535625 
L 665.970437 -298.518402 
L 665.706085 -298.485115 
L 665.441733 -298.437709 
L 665.177381 -298.377609 
L 664.913029 -298.305895 
L 664.648677 -298.22349 
L 664.384325 -298.13132 
L 664.119973 -298.030469 
L 663.855621 -297.922282 
L 663.591269 -297.808429 
L 663.326917 -297.690914 
L 663.062565 -297.572032 
L 662.798213 -297.45428 
L 662.533861 -297.340231 
L 662.269509 -297.232397 
L 662.005156 -297.133095 
L 661.740804 -297.044324 
L 661.476452 -296.967687 
L 661.2121 -296.904353 
L 660.947748 -296.855055 
L 660.683396 -296.820133 
L 660.419044 -296.799594 
L 660.154692 -296.793192 
L 659.89034 -296.80049 
L 659.625988 -296.820926 
L 659.361636 -296.85384 
L 659.097284 -296.898497 
L 658.832932 -296.954083 
L 658.56858 -297.0197 
L 658.304228 -297.094367 
L 658.039876 -297.177023 
L 657.775524 -297.26656 
L 657.511172 -297.361863 
L 657.24682 -297.461869 
L 656.982468 -297.565624 
L 656.718116 -297.672342 
L 656.453763 -297.781431 
L 656.189411 -297.89251 
L 655.925059 -298.005389 
L 655.660707 -298.120015 
L 655.396355 -298.236407 
L 655.132003 -298.354572 
L 654.867651 -298.474421 
L 654.603299 -298.595701 
L 654.338947 -298.717946 
L 654.074595 -298.840456 
L 653.810243 -298.962311 
L 653.545891 -299.082412 
L 653.281539 -299.199547 
L 653.017187 -299.312474 
L 652.752835 -299.420009 
L 652.488483 -299.521105 
L 652.224131 -299.614931 
L 651.959779 -299.700916 
L 651.695427 -299.778778 
L 651.431075 -299.848522 
L 651.166723 -299.910422 
L 650.90237 -299.964972 
L 650.638018 -300.012834 
L 650.373666 -300.054773 
L 650.109314 -300.091595 
L 649.844962 -300.124093 
L 649.58061 -300.153 
L 649.316258 -300.178957 
L 649.051906 -300.202501 
L 648.787554 -300.224055 
L 648.523202 -300.243938 
L 648.25885 -300.262379 
L 647.994498 -300.279528 
L 647.730146 -300.295481 
z
" id="me15b4db005" style="stroke:#424242;"/>
    </defs>
    <g clip-path="url(#p811883f406)">
     <use style="fill:#7c78ab;stroke:#424242;" x="0" xlink:href="#me15b4db005" y="323.353333"/>
    </g>
   </g>
   <g id="PolyCollection_2">
    <defs>
     <path d="M 620.304283 -274.472685 
L 620.304283 -274.530315 
L 620.838753 -274.531067 
L 621.373223 -274.531118 
L 621.907694 -274.531106 
L 622.442164 -274.531802 
L 622.976634 -274.533943 
L 623.511104 -274.53809 
L 624.045575 -274.544572 
L 624.580045 -274.553511 
L 625.114515 -274.564911 
L 625.648985 -274.578781 
L 626.183456 -274.595237 
L 626.717926 -274.614589 
L 627.252396 -274.637392 
L 627.786866 -274.664455 
L 628.321337 -274.696795 
L 628.855807 -274.73552 
L 629.390277 -274.781651 
L 629.924748 -274.83593 
L 630.459218 -274.898697 
L 630.993688 -274.969891 
L 631.528158 -275.049212 
L 632.062629 -275.13637 
L 632.597099 -275.231324 
L 633.131569 -275.334376 
L 633.666039 -275.446041 
L 634.20051 -275.566694 
L 634.73498 -275.696101 
L 635.26945 -275.833027 
L 635.80392 -275.975122 
L 636.338391 -276.1192 
L 636.872861 -276.261879 
L 637.407331 -276.400381 
L 637.941801 -276.533238 
L 638.476272 -276.660681 
L 639.010742 -276.784629 
L 639.545212 -276.908348 
L 640.079683 -277.035907 
L 640.614153 -277.17154 
L 641.148623 -277.318966 
L 641.683093 -277.480701 
L 642.217564 -277.657436 
L 642.752034 -277.84763 
L 643.286504 -278.047508 
L 643.820974 -278.25152 
L 644.355445 -278.45317 
L 644.889915 -278.645988 
L 645.424385 -278.824361 
L 645.958855 -278.984079 
L 646.493326 -279.122559 
L 647.027796 -279.238853 
L 647.562266 -279.333512 
L 648.096736 -279.408338 
L 648.631207 -279.466029 
L 649.165677 -279.509702 
L 649.700147 -279.542327 
L 650.234618 -279.566152 
L 650.769088 -279.582188 
L 651.303558 -279.589885 
L 651.838028 -279.587104 
L 652.372499 -279.570513 
L 652.906969 -279.536384 
L 653.441439 -279.481641 
L 653.975909 -279.404775 
L 654.51038 -279.306257 
L 655.04485 -279.18822 
L 655.57932 -279.053491 
L 656.11379 -278.904361 
L 656.648261 -278.741602 
L 657.182731 -278.564132 
L 657.717201 -278.369481 
L 658.251671 -278.154885 
L 658.786142 -277.918669 
L 659.320612 -277.661448 
L 659.855082 -277.3868 
L 660.389552 -277.101177 
L 660.924023 -276.813098 
L 661.458493 -276.531847 
L 661.992963 -276.266054 
L 662.527434 -276.022511 
L 663.061904 -275.805465 
L 663.596374 -275.616472 
L 664.130844 -275.45471 
L 664.665315 -275.317624 
L 665.199785 -275.201713 
L 665.734255 -275.103311 
L 666.268725 -275.019229 
L 666.803196 -274.947143 
L 667.337666 -274.885695 
L 667.872136 -274.834294 
L 668.406606 -274.792733 
L 668.941077 -274.760729 
L 669.475547 -274.737542 
L 670.010017 -274.721751 
L 670.544487 -274.711265 
L 671.078958 -274.703526 
L 671.613428 -274.695894 
L 672.147898 -274.686091 
L 672.682369 -274.672618 
L 673.216839 -274.655019 
L 673.216839 -274.347981 
L 673.216839 -274.347981 
L 672.682369 -274.330382 
L 672.147898 -274.316909 
L 671.613428 -274.307106 
L 671.078958 -274.299474 
L 670.544487 -274.291735 
L 670.010017 -274.281249 
L 669.475547 -274.265458 
L 668.941077 -274.242271 
L 668.406606 -274.210267 
L 667.872136 -274.168706 
L 667.337666 -274.117305 
L 666.803196 -274.055857 
L 666.268725 -273.983771 
L 665.734255 -273.899689 
L 665.199785 -273.801287 
L 664.665315 -273.685376 
L 664.130844 -273.54829 
L 663.596374 -273.386528 
L 663.061904 -273.197535 
L 662.527434 -272.980489 
L 661.992963 -272.736946 
L 661.458493 -272.471153 
L 660.924023 -272.189902 
L 660.389552 -271.901823 
L 659.855082 -271.6162 
L 659.320612 -271.341552 
L 658.786142 -271.084331 
L 658.251671 -270.848115 
L 657.717201 -270.633519 
L 657.182731 -270.438868 
L 656.648261 -270.261398 
L 656.11379 -270.098639 
L 655.57932 -269.949509 
L 655.04485 -269.81478 
L 654.51038 -269.696743 
L 653.975909 -269.598225 
L 653.441439 -269.521359 
L 652.906969 -269.466616 
L 652.372499 -269.432487 
L 651.838028 -269.415896 
L 651.303558 -269.413115 
L 650.769088 -269.420812 
L 650.234618 -269.436848 
L 649.700147 -269.460673 
L 649.165677 -269.493298 
L 648.631207 -269.536971 
L 648.096736 -269.594662 
L 647.562266 -269.669488 
L 647.027796 -269.764147 
L 646.493326 -269.880441 
L 645.958855 -270.018921 
L 645.424385 -270.178639 
L 644.889915 -270.357012 
L 644.355445 -270.54983 
L 643.820974 -270.75148 
L 643.286504 -270.955492 
L 642.752034 -271.15537 
L 642.217564 -271.345564 
L 641.683093 -271.522299 
L 641.148623 -271.684034 
L 640.614153 -271.83146 
L 640.079683 -271.967093 
L 639.545212 -272.094652 
L 639.010742 -272.218371 
L 638.476272 -272.342319 
L 637.941801 -272.469762 
L 637.407331 -272.602619 
L 636.872861 -272.741121 
L 636.338391 -272.8838 
L 635.80392 -273.027878 
L 635.26945 -273.169973 
L 634.73498 -273.306899 
L 634.20051 -273.436306 
L 633.666039 -273.556959 
L 633.131569 -273.668624 
L 632.597099 -273.771676 
L 632.062629 -273.86663 
L 631.528158 -273.953788 
L 630.993688 -274.033109 
L 630.459218 -274.104303 
L 629.924748 -274.16707 
L 629.390277 -274.221349 
L 628.855807 -274.26748 
L 628.321337 -274.306205 
L 627.786866 -274.338545 
L 627.252396 -274.365608 
L 626.717926 -274.388411 
L 626.183456 -274.407763 
L 625.648985 -274.424219 
L 625.114515 -274.438089 
L 624.580045 -274.449489 
L 624.045575 -274.458428 
L 623.511104 -274.46491 
L 622.976634 -274.469057 
L 622.442164 -274.471198 
L 621.907694 -274.471894 
L 621.373223 -274.471882 
L 620.838753 -274.471933 
L 620.304283 -274.472685 
z
" id="m2f861bb580" style="stroke:#424242;"/>
    </defs>
    <g clip-path="url(#p811883f406)">
     <use style="fill:#be631d;stroke:#424242;" x="0" xlink:href="#m2f861bb580" y="323.353333"/>
    </g>
   </g>
   <g id="PolyCollection_3">
    <defs>
     <path d="M 644.381431 -232.595843 
L 644.381431 -238.661157 
L 644.61679 -238.69582 
L 644.852148 -238.729957 
L 645.087506 -238.763566 
L 645.322864 -238.796648 
L 645.558223 -238.829203 
L 645.793581 -238.861233 
L 646.028939 -238.892741 
L 646.264297 -238.923732 
L 646.499656 -238.95421 
L 646.735014 -238.984181 
L 646.970372 -239.013651 
L 647.20573 -239.042628 
L 647.441089 -239.071118 
L 647.676447 -239.099131 
L 647.911805 -239.126673 
L 648.147163 -239.153754 
L 648.382522 -239.180382 
L 648.61788 -239.206566 
L 648.853238 -239.232314 
L 649.088596 -239.257635 
L 649.323955 -239.282538 
L 649.559313 -239.30703 
L 649.794671 -239.331117 
L 650.030029 -239.354809 
L 650.265388 -239.378109 
L 650.500746 -239.401024 
L 650.736104 -239.423559 
L 650.971462 -239.445717 
L 651.206821 -239.467502 
L 651.442179 -239.488914 
L 651.677537 -239.509954 
L 651.912895 -239.530623 
L 652.148254 -239.550919 
L 652.383612 -239.570838 
L 652.61897 -239.590376 
L 652.854328 -239.609529 
L 653.089687 -239.62829 
L 653.325045 -239.64665 
L 653.560403 -239.664599 
L 653.795761 -239.682128 
L 654.03112 -239.699224 
L 654.266478 -239.715874 
L 654.501836 -239.732063 
L 654.737194 -239.747775 
L 654.972553 -239.762992 
L 655.207911 -239.777696 
L 655.443269 -239.791868 
L 655.678627 -239.805487 
L 655.913986 -239.81853 
L 656.149344 -239.830976 
L 656.384702 -239.842799 
L 656.62006 -239.853977 
L 656.855419 -239.864483 
L 657.090777 -239.874292 
L 657.326135 -239.883377 
L 657.561493 -239.89171 
L 657.796852 -239.899265 
L 658.03221 -239.906013 
L 658.267568 -239.911927 
L 658.502926 -239.916978 
L 658.738285 -239.921139 
L 658.973643 -239.924381 
L 659.209001 -239.926677 
L 659.444359 -239.928 
L 659.679718 -239.928321 
L 659.915076 -239.927616 
L 660.150434 -239.925858 
L 660.385792 -239.923022 
L 660.621151 -239.919083 
L 660.856509 -239.91402 
L 661.091867 -239.907809 
L 661.327225 -239.90043 
L 661.562584 -239.891862 
L 661.797942 -239.882088 
L 662.0333 -239.87109 
L 662.268658 -239.858853 
L 662.504017 -239.845363 
L 662.739375 -239.830607 
L 662.974733 -239.814576 
L 663.210091 -239.79726 
L 663.44545 -239.778652 
L 663.680808 -239.758747 
L 663.916166 -239.737542 
L 664.151524 -239.715037 
L 664.386883 -239.691231 
L 664.622241 -239.666128 
L 664.857599 -239.639732 
L 665.092957 -239.612051 
L 665.328316 -239.583094 
L 665.563674 -239.552872 
L 665.799032 -239.521398 
L 666.03439 -239.488687 
L 666.269749 -239.454757 
L 666.505107 -239.419628 
L 666.740465 -239.383321 
L 666.975823 -239.345859 
L 667.211182 -239.307267 
L 667.44654 -239.267573 
L 667.681898 -239.226807 
L 667.681898 -232.030193 
L 667.681898 -232.030193 
L 667.44654 -231.989427 
L 667.211182 -231.949733 
L 666.975823 -231.911141 
L 666.740465 -231.873679 
L 666.505107 -231.837372 
L 666.269749 -231.802243 
L 666.03439 -231.768313 
L 665.799032 -231.735602 
L 665.563674 -231.704128 
L 665.328316 -231.673906 
L 665.092957 -231.644949 
L 664.857599 -231.617268 
L 664.622241 -231.590872 
L 664.386883 -231.565769 
L 664.151524 -231.541963 
L 663.916166 -231.519458 
L 663.680808 -231.498253 
L 663.44545 -231.478348 
L 663.210091 -231.45974 
L 662.974733 -231.442424 
L 662.739375 -231.426393 
L 662.504017 -231.411637 
L 662.268658 -231.398147 
L 662.0333 -231.38591 
L 661.797942 -231.374912 
L 661.562584 -231.365138 
L 661.327225 -231.35657 
L 661.091867 -231.349191 
L 660.856509 -231.34298 
L 660.621151 -231.337917 
L 660.385792 -231.333978 
L 660.150434 -231.331142 
L 659.915076 -231.329384 
L 659.679718 -231.328679 
L 659.444359 -231.329 
L 659.209001 -231.330323 
L 658.973643 -231.332619 
L 658.738285 -231.335861 
L 658.502926 -231.340022 
L 658.267568 -231.345073 
L 658.03221 -231.350987 
L 657.796852 -231.357735 
L 657.561493 -231.36529 
L 657.326135 -231.373623 
L 657.090777 -231.382708 
L 656.855419 -231.392517 
L 656.62006 -231.403023 
L 656.384702 -231.414201 
L 656.149344 -231.426024 
L 655.913986 -231.43847 
L 655.678627 -231.451513 
L 655.443269 -231.465132 
L 655.207911 -231.479304 
L 654.972553 -231.494008 
L 654.737194 -231.509225 
L 654.501836 -231.524937 
L 654.266478 -231.541126 
L 654.03112 -231.557776 
L 653.795761 -231.574872 
L 653.560403 -231.592401 
L 653.325045 -231.61035 
L 653.089687 -231.62871 
L 652.854328 -231.647471 
L 652.61897 -231.666624 
L 652.383612 -231.686162 
L 652.148254 -231.706081 
L 651.912895 -231.726377 
L 651.677537 -231.747046 
L 651.442179 -231.768086 
L 651.206821 -231.789498 
L 650.971462 -231.811283 
L 650.736104 -231.833441 
L 650.500746 -231.855976 
L 650.265388 -231.878891 
L 650.030029 -231.902191 
L 649.794671 -231.925883 
L 649.559313 -231.94997 
L 649.323955 -231.974462 
L 649.088596 -231.999365 
L 648.853238 -232.024686 
L 648.61788 -232.050434 
L 648.382522 -232.076618 
L 648.147163 -232.103246 
L 647.911805 -232.130327 
L 647.676447 -232.157869 
L 647.441089 -232.185882 
L 647.20573 -232.214372 
L 646.970372 -232.243349 
L 646.735014 -232.272819 
L 646.499656 -232.30279 
L 646.264297 -232.333268 
L 646.028939 -232.364259 
L 645.793581 -232.395767 
L 645.558223 -232.427797 
L 645.322864 -232.460352 
L 645.087506 -232.493434 
L 644.852148 -232.527043 
L 644.61679 -232.56118 
L 644.381431 -232.595843 
z
" id="m424b53503e" style="stroke:#424242;"/>
    </defs>
    <g clip-path="url(#p811883f406)">
     <use style="fill:#7c78ab;stroke:#424242;" x="0" xlink:href="#m424b53503e" y="323.353333"/>
    </g>
   </g>
   <g id="PolyCollection_4">
    <defs>
     <path d="M 650.266961 -197.401855 
L 650.266961 -222.024478 
L 650.345433 -222.10519 
L 650.423905 -222.180613 
L 650.502378 -222.250696 
L 650.58085 -222.315398 
L 650.659323 -222.374685 
L 650.737795 -222.428537 
L 650.816267 -222.476942 
L 650.89474 -222.519901 
L 650.973212 -222.557422 
L 651.051684 -222.589527 
L 651.130157 -222.616246 
L 651.208629 -222.63762 
L 651.287101 -222.653701 
L 651.365574 -222.664547 
L 651.444046 -222.670232 
L 651.522519 -222.670833 
L 651.600991 -222.666441 
L 651.679463 -222.657154 
L 651.757936 -222.643078 
L 651.836408 -222.624328 
L 651.91488 -222.601025 
L 651.993353 -222.573302 
L 652.071825 -222.541293 
L 652.150298 -222.505142 
L 652.22877 -222.464999 
L 652.307242 -222.421018 
L 652.385715 -222.373359 
L 652.464187 -222.322187 
L 652.542659 -222.267669 
L 652.621132 -222.209976 
L 652.699604 -222.149284 
L 652.778077 -222.085768 
L 652.856549 -222.019606 
L 652.935021 -221.950979 
L 653.013494 -221.880065 
L 653.091966 -221.807044 
L 653.170438 -221.732096 
L 653.248911 -221.655397 
L 653.327383 -221.577125 
L 653.405855 -221.497452 
L 653.484328 -221.416551 
L 653.5628 -221.334588 
L 653.641273 -221.251727 
L 653.719745 -221.168129 
L 653.798217 -221.083948 
L 653.87669 -220.999333 
L 653.955162 -220.914429 
L 654.033634 -220.829374 
L 654.112107 -220.7443 
L 654.190579 -220.659332 
L 654.269052 -220.574588 
L 654.347524 -220.490179 
L 654.425996 -220.406209 
L 654.504469 -220.322774 
L 654.582941 -220.239961 
L 654.661413 -220.157852 
L 654.739886 -220.076518 
L 654.818358 -219.996024 
L 654.896831 -219.916424 
L 654.975303 -219.837766 
L 655.053775 -219.760091 
L 655.132248 -219.683428 
L 655.21072 -219.607802 
L 655.289192 -219.533228 
L 655.367665 -219.459712 
L 655.446137 -219.387256 
L 655.52461 -219.315851 
L 655.603082 -219.245483 
L 655.681554 -219.176131 
L 655.760027 -219.107765 
L 655.838499 -219.040352 
L 655.916971 -218.973851 
L 655.995444 -218.908217 
L 656.073916 -218.843396 
L 656.152388 -218.779333 
L 656.230861 -218.715967 
L 656.309333 -218.653233 
L 656.387806 -218.591062 
L 656.466278 -218.529381 
L 656.54475 -218.468116 
L 656.623223 -218.40719 
L 656.701695 -218.346521 
L 656.780167 -218.28603 
L 656.85864 -218.225634 
L 656.937112 -218.165251 
L 657.015585 -218.104796 
L 657.094057 -218.044186 
L 657.172529 -217.98334 
L 657.251002 -217.922175 
L 657.329474 -217.860611 
L 657.407946 -217.798569 
L 657.486419 -217.735973 
L 657.564891 -217.672749 
L 657.643364 -217.608825 
L 657.721836 -217.544133 
L 657.800308 -217.478607 
L 657.878781 -217.412188 
L 657.957253 -217.344817 
L 658.035725 -217.276441 
L 658.035725 -202.149893 
L 658.035725 -202.149893 
L 657.957253 -202.081516 
L 657.878781 -202.014145 
L 657.800308 -201.947726 
L 657.721836 -201.882201 
L 657.643364 -201.817509 
L 657.564891 -201.753584 
L 657.486419 -201.69036 
L 657.407946 -201.627764 
L 657.329474 -201.565722 
L 657.251002 -201.504158 
L 657.172529 -201.442993 
L 657.094057 -201.382147 
L 657.015585 -201.321538 
L 656.937112 -201.261083 
L 656.85864 -201.200699 
L 656.780167 -201.140303 
L 656.701695 -201.079812 
L 656.623223 -201.019144 
L 656.54475 -200.958217 
L 656.466278 -200.896952 
L 656.387806 -200.835271 
L 656.309333 -200.7731 
L 656.230861 -200.710366 
L 656.152388 -200.647 
L 656.073916 -200.582937 
L 655.995444 -200.518117 
L 655.916971 -200.452482 
L 655.838499 -200.385981 
L 655.760027 -200.318568 
L 655.681554 -200.250203 
L 655.603082 -200.18085 
L 655.52461 -200.110482 
L 655.446137 -200.039077 
L 655.367665 -199.966621 
L 655.289192 -199.893106 
L 655.21072 -199.818531 
L 655.132248 -199.742905 
L 655.053775 -199.666242 
L 654.975303 -199.588567 
L 654.896831 -199.50991 
L 654.818358 -199.43031 
L 654.739886 -199.349815 
L 654.661413 -199.268481 
L 654.582941 -199.186372 
L 654.504469 -199.10356 
L 654.425996 -199.020125 
L 654.347524 -198.936155 
L 654.269052 -198.851746 
L 654.190579 -198.767002 
L 654.112107 -198.682033 
L 654.033634 -198.596959 
L 653.955162 -198.511904 
L 653.87669 -198.427 
L 653.798217 -198.342385 
L 653.719745 -198.258204 
L 653.641273 -198.174606 
L 653.5628 -198.091745 
L 653.484328 -198.009783 
L 653.405855 -197.928881 
L 653.327383 -197.849209 
L 653.248911 -197.770936 
L 653.170438 -197.694238 
L 653.091966 -197.619289 
L 653.013494 -197.546268 
L 652.935021 -197.475354 
L 652.856549 -197.406727 
L 652.778077 -197.340566 
L 652.699604 -197.27705 
L 652.621132 -197.216357 
L 652.542659 -197.158665 
L 652.464187 -197.104147 
L 652.385715 -197.052974 
L 652.307242 -197.005315 
L 652.22877 -196.961334 
L 652.150298 -196.921191 
L 652.071825 -196.885041 
L 651.993353 -196.853032 
L 651.91488 -196.825308 
L 651.836408 -196.802006 
L 651.757936 -196.783255 
L 651.679463 -196.769179 
L 651.600991 -196.759892 
L 651.522519 -196.7555 
L 651.444046 -196.756102 
L 651.365574 -196.761786 
L 651.287101 -196.772633 
L 651.208629 -196.788713 
L 651.130157 -196.810087 
L 651.051684 -196.836806 
L 650.973212 -196.868911 
L 650.89474 -196.906433 
L 650.816267 -196.949391 
L 650.737795 -196.997797 
L 650.659323 -197.051649 
L 650.58085 -197.110936 
L 650.502378 -197.175637 
L 650.423905 -197.24572 
L 650.345433 -197.321144 
L 650.266961 -197.401855 
z
" id="m6680aafa93" style="stroke:#424242;"/>
    </defs>
    <g clip-path="url(#p811883f406)">
     <use style="fill:#be631d;stroke:#424242;" x="0" xlink:href="#m6680aafa93" y="323.353333"/>
    </g>
   </g>
   <g id="patch_86">
    <path clip-path="url(#p811883f406)" d="M 434.490222 35.894167 
L 434.490222 35.894167 
L 434.490222 35.894167 
L 434.490222 35.894167 
z
" style="fill:#7c78ab;stroke:#424242;stroke-linejoin:miter;stroke-width:0.5;"/>
   </g>
   <g id="patch_87">
    <path clip-path="url(#p811883f406)" d="M 434.490222 35.894167 
L 434.490222 35.894167 
L 434.490222 35.894167 
L 434.490222 35.894167 
z
" style="fill:#be631d;stroke:#424242;stroke-linejoin:miter;stroke-width:0.5;"/>
   </g>
   <g id="matplotlib.axis_3">
    <g id="xtick_5">
     <g id="line2d_9">
      <g>
       <use style="stroke:#000000;stroke-width:1.6;" x="434.490222" xlink:href="#mff70e24029" y="262.653333"/>
      </g>
     </g>
     <g id="text_10">
      <!-- 0.0 -->
      <g transform="translate(418.587097 292.550208)scale(0.2 -0.2)">
       <use xlink:href="#DejaVuSans-48"/>
       <use x="63.623047" xlink:href="#DejaVuSans-46"/>
       <use x="95.410156" xlink:href="#DejaVuSans-48"/>
      </g>
     </g>
    </g>
    <g id="xtick_6">
     <g id="line2d_10">
      <g>
       <use style="stroke:#000000;stroke-width:1.6;" x="503.597778" xlink:href="#mff70e24029" y="262.653333"/>
      </g>
     </g>
     <g id="text_11">
      <!-- 0.2 -->
      <g transform="translate(487.694653 292.550208)scale(0.2 -0.2)">
       <use xlink:href="#DejaVuSans-48"/>
       <use x="63.623047" xlink:href="#DejaVuSans-46"/>
       <use x="95.410156" xlink:href="#DejaVuSans-50"/>
      </g>
     </g>
    </g>
    <g id="xtick_7">
     <g id="line2d_11">
      <g>
       <use style="stroke:#000000;stroke-width:1.6;" x="572.705333" xlink:href="#mff70e24029" y="262.653333"/>
      </g>
     </g>
     <g id="text_12">
      <!-- 0.4 -->
      <g transform="translate(556.802208 292.550208)scale(0.2 -0.2)">
       <use xlink:href="#DejaVuSans-48"/>
       <use x="63.623047" xlink:href="#DejaVuSans-46"/>
       <use x="95.410156" xlink:href="#DejaVuSans-52"/>
      </g>
     </g>
    </g>
    <g id="xtick_8">
     <g id="line2d_12">
      <g>
       <use style="stroke:#000000;stroke-width:1.6;" x="641.812889" xlink:href="#mff70e24029" y="262.653333"/>
      </g>
     </g>
     <g id="text_13">
      <!-- 0.6 -->
      <g transform="translate(625.909764 292.550208)scale(0.2 -0.2)">
       <use xlink:href="#DejaVuSans-48"/>
       <use x="63.623047" xlink:href="#DejaVuSans-46"/>
       <use x="95.410156" xlink:href="#DejaVuSans-54"/>
      </g>
     </g>
    </g>
    <g id="text_14">
     <!-- Max JS Divergence within $\epsilon$ -->
     <g transform="translate(411.19 315.909583)scale(0.2 -0.2)">
      <use transform="translate(0 0.015625)" xlink:href="#DejaVuSans-77"/>
      <use transform="translate(86.279297 0.015625)" xlink:href="#DejaVuSans-97"/>
      <use transform="translate(147.558594 0.015625)" xlink:href="#DejaVuSans-120"/>
      <use transform="translate(206.738281 0.015625)" xlink:href="#DejaVuSans-32"/>
      <use transform="translate(238.525391 0.015625)" xlink:href="#DejaVuSans-74"/>
      <use transform="translate(268.017578 0.015625)" xlink:href="#DejaVuSans-83"/>
      <use transform="translate(331.494141 0.015625)" xlink:href="#DejaVuSans-32"/>
      <use transform="translate(363.28125 0.015625)" xlink:href="#DejaVuSans-68"/>
      <use transform="translate(440.283203 0.015625)" xlink:href="#DejaVuSans-105"/>
      <use transform="translate(468.066406 0.015625)" xlink:href="#DejaVuSans-118"/>
      <use transform="translate(527.246094 0.015625)" xlink:href="#DejaVuSans-101"/>
      <use transform="translate(588.769531 0.015625)" xlink:href="#DejaVuSans-114"/>
      <use transform="translate(629.882812 0.015625)" xlink:href="#DejaVuSans-103"/>
      <use transform="translate(693.359375 0.015625)" xlink:href="#DejaVuSans-101"/>
      <use transform="translate(754.882812 0.015625)" xlink:href="#DejaVuSans-110"/>
      <use transform="translate(818.261719 0.015625)" xlink:href="#DejaVuSans-99"/>
      <use transform="translate(873.242188 0.015625)" xlink:href="#DejaVuSans-101"/>
      <use transform="translate(934.765625 0.015625)" xlink:href="#DejaVuSans-32"/>
      <use transform="translate(966.552734 0.015625)" xlink:href="#DejaVuSans-119"/>
      <use transform="translate(1048.339844 0.015625)" xlink:href="#DejaVuSans-105"/>
      <use transform="translate(1076.123047 0.015625)" xlink:href="#DejaVuSans-116"/>
      <use transform="translate(1115.332031 0.015625)" xlink:href="#DejaVuSans-104"/>
      <use transform="translate(1178.710938 0.015625)" xlink:href="#DejaVuSans-105"/>
      <use transform="translate(1206.494141 0.015625)" xlink:href="#DejaVuSans-110"/>
      <use transform="translate(1269.873047 0.015625)" xlink:href="#DejaVuSans-32"/>
      <use transform="translate(1301.660156 0.015625)" xlink:href="#DejaVuSans-Oblique-949"/>
     </g>
    </g>
   </g>
   <g id="matplotlib.axis_4">
    <g id="ytick_5">
     <g id="line2d_13">
      <g>
       <use style="stroke:#000000;stroke-width:1.6;" x="417.213333" xlink:href="#m384918cd3e" y="35.894167"/>
      </g>
     </g>
     <g id="text_15">
      <!-- [0.00, -->
      <defs>
       <path d="M 8.59375 75.984375 
L 29.296875 75.984375 
L 29.296875 69 
L 17.578125 69 
L 17.578125 -6.203125 
L 29.296875 -6.203125 
L 29.296875 -13.1875 
L 8.59375 -13.1875 
z
" id="DejaVuSans-91"/>
       <path d="M 11.71875 12.40625 
L 22.015625 12.40625 
L 22.015625 4 
L 14.015625 -11.625 
L 7.71875 -11.625 
L 11.71875 4 
z
" id="DejaVuSans-44"/>
      </defs>
      <g transform="translate(343.822708 32.294792)scale(0.2 -0.2)">
       <use xlink:href="#DejaVuSans-91"/>
       <use x="39.013672" xlink:href="#DejaVuSans-48"/>
       <use x="102.636719" xlink:href="#DejaVuSans-46"/>
       <use x="134.423828" xlink:href="#DejaVuSans-48"/>
       <use x="198.046875" xlink:href="#DejaVuSans-48"/>
       <use x="261.669922" xlink:href="#DejaVuSans-44"/>
      </g>
      <!-- 0.25) -->
      <defs>
       <path d="M 10.796875 72.90625 
L 49.515625 72.90625 
L 49.515625 64.59375 
L 19.828125 64.59375 
L 19.828125 46.734375 
Q 21.96875 47.46875 24.109375 47.828125 
Q 26.265625 48.1875 28.421875 48.1875 
Q 40.625 48.1875 47.75 41.5 
Q 54.890625 34.8125 54.890625 23.390625 
Q 54.890625 11.625 47.5625 5.09375 
Q 40.234375 -1.421875 26.90625 -1.421875 
Q 22.3125 -1.421875 17.546875 -0.640625 
Q 12.796875 0.140625 7.71875 1.703125 
L 7.71875 11.625 
Q 12.109375 9.234375 16.796875 8.0625 
Q 21.484375 6.890625 26.703125 6.890625 
Q 35.15625 6.890625 40.078125 11.328125 
Q 45.015625 15.765625 45.015625 23.390625 
Q 45.015625 31 40.078125 35.4375 
Q 35.15625 39.890625 26.703125 39.890625 
Q 22.75 39.890625 18.8125 39.015625 
Q 14.890625 38.140625 10.796875 36.28125 
z
" id="DejaVuSans-53"/>
       <path d="M 8.015625 75.875 
L 15.828125 75.875 
Q 23.140625 64.359375 26.78125 53.3125 
Q 30.421875 42.28125 30.421875 31.390625 
Q 30.421875 20.453125 26.78125 9.375 
Q 23.140625 -1.703125 15.828125 -13.1875 
L 8.015625 -13.1875 
Q 14.5 -2 17.703125 9.0625 
Q 20.90625 20.125 20.90625 31.390625 
Q 20.90625 42.671875 17.703125 53.65625 
Q 14.5 64.65625 8.015625 75.875 
z
" id="DejaVuSans-41"/>
      </defs>
      <g transform="translate(350.178958 54.690417)scale(0.2 -0.2)">
       <use xlink:href="#DejaVuSans-48"/>
       <use x="63.623047" xlink:href="#DejaVuSans-46"/>
       <use x="95.410156" xlink:href="#DejaVuSans-50"/>
       <use x="159.033203" xlink:href="#DejaVuSans-53"/>
       <use x="222.65625" xlink:href="#DejaVuSans-41"/>
      </g>
     </g>
    </g>
    <g id="ytick_6">
     <g id="line2d_14">
      <g>
       <use style="stroke:#000000;stroke-width:1.6;" x="417.213333" xlink:href="#m384918cd3e" y="100.6825"/>
      </g>
     </g>
     <g id="text_16">
      <!-- [0.25, -->
      <g transform="translate(343.822708 97.083125)scale(0.2 -0.2)">
       <use xlink:href="#DejaVuSans-91"/>
       <use x="39.013672" xlink:href="#DejaVuSans-48"/>
       <use x="102.636719" xlink:href="#DejaVuSans-46"/>
       <use x="134.423828" xlink:href="#DejaVuSans-50"/>
       <use x="198.046875" xlink:href="#DejaVuSans-53"/>
       <use x="261.669922" xlink:href="#DejaVuSans-44"/>
      </g>
      <!-- 0.50) -->
      <g transform="translate(350.178958 119.47875)scale(0.2 -0.2)">
       <use xlink:href="#DejaVuSans-48"/>
       <use x="63.623047" xlink:href="#DejaVuSans-46"/>
       <use x="95.410156" xlink:href="#DejaVuSans-53"/>
       <use x="159.033203" xlink:href="#DejaVuSans-48"/>
       <use x="222.65625" xlink:href="#DejaVuSans-41"/>
      </g>
     </g>
    </g>
    <g id="ytick_7">
     <g id="line2d_15">
      <g>
       <use style="stroke:#000000;stroke-width:1.6;" x="417.213333" xlink:href="#m384918cd3e" y="165.470833"/>
      </g>
     </g>
     <g id="text_17">
      <!-- [0.50, -->
      <g transform="translate(343.822708 161.871458)scale(0.2 -0.2)">
       <use xlink:href="#DejaVuSans-91"/>
       <use x="39.013672" xlink:href="#DejaVuSans-48"/>
       <use x="102.636719" xlink:href="#DejaVuSans-46"/>
       <use x="134.423828" xlink:href="#DejaVuSans-53"/>
       <use x="198.046875" xlink:href="#DejaVuSans-48"/>
       <use x="261.669922" xlink:href="#DejaVuSans-44"/>
      </g>
      <!-- 0.75) -->
      <defs>
       <path d="M 8.203125 72.90625 
L 55.078125 72.90625 
L 55.078125 68.703125 
L 28.609375 0 
L 18.3125 0 
L 43.21875 64.59375 
L 8.203125 64.59375 
z
" id="DejaVuSans-55"/>
      </defs>
      <g transform="translate(350.178958 184.267083)scale(0.2 -0.2)">
       <use xlink:href="#DejaVuSans-48"/>
       <use x="63.623047" xlink:href="#DejaVuSans-46"/>
       <use x="95.410156" xlink:href="#DejaVuSans-55"/>
       <use x="159.033203" xlink:href="#DejaVuSans-53"/>
       <use x="222.65625" xlink:href="#DejaVuSans-41"/>
      </g>
     </g>
    </g>
    <g id="ytick_8">
     <g id="line2d_16">
      <g>
       <use style="stroke:#000000;stroke-width:1.6;" x="417.213333" xlink:href="#m384918cd3e" y="230.259167"/>
      </g>
     </g>
     <g id="text_18">
      <!-- [0.75, -->
      <g transform="translate(343.822708 226.659792)scale(0.2 -0.2)">
       <use xlink:href="#DejaVuSans-91"/>
       <use x="39.013672" xlink:href="#DejaVuSans-48"/>
       <use x="102.636719" xlink:href="#DejaVuSans-46"/>
       <use x="134.423828" xlink:href="#DejaVuSans-55"/>
       <use x="198.046875" xlink:href="#DejaVuSans-53"/>
       <use x="261.669922" xlink:href="#DejaVuSans-44"/>
      </g>
      <!-- 1.00) -->
      <defs>
       <path d="M 12.40625 8.296875 
L 28.515625 8.296875 
L 28.515625 63.921875 
L 10.984375 60.40625 
L 10.984375 69.390625 
L 28.421875 72.90625 
L 38.28125 72.90625 
L 38.28125 8.296875 
L 54.390625 8.296875 
L 54.390625 0 
L 12.40625 0 
z
" id="DejaVuSans-49"/>
      </defs>
      <g transform="translate(350.178958 249.055417)scale(0.2 -0.2)">
       <use xlink:href="#DejaVuSans-49"/>
       <use x="63.623047" xlink:href="#DejaVuSans-46"/>
       <use x="95.410156" xlink:href="#DejaVuSans-48"/>
       <use x="159.033203" xlink:href="#DejaVuSans-48"/>
       <use x="222.65625" xlink:href="#DejaVuSans-41"/>
      </g>
     </g>
    </g>
    <g id="text_19">
     <!-- Max Attention -->
     <defs>
      <path d="M 34.1875 63.1875 
L 20.796875 26.90625 
L 47.609375 26.90625 
z
M 28.609375 72.90625 
L 39.796875 72.90625 
L 67.578125 0 
L 57.328125 0 
L 50.6875 18.703125 
L 17.828125 18.703125 
L 11.1875 0 
L 0.78125 0 
z
" id="DejaVuSans-65"/>
      <path d="M 30.609375 48.390625 
Q 23.390625 48.390625 19.1875 42.75 
Q 14.984375 37.109375 14.984375 27.296875 
Q 14.984375 17.484375 19.15625 11.84375 
Q 23.34375 6.203125 30.609375 6.203125 
Q 37.796875 6.203125 41.984375 11.859375 
Q 46.1875 17.53125 46.1875 27.296875 
Q 46.1875 37.015625 41.984375 42.703125 
Q 37.796875 48.390625 30.609375 48.390625 
z
M 30.609375 56 
Q 42.328125 56 49.015625 48.375 
Q 55.71875 40.765625 55.71875 27.296875 
Q 55.71875 13.875 49.015625 6.21875 
Q 42.328125 -1.421875 30.609375 -1.421875 
Q 18.84375 -1.421875 12.171875 6.21875 
Q 5.515625 13.875 5.515625 27.296875 
Q 5.515625 40.765625 12.171875 48.375 
Q 18.84375 56 30.609375 56 
z
" id="DejaVuSans-111"/>
     </defs>
     <g transform="translate(335.663333 203.254792)rotate(-90)scale(0.2 -0.2)">
      <use xlink:href="#DejaVuSans-77"/>
      <use x="86.279297" xlink:href="#DejaVuSans-97"/>
      <use x="147.558594" xlink:href="#DejaVuSans-120"/>
      <use x="206.738281" xlink:href="#DejaVuSans-32"/>
      <use x="238.525391" xlink:href="#DejaVuSans-65"/>
      <use x="306.917969" xlink:href="#DejaVuSans-116"/>
      <use x="346.126953" xlink:href="#DejaVuSans-116"/>
      <use x="385.335938" xlink:href="#DejaVuSans-101"/>
      <use x="446.859375" xlink:href="#DejaVuSans-110"/>
      <use x="510.238281" xlink:href="#DejaVuSans-116"/>
      <use x="549.447266" xlink:href="#DejaVuSans-105"/>
      <use x="577.230469" xlink:href="#DejaVuSans-111"/>
      <use x="638.412109" xlink:href="#DejaVuSans-110"/>
     </g>
    </g>
   </g>
   <g id="line2d_17">
    <path clip-path="url(#p811883f406)" style="fill:none;stroke:#424242;stroke-dasharray:1.5,1.5;stroke-dashoffset:0;"/>
   </g>
   <g id="line2d_18">
    <path clip-path="url(#p811883f406)" style="fill:none;stroke:#424242;stroke-dasharray:3,3;stroke-dashoffset:0;"/>
   </g>
   <g id="line2d_19">
    <path clip-path="url(#p811883f406)" style="fill:none;stroke:#424242;stroke-dasharray:1.5,1.5;stroke-dashoffset:0;"/>
   </g>
   <g id="line2d_20">
    <path clip-path="url(#p811883f406)" style="fill:none;stroke:#424242;stroke-dasharray:1.5,1.5;stroke-dashoffset:0;"/>
   </g>
   <g id="line2d_21">
    <path clip-path="url(#p811883f406)" style="fill:none;stroke:#424242;stroke-dasharray:3,3;stroke-dashoffset:0;"/>
   </g>
   <g id="line2d_22">
    <path clip-path="url(#p811883f406)" style="fill:none;stroke:#424242;stroke-dasharray:1.5,1.5;stroke-dashoffset:0;"/>
   </g>
   <g id="line2d_23">
    <path clip-path="url(#p811883f406)" style="fill:none;stroke:#424242;stroke-dasharray:1.5,1.5;stroke-dashoffset:0;"/>
   </g>
   <g id="line2d_24">
    <path clip-path="url(#p811883f406)" style="fill:none;stroke:#424242;stroke-dasharray:3,3;stroke-dashoffset:0;"/>
   </g>
   <g id="line2d_25">
    <path clip-path="url(#p811883f406)" style="fill:none;stroke:#424242;stroke-dasharray:1.5,1.5;stroke-dashoffset:0;"/>
   </g>
   <g id="line2d_26">
    <path clip-path="url(#p811883f406)" style="fill:none;stroke:#424242;stroke-dasharray:1.5,1.5;stroke-dashoffset:0;"/>
   </g>
   <g id="line2d_27">
    <path clip-path="url(#p811883f406)" style="fill:none;stroke:#424242;stroke-dasharray:3,3;stroke-dashoffset:0;"/>
   </g>
   <g id="line2d_28">
    <path clip-path="url(#p811883f406)" style="fill:none;stroke:#424242;stroke-dasharray:1.5,1.5;stroke-dashoffset:0;"/>
   </g>
   <g id="patch_88">
    <path style="fill:none;stroke:#000000;stroke-linecap:square;stroke-linejoin:miter;stroke-width:0.8;"/>
   </g>
   <g id="patch_89">
    <path style="fill:none;stroke:#000000;stroke-linecap:square;stroke-linejoin:miter;stroke-width:0.8;"/>
   </g>
  </g>
 </g>
 <defs>
  <clipPath id="p05151e9c1c">
   <rect height="259.153333" width="259.153333" x="46.7" y="3.5"/>
  </clipPath>
  <clipPath id="p811883f406">
   <rect height="259.153333" width="259.153333" x="417.213333" y="3.5"/>
  </clipPath>
 </defs>
</svg>
