<?xml version="1.0" encoding="utf-8" standalone="no"?>
<!DOCTYPE svg PUBLIC "-//W3C//DTD SVG 1.1//EN"
  "http://www.w3.org/Graphics/SVG/1.1/DTD/svg11.dtd">
<!-- Created with matplotlib (https://matplotlib.org/) -->
<svg height="316.395pt" version="1.1" viewBox="0 0 321.893203 316.395" width="321.893203pt" xmlns="http://www.w3.org/2000/svg" xmlns:xlink="http://www.w3.org/1999/xlink">
 <defs>
  <style type="text/css">
*{stroke-linecap:butt;stroke-linejoin:round;}
  </style>
 </defs>
 <g id="figure_1">
  <g id="patch_1">
   <path d="M 0 316.395 
L 321.893203 316.395 
L 321.893203 0 
L 0 0 
z
" style="fill:#ffffff;"/>
  </g>
  <g id="axes_1">
   <g id="patch_2">
    <path d="M 59.575 255.695 
L 311.77 255.695 
L 311.77 3.5 
L 59.575 3.5 
z
" style="fill:#ffffff;"/>
   </g>
   <g id="patch_3">
    <path clip-path="url(#p459d7ff474)" d="M 71.038409 255.695 
L 76.770114 255.695 
L 76.770114 82.537857 
L 71.038409 82.537857 
z
" style="fill:#7570b3;opacity:0.6;stroke:#000000;stroke-linejoin:miter;stroke-width:0.5;"/>
   </g>
   <g id="patch_4">
    <path clip-path="url(#p459d7ff474)" d="M 76.770114 255.695 
L 82.501818 255.695 
L 82.501818 255.695 
L 76.770114 255.695 
z
" style="fill:#7570b3;opacity:0.6;stroke:#000000;stroke-linejoin:miter;stroke-width:0.5;"/>
   </g>
   <g id="patch_5">
    <path clip-path="url(#p459d7ff474)" d="M 82.501818 255.695 
L 88.233523 255.695 
L 88.233523 255.695 
L 82.501818 255.695 
z
" style="fill:#7570b3;opacity:0.6;stroke:#000000;stroke-linejoin:miter;stroke-width:0.5;"/>
   </g>
   <g id="patch_6">
    <path clip-path="url(#p459d7ff474)" d="M 88.233523 255.695 
L 93.965227 255.695 
L 93.965227 255.695 
L 88.233523 255.695 
z
" style="fill:#7570b3;opacity:0.6;stroke:#000000;stroke-linejoin:miter;stroke-width:0.5;"/>
   </g>
   <g id="patch_7">
    <path clip-path="url(#p459d7ff474)" d="M 93.965227 255.695 
L 99.696932 255.695 
L 99.696932 255.695 
L 93.965227 255.695 
z
" style="fill:#7570b3;opacity:0.6;stroke:#000000;stroke-linejoin:miter;stroke-width:0.5;"/>
   </g>
   <g id="patch_8">
    <path clip-path="url(#p459d7ff474)" d="M 99.696932 255.695 
L 105.428636 255.695 
L 105.428636 255.695 
L 99.696932 255.695 
z
" style="fill:#7570b3;opacity:0.6;stroke:#000000;stroke-linejoin:miter;stroke-width:0.5;"/>
   </g>
   <g id="patch_9">
    <path clip-path="url(#p459d7ff474)" d="M 105.428636 255.695 
L 111.160341 255.695 
L 111.160341 255.695 
L 105.428636 255.695 
z
" style="fill:#7570b3;opacity:0.6;stroke:#000000;stroke-linejoin:miter;stroke-width:0.5;"/>
   </g>
   <g id="patch_10">
    <path clip-path="url(#p459d7ff474)" d="M 111.160341 255.695 
L 116.892045 255.695 
L 116.892045 255.695 
L 111.160341 255.695 
z
" style="fill:#7570b3;opacity:0.6;stroke:#000000;stroke-linejoin:miter;stroke-width:0.5;"/>
   </g>
   <g id="patch_11">
    <path clip-path="url(#p459d7ff474)" d="M 116.892045 255.695 
L 122.62375 255.695 
L 122.62375 252.902143 
L 116.892045 252.902143 
z
" style="fill:#7570b3;opacity:0.6;stroke:#000000;stroke-linejoin:miter;stroke-width:0.5;"/>
   </g>
   <g id="patch_12">
    <path clip-path="url(#p459d7ff474)" d="M 122.62375 255.695 
L 128.355455 255.695 
L 128.355455 255.695 
L 122.62375 255.695 
z
" style="fill:#7570b3;opacity:0.6;stroke:#000000;stroke-linejoin:miter;stroke-width:0.5;"/>
   </g>
   <g id="patch_13">
    <path clip-path="url(#p459d7ff474)" d="M 128.355455 255.695 
L 134.087159 255.695 
L 134.087159 250.109286 
L 128.355455 250.109286 
z
" style="fill:#7570b3;opacity:0.6;stroke:#000000;stroke-linejoin:miter;stroke-width:0.5;"/>
   </g>
   <g id="patch_14">
    <path clip-path="url(#p459d7ff474)" d="M 134.087159 255.695 
L 139.818864 255.695 
L 139.818864 255.695 
L 134.087159 255.695 
z
" style="fill:#7570b3;opacity:0.6;stroke:#000000;stroke-linejoin:miter;stroke-width:0.5;"/>
   </g>
   <g id="patch_15">
    <path clip-path="url(#p459d7ff474)" d="M 139.818864 255.695 
L 145.550568 255.695 
L 145.550568 255.695 
L 139.818864 255.695 
z
" style="fill:#7570b3;opacity:0.6;stroke:#000000;stroke-linejoin:miter;stroke-width:0.5;"/>
   </g>
   <g id="patch_16">
    <path clip-path="url(#p459d7ff474)" d="M 145.550568 255.695 
L 151.282273 255.695 
L 151.282273 255.695 
L 145.550568 255.695 
z
" style="fill:#7570b3;opacity:0.6;stroke:#000000;stroke-linejoin:miter;stroke-width:0.5;"/>
   </g>
   <g id="patch_17">
    <path clip-path="url(#p459d7ff474)" d="M 151.282273 255.695 
L 157.013977 255.695 
L 157.013977 255.695 
L 151.282273 255.695 
z
" style="fill:#7570b3;opacity:0.6;stroke:#000000;stroke-linejoin:miter;stroke-width:0.5;"/>
   </g>
   <g id="patch_18">
    <path clip-path="url(#p459d7ff474)" d="M 157.013977 255.695 
L 162.745682 255.695 
L 162.745682 252.902143 
L 157.013977 252.902143 
z
" style="fill:#7570b3;opacity:0.6;stroke:#000000;stroke-linejoin:miter;stroke-width:0.5;"/>
   </g>
   <g id="patch_19">
    <path clip-path="url(#p459d7ff474)" d="M 162.745682 255.695 
L 168.477386 255.695 
L 168.477386 247.316429 
L 162.745682 247.316429 
z
" style="fill:#7570b3;opacity:0.6;stroke:#000000;stroke-linejoin:miter;stroke-width:0.5;"/>
   </g>
   <g id="patch_20">
    <path clip-path="url(#p459d7ff474)" d="M 168.477386 255.695 
L 174.209091 255.695 
L 174.209091 247.316429 
L 168.477386 247.316429 
z
" style="fill:#7570b3;opacity:0.6;stroke:#000000;stroke-linejoin:miter;stroke-width:0.5;"/>
   </g>
   <g id="patch_21">
    <path clip-path="url(#p459d7ff474)" d="M 174.209091 255.695 
L 179.940795 255.695 
L 179.940795 255.695 
L 174.209091 255.695 
z
" style="fill:#7570b3;opacity:0.6;stroke:#000000;stroke-linejoin:miter;stroke-width:0.5;"/>
   </g>
   <g id="patch_22">
    <path clip-path="url(#p459d7ff474)" d="M 179.940795 255.695 
L 185.6725 255.695 
L 185.6725 238.937857 
L 179.940795 238.937857 
z
" style="fill:#7570b3;opacity:0.6;stroke:#000000;stroke-linejoin:miter;stroke-width:0.5;"/>
   </g>
   <g id="patch_23">
    <path clip-path="url(#p459d7ff474)" d="M 185.6725 255.695 
L 191.404205 255.695 
L 191.404205 241.730714 
L 185.6725 241.730714 
z
" style="fill:#7570b3;opacity:0.6;stroke:#000000;stroke-linejoin:miter;stroke-width:0.5;"/>
   </g>
   <g id="patch_24">
    <path clip-path="url(#p459d7ff474)" d="M 191.404205 255.695 
L 197.135909 255.695 
L 197.135909 227.766429 
L 191.404205 227.766429 
z
" style="fill:#7570b3;opacity:0.6;stroke:#000000;stroke-linejoin:miter;stroke-width:0.5;"/>
   </g>
   <g id="patch_25">
    <path clip-path="url(#p459d7ff474)" d="M 197.135909 255.695 
L 202.867614 255.695 
L 202.867614 224.973571 
L 197.135909 224.973571 
z
" style="fill:#7570b3;opacity:0.6;stroke:#000000;stroke-linejoin:miter;stroke-width:0.5;"/>
   </g>
   <g id="patch_26">
    <path clip-path="url(#p459d7ff474)" d="M 202.867614 255.695 
L 208.599318 255.695 
L 208.599318 208.216429 
L 202.867614 208.216429 
z
" style="fill:#7570b3;opacity:0.6;stroke:#000000;stroke-linejoin:miter;stroke-width:0.5;"/>
   </g>
   <g id="patch_27">
    <path clip-path="url(#p459d7ff474)" d="M 208.599318 255.695 
L 214.331023 255.695 
L 214.331023 183.080714 
L 208.599318 183.080714 
z
" style="fill:#7570b3;opacity:0.6;stroke:#000000;stroke-linejoin:miter;stroke-width:0.5;"/>
   </g>
   <g id="patch_28">
    <path clip-path="url(#p459d7ff474)" d="M 214.331023 255.695 
L 220.062727 255.695 
L 220.062727 177.495 
L 214.331023 177.495 
z
" style="fill:#7570b3;opacity:0.6;stroke:#000000;stroke-linejoin:miter;stroke-width:0.5;"/>
   </g>
   <g id="patch_29">
    <path clip-path="url(#p459d7ff474)" d="M 220.062727 255.695 
L 225.794432 255.695 
L 225.794432 171.909286 
L 220.062727 171.909286 
z
" style="fill:#7570b3;opacity:0.6;stroke:#000000;stroke-linejoin:miter;stroke-width:0.5;"/>
   </g>
   <g id="patch_30">
    <path clip-path="url(#p459d7ff474)" d="M 225.794432 255.695 
L 231.526136 255.695 
L 231.526136 157.945 
L 225.794432 157.945 
z
" style="fill:#7570b3;opacity:0.6;stroke:#000000;stroke-linejoin:miter;stroke-width:0.5;"/>
   </g>
   <g id="patch_31">
    <path clip-path="url(#p459d7ff474)" d="M 231.526136 255.695 
L 237.257841 255.695 
L 237.257841 121.637857 
L 231.526136 121.637857 
z
" style="fill:#7570b3;opacity:0.6;stroke:#000000;stroke-linejoin:miter;stroke-width:0.5;"/>
   </g>
   <g id="patch_32">
    <path clip-path="url(#p459d7ff474)" d="M 237.257841 255.695 
L 242.989545 255.695 
L 242.989545 90.916429 
L 237.257841 90.916429 
z
" style="fill:#7570b3;opacity:0.6;stroke:#000000;stroke-linejoin:miter;stroke-width:0.5;"/>
   </g>
   <g id="patch_33">
    <path clip-path="url(#p459d7ff474)" d="M 242.989545 255.695 
L 248.72125 255.695 
L 248.72125 113.259286 
L 242.989545 113.259286 
z
" style="fill:#7570b3;opacity:0.6;stroke:#000000;stroke-linejoin:miter;stroke-width:0.5;"/>
   </g>
   <g id="patch_34">
    <path clip-path="url(#p459d7ff474)" d="M 248.72125 255.695 
L 254.452955 255.695 
L 254.452955 40.645 
L 248.72125 40.645 
z
" style="fill:#7570b3;opacity:0.6;stroke:#000000;stroke-linejoin:miter;stroke-width:0.5;"/>
   </g>
   <g id="patch_35">
    <path clip-path="url(#p459d7ff474)" d="M 254.452955 255.695 
L 260.184659 255.695 
L 260.184659 46.230714 
L 254.452955 46.230714 
z
" style="fill:#7570b3;opacity:0.6;stroke:#000000;stroke-linejoin:miter;stroke-width:0.5;"/>
   </g>
   <g id="patch_36">
    <path clip-path="url(#p459d7ff474)" d="M 260.184659 255.695 
L 265.916364 255.695 
L 265.916364 15.509286 
L 260.184659 15.509286 
z
" style="fill:#7570b3;opacity:0.6;stroke:#000000;stroke-linejoin:miter;stroke-width:0.5;"/>
   </g>
   <g id="patch_37">
    <path clip-path="url(#p459d7ff474)" d="M 265.916364 255.695 
L 271.648068 255.695 
L 271.648068 32.266429 
L 265.916364 32.266429 
z
" style="fill:#7570b3;opacity:0.6;stroke:#000000;stroke-linejoin:miter;stroke-width:0.5;"/>
   </g>
   <g id="patch_38">
    <path clip-path="url(#p459d7ff474)" d="M 271.648068 255.695 
L 277.379773 255.695 
L 277.379773 62.987857 
L 271.648068 62.987857 
z
" style="fill:#7570b3;opacity:0.6;stroke:#000000;stroke-linejoin:miter;stroke-width:0.5;"/>
   </g>
   <g id="patch_39">
    <path clip-path="url(#p459d7ff474)" d="M 277.379773 255.695 
L 283.111477 255.695 
L 283.111477 85.330714 
L 277.379773 85.330714 
z
" style="fill:#7570b3;opacity:0.6;stroke:#000000;stroke-linejoin:miter;stroke-width:0.5;"/>
   </g>
   <g id="patch_40">
    <path clip-path="url(#p459d7ff474)" d="M 283.111477 255.695 
L 288.843182 255.695 
L 288.843182 82.537857 
L 283.111477 82.537857 
z
" style="fill:#7570b3;opacity:0.6;stroke:#000000;stroke-linejoin:miter;stroke-width:0.5;"/>
   </g>
   <g id="patch_41">
    <path clip-path="url(#p459d7ff474)" d="M 288.843182 255.695 
L 294.574886 255.695 
L 294.574886 143.980714 
L 288.843182 143.980714 
z
" style="fill:#7570b3;opacity:0.6;stroke:#000000;stroke-linejoin:miter;stroke-width:0.5;"/>
   </g>
   <g id="patch_42">
    <path clip-path="url(#p459d7ff474)" d="M 294.574886 255.695 
L 300.306591 255.695 
L 300.306591 110.466429 
L 294.574886 110.466429 
z
" style="fill:#7570b3;opacity:0.6;stroke:#000000;stroke-linejoin:miter;stroke-width:0.5;"/>
   </g>
   <g id="matplotlib.axis_1">
    <g id="xtick_1">
     <g id="line2d_1">
      <defs>
       <path d="M 0 0 
L 0 3.5 
" id="md8d5beb1d8" style="stroke:#000000;stroke-width:1.6;"/>
      </defs>
      <g>
       <use style="stroke:#000000;stroke-width:1.6;" x="71.038409" xlink:href="#md8d5beb1d8" y="255.695"/>
      </g>
     </g>
     <g id="text_1">
      <!-- 0.0 -->
      <defs>
       <path d="M 31.78125 66.40625 
Q 24.171875 66.40625 20.328125 58.90625 
Q 16.5 51.421875 16.5 36.375 
Q 16.5 21.390625 20.328125 13.890625 
Q 24.171875 6.390625 31.78125 6.390625 
Q 39.453125 6.390625 43.28125 13.890625 
Q 47.125 21.390625 47.125 36.375 
Q 47.125 51.421875 43.28125 58.90625 
Q 39.453125 66.40625 31.78125 66.40625 
z
M 31.78125 74.21875 
Q 44.046875 74.21875 50.515625 64.515625 
Q 56.984375 54.828125 56.984375 36.375 
Q 56.984375 17.96875 50.515625 8.265625 
Q 44.046875 -1.421875 31.78125 -1.421875 
Q 19.53125 -1.421875 13.0625 8.265625 
Q 6.59375 17.96875 6.59375 36.375 
Q 6.59375 54.828125 13.0625 64.515625 
Q 19.53125 74.21875 31.78125 74.21875 
z
" id="DejaVuSans-48"/>
       <path d="M 10.6875 12.40625 
L 21 12.40625 
L 21 0 
L 10.6875 0 
z
" id="DejaVuSans-46"/>
      </defs>
      <g transform="translate(55.135284 285.591875)scale(0.2 -0.2)">
       <use xlink:href="#DejaVuSans-48"/>
       <use x="63.623047" xlink:href="#DejaVuSans-46"/>
       <use x="95.410156" xlink:href="#DejaVuSans-48"/>
      </g>
     </g>
    </g>
    <g id="xtick_2">
     <g id="line2d_2">
      <g>
       <use style="stroke:#000000;stroke-width:1.6;" x="136.543604" xlink:href="#md8d5beb1d8" y="255.695"/>
      </g>
     </g>
     <g id="text_2">
      <!-- 0.2 -->
      <defs>
       <path d="M 19.1875 8.296875 
L 53.609375 8.296875 
L 53.609375 0 
L 7.328125 0 
L 7.328125 8.296875 
Q 12.9375 14.109375 22.625 23.890625 
Q 32.328125 33.6875 34.8125 36.53125 
Q 39.546875 41.84375 41.421875 45.53125 
Q 43.3125 49.21875 43.3125 52.78125 
Q 43.3125 58.59375 39.234375 62.25 
Q 35.15625 65.921875 28.609375 65.921875 
Q 23.96875 65.921875 18.8125 64.3125 
Q 13.671875 62.703125 7.8125 59.421875 
L 7.8125 69.390625 
Q 13.765625 71.78125 18.9375 73 
Q 24.125 74.21875 28.421875 74.21875 
Q 39.75 74.21875 46.484375 68.546875 
Q 53.21875 62.890625 53.21875 53.421875 
Q 53.21875 48.921875 51.53125 44.890625 
Q 49.859375 40.875 45.40625 35.40625 
Q 44.1875 33.984375 37.640625 27.21875 
Q 31.109375 20.453125 19.1875 8.296875 
z
" id="DejaVuSans-50"/>
      </defs>
      <g transform="translate(120.640479 285.591875)scale(0.2 -0.2)">
       <use xlink:href="#DejaVuSans-48"/>
       <use x="63.623047" xlink:href="#DejaVuSans-46"/>
       <use x="95.410156" xlink:href="#DejaVuSans-50"/>
      </g>
     </g>
    </g>
    <g id="xtick_3">
     <g id="line2d_3">
      <g>
       <use style="stroke:#000000;stroke-width:1.6;" x="202.048799" xlink:href="#md8d5beb1d8" y="255.695"/>
      </g>
     </g>
     <g id="text_3">
      <!-- 0.4 -->
      <defs>
       <path d="M 37.796875 64.3125 
L 12.890625 25.390625 
L 37.796875 25.390625 
z
M 35.203125 72.90625 
L 47.609375 72.90625 
L 47.609375 25.390625 
L 58.015625 25.390625 
L 58.015625 17.1875 
L 47.609375 17.1875 
L 47.609375 0 
L 37.796875 0 
L 37.796875 17.1875 
L 4.890625 17.1875 
L 4.890625 26.703125 
z
" id="DejaVuSans-52"/>
      </defs>
      <g transform="translate(186.145674 285.591875)scale(0.2 -0.2)">
       <use xlink:href="#DejaVuSans-48"/>
       <use x="63.623047" xlink:href="#DejaVuSans-46"/>
       <use x="95.410156" xlink:href="#DejaVuSans-52"/>
      </g>
     </g>
    </g>
    <g id="xtick_4">
     <g id="line2d_4">
      <g>
       <use style="stroke:#000000;stroke-width:1.6;" x="267.553994" xlink:href="#md8d5beb1d8" y="255.695"/>
      </g>
     </g>
     <g id="text_4">
      <!-- 0.6 -->
      <defs>
       <path d="M 33.015625 40.375 
Q 26.375 40.375 22.484375 35.828125 
Q 18.609375 31.296875 18.609375 23.390625 
Q 18.609375 15.53125 22.484375 10.953125 
Q 26.375 6.390625 33.015625 6.390625 
Q 39.65625 6.390625 43.53125 10.953125 
Q 47.40625 15.53125 47.40625 23.390625 
Q 47.40625 31.296875 43.53125 35.828125 
Q 39.65625 40.375 33.015625 40.375 
z
M 52.59375 71.296875 
L 52.59375 62.3125 
Q 48.875 64.0625 45.09375 64.984375 
Q 41.3125 65.921875 37.59375 65.921875 
Q 27.828125 65.921875 22.671875 59.328125 
Q 17.53125 52.734375 16.796875 39.40625 
Q 19.671875 43.65625 24.015625 45.921875 
Q 28.375 48.1875 33.59375 48.1875 
Q 44.578125 48.1875 50.953125 41.515625 
Q 57.328125 34.859375 57.328125 23.390625 
Q 57.328125 12.15625 50.6875 5.359375 
Q 44.046875 -1.421875 33.015625 -1.421875 
Q 20.359375 -1.421875 13.671875 8.265625 
Q 6.984375 17.96875 6.984375 36.375 
Q 6.984375 53.65625 15.1875 63.9375 
Q 23.390625 74.21875 37.203125 74.21875 
Q 40.921875 74.21875 44.703125 73.484375 
Q 48.484375 72.75 52.59375 71.296875 
z
" id="DejaVuSans-54"/>
      </defs>
      <g transform="translate(251.650869 285.591875)scale(0.2 -0.2)">
       <use xlink:href="#DejaVuSans-48"/>
       <use x="63.623047" xlink:href="#DejaVuSans-46"/>
       <use x="95.410156" xlink:href="#DejaVuSans-54"/>
      </g>
     </g>
    </g>
    <g id="text_5">
     <!-- Max JS Divergence within $\epsilon$ -->
     <defs>
      <path d="M 9.8125 72.90625 
L 24.515625 72.90625 
L 43.109375 23.296875 
L 61.8125 72.90625 
L 76.515625 72.90625 
L 76.515625 0 
L 66.890625 0 
L 66.890625 64.015625 
L 48.09375 14.015625 
L 38.1875 14.015625 
L 19.390625 64.015625 
L 19.390625 0 
L 9.8125 0 
z
" id="DejaVuSans-77"/>
      <path d="M 34.28125 27.484375 
Q 23.390625 27.484375 19.1875 25 
Q 14.984375 22.515625 14.984375 16.5 
Q 14.984375 11.71875 18.140625 8.90625 
Q 21.296875 6.109375 26.703125 6.109375 
Q 34.1875 6.109375 38.703125 11.40625 
Q 43.21875 16.703125 43.21875 25.484375 
L 43.21875 27.484375 
z
M 52.203125 31.203125 
L 52.203125 0 
L 43.21875 0 
L 43.21875 8.296875 
Q 40.140625 3.328125 35.546875 0.953125 
Q 30.953125 -1.421875 24.3125 -1.421875 
Q 15.921875 -1.421875 10.953125 3.296875 
Q 6 8.015625 6 15.921875 
Q 6 25.140625 12.171875 29.828125 
Q 18.359375 34.515625 30.609375 34.515625 
L 43.21875 34.515625 
L 43.21875 35.40625 
Q 43.21875 41.609375 39.140625 45 
Q 35.0625 48.390625 27.6875 48.390625 
Q 23 48.390625 18.546875 47.265625 
Q 14.109375 46.140625 10.015625 43.890625 
L 10.015625 52.203125 
Q 14.9375 54.109375 19.578125 55.046875 
Q 24.21875 56 28.609375 56 
Q 40.484375 56 46.34375 49.84375 
Q 52.203125 43.703125 52.203125 31.203125 
z
" id="DejaVuSans-97"/>
      <path d="M 54.890625 54.6875 
L 35.109375 28.078125 
L 55.90625 0 
L 45.3125 0 
L 29.390625 21.484375 
L 13.484375 0 
L 2.875 0 
L 24.125 28.609375 
L 4.6875 54.6875 
L 15.28125 54.6875 
L 29.78125 35.203125 
L 44.28125 54.6875 
z
" id="DejaVuSans-120"/>
      <path id="DejaVuSans-32"/>
      <path d="M 9.8125 72.90625 
L 19.671875 72.90625 
L 19.671875 5.078125 
Q 19.671875 -8.109375 14.671875 -14.0625 
Q 9.671875 -20.015625 -1.421875 -20.015625 
L -5.171875 -20.015625 
L -5.171875 -11.71875 
L -2.09375 -11.71875 
Q 4.4375 -11.71875 7.125 -8.046875 
Q 9.8125 -4.390625 9.8125 5.078125 
z
" id="DejaVuSans-74"/>
      <path d="M 53.515625 70.515625 
L 53.515625 60.890625 
Q 47.90625 63.578125 42.921875 64.890625 
Q 37.9375 66.21875 33.296875 66.21875 
Q 25.25 66.21875 20.875 63.09375 
Q 16.5 59.96875 16.5 54.203125 
Q 16.5 49.359375 19.40625 46.890625 
Q 22.3125 44.4375 30.421875 42.921875 
L 36.375 41.703125 
Q 47.40625 39.59375 52.65625 34.296875 
Q 57.90625 29 57.90625 20.125 
Q 57.90625 9.515625 50.796875 4.046875 
Q 43.703125 -1.421875 29.984375 -1.421875 
Q 24.8125 -1.421875 18.96875 -0.25 
Q 13.140625 0.921875 6.890625 3.21875 
L 6.890625 13.375 
Q 12.890625 10.015625 18.65625 8.296875 
Q 24.421875 6.59375 29.984375 6.59375 
Q 38.421875 6.59375 43.015625 9.90625 
Q 47.609375 13.234375 47.609375 19.390625 
Q 47.609375 24.75 44.3125 27.78125 
Q 41.015625 30.8125 33.5 32.328125 
L 27.484375 33.5 
Q 16.453125 35.6875 11.515625 40.375 
Q 6.59375 45.0625 6.59375 53.421875 
Q 6.59375 63.09375 13.40625 68.65625 
Q 20.21875 74.21875 32.171875 74.21875 
Q 37.3125 74.21875 42.625 73.28125 
Q 47.953125 72.359375 53.515625 70.515625 
z
" id="DejaVuSans-83"/>
      <path d="M 19.671875 64.796875 
L 19.671875 8.109375 
L 31.59375 8.109375 
Q 46.6875 8.109375 53.6875 14.9375 
Q 60.6875 21.78125 60.6875 36.53125 
Q 60.6875 51.171875 53.6875 57.984375 
Q 46.6875 64.796875 31.59375 64.796875 
z
M 9.8125 72.90625 
L 30.078125 72.90625 
Q 51.265625 72.90625 61.171875 64.09375 
Q 71.09375 55.28125 71.09375 36.53125 
Q 71.09375 17.671875 61.125 8.828125 
Q 51.171875 0 30.078125 0 
L 9.8125 0 
z
" id="DejaVuSans-68"/>
      <path d="M 9.421875 54.6875 
L 18.40625 54.6875 
L 18.40625 0 
L 9.421875 0 
z
M 9.421875 75.984375 
L 18.40625 75.984375 
L 18.40625 64.59375 
L 9.421875 64.59375 
z
" id="DejaVuSans-105"/>
      <path d="M 2.984375 54.6875 
L 12.5 54.6875 
L 29.59375 8.796875 
L 46.6875 54.6875 
L 56.203125 54.6875 
L 35.6875 0 
L 23.484375 0 
z
" id="DejaVuSans-118"/>
      <path d="M 56.203125 29.59375 
L 56.203125 25.203125 
L 14.890625 25.203125 
Q 15.484375 15.921875 20.484375 11.0625 
Q 25.484375 6.203125 34.421875 6.203125 
Q 39.59375 6.203125 44.453125 7.46875 
Q 49.3125 8.734375 54.109375 11.28125 
L 54.109375 2.78125 
Q 49.265625 0.734375 44.1875 -0.34375 
Q 39.109375 -1.421875 33.890625 -1.421875 
Q 20.796875 -1.421875 13.15625 6.1875 
Q 5.515625 13.8125 5.515625 26.8125 
Q 5.515625 40.234375 12.765625 48.109375 
Q 20.015625 56 32.328125 56 
Q 43.359375 56 49.78125 48.890625 
Q 56.203125 41.796875 56.203125 29.59375 
z
M 47.21875 32.234375 
Q 47.125 39.59375 43.09375 43.984375 
Q 39.0625 48.390625 32.421875 48.390625 
Q 24.90625 48.390625 20.390625 44.140625 
Q 15.875 39.890625 15.1875 32.171875 
z
" id="DejaVuSans-101"/>
      <path d="M 41.109375 46.296875 
Q 39.59375 47.171875 37.8125 47.578125 
Q 36.03125 48 33.890625 48 
Q 26.265625 48 22.1875 43.046875 
Q 18.109375 38.09375 18.109375 28.8125 
L 18.109375 0 
L 9.078125 0 
L 9.078125 54.6875 
L 18.109375 54.6875 
L 18.109375 46.1875 
Q 20.953125 51.171875 25.484375 53.578125 
Q 30.03125 56 36.53125 56 
Q 37.453125 56 38.578125 55.875 
Q 39.703125 55.765625 41.0625 55.515625 
z
" id="DejaVuSans-114"/>
      <path d="M 45.40625 27.984375 
Q 45.40625 37.75 41.375 43.109375 
Q 37.359375 48.484375 30.078125 48.484375 
Q 22.859375 48.484375 18.828125 43.109375 
Q 14.796875 37.75 14.796875 27.984375 
Q 14.796875 18.265625 18.828125 12.890625 
Q 22.859375 7.515625 30.078125 7.515625 
Q 37.359375 7.515625 41.375 12.890625 
Q 45.40625 18.265625 45.40625 27.984375 
z
M 54.390625 6.78125 
Q 54.390625 -7.171875 48.1875 -13.984375 
Q 42 -20.796875 29.203125 -20.796875 
Q 24.46875 -20.796875 20.265625 -20.09375 
Q 16.0625 -19.390625 12.109375 -17.921875 
L 12.109375 -9.1875 
Q 16.0625 -11.328125 19.921875 -12.34375 
Q 23.78125 -13.375 27.78125 -13.375 
Q 36.625 -13.375 41.015625 -8.765625 
Q 45.40625 -4.15625 45.40625 5.171875 
L 45.40625 9.625 
Q 42.625 4.78125 38.28125 2.390625 
Q 33.9375 0 27.875 0 
Q 17.828125 0 11.671875 7.65625 
Q 5.515625 15.328125 5.515625 27.984375 
Q 5.515625 40.671875 11.671875 48.328125 
Q 17.828125 56 27.875 56 
Q 33.9375 56 38.28125 53.609375 
Q 42.625 51.21875 45.40625 46.390625 
L 45.40625 54.6875 
L 54.390625 54.6875 
z
" id="DejaVuSans-103"/>
      <path d="M 54.890625 33.015625 
L 54.890625 0 
L 45.90625 0 
L 45.90625 32.71875 
Q 45.90625 40.484375 42.875 44.328125 
Q 39.84375 48.1875 33.796875 48.1875 
Q 26.515625 48.1875 22.3125 43.546875 
Q 18.109375 38.921875 18.109375 30.90625 
L 18.109375 0 
L 9.078125 0 
L 9.078125 54.6875 
L 18.109375 54.6875 
L 18.109375 46.1875 
Q 21.34375 51.125 25.703125 53.5625 
Q 30.078125 56 35.796875 56 
Q 45.21875 56 50.046875 50.171875 
Q 54.890625 44.34375 54.890625 33.015625 
z
" id="DejaVuSans-110"/>
      <path d="M 48.78125 52.59375 
L 48.78125 44.1875 
Q 44.96875 46.296875 41.140625 47.34375 
Q 37.3125 48.390625 33.40625 48.390625 
Q 24.65625 48.390625 19.8125 42.84375 
Q 14.984375 37.3125 14.984375 27.296875 
Q 14.984375 17.28125 19.8125 11.734375 
Q 24.65625 6.203125 33.40625 6.203125 
Q 37.3125 6.203125 41.140625 7.25 
Q 44.96875 8.296875 48.78125 10.40625 
L 48.78125 2.09375 
Q 45.015625 0.34375 40.984375 -0.53125 
Q 36.96875 -1.421875 32.421875 -1.421875 
Q 20.0625 -1.421875 12.78125 6.34375 
Q 5.515625 14.109375 5.515625 27.296875 
Q 5.515625 40.671875 12.859375 48.328125 
Q 20.21875 56 33.015625 56 
Q 37.15625 56 41.109375 55.140625 
Q 45.0625 54.296875 48.78125 52.59375 
z
" id="DejaVuSans-99"/>
      <path d="M 4.203125 54.6875 
L 13.1875 54.6875 
L 24.421875 12.015625 
L 35.59375 54.6875 
L 46.1875 54.6875 
L 57.421875 12.015625 
L 68.609375 54.6875 
L 77.59375 54.6875 
L 63.28125 0 
L 52.6875 0 
L 40.921875 44.828125 
L 29.109375 0 
L 18.5 0 
z
" id="DejaVuSans-119"/>
      <path d="M 18.3125 70.21875 
L 18.3125 54.6875 
L 36.8125 54.6875 
L 36.8125 47.703125 
L 18.3125 47.703125 
L 18.3125 18.015625 
Q 18.3125 11.328125 20.140625 9.421875 
Q 21.96875 7.515625 27.59375 7.515625 
L 36.8125 7.515625 
L 36.8125 0 
L 27.59375 0 
Q 17.1875 0 13.234375 3.875 
Q 9.28125 7.765625 9.28125 18.015625 
L 9.28125 47.703125 
L 2.6875 47.703125 
L 2.6875 54.6875 
L 9.28125 54.6875 
L 9.28125 70.21875 
z
" id="DejaVuSans-116"/>
      <path d="M 54.890625 33.015625 
L 54.890625 0 
L 45.90625 0 
L 45.90625 32.71875 
Q 45.90625 40.484375 42.875 44.328125 
Q 39.84375 48.1875 33.796875 48.1875 
Q 26.515625 48.1875 22.3125 43.546875 
Q 18.109375 38.921875 18.109375 30.90625 
L 18.109375 0 
L 9.078125 0 
L 9.078125 75.984375 
L 18.109375 75.984375 
L 18.109375 46.1875 
Q 21.34375 51.125 25.703125 53.5625 
Q 30.078125 56 35.796875 56 
Q 45.21875 56 50.046875 50.171875 
Q 54.890625 44.34375 54.890625 33.015625 
z
" id="DejaVuSans-104"/>
      <path d="M 19.734375 29.5 
Q 14.453125 30.671875 12.15625 33.84375 
Q 10.453125 36.078125 10.453125 39.109375 
Q 10.453125 47.40625 18.359375 52.25 
Q 24.609375 56.0625 34.1875 56.0625 
Q 37.890625 56.0625 41.9375 55.46875 
Q 46 54.890625 50.53125 53.71875 
L 48.96875 45.5625 
Q 44.484375 46.96875 40.71875 47.609375 
Q 36.859375 48.25 33.40625 48.25 
Q 27.59375 48.25 23.78125 46 
Q 19.1875 43.3125 19.1875 39.40625 
Q 19.1875 36.8125 21.578125 35.015625 
Q 24.421875 32.859375 30.078125 32.859375 
L 37.640625 32.859375 
L 36.234375 25.4375 
L 29 25.4375 
Q 22.265625 25.4375 18.3125 22.953125 
Q 12.9375 19.578125 12.9375 14.3125 
Q 12.9375 10.984375 15.828125 8.796875 
Q 19.4375 6.0625 26.8125 6.0625 
Q 31.34375 6.0625 35.6875 6.9375 
Q 40.046875 7.859375 43.84375 9.671875 
L 42.1875 1.3125 
Q 37.546875 -0.046875 33.296875 -0.734375 
Q 29.046875 -1.421875 25.140625 -1.421875 
Q 13.53125 -1.421875 8.0625 3.03125 
Q 3.90625 6.453125 3.90625 12.203125 
Q 3.90625 19.96875 9.375 24.75 
Q 13.421875 28.328125 19.734375 29.5 
z
" id="DejaVuSans-Oblique-949"/>
     </defs>
     <g transform="translate(50.0725 308.95125)scale(0.2 -0.2)">
      <use transform="translate(0 0.015625)" xlink:href="#DejaVuSans-77"/>
      <use transform="translate(86.279297 0.015625)" xlink:href="#DejaVuSans-97"/>
      <use transform="translate(147.558594 0.015625)" xlink:href="#DejaVuSans-120"/>
      <use transform="translate(206.738281 0.015625)" xlink:href="#DejaVuSans-32"/>
      <use transform="translate(238.525391 0.015625)" xlink:href="#DejaVuSans-74"/>
      <use transform="translate(268.017578 0.015625)" xlink:href="#DejaVuSans-83"/>
      <use transform="translate(331.494141 0.015625)" xlink:href="#DejaVuSans-32"/>
      <use transform="translate(363.28125 0.015625)" xlink:href="#DejaVuSans-68"/>
      <use transform="translate(440.283203 0.015625)" xlink:href="#DejaVuSans-105"/>
      <use transform="translate(468.066406 0.015625)" xlink:href="#DejaVuSans-118"/>
      <use transform="translate(527.246094 0.015625)" xlink:href="#DejaVuSans-101"/>
      <use transform="translate(588.769531 0.015625)" xlink:href="#DejaVuSans-114"/>
      <use transform="translate(629.882812 0.015625)" xlink:href="#DejaVuSans-103"/>
      <use transform="translate(693.359375 0.015625)" xlink:href="#DejaVuSans-101"/>
      <use transform="translate(754.882812 0.015625)" xlink:href="#DejaVuSans-110"/>
      <use transform="translate(818.261719 0.015625)" xlink:href="#DejaVuSans-99"/>
      <use transform="translate(873.242188 0.015625)" xlink:href="#DejaVuSans-101"/>
      <use transform="translate(934.765625 0.015625)" xlink:href="#DejaVuSans-32"/>
      <use transform="translate(966.552734 0.015625)" xlink:href="#DejaVuSans-119"/>
      <use transform="translate(1048.339844 0.015625)" xlink:href="#DejaVuSans-105"/>
      <use transform="translate(1076.123047 0.015625)" xlink:href="#DejaVuSans-116"/>
      <use transform="translate(1115.332031 0.015625)" xlink:href="#DejaVuSans-104"/>
      <use transform="translate(1178.710938 0.015625)" xlink:href="#DejaVuSans-105"/>
      <use transform="translate(1206.494141 0.015625)" xlink:href="#DejaVuSans-110"/>
      <use transform="translate(1269.873047 0.015625)" xlink:href="#DejaVuSans-32"/>
      <use transform="translate(1301.660156 0.015625)" xlink:href="#DejaVuSans-Oblique-949"/>
     </g>
    </g>
   </g>
   <g id="matplotlib.axis_2">
    <g id="ytick_1">
     <g id="line2d_5">
      <defs>
       <path d="M 0 0 
L -3.5 0 
" id="mde7b69c692" style="stroke:#000000;stroke-width:1.6;"/>
      </defs>
      <g>
       <use style="stroke:#000000;stroke-width:1.6;" x="59.575" xlink:href="#mde7b69c692" y="255.695"/>
      </g>
     </g>
     <g id="text_6">
      <!-- 0.00 -->
      <g transform="translate(0.34375 263.293437)scale(0.2 -0.2)">
       <use xlink:href="#DejaVuSans-48"/>
       <use x="63.623047" xlink:href="#DejaVuSans-46"/>
       <use x="95.410156" xlink:href="#DejaVuSans-48"/>
       <use x="159.033203" xlink:href="#DejaVuSans-48"/>
      </g>
     </g>
    </g>
    <g id="ytick_2">
     <g id="line2d_6">
      <g>
       <use style="stroke:#000000;stroke-width:1.6;" x="59.575" xlink:href="#mde7b69c692" y="199.837857"/>
      </g>
     </g>
     <g id="text_7">
      <!-- 0.02 -->
      <g transform="translate(0.34375 207.436295)scale(0.2 -0.2)">
       <use xlink:href="#DejaVuSans-48"/>
       <use x="63.623047" xlink:href="#DejaVuSans-46"/>
       <use x="95.410156" xlink:href="#DejaVuSans-48"/>
       <use x="159.033203" xlink:href="#DejaVuSans-50"/>
      </g>
     </g>
    </g>
    <g id="ytick_3">
     <g id="line2d_7">
      <g>
       <use style="stroke:#000000;stroke-width:1.6;" x="59.575" xlink:href="#mde7b69c692" y="143.980714"/>
      </g>
     </g>
     <g id="text_8">
      <!-- 0.04 -->
      <g transform="translate(0.34375 151.579152)scale(0.2 -0.2)">
       <use xlink:href="#DejaVuSans-48"/>
       <use x="63.623047" xlink:href="#DejaVuSans-46"/>
       <use x="95.410156" xlink:href="#DejaVuSans-48"/>
       <use x="159.033203" xlink:href="#DejaVuSans-52"/>
      </g>
     </g>
    </g>
    <g id="ytick_4">
     <g id="line2d_8">
      <g>
       <use style="stroke:#000000;stroke-width:1.6;" x="59.575" xlink:href="#mde7b69c692" y="88.123571"/>
      </g>
     </g>
     <g id="text_9">
      <!-- 0.06 -->
      <g transform="translate(0.34375 95.722009)scale(0.2 -0.2)">
       <use xlink:href="#DejaVuSans-48"/>
       <use x="63.623047" xlink:href="#DejaVuSans-46"/>
       <use x="95.410156" xlink:href="#DejaVuSans-48"/>
       <use x="159.033203" xlink:href="#DejaVuSans-54"/>
      </g>
     </g>
    </g>
    <g id="ytick_5">
     <g id="line2d_9">
      <g>
       <use style="stroke:#000000;stroke-width:1.6;" x="59.575" xlink:href="#mde7b69c692" y="32.266429"/>
      </g>
     </g>
     <g id="text_10">
      <!-- 0.08 -->
      <defs>
       <path d="M 31.78125 34.625 
Q 24.75 34.625 20.71875 30.859375 
Q 16.703125 27.09375 16.703125 20.515625 
Q 16.703125 13.921875 20.71875 10.15625 
Q 24.75 6.390625 31.78125 6.390625 
Q 38.8125 6.390625 42.859375 10.171875 
Q 46.921875 13.96875 46.921875 20.515625 
Q 46.921875 27.09375 42.890625 30.859375 
Q 38.875 34.625 31.78125 34.625 
z
M 21.921875 38.8125 
Q 15.578125 40.375 12.03125 44.71875 
Q 8.5 49.078125 8.5 55.328125 
Q 8.5 64.0625 14.71875 69.140625 
Q 20.953125 74.21875 31.78125 74.21875 
Q 42.671875 74.21875 48.875 69.140625 
Q 55.078125 64.0625 55.078125 55.328125 
Q 55.078125 49.078125 51.53125 44.71875 
Q 48 40.375 41.703125 38.8125 
Q 48.828125 37.15625 52.796875 32.3125 
Q 56.78125 27.484375 56.78125 20.515625 
Q 56.78125 9.90625 50.3125 4.234375 
Q 43.84375 -1.421875 31.78125 -1.421875 
Q 19.734375 -1.421875 13.25 4.234375 
Q 6.78125 9.90625 6.78125 20.515625 
Q 6.78125 27.484375 10.78125 32.3125 
Q 14.796875 37.15625 21.921875 38.8125 
z
M 18.3125 54.390625 
Q 18.3125 48.734375 21.84375 45.5625 
Q 25.390625 42.390625 31.78125 42.390625 
Q 38.140625 42.390625 41.71875 45.5625 
Q 45.3125 48.734375 45.3125 54.390625 
Q 45.3125 60.0625 41.71875 63.234375 
Q 38.140625 66.40625 31.78125 66.40625 
Q 25.390625 66.40625 21.84375 63.234375 
Q 18.3125 60.0625 18.3125 54.390625 
z
" id="DejaVuSans-56"/>
      </defs>
      <g transform="translate(0.34375 39.864866)scale(0.2 -0.2)">
       <use xlink:href="#DejaVuSans-48"/>
       <use x="63.623047" xlink:href="#DejaVuSans-46"/>
       <use x="95.410156" xlink:href="#DejaVuSans-48"/>
       <use x="159.033203" xlink:href="#DejaVuSans-56"/>
      </g>
     </g>
    </g>
   </g>
   <g id="patch_43">
    <path d="M 59.575 255.695 
L 59.575 3.5 
" style="fill:none;stroke:#000000;stroke-linecap:square;stroke-linejoin:miter;stroke-width:0.8;"/>
   </g>
   <g id="patch_44">
    <path d="M 59.575 255.695 
L 311.77 255.695 
" style="fill:none;stroke:#000000;stroke-linecap:square;stroke-linejoin:miter;stroke-width:0.8;"/>
   </g>
  </g>
  <g id="axes_2">
   <g id="patch_45">
    <path d="M 427.13 255.695 
L 679.325 255.695 
L 679.325 3.5 
L 427.13 3.5 
z
" style="fill:#ffffff;"/>
   </g>
   <g id="PolyCollection_1">
    <defs>
     <path d="M 443.585554 -276.636562 
L 443.585554 -286.104688 
L 445.944893 -286.076024 
L 448.304233 -285.966736 
L 450.663572 -285.782429 
L 453.022912 -285.532352 
L 455.382252 -285.228628 
L 457.741591 -284.885285 
L 460.100931 -284.517184 
L 462.46027 -284.138973 
L 464.81961 -283.76415 
L 467.17895 -283.404335 
L 469.538289 -283.068773 
L 471.897629 -282.76411 
L 474.256968 -282.494394 
L 476.616308 -282.261297 
L 478.975648 -282.064466 
L 481.334987 -281.901968 
L 483.694327 -281.770762 
L 486.053666 -281.667151 
L 488.413006 -281.587167 
L 490.772346 -281.526895 
L 493.131685 -281.4827 
L 495.491025 -281.451372 
L 497.850364 -281.430208 
L 500.209704 -281.417027 
L 502.569044 -281.410147 
L 504.928383 -281.408341 
L 507.287723 -281.410774 
L 509.647062 -281.416932 
L 512.006402 -281.42657 
L 514.365742 -281.439652 
L 516.725081 -281.456313 
L 519.084421 -281.476827 
L 521.44376 -281.501591 
L 523.8031 -281.531115 
L 526.16244 -281.566028 
L 528.521779 -281.607083 
L 530.881119 -281.655177 
L 533.240458 -281.711357 
L 535.599798 -281.776842 
L 537.959138 -281.853028 
L 540.318477 -281.941487 
L 542.677817 -282.043961 
L 545.037156 -282.16233 
L 547.396496 -282.298584 
L 549.755836 -282.454762 
L 552.115175 -282.632896 
L 554.474515 -282.834935 
L 556.833854 -283.062674 
L 559.193194 -283.317693 
L 561.552534 -283.601302 
L 563.911873 -283.914525 
L 566.271213 -284.258107 
L 568.630552 -284.632571 
L 570.989892 -285.038311 
L 573.349232 -285.475722 
L 575.708571 -285.945354 
L 578.067911 -286.448076 
L 580.42725 -286.985213 
L 582.78659 -287.558643 
L 585.14593 -288.170817 
L 587.505269 -288.824687 
L 589.864609 -289.523522 
L 592.223948 -290.270619 
L 594.583288 -291.068913 
L 596.942628 -291.92051 
L 599.301967 -292.826193 
L 601.661307 -293.784926 
L 604.020646 -294.793406 
L 606.379986 -295.84572 
L 608.739326 -296.933116 
L 611.098665 -298.043939 
L 613.458005 -299.163729 
L 615.817345 -300.275481 
L 618.176684 -301.360075 
L 620.536024 -302.396837 
L 622.895363 -303.364211 
L 625.254703 -304.240522 
L 627.614043 -305.00478 
L 629.973382 -305.637499 
L 632.332722 -306.121485 
L 634.692061 -306.44255 
L 637.051401 -306.590125 
L 639.410741 -306.557719 
L 641.77008 -306.343208 
L 644.12942 -305.948928 
L 646.488759 -305.381568 
L 648.848099 -304.651871 
L 651.207439 -303.774162 
L 653.566778 -302.76575 
L 655.926118 -301.646227 
L 658.285457 -300.436739 
L 660.644797 -299.159249 
L 663.004137 -297.835852 
L 665.363476 -296.48815 
L 667.722816 -295.136737 
L 670.082155 -293.800759 
L 672.441495 -292.497582 
L 674.800835 -291.242538 
L 677.160174 -290.048742 
L 677.160174 -272.692508 
L 677.160174 -272.692508 
L 674.800835 -271.498712 
L 672.441495 -270.243668 
L 670.082155 -268.940491 
L 667.722816 -267.604513 
L 665.363476 -266.2531 
L 663.004137 -264.905398 
L 660.644797 -263.582001 
L 658.285457 -262.304511 
L 655.926118 -261.095023 
L 653.566778 -259.9755 
L 651.207439 -258.967088 
L 648.848099 -258.089379 
L 646.488759 -257.359682 
L 644.12942 -256.792322 
L 641.77008 -256.398042 
L 639.410741 -256.183531 
L 637.051401 -256.151125 
L 634.692061 -256.2987 
L 632.332722 -256.619765 
L 629.973382 -257.103751 
L 627.614043 -257.73647 
L 625.254703 -258.500728 
L 622.895363 -259.377039 
L 620.536024 -260.344413 
L 618.176684 -261.381175 
L 615.817345 -262.465769 
L 613.458005 -263.577521 
L 611.098665 -264.697311 
L 608.739326 -265.808134 
L 606.379986 -266.89553 
L 604.020646 -267.947844 
L 601.661307 -268.956324 
L 599.301967 -269.915057 
L 596.942628 -270.82074 
L 594.583288 -271.672337 
L 592.223948 -272.470631 
L 589.864609 -273.217728 
L 587.505269 -273.916563 
L 585.14593 -274.570433 
L 582.78659 -275.182607 
L 580.42725 -275.756037 
L 578.067911 -276.293174 
L 575.708571 -276.795896 
L 573.349232 -277.265528 
L 570.989892 -277.702939 
L 568.630552 -278.108679 
L 566.271213 -278.483143 
L 563.911873 -278.826725 
L 561.552534 -279.139948 
L 559.193194 -279.423557 
L 556.833854 -279.678576 
L 554.474515 -279.906315 
L 552.115175 -280.108354 
L 549.755836 -280.286488 
L 547.396496 -280.442666 
L 545.037156 -280.57892 
L 542.677817 -280.697289 
L 540.318477 -280.799763 
L 537.959138 -280.888222 
L 535.599798 -280.964408 
L 533.240458 -281.029893 
L 530.881119 -281.086073 
L 528.521779 -281.134167 
L 526.16244 -281.175222 
L 523.8031 -281.210135 
L 521.44376 -281.239659 
L 519.084421 -281.264423 
L 516.725081 -281.284937 
L 514.365742 -281.301598 
L 512.006402 -281.31468 
L 509.647062 -281.324318 
L 507.287723 -281.330476 
L 504.928383 -281.332909 
L 502.569044 -281.331103 
L 500.209704 -281.324223 
L 497.850364 -281.311042 
L 495.491025 -281.289878 
L 493.131685 -281.25855 
L 490.772346 -281.214355 
L 488.413006 -281.154083 
L 486.053666 -281.074099 
L 483.694327 -280.970488 
L 481.334987 -280.839282 
L 478.975648 -280.676784 
L 476.616308 -280.479953 
L 474.256968 -280.246856 
L 471.897629 -279.97714 
L 469.538289 -279.672477 
L 467.17895 -279.336915 
L 464.81961 -278.9771 
L 462.46027 -278.602277 
L 460.100931 -278.224066 
L 457.741591 -277.855965 
L 455.382252 -277.512622 
L 453.022912 -277.208898 
L 450.663572 -276.958821 
L 448.304233 -276.774514 
L 445.944893 -276.665226 
L 443.585554 -276.636562 
z
" id="ma4e7b51ba2" style="stroke:#575757;"/>
    </defs>
    <g clip-path="url(#peafa79d78d)">
     <use style="fill:#7c78ab;stroke:#575757;" x="0" xlink:href="#ma4e7b51ba2" y="316.395"/>
    </g>
   </g>
   <g id="PolyCollection_2">
    <defs>
     <path d="M 443.577872 -215.32474 
L 443.577872 -221.31901 
L 445.935868 -221.306162 
L 448.293865 -221.246037 
L 450.651861 -221.142247 
L 453.009857 -221.000576 
L 455.367853 -220.828537 
L 457.72585 -220.634817 
L 460.083846 -220.428647 
L 462.441842 -220.219171 
L 464.799838 -220.014876 
L 467.157834 -219.823106 
L 469.515831 -219.649725 
L 471.873827 -219.498912 
L 474.231823 -219.373107 
L 476.589819 -219.273082 
L 478.947816 -219.198124 
L 481.305812 -219.146285 
L 483.663808 -219.114682 
L 486.021804 -219.099817 
L 488.379801 -219.097886 
L 490.737797 -219.105075 
L 493.095793 -219.117805 
L 495.453789 -219.132944 
L 497.811786 -219.147963 
L 500.169782 -219.161036 
L 502.527778 -219.171095 
L 504.885774 -219.177817 
L 507.243771 -219.181577 
L 509.601767 -219.183346 
L 511.959763 -219.184567 
L 514.317759 -219.186996 
L 516.675756 -219.192554 
L 519.033752 -219.203176 
L 521.391748 -219.220694 
L 523.749744 -219.246756 
L 526.10774 -219.282802 
L 528.465737 -219.330082 
L 530.823733 -219.389737 
L 533.181729 -219.462915 
L 535.539725 -219.550915 
L 537.897722 -219.655342 
L 540.255718 -219.77824 
L 542.613714 -219.922204 
L 544.97171 -220.090439 
L 547.329707 -220.286757 
L 549.687703 -220.515525 
L 552.045699 -220.781542 
L 554.403695 -221.08988 
L 556.761692 -221.44568 
L 559.119688 -221.853936 
L 561.477684 -222.319266 
L 563.83568 -222.845689 
L 566.193677 -223.436415 
L 568.551673 -224.093653 
L 570.909669 -224.818436 
L 573.267665 -225.61047 
L 575.625662 -226.468002 
L 577.983658 -227.387716 
L 580.341654 -228.364655 
L 582.69965 -229.392188 
L 585.057647 -230.462015 
L 587.415643 -231.564234 
L 589.773639 -232.687475 
L 592.131635 -233.819092 
L 594.489631 -234.945444 
L 596.847628 -236.052221 
L 599.205624 -237.124848 
L 601.56362 -238.148919 
L 603.921616 -239.110666 
L 606.279613 -239.997428 
L 608.637609 -240.798105 
L 610.995605 -241.503573 
L 613.353601 -242.107031 
L 615.711598 -242.604258 
L 618.069594 -242.993764 
L 620.42759 -243.276806 
L 622.785586 -243.457266 
L 625.143583 -243.541375 
L 627.501579 -243.537295 
L 629.859575 -243.454567 
L 632.217571 -243.303456 
L 634.575568 -243.094224 
L 636.933564 -242.836393 
L 639.29156 -242.538039 
L 641.649556 -242.205191 
L 644.007553 -241.84138 
L 646.365549 -241.447398 
L 648.723545 -241.021282 
L 651.081541 -240.558566 
L 653.439537 -240.05277 
L 655.797534 -239.496101 
L 658.15553 -238.880325 
L 660.513526 -238.197733 
L 662.871522 -237.442114 
L 665.229519 -236.609661 
L 667.587515 -235.699704 
L 669.945511 -234.715233 
L 672.303507 -233.663112 
L 674.661504 -232.554001 
L 677.0195 -231.401956 
L 677.0195 -205.241794 
L 677.0195 -205.241794 
L 674.661504 -204.089749 
L 672.303507 -202.980638 
L 669.945511 -201.928517 
L 667.587515 -200.944046 
L 665.229519 -200.034089 
L 662.871522 -199.201636 
L 660.513526 -198.446017 
L 658.15553 -197.763425 
L 655.797534 -197.147649 
L 653.439537 -196.59098 
L 651.081541 -196.085184 
L 648.723545 -195.622468 
L 646.365549 -195.196352 
L 644.007553 -194.80237 
L 641.649556 -194.438559 
L 639.29156 -194.105711 
L 636.933564 -193.807357 
L 634.575568 -193.549526 
L 632.217571 -193.340294 
L 629.859575 -193.189183 
L 627.501579 -193.106455 
L 625.143583 -193.102375 
L 622.785586 -193.186484 
L 620.42759 -193.366944 
L 618.069594 -193.649986 
L 615.711598 -194.039492 
L 613.353601 -194.536719 
L 610.995605 -195.140177 
L 608.637609 -195.845645 
L 606.279613 -196.646322 
L 603.921616 -197.533084 
L 601.56362 -198.494831 
L 599.205624 -199.518902 
L 596.847628 -200.591529 
L 594.489631 -201.698306 
L 592.131635 -202.824658 
L 589.773639 -203.956275 
L 587.415643 -205.079516 
L 585.057647 -206.181735 
L 582.69965 -207.251562 
L 580.341654 -208.279095 
L 577.983658 -209.256034 
L 575.625662 -210.175748 
L 573.267665 -211.03328 
L 570.909669 -211.825314 
L 568.551673 -212.550097 
L 566.193677 -213.207335 
L 563.83568 -213.798061 
L 561.477684 -214.324484 
L 559.119688 -214.789814 
L 556.761692 -215.19807 
L 554.403695 -215.55387 
L 552.045699 -215.862208 
L 549.687703 -216.128225 
L 547.329707 -216.356993 
L 544.97171 -216.553311 
L 542.613714 -216.721546 
L 540.255718 -216.86551 
L 537.897722 -216.988408 
L 535.539725 -217.092835 
L 533.181729 -217.180835 
L 530.823733 -217.254013 
L 528.465737 -217.313668 
L 526.10774 -217.360948 
L 523.749744 -217.396994 
L 521.391748 -217.423056 
L 519.033752 -217.440574 
L 516.675756 -217.451196 
L 514.317759 -217.456754 
L 511.959763 -217.459183 
L 509.601767 -217.460404 
L 507.243771 -217.462173 
L 504.885774 -217.465933 
L 502.527778 -217.472655 
L 500.169782 -217.482714 
L 497.811786 -217.495787 
L 495.453789 -217.510806 
L 493.095793 -217.525945 
L 490.737797 -217.538675 
L 488.379801 -217.545864 
L 486.021804 -217.543933 
L 483.663808 -217.529068 
L 481.305812 -217.497465 
L 478.947816 -217.445626 
L 476.589819 -217.370668 
L 474.231823 -217.270643 
L 471.873827 -217.144838 
L 469.515831 -216.994025 
L 467.157834 -216.820644 
L 464.799838 -216.628874 
L 462.441842 -216.424579 
L 460.083846 -216.215103 
L 457.72585 -216.008933 
L 455.367853 -215.815213 
L 453.009857 -215.643174 
L 450.651861 -215.501503 
L 448.293865 -215.397713 
L 445.935868 -215.337588 
L 443.577872 -215.32474 
z
" id="mbcd11ae533" style="stroke:#575757;"/>
    </defs>
    <g clip-path="url(#peafa79d78d)">
     <use style="fill:#7c78ab;stroke:#575757;" x="0" xlink:href="#mbcd11ae533" y="316.395"/>
    </g>
   </g>
   <g id="PolyCollection_3">
    <defs>
     <path d="M 533.453065 -154.87219 
L 533.453065 -155.67406 
L 534.904206 -155.685612 
L 536.355346 -155.694748 
L 537.806487 -155.703092 
L 539.257627 -155.712674 
L 540.708768 -155.725781 
L 542.159909 -155.744767 
L 543.611049 -155.771849 
L 545.06219 -155.808902 
L 546.51333 -155.85729 
L 547.964471 -155.917726 
L 549.415611 -155.990212 
L 550.866752 -156.074032 
L 552.317892 -156.167822 
L 553.769033 -156.269694 
L 555.220173 -156.377408 
L 556.671314 -156.48857 
L 558.122454 -156.600831 
L 559.573595 -156.712067 
L 561.024735 -156.82052 
L 562.475876 -156.924898 
L 563.927017 -157.024408 
L 565.378157 -157.118753 
L 566.829298 -157.208073 
L 568.280438 -157.292873 
L 569.731579 -157.373933 
L 571.182719 -157.45223 
L 572.63386 -157.528872 
L 574.085 -157.605072 
L 575.536141 -157.682144 
L 576.987281 -157.761526 
L 578.438422 -157.844822 
L 579.889562 -157.933837 
L 581.340703 -158.030609 
L 582.791843 -158.137386 
L 584.242984 -158.256569 
L 585.694125 -158.390587 
L 587.145265 -158.541711 
L 588.596406 -158.711821 
L 590.047546 -158.902137 
L 591.498687 -159.112964 
L 592.949827 -159.343466 
L 594.400968 -159.591543 
L 595.852108 -159.853818 
L 597.303249 -160.125786 
L 598.754389 -160.402114 
L 600.20553 -160.677099 
L 601.65667 -160.94523 
L 603.107811 -161.201804 
L 604.558951 -161.443539 
L 606.010092 -161.669083 
L 607.461233 -161.879384 
L 608.912373 -162.077845 
L 610.363514 -162.27025 
L 611.814654 -162.464458 
L 613.265795 -162.669889 
L 614.716935 -162.896863 
L 616.168076 -163.155841 
L 617.619216 -163.456645 
L 619.070357 -163.807729 
L 620.521497 -164.215552 
L 621.972638 -164.684106 
L 623.423778 -165.214622 
L 624.874919 -165.805474 
L 626.326059 -166.45228 
L 627.7772 -167.148202 
L 629.228341 -167.884406 
L 630.679481 -168.650667 
L 632.130622 -169.436078 
L 633.581762 -170.229793 
L 635.032903 -171.021766 
L 636.484043 -171.803394 
L 637.935184 -172.568008 
L 639.386324 -173.311146 
L 640.837465 -174.030549 
L 642.288605 -174.72588 
L 643.739746 -175.398157 
L 645.190886 -176.04896 
L 646.642027 -176.67949 
L 648.093167 -177.289581 
L 649.544308 -177.876804 
L 650.995449 -178.435754 
L 652.446589 -178.957646 
L 653.89773 -179.43027 
L 655.34887 -179.838331 
L 656.800011 -180.16415 
L 658.251151 -180.388664 
L 659.702292 -180.492625 
L 661.153432 -180.45789 
L 662.604573 -180.268701 
L 664.055713 -179.912838 
L 665.506854 -179.382603 
L 666.957994 -178.675545 
L 668.409135 -177.794931 
L 669.860275 -176.749925 
L 671.311416 -175.555471 
L 672.762557 -174.231884 
L 674.213697 -172.804151 
L 675.664838 -171.300954 
L 677.115978 -169.753452 
L 677.115978 -140.792798 
L 677.115978 -140.792798 
L 675.664838 -139.245296 
L 674.213697 -137.742099 
L 672.762557 -136.314366 
L 671.311416 -134.990779 
L 669.860275 -133.796325 
L 668.409135 -132.751319 
L 666.957994 -131.870705 
L 665.506854 -131.163647 
L 664.055713 -130.633412 
L 662.604573 -130.277549 
L 661.153432 -130.08836 
L 659.702292 -130.053625 
L 658.251151 -130.157586 
L 656.800011 -130.3821 
L 655.34887 -130.707919 
L 653.89773 -131.11598 
L 652.446589 -131.588604 
L 650.995449 -132.110496 
L 649.544308 -132.669446 
L 648.093167 -133.256669 
L 646.642027 -133.86676 
L 645.190886 -134.49729 
L 643.739746 -135.148093 
L 642.288605 -135.82037 
L 640.837465 -136.515701 
L 639.386324 -137.235104 
L 637.935184 -137.978242 
L 636.484043 -138.742856 
L 635.032903 -139.524484 
L 633.581762 -140.316457 
L 632.130622 -141.110172 
L 630.679481 -141.895583 
L 629.228341 -142.661844 
L 627.7772 -143.398048 
L 626.326059 -144.09397 
L 624.874919 -144.740776 
L 623.423778 -145.331628 
L 621.972638 -145.862144 
L 620.521497 -146.330698 
L 619.070357 -146.738521 
L 617.619216 -147.089605 
L 616.168076 -147.390409 
L 614.716935 -147.649387 
L 613.265795 -147.876361 
L 611.814654 -148.081792 
L 610.363514 -148.276 
L 608.912373 -148.468405 
L 607.461233 -148.666866 
L 606.010092 -148.877167 
L 604.558951 -149.102711 
L 603.107811 -149.344446 
L 601.65667 -149.60102 
L 600.20553 -149.869151 
L 598.754389 -150.144136 
L 597.303249 -150.420464 
L 595.852108 -150.692432 
L 594.400968 -150.954707 
L 592.949827 -151.202784 
L 591.498687 -151.433286 
L 590.047546 -151.644113 
L 588.596406 -151.834429 
L 587.145265 -152.004539 
L 585.694125 -152.155663 
L 584.242984 -152.289681 
L 582.791843 -152.408864 
L 581.340703 -152.515641 
L 579.889562 -152.612413 
L 578.438422 -152.701428 
L 576.987281 -152.784724 
L 575.536141 -152.864106 
L 574.085 -152.941178 
L 572.63386 -153.017378 
L 571.182719 -153.09402 
L 569.731579 -153.172317 
L 568.280438 -153.253377 
L 566.829298 -153.338177 
L 565.378157 -153.427497 
L 563.927017 -153.521842 
L 562.475876 -153.621352 
L 561.024735 -153.72573 
L 559.573595 -153.834183 
L 558.122454 -153.945419 
L 556.671314 -154.05768 
L 555.220173 -154.168842 
L 553.769033 -154.276556 
L 552.317892 -154.378428 
L 550.866752 -154.472218 
L 549.415611 -154.556038 
L 547.964471 -154.628524 
L 546.51333 -154.68896 
L 545.06219 -154.737348 
L 543.611049 -154.774401 
L 542.159909 -154.801483 
L 540.708768 -154.820469 
L 539.257627 -154.833576 
L 537.806487 -154.843158 
L 536.355346 -154.851502 
L 534.904206 -154.860638 
L 533.453065 -154.87219 
z
" id="ma8b7bce505" style="stroke:#575757;"/>
    </defs>
    <g clip-path="url(#peafa79d78d)">
     <use style="fill:#7c78ab;stroke:#575757;" x="0" xlink:href="#ma8b7bce505" y="316.395"/>
    </g>
   </g>
   <g id="PolyCollection_4">
    <defs>
     <path d="M 542.294568 -91.005389 
L 542.294568 -93.443361 
L 543.650299 -93.588611 
L 545.006029 -93.746048 
L 546.361759 -93.915975 
L 547.717489 -94.098454 
L 549.073219 -94.293266 
L 550.42895 -94.499899 
L 551.78468 -94.717558 
L 553.14041 -94.945213 
L 554.49614 -95.18167 
L 555.85187 -95.425684 
L 557.2076 -95.676078 
L 558.563331 -95.93188 
L 559.919061 -96.192451 
L 561.274791 -96.457608 
L 562.630521 -96.727697 
L 563.986251 -97.003645 
L 565.341982 -97.286946 
L 566.697712 -97.579594 
L 568.053442 -97.88396 
L 569.409172 -98.202616 
L 570.764902 -98.538111 
L 572.120633 -98.892725 
L 573.476363 -99.268208 
L 574.832093 -99.665533 
L 576.187823 -100.08469 
L 577.543553 -100.524529 
L 578.899283 -100.982694 
L 580.255014 -101.455633 
L 581.610744 -101.938723 
L 582.966474 -102.426474 
L 584.322204 -102.912824 
L 585.677934 -103.391491 
L 587.033665 -103.856355 
L 588.389395 -104.301844 
L 589.745125 -104.723283 
L 591.100855 -105.117172 
L 592.456585 -105.481383 
L 593.812316 -105.81525 
L 595.168046 -106.119545 
L 596.523776 -106.396359 
L 597.879506 -106.648898 
L 599.235236 -106.88122 
L 600.590967 -107.097945 
L 601.946697 -107.303973 
L 603.302427 -107.504224 
L 604.658157 -107.703441 
L 606.013887 -107.906048 
L 607.369617 -108.116079 
L 608.725348 -108.337162 
L 610.081078 -108.57254 
L 611.436808 -108.825116 
L 612.792538 -109.097489 
L 614.148268 -109.39197 
L 615.503999 -109.710556 
L 616.859729 -110.054854 
L 618.215459 -110.425964 
L 619.571189 -110.824322 
L 620.926919 -111.249527 
L 622.28265 -111.70017 
L 623.63838 -112.173689 
L 624.99411 -112.666272 
L 626.34984 -113.172823 
L 627.70557 -113.687003 
L 629.0613 -114.201356 
L 630.417031 -114.707499 
L 631.772761 -115.196387 
L 633.128491 -115.658624 
L 634.484221 -116.084803 
L 635.839951 -116.465869 
L 637.195682 -116.793468 
L 638.551412 -117.060276 
L 639.907142 -117.26029 
L 641.262872 -117.389064 
L 642.618602 -117.443875 
L 643.974333 -117.423818 
L 645.330063 -117.329806 
L 646.685793 -117.164485 
L 648.041523 -116.932049 
L 649.397253 -116.637966 
L 650.752984 -116.288622 
L 652.108714 -115.890905 
L 653.464444 -115.451744 
L 654.820174 -114.977648 
L 656.175904 -114.474269 
L 657.531634 -113.946033 
L 658.887365 -113.39587 
L 660.243095 -112.825086 
L 661.598825 -112.233369 
L 662.954555 -111.618968 
L 664.310285 -110.979013 
L 665.666016 -110.30996 
L 667.021746 -109.608127 
L 668.377476 -108.870268 
L 669.733206 -108.094142 
L 671.088936 -107.279004 
L 672.444667 -106.425996 
L 673.800397 -105.538379 
L 675.156127 -104.621594 
L 676.511857 -103.683145 
L 676.511857 -80.765605 
L 676.511857 -80.765605 
L 675.156127 -79.827156 
L 673.800397 -78.910371 
L 672.444667 -78.022754 
L 671.088936 -77.169746 
L 669.733206 -76.354608 
L 668.377476 -75.578482 
L 667.021746 -74.840623 
L 665.666016 -74.13879 
L 664.310285 -73.469737 
L 662.954555 -72.829782 
L 661.598825 -72.215381 
L 660.243095 -71.623664 
L 658.887365 -71.05288 
L 657.531634 -70.502717 
L 656.175904 -69.974481 
L 654.820174 -69.471102 
L 653.464444 -68.997006 
L 652.108714 -68.557845 
L 650.752984 -68.160128 
L 649.397253 -67.810784 
L 648.041523 -67.516701 
L 646.685793 -67.284265 
L 645.330063 -67.118944 
L 643.974333 -67.024932 
L 642.618602 -67.004875 
L 641.262872 -67.059686 
L 639.907142 -67.18846 
L 638.551412 -67.388474 
L 637.195682 -67.655282 
L 635.839951 -67.982881 
L 634.484221 -68.363947 
L 633.128491 -68.790126 
L 631.772761 -69.252363 
L 630.417031 -69.741251 
L 629.0613 -70.247394 
L 627.70557 -70.761747 
L 626.34984 -71.275927 
L 624.99411 -71.782478 
L 623.63838 -72.275061 
L 622.28265 -72.74858 
L 620.926919 -73.199223 
L 619.571189 -73.624428 
L 618.215459 -74.022786 
L 616.859729 -74.393896 
L 615.503999 -74.738194 
L 614.148268 -75.05678 
L 612.792538 -75.351261 
L 611.436808 -75.623634 
L 610.081078 -75.87621 
L 608.725348 -76.111588 
L 607.369617 -76.332671 
L 606.013887 -76.542702 
L 604.658157 -76.745309 
L 603.302427 -76.944526 
L 601.946697 -77.144777 
L 600.590967 -77.350805 
L 599.235236 -77.56753 
L 597.879506 -77.799852 
L 596.523776 -78.052391 
L 595.168046 -78.329205 
L 593.812316 -78.6335 
L 592.456585 -78.967367 
L 591.100855 -79.331578 
L 589.745125 -79.725467 
L 588.389395 -80.146906 
L 587.033665 -80.592395 
L 585.677934 -81.057259 
L 584.322204 -81.535926 
L 582.966474 -82.022276 
L 581.610744 -82.510027 
L 580.255014 -82.993117 
L 578.899283 -83.466056 
L 577.543553 -83.924221 
L 576.187823 -84.36406 
L 574.832093 -84.783217 
L 573.476363 -85.180542 
L 572.120633 -85.556025 
L 570.764902 -85.910639 
L 569.409172 -86.246134 
L 568.053442 -86.56479 
L 566.697712 -86.869156 
L 565.341982 -87.161804 
L 563.986251 -87.445105 
L 562.630521 -87.721053 
L 561.274791 -87.991142 
L 559.919061 -88.256299 
L 558.563331 -88.51687 
L 557.2076 -88.772672 
L 555.85187 -89.023066 
L 554.49614 -89.26708 
L 553.14041 -89.503537 
L 551.78468 -89.731192 
L 550.42895 -89.948851 
L 549.073219 -90.155484 
L 547.717489 -90.350296 
L 546.361759 -90.532775 
L 545.006029 -90.702702 
L 543.650299 -90.860139 
L 542.294568 -91.005389 
z
" id="m77c1b98fcc" style="stroke:#575757;"/>
    </defs>
    <g clip-path="url(#peafa79d78d)">
     <use style="fill:#7c78ab;stroke:#575757;" x="0" xlink:href="#m77c1b98fcc" y="316.395"/>
    </g>
   </g>
   <g id="patch_46">
    <path clip-path="url(#peafa79d78d)" d="M 443.943 35.024375 
L 443.943 35.024375 
L 443.943 35.024375 
L 443.943 35.024375 
z
" style="fill:#7c78ab;stroke:#575757;stroke-linejoin:miter;stroke-width:0.5;"/>
   </g>
   <g id="matplotlib.axis_3">
    <g id="xtick_5">
     <g id="line2d_10">
      <g>
       <use style="stroke:#000000;stroke-width:1.6;" x="443.943" xlink:href="#md8d5beb1d8" y="255.695"/>
      </g>
     </g>
     <g id="text_11">
      <!-- 0.0 -->
      <g transform="translate(428.039875 285.591875)scale(0.2 -0.2)">
       <use xlink:href="#DejaVuSans-48"/>
       <use x="63.623047" xlink:href="#DejaVuSans-46"/>
       <use x="95.410156" xlink:href="#DejaVuSans-48"/>
      </g>
     </g>
    </g>
    <g id="xtick_6">
     <g id="line2d_11">
      <g>
       <use style="stroke:#000000;stroke-width:1.6;" x="511.195" xlink:href="#md8d5beb1d8" y="255.695"/>
      </g>
     </g>
     <g id="text_12">
      <!-- 0.2 -->
      <g transform="translate(495.291875 285.591875)scale(0.2 -0.2)">
       <use xlink:href="#DejaVuSans-48"/>
       <use x="63.623047" xlink:href="#DejaVuSans-46"/>
       <use x="95.410156" xlink:href="#DejaVuSans-50"/>
      </g>
     </g>
    </g>
    <g id="xtick_7">
     <g id="line2d_12">
      <g>
       <use style="stroke:#000000;stroke-width:1.6;" x="578.447" xlink:href="#md8d5beb1d8" y="255.695"/>
      </g>
     </g>
     <g id="text_13">
      <!-- 0.4 -->
      <g transform="translate(562.543875 285.591875)scale(0.2 -0.2)">
       <use xlink:href="#DejaVuSans-48"/>
       <use x="63.623047" xlink:href="#DejaVuSans-46"/>
       <use x="95.410156" xlink:href="#DejaVuSans-52"/>
      </g>
     </g>
    </g>
    <g id="xtick_8">
     <g id="line2d_13">
      <g>
       <use style="stroke:#000000;stroke-width:1.6;" x="645.699" xlink:href="#md8d5beb1d8" y="255.695"/>
      </g>
     </g>
     <g id="text_14">
      <!-- 0.6 -->
      <g transform="translate(629.795875 285.591875)scale(0.2 -0.2)">
       <use xlink:href="#DejaVuSans-48"/>
       <use x="63.623047" xlink:href="#DejaVuSans-46"/>
       <use x="95.410156" xlink:href="#DejaVuSans-54"/>
      </g>
     </g>
    </g>
    <g id="text_15">
     <!-- Max Attention -->
     <defs>
      <path d="M 34.1875 63.1875 
L 20.796875 26.90625 
L 47.609375 26.90625 
z
M 28.609375 72.90625 
L 39.796875 72.90625 
L 67.578125 0 
L 57.328125 0 
L 50.6875 18.703125 
L 17.828125 18.703125 
L 11.1875 0 
L 0.78125 0 
z
" id="DejaVuSans-65"/>
      <path d="M 30.609375 48.390625 
Q 23.390625 48.390625 19.1875 42.75 
Q 14.984375 37.109375 14.984375 27.296875 
Q 14.984375 17.484375 19.15625 11.84375 
Q 23.34375 6.203125 30.609375 6.203125 
Q 37.796875 6.203125 41.984375 11.859375 
Q 46.1875 17.53125 46.1875 27.296875 
Q 46.1875 37.015625 41.984375 42.703125 
Q 37.796875 48.390625 30.609375 48.390625 
z
M 30.609375 56 
Q 42.328125 56 49.015625 48.375 
Q 55.71875 40.765625 55.71875 27.296875 
Q 55.71875 13.875 49.015625 6.21875 
Q 42.328125 -1.421875 30.609375 -1.421875 
Q 18.84375 -1.421875 12.171875 6.21875 
Q 5.515625 13.875 5.515625 27.296875 
Q 5.515625 40.765625 12.171875 48.375 
Q 18.84375 56 30.609375 56 
z
" id="DejaVuSans-111"/>
     </defs>
     <g transform="translate(483.049375 308.948125)scale(0.2 -0.2)">
      <use xlink:href="#DejaVuSans-77"/>
      <use x="86.279297" xlink:href="#DejaVuSans-97"/>
      <use x="147.558594" xlink:href="#DejaVuSans-120"/>
      <use x="206.738281" xlink:href="#DejaVuSans-32"/>
      <use x="238.525391" xlink:href="#DejaVuSans-65"/>
      <use x="306.917969" xlink:href="#DejaVuSans-116"/>
      <use x="346.126953" xlink:href="#DejaVuSans-116"/>
      <use x="385.335938" xlink:href="#DejaVuSans-101"/>
      <use x="446.859375" xlink:href="#DejaVuSans-110"/>
      <use x="510.238281" xlink:href="#DejaVuSans-116"/>
      <use x="549.447266" xlink:href="#DejaVuSans-105"/>
      <use x="577.230469" xlink:href="#DejaVuSans-111"/>
      <use x="638.412109" xlink:href="#DejaVuSans-110"/>
     </g>
    </g>
   </g>
   <g id="matplotlib.axis_4">
    <g id="ytick_6">
     <g id="line2d_14">
      <g>
       <use style="stroke:#000000;stroke-width:1.6;" x="427.13" xlink:href="#mde7b69c692" y="35.024375"/>
      </g>
     </g>
     <g id="text_16">
      <!-- [0.00, -->
      <defs>
       <path d="M 8.59375 75.984375 
L 29.296875 75.984375 
L 29.296875 69 
L 17.578125 69 
L 17.578125 -6.203125 
L 29.296875 -6.203125 
L 29.296875 -13.1875 
L 8.59375 -13.1875 
z
" id="DejaVuSans-91"/>
       <path d="M 11.71875 12.40625 
L 22.015625 12.40625 
L 22.015625 4 
L 14.015625 -11.625 
L 7.71875 -11.625 
L 11.71875 4 
z
" id="DejaVuSans-44"/>
      </defs>
      <g transform="translate(353.739375 31.425)scale(0.2 -0.2)">
       <use xlink:href="#DejaVuSans-91"/>
       <use x="39.013672" xlink:href="#DejaVuSans-48"/>
       <use x="102.636719" xlink:href="#DejaVuSans-46"/>
       <use x="134.423828" xlink:href="#DejaVuSans-48"/>
       <use x="198.046875" xlink:href="#DejaVuSans-48"/>
       <use x="261.669922" xlink:href="#DejaVuSans-44"/>
      </g>
      <!-- 0.25) -->
      <defs>
       <path d="M 10.796875 72.90625 
L 49.515625 72.90625 
L 49.515625 64.59375 
L 19.828125 64.59375 
L 19.828125 46.734375 
Q 21.96875 47.46875 24.109375 47.828125 
Q 26.265625 48.1875 28.421875 48.1875 
Q 40.625 48.1875 47.75 41.5 
Q 54.890625 34.8125 54.890625 23.390625 
Q 54.890625 11.625 47.5625 5.09375 
Q 40.234375 -1.421875 26.90625 -1.421875 
Q 22.3125 -1.421875 17.546875 -0.640625 
Q 12.796875 0.140625 7.71875 1.703125 
L 7.71875 11.625 
Q 12.109375 9.234375 16.796875 8.0625 
Q 21.484375 6.890625 26.703125 6.890625 
Q 35.15625 6.890625 40.078125 11.328125 
Q 45.015625 15.765625 45.015625 23.390625 
Q 45.015625 31 40.078125 35.4375 
Q 35.15625 39.890625 26.703125 39.890625 
Q 22.75 39.890625 18.8125 39.015625 
Q 14.890625 38.140625 10.796875 36.28125 
z
" id="DejaVuSans-53"/>
       <path d="M 8.015625 75.875 
L 15.828125 75.875 
Q 23.140625 64.359375 26.78125 53.3125 
Q 30.421875 42.28125 30.421875 31.390625 
Q 30.421875 20.453125 26.78125 9.375 
Q 23.140625 -1.703125 15.828125 -13.1875 
L 8.015625 -13.1875 
Q 14.5 -2 17.703125 9.0625 
Q 20.90625 20.125 20.90625 31.390625 
Q 20.90625 42.671875 17.703125 53.65625 
Q 14.5 64.65625 8.015625 75.875 
z
" id="DejaVuSans-41"/>
      </defs>
      <g transform="translate(360.095625 53.820625)scale(0.2 -0.2)">
       <use xlink:href="#DejaVuSans-48"/>
       <use x="63.623047" xlink:href="#DejaVuSans-46"/>
       <use x="95.410156" xlink:href="#DejaVuSans-50"/>
       <use x="159.033203" xlink:href="#DejaVuSans-53"/>
       <use x="222.65625" xlink:href="#DejaVuSans-41"/>
      </g>
     </g>
    </g>
    <g id="ytick_7">
     <g id="line2d_15">
      <g>
       <use style="stroke:#000000;stroke-width:1.6;" x="427.13" xlink:href="#mde7b69c692" y="98.073125"/>
      </g>
     </g>
     <g id="text_17">
      <!-- [0.25, -->
      <g transform="translate(353.739375 94.47375)scale(0.2 -0.2)">
       <use xlink:href="#DejaVuSans-91"/>
       <use x="39.013672" xlink:href="#DejaVuSans-48"/>
       <use x="102.636719" xlink:href="#DejaVuSans-46"/>
       <use x="134.423828" xlink:href="#DejaVuSans-50"/>
       <use x="198.046875" xlink:href="#DejaVuSans-53"/>
       <use x="261.669922" xlink:href="#DejaVuSans-44"/>
      </g>
      <!-- 0.50) -->
      <g transform="translate(360.095625 116.869375)scale(0.2 -0.2)">
       <use xlink:href="#DejaVuSans-48"/>
       <use x="63.623047" xlink:href="#DejaVuSans-46"/>
       <use x="95.410156" xlink:href="#DejaVuSans-53"/>
       <use x="159.033203" xlink:href="#DejaVuSans-48"/>
       <use x="222.65625" xlink:href="#DejaVuSans-41"/>
      </g>
     </g>
    </g>
    <g id="ytick_8">
     <g id="line2d_16">
      <g>
       <use style="stroke:#000000;stroke-width:1.6;" x="427.13" xlink:href="#mde7b69c692" y="161.121875"/>
      </g>
     </g>
     <g id="text_18">
      <!-- [0.50, -->
      <g transform="translate(353.739375 157.5225)scale(0.2 -0.2)">
       <use xlink:href="#DejaVuSans-91"/>
       <use x="39.013672" xlink:href="#DejaVuSans-48"/>
       <use x="102.636719" xlink:href="#DejaVuSans-46"/>
       <use x="134.423828" xlink:href="#DejaVuSans-53"/>
       <use x="198.046875" xlink:href="#DejaVuSans-48"/>
       <use x="261.669922" xlink:href="#DejaVuSans-44"/>
      </g>
      <!-- 0.75) -->
      <defs>
       <path d="M 8.203125 72.90625 
L 55.078125 72.90625 
L 55.078125 68.703125 
L 28.609375 0 
L 18.3125 0 
L 43.21875 64.59375 
L 8.203125 64.59375 
z
" id="DejaVuSans-55"/>
      </defs>
      <g transform="translate(360.095625 179.918125)scale(0.2 -0.2)">
       <use xlink:href="#DejaVuSans-48"/>
       <use x="63.623047" xlink:href="#DejaVuSans-46"/>
       <use x="95.410156" xlink:href="#DejaVuSans-55"/>
       <use x="159.033203" xlink:href="#DejaVuSans-53"/>
       <use x="222.65625" xlink:href="#DejaVuSans-41"/>
      </g>
     </g>
    </g>
    <g id="ytick_9">
     <g id="line2d_17">
      <g>
       <use style="stroke:#000000;stroke-width:1.6;" x="427.13" xlink:href="#mde7b69c692" y="224.170625"/>
      </g>
     </g>
     <g id="text_19">
      <!-- [0.75, -->
      <g transform="translate(353.739375 220.57125)scale(0.2 -0.2)">
       <use xlink:href="#DejaVuSans-91"/>
       <use x="39.013672" xlink:href="#DejaVuSans-48"/>
       <use x="102.636719" xlink:href="#DejaVuSans-46"/>
       <use x="134.423828" xlink:href="#DejaVuSans-55"/>
       <use x="198.046875" xlink:href="#DejaVuSans-53"/>
       <use x="261.669922" xlink:href="#DejaVuSans-44"/>
      </g>
      <!-- 1.00) -->
      <defs>
       <path d="M 12.40625 8.296875 
L 28.515625 8.296875 
L 28.515625 63.921875 
L 10.984375 60.40625 
L 10.984375 69.390625 
L 28.421875 72.90625 
L 38.28125 72.90625 
L 38.28125 8.296875 
L 54.390625 8.296875 
L 54.390625 0 
L 12.40625 0 
z
" id="DejaVuSans-49"/>
      </defs>
      <g transform="translate(360.095625 242.966875)scale(0.2 -0.2)">
       <use xlink:href="#DejaVuSans-49"/>
       <use x="63.623047" xlink:href="#DejaVuSans-46"/>
       <use x="95.410156" xlink:href="#DejaVuSans-48"/>
       <use x="159.033203" xlink:href="#DejaVuSans-48"/>
       <use x="222.65625" xlink:href="#DejaVuSans-41"/>
      </g>
     </g>
    </g>
    <g id="text_20">
     <!-- Max JS Divergence within $\epsilon$ -->
     <g transform="translate(345.539375 265.1975)rotate(-90)scale(0.2 -0.2)">
      <use transform="translate(0 0.015625)" xlink:href="#DejaVuSans-77"/>
      <use transform="translate(86.279297 0.015625)" xlink:href="#DejaVuSans-97"/>
      <use transform="translate(147.558594 0.015625)" xlink:href="#DejaVuSans-120"/>
      <use transform="translate(206.738281 0.015625)" xlink:href="#DejaVuSans-32"/>
      <use transform="translate(238.525391 0.015625)" xlink:href="#DejaVuSans-74"/>
      <use transform="translate(268.017578 0.015625)" xlink:href="#DejaVuSans-83"/>
      <use transform="translate(331.494141 0.015625)" xlink:href="#DejaVuSans-32"/>
      <use transform="translate(363.28125 0.015625)" xlink:href="#DejaVuSans-68"/>
      <use transform="translate(440.283203 0.015625)" xlink:href="#DejaVuSans-105"/>
      <use transform="translate(468.066406 0.015625)" xlink:href="#DejaVuSans-118"/>
      <use transform="translate(527.246094 0.015625)" xlink:href="#DejaVuSans-101"/>
      <use transform="translate(588.769531 0.015625)" xlink:href="#DejaVuSans-114"/>
      <use transform="translate(629.882812 0.015625)" xlink:href="#DejaVuSans-103"/>
      <use transform="translate(693.359375 0.015625)" xlink:href="#DejaVuSans-101"/>
      <use transform="translate(754.882812 0.015625)" xlink:href="#DejaVuSans-110"/>
      <use transform="translate(818.261719 0.015625)" xlink:href="#DejaVuSans-99"/>
      <use transform="translate(873.242188 0.015625)" xlink:href="#DejaVuSans-101"/>
      <use transform="translate(934.765625 0.015625)" xlink:href="#DejaVuSans-32"/>
      <use transform="translate(966.552734 0.015625)" xlink:href="#DejaVuSans-119"/>
      <use transform="translate(1048.339844 0.015625)" xlink:href="#DejaVuSans-105"/>
      <use transform="translate(1076.123047 0.015625)" xlink:href="#DejaVuSans-116"/>
      <use transform="translate(1115.332031 0.015625)" xlink:href="#DejaVuSans-104"/>
      <use transform="translate(1178.710938 0.015625)" xlink:href="#DejaVuSans-105"/>
      <use transform="translate(1206.494141 0.015625)" xlink:href="#DejaVuSans-110"/>
      <use transform="translate(1269.873047 0.015625)" xlink:href="#DejaVuSans-32"/>
      <use transform="translate(1301.660156 0.015625)" xlink:href="#DejaVuSans-Oblique-949"/>
     </g>
    </g>
   </g>
   <g id="line2d_18">
    <path clip-path="url(#peafa79d78d)" style="fill:none;stroke:#575757;stroke-dasharray:1.5,1.5;stroke-dashoffset:0;"/>
   </g>
   <g id="line2d_19">
    <path clip-path="url(#peafa79d78d)" style="fill:none;stroke:#575757;stroke-dasharray:3,3;stroke-dashoffset:0;"/>
   </g>
   <g id="line2d_20">
    <path clip-path="url(#peafa79d78d)" style="fill:none;stroke:#575757;stroke-dasharray:1.5,1.5;stroke-dashoffset:0;"/>
   </g>
   <g id="line2d_21">
    <path clip-path="url(#peafa79d78d)" style="fill:none;stroke:#575757;stroke-dasharray:1.5,1.5;stroke-dashoffset:0;"/>
   </g>
   <g id="line2d_22">
    <path clip-path="url(#peafa79d78d)" style="fill:none;stroke:#575757;stroke-dasharray:3,3;stroke-dashoffset:0;"/>
   </g>
   <g id="line2d_23">
    <path clip-path="url(#peafa79d78d)" style="fill:none;stroke:#575757;stroke-dasharray:1.5,1.5;stroke-dashoffset:0;"/>
   </g>
   <g id="line2d_24">
    <path clip-path="url(#peafa79d78d)" style="fill:none;stroke:#575757;stroke-dasharray:1.5,1.5;stroke-dashoffset:0;"/>
   </g>
   <g id="line2d_25">
    <path clip-path="url(#peafa79d78d)" style="fill:none;stroke:#575757;stroke-dasharray:3,3;stroke-dashoffset:0;"/>
   </g>
   <g id="line2d_26">
    <path clip-path="url(#peafa79d78d)" style="fill:none;stroke:#575757;stroke-dasharray:1.5,1.5;stroke-dashoffset:0;"/>
   </g>
   <g id="line2d_27">
    <path clip-path="url(#peafa79d78d)" style="fill:none;stroke:#575757;stroke-dasharray:1.5,1.5;stroke-dashoffset:0;"/>
   </g>
   <g id="line2d_28">
    <path clip-path="url(#peafa79d78d)" style="fill:none;stroke:#575757;stroke-dasharray:3,3;stroke-dashoffset:0;"/>
   </g>
   <g id="line2d_29">
    <path clip-path="url(#peafa79d78d)" style="fill:none;stroke:#575757;stroke-dasharray:1.5,1.5;stroke-dashoffset:0;"/>
   </g>
   <g id="patch_47">
    <path style="fill:none;stroke:#000000;stroke-linecap:square;stroke-linejoin:miter;stroke-width:0.8;"/>
   </g>
   <g id="patch_48">
    <path style="fill:none;stroke:#000000;stroke-linecap:square;stroke-linejoin:miter;stroke-width:0.8;"/>
   </g>
  </g>
 </g>
 <defs>
  <clipPath id="p459d7ff474">
   <rect height="252.195" width="252.195" x="59.575" y="3.5"/>
  </clipPath>
  <clipPath id="peafa79d78d">
   <rect height="252.195" width="252.195" x="427.13" y="3.5"/>
  </clipPath>
 </defs>
</svg>
