<?xml version="1.0" encoding="utf-8" standalone="no"?>
<!DOCTYPE svg PUBLIC "-//W3C//DTD SVG 1.1//EN"
  "http://www.w3.org/Graphics/SVG/1.1/DTD/svg11.dtd">
<!-- Created with matplotlib (https://matplotlib.org/) -->
<svg height="316.395pt" version="1.1" viewBox="0 0 321.893203 316.395" width="321.893203pt" xmlns="http://www.w3.org/2000/svg" xmlns:xlink="http://www.w3.org/1999/xlink">
 <defs>
  <style type="text/css">
*{stroke-linecap:butt;stroke-linejoin:round;}
  </style>
 </defs>
 <g id="figure_1">
  <g id="patch_1">
   <path d="M 0 316.395 
L 321.893203 316.395 
L 321.893203 0 
L 0 0 
z
" style="fill:#ffffff;"/>
  </g>
  <g id="axes_1">
   <g id="patch_2">
    <path d="M 59.575 255.695 
L 311.77 255.695 
L 311.77 3.5 
L 59.575 3.5 
z
" style="fill:#ffffff;"/>
   </g>
   <g id="patch_3">
    <path clip-path="url(#p91f2137566)" d="M 71.038409 255.695 
L 76.770114 255.695 
L 76.770114 255.695 
L 71.038409 255.695 
z
" style="fill:#7570b3;opacity:0.6;stroke:#000000;stroke-linejoin:miter;stroke-width:0.5;"/>
   </g>
   <g id="patch_4">
    <path clip-path="url(#p91f2137566)" d="M 76.770114 255.695 
L 82.501818 255.695 
L 82.501818 255.695 
L 76.770114 255.695 
z
" style="fill:#7570b3;opacity:0.6;stroke:#000000;stroke-linejoin:miter;stroke-width:0.5;"/>
   </g>
   <g id="patch_5">
    <path clip-path="url(#p91f2137566)" d="M 82.501818 255.695 
L 88.233523 255.695 
L 88.233523 255.695 
L 82.501818 255.695 
z
" style="fill:#7570b3;opacity:0.6;stroke:#000000;stroke-linejoin:miter;stroke-width:0.5;"/>
   </g>
   <g id="patch_6">
    <path clip-path="url(#p91f2137566)" d="M 88.233523 255.695 
L 93.965227 255.695 
L 93.965227 255.695 
L 88.233523 255.695 
z
" style="fill:#7570b3;opacity:0.6;stroke:#000000;stroke-linejoin:miter;stroke-width:0.5;"/>
   </g>
   <g id="patch_7">
    <path clip-path="url(#p91f2137566)" d="M 93.965227 255.695 
L 99.696932 255.695 
L 99.696932 255.695 
L 93.965227 255.695 
z
" style="fill:#7570b3;opacity:0.6;stroke:#000000;stroke-linejoin:miter;stroke-width:0.5;"/>
   </g>
   <g id="patch_8">
    <path clip-path="url(#p91f2137566)" d="M 99.696932 255.695 
L 105.428636 255.695 
L 105.428636 255.695 
L 99.696932 255.695 
z
" style="fill:#7570b3;opacity:0.6;stroke:#000000;stroke-linejoin:miter;stroke-width:0.5;"/>
   </g>
   <g id="patch_9">
    <path clip-path="url(#p91f2137566)" d="M 105.428636 255.695 
L 111.160341 255.695 
L 111.160341 254.145415 
L 105.428636 254.145415 
z
" style="fill:#7570b3;opacity:0.6;stroke:#000000;stroke-linejoin:miter;stroke-width:0.5;"/>
   </g>
   <g id="patch_10">
    <path clip-path="url(#p91f2137566)" d="M 111.160341 255.695 
L 116.892045 255.695 
L 116.892045 255.695 
L 111.160341 255.695 
z
" style="fill:#7570b3;opacity:0.6;stroke:#000000;stroke-linejoin:miter;stroke-width:0.5;"/>
   </g>
   <g id="patch_11">
    <path clip-path="url(#p91f2137566)" d="M 116.892045 255.695 
L 122.62375 255.695 
L 122.62375 255.695 
L 116.892045 255.695 
z
" style="fill:#7570b3;opacity:0.6;stroke:#000000;stroke-linejoin:miter;stroke-width:0.5;"/>
   </g>
   <g id="patch_12">
    <path clip-path="url(#p91f2137566)" d="M 122.62375 255.695 
L 128.355455 255.695 
L 128.355455 254.145415 
L 122.62375 254.145415 
z
" style="fill:#7570b3;opacity:0.6;stroke:#000000;stroke-linejoin:miter;stroke-width:0.5;"/>
   </g>
   <g id="patch_13">
    <path clip-path="url(#p91f2137566)" d="M 128.355455 255.695 
L 134.087159 255.695 
L 134.087159 255.695 
L 128.355455 255.695 
z
" style="fill:#7570b3;opacity:0.6;stroke:#000000;stroke-linejoin:miter;stroke-width:0.5;"/>
   </g>
   <g id="patch_14">
    <path clip-path="url(#p91f2137566)" d="M 134.087159 255.695 
L 139.818864 255.695 
L 139.818864 254.145415 
L 134.087159 254.145415 
z
" style="fill:#7570b3;opacity:0.6;stroke:#000000;stroke-linejoin:miter;stroke-width:0.5;"/>
   </g>
   <g id="patch_15">
    <path clip-path="url(#p91f2137566)" d="M 139.818864 255.695 
L 145.550568 255.695 
L 145.550568 249.496659 
L 139.818864 249.496659 
z
" style="fill:#7570b3;opacity:0.6;stroke:#000000;stroke-linejoin:miter;stroke-width:0.5;"/>
   </g>
   <g id="patch_16">
    <path clip-path="url(#p91f2137566)" d="M 145.550568 255.695 
L 151.282273 255.695 
L 151.282273 251.046244 
L 145.550568 251.046244 
z
" style="fill:#7570b3;opacity:0.6;stroke:#000000;stroke-linejoin:miter;stroke-width:0.5;"/>
   </g>
   <g id="patch_17">
    <path clip-path="url(#p91f2137566)" d="M 151.282273 255.695 
L 157.013977 255.695 
L 157.013977 254.145415 
L 151.282273 254.145415 
z
" style="fill:#7570b3;opacity:0.6;stroke:#000000;stroke-linejoin:miter;stroke-width:0.5;"/>
   </g>
   <g id="patch_18">
    <path clip-path="url(#p91f2137566)" d="M 157.013977 255.695 
L 162.745682 255.695 
L 162.745682 251.046244 
L 157.013977 251.046244 
z
" style="fill:#7570b3;opacity:0.6;stroke:#000000;stroke-linejoin:miter;stroke-width:0.5;"/>
   </g>
   <g id="patch_19">
    <path clip-path="url(#p91f2137566)" d="M 162.745682 255.695 
L 168.477386 255.695 
L 168.477386 252.595829 
L 162.745682 252.595829 
z
" style="fill:#7570b3;opacity:0.6;stroke:#000000;stroke-linejoin:miter;stroke-width:0.5;"/>
   </g>
   <g id="patch_20">
    <path clip-path="url(#p91f2137566)" d="M 168.477386 255.695 
L 174.209091 255.695 
L 174.209091 254.145415 
L 168.477386 254.145415 
z
" style="fill:#7570b3;opacity:0.6;stroke:#000000;stroke-linejoin:miter;stroke-width:0.5;"/>
   </g>
   <g id="patch_21">
    <path clip-path="url(#p91f2137566)" d="M 174.209091 255.695 
L 179.940795 255.695 
L 179.940795 252.595829 
L 174.209091 252.595829 
z
" style="fill:#7570b3;opacity:0.6;stroke:#000000;stroke-linejoin:miter;stroke-width:0.5;"/>
   </g>
   <g id="patch_22">
    <path clip-path="url(#p91f2137566)" d="M 179.940795 255.695 
L 185.6725 255.695 
L 185.6725 251.046244 
L 179.940795 251.046244 
z
" style="fill:#7570b3;opacity:0.6;stroke:#000000;stroke-linejoin:miter;stroke-width:0.5;"/>
   </g>
   <g id="patch_23">
    <path clip-path="url(#p91f2137566)" d="M 185.6725 255.695 
L 191.404205 255.695 
L 191.404205 251.046244 
L 185.6725 251.046244 
z
" style="fill:#7570b3;opacity:0.6;stroke:#000000;stroke-linejoin:miter;stroke-width:0.5;"/>
   </g>
   <g id="patch_24">
    <path clip-path="url(#p91f2137566)" d="M 191.404205 255.695 
L 197.135909 255.695 
L 197.135909 246.397488 
L 191.404205 246.397488 
z
" style="fill:#7570b3;opacity:0.6;stroke:#000000;stroke-linejoin:miter;stroke-width:0.5;"/>
   </g>
   <g id="patch_25">
    <path clip-path="url(#p91f2137566)" d="M 197.135909 255.695 
L 202.867614 255.695 
L 202.867614 244.847903 
L 197.135909 244.847903 
z
" style="fill:#7570b3;opacity:0.6;stroke:#000000;stroke-linejoin:miter;stroke-width:0.5;"/>
   </g>
   <g id="patch_26">
    <path clip-path="url(#p91f2137566)" d="M 202.867614 255.695 
L 208.599318 255.695 
L 208.599318 241.748733 
L 202.867614 241.748733 
z
" style="fill:#7570b3;opacity:0.6;stroke:#000000;stroke-linejoin:miter;stroke-width:0.5;"/>
   </g>
   <g id="patch_27">
    <path clip-path="url(#p91f2137566)" d="M 208.599318 255.695 
L 214.331023 255.695 
L 214.331023 213.856198 
L 208.599318 213.856198 
z
" style="fill:#7570b3;opacity:0.6;stroke:#000000;stroke-linejoin:miter;stroke-width:0.5;"/>
   </g>
   <g id="patch_28">
    <path clip-path="url(#p91f2137566)" d="M 214.331023 255.695 
L 220.062727 255.695 
L 220.062727 229.352051 
L 214.331023 229.352051 
z
" style="fill:#7570b3;opacity:0.6;stroke:#000000;stroke-linejoin:miter;stroke-width:0.5;"/>
   </g>
   <g id="patch_29">
    <path clip-path="url(#p91f2137566)" d="M 220.062727 255.695 
L 225.794432 255.695 
L 225.794432 192.162005 
L 220.062727 192.162005 
z
" style="fill:#7570b3;opacity:0.6;stroke:#000000;stroke-linejoin:miter;stroke-width:0.5;"/>
   </g>
   <g id="patch_30">
    <path clip-path="url(#p91f2137566)" d="M 225.794432 255.695 
L 231.526136 255.695 
L 231.526136 165.819055 
L 225.794432 165.819055 
z
" style="fill:#7570b3;opacity:0.6;stroke:#000000;stroke-linejoin:miter;stroke-width:0.5;"/>
   </g>
   <g id="patch_31">
    <path clip-path="url(#p91f2137566)" d="M 231.526136 255.695 
L 237.257841 255.695 
L 237.257841 164.26947 
L 231.526136 164.26947 
z
" style="fill:#7570b3;opacity:0.6;stroke:#000000;stroke-linejoin:miter;stroke-width:0.5;"/>
   </g>
   <g id="patch_32">
    <path clip-path="url(#p91f2137566)" d="M 237.257841 255.695 
L 242.989545 255.695 
L 242.989545 131.72818 
L 237.257841 131.72818 
z
" style="fill:#7570b3;opacity:0.6;stroke:#000000;stroke-linejoin:miter;stroke-width:0.5;"/>
   </g>
   <g id="patch_33">
    <path clip-path="url(#p91f2137566)" d="M 242.989545 255.695 
L 248.72125 255.695 
L 248.72125 116.232327 
L 242.989545 116.232327 
z
" style="fill:#7570b3;opacity:0.6;stroke:#000000;stroke-linejoin:miter;stroke-width:0.5;"/>
   </g>
   <g id="patch_34">
    <path clip-path="url(#p91f2137566)" d="M 248.72125 255.695 
L 254.452955 255.695 
L 254.452955 91.438963 
L 248.72125 91.438963 
z
" style="fill:#7570b3;opacity:0.6;stroke:#000000;stroke-linejoin:miter;stroke-width:0.5;"/>
   </g>
   <g id="patch_35">
    <path clip-path="url(#p91f2137566)" d="M 254.452955 255.695 
L 260.184659 255.695 
L 260.184659 66.645599 
L 254.452955 66.645599 
z
" style="fill:#7570b3;opacity:0.6;stroke:#000000;stroke-linejoin:miter;stroke-width:0.5;"/>
   </g>
   <g id="patch_36">
    <path clip-path="url(#p91f2137566)" d="M 260.184659 255.695 
L 265.916364 255.695 
L 265.916364 15.509286 
L 260.184659 15.509286 
z
" style="fill:#7570b3;opacity:0.6;stroke:#000000;stroke-linejoin:miter;stroke-width:0.5;"/>
   </g>
   <g id="patch_37">
    <path clip-path="url(#p91f2137566)" d="M 265.916364 255.695 
L 271.648068 255.695 
L 271.648068 69.74477 
L 265.916364 69.74477 
z
" style="fill:#7570b3;opacity:0.6;stroke:#000000;stroke-linejoin:miter;stroke-width:0.5;"/>
   </g>
   <g id="patch_38">
    <path clip-path="url(#p91f2137566)" d="M 271.648068 255.695 
L 277.379773 255.695 
L 277.379773 164.26947 
L 271.648068 164.26947 
z
" style="fill:#7570b3;opacity:0.6;stroke:#000000;stroke-linejoin:miter;stroke-width:0.5;"/>
   </g>
   <g id="patch_39">
    <path clip-path="url(#p91f2137566)" d="M 277.379773 255.695 
L 283.111477 255.695 
L 283.111477 229.352051 
L 277.379773 229.352051 
z
" style="fill:#7570b3;opacity:0.6;stroke:#000000;stroke-linejoin:miter;stroke-width:0.5;"/>
   </g>
   <g id="patch_40">
    <path clip-path="url(#p91f2137566)" d="M 283.111477 255.695 
L 288.843182 255.695 
L 288.843182 252.595829 
L 283.111477 252.595829 
z
" style="fill:#7570b3;opacity:0.6;stroke:#000000;stroke-linejoin:miter;stroke-width:0.5;"/>
   </g>
   <g id="patch_41">
    <path clip-path="url(#p91f2137566)" d="M 288.843182 255.695 
L 294.574886 255.695 
L 294.574886 255.695 
L 288.843182 255.695 
z
" style="fill:#7570b3;opacity:0.6;stroke:#000000;stroke-linejoin:miter;stroke-width:0.5;"/>
   </g>
   <g id="patch_42">
    <path clip-path="url(#p91f2137566)" d="M 294.574886 255.695 
L 300.306591 255.695 
L 300.306591 255.695 
L 294.574886 255.695 
z
" style="fill:#7570b3;opacity:0.6;stroke:#000000;stroke-linejoin:miter;stroke-width:0.5;"/>
   </g>
   <g id="matplotlib.axis_1">
    <g id="xtick_1">
     <g id="line2d_1">
      <defs>
       <path d="M 0 0 
L 0 3.5 
" id="m595ea45803" style="stroke:#000000;stroke-width:1.6;"/>
      </defs>
      <g>
       <use style="stroke:#000000;stroke-width:1.6;" x="71.038409" xlink:href="#m595ea45803" y="255.695"/>
      </g>
     </g>
     <g id="text_1">
      <!-- 0.0 -->
      <defs>
       <path d="M 31.78125 66.40625 
Q 24.171875 66.40625 20.328125 58.90625 
Q 16.5 51.421875 16.5 36.375 
Q 16.5 21.390625 20.328125 13.890625 
Q 24.171875 6.390625 31.78125 6.390625 
Q 39.453125 6.390625 43.28125 13.890625 
Q 47.125 21.390625 47.125 36.375 
Q 47.125 51.421875 43.28125 58.90625 
Q 39.453125 66.40625 31.78125 66.40625 
z
M 31.78125 74.21875 
Q 44.046875 74.21875 50.515625 64.515625 
Q 56.984375 54.828125 56.984375 36.375 
Q 56.984375 17.96875 50.515625 8.265625 
Q 44.046875 -1.421875 31.78125 -1.421875 
Q 19.53125 -1.421875 13.0625 8.265625 
Q 6.59375 17.96875 6.59375 36.375 
Q 6.59375 54.828125 13.0625 64.515625 
Q 19.53125 74.21875 31.78125 74.21875 
z
" id="DejaVuSans-48"/>
       <path d="M 10.6875 12.40625 
L 21 12.40625 
L 21 0 
L 10.6875 0 
z
" id="DejaVuSans-46"/>
      </defs>
      <g transform="translate(55.135284 285.591875)scale(0.2 -0.2)">
       <use xlink:href="#DejaVuSans-48"/>
       <use x="63.623047" xlink:href="#DejaVuSans-46"/>
       <use x="95.410156" xlink:href="#DejaVuSans-48"/>
      </g>
     </g>
    </g>
    <g id="xtick_2">
     <g id="line2d_2">
      <g>
       <use style="stroke:#000000;stroke-width:1.6;" x="136.543604" xlink:href="#m595ea45803" y="255.695"/>
      </g>
     </g>
     <g id="text_2">
      <!-- 0.2 -->
      <defs>
       <path d="M 19.1875 8.296875 
L 53.609375 8.296875 
L 53.609375 0 
L 7.328125 0 
L 7.328125 8.296875 
Q 12.9375 14.109375 22.625 23.890625 
Q 32.328125 33.6875 34.8125 36.53125 
Q 39.546875 41.84375 41.421875 45.53125 
Q 43.3125 49.21875 43.3125 52.78125 
Q 43.3125 58.59375 39.234375 62.25 
Q 35.15625 65.921875 28.609375 65.921875 
Q 23.96875 65.921875 18.8125 64.3125 
Q 13.671875 62.703125 7.8125 59.421875 
L 7.8125 69.390625 
Q 13.765625 71.78125 18.9375 73 
Q 24.125 74.21875 28.421875 74.21875 
Q 39.75 74.21875 46.484375 68.546875 
Q 53.21875 62.890625 53.21875 53.421875 
Q 53.21875 48.921875 51.53125 44.890625 
Q 49.859375 40.875 45.40625 35.40625 
Q 44.1875 33.984375 37.640625 27.21875 
Q 31.109375 20.453125 19.1875 8.296875 
z
" id="DejaVuSans-50"/>
      </defs>
      <g transform="translate(120.640479 285.591875)scale(0.2 -0.2)">
       <use xlink:href="#DejaVuSans-48"/>
       <use x="63.623047" xlink:href="#DejaVuSans-46"/>
       <use x="95.410156" xlink:href="#DejaVuSans-50"/>
      </g>
     </g>
    </g>
    <g id="xtick_3">
     <g id="line2d_3">
      <g>
       <use style="stroke:#000000;stroke-width:1.6;" x="202.048799" xlink:href="#m595ea45803" y="255.695"/>
      </g>
     </g>
     <g id="text_3">
      <!-- 0.4 -->
      <defs>
       <path d="M 37.796875 64.3125 
L 12.890625 25.390625 
L 37.796875 25.390625 
z
M 35.203125 72.90625 
L 47.609375 72.90625 
L 47.609375 25.390625 
L 58.015625 25.390625 
L 58.015625 17.1875 
L 47.609375 17.1875 
L 47.609375 0 
L 37.796875 0 
L 37.796875 17.1875 
L 4.890625 17.1875 
L 4.890625 26.703125 
z
" id="DejaVuSans-52"/>
      </defs>
      <g transform="translate(186.145674 285.591875)scale(0.2 -0.2)">
       <use xlink:href="#DejaVuSans-48"/>
       <use x="63.623047" xlink:href="#DejaVuSans-46"/>
       <use x="95.410156" xlink:href="#DejaVuSans-52"/>
      </g>
     </g>
    </g>
    <g id="xtick_4">
     <g id="line2d_4">
      <g>
       <use style="stroke:#000000;stroke-width:1.6;" x="267.553994" xlink:href="#m595ea45803" y="255.695"/>
      </g>
     </g>
     <g id="text_4">
      <!-- 0.6 -->
      <defs>
       <path d="M 33.015625 40.375 
Q 26.375 40.375 22.484375 35.828125 
Q 18.609375 31.296875 18.609375 23.390625 
Q 18.609375 15.53125 22.484375 10.953125 
Q 26.375 6.390625 33.015625 6.390625 
Q 39.65625 6.390625 43.53125 10.953125 
Q 47.40625 15.53125 47.40625 23.390625 
Q 47.40625 31.296875 43.53125 35.828125 
Q 39.65625 40.375 33.015625 40.375 
z
M 52.59375 71.296875 
L 52.59375 62.3125 
Q 48.875 64.0625 45.09375 64.984375 
Q 41.3125 65.921875 37.59375 65.921875 
Q 27.828125 65.921875 22.671875 59.328125 
Q 17.53125 52.734375 16.796875 39.40625 
Q 19.671875 43.65625 24.015625 45.921875 
Q 28.375 48.1875 33.59375 48.1875 
Q 44.578125 48.1875 50.953125 41.515625 
Q 57.328125 34.859375 57.328125 23.390625 
Q 57.328125 12.15625 50.6875 5.359375 
Q 44.046875 -1.421875 33.015625 -1.421875 
Q 20.359375 -1.421875 13.671875 8.265625 
Q 6.984375 17.96875 6.984375 36.375 
Q 6.984375 53.65625 15.1875 63.9375 
Q 23.390625 74.21875 37.203125 74.21875 
Q 40.921875 74.21875 44.703125 73.484375 
Q 48.484375 72.75 52.59375 71.296875 
z
" id="DejaVuSans-54"/>
      </defs>
      <g transform="translate(251.650869 285.591875)scale(0.2 -0.2)">
       <use xlink:href="#DejaVuSans-48"/>
       <use x="63.623047" xlink:href="#DejaVuSans-46"/>
       <use x="95.410156" xlink:href="#DejaVuSans-54"/>
      </g>
     </g>
    </g>
    <g id="text_5">
     <!-- Max JS Divergence within $\epsilon$ -->
     <defs>
      <path d="M 9.8125 72.90625 
L 24.515625 72.90625 
L 43.109375 23.296875 
L 61.8125 72.90625 
L 76.515625 72.90625 
L 76.515625 0 
L 66.890625 0 
L 66.890625 64.015625 
L 48.09375 14.015625 
L 38.1875 14.015625 
L 19.390625 64.015625 
L 19.390625 0 
L 9.8125 0 
z
" id="DejaVuSans-77"/>
      <path d="M 34.28125 27.484375 
Q 23.390625 27.484375 19.1875 25 
Q 14.984375 22.515625 14.984375 16.5 
Q 14.984375 11.71875 18.140625 8.90625 
Q 21.296875 6.109375 26.703125 6.109375 
Q 34.1875 6.109375 38.703125 11.40625 
Q 43.21875 16.703125 43.21875 25.484375 
L 43.21875 27.484375 
z
M 52.203125 31.203125 
L 52.203125 0 
L 43.21875 0 
L 43.21875 8.296875 
Q 40.140625 3.328125 35.546875 0.953125 
Q 30.953125 -1.421875 24.3125 -1.421875 
Q 15.921875 -1.421875 10.953125 3.296875 
Q 6 8.015625 6 15.921875 
Q 6 25.140625 12.171875 29.828125 
Q 18.359375 34.515625 30.609375 34.515625 
L 43.21875 34.515625 
L 43.21875 35.40625 
Q 43.21875 41.609375 39.140625 45 
Q 35.0625 48.390625 27.6875 48.390625 
Q 23 48.390625 18.546875 47.265625 
Q 14.109375 46.140625 10.015625 43.890625 
L 10.015625 52.203125 
Q 14.9375 54.109375 19.578125 55.046875 
Q 24.21875 56 28.609375 56 
Q 40.484375 56 46.34375 49.84375 
Q 52.203125 43.703125 52.203125 31.203125 
z
" id="DejaVuSans-97"/>
      <path d="M 54.890625 54.6875 
L 35.109375 28.078125 
L 55.90625 0 
L 45.3125 0 
L 29.390625 21.484375 
L 13.484375 0 
L 2.875 0 
L 24.125 28.609375 
L 4.6875 54.6875 
L 15.28125 54.6875 
L 29.78125 35.203125 
L 44.28125 54.6875 
z
" id="DejaVuSans-120"/>
      <path id="DejaVuSans-32"/>
      <path d="M 9.8125 72.90625 
L 19.671875 72.90625 
L 19.671875 5.078125 
Q 19.671875 -8.109375 14.671875 -14.0625 
Q 9.671875 -20.015625 -1.421875 -20.015625 
L -5.171875 -20.015625 
L -5.171875 -11.71875 
L -2.09375 -11.71875 
Q 4.4375 -11.71875 7.125 -8.046875 
Q 9.8125 -4.390625 9.8125 5.078125 
z
" id="DejaVuSans-74"/>
      <path d="M 53.515625 70.515625 
L 53.515625 60.890625 
Q 47.90625 63.578125 42.921875 64.890625 
Q 37.9375 66.21875 33.296875 66.21875 
Q 25.25 66.21875 20.875 63.09375 
Q 16.5 59.96875 16.5 54.203125 
Q 16.5 49.359375 19.40625 46.890625 
Q 22.3125 44.4375 30.421875 42.921875 
L 36.375 41.703125 
Q 47.40625 39.59375 52.65625 34.296875 
Q 57.90625 29 57.90625 20.125 
Q 57.90625 9.515625 50.796875 4.046875 
Q 43.703125 -1.421875 29.984375 -1.421875 
Q 24.8125 -1.421875 18.96875 -0.25 
Q 13.140625 0.921875 6.890625 3.21875 
L 6.890625 13.375 
Q 12.890625 10.015625 18.65625 8.296875 
Q 24.421875 6.59375 29.984375 6.59375 
Q 38.421875 6.59375 43.015625 9.90625 
Q 47.609375 13.234375 47.609375 19.390625 
Q 47.609375 24.75 44.3125 27.78125 
Q 41.015625 30.8125 33.5 32.328125 
L 27.484375 33.5 
Q 16.453125 35.6875 11.515625 40.375 
Q 6.59375 45.0625 6.59375 53.421875 
Q 6.59375 63.09375 13.40625 68.65625 
Q 20.21875 74.21875 32.171875 74.21875 
Q 37.3125 74.21875 42.625 73.28125 
Q 47.953125 72.359375 53.515625 70.515625 
z
" id="DejaVuSans-83"/>
      <path d="M 19.671875 64.796875 
L 19.671875 8.109375 
L 31.59375 8.109375 
Q 46.6875 8.109375 53.6875 14.9375 
Q 60.6875 21.78125 60.6875 36.53125 
Q 60.6875 51.171875 53.6875 57.984375 
Q 46.6875 64.796875 31.59375 64.796875 
z
M 9.8125 72.90625 
L 30.078125 72.90625 
Q 51.265625 72.90625 61.171875 64.09375 
Q 71.09375 55.28125 71.09375 36.53125 
Q 71.09375 17.671875 61.125 8.828125 
Q 51.171875 0 30.078125 0 
L 9.8125 0 
z
" id="DejaVuSans-68"/>
      <path d="M 9.421875 54.6875 
L 18.40625 54.6875 
L 18.40625 0 
L 9.421875 0 
z
M 9.421875 75.984375 
L 18.40625 75.984375 
L 18.40625 64.59375 
L 9.421875 64.59375 
z
" id="DejaVuSans-105"/>
      <path d="M 2.984375 54.6875 
L 12.5 54.6875 
L 29.59375 8.796875 
L 46.6875 54.6875 
L 56.203125 54.6875 
L 35.6875 0 
L 23.484375 0 
z
" id="DejaVuSans-118"/>
      <path d="M 56.203125 29.59375 
L 56.203125 25.203125 
L 14.890625 25.203125 
Q 15.484375 15.921875 20.484375 11.0625 
Q 25.484375 6.203125 34.421875 6.203125 
Q 39.59375 6.203125 44.453125 7.46875 
Q 49.3125 8.734375 54.109375 11.28125 
L 54.109375 2.78125 
Q 49.265625 0.734375 44.1875 -0.34375 
Q 39.109375 -1.421875 33.890625 -1.421875 
Q 20.796875 -1.421875 13.15625 6.1875 
Q 5.515625 13.8125 5.515625 26.8125 
Q 5.515625 40.234375 12.765625 48.109375 
Q 20.015625 56 32.328125 56 
Q 43.359375 56 49.78125 48.890625 
Q 56.203125 41.796875 56.203125 29.59375 
z
M 47.21875 32.234375 
Q 47.125 39.59375 43.09375 43.984375 
Q 39.0625 48.390625 32.421875 48.390625 
Q 24.90625 48.390625 20.390625 44.140625 
Q 15.875 39.890625 15.1875 32.171875 
z
" id="DejaVuSans-101"/>
      <path d="M 41.109375 46.296875 
Q 39.59375 47.171875 37.8125 47.578125 
Q 36.03125 48 33.890625 48 
Q 26.265625 48 22.1875 43.046875 
Q 18.109375 38.09375 18.109375 28.8125 
L 18.109375 0 
L 9.078125 0 
L 9.078125 54.6875 
L 18.109375 54.6875 
L 18.109375 46.1875 
Q 20.953125 51.171875 25.484375 53.578125 
Q 30.03125 56 36.53125 56 
Q 37.453125 56 38.578125 55.875 
Q 39.703125 55.765625 41.0625 55.515625 
z
" id="DejaVuSans-114"/>
      <path d="M 45.40625 27.984375 
Q 45.40625 37.75 41.375 43.109375 
Q 37.359375 48.484375 30.078125 48.484375 
Q 22.859375 48.484375 18.828125 43.109375 
Q 14.796875 37.75 14.796875 27.984375 
Q 14.796875 18.265625 18.828125 12.890625 
Q 22.859375 7.515625 30.078125 7.515625 
Q 37.359375 7.515625 41.375 12.890625 
Q 45.40625 18.265625 45.40625 27.984375 
z
M 54.390625 6.78125 
Q 54.390625 -7.171875 48.1875 -13.984375 
Q 42 -20.796875 29.203125 -20.796875 
Q 24.46875 -20.796875 20.265625 -20.09375 
Q 16.0625 -19.390625 12.109375 -17.921875 
L 12.109375 -9.1875 
Q 16.0625 -11.328125 19.921875 -12.34375 
Q 23.78125 -13.375 27.78125 -13.375 
Q 36.625 -13.375 41.015625 -8.765625 
Q 45.40625 -4.15625 45.40625 5.171875 
L 45.40625 9.625 
Q 42.625 4.78125 38.28125 2.390625 
Q 33.9375 0 27.875 0 
Q 17.828125 0 11.671875 7.65625 
Q 5.515625 15.328125 5.515625 27.984375 
Q 5.515625 40.671875 11.671875 48.328125 
Q 17.828125 56 27.875 56 
Q 33.9375 56 38.28125 53.609375 
Q 42.625 51.21875 45.40625 46.390625 
L 45.40625 54.6875 
L 54.390625 54.6875 
z
" id="DejaVuSans-103"/>
      <path d="M 54.890625 33.015625 
L 54.890625 0 
L 45.90625 0 
L 45.90625 32.71875 
Q 45.90625 40.484375 42.875 44.328125 
Q 39.84375 48.1875 33.796875 48.1875 
Q 26.515625 48.1875 22.3125 43.546875 
Q 18.109375 38.921875 18.109375 30.90625 
L 18.109375 0 
L 9.078125 0 
L 9.078125 54.6875 
L 18.109375 54.6875 
L 18.109375 46.1875 
Q 21.34375 51.125 25.703125 53.5625 
Q 30.078125 56 35.796875 56 
Q 45.21875 56 50.046875 50.171875 
Q 54.890625 44.34375 54.890625 33.015625 
z
" id="DejaVuSans-110"/>
      <path d="M 48.78125 52.59375 
L 48.78125 44.1875 
Q 44.96875 46.296875 41.140625 47.34375 
Q 37.3125 48.390625 33.40625 48.390625 
Q 24.65625 48.390625 19.8125 42.84375 
Q 14.984375 37.3125 14.984375 27.296875 
Q 14.984375 17.28125 19.8125 11.734375 
Q 24.65625 6.203125 33.40625 6.203125 
Q 37.3125 6.203125 41.140625 7.25 
Q 44.96875 8.296875 48.78125 10.40625 
L 48.78125 2.09375 
Q 45.015625 0.34375 40.984375 -0.53125 
Q 36.96875 -1.421875 32.421875 -1.421875 
Q 20.0625 -1.421875 12.78125 6.34375 
Q 5.515625 14.109375 5.515625 27.296875 
Q 5.515625 40.671875 12.859375 48.328125 
Q 20.21875 56 33.015625 56 
Q 37.15625 56 41.109375 55.140625 
Q 45.0625 54.296875 48.78125 52.59375 
z
" id="DejaVuSans-99"/>
      <path d="M 4.203125 54.6875 
L 13.1875 54.6875 
L 24.421875 12.015625 
L 35.59375 54.6875 
L 46.1875 54.6875 
L 57.421875 12.015625 
L 68.609375 54.6875 
L 77.59375 54.6875 
L 63.28125 0 
L 52.6875 0 
L 40.921875 44.828125 
L 29.109375 0 
L 18.5 0 
z
" id="DejaVuSans-119"/>
      <path d="M 18.3125 70.21875 
L 18.3125 54.6875 
L 36.8125 54.6875 
L 36.8125 47.703125 
L 18.3125 47.703125 
L 18.3125 18.015625 
Q 18.3125 11.328125 20.140625 9.421875 
Q 21.96875 7.515625 27.59375 7.515625 
L 36.8125 7.515625 
L 36.8125 0 
L 27.59375 0 
Q 17.1875 0 13.234375 3.875 
Q 9.28125 7.765625 9.28125 18.015625 
L 9.28125 47.703125 
L 2.6875 47.703125 
L 2.6875 54.6875 
L 9.28125 54.6875 
L 9.28125 70.21875 
z
" id="DejaVuSans-116"/>
      <path d="M 54.890625 33.015625 
L 54.890625 0 
L 45.90625 0 
L 45.90625 32.71875 
Q 45.90625 40.484375 42.875 44.328125 
Q 39.84375 48.1875 33.796875 48.1875 
Q 26.515625 48.1875 22.3125 43.546875 
Q 18.109375 38.921875 18.109375 30.90625 
L 18.109375 0 
L 9.078125 0 
L 9.078125 75.984375 
L 18.109375 75.984375 
L 18.109375 46.1875 
Q 21.34375 51.125 25.703125 53.5625 
Q 30.078125 56 35.796875 56 
Q 45.21875 56 50.046875 50.171875 
Q 54.890625 44.34375 54.890625 33.015625 
z
" id="DejaVuSans-104"/>
      <path d="M 19.734375 29.5 
Q 14.453125 30.671875 12.15625 33.84375 
Q 10.453125 36.078125 10.453125 39.109375 
Q 10.453125 47.40625 18.359375 52.25 
Q 24.609375 56.0625 34.1875 56.0625 
Q 37.890625 56.0625 41.9375 55.46875 
Q 46 54.890625 50.53125 53.71875 
L 48.96875 45.5625 
Q 44.484375 46.96875 40.71875 47.609375 
Q 36.859375 48.25 33.40625 48.25 
Q 27.59375 48.25 23.78125 46 
Q 19.1875 43.3125 19.1875 39.40625 
Q 19.1875 36.8125 21.578125 35.015625 
Q 24.421875 32.859375 30.078125 32.859375 
L 37.640625 32.859375 
L 36.234375 25.4375 
L 29 25.4375 
Q 22.265625 25.4375 18.3125 22.953125 
Q 12.9375 19.578125 12.9375 14.3125 
Q 12.9375 10.984375 15.828125 8.796875 
Q 19.4375 6.0625 26.8125 6.0625 
Q 31.34375 6.0625 35.6875 6.9375 
Q 40.046875 7.859375 43.84375 9.671875 
L 42.1875 1.3125 
Q 37.546875 -0.046875 33.296875 -0.734375 
Q 29.046875 -1.421875 25.140625 -1.421875 
Q 13.53125 -1.421875 8.0625 3.03125 
Q 3.90625 6.453125 3.90625 12.203125 
Q 3.90625 19.96875 9.375 24.75 
Q 13.421875 28.328125 19.734375 29.5 
z
" id="DejaVuSans-Oblique-949"/>
     </defs>
     <g transform="translate(50.0725 308.95125)scale(0.2 -0.2)">
      <use transform="translate(0 0.015625)" xlink:href="#DejaVuSans-77"/>
      <use transform="translate(86.279297 0.015625)" xlink:href="#DejaVuSans-97"/>
      <use transform="translate(147.558594 0.015625)" xlink:href="#DejaVuSans-120"/>
      <use transform="translate(206.738281 0.015625)" xlink:href="#DejaVuSans-32"/>
      <use transform="translate(238.525391 0.015625)" xlink:href="#DejaVuSans-74"/>
      <use transform="translate(268.017578 0.015625)" xlink:href="#DejaVuSans-83"/>
      <use transform="translate(331.494141 0.015625)" xlink:href="#DejaVuSans-32"/>
      <use transform="translate(363.28125 0.015625)" xlink:href="#DejaVuSans-68"/>
      <use transform="translate(440.283203 0.015625)" xlink:href="#DejaVuSans-105"/>
      <use transform="translate(468.066406 0.015625)" xlink:href="#DejaVuSans-118"/>
      <use transform="translate(527.246094 0.015625)" xlink:href="#DejaVuSans-101"/>
      <use transform="translate(588.769531 0.015625)" xlink:href="#DejaVuSans-114"/>
      <use transform="translate(629.882812 0.015625)" xlink:href="#DejaVuSans-103"/>
      <use transform="translate(693.359375 0.015625)" xlink:href="#DejaVuSans-101"/>
      <use transform="translate(754.882812 0.015625)" xlink:href="#DejaVuSans-110"/>
      <use transform="translate(818.261719 0.015625)" xlink:href="#DejaVuSans-99"/>
      <use transform="translate(873.242188 0.015625)" xlink:href="#DejaVuSans-101"/>
      <use transform="translate(934.765625 0.015625)" xlink:href="#DejaVuSans-32"/>
      <use transform="translate(966.552734 0.015625)" xlink:href="#DejaVuSans-119"/>
      <use transform="translate(1048.339844 0.015625)" xlink:href="#DejaVuSans-105"/>
      <use transform="translate(1076.123047 0.015625)" xlink:href="#DejaVuSans-116"/>
      <use transform="translate(1115.332031 0.015625)" xlink:href="#DejaVuSans-104"/>
      <use transform="translate(1178.710938 0.015625)" xlink:href="#DejaVuSans-105"/>
      <use transform="translate(1206.494141 0.015625)" xlink:href="#DejaVuSans-110"/>
      <use transform="translate(1269.873047 0.015625)" xlink:href="#DejaVuSans-32"/>
      <use transform="translate(1301.660156 0.015625)" xlink:href="#DejaVuSans-Oblique-949"/>
     </g>
    </g>
   </g>
   <g id="matplotlib.axis_2">
    <g id="ytick_1">
     <g id="line2d_5">
      <defs>
       <path d="M 0 0 
L -3.5 0 
" id="mc566d67570" style="stroke:#000000;stroke-width:1.6;"/>
      </defs>
      <g>
       <use style="stroke:#000000;stroke-width:1.6;" x="59.575" xlink:href="#mc566d67570" y="255.695"/>
      </g>
     </g>
     <g id="text_6">
      <!-- 0.00 -->
      <g transform="translate(0.34375 263.293437)scale(0.2 -0.2)">
       <use xlink:href="#DejaVuSans-48"/>
       <use x="63.623047" xlink:href="#DejaVuSans-46"/>
       <use x="95.410156" xlink:href="#DejaVuSans-48"/>
       <use x="159.033203" xlink:href="#DejaVuSans-48"/>
      </g>
     </g>
    </g>
    <g id="ytick_2">
     <g id="line2d_6">
      <g>
       <use style="stroke:#000000;stroke-width:1.6;" x="59.575" xlink:href="#mc566d67570" y="178.215737"/>
      </g>
     </g>
     <g id="text_7">
      <!-- 0.05 -->
      <defs>
       <path d="M 10.796875 72.90625 
L 49.515625 72.90625 
L 49.515625 64.59375 
L 19.828125 64.59375 
L 19.828125 46.734375 
Q 21.96875 47.46875 24.109375 47.828125 
Q 26.265625 48.1875 28.421875 48.1875 
Q 40.625 48.1875 47.75 41.5 
Q 54.890625 34.8125 54.890625 23.390625 
Q 54.890625 11.625 47.5625 5.09375 
Q 40.234375 -1.421875 26.90625 -1.421875 
Q 22.3125 -1.421875 17.546875 -0.640625 
Q 12.796875 0.140625 7.71875 1.703125 
L 7.71875 11.625 
Q 12.109375 9.234375 16.796875 8.0625 
Q 21.484375 6.890625 26.703125 6.890625 
Q 35.15625 6.890625 40.078125 11.328125 
Q 45.015625 15.765625 45.015625 23.390625 
Q 45.015625 31 40.078125 35.4375 
Q 35.15625 39.890625 26.703125 39.890625 
Q 22.75 39.890625 18.8125 39.015625 
Q 14.890625 38.140625 10.796875 36.28125 
z
" id="DejaVuSans-53"/>
      </defs>
      <g transform="translate(0.34375 185.814175)scale(0.2 -0.2)">
       <use xlink:href="#DejaVuSans-48"/>
       <use x="63.623047" xlink:href="#DejaVuSans-46"/>
       <use x="95.410156" xlink:href="#DejaVuSans-48"/>
       <use x="159.033203" xlink:href="#DejaVuSans-53"/>
      </g>
     </g>
    </g>
    <g id="ytick_3">
     <g id="line2d_7">
      <g>
       <use style="stroke:#000000;stroke-width:1.6;" x="59.575" xlink:href="#mc566d67570" y="100.736475"/>
      </g>
     </g>
     <g id="text_8">
      <!-- 0.10 -->
      <defs>
       <path d="M 12.40625 8.296875 
L 28.515625 8.296875 
L 28.515625 63.921875 
L 10.984375 60.40625 
L 10.984375 69.390625 
L 28.421875 72.90625 
L 38.28125 72.90625 
L 38.28125 8.296875 
L 54.390625 8.296875 
L 54.390625 0 
L 12.40625 0 
z
" id="DejaVuSans-49"/>
      </defs>
      <g transform="translate(0.34375 108.334912)scale(0.2 -0.2)">
       <use xlink:href="#DejaVuSans-48"/>
       <use x="63.623047" xlink:href="#DejaVuSans-46"/>
       <use x="95.410156" xlink:href="#DejaVuSans-49"/>
       <use x="159.033203" xlink:href="#DejaVuSans-48"/>
      </g>
     </g>
    </g>
    <g id="ytick_4">
     <g id="line2d_8">
      <g>
       <use style="stroke:#000000;stroke-width:1.6;" x="59.575" xlink:href="#mc566d67570" y="23.257212"/>
      </g>
     </g>
     <g id="text_9">
      <!-- 0.15 -->
      <g transform="translate(0.34375 30.855649)scale(0.2 -0.2)">
       <use xlink:href="#DejaVuSans-48"/>
       <use x="63.623047" xlink:href="#DejaVuSans-46"/>
       <use x="95.410156" xlink:href="#DejaVuSans-49"/>
       <use x="159.033203" xlink:href="#DejaVuSans-53"/>
      </g>
     </g>
    </g>
   </g>
   <g id="patch_43">
    <path d="M 59.575 255.695 
L 59.575 3.5 
" style="fill:none;stroke:#000000;stroke-linecap:square;stroke-linejoin:miter;stroke-width:0.8;"/>
   </g>
   <g id="patch_44">
    <path d="M 59.575 255.695 
L 311.77 255.695 
" style="fill:none;stroke:#000000;stroke-linecap:square;stroke-linejoin:miter;stroke-width:0.8;"/>
   </g>
  </g>
  <g id="axes_2">
   <g id="patch_45">
    <path d="M 427.13 255.695 
L 679.325 255.695 
L 679.325 3.5 
L 427.13 3.5 
z
" style="fill:#ffffff;"/>
   </g>
   <g id="PolyCollection_1">
    <defs>
     <path d="M 515.333421 -281.245449 
L 515.333421 -281.495801 
L 516.828762 -281.508015 
L 518.324103 -281.513752 
L 519.819445 -281.512577 
L 521.314786 -281.504571 
L 522.810128 -281.490383 
L 524.305469 -281.471432 
L 525.80081 -281.449951 
L 527.296152 -281.428596 
L 528.791493 -281.409755 
L 530.286834 -281.394919 
L 531.782176 -281.384456 
L 533.277517 -281.377832 
L 534.772859 -281.37406 
L 536.2682 -281.372134 
L 537.763541 -281.37128 
L 539.258883 -281.371039 
L 540.754224 -281.371264 
L 542.249565 -281.372121 
L 543.744907 -281.374137 
L 545.240248 -281.37827 
L 546.735589 -281.385931 
L 548.230931 -281.398843 
L 549.726272 -281.418667 
L 551.221614 -281.446445 
L 552.716955 -281.482105 
L 554.212296 -281.524324 
L 555.707638 -281.570978 
L 557.202979 -281.620071 
L 558.69832 -281.670707 
L 560.193662 -281.723496 
L 561.689003 -281.780008 
L 563.184345 -281.841384 
L 564.679686 -281.906867 
L 566.175027 -281.973271 
L 567.670369 -282.036155 
L 569.16571 -282.092472 
L 570.661051 -282.143471 
L 572.156393 -282.196295 
L 573.651734 -282.263456 
L 575.147075 -282.360492 
L 576.642417 -282.502715 
L 578.137758 -282.701653 
L 579.6331 -282.961282 
L 581.128441 -283.274458 
L 582.623782 -283.621139 
L 584.119124 -283.970759 
L 585.614465 -284.290229 
L 587.109806 -284.556055 
L 588.605148 -284.765789 
L 590.100489 -284.942935 
L 591.59583 -285.131979 
L 593.091172 -285.385228 
L 594.586513 -285.747237 
L 596.081855 -286.243008 
L 597.577196 -286.873137 
L 599.072537 -287.615268 
L 600.567879 -288.42937 
L 602.06322 -289.264878 
L 603.558561 -290.06916 
L 605.053903 -290.797469 
L 606.549244 -291.423642 
L 608.044586 -291.948801 
L 609.539927 -292.403668 
L 611.035268 -292.840854 
L 612.53061 -293.317536 
L 614.025951 -293.874704 
L 615.521292 -294.522753 
L 617.016634 -295.241117 
L 618.511975 -295.992152 
L 620.007316 -296.74113 
L 621.502658 -297.470937 
L 622.997999 -298.184209 
L 624.493341 -298.894369 
L 625.988682 -299.613975 
L 627.484023 -300.34921 
L 628.979365 -301.10321 
L 630.474706 -301.882898 
L 631.970047 -302.700122 
L 633.465389 -303.561356 
L 634.96073 -304.448956 
L 636.456071 -305.304899 
L 637.951413 -306.029075 
L 639.446754 -306.496918 
L 640.942096 -306.590125 
L 642.437437 -306.22673 
L 643.932778 -305.377977 
L 645.42812 -304.06779 
L 646.923461 -302.359974 
L 648.418802 -300.342387 
L 649.914144 -298.11499 
L 651.409485 -295.783026 
L 652.904827 -293.452324 
L 654.400168 -291.22312 
L 655.895509 -289.181252 
L 657.390851 -287.388866 
L 658.886192 -285.878399 
L 660.381533 -284.652717 
L 661.876875 -283.691438 
L 663.372216 -282.960548 
L 663.372216 -279.780702 
L 663.372216 -279.780702 
L 661.876875 -279.049812 
L 660.381533 -278.088533 
L 658.886192 -276.862851 
L 657.390851 -275.352384 
L 655.895509 -273.559998 
L 654.400168 -271.51813 
L 652.904827 -269.288926 
L 651.409485 -266.958224 
L 649.914144 -264.62626 
L 648.418802 -262.398863 
L 646.923461 -260.381276 
L 645.42812 -258.67346 
L 643.932778 -257.363273 
L 642.437437 -256.51452 
L 640.942096 -256.151125 
L 639.446754 -256.244332 
L 637.951413 -256.712175 
L 636.456071 -257.436351 
L 634.96073 -258.292294 
L 633.465389 -259.179894 
L 631.970047 -260.041128 
L 630.474706 -260.858352 
L 628.979365 -261.63804 
L 627.484023 -262.39204 
L 625.988682 -263.127275 
L 624.493341 -263.846881 
L 622.997999 -264.557041 
L 621.502658 -265.270313 
L 620.007316 -266.00012 
L 618.511975 -266.749098 
L 617.016634 -267.500133 
L 615.521292 -268.218497 
L 614.025951 -268.866546 
L 612.53061 -269.423714 
L 611.035268 -269.900396 
L 609.539927 -270.337582 
L 608.044586 -270.792449 
L 606.549244 -271.317608 
L 605.053903 -271.943781 
L 603.558561 -272.67209 
L 602.06322 -273.476372 
L 600.567879 -274.31188 
L 599.072537 -275.125982 
L 597.577196 -275.868113 
L 596.081855 -276.498242 
L 594.586513 -276.994013 
L 593.091172 -277.356022 
L 591.59583 -277.609271 
L 590.100489 -277.798315 
L 588.605148 -277.975461 
L 587.109806 -278.185195 
L 585.614465 -278.451021 
L 584.119124 -278.770491 
L 582.623782 -279.120111 
L 581.128441 -279.466792 
L 579.6331 -279.779968 
L 578.137758 -280.039597 
L 576.642417 -280.238535 
L 575.147075 -280.380758 
L 573.651734 -280.477794 
L 572.156393 -280.544955 
L 570.661051 -280.597779 
L 569.16571 -280.648778 
L 567.670369 -280.705095 
L 566.175027 -280.767979 
L 564.679686 -280.834383 
L 563.184345 -280.899866 
L 561.689003 -280.961242 
L 560.193662 -281.017754 
L 558.69832 -281.070543 
L 557.202979 -281.121179 
L 555.707638 -281.170272 
L 554.212296 -281.216926 
L 552.716955 -281.259145 
L 551.221614 -281.294805 
L 549.726272 -281.322583 
L 548.230931 -281.342407 
L 546.735589 -281.355319 
L 545.240248 -281.36298 
L 543.744907 -281.367113 
L 542.249565 -281.369129 
L 540.754224 -281.369986 
L 539.258883 -281.370211 
L 537.763541 -281.36997 
L 536.2682 -281.369116 
L 534.772859 -281.36719 
L 533.277517 -281.363418 
L 531.782176 -281.356794 
L 530.286834 -281.346331 
L 528.791493 -281.331495 
L 527.296152 -281.312654 
L 525.80081 -281.291299 
L 524.305469 -281.269818 
L 522.810128 -281.250867 
L 521.314786 -281.236679 
L 519.819445 -281.228673 
L 518.324103 -281.227498 
L 516.828762 -281.233235 
L 515.333421 -281.245449 
z
" id="m9430bc37af" style="stroke:#575757;"/>
    </defs>
    <g clip-path="url(#p189cc16275)">
     <use style="fill:#7c78ab;stroke:#575757;" x="0" xlink:href="#m9430bc37af" y="316.395"/>
    </g>
   </g>
   <g id="PolyCollection_2">
    <defs>
     <path d="M 481.154019 -215.564521 
L 481.154019 -221.079229 
L 482.947623 -221.331312 
L 484.741227 -221.600513 
L 486.534831 -221.8875 
L 488.328434 -222.192792 
L 490.122038 -222.516705 
L 491.915642 -222.859305 
L 493.709246 -223.220359 
L 495.50285 -223.599302 
L 497.296453 -223.995199 
L 499.090057 -224.406729 
L 500.883661 -224.832176 
L 502.677265 -225.269431 
L 504.470869 -225.716012 
L 506.264472 -226.169089 
L 508.058076 -226.625533 
L 509.85168 -227.081959 
L 511.645284 -227.534791 
L 513.438888 -227.980329 
L 515.232491 -228.414819 
L 517.026095 -228.834529 
L 518.819699 -229.235825 
L 520.613303 -229.615247 
L 522.406906 -229.969585 
L 524.20051 -230.295949 
L 525.994114 -230.59184 
L 527.787718 -230.855216 
L 529.581322 -231.084553 
L 531.374925 -231.278899 
L 533.168529 -231.437927 
L 534.962133 -231.561974 
L 536.755737 -231.652071 
L 538.549341 -231.709975 
L 540.342944 -231.738166 
L 542.136548 -231.739853 
L 543.930152 -231.718942 
L 545.723756 -231.680006 
L 547.517359 -231.628218 
L 549.310963 -231.56928 
L 551.104567 -231.509314 
L 552.898171 -231.454755 
L 554.691775 -231.41221 
L 556.485378 -231.388311 
L 558.278982 -231.389554 
L 560.072586 -231.422136 
L 561.86619 -231.491784 
L 563.659794 -231.603597 
L 565.453397 -231.761887 
L 567.247001 -231.970047 
L 569.040605 -232.230427 
L 570.834209 -232.54425 
L 572.627813 -232.91154 
L 574.421416 -233.331098 
L 576.21502 -233.800497 
L 578.008624 -234.316121 
L 579.802228 -234.873231 
L 581.595831 -235.466064 
L 583.389435 -236.087952 
L 585.183039 -236.731476 
L 586.976643 -237.388625 
L 588.770247 -238.050968 
L 590.56385 -238.709839 
L 592.357454 -239.356511 
L 594.151058 -239.982371 
L 595.944662 -240.579071 
L 597.738266 -241.138683 
L 599.531869 -241.653809 
L 601.325473 -242.11769 
L 603.119077 -242.524281 
L 604.912681 -242.868304 
L 606.706284 -243.145283 
L 608.499888 -243.351556 
L 610.293492 -243.484272 
L 612.087096 -243.541375 
L 613.8807 -243.521579 
L 615.674303 -243.424336 
L 617.467907 -243.249802 
L 619.261511 -242.998804 
L 621.055115 -242.672807 
L 622.848719 -242.273886 
L 624.642322 -241.804702 
L 626.435926 -241.268479 
L 628.22953 -240.66898 
L 630.023134 -240.010489 
L 631.816738 -239.29778 
L 633.610341 -238.53609 
L 635.403945 -237.731081 
L 637.197549 -236.888785 
L 638.991153 -236.015551 
L 640.784756 -235.117971 
L 642.57836 -234.202801 
L 644.371964 -233.276868 
L 646.165568 -232.346977 
L 647.959172 -231.419806 
L 649.752775 -230.501807 
L 651.546379 -229.599104 
L 653.339983 -228.717406 
L 655.133587 -227.861919 
L 656.927191 -227.037282 
L 658.720794 -226.247506 
L 658.720794 -210.396244 
L 658.720794 -210.396244 
L 656.927191 -209.606468 
L 655.133587 -208.781831 
L 653.339983 -207.926344 
L 651.546379 -207.044646 
L 649.752775 -206.141943 
L 647.959172 -205.223944 
L 646.165568 -204.296773 
L 644.371964 -203.366882 
L 642.57836 -202.440949 
L 640.784756 -201.525779 
L 638.991153 -200.628199 
L 637.197549 -199.754965 
L 635.403945 -198.912669 
L 633.610341 -198.10766 
L 631.816738 -197.34597 
L 630.023134 -196.633261 
L 628.22953 -195.97477 
L 626.435926 -195.375271 
L 624.642322 -194.839048 
L 622.848719 -194.369864 
L 621.055115 -193.970943 
L 619.261511 -193.644946 
L 617.467907 -193.393948 
L 615.674303 -193.219414 
L 613.8807 -193.122171 
L 612.087096 -193.102375 
L 610.293492 -193.159478 
L 608.499888 -193.292194 
L 606.706284 -193.498467 
L 604.912681 -193.775446 
L 603.119077 -194.119469 
L 601.325473 -194.52606 
L 599.531869 -194.989941 
L 597.738266 -195.505067 
L 595.944662 -196.064679 
L 594.151058 -196.661379 
L 592.357454 -197.287239 
L 590.56385 -197.933911 
L 588.770247 -198.592782 
L 586.976643 -199.255125 
L 585.183039 -199.912274 
L 583.389435 -200.555798 
L 581.595831 -201.177686 
L 579.802228 -201.770519 
L 578.008624 -202.327629 
L 576.21502 -202.843253 
L 574.421416 -203.312652 
L 572.627813 -203.73221 
L 570.834209 -204.0995 
L 569.040605 -204.413323 
L 567.247001 -204.673703 
L 565.453397 -204.881863 
L 563.659794 -205.040153 
L 561.86619 -205.151966 
L 560.072586 -205.221614 
L 558.278982 -205.254196 
L 556.485378 -205.255439 
L 554.691775 -205.23154 
L 552.898171 -205.188995 
L 551.104567 -205.134436 
L 549.310963 -205.07447 
L 547.517359 -205.015532 
L 545.723756 -204.963744 
L 543.930152 -204.924808 
L 542.136548 -204.903897 
L 540.342944 -204.905584 
L 538.549341 -204.933775 
L 536.755737 -204.991679 
L 534.962133 -205.081776 
L 533.168529 -205.205823 
L 531.374925 -205.364851 
L 529.581322 -205.559197 
L 527.787718 -205.788534 
L 525.994114 -206.05191 
L 524.20051 -206.347801 
L 522.406906 -206.674165 
L 520.613303 -207.028503 
L 518.819699 -207.407925 
L 517.026095 -207.809221 
L 515.232491 -208.228931 
L 513.438888 -208.663421 
L 511.645284 -209.108959 
L 509.85168 -209.561791 
L 508.058076 -210.018217 
L 506.264472 -210.474661 
L 504.470869 -210.927738 
L 502.677265 -211.374319 
L 500.883661 -211.811574 
L 499.090057 -212.237021 
L 497.296453 -212.648551 
L 495.50285 -213.044448 
L 493.709246 -213.423391 
L 491.915642 -213.784445 
L 490.122038 -214.127045 
L 488.328434 -214.450958 
L 486.534831 -214.75625 
L 484.741227 -215.043237 
L 482.947623 -215.312438 
L 481.154019 -215.564521 
z
" id="m6ea4ed19d4" style="stroke:#575757;"/>
    </defs>
    <g clip-path="url(#p189cc16275)">
     <use style="fill:#7c78ab;stroke:#575757;" x="0" xlink:href="#m6ea4ed19d4" y="316.395"/>
    </g>
   </g>
   <g id="PolyCollection_3">
    <defs>
     <path d="M 514.832448 -133.587515 
L 514.832448 -176.958735 
L 516.034565 -177.222682 
L 517.236682 -177.474986 
L 518.438799 -177.715584 
L 519.640915 -177.944459 
L 520.843032 -178.161634 
L 522.045149 -178.367177 
L 523.247266 -178.561195 
L 524.449383 -178.743833 
L 525.651499 -178.915273 
L 526.853616 -179.075731 
L 528.055733 -179.225453 
L 529.25785 -179.364716 
L 530.459967 -179.493818 
L 531.662083 -179.613084 
L 532.8642 -179.722855 
L 534.066317 -179.823487 
L 535.268434 -179.915351 
L 536.470551 -179.998826 
L 537.672667 -180.074295 
L 538.874784 -180.142145 
L 540.076901 -180.20276 
L 541.279018 -180.256523 
L 542.481135 -180.303806 
L 543.683251 -180.344974 
L 544.885368 -180.380379 
L 546.087485 -180.410355 
L 547.289602 -180.435223 
L 548.491719 -180.45528 
L 549.693835 -180.470806 
L 550.895952 -180.482056 
L 552.098069 -180.48926 
L 553.300186 -180.492625 
L 554.502303 -180.492332 
L 555.70442 -180.488536 
L 556.906536 -180.481365 
L 558.108653 -180.470921 
L 559.31077 -180.45728 
L 560.512887 -180.440493 
L 561.715004 -180.420588 
L 562.91712 -180.397567 
L 564.119237 -180.37141 
L 565.321354 -180.342078 
L 566.523471 -180.309511 
L 567.725588 -180.273632 
L 568.927704 -180.234347 
L 570.129821 -180.191549 
L 571.331938 -180.145116 
L 572.534055 -180.09492 
L 573.736172 -180.040822 
L 574.938288 -179.982674 
L 576.140405 -179.920328 
L 577.342522 -179.853631 
L 578.544639 -179.782428 
L 579.746756 -179.706567 
L 580.948872 -179.625897 
L 582.150989 -179.54027 
L 583.353106 -179.449545 
L 584.555223 -179.353586 
L 585.75734 -179.252268 
L 586.959456 -179.14547 
L 588.161573 -179.033083 
L 589.36369 -178.91501 
L 590.565807 -178.791162 
L 591.767924 -178.661462 
L 592.97004 -178.525847 
L 594.172157 -178.384263 
L 595.374274 -178.236669 
L 596.576391 -178.083038 
L 597.778508 -177.923353 
L 598.980624 -177.757608 
L 600.182741 -177.585811 
L 601.384858 -177.40798 
L 602.586975 -177.224142 
L 603.789092 -177.034337 
L 604.991208 -176.838615 
L 606.193325 -176.637034 
L 607.395442 -176.429661 
L 608.597559 -176.216573 
L 609.799676 -175.997854 
L 611.001792 -175.773596 
L 612.203909 -175.543898 
L 613.406026 -175.308868 
L 614.608143 -175.068618 
L 615.81026 -174.823268 
L 617.012376 -174.572944 
L 618.214493 -174.317776 
L 619.41661 -174.057904 
L 620.618727 -173.793469 
L 621.820844 -173.524622 
L 623.02296 -173.251516 
L 624.225077 -172.974313 
L 625.427194 -172.693179 
L 626.629311 -172.408285 
L 627.831428 -172.119811 
L 629.033544 -171.82794 
L 630.235661 -171.532862 
L 631.437778 -171.234775 
L 632.639895 -170.933882 
L 633.842012 -170.630391 
L 633.842012 -139.915859 
L 633.842012 -139.915859 
L 632.639895 -139.612368 
L 631.437778 -139.311475 
L 630.235661 -139.013388 
L 629.033544 -138.71831 
L 627.831428 -138.426439 
L 626.629311 -138.137965 
L 625.427194 -137.853071 
L 624.225077 -137.571937 
L 623.02296 -137.294734 
L 621.820844 -137.021628 
L 620.618727 -136.752781 
L 619.41661 -136.488346 
L 618.214493 -136.228474 
L 617.012376 -135.973306 
L 615.81026 -135.722982 
L 614.608143 -135.477632 
L 613.406026 -135.237382 
L 612.203909 -135.002352 
L 611.001792 -134.772654 
L 609.799676 -134.548396 
L 608.597559 -134.329677 
L 607.395442 -134.116589 
L 606.193325 -133.909216 
L 604.991208 -133.707635 
L 603.789092 -133.511913 
L 602.586975 -133.322108 
L 601.384858 -133.13827 
L 600.182741 -132.960439 
L 598.980624 -132.788642 
L 597.778508 -132.622897 
L 596.576391 -132.463212 
L 595.374274 -132.309581 
L 594.172157 -132.161987 
L 592.97004 -132.020403 
L 591.767924 -131.884788 
L 590.565807 -131.755088 
L 589.36369 -131.63124 
L 588.161573 -131.513167 
L 586.959456 -131.40078 
L 585.75734 -131.293982 
L 584.555223 -131.192664 
L 583.353106 -131.096705 
L 582.150989 -131.00598 
L 580.948872 -130.920353 
L 579.746756 -130.839683 
L 578.544639 -130.763822 
L 577.342522 -130.692619 
L 576.140405 -130.625922 
L 574.938288 -130.563576 
L 573.736172 -130.505428 
L 572.534055 -130.45133 
L 571.331938 -130.401134 
L 570.129821 -130.354701 
L 568.927704 -130.311903 
L 567.725588 -130.272618 
L 566.523471 -130.236739 
L 565.321354 -130.204172 
L 564.119237 -130.17484 
L 562.91712 -130.148683 
L 561.715004 -130.125662 
L 560.512887 -130.105757 
L 559.31077 -130.08897 
L 558.108653 -130.075329 
L 556.906536 -130.064885 
L 555.70442 -130.057714 
L 554.502303 -130.053918 
L 553.300186 -130.053625 
L 552.098069 -130.05699 
L 550.895952 -130.064194 
L 549.693835 -130.075444 
L 548.491719 -130.09097 
L 547.289602 -130.111027 
L 546.087485 -130.135895 
L 544.885368 -130.165871 
L 543.683251 -130.201276 
L 542.481135 -130.242444 
L 541.279018 -130.289727 
L 540.076901 -130.34349 
L 538.874784 -130.404105 
L 537.672667 -130.471955 
L 536.470551 -130.547424 
L 535.268434 -130.630899 
L 534.066317 -130.722763 
L 532.8642 -130.823395 
L 531.662083 -130.933166 
L 530.459967 -131.052432 
L 529.25785 -131.181534 
L 528.055733 -131.320797 
L 526.853616 -131.470519 
L 525.651499 -131.630977 
L 524.449383 -131.802417 
L 523.247266 -131.985055 
L 522.045149 -132.179073 
L 520.843032 -132.384616 
L 519.640915 -132.601791 
L 518.438799 -132.830666 
L 517.236682 -133.071264 
L 516.034565 -133.323568 
L 514.832448 -133.587515 
z
" id="mf9efc95066" style="stroke:#575757;"/>
    </defs>
    <g clip-path="url(#p189cc16275)">
     <use style="fill:#7c78ab;stroke:#575757;" x="0" xlink:href="#mf9efc95066" y="316.395"/>
    </g>
   </g>
   <g id="patch_46">
    <path clip-path="url(#p189cc16275)" d="M 443.943 35.024375 
L 443.943 35.024375 
L 443.943 35.024375 
L 443.943 35.024375 
z
" style="fill:#7c78ab;stroke:#575757;stroke-linejoin:miter;stroke-width:0.5;"/>
   </g>
   <g id="matplotlib.axis_3">
    <g id="xtick_5">
     <g id="line2d_9">
      <g>
       <use style="stroke:#000000;stroke-width:1.6;" x="443.943" xlink:href="#m595ea45803" y="255.695"/>
      </g>
     </g>
     <g id="text_10">
      <!-- 0.0 -->
      <g transform="translate(428.039875 285.591875)scale(0.2 -0.2)">
       <use xlink:href="#DejaVuSans-48"/>
       <use x="63.623047" xlink:href="#DejaVuSans-46"/>
       <use x="95.410156" xlink:href="#DejaVuSans-48"/>
      </g>
     </g>
    </g>
    <g id="xtick_6">
     <g id="line2d_10">
      <g>
       <use style="stroke:#000000;stroke-width:1.6;" x="511.195" xlink:href="#m595ea45803" y="255.695"/>
      </g>
     </g>
     <g id="text_11">
      <!-- 0.2 -->
      <g transform="translate(495.291875 285.591875)scale(0.2 -0.2)">
       <use xlink:href="#DejaVuSans-48"/>
       <use x="63.623047" xlink:href="#DejaVuSans-46"/>
       <use x="95.410156" xlink:href="#DejaVuSans-50"/>
      </g>
     </g>
    </g>
    <g id="xtick_7">
     <g id="line2d_11">
      <g>
       <use style="stroke:#000000;stroke-width:1.6;" x="578.447" xlink:href="#m595ea45803" y="255.695"/>
      </g>
     </g>
     <g id="text_12">
      <!-- 0.4 -->
      <g transform="translate(562.543875 285.591875)scale(0.2 -0.2)">
       <use xlink:href="#DejaVuSans-48"/>
       <use x="63.623047" xlink:href="#DejaVuSans-46"/>
       <use x="95.410156" xlink:href="#DejaVuSans-52"/>
      </g>
     </g>
    </g>
    <g id="xtick_8">
     <g id="line2d_12">
      <g>
       <use style="stroke:#000000;stroke-width:1.6;" x="645.699" xlink:href="#m595ea45803" y="255.695"/>
      </g>
     </g>
     <g id="text_13">
      <!-- 0.6 -->
      <g transform="translate(629.795875 285.591875)scale(0.2 -0.2)">
       <use xlink:href="#DejaVuSans-48"/>
       <use x="63.623047" xlink:href="#DejaVuSans-46"/>
       <use x="95.410156" xlink:href="#DejaVuSans-54"/>
      </g>
     </g>
    </g>
    <g id="text_14">
     <!-- Max Attention -->
     <defs>
      <path d="M 34.1875 63.1875 
L 20.796875 26.90625 
L 47.609375 26.90625 
z
M 28.609375 72.90625 
L 39.796875 72.90625 
L 67.578125 0 
L 57.328125 0 
L 50.6875 18.703125 
L 17.828125 18.703125 
L 11.1875 0 
L 0.78125 0 
z
" id="DejaVuSans-65"/>
      <path d="M 30.609375 48.390625 
Q 23.390625 48.390625 19.1875 42.75 
Q 14.984375 37.109375 14.984375 27.296875 
Q 14.984375 17.484375 19.15625 11.84375 
Q 23.34375 6.203125 30.609375 6.203125 
Q 37.796875 6.203125 41.984375 11.859375 
Q 46.1875 17.53125 46.1875 27.296875 
Q 46.1875 37.015625 41.984375 42.703125 
Q 37.796875 48.390625 30.609375 48.390625 
z
M 30.609375 56 
Q 42.328125 56 49.015625 48.375 
Q 55.71875 40.765625 55.71875 27.296875 
Q 55.71875 13.875 49.015625 6.21875 
Q 42.328125 -1.421875 30.609375 -1.421875 
Q 18.84375 -1.421875 12.171875 6.21875 
Q 5.515625 13.875 5.515625 27.296875 
Q 5.515625 40.765625 12.171875 48.375 
Q 18.84375 56 30.609375 56 
z
" id="DejaVuSans-111"/>
     </defs>
     <g transform="translate(483.049375 308.948125)scale(0.2 -0.2)">
      <use xlink:href="#DejaVuSans-77"/>
      <use x="86.279297" xlink:href="#DejaVuSans-97"/>
      <use x="147.558594" xlink:href="#DejaVuSans-120"/>
      <use x="206.738281" xlink:href="#DejaVuSans-32"/>
      <use x="238.525391" xlink:href="#DejaVuSans-65"/>
      <use x="306.917969" xlink:href="#DejaVuSans-116"/>
      <use x="346.126953" xlink:href="#DejaVuSans-116"/>
      <use x="385.335938" xlink:href="#DejaVuSans-101"/>
      <use x="446.859375" xlink:href="#DejaVuSans-110"/>
      <use x="510.238281" xlink:href="#DejaVuSans-116"/>
      <use x="549.447266" xlink:href="#DejaVuSans-105"/>
      <use x="577.230469" xlink:href="#DejaVuSans-111"/>
      <use x="638.412109" xlink:href="#DejaVuSans-110"/>
     </g>
    </g>
   </g>
   <g id="matplotlib.axis_4">
    <g id="ytick_5">
     <g id="line2d_13">
      <g>
       <use style="stroke:#000000;stroke-width:1.6;" x="427.13" xlink:href="#mc566d67570" y="35.024375"/>
      </g>
     </g>
     <g id="text_15">
      <!-- [0.00, -->
      <defs>
       <path d="M 8.59375 75.984375 
L 29.296875 75.984375 
L 29.296875 69 
L 17.578125 69 
L 17.578125 -6.203125 
L 29.296875 -6.203125 
L 29.296875 -13.1875 
L 8.59375 -13.1875 
z
" id="DejaVuSans-91"/>
       <path d="M 11.71875 12.40625 
L 22.015625 12.40625 
L 22.015625 4 
L 14.015625 -11.625 
L 7.71875 -11.625 
L 11.71875 4 
z
" id="DejaVuSans-44"/>
      </defs>
      <g transform="translate(353.739375 31.425)scale(0.2 -0.2)">
       <use xlink:href="#DejaVuSans-91"/>
       <use x="39.013672" xlink:href="#DejaVuSans-48"/>
       <use x="102.636719" xlink:href="#DejaVuSans-46"/>
       <use x="134.423828" xlink:href="#DejaVuSans-48"/>
       <use x="198.046875" xlink:href="#DejaVuSans-48"/>
       <use x="261.669922" xlink:href="#DejaVuSans-44"/>
      </g>
      <!-- 0.25) -->
      <defs>
       <path d="M 8.015625 75.875 
L 15.828125 75.875 
Q 23.140625 64.359375 26.78125 53.3125 
Q 30.421875 42.28125 30.421875 31.390625 
Q 30.421875 20.453125 26.78125 9.375 
Q 23.140625 -1.703125 15.828125 -13.1875 
L 8.015625 -13.1875 
Q 14.5 -2 17.703125 9.0625 
Q 20.90625 20.125 20.90625 31.390625 
Q 20.90625 42.671875 17.703125 53.65625 
Q 14.5 64.65625 8.015625 75.875 
z
" id="DejaVuSans-41"/>
      </defs>
      <g transform="translate(360.095625 53.820625)scale(0.2 -0.2)">
       <use xlink:href="#DejaVuSans-48"/>
       <use x="63.623047" xlink:href="#DejaVuSans-46"/>
       <use x="95.410156" xlink:href="#DejaVuSans-50"/>
       <use x="159.033203" xlink:href="#DejaVuSans-53"/>
       <use x="222.65625" xlink:href="#DejaVuSans-41"/>
      </g>
     </g>
    </g>
    <g id="ytick_6">
     <g id="line2d_14">
      <g>
       <use style="stroke:#000000;stroke-width:1.6;" x="427.13" xlink:href="#mc566d67570" y="98.073125"/>
      </g>
     </g>
     <g id="text_16">
      <!-- [0.25, -->
      <g transform="translate(353.739375 94.47375)scale(0.2 -0.2)">
       <use xlink:href="#DejaVuSans-91"/>
       <use x="39.013672" xlink:href="#DejaVuSans-48"/>
       <use x="102.636719" xlink:href="#DejaVuSans-46"/>
       <use x="134.423828" xlink:href="#DejaVuSans-50"/>
       <use x="198.046875" xlink:href="#DejaVuSans-53"/>
       <use x="261.669922" xlink:href="#DejaVuSans-44"/>
      </g>
      <!-- 0.50) -->
      <g transform="translate(360.095625 116.869375)scale(0.2 -0.2)">
       <use xlink:href="#DejaVuSans-48"/>
       <use x="63.623047" xlink:href="#DejaVuSans-46"/>
       <use x="95.410156" xlink:href="#DejaVuSans-53"/>
       <use x="159.033203" xlink:href="#DejaVuSans-48"/>
       <use x="222.65625" xlink:href="#DejaVuSans-41"/>
      </g>
     </g>
    </g>
    <g id="ytick_7">
     <g id="line2d_15">
      <g>
       <use style="stroke:#000000;stroke-width:1.6;" x="427.13" xlink:href="#mc566d67570" y="161.121875"/>
      </g>
     </g>
     <g id="text_17">
      <!-- [0.50, -->
      <g transform="translate(353.739375 157.5225)scale(0.2 -0.2)">
       <use xlink:href="#DejaVuSans-91"/>
       <use x="39.013672" xlink:href="#DejaVuSans-48"/>
       <use x="102.636719" xlink:href="#DejaVuSans-46"/>
       <use x="134.423828" xlink:href="#DejaVuSans-53"/>
       <use x="198.046875" xlink:href="#DejaVuSans-48"/>
       <use x="261.669922" xlink:href="#DejaVuSans-44"/>
      </g>
      <!-- 0.75) -->
      <defs>
       <path d="M 8.203125 72.90625 
L 55.078125 72.90625 
L 55.078125 68.703125 
L 28.609375 0 
L 18.3125 0 
L 43.21875 64.59375 
L 8.203125 64.59375 
z
" id="DejaVuSans-55"/>
      </defs>
      <g transform="translate(360.095625 179.918125)scale(0.2 -0.2)">
       <use xlink:href="#DejaVuSans-48"/>
       <use x="63.623047" xlink:href="#DejaVuSans-46"/>
       <use x="95.410156" xlink:href="#DejaVuSans-55"/>
       <use x="159.033203" xlink:href="#DejaVuSans-53"/>
       <use x="222.65625" xlink:href="#DejaVuSans-41"/>
      </g>
     </g>
    </g>
    <g id="ytick_8">
     <g id="line2d_16">
      <g>
       <use style="stroke:#000000;stroke-width:1.6;" x="427.13" xlink:href="#mc566d67570" y="224.170625"/>
      </g>
     </g>
     <g id="text_18">
      <!-- [0.75, -->
      <g transform="translate(353.739375 220.57125)scale(0.2 -0.2)">
       <use xlink:href="#DejaVuSans-91"/>
       <use x="39.013672" xlink:href="#DejaVuSans-48"/>
       <use x="102.636719" xlink:href="#DejaVuSans-46"/>
       <use x="134.423828" xlink:href="#DejaVuSans-55"/>
       <use x="198.046875" xlink:href="#DejaVuSans-53"/>
       <use x="261.669922" xlink:href="#DejaVuSans-44"/>
      </g>
      <!-- 1.00) -->
      <g transform="translate(360.095625 242.966875)scale(0.2 -0.2)">
       <use xlink:href="#DejaVuSans-49"/>
       <use x="63.623047" xlink:href="#DejaVuSans-46"/>
       <use x="95.410156" xlink:href="#DejaVuSans-48"/>
       <use x="159.033203" xlink:href="#DejaVuSans-48"/>
       <use x="222.65625" xlink:href="#DejaVuSans-41"/>
      </g>
     </g>
    </g>
    <g id="text_19">
     <!-- Max JS Divergence within $\epsilon$ -->
     <g transform="translate(345.539375 265.1975)rotate(-90)scale(0.2 -0.2)">
      <use transform="translate(0 0.015625)" xlink:href="#DejaVuSans-77"/>
      <use transform="translate(86.279297 0.015625)" xlink:href="#DejaVuSans-97"/>
      <use transform="translate(147.558594 0.015625)" xlink:href="#DejaVuSans-120"/>
      <use transform="translate(206.738281 0.015625)" xlink:href="#DejaVuSans-32"/>
      <use transform="translate(238.525391 0.015625)" xlink:href="#DejaVuSans-74"/>
      <use transform="translate(268.017578 0.015625)" xlink:href="#DejaVuSans-83"/>
      <use transform="translate(331.494141 0.015625)" xlink:href="#DejaVuSans-32"/>
      <use transform="translate(363.28125 0.015625)" xlink:href="#DejaVuSans-68"/>
      <use transform="translate(440.283203 0.015625)" xlink:href="#DejaVuSans-105"/>
      <use transform="translate(468.066406 0.015625)" xlink:href="#DejaVuSans-118"/>
      <use transform="translate(527.246094 0.015625)" xlink:href="#DejaVuSans-101"/>
      <use transform="translate(588.769531 0.015625)" xlink:href="#DejaVuSans-114"/>
      <use transform="translate(629.882812 0.015625)" xlink:href="#DejaVuSans-103"/>
      <use transform="translate(693.359375 0.015625)" xlink:href="#DejaVuSans-101"/>
      <use transform="translate(754.882812 0.015625)" xlink:href="#DejaVuSans-110"/>
      <use transform="translate(818.261719 0.015625)" xlink:href="#DejaVuSans-99"/>
      <use transform="translate(873.242188 0.015625)" xlink:href="#DejaVuSans-101"/>
      <use transform="translate(934.765625 0.015625)" xlink:href="#DejaVuSans-32"/>
      <use transform="translate(966.552734 0.015625)" xlink:href="#DejaVuSans-119"/>
      <use transform="translate(1048.339844 0.015625)" xlink:href="#DejaVuSans-105"/>
      <use transform="translate(1076.123047 0.015625)" xlink:href="#DejaVuSans-116"/>
      <use transform="translate(1115.332031 0.015625)" xlink:href="#DejaVuSans-104"/>
      <use transform="translate(1178.710938 0.015625)" xlink:href="#DejaVuSans-105"/>
      <use transform="translate(1206.494141 0.015625)" xlink:href="#DejaVuSans-110"/>
      <use transform="translate(1269.873047 0.015625)" xlink:href="#DejaVuSans-32"/>
      <use transform="translate(1301.660156 0.015625)" xlink:href="#DejaVuSans-Oblique-949"/>
     </g>
    </g>
   </g>
   <g id="line2d_17">
    <path clip-path="url(#p189cc16275)" style="fill:none;stroke:#575757;stroke-dasharray:1.5,1.5;stroke-dashoffset:0;"/>
   </g>
   <g id="line2d_18">
    <path clip-path="url(#p189cc16275)" style="fill:none;stroke:#575757;stroke-dasharray:3,3;stroke-dashoffset:0;"/>
   </g>
   <g id="line2d_19">
    <path clip-path="url(#p189cc16275)" style="fill:none;stroke:#575757;stroke-dasharray:1.5,1.5;stroke-dashoffset:0;"/>
   </g>
   <g id="line2d_20">
    <path clip-path="url(#p189cc16275)" style="fill:none;stroke:#575757;stroke-dasharray:1.5,1.5;stroke-dashoffset:0;"/>
   </g>
   <g id="line2d_21">
    <path clip-path="url(#p189cc16275)" style="fill:none;stroke:#575757;stroke-dasharray:3,3;stroke-dashoffset:0;"/>
   </g>
   <g id="line2d_22">
    <path clip-path="url(#p189cc16275)" style="fill:none;stroke:#575757;stroke-dasharray:1.5,1.5;stroke-dashoffset:0;"/>
   </g>
   <g id="line2d_23">
    <path clip-path="url(#p189cc16275)" style="fill:none;stroke:#575757;stroke-dasharray:1.5,1.5;stroke-dashoffset:0;"/>
   </g>
   <g id="line2d_24">
    <path clip-path="url(#p189cc16275)" style="fill:none;stroke:#575757;stroke-dasharray:3,3;stroke-dashoffset:0;"/>
   </g>
   <g id="line2d_25">
    <path clip-path="url(#p189cc16275)" style="fill:none;stroke:#575757;stroke-dasharray:1.5,1.5;stroke-dashoffset:0;"/>
   </g>
   <g id="patch_47">
    <path style="fill:none;stroke:#000000;stroke-linecap:square;stroke-linejoin:miter;stroke-width:0.8;"/>
   </g>
   <g id="patch_48">
    <path style="fill:none;stroke:#000000;stroke-linecap:square;stroke-linejoin:miter;stroke-width:0.8;"/>
   </g>
  </g>
 </g>
 <defs>
  <clipPath id="p91f2137566">
   <rect height="252.195" width="252.195" x="59.575" y="3.5"/>
  </clipPath>
  <clipPath id="p189cc16275">
   <rect height="252.195" width="252.195" x="427.13" y="3.5"/>
  </clipPath>
 </defs>
</svg>
