<?xml version="1.0" encoding="utf-8" standalone="no"?>
<!DOCTYPE svg PUBLIC "-//W3C//DTD SVG 1.1//EN"
  "http://www.w3.org/Graphics/SVG/1.1/DTD/svg11.dtd">
<!-- Created with matplotlib (https://matplotlib.org/) -->
<svg height="316.395pt" version="1.1" viewBox="0 0 321.893203 316.395" width="321.893203pt" xmlns="http://www.w3.org/2000/svg" xmlns:xlink="http://www.w3.org/1999/xlink">
 <defs>
  <style type="text/css">
*{stroke-linecap:butt;stroke-linejoin:round;}
  </style>
 </defs>
 <g id="figure_1">
  <g id="patch_1">
   <path d="M 0 316.395 
L 321.893203 316.395 
L 321.893203 0 
L 0 0 
z
" style="fill:#ffffff;"/>
  </g>
  <g id="axes_1">
   <g id="patch_2">
    <path d="M 59.575 255.695 
L 311.77 255.695 
L 311.77 3.5 
L 59.575 3.5 
z
" style="fill:#ffffff;"/>
   </g>
   <g id="patch_3">
    <path clip-path="url(#p8c5781a531)" d="M 71.038409 255.695 
L 76.770114 255.695 
L 76.770114 154.707825 
L 71.038409 154.707825 
z
" style="fill:#43406b;opacity:0.6;stroke:#000000;stroke-linejoin:miter;stroke-width:0.5;"/>
   </g>
   <g id="patch_4">
    <path clip-path="url(#p8c5781a531)" d="M 76.770114 255.695 
L 82.501818 255.695 
L 82.501818 255.695 
L 76.770114 255.695 
z
" style="fill:#43406b;opacity:0.6;stroke:#000000;stroke-linejoin:miter;stroke-width:0.5;"/>
   </g>
   <g id="patch_5">
    <path clip-path="url(#p8c5781a531)" d="M 82.501818 255.695 
L 88.233523 255.695 
L 88.233523 255.695 
L 82.501818 255.695 
z
" style="fill:#43406b;opacity:0.6;stroke:#000000;stroke-linejoin:miter;stroke-width:0.5;"/>
   </g>
   <g id="patch_6">
    <path clip-path="url(#p8c5781a531)" d="M 88.233523 255.695 
L 93.965227 255.695 
L 93.965227 255.695 
L 88.233523 255.695 
z
" style="fill:#43406b;opacity:0.6;stroke:#000000;stroke-linejoin:miter;stroke-width:0.5;"/>
   </g>
   <g id="patch_7">
    <path clip-path="url(#p8c5781a531)" d="M 93.965227 255.695 
L 99.696932 255.695 
L 99.696932 255.695 
L 93.965227 255.695 
z
" style="fill:#43406b;opacity:0.6;stroke:#000000;stroke-linejoin:miter;stroke-width:0.5;"/>
   </g>
   <g id="patch_8">
    <path clip-path="url(#p8c5781a531)" d="M 99.696932 255.695 
L 105.428636 255.695 
L 105.428636 252.965617 
L 99.696932 252.965617 
z
" style="fill:#43406b;opacity:0.6;stroke:#000000;stroke-linejoin:miter;stroke-width:0.5;"/>
   </g>
   <g id="patch_9">
    <path clip-path="url(#p8c5781a531)" d="M 105.428636 255.695 
L 111.160341 255.695 
L 111.160341 252.965617 
L 105.428636 252.965617 
z
" style="fill:#43406b;opacity:0.6;stroke:#000000;stroke-linejoin:miter;stroke-width:0.5;"/>
   </g>
   <g id="patch_10">
    <path clip-path="url(#p8c5781a531)" d="M 111.160341 255.695 
L 116.892045 255.695 
L 116.892045 255.695 
L 111.160341 255.695 
z
" style="fill:#43406b;opacity:0.6;stroke:#000000;stroke-linejoin:miter;stroke-width:0.5;"/>
   </g>
   <g id="patch_11">
    <path clip-path="url(#p8c5781a531)" d="M 116.892045 255.695 
L 122.62375 255.695 
L 122.62375 255.695 
L 116.892045 255.695 
z
" style="fill:#43406b;opacity:0.6;stroke:#000000;stroke-linejoin:miter;stroke-width:0.5;"/>
   </g>
   <g id="patch_12">
    <path clip-path="url(#p8c5781a531)" d="M 122.62375 255.695 
L 128.355455 255.695 
L 128.355455 252.965617 
L 122.62375 252.965617 
z
" style="fill:#43406b;opacity:0.6;stroke:#000000;stroke-linejoin:miter;stroke-width:0.5;"/>
   </g>
   <g id="patch_13">
    <path clip-path="url(#p8c5781a531)" d="M 128.355455 255.695 
L 134.087159 255.695 
L 134.087159 255.695 
L 128.355455 255.695 
z
" style="fill:#43406b;opacity:0.6;stroke:#000000;stroke-linejoin:miter;stroke-width:0.5;"/>
   </g>
   <g id="patch_14">
    <path clip-path="url(#p8c5781a531)" d="M 134.087159 255.695 
L 139.818864 255.695 
L 139.818864 244.777468 
L 134.087159 244.777468 
z
" style="fill:#43406b;opacity:0.6;stroke:#000000;stroke-linejoin:miter;stroke-width:0.5;"/>
   </g>
   <g id="patch_15">
    <path clip-path="url(#p8c5781a531)" d="M 139.818864 255.695 
L 145.550568 255.695 
L 145.550568 250.236234 
L 139.818864 250.236234 
z
" style="fill:#43406b;opacity:0.6;stroke:#000000;stroke-linejoin:miter;stroke-width:0.5;"/>
   </g>
   <g id="patch_16">
    <path clip-path="url(#p8c5781a531)" d="M 145.550568 255.695 
L 151.282273 255.695 
L 151.282273 250.236234 
L 145.550568 250.236234 
z
" style="fill:#43406b;opacity:0.6;stroke:#000000;stroke-linejoin:miter;stroke-width:0.5;"/>
   </g>
   <g id="patch_17">
    <path clip-path="url(#p8c5781a531)" d="M 151.282273 255.695 
L 157.013977 255.695 
L 157.013977 244.777468 
L 151.282273 244.777468 
z
" style="fill:#43406b;opacity:0.6;stroke:#000000;stroke-linejoin:miter;stroke-width:0.5;"/>
   </g>
   <g id="patch_18">
    <path clip-path="url(#p8c5781a531)" d="M 157.013977 255.695 
L 162.745682 255.695 
L 162.745682 244.777468 
L 157.013977 244.777468 
z
" style="fill:#43406b;opacity:0.6;stroke:#000000;stroke-linejoin:miter;stroke-width:0.5;"/>
   </g>
   <g id="patch_19">
    <path clip-path="url(#p8c5781a531)" d="M 162.745682 255.695 
L 168.477386 255.695 
L 168.477386 239.318701 
L 162.745682 239.318701 
z
" style="fill:#43406b;opacity:0.6;stroke:#000000;stroke-linejoin:miter;stroke-width:0.5;"/>
   </g>
   <g id="patch_20">
    <path clip-path="url(#p8c5781a531)" d="M 168.477386 255.695 
L 174.209091 255.695 
L 174.209091 225.671786 
L 168.477386 225.671786 
z
" style="fill:#43406b;opacity:0.6;stroke:#000000;stroke-linejoin:miter;stroke-width:0.5;"/>
   </g>
   <g id="patch_21">
    <path clip-path="url(#p8c5781a531)" d="M 174.209091 255.695 
L 179.940795 255.695 
L 179.940795 212.02487 
L 174.209091 212.02487 
z
" style="fill:#43406b;opacity:0.6;stroke:#000000;stroke-linejoin:miter;stroke-width:0.5;"/>
   </g>
   <g id="patch_22">
    <path clip-path="url(#p8c5781a531)" d="M 179.940795 255.695 
L 185.6725 255.695 
L 185.6725 203.836721 
L 179.940795 203.836721 
z
" style="fill:#43406b;opacity:0.6;stroke:#000000;stroke-linejoin:miter;stroke-width:0.5;"/>
   </g>
   <g id="patch_23">
    <path clip-path="url(#p8c5781a531)" d="M 185.6725 255.695 
L 191.404205 255.695 
L 191.404205 195.648571 
L 185.6725 195.648571 
z
" style="fill:#43406b;opacity:0.6;stroke:#000000;stroke-linejoin:miter;stroke-width:0.5;"/>
   </g>
   <g id="patch_24">
    <path clip-path="url(#p8c5781a531)" d="M 191.404205 255.695 
L 197.135909 255.695 
L 197.135909 165.625357 
L 191.404205 165.625357 
z
" style="fill:#43406b;opacity:0.6;stroke:#000000;stroke-linejoin:miter;stroke-width:0.5;"/>
   </g>
   <g id="patch_25">
    <path clip-path="url(#p8c5781a531)" d="M 197.135909 255.695 
L 202.867614 255.695 
L 202.867614 198.377955 
L 197.135909 198.377955 
z
" style="fill:#43406b;opacity:0.6;stroke:#000000;stroke-linejoin:miter;stroke-width:0.5;"/>
   </g>
   <g id="patch_26">
    <path clip-path="url(#p8c5781a531)" d="M 202.867614 255.695 
L 208.599318 255.695 
L 208.599318 135.602143 
L 202.867614 135.602143 
z
" style="fill:#43406b;opacity:0.6;stroke:#000000;stroke-linejoin:miter;stroke-width:0.5;"/>
   </g>
   <g id="patch_27">
    <path clip-path="url(#p8c5781a531)" d="M 208.599318 255.695 
L 214.331023 255.695 
L 214.331023 89.20263 
L 208.599318 89.20263 
z
" style="fill:#43406b;opacity:0.6;stroke:#000000;stroke-linejoin:miter;stroke-width:0.5;"/>
   </g>
   <g id="patch_28">
    <path clip-path="url(#p8c5781a531)" d="M 214.331023 255.695 
L 220.062727 255.695 
L 220.062727 75.555714 
L 214.331023 75.555714 
z
" style="fill:#43406b;opacity:0.6;stroke:#000000;stroke-linejoin:miter;stroke-width:0.5;"/>
   </g>
   <g id="patch_29">
    <path clip-path="url(#p8c5781a531)" d="M 220.062727 255.695 
L 225.794432 255.695 
L 225.794432 34.614968 
L 220.062727 34.614968 
z
" style="fill:#43406b;opacity:0.6;stroke:#000000;stroke-linejoin:miter;stroke-width:0.5;"/>
   </g>
   <g id="patch_30">
    <path clip-path="url(#p8c5781a531)" d="M 225.794432 255.695 
L 231.526136 255.695 
L 231.526136 15.509286 
L 225.794432 15.509286 
z
" style="fill:#43406b;opacity:0.6;stroke:#000000;stroke-linejoin:miter;stroke-width:0.5;"/>
   </g>
   <g id="patch_31">
    <path clip-path="url(#p8c5781a531)" d="M 231.526136 255.695 
L 237.257841 255.695 
L 237.257841 34.614968 
L 231.526136 34.614968 
z
" style="fill:#43406b;opacity:0.6;stroke:#000000;stroke-linejoin:miter;stroke-width:0.5;"/>
   </g>
   <g id="patch_32">
    <path clip-path="url(#p8c5781a531)" d="M 237.257841 255.695 
L 242.989545 255.695 
L 242.989545 56.450032 
L 237.257841 56.450032 
z
" style="fill:#43406b;opacity:0.6;stroke:#000000;stroke-linejoin:miter;stroke-width:0.5;"/>
   </g>
   <g id="patch_33">
    <path clip-path="url(#p8c5781a531)" d="M 242.989545 255.695 
L 248.72125 255.695 
L 248.72125 42.803117 
L 242.989545 42.803117 
z
" style="fill:#43406b;opacity:0.6;stroke:#000000;stroke-linejoin:miter;stroke-width:0.5;"/>
   </g>
   <g id="patch_34">
    <path clip-path="url(#p8c5781a531)" d="M 248.72125 255.695 
L 254.452955 255.695 
L 254.452955 56.450032 
L 248.72125 56.450032 
z
" style="fill:#43406b;opacity:0.6;stroke:#000000;stroke-linejoin:miter;stroke-width:0.5;"/>
   </g>
   <g id="patch_35">
    <path clip-path="url(#p8c5781a531)" d="M 254.452955 255.695 
L 260.184659 255.695 
L 260.184659 108.308312 
L 254.452955 108.308312 
z
" style="fill:#43406b;opacity:0.6;stroke:#000000;stroke-linejoin:miter;stroke-width:0.5;"/>
   </g>
   <g id="patch_36">
    <path clip-path="url(#p8c5781a531)" d="M 260.184659 255.695 
L 265.916364 255.695 
L 265.916364 160.166591 
L 260.184659 160.166591 
z
" style="fill:#43406b;opacity:0.6;stroke:#000000;stroke-linejoin:miter;stroke-width:0.5;"/>
   </g>
   <g id="patch_37">
    <path clip-path="url(#p8c5781a531)" d="M 265.916364 255.695 
L 271.648068 255.695 
L 271.648068 201.107338 
L 265.916364 201.107338 
z
" style="fill:#43406b;opacity:0.6;stroke:#000000;stroke-linejoin:miter;stroke-width:0.5;"/>
   </g>
   <g id="patch_38">
    <path clip-path="url(#p8c5781a531)" d="M 271.648068 255.695 
L 277.379773 255.695 
L 277.379773 201.107338 
L 271.648068 201.107338 
z
" style="fill:#43406b;opacity:0.6;stroke:#000000;stroke-linejoin:miter;stroke-width:0.5;"/>
   </g>
   <g id="patch_39">
    <path clip-path="url(#p8c5781a531)" d="M 277.379773 255.695 
L 283.111477 255.695 
L 283.111477 222.942403 
L 277.379773 222.942403 
z
" style="fill:#43406b;opacity:0.6;stroke:#000000;stroke-linejoin:miter;stroke-width:0.5;"/>
   </g>
   <g id="patch_40">
    <path clip-path="url(#p8c5781a531)" d="M 283.111477 255.695 
L 288.843182 255.695 
L 288.843182 206.566104 
L 283.111477 206.566104 
z
" style="fill:#43406b;opacity:0.6;stroke:#000000;stroke-linejoin:miter;stroke-width:0.5;"/>
   </g>
   <g id="patch_41">
    <path clip-path="url(#p8c5781a531)" d="M 288.843182 255.695 
L 294.574886 255.695 
L 294.574886 228.401169 
L 288.843182 228.401169 
z
" style="fill:#43406b;opacity:0.6;stroke:#000000;stroke-linejoin:miter;stroke-width:0.5;"/>
   </g>
   <g id="patch_42">
    <path clip-path="url(#p8c5781a531)" d="M 294.574886 255.695 
L 300.306591 255.695 
L 300.306591 250.236234 
L 294.574886 250.236234 
z
" style="fill:#43406b;opacity:0.6;stroke:#000000;stroke-linejoin:miter;stroke-width:0.5;"/>
   </g>
   <g id="matplotlib.axis_1">
    <g id="xtick_1">
     <g id="line2d_1">
      <defs>
       <path d="M 0 0 
L 0 3.5 
" id="m07bf951d24" style="stroke:#000000;stroke-width:1.6;"/>
      </defs>
      <g>
       <use style="stroke:#000000;stroke-width:1.6;" x="71.038409" xlink:href="#m07bf951d24" y="255.695"/>
      </g>
     </g>
     <g id="text_1">
      <!-- 0.0 -->
      <defs>
       <path d="M 31.78125 66.40625 
Q 24.171875 66.40625 20.328125 58.90625 
Q 16.5 51.421875 16.5 36.375 
Q 16.5 21.390625 20.328125 13.890625 
Q 24.171875 6.390625 31.78125 6.390625 
Q 39.453125 6.390625 43.28125 13.890625 
Q 47.125 21.390625 47.125 36.375 
Q 47.125 51.421875 43.28125 58.90625 
Q 39.453125 66.40625 31.78125 66.40625 
z
M 31.78125 74.21875 
Q 44.046875 74.21875 50.515625 64.515625 
Q 56.984375 54.828125 56.984375 36.375 
Q 56.984375 17.96875 50.515625 8.265625 
Q 44.046875 -1.421875 31.78125 -1.421875 
Q 19.53125 -1.421875 13.0625 8.265625 
Q 6.59375 17.96875 6.59375 36.375 
Q 6.59375 54.828125 13.0625 64.515625 
Q 19.53125 74.21875 31.78125 74.21875 
z
" id="DejaVuSans-48"/>
       <path d="M 10.6875 12.40625 
L 21 12.40625 
L 21 0 
L 10.6875 0 
z
" id="DejaVuSans-46"/>
      </defs>
      <g transform="translate(55.135284 285.591875)scale(0.2 -0.2)">
       <use xlink:href="#DejaVuSans-48"/>
       <use x="63.623047" xlink:href="#DejaVuSans-46"/>
       <use x="95.410156" xlink:href="#DejaVuSans-48"/>
      </g>
     </g>
    </g>
    <g id="xtick_2">
     <g id="line2d_2">
      <g>
       <use style="stroke:#000000;stroke-width:1.6;" x="136.543604" xlink:href="#m07bf951d24" y="255.695"/>
      </g>
     </g>
     <g id="text_2">
      <!-- 0.2 -->
      <defs>
       <path d="M 19.1875 8.296875 
L 53.609375 8.296875 
L 53.609375 0 
L 7.328125 0 
L 7.328125 8.296875 
Q 12.9375 14.109375 22.625 23.890625 
Q 32.328125 33.6875 34.8125 36.53125 
Q 39.546875 41.84375 41.421875 45.53125 
Q 43.3125 49.21875 43.3125 52.78125 
Q 43.3125 58.59375 39.234375 62.25 
Q 35.15625 65.921875 28.609375 65.921875 
Q 23.96875 65.921875 18.8125 64.3125 
Q 13.671875 62.703125 7.8125 59.421875 
L 7.8125 69.390625 
Q 13.765625 71.78125 18.9375 73 
Q 24.125 74.21875 28.421875 74.21875 
Q 39.75 74.21875 46.484375 68.546875 
Q 53.21875 62.890625 53.21875 53.421875 
Q 53.21875 48.921875 51.53125 44.890625 
Q 49.859375 40.875 45.40625 35.40625 
Q 44.1875 33.984375 37.640625 27.21875 
Q 31.109375 20.453125 19.1875 8.296875 
z
" id="DejaVuSans-50"/>
      </defs>
      <g transform="translate(120.640479 285.591875)scale(0.2 -0.2)">
       <use xlink:href="#DejaVuSans-48"/>
       <use x="63.623047" xlink:href="#DejaVuSans-46"/>
       <use x="95.410156" xlink:href="#DejaVuSans-50"/>
      </g>
     </g>
    </g>
    <g id="xtick_3">
     <g id="line2d_3">
      <g>
       <use style="stroke:#000000;stroke-width:1.6;" x="202.048799" xlink:href="#m07bf951d24" y="255.695"/>
      </g>
     </g>
     <g id="text_3">
      <!-- 0.4 -->
      <defs>
       <path d="M 37.796875 64.3125 
L 12.890625 25.390625 
L 37.796875 25.390625 
z
M 35.203125 72.90625 
L 47.609375 72.90625 
L 47.609375 25.390625 
L 58.015625 25.390625 
L 58.015625 17.1875 
L 47.609375 17.1875 
L 47.609375 0 
L 37.796875 0 
L 37.796875 17.1875 
L 4.890625 17.1875 
L 4.890625 26.703125 
z
" id="DejaVuSans-52"/>
      </defs>
      <g transform="translate(186.145674 285.591875)scale(0.2 -0.2)">
       <use xlink:href="#DejaVuSans-48"/>
       <use x="63.623047" xlink:href="#DejaVuSans-46"/>
       <use x="95.410156" xlink:href="#DejaVuSans-52"/>
      </g>
     </g>
    </g>
    <g id="xtick_4">
     <g id="line2d_4">
      <g>
       <use style="stroke:#000000;stroke-width:1.6;" x="267.553994" xlink:href="#m07bf951d24" y="255.695"/>
      </g>
     </g>
     <g id="text_4">
      <!-- 0.6 -->
      <defs>
       <path d="M 33.015625 40.375 
Q 26.375 40.375 22.484375 35.828125 
Q 18.609375 31.296875 18.609375 23.390625 
Q 18.609375 15.53125 22.484375 10.953125 
Q 26.375 6.390625 33.015625 6.390625 
Q 39.65625 6.390625 43.53125 10.953125 
Q 47.40625 15.53125 47.40625 23.390625 
Q 47.40625 31.296875 43.53125 35.828125 
Q 39.65625 40.375 33.015625 40.375 
z
M 52.59375 71.296875 
L 52.59375 62.3125 
Q 48.875 64.0625 45.09375 64.984375 
Q 41.3125 65.921875 37.59375 65.921875 
Q 27.828125 65.921875 22.671875 59.328125 
Q 17.53125 52.734375 16.796875 39.40625 
Q 19.671875 43.65625 24.015625 45.921875 
Q 28.375 48.1875 33.59375 48.1875 
Q 44.578125 48.1875 50.953125 41.515625 
Q 57.328125 34.859375 57.328125 23.390625 
Q 57.328125 12.15625 50.6875 5.359375 
Q 44.046875 -1.421875 33.015625 -1.421875 
Q 20.359375 -1.421875 13.671875 8.265625 
Q 6.984375 17.96875 6.984375 36.375 
Q 6.984375 53.65625 15.1875 63.9375 
Q 23.390625 74.21875 37.203125 74.21875 
Q 40.921875 74.21875 44.703125 73.484375 
Q 48.484375 72.75 52.59375 71.296875 
z
" id="DejaVuSans-54"/>
      </defs>
      <g transform="translate(251.650869 285.591875)scale(0.2 -0.2)">
       <use xlink:href="#DejaVuSans-48"/>
       <use x="63.623047" xlink:href="#DejaVuSans-46"/>
       <use x="95.410156" xlink:href="#DejaVuSans-54"/>
      </g>
     </g>
    </g>
    <g id="text_5">
     <!-- Max JS Divergence within $\epsilon$ -->
     <defs>
      <path d="M 9.8125 72.90625 
L 24.515625 72.90625 
L 43.109375 23.296875 
L 61.8125 72.90625 
L 76.515625 72.90625 
L 76.515625 0 
L 66.890625 0 
L 66.890625 64.015625 
L 48.09375 14.015625 
L 38.1875 14.015625 
L 19.390625 64.015625 
L 19.390625 0 
L 9.8125 0 
z
" id="DejaVuSans-77"/>
      <path d="M 34.28125 27.484375 
Q 23.390625 27.484375 19.1875 25 
Q 14.984375 22.515625 14.984375 16.5 
Q 14.984375 11.71875 18.140625 8.90625 
Q 21.296875 6.109375 26.703125 6.109375 
Q 34.1875 6.109375 38.703125 11.40625 
Q 43.21875 16.703125 43.21875 25.484375 
L 43.21875 27.484375 
z
M 52.203125 31.203125 
L 52.203125 0 
L 43.21875 0 
L 43.21875 8.296875 
Q 40.140625 3.328125 35.546875 0.953125 
Q 30.953125 -1.421875 24.3125 -1.421875 
Q 15.921875 -1.421875 10.953125 3.296875 
Q 6 8.015625 6 15.921875 
Q 6 25.140625 12.171875 29.828125 
Q 18.359375 34.515625 30.609375 34.515625 
L 43.21875 34.515625 
L 43.21875 35.40625 
Q 43.21875 41.609375 39.140625 45 
Q 35.0625 48.390625 27.6875 48.390625 
Q 23 48.390625 18.546875 47.265625 
Q 14.109375 46.140625 10.015625 43.890625 
L 10.015625 52.203125 
Q 14.9375 54.109375 19.578125 55.046875 
Q 24.21875 56 28.609375 56 
Q 40.484375 56 46.34375 49.84375 
Q 52.203125 43.703125 52.203125 31.203125 
z
" id="DejaVuSans-97"/>
      <path d="M 54.890625 54.6875 
L 35.109375 28.078125 
L 55.90625 0 
L 45.3125 0 
L 29.390625 21.484375 
L 13.484375 0 
L 2.875 0 
L 24.125 28.609375 
L 4.6875 54.6875 
L 15.28125 54.6875 
L 29.78125 35.203125 
L 44.28125 54.6875 
z
" id="DejaVuSans-120"/>
      <path id="DejaVuSans-32"/>
      <path d="M 9.8125 72.90625 
L 19.671875 72.90625 
L 19.671875 5.078125 
Q 19.671875 -8.109375 14.671875 -14.0625 
Q 9.671875 -20.015625 -1.421875 -20.015625 
L -5.171875 -20.015625 
L -5.171875 -11.71875 
L -2.09375 -11.71875 
Q 4.4375 -11.71875 7.125 -8.046875 
Q 9.8125 -4.390625 9.8125 5.078125 
z
" id="DejaVuSans-74"/>
      <path d="M 53.515625 70.515625 
L 53.515625 60.890625 
Q 47.90625 63.578125 42.921875 64.890625 
Q 37.9375 66.21875 33.296875 66.21875 
Q 25.25 66.21875 20.875 63.09375 
Q 16.5 59.96875 16.5 54.203125 
Q 16.5 49.359375 19.40625 46.890625 
Q 22.3125 44.4375 30.421875 42.921875 
L 36.375 41.703125 
Q 47.40625 39.59375 52.65625 34.296875 
Q 57.90625 29 57.90625 20.125 
Q 57.90625 9.515625 50.796875 4.046875 
Q 43.703125 -1.421875 29.984375 -1.421875 
Q 24.8125 -1.421875 18.96875 -0.25 
Q 13.140625 0.921875 6.890625 3.21875 
L 6.890625 13.375 
Q 12.890625 10.015625 18.65625 8.296875 
Q 24.421875 6.59375 29.984375 6.59375 
Q 38.421875 6.59375 43.015625 9.90625 
Q 47.609375 13.234375 47.609375 19.390625 
Q 47.609375 24.75 44.3125 27.78125 
Q 41.015625 30.8125 33.5 32.328125 
L 27.484375 33.5 
Q 16.453125 35.6875 11.515625 40.375 
Q 6.59375 45.0625 6.59375 53.421875 
Q 6.59375 63.09375 13.40625 68.65625 
Q 20.21875 74.21875 32.171875 74.21875 
Q 37.3125 74.21875 42.625 73.28125 
Q 47.953125 72.359375 53.515625 70.515625 
z
" id="DejaVuSans-83"/>
      <path d="M 19.671875 64.796875 
L 19.671875 8.109375 
L 31.59375 8.109375 
Q 46.6875 8.109375 53.6875 14.9375 
Q 60.6875 21.78125 60.6875 36.53125 
Q 60.6875 51.171875 53.6875 57.984375 
Q 46.6875 64.796875 31.59375 64.796875 
z
M 9.8125 72.90625 
L 30.078125 72.90625 
Q 51.265625 72.90625 61.171875 64.09375 
Q 71.09375 55.28125 71.09375 36.53125 
Q 71.09375 17.671875 61.125 8.828125 
Q 51.171875 0 30.078125 0 
L 9.8125 0 
z
" id="DejaVuSans-68"/>
      <path d="M 9.421875 54.6875 
L 18.40625 54.6875 
L 18.40625 0 
L 9.421875 0 
z
M 9.421875 75.984375 
L 18.40625 75.984375 
L 18.40625 64.59375 
L 9.421875 64.59375 
z
" id="DejaVuSans-105"/>
      <path d="M 2.984375 54.6875 
L 12.5 54.6875 
L 29.59375 8.796875 
L 46.6875 54.6875 
L 56.203125 54.6875 
L 35.6875 0 
L 23.484375 0 
z
" id="DejaVuSans-118"/>
      <path d="M 56.203125 29.59375 
L 56.203125 25.203125 
L 14.890625 25.203125 
Q 15.484375 15.921875 20.484375 11.0625 
Q 25.484375 6.203125 34.421875 6.203125 
Q 39.59375 6.203125 44.453125 7.46875 
Q 49.3125 8.734375 54.109375 11.28125 
L 54.109375 2.78125 
Q 49.265625 0.734375 44.1875 -0.34375 
Q 39.109375 -1.421875 33.890625 -1.421875 
Q 20.796875 -1.421875 13.15625 6.1875 
Q 5.515625 13.8125 5.515625 26.8125 
Q 5.515625 40.234375 12.765625 48.109375 
Q 20.015625 56 32.328125 56 
Q 43.359375 56 49.78125 48.890625 
Q 56.203125 41.796875 56.203125 29.59375 
z
M 47.21875 32.234375 
Q 47.125 39.59375 43.09375 43.984375 
Q 39.0625 48.390625 32.421875 48.390625 
Q 24.90625 48.390625 20.390625 44.140625 
Q 15.875 39.890625 15.1875 32.171875 
z
" id="DejaVuSans-101"/>
      <path d="M 41.109375 46.296875 
Q 39.59375 47.171875 37.8125 47.578125 
Q 36.03125 48 33.890625 48 
Q 26.265625 48 22.1875 43.046875 
Q 18.109375 38.09375 18.109375 28.8125 
L 18.109375 0 
L 9.078125 0 
L 9.078125 54.6875 
L 18.109375 54.6875 
L 18.109375 46.1875 
Q 20.953125 51.171875 25.484375 53.578125 
Q 30.03125 56 36.53125 56 
Q 37.453125 56 38.578125 55.875 
Q 39.703125 55.765625 41.0625 55.515625 
z
" id="DejaVuSans-114"/>
      <path d="M 45.40625 27.984375 
Q 45.40625 37.75 41.375 43.109375 
Q 37.359375 48.484375 30.078125 48.484375 
Q 22.859375 48.484375 18.828125 43.109375 
Q 14.796875 37.75 14.796875 27.984375 
Q 14.796875 18.265625 18.828125 12.890625 
Q 22.859375 7.515625 30.078125 7.515625 
Q 37.359375 7.515625 41.375 12.890625 
Q 45.40625 18.265625 45.40625 27.984375 
z
M 54.390625 6.78125 
Q 54.390625 -7.171875 48.1875 -13.984375 
Q 42 -20.796875 29.203125 -20.796875 
Q 24.46875 -20.796875 20.265625 -20.09375 
Q 16.0625 -19.390625 12.109375 -17.921875 
L 12.109375 -9.1875 
Q 16.0625 -11.328125 19.921875 -12.34375 
Q 23.78125 -13.375 27.78125 -13.375 
Q 36.625 -13.375 41.015625 -8.765625 
Q 45.40625 -4.15625 45.40625 5.171875 
L 45.40625 9.625 
Q 42.625 4.78125 38.28125 2.390625 
Q 33.9375 0 27.875 0 
Q 17.828125 0 11.671875 7.65625 
Q 5.515625 15.328125 5.515625 27.984375 
Q 5.515625 40.671875 11.671875 48.328125 
Q 17.828125 56 27.875 56 
Q 33.9375 56 38.28125 53.609375 
Q 42.625 51.21875 45.40625 46.390625 
L 45.40625 54.6875 
L 54.390625 54.6875 
z
" id="DejaVuSans-103"/>
      <path d="M 54.890625 33.015625 
L 54.890625 0 
L 45.90625 0 
L 45.90625 32.71875 
Q 45.90625 40.484375 42.875 44.328125 
Q 39.84375 48.1875 33.796875 48.1875 
Q 26.515625 48.1875 22.3125 43.546875 
Q 18.109375 38.921875 18.109375 30.90625 
L 18.109375 0 
L 9.078125 0 
L 9.078125 54.6875 
L 18.109375 54.6875 
L 18.109375 46.1875 
Q 21.34375 51.125 25.703125 53.5625 
Q 30.078125 56 35.796875 56 
Q 45.21875 56 50.046875 50.171875 
Q 54.890625 44.34375 54.890625 33.015625 
z
" id="DejaVuSans-110"/>
      <path d="M 48.78125 52.59375 
L 48.78125 44.1875 
Q 44.96875 46.296875 41.140625 47.34375 
Q 37.3125 48.390625 33.40625 48.390625 
Q 24.65625 48.390625 19.8125 42.84375 
Q 14.984375 37.3125 14.984375 27.296875 
Q 14.984375 17.28125 19.8125 11.734375 
Q 24.65625 6.203125 33.40625 6.203125 
Q 37.3125 6.203125 41.140625 7.25 
Q 44.96875 8.296875 48.78125 10.40625 
L 48.78125 2.09375 
Q 45.015625 0.34375 40.984375 -0.53125 
Q 36.96875 -1.421875 32.421875 -1.421875 
Q 20.0625 -1.421875 12.78125 6.34375 
Q 5.515625 14.109375 5.515625 27.296875 
Q 5.515625 40.671875 12.859375 48.328125 
Q 20.21875 56 33.015625 56 
Q 37.15625 56 41.109375 55.140625 
Q 45.0625 54.296875 48.78125 52.59375 
z
" id="DejaVuSans-99"/>
      <path d="M 4.203125 54.6875 
L 13.1875 54.6875 
L 24.421875 12.015625 
L 35.59375 54.6875 
L 46.1875 54.6875 
L 57.421875 12.015625 
L 68.609375 54.6875 
L 77.59375 54.6875 
L 63.28125 0 
L 52.6875 0 
L 40.921875 44.828125 
L 29.109375 0 
L 18.5 0 
z
" id="DejaVuSans-119"/>
      <path d="M 18.3125 70.21875 
L 18.3125 54.6875 
L 36.8125 54.6875 
L 36.8125 47.703125 
L 18.3125 47.703125 
L 18.3125 18.015625 
Q 18.3125 11.328125 20.140625 9.421875 
Q 21.96875 7.515625 27.59375 7.515625 
L 36.8125 7.515625 
L 36.8125 0 
L 27.59375 0 
Q 17.1875 0 13.234375 3.875 
Q 9.28125 7.765625 9.28125 18.015625 
L 9.28125 47.703125 
L 2.6875 47.703125 
L 2.6875 54.6875 
L 9.28125 54.6875 
L 9.28125 70.21875 
z
" id="DejaVuSans-116"/>
      <path d="M 54.890625 33.015625 
L 54.890625 0 
L 45.90625 0 
L 45.90625 32.71875 
Q 45.90625 40.484375 42.875 44.328125 
Q 39.84375 48.1875 33.796875 48.1875 
Q 26.515625 48.1875 22.3125 43.546875 
Q 18.109375 38.921875 18.109375 30.90625 
L 18.109375 0 
L 9.078125 0 
L 9.078125 75.984375 
L 18.109375 75.984375 
L 18.109375 46.1875 
Q 21.34375 51.125 25.703125 53.5625 
Q 30.078125 56 35.796875 56 
Q 45.21875 56 50.046875 50.171875 
Q 54.890625 44.34375 54.890625 33.015625 
z
" id="DejaVuSans-104"/>
      <path d="M 19.734375 29.5 
Q 14.453125 30.671875 12.15625 33.84375 
Q 10.453125 36.078125 10.453125 39.109375 
Q 10.453125 47.40625 18.359375 52.25 
Q 24.609375 56.0625 34.1875 56.0625 
Q 37.890625 56.0625 41.9375 55.46875 
Q 46 54.890625 50.53125 53.71875 
L 48.96875 45.5625 
Q 44.484375 46.96875 40.71875 47.609375 
Q 36.859375 48.25 33.40625 48.25 
Q 27.59375 48.25 23.78125 46 
Q 19.1875 43.3125 19.1875 39.40625 
Q 19.1875 36.8125 21.578125 35.015625 
Q 24.421875 32.859375 30.078125 32.859375 
L 37.640625 32.859375 
L 36.234375 25.4375 
L 29 25.4375 
Q 22.265625 25.4375 18.3125 22.953125 
Q 12.9375 19.578125 12.9375 14.3125 
Q 12.9375 10.984375 15.828125 8.796875 
Q 19.4375 6.0625 26.8125 6.0625 
Q 31.34375 6.0625 35.6875 6.9375 
Q 40.046875 7.859375 43.84375 9.671875 
L 42.1875 1.3125 
Q 37.546875 -0.046875 33.296875 -0.734375 
Q 29.046875 -1.421875 25.140625 -1.421875 
Q 13.53125 -1.421875 8.0625 3.03125 
Q 3.90625 6.453125 3.90625 12.203125 
Q 3.90625 19.96875 9.375 24.75 
Q 13.421875 28.328125 19.734375 29.5 
z
" id="DejaVuSans-Oblique-949"/>
     </defs>
     <g transform="translate(50.0725 308.95125)scale(0.2 -0.2)">
      <use transform="translate(0 0.015625)" xlink:href="#DejaVuSans-77"/>
      <use transform="translate(86.279297 0.015625)" xlink:href="#DejaVuSans-97"/>
      <use transform="translate(147.558594 0.015625)" xlink:href="#DejaVuSans-120"/>
      <use transform="translate(206.738281 0.015625)" xlink:href="#DejaVuSans-32"/>
      <use transform="translate(238.525391 0.015625)" xlink:href="#DejaVuSans-74"/>
      <use transform="translate(268.017578 0.015625)" xlink:href="#DejaVuSans-83"/>
      <use transform="translate(331.494141 0.015625)" xlink:href="#DejaVuSans-32"/>
      <use transform="translate(363.28125 0.015625)" xlink:href="#DejaVuSans-68"/>
      <use transform="translate(440.283203 0.015625)" xlink:href="#DejaVuSans-105"/>
      <use transform="translate(468.066406 0.015625)" xlink:href="#DejaVuSans-118"/>
      <use transform="translate(527.246094 0.015625)" xlink:href="#DejaVuSans-101"/>
      <use transform="translate(588.769531 0.015625)" xlink:href="#DejaVuSans-114"/>
      <use transform="translate(629.882812 0.015625)" xlink:href="#DejaVuSans-103"/>
      <use transform="translate(693.359375 0.015625)" xlink:href="#DejaVuSans-101"/>
      <use transform="translate(754.882812 0.015625)" xlink:href="#DejaVuSans-110"/>
      <use transform="translate(818.261719 0.015625)" xlink:href="#DejaVuSans-99"/>
      <use transform="translate(873.242188 0.015625)" xlink:href="#DejaVuSans-101"/>
      <use transform="translate(934.765625 0.015625)" xlink:href="#DejaVuSans-32"/>
      <use transform="translate(966.552734 0.015625)" xlink:href="#DejaVuSans-119"/>
      <use transform="translate(1048.339844 0.015625)" xlink:href="#DejaVuSans-105"/>
      <use transform="translate(1076.123047 0.015625)" xlink:href="#DejaVuSans-116"/>
      <use transform="translate(1115.332031 0.015625)" xlink:href="#DejaVuSans-104"/>
      <use transform="translate(1178.710938 0.015625)" xlink:href="#DejaVuSans-105"/>
      <use transform="translate(1206.494141 0.015625)" xlink:href="#DejaVuSans-110"/>
      <use transform="translate(1269.873047 0.015625)" xlink:href="#DejaVuSans-32"/>
      <use transform="translate(1301.660156 0.015625)" xlink:href="#DejaVuSans-Oblique-949"/>
     </g>
    </g>
   </g>
   <g id="matplotlib.axis_2">
    <g id="ytick_1">
     <g id="line2d_5">
      <defs>
       <path d="M 0 0 
L -3.5 0 
" id="m94c1d8999a" style="stroke:#000000;stroke-width:1.6;"/>
      </defs>
      <g>
       <use style="stroke:#000000;stroke-width:1.6;" x="59.575" xlink:href="#m94c1d8999a" y="255.695"/>
      </g>
     </g>
     <g id="text_6">
      <!-- 0.00 -->
      <g transform="translate(0.34375 263.293437)scale(0.2 -0.2)">
       <use xlink:href="#DejaVuSans-48"/>
       <use x="63.623047" xlink:href="#DejaVuSans-46"/>
       <use x="95.410156" xlink:href="#DejaVuSans-48"/>
       <use x="159.033203" xlink:href="#DejaVuSans-48"/>
      </g>
     </g>
    </g>
    <g id="ytick_2">
     <g id="line2d_6">
      <g>
       <use style="stroke:#000000;stroke-width:1.6;" x="59.575" xlink:href="#m94c1d8999a" y="201.107338"/>
      </g>
     </g>
     <g id="text_7">
      <!-- 0.02 -->
      <g transform="translate(0.34375 208.705775)scale(0.2 -0.2)">
       <use xlink:href="#DejaVuSans-48"/>
       <use x="63.623047" xlink:href="#DejaVuSans-46"/>
       <use x="95.410156" xlink:href="#DejaVuSans-48"/>
       <use x="159.033203" xlink:href="#DejaVuSans-50"/>
      </g>
     </g>
    </g>
    <g id="ytick_3">
     <g id="line2d_7">
      <g>
       <use style="stroke:#000000;stroke-width:1.6;" x="59.575" xlink:href="#m94c1d8999a" y="146.519675"/>
      </g>
     </g>
     <g id="text_8">
      <!-- 0.04 -->
      <g transform="translate(0.34375 154.118113)scale(0.2 -0.2)">
       <use xlink:href="#DejaVuSans-48"/>
       <use x="63.623047" xlink:href="#DejaVuSans-46"/>
       <use x="95.410156" xlink:href="#DejaVuSans-48"/>
       <use x="159.033203" xlink:href="#DejaVuSans-52"/>
      </g>
     </g>
    </g>
    <g id="ytick_4">
     <g id="line2d_8">
      <g>
       <use style="stroke:#000000;stroke-width:1.6;" x="59.575" xlink:href="#m94c1d8999a" y="91.932013"/>
      </g>
     </g>
     <g id="text_9">
      <!-- 0.06 -->
      <g transform="translate(0.34375 99.53045)scale(0.2 -0.2)">
       <use xlink:href="#DejaVuSans-48"/>
       <use x="63.623047" xlink:href="#DejaVuSans-46"/>
       <use x="95.410156" xlink:href="#DejaVuSans-48"/>
       <use x="159.033203" xlink:href="#DejaVuSans-54"/>
      </g>
     </g>
    </g>
    <g id="ytick_5">
     <g id="line2d_9">
      <g>
       <use style="stroke:#000000;stroke-width:1.6;" x="59.575" xlink:href="#m94c1d8999a" y="37.344351"/>
      </g>
     </g>
     <g id="text_10">
      <!-- 0.08 -->
      <defs>
       <path d="M 31.78125 34.625 
Q 24.75 34.625 20.71875 30.859375 
Q 16.703125 27.09375 16.703125 20.515625 
Q 16.703125 13.921875 20.71875 10.15625 
Q 24.75 6.390625 31.78125 6.390625 
Q 38.8125 6.390625 42.859375 10.171875 
Q 46.921875 13.96875 46.921875 20.515625 
Q 46.921875 27.09375 42.890625 30.859375 
Q 38.875 34.625 31.78125 34.625 
z
M 21.921875 38.8125 
Q 15.578125 40.375 12.03125 44.71875 
Q 8.5 49.078125 8.5 55.328125 
Q 8.5 64.0625 14.71875 69.140625 
Q 20.953125 74.21875 31.78125 74.21875 
Q 42.671875 74.21875 48.875 69.140625 
Q 55.078125 64.0625 55.078125 55.328125 
Q 55.078125 49.078125 51.53125 44.71875 
Q 48 40.375 41.703125 38.8125 
Q 48.828125 37.15625 52.796875 32.3125 
Q 56.78125 27.484375 56.78125 20.515625 
Q 56.78125 9.90625 50.3125 4.234375 
Q 43.84375 -1.421875 31.78125 -1.421875 
Q 19.734375 -1.421875 13.25 4.234375 
Q 6.78125 9.90625 6.78125 20.515625 
Q 6.78125 27.484375 10.78125 32.3125 
Q 14.796875 37.15625 21.921875 38.8125 
z
M 18.3125 54.390625 
Q 18.3125 48.734375 21.84375 45.5625 
Q 25.390625 42.390625 31.78125 42.390625 
Q 38.140625 42.390625 41.71875 45.5625 
Q 45.3125 48.734375 45.3125 54.390625 
Q 45.3125 60.0625 41.71875 63.234375 
Q 38.140625 66.40625 31.78125 66.40625 
Q 25.390625 66.40625 21.84375 63.234375 
Q 18.3125 60.0625 18.3125 54.390625 
z
" id="DejaVuSans-56"/>
      </defs>
      <g transform="translate(0.34375 44.942788)scale(0.2 -0.2)">
       <use xlink:href="#DejaVuSans-48"/>
       <use x="63.623047" xlink:href="#DejaVuSans-46"/>
       <use x="95.410156" xlink:href="#DejaVuSans-48"/>
       <use x="159.033203" xlink:href="#DejaVuSans-56"/>
      </g>
     </g>
    </g>
   </g>
   <g id="patch_43">
    <path d="M 59.575 255.695 
L 59.575 3.5 
" style="fill:none;stroke:#000000;stroke-linecap:square;stroke-linejoin:miter;stroke-width:0.8;"/>
   </g>
   <g id="patch_44">
    <path d="M 59.575 255.695 
L 311.77 255.695 
" style="fill:none;stroke:#000000;stroke-linecap:square;stroke-linejoin:miter;stroke-width:0.8;"/>
   </g>
  </g>
  <g id="axes_2">
   <g id="patch_45">
    <path d="M 427.13 255.695 
L 679.325 255.695 
L 679.325 3.5 
L 427.13 3.5 
z
" style="fill:#ffffff;"/>
   </g>
   <g id="PolyCollection_1">
    <defs>
     <path d="M 443.674488 -278.031835 
L 443.674488 -284.709415 
L 445.988762 -284.671539 
L 448.303037 -284.538549 
L 450.617311 -284.321909 
L 452.931585 -284.039594 
L 455.24586 -283.713633 
L 457.560134 -283.367288 
L 459.874408 -283.022373 
L 462.188682 -282.697128 
L 464.502957 -282.404907 
L 466.817231 -282.153752 
L 469.131505 -281.946747 
L 471.44578 -281.78293 
L 473.760054 -281.65849 
L 476.074328 -281.567996 
L 478.388602 -281.505466 
L 480.702877 -281.465161 
L 483.017151 -281.442073 
L 485.331425 -281.432137 
L 487.6457 -281.43222 
L 489.959974 -281.439967 
L 492.274248 -281.453585 
L 494.588522 -281.471621 
L 496.902797 -281.492779 
L 499.217071 -281.515817 
L 501.531345 -281.539532 
L 503.84562 -281.562828 
L 506.159894 -281.584849 
L 508.474168 -281.605161 
L 510.788442 -281.623925 
L 513.102717 -281.642044 
L 515.416991 -281.661242 
L 517.731265 -281.684067 
L 520.04554 -281.713804 
L 522.359814 -281.754329 
L 524.674088 -281.809911 
L 526.988362 -281.885007 
L 529.302637 -281.984051 
L 531.616911 -282.111293 
L 533.931185 -282.270649 
L 536.24546 -282.465594 
L 538.559734 -282.699081 
L 540.874008 -282.973466 
L 543.188282 -283.290472 
L 545.502557 -283.651177 
L 547.816831 -284.056068 
L 550.131105 -284.505187 
L 552.44538 -284.998369 
L 554.759654 -285.535594 
L 557.073928 -286.117406 
L 559.388202 -286.745334 
L 561.702477 -287.422232 
L 564.016751 -288.152437 
L 566.331025 -288.941643 
L 568.6453 -289.796441 
L 570.959574 -290.723498 
L 573.273848 -291.728424 
L 575.588123 -292.814421 
L 577.902397 -293.980846 
L 580.216671 -295.221873 
L 582.530945 -296.525429 
L 584.84522 -297.87259 
L 587.159494 -299.237582 
L 589.473768 -300.588485 
L 591.788043 -301.888658 
L 594.102317 -303.098818 
L 596.416591 -304.179596 
L 598.730865 -305.094319 
L 601.04514 -305.811703 
L 603.359414 -306.308112 
L 605.673688 -306.569113 
L 607.987963 -306.590125 
L 610.302237 -306.376096 
L 612.616511 -305.940327 
L 614.930785 -305.302649 
L 617.24506 -304.487298 
L 619.559334 -303.520826 
L 621.873608 -302.430339 
L 624.187883 -301.242268 
L 626.502157 -299.981702 
L 628.816431 -298.672208 
L 631.130705 -297.335943 
L 633.44498 -295.993859 
L 635.759254 -294.665785 
L 638.073528 -293.3703 
L 640.387803 -292.124369 
L 642.702077 -290.942808 
L 645.016351 -289.837713 
L 647.330625 -288.817972 
L 649.6449 -287.888968 
L 651.959174 -287.052547 
L 654.273448 -286.307243 
L 656.587723 -285.648739 
L 658.901997 -285.070509 
L 661.216271 -284.564552 
L 663.530545 -284.122166 
L 665.84482 -283.734661 
L 668.159094 -283.393979 
L 670.473368 -283.093135 
L 672.787643 -282.826479 
L 672.787643 -279.914771 
L 672.787643 -279.914771 
L 670.473368 -279.648115 
L 668.159094 -279.347271 
L 665.84482 -279.006589 
L 663.530545 -278.619084 
L 661.216271 -278.176698 
L 658.901997 -277.670741 
L 656.587723 -277.092511 
L 654.273448 -276.434007 
L 651.959174 -275.688703 
L 649.6449 -274.852282 
L 647.330625 -273.923278 
L 645.016351 -272.903537 
L 642.702077 -271.798442 
L 640.387803 -270.616881 
L 638.073528 -269.37095 
L 635.759254 -268.075465 
L 633.44498 -266.747391 
L 631.130705 -265.405307 
L 628.816431 -264.069042 
L 626.502157 -262.759548 
L 624.187883 -261.498982 
L 621.873608 -260.310911 
L 619.559334 -259.220424 
L 617.24506 -258.253952 
L 614.930785 -257.438601 
L 612.616511 -256.800923 
L 610.302237 -256.365154 
L 607.987963 -256.151125 
L 605.673688 -256.172137 
L 603.359414 -256.433138 
L 601.04514 -256.929547 
L 598.730865 -257.646931 
L 596.416591 -258.561654 
L 594.102317 -259.642432 
L 591.788043 -260.852592 
L 589.473768 -262.152765 
L 587.159494 -263.503668 
L 584.84522 -264.86866 
L 582.530945 -266.215821 
L 580.216671 -267.519377 
L 577.902397 -268.760404 
L 575.588123 -269.926829 
L 573.273848 -271.012826 
L 570.959574 -272.017752 
L 568.6453 -272.944809 
L 566.331025 -273.799607 
L 564.016751 -274.588813 
L 561.702477 -275.319018 
L 559.388202 -275.995916 
L 557.073928 -276.623844 
L 554.759654 -277.205656 
L 552.44538 -277.742881 
L 550.131105 -278.236063 
L 547.816831 -278.685182 
L 545.502557 -279.090073 
L 543.188282 -279.450778 
L 540.874008 -279.767784 
L 538.559734 -280.042169 
L 536.24546 -280.275656 
L 533.931185 -280.470601 
L 531.616911 -280.629957 
L 529.302637 -280.757199 
L 526.988362 -280.856243 
L 524.674088 -280.931339 
L 522.359814 -280.986921 
L 520.04554 -281.027446 
L 517.731265 -281.057183 
L 515.416991 -281.080008 
L 513.102717 -281.099206 
L 510.788442 -281.117325 
L 508.474168 -281.136089 
L 506.159894 -281.156401 
L 503.84562 -281.178422 
L 501.531345 -281.201718 
L 499.217071 -281.225433 
L 496.902797 -281.248471 
L 494.588522 -281.269629 
L 492.274248 -281.287665 
L 489.959974 -281.301283 
L 487.6457 -281.30903 
L 485.331425 -281.309113 
L 483.017151 -281.299177 
L 480.702877 -281.276089 
L 478.388602 -281.235784 
L 476.074328 -281.173254 
L 473.760054 -281.08276 
L 471.44578 -280.95832 
L 469.131505 -280.794503 
L 466.817231 -280.587498 
L 464.502957 -280.336343 
L 462.188682 -280.044122 
L 459.874408 -279.718877 
L 457.560134 -279.373962 
L 455.24586 -279.027617 
L 452.931585 -278.701656 
L 450.617311 -278.419341 
L 448.303037 -278.202701 
L 445.988762 -278.069711 
L 443.674488 -278.031835 
z
" id="mb1af1fc276" style="stroke:#333333;"/>
    </defs>
    <g clip-path="url(#pad3c4df710)">
     <use style="fill:#484566;stroke:#333333;" x="0" xlink:href="#mb1af1fc276" y="316.395"/>
    </g>
   </g>
   <g id="PolyCollection_2">
    <defs>
     <path d="M 443.703867 -217.164759 
L 443.703867 -219.478991 
L 446.038048 -219.464928 
L 448.372228 -219.410988 
L 450.706408 -219.324141 
L 453.040588 -219.21469 
L 455.374768 -219.094504 
L 457.708948 -218.975102 
L 460.043129 -218.866011 
L 462.377309 -218.773691 
L 464.711489 -218.701163 
L 467.045669 -218.648308 
L 469.379849 -218.612666 
L 471.714029 -218.590493 
L 474.048209 -218.57782 
L 476.38239 -218.571336 
L 478.71657 -218.568931 
L 481.05075 -218.569893 
L 483.38493 -218.574763 
L 485.71911 -218.584959 
L 488.05329 -218.602278 
L 490.387471 -218.628399 
L 492.721651 -218.664501 
L 495.055831 -218.711039 
L 497.390011 -218.767703 
L 499.724191 -218.833559 
L 502.058371 -218.907314 
L 504.392551 -218.987672 
L 506.726732 -219.073737 
L 509.060912 -219.165405 
L 511.395092 -219.263679 
L 513.729272 -219.370885 
L 516.063452 -219.490708 
L 518.397632 -219.628046 
L 520.731813 -219.788675 
L 523.065993 -219.978772 
L 525.400173 -220.204333 
L 527.734353 -220.470541 
L 530.068533 -220.781142 
L 532.402713 -221.137844 
L 534.736893 -221.539814 
L 537.071074 -221.983325 
L 539.405254 -222.461681 
L 541.739434 -222.965523 
L 544.073614 -223.483624 
L 546.407794 -224.004167 
L 548.741974 -224.516418 
L 551.076155 -225.012537 
L 553.410335 -225.489227 
L 555.744515 -225.948859 
L 558.078695 -226.39979 
L 560.412875 -226.855719 
L 562.747055 -227.334065 
L 565.081235 -227.85356 
L 567.415416 -228.431378 
L 569.749596 -229.08025 
L 572.083776 -229.806078 
L 574.417956 -230.60654 
L 576.752136 -231.471035 
L 579.086316 -232.382104 
L 581.420496 -233.318125 
L 583.754677 -234.256781 
L 586.088857 -235.178554 
L 588.423037 -236.069485 
L 590.757217 -236.922573 
L 593.091397 -237.737544 
L 595.425577 -238.519062 
L 597.759758 -239.273818 
L 600.093938 -240.007077 
L 602.428118 -240.719312 
L 604.762298 -241.403475 
L 607.096478 -242.043343 
L 609.430658 -242.613234 
L 611.764838 -243.07927 
L 614.099019 -243.402177 
L 616.433199 -243.541375 
L 618.767379 -243.459865 
L 621.101559 -243.129219 
L 623.435739 -242.533903 
L 625.769919 -241.674245 
L 628.1041 -240.567614 
L 630.43828 -239.24766 
L 632.77246 -237.761764 
L 635.10664 -236.167071 
L 637.44082 -234.525567 
L 639.775 -232.898758 
L 642.10918 -231.342477 
L 644.443361 -229.902365 
L 646.777541 -228.610505 
L 649.111721 -227.483587 
L 651.445901 -226.522812 
L 653.780081 -225.715508 
L 656.114261 -225.038215 
L 658.448442 -224.460787 
L 660.782622 -223.950932 
L 663.116802 -223.478574 
L 665.450982 -223.019451 
L 667.785162 -222.557522 
L 670.119342 -222.085899 
L 672.453522 -221.606314 
L 674.787703 -221.127328 
L 674.787703 -215.516422 
L 674.787703 -215.516422 
L 672.453522 -215.037436 
L 670.119342 -214.557851 
L 667.785162 -214.086228 
L 665.450982 -213.624299 
L 663.116802 -213.165176 
L 660.782622 -212.692818 
L 658.448442 -212.182963 
L 656.114261 -211.605535 
L 653.780081 -210.928242 
L 651.445901 -210.120938 
L 649.111721 -209.160163 
L 646.777541 -208.033245 
L 644.443361 -206.741385 
L 642.10918 -205.301273 
L 639.775 -203.744992 
L 637.44082 -202.118183 
L 635.10664 -200.476679 
L 632.77246 -198.881986 
L 630.43828 -197.39609 
L 628.1041 -196.076136 
L 625.769919 -194.969505 
L 623.435739 -194.109847 
L 621.101559 -193.514531 
L 618.767379 -193.183885 
L 616.433199 -193.102375 
L 614.099019 -193.241573 
L 611.764838 -193.56448 
L 609.430658 -194.030516 
L 607.096478 -194.600407 
L 604.762298 -195.240275 
L 602.428118 -195.924438 
L 600.093938 -196.636673 
L 597.759758 -197.369932 
L 595.425577 -198.124688 
L 593.091397 -198.906206 
L 590.757217 -199.721177 
L 588.423037 -200.574265 
L 586.088857 -201.465196 
L 583.754677 -202.386969 
L 581.420496 -203.325625 
L 579.086316 -204.261646 
L 576.752136 -205.172715 
L 574.417956 -206.03721 
L 572.083776 -206.837672 
L 569.749596 -207.5635 
L 567.415416 -208.212372 
L 565.081235 -208.79019 
L 562.747055 -209.309685 
L 560.412875 -209.788031 
L 558.078695 -210.24396 
L 555.744515 -210.694891 
L 553.410335 -211.154523 
L 551.076155 -211.631213 
L 548.741974 -212.127332 
L 546.407794 -212.639583 
L 544.073614 -213.160126 
L 541.739434 -213.678227 
L 539.405254 -214.182069 
L 537.071074 -214.660425 
L 534.736893 -215.103936 
L 532.402713 -215.505906 
L 530.068533 -215.862608 
L 527.734353 -216.173209 
L 525.400173 -216.439417 
L 523.065993 -216.664978 
L 520.731813 -216.855075 
L 518.397632 -217.015704 
L 516.063452 -217.153042 
L 513.729272 -217.272865 
L 511.395092 -217.380071 
L 509.060912 -217.478345 
L 506.726732 -217.570013 
L 504.392551 -217.656078 
L 502.058371 -217.736436 
L 499.724191 -217.810191 
L 497.390011 -217.876047 
L 495.055831 -217.932711 
L 492.721651 -217.979249 
L 490.387471 -218.015351 
L 488.05329 -218.041472 
L 485.71911 -218.058791 
L 483.38493 -218.068987 
L 481.05075 -218.073857 
L 478.71657 -218.074819 
L 476.38239 -218.072414 
L 474.048209 -218.06593 
L 471.714029 -218.053257 
L 469.379849 -218.031084 
L 467.045669 -217.995442 
L 464.711489 -217.942587 
L 462.377309 -217.870059 
L 460.043129 -217.777739 
L 457.708948 -217.668648 
L 455.374768 -217.549246 
L 453.040588 -217.42906 
L 450.706408 -217.319609 
L 448.372228 -217.232762 
L 446.038048 -217.178822 
L 443.703867 -217.164759 
z
" id="m3b64100ddb" style="stroke:#333333;"/>
    </defs>
    <g clip-path="url(#pad3c4df710)">
     <use style="fill:#484566;stroke:#333333;" x="0" xlink:href="#m3b64100ddb" y="316.395"/>
    </g>
   </g>
   <g id="PolyCollection_3">
    <defs>
     <path d="M 484.579475 -154.693713 
L 484.579475 -155.852537 
L 486.458705 -155.879865 
L 488.337935 -155.907966 
L 490.217165 -155.938996 
L 492.096395 -155.975507 
L 493.975625 -156.020301 
L 495.854855 -156.076251 
L 497.734085 -156.146101 
L 499.613315 -156.232258 
L 501.492545 -156.336596 
L 503.371775 -156.460295 
L 505.251005 -156.603724 
L 507.130236 -156.76639 
L 509.009466 -156.946957 
L 510.888696 -157.143338 
L 512.767926 -157.352866 
L 514.647156 -157.572514 
L 516.526386 -157.799164 
L 518.405616 -158.029892 
L 520.284846 -158.262247 
L 522.164076 -158.494489 
L 524.043306 -158.725772 
L 525.922536 -158.956233 
L 527.801766 -159.186992 
L 529.680996 -159.420046 
L 531.560226 -159.658067 
L 533.439456 -159.90413 
L 535.318686 -160.161378 
L 537.197916 -160.432679 
L 539.077146 -160.720289 
L 540.956376 -161.025572 
L 542.835606 -161.348797 
L 544.714836 -161.689027 
L 546.594066 -162.044124 
L 548.473296 -162.410861 
L 550.352527 -162.785123 
L 552.231757 -163.1622 
L 554.110987 -163.537117 
L 555.990217 -163.904999 
L 557.869447 -164.261426 
L 559.748677 -164.602753 
L 561.627907 -164.926368 
L 563.507137 -165.230875 
L 565.386367 -165.516181 
L 567.265597 -165.783485 
L 569.144827 -166.035166 
L 571.024057 -166.274591 
L 572.903287 -166.505862 
L 574.782517 -166.733516 
L 576.661747 -166.962237 
L 578.540977 -167.196593 
L 580.420207 -167.440845 
L 582.299437 -167.698835 
L 584.178667 -167.973976 
L 586.057897 -168.269333 
L 587.937127 -168.587761 
L 589.816357 -168.932085 
L 591.695588 -169.305251 
L 593.574818 -169.710418 
L 595.454048 -170.150939 
L 597.333278 -170.63021 
L 599.212508 -171.151364 
L 601.091738 -171.716839 
L 602.970968 -172.327844 
L 604.850198 -172.983773 
L 606.729428 -173.68164 
L 608.608658 -174.415595 
L 610.487888 -175.176596 
L 612.367118 -175.952288 
L 614.246348 -176.727121 
L 616.125578 -177.482746 
L 618.004808 -178.198655 
L 619.884038 -178.853073 
L 621.763268 -179.424017 
L 623.642498 -179.890481 
L 625.521728 -180.233656 
L 627.400958 -180.438075 
L 629.280188 -180.492625 
L 631.159418 -180.391298 
L 633.038649 -180.133633 
L 634.917879 -179.724786 
L 636.797109 -179.175212 
L 638.676339 -178.499965 
L 640.555569 -177.717681 
L 642.434799 -176.849313 
L 644.314029 -175.916739 
L 646.193259 -174.941369 
L 648.072489 -173.942869 
L 649.951719 -172.938135 
L 651.830949 -171.94058 
L 653.710179 -170.95981 
L 655.589409 -170.001677 
L 657.468639 -169.06869 
L 659.347869 -168.160703 
L 661.227099 -167.275787 
L 663.106329 -166.411167 
L 664.985559 -165.564127 
L 666.864789 -164.732768 
L 668.744019 -163.916554 
L 670.623249 -163.116607 
L 670.623249 -147.429643 
L 670.623249 -147.429643 
L 668.744019 -146.629696 
L 666.864789 -145.813482 
L 664.985559 -144.982123 
L 663.106329 -144.135083 
L 661.227099 -143.270463 
L 659.347869 -142.385547 
L 657.468639 -141.47756 
L 655.589409 -140.544573 
L 653.710179 -139.58644 
L 651.830949 -138.60567 
L 649.951719 -137.608115 
L 648.072489 -136.603381 
L 646.193259 -135.604881 
L 644.314029 -134.629511 
L 642.434799 -133.696937 
L 640.555569 -132.828569 
L 638.676339 -132.046285 
L 636.797109 -131.371038 
L 634.917879 -130.821464 
L 633.038649 -130.412617 
L 631.159418 -130.154952 
L 629.280188 -130.053625 
L 627.400958 -130.108175 
L 625.521728 -130.312594 
L 623.642498 -130.655769 
L 621.763268 -131.122233 
L 619.884038 -131.693177 
L 618.004808 -132.347595 
L 616.125578 -133.063504 
L 614.246348 -133.819129 
L 612.367118 -134.593962 
L 610.487888 -135.369654 
L 608.608658 -136.130655 
L 606.729428 -136.86461 
L 604.850198 -137.562477 
L 602.970968 -138.218406 
L 601.091738 -138.829411 
L 599.212508 -139.394886 
L 597.333278 -139.91604 
L 595.454048 -140.395311 
L 593.574818 -140.835832 
L 591.695588 -141.240999 
L 589.816357 -141.614165 
L 587.937127 -141.958489 
L 586.057897 -142.276917 
L 584.178667 -142.572274 
L 582.299437 -142.847415 
L 580.420207 -143.105405 
L 578.540977 -143.349657 
L 576.661747 -143.584013 
L 574.782517 -143.812734 
L 572.903287 -144.040388 
L 571.024057 -144.271659 
L 569.144827 -144.511084 
L 567.265597 -144.762765 
L 565.386367 -145.030069 
L 563.507137 -145.315375 
L 561.627907 -145.619882 
L 559.748677 -145.943497 
L 557.869447 -146.284824 
L 555.990217 -146.641251 
L 554.110987 -147.009133 
L 552.231757 -147.38405 
L 550.352527 -147.761127 
L 548.473296 -148.135389 
L 546.594066 -148.502126 
L 544.714836 -148.857223 
L 542.835606 -149.197453 
L 540.956376 -149.520678 
L 539.077146 -149.825961 
L 537.197916 -150.113571 
L 535.318686 -150.384872 
L 533.439456 -150.64212 
L 531.560226 -150.888183 
L 529.680996 -151.126204 
L 527.801766 -151.359258 
L 525.922536 -151.590017 
L 524.043306 -151.820478 
L 522.164076 -152.051761 
L 520.284846 -152.284003 
L 518.405616 -152.516358 
L 516.526386 -152.747086 
L 514.647156 -152.973736 
L 512.767926 -153.193384 
L 510.888696 -153.402912 
L 509.009466 -153.599293 
L 507.130236 -153.77986 
L 505.251005 -153.942526 
L 503.371775 -154.085955 
L 501.492545 -154.209654 
L 499.613315 -154.313992 
L 497.734085 -154.400149 
L 495.854855 -154.469999 
L 493.975625 -154.525949 
L 492.096395 -154.570743 
L 490.217165 -154.607254 
L 488.337935 -154.638284 
L 486.458705 -154.666385 
L 484.579475 -154.693713 
z
" id="m7db5f9fdbd" style="stroke:#333333;"/>
    </defs>
    <g clip-path="url(#pad3c4df710)">
     <use style="fill:#484566;stroke:#333333;" x="0" xlink:href="#m7db5f9fdbd" y="316.395"/>
    </g>
   </g>
   <g id="PolyCollection_4">
    <defs>
     <path d="M 580.464937 -80.865465 
L 580.464937 -103.583285 
L 581.234557 -104.342095 
L 582.004177 -105.107944 
L 582.773797 -105.876898 
L 583.543418 -106.644971 
L 584.313038 -107.408184 
L 585.082658 -108.16262 
L 585.852278 -108.904485 
L 586.621898 -109.630155 
L 587.391518 -110.336218 
L 588.161138 -111.019511 
L 588.930758 -111.677147 
L 589.700378 -112.306532 
L 590.469998 -112.905373 
L 591.239618 -113.471678 
L 592.009238 -114.003749 
L 592.778858 -114.500165 
L 593.548478 -114.959765 
L 594.318098 -115.381621 
L 595.087718 -115.765015 
L 595.857338 -116.109417 
L 596.626958 -116.414456 
L 597.396578 -116.679905 
L 598.166198 -116.905666 
L 598.935818 -117.091757 
L 599.705438 -117.238311 
L 600.475058 -117.345578 
L 601.244678 -117.41393 
L 602.014298 -117.443875 
L 602.783918 -117.43607 
L 603.553538 -117.391338 
L 604.323158 -117.310686 
L 605.092778 -117.19532 
L 605.862398 -117.046659 
L 606.632019 -116.86634 
L 607.401639 -116.656226 
L 608.171259 -116.4184 
L 608.940879 -116.155154 
L 609.710499 -115.868973 
L 610.480119 -115.562513 
L 611.249739 -115.238565 
L 612.019359 -114.900029 
L 612.788979 -114.549866 
L 613.558599 -114.191064 
L 614.328219 -113.826589 
L 615.097839 -113.459348 
L 615.867459 -113.09215 
L 616.637079 -112.727664 
L 617.406699 -112.368395 
L 618.176319 -112.016653 
L 618.945939 -111.674537 
L 619.715559 -111.343919 
L 620.485179 -111.02644 
L 621.254799 -110.723505 
L 622.024419 -110.436295 
L 622.794039 -110.165771 
L 623.563659 -109.912689 
L 624.333279 -109.677615 
L 625.102899 -109.460944 
L 625.872519 -109.262913 
L 626.642139 -109.083621 
L 627.411759 -108.923038 
L 628.181379 -108.781018 
L 628.950999 -108.657305 
L 629.72062 -108.551534 
L 630.49024 -108.463231 
L 631.25986 -108.391806 
L 632.02948 -108.336544 
L 632.7991 -108.296589 
L 633.56872 -108.270935 
L 634.33834 -108.258404 
L 635.10796 -108.257633 
L 635.87758 -108.267063 
L 636.6472 -108.284921 
L 637.41682 -108.309217 
L 638.18644 -108.337745 
L 638.95606 -108.368081 
L 639.72568 -108.397603 
L 640.4953 -108.423508 
L 641.26492 -108.442839 
L 642.03454 -108.452526 
L 642.80416 -108.449429 
L 643.57378 -108.430387 
L 644.3434 -108.392281 
L 645.11302 -108.332092 
L 645.88264 -108.246967 
L 646.65226 -108.134284 
L 647.42188 -107.991716 
L 648.1915 -107.817291 
L 648.96112 -107.609448 
L 649.73074 -107.367084 
L 650.50036 -107.089591 
L 651.26998 -106.776886 
L 652.0396 -106.429422 
L 652.80922 -106.048193 
L 653.578841 -105.634726 
L 654.348461 -105.191052 
L 655.118081 -104.719674 
L 655.887701 -104.223521 
L 656.657321 -103.705886 
L 656.657321 -80.742864 
L 656.657321 -80.742864 
L 655.887701 -80.225229 
L 655.118081 -79.729076 
L 654.348461 -79.257698 
L 653.578841 -78.814024 
L 652.80922 -78.400557 
L 652.0396 -78.019328 
L 651.26998 -77.671864 
L 650.50036 -77.359159 
L 649.73074 -77.081666 
L 648.96112 -76.839302 
L 648.1915 -76.631459 
L 647.42188 -76.457034 
L 646.65226 -76.314466 
L 645.88264 -76.201783 
L 645.11302 -76.116658 
L 644.3434 -76.056469 
L 643.57378 -76.018363 
L 642.80416 -75.999321 
L 642.03454 -75.996224 
L 641.26492 -76.005911 
L 640.4953 -76.025242 
L 639.72568 -76.051147 
L 638.95606 -76.080669 
L 638.18644 -76.111005 
L 637.41682 -76.139533 
L 636.6472 -76.163829 
L 635.87758 -76.181687 
L 635.10796 -76.191117 
L 634.33834 -76.190346 
L 633.56872 -76.177815 
L 632.7991 -76.152161 
L 632.02948 -76.112206 
L 631.25986 -76.056944 
L 630.49024 -75.985519 
L 629.72062 -75.897216 
L 628.950999 -75.791445 
L 628.181379 -75.667732 
L 627.411759 -75.525712 
L 626.642139 -75.365129 
L 625.872519 -75.185837 
L 625.102899 -74.987806 
L 624.333279 -74.771135 
L 623.563659 -74.536061 
L 622.794039 -74.282979 
L 622.024419 -74.012455 
L 621.254799 -73.725245 
L 620.485179 -73.42231 
L 619.715559 -73.104831 
L 618.945939 -72.774213 
L 618.176319 -72.432097 
L 617.406699 -72.080355 
L 616.637079 -71.721086 
L 615.867459 -71.3566 
L 615.097839 -70.989402 
L 614.328219 -70.622161 
L 613.558599 -70.257686 
L 612.788979 -69.898884 
L 612.019359 -69.548721 
L 611.249739 -69.210185 
L 610.480119 -68.886237 
L 609.710499 -68.579777 
L 608.940879 -68.293596 
L 608.171259 -68.03035 
L 607.401639 -67.792524 
L 606.632019 -67.58241 
L 605.862398 -67.402091 
L 605.092778 -67.25343 
L 604.323158 -67.138064 
L 603.553538 -67.057412 
L 602.783918 -67.01268 
L 602.014298 -67.004875 
L 601.244678 -67.03482 
L 600.475058 -67.103172 
L 599.705438 -67.210439 
L 598.935818 -67.356993 
L 598.166198 -67.543084 
L 597.396578 -67.768845 
L 596.626958 -68.034294 
L 595.857338 -68.339333 
L 595.087718 -68.683735 
L 594.318098 -69.067129 
L 593.548478 -69.488985 
L 592.778858 -69.948585 
L 592.009238 -70.445001 
L 591.239618 -70.977072 
L 590.469998 -71.543377 
L 589.700378 -72.142218 
L 588.930758 -72.771603 
L 588.161138 -73.429239 
L 587.391518 -74.112532 
L 586.621898 -74.818595 
L 585.852278 -75.544265 
L 585.082658 -76.28613 
L 584.313038 -77.040566 
L 583.543418 -77.803779 
L 582.773797 -78.571852 
L 582.004177 -79.340806 
L 581.234557 -80.106655 
L 580.464937 -80.865465 
z
" id="m2af66ba230" style="stroke:#333333;"/>
    </defs>
    <g clip-path="url(#pad3c4df710)">
     <use style="fill:#484566;stroke:#333333;" x="0" xlink:href="#m2af66ba230" y="316.395"/>
    </g>
   </g>
   <g id="patch_46">
    <path clip-path="url(#pad3c4df710)" d="M 443.943 35.024375 
L 443.943 35.024375 
L 443.943 35.024375 
L 443.943 35.024375 
z
" style="fill:#484566;stroke:#333333;stroke-linejoin:miter;stroke-width:0.5;"/>
   </g>
   <g id="matplotlib.axis_3">
    <g id="xtick_5">
     <g id="line2d_10">
      <g>
       <use style="stroke:#000000;stroke-width:1.6;" x="443.943" xlink:href="#m07bf951d24" y="255.695"/>
      </g>
     </g>
     <g id="text_11">
      <!-- 0.0 -->
      <g transform="translate(428.039875 285.591875)scale(0.2 -0.2)">
       <use xlink:href="#DejaVuSans-48"/>
       <use x="63.623047" xlink:href="#DejaVuSans-46"/>
       <use x="95.410156" xlink:href="#DejaVuSans-48"/>
      </g>
     </g>
    </g>
    <g id="xtick_6">
     <g id="line2d_11">
      <g>
       <use style="stroke:#000000;stroke-width:1.6;" x="511.195" xlink:href="#m07bf951d24" y="255.695"/>
      </g>
     </g>
     <g id="text_12">
      <!-- 0.2 -->
      <g transform="translate(495.291875 285.591875)scale(0.2 -0.2)">
       <use xlink:href="#DejaVuSans-48"/>
       <use x="63.623047" xlink:href="#DejaVuSans-46"/>
       <use x="95.410156" xlink:href="#DejaVuSans-50"/>
      </g>
     </g>
    </g>
    <g id="xtick_7">
     <g id="line2d_12">
      <g>
       <use style="stroke:#000000;stroke-width:1.6;" x="578.447" xlink:href="#m07bf951d24" y="255.695"/>
      </g>
     </g>
     <g id="text_13">
      <!-- 0.4 -->
      <g transform="translate(562.543875 285.591875)scale(0.2 -0.2)">
       <use xlink:href="#DejaVuSans-48"/>
       <use x="63.623047" xlink:href="#DejaVuSans-46"/>
       <use x="95.410156" xlink:href="#DejaVuSans-52"/>
      </g>
     </g>
    </g>
    <g id="xtick_8">
     <g id="line2d_13">
      <g>
       <use style="stroke:#000000;stroke-width:1.6;" x="645.699" xlink:href="#m07bf951d24" y="255.695"/>
      </g>
     </g>
     <g id="text_14">
      <!-- 0.6 -->
      <g transform="translate(629.795875 285.591875)scale(0.2 -0.2)">
       <use xlink:href="#DejaVuSans-48"/>
       <use x="63.623047" xlink:href="#DejaVuSans-46"/>
       <use x="95.410156" xlink:href="#DejaVuSans-54"/>
      </g>
     </g>
    </g>
    <g id="text_15">
     <!-- Max Attention -->
     <defs>
      <path d="M 34.1875 63.1875 
L 20.796875 26.90625 
L 47.609375 26.90625 
z
M 28.609375 72.90625 
L 39.796875 72.90625 
L 67.578125 0 
L 57.328125 0 
L 50.6875 18.703125 
L 17.828125 18.703125 
L 11.1875 0 
L 0.78125 0 
z
" id="DejaVuSans-65"/>
      <path d="M 30.609375 48.390625 
Q 23.390625 48.390625 19.1875 42.75 
Q 14.984375 37.109375 14.984375 27.296875 
Q 14.984375 17.484375 19.15625 11.84375 
Q 23.34375 6.203125 30.609375 6.203125 
Q 37.796875 6.203125 41.984375 11.859375 
Q 46.1875 17.53125 46.1875 27.296875 
Q 46.1875 37.015625 41.984375 42.703125 
Q 37.796875 48.390625 30.609375 48.390625 
z
M 30.609375 56 
Q 42.328125 56 49.015625 48.375 
Q 55.71875 40.765625 55.71875 27.296875 
Q 55.71875 13.875 49.015625 6.21875 
Q 42.328125 -1.421875 30.609375 -1.421875 
Q 18.84375 -1.421875 12.171875 6.21875 
Q 5.515625 13.875 5.515625 27.296875 
Q 5.515625 40.765625 12.171875 48.375 
Q 18.84375 56 30.609375 56 
z
" id="DejaVuSans-111"/>
     </defs>
     <g transform="translate(483.049375 308.948125)scale(0.2 -0.2)">
      <use xlink:href="#DejaVuSans-77"/>
      <use x="86.279297" xlink:href="#DejaVuSans-97"/>
      <use x="147.558594" xlink:href="#DejaVuSans-120"/>
      <use x="206.738281" xlink:href="#DejaVuSans-32"/>
      <use x="238.525391" xlink:href="#DejaVuSans-65"/>
      <use x="306.917969" xlink:href="#DejaVuSans-116"/>
      <use x="346.126953" xlink:href="#DejaVuSans-116"/>
      <use x="385.335938" xlink:href="#DejaVuSans-101"/>
      <use x="446.859375" xlink:href="#DejaVuSans-110"/>
      <use x="510.238281" xlink:href="#DejaVuSans-116"/>
      <use x="549.447266" xlink:href="#DejaVuSans-105"/>
      <use x="577.230469" xlink:href="#DejaVuSans-111"/>
      <use x="638.412109" xlink:href="#DejaVuSans-110"/>
     </g>
    </g>
   </g>
   <g id="matplotlib.axis_4">
    <g id="ytick_6">
     <g id="line2d_14">
      <g>
       <use style="stroke:#000000;stroke-width:1.6;" x="427.13" xlink:href="#m94c1d8999a" y="35.024375"/>
      </g>
     </g>
     <g id="text_16">
      <!-- [0.00, -->
      <defs>
       <path d="M 8.59375 75.984375 
L 29.296875 75.984375 
L 29.296875 69 
L 17.578125 69 
L 17.578125 -6.203125 
L 29.296875 -6.203125 
L 29.296875 -13.1875 
L 8.59375 -13.1875 
z
" id="DejaVuSans-91"/>
       <path d="M 11.71875 12.40625 
L 22.015625 12.40625 
L 22.015625 4 
L 14.015625 -11.625 
L 7.71875 -11.625 
L 11.71875 4 
z
" id="DejaVuSans-44"/>
      </defs>
      <g transform="translate(353.739375 31.425)scale(0.2 -0.2)">
       <use xlink:href="#DejaVuSans-91"/>
       <use x="39.013672" xlink:href="#DejaVuSans-48"/>
       <use x="102.636719" xlink:href="#DejaVuSans-46"/>
       <use x="134.423828" xlink:href="#DejaVuSans-48"/>
       <use x="198.046875" xlink:href="#DejaVuSans-48"/>
       <use x="261.669922" xlink:href="#DejaVuSans-44"/>
      </g>
      <!-- 0.25) -->
      <defs>
       <path d="M 10.796875 72.90625 
L 49.515625 72.90625 
L 49.515625 64.59375 
L 19.828125 64.59375 
L 19.828125 46.734375 
Q 21.96875 47.46875 24.109375 47.828125 
Q 26.265625 48.1875 28.421875 48.1875 
Q 40.625 48.1875 47.75 41.5 
Q 54.890625 34.8125 54.890625 23.390625 
Q 54.890625 11.625 47.5625 5.09375 
Q 40.234375 -1.421875 26.90625 -1.421875 
Q 22.3125 -1.421875 17.546875 -0.640625 
Q 12.796875 0.140625 7.71875 1.703125 
L 7.71875 11.625 
Q 12.109375 9.234375 16.796875 8.0625 
Q 21.484375 6.890625 26.703125 6.890625 
Q 35.15625 6.890625 40.078125 11.328125 
Q 45.015625 15.765625 45.015625 23.390625 
Q 45.015625 31 40.078125 35.4375 
Q 35.15625 39.890625 26.703125 39.890625 
Q 22.75 39.890625 18.8125 39.015625 
Q 14.890625 38.140625 10.796875 36.28125 
z
" id="DejaVuSans-53"/>
       <path d="M 8.015625 75.875 
L 15.828125 75.875 
Q 23.140625 64.359375 26.78125 53.3125 
Q 30.421875 42.28125 30.421875 31.390625 
Q 30.421875 20.453125 26.78125 9.375 
Q 23.140625 -1.703125 15.828125 -13.1875 
L 8.015625 -13.1875 
Q 14.5 -2 17.703125 9.0625 
Q 20.90625 20.125 20.90625 31.390625 
Q 20.90625 42.671875 17.703125 53.65625 
Q 14.5 64.65625 8.015625 75.875 
z
" id="DejaVuSans-41"/>
      </defs>
      <g transform="translate(360.095625 53.820625)scale(0.2 -0.2)">
       <use xlink:href="#DejaVuSans-48"/>
       <use x="63.623047" xlink:href="#DejaVuSans-46"/>
       <use x="95.410156" xlink:href="#DejaVuSans-50"/>
       <use x="159.033203" xlink:href="#DejaVuSans-53"/>
       <use x="222.65625" xlink:href="#DejaVuSans-41"/>
      </g>
     </g>
    </g>
    <g id="ytick_7">
     <g id="line2d_15">
      <g>
       <use style="stroke:#000000;stroke-width:1.6;" x="427.13" xlink:href="#m94c1d8999a" y="98.073125"/>
      </g>
     </g>
     <g id="text_17">
      <!-- [0.25, -->
      <g transform="translate(353.739375 94.47375)scale(0.2 -0.2)">
       <use xlink:href="#DejaVuSans-91"/>
       <use x="39.013672" xlink:href="#DejaVuSans-48"/>
       <use x="102.636719" xlink:href="#DejaVuSans-46"/>
       <use x="134.423828" xlink:href="#DejaVuSans-50"/>
       <use x="198.046875" xlink:href="#DejaVuSans-53"/>
       <use x="261.669922" xlink:href="#DejaVuSans-44"/>
      </g>
      <!-- 0.50) -->
      <g transform="translate(360.095625 116.869375)scale(0.2 -0.2)">
       <use xlink:href="#DejaVuSans-48"/>
       <use x="63.623047" xlink:href="#DejaVuSans-46"/>
       <use x="95.410156" xlink:href="#DejaVuSans-53"/>
       <use x="159.033203" xlink:href="#DejaVuSans-48"/>
       <use x="222.65625" xlink:href="#DejaVuSans-41"/>
      </g>
     </g>
    </g>
    <g id="ytick_8">
     <g id="line2d_16">
      <g>
       <use style="stroke:#000000;stroke-width:1.6;" x="427.13" xlink:href="#m94c1d8999a" y="161.121875"/>
      </g>
     </g>
     <g id="text_18">
      <!-- [0.50, -->
      <g transform="translate(353.739375 157.5225)scale(0.2 -0.2)">
       <use xlink:href="#DejaVuSans-91"/>
       <use x="39.013672" xlink:href="#DejaVuSans-48"/>
       <use x="102.636719" xlink:href="#DejaVuSans-46"/>
       <use x="134.423828" xlink:href="#DejaVuSans-53"/>
       <use x="198.046875" xlink:href="#DejaVuSans-48"/>
       <use x="261.669922" xlink:href="#DejaVuSans-44"/>
      </g>
      <!-- 0.75) -->
      <defs>
       <path d="M 8.203125 72.90625 
L 55.078125 72.90625 
L 55.078125 68.703125 
L 28.609375 0 
L 18.3125 0 
L 43.21875 64.59375 
L 8.203125 64.59375 
z
" id="DejaVuSans-55"/>
      </defs>
      <g transform="translate(360.095625 179.918125)scale(0.2 -0.2)">
       <use xlink:href="#DejaVuSans-48"/>
       <use x="63.623047" xlink:href="#DejaVuSans-46"/>
       <use x="95.410156" xlink:href="#DejaVuSans-55"/>
       <use x="159.033203" xlink:href="#DejaVuSans-53"/>
       <use x="222.65625" xlink:href="#DejaVuSans-41"/>
      </g>
     </g>
    </g>
    <g id="ytick_9">
     <g id="line2d_17">
      <g>
       <use style="stroke:#000000;stroke-width:1.6;" x="427.13" xlink:href="#m94c1d8999a" y="224.170625"/>
      </g>
     </g>
     <g id="text_19">
      <!-- [0.75, -->
      <g transform="translate(353.739375 220.57125)scale(0.2 -0.2)">
       <use xlink:href="#DejaVuSans-91"/>
       <use x="39.013672" xlink:href="#DejaVuSans-48"/>
       <use x="102.636719" xlink:href="#DejaVuSans-46"/>
       <use x="134.423828" xlink:href="#DejaVuSans-55"/>
       <use x="198.046875" xlink:href="#DejaVuSans-53"/>
       <use x="261.669922" xlink:href="#DejaVuSans-44"/>
      </g>
      <!-- 1.00) -->
      <defs>
       <path d="M 12.40625 8.296875 
L 28.515625 8.296875 
L 28.515625 63.921875 
L 10.984375 60.40625 
L 10.984375 69.390625 
L 28.421875 72.90625 
L 38.28125 72.90625 
L 38.28125 8.296875 
L 54.390625 8.296875 
L 54.390625 0 
L 12.40625 0 
z
" id="DejaVuSans-49"/>
      </defs>
      <g transform="translate(360.095625 242.966875)scale(0.2 -0.2)">
       <use xlink:href="#DejaVuSans-49"/>
       <use x="63.623047" xlink:href="#DejaVuSans-46"/>
       <use x="95.410156" xlink:href="#DejaVuSans-48"/>
       <use x="159.033203" xlink:href="#DejaVuSans-48"/>
       <use x="222.65625" xlink:href="#DejaVuSans-41"/>
      </g>
     </g>
    </g>
    <g id="text_20">
     <!-- Max JS Divergence within $\epsilon$ -->
     <g transform="translate(345.539375 265.1975)rotate(-90)scale(0.2 -0.2)">
      <use transform="translate(0 0.015625)" xlink:href="#DejaVuSans-77"/>
      <use transform="translate(86.279297 0.015625)" xlink:href="#DejaVuSans-97"/>
      <use transform="translate(147.558594 0.015625)" xlink:href="#DejaVuSans-120"/>
      <use transform="translate(206.738281 0.015625)" xlink:href="#DejaVuSans-32"/>
      <use transform="translate(238.525391 0.015625)" xlink:href="#DejaVuSans-74"/>
      <use transform="translate(268.017578 0.015625)" xlink:href="#DejaVuSans-83"/>
      <use transform="translate(331.494141 0.015625)" xlink:href="#DejaVuSans-32"/>
      <use transform="translate(363.28125 0.015625)" xlink:href="#DejaVuSans-68"/>
      <use transform="translate(440.283203 0.015625)" xlink:href="#DejaVuSans-105"/>
      <use transform="translate(468.066406 0.015625)" xlink:href="#DejaVuSans-118"/>
      <use transform="translate(527.246094 0.015625)" xlink:href="#DejaVuSans-101"/>
      <use transform="translate(588.769531 0.015625)" xlink:href="#DejaVuSans-114"/>
      <use transform="translate(629.882812 0.015625)" xlink:href="#DejaVuSans-103"/>
      <use transform="translate(693.359375 0.015625)" xlink:href="#DejaVuSans-101"/>
      <use transform="translate(754.882812 0.015625)" xlink:href="#DejaVuSans-110"/>
      <use transform="translate(818.261719 0.015625)" xlink:href="#DejaVuSans-99"/>
      <use transform="translate(873.242188 0.015625)" xlink:href="#DejaVuSans-101"/>
      <use transform="translate(934.765625 0.015625)" xlink:href="#DejaVuSans-32"/>
      <use transform="translate(966.552734 0.015625)" xlink:href="#DejaVuSans-119"/>
      <use transform="translate(1048.339844 0.015625)" xlink:href="#DejaVuSans-105"/>
      <use transform="translate(1076.123047 0.015625)" xlink:href="#DejaVuSans-116"/>
      <use transform="translate(1115.332031 0.015625)" xlink:href="#DejaVuSans-104"/>
      <use transform="translate(1178.710938 0.015625)" xlink:href="#DejaVuSans-105"/>
      <use transform="translate(1206.494141 0.015625)" xlink:href="#DejaVuSans-110"/>
      <use transform="translate(1269.873047 0.015625)" xlink:href="#DejaVuSans-32"/>
      <use transform="translate(1301.660156 0.015625)" xlink:href="#DejaVuSans-Oblique-949"/>
     </g>
    </g>
   </g>
   <g id="line2d_18">
    <path clip-path="url(#pad3c4df710)" style="fill:none;stroke:#333333;stroke-dasharray:1.5,1.5;stroke-dashoffset:0;"/>
   </g>
   <g id="line2d_19">
    <path clip-path="url(#pad3c4df710)" style="fill:none;stroke:#333333;stroke-dasharray:3,3;stroke-dashoffset:0;"/>
   </g>
   <g id="line2d_20">
    <path clip-path="url(#pad3c4df710)" style="fill:none;stroke:#333333;stroke-dasharray:1.5,1.5;stroke-dashoffset:0;"/>
   </g>
   <g id="line2d_21">
    <path clip-path="url(#pad3c4df710)" style="fill:none;stroke:#333333;stroke-dasharray:1.5,1.5;stroke-dashoffset:0;"/>
   </g>
   <g id="line2d_22">
    <path clip-path="url(#pad3c4df710)" style="fill:none;stroke:#333333;stroke-dasharray:3,3;stroke-dashoffset:0;"/>
   </g>
   <g id="line2d_23">
    <path clip-path="url(#pad3c4df710)" style="fill:none;stroke:#333333;stroke-dasharray:1.5,1.5;stroke-dashoffset:0;"/>
   </g>
   <g id="line2d_24">
    <path clip-path="url(#pad3c4df710)" style="fill:none;stroke:#333333;stroke-dasharray:1.5,1.5;stroke-dashoffset:0;"/>
   </g>
   <g id="line2d_25">
    <path clip-path="url(#pad3c4df710)" style="fill:none;stroke:#333333;stroke-dasharray:3,3;stroke-dashoffset:0;"/>
   </g>
   <g id="line2d_26">
    <path clip-path="url(#pad3c4df710)" style="fill:none;stroke:#333333;stroke-dasharray:1.5,1.5;stroke-dashoffset:0;"/>
   </g>
   <g id="line2d_27">
    <path clip-path="url(#pad3c4df710)" style="fill:none;stroke:#333333;stroke-dasharray:1.5,1.5;stroke-dashoffset:0;"/>
   </g>
   <g id="line2d_28">
    <path clip-path="url(#pad3c4df710)" style="fill:none;stroke:#333333;stroke-dasharray:3,3;stroke-dashoffset:0;"/>
   </g>
   <g id="line2d_29">
    <path clip-path="url(#pad3c4df710)" style="fill:none;stroke:#333333;stroke-dasharray:1.5,1.5;stroke-dashoffset:0;"/>
   </g>
   <g id="patch_47">
    <path style="fill:none;stroke:#000000;stroke-linecap:square;stroke-linejoin:miter;stroke-width:0.8;"/>
   </g>
   <g id="patch_48">
    <path style="fill:none;stroke:#000000;stroke-linecap:square;stroke-linejoin:miter;stroke-width:0.8;"/>
   </g>
  </g>
 </g>
 <defs>
  <clipPath id="p8c5781a531">
   <rect height="252.195" width="252.195" x="59.575" y="3.5"/>
  </clipPath>
  <clipPath id="pad3c4df710">
   <rect height="252.195" width="252.195" x="427.13" y="3.5"/>
  </clipPath>
 </defs>
</svg>
