<?xml version="1.0" encoding="utf-8" standalone="no"?>
<!DOCTYPE svg PUBLIC "-//W3C//DTD SVG 1.1//EN"
  "http://www.w3.org/Graphics/SVG/1.1/DTD/svg11.dtd">
<!-- Created with matplotlib (https://matplotlib.org/) -->
<svg height="326.475pt" version="1.1" viewBox="0 0 326.933203 326.475" width="326.933203pt" xmlns="http://www.w3.org/2000/svg" xmlns:xlink="http://www.w3.org/1999/xlink">
 <defs>
  <style type="text/css">
*{stroke-linecap:butt;stroke-linejoin:round;}
  </style>
 </defs>
 <g id="figure_1">
  <g id="patch_1">
   <path d="M 0 326.475 
L 326.933203 326.475 
L 326.933203 0 
L 0 0 
z
" style="fill:#ffffff;"/>
  </g>
  <g id="axes_1">
   <g id="patch_2">
    <path d="M 59.575 265.775 
L 321.85 265.775 
L 321.85 3.5 
L 59.575 3.5 
z
" style="fill:#ffffff;"/>
   </g>
   <g id="patch_3">
    <path clip-path="url(#pebe5ef5430)" d="M 71.496591 265.775 
L 77.457386 265.775 
L 77.457386 15.989286 
L 71.496591 15.989286 
z
" style="fill:#7570b3;opacity:0.6;stroke:#000000;stroke-linejoin:miter;stroke-width:0.5;"/>
   </g>
   <g id="patch_4">
    <path clip-path="url(#pebe5ef5430)" d="M 77.457386 265.775 
L 83.418182 265.775 
L 83.418182 265.775 
L 77.457386 265.775 
z
" style="fill:#7570b3;opacity:0.6;stroke:#000000;stroke-linejoin:miter;stroke-width:0.5;"/>
   </g>
   <g id="patch_5">
    <path clip-path="url(#pebe5ef5430)" d="M 83.418182 265.775 
L 89.378977 265.775 
L 89.378977 265.775 
L 83.418182 265.775 
z
" style="fill:#7570b3;opacity:0.6;stroke:#000000;stroke-linejoin:miter;stroke-width:0.5;"/>
   </g>
   <g id="patch_6">
    <path clip-path="url(#pebe5ef5430)" d="M 89.378977 265.775 
L 95.339773 265.775 
L 95.339773 265.775 
L 89.378977 265.775 
z
" style="fill:#7570b3;opacity:0.6;stroke:#000000;stroke-linejoin:miter;stroke-width:0.5;"/>
   </g>
   <g id="patch_7">
    <path clip-path="url(#pebe5ef5430)" d="M 95.339773 265.775 
L 101.300568 265.775 
L 101.300568 265.775 
L 95.339773 265.775 
z
" style="fill:#7570b3;opacity:0.6;stroke:#000000;stroke-linejoin:miter;stroke-width:0.5;"/>
   </g>
   <g id="patch_8">
    <path clip-path="url(#pebe5ef5430)" d="M 101.300568 265.775 
L 107.261364 265.775 
L 107.261364 265.775 
L 101.300568 265.775 
z
" style="fill:#7570b3;opacity:0.6;stroke:#000000;stroke-linejoin:miter;stroke-width:0.5;"/>
   </g>
   <g id="patch_9">
    <path clip-path="url(#pebe5ef5430)" d="M 107.261364 265.775 
L 113.222159 265.775 
L 113.222159 264.394968 
L 107.261364 264.394968 
z
" style="fill:#7570b3;opacity:0.6;stroke:#000000;stroke-linejoin:miter;stroke-width:0.5;"/>
   </g>
   <g id="patch_10">
    <path clip-path="url(#pebe5ef5430)" d="M 113.222159 265.775 
L 119.182955 265.775 
L 119.182955 265.775 
L 113.222159 265.775 
z
" style="fill:#7570b3;opacity:0.6;stroke:#000000;stroke-linejoin:miter;stroke-width:0.5;"/>
   </g>
   <g id="patch_11">
    <path clip-path="url(#pebe5ef5430)" d="M 119.182955 265.775 
L 125.14375 265.775 
L 125.14375 265.775 
L 119.182955 265.775 
z
" style="fill:#7570b3;opacity:0.6;stroke:#000000;stroke-linejoin:miter;stroke-width:0.5;"/>
   </g>
   <g id="patch_12">
    <path clip-path="url(#pebe5ef5430)" d="M 125.14375 265.775 
L 131.104545 265.775 
L 131.104545 265.775 
L 125.14375 265.775 
z
" style="fill:#7570b3;opacity:0.6;stroke:#000000;stroke-linejoin:miter;stroke-width:0.5;"/>
   </g>
   <g id="patch_13">
    <path clip-path="url(#pebe5ef5430)" d="M 131.104545 265.775 
L 137.065341 265.775 
L 137.065341 265.775 
L 131.104545 265.775 
z
" style="fill:#7570b3;opacity:0.6;stroke:#000000;stroke-linejoin:miter;stroke-width:0.5;"/>
   </g>
   <g id="patch_14">
    <path clip-path="url(#pebe5ef5430)" d="M 137.065341 265.775 
L 143.026136 265.775 
L 143.026136 265.775 
L 137.065341 265.775 
z
" style="fill:#7570b3;opacity:0.6;stroke:#000000;stroke-linejoin:miter;stroke-width:0.5;"/>
   </g>
   <g id="patch_15">
    <path clip-path="url(#pebe5ef5430)" d="M 143.026136 265.775 
L 148.986932 265.775 
L 148.986932 263.014937 
L 143.026136 263.014937 
z
" style="fill:#7570b3;opacity:0.6;stroke:#000000;stroke-linejoin:miter;stroke-width:0.5;"/>
   </g>
   <g id="patch_16">
    <path clip-path="url(#pebe5ef5430)" d="M 148.986932 265.775 
L 154.947727 265.775 
L 154.947727 264.394968 
L 148.986932 264.394968 
z
" style="fill:#7570b3;opacity:0.6;stroke:#000000;stroke-linejoin:miter;stroke-width:0.5;"/>
   </g>
   <g id="patch_17">
    <path clip-path="url(#pebe5ef5430)" d="M 154.947727 265.775 
L 160.908523 265.775 
L 160.908523 263.014937 
L 154.947727 263.014937 
z
" style="fill:#7570b3;opacity:0.6;stroke:#000000;stroke-linejoin:miter;stroke-width:0.5;"/>
   </g>
   <g id="patch_18">
    <path clip-path="url(#pebe5ef5430)" d="M 160.908523 265.775 
L 166.869318 265.775 
L 166.869318 260.254874 
L 160.908523 260.254874 
z
" style="fill:#7570b3;opacity:0.6;stroke:#000000;stroke-linejoin:miter;stroke-width:0.5;"/>
   </g>
   <g id="patch_19">
    <path clip-path="url(#pebe5ef5430)" d="M 166.869318 265.775 
L 172.830114 265.775 
L 172.830114 264.394968 
L 166.869318 264.394968 
z
" style="fill:#7570b3;opacity:0.6;stroke:#000000;stroke-linejoin:miter;stroke-width:0.5;"/>
   </g>
   <g id="patch_20">
    <path clip-path="url(#pebe5ef5430)" d="M 172.830114 265.775 
L 178.790909 265.775 
L 178.790909 261.634905 
L 172.830114 261.634905 
z
" style="fill:#7570b3;opacity:0.6;stroke:#000000;stroke-linejoin:miter;stroke-width:0.5;"/>
   </g>
   <g id="patch_21">
    <path clip-path="url(#pebe5ef5430)" d="M 178.790909 265.775 
L 184.751705 265.775 
L 184.751705 254.734747 
L 178.790909 254.734747 
z
" style="fill:#7570b3;opacity:0.6;stroke:#000000;stroke-linejoin:miter;stroke-width:0.5;"/>
   </g>
   <g id="patch_22">
    <path clip-path="url(#pebe5ef5430)" d="M 184.751705 265.775 
L 190.7125 265.775 
L 190.7125 258.874842 
L 184.751705 258.874842 
z
" style="fill:#7570b3;opacity:0.6;stroke:#000000;stroke-linejoin:miter;stroke-width:0.5;"/>
   </g>
   <g id="patch_23">
    <path clip-path="url(#pebe5ef5430)" d="M 190.7125 265.775 
L 196.673295 265.775 
L 196.673295 249.214621 
L 190.7125 249.214621 
z
" style="fill:#7570b3;opacity:0.6;stroke:#000000;stroke-linejoin:miter;stroke-width:0.5;"/>
   </g>
   <g id="patch_24">
    <path clip-path="url(#pebe5ef5430)" d="M 196.673295 265.775 
L 202.634091 265.775 
L 202.634091 247.83459 
L 196.673295 247.83459 
z
" style="fill:#7570b3;opacity:0.6;stroke:#000000;stroke-linejoin:miter;stroke-width:0.5;"/>
   </g>
   <g id="patch_25">
    <path clip-path="url(#pebe5ef5430)" d="M 202.634091 265.775 
L 208.594886 265.775 
L 208.594886 249.214621 
L 202.634091 249.214621 
z
" style="fill:#7570b3;opacity:0.6;stroke:#000000;stroke-linejoin:miter;stroke-width:0.5;"/>
   </g>
   <g id="patch_26">
    <path clip-path="url(#pebe5ef5430)" d="M 208.594886 265.775 
L 214.555682 265.775 
L 214.555682 228.514148 
L 208.594886 228.514148 
z
" style="fill:#7570b3;opacity:0.6;stroke:#000000;stroke-linejoin:miter;stroke-width:0.5;"/>
   </g>
   <g id="patch_27">
    <path clip-path="url(#pebe5ef5430)" d="M 214.555682 265.775 
L 220.516477 265.775 
L 220.516477 231.274211 
L 214.555682 231.274211 
z
" style="fill:#7570b3;opacity:0.6;stroke:#000000;stroke-linejoin:miter;stroke-width:0.5;"/>
   </g>
   <g id="patch_28">
    <path clip-path="url(#pebe5ef5430)" d="M 220.516477 265.775 
L 226.477273 265.775 
L 226.477273 220.233958 
L 220.516477 220.233958 
z
" style="fill:#7570b3;opacity:0.6;stroke:#000000;stroke-linejoin:miter;stroke-width:0.5;"/>
   </g>
   <g id="patch_29">
    <path clip-path="url(#pebe5ef5430)" d="M 226.477273 265.775 
L 232.438068 265.775 
L 232.438068 195.39339 
L 226.477273 195.39339 
z
" style="fill:#7570b3;opacity:0.6;stroke:#000000;stroke-linejoin:miter;stroke-width:0.5;"/>
   </g>
   <g id="patch_30">
    <path clip-path="url(#pebe5ef5430)" d="M 232.438068 265.775 
L 238.398864 265.775 
L 238.398864 203.673579 
L 232.438068 203.673579 
z
" style="fill:#7570b3;opacity:0.6;stroke:#000000;stroke-linejoin:miter;stroke-width:0.5;"/>
   </g>
   <g id="patch_31">
    <path clip-path="url(#pebe5ef5430)" d="M 238.398864 265.775 
L 244.359659 265.775 
L 244.359659 166.412727 
L 238.398864 166.412727 
z
" style="fill:#7570b3;opacity:0.6;stroke:#000000;stroke-linejoin:miter;stroke-width:0.5;"/>
   </g>
   <g id="patch_32">
    <path clip-path="url(#pebe5ef5430)" d="M 244.359659 265.775 
L 250.320455 265.775 
L 250.320455 169.17279 
L 244.359659 169.17279 
z
" style="fill:#7570b3;opacity:0.6;stroke:#000000;stroke-linejoin:miter;stroke-width:0.5;"/>
   </g>
   <g id="patch_33">
    <path clip-path="url(#pebe5ef5430)" d="M 250.320455 265.775 
L 256.28125 265.775 
L 256.28125 147.092285 
L 250.320455 147.092285 
z
" style="fill:#7570b3;opacity:0.6;stroke:#000000;stroke-linejoin:miter;stroke-width:0.5;"/>
   </g>
   <g id="patch_34">
    <path clip-path="url(#pebe5ef5430)" d="M 256.28125 265.775 
L 262.242045 265.775 
L 262.242045 131.911938 
L 256.28125 131.911938 
z
" style="fill:#7570b3;opacity:0.6;stroke:#000000;stroke-linejoin:miter;stroke-width:0.5;"/>
   </g>
   <g id="patch_35">
    <path clip-path="url(#pebe5ef5430)" d="M 262.242045 265.775 
L 268.202841 265.775 
L 268.202841 153.992443 
L 262.242045 153.992443 
z
" style="fill:#7570b3;opacity:0.6;stroke:#000000;stroke-linejoin:miter;stroke-width:0.5;"/>
   </g>
   <g id="patch_36">
    <path clip-path="url(#pebe5ef5430)" d="M 268.202841 265.775 
L 274.163636 265.775 
L 274.163636 180.213043 
L 268.202841 180.213043 
z
" style="fill:#7570b3;opacity:0.6;stroke:#000000;stroke-linejoin:miter;stroke-width:0.5;"/>
   </g>
   <g id="patch_37">
    <path clip-path="url(#pebe5ef5430)" d="M 274.163636 265.775 
L 280.124432 265.775 
L 280.124432 198.153453 
L 274.163636 198.153453 
z
" style="fill:#7570b3;opacity:0.6;stroke:#000000;stroke-linejoin:miter;stroke-width:0.5;"/>
   </g>
   <g id="patch_38">
    <path clip-path="url(#pebe5ef5430)" d="M 280.124432 265.775 
L 286.085227 265.775 
L 286.085227 228.514148 
L 280.124432 228.514148 
z
" style="fill:#7570b3;opacity:0.6;stroke:#000000;stroke-linejoin:miter;stroke-width:0.5;"/>
   </g>
   <g id="patch_39">
    <path clip-path="url(#pebe5ef5430)" d="M 286.085227 265.775 
L 292.046023 265.775 
L 292.046023 238.174369 
L 286.085227 238.174369 
z
" style="fill:#7570b3;opacity:0.6;stroke:#000000;stroke-linejoin:miter;stroke-width:0.5;"/>
   </g>
   <g id="patch_40">
    <path clip-path="url(#pebe5ef5430)" d="M 292.046023 265.775 
L 298.006818 265.775 
L 298.006818 257.494811 
L 292.046023 257.494811 
z
" style="fill:#7570b3;opacity:0.6;stroke:#000000;stroke-linejoin:miter;stroke-width:0.5;"/>
   </g>
   <g id="patch_41">
    <path clip-path="url(#pebe5ef5430)" d="M 298.006818 265.775 
L 303.967614 265.775 
L 303.967614 260.254874 
L 298.006818 260.254874 
z
" style="fill:#7570b3;opacity:0.6;stroke:#000000;stroke-linejoin:miter;stroke-width:0.5;"/>
   </g>
   <g id="patch_42">
    <path clip-path="url(#pebe5ef5430)" d="M 303.967614 265.775 
L 309.928409 265.775 
L 309.928409 265.775 
L 303.967614 265.775 
z
" style="fill:#7570b3;opacity:0.6;stroke:#000000;stroke-linejoin:miter;stroke-width:0.5;"/>
   </g>
   <g id="matplotlib.axis_1">
    <g id="xtick_1">
     <g id="line2d_1">
      <defs>
       <path d="M 0 0 
L 0 3.5 
" id="mee43384430" style="stroke:#000000;stroke-width:1.6;"/>
      </defs>
      <g>
       <use style="stroke:#000000;stroke-width:1.6;" x="71.496591" xlink:href="#mee43384430" y="265.775"/>
      </g>
     </g>
     <g id="text_1">
      <!-- 0.0 -->
      <defs>
       <path d="M 31.78125 66.40625 
Q 24.171875 66.40625 20.328125 58.90625 
Q 16.5 51.421875 16.5 36.375 
Q 16.5 21.390625 20.328125 13.890625 
Q 24.171875 6.390625 31.78125 6.390625 
Q 39.453125 6.390625 43.28125 13.890625 
Q 47.125 21.390625 47.125 36.375 
Q 47.125 51.421875 43.28125 58.90625 
Q 39.453125 66.40625 31.78125 66.40625 
z
M 31.78125 74.21875 
Q 44.046875 74.21875 50.515625 64.515625 
Q 56.984375 54.828125 56.984375 36.375 
Q 56.984375 17.96875 50.515625 8.265625 
Q 44.046875 -1.421875 31.78125 -1.421875 
Q 19.53125 -1.421875 13.0625 8.265625 
Q 6.59375 17.96875 6.59375 36.375 
Q 6.59375 54.828125 13.0625 64.515625 
Q 19.53125 74.21875 31.78125 74.21875 
z
" id="DejaVuSans-48"/>
       <path d="M 10.6875 12.40625 
L 21 12.40625 
L 21 0 
L 10.6875 0 
z
" id="DejaVuSans-46"/>
      </defs>
      <g transform="translate(55.593466 295.671875)scale(0.2 -0.2)">
       <use xlink:href="#DejaVuSans-48"/>
       <use x="63.623047" xlink:href="#DejaVuSans-46"/>
       <use x="95.410156" xlink:href="#DejaVuSans-48"/>
      </g>
     </g>
    </g>
    <g id="xtick_2">
     <g id="line2d_2">
      <g>
       <use style="stroke:#000000;stroke-width:1.6;" x="139.619968" xlink:href="#mee43384430" y="265.775"/>
      </g>
     </g>
     <g id="text_2">
      <!-- 0.2 -->
      <defs>
       <path d="M 19.1875 8.296875 
L 53.609375 8.296875 
L 53.609375 0 
L 7.328125 0 
L 7.328125 8.296875 
Q 12.9375 14.109375 22.625 23.890625 
Q 32.328125 33.6875 34.8125 36.53125 
Q 39.546875 41.84375 41.421875 45.53125 
Q 43.3125 49.21875 43.3125 52.78125 
Q 43.3125 58.59375 39.234375 62.25 
Q 35.15625 65.921875 28.609375 65.921875 
Q 23.96875 65.921875 18.8125 64.3125 
Q 13.671875 62.703125 7.8125 59.421875 
L 7.8125 69.390625 
Q 13.765625 71.78125 18.9375 73 
Q 24.125 74.21875 28.421875 74.21875 
Q 39.75 74.21875 46.484375 68.546875 
Q 53.21875 62.890625 53.21875 53.421875 
Q 53.21875 48.921875 51.53125 44.890625 
Q 49.859375 40.875 45.40625 35.40625 
Q 44.1875 33.984375 37.640625 27.21875 
Q 31.109375 20.453125 19.1875 8.296875 
z
" id="DejaVuSans-50"/>
      </defs>
      <g transform="translate(123.716843 295.671875)scale(0.2 -0.2)">
       <use xlink:href="#DejaVuSans-48"/>
       <use x="63.623047" xlink:href="#DejaVuSans-46"/>
       <use x="95.410156" xlink:href="#DejaVuSans-50"/>
      </g>
     </g>
    </g>
    <g id="xtick_3">
     <g id="line2d_3">
      <g>
       <use style="stroke:#000000;stroke-width:1.6;" x="207.743344" xlink:href="#mee43384430" y="265.775"/>
      </g>
     </g>
     <g id="text_3">
      <!-- 0.4 -->
      <defs>
       <path d="M 37.796875 64.3125 
L 12.890625 25.390625 
L 37.796875 25.390625 
z
M 35.203125 72.90625 
L 47.609375 72.90625 
L 47.609375 25.390625 
L 58.015625 25.390625 
L 58.015625 17.1875 
L 47.609375 17.1875 
L 47.609375 0 
L 37.796875 0 
L 37.796875 17.1875 
L 4.890625 17.1875 
L 4.890625 26.703125 
z
" id="DejaVuSans-52"/>
      </defs>
      <g transform="translate(191.840219 295.671875)scale(0.2 -0.2)">
       <use xlink:href="#DejaVuSans-48"/>
       <use x="63.623047" xlink:href="#DejaVuSans-46"/>
       <use x="95.410156" xlink:href="#DejaVuSans-52"/>
      </g>
     </g>
    </g>
    <g id="xtick_4">
     <g id="line2d_4">
      <g>
       <use style="stroke:#000000;stroke-width:1.6;" x="275.866721" xlink:href="#mee43384430" y="265.775"/>
      </g>
     </g>
     <g id="text_4">
      <!-- 0.6 -->
      <defs>
       <path d="M 33.015625 40.375 
Q 26.375 40.375 22.484375 35.828125 
Q 18.609375 31.296875 18.609375 23.390625 
Q 18.609375 15.53125 22.484375 10.953125 
Q 26.375 6.390625 33.015625 6.390625 
Q 39.65625 6.390625 43.53125 10.953125 
Q 47.40625 15.53125 47.40625 23.390625 
Q 47.40625 31.296875 43.53125 35.828125 
Q 39.65625 40.375 33.015625 40.375 
z
M 52.59375 71.296875 
L 52.59375 62.3125 
Q 48.875 64.0625 45.09375 64.984375 
Q 41.3125 65.921875 37.59375 65.921875 
Q 27.828125 65.921875 22.671875 59.328125 
Q 17.53125 52.734375 16.796875 39.40625 
Q 19.671875 43.65625 24.015625 45.921875 
Q 28.375 48.1875 33.59375 48.1875 
Q 44.578125 48.1875 50.953125 41.515625 
Q 57.328125 34.859375 57.328125 23.390625 
Q 57.328125 12.15625 50.6875 5.359375 
Q 44.046875 -1.421875 33.015625 -1.421875 
Q 20.359375 -1.421875 13.671875 8.265625 
Q 6.984375 17.96875 6.984375 36.375 
Q 6.984375 53.65625 15.1875 63.9375 
Q 23.390625 74.21875 37.203125 74.21875 
Q 40.921875 74.21875 44.703125 73.484375 
Q 48.484375 72.75 52.59375 71.296875 
z
" id="DejaVuSans-54"/>
      </defs>
      <g transform="translate(259.963596 295.671875)scale(0.2 -0.2)">
       <use xlink:href="#DejaVuSans-48"/>
       <use x="63.623047" xlink:href="#DejaVuSans-46"/>
       <use x="95.410156" xlink:href="#DejaVuSans-54"/>
      </g>
     </g>
    </g>
    <g id="text_5">
     <!-- Max JS Divergence within $\epsilon$ -->
     <defs>
      <path d="M 9.8125 72.90625 
L 24.515625 72.90625 
L 43.109375 23.296875 
L 61.8125 72.90625 
L 76.515625 72.90625 
L 76.515625 0 
L 66.890625 0 
L 66.890625 64.015625 
L 48.09375 14.015625 
L 38.1875 14.015625 
L 19.390625 64.015625 
L 19.390625 0 
L 9.8125 0 
z
" id="DejaVuSans-77"/>
      <path d="M 34.28125 27.484375 
Q 23.390625 27.484375 19.1875 25 
Q 14.984375 22.515625 14.984375 16.5 
Q 14.984375 11.71875 18.140625 8.90625 
Q 21.296875 6.109375 26.703125 6.109375 
Q 34.1875 6.109375 38.703125 11.40625 
Q 43.21875 16.703125 43.21875 25.484375 
L 43.21875 27.484375 
z
M 52.203125 31.203125 
L 52.203125 0 
L 43.21875 0 
L 43.21875 8.296875 
Q 40.140625 3.328125 35.546875 0.953125 
Q 30.953125 -1.421875 24.3125 -1.421875 
Q 15.921875 -1.421875 10.953125 3.296875 
Q 6 8.015625 6 15.921875 
Q 6 25.140625 12.171875 29.828125 
Q 18.359375 34.515625 30.609375 34.515625 
L 43.21875 34.515625 
L 43.21875 35.40625 
Q 43.21875 41.609375 39.140625 45 
Q 35.0625 48.390625 27.6875 48.390625 
Q 23 48.390625 18.546875 47.265625 
Q 14.109375 46.140625 10.015625 43.890625 
L 10.015625 52.203125 
Q 14.9375 54.109375 19.578125 55.046875 
Q 24.21875 56 28.609375 56 
Q 40.484375 56 46.34375 49.84375 
Q 52.203125 43.703125 52.203125 31.203125 
z
" id="DejaVuSans-97"/>
      <path d="M 54.890625 54.6875 
L 35.109375 28.078125 
L 55.90625 0 
L 45.3125 0 
L 29.390625 21.484375 
L 13.484375 0 
L 2.875 0 
L 24.125 28.609375 
L 4.6875 54.6875 
L 15.28125 54.6875 
L 29.78125 35.203125 
L 44.28125 54.6875 
z
" id="DejaVuSans-120"/>
      <path id="DejaVuSans-32"/>
      <path d="M 9.8125 72.90625 
L 19.671875 72.90625 
L 19.671875 5.078125 
Q 19.671875 -8.109375 14.671875 -14.0625 
Q 9.671875 -20.015625 -1.421875 -20.015625 
L -5.171875 -20.015625 
L -5.171875 -11.71875 
L -2.09375 -11.71875 
Q 4.4375 -11.71875 7.125 -8.046875 
Q 9.8125 -4.390625 9.8125 5.078125 
z
" id="DejaVuSans-74"/>
      <path d="M 53.515625 70.515625 
L 53.515625 60.890625 
Q 47.90625 63.578125 42.921875 64.890625 
Q 37.9375 66.21875 33.296875 66.21875 
Q 25.25 66.21875 20.875 63.09375 
Q 16.5 59.96875 16.5 54.203125 
Q 16.5 49.359375 19.40625 46.890625 
Q 22.3125 44.4375 30.421875 42.921875 
L 36.375 41.703125 
Q 47.40625 39.59375 52.65625 34.296875 
Q 57.90625 29 57.90625 20.125 
Q 57.90625 9.515625 50.796875 4.046875 
Q 43.703125 -1.421875 29.984375 -1.421875 
Q 24.8125 -1.421875 18.96875 -0.25 
Q 13.140625 0.921875 6.890625 3.21875 
L 6.890625 13.375 
Q 12.890625 10.015625 18.65625 8.296875 
Q 24.421875 6.59375 29.984375 6.59375 
Q 38.421875 6.59375 43.015625 9.90625 
Q 47.609375 13.234375 47.609375 19.390625 
Q 47.609375 24.75 44.3125 27.78125 
Q 41.015625 30.8125 33.5 32.328125 
L 27.484375 33.5 
Q 16.453125 35.6875 11.515625 40.375 
Q 6.59375 45.0625 6.59375 53.421875 
Q 6.59375 63.09375 13.40625 68.65625 
Q 20.21875 74.21875 32.171875 74.21875 
Q 37.3125 74.21875 42.625 73.28125 
Q 47.953125 72.359375 53.515625 70.515625 
z
" id="DejaVuSans-83"/>
      <path d="M 19.671875 64.796875 
L 19.671875 8.109375 
L 31.59375 8.109375 
Q 46.6875 8.109375 53.6875 14.9375 
Q 60.6875 21.78125 60.6875 36.53125 
Q 60.6875 51.171875 53.6875 57.984375 
Q 46.6875 64.796875 31.59375 64.796875 
z
M 9.8125 72.90625 
L 30.078125 72.90625 
Q 51.265625 72.90625 61.171875 64.09375 
Q 71.09375 55.28125 71.09375 36.53125 
Q 71.09375 17.671875 61.125 8.828125 
Q 51.171875 0 30.078125 0 
L 9.8125 0 
z
" id="DejaVuSans-68"/>
      <path d="M 9.421875 54.6875 
L 18.40625 54.6875 
L 18.40625 0 
L 9.421875 0 
z
M 9.421875 75.984375 
L 18.40625 75.984375 
L 18.40625 64.59375 
L 9.421875 64.59375 
z
" id="DejaVuSans-105"/>
      <path d="M 2.984375 54.6875 
L 12.5 54.6875 
L 29.59375 8.796875 
L 46.6875 54.6875 
L 56.203125 54.6875 
L 35.6875 0 
L 23.484375 0 
z
" id="DejaVuSans-118"/>
      <path d="M 56.203125 29.59375 
L 56.203125 25.203125 
L 14.890625 25.203125 
Q 15.484375 15.921875 20.484375 11.0625 
Q 25.484375 6.203125 34.421875 6.203125 
Q 39.59375 6.203125 44.453125 7.46875 
Q 49.3125 8.734375 54.109375 11.28125 
L 54.109375 2.78125 
Q 49.265625 0.734375 44.1875 -0.34375 
Q 39.109375 -1.421875 33.890625 -1.421875 
Q 20.796875 -1.421875 13.15625 6.1875 
Q 5.515625 13.8125 5.515625 26.8125 
Q 5.515625 40.234375 12.765625 48.109375 
Q 20.015625 56 32.328125 56 
Q 43.359375 56 49.78125 48.890625 
Q 56.203125 41.796875 56.203125 29.59375 
z
M 47.21875 32.234375 
Q 47.125 39.59375 43.09375 43.984375 
Q 39.0625 48.390625 32.421875 48.390625 
Q 24.90625 48.390625 20.390625 44.140625 
Q 15.875 39.890625 15.1875 32.171875 
z
" id="DejaVuSans-101"/>
      <path d="M 41.109375 46.296875 
Q 39.59375 47.171875 37.8125 47.578125 
Q 36.03125 48 33.890625 48 
Q 26.265625 48 22.1875 43.046875 
Q 18.109375 38.09375 18.109375 28.8125 
L 18.109375 0 
L 9.078125 0 
L 9.078125 54.6875 
L 18.109375 54.6875 
L 18.109375 46.1875 
Q 20.953125 51.171875 25.484375 53.578125 
Q 30.03125 56 36.53125 56 
Q 37.453125 56 38.578125 55.875 
Q 39.703125 55.765625 41.0625 55.515625 
z
" id="DejaVuSans-114"/>
      <path d="M 45.40625 27.984375 
Q 45.40625 37.75 41.375 43.109375 
Q 37.359375 48.484375 30.078125 48.484375 
Q 22.859375 48.484375 18.828125 43.109375 
Q 14.796875 37.75 14.796875 27.984375 
Q 14.796875 18.265625 18.828125 12.890625 
Q 22.859375 7.515625 30.078125 7.515625 
Q 37.359375 7.515625 41.375 12.890625 
Q 45.40625 18.265625 45.40625 27.984375 
z
M 54.390625 6.78125 
Q 54.390625 -7.171875 48.1875 -13.984375 
Q 42 -20.796875 29.203125 -20.796875 
Q 24.46875 -20.796875 20.265625 -20.09375 
Q 16.0625 -19.390625 12.109375 -17.921875 
L 12.109375 -9.1875 
Q 16.0625 -11.328125 19.921875 -12.34375 
Q 23.78125 -13.375 27.78125 -13.375 
Q 36.625 -13.375 41.015625 -8.765625 
Q 45.40625 -4.15625 45.40625 5.171875 
L 45.40625 9.625 
Q 42.625 4.78125 38.28125 2.390625 
Q 33.9375 0 27.875 0 
Q 17.828125 0 11.671875 7.65625 
Q 5.515625 15.328125 5.515625 27.984375 
Q 5.515625 40.671875 11.671875 48.328125 
Q 17.828125 56 27.875 56 
Q 33.9375 56 38.28125 53.609375 
Q 42.625 51.21875 45.40625 46.390625 
L 45.40625 54.6875 
L 54.390625 54.6875 
z
" id="DejaVuSans-103"/>
      <path d="M 54.890625 33.015625 
L 54.890625 0 
L 45.90625 0 
L 45.90625 32.71875 
Q 45.90625 40.484375 42.875 44.328125 
Q 39.84375 48.1875 33.796875 48.1875 
Q 26.515625 48.1875 22.3125 43.546875 
Q 18.109375 38.921875 18.109375 30.90625 
L 18.109375 0 
L 9.078125 0 
L 9.078125 54.6875 
L 18.109375 54.6875 
L 18.109375 46.1875 
Q 21.34375 51.125 25.703125 53.5625 
Q 30.078125 56 35.796875 56 
Q 45.21875 56 50.046875 50.171875 
Q 54.890625 44.34375 54.890625 33.015625 
z
" id="DejaVuSans-110"/>
      <path d="M 48.78125 52.59375 
L 48.78125 44.1875 
Q 44.96875 46.296875 41.140625 47.34375 
Q 37.3125 48.390625 33.40625 48.390625 
Q 24.65625 48.390625 19.8125 42.84375 
Q 14.984375 37.3125 14.984375 27.296875 
Q 14.984375 17.28125 19.8125 11.734375 
Q 24.65625 6.203125 33.40625 6.203125 
Q 37.3125 6.203125 41.140625 7.25 
Q 44.96875 8.296875 48.78125 10.40625 
L 48.78125 2.09375 
Q 45.015625 0.34375 40.984375 -0.53125 
Q 36.96875 -1.421875 32.421875 -1.421875 
Q 20.0625 -1.421875 12.78125 6.34375 
Q 5.515625 14.109375 5.515625 27.296875 
Q 5.515625 40.671875 12.859375 48.328125 
Q 20.21875 56 33.015625 56 
Q 37.15625 56 41.109375 55.140625 
Q 45.0625 54.296875 48.78125 52.59375 
z
" id="DejaVuSans-99"/>
      <path d="M 4.203125 54.6875 
L 13.1875 54.6875 
L 24.421875 12.015625 
L 35.59375 54.6875 
L 46.1875 54.6875 
L 57.421875 12.015625 
L 68.609375 54.6875 
L 77.59375 54.6875 
L 63.28125 0 
L 52.6875 0 
L 40.921875 44.828125 
L 29.109375 0 
L 18.5 0 
z
" id="DejaVuSans-119"/>
      <path d="M 18.3125 70.21875 
L 18.3125 54.6875 
L 36.8125 54.6875 
L 36.8125 47.703125 
L 18.3125 47.703125 
L 18.3125 18.015625 
Q 18.3125 11.328125 20.140625 9.421875 
Q 21.96875 7.515625 27.59375 7.515625 
L 36.8125 7.515625 
L 36.8125 0 
L 27.59375 0 
Q 17.1875 0 13.234375 3.875 
Q 9.28125 7.765625 9.28125 18.015625 
L 9.28125 47.703125 
L 2.6875 47.703125 
L 2.6875 54.6875 
L 9.28125 54.6875 
L 9.28125 70.21875 
z
" id="DejaVuSans-116"/>
      <path d="M 54.890625 33.015625 
L 54.890625 0 
L 45.90625 0 
L 45.90625 32.71875 
Q 45.90625 40.484375 42.875 44.328125 
Q 39.84375 48.1875 33.796875 48.1875 
Q 26.515625 48.1875 22.3125 43.546875 
Q 18.109375 38.921875 18.109375 30.90625 
L 18.109375 0 
L 9.078125 0 
L 9.078125 75.984375 
L 18.109375 75.984375 
L 18.109375 46.1875 
Q 21.34375 51.125 25.703125 53.5625 
Q 30.078125 56 35.796875 56 
Q 45.21875 56 50.046875 50.171875 
Q 54.890625 44.34375 54.890625 33.015625 
z
" id="DejaVuSans-104"/>
      <path d="M 19.734375 29.5 
Q 14.453125 30.671875 12.15625 33.84375 
Q 10.453125 36.078125 10.453125 39.109375 
Q 10.453125 47.40625 18.359375 52.25 
Q 24.609375 56.0625 34.1875 56.0625 
Q 37.890625 56.0625 41.9375 55.46875 
Q 46 54.890625 50.53125 53.71875 
L 48.96875 45.5625 
Q 44.484375 46.96875 40.71875 47.609375 
Q 36.859375 48.25 33.40625 48.25 
Q 27.59375 48.25 23.78125 46 
Q 19.1875 43.3125 19.1875 39.40625 
Q 19.1875 36.8125 21.578125 35.015625 
Q 24.421875 32.859375 30.078125 32.859375 
L 37.640625 32.859375 
L 36.234375 25.4375 
L 29 25.4375 
Q 22.265625 25.4375 18.3125 22.953125 
Q 12.9375 19.578125 12.9375 14.3125 
Q 12.9375 10.984375 15.828125 8.796875 
Q 19.4375 6.0625 26.8125 6.0625 
Q 31.34375 6.0625 35.6875 6.9375 
Q 40.046875 7.859375 43.84375 9.671875 
L 42.1875 1.3125 
Q 37.546875 -0.046875 33.296875 -0.734375 
Q 29.046875 -1.421875 25.140625 -1.421875 
Q 13.53125 -1.421875 8.0625 3.03125 
Q 3.90625 6.453125 3.90625 12.203125 
Q 3.90625 19.96875 9.375 24.75 
Q 13.421875 28.328125 19.734375 29.5 
z
" id="DejaVuSans-Oblique-949"/>
     </defs>
     <g transform="translate(55.1125 319.03125)scale(0.2 -0.2)">
      <use transform="translate(0 0.015625)" xlink:href="#DejaVuSans-77"/>
      <use transform="translate(86.279297 0.015625)" xlink:href="#DejaVuSans-97"/>
      <use transform="translate(147.558594 0.015625)" xlink:href="#DejaVuSans-120"/>
      <use transform="translate(206.738281 0.015625)" xlink:href="#DejaVuSans-32"/>
      <use transform="translate(238.525391 0.015625)" xlink:href="#DejaVuSans-74"/>
      <use transform="translate(268.017578 0.015625)" xlink:href="#DejaVuSans-83"/>
      <use transform="translate(331.494141 0.015625)" xlink:href="#DejaVuSans-32"/>
      <use transform="translate(363.28125 0.015625)" xlink:href="#DejaVuSans-68"/>
      <use transform="translate(440.283203 0.015625)" xlink:href="#DejaVuSans-105"/>
      <use transform="translate(468.066406 0.015625)" xlink:href="#DejaVuSans-118"/>
      <use transform="translate(527.246094 0.015625)" xlink:href="#DejaVuSans-101"/>
      <use transform="translate(588.769531 0.015625)" xlink:href="#DejaVuSans-114"/>
      <use transform="translate(629.882812 0.015625)" xlink:href="#DejaVuSans-103"/>
      <use transform="translate(693.359375 0.015625)" xlink:href="#DejaVuSans-101"/>
      <use transform="translate(754.882812 0.015625)" xlink:href="#DejaVuSans-110"/>
      <use transform="translate(818.261719 0.015625)" xlink:href="#DejaVuSans-99"/>
      <use transform="translate(873.242188 0.015625)" xlink:href="#DejaVuSans-101"/>
      <use transform="translate(934.765625 0.015625)" xlink:href="#DejaVuSans-32"/>
      <use transform="translate(966.552734 0.015625)" xlink:href="#DejaVuSans-119"/>
      <use transform="translate(1048.339844 0.015625)" xlink:href="#DejaVuSans-105"/>
      <use transform="translate(1076.123047 0.015625)" xlink:href="#DejaVuSans-116"/>
      <use transform="translate(1115.332031 0.015625)" xlink:href="#DejaVuSans-104"/>
      <use transform="translate(1178.710938 0.015625)" xlink:href="#DejaVuSans-105"/>
      <use transform="translate(1206.494141 0.015625)" xlink:href="#DejaVuSans-110"/>
      <use transform="translate(1269.873047 0.015625)" xlink:href="#DejaVuSans-32"/>
      <use transform="translate(1301.660156 0.015625)" xlink:href="#DejaVuSans-Oblique-949"/>
     </g>
    </g>
   </g>
   <g id="matplotlib.axis_2">
    <g id="ytick_1">
     <g id="line2d_5">
      <defs>
       <path d="M 0 0 
L -3.5 0 
" id="m662fe4317a" style="stroke:#000000;stroke-width:1.6;"/>
      </defs>
      <g>
       <use style="stroke:#000000;stroke-width:1.6;" x="59.575" xlink:href="#m662fe4317a" y="265.775"/>
      </g>
     </g>
     <g id="text_6">
      <!-- 0.00 -->
      <g transform="translate(0.34375 273.373438)scale(0.2 -0.2)">
       <use xlink:href="#DejaVuSans-48"/>
       <use x="63.623047" xlink:href="#DejaVuSans-46"/>
       <use x="95.410156" xlink:href="#DejaVuSans-48"/>
       <use x="159.033203" xlink:href="#DejaVuSans-48"/>
      </g>
     </g>
    </g>
    <g id="ytick_2">
     <g id="line2d_6">
      <g>
       <use style="stroke:#000000;stroke-width:1.6;" x="59.575" xlink:href="#m662fe4317a" y="196.773421"/>
      </g>
     </g>
     <g id="text_7">
      <!-- 0.05 -->
      <defs>
       <path d="M 10.796875 72.90625 
L 49.515625 72.90625 
L 49.515625 64.59375 
L 19.828125 64.59375 
L 19.828125 46.734375 
Q 21.96875 47.46875 24.109375 47.828125 
Q 26.265625 48.1875 28.421875 48.1875 
Q 40.625 48.1875 47.75 41.5 
Q 54.890625 34.8125 54.890625 23.390625 
Q 54.890625 11.625 47.5625 5.09375 
Q 40.234375 -1.421875 26.90625 -1.421875 
Q 22.3125 -1.421875 17.546875 -0.640625 
Q 12.796875 0.140625 7.71875 1.703125 
L 7.71875 11.625 
Q 12.109375 9.234375 16.796875 8.0625 
Q 21.484375 6.890625 26.703125 6.890625 
Q 35.15625 6.890625 40.078125 11.328125 
Q 45.015625 15.765625 45.015625 23.390625 
Q 45.015625 31 40.078125 35.4375 
Q 35.15625 39.890625 26.703125 39.890625 
Q 22.75 39.890625 18.8125 39.015625 
Q 14.890625 38.140625 10.796875 36.28125 
z
" id="DejaVuSans-53"/>
      </defs>
      <g transform="translate(0.34375 204.371859)scale(0.2 -0.2)">
       <use xlink:href="#DejaVuSans-48"/>
       <use x="63.623047" xlink:href="#DejaVuSans-46"/>
       <use x="95.410156" xlink:href="#DejaVuSans-48"/>
       <use x="159.033203" xlink:href="#DejaVuSans-53"/>
      </g>
     </g>
    </g>
    <g id="ytick_3">
     <g id="line2d_7">
      <g>
       <use style="stroke:#000000;stroke-width:1.6;" x="59.575" xlink:href="#m662fe4317a" y="127.771843"/>
      </g>
     </g>
     <g id="text_8">
      <!-- 0.10 -->
      <defs>
       <path d="M 12.40625 8.296875 
L 28.515625 8.296875 
L 28.515625 63.921875 
L 10.984375 60.40625 
L 10.984375 69.390625 
L 28.421875 72.90625 
L 38.28125 72.90625 
L 38.28125 8.296875 
L 54.390625 8.296875 
L 54.390625 0 
L 12.40625 0 
z
" id="DejaVuSans-49"/>
      </defs>
      <g transform="translate(0.34375 135.37028)scale(0.2 -0.2)">
       <use xlink:href="#DejaVuSans-48"/>
       <use x="63.623047" xlink:href="#DejaVuSans-46"/>
       <use x="95.410156" xlink:href="#DejaVuSans-49"/>
       <use x="159.033203" xlink:href="#DejaVuSans-48"/>
      </g>
     </g>
    </g>
    <g id="ytick_4">
     <g id="line2d_8">
      <g>
       <use style="stroke:#000000;stroke-width:1.6;" x="59.575" xlink:href="#m662fe4317a" y="58.770264"/>
      </g>
     </g>
     <g id="text_9">
      <!-- 0.15 -->
      <g transform="translate(0.34375 66.368702)scale(0.2 -0.2)">
       <use xlink:href="#DejaVuSans-48"/>
       <use x="63.623047" xlink:href="#DejaVuSans-46"/>
       <use x="95.410156" xlink:href="#DejaVuSans-49"/>
       <use x="159.033203" xlink:href="#DejaVuSans-53"/>
      </g>
     </g>
    </g>
   </g>
   <g id="patch_43">
    <path d="M 59.575 265.775 
L 59.575 3.5 
" style="fill:none;stroke:#000000;stroke-linecap:square;stroke-linejoin:miter;stroke-width:0.8;"/>
   </g>
   <g id="patch_44">
    <path d="M 59.575 265.775 
L 321.85 265.775 
" style="fill:none;stroke:#000000;stroke-linecap:square;stroke-linejoin:miter;stroke-width:0.8;"/>
   </g>
  </g>
  <g id="axes_2">
   <g id="patch_45">
    <path d="M 429.65 265.775 
L 691.925 265.775 
L 691.925 3.5 
L 429.65 3.5 
z
" style="fill:#ffffff;"/>
   </g>
   <g id="PolyCollection_1">
    <defs>
     <path d="M 446.744056 -280.960195 
L 446.744056 -299.421055 
L 449.101573 -299.376315 
L 451.459089 -299.1998 
L 453.816606 -298.899096 
L 456.174122 -298.486898 
L 458.531639 -297.980118 
L 460.889155 -297.398741 
L 463.246672 -296.764522 
L 465.604188 -296.099656 
L 467.961705 -295.425514 
L 470.319221 -294.761569 
L 472.676738 -294.124552 
L 475.034254 -293.527909 
L 477.391771 -292.981535 
L 479.749287 -292.491793 
L 482.106804 -292.061759 
L 484.46432 -291.691645 
L 486.821837 -291.379321 
L 489.179353 -291.120901 
L 491.53687 -290.911312 
L 493.894386 -290.744822 
L 496.251903 -290.615486 
L 498.609419 -290.517505 
L 500.966936 -290.445484 
L 503.324452 -290.394612 
L 505.681969 -290.360749 
L 508.039485 -290.340465 
L 510.397002 -290.331032 
L 512.754518 -290.330381 
L 515.112035 -290.337047 
L 517.469551 -290.350111 
L 519.827068 -290.369138 
L 522.184584 -290.394119 
L 524.542101 -290.425422 
L 526.899617 -290.46375 
L 529.257134 -290.510096 
L 531.61465 -290.565711 
L 533.972167 -290.632067 
L 536.329683 -290.710822 
L 538.6872 -290.803786 
L 541.044716 -290.912887 
L 543.402233 -291.040138 
L 545.759749 -291.187605 
L 548.117266 -291.357379 
L 550.474783 -291.551557 
L 552.832299 -291.772223 
L 555.189816 -292.021442 
L 557.547332 -292.30125 
L 559.904849 -292.613666 
L 562.262365 -292.960687 
L 564.619882 -293.344302 
L 566.977398 -293.766491 
L 569.334915 -294.229224 
L 571.692431 -294.734451 
L 574.049948 -295.284077 
L 576.407464 -295.879923 
L 578.764981 -296.523666 
L 581.122497 -297.216764 
L 583.480014 -297.960354 
L 585.83753 -298.755132 
L 588.195047 -299.601206 
L 590.552563 -300.497934 
L 592.91008 -301.443746 
L 595.267596 -302.43595 
L 597.625113 -303.470536 
L 599.982629 -304.541994 
L 602.340146 -305.64314 
L 604.697662 -306.764983 
L 607.055179 -307.896643 
L 609.412695 -309.025332 
L 611.770212 -310.136426 
L 614.127728 -311.213628 
L 616.485245 -312.239246 
L 618.842761 -313.194578 
L 621.200278 -314.060409 
L 623.557794 -314.817601 
L 625.915311 -315.44776 
L 628.272827 -315.933941 
L 630.630344 -316.261371 
L 632.98786 -316.418125 
L 635.345377 -316.395737 
L 637.702893 -316.189683 
L 640.06041 -315.799716 
L 642.417926 -315.230019 
L 644.775443 -314.489165 
L 647.13296 -313.589879 
L 649.490476 -312.548616 
L 651.847993 -311.384976 
L 654.205509 -310.120992 
L 656.563026 -308.780329 
L 658.920542 -307.387448 
L 661.278059 -305.966764 
L 663.635575 -304.54186 
L 665.993092 -303.134776 
L 668.350608 -301.765421 
L 670.708125 -300.451106 
L 673.065641 -299.206231 
L 675.423158 -298.042114 
L 677.780674 -296.966954 
L 680.138191 -295.985931 
L 680.138191 -284.395319 
L 680.138191 -284.395319 
L 677.780674 -283.414296 
L 675.423158 -282.339136 
L 673.065641 -281.175019 
L 670.708125 -279.930144 
L 668.350608 -278.615829 
L 665.993092 -277.246474 
L 663.635575 -275.83939 
L 661.278059 -274.414486 
L 658.920542 -272.993802 
L 656.563026 -271.600921 
L 654.205509 -270.260258 
L 651.847993 -268.996274 
L 649.490476 -267.832634 
L 647.13296 -266.791371 
L 644.775443 -265.892085 
L 642.417926 -265.151231 
L 640.06041 -264.581534 
L 637.702893 -264.191567 
L 635.345377 -263.985513 
L 632.98786 -263.963125 
L 630.630344 -264.119879 
L 628.272827 -264.447309 
L 625.915311 -264.93349 
L 623.557794 -265.563649 
L 621.200278 -266.320841 
L 618.842761 -267.186672 
L 616.485245 -268.142004 
L 614.127728 -269.167622 
L 611.770212 -270.244824 
L 609.412695 -271.355918 
L 607.055179 -272.484607 
L 604.697662 -273.616267 
L 602.340146 -274.73811 
L 599.982629 -275.839256 
L 597.625113 -276.910714 
L 595.267596 -277.9453 
L 592.91008 -278.937504 
L 590.552563 -279.883316 
L 588.195047 -280.780044 
L 585.83753 -281.626118 
L 583.480014 -282.420896 
L 581.122497 -283.164486 
L 578.764981 -283.857584 
L 576.407464 -284.501327 
L 574.049948 -285.097173 
L 571.692431 -285.646799 
L 569.334915 -286.152026 
L 566.977398 -286.614759 
L 564.619882 -287.036948 
L 562.262365 -287.420563 
L 559.904849 -287.767584 
L 557.547332 -288.08 
L 555.189816 -288.359808 
L 552.832299 -288.609027 
L 550.474783 -288.829693 
L 548.117266 -289.023871 
L 545.759749 -289.193645 
L 543.402233 -289.341112 
L 541.044716 -289.468363 
L 538.6872 -289.577464 
L 536.329683 -289.670428 
L 533.972167 -289.749183 
L 531.61465 -289.815539 
L 529.257134 -289.871154 
L 526.899617 -289.9175 
L 524.542101 -289.955828 
L 522.184584 -289.987131 
L 519.827068 -290.012112 
L 517.469551 -290.031139 
L 515.112035 -290.044203 
L 512.754518 -290.050869 
L 510.397002 -290.050218 
L 508.039485 -290.040785 
L 505.681969 -290.020501 
L 503.324452 -289.986638 
L 500.966936 -289.935766 
L 498.609419 -289.863745 
L 496.251903 -289.765764 
L 493.894386 -289.636428 
L 491.53687 -289.469938 
L 489.179353 -289.260349 
L 486.821837 -289.001929 
L 484.46432 -288.689605 
L 482.106804 -288.319491 
L 479.749287 -287.889457 
L 477.391771 -287.399715 
L 475.034254 -286.853341 
L 472.676738 -286.256698 
L 470.319221 -285.619681 
L 467.961705 -284.955736 
L 465.604188 -284.281594 
L 463.246672 -283.616728 
L 460.889155 -282.982509 
L 458.531639 -282.401132 
L 456.174122 -281.894352 
L 453.816606 -281.482154 
L 451.459089 -281.18145 
L 449.101573 -281.004935 
L 446.744056 -280.960195 
z
" id="mef2aaf421b" style="stroke:#575757;"/>
    </defs>
    <g clip-path="url(#p1b0a10d1bb)">
     <use style="fill:#7c78ab;stroke:#575757;" x="0" xlink:href="#mef2aaf421b" y="326.475"/>
    </g>
   </g>
   <g id="PolyCollection_2">
    <defs>
     <path d="M 446.619365 -216.499794 
L 446.619365 -232.743956 
L 449.031236 -232.736869 
L 451.443107 -232.661762 
L 453.854978 -232.521094 
L 456.266849 -232.319036 
L 458.67872 -232.0613 
L 461.090591 -231.754908 
L 463.502462 -231.407908 
L 465.914333 -231.029071 
L 468.326204 -230.627565 
L 470.738075 -230.212636 
L 473.149945 -229.793305 
L 475.561816 -229.3781 
L 477.973687 -228.974835 
L 480.385558 -228.590431 
L 482.797429 -228.230798 
L 485.2093 -227.900767 
L 487.621171 -227.604073 
L 490.033042 -227.343389 
L 492.444913 -227.120386 
L 494.856784 -226.935834 
L 497.268655 -226.789717 
L 499.680526 -226.681362 
L 502.092397 -226.609569 
L 504.504268 -226.572742 
L 506.916139 -226.569012 
L 509.32801 -226.596342 
L 511.739881 -226.652625 
L 514.151752 -226.735763 
L 516.563623 -226.843732 
L 518.975494 -226.974628 
L 521.387365 -227.126705 
L 523.799236 -227.298397 
L 526.211107 -227.488331 
L 528.622978 -227.695334 
L 531.034849 -227.91843 
L 533.44672 -228.156835 
L 535.858591 -228.409949 
L 538.270462 -228.677347 
L 540.682333 -228.958767 
L 543.094204 -229.254104 
L 545.506075 -229.5634 
L 547.917946 -229.886838 
L 550.329817 -230.224735 
L 552.741688 -230.577542 
L 555.153558 -230.945837 
L 557.565429 -231.330324 
L 559.9773 -231.731821 
L 562.389171 -232.151256 
L 564.801042 -232.58965 
L 567.212913 -233.048098 
L 569.624784 -233.527741 
L 572.036655 -234.029733 
L 574.448526 -234.555195 
L 576.860397 -235.105165 
L 579.272268 -235.680539 
L 581.684139 -236.282004 
L 584.09601 -236.909965 
L 586.507881 -237.564471 
L 588.919752 -238.245131 
L 591.331623 -238.95104 
L 593.743494 -239.680703 
L 596.155365 -240.431958 
L 598.567236 -241.201921 
L 600.979107 -241.986929 
L 603.390978 -242.782501 
L 605.802849 -243.583322 
L 608.21472 -244.383239 
L 610.626591 -245.175285 
L 613.038462 -245.951723 
L 615.450333 -246.704128 
L 617.862204 -247.423486 
L 620.274075 -248.10033 
L 622.685946 -248.724903 
L 625.097817 -249.287348 
L 627.509688 -249.777919 
L 629.921559 -250.187214 
L 632.33343 -250.50642 
L 634.7453 -250.72756 
L 637.157171 -250.84374 
L 639.569042 -250.849375 
L 641.980913 -250.740404 
L 644.392784 -250.514458 
L 646.804655 -250.171001 
L 649.216526 -249.711408 
L 651.628397 -249.139001 
L 654.040268 -248.459019 
L 656.452139 -247.678535 
L 658.86401 -246.806312 
L 661.275881 -245.852607 
L 663.687752 -244.828933 
L 666.099623 -243.747777 
L 668.511494 -242.622298 
L 670.923365 -241.466003 
L 673.335236 -240.292429 
L 675.747107 -239.114824 
L 678.158978 -237.945853 
L 680.570849 -236.797335 
L 682.98272 -235.680015 
L 685.394591 -234.603383 
L 685.394591 -214.640367 
L 685.394591 -214.640367 
L 682.98272 -213.563735 
L 680.570849 -212.446415 
L 678.158978 -211.297897 
L 675.747107 -210.128926 
L 673.335236 -208.951321 
L 670.923365 -207.777747 
L 668.511494 -206.621452 
L 666.099623 -205.495973 
L 663.687752 -204.414817 
L 661.275881 -203.391143 
L 658.86401 -202.437438 
L 656.452139 -201.565215 
L 654.040268 -200.784731 
L 651.628397 -200.104749 
L 649.216526 -199.532342 
L 646.804655 -199.072749 
L 644.392784 -198.729292 
L 641.980913 -198.503346 
L 639.569042 -198.394375 
L 637.157171 -198.40001 
L 634.7453 -198.51619 
L 632.33343 -198.73733 
L 629.921559 -199.056536 
L 627.509688 -199.465831 
L 625.097817 -199.956402 
L 622.685946 -200.518847 
L 620.274075 -201.14342 
L 617.862204 -201.820264 
L 615.450333 -202.539622 
L 613.038462 -203.292027 
L 610.626591 -204.068465 
L 608.21472 -204.860511 
L 605.802849 -205.660428 
L 603.390978 -206.461249 
L 600.979107 -207.256821 
L 598.567236 -208.041829 
L 596.155365 -208.811792 
L 593.743494 -209.563047 
L 591.331623 -210.29271 
L 588.919752 -210.998619 
L 586.507881 -211.679279 
L 584.09601 -212.333785 
L 581.684139 -212.961746 
L 579.272268 -213.563211 
L 576.860397 -214.138585 
L 574.448526 -214.688555 
L 572.036655 -215.214017 
L 569.624784 -215.716009 
L 567.212913 -216.195652 
L 564.801042 -216.6541 
L 562.389171 -217.092494 
L 559.9773 -217.511929 
L 557.565429 -217.913426 
L 555.153558 -218.297913 
L 552.741688 -218.666208 
L 550.329817 -219.019015 
L 547.917946 -219.356912 
L 545.506075 -219.68035 
L 543.094204 -219.989646 
L 540.682333 -220.284983 
L 538.270462 -220.566403 
L 535.858591 -220.833801 
L 533.44672 -221.086915 
L 531.034849 -221.32532 
L 528.622978 -221.548416 
L 526.211107 -221.755419 
L 523.799236 -221.945353 
L 521.387365 -222.117045 
L 518.975494 -222.269122 
L 516.563623 -222.400018 
L 514.151752 -222.507987 
L 511.739881 -222.591125 
L 509.32801 -222.647408 
L 506.916139 -222.674738 
L 504.504268 -222.671008 
L 502.092397 -222.634181 
L 499.680526 -222.562388 
L 497.268655 -222.454033 
L 494.856784 -222.307916 
L 492.444913 -222.123364 
L 490.033042 -221.900361 
L 487.621171 -221.639677 
L 485.2093 -221.342983 
L 482.797429 -221.012952 
L 480.385558 -220.653319 
L 477.973687 -220.268915 
L 475.561816 -219.86565 
L 473.149945 -219.450445 
L 470.738075 -219.031114 
L 468.326204 -218.616185 
L 465.914333 -218.214679 
L 463.502462 -217.835842 
L 461.090591 -217.488842 
L 458.67872 -217.18245 
L 456.266849 -216.924714 
L 453.854978 -216.722656 
L 451.443107 -216.581988 
L 449.031236 -216.506881 
L 446.619365 -216.499794 
z
" id="m0419fb55b5" style="stroke:#575757;"/>
    </defs>
    <g clip-path="url(#p1b0a10d1bb)">
     <use style="fill:#7c78ab;stroke:#575757;" x="0" xlink:href="#m0419fb55b5" y="326.475"/>
    </g>
   </g>
   <g id="PolyCollection_3">
    <defs>
     <path d="M 446.517181 -156.753631 
L 446.517181 -161.352619 
L 448.920825 -161.354401 
L 451.324468 -161.343754 
L 453.728112 -161.321261 
L 456.131756 -161.287791 
L 458.5354 -161.244484 
L 460.939043 -161.192731 
L 463.342687 -161.134149 
L 465.746331 -161.070555 
L 468.149975 -161.003922 
L 470.553618 -160.936351 
L 472.957262 -160.870025 
L 475.360906 -160.80717 
L 477.76455 -160.750012 
L 480.168193 -160.700741 
L 482.571837 -160.661471 
L 484.975481 -160.634205 
L 487.379125 -160.6208 
L 489.782768 -160.622943 
L 492.186412 -160.642125 
L 494.590056 -160.679616 
L 496.9937 -160.736458 
L 499.397343 -160.813446 
L 501.800987 -160.911127 
L 504.204631 -161.029801 
L 506.608275 -161.169525 
L 509.011918 -161.330123 
L 511.415562 -161.511208 
L 513.819206 -161.712203 
L 516.22285 -161.932371 
L 518.626493 -162.170852 
L 521.030137 -162.4267 
L 523.433781 -162.698928 
L 525.837424 -162.986556 
L 528.241068 -163.288657 
L 530.644712 -163.604402 
L 533.048356 -163.93311 
L 535.451999 -164.274284 
L 537.855643 -164.627647 
L 540.259287 -164.993163 
L 542.662931 -165.371057 
L 545.066574 -165.761812 
L 547.470218 -166.166163 
L 549.873862 -166.585071 
L 552.277506 -167.019685 
L 554.681149 -167.471291 
L 557.084793 -167.941252 
L 559.488437 -168.430932 
L 561.892081 -168.94162 
L 564.295724 -169.474446 
L 566.699368 -170.030294 
L 569.103012 -170.609722 
L 571.506656 -171.212886 
L 573.910299 -171.839469 
L 576.313943 -172.488632 
L 578.717587 -173.158969 
L 581.121231 -173.848489 
L 583.524874 -174.554606 
L 585.928518 -175.274155 
L 588.332162 -176.003426 
L 590.735806 -176.738211 
L 593.139449 -177.473867 
L 595.543093 -178.205398 
L 597.946737 -178.927541 
L 600.350381 -179.634859 
L 602.754024 -180.321841 
L 605.157668 -180.983001 
L 607.561312 -181.612973 
L 609.964956 -182.206597 
L 612.368599 -182.759001 
L 614.772243 -183.265669 
L 617.175887 -183.722499 
L 619.579531 -184.125843 
L 621.983174 -184.472538 
L 624.386818 -184.759922 
L 626.790462 -184.985839 
L 629.194106 -185.148633 
L 631.597749 -185.247131 
L 634.001393 -185.280625 
L 636.405037 -185.248845 
L 638.808681 -185.151931 
L 641.212324 -184.990406 
L 643.615968 -184.765151 
L 646.019612 -184.47738 
L 648.423256 -184.128624 
L 650.826899 -183.720718 
L 653.230543 -183.25579 
L 655.634187 -182.736257 
L 658.037831 -182.164825 
L 660.441474 -181.54449 
L 662.845118 -180.878534 
L 665.248762 -180.170531 
L 667.652406 -179.424342 
L 670.056049 -178.644101 
L 672.459693 -177.834209 
L 674.863337 -176.999305 
L 677.266981 -176.144236 
L 679.670624 -175.274022 
L 682.074268 -174.393803 
L 684.477912 -173.508788 
L 684.477912 -144.597462 
L 684.477912 -144.597462 
L 682.074268 -143.712447 
L 679.670624 -142.832228 
L 677.266981 -141.962014 
L 674.863337 -141.106945 
L 672.459693 -140.272041 
L 670.056049 -139.462149 
L 667.652406 -138.681908 
L 665.248762 -137.935719 
L 662.845118 -137.227716 
L 660.441474 -136.56176 
L 658.037831 -135.941425 
L 655.634187 -135.369993 
L 653.230543 -134.85046 
L 650.826899 -134.385532 
L 648.423256 -133.977626 
L 646.019612 -133.62887 
L 643.615968 -133.341099 
L 641.212324 -133.115844 
L 638.808681 -132.954319 
L 636.405037 -132.857405 
L 634.001393 -132.825625 
L 631.597749 -132.859119 
L 629.194106 -132.957617 
L 626.790462 -133.120411 
L 624.386818 -133.346328 
L 621.983174 -133.633712 
L 619.579531 -133.980407 
L 617.175887 -134.383751 
L 614.772243 -134.840581 
L 612.368599 -135.347249 
L 609.964956 -135.899653 
L 607.561312 -136.493277 
L 605.157668 -137.123249 
L 602.754024 -137.784409 
L 600.350381 -138.471391 
L 597.946737 -139.178709 
L 595.543093 -139.900852 
L 593.139449 -140.632383 
L 590.735806 -141.368039 
L 588.332162 -142.102824 
L 585.928518 -142.832095 
L 583.524874 -143.551644 
L 581.121231 -144.257761 
L 578.717587 -144.947281 
L 576.313943 -145.617618 
L 573.910299 -146.266781 
L 571.506656 -146.893364 
L 569.103012 -147.496528 
L 566.699368 -148.075956 
L 564.295724 -148.631804 
L 561.892081 -149.16463 
L 559.488437 -149.675318 
L 557.084793 -150.164998 
L 554.681149 -150.634959 
L 552.277506 -151.086565 
L 549.873862 -151.521179 
L 547.470218 -151.940087 
L 545.066574 -152.344438 
L 542.662931 -152.735193 
L 540.259287 -153.113087 
L 537.855643 -153.478603 
L 535.451999 -153.831966 
L 533.048356 -154.17314 
L 530.644712 -154.501848 
L 528.241068 -154.817593 
L 525.837424 -155.119694 
L 523.433781 -155.407322 
L 521.030137 -155.67955 
L 518.626493 -155.935398 
L 516.22285 -156.173879 
L 513.819206 -156.394047 
L 511.415562 -156.595042 
L 509.011918 -156.776127 
L 506.608275 -156.936725 
L 504.204631 -157.076449 
L 501.800987 -157.195123 
L 499.397343 -157.292804 
L 496.9937 -157.369792 
L 494.590056 -157.426634 
L 492.186412 -157.464125 
L 489.782768 -157.483307 
L 487.379125 -157.48545 
L 484.975481 -157.472045 
L 482.571837 -157.444779 
L 480.168193 -157.405509 
L 477.76455 -157.356238 
L 475.360906 -157.29908 
L 472.957262 -157.236225 
L 470.553618 -157.169899 
L 468.149975 -157.102328 
L 465.746331 -157.035695 
L 463.342687 -156.972101 
L 460.939043 -156.913519 
L 458.5354 -156.861766 
L 456.131756 -156.818459 
L 453.728112 -156.784989 
L 451.324468 -156.762496 
L 448.920825 -156.751849 
L 446.517181 -156.753631 
z
" id="m0320800289" style="stroke:#575757;"/>
    </defs>
    <g clip-path="url(#p1b0a10d1bb)">
     <use style="fill:#7c78ab;stroke:#575757;" x="0" xlink:href="#m0320800289" y="326.475"/>
    </g>
   </g>
   <g id="PolyCollection_4">
    <defs>
     <path d="M 545.190543 -78.051877 
L 545.190543 -108.916873 
L 546.590704 -109.058773 
L 547.990864 -109.198608 
L 549.391025 -109.336483 
L 550.791186 -109.472512 
L 552.191347 -109.606819 
L 553.591507 -109.739531 
L 554.991668 -109.870785 
L 556.391829 -110.000725 
L 557.79199 -110.129497 
L 559.19215 -110.257256 
L 560.592311 -110.384157 
L 561.992472 -110.510362 
L 563.392633 -110.636033 
L 564.792793 -110.761337 
L 566.192954 -110.886437 
L 567.593115 -111.011501 
L 568.993276 -111.136694 
L 570.393436 -111.262179 
L 571.793597 -111.388119 
L 573.193758 -111.514669 
L 574.593919 -111.641985 
L 575.99408 -111.770215 
L 577.39424 -111.899501 
L 578.794401 -112.029978 
L 580.194562 -112.161775 
L 581.594723 -112.29501 
L 582.994883 -112.429793 
L 584.395044 -112.566224 
L 585.795205 -112.704391 
L 587.195366 -112.844372 
L 588.595526 -112.98623 
L 589.995687 -113.130018 
L 591.395848 -113.275773 
L 592.796009 -113.42352 
L 594.196169 -113.573267 
L 595.59633 -113.725009 
L 596.996491 -113.878724 
L 598.396652 -114.034375 
L 599.796812 -114.191908 
L 601.196973 -114.351254 
L 602.597134 -114.512326 
L 603.997295 -114.675023 
L 605.397455 -114.839224 
L 606.797616 -115.004794 
L 608.197777 -115.17158 
L 609.597938 -115.339415 
L 610.998098 -115.508113 
L 612.398259 -115.677475 
L 613.79842 -115.847285 
L 615.198581 -116.017314 
L 616.598741 -116.187315 
L 617.998902 -116.357032 
L 619.399063 -116.526193 
L 620.799224 -116.694514 
L 622.199384 -116.8617 
L 623.599545 -117.027444 
L 624.999706 -117.191431 
L 626.399867 -117.353334 
L 627.800027 -117.512821 
L 629.200188 -117.66955 
L 630.600349 -117.823175 
L 632.00051 -117.973343 
L 633.40067 -118.1197 
L 634.800831 -118.261886 
L 636.200992 -118.399541 
L 637.601153 -118.532302 
L 639.001313 -118.659811 
L 640.401474 -118.781708 
L 641.801635 -118.897636 
L 643.201796 -119.007244 
L 644.601956 -119.110185 
L 646.002117 -119.206119 
L 647.402278 -119.294712 
L 648.802439 -119.375641 
L 650.202599 -119.44859 
L 651.60276 -119.513255 
L 653.002921 -119.569345 
L 654.403082 -119.616579 
L 655.803243 -119.654693 
L 657.203403 -119.683434 
L 658.603564 -119.702568 
L 660.003725 -119.711875 
L 661.403886 -119.711152 
L 662.804046 -119.700215 
L 664.204207 -119.678898 
L 665.604368 -119.647053 
L 667.004529 -119.604552 
L 668.404689 -119.551287 
L 669.80485 -119.487171 
L 671.205011 -119.412136 
L 672.605172 -119.326136 
L 674.005332 -119.229147 
L 675.405493 -119.121163 
L 676.805654 -119.002202 
L 678.205815 -118.872303 
L 679.605975 -118.731524 
L 681.006136 -118.579946 
L 682.406297 -118.417671 
L 683.806458 -118.244818 
L 683.806458 -68.723932 
L 683.806458 -68.723932 
L 682.406297 -68.551079 
L 681.006136 -68.388804 
L 679.605975 -68.237226 
L 678.205815 -68.096447 
L 676.805654 -67.966548 
L 675.405493 -67.847587 
L 674.005332 -67.739603 
L 672.605172 -67.642614 
L 671.205011 -67.556614 
L 669.80485 -67.481579 
L 668.404689 -67.417463 
L 667.004529 -67.364198 
L 665.604368 -67.321697 
L 664.204207 -67.289852 
L 662.804046 -67.268535 
L 661.403886 -67.257598 
L 660.003725 -67.256875 
L 658.603564 -67.266182 
L 657.203403 -67.285316 
L 655.803243 -67.314057 
L 654.403082 -67.352171 
L 653.002921 -67.399405 
L 651.60276 -67.455495 
L 650.202599 -67.52016 
L 648.802439 -67.593109 
L 647.402278 -67.674038 
L 646.002117 -67.762631 
L 644.601956 -67.858565 
L 643.201796 -67.961506 
L 641.801635 -68.071114 
L 640.401474 -68.187042 
L 639.001313 -68.308939 
L 637.601153 -68.436448 
L 636.200992 -68.569209 
L 634.800831 -68.706864 
L 633.40067 -68.84905 
L 632.00051 -68.995407 
L 630.600349 -69.145575 
L 629.200188 -69.2992 
L 627.800027 -69.455929 
L 626.399867 -69.615416 
L 624.999706 -69.777319 
L 623.599545 -69.941306 
L 622.199384 -70.10705 
L 620.799224 -70.274236 
L 619.399063 -70.442557 
L 617.998902 -70.611718 
L 616.598741 -70.781435 
L 615.198581 -70.951436 
L 613.79842 -71.121465 
L 612.398259 -71.291275 
L 610.998098 -71.460637 
L 609.597938 -71.629335 
L 608.197777 -71.79717 
L 606.797616 -71.963956 
L 605.397455 -72.129526 
L 603.997295 -72.293727 
L 602.597134 -72.456424 
L 601.196973 -72.617496 
L 599.796812 -72.776842 
L 598.396652 -72.934375 
L 596.996491 -73.090026 
L 595.59633 -73.243741 
L 594.196169 -73.395483 
L 592.796009 -73.54523 
L 591.395848 -73.692977 
L 589.995687 -73.838732 
L 588.595526 -73.98252 
L 587.195366 -74.124378 
L 585.795205 -74.264359 
L 584.395044 -74.402526 
L 582.994883 -74.538957 
L 581.594723 -74.67374 
L 580.194562 -74.806975 
L 578.794401 -74.938772 
L 577.39424 -75.069249 
L 575.99408 -75.198535 
L 574.593919 -75.326765 
L 573.193758 -75.454081 
L 571.793597 -75.580631 
L 570.393436 -75.706571 
L 568.993276 -75.832056 
L 567.593115 -75.957249 
L 566.192954 -76.082313 
L 564.792793 -76.207413 
L 563.392633 -76.332717 
L 561.992472 -76.458388 
L 560.592311 -76.584593 
L 559.19215 -76.711494 
L 557.79199 -76.839253 
L 556.391829 -76.968025 
L 554.991668 -77.097965 
L 553.591507 -77.229219 
L 552.191347 -77.361931 
L 550.791186 -77.496238 
L 549.391025 -77.632267 
L 547.990864 -77.770142 
L 546.590704 -77.909977 
L 545.190543 -78.051877 
z
" id="mcd2c78cabb" style="stroke:#575757;"/>
    </defs>
    <g clip-path="url(#p1b0a10d1bb)">
     <use style="fill:#7c78ab;stroke:#575757;" x="0" xlink:href="#mcd2c78cabb" y="326.475"/>
    </g>
   </g>
   <g id="patch_46">
    <path clip-path="url(#p1b0a10d1bb)" d="M 447.135 36.284375 
L 447.135 36.284375 
L 447.135 36.284375 
L 447.135 36.284375 
z
" style="fill:#7c78ab;stroke:#575757;stroke-linejoin:miter;stroke-width:0.5;"/>
   </g>
   <g id="matplotlib.axis_3">
    <g id="xtick_5">
     <g id="line2d_9">
      <g>
       <use style="stroke:#000000;stroke-width:1.6;" x="447.135" xlink:href="#mee43384430" y="265.775"/>
      </g>
     </g>
     <g id="text_10">
      <!-- 0.0 -->
      <g transform="translate(431.231875 295.671875)scale(0.2 -0.2)">
       <use xlink:href="#DejaVuSans-48"/>
       <use x="63.623047" xlink:href="#DejaVuSans-46"/>
       <use x="95.410156" xlink:href="#DejaVuSans-48"/>
      </g>
     </g>
    </g>
    <g id="xtick_6">
     <g id="line2d_10">
      <g>
       <use style="stroke:#000000;stroke-width:1.6;" x="517.075" xlink:href="#mee43384430" y="265.775"/>
      </g>
     </g>
     <g id="text_11">
      <!-- 0.2 -->
      <g transform="translate(501.171875 295.671875)scale(0.2 -0.2)">
       <use xlink:href="#DejaVuSans-48"/>
       <use x="63.623047" xlink:href="#DejaVuSans-46"/>
       <use x="95.410156" xlink:href="#DejaVuSans-50"/>
      </g>
     </g>
    </g>
    <g id="xtick_7">
     <g id="line2d_11">
      <g>
       <use style="stroke:#000000;stroke-width:1.6;" x="587.015" xlink:href="#mee43384430" y="265.775"/>
      </g>
     </g>
     <g id="text_12">
      <!-- 0.4 -->
      <g transform="translate(571.111875 295.671875)scale(0.2 -0.2)">
       <use xlink:href="#DejaVuSans-48"/>
       <use x="63.623047" xlink:href="#DejaVuSans-46"/>
       <use x="95.410156" xlink:href="#DejaVuSans-52"/>
      </g>
     </g>
    </g>
    <g id="xtick_8">
     <g id="line2d_12">
      <g>
       <use style="stroke:#000000;stroke-width:1.6;" x="656.955" xlink:href="#mee43384430" y="265.775"/>
      </g>
     </g>
     <g id="text_13">
      <!-- 0.6 -->
      <g transform="translate(641.051875 295.671875)scale(0.2 -0.2)">
       <use xlink:href="#DejaVuSans-48"/>
       <use x="63.623047" xlink:href="#DejaVuSans-46"/>
       <use x="95.410156" xlink:href="#DejaVuSans-54"/>
      </g>
     </g>
    </g>
    <g id="text_14">
     <!-- Max Attention -->
     <defs>
      <path d="M 34.1875 63.1875 
L 20.796875 26.90625 
L 47.609375 26.90625 
z
M 28.609375 72.90625 
L 39.796875 72.90625 
L 67.578125 0 
L 57.328125 0 
L 50.6875 18.703125 
L 17.828125 18.703125 
L 11.1875 0 
L 0.78125 0 
z
" id="DejaVuSans-65"/>
      <path d="M 30.609375 48.390625 
Q 23.390625 48.390625 19.1875 42.75 
Q 14.984375 37.109375 14.984375 27.296875 
Q 14.984375 17.484375 19.15625 11.84375 
Q 23.34375 6.203125 30.609375 6.203125 
Q 37.796875 6.203125 41.984375 11.859375 
Q 46.1875 17.53125 46.1875 27.296875 
Q 46.1875 37.015625 41.984375 42.703125 
Q 37.796875 48.390625 30.609375 48.390625 
z
M 30.609375 56 
Q 42.328125 56 49.015625 48.375 
Q 55.71875 40.765625 55.71875 27.296875 
Q 55.71875 13.875 49.015625 6.21875 
Q 42.328125 -1.421875 30.609375 -1.421875 
Q 18.84375 -1.421875 12.171875 6.21875 
Q 5.515625 13.875 5.515625 27.296875 
Q 5.515625 40.765625 12.171875 48.375 
Q 18.84375 56 30.609375 56 
z
" id="DejaVuSans-111"/>
     </defs>
     <g transform="translate(490.609375 319.028125)scale(0.2 -0.2)">
      <use xlink:href="#DejaVuSans-77"/>
      <use x="86.279297" xlink:href="#DejaVuSans-97"/>
      <use x="147.558594" xlink:href="#DejaVuSans-120"/>
      <use x="206.738281" xlink:href="#DejaVuSans-32"/>
      <use x="238.525391" xlink:href="#DejaVuSans-65"/>
      <use x="306.917969" xlink:href="#DejaVuSans-116"/>
      <use x="346.126953" xlink:href="#DejaVuSans-116"/>
      <use x="385.335938" xlink:href="#DejaVuSans-101"/>
      <use x="446.859375" xlink:href="#DejaVuSans-110"/>
      <use x="510.238281" xlink:href="#DejaVuSans-116"/>
      <use x="549.447266" xlink:href="#DejaVuSans-105"/>
      <use x="577.230469" xlink:href="#DejaVuSans-111"/>
      <use x="638.412109" xlink:href="#DejaVuSans-110"/>
     </g>
    </g>
   </g>
   <g id="matplotlib.axis_4">
    <g id="ytick_5">
     <g id="line2d_13">
      <g>
       <use style="stroke:#000000;stroke-width:1.6;" x="429.65" xlink:href="#m662fe4317a" y="36.284375"/>
      </g>
     </g>
     <g id="text_15">
      <!-- [0.00, -->
      <defs>
       <path d="M 8.59375 75.984375 
L 29.296875 75.984375 
L 29.296875 69 
L 17.578125 69 
L 17.578125 -6.203125 
L 29.296875 -6.203125 
L 29.296875 -13.1875 
L 8.59375 -13.1875 
z
" id="DejaVuSans-91"/>
       <path d="M 11.71875 12.40625 
L 22.015625 12.40625 
L 22.015625 4 
L 14.015625 -11.625 
L 7.71875 -11.625 
L 11.71875 4 
z
" id="DejaVuSans-44"/>
      </defs>
      <g transform="translate(356.259375 32.685)scale(0.2 -0.2)">
       <use xlink:href="#DejaVuSans-91"/>
       <use x="39.013672" xlink:href="#DejaVuSans-48"/>
       <use x="102.636719" xlink:href="#DejaVuSans-46"/>
       <use x="134.423828" xlink:href="#DejaVuSans-48"/>
       <use x="198.046875" xlink:href="#DejaVuSans-48"/>
       <use x="261.669922" xlink:href="#DejaVuSans-44"/>
      </g>
      <!-- 0.25) -->
      <defs>
       <path d="M 8.015625 75.875 
L 15.828125 75.875 
Q 23.140625 64.359375 26.78125 53.3125 
Q 30.421875 42.28125 30.421875 31.390625 
Q 30.421875 20.453125 26.78125 9.375 
Q 23.140625 -1.703125 15.828125 -13.1875 
L 8.015625 -13.1875 
Q 14.5 -2 17.703125 9.0625 
Q 20.90625 20.125 20.90625 31.390625 
Q 20.90625 42.671875 17.703125 53.65625 
Q 14.5 64.65625 8.015625 75.875 
z
" id="DejaVuSans-41"/>
      </defs>
      <g transform="translate(362.615625 55.080625)scale(0.2 -0.2)">
       <use xlink:href="#DejaVuSans-48"/>
       <use x="63.623047" xlink:href="#DejaVuSans-46"/>
       <use x="95.410156" xlink:href="#DejaVuSans-50"/>
       <use x="159.033203" xlink:href="#DejaVuSans-53"/>
       <use x="222.65625" xlink:href="#DejaVuSans-41"/>
      </g>
     </g>
    </g>
    <g id="ytick_6">
     <g id="line2d_14">
      <g>
       <use style="stroke:#000000;stroke-width:1.6;" x="429.65" xlink:href="#m662fe4317a" y="101.853125"/>
      </g>
     </g>
     <g id="text_16">
      <!-- [0.25, -->
      <g transform="translate(356.259375 98.25375)scale(0.2 -0.2)">
       <use xlink:href="#DejaVuSans-91"/>
       <use x="39.013672" xlink:href="#DejaVuSans-48"/>
       <use x="102.636719" xlink:href="#DejaVuSans-46"/>
       <use x="134.423828" xlink:href="#DejaVuSans-50"/>
       <use x="198.046875" xlink:href="#DejaVuSans-53"/>
       <use x="261.669922" xlink:href="#DejaVuSans-44"/>
      </g>
      <!-- 0.50) -->
      <g transform="translate(362.615625 120.649375)scale(0.2 -0.2)">
       <use xlink:href="#DejaVuSans-48"/>
       <use x="63.623047" xlink:href="#DejaVuSans-46"/>
       <use x="95.410156" xlink:href="#DejaVuSans-53"/>
       <use x="159.033203" xlink:href="#DejaVuSans-48"/>
       <use x="222.65625" xlink:href="#DejaVuSans-41"/>
      </g>
     </g>
    </g>
    <g id="ytick_7">
     <g id="line2d_15">
      <g>
       <use style="stroke:#000000;stroke-width:1.6;" x="429.65" xlink:href="#m662fe4317a" y="167.421875"/>
      </g>
     </g>
     <g id="text_17">
      <!-- [0.50, -->
      <g transform="translate(356.259375 163.8225)scale(0.2 -0.2)">
       <use xlink:href="#DejaVuSans-91"/>
       <use x="39.013672" xlink:href="#DejaVuSans-48"/>
       <use x="102.636719" xlink:href="#DejaVuSans-46"/>
       <use x="134.423828" xlink:href="#DejaVuSans-53"/>
       <use x="198.046875" xlink:href="#DejaVuSans-48"/>
       <use x="261.669922" xlink:href="#DejaVuSans-44"/>
      </g>
      <!-- 0.75) -->
      <defs>
       <path d="M 8.203125 72.90625 
L 55.078125 72.90625 
L 55.078125 68.703125 
L 28.609375 0 
L 18.3125 0 
L 43.21875 64.59375 
L 8.203125 64.59375 
z
" id="DejaVuSans-55"/>
      </defs>
      <g transform="translate(362.615625 186.218125)scale(0.2 -0.2)">
       <use xlink:href="#DejaVuSans-48"/>
       <use x="63.623047" xlink:href="#DejaVuSans-46"/>
       <use x="95.410156" xlink:href="#DejaVuSans-55"/>
       <use x="159.033203" xlink:href="#DejaVuSans-53"/>
       <use x="222.65625" xlink:href="#DejaVuSans-41"/>
      </g>
     </g>
    </g>
    <g id="ytick_8">
     <g id="line2d_16">
      <g>
       <use style="stroke:#000000;stroke-width:1.6;" x="429.65" xlink:href="#m662fe4317a" y="232.990625"/>
      </g>
     </g>
     <g id="text_18">
      <!-- [0.75, -->
      <g transform="translate(356.259375 229.39125)scale(0.2 -0.2)">
       <use xlink:href="#DejaVuSans-91"/>
       <use x="39.013672" xlink:href="#DejaVuSans-48"/>
       <use x="102.636719" xlink:href="#DejaVuSans-46"/>
       <use x="134.423828" xlink:href="#DejaVuSans-55"/>
       <use x="198.046875" xlink:href="#DejaVuSans-53"/>
       <use x="261.669922" xlink:href="#DejaVuSans-44"/>
      </g>
      <!-- 1.00) -->
      <g transform="translate(362.615625 251.786875)scale(0.2 -0.2)">
       <use xlink:href="#DejaVuSans-49"/>
       <use x="63.623047" xlink:href="#DejaVuSans-46"/>
       <use x="95.410156" xlink:href="#DejaVuSans-48"/>
       <use x="159.033203" xlink:href="#DejaVuSans-48"/>
       <use x="222.65625" xlink:href="#DejaVuSans-41"/>
      </g>
     </g>
    </g>
    <g id="text_19">
     <!-- Max JS Divergence within $\epsilon$ -->
     <g transform="translate(348.059375 270.2375)rotate(-90)scale(0.2 -0.2)">
      <use transform="translate(0 0.015625)" xlink:href="#DejaVuSans-77"/>
      <use transform="translate(86.279297 0.015625)" xlink:href="#DejaVuSans-97"/>
      <use transform="translate(147.558594 0.015625)" xlink:href="#DejaVuSans-120"/>
      <use transform="translate(206.738281 0.015625)" xlink:href="#DejaVuSans-32"/>
      <use transform="translate(238.525391 0.015625)" xlink:href="#DejaVuSans-74"/>
      <use transform="translate(268.017578 0.015625)" xlink:href="#DejaVuSans-83"/>
      <use transform="translate(331.494141 0.015625)" xlink:href="#DejaVuSans-32"/>
      <use transform="translate(363.28125 0.015625)" xlink:href="#DejaVuSans-68"/>
      <use transform="translate(440.283203 0.015625)" xlink:href="#DejaVuSans-105"/>
      <use transform="translate(468.066406 0.015625)" xlink:href="#DejaVuSans-118"/>
      <use transform="translate(527.246094 0.015625)" xlink:href="#DejaVuSans-101"/>
      <use transform="translate(588.769531 0.015625)" xlink:href="#DejaVuSans-114"/>
      <use transform="translate(629.882812 0.015625)" xlink:href="#DejaVuSans-103"/>
      <use transform="translate(693.359375 0.015625)" xlink:href="#DejaVuSans-101"/>
      <use transform="translate(754.882812 0.015625)" xlink:href="#DejaVuSans-110"/>
      <use transform="translate(818.261719 0.015625)" xlink:href="#DejaVuSans-99"/>
      <use transform="translate(873.242188 0.015625)" xlink:href="#DejaVuSans-101"/>
      <use transform="translate(934.765625 0.015625)" xlink:href="#DejaVuSans-32"/>
      <use transform="translate(966.552734 0.015625)" xlink:href="#DejaVuSans-119"/>
      <use transform="translate(1048.339844 0.015625)" xlink:href="#DejaVuSans-105"/>
      <use transform="translate(1076.123047 0.015625)" xlink:href="#DejaVuSans-116"/>
      <use transform="translate(1115.332031 0.015625)" xlink:href="#DejaVuSans-104"/>
      <use transform="translate(1178.710938 0.015625)" xlink:href="#DejaVuSans-105"/>
      <use transform="translate(1206.494141 0.015625)" xlink:href="#DejaVuSans-110"/>
      <use transform="translate(1269.873047 0.015625)" xlink:href="#DejaVuSans-32"/>
      <use transform="translate(1301.660156 0.015625)" xlink:href="#DejaVuSans-Oblique-949"/>
     </g>
    </g>
   </g>
   <g id="line2d_17">
    <path clip-path="url(#p1b0a10d1bb)" style="fill:none;stroke:#575757;stroke-dasharray:1.5,1.5;stroke-dashoffset:0;"/>
   </g>
   <g id="line2d_18">
    <path clip-path="url(#p1b0a10d1bb)" style="fill:none;stroke:#575757;stroke-dasharray:3,3;stroke-dashoffset:0;"/>
   </g>
   <g id="line2d_19">
    <path clip-path="url(#p1b0a10d1bb)" style="fill:none;stroke:#575757;stroke-dasharray:1.5,1.5;stroke-dashoffset:0;"/>
   </g>
   <g id="line2d_20">
    <path clip-path="url(#p1b0a10d1bb)" style="fill:none;stroke:#575757;stroke-dasharray:1.5,1.5;stroke-dashoffset:0;"/>
   </g>
   <g id="line2d_21">
    <path clip-path="url(#p1b0a10d1bb)" style="fill:none;stroke:#575757;stroke-dasharray:3,3;stroke-dashoffset:0;"/>
   </g>
   <g id="line2d_22">
    <path clip-path="url(#p1b0a10d1bb)" style="fill:none;stroke:#575757;stroke-dasharray:1.5,1.5;stroke-dashoffset:0;"/>
   </g>
   <g id="line2d_23">
    <path clip-path="url(#p1b0a10d1bb)" style="fill:none;stroke:#575757;stroke-dasharray:1.5,1.5;stroke-dashoffset:0;"/>
   </g>
   <g id="line2d_24">
    <path clip-path="url(#p1b0a10d1bb)" style="fill:none;stroke:#575757;stroke-dasharray:3,3;stroke-dashoffset:0;"/>
   </g>
   <g id="line2d_25">
    <path clip-path="url(#p1b0a10d1bb)" style="fill:none;stroke:#575757;stroke-dasharray:1.5,1.5;stroke-dashoffset:0;"/>
   </g>
   <g id="line2d_26">
    <path clip-path="url(#p1b0a10d1bb)" style="fill:none;stroke:#575757;stroke-dasharray:1.5,1.5;stroke-dashoffset:0;"/>
   </g>
   <g id="line2d_27">
    <path clip-path="url(#p1b0a10d1bb)" style="fill:none;stroke:#575757;stroke-dasharray:3,3;stroke-dashoffset:0;"/>
   </g>
   <g id="line2d_28">
    <path clip-path="url(#p1b0a10d1bb)" style="fill:none;stroke:#575757;stroke-dasharray:1.5,1.5;stroke-dashoffset:0;"/>
   </g>
   <g id="patch_47">
    <path style="fill:none;stroke:#000000;stroke-linecap:square;stroke-linejoin:miter;stroke-width:0.8;"/>
   </g>
   <g id="patch_48">
    <path style="fill:none;stroke:#000000;stroke-linecap:square;stroke-linejoin:miter;stroke-width:0.8;"/>
   </g>
  </g>
 </g>
 <defs>
  <clipPath id="pebe5ef5430">
   <rect height="262.275" width="262.275" x="59.575" y="3.5"/>
  </clipPath>
  <clipPath id="p1b0a10d1bb">
   <rect height="262.275" width="262.275" x="429.65" y="3.5"/>
  </clipPath>
 </defs>
</svg>
