<?xml version="1.0" encoding="utf-8" standalone="no"?>
<!DOCTYPE svg PUBLIC "-//W3C//DTD SVG 1.1//EN"
  "http://www.w3.org/Graphics/SVG/1.1/DTD/svg11.dtd">
<!-- Created with matplotlib (https://matplotlib.org/) -->
<svg height="322.183333pt" version="1.1" viewBox="0 0 337.66237 322.183333" width="337.66237pt" xmlns="http://www.w3.org/2000/svg" xmlns:xlink="http://www.w3.org/1999/xlink">
 <defs>
  <style type="text/css">
*{stroke-linecap:butt;stroke-linejoin:round;}
  </style>
 </defs>
 <g id="figure_1">
  <g id="patch_1">
   <path d="M 0 322.183333 
L 337.66237 322.183333 
L 337.66237 0 
L 0 0 
z
" style="fill:#ffffff;"/>
  </g>
  <g id="axes_1">
   <g id="patch_2">
    <path d="M 72.45 261.483333 
L 330.433333 261.483333 
L 330.433333 3.5 
L 72.45 3.5 
z
" style="fill:#ffffff;"/>
   </g>
   <g id="patch_3">
    <path clip-path="url(#pf0d91fe14a)" d="M 84.176515 261.483333 
L 90.039773 261.483333 
L 90.039773 253.620984 
L 84.176515 253.620984 
z
" style="fill:#7570b3;opacity:0.6;stroke:#000000;stroke-linejoin:miter;stroke-width:0.5;"/>
   </g>
   <g id="patch_4">
    <path clip-path="url(#pf0d91fe14a)" d="M 90.039773 261.483333 
L 95.90303 261.483333 
L 95.90303 261.483333 
L 90.039773 261.483333 
z
" style="fill:#7570b3;opacity:0.6;stroke:#000000;stroke-linejoin:miter;stroke-width:0.5;"/>
   </g>
   <g id="patch_5">
    <path clip-path="url(#pf0d91fe14a)" d="M 95.90303 261.483333 
L 101.766288 261.483333 
L 101.766288 259.517746 
L 95.90303 259.517746 
z
" style="fill:#7570b3;opacity:0.6;stroke:#000000;stroke-linejoin:miter;stroke-width:0.5;"/>
   </g>
   <g id="patch_6">
    <path clip-path="url(#pf0d91fe14a)" d="M 101.766288 261.483333 
L 107.629545 261.483333 
L 107.629545 251.655397 
L 101.766288 251.655397 
z
" style="fill:#7570b3;opacity:0.6;stroke:#000000;stroke-linejoin:miter;stroke-width:0.5;"/>
   </g>
   <g id="patch_7">
    <path clip-path="url(#pf0d91fe14a)" d="M 107.629545 261.483333 
L 113.492803 261.483333 
L 113.492803 257.552159 
L 107.629545 257.552159 
z
" style="fill:#7570b3;opacity:0.6;stroke:#000000;stroke-linejoin:miter;stroke-width:0.5;"/>
   </g>
   <g id="patch_8">
    <path clip-path="url(#pf0d91fe14a)" d="M 113.492803 261.483333 
L 119.356061 261.483333 
L 119.356061 251.655397 
L 113.492803 251.655397 
z
" style="fill:#7570b3;opacity:0.6;stroke:#000000;stroke-linejoin:miter;stroke-width:0.5;"/>
   </g>
   <g id="patch_9">
    <path clip-path="url(#pf0d91fe14a)" d="M 119.356061 261.483333 
L 125.219318 261.483333 
L 125.219318 251.655397 
L 119.356061 251.655397 
z
" style="fill:#7570b3;opacity:0.6;stroke:#000000;stroke-linejoin:miter;stroke-width:0.5;"/>
   </g>
   <g id="patch_10">
    <path clip-path="url(#pf0d91fe14a)" d="M 125.219318 261.483333 
L 131.082576 261.483333 
L 131.082576 243.793048 
L 125.219318 243.793048 
z
" style="fill:#7570b3;opacity:0.6;stroke:#000000;stroke-linejoin:miter;stroke-width:0.5;"/>
   </g>
   <g id="patch_11">
    <path clip-path="url(#pf0d91fe14a)" d="M 131.082576 261.483333 
L 136.945833 261.483333 
L 136.945833 253.620984 
L 131.082576 253.620984 
z
" style="fill:#7570b3;opacity:0.6;stroke:#000000;stroke-linejoin:miter;stroke-width:0.5;"/>
   </g>
   <g id="patch_12">
    <path clip-path="url(#pf0d91fe14a)" d="M 136.945833 261.483333 
L 142.809091 261.483333 
L 142.809091 251.655397 
L 136.945833 251.655397 
z
" style="fill:#7570b3;opacity:0.6;stroke:#000000;stroke-linejoin:miter;stroke-width:0.5;"/>
   </g>
   <g id="patch_13">
    <path clip-path="url(#pf0d91fe14a)" d="M 142.809091 261.483333 
L 148.672348 261.483333 
L 148.672348 257.552159 
L 142.809091 257.552159 
z
" style="fill:#7570b3;opacity:0.6;stroke:#000000;stroke-linejoin:miter;stroke-width:0.5;"/>
   </g>
   <g id="patch_14">
    <path clip-path="url(#pf0d91fe14a)" d="M 148.672348 261.483333 
L 154.535606 261.483333 
L 154.535606 251.655397 
L 148.672348 251.655397 
z
" style="fill:#7570b3;opacity:0.6;stroke:#000000;stroke-linejoin:miter;stroke-width:0.5;"/>
   </g>
   <g id="patch_15">
    <path clip-path="url(#pf0d91fe14a)" d="M 154.535606 261.483333 
L 160.398864 261.483333 
L 160.398864 249.68981 
L 154.535606 249.68981 
z
" style="fill:#7570b3;opacity:0.6;stroke:#000000;stroke-linejoin:miter;stroke-width:0.5;"/>
   </g>
   <g id="patch_16">
    <path clip-path="url(#pf0d91fe14a)" d="M 160.398864 261.483333 
L 166.262121 261.483333 
L 166.262121 247.724222 
L 160.398864 247.724222 
z
" style="fill:#7570b3;opacity:0.6;stroke:#000000;stroke-linejoin:miter;stroke-width:0.5;"/>
   </g>
   <g id="patch_17">
    <path clip-path="url(#pf0d91fe14a)" d="M 166.262121 261.483333 
L 172.125379 261.483333 
L 172.125379 249.68981 
L 166.262121 249.68981 
z
" style="fill:#7570b3;opacity:0.6;stroke:#000000;stroke-linejoin:miter;stroke-width:0.5;"/>
   </g>
   <g id="patch_18">
    <path clip-path="url(#pf0d91fe14a)" d="M 172.125379 261.483333 
L 177.988636 261.483333 
L 177.988636 245.758635 
L 172.125379 245.758635 
z
" style="fill:#7570b3;opacity:0.6;stroke:#000000;stroke-linejoin:miter;stroke-width:0.5;"/>
   </g>
   <g id="patch_19">
    <path clip-path="url(#pf0d91fe14a)" d="M 177.988636 261.483333 
L 183.851894 261.483333 
L 183.851894 243.793048 
L 177.988636 243.793048 
z
" style="fill:#7570b3;opacity:0.6;stroke:#000000;stroke-linejoin:miter;stroke-width:0.5;"/>
   </g>
   <g id="patch_20">
    <path clip-path="url(#pf0d91fe14a)" d="M 183.851894 261.483333 
L 189.715152 261.483333 
L 189.715152 243.793048 
L 183.851894 243.793048 
z
" style="fill:#7570b3;opacity:0.6;stroke:#000000;stroke-linejoin:miter;stroke-width:0.5;"/>
   </g>
   <g id="patch_21">
    <path clip-path="url(#pf0d91fe14a)" d="M 189.715152 261.483333 
L 195.578409 261.483333 
L 195.578409 247.724222 
L 189.715152 247.724222 
z
" style="fill:#7570b3;opacity:0.6;stroke:#000000;stroke-linejoin:miter;stroke-width:0.5;"/>
   </g>
   <g id="patch_22">
    <path clip-path="url(#pf0d91fe14a)" d="M 195.578409 261.483333 
L 201.441667 261.483333 
L 201.441667 235.930698 
L 195.578409 235.930698 
z
" style="fill:#7570b3;opacity:0.6;stroke:#000000;stroke-linejoin:miter;stroke-width:0.5;"/>
   </g>
   <g id="patch_23">
    <path clip-path="url(#pf0d91fe14a)" d="M 201.441667 261.483333 
L 207.304924 261.483333 
L 207.304924 239.861873 
L 201.441667 239.861873 
z
" style="fill:#7570b3;opacity:0.6;stroke:#000000;stroke-linejoin:miter;stroke-width:0.5;"/>
   </g>
   <g id="patch_24">
    <path clip-path="url(#pf0d91fe14a)" d="M 207.304924 261.483333 
L 213.168182 261.483333 
L 213.168182 231.999524 
L 207.304924 231.999524 
z
" style="fill:#7570b3;opacity:0.6;stroke:#000000;stroke-linejoin:miter;stroke-width:0.5;"/>
   </g>
   <g id="patch_25">
    <path clip-path="url(#pf0d91fe14a)" d="M 213.168182 261.483333 
L 219.031439 261.483333 
L 219.031439 247.724222 
L 213.168182 247.724222 
z
" style="fill:#7570b3;opacity:0.6;stroke:#000000;stroke-linejoin:miter;stroke-width:0.5;"/>
   </g>
   <g id="patch_26">
    <path clip-path="url(#pf0d91fe14a)" d="M 219.031439 261.483333 
L 224.894697 261.483333 
L 224.894697 224.137175 
L 219.031439 224.137175 
z
" style="fill:#7570b3;opacity:0.6;stroke:#000000;stroke-linejoin:miter;stroke-width:0.5;"/>
   </g>
   <g id="patch_27">
    <path clip-path="url(#pf0d91fe14a)" d="M 224.894697 261.483333 
L 230.757955 261.483333 
L 230.757955 220.206 
L 224.894697 220.206 
z
" style="fill:#7570b3;opacity:0.6;stroke:#000000;stroke-linejoin:miter;stroke-width:0.5;"/>
   </g>
   <g id="patch_28">
    <path clip-path="url(#pf0d91fe14a)" d="M 230.757955 261.483333 
L 236.621212 261.483333 
L 236.621212 184.825429 
L 230.757955 184.825429 
z
" style="fill:#7570b3;opacity:0.6;stroke:#000000;stroke-linejoin:miter;stroke-width:0.5;"/>
   </g>
   <g id="patch_29">
    <path clip-path="url(#pf0d91fe14a)" d="M 236.621212 261.483333 
L 242.48447 261.483333 
L 242.48447 173.031905 
L 236.621212 173.031905 
z
" style="fill:#7570b3;opacity:0.6;stroke:#000000;stroke-linejoin:miter;stroke-width:0.5;"/>
   </g>
   <g id="patch_30">
    <path clip-path="url(#pf0d91fe14a)" d="M 242.48447 261.483333 
L 248.347727 261.483333 
L 248.347727 165.169556 
L 242.48447 165.169556 
z
" style="fill:#7570b3;opacity:0.6;stroke:#000000;stroke-linejoin:miter;stroke-width:0.5;"/>
   </g>
   <g id="patch_31">
    <path clip-path="url(#pf0d91fe14a)" d="M 248.347727 261.483333 
L 254.210985 261.483333 
L 254.210985 129.788984 
L 248.347727 129.788984 
z
" style="fill:#7570b3;opacity:0.6;stroke:#000000;stroke-linejoin:miter;stroke-width:0.5;"/>
   </g>
   <g id="patch_32">
    <path clip-path="url(#pf0d91fe14a)" d="M 254.210985 261.483333 
L 260.074242 261.483333 
L 260.074242 84.580476 
L 254.210985 84.580476 
z
" style="fill:#7570b3;opacity:0.6;stroke:#000000;stroke-linejoin:miter;stroke-width:0.5;"/>
   </g>
   <g id="patch_33">
    <path clip-path="url(#pf0d91fe14a)" d="M 260.074242 261.483333 
L 265.9375 261.483333 
L 265.9375 76.718127 
L 260.074242 76.718127 
z
" style="fill:#7570b3;opacity:0.6;stroke:#000000;stroke-linejoin:miter;stroke-width:0.5;"/>
   </g>
   <g id="patch_34">
    <path clip-path="url(#pf0d91fe14a)" d="M 265.9375 261.483333 
L 271.800758 261.483333 
L 271.800758 15.784921 
L 265.9375 15.784921 
z
" style="fill:#7570b3;opacity:0.6;stroke:#000000;stroke-linejoin:miter;stroke-width:0.5;"/>
   </g>
   <g id="patch_35">
    <path clip-path="url(#pf0d91fe14a)" d="M 271.800758 261.483333 
L 277.664015 261.483333 
L 277.664015 27.578444 
L 271.800758 27.578444 
z
" style="fill:#7570b3;opacity:0.6;stroke:#000000;stroke-linejoin:miter;stroke-width:0.5;"/>
   </g>
   <g id="patch_36">
    <path clip-path="url(#pf0d91fe14a)" d="M 277.664015 261.483333 
L 283.527273 261.483333 
L 283.527273 66.89019 
L 277.664015 66.89019 
z
" style="fill:#7570b3;opacity:0.6;stroke:#000000;stroke-linejoin:miter;stroke-width:0.5;"/>
   </g>
   <g id="patch_37">
    <path clip-path="url(#pf0d91fe14a)" d="M 283.527273 261.483333 
L 289.39053 261.483333 
L 289.39053 147.47927 
L 283.527273 147.47927 
z
" style="fill:#7570b3;opacity:0.6;stroke:#000000;stroke-linejoin:miter;stroke-width:0.5;"/>
   </g>
   <g id="patch_38">
    <path clip-path="url(#pf0d91fe14a)" d="M 289.39053 261.483333 
L 295.253788 261.483333 
L 295.253788 208.412476 
L 289.39053 208.412476 
z
" style="fill:#7570b3;opacity:0.6;stroke:#000000;stroke-linejoin:miter;stroke-width:0.5;"/>
   </g>
   <g id="patch_39">
    <path clip-path="url(#pf0d91fe14a)" d="M 295.253788 261.483333 
L 301.117045 261.483333 
L 301.117045 255.586571 
L 295.253788 255.586571 
z
" style="fill:#7570b3;opacity:0.6;stroke:#000000;stroke-linejoin:miter;stroke-width:0.5;"/>
   </g>
   <g id="patch_40">
    <path clip-path="url(#pf0d91fe14a)" d="M 301.117045 261.483333 
L 306.980303 261.483333 
L 306.980303 261.483333 
L 301.117045 261.483333 
z
" style="fill:#7570b3;opacity:0.6;stroke:#000000;stroke-linejoin:miter;stroke-width:0.5;"/>
   </g>
   <g id="patch_41">
    <path clip-path="url(#pf0d91fe14a)" d="M 306.980303 261.483333 
L 312.843561 261.483333 
L 312.843561 261.483333 
L 306.980303 261.483333 
z
" style="fill:#7570b3;opacity:0.6;stroke:#000000;stroke-linejoin:miter;stroke-width:0.5;"/>
   </g>
   <g id="patch_42">
    <path clip-path="url(#pf0d91fe14a)" d="M 312.843561 261.483333 
L 318.706818 261.483333 
L 318.706818 261.483333 
L 312.843561 261.483333 
z
" style="fill:#7570b3;opacity:0.6;stroke:#000000;stroke-linejoin:miter;stroke-width:0.5;"/>
   </g>
   <g id="matplotlib.axis_1">
    <g id="xtick_1">
     <g id="line2d_1">
      <defs>
       <path d="M 0 0 
L 0 3.5 
" id="m2a046f01c0" style="stroke:#000000;stroke-width:1.6;"/>
      </defs>
      <g>
       <use style="stroke:#000000;stroke-width:1.6;" x="84.176515" xlink:href="#m2a046f01c0" y="261.483333"/>
      </g>
     </g>
     <g id="text_1">
      <!-- 0.0 -->
      <defs>
       <path d="M 31.78125 66.40625 
Q 24.171875 66.40625 20.328125 58.90625 
Q 16.5 51.421875 16.5 36.375 
Q 16.5 21.390625 20.328125 13.890625 
Q 24.171875 6.390625 31.78125 6.390625 
Q 39.453125 6.390625 43.28125 13.890625 
Q 47.125 21.390625 47.125 36.375 
Q 47.125 51.421875 43.28125 58.90625 
Q 39.453125 66.40625 31.78125 66.40625 
z
M 31.78125 74.21875 
Q 44.046875 74.21875 50.515625 64.515625 
Q 56.984375 54.828125 56.984375 36.375 
Q 56.984375 17.96875 50.515625 8.265625 
Q 44.046875 -1.421875 31.78125 -1.421875 
Q 19.53125 -1.421875 13.0625 8.265625 
Q 6.59375 17.96875 6.59375 36.375 
Q 6.59375 54.828125 13.0625 64.515625 
Q 19.53125 74.21875 31.78125 74.21875 
z
" id="DejaVuSans-48"/>
       <path d="M 10.6875 12.40625 
L 21 12.40625 
L 21 0 
L 10.6875 0 
z
" id="DejaVuSans-46"/>
      </defs>
      <g transform="translate(68.27339 291.380208)scale(0.2 -0.2)">
       <use xlink:href="#DejaVuSans-48"/>
       <use x="63.623047" xlink:href="#DejaVuSans-46"/>
       <use x="95.410156" xlink:href="#DejaVuSans-48"/>
      </g>
     </g>
    </g>
    <g id="xtick_2">
     <g id="line2d_2">
      <g>
       <use style="stroke:#000000;stroke-width:1.6;" x="151.185173" xlink:href="#m2a046f01c0" y="261.483333"/>
      </g>
     </g>
     <g id="text_2">
      <!-- 0.2 -->
      <defs>
       <path d="M 19.1875 8.296875 
L 53.609375 8.296875 
L 53.609375 0 
L 7.328125 0 
L 7.328125 8.296875 
Q 12.9375 14.109375 22.625 23.890625 
Q 32.328125 33.6875 34.8125 36.53125 
Q 39.546875 41.84375 41.421875 45.53125 
Q 43.3125 49.21875 43.3125 52.78125 
Q 43.3125 58.59375 39.234375 62.25 
Q 35.15625 65.921875 28.609375 65.921875 
Q 23.96875 65.921875 18.8125 64.3125 
Q 13.671875 62.703125 7.8125 59.421875 
L 7.8125 69.390625 
Q 13.765625 71.78125 18.9375 73 
Q 24.125 74.21875 28.421875 74.21875 
Q 39.75 74.21875 46.484375 68.546875 
Q 53.21875 62.890625 53.21875 53.421875 
Q 53.21875 48.921875 51.53125 44.890625 
Q 49.859375 40.875 45.40625 35.40625 
Q 44.1875 33.984375 37.640625 27.21875 
Q 31.109375 20.453125 19.1875 8.296875 
z
" id="DejaVuSans-50"/>
      </defs>
      <g transform="translate(135.282048 291.380208)scale(0.2 -0.2)">
       <use xlink:href="#DejaVuSans-48"/>
       <use x="63.623047" xlink:href="#DejaVuSans-46"/>
       <use x="95.410156" xlink:href="#DejaVuSans-50"/>
      </g>
     </g>
    </g>
    <g id="xtick_3">
     <g id="line2d_3">
      <g>
       <use style="stroke:#000000;stroke-width:1.6;" x="218.193831" xlink:href="#m2a046f01c0" y="261.483333"/>
      </g>
     </g>
     <g id="text_3">
      <!-- 0.4 -->
      <defs>
       <path d="M 37.796875 64.3125 
L 12.890625 25.390625 
L 37.796875 25.390625 
z
M 35.203125 72.90625 
L 47.609375 72.90625 
L 47.609375 25.390625 
L 58.015625 25.390625 
L 58.015625 17.1875 
L 47.609375 17.1875 
L 47.609375 0 
L 37.796875 0 
L 37.796875 17.1875 
L 4.890625 17.1875 
L 4.890625 26.703125 
z
" id="DejaVuSans-52"/>
      </defs>
      <g transform="translate(202.290706 291.380208)scale(0.2 -0.2)">
       <use xlink:href="#DejaVuSans-48"/>
       <use x="63.623047" xlink:href="#DejaVuSans-46"/>
       <use x="95.410156" xlink:href="#DejaVuSans-52"/>
      </g>
     </g>
    </g>
    <g id="xtick_4">
     <g id="line2d_4">
      <g>
       <use style="stroke:#000000;stroke-width:1.6;" x="285.202489" xlink:href="#m2a046f01c0" y="261.483333"/>
      </g>
     </g>
     <g id="text_4">
      <!-- 0.6 -->
      <defs>
       <path d="M 33.015625 40.375 
Q 26.375 40.375 22.484375 35.828125 
Q 18.609375 31.296875 18.609375 23.390625 
Q 18.609375 15.53125 22.484375 10.953125 
Q 26.375 6.390625 33.015625 6.390625 
Q 39.65625 6.390625 43.53125 10.953125 
Q 47.40625 15.53125 47.40625 23.390625 
Q 47.40625 31.296875 43.53125 35.828125 
Q 39.65625 40.375 33.015625 40.375 
z
M 52.59375 71.296875 
L 52.59375 62.3125 
Q 48.875 64.0625 45.09375 64.984375 
Q 41.3125 65.921875 37.59375 65.921875 
Q 27.828125 65.921875 22.671875 59.328125 
Q 17.53125 52.734375 16.796875 39.40625 
Q 19.671875 43.65625 24.015625 45.921875 
Q 28.375 48.1875 33.59375 48.1875 
Q 44.578125 48.1875 50.953125 41.515625 
Q 57.328125 34.859375 57.328125 23.390625 
Q 57.328125 12.15625 50.6875 5.359375 
Q 44.046875 -1.421875 33.015625 -1.421875 
Q 20.359375 -1.421875 13.671875 8.265625 
Q 6.984375 17.96875 6.984375 36.375 
Q 6.984375 53.65625 15.1875 63.9375 
Q 23.390625 74.21875 37.203125 74.21875 
Q 40.921875 74.21875 44.703125 73.484375 
Q 48.484375 72.75 52.59375 71.296875 
z
" id="DejaVuSans-54"/>
      </defs>
      <g transform="translate(269.299364 291.380208)scale(0.2 -0.2)">
       <use xlink:href="#DejaVuSans-48"/>
       <use x="63.623047" xlink:href="#DejaVuSans-46"/>
       <use x="95.410156" xlink:href="#DejaVuSans-54"/>
      </g>
     </g>
    </g>
    <g id="text_5">
     <!-- Max JS Divergence within $\epsilon$ -->
     <defs>
      <path d="M 9.8125 72.90625 
L 24.515625 72.90625 
L 43.109375 23.296875 
L 61.8125 72.90625 
L 76.515625 72.90625 
L 76.515625 0 
L 66.890625 0 
L 66.890625 64.015625 
L 48.09375 14.015625 
L 38.1875 14.015625 
L 19.390625 64.015625 
L 19.390625 0 
L 9.8125 0 
z
" id="DejaVuSans-77"/>
      <path d="M 34.28125 27.484375 
Q 23.390625 27.484375 19.1875 25 
Q 14.984375 22.515625 14.984375 16.5 
Q 14.984375 11.71875 18.140625 8.90625 
Q 21.296875 6.109375 26.703125 6.109375 
Q 34.1875 6.109375 38.703125 11.40625 
Q 43.21875 16.703125 43.21875 25.484375 
L 43.21875 27.484375 
z
M 52.203125 31.203125 
L 52.203125 0 
L 43.21875 0 
L 43.21875 8.296875 
Q 40.140625 3.328125 35.546875 0.953125 
Q 30.953125 -1.421875 24.3125 -1.421875 
Q 15.921875 -1.421875 10.953125 3.296875 
Q 6 8.015625 6 15.921875 
Q 6 25.140625 12.171875 29.828125 
Q 18.359375 34.515625 30.609375 34.515625 
L 43.21875 34.515625 
L 43.21875 35.40625 
Q 43.21875 41.609375 39.140625 45 
Q 35.0625 48.390625 27.6875 48.390625 
Q 23 48.390625 18.546875 47.265625 
Q 14.109375 46.140625 10.015625 43.890625 
L 10.015625 52.203125 
Q 14.9375 54.109375 19.578125 55.046875 
Q 24.21875 56 28.609375 56 
Q 40.484375 56 46.34375 49.84375 
Q 52.203125 43.703125 52.203125 31.203125 
z
" id="DejaVuSans-97"/>
      <path d="M 54.890625 54.6875 
L 35.109375 28.078125 
L 55.90625 0 
L 45.3125 0 
L 29.390625 21.484375 
L 13.484375 0 
L 2.875 0 
L 24.125 28.609375 
L 4.6875 54.6875 
L 15.28125 54.6875 
L 29.78125 35.203125 
L 44.28125 54.6875 
z
" id="DejaVuSans-120"/>
      <path id="DejaVuSans-32"/>
      <path d="M 9.8125 72.90625 
L 19.671875 72.90625 
L 19.671875 5.078125 
Q 19.671875 -8.109375 14.671875 -14.0625 
Q 9.671875 -20.015625 -1.421875 -20.015625 
L -5.171875 -20.015625 
L -5.171875 -11.71875 
L -2.09375 -11.71875 
Q 4.4375 -11.71875 7.125 -8.046875 
Q 9.8125 -4.390625 9.8125 5.078125 
z
" id="DejaVuSans-74"/>
      <path d="M 53.515625 70.515625 
L 53.515625 60.890625 
Q 47.90625 63.578125 42.921875 64.890625 
Q 37.9375 66.21875 33.296875 66.21875 
Q 25.25 66.21875 20.875 63.09375 
Q 16.5 59.96875 16.5 54.203125 
Q 16.5 49.359375 19.40625 46.890625 
Q 22.3125 44.4375 30.421875 42.921875 
L 36.375 41.703125 
Q 47.40625 39.59375 52.65625 34.296875 
Q 57.90625 29 57.90625 20.125 
Q 57.90625 9.515625 50.796875 4.046875 
Q 43.703125 -1.421875 29.984375 -1.421875 
Q 24.8125 -1.421875 18.96875 -0.25 
Q 13.140625 0.921875 6.890625 3.21875 
L 6.890625 13.375 
Q 12.890625 10.015625 18.65625 8.296875 
Q 24.421875 6.59375 29.984375 6.59375 
Q 38.421875 6.59375 43.015625 9.90625 
Q 47.609375 13.234375 47.609375 19.390625 
Q 47.609375 24.75 44.3125 27.78125 
Q 41.015625 30.8125 33.5 32.328125 
L 27.484375 33.5 
Q 16.453125 35.6875 11.515625 40.375 
Q 6.59375 45.0625 6.59375 53.421875 
Q 6.59375 63.09375 13.40625 68.65625 
Q 20.21875 74.21875 32.171875 74.21875 
Q 37.3125 74.21875 42.625 73.28125 
Q 47.953125 72.359375 53.515625 70.515625 
z
" id="DejaVuSans-83"/>
      <path d="M 19.671875 64.796875 
L 19.671875 8.109375 
L 31.59375 8.109375 
Q 46.6875 8.109375 53.6875 14.9375 
Q 60.6875 21.78125 60.6875 36.53125 
Q 60.6875 51.171875 53.6875 57.984375 
Q 46.6875 64.796875 31.59375 64.796875 
z
M 9.8125 72.90625 
L 30.078125 72.90625 
Q 51.265625 72.90625 61.171875 64.09375 
Q 71.09375 55.28125 71.09375 36.53125 
Q 71.09375 17.671875 61.125 8.828125 
Q 51.171875 0 30.078125 0 
L 9.8125 0 
z
" id="DejaVuSans-68"/>
      <path d="M 9.421875 54.6875 
L 18.40625 54.6875 
L 18.40625 0 
L 9.421875 0 
z
M 9.421875 75.984375 
L 18.40625 75.984375 
L 18.40625 64.59375 
L 9.421875 64.59375 
z
" id="DejaVuSans-105"/>
      <path d="M 2.984375 54.6875 
L 12.5 54.6875 
L 29.59375 8.796875 
L 46.6875 54.6875 
L 56.203125 54.6875 
L 35.6875 0 
L 23.484375 0 
z
" id="DejaVuSans-118"/>
      <path d="M 56.203125 29.59375 
L 56.203125 25.203125 
L 14.890625 25.203125 
Q 15.484375 15.921875 20.484375 11.0625 
Q 25.484375 6.203125 34.421875 6.203125 
Q 39.59375 6.203125 44.453125 7.46875 
Q 49.3125 8.734375 54.109375 11.28125 
L 54.109375 2.78125 
Q 49.265625 0.734375 44.1875 -0.34375 
Q 39.109375 -1.421875 33.890625 -1.421875 
Q 20.796875 -1.421875 13.15625 6.1875 
Q 5.515625 13.8125 5.515625 26.8125 
Q 5.515625 40.234375 12.765625 48.109375 
Q 20.015625 56 32.328125 56 
Q 43.359375 56 49.78125 48.890625 
Q 56.203125 41.796875 56.203125 29.59375 
z
M 47.21875 32.234375 
Q 47.125 39.59375 43.09375 43.984375 
Q 39.0625 48.390625 32.421875 48.390625 
Q 24.90625 48.390625 20.390625 44.140625 
Q 15.875 39.890625 15.1875 32.171875 
z
" id="DejaVuSans-101"/>
      <path d="M 41.109375 46.296875 
Q 39.59375 47.171875 37.8125 47.578125 
Q 36.03125 48 33.890625 48 
Q 26.265625 48 22.1875 43.046875 
Q 18.109375 38.09375 18.109375 28.8125 
L 18.109375 0 
L 9.078125 0 
L 9.078125 54.6875 
L 18.109375 54.6875 
L 18.109375 46.1875 
Q 20.953125 51.171875 25.484375 53.578125 
Q 30.03125 56 36.53125 56 
Q 37.453125 56 38.578125 55.875 
Q 39.703125 55.765625 41.0625 55.515625 
z
" id="DejaVuSans-114"/>
      <path d="M 45.40625 27.984375 
Q 45.40625 37.75 41.375 43.109375 
Q 37.359375 48.484375 30.078125 48.484375 
Q 22.859375 48.484375 18.828125 43.109375 
Q 14.796875 37.75 14.796875 27.984375 
Q 14.796875 18.265625 18.828125 12.890625 
Q 22.859375 7.515625 30.078125 7.515625 
Q 37.359375 7.515625 41.375 12.890625 
Q 45.40625 18.265625 45.40625 27.984375 
z
M 54.390625 6.78125 
Q 54.390625 -7.171875 48.1875 -13.984375 
Q 42 -20.796875 29.203125 -20.796875 
Q 24.46875 -20.796875 20.265625 -20.09375 
Q 16.0625 -19.390625 12.109375 -17.921875 
L 12.109375 -9.1875 
Q 16.0625 -11.328125 19.921875 -12.34375 
Q 23.78125 -13.375 27.78125 -13.375 
Q 36.625 -13.375 41.015625 -8.765625 
Q 45.40625 -4.15625 45.40625 5.171875 
L 45.40625 9.625 
Q 42.625 4.78125 38.28125 2.390625 
Q 33.9375 0 27.875 0 
Q 17.828125 0 11.671875 7.65625 
Q 5.515625 15.328125 5.515625 27.984375 
Q 5.515625 40.671875 11.671875 48.328125 
Q 17.828125 56 27.875 56 
Q 33.9375 56 38.28125 53.609375 
Q 42.625 51.21875 45.40625 46.390625 
L 45.40625 54.6875 
L 54.390625 54.6875 
z
" id="DejaVuSans-103"/>
      <path d="M 54.890625 33.015625 
L 54.890625 0 
L 45.90625 0 
L 45.90625 32.71875 
Q 45.90625 40.484375 42.875 44.328125 
Q 39.84375 48.1875 33.796875 48.1875 
Q 26.515625 48.1875 22.3125 43.546875 
Q 18.109375 38.921875 18.109375 30.90625 
L 18.109375 0 
L 9.078125 0 
L 9.078125 54.6875 
L 18.109375 54.6875 
L 18.109375 46.1875 
Q 21.34375 51.125 25.703125 53.5625 
Q 30.078125 56 35.796875 56 
Q 45.21875 56 50.046875 50.171875 
Q 54.890625 44.34375 54.890625 33.015625 
z
" id="DejaVuSans-110"/>
      <path d="M 48.78125 52.59375 
L 48.78125 44.1875 
Q 44.96875 46.296875 41.140625 47.34375 
Q 37.3125 48.390625 33.40625 48.390625 
Q 24.65625 48.390625 19.8125 42.84375 
Q 14.984375 37.3125 14.984375 27.296875 
Q 14.984375 17.28125 19.8125 11.734375 
Q 24.65625 6.203125 33.40625 6.203125 
Q 37.3125 6.203125 41.140625 7.25 
Q 44.96875 8.296875 48.78125 10.40625 
L 48.78125 2.09375 
Q 45.015625 0.34375 40.984375 -0.53125 
Q 36.96875 -1.421875 32.421875 -1.421875 
Q 20.0625 -1.421875 12.78125 6.34375 
Q 5.515625 14.109375 5.515625 27.296875 
Q 5.515625 40.671875 12.859375 48.328125 
Q 20.21875 56 33.015625 56 
Q 37.15625 56 41.109375 55.140625 
Q 45.0625 54.296875 48.78125 52.59375 
z
" id="DejaVuSans-99"/>
      <path d="M 4.203125 54.6875 
L 13.1875 54.6875 
L 24.421875 12.015625 
L 35.59375 54.6875 
L 46.1875 54.6875 
L 57.421875 12.015625 
L 68.609375 54.6875 
L 77.59375 54.6875 
L 63.28125 0 
L 52.6875 0 
L 40.921875 44.828125 
L 29.109375 0 
L 18.5 0 
z
" id="DejaVuSans-119"/>
      <path d="M 18.3125 70.21875 
L 18.3125 54.6875 
L 36.8125 54.6875 
L 36.8125 47.703125 
L 18.3125 47.703125 
L 18.3125 18.015625 
Q 18.3125 11.328125 20.140625 9.421875 
Q 21.96875 7.515625 27.59375 7.515625 
L 36.8125 7.515625 
L 36.8125 0 
L 27.59375 0 
Q 17.1875 0 13.234375 3.875 
Q 9.28125 7.765625 9.28125 18.015625 
L 9.28125 47.703125 
L 2.6875 47.703125 
L 2.6875 54.6875 
L 9.28125 54.6875 
L 9.28125 70.21875 
z
" id="DejaVuSans-116"/>
      <path d="M 54.890625 33.015625 
L 54.890625 0 
L 45.90625 0 
L 45.90625 32.71875 
Q 45.90625 40.484375 42.875 44.328125 
Q 39.84375 48.1875 33.796875 48.1875 
Q 26.515625 48.1875 22.3125 43.546875 
Q 18.109375 38.921875 18.109375 30.90625 
L 18.109375 0 
L 9.078125 0 
L 9.078125 75.984375 
L 18.109375 75.984375 
L 18.109375 46.1875 
Q 21.34375 51.125 25.703125 53.5625 
Q 30.078125 56 35.796875 56 
Q 45.21875 56 50.046875 50.171875 
Q 54.890625 44.34375 54.890625 33.015625 
z
" id="DejaVuSans-104"/>
      <path d="M 19.734375 29.5 
Q 14.453125 30.671875 12.15625 33.84375 
Q 10.453125 36.078125 10.453125 39.109375 
Q 10.453125 47.40625 18.359375 52.25 
Q 24.609375 56.0625 34.1875 56.0625 
Q 37.890625 56.0625 41.9375 55.46875 
Q 46 54.890625 50.53125 53.71875 
L 48.96875 45.5625 
Q 44.484375 46.96875 40.71875 47.609375 
Q 36.859375 48.25 33.40625 48.25 
Q 27.59375 48.25 23.78125 46 
Q 19.1875 43.3125 19.1875 39.40625 
Q 19.1875 36.8125 21.578125 35.015625 
Q 24.421875 32.859375 30.078125 32.859375 
L 37.640625 32.859375 
L 36.234375 25.4375 
L 29 25.4375 
Q 22.265625 25.4375 18.3125 22.953125 
Q 12.9375 19.578125 12.9375 14.3125 
Q 12.9375 10.984375 15.828125 8.796875 
Q 19.4375 6.0625 26.8125 6.0625 
Q 31.34375 6.0625 35.6875 6.9375 
Q 40.046875 7.859375 43.84375 9.671875 
L 42.1875 1.3125 
Q 37.546875 -0.046875 33.296875 -0.734375 
Q 29.046875 -1.421875 25.140625 -1.421875 
Q 13.53125 -1.421875 8.0625 3.03125 
Q 3.90625 6.453125 3.90625 12.203125 
Q 3.90625 19.96875 9.375 24.75 
Q 13.421875 28.328125 19.734375 29.5 
z
" id="DejaVuSans-Oblique-949"/>
     </defs>
     <g transform="translate(65.841667 314.739583)scale(0.2 -0.2)">
      <use transform="translate(0 0.015625)" xlink:href="#DejaVuSans-77"/>
      <use transform="translate(86.279297 0.015625)" xlink:href="#DejaVuSans-97"/>
      <use transform="translate(147.558594 0.015625)" xlink:href="#DejaVuSans-120"/>
      <use transform="translate(206.738281 0.015625)" xlink:href="#DejaVuSans-32"/>
      <use transform="translate(238.525391 0.015625)" xlink:href="#DejaVuSans-74"/>
      <use transform="translate(268.017578 0.015625)" xlink:href="#DejaVuSans-83"/>
      <use transform="translate(331.494141 0.015625)" xlink:href="#DejaVuSans-32"/>
      <use transform="translate(363.28125 0.015625)" xlink:href="#DejaVuSans-68"/>
      <use transform="translate(440.283203 0.015625)" xlink:href="#DejaVuSans-105"/>
      <use transform="translate(468.066406 0.015625)" xlink:href="#DejaVuSans-118"/>
      <use transform="translate(527.246094 0.015625)" xlink:href="#DejaVuSans-101"/>
      <use transform="translate(588.769531 0.015625)" xlink:href="#DejaVuSans-114"/>
      <use transform="translate(629.882812 0.015625)" xlink:href="#DejaVuSans-103"/>
      <use transform="translate(693.359375 0.015625)" xlink:href="#DejaVuSans-101"/>
      <use transform="translate(754.882812 0.015625)" xlink:href="#DejaVuSans-110"/>
      <use transform="translate(818.261719 0.015625)" xlink:href="#DejaVuSans-99"/>
      <use transform="translate(873.242188 0.015625)" xlink:href="#DejaVuSans-101"/>
      <use transform="translate(934.765625 0.015625)" xlink:href="#DejaVuSans-32"/>
      <use transform="translate(966.552734 0.015625)" xlink:href="#DejaVuSans-119"/>
      <use transform="translate(1048.339844 0.015625)" xlink:href="#DejaVuSans-105"/>
      <use transform="translate(1076.123047 0.015625)" xlink:href="#DejaVuSans-116"/>
      <use transform="translate(1115.332031 0.015625)" xlink:href="#DejaVuSans-104"/>
      <use transform="translate(1178.710938 0.015625)" xlink:href="#DejaVuSans-105"/>
      <use transform="translate(1206.494141 0.015625)" xlink:href="#DejaVuSans-110"/>
      <use transform="translate(1269.873047 0.015625)" xlink:href="#DejaVuSans-32"/>
      <use transform="translate(1301.660156 0.015625)" xlink:href="#DejaVuSans-Oblique-949"/>
     </g>
    </g>
   </g>
   <g id="matplotlib.axis_2">
    <g id="ytick_1">
     <g id="line2d_5">
      <defs>
       <path d="M 0 0 
L -3.5 0 
" id="m25c7b8e84e" style="stroke:#000000;stroke-width:1.6;"/>
      </defs>
      <g>
       <use style="stroke:#000000;stroke-width:1.6;" x="72.45" xlink:href="#m25c7b8e84e" y="261.483333"/>
      </g>
     </g>
     <g id="text_6">
      <!-- 0.000 -->
      <g transform="translate(0.49375 269.081771)scale(0.2 -0.2)">
       <use xlink:href="#DejaVuSans-48"/>
       <use x="63.623047" xlink:href="#DejaVuSans-46"/>
       <use x="95.410156" xlink:href="#DejaVuSans-48"/>
       <use x="159.033203" xlink:href="#DejaVuSans-48"/>
       <use x="222.65625" xlink:href="#DejaVuSans-48"/>
      </g>
     </g>
    </g>
    <g id="ytick_2">
     <g id="line2d_6">
      <g>
       <use style="stroke:#000000;stroke-width:1.6;" x="72.45" xlink:href="#m25c7b8e84e" y="212.343651"/>
      </g>
     </g>
     <g id="text_7">
      <!-- 0.025 -->
      <defs>
       <path d="M 10.796875 72.90625 
L 49.515625 72.90625 
L 49.515625 64.59375 
L 19.828125 64.59375 
L 19.828125 46.734375 
Q 21.96875 47.46875 24.109375 47.828125 
Q 26.265625 48.1875 28.421875 48.1875 
Q 40.625 48.1875 47.75 41.5 
Q 54.890625 34.8125 54.890625 23.390625 
Q 54.890625 11.625 47.5625 5.09375 
Q 40.234375 -1.421875 26.90625 -1.421875 
Q 22.3125 -1.421875 17.546875 -0.640625 
Q 12.796875 0.140625 7.71875 1.703125 
L 7.71875 11.625 
Q 12.109375 9.234375 16.796875 8.0625 
Q 21.484375 6.890625 26.703125 6.890625 
Q 35.15625 6.890625 40.078125 11.328125 
Q 45.015625 15.765625 45.015625 23.390625 
Q 45.015625 31 40.078125 35.4375 
Q 35.15625 39.890625 26.703125 39.890625 
Q 22.75 39.890625 18.8125 39.015625 
Q 14.890625 38.140625 10.796875 36.28125 
z
" id="DejaVuSans-53"/>
      </defs>
      <g transform="translate(0.49375 219.942088)scale(0.2 -0.2)">
       <use xlink:href="#DejaVuSans-48"/>
       <use x="63.623047" xlink:href="#DejaVuSans-46"/>
       <use x="95.410156" xlink:href="#DejaVuSans-48"/>
       <use x="159.033203" xlink:href="#DejaVuSans-50"/>
       <use x="222.65625" xlink:href="#DejaVuSans-53"/>
      </g>
     </g>
    </g>
    <g id="ytick_3">
     <g id="line2d_7">
      <g>
       <use style="stroke:#000000;stroke-width:1.6;" x="72.45" xlink:href="#m25c7b8e84e" y="163.203968"/>
      </g>
     </g>
     <g id="text_8">
      <!-- 0.050 -->
      <g transform="translate(0.49375 170.802406)scale(0.2 -0.2)">
       <use xlink:href="#DejaVuSans-48"/>
       <use x="63.623047" xlink:href="#DejaVuSans-46"/>
       <use x="95.410156" xlink:href="#DejaVuSans-48"/>
       <use x="159.033203" xlink:href="#DejaVuSans-53"/>
       <use x="222.65625" xlink:href="#DejaVuSans-48"/>
      </g>
     </g>
    </g>
    <g id="ytick_4">
     <g id="line2d_8">
      <g>
       <use style="stroke:#000000;stroke-width:1.6;" x="72.45" xlink:href="#m25c7b8e84e" y="114.064286"/>
      </g>
     </g>
     <g id="text_9">
      <!-- 0.075 -->
      <defs>
       <path d="M 8.203125 72.90625 
L 55.078125 72.90625 
L 55.078125 68.703125 
L 28.609375 0 
L 18.3125 0 
L 43.21875 64.59375 
L 8.203125 64.59375 
z
" id="DejaVuSans-55"/>
      </defs>
      <g transform="translate(0.49375 121.662723)scale(0.2 -0.2)">
       <use xlink:href="#DejaVuSans-48"/>
       <use x="63.623047" xlink:href="#DejaVuSans-46"/>
       <use x="95.410156" xlink:href="#DejaVuSans-48"/>
       <use x="159.033203" xlink:href="#DejaVuSans-55"/>
       <use x="222.65625" xlink:href="#DejaVuSans-53"/>
      </g>
     </g>
    </g>
    <g id="ytick_5">
     <g id="line2d_9">
      <g>
       <use style="stroke:#000000;stroke-width:1.6;" x="72.45" xlink:href="#m25c7b8e84e" y="64.924603"/>
      </g>
     </g>
     <g id="text_10">
      <!-- 0.100 -->
      <defs>
       <path d="M 12.40625 8.296875 
L 28.515625 8.296875 
L 28.515625 63.921875 
L 10.984375 60.40625 
L 10.984375 69.390625 
L 28.421875 72.90625 
L 38.28125 72.90625 
L 38.28125 8.296875 
L 54.390625 8.296875 
L 54.390625 0 
L 12.40625 0 
z
" id="DejaVuSans-49"/>
      </defs>
      <g transform="translate(0.49375 72.523041)scale(0.2 -0.2)">
       <use xlink:href="#DejaVuSans-48"/>
       <use x="63.623047" xlink:href="#DejaVuSans-46"/>
       <use x="95.410156" xlink:href="#DejaVuSans-49"/>
       <use x="159.033203" xlink:href="#DejaVuSans-48"/>
       <use x="222.65625" xlink:href="#DejaVuSans-48"/>
      </g>
     </g>
    </g>
    <g id="ytick_6">
     <g id="line2d_10">
      <g>
       <use style="stroke:#000000;stroke-width:1.6;" x="72.45" xlink:href="#m25c7b8e84e" y="15.784921"/>
      </g>
     </g>
     <g id="text_11">
      <!-- 0.125 -->
      <g transform="translate(0.49375 23.383358)scale(0.2 -0.2)">
       <use xlink:href="#DejaVuSans-48"/>
       <use x="63.623047" xlink:href="#DejaVuSans-46"/>
       <use x="95.410156" xlink:href="#DejaVuSans-49"/>
       <use x="159.033203" xlink:href="#DejaVuSans-50"/>
       <use x="222.65625" xlink:href="#DejaVuSans-53"/>
      </g>
     </g>
    </g>
   </g>
   <g id="patch_43">
    <path d="M 72.45 261.483333 
L 72.45 3.5 
" style="fill:none;stroke:#000000;stroke-linecap:square;stroke-linejoin:miter;stroke-width:0.8;"/>
   </g>
   <g id="patch_44">
    <path d="M 72.45 261.483333 
L 330.433333 261.483333 
" style="fill:none;stroke:#000000;stroke-linecap:square;stroke-linejoin:miter;stroke-width:0.8;"/>
   </g>
  </g>
  <g id="axes_2">
   <g id="patch_45">
    <path d="M 438.233333 261.483333 
L 696.216667 261.483333 
L 696.216667 3.5 
L 438.233333 3.5 
z
" style="fill:#ffffff;"/>
   </g>
   <g id="PolyCollection_1">
    <defs>
     <path d="M 550.319809 -286.309502 
L 550.319809 -286.561331 
L 551.593496 -286.570426 
L 552.867183 -286.578616 
L 554.14087 -286.587999 
L 555.414557 -286.600751 
L 556.688244 -286.618567 
L 557.961931 -286.642385 
L 559.235618 -286.672563 
L 560.509305 -286.709413 
L 561.782992 -286.753813 
L 563.056679 -286.807527 
L 564.330366 -286.872915 
L 565.604052 -286.952012 
L 566.877739 -287.045227 
L 568.151426 -287.150219 
L 569.425113 -287.261505 
L 570.6988 -287.371172 
L 571.972487 -287.470619 
L 573.246174 -287.552789 
L 574.519861 -287.614066 
L 575.793548 -287.655035 
L 577.067235 -287.679781 
L 578.340922 -287.693992 
L 579.614609 -287.702746 
L 580.888296 -287.708998 
L 582.161983 -287.713485 
L 583.43567 -287.716059 
L 584.709357 -287.717722 
L 585.983044 -287.722291 
L 587.25673 -287.736795 
L 588.530417 -287.770283 
L 589.804104 -287.831488 
L 591.077791 -287.926204 
L 592.351478 -288.055368 
L 593.625165 -288.214535 
L 594.898852 -288.394968 
L 596.172539 -288.586137 
L 597.446226 -288.778988 
L 598.719913 -288.969124 
L 599.9936 -289.15891 
L 601.267287 -289.357725 
L 602.540974 -289.579997 
L 603.814661 -289.841414 
L 605.088348 -290.154383 
L 606.362035 -290.524282 
L 607.635722 -290.947912 
L 608.909409 -291.414867 
L 610.183095 -291.911431 
L 611.456782 -292.425559 
L 612.730469 -292.950981 
L 614.004156 -293.48874 
L 615.277843 -294.045538 
L 616.55153 -294.629582 
L 617.825217 -295.245746 
L 619.098904 -295.892192 
L 620.372591 -296.560037 
L 621.646278 -297.236383 
L 622.919965 -297.909555 
L 624.193652 -298.574306 
L 625.467339 -299.234609 
L 626.741026 -299.902585 
L 628.014713 -300.593905 
L 629.2884 -301.321719 
L 630.562087 -302.091975 
L 631.835773 -302.902349 
L 633.10946 -303.745035 
L 634.383147 -304.611554 
L 635.656834 -305.496553 
L 636.930521 -306.398153 
L 638.204208 -307.314325 
L 639.477895 -308.237026 
L 640.751582 -309.147087 
L 642.025269 -310.012557 
L 643.298956 -310.791569 
L 644.572643 -311.438783 
L 645.84633 -311.913065 
L 647.120017 -312.183757 
L 648.393704 -312.23375 
L 649.667391 -312.058908 
L 650.941078 -311.664709 
L 652.214765 -311.061707 
L 653.488452 -310.261531 
L 654.762138 -309.274712 
L 656.035825 -308.110925 
L 657.309512 -306.781509 
L 658.583199 -305.303327 
L 659.856886 -303.702497 
L 661.130573 -302.016264 
L 662.40426 -300.291637 
L 663.677947 -298.58054 
L 664.951634 -296.932646 
L 666.225321 -295.38824 
L 667.499008 -293.973634 
L 668.772695 -292.700601 
L 670.046382 -291.569581 
L 671.320069 -290.574823 
L 672.593756 -289.709108 
L 673.867443 -288.966359 
L 675.14113 -288.341735 
L 676.414817 -287.830079 
L 676.414817 -285.040755 
L 676.414817 -285.040755 
L 675.14113 -284.529098 
L 673.867443 -283.904474 
L 672.593756 -283.161725 
L 671.320069 -282.296011 
L 670.046382 -281.301252 
L 668.772695 -280.170232 
L 667.499008 -278.8972 
L 666.225321 -277.482593 
L 664.951634 -275.938188 
L 663.677947 -274.290293 
L 662.40426 -272.579196 
L 661.130573 -270.854569 
L 659.856886 -269.168336 
L 658.583199 -267.567507 
L 657.309512 -266.089324 
L 656.035825 -264.759908 
L 654.762138 -263.596122 
L 653.488452 -262.609302 
L 652.214765 -261.809126 
L 650.941078 -261.206124 
L 649.667391 -260.811925 
L 648.393704 -260.637083 
L 647.120017 -260.687076 
L 645.84633 -260.957768 
L 644.572643 -261.43205 
L 643.298956 -262.079264 
L 642.025269 -262.858276 
L 640.751582 -263.723747 
L 639.477895 -264.633808 
L 638.204208 -265.556508 
L 636.930521 -266.47268 
L 635.656834 -267.37428 
L 634.383147 -268.259279 
L 633.10946 -269.125798 
L 631.835773 -269.968484 
L 630.562087 -270.778858 
L 629.2884 -271.549114 
L 628.014713 -272.276928 
L 626.741026 -272.968249 
L 625.467339 -273.636224 
L 624.193652 -274.296527 
L 622.919965 -274.961279 
L 621.646278 -275.63445 
L 620.372591 -276.310796 
L 619.098904 -276.978641 
L 617.825217 -277.625087 
L 616.55153 -278.241251 
L 615.277843 -278.825295 
L 614.004156 -279.382093 
L 612.730469 -279.919853 
L 611.456782 -280.445275 
L 610.183095 -280.959403 
L 608.909409 -281.455966 
L 607.635722 -281.922921 
L 606.362035 -282.346551 
L 605.088348 -282.71645 
L 603.814661 -283.02942 
L 602.540974 -283.290836 
L 601.267287 -283.513108 
L 599.9936 -283.711923 
L 598.719913 -283.90171 
L 597.446226 -284.091845 
L 596.172539 -284.284697 
L 594.898852 -284.475865 
L 593.625165 -284.656299 
L 592.351478 -284.815465 
L 591.077791 -284.94463 
L 589.804104 -285.039345 
L 588.530417 -285.10055 
L 587.25673 -285.134039 
L 585.983044 -285.148542 
L 584.709357 -285.153111 
L 583.43567 -285.154774 
L 582.161983 -285.157348 
L 580.888296 -285.161835 
L 579.614609 -285.168087 
L 578.340922 -285.176841 
L 577.067235 -285.191053 
L 575.793548 -285.215798 
L 574.519861 -285.256767 
L 573.246174 -285.318044 
L 571.972487 -285.400214 
L 570.6988 -285.499661 
L 569.425113 -285.609328 
L 568.151426 -285.720614 
L 566.877739 -285.825606 
L 565.604052 -285.918822 
L 564.330366 -285.997918 
L 563.056679 -286.063306 
L 561.782992 -286.11702 
L 560.509305 -286.16142 
L 559.235618 -286.19827 
L 557.961931 -286.228449 
L 556.688244 -286.252267 
L 555.414557 -286.270082 
L 554.14087 -286.282835 
L 552.867183 -286.292217 
L 551.593496 -286.300407 
L 550.319809 -286.309502 
z
" id="m244e31d037" style="stroke:#575757;"/>
    </defs>
    <g clip-path="url(#p2a4097516d)">
     <use style="fill:#7c78ab;stroke:#575757;" x="0" xlink:href="#m244e31d037" y="322.183333"/>
    </g>
   </g>
   <g id="PolyCollection_2">
    <defs>
     <path d="M 455.085618 -220.116268 
L 455.085618 -223.762898 
L 457.250207 -223.842476 
L 459.414796 -223.915312 
L 461.579385 -223.984539 
L 463.743974 -224.054208 
L 465.908564 -224.129055 
L 468.073153 -224.214202 
L 470.237742 -224.314807 
L 472.402331 -224.435715 
L 474.56692 -224.581109 
L 476.731509 -224.754221 
L 478.896098 -224.957104 
L 481.060687 -225.1905 
L 483.225277 -225.453802 
L 485.389866 -225.74513 
L 487.554455 -226.061489 
L 489.719044 -226.399025 
L 491.883633 -226.753326 
L 494.048222 -227.119765 
L 496.212811 -227.493839 
L 498.3774 -227.871484 
L 500.54199 -228.24933 
L 502.706579 -228.624883 
L 504.871168 -228.99661 
L 507.035757 -229.363935 
L 509.200346 -229.727133 
L 511.364935 -230.087149 
L 513.529524 -230.445361 
L 515.694113 -230.803297 
L 517.858702 -231.162362 
L 520.023292 -231.52357 
L 522.187881 -231.887325 
L 524.35247 -232.253271 
L 526.517059 -232.620203 
L 528.681648 -232.986065 
L 530.846237 -233.34803 
L 533.010826 -233.70264 
L 535.175415 -234.046017 
L 537.340005 -234.374122 
L 539.504594 -234.683034 
L 541.669183 -234.969259 
L 543.833772 -235.23002 
L 545.998361 -235.463534 
L 548.16295 -235.669242 
L 550.327539 -235.847983 
L 552.492128 -236.002092 
L 554.656718 -236.135417 
L 556.821307 -236.25325 
L 558.985896 -236.36217 
L 561.150485 -236.469805 
L 563.315074 -236.58454 
L 565.479663 -236.715167 
L 567.644252 -236.87052 
L 569.808841 -237.059097 
L 571.973431 -237.288691 
L 574.13802 -237.566043 
L 576.302609 -237.896529 
L 578.467198 -238.283874 
L 580.631787 -238.729906 
L 582.796376 -239.234351 
L 584.960965 -239.794679 
L 587.125554 -240.406007 
L 589.290144 -241.061081 
L 591.454733 -241.750354 
L 593.619322 -242.462174 
L 595.783911 -243.183092 
L 597.9485 -243.898299 
L 600.113089 -244.592174 
L 602.277678 -245.248918 
L 604.442267 -245.853237 
L 606.606856 -246.391018 
L 608.771446 -246.849954 
L 610.936035 -247.220046 
L 613.100624 -247.493954 
L 615.265213 -247.667158 
L 617.429802 -247.737917 
L 619.594391 -247.70704 
L 621.75898 -247.577496 
L 623.923569 -247.353909 
L 626.088159 -247.041993 
L 628.252748 -246.647988 
L 630.417337 -246.178158 
L 632.581926 -245.638381 
L 634.746515 -245.033883 
L 636.911104 -244.369116 
L 639.075693 -243.647786 
L 641.240282 -242.873011 
L 643.404872 -242.047575 
L 645.569461 -241.174255 
L 647.73405 -240.256158 
L 649.898639 -239.29705 
L 652.063228 -238.301624 
L 654.227817 -237.275689 
L 656.392406 -236.226255 
L 658.556995 -235.161507 
L 660.721585 -234.090667 
L 662.886174 -233.023757 
L 665.050763 -231.971277 
L 667.215352 -230.943827 
L 669.379941 -229.951701 
L 669.379941 -213.927465 
L 669.379941 -213.927465 
L 667.215352 -212.935339 
L 665.050763 -211.90789 
L 662.886174 -210.85541 
L 660.721585 -209.7885 
L 658.556995 -208.71766 
L 656.392406 -207.652912 
L 654.227817 -206.603478 
L 652.063228 -205.577543 
L 649.898639 -204.582117 
L 647.73405 -203.623008 
L 645.569461 -202.704912 
L 643.404872 -201.831591 
L 641.240282 -201.006156 
L 639.075693 -200.231381 
L 636.911104 -199.510051 
L 634.746515 -198.845284 
L 632.581926 -198.240786 
L 630.417337 -197.701008 
L 628.252748 -197.231178 
L 626.088159 -196.837174 
L 623.923569 -196.525257 
L 621.75898 -196.30167 
L 619.594391 -196.172127 
L 617.429802 -196.14125 
L 615.265213 -196.212009 
L 613.100624 -196.385213 
L 610.936035 -196.659121 
L 608.771446 -197.029213 
L 606.606856 -197.488149 
L 604.442267 -198.02593 
L 602.277678 -198.630248 
L 600.113089 -199.286992 
L 597.9485 -199.980867 
L 595.783911 -200.696074 
L 593.619322 -201.416992 
L 591.454733 -202.128813 
L 589.290144 -202.818086 
L 587.125554 -203.47316 
L 584.960965 -204.084488 
L 582.796376 -204.644815 
L 580.631787 -205.14926 
L 578.467198 -205.595292 
L 576.302609 -205.982637 
L 574.13802 -206.313124 
L 571.973431 -206.590476 
L 569.808841 -206.820069 
L 567.644252 -207.008646 
L 565.479663 -207.164 
L 563.315074 -207.294627 
L 561.150485 -207.409362 
L 558.985896 -207.516997 
L 556.821307 -207.625916 
L 554.656718 -207.74375 
L 552.492128 -207.877075 
L 550.327539 -208.031183 
L 548.16295 -208.209924 
L 545.998361 -208.415633 
L 543.833772 -208.649147 
L 541.669183 -208.909908 
L 539.504594 -209.196132 
L 537.340005 -209.505045 
L 535.175415 -209.833149 
L 533.010826 -210.176527 
L 530.846237 -210.531137 
L 528.681648 -210.893102 
L 526.517059 -211.258964 
L 524.35247 -211.625896 
L 522.187881 -211.991841 
L 520.023292 -212.355597 
L 517.858702 -212.716804 
L 515.694113 -213.075869 
L 513.529524 -213.433806 
L 511.364935 -213.792017 
L 509.200346 -214.152034 
L 507.035757 -214.515232 
L 504.871168 -214.882557 
L 502.706579 -215.254284 
L 500.54199 -215.629836 
L 498.3774 -216.007682 
L 496.212811 -216.385327 
L 494.048222 -216.759402 
L 491.883633 -217.125841 
L 489.719044 -217.480142 
L 487.554455 -217.817678 
L 485.389866 -218.134037 
L 483.225277 -218.425364 
L 481.060687 -218.688667 
L 478.896098 -218.922063 
L 476.731509 -219.124946 
L 474.56692 -219.298058 
L 472.402331 -219.443452 
L 470.237742 -219.564359 
L 468.073153 -219.664965 
L 465.908564 -219.750112 
L 463.743974 -219.824959 
L 461.579385 -219.894628 
L 459.414796 -219.963854 
L 457.250207 -220.036691 
L 455.085618 -220.116268 
z
" id="mcd960d1e15" style="stroke:#575757;"/>
    </defs>
    <g clip-path="url(#p2a4097516d)">
     <use style="fill:#7c78ab;stroke:#575757;" x="0" xlink:href="#mcd960d1e15" y="322.183333"/>
    </g>
   </g>
   <g id="PolyCollection_3">
    <defs>
     <path d="M 480.421216 -138.810376 
L 480.421216 -176.077124 
L 481.896634 -177.002063 
L 483.372051 -177.885247 
L 484.847469 -178.718674 
L 486.322886 -179.495008 
L 487.798304 -180.207739 
L 489.273721 -180.851336 
L 490.749139 -181.421372 
L 492.224556 -181.914621 
L 493.699973 -182.329128 
L 495.175391 -182.664239 
L 496.650808 -182.920599 
L 498.126226 -183.100113 
L 499.601643 -183.20588 
L 501.077061 -183.242083 
L 502.552478 -183.213865 
L 504.027896 -183.127173 
L 505.503313 -182.988587 
L 506.978731 -182.805145 
L 508.454148 -182.584153 
L 509.929565 -182.333005 
L 511.404983 -182.059006 
L 512.8804 -181.769215 
L 514.355818 -181.470297 
L 515.831235 -181.168408 
L 517.306653 -180.869096 
L 518.78207 -180.577233 
L 520.257488 -180.296969 
L 521.732905 -180.031715 
L 523.208323 -179.784143 
L 524.68374 -179.556214 
L 526.159158 -179.349214 
L 527.634575 -179.163803 
L 529.109992 -179.000075 
L 530.58541 -178.85762 
L 532.060827 -178.735578 
L 533.536245 -178.632705 
L 535.011662 -178.547416 
L 536.48708 -178.477827 
L 537.962497 -178.421795 
L 539.437915 -178.376935 
L 540.913332 -178.340645 
L 542.38875 -178.310115 
L 543.864167 -178.282337 
L 545.339585 -178.254117 
L 546.815002 -178.222085 
L 548.290419 -178.182711 
L 549.765837 -178.132335 
L 551.241254 -178.0672 
L 552.716672 -177.983499 
L 554.192089 -177.87743 
L 555.667507 -177.74527 
L 557.142924 -177.58345 
L 558.618342 -177.38864 
L 560.093759 -177.157845 
L 561.569177 -176.88849 
L 563.044594 -176.578514 
L 564.520011 -176.226453 
L 565.995429 -175.831507 
L 567.470846 -175.393604 
L 568.946264 -174.913437 
L 570.421681 -174.392483 
L 571.897099 -173.833007 
L 573.372516 -173.238033 
L 574.847934 -172.611303 
L 576.323351 -171.957203 
L 577.798769 -171.280684 
L 579.274186 -170.587154 
L 580.749604 -169.882363 
L 582.225021 -169.172276 
L 583.700438 -168.462945 
L 585.175856 -167.760371 
L 586.651273 -167.070382 
L 588.126691 -166.398506 
L 589.602108 -165.749859 
L 591.077526 -165.129054 
L 592.552943 -164.54011 
L 594.028361 -163.986393 
L 595.503778 -163.47057 
L 596.979196 -162.994581 
L 598.454613 -162.559633 
L 599.93003 -162.166208 
L 601.405448 -161.814092 
L 602.880865 -161.502415 
L 604.356283 -161.229708 
L 605.8317 -160.993968 
L 607.307118 -160.792731 
L 608.782535 -160.623153 
L 610.257953 -160.482094 
L 611.73337 -160.366203 
L 613.208788 -160.272003 
L 614.684205 -160.195973 
L 616.159623 -160.134627 
L 617.63504 -160.084581 
L 619.110457 -160.042625 
L 620.585875 -160.005772 
L 622.061292 -159.971309 
L 623.53671 -159.936835 
L 625.012127 -159.900284 
L 626.487545 -159.859946 
L 626.487545 -155.027554 
L 626.487545 -155.027554 
L 625.012127 -154.987216 
L 623.53671 -154.950665 
L 622.061292 -154.916191 
L 620.585875 -154.881728 
L 619.110457 -154.844875 
L 617.63504 -154.802919 
L 616.159623 -154.752873 
L 614.684205 -154.691527 
L 613.208788 -154.615497 
L 611.73337 -154.521297 
L 610.257953 -154.405406 
L 608.782535 -154.264347 
L 607.307118 -154.094769 
L 605.8317 -153.893532 
L 604.356283 -153.657792 
L 602.880865 -153.385085 
L 601.405448 -153.073408 
L 599.93003 -152.721292 
L 598.454613 -152.327867 
L 596.979196 -151.892919 
L 595.503778 -151.41693 
L 594.028361 -150.901107 
L 592.552943 -150.34739 
L 591.077526 -149.758446 
L 589.602108 -149.137641 
L 588.126691 -148.488994 
L 586.651273 -147.817118 
L 585.175856 -147.127129 
L 583.700438 -146.424555 
L 582.225021 -145.715224 
L 580.749604 -145.005137 
L 579.274186 -144.300346 
L 577.798769 -143.606816 
L 576.323351 -142.930297 
L 574.847934 -142.276197 
L 573.372516 -141.649467 
L 571.897099 -141.054493 
L 570.421681 -140.495017 
L 568.946264 -139.974063 
L 567.470846 -139.493896 
L 565.995429 -139.055993 
L 564.520011 -138.661047 
L 563.044594 -138.308986 
L 561.569177 -137.99901 
L 560.093759 -137.729655 
L 558.618342 -137.49886 
L 557.142924 -137.30405 
L 555.667507 -137.14223 
L 554.192089 -137.01007 
L 552.716672 -136.904001 
L 551.241254 -136.8203 
L 549.765837 -136.755165 
L 548.290419 -136.704789 
L 546.815002 -136.665415 
L 545.339585 -136.633383 
L 543.864167 -136.605163 
L 542.38875 -136.577385 
L 540.913332 -136.546855 
L 539.437915 -136.510565 
L 537.962497 -136.465705 
L 536.48708 -136.409673 
L 535.011662 -136.340084 
L 533.536245 -136.254795 
L 532.060827 -136.151922 
L 530.58541 -136.02988 
L 529.109992 -135.887425 
L 527.634575 -135.723697 
L 526.159158 -135.538286 
L 524.68374 -135.331286 
L 523.208323 -135.103357 
L 521.732905 -134.855785 
L 520.257488 -134.590531 
L 518.78207 -134.310267 
L 517.306653 -134.018404 
L 515.831235 -133.719092 
L 514.355818 -133.417203 
L 512.8804 -133.118285 
L 511.404983 -132.828494 
L 509.929565 -132.554495 
L 508.454148 -132.303347 
L 506.978731 -132.082355 
L 505.503313 -131.898913 
L 504.027896 -131.760327 
L 502.552478 -131.673635 
L 501.077061 -131.645417 
L 499.601643 -131.68162 
L 498.126226 -131.787387 
L 496.650808 -131.966901 
L 495.175391 -132.223261 
L 493.699973 -132.558372 
L 492.224556 -132.972879 
L 490.749139 -133.466128 
L 489.273721 -134.036164 
L 487.798304 -134.679761 
L 486.322886 -135.392492 
L 484.847469 -136.168826 
L 483.372051 -137.002253 
L 481.896634 -137.885437 
L 480.421216 -138.810376 
z
" id="mbb08873abd" style="stroke:#575757;"/>
    </defs>
    <g clip-path="url(#p2a4097516d)">
     <use style="fill:#7c78ab;stroke:#575757;" x="0" xlink:href="#mbb08873abd" y="322.183333"/>
    </g>
   </g>
   <g id="PolyCollection_4">
    <defs>
     <path d="M 474.310074 -69.759694 
L 474.310074 -116.136139 
L 475.416962 -116.631604 
L 476.523849 -117.08014 
L 477.630737 -117.479177 
L 478.737625 -117.826485 
L 479.844513 -118.120194 
L 480.9514 -118.358813 
L 482.058288 -118.541238 
L 483.165176 -118.666759 
L 484.272064 -118.735067 
L 485.378951 -118.74625 
L 486.485839 -118.700783 
L 487.592727 -118.599523 
L 488.699615 -118.443692 
L 489.806503 -118.234857 
L 490.91339 -117.974913 
L 492.020278 -117.666058 
L 493.127166 -117.310765 
L 494.234054 -116.911755 
L 495.340941 -116.471968 
L 496.447829 -115.994534 
L 497.554717 -115.482738 
L 498.661605 -114.939991 
L 499.768492 -114.369799 
L 500.87538 -113.775731 
L 501.982268 -113.161389 
L 503.089156 -112.530378 
L 504.196043 -111.886279 
L 505.302931 -111.232621 
L 506.409819 -110.572854 
L 507.516707 -109.910331 
L 508.623595 -109.248277 
L 509.730482 -108.589777 
L 510.83737 -107.937753 
L 511.944258 -107.294948 
L 513.051146 -106.663915 
L 514.158033 -106.046999 
L 515.264921 -105.446332 
L 516.371809 -104.863824 
L 517.478697 -104.301155 
L 518.585584 -103.759775 
L 519.692472 -103.240898 
L 520.79936 -102.745509 
L 521.906248 -102.274361 
L 523.013135 -101.827984 
L 524.120023 -101.406691 
L 525.226911 -101.010587 
L 526.333799 -100.639581 
L 527.440687 -100.293395 
L 528.547574 -99.971583 
L 529.654462 -99.673543 
L 530.76135 -99.398535 
L 531.868238 -99.145699 
L 532.975125 -98.91407 
L 534.082013 -98.702601 
L 535.188901 -98.510176 
L 536.295789 -98.335633 
L 537.402676 -98.177779 
L 538.509564 -98.035409 
L 539.616452 -97.907321 
L 540.72334 -97.792329 
L 541.830228 -97.68928 
L 542.937115 -97.597063 
L 544.044003 -97.514621 
L 545.150891 -97.440957 
L 546.257779 -97.375142 
L 547.364666 -97.316319 
L 548.471554 -97.263704 
L 549.578442 -97.216588 
L 550.68533 -97.174334 
L 551.792217 -97.136377 
L 552.899105 -97.102214 
L 554.005993 -97.071407 
L 555.112881 -97.043565 
L 556.219768 -97.018348 
L 557.326656 -96.995451 
L 558.433544 -96.974598 
L 559.540432 -96.955534 
L 560.64732 -96.938019 
L 561.754207 -96.921816 
L 562.861095 -96.906688 
L 563.967983 -96.892391 
L 565.074871 -96.878667 
L 566.181758 -96.865245 
L 567.288646 -96.851834 
L 568.395534 -96.838125 
L 569.502422 -96.823789 
L 570.609309 -96.80848 
L 571.716197 -96.791837 
L 572.823085 -96.773489 
L 573.929973 -96.753058 
L 575.03686 -96.730164 
L 576.143748 -96.704436 
L 577.250636 -96.675512 
L 578.357524 -96.64305 
L 579.464412 -96.606734 
L 580.571299 -96.566281 
L 581.678187 -96.521444 
L 582.785075 -96.472023 
L 583.891963 -96.417867 
L 583.891963 -89.477967 
L 583.891963 -89.477967 
L 582.785075 -89.42381 
L 581.678187 -89.374389 
L 580.571299 -89.329553 
L 579.464412 -89.289099 
L 578.357524 -89.252783 
L 577.250636 -89.220322 
L 576.143748 -89.191397 
L 575.03686 -89.165669 
L 573.929973 -89.142776 
L 572.823085 -89.122344 
L 571.716197 -89.103996 
L 570.609309 -89.087353 
L 569.502422 -89.072044 
L 568.395534 -89.057708 
L 567.288646 -89.043999 
L 566.181758 -89.030588 
L 565.074871 -89.017166 
L 563.967983 -89.003443 
L 562.861095 -88.989145 
L 561.754207 -88.974017 
L 560.64732 -88.957814 
L 559.540432 -88.940299 
L 558.433544 -88.921236 
L 557.326656 -88.900382 
L 556.219768 -88.877485 
L 555.112881 -88.852268 
L 554.005993 -88.824427 
L 552.899105 -88.793619 
L 551.792217 -88.759457 
L 550.68533 -88.721499 
L 549.578442 -88.679245 
L 548.471554 -88.632129 
L 547.364666 -88.579514 
L 546.257779 -88.520691 
L 545.150891 -88.454877 
L 544.044003 -88.381213 
L 542.937115 -88.298771 
L 541.830228 -88.206554 
L 540.72334 -88.103505 
L 539.616452 -87.988513 
L 538.509564 -87.860424 
L 537.402676 -87.718054 
L 536.295789 -87.560201 
L 535.188901 -87.385658 
L 534.082013 -87.193233 
L 532.975125 -86.981763 
L 531.868238 -86.750134 
L 530.76135 -86.497298 
L 529.654462 -86.222291 
L 528.547574 -85.924251 
L 527.440687 -85.602439 
L 526.333799 -85.256253 
L 525.226911 -84.885246 
L 524.120023 -84.489142 
L 523.013135 -84.06785 
L 521.906248 -83.621473 
L 520.79936 -83.150325 
L 519.692472 -82.654935 
L 518.585584 -82.136059 
L 517.478697 -81.594678 
L 516.371809 -81.032009 
L 515.264921 -80.449501 
L 514.158033 -79.848835 
L 513.051146 -79.231918 
L 511.944258 -78.600885 
L 510.83737 -77.95808 
L 509.730482 -77.306056 
L 508.623595 -76.647556 
L 507.516707 -75.985503 
L 506.409819 -75.322979 
L 505.302931 -74.663213 
L 504.196043 -74.009554 
L 503.089156 -73.365455 
L 501.982268 -72.734444 
L 500.87538 -72.120102 
L 499.768492 -71.526034 
L 498.661605 -70.955842 
L 497.554717 -70.413095 
L 496.447829 -69.901299 
L 495.340941 -69.423865 
L 494.234054 -68.984079 
L 493.127166 -68.585069 
L 492.020278 -68.229775 
L 490.91339 -67.92092 
L 489.806503 -67.660977 
L 488.699615 -67.452142 
L 487.592727 -67.29631 
L 486.485839 -67.19505 
L 485.378951 -67.149583 
L 484.272064 -67.160766 
L 483.165176 -67.229074 
L 482.058288 -67.354596 
L 480.9514 -67.53702 
L 479.844513 -67.775639 
L 478.737625 -68.069349 
L 477.630737 -68.416657 
L 476.523849 -68.815694 
L 475.416962 -69.264229 
L 474.310074 -69.759694 
z
" id="m7462e36c80" style="stroke:#575757;"/>
    </defs>
    <g clip-path="url(#p2a4097516d)">
     <use style="fill:#7c78ab;stroke:#575757;" x="0" xlink:href="#m7462e36c80" y="322.183333"/>
    </g>
   </g>
   <g id="patch_46">
    <path clip-path="url(#p2a4097516d)" d="M 455.432222 35.747917 
L 455.432222 35.747917 
L 455.432222 35.747917 
L 455.432222 35.747917 
z
" style="fill:#7c78ab;stroke:#575757;stroke-linejoin:miter;stroke-width:0.5;"/>
   </g>
   <g id="matplotlib.axis_3">
    <g id="xtick_5">
     <g id="line2d_11">
      <g>
       <use style="stroke:#000000;stroke-width:1.6;" x="455.432222" xlink:href="#m2a046f01c0" y="261.483333"/>
      </g>
     </g>
     <g id="text_12">
      <!-- 0.0 -->
      <g transform="translate(439.529097 291.380208)scale(0.2 -0.2)">
       <use xlink:href="#DejaVuSans-48"/>
       <use x="63.623047" xlink:href="#DejaVuSans-46"/>
       <use x="95.410156" xlink:href="#DejaVuSans-48"/>
      </g>
     </g>
    </g>
    <g id="xtick_6">
     <g id="line2d_12">
      <g>
       <use style="stroke:#000000;stroke-width:1.6;" x="524.227778" xlink:href="#m2a046f01c0" y="261.483333"/>
      </g>
     </g>
     <g id="text_13">
      <!-- 0.2 -->
      <g transform="translate(508.324653 291.380208)scale(0.2 -0.2)">
       <use xlink:href="#DejaVuSans-48"/>
       <use x="63.623047" xlink:href="#DejaVuSans-46"/>
       <use x="95.410156" xlink:href="#DejaVuSans-50"/>
      </g>
     </g>
    </g>
    <g id="xtick_7">
     <g id="line2d_13">
      <g>
       <use style="stroke:#000000;stroke-width:1.6;" x="593.023333" xlink:href="#m2a046f01c0" y="261.483333"/>
      </g>
     </g>
     <g id="text_14">
      <!-- 0.4 -->
      <g transform="translate(577.120208 291.380208)scale(0.2 -0.2)">
       <use xlink:href="#DejaVuSans-48"/>
       <use x="63.623047" xlink:href="#DejaVuSans-46"/>
       <use x="95.410156" xlink:href="#DejaVuSans-52"/>
      </g>
     </g>
    </g>
    <g id="xtick_8">
     <g id="line2d_14">
      <g>
       <use style="stroke:#000000;stroke-width:1.6;" x="661.818889" xlink:href="#m2a046f01c0" y="261.483333"/>
      </g>
     </g>
     <g id="text_15">
      <!-- 0.6 -->
      <g transform="translate(645.915764 291.380208)scale(0.2 -0.2)">
       <use xlink:href="#DejaVuSans-48"/>
       <use x="63.623047" xlink:href="#DejaVuSans-46"/>
       <use x="95.410156" xlink:href="#DejaVuSans-54"/>
      </g>
     </g>
    </g>
    <g id="text_16">
     <!-- Max Attention -->
     <defs>
      <path d="M 34.1875 63.1875 
L 20.796875 26.90625 
L 47.609375 26.90625 
z
M 28.609375 72.90625 
L 39.796875 72.90625 
L 67.578125 0 
L 57.328125 0 
L 50.6875 18.703125 
L 17.828125 18.703125 
L 11.1875 0 
L 0.78125 0 
z
" id="DejaVuSans-65"/>
      <path d="M 30.609375 48.390625 
Q 23.390625 48.390625 19.1875 42.75 
Q 14.984375 37.109375 14.984375 27.296875 
Q 14.984375 17.484375 19.15625 11.84375 
Q 23.34375 6.203125 30.609375 6.203125 
Q 37.796875 6.203125 41.984375 11.859375 
Q 46.1875 17.53125 46.1875 27.296875 
Q 46.1875 37.015625 41.984375 42.703125 
Q 37.796875 48.390625 30.609375 48.390625 
z
M 30.609375 56 
Q 42.328125 56 49.015625 48.375 
Q 55.71875 40.765625 55.71875 27.296875 
Q 55.71875 13.875 49.015625 6.21875 
Q 42.328125 -1.421875 30.609375 -1.421875 
Q 18.84375 -1.421875 12.171875 6.21875 
Q 5.515625 13.875 5.515625 27.296875 
Q 5.515625 40.765625 12.171875 48.375 
Q 18.84375 56 30.609375 56 
z
" id="DejaVuSans-111"/>
     </defs>
     <g transform="translate(497.046875 314.736458)scale(0.2 -0.2)">
      <use xlink:href="#DejaVuSans-77"/>
      <use x="86.279297" xlink:href="#DejaVuSans-97"/>
      <use x="147.558594" xlink:href="#DejaVuSans-120"/>
      <use x="206.738281" xlink:href="#DejaVuSans-32"/>
      <use x="238.525391" xlink:href="#DejaVuSans-65"/>
      <use x="306.917969" xlink:href="#DejaVuSans-116"/>
      <use x="346.126953" xlink:href="#DejaVuSans-116"/>
      <use x="385.335938" xlink:href="#DejaVuSans-101"/>
      <use x="446.859375" xlink:href="#DejaVuSans-110"/>
      <use x="510.238281" xlink:href="#DejaVuSans-116"/>
      <use x="549.447266" xlink:href="#DejaVuSans-105"/>
      <use x="577.230469" xlink:href="#DejaVuSans-111"/>
      <use x="638.412109" xlink:href="#DejaVuSans-110"/>
     </g>
    </g>
   </g>
   <g id="matplotlib.axis_4">
    <g id="ytick_7">
     <g id="line2d_15">
      <g>
       <use style="stroke:#000000;stroke-width:1.6;" x="438.233333" xlink:href="#m25c7b8e84e" y="35.747917"/>
      </g>
     </g>
     <g id="text_17">
      <!-- [0.00, -->
      <defs>
       <path d="M 8.59375 75.984375 
L 29.296875 75.984375 
L 29.296875 69 
L 17.578125 69 
L 17.578125 -6.203125 
L 29.296875 -6.203125 
L 29.296875 -13.1875 
L 8.59375 -13.1875 
z
" id="DejaVuSans-91"/>
       <path d="M 11.71875 12.40625 
L 22.015625 12.40625 
L 22.015625 4 
L 14.015625 -11.625 
L 7.71875 -11.625 
L 11.71875 4 
z
" id="DejaVuSans-44"/>
      </defs>
      <g transform="translate(364.842708 32.148542)scale(0.2 -0.2)">
       <use xlink:href="#DejaVuSans-91"/>
       <use x="39.013672" xlink:href="#DejaVuSans-48"/>
       <use x="102.636719" xlink:href="#DejaVuSans-46"/>
       <use x="134.423828" xlink:href="#DejaVuSans-48"/>
       <use x="198.046875" xlink:href="#DejaVuSans-48"/>
       <use x="261.669922" xlink:href="#DejaVuSans-44"/>
      </g>
      <!-- 0.25) -->
      <defs>
       <path d="M 8.015625 75.875 
L 15.828125 75.875 
Q 23.140625 64.359375 26.78125 53.3125 
Q 30.421875 42.28125 30.421875 31.390625 
Q 30.421875 20.453125 26.78125 9.375 
Q 23.140625 -1.703125 15.828125 -13.1875 
L 8.015625 -13.1875 
Q 14.5 -2 17.703125 9.0625 
Q 20.90625 20.125 20.90625 31.390625 
Q 20.90625 42.671875 17.703125 53.65625 
Q 14.5 64.65625 8.015625 75.875 
z
" id="DejaVuSans-41"/>
      </defs>
      <g transform="translate(371.198958 54.544167)scale(0.2 -0.2)">
       <use xlink:href="#DejaVuSans-48"/>
       <use x="63.623047" xlink:href="#DejaVuSans-46"/>
       <use x="95.410156" xlink:href="#DejaVuSans-50"/>
       <use x="159.033203" xlink:href="#DejaVuSans-53"/>
       <use x="222.65625" xlink:href="#DejaVuSans-41"/>
      </g>
     </g>
    </g>
    <g id="ytick_8">
     <g id="line2d_16">
      <g>
       <use style="stroke:#000000;stroke-width:1.6;" x="438.233333" xlink:href="#m25c7b8e84e" y="100.24375"/>
      </g>
     </g>
     <g id="text_18">
      <!-- [0.25, -->
      <g transform="translate(364.842708 96.644375)scale(0.2 -0.2)">
       <use xlink:href="#DejaVuSans-91"/>
       <use x="39.013672" xlink:href="#DejaVuSans-48"/>
       <use x="102.636719" xlink:href="#DejaVuSans-46"/>
       <use x="134.423828" xlink:href="#DejaVuSans-50"/>
       <use x="198.046875" xlink:href="#DejaVuSans-53"/>
       <use x="261.669922" xlink:href="#DejaVuSans-44"/>
      </g>
      <!-- 0.50) -->
      <g transform="translate(371.198958 119.04)scale(0.2 -0.2)">
       <use xlink:href="#DejaVuSans-48"/>
       <use x="63.623047" xlink:href="#DejaVuSans-46"/>
       <use x="95.410156" xlink:href="#DejaVuSans-53"/>
       <use x="159.033203" xlink:href="#DejaVuSans-48"/>
       <use x="222.65625" xlink:href="#DejaVuSans-41"/>
      </g>
     </g>
    </g>
    <g id="ytick_9">
     <g id="line2d_17">
      <g>
       <use style="stroke:#000000;stroke-width:1.6;" x="438.233333" xlink:href="#m25c7b8e84e" y="164.739583"/>
      </g>
     </g>
     <g id="text_19">
      <!-- [0.50, -->
      <g transform="translate(364.842708 161.140208)scale(0.2 -0.2)">
       <use xlink:href="#DejaVuSans-91"/>
       <use x="39.013672" xlink:href="#DejaVuSans-48"/>
       <use x="102.636719" xlink:href="#DejaVuSans-46"/>
       <use x="134.423828" xlink:href="#DejaVuSans-53"/>
       <use x="198.046875" xlink:href="#DejaVuSans-48"/>
       <use x="261.669922" xlink:href="#DejaVuSans-44"/>
      </g>
      <!-- 0.75) -->
      <g transform="translate(371.198958 183.535833)scale(0.2 -0.2)">
       <use xlink:href="#DejaVuSans-48"/>
       <use x="63.623047" xlink:href="#DejaVuSans-46"/>
       <use x="95.410156" xlink:href="#DejaVuSans-55"/>
       <use x="159.033203" xlink:href="#DejaVuSans-53"/>
       <use x="222.65625" xlink:href="#DejaVuSans-41"/>
      </g>
     </g>
    </g>
    <g id="ytick_10">
     <g id="line2d_18">
      <g>
       <use style="stroke:#000000;stroke-width:1.6;" x="438.233333" xlink:href="#m25c7b8e84e" y="229.235417"/>
      </g>
     </g>
     <g id="text_20">
      <!-- [0.75, -->
      <g transform="translate(364.842708 225.636042)scale(0.2 -0.2)">
       <use xlink:href="#DejaVuSans-91"/>
       <use x="39.013672" xlink:href="#DejaVuSans-48"/>
       <use x="102.636719" xlink:href="#DejaVuSans-46"/>
       <use x="134.423828" xlink:href="#DejaVuSans-55"/>
       <use x="198.046875" xlink:href="#DejaVuSans-53"/>
       <use x="261.669922" xlink:href="#DejaVuSans-44"/>
      </g>
      <!-- 1.00) -->
      <g transform="translate(371.198958 248.031667)scale(0.2 -0.2)">
       <use xlink:href="#DejaVuSans-49"/>
       <use x="63.623047" xlink:href="#DejaVuSans-46"/>
       <use x="95.410156" xlink:href="#DejaVuSans-48"/>
       <use x="159.033203" xlink:href="#DejaVuSans-48"/>
       <use x="222.65625" xlink:href="#DejaVuSans-41"/>
      </g>
     </g>
    </g>
    <g id="text_21">
     <!-- Max JS Divergence within $\epsilon$ -->
     <g transform="translate(356.642708 268.091667)rotate(-90)scale(0.2 -0.2)">
      <use transform="translate(0 0.015625)" xlink:href="#DejaVuSans-77"/>
      <use transform="translate(86.279297 0.015625)" xlink:href="#DejaVuSans-97"/>
      <use transform="translate(147.558594 0.015625)" xlink:href="#DejaVuSans-120"/>
      <use transform="translate(206.738281 0.015625)" xlink:href="#DejaVuSans-32"/>
      <use transform="translate(238.525391 0.015625)" xlink:href="#DejaVuSans-74"/>
      <use transform="translate(268.017578 0.015625)" xlink:href="#DejaVuSans-83"/>
      <use transform="translate(331.494141 0.015625)" xlink:href="#DejaVuSans-32"/>
      <use transform="translate(363.28125 0.015625)" xlink:href="#DejaVuSans-68"/>
      <use transform="translate(440.283203 0.015625)" xlink:href="#DejaVuSans-105"/>
      <use transform="translate(468.066406 0.015625)" xlink:href="#DejaVuSans-118"/>
      <use transform="translate(527.246094 0.015625)" xlink:href="#DejaVuSans-101"/>
      <use transform="translate(588.769531 0.015625)" xlink:href="#DejaVuSans-114"/>
      <use transform="translate(629.882812 0.015625)" xlink:href="#DejaVuSans-103"/>
      <use transform="translate(693.359375 0.015625)" xlink:href="#DejaVuSans-101"/>
      <use transform="translate(754.882812 0.015625)" xlink:href="#DejaVuSans-110"/>
      <use transform="translate(818.261719 0.015625)" xlink:href="#DejaVuSans-99"/>
      <use transform="translate(873.242188 0.015625)" xlink:href="#DejaVuSans-101"/>
      <use transform="translate(934.765625 0.015625)" xlink:href="#DejaVuSans-32"/>
      <use transform="translate(966.552734 0.015625)" xlink:href="#DejaVuSans-119"/>
      <use transform="translate(1048.339844 0.015625)" xlink:href="#DejaVuSans-105"/>
      <use transform="translate(1076.123047 0.015625)" xlink:href="#DejaVuSans-116"/>
      <use transform="translate(1115.332031 0.015625)" xlink:href="#DejaVuSans-104"/>
      <use transform="translate(1178.710938 0.015625)" xlink:href="#DejaVuSans-105"/>
      <use transform="translate(1206.494141 0.015625)" xlink:href="#DejaVuSans-110"/>
      <use transform="translate(1269.873047 0.015625)" xlink:href="#DejaVuSans-32"/>
      <use transform="translate(1301.660156 0.015625)" xlink:href="#DejaVuSans-Oblique-949"/>
     </g>
    </g>
   </g>
   <g id="line2d_19">
    <path clip-path="url(#p2a4097516d)" style="fill:none;stroke:#575757;stroke-dasharray:1.5,1.5;stroke-dashoffset:0;"/>
   </g>
   <g id="line2d_20">
    <path clip-path="url(#p2a4097516d)" style="fill:none;stroke:#575757;stroke-dasharray:3,3;stroke-dashoffset:0;"/>
   </g>
   <g id="line2d_21">
    <path clip-path="url(#p2a4097516d)" style="fill:none;stroke:#575757;stroke-dasharray:1.5,1.5;stroke-dashoffset:0;"/>
   </g>
   <g id="line2d_22">
    <path clip-path="url(#p2a4097516d)" style="fill:none;stroke:#575757;stroke-dasharray:1.5,1.5;stroke-dashoffset:0;"/>
   </g>
   <g id="line2d_23">
    <path clip-path="url(#p2a4097516d)" style="fill:none;stroke:#575757;stroke-dasharray:3,3;stroke-dashoffset:0;"/>
   </g>
   <g id="line2d_24">
    <path clip-path="url(#p2a4097516d)" style="fill:none;stroke:#575757;stroke-dasharray:1.5,1.5;stroke-dashoffset:0;"/>
   </g>
   <g id="line2d_25">
    <path clip-path="url(#p2a4097516d)" style="fill:none;stroke:#575757;stroke-dasharray:1.5,1.5;stroke-dashoffset:0;"/>
   </g>
   <g id="line2d_26">
    <path clip-path="url(#p2a4097516d)" style="fill:none;stroke:#575757;stroke-dasharray:3,3;stroke-dashoffset:0;"/>
   </g>
   <g id="line2d_27">
    <path clip-path="url(#p2a4097516d)" style="fill:none;stroke:#575757;stroke-dasharray:1.5,1.5;stroke-dashoffset:0;"/>
   </g>
   <g id="line2d_28">
    <path clip-path="url(#p2a4097516d)" style="fill:none;stroke:#575757;stroke-dasharray:1.5,1.5;stroke-dashoffset:0;"/>
   </g>
   <g id="line2d_29">
    <path clip-path="url(#p2a4097516d)" style="fill:none;stroke:#575757;stroke-dasharray:3,3;stroke-dashoffset:0;"/>
   </g>
   <g id="line2d_30">
    <path clip-path="url(#p2a4097516d)" style="fill:none;stroke:#575757;stroke-dasharray:1.5,1.5;stroke-dashoffset:0;"/>
   </g>
   <g id="patch_47">
    <path style="fill:none;stroke:#000000;stroke-linecap:square;stroke-linejoin:miter;stroke-width:0.8;"/>
   </g>
   <g id="patch_48">
    <path style="fill:none;stroke:#000000;stroke-linecap:square;stroke-linejoin:miter;stroke-width:0.8;"/>
   </g>
  </g>
 </g>
 <defs>
  <clipPath id="pf0d91fe14a">
   <rect height="257.983333" width="257.983333" x="72.45" y="3.5"/>
  </clipPath>
  <clipPath id="p2a4097516d">
   <rect height="257.983333" width="257.983333" x="438.233333" y="3.5"/>
  </clipPath>
 </defs>
</svg>
