<?xml version="1.0" encoding="utf-8" standalone="no"?>
<!DOCTYPE svg PUBLIC "-//W3C//DTD SVG 1.1//EN"
  "http://www.w3.org/Graphics/SVG/1.1/DTD/svg11.dtd">
<!-- Created with matplotlib (https://matplotlib.org/) -->
<svg height="316.395pt" version="1.1" viewBox="0 0 321.893203 316.395" width="321.893203pt" xmlns="http://www.w3.org/2000/svg" xmlns:xlink="http://www.w3.org/1999/xlink">
 <defs>
  <style type="text/css">
*{stroke-linecap:butt;stroke-linejoin:round;}
  </style>
 </defs>
 <g id="figure_1">
  <g id="patch_1">
   <path d="M 0 316.395 
L 321.893203 316.395 
L 321.893203 0 
L 0 0 
z
" style="fill:#ffffff;"/>
  </g>
  <g id="axes_1">
   <g id="patch_2">
    <path d="M 59.575 255.695 
L 311.77 255.695 
L 311.77 3.5 
L 59.575 3.5 
z
" style="fill:#ffffff;"/>
   </g>
   <g id="patch_3">
    <path clip-path="url(#pff5cae8a2d)" d="M 71.038409 255.695 
L 76.770114 255.695 
L 76.770114 239.386093 
L 71.038409 239.386093 
z
" style="fill:#7570b3;opacity:0.6;stroke:#000000;stroke-linejoin:miter;stroke-width:0.5;"/>
   </g>
   <g id="patch_4">
    <path clip-path="url(#pff5cae8a2d)" d="M 76.770114 255.695 
L 82.501818 255.695 
L 82.501818 255.695 
L 76.770114 255.695 
z
" style="fill:#7570b3;opacity:0.6;stroke:#000000;stroke-linejoin:miter;stroke-width:0.5;"/>
   </g>
   <g id="patch_5">
    <path clip-path="url(#pff5cae8a2d)" d="M 82.501818 255.695 
L 88.233523 255.695 
L 88.233523 255.695 
L 82.501818 255.695 
z
" style="fill:#7570b3;opacity:0.6;stroke:#000000;stroke-linejoin:miter;stroke-width:0.5;"/>
   </g>
   <g id="patch_6">
    <path clip-path="url(#pff5cae8a2d)" d="M 88.233523 255.695 
L 93.965227 255.695 
L 93.965227 255.695 
L 88.233523 255.695 
z
" style="fill:#7570b3;opacity:0.6;stroke:#000000;stroke-linejoin:miter;stroke-width:0.5;"/>
   </g>
   <g id="patch_7">
    <path clip-path="url(#pff5cae8a2d)" d="M 93.965227 255.695 
L 99.696932 255.695 
L 99.696932 255.695 
L 93.965227 255.695 
z
" style="fill:#7570b3;opacity:0.6;stroke:#000000;stroke-linejoin:miter;stroke-width:0.5;"/>
   </g>
   <g id="patch_8">
    <path clip-path="url(#pff5cae8a2d)" d="M 99.696932 255.695 
L 105.428636 255.695 
L 105.428636 255.695 
L 99.696932 255.695 
z
" style="fill:#7570b3;opacity:0.6;stroke:#000000;stroke-linejoin:miter;stroke-width:0.5;"/>
   </g>
   <g id="patch_9">
    <path clip-path="url(#pff5cae8a2d)" d="M 105.428636 255.695 
L 111.160341 255.695 
L 111.160341 255.695 
L 105.428636 255.695 
z
" style="fill:#7570b3;opacity:0.6;stroke:#000000;stroke-linejoin:miter;stroke-width:0.5;"/>
   </g>
   <g id="patch_10">
    <path clip-path="url(#pff5cae8a2d)" d="M 111.160341 255.695 
L 116.892045 255.695 
L 116.892045 255.695 
L 111.160341 255.695 
z
" style="fill:#7570b3;opacity:0.6;stroke:#000000;stroke-linejoin:miter;stroke-width:0.5;"/>
   </g>
   <g id="patch_11">
    <path clip-path="url(#pff5cae8a2d)" d="M 116.892045 255.695 
L 122.62375 255.695 
L 122.62375 255.695 
L 116.892045 255.695 
z
" style="fill:#7570b3;opacity:0.6;stroke:#000000;stroke-linejoin:miter;stroke-width:0.5;"/>
   </g>
   <g id="patch_12">
    <path clip-path="url(#pff5cae8a2d)" d="M 122.62375 255.695 
L 128.355455 255.695 
L 128.355455 255.695 
L 122.62375 255.695 
z
" style="fill:#7570b3;opacity:0.6;stroke:#000000;stroke-linejoin:miter;stroke-width:0.5;"/>
   </g>
   <g id="patch_13">
    <path clip-path="url(#pff5cae8a2d)" d="M 128.355455 255.695 
L 134.087159 255.695 
L 134.087159 255.695 
L 128.355455 255.695 
z
" style="fill:#7570b3;opacity:0.6;stroke:#000000;stroke-linejoin:miter;stroke-width:0.5;"/>
   </g>
   <g id="patch_14">
    <path clip-path="url(#pff5cae8a2d)" d="M 134.087159 255.695 
L 139.818864 255.695 
L 139.818864 255.695 
L 134.087159 255.695 
z
" style="fill:#7570b3;opacity:0.6;stroke:#000000;stroke-linejoin:miter;stroke-width:0.5;"/>
   </g>
   <g id="patch_15">
    <path clip-path="url(#pff5cae8a2d)" d="M 139.818864 255.695 
L 145.550568 255.695 
L 145.550568 254.212372 
L 139.818864 254.212372 
z
" style="fill:#7570b3;opacity:0.6;stroke:#000000;stroke-linejoin:miter;stroke-width:0.5;"/>
   </g>
   <g id="patch_16">
    <path clip-path="url(#pff5cae8a2d)" d="M 145.550568 255.695 
L 151.282273 255.695 
L 151.282273 251.247116 
L 145.550568 251.247116 
z
" style="fill:#7570b3;opacity:0.6;stroke:#000000;stroke-linejoin:miter;stroke-width:0.5;"/>
   </g>
   <g id="patch_17">
    <path clip-path="url(#pff5cae8a2d)" d="M 151.282273 255.695 
L 157.013977 255.695 
L 157.013977 242.351349 
L 151.282273 242.351349 
z
" style="fill:#7570b3;opacity:0.6;stroke:#000000;stroke-linejoin:miter;stroke-width:0.5;"/>
   </g>
   <g id="patch_18">
    <path clip-path="url(#pff5cae8a2d)" d="M 157.013977 255.695 
L 162.745682 255.695 
L 162.745682 231.972954 
L 157.013977 231.972954 
z
" style="fill:#7570b3;opacity:0.6;stroke:#000000;stroke-linejoin:miter;stroke-width:0.5;"/>
   </g>
   <g id="patch_19">
    <path clip-path="url(#pff5cae8a2d)" d="M 162.745682 255.695 
L 168.477386 255.695 
L 168.477386 243.833977 
L 162.745682 243.833977 
z
" style="fill:#7570b3;opacity:0.6;stroke:#000000;stroke-linejoin:miter;stroke-width:0.5;"/>
   </g>
   <g id="patch_20">
    <path clip-path="url(#pff5cae8a2d)" d="M 168.477386 255.695 
L 174.209091 255.695 
L 174.209091 240.868721 
L 168.477386 240.868721 
z
" style="fill:#7570b3;opacity:0.6;stroke:#000000;stroke-linejoin:miter;stroke-width:0.5;"/>
   </g>
   <g id="patch_21">
    <path clip-path="url(#pff5cae8a2d)" d="M 174.209091 255.695 
L 179.940795 255.695 
L 179.940795 242.351349 
L 174.209091 242.351349 
z
" style="fill:#7570b3;opacity:0.6;stroke:#000000;stroke-linejoin:miter;stroke-width:0.5;"/>
   </g>
   <g id="patch_22">
    <path clip-path="url(#pff5cae8a2d)" d="M 179.940795 255.695 
L 185.6725 255.695 
L 185.6725 236.420838 
L 179.940795 236.420838 
z
" style="fill:#7570b3;opacity:0.6;stroke:#000000;stroke-linejoin:miter;stroke-width:0.5;"/>
   </g>
   <g id="patch_23">
    <path clip-path="url(#pff5cae8a2d)" d="M 185.6725 255.695 
L 191.404205 255.695 
L 191.404205 227.525071 
L 185.6725 227.525071 
z
" style="fill:#7570b3;opacity:0.6;stroke:#000000;stroke-linejoin:miter;stroke-width:0.5;"/>
   </g>
   <g id="patch_24">
    <path clip-path="url(#pff5cae8a2d)" d="M 191.404205 255.695 
L 197.135909 255.695 
L 197.135909 233.455582 
L 191.404205 233.455582 
z
" style="fill:#7570b3;opacity:0.6;stroke:#000000;stroke-linejoin:miter;stroke-width:0.5;"/>
   </g>
   <g id="patch_25">
    <path clip-path="url(#pff5cae8a2d)" d="M 197.135909 255.695 
L 202.867614 255.695 
L 202.867614 230.490326 
L 197.135909 230.490326 
z
" style="fill:#7570b3;opacity:0.6;stroke:#000000;stroke-linejoin:miter;stroke-width:0.5;"/>
   </g>
   <g id="patch_26">
    <path clip-path="url(#pff5cae8a2d)" d="M 202.867614 255.695 
L 208.599318 255.695 
L 208.599318 229.007698 
L 202.867614 229.007698 
z
" style="fill:#7570b3;opacity:0.6;stroke:#000000;stroke-linejoin:miter;stroke-width:0.5;"/>
   </g>
   <g id="patch_27">
    <path clip-path="url(#pff5cae8a2d)" d="M 208.599318 255.695 
L 214.331023 255.695 
L 214.331023 233.455582 
L 208.599318 233.455582 
z
" style="fill:#7570b3;opacity:0.6;stroke:#000000;stroke-linejoin:miter;stroke-width:0.5;"/>
   </g>
   <g id="patch_28">
    <path clip-path="url(#pff5cae8a2d)" d="M 214.331023 255.695 
L 220.062727 255.695 
L 220.062727 237.903466 
L 214.331023 237.903466 
z
" style="fill:#7570b3;opacity:0.6;stroke:#000000;stroke-linejoin:miter;stroke-width:0.5;"/>
   </g>
   <g id="patch_29">
    <path clip-path="url(#pff5cae8a2d)" d="M 220.062727 255.695 
L 225.794432 255.695 
L 225.794432 237.903466 
L 220.062727 237.903466 
z
" style="fill:#7570b3;opacity:0.6;stroke:#000000;stroke-linejoin:miter;stroke-width:0.5;"/>
   </g>
   <g id="patch_30">
    <path clip-path="url(#pff5cae8a2d)" d="M 225.794432 255.695 
L 231.526136 255.695 
L 231.526136 215.664048 
L 225.794432 215.664048 
z
" style="fill:#7570b3;opacity:0.6;stroke:#000000;stroke-linejoin:miter;stroke-width:0.5;"/>
   </g>
   <g id="patch_31">
    <path clip-path="url(#pff5cae8a2d)" d="M 231.526136 255.695 
L 237.257841 255.695 
L 237.257841 221.594559 
L 231.526136 221.594559 
z
" style="fill:#7570b3;opacity:0.6;stroke:#000000;stroke-linejoin:miter;stroke-width:0.5;"/>
   </g>
   <g id="patch_32">
    <path clip-path="url(#pff5cae8a2d)" d="M 237.257841 255.695 
L 242.989545 255.695 
L 242.989545 215.664048 
L 237.257841 215.664048 
z
" style="fill:#7570b3;opacity:0.6;stroke:#000000;stroke-linejoin:miter;stroke-width:0.5;"/>
   </g>
   <g id="patch_33">
    <path clip-path="url(#pff5cae8a2d)" d="M 242.989545 255.695 
L 248.72125 255.695 
L 248.72125 215.664048 
L 242.989545 215.664048 
z
" style="fill:#7570b3;opacity:0.6;stroke:#000000;stroke-linejoin:miter;stroke-width:0.5;"/>
   </g>
   <g id="patch_34">
    <path clip-path="url(#pff5cae8a2d)" d="M 248.72125 255.695 
L 254.452955 255.695 
L 254.452955 214.18142 
L 248.72125 214.18142 
z
" style="fill:#7570b3;opacity:0.6;stroke:#000000;stroke-linejoin:miter;stroke-width:0.5;"/>
   </g>
   <g id="patch_35">
    <path clip-path="url(#pff5cae8a2d)" d="M 254.452955 255.695 
L 260.184659 255.695 
L 260.184659 205.285653 
L 254.452955 205.285653 
z
" style="fill:#7570b3;opacity:0.6;stroke:#000000;stroke-linejoin:miter;stroke-width:0.5;"/>
   </g>
   <g id="patch_36">
    <path clip-path="url(#pff5cae8a2d)" d="M 260.184659 255.695 
L 265.916364 255.695 
L 265.916364 196.389885 
L 260.184659 196.389885 
z
" style="fill:#7570b3;opacity:0.6;stroke:#000000;stroke-linejoin:miter;stroke-width:0.5;"/>
   </g>
   <g id="patch_37">
    <path clip-path="url(#pff5cae8a2d)" d="M 265.916364 255.695 
L 271.648068 255.695 
L 271.648068 169.702584 
L 265.916364 169.702584 
z
" style="fill:#7570b3;opacity:0.6;stroke:#000000;stroke-linejoin:miter;stroke-width:0.5;"/>
   </g>
   <g id="patch_38">
    <path clip-path="url(#pff5cae8a2d)" d="M 271.648068 255.695 
L 277.379773 255.695 
L 277.379773 113.362725 
L 271.648068 113.362725 
z
" style="fill:#7570b3;opacity:0.6;stroke:#000000;stroke-linejoin:miter;stroke-width:0.5;"/>
   </g>
   <g id="patch_39">
    <path clip-path="url(#pff5cae8a2d)" d="M 277.379773 255.695 
L 283.111477 255.695 
L 283.111477 119.293236 
L 277.379773 119.293236 
z
" style="fill:#7570b3;opacity:0.6;stroke:#000000;stroke-linejoin:miter;stroke-width:0.5;"/>
   </g>
   <g id="patch_40">
    <path clip-path="url(#pff5cae8a2d)" d="M 283.111477 255.695 
L 288.843182 255.695 
L 288.843182 82.22754 
L 283.111477 82.22754 
z
" style="fill:#7570b3;opacity:0.6;stroke:#000000;stroke-linejoin:miter;stroke-width:0.5;"/>
   </g>
   <g id="patch_41">
    <path clip-path="url(#pff5cae8a2d)" d="M 288.843182 255.695 
L 294.574886 255.695 
L 294.574886 15.509286 
L 288.843182 15.509286 
z
" style="fill:#7570b3;opacity:0.6;stroke:#000000;stroke-linejoin:miter;stroke-width:0.5;"/>
   </g>
   <g id="patch_42">
    <path clip-path="url(#pff5cae8a2d)" d="M 294.574886 255.695 
L 300.306591 255.695 
L 300.306591 135.602143 
L 294.574886 135.602143 
z
" style="fill:#7570b3;opacity:0.6;stroke:#000000;stroke-linejoin:miter;stroke-width:0.5;"/>
   </g>
   <g id="matplotlib.axis_1">
    <g id="xtick_1">
     <g id="line2d_1">
      <defs>
       <path d="M 0 0 
L 0 3.5 
" id="m3c85a5d10d" style="stroke:#000000;stroke-width:1.6;"/>
      </defs>
      <g>
       <use style="stroke:#000000;stroke-width:1.6;" x="71.038409" xlink:href="#m3c85a5d10d" y="255.695"/>
      </g>
     </g>
     <g id="text_1">
      <!-- 0.0 -->
      <defs>
       <path d="M 31.78125 66.40625 
Q 24.171875 66.40625 20.328125 58.90625 
Q 16.5 51.421875 16.5 36.375 
Q 16.5 21.390625 20.328125 13.890625 
Q 24.171875 6.390625 31.78125 6.390625 
Q 39.453125 6.390625 43.28125 13.890625 
Q 47.125 21.390625 47.125 36.375 
Q 47.125 51.421875 43.28125 58.90625 
Q 39.453125 66.40625 31.78125 66.40625 
z
M 31.78125 74.21875 
Q 44.046875 74.21875 50.515625 64.515625 
Q 56.984375 54.828125 56.984375 36.375 
Q 56.984375 17.96875 50.515625 8.265625 
Q 44.046875 -1.421875 31.78125 -1.421875 
Q 19.53125 -1.421875 13.0625 8.265625 
Q 6.59375 17.96875 6.59375 36.375 
Q 6.59375 54.828125 13.0625 64.515625 
Q 19.53125 74.21875 31.78125 74.21875 
z
" id="DejaVuSans-48"/>
       <path d="M 10.6875 12.40625 
L 21 12.40625 
L 21 0 
L 10.6875 0 
z
" id="DejaVuSans-46"/>
      </defs>
      <g transform="translate(55.135284 285.591875)scale(0.2 -0.2)">
       <use xlink:href="#DejaVuSans-48"/>
       <use x="63.623047" xlink:href="#DejaVuSans-46"/>
       <use x="95.410156" xlink:href="#DejaVuSans-48"/>
      </g>
     </g>
    </g>
    <g id="xtick_2">
     <g id="line2d_2">
      <g>
       <use style="stroke:#000000;stroke-width:1.6;" x="136.543604" xlink:href="#m3c85a5d10d" y="255.695"/>
      </g>
     </g>
     <g id="text_2">
      <!-- 0.2 -->
      <defs>
       <path d="M 19.1875 8.296875 
L 53.609375 8.296875 
L 53.609375 0 
L 7.328125 0 
L 7.328125 8.296875 
Q 12.9375 14.109375 22.625 23.890625 
Q 32.328125 33.6875 34.8125 36.53125 
Q 39.546875 41.84375 41.421875 45.53125 
Q 43.3125 49.21875 43.3125 52.78125 
Q 43.3125 58.59375 39.234375 62.25 
Q 35.15625 65.921875 28.609375 65.921875 
Q 23.96875 65.921875 18.8125 64.3125 
Q 13.671875 62.703125 7.8125 59.421875 
L 7.8125 69.390625 
Q 13.765625 71.78125 18.9375 73 
Q 24.125 74.21875 28.421875 74.21875 
Q 39.75 74.21875 46.484375 68.546875 
Q 53.21875 62.890625 53.21875 53.421875 
Q 53.21875 48.921875 51.53125 44.890625 
Q 49.859375 40.875 45.40625 35.40625 
Q 44.1875 33.984375 37.640625 27.21875 
Q 31.109375 20.453125 19.1875 8.296875 
z
" id="DejaVuSans-50"/>
      </defs>
      <g transform="translate(120.640479 285.591875)scale(0.2 -0.2)">
       <use xlink:href="#DejaVuSans-48"/>
       <use x="63.623047" xlink:href="#DejaVuSans-46"/>
       <use x="95.410156" xlink:href="#DejaVuSans-50"/>
      </g>
     </g>
    </g>
    <g id="xtick_3">
     <g id="line2d_3">
      <g>
       <use style="stroke:#000000;stroke-width:1.6;" x="202.048799" xlink:href="#m3c85a5d10d" y="255.695"/>
      </g>
     </g>
     <g id="text_3">
      <!-- 0.4 -->
      <defs>
       <path d="M 37.796875 64.3125 
L 12.890625 25.390625 
L 37.796875 25.390625 
z
M 35.203125 72.90625 
L 47.609375 72.90625 
L 47.609375 25.390625 
L 58.015625 25.390625 
L 58.015625 17.1875 
L 47.609375 17.1875 
L 47.609375 0 
L 37.796875 0 
L 37.796875 17.1875 
L 4.890625 17.1875 
L 4.890625 26.703125 
z
" id="DejaVuSans-52"/>
      </defs>
      <g transform="translate(186.145674 285.591875)scale(0.2 -0.2)">
       <use xlink:href="#DejaVuSans-48"/>
       <use x="63.623047" xlink:href="#DejaVuSans-46"/>
       <use x="95.410156" xlink:href="#DejaVuSans-52"/>
      </g>
     </g>
    </g>
    <g id="xtick_4">
     <g id="line2d_4">
      <g>
       <use style="stroke:#000000;stroke-width:1.6;" x="267.553994" xlink:href="#m3c85a5d10d" y="255.695"/>
      </g>
     </g>
     <g id="text_4">
      <!-- 0.6 -->
      <defs>
       <path d="M 33.015625 40.375 
Q 26.375 40.375 22.484375 35.828125 
Q 18.609375 31.296875 18.609375 23.390625 
Q 18.609375 15.53125 22.484375 10.953125 
Q 26.375 6.390625 33.015625 6.390625 
Q 39.65625 6.390625 43.53125 10.953125 
Q 47.40625 15.53125 47.40625 23.390625 
Q 47.40625 31.296875 43.53125 35.828125 
Q 39.65625 40.375 33.015625 40.375 
z
M 52.59375 71.296875 
L 52.59375 62.3125 
Q 48.875 64.0625 45.09375 64.984375 
Q 41.3125 65.921875 37.59375 65.921875 
Q 27.828125 65.921875 22.671875 59.328125 
Q 17.53125 52.734375 16.796875 39.40625 
Q 19.671875 43.65625 24.015625 45.921875 
Q 28.375 48.1875 33.59375 48.1875 
Q 44.578125 48.1875 50.953125 41.515625 
Q 57.328125 34.859375 57.328125 23.390625 
Q 57.328125 12.15625 50.6875 5.359375 
Q 44.046875 -1.421875 33.015625 -1.421875 
Q 20.359375 -1.421875 13.671875 8.265625 
Q 6.984375 17.96875 6.984375 36.375 
Q 6.984375 53.65625 15.1875 63.9375 
Q 23.390625 74.21875 37.203125 74.21875 
Q 40.921875 74.21875 44.703125 73.484375 
Q 48.484375 72.75 52.59375 71.296875 
z
" id="DejaVuSans-54"/>
      </defs>
      <g transform="translate(251.650869 285.591875)scale(0.2 -0.2)">
       <use xlink:href="#DejaVuSans-48"/>
       <use x="63.623047" xlink:href="#DejaVuSans-46"/>
       <use x="95.410156" xlink:href="#DejaVuSans-54"/>
      </g>
     </g>
    </g>
    <g id="text_5">
     <!-- Max JS Divergence within $\epsilon$ -->
     <defs>
      <path d="M 9.8125 72.90625 
L 24.515625 72.90625 
L 43.109375 23.296875 
L 61.8125 72.90625 
L 76.515625 72.90625 
L 76.515625 0 
L 66.890625 0 
L 66.890625 64.015625 
L 48.09375 14.015625 
L 38.1875 14.015625 
L 19.390625 64.015625 
L 19.390625 0 
L 9.8125 0 
z
" id="DejaVuSans-77"/>
      <path d="M 34.28125 27.484375 
Q 23.390625 27.484375 19.1875 25 
Q 14.984375 22.515625 14.984375 16.5 
Q 14.984375 11.71875 18.140625 8.90625 
Q 21.296875 6.109375 26.703125 6.109375 
Q 34.1875 6.109375 38.703125 11.40625 
Q 43.21875 16.703125 43.21875 25.484375 
L 43.21875 27.484375 
z
M 52.203125 31.203125 
L 52.203125 0 
L 43.21875 0 
L 43.21875 8.296875 
Q 40.140625 3.328125 35.546875 0.953125 
Q 30.953125 -1.421875 24.3125 -1.421875 
Q 15.921875 -1.421875 10.953125 3.296875 
Q 6 8.015625 6 15.921875 
Q 6 25.140625 12.171875 29.828125 
Q 18.359375 34.515625 30.609375 34.515625 
L 43.21875 34.515625 
L 43.21875 35.40625 
Q 43.21875 41.609375 39.140625 45 
Q 35.0625 48.390625 27.6875 48.390625 
Q 23 48.390625 18.546875 47.265625 
Q 14.109375 46.140625 10.015625 43.890625 
L 10.015625 52.203125 
Q 14.9375 54.109375 19.578125 55.046875 
Q 24.21875 56 28.609375 56 
Q 40.484375 56 46.34375 49.84375 
Q 52.203125 43.703125 52.203125 31.203125 
z
" id="DejaVuSans-97"/>
      <path d="M 54.890625 54.6875 
L 35.109375 28.078125 
L 55.90625 0 
L 45.3125 0 
L 29.390625 21.484375 
L 13.484375 0 
L 2.875 0 
L 24.125 28.609375 
L 4.6875 54.6875 
L 15.28125 54.6875 
L 29.78125 35.203125 
L 44.28125 54.6875 
z
" id="DejaVuSans-120"/>
      <path id="DejaVuSans-32"/>
      <path d="M 9.8125 72.90625 
L 19.671875 72.90625 
L 19.671875 5.078125 
Q 19.671875 -8.109375 14.671875 -14.0625 
Q 9.671875 -20.015625 -1.421875 -20.015625 
L -5.171875 -20.015625 
L -5.171875 -11.71875 
L -2.09375 -11.71875 
Q 4.4375 -11.71875 7.125 -8.046875 
Q 9.8125 -4.390625 9.8125 5.078125 
z
" id="DejaVuSans-74"/>
      <path d="M 53.515625 70.515625 
L 53.515625 60.890625 
Q 47.90625 63.578125 42.921875 64.890625 
Q 37.9375 66.21875 33.296875 66.21875 
Q 25.25 66.21875 20.875 63.09375 
Q 16.5 59.96875 16.5 54.203125 
Q 16.5 49.359375 19.40625 46.890625 
Q 22.3125 44.4375 30.421875 42.921875 
L 36.375 41.703125 
Q 47.40625 39.59375 52.65625 34.296875 
Q 57.90625 29 57.90625 20.125 
Q 57.90625 9.515625 50.796875 4.046875 
Q 43.703125 -1.421875 29.984375 -1.421875 
Q 24.8125 -1.421875 18.96875 -0.25 
Q 13.140625 0.921875 6.890625 3.21875 
L 6.890625 13.375 
Q 12.890625 10.015625 18.65625 8.296875 
Q 24.421875 6.59375 29.984375 6.59375 
Q 38.421875 6.59375 43.015625 9.90625 
Q 47.609375 13.234375 47.609375 19.390625 
Q 47.609375 24.75 44.3125 27.78125 
Q 41.015625 30.8125 33.5 32.328125 
L 27.484375 33.5 
Q 16.453125 35.6875 11.515625 40.375 
Q 6.59375 45.0625 6.59375 53.421875 
Q 6.59375 63.09375 13.40625 68.65625 
Q 20.21875 74.21875 32.171875 74.21875 
Q 37.3125 74.21875 42.625 73.28125 
Q 47.953125 72.359375 53.515625 70.515625 
z
" id="DejaVuSans-83"/>
      <path d="M 19.671875 64.796875 
L 19.671875 8.109375 
L 31.59375 8.109375 
Q 46.6875 8.109375 53.6875 14.9375 
Q 60.6875 21.78125 60.6875 36.53125 
Q 60.6875 51.171875 53.6875 57.984375 
Q 46.6875 64.796875 31.59375 64.796875 
z
M 9.8125 72.90625 
L 30.078125 72.90625 
Q 51.265625 72.90625 61.171875 64.09375 
Q 71.09375 55.28125 71.09375 36.53125 
Q 71.09375 17.671875 61.125 8.828125 
Q 51.171875 0 30.078125 0 
L 9.8125 0 
z
" id="DejaVuSans-68"/>
      <path d="M 9.421875 54.6875 
L 18.40625 54.6875 
L 18.40625 0 
L 9.421875 0 
z
M 9.421875 75.984375 
L 18.40625 75.984375 
L 18.40625 64.59375 
L 9.421875 64.59375 
z
" id="DejaVuSans-105"/>
      <path d="M 2.984375 54.6875 
L 12.5 54.6875 
L 29.59375 8.796875 
L 46.6875 54.6875 
L 56.203125 54.6875 
L 35.6875 0 
L 23.484375 0 
z
" id="DejaVuSans-118"/>
      <path d="M 56.203125 29.59375 
L 56.203125 25.203125 
L 14.890625 25.203125 
Q 15.484375 15.921875 20.484375 11.0625 
Q 25.484375 6.203125 34.421875 6.203125 
Q 39.59375 6.203125 44.453125 7.46875 
Q 49.3125 8.734375 54.109375 11.28125 
L 54.109375 2.78125 
Q 49.265625 0.734375 44.1875 -0.34375 
Q 39.109375 -1.421875 33.890625 -1.421875 
Q 20.796875 -1.421875 13.15625 6.1875 
Q 5.515625 13.8125 5.515625 26.8125 
Q 5.515625 40.234375 12.765625 48.109375 
Q 20.015625 56 32.328125 56 
Q 43.359375 56 49.78125 48.890625 
Q 56.203125 41.796875 56.203125 29.59375 
z
M 47.21875 32.234375 
Q 47.125 39.59375 43.09375 43.984375 
Q 39.0625 48.390625 32.421875 48.390625 
Q 24.90625 48.390625 20.390625 44.140625 
Q 15.875 39.890625 15.1875 32.171875 
z
" id="DejaVuSans-101"/>
      <path d="M 41.109375 46.296875 
Q 39.59375 47.171875 37.8125 47.578125 
Q 36.03125 48 33.890625 48 
Q 26.265625 48 22.1875 43.046875 
Q 18.109375 38.09375 18.109375 28.8125 
L 18.109375 0 
L 9.078125 0 
L 9.078125 54.6875 
L 18.109375 54.6875 
L 18.109375 46.1875 
Q 20.953125 51.171875 25.484375 53.578125 
Q 30.03125 56 36.53125 56 
Q 37.453125 56 38.578125 55.875 
Q 39.703125 55.765625 41.0625 55.515625 
z
" id="DejaVuSans-114"/>
      <path d="M 45.40625 27.984375 
Q 45.40625 37.75 41.375 43.109375 
Q 37.359375 48.484375 30.078125 48.484375 
Q 22.859375 48.484375 18.828125 43.109375 
Q 14.796875 37.75 14.796875 27.984375 
Q 14.796875 18.265625 18.828125 12.890625 
Q 22.859375 7.515625 30.078125 7.515625 
Q 37.359375 7.515625 41.375 12.890625 
Q 45.40625 18.265625 45.40625 27.984375 
z
M 54.390625 6.78125 
Q 54.390625 -7.171875 48.1875 -13.984375 
Q 42 -20.796875 29.203125 -20.796875 
Q 24.46875 -20.796875 20.265625 -20.09375 
Q 16.0625 -19.390625 12.109375 -17.921875 
L 12.109375 -9.1875 
Q 16.0625 -11.328125 19.921875 -12.34375 
Q 23.78125 -13.375 27.78125 -13.375 
Q 36.625 -13.375 41.015625 -8.765625 
Q 45.40625 -4.15625 45.40625 5.171875 
L 45.40625 9.625 
Q 42.625 4.78125 38.28125 2.390625 
Q 33.9375 0 27.875 0 
Q 17.828125 0 11.671875 7.65625 
Q 5.515625 15.328125 5.515625 27.984375 
Q 5.515625 40.671875 11.671875 48.328125 
Q 17.828125 56 27.875 56 
Q 33.9375 56 38.28125 53.609375 
Q 42.625 51.21875 45.40625 46.390625 
L 45.40625 54.6875 
L 54.390625 54.6875 
z
" id="DejaVuSans-103"/>
      <path d="M 54.890625 33.015625 
L 54.890625 0 
L 45.90625 0 
L 45.90625 32.71875 
Q 45.90625 40.484375 42.875 44.328125 
Q 39.84375 48.1875 33.796875 48.1875 
Q 26.515625 48.1875 22.3125 43.546875 
Q 18.109375 38.921875 18.109375 30.90625 
L 18.109375 0 
L 9.078125 0 
L 9.078125 54.6875 
L 18.109375 54.6875 
L 18.109375 46.1875 
Q 21.34375 51.125 25.703125 53.5625 
Q 30.078125 56 35.796875 56 
Q 45.21875 56 50.046875 50.171875 
Q 54.890625 44.34375 54.890625 33.015625 
z
" id="DejaVuSans-110"/>
      <path d="M 48.78125 52.59375 
L 48.78125 44.1875 
Q 44.96875 46.296875 41.140625 47.34375 
Q 37.3125 48.390625 33.40625 48.390625 
Q 24.65625 48.390625 19.8125 42.84375 
Q 14.984375 37.3125 14.984375 27.296875 
Q 14.984375 17.28125 19.8125 11.734375 
Q 24.65625 6.203125 33.40625 6.203125 
Q 37.3125 6.203125 41.140625 7.25 
Q 44.96875 8.296875 48.78125 10.40625 
L 48.78125 2.09375 
Q 45.015625 0.34375 40.984375 -0.53125 
Q 36.96875 -1.421875 32.421875 -1.421875 
Q 20.0625 -1.421875 12.78125 6.34375 
Q 5.515625 14.109375 5.515625 27.296875 
Q 5.515625 40.671875 12.859375 48.328125 
Q 20.21875 56 33.015625 56 
Q 37.15625 56 41.109375 55.140625 
Q 45.0625 54.296875 48.78125 52.59375 
z
" id="DejaVuSans-99"/>
      <path d="M 4.203125 54.6875 
L 13.1875 54.6875 
L 24.421875 12.015625 
L 35.59375 54.6875 
L 46.1875 54.6875 
L 57.421875 12.015625 
L 68.609375 54.6875 
L 77.59375 54.6875 
L 63.28125 0 
L 52.6875 0 
L 40.921875 44.828125 
L 29.109375 0 
L 18.5 0 
z
" id="DejaVuSans-119"/>
      <path d="M 18.3125 70.21875 
L 18.3125 54.6875 
L 36.8125 54.6875 
L 36.8125 47.703125 
L 18.3125 47.703125 
L 18.3125 18.015625 
Q 18.3125 11.328125 20.140625 9.421875 
Q 21.96875 7.515625 27.59375 7.515625 
L 36.8125 7.515625 
L 36.8125 0 
L 27.59375 0 
Q 17.1875 0 13.234375 3.875 
Q 9.28125 7.765625 9.28125 18.015625 
L 9.28125 47.703125 
L 2.6875 47.703125 
L 2.6875 54.6875 
L 9.28125 54.6875 
L 9.28125 70.21875 
z
" id="DejaVuSans-116"/>
      <path d="M 54.890625 33.015625 
L 54.890625 0 
L 45.90625 0 
L 45.90625 32.71875 
Q 45.90625 40.484375 42.875 44.328125 
Q 39.84375 48.1875 33.796875 48.1875 
Q 26.515625 48.1875 22.3125 43.546875 
Q 18.109375 38.921875 18.109375 30.90625 
L 18.109375 0 
L 9.078125 0 
L 9.078125 75.984375 
L 18.109375 75.984375 
L 18.109375 46.1875 
Q 21.34375 51.125 25.703125 53.5625 
Q 30.078125 56 35.796875 56 
Q 45.21875 56 50.046875 50.171875 
Q 54.890625 44.34375 54.890625 33.015625 
z
" id="DejaVuSans-104"/>
      <path d="M 19.734375 29.5 
Q 14.453125 30.671875 12.15625 33.84375 
Q 10.453125 36.078125 10.453125 39.109375 
Q 10.453125 47.40625 18.359375 52.25 
Q 24.609375 56.0625 34.1875 56.0625 
Q 37.890625 56.0625 41.9375 55.46875 
Q 46 54.890625 50.53125 53.71875 
L 48.96875 45.5625 
Q 44.484375 46.96875 40.71875 47.609375 
Q 36.859375 48.25 33.40625 48.25 
Q 27.59375 48.25 23.78125 46 
Q 19.1875 43.3125 19.1875 39.40625 
Q 19.1875 36.8125 21.578125 35.015625 
Q 24.421875 32.859375 30.078125 32.859375 
L 37.640625 32.859375 
L 36.234375 25.4375 
L 29 25.4375 
Q 22.265625 25.4375 18.3125 22.953125 
Q 12.9375 19.578125 12.9375 14.3125 
Q 12.9375 10.984375 15.828125 8.796875 
Q 19.4375 6.0625 26.8125 6.0625 
Q 31.34375 6.0625 35.6875 6.9375 
Q 40.046875 7.859375 43.84375 9.671875 
L 42.1875 1.3125 
Q 37.546875 -0.046875 33.296875 -0.734375 
Q 29.046875 -1.421875 25.140625 -1.421875 
Q 13.53125 -1.421875 8.0625 3.03125 
Q 3.90625 6.453125 3.90625 12.203125 
Q 3.90625 19.96875 9.375 24.75 
Q 13.421875 28.328125 19.734375 29.5 
z
" id="DejaVuSans-Oblique-949"/>
     </defs>
     <g transform="translate(50.0725 308.95125)scale(0.2 -0.2)">
      <use transform="translate(0 0.015625)" xlink:href="#DejaVuSans-77"/>
      <use transform="translate(86.279297 0.015625)" xlink:href="#DejaVuSans-97"/>
      <use transform="translate(147.558594 0.015625)" xlink:href="#DejaVuSans-120"/>
      <use transform="translate(206.738281 0.015625)" xlink:href="#DejaVuSans-32"/>
      <use transform="translate(238.525391 0.015625)" xlink:href="#DejaVuSans-74"/>
      <use transform="translate(268.017578 0.015625)" xlink:href="#DejaVuSans-83"/>
      <use transform="translate(331.494141 0.015625)" xlink:href="#DejaVuSans-32"/>
      <use transform="translate(363.28125 0.015625)" xlink:href="#DejaVuSans-68"/>
      <use transform="translate(440.283203 0.015625)" xlink:href="#DejaVuSans-105"/>
      <use transform="translate(468.066406 0.015625)" xlink:href="#DejaVuSans-118"/>
      <use transform="translate(527.246094 0.015625)" xlink:href="#DejaVuSans-101"/>
      <use transform="translate(588.769531 0.015625)" xlink:href="#DejaVuSans-114"/>
      <use transform="translate(629.882812 0.015625)" xlink:href="#DejaVuSans-103"/>
      <use transform="translate(693.359375 0.015625)" xlink:href="#DejaVuSans-101"/>
      <use transform="translate(754.882812 0.015625)" xlink:href="#DejaVuSans-110"/>
      <use transform="translate(818.261719 0.015625)" xlink:href="#DejaVuSans-99"/>
      <use transform="translate(873.242188 0.015625)" xlink:href="#DejaVuSans-101"/>
      <use transform="translate(934.765625 0.015625)" xlink:href="#DejaVuSans-32"/>
      <use transform="translate(966.552734 0.015625)" xlink:href="#DejaVuSans-119"/>
      <use transform="translate(1048.339844 0.015625)" xlink:href="#DejaVuSans-105"/>
      <use transform="translate(1076.123047 0.015625)" xlink:href="#DejaVuSans-116"/>
      <use transform="translate(1115.332031 0.015625)" xlink:href="#DejaVuSans-104"/>
      <use transform="translate(1178.710938 0.015625)" xlink:href="#DejaVuSans-105"/>
      <use transform="translate(1206.494141 0.015625)" xlink:href="#DejaVuSans-110"/>
      <use transform="translate(1269.873047 0.015625)" xlink:href="#DejaVuSans-32"/>
      <use transform="translate(1301.660156 0.015625)" xlink:href="#DejaVuSans-Oblique-949"/>
     </g>
    </g>
   </g>
   <g id="matplotlib.axis_2">
    <g id="ytick_1">
     <g id="line2d_5">
      <defs>
       <path d="M 0 0 
L -3.5 0 
" id="m4995ff7331" style="stroke:#000000;stroke-width:1.6;"/>
      </defs>
      <g>
       <use style="stroke:#000000;stroke-width:1.6;" x="59.575" xlink:href="#m4995ff7331" y="255.695"/>
      </g>
     </g>
     <g id="text_6">
      <!-- 0.00 -->
      <g transform="translate(0.34375 263.293437)scale(0.2 -0.2)">
       <use xlink:href="#DejaVuSans-48"/>
       <use x="63.623047" xlink:href="#DejaVuSans-46"/>
       <use x="95.410156" xlink:href="#DejaVuSans-48"/>
       <use x="159.033203" xlink:href="#DejaVuSans-48"/>
      </g>
     </g>
    </g>
    <g id="ytick_2">
     <g id="line2d_6">
      <g>
       <use style="stroke:#000000;stroke-width:1.6;" x="59.575" xlink:href="#m4995ff7331" y="181.563607"/>
      </g>
     </g>
     <g id="text_7">
      <!-- 0.05 -->
      <defs>
       <path d="M 10.796875 72.90625 
L 49.515625 72.90625 
L 49.515625 64.59375 
L 19.828125 64.59375 
L 19.828125 46.734375 
Q 21.96875 47.46875 24.109375 47.828125 
Q 26.265625 48.1875 28.421875 48.1875 
Q 40.625 48.1875 47.75 41.5 
Q 54.890625 34.8125 54.890625 23.390625 
Q 54.890625 11.625 47.5625 5.09375 
Q 40.234375 -1.421875 26.90625 -1.421875 
Q 22.3125 -1.421875 17.546875 -0.640625 
Q 12.796875 0.140625 7.71875 1.703125 
L 7.71875 11.625 
Q 12.109375 9.234375 16.796875 8.0625 
Q 21.484375 6.890625 26.703125 6.890625 
Q 35.15625 6.890625 40.078125 11.328125 
Q 45.015625 15.765625 45.015625 23.390625 
Q 45.015625 31 40.078125 35.4375 
Q 35.15625 39.890625 26.703125 39.890625 
Q 22.75 39.890625 18.8125 39.015625 
Q 14.890625 38.140625 10.796875 36.28125 
z
" id="DejaVuSans-53"/>
      </defs>
      <g transform="translate(0.34375 189.162044)scale(0.2 -0.2)">
       <use xlink:href="#DejaVuSans-48"/>
       <use x="63.623047" xlink:href="#DejaVuSans-46"/>
       <use x="95.410156" xlink:href="#DejaVuSans-48"/>
       <use x="159.033203" xlink:href="#DejaVuSans-53"/>
      </g>
     </g>
    </g>
    <g id="ytick_3">
     <g id="line2d_7">
      <g>
       <use style="stroke:#000000;stroke-width:1.6;" x="59.575" xlink:href="#m4995ff7331" y="107.432213"/>
      </g>
     </g>
     <g id="text_8">
      <!-- 0.10 -->
      <defs>
       <path d="M 12.40625 8.296875 
L 28.515625 8.296875 
L 28.515625 63.921875 
L 10.984375 60.40625 
L 10.984375 69.390625 
L 28.421875 72.90625 
L 38.28125 72.90625 
L 38.28125 8.296875 
L 54.390625 8.296875 
L 54.390625 0 
L 12.40625 0 
z
" id="DejaVuSans-49"/>
      </defs>
      <g transform="translate(0.34375 115.030651)scale(0.2 -0.2)">
       <use xlink:href="#DejaVuSans-48"/>
       <use x="63.623047" xlink:href="#DejaVuSans-46"/>
       <use x="95.410156" xlink:href="#DejaVuSans-49"/>
       <use x="159.033203" xlink:href="#DejaVuSans-48"/>
      </g>
     </g>
    </g>
    <g id="ytick_4">
     <g id="line2d_8">
      <g>
       <use style="stroke:#000000;stroke-width:1.6;" x="59.575" xlink:href="#m4995ff7331" y="33.30082"/>
      </g>
     </g>
     <g id="text_9">
      <!-- 0.15 -->
      <g transform="translate(0.34375 40.899258)scale(0.2 -0.2)">
       <use xlink:href="#DejaVuSans-48"/>
       <use x="63.623047" xlink:href="#DejaVuSans-46"/>
       <use x="95.410156" xlink:href="#DejaVuSans-49"/>
       <use x="159.033203" xlink:href="#DejaVuSans-53"/>
      </g>
     </g>
    </g>
   </g>
   <g id="patch_43">
    <path d="M 59.575 255.695 
L 59.575 3.5 
" style="fill:none;stroke:#000000;stroke-linecap:square;stroke-linejoin:miter;stroke-width:0.8;"/>
   </g>
   <g id="patch_44">
    <path d="M 59.575 255.695 
L 311.77 255.695 
" style="fill:none;stroke:#000000;stroke-linecap:square;stroke-linejoin:miter;stroke-width:0.8;"/>
   </g>
  </g>
  <g id="axes_2">
   <g id="patch_45">
    <path d="M 427.13 255.695 
L 679.325 255.695 
L 679.325 3.5 
L 427.13 3.5 
z
" style="fill:#ffffff;"/>
   </g>
   <g id="PolyCollection_1">
    <defs>
     <path d="M 557.511857 -275.994426 
L 557.511857 -286.746824 
L 558.497467 -286.77954 
L 559.483077 -286.805733 
L 560.468687 -286.825863 
L 561.454297 -286.84048 
L 562.439907 -286.850222 
L 563.425517 -286.855816 
L 564.411127 -286.858071 
L 565.396737 -286.857874 
L 566.382347 -286.856191 
L 567.367957 -286.854053 
L 568.353567 -286.852558 
L 569.339177 -286.852858 
L 570.324787 -286.856154 
L 571.310397 -286.863687 
L 572.296007 -286.87673 
L 573.281617 -286.896575 
L 574.267227 -286.924529 
L 575.252837 -286.961897 
L 576.238447 -287.009978 
L 577.224057 -287.07005 
L 578.209667 -287.143359 
L 579.195277 -287.231112 
L 580.180887 -287.334459 
L 581.166497 -287.454493 
L 582.152107 -287.592228 
L 583.137717 -287.748596 
L 584.123327 -287.924437 
L 585.108937 -288.120487 
L 586.094547 -288.337371 
L 587.080157 -288.575594 
L 588.065767 -288.835535 
L 589.051377 -289.117442 
L 590.036987 -289.421421 
L 591.022597 -289.747439 
L 592.008207 -290.095316 
L 592.993817 -290.464721 
L 593.979427 -290.855176 
L 594.965037 -291.266052 
L 595.950647 -291.696573 
L 596.936257 -292.145812 
L 597.921867 -292.612704 
L 598.907477 -293.096043 
L 599.893087 -293.594492 
L 600.878697 -294.106586 
L 601.864307 -294.630746 
L 602.849917 -295.165283 
L 603.835527 -295.708409 
L 604.821137 -296.258252 
L 605.806747 -296.812861 
L 606.792357 -297.370225 
L 607.777967 -297.928282 
L 608.763577 -298.484933 
L 609.749187 -299.038058 
L 610.734797 -299.585526 
L 611.720407 -300.125213 
L 612.706017 -300.655014 
L 613.691627 -301.172856 
L 614.677237 -301.676712 
L 615.662847 -302.164613 
L 616.648457 -302.634663 
L 617.634067 -303.085045 
L 618.619677 -303.514037 
L 619.605287 -303.920017 
L 620.590897 -304.301475 
L 621.576507 -304.657017 
L 622.562117 -304.985375 
L 623.547727 -305.285409 
L 624.533337 -305.556113 
L 625.518947 -305.796616 
L 626.504557 -306.006184 
L 627.490167 -306.184222 
L 628.475777 -306.330273 
L 629.461387 -306.444013 
L 630.446997 -306.525254 
L 631.432607 -306.573936 
L 632.418217 -306.590125 
L 633.403827 -306.574009 
L 634.389437 -306.525891 
L 635.375047 -306.446182 
L 636.360657 -306.3354 
L 637.346267 -306.194156 
L 638.331877 -306.023156 
L 639.317487 -305.823187 
L 640.303097 -305.595115 
L 641.288707 -305.339874 
L 642.274317 -305.058467 
L 643.259927 -304.751951 
L 644.245537 -304.421438 
L 645.231147 -304.068084 
L 646.216757 -303.693088 
L 647.202367 -303.297683 
L 648.187977 -302.883134 
L 649.173587 -302.450732 
L 650.159197 -302.001789 
L 651.144807 -301.537635 
L 652.130417 -301.059612 
L 653.116027 -300.569074 
L 654.101637 -300.067378 
L 655.087247 -299.555884 
L 655.087247 -263.185366 
L 655.087247 -263.185366 
L 654.101637 -262.673872 
L 653.116027 -262.172176 
L 652.130417 -261.681638 
L 651.144807 -261.203615 
L 650.159197 -260.739461 
L 649.173587 -260.290518 
L 648.187977 -259.858116 
L 647.202367 -259.443567 
L 646.216757 -259.048162 
L 645.231147 -258.673166 
L 644.245537 -258.319812 
L 643.259927 -257.989299 
L 642.274317 -257.682783 
L 641.288707 -257.401376 
L 640.303097 -257.146135 
L 639.317487 -256.918063 
L 638.331877 -256.718094 
L 637.346267 -256.547094 
L 636.360657 -256.40585 
L 635.375047 -256.295068 
L 634.389437 -256.215359 
L 633.403827 -256.167241 
L 632.418217 -256.151125 
L 631.432607 -256.167314 
L 630.446997 -256.215996 
L 629.461387 -256.297237 
L 628.475777 -256.410977 
L 627.490167 -256.557028 
L 626.504557 -256.735066 
L 625.518947 -256.944634 
L 624.533337 -257.185137 
L 623.547727 -257.455841 
L 622.562117 -257.755875 
L 621.576507 -258.084233 
L 620.590897 -258.439775 
L 619.605287 -258.821233 
L 618.619677 -259.227213 
L 617.634067 -259.656205 
L 616.648457 -260.106587 
L 615.662847 -260.576637 
L 614.677237 -261.064538 
L 613.691627 -261.568394 
L 612.706017 -262.086236 
L 611.720407 -262.616037 
L 610.734797 -263.155724 
L 609.749187 -263.703192 
L 608.763577 -264.256317 
L 607.777967 -264.812968 
L 606.792357 -265.371025 
L 605.806747 -265.928389 
L 604.821137 -266.482998 
L 603.835527 -267.032841 
L 602.849917 -267.575967 
L 601.864307 -268.110504 
L 600.878697 -268.634664 
L 599.893087 -269.146758 
L 598.907477 -269.645207 
L 597.921867 -270.128546 
L 596.936257 -270.595438 
L 595.950647 -271.044677 
L 594.965037 -271.475198 
L 593.979427 -271.886074 
L 592.993817 -272.276529 
L 592.008207 -272.645934 
L 591.022597 -272.993811 
L 590.036987 -273.319829 
L 589.051377 -273.623808 
L 588.065767 -273.905715 
L 587.080157 -274.165656 
L 586.094547 -274.403879 
L 585.108937 -274.620763 
L 584.123327 -274.816813 
L 583.137717 -274.992654 
L 582.152107 -275.149022 
L 581.166497 -275.286757 
L 580.180887 -275.406791 
L 579.195277 -275.510138 
L 578.209667 -275.597891 
L 577.224057 -275.6712 
L 576.238447 -275.731272 
L 575.252837 -275.779353 
L 574.267227 -275.816721 
L 573.281617 -275.844675 
L 572.296007 -275.86452 
L 571.310397 -275.877563 
L 570.324787 -275.885096 
L 569.339177 -275.888392 
L 568.353567 -275.888692 
L 567.367957 -275.887197 
L 566.382347 -275.885059 
L 565.396737 -275.883376 
L 564.411127 -275.883179 
L 563.425517 -275.885434 
L 562.439907 -275.891028 
L 561.454297 -275.90077 
L 560.468687 -275.915387 
L 559.483077 -275.935517 
L 558.497467 -275.96171 
L 557.511857 -275.994426 
z
" id="mab7e4e43e6" style="stroke:#575757;"/>
    </defs>
    <g clip-path="url(#p5a4c261780)">
     <use style="fill:#7c78ab;stroke:#575757;" x="0" xlink:href="#mab7e4e43e6" y="316.395"/>
    </g>
   </g>
   <g id="PolyCollection_2">
    <defs>
     <path d="M 443.625455 -216.797603 
L 443.625455 -219.846147 
L 445.947608 -219.834349 
L 448.269761 -219.79088 
L 450.591914 -219.718465 
L 452.914067 -219.621519 
L 455.23622 -219.505707 
L 457.558373 -219.377395 
L 459.880526 -219.243075 
L 462.202679 -219.108836 
L 464.524832 -218.97994 
L 466.846985 -218.860525 
L 469.169138 -218.753477 
L 471.491291 -218.660437 
L 473.813445 -218.581926 
L 476.135598 -218.517558 
L 478.457751 -218.466283 
L 480.779904 -218.426653 
L 483.102057 -218.397046 
L 485.42421 -218.375869 
L 487.746363 -218.361698 
L 490.068516 -218.353379 
L 492.390669 -218.350078 
L 494.712822 -218.351304 
L 497.034975 -218.356894 
L 499.357128 -218.36698 
L 501.679281 -218.381939 
L 504.001434 -218.402333 
L 506.323587 -218.428828 
L 508.64574 -218.462125 
L 510.967893 -218.502869 
L 513.290046 -218.551582 
L 515.6122 -218.608597 
L 517.934353 -218.67402 
L 520.256506 -218.747721 
L 522.578659 -218.829354 
L 524.900812 -218.918415 
L 527.222965 -219.01432 
L 529.545118 -219.116504 
L 531.867271 -219.224511 
L 534.189424 -219.338076 
L 536.511577 -219.457172 
L 538.83373 -219.582014 
L 541.155883 -219.713031 
L 543.478036 -219.850794 
L 545.800189 -219.995938 
L 548.122342 -220.149078 
L 550.444495 -220.310758 
L 552.766648 -220.481444 
L 555.088801 -220.661584 
L 557.410955 -220.851716 
L 559.733108 -221.052643 
L 562.055261 -221.265628 
L 564.377414 -221.492584 
L 566.699567 -221.736225 
L 569.02172 -222.000123 
L 571.343873 -222.288663 
L 573.666026 -222.606839 
L 575.988179 -222.959926 
L 578.310332 -223.353018 
L 580.632485 -223.790497 
L 582.954638 -224.27548 
L 585.276791 -224.809325 
L 587.598944 -225.391285 
L 589.921097 -226.01836 
L 592.24325 -226.685414 
L 594.565403 -227.385551 
L 596.887556 -228.110747 
L 599.20971 -228.852645 
L 601.531863 -229.603445 
L 603.854016 -230.356738 
L 606.176169 -231.108201 
L 608.498322 -231.856006 
L 610.820475 -232.600917 
L 613.142628 -233.345996 
L 615.464781 -234.095976 
L 617.786934 -234.856331 
L 620.109087 -235.632147 
L 622.43124 -236.426912 
L 624.753393 -237.24133 
L 627.075546 -238.072294 
L 629.397699 -238.912111 
L 631.719852 -239.748056 
L 634.042005 -240.562336 
L 636.364158 -241.332473 
L 638.686311 -242.032125 
L 641.008465 -242.632314 
L 643.330618 -243.102996 
L 645.652771 -243.414881 
L 647.974924 -243.541375 
L 650.297077 -243.460498 
L 652.61923 -243.156614 
L 654.941383 -242.621837 
L 657.263536 -241.856959 
L 659.585689 -240.871835 
L 661.907842 -239.685163 
L 664.229995 -238.323673 
L 666.552148 -236.82078 
L 668.874301 -235.214812 
L 671.196454 -233.546937 
L 673.518607 -231.858966 
L 673.518607 -204.784784 
L 673.518607 -204.784784 
L 671.196454 -203.096813 
L 668.874301 -201.428938 
L 666.552148 -199.82297 
L 664.229995 -198.320077 
L 661.907842 -196.958587 
L 659.585689 -195.771915 
L 657.263536 -194.786791 
L 654.941383 -194.021913 
L 652.61923 -193.487136 
L 650.297077 -193.183252 
L 647.974924 -193.102375 
L 645.652771 -193.228869 
L 643.330618 -193.540754 
L 641.008465 -194.011436 
L 638.686311 -194.611625 
L 636.364158 -195.311277 
L 634.042005 -196.081414 
L 631.719852 -196.895694 
L 629.397699 -197.731639 
L 627.075546 -198.571456 
L 624.753393 -199.40242 
L 622.43124 -200.216838 
L 620.109087 -201.011603 
L 617.786934 -201.787419 
L 615.464781 -202.547774 
L 613.142628 -203.297754 
L 610.820475 -204.042833 
L 608.498322 -204.787744 
L 606.176169 -205.535549 
L 603.854016 -206.287012 
L 601.531863 -207.040305 
L 599.20971 -207.791105 
L 596.887556 -208.533003 
L 594.565403 -209.258199 
L 592.24325 -209.958336 
L 589.921097 -210.62539 
L 587.598944 -211.252465 
L 585.276791 -211.834425 
L 582.954638 -212.36827 
L 580.632485 -212.853253 
L 578.310332 -213.290732 
L 575.988179 -213.683824 
L 573.666026 -214.036911 
L 571.343873 -214.355087 
L 569.02172 -214.643627 
L 566.699567 -214.907525 
L 564.377414 -215.151166 
L 562.055261 -215.378122 
L 559.733108 -215.591107 
L 557.410955 -215.792034 
L 555.088801 -215.982166 
L 552.766648 -216.162306 
L 550.444495 -216.332992 
L 548.122342 -216.494672 
L 545.800189 -216.647812 
L 543.478036 -216.792956 
L 541.155883 -216.930719 
L 538.83373 -217.061736 
L 536.511577 -217.186578 
L 534.189424 -217.305674 
L 531.867271 -217.419239 
L 529.545118 -217.527246 
L 527.222965 -217.62943 
L 524.900812 -217.725335 
L 522.578659 -217.814396 
L 520.256506 -217.896029 
L 517.934353 -217.96973 
L 515.6122 -218.035153 
L 513.290046 -218.092168 
L 510.967893 -218.140881 
L 508.64574 -218.181625 
L 506.323587 -218.214922 
L 504.001434 -218.241417 
L 501.679281 -218.261811 
L 499.357128 -218.27677 
L 497.034975 -218.286856 
L 494.712822 -218.292446 
L 492.390669 -218.293672 
L 490.068516 -218.290371 
L 487.746363 -218.282052 
L 485.42421 -218.267881 
L 483.102057 -218.246704 
L 480.779904 -218.217097 
L 478.457751 -218.177467 
L 476.135598 -218.126192 
L 473.813445 -218.061824 
L 471.491291 -217.983313 
L 469.169138 -217.890273 
L 466.846985 -217.783225 
L 464.524832 -217.66381 
L 462.202679 -217.534914 
L 459.880526 -217.400675 
L 457.558373 -217.266355 
L 455.23622 -217.138043 
L 452.914067 -217.022231 
L 450.591914 -216.925285 
L 448.269761 -216.85287 
L 445.947608 -216.809401 
L 443.625455 -216.797603 
z
" id="m0c58fc822d" style="stroke:#575757;"/>
    </defs>
    <g clip-path="url(#p5a4c261780)">
     <use style="fill:#7c78ab;stroke:#575757;" x="0" xlink:href="#m0c58fc822d" y="316.395"/>
    </g>
   </g>
   <g id="PolyCollection_3">
    <defs>
     <path d="M 443.682641 -154.347856 
L 443.682641 -156.198394 
L 446.031549 -156.186745 
L 448.380457 -156.146345 
L 450.729364 -156.080997 
L 453.078272 -155.996597 
L 455.42718 -155.900261 
L 457.776087 -155.799338 
L 460.124995 -155.700514 
L 462.473903 -155.60913 
L 464.82281 -155.528825 
L 467.171718 -155.461483 
L 469.520626 -155.407439 
L 471.869533 -155.365848 
L 474.218441 -155.335117 
L 476.567349 -155.313309 
L 478.916256 -155.298467 
L 481.265164 -155.288843 
L 483.614072 -155.283019 
L 485.96298 -155.279959 
L 488.311887 -155.279004 
L 490.660795 -155.279844 
L 493.009703 -155.282467 
L 495.35861 -155.287115 
L 497.707518 -155.294226 
L 500.056426 -155.304359 
L 502.405333 -155.318112 
L 504.754241 -155.336011 
L 507.103149 -155.358384 
L 509.452056 -155.385247 
L 511.800964 -155.416207 
L 514.149872 -155.450432 
L 516.498779 -155.486704 
L 518.847687 -155.523578 
L 521.196595 -155.559634 
L 523.545502 -155.593814 
L 525.89441 -155.625763 
L 528.243318 -155.656152 
L 530.592225 -155.686876 
L 532.941133 -155.721119 
L 535.290041 -155.763224 
L 537.638948 -155.818399 
L 539.987856 -155.892267 
L 542.336764 -155.990316 
L 544.685672 -156.117302 
L 547.034579 -156.276652 
L 549.383487 -156.469931 
L 551.732395 -156.696418 
L 554.081302 -156.952849 
L 556.43021 -157.233363 
L 558.779118 -157.529723 
L 561.128025 -157.831816 
L 563.476933 -158.128445 
L 565.825841 -158.408363 
L 568.174748 -158.661454 
L 570.523656 -158.87993 
L 572.872564 -159.059376 
L 575.221471 -159.199459 
L 577.570379 -159.304196 
L 579.919287 -159.38166 
L 582.268194 -159.443165 
L 584.617102 -159.501998 
L 586.96601 -159.571896 
L 589.314917 -159.665484 
L 591.663825 -159.79293 
L 594.012733 -159.961014 
L 596.36164 -160.17276 
L 598.710548 -160.427646 
L 601.059456 -160.722343 
L 603.408364 -161.051821 
L 605.757271 -161.410613 
L 608.106179 -161.794056 
L 610.455087 -162.19932 
L 612.803994 -162.626139 
L 615.152902 -163.077221 
L 617.50181 -163.55835 
L 619.850717 -164.078248 
L 622.199625 -164.648224 
L 624.548533 -165.28161 
L 626.89744 -165.992916 
L 629.246348 -166.796607 
L 631.595256 -167.70542 
L 633.944163 -168.728215 
L 636.293071 -169.867441 
L 638.641979 -171.116508 
L 640.990886 -172.457409 
L 643.339794 -173.85908 
L 645.688702 -175.276901 
L 648.037609 -176.653699 
L 650.386517 -177.922372 
L 652.735425 -179.010082 
L 655.084332 -179.843718 
L 657.43324 -180.356145 
L 659.782148 -180.492625 
L 662.131056 -180.216708 
L 664.479963 -179.514864 
L 666.828871 -178.399222 
L 669.177779 -176.907904 
L 671.526686 -175.102719 
L 673.875594 -173.064312 
L 676.224502 -170.885243 
L 676.224502 -139.661007 
L 676.224502 -139.661007 
L 673.875594 -137.481938 
L 671.526686 -135.443531 
L 669.177779 -133.638346 
L 666.828871 -132.147028 
L 664.479963 -131.031386 
L 662.131056 -130.329542 
L 659.782148 -130.053625 
L 657.43324 -130.190105 
L 655.084332 -130.702532 
L 652.735425 -131.536168 
L 650.386517 -132.623878 
L 648.037609 -133.892551 
L 645.688702 -135.269349 
L 643.339794 -136.68717 
L 640.990886 -138.088841 
L 638.641979 -139.429742 
L 636.293071 -140.678809 
L 633.944163 -141.818035 
L 631.595256 -142.84083 
L 629.246348 -143.749643 
L 626.89744 -144.553334 
L 624.548533 -145.26464 
L 622.199625 -145.898026 
L 619.850717 -146.468002 
L 617.50181 -146.9879 
L 615.152902 -147.469029 
L 612.803994 -147.920111 
L 610.455087 -148.34693 
L 608.106179 -148.752194 
L 605.757271 -149.135637 
L 603.408364 -149.494429 
L 601.059456 -149.823907 
L 598.710548 -150.118604 
L 596.36164 -150.37349 
L 594.012733 -150.585236 
L 591.663825 -150.75332 
L 589.314917 -150.880766 
L 586.96601 -150.974354 
L 584.617102 -151.044252 
L 582.268194 -151.103085 
L 579.919287 -151.16459 
L 577.570379 -151.242054 
L 575.221471 -151.346791 
L 572.872564 -151.486874 
L 570.523656 -151.66632 
L 568.174748 -151.884796 
L 565.825841 -152.137887 
L 563.476933 -152.417805 
L 561.128025 -152.714434 
L 558.779118 -153.016527 
L 556.43021 -153.312887 
L 554.081302 -153.593401 
L 551.732395 -153.849832 
L 549.383487 -154.076319 
L 547.034579 -154.269598 
L 544.685672 -154.428948 
L 542.336764 -154.555934 
L 539.987856 -154.653983 
L 537.638948 -154.727851 
L 535.290041 -154.783026 
L 532.941133 -154.825131 
L 530.592225 -154.859374 
L 528.243318 -154.890098 
L 525.89441 -154.920487 
L 523.545502 -154.952436 
L 521.196595 -154.986616 
L 518.847687 -155.022672 
L 516.498779 -155.059546 
L 514.149872 -155.095818 
L 511.800964 -155.130043 
L 509.452056 -155.161003 
L 507.103149 -155.187866 
L 504.754241 -155.210239 
L 502.405333 -155.228138 
L 500.056426 -155.241891 
L 497.707518 -155.252024 
L 495.35861 -155.259135 
L 493.009703 -155.263783 
L 490.660795 -155.266406 
L 488.311887 -155.267246 
L 485.96298 -155.266291 
L 483.614072 -155.263231 
L 481.265164 -155.257407 
L 478.916256 -155.247783 
L 476.567349 -155.232941 
L 474.218441 -155.211133 
L 471.869533 -155.180402 
L 469.520626 -155.138811 
L 467.171718 -155.084767 
L 464.82281 -155.017425 
L 462.473903 -154.93712 
L 460.124995 -154.845736 
L 457.776087 -154.746912 
L 455.42718 -154.645989 
L 453.078272 -154.549653 
L 450.729364 -154.465253 
L 448.380457 -154.399905 
L 446.031549 -154.359505 
L 443.682641 -154.347856 
z
" id="me652f5aa3a" style="stroke:#575757;"/>
    </defs>
    <g clip-path="url(#p5a4c261780)">
     <use style="fill:#7c78ab;stroke:#575757;" x="0" xlink:href="#me652f5aa3a" y="316.395"/>
    </g>
   </g>
   <g id="PolyCollection_4">
    <defs>
     <path d="M 519.490595 -90.533505 
L 519.490595 -93.915245 
L 521.080053 -94.132557 
L 522.669511 -94.356049 
L 524.258968 -94.582193 
L 525.848426 -94.807231 
L 527.437884 -95.027351 
L 529.027342 -95.238874 
L 530.616799 -95.438444 
L 532.206257 -95.623203 
L 533.795715 -95.790931 
L 535.385172 -95.940149 
L 536.97463 -96.070171 
L 538.564088 -96.181098 
L 540.153545 -96.273759 
L 541.743003 -96.349608 
L 543.332461 -96.410575 
L 544.921919 -96.458901 
L 546.511376 -96.496957 
L 548.100834 -96.527073 
L 549.690292 -96.551386 
L 551.279749 -96.571719 
L 552.869207 -96.589496 
L 554.458665 -96.605703 
L 556.048123 -96.620882 
L 557.63758 -96.635168 
L 559.227038 -96.648341 
L 560.816496 -96.659906 
L 562.405953 -96.669176 
L 563.995411 -96.675348 
L 565.584869 -96.677585 
L 567.174327 -96.675074 
L 568.763784 -96.66708 
L 570.353242 -96.652986 
L 571.9427 -96.632323 
L 573.532157 -96.6048 
L 575.121615 -96.570321 
L 576.711073 -96.529011 
L 578.30053 -96.481231 
L 579.889988 -96.427598 
L 581.479446 -96.368981 
L 583.068904 -96.306504 
L 584.658361 -96.241521 
L 586.247819 -96.175574 
L 587.837277 -96.110338 
L 589.426734 -96.047547 
L 591.016192 -95.988906 
L 592.60565 -95.936006 
L 594.195108 -95.890242 
L 595.784565 -95.852734 
L 597.374023 -95.824285 
L 598.963481 -95.80535 
L 600.552938 -95.796046 
L 602.142396 -95.79619 
L 603.731854 -95.805364 
L 605.321312 -95.82301 
L 606.910769 -95.848544 
L 608.500227 -95.881486 
L 610.089685 -95.921591 
L 611.679142 -95.96898 
L 613.2686 -96.024268 
L 614.858058 -96.088664 
L 616.447515 -96.164056 
L 618.036973 -96.253066 
L 619.626431 -96.359073 
L 621.215889 -96.486192 
L 622.805346 -96.639228 
L 624.394804 -96.823584 
L 625.984262 -97.045139 
L 627.573719 -97.310094 
L 629.163177 -97.624801 
L 630.752635 -97.995566 
L 632.342093 -98.428446 
L 633.93155 -98.929042 
L 635.521008 -99.502278 
L 637.110466 -100.152185 
L 638.699923 -100.881664 
L 640.289381 -101.692238 
L 641.878839 -102.583773 
L 643.468297 -103.554177 
L 645.057754 -104.599061 
L 646.647212 -105.711388 
L 648.23667 -106.881116 
L 649.826127 -108.09488 
L 651.415585 -109.335742 
L 653.005043 -110.58309 
L 654.594501 -111.812711 
L 656.183958 -112.997119 
L 657.773416 -114.10617 
L 659.362874 -115.107988 
L 660.952331 -115.970182 
L 662.541789 -116.66133 
L 664.131247 -117.152633 
L 665.720704 -117.419637 
L 667.310162 -117.443875 
L 668.89962 -117.214294 
L 670.489078 -116.728321 
L 672.078535 -115.992441 
L 673.667993 -115.022226 
L 675.257451 -113.841759 
L 676.846908 -112.482504 
L 676.846908 -71.966246 
L 676.846908 -71.966246 
L 675.257451 -70.606991 
L 673.667993 -69.426524 
L 672.078535 -68.456309 
L 670.489078 -67.720429 
L 668.89962 -67.234456 
L 667.310162 -67.004875 
L 665.720704 -67.029113 
L 664.131247 -67.296117 
L 662.541789 -67.78742 
L 660.952331 -68.478568 
L 659.362874 -69.340762 
L 657.773416 -70.34258 
L 656.183958 -71.451631 
L 654.594501 -72.636039 
L 653.005043 -73.86566 
L 651.415585 -75.113008 
L 649.826127 -76.35387 
L 648.23667 -77.567634 
L 646.647212 -78.737362 
L 645.057754 -79.849689 
L 643.468297 -80.894573 
L 641.878839 -81.864977 
L 640.289381 -82.756512 
L 638.699923 -83.567086 
L 637.110466 -84.296565 
L 635.521008 -84.946472 
L 633.93155 -85.519708 
L 632.342093 -86.020304 
L 630.752635 -86.453184 
L 629.163177 -86.823949 
L 627.573719 -87.138656 
L 625.984262 -87.403611 
L 624.394804 -87.625166 
L 622.805346 -87.809522 
L 621.215889 -87.962558 
L 619.626431 -88.089677 
L 618.036973 -88.195684 
L 616.447515 -88.284694 
L 614.858058 -88.360086 
L 613.2686 -88.424482 
L 611.679142 -88.47977 
L 610.089685 -88.527159 
L 608.500227 -88.567264 
L 606.910769 -88.600206 
L 605.321312 -88.62574 
L 603.731854 -88.643386 
L 602.142396 -88.65256 
L 600.552938 -88.652704 
L 598.963481 -88.6434 
L 597.374023 -88.624465 
L 595.784565 -88.596016 
L 594.195108 -88.558508 
L 592.60565 -88.512744 
L 591.016192 -88.459844 
L 589.426734 -88.401203 
L 587.837277 -88.338412 
L 586.247819 -88.273176 
L 584.658361 -88.207229 
L 583.068904 -88.142246 
L 581.479446 -88.079769 
L 579.889988 -88.021152 
L 578.30053 -87.967519 
L 576.711073 -87.919739 
L 575.121615 -87.878429 
L 573.532157 -87.84395 
L 571.9427 -87.816427 
L 570.353242 -87.795764 
L 568.763784 -87.78167 
L 567.174327 -87.773676 
L 565.584869 -87.771165 
L 563.995411 -87.773402 
L 562.405953 -87.779574 
L 560.816496 -87.788844 
L 559.227038 -87.800409 
L 557.63758 -87.813582 
L 556.048123 -87.827868 
L 554.458665 -87.843047 
L 552.869207 -87.859254 
L 551.279749 -87.877031 
L 549.690292 -87.897364 
L 548.100834 -87.921677 
L 546.511376 -87.951793 
L 544.921919 -87.989849 
L 543.332461 -88.038175 
L 541.743003 -88.099142 
L 540.153545 -88.174991 
L 538.564088 -88.267652 
L 536.97463 -88.378579 
L 535.385172 -88.508601 
L 533.795715 -88.657819 
L 532.206257 -88.825547 
L 530.616799 -89.010306 
L 529.027342 -89.209876 
L 527.437884 -89.421399 
L 525.848426 -89.641519 
L 524.258968 -89.866557 
L 522.669511 -90.092701 
L 521.080053 -90.316193 
L 519.490595 -90.533505 
z
" id="m4023475e8b" style="stroke:#575757;"/>
    </defs>
    <g clip-path="url(#p5a4c261780)">
     <use style="fill:#7c78ab;stroke:#575757;" x="0" xlink:href="#m4023475e8b" y="316.395"/>
    </g>
   </g>
   <g id="patch_46">
    <path clip-path="url(#p5a4c261780)" d="M 443.943 35.024375 
L 443.943 35.024375 
L 443.943 35.024375 
L 443.943 35.024375 
z
" style="fill:#7c78ab;stroke:#575757;stroke-linejoin:miter;stroke-width:0.5;"/>
   </g>
   <g id="matplotlib.axis_3">
    <g id="xtick_5">
     <g id="line2d_9">
      <g>
       <use style="stroke:#000000;stroke-width:1.6;" x="443.943" xlink:href="#m3c85a5d10d" y="255.695"/>
      </g>
     </g>
     <g id="text_10">
      <!-- 0.0 -->
      <g transform="translate(428.039875 285.591875)scale(0.2 -0.2)">
       <use xlink:href="#DejaVuSans-48"/>
       <use x="63.623047" xlink:href="#DejaVuSans-46"/>
       <use x="95.410156" xlink:href="#DejaVuSans-48"/>
      </g>
     </g>
    </g>
    <g id="xtick_6">
     <g id="line2d_10">
      <g>
       <use style="stroke:#000000;stroke-width:1.6;" x="511.195" xlink:href="#m3c85a5d10d" y="255.695"/>
      </g>
     </g>
     <g id="text_11">
      <!-- 0.2 -->
      <g transform="translate(495.291875 285.591875)scale(0.2 -0.2)">
       <use xlink:href="#DejaVuSans-48"/>
       <use x="63.623047" xlink:href="#DejaVuSans-46"/>
       <use x="95.410156" xlink:href="#DejaVuSans-50"/>
      </g>
     </g>
    </g>
    <g id="xtick_7">
     <g id="line2d_11">
      <g>
       <use style="stroke:#000000;stroke-width:1.6;" x="578.447" xlink:href="#m3c85a5d10d" y="255.695"/>
      </g>
     </g>
     <g id="text_12">
      <!-- 0.4 -->
      <g transform="translate(562.543875 285.591875)scale(0.2 -0.2)">
       <use xlink:href="#DejaVuSans-48"/>
       <use x="63.623047" xlink:href="#DejaVuSans-46"/>
       <use x="95.410156" xlink:href="#DejaVuSans-52"/>
      </g>
     </g>
    </g>
    <g id="xtick_8">
     <g id="line2d_12">
      <g>
       <use style="stroke:#000000;stroke-width:1.6;" x="645.699" xlink:href="#m3c85a5d10d" y="255.695"/>
      </g>
     </g>
     <g id="text_13">
      <!-- 0.6 -->
      <g transform="translate(629.795875 285.591875)scale(0.2 -0.2)">
       <use xlink:href="#DejaVuSans-48"/>
       <use x="63.623047" xlink:href="#DejaVuSans-46"/>
       <use x="95.410156" xlink:href="#DejaVuSans-54"/>
      </g>
     </g>
    </g>
    <g id="text_14">
     <!-- Max Attention -->
     <defs>
      <path d="M 34.1875 63.1875 
L 20.796875 26.90625 
L 47.609375 26.90625 
z
M 28.609375 72.90625 
L 39.796875 72.90625 
L 67.578125 0 
L 57.328125 0 
L 50.6875 18.703125 
L 17.828125 18.703125 
L 11.1875 0 
L 0.78125 0 
z
" id="DejaVuSans-65"/>
      <path d="M 30.609375 48.390625 
Q 23.390625 48.390625 19.1875 42.75 
Q 14.984375 37.109375 14.984375 27.296875 
Q 14.984375 17.484375 19.15625 11.84375 
Q 23.34375 6.203125 30.609375 6.203125 
Q 37.796875 6.203125 41.984375 11.859375 
Q 46.1875 17.53125 46.1875 27.296875 
Q 46.1875 37.015625 41.984375 42.703125 
Q 37.796875 48.390625 30.609375 48.390625 
z
M 30.609375 56 
Q 42.328125 56 49.015625 48.375 
Q 55.71875 40.765625 55.71875 27.296875 
Q 55.71875 13.875 49.015625 6.21875 
Q 42.328125 -1.421875 30.609375 -1.421875 
Q 18.84375 -1.421875 12.171875 6.21875 
Q 5.515625 13.875 5.515625 27.296875 
Q 5.515625 40.765625 12.171875 48.375 
Q 18.84375 56 30.609375 56 
z
" id="DejaVuSans-111"/>
     </defs>
     <g transform="translate(483.049375 308.948125)scale(0.2 -0.2)">
      <use xlink:href="#DejaVuSans-77"/>
      <use x="86.279297" xlink:href="#DejaVuSans-97"/>
      <use x="147.558594" xlink:href="#DejaVuSans-120"/>
      <use x="206.738281" xlink:href="#DejaVuSans-32"/>
      <use x="238.525391" xlink:href="#DejaVuSans-65"/>
      <use x="306.917969" xlink:href="#DejaVuSans-116"/>
      <use x="346.126953" xlink:href="#DejaVuSans-116"/>
      <use x="385.335938" xlink:href="#DejaVuSans-101"/>
      <use x="446.859375" xlink:href="#DejaVuSans-110"/>
      <use x="510.238281" xlink:href="#DejaVuSans-116"/>
      <use x="549.447266" xlink:href="#DejaVuSans-105"/>
      <use x="577.230469" xlink:href="#DejaVuSans-111"/>
      <use x="638.412109" xlink:href="#DejaVuSans-110"/>
     </g>
    </g>
   </g>
   <g id="matplotlib.axis_4">
    <g id="ytick_5">
     <g id="line2d_13">
      <g>
       <use style="stroke:#000000;stroke-width:1.6;" x="427.13" xlink:href="#m4995ff7331" y="35.024375"/>
      </g>
     </g>
     <g id="text_15">
      <!-- [0.00, -->
      <defs>
       <path d="M 8.59375 75.984375 
L 29.296875 75.984375 
L 29.296875 69 
L 17.578125 69 
L 17.578125 -6.203125 
L 29.296875 -6.203125 
L 29.296875 -13.1875 
L 8.59375 -13.1875 
z
" id="DejaVuSans-91"/>
       <path d="M 11.71875 12.40625 
L 22.015625 12.40625 
L 22.015625 4 
L 14.015625 -11.625 
L 7.71875 -11.625 
L 11.71875 4 
z
" id="DejaVuSans-44"/>
      </defs>
      <g transform="translate(353.739375 31.425)scale(0.2 -0.2)">
       <use xlink:href="#DejaVuSans-91"/>
       <use x="39.013672" xlink:href="#DejaVuSans-48"/>
       <use x="102.636719" xlink:href="#DejaVuSans-46"/>
       <use x="134.423828" xlink:href="#DejaVuSans-48"/>
       <use x="198.046875" xlink:href="#DejaVuSans-48"/>
       <use x="261.669922" xlink:href="#DejaVuSans-44"/>
      </g>
      <!-- 0.25) -->
      <defs>
       <path d="M 8.015625 75.875 
L 15.828125 75.875 
Q 23.140625 64.359375 26.78125 53.3125 
Q 30.421875 42.28125 30.421875 31.390625 
Q 30.421875 20.453125 26.78125 9.375 
Q 23.140625 -1.703125 15.828125 -13.1875 
L 8.015625 -13.1875 
Q 14.5 -2 17.703125 9.0625 
Q 20.90625 20.125 20.90625 31.390625 
Q 20.90625 42.671875 17.703125 53.65625 
Q 14.5 64.65625 8.015625 75.875 
z
" id="DejaVuSans-41"/>
      </defs>
      <g transform="translate(360.095625 53.820625)scale(0.2 -0.2)">
       <use xlink:href="#DejaVuSans-48"/>
       <use x="63.623047" xlink:href="#DejaVuSans-46"/>
       <use x="95.410156" xlink:href="#DejaVuSans-50"/>
       <use x="159.033203" xlink:href="#DejaVuSans-53"/>
       <use x="222.65625" xlink:href="#DejaVuSans-41"/>
      </g>
     </g>
    </g>
    <g id="ytick_6">
     <g id="line2d_14">
      <g>
       <use style="stroke:#000000;stroke-width:1.6;" x="427.13" xlink:href="#m4995ff7331" y="98.073125"/>
      </g>
     </g>
     <g id="text_16">
      <!-- [0.25, -->
      <g transform="translate(353.739375 94.47375)scale(0.2 -0.2)">
       <use xlink:href="#DejaVuSans-91"/>
       <use x="39.013672" xlink:href="#DejaVuSans-48"/>
       <use x="102.636719" xlink:href="#DejaVuSans-46"/>
       <use x="134.423828" xlink:href="#DejaVuSans-50"/>
       <use x="198.046875" xlink:href="#DejaVuSans-53"/>
       <use x="261.669922" xlink:href="#DejaVuSans-44"/>
      </g>
      <!-- 0.50) -->
      <g transform="translate(360.095625 116.869375)scale(0.2 -0.2)">
       <use xlink:href="#DejaVuSans-48"/>
       <use x="63.623047" xlink:href="#DejaVuSans-46"/>
       <use x="95.410156" xlink:href="#DejaVuSans-53"/>
       <use x="159.033203" xlink:href="#DejaVuSans-48"/>
       <use x="222.65625" xlink:href="#DejaVuSans-41"/>
      </g>
     </g>
    </g>
    <g id="ytick_7">
     <g id="line2d_15">
      <g>
       <use style="stroke:#000000;stroke-width:1.6;" x="427.13" xlink:href="#m4995ff7331" y="161.121875"/>
      </g>
     </g>
     <g id="text_17">
      <!-- [0.50, -->
      <g transform="translate(353.739375 157.5225)scale(0.2 -0.2)">
       <use xlink:href="#DejaVuSans-91"/>
       <use x="39.013672" xlink:href="#DejaVuSans-48"/>
       <use x="102.636719" xlink:href="#DejaVuSans-46"/>
       <use x="134.423828" xlink:href="#DejaVuSans-53"/>
       <use x="198.046875" xlink:href="#DejaVuSans-48"/>
       <use x="261.669922" xlink:href="#DejaVuSans-44"/>
      </g>
      <!-- 0.75) -->
      <defs>
       <path d="M 8.203125 72.90625 
L 55.078125 72.90625 
L 55.078125 68.703125 
L 28.609375 0 
L 18.3125 0 
L 43.21875 64.59375 
L 8.203125 64.59375 
z
" id="DejaVuSans-55"/>
      </defs>
      <g transform="translate(360.095625 179.918125)scale(0.2 -0.2)">
       <use xlink:href="#DejaVuSans-48"/>
       <use x="63.623047" xlink:href="#DejaVuSans-46"/>
       <use x="95.410156" xlink:href="#DejaVuSans-55"/>
       <use x="159.033203" xlink:href="#DejaVuSans-53"/>
       <use x="222.65625" xlink:href="#DejaVuSans-41"/>
      </g>
     </g>
    </g>
    <g id="ytick_8">
     <g id="line2d_16">
      <g>
       <use style="stroke:#000000;stroke-width:1.6;" x="427.13" xlink:href="#m4995ff7331" y="224.170625"/>
      </g>
     </g>
     <g id="text_18">
      <!-- [0.75, -->
      <g transform="translate(353.739375 220.57125)scale(0.2 -0.2)">
       <use xlink:href="#DejaVuSans-91"/>
       <use x="39.013672" xlink:href="#DejaVuSans-48"/>
       <use x="102.636719" xlink:href="#DejaVuSans-46"/>
       <use x="134.423828" xlink:href="#DejaVuSans-55"/>
       <use x="198.046875" xlink:href="#DejaVuSans-53"/>
       <use x="261.669922" xlink:href="#DejaVuSans-44"/>
      </g>
      <!-- 1.00) -->
      <g transform="translate(360.095625 242.966875)scale(0.2 -0.2)">
       <use xlink:href="#DejaVuSans-49"/>
       <use x="63.623047" xlink:href="#DejaVuSans-46"/>
       <use x="95.410156" xlink:href="#DejaVuSans-48"/>
       <use x="159.033203" xlink:href="#DejaVuSans-48"/>
       <use x="222.65625" xlink:href="#DejaVuSans-41"/>
      </g>
     </g>
    </g>
    <g id="text_19">
     <!-- Max JS Divergence within $\epsilon$ -->
     <g transform="translate(345.539375 265.1975)rotate(-90)scale(0.2 -0.2)">
      <use transform="translate(0 0.015625)" xlink:href="#DejaVuSans-77"/>
      <use transform="translate(86.279297 0.015625)" xlink:href="#DejaVuSans-97"/>
      <use transform="translate(147.558594 0.015625)" xlink:href="#DejaVuSans-120"/>
      <use transform="translate(206.738281 0.015625)" xlink:href="#DejaVuSans-32"/>
      <use transform="translate(238.525391 0.015625)" xlink:href="#DejaVuSans-74"/>
      <use transform="translate(268.017578 0.015625)" xlink:href="#DejaVuSans-83"/>
      <use transform="translate(331.494141 0.015625)" xlink:href="#DejaVuSans-32"/>
      <use transform="translate(363.28125 0.015625)" xlink:href="#DejaVuSans-68"/>
      <use transform="translate(440.283203 0.015625)" xlink:href="#DejaVuSans-105"/>
      <use transform="translate(468.066406 0.015625)" xlink:href="#DejaVuSans-118"/>
      <use transform="translate(527.246094 0.015625)" xlink:href="#DejaVuSans-101"/>
      <use transform="translate(588.769531 0.015625)" xlink:href="#DejaVuSans-114"/>
      <use transform="translate(629.882812 0.015625)" xlink:href="#DejaVuSans-103"/>
      <use transform="translate(693.359375 0.015625)" xlink:href="#DejaVuSans-101"/>
      <use transform="translate(754.882812 0.015625)" xlink:href="#DejaVuSans-110"/>
      <use transform="translate(818.261719 0.015625)" xlink:href="#DejaVuSans-99"/>
      <use transform="translate(873.242188 0.015625)" xlink:href="#DejaVuSans-101"/>
      <use transform="translate(934.765625 0.015625)" xlink:href="#DejaVuSans-32"/>
      <use transform="translate(966.552734 0.015625)" xlink:href="#DejaVuSans-119"/>
      <use transform="translate(1048.339844 0.015625)" xlink:href="#DejaVuSans-105"/>
      <use transform="translate(1076.123047 0.015625)" xlink:href="#DejaVuSans-116"/>
      <use transform="translate(1115.332031 0.015625)" xlink:href="#DejaVuSans-104"/>
      <use transform="translate(1178.710938 0.015625)" xlink:href="#DejaVuSans-105"/>
      <use transform="translate(1206.494141 0.015625)" xlink:href="#DejaVuSans-110"/>
      <use transform="translate(1269.873047 0.015625)" xlink:href="#DejaVuSans-32"/>
      <use transform="translate(1301.660156 0.015625)" xlink:href="#DejaVuSans-Oblique-949"/>
     </g>
    </g>
   </g>
   <g id="line2d_17">
    <path clip-path="url(#p5a4c261780)" style="fill:none;stroke:#575757;stroke-dasharray:1.5,1.5;stroke-dashoffset:0;"/>
   </g>
   <g id="line2d_18">
    <path clip-path="url(#p5a4c261780)" style="fill:none;stroke:#575757;stroke-dasharray:3,3;stroke-dashoffset:0;"/>
   </g>
   <g id="line2d_19">
    <path clip-path="url(#p5a4c261780)" style="fill:none;stroke:#575757;stroke-dasharray:1.5,1.5;stroke-dashoffset:0;"/>
   </g>
   <g id="line2d_20">
    <path clip-path="url(#p5a4c261780)" style="fill:none;stroke:#575757;stroke-dasharray:1.5,1.5;stroke-dashoffset:0;"/>
   </g>
   <g id="line2d_21">
    <path clip-path="url(#p5a4c261780)" style="fill:none;stroke:#575757;stroke-dasharray:3,3;stroke-dashoffset:0;"/>
   </g>
   <g id="line2d_22">
    <path clip-path="url(#p5a4c261780)" style="fill:none;stroke:#575757;stroke-dasharray:1.5,1.5;stroke-dashoffset:0;"/>
   </g>
   <g id="line2d_23">
    <path clip-path="url(#p5a4c261780)" style="fill:none;stroke:#575757;stroke-dasharray:1.5,1.5;stroke-dashoffset:0;"/>
   </g>
   <g id="line2d_24">
    <path clip-path="url(#p5a4c261780)" style="fill:none;stroke:#575757;stroke-dasharray:3,3;stroke-dashoffset:0;"/>
   </g>
   <g id="line2d_25">
    <path clip-path="url(#p5a4c261780)" style="fill:none;stroke:#575757;stroke-dasharray:1.5,1.5;stroke-dashoffset:0;"/>
   </g>
   <g id="line2d_26">
    <path clip-path="url(#p5a4c261780)" style="fill:none;stroke:#575757;stroke-dasharray:1.5,1.5;stroke-dashoffset:0;"/>
   </g>
   <g id="line2d_27">
    <path clip-path="url(#p5a4c261780)" style="fill:none;stroke:#575757;stroke-dasharray:3,3;stroke-dashoffset:0;"/>
   </g>
   <g id="line2d_28">
    <path clip-path="url(#p5a4c261780)" style="fill:none;stroke:#575757;stroke-dasharray:1.5,1.5;stroke-dashoffset:0;"/>
   </g>
   <g id="patch_47">
    <path style="fill:none;stroke:#000000;stroke-linecap:square;stroke-linejoin:miter;stroke-width:0.8;"/>
   </g>
   <g id="patch_48">
    <path style="fill:none;stroke:#000000;stroke-linecap:square;stroke-linejoin:miter;stroke-width:0.8;"/>
   </g>
  </g>
 </g>
 <defs>
  <clipPath id="pff5cae8a2d">
   <rect height="252.195" width="252.195" x="59.575" y="3.5"/>
  </clipPath>
  <clipPath id="p5a4c261780">
   <rect height="252.195" width="252.195" x="427.13" y="3.5"/>
  </clipPath>
 </defs>
</svg>
