<?xml version="1.0" encoding="utf-8" standalone="no"?>
<!DOCTYPE svg PUBLIC "-//W3C//DTD SVG 1.1//EN"
  "http://www.w3.org/Graphics/SVG/1.1/DTD/svg11.dtd">
<!-- Created with matplotlib (https://matplotlib.org/) -->
<svg height="316.395pt" version="1.1" viewBox="0 0 321.893203 316.395" width="321.893203pt" xmlns="http://www.w3.org/2000/svg" xmlns:xlink="http://www.w3.org/1999/xlink">
 <defs>
  <style type="text/css">
*{stroke-linecap:butt;stroke-linejoin:round;}
  </style>
 </defs>
 <g id="figure_1">
  <g id="patch_1">
   <path d="M 0 316.395 
L 321.893203 316.395 
L 321.893203 0 
L 0 0 
z
" style="fill:#ffffff;"/>
  </g>
  <g id="axes_1">
   <g id="patch_2">
    <path d="M 59.575 255.695 
L 311.77 255.695 
L 311.77 3.5 
L 59.575 3.5 
z
" style="fill:#ffffff;"/>
   </g>
   <g id="patch_3">
    <path clip-path="url(#p1a8b7fd384)" d="M 71.038409 255.695 
L 76.770114 255.695 
L 76.770114 255.695 
L 71.038409 255.695 
z
" style="fill:#7570b3;opacity:0.6;stroke:#000000;stroke-linejoin:miter;stroke-width:0.5;"/>
   </g>
   <g id="patch_4">
    <path clip-path="url(#p1a8b7fd384)" d="M 76.770114 255.695 
L 82.501818 255.695 
L 82.501818 255.695 
L 76.770114 255.695 
z
" style="fill:#7570b3;opacity:0.6;stroke:#000000;stroke-linejoin:miter;stroke-width:0.5;"/>
   </g>
   <g id="patch_5">
    <path clip-path="url(#p1a8b7fd384)" d="M 82.501818 255.695 
L 88.233523 255.695 
L 88.233523 255.695 
L 82.501818 255.695 
z
" style="fill:#7570b3;opacity:0.6;stroke:#000000;stroke-linejoin:miter;stroke-width:0.5;"/>
   </g>
   <g id="patch_6">
    <path clip-path="url(#p1a8b7fd384)" d="M 88.233523 255.695 
L 93.965227 255.695 
L 93.965227 255.695 
L 88.233523 255.695 
z
" style="fill:#7570b3;opacity:0.6;stroke:#000000;stroke-linejoin:miter;stroke-width:0.5;"/>
   </g>
   <g id="patch_7">
    <path clip-path="url(#p1a8b7fd384)" d="M 93.965227 255.695 
L 99.696932 255.695 
L 99.696932 255.695 
L 93.965227 255.695 
z
" style="fill:#7570b3;opacity:0.6;stroke:#000000;stroke-linejoin:miter;stroke-width:0.5;"/>
   </g>
   <g id="patch_8">
    <path clip-path="url(#p1a8b7fd384)" d="M 99.696932 255.695 
L 105.428636 255.695 
L 105.428636 255.695 
L 99.696932 255.695 
z
" style="fill:#7570b3;opacity:0.6;stroke:#000000;stroke-linejoin:miter;stroke-width:0.5;"/>
   </g>
   <g id="patch_9">
    <path clip-path="url(#p1a8b7fd384)" d="M 105.428636 255.695 
L 111.160341 255.695 
L 111.160341 255.695 
L 105.428636 255.695 
z
" style="fill:#7570b3;opacity:0.6;stroke:#000000;stroke-linejoin:miter;stroke-width:0.5;"/>
   </g>
   <g id="patch_10">
    <path clip-path="url(#p1a8b7fd384)" d="M 111.160341 255.695 
L 116.892045 255.695 
L 116.892045 255.695 
L 111.160341 255.695 
z
" style="fill:#7570b3;opacity:0.6;stroke:#000000;stroke-linejoin:miter;stroke-width:0.5;"/>
   </g>
   <g id="patch_11">
    <path clip-path="url(#p1a8b7fd384)" d="M 116.892045 255.695 
L 122.62375 255.695 
L 122.62375 255.695 
L 116.892045 255.695 
z
" style="fill:#7570b3;opacity:0.6;stroke:#000000;stroke-linejoin:miter;stroke-width:0.5;"/>
   </g>
   <g id="patch_12">
    <path clip-path="url(#p1a8b7fd384)" d="M 122.62375 255.695 
L 128.355455 255.695 
L 128.355455 255.695 
L 122.62375 255.695 
z
" style="fill:#7570b3;opacity:0.6;stroke:#000000;stroke-linejoin:miter;stroke-width:0.5;"/>
   </g>
   <g id="patch_13">
    <path clip-path="url(#p1a8b7fd384)" d="M 128.355455 255.695 
L 134.087159 255.695 
L 134.087159 255.695 
L 128.355455 255.695 
z
" style="fill:#7570b3;opacity:0.6;stroke:#000000;stroke-linejoin:miter;stroke-width:0.5;"/>
   </g>
   <g id="patch_14">
    <path clip-path="url(#p1a8b7fd384)" d="M 134.087159 255.695 
L 139.818864 255.695 
L 139.818864 255.695 
L 134.087159 255.695 
z
" style="fill:#7570b3;opacity:0.6;stroke:#000000;stroke-linejoin:miter;stroke-width:0.5;"/>
   </g>
   <g id="patch_15">
    <path clip-path="url(#p1a8b7fd384)" d="M 139.818864 255.695 
L 145.550568 255.695 
L 145.550568 255.695 
L 139.818864 255.695 
z
" style="fill:#7570b3;opacity:0.6;stroke:#000000;stroke-linejoin:miter;stroke-width:0.5;"/>
   </g>
   <g id="patch_16">
    <path clip-path="url(#p1a8b7fd384)" d="M 145.550568 255.695 
L 151.282273 255.695 
L 151.282273 255.695 
L 145.550568 255.695 
z
" style="fill:#7570b3;opacity:0.6;stroke:#000000;stroke-linejoin:miter;stroke-width:0.5;"/>
   </g>
   <g id="patch_17">
    <path clip-path="url(#p1a8b7fd384)" d="M 151.282273 255.695 
L 157.013977 255.695 
L 157.013977 255.695 
L 151.282273 255.695 
z
" style="fill:#7570b3;opacity:0.6;stroke:#000000;stroke-linejoin:miter;stroke-width:0.5;"/>
   </g>
   <g id="patch_18">
    <path clip-path="url(#p1a8b7fd384)" d="M 157.013977 255.695 
L 162.745682 255.695 
L 162.745682 253.429097 
L 157.013977 253.429097 
z
" style="fill:#7570b3;opacity:0.6;stroke:#000000;stroke-linejoin:miter;stroke-width:0.5;"/>
   </g>
   <g id="patch_19">
    <path clip-path="url(#p1a8b7fd384)" d="M 162.745682 255.695 
L 168.477386 255.695 
L 168.477386 253.429097 
L 162.745682 253.429097 
z
" style="fill:#7570b3;opacity:0.6;stroke:#000000;stroke-linejoin:miter;stroke-width:0.5;"/>
   </g>
   <g id="patch_20">
    <path clip-path="url(#p1a8b7fd384)" d="M 168.477386 255.695 
L 174.209091 255.695 
L 174.209091 255.695 
L 168.477386 255.695 
z
" style="fill:#7570b3;opacity:0.6;stroke:#000000;stroke-linejoin:miter;stroke-width:0.5;"/>
   </g>
   <g id="patch_21">
    <path clip-path="url(#p1a8b7fd384)" d="M 174.209091 255.695 
L 179.940795 255.695 
L 179.940795 248.897291 
L 174.209091 248.897291 
z
" style="fill:#7570b3;opacity:0.6;stroke:#000000;stroke-linejoin:miter;stroke-width:0.5;"/>
   </g>
   <g id="patch_22">
    <path clip-path="url(#p1a8b7fd384)" d="M 179.940795 255.695 
L 185.6725 255.695 
L 185.6725 253.429097 
L 179.940795 253.429097 
z
" style="fill:#7570b3;opacity:0.6;stroke:#000000;stroke-linejoin:miter;stroke-width:0.5;"/>
   </g>
   <g id="patch_23">
    <path clip-path="url(#p1a8b7fd384)" d="M 185.6725 255.695 
L 191.404205 255.695 
L 191.404205 251.163194 
L 185.6725 251.163194 
z
" style="fill:#7570b3;opacity:0.6;stroke:#000000;stroke-linejoin:miter;stroke-width:0.5;"/>
   </g>
   <g id="patch_24">
    <path clip-path="url(#p1a8b7fd384)" d="M 191.404205 255.695 
L 197.135909 255.695 
L 197.135909 242.099582 
L 191.404205 242.099582 
z
" style="fill:#7570b3;opacity:0.6;stroke:#000000;stroke-linejoin:miter;stroke-width:0.5;"/>
   </g>
   <g id="patch_25">
    <path clip-path="url(#p1a8b7fd384)" d="M 197.135909 255.695 
L 202.867614 255.695 
L 202.867614 228.504164 
L 197.135909 228.504164 
z
" style="fill:#7570b3;opacity:0.6;stroke:#000000;stroke-linejoin:miter;stroke-width:0.5;"/>
   </g>
   <g id="patch_26">
    <path clip-path="url(#p1a8b7fd384)" d="M 202.867614 255.695 
L 208.599318 255.695 
L 208.599318 223.972358 
L 202.867614 223.972358 
z
" style="fill:#7570b3;opacity:0.6;stroke:#000000;stroke-linejoin:miter;stroke-width:0.5;"/>
   </g>
   <g id="patch_27">
    <path clip-path="url(#p1a8b7fd384)" d="M 208.599318 255.695 
L 214.331023 255.695 
L 214.331023 223.972358 
L 208.599318 223.972358 
z
" style="fill:#7570b3;opacity:0.6;stroke:#000000;stroke-linejoin:miter;stroke-width:0.5;"/>
   </g>
   <g id="patch_28">
    <path clip-path="url(#p1a8b7fd384)" d="M 214.331023 255.695 
L 220.062727 255.695 
L 220.062727 189.983814 
L 214.331023 189.983814 
z
" style="fill:#7570b3;opacity:0.6;stroke:#000000;stroke-linejoin:miter;stroke-width:0.5;"/>
   </g>
   <g id="patch_29">
    <path clip-path="url(#p1a8b7fd384)" d="M 220.062727 255.695 
L 225.794432 255.695 
L 225.794432 158.261173 
L 220.062727 158.261173 
z
" style="fill:#7570b3;opacity:0.6;stroke:#000000;stroke-linejoin:miter;stroke-width:0.5;"/>
   </g>
   <g id="patch_30">
    <path clip-path="url(#p1a8b7fd384)" d="M 225.794432 255.695 
L 231.526136 255.695 
L 231.526136 160.527075 
L 225.794432 160.527075 
z
" style="fill:#7570b3;opacity:0.6;stroke:#000000;stroke-linejoin:miter;stroke-width:0.5;"/>
   </g>
   <g id="patch_31">
    <path clip-path="url(#p1a8b7fd384)" d="M 231.526136 255.695 
L 237.257841 255.695 
L 237.257841 103.879501 
L 231.526136 103.879501 
z
" style="fill:#7570b3;opacity:0.6;stroke:#000000;stroke-linejoin:miter;stroke-width:0.5;"/>
   </g>
   <g id="patch_32">
    <path clip-path="url(#p1a8b7fd384)" d="M 237.257841 255.695 
L 242.989545 255.695 
L 242.989545 103.879501 
L 237.257841 103.879501 
z
" style="fill:#7570b3;opacity:0.6;stroke:#000000;stroke-linejoin:miter;stroke-width:0.5;"/>
   </g>
   <g id="patch_33">
    <path clip-path="url(#p1a8b7fd384)" d="M 242.989545 255.695 
L 248.72125 255.695 
L 248.72125 65.359151 
L 242.989545 65.359151 
z
" style="fill:#7570b3;opacity:0.6;stroke:#000000;stroke-linejoin:miter;stroke-width:0.5;"/>
   </g>
   <g id="patch_34">
    <path clip-path="url(#p1a8b7fd384)" d="M 248.72125 255.695 
L 254.452955 255.695 
L 254.452955 63.093248 
L 248.72125 63.093248 
z
" style="fill:#7570b3;opacity:0.6;stroke:#000000;stroke-linejoin:miter;stroke-width:0.5;"/>
   </g>
   <g id="patch_35">
    <path clip-path="url(#p1a8b7fd384)" d="M 254.452955 255.695 
L 260.184659 255.695 
L 260.184659 15.509286 
L 254.452955 15.509286 
z
" style="fill:#7570b3;opacity:0.6;stroke:#000000;stroke-linejoin:miter;stroke-width:0.5;"/>
   </g>
   <g id="patch_36">
    <path clip-path="url(#p1a8b7fd384)" d="M 260.184659 255.695 
L 265.916364 255.695 
L 265.916364 60.827345 
L 260.184659 60.827345 
z
" style="fill:#7570b3;opacity:0.6;stroke:#000000;stroke-linejoin:miter;stroke-width:0.5;"/>
   </g>
   <g id="patch_37">
    <path clip-path="url(#p1a8b7fd384)" d="M 265.916364 255.695 
L 271.648068 255.695 
L 271.648068 94.815889 
L 265.916364 94.815889 
z
" style="fill:#7570b3;opacity:0.6;stroke:#000000;stroke-linejoin:miter;stroke-width:0.5;"/>
   </g>
   <g id="patch_38">
    <path clip-path="url(#p1a8b7fd384)" d="M 271.648068 255.695 
L 277.379773 255.695 
L 277.379773 122.006725 
L 271.648068 122.006725 
z
" style="fill:#7570b3;opacity:0.6;stroke:#000000;stroke-linejoin:miter;stroke-width:0.5;"/>
   </g>
   <g id="patch_39">
    <path clip-path="url(#p1a8b7fd384)" d="M 277.379773 255.695 
L 283.111477 255.695 
L 283.111477 119.740822 
L 277.379773 119.740822 
z
" style="fill:#7570b3;opacity:0.6;stroke:#000000;stroke-linejoin:miter;stroke-width:0.5;"/>
   </g>
   <g id="patch_40">
    <path clip-path="url(#p1a8b7fd384)" d="M 283.111477 255.695 
L 288.843182 255.695 
L 288.843182 128.804434 
L 283.111477 128.804434 
z
" style="fill:#7570b3;opacity:0.6;stroke:#000000;stroke-linejoin:miter;stroke-width:0.5;"/>
   </g>
   <g id="patch_41">
    <path clip-path="url(#p1a8b7fd384)" d="M 288.843182 255.695 
L 294.574886 255.695 
L 294.574886 158.261173 
L 288.843182 158.261173 
z
" style="fill:#7570b3;opacity:0.6;stroke:#000000;stroke-linejoin:miter;stroke-width:0.5;"/>
   </g>
   <g id="patch_42">
    <path clip-path="url(#p1a8b7fd384)" d="M 294.574886 255.695 
L 300.306591 255.695 
L 300.306591 146.931658 
L 294.574886 146.931658 
z
" style="fill:#7570b3;opacity:0.6;stroke:#000000;stroke-linejoin:miter;stroke-width:0.5;"/>
   </g>
   <g id="matplotlib.axis_1">
    <g id="xtick_1">
     <g id="line2d_1">
      <defs>
       <path d="M 0 0 
L 0 3.5 
" id="m213747b99c" style="stroke:#000000;stroke-width:1.6;"/>
      </defs>
      <g>
       <use style="stroke:#000000;stroke-width:1.6;" x="71.038409" xlink:href="#m213747b99c" y="255.695"/>
      </g>
     </g>
     <g id="text_1">
      <!-- 0.0 -->
      <defs>
       <path d="M 31.78125 66.40625 
Q 24.171875 66.40625 20.328125 58.90625 
Q 16.5 51.421875 16.5 36.375 
Q 16.5 21.390625 20.328125 13.890625 
Q 24.171875 6.390625 31.78125 6.390625 
Q 39.453125 6.390625 43.28125 13.890625 
Q 47.125 21.390625 47.125 36.375 
Q 47.125 51.421875 43.28125 58.90625 
Q 39.453125 66.40625 31.78125 66.40625 
z
M 31.78125 74.21875 
Q 44.046875 74.21875 50.515625 64.515625 
Q 56.984375 54.828125 56.984375 36.375 
Q 56.984375 17.96875 50.515625 8.265625 
Q 44.046875 -1.421875 31.78125 -1.421875 
Q 19.53125 -1.421875 13.0625 8.265625 
Q 6.59375 17.96875 6.59375 36.375 
Q 6.59375 54.828125 13.0625 64.515625 
Q 19.53125 74.21875 31.78125 74.21875 
z
" id="DejaVuSans-48"/>
       <path d="M 10.6875 12.40625 
L 21 12.40625 
L 21 0 
L 10.6875 0 
z
" id="DejaVuSans-46"/>
      </defs>
      <g transform="translate(55.135284 285.591875)scale(0.2 -0.2)">
       <use xlink:href="#DejaVuSans-48"/>
       <use x="63.623047" xlink:href="#DejaVuSans-46"/>
       <use x="95.410156" xlink:href="#DejaVuSans-48"/>
      </g>
     </g>
    </g>
    <g id="xtick_2">
     <g id="line2d_2">
      <g>
       <use style="stroke:#000000;stroke-width:1.6;" x="136.543604" xlink:href="#m213747b99c" y="255.695"/>
      </g>
     </g>
     <g id="text_2">
      <!-- 0.2 -->
      <defs>
       <path d="M 19.1875 8.296875 
L 53.609375 8.296875 
L 53.609375 0 
L 7.328125 0 
L 7.328125 8.296875 
Q 12.9375 14.109375 22.625 23.890625 
Q 32.328125 33.6875 34.8125 36.53125 
Q 39.546875 41.84375 41.421875 45.53125 
Q 43.3125 49.21875 43.3125 52.78125 
Q 43.3125 58.59375 39.234375 62.25 
Q 35.15625 65.921875 28.609375 65.921875 
Q 23.96875 65.921875 18.8125 64.3125 
Q 13.671875 62.703125 7.8125 59.421875 
L 7.8125 69.390625 
Q 13.765625 71.78125 18.9375 73 
Q 24.125 74.21875 28.421875 74.21875 
Q 39.75 74.21875 46.484375 68.546875 
Q 53.21875 62.890625 53.21875 53.421875 
Q 53.21875 48.921875 51.53125 44.890625 
Q 49.859375 40.875 45.40625 35.40625 
Q 44.1875 33.984375 37.640625 27.21875 
Q 31.109375 20.453125 19.1875 8.296875 
z
" id="DejaVuSans-50"/>
      </defs>
      <g transform="translate(120.640479 285.591875)scale(0.2 -0.2)">
       <use xlink:href="#DejaVuSans-48"/>
       <use x="63.623047" xlink:href="#DejaVuSans-46"/>
       <use x="95.410156" xlink:href="#DejaVuSans-50"/>
      </g>
     </g>
    </g>
    <g id="xtick_3">
     <g id="line2d_3">
      <g>
       <use style="stroke:#000000;stroke-width:1.6;" x="202.048799" xlink:href="#m213747b99c" y="255.695"/>
      </g>
     </g>
     <g id="text_3">
      <!-- 0.4 -->
      <defs>
       <path d="M 37.796875 64.3125 
L 12.890625 25.390625 
L 37.796875 25.390625 
z
M 35.203125 72.90625 
L 47.609375 72.90625 
L 47.609375 25.390625 
L 58.015625 25.390625 
L 58.015625 17.1875 
L 47.609375 17.1875 
L 47.609375 0 
L 37.796875 0 
L 37.796875 17.1875 
L 4.890625 17.1875 
L 4.890625 26.703125 
z
" id="DejaVuSans-52"/>
      </defs>
      <g transform="translate(186.145674 285.591875)scale(0.2 -0.2)">
       <use xlink:href="#DejaVuSans-48"/>
       <use x="63.623047" xlink:href="#DejaVuSans-46"/>
       <use x="95.410156" xlink:href="#DejaVuSans-52"/>
      </g>
     </g>
    </g>
    <g id="xtick_4">
     <g id="line2d_4">
      <g>
       <use style="stroke:#000000;stroke-width:1.6;" x="267.553994" xlink:href="#m213747b99c" y="255.695"/>
      </g>
     </g>
     <g id="text_4">
      <!-- 0.6 -->
      <defs>
       <path d="M 33.015625 40.375 
Q 26.375 40.375 22.484375 35.828125 
Q 18.609375 31.296875 18.609375 23.390625 
Q 18.609375 15.53125 22.484375 10.953125 
Q 26.375 6.390625 33.015625 6.390625 
Q 39.65625 6.390625 43.53125 10.953125 
Q 47.40625 15.53125 47.40625 23.390625 
Q 47.40625 31.296875 43.53125 35.828125 
Q 39.65625 40.375 33.015625 40.375 
z
M 52.59375 71.296875 
L 52.59375 62.3125 
Q 48.875 64.0625 45.09375 64.984375 
Q 41.3125 65.921875 37.59375 65.921875 
Q 27.828125 65.921875 22.671875 59.328125 
Q 17.53125 52.734375 16.796875 39.40625 
Q 19.671875 43.65625 24.015625 45.921875 
Q 28.375 48.1875 33.59375 48.1875 
Q 44.578125 48.1875 50.953125 41.515625 
Q 57.328125 34.859375 57.328125 23.390625 
Q 57.328125 12.15625 50.6875 5.359375 
Q 44.046875 -1.421875 33.015625 -1.421875 
Q 20.359375 -1.421875 13.671875 8.265625 
Q 6.984375 17.96875 6.984375 36.375 
Q 6.984375 53.65625 15.1875 63.9375 
Q 23.390625 74.21875 37.203125 74.21875 
Q 40.921875 74.21875 44.703125 73.484375 
Q 48.484375 72.75 52.59375 71.296875 
z
" id="DejaVuSans-54"/>
      </defs>
      <g transform="translate(251.650869 285.591875)scale(0.2 -0.2)">
       <use xlink:href="#DejaVuSans-48"/>
       <use x="63.623047" xlink:href="#DejaVuSans-46"/>
       <use x="95.410156" xlink:href="#DejaVuSans-54"/>
      </g>
     </g>
    </g>
    <g id="text_5">
     <!-- Max JS Divergence within $\epsilon$ -->
     <defs>
      <path d="M 9.8125 72.90625 
L 24.515625 72.90625 
L 43.109375 23.296875 
L 61.8125 72.90625 
L 76.515625 72.90625 
L 76.515625 0 
L 66.890625 0 
L 66.890625 64.015625 
L 48.09375 14.015625 
L 38.1875 14.015625 
L 19.390625 64.015625 
L 19.390625 0 
L 9.8125 0 
z
" id="DejaVuSans-77"/>
      <path d="M 34.28125 27.484375 
Q 23.390625 27.484375 19.1875 25 
Q 14.984375 22.515625 14.984375 16.5 
Q 14.984375 11.71875 18.140625 8.90625 
Q 21.296875 6.109375 26.703125 6.109375 
Q 34.1875 6.109375 38.703125 11.40625 
Q 43.21875 16.703125 43.21875 25.484375 
L 43.21875 27.484375 
z
M 52.203125 31.203125 
L 52.203125 0 
L 43.21875 0 
L 43.21875 8.296875 
Q 40.140625 3.328125 35.546875 0.953125 
Q 30.953125 -1.421875 24.3125 -1.421875 
Q 15.921875 -1.421875 10.953125 3.296875 
Q 6 8.015625 6 15.921875 
Q 6 25.140625 12.171875 29.828125 
Q 18.359375 34.515625 30.609375 34.515625 
L 43.21875 34.515625 
L 43.21875 35.40625 
Q 43.21875 41.609375 39.140625 45 
Q 35.0625 48.390625 27.6875 48.390625 
Q 23 48.390625 18.546875 47.265625 
Q 14.109375 46.140625 10.015625 43.890625 
L 10.015625 52.203125 
Q 14.9375 54.109375 19.578125 55.046875 
Q 24.21875 56 28.609375 56 
Q 40.484375 56 46.34375 49.84375 
Q 52.203125 43.703125 52.203125 31.203125 
z
" id="DejaVuSans-97"/>
      <path d="M 54.890625 54.6875 
L 35.109375 28.078125 
L 55.90625 0 
L 45.3125 0 
L 29.390625 21.484375 
L 13.484375 0 
L 2.875 0 
L 24.125 28.609375 
L 4.6875 54.6875 
L 15.28125 54.6875 
L 29.78125 35.203125 
L 44.28125 54.6875 
z
" id="DejaVuSans-120"/>
      <path id="DejaVuSans-32"/>
      <path d="M 9.8125 72.90625 
L 19.671875 72.90625 
L 19.671875 5.078125 
Q 19.671875 -8.109375 14.671875 -14.0625 
Q 9.671875 -20.015625 -1.421875 -20.015625 
L -5.171875 -20.015625 
L -5.171875 -11.71875 
L -2.09375 -11.71875 
Q 4.4375 -11.71875 7.125 -8.046875 
Q 9.8125 -4.390625 9.8125 5.078125 
z
" id="DejaVuSans-74"/>
      <path d="M 53.515625 70.515625 
L 53.515625 60.890625 
Q 47.90625 63.578125 42.921875 64.890625 
Q 37.9375 66.21875 33.296875 66.21875 
Q 25.25 66.21875 20.875 63.09375 
Q 16.5 59.96875 16.5 54.203125 
Q 16.5 49.359375 19.40625 46.890625 
Q 22.3125 44.4375 30.421875 42.921875 
L 36.375 41.703125 
Q 47.40625 39.59375 52.65625 34.296875 
Q 57.90625 29 57.90625 20.125 
Q 57.90625 9.515625 50.796875 4.046875 
Q 43.703125 -1.421875 29.984375 -1.421875 
Q 24.8125 -1.421875 18.96875 -0.25 
Q 13.140625 0.921875 6.890625 3.21875 
L 6.890625 13.375 
Q 12.890625 10.015625 18.65625 8.296875 
Q 24.421875 6.59375 29.984375 6.59375 
Q 38.421875 6.59375 43.015625 9.90625 
Q 47.609375 13.234375 47.609375 19.390625 
Q 47.609375 24.75 44.3125 27.78125 
Q 41.015625 30.8125 33.5 32.328125 
L 27.484375 33.5 
Q 16.453125 35.6875 11.515625 40.375 
Q 6.59375 45.0625 6.59375 53.421875 
Q 6.59375 63.09375 13.40625 68.65625 
Q 20.21875 74.21875 32.171875 74.21875 
Q 37.3125 74.21875 42.625 73.28125 
Q 47.953125 72.359375 53.515625 70.515625 
z
" id="DejaVuSans-83"/>
      <path d="M 19.671875 64.796875 
L 19.671875 8.109375 
L 31.59375 8.109375 
Q 46.6875 8.109375 53.6875 14.9375 
Q 60.6875 21.78125 60.6875 36.53125 
Q 60.6875 51.171875 53.6875 57.984375 
Q 46.6875 64.796875 31.59375 64.796875 
z
M 9.8125 72.90625 
L 30.078125 72.90625 
Q 51.265625 72.90625 61.171875 64.09375 
Q 71.09375 55.28125 71.09375 36.53125 
Q 71.09375 17.671875 61.125 8.828125 
Q 51.171875 0 30.078125 0 
L 9.8125 0 
z
" id="DejaVuSans-68"/>
      <path d="M 9.421875 54.6875 
L 18.40625 54.6875 
L 18.40625 0 
L 9.421875 0 
z
M 9.421875 75.984375 
L 18.40625 75.984375 
L 18.40625 64.59375 
L 9.421875 64.59375 
z
" id="DejaVuSans-105"/>
      <path d="M 2.984375 54.6875 
L 12.5 54.6875 
L 29.59375 8.796875 
L 46.6875 54.6875 
L 56.203125 54.6875 
L 35.6875 0 
L 23.484375 0 
z
" id="DejaVuSans-118"/>
      <path d="M 56.203125 29.59375 
L 56.203125 25.203125 
L 14.890625 25.203125 
Q 15.484375 15.921875 20.484375 11.0625 
Q 25.484375 6.203125 34.421875 6.203125 
Q 39.59375 6.203125 44.453125 7.46875 
Q 49.3125 8.734375 54.109375 11.28125 
L 54.109375 2.78125 
Q 49.265625 0.734375 44.1875 -0.34375 
Q 39.109375 -1.421875 33.890625 -1.421875 
Q 20.796875 -1.421875 13.15625 6.1875 
Q 5.515625 13.8125 5.515625 26.8125 
Q 5.515625 40.234375 12.765625 48.109375 
Q 20.015625 56 32.328125 56 
Q 43.359375 56 49.78125 48.890625 
Q 56.203125 41.796875 56.203125 29.59375 
z
M 47.21875 32.234375 
Q 47.125 39.59375 43.09375 43.984375 
Q 39.0625 48.390625 32.421875 48.390625 
Q 24.90625 48.390625 20.390625 44.140625 
Q 15.875 39.890625 15.1875 32.171875 
z
" id="DejaVuSans-101"/>
      <path d="M 41.109375 46.296875 
Q 39.59375 47.171875 37.8125 47.578125 
Q 36.03125 48 33.890625 48 
Q 26.265625 48 22.1875 43.046875 
Q 18.109375 38.09375 18.109375 28.8125 
L 18.109375 0 
L 9.078125 0 
L 9.078125 54.6875 
L 18.109375 54.6875 
L 18.109375 46.1875 
Q 20.953125 51.171875 25.484375 53.578125 
Q 30.03125 56 36.53125 56 
Q 37.453125 56 38.578125 55.875 
Q 39.703125 55.765625 41.0625 55.515625 
z
" id="DejaVuSans-114"/>
      <path d="M 45.40625 27.984375 
Q 45.40625 37.75 41.375 43.109375 
Q 37.359375 48.484375 30.078125 48.484375 
Q 22.859375 48.484375 18.828125 43.109375 
Q 14.796875 37.75 14.796875 27.984375 
Q 14.796875 18.265625 18.828125 12.890625 
Q 22.859375 7.515625 30.078125 7.515625 
Q 37.359375 7.515625 41.375 12.890625 
Q 45.40625 18.265625 45.40625 27.984375 
z
M 54.390625 6.78125 
Q 54.390625 -7.171875 48.1875 -13.984375 
Q 42 -20.796875 29.203125 -20.796875 
Q 24.46875 -20.796875 20.265625 -20.09375 
Q 16.0625 -19.390625 12.109375 -17.921875 
L 12.109375 -9.1875 
Q 16.0625 -11.328125 19.921875 -12.34375 
Q 23.78125 -13.375 27.78125 -13.375 
Q 36.625 -13.375 41.015625 -8.765625 
Q 45.40625 -4.15625 45.40625 5.171875 
L 45.40625 9.625 
Q 42.625 4.78125 38.28125 2.390625 
Q 33.9375 0 27.875 0 
Q 17.828125 0 11.671875 7.65625 
Q 5.515625 15.328125 5.515625 27.984375 
Q 5.515625 40.671875 11.671875 48.328125 
Q 17.828125 56 27.875 56 
Q 33.9375 56 38.28125 53.609375 
Q 42.625 51.21875 45.40625 46.390625 
L 45.40625 54.6875 
L 54.390625 54.6875 
z
" id="DejaVuSans-103"/>
      <path d="M 54.890625 33.015625 
L 54.890625 0 
L 45.90625 0 
L 45.90625 32.71875 
Q 45.90625 40.484375 42.875 44.328125 
Q 39.84375 48.1875 33.796875 48.1875 
Q 26.515625 48.1875 22.3125 43.546875 
Q 18.109375 38.921875 18.109375 30.90625 
L 18.109375 0 
L 9.078125 0 
L 9.078125 54.6875 
L 18.109375 54.6875 
L 18.109375 46.1875 
Q 21.34375 51.125 25.703125 53.5625 
Q 30.078125 56 35.796875 56 
Q 45.21875 56 50.046875 50.171875 
Q 54.890625 44.34375 54.890625 33.015625 
z
" id="DejaVuSans-110"/>
      <path d="M 48.78125 52.59375 
L 48.78125 44.1875 
Q 44.96875 46.296875 41.140625 47.34375 
Q 37.3125 48.390625 33.40625 48.390625 
Q 24.65625 48.390625 19.8125 42.84375 
Q 14.984375 37.3125 14.984375 27.296875 
Q 14.984375 17.28125 19.8125 11.734375 
Q 24.65625 6.203125 33.40625 6.203125 
Q 37.3125 6.203125 41.140625 7.25 
Q 44.96875 8.296875 48.78125 10.40625 
L 48.78125 2.09375 
Q 45.015625 0.34375 40.984375 -0.53125 
Q 36.96875 -1.421875 32.421875 -1.421875 
Q 20.0625 -1.421875 12.78125 6.34375 
Q 5.515625 14.109375 5.515625 27.296875 
Q 5.515625 40.671875 12.859375 48.328125 
Q 20.21875 56 33.015625 56 
Q 37.15625 56 41.109375 55.140625 
Q 45.0625 54.296875 48.78125 52.59375 
z
" id="DejaVuSans-99"/>
      <path d="M 4.203125 54.6875 
L 13.1875 54.6875 
L 24.421875 12.015625 
L 35.59375 54.6875 
L 46.1875 54.6875 
L 57.421875 12.015625 
L 68.609375 54.6875 
L 77.59375 54.6875 
L 63.28125 0 
L 52.6875 0 
L 40.921875 44.828125 
L 29.109375 0 
L 18.5 0 
z
" id="DejaVuSans-119"/>
      <path d="M 18.3125 70.21875 
L 18.3125 54.6875 
L 36.8125 54.6875 
L 36.8125 47.703125 
L 18.3125 47.703125 
L 18.3125 18.015625 
Q 18.3125 11.328125 20.140625 9.421875 
Q 21.96875 7.515625 27.59375 7.515625 
L 36.8125 7.515625 
L 36.8125 0 
L 27.59375 0 
Q 17.1875 0 13.234375 3.875 
Q 9.28125 7.765625 9.28125 18.015625 
L 9.28125 47.703125 
L 2.6875 47.703125 
L 2.6875 54.6875 
L 9.28125 54.6875 
L 9.28125 70.21875 
z
" id="DejaVuSans-116"/>
      <path d="M 54.890625 33.015625 
L 54.890625 0 
L 45.90625 0 
L 45.90625 32.71875 
Q 45.90625 40.484375 42.875 44.328125 
Q 39.84375 48.1875 33.796875 48.1875 
Q 26.515625 48.1875 22.3125 43.546875 
Q 18.109375 38.921875 18.109375 30.90625 
L 18.109375 0 
L 9.078125 0 
L 9.078125 75.984375 
L 18.109375 75.984375 
L 18.109375 46.1875 
Q 21.34375 51.125 25.703125 53.5625 
Q 30.078125 56 35.796875 56 
Q 45.21875 56 50.046875 50.171875 
Q 54.890625 44.34375 54.890625 33.015625 
z
" id="DejaVuSans-104"/>
      <path d="M 19.734375 29.5 
Q 14.453125 30.671875 12.15625 33.84375 
Q 10.453125 36.078125 10.453125 39.109375 
Q 10.453125 47.40625 18.359375 52.25 
Q 24.609375 56.0625 34.1875 56.0625 
Q 37.890625 56.0625 41.9375 55.46875 
Q 46 54.890625 50.53125 53.71875 
L 48.96875 45.5625 
Q 44.484375 46.96875 40.71875 47.609375 
Q 36.859375 48.25 33.40625 48.25 
Q 27.59375 48.25 23.78125 46 
Q 19.1875 43.3125 19.1875 39.40625 
Q 19.1875 36.8125 21.578125 35.015625 
Q 24.421875 32.859375 30.078125 32.859375 
L 37.640625 32.859375 
L 36.234375 25.4375 
L 29 25.4375 
Q 22.265625 25.4375 18.3125 22.953125 
Q 12.9375 19.578125 12.9375 14.3125 
Q 12.9375 10.984375 15.828125 8.796875 
Q 19.4375 6.0625 26.8125 6.0625 
Q 31.34375 6.0625 35.6875 6.9375 
Q 40.046875 7.859375 43.84375 9.671875 
L 42.1875 1.3125 
Q 37.546875 -0.046875 33.296875 -0.734375 
Q 29.046875 -1.421875 25.140625 -1.421875 
Q 13.53125 -1.421875 8.0625 3.03125 
Q 3.90625 6.453125 3.90625 12.203125 
Q 3.90625 19.96875 9.375 24.75 
Q 13.421875 28.328125 19.734375 29.5 
z
" id="DejaVuSans-Oblique-949"/>
     </defs>
     <g transform="translate(50.0725 308.95125)scale(0.2 -0.2)">
      <use transform="translate(0 0.015625)" xlink:href="#DejaVuSans-77"/>
      <use transform="translate(86.279297 0.015625)" xlink:href="#DejaVuSans-97"/>
      <use transform="translate(147.558594 0.015625)" xlink:href="#DejaVuSans-120"/>
      <use transform="translate(206.738281 0.015625)" xlink:href="#DejaVuSans-32"/>
      <use transform="translate(238.525391 0.015625)" xlink:href="#DejaVuSans-74"/>
      <use transform="translate(268.017578 0.015625)" xlink:href="#DejaVuSans-83"/>
      <use transform="translate(331.494141 0.015625)" xlink:href="#DejaVuSans-32"/>
      <use transform="translate(363.28125 0.015625)" xlink:href="#DejaVuSans-68"/>
      <use transform="translate(440.283203 0.015625)" xlink:href="#DejaVuSans-105"/>
      <use transform="translate(468.066406 0.015625)" xlink:href="#DejaVuSans-118"/>
      <use transform="translate(527.246094 0.015625)" xlink:href="#DejaVuSans-101"/>
      <use transform="translate(588.769531 0.015625)" xlink:href="#DejaVuSans-114"/>
      <use transform="translate(629.882812 0.015625)" xlink:href="#DejaVuSans-103"/>
      <use transform="translate(693.359375 0.015625)" xlink:href="#DejaVuSans-101"/>
      <use transform="translate(754.882812 0.015625)" xlink:href="#DejaVuSans-110"/>
      <use transform="translate(818.261719 0.015625)" xlink:href="#DejaVuSans-99"/>
      <use transform="translate(873.242188 0.015625)" xlink:href="#DejaVuSans-101"/>
      <use transform="translate(934.765625 0.015625)" xlink:href="#DejaVuSans-32"/>
      <use transform="translate(966.552734 0.015625)" xlink:href="#DejaVuSans-119"/>
      <use transform="translate(1048.339844 0.015625)" xlink:href="#DejaVuSans-105"/>
      <use transform="translate(1076.123047 0.015625)" xlink:href="#DejaVuSans-116"/>
      <use transform="translate(1115.332031 0.015625)" xlink:href="#DejaVuSans-104"/>
      <use transform="translate(1178.710938 0.015625)" xlink:href="#DejaVuSans-105"/>
      <use transform="translate(1206.494141 0.015625)" xlink:href="#DejaVuSans-110"/>
      <use transform="translate(1269.873047 0.015625)" xlink:href="#DejaVuSans-32"/>
      <use transform="translate(1301.660156 0.015625)" xlink:href="#DejaVuSans-Oblique-949"/>
     </g>
    </g>
   </g>
   <g id="matplotlib.axis_2">
    <g id="ytick_1">
     <g id="line2d_5">
      <defs>
       <path d="M 0 0 
L -3.5 0 
" id="m97eed64053" style="stroke:#000000;stroke-width:1.6;"/>
      </defs>
      <g>
       <use style="stroke:#000000;stroke-width:1.6;" x="59.575" xlink:href="#m97eed64053" y="255.695"/>
      </g>
     </g>
     <g id="text_6">
      <!-- 0.00 -->
      <g transform="translate(0.34375 263.293437)scale(0.2 -0.2)">
       <use xlink:href="#DejaVuSans-48"/>
       <use x="63.623047" xlink:href="#DejaVuSans-46"/>
       <use x="95.410156" xlink:href="#DejaVuSans-48"/>
       <use x="159.033203" xlink:href="#DejaVuSans-48"/>
      </g>
     </g>
    </g>
    <g id="ytick_2">
     <g id="line2d_6">
      <g>
       <use style="stroke:#000000;stroke-width:1.6;" x="59.575" xlink:href="#m97eed64053" y="210.376941"/>
      </g>
     </g>
     <g id="text_7">
      <!-- 0.02 -->
      <g transform="translate(0.34375 217.975378)scale(0.2 -0.2)">
       <use xlink:href="#DejaVuSans-48"/>
       <use x="63.623047" xlink:href="#DejaVuSans-46"/>
       <use x="95.410156" xlink:href="#DejaVuSans-48"/>
       <use x="159.033203" xlink:href="#DejaVuSans-50"/>
      </g>
     </g>
    </g>
    <g id="ytick_3">
     <g id="line2d_7">
      <g>
       <use style="stroke:#000000;stroke-width:1.6;" x="59.575" xlink:href="#m97eed64053" y="165.058881"/>
      </g>
     </g>
     <g id="text_8">
      <!-- 0.04 -->
      <g transform="translate(0.34375 172.657319)scale(0.2 -0.2)">
       <use xlink:href="#DejaVuSans-48"/>
       <use x="63.623047" xlink:href="#DejaVuSans-46"/>
       <use x="95.410156" xlink:href="#DejaVuSans-48"/>
       <use x="159.033203" xlink:href="#DejaVuSans-52"/>
      </g>
     </g>
    </g>
    <g id="ytick_4">
     <g id="line2d_8">
      <g>
       <use style="stroke:#000000;stroke-width:1.6;" x="59.575" xlink:href="#m97eed64053" y="119.740822"/>
      </g>
     </g>
     <g id="text_9">
      <!-- 0.06 -->
      <g transform="translate(0.34375 127.33926)scale(0.2 -0.2)">
       <use xlink:href="#DejaVuSans-48"/>
       <use x="63.623047" xlink:href="#DejaVuSans-46"/>
       <use x="95.410156" xlink:href="#DejaVuSans-48"/>
       <use x="159.033203" xlink:href="#DejaVuSans-54"/>
      </g>
     </g>
    </g>
    <g id="ytick_5">
     <g id="line2d_9">
      <g>
       <use style="stroke:#000000;stroke-width:1.6;" x="59.575" xlink:href="#m97eed64053" y="74.422763"/>
      </g>
     </g>
     <g id="text_10">
      <!-- 0.08 -->
      <defs>
       <path d="M 31.78125 34.625 
Q 24.75 34.625 20.71875 30.859375 
Q 16.703125 27.09375 16.703125 20.515625 
Q 16.703125 13.921875 20.71875 10.15625 
Q 24.75 6.390625 31.78125 6.390625 
Q 38.8125 6.390625 42.859375 10.171875 
Q 46.921875 13.96875 46.921875 20.515625 
Q 46.921875 27.09375 42.890625 30.859375 
Q 38.875 34.625 31.78125 34.625 
z
M 21.921875 38.8125 
Q 15.578125 40.375 12.03125 44.71875 
Q 8.5 49.078125 8.5 55.328125 
Q 8.5 64.0625 14.71875 69.140625 
Q 20.953125 74.21875 31.78125 74.21875 
Q 42.671875 74.21875 48.875 69.140625 
Q 55.078125 64.0625 55.078125 55.328125 
Q 55.078125 49.078125 51.53125 44.71875 
Q 48 40.375 41.703125 38.8125 
Q 48.828125 37.15625 52.796875 32.3125 
Q 56.78125 27.484375 56.78125 20.515625 
Q 56.78125 9.90625 50.3125 4.234375 
Q 43.84375 -1.421875 31.78125 -1.421875 
Q 19.734375 -1.421875 13.25 4.234375 
Q 6.78125 9.90625 6.78125 20.515625 
Q 6.78125 27.484375 10.78125 32.3125 
Q 14.796875 37.15625 21.921875 38.8125 
z
M 18.3125 54.390625 
Q 18.3125 48.734375 21.84375 45.5625 
Q 25.390625 42.390625 31.78125 42.390625 
Q 38.140625 42.390625 41.71875 45.5625 
Q 45.3125 48.734375 45.3125 54.390625 
Q 45.3125 60.0625 41.71875 63.234375 
Q 38.140625 66.40625 31.78125 66.40625 
Q 25.390625 66.40625 21.84375 63.234375 
Q 18.3125 60.0625 18.3125 54.390625 
z
" id="DejaVuSans-56"/>
      </defs>
      <g transform="translate(0.34375 82.0212)scale(0.2 -0.2)">
       <use xlink:href="#DejaVuSans-48"/>
       <use x="63.623047" xlink:href="#DejaVuSans-46"/>
       <use x="95.410156" xlink:href="#DejaVuSans-48"/>
       <use x="159.033203" xlink:href="#DejaVuSans-56"/>
      </g>
     </g>
    </g>
    <g id="ytick_6">
     <g id="line2d_10">
      <g>
       <use style="stroke:#000000;stroke-width:1.6;" x="59.575" xlink:href="#m97eed64053" y="29.104704"/>
      </g>
     </g>
     <g id="text_11">
      <!-- 0.10 -->
      <defs>
       <path d="M 12.40625 8.296875 
L 28.515625 8.296875 
L 28.515625 63.921875 
L 10.984375 60.40625 
L 10.984375 69.390625 
L 28.421875 72.90625 
L 38.28125 72.90625 
L 38.28125 8.296875 
L 54.390625 8.296875 
L 54.390625 0 
L 12.40625 0 
z
" id="DejaVuSans-49"/>
      </defs>
      <g transform="translate(0.34375 36.703141)scale(0.2 -0.2)">
       <use xlink:href="#DejaVuSans-48"/>
       <use x="63.623047" xlink:href="#DejaVuSans-46"/>
       <use x="95.410156" xlink:href="#DejaVuSans-49"/>
       <use x="159.033203" xlink:href="#DejaVuSans-48"/>
      </g>
     </g>
    </g>
   </g>
   <g id="patch_43">
    <path d="M 59.575 255.695 
L 59.575 3.5 
" style="fill:none;stroke:#000000;stroke-linecap:square;stroke-linejoin:miter;stroke-width:0.8;"/>
   </g>
   <g id="patch_44">
    <path d="M 59.575 255.695 
L 311.77 255.695 
" style="fill:none;stroke:#000000;stroke-linecap:square;stroke-linejoin:miter;stroke-width:0.8;"/>
   </g>
  </g>
  <g id="axes_2">
   <g id="patch_45">
    <path d="M 427.13 255.695 
L 679.325 255.695 
L 679.325 3.5 
L 427.13 3.5 
z
" style="fill:#ffffff;"/>
   </g>
   <g id="PolyCollection_1">
    <defs>
     <path d="M 549.993495 -217.727669 
L 549.993495 -218.916081 
L 551.271994 -218.961796 
L 552.550494 -219.005105 
L 553.828993 -219.047499 
L 555.107492 -219.09108 
L 556.385991 -219.138304 
L 557.664491 -219.191655 
L 558.94299 -219.253304 
L 560.221489 -219.32481 
L 561.499988 -219.406906 
L 562.778487 -219.499434 
L 564.056987 -219.601416 
L 565.335486 -219.711267 
L 566.613985 -219.82711 
L 567.892484 -219.947137 
L 569.170984 -220.069958 
L 570.449483 -220.194886 
L 571.727982 -220.322114 
L 573.006481 -220.452754 
L 574.284981 -220.588761 
L 575.56348 -220.732746 
L 576.841979 -220.887724 
L 578.120478 -221.056829 
L 579.398978 -221.243055 
L 580.677477 -221.449038 
L 581.955976 -221.676913 
L 583.234475 -221.928251 
L 584.512974 -222.204089 
L 585.791474 -222.505033 
L 587.069973 -222.831428 
L 588.348472 -223.183566 
L 589.626971 -223.561909 
L 590.905471 -223.967281 
L 592.18397 -224.400988 
L 593.462469 -224.864837 
L 594.740968 -225.361016 
L 596.019468 -225.891823 
L 597.297967 -226.459282 
L 598.576466 -227.06466 
L 599.854965 -227.707989 
L 601.133465 -228.387656 
L 602.411964 -229.100151 
L 603.690463 -229.840047 
L 604.968962 -230.60024 
L 606.247461 -231.372429 
L 607.525961 -232.147794 
L 608.80446 -232.91776 
L 610.082959 -233.674751 
L 611.361458 -234.412797 
L 612.639958 -235.12793 
L 613.918457 -235.818307 
L 615.196956 -236.48406 
L 616.475455 -237.126921 
L 617.753955 -237.74968 
L 619.032454 -238.355557 
L 620.310953 -238.94754 
L 621.589452 -239.527745 
L 622.867951 -240.096796 
L 624.146451 -240.653257 
L 625.42495 -241.193113 
L 626.703449 -241.709351 
L 627.981948 -242.191708 
L 629.260448 -242.626674 
L 630.538947 -242.997859 
L 631.817446 -243.286785 
L 633.095945 -243.474132 
L 634.374445 -243.541375 
L 635.652944 -243.472657 
L 636.931443 -243.256701 
L 638.209942 -242.888478 
L 639.488442 -242.370392 
L 640.766941 -241.71276 
L 642.04544 -240.933488 
L 643.323939 -240.056939 
L 644.602438 -239.11212 
L 645.880938 -238.130421 
L 647.159437 -237.143192 
L 648.437936 -236.179479 
L 649.716435 -235.264165 
L 650.994935 -234.416739 
L 652.273434 -233.650741 
L 653.551933 -232.973871 
L 654.830432 -232.388605 
L 656.108932 -231.893121 
L 657.387431 -231.482283 
L 658.66593 -231.148473 
L 659.944429 -230.882128 
L 661.222929 -230.671919 
L 662.501428 -230.504657 
L 663.779927 -230.365061 
L 665.058426 -230.235627 
L 666.336925 -230.096813 
L 667.615425 -229.927712 
L 668.893924 -229.707285 
L 670.172423 -229.416068 
L 671.450922 -229.03817 
L 672.729422 -228.563225 
L 674.007921 -227.987977 
L 675.28642 -227.31717 
L 676.564919 -226.563527 
L 676.564919 -210.080223 
L 676.564919 -210.080223 
L 675.28642 -209.32658 
L 674.007921 -208.655773 
L 672.729422 -208.080525 
L 671.450922 -207.60558 
L 670.172423 -207.227682 
L 668.893924 -206.936465 
L 667.615425 -206.716038 
L 666.336925 -206.546937 
L 665.058426 -206.408123 
L 663.779927 -206.278689 
L 662.501428 -206.139093 
L 661.222929 -205.971831 
L 659.944429 -205.761622 
L 658.66593 -205.495277 
L 657.387431 -205.161467 
L 656.108932 -204.750629 
L 654.830432 -204.255145 
L 653.551933 -203.669879 
L 652.273434 -202.993009 
L 650.994935 -202.227011 
L 649.716435 -201.379585 
L 648.437936 -200.464271 
L 647.159437 -199.500558 
L 645.880938 -198.513329 
L 644.602438 -197.53163 
L 643.323939 -196.586811 
L 642.04544 -195.710262 
L 640.766941 -194.93099 
L 639.488442 -194.273358 
L 638.209942 -193.755272 
L 636.931443 -193.387049 
L 635.652944 -193.171093 
L 634.374445 -193.102375 
L 633.095945 -193.169618 
L 631.817446 -193.356965 
L 630.538947 -193.645891 
L 629.260448 -194.017076 
L 627.981948 -194.452042 
L 626.703449 -194.934399 
L 625.42495 -195.450637 
L 624.146451 -195.990493 
L 622.867951 -196.546954 
L 621.589452 -197.116005 
L 620.310953 -197.69621 
L 619.032454 -198.288193 
L 617.753955 -198.89407 
L 616.475455 -199.516829 
L 615.196956 -200.15969 
L 613.918457 -200.825443 
L 612.639958 -201.51582 
L 611.361458 -202.230953 
L 610.082959 -202.968999 
L 608.80446 -203.72599 
L 607.525961 -204.495956 
L 606.247461 -205.271321 
L 604.968962 -206.04351 
L 603.690463 -206.803703 
L 602.411964 -207.543599 
L 601.133465 -208.256094 
L 599.854965 -208.935761 
L 598.576466 -209.57909 
L 597.297967 -210.184468 
L 596.019468 -210.751927 
L 594.740968 -211.282734 
L 593.462469 -211.778913 
L 592.18397 -212.242762 
L 590.905471 -212.676469 
L 589.626971 -213.081841 
L 588.348472 -213.460184 
L 587.069973 -213.812322 
L 585.791474 -214.138717 
L 584.512974 -214.439661 
L 583.234475 -214.715499 
L 581.955976 -214.966837 
L 580.677477 -215.194712 
L 579.398978 -215.400695 
L 578.120478 -215.586921 
L 576.841979 -215.756026 
L 575.56348 -215.911004 
L 574.284981 -216.054989 
L 573.006481 -216.190996 
L 571.727982 -216.321636 
L 570.449483 -216.448864 
L 569.170984 -216.573792 
L 567.892484 -216.696613 
L 566.613985 -216.81664 
L 565.335486 -216.932483 
L 564.056987 -217.042334 
L 562.778487 -217.144316 
L 561.499988 -217.236844 
L 560.221489 -217.31894 
L 558.94299 -217.390446 
L 557.664491 -217.452095 
L 556.385991 -217.505446 
L 555.107492 -217.55267 
L 553.828993 -217.596251 
L 552.550494 -217.638645 
L 551.271994 -217.681954 
L 549.993495 -217.727669 
z
" id="m44d05aa83d" style="stroke:#575757;"/>
    </defs>
    <g clip-path="url(#p8932961f51)">
     <use style="fill:#7c78ab;stroke:#575757;" x="0" xlink:href="#m44d05aa83d" y="316.395"/>
    </g>
   </g>
   <g id="PolyCollection_2">
    <defs>
     <path d="M 534.544001 -155.053983 
L 534.544001 -155.492267 
L 535.975817 -155.510566 
L 537.407632 -155.525626 
L 538.839447 -155.537717 
L 540.271262 -155.54751 
L 541.703078 -155.55598 
L 543.134893 -155.56427 
L 544.566708 -155.573536 
L 545.998524 -155.584785 
L 547.430339 -155.598726 
L 548.862154 -155.615681 
L 550.293969 -155.635609 
L 551.725785 -155.658281 
L 553.1576 -155.68362 
L 554.589415 -155.712165 
L 556.021231 -155.745542 
L 557.453046 -155.78684 
L 558.884861 -155.840723 
L 560.316676 -155.913202 
L 561.748492 -156.011026 
L 563.180307 -156.140746 
L 564.612122 -156.307601 
L 566.043937 -156.514407 
L 567.475753 -156.760726 
L 568.907568 -157.042504 
L 570.339383 -157.352379 
L 571.771199 -157.680673 
L 573.203014 -158.016989 
L 574.634829 -158.352144 
L 576.066644 -158.680092 
L 577.49846 -158.999444 
L 578.930275 -159.314239 
L 580.36209 -159.633765 
L 581.793906 -159.971362 
L 583.225721 -160.34236 
L 584.657536 -160.761454 
L 586.089351 -161.239937 
L 587.521167 -161.783303 
L 588.952982 -162.389678 
L 590.384797 -163.049477 
L 591.816612 -163.746459 
L 593.248428 -164.46012 
L 594.680243 -165.169074 
L 596.112058 -165.85484 
L 597.543874 -166.505313 
L 598.975689 -167.117184 
L 600.407504 -167.69675 
L 601.839319 -168.258862 
L 603.271135 -168.824146 
L 604.70295 -169.415027 
L 606.134765 -170.051362 
L 607.566581 -170.746569 
L 608.998396 -171.50501 
L 610.430211 -172.321067 
L 611.862026 -173.179958 
L 613.293842 -174.060007 
L 614.725657 -174.935823 
L 616.157472 -175.781818 
L 617.589288 -176.57547 
L 619.021103 -177.29986 
L 620.452918 -177.945107 
L 621.884733 -178.508456 
L 623.316549 -178.992968 
L 624.748364 -179.405051 
L 626.180179 -179.751381 
L 627.611994 -180.036005 
L 629.04381 -180.258453 
L 630.475625 -180.413489 
L 631.90744 -180.492625 
L 633.339256 -180.486971 
L 634.771071 -180.390519 
L 636.202886 -180.202775 
L 637.634701 -179.929862 
L 639.066517 -179.583738 
L 640.498332 -179.179829 
L 641.930147 -178.733925 
L 643.361963 -178.259394 
L 644.793778 -177.765617 
L 646.225593 -177.258028 
L 647.657408 -176.739556 
L 649.089224 -176.212741 
L 650.521039 -175.681621 
L 651.952854 -175.152661 
L 653.384669 -174.634379 
L 654.816485 -174.135889 
L 656.2483 -173.664892 
L 657.680115 -173.225787 
L 659.111931 -172.818387 
L 660.543746 -172.43738 
L 661.975561 -172.072343 
L 663.407376 -171.707977 
L 664.839192 -171.324377 
L 666.271007 -170.897435 
L 667.702822 -170.399843 
L 669.134638 -169.803255 
L 670.566453 -169.081917 
L 671.998268 -168.217521 
L 673.430083 -167.204321 
L 674.861899 -166.053102 
L 676.293714 -164.792556 
L 676.293714 -145.753694 
L 676.293714 -145.753694 
L 674.861899 -144.493148 
L 673.430083 -143.341929 
L 671.998268 -142.328729 
L 670.566453 -141.464333 
L 669.134638 -140.742995 
L 667.702822 -140.146407 
L 666.271007 -139.648815 
L 664.839192 -139.221873 
L 663.407376 -138.838273 
L 661.975561 -138.473907 
L 660.543746 -138.10887 
L 659.111931 -137.727863 
L 657.680115 -137.320463 
L 656.2483 -136.881358 
L 654.816485 -136.410361 
L 653.384669 -135.911871 
L 651.952854 -135.393589 
L 650.521039 -134.864629 
L 649.089224 -134.333509 
L 647.657408 -133.806694 
L 646.225593 -133.288222 
L 644.793778 -132.780633 
L 643.361963 -132.286856 
L 641.930147 -131.812325 
L 640.498332 -131.366421 
L 639.066517 -130.962512 
L 637.634701 -130.616388 
L 636.202886 -130.343475 
L 634.771071 -130.155731 
L 633.339256 -130.059279 
L 631.90744 -130.053625 
L 630.475625 -130.132761 
L 629.04381 -130.287797 
L 627.611994 -130.510245 
L 626.180179 -130.794869 
L 624.748364 -131.141199 
L 623.316549 -131.553282 
L 621.884733 -132.037794 
L 620.452918 -132.601143 
L 619.021103 -133.24639 
L 617.589288 -133.97078 
L 616.157472 -134.764432 
L 614.725657 -135.610427 
L 613.293842 -136.486243 
L 611.862026 -137.366292 
L 610.430211 -138.225183 
L 608.998396 -139.04124 
L 607.566581 -139.799681 
L 606.134765 -140.494888 
L 604.70295 -141.131223 
L 603.271135 -141.722104 
L 601.839319 -142.287388 
L 600.407504 -142.8495 
L 598.975689 -143.429066 
L 597.543874 -144.040937 
L 596.112058 -144.69141 
L 594.680243 -145.377176 
L 593.248428 -146.08613 
L 591.816612 -146.799791 
L 590.384797 -147.496773 
L 588.952982 -148.156572 
L 587.521167 -148.762947 
L 586.089351 -149.306313 
L 584.657536 -149.784796 
L 583.225721 -150.20389 
L 581.793906 -150.574888 
L 580.36209 -150.912485 
L 578.930275 -151.232011 
L 577.49846 -151.546806 
L 576.066644 -151.866158 
L 574.634829 -152.194106 
L 573.203014 -152.529261 
L 571.771199 -152.865577 
L 570.339383 -153.193871 
L 568.907568 -153.503746 
L 567.475753 -153.785524 
L 566.043937 -154.031843 
L 564.612122 -154.238649 
L 563.180307 -154.405504 
L 561.748492 -154.535224 
L 560.316676 -154.633048 
L 558.884861 -154.705527 
L 557.453046 -154.75941 
L 556.021231 -154.800708 
L 554.589415 -154.834085 
L 553.1576 -154.86263 
L 551.725785 -154.887969 
L 550.293969 -154.910641 
L 548.862154 -154.930569 
L 547.430339 -154.947524 
L 545.998524 -154.961465 
L 544.566708 -154.972714 
L 543.134893 -154.98198 
L 541.703078 -154.99027 
L 540.271262 -154.99874 
L 538.839447 -155.008533 
L 537.407632 -155.020624 
L 535.975817 -155.035684 
L 534.544001 -155.053983 
z
" id="m35fb018242" style="stroke:#575757;"/>
    </defs>
    <g clip-path="url(#p8932961f51)">
     <use style="fill:#7c78ab;stroke:#575757;" x="0" xlink:href="#m35fb018242" y="316.395"/>
    </g>
   </g>
   <g id="PolyCollection_3">
    <defs>
     <path d="M 590.340316 -89.543615 
L 590.340316 -94.905135 
L 591.194187 -95.203773 
L 592.048059 -95.528975 
L 592.90193 -95.881788 
L 593.755802 -96.262873 
L 594.609673 -96.672404 
L 595.463545 -97.109976 
L 596.317416 -97.574529 
L 597.171288 -98.064284 
L 598.025159 -98.576711 
L 598.879031 -99.108517 
L 599.732902 -99.655673 
L 600.586774 -100.213468 
L 601.440645 -100.776601 
L 602.294516 -101.339307 
L 603.148388 -101.895514 
L 604.002259 -102.43902 
L 604.856131 -102.963703 
L 605.710002 -103.463728 
L 606.563874 -103.933778 
L 607.417745 -104.36927 
L 608.271617 -104.766562 
L 609.125488 -105.123142 
L 609.97936 -105.437783 
L 610.833231 -105.71066 
L 611.687103 -105.943421 
L 612.540974 -106.139209 
L 613.394846 -106.30262 
L 614.248717 -106.43961 
L 615.102588 -106.557336 
L 615.95646 -106.663947 
L 616.810331 -106.768317 
L 617.664203 -106.879742 
L 618.518074 -107.007599 
L 619.371946 -107.160982 
L 620.225817 -107.348337 
L 621.079689 -107.577101 
L 621.93356 -107.853365 
L 622.787432 -108.181575 
L 623.641303 -108.564292 
L 624.495175 -109.002005 
L 625.349046 -109.493039 
L 626.202918 -110.033526 
L 627.056789 -110.617483 
L 627.91066 -111.236959 
L 628.764532 -111.882277 
L 629.618403 -112.542347 
L 630.472275 -113.205041 
L 631.326146 -113.857611 
L 632.180018 -114.487145 
L 633.033889 -115.081023 
L 633.887761 -115.627368 
L 634.741632 -116.115462 
L 635.595504 -116.536113 
L 636.449375 -116.881956 
L 637.303247 -117.147676 
L 638.157118 -117.330141 
L 639.010989 -117.428448 
L 639.864861 -117.443875 
L 640.718732 -117.379754 
L 641.572604 -117.241263 
L 642.426475 -117.03516 
L 643.280347 -116.769473 
L 644.134218 -116.453156 
L 644.98809 -116.095734 
L 645.841961 -115.706954 
L 646.695833 -115.296451 
L 647.549704 -114.873445 
L 648.403576 -114.446476 
L 649.257447 -114.023184 
L 650.111319 -113.610139 
L 650.96519 -113.212708 
L 651.819061 -112.834985 
L 652.672933 -112.479743 
L 653.526804 -112.148444 
L 654.380676 -111.84126 
L 655.234547 -111.557145 
L 656.088419 -111.293912 
L 656.94229 -111.048346 
L 657.796162 -110.816329 
L 658.650033 -110.592984 
L 659.503905 -110.372837 
L 660.357776 -110.149994 
L 661.211648 -109.918327 
L 662.065519 -109.671677 
L 662.919391 -109.404054 
L 663.773262 -109.109848 
L 664.627133 -108.784027 
L 665.481005 -108.422323 
L 666.334876 -108.021406 
L 667.188748 -107.579017 
L 668.042619 -107.094074 
L 668.896491 -106.56674 
L 669.750362 -105.998438 
L 670.604234 -105.391822 
L 671.458105 -104.750705 
L 672.311977 -104.079935 
L 673.165848 -103.385245 
L 674.01972 -102.673055 
L 674.873591 -101.950267 
L 674.873591 -82.498483 
L 674.873591 -82.498483 
L 674.01972 -81.775695 
L 673.165848 -81.063505 
L 672.311977 -80.368815 
L 671.458105 -79.698045 
L 670.604234 -79.056928 
L 669.750362 -78.450312 
L 668.896491 -77.88201 
L 668.042619 -77.354676 
L 667.188748 -76.869733 
L 666.334876 -76.427344 
L 665.481005 -76.026427 
L 664.627133 -75.664723 
L 663.773262 -75.338902 
L 662.919391 -75.044696 
L 662.065519 -74.777073 
L 661.211648 -74.530423 
L 660.357776 -74.298756 
L 659.503905 -74.075913 
L 658.650033 -73.855766 
L 657.796162 -73.632421 
L 656.94229 -73.400404 
L 656.088419 -73.154838 
L 655.234547 -72.891605 
L 654.380676 -72.60749 
L 653.526804 -72.300306 
L 652.672933 -71.969007 
L 651.819061 -71.613765 
L 650.96519 -71.236042 
L 650.111319 -70.838611 
L 649.257447 -70.425566 
L 648.403576 -70.002274 
L 647.549704 -69.575305 
L 646.695833 -69.152299 
L 645.841961 -68.741796 
L 644.98809 -68.353016 
L 644.134218 -67.995594 
L 643.280347 -67.679277 
L 642.426475 -67.41359 
L 641.572604 -67.207487 
L 640.718732 -67.068996 
L 639.864861 -67.004875 
L 639.010989 -67.020302 
L 638.157118 -67.118609 
L 637.303247 -67.301074 
L 636.449375 -67.566794 
L 635.595504 -67.912637 
L 634.741632 -68.333288 
L 633.887761 -68.821382 
L 633.033889 -69.367727 
L 632.180018 -69.961605 
L 631.326146 -70.591139 
L 630.472275 -71.243709 
L 629.618403 -71.906403 
L 628.764532 -72.566473 
L 627.91066 -73.211791 
L 627.056789 -73.831267 
L 626.202918 -74.415224 
L 625.349046 -74.955711 
L 624.495175 -75.446745 
L 623.641303 -75.884458 
L 622.787432 -76.267175 
L 621.93356 -76.595385 
L 621.079689 -76.871649 
L 620.225817 -77.100413 
L 619.371946 -77.287768 
L 618.518074 -77.441151 
L 617.664203 -77.569008 
L 616.810331 -77.680433 
L 615.95646 -77.784803 
L 615.102588 -77.891414 
L 614.248717 -78.00914 
L 613.394846 -78.14613 
L 612.540974 -78.309541 
L 611.687103 -78.505329 
L 610.833231 -78.73809 
L 609.97936 -79.010967 
L 609.125488 -79.325608 
L 608.271617 -79.682188 
L 607.417745 -80.07948 
L 606.563874 -80.514972 
L 605.710002 -80.985022 
L 604.856131 -81.485047 
L 604.002259 -82.00973 
L 603.148388 -82.553236 
L 602.294516 -83.109443 
L 601.440645 -83.672149 
L 600.586774 -84.235282 
L 599.732902 -84.793077 
L 598.879031 -85.340233 
L 598.025159 -85.872039 
L 597.171288 -86.384466 
L 596.317416 -86.874221 
L 595.463545 -87.338774 
L 594.609673 -87.776346 
L 593.755802 -88.185877 
L 592.90193 -88.566962 
L 592.048059 -88.919775 
L 591.194187 -89.244977 
L 590.340316 -89.543615 
z
" id="meb375e5323" style="stroke:#575757;"/>
    </defs>
    <g clip-path="url(#p8932961f51)">
     <use style="fill:#7c78ab;stroke:#575757;" x="0" xlink:href="#meb375e5323" y="316.395"/>
    </g>
   </g>
   <g id="patch_46">
    <path clip-path="url(#p8932961f51)" d="M 443.943 35.024375 
L 443.943 35.024375 
L 443.943 35.024375 
L 443.943 35.024375 
z
" style="fill:#7c78ab;stroke:#575757;stroke-linejoin:miter;stroke-width:0.5;"/>
   </g>
   <g id="matplotlib.axis_3">
    <g id="xtick_5">
     <g id="line2d_11">
      <g>
       <use style="stroke:#000000;stroke-width:1.6;" x="443.943" xlink:href="#m213747b99c" y="255.695"/>
      </g>
     </g>
     <g id="text_12">
      <!-- 0.0 -->
      <g transform="translate(428.039875 285.591875)scale(0.2 -0.2)">
       <use xlink:href="#DejaVuSans-48"/>
       <use x="63.623047" xlink:href="#DejaVuSans-46"/>
       <use x="95.410156" xlink:href="#DejaVuSans-48"/>
      </g>
     </g>
    </g>
    <g id="xtick_6">
     <g id="line2d_12">
      <g>
       <use style="stroke:#000000;stroke-width:1.6;" x="511.195" xlink:href="#m213747b99c" y="255.695"/>
      </g>
     </g>
     <g id="text_13">
      <!-- 0.2 -->
      <g transform="translate(495.291875 285.591875)scale(0.2 -0.2)">
       <use xlink:href="#DejaVuSans-48"/>
       <use x="63.623047" xlink:href="#DejaVuSans-46"/>
       <use x="95.410156" xlink:href="#DejaVuSans-50"/>
      </g>
     </g>
    </g>
    <g id="xtick_7">
     <g id="line2d_13">
      <g>
       <use style="stroke:#000000;stroke-width:1.6;" x="578.447" xlink:href="#m213747b99c" y="255.695"/>
      </g>
     </g>
     <g id="text_14">
      <!-- 0.4 -->
      <g transform="translate(562.543875 285.591875)scale(0.2 -0.2)">
       <use xlink:href="#DejaVuSans-48"/>
       <use x="63.623047" xlink:href="#DejaVuSans-46"/>
       <use x="95.410156" xlink:href="#DejaVuSans-52"/>
      </g>
     </g>
    </g>
    <g id="xtick_8">
     <g id="line2d_14">
      <g>
       <use style="stroke:#000000;stroke-width:1.6;" x="645.699" xlink:href="#m213747b99c" y="255.695"/>
      </g>
     </g>
     <g id="text_15">
      <!-- 0.6 -->
      <g transform="translate(629.795875 285.591875)scale(0.2 -0.2)">
       <use xlink:href="#DejaVuSans-48"/>
       <use x="63.623047" xlink:href="#DejaVuSans-46"/>
       <use x="95.410156" xlink:href="#DejaVuSans-54"/>
      </g>
     </g>
    </g>
    <g id="text_16">
     <!-- Max Attention -->
     <defs>
      <path d="M 34.1875 63.1875 
L 20.796875 26.90625 
L 47.609375 26.90625 
z
M 28.609375 72.90625 
L 39.796875 72.90625 
L 67.578125 0 
L 57.328125 0 
L 50.6875 18.703125 
L 17.828125 18.703125 
L 11.1875 0 
L 0.78125 0 
z
" id="DejaVuSans-65"/>
      <path d="M 30.609375 48.390625 
Q 23.390625 48.390625 19.1875 42.75 
Q 14.984375 37.109375 14.984375 27.296875 
Q 14.984375 17.484375 19.15625 11.84375 
Q 23.34375 6.203125 30.609375 6.203125 
Q 37.796875 6.203125 41.984375 11.859375 
Q 46.1875 17.53125 46.1875 27.296875 
Q 46.1875 37.015625 41.984375 42.703125 
Q 37.796875 48.390625 30.609375 48.390625 
z
M 30.609375 56 
Q 42.328125 56 49.015625 48.375 
Q 55.71875 40.765625 55.71875 27.296875 
Q 55.71875 13.875 49.015625 6.21875 
Q 42.328125 -1.421875 30.609375 -1.421875 
Q 18.84375 -1.421875 12.171875 6.21875 
Q 5.515625 13.875 5.515625 27.296875 
Q 5.515625 40.765625 12.171875 48.375 
Q 18.84375 56 30.609375 56 
z
" id="DejaVuSans-111"/>
     </defs>
     <g transform="translate(483.049375 308.948125)scale(0.2 -0.2)">
      <use xlink:href="#DejaVuSans-77"/>
      <use x="86.279297" xlink:href="#DejaVuSans-97"/>
      <use x="147.558594" xlink:href="#DejaVuSans-120"/>
      <use x="206.738281" xlink:href="#DejaVuSans-32"/>
      <use x="238.525391" xlink:href="#DejaVuSans-65"/>
      <use x="306.917969" xlink:href="#DejaVuSans-116"/>
      <use x="346.126953" xlink:href="#DejaVuSans-116"/>
      <use x="385.335938" xlink:href="#DejaVuSans-101"/>
      <use x="446.859375" xlink:href="#DejaVuSans-110"/>
      <use x="510.238281" xlink:href="#DejaVuSans-116"/>
      <use x="549.447266" xlink:href="#DejaVuSans-105"/>
      <use x="577.230469" xlink:href="#DejaVuSans-111"/>
      <use x="638.412109" xlink:href="#DejaVuSans-110"/>
     </g>
    </g>
   </g>
   <g id="matplotlib.axis_4">
    <g id="ytick_7">
     <g id="line2d_15">
      <g>
       <use style="stroke:#000000;stroke-width:1.6;" x="427.13" xlink:href="#m97eed64053" y="35.024375"/>
      </g>
     </g>
     <g id="text_17">
      <!-- [0.00, -->
      <defs>
       <path d="M 8.59375 75.984375 
L 29.296875 75.984375 
L 29.296875 69 
L 17.578125 69 
L 17.578125 -6.203125 
L 29.296875 -6.203125 
L 29.296875 -13.1875 
L 8.59375 -13.1875 
z
" id="DejaVuSans-91"/>
       <path d="M 11.71875 12.40625 
L 22.015625 12.40625 
L 22.015625 4 
L 14.015625 -11.625 
L 7.71875 -11.625 
L 11.71875 4 
z
" id="DejaVuSans-44"/>
      </defs>
      <g transform="translate(353.739375 31.425)scale(0.2 -0.2)">
       <use xlink:href="#DejaVuSans-91"/>
       <use x="39.013672" xlink:href="#DejaVuSans-48"/>
       <use x="102.636719" xlink:href="#DejaVuSans-46"/>
       <use x="134.423828" xlink:href="#DejaVuSans-48"/>
       <use x="198.046875" xlink:href="#DejaVuSans-48"/>
       <use x="261.669922" xlink:href="#DejaVuSans-44"/>
      </g>
      <!-- 0.25) -->
      <defs>
       <path d="M 10.796875 72.90625 
L 49.515625 72.90625 
L 49.515625 64.59375 
L 19.828125 64.59375 
L 19.828125 46.734375 
Q 21.96875 47.46875 24.109375 47.828125 
Q 26.265625 48.1875 28.421875 48.1875 
Q 40.625 48.1875 47.75 41.5 
Q 54.890625 34.8125 54.890625 23.390625 
Q 54.890625 11.625 47.5625 5.09375 
Q 40.234375 -1.421875 26.90625 -1.421875 
Q 22.3125 -1.421875 17.546875 -0.640625 
Q 12.796875 0.140625 7.71875 1.703125 
L 7.71875 11.625 
Q 12.109375 9.234375 16.796875 8.0625 
Q 21.484375 6.890625 26.703125 6.890625 
Q 35.15625 6.890625 40.078125 11.328125 
Q 45.015625 15.765625 45.015625 23.390625 
Q 45.015625 31 40.078125 35.4375 
Q 35.15625 39.890625 26.703125 39.890625 
Q 22.75 39.890625 18.8125 39.015625 
Q 14.890625 38.140625 10.796875 36.28125 
z
" id="DejaVuSans-53"/>
       <path d="M 8.015625 75.875 
L 15.828125 75.875 
Q 23.140625 64.359375 26.78125 53.3125 
Q 30.421875 42.28125 30.421875 31.390625 
Q 30.421875 20.453125 26.78125 9.375 
Q 23.140625 -1.703125 15.828125 -13.1875 
L 8.015625 -13.1875 
Q 14.5 -2 17.703125 9.0625 
Q 20.90625 20.125 20.90625 31.390625 
Q 20.90625 42.671875 17.703125 53.65625 
Q 14.5 64.65625 8.015625 75.875 
z
" id="DejaVuSans-41"/>
      </defs>
      <g transform="translate(360.095625 53.820625)scale(0.2 -0.2)">
       <use xlink:href="#DejaVuSans-48"/>
       <use x="63.623047" xlink:href="#DejaVuSans-46"/>
       <use x="95.410156" xlink:href="#DejaVuSans-50"/>
       <use x="159.033203" xlink:href="#DejaVuSans-53"/>
       <use x="222.65625" xlink:href="#DejaVuSans-41"/>
      </g>
     </g>
    </g>
    <g id="ytick_8">
     <g id="line2d_16">
      <g>
       <use style="stroke:#000000;stroke-width:1.6;" x="427.13" xlink:href="#m97eed64053" y="98.073125"/>
      </g>
     </g>
     <g id="text_18">
      <!-- [0.25, -->
      <g transform="translate(353.739375 94.47375)scale(0.2 -0.2)">
       <use xlink:href="#DejaVuSans-91"/>
       <use x="39.013672" xlink:href="#DejaVuSans-48"/>
       <use x="102.636719" xlink:href="#DejaVuSans-46"/>
       <use x="134.423828" xlink:href="#DejaVuSans-50"/>
       <use x="198.046875" xlink:href="#DejaVuSans-53"/>
       <use x="261.669922" xlink:href="#DejaVuSans-44"/>
      </g>
      <!-- 0.50) -->
      <g transform="translate(360.095625 116.869375)scale(0.2 -0.2)">
       <use xlink:href="#DejaVuSans-48"/>
       <use x="63.623047" xlink:href="#DejaVuSans-46"/>
       <use x="95.410156" xlink:href="#DejaVuSans-53"/>
       <use x="159.033203" xlink:href="#DejaVuSans-48"/>
       <use x="222.65625" xlink:href="#DejaVuSans-41"/>
      </g>
     </g>
    </g>
    <g id="ytick_9">
     <g id="line2d_17">
      <g>
       <use style="stroke:#000000;stroke-width:1.6;" x="427.13" xlink:href="#m97eed64053" y="161.121875"/>
      </g>
     </g>
     <g id="text_19">
      <!-- [0.50, -->
      <g transform="translate(353.739375 157.5225)scale(0.2 -0.2)">
       <use xlink:href="#DejaVuSans-91"/>
       <use x="39.013672" xlink:href="#DejaVuSans-48"/>
       <use x="102.636719" xlink:href="#DejaVuSans-46"/>
       <use x="134.423828" xlink:href="#DejaVuSans-53"/>
       <use x="198.046875" xlink:href="#DejaVuSans-48"/>
       <use x="261.669922" xlink:href="#DejaVuSans-44"/>
      </g>
      <!-- 0.75) -->
      <defs>
       <path d="M 8.203125 72.90625 
L 55.078125 72.90625 
L 55.078125 68.703125 
L 28.609375 0 
L 18.3125 0 
L 43.21875 64.59375 
L 8.203125 64.59375 
z
" id="DejaVuSans-55"/>
      </defs>
      <g transform="translate(360.095625 179.918125)scale(0.2 -0.2)">
       <use xlink:href="#DejaVuSans-48"/>
       <use x="63.623047" xlink:href="#DejaVuSans-46"/>
       <use x="95.410156" xlink:href="#DejaVuSans-55"/>
       <use x="159.033203" xlink:href="#DejaVuSans-53"/>
       <use x="222.65625" xlink:href="#DejaVuSans-41"/>
      </g>
     </g>
    </g>
    <g id="ytick_10">
     <g id="line2d_18">
      <g>
       <use style="stroke:#000000;stroke-width:1.6;" x="427.13" xlink:href="#m97eed64053" y="224.170625"/>
      </g>
     </g>
     <g id="text_20">
      <!-- [0.75, -->
      <g transform="translate(353.739375 220.57125)scale(0.2 -0.2)">
       <use xlink:href="#DejaVuSans-91"/>
       <use x="39.013672" xlink:href="#DejaVuSans-48"/>
       <use x="102.636719" xlink:href="#DejaVuSans-46"/>
       <use x="134.423828" xlink:href="#DejaVuSans-55"/>
       <use x="198.046875" xlink:href="#DejaVuSans-53"/>
       <use x="261.669922" xlink:href="#DejaVuSans-44"/>
      </g>
      <!-- 1.00) -->
      <g transform="translate(360.095625 242.966875)scale(0.2 -0.2)">
       <use xlink:href="#DejaVuSans-49"/>
       <use x="63.623047" xlink:href="#DejaVuSans-46"/>
       <use x="95.410156" xlink:href="#DejaVuSans-48"/>
       <use x="159.033203" xlink:href="#DejaVuSans-48"/>
       <use x="222.65625" xlink:href="#DejaVuSans-41"/>
      </g>
     </g>
    </g>
    <g id="text_21">
     <!-- Max JS Divergence within $\epsilon$ -->
     <g transform="translate(345.539375 265.1975)rotate(-90)scale(0.2 -0.2)">
      <use transform="translate(0 0.015625)" xlink:href="#DejaVuSans-77"/>
      <use transform="translate(86.279297 0.015625)" xlink:href="#DejaVuSans-97"/>
      <use transform="translate(147.558594 0.015625)" xlink:href="#DejaVuSans-120"/>
      <use transform="translate(206.738281 0.015625)" xlink:href="#DejaVuSans-32"/>
      <use transform="translate(238.525391 0.015625)" xlink:href="#DejaVuSans-74"/>
      <use transform="translate(268.017578 0.015625)" xlink:href="#DejaVuSans-83"/>
      <use transform="translate(331.494141 0.015625)" xlink:href="#DejaVuSans-32"/>
      <use transform="translate(363.28125 0.015625)" xlink:href="#DejaVuSans-68"/>
      <use transform="translate(440.283203 0.015625)" xlink:href="#DejaVuSans-105"/>
      <use transform="translate(468.066406 0.015625)" xlink:href="#DejaVuSans-118"/>
      <use transform="translate(527.246094 0.015625)" xlink:href="#DejaVuSans-101"/>
      <use transform="translate(588.769531 0.015625)" xlink:href="#DejaVuSans-114"/>
      <use transform="translate(629.882812 0.015625)" xlink:href="#DejaVuSans-103"/>
      <use transform="translate(693.359375 0.015625)" xlink:href="#DejaVuSans-101"/>
      <use transform="translate(754.882812 0.015625)" xlink:href="#DejaVuSans-110"/>
      <use transform="translate(818.261719 0.015625)" xlink:href="#DejaVuSans-99"/>
      <use transform="translate(873.242188 0.015625)" xlink:href="#DejaVuSans-101"/>
      <use transform="translate(934.765625 0.015625)" xlink:href="#DejaVuSans-32"/>
      <use transform="translate(966.552734 0.015625)" xlink:href="#DejaVuSans-119"/>
      <use transform="translate(1048.339844 0.015625)" xlink:href="#DejaVuSans-105"/>
      <use transform="translate(1076.123047 0.015625)" xlink:href="#DejaVuSans-116"/>
      <use transform="translate(1115.332031 0.015625)" xlink:href="#DejaVuSans-104"/>
      <use transform="translate(1178.710938 0.015625)" xlink:href="#DejaVuSans-105"/>
      <use transform="translate(1206.494141 0.015625)" xlink:href="#DejaVuSans-110"/>
      <use transform="translate(1269.873047 0.015625)" xlink:href="#DejaVuSans-32"/>
      <use transform="translate(1301.660156 0.015625)" xlink:href="#DejaVuSans-Oblique-949"/>
     </g>
    </g>
   </g>
   <g id="line2d_19">
    <path clip-path="url(#p8932961f51)" style="fill:none;stroke:#575757;stroke-dasharray:1.5,1.5;stroke-dashoffset:0;"/>
   </g>
   <g id="line2d_20">
    <path clip-path="url(#p8932961f51)" style="fill:none;stroke:#575757;stroke-dasharray:3,3;stroke-dashoffset:0;"/>
   </g>
   <g id="line2d_21">
    <path clip-path="url(#p8932961f51)" style="fill:none;stroke:#575757;stroke-dasharray:1.5,1.5;stroke-dashoffset:0;"/>
   </g>
   <g id="line2d_22">
    <path clip-path="url(#p8932961f51)" style="fill:none;stroke:#575757;stroke-dasharray:1.5,1.5;stroke-dashoffset:0;"/>
   </g>
   <g id="line2d_23">
    <path clip-path="url(#p8932961f51)" style="fill:none;stroke:#575757;stroke-dasharray:3,3;stroke-dashoffset:0;"/>
   </g>
   <g id="line2d_24">
    <path clip-path="url(#p8932961f51)" style="fill:none;stroke:#575757;stroke-dasharray:1.5,1.5;stroke-dashoffset:0;"/>
   </g>
   <g id="line2d_25">
    <path clip-path="url(#p8932961f51)" style="fill:none;stroke:#575757;stroke-dasharray:1.5,1.5;stroke-dashoffset:0;"/>
   </g>
   <g id="line2d_26">
    <path clip-path="url(#p8932961f51)" style="fill:none;stroke:#575757;stroke-dasharray:3,3;stroke-dashoffset:0;"/>
   </g>
   <g id="line2d_27">
    <path clip-path="url(#p8932961f51)" style="fill:none;stroke:#575757;stroke-dasharray:1.5,1.5;stroke-dashoffset:0;"/>
   </g>
   <g id="patch_47">
    <path style="fill:none;stroke:#000000;stroke-linecap:square;stroke-linejoin:miter;stroke-width:0.8;"/>
   </g>
   <g id="patch_48">
    <path style="fill:none;stroke:#000000;stroke-linecap:square;stroke-linejoin:miter;stroke-width:0.8;"/>
   </g>
  </g>
 </g>
 <defs>
  <clipPath id="p1a8b7fd384">
   <rect height="252.195" width="252.195" x="59.575" y="3.5"/>
  </clipPath>
  <clipPath id="p8932961f51">
   <rect height="252.195" width="252.195" x="427.13" y="3.5"/>
  </clipPath>
 </defs>
</svg>
