<?xml version="1.0" encoding="utf-8" standalone="no"?>
<!DOCTYPE svg PUBLIC "-//W3C//DTD SVG 1.1//EN"
  "http://www.w3.org/Graphics/SVG/1.1/DTD/svg11.dtd">
<!-- Created with matplotlib (https://matplotlib.org/) -->
<svg height="320.686667pt" version="1.1" viewBox="0 0 311.164036 320.686667" width="311.164036pt" xmlns="http://www.w3.org/2000/svg" xmlns:xlink="http://www.w3.org/1999/xlink">
 <defs>
  <style type="text/css">
*{stroke-linecap:butt;stroke-linejoin:round;}
  </style>
 </defs>
 <g id="figure_1">
  <g id="patch_1">
   <path d="M 0 320.686667 
L 311.164036 320.686667 
L 311.164036 0 
L 0 0 
z
" style="fill:#ffffff;"/>
  </g>
  <g id="axes_1">
   <g id="patch_2">
    <path d="M 46.7 259.986667 
L 303.186667 259.986667 
L 303.186667 3.5 
L 46.7 3.5 
z
" style="fill:#ffffff;"/>
   </g>
   <g id="patch_3">
    <path clip-path="url(#pc36f93b1da)" d="M 58.358485 259.986667 
L 64.187727 259.986667 
L 64.187727 240.827999 
L 58.358485 240.827999 
z
" style="fill:#7570b3;opacity:0.6;stroke:#000000;stroke-linejoin:miter;stroke-width:0.5;"/>
   </g>
   <g id="patch_4">
    <path clip-path="url(#pc36f93b1da)" d="M 64.187727 259.986667 
L 70.01697 259.986667 
L 70.01697 257.591833 
L 64.187727 257.591833 
z
" style="fill:#7570b3;opacity:0.6;stroke:#000000;stroke-linejoin:miter;stroke-width:0.5;"/>
   </g>
   <g id="patch_5">
    <path clip-path="url(#pc36f93b1da)" d="M 70.01697 259.986667 
L 75.846212 259.986667 
L 75.846212 255.995278 
L 70.01697 255.995278 
z
" style="fill:#7570b3;opacity:0.6;stroke:#000000;stroke-linejoin:miter;stroke-width:0.5;"/>
   </g>
   <g id="patch_6">
    <path clip-path="url(#pc36f93b1da)" d="M 75.846212 259.986667 
L 81.675455 259.986667 
L 81.675455 251.205611 
L 75.846212 251.205611 
z
" style="fill:#7570b3;opacity:0.6;stroke:#000000;stroke-linejoin:miter;stroke-width:0.5;"/>
   </g>
   <g id="patch_7">
    <path clip-path="url(#pc36f93b1da)" d="M 81.675455 259.986667 
L 87.504697 259.986667 
L 87.504697 249.609055 
L 81.675455 249.609055 
z
" style="fill:#7570b3;opacity:0.6;stroke:#000000;stroke-linejoin:miter;stroke-width:0.5;"/>
   </g>
   <g id="patch_8">
    <path clip-path="url(#pc36f93b1da)" d="M 87.504697 259.986667 
L 93.333939 259.986667 
L 93.333939 247.214221 
L 87.504697 247.214221 
z
" style="fill:#7570b3;opacity:0.6;stroke:#000000;stroke-linejoin:miter;stroke-width:0.5;"/>
   </g>
   <g id="patch_9">
    <path clip-path="url(#pc36f93b1da)" d="M 93.333939 259.986667 
L 99.163182 259.986667 
L 99.163182 240.029721 
L 93.333939 240.029721 
z
" style="fill:#7570b3;opacity:0.6;stroke:#000000;stroke-linejoin:miter;stroke-width:0.5;"/>
   </g>
   <g id="patch_10">
    <path clip-path="url(#pc36f93b1da)" d="M 99.163182 259.986667 
L 104.992424 259.986667 
L 104.992424 242.424554 
L 99.163182 242.424554 
z
" style="fill:#7570b3;opacity:0.6;stroke:#000000;stroke-linejoin:miter;stroke-width:0.5;"/>
   </g>
   <g id="patch_11">
    <path clip-path="url(#pc36f93b1da)" d="M 104.992424 259.986667 
L 110.821667 259.986667 
L 110.821667 238.433165 
L 104.992424 238.433165 
z
" style="fill:#7570b3;opacity:0.6;stroke:#000000;stroke-linejoin:miter;stroke-width:0.5;"/>
   </g>
   <g id="patch_12">
    <path clip-path="url(#pc36f93b1da)" d="M 110.821667 259.986667 
L 116.650909 259.986667 
L 116.650909 240.029721 
L 110.821667 240.029721 
z
" style="fill:#7570b3;opacity:0.6;stroke:#000000;stroke-linejoin:miter;stroke-width:0.5;"/>
   </g>
   <g id="patch_13">
    <path clip-path="url(#pc36f93b1da)" d="M 116.650909 259.986667 
L 122.480152 259.986667 
L 122.480152 244.819388 
L 116.650909 244.819388 
z
" style="fill:#7570b3;opacity:0.6;stroke:#000000;stroke-linejoin:miter;stroke-width:0.5;"/>
   </g>
   <g id="patch_14">
    <path clip-path="url(#pc36f93b1da)" d="M 122.480152 259.986667 
L 128.309394 259.986667 
L 128.309394 234.441776 
L 122.480152 234.441776 
z
" style="fill:#7570b3;opacity:0.6;stroke:#000000;stroke-linejoin:miter;stroke-width:0.5;"/>
   </g>
   <g id="patch_15">
    <path clip-path="url(#pc36f93b1da)" d="M 128.309394 259.986667 
L 134.138636 259.986667 
L 134.138636 242.424554 
L 128.309394 242.424554 
z
" style="fill:#7570b3;opacity:0.6;stroke:#000000;stroke-linejoin:miter;stroke-width:0.5;"/>
   </g>
   <g id="patch_16">
    <path clip-path="url(#pc36f93b1da)" d="M 134.138636 259.986667 
L 139.967879 259.986667 
L 139.967879 237.634887 
L 134.138636 237.634887 
z
" style="fill:#7570b3;opacity:0.6;stroke:#000000;stroke-linejoin:miter;stroke-width:0.5;"/>
   </g>
   <g id="patch_17">
    <path clip-path="url(#pc36f93b1da)" d="M 139.967879 259.986667 
L 145.797121 259.986667 
L 145.797121 242.424554 
L 139.967879 242.424554 
z
" style="fill:#7570b3;opacity:0.6;stroke:#000000;stroke-linejoin:miter;stroke-width:0.5;"/>
   </g>
   <g id="patch_18">
    <path clip-path="url(#pc36f93b1da)" d="M 145.797121 259.986667 
L 151.626364 259.986667 
L 151.626364 247.214221 
L 145.797121 247.214221 
z
" style="fill:#7570b3;opacity:0.6;stroke:#000000;stroke-linejoin:miter;stroke-width:0.5;"/>
   </g>
   <g id="patch_19">
    <path clip-path="url(#pc36f93b1da)" d="M 151.626364 259.986667 
L 157.455606 259.986667 
L 157.455606 244.819388 
L 151.626364 244.819388 
z
" style="fill:#7570b3;opacity:0.6;stroke:#000000;stroke-linejoin:miter;stroke-width:0.5;"/>
   </g>
   <g id="patch_20">
    <path clip-path="url(#pc36f93b1da)" d="M 157.455606 259.986667 
L 163.284848 259.986667 
L 163.284848 248.810777 
L 157.455606 248.810777 
z
" style="fill:#7570b3;opacity:0.6;stroke:#000000;stroke-linejoin:miter;stroke-width:0.5;"/>
   </g>
   <g id="patch_21">
    <path clip-path="url(#pc36f93b1da)" d="M 163.284848 259.986667 
L 169.114091 259.986667 
L 169.114091 245.617666 
L 163.284848 245.617666 
z
" style="fill:#7570b3;opacity:0.6;stroke:#000000;stroke-linejoin:miter;stroke-width:0.5;"/>
   </g>
   <g id="patch_22">
    <path clip-path="url(#pc36f93b1da)" d="M 169.114091 259.986667 
L 174.943333 259.986667 
L 174.943333 250.407333 
L 169.114091 250.407333 
z
" style="fill:#7570b3;opacity:0.6;stroke:#000000;stroke-linejoin:miter;stroke-width:0.5;"/>
   </g>
   <g id="patch_23">
    <path clip-path="url(#pc36f93b1da)" d="M 174.943333 259.986667 
L 180.772576 259.986667 
L 180.772576 252.003888 
L 174.943333 252.003888 
z
" style="fill:#7570b3;opacity:0.6;stroke:#000000;stroke-linejoin:miter;stroke-width:0.5;"/>
   </g>
   <g id="patch_24">
    <path clip-path="url(#pc36f93b1da)" d="M 180.772576 259.986667 
L 186.601818 259.986667 
L 186.601818 245.617666 
L 180.772576 245.617666 
z
" style="fill:#7570b3;opacity:0.6;stroke:#000000;stroke-linejoin:miter;stroke-width:0.5;"/>
   </g>
   <g id="patch_25">
    <path clip-path="url(#pc36f93b1da)" d="M 186.601818 259.986667 
L 192.431061 259.986667 
L 192.431061 253.600444 
L 186.601818 253.600444 
z
" style="fill:#7570b3;opacity:0.6;stroke:#000000;stroke-linejoin:miter;stroke-width:0.5;"/>
   </g>
   <g id="patch_26">
    <path clip-path="url(#pc36f93b1da)" d="M 192.431061 259.986667 
L 198.260303 259.986667 
L 198.260303 252.003888 
L 192.431061 252.003888 
z
" style="fill:#7570b3;opacity:0.6;stroke:#000000;stroke-linejoin:miter;stroke-width:0.5;"/>
   </g>
   <g id="patch_27">
    <path clip-path="url(#pc36f93b1da)" d="M 198.260303 259.986667 
L 204.089545 259.986667 
L 204.089545 252.003888 
L 198.260303 252.003888 
z
" style="fill:#7570b3;opacity:0.6;stroke:#000000;stroke-linejoin:miter;stroke-width:0.5;"/>
   </g>
   <g id="patch_28">
    <path clip-path="url(#pc36f93b1da)" d="M 204.089545 259.986667 
L 209.918788 259.986667 
L 209.918788 254.398722 
L 204.089545 254.398722 
z
" style="fill:#7570b3;opacity:0.6;stroke:#000000;stroke-linejoin:miter;stroke-width:0.5;"/>
   </g>
   <g id="patch_29">
    <path clip-path="url(#pc36f93b1da)" d="M 209.918788 259.986667 
L 215.74803 259.986667 
L 215.74803 251.205611 
L 209.918788 251.205611 
z
" style="fill:#7570b3;opacity:0.6;stroke:#000000;stroke-linejoin:miter;stroke-width:0.5;"/>
   </g>
   <g id="patch_30">
    <path clip-path="url(#pc36f93b1da)" d="M 215.74803 259.986667 
L 221.577273 259.986667 
L 221.577273 255.995278 
L 215.74803 255.995278 
z
" style="fill:#7570b3;opacity:0.6;stroke:#000000;stroke-linejoin:miter;stroke-width:0.5;"/>
   </g>
   <g id="patch_31">
    <path clip-path="url(#pc36f93b1da)" d="M 221.577273 259.986667 
L 227.406515 259.986667 
L 227.406515 257.591833 
L 221.577273 257.591833 
z
" style="fill:#7570b3;opacity:0.6;stroke:#000000;stroke-linejoin:miter;stroke-width:0.5;"/>
   </g>
   <g id="patch_32">
    <path clip-path="url(#pc36f93b1da)" d="M 227.406515 259.986667 
L 233.235758 259.986667 
L 233.235758 255.995278 
L 227.406515 255.995278 
z
" style="fill:#7570b3;opacity:0.6;stroke:#000000;stroke-linejoin:miter;stroke-width:0.5;"/>
   </g>
   <g id="patch_33">
    <path clip-path="url(#pc36f93b1da)" d="M 233.235758 259.986667 
L 239.065 259.986667 
L 239.065 253.600444 
L 233.235758 253.600444 
z
" style="fill:#7570b3;opacity:0.6;stroke:#000000;stroke-linejoin:miter;stroke-width:0.5;"/>
   </g>
   <g id="patch_34">
    <path clip-path="url(#pc36f93b1da)" d="M 239.065 259.986667 
L 244.894242 259.986667 
L 244.894242 254.398722 
L 239.065 254.398722 
z
" style="fill:#7570b3;opacity:0.6;stroke:#000000;stroke-linejoin:miter;stroke-width:0.5;"/>
   </g>
   <g id="patch_35">
    <path clip-path="url(#pc36f93b1da)" d="M 244.894242 259.986667 
L 250.723485 259.986667 
L 250.723485 251.205611 
L 244.894242 251.205611 
z
" style="fill:#7570b3;opacity:0.6;stroke:#000000;stroke-linejoin:miter;stroke-width:0.5;"/>
   </g>
   <g id="patch_36">
    <path clip-path="url(#pc36f93b1da)" d="M 250.723485 259.986667 
L 256.552727 259.986667 
L 256.552727 249.609055 
L 250.723485 249.609055 
z
" style="fill:#7570b3;opacity:0.6;stroke:#000000;stroke-linejoin:miter;stroke-width:0.5;"/>
   </g>
   <g id="patch_37">
    <path clip-path="url(#pc36f93b1da)" d="M 256.552727 259.986667 
L 262.38197 259.986667 
L 262.38197 245.617666 
L 256.552727 245.617666 
z
" style="fill:#7570b3;opacity:0.6;stroke:#000000;stroke-linejoin:miter;stroke-width:0.5;"/>
   </g>
   <g id="patch_38">
    <path clip-path="url(#pc36f93b1da)" d="M 262.38197 259.986667 
L 268.211212 259.986667 
L 268.211212 245.617666 
L 262.38197 245.617666 
z
" style="fill:#7570b3;opacity:0.6;stroke:#000000;stroke-linejoin:miter;stroke-width:0.5;"/>
   </g>
   <g id="patch_39">
    <path clip-path="url(#pc36f93b1da)" d="M 268.211212 259.986667 
L 274.040455 259.986667 
L 274.040455 230.450387 
L 268.211212 230.450387 
z
" style="fill:#7570b3;opacity:0.6;stroke:#000000;stroke-linejoin:miter;stroke-width:0.5;"/>
   </g>
   <g id="patch_40">
    <path clip-path="url(#pc36f93b1da)" d="M 274.040455 259.986667 
L 279.869697 259.986667 
L 279.869697 231.248665 
L 274.040455 231.248665 
z
" style="fill:#7570b3;opacity:0.6;stroke:#000000;stroke-linejoin:miter;stroke-width:0.5;"/>
   </g>
   <g id="patch_41">
    <path clip-path="url(#pc36f93b1da)" d="M 279.869697 259.986667 
L 285.698939 259.986667 
L 285.698939 191.334773 
L 279.869697 191.334773 
z
" style="fill:#7570b3;opacity:0.6;stroke:#000000;stroke-linejoin:miter;stroke-width:0.5;"/>
   </g>
   <g id="patch_42">
    <path clip-path="url(#pc36f93b1da)" d="M 285.698939 259.986667 
L 291.528182 259.986667 
L 291.528182 15.713651 
L 285.698939 15.713651 
z
" style="fill:#7570b3;opacity:0.6;stroke:#000000;stroke-linejoin:miter;stroke-width:0.5;"/>
   </g>
   <g id="matplotlib.axis_1">
    <g id="xtick_1">
     <g id="line2d_1">
      <defs>
       <path d="M 0 0 
L 0 3.5 
" id="m18765aa432" style="stroke:#000000;stroke-width:1.6;"/>
      </defs>
      <g>
       <use style="stroke:#000000;stroke-width:1.6;" x="58.358485" xlink:href="#m18765aa432" y="259.986667"/>
      </g>
     </g>
     <g id="text_1">
      <!-- 0.0 -->
      <defs>
       <path d="M 31.78125 66.40625 
Q 24.171875 66.40625 20.328125 58.90625 
Q 16.5 51.421875 16.5 36.375 
Q 16.5 21.390625 20.328125 13.890625 
Q 24.171875 6.390625 31.78125 6.390625 
Q 39.453125 6.390625 43.28125 13.890625 
Q 47.125 21.390625 47.125 36.375 
Q 47.125 51.421875 43.28125 58.90625 
Q 39.453125 66.40625 31.78125 66.40625 
z
M 31.78125 74.21875 
Q 44.046875 74.21875 50.515625 64.515625 
Q 56.984375 54.828125 56.984375 36.375 
Q 56.984375 17.96875 50.515625 8.265625 
Q 44.046875 -1.421875 31.78125 -1.421875 
Q 19.53125 -1.421875 13.0625 8.265625 
Q 6.59375 17.96875 6.59375 36.375 
Q 6.59375 54.828125 13.0625 64.515625 
Q 19.53125 74.21875 31.78125 74.21875 
z
" id="DejaVuSans-48"/>
       <path d="M 10.6875 12.40625 
L 21 12.40625 
L 21 0 
L 10.6875 0 
z
" id="DejaVuSans-46"/>
      </defs>
      <g transform="translate(42.45536 289.883542)scale(0.2 -0.2)">
       <use xlink:href="#DejaVuSans-48"/>
       <use x="63.623047" xlink:href="#DejaVuSans-46"/>
       <use x="95.410156" xlink:href="#DejaVuSans-48"/>
      </g>
     </g>
    </g>
    <g id="xtick_2">
     <g id="line2d_2">
      <g>
       <use style="stroke:#000000;stroke-width:1.6;" x="124.978398" xlink:href="#m18765aa432" y="259.986667"/>
      </g>
     </g>
     <g id="text_2">
      <!-- 0.2 -->
      <defs>
       <path d="M 19.1875 8.296875 
L 53.609375 8.296875 
L 53.609375 0 
L 7.328125 0 
L 7.328125 8.296875 
Q 12.9375 14.109375 22.625 23.890625 
Q 32.328125 33.6875 34.8125 36.53125 
Q 39.546875 41.84375 41.421875 45.53125 
Q 43.3125 49.21875 43.3125 52.78125 
Q 43.3125 58.59375 39.234375 62.25 
Q 35.15625 65.921875 28.609375 65.921875 
Q 23.96875 65.921875 18.8125 64.3125 
Q 13.671875 62.703125 7.8125 59.421875 
L 7.8125 69.390625 
Q 13.765625 71.78125 18.9375 73 
Q 24.125 74.21875 28.421875 74.21875 
Q 39.75 74.21875 46.484375 68.546875 
Q 53.21875 62.890625 53.21875 53.421875 
Q 53.21875 48.921875 51.53125 44.890625 
Q 49.859375 40.875 45.40625 35.40625 
Q 44.1875 33.984375 37.640625 27.21875 
Q 31.109375 20.453125 19.1875 8.296875 
z
" id="DejaVuSans-50"/>
      </defs>
      <g transform="translate(109.075273 289.883542)scale(0.2 -0.2)">
       <use xlink:href="#DejaVuSans-48"/>
       <use x="63.623047" xlink:href="#DejaVuSans-46"/>
       <use x="95.410156" xlink:href="#DejaVuSans-50"/>
      </g>
     </g>
    </g>
    <g id="xtick_3">
     <g id="line2d_3">
      <g>
       <use style="stroke:#000000;stroke-width:1.6;" x="191.598312" xlink:href="#m18765aa432" y="259.986667"/>
      </g>
     </g>
     <g id="text_3">
      <!-- 0.4 -->
      <defs>
       <path d="M 37.796875 64.3125 
L 12.890625 25.390625 
L 37.796875 25.390625 
z
M 35.203125 72.90625 
L 47.609375 72.90625 
L 47.609375 25.390625 
L 58.015625 25.390625 
L 58.015625 17.1875 
L 47.609375 17.1875 
L 47.609375 0 
L 37.796875 0 
L 37.796875 17.1875 
L 4.890625 17.1875 
L 4.890625 26.703125 
z
" id="DejaVuSans-52"/>
      </defs>
      <g transform="translate(175.695187 289.883542)scale(0.2 -0.2)">
       <use xlink:href="#DejaVuSans-48"/>
       <use x="63.623047" xlink:href="#DejaVuSans-46"/>
       <use x="95.410156" xlink:href="#DejaVuSans-52"/>
      </g>
     </g>
    </g>
    <g id="xtick_4">
     <g id="line2d_4">
      <g>
       <use style="stroke:#000000;stroke-width:1.6;" x="258.218225" xlink:href="#m18765aa432" y="259.986667"/>
      </g>
     </g>
     <g id="text_4">
      <!-- 0.6 -->
      <defs>
       <path d="M 33.015625 40.375 
Q 26.375 40.375 22.484375 35.828125 
Q 18.609375 31.296875 18.609375 23.390625 
Q 18.609375 15.53125 22.484375 10.953125 
Q 26.375 6.390625 33.015625 6.390625 
Q 39.65625 6.390625 43.53125 10.953125 
Q 47.40625 15.53125 47.40625 23.390625 
Q 47.40625 31.296875 43.53125 35.828125 
Q 39.65625 40.375 33.015625 40.375 
z
M 52.59375 71.296875 
L 52.59375 62.3125 
Q 48.875 64.0625 45.09375 64.984375 
Q 41.3125 65.921875 37.59375 65.921875 
Q 27.828125 65.921875 22.671875 59.328125 
Q 17.53125 52.734375 16.796875 39.40625 
Q 19.671875 43.65625 24.015625 45.921875 
Q 28.375 48.1875 33.59375 48.1875 
Q 44.578125 48.1875 50.953125 41.515625 
Q 57.328125 34.859375 57.328125 23.390625 
Q 57.328125 12.15625 50.6875 5.359375 
Q 44.046875 -1.421875 33.015625 -1.421875 
Q 20.359375 -1.421875 13.671875 8.265625 
Q 6.984375 17.96875 6.984375 36.375 
Q 6.984375 53.65625 15.1875 63.9375 
Q 23.390625 74.21875 37.203125 74.21875 
Q 40.921875 74.21875 44.703125 73.484375 
Q 48.484375 72.75 52.59375 71.296875 
z
" id="DejaVuSans-54"/>
      </defs>
      <g transform="translate(242.3151 289.883542)scale(0.2 -0.2)">
       <use xlink:href="#DejaVuSans-48"/>
       <use x="63.623047" xlink:href="#DejaVuSans-46"/>
       <use x="95.410156" xlink:href="#DejaVuSans-54"/>
      </g>
     </g>
    </g>
    <g id="text_5">
     <!-- Max JS Divergence within $\epsilon$ -->
     <defs>
      <path d="M 9.8125 72.90625 
L 24.515625 72.90625 
L 43.109375 23.296875 
L 61.8125 72.90625 
L 76.515625 72.90625 
L 76.515625 0 
L 66.890625 0 
L 66.890625 64.015625 
L 48.09375 14.015625 
L 38.1875 14.015625 
L 19.390625 64.015625 
L 19.390625 0 
L 9.8125 0 
z
" id="DejaVuSans-77"/>
      <path d="M 34.28125 27.484375 
Q 23.390625 27.484375 19.1875 25 
Q 14.984375 22.515625 14.984375 16.5 
Q 14.984375 11.71875 18.140625 8.90625 
Q 21.296875 6.109375 26.703125 6.109375 
Q 34.1875 6.109375 38.703125 11.40625 
Q 43.21875 16.703125 43.21875 25.484375 
L 43.21875 27.484375 
z
M 52.203125 31.203125 
L 52.203125 0 
L 43.21875 0 
L 43.21875 8.296875 
Q 40.140625 3.328125 35.546875 0.953125 
Q 30.953125 -1.421875 24.3125 -1.421875 
Q 15.921875 -1.421875 10.953125 3.296875 
Q 6 8.015625 6 15.921875 
Q 6 25.140625 12.171875 29.828125 
Q 18.359375 34.515625 30.609375 34.515625 
L 43.21875 34.515625 
L 43.21875 35.40625 
Q 43.21875 41.609375 39.140625 45 
Q 35.0625 48.390625 27.6875 48.390625 
Q 23 48.390625 18.546875 47.265625 
Q 14.109375 46.140625 10.015625 43.890625 
L 10.015625 52.203125 
Q 14.9375 54.109375 19.578125 55.046875 
Q 24.21875 56 28.609375 56 
Q 40.484375 56 46.34375 49.84375 
Q 52.203125 43.703125 52.203125 31.203125 
z
" id="DejaVuSans-97"/>
      <path d="M 54.890625 54.6875 
L 35.109375 28.078125 
L 55.90625 0 
L 45.3125 0 
L 29.390625 21.484375 
L 13.484375 0 
L 2.875 0 
L 24.125 28.609375 
L 4.6875 54.6875 
L 15.28125 54.6875 
L 29.78125 35.203125 
L 44.28125 54.6875 
z
" id="DejaVuSans-120"/>
      <path id="DejaVuSans-32"/>
      <path d="M 9.8125 72.90625 
L 19.671875 72.90625 
L 19.671875 5.078125 
Q 19.671875 -8.109375 14.671875 -14.0625 
Q 9.671875 -20.015625 -1.421875 -20.015625 
L -5.171875 -20.015625 
L -5.171875 -11.71875 
L -2.09375 -11.71875 
Q 4.4375 -11.71875 7.125 -8.046875 
Q 9.8125 -4.390625 9.8125 5.078125 
z
" id="DejaVuSans-74"/>
      <path d="M 53.515625 70.515625 
L 53.515625 60.890625 
Q 47.90625 63.578125 42.921875 64.890625 
Q 37.9375 66.21875 33.296875 66.21875 
Q 25.25 66.21875 20.875 63.09375 
Q 16.5 59.96875 16.5 54.203125 
Q 16.5 49.359375 19.40625 46.890625 
Q 22.3125 44.4375 30.421875 42.921875 
L 36.375 41.703125 
Q 47.40625 39.59375 52.65625 34.296875 
Q 57.90625 29 57.90625 20.125 
Q 57.90625 9.515625 50.796875 4.046875 
Q 43.703125 -1.421875 29.984375 -1.421875 
Q 24.8125 -1.421875 18.96875 -0.25 
Q 13.140625 0.921875 6.890625 3.21875 
L 6.890625 13.375 
Q 12.890625 10.015625 18.65625 8.296875 
Q 24.421875 6.59375 29.984375 6.59375 
Q 38.421875 6.59375 43.015625 9.90625 
Q 47.609375 13.234375 47.609375 19.390625 
Q 47.609375 24.75 44.3125 27.78125 
Q 41.015625 30.8125 33.5 32.328125 
L 27.484375 33.5 
Q 16.453125 35.6875 11.515625 40.375 
Q 6.59375 45.0625 6.59375 53.421875 
Q 6.59375 63.09375 13.40625 68.65625 
Q 20.21875 74.21875 32.171875 74.21875 
Q 37.3125 74.21875 42.625 73.28125 
Q 47.953125 72.359375 53.515625 70.515625 
z
" id="DejaVuSans-83"/>
      <path d="M 19.671875 64.796875 
L 19.671875 8.109375 
L 31.59375 8.109375 
Q 46.6875 8.109375 53.6875 14.9375 
Q 60.6875 21.78125 60.6875 36.53125 
Q 60.6875 51.171875 53.6875 57.984375 
Q 46.6875 64.796875 31.59375 64.796875 
z
M 9.8125 72.90625 
L 30.078125 72.90625 
Q 51.265625 72.90625 61.171875 64.09375 
Q 71.09375 55.28125 71.09375 36.53125 
Q 71.09375 17.671875 61.125 8.828125 
Q 51.171875 0 30.078125 0 
L 9.8125 0 
z
" id="DejaVuSans-68"/>
      <path d="M 9.421875 54.6875 
L 18.40625 54.6875 
L 18.40625 0 
L 9.421875 0 
z
M 9.421875 75.984375 
L 18.40625 75.984375 
L 18.40625 64.59375 
L 9.421875 64.59375 
z
" id="DejaVuSans-105"/>
      <path d="M 2.984375 54.6875 
L 12.5 54.6875 
L 29.59375 8.796875 
L 46.6875 54.6875 
L 56.203125 54.6875 
L 35.6875 0 
L 23.484375 0 
z
" id="DejaVuSans-118"/>
      <path d="M 56.203125 29.59375 
L 56.203125 25.203125 
L 14.890625 25.203125 
Q 15.484375 15.921875 20.484375 11.0625 
Q 25.484375 6.203125 34.421875 6.203125 
Q 39.59375 6.203125 44.453125 7.46875 
Q 49.3125 8.734375 54.109375 11.28125 
L 54.109375 2.78125 
Q 49.265625 0.734375 44.1875 -0.34375 
Q 39.109375 -1.421875 33.890625 -1.421875 
Q 20.796875 -1.421875 13.15625 6.1875 
Q 5.515625 13.8125 5.515625 26.8125 
Q 5.515625 40.234375 12.765625 48.109375 
Q 20.015625 56 32.328125 56 
Q 43.359375 56 49.78125 48.890625 
Q 56.203125 41.796875 56.203125 29.59375 
z
M 47.21875 32.234375 
Q 47.125 39.59375 43.09375 43.984375 
Q 39.0625 48.390625 32.421875 48.390625 
Q 24.90625 48.390625 20.390625 44.140625 
Q 15.875 39.890625 15.1875 32.171875 
z
" id="DejaVuSans-101"/>
      <path d="M 41.109375 46.296875 
Q 39.59375 47.171875 37.8125 47.578125 
Q 36.03125 48 33.890625 48 
Q 26.265625 48 22.1875 43.046875 
Q 18.109375 38.09375 18.109375 28.8125 
L 18.109375 0 
L 9.078125 0 
L 9.078125 54.6875 
L 18.109375 54.6875 
L 18.109375 46.1875 
Q 20.953125 51.171875 25.484375 53.578125 
Q 30.03125 56 36.53125 56 
Q 37.453125 56 38.578125 55.875 
Q 39.703125 55.765625 41.0625 55.515625 
z
" id="DejaVuSans-114"/>
      <path d="M 45.40625 27.984375 
Q 45.40625 37.75 41.375 43.109375 
Q 37.359375 48.484375 30.078125 48.484375 
Q 22.859375 48.484375 18.828125 43.109375 
Q 14.796875 37.75 14.796875 27.984375 
Q 14.796875 18.265625 18.828125 12.890625 
Q 22.859375 7.515625 30.078125 7.515625 
Q 37.359375 7.515625 41.375 12.890625 
Q 45.40625 18.265625 45.40625 27.984375 
z
M 54.390625 6.78125 
Q 54.390625 -7.171875 48.1875 -13.984375 
Q 42 -20.796875 29.203125 -20.796875 
Q 24.46875 -20.796875 20.265625 -20.09375 
Q 16.0625 -19.390625 12.109375 -17.921875 
L 12.109375 -9.1875 
Q 16.0625 -11.328125 19.921875 -12.34375 
Q 23.78125 -13.375 27.78125 -13.375 
Q 36.625 -13.375 41.015625 -8.765625 
Q 45.40625 -4.15625 45.40625 5.171875 
L 45.40625 9.625 
Q 42.625 4.78125 38.28125 2.390625 
Q 33.9375 0 27.875 0 
Q 17.828125 0 11.671875 7.65625 
Q 5.515625 15.328125 5.515625 27.984375 
Q 5.515625 40.671875 11.671875 48.328125 
Q 17.828125 56 27.875 56 
Q 33.9375 56 38.28125 53.609375 
Q 42.625 51.21875 45.40625 46.390625 
L 45.40625 54.6875 
L 54.390625 54.6875 
z
" id="DejaVuSans-103"/>
      <path d="M 54.890625 33.015625 
L 54.890625 0 
L 45.90625 0 
L 45.90625 32.71875 
Q 45.90625 40.484375 42.875 44.328125 
Q 39.84375 48.1875 33.796875 48.1875 
Q 26.515625 48.1875 22.3125 43.546875 
Q 18.109375 38.921875 18.109375 30.90625 
L 18.109375 0 
L 9.078125 0 
L 9.078125 54.6875 
L 18.109375 54.6875 
L 18.109375 46.1875 
Q 21.34375 51.125 25.703125 53.5625 
Q 30.078125 56 35.796875 56 
Q 45.21875 56 50.046875 50.171875 
Q 54.890625 44.34375 54.890625 33.015625 
z
" id="DejaVuSans-110"/>
      <path d="M 48.78125 52.59375 
L 48.78125 44.1875 
Q 44.96875 46.296875 41.140625 47.34375 
Q 37.3125 48.390625 33.40625 48.390625 
Q 24.65625 48.390625 19.8125 42.84375 
Q 14.984375 37.3125 14.984375 27.296875 
Q 14.984375 17.28125 19.8125 11.734375 
Q 24.65625 6.203125 33.40625 6.203125 
Q 37.3125 6.203125 41.140625 7.25 
Q 44.96875 8.296875 48.78125 10.40625 
L 48.78125 2.09375 
Q 45.015625 0.34375 40.984375 -0.53125 
Q 36.96875 -1.421875 32.421875 -1.421875 
Q 20.0625 -1.421875 12.78125 6.34375 
Q 5.515625 14.109375 5.515625 27.296875 
Q 5.515625 40.671875 12.859375 48.328125 
Q 20.21875 56 33.015625 56 
Q 37.15625 56 41.109375 55.140625 
Q 45.0625 54.296875 48.78125 52.59375 
z
" id="DejaVuSans-99"/>
      <path d="M 4.203125 54.6875 
L 13.1875 54.6875 
L 24.421875 12.015625 
L 35.59375 54.6875 
L 46.1875 54.6875 
L 57.421875 12.015625 
L 68.609375 54.6875 
L 77.59375 54.6875 
L 63.28125 0 
L 52.6875 0 
L 40.921875 44.828125 
L 29.109375 0 
L 18.5 0 
z
" id="DejaVuSans-119"/>
      <path d="M 18.3125 70.21875 
L 18.3125 54.6875 
L 36.8125 54.6875 
L 36.8125 47.703125 
L 18.3125 47.703125 
L 18.3125 18.015625 
Q 18.3125 11.328125 20.140625 9.421875 
Q 21.96875 7.515625 27.59375 7.515625 
L 36.8125 7.515625 
L 36.8125 0 
L 27.59375 0 
Q 17.1875 0 13.234375 3.875 
Q 9.28125 7.765625 9.28125 18.015625 
L 9.28125 47.703125 
L 2.6875 47.703125 
L 2.6875 54.6875 
L 9.28125 54.6875 
L 9.28125 70.21875 
z
" id="DejaVuSans-116"/>
      <path d="M 54.890625 33.015625 
L 54.890625 0 
L 45.90625 0 
L 45.90625 32.71875 
Q 45.90625 40.484375 42.875 44.328125 
Q 39.84375 48.1875 33.796875 48.1875 
Q 26.515625 48.1875 22.3125 43.546875 
Q 18.109375 38.921875 18.109375 30.90625 
L 18.109375 0 
L 9.078125 0 
L 9.078125 75.984375 
L 18.109375 75.984375 
L 18.109375 46.1875 
Q 21.34375 51.125 25.703125 53.5625 
Q 30.078125 56 35.796875 56 
Q 45.21875 56 50.046875 50.171875 
Q 54.890625 44.34375 54.890625 33.015625 
z
" id="DejaVuSans-104"/>
      <path d="M 19.734375 29.5 
Q 14.453125 30.671875 12.15625 33.84375 
Q 10.453125 36.078125 10.453125 39.109375 
Q 10.453125 47.40625 18.359375 52.25 
Q 24.609375 56.0625 34.1875 56.0625 
Q 37.890625 56.0625 41.9375 55.46875 
Q 46 54.890625 50.53125 53.71875 
L 48.96875 45.5625 
Q 44.484375 46.96875 40.71875 47.609375 
Q 36.859375 48.25 33.40625 48.25 
Q 27.59375 48.25 23.78125 46 
Q 19.1875 43.3125 19.1875 39.40625 
Q 19.1875 36.8125 21.578125 35.015625 
Q 24.421875 32.859375 30.078125 32.859375 
L 37.640625 32.859375 
L 36.234375 25.4375 
L 29 25.4375 
Q 22.265625 25.4375 18.3125 22.953125 
Q 12.9375 19.578125 12.9375 14.3125 
Q 12.9375 10.984375 15.828125 8.796875 
Q 19.4375 6.0625 26.8125 6.0625 
Q 31.34375 6.0625 35.6875 6.9375 
Q 40.046875 7.859375 43.84375 9.671875 
L 42.1875 1.3125 
Q 37.546875 -0.046875 33.296875 -0.734375 
Q 29.046875 -1.421875 25.140625 -1.421875 
Q 13.53125 -1.421875 8.0625 3.03125 
Q 3.90625 6.453125 3.90625 12.203125 
Q 3.90625 19.96875 9.375 24.75 
Q 13.421875 28.328125 19.734375 29.5 
z
" id="DejaVuSans-Oblique-949"/>
     </defs>
     <g transform="translate(39.343333 313.242917)scale(0.2 -0.2)">
      <use transform="translate(0 0.015625)" xlink:href="#DejaVuSans-77"/>
      <use transform="translate(86.279297 0.015625)" xlink:href="#DejaVuSans-97"/>
      <use transform="translate(147.558594 0.015625)" xlink:href="#DejaVuSans-120"/>
      <use transform="translate(206.738281 0.015625)" xlink:href="#DejaVuSans-32"/>
      <use transform="translate(238.525391 0.015625)" xlink:href="#DejaVuSans-74"/>
      <use transform="translate(268.017578 0.015625)" xlink:href="#DejaVuSans-83"/>
      <use transform="translate(331.494141 0.015625)" xlink:href="#DejaVuSans-32"/>
      <use transform="translate(363.28125 0.015625)" xlink:href="#DejaVuSans-68"/>
      <use transform="translate(440.283203 0.015625)" xlink:href="#DejaVuSans-105"/>
      <use transform="translate(468.066406 0.015625)" xlink:href="#DejaVuSans-118"/>
      <use transform="translate(527.246094 0.015625)" xlink:href="#DejaVuSans-101"/>
      <use transform="translate(588.769531 0.015625)" xlink:href="#DejaVuSans-114"/>
      <use transform="translate(629.882812 0.015625)" xlink:href="#DejaVuSans-103"/>
      <use transform="translate(693.359375 0.015625)" xlink:href="#DejaVuSans-101"/>
      <use transform="translate(754.882812 0.015625)" xlink:href="#DejaVuSans-110"/>
      <use transform="translate(818.261719 0.015625)" xlink:href="#DejaVuSans-99"/>
      <use transform="translate(873.242188 0.015625)" xlink:href="#DejaVuSans-101"/>
      <use transform="translate(934.765625 0.015625)" xlink:href="#DejaVuSans-32"/>
      <use transform="translate(966.552734 0.015625)" xlink:href="#DejaVuSans-119"/>
      <use transform="translate(1048.339844 0.015625)" xlink:href="#DejaVuSans-105"/>
      <use transform="translate(1076.123047 0.015625)" xlink:href="#DejaVuSans-116"/>
      <use transform="translate(1115.332031 0.015625)" xlink:href="#DejaVuSans-104"/>
      <use transform="translate(1178.710938 0.015625)" xlink:href="#DejaVuSans-105"/>
      <use transform="translate(1206.494141 0.015625)" xlink:href="#DejaVuSans-110"/>
      <use transform="translate(1269.873047 0.015625)" xlink:href="#DejaVuSans-32"/>
      <use transform="translate(1301.660156 0.015625)" xlink:href="#DejaVuSans-Oblique-949"/>
     </g>
    </g>
   </g>
   <g id="matplotlib.axis_2">
    <g id="ytick_1">
     <g id="line2d_5">
      <defs>
       <path d="M 0 0 
L -3.5 0 
" id="me0f8088383" style="stroke:#000000;stroke-width:1.6;"/>
      </defs>
      <g>
       <use style="stroke:#000000;stroke-width:1.6;" x="46.7" xlink:href="#me0f8088383" y="259.986667"/>
      </g>
     </g>
     <g id="text_6">
      <!-- 0.0 -->
      <g transform="translate(0.19375 267.585104)scale(0.2 -0.2)">
       <use xlink:href="#DejaVuSans-48"/>
       <use x="63.623047" xlink:href="#DejaVuSans-46"/>
       <use x="95.410156" xlink:href="#DejaVuSans-48"/>
      </g>
     </g>
    </g>
    <g id="ytick_2">
     <g id="line2d_6">
      <g>
       <use style="stroke:#000000;stroke-width:1.6;" x="46.7" xlink:href="#me0f8088383" y="180.158884"/>
      </g>
     </g>
     <g id="text_7">
      <!-- 0.1 -->
      <defs>
       <path d="M 12.40625 8.296875 
L 28.515625 8.296875 
L 28.515625 63.921875 
L 10.984375 60.40625 
L 10.984375 69.390625 
L 28.421875 72.90625 
L 38.28125 72.90625 
L 38.28125 8.296875 
L 54.390625 8.296875 
L 54.390625 0 
L 12.40625 0 
z
" id="DejaVuSans-49"/>
      </defs>
      <g transform="translate(0.19375 187.757321)scale(0.2 -0.2)">
       <use xlink:href="#DejaVuSans-48"/>
       <use x="63.623047" xlink:href="#DejaVuSans-46"/>
       <use x="95.410156" xlink:href="#DejaVuSans-49"/>
      </g>
     </g>
    </g>
    <g id="ytick_3">
     <g id="line2d_7">
      <g>
       <use style="stroke:#000000;stroke-width:1.6;" x="46.7" xlink:href="#me0f8088383" y="100.331101"/>
      </g>
     </g>
     <g id="text_8">
      <!-- 0.2 -->
      <g transform="translate(0.19375 107.929538)scale(0.2 -0.2)">
       <use xlink:href="#DejaVuSans-48"/>
       <use x="63.623047" xlink:href="#DejaVuSans-46"/>
       <use x="95.410156" xlink:href="#DejaVuSans-50"/>
      </g>
     </g>
    </g>
    <g id="ytick_4">
     <g id="line2d_8">
      <g>
       <use style="stroke:#000000;stroke-width:1.6;" x="46.7" xlink:href="#me0f8088383" y="20.503318"/>
      </g>
     </g>
     <g id="text_9">
      <!-- 0.3 -->
      <defs>
       <path d="M 40.578125 39.3125 
Q 47.65625 37.796875 51.625 33 
Q 55.609375 28.21875 55.609375 21.1875 
Q 55.609375 10.40625 48.1875 4.484375 
Q 40.765625 -1.421875 27.09375 -1.421875 
Q 22.515625 -1.421875 17.65625 -0.515625 
Q 12.796875 0.390625 7.625 2.203125 
L 7.625 11.71875 
Q 11.71875 9.328125 16.59375 8.109375 
Q 21.484375 6.890625 26.8125 6.890625 
Q 36.078125 6.890625 40.9375 10.546875 
Q 45.796875 14.203125 45.796875 21.1875 
Q 45.796875 27.640625 41.28125 31.265625 
Q 36.765625 34.90625 28.71875 34.90625 
L 20.21875 34.90625 
L 20.21875 43.015625 
L 29.109375 43.015625 
Q 36.375 43.015625 40.234375 45.921875 
Q 44.09375 48.828125 44.09375 54.296875 
Q 44.09375 59.90625 40.109375 62.90625 
Q 36.140625 65.921875 28.71875 65.921875 
Q 24.65625 65.921875 20.015625 65.03125 
Q 15.375 64.15625 9.8125 62.3125 
L 9.8125 71.09375 
Q 15.4375 72.65625 20.34375 73.4375 
Q 25.25 74.21875 29.59375 74.21875 
Q 40.828125 74.21875 47.359375 69.109375 
Q 53.90625 64.015625 53.90625 55.328125 
Q 53.90625 49.265625 50.4375 45.09375 
Q 46.96875 40.921875 40.578125 39.3125 
z
" id="DejaVuSans-51"/>
      </defs>
      <g transform="translate(0.19375 28.101755)scale(0.2 -0.2)">
       <use xlink:href="#DejaVuSans-48"/>
       <use x="63.623047" xlink:href="#DejaVuSans-46"/>
       <use x="95.410156" xlink:href="#DejaVuSans-51"/>
      </g>
     </g>
    </g>
   </g>
   <g id="patch_43">
    <path d="M 46.7 259.986667 
L 46.7 3.5 
" style="fill:none;stroke:#000000;stroke-linecap:square;stroke-linejoin:miter;stroke-width:0.8;"/>
   </g>
   <g id="patch_44">
    <path d="M 46.7 259.986667 
L 303.186667 259.986667 
" style="fill:none;stroke:#000000;stroke-linecap:square;stroke-linejoin:miter;stroke-width:0.8;"/>
   </g>
  </g>
  <g id="axes_2">
   <g id="patch_45">
    <path d="M 418.546667 259.986667 
L 675.033333 259.986667 
L 675.033333 3.5 
L 418.546667 3.5 
z
" style="fill:#ffffff;"/>
   </g>
   <g id="PolyCollection_1">
    <defs>
     <path d="M 647.562235 -215.914476 
L 647.562235 -226.093858 
L 647.816429 -226.114628 
L 648.070624 -226.128596 
L 648.324819 -226.136055 
L 648.579013 -226.137369 
L 648.833208 -226.132969 
L 649.087403 -226.123352 
L 649.341597 -226.109083 
L 649.595792 -226.090787 
L 649.849987 -226.069152 
L 650.104181 -226.044922 
L 650.358376 -226.018894 
L 650.612571 -225.991914 
L 650.866765 -225.964875 
L 651.12096 -225.938707 
L 651.375155 -225.914375 
L 651.629349 -225.892875 
L 651.883544 -225.875224 
L 652.137739 -225.862456 
L 652.391933 -225.855617 
L 652.646128 -225.855757 
L 652.900323 -225.863923 
L 653.154517 -225.881157 
L 653.408712 -225.908482 
L 653.662907 -225.946903 
L 653.917101 -225.997396 
L 654.171296 -226.060905 
L 654.42549 -226.138332 
L 654.679685 -226.230535 
L 654.93388 -226.338321 
L 655.188074 -226.462439 
L 655.442269 -226.603578 
L 655.696464 -226.762357 
L 655.950658 -226.939327 
L 656.204853 -227.134961 
L 656.459048 -227.349653 
L 656.713242 -227.583713 
L 656.967437 -227.837365 
L 657.221632 -228.110743 
L 657.475826 -228.403888 
L 657.730021 -228.716747 
L 657.984216 -229.049171 
L 658.23841 -229.400914 
L 658.492605 -229.77163 
L 658.7468 -230.160876 
L 659.000994 -230.568108 
L 659.255189 -230.992685 
L 659.509384 -231.433867 
L 659.763578 -231.890818 
L 660.017773 -232.362608 
L 660.271968 -232.848214 
L 660.526162 -233.346521 
L 660.780357 -233.856332 
L 661.034552 -234.376362 
L 661.288746 -234.90525 
L 661.542941 -235.441559 
L 661.797135 -235.983783 
L 662.05133 -236.530352 
L 662.305525 -237.079638 
L 662.559719 -237.629958 
L 662.813914 -238.179588 
L 663.068109 -238.726761 
L 663.322303 -239.269682 
L 663.576498 -239.806531 
L 663.830693 -240.335472 
L 664.084887 -240.854661 
L 664.339082 -241.362258 
L 664.593277 -241.856428 
L 664.847471 -242.335359 
L 665.101666 -242.797263 
L 665.355861 -243.240388 
L 665.610055 -243.663029 
L 665.86425 -244.063532 
L 666.118445 -244.44031 
L 666.372639 -244.791841 
L 666.626834 -245.116689 
L 666.881029 -245.4135 
L 667.135223 -245.68102 
L 667.389418 -245.918095 
L 667.643613 -246.123681 
L 667.897807 -246.296851 
L 668.152002 -246.436801 
L 668.406197 -246.542851 
L 668.660391 -246.614457 
L 668.914586 -246.651209 
L 669.168781 -246.652833 
L 669.422975 -246.619202 
L 669.67717 -246.550326 
L 669.931364 -246.446362 
L 670.185559 -246.307609 
L 670.439754 -246.134508 
L 670.693948 -245.927638 
L 670.948143 -245.687717 
L 671.202338 -245.415595 
L 671.456532 -245.112251 
L 671.710727 -244.778787 
L 671.964922 -244.41642 
L 672.219116 -244.026477 
L 672.473311 -243.610386 
L 672.727506 -243.169668 
L 672.727506 -198.838665 
L 672.727506 -198.838665 
L 672.473311 -198.397948 
L 672.219116 -197.981857 
L 671.964922 -197.591913 
L 671.710727 -197.229546 
L 671.456532 -196.896082 
L 671.202338 -196.592738 
L 670.948143 -196.320617 
L 670.693948 -196.080696 
L 670.439754 -195.873826 
L 670.185559 -195.700724 
L 669.931364 -195.561971 
L 669.67717 -195.458007 
L 669.422975 -195.389132 
L 669.168781 -195.3555 
L 668.914586 -195.357125 
L 668.660391 -195.393876 
L 668.406197 -195.465482 
L 668.152002 -195.571533 
L 667.897807 -195.711482 
L 667.643613 -195.884653 
L 667.389418 -196.090239 
L 667.135223 -196.327313 
L 666.881029 -196.594833 
L 666.626834 -196.891645 
L 666.372639 -197.216492 
L 666.118445 -197.568024 
L 665.86425 -197.944801 
L 665.610055 -198.345305 
L 665.355861 -198.767945 
L 665.101666 -199.211071 
L 664.847471 -199.672974 
L 664.593277 -200.151905 
L 664.339082 -200.646076 
L 664.084887 -201.153672 
L 663.830693 -201.672862 
L 663.576498 -202.201803 
L 663.322303 -202.738651 
L 663.068109 -203.281572 
L 662.813914 -203.828746 
L 662.559719 -204.378375 
L 662.305525 -204.928696 
L 662.05133 -205.477981 
L 661.797135 -206.02455 
L 661.542941 -206.566775 
L 661.288746 -207.103084 
L 661.034552 -207.631972 
L 660.780357 -208.152002 
L 660.526162 -208.661812 
L 660.271968 -209.16012 
L 660.017773 -209.645725 
L 659.763578 -210.117515 
L 659.509384 -210.574467 
L 659.255189 -211.015649 
L 659.000994 -211.440225 
L 658.7468 -211.847457 
L 658.492605 -212.236703 
L 658.23841 -212.607419 
L 657.984216 -212.959162 
L 657.730021 -213.291586 
L 657.475826 -213.604445 
L 657.221632 -213.89759 
L 656.967437 -214.170968 
L 656.713242 -214.42462 
L 656.459048 -214.65868 
L 656.204853 -214.873372 
L 655.950658 -215.069006 
L 655.696464 -215.245976 
L 655.442269 -215.404756 
L 655.188074 -215.545894 
L 654.93388 -215.670012 
L 654.679685 -215.777798 
L 654.42549 -215.870002 
L 654.171296 -215.947429 
L 653.917101 -216.010937 
L 653.662907 -216.06143 
L 653.408712 -216.099851 
L 653.154517 -216.127177 
L 652.900323 -216.14441 
L 652.646128 -216.152577 
L 652.391933 -216.152716 
L 652.137739 -216.145877 
L 651.883544 -216.133109 
L 651.629349 -216.115458 
L 651.375155 -216.093958 
L 651.12096 -216.069627 
L 650.866765 -216.043458 
L 650.612571 -216.016419 
L 650.358376 -215.98944 
L 650.104181 -215.963411 
L 649.849987 -215.939181 
L 649.595792 -215.917546 
L 649.341597 -215.89925 
L 649.087403 -215.884981 
L 648.833208 -215.875365 
L 648.579013 -215.870964 
L 648.324819 -215.872278 
L 648.070624 -215.879738 
L 647.816429 -215.893706 
L 647.562235 -215.914476 
z
" id="mca5ca9fee0" style="stroke:#575757;"/>
    </defs>
    <g clip-path="url(#p687deda2f8)">
     <use style="fill:#7c78ab;stroke:#575757;" x="0" xlink:href="#mca5ca9fee0" y="320.686667"/>
    </g>
   </g>
   <g id="PolyCollection_2">
    <defs>
     <path d="M 500.166751 -155.69374 
L 500.166751 -158.07126 
L 501.91321 -158.153203 
L 503.659669 -158.237975 
L 505.406127 -158.325524 
L 507.152586 -158.415726 
L 508.899045 -158.508369 
L 510.645504 -158.603128 
L 512.391962 -158.699556 
L 514.138421 -158.797072 
L 515.88488 -158.894952 
L 517.631339 -158.992336 
L 519.377797 -159.088233 
L 521.124256 -159.181538 
L 522.870715 -159.271052 
L 524.617174 -159.355517 
L 526.363632 -159.433644 
L 528.110091 -159.504157 
L 529.85655 -159.565827 
L 531.603009 -159.617517 
L 533.349467 -159.658218 
L 535.095926 -159.687084 
L 536.842385 -159.703467 
L 538.588844 -159.706932 
L 540.335302 -159.697281 
L 542.081761 -159.674559 
L 543.82822 -159.639053 
L 545.574679 -159.591287 
L 547.321137 -159.532008 
L 549.067596 -159.462166 
L 550.814055 -159.382888 
L 552.560514 -159.295448 
L 554.306972 -159.201243 
L 556.053431 -159.101754 
L 557.79989 -158.998517 
L 559.546349 -158.893094 
L 561.292807 -158.787043 
L 563.039266 -158.681896 
L 564.785725 -158.57913 
L 566.532184 -158.480151 
L 568.278642 -158.386279 
L 570.025101 -158.298732 
L 571.77156 -158.218617 
L 573.518019 -158.146922 
L 575.264477 -158.08451 
L 577.010936 -158.032121 
L 578.757395 -157.990371 
L 580.503854 -157.959757 
L 582.250312 -157.940661 
L 583.996771 -157.933368 
L 585.74323 -157.938072 
L 587.489689 -157.954899 
L 589.236147 -157.983928 
L 590.982606 -158.025218 
L 592.729065 -158.078831 
L 594.475524 -158.144874 
L 596.221982 -158.223525 
L 597.968441 -158.315079 
L 599.7149 -158.419981 
L 601.461359 -158.538869 
L 603.207817 -158.672614 
L 604.954276 -158.822352 
L 606.700735 -158.989522 
L 608.447194 -159.175893 
L 610.193652 -159.383579 
L 611.940111 -159.615058 
L 613.68657 -159.873162 
L 615.433029 -160.161067 
L 617.179487 -160.482255 
L 618.925946 -160.840464 
L 620.672405 -161.239615 
L 622.418864 -161.68371 
L 624.165322 -162.176715 
L 625.911781 -162.722411 
L 627.65824 -163.324227 
L 629.404699 -163.985046 
L 631.151157 -164.707001 
L 632.897616 -165.491257 
L 634.644075 -166.337788 
L 636.390534 -167.245163 
L 638.136992 -168.210348 
L 639.883451 -169.228534 
L 641.62991 -170.293015 
L 643.376369 -171.395104 
L 645.122827 -172.524129 
L 646.869286 -173.667495 
L 648.615745 -174.810824 
L 650.362203 -175.938188 
L 652.108662 -177.03242 
L 653.855121 -178.0755 
L 655.60158 -179.049013 
L 657.348038 -179.934665 
L 659.094497 -180.714822 
L 660.840956 -181.373075 
L 662.587415 -181.894786 
L 664.333873 -182.2676 
L 666.080332 -182.481898 
L 667.826791 -182.531167 
L 669.57325 -182.412263 
L 671.319708 -182.125567 
L 673.066167 -181.675007 
L 673.066167 -132.089993 
L 673.066167 -132.089993 
L 671.319708 -131.639433 
L 669.57325 -131.352737 
L 667.826791 -131.233833 
L 666.080332 -131.283102 
L 664.333873 -131.4974 
L 662.587415 -131.870214 
L 660.840956 -132.391925 
L 659.094497 -133.050178 
L 657.348038 -133.830335 
L 655.60158 -134.715987 
L 653.855121 -135.6895 
L 652.108662 -136.73258 
L 650.362203 -137.826812 
L 648.615745 -138.954176 
L 646.869286 -140.097505 
L 645.122827 -141.240871 
L 643.376369 -142.369896 
L 641.62991 -143.471985 
L 639.883451 -144.536466 
L 638.136992 -145.554652 
L 636.390534 -146.519837 
L 634.644075 -147.427212 
L 632.897616 -148.273743 
L 631.151157 -149.057999 
L 629.404699 -149.779954 
L 627.65824 -150.440773 
L 625.911781 -151.042589 
L 624.165322 -151.588285 
L 622.418864 -152.08129 
L 620.672405 -152.525385 
L 618.925946 -152.924536 
L 617.179487 -153.282745 
L 615.433029 -153.603933 
L 613.68657 -153.891838 
L 611.940111 -154.149942 
L 610.193652 -154.381421 
L 608.447194 -154.589107 
L 606.700735 -154.775478 
L 604.954276 -154.942648 
L 603.207817 -155.092386 
L 601.461359 -155.226131 
L 599.7149 -155.345019 
L 597.968441 -155.449921 
L 596.221982 -155.541475 
L 594.475524 -155.620126 
L 592.729065 -155.686169 
L 590.982606 -155.739782 
L 589.236147 -155.781072 
L 587.489689 -155.810101 
L 585.74323 -155.826928 
L 583.996771 -155.831632 
L 582.250312 -155.824339 
L 580.503854 -155.805243 
L 578.757395 -155.774629 
L 577.010936 -155.732879 
L 575.264477 -155.68049 
L 573.518019 -155.618078 
L 571.77156 -155.546383 
L 570.025101 -155.466268 
L 568.278642 -155.378721 
L 566.532184 -155.284849 
L 564.785725 -155.18587 
L 563.039266 -155.083104 
L 561.292807 -154.977957 
L 559.546349 -154.871906 
L 557.79989 -154.766483 
L 556.053431 -154.663246 
L 554.306972 -154.563757 
L 552.560514 -154.469552 
L 550.814055 -154.382112 
L 549.067596 -154.302834 
L 547.321137 -154.232992 
L 545.574679 -154.173713 
L 543.82822 -154.125947 
L 542.081761 -154.090441 
L 540.335302 -154.067719 
L 538.588844 -154.058068 
L 536.842385 -154.061533 
L 535.095926 -154.077916 
L 533.349467 -154.106782 
L 531.603009 -154.147483 
L 529.85655 -154.199173 
L 528.110091 -154.260843 
L 526.363632 -154.331356 
L 524.617174 -154.409483 
L 522.870715 -154.493948 
L 521.124256 -154.583462 
L 519.377797 -154.676767 
L 517.631339 -154.772664 
L 515.88488 -154.870048 
L 514.138421 -154.967928 
L 512.391962 -155.065444 
L 510.645504 -155.161872 
L 508.899045 -155.256631 
L 507.152586 -155.349274 
L 505.406127 -155.439476 
L 503.659669 -155.527025 
L 501.91321 -155.611797 
L 500.166751 -155.69374 
z
" id="m3ebbca70c8" style="stroke:#575757;"/>
    </defs>
    <g clip-path="url(#p687deda2f8)">
     <use style="fill:#7c78ab;stroke:#575757;" x="0" xlink:href="#m3ebbca70c8" y="320.686667"/>
    </g>
   </g>
   <g id="PolyCollection_3">
    <defs>
     <path d="M 435.231388 -89.490234 
L 435.231388 -96.031432 
L 437.634126 -96.337203 
L 440.036865 -96.655691 
L 442.439604 -96.987212 
L 444.842342 -97.332061 
L 447.245081 -97.690387 
L 449.64782 -98.062067 
L 452.050558 -98.446574 
L 454.453297 -98.842882 
L 456.856035 -99.249388 
L 459.258774 -99.663879 
L 461.661513 -100.083548 
L 464.064251 -100.505043 
L 466.46699 -100.924566 
L 468.869728 -101.337994 
L 471.272467 -101.741028 
L 473.675206 -102.129342 
L 476.077944 -102.498735 
L 478.480683 -102.845259 
L 480.883421 -103.165338 
L 483.28616 -103.455842 
L 485.688899 -103.714147 
L 488.091637 -103.938155 
L 490.494376 -104.126298 
L 492.897114 -104.277522 
L 495.299853 -104.391256 
L 497.702592 -104.467378 
L 500.10533 -104.506187 
L 502.508069 -104.508367 
L 504.910807 -104.47497 
L 507.313546 -104.407388 
L 509.716285 -104.307347 
L 512.119023 -104.176879 
L 514.521762 -104.018314 
L 516.924501 -103.834242 
L 519.327239 -103.627484 
L 521.729978 -103.401042 
L 524.132716 -103.15804 
L 526.535455 -102.901663 
L 528.938194 -102.635081 
L 531.340932 -102.361377 
L 533.743671 -102.083479 
L 536.146409 -101.804089 
L 538.549148 -101.525632 
L 540.951887 -101.250213 
L 543.354625 -100.979585 
L 545.757364 -100.715138 
L 548.160102 -100.457899 
L 550.562841 -100.208547 
L 552.96558 -99.96744 
L 555.368318 -99.734657 
L 557.771057 -99.510044 
L 560.173795 -99.293274 
L 562.576534 -99.083908 
L 564.979273 -98.881463 
L 567.382011 -98.685479 
L 569.78475 -98.495592 
L 572.187488 -98.311603 
L 574.590227 -98.133541 
L 576.992966 -97.961722 
L 579.395704 -97.796806 
L 581.798443 -97.639836 
L 584.201182 -97.492276 
L 586.60392 -97.356035 
L 589.006659 -97.233477 
L 591.409397 -97.127437 
L 593.812136 -97.041216 
L 596.214875 -96.978583 
L 598.617613 -96.943774 
L 601.020352 -96.941494 
L 603.42309 -96.976923 
L 605.825829 -97.055723 
L 608.228568 -97.184043 
L 610.631306 -97.36851 
L 613.034045 -97.616196 
L 615.436783 -97.934544 
L 617.839522 -98.331236 
L 620.242261 -98.813971 
L 622.644999 -99.390157 
L 625.047738 -100.066476 
L 627.450476 -100.848346 
L 629.853215 -101.739269 
L 632.255954 -102.740091 
L 634.658692 -103.84823 
L 637.061431 -105.056908 
L 639.46417 -106.354483 
L 641.866908 -107.723944 
L 644.269647 -109.142663 
L 646.672385 -110.582489 
L 649.075124 -112.01022 
L 651.477863 -113.388522 
L 653.880601 -114.677246 
L 656.28334 -115.835142 
L 658.686078 -116.821843 
L 661.088817 -117.600026 
L 663.491556 -118.13756 
L 665.894294 -118.4095 
L 668.297033 -118.399742 
L 670.699771 -118.102191 
L 673.10251 -117.52133 
L 673.10251 -68.000336 
L 673.10251 -68.000336 
L 670.699771 -67.419476 
L 668.297033 -67.121924 
L 665.894294 -67.112167 
L 663.491556 -67.384107 
L 661.088817 -67.921641 
L 658.686078 -68.699823 
L 656.28334 -69.686525 
L 653.880601 -70.844421 
L 651.477863 -72.133145 
L 649.075124 -73.511446 
L 646.672385 -74.939178 
L 644.269647 -76.379003 
L 641.866908 -77.797723 
L 639.46417 -79.167184 
L 637.061431 -80.464759 
L 634.658692 -81.673437 
L 632.255954 -82.781576 
L 629.853215 -83.782398 
L 627.450476 -84.67332 
L 625.047738 -85.455191 
L 622.644999 -86.13151 
L 620.242261 -86.707695 
L 617.839522 -87.190431 
L 615.436783 -87.587123 
L 613.034045 -87.905471 
L 610.631306 -88.153157 
L 608.228568 -88.337623 
L 605.825829 -88.465944 
L 603.42309 -88.544744 
L 601.020352 -88.580173 
L 598.617613 -88.577893 
L 596.214875 -88.543083 
L 593.812136 -88.48045 
L 591.409397 -88.394229 
L 589.006659 -88.28819 
L 586.60392 -88.165632 
L 584.201182 -88.02939 
L 581.798443 -87.881831 
L 579.395704 -87.724861 
L 576.992966 -87.559945 
L 574.590227 -87.388126 
L 572.187488 -87.210063 
L 569.78475 -87.026075 
L 567.382011 -86.836188 
L 564.979273 -86.640204 
L 562.576534 -86.437758 
L 560.173795 -86.228392 
L 557.771057 -86.011623 
L 555.368318 -85.78701 
L 552.96558 -85.554227 
L 550.562841 -85.31312 
L 548.160102 -85.063767 
L 545.757364 -84.806528 
L 543.354625 -84.542082 
L 540.951887 -84.271454 
L 538.549148 -83.996034 
L 536.146409 -83.717578 
L 533.743671 -83.438188 
L 531.340932 -83.160289 
L 528.938194 -82.886586 
L 526.535455 -82.620004 
L 524.132716 -82.363627 
L 521.729978 -82.120625 
L 519.327239 -81.894182 
L 516.924501 -81.687425 
L 514.521762 -81.503353 
L 512.119023 -81.344787 
L 509.716285 -81.21432 
L 507.313546 -81.114278 
L 504.910807 -81.046697 
L 502.508069 -81.013299 
L 500.10533 -81.01548 
L 497.702592 -81.054289 
L 495.299853 -81.130411 
L 492.897114 -81.244144 
L 490.494376 -81.395368 
L 488.091637 -81.583512 
L 485.688899 -81.80752 
L 483.28616 -82.065825 
L 480.883421 -82.356329 
L 478.480683 -82.676408 
L 476.077944 -83.022932 
L 473.675206 -83.392324 
L 471.272467 -83.780639 
L 468.869728 -84.183673 
L 466.46699 -84.597101 
L 464.064251 -85.016624 
L 461.661513 -85.438119 
L 459.258774 -85.857787 
L 456.856035 -86.272279 
L 454.453297 -86.678784 
L 452.050558 -87.075093 
L 449.64782 -87.4596 
L 447.245081 -87.831279 
L 444.842342 -88.189606 
L 442.439604 -88.534455 
L 440.036865 -88.865976 
L 437.634126 -89.184464 
L 435.231388 -89.490234 
z
" id="mc41f602d31" style="stroke:#575757;"/>
    </defs>
    <g clip-path="url(#p687deda2f8)">
     <use style="fill:#7c78ab;stroke:#575757;" x="0" xlink:href="#mc41f602d31" y="320.686667"/>
    </g>
   </g>
   <g id="patch_46">
    <path clip-path="url(#p687deda2f8)" d="M 435.645778 35.560833 
L 435.645778 35.560833 
L 435.645778 35.560833 
L 435.645778 35.560833 
z
" style="fill:#7c78ab;stroke:#575757;stroke-linejoin:miter;stroke-width:0.5;"/>
   </g>
   <g id="matplotlib.axis_3">
    <g id="xtick_5">
     <g id="line2d_9">
      <g>
       <use style="stroke:#000000;stroke-width:1.6;" x="435.645778" xlink:href="#m18765aa432" y="259.986667"/>
      </g>
     </g>
     <g id="text_10">
      <!-- 0.0 -->
      <g transform="translate(419.742653 289.883542)scale(0.2 -0.2)">
       <use xlink:href="#DejaVuSans-48"/>
       <use x="63.623047" xlink:href="#DejaVuSans-46"/>
       <use x="95.410156" xlink:href="#DejaVuSans-48"/>
      </g>
     </g>
    </g>
    <g id="xtick_6">
     <g id="line2d_10">
      <g>
       <use style="stroke:#000000;stroke-width:1.6;" x="504.042222" xlink:href="#m18765aa432" y="259.986667"/>
      </g>
     </g>
     <g id="text_11">
      <!-- 0.2 -->
      <g transform="translate(488.139097 289.883542)scale(0.2 -0.2)">
       <use xlink:href="#DejaVuSans-48"/>
       <use x="63.623047" xlink:href="#DejaVuSans-46"/>
       <use x="95.410156" xlink:href="#DejaVuSans-50"/>
      </g>
     </g>
    </g>
    <g id="xtick_7">
     <g id="line2d_11">
      <g>
       <use style="stroke:#000000;stroke-width:1.6;" x="572.438667" xlink:href="#m18765aa432" y="259.986667"/>
      </g>
     </g>
     <g id="text_12">
      <!-- 0.4 -->
      <g transform="translate(556.535542 289.883542)scale(0.2 -0.2)">
       <use xlink:href="#DejaVuSans-48"/>
       <use x="63.623047" xlink:href="#DejaVuSans-46"/>
       <use x="95.410156" xlink:href="#DejaVuSans-52"/>
      </g>
     </g>
    </g>
    <g id="xtick_8">
     <g id="line2d_12">
      <g>
       <use style="stroke:#000000;stroke-width:1.6;" x="640.835111" xlink:href="#m18765aa432" y="259.986667"/>
      </g>
     </g>
     <g id="text_13">
      <!-- 0.6 -->
      <g transform="translate(624.931986 289.883542)scale(0.2 -0.2)">
       <use xlink:href="#DejaVuSans-48"/>
       <use x="63.623047" xlink:href="#DejaVuSans-46"/>
       <use x="95.410156" xlink:href="#DejaVuSans-54"/>
      </g>
     </g>
    </g>
    <g id="text_14">
     <!-- Max Attention -->
     <defs>
      <path d="M 34.1875 63.1875 
L 20.796875 26.90625 
L 47.609375 26.90625 
z
M 28.609375 72.90625 
L 39.796875 72.90625 
L 67.578125 0 
L 57.328125 0 
L 50.6875 18.703125 
L 17.828125 18.703125 
L 11.1875 0 
L 0.78125 0 
z
" id="DejaVuSans-65"/>
      <path d="M 30.609375 48.390625 
Q 23.390625 48.390625 19.1875 42.75 
Q 14.984375 37.109375 14.984375 27.296875 
Q 14.984375 17.484375 19.15625 11.84375 
Q 23.34375 6.203125 30.609375 6.203125 
Q 37.796875 6.203125 41.984375 11.859375 
Q 46.1875 17.53125 46.1875 27.296875 
Q 46.1875 37.015625 41.984375 42.703125 
Q 37.796875 48.390625 30.609375 48.390625 
z
M 30.609375 56 
Q 42.328125 56 49.015625 48.375 
Q 55.71875 40.765625 55.71875 27.296875 
Q 55.71875 13.875 49.015625 6.21875 
Q 42.328125 -1.421875 30.609375 -1.421875 
Q 18.84375 -1.421875 12.171875 6.21875 
Q 5.515625 13.875 5.515625 27.296875 
Q 5.515625 40.765625 12.171875 48.375 
Q 18.84375 56 30.609375 56 
z
" id="DejaVuSans-111"/>
     </defs>
     <g transform="translate(476.611875 313.239792)scale(0.2 -0.2)">
      <use xlink:href="#DejaVuSans-77"/>
      <use x="86.279297" xlink:href="#DejaVuSans-97"/>
      <use x="147.558594" xlink:href="#DejaVuSans-120"/>
      <use x="206.738281" xlink:href="#DejaVuSans-32"/>
      <use x="238.525391" xlink:href="#DejaVuSans-65"/>
      <use x="306.917969" xlink:href="#DejaVuSans-116"/>
      <use x="346.126953" xlink:href="#DejaVuSans-116"/>
      <use x="385.335938" xlink:href="#DejaVuSans-101"/>
      <use x="446.859375" xlink:href="#DejaVuSans-110"/>
      <use x="510.238281" xlink:href="#DejaVuSans-116"/>
      <use x="549.447266" xlink:href="#DejaVuSans-105"/>
      <use x="577.230469" xlink:href="#DejaVuSans-111"/>
      <use x="638.412109" xlink:href="#DejaVuSans-110"/>
     </g>
    </g>
   </g>
   <g id="matplotlib.axis_4">
    <g id="ytick_5">
     <g id="line2d_13">
      <g>
       <use style="stroke:#000000;stroke-width:1.6;" x="418.546667" xlink:href="#me0f8088383" y="35.560833"/>
      </g>
     </g>
     <g id="text_15">
      <!-- [0.00, -->
      <defs>
       <path d="M 8.59375 75.984375 
L 29.296875 75.984375 
L 29.296875 69 
L 17.578125 69 
L 17.578125 -6.203125 
L 29.296875 -6.203125 
L 29.296875 -13.1875 
L 8.59375 -13.1875 
z
" id="DejaVuSans-91"/>
       <path d="M 11.71875 12.40625 
L 22.015625 12.40625 
L 22.015625 4 
L 14.015625 -11.625 
L 7.71875 -11.625 
L 11.71875 4 
z
" id="DejaVuSans-44"/>
      </defs>
      <g transform="translate(345.156042 31.961458)scale(0.2 -0.2)">
       <use xlink:href="#DejaVuSans-91"/>
       <use x="39.013672" xlink:href="#DejaVuSans-48"/>
       <use x="102.636719" xlink:href="#DejaVuSans-46"/>
       <use x="134.423828" xlink:href="#DejaVuSans-48"/>
       <use x="198.046875" xlink:href="#DejaVuSans-48"/>
       <use x="261.669922" xlink:href="#DejaVuSans-44"/>
      </g>
      <!-- 0.25) -->
      <defs>
       <path d="M 10.796875 72.90625 
L 49.515625 72.90625 
L 49.515625 64.59375 
L 19.828125 64.59375 
L 19.828125 46.734375 
Q 21.96875 47.46875 24.109375 47.828125 
Q 26.265625 48.1875 28.421875 48.1875 
Q 40.625 48.1875 47.75 41.5 
Q 54.890625 34.8125 54.890625 23.390625 
Q 54.890625 11.625 47.5625 5.09375 
Q 40.234375 -1.421875 26.90625 -1.421875 
Q 22.3125 -1.421875 17.546875 -0.640625 
Q 12.796875 0.140625 7.71875 1.703125 
L 7.71875 11.625 
Q 12.109375 9.234375 16.796875 8.0625 
Q 21.484375 6.890625 26.703125 6.890625 
Q 35.15625 6.890625 40.078125 11.328125 
Q 45.015625 15.765625 45.015625 23.390625 
Q 45.015625 31 40.078125 35.4375 
Q 35.15625 39.890625 26.703125 39.890625 
Q 22.75 39.890625 18.8125 39.015625 
Q 14.890625 38.140625 10.796875 36.28125 
z
" id="DejaVuSans-53"/>
       <path d="M 8.015625 75.875 
L 15.828125 75.875 
Q 23.140625 64.359375 26.78125 53.3125 
Q 30.421875 42.28125 30.421875 31.390625 
Q 30.421875 20.453125 26.78125 9.375 
Q 23.140625 -1.703125 15.828125 -13.1875 
L 8.015625 -13.1875 
Q 14.5 -2 17.703125 9.0625 
Q 20.90625 20.125 20.90625 31.390625 
Q 20.90625 42.671875 17.703125 53.65625 
Q 14.5 64.65625 8.015625 75.875 
z
" id="DejaVuSans-41"/>
      </defs>
      <g transform="translate(351.512292 54.357083)scale(0.2 -0.2)">
       <use xlink:href="#DejaVuSans-48"/>
       <use x="63.623047" xlink:href="#DejaVuSans-46"/>
       <use x="95.410156" xlink:href="#DejaVuSans-50"/>
       <use x="159.033203" xlink:href="#DejaVuSans-53"/>
       <use x="222.65625" xlink:href="#DejaVuSans-41"/>
      </g>
     </g>
    </g>
    <g id="ytick_6">
     <g id="line2d_14">
      <g>
       <use style="stroke:#000000;stroke-width:1.6;" x="418.546667" xlink:href="#me0f8088383" y="99.6825"/>
      </g>
     </g>
     <g id="text_16">
      <!-- [0.25, -->
      <g transform="translate(345.156042 96.083125)scale(0.2 -0.2)">
       <use xlink:href="#DejaVuSans-91"/>
       <use x="39.013672" xlink:href="#DejaVuSans-48"/>
       <use x="102.636719" xlink:href="#DejaVuSans-46"/>
       <use x="134.423828" xlink:href="#DejaVuSans-50"/>
       <use x="198.046875" xlink:href="#DejaVuSans-53"/>
       <use x="261.669922" xlink:href="#DejaVuSans-44"/>
      </g>
      <!-- 0.50) -->
      <g transform="translate(351.512292 118.47875)scale(0.2 -0.2)">
       <use xlink:href="#DejaVuSans-48"/>
       <use x="63.623047" xlink:href="#DejaVuSans-46"/>
       <use x="95.410156" xlink:href="#DejaVuSans-53"/>
       <use x="159.033203" xlink:href="#DejaVuSans-48"/>
       <use x="222.65625" xlink:href="#DejaVuSans-41"/>
      </g>
     </g>
    </g>
    <g id="ytick_7">
     <g id="line2d_15">
      <g>
       <use style="stroke:#000000;stroke-width:1.6;" x="418.546667" xlink:href="#me0f8088383" y="163.804167"/>
      </g>
     </g>
     <g id="text_17">
      <!-- [0.50, -->
      <g transform="translate(345.156042 160.204792)scale(0.2 -0.2)">
       <use xlink:href="#DejaVuSans-91"/>
       <use x="39.013672" xlink:href="#DejaVuSans-48"/>
       <use x="102.636719" xlink:href="#DejaVuSans-46"/>
       <use x="134.423828" xlink:href="#DejaVuSans-53"/>
       <use x="198.046875" xlink:href="#DejaVuSans-48"/>
       <use x="261.669922" xlink:href="#DejaVuSans-44"/>
      </g>
      <!-- 0.75) -->
      <defs>
       <path d="M 8.203125 72.90625 
L 55.078125 72.90625 
L 55.078125 68.703125 
L 28.609375 0 
L 18.3125 0 
L 43.21875 64.59375 
L 8.203125 64.59375 
z
" id="DejaVuSans-55"/>
      </defs>
      <g transform="translate(351.512292 182.600417)scale(0.2 -0.2)">
       <use xlink:href="#DejaVuSans-48"/>
       <use x="63.623047" xlink:href="#DejaVuSans-46"/>
       <use x="95.410156" xlink:href="#DejaVuSans-55"/>
       <use x="159.033203" xlink:href="#DejaVuSans-53"/>
       <use x="222.65625" xlink:href="#DejaVuSans-41"/>
      </g>
     </g>
    </g>
    <g id="ytick_8">
     <g id="line2d_16">
      <g>
       <use style="stroke:#000000;stroke-width:1.6;" x="418.546667" xlink:href="#me0f8088383" y="227.925833"/>
      </g>
     </g>
     <g id="text_18">
      <!-- [0.75, -->
      <g transform="translate(345.156042 224.326458)scale(0.2 -0.2)">
       <use xlink:href="#DejaVuSans-91"/>
       <use x="39.013672" xlink:href="#DejaVuSans-48"/>
       <use x="102.636719" xlink:href="#DejaVuSans-46"/>
       <use x="134.423828" xlink:href="#DejaVuSans-55"/>
       <use x="198.046875" xlink:href="#DejaVuSans-53"/>
       <use x="261.669922" xlink:href="#DejaVuSans-44"/>
      </g>
      <!-- 1.00) -->
      <g transform="translate(351.512292 246.722083)scale(0.2 -0.2)">
       <use xlink:href="#DejaVuSans-49"/>
       <use x="63.623047" xlink:href="#DejaVuSans-46"/>
       <use x="95.410156" xlink:href="#DejaVuSans-48"/>
       <use x="159.033203" xlink:href="#DejaVuSans-48"/>
       <use x="222.65625" xlink:href="#DejaVuSans-41"/>
      </g>
     </g>
    </g>
    <g id="text_19">
     <!-- Max JS Divergence within $\epsilon$ -->
     <g transform="translate(336.956042 267.343333)rotate(-90)scale(0.2 -0.2)">
      <use transform="translate(0 0.015625)" xlink:href="#DejaVuSans-77"/>
      <use transform="translate(86.279297 0.015625)" xlink:href="#DejaVuSans-97"/>
      <use transform="translate(147.558594 0.015625)" xlink:href="#DejaVuSans-120"/>
      <use transform="translate(206.738281 0.015625)" xlink:href="#DejaVuSans-32"/>
      <use transform="translate(238.525391 0.015625)" xlink:href="#DejaVuSans-74"/>
      <use transform="translate(268.017578 0.015625)" xlink:href="#DejaVuSans-83"/>
      <use transform="translate(331.494141 0.015625)" xlink:href="#DejaVuSans-32"/>
      <use transform="translate(363.28125 0.015625)" xlink:href="#DejaVuSans-68"/>
      <use transform="translate(440.283203 0.015625)" xlink:href="#DejaVuSans-105"/>
      <use transform="translate(468.066406 0.015625)" xlink:href="#DejaVuSans-118"/>
      <use transform="translate(527.246094 0.015625)" xlink:href="#DejaVuSans-101"/>
      <use transform="translate(588.769531 0.015625)" xlink:href="#DejaVuSans-114"/>
      <use transform="translate(629.882812 0.015625)" xlink:href="#DejaVuSans-103"/>
      <use transform="translate(693.359375 0.015625)" xlink:href="#DejaVuSans-101"/>
      <use transform="translate(754.882812 0.015625)" xlink:href="#DejaVuSans-110"/>
      <use transform="translate(818.261719 0.015625)" xlink:href="#DejaVuSans-99"/>
      <use transform="translate(873.242188 0.015625)" xlink:href="#DejaVuSans-101"/>
      <use transform="translate(934.765625 0.015625)" xlink:href="#DejaVuSans-32"/>
      <use transform="translate(966.552734 0.015625)" xlink:href="#DejaVuSans-119"/>
      <use transform="translate(1048.339844 0.015625)" xlink:href="#DejaVuSans-105"/>
      <use transform="translate(1076.123047 0.015625)" xlink:href="#DejaVuSans-116"/>
      <use transform="translate(1115.332031 0.015625)" xlink:href="#DejaVuSans-104"/>
      <use transform="translate(1178.710938 0.015625)" xlink:href="#DejaVuSans-105"/>
      <use transform="translate(1206.494141 0.015625)" xlink:href="#DejaVuSans-110"/>
      <use transform="translate(1269.873047 0.015625)" xlink:href="#DejaVuSans-32"/>
      <use transform="translate(1301.660156 0.015625)" xlink:href="#DejaVuSans-Oblique-949"/>
     </g>
    </g>
   </g>
   <g id="line2d_17">
    <path clip-path="url(#p687deda2f8)" style="fill:none;stroke:#575757;stroke-dasharray:1.5,1.5;stroke-dashoffset:0;"/>
   </g>
   <g id="line2d_18">
    <path clip-path="url(#p687deda2f8)" style="fill:none;stroke:#575757;stroke-dasharray:3,3;stroke-dashoffset:0;"/>
   </g>
   <g id="line2d_19">
    <path clip-path="url(#p687deda2f8)" style="fill:none;stroke:#575757;stroke-dasharray:1.5,1.5;stroke-dashoffset:0;"/>
   </g>
   <g id="line2d_20">
    <path clip-path="url(#p687deda2f8)" style="fill:none;stroke:#575757;stroke-dasharray:1.5,1.5;stroke-dashoffset:0;"/>
   </g>
   <g id="line2d_21">
    <path clip-path="url(#p687deda2f8)" style="fill:none;stroke:#575757;stroke-dasharray:3,3;stroke-dashoffset:0;"/>
   </g>
   <g id="line2d_22">
    <path clip-path="url(#p687deda2f8)" style="fill:none;stroke:#575757;stroke-dasharray:1.5,1.5;stroke-dashoffset:0;"/>
   </g>
   <g id="line2d_23">
    <path clip-path="url(#p687deda2f8)" style="fill:none;stroke:#575757;stroke-dasharray:1.5,1.5;stroke-dashoffset:0;"/>
   </g>
   <g id="line2d_24">
    <path clip-path="url(#p687deda2f8)" style="fill:none;stroke:#575757;stroke-dasharray:3,3;stroke-dashoffset:0;"/>
   </g>
   <g id="line2d_25">
    <path clip-path="url(#p687deda2f8)" style="fill:none;stroke:#575757;stroke-dasharray:1.5,1.5;stroke-dashoffset:0;"/>
   </g>
   <g id="patch_47">
    <path style="fill:none;stroke:#000000;stroke-linecap:square;stroke-linejoin:miter;stroke-width:0.8;"/>
   </g>
   <g id="patch_48">
    <path style="fill:none;stroke:#000000;stroke-linecap:square;stroke-linejoin:miter;stroke-width:0.8;"/>
   </g>
  </g>
 </g>
 <defs>
  <clipPath id="pc36f93b1da">
   <rect height="256.486667" width="256.486667" x="46.7" y="3.5"/>
  </clipPath>
  <clipPath id="p687deda2f8">
   <rect height="256.486667" width="256.486667" x="418.546667" y="3.5"/>
  </clipPath>
 </defs>
</svg>
