<?xml version="1.0" encoding="utf-8" standalone="no"?>
<!DOCTYPE svg PUBLIC "-//W3C//DTD SVG 1.1//EN"
  "http://www.w3.org/Graphics/SVG/1.1/DTD/svg11.dtd">
<!-- Created with matplotlib (https://matplotlib.org/) -->
<svg height="324.135847pt" version="1.1" viewBox="0 0 337.66237 324.135847" width="337.66237pt" xmlns="http://www.w3.org/2000/svg" xmlns:xlink="http://www.w3.org/1999/xlink">
 <defs>
  <style type="text/css">
*{stroke-linecap:butt;stroke-linejoin:round;}
  </style>
 </defs>
 <g id="figure_1">
  <g id="patch_1">
   <path d="M 0 324.135847 
L 337.66237 324.135847 
L 337.66237 0 
L 0 0 
z
" style="fill:#ffffff;"/>
  </g>
  <g id="axes_1">
   <g id="patch_2">
    <path d="M 72.45 263.435847 
L 330.433333 263.435847 
L 330.433333 5.452513 
L 72.45 5.452513 
z
" style="fill:#ffffff;"/>
   </g>
   <g id="patch_3">
    <path clip-path="url(#pbe74379009)" d="M 84.176515 263.435847 
L 90.039773 263.435847 
L 90.039773 263.435847 
L 84.176515 263.435847 
z
" style="fill:#7570b3;opacity:0.6;stroke:#000000;stroke-linejoin:miter;stroke-width:0.5;"/>
   </g>
   <g id="patch_4">
    <path clip-path="url(#pbe74379009)" d="M 90.039773 263.435847 
L 95.90303 263.435847 
L 95.90303 263.435847 
L 90.039773 263.435847 
z
" style="fill:#7570b3;opacity:0.6;stroke:#000000;stroke-linejoin:miter;stroke-width:0.5;"/>
   </g>
   <g id="patch_5">
    <path clip-path="url(#pbe74379009)" d="M 95.90303 263.435847 
L 101.766288 263.435847 
L 101.766288 263.435847 
L 95.90303 263.435847 
z
" style="fill:#7570b3;opacity:0.6;stroke:#000000;stroke-linejoin:miter;stroke-width:0.5;"/>
   </g>
   <g id="patch_6">
    <path clip-path="url(#pbe74379009)" d="M 101.766288 263.435847 
L 107.629545 263.435847 
L 107.629545 261.38836 
L 101.766288 261.38836 
z
" style="fill:#7570b3;opacity:0.6;stroke:#000000;stroke-linejoin:miter;stroke-width:0.5;"/>
   </g>
   <g id="patch_7">
    <path clip-path="url(#pbe74379009)" d="M 107.629545 263.435847 
L 113.492803 263.435847 
L 113.492803 263.435847 
L 107.629545 263.435847 
z
" style="fill:#7570b3;opacity:0.6;stroke:#000000;stroke-linejoin:miter;stroke-width:0.5;"/>
   </g>
   <g id="patch_8">
    <path clip-path="url(#pbe74379009)" d="M 113.492803 263.435847 
L 119.356061 263.435847 
L 119.356061 263.435847 
L 113.492803 263.435847 
z
" style="fill:#7570b3;opacity:0.6;stroke:#000000;stroke-linejoin:miter;stroke-width:0.5;"/>
   </g>
   <g id="patch_9">
    <path clip-path="url(#pbe74379009)" d="M 119.356061 263.435847 
L 125.219318 263.435847 
L 125.219318 261.38836 
L 119.356061 261.38836 
z
" style="fill:#7570b3;opacity:0.6;stroke:#000000;stroke-linejoin:miter;stroke-width:0.5;"/>
   </g>
   <g id="patch_10">
    <path clip-path="url(#pbe74379009)" d="M 125.219318 263.435847 
L 131.082576 263.435847 
L 131.082576 263.435847 
L 125.219318 263.435847 
z
" style="fill:#7570b3;opacity:0.6;stroke:#000000;stroke-linejoin:miter;stroke-width:0.5;"/>
   </g>
   <g id="patch_11">
    <path clip-path="url(#pbe74379009)" d="M 131.082576 263.435847 
L 136.945833 263.435847 
L 136.945833 261.38836 
L 131.082576 261.38836 
z
" style="fill:#7570b3;opacity:0.6;stroke:#000000;stroke-linejoin:miter;stroke-width:0.5;"/>
   </g>
   <g id="patch_12">
    <path clip-path="url(#pbe74379009)" d="M 136.945833 263.435847 
L 142.809091 263.435847 
L 142.809091 253.198413 
L 136.945833 253.198413 
z
" style="fill:#7570b3;opacity:0.6;stroke:#000000;stroke-linejoin:miter;stroke-width:0.5;"/>
   </g>
   <g id="patch_13">
    <path clip-path="url(#pbe74379009)" d="M 142.809091 263.435847 
L 148.672348 263.435847 
L 148.672348 263.435847 
L 142.809091 263.435847 
z
" style="fill:#7570b3;opacity:0.6;stroke:#000000;stroke-linejoin:miter;stroke-width:0.5;"/>
   </g>
   <g id="patch_14">
    <path clip-path="url(#pbe74379009)" d="M 148.672348 263.435847 
L 154.535606 263.435847 
L 154.535606 257.293386 
L 148.672348 257.293386 
z
" style="fill:#7570b3;opacity:0.6;stroke:#000000;stroke-linejoin:miter;stroke-width:0.5;"/>
   </g>
   <g id="patch_15">
    <path clip-path="url(#pbe74379009)" d="M 154.535606 263.435847 
L 160.398864 263.435847 
L 160.398864 249.103439 
L 154.535606 249.103439 
z
" style="fill:#7570b3;opacity:0.6;stroke:#000000;stroke-linejoin:miter;stroke-width:0.5;"/>
   </g>
   <g id="patch_16">
    <path clip-path="url(#pbe74379009)" d="M 160.398864 263.435847 
L 166.262121 263.435847 
L 166.262121 257.293386 
L 160.398864 257.293386 
z
" style="fill:#7570b3;opacity:0.6;stroke:#000000;stroke-linejoin:miter;stroke-width:0.5;"/>
   </g>
   <g id="patch_17">
    <path clip-path="url(#pbe74379009)" d="M 166.262121 263.435847 
L 172.125379 263.435847 
L 172.125379 255.245899 
L 166.262121 255.245899 
z
" style="fill:#7570b3;opacity:0.6;stroke:#000000;stroke-linejoin:miter;stroke-width:0.5;"/>
   </g>
   <g id="patch_18">
    <path clip-path="url(#pbe74379009)" d="M 172.125379 263.435847 
L 177.988636 263.435847 
L 177.988636 255.245899 
L 172.125379 255.245899 
z
" style="fill:#7570b3;opacity:0.6;stroke:#000000;stroke-linejoin:miter;stroke-width:0.5;"/>
   </g>
   <g id="patch_19">
    <path clip-path="url(#pbe74379009)" d="M 177.988636 263.435847 
L 183.851894 263.435847 
L 183.851894 253.198413 
L 177.988636 253.198413 
z
" style="fill:#7570b3;opacity:0.6;stroke:#000000;stroke-linejoin:miter;stroke-width:0.5;"/>
   </g>
   <g id="patch_20">
    <path clip-path="url(#pbe74379009)" d="M 183.851894 263.435847 
L 189.715152 263.435847 
L 189.715152 242.960979 
L 183.851894 242.960979 
z
" style="fill:#7570b3;opacity:0.6;stroke:#000000;stroke-linejoin:miter;stroke-width:0.5;"/>
   </g>
   <g id="patch_21">
    <path clip-path="url(#pbe74379009)" d="M 189.715152 263.435847 
L 195.578409 263.435847 
L 195.578409 240.913492 
L 189.715152 240.913492 
z
" style="fill:#7570b3;opacity:0.6;stroke:#000000;stroke-linejoin:miter;stroke-width:0.5;"/>
   </g>
   <g id="patch_22">
    <path clip-path="url(#pbe74379009)" d="M 195.578409 263.435847 
L 201.441667 263.435847 
L 201.441667 226.581085 
L 195.578409 226.581085 
z
" style="fill:#7570b3;opacity:0.6;stroke:#000000;stroke-linejoin:miter;stroke-width:0.5;"/>
   </g>
   <g id="patch_23">
    <path clip-path="url(#pbe74379009)" d="M 201.441667 263.435847 
L 207.304924 263.435847 
L 207.304924 216.343651 
L 201.441667 216.343651 
z
" style="fill:#7570b3;opacity:0.6;stroke:#000000;stroke-linejoin:miter;stroke-width:0.5;"/>
   </g>
   <g id="patch_24">
    <path clip-path="url(#pbe74379009)" d="M 207.304924 263.435847 
L 213.168182 263.435847 
L 213.168182 216.343651 
L 207.304924 216.343651 
z
" style="fill:#7570b3;opacity:0.6;stroke:#000000;stroke-linejoin:miter;stroke-width:0.5;"/>
   </g>
   <g id="patch_25">
    <path clip-path="url(#pbe74379009)" d="M 213.168182 263.435847 
L 219.031439 263.435847 
L 219.031439 204.05873 
L 213.168182 204.05873 
z
" style="fill:#7570b3;opacity:0.6;stroke:#000000;stroke-linejoin:miter;stroke-width:0.5;"/>
   </g>
   <g id="patch_26">
    <path clip-path="url(#pbe74379009)" d="M 219.031439 263.435847 
L 224.894697 263.435847 
L 224.894697 154.919048 
L 219.031439 154.919048 
z
" style="fill:#7570b3;opacity:0.6;stroke:#000000;stroke-linejoin:miter;stroke-width:0.5;"/>
   </g>
   <g id="patch_27">
    <path clip-path="url(#pbe74379009)" d="M 224.894697 263.435847 
L 230.757955 263.435847 
L 230.757955 93.494444 
L 224.894697 93.494444 
z
" style="fill:#7570b3;opacity:0.6;stroke:#000000;stroke-linejoin:miter;stroke-width:0.5;"/>
   </g>
   <g id="patch_28">
    <path clip-path="url(#pbe74379009)" d="M 230.757955 263.435847 
L 236.621212 263.435847 
L 236.621212 81.209524 
L 230.757955 81.209524 
z
" style="fill:#7570b3;opacity:0.6;stroke:#000000;stroke-linejoin:miter;stroke-width:0.5;"/>
   </g>
   <g id="patch_29">
    <path clip-path="url(#pbe74379009)" d="M 236.621212 263.435847 
L 242.48447 263.435847 
L 242.48447 44.354762 
L 236.621212 44.354762 
z
" style="fill:#7570b3;opacity:0.6;stroke:#000000;stroke-linejoin:miter;stroke-width:0.5;"/>
   </g>
   <g id="patch_30">
    <path clip-path="url(#pbe74379009)" d="M 242.48447 263.435847 
L 248.347727 263.435847 
L 248.347727 44.354762 
L 242.48447 44.354762 
z
" style="fill:#7570b3;opacity:0.6;stroke:#000000;stroke-linejoin:miter;stroke-width:0.5;"/>
   </g>
   <g id="patch_31">
    <path clip-path="url(#pbe74379009)" d="M 248.347727 263.435847 
L 254.210985 263.435847 
L 254.210985 17.737434 
L 248.347727 17.737434 
z
" style="fill:#7570b3;opacity:0.6;stroke:#000000;stroke-linejoin:miter;stroke-width:0.5;"/>
   </g>
   <g id="patch_32">
    <path clip-path="url(#pbe74379009)" d="M 254.210985 263.435847 
L 260.074242 263.435847 
L 260.074242 21.832407 
L 254.210985 21.832407 
z
" style="fill:#7570b3;opacity:0.6;stroke:#000000;stroke-linejoin:miter;stroke-width:0.5;"/>
   </g>
   <g id="patch_33">
    <path clip-path="url(#pbe74379009)" d="M 260.074242 263.435847 
L 265.9375 263.435847 
L 265.9375 97.589418 
L 260.074242 97.589418 
z
" style="fill:#7570b3;opacity:0.6;stroke:#000000;stroke-linejoin:miter;stroke-width:0.5;"/>
   </g>
   <g id="patch_34">
    <path clip-path="url(#pbe74379009)" d="M 265.9375 263.435847 
L 271.800758 263.435847 
L 271.800758 167.203968 
L 265.9375 167.203968 
z
" style="fill:#7570b3;opacity:0.6;stroke:#000000;stroke-linejoin:miter;stroke-width:0.5;"/>
   </g>
   <g id="patch_35">
    <path clip-path="url(#pbe74379009)" d="M 271.800758 263.435847 
L 277.664015 263.435847 
L 277.664015 222.486111 
L 271.800758 222.486111 
z
" style="fill:#7570b3;opacity:0.6;stroke:#000000;stroke-linejoin:miter;stroke-width:0.5;"/>
   </g>
   <g id="patch_36">
    <path clip-path="url(#pbe74379009)" d="M 277.664015 263.435847 
L 283.527273 263.435847 
L 283.527273 224.533598 
L 277.664015 224.533598 
z
" style="fill:#7570b3;opacity:0.6;stroke:#000000;stroke-linejoin:miter;stroke-width:0.5;"/>
   </g>
   <g id="patch_37">
    <path clip-path="url(#pbe74379009)" d="M 283.527273 263.435847 
L 289.39053 263.435847 
L 289.39053 251.150926 
L 283.527273 251.150926 
z
" style="fill:#7570b3;opacity:0.6;stroke:#000000;stroke-linejoin:miter;stroke-width:0.5;"/>
   </g>
   <g id="patch_38">
    <path clip-path="url(#pbe74379009)" d="M 289.39053 263.435847 
L 295.253788 263.435847 
L 295.253788 259.340873 
L 289.39053 259.340873 
z
" style="fill:#7570b3;opacity:0.6;stroke:#000000;stroke-linejoin:miter;stroke-width:0.5;"/>
   </g>
   <g id="patch_39">
    <path clip-path="url(#pbe74379009)" d="M 295.253788 263.435847 
L 301.117045 263.435847 
L 301.117045 263.435847 
L 295.253788 263.435847 
z
" style="fill:#7570b3;opacity:0.6;stroke:#000000;stroke-linejoin:miter;stroke-width:0.5;"/>
   </g>
   <g id="patch_40">
    <path clip-path="url(#pbe74379009)" d="M 301.117045 263.435847 
L 306.980303 263.435847 
L 306.980303 263.435847 
L 301.117045 263.435847 
z
" style="fill:#7570b3;opacity:0.6;stroke:#000000;stroke-linejoin:miter;stroke-width:0.5;"/>
   </g>
   <g id="patch_41">
    <path clip-path="url(#pbe74379009)" d="M 306.980303 263.435847 
L 312.843561 263.435847 
L 312.843561 263.435847 
L 306.980303 263.435847 
z
" style="fill:#7570b3;opacity:0.6;stroke:#000000;stroke-linejoin:miter;stroke-width:0.5;"/>
   </g>
   <g id="patch_42">
    <path clip-path="url(#pbe74379009)" d="M 312.843561 263.435847 
L 318.706818 263.435847 
L 318.706818 263.435847 
L 312.843561 263.435847 
z
" style="fill:#7570b3;opacity:0.6;stroke:#000000;stroke-linejoin:miter;stroke-width:0.5;"/>
   </g>
   <g id="matplotlib.axis_1">
    <g id="xtick_1">
     <g id="line2d_1">
      <defs>
       <path d="M 0 0 
L 0 3.5 
" id="md0272e0dd3" style="stroke:#000000;stroke-width:1.6;"/>
      </defs>
      <g>
       <use style="stroke:#000000;stroke-width:1.6;" x="84.176515" xlink:href="#md0272e0dd3" y="263.435847"/>
      </g>
     </g>
     <g id="text_1">
      <!-- 0.0 -->
      <defs>
       <path d="M 31.78125 66.40625 
Q 24.171875 66.40625 20.328125 58.90625 
Q 16.5 51.421875 16.5 36.375 
Q 16.5 21.390625 20.328125 13.890625 
Q 24.171875 6.390625 31.78125 6.390625 
Q 39.453125 6.390625 43.28125 13.890625 
Q 47.125 21.390625 47.125 36.375 
Q 47.125 51.421875 43.28125 58.90625 
Q 39.453125 66.40625 31.78125 66.40625 
z
M 31.78125 74.21875 
Q 44.046875 74.21875 50.515625 64.515625 
Q 56.984375 54.828125 56.984375 36.375 
Q 56.984375 17.96875 50.515625 8.265625 
Q 44.046875 -1.421875 31.78125 -1.421875 
Q 19.53125 -1.421875 13.0625 8.265625 
Q 6.59375 17.96875 6.59375 36.375 
Q 6.59375 54.828125 13.0625 64.515625 
Q 19.53125 74.21875 31.78125 74.21875 
z
" id="DejaVuSans-48"/>
       <path d="M 10.6875 12.40625 
L 21 12.40625 
L 21 0 
L 10.6875 0 
z
" id="DejaVuSans-46"/>
      </defs>
      <g transform="translate(68.27339 293.332722)scale(0.2 -0.2)">
       <use xlink:href="#DejaVuSans-48"/>
       <use x="63.623047" xlink:href="#DejaVuSans-46"/>
       <use x="95.410156" xlink:href="#DejaVuSans-48"/>
      </g>
     </g>
    </g>
    <g id="xtick_2">
     <g id="line2d_2">
      <g>
       <use style="stroke:#000000;stroke-width:1.6;" x="151.185173" xlink:href="#md0272e0dd3" y="263.435847"/>
      </g>
     </g>
     <g id="text_2">
      <!-- 0.2 -->
      <defs>
       <path d="M 19.1875 8.296875 
L 53.609375 8.296875 
L 53.609375 0 
L 7.328125 0 
L 7.328125 8.296875 
Q 12.9375 14.109375 22.625 23.890625 
Q 32.328125 33.6875 34.8125 36.53125 
Q 39.546875 41.84375 41.421875 45.53125 
Q 43.3125 49.21875 43.3125 52.78125 
Q 43.3125 58.59375 39.234375 62.25 
Q 35.15625 65.921875 28.609375 65.921875 
Q 23.96875 65.921875 18.8125 64.3125 
Q 13.671875 62.703125 7.8125 59.421875 
L 7.8125 69.390625 
Q 13.765625 71.78125 18.9375 73 
Q 24.125 74.21875 28.421875 74.21875 
Q 39.75 74.21875 46.484375 68.546875 
Q 53.21875 62.890625 53.21875 53.421875 
Q 53.21875 48.921875 51.53125 44.890625 
Q 49.859375 40.875 45.40625 35.40625 
Q 44.1875 33.984375 37.640625 27.21875 
Q 31.109375 20.453125 19.1875 8.296875 
z
" id="DejaVuSans-50"/>
      </defs>
      <g transform="translate(135.282048 293.332722)scale(0.2 -0.2)">
       <use xlink:href="#DejaVuSans-48"/>
       <use x="63.623047" xlink:href="#DejaVuSans-46"/>
       <use x="95.410156" xlink:href="#DejaVuSans-50"/>
      </g>
     </g>
    </g>
    <g id="xtick_3">
     <g id="line2d_3">
      <g>
       <use style="stroke:#000000;stroke-width:1.6;" x="218.193831" xlink:href="#md0272e0dd3" y="263.435847"/>
      </g>
     </g>
     <g id="text_3">
      <!-- 0.4 -->
      <defs>
       <path d="M 37.796875 64.3125 
L 12.890625 25.390625 
L 37.796875 25.390625 
z
M 35.203125 72.90625 
L 47.609375 72.90625 
L 47.609375 25.390625 
L 58.015625 25.390625 
L 58.015625 17.1875 
L 47.609375 17.1875 
L 47.609375 0 
L 37.796875 0 
L 37.796875 17.1875 
L 4.890625 17.1875 
L 4.890625 26.703125 
z
" id="DejaVuSans-52"/>
      </defs>
      <g transform="translate(202.290706 293.332722)scale(0.2 -0.2)">
       <use xlink:href="#DejaVuSans-48"/>
       <use x="63.623047" xlink:href="#DejaVuSans-46"/>
       <use x="95.410156" xlink:href="#DejaVuSans-52"/>
      </g>
     </g>
    </g>
    <g id="xtick_4">
     <g id="line2d_4">
      <g>
       <use style="stroke:#000000;stroke-width:1.6;" x="285.202489" xlink:href="#md0272e0dd3" y="263.435847"/>
      </g>
     </g>
     <g id="text_4">
      <!-- 0.6 -->
      <defs>
       <path d="M 33.015625 40.375 
Q 26.375 40.375 22.484375 35.828125 
Q 18.609375 31.296875 18.609375 23.390625 
Q 18.609375 15.53125 22.484375 10.953125 
Q 26.375 6.390625 33.015625 6.390625 
Q 39.65625 6.390625 43.53125 10.953125 
Q 47.40625 15.53125 47.40625 23.390625 
Q 47.40625 31.296875 43.53125 35.828125 
Q 39.65625 40.375 33.015625 40.375 
z
M 52.59375 71.296875 
L 52.59375 62.3125 
Q 48.875 64.0625 45.09375 64.984375 
Q 41.3125 65.921875 37.59375 65.921875 
Q 27.828125 65.921875 22.671875 59.328125 
Q 17.53125 52.734375 16.796875 39.40625 
Q 19.671875 43.65625 24.015625 45.921875 
Q 28.375 48.1875 33.59375 48.1875 
Q 44.578125 48.1875 50.953125 41.515625 
Q 57.328125 34.859375 57.328125 23.390625 
Q 57.328125 12.15625 50.6875 5.359375 
Q 44.046875 -1.421875 33.015625 -1.421875 
Q 20.359375 -1.421875 13.671875 8.265625 
Q 6.984375 17.96875 6.984375 36.375 
Q 6.984375 53.65625 15.1875 63.9375 
Q 23.390625 74.21875 37.203125 74.21875 
Q 40.921875 74.21875 44.703125 73.484375 
Q 48.484375 72.75 52.59375 71.296875 
z
" id="DejaVuSans-54"/>
      </defs>
      <g transform="translate(269.299364 293.332722)scale(0.2 -0.2)">
       <use xlink:href="#DejaVuSans-48"/>
       <use x="63.623047" xlink:href="#DejaVuSans-46"/>
       <use x="95.410156" xlink:href="#DejaVuSans-54"/>
      </g>
     </g>
    </g>
    <g id="text_5">
     <!-- Max JS Divergence within $\epsilon$ -->
     <defs>
      <path d="M 9.8125 72.90625 
L 24.515625 72.90625 
L 43.109375 23.296875 
L 61.8125 72.90625 
L 76.515625 72.90625 
L 76.515625 0 
L 66.890625 0 
L 66.890625 64.015625 
L 48.09375 14.015625 
L 38.1875 14.015625 
L 19.390625 64.015625 
L 19.390625 0 
L 9.8125 0 
z
" id="DejaVuSans-77"/>
      <path d="M 34.28125 27.484375 
Q 23.390625 27.484375 19.1875 25 
Q 14.984375 22.515625 14.984375 16.5 
Q 14.984375 11.71875 18.140625 8.90625 
Q 21.296875 6.109375 26.703125 6.109375 
Q 34.1875 6.109375 38.703125 11.40625 
Q 43.21875 16.703125 43.21875 25.484375 
L 43.21875 27.484375 
z
M 52.203125 31.203125 
L 52.203125 0 
L 43.21875 0 
L 43.21875 8.296875 
Q 40.140625 3.328125 35.546875 0.953125 
Q 30.953125 -1.421875 24.3125 -1.421875 
Q 15.921875 -1.421875 10.953125 3.296875 
Q 6 8.015625 6 15.921875 
Q 6 25.140625 12.171875 29.828125 
Q 18.359375 34.515625 30.609375 34.515625 
L 43.21875 34.515625 
L 43.21875 35.40625 
Q 43.21875 41.609375 39.140625 45 
Q 35.0625 48.390625 27.6875 48.390625 
Q 23 48.390625 18.546875 47.265625 
Q 14.109375 46.140625 10.015625 43.890625 
L 10.015625 52.203125 
Q 14.9375 54.109375 19.578125 55.046875 
Q 24.21875 56 28.609375 56 
Q 40.484375 56 46.34375 49.84375 
Q 52.203125 43.703125 52.203125 31.203125 
z
" id="DejaVuSans-97"/>
      <path d="M 54.890625 54.6875 
L 35.109375 28.078125 
L 55.90625 0 
L 45.3125 0 
L 29.390625 21.484375 
L 13.484375 0 
L 2.875 0 
L 24.125 28.609375 
L 4.6875 54.6875 
L 15.28125 54.6875 
L 29.78125 35.203125 
L 44.28125 54.6875 
z
" id="DejaVuSans-120"/>
      <path id="DejaVuSans-32"/>
      <path d="M 9.8125 72.90625 
L 19.671875 72.90625 
L 19.671875 5.078125 
Q 19.671875 -8.109375 14.671875 -14.0625 
Q 9.671875 -20.015625 -1.421875 -20.015625 
L -5.171875 -20.015625 
L -5.171875 -11.71875 
L -2.09375 -11.71875 
Q 4.4375 -11.71875 7.125 -8.046875 
Q 9.8125 -4.390625 9.8125 5.078125 
z
" id="DejaVuSans-74"/>
      <path d="M 53.515625 70.515625 
L 53.515625 60.890625 
Q 47.90625 63.578125 42.921875 64.890625 
Q 37.9375 66.21875 33.296875 66.21875 
Q 25.25 66.21875 20.875 63.09375 
Q 16.5 59.96875 16.5 54.203125 
Q 16.5 49.359375 19.40625 46.890625 
Q 22.3125 44.4375 30.421875 42.921875 
L 36.375 41.703125 
Q 47.40625 39.59375 52.65625 34.296875 
Q 57.90625 29 57.90625 20.125 
Q 57.90625 9.515625 50.796875 4.046875 
Q 43.703125 -1.421875 29.984375 -1.421875 
Q 24.8125 -1.421875 18.96875 -0.25 
Q 13.140625 0.921875 6.890625 3.21875 
L 6.890625 13.375 
Q 12.890625 10.015625 18.65625 8.296875 
Q 24.421875 6.59375 29.984375 6.59375 
Q 38.421875 6.59375 43.015625 9.90625 
Q 47.609375 13.234375 47.609375 19.390625 
Q 47.609375 24.75 44.3125 27.78125 
Q 41.015625 30.8125 33.5 32.328125 
L 27.484375 33.5 
Q 16.453125 35.6875 11.515625 40.375 
Q 6.59375 45.0625 6.59375 53.421875 
Q 6.59375 63.09375 13.40625 68.65625 
Q 20.21875 74.21875 32.171875 74.21875 
Q 37.3125 74.21875 42.625 73.28125 
Q 47.953125 72.359375 53.515625 70.515625 
z
" id="DejaVuSans-83"/>
      <path d="M 19.671875 64.796875 
L 19.671875 8.109375 
L 31.59375 8.109375 
Q 46.6875 8.109375 53.6875 14.9375 
Q 60.6875 21.78125 60.6875 36.53125 
Q 60.6875 51.171875 53.6875 57.984375 
Q 46.6875 64.796875 31.59375 64.796875 
z
M 9.8125 72.90625 
L 30.078125 72.90625 
Q 51.265625 72.90625 61.171875 64.09375 
Q 71.09375 55.28125 71.09375 36.53125 
Q 71.09375 17.671875 61.125 8.828125 
Q 51.171875 0 30.078125 0 
L 9.8125 0 
z
" id="DejaVuSans-68"/>
      <path d="M 9.421875 54.6875 
L 18.40625 54.6875 
L 18.40625 0 
L 9.421875 0 
z
M 9.421875 75.984375 
L 18.40625 75.984375 
L 18.40625 64.59375 
L 9.421875 64.59375 
z
" id="DejaVuSans-105"/>
      <path d="M 2.984375 54.6875 
L 12.5 54.6875 
L 29.59375 8.796875 
L 46.6875 54.6875 
L 56.203125 54.6875 
L 35.6875 0 
L 23.484375 0 
z
" id="DejaVuSans-118"/>
      <path d="M 56.203125 29.59375 
L 56.203125 25.203125 
L 14.890625 25.203125 
Q 15.484375 15.921875 20.484375 11.0625 
Q 25.484375 6.203125 34.421875 6.203125 
Q 39.59375 6.203125 44.453125 7.46875 
Q 49.3125 8.734375 54.109375 11.28125 
L 54.109375 2.78125 
Q 49.265625 0.734375 44.1875 -0.34375 
Q 39.109375 -1.421875 33.890625 -1.421875 
Q 20.796875 -1.421875 13.15625 6.1875 
Q 5.515625 13.8125 5.515625 26.8125 
Q 5.515625 40.234375 12.765625 48.109375 
Q 20.015625 56 32.328125 56 
Q 43.359375 56 49.78125 48.890625 
Q 56.203125 41.796875 56.203125 29.59375 
z
M 47.21875 32.234375 
Q 47.125 39.59375 43.09375 43.984375 
Q 39.0625 48.390625 32.421875 48.390625 
Q 24.90625 48.390625 20.390625 44.140625 
Q 15.875 39.890625 15.1875 32.171875 
z
" id="DejaVuSans-101"/>
      <path d="M 41.109375 46.296875 
Q 39.59375 47.171875 37.8125 47.578125 
Q 36.03125 48 33.890625 48 
Q 26.265625 48 22.1875 43.046875 
Q 18.109375 38.09375 18.109375 28.8125 
L 18.109375 0 
L 9.078125 0 
L 9.078125 54.6875 
L 18.109375 54.6875 
L 18.109375 46.1875 
Q 20.953125 51.171875 25.484375 53.578125 
Q 30.03125 56 36.53125 56 
Q 37.453125 56 38.578125 55.875 
Q 39.703125 55.765625 41.0625 55.515625 
z
" id="DejaVuSans-114"/>
      <path d="M 45.40625 27.984375 
Q 45.40625 37.75 41.375 43.109375 
Q 37.359375 48.484375 30.078125 48.484375 
Q 22.859375 48.484375 18.828125 43.109375 
Q 14.796875 37.75 14.796875 27.984375 
Q 14.796875 18.265625 18.828125 12.890625 
Q 22.859375 7.515625 30.078125 7.515625 
Q 37.359375 7.515625 41.375 12.890625 
Q 45.40625 18.265625 45.40625 27.984375 
z
M 54.390625 6.78125 
Q 54.390625 -7.171875 48.1875 -13.984375 
Q 42 -20.796875 29.203125 -20.796875 
Q 24.46875 -20.796875 20.265625 -20.09375 
Q 16.0625 -19.390625 12.109375 -17.921875 
L 12.109375 -9.1875 
Q 16.0625 -11.328125 19.921875 -12.34375 
Q 23.78125 -13.375 27.78125 -13.375 
Q 36.625 -13.375 41.015625 -8.765625 
Q 45.40625 -4.15625 45.40625 5.171875 
L 45.40625 9.625 
Q 42.625 4.78125 38.28125 2.390625 
Q 33.9375 0 27.875 0 
Q 17.828125 0 11.671875 7.65625 
Q 5.515625 15.328125 5.515625 27.984375 
Q 5.515625 40.671875 11.671875 48.328125 
Q 17.828125 56 27.875 56 
Q 33.9375 56 38.28125 53.609375 
Q 42.625 51.21875 45.40625 46.390625 
L 45.40625 54.6875 
L 54.390625 54.6875 
z
" id="DejaVuSans-103"/>
      <path d="M 54.890625 33.015625 
L 54.890625 0 
L 45.90625 0 
L 45.90625 32.71875 
Q 45.90625 40.484375 42.875 44.328125 
Q 39.84375 48.1875 33.796875 48.1875 
Q 26.515625 48.1875 22.3125 43.546875 
Q 18.109375 38.921875 18.109375 30.90625 
L 18.109375 0 
L 9.078125 0 
L 9.078125 54.6875 
L 18.109375 54.6875 
L 18.109375 46.1875 
Q 21.34375 51.125 25.703125 53.5625 
Q 30.078125 56 35.796875 56 
Q 45.21875 56 50.046875 50.171875 
Q 54.890625 44.34375 54.890625 33.015625 
z
" id="DejaVuSans-110"/>
      <path d="M 48.78125 52.59375 
L 48.78125 44.1875 
Q 44.96875 46.296875 41.140625 47.34375 
Q 37.3125 48.390625 33.40625 48.390625 
Q 24.65625 48.390625 19.8125 42.84375 
Q 14.984375 37.3125 14.984375 27.296875 
Q 14.984375 17.28125 19.8125 11.734375 
Q 24.65625 6.203125 33.40625 6.203125 
Q 37.3125 6.203125 41.140625 7.25 
Q 44.96875 8.296875 48.78125 10.40625 
L 48.78125 2.09375 
Q 45.015625 0.34375 40.984375 -0.53125 
Q 36.96875 -1.421875 32.421875 -1.421875 
Q 20.0625 -1.421875 12.78125 6.34375 
Q 5.515625 14.109375 5.515625 27.296875 
Q 5.515625 40.671875 12.859375 48.328125 
Q 20.21875 56 33.015625 56 
Q 37.15625 56 41.109375 55.140625 
Q 45.0625 54.296875 48.78125 52.59375 
z
" id="DejaVuSans-99"/>
      <path d="M 4.203125 54.6875 
L 13.1875 54.6875 
L 24.421875 12.015625 
L 35.59375 54.6875 
L 46.1875 54.6875 
L 57.421875 12.015625 
L 68.609375 54.6875 
L 77.59375 54.6875 
L 63.28125 0 
L 52.6875 0 
L 40.921875 44.828125 
L 29.109375 0 
L 18.5 0 
z
" id="DejaVuSans-119"/>
      <path d="M 18.3125 70.21875 
L 18.3125 54.6875 
L 36.8125 54.6875 
L 36.8125 47.703125 
L 18.3125 47.703125 
L 18.3125 18.015625 
Q 18.3125 11.328125 20.140625 9.421875 
Q 21.96875 7.515625 27.59375 7.515625 
L 36.8125 7.515625 
L 36.8125 0 
L 27.59375 0 
Q 17.1875 0 13.234375 3.875 
Q 9.28125 7.765625 9.28125 18.015625 
L 9.28125 47.703125 
L 2.6875 47.703125 
L 2.6875 54.6875 
L 9.28125 54.6875 
L 9.28125 70.21875 
z
" id="DejaVuSans-116"/>
      <path d="M 54.890625 33.015625 
L 54.890625 0 
L 45.90625 0 
L 45.90625 32.71875 
Q 45.90625 40.484375 42.875 44.328125 
Q 39.84375 48.1875 33.796875 48.1875 
Q 26.515625 48.1875 22.3125 43.546875 
Q 18.109375 38.921875 18.109375 30.90625 
L 18.109375 0 
L 9.078125 0 
L 9.078125 75.984375 
L 18.109375 75.984375 
L 18.109375 46.1875 
Q 21.34375 51.125 25.703125 53.5625 
Q 30.078125 56 35.796875 56 
Q 45.21875 56 50.046875 50.171875 
Q 54.890625 44.34375 54.890625 33.015625 
z
" id="DejaVuSans-104"/>
      <path d="M 19.734375 29.5 
Q 14.453125 30.671875 12.15625 33.84375 
Q 10.453125 36.078125 10.453125 39.109375 
Q 10.453125 47.40625 18.359375 52.25 
Q 24.609375 56.0625 34.1875 56.0625 
Q 37.890625 56.0625 41.9375 55.46875 
Q 46 54.890625 50.53125 53.71875 
L 48.96875 45.5625 
Q 44.484375 46.96875 40.71875 47.609375 
Q 36.859375 48.25 33.40625 48.25 
Q 27.59375 48.25 23.78125 46 
Q 19.1875 43.3125 19.1875 39.40625 
Q 19.1875 36.8125 21.578125 35.015625 
Q 24.421875 32.859375 30.078125 32.859375 
L 37.640625 32.859375 
L 36.234375 25.4375 
L 29 25.4375 
Q 22.265625 25.4375 18.3125 22.953125 
Q 12.9375 19.578125 12.9375 14.3125 
Q 12.9375 10.984375 15.828125 8.796875 
Q 19.4375 6.0625 26.8125 6.0625 
Q 31.34375 6.0625 35.6875 6.9375 
Q 40.046875 7.859375 43.84375 9.671875 
L 42.1875 1.3125 
Q 37.546875 -0.046875 33.296875 -0.734375 
Q 29.046875 -1.421875 25.140625 -1.421875 
Q 13.53125 -1.421875 8.0625 3.03125 
Q 3.90625 6.453125 3.90625 12.203125 
Q 3.90625 19.96875 9.375 24.75 
Q 13.421875 28.328125 19.734375 29.5 
z
" id="DejaVuSans-Oblique-949"/>
     </defs>
     <g transform="translate(65.841667 316.692097)scale(0.2 -0.2)">
      <use transform="translate(0 0.015625)" xlink:href="#DejaVuSans-77"/>
      <use transform="translate(86.279297 0.015625)" xlink:href="#DejaVuSans-97"/>
      <use transform="translate(147.558594 0.015625)" xlink:href="#DejaVuSans-120"/>
      <use transform="translate(206.738281 0.015625)" xlink:href="#DejaVuSans-32"/>
      <use transform="translate(238.525391 0.015625)" xlink:href="#DejaVuSans-74"/>
      <use transform="translate(268.017578 0.015625)" xlink:href="#DejaVuSans-83"/>
      <use transform="translate(331.494141 0.015625)" xlink:href="#DejaVuSans-32"/>
      <use transform="translate(363.28125 0.015625)" xlink:href="#DejaVuSans-68"/>
      <use transform="translate(440.283203 0.015625)" xlink:href="#DejaVuSans-105"/>
      <use transform="translate(468.066406 0.015625)" xlink:href="#DejaVuSans-118"/>
      <use transform="translate(527.246094 0.015625)" xlink:href="#DejaVuSans-101"/>
      <use transform="translate(588.769531 0.015625)" xlink:href="#DejaVuSans-114"/>
      <use transform="translate(629.882812 0.015625)" xlink:href="#DejaVuSans-103"/>
      <use transform="translate(693.359375 0.015625)" xlink:href="#DejaVuSans-101"/>
      <use transform="translate(754.882812 0.015625)" xlink:href="#DejaVuSans-110"/>
      <use transform="translate(818.261719 0.015625)" xlink:href="#DejaVuSans-99"/>
      <use transform="translate(873.242188 0.015625)" xlink:href="#DejaVuSans-101"/>
      <use transform="translate(934.765625 0.015625)" xlink:href="#DejaVuSans-32"/>
      <use transform="translate(966.552734 0.015625)" xlink:href="#DejaVuSans-119"/>
      <use transform="translate(1048.339844 0.015625)" xlink:href="#DejaVuSans-105"/>
      <use transform="translate(1076.123047 0.015625)" xlink:href="#DejaVuSans-116"/>
      <use transform="translate(1115.332031 0.015625)" xlink:href="#DejaVuSans-104"/>
      <use transform="translate(1178.710938 0.015625)" xlink:href="#DejaVuSans-105"/>
      <use transform="translate(1206.494141 0.015625)" xlink:href="#DejaVuSans-110"/>
      <use transform="translate(1269.873047 0.015625)" xlink:href="#DejaVuSans-32"/>
      <use transform="translate(1301.660156 0.015625)" xlink:href="#DejaVuSans-Oblique-949"/>
     </g>
    </g>
   </g>
   <g id="matplotlib.axis_2">
    <g id="ytick_1">
     <g id="line2d_5">
      <defs>
       <path d="M 0 0 
L -3.5 0 
" id="m4eeb8ebc9d" style="stroke:#000000;stroke-width:1.6;"/>
      </defs>
      <g>
       <use style="stroke:#000000;stroke-width:1.6;" x="72.45" xlink:href="#m4eeb8ebc9d" y="263.435847"/>
      </g>
     </g>
     <g id="text_6">
      <!-- 0.000 -->
      <g transform="translate(0.49375 271.034284)scale(0.2 -0.2)">
       <use xlink:href="#DejaVuSans-48"/>
       <use x="63.623047" xlink:href="#DejaVuSans-46"/>
       <use x="95.410156" xlink:href="#DejaVuSans-48"/>
       <use x="159.033203" xlink:href="#DejaVuSans-48"/>
       <use x="222.65625" xlink:href="#DejaVuSans-48"/>
      </g>
     </g>
    </g>
    <g id="ytick_2">
     <g id="line2d_6">
      <g>
       <use style="stroke:#000000;stroke-width:1.6;" x="72.45" xlink:href="#m4eeb8ebc9d" y="212.248677"/>
      </g>
     </g>
     <g id="text_7">
      <!-- 0.025 -->
      <defs>
       <path d="M 10.796875 72.90625 
L 49.515625 72.90625 
L 49.515625 64.59375 
L 19.828125 64.59375 
L 19.828125 46.734375 
Q 21.96875 47.46875 24.109375 47.828125 
Q 26.265625 48.1875 28.421875 48.1875 
Q 40.625 48.1875 47.75 41.5 
Q 54.890625 34.8125 54.890625 23.390625 
Q 54.890625 11.625 47.5625 5.09375 
Q 40.234375 -1.421875 26.90625 -1.421875 
Q 22.3125 -1.421875 17.546875 -0.640625 
Q 12.796875 0.140625 7.71875 1.703125 
L 7.71875 11.625 
Q 12.109375 9.234375 16.796875 8.0625 
Q 21.484375 6.890625 26.703125 6.890625 
Q 35.15625 6.890625 40.078125 11.328125 
Q 45.015625 15.765625 45.015625 23.390625 
Q 45.015625 31 40.078125 35.4375 
Q 35.15625 39.890625 26.703125 39.890625 
Q 22.75 39.890625 18.8125 39.015625 
Q 14.890625 38.140625 10.796875 36.28125 
z
" id="DejaVuSans-53"/>
      </defs>
      <g transform="translate(0.49375 219.847115)scale(0.2 -0.2)">
       <use xlink:href="#DejaVuSans-48"/>
       <use x="63.623047" xlink:href="#DejaVuSans-46"/>
       <use x="95.410156" xlink:href="#DejaVuSans-48"/>
       <use x="159.033203" xlink:href="#DejaVuSans-50"/>
       <use x="222.65625" xlink:href="#DejaVuSans-53"/>
      </g>
     </g>
    </g>
    <g id="ytick_3">
     <g id="line2d_7">
      <g>
       <use style="stroke:#000000;stroke-width:1.6;" x="72.45" xlink:href="#m4eeb8ebc9d" y="161.061508"/>
      </g>
     </g>
     <g id="text_8">
      <!-- 0.050 -->
      <g transform="translate(0.49375 168.659945)scale(0.2 -0.2)">
       <use xlink:href="#DejaVuSans-48"/>
       <use x="63.623047" xlink:href="#DejaVuSans-46"/>
       <use x="95.410156" xlink:href="#DejaVuSans-48"/>
       <use x="159.033203" xlink:href="#DejaVuSans-53"/>
       <use x="222.65625" xlink:href="#DejaVuSans-48"/>
      </g>
     </g>
    </g>
    <g id="ytick_4">
     <g id="line2d_8">
      <g>
       <use style="stroke:#000000;stroke-width:1.6;" x="72.45" xlink:href="#m4eeb8ebc9d" y="109.874339"/>
      </g>
     </g>
     <g id="text_9">
      <!-- 0.075 -->
      <defs>
       <path d="M 8.203125 72.90625 
L 55.078125 72.90625 
L 55.078125 68.703125 
L 28.609375 0 
L 18.3125 0 
L 43.21875 64.59375 
L 8.203125 64.59375 
z
" id="DejaVuSans-55"/>
      </defs>
      <g transform="translate(0.49375 117.472776)scale(0.2 -0.2)">
       <use xlink:href="#DejaVuSans-48"/>
       <use x="63.623047" xlink:href="#DejaVuSans-46"/>
       <use x="95.410156" xlink:href="#DejaVuSans-48"/>
       <use x="159.033203" xlink:href="#DejaVuSans-55"/>
       <use x="222.65625" xlink:href="#DejaVuSans-53"/>
      </g>
     </g>
    </g>
    <g id="ytick_5">
     <g id="line2d_9">
      <g>
       <use style="stroke:#000000;stroke-width:1.6;" x="72.45" xlink:href="#m4eeb8ebc9d" y="58.687169"/>
      </g>
     </g>
     <g id="text_10">
      <!-- 0.100 -->
      <defs>
       <path d="M 12.40625 8.296875 
L 28.515625 8.296875 
L 28.515625 63.921875 
L 10.984375 60.40625 
L 10.984375 69.390625 
L 28.421875 72.90625 
L 38.28125 72.90625 
L 38.28125 8.296875 
L 54.390625 8.296875 
L 54.390625 0 
L 12.40625 0 
z
" id="DejaVuSans-49"/>
      </defs>
      <g transform="translate(0.49375 66.285607)scale(0.2 -0.2)">
       <use xlink:href="#DejaVuSans-48"/>
       <use x="63.623047" xlink:href="#DejaVuSans-46"/>
       <use x="95.410156" xlink:href="#DejaVuSans-49"/>
       <use x="159.033203" xlink:href="#DejaVuSans-48"/>
       <use x="222.65625" xlink:href="#DejaVuSans-48"/>
      </g>
     </g>
    </g>
    <g id="ytick_6">
     <g id="line2d_10">
      <g>
       <use style="stroke:#000000;stroke-width:1.6;" x="72.45" xlink:href="#m4eeb8ebc9d" y="7.5"/>
      </g>
     </g>
     <g id="text_11">
      <!-- 0.125 -->
      <g transform="translate(0.49375 15.098437)scale(0.2 -0.2)">
       <use xlink:href="#DejaVuSans-48"/>
       <use x="63.623047" xlink:href="#DejaVuSans-46"/>
       <use x="95.410156" xlink:href="#DejaVuSans-49"/>
       <use x="159.033203" xlink:href="#DejaVuSans-50"/>
       <use x="222.65625" xlink:href="#DejaVuSans-53"/>
      </g>
     </g>
    </g>
   </g>
   <g id="patch_43">
    <path d="M 72.45 263.435847 
L 72.45 5.452513 
" style="fill:none;stroke:#000000;stroke-linecap:square;stroke-linejoin:miter;stroke-width:0.8;"/>
   </g>
   <g id="patch_44">
    <path d="M 72.45 263.435847 
L 330.433333 263.435847 
" style="fill:none;stroke:#000000;stroke-linecap:square;stroke-linejoin:miter;stroke-width:0.8;"/>
   </g>
  </g>
  <g id="axes_2">
   <g id="patch_45">
    <path d="M 438.233333 263.435847 
L 696.216667 263.435847 
L 696.216667 5.452513 
L 438.233333 5.452513 
z
" style="fill:#ffffff;"/>
   </g>
   <g id="PolyCollection_1">
    <defs>
     <path d="M 506.718819 -286.273611 
L 506.718819 -286.597222 
L 508.354014 -286.610445 
L 509.989209 -286.612538 
L 511.624404 -286.603414 
L 513.2596 -286.58538 
L 514.894795 -286.562767 
L 516.52999 -286.541103 
L 518.165186 -286.526071 
L 519.800381 -286.522501 
L 521.435576 -286.533551 
L 523.070772 -286.560139 
L 524.705967 -286.600661 
L 526.341162 -286.651082 
L 527.976358 -286.705549 
L 529.611553 -286.757588 
L 531.246748 -286.801752 
L 532.881944 -286.83523 
L 534.517139 -286.858789 
L 536.152334 -286.876499 
L 537.78753 -286.894164 
L 539.422725 -286.916951 
L 541.05792 -286.947222 
L 542.693116 -286.983557 
L 544.328311 -287.021561 
L 545.963506 -287.056184 
L 547.598701 -287.084621 
L 549.233897 -287.108533 
L 550.869092 -287.134659 
L 552.504287 -287.173593 
L 554.139483 -287.237176 
L 555.774678 -287.335431 
L 557.409873 -287.473985 
L 559.045069 -287.652755 
L 560.680264 -287.866293 
L 562.315459 -288.105703 
L 563.950655 -288.361531 
L 565.58585 -288.626595 
L 567.221045 -288.897704 
L 568.856241 -289.1755 
L 570.491436 -289.462404 
L 572.126631 -289.759394 
L 573.761827 -290.063058 
L 575.397022 -290.364718 
L 577.032217 -290.652949 
L 578.667413 -290.919361 
L 580.302608 -291.165394 
L 581.937803 -291.406679 
L 583.572998 -291.672454 
L 585.208194 -292.000475 
L 586.843389 -292.430422 
L 588.478584 -292.998631 
L 590.11378 -293.734131 
L 591.748975 -294.653365 
L 593.38417 -295.752094 
L 595.019366 -296.997587 
L 596.654561 -298.328324 
L 598.289756 -299.667092 
L 599.924952 -300.945667 
L 601.560147 -302.129971 
L 603.195342 -303.231027 
L 604.830538 -304.293283 
L 606.465733 -305.364856 
L 608.100928 -306.465543 
L 609.736124 -307.570111 
L 611.371319 -308.615401 
L 613.006514 -309.526551 
L 614.64171 -310.248468 
L 616.276905 -310.767981 
L 617.9121 -311.118065 
L 619.547295 -311.36348 
L 621.182491 -311.573754 
L 622.817686 -311.793282 
L 624.452881 -312.019472 
L 626.088077 -312.197419 
L 627.723272 -312.23375 
L 629.358467 -312.024684 
L 630.993663 -311.487487 
L 632.628858 -310.583554 
L 634.264053 -309.325762 
L 635.899249 -307.770036 
L 637.534444 -305.997484 
L 639.169639 -304.095892 
L 640.804835 -302.147281 
L 642.44003 -300.223394 
L 644.075225 -298.386315 
L 645.710421 -296.689307 
L 647.345616 -295.174308 
L 648.980811 -293.866166 
L 650.616007 -292.767218 
L 652.251202 -291.856816 
L 653.886397 -291.097976 
L 655.521592 -290.449026 
L 657.156788 -289.875054 
L 658.791983 -289.35427 
L 660.427178 -288.877758 
L 662.062374 -288.444806 
L 663.697569 -288.057538 
L 665.332764 -287.717481 
L 666.96796 -287.424535 
L 668.603155 -287.177334 
L 668.603155 -285.6935 
L 668.603155 -285.6935 
L 666.96796 -285.446298 
L 665.332764 -285.153353 
L 663.697569 -284.813295 
L 662.062374 -284.426027 
L 660.427178 -283.993076 
L 658.791983 -283.516564 
L 657.156788 -282.995779 
L 655.521592 -282.421807 
L 653.886397 -281.772857 
L 652.251202 -281.014017 
L 650.616007 -280.103616 
L 648.980811 -279.004668 
L 647.345616 -277.696526 
L 645.710421 -276.181526 
L 644.075225 -274.484518 
L 642.44003 -272.647439 
L 640.804835 -270.723553 
L 639.169639 -268.774941 
L 637.534444 -266.87335 
L 635.899249 -265.100798 
L 634.264053 -263.545071 
L 632.628858 -262.287279 
L 630.993663 -261.383346 
L 629.358467 -260.846149 
L 627.723272 -260.637083 
L 626.088077 -260.673415 
L 624.452881 -260.851361 
L 622.817686 -261.077552 
L 621.182491 -261.29708 
L 619.547295 -261.507353 
L 617.9121 -261.752769 
L 616.276905 -262.102852 
L 614.64171 -262.622366 
L 613.006514 -263.344282 
L 611.371319 -264.255432 
L 609.736124 -265.300722 
L 608.100928 -266.40529 
L 606.465733 -267.505978 
L 604.830538 -268.57755 
L 603.195342 -269.639807 
L 601.560147 -270.740863 
L 599.924952 -271.925166 
L 598.289756 -273.203741 
L 596.654561 -274.54251 
L 595.019366 -275.873246 
L 593.38417 -277.118739 
L 591.748975 -278.217469 
L 590.11378 -279.136703 
L 588.478584 -279.872202 
L 586.843389 -280.440411 
L 585.208194 -280.870358 
L 583.572998 -281.19838 
L 581.937803 -281.464155 
L 580.302608 -281.705439 
L 578.667413 -281.951473 
L 577.032217 -282.217884 
L 575.397022 -282.506116 
L 573.761827 -282.807775 
L 572.126631 -283.11144 
L 570.491436 -283.408429 
L 568.856241 -283.695333 
L 567.221045 -283.97313 
L 565.58585 -284.244238 
L 563.950655 -284.509303 
L 562.315459 -284.76513 
L 560.680264 -285.004541 
L 559.045069 -285.218079 
L 557.409873 -285.396849 
L 555.774678 -285.535402 
L 554.139483 -285.633657 
L 552.504287 -285.69724 
L 550.869092 -285.736174 
L 549.233897 -285.762301 
L 547.598701 -285.786212 
L 545.963506 -285.814649 
L 544.328311 -285.849273 
L 542.693116 -285.887276 
L 541.05792 -285.923612 
L 539.422725 -285.953882 
L 537.78753 -285.97667 
L 536.152334 -285.994334 
L 534.517139 -286.012044 
L 532.881944 -286.035603 
L 531.246748 -286.069081 
L 529.611553 -286.113245 
L 527.976358 -286.165284 
L 526.341162 -286.219751 
L 524.705967 -286.270173 
L 523.070772 -286.310695 
L 521.435576 -286.337282 
L 519.800381 -286.348332 
L 518.165186 -286.344763 
L 516.52999 -286.32973 
L 514.894795 -286.308066 
L 513.2596 -286.285454 
L 511.624404 -286.26742 
L 509.989209 -286.258295 
L 508.354014 -286.260388 
L 506.718819 -286.273611 
z
" id="mb8a198992e" style="stroke:#575757;"/>
    </defs>
    <g clip-path="url(#p5ebadfb887)">
     <use style="fill:#7c78ab;stroke:#575757;" x="0" xlink:href="#mb8a198992e" y="324.135847"/>
    </g>
   </g>
   <g id="PolyCollection_2">
    <defs>
     <path d="M 512.1371 -213.599037 
L 512.1371 -230.280129 
L 513.628958 -230.905106 
L 515.120816 -231.549363 
L 516.612674 -232.210856 
L 518.104533 -232.887338 
L 519.596391 -233.576382 
L 521.088249 -234.275408 
L 522.580107 -234.981709 
L 524.071965 -235.692483 
L 525.563824 -236.404866 
L 527.055682 -237.115963 
L 528.54754 -237.82288 
L 530.039398 -238.522756 
L 531.531256 -239.21279 
L 533.023115 -239.89027 
L 534.514973 -240.552587 
L 536.006831 -241.197262 
L 537.498689 -241.821951 
L 538.990547 -242.424456 
L 540.482406 -243.002728 
L 541.974264 -243.554863 
L 543.466122 -244.079098 
L 544.95798 -244.573799 
L 546.449838 -245.037454 
L 547.941697 -245.468653 
L 549.433555 -245.866076 
L 550.925413 -246.228481 
L 552.417271 -246.554691 
L 553.909129 -246.843582 
L 555.400988 -247.094081 
L 556.892846 -247.305163 
L 558.384704 -247.475858 
L 559.876562 -247.605256 
L 561.36842 -247.692529 
L 562.860279 -247.73695 
L 564.352137 -247.737917 
L 565.843995 -247.694991 
L 567.335853 -247.607927 
L 568.827711 -247.476717 
L 570.31957 -247.301626 
L 571.811428 -247.083233 
L 573.303286 -246.822473 
L 574.795144 -246.52067 
L 576.287002 -246.179569 
L 577.778861 -245.801363 
L 579.270719 -245.388709 
L 580.762577 -244.944736 
L 582.254435 -244.473049 
L 583.746294 -243.977714 
L 585.238152 -243.463236 
L 586.73001 -242.934528 
L 588.221868 -242.396864 
L 589.713726 -241.855823 
L 591.205585 -241.317219 
L 592.697443 -240.78703 
L 594.189301 -240.271309 
L 595.681159 -239.776091 
L 597.173017 -239.307293 
L 598.664876 -238.870614 
L 600.156734 -238.471431 
L 601.648592 -238.114689 
L 603.14045 -237.804806 
L 604.632308 -237.545569 
L 606.124167 -237.340047 
L 607.616025 -237.190509 
L 609.107883 -237.098354 
L 610.599741 -237.064054 
L 612.091599 -237.087114 
L 613.583458 -237.166047 
L 615.075316 -237.298369 
L 616.567174 -237.480616 
L 618.059032 -237.708373 
L 619.55089 -237.976331 
L 621.042749 -238.278362 
L 622.534607 -238.607608 
L 624.026465 -238.956596 
L 625.518323 -239.317357 
L 627.010181 -239.681574 
L 628.50204 -240.040722 
L 629.993898 -240.38623 
L 631.485756 -240.709639 
L 632.977614 -241.002762 
L 634.469472 -241.25784 
L 635.961331 -241.467689 
L 637.453189 -241.625841 
L 638.945047 -241.726658 
L 640.436905 -241.765445 
L 641.928763 -241.738527 
L 643.420622 -241.643313 
L 644.91248 -241.478331 
L 646.404338 -241.243242 
L 647.896196 -240.938827 
L 649.388055 -240.56695 
L 650.879913 -240.130497 
L 652.371771 -239.633297 
L 653.863629 -239.080025 
L 655.355487 -238.476084 
L 656.847346 -237.827483 
L 658.339204 -237.140699 
L 659.831062 -236.422544 
L 659.831062 -207.456623 
L 659.831062 -207.456623 
L 658.339204 -206.738467 
L 656.847346 -206.051684 
L 655.355487 -205.403083 
L 653.863629 -204.799142 
L 652.371771 -204.24587 
L 650.879913 -203.74867 
L 649.388055 -203.312217 
L 647.896196 -202.940339 
L 646.404338 -202.635924 
L 644.91248 -202.400836 
L 643.420622 -202.235854 
L 641.928763 -202.140639 
L 640.436905 -202.113721 
L 638.945047 -202.152508 
L 637.453189 -202.253326 
L 635.961331 -202.411477 
L 634.469472 -202.621327 
L 632.977614 -202.876405 
L 631.485756 -203.169528 
L 629.993898 -203.492937 
L 628.50204 -203.838445 
L 627.010181 -204.197593 
L 625.518323 -204.561809 
L 624.026465 -204.922571 
L 622.534607 -205.271558 
L 621.042749 -205.600805 
L 619.55089 -205.902835 
L 618.059032 -206.170794 
L 616.567174 -206.39855 
L 615.075316 -206.580797 
L 613.583458 -206.71312 
L 612.091599 -206.792053 
L 610.599741 -206.815112 
L 609.107883 -206.780812 
L 607.616025 -206.688658 
L 606.124167 -206.53912 
L 604.632308 -206.333598 
L 603.14045 -206.074361 
L 601.648592 -205.764478 
L 600.156734 -205.407736 
L 598.664876 -205.008553 
L 597.173017 -204.571874 
L 595.681159 -204.103076 
L 594.189301 -203.607857 
L 592.697443 -203.092136 
L 591.205585 -202.561948 
L 589.713726 -202.023344 
L 588.221868 -201.482302 
L 586.73001 -200.944638 
L 585.238152 -200.415931 
L 583.746294 -199.901453 
L 582.254435 -199.406118 
L 580.762577 -198.934431 
L 579.270719 -198.490458 
L 577.778861 -198.077803 
L 576.287002 -197.699598 
L 574.795144 -197.358497 
L 573.303286 -197.056694 
L 571.811428 -196.795934 
L 570.31957 -196.577541 
L 568.827711 -196.402449 
L 567.335853 -196.271239 
L 565.843995 -196.184176 
L 564.352137 -196.14125 
L 562.860279 -196.142217 
L 561.36842 -196.186637 
L 559.876562 -196.273911 
L 558.384704 -196.403309 
L 556.892846 -196.574003 
L 555.400988 -196.785086 
L 553.909129 -197.035585 
L 552.417271 -197.324476 
L 550.925413 -197.650685 
L 549.433555 -198.013091 
L 547.941697 -198.410514 
L 546.449838 -198.841713 
L 544.95798 -199.305367 
L 543.466122 -199.800069 
L 541.974264 -200.324304 
L 540.482406 -200.876439 
L 538.990547 -201.45471 
L 537.498689 -202.057216 
L 536.006831 -202.681905 
L 534.514973 -203.32658 
L 533.023115 -203.988897 
L 531.531256 -204.666376 
L 530.039398 -205.356411 
L 528.54754 -206.056287 
L 527.055682 -206.763204 
L 525.563824 -207.474301 
L 524.071965 -208.186684 
L 522.580107 -208.897458 
L 521.088249 -209.603759 
L 519.596391 -210.302785 
L 518.104533 -210.991829 
L 516.612674 -211.668311 
L 515.120816 -212.329804 
L 513.628958 -212.974061 
L 512.1371 -213.599037 
z
" id="m367daf73a9" style="stroke:#575757;"/>
    </defs>
    <g clip-path="url(#p5ebadfb887)">
     <use style="fill:#7c78ab;stroke:#575757;" x="0" xlink:href="#m367daf73a9" y="324.135847"/>
    </g>
   </g>
   <g id="PolyCollection_3">
    <defs>
     <path d="M 473.214595 -146.532326 
L 473.214595 -168.355174 
L 474.864634 -168.964074 
L 476.514672 -169.589967 
L 478.164711 -170.231545 
L 479.814749 -170.887259 
L 481.464788 -171.555309 
L 483.114827 -172.233638 
L 484.764865 -172.919932 
L 486.414904 -173.611622 
L 488.064943 -174.30589 
L 489.714981 -174.999682 
L 491.36502 -175.68972 
L 493.015058 -176.372526 
L 494.665097 -177.044448 
L 496.315136 -177.701684 
L 497.965174 -178.340325 
L 499.615213 -178.956384 
L 501.265251 -179.545844 
L 502.91529 -180.104701 
L 504.565329 -180.62901 
L 506.215367 -181.114933 
L 507.865406 -181.558787 
L 509.515445 -181.957098 
L 511.165483 -182.306642 
L 512.815522 -182.604494 
L 514.46556 -182.848074 
L 516.115599 -183.03518 
L 517.765638 -183.164029 
L 519.415676 -183.233285 
L 521.065715 -183.242083 
L 522.715753 -183.190048 
L 524.365792 -183.077304 
L 526.015831 -182.904485 
L 527.665869 -182.672726 
L 529.315908 -182.383658 
L 530.965947 -182.039392 
L 532.615985 -181.642492 
L 534.266024 -181.195953 
L 535.916062 -180.703161 
L 537.566101 -180.167859 
L 539.21614 -179.594096 
L 540.866178 -178.986187 
L 542.516217 -178.348657 
L 544.166255 -177.686195 
L 545.816294 -177.003593 
L 547.466333 -176.305698 
L 549.116371 -175.597359 
L 550.76641 -174.883371 
L 552.416449 -174.168431 
L 554.066487 -173.457086 
L 555.716526 -172.753693 
L 557.366564 -172.062379 
L 559.016603 -171.387003 
L 560.666642 -170.731126 
L 562.31668 -170.09799 
L 563.966719 -169.490489 
L 565.616757 -168.911157 
L 567.266796 -168.362158 
L 568.916835 -167.845278 
L 570.566873 -167.361924 
L 572.216912 -166.913126 
L 573.866951 -166.499545 
L 575.516989 -166.121485 
L 577.167028 -165.778904 
L 578.817066 -165.471436 
L 580.467105 -165.198407 
L 582.117144 -164.95886 
L 583.767182 -164.751576 
L 585.417221 -164.575104 
L 587.067259 -164.427784 
L 588.717298 -164.307777 
L 590.367337 -164.213089 
L 592.017375 -164.141602 
L 593.667414 -164.091102 
L 595.317453 -164.0593 
L 596.967491 -164.043865 
L 598.61753 -164.042444 
L 600.267568 -164.05269 
L 601.917607 -164.072278 
L 603.567646 -164.098933 
L 605.217684 -164.130444 
L 606.867723 -164.164686 
L 608.517761 -164.199632 
L 610.1678 -164.233369 
L 611.817839 -164.26411 
L 613.467877 -164.290206 
L 615.117916 -164.310152 
L 616.767955 -164.322597 
L 618.417993 -164.326347 
L 620.068032 -164.32037 
L 621.71807 -164.303796 
L 623.368109 -164.27592 
L 625.018148 -164.236199 
L 626.668186 -164.184249 
L 628.318225 -164.119842 
L 629.968263 -164.042901 
L 631.618302 -163.953492 
L 633.268341 -163.851817 
L 634.918379 -163.738205 
L 636.568418 -163.613105 
L 636.568418 -151.274395 
L 636.568418 -151.274395 
L 634.918379 -151.149295 
L 633.268341 -151.035683 
L 631.618302 -150.934008 
L 629.968263 -150.844599 
L 628.318225 -150.767658 
L 626.668186 -150.703251 
L 625.018148 -150.651301 
L 623.368109 -150.61158 
L 621.71807 -150.583704 
L 620.068032 -150.56713 
L 618.417993 -150.561153 
L 616.767955 -150.564903 
L 615.117916 -150.577348 
L 613.467877 -150.597294 
L 611.817839 -150.62339 
L 610.1678 -150.654131 
L 608.517761 -150.687868 
L 606.867723 -150.722814 
L 605.217684 -150.757056 
L 603.567646 -150.788567 
L 601.917607 -150.815222 
L 600.267568 -150.83481 
L 598.61753 -150.845056 
L 596.967491 -150.843635 
L 595.317453 -150.8282 
L 593.667414 -150.796398 
L 592.017375 -150.745898 
L 590.367337 -150.674411 
L 588.717298 -150.579723 
L 587.067259 -150.459716 
L 585.417221 -150.312396 
L 583.767182 -150.135924 
L 582.117144 -149.92864 
L 580.467105 -149.689093 
L 578.817066 -149.416064 
L 577.167028 -149.108596 
L 575.516989 -148.766015 
L 573.866951 -148.387955 
L 572.216912 -147.974374 
L 570.566873 -147.525576 
L 568.916835 -147.042222 
L 567.266796 -146.525342 
L 565.616757 -145.976343 
L 563.966719 -145.397011 
L 562.31668 -144.78951 
L 560.666642 -144.156374 
L 559.016603 -143.500497 
L 557.366564 -142.825121 
L 555.716526 -142.133807 
L 554.066487 -141.430414 
L 552.416449 -140.719069 
L 550.76641 -140.004129 
L 549.116371 -139.290141 
L 547.466333 -138.581802 
L 545.816294 -137.883907 
L 544.166255 -137.201305 
L 542.516217 -136.538843 
L 540.866178 -135.901313 
L 539.21614 -135.293404 
L 537.566101 -134.719641 
L 535.916062 -134.184339 
L 534.266024 -133.691547 
L 532.615985 -133.245008 
L 530.965947 -132.848108 
L 529.315908 -132.503842 
L 527.665869 -132.214774 
L 526.015831 -131.983015 
L 524.365792 -131.810196 
L 522.715753 -131.697452 
L 521.065715 -131.645417 
L 519.415676 -131.654215 
L 517.765638 -131.723471 
L 516.115599 -131.85232 
L 514.46556 -132.039426 
L 512.815522 -132.283006 
L 511.165483 -132.580858 
L 509.515445 -132.930402 
L 507.865406 -133.328713 
L 506.215367 -133.772567 
L 504.565329 -134.25849 
L 502.91529 -134.782799 
L 501.265251 -135.341656 
L 499.615213 -135.931116 
L 497.965174 -136.547175 
L 496.315136 -137.185816 
L 494.665097 -137.843052 
L 493.015058 -138.514974 
L 491.36502 -139.19778 
L 489.714981 -139.887818 
L 488.064943 -140.58161 
L 486.414904 -141.275878 
L 484.764865 -141.967568 
L 483.114827 -142.653862 
L 481.464788 -143.332191 
L 479.814749 -144.000241 
L 478.164711 -144.655955 
L 476.514672 -145.297533 
L 474.864634 -145.923426 
L 473.214595 -146.532326 
z
" id="ma38aff6564" style="stroke:#575757;"/>
    </defs>
    <g clip-path="url(#p5ebadfb887)">
     <use style="fill:#7c78ab;stroke:#575757;" x="0" xlink:href="#ma38aff6564" y="324.135847"/>
    </g>
   </g>
   <g id="patch_46">
    <path clip-path="url(#p5ebadfb887)" d="M 455.432222 37.70043 
L 455.432222 37.70043 
L 455.432222 37.70043 
L 455.432222 37.70043 
z
" style="fill:#7c78ab;stroke:#575757;stroke-linejoin:miter;stroke-width:0.5;"/>
   </g>
   <g id="matplotlib.axis_3">
    <g id="xtick_5">
     <g id="line2d_11">
      <g>
       <use style="stroke:#000000;stroke-width:1.6;" x="455.432222" xlink:href="#md0272e0dd3" y="263.435847"/>
      </g>
     </g>
     <g id="text_12">
      <!-- 0.0 -->
      <g transform="translate(439.529097 293.332722)scale(0.2 -0.2)">
       <use xlink:href="#DejaVuSans-48"/>
       <use x="63.623047" xlink:href="#DejaVuSans-46"/>
       <use x="95.410156" xlink:href="#DejaVuSans-48"/>
      </g>
     </g>
    </g>
    <g id="xtick_6">
     <g id="line2d_12">
      <g>
       <use style="stroke:#000000;stroke-width:1.6;" x="524.227778" xlink:href="#md0272e0dd3" y="263.435847"/>
      </g>
     </g>
     <g id="text_13">
      <!-- 0.2 -->
      <g transform="translate(508.324653 293.332722)scale(0.2 -0.2)">
       <use xlink:href="#DejaVuSans-48"/>
       <use x="63.623047" xlink:href="#DejaVuSans-46"/>
       <use x="95.410156" xlink:href="#DejaVuSans-50"/>
      </g>
     </g>
    </g>
    <g id="xtick_7">
     <g id="line2d_13">
      <g>
       <use style="stroke:#000000;stroke-width:1.6;" x="593.023333" xlink:href="#md0272e0dd3" y="263.435847"/>
      </g>
     </g>
     <g id="text_14">
      <!-- 0.4 -->
      <g transform="translate(577.120208 293.332722)scale(0.2 -0.2)">
       <use xlink:href="#DejaVuSans-48"/>
       <use x="63.623047" xlink:href="#DejaVuSans-46"/>
       <use x="95.410156" xlink:href="#DejaVuSans-52"/>
      </g>
     </g>
    </g>
    <g id="xtick_8">
     <g id="line2d_14">
      <g>
       <use style="stroke:#000000;stroke-width:1.6;" x="661.818889" xlink:href="#md0272e0dd3" y="263.435847"/>
      </g>
     </g>
     <g id="text_15">
      <!-- 0.6 -->
      <g transform="translate(645.915764 293.332722)scale(0.2 -0.2)">
       <use xlink:href="#DejaVuSans-48"/>
       <use x="63.623047" xlink:href="#DejaVuSans-46"/>
       <use x="95.410156" xlink:href="#DejaVuSans-54"/>
      </g>
     </g>
    </g>
    <g id="text_16">
     <!-- Max Attention -->
     <defs>
      <path d="M 34.1875 63.1875 
L 20.796875 26.90625 
L 47.609375 26.90625 
z
M 28.609375 72.90625 
L 39.796875 72.90625 
L 67.578125 0 
L 57.328125 0 
L 50.6875 18.703125 
L 17.828125 18.703125 
L 11.1875 0 
L 0.78125 0 
z
" id="DejaVuSans-65"/>
      <path d="M 30.609375 48.390625 
Q 23.390625 48.390625 19.1875 42.75 
Q 14.984375 37.109375 14.984375 27.296875 
Q 14.984375 17.484375 19.15625 11.84375 
Q 23.34375 6.203125 30.609375 6.203125 
Q 37.796875 6.203125 41.984375 11.859375 
Q 46.1875 17.53125 46.1875 27.296875 
Q 46.1875 37.015625 41.984375 42.703125 
Q 37.796875 48.390625 30.609375 48.390625 
z
M 30.609375 56 
Q 42.328125 56 49.015625 48.375 
Q 55.71875 40.765625 55.71875 27.296875 
Q 55.71875 13.875 49.015625 6.21875 
Q 42.328125 -1.421875 30.609375 -1.421875 
Q 18.84375 -1.421875 12.171875 6.21875 
Q 5.515625 13.875 5.515625 27.296875 
Q 5.515625 40.765625 12.171875 48.375 
Q 18.84375 56 30.609375 56 
z
" id="DejaVuSans-111"/>
     </defs>
     <g transform="translate(497.046875 316.688972)scale(0.2 -0.2)">
      <use xlink:href="#DejaVuSans-77"/>
      <use x="86.279297" xlink:href="#DejaVuSans-97"/>
      <use x="147.558594" xlink:href="#DejaVuSans-120"/>
      <use x="206.738281" xlink:href="#DejaVuSans-32"/>
      <use x="238.525391" xlink:href="#DejaVuSans-65"/>
      <use x="306.917969" xlink:href="#DejaVuSans-116"/>
      <use x="346.126953" xlink:href="#DejaVuSans-116"/>
      <use x="385.335938" xlink:href="#DejaVuSans-101"/>
      <use x="446.859375" xlink:href="#DejaVuSans-110"/>
      <use x="510.238281" xlink:href="#DejaVuSans-116"/>
      <use x="549.447266" xlink:href="#DejaVuSans-105"/>
      <use x="577.230469" xlink:href="#DejaVuSans-111"/>
      <use x="638.412109" xlink:href="#DejaVuSans-110"/>
     </g>
    </g>
   </g>
   <g id="matplotlib.axis_4">
    <g id="ytick_7">
     <g id="line2d_15">
      <g>
       <use style="stroke:#000000;stroke-width:1.6;" x="438.233333" xlink:href="#m4eeb8ebc9d" y="37.70043"/>
      </g>
     </g>
     <g id="text_17">
      <!-- [0.00, -->
      <defs>
       <path d="M 8.59375 75.984375 
L 29.296875 75.984375 
L 29.296875 69 
L 17.578125 69 
L 17.578125 -6.203125 
L 29.296875 -6.203125 
L 29.296875 -13.1875 
L 8.59375 -13.1875 
z
" id="DejaVuSans-91"/>
       <path d="M 11.71875 12.40625 
L 22.015625 12.40625 
L 22.015625 4 
L 14.015625 -11.625 
L 7.71875 -11.625 
L 11.71875 4 
z
" id="DejaVuSans-44"/>
      </defs>
      <g transform="translate(364.842708 34.101055)scale(0.2 -0.2)">
       <use xlink:href="#DejaVuSans-91"/>
       <use x="39.013672" xlink:href="#DejaVuSans-48"/>
       <use x="102.636719" xlink:href="#DejaVuSans-46"/>
       <use x="134.423828" xlink:href="#DejaVuSans-48"/>
       <use x="198.046875" xlink:href="#DejaVuSans-48"/>
       <use x="261.669922" xlink:href="#DejaVuSans-44"/>
      </g>
      <!-- 0.25) -->
      <defs>
       <path d="M 8.015625 75.875 
L 15.828125 75.875 
Q 23.140625 64.359375 26.78125 53.3125 
Q 30.421875 42.28125 30.421875 31.390625 
Q 30.421875 20.453125 26.78125 9.375 
Q 23.140625 -1.703125 15.828125 -13.1875 
L 8.015625 -13.1875 
Q 14.5 -2 17.703125 9.0625 
Q 20.90625 20.125 20.90625 31.390625 
Q 20.90625 42.671875 17.703125 53.65625 
Q 14.5 64.65625 8.015625 75.875 
z
" id="DejaVuSans-41"/>
      </defs>
      <g transform="translate(371.198958 56.49668)scale(0.2 -0.2)">
       <use xlink:href="#DejaVuSans-48"/>
       <use x="63.623047" xlink:href="#DejaVuSans-46"/>
       <use x="95.410156" xlink:href="#DejaVuSans-50"/>
       <use x="159.033203" xlink:href="#DejaVuSans-53"/>
       <use x="222.65625" xlink:href="#DejaVuSans-41"/>
      </g>
     </g>
    </g>
    <g id="ytick_8">
     <g id="line2d_16">
      <g>
       <use style="stroke:#000000;stroke-width:1.6;" x="438.233333" xlink:href="#m4eeb8ebc9d" y="102.196263"/>
      </g>
     </g>
     <g id="text_18">
      <!-- [0.25, -->
      <g transform="translate(364.842708 98.596888)scale(0.2 -0.2)">
       <use xlink:href="#DejaVuSans-91"/>
       <use x="39.013672" xlink:href="#DejaVuSans-48"/>
       <use x="102.636719" xlink:href="#DejaVuSans-46"/>
       <use x="134.423828" xlink:href="#DejaVuSans-50"/>
       <use x="198.046875" xlink:href="#DejaVuSans-53"/>
       <use x="261.669922" xlink:href="#DejaVuSans-44"/>
      </g>
      <!-- 0.50) -->
      <g transform="translate(371.198958 120.992513)scale(0.2 -0.2)">
       <use xlink:href="#DejaVuSans-48"/>
       <use x="63.623047" xlink:href="#DejaVuSans-46"/>
       <use x="95.410156" xlink:href="#DejaVuSans-53"/>
       <use x="159.033203" xlink:href="#DejaVuSans-48"/>
       <use x="222.65625" xlink:href="#DejaVuSans-41"/>
      </g>
     </g>
    </g>
    <g id="ytick_9">
     <g id="line2d_17">
      <g>
       <use style="stroke:#000000;stroke-width:1.6;" x="438.233333" xlink:href="#m4eeb8ebc9d" y="166.692097"/>
      </g>
     </g>
     <g id="text_19">
      <!-- [0.50, -->
      <g transform="translate(364.842708 163.092722)scale(0.2 -0.2)">
       <use xlink:href="#DejaVuSans-91"/>
       <use x="39.013672" xlink:href="#DejaVuSans-48"/>
       <use x="102.636719" xlink:href="#DejaVuSans-46"/>
       <use x="134.423828" xlink:href="#DejaVuSans-53"/>
       <use x="198.046875" xlink:href="#DejaVuSans-48"/>
       <use x="261.669922" xlink:href="#DejaVuSans-44"/>
      </g>
      <!-- 0.75) -->
      <g transform="translate(371.198958 185.488347)scale(0.2 -0.2)">
       <use xlink:href="#DejaVuSans-48"/>
       <use x="63.623047" xlink:href="#DejaVuSans-46"/>
       <use x="95.410156" xlink:href="#DejaVuSans-55"/>
       <use x="159.033203" xlink:href="#DejaVuSans-53"/>
       <use x="222.65625" xlink:href="#DejaVuSans-41"/>
      </g>
     </g>
    </g>
    <g id="ytick_10">
     <g id="line2d_18">
      <g>
       <use style="stroke:#000000;stroke-width:1.6;" x="438.233333" xlink:href="#m4eeb8ebc9d" y="231.18793"/>
      </g>
     </g>
     <g id="text_20">
      <!-- [0.75, -->
      <g transform="translate(364.842708 227.588555)scale(0.2 -0.2)">
       <use xlink:href="#DejaVuSans-91"/>
       <use x="39.013672" xlink:href="#DejaVuSans-48"/>
       <use x="102.636719" xlink:href="#DejaVuSans-46"/>
       <use x="134.423828" xlink:href="#DejaVuSans-55"/>
       <use x="198.046875" xlink:href="#DejaVuSans-53"/>
       <use x="261.669922" xlink:href="#DejaVuSans-44"/>
      </g>
      <!-- 1.00) -->
      <g transform="translate(371.198958 249.98418)scale(0.2 -0.2)">
       <use xlink:href="#DejaVuSans-49"/>
       <use x="63.623047" xlink:href="#DejaVuSans-46"/>
       <use x="95.410156" xlink:href="#DejaVuSans-48"/>
       <use x="159.033203" xlink:href="#DejaVuSans-48"/>
       <use x="222.65625" xlink:href="#DejaVuSans-41"/>
      </g>
     </g>
    </g>
    <g id="text_21">
     <!-- Max JS Divergence within $\epsilon$ -->
     <g transform="translate(356.642708 270.04418)rotate(-90)scale(0.2 -0.2)">
      <use transform="translate(0 0.015625)" xlink:href="#DejaVuSans-77"/>
      <use transform="translate(86.279297 0.015625)" xlink:href="#DejaVuSans-97"/>
      <use transform="translate(147.558594 0.015625)" xlink:href="#DejaVuSans-120"/>
      <use transform="translate(206.738281 0.015625)" xlink:href="#DejaVuSans-32"/>
      <use transform="translate(238.525391 0.015625)" xlink:href="#DejaVuSans-74"/>
      <use transform="translate(268.017578 0.015625)" xlink:href="#DejaVuSans-83"/>
      <use transform="translate(331.494141 0.015625)" xlink:href="#DejaVuSans-32"/>
      <use transform="translate(363.28125 0.015625)" xlink:href="#DejaVuSans-68"/>
      <use transform="translate(440.283203 0.015625)" xlink:href="#DejaVuSans-105"/>
      <use transform="translate(468.066406 0.015625)" xlink:href="#DejaVuSans-118"/>
      <use transform="translate(527.246094 0.015625)" xlink:href="#DejaVuSans-101"/>
      <use transform="translate(588.769531 0.015625)" xlink:href="#DejaVuSans-114"/>
      <use transform="translate(629.882812 0.015625)" xlink:href="#DejaVuSans-103"/>
      <use transform="translate(693.359375 0.015625)" xlink:href="#DejaVuSans-101"/>
      <use transform="translate(754.882812 0.015625)" xlink:href="#DejaVuSans-110"/>
      <use transform="translate(818.261719 0.015625)" xlink:href="#DejaVuSans-99"/>
      <use transform="translate(873.242188 0.015625)" xlink:href="#DejaVuSans-101"/>
      <use transform="translate(934.765625 0.015625)" xlink:href="#DejaVuSans-32"/>
      <use transform="translate(966.552734 0.015625)" xlink:href="#DejaVuSans-119"/>
      <use transform="translate(1048.339844 0.015625)" xlink:href="#DejaVuSans-105"/>
      <use transform="translate(1076.123047 0.015625)" xlink:href="#DejaVuSans-116"/>
      <use transform="translate(1115.332031 0.015625)" xlink:href="#DejaVuSans-104"/>
      <use transform="translate(1178.710938 0.015625)" xlink:href="#DejaVuSans-105"/>
      <use transform="translate(1206.494141 0.015625)" xlink:href="#DejaVuSans-110"/>
      <use transform="translate(1269.873047 0.015625)" xlink:href="#DejaVuSans-32"/>
      <use transform="translate(1301.660156 0.015625)" xlink:href="#DejaVuSans-Oblique-949"/>
     </g>
    </g>
   </g>
   <g id="line2d_19">
    <path clip-path="url(#p5ebadfb887)" style="fill:none;stroke:#575757;stroke-dasharray:1.5,1.5;stroke-dashoffset:0;"/>
   </g>
   <g id="line2d_20">
    <path clip-path="url(#p5ebadfb887)" style="fill:none;stroke:#575757;stroke-dasharray:3,3;stroke-dashoffset:0;"/>
   </g>
   <g id="line2d_21">
    <path clip-path="url(#p5ebadfb887)" style="fill:none;stroke:#575757;stroke-dasharray:1.5,1.5;stroke-dashoffset:0;"/>
   </g>
   <g id="line2d_22">
    <path clip-path="url(#p5ebadfb887)" style="fill:none;stroke:#575757;stroke-dasharray:1.5,1.5;stroke-dashoffset:0;"/>
   </g>
   <g id="line2d_23">
    <path clip-path="url(#p5ebadfb887)" style="fill:none;stroke:#575757;stroke-dasharray:3,3;stroke-dashoffset:0;"/>
   </g>
   <g id="line2d_24">
    <path clip-path="url(#p5ebadfb887)" style="fill:none;stroke:#575757;stroke-dasharray:1.5,1.5;stroke-dashoffset:0;"/>
   </g>
   <g id="line2d_25">
    <path clip-path="url(#p5ebadfb887)" style="fill:none;stroke:#575757;stroke-dasharray:1.5,1.5;stroke-dashoffset:0;"/>
   </g>
   <g id="line2d_26">
    <path clip-path="url(#p5ebadfb887)" style="fill:none;stroke:#575757;stroke-dasharray:3,3;stroke-dashoffset:0;"/>
   </g>
   <g id="line2d_27">
    <path clip-path="url(#p5ebadfb887)" style="fill:none;stroke:#575757;stroke-dasharray:1.5,1.5;stroke-dashoffset:0;"/>
   </g>
   <g id="line2d_28">
    <path clip-path="url(#p5ebadfb887)" style="fill:none;stroke:#575757;stroke-linecap:square;"/>
   </g>
   <g id="patch_47">
    <path style="fill:none;stroke:#000000;stroke-linecap:square;stroke-linejoin:miter;stroke-width:0.8;"/>
   </g>
   <g id="patch_48">
    <path style="fill:none;stroke:#000000;stroke-linecap:square;stroke-linejoin:miter;stroke-width:0.8;"/>
   </g>
  </g>
 </g>
 <defs>
  <clipPath id="pbe74379009">
   <rect height="257.983333" width="257.983333" x="72.45" y="5.452513"/>
  </clipPath>
  <clipPath id="p5ebadfb887">
   <rect height="257.983333" width="257.983333" x="438.233333" y="5.452513"/>
  </clipPath>
 </defs>
</svg>
