<?xml version="1.0" encoding="utf-8" standalone="no"?>
<!DOCTYPE svg PUBLIC "-//W3C//DTD SVG 1.1//EN"
  "http://www.w3.org/Graphics/SVG/1.1/DTD/svg11.dtd">
<!-- Created with matplotlib (https://matplotlib.org/) -->
<svg height="316.395pt" version="1.1" viewBox="0 0 321.893203 316.395" width="321.893203pt" xmlns="http://www.w3.org/2000/svg" xmlns:xlink="http://www.w3.org/1999/xlink">
 <defs>
  <style type="text/css">
*{stroke-linecap:butt;stroke-linejoin:round;}
  </style>
 </defs>
 <g id="figure_1">
  <g id="patch_1">
   <path d="M 0 316.395 
L 321.893203 316.395 
L 321.893203 0 
L 0 0 
z
" style="fill:#ffffff;"/>
  </g>
  <g id="axes_1">
   <g id="patch_2">
    <path d="M 59.575 255.695 
L 311.77 255.695 
L 311.77 3.5 
L 59.575 3.5 
z
" style="fill:#ffffff;"/>
   </g>
   <g id="patch_3">
    <path clip-path="url(#pad1b3972a9)" d="M 71.038409 255.695 
L 76.770114 255.695 
L 76.770114 202.712857 
L 71.038409 202.712857 
z
" style="fill:#7570b3;opacity:0.6;stroke:#000000;stroke-linejoin:miter;stroke-width:0.5;"/>
   </g>
   <g id="patch_4">
    <path clip-path="url(#pad1b3972a9)" d="M 76.770114 255.695 
L 82.501818 255.695 
L 82.501818 255.695 
L 76.770114 255.695 
z
" style="fill:#7570b3;opacity:0.6;stroke:#000000;stroke-linejoin:miter;stroke-width:0.5;"/>
   </g>
   <g id="patch_5">
    <path clip-path="url(#pad1b3972a9)" d="M 82.501818 255.695 
L 88.233523 255.695 
L 88.233523 255.695 
L 82.501818 255.695 
z
" style="fill:#7570b3;opacity:0.6;stroke:#000000;stroke-linejoin:miter;stroke-width:0.5;"/>
   </g>
   <g id="patch_6">
    <path clip-path="url(#pad1b3972a9)" d="M 88.233523 255.695 
L 93.965227 255.695 
L 93.965227 255.695 
L 88.233523 255.695 
z
" style="fill:#7570b3;opacity:0.6;stroke:#000000;stroke-linejoin:miter;stroke-width:0.5;"/>
   </g>
   <g id="patch_7">
    <path clip-path="url(#pad1b3972a9)" d="M 93.965227 255.695 
L 99.696932 255.695 
L 99.696932 255.695 
L 93.965227 255.695 
z
" style="fill:#7570b3;opacity:0.6;stroke:#000000;stroke-linejoin:miter;stroke-width:0.5;"/>
   </g>
   <g id="patch_8">
    <path clip-path="url(#pad1b3972a9)" d="M 99.696932 255.695 
L 105.428636 255.695 
L 105.428636 253.928929 
L 99.696932 253.928929 
z
" style="fill:#7570b3;opacity:0.6;stroke:#000000;stroke-linejoin:miter;stroke-width:0.5;"/>
   </g>
   <g id="patch_9">
    <path clip-path="url(#pad1b3972a9)" d="M 105.428636 255.695 
L 111.160341 255.695 
L 111.160341 253.928929 
L 105.428636 253.928929 
z
" style="fill:#7570b3;opacity:0.6;stroke:#000000;stroke-linejoin:miter;stroke-width:0.5;"/>
   </g>
   <g id="patch_10">
    <path clip-path="url(#pad1b3972a9)" d="M 111.160341 255.695 
L 116.892045 255.695 
L 116.892045 252.162857 
L 111.160341 252.162857 
z
" style="fill:#7570b3;opacity:0.6;stroke:#000000;stroke-linejoin:miter;stroke-width:0.5;"/>
   </g>
   <g id="patch_11">
    <path clip-path="url(#pad1b3972a9)" d="M 116.892045 255.695 
L 122.62375 255.695 
L 122.62375 249.51375 
L 116.892045 249.51375 
z
" style="fill:#7570b3;opacity:0.6;stroke:#000000;stroke-linejoin:miter;stroke-width:0.5;"/>
   </g>
   <g id="patch_12">
    <path clip-path="url(#pad1b3972a9)" d="M 122.62375 255.695 
L 128.355455 255.695 
L 128.355455 245.981607 
L 122.62375 245.981607 
z
" style="fill:#7570b3;opacity:0.6;stroke:#000000;stroke-linejoin:miter;stroke-width:0.5;"/>
   </g>
   <g id="patch_13">
    <path clip-path="url(#pad1b3972a9)" d="M 128.355455 255.695 
L 134.087159 255.695 
L 134.087159 244.215536 
L 128.355455 244.215536 
z
" style="fill:#7570b3;opacity:0.6;stroke:#000000;stroke-linejoin:miter;stroke-width:0.5;"/>
   </g>
   <g id="patch_14">
    <path clip-path="url(#pad1b3972a9)" d="M 134.087159 255.695 
L 139.818864 255.695 
L 139.818864 241.566429 
L 134.087159 241.566429 
z
" style="fill:#7570b3;opacity:0.6;stroke:#000000;stroke-linejoin:miter;stroke-width:0.5;"/>
   </g>
   <g id="patch_15">
    <path clip-path="url(#pad1b3972a9)" d="M 139.818864 255.695 
L 145.550568 255.695 
L 145.550568 238.917321 
L 139.818864 238.917321 
z
" style="fill:#7570b3;opacity:0.6;stroke:#000000;stroke-linejoin:miter;stroke-width:0.5;"/>
   </g>
   <g id="patch_16">
    <path clip-path="url(#pad1b3972a9)" d="M 145.550568 255.695 
L 151.282273 255.695 
L 151.282273 235.385179 
L 145.550568 235.385179 
z
" style="fill:#7570b3;opacity:0.6;stroke:#000000;stroke-linejoin:miter;stroke-width:0.5;"/>
   </g>
   <g id="patch_17">
    <path clip-path="url(#pad1b3972a9)" d="M 151.282273 255.695 
L 157.013977 255.695 
L 157.013977 236.268214 
L 151.282273 236.268214 
z
" style="fill:#7570b3;opacity:0.6;stroke:#000000;stroke-linejoin:miter;stroke-width:0.5;"/>
   </g>
   <g id="patch_18">
    <path clip-path="url(#pad1b3972a9)" d="M 157.013977 255.695 
L 162.745682 255.695 
L 162.745682 232.736071 
L 157.013977 232.736071 
z
" style="fill:#7570b3;opacity:0.6;stroke:#000000;stroke-linejoin:miter;stroke-width:0.5;"/>
   </g>
   <g id="patch_19">
    <path clip-path="url(#pad1b3972a9)" d="M 162.745682 255.695 
L 168.477386 255.695 
L 168.477386 228.320893 
L 162.745682 228.320893 
z
" style="fill:#7570b3;opacity:0.6;stroke:#000000;stroke-linejoin:miter;stroke-width:0.5;"/>
   </g>
   <g id="patch_20">
    <path clip-path="url(#pad1b3972a9)" d="M 168.477386 255.695 
L 174.209091 255.695 
L 174.209091 215.075357 
L 168.477386 215.075357 
z
" style="fill:#7570b3;opacity:0.6;stroke:#000000;stroke-linejoin:miter;stroke-width:0.5;"/>
   </g>
   <g id="patch_21">
    <path clip-path="url(#pad1b3972a9)" d="M 174.209091 255.695 
L 179.940795 255.695 
L 179.940795 200.06375 
L 174.209091 200.06375 
z
" style="fill:#7570b3;opacity:0.6;stroke:#000000;stroke-linejoin:miter;stroke-width:0.5;"/>
   </g>
   <g id="patch_22">
    <path clip-path="url(#pad1b3972a9)" d="M 179.940795 255.695 
L 185.6725 255.695 
L 185.6725 208.011071 
L 179.940795 208.011071 
z
" style="fill:#7570b3;opacity:0.6;stroke:#000000;stroke-linejoin:miter;stroke-width:0.5;"/>
   </g>
   <g id="patch_23">
    <path clip-path="url(#pad1b3972a9)" d="M 185.6725 255.695 
L 191.404205 255.695 
L 191.404205 170.923571 
L 185.6725 170.923571 
z
" style="fill:#7570b3;opacity:0.6;stroke:#000000;stroke-linejoin:miter;stroke-width:0.5;"/>
   </g>
   <g id="patch_24">
    <path clip-path="url(#pad1b3972a9)" d="M 191.404205 255.695 
L 197.135909 255.695 
L 197.135909 162.093214 
L 191.404205 162.093214 
z
" style="fill:#7570b3;opacity:0.6;stroke:#000000;stroke-linejoin:miter;stroke-width:0.5;"/>
   </g>
   <g id="patch_25">
    <path clip-path="url(#pad1b3972a9)" d="M 197.135909 255.695 
L 202.867614 255.695 
L 202.867614 144.4325 
L 197.135909 144.4325 
z
" style="fill:#7570b3;opacity:0.6;stroke:#000000;stroke-linejoin:miter;stroke-width:0.5;"/>
   </g>
   <g id="patch_26">
    <path clip-path="url(#pad1b3972a9)" d="M 202.867614 255.695 
L 208.599318 255.695 
L 208.599318 100.280714 
L 202.867614 100.280714 
z
" style="fill:#7570b3;opacity:0.6;stroke:#000000;stroke-linejoin:miter;stroke-width:0.5;"/>
   </g>
   <g id="patch_27">
    <path clip-path="url(#pad1b3972a9)" d="M 208.599318 255.695 
L 214.331023 255.695 
L 214.331023 87.035179 
L 208.599318 87.035179 
z
" style="fill:#7570b3;opacity:0.6;stroke:#000000;stroke-linejoin:miter;stroke-width:0.5;"/>
   </g>
   <g id="patch_28">
    <path clip-path="url(#pad1b3972a9)" d="M 214.331023 255.695 
L 220.062727 255.695 
L 220.062727 52.596786 
L 214.331023 52.596786 
z
" style="fill:#7570b3;opacity:0.6;stroke:#000000;stroke-linejoin:miter;stroke-width:0.5;"/>
   </g>
   <g id="patch_29">
    <path clip-path="url(#pad1b3972a9)" d="M 220.062727 255.695 
L 225.794432 255.695 
L 225.794432 44.649464 
L 220.062727 44.649464 
z
" style="fill:#7570b3;opacity:0.6;stroke:#000000;stroke-linejoin:miter;stroke-width:0.5;"/>
   </g>
   <g id="patch_30">
    <path clip-path="url(#pad1b3972a9)" d="M 225.794432 255.695 
L 231.526136 255.695 
L 231.526136 43.766429 
L 225.794432 43.766429 
z
" style="fill:#7570b3;opacity:0.6;stroke:#000000;stroke-linejoin:miter;stroke-width:0.5;"/>
   </g>
   <g id="patch_31">
    <path clip-path="url(#pad1b3972a9)" d="M 231.526136 255.695 
L 237.257841 255.695 
L 237.257841 15.509286 
L 231.526136 15.509286 
z
" style="fill:#7570b3;opacity:0.6;stroke:#000000;stroke-linejoin:miter;stroke-width:0.5;"/>
   </g>
   <g id="patch_32">
    <path clip-path="url(#pad1b3972a9)" d="M 237.257841 255.695 
L 242.989545 255.695 
L 242.989545 40.234286 
L 237.257841 40.234286 
z
" style="fill:#7570b3;opacity:0.6;stroke:#000000;stroke-linejoin:miter;stroke-width:0.5;"/>
   </g>
   <g id="patch_33">
    <path clip-path="url(#pad1b3972a9)" d="M 242.989545 255.695 
L 248.72125 255.695 
L 248.72125 49.064643 
L 242.989545 49.064643 
z
" style="fill:#7570b3;opacity:0.6;stroke:#000000;stroke-linejoin:miter;stroke-width:0.5;"/>
   </g>
   <g id="patch_34">
    <path clip-path="url(#pad1b3972a9)" d="M 248.72125 255.695 
L 254.452955 255.695 
L 254.452955 75.555714 
L 248.72125 75.555714 
z
" style="fill:#7570b3;opacity:0.6;stroke:#000000;stroke-linejoin:miter;stroke-width:0.5;"/>
   </g>
   <g id="patch_35">
    <path clip-path="url(#pad1b3972a9)" d="M 254.452955 255.695 
L 260.184659 255.695 
L 260.184659 132.07 
L 254.452955 132.07 
z
" style="fill:#7570b3;opacity:0.6;stroke:#000000;stroke-linejoin:miter;stroke-width:0.5;"/>
   </g>
   <g id="patch_36">
    <path clip-path="url(#pad1b3972a9)" d="M 260.184659 255.695 
L 265.916364 255.695 
L 265.916364 165.625357 
L 260.184659 165.625357 
z
" style="fill:#7570b3;opacity:0.6;stroke:#000000;stroke-linejoin:miter;stroke-width:0.5;"/>
   </g>
   <g id="patch_37">
    <path clip-path="url(#pad1b3972a9)" d="M 265.916364 255.695 
L 271.648068 255.695 
L 271.648068 188.584286 
L 265.916364 188.584286 
z
" style="fill:#7570b3;opacity:0.6;stroke:#000000;stroke-linejoin:miter;stroke-width:0.5;"/>
   </g>
   <g id="patch_38">
    <path clip-path="url(#pad1b3972a9)" d="M 271.648068 255.695 
L 277.379773 255.695 
L 277.379773 193.8825 
L 271.648068 193.8825 
z
" style="fill:#7570b3;opacity:0.6;stroke:#000000;stroke-linejoin:miter;stroke-width:0.5;"/>
   </g>
   <g id="patch_39">
    <path clip-path="url(#pad1b3972a9)" d="M 277.379773 255.695 
L 283.111477 255.695 
L 283.111477 230.97 
L 277.379773 230.97 
z
" style="fill:#7570b3;opacity:0.6;stroke:#000000;stroke-linejoin:miter;stroke-width:0.5;"/>
   </g>
   <g id="patch_40">
    <path clip-path="url(#pad1b3972a9)" d="M 283.111477 255.695 
L 288.843182 255.695 
L 288.843182 242.449464 
L 283.111477 242.449464 
z
" style="fill:#7570b3;opacity:0.6;stroke:#000000;stroke-linejoin:miter;stroke-width:0.5;"/>
   </g>
   <g id="patch_41">
    <path clip-path="url(#pad1b3972a9)" d="M 288.843182 255.695 
L 294.574886 255.695 
L 294.574886 246.864643 
L 288.843182 246.864643 
z
" style="fill:#7570b3;opacity:0.6;stroke:#000000;stroke-linejoin:miter;stroke-width:0.5;"/>
   </g>
   <g id="patch_42">
    <path clip-path="url(#pad1b3972a9)" d="M 294.574886 255.695 
L 300.306591 255.695 
L 300.306591 255.695 
L 294.574886 255.695 
z
" style="fill:#7570b3;opacity:0.6;stroke:#000000;stroke-linejoin:miter;stroke-width:0.5;"/>
   </g>
   <g id="matplotlib.axis_1">
    <g id="xtick_1">
     <g id="line2d_1">
      <defs>
       <path d="M 0 0 
L 0 3.5 
" id="mc42c889875" style="stroke:#000000;stroke-width:1.6;"/>
      </defs>
      <g>
       <use style="stroke:#000000;stroke-width:1.6;" x="71.038409" xlink:href="#mc42c889875" y="255.695"/>
      </g>
     </g>
     <g id="text_1">
      <!-- 0.0 -->
      <defs>
       <path d="M 31.78125 66.40625 
Q 24.171875 66.40625 20.328125 58.90625 
Q 16.5 51.421875 16.5 36.375 
Q 16.5 21.390625 20.328125 13.890625 
Q 24.171875 6.390625 31.78125 6.390625 
Q 39.453125 6.390625 43.28125 13.890625 
Q 47.125 21.390625 47.125 36.375 
Q 47.125 51.421875 43.28125 58.90625 
Q 39.453125 66.40625 31.78125 66.40625 
z
M 31.78125 74.21875 
Q 44.046875 74.21875 50.515625 64.515625 
Q 56.984375 54.828125 56.984375 36.375 
Q 56.984375 17.96875 50.515625 8.265625 
Q 44.046875 -1.421875 31.78125 -1.421875 
Q 19.53125 -1.421875 13.0625 8.265625 
Q 6.59375 17.96875 6.59375 36.375 
Q 6.59375 54.828125 13.0625 64.515625 
Q 19.53125 74.21875 31.78125 74.21875 
z
" id="DejaVuSans-48"/>
       <path d="M 10.6875 12.40625 
L 21 12.40625 
L 21 0 
L 10.6875 0 
z
" id="DejaVuSans-46"/>
      </defs>
      <g transform="translate(55.135284 285.591875)scale(0.2 -0.2)">
       <use xlink:href="#DejaVuSans-48"/>
       <use x="63.623047" xlink:href="#DejaVuSans-46"/>
       <use x="95.410156" xlink:href="#DejaVuSans-48"/>
      </g>
     </g>
    </g>
    <g id="xtick_2">
     <g id="line2d_2">
      <g>
       <use style="stroke:#000000;stroke-width:1.6;" x="136.543604" xlink:href="#mc42c889875" y="255.695"/>
      </g>
     </g>
     <g id="text_2">
      <!-- 0.2 -->
      <defs>
       <path d="M 19.1875 8.296875 
L 53.609375 8.296875 
L 53.609375 0 
L 7.328125 0 
L 7.328125 8.296875 
Q 12.9375 14.109375 22.625 23.890625 
Q 32.328125 33.6875 34.8125 36.53125 
Q 39.546875 41.84375 41.421875 45.53125 
Q 43.3125 49.21875 43.3125 52.78125 
Q 43.3125 58.59375 39.234375 62.25 
Q 35.15625 65.921875 28.609375 65.921875 
Q 23.96875 65.921875 18.8125 64.3125 
Q 13.671875 62.703125 7.8125 59.421875 
L 7.8125 69.390625 
Q 13.765625 71.78125 18.9375 73 
Q 24.125 74.21875 28.421875 74.21875 
Q 39.75 74.21875 46.484375 68.546875 
Q 53.21875 62.890625 53.21875 53.421875 
Q 53.21875 48.921875 51.53125 44.890625 
Q 49.859375 40.875 45.40625 35.40625 
Q 44.1875 33.984375 37.640625 27.21875 
Q 31.109375 20.453125 19.1875 8.296875 
z
" id="DejaVuSans-50"/>
      </defs>
      <g transform="translate(120.640479 285.591875)scale(0.2 -0.2)">
       <use xlink:href="#DejaVuSans-48"/>
       <use x="63.623047" xlink:href="#DejaVuSans-46"/>
       <use x="95.410156" xlink:href="#DejaVuSans-50"/>
      </g>
     </g>
    </g>
    <g id="xtick_3">
     <g id="line2d_3">
      <g>
       <use style="stroke:#000000;stroke-width:1.6;" x="202.048799" xlink:href="#mc42c889875" y="255.695"/>
      </g>
     </g>
     <g id="text_3">
      <!-- 0.4 -->
      <defs>
       <path d="M 37.796875 64.3125 
L 12.890625 25.390625 
L 37.796875 25.390625 
z
M 35.203125 72.90625 
L 47.609375 72.90625 
L 47.609375 25.390625 
L 58.015625 25.390625 
L 58.015625 17.1875 
L 47.609375 17.1875 
L 47.609375 0 
L 37.796875 0 
L 37.796875 17.1875 
L 4.890625 17.1875 
L 4.890625 26.703125 
z
" id="DejaVuSans-52"/>
      </defs>
      <g transform="translate(186.145674 285.591875)scale(0.2 -0.2)">
       <use xlink:href="#DejaVuSans-48"/>
       <use x="63.623047" xlink:href="#DejaVuSans-46"/>
       <use x="95.410156" xlink:href="#DejaVuSans-52"/>
      </g>
     </g>
    </g>
    <g id="xtick_4">
     <g id="line2d_4">
      <g>
       <use style="stroke:#000000;stroke-width:1.6;" x="267.553994" xlink:href="#mc42c889875" y="255.695"/>
      </g>
     </g>
     <g id="text_4">
      <!-- 0.6 -->
      <defs>
       <path d="M 33.015625 40.375 
Q 26.375 40.375 22.484375 35.828125 
Q 18.609375 31.296875 18.609375 23.390625 
Q 18.609375 15.53125 22.484375 10.953125 
Q 26.375 6.390625 33.015625 6.390625 
Q 39.65625 6.390625 43.53125 10.953125 
Q 47.40625 15.53125 47.40625 23.390625 
Q 47.40625 31.296875 43.53125 35.828125 
Q 39.65625 40.375 33.015625 40.375 
z
M 52.59375 71.296875 
L 52.59375 62.3125 
Q 48.875 64.0625 45.09375 64.984375 
Q 41.3125 65.921875 37.59375 65.921875 
Q 27.828125 65.921875 22.671875 59.328125 
Q 17.53125 52.734375 16.796875 39.40625 
Q 19.671875 43.65625 24.015625 45.921875 
Q 28.375 48.1875 33.59375 48.1875 
Q 44.578125 48.1875 50.953125 41.515625 
Q 57.328125 34.859375 57.328125 23.390625 
Q 57.328125 12.15625 50.6875 5.359375 
Q 44.046875 -1.421875 33.015625 -1.421875 
Q 20.359375 -1.421875 13.671875 8.265625 
Q 6.984375 17.96875 6.984375 36.375 
Q 6.984375 53.65625 15.1875 63.9375 
Q 23.390625 74.21875 37.203125 74.21875 
Q 40.921875 74.21875 44.703125 73.484375 
Q 48.484375 72.75 52.59375 71.296875 
z
" id="DejaVuSans-54"/>
      </defs>
      <g transform="translate(251.650869 285.591875)scale(0.2 -0.2)">
       <use xlink:href="#DejaVuSans-48"/>
       <use x="63.623047" xlink:href="#DejaVuSans-46"/>
       <use x="95.410156" xlink:href="#DejaVuSans-54"/>
      </g>
     </g>
    </g>
    <g id="text_5">
     <!-- Max JS Divergence within $\epsilon$ -->
     <defs>
      <path d="M 9.8125 72.90625 
L 24.515625 72.90625 
L 43.109375 23.296875 
L 61.8125 72.90625 
L 76.515625 72.90625 
L 76.515625 0 
L 66.890625 0 
L 66.890625 64.015625 
L 48.09375 14.015625 
L 38.1875 14.015625 
L 19.390625 64.015625 
L 19.390625 0 
L 9.8125 0 
z
" id="DejaVuSans-77"/>
      <path d="M 34.28125 27.484375 
Q 23.390625 27.484375 19.1875 25 
Q 14.984375 22.515625 14.984375 16.5 
Q 14.984375 11.71875 18.140625 8.90625 
Q 21.296875 6.109375 26.703125 6.109375 
Q 34.1875 6.109375 38.703125 11.40625 
Q 43.21875 16.703125 43.21875 25.484375 
L 43.21875 27.484375 
z
M 52.203125 31.203125 
L 52.203125 0 
L 43.21875 0 
L 43.21875 8.296875 
Q 40.140625 3.328125 35.546875 0.953125 
Q 30.953125 -1.421875 24.3125 -1.421875 
Q 15.921875 -1.421875 10.953125 3.296875 
Q 6 8.015625 6 15.921875 
Q 6 25.140625 12.171875 29.828125 
Q 18.359375 34.515625 30.609375 34.515625 
L 43.21875 34.515625 
L 43.21875 35.40625 
Q 43.21875 41.609375 39.140625 45 
Q 35.0625 48.390625 27.6875 48.390625 
Q 23 48.390625 18.546875 47.265625 
Q 14.109375 46.140625 10.015625 43.890625 
L 10.015625 52.203125 
Q 14.9375 54.109375 19.578125 55.046875 
Q 24.21875 56 28.609375 56 
Q 40.484375 56 46.34375 49.84375 
Q 52.203125 43.703125 52.203125 31.203125 
z
" id="DejaVuSans-97"/>
      <path d="M 54.890625 54.6875 
L 35.109375 28.078125 
L 55.90625 0 
L 45.3125 0 
L 29.390625 21.484375 
L 13.484375 0 
L 2.875 0 
L 24.125 28.609375 
L 4.6875 54.6875 
L 15.28125 54.6875 
L 29.78125 35.203125 
L 44.28125 54.6875 
z
" id="DejaVuSans-120"/>
      <path id="DejaVuSans-32"/>
      <path d="M 9.8125 72.90625 
L 19.671875 72.90625 
L 19.671875 5.078125 
Q 19.671875 -8.109375 14.671875 -14.0625 
Q 9.671875 -20.015625 -1.421875 -20.015625 
L -5.171875 -20.015625 
L -5.171875 -11.71875 
L -2.09375 -11.71875 
Q 4.4375 -11.71875 7.125 -8.046875 
Q 9.8125 -4.390625 9.8125 5.078125 
z
" id="DejaVuSans-74"/>
      <path d="M 53.515625 70.515625 
L 53.515625 60.890625 
Q 47.90625 63.578125 42.921875 64.890625 
Q 37.9375 66.21875 33.296875 66.21875 
Q 25.25 66.21875 20.875 63.09375 
Q 16.5 59.96875 16.5 54.203125 
Q 16.5 49.359375 19.40625 46.890625 
Q 22.3125 44.4375 30.421875 42.921875 
L 36.375 41.703125 
Q 47.40625 39.59375 52.65625 34.296875 
Q 57.90625 29 57.90625 20.125 
Q 57.90625 9.515625 50.796875 4.046875 
Q 43.703125 -1.421875 29.984375 -1.421875 
Q 24.8125 -1.421875 18.96875 -0.25 
Q 13.140625 0.921875 6.890625 3.21875 
L 6.890625 13.375 
Q 12.890625 10.015625 18.65625 8.296875 
Q 24.421875 6.59375 29.984375 6.59375 
Q 38.421875 6.59375 43.015625 9.90625 
Q 47.609375 13.234375 47.609375 19.390625 
Q 47.609375 24.75 44.3125 27.78125 
Q 41.015625 30.8125 33.5 32.328125 
L 27.484375 33.5 
Q 16.453125 35.6875 11.515625 40.375 
Q 6.59375 45.0625 6.59375 53.421875 
Q 6.59375 63.09375 13.40625 68.65625 
Q 20.21875 74.21875 32.171875 74.21875 
Q 37.3125 74.21875 42.625 73.28125 
Q 47.953125 72.359375 53.515625 70.515625 
z
" id="DejaVuSans-83"/>
      <path d="M 19.671875 64.796875 
L 19.671875 8.109375 
L 31.59375 8.109375 
Q 46.6875 8.109375 53.6875 14.9375 
Q 60.6875 21.78125 60.6875 36.53125 
Q 60.6875 51.171875 53.6875 57.984375 
Q 46.6875 64.796875 31.59375 64.796875 
z
M 9.8125 72.90625 
L 30.078125 72.90625 
Q 51.265625 72.90625 61.171875 64.09375 
Q 71.09375 55.28125 71.09375 36.53125 
Q 71.09375 17.671875 61.125 8.828125 
Q 51.171875 0 30.078125 0 
L 9.8125 0 
z
" id="DejaVuSans-68"/>
      <path d="M 9.421875 54.6875 
L 18.40625 54.6875 
L 18.40625 0 
L 9.421875 0 
z
M 9.421875 75.984375 
L 18.40625 75.984375 
L 18.40625 64.59375 
L 9.421875 64.59375 
z
" id="DejaVuSans-105"/>
      <path d="M 2.984375 54.6875 
L 12.5 54.6875 
L 29.59375 8.796875 
L 46.6875 54.6875 
L 56.203125 54.6875 
L 35.6875 0 
L 23.484375 0 
z
" id="DejaVuSans-118"/>
      <path d="M 56.203125 29.59375 
L 56.203125 25.203125 
L 14.890625 25.203125 
Q 15.484375 15.921875 20.484375 11.0625 
Q 25.484375 6.203125 34.421875 6.203125 
Q 39.59375 6.203125 44.453125 7.46875 
Q 49.3125 8.734375 54.109375 11.28125 
L 54.109375 2.78125 
Q 49.265625 0.734375 44.1875 -0.34375 
Q 39.109375 -1.421875 33.890625 -1.421875 
Q 20.796875 -1.421875 13.15625 6.1875 
Q 5.515625 13.8125 5.515625 26.8125 
Q 5.515625 40.234375 12.765625 48.109375 
Q 20.015625 56 32.328125 56 
Q 43.359375 56 49.78125 48.890625 
Q 56.203125 41.796875 56.203125 29.59375 
z
M 47.21875 32.234375 
Q 47.125 39.59375 43.09375 43.984375 
Q 39.0625 48.390625 32.421875 48.390625 
Q 24.90625 48.390625 20.390625 44.140625 
Q 15.875 39.890625 15.1875 32.171875 
z
" id="DejaVuSans-101"/>
      <path d="M 41.109375 46.296875 
Q 39.59375 47.171875 37.8125 47.578125 
Q 36.03125 48 33.890625 48 
Q 26.265625 48 22.1875 43.046875 
Q 18.109375 38.09375 18.109375 28.8125 
L 18.109375 0 
L 9.078125 0 
L 9.078125 54.6875 
L 18.109375 54.6875 
L 18.109375 46.1875 
Q 20.953125 51.171875 25.484375 53.578125 
Q 30.03125 56 36.53125 56 
Q 37.453125 56 38.578125 55.875 
Q 39.703125 55.765625 41.0625 55.515625 
z
" id="DejaVuSans-114"/>
      <path d="M 45.40625 27.984375 
Q 45.40625 37.75 41.375 43.109375 
Q 37.359375 48.484375 30.078125 48.484375 
Q 22.859375 48.484375 18.828125 43.109375 
Q 14.796875 37.75 14.796875 27.984375 
Q 14.796875 18.265625 18.828125 12.890625 
Q 22.859375 7.515625 30.078125 7.515625 
Q 37.359375 7.515625 41.375 12.890625 
Q 45.40625 18.265625 45.40625 27.984375 
z
M 54.390625 6.78125 
Q 54.390625 -7.171875 48.1875 -13.984375 
Q 42 -20.796875 29.203125 -20.796875 
Q 24.46875 -20.796875 20.265625 -20.09375 
Q 16.0625 -19.390625 12.109375 -17.921875 
L 12.109375 -9.1875 
Q 16.0625 -11.328125 19.921875 -12.34375 
Q 23.78125 -13.375 27.78125 -13.375 
Q 36.625 -13.375 41.015625 -8.765625 
Q 45.40625 -4.15625 45.40625 5.171875 
L 45.40625 9.625 
Q 42.625 4.78125 38.28125 2.390625 
Q 33.9375 0 27.875 0 
Q 17.828125 0 11.671875 7.65625 
Q 5.515625 15.328125 5.515625 27.984375 
Q 5.515625 40.671875 11.671875 48.328125 
Q 17.828125 56 27.875 56 
Q 33.9375 56 38.28125 53.609375 
Q 42.625 51.21875 45.40625 46.390625 
L 45.40625 54.6875 
L 54.390625 54.6875 
z
" id="DejaVuSans-103"/>
      <path d="M 54.890625 33.015625 
L 54.890625 0 
L 45.90625 0 
L 45.90625 32.71875 
Q 45.90625 40.484375 42.875 44.328125 
Q 39.84375 48.1875 33.796875 48.1875 
Q 26.515625 48.1875 22.3125 43.546875 
Q 18.109375 38.921875 18.109375 30.90625 
L 18.109375 0 
L 9.078125 0 
L 9.078125 54.6875 
L 18.109375 54.6875 
L 18.109375 46.1875 
Q 21.34375 51.125 25.703125 53.5625 
Q 30.078125 56 35.796875 56 
Q 45.21875 56 50.046875 50.171875 
Q 54.890625 44.34375 54.890625 33.015625 
z
" id="DejaVuSans-110"/>
      <path d="M 48.78125 52.59375 
L 48.78125 44.1875 
Q 44.96875 46.296875 41.140625 47.34375 
Q 37.3125 48.390625 33.40625 48.390625 
Q 24.65625 48.390625 19.8125 42.84375 
Q 14.984375 37.3125 14.984375 27.296875 
Q 14.984375 17.28125 19.8125 11.734375 
Q 24.65625 6.203125 33.40625 6.203125 
Q 37.3125 6.203125 41.140625 7.25 
Q 44.96875 8.296875 48.78125 10.40625 
L 48.78125 2.09375 
Q 45.015625 0.34375 40.984375 -0.53125 
Q 36.96875 -1.421875 32.421875 -1.421875 
Q 20.0625 -1.421875 12.78125 6.34375 
Q 5.515625 14.109375 5.515625 27.296875 
Q 5.515625 40.671875 12.859375 48.328125 
Q 20.21875 56 33.015625 56 
Q 37.15625 56 41.109375 55.140625 
Q 45.0625 54.296875 48.78125 52.59375 
z
" id="DejaVuSans-99"/>
      <path d="M 4.203125 54.6875 
L 13.1875 54.6875 
L 24.421875 12.015625 
L 35.59375 54.6875 
L 46.1875 54.6875 
L 57.421875 12.015625 
L 68.609375 54.6875 
L 77.59375 54.6875 
L 63.28125 0 
L 52.6875 0 
L 40.921875 44.828125 
L 29.109375 0 
L 18.5 0 
z
" id="DejaVuSans-119"/>
      <path d="M 18.3125 70.21875 
L 18.3125 54.6875 
L 36.8125 54.6875 
L 36.8125 47.703125 
L 18.3125 47.703125 
L 18.3125 18.015625 
Q 18.3125 11.328125 20.140625 9.421875 
Q 21.96875 7.515625 27.59375 7.515625 
L 36.8125 7.515625 
L 36.8125 0 
L 27.59375 0 
Q 17.1875 0 13.234375 3.875 
Q 9.28125 7.765625 9.28125 18.015625 
L 9.28125 47.703125 
L 2.6875 47.703125 
L 2.6875 54.6875 
L 9.28125 54.6875 
L 9.28125 70.21875 
z
" id="DejaVuSans-116"/>
      <path d="M 54.890625 33.015625 
L 54.890625 0 
L 45.90625 0 
L 45.90625 32.71875 
Q 45.90625 40.484375 42.875 44.328125 
Q 39.84375 48.1875 33.796875 48.1875 
Q 26.515625 48.1875 22.3125 43.546875 
Q 18.109375 38.921875 18.109375 30.90625 
L 18.109375 0 
L 9.078125 0 
L 9.078125 75.984375 
L 18.109375 75.984375 
L 18.109375 46.1875 
Q 21.34375 51.125 25.703125 53.5625 
Q 30.078125 56 35.796875 56 
Q 45.21875 56 50.046875 50.171875 
Q 54.890625 44.34375 54.890625 33.015625 
z
" id="DejaVuSans-104"/>
      <path d="M 19.734375 29.5 
Q 14.453125 30.671875 12.15625 33.84375 
Q 10.453125 36.078125 10.453125 39.109375 
Q 10.453125 47.40625 18.359375 52.25 
Q 24.609375 56.0625 34.1875 56.0625 
Q 37.890625 56.0625 41.9375 55.46875 
Q 46 54.890625 50.53125 53.71875 
L 48.96875 45.5625 
Q 44.484375 46.96875 40.71875 47.609375 
Q 36.859375 48.25 33.40625 48.25 
Q 27.59375 48.25 23.78125 46 
Q 19.1875 43.3125 19.1875 39.40625 
Q 19.1875 36.8125 21.578125 35.015625 
Q 24.421875 32.859375 30.078125 32.859375 
L 37.640625 32.859375 
L 36.234375 25.4375 
L 29 25.4375 
Q 22.265625 25.4375 18.3125 22.953125 
Q 12.9375 19.578125 12.9375 14.3125 
Q 12.9375 10.984375 15.828125 8.796875 
Q 19.4375 6.0625 26.8125 6.0625 
Q 31.34375 6.0625 35.6875 6.9375 
Q 40.046875 7.859375 43.84375 9.671875 
L 42.1875 1.3125 
Q 37.546875 -0.046875 33.296875 -0.734375 
Q 29.046875 -1.421875 25.140625 -1.421875 
Q 13.53125 -1.421875 8.0625 3.03125 
Q 3.90625 6.453125 3.90625 12.203125 
Q 3.90625 19.96875 9.375 24.75 
Q 13.421875 28.328125 19.734375 29.5 
z
" id="DejaVuSans-Oblique-949"/>
     </defs>
     <g transform="translate(50.0725 308.95125)scale(0.2 -0.2)">
      <use transform="translate(0 0.015625)" xlink:href="#DejaVuSans-77"/>
      <use transform="translate(86.279297 0.015625)" xlink:href="#DejaVuSans-97"/>
      <use transform="translate(147.558594 0.015625)" xlink:href="#DejaVuSans-120"/>
      <use transform="translate(206.738281 0.015625)" xlink:href="#DejaVuSans-32"/>
      <use transform="translate(238.525391 0.015625)" xlink:href="#DejaVuSans-74"/>
      <use transform="translate(268.017578 0.015625)" xlink:href="#DejaVuSans-83"/>
      <use transform="translate(331.494141 0.015625)" xlink:href="#DejaVuSans-32"/>
      <use transform="translate(363.28125 0.015625)" xlink:href="#DejaVuSans-68"/>
      <use transform="translate(440.283203 0.015625)" xlink:href="#DejaVuSans-105"/>
      <use transform="translate(468.066406 0.015625)" xlink:href="#DejaVuSans-118"/>
      <use transform="translate(527.246094 0.015625)" xlink:href="#DejaVuSans-101"/>
      <use transform="translate(588.769531 0.015625)" xlink:href="#DejaVuSans-114"/>
      <use transform="translate(629.882812 0.015625)" xlink:href="#DejaVuSans-103"/>
      <use transform="translate(693.359375 0.015625)" xlink:href="#DejaVuSans-101"/>
      <use transform="translate(754.882812 0.015625)" xlink:href="#DejaVuSans-110"/>
      <use transform="translate(818.261719 0.015625)" xlink:href="#DejaVuSans-99"/>
      <use transform="translate(873.242188 0.015625)" xlink:href="#DejaVuSans-101"/>
      <use transform="translate(934.765625 0.015625)" xlink:href="#DejaVuSans-32"/>
      <use transform="translate(966.552734 0.015625)" xlink:href="#DejaVuSans-119"/>
      <use transform="translate(1048.339844 0.015625)" xlink:href="#DejaVuSans-105"/>
      <use transform="translate(1076.123047 0.015625)" xlink:href="#DejaVuSans-116"/>
      <use transform="translate(1115.332031 0.015625)" xlink:href="#DejaVuSans-104"/>
      <use transform="translate(1178.710938 0.015625)" xlink:href="#DejaVuSans-105"/>
      <use transform="translate(1206.494141 0.015625)" xlink:href="#DejaVuSans-110"/>
      <use transform="translate(1269.873047 0.015625)" xlink:href="#DejaVuSans-32"/>
      <use transform="translate(1301.660156 0.015625)" xlink:href="#DejaVuSans-Oblique-949"/>
     </g>
    </g>
   </g>
   <g id="matplotlib.axis_2">
    <g id="ytick_1">
     <g id="line2d_5">
      <defs>
       <path d="M 0 0 
L -3.5 0 
" id="m1a8d5a2bbb" style="stroke:#000000;stroke-width:1.6;"/>
      </defs>
      <g>
       <use style="stroke:#000000;stroke-width:1.6;" x="59.575" xlink:href="#m1a8d5a2bbb" y="255.695"/>
      </g>
     </g>
     <g id="text_6">
      <!-- 0.00 -->
      <g transform="translate(0.34375 263.293437)scale(0.2 -0.2)">
       <use xlink:href="#DejaVuSans-48"/>
       <use x="63.623047" xlink:href="#DejaVuSans-46"/>
       <use x="95.410156" xlink:href="#DejaVuSans-48"/>
       <use x="159.033203" xlink:href="#DejaVuSans-48"/>
      </g>
     </g>
    </g>
    <g id="ytick_2">
     <g id="line2d_6">
      <g>
       <use style="stroke:#000000;stroke-width:1.6;" x="59.575" xlink:href="#m1a8d5a2bbb" y="199.216036"/>
      </g>
     </g>
     <g id="text_7">
      <!-- 0.02 -->
      <g transform="translate(0.34375 206.814473)scale(0.2 -0.2)">
       <use xlink:href="#DejaVuSans-48"/>
       <use x="63.623047" xlink:href="#DejaVuSans-46"/>
       <use x="95.410156" xlink:href="#DejaVuSans-48"/>
       <use x="159.033203" xlink:href="#DejaVuSans-50"/>
      </g>
     </g>
    </g>
    <g id="ytick_3">
     <g id="line2d_7">
      <g>
       <use style="stroke:#000000;stroke-width:1.6;" x="59.575" xlink:href="#m1a8d5a2bbb" y="142.737071"/>
      </g>
     </g>
     <g id="text_8">
      <!-- 0.04 -->
      <g transform="translate(0.34375 150.335509)scale(0.2 -0.2)">
       <use xlink:href="#DejaVuSans-48"/>
       <use x="63.623047" xlink:href="#DejaVuSans-46"/>
       <use x="95.410156" xlink:href="#DejaVuSans-48"/>
       <use x="159.033203" xlink:href="#DejaVuSans-52"/>
      </g>
     </g>
    </g>
    <g id="ytick_4">
     <g id="line2d_8">
      <g>
       <use style="stroke:#000000;stroke-width:1.6;" x="59.575" xlink:href="#m1a8d5a2bbb" y="86.258107"/>
      </g>
     </g>
     <g id="text_9">
      <!-- 0.06 -->
      <g transform="translate(0.34375 93.856545)scale(0.2 -0.2)">
       <use xlink:href="#DejaVuSans-48"/>
       <use x="63.623047" xlink:href="#DejaVuSans-46"/>
       <use x="95.410156" xlink:href="#DejaVuSans-48"/>
       <use x="159.033203" xlink:href="#DejaVuSans-54"/>
      </g>
     </g>
    </g>
    <g id="ytick_5">
     <g id="line2d_9">
      <g>
       <use style="stroke:#000000;stroke-width:1.6;" x="59.575" xlink:href="#m1a8d5a2bbb" y="29.779143"/>
      </g>
     </g>
     <g id="text_10">
      <!-- 0.08 -->
      <defs>
       <path d="M 31.78125 34.625 
Q 24.75 34.625 20.71875 30.859375 
Q 16.703125 27.09375 16.703125 20.515625 
Q 16.703125 13.921875 20.71875 10.15625 
Q 24.75 6.390625 31.78125 6.390625 
Q 38.8125 6.390625 42.859375 10.171875 
Q 46.921875 13.96875 46.921875 20.515625 
Q 46.921875 27.09375 42.890625 30.859375 
Q 38.875 34.625 31.78125 34.625 
z
M 21.921875 38.8125 
Q 15.578125 40.375 12.03125 44.71875 
Q 8.5 49.078125 8.5 55.328125 
Q 8.5 64.0625 14.71875 69.140625 
Q 20.953125 74.21875 31.78125 74.21875 
Q 42.671875 74.21875 48.875 69.140625 
Q 55.078125 64.0625 55.078125 55.328125 
Q 55.078125 49.078125 51.53125 44.71875 
Q 48 40.375 41.703125 38.8125 
Q 48.828125 37.15625 52.796875 32.3125 
Q 56.78125 27.484375 56.78125 20.515625 
Q 56.78125 9.90625 50.3125 4.234375 
Q 43.84375 -1.421875 31.78125 -1.421875 
Q 19.734375 -1.421875 13.25 4.234375 
Q 6.78125 9.90625 6.78125 20.515625 
Q 6.78125 27.484375 10.78125 32.3125 
Q 14.796875 37.15625 21.921875 38.8125 
z
M 18.3125 54.390625 
Q 18.3125 48.734375 21.84375 45.5625 
Q 25.390625 42.390625 31.78125 42.390625 
Q 38.140625 42.390625 41.71875 45.5625 
Q 45.3125 48.734375 45.3125 54.390625 
Q 45.3125 60.0625 41.71875 63.234375 
Q 38.140625 66.40625 31.78125 66.40625 
Q 25.390625 66.40625 21.84375 63.234375 
Q 18.3125 60.0625 18.3125 54.390625 
z
" id="DejaVuSans-56"/>
      </defs>
      <g transform="translate(0.34375 37.37758)scale(0.2 -0.2)">
       <use xlink:href="#DejaVuSans-48"/>
       <use x="63.623047" xlink:href="#DejaVuSans-46"/>
       <use x="95.410156" xlink:href="#DejaVuSans-48"/>
       <use x="159.033203" xlink:href="#DejaVuSans-56"/>
      </g>
     </g>
    </g>
   </g>
   <g id="patch_43">
    <path d="M 59.575 255.695 
L 59.575 3.5 
" style="fill:none;stroke:#000000;stroke-linecap:square;stroke-linejoin:miter;stroke-width:0.8;"/>
   </g>
   <g id="patch_44">
    <path d="M 59.575 255.695 
L 311.77 255.695 
" style="fill:none;stroke:#000000;stroke-linecap:square;stroke-linejoin:miter;stroke-width:0.8;"/>
   </g>
  </g>
  <g id="axes_2">
   <g id="patch_45">
    <path d="M 427.13 255.695 
L 679.325 255.695 
L 679.325 3.5 
L 427.13 3.5 
z
" style="fill:#ffffff;"/>
   </g>
   <g id="PolyCollection_1">
    <defs>
     <path d="M 443.810958 -279.992809 
L 443.810958 -282.748441 
L 446.084135 -282.678117 
L 448.357312 -282.472674 
L 450.63049 -282.195669 
L 452.903667 -281.919239 
L 455.176844 -281.694645 
L 457.450021 -281.540602 
L 459.723198 -281.449825 
L 461.996375 -281.403402 
L 464.269552 -281.382673 
L 466.542729 -281.374559 
L 468.815907 -281.371766 
L 471.089084 -281.370919 
L 473.362261 -281.370693 
L 475.635438 -281.370641 
L 477.908615 -281.370636 
L 480.181792 -281.370662 
L 482.454969 -281.370761 
L 484.728146 -281.371071 
L 487.001324 -281.371933 
L 489.274501 -281.374055 
L 491.547678 -281.378676 
L 493.820855 -281.387559 
L 496.094032 -281.402585 
L 498.367209 -281.424839 
L 500.640386 -281.453479 
L 502.913564 -281.48512 
L 505.186741 -281.514533 
L 507.459918 -281.536773 
L 509.733095 -281.549812 
L 512.006272 -281.556132 
L 514.279449 -281.562221 
L 516.552626 -281.576226 
L 518.825803 -281.605102 
L 521.098981 -281.652788 
L 523.372158 -281.720114 
L 525.645335 -281.806036 
L 527.918512 -281.909193 
L 530.191689 -282.029096 
L 532.464866 -282.166936 
L 534.738043 -282.326249 
L 537.01122 -282.512946 
L 539.284398 -282.733653 
L 541.557575 -282.992259 
L 543.830752 -283.28698 
L 546.103929 -283.611633 
L 548.377106 -283.962829 
L 550.650283 -284.349809 
L 552.92346 -284.799405 
L 555.196638 -285.349459 
L 557.469815 -286.031222 
L 559.742992 -286.85053 
L 562.016169 -287.781269 
L 564.289346 -288.77777 
L 566.562523 -289.799112 
L 568.8357 -290.828899 
L 571.108877 -291.877422 
L 573.382055 -292.966658 
L 575.655232 -294.110955 
L 577.928409 -295.307579 
L 580.201586 -296.541355 
L 582.474763 -297.795272 
L 584.74794 -299.054702 
L 587.021117 -300.300328 
L 589.294294 -301.49718 
L 591.567472 -302.59295 
L 593.840649 -303.532509 
L 596.113826 -304.282641 
L 598.387003 -304.851832 
L 600.66018 -305.290688 
L 602.933357 -305.667918 
L 605.206534 -306.030099 
L 607.479711 -306.364869 
L 609.752889 -306.590125 
L 612.026066 -306.580755 
L 614.299243 -306.222172 
L 616.57242 -305.460903 
L 618.845597 -304.323148 
L 621.118774 -302.894092 
L 623.391951 -301.27657 
L 625.665129 -299.556894 
L 627.938306 -297.793827 
L 630.211483 -296.027336 
L 632.48466 -294.292785 
L 634.757837 -292.628701 
L 637.031014 -291.075235 
L 639.304191 -289.66693 
L 641.577368 -288.424384 
L 643.850546 -287.348223 
L 646.123723 -286.418574 
L 648.3969 -285.602463 
L 650.670077 -284.86751 
L 652.943254 -284.194952 
L 655.216431 -283.584166 
L 657.489608 -283.046679 
L 659.762785 -282.59505 
L 662.035963 -282.23431 
L 664.30914 -281.959744 
L 666.582317 -281.759612 
L 668.855494 -281.619247 
L 668.855494 -281.122003 
L 668.855494 -281.122003 
L 666.582317 -280.981638 
L 664.30914 -280.781506 
L 662.035963 -280.50694 
L 659.762785 -280.1462 
L 657.489608 -279.694571 
L 655.216431 -279.157084 
L 652.943254 -278.546298 
L 650.670077 -277.87374 
L 648.3969 -277.138787 
L 646.123723 -276.322676 
L 643.850546 -275.393027 
L 641.577368 -274.316866 
L 639.304191 -273.07432 
L 637.031014 -271.666015 
L 634.757837 -270.112549 
L 632.48466 -268.448465 
L 630.211483 -266.713914 
L 627.938306 -264.947423 
L 625.665129 -263.184356 
L 623.391951 -261.46468 
L 621.118774 -259.847158 
L 618.845597 -258.418102 
L 616.57242 -257.280347 
L 614.299243 -256.519078 
L 612.026066 -256.160495 
L 609.752889 -256.151125 
L 607.479711 -256.376381 
L 605.206534 -256.711151 
L 602.933357 -257.073332 
L 600.66018 -257.450562 
L 598.387003 -257.889418 
L 596.113826 -258.458609 
L 593.840649 -259.208741 
L 591.567472 -260.1483 
L 589.294294 -261.24407 
L 587.021117 -262.440922 
L 584.74794 -263.686548 
L 582.474763 -264.945978 
L 580.201586 -266.199895 
L 577.928409 -267.433671 
L 575.655232 -268.630295 
L 573.382055 -269.774592 
L 571.108877 -270.863828 
L 568.8357 -271.912351 
L 566.562523 -272.942138 
L 564.289346 -273.96348 
L 562.016169 -274.959981 
L 559.742992 -275.89072 
L 557.469815 -276.710028 
L 555.196638 -277.391791 
L 552.92346 -277.941845 
L 550.650283 -278.391441 
L 548.377106 -278.778421 
L 546.103929 -279.129617 
L 543.830752 -279.45427 
L 541.557575 -279.748991 
L 539.284398 -280.007597 
L 537.01122 -280.228304 
L 534.738043 -280.415001 
L 532.464866 -280.574314 
L 530.191689 -280.712154 
L 527.918512 -280.832057 
L 525.645335 -280.935214 
L 523.372158 -281.021136 
L 521.098981 -281.088462 
L 518.825803 -281.136148 
L 516.552626 -281.165024 
L 514.279449 -281.179029 
L 512.006272 -281.185118 
L 509.733095 -281.191438 
L 507.459918 -281.204477 
L 505.186741 -281.226717 
L 502.913564 -281.25613 
L 500.640386 -281.287771 
L 498.367209 -281.316411 
L 496.094032 -281.338665 
L 493.820855 -281.353691 
L 491.547678 -281.362574 
L 489.274501 -281.367195 
L 487.001324 -281.369317 
L 484.728146 -281.370179 
L 482.454969 -281.370489 
L 480.181792 -281.370588 
L 477.908615 -281.370614 
L 475.635438 -281.370609 
L 473.362261 -281.370557 
L 471.089084 -281.370331 
L 468.815907 -281.369484 
L 466.542729 -281.366691 
L 464.269552 -281.358577 
L 461.996375 -281.337848 
L 459.723198 -281.291425 
L 457.450021 -281.200648 
L 455.176844 -281.046605 
L 452.903667 -280.822011 
L 450.63049 -280.545581 
L 448.357312 -280.268576 
L 446.084135 -280.063133 
L 443.810958 -279.992809 
z
" id="m87c41b70b6" style="stroke:#575757;"/>
    </defs>
    <g clip-path="url(#p1ac574f07c)">
     <use style="fill:#7c78ab;stroke:#575757;" x="0" xlink:href="#m87c41b70b6" y="316.395"/>
    </g>
   </g>
   <g id="PolyCollection_2">
    <defs>
     <path d="M 443.705273 -215.82501 
L 443.705273 -220.81874 
L 446.012456 -220.782111 
L 448.319638 -220.65679 
L 450.626821 -220.456651 
L 452.934003 -220.202796 
L 455.241185 -219.920072 
L 457.548368 -219.633323 
L 459.85555 -219.364181 
L 462.162733 -219.12895 
L 464.469915 -218.937804 
L 466.777098 -218.79516 
L 469.08428 -218.70087 
L 471.391462 -218.651777 
L 473.698645 -218.643222 
L 476.005827 -218.670231 
L 478.31301 -218.728281 
L 480.620192 -218.813634 
L 482.927375 -218.923354 
L 485.234557 -219.055139 
L 487.541739 -219.20706 
L 489.848922 -219.377321 
L 492.156104 -219.564082 
L 494.463287 -219.76536 
L 496.770469 -219.97901 
L 499.077652 -220.202768 
L 501.384834 -220.434327 
L 503.692017 -220.671426 
L 505.999199 -220.911964 
L 508.306381 -221.154125 
L 510.613564 -221.396558 
L 512.920746 -221.638634 
L 515.227929 -221.880763 
L 517.535111 -222.124758 
L 519.842294 -222.374135 
L 522.149476 -222.634251 
L 524.456658 -222.912123 
L 526.763841 -223.215847 
L 529.071023 -223.553603 
L 531.378206 -223.932346 
L 533.685388 -224.356425 
L 535.992571 -224.826412 
L 538.299753 -225.338473 
L 540.606935 -225.884474 
L 542.914118 -226.452889 
L 545.2213 -227.030367 
L 547.528483 -227.603655 
L 549.835665 -228.161498 
L 552.142848 -228.696138 
L 554.45003 -229.204157 
L 556.757213 -229.686565 
L 559.064395 -230.14817 
L 561.371577 -230.596432 
L 563.67876 -231.040016 
L 565.985942 -231.487315 
L 568.293125 -231.945194 
L 570.600307 -232.418133 
L 572.90749 -232.907949 
L 575.214672 -233.414102 
L 577.521854 -233.934529 
L 579.829037 -234.466771 
L 582.136219 -235.009094 
L 584.443402 -235.561262 
L 586.750584 -236.124731 
L 589.057767 -236.70219 
L 591.364949 -237.296576 
L 593.672131 -237.909839 
L 595.979314 -238.541768 
L 598.286496 -239.189117 
L 600.593679 -239.845144 
L 602.900861 -240.499513 
L 605.208044 -241.138441 
L 607.515226 -241.74497 
L 609.822409 -242.299345 
L 612.129591 -242.779555 
L 614.436773 -243.162159 
L 616.743956 -243.42351 
L 619.051138 -243.541375 
L 621.358321 -243.496813 
L 623.665503 -243.276041 
L 625.972686 -242.871958 
L 628.279868 -242.285017 
L 630.58705 -241.523259 
L 632.894233 -240.601482 
L 635.201415 -239.539724 
L 637.508598 -238.361363 
L 639.81578 -237.091198 
L 642.122963 -235.753852 
L 644.430145 -234.372715 
L 646.737327 -232.969481 
L 649.04451 -231.564163 
L 651.351692 -230.175383 
L 653.658875 -228.82067 
L 655.966057 -227.516565 
L 658.27324 -226.278429 
L 660.580422 -225.119981 
L 662.887605 -224.052679 
L 665.194787 -223.085116 
L 667.501969 -222.222581 
L 669.809152 -221.466889 
L 672.116334 -220.816508 
L 672.116334 -215.827242 
L 672.116334 -215.827242 
L 669.809152 -215.176861 
L 667.501969 -214.421169 
L 665.194787 -213.558634 
L 662.887605 -212.591071 
L 660.580422 -211.523769 
L 658.27324 -210.365321 
L 655.966057 -209.127185 
L 653.658875 -207.82308 
L 651.351692 -206.468367 
L 649.04451 -205.079587 
L 646.737327 -203.674269 
L 644.430145 -202.271035 
L 642.122963 -200.889898 
L 639.81578 -199.552552 
L 637.508598 -198.282387 
L 635.201415 -197.104026 
L 632.894233 -196.042268 
L 630.58705 -195.120491 
L 628.279868 -194.358733 
L 625.972686 -193.771792 
L 623.665503 -193.367709 
L 621.358321 -193.146937 
L 619.051138 -193.102375 
L 616.743956 -193.22024 
L 614.436773 -193.481591 
L 612.129591 -193.864195 
L 609.822409 -194.344405 
L 607.515226 -194.89878 
L 605.208044 -195.505309 
L 602.900861 -196.144237 
L 600.593679 -196.798606 
L 598.286496 -197.454633 
L 595.979314 -198.101982 
L 593.672131 -198.733911 
L 591.364949 -199.347174 
L 589.057767 -199.94156 
L 586.750584 -200.519019 
L 584.443402 -201.082488 
L 582.136219 -201.634656 
L 579.829037 -202.176979 
L 577.521854 -202.709221 
L 575.214672 -203.229648 
L 572.90749 -203.735801 
L 570.600307 -204.225617 
L 568.293125 -204.698556 
L 565.985942 -205.156435 
L 563.67876 -205.603734 
L 561.371577 -206.047318 
L 559.064395 -206.49558 
L 556.757213 -206.957185 
L 554.45003 -207.439593 
L 552.142848 -207.947612 
L 549.835665 -208.482252 
L 547.528483 -209.040095 
L 545.2213 -209.613383 
L 542.914118 -210.190861 
L 540.606935 -210.759276 
L 538.299753 -211.305277 
L 535.992571 -211.817338 
L 533.685388 -212.287325 
L 531.378206 -212.711404 
L 529.071023 -213.090147 
L 526.763841 -213.427903 
L 524.456658 -213.731627 
L 522.149476 -214.009499 
L 519.842294 -214.269615 
L 517.535111 -214.518992 
L 515.227929 -214.762987 
L 512.920746 -215.005116 
L 510.613564 -215.247192 
L 508.306381 -215.489625 
L 505.999199 -215.731786 
L 503.692017 -215.972324 
L 501.384834 -216.209423 
L 499.077652 -216.440982 
L 496.770469 -216.66474 
L 494.463287 -216.87839 
L 492.156104 -217.079668 
L 489.848922 -217.266429 
L 487.541739 -217.43669 
L 485.234557 -217.588611 
L 482.927375 -217.720396 
L 480.620192 -217.830116 
L 478.31301 -217.915469 
L 476.005827 -217.973519 
L 473.698645 -218.000528 
L 471.391462 -217.991973 
L 469.08428 -217.94288 
L 466.777098 -217.84859 
L 464.469915 -217.705946 
L 462.162733 -217.5148 
L 459.85555 -217.279569 
L 457.548368 -217.010427 
L 455.241185 -216.723678 
L 452.934003 -216.440954 
L 450.626821 -216.187099 
L 448.319638 -215.98696 
L 446.012456 -215.861639 
L 443.705273 -215.82501 
z
" id="m5f06a1a86a" style="stroke:#575757;"/>
    </defs>
    <g clip-path="url(#p1ac574f07c)">
     <use style="fill:#7c78ab;stroke:#575757;" x="0" xlink:href="#m5f06a1a86a" y="316.395"/>
    </g>
   </g>
   <g id="PolyCollection_3">
    <defs>
     <path d="M 443.57436 -154.028839 
L 443.57436 -156.517411 
L 445.893931 -156.536803 
L 448.213502 -156.544867 
L 450.533072 -156.544163 
L 452.852643 -156.538248 
L 455.172214 -156.531562 
L 457.491784 -156.529278 
L 459.811355 -156.537115 
L 462.130926 -156.561142 
L 464.450497 -156.607583 
L 466.770067 -156.682624 
L 469.089638 -156.792227 
L 471.409209 -156.941959 
L 473.728779 -157.136822 
L 476.04835 -157.381088 
L 478.367921 -157.678132 
L 480.687492 -158.030268 
L 483.007062 -158.438587 
L 485.326633 -158.902817 
L 487.646204 -159.421205 
L 489.965774 -159.99045 
L 492.285345 -160.605687 
L 494.604916 -161.260549 
L 496.924486 -161.9473 
L 499.244057 -162.65704 
L 501.563628 -163.379982 
L 503.883199 -164.105768 
L 506.202769 -164.823815 
L 508.52234 -165.523668 
L 510.841911 -166.195319 
L 513.161481 -166.829492 
L 515.481052 -167.41787 
L 517.800623 -167.95325 
L 520.120194 -168.429649 
L 522.439764 -168.842342 
L 524.759335 -169.187876 
L 527.078906 -169.46405 
L 529.398476 -169.669896 
L 531.718047 -169.805669 
L 534.037618 -169.872845 
L 536.357189 -169.874141 
L 538.676759 -169.813537 
L 540.99633 -169.696288 
L 543.315901 -169.528919 
L 545.635471 -169.319169 
L 547.955042 -169.075872 
L 550.274613 -168.808772 
L 552.594183 -168.528253 
L 554.913754 -168.245006 
L 557.233325 -167.969644 
L 559.552896 -167.712283 
L 561.872466 -167.482142 
L 564.192037 -167.287181 
L 566.511608 -167.133828 
L 568.831178 -167.026814 
L 571.150749 -166.96915 
L 573.47032 -166.962252 
L 575.789891 -167.006191 
L 578.109461 -167.10008 
L 580.429032 -167.242511 
L 582.748603 -167.432042 
L 585.068173 -167.667635 
L 587.387744 -167.949014 
L 589.707315 -168.276877 
L 592.026886 -168.652931 
L 594.346456 -169.079721 
L 596.666027 -169.560262 
L 598.985598 -170.09749 
L 601.305168 -170.693586 
L 603.624739 -171.349227 
L 605.94431 -172.062855 
L 608.26388 -172.830024 
L 610.583451 -173.64292 
L 612.903022 -174.4901 
L 615.222593 -175.356504 
L 617.542163 -176.223738 
L 619.861734 -177.070638 
L 622.181305 -177.874061 
L 624.500875 -178.609854 
L 626.820446 -179.253923 
L 629.140017 -179.78333 
L 631.459588 -180.177338 
L 633.779158 -180.418342 
L 636.098729 -180.492625 
L 638.4183 -180.390922 
L 640.73787 -180.108761 
L 643.057441 -179.646591 
L 645.377012 -179.0097 
L 647.696583 -178.207954 
L 650.016153 -177.255377 
L 652.335724 -176.169593 
L 654.655295 -174.971166 
L 656.974865 -173.682865 
L 659.294436 -172.328868 
L 661.614007 -170.93395 
L 663.933577 -169.522668 
L 666.253148 -168.118596 
L 668.572719 -166.743608 
L 670.89229 -165.417274 
L 673.21186 -164.156372 
L 673.21186 -146.389878 
L 673.21186 -146.389878 
L 670.89229 -145.128976 
L 668.572719 -143.802642 
L 666.253148 -142.427654 
L 663.933577 -141.023582 
L 661.614007 -139.6123 
L 659.294436 -138.217382 
L 656.974865 -136.863385 
L 654.655295 -135.575084 
L 652.335724 -134.376657 
L 650.016153 -133.290873 
L 647.696583 -132.338296 
L 645.377012 -131.53655 
L 643.057441 -130.899659 
L 640.73787 -130.437489 
L 638.4183 -130.155328 
L 636.098729 -130.053625 
L 633.779158 -130.127908 
L 631.459588 -130.368912 
L 629.140017 -130.76292 
L 626.820446 -131.292327 
L 624.500875 -131.936396 
L 622.181305 -132.672189 
L 619.861734 -133.475612 
L 617.542163 -134.322512 
L 615.222593 -135.189746 
L 612.903022 -136.05615 
L 610.583451 -136.90333 
L 608.26388 -137.716226 
L 605.94431 -138.483395 
L 603.624739 -139.197023 
L 601.305168 -139.852664 
L 598.985598 -140.44876 
L 596.666027 -140.985988 
L 594.346456 -141.466529 
L 592.026886 -141.893319 
L 589.707315 -142.269373 
L 587.387744 -142.597236 
L 585.068173 -142.878615 
L 582.748603 -143.114208 
L 580.429032 -143.303739 
L 578.109461 -143.44617 
L 575.789891 -143.540059 
L 573.47032 -143.583998 
L 571.150749 -143.5771 
L 568.831178 -143.519436 
L 566.511608 -143.412422 
L 564.192037 -143.259069 
L 561.872466 -143.064108 
L 559.552896 -142.833967 
L 557.233325 -142.576606 
L 554.913754 -142.301244 
L 552.594183 -142.017997 
L 550.274613 -141.737478 
L 547.955042 -141.470378 
L 545.635471 -141.227081 
L 543.315901 -141.017331 
L 540.99633 -140.849962 
L 538.676759 -140.732713 
L 536.357189 -140.672109 
L 534.037618 -140.673405 
L 531.718047 -140.740581 
L 529.398476 -140.876354 
L 527.078906 -141.0822 
L 524.759335 -141.358374 
L 522.439764 -141.703908 
L 520.120194 -142.116601 
L 517.800623 -142.593 
L 515.481052 -143.12838 
L 513.161481 -143.716758 
L 510.841911 -144.350931 
L 508.52234 -145.022582 
L 506.202769 -145.722435 
L 503.883199 -146.440482 
L 501.563628 -147.166268 
L 499.244057 -147.88921 
L 496.924486 -148.59895 
L 494.604916 -149.285701 
L 492.285345 -149.940563 
L 489.965774 -150.5558 
L 487.646204 -151.125045 
L 485.326633 -151.643433 
L 483.007062 -152.107663 
L 480.687492 -152.515982 
L 478.367921 -152.868118 
L 476.04835 -153.165162 
L 473.728779 -153.409428 
L 471.409209 -153.604291 
L 469.089638 -153.754023 
L 466.770067 -153.863626 
L 464.450497 -153.938667 
L 462.130926 -153.985108 
L 459.811355 -154.009135 
L 457.491784 -154.016972 
L 455.172214 -154.014688 
L 452.852643 -154.008002 
L 450.533072 -154.002087 
L 448.213502 -154.001383 
L 445.893931 -154.009447 
L 443.57436 -154.028839 
z
" id="m12e3cb2a15" style="stroke:#575757;"/>
    </defs>
    <g clip-path="url(#p1ac574f07c)">
     <use style="fill:#7c78ab;stroke:#575757;" x="0" xlink:href="#m12e3cb2a15" y="316.395"/>
    </g>
   </g>
   <g id="PolyCollection_4">
    <defs>
     <path d="M 477.406194 -77.751171 
L 477.406194 -106.697579 
L 479.358502 -107.383475 
L 481.31081 -108.051936 
L 483.263119 -108.698496 
L 485.215427 -109.318796 
L 487.167735 -109.908648 
L 489.120044 -110.46408 
L 491.072352 -110.981396 
L 493.02466 -111.457217 
L 494.976969 -111.888528 
L 496.929277 -112.272709 
L 498.881585 -112.607568 
L 500.833894 -112.891361 
L 502.786202 -113.122809 
L 504.73851 -113.301106 
L 506.690818 -113.425919 
L 508.643127 -113.497383 
L 510.595435 -113.51609 
L 512.547743 -113.48307 
L 514.500052 -113.39977 
L 516.45236 -113.268024 
L 518.404668 -113.090024 
L 520.356977 -112.868291 
L 522.309285 -112.605634 
L 524.261593 -112.305117 
L 526.213902 -111.970026 
L 528.16621 -111.60383 
L 530.118518 -111.210149 
L 532.070827 -110.792721 
L 534.023135 -110.355374 
L 535.975443 -109.901997 
L 537.927751 -109.436512 
L 539.88006 -108.962855 
L 541.832368 -108.484955 
L 543.784676 -108.006713 
L 545.736985 -107.531988 
L 547.689293 -107.064581 
L 549.641601 -106.60822 
L 551.59391 -106.166549 
L 553.546218 -105.743114 
L 555.498526 -105.341349 
L 557.450835 -104.964566 
L 559.403143 -104.615935 
L 561.355451 -104.298475 
L 563.307759 -104.015036 
L 565.260068 -103.768278 
L 567.212376 -103.560659 
L 569.164684 -103.39441 
L 571.116993 -103.27152 
L 573.069301 -103.19371 
L 575.021609 -103.162418 
L 576.973918 -103.178775 
L 578.926226 -103.243587 
L 580.878534 -103.357315 
L 582.830843 -103.520062 
L 584.783151 -103.731553 
L 586.735459 -103.991126 
L 588.687768 -104.297725 
L 590.640076 -104.649889 
L 592.592384 -105.045752 
L 594.544692 -105.483045 
L 596.497001 -105.959101 
L 598.449309 -106.470864 
L 600.401617 -107.014903 
L 602.353926 -107.587429 
L 604.306234 -108.184316 
L 606.258542 -108.801131 
L 608.210851 -109.433157 
L 610.163159 -110.075433 
L 612.115467 -110.722787 
L 614.067776 -111.369874 
L 616.020084 -112.011225 
L 617.972392 -112.641289 
L 619.924701 -113.254478 
L 621.877009 -113.845225 
L 623.829317 -114.408029 
L 625.781625 -114.93751 
L 627.733934 -115.428462 
L 629.686242 -115.875909 
L 631.63855 -116.275157 
L 633.590859 -116.621845 
L 635.543167 -116.912 
L 637.495475 -117.142079 
L 639.447784 -117.30902 
L 641.400092 -117.410281 
L 643.3524 -117.443875 
L 645.304709 -117.408403 
L 647.257017 -117.303075 
L 649.209325 -117.127733 
L 651.161634 -116.882852 
L 653.113942 -116.56955 
L 655.06625 -116.189574 
L 657.018558 -115.745284 
L 658.970867 -115.239634 
L 660.923175 -114.676129 
L 662.875483 -114.058787 
L 664.827792 -113.392088 
L 666.7801 -112.680916 
L 668.732408 -111.930496 
L 670.684717 -111.146321 
L 670.684717 -73.302429 
L 670.684717 -73.302429 
L 668.732408 -72.518254 
L 666.7801 -71.767834 
L 664.827792 -71.056662 
L 662.875483 -70.389963 
L 660.923175 -69.772621 
L 658.970867 -69.209116 
L 657.018558 -68.703466 
L 655.06625 -68.259176 
L 653.113942 -67.8792 
L 651.161634 -67.565898 
L 649.209325 -67.321017 
L 647.257017 -67.145675 
L 645.304709 -67.040347 
L 643.3524 -67.004875 
L 641.400092 -67.038469 
L 639.447784 -67.13973 
L 637.495475 -67.306671 
L 635.543167 -67.53675 
L 633.590859 -67.826905 
L 631.63855 -68.173593 
L 629.686242 -68.572841 
L 627.733934 -69.020288 
L 625.781625 -69.51124 
L 623.829317 -70.040721 
L 621.877009 -70.603525 
L 619.924701 -71.194272 
L 617.972392 -71.807461 
L 616.020084 -72.437525 
L 614.067776 -73.078876 
L 612.115467 -73.725963 
L 610.163159 -74.373317 
L 608.210851 -75.015593 
L 606.258542 -75.647619 
L 604.306234 -76.264434 
L 602.353926 -76.861321 
L 600.401617 -77.433847 
L 598.449309 -77.977886 
L 596.497001 -78.489649 
L 594.544692 -78.965705 
L 592.592384 -79.402998 
L 590.640076 -79.798861 
L 588.687768 -80.151025 
L 586.735459 -80.457624 
L 584.783151 -80.717197 
L 582.830843 -80.928688 
L 580.878534 -81.091435 
L 578.926226 -81.205163 
L 576.973918 -81.269975 
L 575.021609 -81.286332 
L 573.069301 -81.25504 
L 571.116993 -81.17723 
L 569.164684 -81.05434 
L 567.212376 -80.888091 
L 565.260068 -80.680472 
L 563.307759 -80.433714 
L 561.355451 -80.150275 
L 559.403143 -79.832815 
L 557.450835 -79.484184 
L 555.498526 -79.107401 
L 553.546218 -78.705636 
L 551.59391 -78.282201 
L 549.641601 -77.84053 
L 547.689293 -77.384169 
L 545.736985 -76.916762 
L 543.784676 -76.442037 
L 541.832368 -75.963795 
L 539.88006 -75.485895 
L 537.927751 -75.012238 
L 535.975443 -74.546753 
L 534.023135 -74.093376 
L 532.070827 -73.656029 
L 530.118518 -73.238601 
L 528.16621 -72.84492 
L 526.213902 -72.478724 
L 524.261593 -72.143633 
L 522.309285 -71.843116 
L 520.356977 -71.580459 
L 518.404668 -71.358726 
L 516.45236 -71.180726 
L 514.500052 -71.04898 
L 512.547743 -70.96568 
L 510.595435 -70.93266 
L 508.643127 -70.951367 
L 506.690818 -71.022831 
L 504.73851 -71.147644 
L 502.786202 -71.325941 
L 500.833894 -71.557389 
L 498.881585 -71.841182 
L 496.929277 -72.176041 
L 494.976969 -72.560222 
L 493.02466 -72.991533 
L 491.072352 -73.467354 
L 489.120044 -73.98467 
L 487.167735 -74.540102 
L 485.215427 -75.129954 
L 483.263119 -75.750254 
L 481.31081 -76.396814 
L 479.358502 -77.065275 
L 477.406194 -77.751171 
z
" id="m2d6c7e412a" style="stroke:#575757;"/>
    </defs>
    <g clip-path="url(#p1ac574f07c)">
     <use style="fill:#7c78ab;stroke:#575757;" x="0" xlink:href="#m2d6c7e412a" y="316.395"/>
    </g>
   </g>
   <g id="patch_46">
    <path clip-path="url(#p1ac574f07c)" d="M 443.943 35.024375 
L 443.943 35.024375 
L 443.943 35.024375 
L 443.943 35.024375 
z
" style="fill:#7c78ab;stroke:#575757;stroke-linejoin:miter;stroke-width:0.5;"/>
   </g>
   <g id="matplotlib.axis_3">
    <g id="xtick_5">
     <g id="line2d_10">
      <g>
       <use style="stroke:#000000;stroke-width:1.6;" x="443.943" xlink:href="#mc42c889875" y="255.695"/>
      </g>
     </g>
     <g id="text_11">
      <!-- 0.0 -->
      <g transform="translate(428.039875 285.591875)scale(0.2 -0.2)">
       <use xlink:href="#DejaVuSans-48"/>
       <use x="63.623047" xlink:href="#DejaVuSans-46"/>
       <use x="95.410156" xlink:href="#DejaVuSans-48"/>
      </g>
     </g>
    </g>
    <g id="xtick_6">
     <g id="line2d_11">
      <g>
       <use style="stroke:#000000;stroke-width:1.6;" x="511.195" xlink:href="#mc42c889875" y="255.695"/>
      </g>
     </g>
     <g id="text_12">
      <!-- 0.2 -->
      <g transform="translate(495.291875 285.591875)scale(0.2 -0.2)">
       <use xlink:href="#DejaVuSans-48"/>
       <use x="63.623047" xlink:href="#DejaVuSans-46"/>
       <use x="95.410156" xlink:href="#DejaVuSans-50"/>
      </g>
     </g>
    </g>
    <g id="xtick_7">
     <g id="line2d_12">
      <g>
       <use style="stroke:#000000;stroke-width:1.6;" x="578.447" xlink:href="#mc42c889875" y="255.695"/>
      </g>
     </g>
     <g id="text_13">
      <!-- 0.4 -->
      <g transform="translate(562.543875 285.591875)scale(0.2 -0.2)">
       <use xlink:href="#DejaVuSans-48"/>
       <use x="63.623047" xlink:href="#DejaVuSans-46"/>
       <use x="95.410156" xlink:href="#DejaVuSans-52"/>
      </g>
     </g>
    </g>
    <g id="xtick_8">
     <g id="line2d_13">
      <g>
       <use style="stroke:#000000;stroke-width:1.6;" x="645.699" xlink:href="#mc42c889875" y="255.695"/>
      </g>
     </g>
     <g id="text_14">
      <!-- 0.6 -->
      <g transform="translate(629.795875 285.591875)scale(0.2 -0.2)">
       <use xlink:href="#DejaVuSans-48"/>
       <use x="63.623047" xlink:href="#DejaVuSans-46"/>
       <use x="95.410156" xlink:href="#DejaVuSans-54"/>
      </g>
     </g>
    </g>
    <g id="text_15">
     <!-- Max Attention -->
     <defs>
      <path d="M 34.1875 63.1875 
L 20.796875 26.90625 
L 47.609375 26.90625 
z
M 28.609375 72.90625 
L 39.796875 72.90625 
L 67.578125 0 
L 57.328125 0 
L 50.6875 18.703125 
L 17.828125 18.703125 
L 11.1875 0 
L 0.78125 0 
z
" id="DejaVuSans-65"/>
      <path d="M 30.609375 48.390625 
Q 23.390625 48.390625 19.1875 42.75 
Q 14.984375 37.109375 14.984375 27.296875 
Q 14.984375 17.484375 19.15625 11.84375 
Q 23.34375 6.203125 30.609375 6.203125 
Q 37.796875 6.203125 41.984375 11.859375 
Q 46.1875 17.53125 46.1875 27.296875 
Q 46.1875 37.015625 41.984375 42.703125 
Q 37.796875 48.390625 30.609375 48.390625 
z
M 30.609375 56 
Q 42.328125 56 49.015625 48.375 
Q 55.71875 40.765625 55.71875 27.296875 
Q 55.71875 13.875 49.015625 6.21875 
Q 42.328125 -1.421875 30.609375 -1.421875 
Q 18.84375 -1.421875 12.171875 6.21875 
Q 5.515625 13.875 5.515625 27.296875 
Q 5.515625 40.765625 12.171875 48.375 
Q 18.84375 56 30.609375 56 
z
" id="DejaVuSans-111"/>
     </defs>
     <g transform="translate(483.049375 308.948125)scale(0.2 -0.2)">
      <use xlink:href="#DejaVuSans-77"/>
      <use x="86.279297" xlink:href="#DejaVuSans-97"/>
      <use x="147.558594" xlink:href="#DejaVuSans-120"/>
      <use x="206.738281" xlink:href="#DejaVuSans-32"/>
      <use x="238.525391" xlink:href="#DejaVuSans-65"/>
      <use x="306.917969" xlink:href="#DejaVuSans-116"/>
      <use x="346.126953" xlink:href="#DejaVuSans-116"/>
      <use x="385.335938" xlink:href="#DejaVuSans-101"/>
      <use x="446.859375" xlink:href="#DejaVuSans-110"/>
      <use x="510.238281" xlink:href="#DejaVuSans-116"/>
      <use x="549.447266" xlink:href="#DejaVuSans-105"/>
      <use x="577.230469" xlink:href="#DejaVuSans-111"/>
      <use x="638.412109" xlink:href="#DejaVuSans-110"/>
     </g>
    </g>
   </g>
   <g id="matplotlib.axis_4">
    <g id="ytick_6">
     <g id="line2d_14">
      <g>
       <use style="stroke:#000000;stroke-width:1.6;" x="427.13" xlink:href="#m1a8d5a2bbb" y="35.024375"/>
      </g>
     </g>
     <g id="text_16">
      <!-- [0.00, -->
      <defs>
       <path d="M 8.59375 75.984375 
L 29.296875 75.984375 
L 29.296875 69 
L 17.578125 69 
L 17.578125 -6.203125 
L 29.296875 -6.203125 
L 29.296875 -13.1875 
L 8.59375 -13.1875 
z
" id="DejaVuSans-91"/>
       <path d="M 11.71875 12.40625 
L 22.015625 12.40625 
L 22.015625 4 
L 14.015625 -11.625 
L 7.71875 -11.625 
L 11.71875 4 
z
" id="DejaVuSans-44"/>
      </defs>
      <g transform="translate(353.739375 31.425)scale(0.2 -0.2)">
       <use xlink:href="#DejaVuSans-91"/>
       <use x="39.013672" xlink:href="#DejaVuSans-48"/>
       <use x="102.636719" xlink:href="#DejaVuSans-46"/>
       <use x="134.423828" xlink:href="#DejaVuSans-48"/>
       <use x="198.046875" xlink:href="#DejaVuSans-48"/>
       <use x="261.669922" xlink:href="#DejaVuSans-44"/>
      </g>
      <!-- 0.25) -->
      <defs>
       <path d="M 10.796875 72.90625 
L 49.515625 72.90625 
L 49.515625 64.59375 
L 19.828125 64.59375 
L 19.828125 46.734375 
Q 21.96875 47.46875 24.109375 47.828125 
Q 26.265625 48.1875 28.421875 48.1875 
Q 40.625 48.1875 47.75 41.5 
Q 54.890625 34.8125 54.890625 23.390625 
Q 54.890625 11.625 47.5625 5.09375 
Q 40.234375 -1.421875 26.90625 -1.421875 
Q 22.3125 -1.421875 17.546875 -0.640625 
Q 12.796875 0.140625 7.71875 1.703125 
L 7.71875 11.625 
Q 12.109375 9.234375 16.796875 8.0625 
Q 21.484375 6.890625 26.703125 6.890625 
Q 35.15625 6.890625 40.078125 11.328125 
Q 45.015625 15.765625 45.015625 23.390625 
Q 45.015625 31 40.078125 35.4375 
Q 35.15625 39.890625 26.703125 39.890625 
Q 22.75 39.890625 18.8125 39.015625 
Q 14.890625 38.140625 10.796875 36.28125 
z
" id="DejaVuSans-53"/>
       <path d="M 8.015625 75.875 
L 15.828125 75.875 
Q 23.140625 64.359375 26.78125 53.3125 
Q 30.421875 42.28125 30.421875 31.390625 
Q 30.421875 20.453125 26.78125 9.375 
Q 23.140625 -1.703125 15.828125 -13.1875 
L 8.015625 -13.1875 
Q 14.5 -2 17.703125 9.0625 
Q 20.90625 20.125 20.90625 31.390625 
Q 20.90625 42.671875 17.703125 53.65625 
Q 14.5 64.65625 8.015625 75.875 
z
" id="DejaVuSans-41"/>
      </defs>
      <g transform="translate(360.095625 53.820625)scale(0.2 -0.2)">
       <use xlink:href="#DejaVuSans-48"/>
       <use x="63.623047" xlink:href="#DejaVuSans-46"/>
       <use x="95.410156" xlink:href="#DejaVuSans-50"/>
       <use x="159.033203" xlink:href="#DejaVuSans-53"/>
       <use x="222.65625" xlink:href="#DejaVuSans-41"/>
      </g>
     </g>
    </g>
    <g id="ytick_7">
     <g id="line2d_15">
      <g>
       <use style="stroke:#000000;stroke-width:1.6;" x="427.13" xlink:href="#m1a8d5a2bbb" y="98.073125"/>
      </g>
     </g>
     <g id="text_17">
      <!-- [0.25, -->
      <g transform="translate(353.739375 94.47375)scale(0.2 -0.2)">
       <use xlink:href="#DejaVuSans-91"/>
       <use x="39.013672" xlink:href="#DejaVuSans-48"/>
       <use x="102.636719" xlink:href="#DejaVuSans-46"/>
       <use x="134.423828" xlink:href="#DejaVuSans-50"/>
       <use x="198.046875" xlink:href="#DejaVuSans-53"/>
       <use x="261.669922" xlink:href="#DejaVuSans-44"/>
      </g>
      <!-- 0.50) -->
      <g transform="translate(360.095625 116.869375)scale(0.2 -0.2)">
       <use xlink:href="#DejaVuSans-48"/>
       <use x="63.623047" xlink:href="#DejaVuSans-46"/>
       <use x="95.410156" xlink:href="#DejaVuSans-53"/>
       <use x="159.033203" xlink:href="#DejaVuSans-48"/>
       <use x="222.65625" xlink:href="#DejaVuSans-41"/>
      </g>
     </g>
    </g>
    <g id="ytick_8">
     <g id="line2d_16">
      <g>
       <use style="stroke:#000000;stroke-width:1.6;" x="427.13" xlink:href="#m1a8d5a2bbb" y="161.121875"/>
      </g>
     </g>
     <g id="text_18">
      <!-- [0.50, -->
      <g transform="translate(353.739375 157.5225)scale(0.2 -0.2)">
       <use xlink:href="#DejaVuSans-91"/>
       <use x="39.013672" xlink:href="#DejaVuSans-48"/>
       <use x="102.636719" xlink:href="#DejaVuSans-46"/>
       <use x="134.423828" xlink:href="#DejaVuSans-53"/>
       <use x="198.046875" xlink:href="#DejaVuSans-48"/>
       <use x="261.669922" xlink:href="#DejaVuSans-44"/>
      </g>
      <!-- 0.75) -->
      <defs>
       <path d="M 8.203125 72.90625 
L 55.078125 72.90625 
L 55.078125 68.703125 
L 28.609375 0 
L 18.3125 0 
L 43.21875 64.59375 
L 8.203125 64.59375 
z
" id="DejaVuSans-55"/>
      </defs>
      <g transform="translate(360.095625 179.918125)scale(0.2 -0.2)">
       <use xlink:href="#DejaVuSans-48"/>
       <use x="63.623047" xlink:href="#DejaVuSans-46"/>
       <use x="95.410156" xlink:href="#DejaVuSans-55"/>
       <use x="159.033203" xlink:href="#DejaVuSans-53"/>
       <use x="222.65625" xlink:href="#DejaVuSans-41"/>
      </g>
     </g>
    </g>
    <g id="ytick_9">
     <g id="line2d_17">
      <g>
       <use style="stroke:#000000;stroke-width:1.6;" x="427.13" xlink:href="#m1a8d5a2bbb" y="224.170625"/>
      </g>
     </g>
     <g id="text_19">
      <!-- [0.75, -->
      <g transform="translate(353.739375 220.57125)scale(0.2 -0.2)">
       <use xlink:href="#DejaVuSans-91"/>
       <use x="39.013672" xlink:href="#DejaVuSans-48"/>
       <use x="102.636719" xlink:href="#DejaVuSans-46"/>
       <use x="134.423828" xlink:href="#DejaVuSans-55"/>
       <use x="198.046875" xlink:href="#DejaVuSans-53"/>
       <use x="261.669922" xlink:href="#DejaVuSans-44"/>
      </g>
      <!-- 1.00) -->
      <defs>
       <path d="M 12.40625 8.296875 
L 28.515625 8.296875 
L 28.515625 63.921875 
L 10.984375 60.40625 
L 10.984375 69.390625 
L 28.421875 72.90625 
L 38.28125 72.90625 
L 38.28125 8.296875 
L 54.390625 8.296875 
L 54.390625 0 
L 12.40625 0 
z
" id="DejaVuSans-49"/>
      </defs>
      <g transform="translate(360.095625 242.966875)scale(0.2 -0.2)">
       <use xlink:href="#DejaVuSans-49"/>
       <use x="63.623047" xlink:href="#DejaVuSans-46"/>
       <use x="95.410156" xlink:href="#DejaVuSans-48"/>
       <use x="159.033203" xlink:href="#DejaVuSans-48"/>
       <use x="222.65625" xlink:href="#DejaVuSans-41"/>
      </g>
     </g>
    </g>
    <g id="text_20">
     <!-- Max JS Divergence within $\epsilon$ -->
     <g transform="translate(345.539375 265.1975)rotate(-90)scale(0.2 -0.2)">
      <use transform="translate(0 0.015625)" xlink:href="#DejaVuSans-77"/>
      <use transform="translate(86.279297 0.015625)" xlink:href="#DejaVuSans-97"/>
      <use transform="translate(147.558594 0.015625)" xlink:href="#DejaVuSans-120"/>
      <use transform="translate(206.738281 0.015625)" xlink:href="#DejaVuSans-32"/>
      <use transform="translate(238.525391 0.015625)" xlink:href="#DejaVuSans-74"/>
      <use transform="translate(268.017578 0.015625)" xlink:href="#DejaVuSans-83"/>
      <use transform="translate(331.494141 0.015625)" xlink:href="#DejaVuSans-32"/>
      <use transform="translate(363.28125 0.015625)" xlink:href="#DejaVuSans-68"/>
      <use transform="translate(440.283203 0.015625)" xlink:href="#DejaVuSans-105"/>
      <use transform="translate(468.066406 0.015625)" xlink:href="#DejaVuSans-118"/>
      <use transform="translate(527.246094 0.015625)" xlink:href="#DejaVuSans-101"/>
      <use transform="translate(588.769531 0.015625)" xlink:href="#DejaVuSans-114"/>
      <use transform="translate(629.882812 0.015625)" xlink:href="#DejaVuSans-103"/>
      <use transform="translate(693.359375 0.015625)" xlink:href="#DejaVuSans-101"/>
      <use transform="translate(754.882812 0.015625)" xlink:href="#DejaVuSans-110"/>
      <use transform="translate(818.261719 0.015625)" xlink:href="#DejaVuSans-99"/>
      <use transform="translate(873.242188 0.015625)" xlink:href="#DejaVuSans-101"/>
      <use transform="translate(934.765625 0.015625)" xlink:href="#DejaVuSans-32"/>
      <use transform="translate(966.552734 0.015625)" xlink:href="#DejaVuSans-119"/>
      <use transform="translate(1048.339844 0.015625)" xlink:href="#DejaVuSans-105"/>
      <use transform="translate(1076.123047 0.015625)" xlink:href="#DejaVuSans-116"/>
      <use transform="translate(1115.332031 0.015625)" xlink:href="#DejaVuSans-104"/>
      <use transform="translate(1178.710938 0.015625)" xlink:href="#DejaVuSans-105"/>
      <use transform="translate(1206.494141 0.015625)" xlink:href="#DejaVuSans-110"/>
      <use transform="translate(1269.873047 0.015625)" xlink:href="#DejaVuSans-32"/>
      <use transform="translate(1301.660156 0.015625)" xlink:href="#DejaVuSans-Oblique-949"/>
     </g>
    </g>
   </g>
   <g id="line2d_18">
    <path clip-path="url(#p1ac574f07c)" style="fill:none;stroke:#575757;stroke-dasharray:1.5,1.5;stroke-dashoffset:0;"/>
   </g>
   <g id="line2d_19">
    <path clip-path="url(#p1ac574f07c)" style="fill:none;stroke:#575757;stroke-dasharray:3,3;stroke-dashoffset:0;"/>
   </g>
   <g id="line2d_20">
    <path clip-path="url(#p1ac574f07c)" style="fill:none;stroke:#575757;stroke-dasharray:1.5,1.5;stroke-dashoffset:0;"/>
   </g>
   <g id="line2d_21">
    <path clip-path="url(#p1ac574f07c)" style="fill:none;stroke:#575757;stroke-dasharray:1.5,1.5;stroke-dashoffset:0;"/>
   </g>
   <g id="line2d_22">
    <path clip-path="url(#p1ac574f07c)" style="fill:none;stroke:#575757;stroke-dasharray:3,3;stroke-dashoffset:0;"/>
   </g>
   <g id="line2d_23">
    <path clip-path="url(#p1ac574f07c)" style="fill:none;stroke:#575757;stroke-dasharray:1.5,1.5;stroke-dashoffset:0;"/>
   </g>
   <g id="line2d_24">
    <path clip-path="url(#p1ac574f07c)" style="fill:none;stroke:#575757;stroke-dasharray:1.5,1.5;stroke-dashoffset:0;"/>
   </g>
   <g id="line2d_25">
    <path clip-path="url(#p1ac574f07c)" style="fill:none;stroke:#575757;stroke-dasharray:3,3;stroke-dashoffset:0;"/>
   </g>
   <g id="line2d_26">
    <path clip-path="url(#p1ac574f07c)" style="fill:none;stroke:#575757;stroke-dasharray:1.5,1.5;stroke-dashoffset:0;"/>
   </g>
   <g id="line2d_27">
    <path clip-path="url(#p1ac574f07c)" style="fill:none;stroke:#575757;stroke-dasharray:1.5,1.5;stroke-dashoffset:0;"/>
   </g>
   <g id="line2d_28">
    <path clip-path="url(#p1ac574f07c)" style="fill:none;stroke:#575757;stroke-dasharray:3,3;stroke-dashoffset:0;"/>
   </g>
   <g id="line2d_29">
    <path clip-path="url(#p1ac574f07c)" style="fill:none;stroke:#575757;stroke-dasharray:1.5,1.5;stroke-dashoffset:0;"/>
   </g>
   <g id="patch_47">
    <path style="fill:none;stroke:#000000;stroke-linecap:square;stroke-linejoin:miter;stroke-width:0.8;"/>
   </g>
   <g id="patch_48">
    <path style="fill:none;stroke:#000000;stroke-linecap:square;stroke-linejoin:miter;stroke-width:0.8;"/>
   </g>
  </g>
 </g>
 <defs>
  <clipPath id="pad1b3972a9">
   <rect height="252.195" width="252.195" x="59.575" y="3.5"/>
  </clipPath>
  <clipPath id="p1ac574f07c">
   <rect height="252.195" width="252.195" x="427.13" y="3.5"/>
  </clipPath>
 </defs>
</svg>
