<?xml version="1.0" encoding="utf-8" standalone="no"?>
<!DOCTYPE svg PUBLIC "-//W3C//DTD SVG 1.1//EN"
  "http://www.w3.org/Graphics/SVG/1.1/DTD/svg11.dtd">
<!-- Created with matplotlib (https://matplotlib.org/) -->
<svg height="323.353333pt" version="1.1" viewBox="0 0 312.49737 323.353333" width="312.49737pt" xmlns="http://www.w3.org/2000/svg" xmlns:xlink="http://www.w3.org/1999/xlink">
 <defs>
  <style type="text/css">
*{stroke-linecap:butt;stroke-linejoin:round;}
  </style>
 </defs>
 <g id="figure_1">
  <g id="patch_1">
   <path d="M 0 323.353333 
L 312.49737 323.353333 
L 312.49737 -0 
L 0 -0 
z
" style="fill:#ffffff;"/>
  </g>
  <g id="axes_1">
   <g id="patch_2">
    <path d="M 46.7 262.653333 
L 305.853333 262.653333 
L 305.853333 3.5 
L 46.7 3.5 
z
" style="fill:#ffffff;"/>
   </g>
   <g id="patch_3">
    <path clip-path="url(#pafb9a3aa56)" d="M 58.479697 262.653333 
L 64.369545 262.653333 
L 64.369545 262.653333 
L 58.479697 262.653333 
z
" style="fill:#7570b3;opacity:0.6;stroke:#000000;stroke-linejoin:miter;stroke-width:0.5;"/>
   </g>
   <g id="patch_4">
    <path clip-path="url(#pafb9a3aa56)" d="M 64.369545 262.653333 
L 70.259394 262.653333 
L 70.259394 262.653333 
L 64.369545 262.653333 
z
" style="fill:#7570b3;opacity:0.6;stroke:#000000;stroke-linejoin:miter;stroke-width:0.5;"/>
   </g>
   <g id="patch_5">
    <path clip-path="url(#pafb9a3aa56)" d="M 70.259394 262.653333 
L 76.149242 262.653333 
L 76.149242 262.653333 
L 70.259394 262.653333 
z
" style="fill:#7570b3;opacity:0.6;stroke:#000000;stroke-linejoin:miter;stroke-width:0.5;"/>
   </g>
   <g id="patch_6">
    <path clip-path="url(#pafb9a3aa56)" d="M 76.149242 262.653333 
L 82.039091 262.653333 
L 82.039091 262.653333 
L 76.149242 262.653333 
z
" style="fill:#7570b3;opacity:0.6;stroke:#000000;stroke-linejoin:miter;stroke-width:0.5;"/>
   </g>
   <g id="patch_7">
    <path clip-path="url(#pafb9a3aa56)" d="M 82.039091 262.653333 
L 87.928939 262.653333 
L 87.928939 262.653333 
L 82.039091 262.653333 
z
" style="fill:#7570b3;opacity:0.6;stroke:#000000;stroke-linejoin:miter;stroke-width:0.5;"/>
   </g>
   <g id="patch_8">
    <path clip-path="url(#pafb9a3aa56)" d="M 87.928939 262.653333 
L 93.818788 262.653333 
L 93.818788 262.653333 
L 87.928939 262.653333 
z
" style="fill:#7570b3;opacity:0.6;stroke:#000000;stroke-linejoin:miter;stroke-width:0.5;"/>
   </g>
   <g id="patch_9">
    <path clip-path="url(#pafb9a3aa56)" d="M 93.818788 262.653333 
L 99.708636 262.653333 
L 99.708636 262.653333 
L 93.818788 262.653333 
z
" style="fill:#7570b3;opacity:0.6;stroke:#000000;stroke-linejoin:miter;stroke-width:0.5;"/>
   </g>
   <g id="patch_10">
    <path clip-path="url(#pafb9a3aa56)" d="M 99.708636 262.653333 
L 105.598485 262.653333 
L 105.598485 262.653333 
L 99.708636 262.653333 
z
" style="fill:#7570b3;opacity:0.6;stroke:#000000;stroke-linejoin:miter;stroke-width:0.5;"/>
   </g>
   <g id="patch_11">
    <path clip-path="url(#pafb9a3aa56)" d="M 105.598485 262.653333 
L 111.488333 262.653333 
L 111.488333 262.653333 
L 105.598485 262.653333 
z
" style="fill:#7570b3;opacity:0.6;stroke:#000000;stroke-linejoin:miter;stroke-width:0.5;"/>
   </g>
   <g id="patch_12">
    <path clip-path="url(#pafb9a3aa56)" d="M 111.488333 262.653333 
L 117.378182 262.653333 
L 117.378182 262.653333 
L 111.488333 262.653333 
z
" style="fill:#7570b3;opacity:0.6;stroke:#000000;stroke-linejoin:miter;stroke-width:0.5;"/>
   </g>
   <g id="patch_13">
    <path clip-path="url(#pafb9a3aa56)" d="M 117.378182 262.653333 
L 123.26803 262.653333 
L 123.26803 262.653333 
L 117.378182 262.653333 
z
" style="fill:#7570b3;opacity:0.6;stroke:#000000;stroke-linejoin:miter;stroke-width:0.5;"/>
   </g>
   <g id="patch_14">
    <path clip-path="url(#pafb9a3aa56)" d="M 123.26803 262.653333 
L 129.157879 262.653333 
L 129.157879 262.653333 
L 123.26803 262.653333 
z
" style="fill:#7570b3;opacity:0.6;stroke:#000000;stroke-linejoin:miter;stroke-width:0.5;"/>
   </g>
   <g id="patch_15">
    <path clip-path="url(#pafb9a3aa56)" d="M 129.157879 262.653333 
L 135.047727 262.653333 
L 135.047727 262.653333 
L 129.157879 262.653333 
z
" style="fill:#7570b3;opacity:0.6;stroke:#000000;stroke-linejoin:miter;stroke-width:0.5;"/>
   </g>
   <g id="patch_16">
    <path clip-path="url(#pafb9a3aa56)" d="M 135.047727 262.653333 
L 140.937576 262.653333 
L 140.937576 262.653333 
L 135.047727 262.653333 
z
" style="fill:#7570b3;opacity:0.6;stroke:#000000;stroke-linejoin:miter;stroke-width:0.5;"/>
   </g>
   <g id="patch_17">
    <path clip-path="url(#pafb9a3aa56)" d="M 140.937576 262.653333 
L 146.827424 262.653333 
L 146.827424 262.653333 
L 140.937576 262.653333 
z
" style="fill:#7570b3;opacity:0.6;stroke:#000000;stroke-linejoin:miter;stroke-width:0.5;"/>
   </g>
   <g id="patch_18">
    <path clip-path="url(#pafb9a3aa56)" d="M 146.827424 262.653333 
L 152.717273 262.653333 
L 152.717273 262.653333 
L 146.827424 262.653333 
z
" style="fill:#7570b3;opacity:0.6;stroke:#000000;stroke-linejoin:miter;stroke-width:0.5;"/>
   </g>
   <g id="patch_19">
    <path clip-path="url(#pafb9a3aa56)" d="M 152.717273 262.653333 
L 158.607121 262.653333 
L 158.607121 262.653333 
L 152.717273 262.653333 
z
" style="fill:#7570b3;opacity:0.6;stroke:#000000;stroke-linejoin:miter;stroke-width:0.5;"/>
   </g>
   <g id="patch_20">
    <path clip-path="url(#pafb9a3aa56)" d="M 158.607121 262.653333 
L 164.49697 262.653333 
L 164.49697 262.653333 
L 158.607121 262.653333 
z
" style="fill:#7570b3;opacity:0.6;stroke:#000000;stroke-linejoin:miter;stroke-width:0.5;"/>
   </g>
   <g id="patch_21">
    <path clip-path="url(#pafb9a3aa56)" d="M 164.49697 262.653333 
L 170.386818 262.653333 
L 170.386818 262.653333 
L 164.49697 262.653333 
z
" style="fill:#7570b3;opacity:0.6;stroke:#000000;stroke-linejoin:miter;stroke-width:0.5;"/>
   </g>
   <g id="patch_22">
    <path clip-path="url(#pafb9a3aa56)" d="M 170.386818 262.653333 
L 176.276667 262.653333 
L 176.276667 262.653333 
L 170.386818 262.653333 
z
" style="fill:#7570b3;opacity:0.6;stroke:#000000;stroke-linejoin:miter;stroke-width:0.5;"/>
   </g>
   <g id="patch_23">
    <path clip-path="url(#pafb9a3aa56)" d="M 176.276667 262.653333 
L 182.166515 262.653333 
L 182.166515 262.653333 
L 176.276667 262.653333 
z
" style="fill:#7570b3;opacity:0.6;stroke:#000000;stroke-linejoin:miter;stroke-width:0.5;"/>
   </g>
   <g id="patch_24">
    <path clip-path="url(#pafb9a3aa56)" d="M 182.166515 262.653333 
L 188.056364 262.653333 
L 188.056364 262.653333 
L 182.166515 262.653333 
z
" style="fill:#7570b3;opacity:0.6;stroke:#000000;stroke-linejoin:miter;stroke-width:0.5;"/>
   </g>
   <g id="patch_25">
    <path clip-path="url(#pafb9a3aa56)" d="M 188.056364 262.653333 
L 193.946212 262.653333 
L 193.946212 262.653333 
L 188.056364 262.653333 
z
" style="fill:#7570b3;opacity:0.6;stroke:#000000;stroke-linejoin:miter;stroke-width:0.5;"/>
   </g>
   <g id="patch_26">
    <path clip-path="url(#pafb9a3aa56)" d="M 193.946212 262.653333 
L 199.836061 262.653333 
L 199.836061 262.653333 
L 193.946212 262.653333 
z
" style="fill:#7570b3;opacity:0.6;stroke:#000000;stroke-linejoin:miter;stroke-width:0.5;"/>
   </g>
   <g id="patch_27">
    <path clip-path="url(#pafb9a3aa56)" d="M 199.836061 262.653333 
L 205.725909 262.653333 
L 205.725909 262.653333 
L 199.836061 262.653333 
z
" style="fill:#7570b3;opacity:0.6;stroke:#000000;stroke-linejoin:miter;stroke-width:0.5;"/>
   </g>
   <g id="patch_28">
    <path clip-path="url(#pafb9a3aa56)" d="M 205.725909 262.653333 
L 211.615758 262.653333 
L 211.615758 262.653333 
L 205.725909 262.653333 
z
" style="fill:#7570b3;opacity:0.6;stroke:#000000;stroke-linejoin:miter;stroke-width:0.5;"/>
   </g>
   <g id="patch_29">
    <path clip-path="url(#pafb9a3aa56)" d="M 211.615758 262.653333 
L 217.505606 262.653333 
L 217.505606 262.653333 
L 211.615758 262.653333 
z
" style="fill:#7570b3;opacity:0.6;stroke:#000000;stroke-linejoin:miter;stroke-width:0.5;"/>
   </g>
   <g id="patch_30">
    <path clip-path="url(#pafb9a3aa56)" d="M 217.505606 262.653333 
L 223.395455 262.653333 
L 223.395455 262.653333 
L 217.505606 262.653333 
z
" style="fill:#7570b3;opacity:0.6;stroke:#000000;stroke-linejoin:miter;stroke-width:0.5;"/>
   </g>
   <g id="patch_31">
    <path clip-path="url(#pafb9a3aa56)" d="M 223.395455 262.653333 
L 229.285303 262.653333 
L 229.285303 262.355755 
L 223.395455 262.355755 
z
" style="fill:#7570b3;opacity:0.6;stroke:#000000;stroke-linejoin:miter;stroke-width:0.5;"/>
   </g>
   <g id="patch_32">
    <path clip-path="url(#pafb9a3aa56)" d="M 229.285303 262.653333 
L 235.175152 262.653333 
L 235.175152 262.653333 
L 229.285303 262.653333 
z
" style="fill:#7570b3;opacity:0.6;stroke:#000000;stroke-linejoin:miter;stroke-width:0.5;"/>
   </g>
   <g id="patch_33">
    <path clip-path="url(#pafb9a3aa56)" d="M 235.175152 262.653333 
L 241.065 262.653333 
L 241.065 260.867864 
L 235.175152 260.867864 
z
" style="fill:#7570b3;opacity:0.6;stroke:#000000;stroke-linejoin:miter;stroke-width:0.5;"/>
   </g>
   <g id="patch_34">
    <path clip-path="url(#pafb9a3aa56)" d="M 241.065 262.653333 
L 246.954848 262.653333 
L 246.954848 261.165442 
L 241.065 261.165442 
z
" style="fill:#7570b3;opacity:0.6;stroke:#000000;stroke-linejoin:miter;stroke-width:0.5;"/>
   </g>
   <g id="patch_35">
    <path clip-path="url(#pafb9a3aa56)" d="M 246.954848 262.653333 
L 252.844697 262.653333 
L 252.844697 254.61872 
L 246.954848 254.61872 
z
" style="fill:#7570b3;opacity:0.6;stroke:#000000;stroke-linejoin:miter;stroke-width:0.5;"/>
   </g>
   <g id="patch_36">
    <path clip-path="url(#pafb9a3aa56)" d="M 252.844697 262.653333 
L 258.734545 262.653333 
L 258.734545 239.442228 
L 252.844697 239.442228 
z
" style="fill:#7570b3;opacity:0.6;stroke:#000000;stroke-linejoin:miter;stroke-width:0.5;"/>
   </g>
   <g id="patch_37">
    <path clip-path="url(#pafb9a3aa56)" d="M 258.734545 262.653333 
L 264.624394 262.653333 
L 264.624394 215.933544 
L 258.734545 215.933544 
z
" style="fill:#7570b3;opacity:0.6;stroke:#000000;stroke-linejoin:miter;stroke-width:0.5;"/>
   </g>
   <g id="patch_38">
    <path clip-path="url(#pafb9a3aa56)" d="M 264.624394 262.653333 
L 270.514242 262.653333 
L 270.514242 191.829704 
L 264.624394 191.829704 
z
" style="fill:#7570b3;opacity:0.6;stroke:#000000;stroke-linejoin:miter;stroke-width:0.5;"/>
   </g>
   <g id="patch_39">
    <path clip-path="url(#pafb9a3aa56)" d="M 270.514242 262.653333 
L 276.404091 262.653333 
L 276.404091 184.092669 
L 270.514242 184.092669 
z
" style="fill:#7570b3;opacity:0.6;stroke:#000000;stroke-linejoin:miter;stroke-width:0.5;"/>
   </g>
   <g id="patch_40">
    <path clip-path="url(#pafb9a3aa56)" d="M 276.404091 262.653333 
L 282.293939 262.653333 
L 282.293939 193.615174 
L 276.404091 193.615174 
z
" style="fill:#7570b3;opacity:0.6;stroke:#000000;stroke-linejoin:miter;stroke-width:0.5;"/>
   </g>
   <g id="patch_41">
    <path clip-path="url(#pafb9a3aa56)" d="M 282.293939 262.653333 
L 288.183788 262.653333 
L 288.183788 237.061602 
L 282.293939 237.061602 
z
" style="fill:#7570b3;opacity:0.6;stroke:#000000;stroke-linejoin:miter;stroke-width:0.5;"/>
   </g>
   <g id="patch_42">
    <path clip-path="url(#pafb9a3aa56)" d="M 288.183788 262.653333 
L 294.073636 262.653333 
L 294.073636 259.975129 
L 288.183788 259.975129 
z
" style="fill:#7570b3;opacity:0.6;stroke:#000000;stroke-linejoin:miter;stroke-width:0.5;"/>
   </g>
   <g id="patch_43">
    <path clip-path="url(#pafb9a3aa56)" d="M 58.479697 262.653333 
L 64.369545 262.653333 
L 64.369545 262.653333 
L 58.479697 262.653333 
z
" style="fill:#d95f02;opacity:0.6;stroke:#000000;stroke-linejoin:miter;stroke-width:0.5;"/>
   </g>
   <g id="patch_44">
    <path clip-path="url(#pafb9a3aa56)" d="M 64.369545 262.653333 
L 70.259394 262.653333 
L 70.259394 262.653333 
L 64.369545 262.653333 
z
" style="fill:#d95f02;opacity:0.6;stroke:#000000;stroke-linejoin:miter;stroke-width:0.5;"/>
   </g>
   <g id="patch_45">
    <path clip-path="url(#pafb9a3aa56)" d="M 70.259394 262.653333 
L 76.149242 262.653333 
L 76.149242 262.653333 
L 70.259394 262.653333 
z
" style="fill:#d95f02;opacity:0.6;stroke:#000000;stroke-linejoin:miter;stroke-width:0.5;"/>
   </g>
   <g id="patch_46">
    <path clip-path="url(#pafb9a3aa56)" d="M 76.149242 262.653333 
L 82.039091 262.653333 
L 82.039091 262.653333 
L 76.149242 262.653333 
z
" style="fill:#d95f02;opacity:0.6;stroke:#000000;stroke-linejoin:miter;stroke-width:0.5;"/>
   </g>
   <g id="patch_47">
    <path clip-path="url(#pafb9a3aa56)" d="M 82.039091 262.653333 
L 87.928939 262.653333 
L 87.928939 262.653333 
L 82.039091 262.653333 
z
" style="fill:#d95f02;opacity:0.6;stroke:#000000;stroke-linejoin:miter;stroke-width:0.5;"/>
   </g>
   <g id="patch_48">
    <path clip-path="url(#pafb9a3aa56)" d="M 87.928939 262.653333 
L 93.818788 262.653333 
L 93.818788 262.653333 
L 87.928939 262.653333 
z
" style="fill:#d95f02;opacity:0.6;stroke:#000000;stroke-linejoin:miter;stroke-width:0.5;"/>
   </g>
   <g id="patch_49">
    <path clip-path="url(#pafb9a3aa56)" d="M 93.818788 262.653333 
L 99.708636 262.653333 
L 99.708636 262.653333 
L 93.818788 262.653333 
z
" style="fill:#d95f02;opacity:0.6;stroke:#000000;stroke-linejoin:miter;stroke-width:0.5;"/>
   </g>
   <g id="patch_50">
    <path clip-path="url(#pafb9a3aa56)" d="M 99.708636 262.653333 
L 105.598485 262.653333 
L 105.598485 262.653333 
L 99.708636 262.653333 
z
" style="fill:#d95f02;opacity:0.6;stroke:#000000;stroke-linejoin:miter;stroke-width:0.5;"/>
   </g>
   <g id="patch_51">
    <path clip-path="url(#pafb9a3aa56)" d="M 105.598485 262.653333 
L 111.488333 262.653333 
L 111.488333 262.653333 
L 105.598485 262.653333 
z
" style="fill:#d95f02;opacity:0.6;stroke:#000000;stroke-linejoin:miter;stroke-width:0.5;"/>
   </g>
   <g id="patch_52">
    <path clip-path="url(#pafb9a3aa56)" d="M 111.488333 262.653333 
L 117.378182 262.653333 
L 117.378182 262.653333 
L 111.488333 262.653333 
z
" style="fill:#d95f02;opacity:0.6;stroke:#000000;stroke-linejoin:miter;stroke-width:0.5;"/>
   </g>
   <g id="patch_53">
    <path clip-path="url(#pafb9a3aa56)" d="M 117.378182 262.653333 
L 123.26803 262.653333 
L 123.26803 262.653333 
L 117.378182 262.653333 
z
" style="fill:#d95f02;opacity:0.6;stroke:#000000;stroke-linejoin:miter;stroke-width:0.5;"/>
   </g>
   <g id="patch_54">
    <path clip-path="url(#pafb9a3aa56)" d="M 123.26803 262.653333 
L 129.157879 262.653333 
L 129.157879 262.653333 
L 123.26803 262.653333 
z
" style="fill:#d95f02;opacity:0.6;stroke:#000000;stroke-linejoin:miter;stroke-width:0.5;"/>
   </g>
   <g id="patch_55">
    <path clip-path="url(#pafb9a3aa56)" d="M 129.157879 262.653333 
L 135.047727 262.653333 
L 135.047727 262.653333 
L 129.157879 262.653333 
z
" style="fill:#d95f02;opacity:0.6;stroke:#000000;stroke-linejoin:miter;stroke-width:0.5;"/>
   </g>
   <g id="patch_56">
    <path clip-path="url(#pafb9a3aa56)" d="M 135.047727 262.653333 
L 140.937576 262.653333 
L 140.937576 262.653333 
L 135.047727 262.653333 
z
" style="fill:#d95f02;opacity:0.6;stroke:#000000;stroke-linejoin:miter;stroke-width:0.5;"/>
   </g>
   <g id="patch_57">
    <path clip-path="url(#pafb9a3aa56)" d="M 140.937576 262.653333 
L 146.827424 262.653333 
L 146.827424 262.653333 
L 140.937576 262.653333 
z
" style="fill:#d95f02;opacity:0.6;stroke:#000000;stroke-linejoin:miter;stroke-width:0.5;"/>
   </g>
   <g id="patch_58">
    <path clip-path="url(#pafb9a3aa56)" d="M 146.827424 262.653333 
L 152.717273 262.653333 
L 152.717273 262.653333 
L 146.827424 262.653333 
z
" style="fill:#d95f02;opacity:0.6;stroke:#000000;stroke-linejoin:miter;stroke-width:0.5;"/>
   </g>
   <g id="patch_59">
    <path clip-path="url(#pafb9a3aa56)" d="M 152.717273 262.653333 
L 158.607121 262.653333 
L 158.607121 262.653333 
L 152.717273 262.653333 
z
" style="fill:#d95f02;opacity:0.6;stroke:#000000;stroke-linejoin:miter;stroke-width:0.5;"/>
   </g>
   <g id="patch_60">
    <path clip-path="url(#pafb9a3aa56)" d="M 158.607121 262.653333 
L 164.49697 262.653333 
L 164.49697 262.653333 
L 158.607121 262.653333 
z
" style="fill:#d95f02;opacity:0.6;stroke:#000000;stroke-linejoin:miter;stroke-width:0.5;"/>
   </g>
   <g id="patch_61">
    <path clip-path="url(#pafb9a3aa56)" d="M 164.49697 262.653333 
L 170.386818 262.653333 
L 170.386818 262.653333 
L 164.49697 262.653333 
z
" style="fill:#d95f02;opacity:0.6;stroke:#000000;stroke-linejoin:miter;stroke-width:0.5;"/>
   </g>
   <g id="patch_62">
    <path clip-path="url(#pafb9a3aa56)" d="M 170.386818 262.653333 
L 176.276667 262.653333 
L 176.276667 262.653333 
L 170.386818 262.653333 
z
" style="fill:#d95f02;opacity:0.6;stroke:#000000;stroke-linejoin:miter;stroke-width:0.5;"/>
   </g>
   <g id="patch_63">
    <path clip-path="url(#pafb9a3aa56)" d="M 176.276667 262.653333 
L 182.166515 262.653333 
L 182.166515 262.653333 
L 176.276667 262.653333 
z
" style="fill:#d95f02;opacity:0.6;stroke:#000000;stroke-linejoin:miter;stroke-width:0.5;"/>
   </g>
   <g id="patch_64">
    <path clip-path="url(#pafb9a3aa56)" d="M 182.166515 262.653333 
L 188.056364 262.653333 
L 188.056364 262.653333 
L 182.166515 262.653333 
z
" style="fill:#d95f02;opacity:0.6;stroke:#000000;stroke-linejoin:miter;stroke-width:0.5;"/>
   </g>
   <g id="patch_65">
    <path clip-path="url(#pafb9a3aa56)" d="M 188.056364 262.653333 
L 193.946212 262.653333 
L 193.946212 262.653333 
L 188.056364 262.653333 
z
" style="fill:#d95f02;opacity:0.6;stroke:#000000;stroke-linejoin:miter;stroke-width:0.5;"/>
   </g>
   <g id="patch_66">
    <path clip-path="url(#pafb9a3aa56)" d="M 193.946212 262.653333 
L 199.836061 262.653333 
L 199.836061 262.653333 
L 193.946212 262.653333 
z
" style="fill:#d95f02;opacity:0.6;stroke:#000000;stroke-linejoin:miter;stroke-width:0.5;"/>
   </g>
   <g id="patch_67">
    <path clip-path="url(#pafb9a3aa56)" d="M 199.836061 262.653333 
L 205.725909 262.653333 
L 205.725909 262.653333 
L 199.836061 262.653333 
z
" style="fill:#d95f02;opacity:0.6;stroke:#000000;stroke-linejoin:miter;stroke-width:0.5;"/>
   </g>
   <g id="patch_68">
    <path clip-path="url(#pafb9a3aa56)" d="M 205.725909 262.653333 
L 211.615758 262.653333 
L 211.615758 262.653333 
L 205.725909 262.653333 
z
" style="fill:#d95f02;opacity:0.6;stroke:#000000;stroke-linejoin:miter;stroke-width:0.5;"/>
   </g>
   <g id="patch_69">
    <path clip-path="url(#pafb9a3aa56)" d="M 211.615758 262.653333 
L 217.505606 262.653333 
L 217.505606 262.653333 
L 211.615758 262.653333 
z
" style="fill:#d95f02;opacity:0.6;stroke:#000000;stroke-linejoin:miter;stroke-width:0.5;"/>
   </g>
   <g id="patch_70">
    <path clip-path="url(#pafb9a3aa56)" d="M 217.505606 262.653333 
L 223.395455 262.653333 
L 223.395455 262.653333 
L 217.505606 262.653333 
z
" style="fill:#d95f02;opacity:0.6;stroke:#000000;stroke-linejoin:miter;stroke-width:0.5;"/>
   </g>
   <g id="patch_71">
    <path clip-path="url(#pafb9a3aa56)" d="M 223.395455 262.653333 
L 229.285303 262.653333 
L 229.285303 262.653333 
L 223.395455 262.653333 
z
" style="fill:#d95f02;opacity:0.6;stroke:#000000;stroke-linejoin:miter;stroke-width:0.5;"/>
   </g>
   <g id="patch_72">
    <path clip-path="url(#pafb9a3aa56)" d="M 229.285303 262.653333 
L 235.175152 262.653333 
L 235.175152 262.653333 
L 229.285303 262.653333 
z
" style="fill:#d95f02;opacity:0.6;stroke:#000000;stroke-linejoin:miter;stroke-width:0.5;"/>
   </g>
   <g id="patch_73">
    <path clip-path="url(#pafb9a3aa56)" d="M 235.175152 262.653333 
L 241.065 262.653333 
L 241.065 262.653333 
L 235.175152 262.653333 
z
" style="fill:#d95f02;opacity:0.6;stroke:#000000;stroke-linejoin:miter;stroke-width:0.5;"/>
   </g>
   <g id="patch_74">
    <path clip-path="url(#pafb9a3aa56)" d="M 241.065 262.653333 
L 246.954848 262.653333 
L 246.954848 262.653333 
L 241.065 262.653333 
z
" style="fill:#d95f02;opacity:0.6;stroke:#000000;stroke-linejoin:miter;stroke-width:0.5;"/>
   </g>
   <g id="patch_75">
    <path clip-path="url(#pafb9a3aa56)" d="M 246.954848 262.653333 
L 252.844697 262.653333 
L 252.844697 262.653333 
L 246.954848 262.653333 
z
" style="fill:#d95f02;opacity:0.6;stroke:#000000;stroke-linejoin:miter;stroke-width:0.5;"/>
   </g>
   <g id="patch_76">
    <path clip-path="url(#pafb9a3aa56)" d="M 252.844697 262.653333 
L 258.734545 262.653333 
L 258.734545 262.653333 
L 252.844697 262.653333 
z
" style="fill:#d95f02;opacity:0.6;stroke:#000000;stroke-linejoin:miter;stroke-width:0.5;"/>
   </g>
   <g id="patch_77">
    <path clip-path="url(#pafb9a3aa56)" d="M 258.734545 262.653333 
L 264.624394 262.653333 
L 264.624394 262.653333 
L 258.734545 262.653333 
z
" style="fill:#d95f02;opacity:0.6;stroke:#000000;stroke-linejoin:miter;stroke-width:0.5;"/>
   </g>
   <g id="patch_78">
    <path clip-path="url(#pafb9a3aa56)" d="M 264.624394 262.653333 
L 270.514242 262.653333 
L 270.514242 260.730118 
L 264.624394 260.730118 
z
" style="fill:#d95f02;opacity:0.6;stroke:#000000;stroke-linejoin:miter;stroke-width:0.5;"/>
   </g>
   <g id="patch_79">
    <path clip-path="url(#pafb9a3aa56)" d="M 270.514242 262.653333 
L 276.404091 262.653333 
L 276.404091 261.371189 
L 270.514242 261.371189 
z
" style="fill:#d95f02;opacity:0.6;stroke:#000000;stroke-linejoin:miter;stroke-width:0.5;"/>
   </g>
   <g id="patch_80">
    <path clip-path="url(#pafb9a3aa56)" d="M 276.404091 262.653333 
L 282.293939 262.653333 
L 282.293939 233.805096 
L 276.404091 233.805096 
z
" style="fill:#d95f02;opacity:0.6;stroke:#000000;stroke-linejoin:miter;stroke-width:0.5;"/>
   </g>
   <g id="patch_81">
    <path clip-path="url(#pafb9a3aa56)" d="M 282.293939 262.653333 
L 288.183788 262.653333 
L 288.183788 15.840635 
L 282.293939 15.840635 
z
" style="fill:#d95f02;opacity:0.6;stroke:#000000;stroke-linejoin:miter;stroke-width:0.5;"/>
   </g>
   <g id="patch_82">
    <path clip-path="url(#pafb9a3aa56)" d="M 288.183788 262.653333 
L 294.073636 262.653333 
L 294.073636 213.290794 
L 288.183788 213.290794 
z
" style="fill:#d95f02;opacity:0.6;stroke:#000000;stroke-linejoin:miter;stroke-width:0.5;"/>
   </g>
   <g id="matplotlib.axis_1">
    <g id="xtick_1">
     <g id="line2d_1">
      <defs>
       <path d="M 0 0 
L 0 3.5 
" id="m246eae01c4" style="stroke:#000000;stroke-width:1.6;"/>
      </defs>
      <g>
       <use style="stroke:#000000;stroke-width:1.6;" x="58.479697" xlink:href="#m246eae01c4" y="262.653333"/>
      </g>
     </g>
     <g id="text_1">
      <!-- 0.0 -->
      <defs>
       <path d="M 31.78125 66.40625 
Q 24.171875 66.40625 20.328125 58.90625 
Q 16.5 51.421875 16.5 36.375 
Q 16.5 21.390625 20.328125 13.890625 
Q 24.171875 6.390625 31.78125 6.390625 
Q 39.453125 6.390625 43.28125 13.890625 
Q 47.125 21.390625 47.125 36.375 
Q 47.125 51.421875 43.28125 58.90625 
Q 39.453125 66.40625 31.78125 66.40625 
z
M 31.78125 74.21875 
Q 44.046875 74.21875 50.515625 64.515625 
Q 56.984375 54.828125 56.984375 36.375 
Q 56.984375 17.96875 50.515625 8.265625 
Q 44.046875 -1.421875 31.78125 -1.421875 
Q 19.53125 -1.421875 13.0625 8.265625 
Q 6.59375 17.96875 6.59375 36.375 
Q 6.59375 54.828125 13.0625 64.515625 
Q 19.53125 74.21875 31.78125 74.21875 
z
" id="DejaVuSans-48"/>
       <path d="M 10.6875 12.40625 
L 21 12.40625 
L 21 0 
L 10.6875 0 
z
" id="DejaVuSans-46"/>
      </defs>
      <g transform="translate(42.576572 292.550208)scale(0.2 -0.2)">
       <use xlink:href="#DejaVuSans-48"/>
       <use x="63.623047" xlink:href="#DejaVuSans-46"/>
       <use x="95.410156" xlink:href="#DejaVuSans-48"/>
      </g>
     </g>
    </g>
    <g id="xtick_2">
     <g id="line2d_2">
      <g>
       <use style="stroke:#000000;stroke-width:1.6;" x="125.792251" xlink:href="#m246eae01c4" y="262.653333"/>
      </g>
     </g>
     <g id="text_2">
      <!-- 0.2 -->
      <defs>
       <path d="M 19.1875 8.296875 
L 53.609375 8.296875 
L 53.609375 0 
L 7.328125 0 
L 7.328125 8.296875 
Q 12.9375 14.109375 22.625 23.890625 
Q 32.328125 33.6875 34.8125 36.53125 
Q 39.546875 41.84375 41.421875 45.53125 
Q 43.3125 49.21875 43.3125 52.78125 
Q 43.3125 58.59375 39.234375 62.25 
Q 35.15625 65.921875 28.609375 65.921875 
Q 23.96875 65.921875 18.8125 64.3125 
Q 13.671875 62.703125 7.8125 59.421875 
L 7.8125 69.390625 
Q 13.765625 71.78125 18.9375 73 
Q 24.125 74.21875 28.421875 74.21875 
Q 39.75 74.21875 46.484375 68.546875 
Q 53.21875 62.890625 53.21875 53.421875 
Q 53.21875 48.921875 51.53125 44.890625 
Q 49.859375 40.875 45.40625 35.40625 
Q 44.1875 33.984375 37.640625 27.21875 
Q 31.109375 20.453125 19.1875 8.296875 
z
" id="DejaVuSans-50"/>
      </defs>
      <g transform="translate(109.889126 292.550208)scale(0.2 -0.2)">
       <use xlink:href="#DejaVuSans-48"/>
       <use x="63.623047" xlink:href="#DejaVuSans-46"/>
       <use x="95.410156" xlink:href="#DejaVuSans-50"/>
      </g>
     </g>
    </g>
    <g id="xtick_3">
     <g id="line2d_3">
      <g>
       <use style="stroke:#000000;stroke-width:1.6;" x="193.104805" xlink:href="#m246eae01c4" y="262.653333"/>
      </g>
     </g>
     <g id="text_3">
      <!-- 0.4 -->
      <defs>
       <path d="M 37.796875 64.3125 
L 12.890625 25.390625 
L 37.796875 25.390625 
z
M 35.203125 72.90625 
L 47.609375 72.90625 
L 47.609375 25.390625 
L 58.015625 25.390625 
L 58.015625 17.1875 
L 47.609375 17.1875 
L 47.609375 0 
L 37.796875 0 
L 37.796875 17.1875 
L 4.890625 17.1875 
L 4.890625 26.703125 
z
" id="DejaVuSans-52"/>
      </defs>
      <g transform="translate(177.20168 292.550208)scale(0.2 -0.2)">
       <use xlink:href="#DejaVuSans-48"/>
       <use x="63.623047" xlink:href="#DejaVuSans-46"/>
       <use x="95.410156" xlink:href="#DejaVuSans-52"/>
      </g>
     </g>
    </g>
    <g id="xtick_4">
     <g id="line2d_4">
      <g>
       <use style="stroke:#000000;stroke-width:1.6;" x="260.417359" xlink:href="#m246eae01c4" y="262.653333"/>
      </g>
     </g>
     <g id="text_4">
      <!-- 0.6 -->
      <defs>
       <path d="M 33.015625 40.375 
Q 26.375 40.375 22.484375 35.828125 
Q 18.609375 31.296875 18.609375 23.390625 
Q 18.609375 15.53125 22.484375 10.953125 
Q 26.375 6.390625 33.015625 6.390625 
Q 39.65625 6.390625 43.53125 10.953125 
Q 47.40625 15.53125 47.40625 23.390625 
Q 47.40625 31.296875 43.53125 35.828125 
Q 39.65625 40.375 33.015625 40.375 
z
M 52.59375 71.296875 
L 52.59375 62.3125 
Q 48.875 64.0625 45.09375 64.984375 
Q 41.3125 65.921875 37.59375 65.921875 
Q 27.828125 65.921875 22.671875 59.328125 
Q 17.53125 52.734375 16.796875 39.40625 
Q 19.671875 43.65625 24.015625 45.921875 
Q 28.375 48.1875 33.59375 48.1875 
Q 44.578125 48.1875 50.953125 41.515625 
Q 57.328125 34.859375 57.328125 23.390625 
Q 57.328125 12.15625 50.6875 5.359375 
Q 44.046875 -1.421875 33.015625 -1.421875 
Q 20.359375 -1.421875 13.671875 8.265625 
Q 6.984375 17.96875 6.984375 36.375 
Q 6.984375 53.65625 15.1875 63.9375 
Q 23.390625 74.21875 37.203125 74.21875 
Q 40.921875 74.21875 44.703125 73.484375 
Q 48.484375 72.75 52.59375 71.296875 
z
" id="DejaVuSans-54"/>
      </defs>
      <g transform="translate(244.514234 292.550208)scale(0.2 -0.2)">
       <use xlink:href="#DejaVuSans-48"/>
       <use x="63.623047" xlink:href="#DejaVuSans-46"/>
       <use x="95.410156" xlink:href="#DejaVuSans-54"/>
      </g>
     </g>
    </g>
    <g id="text_5">
     <!-- Max JS Divergence within $\epsilon$ -->
     <defs>
      <path d="M 9.8125 72.90625 
L 24.515625 72.90625 
L 43.109375 23.296875 
L 61.8125 72.90625 
L 76.515625 72.90625 
L 76.515625 0 
L 66.890625 0 
L 66.890625 64.015625 
L 48.09375 14.015625 
L 38.1875 14.015625 
L 19.390625 64.015625 
L 19.390625 0 
L 9.8125 0 
z
" id="DejaVuSans-77"/>
      <path d="M 34.28125 27.484375 
Q 23.390625 27.484375 19.1875 25 
Q 14.984375 22.515625 14.984375 16.5 
Q 14.984375 11.71875 18.140625 8.90625 
Q 21.296875 6.109375 26.703125 6.109375 
Q 34.1875 6.109375 38.703125 11.40625 
Q 43.21875 16.703125 43.21875 25.484375 
L 43.21875 27.484375 
z
M 52.203125 31.203125 
L 52.203125 0 
L 43.21875 0 
L 43.21875 8.296875 
Q 40.140625 3.328125 35.546875 0.953125 
Q 30.953125 -1.421875 24.3125 -1.421875 
Q 15.921875 -1.421875 10.953125 3.296875 
Q 6 8.015625 6 15.921875 
Q 6 25.140625 12.171875 29.828125 
Q 18.359375 34.515625 30.609375 34.515625 
L 43.21875 34.515625 
L 43.21875 35.40625 
Q 43.21875 41.609375 39.140625 45 
Q 35.0625 48.390625 27.6875 48.390625 
Q 23 48.390625 18.546875 47.265625 
Q 14.109375 46.140625 10.015625 43.890625 
L 10.015625 52.203125 
Q 14.9375 54.109375 19.578125 55.046875 
Q 24.21875 56 28.609375 56 
Q 40.484375 56 46.34375 49.84375 
Q 52.203125 43.703125 52.203125 31.203125 
z
" id="DejaVuSans-97"/>
      <path d="M 54.890625 54.6875 
L 35.109375 28.078125 
L 55.90625 0 
L 45.3125 0 
L 29.390625 21.484375 
L 13.484375 0 
L 2.875 0 
L 24.125 28.609375 
L 4.6875 54.6875 
L 15.28125 54.6875 
L 29.78125 35.203125 
L 44.28125 54.6875 
z
" id="DejaVuSans-120"/>
      <path id="DejaVuSans-32"/>
      <path d="M 9.8125 72.90625 
L 19.671875 72.90625 
L 19.671875 5.078125 
Q 19.671875 -8.109375 14.671875 -14.0625 
Q 9.671875 -20.015625 -1.421875 -20.015625 
L -5.171875 -20.015625 
L -5.171875 -11.71875 
L -2.09375 -11.71875 
Q 4.4375 -11.71875 7.125 -8.046875 
Q 9.8125 -4.390625 9.8125 5.078125 
z
" id="DejaVuSans-74"/>
      <path d="M 53.515625 70.515625 
L 53.515625 60.890625 
Q 47.90625 63.578125 42.921875 64.890625 
Q 37.9375 66.21875 33.296875 66.21875 
Q 25.25 66.21875 20.875 63.09375 
Q 16.5 59.96875 16.5 54.203125 
Q 16.5 49.359375 19.40625 46.890625 
Q 22.3125 44.4375 30.421875 42.921875 
L 36.375 41.703125 
Q 47.40625 39.59375 52.65625 34.296875 
Q 57.90625 29 57.90625 20.125 
Q 57.90625 9.515625 50.796875 4.046875 
Q 43.703125 -1.421875 29.984375 -1.421875 
Q 24.8125 -1.421875 18.96875 -0.25 
Q 13.140625 0.921875 6.890625 3.21875 
L 6.890625 13.375 
Q 12.890625 10.015625 18.65625 8.296875 
Q 24.421875 6.59375 29.984375 6.59375 
Q 38.421875 6.59375 43.015625 9.90625 
Q 47.609375 13.234375 47.609375 19.390625 
Q 47.609375 24.75 44.3125 27.78125 
Q 41.015625 30.8125 33.5 32.328125 
L 27.484375 33.5 
Q 16.453125 35.6875 11.515625 40.375 
Q 6.59375 45.0625 6.59375 53.421875 
Q 6.59375 63.09375 13.40625 68.65625 
Q 20.21875 74.21875 32.171875 74.21875 
Q 37.3125 74.21875 42.625 73.28125 
Q 47.953125 72.359375 53.515625 70.515625 
z
" id="DejaVuSans-83"/>
      <path d="M 19.671875 64.796875 
L 19.671875 8.109375 
L 31.59375 8.109375 
Q 46.6875 8.109375 53.6875 14.9375 
Q 60.6875 21.78125 60.6875 36.53125 
Q 60.6875 51.171875 53.6875 57.984375 
Q 46.6875 64.796875 31.59375 64.796875 
z
M 9.8125 72.90625 
L 30.078125 72.90625 
Q 51.265625 72.90625 61.171875 64.09375 
Q 71.09375 55.28125 71.09375 36.53125 
Q 71.09375 17.671875 61.125 8.828125 
Q 51.171875 0 30.078125 0 
L 9.8125 0 
z
" id="DejaVuSans-68"/>
      <path d="M 9.421875 54.6875 
L 18.40625 54.6875 
L 18.40625 0 
L 9.421875 0 
z
M 9.421875 75.984375 
L 18.40625 75.984375 
L 18.40625 64.59375 
L 9.421875 64.59375 
z
" id="DejaVuSans-105"/>
      <path d="M 2.984375 54.6875 
L 12.5 54.6875 
L 29.59375 8.796875 
L 46.6875 54.6875 
L 56.203125 54.6875 
L 35.6875 0 
L 23.484375 0 
z
" id="DejaVuSans-118"/>
      <path d="M 56.203125 29.59375 
L 56.203125 25.203125 
L 14.890625 25.203125 
Q 15.484375 15.921875 20.484375 11.0625 
Q 25.484375 6.203125 34.421875 6.203125 
Q 39.59375 6.203125 44.453125 7.46875 
Q 49.3125 8.734375 54.109375 11.28125 
L 54.109375 2.78125 
Q 49.265625 0.734375 44.1875 -0.34375 
Q 39.109375 -1.421875 33.890625 -1.421875 
Q 20.796875 -1.421875 13.15625 6.1875 
Q 5.515625 13.8125 5.515625 26.8125 
Q 5.515625 40.234375 12.765625 48.109375 
Q 20.015625 56 32.328125 56 
Q 43.359375 56 49.78125 48.890625 
Q 56.203125 41.796875 56.203125 29.59375 
z
M 47.21875 32.234375 
Q 47.125 39.59375 43.09375 43.984375 
Q 39.0625 48.390625 32.421875 48.390625 
Q 24.90625 48.390625 20.390625 44.140625 
Q 15.875 39.890625 15.1875 32.171875 
z
" id="DejaVuSans-101"/>
      <path d="M 41.109375 46.296875 
Q 39.59375 47.171875 37.8125 47.578125 
Q 36.03125 48 33.890625 48 
Q 26.265625 48 22.1875 43.046875 
Q 18.109375 38.09375 18.109375 28.8125 
L 18.109375 0 
L 9.078125 0 
L 9.078125 54.6875 
L 18.109375 54.6875 
L 18.109375 46.1875 
Q 20.953125 51.171875 25.484375 53.578125 
Q 30.03125 56 36.53125 56 
Q 37.453125 56 38.578125 55.875 
Q 39.703125 55.765625 41.0625 55.515625 
z
" id="DejaVuSans-114"/>
      <path d="M 45.40625 27.984375 
Q 45.40625 37.75 41.375 43.109375 
Q 37.359375 48.484375 30.078125 48.484375 
Q 22.859375 48.484375 18.828125 43.109375 
Q 14.796875 37.75 14.796875 27.984375 
Q 14.796875 18.265625 18.828125 12.890625 
Q 22.859375 7.515625 30.078125 7.515625 
Q 37.359375 7.515625 41.375 12.890625 
Q 45.40625 18.265625 45.40625 27.984375 
z
M 54.390625 6.78125 
Q 54.390625 -7.171875 48.1875 -13.984375 
Q 42 -20.796875 29.203125 -20.796875 
Q 24.46875 -20.796875 20.265625 -20.09375 
Q 16.0625 -19.390625 12.109375 -17.921875 
L 12.109375 -9.1875 
Q 16.0625 -11.328125 19.921875 -12.34375 
Q 23.78125 -13.375 27.78125 -13.375 
Q 36.625 -13.375 41.015625 -8.765625 
Q 45.40625 -4.15625 45.40625 5.171875 
L 45.40625 9.625 
Q 42.625 4.78125 38.28125 2.390625 
Q 33.9375 0 27.875 0 
Q 17.828125 0 11.671875 7.65625 
Q 5.515625 15.328125 5.515625 27.984375 
Q 5.515625 40.671875 11.671875 48.328125 
Q 17.828125 56 27.875 56 
Q 33.9375 56 38.28125 53.609375 
Q 42.625 51.21875 45.40625 46.390625 
L 45.40625 54.6875 
L 54.390625 54.6875 
z
" id="DejaVuSans-103"/>
      <path d="M 54.890625 33.015625 
L 54.890625 0 
L 45.90625 0 
L 45.90625 32.71875 
Q 45.90625 40.484375 42.875 44.328125 
Q 39.84375 48.1875 33.796875 48.1875 
Q 26.515625 48.1875 22.3125 43.546875 
Q 18.109375 38.921875 18.109375 30.90625 
L 18.109375 0 
L 9.078125 0 
L 9.078125 54.6875 
L 18.109375 54.6875 
L 18.109375 46.1875 
Q 21.34375 51.125 25.703125 53.5625 
Q 30.078125 56 35.796875 56 
Q 45.21875 56 50.046875 50.171875 
Q 54.890625 44.34375 54.890625 33.015625 
z
" id="DejaVuSans-110"/>
      <path d="M 48.78125 52.59375 
L 48.78125 44.1875 
Q 44.96875 46.296875 41.140625 47.34375 
Q 37.3125 48.390625 33.40625 48.390625 
Q 24.65625 48.390625 19.8125 42.84375 
Q 14.984375 37.3125 14.984375 27.296875 
Q 14.984375 17.28125 19.8125 11.734375 
Q 24.65625 6.203125 33.40625 6.203125 
Q 37.3125 6.203125 41.140625 7.25 
Q 44.96875 8.296875 48.78125 10.40625 
L 48.78125 2.09375 
Q 45.015625 0.34375 40.984375 -0.53125 
Q 36.96875 -1.421875 32.421875 -1.421875 
Q 20.0625 -1.421875 12.78125 6.34375 
Q 5.515625 14.109375 5.515625 27.296875 
Q 5.515625 40.671875 12.859375 48.328125 
Q 20.21875 56 33.015625 56 
Q 37.15625 56 41.109375 55.140625 
Q 45.0625 54.296875 48.78125 52.59375 
z
" id="DejaVuSans-99"/>
      <path d="M 4.203125 54.6875 
L 13.1875 54.6875 
L 24.421875 12.015625 
L 35.59375 54.6875 
L 46.1875 54.6875 
L 57.421875 12.015625 
L 68.609375 54.6875 
L 77.59375 54.6875 
L 63.28125 0 
L 52.6875 0 
L 40.921875 44.828125 
L 29.109375 0 
L 18.5 0 
z
" id="DejaVuSans-119"/>
      <path d="M 18.3125 70.21875 
L 18.3125 54.6875 
L 36.8125 54.6875 
L 36.8125 47.703125 
L 18.3125 47.703125 
L 18.3125 18.015625 
Q 18.3125 11.328125 20.140625 9.421875 
Q 21.96875 7.515625 27.59375 7.515625 
L 36.8125 7.515625 
L 36.8125 0 
L 27.59375 0 
Q 17.1875 0 13.234375 3.875 
Q 9.28125 7.765625 9.28125 18.015625 
L 9.28125 47.703125 
L 2.6875 47.703125 
L 2.6875 54.6875 
L 9.28125 54.6875 
L 9.28125 70.21875 
z
" id="DejaVuSans-116"/>
      <path d="M 54.890625 33.015625 
L 54.890625 0 
L 45.90625 0 
L 45.90625 32.71875 
Q 45.90625 40.484375 42.875 44.328125 
Q 39.84375 48.1875 33.796875 48.1875 
Q 26.515625 48.1875 22.3125 43.546875 
Q 18.109375 38.921875 18.109375 30.90625 
L 18.109375 0 
L 9.078125 0 
L 9.078125 75.984375 
L 18.109375 75.984375 
L 18.109375 46.1875 
Q 21.34375 51.125 25.703125 53.5625 
Q 30.078125 56 35.796875 56 
Q 45.21875 56 50.046875 50.171875 
Q 54.890625 44.34375 54.890625 33.015625 
z
" id="DejaVuSans-104"/>
      <path d="M 19.734375 29.5 
Q 14.453125 30.671875 12.15625 33.84375 
Q 10.453125 36.078125 10.453125 39.109375 
Q 10.453125 47.40625 18.359375 52.25 
Q 24.609375 56.0625 34.1875 56.0625 
Q 37.890625 56.0625 41.9375 55.46875 
Q 46 54.890625 50.53125 53.71875 
L 48.96875 45.5625 
Q 44.484375 46.96875 40.71875 47.609375 
Q 36.859375 48.25 33.40625 48.25 
Q 27.59375 48.25 23.78125 46 
Q 19.1875 43.3125 19.1875 39.40625 
Q 19.1875 36.8125 21.578125 35.015625 
Q 24.421875 32.859375 30.078125 32.859375 
L 37.640625 32.859375 
L 36.234375 25.4375 
L 29 25.4375 
Q 22.265625 25.4375 18.3125 22.953125 
Q 12.9375 19.578125 12.9375 14.3125 
Q 12.9375 10.984375 15.828125 8.796875 
Q 19.4375 6.0625 26.8125 6.0625 
Q 31.34375 6.0625 35.6875 6.9375 
Q 40.046875 7.859375 43.84375 9.671875 
L 42.1875 1.3125 
Q 37.546875 -0.046875 33.296875 -0.734375 
Q 29.046875 -1.421875 25.140625 -1.421875 
Q 13.53125 -1.421875 8.0625 3.03125 
Q 3.90625 6.453125 3.90625 12.203125 
Q 3.90625 19.96875 9.375 24.75 
Q 13.421875 28.328125 19.734375 29.5 
z
" id="DejaVuSans-Oblique-949"/>
     </defs>
     <g transform="translate(40.676667 315.909583)scale(0.2 -0.2)">
      <use transform="translate(0 0.015625)" xlink:href="#DejaVuSans-77"/>
      <use transform="translate(86.279297 0.015625)" xlink:href="#DejaVuSans-97"/>
      <use transform="translate(147.558594 0.015625)" xlink:href="#DejaVuSans-120"/>
      <use transform="translate(206.738281 0.015625)" xlink:href="#DejaVuSans-32"/>
      <use transform="translate(238.525391 0.015625)" xlink:href="#DejaVuSans-74"/>
      <use transform="translate(268.017578 0.015625)" xlink:href="#DejaVuSans-83"/>
      <use transform="translate(331.494141 0.015625)" xlink:href="#DejaVuSans-32"/>
      <use transform="translate(363.28125 0.015625)" xlink:href="#DejaVuSans-68"/>
      <use transform="translate(440.283203 0.015625)" xlink:href="#DejaVuSans-105"/>
      <use transform="translate(468.066406 0.015625)" xlink:href="#DejaVuSans-118"/>
      <use transform="translate(527.246094 0.015625)" xlink:href="#DejaVuSans-101"/>
      <use transform="translate(588.769531 0.015625)" xlink:href="#DejaVuSans-114"/>
      <use transform="translate(629.882812 0.015625)" xlink:href="#DejaVuSans-103"/>
      <use transform="translate(693.359375 0.015625)" xlink:href="#DejaVuSans-101"/>
      <use transform="translate(754.882812 0.015625)" xlink:href="#DejaVuSans-110"/>
      <use transform="translate(818.261719 0.015625)" xlink:href="#DejaVuSans-99"/>
      <use transform="translate(873.242188 0.015625)" xlink:href="#DejaVuSans-101"/>
      <use transform="translate(934.765625 0.015625)" xlink:href="#DejaVuSans-32"/>
      <use transform="translate(966.552734 0.015625)" xlink:href="#DejaVuSans-119"/>
      <use transform="translate(1048.339844 0.015625)" xlink:href="#DejaVuSans-105"/>
      <use transform="translate(1076.123047 0.015625)" xlink:href="#DejaVuSans-116"/>
      <use transform="translate(1115.332031 0.015625)" xlink:href="#DejaVuSans-104"/>
      <use transform="translate(1178.710938 0.015625)" xlink:href="#DejaVuSans-105"/>
      <use transform="translate(1206.494141 0.015625)" xlink:href="#DejaVuSans-110"/>
      <use transform="translate(1269.873047 0.015625)" xlink:href="#DejaVuSans-32"/>
      <use transform="translate(1301.660156 0.015625)" xlink:href="#DejaVuSans-Oblique-949"/>
     </g>
    </g>
   </g>
   <g id="matplotlib.axis_2">
    <g id="ytick_1">
     <g id="line2d_5">
      <defs>
       <path d="M 0 0 
L -3.5 0 
" id="m01b821e7dd" style="stroke:#000000;stroke-width:1.6;"/>
      </defs>
      <g>
       <use style="stroke:#000000;stroke-width:1.6;" x="46.7" xlink:href="#m01b821e7dd" y="262.653333"/>
      </g>
     </g>
     <g id="text_6">
      <!-- 0.0 -->
      <g transform="translate(0.19375 270.251771)scale(0.2 -0.2)">
       <use xlink:href="#DejaVuSans-48"/>
       <use x="63.623047" xlink:href="#DejaVuSans-46"/>
       <use x="95.410156" xlink:href="#DejaVuSans-48"/>
      </g>
     </g>
    </g>
    <g id="ytick_2">
     <g id="line2d_6">
      <g>
       <use style="stroke:#000000;stroke-width:1.6;" x="46.7" xlink:href="#m01b821e7dd" y="197.007566"/>
      </g>
     </g>
     <g id="text_7">
      <!-- 0.2 -->
      <g transform="translate(0.19375 204.606004)scale(0.2 -0.2)">
       <use xlink:href="#DejaVuSans-48"/>
       <use x="63.623047" xlink:href="#DejaVuSans-46"/>
       <use x="95.410156" xlink:href="#DejaVuSans-50"/>
      </g>
     </g>
    </g>
    <g id="ytick_3">
     <g id="line2d_7">
      <g>
       <use style="stroke:#000000;stroke-width:1.6;" x="46.7" xlink:href="#m01b821e7dd" y="131.361799"/>
      </g>
     </g>
     <g id="text_8">
      <!-- 0.4 -->
      <g transform="translate(0.19375 138.960237)scale(0.2 -0.2)">
       <use xlink:href="#DejaVuSans-48"/>
       <use x="63.623047" xlink:href="#DejaVuSans-46"/>
       <use x="95.410156" xlink:href="#DejaVuSans-52"/>
      </g>
     </g>
    </g>
    <g id="ytick_4">
     <g id="line2d_8">
      <g>
       <use style="stroke:#000000;stroke-width:1.6;" x="46.7" xlink:href="#m01b821e7dd" y="65.716032"/>
      </g>
     </g>
     <g id="text_9">
      <!-- 0.6 -->
      <g transform="translate(0.19375 73.31447)scale(0.2 -0.2)">
       <use xlink:href="#DejaVuSans-48"/>
       <use x="63.623047" xlink:href="#DejaVuSans-46"/>
       <use x="95.410156" xlink:href="#DejaVuSans-54"/>
      </g>
     </g>
    </g>
   </g>
   <g id="patch_83">
    <path d="M 46.7 262.653333 
L 46.7 3.5 
" style="fill:none;stroke:#000000;stroke-linecap:square;stroke-linejoin:miter;stroke-width:0.8;"/>
   </g>
   <g id="patch_84">
    <path d="M 46.7 262.653333 
L 305.853333 262.653333 
" style="fill:none;stroke:#000000;stroke-linecap:square;stroke-linejoin:miter;stroke-width:0.8;"/>
   </g>
  </g>
  <g id="axes_2">
   <g id="patch_85">
    <path d="M 417.213333 262.653333 
L 676.366667 262.653333 
L 676.366667 3.5 
L 417.213333 3.5 
z
" style="fill:#ffffff;"/>
   </g>
   <g id="PolyCollection_1">
    <defs>
     <path d="M 609.668688 -300.404945 
L 609.668688 -300.428722 
L 610.300358 -300.42859 
L 610.932028 -300.427953 
L 611.563699 -300.427103 
L 612.195369 -300.426449 
L 612.827039 -300.426453 
L 613.458709 -300.427556 
L 614.09038 -300.430112 
L 614.72205 -300.434321 
L 615.35372 -300.440184 
L 615.98539 -300.447464 
L 616.617061 -300.455686 
L 617.248731 -300.464165 
L 617.880401 -300.47209 
L 618.512072 -300.478655 
L 619.143742 -300.483211 
L 619.775412 -300.485416 
L 620.407082 -300.485356 
L 621.038753 -300.48359 
L 621.670423 -300.481116 
L 622.302093 -300.479255 
L 622.933764 -300.479465 
L 623.565434 -300.483118 
L 624.197104 -300.49126 
L 624.828774 -300.5044 
L 625.460445 -300.522366 
L 626.092115 -300.544282 
L 626.723785 -300.568713 
L 627.355456 -300.593981 
L 627.987126 -300.618625 
L 628.618796 -300.641871 
L 629.250466 -300.66398 
L 629.882137 -300.686329 
L 630.513807 -300.71115 
L 631.145477 -300.740984 
L 631.777148 -300.778 
L 632.408818 -300.823419 
L 633.040488 -300.877235 
L 633.672158 -300.938345 
L 634.303829 -301.005037 
L 634.935499 -301.075624 
L 635.567169 -301.148989 
L 636.198839 -301.224805 
L 636.83051 -301.303383 
L 637.46218 -301.385214 
L 638.09385 -301.470475 
L 638.725521 -301.558711 
L 639.357191 -301.648853 
L 639.988861 -301.739533 
L 640.620531 -301.829515 
L 641.252202 -301.918028 
L 641.883872 -302.004864 
L 642.515542 -302.090228 
L 643.147213 -302.174448 
L 643.778883 -302.257703 
L 644.410553 -302.339845 
L 645.042223 -302.420341 
L 645.673894 -302.498323 
L 646.305564 -302.572689 
L 646.937234 -302.642254 
L 647.568905 -302.705909 
L 648.200575 -302.762763 
L 648.832245 -302.812198 
L 649.463915 -302.853814 
L 650.095586 -302.887281 
L 650.727256 -302.912182 
L 651.358926 -302.927932 
L 651.990596 -302.933854 
L 652.622267 -302.929385 
L 653.253937 -302.91435 
L 653.885607 -302.889202 
L 654.517278 -302.855132 
L 655.148948 -302.813991 
L 655.780618 -302.76802 
L 656.412288 -302.719422 
L 657.043959 -302.66987 
L 657.675629 -302.620068 
L 658.307299 -302.569526 
L 658.93897 -302.516613 
L 659.57064 -302.458921 
L 660.20231 -302.393851 
L 660.83398 -302.319242 
L 661.465651 -302.233891 
L 662.097321 -302.137823 
L 662.728991 -302.032268 
L 663.360662 -301.919385 
L 663.992332 -301.801846 
L 664.624002 -301.682398 
L 665.255672 -301.563524 
L 665.887343 -301.447248 
L 666.519013 -301.335103 
L 667.150683 -301.228187 
L 667.782354 -301.127269 
L 668.414024 -301.032881 
L 669.045694 -300.945369 
L 669.677364 -300.864926 
L 670.309035 -300.791616 
L 670.940705 -300.725412 
L 671.572375 -300.666245 
L 672.204045 -300.614057 
L 672.204045 -300.21961 
L 672.204045 -300.21961 
L 671.572375 -300.167421 
L 670.940705 -300.108255 
L 670.309035 -300.042051 
L 669.677364 -299.968741 
L 669.045694 -299.888298 
L 668.414024 -299.800785 
L 667.782354 -299.706397 
L 667.150683 -299.60548 
L 666.519013 -299.498564 
L 665.887343 -299.386418 
L 665.255672 -299.270143 
L 664.624002 -299.151268 
L 663.992332 -299.03182 
L 663.360662 -298.914281 
L 662.728991 -298.801398 
L 662.097321 -298.695843 
L 661.465651 -298.599776 
L 660.83398 -298.514425 
L 660.20231 -298.439815 
L 659.57064 -298.374745 
L 658.93897 -298.317054 
L 658.307299 -298.26414 
L 657.675629 -298.213598 
L 657.043959 -298.163797 
L 656.412288 -298.114244 
L 655.780618 -298.065647 
L 655.148948 -298.019675 
L 654.517278 -297.978534 
L 653.885607 -297.944464 
L 653.253937 -297.919317 
L 652.622267 -297.904282 
L 651.990596 -297.899812 
L 651.358926 -297.905734 
L 650.727256 -297.921485 
L 650.095586 -297.946385 
L 649.463915 -297.979853 
L 648.832245 -298.021469 
L 648.200575 -298.070904 
L 647.568905 -298.127758 
L 646.937234 -298.191413 
L 646.305564 -298.260977 
L 645.673894 -298.335343 
L 645.042223 -298.413325 
L 644.410553 -298.493822 
L 643.778883 -298.575963 
L 643.147213 -298.659219 
L 642.515542 -298.743439 
L 641.883872 -298.828802 
L 641.252202 -298.915639 
L 640.620531 -299.004152 
L 639.988861 -299.094133 
L 639.357191 -299.184814 
L 638.725521 -299.274956 
L 638.09385 -299.363192 
L 637.46218 -299.448453 
L 636.83051 -299.530284 
L 636.198839 -299.608861 
L 635.567169 -299.684678 
L 634.935499 -299.758042 
L 634.303829 -299.828629 
L 633.672158 -299.895321 
L 633.040488 -299.956432 
L 632.408818 -300.010247 
L 631.777148 -300.055666 
L 631.145477 -300.092683 
L 630.513807 -300.122517 
L 629.882137 -300.147338 
L 629.250466 -300.169687 
L 628.618796 -300.191796 
L 627.987126 -300.215042 
L 627.355456 -300.239686 
L 626.723785 -300.264954 
L 626.092115 -300.289384 
L 625.460445 -300.311301 
L 624.828774 -300.329267 
L 624.197104 -300.342407 
L 623.565434 -300.350549 
L 622.933764 -300.354202 
L 622.302093 -300.354412 
L 621.670423 -300.35255 
L 621.038753 -300.350077 
L 620.407082 -300.348311 
L 619.775412 -300.348251 
L 619.143742 -300.350456 
L 618.512072 -300.355011 
L 617.880401 -300.361577 
L 617.248731 -300.369502 
L 616.617061 -300.377981 
L 615.98539 -300.386202 
L 615.35372 -300.393483 
L 614.72205 -300.399346 
L 614.09038 -300.403555 
L 613.458709 -300.406111 
L 612.827039 -300.407214 
L 612.195369 -300.407218 
L 611.563699 -300.406564 
L 610.932028 -300.405713 
L 610.300358 -300.405077 
L 609.668688 -300.404945 
z
" id="m59f9ebc5a3" style="stroke:#424242;"/>
    </defs>
    <g clip-path="url(#p1c6241e678)">
     <use style="fill:#7c78ab;stroke:#424242;" x="0" xlink:href="#m59f9ebc5a3" y="323.353333"/>
    </g>
   </g>
   <g id="PolyCollection_2">
    <defs>
     <path d="M 647.472529 -274.416206 
L 647.472529 -274.586794 
L 647.734903 -274.591319 
L 647.997278 -274.5923 
L 648.259652 -274.592229 
L 648.522026 -274.592305 
L 648.784401 -274.591426 
L 649.046775 -274.587129 
L 649.309149 -274.577675 
L 649.571524 -274.563612 
L 649.833898 -274.547725 
L 650.096273 -274.533702 
L 650.358647 -274.524667 
L 650.621021 -274.522435 
L 650.883396 -274.52738 
L 651.14577 -274.538427 
L 651.408144 -274.552939 
L 651.670519 -274.566903 
L 651.932893 -274.575937 
L 652.195268 -274.576946 
L 652.457642 -274.569509 
L 652.720016 -274.556004 
L 652.982391 -274.540331 
L 653.244765 -274.526094 
L 653.507139 -274.515347 
L 653.769514 -274.50843 
L 654.031888 -274.504584 
L 654.294263 -274.50272 
L 654.556637 -274.501929 
L 654.819011 -274.501635 
L 655.081386 -274.501541 
L 655.34376 -274.501525 
L 655.606134 -274.501565 
L 655.868509 -274.501716 
L 656.130883 -274.502158 
L 656.393258 -274.503287 
L 656.655632 -274.505811 
L 656.918006 -274.510748 
L 657.180381 -274.519136 
L 657.442755 -274.531398 
L 657.705129 -274.546565 
L 657.967504 -274.561915 
L 658.229878 -274.573612 
L 658.492253 -274.578376 
L 658.754627 -274.575388 
L 659.017001 -274.56727 
L 659.279376 -274.559516 
L 659.54175 -274.558686 
L 659.804124 -274.570315 
L 660.066499 -274.597369 
L 660.328873 -274.639735 
L 660.591248 -274.69487 
L 660.853622 -274.759179 
L 661.115996 -274.829136 
L 661.378371 -274.901186 
L 661.640745 -274.970688 
L 661.903119 -275.031739 
L 662.165494 -275.079716 
L 662.427868 -275.116075 
L 662.690243 -275.152128 
L 662.952617 -275.207944 
L 663.214991 -275.305387 
L 663.477366 -275.458505 
L 663.73974 -275.66676 
L 664.002114 -275.915351 
L 664.264489 -276.183185 
L 664.526863 -276.455462 
L 664.789238 -276.735337 
L 665.051612 -277.048387 
L 665.313986 -277.43556 
L 665.576361 -277.936063 
L 665.838735 -278.568986 
L 666.101109 -279.3255 
L 666.363484 -280.177564 
L 666.625858 -281.096837 
L 666.888233 -282.068407 
L 667.150607 -283.086606 
L 667.412981 -284.1342 
L 667.675356 -285.161309 
L 667.93773 -286.083824 
L 668.200104 -286.808367 
L 668.462479 -287.270275 
L 668.724853 -287.459167 
L 668.987227 -287.413878 
L 669.249602 -287.189963 
L 669.511976 -286.821989 
L 669.774351 -286.305306 
L 670.036725 -285.607337 
L 670.299099 -284.698536 
L 670.561474 -283.582369 
L 670.823848 -282.30763 
L 671.086222 -280.959685 
L 671.348597 -279.638704 
L 671.610971 -278.436148 
L 671.873346 -277.417165 
L 672.13572 -276.611752 
L 672.398094 -276.014812 
L 672.660469 -275.594096 
L 672.922843 -275.303504 
L 673.185217 -275.097481 
L 673.447592 -274.941631 
L 673.447592 -274.061369 
L 673.447592 -274.061369 
L 673.185217 -273.905519 
L 672.922843 -273.699496 
L 672.660469 -273.408904 
L 672.398094 -272.988188 
L 672.13572 -272.391248 
L 671.873346 -271.585835 
L 671.610971 -270.566852 
L 671.348597 -269.364296 
L 671.086222 -268.043315 
L 670.823848 -266.69537 
L 670.561474 -265.420631 
L 670.299099 -264.304464 
L 670.036725 -263.395663 
L 669.774351 -262.697694 
L 669.511976 -262.181011 
L 669.249602 -261.813037 
L 668.987227 -261.589122 
L 668.724853 -261.543833 
L 668.462479 -261.732725 
L 668.200104 -262.194633 
L 667.93773 -262.919176 
L 667.675356 -263.841691 
L 667.412981 -264.8688 
L 667.150607 -265.916394 
L 666.888233 -266.934593 
L 666.625858 -267.906163 
L 666.363484 -268.825436 
L 666.101109 -269.6775 
L 665.838735 -270.434014 
L 665.576361 -271.066937 
L 665.313986 -271.56744 
L 665.051612 -271.954613 
L 664.789238 -272.267663 
L 664.526863 -272.547538 
L 664.264489 -272.819815 
L 664.002114 -273.087649 
L 663.73974 -273.33624 
L 663.477366 -273.544495 
L 663.214991 -273.697613 
L 662.952617 -273.795056 
L 662.690243 -273.850872 
L 662.427868 -273.886925 
L 662.165494 -273.923284 
L 661.903119 -273.971261 
L 661.640745 -274.032312 
L 661.378371 -274.101814 
L 661.115996 -274.173864 
L 660.853622 -274.243821 
L 660.591248 -274.30813 
L 660.328873 -274.363265 
L 660.066499 -274.405631 
L 659.804124 -274.432685 
L 659.54175 -274.444314 
L 659.279376 -274.443484 
L 659.017001 -274.43573 
L 658.754627 -274.427612 
L 658.492253 -274.424624 
L 658.229878 -274.429388 
L 657.967504 -274.441085 
L 657.705129 -274.456435 
L 657.442755 -274.471602 
L 657.180381 -274.483864 
L 656.918006 -274.492252 
L 656.655632 -274.497189 
L 656.393258 -274.499713 
L 656.130883 -274.500842 
L 655.868509 -274.501284 
L 655.606134 -274.501435 
L 655.34376 -274.501475 
L 655.081386 -274.501459 
L 654.819011 -274.501365 
L 654.556637 -274.501071 
L 654.294263 -274.50028 
L 654.031888 -274.498416 
L 653.769514 -274.49457 
L 653.507139 -274.487653 
L 653.244765 -274.476906 
L 652.982391 -274.462669 
L 652.720016 -274.446996 
L 652.457642 -274.433491 
L 652.195268 -274.426054 
L 651.932893 -274.427063 
L 651.670519 -274.436097 
L 651.408144 -274.450061 
L 651.14577 -274.464573 
L 650.883396 -274.47562 
L 650.621021 -274.480565 
L 650.358647 -274.478333 
L 650.096273 -274.469298 
L 649.833898 -274.455275 
L 649.571524 -274.439388 
L 649.309149 -274.425325 
L 649.046775 -274.415871 
L 648.784401 -274.411574 
L 648.522026 -274.410695 
L 648.259652 -274.410771 
L 647.997278 -274.4107 
L 647.734903 -274.411681 
L 647.472529 -274.416206 
z
" id="mab0ec1ae7c" style="stroke:#424242;"/>
    </defs>
    <g clip-path="url(#p1c6241e678)">
     <use style="fill:#be631d;stroke:#424242;" x="0" xlink:href="#mab0ec1ae7c" y="323.353333"/>
    </g>
   </g>
   <g id="PolyCollection_3">
    <defs>
     <path d="M 633.626629 -235.364128 
L 633.626629 -235.892872 
L 634.02053 -235.908204 
L 634.414431 -235.919428 
L 634.808331 -235.926779 
L 635.202232 -235.93097 
L 635.596133 -235.933145 
L 635.990033 -235.934784 
L 636.383934 -235.937567 
L 636.777834 -235.943215 
L 637.171735 -235.95334 
L 637.565636 -235.969298 
L 637.959536 -235.992094 
L 638.353437 -236.022325 
L 638.747338 -236.060178 
L 639.141238 -236.105485 
L 639.535139 -236.157828 
L 639.92904 -236.216676 
L 640.32294 -236.281544 
L 640.716841 -236.352142 
L 641.110742 -236.428497 
L 641.504642 -236.511018 
L 641.898543 -236.600475 
L 642.292444 -236.697901 
L 642.686344 -236.804401 
L 643.080245 -236.9209 
L 643.474145 -237.04787 
L 643.868046 -237.185076 
L 644.261947 -237.3314 
L 644.655847 -237.484783 
L 645.049748 -237.642315 
L 645.443649 -237.800469 
L 645.837549 -237.955455 
L 646.23145 -238.103633 
L 646.625351 -238.241937 
L 647.019251 -238.368223 
L 647.413152 -238.481506 
L 647.807053 -238.582051 
L 648.200953 -238.671325 
L 648.594854 -238.751832 
L 648.988755 -238.826881 
L 649.382655 -238.900334 
L 649.776556 -238.976377 
L 650.170456 -239.059321 
L 650.564357 -239.153447 
L 650.958258 -239.262861 
L 651.352158 -239.391339 
L 651.746059 -239.542138 
L 652.13996 -239.717758 
L 652.53386 -239.919675 
L 652.927761 -240.148063 
L 653.321662 -240.401563 
L 653.715562 -240.677133 
L 654.109463 -240.970028 
L 654.503364 -241.273924 
L 654.897264 -241.581213 
L 655.291165 -241.883431 
L 655.685066 -242.171791 
L 656.078966 -242.437782 
L 656.472867 -242.673756 
L 656.866767 -242.873448 
L 657.260668 -243.032373 
L 657.654569 -243.148041 
L 658.048469 -243.219974 
L 658.44237 -243.249514 
L 658.836271 -243.239449 
L 659.230171 -243.193517 
L 659.624072 -243.115847 
L 660.017973 -243.010433 
L 660.411873 -242.880696 
L 660.805774 -242.729224 
L 661.199675 -242.557682 
L 661.593575 -242.366913 
L 661.987476 -242.157188 
L 662.381377 -241.928538 
L 662.775277 -241.681104 
L 663.169178 -241.415431 
L 663.563078 -241.132674 
L 663.956979 -240.834674 
L 664.35088 -240.523918 
L 664.74478 -240.203425 
L 665.138681 -239.876573 
L 665.532582 -239.546929 
L 665.926482 -239.21811 
L 666.320383 -238.893674 
L 666.714284 -238.577054 
L 667.108184 -238.27151 
L 667.502085 -237.980072 
L 667.895986 -237.705469 
L 668.289886 -237.450031 
L 668.683787 -237.215575 
L 669.077688 -237.003291 
L 669.471588 -236.813661 
L 669.865489 -236.646427 
L 670.259389 -236.50062 
L 670.65329 -236.374667 
L 671.047191 -236.266542 
L 671.441091 -236.173964 
L 671.834992 -236.094595 
L 672.228893 -236.02622 
L 672.622793 -235.966891 
L 672.622793 -235.290109 
L 672.622793 -235.290109 
L 672.228893 -235.23078 
L 671.834992 -235.162405 
L 671.441091 -235.083036 
L 671.047191 -234.990458 
L 670.65329 -234.882333 
L 670.259389 -234.75638 
L 669.865489 -234.610573 
L 669.471588 -234.443339 
L 669.077688 -234.253709 
L 668.683787 -234.041425 
L 668.289886 -233.806969 
L 667.895986 -233.551531 
L 667.502085 -233.276928 
L 667.108184 -232.98549 
L 666.714284 -232.679946 
L 666.320383 -232.363326 
L 665.926482 -232.03889 
L 665.532582 -231.710071 
L 665.138681 -231.380427 
L 664.74478 -231.053575 
L 664.35088 -230.733082 
L 663.956979 -230.422326 
L 663.563078 -230.124326 
L 663.169178 -229.841569 
L 662.775277 -229.575896 
L 662.381377 -229.328462 
L 661.987476 -229.099812 
L 661.593575 -228.890087 
L 661.199675 -228.699318 
L 660.805774 -228.527776 
L 660.411873 -228.376304 
L 660.017973 -228.246567 
L 659.624072 -228.141153 
L 659.230171 -228.063483 
L 658.836271 -228.017551 
L 658.44237 -228.007486 
L 658.048469 -228.037026 
L 657.654569 -228.108959 
L 657.260668 -228.224627 
L 656.866767 -228.383552 
L 656.472867 -228.583244 
L 656.078966 -228.819218 
L 655.685066 -229.085209 
L 655.291165 -229.373569 
L 654.897264 -229.675787 
L 654.503364 -229.983076 
L 654.109463 -230.286972 
L 653.715562 -230.579867 
L 653.321662 -230.855437 
L 652.927761 -231.108937 
L 652.53386 -231.337325 
L 652.13996 -231.539242 
L 651.746059 -231.714862 
L 651.352158 -231.865661 
L 650.958258 -231.994139 
L 650.564357 -232.103553 
L 650.170456 -232.197679 
L 649.776556 -232.280623 
L 649.382655 -232.356666 
L 648.988755 -232.430119 
L 648.594854 -232.505168 
L 648.200953 -232.585675 
L 647.807053 -232.674949 
L 647.413152 -232.775494 
L 647.019251 -232.888777 
L 646.625351 -233.015063 
L 646.23145 -233.153367 
L 645.837549 -233.301545 
L 645.443649 -233.456531 
L 645.049748 -233.614685 
L 644.655847 -233.772217 
L 644.261947 -233.9256 
L 643.868046 -234.071924 
L 643.474145 -234.20913 
L 643.080245 -234.3361 
L 642.686344 -234.452599 
L 642.292444 -234.559099 
L 641.898543 -234.656525 
L 641.504642 -234.745982 
L 641.110742 -234.828503 
L 640.716841 -234.904858 
L 640.32294 -234.975456 
L 639.92904 -235.040324 
L 639.535139 -235.099172 
L 639.141238 -235.151515 
L 638.747338 -235.196822 
L 638.353437 -235.234675 
L 637.959536 -235.264906 
L 637.565636 -235.287702 
L 637.171735 -235.30366 
L 636.777834 -235.313785 
L 636.383934 -235.319433 
L 635.990033 -235.322216 
L 635.596133 -235.323855 
L 635.202232 -235.32603 
L 634.808331 -235.330221 
L 634.414431 -235.337572 
L 634.02053 -235.348796 
L 633.626629 -235.364128 
z
" id="m9214f70a97" style="stroke:#424242;"/>
    </defs>
    <g clip-path="url(#p1c6241e678)">
     <use style="fill:#7c78ab;stroke:#424242;" x="0" xlink:href="#m9214f70a97" y="323.353333"/>
    </g>
   </g>
   <g id="PolyCollection_4">
    <defs>
     <path d="M 654.889527 -208.671613 
L 654.889527 -210.754721 
L 655.052926 -210.814084 
L 655.216324 -210.872556 
L 655.379722 -210.930535 
L 655.54312 -210.988636 
L 655.706518 -211.047676 
L 655.869916 -211.108656 
L 656.033314 -211.172727 
L 656.196713 -211.241145 
L 656.360111 -211.315224 
L 656.523509 -211.396274 
L 656.686907 -211.485538 
L 656.850305 -211.584136 
L 657.013703 -211.693003 
L 657.177101 -211.812842 
L 657.3405 -211.944087 
L 657.503898 -212.086877 
L 657.667296 -212.241051 
L 657.830694 -212.40616 
L 657.994092 -212.58149 
L 658.15749 -212.766112 
L 658.320888 -212.958933 
L 658.484286 -213.158773 
L 658.647685 -213.364433 
L 658.811083 -213.574771 
L 658.974481 -213.788781 
L 659.137879 -214.005649 
L 659.301277 -214.224812 
L 659.464675 -214.445994 
L 659.628073 -214.66922 
L 659.791472 -214.894821 
L 659.95487 -215.123411 
L 660.118268 -215.355846 
L 660.281666 -215.593174 
L 660.445064 -215.836555 
L 660.608462 -216.087191 
L 660.77186 -216.346227 
L 660.935258 -216.614672 
L 661.098657 -216.893301 
L 661.262055 -217.182582 
L 661.425453 -217.482599 
L 661.588851 -217.793 
L 661.752249 -218.112957 
L 661.915647 -218.441149 
L 662.079045 -218.775766 
L 662.242444 -219.114538 
L 662.405842 -219.454777 
L 662.56924 -219.793452 
L 662.732638 -220.127268 
L 662.896036 -220.452772 
L 663.059434 -220.76645 
L 663.222832 -221.064846 
L 663.386231 -221.344665 
L 663.549629 -221.602879 
L 663.713027 -221.836813 
L 663.876425 -222.044221 
L 664.039823 -222.223342 
L 664.203221 -222.372935 
L 664.366619 -222.492291 
L 664.530017 -222.581228 
L 664.693416 -222.640058 
L 664.856814 -222.669542 
L 665.020212 -222.670833 
L 665.18361 -222.645396 
L 665.347008 -222.594931 
L 665.510406 -222.52129 
L 665.673804 -222.426396 
L 665.837203 -222.312161 
L 666.000601 -222.180427 
L 666.163999 -222.032902 
L 666.327397 -221.871127 
L 666.490795 -221.696444 
L 666.654193 -221.509992 
L 666.817591 -221.312708 
L 666.98099 -221.105342 
L 667.144388 -220.888486 
L 667.307786 -220.662603 
L 667.471184 -220.428061 
L 667.634582 -220.185162 
L 667.79798 -219.934171 
L 667.961378 -219.675335 
L 668.124776 -219.408896 
L 668.288175 -219.135095 
L 668.451573 -218.854177 
L 668.614971 -218.566384 
L 668.778369 -218.271952 
L 668.941767 -217.971112 
L 669.105165 -217.664093 
L 669.268563 -217.35113 
L 669.431962 -217.032488 
L 669.59536 -216.708481 
L 669.758758 -216.379508 
L 669.922156 -216.046083 
L 670.085554 -215.708872 
L 670.248952 -215.368722 
L 670.41235 -215.026679 
L 670.575749 -214.684003 
L 670.739147 -214.342164 
L 670.902545 -214.002822 
L 671.065943 -213.667795 
L 671.065943 -205.758539 
L 671.065943 -205.758539 
L 670.902545 -205.423511 
L 670.739147 -205.084169 
L 670.575749 -204.74233 
L 670.41235 -204.399655 
L 670.248952 -204.057612 
L 670.085554 -203.717461 
L 669.922156 -203.38025 
L 669.758758 -203.046825 
L 669.59536 -202.717852 
L 669.431962 -202.393845 
L 669.268563 -202.075203 
L 669.105165 -201.762241 
L 668.941767 -201.455221 
L 668.778369 -201.154381 
L 668.614971 -200.859949 
L 668.451573 -200.572156 
L 668.288175 -200.291238 
L 668.124776 -200.017437 
L 667.961378 -199.750998 
L 667.79798 -199.492162 
L 667.634582 -199.241171 
L 667.471184 -198.998273 
L 667.307786 -198.763731 
L 667.144388 -198.537848 
L 666.98099 -198.320992 
L 666.817591 -198.113625 
L 666.654193 -197.916341 
L 666.490795 -197.729889 
L 666.327397 -197.555207 
L 666.163999 -197.393431 
L 666.000601 -197.245907 
L 665.837203 -197.114172 
L 665.673804 -196.999938 
L 665.510406 -196.905043 
L 665.347008 -196.831402 
L 665.18361 -196.780937 
L 665.020212 -196.7555 
L 664.856814 -196.756791 
L 664.693416 -196.786276 
L 664.530017 -196.845105 
L 664.366619 -196.934042 
L 664.203221 -197.053399 
L 664.039823 -197.202992 
L 663.876425 -197.382113 
L 663.713027 -197.58952 
L 663.549629 -197.823454 
L 663.386231 -198.081668 
L 663.222832 -198.361488 
L 663.059434 -198.659884 
L 662.896036 -198.973562 
L 662.732638 -199.299065 
L 662.56924 -199.632882 
L 662.405842 -199.971556 
L 662.242444 -200.311795 
L 662.079045 -200.650567 
L 661.915647 -200.985185 
L 661.752249 -201.313377 
L 661.588851 -201.633334 
L 661.425453 -201.943734 
L 661.262055 -202.243751 
L 661.098657 -202.533032 
L 660.935258 -202.811661 
L 660.77186 -203.080106 
L 660.608462 -203.339143 
L 660.445064 -203.589778 
L 660.281666 -203.83316 
L 660.118268 -204.070487 
L 659.95487 -204.302923 
L 659.791472 -204.531512 
L 659.628073 -204.757113 
L 659.464675 -204.98034 
L 659.301277 -205.201521 
L 659.137879 -205.420685 
L 658.974481 -205.637553 
L 658.811083 -205.851562 
L 658.647685 -206.061901 
L 658.484286 -206.26756 
L 658.320888 -206.4674 
L 658.15749 -206.660222 
L 657.994092 -206.844843 
L 657.830694 -207.020173 
L 657.667296 -207.185282 
L 657.503898 -207.339457 
L 657.3405 -207.482247 
L 657.177101 -207.613491 
L 657.013703 -207.73333 
L 656.850305 -207.842197 
L 656.686907 -207.940795 
L 656.523509 -208.030059 
L 656.360111 -208.111109 
L 656.196713 -208.185188 
L 656.033314 -208.253607 
L 655.869916 -208.317677 
L 655.706518 -208.378657 
L 655.54312 -208.437697 
L 655.379722 -208.495798 
L 655.216324 -208.553778 
L 655.052926 -208.612249 
L 654.889527 -208.671613 
z
" id="m78b466f2ec" style="stroke:#424242;"/>
    </defs>
    <g clip-path="url(#p1c6241e678)">
     <use style="fill:#be631d;stroke:#424242;" x="0" xlink:href="#m78b466f2ec" y="323.353333"/>
    </g>
   </g>
   <g id="PolyCollection_5">
    <defs>
     <path d="M 644.346654 -168.573323 
L 644.346654 -173.10701 
L 644.582062 -173.149894 
L 644.81747 -173.190687 
L 645.052878 -173.229337 
L 645.288286 -173.265803 
L 645.523694 -173.300063 
L 645.759102 -173.33211 
L 645.99451 -173.361956 
L 646.229918 -173.389628 
L 646.465326 -173.415169 
L 646.700734 -173.43864 
L 646.936142 -173.460117 
L 647.17155 -173.479691 
L 647.406958 -173.497469 
L 647.642366 -173.513569 
L 647.877774 -173.528125 
L 648.113182 -173.54128 
L 648.34859 -173.553189 
L 648.583998 -173.564014 
L 648.819406 -173.573928 
L 649.054814 -173.583108 
L 649.290222 -173.591735 
L 649.52563 -173.599996 
L 649.761038 -173.608078 
L 649.996446 -173.616167 
L 650.231854 -173.624451 
L 650.467262 -173.633111 
L 650.70267 -173.642326 
L 650.938078 -173.652269 
L 651.173486 -173.663104 
L 651.408894 -173.674987 
L 651.644302 -173.688065 
L 651.87971 -173.702471 
L 652.115118 -173.718327 
L 652.350526 -173.735743 
L 652.585934 -173.754811 
L 652.821342 -173.77561 
L 653.05675 -173.798203 
L 653.292158 -173.822634 
L 653.527566 -173.848933 
L 653.762974 -173.87711 
L 653.998382 -173.907158 
L 654.23379 -173.939051 
L 654.469198 -173.972745 
L 654.704606 -174.00818 
L 654.940014 -174.045276 
L 655.175422 -174.083935 
L 655.41083 -174.124045 
L 655.646238 -174.165473 
L 655.881646 -174.208074 
L 656.117054 -174.251685 
L 656.352462 -174.296131 
L 656.58787 -174.341222 
L 656.823278 -174.386755 
L 657.058686 -174.432517 
L 657.294094 -174.478286 
L 657.529502 -174.523829 
L 657.76491 -174.568907 
L 658.000318 -174.613274 
L 658.235726 -174.656681 
L 658.471134 -174.698875 
L 658.706542 -174.739601 
L 658.94195 -174.778605 
L 659.177358 -174.815637 
L 659.412766 -174.850445 
L 659.648174 -174.882788 
L 659.883582 -174.912428 
L 660.11899 -174.939137 
L 660.354398 -174.962695 
L 660.589806 -174.982895 
L 660.825214 -174.999543 
L 661.060622 -175.012457 
L 661.29603 -175.021473 
L 661.531438 -175.026442 
L 661.766846 -175.027233 
L 662.002254 -175.023734 
L 662.237662 -175.015852 
L 662.47307 -175.003514 
L 662.708478 -174.986669 
L 662.943886 -174.965285 
L 663.179294 -174.939353 
L 663.414702 -174.908885 
L 663.65011 -174.873915 
L 663.885518 -174.834497 
L 664.120926 -174.790707 
L 664.356334 -174.74264 
L 664.591742 -174.690412 
L 664.82715 -174.634157 
L 665.062558 -174.574028 
L 665.297966 -174.510193 
L 665.533374 -174.442837 
L 665.768782 -174.372159 
L 666.00419 -174.29837 
L 666.239598 -174.221695 
L 666.475006 -174.142367 
L 666.710414 -174.060628 
L 666.945822 -173.976727 
L 667.18123 -173.890918 
L 667.416638 -173.803459 
L 667.652046 -173.714611 
L 667.652046 -167.965722 
L 667.652046 -167.965722 
L 667.416638 -167.876874 
L 667.18123 -167.789415 
L 666.945822 -167.703606 
L 666.710414 -167.619705 
L 666.475006 -167.537966 
L 666.239598 -167.458638 
L 666.00419 -167.381963 
L 665.768782 -167.308175 
L 665.533374 -167.237496 
L 665.297966 -167.17014 
L 665.062558 -167.106305 
L 664.82715 -167.046176 
L 664.591742 -166.989921 
L 664.356334 -166.937693 
L 664.120926 -166.889627 
L 663.885518 -166.845836 
L 663.65011 -166.806418 
L 663.414702 -166.771448 
L 663.179294 -166.74098 
L 662.943886 -166.715049 
L 662.708478 -166.693665 
L 662.47307 -166.676819 
L 662.237662 -166.664481 
L 662.002254 -166.656599 
L 661.766846 -166.6531 
L 661.531438 -166.653891 
L 661.29603 -166.65886 
L 661.060622 -166.667876 
L 660.825214 -166.680791 
L 660.589806 -166.697438 
L 660.354398 -166.717639 
L 660.11899 -166.741197 
L 659.883582 -166.767905 
L 659.648174 -166.797545 
L 659.412766 -166.829888 
L 659.177358 -166.864697 
L 658.94195 -166.901728 
L 658.706542 -166.940733 
L 658.471134 -166.981459 
L 658.235726 -167.023652 
L 658.000318 -167.067059 
L 657.76491 -167.111426 
L 657.529502 -167.156504 
L 657.294094 -167.202047 
L 657.058686 -167.247816 
L 656.823278 -167.293579 
L 656.58787 -167.339112 
L 656.352462 -167.384202 
L 656.117054 -167.428648 
L 655.881646 -167.472259 
L 655.646238 -167.51486 
L 655.41083 -167.556289 
L 655.175422 -167.596398 
L 654.940014 -167.635057 
L 654.704606 -167.672153 
L 654.469198 -167.707588 
L 654.23379 -167.741283 
L 653.998382 -167.773176 
L 653.762974 -167.803223 
L 653.527566 -167.8314 
L 653.292158 -167.857699 
L 653.05675 -167.882131 
L 652.821342 -167.904723 
L 652.585934 -167.925522 
L 652.350526 -167.944591 
L 652.115118 -167.962006 
L 651.87971 -167.977863 
L 651.644302 -167.992269 
L 651.408894 -168.005346 
L 651.173486 -168.017229 
L 650.938078 -168.028064 
L 650.70267 -168.038007 
L 650.467262 -168.047222 
L 650.231854 -168.055883 
L 649.996446 -168.064166 
L 649.761038 -168.072256 
L 649.52563 -168.080337 
L 649.290222 -168.088598 
L 649.054814 -168.097226 
L 648.819406 -168.106405 
L 648.583998 -168.116319 
L 648.34859 -168.127145 
L 648.113182 -168.139053 
L 647.877774 -168.152208 
L 647.642366 -168.166764 
L 647.406958 -168.182864 
L 647.17155 -168.200642 
L 646.936142 -168.220216 
L 646.700734 -168.241693 
L 646.465326 -168.265164 
L 646.229918 -168.290705 
L 645.99451 -168.318377 
L 645.759102 -168.348223 
L 645.523694 -168.380271 
L 645.288286 -168.414531 
L 645.052878 -168.450997 
L 644.81747 -168.489646 
L 644.582062 -168.53044 
L 644.346654 -168.573323 
z
" id="m88892f27f4" style="stroke:#424242;"/>
    </defs>
    <g clip-path="url(#p1c6241e678)">
     <use style="fill:#7c78ab;stroke:#424242;" x="0" xlink:href="#m88892f27f4" y="323.353333"/>
    </g>
   </g>
   <g id="PolyCollection_6">
    <defs>
     <path d="M 661.560401 -134.845945 
L 661.560401 -155.003721 
L 661.665529 -155.306253 
L 661.770657 -155.59462 
L 661.875785 -155.867834 
L 661.980913 -156.125049 
L 662.086041 -156.365556 
L 662.191169 -156.588793 
L 662.296297 -156.794336 
L 662.401425 -156.981897 
L 662.506553 -157.151317 
L 662.611681 -157.302554 
L 662.716809 -157.435675 
L 662.821937 -157.550841 
L 662.927065 -157.648296 
L 663.032193 -157.728353 
L 663.137321 -157.791378 
L 663.242449 -157.837782 
L 663.347577 -157.868003 
L 663.452705 -157.8825 
L 663.557833 -157.88174 
L 663.662961 -157.866193 
L 663.768089 -157.836322 
L 663.873217 -157.792584 
L 663.978345 -157.735422 
L 664.083473 -157.665271 
L 664.188601 -157.582552 
L 664.293729 -157.487679 
L 664.398857 -157.381064 
L 664.503985 -157.263117 
L 664.609113 -157.134252 
L 664.714241 -156.994896 
L 664.819369 -156.845489 
L 664.924497 -156.686492 
L 665.029625 -156.518389 
L 665.134753 -156.341691 
L 665.239881 -156.156937 
L 665.345009 -155.964697 
L 665.450137 -155.765567 
L 665.555265 -155.560171 
L 665.660393 -155.349153 
L 665.765521 -155.133181 
L 665.870649 -154.91293 
L 665.975777 -154.689088 
L 666.080904 -154.462339 
L 666.186032 -154.233363 
L 666.29116 -154.002826 
L 666.396288 -153.771374 
L 666.501416 -153.539628 
L 666.606544 -153.308174 
L 666.711672 -153.077566 
L 666.8168 -152.848314 
L 666.921928 -152.620889 
L 667.027056 -152.395716 
L 667.132184 -152.17318 
L 667.237312 -151.953621 
L 667.34244 -151.737339 
L 667.447568 -151.524598 
L 667.552696 -151.31563 
L 667.657824 -151.110638 
L 667.762952 -150.909801 
L 667.86808 -150.713279 
L 667.973208 -150.52122 
L 668.078336 -150.333762 
L 668.183464 -150.151038 
L 668.288592 -149.97318 
L 668.39372 -149.80032 
L 668.498848 -149.632592 
L 668.603976 -149.470134 
L 668.709104 -149.313086 
L 668.814232 -149.161589 
L 668.91936 -149.015782 
L 669.024488 -148.8758 
L 669.129616 -148.741769 
L 669.234744 -148.6138 
L 669.339872 -148.491986 
L 669.445 -148.376398 
L 669.550128 -148.267073 
L 669.655256 -148.16402 
L 669.760384 -148.067204 
L 669.865512 -147.976552 
L 669.97064 -147.891941 
L 670.075768 -147.813203 
L 670.180896 -147.740121 
L 670.286024 -147.672429 
L 670.391152 -147.609812 
L 670.49628 -147.551912 
L 670.601408 -147.498329 
L 670.706535 -147.448625 
L 670.811663 -147.402335 
L 670.916791 -147.358964 
L 671.021919 -147.318005 
L 671.127047 -147.27894 
L 671.232175 -147.24125 
L 671.337303 -147.204423 
L 671.442431 -147.167963 
L 671.547559 -147.131399 
L 671.652687 -147.094289 
L 671.757815 -147.056231 
L 671.862943 -147.016865 
L 671.968071 -146.975881 
L 671.968071 -142.873785 
L 671.968071 -142.873785 
L 671.862943 -142.832802 
L 671.757815 -142.793436 
L 671.652687 -142.755377 
L 671.547559 -142.718268 
L 671.442431 -142.681704 
L 671.337303 -142.645244 
L 671.232175 -142.608417 
L 671.127047 -142.570727 
L 671.021919 -142.531661 
L 670.916791 -142.490702 
L 670.811663 -142.447332 
L 670.706535 -142.401041 
L 670.601408 -142.351338 
L 670.49628 -142.297755 
L 670.391152 -142.239855 
L 670.286024 -142.177238 
L 670.180896 -142.109546 
L 670.075768 -142.036464 
L 669.97064 -141.957726 
L 669.865512 -141.873115 
L 669.760384 -141.782462 
L 669.655256 -141.685647 
L 669.550128 -141.582593 
L 669.445 -141.473269 
L 669.339872 -141.35768 
L 669.234744 -141.235867 
L 669.129616 -141.107898 
L 669.024488 -140.973866 
L 668.91936 -140.833885 
L 668.814232 -140.688078 
L 668.709104 -140.536581 
L 668.603976 -140.379533 
L 668.498848 -140.217075 
L 668.39372 -140.049347 
L 668.288592 -139.876486 
L 668.183464 -139.698628 
L 668.078336 -139.515904 
L 667.973208 -139.328447 
L 667.86808 -139.136388 
L 667.762952 -138.939866 
L 667.657824 -138.739029 
L 667.552696 -138.534036 
L 667.447568 -138.325068 
L 667.34244 -138.112328 
L 667.237312 -137.896046 
L 667.132184 -137.676486 
L 667.027056 -137.45395 
L 666.921928 -137.228778 
L 666.8168 -137.001353 
L 666.711672 -136.772101 
L 666.606544 -136.541492 
L 666.501416 -136.310039 
L 666.396288 -136.078292 
L 666.29116 -135.846841 
L 666.186032 -135.616304 
L 666.080904 -135.387328 
L 665.975777 -135.160579 
L 665.870649 -134.936737 
L 665.765521 -134.716486 
L 665.660393 -134.500513 
L 665.555265 -134.289496 
L 665.450137 -134.084099 
L 665.345009 -133.884969 
L 665.239881 -133.692729 
L 665.134753 -133.507976 
L 665.029625 -133.331278 
L 664.924497 -133.163175 
L 664.819369 -133.004178 
L 664.714241 -132.854771 
L 664.609113 -132.715414 
L 664.503985 -132.58655 
L 664.398857 -132.468602 
L 664.293729 -132.361987 
L 664.188601 -132.267115 
L 664.083473 -132.184396 
L 663.978345 -132.114244 
L 663.873217 -132.057083 
L 663.768089 -132.013344 
L 663.662961 -131.983474 
L 663.557833 -131.967926 
L 663.452705 -131.967167 
L 663.347577 -131.981664 
L 663.242449 -132.011885 
L 663.137321 -132.058289 
L 663.032193 -132.121314 
L 662.927065 -132.20137 
L 662.821937 -132.298826 
L 662.716809 -132.413992 
L 662.611681 -132.547112 
L 662.506553 -132.698349 
L 662.401425 -132.867769 
L 662.296297 -133.055331 
L 662.191169 -133.260874 
L 662.086041 -133.484111 
L 661.980913 -133.724618 
L 661.875785 -133.981832 
L 661.770657 -134.255047 
L 661.665529 -134.543414 
L 661.560401 -134.845945 
z
" id="m096c4e2e8d" style="stroke:#424242;"/>
    </defs>
    <g clip-path="url(#p1c6241e678)">
     <use style="fill:#be631d;stroke:#424242;" x="0" xlink:href="#m096c4e2e8d" y="323.353333"/>
    </g>
   </g>
   <g id="patch_86">
    <path clip-path="url(#p1c6241e678)" d="M 434.490222 35.894167 
L 434.490222 35.894167 
L 434.490222 35.894167 
L 434.490222 35.894167 
z
" style="fill:#7c78ab;stroke:#424242;stroke-linejoin:miter;stroke-width:0.5;"/>
   </g>
   <g id="patch_87">
    <path clip-path="url(#p1c6241e678)" d="M 434.490222 35.894167 
L 434.490222 35.894167 
L 434.490222 35.894167 
L 434.490222 35.894167 
z
" style="fill:#be631d;stroke:#424242;stroke-linejoin:miter;stroke-width:0.5;"/>
   </g>
   <g id="matplotlib.axis_3">
    <g id="xtick_5">
     <g id="line2d_9">
      <g>
       <use style="stroke:#000000;stroke-width:1.6;" x="434.490222" xlink:href="#m246eae01c4" y="262.653333"/>
      </g>
     </g>
     <g id="text_10">
      <!-- 0.0 -->
      <g transform="translate(418.587097 292.550208)scale(0.2 -0.2)">
       <use xlink:href="#DejaVuSans-48"/>
       <use x="63.623047" xlink:href="#DejaVuSans-46"/>
       <use x="95.410156" xlink:href="#DejaVuSans-48"/>
      </g>
     </g>
    </g>
    <g id="xtick_6">
     <g id="line2d_10">
      <g>
       <use style="stroke:#000000;stroke-width:1.6;" x="503.597778" xlink:href="#m246eae01c4" y="262.653333"/>
      </g>
     </g>
     <g id="text_11">
      <!-- 0.2 -->
      <g transform="translate(487.694653 292.550208)scale(0.2 -0.2)">
       <use xlink:href="#DejaVuSans-48"/>
       <use x="63.623047" xlink:href="#DejaVuSans-46"/>
       <use x="95.410156" xlink:href="#DejaVuSans-50"/>
      </g>
     </g>
    </g>
    <g id="xtick_7">
     <g id="line2d_11">
      <g>
       <use style="stroke:#000000;stroke-width:1.6;" x="572.705333" xlink:href="#m246eae01c4" y="262.653333"/>
      </g>
     </g>
     <g id="text_12">
      <!-- 0.4 -->
      <g transform="translate(556.802208 292.550208)scale(0.2 -0.2)">
       <use xlink:href="#DejaVuSans-48"/>
       <use x="63.623047" xlink:href="#DejaVuSans-46"/>
       <use x="95.410156" xlink:href="#DejaVuSans-52"/>
      </g>
     </g>
    </g>
    <g id="xtick_8">
     <g id="line2d_12">
      <g>
       <use style="stroke:#000000;stroke-width:1.6;" x="641.812889" xlink:href="#m246eae01c4" y="262.653333"/>
      </g>
     </g>
     <g id="text_13">
      <!-- 0.6 -->
      <g transform="translate(625.909764 292.550208)scale(0.2 -0.2)">
       <use xlink:href="#DejaVuSans-48"/>
       <use x="63.623047" xlink:href="#DejaVuSans-46"/>
       <use x="95.410156" xlink:href="#DejaVuSans-54"/>
      </g>
     </g>
    </g>
    <g id="text_14">
     <!-- Max JS Divergence within $\epsilon$ -->
     <g transform="translate(411.19 315.909583)scale(0.2 -0.2)">
      <use transform="translate(0 0.015625)" xlink:href="#DejaVuSans-77"/>
      <use transform="translate(86.279297 0.015625)" xlink:href="#DejaVuSans-97"/>
      <use transform="translate(147.558594 0.015625)" xlink:href="#DejaVuSans-120"/>
      <use transform="translate(206.738281 0.015625)" xlink:href="#DejaVuSans-32"/>
      <use transform="translate(238.525391 0.015625)" xlink:href="#DejaVuSans-74"/>
      <use transform="translate(268.017578 0.015625)" xlink:href="#DejaVuSans-83"/>
      <use transform="translate(331.494141 0.015625)" xlink:href="#DejaVuSans-32"/>
      <use transform="translate(363.28125 0.015625)" xlink:href="#DejaVuSans-68"/>
      <use transform="translate(440.283203 0.015625)" xlink:href="#DejaVuSans-105"/>
      <use transform="translate(468.066406 0.015625)" xlink:href="#DejaVuSans-118"/>
      <use transform="translate(527.246094 0.015625)" xlink:href="#DejaVuSans-101"/>
      <use transform="translate(588.769531 0.015625)" xlink:href="#DejaVuSans-114"/>
      <use transform="translate(629.882812 0.015625)" xlink:href="#DejaVuSans-103"/>
      <use transform="translate(693.359375 0.015625)" xlink:href="#DejaVuSans-101"/>
      <use transform="translate(754.882812 0.015625)" xlink:href="#DejaVuSans-110"/>
      <use transform="translate(818.261719 0.015625)" xlink:href="#DejaVuSans-99"/>
      <use transform="translate(873.242188 0.015625)" xlink:href="#DejaVuSans-101"/>
      <use transform="translate(934.765625 0.015625)" xlink:href="#DejaVuSans-32"/>
      <use transform="translate(966.552734 0.015625)" xlink:href="#DejaVuSans-119"/>
      <use transform="translate(1048.339844 0.015625)" xlink:href="#DejaVuSans-105"/>
      <use transform="translate(1076.123047 0.015625)" xlink:href="#DejaVuSans-116"/>
      <use transform="translate(1115.332031 0.015625)" xlink:href="#DejaVuSans-104"/>
      <use transform="translate(1178.710938 0.015625)" xlink:href="#DejaVuSans-105"/>
      <use transform="translate(1206.494141 0.015625)" xlink:href="#DejaVuSans-110"/>
      <use transform="translate(1269.873047 0.015625)" xlink:href="#DejaVuSans-32"/>
      <use transform="translate(1301.660156 0.015625)" xlink:href="#DejaVuSans-Oblique-949"/>
     </g>
    </g>
   </g>
   <g id="matplotlib.axis_4">
    <g id="ytick_5">
     <g id="line2d_13">
      <g>
       <use style="stroke:#000000;stroke-width:1.6;" x="417.213333" xlink:href="#m01b821e7dd" y="35.894167"/>
      </g>
     </g>
     <g id="text_15">
      <!-- [0.00, -->
      <defs>
       <path d="M 8.59375 75.984375 
L 29.296875 75.984375 
L 29.296875 69 
L 17.578125 69 
L 17.578125 -6.203125 
L 29.296875 -6.203125 
L 29.296875 -13.1875 
L 8.59375 -13.1875 
z
" id="DejaVuSans-91"/>
       <path d="M 11.71875 12.40625 
L 22.015625 12.40625 
L 22.015625 4 
L 14.015625 -11.625 
L 7.71875 -11.625 
L 11.71875 4 
z
" id="DejaVuSans-44"/>
      </defs>
      <g transform="translate(343.822708 32.294792)scale(0.2 -0.2)">
       <use xlink:href="#DejaVuSans-91"/>
       <use x="39.013672" xlink:href="#DejaVuSans-48"/>
       <use x="102.636719" xlink:href="#DejaVuSans-46"/>
       <use x="134.423828" xlink:href="#DejaVuSans-48"/>
       <use x="198.046875" xlink:href="#DejaVuSans-48"/>
       <use x="261.669922" xlink:href="#DejaVuSans-44"/>
      </g>
      <!-- 0.25) -->
      <defs>
       <path d="M 10.796875 72.90625 
L 49.515625 72.90625 
L 49.515625 64.59375 
L 19.828125 64.59375 
L 19.828125 46.734375 
Q 21.96875 47.46875 24.109375 47.828125 
Q 26.265625 48.1875 28.421875 48.1875 
Q 40.625 48.1875 47.75 41.5 
Q 54.890625 34.8125 54.890625 23.390625 
Q 54.890625 11.625 47.5625 5.09375 
Q 40.234375 -1.421875 26.90625 -1.421875 
Q 22.3125 -1.421875 17.546875 -0.640625 
Q 12.796875 0.140625 7.71875 1.703125 
L 7.71875 11.625 
Q 12.109375 9.234375 16.796875 8.0625 
Q 21.484375 6.890625 26.703125 6.890625 
Q 35.15625 6.890625 40.078125 11.328125 
Q 45.015625 15.765625 45.015625 23.390625 
Q 45.015625 31 40.078125 35.4375 
Q 35.15625 39.890625 26.703125 39.890625 
Q 22.75 39.890625 18.8125 39.015625 
Q 14.890625 38.140625 10.796875 36.28125 
z
" id="DejaVuSans-53"/>
       <path d="M 8.015625 75.875 
L 15.828125 75.875 
Q 23.140625 64.359375 26.78125 53.3125 
Q 30.421875 42.28125 30.421875 31.390625 
Q 30.421875 20.453125 26.78125 9.375 
Q 23.140625 -1.703125 15.828125 -13.1875 
L 8.015625 -13.1875 
Q 14.5 -2 17.703125 9.0625 
Q 20.90625 20.125 20.90625 31.390625 
Q 20.90625 42.671875 17.703125 53.65625 
Q 14.5 64.65625 8.015625 75.875 
z
" id="DejaVuSans-41"/>
      </defs>
      <g transform="translate(350.178958 54.690417)scale(0.2 -0.2)">
       <use xlink:href="#DejaVuSans-48"/>
       <use x="63.623047" xlink:href="#DejaVuSans-46"/>
       <use x="95.410156" xlink:href="#DejaVuSans-50"/>
       <use x="159.033203" xlink:href="#DejaVuSans-53"/>
       <use x="222.65625" xlink:href="#DejaVuSans-41"/>
      </g>
     </g>
    </g>
    <g id="ytick_6">
     <g id="line2d_14">
      <g>
       <use style="stroke:#000000;stroke-width:1.6;" x="417.213333" xlink:href="#m01b821e7dd" y="100.6825"/>
      </g>
     </g>
     <g id="text_16">
      <!-- [0.25, -->
      <g transform="translate(343.822708 97.083125)scale(0.2 -0.2)">
       <use xlink:href="#DejaVuSans-91"/>
       <use x="39.013672" xlink:href="#DejaVuSans-48"/>
       <use x="102.636719" xlink:href="#DejaVuSans-46"/>
       <use x="134.423828" xlink:href="#DejaVuSans-50"/>
       <use x="198.046875" xlink:href="#DejaVuSans-53"/>
       <use x="261.669922" xlink:href="#DejaVuSans-44"/>
      </g>
      <!-- 0.50) -->
      <g transform="translate(350.178958 119.47875)scale(0.2 -0.2)">
       <use xlink:href="#DejaVuSans-48"/>
       <use x="63.623047" xlink:href="#DejaVuSans-46"/>
       <use x="95.410156" xlink:href="#DejaVuSans-53"/>
       <use x="159.033203" xlink:href="#DejaVuSans-48"/>
       <use x="222.65625" xlink:href="#DejaVuSans-41"/>
      </g>
     </g>
    </g>
    <g id="ytick_7">
     <g id="line2d_15">
      <g>
       <use style="stroke:#000000;stroke-width:1.6;" x="417.213333" xlink:href="#m01b821e7dd" y="165.470833"/>
      </g>
     </g>
     <g id="text_17">
      <!-- [0.50, -->
      <g transform="translate(343.822708 161.871458)scale(0.2 -0.2)">
       <use xlink:href="#DejaVuSans-91"/>
       <use x="39.013672" xlink:href="#DejaVuSans-48"/>
       <use x="102.636719" xlink:href="#DejaVuSans-46"/>
       <use x="134.423828" xlink:href="#DejaVuSans-53"/>
       <use x="198.046875" xlink:href="#DejaVuSans-48"/>
       <use x="261.669922" xlink:href="#DejaVuSans-44"/>
      </g>
      <!-- 0.75) -->
      <defs>
       <path d="M 8.203125 72.90625 
L 55.078125 72.90625 
L 55.078125 68.703125 
L 28.609375 0 
L 18.3125 0 
L 43.21875 64.59375 
L 8.203125 64.59375 
z
" id="DejaVuSans-55"/>
      </defs>
      <g transform="translate(350.178958 184.267083)scale(0.2 -0.2)">
       <use xlink:href="#DejaVuSans-48"/>
       <use x="63.623047" xlink:href="#DejaVuSans-46"/>
       <use x="95.410156" xlink:href="#DejaVuSans-55"/>
       <use x="159.033203" xlink:href="#DejaVuSans-53"/>
       <use x="222.65625" xlink:href="#DejaVuSans-41"/>
      </g>
     </g>
    </g>
    <g id="ytick_8">
     <g id="line2d_16">
      <g>
       <use style="stroke:#000000;stroke-width:1.6;" x="417.213333" xlink:href="#m01b821e7dd" y="230.259167"/>
      </g>
     </g>
     <g id="text_18">
      <!-- [0.75, -->
      <g transform="translate(343.822708 226.659792)scale(0.2 -0.2)">
       <use xlink:href="#DejaVuSans-91"/>
       <use x="39.013672" xlink:href="#DejaVuSans-48"/>
       <use x="102.636719" xlink:href="#DejaVuSans-46"/>
       <use x="134.423828" xlink:href="#DejaVuSans-55"/>
       <use x="198.046875" xlink:href="#DejaVuSans-53"/>
       <use x="261.669922" xlink:href="#DejaVuSans-44"/>
      </g>
      <!-- 1.00) -->
      <defs>
       <path d="M 12.40625 8.296875 
L 28.515625 8.296875 
L 28.515625 63.921875 
L 10.984375 60.40625 
L 10.984375 69.390625 
L 28.421875 72.90625 
L 38.28125 72.90625 
L 38.28125 8.296875 
L 54.390625 8.296875 
L 54.390625 0 
L 12.40625 0 
z
" id="DejaVuSans-49"/>
      </defs>
      <g transform="translate(350.178958 249.055417)scale(0.2 -0.2)">
       <use xlink:href="#DejaVuSans-49"/>
       <use x="63.623047" xlink:href="#DejaVuSans-46"/>
       <use x="95.410156" xlink:href="#DejaVuSans-48"/>
       <use x="159.033203" xlink:href="#DejaVuSans-48"/>
       <use x="222.65625" xlink:href="#DejaVuSans-41"/>
      </g>
     </g>
    </g>
    <g id="text_19">
     <!-- Max Attention -->
     <defs>
      <path d="M 34.1875 63.1875 
L 20.796875 26.90625 
L 47.609375 26.90625 
z
M 28.609375 72.90625 
L 39.796875 72.90625 
L 67.578125 0 
L 57.328125 0 
L 50.6875 18.703125 
L 17.828125 18.703125 
L 11.1875 0 
L 0.78125 0 
z
" id="DejaVuSans-65"/>
      <path d="M 30.609375 48.390625 
Q 23.390625 48.390625 19.1875 42.75 
Q 14.984375 37.109375 14.984375 27.296875 
Q 14.984375 17.484375 19.15625 11.84375 
Q 23.34375 6.203125 30.609375 6.203125 
Q 37.796875 6.203125 41.984375 11.859375 
Q 46.1875 17.53125 46.1875 27.296875 
Q 46.1875 37.015625 41.984375 42.703125 
Q 37.796875 48.390625 30.609375 48.390625 
z
M 30.609375 56 
Q 42.328125 56 49.015625 48.375 
Q 55.71875 40.765625 55.71875 27.296875 
Q 55.71875 13.875 49.015625 6.21875 
Q 42.328125 -1.421875 30.609375 -1.421875 
Q 18.84375 -1.421875 12.171875 6.21875 
Q 5.515625 13.875 5.515625 27.296875 
Q 5.515625 40.765625 12.171875 48.375 
Q 18.84375 56 30.609375 56 
z
" id="DejaVuSans-111"/>
     </defs>
     <g transform="translate(335.663333 203.254792)rotate(-90)scale(0.2 -0.2)">
      <use xlink:href="#DejaVuSans-77"/>
      <use x="86.279297" xlink:href="#DejaVuSans-97"/>
      <use x="147.558594" xlink:href="#DejaVuSans-120"/>
      <use x="206.738281" xlink:href="#DejaVuSans-32"/>
      <use x="238.525391" xlink:href="#DejaVuSans-65"/>
      <use x="306.917969" xlink:href="#DejaVuSans-116"/>
      <use x="346.126953" xlink:href="#DejaVuSans-116"/>
      <use x="385.335938" xlink:href="#DejaVuSans-101"/>
      <use x="446.859375" xlink:href="#DejaVuSans-110"/>
      <use x="510.238281" xlink:href="#DejaVuSans-116"/>
      <use x="549.447266" xlink:href="#DejaVuSans-105"/>
      <use x="577.230469" xlink:href="#DejaVuSans-111"/>
      <use x="638.412109" xlink:href="#DejaVuSans-110"/>
     </g>
    </g>
   </g>
   <g id="line2d_17">
    <path clip-path="url(#p1c6241e678)" style="fill:none;stroke:#424242;stroke-dasharray:1.5,1.5;stroke-dashoffset:0;"/>
   </g>
   <g id="line2d_18">
    <path clip-path="url(#p1c6241e678)" style="fill:none;stroke:#424242;stroke-dasharray:3,3;stroke-dashoffset:0;"/>
   </g>
   <g id="line2d_19">
    <path clip-path="url(#p1c6241e678)" style="fill:none;stroke:#424242;stroke-dasharray:1.5,1.5;stroke-dashoffset:0;"/>
   </g>
   <g id="line2d_20">
    <path clip-path="url(#p1c6241e678)" style="fill:none;stroke:#424242;stroke-dasharray:1.5,1.5;stroke-dashoffset:0;"/>
   </g>
   <g id="line2d_21">
    <path clip-path="url(#p1c6241e678)" style="fill:none;stroke:#424242;stroke-dasharray:3,3;stroke-dashoffset:0;"/>
   </g>
   <g id="line2d_22">
    <path clip-path="url(#p1c6241e678)" style="fill:none;stroke:#424242;stroke-dasharray:1.5,1.5;stroke-dashoffset:0;"/>
   </g>
   <g id="line2d_23">
    <path clip-path="url(#p1c6241e678)" style="fill:none;stroke:#424242;stroke-dasharray:1.5,1.5;stroke-dashoffset:0;"/>
   </g>
   <g id="line2d_24">
    <path clip-path="url(#p1c6241e678)" style="fill:none;stroke:#424242;stroke-dasharray:3,3;stroke-dashoffset:0;"/>
   </g>
   <g id="line2d_25">
    <path clip-path="url(#p1c6241e678)" style="fill:none;stroke:#424242;stroke-dasharray:1.5,1.5;stroke-dashoffset:0;"/>
   </g>
   <g id="line2d_26">
    <path clip-path="url(#p1c6241e678)" style="fill:none;stroke:#424242;stroke-dasharray:1.5,1.5;stroke-dashoffset:0;"/>
   </g>
   <g id="line2d_27">
    <path clip-path="url(#p1c6241e678)" style="fill:none;stroke:#424242;stroke-dasharray:3,3;stroke-dashoffset:0;"/>
   </g>
   <g id="line2d_28">
    <path clip-path="url(#p1c6241e678)" style="fill:none;stroke:#424242;stroke-dasharray:1.5,1.5;stroke-dashoffset:0;"/>
   </g>
   <g id="line2d_29">
    <path clip-path="url(#p1c6241e678)" style="fill:none;stroke:#424242;stroke-dasharray:1.5,1.5;stroke-dashoffset:0;"/>
   </g>
   <g id="line2d_30">
    <path clip-path="url(#p1c6241e678)" style="fill:none;stroke:#424242;stroke-dasharray:3,3;stroke-dashoffset:0;"/>
   </g>
   <g id="line2d_31">
    <path clip-path="url(#p1c6241e678)" style="fill:none;stroke:#424242;stroke-dasharray:1.5,1.5;stroke-dashoffset:0;"/>
   </g>
   <g id="line2d_32">
    <path clip-path="url(#p1c6241e678)" style="fill:none;stroke:#424242;stroke-dasharray:1.5,1.5;stroke-dashoffset:0;"/>
   </g>
   <g id="line2d_33">
    <path clip-path="url(#p1c6241e678)" style="fill:none;stroke:#424242;stroke-dasharray:3,3;stroke-dashoffset:0;"/>
   </g>
   <g id="line2d_34">
    <path clip-path="url(#p1c6241e678)" style="fill:none;stroke:#424242;stroke-dasharray:1.5,1.5;stroke-dashoffset:0;"/>
   </g>
   <g id="patch_88">
    <path style="fill:none;stroke:#000000;stroke-linecap:square;stroke-linejoin:miter;stroke-width:0.8;"/>
   </g>
   <g id="patch_89">
    <path style="fill:none;stroke:#000000;stroke-linecap:square;stroke-linejoin:miter;stroke-width:0.8;"/>
   </g>
  </g>
 </g>
 <defs>
  <clipPath id="pafb9a3aa56">
   <rect height="259.153333" width="259.153333" x="46.7" y="3.5"/>
  </clipPath>
  <clipPath id="p1c6241e678">
   <rect height="259.153333" width="259.153333" x="417.213333" y="3.5"/>
  </clipPath>
 </defs>
</svg>
