<?xml version="1.0" encoding="utf-8" standalone="no"?>
<!DOCTYPE svg PUBLIC "-//W3C//DTD SVG 1.1//EN"
  "http://www.w3.org/Graphics/SVG/1.1/DTD/svg11.dtd">
<!-- Created with matplotlib (https://matplotlib.org/) -->
<svg height="319.061667pt" version="1.1" viewBox="0 0 323.226536 319.061667" width="323.226536pt" xmlns="http://www.w3.org/2000/svg" xmlns:xlink="http://www.w3.org/1999/xlink">
 <defs>
  <style type="text/css">
*{stroke-linecap:butt;stroke-linejoin:round;}
  </style>
 </defs>
 <g id="figure_1">
  <g id="patch_1">
   <path d="M 0 319.061667 
L 323.226536 319.061667 
L 323.226536 0 
L 0 0 
z
" style="fill:#ffffff;"/>
  </g>
  <g id="axes_1">
   <g id="patch_2">
    <path d="M 59.575 258.361667 
L 314.436667 258.361667 
L 314.436667 3.5 
L 59.575 3.5 
z
" style="fill:#ffffff;"/>
   </g>
   <g id="patch_3">
    <path clip-path="url(#p57cad6701b)" d="M 71.159621 258.361667 
L 76.951932 258.361667 
L 76.951932 258.361667 
L 71.159621 258.361667 
z
" style="fill:#43406b;opacity:0.6;stroke:#000000;stroke-linejoin:miter;stroke-width:0.5;"/>
   </g>
   <g id="patch_4">
    <path clip-path="url(#p57cad6701b)" d="M 76.951932 258.361667 
L 82.744242 258.361667 
L 82.744242 258.361667 
L 76.951932 258.361667 
z
" style="fill:#43406b;opacity:0.6;stroke:#000000;stroke-linejoin:miter;stroke-width:0.5;"/>
   </g>
   <g id="patch_5">
    <path clip-path="url(#p57cad6701b)" d="M 82.744242 258.361667 
L 88.536553 258.361667 
L 88.536553 258.361667 
L 82.744242 258.361667 
z
" style="fill:#43406b;opacity:0.6;stroke:#000000;stroke-linejoin:miter;stroke-width:0.5;"/>
   </g>
   <g id="patch_6">
    <path clip-path="url(#p57cad6701b)" d="M 88.536553 258.361667 
L 94.328864 258.361667 
L 94.328864 258.361667 
L 88.536553 258.361667 
z
" style="fill:#43406b;opacity:0.6;stroke:#000000;stroke-linejoin:miter;stroke-width:0.5;"/>
   </g>
   <g id="patch_7">
    <path clip-path="url(#p57cad6701b)" d="M 94.328864 258.361667 
L 100.121174 258.361667 
L 100.121174 258.361667 
L 94.328864 258.361667 
z
" style="fill:#43406b;opacity:0.6;stroke:#000000;stroke-linejoin:miter;stroke-width:0.5;"/>
   </g>
   <g id="patch_8">
    <path clip-path="url(#p57cad6701b)" d="M 100.121174 258.361667 
L 105.913485 258.361667 
L 105.913485 258.361667 
L 100.121174 258.361667 
z
" style="fill:#43406b;opacity:0.6;stroke:#000000;stroke-linejoin:miter;stroke-width:0.5;"/>
   </g>
   <g id="patch_9">
    <path clip-path="url(#p57cad6701b)" d="M 105.913485 258.361667 
L 111.705795 258.361667 
L 111.705795 258.361667 
L 105.913485 258.361667 
z
" style="fill:#43406b;opacity:0.6;stroke:#000000;stroke-linejoin:miter;stroke-width:0.5;"/>
   </g>
   <g id="patch_10">
    <path clip-path="url(#p57cad6701b)" d="M 111.705795 258.361667 
L 117.498106 258.361667 
L 117.498106 258.361667 
L 111.705795 258.361667 
z
" style="fill:#43406b;opacity:0.6;stroke:#000000;stroke-linejoin:miter;stroke-width:0.5;"/>
   </g>
   <g id="patch_11">
    <path clip-path="url(#p57cad6701b)" d="M 117.498106 258.361667 
L 123.290417 258.361667 
L 123.290417 258.361667 
L 117.498106 258.361667 
z
" style="fill:#43406b;opacity:0.6;stroke:#000000;stroke-linejoin:miter;stroke-width:0.5;"/>
   </g>
   <g id="patch_12">
    <path clip-path="url(#p57cad6701b)" d="M 123.290417 258.361667 
L 129.082727 258.361667 
L 129.082727 258.361667 
L 123.290417 258.361667 
z
" style="fill:#43406b;opacity:0.6;stroke:#000000;stroke-linejoin:miter;stroke-width:0.5;"/>
   </g>
   <g id="patch_13">
    <path clip-path="url(#p57cad6701b)" d="M 129.082727 258.361667 
L 134.875038 258.361667 
L 134.875038 258.361667 
L 129.082727 258.361667 
z
" style="fill:#43406b;opacity:0.6;stroke:#000000;stroke-linejoin:miter;stroke-width:0.5;"/>
   </g>
   <g id="patch_14">
    <path clip-path="url(#p57cad6701b)" d="M 134.875038 258.361667 
L 140.667348 258.361667 
L 140.667348 258.361667 
L 134.875038 258.361667 
z
" style="fill:#43406b;opacity:0.6;stroke:#000000;stroke-linejoin:miter;stroke-width:0.5;"/>
   </g>
   <g id="patch_15">
    <path clip-path="url(#p57cad6701b)" d="M 140.667348 258.361667 
L 146.459659 258.361667 
L 146.459659 258.361667 
L 140.667348 258.361667 
z
" style="fill:#43406b;opacity:0.6;stroke:#000000;stroke-linejoin:miter;stroke-width:0.5;"/>
   </g>
   <g id="patch_16">
    <path clip-path="url(#p57cad6701b)" d="M 146.459659 258.361667 
L 152.25197 258.361667 
L 152.25197 258.361667 
L 146.459659 258.361667 
z
" style="fill:#43406b;opacity:0.6;stroke:#000000;stroke-linejoin:miter;stroke-width:0.5;"/>
   </g>
   <g id="patch_17">
    <path clip-path="url(#p57cad6701b)" d="M 152.25197 258.361667 
L 158.04428 258.361667 
L 158.04428 258.361667 
L 152.25197 258.361667 
z
" style="fill:#43406b;opacity:0.6;stroke:#000000;stroke-linejoin:miter;stroke-width:0.5;"/>
   </g>
   <g id="patch_18">
    <path clip-path="url(#p57cad6701b)" d="M 158.04428 258.361667 
L 163.836591 258.361667 
L 163.836591 258.361667 
L 158.04428 258.361667 
z
" style="fill:#43406b;opacity:0.6;stroke:#000000;stroke-linejoin:miter;stroke-width:0.5;"/>
   </g>
   <g id="patch_19">
    <path clip-path="url(#p57cad6701b)" d="M 163.836591 258.361667 
L 169.628902 258.361667 
L 169.628902 258.361667 
L 163.836591 258.361667 
z
" style="fill:#43406b;opacity:0.6;stroke:#000000;stroke-linejoin:miter;stroke-width:0.5;"/>
   </g>
   <g id="patch_20">
    <path clip-path="url(#p57cad6701b)" d="M 169.628902 258.361667 
L 175.421212 258.361667 
L 175.421212 258.361667 
L 169.628902 258.361667 
z
" style="fill:#43406b;opacity:0.6;stroke:#000000;stroke-linejoin:miter;stroke-width:0.5;"/>
   </g>
   <g id="patch_21">
    <path clip-path="url(#p57cad6701b)" d="M 175.421212 258.361667 
L 181.213523 258.361667 
L 181.213523 258.361667 
L 175.421212 258.361667 
z
" style="fill:#43406b;opacity:0.6;stroke:#000000;stroke-linejoin:miter;stroke-width:0.5;"/>
   </g>
   <g id="patch_22">
    <path clip-path="url(#p57cad6701b)" d="M 181.213523 258.361667 
L 187.005833 258.361667 
L 187.005833 257.732844 
L 181.213523 257.732844 
z
" style="fill:#43406b;opacity:0.6;stroke:#000000;stroke-linejoin:miter;stroke-width:0.5;"/>
   </g>
   <g id="patch_23">
    <path clip-path="url(#p57cad6701b)" d="M 187.005833 258.361667 
L 192.798144 258.361667 
L 192.798144 258.361667 
L 187.005833 258.361667 
z
" style="fill:#43406b;opacity:0.6;stroke:#000000;stroke-linejoin:miter;stroke-width:0.5;"/>
   </g>
   <g id="patch_24">
    <path clip-path="url(#p57cad6701b)" d="M 192.798144 258.361667 
L 198.590455 258.361667 
L 198.590455 258.361667 
L 192.798144 258.361667 
z
" style="fill:#43406b;opacity:0.6;stroke:#000000;stroke-linejoin:miter;stroke-width:0.5;"/>
   </g>
   <g id="patch_25">
    <path clip-path="url(#p57cad6701b)" d="M 198.590455 258.361667 
L 204.382765 258.361667 
L 204.382765 258.361667 
L 198.590455 258.361667 
z
" style="fill:#43406b;opacity:0.6;stroke:#000000;stroke-linejoin:miter;stroke-width:0.5;"/>
   </g>
   <g id="patch_26">
    <path clip-path="url(#p57cad6701b)" d="M 204.382765 258.361667 
L 210.175076 258.361667 
L 210.175076 258.361667 
L 204.382765 258.361667 
z
" style="fill:#43406b;opacity:0.6;stroke:#000000;stroke-linejoin:miter;stroke-width:0.5;"/>
   </g>
   <g id="patch_27">
    <path clip-path="url(#p57cad6701b)" d="M 210.175076 258.361667 
L 215.967386 258.361667 
L 215.967386 257.104022 
L 210.175076 257.104022 
z
" style="fill:#43406b;opacity:0.6;stroke:#000000;stroke-linejoin:miter;stroke-width:0.5;"/>
   </g>
   <g id="patch_28">
    <path clip-path="url(#p57cad6701b)" d="M 215.967386 258.361667 
L 221.759697 258.361667 
L 221.759697 258.361667 
L 215.967386 258.361667 
z
" style="fill:#43406b;opacity:0.6;stroke:#000000;stroke-linejoin:miter;stroke-width:0.5;"/>
   </g>
   <g id="patch_29">
    <path clip-path="url(#p57cad6701b)" d="M 221.759697 258.361667 
L 227.552008 258.361667 
L 227.552008 253.959911 
L 221.759697 253.959911 
z
" style="fill:#43406b;opacity:0.6;stroke:#000000;stroke-linejoin:miter;stroke-width:0.5;"/>
   </g>
   <g id="patch_30">
    <path clip-path="url(#p57cad6701b)" d="M 227.552008 258.361667 
L 233.344318 258.361667 
L 233.344318 253.331088 
L 227.552008 253.331088 
z
" style="fill:#43406b;opacity:0.6;stroke:#000000;stroke-linejoin:miter;stroke-width:0.5;"/>
   </g>
   <g id="patch_31">
    <path clip-path="url(#p57cad6701b)" d="M 233.344318 258.361667 
L 239.136629 258.361667 
L 239.136629 243.269932 
L 233.344318 243.269932 
z
" style="fill:#43406b;opacity:0.6;stroke:#000000;stroke-linejoin:miter;stroke-width:0.5;"/>
   </g>
   <g id="patch_32">
    <path clip-path="url(#p57cad6701b)" d="M 239.136629 258.361667 
L 244.928939 258.361667 
L 244.928939 226.920553 
L 239.136629 226.920553 
z
" style="fill:#43406b;opacity:0.6;stroke:#000000;stroke-linejoin:miter;stroke-width:0.5;"/>
   </g>
   <g id="patch_33">
    <path clip-path="url(#p57cad6701b)" d="M 244.928939 258.361667 
L 250.72125 258.361667 
L 250.72125 192.96415 
L 244.928939 192.96415 
z
" style="fill:#43406b;opacity:0.6;stroke:#000000;stroke-linejoin:miter;stroke-width:0.5;"/>
   </g>
   <g id="patch_34">
    <path clip-path="url(#p57cad6701b)" d="M 250.72125 258.361667 
L 256.513561 258.361667 
L 256.513561 133.854857 
L 250.72125 133.854857 
z
" style="fill:#43406b;opacity:0.6;stroke:#000000;stroke-linejoin:miter;stroke-width:0.5;"/>
   </g>
   <g id="patch_35">
    <path clip-path="url(#p57cad6701b)" d="M 256.513561 258.361667 
L 262.305871 258.361667 
L 262.305871 78.518497 
L 256.513561 78.518497 
z
" style="fill:#43406b;opacity:0.6;stroke:#000000;stroke-linejoin:miter;stroke-width:0.5;"/>
   </g>
   <g id="patch_36">
    <path clip-path="url(#p57cad6701b)" d="M 262.305871 258.361667 
L 268.098182 258.361667 
L 268.098182 54.623251 
L 262.305871 54.623251 
z
" style="fill:#43406b;opacity:0.6;stroke:#000000;stroke-linejoin:miter;stroke-width:0.5;"/>
   </g>
   <g id="patch_37">
    <path clip-path="url(#p57cad6701b)" d="M 268.098182 258.361667 
L 273.890492 258.361667 
L 273.890492 15.63627 
L 268.098182 15.63627 
z
" style="fill:#43406b;opacity:0.6;stroke:#000000;stroke-linejoin:miter;stroke-width:0.5;"/>
   </g>
   <g id="patch_38">
    <path clip-path="url(#p57cad6701b)" d="M 273.890492 258.361667 
L 279.682803 258.361667 
L 279.682803 35.12976 
L 273.890492 35.12976 
z
" style="fill:#43406b;opacity:0.6;stroke:#000000;stroke-linejoin:miter;stroke-width:0.5;"/>
   </g>
   <g id="patch_39">
    <path clip-path="url(#p57cad6701b)" d="M 279.682803 258.361667 
L 285.475114 258.361667 
L 285.475114 102.413743 
L 279.682803 102.413743 
z
" style="fill:#43406b;opacity:0.6;stroke:#000000;stroke-linejoin:miter;stroke-width:0.5;"/>
   </g>
   <g id="patch_40">
    <path clip-path="url(#p57cad6701b)" d="M 285.475114 258.361667 
L 291.267424 258.361667 
L 291.267424 159.63657 
L 285.475114 159.63657 
z
" style="fill:#43406b;opacity:0.6;stroke:#000000;stroke-linejoin:miter;stroke-width:0.5;"/>
   </g>
   <g id="patch_41">
    <path clip-path="url(#p57cad6701b)" d="M 291.267424 258.361667 
L 297.059735 258.361667 
L 297.059735 195.47944 
L 291.267424 195.47944 
z
" style="fill:#43406b;opacity:0.6;stroke:#000000;stroke-linejoin:miter;stroke-width:0.5;"/>
   </g>
   <g id="patch_42">
    <path clip-path="url(#p57cad6701b)" d="M 297.059735 258.361667 
L 302.852045 258.361667 
L 302.852045 236.352887 
L 297.059735 236.352887 
z
" style="fill:#43406b;opacity:0.6;stroke:#000000;stroke-linejoin:miter;stroke-width:0.5;"/>
   </g>
   <g id="patch_43">
    <path clip-path="url(#p57cad6701b)" d="M 71.159621 258.361667 
L 76.951932 258.361667 
L 76.951932 258.361667 
L 71.159621 258.361667 
z
" style="fill:#d15a00;opacity:0.6;stroke:#000000;stroke-linejoin:miter;stroke-width:0.5;"/>
   </g>
   <g id="patch_44">
    <path clip-path="url(#p57cad6701b)" d="M 76.951932 258.361667 
L 82.744242 258.361667 
L 82.744242 258.361667 
L 76.951932 258.361667 
z
" style="fill:#d15a00;opacity:0.6;stroke:#000000;stroke-linejoin:miter;stroke-width:0.5;"/>
   </g>
   <g id="patch_45">
    <path clip-path="url(#p57cad6701b)" d="M 82.744242 258.361667 
L 88.536553 258.361667 
L 88.536553 258.361667 
L 82.744242 258.361667 
z
" style="fill:#d15a00;opacity:0.6;stroke:#000000;stroke-linejoin:miter;stroke-width:0.5;"/>
   </g>
   <g id="patch_46">
    <path clip-path="url(#p57cad6701b)" d="M 88.536553 258.361667 
L 94.328864 258.361667 
L 94.328864 258.361667 
L 88.536553 258.361667 
z
" style="fill:#d15a00;opacity:0.6;stroke:#000000;stroke-linejoin:miter;stroke-width:0.5;"/>
   </g>
   <g id="patch_47">
    <path clip-path="url(#p57cad6701b)" d="M 94.328864 258.361667 
L 100.121174 258.361667 
L 100.121174 258.361667 
L 94.328864 258.361667 
z
" style="fill:#d15a00;opacity:0.6;stroke:#000000;stroke-linejoin:miter;stroke-width:0.5;"/>
   </g>
   <g id="patch_48">
    <path clip-path="url(#p57cad6701b)" d="M 100.121174 258.361667 
L 105.913485 258.361667 
L 105.913485 258.361667 
L 100.121174 258.361667 
z
" style="fill:#d15a00;opacity:0.6;stroke:#000000;stroke-linejoin:miter;stroke-width:0.5;"/>
   </g>
   <g id="patch_49">
    <path clip-path="url(#p57cad6701b)" d="M 105.913485 258.361667 
L 111.705795 258.361667 
L 111.705795 258.361667 
L 105.913485 258.361667 
z
" style="fill:#d15a00;opacity:0.6;stroke:#000000;stroke-linejoin:miter;stroke-width:0.5;"/>
   </g>
   <g id="patch_50">
    <path clip-path="url(#p57cad6701b)" d="M 111.705795 258.361667 
L 117.498106 258.361667 
L 117.498106 258.361667 
L 111.705795 258.361667 
z
" style="fill:#d15a00;opacity:0.6;stroke:#000000;stroke-linejoin:miter;stroke-width:0.5;"/>
   </g>
   <g id="patch_51">
    <path clip-path="url(#p57cad6701b)" d="M 117.498106 258.361667 
L 123.290417 258.361667 
L 123.290417 258.361667 
L 117.498106 258.361667 
z
" style="fill:#d15a00;opacity:0.6;stroke:#000000;stroke-linejoin:miter;stroke-width:0.5;"/>
   </g>
   <g id="patch_52">
    <path clip-path="url(#p57cad6701b)" d="M 123.290417 258.361667 
L 129.082727 258.361667 
L 129.082727 258.361667 
L 123.290417 258.361667 
z
" style="fill:#d15a00;opacity:0.6;stroke:#000000;stroke-linejoin:miter;stroke-width:0.5;"/>
   </g>
   <g id="patch_53">
    <path clip-path="url(#p57cad6701b)" d="M 129.082727 258.361667 
L 134.875038 258.361667 
L 134.875038 258.361667 
L 129.082727 258.361667 
z
" style="fill:#d15a00;opacity:0.6;stroke:#000000;stroke-linejoin:miter;stroke-width:0.5;"/>
   </g>
   <g id="patch_54">
    <path clip-path="url(#p57cad6701b)" d="M 134.875038 258.361667 
L 140.667348 258.361667 
L 140.667348 258.361667 
L 134.875038 258.361667 
z
" style="fill:#d15a00;opacity:0.6;stroke:#000000;stroke-linejoin:miter;stroke-width:0.5;"/>
   </g>
   <g id="patch_55">
    <path clip-path="url(#p57cad6701b)" d="M 140.667348 258.361667 
L 146.459659 258.361667 
L 146.459659 258.361667 
L 140.667348 258.361667 
z
" style="fill:#d15a00;opacity:0.6;stroke:#000000;stroke-linejoin:miter;stroke-width:0.5;"/>
   </g>
   <g id="patch_56">
    <path clip-path="url(#p57cad6701b)" d="M 146.459659 258.361667 
L 152.25197 258.361667 
L 152.25197 258.361667 
L 146.459659 258.361667 
z
" style="fill:#d15a00;opacity:0.6;stroke:#000000;stroke-linejoin:miter;stroke-width:0.5;"/>
   </g>
   <g id="patch_57">
    <path clip-path="url(#p57cad6701b)" d="M 152.25197 258.361667 
L 158.04428 258.361667 
L 158.04428 258.361667 
L 152.25197 258.361667 
z
" style="fill:#d15a00;opacity:0.6;stroke:#000000;stroke-linejoin:miter;stroke-width:0.5;"/>
   </g>
   <g id="patch_58">
    <path clip-path="url(#p57cad6701b)" d="M 158.04428 258.361667 
L 163.836591 258.361667 
L 163.836591 258.361667 
L 158.04428 258.361667 
z
" style="fill:#d15a00;opacity:0.6;stroke:#000000;stroke-linejoin:miter;stroke-width:0.5;"/>
   </g>
   <g id="patch_59">
    <path clip-path="url(#p57cad6701b)" d="M 163.836591 258.361667 
L 169.628902 258.361667 
L 169.628902 258.361667 
L 163.836591 258.361667 
z
" style="fill:#d15a00;opacity:0.6;stroke:#000000;stroke-linejoin:miter;stroke-width:0.5;"/>
   </g>
   <g id="patch_60">
    <path clip-path="url(#p57cad6701b)" d="M 169.628902 258.361667 
L 175.421212 258.361667 
L 175.421212 258.361667 
L 169.628902 258.361667 
z
" style="fill:#d15a00;opacity:0.6;stroke:#000000;stroke-linejoin:miter;stroke-width:0.5;"/>
   </g>
   <g id="patch_61">
    <path clip-path="url(#p57cad6701b)" d="M 175.421212 258.361667 
L 181.213523 258.361667 
L 181.213523 258.361667 
L 175.421212 258.361667 
z
" style="fill:#d15a00;opacity:0.6;stroke:#000000;stroke-linejoin:miter;stroke-width:0.5;"/>
   </g>
   <g id="patch_62">
    <path clip-path="url(#p57cad6701b)" d="M 181.213523 258.361667 
L 187.005833 258.361667 
L 187.005833 258.361667 
L 181.213523 258.361667 
z
" style="fill:#d15a00;opacity:0.6;stroke:#000000;stroke-linejoin:miter;stroke-width:0.5;"/>
   </g>
   <g id="patch_63">
    <path clip-path="url(#p57cad6701b)" d="M 187.005833 258.361667 
L 192.798144 258.361667 
L 192.798144 258.361667 
L 187.005833 258.361667 
z
" style="fill:#d15a00;opacity:0.6;stroke:#000000;stroke-linejoin:miter;stroke-width:0.5;"/>
   </g>
   <g id="patch_64">
    <path clip-path="url(#p57cad6701b)" d="M 192.798144 258.361667 
L 198.590455 258.361667 
L 198.590455 258.361667 
L 192.798144 258.361667 
z
" style="fill:#d15a00;opacity:0.6;stroke:#000000;stroke-linejoin:miter;stroke-width:0.5;"/>
   </g>
   <g id="patch_65">
    <path clip-path="url(#p57cad6701b)" d="M 198.590455 258.361667 
L 204.382765 258.361667 
L 204.382765 258.361667 
L 198.590455 258.361667 
z
" style="fill:#d15a00;opacity:0.6;stroke:#000000;stroke-linejoin:miter;stroke-width:0.5;"/>
   </g>
   <g id="patch_66">
    <path clip-path="url(#p57cad6701b)" d="M 204.382765 258.361667 
L 210.175076 258.361667 
L 210.175076 258.361667 
L 204.382765 258.361667 
z
" style="fill:#d15a00;opacity:0.6;stroke:#000000;stroke-linejoin:miter;stroke-width:0.5;"/>
   </g>
   <g id="patch_67">
    <path clip-path="url(#p57cad6701b)" d="M 210.175076 258.361667 
L 215.967386 258.361667 
L 215.967386 257.667867 
L 210.175076 257.667867 
z
" style="fill:#d15a00;opacity:0.6;stroke:#000000;stroke-linejoin:miter;stroke-width:0.5;"/>
   </g>
   <g id="patch_68">
    <path clip-path="url(#p57cad6701b)" d="M 215.967386 258.361667 
L 221.759697 258.361667 
L 221.759697 255.586468 
L 215.967386 255.586468 
z
" style="fill:#d15a00;opacity:0.6;stroke:#000000;stroke-linejoin:miter;stroke-width:0.5;"/>
   </g>
   <g id="patch_69">
    <path clip-path="url(#p57cad6701b)" d="M 221.759697 258.361667 
L 227.552008 258.361667 
L 227.552008 255.586468 
L 221.759697 255.586468 
z
" style="fill:#d15a00;opacity:0.6;stroke:#000000;stroke-linejoin:miter;stroke-width:0.5;"/>
   </g>
   <g id="patch_70">
    <path clip-path="url(#p57cad6701b)" d="M 227.552008 258.361667 
L 233.344318 258.361667 
L 233.344318 247.954673 
L 227.552008 247.954673 
z
" style="fill:#d15a00;opacity:0.6;stroke:#000000;stroke-linejoin:miter;stroke-width:0.5;"/>
   </g>
   <g id="patch_71">
    <path clip-path="url(#p57cad6701b)" d="M 233.344318 258.361667 
L 239.136629 258.361667 
L 239.136629 236.160081 
L 233.344318 236.160081 
z
" style="fill:#d15a00;opacity:0.6;stroke:#000000;stroke-linejoin:miter;stroke-width:0.5;"/>
   </g>
   <g id="patch_72">
    <path clip-path="url(#p57cad6701b)" d="M 239.136629 258.361667 
L 244.928939 258.361667 
L 244.928939 215.346094 
L 239.136629 215.346094 
z
" style="fill:#d15a00;opacity:0.6;stroke:#000000;stroke-linejoin:miter;stroke-width:0.5;"/>
   </g>
   <g id="patch_73">
    <path clip-path="url(#p57cad6701b)" d="M 244.928939 258.361667 
L 250.72125 258.361667 
L 250.72125 176.493318 
L 244.928939 176.493318 
z
" style="fill:#d15a00;opacity:0.6;stroke:#000000;stroke-linejoin:miter;stroke-width:0.5;"/>
   </g>
   <g id="patch_74">
    <path clip-path="url(#p57cad6701b)" d="M 250.72125 258.361667 
L 256.513561 258.361667 
L 256.513561 157.76073 
L 250.72125 157.76073 
z
" style="fill:#d15a00;opacity:0.6;stroke:#000000;stroke-linejoin:miter;stroke-width:0.5;"/>
   </g>
   <g id="patch_75">
    <path clip-path="url(#p57cad6701b)" d="M 256.513561 258.361667 
L 262.305871 258.361667 
L 262.305871 93.237371 
L 256.513561 93.237371 
z
" style="fill:#d15a00;opacity:0.6;stroke:#000000;stroke-linejoin:miter;stroke-width:0.5;"/>
   </g>
   <g id="patch_76">
    <path clip-path="url(#p57cad6701b)" d="M 262.305871 258.361667 
L 268.098182 258.361667 
L 268.098182 31.48921 
L 262.305871 31.48921 
z
" style="fill:#d15a00;opacity:0.6;stroke:#000000;stroke-linejoin:miter;stroke-width:0.5;"/>
   </g>
   <g id="patch_77">
    <path clip-path="url(#p57cad6701b)" d="M 268.098182 258.361667 
L 273.890492 258.361667 
L 273.890492 30.101611 
L 268.098182 30.101611 
z
" style="fill:#d15a00;opacity:0.6;stroke:#000000;stroke-linejoin:miter;stroke-width:0.5;"/>
   </g>
   <g id="patch_78">
    <path clip-path="url(#p57cad6701b)" d="M 273.890492 258.361667 
L 279.682803 258.361667 
L 279.682803 40.508605 
L 273.890492 40.508605 
z
" style="fill:#d15a00;opacity:0.6;stroke:#000000;stroke-linejoin:miter;stroke-width:0.5;"/>
   </g>
   <g id="patch_79">
    <path clip-path="url(#p57cad6701b)" d="M 279.682803 258.361667 
L 285.475114 258.361667 
L 285.475114 95.31877 
L 279.682803 95.31877 
z
" style="fill:#d15a00;opacity:0.6;stroke:#000000;stroke-linejoin:miter;stroke-width:0.5;"/>
   </g>
   <g id="patch_80">
    <path clip-path="url(#p57cad6701b)" d="M 285.475114 258.361667 
L 291.267424 258.361667 
L 291.267424 161.923528 
L 285.475114 161.923528 
z
" style="fill:#d15a00;opacity:0.6;stroke:#000000;stroke-linejoin:miter;stroke-width:0.5;"/>
   </g>
   <g id="patch_81">
    <path clip-path="url(#p57cad6701b)" d="M 291.267424 258.361667 
L 297.059735 258.361667 
L 297.059735 202.857702 
L 291.267424 202.857702 
z
" style="fill:#d15a00;opacity:0.6;stroke:#000000;stroke-linejoin:miter;stroke-width:0.5;"/>
   </g>
   <g id="patch_82">
    <path clip-path="url(#p57cad6701b)" d="M 297.059735 258.361667 
L 302.852045 258.361667 
L 302.852045 238.935279 
L 297.059735 238.935279 
z
" style="fill:#d15a00;opacity:0.6;stroke:#000000;stroke-linejoin:miter;stroke-width:0.5;"/>
   </g>
   <g id="matplotlib.axis_1">
    <g id="xtick_1">
     <g id="line2d_1">
      <defs>
       <path d="M 0 0 
L 0 3.5 
" id="mbbb9acd424" style="stroke:#000000;stroke-width:1.6;"/>
      </defs>
      <g>
       <use style="stroke:#000000;stroke-width:1.6;" x="71.159621" xlink:href="#mbbb9acd424" y="258.361667"/>
      </g>
     </g>
     <g id="text_1">
      <!-- 0.0 -->
      <defs>
       <path d="M 31.78125 66.40625 
Q 24.171875 66.40625 20.328125 58.90625 
Q 16.5 51.421875 16.5 36.375 
Q 16.5 21.390625 20.328125 13.890625 
Q 24.171875 6.390625 31.78125 6.390625 
Q 39.453125 6.390625 43.28125 13.890625 
Q 47.125 21.390625 47.125 36.375 
Q 47.125 51.421875 43.28125 58.90625 
Q 39.453125 66.40625 31.78125 66.40625 
z
M 31.78125 74.21875 
Q 44.046875 74.21875 50.515625 64.515625 
Q 56.984375 54.828125 56.984375 36.375 
Q 56.984375 17.96875 50.515625 8.265625 
Q 44.046875 -1.421875 31.78125 -1.421875 
Q 19.53125 -1.421875 13.0625 8.265625 
Q 6.59375 17.96875 6.59375 36.375 
Q 6.59375 54.828125 13.0625 64.515625 
Q 19.53125 74.21875 31.78125 74.21875 
z
" id="DejaVuSans-48"/>
       <path d="M 10.6875 12.40625 
L 21 12.40625 
L 21 0 
L 10.6875 0 
z
" id="DejaVuSans-46"/>
      </defs>
      <g transform="translate(55.256496 288.258542)scale(0.2 -0.2)">
       <use xlink:href="#DejaVuSans-48"/>
       <use x="63.623047" xlink:href="#DejaVuSans-46"/>
       <use x="95.410156" xlink:href="#DejaVuSans-48"/>
      </g>
     </g>
    </g>
    <g id="xtick_2">
     <g id="line2d_2">
      <g>
       <use style="stroke:#000000;stroke-width:1.6;" x="137.357457" xlink:href="#mbbb9acd424" y="258.361667"/>
      </g>
     </g>
     <g id="text_2">
      <!-- 0.2 -->
      <defs>
       <path d="M 19.1875 8.296875 
L 53.609375 8.296875 
L 53.609375 0 
L 7.328125 0 
L 7.328125 8.296875 
Q 12.9375 14.109375 22.625 23.890625 
Q 32.328125 33.6875 34.8125 36.53125 
Q 39.546875 41.84375 41.421875 45.53125 
Q 43.3125 49.21875 43.3125 52.78125 
Q 43.3125 58.59375 39.234375 62.25 
Q 35.15625 65.921875 28.609375 65.921875 
Q 23.96875 65.921875 18.8125 64.3125 
Q 13.671875 62.703125 7.8125 59.421875 
L 7.8125 69.390625 
Q 13.765625 71.78125 18.9375 73 
Q 24.125 74.21875 28.421875 74.21875 
Q 39.75 74.21875 46.484375 68.546875 
Q 53.21875 62.890625 53.21875 53.421875 
Q 53.21875 48.921875 51.53125 44.890625 
Q 49.859375 40.875 45.40625 35.40625 
Q 44.1875 33.984375 37.640625 27.21875 
Q 31.109375 20.453125 19.1875 8.296875 
z
" id="DejaVuSans-50"/>
      </defs>
      <g transform="translate(121.454332 288.258542)scale(0.2 -0.2)">
       <use xlink:href="#DejaVuSans-48"/>
       <use x="63.623047" xlink:href="#DejaVuSans-46"/>
       <use x="95.410156" xlink:href="#DejaVuSans-50"/>
      </g>
     </g>
    </g>
    <g id="xtick_3">
     <g id="line2d_3">
      <g>
       <use style="stroke:#000000;stroke-width:1.6;" x="203.555292" xlink:href="#mbbb9acd424" y="258.361667"/>
      </g>
     </g>
     <g id="text_3">
      <!-- 0.4 -->
      <defs>
       <path d="M 37.796875 64.3125 
L 12.890625 25.390625 
L 37.796875 25.390625 
z
M 35.203125 72.90625 
L 47.609375 72.90625 
L 47.609375 25.390625 
L 58.015625 25.390625 
L 58.015625 17.1875 
L 47.609375 17.1875 
L 47.609375 0 
L 37.796875 0 
L 37.796875 17.1875 
L 4.890625 17.1875 
L 4.890625 26.703125 
z
" id="DejaVuSans-52"/>
      </defs>
      <g transform="translate(187.652167 288.258542)scale(0.2 -0.2)">
       <use xlink:href="#DejaVuSans-48"/>
       <use x="63.623047" xlink:href="#DejaVuSans-46"/>
       <use x="95.410156" xlink:href="#DejaVuSans-52"/>
      </g>
     </g>
    </g>
    <g id="xtick_4">
     <g id="line2d_4">
      <g>
       <use style="stroke:#000000;stroke-width:1.6;" x="269.753128" xlink:href="#mbbb9acd424" y="258.361667"/>
      </g>
     </g>
     <g id="text_4">
      <!-- 0.6 -->
      <defs>
       <path d="M 33.015625 40.375 
Q 26.375 40.375 22.484375 35.828125 
Q 18.609375 31.296875 18.609375 23.390625 
Q 18.609375 15.53125 22.484375 10.953125 
Q 26.375 6.390625 33.015625 6.390625 
Q 39.65625 6.390625 43.53125 10.953125 
Q 47.40625 15.53125 47.40625 23.390625 
Q 47.40625 31.296875 43.53125 35.828125 
Q 39.65625 40.375 33.015625 40.375 
z
M 52.59375 71.296875 
L 52.59375 62.3125 
Q 48.875 64.0625 45.09375 64.984375 
Q 41.3125 65.921875 37.59375 65.921875 
Q 27.828125 65.921875 22.671875 59.328125 
Q 17.53125 52.734375 16.796875 39.40625 
Q 19.671875 43.65625 24.015625 45.921875 
Q 28.375 48.1875 33.59375 48.1875 
Q 44.578125 48.1875 50.953125 41.515625 
Q 57.328125 34.859375 57.328125 23.390625 
Q 57.328125 12.15625 50.6875 5.359375 
Q 44.046875 -1.421875 33.015625 -1.421875 
Q 20.359375 -1.421875 13.671875 8.265625 
Q 6.984375 17.96875 6.984375 36.375 
Q 6.984375 53.65625 15.1875 63.9375 
Q 23.390625 74.21875 37.203125 74.21875 
Q 40.921875 74.21875 44.703125 73.484375 
Q 48.484375 72.75 52.59375 71.296875 
z
" id="DejaVuSans-54"/>
      </defs>
      <g transform="translate(253.850003 288.258542)scale(0.2 -0.2)">
       <use xlink:href="#DejaVuSans-48"/>
       <use x="63.623047" xlink:href="#DejaVuSans-46"/>
       <use x="95.410156" xlink:href="#DejaVuSans-54"/>
      </g>
     </g>
    </g>
    <g id="text_5">
     <!-- Max JS Divergence within $\epsilon$ -->
     <defs>
      <path d="M 9.8125 72.90625 
L 24.515625 72.90625 
L 43.109375 23.296875 
L 61.8125 72.90625 
L 76.515625 72.90625 
L 76.515625 0 
L 66.890625 0 
L 66.890625 64.015625 
L 48.09375 14.015625 
L 38.1875 14.015625 
L 19.390625 64.015625 
L 19.390625 0 
L 9.8125 0 
z
" id="DejaVuSans-77"/>
      <path d="M 34.28125 27.484375 
Q 23.390625 27.484375 19.1875 25 
Q 14.984375 22.515625 14.984375 16.5 
Q 14.984375 11.71875 18.140625 8.90625 
Q 21.296875 6.109375 26.703125 6.109375 
Q 34.1875 6.109375 38.703125 11.40625 
Q 43.21875 16.703125 43.21875 25.484375 
L 43.21875 27.484375 
z
M 52.203125 31.203125 
L 52.203125 0 
L 43.21875 0 
L 43.21875 8.296875 
Q 40.140625 3.328125 35.546875 0.953125 
Q 30.953125 -1.421875 24.3125 -1.421875 
Q 15.921875 -1.421875 10.953125 3.296875 
Q 6 8.015625 6 15.921875 
Q 6 25.140625 12.171875 29.828125 
Q 18.359375 34.515625 30.609375 34.515625 
L 43.21875 34.515625 
L 43.21875 35.40625 
Q 43.21875 41.609375 39.140625 45 
Q 35.0625 48.390625 27.6875 48.390625 
Q 23 48.390625 18.546875 47.265625 
Q 14.109375 46.140625 10.015625 43.890625 
L 10.015625 52.203125 
Q 14.9375 54.109375 19.578125 55.046875 
Q 24.21875 56 28.609375 56 
Q 40.484375 56 46.34375 49.84375 
Q 52.203125 43.703125 52.203125 31.203125 
z
" id="DejaVuSans-97"/>
      <path d="M 54.890625 54.6875 
L 35.109375 28.078125 
L 55.90625 0 
L 45.3125 0 
L 29.390625 21.484375 
L 13.484375 0 
L 2.875 0 
L 24.125 28.609375 
L 4.6875 54.6875 
L 15.28125 54.6875 
L 29.78125 35.203125 
L 44.28125 54.6875 
z
" id="DejaVuSans-120"/>
      <path id="DejaVuSans-32"/>
      <path d="M 9.8125 72.90625 
L 19.671875 72.90625 
L 19.671875 5.078125 
Q 19.671875 -8.109375 14.671875 -14.0625 
Q 9.671875 -20.015625 -1.421875 -20.015625 
L -5.171875 -20.015625 
L -5.171875 -11.71875 
L -2.09375 -11.71875 
Q 4.4375 -11.71875 7.125 -8.046875 
Q 9.8125 -4.390625 9.8125 5.078125 
z
" id="DejaVuSans-74"/>
      <path d="M 53.515625 70.515625 
L 53.515625 60.890625 
Q 47.90625 63.578125 42.921875 64.890625 
Q 37.9375 66.21875 33.296875 66.21875 
Q 25.25 66.21875 20.875 63.09375 
Q 16.5 59.96875 16.5 54.203125 
Q 16.5 49.359375 19.40625 46.890625 
Q 22.3125 44.4375 30.421875 42.921875 
L 36.375 41.703125 
Q 47.40625 39.59375 52.65625 34.296875 
Q 57.90625 29 57.90625 20.125 
Q 57.90625 9.515625 50.796875 4.046875 
Q 43.703125 -1.421875 29.984375 -1.421875 
Q 24.8125 -1.421875 18.96875 -0.25 
Q 13.140625 0.921875 6.890625 3.21875 
L 6.890625 13.375 
Q 12.890625 10.015625 18.65625 8.296875 
Q 24.421875 6.59375 29.984375 6.59375 
Q 38.421875 6.59375 43.015625 9.90625 
Q 47.609375 13.234375 47.609375 19.390625 
Q 47.609375 24.75 44.3125 27.78125 
Q 41.015625 30.8125 33.5 32.328125 
L 27.484375 33.5 
Q 16.453125 35.6875 11.515625 40.375 
Q 6.59375 45.0625 6.59375 53.421875 
Q 6.59375 63.09375 13.40625 68.65625 
Q 20.21875 74.21875 32.171875 74.21875 
Q 37.3125 74.21875 42.625 73.28125 
Q 47.953125 72.359375 53.515625 70.515625 
z
" id="DejaVuSans-83"/>
      <path d="M 19.671875 64.796875 
L 19.671875 8.109375 
L 31.59375 8.109375 
Q 46.6875 8.109375 53.6875 14.9375 
Q 60.6875 21.78125 60.6875 36.53125 
Q 60.6875 51.171875 53.6875 57.984375 
Q 46.6875 64.796875 31.59375 64.796875 
z
M 9.8125 72.90625 
L 30.078125 72.90625 
Q 51.265625 72.90625 61.171875 64.09375 
Q 71.09375 55.28125 71.09375 36.53125 
Q 71.09375 17.671875 61.125 8.828125 
Q 51.171875 0 30.078125 0 
L 9.8125 0 
z
" id="DejaVuSans-68"/>
      <path d="M 9.421875 54.6875 
L 18.40625 54.6875 
L 18.40625 0 
L 9.421875 0 
z
M 9.421875 75.984375 
L 18.40625 75.984375 
L 18.40625 64.59375 
L 9.421875 64.59375 
z
" id="DejaVuSans-105"/>
      <path d="M 2.984375 54.6875 
L 12.5 54.6875 
L 29.59375 8.796875 
L 46.6875 54.6875 
L 56.203125 54.6875 
L 35.6875 0 
L 23.484375 0 
z
" id="DejaVuSans-118"/>
      <path d="M 56.203125 29.59375 
L 56.203125 25.203125 
L 14.890625 25.203125 
Q 15.484375 15.921875 20.484375 11.0625 
Q 25.484375 6.203125 34.421875 6.203125 
Q 39.59375 6.203125 44.453125 7.46875 
Q 49.3125 8.734375 54.109375 11.28125 
L 54.109375 2.78125 
Q 49.265625 0.734375 44.1875 -0.34375 
Q 39.109375 -1.421875 33.890625 -1.421875 
Q 20.796875 -1.421875 13.15625 6.1875 
Q 5.515625 13.8125 5.515625 26.8125 
Q 5.515625 40.234375 12.765625 48.109375 
Q 20.015625 56 32.328125 56 
Q 43.359375 56 49.78125 48.890625 
Q 56.203125 41.796875 56.203125 29.59375 
z
M 47.21875 32.234375 
Q 47.125 39.59375 43.09375 43.984375 
Q 39.0625 48.390625 32.421875 48.390625 
Q 24.90625 48.390625 20.390625 44.140625 
Q 15.875 39.890625 15.1875 32.171875 
z
" id="DejaVuSans-101"/>
      <path d="M 41.109375 46.296875 
Q 39.59375 47.171875 37.8125 47.578125 
Q 36.03125 48 33.890625 48 
Q 26.265625 48 22.1875 43.046875 
Q 18.109375 38.09375 18.109375 28.8125 
L 18.109375 0 
L 9.078125 0 
L 9.078125 54.6875 
L 18.109375 54.6875 
L 18.109375 46.1875 
Q 20.953125 51.171875 25.484375 53.578125 
Q 30.03125 56 36.53125 56 
Q 37.453125 56 38.578125 55.875 
Q 39.703125 55.765625 41.0625 55.515625 
z
" id="DejaVuSans-114"/>
      <path d="M 45.40625 27.984375 
Q 45.40625 37.75 41.375 43.109375 
Q 37.359375 48.484375 30.078125 48.484375 
Q 22.859375 48.484375 18.828125 43.109375 
Q 14.796875 37.75 14.796875 27.984375 
Q 14.796875 18.265625 18.828125 12.890625 
Q 22.859375 7.515625 30.078125 7.515625 
Q 37.359375 7.515625 41.375 12.890625 
Q 45.40625 18.265625 45.40625 27.984375 
z
M 54.390625 6.78125 
Q 54.390625 -7.171875 48.1875 -13.984375 
Q 42 -20.796875 29.203125 -20.796875 
Q 24.46875 -20.796875 20.265625 -20.09375 
Q 16.0625 -19.390625 12.109375 -17.921875 
L 12.109375 -9.1875 
Q 16.0625 -11.328125 19.921875 -12.34375 
Q 23.78125 -13.375 27.78125 -13.375 
Q 36.625 -13.375 41.015625 -8.765625 
Q 45.40625 -4.15625 45.40625 5.171875 
L 45.40625 9.625 
Q 42.625 4.78125 38.28125 2.390625 
Q 33.9375 0 27.875 0 
Q 17.828125 0 11.671875 7.65625 
Q 5.515625 15.328125 5.515625 27.984375 
Q 5.515625 40.671875 11.671875 48.328125 
Q 17.828125 56 27.875 56 
Q 33.9375 56 38.28125 53.609375 
Q 42.625 51.21875 45.40625 46.390625 
L 45.40625 54.6875 
L 54.390625 54.6875 
z
" id="DejaVuSans-103"/>
      <path d="M 54.890625 33.015625 
L 54.890625 0 
L 45.90625 0 
L 45.90625 32.71875 
Q 45.90625 40.484375 42.875 44.328125 
Q 39.84375 48.1875 33.796875 48.1875 
Q 26.515625 48.1875 22.3125 43.546875 
Q 18.109375 38.921875 18.109375 30.90625 
L 18.109375 0 
L 9.078125 0 
L 9.078125 54.6875 
L 18.109375 54.6875 
L 18.109375 46.1875 
Q 21.34375 51.125 25.703125 53.5625 
Q 30.078125 56 35.796875 56 
Q 45.21875 56 50.046875 50.171875 
Q 54.890625 44.34375 54.890625 33.015625 
z
" id="DejaVuSans-110"/>
      <path d="M 48.78125 52.59375 
L 48.78125 44.1875 
Q 44.96875 46.296875 41.140625 47.34375 
Q 37.3125 48.390625 33.40625 48.390625 
Q 24.65625 48.390625 19.8125 42.84375 
Q 14.984375 37.3125 14.984375 27.296875 
Q 14.984375 17.28125 19.8125 11.734375 
Q 24.65625 6.203125 33.40625 6.203125 
Q 37.3125 6.203125 41.140625 7.25 
Q 44.96875 8.296875 48.78125 10.40625 
L 48.78125 2.09375 
Q 45.015625 0.34375 40.984375 -0.53125 
Q 36.96875 -1.421875 32.421875 -1.421875 
Q 20.0625 -1.421875 12.78125 6.34375 
Q 5.515625 14.109375 5.515625 27.296875 
Q 5.515625 40.671875 12.859375 48.328125 
Q 20.21875 56 33.015625 56 
Q 37.15625 56 41.109375 55.140625 
Q 45.0625 54.296875 48.78125 52.59375 
z
" id="DejaVuSans-99"/>
      <path d="M 4.203125 54.6875 
L 13.1875 54.6875 
L 24.421875 12.015625 
L 35.59375 54.6875 
L 46.1875 54.6875 
L 57.421875 12.015625 
L 68.609375 54.6875 
L 77.59375 54.6875 
L 63.28125 0 
L 52.6875 0 
L 40.921875 44.828125 
L 29.109375 0 
L 18.5 0 
z
" id="DejaVuSans-119"/>
      <path d="M 18.3125 70.21875 
L 18.3125 54.6875 
L 36.8125 54.6875 
L 36.8125 47.703125 
L 18.3125 47.703125 
L 18.3125 18.015625 
Q 18.3125 11.328125 20.140625 9.421875 
Q 21.96875 7.515625 27.59375 7.515625 
L 36.8125 7.515625 
L 36.8125 0 
L 27.59375 0 
Q 17.1875 0 13.234375 3.875 
Q 9.28125 7.765625 9.28125 18.015625 
L 9.28125 47.703125 
L 2.6875 47.703125 
L 2.6875 54.6875 
L 9.28125 54.6875 
L 9.28125 70.21875 
z
" id="DejaVuSans-116"/>
      <path d="M 54.890625 33.015625 
L 54.890625 0 
L 45.90625 0 
L 45.90625 32.71875 
Q 45.90625 40.484375 42.875 44.328125 
Q 39.84375 48.1875 33.796875 48.1875 
Q 26.515625 48.1875 22.3125 43.546875 
Q 18.109375 38.921875 18.109375 30.90625 
L 18.109375 0 
L 9.078125 0 
L 9.078125 75.984375 
L 18.109375 75.984375 
L 18.109375 46.1875 
Q 21.34375 51.125 25.703125 53.5625 
Q 30.078125 56 35.796875 56 
Q 45.21875 56 50.046875 50.171875 
Q 54.890625 44.34375 54.890625 33.015625 
z
" id="DejaVuSans-104"/>
      <path d="M 19.734375 29.5 
Q 14.453125 30.671875 12.15625 33.84375 
Q 10.453125 36.078125 10.453125 39.109375 
Q 10.453125 47.40625 18.359375 52.25 
Q 24.609375 56.0625 34.1875 56.0625 
Q 37.890625 56.0625 41.9375 55.46875 
Q 46 54.890625 50.53125 53.71875 
L 48.96875 45.5625 
Q 44.484375 46.96875 40.71875 47.609375 
Q 36.859375 48.25 33.40625 48.25 
Q 27.59375 48.25 23.78125 46 
Q 19.1875 43.3125 19.1875 39.40625 
Q 19.1875 36.8125 21.578125 35.015625 
Q 24.421875 32.859375 30.078125 32.859375 
L 37.640625 32.859375 
L 36.234375 25.4375 
L 29 25.4375 
Q 22.265625 25.4375 18.3125 22.953125 
Q 12.9375 19.578125 12.9375 14.3125 
Q 12.9375 10.984375 15.828125 8.796875 
Q 19.4375 6.0625 26.8125 6.0625 
Q 31.34375 6.0625 35.6875 6.9375 
Q 40.046875 7.859375 43.84375 9.671875 
L 42.1875 1.3125 
Q 37.546875 -0.046875 33.296875 -0.734375 
Q 29.046875 -1.421875 25.140625 -1.421875 
Q 13.53125 -1.421875 8.0625 3.03125 
Q 3.90625 6.453125 3.90625 12.203125 
Q 3.90625 19.96875 9.375 24.75 
Q 13.421875 28.328125 19.734375 29.5 
z
" id="DejaVuSans-Oblique-949"/>
     </defs>
     <g transform="translate(51.405833 311.617917)scale(0.2 -0.2)">
      <use transform="translate(0 0.015625)" xlink:href="#DejaVuSans-77"/>
      <use transform="translate(86.279297 0.015625)" xlink:href="#DejaVuSans-97"/>
      <use transform="translate(147.558594 0.015625)" xlink:href="#DejaVuSans-120"/>
      <use transform="translate(206.738281 0.015625)" xlink:href="#DejaVuSans-32"/>
      <use transform="translate(238.525391 0.015625)" xlink:href="#DejaVuSans-74"/>
      <use transform="translate(268.017578 0.015625)" xlink:href="#DejaVuSans-83"/>
      <use transform="translate(331.494141 0.015625)" xlink:href="#DejaVuSans-32"/>
      <use transform="translate(363.28125 0.015625)" xlink:href="#DejaVuSans-68"/>
      <use transform="translate(440.283203 0.015625)" xlink:href="#DejaVuSans-105"/>
      <use transform="translate(468.066406 0.015625)" xlink:href="#DejaVuSans-118"/>
      <use transform="translate(527.246094 0.015625)" xlink:href="#DejaVuSans-101"/>
      <use transform="translate(588.769531 0.015625)" xlink:href="#DejaVuSans-114"/>
      <use transform="translate(629.882812 0.015625)" xlink:href="#DejaVuSans-103"/>
      <use transform="translate(693.359375 0.015625)" xlink:href="#DejaVuSans-101"/>
      <use transform="translate(754.882812 0.015625)" xlink:href="#DejaVuSans-110"/>
      <use transform="translate(818.261719 0.015625)" xlink:href="#DejaVuSans-99"/>
      <use transform="translate(873.242188 0.015625)" xlink:href="#DejaVuSans-101"/>
      <use transform="translate(934.765625 0.015625)" xlink:href="#DejaVuSans-32"/>
      <use transform="translate(966.552734 0.015625)" xlink:href="#DejaVuSans-119"/>
      <use transform="translate(1048.339844 0.015625)" xlink:href="#DejaVuSans-105"/>
      <use transform="translate(1076.123047 0.015625)" xlink:href="#DejaVuSans-116"/>
      <use transform="translate(1115.332031 0.015625)" xlink:href="#DejaVuSans-104"/>
      <use transform="translate(1178.710938 0.015625)" xlink:href="#DejaVuSans-105"/>
      <use transform="translate(1206.494141 0.015625)" xlink:href="#DejaVuSans-110"/>
      <use transform="translate(1269.873047 0.015625)" xlink:href="#DejaVuSans-32"/>
      <use transform="translate(1301.660156 0.015625)" xlink:href="#DejaVuSans-Oblique-949"/>
     </g>
    </g>
   </g>
   <g id="matplotlib.axis_2">
    <g id="ytick_1">
     <g id="line2d_5">
      <defs>
       <path d="M 0 0 
L -3.5 0 
" id="m3513eaaa6f" style="stroke:#000000;stroke-width:1.6;"/>
      </defs>
      <g>
       <use style="stroke:#000000;stroke-width:1.6;" x="59.575" xlink:href="#m3513eaaa6f" y="258.361667"/>
      </g>
     </g>
     <g id="text_6">
      <!-- 0.00 -->
      <g transform="translate(0.34375 265.960104)scale(0.2 -0.2)">
       <use xlink:href="#DejaVuSans-48"/>
       <use x="63.623047" xlink:href="#DejaVuSans-46"/>
       <use x="95.410156" xlink:href="#DejaVuSans-48"/>
       <use x="159.033203" xlink:href="#DejaVuSans-48"/>
      </g>
     </g>
    </g>
    <g id="ytick_2">
     <g id="line2d_6">
      <g>
       <use style="stroke:#000000;stroke-width:1.6;" x="59.575" xlink:href="#m3513eaaa6f" y="186.518722"/>
      </g>
     </g>
     <g id="text_7">
      <!-- 0.05 -->
      <defs>
       <path d="M 10.796875 72.90625 
L 49.515625 72.90625 
L 49.515625 64.59375 
L 19.828125 64.59375 
L 19.828125 46.734375 
Q 21.96875 47.46875 24.109375 47.828125 
Q 26.265625 48.1875 28.421875 48.1875 
Q 40.625 48.1875 47.75 41.5 
Q 54.890625 34.8125 54.890625 23.390625 
Q 54.890625 11.625 47.5625 5.09375 
Q 40.234375 -1.421875 26.90625 -1.421875 
Q 22.3125 -1.421875 17.546875 -0.640625 
Q 12.796875 0.140625 7.71875 1.703125 
L 7.71875 11.625 
Q 12.109375 9.234375 16.796875 8.0625 
Q 21.484375 6.890625 26.703125 6.890625 
Q 35.15625 6.890625 40.078125 11.328125 
Q 45.015625 15.765625 45.015625 23.390625 
Q 45.015625 31 40.078125 35.4375 
Q 35.15625 39.890625 26.703125 39.890625 
Q 22.75 39.890625 18.8125 39.015625 
Q 14.890625 38.140625 10.796875 36.28125 
z
" id="DejaVuSans-53"/>
      </defs>
      <g transform="translate(0.34375 194.11716)scale(0.2 -0.2)">
       <use xlink:href="#DejaVuSans-48"/>
       <use x="63.623047" xlink:href="#DejaVuSans-46"/>
       <use x="95.410156" xlink:href="#DejaVuSans-48"/>
       <use x="159.033203" xlink:href="#DejaVuSans-53"/>
      </g>
     </g>
    </g>
    <g id="ytick_3">
     <g id="line2d_7">
      <g>
       <use style="stroke:#000000;stroke-width:1.6;" x="59.575" xlink:href="#m3513eaaa6f" y="114.675778"/>
      </g>
     </g>
     <g id="text_8">
      <!-- 0.10 -->
      <defs>
       <path d="M 12.40625 8.296875 
L 28.515625 8.296875 
L 28.515625 63.921875 
L 10.984375 60.40625 
L 10.984375 69.390625 
L 28.421875 72.90625 
L 38.28125 72.90625 
L 38.28125 8.296875 
L 54.390625 8.296875 
L 54.390625 0 
L 12.40625 0 
z
" id="DejaVuSans-49"/>
      </defs>
      <g transform="translate(0.34375 122.274215)scale(0.2 -0.2)">
       <use xlink:href="#DejaVuSans-48"/>
       <use x="63.623047" xlink:href="#DejaVuSans-46"/>
       <use x="95.410156" xlink:href="#DejaVuSans-49"/>
       <use x="159.033203" xlink:href="#DejaVuSans-48"/>
      </g>
     </g>
    </g>
    <g id="ytick_4">
     <g id="line2d_8">
      <g>
       <use style="stroke:#000000;stroke-width:1.6;" x="59.575" xlink:href="#m3513eaaa6f" y="42.832833"/>
      </g>
     </g>
     <g id="text_9">
      <!-- 0.15 -->
      <g transform="translate(0.34375 50.431271)scale(0.2 -0.2)">
       <use xlink:href="#DejaVuSans-48"/>
       <use x="63.623047" xlink:href="#DejaVuSans-46"/>
       <use x="95.410156" xlink:href="#DejaVuSans-49"/>
       <use x="159.033203" xlink:href="#DejaVuSans-53"/>
      </g>
     </g>
    </g>
   </g>
   <g id="patch_83">
    <path d="M 59.575 258.361667 
L 59.575 3.5 
" style="fill:none;stroke:#000000;stroke-linecap:square;stroke-linejoin:miter;stroke-width:0.8;"/>
   </g>
   <g id="patch_84">
    <path d="M 59.575 258.361667 
L 314.436667 258.361667 
" style="fill:none;stroke:#000000;stroke-linecap:square;stroke-linejoin:miter;stroke-width:0.8;"/>
   </g>
  </g>
  <g id="axes_2">
   <g id="patch_85">
    <path d="M 425.796667 258.361667 
L 680.658333 258.361667 
L 680.658333 3.5 
L 425.796667 3.5 
z
" style="fill:#ffffff;"/>
   </g>
   <g id="PolyCollection_1">
    <defs>
     <path d="M 588.270576 -296.419946 
L 588.270576 -296.474137 
L 589.176022 -296.473229 
L 590.081468 -296.470395 
L 590.986914 -296.466651 
L 591.89236 -296.463406 
L 592.797806 -296.462197 
L 593.703252 -296.464521 
L 594.608698 -296.471753 
L 595.514144 -296.485034 
L 596.41959 -296.505029 
L 597.325035 -296.531531 
L 598.230481 -296.563082 
L 599.135927 -296.596887 
L 600.041373 -296.629283 
L 600.946819 -296.656772 
L 601.852265 -296.677288 
L 602.757711 -296.691148 
L 603.663157 -296.701197 
L 604.568603 -296.712043 
L 605.474049 -296.72875 
L 606.379495 -296.755563 
L 607.284941 -296.795174 
L 608.190387 -296.848618 
L 609.095833 -296.915633 
L 610.001279 -296.995158 
L 610.906725 -297.085815 
L 611.812171 -297.186342 
L 612.717617 -297.296044 
L 613.623063 -297.415214 
L 614.528509 -297.545398 
L 615.433955 -297.689368 
L 616.339401 -297.850696 
L 617.244847 -298.032896 
L 618.150293 -298.238239 
L 619.055739 -298.46659 
L 619.961185 -298.715019 
L 620.866631 -298.978873 
L 621.772077 -299.254341 
L 622.677523 -299.54131 
L 623.582969 -299.844614 
L 624.488415 -300.172395 
L 625.393861 -300.532179 
L 626.299307 -300.926962 
L 627.204753 -301.353769 
L 628.110199 -301.805395 
L 629.015645 -302.273851 
L 629.921091 -302.753014 
L 630.826537 -303.238966 
L 631.731983 -303.728413 
L 632.637429 -304.216785 
L 633.542875 -304.697347 
L 634.448321 -305.161546 
L 635.353767 -305.60014 
L 636.259213 -306.004722 
L 637.164659 -306.369609 
L 638.070105 -306.693909 
L 638.975551 -306.982973 
L 639.880997 -307.248119 
L 640.786443 -307.503896 
L 641.691889 -307.763303 
L 642.597335 -308.03257 
L 643.502781 -308.307714 
L 644.408226 -308.574692 
L 645.313672 -308.813399 
L 646.219118 -309.003814 
L 647.124564 -309.131488 
L 648.03001 -309.190125 
L 648.935456 -309.180945 
L 649.840902 -309.110196 
L 650.746348 -308.986337 
L 651.651794 -308.817396 
L 652.55724 -308.608298 
L 653.462686 -308.358482 
L 654.368132 -308.061167 
L 655.273578 -307.705677 
L 656.179024 -307.282601 
L 657.08447 -306.789601 
L 657.989916 -306.234909 
L 658.895362 -305.636882 
L 659.800808 -305.020179 
L 660.706254 -304.410649 
L 661.6117 -303.830941 
L 662.517146 -303.297614 
L 663.422592 -302.819513 
L 664.328038 -302.397064 
L 665.233484 -302.022817 
L 666.13893 -301.683958 
L 667.044376 -301.366764 
L 667.949822 -301.061535 
L 668.855268 -300.765463 
L 669.760714 -300.481497 
L 670.66616 -300.213427 
L 671.571606 -299.959819 
L 672.477052 -299.710576 
L 673.382498 -299.448639 
L 674.287944 -299.156531 
L 675.19339 -298.824611 
L 676.098836 -298.456796 
L 677.004282 -298.070866 
L 677.909728 -297.693276 
L 677.909728 -295.200807 
L 677.909728 -295.200807 
L 677.004282 -294.823218 
L 676.098836 -294.437287 
L 675.19339 -294.069472 
L 674.287944 -293.737552 
L 673.382498 -293.445445 
L 672.477052 -293.183507 
L 671.571606 -292.934265 
L 670.66616 -292.680657 
L 669.760714 -292.412586 
L 668.855268 -292.128621 
L 667.949822 -291.832548 
L 667.044376 -291.52732 
L 666.13893 -291.210126 
L 665.233484 -290.871266 
L 664.328038 -290.497019 
L 663.422592 -290.07457 
L 662.517146 -289.59647 
L 661.6117 -289.063143 
L 660.706254 -288.483434 
L 659.800808 -287.873905 
L 658.895362 -287.257201 
L 657.989916 -286.659174 
L 657.08447 -286.104482 
L 656.179024 -285.611482 
L 655.273578 -285.188406 
L 654.368132 -284.832916 
L 653.462686 -284.535602 
L 652.55724 -284.285785 
L 651.651794 -284.076687 
L 650.746348 -283.907746 
L 649.840902 -283.783887 
L 648.935456 -283.713139 
L 648.03001 -283.703958 
L 647.124564 -283.762595 
L 646.219118 -283.89027 
L 645.313672 -284.080685 
L 644.408226 -284.319391 
L 643.502781 -284.586369 
L 642.597335 -284.861513 
L 641.691889 -285.13078 
L 640.786443 -285.390188 
L 639.880997 -285.645964 
L 638.975551 -285.91111 
L 638.070105 -286.200175 
L 637.164659 -286.524474 
L 636.259213 -286.889362 
L 635.353767 -287.293943 
L 634.448321 -287.732537 
L 633.542875 -288.196737 
L 632.637429 -288.677298 
L 631.731983 -289.16567 
L 630.826537 -289.655117 
L 629.921091 -290.141069 
L 629.015645 -290.620233 
L 628.110199 -291.088689 
L 627.204753 -291.540315 
L 626.299307 -291.967121 
L 625.393861 -292.361904 
L 624.488415 -292.721688 
L 623.582969 -293.049469 
L 622.677523 -293.352773 
L 621.772077 -293.639742 
L 620.866631 -293.91521 
L 619.961185 -294.179064 
L 619.055739 -294.427493 
L 618.150293 -294.655845 
L 617.244847 -294.861187 
L 616.339401 -295.043387 
L 615.433955 -295.204715 
L 614.528509 -295.348686 
L 613.623063 -295.47887 
L 612.717617 -295.598039 
L 611.812171 -295.707742 
L 610.906725 -295.808269 
L 610.001279 -295.898925 
L 609.095833 -295.97845 
L 608.190387 -296.045465 
L 607.284941 -296.09891 
L 606.379495 -296.13852 
L 605.474049 -296.165334 
L 604.568603 -296.18204 
L 603.663157 -296.192887 
L 602.757711 -296.202935 
L 601.852265 -296.216796 
L 600.946819 -296.237312 
L 600.041373 -296.264801 
L 599.135927 -296.297197 
L 598.230481 -296.331001 
L 597.325035 -296.362552 
L 596.41959 -296.389055 
L 595.514144 -296.40905 
L 594.608698 -296.42233 
L 593.703252 -296.429562 
L 592.797806 -296.431887 
L 591.89236 -296.430678 
L 590.986914 -296.427432 
L 590.081468 -296.423689 
L 589.176022 -296.420855 
L 588.270576 -296.419946 
z
" id="mf89b9877b0" style="stroke:#333333;"/>
    </defs>
    <g clip-path="url(#p0be89b137b)">
     <use style="fill:#484566;stroke:#333333;" x="0" xlink:href="#mf89b9877b0" y="319.061667"/>
    </g>
   </g>
   <g id="PolyCollection_2">
    <defs>
     <path d="M 594.029382 -270.863117 
L 594.029382 -271.058633 
L 594.879294 -271.073453 
L 595.729206 -271.085452 
L 596.579117 -271.094727 
L 597.429029 -271.102394 
L 598.278941 -271.110378 
L 599.128853 -271.121044 
L 599.978764 -271.136849 
L 600.828676 -271.160153 
L 601.678588 -271.193165 
L 602.5285 -271.237847 
L 603.378411 -271.295618 
L 604.228323 -271.366829 
L 605.078235 -271.450225 
L 605.928146 -271.542744 
L 606.778058 -271.63994 
L 607.62797 -271.737046 
L 608.477882 -271.830364 
L 609.327793 -271.918482 
L 610.177705 -272.00287 
L 611.027617 -272.087626 
L 611.877529 -272.178466 
L 612.72744 -272.281247 
L 613.577352 -272.400415 
L 614.427264 -272.537814 
L 615.277176 -272.692325 
L 616.127087 -272.86064 
L 616.976999 -273.039133 
L 617.826911 -273.226172 
L 618.676823 -273.423712 
L 619.526734 -273.637101 
L 620.376646 -273.872726 
L 621.226558 -274.134311 
L 622.07647 -274.419598 
L 622.926381 -274.719185 
L 623.776293 -275.018409 
L 624.626205 -275.301726 
L 625.476117 -275.557902 
L 626.326028 -275.783964 
L 627.17594 -275.986463 
L 628.025852 -276.179764 
L 628.875764 -276.382162 
L 629.725675 -276.611319 
L 630.575587 -276.880529 
L 631.425499 -277.196844 
L 632.275411 -277.561274 
L 633.125322 -277.970515 
L 633.975234 -278.419143 
L 634.825146 -278.901221 
L 635.675058 -279.410677 
L 636.524969 -279.940462 
L 637.374881 -280.481036 
L 638.224793 -281.01898 
L 639.074705 -281.536556 
L 639.924616 -282.012822 
L 640.774528 -282.426593 
L 641.62444 -282.760908 
L 642.474352 -283.007892 
L 643.324263 -283.172161 
L 644.174175 -283.270918 
L 645.024087 -283.329808 
L 645.873999 -283.37538 
L 646.72391 -283.426677 
L 647.573822 -283.489091 
L 648.423734 -283.552708 
L 649.273646 -283.595471 
L 650.123557 -283.589652 
L 650.973469 -283.509282 
L 651.823381 -283.336507 
L 652.673293 -283.065662 
L 653.523204 -282.704597 
L 654.373116 -282.273108 
L 655.223028 -281.798628 
L 656.07294 -281.309919 
L 656.922851 -280.830316 
L 657.772763 -280.372632 
L 658.622675 -279.937585 
L 659.472587 -279.516418 
L 660.322498 -279.096664 
L 661.17241 -278.668636 
L 662.022322 -278.229904 
L 662.872234 -277.786011 
L 663.722145 -277.347537 
L 664.572057 -276.925367 
L 665.421969 -276.526652 
L 666.271881 -276.153232 
L 667.121792 -275.802722 
L 667.971704 -275.47101 
L 668.821616 -275.154465 
L 669.671528 -274.85072 
L 670.521439 -274.557971 
L 671.371351 -274.273636 
L 672.221263 -273.993455 
L 673.071175 -273.711752 
L 673.921086 -273.422958 
L 674.770998 -273.123833 
L 675.62091 -272.815469 
L 676.470821 -272.504165 
L 677.320733 -272.200664 
L 678.170645 -271.917871 
L 678.170645 -270.003879 
L 678.170645 -270.003879 
L 677.320733 -269.721086 
L 676.470821 -269.417585 
L 675.62091 -269.106281 
L 674.770998 -268.797917 
L 673.921086 -268.498792 
L 673.071175 -268.209998 
L 672.221263 -267.928295 
L 671.371351 -267.648114 
L 670.521439 -267.363779 
L 669.671528 -267.07103 
L 668.821616 -266.767285 
L 667.971704 -266.45074 
L 667.121792 -266.119028 
L 666.271881 -265.768518 
L 665.421969 -265.395098 
L 664.572057 -264.996383 
L 663.722145 -264.574213 
L 662.872234 -264.135739 
L 662.022322 -263.691846 
L 661.17241 -263.253114 
L 660.322498 -262.825086 
L 659.472587 -262.405332 
L 658.622675 -261.984165 
L 657.772763 -261.549118 
L 656.922851 -261.091434 
L 656.07294 -260.611831 
L 655.223028 -260.123122 
L 654.373116 -259.648642 
L 653.523204 -259.217153 
L 652.673293 -258.856088 
L 651.823381 -258.585243 
L 650.973469 -258.412468 
L 650.123557 -258.332098 
L 649.273646 -258.326279 
L 648.423734 -258.369042 
L 647.573822 -258.432659 
L 646.72391 -258.495073 
L 645.873999 -258.54637 
L 645.024087 -258.591942 
L 644.174175 -258.650832 
L 643.324263 -258.749589 
L 642.474352 -258.913858 
L 641.62444 -259.160842 
L 640.774528 -259.495157 
L 639.924616 -259.908928 
L 639.074705 -260.385194 
L 638.224793 -260.90277 
L 637.374881 -261.440714 
L 636.524969 -261.981288 
L 635.675058 -262.511073 
L 634.825146 -263.020529 
L 633.975234 -263.502607 
L 633.125322 -263.951235 
L 632.275411 -264.360476 
L 631.425499 -264.724906 
L 630.575587 -265.041221 
L 629.725675 -265.310431 
L 628.875764 -265.539588 
L 628.025852 -265.741986 
L 627.17594 -265.935287 
L 626.326028 -266.137786 
L 625.476117 -266.363848 
L 624.626205 -266.620024 
L 623.776293 -266.903341 
L 622.926381 -267.202565 
L 622.07647 -267.502152 
L 621.226558 -267.787439 
L 620.376646 -268.049024 
L 619.526734 -268.284649 
L 618.676823 -268.498038 
L 617.826911 -268.695578 
L 616.976999 -268.882617 
L 616.127087 -269.06111 
L 615.277176 -269.229425 
L 614.427264 -269.383936 
L 613.577352 -269.521335 
L 612.72744 -269.640503 
L 611.877529 -269.743284 
L 611.027617 -269.834124 
L 610.177705 -269.91888 
L 609.327793 -270.003268 
L 608.477882 -270.091386 
L 607.62797 -270.184704 
L 606.778058 -270.28181 
L 605.928146 -270.379006 
L 605.078235 -270.471525 
L 604.228323 -270.554921 
L 603.378411 -270.626132 
L 602.5285 -270.683903 
L 601.678588 -270.728585 
L 600.828676 -270.761597 
L 599.978764 -270.784901 
L 599.128853 -270.800706 
L 598.278941 -270.811372 
L 597.429029 -270.819356 
L 596.579117 -270.827023 
L 595.729206 -270.836298 
L 594.879294 -270.848297 
L 594.029382 -270.863117 
z
" id="mfbc661b10a" style="stroke:#333333;"/>
    </defs>
    <g clip-path="url(#p0be89b137b)">
     <use style="fill:#b75e1a;stroke:#333333;" x="0" xlink:href="#mfbc661b10a" y="319.061667"/>
    </g>
   </g>
   <g id="PolyCollection_3">
    <defs>
     <path d="M 560.225284 -231.690942 
L 560.225284 -233.772308 
L 561.315375 -233.782881 
L 562.405466 -233.788181 
L 563.495557 -233.788786 
L 564.585648 -233.785464 
L 565.675738 -233.77915 
L 566.765829 -233.770913 
L 567.85592 -233.76193 
L 568.946011 -233.753441 
L 570.036102 -233.746715 
L 571.126192 -233.743007 
L 572.216283 -233.743525 
L 573.306374 -233.7494 
L 574.396465 -233.761654 
L 575.486556 -233.781191 
L 576.576647 -233.808781 
L 577.666737 -233.845062 
L 578.756828 -233.890546 
L 579.846919 -233.945638 
L 580.93701 -234.010652 
L 582.027101 -234.085843 
L 583.117191 -234.171432 
L 584.207282 -234.267642 
L 585.297373 -234.374721 
L 586.387464 -234.492972 
L 587.477555 -234.622773 
L 588.567646 -234.764585 
L 589.657736 -234.918962 
L 590.747827 -235.086544 
L 591.837918 -235.268042 
L 592.928009 -235.464216 
L 594.0181 -235.67584 
L 595.108191 -235.903671 
L 596.198281 -236.148396 
L 597.288372 -236.410592 
L 598.378463 -236.690677 
L 599.468554 -236.988862 
L 600.558645 -237.30511 
L 601.648735 -237.639098 
L 602.738826 -237.990191 
L 603.828917 -238.357413 
L 604.919008 -238.739442 
L 606.009099 -239.134607 
L 607.09919 -239.540891 
L 608.18928 -239.955954 
L 609.279371 -240.377157 
L 610.369462 -240.801597 
L 611.459553 -241.22615 
L 612.549644 -241.647516 
L 613.639734 -242.062278 
L 614.729825 -242.466952 
L 615.819916 -242.858052 
L 616.910007 -243.232151 
L 618.000098 -243.58594 
L 619.090189 -243.916291 
L 620.180279 -244.220314 
L 621.27037 -244.495417 
L 622.360461 -244.739349 
L 623.450552 -244.950248 
L 624.540643 -245.126675 
L 625.630734 -245.267638 
L 626.720824 -245.372604 
L 627.810915 -245.441501 
L 628.901006 -245.474708 
L 629.991097 -245.473026 
L 631.081188 -245.437641 
L 632.171278 -245.370074 
L 633.261369 -245.272127 
L 634.35146 -245.145808 
L 635.441551 -244.993273 
L 636.531642 -244.816747 
L 637.621733 -244.618463 
L 638.711823 -244.400598 
L 639.801914 -244.165224 
L 640.892005 -243.914269 
L 641.982096 -243.649487 
L 643.072187 -243.37245 
L 644.162277 -243.084542 
L 645.252368 -242.786976 
L 646.342459 -242.480816 
L 647.43255 -242.167002 
L 648.522641 -241.846394 
L 649.612732 -241.519797 
L 650.702822 -241.188006 
L 651.792913 -240.85183 
L 652.883004 -240.51212 
L 653.973095 -240.169784 
L 655.063186 -239.825799 
L 656.153277 -239.481209 
L 657.243367 -239.13712 
L 658.333458 -238.794687 
L 659.423549 -238.455094 
L 660.51364 -238.119536 
L 661.603731 -237.789193 
L 662.693821 -237.465212 
L 663.783912 -237.148681 
L 664.874003 -236.840619 
L 665.964094 -236.541954 
L 667.054185 -236.253518 
L 668.144276 -235.976038 
L 668.144276 -229.487212 
L 668.144276 -229.487212 
L 667.054185 -229.209732 
L 665.964094 -228.921296 
L 664.874003 -228.622631 
L 663.783912 -228.314569 
L 662.693821 -227.998038 
L 661.603731 -227.674057 
L 660.51364 -227.343714 
L 659.423549 -227.008156 
L 658.333458 -226.668563 
L 657.243367 -226.32613 
L 656.153277 -225.982041 
L 655.063186 -225.637451 
L 653.973095 -225.293466 
L 652.883004 -224.95113 
L 651.792913 -224.61142 
L 650.702822 -224.275244 
L 649.612732 -223.943453 
L 648.522641 -223.616856 
L 647.43255 -223.296248 
L 646.342459 -222.982434 
L 645.252368 -222.676274 
L 644.162277 -222.378708 
L 643.072187 -222.0908 
L 641.982096 -221.813763 
L 640.892005 -221.548981 
L 639.801914 -221.298026 
L 638.711823 -221.062652 
L 637.621733 -220.844787 
L 636.531642 -220.646503 
L 635.441551 -220.469977 
L 634.35146 -220.317442 
L 633.261369 -220.191123 
L 632.171278 -220.093176 
L 631.081188 -220.025609 
L 629.991097 -219.990224 
L 628.901006 -219.988542 
L 627.810915 -220.021749 
L 626.720824 -220.090646 
L 625.630734 -220.195612 
L 624.540643 -220.336575 
L 623.450552 -220.513002 
L 622.360461 -220.723901 
L 621.27037 -220.967833 
L 620.180279 -221.242936 
L 619.090189 -221.546959 
L 618.000098 -221.87731 
L 616.910007 -222.231099 
L 615.819916 -222.605198 
L 614.729825 -222.996298 
L 613.639734 -223.400972 
L 612.549644 -223.815734 
L 611.459553 -224.2371 
L 610.369462 -224.661653 
L 609.279371 -225.086093 
L 608.18928 -225.507296 
L 607.09919 -225.922359 
L 606.009099 -226.328643 
L 604.919008 -226.723808 
L 603.828917 -227.105837 
L 602.738826 -227.473059 
L 601.648735 -227.824152 
L 600.558645 -228.15814 
L 599.468554 -228.474388 
L 598.378463 -228.772573 
L 597.288372 -229.052658 
L 596.198281 -229.314854 
L 595.108191 -229.559579 
L 594.0181 -229.78741 
L 592.928009 -229.999034 
L 591.837918 -230.195208 
L 590.747827 -230.376706 
L 589.657736 -230.544288 
L 588.567646 -230.698665 
L 587.477555 -230.840477 
L 586.387464 -230.970278 
L 585.297373 -231.088529 
L 584.207282 -231.195608 
L 583.117191 -231.291818 
L 582.027101 -231.377407 
L 580.93701 -231.452598 
L 579.846919 -231.517612 
L 578.756828 -231.572704 
L 577.666737 -231.618188 
L 576.576647 -231.654469 
L 575.486556 -231.682059 
L 574.396465 -231.701596 
L 573.306374 -231.71385 
L 572.216283 -231.719725 
L 571.126192 -231.720243 
L 570.036102 -231.716535 
L 568.946011 -231.709809 
L 567.85592 -231.70132 
L 566.765829 -231.692337 
L 565.675738 -231.6841 
L 564.585648 -231.677786 
L 563.495557 -231.674464 
L 562.405466 -231.675069 
L 561.315375 -231.680369 
L 560.225284 -231.690942 
z
" id="m91f5bda31d" style="stroke:#333333;"/>
    </defs>
    <g clip-path="url(#p0be89b137b)">
     <use style="fill:#484566;stroke:#333333;" x="0" xlink:href="#m91f5bda31d" y="319.061667"/>
    </g>
   </g>
   <g id="PolyCollection_4">
    <defs>
     <path d="M 589.676106 -205.295366 
L 589.676106 -209.19555 
L 590.490485 -209.26598 
L 591.304863 -209.337977 
L 592.119242 -209.412048 
L 592.93362 -209.488739 
L 593.747998 -209.568613 
L 594.562377 -209.652241 
L 595.376755 -209.740182 
L 596.191134 -209.832964 
L 597.005512 -209.931075 
L 597.819891 -210.034938 
L 598.634269 -210.144902 
L 599.448647 -210.261224 
L 600.263026 -210.384064 
L 601.077404 -210.513472 
L 601.891783 -210.649385 
L 602.706161 -210.791627 
L 603.520539 -210.939908 
L 604.334918 -211.093833 
L 605.149296 -211.252909 
L 605.963675 -211.416561 
L 606.778053 -211.584144 
L 607.592432 -211.754962 
L 608.40681 -211.928291 
L 609.221188 -212.103395 
L 610.035567 -212.279552 
L 610.849945 -212.456075 
L 611.664324 -212.63233 
L 612.478702 -212.807756 
L 613.29308 -212.981881 
L 614.107459 -213.154335 
L 614.921837 -213.324861 
L 615.736216 -213.493319 
L 616.550594 -213.659688 
L 617.364972 -213.824067 
L 618.179351 -213.986661 
L 618.993729 -214.147781 
L 619.808108 -214.307821 
L 620.622486 -214.467248 
L 621.436865 -214.626579 
L 622.251243 -214.786364 
L 623.065621 -214.947158 
L 623.88 -215.109506 
L 624.694378 -215.273917 
L 625.508757 -215.440841 
L 626.323135 -215.610655 
L 627.137513 -215.783641 
L 627.951892 -215.959975 
L 628.76627 -216.139711 
L 629.580649 -216.322773 
L 630.395027 -216.508952 
L 631.209406 -216.6979 
L 632.023784 -216.889135 
L 632.838162 -217.082038 
L 633.652541 -217.275864 
L 634.466919 -217.469753 
L 635.281298 -217.662732 
L 636.095676 -217.853739 
L 636.910054 -218.041628 
L 637.724433 -218.225189 
L 638.538811 -218.403165 
L 639.35319 -218.574265 
L 640.167568 -218.73718 
L 640.981946 -218.890607 
L 641.796325 -219.033256 
L 642.610703 -219.16387 
L 643.425082 -219.28124 
L 644.23946 -219.384218 
L 645.053839 -219.471729 
L 645.868217 -219.542784 
L 646.682595 -219.59649 
L 647.496974 -219.632057 
L 648.311352 -219.648809 
L 649.125731 -219.646188 
L 649.940109 -219.623757 
L 650.754487 -219.581209 
L 651.568866 -219.518362 
L 652.383244 -219.435164 
L 653.197623 -219.331693 
L 654.012001 -219.208149 
L 654.82638 -219.064859 
L 655.640758 -218.902267 
L 656.455136 -218.720929 
L 657.269515 -218.521512 
L 658.083893 -218.304781 
L 658.898272 -218.071596 
L 659.71265 -217.822905 
L 660.527028 -217.55973 
L 661.341407 -217.283168 
L 662.155785 -216.994375 
L 662.970164 -216.694558 
L 663.784542 -216.384972 
L 664.59892 -216.066906 
L 665.413299 -215.741676 
L 666.227677 -215.410616 
L 667.042056 -215.075071 
L 667.856434 -214.736386 
L 668.670813 -214.395899 
L 669.485191 -214.054932 
L 670.299569 -213.714782 
L 670.299569 -200.776135 
L 670.299569 -200.776135 
L 669.485191 -200.435985 
L 668.670813 -200.095018 
L 667.856434 -199.754531 
L 667.042056 -199.415846 
L 666.227677 -199.080301 
L 665.413299 -198.749241 
L 664.59892 -198.424011 
L 663.784542 -198.105945 
L 662.970164 -197.796359 
L 662.155785 -197.496542 
L 661.341407 -197.207748 
L 660.527028 -196.931186 
L 659.71265 -196.668012 
L 658.898272 -196.419321 
L 658.083893 -196.186136 
L 657.269515 -195.969405 
L 656.455136 -195.769987 
L 655.640758 -195.58865 
L 654.82638 -195.426057 
L 654.012001 -195.282767 
L 653.197623 -195.159224 
L 652.383244 -195.055752 
L 651.568866 -194.972555 
L 650.754487 -194.909708 
L 649.940109 -194.86716 
L 649.125731 -194.844729 
L 648.311352 -194.842107 
L 647.496974 -194.858859 
L 646.682595 -194.894427 
L 645.868217 -194.948132 
L 645.053839 -195.019188 
L 644.23946 -195.106699 
L 643.425082 -195.209677 
L 642.610703 -195.327047 
L 641.796325 -195.457661 
L 640.981946 -195.600309 
L 640.167568 -195.753736 
L 639.35319 -195.916652 
L 638.538811 -196.087751 
L 637.724433 -196.265727 
L 636.910054 -196.449289 
L 636.095676 -196.637178 
L 635.281298 -196.828185 
L 634.466919 -197.021164 
L 633.652541 -197.215052 
L 632.838162 -197.408879 
L 632.023784 -197.601782 
L 631.209406 -197.793016 
L 630.395027 -197.981965 
L 629.580649 -198.168144 
L 628.76627 -198.351206 
L 627.951892 -198.530941 
L 627.137513 -198.707275 
L 626.323135 -198.880262 
L 625.508757 -199.050076 
L 624.694378 -199.217 
L 623.88 -199.38141 
L 623.065621 -199.543759 
L 622.251243 -199.704553 
L 621.436865 -199.864337 
L 620.622486 -200.023669 
L 619.808108 -200.183096 
L 618.993729 -200.343136 
L 618.179351 -200.504256 
L 617.364972 -200.66685 
L 616.550594 -200.831228 
L 615.736216 -200.997598 
L 614.921837 -201.166056 
L 614.107459 -201.336582 
L 613.29308 -201.509036 
L 612.478702 -201.683161 
L 611.664324 -201.858586 
L 610.849945 -202.034841 
L 610.035567 -202.211364 
L 609.221188 -202.387522 
L 608.40681 -202.562626 
L 607.592432 -202.735954 
L 606.778053 -202.906773 
L 605.963675 -203.074355 
L 605.149296 -203.238007 
L 604.334918 -203.397084 
L 603.520539 -203.551009 
L 602.706161 -203.69929 
L 601.891783 -203.841531 
L 601.077404 -203.977445 
L 600.263026 -204.106853 
L 599.448647 -204.229693 
L 598.634269 -204.346015 
L 597.819891 -204.455978 
L 597.005512 -204.559841 
L 596.191134 -204.657952 
L 595.376755 -204.750735 
L 594.562377 -204.838675 
L 593.747998 -204.922303 
L 592.93362 -205.002178 
L 592.119242 -205.078868 
L 591.304863 -205.15294 
L 590.490485 -205.224936 
L 589.676106 -205.295366 
z
" id="m3798be5da4" style="stroke:#333333;"/>
    </defs>
    <g clip-path="url(#p0be89b137b)">
     <use style="fill:#b75e1a;stroke:#333333;" x="0" xlink:href="#m3798be5da4" y="319.061667"/>
    </g>
   </g>
   <g id="patch_86">
    <path clip-path="url(#p0be89b137b)" d="M 442.787444 35.357708 
L 442.787444 35.357708 
L 442.787444 35.357708 
L 442.787444 35.357708 
z
" style="fill:#484566;stroke:#333333;stroke-linejoin:miter;stroke-width:0.5;"/>
   </g>
   <g id="patch_87">
    <path clip-path="url(#p0be89b137b)" d="M 442.787444 35.357708 
L 442.787444 35.357708 
L 442.787444 35.357708 
L 442.787444 35.357708 
z
" style="fill:#b75e1a;stroke:#333333;stroke-linejoin:miter;stroke-width:0.5;"/>
   </g>
   <g id="matplotlib.axis_3">
    <g id="xtick_5">
     <g id="line2d_9">
      <g>
       <use style="stroke:#000000;stroke-width:1.6;" x="442.787444" xlink:href="#mbbb9acd424" y="258.361667"/>
      </g>
     </g>
     <g id="text_10">
      <!-- 0.0 -->
      <g transform="translate(426.884319 288.258542)scale(0.2 -0.2)">
       <use xlink:href="#DejaVuSans-48"/>
       <use x="63.623047" xlink:href="#DejaVuSans-46"/>
       <use x="95.410156" xlink:href="#DejaVuSans-48"/>
      </g>
     </g>
    </g>
    <g id="xtick_6">
     <g id="line2d_10">
      <g>
       <use style="stroke:#000000;stroke-width:1.6;" x="510.750556" xlink:href="#mbbb9acd424" y="258.361667"/>
      </g>
     </g>
     <g id="text_11">
      <!-- 0.2 -->
      <g transform="translate(494.847431 288.258542)scale(0.2 -0.2)">
       <use xlink:href="#DejaVuSans-48"/>
       <use x="63.623047" xlink:href="#DejaVuSans-46"/>
       <use x="95.410156" xlink:href="#DejaVuSans-50"/>
      </g>
     </g>
    </g>
    <g id="xtick_7">
     <g id="line2d_11">
      <g>
       <use style="stroke:#000000;stroke-width:1.6;" x="578.713667" xlink:href="#mbbb9acd424" y="258.361667"/>
      </g>
     </g>
     <g id="text_12">
      <!-- 0.4 -->
      <g transform="translate(562.810542 288.258542)scale(0.2 -0.2)">
       <use xlink:href="#DejaVuSans-48"/>
       <use x="63.623047" xlink:href="#DejaVuSans-46"/>
       <use x="95.410156" xlink:href="#DejaVuSans-52"/>
      </g>
     </g>
    </g>
    <g id="xtick_8">
     <g id="line2d_12">
      <g>
       <use style="stroke:#000000;stroke-width:1.6;" x="646.676778" xlink:href="#mbbb9acd424" y="258.361667"/>
      </g>
     </g>
     <g id="text_13">
      <!-- 0.6 -->
      <g transform="translate(630.773653 288.258542)scale(0.2 -0.2)">
       <use xlink:href="#DejaVuSans-48"/>
       <use x="63.623047" xlink:href="#DejaVuSans-46"/>
       <use x="95.410156" xlink:href="#DejaVuSans-54"/>
      </g>
     </g>
    </g>
    <g id="text_14">
     <!-- Max JS Divergence within $\epsilon$ -->
     <g transform="translate(417.6275 311.617917)scale(0.2 -0.2)">
      <use transform="translate(0 0.015625)" xlink:href="#DejaVuSans-77"/>
      <use transform="translate(86.279297 0.015625)" xlink:href="#DejaVuSans-97"/>
      <use transform="translate(147.558594 0.015625)" xlink:href="#DejaVuSans-120"/>
      <use transform="translate(206.738281 0.015625)" xlink:href="#DejaVuSans-32"/>
      <use transform="translate(238.525391 0.015625)" xlink:href="#DejaVuSans-74"/>
      <use transform="translate(268.017578 0.015625)" xlink:href="#DejaVuSans-83"/>
      <use transform="translate(331.494141 0.015625)" xlink:href="#DejaVuSans-32"/>
      <use transform="translate(363.28125 0.015625)" xlink:href="#DejaVuSans-68"/>
      <use transform="translate(440.283203 0.015625)" xlink:href="#DejaVuSans-105"/>
      <use transform="translate(468.066406 0.015625)" xlink:href="#DejaVuSans-118"/>
      <use transform="translate(527.246094 0.015625)" xlink:href="#DejaVuSans-101"/>
      <use transform="translate(588.769531 0.015625)" xlink:href="#DejaVuSans-114"/>
      <use transform="translate(629.882812 0.015625)" xlink:href="#DejaVuSans-103"/>
      <use transform="translate(693.359375 0.015625)" xlink:href="#DejaVuSans-101"/>
      <use transform="translate(754.882812 0.015625)" xlink:href="#DejaVuSans-110"/>
      <use transform="translate(818.261719 0.015625)" xlink:href="#DejaVuSans-99"/>
      <use transform="translate(873.242188 0.015625)" xlink:href="#DejaVuSans-101"/>
      <use transform="translate(934.765625 0.015625)" xlink:href="#DejaVuSans-32"/>
      <use transform="translate(966.552734 0.015625)" xlink:href="#DejaVuSans-119"/>
      <use transform="translate(1048.339844 0.015625)" xlink:href="#DejaVuSans-105"/>
      <use transform="translate(1076.123047 0.015625)" xlink:href="#DejaVuSans-116"/>
      <use transform="translate(1115.332031 0.015625)" xlink:href="#DejaVuSans-104"/>
      <use transform="translate(1178.710938 0.015625)" xlink:href="#DejaVuSans-105"/>
      <use transform="translate(1206.494141 0.015625)" xlink:href="#DejaVuSans-110"/>
      <use transform="translate(1269.873047 0.015625)" xlink:href="#DejaVuSans-32"/>
      <use transform="translate(1301.660156 0.015625)" xlink:href="#DejaVuSans-Oblique-949"/>
     </g>
    </g>
   </g>
   <g id="matplotlib.axis_4">
    <g id="ytick_5">
     <g id="line2d_13">
      <g>
       <use style="stroke:#000000;stroke-width:1.6;" x="425.796667" xlink:href="#m3513eaaa6f" y="35.357708"/>
      </g>
     </g>
     <g id="text_15">
      <!-- [0.00, -->
      <defs>
       <path d="M 8.59375 75.984375 
L 29.296875 75.984375 
L 29.296875 69 
L 17.578125 69 
L 17.578125 -6.203125 
L 29.296875 -6.203125 
L 29.296875 -13.1875 
L 8.59375 -13.1875 
z
" id="DejaVuSans-91"/>
       <path d="M 11.71875 12.40625 
L 22.015625 12.40625 
L 22.015625 4 
L 14.015625 -11.625 
L 7.71875 -11.625 
L 11.71875 4 
z
" id="DejaVuSans-44"/>
      </defs>
      <g transform="translate(352.406042 31.758333)scale(0.2 -0.2)">
       <use xlink:href="#DejaVuSans-91"/>
       <use x="39.013672" xlink:href="#DejaVuSans-48"/>
       <use x="102.636719" xlink:href="#DejaVuSans-46"/>
       <use x="134.423828" xlink:href="#DejaVuSans-48"/>
       <use x="198.046875" xlink:href="#DejaVuSans-48"/>
       <use x="261.669922" xlink:href="#DejaVuSans-44"/>
      </g>
      <!-- 0.25) -->
      <defs>
       <path d="M 8.015625 75.875 
L 15.828125 75.875 
Q 23.140625 64.359375 26.78125 53.3125 
Q 30.421875 42.28125 30.421875 31.390625 
Q 30.421875 20.453125 26.78125 9.375 
Q 23.140625 -1.703125 15.828125 -13.1875 
L 8.015625 -13.1875 
Q 14.5 -2 17.703125 9.0625 
Q 20.90625 20.125 20.90625 31.390625 
Q 20.90625 42.671875 17.703125 53.65625 
Q 14.5 64.65625 8.015625 75.875 
z
" id="DejaVuSans-41"/>
      </defs>
      <g transform="translate(358.762292 54.153958)scale(0.2 -0.2)">
       <use xlink:href="#DejaVuSans-48"/>
       <use x="63.623047" xlink:href="#DejaVuSans-46"/>
       <use x="95.410156" xlink:href="#DejaVuSans-50"/>
       <use x="159.033203" xlink:href="#DejaVuSans-53"/>
       <use x="222.65625" xlink:href="#DejaVuSans-41"/>
      </g>
     </g>
    </g>
    <g id="ytick_6">
     <g id="line2d_14">
      <g>
       <use style="stroke:#000000;stroke-width:1.6;" x="425.796667" xlink:href="#m3513eaaa6f" y="99.073125"/>
      </g>
     </g>
     <g id="text_16">
      <!-- [0.25, -->
      <g transform="translate(352.406042 95.47375)scale(0.2 -0.2)">
       <use xlink:href="#DejaVuSans-91"/>
       <use x="39.013672" xlink:href="#DejaVuSans-48"/>
       <use x="102.636719" xlink:href="#DejaVuSans-46"/>
       <use x="134.423828" xlink:href="#DejaVuSans-50"/>
       <use x="198.046875" xlink:href="#DejaVuSans-53"/>
       <use x="261.669922" xlink:href="#DejaVuSans-44"/>
      </g>
      <!-- 0.50) -->
      <g transform="translate(358.762292 117.869375)scale(0.2 -0.2)">
       <use xlink:href="#DejaVuSans-48"/>
       <use x="63.623047" xlink:href="#DejaVuSans-46"/>
       <use x="95.410156" xlink:href="#DejaVuSans-53"/>
       <use x="159.033203" xlink:href="#DejaVuSans-48"/>
       <use x="222.65625" xlink:href="#DejaVuSans-41"/>
      </g>
     </g>
    </g>
    <g id="ytick_7">
     <g id="line2d_15">
      <g>
       <use style="stroke:#000000;stroke-width:1.6;" x="425.796667" xlink:href="#m3513eaaa6f" y="162.788542"/>
      </g>
     </g>
     <g id="text_17">
      <!-- [0.50, -->
      <g transform="translate(352.406042 159.189167)scale(0.2 -0.2)">
       <use xlink:href="#DejaVuSans-91"/>
       <use x="39.013672" xlink:href="#DejaVuSans-48"/>
       <use x="102.636719" xlink:href="#DejaVuSans-46"/>
       <use x="134.423828" xlink:href="#DejaVuSans-53"/>
       <use x="198.046875" xlink:href="#DejaVuSans-48"/>
       <use x="261.669922" xlink:href="#DejaVuSans-44"/>
      </g>
      <!-- 0.75) -->
      <defs>
       <path d="M 8.203125 72.90625 
L 55.078125 72.90625 
L 55.078125 68.703125 
L 28.609375 0 
L 18.3125 0 
L 43.21875 64.59375 
L 8.203125 64.59375 
z
" id="DejaVuSans-55"/>
      </defs>
      <g transform="translate(358.762292 181.584792)scale(0.2 -0.2)">
       <use xlink:href="#DejaVuSans-48"/>
       <use x="63.623047" xlink:href="#DejaVuSans-46"/>
       <use x="95.410156" xlink:href="#DejaVuSans-55"/>
       <use x="159.033203" xlink:href="#DejaVuSans-53"/>
       <use x="222.65625" xlink:href="#DejaVuSans-41"/>
      </g>
     </g>
    </g>
    <g id="ytick_8">
     <g id="line2d_16">
      <g>
       <use style="stroke:#000000;stroke-width:1.6;" x="425.796667" xlink:href="#m3513eaaa6f" y="226.503958"/>
      </g>
     </g>
     <g id="text_18">
      <!-- [0.75, -->
      <g transform="translate(352.406042 222.904583)scale(0.2 -0.2)">
       <use xlink:href="#DejaVuSans-91"/>
       <use x="39.013672" xlink:href="#DejaVuSans-48"/>
       <use x="102.636719" xlink:href="#DejaVuSans-46"/>
       <use x="134.423828" xlink:href="#DejaVuSans-55"/>
       <use x="198.046875" xlink:href="#DejaVuSans-53"/>
       <use x="261.669922" xlink:href="#DejaVuSans-44"/>
      </g>
      <!-- 1.00) -->
      <g transform="translate(358.762292 245.300208)scale(0.2 -0.2)">
       <use xlink:href="#DejaVuSans-49"/>
       <use x="63.623047" xlink:href="#DejaVuSans-46"/>
       <use x="95.410156" xlink:href="#DejaVuSans-48"/>
       <use x="159.033203" xlink:href="#DejaVuSans-48"/>
       <use x="222.65625" xlink:href="#DejaVuSans-41"/>
      </g>
     </g>
    </g>
    <g id="text_19">
     <!-- Max Attention -->
     <defs>
      <path d="M 34.1875 63.1875 
L 20.796875 26.90625 
L 47.609375 26.90625 
z
M 28.609375 72.90625 
L 39.796875 72.90625 
L 67.578125 0 
L 57.328125 0 
L 50.6875 18.703125 
L 17.828125 18.703125 
L 11.1875 0 
L 0.78125 0 
z
" id="DejaVuSans-65"/>
      <path d="M 30.609375 48.390625 
Q 23.390625 48.390625 19.1875 42.75 
Q 14.984375 37.109375 14.984375 27.296875 
Q 14.984375 17.484375 19.15625 11.84375 
Q 23.34375 6.203125 30.609375 6.203125 
Q 37.796875 6.203125 41.984375 11.859375 
Q 46.1875 17.53125 46.1875 27.296875 
Q 46.1875 37.015625 41.984375 42.703125 
Q 37.796875 48.390625 30.609375 48.390625 
z
M 30.609375 56 
Q 42.328125 56 49.015625 48.375 
Q 55.71875 40.765625 55.71875 27.296875 
Q 55.71875 13.875 49.015625 6.21875 
Q 42.328125 -1.421875 30.609375 -1.421875 
Q 18.84375 -1.421875 12.171875 6.21875 
Q 5.515625 13.875 5.515625 27.296875 
Q 5.515625 40.765625 12.171875 48.375 
Q 18.84375 56 30.609375 56 
z
" id="DejaVuSans-111"/>
     </defs>
     <g transform="translate(344.246667 201.108958)rotate(-90)scale(0.2 -0.2)">
      <use xlink:href="#DejaVuSans-77"/>
      <use x="86.279297" xlink:href="#DejaVuSans-97"/>
      <use x="147.558594" xlink:href="#DejaVuSans-120"/>
      <use x="206.738281" xlink:href="#DejaVuSans-32"/>
      <use x="238.525391" xlink:href="#DejaVuSans-65"/>
      <use x="306.917969" xlink:href="#DejaVuSans-116"/>
      <use x="346.126953" xlink:href="#DejaVuSans-116"/>
      <use x="385.335938" xlink:href="#DejaVuSans-101"/>
      <use x="446.859375" xlink:href="#DejaVuSans-110"/>
      <use x="510.238281" xlink:href="#DejaVuSans-116"/>
      <use x="549.447266" xlink:href="#DejaVuSans-105"/>
      <use x="577.230469" xlink:href="#DejaVuSans-111"/>
      <use x="638.412109" xlink:href="#DejaVuSans-110"/>
     </g>
    </g>
   </g>
   <g id="line2d_17">
    <path clip-path="url(#p0be89b137b)" style="fill:none;stroke:#333333;stroke-dasharray:1.5,1.5;stroke-dashoffset:0;"/>
   </g>
   <g id="line2d_18">
    <path clip-path="url(#p0be89b137b)" style="fill:none;stroke:#333333;stroke-dasharray:3,3;stroke-dashoffset:0;"/>
   </g>
   <g id="line2d_19">
    <path clip-path="url(#p0be89b137b)" style="fill:none;stroke:#333333;stroke-dasharray:1.5,1.5;stroke-dashoffset:0;"/>
   </g>
   <g id="line2d_20">
    <path clip-path="url(#p0be89b137b)" style="fill:none;stroke:#333333;stroke-dasharray:1.5,1.5;stroke-dashoffset:0;"/>
   </g>
   <g id="line2d_21">
    <path clip-path="url(#p0be89b137b)" style="fill:none;stroke:#333333;stroke-dasharray:3,3;stroke-dashoffset:0;"/>
   </g>
   <g id="line2d_22">
    <path clip-path="url(#p0be89b137b)" style="fill:none;stroke:#333333;stroke-dasharray:1.5,1.5;stroke-dashoffset:0;"/>
   </g>
   <g id="line2d_23">
    <path clip-path="url(#p0be89b137b)" style="fill:none;stroke:#333333;stroke-dasharray:1.5,1.5;stroke-dashoffset:0;"/>
   </g>
   <g id="line2d_24">
    <path clip-path="url(#p0be89b137b)" style="fill:none;stroke:#333333;stroke-dasharray:3,3;stroke-dashoffset:0;"/>
   </g>
   <g id="line2d_25">
    <path clip-path="url(#p0be89b137b)" style="fill:none;stroke:#333333;stroke-dasharray:1.5,1.5;stroke-dashoffset:0;"/>
   </g>
   <g id="line2d_26">
    <path clip-path="url(#p0be89b137b)" style="fill:none;stroke:#333333;stroke-dasharray:1.5,1.5;stroke-dashoffset:0;"/>
   </g>
   <g id="line2d_27">
    <path clip-path="url(#p0be89b137b)" style="fill:none;stroke:#333333;stroke-dasharray:3,3;stroke-dashoffset:0;"/>
   </g>
   <g id="line2d_28">
    <path clip-path="url(#p0be89b137b)" style="fill:none;stroke:#333333;stroke-dasharray:1.5,1.5;stroke-dashoffset:0;"/>
   </g>
   <g id="line2d_29">
    <path clip-path="url(#p0be89b137b)" style="fill:none;stroke:#333333;stroke-linecap:square;"/>
   </g>
   <g id="patch_88">
    <path style="fill:none;stroke:#000000;stroke-linecap:square;stroke-linejoin:miter;stroke-width:0.8;"/>
   </g>
   <g id="patch_89">
    <path style="fill:none;stroke:#000000;stroke-linecap:square;stroke-linejoin:miter;stroke-width:0.8;"/>
   </g>
  </g>
 </g>
 <defs>
  <clipPath id="p57cad6701b">
   <rect height="254.861667" width="254.861667" x="59.575" y="3.5"/>
  </clipPath>
  <clipPath id="p0be89b137b">
   <rect height="254.861667" width="254.861667" x="425.796667" y="3.5"/>
  </clipPath>
 </defs>
</svg>
