<?xml version="1.0" encoding="utf-8" standalone="no"?>
<!DOCTYPE svg PUBLIC "-//W3C//DTD SVG 1.1//EN"
  "http://www.w3.org/Graphics/SVG/1.1/DTD/svg11.dtd">
<!-- Created with matplotlib (https://matplotlib.org/) -->
<svg height="319.061667pt" version="1.1" viewBox="0 0 323.226536 319.061667" width="323.226536pt" xmlns="http://www.w3.org/2000/svg" xmlns:xlink="http://www.w3.org/1999/xlink">
 <defs>
  <style type="text/css">
*{stroke-linecap:butt;stroke-linejoin:round;}
  </style>
 </defs>
 <g id="figure_1">
  <g id="patch_1">
   <path d="M 0 319.061667 
L 323.226536 319.061667 
L 323.226536 0 
L 0 0 
z
" style="fill:#ffffff;"/>
  </g>
  <g id="axes_1">
   <g id="patch_2">
    <path d="M 59.575 258.361667 
L 314.436667 258.361667 
L 314.436667 3.5 
L 59.575 3.5 
z
" style="fill:#ffffff;"/>
   </g>
   <g id="patch_3">
    <path clip-path="url(#p0b069bca84)" d="M 71.159621 258.361667 
L 76.951932 258.361667 
L 76.951932 258.361667 
L 71.159621 258.361667 
z
" style="fill:#43406b;opacity:0.6;stroke:#000000;stroke-linejoin:miter;stroke-width:0.5;"/>
   </g>
   <g id="patch_4">
    <path clip-path="url(#p0b069bca84)" d="M 76.951932 258.361667 
L 82.744242 258.361667 
L 82.744242 258.361667 
L 76.951932 258.361667 
z
" style="fill:#43406b;opacity:0.6;stroke:#000000;stroke-linejoin:miter;stroke-width:0.5;"/>
   </g>
   <g id="patch_5">
    <path clip-path="url(#p0b069bca84)" d="M 82.744242 258.361667 
L 88.536553 258.361667 
L 88.536553 258.361667 
L 82.744242 258.361667 
z
" style="fill:#43406b;opacity:0.6;stroke:#000000;stroke-linejoin:miter;stroke-width:0.5;"/>
   </g>
   <g id="patch_6">
    <path clip-path="url(#p0b069bca84)" d="M 88.536553 258.361667 
L 94.328864 258.361667 
L 94.328864 258.361667 
L 88.536553 258.361667 
z
" style="fill:#43406b;opacity:0.6;stroke:#000000;stroke-linejoin:miter;stroke-width:0.5;"/>
   </g>
   <g id="patch_7">
    <path clip-path="url(#p0b069bca84)" d="M 94.328864 258.361667 
L 100.121174 258.361667 
L 100.121174 258.361667 
L 94.328864 258.361667 
z
" style="fill:#43406b;opacity:0.6;stroke:#000000;stroke-linejoin:miter;stroke-width:0.5;"/>
   </g>
   <g id="patch_8">
    <path clip-path="url(#p0b069bca84)" d="M 100.121174 258.361667 
L 105.913485 258.361667 
L 105.913485 258.361667 
L 100.121174 258.361667 
z
" style="fill:#43406b;opacity:0.6;stroke:#000000;stroke-linejoin:miter;stroke-width:0.5;"/>
   </g>
   <g id="patch_9">
    <path clip-path="url(#p0b069bca84)" d="M 105.913485 258.361667 
L 111.705795 258.361667 
L 111.705795 258.361667 
L 105.913485 258.361667 
z
" style="fill:#43406b;opacity:0.6;stroke:#000000;stroke-linejoin:miter;stroke-width:0.5;"/>
   </g>
   <g id="patch_10">
    <path clip-path="url(#p0b069bca84)" d="M 111.705795 258.361667 
L 117.498106 258.361667 
L 117.498106 258.361667 
L 111.705795 258.361667 
z
" style="fill:#43406b;opacity:0.6;stroke:#000000;stroke-linejoin:miter;stroke-width:0.5;"/>
   </g>
   <g id="patch_11">
    <path clip-path="url(#p0b069bca84)" d="M 117.498106 258.361667 
L 123.290417 258.361667 
L 123.290417 258.361667 
L 117.498106 258.361667 
z
" style="fill:#43406b;opacity:0.6;stroke:#000000;stroke-linejoin:miter;stroke-width:0.5;"/>
   </g>
   <g id="patch_12">
    <path clip-path="url(#p0b069bca84)" d="M 123.290417 258.361667 
L 129.082727 258.361667 
L 129.082727 258.361667 
L 123.290417 258.361667 
z
" style="fill:#43406b;opacity:0.6;stroke:#000000;stroke-linejoin:miter;stroke-width:0.5;"/>
   </g>
   <g id="patch_13">
    <path clip-path="url(#p0b069bca84)" d="M 129.082727 258.361667 
L 134.875038 258.361667 
L 134.875038 258.361667 
L 129.082727 258.361667 
z
" style="fill:#43406b;opacity:0.6;stroke:#000000;stroke-linejoin:miter;stroke-width:0.5;"/>
   </g>
   <g id="patch_14">
    <path clip-path="url(#p0b069bca84)" d="M 134.875038 258.361667 
L 140.667348 258.361667 
L 140.667348 258.361667 
L 134.875038 258.361667 
z
" style="fill:#43406b;opacity:0.6;stroke:#000000;stroke-linejoin:miter;stroke-width:0.5;"/>
   </g>
   <g id="patch_15">
    <path clip-path="url(#p0b069bca84)" d="M 140.667348 258.361667 
L 146.459659 258.361667 
L 146.459659 258.361667 
L 140.667348 258.361667 
z
" style="fill:#43406b;opacity:0.6;stroke:#000000;stroke-linejoin:miter;stroke-width:0.5;"/>
   </g>
   <g id="patch_16">
    <path clip-path="url(#p0b069bca84)" d="M 146.459659 258.361667 
L 152.25197 258.361667 
L 152.25197 258.361667 
L 146.459659 258.361667 
z
" style="fill:#43406b;opacity:0.6;stroke:#000000;stroke-linejoin:miter;stroke-width:0.5;"/>
   </g>
   <g id="patch_17">
    <path clip-path="url(#p0b069bca84)" d="M 152.25197 258.361667 
L 158.04428 258.361667 
L 158.04428 258.361667 
L 152.25197 258.361667 
z
" style="fill:#43406b;opacity:0.6;stroke:#000000;stroke-linejoin:miter;stroke-width:0.5;"/>
   </g>
   <g id="patch_18">
    <path clip-path="url(#p0b069bca84)" d="M 158.04428 258.361667 
L 163.836591 258.361667 
L 163.836591 258.361667 
L 158.04428 258.361667 
z
" style="fill:#43406b;opacity:0.6;stroke:#000000;stroke-linejoin:miter;stroke-width:0.5;"/>
   </g>
   <g id="patch_19">
    <path clip-path="url(#p0b069bca84)" d="M 163.836591 258.361667 
L 169.628902 258.361667 
L 169.628902 258.361667 
L 163.836591 258.361667 
z
" style="fill:#43406b;opacity:0.6;stroke:#000000;stroke-linejoin:miter;stroke-width:0.5;"/>
   </g>
   <g id="patch_20">
    <path clip-path="url(#p0b069bca84)" d="M 169.628902 258.361667 
L 175.421212 258.361667 
L 175.421212 258.361667 
L 169.628902 258.361667 
z
" style="fill:#43406b;opacity:0.6;stroke:#000000;stroke-linejoin:miter;stroke-width:0.5;"/>
   </g>
   <g id="patch_21">
    <path clip-path="url(#p0b069bca84)" d="M 175.421212 258.361667 
L 181.213523 258.361667 
L 181.213523 258.361667 
L 175.421212 258.361667 
z
" style="fill:#43406b;opacity:0.6;stroke:#000000;stroke-linejoin:miter;stroke-width:0.5;"/>
   </g>
   <g id="patch_22">
    <path clip-path="url(#p0b069bca84)" d="M 181.213523 258.361667 
L 187.005833 258.361667 
L 187.005833 258.361667 
L 181.213523 258.361667 
z
" style="fill:#43406b;opacity:0.6;stroke:#000000;stroke-linejoin:miter;stroke-width:0.5;"/>
   </g>
   <g id="patch_23">
    <path clip-path="url(#p0b069bca84)" d="M 187.005833 258.361667 
L 192.798144 258.361667 
L 192.798144 258.361667 
L 187.005833 258.361667 
z
" style="fill:#43406b;opacity:0.6;stroke:#000000;stroke-linejoin:miter;stroke-width:0.5;"/>
   </g>
   <g id="patch_24">
    <path clip-path="url(#p0b069bca84)" d="M 192.798144 258.361667 
L 198.590455 258.361667 
L 198.590455 258.361667 
L 192.798144 258.361667 
z
" style="fill:#43406b;opacity:0.6;stroke:#000000;stroke-linejoin:miter;stroke-width:0.5;"/>
   </g>
   <g id="patch_25">
    <path clip-path="url(#p0b069bca84)" d="M 198.590455 258.361667 
L 204.382765 258.361667 
L 204.382765 258.361667 
L 198.590455 258.361667 
z
" style="fill:#43406b;opacity:0.6;stroke:#000000;stroke-linejoin:miter;stroke-width:0.5;"/>
   </g>
   <g id="patch_26">
    <path clip-path="url(#p0b069bca84)" d="M 204.382765 258.361667 
L 210.175076 258.361667 
L 210.175076 258.361667 
L 204.382765 258.361667 
z
" style="fill:#43406b;opacity:0.6;stroke:#000000;stroke-linejoin:miter;stroke-width:0.5;"/>
   </g>
   <g id="patch_27">
    <path clip-path="url(#p0b069bca84)" d="M 210.175076 258.361667 
L 215.967386 258.361667 
L 215.967386 258.361667 
L 210.175076 258.361667 
z
" style="fill:#43406b;opacity:0.6;stroke:#000000;stroke-linejoin:miter;stroke-width:0.5;"/>
   </g>
   <g id="patch_28">
    <path clip-path="url(#p0b069bca84)" d="M 215.967386 258.361667 
L 221.759697 258.361667 
L 221.759697 258.361667 
L 215.967386 258.361667 
z
" style="fill:#43406b;opacity:0.6;stroke:#000000;stroke-linejoin:miter;stroke-width:0.5;"/>
   </g>
   <g id="patch_29">
    <path clip-path="url(#p0b069bca84)" d="M 221.759697 258.361667 
L 227.552008 258.361667 
L 227.552008 258.361667 
L 221.759697 258.361667 
z
" style="fill:#43406b;opacity:0.6;stroke:#000000;stroke-linejoin:miter;stroke-width:0.5;"/>
   </g>
   <g id="patch_30">
    <path clip-path="url(#p0b069bca84)" d="M 227.552008 258.361667 
L 233.344318 258.361667 
L 233.344318 258.361667 
L 227.552008 258.361667 
z
" style="fill:#43406b;opacity:0.6;stroke:#000000;stroke-linejoin:miter;stroke-width:0.5;"/>
   </g>
   <g id="patch_31">
    <path clip-path="url(#p0b069bca84)" d="M 233.344318 258.361667 
L 239.136629 258.361667 
L 239.136629 256.785528 
L 233.344318 256.785528 
z
" style="fill:#43406b;opacity:0.6;stroke:#000000;stroke-linejoin:miter;stroke-width:0.5;"/>
   </g>
   <g id="patch_32">
    <path clip-path="url(#p0b069bca84)" d="M 239.136629 258.361667 
L 244.928939 258.361667 
L 244.928939 250.480972 
L 239.136629 250.480972 
z
" style="fill:#43406b;opacity:0.6;stroke:#000000;stroke-linejoin:miter;stroke-width:0.5;"/>
   </g>
   <g id="patch_33">
    <path clip-path="url(#p0b069bca84)" d="M 244.928939 258.361667 
L 250.72125 258.361667 
L 250.72125 234.719583 
L 244.928939 234.719583 
z
" style="fill:#43406b;opacity:0.6;stroke:#000000;stroke-linejoin:miter;stroke-width:0.5;"/>
   </g>
   <g id="patch_34">
    <path clip-path="url(#p0b069bca84)" d="M 250.72125 258.361667 
L 256.513561 258.361667 
L 256.513561 200.044526 
L 250.72125 200.044526 
z
" style="fill:#43406b;opacity:0.6;stroke:#000000;stroke-linejoin:miter;stroke-width:0.5;"/>
   </g>
   <g id="patch_35">
    <path clip-path="url(#p0b069bca84)" d="M 256.513561 258.361667 
L 262.305871 258.361667 
L 262.305871 34.549937 
L 256.513561 34.549937 
z
" style="fill:#43406b;opacity:0.6;stroke:#000000;stroke-linejoin:miter;stroke-width:0.5;"/>
   </g>
   <g id="patch_36">
    <path clip-path="url(#p0b069bca84)" d="M 262.305871 258.361667 
L 268.098182 258.361667 
L 268.098182 15.63627 
L 262.305871 15.63627 
z
" style="fill:#43406b;opacity:0.6;stroke:#000000;stroke-linejoin:miter;stroke-width:0.5;"/>
   </g>
   <g id="patch_37">
    <path clip-path="url(#p0b069bca84)" d="M 268.098182 258.361667 
L 273.890492 258.361667 
L 273.890492 100.747773 
L 268.098182 100.747773 
z
" style="fill:#43406b;opacity:0.6;stroke:#000000;stroke-linejoin:miter;stroke-width:0.5;"/>
   </g>
   <g id="patch_38">
    <path clip-path="url(#p0b069bca84)" d="M 273.890492 258.361667 
L 279.682803 258.361667 
L 279.682803 171.674025 
L 273.890492 171.674025 
z
" style="fill:#43406b;opacity:0.6;stroke:#000000;stroke-linejoin:miter;stroke-width:0.5;"/>
   </g>
   <g id="patch_39">
    <path clip-path="url(#p0b069bca84)" d="M 279.682803 258.361667 
L 285.475114 258.361667 
L 285.475114 212.653637 
L 279.682803 212.653637 
z
" style="fill:#43406b;opacity:0.6;stroke:#000000;stroke-linejoin:miter;stroke-width:0.5;"/>
   </g>
   <g id="patch_40">
    <path clip-path="url(#p0b069bca84)" d="M 285.475114 258.361667 
L 291.267424 258.361667 
L 291.267424 198.468387 
L 285.475114 198.468387 
z
" style="fill:#43406b;opacity:0.6;stroke:#000000;stroke-linejoin:miter;stroke-width:0.5;"/>
   </g>
   <g id="patch_41">
    <path clip-path="url(#p0b069bca84)" d="M 291.267424 258.361667 
L 297.059735 258.361667 
L 297.059735 168.521747 
L 291.267424 168.521747 
z
" style="fill:#43406b;opacity:0.6;stroke:#000000;stroke-linejoin:miter;stroke-width:0.5;"/>
   </g>
   <g id="patch_42">
    <path clip-path="url(#p0b069bca84)" d="M 297.059735 258.361667 
L 302.852045 258.361667 
L 302.852045 255.209389 
L 297.059735 255.209389 
z
" style="fill:#43406b;opacity:0.6;stroke:#000000;stroke-linejoin:miter;stroke-width:0.5;"/>
   </g>
   <g id="patch_43">
    <path clip-path="url(#p0b069bca84)" d="M 71.159621 258.361667 
L 76.951932 258.361667 
L 76.951932 258.361667 
L 71.159621 258.361667 
z
" style="fill:#d15a00;opacity:0.6;stroke:#000000;stroke-linejoin:miter;stroke-width:0.5;"/>
   </g>
   <g id="patch_44">
    <path clip-path="url(#p0b069bca84)" d="M 76.951932 258.361667 
L 82.744242 258.361667 
L 82.744242 258.361667 
L 76.951932 258.361667 
z
" style="fill:#d15a00;opacity:0.6;stroke:#000000;stroke-linejoin:miter;stroke-width:0.5;"/>
   </g>
   <g id="patch_45">
    <path clip-path="url(#p0b069bca84)" d="M 82.744242 258.361667 
L 88.536553 258.361667 
L 88.536553 258.361667 
L 82.744242 258.361667 
z
" style="fill:#d15a00;opacity:0.6;stroke:#000000;stroke-linejoin:miter;stroke-width:0.5;"/>
   </g>
   <g id="patch_46">
    <path clip-path="url(#p0b069bca84)" d="M 88.536553 258.361667 
L 94.328864 258.361667 
L 94.328864 258.361667 
L 88.536553 258.361667 
z
" style="fill:#d15a00;opacity:0.6;stroke:#000000;stroke-linejoin:miter;stroke-width:0.5;"/>
   </g>
   <g id="patch_47">
    <path clip-path="url(#p0b069bca84)" d="M 94.328864 258.361667 
L 100.121174 258.361667 
L 100.121174 258.361667 
L 94.328864 258.361667 
z
" style="fill:#d15a00;opacity:0.6;stroke:#000000;stroke-linejoin:miter;stroke-width:0.5;"/>
   </g>
   <g id="patch_48">
    <path clip-path="url(#p0b069bca84)" d="M 100.121174 258.361667 
L 105.913485 258.361667 
L 105.913485 258.361667 
L 100.121174 258.361667 
z
" style="fill:#d15a00;opacity:0.6;stroke:#000000;stroke-linejoin:miter;stroke-width:0.5;"/>
   </g>
   <g id="patch_49">
    <path clip-path="url(#p0b069bca84)" d="M 105.913485 258.361667 
L 111.705795 258.361667 
L 111.705795 258.361667 
L 105.913485 258.361667 
z
" style="fill:#d15a00;opacity:0.6;stroke:#000000;stroke-linejoin:miter;stroke-width:0.5;"/>
   </g>
   <g id="patch_50">
    <path clip-path="url(#p0b069bca84)" d="M 111.705795 258.361667 
L 117.498106 258.361667 
L 117.498106 258.361667 
L 111.705795 258.361667 
z
" style="fill:#d15a00;opacity:0.6;stroke:#000000;stroke-linejoin:miter;stroke-width:0.5;"/>
   </g>
   <g id="patch_51">
    <path clip-path="url(#p0b069bca84)" d="M 117.498106 258.361667 
L 123.290417 258.361667 
L 123.290417 258.361667 
L 117.498106 258.361667 
z
" style="fill:#d15a00;opacity:0.6;stroke:#000000;stroke-linejoin:miter;stroke-width:0.5;"/>
   </g>
   <g id="patch_52">
    <path clip-path="url(#p0b069bca84)" d="M 123.290417 258.361667 
L 129.082727 258.361667 
L 129.082727 258.361667 
L 123.290417 258.361667 
z
" style="fill:#d15a00;opacity:0.6;stroke:#000000;stroke-linejoin:miter;stroke-width:0.5;"/>
   </g>
   <g id="patch_53">
    <path clip-path="url(#p0b069bca84)" d="M 129.082727 258.361667 
L 134.875038 258.361667 
L 134.875038 258.361667 
L 129.082727 258.361667 
z
" style="fill:#d15a00;opacity:0.6;stroke:#000000;stroke-linejoin:miter;stroke-width:0.5;"/>
   </g>
   <g id="patch_54">
    <path clip-path="url(#p0b069bca84)" d="M 134.875038 258.361667 
L 140.667348 258.361667 
L 140.667348 258.361667 
L 134.875038 258.361667 
z
" style="fill:#d15a00;opacity:0.6;stroke:#000000;stroke-linejoin:miter;stroke-width:0.5;"/>
   </g>
   <g id="patch_55">
    <path clip-path="url(#p0b069bca84)" d="M 140.667348 258.361667 
L 146.459659 258.361667 
L 146.459659 258.361667 
L 140.667348 258.361667 
z
" style="fill:#d15a00;opacity:0.6;stroke:#000000;stroke-linejoin:miter;stroke-width:0.5;"/>
   </g>
   <g id="patch_56">
    <path clip-path="url(#p0b069bca84)" d="M 146.459659 258.361667 
L 152.25197 258.361667 
L 152.25197 258.361667 
L 146.459659 258.361667 
z
" style="fill:#d15a00;opacity:0.6;stroke:#000000;stroke-linejoin:miter;stroke-width:0.5;"/>
   </g>
   <g id="patch_57">
    <path clip-path="url(#p0b069bca84)" d="M 152.25197 258.361667 
L 158.04428 258.361667 
L 158.04428 258.361667 
L 152.25197 258.361667 
z
" style="fill:#d15a00;opacity:0.6;stroke:#000000;stroke-linejoin:miter;stroke-width:0.5;"/>
   </g>
   <g id="patch_58">
    <path clip-path="url(#p0b069bca84)" d="M 158.04428 258.361667 
L 163.836591 258.361667 
L 163.836591 258.361667 
L 158.04428 258.361667 
z
" style="fill:#d15a00;opacity:0.6;stroke:#000000;stroke-linejoin:miter;stroke-width:0.5;"/>
   </g>
   <g id="patch_59">
    <path clip-path="url(#p0b069bca84)" d="M 163.836591 258.361667 
L 169.628902 258.361667 
L 169.628902 258.361667 
L 163.836591 258.361667 
z
" style="fill:#d15a00;opacity:0.6;stroke:#000000;stroke-linejoin:miter;stroke-width:0.5;"/>
   </g>
   <g id="patch_60">
    <path clip-path="url(#p0b069bca84)" d="M 169.628902 258.361667 
L 175.421212 258.361667 
L 175.421212 258.361667 
L 169.628902 258.361667 
z
" style="fill:#d15a00;opacity:0.6;stroke:#000000;stroke-linejoin:miter;stroke-width:0.5;"/>
   </g>
   <g id="patch_61">
    <path clip-path="url(#p0b069bca84)" d="M 175.421212 258.361667 
L 181.213523 258.361667 
L 181.213523 258.361667 
L 175.421212 258.361667 
z
" style="fill:#d15a00;opacity:0.6;stroke:#000000;stroke-linejoin:miter;stroke-width:0.5;"/>
   </g>
   <g id="patch_62">
    <path clip-path="url(#p0b069bca84)" d="M 181.213523 258.361667 
L 187.005833 258.361667 
L 187.005833 258.361667 
L 181.213523 258.361667 
z
" style="fill:#d15a00;opacity:0.6;stroke:#000000;stroke-linejoin:miter;stroke-width:0.5;"/>
   </g>
   <g id="patch_63">
    <path clip-path="url(#p0b069bca84)" d="M 187.005833 258.361667 
L 192.798144 258.361667 
L 192.798144 258.361667 
L 187.005833 258.361667 
z
" style="fill:#d15a00;opacity:0.6;stroke:#000000;stroke-linejoin:miter;stroke-width:0.5;"/>
   </g>
   <g id="patch_64">
    <path clip-path="url(#p0b069bca84)" d="M 192.798144 258.361667 
L 198.590455 258.361667 
L 198.590455 258.361667 
L 192.798144 258.361667 
z
" style="fill:#d15a00;opacity:0.6;stroke:#000000;stroke-linejoin:miter;stroke-width:0.5;"/>
   </g>
   <g id="patch_65">
    <path clip-path="url(#p0b069bca84)" d="M 198.590455 258.361667 
L 204.382765 258.361667 
L 204.382765 258.361667 
L 198.590455 258.361667 
z
" style="fill:#d15a00;opacity:0.6;stroke:#000000;stroke-linejoin:miter;stroke-width:0.5;"/>
   </g>
   <g id="patch_66">
    <path clip-path="url(#p0b069bca84)" d="M 204.382765 258.361667 
L 210.175076 258.361667 
L 210.175076 252.067024 
L 204.382765 252.067024 
z
" style="fill:#d15a00;opacity:0.6;stroke:#000000;stroke-linejoin:miter;stroke-width:0.5;"/>
   </g>
   <g id="patch_67">
    <path clip-path="url(#p0b069bca84)" d="M 210.175076 258.361667 
L 215.967386 258.361667 
L 215.967386 258.361667 
L 210.175076 258.361667 
z
" style="fill:#d15a00;opacity:0.6;stroke:#000000;stroke-linejoin:miter;stroke-width:0.5;"/>
   </g>
   <g id="patch_68">
    <path clip-path="url(#p0b069bca84)" d="M 215.967386 258.361667 
L 221.759697 258.361667 
L 221.759697 252.067024 
L 215.967386 252.067024 
z
" style="fill:#d15a00;opacity:0.6;stroke:#000000;stroke-linejoin:miter;stroke-width:0.5;"/>
   </g>
   <g id="patch_69">
    <path clip-path="url(#p0b069bca84)" d="M 221.759697 258.361667 
L 227.552008 258.361667 
L 227.552008 245.772381 
L 221.759697 245.772381 
z
" style="fill:#d15a00;opacity:0.6;stroke:#000000;stroke-linejoin:miter;stroke-width:0.5;"/>
   </g>
   <g id="patch_70">
    <path clip-path="url(#p0b069bca84)" d="M 227.552008 258.361667 
L 233.344318 258.361667 
L 233.344318 189.120594 
L 227.552008 189.120594 
z
" style="fill:#d15a00;opacity:0.6;stroke:#000000;stroke-linejoin:miter;stroke-width:0.5;"/>
   </g>
   <g id="patch_71">
    <path clip-path="url(#p0b069bca84)" d="M 233.344318 258.361667 
L 239.136629 258.361667 
L 239.136629 163.942023 
L 233.344318 163.942023 
z
" style="fill:#d15a00;opacity:0.6;stroke:#000000;stroke-linejoin:miter;stroke-width:0.5;"/>
   </g>
   <g id="patch_72">
    <path clip-path="url(#p0b069bca84)" d="M 239.136629 258.361667 
L 244.928939 258.361667 
L 244.928939 132.468808 
L 239.136629 132.468808 
z
" style="fill:#d15a00;opacity:0.6;stroke:#000000;stroke-linejoin:miter;stroke-width:0.5;"/>
   </g>
   <g id="patch_73">
    <path clip-path="url(#p0b069bca84)" d="M 244.928939 258.361667 
L 250.72125 258.361667 
L 250.72125 44.343807 
L 244.928939 44.343807 
z
" style="fill:#d15a00;opacity:0.6;stroke:#000000;stroke-linejoin:miter;stroke-width:0.5;"/>
   </g>
   <g id="patch_74">
    <path clip-path="url(#p0b069bca84)" d="M 250.72125 258.361667 
L 256.513561 258.361667 
L 256.513561 63.227736 
L 250.72125 63.227736 
z
" style="fill:#d15a00;opacity:0.6;stroke:#000000;stroke-linejoin:miter;stroke-width:0.5;"/>
   </g>
   <g id="patch_75">
    <path clip-path="url(#p0b069bca84)" d="M 256.513561 258.361667 
L 262.305871 258.361667 
L 262.305871 88.406307 
L 256.513561 88.406307 
z
" style="fill:#d15a00;opacity:0.6;stroke:#000000;stroke-linejoin:miter;stroke-width:0.5;"/>
   </g>
   <g id="patch_76">
    <path clip-path="url(#p0b069bca84)" d="M 262.305871 258.361667 
L 268.098182 258.361667 
L 268.098182 220.593809 
L 262.305871 220.593809 
z
" style="fill:#d15a00;opacity:0.6;stroke:#000000;stroke-linejoin:miter;stroke-width:0.5;"/>
   </g>
   <g id="patch_77">
    <path clip-path="url(#p0b069bca84)" d="M 268.098182 258.361667 
L 273.890492 258.361667 
L 273.890492 214.299166 
L 268.098182 214.299166 
z
" style="fill:#d15a00;opacity:0.6;stroke:#000000;stroke-linejoin:miter;stroke-width:0.5;"/>
   </g>
   <g id="patch_78">
    <path clip-path="url(#p0b069bca84)" d="M 273.890492 258.361667 
L 279.682803 258.361667 
L 279.682803 233.183095 
L 273.890492 233.183095 
z
" style="fill:#d15a00;opacity:0.6;stroke:#000000;stroke-linejoin:miter;stroke-width:0.5;"/>
   </g>
   <g id="patch_79">
    <path clip-path="url(#p0b069bca84)" d="M 279.682803 258.361667 
L 285.475114 258.361667 
L 285.475114 258.361667 
L 279.682803 258.361667 
z
" style="fill:#d15a00;opacity:0.6;stroke:#000000;stroke-linejoin:miter;stroke-width:0.5;"/>
   </g>
   <g id="patch_80">
    <path clip-path="url(#p0b069bca84)" d="M 285.475114 258.361667 
L 291.267424 258.361667 
L 291.267424 258.361667 
L 285.475114 258.361667 
z
" style="fill:#d15a00;opacity:0.6;stroke:#000000;stroke-linejoin:miter;stroke-width:0.5;"/>
   </g>
   <g id="patch_81">
    <path clip-path="url(#p0b069bca84)" d="M 291.267424 258.361667 
L 297.059735 258.361667 
L 297.059735 258.361667 
L 291.267424 258.361667 
z
" style="fill:#d15a00;opacity:0.6;stroke:#000000;stroke-linejoin:miter;stroke-width:0.5;"/>
   </g>
   <g id="patch_82">
    <path clip-path="url(#p0b069bca84)" d="M 297.059735 258.361667 
L 302.852045 258.361667 
L 302.852045 258.361667 
L 297.059735 258.361667 
z
" style="fill:#d15a00;opacity:0.6;stroke:#000000;stroke-linejoin:miter;stroke-width:0.5;"/>
   </g>
   <g id="matplotlib.axis_1">
    <g id="xtick_1">
     <g id="line2d_1">
      <defs>
       <path d="M 0 0 
L 0 3.5 
" id="m374ddd333d" style="stroke:#000000;stroke-width:1.6;"/>
      </defs>
      <g>
       <use style="stroke:#000000;stroke-width:1.6;" x="71.159621" xlink:href="#m374ddd333d" y="258.361667"/>
      </g>
     </g>
     <g id="text_1">
      <!-- 0.0 -->
      <defs>
       <path d="M 31.78125 66.40625 
Q 24.171875 66.40625 20.328125 58.90625 
Q 16.5 51.421875 16.5 36.375 
Q 16.5 21.390625 20.328125 13.890625 
Q 24.171875 6.390625 31.78125 6.390625 
Q 39.453125 6.390625 43.28125 13.890625 
Q 47.125 21.390625 47.125 36.375 
Q 47.125 51.421875 43.28125 58.90625 
Q 39.453125 66.40625 31.78125 66.40625 
z
M 31.78125 74.21875 
Q 44.046875 74.21875 50.515625 64.515625 
Q 56.984375 54.828125 56.984375 36.375 
Q 56.984375 17.96875 50.515625 8.265625 
Q 44.046875 -1.421875 31.78125 -1.421875 
Q 19.53125 -1.421875 13.0625 8.265625 
Q 6.59375 17.96875 6.59375 36.375 
Q 6.59375 54.828125 13.0625 64.515625 
Q 19.53125 74.21875 31.78125 74.21875 
z
" id="DejaVuSans-48"/>
       <path d="M 10.6875 12.40625 
L 21 12.40625 
L 21 0 
L 10.6875 0 
z
" id="DejaVuSans-46"/>
      </defs>
      <g transform="translate(55.256496 288.258542)scale(0.2 -0.2)">
       <use xlink:href="#DejaVuSans-48"/>
       <use x="63.623047" xlink:href="#DejaVuSans-46"/>
       <use x="95.410156" xlink:href="#DejaVuSans-48"/>
      </g>
     </g>
    </g>
    <g id="xtick_2">
     <g id="line2d_2">
      <g>
       <use style="stroke:#000000;stroke-width:1.6;" x="137.357457" xlink:href="#m374ddd333d" y="258.361667"/>
      </g>
     </g>
     <g id="text_2">
      <!-- 0.2 -->
      <defs>
       <path d="M 19.1875 8.296875 
L 53.609375 8.296875 
L 53.609375 0 
L 7.328125 0 
L 7.328125 8.296875 
Q 12.9375 14.109375 22.625 23.890625 
Q 32.328125 33.6875 34.8125 36.53125 
Q 39.546875 41.84375 41.421875 45.53125 
Q 43.3125 49.21875 43.3125 52.78125 
Q 43.3125 58.59375 39.234375 62.25 
Q 35.15625 65.921875 28.609375 65.921875 
Q 23.96875 65.921875 18.8125 64.3125 
Q 13.671875 62.703125 7.8125 59.421875 
L 7.8125 69.390625 
Q 13.765625 71.78125 18.9375 73 
Q 24.125 74.21875 28.421875 74.21875 
Q 39.75 74.21875 46.484375 68.546875 
Q 53.21875 62.890625 53.21875 53.421875 
Q 53.21875 48.921875 51.53125 44.890625 
Q 49.859375 40.875 45.40625 35.40625 
Q 44.1875 33.984375 37.640625 27.21875 
Q 31.109375 20.453125 19.1875 8.296875 
z
" id="DejaVuSans-50"/>
      </defs>
      <g transform="translate(121.454332 288.258542)scale(0.2 -0.2)">
       <use xlink:href="#DejaVuSans-48"/>
       <use x="63.623047" xlink:href="#DejaVuSans-46"/>
       <use x="95.410156" xlink:href="#DejaVuSans-50"/>
      </g>
     </g>
    </g>
    <g id="xtick_3">
     <g id="line2d_3">
      <g>
       <use style="stroke:#000000;stroke-width:1.6;" x="203.555292" xlink:href="#m374ddd333d" y="258.361667"/>
      </g>
     </g>
     <g id="text_3">
      <!-- 0.4 -->
      <defs>
       <path d="M 37.796875 64.3125 
L 12.890625 25.390625 
L 37.796875 25.390625 
z
M 35.203125 72.90625 
L 47.609375 72.90625 
L 47.609375 25.390625 
L 58.015625 25.390625 
L 58.015625 17.1875 
L 47.609375 17.1875 
L 47.609375 0 
L 37.796875 0 
L 37.796875 17.1875 
L 4.890625 17.1875 
L 4.890625 26.703125 
z
" id="DejaVuSans-52"/>
      </defs>
      <g transform="translate(187.652167 288.258542)scale(0.2 -0.2)">
       <use xlink:href="#DejaVuSans-48"/>
       <use x="63.623047" xlink:href="#DejaVuSans-46"/>
       <use x="95.410156" xlink:href="#DejaVuSans-52"/>
      </g>
     </g>
    </g>
    <g id="xtick_4">
     <g id="line2d_4">
      <g>
       <use style="stroke:#000000;stroke-width:1.6;" x="269.753128" xlink:href="#m374ddd333d" y="258.361667"/>
      </g>
     </g>
     <g id="text_4">
      <!-- 0.6 -->
      <defs>
       <path d="M 33.015625 40.375 
Q 26.375 40.375 22.484375 35.828125 
Q 18.609375 31.296875 18.609375 23.390625 
Q 18.609375 15.53125 22.484375 10.953125 
Q 26.375 6.390625 33.015625 6.390625 
Q 39.65625 6.390625 43.53125 10.953125 
Q 47.40625 15.53125 47.40625 23.390625 
Q 47.40625 31.296875 43.53125 35.828125 
Q 39.65625 40.375 33.015625 40.375 
z
M 52.59375 71.296875 
L 52.59375 62.3125 
Q 48.875 64.0625 45.09375 64.984375 
Q 41.3125 65.921875 37.59375 65.921875 
Q 27.828125 65.921875 22.671875 59.328125 
Q 17.53125 52.734375 16.796875 39.40625 
Q 19.671875 43.65625 24.015625 45.921875 
Q 28.375 48.1875 33.59375 48.1875 
Q 44.578125 48.1875 50.953125 41.515625 
Q 57.328125 34.859375 57.328125 23.390625 
Q 57.328125 12.15625 50.6875 5.359375 
Q 44.046875 -1.421875 33.015625 -1.421875 
Q 20.359375 -1.421875 13.671875 8.265625 
Q 6.984375 17.96875 6.984375 36.375 
Q 6.984375 53.65625 15.1875 63.9375 
Q 23.390625 74.21875 37.203125 74.21875 
Q 40.921875 74.21875 44.703125 73.484375 
Q 48.484375 72.75 52.59375 71.296875 
z
" id="DejaVuSans-54"/>
      </defs>
      <g transform="translate(253.850003 288.258542)scale(0.2 -0.2)">
       <use xlink:href="#DejaVuSans-48"/>
       <use x="63.623047" xlink:href="#DejaVuSans-46"/>
       <use x="95.410156" xlink:href="#DejaVuSans-54"/>
      </g>
     </g>
    </g>
    <g id="text_5">
     <!-- Max JS Divergence within $\epsilon$ -->
     <defs>
      <path d="M 9.8125 72.90625 
L 24.515625 72.90625 
L 43.109375 23.296875 
L 61.8125 72.90625 
L 76.515625 72.90625 
L 76.515625 0 
L 66.890625 0 
L 66.890625 64.015625 
L 48.09375 14.015625 
L 38.1875 14.015625 
L 19.390625 64.015625 
L 19.390625 0 
L 9.8125 0 
z
" id="DejaVuSans-77"/>
      <path d="M 34.28125 27.484375 
Q 23.390625 27.484375 19.1875 25 
Q 14.984375 22.515625 14.984375 16.5 
Q 14.984375 11.71875 18.140625 8.90625 
Q 21.296875 6.109375 26.703125 6.109375 
Q 34.1875 6.109375 38.703125 11.40625 
Q 43.21875 16.703125 43.21875 25.484375 
L 43.21875 27.484375 
z
M 52.203125 31.203125 
L 52.203125 0 
L 43.21875 0 
L 43.21875 8.296875 
Q 40.140625 3.328125 35.546875 0.953125 
Q 30.953125 -1.421875 24.3125 -1.421875 
Q 15.921875 -1.421875 10.953125 3.296875 
Q 6 8.015625 6 15.921875 
Q 6 25.140625 12.171875 29.828125 
Q 18.359375 34.515625 30.609375 34.515625 
L 43.21875 34.515625 
L 43.21875 35.40625 
Q 43.21875 41.609375 39.140625 45 
Q 35.0625 48.390625 27.6875 48.390625 
Q 23 48.390625 18.546875 47.265625 
Q 14.109375 46.140625 10.015625 43.890625 
L 10.015625 52.203125 
Q 14.9375 54.109375 19.578125 55.046875 
Q 24.21875 56 28.609375 56 
Q 40.484375 56 46.34375 49.84375 
Q 52.203125 43.703125 52.203125 31.203125 
z
" id="DejaVuSans-97"/>
      <path d="M 54.890625 54.6875 
L 35.109375 28.078125 
L 55.90625 0 
L 45.3125 0 
L 29.390625 21.484375 
L 13.484375 0 
L 2.875 0 
L 24.125 28.609375 
L 4.6875 54.6875 
L 15.28125 54.6875 
L 29.78125 35.203125 
L 44.28125 54.6875 
z
" id="DejaVuSans-120"/>
      <path id="DejaVuSans-32"/>
      <path d="M 9.8125 72.90625 
L 19.671875 72.90625 
L 19.671875 5.078125 
Q 19.671875 -8.109375 14.671875 -14.0625 
Q 9.671875 -20.015625 -1.421875 -20.015625 
L -5.171875 -20.015625 
L -5.171875 -11.71875 
L -2.09375 -11.71875 
Q 4.4375 -11.71875 7.125 -8.046875 
Q 9.8125 -4.390625 9.8125 5.078125 
z
" id="DejaVuSans-74"/>
      <path d="M 53.515625 70.515625 
L 53.515625 60.890625 
Q 47.90625 63.578125 42.921875 64.890625 
Q 37.9375 66.21875 33.296875 66.21875 
Q 25.25 66.21875 20.875 63.09375 
Q 16.5 59.96875 16.5 54.203125 
Q 16.5 49.359375 19.40625 46.890625 
Q 22.3125 44.4375 30.421875 42.921875 
L 36.375 41.703125 
Q 47.40625 39.59375 52.65625 34.296875 
Q 57.90625 29 57.90625 20.125 
Q 57.90625 9.515625 50.796875 4.046875 
Q 43.703125 -1.421875 29.984375 -1.421875 
Q 24.8125 -1.421875 18.96875 -0.25 
Q 13.140625 0.921875 6.890625 3.21875 
L 6.890625 13.375 
Q 12.890625 10.015625 18.65625 8.296875 
Q 24.421875 6.59375 29.984375 6.59375 
Q 38.421875 6.59375 43.015625 9.90625 
Q 47.609375 13.234375 47.609375 19.390625 
Q 47.609375 24.75 44.3125 27.78125 
Q 41.015625 30.8125 33.5 32.328125 
L 27.484375 33.5 
Q 16.453125 35.6875 11.515625 40.375 
Q 6.59375 45.0625 6.59375 53.421875 
Q 6.59375 63.09375 13.40625 68.65625 
Q 20.21875 74.21875 32.171875 74.21875 
Q 37.3125 74.21875 42.625 73.28125 
Q 47.953125 72.359375 53.515625 70.515625 
z
" id="DejaVuSans-83"/>
      <path d="M 19.671875 64.796875 
L 19.671875 8.109375 
L 31.59375 8.109375 
Q 46.6875 8.109375 53.6875 14.9375 
Q 60.6875 21.78125 60.6875 36.53125 
Q 60.6875 51.171875 53.6875 57.984375 
Q 46.6875 64.796875 31.59375 64.796875 
z
M 9.8125 72.90625 
L 30.078125 72.90625 
Q 51.265625 72.90625 61.171875 64.09375 
Q 71.09375 55.28125 71.09375 36.53125 
Q 71.09375 17.671875 61.125 8.828125 
Q 51.171875 0 30.078125 0 
L 9.8125 0 
z
" id="DejaVuSans-68"/>
      <path d="M 9.421875 54.6875 
L 18.40625 54.6875 
L 18.40625 0 
L 9.421875 0 
z
M 9.421875 75.984375 
L 18.40625 75.984375 
L 18.40625 64.59375 
L 9.421875 64.59375 
z
" id="DejaVuSans-105"/>
      <path d="M 2.984375 54.6875 
L 12.5 54.6875 
L 29.59375 8.796875 
L 46.6875 54.6875 
L 56.203125 54.6875 
L 35.6875 0 
L 23.484375 0 
z
" id="DejaVuSans-118"/>
      <path d="M 56.203125 29.59375 
L 56.203125 25.203125 
L 14.890625 25.203125 
Q 15.484375 15.921875 20.484375 11.0625 
Q 25.484375 6.203125 34.421875 6.203125 
Q 39.59375 6.203125 44.453125 7.46875 
Q 49.3125 8.734375 54.109375 11.28125 
L 54.109375 2.78125 
Q 49.265625 0.734375 44.1875 -0.34375 
Q 39.109375 -1.421875 33.890625 -1.421875 
Q 20.796875 -1.421875 13.15625 6.1875 
Q 5.515625 13.8125 5.515625 26.8125 
Q 5.515625 40.234375 12.765625 48.109375 
Q 20.015625 56 32.328125 56 
Q 43.359375 56 49.78125 48.890625 
Q 56.203125 41.796875 56.203125 29.59375 
z
M 47.21875 32.234375 
Q 47.125 39.59375 43.09375 43.984375 
Q 39.0625 48.390625 32.421875 48.390625 
Q 24.90625 48.390625 20.390625 44.140625 
Q 15.875 39.890625 15.1875 32.171875 
z
" id="DejaVuSans-101"/>
      <path d="M 41.109375 46.296875 
Q 39.59375 47.171875 37.8125 47.578125 
Q 36.03125 48 33.890625 48 
Q 26.265625 48 22.1875 43.046875 
Q 18.109375 38.09375 18.109375 28.8125 
L 18.109375 0 
L 9.078125 0 
L 9.078125 54.6875 
L 18.109375 54.6875 
L 18.109375 46.1875 
Q 20.953125 51.171875 25.484375 53.578125 
Q 30.03125 56 36.53125 56 
Q 37.453125 56 38.578125 55.875 
Q 39.703125 55.765625 41.0625 55.515625 
z
" id="DejaVuSans-114"/>
      <path d="M 45.40625 27.984375 
Q 45.40625 37.75 41.375 43.109375 
Q 37.359375 48.484375 30.078125 48.484375 
Q 22.859375 48.484375 18.828125 43.109375 
Q 14.796875 37.75 14.796875 27.984375 
Q 14.796875 18.265625 18.828125 12.890625 
Q 22.859375 7.515625 30.078125 7.515625 
Q 37.359375 7.515625 41.375 12.890625 
Q 45.40625 18.265625 45.40625 27.984375 
z
M 54.390625 6.78125 
Q 54.390625 -7.171875 48.1875 -13.984375 
Q 42 -20.796875 29.203125 -20.796875 
Q 24.46875 -20.796875 20.265625 -20.09375 
Q 16.0625 -19.390625 12.109375 -17.921875 
L 12.109375 -9.1875 
Q 16.0625 -11.328125 19.921875 -12.34375 
Q 23.78125 -13.375 27.78125 -13.375 
Q 36.625 -13.375 41.015625 -8.765625 
Q 45.40625 -4.15625 45.40625 5.171875 
L 45.40625 9.625 
Q 42.625 4.78125 38.28125 2.390625 
Q 33.9375 0 27.875 0 
Q 17.828125 0 11.671875 7.65625 
Q 5.515625 15.328125 5.515625 27.984375 
Q 5.515625 40.671875 11.671875 48.328125 
Q 17.828125 56 27.875 56 
Q 33.9375 56 38.28125 53.609375 
Q 42.625 51.21875 45.40625 46.390625 
L 45.40625 54.6875 
L 54.390625 54.6875 
z
" id="DejaVuSans-103"/>
      <path d="M 54.890625 33.015625 
L 54.890625 0 
L 45.90625 0 
L 45.90625 32.71875 
Q 45.90625 40.484375 42.875 44.328125 
Q 39.84375 48.1875 33.796875 48.1875 
Q 26.515625 48.1875 22.3125 43.546875 
Q 18.109375 38.921875 18.109375 30.90625 
L 18.109375 0 
L 9.078125 0 
L 9.078125 54.6875 
L 18.109375 54.6875 
L 18.109375 46.1875 
Q 21.34375 51.125 25.703125 53.5625 
Q 30.078125 56 35.796875 56 
Q 45.21875 56 50.046875 50.171875 
Q 54.890625 44.34375 54.890625 33.015625 
z
" id="DejaVuSans-110"/>
      <path d="M 48.78125 52.59375 
L 48.78125 44.1875 
Q 44.96875 46.296875 41.140625 47.34375 
Q 37.3125 48.390625 33.40625 48.390625 
Q 24.65625 48.390625 19.8125 42.84375 
Q 14.984375 37.3125 14.984375 27.296875 
Q 14.984375 17.28125 19.8125 11.734375 
Q 24.65625 6.203125 33.40625 6.203125 
Q 37.3125 6.203125 41.140625 7.25 
Q 44.96875 8.296875 48.78125 10.40625 
L 48.78125 2.09375 
Q 45.015625 0.34375 40.984375 -0.53125 
Q 36.96875 -1.421875 32.421875 -1.421875 
Q 20.0625 -1.421875 12.78125 6.34375 
Q 5.515625 14.109375 5.515625 27.296875 
Q 5.515625 40.671875 12.859375 48.328125 
Q 20.21875 56 33.015625 56 
Q 37.15625 56 41.109375 55.140625 
Q 45.0625 54.296875 48.78125 52.59375 
z
" id="DejaVuSans-99"/>
      <path d="M 4.203125 54.6875 
L 13.1875 54.6875 
L 24.421875 12.015625 
L 35.59375 54.6875 
L 46.1875 54.6875 
L 57.421875 12.015625 
L 68.609375 54.6875 
L 77.59375 54.6875 
L 63.28125 0 
L 52.6875 0 
L 40.921875 44.828125 
L 29.109375 0 
L 18.5 0 
z
" id="DejaVuSans-119"/>
      <path d="M 18.3125 70.21875 
L 18.3125 54.6875 
L 36.8125 54.6875 
L 36.8125 47.703125 
L 18.3125 47.703125 
L 18.3125 18.015625 
Q 18.3125 11.328125 20.140625 9.421875 
Q 21.96875 7.515625 27.59375 7.515625 
L 36.8125 7.515625 
L 36.8125 0 
L 27.59375 0 
Q 17.1875 0 13.234375 3.875 
Q 9.28125 7.765625 9.28125 18.015625 
L 9.28125 47.703125 
L 2.6875 47.703125 
L 2.6875 54.6875 
L 9.28125 54.6875 
L 9.28125 70.21875 
z
" id="DejaVuSans-116"/>
      <path d="M 54.890625 33.015625 
L 54.890625 0 
L 45.90625 0 
L 45.90625 32.71875 
Q 45.90625 40.484375 42.875 44.328125 
Q 39.84375 48.1875 33.796875 48.1875 
Q 26.515625 48.1875 22.3125 43.546875 
Q 18.109375 38.921875 18.109375 30.90625 
L 18.109375 0 
L 9.078125 0 
L 9.078125 75.984375 
L 18.109375 75.984375 
L 18.109375 46.1875 
Q 21.34375 51.125 25.703125 53.5625 
Q 30.078125 56 35.796875 56 
Q 45.21875 56 50.046875 50.171875 
Q 54.890625 44.34375 54.890625 33.015625 
z
" id="DejaVuSans-104"/>
      <path d="M 19.734375 29.5 
Q 14.453125 30.671875 12.15625 33.84375 
Q 10.453125 36.078125 10.453125 39.109375 
Q 10.453125 47.40625 18.359375 52.25 
Q 24.609375 56.0625 34.1875 56.0625 
Q 37.890625 56.0625 41.9375 55.46875 
Q 46 54.890625 50.53125 53.71875 
L 48.96875 45.5625 
Q 44.484375 46.96875 40.71875 47.609375 
Q 36.859375 48.25 33.40625 48.25 
Q 27.59375 48.25 23.78125 46 
Q 19.1875 43.3125 19.1875 39.40625 
Q 19.1875 36.8125 21.578125 35.015625 
Q 24.421875 32.859375 30.078125 32.859375 
L 37.640625 32.859375 
L 36.234375 25.4375 
L 29 25.4375 
Q 22.265625 25.4375 18.3125 22.953125 
Q 12.9375 19.578125 12.9375 14.3125 
Q 12.9375 10.984375 15.828125 8.796875 
Q 19.4375 6.0625 26.8125 6.0625 
Q 31.34375 6.0625 35.6875 6.9375 
Q 40.046875 7.859375 43.84375 9.671875 
L 42.1875 1.3125 
Q 37.546875 -0.046875 33.296875 -0.734375 
Q 29.046875 -1.421875 25.140625 -1.421875 
Q 13.53125 -1.421875 8.0625 3.03125 
Q 3.90625 6.453125 3.90625 12.203125 
Q 3.90625 19.96875 9.375 24.75 
Q 13.421875 28.328125 19.734375 29.5 
z
" id="DejaVuSans-Oblique-949"/>
     </defs>
     <g transform="translate(51.405833 311.617917)scale(0.2 -0.2)">
      <use transform="translate(0 0.015625)" xlink:href="#DejaVuSans-77"/>
      <use transform="translate(86.279297 0.015625)" xlink:href="#DejaVuSans-97"/>
      <use transform="translate(147.558594 0.015625)" xlink:href="#DejaVuSans-120"/>
      <use transform="translate(206.738281 0.015625)" xlink:href="#DejaVuSans-32"/>
      <use transform="translate(238.525391 0.015625)" xlink:href="#DejaVuSans-74"/>
      <use transform="translate(268.017578 0.015625)" xlink:href="#DejaVuSans-83"/>
      <use transform="translate(331.494141 0.015625)" xlink:href="#DejaVuSans-32"/>
      <use transform="translate(363.28125 0.015625)" xlink:href="#DejaVuSans-68"/>
      <use transform="translate(440.283203 0.015625)" xlink:href="#DejaVuSans-105"/>
      <use transform="translate(468.066406 0.015625)" xlink:href="#DejaVuSans-118"/>
      <use transform="translate(527.246094 0.015625)" xlink:href="#DejaVuSans-101"/>
      <use transform="translate(588.769531 0.015625)" xlink:href="#DejaVuSans-114"/>
      <use transform="translate(629.882812 0.015625)" xlink:href="#DejaVuSans-103"/>
      <use transform="translate(693.359375 0.015625)" xlink:href="#DejaVuSans-101"/>
      <use transform="translate(754.882812 0.015625)" xlink:href="#DejaVuSans-110"/>
      <use transform="translate(818.261719 0.015625)" xlink:href="#DejaVuSans-99"/>
      <use transform="translate(873.242188 0.015625)" xlink:href="#DejaVuSans-101"/>
      <use transform="translate(934.765625 0.015625)" xlink:href="#DejaVuSans-32"/>
      <use transform="translate(966.552734 0.015625)" xlink:href="#DejaVuSans-119"/>
      <use transform="translate(1048.339844 0.015625)" xlink:href="#DejaVuSans-105"/>
      <use transform="translate(1076.123047 0.015625)" xlink:href="#DejaVuSans-116"/>
      <use transform="translate(1115.332031 0.015625)" xlink:href="#DejaVuSans-104"/>
      <use transform="translate(1178.710938 0.015625)" xlink:href="#DejaVuSans-105"/>
      <use transform="translate(1206.494141 0.015625)" xlink:href="#DejaVuSans-110"/>
      <use transform="translate(1269.873047 0.015625)" xlink:href="#DejaVuSans-32"/>
      <use transform="translate(1301.660156 0.015625)" xlink:href="#DejaVuSans-Oblique-949"/>
     </g>
    </g>
   </g>
   <g id="matplotlib.axis_2">
    <g id="ytick_1">
     <g id="line2d_5">
      <defs>
       <path d="M 0 0 
L -3.5 0 
" id="m3b8ac535ba" style="stroke:#000000;stroke-width:1.6;"/>
      </defs>
      <g>
       <use style="stroke:#000000;stroke-width:1.6;" x="59.575" xlink:href="#m3b8ac535ba" y="258.361667"/>
      </g>
     </g>
     <g id="text_6">
      <!-- 0.00 -->
      <g transform="translate(0.34375 265.960104)scale(0.2 -0.2)">
       <use xlink:href="#DejaVuSans-48"/>
       <use x="63.623047" xlink:href="#DejaVuSans-46"/>
       <use x="95.410156" xlink:href="#DejaVuSans-48"/>
       <use x="159.033203" xlink:href="#DejaVuSans-48"/>
      </g>
     </g>
    </g>
    <g id="ytick_2">
     <g id="line2d_6">
      <g>
       <use style="stroke:#000000;stroke-width:1.6;" x="59.575" xlink:href="#m3b8ac535ba" y="208.319255"/>
      </g>
     </g>
     <g id="text_7">
      <!-- 0.05 -->
      <defs>
       <path d="M 10.796875 72.90625 
L 49.515625 72.90625 
L 49.515625 64.59375 
L 19.828125 64.59375 
L 19.828125 46.734375 
Q 21.96875 47.46875 24.109375 47.828125 
Q 26.265625 48.1875 28.421875 48.1875 
Q 40.625 48.1875 47.75 41.5 
Q 54.890625 34.8125 54.890625 23.390625 
Q 54.890625 11.625 47.5625 5.09375 
Q 40.234375 -1.421875 26.90625 -1.421875 
Q 22.3125 -1.421875 17.546875 -0.640625 
Q 12.796875 0.140625 7.71875 1.703125 
L 7.71875 11.625 
Q 12.109375 9.234375 16.796875 8.0625 
Q 21.484375 6.890625 26.703125 6.890625 
Q 35.15625 6.890625 40.078125 11.328125 
Q 45.015625 15.765625 45.015625 23.390625 
Q 45.015625 31 40.078125 35.4375 
Q 35.15625 39.890625 26.703125 39.890625 
Q 22.75 39.890625 18.8125 39.015625 
Q 14.890625 38.140625 10.796875 36.28125 
z
" id="DejaVuSans-53"/>
      </defs>
      <g transform="translate(0.34375 215.917693)scale(0.2 -0.2)">
       <use xlink:href="#DejaVuSans-48"/>
       <use x="63.623047" xlink:href="#DejaVuSans-46"/>
       <use x="95.410156" xlink:href="#DejaVuSans-48"/>
       <use x="159.033203" xlink:href="#DejaVuSans-53"/>
      </g>
     </g>
    </g>
    <g id="ytick_3">
     <g id="line2d_7">
      <g>
       <use style="stroke:#000000;stroke-width:1.6;" x="59.575" xlink:href="#m3b8ac535ba" y="158.276844"/>
      </g>
     </g>
     <g id="text_8">
      <!-- 0.10 -->
      <defs>
       <path d="M 12.40625 8.296875 
L 28.515625 8.296875 
L 28.515625 63.921875 
L 10.984375 60.40625 
L 10.984375 69.390625 
L 28.421875 72.90625 
L 38.28125 72.90625 
L 38.28125 8.296875 
L 54.390625 8.296875 
L 54.390625 0 
L 12.40625 0 
z
" id="DejaVuSans-49"/>
      </defs>
      <g transform="translate(0.34375 165.875281)scale(0.2 -0.2)">
       <use xlink:href="#DejaVuSans-48"/>
       <use x="63.623047" xlink:href="#DejaVuSans-46"/>
       <use x="95.410156" xlink:href="#DejaVuSans-49"/>
       <use x="159.033203" xlink:href="#DejaVuSans-48"/>
      </g>
     </g>
    </g>
    <g id="ytick_4">
     <g id="line2d_8">
      <g>
       <use style="stroke:#000000;stroke-width:1.6;" x="59.575" xlink:href="#m3b8ac535ba" y="108.234433"/>
      </g>
     </g>
     <g id="text_9">
      <!-- 0.15 -->
      <g transform="translate(0.34375 115.83287)scale(0.2 -0.2)">
       <use xlink:href="#DejaVuSans-48"/>
       <use x="63.623047" xlink:href="#DejaVuSans-46"/>
       <use x="95.410156" xlink:href="#DejaVuSans-49"/>
       <use x="159.033203" xlink:href="#DejaVuSans-53"/>
      </g>
     </g>
    </g>
    <g id="ytick_5">
     <g id="line2d_9">
      <g>
       <use style="stroke:#000000;stroke-width:1.6;" x="59.575" xlink:href="#m3b8ac535ba" y="58.192021"/>
      </g>
     </g>
     <g id="text_10">
      <!-- 0.20 -->
      <g transform="translate(0.34375 65.790459)scale(0.2 -0.2)">
       <use xlink:href="#DejaVuSans-48"/>
       <use x="63.623047" xlink:href="#DejaVuSans-46"/>
       <use x="95.410156" xlink:href="#DejaVuSans-50"/>
       <use x="159.033203" xlink:href="#DejaVuSans-48"/>
      </g>
     </g>
    </g>
    <g id="ytick_6">
     <g id="line2d_10">
      <g>
       <use style="stroke:#000000;stroke-width:1.6;" x="59.575" xlink:href="#m3b8ac535ba" y="8.14961"/>
      </g>
     </g>
     <g id="text_11">
      <!-- 0.25 -->
      <g transform="translate(0.34375 15.748047)scale(0.2 -0.2)">
       <use xlink:href="#DejaVuSans-48"/>
       <use x="63.623047" xlink:href="#DejaVuSans-46"/>
       <use x="95.410156" xlink:href="#DejaVuSans-50"/>
       <use x="159.033203" xlink:href="#DejaVuSans-53"/>
      </g>
     </g>
    </g>
   </g>
   <g id="patch_83">
    <path d="M 59.575 258.361667 
L 59.575 3.5 
" style="fill:none;stroke:#000000;stroke-linecap:square;stroke-linejoin:miter;stroke-width:0.8;"/>
   </g>
   <g id="patch_84">
    <path d="M 59.575 258.361667 
L 314.436667 258.361667 
" style="fill:none;stroke:#000000;stroke-linecap:square;stroke-linejoin:miter;stroke-width:0.8;"/>
   </g>
  </g>
  <g id="axes_2">
   <g id="patch_85">
    <path d="M 425.796667 258.361667 
L 680.658333 258.361667 
L 680.658333 3.5 
L 425.796667 3.5 
z
" style="fill:#ffffff;"/>
   </g>
   <g id="PolyCollection_1">
    <defs>
     <path d="M 614.026278 -296.185285 
L 614.026278 -296.708798 
L 614.64416 -296.738105 
L 615.262042 -296.765089 
L 615.879924 -296.789527 
L 616.497807 -296.811789 
L 617.115689 -296.832928 
L 617.733571 -296.854699 
L 618.351453 -296.879519 
L 618.969335 -296.910349 
L 619.587217 -296.950516 
L 620.2051 -297.003477 
L 620.822982 -297.072564 
L 621.440864 -297.160726 
L 622.058746 -297.270336 
L 622.676628 -297.403085 
L 623.294511 -297.560025 
L 623.912393 -297.741759 
L 624.530275 -297.948776 
L 625.148157 -298.181868 
L 625.766039 -298.442543 
L 626.383922 -298.733309 
L 627.001804 -299.057738 
L 627.619686 -299.420221 
L 628.237568 -299.825398 
L 628.85545 -300.277307 
L 629.473332 -300.778398 
L 630.091215 -301.328559 
L 630.709097 -301.924382 
L 631.326979 -302.558828 
L 631.944861 -303.221409 
L 632.562743 -303.898908 
L 633.180626 -304.576528 
L 633.798508 -305.239287 
L 634.41639 -305.873394 
L 635.034272 -306.467336 
L 635.652154 -307.012479 
L 636.270037 -307.503075 
L 636.887919 -307.93571 
L 637.505801 -308.308376 
L 638.123683 -308.61942 
L 638.741565 -308.866666 
L 639.359447 -309.046951 
L 639.97733 -309.156214 
L 640.595212 -309.190125 
L 641.213094 -309.14511 
L 641.830976 -309.01953 
L 642.448858 -308.814714 
L 643.066741 -308.535612 
L 643.684623 -308.190888 
L 644.302505 -307.792407 
L 644.920387 -307.354212 
L 645.538269 -306.891149 
L 646.156152 -306.417394 
L 646.774034 -305.945127 
L 647.391916 -305.483552 
L 648.009798 -305.038416 
L 648.62768 -304.612068 
L 649.245562 -304.204007 
L 649.863445 -303.811787 
L 650.481327 -303.432102 
L 651.099209 -303.061825 
L 651.717091 -302.698837 
L 652.334973 -302.3425 
L 652.952856 -301.993748 
L 653.570738 -301.654812 
L 654.18862 -301.328726 
L 654.806502 -301.018725 
L 655.424384 -300.727726 
L 656.042267 -300.457985 
L 656.660149 -300.210991 
L 657.278031 -299.987598 
L 657.895913 -299.788307 
L 658.513795 -299.613619 
L 659.131677 -299.464326 
L 659.74956 -299.341674 
L 660.367442 -299.247346 
L 660.985324 -299.183253 
L 661.603206 -299.1512 
L 662.221088 -299.152471 
L 662.838971 -299.187427 
L 663.456853 -299.25517 
L 664.074735 -299.353332 
L 664.692617 -299.477991 
L 665.310499 -299.623711 
L 665.928382 -299.783685 
L 666.546264 -299.949937 
L 667.164146 -300.113579 
L 667.782028 -300.265107 
L 668.39991 -300.394739 
L 669.017792 -300.492835 
L 669.635675 -300.55039 
L 670.253557 -300.559626 
L 670.871439 -300.514633 
L 671.489321 -300.412008 
L 672.107203 -300.251393 
L 672.725086 -300.035805 
L 673.342968 -299.771666 
L 673.96085 -299.468473 
L 674.578732 -299.138102 
L 675.196614 -298.793834 
L 675.196614 -294.100249 
L 675.196614 -294.100249 
L 674.578732 -293.755981 
L 673.96085 -293.425611 
L 673.342968 -293.122417 
L 672.725086 -292.858278 
L 672.107203 -292.64269 
L 671.489321 -292.482075 
L 670.871439 -292.379451 
L 670.253557 -292.334458 
L 669.635675 -292.343694 
L 669.017792 -292.401249 
L 668.39991 -292.499344 
L 667.782028 -292.628977 
L 667.164146 -292.780504 
L 666.546264 -292.944147 
L 665.928382 -293.110399 
L 665.310499 -293.270372 
L 664.692617 -293.416093 
L 664.074735 -293.540752 
L 663.456853 -293.638914 
L 662.838971 -293.706656 
L 662.221088 -293.741612 
L 661.603206 -293.742883 
L 660.985324 -293.71083 
L 660.367442 -293.646737 
L 659.74956 -293.552409 
L 659.131677 -293.429758 
L 658.513795 -293.280464 
L 657.895913 -293.105776 
L 657.278031 -292.906486 
L 656.660149 -292.683092 
L 656.042267 -292.436098 
L 655.424384 -292.166357 
L 654.806502 -291.875359 
L 654.18862 -291.565358 
L 653.570738 -291.239271 
L 652.952856 -290.900336 
L 652.334973 -290.551583 
L 651.717091 -290.195246 
L 651.099209 -289.832258 
L 650.481327 -289.461981 
L 649.863445 -289.082296 
L 649.245562 -288.690077 
L 648.62768 -288.282015 
L 648.009798 -287.855667 
L 647.391916 -287.410531 
L 646.774034 -286.948956 
L 646.156152 -286.476689 
L 645.538269 -286.002935 
L 644.920387 -285.539871 
L 644.302505 -285.101676 
L 643.684623 -284.703195 
L 643.066741 -284.358471 
L 642.448858 -284.07937 
L 641.830976 -283.874554 
L 641.213094 -283.748973 
L 640.595212 -283.703958 
L 639.97733 -283.737869 
L 639.359447 -283.847132 
L 638.741565 -284.027417 
L 638.123683 -284.274663 
L 637.505801 -284.585708 
L 636.887919 -284.958374 
L 636.270037 -285.391008 
L 635.652154 -285.881604 
L 635.034272 -286.426748 
L 634.41639 -287.020689 
L 633.798508 -287.654796 
L 633.180626 -288.317556 
L 632.562743 -288.995176 
L 631.944861 -289.672675 
L 631.326979 -290.335256 
L 630.709097 -290.969701 
L 630.091215 -291.565524 
L 629.473332 -292.115685 
L 628.85545 -292.616776 
L 628.237568 -293.068686 
L 627.619686 -293.473862 
L 627.001804 -293.836346 
L 626.383922 -294.160775 
L 625.766039 -294.45154 
L 625.148157 -294.712215 
L 624.530275 -294.945308 
L 623.912393 -295.152324 
L 623.294511 -295.334058 
L 622.676628 -295.490998 
L 622.058746 -295.623747 
L 621.440864 -295.733357 
L 620.822982 -295.821519 
L 620.2051 -295.890606 
L 619.587217 -295.943567 
L 618.969335 -295.983734 
L 618.351453 -296.014565 
L 617.733571 -296.039385 
L 617.115689 -296.061156 
L 616.497807 -296.082294 
L 615.879924 -296.104556 
L 615.262042 -296.128994 
L 614.64416 -296.155978 
L 614.026278 -296.185285 
z
" id="mdd756ead43" style="stroke:#333333;"/>
    </defs>
    <g clip-path="url(#p90e3e609c5)">
     <use style="fill:#484566;stroke:#333333;" x="0" xlink:href="#mdd756ead43" y="319.061667"/>
    </g>
   </g>
   <g id="PolyCollection_2">
    <defs>
     <path d="M 583.742897 -270.76826 
L 583.742897 -271.15349 
L 584.453953 -271.153837 
L 585.165009 -271.150353 
L 585.876066 -271.143869 
L 586.587122 -271.135567 
L 587.298178 -271.12685 
L 588.009235 -271.119209 
L 588.720291 -271.114077 
L 589.431348 -271.112709 
L 590.142404 -271.116104 
L 590.85346 -271.124991 
L 591.564517 -271.13987 
L 592.275573 -271.161112 
L 592.986629 -271.189104 
L 593.697686 -271.22441 
L 594.408742 -271.267914 
L 595.119799 -271.320925 
L 595.830855 -271.385208 
L 596.541911 -271.462919 
L 597.252968 -271.556453 
L 597.964024 -271.66821 
L 598.67508 -271.800315 
L 599.386137 -271.954322 
L 600.097193 -272.130966 
L 600.808249 -272.329981 
L 601.519306 -272.550029 
L 602.230362 -272.788734 
L 602.941419 -273.042821 
L 603.652475 -273.308336 
L 604.363531 -273.580901 
L 605.074588 -273.855995 
L 605.785644 -274.129218 
L 606.4967 -274.396539 
L 607.207757 -274.65452 
L 607.918813 -274.900533 
L 608.62987 -275.132968 
L 609.340926 -275.351441 
L 610.051982 -275.55697 
L 610.763039 -275.7521 
L 611.474095 -275.940925 
L 612.185151 -276.128952 
L 612.896208 -276.32278 
L 613.607264 -276.529582 
L 614.318321 -276.756416 
L 615.029377 -277.009437 
L 615.740433 -277.293104 
L 616.45149 -277.609505 
L 617.162546 -277.957904 
L 617.873602 -278.334579 
L 618.584659 -278.733002 
L 619.295715 -279.144317 
L 620.006771 -279.558078 
L 620.717828 -279.963128 
L 621.428884 -280.348524 
L 622.139941 -280.704396 
L 622.850997 -281.022648 
L 623.562053 -281.297435 
L 624.27311 -281.525362 
L 624.984166 -281.705398 
L 625.695222 -281.838517 
L 626.406279 -281.927102 
L 627.117335 -281.974195 
L 627.828392 -281.982695 
L 628.539448 -281.954616 
L 629.250504 -281.890534 
L 629.961561 -281.789314 
L 630.672617 -281.648181 
L 631.383673 -281.463143 
L 632.09473 -281.22973 
L 632.805786 -280.943935 
L 633.516842 -280.60323 
L 634.227899 -280.207509 
L 634.938955 -279.759784 
L 635.650012 -279.266528 
L 636.361068 -278.737583 
L 637.072124 -278.185609 
L 637.783181 -277.625153 
L 638.494237 -277.071435 
L 639.205293 -276.539029 
L 639.91635 -276.040623 
L 640.627406 -275.586009 
L 641.338463 -275.181454 
L 642.049519 -274.829489 
L 642.760575 -274.529123 
L 643.471632 -274.276401 
L 644.182688 -274.065179 
L 644.893744 -273.888005 
L 645.604801 -273.736947 
L 646.315857 -273.604291 
L 647.026914 -273.48306 
L 647.73797 -273.367319 
L 648.449026 -273.25232 
L 649.160083 -273.134512 
L 649.871139 -273.011481 
L 650.582195 -272.881859 
L 651.293252 -272.745233 
L 652.004308 -272.602055 
L 652.715364 -272.453556 
L 653.426421 -272.301644 
L 654.137477 -272.148764 
L 654.137477 -269.772986 
L 654.137477 -269.772986 
L 653.426421 -269.620106 
L 652.715364 -269.468194 
L 652.004308 -269.319695 
L 651.293252 -269.176517 
L 650.582195 -269.039891 
L 649.871139 -268.910269 
L 649.160083 -268.787238 
L 648.449026 -268.66943 
L 647.73797 -268.554431 
L 647.026914 -268.43869 
L 646.315857 -268.317459 
L 645.604801 -268.184803 
L 644.893744 -268.033745 
L 644.182688 -267.856571 
L 643.471632 -267.645349 
L 642.760575 -267.392627 
L 642.049519 -267.092261 
L 641.338463 -266.740296 
L 640.627406 -266.335741 
L 639.91635 -265.881127 
L 639.205293 -265.382721 
L 638.494237 -264.850315 
L 637.783181 -264.296597 
L 637.072124 -263.736141 
L 636.361068 -263.184167 
L 635.650012 -262.655222 
L 634.938955 -262.161966 
L 634.227899 -261.714241 
L 633.516842 -261.31852 
L 632.805786 -260.977815 
L 632.09473 -260.69202 
L 631.383673 -260.458607 
L 630.672617 -260.273569 
L 629.961561 -260.132436 
L 629.250504 -260.031216 
L 628.539448 -259.967134 
L 627.828392 -259.939055 
L 627.117335 -259.947555 
L 626.406279 -259.994648 
L 625.695222 -260.083233 
L 624.984166 -260.216352 
L 624.27311 -260.396388 
L 623.562053 -260.624315 
L 622.850997 -260.899102 
L 622.139941 -261.217354 
L 621.428884 -261.573226 
L 620.717828 -261.958622 
L 620.006771 -262.363672 
L 619.295715 -262.777433 
L 618.584659 -263.188748 
L 617.873602 -263.587171 
L 617.162546 -263.963846 
L 616.45149 -264.312245 
L 615.740433 -264.628646 
L 615.029377 -264.912313 
L 614.318321 -265.165334 
L 613.607264 -265.392168 
L 612.896208 -265.59897 
L 612.185151 -265.792798 
L 611.474095 -265.980825 
L 610.763039 -266.16965 
L 610.051982 -266.36478 
L 609.340926 -266.570309 
L 608.62987 -266.788782 
L 607.918813 -267.021217 
L 607.207757 -267.26723 
L 606.4967 -267.525211 
L 605.785644 -267.792532 
L 605.074588 -268.065755 
L 604.363531 -268.340849 
L 603.652475 -268.613414 
L 602.941419 -268.878929 
L 602.230362 -269.133016 
L 601.519306 -269.371721 
L 600.808249 -269.591769 
L 600.097193 -269.790784 
L 599.386137 -269.967428 
L 598.67508 -270.121435 
L 597.964024 -270.25354 
L 597.252968 -270.365297 
L 596.541911 -270.458831 
L 595.830855 -270.536542 
L 595.119799 -270.600825 
L 594.408742 -270.653836 
L 593.697686 -270.69734 
L 592.986629 -270.732646 
L 592.275573 -270.760638 
L 591.564517 -270.78188 
L 590.85346 -270.796759 
L 590.142404 -270.805646 
L 589.431348 -270.809041 
L 588.720291 -270.807673 
L 588.009235 -270.802541 
L 587.298178 -270.7949 
L 586.587122 -270.786183 
L 585.876066 -270.777881 
L 585.165009 -270.771397 
L 584.453953 -270.767913 
L 583.742897 -270.76826 
z
" id="mc69c81f4e8" style="stroke:#333333;"/>
    </defs>
    <g clip-path="url(#p90e3e609c5)">
     <use style="fill:#b75e1a;stroke:#333333;" x="0" xlink:href="#mc69c81f4e8" y="319.061667"/>
    </g>
   </g>
   <g id="patch_86">
    <path clip-path="url(#p90e3e609c5)" d="M 442.787444 35.357708 
L 442.787444 35.357708 
L 442.787444 35.357708 
L 442.787444 35.357708 
z
" style="fill:#484566;stroke:#333333;stroke-linejoin:miter;stroke-width:0.5;"/>
   </g>
   <g id="patch_87">
    <path clip-path="url(#p90e3e609c5)" d="M 442.787444 35.357708 
L 442.787444 35.357708 
L 442.787444 35.357708 
L 442.787444 35.357708 
z
" style="fill:#b75e1a;stroke:#333333;stroke-linejoin:miter;stroke-width:0.5;"/>
   </g>
   <g id="matplotlib.axis_3">
    <g id="xtick_5">
     <g id="line2d_11">
      <g>
       <use style="stroke:#000000;stroke-width:1.6;" x="442.787444" xlink:href="#m374ddd333d" y="258.361667"/>
      </g>
     </g>
     <g id="text_12">
      <!-- 0.0 -->
      <g transform="translate(426.884319 288.258542)scale(0.2 -0.2)">
       <use xlink:href="#DejaVuSans-48"/>
       <use x="63.623047" xlink:href="#DejaVuSans-46"/>
       <use x="95.410156" xlink:href="#DejaVuSans-48"/>
      </g>
     </g>
    </g>
    <g id="xtick_6">
     <g id="line2d_12">
      <g>
       <use style="stroke:#000000;stroke-width:1.6;" x="510.750556" xlink:href="#m374ddd333d" y="258.361667"/>
      </g>
     </g>
     <g id="text_13">
      <!-- 0.2 -->
      <g transform="translate(494.847431 288.258542)scale(0.2 -0.2)">
       <use xlink:href="#DejaVuSans-48"/>
       <use x="63.623047" xlink:href="#DejaVuSans-46"/>
       <use x="95.410156" xlink:href="#DejaVuSans-50"/>
      </g>
     </g>
    </g>
    <g id="xtick_7">
     <g id="line2d_13">
      <g>
       <use style="stroke:#000000;stroke-width:1.6;" x="578.713667" xlink:href="#m374ddd333d" y="258.361667"/>
      </g>
     </g>
     <g id="text_14">
      <!-- 0.4 -->
      <g transform="translate(562.810542 288.258542)scale(0.2 -0.2)">
       <use xlink:href="#DejaVuSans-48"/>
       <use x="63.623047" xlink:href="#DejaVuSans-46"/>
       <use x="95.410156" xlink:href="#DejaVuSans-52"/>
      </g>
     </g>
    </g>
    <g id="xtick_8">
     <g id="line2d_14">
      <g>
       <use style="stroke:#000000;stroke-width:1.6;" x="646.676778" xlink:href="#m374ddd333d" y="258.361667"/>
      </g>
     </g>
     <g id="text_15">
      <!-- 0.6 -->
      <g transform="translate(630.773653 288.258542)scale(0.2 -0.2)">
       <use xlink:href="#DejaVuSans-48"/>
       <use x="63.623047" xlink:href="#DejaVuSans-46"/>
       <use x="95.410156" xlink:href="#DejaVuSans-54"/>
      </g>
     </g>
    </g>
    <g id="text_16">
     <!-- Max JS Divergence within $\epsilon$ -->
     <g transform="translate(417.6275 311.617917)scale(0.2 -0.2)">
      <use transform="translate(0 0.015625)" xlink:href="#DejaVuSans-77"/>
      <use transform="translate(86.279297 0.015625)" xlink:href="#DejaVuSans-97"/>
      <use transform="translate(147.558594 0.015625)" xlink:href="#DejaVuSans-120"/>
      <use transform="translate(206.738281 0.015625)" xlink:href="#DejaVuSans-32"/>
      <use transform="translate(238.525391 0.015625)" xlink:href="#DejaVuSans-74"/>
      <use transform="translate(268.017578 0.015625)" xlink:href="#DejaVuSans-83"/>
      <use transform="translate(331.494141 0.015625)" xlink:href="#DejaVuSans-32"/>
      <use transform="translate(363.28125 0.015625)" xlink:href="#DejaVuSans-68"/>
      <use transform="translate(440.283203 0.015625)" xlink:href="#DejaVuSans-105"/>
      <use transform="translate(468.066406 0.015625)" xlink:href="#DejaVuSans-118"/>
      <use transform="translate(527.246094 0.015625)" xlink:href="#DejaVuSans-101"/>
      <use transform="translate(588.769531 0.015625)" xlink:href="#DejaVuSans-114"/>
      <use transform="translate(629.882812 0.015625)" xlink:href="#DejaVuSans-103"/>
      <use transform="translate(693.359375 0.015625)" xlink:href="#DejaVuSans-101"/>
      <use transform="translate(754.882812 0.015625)" xlink:href="#DejaVuSans-110"/>
      <use transform="translate(818.261719 0.015625)" xlink:href="#DejaVuSans-99"/>
      <use transform="translate(873.242188 0.015625)" xlink:href="#DejaVuSans-101"/>
      <use transform="translate(934.765625 0.015625)" xlink:href="#DejaVuSans-32"/>
      <use transform="translate(966.552734 0.015625)" xlink:href="#DejaVuSans-119"/>
      <use transform="translate(1048.339844 0.015625)" xlink:href="#DejaVuSans-105"/>
      <use transform="translate(1076.123047 0.015625)" xlink:href="#DejaVuSans-116"/>
      <use transform="translate(1115.332031 0.015625)" xlink:href="#DejaVuSans-104"/>
      <use transform="translate(1178.710938 0.015625)" xlink:href="#DejaVuSans-105"/>
      <use transform="translate(1206.494141 0.015625)" xlink:href="#DejaVuSans-110"/>
      <use transform="translate(1269.873047 0.015625)" xlink:href="#DejaVuSans-32"/>
      <use transform="translate(1301.660156 0.015625)" xlink:href="#DejaVuSans-Oblique-949"/>
     </g>
    </g>
   </g>
   <g id="matplotlib.axis_4">
    <g id="ytick_7">
     <g id="line2d_15">
      <g>
       <use style="stroke:#000000;stroke-width:1.6;" x="425.796667" xlink:href="#m3b8ac535ba" y="35.357708"/>
      </g>
     </g>
     <g id="text_17">
      <!-- [0.00, -->
      <defs>
       <path d="M 8.59375 75.984375 
L 29.296875 75.984375 
L 29.296875 69 
L 17.578125 69 
L 17.578125 -6.203125 
L 29.296875 -6.203125 
L 29.296875 -13.1875 
L 8.59375 -13.1875 
z
" id="DejaVuSans-91"/>
       <path d="M 11.71875 12.40625 
L 22.015625 12.40625 
L 22.015625 4 
L 14.015625 -11.625 
L 7.71875 -11.625 
L 11.71875 4 
z
" id="DejaVuSans-44"/>
      </defs>
      <g transform="translate(352.406042 31.758333)scale(0.2 -0.2)">
       <use xlink:href="#DejaVuSans-91"/>
       <use x="39.013672" xlink:href="#DejaVuSans-48"/>
       <use x="102.636719" xlink:href="#DejaVuSans-46"/>
       <use x="134.423828" xlink:href="#DejaVuSans-48"/>
       <use x="198.046875" xlink:href="#DejaVuSans-48"/>
       <use x="261.669922" xlink:href="#DejaVuSans-44"/>
      </g>
      <!-- 0.25) -->
      <defs>
       <path d="M 8.015625 75.875 
L 15.828125 75.875 
Q 23.140625 64.359375 26.78125 53.3125 
Q 30.421875 42.28125 30.421875 31.390625 
Q 30.421875 20.453125 26.78125 9.375 
Q 23.140625 -1.703125 15.828125 -13.1875 
L 8.015625 -13.1875 
Q 14.5 -2 17.703125 9.0625 
Q 20.90625 20.125 20.90625 31.390625 
Q 20.90625 42.671875 17.703125 53.65625 
Q 14.5 64.65625 8.015625 75.875 
z
" id="DejaVuSans-41"/>
      </defs>
      <g transform="translate(358.762292 54.153958)scale(0.2 -0.2)">
       <use xlink:href="#DejaVuSans-48"/>
       <use x="63.623047" xlink:href="#DejaVuSans-46"/>
       <use x="95.410156" xlink:href="#DejaVuSans-50"/>
       <use x="159.033203" xlink:href="#DejaVuSans-53"/>
       <use x="222.65625" xlink:href="#DejaVuSans-41"/>
      </g>
     </g>
    </g>
    <g id="ytick_8">
     <g id="line2d_16">
      <g>
       <use style="stroke:#000000;stroke-width:1.6;" x="425.796667" xlink:href="#m3b8ac535ba" y="99.073125"/>
      </g>
     </g>
     <g id="text_18">
      <!-- [0.25, -->
      <g transform="translate(352.406042 95.47375)scale(0.2 -0.2)">
       <use xlink:href="#DejaVuSans-91"/>
       <use x="39.013672" xlink:href="#DejaVuSans-48"/>
       <use x="102.636719" xlink:href="#DejaVuSans-46"/>
       <use x="134.423828" xlink:href="#DejaVuSans-50"/>
       <use x="198.046875" xlink:href="#DejaVuSans-53"/>
       <use x="261.669922" xlink:href="#DejaVuSans-44"/>
      </g>
      <!-- 0.50) -->
      <g transform="translate(358.762292 117.869375)scale(0.2 -0.2)">
       <use xlink:href="#DejaVuSans-48"/>
       <use x="63.623047" xlink:href="#DejaVuSans-46"/>
       <use x="95.410156" xlink:href="#DejaVuSans-53"/>
       <use x="159.033203" xlink:href="#DejaVuSans-48"/>
       <use x="222.65625" xlink:href="#DejaVuSans-41"/>
      </g>
     </g>
    </g>
    <g id="ytick_9">
     <g id="line2d_17">
      <g>
       <use style="stroke:#000000;stroke-width:1.6;" x="425.796667" xlink:href="#m3b8ac535ba" y="162.788542"/>
      </g>
     </g>
     <g id="text_19">
      <!-- [0.50, -->
      <g transform="translate(352.406042 159.189167)scale(0.2 -0.2)">
       <use xlink:href="#DejaVuSans-91"/>
       <use x="39.013672" xlink:href="#DejaVuSans-48"/>
       <use x="102.636719" xlink:href="#DejaVuSans-46"/>
       <use x="134.423828" xlink:href="#DejaVuSans-53"/>
       <use x="198.046875" xlink:href="#DejaVuSans-48"/>
       <use x="261.669922" xlink:href="#DejaVuSans-44"/>
      </g>
      <!-- 0.75) -->
      <defs>
       <path d="M 8.203125 72.90625 
L 55.078125 72.90625 
L 55.078125 68.703125 
L 28.609375 0 
L 18.3125 0 
L 43.21875 64.59375 
L 8.203125 64.59375 
z
" id="DejaVuSans-55"/>
      </defs>
      <g transform="translate(358.762292 181.584792)scale(0.2 -0.2)">
       <use xlink:href="#DejaVuSans-48"/>
       <use x="63.623047" xlink:href="#DejaVuSans-46"/>
       <use x="95.410156" xlink:href="#DejaVuSans-55"/>
       <use x="159.033203" xlink:href="#DejaVuSans-53"/>
       <use x="222.65625" xlink:href="#DejaVuSans-41"/>
      </g>
     </g>
    </g>
    <g id="ytick_10">
     <g id="line2d_18">
      <g>
       <use style="stroke:#000000;stroke-width:1.6;" x="425.796667" xlink:href="#m3b8ac535ba" y="226.503958"/>
      </g>
     </g>
     <g id="text_20">
      <!-- [0.75, -->
      <g transform="translate(352.406042 222.904583)scale(0.2 -0.2)">
       <use xlink:href="#DejaVuSans-91"/>
       <use x="39.013672" xlink:href="#DejaVuSans-48"/>
       <use x="102.636719" xlink:href="#DejaVuSans-46"/>
       <use x="134.423828" xlink:href="#DejaVuSans-55"/>
       <use x="198.046875" xlink:href="#DejaVuSans-53"/>
       <use x="261.669922" xlink:href="#DejaVuSans-44"/>
      </g>
      <!-- 1.00) -->
      <g transform="translate(358.762292 245.300208)scale(0.2 -0.2)">
       <use xlink:href="#DejaVuSans-49"/>
       <use x="63.623047" xlink:href="#DejaVuSans-46"/>
       <use x="95.410156" xlink:href="#DejaVuSans-48"/>
       <use x="159.033203" xlink:href="#DejaVuSans-48"/>
       <use x="222.65625" xlink:href="#DejaVuSans-41"/>
      </g>
     </g>
    </g>
    <g id="text_21">
     <!-- Max Attention -->
     <defs>
      <path d="M 34.1875 63.1875 
L 20.796875 26.90625 
L 47.609375 26.90625 
z
M 28.609375 72.90625 
L 39.796875 72.90625 
L 67.578125 0 
L 57.328125 0 
L 50.6875 18.703125 
L 17.828125 18.703125 
L 11.1875 0 
L 0.78125 0 
z
" id="DejaVuSans-65"/>
      <path d="M 30.609375 48.390625 
Q 23.390625 48.390625 19.1875 42.75 
Q 14.984375 37.109375 14.984375 27.296875 
Q 14.984375 17.484375 19.15625 11.84375 
Q 23.34375 6.203125 30.609375 6.203125 
Q 37.796875 6.203125 41.984375 11.859375 
Q 46.1875 17.53125 46.1875 27.296875 
Q 46.1875 37.015625 41.984375 42.703125 
Q 37.796875 48.390625 30.609375 48.390625 
z
M 30.609375 56 
Q 42.328125 56 49.015625 48.375 
Q 55.71875 40.765625 55.71875 27.296875 
Q 55.71875 13.875 49.015625 6.21875 
Q 42.328125 -1.421875 30.609375 -1.421875 
Q 18.84375 -1.421875 12.171875 6.21875 
Q 5.515625 13.875 5.515625 27.296875 
Q 5.515625 40.765625 12.171875 48.375 
Q 18.84375 56 30.609375 56 
z
" id="DejaVuSans-111"/>
     </defs>
     <g transform="translate(344.246667 201.108958)rotate(-90)scale(0.2 -0.2)">
      <use xlink:href="#DejaVuSans-77"/>
      <use x="86.279297" xlink:href="#DejaVuSans-97"/>
      <use x="147.558594" xlink:href="#DejaVuSans-120"/>
      <use x="206.738281" xlink:href="#DejaVuSans-32"/>
      <use x="238.525391" xlink:href="#DejaVuSans-65"/>
      <use x="306.917969" xlink:href="#DejaVuSans-116"/>
      <use x="346.126953" xlink:href="#DejaVuSans-116"/>
      <use x="385.335938" xlink:href="#DejaVuSans-101"/>
      <use x="446.859375" xlink:href="#DejaVuSans-110"/>
      <use x="510.238281" xlink:href="#DejaVuSans-116"/>
      <use x="549.447266" xlink:href="#DejaVuSans-105"/>
      <use x="577.230469" xlink:href="#DejaVuSans-111"/>
      <use x="638.412109" xlink:href="#DejaVuSans-110"/>
     </g>
    </g>
   </g>
   <g id="line2d_19">
    <path clip-path="url(#p90e3e609c5)" style="fill:none;stroke:#333333;stroke-dasharray:1.5,1.5;stroke-dashoffset:0;"/>
   </g>
   <g id="line2d_20">
    <path clip-path="url(#p90e3e609c5)" style="fill:none;stroke:#333333;stroke-dasharray:3,3;stroke-dashoffset:0;"/>
   </g>
   <g id="line2d_21">
    <path clip-path="url(#p90e3e609c5)" style="fill:none;stroke:#333333;stroke-dasharray:1.5,1.5;stroke-dashoffset:0;"/>
   </g>
   <g id="line2d_22">
    <path clip-path="url(#p90e3e609c5)" style="fill:none;stroke:#333333;stroke-dasharray:1.5,1.5;stroke-dashoffset:0;"/>
   </g>
   <g id="line2d_23">
    <path clip-path="url(#p90e3e609c5)" style="fill:none;stroke:#333333;stroke-dasharray:3,3;stroke-dashoffset:0;"/>
   </g>
   <g id="line2d_24">
    <path clip-path="url(#p90e3e609c5)" style="fill:none;stroke:#333333;stroke-dasharray:1.5,1.5;stroke-dashoffset:0;"/>
   </g>
   <g id="patch_88">
    <path style="fill:none;stroke:#000000;stroke-linecap:square;stroke-linejoin:miter;stroke-width:0.8;"/>
   </g>
   <g id="patch_89">
    <path style="fill:none;stroke:#000000;stroke-linecap:square;stroke-linejoin:miter;stroke-width:0.8;"/>
   </g>
  </g>
 </g>
 <defs>
  <clipPath id="p0b069bca84">
   <rect height="254.861667" width="254.861667" x="59.575" y="3.5"/>
  </clipPath>
  <clipPath id="p90e3e609c5">
   <rect height="254.861667" width="254.861667" x="425.796667" y="3.5"/>
  </clipPath>
 </defs>
</svg>
