<?xml version="1.0" encoding="utf-8" standalone="no"?>
<!DOCTYPE svg PUBLIC "-//W3C//DTD SVG 1.1//EN"
  "http://www.w3.org/Graphics/SVG/1.1/DTD/svg11.dtd">
<!-- Created with matplotlib (https://matplotlib.org/) -->
<svg height="319.061667pt" version="1.1" viewBox="0 0 323.226536 319.061667" width="323.226536pt" xmlns="http://www.w3.org/2000/svg" xmlns:xlink="http://www.w3.org/1999/xlink">
 <defs>
  <style type="text/css">
*{stroke-linecap:butt;stroke-linejoin:round;}
  </style>
 </defs>
 <g id="figure_1">
  <g id="patch_1">
   <path d="M 0 319.061667 
L 323.226536 319.061667 
L 323.226536 0 
L 0 0 
z
" style="fill:#ffffff;"/>
  </g>
  <g id="axes_1">
   <g id="patch_2">
    <path d="M 59.575 258.361667 
L 314.436667 258.361667 
L 314.436667 3.5 
L 59.575 3.5 
z
" style="fill:#ffffff;"/>
   </g>
   <g id="patch_3">
    <path clip-path="url(#p83d573c08d)" d="M 71.159621 258.361667 
L 76.951932 258.361667 
L 76.951932 258.361667 
L 71.159621 258.361667 
z
" style="fill:#7570b3;opacity:0.6;stroke:#000000;stroke-linejoin:miter;stroke-width:0.5;"/>
   </g>
   <g id="patch_4">
    <path clip-path="url(#p83d573c08d)" d="M 76.951932 258.361667 
L 82.744242 258.361667 
L 82.744242 258.361667 
L 76.951932 258.361667 
z
" style="fill:#7570b3;opacity:0.6;stroke:#000000;stroke-linejoin:miter;stroke-width:0.5;"/>
   </g>
   <g id="patch_5">
    <path clip-path="url(#p83d573c08d)" d="M 82.744242 258.361667 
L 88.536553 258.361667 
L 88.536553 258.361667 
L 82.744242 258.361667 
z
" style="fill:#7570b3;opacity:0.6;stroke:#000000;stroke-linejoin:miter;stroke-width:0.5;"/>
   </g>
   <g id="patch_6">
    <path clip-path="url(#p83d573c08d)" d="M 88.536553 258.361667 
L 94.328864 258.361667 
L 94.328864 258.361667 
L 88.536553 258.361667 
z
" style="fill:#7570b3;opacity:0.6;stroke:#000000;stroke-linejoin:miter;stroke-width:0.5;"/>
   </g>
   <g id="patch_7">
    <path clip-path="url(#p83d573c08d)" d="M 94.328864 258.361667 
L 100.121174 258.361667 
L 100.121174 258.361667 
L 94.328864 258.361667 
z
" style="fill:#7570b3;opacity:0.6;stroke:#000000;stroke-linejoin:miter;stroke-width:0.5;"/>
   </g>
   <g id="patch_8">
    <path clip-path="url(#p83d573c08d)" d="M 100.121174 258.361667 
L 105.913485 258.361667 
L 105.913485 258.361667 
L 100.121174 258.361667 
z
" style="fill:#7570b3;opacity:0.6;stroke:#000000;stroke-linejoin:miter;stroke-width:0.5;"/>
   </g>
   <g id="patch_9">
    <path clip-path="url(#p83d573c08d)" d="M 105.913485 258.361667 
L 111.705795 258.361667 
L 111.705795 258.361667 
L 105.913485 258.361667 
z
" style="fill:#7570b3;opacity:0.6;stroke:#000000;stroke-linejoin:miter;stroke-width:0.5;"/>
   </g>
   <g id="patch_10">
    <path clip-path="url(#p83d573c08d)" d="M 111.705795 258.361667 
L 117.498106 258.361667 
L 117.498106 258.361667 
L 111.705795 258.361667 
z
" style="fill:#7570b3;opacity:0.6;stroke:#000000;stroke-linejoin:miter;stroke-width:0.5;"/>
   </g>
   <g id="patch_11">
    <path clip-path="url(#p83d573c08d)" d="M 117.498106 258.361667 
L 123.290417 258.361667 
L 123.290417 258.361667 
L 117.498106 258.361667 
z
" style="fill:#7570b3;opacity:0.6;stroke:#000000;stroke-linejoin:miter;stroke-width:0.5;"/>
   </g>
   <g id="patch_12">
    <path clip-path="url(#p83d573c08d)" d="M 123.290417 258.361667 
L 129.082727 258.361667 
L 129.082727 258.361667 
L 123.290417 258.361667 
z
" style="fill:#7570b3;opacity:0.6;stroke:#000000;stroke-linejoin:miter;stroke-width:0.5;"/>
   </g>
   <g id="patch_13">
    <path clip-path="url(#p83d573c08d)" d="M 129.082727 258.361667 
L 134.875038 258.361667 
L 134.875038 258.361667 
L 129.082727 258.361667 
z
" style="fill:#7570b3;opacity:0.6;stroke:#000000;stroke-linejoin:miter;stroke-width:0.5;"/>
   </g>
   <g id="patch_14">
    <path clip-path="url(#p83d573c08d)" d="M 134.875038 258.361667 
L 140.667348 258.361667 
L 140.667348 258.361667 
L 134.875038 258.361667 
z
" style="fill:#7570b3;opacity:0.6;stroke:#000000;stroke-linejoin:miter;stroke-width:0.5;"/>
   </g>
   <g id="patch_15">
    <path clip-path="url(#p83d573c08d)" d="M 140.667348 258.361667 
L 146.459659 258.361667 
L 146.459659 258.361667 
L 140.667348 258.361667 
z
" style="fill:#7570b3;opacity:0.6;stroke:#000000;stroke-linejoin:miter;stroke-width:0.5;"/>
   </g>
   <g id="patch_16">
    <path clip-path="url(#p83d573c08d)" d="M 146.459659 258.361667 
L 152.25197 258.361667 
L 152.25197 258.361667 
L 146.459659 258.361667 
z
" style="fill:#7570b3;opacity:0.6;stroke:#000000;stroke-linejoin:miter;stroke-width:0.5;"/>
   </g>
   <g id="patch_17">
    <path clip-path="url(#p83d573c08d)" d="M 152.25197 258.361667 
L 158.04428 258.361667 
L 158.04428 258.361667 
L 152.25197 258.361667 
z
" style="fill:#7570b3;opacity:0.6;stroke:#000000;stroke-linejoin:miter;stroke-width:0.5;"/>
   </g>
   <g id="patch_18">
    <path clip-path="url(#p83d573c08d)" d="M 158.04428 258.361667 
L 163.836591 258.361667 
L 163.836591 258.361667 
L 158.04428 258.361667 
z
" style="fill:#7570b3;opacity:0.6;stroke:#000000;stroke-linejoin:miter;stroke-width:0.5;"/>
   </g>
   <g id="patch_19">
    <path clip-path="url(#p83d573c08d)" d="M 163.836591 258.361667 
L 169.628902 258.361667 
L 169.628902 258.361667 
L 163.836591 258.361667 
z
" style="fill:#7570b3;opacity:0.6;stroke:#000000;stroke-linejoin:miter;stroke-width:0.5;"/>
   </g>
   <g id="patch_20">
    <path clip-path="url(#p83d573c08d)" d="M 169.628902 258.361667 
L 175.421212 258.361667 
L 175.421212 258.361667 
L 169.628902 258.361667 
z
" style="fill:#7570b3;opacity:0.6;stroke:#000000;stroke-linejoin:miter;stroke-width:0.5;"/>
   </g>
   <g id="patch_21">
    <path clip-path="url(#p83d573c08d)" d="M 175.421212 258.361667 
L 181.213523 258.361667 
L 181.213523 258.361667 
L 175.421212 258.361667 
z
" style="fill:#7570b3;opacity:0.6;stroke:#000000;stroke-linejoin:miter;stroke-width:0.5;"/>
   </g>
   <g id="patch_22">
    <path clip-path="url(#p83d573c08d)" d="M 181.213523 258.361667 
L 187.005833 258.361667 
L 187.005833 258.361667 
L 181.213523 258.361667 
z
" style="fill:#7570b3;opacity:0.6;stroke:#000000;stroke-linejoin:miter;stroke-width:0.5;"/>
   </g>
   <g id="patch_23">
    <path clip-path="url(#p83d573c08d)" d="M 187.005833 258.361667 
L 192.798144 258.361667 
L 192.798144 258.361667 
L 187.005833 258.361667 
z
" style="fill:#7570b3;opacity:0.6;stroke:#000000;stroke-linejoin:miter;stroke-width:0.5;"/>
   </g>
   <g id="patch_24">
    <path clip-path="url(#p83d573c08d)" d="M 192.798144 258.361667 
L 198.590455 258.361667 
L 198.590455 258.361667 
L 192.798144 258.361667 
z
" style="fill:#7570b3;opacity:0.6;stroke:#000000;stroke-linejoin:miter;stroke-width:0.5;"/>
   </g>
   <g id="patch_25">
    <path clip-path="url(#p83d573c08d)" d="M 198.590455 258.361667 
L 204.382765 258.361667 
L 204.382765 258.361667 
L 198.590455 258.361667 
z
" style="fill:#7570b3;opacity:0.6;stroke:#000000;stroke-linejoin:miter;stroke-width:0.5;"/>
   </g>
   <g id="patch_26">
    <path clip-path="url(#p83d573c08d)" d="M 204.382765 258.361667 
L 210.175076 258.361667 
L 210.175076 258.361667 
L 204.382765 258.361667 
z
" style="fill:#7570b3;opacity:0.6;stroke:#000000;stroke-linejoin:miter;stroke-width:0.5;"/>
   </g>
   <g id="patch_27">
    <path clip-path="url(#p83d573c08d)" d="M 210.175076 258.361667 
L 215.967386 258.361667 
L 215.967386 258.077099 
L 210.175076 258.077099 
z
" style="fill:#7570b3;opacity:0.6;stroke:#000000;stroke-linejoin:miter;stroke-width:0.5;"/>
   </g>
   <g id="patch_28">
    <path clip-path="url(#p83d573c08d)" d="M 215.967386 258.361667 
L 221.759697 258.361667 
L 221.759697 257.792532 
L 215.967386 257.792532 
z
" style="fill:#7570b3;opacity:0.6;stroke:#000000;stroke-linejoin:miter;stroke-width:0.5;"/>
   </g>
   <g id="patch_29">
    <path clip-path="url(#p83d573c08d)" d="M 221.759697 258.361667 
L 227.552008 258.361667 
L 227.552008 255.515993 
L 221.759697 255.515993 
z
" style="fill:#7570b3;opacity:0.6;stroke:#000000;stroke-linejoin:miter;stroke-width:0.5;"/>
   </g>
   <g id="patch_30">
    <path clip-path="url(#p83d573c08d)" d="M 227.552008 258.361667 
L 233.344318 258.361667 
L 233.344318 250.109214 
L 227.552008 250.109214 
z
" style="fill:#7570b3;opacity:0.6;stroke:#000000;stroke-linejoin:miter;stroke-width:0.5;"/>
   </g>
   <g id="patch_31">
    <path clip-path="url(#p83d573c08d)" d="M 233.344318 258.361667 
L 239.136629 258.361667 
L 239.136629 241.003059 
L 233.344318 241.003059 
z
" style="fill:#7570b3;opacity:0.6;stroke:#000000;stroke-linejoin:miter;stroke-width:0.5;"/>
   </g>
   <g id="patch_32">
    <path clip-path="url(#p83d573c08d)" d="M 239.136629 258.361667 
L 244.928939 258.361667 
L 244.928939 204.863008 
L 239.136629 204.863008 
z
" style="fill:#7570b3;opacity:0.6;stroke:#000000;stroke-linejoin:miter;stroke-width:0.5;"/>
   </g>
   <g id="patch_33">
    <path clip-path="url(#p83d573c08d)" d="M 244.928939 258.361667 
L 250.72125 258.361667 
L 250.72125 134.290309 
L 244.928939 134.290309 
z
" style="fill:#7570b3;opacity:0.6;stroke:#000000;stroke-linejoin:miter;stroke-width:0.5;"/>
   </g>
   <g id="patch_34">
    <path clip-path="url(#p83d573c08d)" d="M 250.72125 258.361667 
L 256.513561 258.361667 
L 256.513561 67.132418 
L 250.72125 67.132418 
z
" style="fill:#7570b3;opacity:0.6;stroke:#000000;stroke-linejoin:miter;stroke-width:0.5;"/>
   </g>
   <g id="patch_35">
    <path clip-path="url(#p83d573c08d)" d="M 256.513561 258.361667 
L 262.305871 258.361667 
L 262.305871 75.669438 
L 256.513561 75.669438 
z
" style="fill:#7570b3;opacity:0.6;stroke:#000000;stroke-linejoin:miter;stroke-width:0.5;"/>
   </g>
   <g id="patch_36">
    <path clip-path="url(#p83d573c08d)" d="M 262.305871 258.361667 
L 268.098182 258.361667 
L 268.098182 136.566847 
L 262.305871 136.566847 
z
" style="fill:#7570b3;opacity:0.6;stroke:#000000;stroke-linejoin:miter;stroke-width:0.5;"/>
   </g>
   <g id="patch_37">
    <path clip-path="url(#p83d573c08d)" d="M 268.098182 258.361667 
L 273.890492 258.361667 
L 273.890492 182.666756 
L 268.098182 182.666756 
z
" style="fill:#7570b3;opacity:0.6;stroke:#000000;stroke-linejoin:miter;stroke-width:0.5;"/>
   </g>
   <g id="patch_38">
    <path clip-path="url(#p83d573c08d)" d="M 273.890492 258.361667 
L 279.682803 258.361667 
L 279.682803 202.301902 
L 273.890492 202.301902 
z
" style="fill:#7570b3;opacity:0.6;stroke:#000000;stroke-linejoin:miter;stroke-width:0.5;"/>
   </g>
   <g id="patch_39">
    <path clip-path="url(#p83d573c08d)" d="M 279.682803 258.361667 
L 285.475114 258.361667 
L 285.475114 211.977191 
L 279.682803 211.977191 
z
" style="fill:#7570b3;opacity:0.6;stroke:#000000;stroke-linejoin:miter;stroke-width:0.5;"/>
   </g>
   <g id="patch_40">
    <path clip-path="url(#p83d573c08d)" d="M 285.475114 258.361667 
L 291.267424 258.361667 
L 291.267424 176.690842 
L 285.475114 176.690842 
z
" style="fill:#7570b3;opacity:0.6;stroke:#000000;stroke-linejoin:miter;stroke-width:0.5;"/>
   </g>
   <g id="patch_41">
    <path clip-path="url(#p83d573c08d)" d="M 291.267424 258.361667 
L 297.059735 258.361667 
L 297.059735 131.444635 
L 291.267424 131.444635 
z
" style="fill:#7570b3;opacity:0.6;stroke:#000000;stroke-linejoin:miter;stroke-width:0.5;"/>
   </g>
   <g id="patch_42">
    <path clip-path="url(#p83d573c08d)" d="M 297.059735 258.361667 
L 302.852045 258.361667 
L 302.852045 232.181472 
L 297.059735 232.181472 
z
" style="fill:#7570b3;opacity:0.6;stroke:#000000;stroke-linejoin:miter;stroke-width:0.5;"/>
   </g>
   <g id="patch_43">
    <path clip-path="url(#p83d573c08d)" d="M 71.159621 258.361667 
L 76.951932 258.361667 
L 76.951932 258.361667 
L 71.159621 258.361667 
z
" style="fill:#d95f02;opacity:0.6;stroke:#000000;stroke-linejoin:miter;stroke-width:0.5;"/>
   </g>
   <g id="patch_44">
    <path clip-path="url(#p83d573c08d)" d="M 76.951932 258.361667 
L 82.744242 258.361667 
L 82.744242 258.361667 
L 76.951932 258.361667 
z
" style="fill:#d95f02;opacity:0.6;stroke:#000000;stroke-linejoin:miter;stroke-width:0.5;"/>
   </g>
   <g id="patch_45">
    <path clip-path="url(#p83d573c08d)" d="M 82.744242 258.361667 
L 88.536553 258.361667 
L 88.536553 258.361667 
L 82.744242 258.361667 
z
" style="fill:#d95f02;opacity:0.6;stroke:#000000;stroke-linejoin:miter;stroke-width:0.5;"/>
   </g>
   <g id="patch_46">
    <path clip-path="url(#p83d573c08d)" d="M 88.536553 258.361667 
L 94.328864 258.361667 
L 94.328864 258.361667 
L 88.536553 258.361667 
z
" style="fill:#d95f02;opacity:0.6;stroke:#000000;stroke-linejoin:miter;stroke-width:0.5;"/>
   </g>
   <g id="patch_47">
    <path clip-path="url(#p83d573c08d)" d="M 94.328864 258.361667 
L 100.121174 258.361667 
L 100.121174 258.361667 
L 94.328864 258.361667 
z
" style="fill:#d95f02;opacity:0.6;stroke:#000000;stroke-linejoin:miter;stroke-width:0.5;"/>
   </g>
   <g id="patch_48">
    <path clip-path="url(#p83d573c08d)" d="M 100.121174 258.361667 
L 105.913485 258.361667 
L 105.913485 258.361667 
L 100.121174 258.361667 
z
" style="fill:#d95f02;opacity:0.6;stroke:#000000;stroke-linejoin:miter;stroke-width:0.5;"/>
   </g>
   <g id="patch_49">
    <path clip-path="url(#p83d573c08d)" d="M 105.913485 258.361667 
L 111.705795 258.361667 
L 111.705795 258.361667 
L 105.913485 258.361667 
z
" style="fill:#d95f02;opacity:0.6;stroke:#000000;stroke-linejoin:miter;stroke-width:0.5;"/>
   </g>
   <g id="patch_50">
    <path clip-path="url(#p83d573c08d)" d="M 111.705795 258.361667 
L 117.498106 258.361667 
L 117.498106 258.361667 
L 111.705795 258.361667 
z
" style="fill:#d95f02;opacity:0.6;stroke:#000000;stroke-linejoin:miter;stroke-width:0.5;"/>
   </g>
   <g id="patch_51">
    <path clip-path="url(#p83d573c08d)" d="M 117.498106 258.361667 
L 123.290417 258.361667 
L 123.290417 258.361667 
L 117.498106 258.361667 
z
" style="fill:#d95f02;opacity:0.6;stroke:#000000;stroke-linejoin:miter;stroke-width:0.5;"/>
   </g>
   <g id="patch_52">
    <path clip-path="url(#p83d573c08d)" d="M 123.290417 258.361667 
L 129.082727 258.361667 
L 129.082727 258.361667 
L 123.290417 258.361667 
z
" style="fill:#d95f02;opacity:0.6;stroke:#000000;stroke-linejoin:miter;stroke-width:0.5;"/>
   </g>
   <g id="patch_53">
    <path clip-path="url(#p83d573c08d)" d="M 129.082727 258.361667 
L 134.875038 258.361667 
L 134.875038 258.361667 
L 129.082727 258.361667 
z
" style="fill:#d95f02;opacity:0.6;stroke:#000000;stroke-linejoin:miter;stroke-width:0.5;"/>
   </g>
   <g id="patch_54">
    <path clip-path="url(#p83d573c08d)" d="M 134.875038 258.361667 
L 140.667348 258.361667 
L 140.667348 258.361667 
L 134.875038 258.361667 
z
" style="fill:#d95f02;opacity:0.6;stroke:#000000;stroke-linejoin:miter;stroke-width:0.5;"/>
   </g>
   <g id="patch_55">
    <path clip-path="url(#p83d573c08d)" d="M 140.667348 258.361667 
L 146.459659 258.361667 
L 146.459659 258.361667 
L 140.667348 258.361667 
z
" style="fill:#d95f02;opacity:0.6;stroke:#000000;stroke-linejoin:miter;stroke-width:0.5;"/>
   </g>
   <g id="patch_56">
    <path clip-path="url(#p83d573c08d)" d="M 146.459659 258.361667 
L 152.25197 258.361667 
L 152.25197 258.361667 
L 146.459659 258.361667 
z
" style="fill:#d95f02;opacity:0.6;stroke:#000000;stroke-linejoin:miter;stroke-width:0.5;"/>
   </g>
   <g id="patch_57">
    <path clip-path="url(#p83d573c08d)" d="M 152.25197 258.361667 
L 158.04428 258.361667 
L 158.04428 258.361667 
L 152.25197 258.361667 
z
" style="fill:#d95f02;opacity:0.6;stroke:#000000;stroke-linejoin:miter;stroke-width:0.5;"/>
   </g>
   <g id="patch_58">
    <path clip-path="url(#p83d573c08d)" d="M 158.04428 258.361667 
L 163.836591 258.361667 
L 163.836591 258.361667 
L 158.04428 258.361667 
z
" style="fill:#d95f02;opacity:0.6;stroke:#000000;stroke-linejoin:miter;stroke-width:0.5;"/>
   </g>
   <g id="patch_59">
    <path clip-path="url(#p83d573c08d)" d="M 163.836591 258.361667 
L 169.628902 258.361667 
L 169.628902 258.361667 
L 163.836591 258.361667 
z
" style="fill:#d95f02;opacity:0.6;stroke:#000000;stroke-linejoin:miter;stroke-width:0.5;"/>
   </g>
   <g id="patch_60">
    <path clip-path="url(#p83d573c08d)" d="M 169.628902 258.361667 
L 175.421212 258.361667 
L 175.421212 258.361667 
L 169.628902 258.361667 
z
" style="fill:#d95f02;opacity:0.6;stroke:#000000;stroke-linejoin:miter;stroke-width:0.5;"/>
   </g>
   <g id="patch_61">
    <path clip-path="url(#p83d573c08d)" d="M 175.421212 258.361667 
L 181.213523 258.361667 
L 181.213523 258.361667 
L 175.421212 258.361667 
z
" style="fill:#d95f02;opacity:0.6;stroke:#000000;stroke-linejoin:miter;stroke-width:0.5;"/>
   </g>
   <g id="patch_62">
    <path clip-path="url(#p83d573c08d)" d="M 181.213523 258.361667 
L 187.005833 258.361667 
L 187.005833 258.361667 
L 181.213523 258.361667 
z
" style="fill:#d95f02;opacity:0.6;stroke:#000000;stroke-linejoin:miter;stroke-width:0.5;"/>
   </g>
   <g id="patch_63">
    <path clip-path="url(#p83d573c08d)" d="M 187.005833 258.361667 
L 192.798144 258.361667 
L 192.798144 258.361667 
L 187.005833 258.361667 
z
" style="fill:#d95f02;opacity:0.6;stroke:#000000;stroke-linejoin:miter;stroke-width:0.5;"/>
   </g>
   <g id="patch_64">
    <path clip-path="url(#p83d573c08d)" d="M 192.798144 258.361667 
L 198.590455 258.361667 
L 198.590455 258.361667 
L 192.798144 258.361667 
z
" style="fill:#d95f02;opacity:0.6;stroke:#000000;stroke-linejoin:miter;stroke-width:0.5;"/>
   </g>
   <g id="patch_65">
    <path clip-path="url(#p83d573c08d)" d="M 198.590455 258.361667 
L 204.382765 258.361667 
L 204.382765 258.361667 
L 198.590455 258.361667 
z
" style="fill:#d95f02;opacity:0.6;stroke:#000000;stroke-linejoin:miter;stroke-width:0.5;"/>
   </g>
   <g id="patch_66">
    <path clip-path="url(#p83d573c08d)" d="M 204.382765 258.361667 
L 210.175076 258.361667 
L 210.175076 258.361667 
L 204.382765 258.361667 
z
" style="fill:#d95f02;opacity:0.6;stroke:#000000;stroke-linejoin:miter;stroke-width:0.5;"/>
   </g>
   <g id="patch_67">
    <path clip-path="url(#p83d573c08d)" d="M 210.175076 258.361667 
L 215.967386 258.361667 
L 215.967386 258.361667 
L 210.175076 258.361667 
z
" style="fill:#d95f02;opacity:0.6;stroke:#000000;stroke-linejoin:miter;stroke-width:0.5;"/>
   </g>
   <g id="patch_68">
    <path clip-path="url(#p83d573c08d)" d="M 215.967386 258.361667 
L 221.759697 258.361667 
L 221.759697 258.361667 
L 215.967386 258.361667 
z
" style="fill:#d95f02;opacity:0.6;stroke:#000000;stroke-linejoin:miter;stroke-width:0.5;"/>
   </g>
   <g id="patch_69">
    <path clip-path="url(#p83d573c08d)" d="M 221.759697 258.361667 
L 227.552008 258.361667 
L 227.552008 257.328793 
L 221.759697 257.328793 
z
" style="fill:#d95f02;opacity:0.6;stroke:#000000;stroke-linejoin:miter;stroke-width:0.5;"/>
   </g>
   <g id="patch_70">
    <path clip-path="url(#p83d573c08d)" d="M 227.552008 258.361667 
L 233.344318 258.361667 
L 233.344318 247.000052 
L 227.552008 247.000052 
z
" style="fill:#d95f02;opacity:0.6;stroke:#000000;stroke-linejoin:miter;stroke-width:0.5;"/>
   </g>
   <g id="patch_71">
    <path clip-path="url(#p83d573c08d)" d="M 233.344318 258.361667 
L 239.136629 258.361667 
L 239.136629 223.24395 
L 233.344318 223.24395 
z
" style="fill:#d95f02;opacity:0.6;stroke:#000000;stroke-linejoin:miter;stroke-width:0.5;"/>
   </g>
   <g id="patch_72">
    <path clip-path="url(#p83d573c08d)" d="M 239.136629 258.361667 
L 244.928939 258.361667 
L 244.928939 172.633122 
L 239.136629 172.633122 
z
" style="fill:#d95f02;opacity:0.6;stroke:#000000;stroke-linejoin:miter;stroke-width:0.5;"/>
   </g>
   <g id="patch_73">
    <path clip-path="url(#p83d573c08d)" d="M 244.928939 258.361667 
L 250.72125 258.361667 
L 250.72125 59.016979 
L 244.928939 59.016979 
z
" style="fill:#d95f02;opacity:0.6;stroke:#000000;stroke-linejoin:miter;stroke-width:0.5;"/>
   </g>
   <g id="patch_74">
    <path clip-path="url(#p83d573c08d)" d="M 250.72125 258.361667 
L 256.513561 258.361667 
L 256.513561 15.63627 
L 250.72125 15.63627 
z
" style="fill:#d95f02;opacity:0.6;stroke:#000000;stroke-linejoin:miter;stroke-width:0.5;"/>
   </g>
   <g id="patch_75">
    <path clip-path="url(#p83d573c08d)" d="M 256.513561 258.361667 
L 262.305871 258.361667 
L 262.305871 29.063632 
L 256.513561 29.063632 
z
" style="fill:#d95f02;opacity:0.6;stroke:#000000;stroke-linejoin:miter;stroke-width:0.5;"/>
   </g>
   <g id="patch_76">
    <path clip-path="url(#p83d573c08d)" d="M 262.305871 258.361667 
L 268.098182 258.361667 
L 268.098182 106.529184 
L 262.305871 106.529184 
z
" style="fill:#d95f02;opacity:0.6;stroke:#000000;stroke-linejoin:miter;stroke-width:0.5;"/>
   </g>
   <g id="patch_77">
    <path clip-path="url(#p83d573c08d)" d="M 268.098182 258.361667 
L 273.890492 258.361667 
L 273.890492 186.060485 
L 268.098182 186.060485 
z
" style="fill:#d95f02;opacity:0.6;stroke:#000000;stroke-linejoin:miter;stroke-width:0.5;"/>
   </g>
   <g id="patch_78">
    <path clip-path="url(#p83d573c08d)" d="M 273.890492 258.361667 
L 279.682803 258.361667 
L 279.682803 213.948083 
L 273.890492 213.948083 
z
" style="fill:#d95f02;opacity:0.6;stroke:#000000;stroke-linejoin:miter;stroke-width:0.5;"/>
   </g>
   <g id="patch_79">
    <path clip-path="url(#p83d573c08d)" d="M 279.682803 258.361667 
L 285.475114 258.361667 
L 285.475114 239.769934 
L 279.682803 239.769934 
z
" style="fill:#d95f02;opacity:0.6;stroke:#000000;stroke-linejoin:miter;stroke-width:0.5;"/>
   </g>
   <g id="patch_80">
    <path clip-path="url(#p83d573c08d)" d="M 285.475114 258.361667 
L 291.267424 258.361667 
L 291.267424 245.967178 
L 285.475114 245.967178 
z
" style="fill:#d95f02;opacity:0.6;stroke:#000000;stroke-linejoin:miter;stroke-width:0.5;"/>
   </g>
   <g id="patch_81">
    <path clip-path="url(#p83d573c08d)" d="M 291.267424 258.361667 
L 297.059735 258.361667 
L 297.059735 252.164422 
L 291.267424 252.164422 
z
" style="fill:#d95f02;opacity:0.6;stroke:#000000;stroke-linejoin:miter;stroke-width:0.5;"/>
   </g>
   <g id="patch_82">
    <path clip-path="url(#p83d573c08d)" d="M 297.059735 258.361667 
L 302.852045 258.361667 
L 302.852045 253.197297 
L 297.059735 253.197297 
z
" style="fill:#d95f02;opacity:0.6;stroke:#000000;stroke-linejoin:miter;stroke-width:0.5;"/>
   </g>
   <g id="matplotlib.axis_1">
    <g id="xtick_1">
     <g id="line2d_1">
      <defs>
       <path d="M 0 0 
L 0 3.5 
" id="m61fe171852" style="stroke:#000000;stroke-width:1.6;"/>
      </defs>
      <g>
       <use style="stroke:#000000;stroke-width:1.6;" x="71.159621" xlink:href="#m61fe171852" y="258.361667"/>
      </g>
     </g>
     <g id="text_1">
      <!-- 0.0 -->
      <defs>
       <path d="M 31.78125 66.40625 
Q 24.171875 66.40625 20.328125 58.90625 
Q 16.5 51.421875 16.5 36.375 
Q 16.5 21.390625 20.328125 13.890625 
Q 24.171875 6.390625 31.78125 6.390625 
Q 39.453125 6.390625 43.28125 13.890625 
Q 47.125 21.390625 47.125 36.375 
Q 47.125 51.421875 43.28125 58.90625 
Q 39.453125 66.40625 31.78125 66.40625 
z
M 31.78125 74.21875 
Q 44.046875 74.21875 50.515625 64.515625 
Q 56.984375 54.828125 56.984375 36.375 
Q 56.984375 17.96875 50.515625 8.265625 
Q 44.046875 -1.421875 31.78125 -1.421875 
Q 19.53125 -1.421875 13.0625 8.265625 
Q 6.59375 17.96875 6.59375 36.375 
Q 6.59375 54.828125 13.0625 64.515625 
Q 19.53125 74.21875 31.78125 74.21875 
z
" id="DejaVuSans-48"/>
       <path d="M 10.6875 12.40625 
L 21 12.40625 
L 21 0 
L 10.6875 0 
z
" id="DejaVuSans-46"/>
      </defs>
      <g transform="translate(55.256496 288.258542)scale(0.2 -0.2)">
       <use xlink:href="#DejaVuSans-48"/>
       <use x="63.623047" xlink:href="#DejaVuSans-46"/>
       <use x="95.410156" xlink:href="#DejaVuSans-48"/>
      </g>
     </g>
    </g>
    <g id="xtick_2">
     <g id="line2d_2">
      <g>
       <use style="stroke:#000000;stroke-width:1.6;" x="137.357457" xlink:href="#m61fe171852" y="258.361667"/>
      </g>
     </g>
     <g id="text_2">
      <!-- 0.2 -->
      <defs>
       <path d="M 19.1875 8.296875 
L 53.609375 8.296875 
L 53.609375 0 
L 7.328125 0 
L 7.328125 8.296875 
Q 12.9375 14.109375 22.625 23.890625 
Q 32.328125 33.6875 34.8125 36.53125 
Q 39.546875 41.84375 41.421875 45.53125 
Q 43.3125 49.21875 43.3125 52.78125 
Q 43.3125 58.59375 39.234375 62.25 
Q 35.15625 65.921875 28.609375 65.921875 
Q 23.96875 65.921875 18.8125 64.3125 
Q 13.671875 62.703125 7.8125 59.421875 
L 7.8125 69.390625 
Q 13.765625 71.78125 18.9375 73 
Q 24.125 74.21875 28.421875 74.21875 
Q 39.75 74.21875 46.484375 68.546875 
Q 53.21875 62.890625 53.21875 53.421875 
Q 53.21875 48.921875 51.53125 44.890625 
Q 49.859375 40.875 45.40625 35.40625 
Q 44.1875 33.984375 37.640625 27.21875 
Q 31.109375 20.453125 19.1875 8.296875 
z
" id="DejaVuSans-50"/>
      </defs>
      <g transform="translate(121.454332 288.258542)scale(0.2 -0.2)">
       <use xlink:href="#DejaVuSans-48"/>
       <use x="63.623047" xlink:href="#DejaVuSans-46"/>
       <use x="95.410156" xlink:href="#DejaVuSans-50"/>
      </g>
     </g>
    </g>
    <g id="xtick_3">
     <g id="line2d_3">
      <g>
       <use style="stroke:#000000;stroke-width:1.6;" x="203.555292" xlink:href="#m61fe171852" y="258.361667"/>
      </g>
     </g>
     <g id="text_3">
      <!-- 0.4 -->
      <defs>
       <path d="M 37.796875 64.3125 
L 12.890625 25.390625 
L 37.796875 25.390625 
z
M 35.203125 72.90625 
L 47.609375 72.90625 
L 47.609375 25.390625 
L 58.015625 25.390625 
L 58.015625 17.1875 
L 47.609375 17.1875 
L 47.609375 0 
L 37.796875 0 
L 37.796875 17.1875 
L 4.890625 17.1875 
L 4.890625 26.703125 
z
" id="DejaVuSans-52"/>
      </defs>
      <g transform="translate(187.652167 288.258542)scale(0.2 -0.2)">
       <use xlink:href="#DejaVuSans-48"/>
       <use x="63.623047" xlink:href="#DejaVuSans-46"/>
       <use x="95.410156" xlink:href="#DejaVuSans-52"/>
      </g>
     </g>
    </g>
    <g id="xtick_4">
     <g id="line2d_4">
      <g>
       <use style="stroke:#000000;stroke-width:1.6;" x="269.753128" xlink:href="#m61fe171852" y="258.361667"/>
      </g>
     </g>
     <g id="text_4">
      <!-- 0.6 -->
      <defs>
       <path d="M 33.015625 40.375 
Q 26.375 40.375 22.484375 35.828125 
Q 18.609375 31.296875 18.609375 23.390625 
Q 18.609375 15.53125 22.484375 10.953125 
Q 26.375 6.390625 33.015625 6.390625 
Q 39.65625 6.390625 43.53125 10.953125 
Q 47.40625 15.53125 47.40625 23.390625 
Q 47.40625 31.296875 43.53125 35.828125 
Q 39.65625 40.375 33.015625 40.375 
z
M 52.59375 71.296875 
L 52.59375 62.3125 
Q 48.875 64.0625 45.09375 64.984375 
Q 41.3125 65.921875 37.59375 65.921875 
Q 27.828125 65.921875 22.671875 59.328125 
Q 17.53125 52.734375 16.796875 39.40625 
Q 19.671875 43.65625 24.015625 45.921875 
Q 28.375 48.1875 33.59375 48.1875 
Q 44.578125 48.1875 50.953125 41.515625 
Q 57.328125 34.859375 57.328125 23.390625 
Q 57.328125 12.15625 50.6875 5.359375 
Q 44.046875 -1.421875 33.015625 -1.421875 
Q 20.359375 -1.421875 13.671875 8.265625 
Q 6.984375 17.96875 6.984375 36.375 
Q 6.984375 53.65625 15.1875 63.9375 
Q 23.390625 74.21875 37.203125 74.21875 
Q 40.921875 74.21875 44.703125 73.484375 
Q 48.484375 72.75 52.59375 71.296875 
z
" id="DejaVuSans-54"/>
      </defs>
      <g transform="translate(253.850003 288.258542)scale(0.2 -0.2)">
       <use xlink:href="#DejaVuSans-48"/>
       <use x="63.623047" xlink:href="#DejaVuSans-46"/>
       <use x="95.410156" xlink:href="#DejaVuSans-54"/>
      </g>
     </g>
    </g>
    <g id="text_5">
     <!-- Max JS Divergence within $\epsilon$ -->
     <defs>
      <path d="M 9.8125 72.90625 
L 24.515625 72.90625 
L 43.109375 23.296875 
L 61.8125 72.90625 
L 76.515625 72.90625 
L 76.515625 0 
L 66.890625 0 
L 66.890625 64.015625 
L 48.09375 14.015625 
L 38.1875 14.015625 
L 19.390625 64.015625 
L 19.390625 0 
L 9.8125 0 
z
" id="DejaVuSans-77"/>
      <path d="M 34.28125 27.484375 
Q 23.390625 27.484375 19.1875 25 
Q 14.984375 22.515625 14.984375 16.5 
Q 14.984375 11.71875 18.140625 8.90625 
Q 21.296875 6.109375 26.703125 6.109375 
Q 34.1875 6.109375 38.703125 11.40625 
Q 43.21875 16.703125 43.21875 25.484375 
L 43.21875 27.484375 
z
M 52.203125 31.203125 
L 52.203125 0 
L 43.21875 0 
L 43.21875 8.296875 
Q 40.140625 3.328125 35.546875 0.953125 
Q 30.953125 -1.421875 24.3125 -1.421875 
Q 15.921875 -1.421875 10.953125 3.296875 
Q 6 8.015625 6 15.921875 
Q 6 25.140625 12.171875 29.828125 
Q 18.359375 34.515625 30.609375 34.515625 
L 43.21875 34.515625 
L 43.21875 35.40625 
Q 43.21875 41.609375 39.140625 45 
Q 35.0625 48.390625 27.6875 48.390625 
Q 23 48.390625 18.546875 47.265625 
Q 14.109375 46.140625 10.015625 43.890625 
L 10.015625 52.203125 
Q 14.9375 54.109375 19.578125 55.046875 
Q 24.21875 56 28.609375 56 
Q 40.484375 56 46.34375 49.84375 
Q 52.203125 43.703125 52.203125 31.203125 
z
" id="DejaVuSans-97"/>
      <path d="M 54.890625 54.6875 
L 35.109375 28.078125 
L 55.90625 0 
L 45.3125 0 
L 29.390625 21.484375 
L 13.484375 0 
L 2.875 0 
L 24.125 28.609375 
L 4.6875 54.6875 
L 15.28125 54.6875 
L 29.78125 35.203125 
L 44.28125 54.6875 
z
" id="DejaVuSans-120"/>
      <path id="DejaVuSans-32"/>
      <path d="M 9.8125 72.90625 
L 19.671875 72.90625 
L 19.671875 5.078125 
Q 19.671875 -8.109375 14.671875 -14.0625 
Q 9.671875 -20.015625 -1.421875 -20.015625 
L -5.171875 -20.015625 
L -5.171875 -11.71875 
L -2.09375 -11.71875 
Q 4.4375 -11.71875 7.125 -8.046875 
Q 9.8125 -4.390625 9.8125 5.078125 
z
" id="DejaVuSans-74"/>
      <path d="M 53.515625 70.515625 
L 53.515625 60.890625 
Q 47.90625 63.578125 42.921875 64.890625 
Q 37.9375 66.21875 33.296875 66.21875 
Q 25.25 66.21875 20.875 63.09375 
Q 16.5 59.96875 16.5 54.203125 
Q 16.5 49.359375 19.40625 46.890625 
Q 22.3125 44.4375 30.421875 42.921875 
L 36.375 41.703125 
Q 47.40625 39.59375 52.65625 34.296875 
Q 57.90625 29 57.90625 20.125 
Q 57.90625 9.515625 50.796875 4.046875 
Q 43.703125 -1.421875 29.984375 -1.421875 
Q 24.8125 -1.421875 18.96875 -0.25 
Q 13.140625 0.921875 6.890625 3.21875 
L 6.890625 13.375 
Q 12.890625 10.015625 18.65625 8.296875 
Q 24.421875 6.59375 29.984375 6.59375 
Q 38.421875 6.59375 43.015625 9.90625 
Q 47.609375 13.234375 47.609375 19.390625 
Q 47.609375 24.75 44.3125 27.78125 
Q 41.015625 30.8125 33.5 32.328125 
L 27.484375 33.5 
Q 16.453125 35.6875 11.515625 40.375 
Q 6.59375 45.0625 6.59375 53.421875 
Q 6.59375 63.09375 13.40625 68.65625 
Q 20.21875 74.21875 32.171875 74.21875 
Q 37.3125 74.21875 42.625 73.28125 
Q 47.953125 72.359375 53.515625 70.515625 
z
" id="DejaVuSans-83"/>
      <path d="M 19.671875 64.796875 
L 19.671875 8.109375 
L 31.59375 8.109375 
Q 46.6875 8.109375 53.6875 14.9375 
Q 60.6875 21.78125 60.6875 36.53125 
Q 60.6875 51.171875 53.6875 57.984375 
Q 46.6875 64.796875 31.59375 64.796875 
z
M 9.8125 72.90625 
L 30.078125 72.90625 
Q 51.265625 72.90625 61.171875 64.09375 
Q 71.09375 55.28125 71.09375 36.53125 
Q 71.09375 17.671875 61.125 8.828125 
Q 51.171875 0 30.078125 0 
L 9.8125 0 
z
" id="DejaVuSans-68"/>
      <path d="M 9.421875 54.6875 
L 18.40625 54.6875 
L 18.40625 0 
L 9.421875 0 
z
M 9.421875 75.984375 
L 18.40625 75.984375 
L 18.40625 64.59375 
L 9.421875 64.59375 
z
" id="DejaVuSans-105"/>
      <path d="M 2.984375 54.6875 
L 12.5 54.6875 
L 29.59375 8.796875 
L 46.6875 54.6875 
L 56.203125 54.6875 
L 35.6875 0 
L 23.484375 0 
z
" id="DejaVuSans-118"/>
      <path d="M 56.203125 29.59375 
L 56.203125 25.203125 
L 14.890625 25.203125 
Q 15.484375 15.921875 20.484375 11.0625 
Q 25.484375 6.203125 34.421875 6.203125 
Q 39.59375 6.203125 44.453125 7.46875 
Q 49.3125 8.734375 54.109375 11.28125 
L 54.109375 2.78125 
Q 49.265625 0.734375 44.1875 -0.34375 
Q 39.109375 -1.421875 33.890625 -1.421875 
Q 20.796875 -1.421875 13.15625 6.1875 
Q 5.515625 13.8125 5.515625 26.8125 
Q 5.515625 40.234375 12.765625 48.109375 
Q 20.015625 56 32.328125 56 
Q 43.359375 56 49.78125 48.890625 
Q 56.203125 41.796875 56.203125 29.59375 
z
M 47.21875 32.234375 
Q 47.125 39.59375 43.09375 43.984375 
Q 39.0625 48.390625 32.421875 48.390625 
Q 24.90625 48.390625 20.390625 44.140625 
Q 15.875 39.890625 15.1875 32.171875 
z
" id="DejaVuSans-101"/>
      <path d="M 41.109375 46.296875 
Q 39.59375 47.171875 37.8125 47.578125 
Q 36.03125 48 33.890625 48 
Q 26.265625 48 22.1875 43.046875 
Q 18.109375 38.09375 18.109375 28.8125 
L 18.109375 0 
L 9.078125 0 
L 9.078125 54.6875 
L 18.109375 54.6875 
L 18.109375 46.1875 
Q 20.953125 51.171875 25.484375 53.578125 
Q 30.03125 56 36.53125 56 
Q 37.453125 56 38.578125 55.875 
Q 39.703125 55.765625 41.0625 55.515625 
z
" id="DejaVuSans-114"/>
      <path d="M 45.40625 27.984375 
Q 45.40625 37.75 41.375 43.109375 
Q 37.359375 48.484375 30.078125 48.484375 
Q 22.859375 48.484375 18.828125 43.109375 
Q 14.796875 37.75 14.796875 27.984375 
Q 14.796875 18.265625 18.828125 12.890625 
Q 22.859375 7.515625 30.078125 7.515625 
Q 37.359375 7.515625 41.375 12.890625 
Q 45.40625 18.265625 45.40625 27.984375 
z
M 54.390625 6.78125 
Q 54.390625 -7.171875 48.1875 -13.984375 
Q 42 -20.796875 29.203125 -20.796875 
Q 24.46875 -20.796875 20.265625 -20.09375 
Q 16.0625 -19.390625 12.109375 -17.921875 
L 12.109375 -9.1875 
Q 16.0625 -11.328125 19.921875 -12.34375 
Q 23.78125 -13.375 27.78125 -13.375 
Q 36.625 -13.375 41.015625 -8.765625 
Q 45.40625 -4.15625 45.40625 5.171875 
L 45.40625 9.625 
Q 42.625 4.78125 38.28125 2.390625 
Q 33.9375 0 27.875 0 
Q 17.828125 0 11.671875 7.65625 
Q 5.515625 15.328125 5.515625 27.984375 
Q 5.515625 40.671875 11.671875 48.328125 
Q 17.828125 56 27.875 56 
Q 33.9375 56 38.28125 53.609375 
Q 42.625 51.21875 45.40625 46.390625 
L 45.40625 54.6875 
L 54.390625 54.6875 
z
" id="DejaVuSans-103"/>
      <path d="M 54.890625 33.015625 
L 54.890625 0 
L 45.90625 0 
L 45.90625 32.71875 
Q 45.90625 40.484375 42.875 44.328125 
Q 39.84375 48.1875 33.796875 48.1875 
Q 26.515625 48.1875 22.3125 43.546875 
Q 18.109375 38.921875 18.109375 30.90625 
L 18.109375 0 
L 9.078125 0 
L 9.078125 54.6875 
L 18.109375 54.6875 
L 18.109375 46.1875 
Q 21.34375 51.125 25.703125 53.5625 
Q 30.078125 56 35.796875 56 
Q 45.21875 56 50.046875 50.171875 
Q 54.890625 44.34375 54.890625 33.015625 
z
" id="DejaVuSans-110"/>
      <path d="M 48.78125 52.59375 
L 48.78125 44.1875 
Q 44.96875 46.296875 41.140625 47.34375 
Q 37.3125 48.390625 33.40625 48.390625 
Q 24.65625 48.390625 19.8125 42.84375 
Q 14.984375 37.3125 14.984375 27.296875 
Q 14.984375 17.28125 19.8125 11.734375 
Q 24.65625 6.203125 33.40625 6.203125 
Q 37.3125 6.203125 41.140625 7.25 
Q 44.96875 8.296875 48.78125 10.40625 
L 48.78125 2.09375 
Q 45.015625 0.34375 40.984375 -0.53125 
Q 36.96875 -1.421875 32.421875 -1.421875 
Q 20.0625 -1.421875 12.78125 6.34375 
Q 5.515625 14.109375 5.515625 27.296875 
Q 5.515625 40.671875 12.859375 48.328125 
Q 20.21875 56 33.015625 56 
Q 37.15625 56 41.109375 55.140625 
Q 45.0625 54.296875 48.78125 52.59375 
z
" id="DejaVuSans-99"/>
      <path d="M 4.203125 54.6875 
L 13.1875 54.6875 
L 24.421875 12.015625 
L 35.59375 54.6875 
L 46.1875 54.6875 
L 57.421875 12.015625 
L 68.609375 54.6875 
L 77.59375 54.6875 
L 63.28125 0 
L 52.6875 0 
L 40.921875 44.828125 
L 29.109375 0 
L 18.5 0 
z
" id="DejaVuSans-119"/>
      <path d="M 18.3125 70.21875 
L 18.3125 54.6875 
L 36.8125 54.6875 
L 36.8125 47.703125 
L 18.3125 47.703125 
L 18.3125 18.015625 
Q 18.3125 11.328125 20.140625 9.421875 
Q 21.96875 7.515625 27.59375 7.515625 
L 36.8125 7.515625 
L 36.8125 0 
L 27.59375 0 
Q 17.1875 0 13.234375 3.875 
Q 9.28125 7.765625 9.28125 18.015625 
L 9.28125 47.703125 
L 2.6875 47.703125 
L 2.6875 54.6875 
L 9.28125 54.6875 
L 9.28125 70.21875 
z
" id="DejaVuSans-116"/>
      <path d="M 54.890625 33.015625 
L 54.890625 0 
L 45.90625 0 
L 45.90625 32.71875 
Q 45.90625 40.484375 42.875 44.328125 
Q 39.84375 48.1875 33.796875 48.1875 
Q 26.515625 48.1875 22.3125 43.546875 
Q 18.109375 38.921875 18.109375 30.90625 
L 18.109375 0 
L 9.078125 0 
L 9.078125 75.984375 
L 18.109375 75.984375 
L 18.109375 46.1875 
Q 21.34375 51.125 25.703125 53.5625 
Q 30.078125 56 35.796875 56 
Q 45.21875 56 50.046875 50.171875 
Q 54.890625 44.34375 54.890625 33.015625 
z
" id="DejaVuSans-104"/>
      <path d="M 19.734375 29.5 
Q 14.453125 30.671875 12.15625 33.84375 
Q 10.453125 36.078125 10.453125 39.109375 
Q 10.453125 47.40625 18.359375 52.25 
Q 24.609375 56.0625 34.1875 56.0625 
Q 37.890625 56.0625 41.9375 55.46875 
Q 46 54.890625 50.53125 53.71875 
L 48.96875 45.5625 
Q 44.484375 46.96875 40.71875 47.609375 
Q 36.859375 48.25 33.40625 48.25 
Q 27.59375 48.25 23.78125 46 
Q 19.1875 43.3125 19.1875 39.40625 
Q 19.1875 36.8125 21.578125 35.015625 
Q 24.421875 32.859375 30.078125 32.859375 
L 37.640625 32.859375 
L 36.234375 25.4375 
L 29 25.4375 
Q 22.265625 25.4375 18.3125 22.953125 
Q 12.9375 19.578125 12.9375 14.3125 
Q 12.9375 10.984375 15.828125 8.796875 
Q 19.4375 6.0625 26.8125 6.0625 
Q 31.34375 6.0625 35.6875 6.9375 
Q 40.046875 7.859375 43.84375 9.671875 
L 42.1875 1.3125 
Q 37.546875 -0.046875 33.296875 -0.734375 
Q 29.046875 -1.421875 25.140625 -1.421875 
Q 13.53125 -1.421875 8.0625 3.03125 
Q 3.90625 6.453125 3.90625 12.203125 
Q 3.90625 19.96875 9.375 24.75 
Q 13.421875 28.328125 19.734375 29.5 
z
" id="DejaVuSans-Oblique-949"/>
     </defs>
     <g transform="translate(51.405833 311.617917)scale(0.2 -0.2)">
      <use transform="translate(0 0.015625)" xlink:href="#DejaVuSans-77"/>
      <use transform="translate(86.279297 0.015625)" xlink:href="#DejaVuSans-97"/>
      <use transform="translate(147.558594 0.015625)" xlink:href="#DejaVuSans-120"/>
      <use transform="translate(206.738281 0.015625)" xlink:href="#DejaVuSans-32"/>
      <use transform="translate(238.525391 0.015625)" xlink:href="#DejaVuSans-74"/>
      <use transform="translate(268.017578 0.015625)" xlink:href="#DejaVuSans-83"/>
      <use transform="translate(331.494141 0.015625)" xlink:href="#DejaVuSans-32"/>
      <use transform="translate(363.28125 0.015625)" xlink:href="#DejaVuSans-68"/>
      <use transform="translate(440.283203 0.015625)" xlink:href="#DejaVuSans-105"/>
      <use transform="translate(468.066406 0.015625)" xlink:href="#DejaVuSans-118"/>
      <use transform="translate(527.246094 0.015625)" xlink:href="#DejaVuSans-101"/>
      <use transform="translate(588.769531 0.015625)" xlink:href="#DejaVuSans-114"/>
      <use transform="translate(629.882812 0.015625)" xlink:href="#DejaVuSans-103"/>
      <use transform="translate(693.359375 0.015625)" xlink:href="#DejaVuSans-101"/>
      <use transform="translate(754.882812 0.015625)" xlink:href="#DejaVuSans-110"/>
      <use transform="translate(818.261719 0.015625)" xlink:href="#DejaVuSans-99"/>
      <use transform="translate(873.242188 0.015625)" xlink:href="#DejaVuSans-101"/>
      <use transform="translate(934.765625 0.015625)" xlink:href="#DejaVuSans-32"/>
      <use transform="translate(966.552734 0.015625)" xlink:href="#DejaVuSans-119"/>
      <use transform="translate(1048.339844 0.015625)" xlink:href="#DejaVuSans-105"/>
      <use transform="translate(1076.123047 0.015625)" xlink:href="#DejaVuSans-116"/>
      <use transform="translate(1115.332031 0.015625)" xlink:href="#DejaVuSans-104"/>
      <use transform="translate(1178.710938 0.015625)" xlink:href="#DejaVuSans-105"/>
      <use transform="translate(1206.494141 0.015625)" xlink:href="#DejaVuSans-110"/>
      <use transform="translate(1269.873047 0.015625)" xlink:href="#DejaVuSans-32"/>
      <use transform="translate(1301.660156 0.015625)" xlink:href="#DejaVuSans-Oblique-949"/>
     </g>
    </g>
   </g>
   <g id="matplotlib.axis_2">
    <g id="ytick_1">
     <g id="line2d_5">
      <defs>
       <path d="M 0 0 
L -3.5 0 
" id="m8556006240" style="stroke:#000000;stroke-width:1.6;"/>
      </defs>
      <g>
       <use style="stroke:#000000;stroke-width:1.6;" x="59.575" xlink:href="#m8556006240" y="258.361667"/>
      </g>
     </g>
     <g id="text_6">
      <!-- 0.00 -->
      <g transform="translate(0.34375 265.960104)scale(0.2 -0.2)">
       <use xlink:href="#DejaVuSans-48"/>
       <use x="63.623047" xlink:href="#DejaVuSans-46"/>
       <use x="95.410156" xlink:href="#DejaVuSans-48"/>
       <use x="159.033203" xlink:href="#DejaVuSans-48"/>
      </g>
     </g>
    </g>
    <g id="ytick_2">
     <g id="line2d_6">
      <g>
       <use style="stroke:#000000;stroke-width:1.6;" x="59.575" xlink:href="#m8556006240" y="202.586469"/>
      </g>
     </g>
     <g id="text_7">
      <!-- 0.05 -->
      <defs>
       <path d="M 10.796875 72.90625 
L 49.515625 72.90625 
L 49.515625 64.59375 
L 19.828125 64.59375 
L 19.828125 46.734375 
Q 21.96875 47.46875 24.109375 47.828125 
Q 26.265625 48.1875 28.421875 48.1875 
Q 40.625 48.1875 47.75 41.5 
Q 54.890625 34.8125 54.890625 23.390625 
Q 54.890625 11.625 47.5625 5.09375 
Q 40.234375 -1.421875 26.90625 -1.421875 
Q 22.3125 -1.421875 17.546875 -0.640625 
Q 12.796875 0.140625 7.71875 1.703125 
L 7.71875 11.625 
Q 12.109375 9.234375 16.796875 8.0625 
Q 21.484375 6.890625 26.703125 6.890625 
Q 35.15625 6.890625 40.078125 11.328125 
Q 45.015625 15.765625 45.015625 23.390625 
Q 45.015625 31 40.078125 35.4375 
Q 35.15625 39.890625 26.703125 39.890625 
Q 22.75 39.890625 18.8125 39.015625 
Q 14.890625 38.140625 10.796875 36.28125 
z
" id="DejaVuSans-53"/>
      </defs>
      <g transform="translate(0.34375 210.184907)scale(0.2 -0.2)">
       <use xlink:href="#DejaVuSans-48"/>
       <use x="63.623047" xlink:href="#DejaVuSans-46"/>
       <use x="95.410156" xlink:href="#DejaVuSans-48"/>
       <use x="159.033203" xlink:href="#DejaVuSans-53"/>
      </g>
     </g>
    </g>
    <g id="ytick_3">
     <g id="line2d_7">
      <g>
       <use style="stroke:#000000;stroke-width:1.6;" x="59.575" xlink:href="#m8556006240" y="146.811272"/>
      </g>
     </g>
     <g id="text_8">
      <!-- 0.10 -->
      <defs>
       <path d="M 12.40625 8.296875 
L 28.515625 8.296875 
L 28.515625 63.921875 
L 10.984375 60.40625 
L 10.984375 69.390625 
L 28.421875 72.90625 
L 38.28125 72.90625 
L 38.28125 8.296875 
L 54.390625 8.296875 
L 54.390625 0 
L 12.40625 0 
z
" id="DejaVuSans-49"/>
      </defs>
      <g transform="translate(0.34375 154.409709)scale(0.2 -0.2)">
       <use xlink:href="#DejaVuSans-48"/>
       <use x="63.623047" xlink:href="#DejaVuSans-46"/>
       <use x="95.410156" xlink:href="#DejaVuSans-49"/>
       <use x="159.033203" xlink:href="#DejaVuSans-48"/>
      </g>
     </g>
    </g>
    <g id="ytick_4">
     <g id="line2d_8">
      <g>
       <use style="stroke:#000000;stroke-width:1.6;" x="59.575" xlink:href="#m8556006240" y="91.036074"/>
      </g>
     </g>
     <g id="text_9">
      <!-- 0.15 -->
      <g transform="translate(0.34375 98.634511)scale(0.2 -0.2)">
       <use xlink:href="#DejaVuSans-48"/>
       <use x="63.623047" xlink:href="#DejaVuSans-46"/>
       <use x="95.410156" xlink:href="#DejaVuSans-49"/>
       <use x="159.033203" xlink:href="#DejaVuSans-53"/>
      </g>
     </g>
    </g>
    <g id="ytick_5">
     <g id="line2d_9">
      <g>
       <use style="stroke:#000000;stroke-width:1.6;" x="59.575" xlink:href="#m8556006240" y="35.260876"/>
      </g>
     </g>
     <g id="text_10">
      <!-- 0.20 -->
      <g transform="translate(0.34375 42.859314)scale(0.2 -0.2)">
       <use xlink:href="#DejaVuSans-48"/>
       <use x="63.623047" xlink:href="#DejaVuSans-46"/>
       <use x="95.410156" xlink:href="#DejaVuSans-50"/>
       <use x="159.033203" xlink:href="#DejaVuSans-48"/>
      </g>
     </g>
    </g>
   </g>
   <g id="patch_83">
    <path d="M 59.575 258.361667 
L 59.575 3.5 
" style="fill:none;stroke:#000000;stroke-linecap:square;stroke-linejoin:miter;stroke-width:0.8;"/>
   </g>
   <g id="patch_84">
    <path d="M 59.575 258.361667 
L 314.436667 258.361667 
" style="fill:none;stroke:#000000;stroke-linecap:square;stroke-linejoin:miter;stroke-width:0.8;"/>
   </g>
  </g>
  <g id="axes_2">
   <g id="patch_85">
    <path d="M 425.796667 258.361667 
L 680.658333 258.361667 
L 680.658333 3.5 
L 425.796667 3.5 
z
" style="fill:#ffffff;"/>
   </g>
   <g id="PolyCollection_1">
    <defs>
     <path d="M 590.831108 -296.429176 
L 590.831108 -296.464908 
L 591.709606 -296.469516 
L 592.588104 -296.475646 
L 593.466602 -296.483826 
L 594.3451 -296.494454 
L 595.223598 -296.507669 
L 596.102096 -296.523301 
L 596.980594 -296.540934 
L 597.859092 -296.560077 
L 598.73759 -296.580386 
L 599.616088 -296.601873 
L 600.494586 -296.625012 
L 601.373084 -296.650703 
L 602.251582 -296.680088 
L 603.13008 -296.714287 
L 604.008578 -296.754152 
L 604.887076 -296.800137 
L 605.765574 -296.852333 
L 606.644072 -296.91065 
L 607.52257 -296.9751 
L 608.401068 -297.046096 
L 609.279566 -297.124765 
L 610.158064 -297.213238 
L 611.036562 -297.314922 
L 611.91506 -297.434642 
L 612.793558 -297.578554 
L 613.672056 -297.753677 
L 614.550554 -297.967053 
L 615.429052 -298.224665 
L 616.30755 -298.530419 
L 617.186048 -298.885553 
L 618.064546 -299.288711 
L 618.943044 -299.736652 
L 619.821542 -300.225249 
L 620.70004 -300.750215 
L 621.578538 -301.307024 
L 622.457036 -301.889887 
L 623.335534 -302.490154 
L 624.214032 -303.094925 
L 625.09253 -303.686784 
L 625.971028 -304.245154 
L 626.849526 -304.749144 
L 627.728024 -305.181029 
L 628.606522 -305.529179 
L 629.48502 -305.789361 
L 630.363518 -305.963978 
L 631.242016 -306.059609 
L 632.120514 -306.083878 
L 632.999012 -306.042936 
L 633.87751 -305.940452 
L 634.756008 -305.77832 
L 635.634506 -305.558513 
L 636.513004 -305.285053 
L 637.391502 -304.965119 
L 638.27 -304.608809 
L 639.148498 -304.227721 
L 640.026996 -303.833054 
L 640.905494 -303.434059 
L 641.783992 -303.037428 
L 642.66249 -302.647706 
L 643.540988 -302.2683 
L 644.419486 -301.902467 
L 645.297984 -301.553765 
L 646.176482 -301.225865 
L 647.05498 -300.921955 
L 647.933478 -300.644158 
L 648.811976 -300.39323 
L 649.690474 -300.168626 
L 650.568972 -299.968806 
L 651.44747 -299.791655 
L 652.325968 -299.634927 
L 653.204466 -299.49673 
L 654.082964 -299.376051 
L 654.961462 -299.273256 
L 655.83996 -299.190451 
L 656.718458 -299.131583 
L 657.596956 -299.102136 
L 658.475454 -299.108424 
L 659.353952 -299.156537 
L 660.23245 -299.25115 
L 661.110948 -299.39451 
L 661.989446 -299.585889 
L 662.867944 -299.821664 
L 663.746442 -300.095843 
L 664.62494 -300.400611 
L 665.503438 -300.726287 
L 666.381936 -301.060418 
L 667.260434 -301.386228 
L 668.138932 -301.68132 
L 669.01743 -301.917804 
L 669.895928 -302.064704 
L 670.774426 -302.092646 
L 671.652924 -301.979784 
L 672.531422 -301.717231 
L 673.40992 -301.312347 
L 674.288418 -300.788825 
L 675.166916 -300.183559 
L 676.045414 -299.541052 
L 676.923912 -298.906653 
L 677.80241 -298.320066 
L 677.80241 -294.574018 
L 677.80241 -294.574018 
L 676.923912 -293.98743 
L 676.045414 -293.353031 
L 675.166916 -292.710524 
L 674.288418 -292.105259 
L 673.40992 -291.581737 
L 672.531422 -291.176852 
L 671.652924 -290.9143 
L 670.774426 -290.801437 
L 669.895928 -290.82938 
L 669.01743 -290.976279 
L 668.138932 -291.212763 
L 667.260434 -291.507856 
L 666.381936 -291.833665 
L 665.503438 -292.167796 
L 664.62494 -292.493473 
L 663.746442 -292.79824 
L 662.867944 -293.07242 
L 661.989446 -293.308194 
L 661.110948 -293.499574 
L 660.23245 -293.642934 
L 659.353952 -293.737547 
L 658.475454 -293.785659 
L 657.596956 -293.791947 
L 656.718458 -293.7625 
L 655.83996 -293.703632 
L 654.961462 -293.620828 
L 654.082964 -293.518032 
L 653.204466 -293.397353 
L 652.325968 -293.259157 
L 651.44747 -293.102428 
L 650.568972 -292.925277 
L 649.690474 -292.725458 
L 648.811976 -292.500853 
L 647.933478 -292.249925 
L 647.05498 -291.972128 
L 646.176482 -291.668219 
L 645.297984 -291.340318 
L 644.419486 -290.991617 
L 643.540988 -290.625783 
L 642.66249 -290.246377 
L 641.783992 -289.856655 
L 640.905494 -289.460024 
L 640.026996 -289.061029 
L 639.148498 -288.666362 
L 638.27 -288.285275 
L 637.391502 -287.928964 
L 636.513004 -287.609031 
L 635.634506 -287.335571 
L 634.756008 -287.115764 
L 633.87751 -286.953631 
L 632.999012 -286.851147 
L 632.120514 -286.810206 
L 631.242016 -286.834475 
L 630.363518 -286.930105 
L 629.48502 -287.104723 
L 628.606522 -287.364905 
L 627.728024 -287.713054 
L 626.849526 -288.144939 
L 625.971028 -288.648929 
L 625.09253 -289.2073 
L 624.214032 -289.799158 
L 623.335534 -290.403929 
L 622.457036 -291.004196 
L 621.578538 -291.58706 
L 620.70004 -292.143868 
L 619.821542 -292.668834 
L 618.943044 -293.157432 
L 618.064546 -293.605372 
L 617.186048 -294.00853 
L 616.30755 -294.363665 
L 615.429052 -294.669418 
L 614.550554 -294.92703 
L 613.672056 -295.140406 
L 612.793558 -295.31553 
L 611.91506 -295.459441 
L 611.036562 -295.579162 
L 610.158064 -295.680845 
L 609.279566 -295.769319 
L 608.401068 -295.847987 
L 607.52257 -295.918984 
L 606.644072 -295.983433 
L 605.765574 -296.041751 
L 604.887076 -296.093946 
L 604.008578 -296.139932 
L 603.13008 -296.179797 
L 602.251582 -296.213995 
L 601.373084 -296.24338 
L 600.494586 -296.269071 
L 599.616088 -296.292211 
L 598.73759 -296.313698 
L 597.859092 -296.334007 
L 596.980594 -296.353149 
L 596.102096 -296.370782 
L 595.223598 -296.386414 
L 594.3451 -296.399629 
L 593.466602 -296.410257 
L 592.588104 -296.418437 
L 591.709606 -296.424567 
L 590.831108 -296.429176 
z
" id="m9287066632" style="stroke:#424242;"/>
    </defs>
    <g clip-path="url(#p44df2598f1)">
     <use style="fill:#7c78ab;stroke:#424242;" x="0" xlink:href="#m9287066632" y="319.061667"/>
    </g>
   </g>
   <g id="PolyCollection_2">
    <defs>
     <path d="M 602.176169 -270.783528 
L 602.176169 -271.138222 
L 602.932634 -271.194326 
L 603.6891 -271.26421 
L 604.445566 -271.350776 
L 605.202032 -271.45641 
L 605.958497 -271.581921 
L 606.714963 -271.725533 
L 607.471429 -271.882478 
L 608.227894 -272.045577 
L 608.98436 -272.206943 
L 609.740826 -272.360446 
L 610.497292 -272.504212 
L 611.253757 -272.642316 
L 612.010223 -272.785022 
L 612.766689 -272.947356 
L 613.523155 -273.146292 
L 614.27962 -273.397281 
L 615.036086 -273.71111 
L 615.792552 -274.092005 
L 616.549018 -274.537599 
L 617.305483 -275.040705 
L 618.061949 -275.59215 
L 618.818415 -276.183434 
L 619.574881 -276.808058 
L 620.331346 -277.460933 
L 621.087812 -278.136246 
L 621.844278 -278.824935 
L 622.600743 -279.513202 
L 623.357209 -280.183101 
L 624.113675 -280.81526 
L 624.870141 -281.3928 
L 625.626606 -281.904788 
L 626.383072 -282.347679 
L 627.139538 -282.724013 
L 627.896004 -283.038982 
L 628.652469 -283.29645 
L 629.408935 -283.496302 
L 630.165401 -283.634244 
L 630.921867 -283.703958 
L 631.678332 -283.700427 
L 632.434798 -283.622794 
L 633.191264 -283.47552 
L 633.94773 -283.267433 
L 634.704195 -283.009262 
L 635.460661 -282.710791 
L 636.217127 -282.378813 
L 636.973592 -282.016518 
L 637.730058 -281.624213 
L 638.486524 -281.200732 
L 639.24299 -280.74483 
L 639.999455 -280.25622 
L 640.755921 -279.736334 
L 641.512387 -279.189048 
L 642.268853 -278.621442 
L 643.025318 -278.044307 
L 643.781784 -277.47193 
L 644.53825 -276.920793 
L 645.294716 -276.407212 
L 646.051181 -275.944369 
L 646.807647 -275.539603 
L 647.564113 -275.192858 
L 648.320579 -274.896911 
L 649.077044 -274.639409 
L 649.83351 -274.406054 
L 650.589976 -274.183887 
L 651.346441 -273.963648 
L 652.102907 -273.74068 
L 652.859373 -273.514527 
L 653.615839 -273.287791 
L 654.372304 -273.064941 
L 655.12877 -272.851464 
L 655.885236 -272.653339 
L 656.641702 -272.476506 
L 657.398167 -272.326065 
L 658.154633 -272.205167 
L 658.911099 -272.113969 
L 659.667565 -272.049165 
L 660.42403 -272.00444 
L 661.180496 -271.971796 
L 661.936962 -271.943303 
L 662.693428 -271.912651 
L 663.449893 -271.876035 
L 664.206359 -271.832242 
L 664.962825 -271.782109 
L 665.71929 -271.727667 
L 666.475756 -271.671252 
L 667.232222 -271.614817 
L 667.988688 -271.559571 
L 668.745153 -271.506033 
L 669.501619 -271.454448 
L 670.258085 -271.405363 
L 671.014551 -271.36003 
L 671.771016 -271.320338 
L 672.527482 -271.288194 
L 673.283948 -271.264567 
L 674.040414 -271.248669 
L 674.796879 -271.237731 
L 675.553345 -271.227607 
L 676.309811 -271.214019 
L 677.066277 -271.193958 
L 677.066277 -270.727792 
L 677.066277 -270.727792 
L 676.309811 -270.707731 
L 675.553345 -270.694143 
L 674.796879 -270.684019 
L 674.040414 -270.673081 
L 673.283948 -270.657183 
L 672.527482 -270.633556 
L 671.771016 -270.601412 
L 671.014551 -270.56172 
L 670.258085 -270.516387 
L 669.501619 -270.467302 
L 668.745153 -270.415717 
L 667.988688 -270.362179 
L 667.232222 -270.306933 
L 666.475756 -270.250498 
L 665.71929 -270.194083 
L 664.962825 -270.139641 
L 664.206359 -270.089508 
L 663.449893 -270.045715 
L 662.693428 -270.009099 
L 661.936962 -269.978447 
L 661.180496 -269.949954 
L 660.42403 -269.91731 
L 659.667565 -269.872585 
L 658.911099 -269.807781 
L 658.154633 -269.716583 
L 657.398167 -269.595685 
L 656.641702 -269.445244 
L 655.885236 -269.268411 
L 655.12877 -269.070286 
L 654.372304 -268.856809 
L 653.615839 -268.633959 
L 652.859373 -268.407223 
L 652.102907 -268.18107 
L 651.346441 -267.958102 
L 650.589976 -267.737863 
L 649.83351 -267.515696 
L 649.077044 -267.282341 
L 648.320579 -267.024839 
L 647.564113 -266.728892 
L 646.807647 -266.382147 
L 646.051181 -265.977381 
L 645.294716 -265.514538 
L 644.53825 -265.000957 
L 643.781784 -264.44982 
L 643.025318 -263.877443 
L 642.268853 -263.300308 
L 641.512387 -262.732702 
L 640.755921 -262.185416 
L 639.999455 -261.66553 
L 639.24299 -261.17692 
L 638.486524 -260.721018 
L 637.730058 -260.297537 
L 636.973592 -259.905232 
L 636.217127 -259.542937 
L 635.460661 -259.210959 
L 634.704195 -258.912488 
L 633.94773 -258.654317 
L 633.191264 -258.44623 
L 632.434798 -258.298956 
L 631.678332 -258.221323 
L 630.921867 -258.217792 
L 630.165401 -258.287506 
L 629.408935 -258.425448 
L 628.652469 -258.6253 
L 627.896004 -258.882768 
L 627.139538 -259.197737 
L 626.383072 -259.574071 
L 625.626606 -260.016962 
L 624.870141 -260.52895 
L 624.113675 -261.10649 
L 623.357209 -261.738649 
L 622.600743 -262.408548 
L 621.844278 -263.096815 
L 621.087812 -263.785504 
L 620.331346 -264.460817 
L 619.574881 -265.113692 
L 618.818415 -265.738316 
L 618.061949 -266.3296 
L 617.305483 -266.881045 
L 616.549018 -267.384151 
L 615.792552 -267.829745 
L 615.036086 -268.21064 
L 614.27962 -268.524469 
L 613.523155 -268.775458 
L 612.766689 -268.974394 
L 612.010223 -269.136728 
L 611.253757 -269.279434 
L 610.497292 -269.417538 
L 609.740826 -269.561304 
L 608.98436 -269.714807 
L 608.227894 -269.876173 
L 607.471429 -270.039272 
L 606.714963 -270.196217 
L 605.958497 -270.339829 
L 605.202032 -270.46534 
L 604.445566 -270.570974 
L 603.6891 -270.65754 
L 602.932634 -270.727424 
L 602.176169 -270.783528 
z
" id="m5eee1fe35d" style="stroke:#424242;"/>
    </defs>
    <g clip-path="url(#p44df2598f1)">
     <use style="fill:#be631d;stroke:#424242;" x="0" xlink:href="#m5eee1fe35d" y="319.061667"/>
    </g>
   </g>
   <g id="patch_86">
    <path clip-path="url(#p44df2598f1)" d="M 442.787444 35.357708 
L 442.787444 35.357708 
L 442.787444 35.357708 
L 442.787444 35.357708 
z
" style="fill:#7c78ab;stroke:#424242;stroke-linejoin:miter;stroke-width:0.5;"/>
   </g>
   <g id="patch_87">
    <path clip-path="url(#p44df2598f1)" d="M 442.787444 35.357708 
L 442.787444 35.357708 
L 442.787444 35.357708 
L 442.787444 35.357708 
z
" style="fill:#be631d;stroke:#424242;stroke-linejoin:miter;stroke-width:0.5;"/>
   </g>
   <g id="matplotlib.axis_3">
    <g id="xtick_5">
     <g id="line2d_10">
      <g>
       <use style="stroke:#000000;stroke-width:1.6;" x="442.787444" xlink:href="#m61fe171852" y="258.361667"/>
      </g>
     </g>
     <g id="text_11">
      <!-- 0.0 -->
      <g transform="translate(426.884319 288.258542)scale(0.2 -0.2)">
       <use xlink:href="#DejaVuSans-48"/>
       <use x="63.623047" xlink:href="#DejaVuSans-46"/>
       <use x="95.410156" xlink:href="#DejaVuSans-48"/>
      </g>
     </g>
    </g>
    <g id="xtick_6">
     <g id="line2d_11">
      <g>
       <use style="stroke:#000000;stroke-width:1.6;" x="510.750556" xlink:href="#m61fe171852" y="258.361667"/>
      </g>
     </g>
     <g id="text_12">
      <!-- 0.2 -->
      <g transform="translate(494.847431 288.258542)scale(0.2 -0.2)">
       <use xlink:href="#DejaVuSans-48"/>
       <use x="63.623047" xlink:href="#DejaVuSans-46"/>
       <use x="95.410156" xlink:href="#DejaVuSans-50"/>
      </g>
     </g>
    </g>
    <g id="xtick_7">
     <g id="line2d_12">
      <g>
       <use style="stroke:#000000;stroke-width:1.6;" x="578.713667" xlink:href="#m61fe171852" y="258.361667"/>
      </g>
     </g>
     <g id="text_13">
      <!-- 0.4 -->
      <g transform="translate(562.810542 288.258542)scale(0.2 -0.2)">
       <use xlink:href="#DejaVuSans-48"/>
       <use x="63.623047" xlink:href="#DejaVuSans-46"/>
       <use x="95.410156" xlink:href="#DejaVuSans-52"/>
      </g>
     </g>
    </g>
    <g id="xtick_8">
     <g id="line2d_13">
      <g>
       <use style="stroke:#000000;stroke-width:1.6;" x="646.676778" xlink:href="#m61fe171852" y="258.361667"/>
      </g>
     </g>
     <g id="text_14">
      <!-- 0.6 -->
      <g transform="translate(630.773653 288.258542)scale(0.2 -0.2)">
       <use xlink:href="#DejaVuSans-48"/>
       <use x="63.623047" xlink:href="#DejaVuSans-46"/>
       <use x="95.410156" xlink:href="#DejaVuSans-54"/>
      </g>
     </g>
    </g>
    <g id="text_15">
     <!-- Max JS Divergence within $\epsilon$ -->
     <g transform="translate(417.6275 311.617917)scale(0.2 -0.2)">
      <use transform="translate(0 0.015625)" xlink:href="#DejaVuSans-77"/>
      <use transform="translate(86.279297 0.015625)" xlink:href="#DejaVuSans-97"/>
      <use transform="translate(147.558594 0.015625)" xlink:href="#DejaVuSans-120"/>
      <use transform="translate(206.738281 0.015625)" xlink:href="#DejaVuSans-32"/>
      <use transform="translate(238.525391 0.015625)" xlink:href="#DejaVuSans-74"/>
      <use transform="translate(268.017578 0.015625)" xlink:href="#DejaVuSans-83"/>
      <use transform="translate(331.494141 0.015625)" xlink:href="#DejaVuSans-32"/>
      <use transform="translate(363.28125 0.015625)" xlink:href="#DejaVuSans-68"/>
      <use transform="translate(440.283203 0.015625)" xlink:href="#DejaVuSans-105"/>
      <use transform="translate(468.066406 0.015625)" xlink:href="#DejaVuSans-118"/>
      <use transform="translate(527.246094 0.015625)" xlink:href="#DejaVuSans-101"/>
      <use transform="translate(588.769531 0.015625)" xlink:href="#DejaVuSans-114"/>
      <use transform="translate(629.882812 0.015625)" xlink:href="#DejaVuSans-103"/>
      <use transform="translate(693.359375 0.015625)" xlink:href="#DejaVuSans-101"/>
      <use transform="translate(754.882812 0.015625)" xlink:href="#DejaVuSans-110"/>
      <use transform="translate(818.261719 0.015625)" xlink:href="#DejaVuSans-99"/>
      <use transform="translate(873.242188 0.015625)" xlink:href="#DejaVuSans-101"/>
      <use transform="translate(934.765625 0.015625)" xlink:href="#DejaVuSans-32"/>
      <use transform="translate(966.552734 0.015625)" xlink:href="#DejaVuSans-119"/>
      <use transform="translate(1048.339844 0.015625)" xlink:href="#DejaVuSans-105"/>
      <use transform="translate(1076.123047 0.015625)" xlink:href="#DejaVuSans-116"/>
      <use transform="translate(1115.332031 0.015625)" xlink:href="#DejaVuSans-104"/>
      <use transform="translate(1178.710938 0.015625)" xlink:href="#DejaVuSans-105"/>
      <use transform="translate(1206.494141 0.015625)" xlink:href="#DejaVuSans-110"/>
      <use transform="translate(1269.873047 0.015625)" xlink:href="#DejaVuSans-32"/>
      <use transform="translate(1301.660156 0.015625)" xlink:href="#DejaVuSans-Oblique-949"/>
     </g>
    </g>
   </g>
   <g id="matplotlib.axis_4">
    <g id="ytick_6">
     <g id="line2d_14">
      <g>
       <use style="stroke:#000000;stroke-width:1.6;" x="425.796667" xlink:href="#m8556006240" y="35.357708"/>
      </g>
     </g>
     <g id="text_16">
      <!-- [0.00, -->
      <defs>
       <path d="M 8.59375 75.984375 
L 29.296875 75.984375 
L 29.296875 69 
L 17.578125 69 
L 17.578125 -6.203125 
L 29.296875 -6.203125 
L 29.296875 -13.1875 
L 8.59375 -13.1875 
z
" id="DejaVuSans-91"/>
       <path d="M 11.71875 12.40625 
L 22.015625 12.40625 
L 22.015625 4 
L 14.015625 -11.625 
L 7.71875 -11.625 
L 11.71875 4 
z
" id="DejaVuSans-44"/>
      </defs>
      <g transform="translate(352.406042 31.758333)scale(0.2 -0.2)">
       <use xlink:href="#DejaVuSans-91"/>
       <use x="39.013672" xlink:href="#DejaVuSans-48"/>
       <use x="102.636719" xlink:href="#DejaVuSans-46"/>
       <use x="134.423828" xlink:href="#DejaVuSans-48"/>
       <use x="198.046875" xlink:href="#DejaVuSans-48"/>
       <use x="261.669922" xlink:href="#DejaVuSans-44"/>
      </g>
      <!-- 0.25) -->
      <defs>
       <path d="M 8.015625 75.875 
L 15.828125 75.875 
Q 23.140625 64.359375 26.78125 53.3125 
Q 30.421875 42.28125 30.421875 31.390625 
Q 30.421875 20.453125 26.78125 9.375 
Q 23.140625 -1.703125 15.828125 -13.1875 
L 8.015625 -13.1875 
Q 14.5 -2 17.703125 9.0625 
Q 20.90625 20.125 20.90625 31.390625 
Q 20.90625 42.671875 17.703125 53.65625 
Q 14.5 64.65625 8.015625 75.875 
z
" id="DejaVuSans-41"/>
      </defs>
      <g transform="translate(358.762292 54.153958)scale(0.2 -0.2)">
       <use xlink:href="#DejaVuSans-48"/>
       <use x="63.623047" xlink:href="#DejaVuSans-46"/>
       <use x="95.410156" xlink:href="#DejaVuSans-50"/>
       <use x="159.033203" xlink:href="#DejaVuSans-53"/>
       <use x="222.65625" xlink:href="#DejaVuSans-41"/>
      </g>
     </g>
    </g>
    <g id="ytick_7">
     <g id="line2d_15">
      <g>
       <use style="stroke:#000000;stroke-width:1.6;" x="425.796667" xlink:href="#m8556006240" y="99.073125"/>
      </g>
     </g>
     <g id="text_17">
      <!-- [0.25, -->
      <g transform="translate(352.406042 95.47375)scale(0.2 -0.2)">
       <use xlink:href="#DejaVuSans-91"/>
       <use x="39.013672" xlink:href="#DejaVuSans-48"/>
       <use x="102.636719" xlink:href="#DejaVuSans-46"/>
       <use x="134.423828" xlink:href="#DejaVuSans-50"/>
       <use x="198.046875" xlink:href="#DejaVuSans-53"/>
       <use x="261.669922" xlink:href="#DejaVuSans-44"/>
      </g>
      <!-- 0.50) -->
      <g transform="translate(358.762292 117.869375)scale(0.2 -0.2)">
       <use xlink:href="#DejaVuSans-48"/>
       <use x="63.623047" xlink:href="#DejaVuSans-46"/>
       <use x="95.410156" xlink:href="#DejaVuSans-53"/>
       <use x="159.033203" xlink:href="#DejaVuSans-48"/>
       <use x="222.65625" xlink:href="#DejaVuSans-41"/>
      </g>
     </g>
    </g>
    <g id="ytick_8">
     <g id="line2d_16">
      <g>
       <use style="stroke:#000000;stroke-width:1.6;" x="425.796667" xlink:href="#m8556006240" y="162.788542"/>
      </g>
     </g>
     <g id="text_18">
      <!-- [0.50, -->
      <g transform="translate(352.406042 159.189167)scale(0.2 -0.2)">
       <use xlink:href="#DejaVuSans-91"/>
       <use x="39.013672" xlink:href="#DejaVuSans-48"/>
       <use x="102.636719" xlink:href="#DejaVuSans-46"/>
       <use x="134.423828" xlink:href="#DejaVuSans-53"/>
       <use x="198.046875" xlink:href="#DejaVuSans-48"/>
       <use x="261.669922" xlink:href="#DejaVuSans-44"/>
      </g>
      <!-- 0.75) -->
      <defs>
       <path d="M 8.203125 72.90625 
L 55.078125 72.90625 
L 55.078125 68.703125 
L 28.609375 0 
L 18.3125 0 
L 43.21875 64.59375 
L 8.203125 64.59375 
z
" id="DejaVuSans-55"/>
      </defs>
      <g transform="translate(358.762292 181.584792)scale(0.2 -0.2)">
       <use xlink:href="#DejaVuSans-48"/>
       <use x="63.623047" xlink:href="#DejaVuSans-46"/>
       <use x="95.410156" xlink:href="#DejaVuSans-55"/>
       <use x="159.033203" xlink:href="#DejaVuSans-53"/>
       <use x="222.65625" xlink:href="#DejaVuSans-41"/>
      </g>
     </g>
    </g>
    <g id="ytick_9">
     <g id="line2d_17">
      <g>
       <use style="stroke:#000000;stroke-width:1.6;" x="425.796667" xlink:href="#m8556006240" y="226.503958"/>
      </g>
     </g>
     <g id="text_19">
      <!-- [0.75, -->
      <g transform="translate(352.406042 222.904583)scale(0.2 -0.2)">
       <use xlink:href="#DejaVuSans-91"/>
       <use x="39.013672" xlink:href="#DejaVuSans-48"/>
       <use x="102.636719" xlink:href="#DejaVuSans-46"/>
       <use x="134.423828" xlink:href="#DejaVuSans-55"/>
       <use x="198.046875" xlink:href="#DejaVuSans-53"/>
       <use x="261.669922" xlink:href="#DejaVuSans-44"/>
      </g>
      <!-- 1.00) -->
      <g transform="translate(358.762292 245.300208)scale(0.2 -0.2)">
       <use xlink:href="#DejaVuSans-49"/>
       <use x="63.623047" xlink:href="#DejaVuSans-46"/>
       <use x="95.410156" xlink:href="#DejaVuSans-48"/>
       <use x="159.033203" xlink:href="#DejaVuSans-48"/>
       <use x="222.65625" xlink:href="#DejaVuSans-41"/>
      </g>
     </g>
    </g>
    <g id="text_20">
     <!-- Max Attention -->
     <defs>
      <path d="M 34.1875 63.1875 
L 20.796875 26.90625 
L 47.609375 26.90625 
z
M 28.609375 72.90625 
L 39.796875 72.90625 
L 67.578125 0 
L 57.328125 0 
L 50.6875 18.703125 
L 17.828125 18.703125 
L 11.1875 0 
L 0.78125 0 
z
" id="DejaVuSans-65"/>
      <path d="M 30.609375 48.390625 
Q 23.390625 48.390625 19.1875 42.75 
Q 14.984375 37.109375 14.984375 27.296875 
Q 14.984375 17.484375 19.15625 11.84375 
Q 23.34375 6.203125 30.609375 6.203125 
Q 37.796875 6.203125 41.984375 11.859375 
Q 46.1875 17.53125 46.1875 27.296875 
Q 46.1875 37.015625 41.984375 42.703125 
Q 37.796875 48.390625 30.609375 48.390625 
z
M 30.609375 56 
Q 42.328125 56 49.015625 48.375 
Q 55.71875 40.765625 55.71875 27.296875 
Q 55.71875 13.875 49.015625 6.21875 
Q 42.328125 -1.421875 30.609375 -1.421875 
Q 18.84375 -1.421875 12.171875 6.21875 
Q 5.515625 13.875 5.515625 27.296875 
Q 5.515625 40.765625 12.171875 48.375 
Q 18.84375 56 30.609375 56 
z
" id="DejaVuSans-111"/>
     </defs>
     <g transform="translate(344.246667 201.108958)rotate(-90)scale(0.2 -0.2)">
      <use xlink:href="#DejaVuSans-77"/>
      <use x="86.279297" xlink:href="#DejaVuSans-97"/>
      <use x="147.558594" xlink:href="#DejaVuSans-120"/>
      <use x="206.738281" xlink:href="#DejaVuSans-32"/>
      <use x="238.525391" xlink:href="#DejaVuSans-65"/>
      <use x="306.917969" xlink:href="#DejaVuSans-116"/>
      <use x="346.126953" xlink:href="#DejaVuSans-116"/>
      <use x="385.335938" xlink:href="#DejaVuSans-101"/>
      <use x="446.859375" xlink:href="#DejaVuSans-110"/>
      <use x="510.238281" xlink:href="#DejaVuSans-116"/>
      <use x="549.447266" xlink:href="#DejaVuSans-105"/>
      <use x="577.230469" xlink:href="#DejaVuSans-111"/>
      <use x="638.412109" xlink:href="#DejaVuSans-110"/>
     </g>
    </g>
   </g>
   <g id="line2d_18">
    <path clip-path="url(#p44df2598f1)" style="fill:none;stroke:#424242;stroke-dasharray:1.5,1.5;stroke-dashoffset:0;"/>
   </g>
   <g id="line2d_19">
    <path clip-path="url(#p44df2598f1)" style="fill:none;stroke:#424242;stroke-dasharray:3,3;stroke-dashoffset:0;"/>
   </g>
   <g id="line2d_20">
    <path clip-path="url(#p44df2598f1)" style="fill:none;stroke:#424242;stroke-dasharray:1.5,1.5;stroke-dashoffset:0;"/>
   </g>
   <g id="line2d_21">
    <path clip-path="url(#p44df2598f1)" style="fill:none;stroke:#424242;stroke-dasharray:1.5,1.5;stroke-dashoffset:0;"/>
   </g>
   <g id="line2d_22">
    <path clip-path="url(#p44df2598f1)" style="fill:none;stroke:#424242;stroke-dasharray:3,3;stroke-dashoffset:0;"/>
   </g>
   <g id="line2d_23">
    <path clip-path="url(#p44df2598f1)" style="fill:none;stroke:#424242;stroke-dasharray:1.5,1.5;stroke-dashoffset:0;"/>
   </g>
   <g id="patch_88">
    <path style="fill:none;stroke:#000000;stroke-linecap:square;stroke-linejoin:miter;stroke-width:0.8;"/>
   </g>
   <g id="patch_89">
    <path style="fill:none;stroke:#000000;stroke-linecap:square;stroke-linejoin:miter;stroke-width:0.8;"/>
   </g>
  </g>
 </g>
 <defs>
  <clipPath id="p83d573c08d">
   <rect height="254.861667" width="254.861667" x="59.575" y="3.5"/>
  </clipPath>
  <clipPath id="p44df2598f1">
   <rect height="254.861667" width="254.861667" x="425.796667" y="3.5"/>
  </clipPath>
 </defs>
</svg>
