<?xml version="1.0" encoding="utf-8" standalone="no"?>
<!DOCTYPE svg PUBLIC "-//W3C//DTD SVG 1.1//EN"
  "http://www.w3.org/Graphics/SVG/1.1/DTD/svg11.dtd">
<!-- Created with matplotlib (https://matplotlib.org/) -->
<svg height="319.061667pt" version="1.1" viewBox="0 0 323.226536 319.061667" width="323.226536pt" xmlns="http://www.w3.org/2000/svg" xmlns:xlink="http://www.w3.org/1999/xlink">
 <defs>
  <style type="text/css">
*{stroke-linecap:butt;stroke-linejoin:round;}
  </style>
 </defs>
 <g id="figure_1">
  <g id="patch_1">
   <path d="M 0 319.061667 
L 323.226536 319.061667 
L 323.226536 0 
L 0 0 
z
" style="fill:#ffffff;"/>
  </g>
  <g id="axes_1">
   <g id="patch_2">
    <path d="M 59.575 258.361667 
L 314.436667 258.361667 
L 314.436667 3.5 
L 59.575 3.5 
z
" style="fill:#ffffff;"/>
   </g>
   <g id="patch_3">
    <path clip-path="url(#p4397b8859a)" d="M 71.159621 258.361667 
L 76.951932 258.361667 
L 76.951932 258.361667 
L 71.159621 258.361667 
z
" style="fill:#43406b;opacity:0.6;stroke:#000000;stroke-linejoin:miter;stroke-width:0.5;"/>
   </g>
   <g id="patch_4">
    <path clip-path="url(#p4397b8859a)" d="M 76.951932 258.361667 
L 82.744242 258.361667 
L 82.744242 258.361667 
L 76.951932 258.361667 
z
" style="fill:#43406b;opacity:0.6;stroke:#000000;stroke-linejoin:miter;stroke-width:0.5;"/>
   </g>
   <g id="patch_5">
    <path clip-path="url(#p4397b8859a)" d="M 82.744242 258.361667 
L 88.536553 258.361667 
L 88.536553 257.828204 
L 82.744242 257.828204 
z
" style="fill:#43406b;opacity:0.6;stroke:#000000;stroke-linejoin:miter;stroke-width:0.5;"/>
   </g>
   <g id="patch_6">
    <path clip-path="url(#p4397b8859a)" d="M 88.536553 258.361667 
L 94.328864 258.361667 
L 94.328864 257.294742 
L 88.536553 257.294742 
z
" style="fill:#43406b;opacity:0.6;stroke:#000000;stroke-linejoin:miter;stroke-width:0.5;"/>
   </g>
   <g id="patch_7">
    <path clip-path="url(#p4397b8859a)" d="M 94.328864 258.361667 
L 100.121174 258.361667 
L 100.121174 256.227817 
L 94.328864 256.227817 
z
" style="fill:#43406b;opacity:0.6;stroke:#000000;stroke-linejoin:miter;stroke-width:0.5;"/>
   </g>
   <g id="patch_8">
    <path clip-path="url(#p4397b8859a)" d="M 100.121174 258.361667 
L 105.913485 258.361667 
L 105.913485 256.227817 
L 100.121174 256.227817 
z
" style="fill:#43406b;opacity:0.6;stroke:#000000;stroke-linejoin:miter;stroke-width:0.5;"/>
   </g>
   <g id="patch_9">
    <path clip-path="url(#p4397b8859a)" d="M 105.913485 258.361667 
L 111.705795 258.361667 
L 111.705795 255.694355 
L 105.913485 255.694355 
z
" style="fill:#43406b;opacity:0.6;stroke:#000000;stroke-linejoin:miter;stroke-width:0.5;"/>
   </g>
   <g id="patch_10">
    <path clip-path="url(#p4397b8859a)" d="M 111.705795 258.361667 
L 117.498106 258.361667 
L 117.498106 253.560505 
L 111.705795 253.560505 
z
" style="fill:#43406b;opacity:0.6;stroke:#000000;stroke-linejoin:miter;stroke-width:0.5;"/>
   </g>
   <g id="patch_11">
    <path clip-path="url(#p4397b8859a)" d="M 117.498106 258.361667 
L 123.290417 258.361667 
L 123.290417 248.759343 
L 117.498106 248.759343 
z
" style="fill:#43406b;opacity:0.6;stroke:#000000;stroke-linejoin:miter;stroke-width:0.5;"/>
   </g>
   <g id="patch_12">
    <path clip-path="url(#p4397b8859a)" d="M 123.290417 258.361667 
L 129.082727 258.361667 
L 129.082727 248.759343 
L 123.290417 248.759343 
z
" style="fill:#43406b;opacity:0.6;stroke:#000000;stroke-linejoin:miter;stroke-width:0.5;"/>
   </g>
   <g id="patch_13">
    <path clip-path="url(#p4397b8859a)" d="M 129.082727 258.361667 
L 134.875038 258.361667 
L 134.875038 253.560505 
L 129.082727 253.560505 
z
" style="fill:#43406b;opacity:0.6;stroke:#000000;stroke-linejoin:miter;stroke-width:0.5;"/>
   </g>
   <g id="patch_14">
    <path clip-path="url(#p4397b8859a)" d="M 134.875038 258.361667 
L 140.667348 258.361667 
L 140.667348 252.49358 
L 134.875038 252.49358 
z
" style="fill:#43406b;opacity:0.6;stroke:#000000;stroke-linejoin:miter;stroke-width:0.5;"/>
   </g>
   <g id="patch_15">
    <path clip-path="url(#p4397b8859a)" d="M 140.667348 258.361667 
L 146.459659 258.361667 
L 146.459659 245.558569 
L 140.667348 245.558569 
z
" style="fill:#43406b;opacity:0.6;stroke:#000000;stroke-linejoin:miter;stroke-width:0.5;"/>
   </g>
   <g id="patch_16">
    <path clip-path="url(#p4397b8859a)" d="M 146.459659 258.361667 
L 152.25197 258.361667 
L 152.25197 241.824332 
L 146.459659 241.824332 
z
" style="fill:#43406b;opacity:0.6;stroke:#000000;stroke-linejoin:miter;stroke-width:0.5;"/>
   </g>
   <g id="patch_17">
    <path clip-path="url(#p4397b8859a)" d="M 152.25197 258.361667 
L 158.04428 258.361667 
L 158.04428 250.359731 
L 152.25197 250.359731 
z
" style="fill:#43406b;opacity:0.6;stroke:#000000;stroke-linejoin:miter;stroke-width:0.5;"/>
   </g>
   <g id="patch_18">
    <path clip-path="url(#p4397b8859a)" d="M 158.04428 258.361667 
L 163.836591 258.361667 
L 163.836591 241.29087 
L 158.04428 241.29087 
z
" style="fill:#43406b;opacity:0.6;stroke:#000000;stroke-linejoin:miter;stroke-width:0.5;"/>
   </g>
   <g id="patch_19">
    <path clip-path="url(#p4397b8859a)" d="M 163.836591 258.361667 
L 169.628902 258.361667 
L 169.628902 233.822396 
L 163.836591 233.822396 
z
" style="fill:#43406b;opacity:0.6;stroke:#000000;stroke-linejoin:miter;stroke-width:0.5;"/>
   </g>
   <g id="patch_20">
    <path clip-path="url(#p4397b8859a)" d="M 169.628902 258.361667 
L 175.421212 258.361667 
L 175.421212 233.822396 
L 169.628902 233.822396 
z
" style="fill:#43406b;opacity:0.6;stroke:#000000;stroke-linejoin:miter;stroke-width:0.5;"/>
   </g>
   <g id="patch_21">
    <path clip-path="url(#p4397b8859a)" d="M 175.421212 258.361667 
L 181.213523 258.361667 
L 181.213523 224.220072 
L 175.421212 224.220072 
z
" style="fill:#43406b;opacity:0.6;stroke:#000000;stroke-linejoin:miter;stroke-width:0.5;"/>
   </g>
   <g id="patch_22">
    <path clip-path="url(#p4397b8859a)" d="M 181.213523 258.361667 
L 187.005833 258.361667 
L 187.005833 199.147339 
L 181.213523 199.147339 
z
" style="fill:#43406b;opacity:0.6;stroke:#000000;stroke-linejoin:miter;stroke-width:0.5;"/>
   </g>
   <g id="patch_23">
    <path clip-path="url(#p4397b8859a)" d="M 187.005833 258.361667 
L 192.798144 258.361667 
L 192.798144 197.546952 
L 187.005833 197.546952 
z
" style="fill:#43406b;opacity:0.6;stroke:#000000;stroke-linejoin:miter;stroke-width:0.5;"/>
   </g>
   <g id="patch_24">
    <path clip-path="url(#p4397b8859a)" d="M 192.798144 258.361667 
L 198.590455 258.361667 
L 198.590455 168.206519 
L 192.798144 168.206519 
z
" style="fill:#43406b;opacity:0.6;stroke:#000000;stroke-linejoin:miter;stroke-width:0.5;"/>
   </g>
   <g id="patch_25">
    <path clip-path="url(#p4397b8859a)" d="M 198.590455 258.361667 
L 204.382765 258.361667 
L 204.382765 136.732237 
L 198.590455 136.732237 
z
" style="fill:#43406b;opacity:0.6;stroke:#000000;stroke-linejoin:miter;stroke-width:0.5;"/>
   </g>
   <g id="patch_26">
    <path clip-path="url(#p4397b8859a)" d="M 204.382765 258.361667 
L 210.175076 258.361667 
L 210.175076 131.397613 
L 204.382765 131.397613 
z
" style="fill:#43406b;opacity:0.6;stroke:#000000;stroke-linejoin:miter;stroke-width:0.5;"/>
   </g>
   <g id="patch_27">
    <path clip-path="url(#p4397b8859a)" d="M 210.175076 258.361667 
L 215.967386 258.361667 
L 215.967386 95.655631 
L 210.175076 95.655631 
z
" style="fill:#43406b;opacity:0.6;stroke:#000000;stroke-linejoin:miter;stroke-width:0.5;"/>
   </g>
   <g id="patch_28">
    <path clip-path="url(#p4397b8859a)" d="M 215.967386 258.361667 
L 221.759697 258.361667 
L 221.759697 65.248274 
L 215.967386 65.248274 
z
" style="fill:#43406b;opacity:0.6;stroke:#000000;stroke-linejoin:miter;stroke-width:0.5;"/>
   </g>
   <g id="patch_29">
    <path clip-path="url(#p4397b8859a)" d="M 221.759697 258.361667 
L 227.552008 258.361667 
L 227.552008 55.645951 
L 221.759697 55.645951 
z
" style="fill:#43406b;opacity:0.6;stroke:#000000;stroke-linejoin:miter;stroke-width:0.5;"/>
   </g>
   <g id="patch_30">
    <path clip-path="url(#p4397b8859a)" d="M 227.552008 258.361667 
L 233.344318 258.361667 
L 233.344318 52.445176 
L 227.552008 52.445176 
z
" style="fill:#43406b;opacity:0.6;stroke:#000000;stroke-linejoin:miter;stroke-width:0.5;"/>
   </g>
   <g id="patch_31">
    <path clip-path="url(#p4397b8859a)" d="M 233.344318 258.361667 
L 239.136629 258.361667 
L 239.136629 26.305518 
L 233.344318 26.305518 
z
" style="fill:#43406b;opacity:0.6;stroke:#000000;stroke-linejoin:miter;stroke-width:0.5;"/>
   </g>
   <g id="patch_32">
    <path clip-path="url(#p4397b8859a)" d="M 239.136629 258.361667 
L 244.928939 258.361667 
L 244.928939 34.307454 
L 239.136629 34.307454 
z
" style="fill:#43406b;opacity:0.6;stroke:#000000;stroke-linejoin:miter;stroke-width:0.5;"/>
   </g>
   <g id="patch_33">
    <path clip-path="url(#p4397b8859a)" d="M 244.928939 258.361667 
L 250.72125 258.361667 
L 250.72125 15.63627 
L 244.928939 15.63627 
z
" style="fill:#43406b;opacity:0.6;stroke:#000000;stroke-linejoin:miter;stroke-width:0.5;"/>
   </g>
   <g id="patch_34">
    <path clip-path="url(#p4397b8859a)" d="M 250.72125 258.361667 
L 256.513561 258.361667 
L 256.513561 67.915586 
L 250.72125 67.915586 
z
" style="fill:#43406b;opacity:0.6;stroke:#000000;stroke-linejoin:miter;stroke-width:0.5;"/>
   </g>
   <g id="patch_35">
    <path clip-path="url(#p4397b8859a)" d="M 256.513561 258.361667 
L 262.305871 258.361667 
L 262.305871 110.059117 
L 256.513561 110.059117 
z
" style="fill:#43406b;opacity:0.6;stroke:#000000;stroke-linejoin:miter;stroke-width:0.5;"/>
   </g>
   <g id="patch_36">
    <path clip-path="url(#p4397b8859a)" d="M 262.305871 258.361667 
L 268.098182 258.361667 
L 268.098182 154.869959 
L 262.305871 154.869959 
z
" style="fill:#43406b;opacity:0.6;stroke:#000000;stroke-linejoin:miter;stroke-width:0.5;"/>
   </g>
   <g id="patch_37">
    <path clip-path="url(#p4397b8859a)" d="M 268.098182 258.361667 
L 273.890492 258.361667 
L 273.890492 194.346177 
L 268.098182 194.346177 
z
" style="fill:#43406b;opacity:0.6;stroke:#000000;stroke-linejoin:miter;stroke-width:0.5;"/>
   </g>
   <g id="patch_38">
    <path clip-path="url(#p4397b8859a)" d="M 273.890492 258.361667 
L 279.682803 258.361667 
L 279.682803 221.55276 
L 273.890492 221.55276 
z
" style="fill:#43406b;opacity:0.6;stroke:#000000;stroke-linejoin:miter;stroke-width:0.5;"/>
   </g>
   <g id="patch_39">
    <path clip-path="url(#p4397b8859a)" d="M 279.682803 258.361667 
L 285.475114 258.361667 
L 285.475114 241.29087 
L 279.682803 241.29087 
z
" style="fill:#43406b;opacity:0.6;stroke:#000000;stroke-linejoin:miter;stroke-width:0.5;"/>
   </g>
   <g id="patch_40">
    <path clip-path="url(#p4397b8859a)" d="M 285.475114 258.361667 
L 291.267424 258.361667 
L 291.267424 255.160892 
L 285.475114 255.160892 
z
" style="fill:#43406b;opacity:0.6;stroke:#000000;stroke-linejoin:miter;stroke-width:0.5;"/>
   </g>
   <g id="patch_41">
    <path clip-path="url(#p4397b8859a)" d="M 291.267424 258.361667 
L 297.059735 258.361667 
L 297.059735 257.294742 
L 291.267424 257.294742 
z
" style="fill:#43406b;opacity:0.6;stroke:#000000;stroke-linejoin:miter;stroke-width:0.5;"/>
   </g>
   <g id="patch_42">
    <path clip-path="url(#p4397b8859a)" d="M 297.059735 258.361667 
L 302.852045 258.361667 
L 302.852045 258.361667 
L 297.059735 258.361667 
z
" style="fill:#43406b;opacity:0.6;stroke:#000000;stroke-linejoin:miter;stroke-width:0.5;"/>
   </g>
   <g id="matplotlib.axis_1">
    <g id="xtick_1">
     <g id="line2d_1">
      <defs>
       <path d="M 0 0 
L 0 3.5 
" id="m1fef3eca6b" style="stroke:#000000;stroke-width:1.6;"/>
      </defs>
      <g>
       <use style="stroke:#000000;stroke-width:1.6;" x="71.159621" xlink:href="#m1fef3eca6b" y="258.361667"/>
      </g>
     </g>
     <g id="text_1">
      <!-- 0.0 -->
      <defs>
       <path d="M 31.78125 66.40625 
Q 24.171875 66.40625 20.328125 58.90625 
Q 16.5 51.421875 16.5 36.375 
Q 16.5 21.390625 20.328125 13.890625 
Q 24.171875 6.390625 31.78125 6.390625 
Q 39.453125 6.390625 43.28125 13.890625 
Q 47.125 21.390625 47.125 36.375 
Q 47.125 51.421875 43.28125 58.90625 
Q 39.453125 66.40625 31.78125 66.40625 
z
M 31.78125 74.21875 
Q 44.046875 74.21875 50.515625 64.515625 
Q 56.984375 54.828125 56.984375 36.375 
Q 56.984375 17.96875 50.515625 8.265625 
Q 44.046875 -1.421875 31.78125 -1.421875 
Q 19.53125 -1.421875 13.0625 8.265625 
Q 6.59375 17.96875 6.59375 36.375 
Q 6.59375 54.828125 13.0625 64.515625 
Q 19.53125 74.21875 31.78125 74.21875 
z
" id="DejaVuSans-48"/>
       <path d="M 10.6875 12.40625 
L 21 12.40625 
L 21 0 
L 10.6875 0 
z
" id="DejaVuSans-46"/>
      </defs>
      <g transform="translate(55.256496 288.258542)scale(0.2 -0.2)">
       <use xlink:href="#DejaVuSans-48"/>
       <use x="63.623047" xlink:href="#DejaVuSans-46"/>
       <use x="95.410156" xlink:href="#DejaVuSans-48"/>
      </g>
     </g>
    </g>
    <g id="xtick_2">
     <g id="line2d_2">
      <g>
       <use style="stroke:#000000;stroke-width:1.6;" x="137.357457" xlink:href="#m1fef3eca6b" y="258.361667"/>
      </g>
     </g>
     <g id="text_2">
      <!-- 0.2 -->
      <defs>
       <path d="M 19.1875 8.296875 
L 53.609375 8.296875 
L 53.609375 0 
L 7.328125 0 
L 7.328125 8.296875 
Q 12.9375 14.109375 22.625 23.890625 
Q 32.328125 33.6875 34.8125 36.53125 
Q 39.546875 41.84375 41.421875 45.53125 
Q 43.3125 49.21875 43.3125 52.78125 
Q 43.3125 58.59375 39.234375 62.25 
Q 35.15625 65.921875 28.609375 65.921875 
Q 23.96875 65.921875 18.8125 64.3125 
Q 13.671875 62.703125 7.8125 59.421875 
L 7.8125 69.390625 
Q 13.765625 71.78125 18.9375 73 
Q 24.125 74.21875 28.421875 74.21875 
Q 39.75 74.21875 46.484375 68.546875 
Q 53.21875 62.890625 53.21875 53.421875 
Q 53.21875 48.921875 51.53125 44.890625 
Q 49.859375 40.875 45.40625 35.40625 
Q 44.1875 33.984375 37.640625 27.21875 
Q 31.109375 20.453125 19.1875 8.296875 
z
" id="DejaVuSans-50"/>
      </defs>
      <g transform="translate(121.454332 288.258542)scale(0.2 -0.2)">
       <use xlink:href="#DejaVuSans-48"/>
       <use x="63.623047" xlink:href="#DejaVuSans-46"/>
       <use x="95.410156" xlink:href="#DejaVuSans-50"/>
      </g>
     </g>
    </g>
    <g id="xtick_3">
     <g id="line2d_3">
      <g>
       <use style="stroke:#000000;stroke-width:1.6;" x="203.555292" xlink:href="#m1fef3eca6b" y="258.361667"/>
      </g>
     </g>
     <g id="text_3">
      <!-- 0.4 -->
      <defs>
       <path d="M 37.796875 64.3125 
L 12.890625 25.390625 
L 37.796875 25.390625 
z
M 35.203125 72.90625 
L 47.609375 72.90625 
L 47.609375 25.390625 
L 58.015625 25.390625 
L 58.015625 17.1875 
L 47.609375 17.1875 
L 47.609375 0 
L 37.796875 0 
L 37.796875 17.1875 
L 4.890625 17.1875 
L 4.890625 26.703125 
z
" id="DejaVuSans-52"/>
      </defs>
      <g transform="translate(187.652167 288.258542)scale(0.2 -0.2)">
       <use xlink:href="#DejaVuSans-48"/>
       <use x="63.623047" xlink:href="#DejaVuSans-46"/>
       <use x="95.410156" xlink:href="#DejaVuSans-52"/>
      </g>
     </g>
    </g>
    <g id="xtick_4">
     <g id="line2d_4">
      <g>
       <use style="stroke:#000000;stroke-width:1.6;" x="269.753128" xlink:href="#m1fef3eca6b" y="258.361667"/>
      </g>
     </g>
     <g id="text_4">
      <!-- 0.6 -->
      <defs>
       <path d="M 33.015625 40.375 
Q 26.375 40.375 22.484375 35.828125 
Q 18.609375 31.296875 18.609375 23.390625 
Q 18.609375 15.53125 22.484375 10.953125 
Q 26.375 6.390625 33.015625 6.390625 
Q 39.65625 6.390625 43.53125 10.953125 
Q 47.40625 15.53125 47.40625 23.390625 
Q 47.40625 31.296875 43.53125 35.828125 
Q 39.65625 40.375 33.015625 40.375 
z
M 52.59375 71.296875 
L 52.59375 62.3125 
Q 48.875 64.0625 45.09375 64.984375 
Q 41.3125 65.921875 37.59375 65.921875 
Q 27.828125 65.921875 22.671875 59.328125 
Q 17.53125 52.734375 16.796875 39.40625 
Q 19.671875 43.65625 24.015625 45.921875 
Q 28.375 48.1875 33.59375 48.1875 
Q 44.578125 48.1875 50.953125 41.515625 
Q 57.328125 34.859375 57.328125 23.390625 
Q 57.328125 12.15625 50.6875 5.359375 
Q 44.046875 -1.421875 33.015625 -1.421875 
Q 20.359375 -1.421875 13.671875 8.265625 
Q 6.984375 17.96875 6.984375 36.375 
Q 6.984375 53.65625 15.1875 63.9375 
Q 23.390625 74.21875 37.203125 74.21875 
Q 40.921875 74.21875 44.703125 73.484375 
Q 48.484375 72.75 52.59375 71.296875 
z
" id="DejaVuSans-54"/>
      </defs>
      <g transform="translate(253.850003 288.258542)scale(0.2 -0.2)">
       <use xlink:href="#DejaVuSans-48"/>
       <use x="63.623047" xlink:href="#DejaVuSans-46"/>
       <use x="95.410156" xlink:href="#DejaVuSans-54"/>
      </g>
     </g>
    </g>
    <g id="text_5">
     <!-- Max JS Divergence within $\epsilon$ -->
     <defs>
      <path d="M 9.8125 72.90625 
L 24.515625 72.90625 
L 43.109375 23.296875 
L 61.8125 72.90625 
L 76.515625 72.90625 
L 76.515625 0 
L 66.890625 0 
L 66.890625 64.015625 
L 48.09375 14.015625 
L 38.1875 14.015625 
L 19.390625 64.015625 
L 19.390625 0 
L 9.8125 0 
z
" id="DejaVuSans-77"/>
      <path d="M 34.28125 27.484375 
Q 23.390625 27.484375 19.1875 25 
Q 14.984375 22.515625 14.984375 16.5 
Q 14.984375 11.71875 18.140625 8.90625 
Q 21.296875 6.109375 26.703125 6.109375 
Q 34.1875 6.109375 38.703125 11.40625 
Q 43.21875 16.703125 43.21875 25.484375 
L 43.21875 27.484375 
z
M 52.203125 31.203125 
L 52.203125 0 
L 43.21875 0 
L 43.21875 8.296875 
Q 40.140625 3.328125 35.546875 0.953125 
Q 30.953125 -1.421875 24.3125 -1.421875 
Q 15.921875 -1.421875 10.953125 3.296875 
Q 6 8.015625 6 15.921875 
Q 6 25.140625 12.171875 29.828125 
Q 18.359375 34.515625 30.609375 34.515625 
L 43.21875 34.515625 
L 43.21875 35.40625 
Q 43.21875 41.609375 39.140625 45 
Q 35.0625 48.390625 27.6875 48.390625 
Q 23 48.390625 18.546875 47.265625 
Q 14.109375 46.140625 10.015625 43.890625 
L 10.015625 52.203125 
Q 14.9375 54.109375 19.578125 55.046875 
Q 24.21875 56 28.609375 56 
Q 40.484375 56 46.34375 49.84375 
Q 52.203125 43.703125 52.203125 31.203125 
z
" id="DejaVuSans-97"/>
      <path d="M 54.890625 54.6875 
L 35.109375 28.078125 
L 55.90625 0 
L 45.3125 0 
L 29.390625 21.484375 
L 13.484375 0 
L 2.875 0 
L 24.125 28.609375 
L 4.6875 54.6875 
L 15.28125 54.6875 
L 29.78125 35.203125 
L 44.28125 54.6875 
z
" id="DejaVuSans-120"/>
      <path id="DejaVuSans-32"/>
      <path d="M 9.8125 72.90625 
L 19.671875 72.90625 
L 19.671875 5.078125 
Q 19.671875 -8.109375 14.671875 -14.0625 
Q 9.671875 -20.015625 -1.421875 -20.015625 
L -5.171875 -20.015625 
L -5.171875 -11.71875 
L -2.09375 -11.71875 
Q 4.4375 -11.71875 7.125 -8.046875 
Q 9.8125 -4.390625 9.8125 5.078125 
z
" id="DejaVuSans-74"/>
      <path d="M 53.515625 70.515625 
L 53.515625 60.890625 
Q 47.90625 63.578125 42.921875 64.890625 
Q 37.9375 66.21875 33.296875 66.21875 
Q 25.25 66.21875 20.875 63.09375 
Q 16.5 59.96875 16.5 54.203125 
Q 16.5 49.359375 19.40625 46.890625 
Q 22.3125 44.4375 30.421875 42.921875 
L 36.375 41.703125 
Q 47.40625 39.59375 52.65625 34.296875 
Q 57.90625 29 57.90625 20.125 
Q 57.90625 9.515625 50.796875 4.046875 
Q 43.703125 -1.421875 29.984375 -1.421875 
Q 24.8125 -1.421875 18.96875 -0.25 
Q 13.140625 0.921875 6.890625 3.21875 
L 6.890625 13.375 
Q 12.890625 10.015625 18.65625 8.296875 
Q 24.421875 6.59375 29.984375 6.59375 
Q 38.421875 6.59375 43.015625 9.90625 
Q 47.609375 13.234375 47.609375 19.390625 
Q 47.609375 24.75 44.3125 27.78125 
Q 41.015625 30.8125 33.5 32.328125 
L 27.484375 33.5 
Q 16.453125 35.6875 11.515625 40.375 
Q 6.59375 45.0625 6.59375 53.421875 
Q 6.59375 63.09375 13.40625 68.65625 
Q 20.21875 74.21875 32.171875 74.21875 
Q 37.3125 74.21875 42.625 73.28125 
Q 47.953125 72.359375 53.515625 70.515625 
z
" id="DejaVuSans-83"/>
      <path d="M 19.671875 64.796875 
L 19.671875 8.109375 
L 31.59375 8.109375 
Q 46.6875 8.109375 53.6875 14.9375 
Q 60.6875 21.78125 60.6875 36.53125 
Q 60.6875 51.171875 53.6875 57.984375 
Q 46.6875 64.796875 31.59375 64.796875 
z
M 9.8125 72.90625 
L 30.078125 72.90625 
Q 51.265625 72.90625 61.171875 64.09375 
Q 71.09375 55.28125 71.09375 36.53125 
Q 71.09375 17.671875 61.125 8.828125 
Q 51.171875 0 30.078125 0 
L 9.8125 0 
z
" id="DejaVuSans-68"/>
      <path d="M 9.421875 54.6875 
L 18.40625 54.6875 
L 18.40625 0 
L 9.421875 0 
z
M 9.421875 75.984375 
L 18.40625 75.984375 
L 18.40625 64.59375 
L 9.421875 64.59375 
z
" id="DejaVuSans-105"/>
      <path d="M 2.984375 54.6875 
L 12.5 54.6875 
L 29.59375 8.796875 
L 46.6875 54.6875 
L 56.203125 54.6875 
L 35.6875 0 
L 23.484375 0 
z
" id="DejaVuSans-118"/>
      <path d="M 56.203125 29.59375 
L 56.203125 25.203125 
L 14.890625 25.203125 
Q 15.484375 15.921875 20.484375 11.0625 
Q 25.484375 6.203125 34.421875 6.203125 
Q 39.59375 6.203125 44.453125 7.46875 
Q 49.3125 8.734375 54.109375 11.28125 
L 54.109375 2.78125 
Q 49.265625 0.734375 44.1875 -0.34375 
Q 39.109375 -1.421875 33.890625 -1.421875 
Q 20.796875 -1.421875 13.15625 6.1875 
Q 5.515625 13.8125 5.515625 26.8125 
Q 5.515625 40.234375 12.765625 48.109375 
Q 20.015625 56 32.328125 56 
Q 43.359375 56 49.78125 48.890625 
Q 56.203125 41.796875 56.203125 29.59375 
z
M 47.21875 32.234375 
Q 47.125 39.59375 43.09375 43.984375 
Q 39.0625 48.390625 32.421875 48.390625 
Q 24.90625 48.390625 20.390625 44.140625 
Q 15.875 39.890625 15.1875 32.171875 
z
" id="DejaVuSans-101"/>
      <path d="M 41.109375 46.296875 
Q 39.59375 47.171875 37.8125 47.578125 
Q 36.03125 48 33.890625 48 
Q 26.265625 48 22.1875 43.046875 
Q 18.109375 38.09375 18.109375 28.8125 
L 18.109375 0 
L 9.078125 0 
L 9.078125 54.6875 
L 18.109375 54.6875 
L 18.109375 46.1875 
Q 20.953125 51.171875 25.484375 53.578125 
Q 30.03125 56 36.53125 56 
Q 37.453125 56 38.578125 55.875 
Q 39.703125 55.765625 41.0625 55.515625 
z
" id="DejaVuSans-114"/>
      <path d="M 45.40625 27.984375 
Q 45.40625 37.75 41.375 43.109375 
Q 37.359375 48.484375 30.078125 48.484375 
Q 22.859375 48.484375 18.828125 43.109375 
Q 14.796875 37.75 14.796875 27.984375 
Q 14.796875 18.265625 18.828125 12.890625 
Q 22.859375 7.515625 30.078125 7.515625 
Q 37.359375 7.515625 41.375 12.890625 
Q 45.40625 18.265625 45.40625 27.984375 
z
M 54.390625 6.78125 
Q 54.390625 -7.171875 48.1875 -13.984375 
Q 42 -20.796875 29.203125 -20.796875 
Q 24.46875 -20.796875 20.265625 -20.09375 
Q 16.0625 -19.390625 12.109375 -17.921875 
L 12.109375 -9.1875 
Q 16.0625 -11.328125 19.921875 -12.34375 
Q 23.78125 -13.375 27.78125 -13.375 
Q 36.625 -13.375 41.015625 -8.765625 
Q 45.40625 -4.15625 45.40625 5.171875 
L 45.40625 9.625 
Q 42.625 4.78125 38.28125 2.390625 
Q 33.9375 0 27.875 0 
Q 17.828125 0 11.671875 7.65625 
Q 5.515625 15.328125 5.515625 27.984375 
Q 5.515625 40.671875 11.671875 48.328125 
Q 17.828125 56 27.875 56 
Q 33.9375 56 38.28125 53.609375 
Q 42.625 51.21875 45.40625 46.390625 
L 45.40625 54.6875 
L 54.390625 54.6875 
z
" id="DejaVuSans-103"/>
      <path d="M 54.890625 33.015625 
L 54.890625 0 
L 45.90625 0 
L 45.90625 32.71875 
Q 45.90625 40.484375 42.875 44.328125 
Q 39.84375 48.1875 33.796875 48.1875 
Q 26.515625 48.1875 22.3125 43.546875 
Q 18.109375 38.921875 18.109375 30.90625 
L 18.109375 0 
L 9.078125 0 
L 9.078125 54.6875 
L 18.109375 54.6875 
L 18.109375 46.1875 
Q 21.34375 51.125 25.703125 53.5625 
Q 30.078125 56 35.796875 56 
Q 45.21875 56 50.046875 50.171875 
Q 54.890625 44.34375 54.890625 33.015625 
z
" id="DejaVuSans-110"/>
      <path d="M 48.78125 52.59375 
L 48.78125 44.1875 
Q 44.96875 46.296875 41.140625 47.34375 
Q 37.3125 48.390625 33.40625 48.390625 
Q 24.65625 48.390625 19.8125 42.84375 
Q 14.984375 37.3125 14.984375 27.296875 
Q 14.984375 17.28125 19.8125 11.734375 
Q 24.65625 6.203125 33.40625 6.203125 
Q 37.3125 6.203125 41.140625 7.25 
Q 44.96875 8.296875 48.78125 10.40625 
L 48.78125 2.09375 
Q 45.015625 0.34375 40.984375 -0.53125 
Q 36.96875 -1.421875 32.421875 -1.421875 
Q 20.0625 -1.421875 12.78125 6.34375 
Q 5.515625 14.109375 5.515625 27.296875 
Q 5.515625 40.671875 12.859375 48.328125 
Q 20.21875 56 33.015625 56 
Q 37.15625 56 41.109375 55.140625 
Q 45.0625 54.296875 48.78125 52.59375 
z
" id="DejaVuSans-99"/>
      <path d="M 4.203125 54.6875 
L 13.1875 54.6875 
L 24.421875 12.015625 
L 35.59375 54.6875 
L 46.1875 54.6875 
L 57.421875 12.015625 
L 68.609375 54.6875 
L 77.59375 54.6875 
L 63.28125 0 
L 52.6875 0 
L 40.921875 44.828125 
L 29.109375 0 
L 18.5 0 
z
" id="DejaVuSans-119"/>
      <path d="M 18.3125 70.21875 
L 18.3125 54.6875 
L 36.8125 54.6875 
L 36.8125 47.703125 
L 18.3125 47.703125 
L 18.3125 18.015625 
Q 18.3125 11.328125 20.140625 9.421875 
Q 21.96875 7.515625 27.59375 7.515625 
L 36.8125 7.515625 
L 36.8125 0 
L 27.59375 0 
Q 17.1875 0 13.234375 3.875 
Q 9.28125 7.765625 9.28125 18.015625 
L 9.28125 47.703125 
L 2.6875 47.703125 
L 2.6875 54.6875 
L 9.28125 54.6875 
L 9.28125 70.21875 
z
" id="DejaVuSans-116"/>
      <path d="M 54.890625 33.015625 
L 54.890625 0 
L 45.90625 0 
L 45.90625 32.71875 
Q 45.90625 40.484375 42.875 44.328125 
Q 39.84375 48.1875 33.796875 48.1875 
Q 26.515625 48.1875 22.3125 43.546875 
Q 18.109375 38.921875 18.109375 30.90625 
L 18.109375 0 
L 9.078125 0 
L 9.078125 75.984375 
L 18.109375 75.984375 
L 18.109375 46.1875 
Q 21.34375 51.125 25.703125 53.5625 
Q 30.078125 56 35.796875 56 
Q 45.21875 56 50.046875 50.171875 
Q 54.890625 44.34375 54.890625 33.015625 
z
" id="DejaVuSans-104"/>
      <path d="M 19.734375 29.5 
Q 14.453125 30.671875 12.15625 33.84375 
Q 10.453125 36.078125 10.453125 39.109375 
Q 10.453125 47.40625 18.359375 52.25 
Q 24.609375 56.0625 34.1875 56.0625 
Q 37.890625 56.0625 41.9375 55.46875 
Q 46 54.890625 50.53125 53.71875 
L 48.96875 45.5625 
Q 44.484375 46.96875 40.71875 47.609375 
Q 36.859375 48.25 33.40625 48.25 
Q 27.59375 48.25 23.78125 46 
Q 19.1875 43.3125 19.1875 39.40625 
Q 19.1875 36.8125 21.578125 35.015625 
Q 24.421875 32.859375 30.078125 32.859375 
L 37.640625 32.859375 
L 36.234375 25.4375 
L 29 25.4375 
Q 22.265625 25.4375 18.3125 22.953125 
Q 12.9375 19.578125 12.9375 14.3125 
Q 12.9375 10.984375 15.828125 8.796875 
Q 19.4375 6.0625 26.8125 6.0625 
Q 31.34375 6.0625 35.6875 6.9375 
Q 40.046875 7.859375 43.84375 9.671875 
L 42.1875 1.3125 
Q 37.546875 -0.046875 33.296875 -0.734375 
Q 29.046875 -1.421875 25.140625 -1.421875 
Q 13.53125 -1.421875 8.0625 3.03125 
Q 3.90625 6.453125 3.90625 12.203125 
Q 3.90625 19.96875 9.375 24.75 
Q 13.421875 28.328125 19.734375 29.5 
z
" id="DejaVuSans-Oblique-949"/>
     </defs>
     <g transform="translate(51.405833 311.617917)scale(0.2 -0.2)">
      <use transform="translate(0 0.015625)" xlink:href="#DejaVuSans-77"/>
      <use transform="translate(86.279297 0.015625)" xlink:href="#DejaVuSans-97"/>
      <use transform="translate(147.558594 0.015625)" xlink:href="#DejaVuSans-120"/>
      <use transform="translate(206.738281 0.015625)" xlink:href="#DejaVuSans-32"/>
      <use transform="translate(238.525391 0.015625)" xlink:href="#DejaVuSans-74"/>
      <use transform="translate(268.017578 0.015625)" xlink:href="#DejaVuSans-83"/>
      <use transform="translate(331.494141 0.015625)" xlink:href="#DejaVuSans-32"/>
      <use transform="translate(363.28125 0.015625)" xlink:href="#DejaVuSans-68"/>
      <use transform="translate(440.283203 0.015625)" xlink:href="#DejaVuSans-105"/>
      <use transform="translate(468.066406 0.015625)" xlink:href="#DejaVuSans-118"/>
      <use transform="translate(527.246094 0.015625)" xlink:href="#DejaVuSans-101"/>
      <use transform="translate(588.769531 0.015625)" xlink:href="#DejaVuSans-114"/>
      <use transform="translate(629.882812 0.015625)" xlink:href="#DejaVuSans-103"/>
      <use transform="translate(693.359375 0.015625)" xlink:href="#DejaVuSans-101"/>
      <use transform="translate(754.882812 0.015625)" xlink:href="#DejaVuSans-110"/>
      <use transform="translate(818.261719 0.015625)" xlink:href="#DejaVuSans-99"/>
      <use transform="translate(873.242188 0.015625)" xlink:href="#DejaVuSans-101"/>
      <use transform="translate(934.765625 0.015625)" xlink:href="#DejaVuSans-32"/>
      <use transform="translate(966.552734 0.015625)" xlink:href="#DejaVuSans-119"/>
      <use transform="translate(1048.339844 0.015625)" xlink:href="#DejaVuSans-105"/>
      <use transform="translate(1076.123047 0.015625)" xlink:href="#DejaVuSans-116"/>
      <use transform="translate(1115.332031 0.015625)" xlink:href="#DejaVuSans-104"/>
      <use transform="translate(1178.710938 0.015625)" xlink:href="#DejaVuSans-105"/>
      <use transform="translate(1206.494141 0.015625)" xlink:href="#DejaVuSans-110"/>
      <use transform="translate(1269.873047 0.015625)" xlink:href="#DejaVuSans-32"/>
      <use transform="translate(1301.660156 0.015625)" xlink:href="#DejaVuSans-Oblique-949"/>
     </g>
    </g>
   </g>
   <g id="matplotlib.axis_2">
    <g id="ytick_1">
     <g id="line2d_5">
      <defs>
       <path d="M 0 0 
L -3.5 0 
" id="m24918263c2" style="stroke:#000000;stroke-width:1.6;"/>
      </defs>
      <g>
       <use style="stroke:#000000;stroke-width:1.6;" x="59.575" xlink:href="#m24918263c2" y="258.361667"/>
      </g>
     </g>
     <g id="text_6">
      <!-- 0.00 -->
      <g transform="translate(0.34375 265.960104)scale(0.2 -0.2)">
       <use xlink:href="#DejaVuSans-48"/>
       <use x="63.623047" xlink:href="#DejaVuSans-46"/>
       <use x="95.410156" xlink:href="#DejaVuSans-48"/>
       <use x="159.033203" xlink:href="#DejaVuSans-48"/>
      </g>
     </g>
    </g>
    <g id="ytick_2">
     <g id="line2d_6">
      <g>
       <use style="stroke:#000000;stroke-width:1.6;" x="59.575" xlink:href="#m24918263c2" y="205.015426"/>
      </g>
     </g>
     <g id="text_7">
      <!-- 0.02 -->
      <g transform="translate(0.34375 212.613863)scale(0.2 -0.2)">
       <use xlink:href="#DejaVuSans-48"/>
       <use x="63.623047" xlink:href="#DejaVuSans-46"/>
       <use x="95.410156" xlink:href="#DejaVuSans-48"/>
       <use x="159.033203" xlink:href="#DejaVuSans-50"/>
      </g>
     </g>
    </g>
    <g id="ytick_3">
     <g id="line2d_7">
      <g>
       <use style="stroke:#000000;stroke-width:1.6;" x="59.575" xlink:href="#m24918263c2" y="151.669185"/>
      </g>
     </g>
     <g id="text_8">
      <!-- 0.04 -->
      <g transform="translate(0.34375 159.267622)scale(0.2 -0.2)">
       <use xlink:href="#DejaVuSans-48"/>
       <use x="63.623047" xlink:href="#DejaVuSans-46"/>
       <use x="95.410156" xlink:href="#DejaVuSans-48"/>
       <use x="159.033203" xlink:href="#DejaVuSans-52"/>
      </g>
     </g>
    </g>
    <g id="ytick_4">
     <g id="line2d_8">
      <g>
       <use style="stroke:#000000;stroke-width:1.6;" x="59.575" xlink:href="#m24918263c2" y="98.322943"/>
      </g>
     </g>
     <g id="text_9">
      <!-- 0.06 -->
      <g transform="translate(0.34375 105.921381)scale(0.2 -0.2)">
       <use xlink:href="#DejaVuSans-48"/>
       <use x="63.623047" xlink:href="#DejaVuSans-46"/>
       <use x="95.410156" xlink:href="#DejaVuSans-48"/>
       <use x="159.033203" xlink:href="#DejaVuSans-54"/>
      </g>
     </g>
    </g>
    <g id="ytick_5">
     <g id="line2d_9">
      <g>
       <use style="stroke:#000000;stroke-width:1.6;" x="59.575" xlink:href="#m24918263c2" y="44.976702"/>
      </g>
     </g>
     <g id="text_10">
      <!-- 0.08 -->
      <defs>
       <path d="M 31.78125 34.625 
Q 24.75 34.625 20.71875 30.859375 
Q 16.703125 27.09375 16.703125 20.515625 
Q 16.703125 13.921875 20.71875 10.15625 
Q 24.75 6.390625 31.78125 6.390625 
Q 38.8125 6.390625 42.859375 10.171875 
Q 46.921875 13.96875 46.921875 20.515625 
Q 46.921875 27.09375 42.890625 30.859375 
Q 38.875 34.625 31.78125 34.625 
z
M 21.921875 38.8125 
Q 15.578125 40.375 12.03125 44.71875 
Q 8.5 49.078125 8.5 55.328125 
Q 8.5 64.0625 14.71875 69.140625 
Q 20.953125 74.21875 31.78125 74.21875 
Q 42.671875 74.21875 48.875 69.140625 
Q 55.078125 64.0625 55.078125 55.328125 
Q 55.078125 49.078125 51.53125 44.71875 
Q 48 40.375 41.703125 38.8125 
Q 48.828125 37.15625 52.796875 32.3125 
Q 56.78125 27.484375 56.78125 20.515625 
Q 56.78125 9.90625 50.3125 4.234375 
Q 43.84375 -1.421875 31.78125 -1.421875 
Q 19.734375 -1.421875 13.25 4.234375 
Q 6.78125 9.90625 6.78125 20.515625 
Q 6.78125 27.484375 10.78125 32.3125 
Q 14.796875 37.15625 21.921875 38.8125 
z
M 18.3125 54.390625 
Q 18.3125 48.734375 21.84375 45.5625 
Q 25.390625 42.390625 31.78125 42.390625 
Q 38.140625 42.390625 41.71875 45.5625 
Q 45.3125 48.734375 45.3125 54.390625 
Q 45.3125 60.0625 41.71875 63.234375 
Q 38.140625 66.40625 31.78125 66.40625 
Q 25.390625 66.40625 21.84375 63.234375 
Q 18.3125 60.0625 18.3125 54.390625 
z
" id="DejaVuSans-56"/>
      </defs>
      <g transform="translate(0.34375 52.57514)scale(0.2 -0.2)">
       <use xlink:href="#DejaVuSans-48"/>
       <use x="63.623047" xlink:href="#DejaVuSans-46"/>
       <use x="95.410156" xlink:href="#DejaVuSans-48"/>
       <use x="159.033203" xlink:href="#DejaVuSans-56"/>
      </g>
     </g>
    </g>
   </g>
   <g id="patch_43">
    <path d="M 59.575 258.361667 
L 59.575 3.5 
" style="fill:none;stroke:#000000;stroke-linecap:square;stroke-linejoin:miter;stroke-width:0.8;"/>
   </g>
   <g id="patch_44">
    <path d="M 59.575 258.361667 
L 314.436667 258.361667 
" style="fill:none;stroke:#000000;stroke-linecap:square;stroke-linejoin:miter;stroke-width:0.8;"/>
   </g>
  </g>
  <g id="axes_2">
   <g id="patch_45">
    <path d="M 425.796667 258.361667 
L 680.658333 258.361667 
L 680.658333 3.5 
L 425.796667 3.5 
z
" style="fill:#ffffff;"/>
   </g>
   <g id="PolyCollection_1">
    <defs>
     <path d="M 490.302361 -283.670879 
L 490.302361 -283.737038 
L 492.133774 -283.737452 
L 493.965187 -283.737244 
L 495.7966 -283.740561 
L 497.628012 -283.751236 
L 499.459425 -283.770366 
L 501.290838 -283.795029 
L 503.122251 -283.819316 
L 504.953664 -283.8377 
L 506.785077 -283.849034 
L 508.616489 -283.858414 
L 510.447902 -283.875142 
L 512.279315 -283.907739 
L 514.110728 -283.959122 
L 515.942141 -284.024678 
L 517.773554 -284.093728 
L 519.604967 -284.153161 
L 521.436379 -284.192151 
L 523.267792 -284.207299 
L 525.099205 -284.206475 
L 526.930618 -284.208233 
L 528.762031 -284.235282 
L 530.593444 -284.305095 
L 532.424856 -284.42364 
L 534.256269 -284.585479 
L 536.087682 -284.778106 
L 537.919095 -284.986472 
L 539.750508 -285.196195 
L 541.581921 -285.396509 
L 543.413334 -285.583357 
L 545.244746 -285.761422 
L 547.076159 -285.944011 
L 548.907572 -286.150622 
L 550.738985 -286.402225 
L 552.570398 -286.714716 
L 554.401811 -287.09329 
L 556.233224 -287.53228 
L 558.064636 -288.022383 
L 559.896049 -288.560849 
L 561.727462 -289.156441 
L 563.558875 -289.824545 
L 565.390288 -290.575324 
L 567.221701 -291.402082 
L 569.053113 -292.275582 
L 570.884526 -293.147106 
L 572.715939 -293.961981 
L 574.547352 -294.68336 
L 576.378765 -295.317964 
L 578.210178 -295.925527 
L 580.041591 -296.596209 
L 581.873003 -297.4025 
L 583.704416 -298.357277 
L 585.535829 -299.409276 
L 587.367242 -300.476889 
L 589.198655 -301.490624 
L 591.030068 -302.414681 
L 592.86148 -303.243669 
L 594.692893 -303.989577 
L 596.524306 -304.670371 
L 598.355719 -305.30067 
L 600.187132 -305.885731 
L 602.018545 -306.425333 
L 603.849958 -306.925952 
L 605.68137 -307.404162 
L 607.512783 -307.868897 
L 609.344196 -308.298781 
L 611.175609 -308.646728 
L 613.007022 -308.87798 
L 614.838435 -309.005851 
L 616.669848 -309.083894 
L 618.50126 -309.153723 
L 620.332673 -309.190125 
L 622.164086 -309.089082 
L 623.995499 -308.71216 
L 625.826912 -307.960923 
L 627.658325 -306.833973 
L 629.489737 -305.429813 
L 631.32115 -303.895123 
L 633.152563 -302.354701 
L 634.983976 -300.868463 
L 636.815389 -299.436089 
L 638.646802 -298.033198 
L 640.478215 -296.644979 
L 642.309627 -295.275923 
L 644.14104 -293.940202 
L 645.972453 -292.650122 
L 647.803866 -291.413338 
L 649.635279 -290.237114 
L 651.466692 -289.133214 
L 653.298104 -288.119264 
L 655.129517 -287.215556 
L 656.96093 -286.438343 
L 658.792343 -285.792975 
L 660.623756 -285.271492 
L 662.455169 -284.856825 
L 664.286582 -284.530555 
L 666.117994 -284.278358 
L 667.949407 -284.089914 
L 669.78082 -283.955486 
L 671.612233 -283.863737 
L 671.612233 -283.544179 
L 671.612233 -283.544179 
L 669.78082 -283.452431 
L 667.949407 -283.318002 
L 666.117994 -283.129559 
L 664.286582 -282.877362 
L 662.455169 -282.551092 
L 660.623756 -282.136424 
L 658.792343 -281.614942 
L 656.96093 -280.969574 
L 655.129517 -280.192361 
L 653.298104 -279.288652 
L 651.466692 -278.274703 
L 649.635279 -277.170803 
L 647.803866 -275.994579 
L 645.972453 -274.757794 
L 644.14104 -273.467715 
L 642.309627 -272.131993 
L 640.478215 -270.762937 
L 638.646802 -269.374718 
L 636.815389 -267.971828 
L 634.983976 -266.539454 
L 633.152563 -265.053215 
L 631.32115 -263.512794 
L 629.489737 -261.978103 
L 627.658325 -260.573944 
L 625.826912 -259.446993 
L 623.995499 -258.695757 
L 622.164086 -258.318835 
L 620.332673 -258.217792 
L 618.50126 -258.254193 
L 616.669848 -258.324023 
L 614.838435 -258.402066 
L 613.007022 -258.529936 
L 611.175609 -258.761189 
L 609.344196 -259.109136 
L 607.512783 -259.53902 
L 605.68137 -260.003754 
L 603.849958 -260.481965 
L 602.018545 -260.982584 
L 600.187132 -261.522186 
L 598.355719 -262.107246 
L 596.524306 -262.737546 
L 594.692893 -263.41834 
L 592.86148 -264.164248 
L 591.030068 -264.993236 
L 589.198655 -265.917293 
L 587.367242 -266.931028 
L 585.535829 -267.998641 
L 583.704416 -269.05064 
L 581.873003 -270.005417 
L 580.041591 -270.811708 
L 578.210178 -271.482389 
L 576.378765 -272.089953 
L 574.547352 -272.724557 
L 572.715939 -273.445936 
L 570.884526 -274.260811 
L 569.053113 -275.132334 
L 567.221701 -276.005835 
L 565.390288 -276.832593 
L 563.558875 -277.583372 
L 561.727462 -278.251476 
L 559.896049 -278.847068 
L 558.064636 -279.385534 
L 556.233224 -279.875636 
L 554.401811 -280.314626 
L 552.570398 -280.693201 
L 550.738985 -281.005691 
L 548.907572 -281.257295 
L 547.076159 -281.463906 
L 545.244746 -281.646494 
L 543.413334 -281.824559 
L 541.581921 -282.011407 
L 539.750508 -282.211722 
L 537.919095 -282.421444 
L 536.087682 -282.62981 
L 534.256269 -282.822438 
L 532.424856 -282.984276 
L 530.593444 -283.102822 
L 528.762031 -283.172635 
L 526.930618 -283.199684 
L 525.099205 -283.201442 
L 523.267792 -283.200617 
L 521.436379 -283.215765 
L 519.604967 -283.254756 
L 517.773554 -283.314189 
L 515.942141 -283.383238 
L 514.110728 -283.448795 
L 512.279315 -283.500177 
L 510.447902 -283.532774 
L 508.616489 -283.549503 
L 506.785077 -283.558883 
L 504.953664 -283.570217 
L 503.122251 -283.5886 
L 501.290838 -283.612888 
L 499.459425 -283.637551 
L 497.628012 -283.65668 
L 495.7966 -283.667356 
L 493.965187 -283.670673 
L 492.133774 -283.670465 
L 490.302361 -283.670879 
z
" id="mc05f66fab0" style="stroke:#333333;"/>
    </defs>
    <g clip-path="url(#p77ef424e21)">
     <use style="fill:#484566;stroke:#333333;" x="0" xlink:href="#mc05f66fab0" y="319.061667"/>
    </g>
   </g>
   <g id="PolyCollection_2">
    <defs>
     <path d="M 471.850375 -218.607911 
L 471.850375 -221.369172 
L 473.808382 -221.627548 
L 475.766389 -221.913605 
L 477.724396 -222.226256 
L 479.682403 -222.563224 
L 481.64041 -222.920849 
L 483.598417 -223.293993 
L 485.556424 -223.676123 
L 487.514431 -224.059628 
L 489.472438 -224.436379 
L 491.430445 -224.798521 
L 493.388452 -225.139409 
L 495.346459 -225.454546 
L 497.304466 -225.742373 
L 499.262473 -226.004727 
L 501.220479 -226.246842 
L 503.178486 -226.476843 
L 505.136493 -226.70476 
L 507.0945 -226.941205 
L 509.052507 -227.195926 
L 511.010514 -227.476484 
L 512.968521 -227.78727 
L 514.926528 -228.12905 
L 516.884535 -228.499082 
L 518.842542 -228.891778 
L 520.800549 -229.299777 
L 522.758556 -229.715241 
L 524.716563 -230.131152 
L 526.67457 -230.542431 
L 528.632577 -230.946717 
L 530.590584 -231.344711 
L 532.548591 -231.740072 
L 534.506598 -232.138876 
L 536.464605 -232.548721 
L 538.422612 -232.977594 
L 540.380619 -233.432675 
L 542.338626 -233.91923 
L 544.296633 -234.439796 
L 546.25464 -234.993794 
L 548.212647 -235.577651 
L 550.170654 -236.185438 
L 552.128661 -236.809885 
L 554.086668 -237.443576 
L 556.044675 -238.080068 
L 558.002682 -238.71466 
L 559.960689 -239.344642 
L 561.918696 -239.968952 
L 563.876703 -240.587331 
L 565.83471 -241.199177 
L 567.792717 -241.802384 
L 569.750724 -242.392454 
L 571.708731 -242.962091 
L 573.666738 -243.501366 
L 575.624745 -243.998422 
L 577.582752 -244.440556 
L 579.540759 -244.81548 
L 581.498766 -245.112546 
L 583.456773 -245.323792 
L 585.41478 -245.444707 
L 587.372787 -245.474708 
L 589.330794 -245.417339 
L 591.288801 -245.280195 
L 593.246808 -245.074572 
L 595.204815 -244.814825 
L 597.162822 -244.51739 
L 599.120829 -244.199497 
L 601.078836 -243.877647 
L 603.036843 -243.565997 
L 604.99485 -243.274862 
L 606.952857 -243.009564 
L 608.910864 -242.769807 
L 610.868871 -242.549702 
L 612.826878 -242.338439 
L 614.784885 -242.121487 
L 616.742892 -241.882156 
L 618.700899 -241.603268 
L 620.658906 -241.268751 
L 622.616913 -240.864975 
L 624.57492 -240.381749 
L 626.532927 -239.812951 
L 628.490934 -239.156815 
L 630.448941 -238.415909 
L 632.406948 -237.596854 
L 634.364955 -236.709814 
L 636.322962 -235.767763 
L 638.280969 -234.78559 
L 640.238976 -233.779066 
L 642.196983 -232.763773 
L 644.15499 -231.754105 
L 646.112997 -230.76245 
L 648.071004 -229.79867 
L 650.029011 -228.869944 
L 651.987018 -227.98096 
L 653.945025 -227.134419 
L 655.903032 -226.331719 
L 657.861039 -225.573673 
L 659.819046 -224.86113 
L 661.777053 -224.195365 
L 663.73506 -223.578205 
L 665.693067 -223.011875 
L 665.693067 -216.965208 
L 665.693067 -216.965208 
L 663.73506 -216.398878 
L 661.777053 -215.781718 
L 659.819046 -215.115953 
L 657.861039 -214.40341 
L 655.903032 -213.645365 
L 653.945025 -212.842665 
L 651.987018 -211.996124 
L 650.029011 -211.10714 
L 648.071004 -210.178413 
L 646.112997 -209.214634 
L 644.15499 -208.222978 
L 642.196983 -207.21331 
L 640.238976 -206.198017 
L 638.280969 -205.191493 
L 636.322962 -204.20932 
L 634.364955 -203.26727 
L 632.406948 -202.380229 
L 630.448941 -201.561175 
L 628.490934 -200.820268 
L 626.532927 -200.164132 
L 624.57492 -199.595334 
L 622.616913 -199.112108 
L 620.658906 -198.708333 
L 618.700899 -198.373816 
L 616.742892 -198.094928 
L 614.784885 -197.855596 
L 612.826878 -197.638645 
L 610.868871 -197.427381 
L 608.910864 -197.207277 
L 606.952857 -196.967519 
L 604.99485 -196.702221 
L 603.036843 -196.411087 
L 601.078836 -196.099437 
L 599.120829 -195.777587 
L 597.162822 -195.459694 
L 595.204815 -195.162258 
L 593.246808 -194.902511 
L 591.288801 -194.696889 
L 589.330794 -194.559744 
L 587.372787 -194.502375 
L 585.41478 -194.532376 
L 583.456773 -194.653291 
L 581.498766 -194.864537 
L 579.540759 -195.161604 
L 577.582752 -195.536527 
L 575.624745 -195.978661 
L 573.666738 -196.475717 
L 571.708731 -197.014992 
L 569.750724 -197.584629 
L 567.792717 -198.1747 
L 565.83471 -198.777906 
L 563.876703 -199.389752 
L 561.918696 -200.008131 
L 559.960689 -200.632441 
L 558.002682 -201.262423 
L 556.044675 -201.897016 
L 554.086668 -202.533508 
L 552.128661 -203.167199 
L 550.170654 -203.791645 
L 548.212647 -204.399432 
L 546.25464 -204.98329 
L 544.296633 -205.537287 
L 542.338626 -206.057853 
L 540.380619 -206.544408 
L 538.422612 -206.999489 
L 536.464605 -207.428363 
L 534.506598 -207.838207 
L 532.548591 -208.237011 
L 530.590584 -208.632373 
L 528.632577 -209.030366 
L 526.67457 -209.434652 
L 524.716563 -209.845932 
L 522.758556 -210.261843 
L 520.800549 -210.677306 
L 518.842542 -211.085305 
L 516.884535 -211.478001 
L 514.926528 -211.848033 
L 512.968521 -212.189813 
L 511.010514 -212.5006 
L 509.052507 -212.781157 
L 507.0945 -213.035879 
L 505.136493 -213.272324 
L 503.178486 -213.50024 
L 501.220479 -213.730242 
L 499.262473 -213.972357 
L 497.304466 -214.23471 
L 495.346459 -214.522537 
L 493.388452 -214.837674 
L 491.430445 -215.178562 
L 489.472438 -215.540705 
L 487.514431 -215.917455 
L 485.556424 -216.30096 
L 483.598417 -216.68309 
L 481.64041 -217.056234 
L 479.682403 -217.413859 
L 477.724396 -217.750828 
L 475.766389 -218.063478 
L 473.808382 -218.349535 
L 471.850375 -218.607911 
z
" id="m474c2a8097" style="stroke:#333333;"/>
    </defs>
    <g clip-path="url(#p77ef424e21)">
     <use style="fill:#484566;stroke:#333333;" x="0" xlink:href="#m474c2a8097" y="319.061667"/>
    </g>
   </g>
   <g id="PolyCollection_3">
    <defs>
     <path d="M 456.647693 -147.257274 
L 456.647693 -165.288976 
L 458.555617 -166.008564 
L 460.463541 -166.742547 
L 462.371466 -167.487598 
L 464.27939 -168.240388 
L 466.187314 -168.997634 
L 468.095238 -169.756139 
L 470.003162 -170.512815 
L 471.911087 -171.264706 
L 473.819011 -172.008986 
L 475.726935 -172.742958 
L 477.634859 -173.46404 
L 479.542783 -174.169739 
L 481.450707 -174.85763 
L 483.358632 -175.525327 
L 485.266556 -176.170466 
L 487.17448 -176.790681 
L 489.082404 -177.383602 
L 490.990328 -177.946861 
L 492.898252 -178.478103 
L 494.806177 -178.975028 
L 496.714101 -179.435432 
L 498.622025 -179.857269 
L 500.529949 -180.238724 
L 502.437873 -180.578282 
L 504.345797 -180.874812 
L 506.253722 -181.12764 
L 508.161646 -181.336611 
L 510.06957 -181.502145 
L 511.977494 -181.625259 
L 513.885418 -181.707584 
L 515.793342 -181.75134 
L 517.701267 -181.759292 
L 519.609191 -181.73468 
L 521.517115 -181.681126 
L 523.425039 -181.602518 
L 525.332963 -181.502887 
L 527.240888 -181.38628 
L 529.148812 -181.256626 
L 531.056736 -181.117626 
L 532.96466 -180.972645 
L 534.872584 -180.824642 
L 536.780508 -180.676113 
L 538.688433 -180.529074 
L 540.596357 -180.385068 
L 542.504281 -180.245197 
L 544.412205 -180.110182 
L 546.320129 -179.980432 
L 548.228053 -179.856129 
L 550.135978 -179.73731 
L 552.043902 -179.623941 
L 553.951826 -179.515984 
L 555.85975 -179.413436 
L 557.767674 -179.316353 
L 559.675598 -179.224844 
L 561.583523 -179.13905 
L 563.491447 -179.059088 
L 565.399371 -178.984994 
L 567.307295 -178.916651 
L 569.215219 -178.853709 
L 571.123143 -178.795526 
L 573.031068 -178.741107 
L 574.938992 -178.689073 
L 576.846916 -178.637651 
L 578.75484 -178.584693 
L 580.662764 -178.527724 
L 582.570689 -178.464012 
L 584.478613 -178.390667 
L 586.386537 -178.304752 
L 588.294461 -178.203405 
L 590.202385 -178.083958 
L 592.110309 -177.944053 
L 594.018234 -177.781738 
L 595.926158 -177.595541 
L 597.834082 -177.384517 
L 599.742006 -177.148258 
L 601.64993 -176.886877 
L 603.557854 -176.600956 
L 605.465779 -176.291472 
L 607.373703 -175.959696 
L 609.281627 -175.607081 
L 611.189551 -175.235149 
L 613.097475 -174.84538 
L 615.005399 -174.439104 
L 616.913324 -174.017431 
L 618.821248 -173.581191 
L 620.729172 -173.130912 
L 622.637096 -172.666826 
L 624.54502 -172.188904 
L 626.452944 -171.696928 
L 628.360869 -171.190568 
L 630.268793 -170.669492 
L 632.176717 -170.133474 
L 634.084641 -169.582505 
L 635.992565 -169.016893 
L 637.90049 -168.437349 
L 639.808414 -167.845055 
L 641.716338 -167.241695 
L 643.624262 -166.629467 
L 645.532186 -166.011061 
L 645.532186 -146.535189 
L 645.532186 -146.535189 
L 643.624262 -145.916783 
L 641.716338 -145.304555 
L 639.808414 -144.701195 
L 637.90049 -144.108901 
L 635.992565 -143.529357 
L 634.084641 -142.963745 
L 632.176717 -142.412776 
L 630.268793 -141.876758 
L 628.360869 -141.355682 
L 626.452944 -140.849322 
L 624.54502 -140.357346 
L 622.637096 -139.879424 
L 620.729172 -139.415338 
L 618.821248 -138.965059 
L 616.913324 -138.528819 
L 615.005399 -138.107146 
L 613.097475 -137.70087 
L 611.189551 -137.311101 
L 609.281627 -136.939169 
L 607.373703 -136.586554 
L 605.465779 -136.254778 
L 603.557854 -135.945294 
L 601.64993 -135.659373 
L 599.742006 -135.397992 
L 597.834082 -135.161733 
L 595.926158 -134.950709 
L 594.018234 -134.764512 
L 592.110309 -134.602197 
L 590.202385 -134.462292 
L 588.294461 -134.342845 
L 586.386537 -134.241498 
L 584.478613 -134.155583 
L 582.570689 -134.082238 
L 580.662764 -134.018526 
L 578.75484 -133.961557 
L 576.846916 -133.908599 
L 574.938992 -133.857177 
L 573.031068 -133.805143 
L 571.123143 -133.750724 
L 569.215219 -133.692541 
L 567.307295 -133.629599 
L 565.399371 -133.561256 
L 563.491447 -133.487162 
L 561.583523 -133.4072 
L 559.675598 -133.321406 
L 557.767674 -133.229897 
L 555.85975 -133.132814 
L 553.951826 -133.030266 
L 552.043902 -132.922309 
L 550.135978 -132.80894 
L 548.228053 -132.690121 
L 546.320129 -132.565818 
L 544.412205 -132.436068 
L 542.504281 -132.301053 
L 540.596357 -132.161182 
L 538.688433 -132.017176 
L 536.780508 -131.870137 
L 534.872584 -131.721608 
L 532.96466 -131.573605 
L 531.056736 -131.428624 
L 529.148812 -131.289624 
L 527.240888 -131.15997 
L 525.332963 -131.043363 
L 523.425039 -130.943732 
L 521.517115 -130.865124 
L 519.609191 -130.81157 
L 517.701267 -130.786958 
L 515.793342 -130.79491 
L 513.885418 -130.838666 
L 511.977494 -130.920991 
L 510.06957 -131.044105 
L 508.161646 -131.209639 
L 506.253722 -131.41861 
L 504.345797 -131.671438 
L 502.437873 -131.967968 
L 500.529949 -132.307526 
L 498.622025 -132.688981 
L 496.714101 -133.110818 
L 494.806177 -133.571222 
L 492.898252 -134.068147 
L 490.990328 -134.599389 
L 489.082404 -135.162648 
L 487.17448 -135.755569 
L 485.266556 -136.375784 
L 483.358632 -137.020923 
L 481.450707 -137.68862 
L 479.542783 -138.376511 
L 477.634859 -139.08221 
L 475.726935 -139.803292 
L 473.819011 -140.537264 
L 471.911087 -141.281544 
L 470.003162 -142.033435 
L 468.095238 -142.790111 
L 466.187314 -143.548616 
L 464.27939 -144.305862 
L 462.371466 -145.058652 
L 460.463541 -145.803703 
L 458.555617 -146.537686 
L 456.647693 -147.257274 
z
" id="m81dae6ae38" style="stroke:#333333;"/>
    </defs>
    <g clip-path="url(#p77ef424e21)">
     <use style="fill:#484566;stroke:#333333;" x="0" xlink:href="#m81dae6ae38" y="319.061667"/>
    </g>
   </g>
   <g id="PolyCollection_4">
    <defs>
     <path d="M 468.160013 -76.534693 
L 468.160013 -108.580724 
L 470.101948 -109.498942 
L 472.043883 -110.4035 
L 473.985817 -111.287302 
L 475.927752 -112.143219 
L 477.869687 -112.964191 
L 479.811622 -113.743337 
L 481.753557 -114.474055 
L 483.695491 -115.150128 
L 485.637426 -115.765815 
L 487.579361 -116.315938 
L 489.521296 -116.795961 
L 491.46323 -117.202052 
L 493.405165 -117.531131 
L 495.3471 -117.780914 
L 497.289035 -117.94993 
L 499.23097 -118.037529 
L 501.172904 -118.043875 
L 503.114839 -117.969928 
L 505.056774 -117.817407 
L 506.998709 -117.588745 
L 508.940643 -117.287039 
L 510.882578 -116.91598 
L 512.824513 -116.479785 
L 514.766448 -115.983126 
L 516.708382 -115.43105 
L 518.650317 -114.8289 
L 520.592252 -114.182238 
L 522.534187 -113.496768 
L 524.476122 -112.778267 
L 526.418056 -112.032512 
L 528.359991 -111.265223 
L 530.301926 -110.482002 
L 532.243861 -109.688285 
L 534.185795 -108.889301 
L 536.12773 -108.090032 
L 538.069665 -107.295192 
L 540.0116 -106.509194 
L 541.953535 -105.736147 
L 543.895469 -104.979836 
L 545.837404 -104.243725 
L 547.779339 -103.530953 
L 549.721274 -102.84434 
L 551.663208 -102.186395 
L 553.605143 -101.559326 
L 555.547078 -100.965049 
L 557.489013 -100.405203 
L 559.430947 -99.881162 
L 561.372882 -99.394045 
L 563.314817 -98.944728 
L 565.256752 -98.533851 
L 567.198687 -98.161831 
L 569.140621 -97.828861 
L 571.082556 -97.534916 
L 573.024491 -97.279753 
L 574.966426 -97.062915 
L 576.90836 -96.883722 
L 578.850295 -96.741276 
L 580.79223 -96.634454 
L 582.734165 -96.561907 
L 584.676099 -96.522058 
L 586.618034 -96.513105 
L 588.559969 -96.533025 
L 590.501904 -96.579576 
L 592.443839 -96.650316 
L 594.385773 -96.742609 
L 596.327708 -96.853653 
L 598.269643 -96.980498 
L 600.211578 -97.120077 
L 602.153512 -97.269239 
L 604.095447 -97.424785 
L 606.037382 -97.583509 
L 607.979317 -97.742237 
L 609.921252 -97.897872 
L 611.863186 -98.047437 
L 613.805121 -98.188119 
L 615.747056 -98.317302 
L 617.688991 -98.432612 
L 619.630925 -98.531944 
L 621.57286 -98.613491 
L 623.514795 -98.675765 
L 625.45673 -98.717611 
L 627.398664 -98.738213 
L 629.340599 -98.737098 
L 631.282534 -98.714128 
L 633.224469 -98.669487 
L 635.166404 -98.60366 
L 637.108338 -98.517413 
L 639.050273 -98.411763 
L 640.992208 -98.287942 
L 642.934143 -98.147367 
L 644.876077 -97.991603 
L 646.818012 -97.822325 
L 648.759947 -97.641283 
L 650.701882 -97.450269 
L 652.643817 -97.251084 
L 654.585751 -97.045507 
L 656.527686 -96.835273 
L 658.469621 -96.622046 
L 660.411556 -96.407404 
L 660.411556 -88.708012 
L 660.411556 -88.708012 
L 658.469621 -88.493371 
L 656.527686 -88.280144 
L 654.585751 -88.069909 
L 652.643817 -87.864332 
L 650.701882 -87.665147 
L 648.759947 -87.474134 
L 646.818012 -87.293092 
L 644.876077 -87.123814 
L 642.934143 -86.96805 
L 640.992208 -86.827475 
L 639.050273 -86.703654 
L 637.108338 -86.598003 
L 635.166404 -86.511757 
L 633.224469 -86.44593 
L 631.282534 -86.401288 
L 629.340599 -86.378319 
L 627.398664 -86.377204 
L 625.45673 -86.397806 
L 623.514795 -86.439651 
L 621.57286 -86.501925 
L 619.630925 -86.583473 
L 617.688991 -86.682805 
L 615.747056 -86.798115 
L 613.805121 -86.927298 
L 611.863186 -87.067979 
L 609.921252 -87.217545 
L 607.979317 -87.37318 
L 606.037382 -87.531908 
L 604.095447 -87.690631 
L 602.153512 -87.846177 
L 600.211578 -87.995339 
L 598.269643 -88.134918 
L 596.327708 -88.261763 
L 594.385773 -88.372807 
L 592.443839 -88.465101 
L 590.501904 -88.53584 
L 588.559969 -88.582392 
L 586.618034 -88.602311 
L 584.676099 -88.593359 
L 582.734165 -88.55351 
L 580.79223 -88.480962 
L 578.850295 -88.37414 
L 576.90836 -88.231695 
L 574.966426 -88.052502 
L 573.024491 -87.835664 
L 571.082556 -87.580501 
L 569.140621 -87.286555 
L 567.198687 -86.953585 
L 565.256752 -86.581565 
L 563.314817 -86.170689 
L 561.372882 -85.721372 
L 559.430947 -85.234254 
L 557.489013 -84.710213 
L 555.547078 -84.150368 
L 553.605143 -83.556091 
L 551.663208 -82.929022 
L 549.721274 -82.271077 
L 547.779339 -81.584464 
L 545.837404 -80.871692 
L 543.895469 -80.13558 
L 541.953535 -79.37927 
L 540.0116 -78.606222 
L 538.069665 -77.820225 
L 536.12773 -77.025384 
L 534.185795 -76.226116 
L 532.243861 -75.427132 
L 530.301926 -74.633415 
L 528.359991 -73.850194 
L 526.418056 -73.082905 
L 524.476122 -72.33715 
L 522.534187 -71.618649 
L 520.592252 -70.933179 
L 518.650317 -70.286517 
L 516.708382 -69.684366 
L 514.766448 -69.13229 
L 512.824513 -68.635632 
L 510.882578 -68.199437 
L 508.940643 -67.828377 
L 506.998709 -67.526671 
L 505.056774 -67.29801 
L 503.114839 -67.145489 
L 501.172904 -67.071542 
L 499.23097 -67.077888 
L 497.289035 -67.165486 
L 495.3471 -67.334502 
L 493.405165 -67.584286 
L 491.46323 -67.913365 
L 489.521296 -68.319455 
L 487.579361 -68.799479 
L 485.637426 -69.349602 
L 483.695491 -69.965289 
L 481.753557 -70.641361 
L 479.811622 -71.37208 
L 477.869687 -72.151225 
L 475.927752 -72.972198 
L 473.985817 -73.828114 
L 472.043883 -74.711917 
L 470.101948 -75.616475 
L 468.160013 -76.534693 
z
" id="mf1bad53655" style="stroke:#333333;"/>
    </defs>
    <g clip-path="url(#p77ef424e21)">
     <use style="fill:#484566;stroke:#333333;" x="0" xlink:href="#mf1bad53655" y="319.061667"/>
    </g>
   </g>
   <g id="patch_46">
    <path clip-path="url(#p77ef424e21)" d="M 442.787444 35.357708 
L 442.787444 35.357708 
L 442.787444 35.357708 
L 442.787444 35.357708 
z
" style="fill:#484566;stroke:#333333;stroke-linejoin:miter;stroke-width:0.5;"/>
   </g>
   <g id="matplotlib.axis_3">
    <g id="xtick_5">
     <g id="line2d_10">
      <g>
       <use style="stroke:#000000;stroke-width:1.6;" x="442.787444" xlink:href="#m1fef3eca6b" y="258.361667"/>
      </g>
     </g>
     <g id="text_11">
      <!-- 0.0 -->
      <g transform="translate(426.884319 288.258542)scale(0.2 -0.2)">
       <use xlink:href="#DejaVuSans-48"/>
       <use x="63.623047" xlink:href="#DejaVuSans-46"/>
       <use x="95.410156" xlink:href="#DejaVuSans-48"/>
      </g>
     </g>
    </g>
    <g id="xtick_6">
     <g id="line2d_11">
      <g>
       <use style="stroke:#000000;stroke-width:1.6;" x="510.750556" xlink:href="#m1fef3eca6b" y="258.361667"/>
      </g>
     </g>
     <g id="text_12">
      <!-- 0.2 -->
      <g transform="translate(494.847431 288.258542)scale(0.2 -0.2)">
       <use xlink:href="#DejaVuSans-48"/>
       <use x="63.623047" xlink:href="#DejaVuSans-46"/>
       <use x="95.410156" xlink:href="#DejaVuSans-50"/>
      </g>
     </g>
    </g>
    <g id="xtick_7">
     <g id="line2d_12">
      <g>
       <use style="stroke:#000000;stroke-width:1.6;" x="578.713667" xlink:href="#m1fef3eca6b" y="258.361667"/>
      </g>
     </g>
     <g id="text_13">
      <!-- 0.4 -->
      <g transform="translate(562.810542 288.258542)scale(0.2 -0.2)">
       <use xlink:href="#DejaVuSans-48"/>
       <use x="63.623047" xlink:href="#DejaVuSans-46"/>
       <use x="95.410156" xlink:href="#DejaVuSans-52"/>
      </g>
     </g>
    </g>
    <g id="xtick_8">
     <g id="line2d_13">
      <g>
       <use style="stroke:#000000;stroke-width:1.6;" x="646.676778" xlink:href="#m1fef3eca6b" y="258.361667"/>
      </g>
     </g>
     <g id="text_14">
      <!-- 0.6 -->
      <g transform="translate(630.773653 288.258542)scale(0.2 -0.2)">
       <use xlink:href="#DejaVuSans-48"/>
       <use x="63.623047" xlink:href="#DejaVuSans-46"/>
       <use x="95.410156" xlink:href="#DejaVuSans-54"/>
      </g>
     </g>
    </g>
    <g id="text_15">
     <!-- Max JS Divergence within $\epsilon$ -->
     <g transform="translate(417.6275 311.617917)scale(0.2 -0.2)">
      <use transform="translate(0 0.015625)" xlink:href="#DejaVuSans-77"/>
      <use transform="translate(86.279297 0.015625)" xlink:href="#DejaVuSans-97"/>
      <use transform="translate(147.558594 0.015625)" xlink:href="#DejaVuSans-120"/>
      <use transform="translate(206.738281 0.015625)" xlink:href="#DejaVuSans-32"/>
      <use transform="translate(238.525391 0.015625)" xlink:href="#DejaVuSans-74"/>
      <use transform="translate(268.017578 0.015625)" xlink:href="#DejaVuSans-83"/>
      <use transform="translate(331.494141 0.015625)" xlink:href="#DejaVuSans-32"/>
      <use transform="translate(363.28125 0.015625)" xlink:href="#DejaVuSans-68"/>
      <use transform="translate(440.283203 0.015625)" xlink:href="#DejaVuSans-105"/>
      <use transform="translate(468.066406 0.015625)" xlink:href="#DejaVuSans-118"/>
      <use transform="translate(527.246094 0.015625)" xlink:href="#DejaVuSans-101"/>
      <use transform="translate(588.769531 0.015625)" xlink:href="#DejaVuSans-114"/>
      <use transform="translate(629.882812 0.015625)" xlink:href="#DejaVuSans-103"/>
      <use transform="translate(693.359375 0.015625)" xlink:href="#DejaVuSans-101"/>
      <use transform="translate(754.882812 0.015625)" xlink:href="#DejaVuSans-110"/>
      <use transform="translate(818.261719 0.015625)" xlink:href="#DejaVuSans-99"/>
      <use transform="translate(873.242188 0.015625)" xlink:href="#DejaVuSans-101"/>
      <use transform="translate(934.765625 0.015625)" xlink:href="#DejaVuSans-32"/>
      <use transform="translate(966.552734 0.015625)" xlink:href="#DejaVuSans-119"/>
      <use transform="translate(1048.339844 0.015625)" xlink:href="#DejaVuSans-105"/>
      <use transform="translate(1076.123047 0.015625)" xlink:href="#DejaVuSans-116"/>
      <use transform="translate(1115.332031 0.015625)" xlink:href="#DejaVuSans-104"/>
      <use transform="translate(1178.710938 0.015625)" xlink:href="#DejaVuSans-105"/>
      <use transform="translate(1206.494141 0.015625)" xlink:href="#DejaVuSans-110"/>
      <use transform="translate(1269.873047 0.015625)" xlink:href="#DejaVuSans-32"/>
      <use transform="translate(1301.660156 0.015625)" xlink:href="#DejaVuSans-Oblique-949"/>
     </g>
    </g>
   </g>
   <g id="matplotlib.axis_4">
    <g id="ytick_6">
     <g id="line2d_14">
      <g>
       <use style="stroke:#000000;stroke-width:1.6;" x="425.796667" xlink:href="#m24918263c2" y="35.357708"/>
      </g>
     </g>
     <g id="text_16">
      <!-- [0.00, -->
      <defs>
       <path d="M 8.59375 75.984375 
L 29.296875 75.984375 
L 29.296875 69 
L 17.578125 69 
L 17.578125 -6.203125 
L 29.296875 -6.203125 
L 29.296875 -13.1875 
L 8.59375 -13.1875 
z
" id="DejaVuSans-91"/>
       <path d="M 11.71875 12.40625 
L 22.015625 12.40625 
L 22.015625 4 
L 14.015625 -11.625 
L 7.71875 -11.625 
L 11.71875 4 
z
" id="DejaVuSans-44"/>
      </defs>
      <g transform="translate(352.406042 31.758333)scale(0.2 -0.2)">
       <use xlink:href="#DejaVuSans-91"/>
       <use x="39.013672" xlink:href="#DejaVuSans-48"/>
       <use x="102.636719" xlink:href="#DejaVuSans-46"/>
       <use x="134.423828" xlink:href="#DejaVuSans-48"/>
       <use x="198.046875" xlink:href="#DejaVuSans-48"/>
       <use x="261.669922" xlink:href="#DejaVuSans-44"/>
      </g>
      <!-- 0.25) -->
      <defs>
       <path d="M 10.796875 72.90625 
L 49.515625 72.90625 
L 49.515625 64.59375 
L 19.828125 64.59375 
L 19.828125 46.734375 
Q 21.96875 47.46875 24.109375 47.828125 
Q 26.265625 48.1875 28.421875 48.1875 
Q 40.625 48.1875 47.75 41.5 
Q 54.890625 34.8125 54.890625 23.390625 
Q 54.890625 11.625 47.5625 5.09375 
Q 40.234375 -1.421875 26.90625 -1.421875 
Q 22.3125 -1.421875 17.546875 -0.640625 
Q 12.796875 0.140625 7.71875 1.703125 
L 7.71875 11.625 
Q 12.109375 9.234375 16.796875 8.0625 
Q 21.484375 6.890625 26.703125 6.890625 
Q 35.15625 6.890625 40.078125 11.328125 
Q 45.015625 15.765625 45.015625 23.390625 
Q 45.015625 31 40.078125 35.4375 
Q 35.15625 39.890625 26.703125 39.890625 
Q 22.75 39.890625 18.8125 39.015625 
Q 14.890625 38.140625 10.796875 36.28125 
z
" id="DejaVuSans-53"/>
       <path d="M 8.015625 75.875 
L 15.828125 75.875 
Q 23.140625 64.359375 26.78125 53.3125 
Q 30.421875 42.28125 30.421875 31.390625 
Q 30.421875 20.453125 26.78125 9.375 
Q 23.140625 -1.703125 15.828125 -13.1875 
L 8.015625 -13.1875 
Q 14.5 -2 17.703125 9.0625 
Q 20.90625 20.125 20.90625 31.390625 
Q 20.90625 42.671875 17.703125 53.65625 
Q 14.5 64.65625 8.015625 75.875 
z
" id="DejaVuSans-41"/>
      </defs>
      <g transform="translate(358.762292 54.153958)scale(0.2 -0.2)">
       <use xlink:href="#DejaVuSans-48"/>
       <use x="63.623047" xlink:href="#DejaVuSans-46"/>
       <use x="95.410156" xlink:href="#DejaVuSans-50"/>
       <use x="159.033203" xlink:href="#DejaVuSans-53"/>
       <use x="222.65625" xlink:href="#DejaVuSans-41"/>
      </g>
     </g>
    </g>
    <g id="ytick_7">
     <g id="line2d_15">
      <g>
       <use style="stroke:#000000;stroke-width:1.6;" x="425.796667" xlink:href="#m24918263c2" y="99.073125"/>
      </g>
     </g>
     <g id="text_17">
      <!-- [0.25, -->
      <g transform="translate(352.406042 95.47375)scale(0.2 -0.2)">
       <use xlink:href="#DejaVuSans-91"/>
       <use x="39.013672" xlink:href="#DejaVuSans-48"/>
       <use x="102.636719" xlink:href="#DejaVuSans-46"/>
       <use x="134.423828" xlink:href="#DejaVuSans-50"/>
       <use x="198.046875" xlink:href="#DejaVuSans-53"/>
       <use x="261.669922" xlink:href="#DejaVuSans-44"/>
      </g>
      <!-- 0.50) -->
      <g transform="translate(358.762292 117.869375)scale(0.2 -0.2)">
       <use xlink:href="#DejaVuSans-48"/>
       <use x="63.623047" xlink:href="#DejaVuSans-46"/>
       <use x="95.410156" xlink:href="#DejaVuSans-53"/>
       <use x="159.033203" xlink:href="#DejaVuSans-48"/>
       <use x="222.65625" xlink:href="#DejaVuSans-41"/>
      </g>
     </g>
    </g>
    <g id="ytick_8">
     <g id="line2d_16">
      <g>
       <use style="stroke:#000000;stroke-width:1.6;" x="425.796667" xlink:href="#m24918263c2" y="162.788542"/>
      </g>
     </g>
     <g id="text_18">
      <!-- [0.50, -->
      <g transform="translate(352.406042 159.189167)scale(0.2 -0.2)">
       <use xlink:href="#DejaVuSans-91"/>
       <use x="39.013672" xlink:href="#DejaVuSans-48"/>
       <use x="102.636719" xlink:href="#DejaVuSans-46"/>
       <use x="134.423828" xlink:href="#DejaVuSans-53"/>
       <use x="198.046875" xlink:href="#DejaVuSans-48"/>
       <use x="261.669922" xlink:href="#DejaVuSans-44"/>
      </g>
      <!-- 0.75) -->
      <defs>
       <path d="M 8.203125 72.90625 
L 55.078125 72.90625 
L 55.078125 68.703125 
L 28.609375 0 
L 18.3125 0 
L 43.21875 64.59375 
L 8.203125 64.59375 
z
" id="DejaVuSans-55"/>
      </defs>
      <g transform="translate(358.762292 181.584792)scale(0.2 -0.2)">
       <use xlink:href="#DejaVuSans-48"/>
       <use x="63.623047" xlink:href="#DejaVuSans-46"/>
       <use x="95.410156" xlink:href="#DejaVuSans-55"/>
       <use x="159.033203" xlink:href="#DejaVuSans-53"/>
       <use x="222.65625" xlink:href="#DejaVuSans-41"/>
      </g>
     </g>
    </g>
    <g id="ytick_9">
     <g id="line2d_17">
      <g>
       <use style="stroke:#000000;stroke-width:1.6;" x="425.796667" xlink:href="#m24918263c2" y="226.503958"/>
      </g>
     </g>
     <g id="text_19">
      <!-- [0.75, -->
      <g transform="translate(352.406042 222.904583)scale(0.2 -0.2)">
       <use xlink:href="#DejaVuSans-91"/>
       <use x="39.013672" xlink:href="#DejaVuSans-48"/>
       <use x="102.636719" xlink:href="#DejaVuSans-46"/>
       <use x="134.423828" xlink:href="#DejaVuSans-55"/>
       <use x="198.046875" xlink:href="#DejaVuSans-53"/>
       <use x="261.669922" xlink:href="#DejaVuSans-44"/>
      </g>
      <!-- 1.00) -->
      <defs>
       <path d="M 12.40625 8.296875 
L 28.515625 8.296875 
L 28.515625 63.921875 
L 10.984375 60.40625 
L 10.984375 69.390625 
L 28.421875 72.90625 
L 38.28125 72.90625 
L 38.28125 8.296875 
L 54.390625 8.296875 
L 54.390625 0 
L 12.40625 0 
z
" id="DejaVuSans-49"/>
      </defs>
      <g transform="translate(358.762292 245.300208)scale(0.2 -0.2)">
       <use xlink:href="#DejaVuSans-49"/>
       <use x="63.623047" xlink:href="#DejaVuSans-46"/>
       <use x="95.410156" xlink:href="#DejaVuSans-48"/>
       <use x="159.033203" xlink:href="#DejaVuSans-48"/>
       <use x="222.65625" xlink:href="#DejaVuSans-41"/>
      </g>
     </g>
    </g>
    <g id="text_20">
     <!-- Max Attention -->
     <defs>
      <path d="M 34.1875 63.1875 
L 20.796875 26.90625 
L 47.609375 26.90625 
z
M 28.609375 72.90625 
L 39.796875 72.90625 
L 67.578125 0 
L 57.328125 0 
L 50.6875 18.703125 
L 17.828125 18.703125 
L 11.1875 0 
L 0.78125 0 
z
" id="DejaVuSans-65"/>
      <path d="M 30.609375 48.390625 
Q 23.390625 48.390625 19.1875 42.75 
Q 14.984375 37.109375 14.984375 27.296875 
Q 14.984375 17.484375 19.15625 11.84375 
Q 23.34375 6.203125 30.609375 6.203125 
Q 37.796875 6.203125 41.984375 11.859375 
Q 46.1875 17.53125 46.1875 27.296875 
Q 46.1875 37.015625 41.984375 42.703125 
Q 37.796875 48.390625 30.609375 48.390625 
z
M 30.609375 56 
Q 42.328125 56 49.015625 48.375 
Q 55.71875 40.765625 55.71875 27.296875 
Q 55.71875 13.875 49.015625 6.21875 
Q 42.328125 -1.421875 30.609375 -1.421875 
Q 18.84375 -1.421875 12.171875 6.21875 
Q 5.515625 13.875 5.515625 27.296875 
Q 5.515625 40.765625 12.171875 48.375 
Q 18.84375 56 30.609375 56 
z
" id="DejaVuSans-111"/>
     </defs>
     <g transform="translate(344.246667 201.108958)rotate(-90)scale(0.2 -0.2)">
      <use xlink:href="#DejaVuSans-77"/>
      <use x="86.279297" xlink:href="#DejaVuSans-97"/>
      <use x="147.558594" xlink:href="#DejaVuSans-120"/>
      <use x="206.738281" xlink:href="#DejaVuSans-32"/>
      <use x="238.525391" xlink:href="#DejaVuSans-65"/>
      <use x="306.917969" xlink:href="#DejaVuSans-116"/>
      <use x="346.126953" xlink:href="#DejaVuSans-116"/>
      <use x="385.335938" xlink:href="#DejaVuSans-101"/>
      <use x="446.859375" xlink:href="#DejaVuSans-110"/>
      <use x="510.238281" xlink:href="#DejaVuSans-116"/>
      <use x="549.447266" xlink:href="#DejaVuSans-105"/>
      <use x="577.230469" xlink:href="#DejaVuSans-111"/>
      <use x="638.412109" xlink:href="#DejaVuSans-110"/>
     </g>
    </g>
   </g>
   <g id="line2d_18">
    <path clip-path="url(#p77ef424e21)" style="fill:none;stroke:#333333;stroke-dasharray:1.5,1.5;stroke-dashoffset:0;"/>
   </g>
   <g id="line2d_19">
    <path clip-path="url(#p77ef424e21)" style="fill:none;stroke:#333333;stroke-dasharray:3,3;stroke-dashoffset:0;"/>
   </g>
   <g id="line2d_20">
    <path clip-path="url(#p77ef424e21)" style="fill:none;stroke:#333333;stroke-dasharray:1.5,1.5;stroke-dashoffset:0;"/>
   </g>
   <g id="line2d_21">
    <path clip-path="url(#p77ef424e21)" style="fill:none;stroke:#333333;stroke-dasharray:1.5,1.5;stroke-dashoffset:0;"/>
   </g>
   <g id="line2d_22">
    <path clip-path="url(#p77ef424e21)" style="fill:none;stroke:#333333;stroke-dasharray:3,3;stroke-dashoffset:0;"/>
   </g>
   <g id="line2d_23">
    <path clip-path="url(#p77ef424e21)" style="fill:none;stroke:#333333;stroke-dasharray:1.5,1.5;stroke-dashoffset:0;"/>
   </g>
   <g id="line2d_24">
    <path clip-path="url(#p77ef424e21)" style="fill:none;stroke:#333333;stroke-dasharray:1.5,1.5;stroke-dashoffset:0;"/>
   </g>
   <g id="line2d_25">
    <path clip-path="url(#p77ef424e21)" style="fill:none;stroke:#333333;stroke-dasharray:3,3;stroke-dashoffset:0;"/>
   </g>
   <g id="line2d_26">
    <path clip-path="url(#p77ef424e21)" style="fill:none;stroke:#333333;stroke-dasharray:1.5,1.5;stroke-dashoffset:0;"/>
   </g>
   <g id="line2d_27">
    <path clip-path="url(#p77ef424e21)" style="fill:none;stroke:#333333;stroke-dasharray:1.5,1.5;stroke-dashoffset:0;"/>
   </g>
   <g id="line2d_28">
    <path clip-path="url(#p77ef424e21)" style="fill:none;stroke:#333333;stroke-dasharray:3,3;stroke-dashoffset:0;"/>
   </g>
   <g id="line2d_29">
    <path clip-path="url(#p77ef424e21)" style="fill:none;stroke:#333333;stroke-dasharray:1.5,1.5;stroke-dashoffset:0;"/>
   </g>
   <g id="patch_47">
    <path style="fill:none;stroke:#000000;stroke-linecap:square;stroke-linejoin:miter;stroke-width:0.8;"/>
   </g>
   <g id="patch_48">
    <path style="fill:none;stroke:#000000;stroke-linecap:square;stroke-linejoin:miter;stroke-width:0.8;"/>
   </g>
  </g>
 </g>
 <defs>
  <clipPath id="p4397b8859a">
   <rect height="254.861667" width="254.861667" x="59.575" y="3.5"/>
  </clipPath>
  <clipPath id="p77ef424e21">
   <rect height="254.861667" width="254.861667" x="425.796667" y="3.5"/>
  </clipPath>
 </defs>
</svg>
