<?xml version="1.0" encoding="utf-8" standalone="no"?>
<!DOCTYPE svg PUBLIC "-//W3C//DTD SVG 1.1//EN"
  "http://www.w3.org/Graphics/SVG/1.1/DTD/svg11.dtd">
<!-- Created with matplotlib (https://matplotlib.org/) -->
<svg height="314.77pt" version="1.1" viewBox="0 0 333.955703 314.77" width="333.955703pt" xmlns="http://www.w3.org/2000/svg" xmlns:xlink="http://www.w3.org/1999/xlink">
 <defs>
  <style type="text/css">
*{stroke-linecap:butt;stroke-linejoin:round;}
  </style>
 </defs>
 <g id="figure_1">
  <g id="patch_1">
   <path d="M 0 314.77 
L 333.955703 314.77 
L 333.955703 0 
L 0 0 
z
" style="fill:#ffffff;"/>
  </g>
  <g id="axes_1">
   <g id="patch_2">
    <path d="M 72.45 254.07 
L 323.02 254.07 
L 323.02 3.5 
L 72.45 3.5 
z
" style="fill:#ffffff;"/>
   </g>
   <g id="patch_3">
    <path clip-path="url(#pbe0c9e5bfe)" d="M 83.839545 254.07 
L 89.534318 254.07 
L 89.534318 254.07 
L 83.839545 254.07 
z
" style="fill:#43406b;opacity:0.6;stroke:#000000;stroke-linejoin:miter;stroke-width:0.5;"/>
   </g>
   <g id="patch_4">
    <path clip-path="url(#pbe0c9e5bfe)" d="M 89.534318 254.07 
L 95.229091 254.07 
L 95.229091 254.07 
L 89.534318 254.07 
z
" style="fill:#43406b;opacity:0.6;stroke:#000000;stroke-linejoin:miter;stroke-width:0.5;"/>
   </g>
   <g id="patch_5">
    <path clip-path="url(#pbe0c9e5bfe)" d="M 95.229091 254.07 
L 100.923864 254.07 
L 100.923864 254.07 
L 95.229091 254.07 
z
" style="fill:#43406b;opacity:0.6;stroke:#000000;stroke-linejoin:miter;stroke-width:0.5;"/>
   </g>
   <g id="patch_6">
    <path clip-path="url(#pbe0c9e5bfe)" d="M 100.923864 254.07 
L 106.618636 254.07 
L 106.618636 254.07 
L 100.923864 254.07 
z
" style="fill:#43406b;opacity:0.6;stroke:#000000;stroke-linejoin:miter;stroke-width:0.5;"/>
   </g>
   <g id="patch_7">
    <path clip-path="url(#pbe0c9e5bfe)" d="M 106.618636 254.07 
L 112.313409 254.07 
L 112.313409 254.07 
L 106.618636 254.07 
z
" style="fill:#43406b;opacity:0.6;stroke:#000000;stroke-linejoin:miter;stroke-width:0.5;"/>
   </g>
   <g id="patch_8">
    <path clip-path="url(#pbe0c9e5bfe)" d="M 112.313409 254.07 
L 118.008182 254.07 
L 118.008182 254.07 
L 112.313409 254.07 
z
" style="fill:#43406b;opacity:0.6;stroke:#000000;stroke-linejoin:miter;stroke-width:0.5;"/>
   </g>
   <g id="patch_9">
    <path clip-path="url(#pbe0c9e5bfe)" d="M 118.008182 254.07 
L 123.702955 254.07 
L 123.702955 254.07 
L 118.008182 254.07 
z
" style="fill:#43406b;opacity:0.6;stroke:#000000;stroke-linejoin:miter;stroke-width:0.5;"/>
   </g>
   <g id="patch_10">
    <path clip-path="url(#pbe0c9e5bfe)" d="M 123.702955 254.07 
L 129.397727 254.07 
L 129.397727 253.667575 
L 123.702955 253.667575 
z
" style="fill:#43406b;opacity:0.6;stroke:#000000;stroke-linejoin:miter;stroke-width:0.5;"/>
   </g>
   <g id="patch_11">
    <path clip-path="url(#pbe0c9e5bfe)" d="M 129.397727 254.07 
L 135.0925 254.07 
L 135.0925 253.667575 
L 129.397727 253.667575 
z
" style="fill:#43406b;opacity:0.6;stroke:#000000;stroke-linejoin:miter;stroke-width:0.5;"/>
   </g>
   <g id="patch_12">
    <path clip-path="url(#pbe0c9e5bfe)" d="M 135.0925 254.07 
L 140.787273 254.07 
L 140.787273 253.667575 
L 135.0925 253.667575 
z
" style="fill:#43406b;opacity:0.6;stroke:#000000;stroke-linejoin:miter;stroke-width:0.5;"/>
   </g>
   <g id="patch_13">
    <path clip-path="url(#pbe0c9e5bfe)" d="M 140.787273 254.07 
L 146.482045 254.07 
L 146.482045 252.057874 
L 140.787273 252.057874 
z
" style="fill:#43406b;opacity:0.6;stroke:#000000;stroke-linejoin:miter;stroke-width:0.5;"/>
   </g>
   <g id="patch_14">
    <path clip-path="url(#pbe0c9e5bfe)" d="M 146.482045 254.07 
L 152.176818 254.07 
L 152.176818 253.667575 
L 146.482045 253.667575 
z
" style="fill:#43406b;opacity:0.6;stroke:#000000;stroke-linejoin:miter;stroke-width:0.5;"/>
   </g>
   <g id="patch_15">
    <path clip-path="url(#pbe0c9e5bfe)" d="M 152.176818 254.07 
L 157.871591 254.07 
L 157.871591 251.655449 
L 152.176818 251.655449 
z
" style="fill:#43406b;opacity:0.6;stroke:#000000;stroke-linejoin:miter;stroke-width:0.5;"/>
   </g>
   <g id="patch_16">
    <path clip-path="url(#pbe0c9e5bfe)" d="M 157.871591 254.07 
L 163.566364 254.07 
L 163.566364 250.045749 
L 157.871591 250.045749 
z
" style="fill:#43406b;opacity:0.6;stroke:#000000;stroke-linejoin:miter;stroke-width:0.5;"/>
   </g>
   <g id="patch_17">
    <path clip-path="url(#pbe0c9e5bfe)" d="M 163.566364 254.07 
L 169.261136 254.07 
L 169.261136 248.436048 
L 163.566364 248.436048 
z
" style="fill:#43406b;opacity:0.6;stroke:#000000;stroke-linejoin:miter;stroke-width:0.5;"/>
   </g>
   <g id="patch_18">
    <path clip-path="url(#pbe0c9e5bfe)" d="M 169.261136 254.07 
L 174.955909 254.07 
L 174.955909 247.228773 
L 169.261136 247.228773 
z
" style="fill:#43406b;opacity:0.6;stroke:#000000;stroke-linejoin:miter;stroke-width:0.5;"/>
   </g>
   <g id="patch_19">
    <path clip-path="url(#pbe0c9e5bfe)" d="M 174.955909 254.07 
L 180.650682 254.07 
L 180.650682 246.826348 
L 174.955909 246.826348 
z
" style="fill:#43406b;opacity:0.6;stroke:#000000;stroke-linejoin:miter;stroke-width:0.5;"/>
   </g>
   <g id="patch_20">
    <path clip-path="url(#pbe0c9e5bfe)" d="M 180.650682 254.07 
L 186.345455 254.07 
L 186.345455 244.411797 
L 180.650682 244.411797 
z
" style="fill:#43406b;opacity:0.6;stroke:#000000;stroke-linejoin:miter;stroke-width:0.5;"/>
   </g>
   <g id="patch_21">
    <path clip-path="url(#pbe0c9e5bfe)" d="M 186.345455 254.07 
L 192.040227 254.07 
L 192.040227 235.558445 
L 186.345455 235.558445 
z
" style="fill:#43406b;opacity:0.6;stroke:#000000;stroke-linejoin:miter;stroke-width:0.5;"/>
   </g>
   <g id="patch_22">
    <path clip-path="url(#pbe0c9e5bfe)" d="M 192.040227 254.07 
L 197.735 254.07 
L 197.735 234.351169 
L 192.040227 234.351169 
z
" style="fill:#43406b;opacity:0.6;stroke:#000000;stroke-linejoin:miter;stroke-width:0.5;"/>
   </g>
   <g id="patch_23">
    <path clip-path="url(#pbe0c9e5bfe)" d="M 197.735 254.07 
L 203.429773 254.07 
L 203.429773 228.314792 
L 197.735 228.314792 
z
" style="fill:#43406b;opacity:0.6;stroke:#000000;stroke-linejoin:miter;stroke-width:0.5;"/>
   </g>
   <g id="patch_24">
    <path clip-path="url(#pbe0c9e5bfe)" d="M 203.429773 254.07 
L 209.124545 254.07 
L 209.124545 215.839614 
L 203.429773 215.839614 
z
" style="fill:#43406b;opacity:0.6;stroke:#000000;stroke-linejoin:miter;stroke-width:0.5;"/>
   </g>
   <g id="patch_25">
    <path clip-path="url(#pbe0c9e5bfe)" d="M 209.124545 254.07 
L 214.819318 254.07 
L 214.819318 213.827488 
L 209.124545 213.827488 
z
" style="fill:#43406b;opacity:0.6;stroke:#000000;stroke-linejoin:miter;stroke-width:0.5;"/>
   </g>
   <g id="patch_26">
    <path clip-path="url(#pbe0c9e5bfe)" d="M 214.819318 254.07 
L 220.514091 254.07 
L 220.514091 198.132909 
L 214.819318 198.132909 
z
" style="fill:#43406b;opacity:0.6;stroke:#000000;stroke-linejoin:miter;stroke-width:0.5;"/>
   </g>
   <g id="patch_27">
    <path clip-path="url(#pbe0c9e5bfe)" d="M 220.514091 254.07 
L 226.208864 254.07 
L 226.208864 163.926773 
L 220.514091 163.926773 
z
" style="fill:#43406b;opacity:0.6;stroke:#000000;stroke-linejoin:miter;stroke-width:0.5;"/>
   </g>
   <g id="patch_28">
    <path clip-path="url(#pbe0c9e5bfe)" d="M 226.208864 254.07 
L 231.903636 254.07 
L 231.903636 149.439469 
L 226.208864 149.439469 
z
" style="fill:#43406b;opacity:0.6;stroke:#000000;stroke-linejoin:miter;stroke-width:0.5;"/>
   </g>
   <g id="patch_29">
    <path clip-path="url(#pbe0c9e5bfe)" d="M 231.903636 254.07 
L 237.598409 254.07 
L 237.598409 105.977556 
L 231.903636 105.977556 
z
" style="fill:#43406b;opacity:0.6;stroke:#000000;stroke-linejoin:miter;stroke-width:0.5;"/>
   </g>
   <g id="patch_30">
    <path clip-path="url(#pbe0c9e5bfe)" d="M 237.598409 254.07 
L 243.293182 254.07 
L 243.293182 84.649025 
L 237.598409 84.649025 
z
" style="fill:#43406b;opacity:0.6;stroke:#000000;stroke-linejoin:miter;stroke-width:0.5;"/>
   </g>
   <g id="patch_31">
    <path clip-path="url(#pbe0c9e5bfe)" d="M 243.293182 254.07 
L 248.987955 254.07 
L 248.987955 52.052591 
L 243.293182 52.052591 
z
" style="fill:#43406b;opacity:0.6;stroke:#000000;stroke-linejoin:miter;stroke-width:0.5;"/>
   </g>
   <g id="patch_32">
    <path clip-path="url(#pbe0c9e5bfe)" d="M 248.987955 254.07 
L 254.682727 254.07 
L 254.682727 33.541035 
L 248.987955 33.541035 
z
" style="fill:#43406b;opacity:0.6;stroke:#000000;stroke-linejoin:miter;stroke-width:0.5;"/>
   </g>
   <g id="patch_33">
    <path clip-path="url(#pbe0c9e5bfe)" d="M 254.682727 254.07 
L 260.3775 254.07 
L 260.3775 17.041605 
L 254.682727 17.041605 
z
" style="fill:#43406b;opacity:0.6;stroke:#000000;stroke-linejoin:miter;stroke-width:0.5;"/>
   </g>
   <g id="patch_34">
    <path clip-path="url(#pbe0c9e5bfe)" d="M 260.3775 254.07 
L 266.072273 254.07 
L 266.072273 15.431905 
L 260.3775 15.431905 
z
" style="fill:#43406b;opacity:0.6;stroke:#000000;stroke-linejoin:miter;stroke-width:0.5;"/>
   </g>
   <g id="patch_35">
    <path clip-path="url(#pbe0c9e5bfe)" d="M 266.072273 254.07 
L 271.767045 254.07 
L 271.767045 65.332619 
L 266.072273 65.332619 
z
" style="fill:#43406b;opacity:0.6;stroke:#000000;stroke-linejoin:miter;stroke-width:0.5;"/>
   </g>
   <g id="patch_36">
    <path clip-path="url(#pbe0c9e5bfe)" d="M 271.767045 254.07 
L 277.461818 254.07 
L 277.461818 138.976416 
L 271.767045 138.976416 
z
" style="fill:#43406b;opacity:0.6;stroke:#000000;stroke-linejoin:miter;stroke-width:0.5;"/>
   </g>
   <g id="patch_37">
    <path clip-path="url(#pbe0c9e5bfe)" d="M 277.461818 254.07 
L 283.156591 254.07 
L 283.156591 208.998387 
L 277.461818 208.998387 
z
" style="fill:#43406b;opacity:0.6;stroke:#000000;stroke-linejoin:miter;stroke-width:0.5;"/>
   </g>
   <g id="patch_38">
    <path clip-path="url(#pbe0c9e5bfe)" d="M 283.156591 254.07 
L 288.851364 254.07 
L 288.851364 241.192396 
L 283.156591 241.192396 
z
" style="fill:#43406b;opacity:0.6;stroke:#000000;stroke-linejoin:miter;stroke-width:0.5;"/>
   </g>
   <g id="patch_39">
    <path clip-path="url(#pbe0c9e5bfe)" d="M 288.851364 254.07 
L 294.546136 254.07 
L 294.546136 252.057874 
L 288.851364 252.057874 
z
" style="fill:#43406b;opacity:0.6;stroke:#000000;stroke-linejoin:miter;stroke-width:0.5;"/>
   </g>
   <g id="patch_40">
    <path clip-path="url(#pbe0c9e5bfe)" d="M 294.546136 254.07 
L 300.240909 254.07 
L 300.240909 254.07 
L 294.546136 254.07 
z
" style="fill:#43406b;opacity:0.6;stroke:#000000;stroke-linejoin:miter;stroke-width:0.5;"/>
   </g>
   <g id="patch_41">
    <path clip-path="url(#pbe0c9e5bfe)" d="M 300.240909 254.07 
L 305.935682 254.07 
L 305.935682 254.07 
L 300.240909 254.07 
z
" style="fill:#43406b;opacity:0.6;stroke:#000000;stroke-linejoin:miter;stroke-width:0.5;"/>
   </g>
   <g id="patch_42">
    <path clip-path="url(#pbe0c9e5bfe)" d="M 305.935682 254.07 
L 311.630455 254.07 
L 311.630455 254.07 
L 305.935682 254.07 
z
" style="fill:#43406b;opacity:0.6;stroke:#000000;stroke-linejoin:miter;stroke-width:0.5;"/>
   </g>
   <g id="matplotlib.axis_1">
    <g id="xtick_1">
     <g id="line2d_1">
      <defs>
       <path d="M 0 0 
L 0 3.5 
" id="mfe0e93236c" style="stroke:#000000;stroke-width:1.6;"/>
      </defs>
      <g>
       <use style="stroke:#000000;stroke-width:1.6;" x="83.839545" xlink:href="#mfe0e93236c" y="254.07"/>
      </g>
     </g>
     <g id="text_1">
      <!-- 0.0 -->
      <defs>
       <path d="M 31.78125 66.40625 
Q 24.171875 66.40625 20.328125 58.90625 
Q 16.5 51.421875 16.5 36.375 
Q 16.5 21.390625 20.328125 13.890625 
Q 24.171875 6.390625 31.78125 6.390625 
Q 39.453125 6.390625 43.28125 13.890625 
Q 47.125 21.390625 47.125 36.375 
Q 47.125 51.421875 43.28125 58.90625 
Q 39.453125 66.40625 31.78125 66.40625 
z
M 31.78125 74.21875 
Q 44.046875 74.21875 50.515625 64.515625 
Q 56.984375 54.828125 56.984375 36.375 
Q 56.984375 17.96875 50.515625 8.265625 
Q 44.046875 -1.421875 31.78125 -1.421875 
Q 19.53125 -1.421875 13.0625 8.265625 
Q 6.59375 17.96875 6.59375 36.375 
Q 6.59375 54.828125 13.0625 64.515625 
Q 19.53125 74.21875 31.78125 74.21875 
z
" id="DejaVuSans-48"/>
       <path d="M 10.6875 12.40625 
L 21 12.40625 
L 21 0 
L 10.6875 0 
z
" id="DejaVuSans-46"/>
      </defs>
      <g transform="translate(67.93642 283.966875)scale(0.2 -0.2)">
       <use xlink:href="#DejaVuSans-48"/>
       <use x="63.623047" xlink:href="#DejaVuSans-46"/>
       <use x="95.410156" xlink:href="#DejaVuSans-48"/>
      </g>
     </g>
    </g>
    <g id="xtick_2">
     <g id="line2d_2">
      <g>
       <use style="stroke:#000000;stroke-width:1.6;" x="148.922662" xlink:href="#mfe0e93236c" y="254.07"/>
      </g>
     </g>
     <g id="text_2">
      <!-- 0.2 -->
      <defs>
       <path d="M 19.1875 8.296875 
L 53.609375 8.296875 
L 53.609375 0 
L 7.328125 0 
L 7.328125 8.296875 
Q 12.9375 14.109375 22.625 23.890625 
Q 32.328125 33.6875 34.8125 36.53125 
Q 39.546875 41.84375 41.421875 45.53125 
Q 43.3125 49.21875 43.3125 52.78125 
Q 43.3125 58.59375 39.234375 62.25 
Q 35.15625 65.921875 28.609375 65.921875 
Q 23.96875 65.921875 18.8125 64.3125 
Q 13.671875 62.703125 7.8125 59.421875 
L 7.8125 69.390625 
Q 13.765625 71.78125 18.9375 73 
Q 24.125 74.21875 28.421875 74.21875 
Q 39.75 74.21875 46.484375 68.546875 
Q 53.21875 62.890625 53.21875 53.421875 
Q 53.21875 48.921875 51.53125 44.890625 
Q 49.859375 40.875 45.40625 35.40625 
Q 44.1875 33.984375 37.640625 27.21875 
Q 31.109375 20.453125 19.1875 8.296875 
z
" id="DejaVuSans-50"/>
      </defs>
      <g transform="translate(133.019537 283.966875)scale(0.2 -0.2)">
       <use xlink:href="#DejaVuSans-48"/>
       <use x="63.623047" xlink:href="#DejaVuSans-46"/>
       <use x="95.410156" xlink:href="#DejaVuSans-50"/>
      </g>
     </g>
    </g>
    <g id="xtick_3">
     <g id="line2d_3">
      <g>
       <use style="stroke:#000000;stroke-width:1.6;" x="214.005779" xlink:href="#mfe0e93236c" y="254.07"/>
      </g>
     </g>
     <g id="text_3">
      <!-- 0.4 -->
      <defs>
       <path d="M 37.796875 64.3125 
L 12.890625 25.390625 
L 37.796875 25.390625 
z
M 35.203125 72.90625 
L 47.609375 72.90625 
L 47.609375 25.390625 
L 58.015625 25.390625 
L 58.015625 17.1875 
L 47.609375 17.1875 
L 47.609375 0 
L 37.796875 0 
L 37.796875 17.1875 
L 4.890625 17.1875 
L 4.890625 26.703125 
z
" id="DejaVuSans-52"/>
      </defs>
      <g transform="translate(198.102654 283.966875)scale(0.2 -0.2)">
       <use xlink:href="#DejaVuSans-48"/>
       <use x="63.623047" xlink:href="#DejaVuSans-46"/>
       <use x="95.410156" xlink:href="#DejaVuSans-52"/>
      </g>
     </g>
    </g>
    <g id="xtick_4">
     <g id="line2d_4">
      <g>
       <use style="stroke:#000000;stroke-width:1.6;" x="279.088896" xlink:href="#mfe0e93236c" y="254.07"/>
      </g>
     </g>
     <g id="text_4">
      <!-- 0.6 -->
      <defs>
       <path d="M 33.015625 40.375 
Q 26.375 40.375 22.484375 35.828125 
Q 18.609375 31.296875 18.609375 23.390625 
Q 18.609375 15.53125 22.484375 10.953125 
Q 26.375 6.390625 33.015625 6.390625 
Q 39.65625 6.390625 43.53125 10.953125 
Q 47.40625 15.53125 47.40625 23.390625 
Q 47.40625 31.296875 43.53125 35.828125 
Q 39.65625 40.375 33.015625 40.375 
z
M 52.59375 71.296875 
L 52.59375 62.3125 
Q 48.875 64.0625 45.09375 64.984375 
Q 41.3125 65.921875 37.59375 65.921875 
Q 27.828125 65.921875 22.671875 59.328125 
Q 17.53125 52.734375 16.796875 39.40625 
Q 19.671875 43.65625 24.015625 45.921875 
Q 28.375 48.1875 33.59375 48.1875 
Q 44.578125 48.1875 50.953125 41.515625 
Q 57.328125 34.859375 57.328125 23.390625 
Q 57.328125 12.15625 50.6875 5.359375 
Q 44.046875 -1.421875 33.015625 -1.421875 
Q 20.359375 -1.421875 13.671875 8.265625 
Q 6.984375 17.96875 6.984375 36.375 
Q 6.984375 53.65625 15.1875 63.9375 
Q 23.390625 74.21875 37.203125 74.21875 
Q 40.921875 74.21875 44.703125 73.484375 
Q 48.484375 72.75 52.59375 71.296875 
z
" id="DejaVuSans-54"/>
      </defs>
      <g transform="translate(263.185771 283.966875)scale(0.2 -0.2)">
       <use xlink:href="#DejaVuSans-48"/>
       <use x="63.623047" xlink:href="#DejaVuSans-46"/>
       <use x="95.410156" xlink:href="#DejaVuSans-54"/>
      </g>
     </g>
    </g>
    <g id="text_5">
     <!-- Max JS Divergence within $\epsilon$ -->
     <defs>
      <path d="M 9.8125 72.90625 
L 24.515625 72.90625 
L 43.109375 23.296875 
L 61.8125 72.90625 
L 76.515625 72.90625 
L 76.515625 0 
L 66.890625 0 
L 66.890625 64.015625 
L 48.09375 14.015625 
L 38.1875 14.015625 
L 19.390625 64.015625 
L 19.390625 0 
L 9.8125 0 
z
" id="DejaVuSans-77"/>
      <path d="M 34.28125 27.484375 
Q 23.390625 27.484375 19.1875 25 
Q 14.984375 22.515625 14.984375 16.5 
Q 14.984375 11.71875 18.140625 8.90625 
Q 21.296875 6.109375 26.703125 6.109375 
Q 34.1875 6.109375 38.703125 11.40625 
Q 43.21875 16.703125 43.21875 25.484375 
L 43.21875 27.484375 
z
M 52.203125 31.203125 
L 52.203125 0 
L 43.21875 0 
L 43.21875 8.296875 
Q 40.140625 3.328125 35.546875 0.953125 
Q 30.953125 -1.421875 24.3125 -1.421875 
Q 15.921875 -1.421875 10.953125 3.296875 
Q 6 8.015625 6 15.921875 
Q 6 25.140625 12.171875 29.828125 
Q 18.359375 34.515625 30.609375 34.515625 
L 43.21875 34.515625 
L 43.21875 35.40625 
Q 43.21875 41.609375 39.140625 45 
Q 35.0625 48.390625 27.6875 48.390625 
Q 23 48.390625 18.546875 47.265625 
Q 14.109375 46.140625 10.015625 43.890625 
L 10.015625 52.203125 
Q 14.9375 54.109375 19.578125 55.046875 
Q 24.21875 56 28.609375 56 
Q 40.484375 56 46.34375 49.84375 
Q 52.203125 43.703125 52.203125 31.203125 
z
" id="DejaVuSans-97"/>
      <path d="M 54.890625 54.6875 
L 35.109375 28.078125 
L 55.90625 0 
L 45.3125 0 
L 29.390625 21.484375 
L 13.484375 0 
L 2.875 0 
L 24.125 28.609375 
L 4.6875 54.6875 
L 15.28125 54.6875 
L 29.78125 35.203125 
L 44.28125 54.6875 
z
" id="DejaVuSans-120"/>
      <path id="DejaVuSans-32"/>
      <path d="M 9.8125 72.90625 
L 19.671875 72.90625 
L 19.671875 5.078125 
Q 19.671875 -8.109375 14.671875 -14.0625 
Q 9.671875 -20.015625 -1.421875 -20.015625 
L -5.171875 -20.015625 
L -5.171875 -11.71875 
L -2.09375 -11.71875 
Q 4.4375 -11.71875 7.125 -8.046875 
Q 9.8125 -4.390625 9.8125 5.078125 
z
" id="DejaVuSans-74"/>
      <path d="M 53.515625 70.515625 
L 53.515625 60.890625 
Q 47.90625 63.578125 42.921875 64.890625 
Q 37.9375 66.21875 33.296875 66.21875 
Q 25.25 66.21875 20.875 63.09375 
Q 16.5 59.96875 16.5 54.203125 
Q 16.5 49.359375 19.40625 46.890625 
Q 22.3125 44.4375 30.421875 42.921875 
L 36.375 41.703125 
Q 47.40625 39.59375 52.65625 34.296875 
Q 57.90625 29 57.90625 20.125 
Q 57.90625 9.515625 50.796875 4.046875 
Q 43.703125 -1.421875 29.984375 -1.421875 
Q 24.8125 -1.421875 18.96875 -0.25 
Q 13.140625 0.921875 6.890625 3.21875 
L 6.890625 13.375 
Q 12.890625 10.015625 18.65625 8.296875 
Q 24.421875 6.59375 29.984375 6.59375 
Q 38.421875 6.59375 43.015625 9.90625 
Q 47.609375 13.234375 47.609375 19.390625 
Q 47.609375 24.75 44.3125 27.78125 
Q 41.015625 30.8125 33.5 32.328125 
L 27.484375 33.5 
Q 16.453125 35.6875 11.515625 40.375 
Q 6.59375 45.0625 6.59375 53.421875 
Q 6.59375 63.09375 13.40625 68.65625 
Q 20.21875 74.21875 32.171875 74.21875 
Q 37.3125 74.21875 42.625 73.28125 
Q 47.953125 72.359375 53.515625 70.515625 
z
" id="DejaVuSans-83"/>
      <path d="M 19.671875 64.796875 
L 19.671875 8.109375 
L 31.59375 8.109375 
Q 46.6875 8.109375 53.6875 14.9375 
Q 60.6875 21.78125 60.6875 36.53125 
Q 60.6875 51.171875 53.6875 57.984375 
Q 46.6875 64.796875 31.59375 64.796875 
z
M 9.8125 72.90625 
L 30.078125 72.90625 
Q 51.265625 72.90625 61.171875 64.09375 
Q 71.09375 55.28125 71.09375 36.53125 
Q 71.09375 17.671875 61.125 8.828125 
Q 51.171875 0 30.078125 0 
L 9.8125 0 
z
" id="DejaVuSans-68"/>
      <path d="M 9.421875 54.6875 
L 18.40625 54.6875 
L 18.40625 0 
L 9.421875 0 
z
M 9.421875 75.984375 
L 18.40625 75.984375 
L 18.40625 64.59375 
L 9.421875 64.59375 
z
" id="DejaVuSans-105"/>
      <path d="M 2.984375 54.6875 
L 12.5 54.6875 
L 29.59375 8.796875 
L 46.6875 54.6875 
L 56.203125 54.6875 
L 35.6875 0 
L 23.484375 0 
z
" id="DejaVuSans-118"/>
      <path d="M 56.203125 29.59375 
L 56.203125 25.203125 
L 14.890625 25.203125 
Q 15.484375 15.921875 20.484375 11.0625 
Q 25.484375 6.203125 34.421875 6.203125 
Q 39.59375 6.203125 44.453125 7.46875 
Q 49.3125 8.734375 54.109375 11.28125 
L 54.109375 2.78125 
Q 49.265625 0.734375 44.1875 -0.34375 
Q 39.109375 -1.421875 33.890625 -1.421875 
Q 20.796875 -1.421875 13.15625 6.1875 
Q 5.515625 13.8125 5.515625 26.8125 
Q 5.515625 40.234375 12.765625 48.109375 
Q 20.015625 56 32.328125 56 
Q 43.359375 56 49.78125 48.890625 
Q 56.203125 41.796875 56.203125 29.59375 
z
M 47.21875 32.234375 
Q 47.125 39.59375 43.09375 43.984375 
Q 39.0625 48.390625 32.421875 48.390625 
Q 24.90625 48.390625 20.390625 44.140625 
Q 15.875 39.890625 15.1875 32.171875 
z
" id="DejaVuSans-101"/>
      <path d="M 41.109375 46.296875 
Q 39.59375 47.171875 37.8125 47.578125 
Q 36.03125 48 33.890625 48 
Q 26.265625 48 22.1875 43.046875 
Q 18.109375 38.09375 18.109375 28.8125 
L 18.109375 0 
L 9.078125 0 
L 9.078125 54.6875 
L 18.109375 54.6875 
L 18.109375 46.1875 
Q 20.953125 51.171875 25.484375 53.578125 
Q 30.03125 56 36.53125 56 
Q 37.453125 56 38.578125 55.875 
Q 39.703125 55.765625 41.0625 55.515625 
z
" id="DejaVuSans-114"/>
      <path d="M 45.40625 27.984375 
Q 45.40625 37.75 41.375 43.109375 
Q 37.359375 48.484375 30.078125 48.484375 
Q 22.859375 48.484375 18.828125 43.109375 
Q 14.796875 37.75 14.796875 27.984375 
Q 14.796875 18.265625 18.828125 12.890625 
Q 22.859375 7.515625 30.078125 7.515625 
Q 37.359375 7.515625 41.375 12.890625 
Q 45.40625 18.265625 45.40625 27.984375 
z
M 54.390625 6.78125 
Q 54.390625 -7.171875 48.1875 -13.984375 
Q 42 -20.796875 29.203125 -20.796875 
Q 24.46875 -20.796875 20.265625 -20.09375 
Q 16.0625 -19.390625 12.109375 -17.921875 
L 12.109375 -9.1875 
Q 16.0625 -11.328125 19.921875 -12.34375 
Q 23.78125 -13.375 27.78125 -13.375 
Q 36.625 -13.375 41.015625 -8.765625 
Q 45.40625 -4.15625 45.40625 5.171875 
L 45.40625 9.625 
Q 42.625 4.78125 38.28125 2.390625 
Q 33.9375 0 27.875 0 
Q 17.828125 0 11.671875 7.65625 
Q 5.515625 15.328125 5.515625 27.984375 
Q 5.515625 40.671875 11.671875 48.328125 
Q 17.828125 56 27.875 56 
Q 33.9375 56 38.28125 53.609375 
Q 42.625 51.21875 45.40625 46.390625 
L 45.40625 54.6875 
L 54.390625 54.6875 
z
" id="DejaVuSans-103"/>
      <path d="M 54.890625 33.015625 
L 54.890625 0 
L 45.90625 0 
L 45.90625 32.71875 
Q 45.90625 40.484375 42.875 44.328125 
Q 39.84375 48.1875 33.796875 48.1875 
Q 26.515625 48.1875 22.3125 43.546875 
Q 18.109375 38.921875 18.109375 30.90625 
L 18.109375 0 
L 9.078125 0 
L 9.078125 54.6875 
L 18.109375 54.6875 
L 18.109375 46.1875 
Q 21.34375 51.125 25.703125 53.5625 
Q 30.078125 56 35.796875 56 
Q 45.21875 56 50.046875 50.171875 
Q 54.890625 44.34375 54.890625 33.015625 
z
" id="DejaVuSans-110"/>
      <path d="M 48.78125 52.59375 
L 48.78125 44.1875 
Q 44.96875 46.296875 41.140625 47.34375 
Q 37.3125 48.390625 33.40625 48.390625 
Q 24.65625 48.390625 19.8125 42.84375 
Q 14.984375 37.3125 14.984375 27.296875 
Q 14.984375 17.28125 19.8125 11.734375 
Q 24.65625 6.203125 33.40625 6.203125 
Q 37.3125 6.203125 41.140625 7.25 
Q 44.96875 8.296875 48.78125 10.40625 
L 48.78125 2.09375 
Q 45.015625 0.34375 40.984375 -0.53125 
Q 36.96875 -1.421875 32.421875 -1.421875 
Q 20.0625 -1.421875 12.78125 6.34375 
Q 5.515625 14.109375 5.515625 27.296875 
Q 5.515625 40.671875 12.859375 48.328125 
Q 20.21875 56 33.015625 56 
Q 37.15625 56 41.109375 55.140625 
Q 45.0625 54.296875 48.78125 52.59375 
z
" id="DejaVuSans-99"/>
      <path d="M 4.203125 54.6875 
L 13.1875 54.6875 
L 24.421875 12.015625 
L 35.59375 54.6875 
L 46.1875 54.6875 
L 57.421875 12.015625 
L 68.609375 54.6875 
L 77.59375 54.6875 
L 63.28125 0 
L 52.6875 0 
L 40.921875 44.828125 
L 29.109375 0 
L 18.5 0 
z
" id="DejaVuSans-119"/>
      <path d="M 18.3125 70.21875 
L 18.3125 54.6875 
L 36.8125 54.6875 
L 36.8125 47.703125 
L 18.3125 47.703125 
L 18.3125 18.015625 
Q 18.3125 11.328125 20.140625 9.421875 
Q 21.96875 7.515625 27.59375 7.515625 
L 36.8125 7.515625 
L 36.8125 0 
L 27.59375 0 
Q 17.1875 0 13.234375 3.875 
Q 9.28125 7.765625 9.28125 18.015625 
L 9.28125 47.703125 
L 2.6875 47.703125 
L 2.6875 54.6875 
L 9.28125 54.6875 
L 9.28125 70.21875 
z
" id="DejaVuSans-116"/>
      <path d="M 54.890625 33.015625 
L 54.890625 0 
L 45.90625 0 
L 45.90625 32.71875 
Q 45.90625 40.484375 42.875 44.328125 
Q 39.84375 48.1875 33.796875 48.1875 
Q 26.515625 48.1875 22.3125 43.546875 
Q 18.109375 38.921875 18.109375 30.90625 
L 18.109375 0 
L 9.078125 0 
L 9.078125 75.984375 
L 18.109375 75.984375 
L 18.109375 46.1875 
Q 21.34375 51.125 25.703125 53.5625 
Q 30.078125 56 35.796875 56 
Q 45.21875 56 50.046875 50.171875 
Q 54.890625 44.34375 54.890625 33.015625 
z
" id="DejaVuSans-104"/>
      <path d="M 19.734375 29.5 
Q 14.453125 30.671875 12.15625 33.84375 
Q 10.453125 36.078125 10.453125 39.109375 
Q 10.453125 47.40625 18.359375 52.25 
Q 24.609375 56.0625 34.1875 56.0625 
Q 37.890625 56.0625 41.9375 55.46875 
Q 46 54.890625 50.53125 53.71875 
L 48.96875 45.5625 
Q 44.484375 46.96875 40.71875 47.609375 
Q 36.859375 48.25 33.40625 48.25 
Q 27.59375 48.25 23.78125 46 
Q 19.1875 43.3125 19.1875 39.40625 
Q 19.1875 36.8125 21.578125 35.015625 
Q 24.421875 32.859375 30.078125 32.859375 
L 37.640625 32.859375 
L 36.234375 25.4375 
L 29 25.4375 
Q 22.265625 25.4375 18.3125 22.953125 
Q 12.9375 19.578125 12.9375 14.3125 
Q 12.9375 10.984375 15.828125 8.796875 
Q 19.4375 6.0625 26.8125 6.0625 
Q 31.34375 6.0625 35.6875 6.9375 
Q 40.046875 7.859375 43.84375 9.671875 
L 42.1875 1.3125 
Q 37.546875 -0.046875 33.296875 -0.734375 
Q 29.046875 -1.421875 25.140625 -1.421875 
Q 13.53125 -1.421875 8.0625 3.03125 
Q 3.90625 6.453125 3.90625 12.203125 
Q 3.90625 19.96875 9.375 24.75 
Q 13.421875 28.328125 19.734375 29.5 
z
" id="DejaVuSans-Oblique-949"/>
     </defs>
     <g transform="translate(62.135 307.32625)scale(0.2 -0.2)">
      <use transform="translate(0 0.015625)" xlink:href="#DejaVuSans-77"/>
      <use transform="translate(86.279297 0.015625)" xlink:href="#DejaVuSans-97"/>
      <use transform="translate(147.558594 0.015625)" xlink:href="#DejaVuSans-120"/>
      <use transform="translate(206.738281 0.015625)" xlink:href="#DejaVuSans-32"/>
      <use transform="translate(238.525391 0.015625)" xlink:href="#DejaVuSans-74"/>
      <use transform="translate(268.017578 0.015625)" xlink:href="#DejaVuSans-83"/>
      <use transform="translate(331.494141 0.015625)" xlink:href="#DejaVuSans-32"/>
      <use transform="translate(363.28125 0.015625)" xlink:href="#DejaVuSans-68"/>
      <use transform="translate(440.283203 0.015625)" xlink:href="#DejaVuSans-105"/>
      <use transform="translate(468.066406 0.015625)" xlink:href="#DejaVuSans-118"/>
      <use transform="translate(527.246094 0.015625)" xlink:href="#DejaVuSans-101"/>
      <use transform="translate(588.769531 0.015625)" xlink:href="#DejaVuSans-114"/>
      <use transform="translate(629.882812 0.015625)" xlink:href="#DejaVuSans-103"/>
      <use transform="translate(693.359375 0.015625)" xlink:href="#DejaVuSans-101"/>
      <use transform="translate(754.882812 0.015625)" xlink:href="#DejaVuSans-110"/>
      <use transform="translate(818.261719 0.015625)" xlink:href="#DejaVuSans-99"/>
      <use transform="translate(873.242188 0.015625)" xlink:href="#DejaVuSans-101"/>
      <use transform="translate(934.765625 0.015625)" xlink:href="#DejaVuSans-32"/>
      <use transform="translate(966.552734 0.015625)" xlink:href="#DejaVuSans-119"/>
      <use transform="translate(1048.339844 0.015625)" xlink:href="#DejaVuSans-105"/>
      <use transform="translate(1076.123047 0.015625)" xlink:href="#DejaVuSans-116"/>
      <use transform="translate(1115.332031 0.015625)" xlink:href="#DejaVuSans-104"/>
      <use transform="translate(1178.710938 0.015625)" xlink:href="#DejaVuSans-105"/>
      <use transform="translate(1206.494141 0.015625)" xlink:href="#DejaVuSans-110"/>
      <use transform="translate(1269.873047 0.015625)" xlink:href="#DejaVuSans-32"/>
      <use transform="translate(1301.660156 0.015625)" xlink:href="#DejaVuSans-Oblique-949"/>
     </g>
    </g>
   </g>
   <g id="matplotlib.axis_2">
    <g id="ytick_1">
     <g id="line2d_5">
      <defs>
       <path d="M 0 0 
L -3.5 0 
" id="m05ac4de6f1" style="stroke:#000000;stroke-width:1.6;"/>
      </defs>
      <g>
       <use style="stroke:#000000;stroke-width:1.6;" x="72.45" xlink:href="#m05ac4de6f1" y="254.07"/>
      </g>
     </g>
     <g id="text_6">
      <!-- 0.000 -->
      <g transform="translate(0.49375 261.668438)scale(0.2 -0.2)">
       <use xlink:href="#DejaVuSans-48"/>
       <use x="63.623047" xlink:href="#DejaVuSans-46"/>
       <use x="95.410156" xlink:href="#DejaVuSans-48"/>
       <use x="159.033203" xlink:href="#DejaVuSans-48"/>
       <use x="222.65625" xlink:href="#DejaVuSans-48"/>
      </g>
     </g>
    </g>
    <g id="ytick_2">
     <g id="line2d_6">
      <g>
       <use style="stroke:#000000;stroke-width:1.6;" x="72.45" xlink:href="#m05ac4de6f1" y="203.76686"/>
      </g>
     </g>
     <g id="text_7">
      <!-- 0.025 -->
      <defs>
       <path d="M 10.796875 72.90625 
L 49.515625 72.90625 
L 49.515625 64.59375 
L 19.828125 64.59375 
L 19.828125 46.734375 
Q 21.96875 47.46875 24.109375 47.828125 
Q 26.265625 48.1875 28.421875 48.1875 
Q 40.625 48.1875 47.75 41.5 
Q 54.890625 34.8125 54.890625 23.390625 
Q 54.890625 11.625 47.5625 5.09375 
Q 40.234375 -1.421875 26.90625 -1.421875 
Q 22.3125 -1.421875 17.546875 -0.640625 
Q 12.796875 0.140625 7.71875 1.703125 
L 7.71875 11.625 
Q 12.109375 9.234375 16.796875 8.0625 
Q 21.484375 6.890625 26.703125 6.890625 
Q 35.15625 6.890625 40.078125 11.328125 
Q 45.015625 15.765625 45.015625 23.390625 
Q 45.015625 31 40.078125 35.4375 
Q 35.15625 39.890625 26.703125 39.890625 
Q 22.75 39.890625 18.8125 39.015625 
Q 14.890625 38.140625 10.796875 36.28125 
z
" id="DejaVuSans-53"/>
      </defs>
      <g transform="translate(0.49375 211.365298)scale(0.2 -0.2)">
       <use xlink:href="#DejaVuSans-48"/>
       <use x="63.623047" xlink:href="#DejaVuSans-46"/>
       <use x="95.410156" xlink:href="#DejaVuSans-48"/>
       <use x="159.033203" xlink:href="#DejaVuSans-50"/>
       <use x="222.65625" xlink:href="#DejaVuSans-53"/>
      </g>
     </g>
    </g>
    <g id="ytick_3">
     <g id="line2d_7">
      <g>
       <use style="stroke:#000000;stroke-width:1.6;" x="72.45" xlink:href="#m05ac4de6f1" y="153.46372"/>
      </g>
     </g>
     <g id="text_8">
      <!-- 0.050 -->
      <g transform="translate(0.49375 161.062158)scale(0.2 -0.2)">
       <use xlink:href="#DejaVuSans-48"/>
       <use x="63.623047" xlink:href="#DejaVuSans-46"/>
       <use x="95.410156" xlink:href="#DejaVuSans-48"/>
       <use x="159.033203" xlink:href="#DejaVuSans-53"/>
       <use x="222.65625" xlink:href="#DejaVuSans-48"/>
      </g>
     </g>
    </g>
    <g id="ytick_4">
     <g id="line2d_8">
      <g>
       <use style="stroke:#000000;stroke-width:1.6;" x="72.45" xlink:href="#m05ac4de6f1" y="103.160581"/>
      </g>
     </g>
     <g id="text_9">
      <!-- 0.075 -->
      <defs>
       <path d="M 8.203125 72.90625 
L 55.078125 72.90625 
L 55.078125 68.703125 
L 28.609375 0 
L 18.3125 0 
L 43.21875 64.59375 
L 8.203125 64.59375 
z
" id="DejaVuSans-55"/>
      </defs>
      <g transform="translate(0.49375 110.759018)scale(0.2 -0.2)">
       <use xlink:href="#DejaVuSans-48"/>
       <use x="63.623047" xlink:href="#DejaVuSans-46"/>
       <use x="95.410156" xlink:href="#DejaVuSans-48"/>
       <use x="159.033203" xlink:href="#DejaVuSans-55"/>
       <use x="222.65625" xlink:href="#DejaVuSans-53"/>
      </g>
     </g>
    </g>
    <g id="ytick_5">
     <g id="line2d_9">
      <g>
       <use style="stroke:#000000;stroke-width:1.6;" x="72.45" xlink:href="#m05ac4de6f1" y="52.857441"/>
      </g>
     </g>
     <g id="text_10">
      <!-- 0.100 -->
      <defs>
       <path d="M 12.40625 8.296875 
L 28.515625 8.296875 
L 28.515625 63.921875 
L 10.984375 60.40625 
L 10.984375 69.390625 
L 28.421875 72.90625 
L 38.28125 72.90625 
L 38.28125 8.296875 
L 54.390625 8.296875 
L 54.390625 0 
L 12.40625 0 
z
" id="DejaVuSans-49"/>
      </defs>
      <g transform="translate(0.49375 60.455878)scale(0.2 -0.2)">
       <use xlink:href="#DejaVuSans-48"/>
       <use x="63.623047" xlink:href="#DejaVuSans-46"/>
       <use x="95.410156" xlink:href="#DejaVuSans-49"/>
       <use x="159.033203" xlink:href="#DejaVuSans-48"/>
       <use x="222.65625" xlink:href="#DejaVuSans-48"/>
      </g>
     </g>
    </g>
   </g>
   <g id="patch_43">
    <path d="M 72.45 254.07 
L 72.45 3.5 
" style="fill:none;stroke:#000000;stroke-linecap:square;stroke-linejoin:miter;stroke-width:0.8;"/>
   </g>
   <g id="patch_44">
    <path d="M 72.45 254.07 
L 323.02 254.07 
" style="fill:none;stroke:#000000;stroke-linecap:square;stroke-linejoin:miter;stroke-width:0.8;"/>
   </g>
  </g>
  <g id="axes_2">
   <g id="patch_45">
    <path d="M 434.38 254.07 
L 684.95 254.07 
L 684.95 3.5 
L 434.38 3.5 
z
" style="fill:#ffffff;"/>
   </g>
   <g id="PolyCollection_1">
    <defs>
     <path d="M 511.97665 -279.922412 
L 511.97665 -279.975088 
L 513.535002 -279.974932 
L 515.093354 -279.973712 
L 516.651706 -279.974661 
L 518.210058 -279.980661 
L 519.768411 -279.992518 
L 521.326763 -280.008535 
L 522.885115 -280.025774 
L 524.443467 -280.042247 
L 526.001819 -280.058513 
L 527.560171 -280.077548 
L 529.118523 -280.103007 
L 530.676875 -280.137084 
L 532.235228 -280.179429 
L 533.79358 -280.227633 
L 535.351932 -280.278273 
L 536.910284 -280.327092 
L 538.468636 -280.368669 
L 540.026988 -280.397512 
L 541.58534 -280.411043 
L 543.143692 -280.412074 
L 544.702045 -280.408426 
L 546.260397 -280.410535 
L 547.818749 -280.42962 
L 549.377101 -280.476695 
L 550.935453 -280.560096 
L 552.493805 -280.680895 
L 554.052157 -280.829878 
L 555.610509 -280.990369 
L 557.168862 -281.146187 
L 558.727214 -281.289039 
L 560.285566 -281.420236 
L 561.843918 -281.546295 
L 563.40227 -281.672108 
L 564.960622 -281.797409 
L 566.518974 -281.920967 
L 568.077326 -282.050196 
L 569.635679 -282.205879 
L 571.194031 -282.413098 
L 572.752383 -282.682578 
L 574.310735 -282.998015 
L 575.869087 -283.321467 
L 577.427439 -283.613709 
L 578.985791 -283.854946 
L 580.544143 -284.053596 
L 582.102496 -284.242988 
L 583.660848 -284.473591 
L 585.2192 -284.803521 
L 586.777552 -285.281733 
L 588.335904 -285.92245 
L 589.894256 -286.685702 
L 591.452608 -287.486584 
L 593.01096 -288.238625 
L 594.569313 -288.905548 
L 596.127665 -289.521848 
L 597.686017 -290.164842 
L 599.244369 -290.900989 
L 600.802721 -291.747739 
L 602.361073 -292.672608 
L 603.919425 -293.6196 
L 605.477777 -294.541556 
L 607.03613 -295.423189 
L 608.594482 -296.284376 
L 610.152834 -297.158471 
L 611.711186 -298.058008 
L 613.269538 -298.956317 
L 614.82789 -299.802822 
L 616.386242 -300.558639 
L 617.944594 -301.221855 
L 619.502947 -301.824558 
L 621.061299 -302.408023 
L 622.619651 -302.995051 
L 624.178003 -303.575497 
L 625.736355 -304.110878 
L 627.294707 -304.552698 
L 628.853059 -304.860371 
L 630.411411 -305.00575 
L 631.969763 -304.964403 
L 633.528116 -304.705752 
L 635.086468 -304.192025 
L 636.64482 -303.386731 
L 638.203172 -302.269491 
L 639.761524 -300.851969 
L 641.319876 -299.184017 
L 642.878228 -297.341011 
L 644.43658 -295.399219 
L 645.994933 -293.418434 
L 647.553285 -291.443712 
L 649.111637 -289.519831 
L 650.669989 -287.702352 
L 652.228341 -286.053817 
L 653.786693 -284.62652 
L 655.345045 -283.444696 
L 656.903397 -282.500112 
L 658.46175 -281.763695 
L 660.020102 -281.202205 
L 661.578454 -280.787008 
L 663.136806 -280.492652 
L 664.695158 -280.293003 
L 666.25351 -280.16176 
L 666.25351 -279.73574 
L 666.25351 -279.73574 
L 664.695158 -279.604497 
L 663.136806 -279.404848 
L 661.578454 -279.110492 
L 660.020102 -278.695295 
L 658.46175 -278.133805 
L 656.903397 -277.397388 
L 655.345045 -276.452804 
L 653.786693 -275.27098 
L 652.228341 -273.843683 
L 650.669989 -272.195148 
L 649.111637 -270.377669 
L 647.553285 -268.453788 
L 645.994933 -266.479066 
L 644.43658 -264.498281 
L 642.878228 -262.556489 
L 641.319876 -260.713483 
L 639.761524 -259.045531 
L 638.203172 -257.628009 
L 636.64482 -256.510769 
L 635.086468 -255.705475 
L 633.528116 -255.191748 
L 631.969763 -254.933097 
L 630.411411 -254.89175 
L 628.853059 -255.037129 
L 627.294707 -255.344802 
L 625.736355 -255.786622 
L 624.178003 -256.322003 
L 622.619651 -256.902449 
L 621.061299 -257.489477 
L 619.502947 -258.072942 
L 617.944594 -258.675645 
L 616.386242 -259.338861 
L 614.82789 -260.094678 
L 613.269538 -260.941183 
L 611.711186 -261.839492 
L 610.152834 -262.739029 
L 608.594482 -263.613124 
L 607.03613 -264.474311 
L 605.477777 -265.355944 
L 603.919425 -266.2779 
L 602.361073 -267.224892 
L 600.802721 -268.149761 
L 599.244369 -268.996511 
L 597.686017 -269.732658 
L 596.127665 -270.375652 
L 594.569313 -270.991952 
L 593.01096 -271.658875 
L 591.452608 -272.410916 
L 589.894256 -273.211798 
L 588.335904 -273.97505 
L 586.777552 -274.615767 
L 585.2192 -275.093979 
L 583.660848 -275.423909 
L 582.102496 -275.654512 
L 580.544143 -275.843904 
L 578.985791 -276.042554 
L 577.427439 -276.283791 
L 575.869087 -276.576033 
L 574.310735 -276.899485 
L 572.752383 -277.214922 
L 571.194031 -277.484402 
L 569.635679 -277.691621 
L 568.077326 -277.847304 
L 566.518974 -277.976533 
L 564.960622 -278.100091 
L 563.40227 -278.225392 
L 561.843918 -278.351205 
L 560.285566 -278.477264 
L 558.727214 -278.608461 
L 557.168862 -278.751313 
L 555.610509 -278.907131 
L 554.052157 -279.067622 
L 552.493805 -279.216605 
L 550.935453 -279.337404 
L 549.377101 -279.420805 
L 547.818749 -279.46788 
L 546.260397 -279.486965 
L 544.702045 -279.489074 
L 543.143692 -279.485426 
L 541.58534 -279.486457 
L 540.026988 -279.499988 
L 538.468636 -279.528831 
L 536.910284 -279.570408 
L 535.351932 -279.619227 
L 533.79358 -279.669867 
L 532.235228 -279.718071 
L 530.676875 -279.760416 
L 529.118523 -279.794493 
L 527.560171 -279.819952 
L 526.001819 -279.838987 
L 524.443467 -279.855253 
L 522.885115 -279.871726 
L 521.326763 -279.888965 
L 519.768411 -279.904982 
L 518.210058 -279.916839 
L 516.651706 -279.922839 
L 515.093354 -279.923788 
L 513.535002 -279.922568 
L 511.97665 -279.922412 
z
" id="mb808b5104f" style="stroke:#333333;"/>
    </defs>
    <g clip-path="url(#p85cad7d832)">
     <use style="fill:#484566;stroke:#333333;" x="0" xlink:href="#mb808b5104f" y="314.77"/>
    </g>
   </g>
   <g id="PolyCollection_2">
    <defs>
     <path d="M 493.635208 -214.845316 
L 493.635208 -219.767184 
L 495.320406 -220.079678 
L 497.005605 -220.413224 
L 498.690804 -220.76805 
L 500.376002 -221.14456 
L 502.061201 -221.543348 
L 503.7464 -221.965172 
L 505.431599 -222.410905 
L 507.116797 -222.881452 
L 508.801996 -223.377636 
L 510.487195 -223.900073 
L 512.172393 -224.449036 
L 513.857592 -225.024338 
L 515.542791 -225.625238 
L 517.22799 -226.250396 
L 518.913188 -226.897881 
L 520.598387 -227.565242 
L 522.283586 -228.249632 
L 523.968784 -228.947975 
L 525.653983 -229.657156 
L 527.339182 -230.374202 
L 529.02438 -231.096432 
L 530.709579 -231.821546 
L 532.394778 -232.547637 
L 534.079977 -233.273122 
L 535.765175 -233.996586 
L 537.450374 -234.716572 
L 539.135573 -235.431324 
L 540.820771 -236.138538 
L 542.50597 -236.835137 
L 544.191169 -237.517112 
L 545.876367 -238.179461 
L 547.561566 -238.816231 
L 549.246765 -239.420678 
L 550.931964 -239.98554 
L 552.617162 -240.503398 
L 554.302361 -240.967114 
L 555.98756 -241.370303 
L 557.672758 -241.707805 
L 559.357957 -241.976122 
L 561.043156 -242.173791 
L 562.728354 -242.301638 
L 564.413553 -242.36291 
L 566.098752 -242.36325 
L 567.783951 -242.310508 
L 569.469149 -242.214393 
L 571.154348 -242.085991 
L 572.839547 -241.937151 
L 574.524745 -241.779819 
L 576.209944 -241.625337 
L 577.895143 -241.483771 
L 579.580341 -241.363327 
L 581.26554 -241.26988 
L 582.950739 -241.206667 
L 584.635938 -241.174129 
L 586.321136 -241.169941 
L 588.006335 -241.189168 
L 589.691534 -241.224562 
L 591.376732 -241.266941 
L 593.061931 -241.305635 
L 594.74713 -241.328971 
L 596.432328 -241.324766 
L 598.117527 -241.280837 
L 599.802726 -241.185493 
L 601.487925 -241.028027 
L 603.173123 -240.799179 
L 604.858322 -240.491559 
L 606.543521 -240.100024 
L 608.228719 -239.621963 
L 609.913918 -239.057481 
L 611.599117 -238.409453 
L 613.284315 -237.683442 
L 614.969514 -236.887464 
L 616.654713 -236.031626 
L 618.339912 -235.127655 
L 620.02511 -234.188352 
L 621.710309 -233.227013 
L 623.395508 -232.256856 
L 625.080706 -231.290507 
L 626.765905 -230.339558 
L 628.451104 -229.414232 
L 630.136302 -228.523152 
L 631.821501 -227.673226 
L 633.5067 -226.869615 
L 635.191899 -226.115788 
L 636.877097 -225.41363 
L 638.562296 -224.763581 
L 640.247495 -224.164809 
L 641.932693 -223.615381 
L 643.617892 -223.112452 
L 645.303091 -222.652452 
L 646.988289 -222.231282 
L 648.673488 -221.844517 
L 650.358687 -221.487617 
L 652.043886 -221.15614 
L 653.729084 -220.845939 
L 655.414283 -220.553351 
L 657.099482 -220.275345 
L 658.78468 -220.009625 
L 660.469879 -219.75468 
L 660.469879 -214.85782 
L 660.469879 -214.85782 
L 658.78468 -214.602875 
L 657.099482 -214.337155 
L 655.414283 -214.059149 
L 653.729084 -213.766561 
L 652.043886 -213.45636 
L 650.358687 -213.124883 
L 648.673488 -212.767983 
L 646.988289 -212.381218 
L 645.303091 -211.960048 
L 643.617892 -211.500048 
L 641.932693 -210.997119 
L 640.247495 -210.447691 
L 638.562296 -209.848919 
L 636.877097 -209.19887 
L 635.191899 -208.496712 
L 633.5067 -207.742885 
L 631.821501 -206.939274 
L 630.136302 -206.089348 
L 628.451104 -205.198268 
L 626.765905 -204.272942 
L 625.080706 -203.321993 
L 623.395508 -202.355644 
L 621.710309 -201.385487 
L 620.02511 -200.424148 
L 618.339912 -199.484845 
L 616.654713 -198.580874 
L 614.969514 -197.725036 
L 613.284315 -196.929058 
L 611.599117 -196.203047 
L 609.913918 -195.555019 
L 608.228719 -194.990537 
L 606.543521 -194.512476 
L 604.858322 -194.120941 
L 603.173123 -193.813321 
L 601.487925 -193.584473 
L 599.802726 -193.427007 
L 598.117527 -193.331663 
L 596.432328 -193.287734 
L 594.74713 -193.283529 
L 593.061931 -193.306865 
L 591.376732 -193.345559 
L 589.691534 -193.387938 
L 588.006335 -193.423332 
L 586.321136 -193.442559 
L 584.635938 -193.438371 
L 582.950739 -193.405833 
L 581.26554 -193.34262 
L 579.580341 -193.249173 
L 577.895143 -193.128729 
L 576.209944 -192.987163 
L 574.524745 -192.832681 
L 572.839547 -192.675349 
L 571.154348 -192.526509 
L 569.469149 -192.398107 
L 567.783951 -192.301992 
L 566.098752 -192.24925 
L 564.413553 -192.24959 
L 562.728354 -192.310862 
L 561.043156 -192.438709 
L 559.357957 -192.636378 
L 557.672758 -192.904695 
L 555.98756 -193.242197 
L 554.302361 -193.645386 
L 552.617162 -194.109102 
L 550.931964 -194.62696 
L 549.246765 -195.191822 
L 547.561566 -195.796269 
L 545.876367 -196.433039 
L 544.191169 -197.095388 
L 542.50597 -197.777363 
L 540.820771 -198.473962 
L 539.135573 -199.181176 
L 537.450374 -199.895928 
L 535.765175 -200.615914 
L 534.079977 -201.339378 
L 532.394778 -202.064863 
L 530.709579 -202.790954 
L 529.02438 -203.516068 
L 527.339182 -204.238298 
L 525.653983 -204.955344 
L 523.968784 -205.664525 
L 522.283586 -206.362868 
L 520.598387 -207.047258 
L 518.913188 -207.714619 
L 517.22799 -208.362104 
L 515.542791 -208.987262 
L 513.857592 -209.588162 
L 512.172393 -210.163464 
L 510.487195 -210.712427 
L 508.801996 -211.234864 
L 507.116797 -211.731048 
L 505.431599 -212.201595 
L 503.7464 -212.647328 
L 502.061201 -213.069152 
L 500.376002 -213.46794 
L 498.690804 -213.84445 
L 497.005605 -214.199276 
L 495.320406 -214.532822 
L 493.635208 -214.845316 
z
" id="m942a4abacb" style="stroke:#333333;"/>
    </defs>
    <g clip-path="url(#p85cad7d832)">
     <use style="fill:#484566;stroke:#333333;" x="0" xlink:href="#m942a4abacb" y="314.77"/>
    </g>
   </g>
   <g id="PolyCollection_3">
    <defs>
     <path d="M 510.700285 -139.348991 
L 510.700285 -169.978509 
L 511.895465 -170.502484 
L 513.090645 -171.02224 
L 514.285826 -171.536621 
L 515.481006 -172.044485 
L 516.676186 -172.544706 
L 517.871366 -173.036172 
L 519.066546 -173.517795 
L 520.261726 -173.988503 
L 521.456907 -174.447247 
L 522.652087 -174.893001 
L 523.847267 -175.324758 
L 525.042447 -175.741536 
L 526.237627 -176.142374 
L 527.432807 -176.526335 
L 528.627988 -176.892503 
L 529.823168 -177.23999 
L 531.018348 -177.567928 
L 532.213528 -177.875481 
L 533.408708 -178.161837 
L 534.603889 -178.426218 
L 535.799069 -178.667881 
L 536.994249 -178.886119 
L 538.189429 -179.08027 
L 539.384609 -179.249719 
L 540.579789 -179.393904 
L 541.77497 -179.512323 
L 542.97015 -179.60454 
L 544.16533 -179.670191 
L 545.36051 -179.708994 
L 546.55569 -179.72075 
L 547.75087 -179.705356 
L 548.946051 -179.662807 
L 550.141231 -179.593205 
L 551.336411 -179.496764 
L 552.531591 -179.373813 
L 553.726771 -179.224801 
L 554.921951 -179.050299 
L 556.117132 -178.851005 
L 557.312312 -178.627736 
L 558.507492 -178.381438 
L 559.702672 -178.113172 
L 560.897852 -177.824118 
L 562.093032 -177.515566 
L 563.288213 -177.188908 
L 564.483393 -176.845632 
L 565.678573 -176.487308 
L 566.873753 -176.115582 
L 568.068933 -175.732158 
L 569.264114 -175.338787 
L 570.459294 -174.937253 
L 571.654474 -174.529357 
L 572.849654 -174.116901 
L 574.044834 -173.701676 
L 575.240014 -173.285441 
L 576.435195 -172.86991 
L 577.630375 -172.456739 
L 578.825555 -172.047506 
L 580.020735 -171.643704 
L 581.215915 -171.246725 
L 582.411095 -170.857848 
L 583.606276 -170.478231 
L 584.801456 -170.108903 
L 585.996636 -169.750754 
L 587.191816 -169.404533 
L 588.386996 -169.070842 
L 589.582176 -168.750138 
L 590.777357 -168.442729 
L 591.972537 -168.148776 
L 593.167717 -167.868301 
L 594.362897 -167.601184 
L 595.558077 -167.347177 
L 596.753258 -167.105907 
L 597.948438 -166.876885 
L 599.143618 -166.65952 
L 600.338798 -166.453122 
L 601.533978 -166.256922 
L 602.729158 -166.070079 
L 603.924339 -165.891691 
L 605.119519 -165.720813 
L 606.314699 -165.556466 
L 607.509879 -165.397649 
L 608.705059 -165.243355 
L 609.900239 -165.092579 
L 611.09542 -164.944331 
L 612.2906 -164.797647 
L 613.48578 -164.651601 
L 614.68096 -164.50531 
L 615.87614 -164.357947 
L 617.07132 -164.208746 
L 618.266501 -164.057007 
L 619.461681 -163.902108 
L 620.656861 -163.743502 
L 621.852041 -163.580725 
L 623.047221 -163.413395 
L 624.242402 -163.24122 
L 625.437582 -163.063991 
L 626.632762 -162.881584 
L 627.827942 -162.693961 
L 629.023122 -162.501166 
L 629.023122 -146.826334 
L 629.023122 -146.826334 
L 627.827942 -146.633539 
L 626.632762 -146.445916 
L 625.437582 -146.263509 
L 624.242402 -146.08628 
L 623.047221 -145.914105 
L 621.852041 -145.746775 
L 620.656861 -145.583998 
L 619.461681 -145.425392 
L 618.266501 -145.270493 
L 617.07132 -145.118754 
L 615.87614 -144.969553 
L 614.68096 -144.82219 
L 613.48578 -144.675899 
L 612.2906 -144.529853 
L 611.09542 -144.383169 
L 609.900239 -144.234921 
L 608.705059 -144.084145 
L 607.509879 -143.929851 
L 606.314699 -143.771034 
L 605.119519 -143.606687 
L 603.924339 -143.435809 
L 602.729158 -143.257421 
L 601.533978 -143.070578 
L 600.338798 -142.874378 
L 599.143618 -142.66798 
L 597.948438 -142.450615 
L 596.753258 -142.221593 
L 595.558077 -141.980323 
L 594.362897 -141.726316 
L 593.167717 -141.459199 
L 591.972537 -141.178724 
L 590.777357 -140.884771 
L 589.582176 -140.577362 
L 588.386996 -140.256658 
L 587.191816 -139.922967 
L 585.996636 -139.576746 
L 584.801456 -139.218597 
L 583.606276 -138.849269 
L 582.411095 -138.469652 
L 581.215915 -138.080775 
L 580.020735 -137.683796 
L 578.825555 -137.279994 
L 577.630375 -136.870761 
L 576.435195 -136.45759 
L 575.240014 -136.042059 
L 574.044834 -135.625824 
L 572.849654 -135.210599 
L 571.654474 -134.798143 
L 570.459294 -134.390247 
L 569.264114 -133.988713 
L 568.068933 -133.595342 
L 566.873753 -133.211918 
L 565.678573 -132.840192 
L 564.483393 -132.481868 
L 563.288213 -132.138592 
L 562.093032 -131.811934 
L 560.897852 -131.503382 
L 559.702672 -131.214328 
L 558.507492 -130.946062 
L 557.312312 -130.699764 
L 556.117132 -130.476495 
L 554.921951 -130.277201 
L 553.726771 -130.102699 
L 552.531591 -129.953687 
L 551.336411 -129.830736 
L 550.141231 -129.734295 
L 548.946051 -129.664693 
L 547.75087 -129.622144 
L 546.55569 -129.60675 
L 545.36051 -129.618506 
L 544.16533 -129.657309 
L 542.97015 -129.72296 
L 541.77497 -129.815177 
L 540.579789 -129.933596 
L 539.384609 -130.077781 
L 538.189429 -130.24723 
L 536.994249 -130.441381 
L 535.799069 -130.659619 
L 534.603889 -130.901282 
L 533.408708 -131.165663 
L 532.213528 -131.452019 
L 531.018348 -131.759572 
L 529.823168 -132.08751 
L 528.627988 -132.434997 
L 527.432807 -132.801165 
L 526.237627 -133.185126 
L 525.042447 -133.585964 
L 523.847267 -134.002742 
L 522.652087 -134.434499 
L 521.456907 -134.880253 
L 520.261726 -135.338997 
L 519.066546 -135.809705 
L 517.871366 -136.291328 
L 516.676186 -136.782794 
L 515.481006 -137.283015 
L 514.285826 -137.790879 
L 513.090645 -138.30526 
L 511.895465 -138.825016 
L 510.700285 -139.348991 
z
" id="mee615a83a5" style="stroke:#333333;"/>
    </defs>
    <g clip-path="url(#p85cad7d832)">
     <use style="fill:#484566;stroke:#333333;" x="0" xlink:href="#mee615a83a5" y="314.77"/>
    </g>
   </g>
   <g id="patch_46">
    <path clip-path="url(#p85cad7d832)" d="M 451.084667 34.82125 
L 451.084667 34.82125 
L 451.084667 34.82125 
L 451.084667 34.82125 
z
" style="fill:#484566;stroke:#333333;stroke-linejoin:miter;stroke-width:0.5;"/>
   </g>
   <g id="matplotlib.axis_3">
    <g id="xtick_5">
     <g id="line2d_10">
      <g>
       <use style="stroke:#000000;stroke-width:1.6;" x="451.084667" xlink:href="#mfe0e93236c" y="254.07"/>
      </g>
     </g>
     <g id="text_11">
      <!-- 0.0 -->
      <g transform="translate(435.181542 283.966875)scale(0.2 -0.2)">
       <use xlink:href="#DejaVuSans-48"/>
       <use x="63.623047" xlink:href="#DejaVuSans-46"/>
       <use x="95.410156" xlink:href="#DejaVuSans-48"/>
      </g>
     </g>
    </g>
    <g id="xtick_6">
     <g id="line2d_11">
      <g>
       <use style="stroke:#000000;stroke-width:1.6;" x="517.903333" xlink:href="#mfe0e93236c" y="254.07"/>
      </g>
     </g>
     <g id="text_12">
      <!-- 0.2 -->
      <g transform="translate(502.000208 283.966875)scale(0.2 -0.2)">
       <use xlink:href="#DejaVuSans-48"/>
       <use x="63.623047" xlink:href="#DejaVuSans-46"/>
       <use x="95.410156" xlink:href="#DejaVuSans-50"/>
      </g>
     </g>
    </g>
    <g id="xtick_7">
     <g id="line2d_12">
      <g>
       <use style="stroke:#000000;stroke-width:1.6;" x="584.722" xlink:href="#mfe0e93236c" y="254.07"/>
      </g>
     </g>
     <g id="text_13">
      <!-- 0.4 -->
      <g transform="translate(568.818875 283.966875)scale(0.2 -0.2)">
       <use xlink:href="#DejaVuSans-48"/>
       <use x="63.623047" xlink:href="#DejaVuSans-46"/>
       <use x="95.410156" xlink:href="#DejaVuSans-52"/>
      </g>
     </g>
    </g>
    <g id="xtick_8">
     <g id="line2d_13">
      <g>
       <use style="stroke:#000000;stroke-width:1.6;" x="651.540667" xlink:href="#mfe0e93236c" y="254.07"/>
      </g>
     </g>
     <g id="text_14">
      <!-- 0.6 -->
      <g transform="translate(635.637542 283.966875)scale(0.2 -0.2)">
       <use xlink:href="#DejaVuSans-48"/>
       <use x="63.623047" xlink:href="#DejaVuSans-46"/>
       <use x="95.410156" xlink:href="#DejaVuSans-54"/>
      </g>
     </g>
    </g>
    <g id="text_15">
     <!-- Max JS Divergence within $\epsilon$ -->
     <g transform="translate(424.065 307.32625)scale(0.2 -0.2)">
      <use transform="translate(0 0.015625)" xlink:href="#DejaVuSans-77"/>
      <use transform="translate(86.279297 0.015625)" xlink:href="#DejaVuSans-97"/>
      <use transform="translate(147.558594 0.015625)" xlink:href="#DejaVuSans-120"/>
      <use transform="translate(206.738281 0.015625)" xlink:href="#DejaVuSans-32"/>
      <use transform="translate(238.525391 0.015625)" xlink:href="#DejaVuSans-74"/>
      <use transform="translate(268.017578 0.015625)" xlink:href="#DejaVuSans-83"/>
      <use transform="translate(331.494141 0.015625)" xlink:href="#DejaVuSans-32"/>
      <use transform="translate(363.28125 0.015625)" xlink:href="#DejaVuSans-68"/>
      <use transform="translate(440.283203 0.015625)" xlink:href="#DejaVuSans-105"/>
      <use transform="translate(468.066406 0.015625)" xlink:href="#DejaVuSans-118"/>
      <use transform="translate(527.246094 0.015625)" xlink:href="#DejaVuSans-101"/>
      <use transform="translate(588.769531 0.015625)" xlink:href="#DejaVuSans-114"/>
      <use transform="translate(629.882812 0.015625)" xlink:href="#DejaVuSans-103"/>
      <use transform="translate(693.359375 0.015625)" xlink:href="#DejaVuSans-101"/>
      <use transform="translate(754.882812 0.015625)" xlink:href="#DejaVuSans-110"/>
      <use transform="translate(818.261719 0.015625)" xlink:href="#DejaVuSans-99"/>
      <use transform="translate(873.242188 0.015625)" xlink:href="#DejaVuSans-101"/>
      <use transform="translate(934.765625 0.015625)" xlink:href="#DejaVuSans-32"/>
      <use transform="translate(966.552734 0.015625)" xlink:href="#DejaVuSans-119"/>
      <use transform="translate(1048.339844 0.015625)" xlink:href="#DejaVuSans-105"/>
      <use transform="translate(1076.123047 0.015625)" xlink:href="#DejaVuSans-116"/>
      <use transform="translate(1115.332031 0.015625)" xlink:href="#DejaVuSans-104"/>
      <use transform="translate(1178.710938 0.015625)" xlink:href="#DejaVuSans-105"/>
      <use transform="translate(1206.494141 0.015625)" xlink:href="#DejaVuSans-110"/>
      <use transform="translate(1269.873047 0.015625)" xlink:href="#DejaVuSans-32"/>
      <use transform="translate(1301.660156 0.015625)" xlink:href="#DejaVuSans-Oblique-949"/>
     </g>
    </g>
   </g>
   <g id="matplotlib.axis_4">
    <g id="ytick_6">
     <g id="line2d_14">
      <g>
       <use style="stroke:#000000;stroke-width:1.6;" x="434.38" xlink:href="#m05ac4de6f1" y="34.82125"/>
      </g>
     </g>
     <g id="text_16">
      <!-- [0.00, -->
      <defs>
       <path d="M 8.59375 75.984375 
L 29.296875 75.984375 
L 29.296875 69 
L 17.578125 69 
L 17.578125 -6.203125 
L 29.296875 -6.203125 
L 29.296875 -13.1875 
L 8.59375 -13.1875 
z
" id="DejaVuSans-91"/>
       <path d="M 11.71875 12.40625 
L 22.015625 12.40625 
L 22.015625 4 
L 14.015625 -11.625 
L 7.71875 -11.625 
L 11.71875 4 
z
" id="DejaVuSans-44"/>
      </defs>
      <g transform="translate(360.989375 31.221875)scale(0.2 -0.2)">
       <use xlink:href="#DejaVuSans-91"/>
       <use x="39.013672" xlink:href="#DejaVuSans-48"/>
       <use x="102.636719" xlink:href="#DejaVuSans-46"/>
       <use x="134.423828" xlink:href="#DejaVuSans-48"/>
       <use x="198.046875" xlink:href="#DejaVuSans-48"/>
       <use x="261.669922" xlink:href="#DejaVuSans-44"/>
      </g>
      <!-- 0.25) -->
      <defs>
       <path d="M 8.015625 75.875 
L 15.828125 75.875 
Q 23.140625 64.359375 26.78125 53.3125 
Q 30.421875 42.28125 30.421875 31.390625 
Q 30.421875 20.453125 26.78125 9.375 
Q 23.140625 -1.703125 15.828125 -13.1875 
L 8.015625 -13.1875 
Q 14.5 -2 17.703125 9.0625 
Q 20.90625 20.125 20.90625 31.390625 
Q 20.90625 42.671875 17.703125 53.65625 
Q 14.5 64.65625 8.015625 75.875 
z
" id="DejaVuSans-41"/>
      </defs>
      <g transform="translate(367.345625 53.6175)scale(0.2 -0.2)">
       <use xlink:href="#DejaVuSans-48"/>
       <use x="63.623047" xlink:href="#DejaVuSans-46"/>
       <use x="95.410156" xlink:href="#DejaVuSans-50"/>
       <use x="159.033203" xlink:href="#DejaVuSans-53"/>
       <use x="222.65625" xlink:href="#DejaVuSans-41"/>
      </g>
     </g>
    </g>
    <g id="ytick_7">
     <g id="line2d_15">
      <g>
       <use style="stroke:#000000;stroke-width:1.6;" x="434.38" xlink:href="#m05ac4de6f1" y="97.46375"/>
      </g>
     </g>
     <g id="text_17">
      <!-- [0.25, -->
      <g transform="translate(360.989375 93.864375)scale(0.2 -0.2)">
       <use xlink:href="#DejaVuSans-91"/>
       <use x="39.013672" xlink:href="#DejaVuSans-48"/>
       <use x="102.636719" xlink:href="#DejaVuSans-46"/>
       <use x="134.423828" xlink:href="#DejaVuSans-50"/>
       <use x="198.046875" xlink:href="#DejaVuSans-53"/>
       <use x="261.669922" xlink:href="#DejaVuSans-44"/>
      </g>
      <!-- 0.50) -->
      <g transform="translate(367.345625 116.26)scale(0.2 -0.2)">
       <use xlink:href="#DejaVuSans-48"/>
       <use x="63.623047" xlink:href="#DejaVuSans-46"/>
       <use x="95.410156" xlink:href="#DejaVuSans-53"/>
       <use x="159.033203" xlink:href="#DejaVuSans-48"/>
       <use x="222.65625" xlink:href="#DejaVuSans-41"/>
      </g>
     </g>
    </g>
    <g id="ytick_8">
     <g id="line2d_16">
      <g>
       <use style="stroke:#000000;stroke-width:1.6;" x="434.38" xlink:href="#m05ac4de6f1" y="160.10625"/>
      </g>
     </g>
     <g id="text_18">
      <!-- [0.50, -->
      <g transform="translate(360.989375 156.506875)scale(0.2 -0.2)">
       <use xlink:href="#DejaVuSans-91"/>
       <use x="39.013672" xlink:href="#DejaVuSans-48"/>
       <use x="102.636719" xlink:href="#DejaVuSans-46"/>
       <use x="134.423828" xlink:href="#DejaVuSans-53"/>
       <use x="198.046875" xlink:href="#DejaVuSans-48"/>
       <use x="261.669922" xlink:href="#DejaVuSans-44"/>
      </g>
      <!-- 0.75) -->
      <g transform="translate(367.345625 178.9025)scale(0.2 -0.2)">
       <use xlink:href="#DejaVuSans-48"/>
       <use x="63.623047" xlink:href="#DejaVuSans-46"/>
       <use x="95.410156" xlink:href="#DejaVuSans-55"/>
       <use x="159.033203" xlink:href="#DejaVuSans-53"/>
       <use x="222.65625" xlink:href="#DejaVuSans-41"/>
      </g>
     </g>
    </g>
    <g id="ytick_9">
     <g id="line2d_17">
      <g>
       <use style="stroke:#000000;stroke-width:1.6;" x="434.38" xlink:href="#m05ac4de6f1" y="222.74875"/>
      </g>
     </g>
     <g id="text_19">
      <!-- [0.75, -->
      <g transform="translate(360.989375 219.149375)scale(0.2 -0.2)">
       <use xlink:href="#DejaVuSans-91"/>
       <use x="39.013672" xlink:href="#DejaVuSans-48"/>
       <use x="102.636719" xlink:href="#DejaVuSans-46"/>
       <use x="134.423828" xlink:href="#DejaVuSans-55"/>
       <use x="198.046875" xlink:href="#DejaVuSans-53"/>
       <use x="261.669922" xlink:href="#DejaVuSans-44"/>
      </g>
      <!-- 1.00) -->
      <g transform="translate(367.345625 241.545)scale(0.2 -0.2)">
       <use xlink:href="#DejaVuSans-49"/>
       <use x="63.623047" xlink:href="#DejaVuSans-46"/>
       <use x="95.410156" xlink:href="#DejaVuSans-48"/>
       <use x="159.033203" xlink:href="#DejaVuSans-48"/>
       <use x="222.65625" xlink:href="#DejaVuSans-41"/>
      </g>
     </g>
    </g>
    <g id="text_20">
     <!-- Max Attention -->
     <defs>
      <path d="M 34.1875 63.1875 
L 20.796875 26.90625 
L 47.609375 26.90625 
z
M 28.609375 72.90625 
L 39.796875 72.90625 
L 67.578125 0 
L 57.328125 0 
L 50.6875 18.703125 
L 17.828125 18.703125 
L 11.1875 0 
L 0.78125 0 
z
" id="DejaVuSans-65"/>
      <path d="M 30.609375 48.390625 
Q 23.390625 48.390625 19.1875 42.75 
Q 14.984375 37.109375 14.984375 27.296875 
Q 14.984375 17.484375 19.15625 11.84375 
Q 23.34375 6.203125 30.609375 6.203125 
Q 37.796875 6.203125 41.984375 11.859375 
Q 46.1875 17.53125 46.1875 27.296875 
Q 46.1875 37.015625 41.984375 42.703125 
Q 37.796875 48.390625 30.609375 48.390625 
z
M 30.609375 56 
Q 42.328125 56 49.015625 48.375 
Q 55.71875 40.765625 55.71875 27.296875 
Q 55.71875 13.875 49.015625 6.21875 
Q 42.328125 -1.421875 30.609375 -1.421875 
Q 18.84375 -1.421875 12.171875 6.21875 
Q 5.515625 13.875 5.515625 27.296875 
Q 5.515625 40.765625 12.171875 48.375 
Q 18.84375 56 30.609375 56 
z
" id="DejaVuSans-111"/>
     </defs>
     <g transform="translate(352.83 198.963125)rotate(-90)scale(0.2 -0.2)">
      <use xlink:href="#DejaVuSans-77"/>
      <use x="86.279297" xlink:href="#DejaVuSans-97"/>
      <use x="147.558594" xlink:href="#DejaVuSans-120"/>
      <use x="206.738281" xlink:href="#DejaVuSans-32"/>
      <use x="238.525391" xlink:href="#DejaVuSans-65"/>
      <use x="306.917969" xlink:href="#DejaVuSans-116"/>
      <use x="346.126953" xlink:href="#DejaVuSans-116"/>
      <use x="385.335938" xlink:href="#DejaVuSans-101"/>
      <use x="446.859375" xlink:href="#DejaVuSans-110"/>
      <use x="510.238281" xlink:href="#DejaVuSans-116"/>
      <use x="549.447266" xlink:href="#DejaVuSans-105"/>
      <use x="577.230469" xlink:href="#DejaVuSans-111"/>
      <use x="638.412109" xlink:href="#DejaVuSans-110"/>
     </g>
    </g>
   </g>
   <g id="line2d_18">
    <path clip-path="url(#p85cad7d832)" style="fill:none;stroke:#333333;stroke-dasharray:1.5,1.5;stroke-dashoffset:0;"/>
   </g>
   <g id="line2d_19">
    <path clip-path="url(#p85cad7d832)" style="fill:none;stroke:#333333;stroke-dasharray:3,3;stroke-dashoffset:0;"/>
   </g>
   <g id="line2d_20">
    <path clip-path="url(#p85cad7d832)" style="fill:none;stroke:#333333;stroke-dasharray:1.5,1.5;stroke-dashoffset:0;"/>
   </g>
   <g id="line2d_21">
    <path clip-path="url(#p85cad7d832)" style="fill:none;stroke:#333333;stroke-dasharray:1.5,1.5;stroke-dashoffset:0;"/>
   </g>
   <g id="line2d_22">
    <path clip-path="url(#p85cad7d832)" style="fill:none;stroke:#333333;stroke-dasharray:3,3;stroke-dashoffset:0;"/>
   </g>
   <g id="line2d_23">
    <path clip-path="url(#p85cad7d832)" style="fill:none;stroke:#333333;stroke-dasharray:1.5,1.5;stroke-dashoffset:0;"/>
   </g>
   <g id="line2d_24">
    <path clip-path="url(#p85cad7d832)" style="fill:none;stroke:#333333;stroke-dasharray:1.5,1.5;stroke-dashoffset:0;"/>
   </g>
   <g id="line2d_25">
    <path clip-path="url(#p85cad7d832)" style="fill:none;stroke:#333333;stroke-dasharray:3,3;stroke-dashoffset:0;"/>
   </g>
   <g id="line2d_26">
    <path clip-path="url(#p85cad7d832)" style="fill:none;stroke:#333333;stroke-dasharray:1.5,1.5;stroke-dashoffset:0;"/>
   </g>
   <g id="patch_47">
    <path style="fill:none;stroke:#000000;stroke-linecap:square;stroke-linejoin:miter;stroke-width:0.8;"/>
   </g>
   <g id="patch_48">
    <path style="fill:none;stroke:#000000;stroke-linecap:square;stroke-linejoin:miter;stroke-width:0.8;"/>
   </g>
  </g>
 </g>
 <defs>
  <clipPath id="pbe0c9e5bfe">
   <rect height="250.57" width="250.57" x="72.45" y="3.5"/>
  </clipPath>
  <clipPath id="p85cad7d832">
   <rect height="250.57" width="250.57" x="434.38" y="3.5"/>
  </clipPath>
 </defs>
</svg>
