<?xml version="1.0" encoding="utf-8" standalone="no"?>
<!DOCTYPE svg PUBLIC "-//W3C//DTD SVG 1.1//EN"
  "http://www.w3.org/Graphics/SVG/1.1/DTD/svg11.dtd">
<!-- Created with matplotlib (https://matplotlib.org/) -->
<svg height="319.061667pt" version="1.1" viewBox="0 0 323.226536 319.061667" width="323.226536pt" xmlns="http://www.w3.org/2000/svg" xmlns:xlink="http://www.w3.org/1999/xlink">
 <defs>
  <style type="text/css">
*{stroke-linecap:butt;stroke-linejoin:round;}
  </style>
 </defs>
 <g id="figure_1">
  <g id="patch_1">
   <path d="M 0 319.061667 
L 323.226536 319.061667 
L 323.226536 0 
L 0 0 
z
" style="fill:#ffffff;"/>
  </g>
  <g id="axes_1">
   <g id="patch_2">
    <path d="M 59.575 258.361667 
L 314.436667 258.361667 
L 314.436667 3.5 
L 59.575 3.5 
z
" style="fill:#ffffff;"/>
   </g>
   <g id="patch_3">
    <path clip-path="url(#p641b0ce1f3)" d="M 71.159621 258.361667 
L 76.951932 258.361667 
L 76.951932 258.361667 
L 71.159621 258.361667 
z
" style="fill:#7570b3;opacity:0.6;stroke:#000000;stroke-linejoin:miter;stroke-width:0.5;"/>
   </g>
   <g id="patch_4">
    <path clip-path="url(#p641b0ce1f3)" d="M 76.951932 258.361667 
L 82.744242 258.361667 
L 82.744242 258.361667 
L 76.951932 258.361667 
z
" style="fill:#7570b3;opacity:0.6;stroke:#000000;stroke-linejoin:miter;stroke-width:0.5;"/>
   </g>
   <g id="patch_5">
    <path clip-path="url(#p641b0ce1f3)" d="M 82.744242 258.361667 
L 88.536553 258.361667 
L 88.536553 258.361667 
L 82.744242 258.361667 
z
" style="fill:#7570b3;opacity:0.6;stroke:#000000;stroke-linejoin:miter;stroke-width:0.5;"/>
   </g>
   <g id="patch_6">
    <path clip-path="url(#p641b0ce1f3)" d="M 88.536553 258.361667 
L 94.328864 258.361667 
L 94.328864 258.361667 
L 88.536553 258.361667 
z
" style="fill:#7570b3;opacity:0.6;stroke:#000000;stroke-linejoin:miter;stroke-width:0.5;"/>
   </g>
   <g id="patch_7">
    <path clip-path="url(#p641b0ce1f3)" d="M 94.328864 258.361667 
L 100.121174 258.361667 
L 100.121174 258.361667 
L 94.328864 258.361667 
z
" style="fill:#7570b3;opacity:0.6;stroke:#000000;stroke-linejoin:miter;stroke-width:0.5;"/>
   </g>
   <g id="patch_8">
    <path clip-path="url(#p641b0ce1f3)" d="M 100.121174 258.361667 
L 105.913485 258.361667 
L 105.913485 258.361667 
L 100.121174 258.361667 
z
" style="fill:#7570b3;opacity:0.6;stroke:#000000;stroke-linejoin:miter;stroke-width:0.5;"/>
   </g>
   <g id="patch_9">
    <path clip-path="url(#p641b0ce1f3)" d="M 105.913485 258.361667 
L 111.705795 258.361667 
L 111.705795 258.361667 
L 105.913485 258.361667 
z
" style="fill:#7570b3;opacity:0.6;stroke:#000000;stroke-linejoin:miter;stroke-width:0.5;"/>
   </g>
   <g id="patch_10">
    <path clip-path="url(#p641b0ce1f3)" d="M 111.705795 258.361667 
L 117.498106 258.361667 
L 117.498106 258.361667 
L 111.705795 258.361667 
z
" style="fill:#7570b3;opacity:0.6;stroke:#000000;stroke-linejoin:miter;stroke-width:0.5;"/>
   </g>
   <g id="patch_11">
    <path clip-path="url(#p641b0ce1f3)" d="M 117.498106 258.361667 
L 123.290417 258.361667 
L 123.290417 258.361667 
L 117.498106 258.361667 
z
" style="fill:#7570b3;opacity:0.6;stroke:#000000;stroke-linejoin:miter;stroke-width:0.5;"/>
   </g>
   <g id="patch_12">
    <path clip-path="url(#p641b0ce1f3)" d="M 123.290417 258.361667 
L 129.082727 258.361667 
L 129.082727 258.361667 
L 123.290417 258.361667 
z
" style="fill:#7570b3;opacity:0.6;stroke:#000000;stroke-linejoin:miter;stroke-width:0.5;"/>
   </g>
   <g id="patch_13">
    <path clip-path="url(#p641b0ce1f3)" d="M 129.082727 258.361667 
L 134.875038 258.361667 
L 134.875038 258.361667 
L 129.082727 258.361667 
z
" style="fill:#7570b3;opacity:0.6;stroke:#000000;stroke-linejoin:miter;stroke-width:0.5;"/>
   </g>
   <g id="patch_14">
    <path clip-path="url(#p641b0ce1f3)" d="M 134.875038 258.361667 
L 140.667348 258.361667 
L 140.667348 258.361667 
L 134.875038 258.361667 
z
" style="fill:#7570b3;opacity:0.6;stroke:#000000;stroke-linejoin:miter;stroke-width:0.5;"/>
   </g>
   <g id="patch_15">
    <path clip-path="url(#p641b0ce1f3)" d="M 140.667348 258.361667 
L 146.459659 258.361667 
L 146.459659 258.361667 
L 140.667348 258.361667 
z
" style="fill:#7570b3;opacity:0.6;stroke:#000000;stroke-linejoin:miter;stroke-width:0.5;"/>
   </g>
   <g id="patch_16">
    <path clip-path="url(#p641b0ce1f3)" d="M 146.459659 258.361667 
L 152.25197 258.361667 
L 152.25197 258.361667 
L 146.459659 258.361667 
z
" style="fill:#7570b3;opacity:0.6;stroke:#000000;stroke-linejoin:miter;stroke-width:0.5;"/>
   </g>
   <g id="patch_17">
    <path clip-path="url(#p641b0ce1f3)" d="M 152.25197 258.361667 
L 158.04428 258.361667 
L 158.04428 258.361667 
L 152.25197 258.361667 
z
" style="fill:#7570b3;opacity:0.6;stroke:#000000;stroke-linejoin:miter;stroke-width:0.5;"/>
   </g>
   <g id="patch_18">
    <path clip-path="url(#p641b0ce1f3)" d="M 158.04428 258.361667 
L 163.836591 258.361667 
L 163.836591 258.361667 
L 158.04428 258.361667 
z
" style="fill:#7570b3;opacity:0.6;stroke:#000000;stroke-linejoin:miter;stroke-width:0.5;"/>
   </g>
   <g id="patch_19">
    <path clip-path="url(#p641b0ce1f3)" d="M 163.836591 258.361667 
L 169.628902 258.361667 
L 169.628902 258.361667 
L 163.836591 258.361667 
z
" style="fill:#7570b3;opacity:0.6;stroke:#000000;stroke-linejoin:miter;stroke-width:0.5;"/>
   </g>
   <g id="patch_20">
    <path clip-path="url(#p641b0ce1f3)" d="M 169.628902 258.361667 
L 175.421212 258.361667 
L 175.421212 258.361667 
L 169.628902 258.361667 
z
" style="fill:#7570b3;opacity:0.6;stroke:#000000;stroke-linejoin:miter;stroke-width:0.5;"/>
   </g>
   <g id="patch_21">
    <path clip-path="url(#p641b0ce1f3)" d="M 175.421212 258.361667 
L 181.213523 258.361667 
L 181.213523 258.361667 
L 175.421212 258.361667 
z
" style="fill:#7570b3;opacity:0.6;stroke:#000000;stroke-linejoin:miter;stroke-width:0.5;"/>
   </g>
   <g id="patch_22">
    <path clip-path="url(#p641b0ce1f3)" d="M 181.213523 258.361667 
L 187.005833 258.361667 
L 187.005833 258.361667 
L 181.213523 258.361667 
z
" style="fill:#7570b3;opacity:0.6;stroke:#000000;stroke-linejoin:miter;stroke-width:0.5;"/>
   </g>
   <g id="patch_23">
    <path clip-path="url(#p641b0ce1f3)" d="M 187.005833 258.361667 
L 192.798144 258.361667 
L 192.798144 258.361667 
L 187.005833 258.361667 
z
" style="fill:#7570b3;opacity:0.6;stroke:#000000;stroke-linejoin:miter;stroke-width:0.5;"/>
   </g>
   <g id="patch_24">
    <path clip-path="url(#p641b0ce1f3)" d="M 192.798144 258.361667 
L 198.590455 258.361667 
L 198.590455 258.361667 
L 192.798144 258.361667 
z
" style="fill:#7570b3;opacity:0.6;stroke:#000000;stroke-linejoin:miter;stroke-width:0.5;"/>
   </g>
   <g id="patch_25">
    <path clip-path="url(#p641b0ce1f3)" d="M 198.590455 258.361667 
L 204.382765 258.361667 
L 204.382765 258.361667 
L 198.590455 258.361667 
z
" style="fill:#7570b3;opacity:0.6;stroke:#000000;stroke-linejoin:miter;stroke-width:0.5;"/>
   </g>
   <g id="patch_26">
    <path clip-path="url(#p641b0ce1f3)" d="M 204.382765 258.361667 
L 210.175076 258.361667 
L 210.175076 258.1305 
L 204.382765 258.1305 
z
" style="fill:#7570b3;opacity:0.6;stroke:#000000;stroke-linejoin:miter;stroke-width:0.5;"/>
   </g>
   <g id="patch_27">
    <path clip-path="url(#p641b0ce1f3)" d="M 210.175076 258.361667 
L 215.967386 258.361667 
L 215.967386 258.1305 
L 210.175076 258.1305 
z
" style="fill:#7570b3;opacity:0.6;stroke:#000000;stroke-linejoin:miter;stroke-width:0.5;"/>
   </g>
   <g id="patch_28">
    <path clip-path="url(#p641b0ce1f3)" d="M 215.967386 258.361667 
L 221.759697 258.361667 
L 221.759697 257.205831 
L 215.967386 257.205831 
z
" style="fill:#7570b3;opacity:0.6;stroke:#000000;stroke-linejoin:miter;stroke-width:0.5;"/>
   </g>
   <g id="patch_29">
    <path clip-path="url(#p641b0ce1f3)" d="M 221.759697 258.361667 
L 227.552008 258.361667 
L 227.552008 252.582491 
L 221.759697 252.582491 
z
" style="fill:#7570b3;opacity:0.6;stroke:#000000;stroke-linejoin:miter;stroke-width:0.5;"/>
   </g>
   <g id="patch_30">
    <path clip-path="url(#p641b0ce1f3)" d="M 227.552008 258.361667 
L 233.344318 258.361667 
L 233.344318 239.868303 
L 227.552008 239.868303 
z
" style="fill:#7570b3;opacity:0.6;stroke:#000000;stroke-linejoin:miter;stroke-width:0.5;"/>
   </g>
   <g id="patch_31">
    <path clip-path="url(#p641b0ce1f3)" d="M 233.344318 258.361667 
L 239.136629 258.361667 
L 239.136629 197.1024 
L 233.344318 197.1024 
z
" style="fill:#7570b3;opacity:0.6;stroke:#000000;stroke-linejoin:miter;stroke-width:0.5;"/>
   </g>
   <g id="patch_32">
    <path clip-path="url(#p641b0ce1f3)" d="M 239.136629 258.361667 
L 244.928939 258.361667 
L 244.928939 121.97311 
L 239.136629 121.97311 
z
" style="fill:#7570b3;opacity:0.6;stroke:#000000;stroke-linejoin:miter;stroke-width:0.5;"/>
   </g>
   <g id="patch_33">
    <path clip-path="url(#p641b0ce1f3)" d="M 244.928939 258.361667 
L 250.72125 258.361667 
L 250.72125 86.142218 
L 244.928939 86.142218 
z
" style="fill:#7570b3;opacity:0.6;stroke:#000000;stroke-linejoin:miter;stroke-width:0.5;"/>
   </g>
   <g id="patch_34">
    <path clip-path="url(#p641b0ce1f3)" d="M 250.72125 258.361667 
L 256.513561 258.361667 
L 256.513561 97.931738 
L 250.72125 97.931738 
z
" style="fill:#7570b3;opacity:0.6;stroke:#000000;stroke-linejoin:miter;stroke-width:0.5;"/>
   </g>
   <g id="patch_35">
    <path clip-path="url(#p641b0ce1f3)" d="M 256.513561 258.361667 
L 262.305871 258.361667 
L 262.305871 143.240478 
L 256.513561 143.240478 
z
" style="fill:#7570b3;opacity:0.6;stroke:#000000;stroke-linejoin:miter;stroke-width:0.5;"/>
   </g>
   <g id="patch_36">
    <path clip-path="url(#p641b0ce1f3)" d="M 262.305871 258.361667 
L 268.098182 258.361667 
L 268.098182 179.996039 
L 262.305871 179.996039 
z
" style="fill:#7570b3;opacity:0.6;stroke:#000000;stroke-linejoin:miter;stroke-width:0.5;"/>
   </g>
   <g id="patch_37">
    <path clip-path="url(#p641b0ce1f3)" d="M 268.098182 258.361667 
L 273.890492 258.361667 
L 273.890492 197.795901 
L 268.098182 197.795901 
z
" style="fill:#7570b3;opacity:0.6;stroke:#000000;stroke-linejoin:miter;stroke-width:0.5;"/>
   </g>
   <g id="patch_38">
    <path clip-path="url(#p641b0ce1f3)" d="M 273.890492 258.361667 
L 279.682803 258.361667 
L 279.682803 210.278921 
L 273.890492 210.278921 
z
" style="fill:#7570b3;opacity:0.6;stroke:#000000;stroke-linejoin:miter;stroke-width:0.5;"/>
   </g>
   <g id="patch_39">
    <path clip-path="url(#p641b0ce1f3)" d="M 279.682803 258.361667 
L 285.475114 258.361667 
L 285.475114 210.278921 
L 279.682803 210.278921 
z
" style="fill:#7570b3;opacity:0.6;stroke:#000000;stroke-linejoin:miter;stroke-width:0.5;"/>
   </g>
   <g id="patch_40">
    <path clip-path="url(#p641b0ce1f3)" d="M 285.475114 258.361667 
L 291.267424 258.361667 
L 291.267424 211.665924 
L 285.475114 211.665924 
z
" style="fill:#7570b3;opacity:0.6;stroke:#000000;stroke-linejoin:miter;stroke-width:0.5;"/>
   </g>
   <g id="patch_41">
    <path clip-path="url(#p641b0ce1f3)" d="M 291.267424 258.361667 
L 297.059735 258.361667 
L 297.059735 242.411141 
L 291.267424 242.411141 
z
" style="fill:#7570b3;opacity:0.6;stroke:#000000;stroke-linejoin:miter;stroke-width:0.5;"/>
   </g>
   <g id="patch_42">
    <path clip-path="url(#p641b0ce1f3)" d="M 297.059735 258.361667 
L 302.852045 258.361667 
L 302.852045 256.51233 
L 297.059735 256.51233 
z
" style="fill:#7570b3;opacity:0.6;stroke:#000000;stroke-linejoin:miter;stroke-width:0.5;"/>
   </g>
   <g id="patch_43">
    <path clip-path="url(#p641b0ce1f3)" d="M 71.159621 258.361667 
L 76.951932 258.361667 
L 76.951932 258.361667 
L 71.159621 258.361667 
z
" style="fill:#d95f02;opacity:0.6;stroke:#000000;stroke-linejoin:miter;stroke-width:0.5;"/>
   </g>
   <g id="patch_44">
    <path clip-path="url(#p641b0ce1f3)" d="M 76.951932 258.361667 
L 82.744242 258.361667 
L 82.744242 258.361667 
L 76.951932 258.361667 
z
" style="fill:#d95f02;opacity:0.6;stroke:#000000;stroke-linejoin:miter;stroke-width:0.5;"/>
   </g>
   <g id="patch_45">
    <path clip-path="url(#p641b0ce1f3)" d="M 82.744242 258.361667 
L 88.536553 258.361667 
L 88.536553 258.361667 
L 82.744242 258.361667 
z
" style="fill:#d95f02;opacity:0.6;stroke:#000000;stroke-linejoin:miter;stroke-width:0.5;"/>
   </g>
   <g id="patch_46">
    <path clip-path="url(#p641b0ce1f3)" d="M 88.536553 258.361667 
L 94.328864 258.361667 
L 94.328864 258.361667 
L 88.536553 258.361667 
z
" style="fill:#d95f02;opacity:0.6;stroke:#000000;stroke-linejoin:miter;stroke-width:0.5;"/>
   </g>
   <g id="patch_47">
    <path clip-path="url(#p641b0ce1f3)" d="M 94.328864 258.361667 
L 100.121174 258.361667 
L 100.121174 258.361667 
L 94.328864 258.361667 
z
" style="fill:#d95f02;opacity:0.6;stroke:#000000;stroke-linejoin:miter;stroke-width:0.5;"/>
   </g>
   <g id="patch_48">
    <path clip-path="url(#p641b0ce1f3)" d="M 100.121174 258.361667 
L 105.913485 258.361667 
L 105.913485 258.361667 
L 100.121174 258.361667 
z
" style="fill:#d95f02;opacity:0.6;stroke:#000000;stroke-linejoin:miter;stroke-width:0.5;"/>
   </g>
   <g id="patch_49">
    <path clip-path="url(#p641b0ce1f3)" d="M 105.913485 258.361667 
L 111.705795 258.361667 
L 111.705795 258.361667 
L 105.913485 258.361667 
z
" style="fill:#d95f02;opacity:0.6;stroke:#000000;stroke-linejoin:miter;stroke-width:0.5;"/>
   </g>
   <g id="patch_50">
    <path clip-path="url(#p641b0ce1f3)" d="M 111.705795 258.361667 
L 117.498106 258.361667 
L 117.498106 258.361667 
L 111.705795 258.361667 
z
" style="fill:#d95f02;opacity:0.6;stroke:#000000;stroke-linejoin:miter;stroke-width:0.5;"/>
   </g>
   <g id="patch_51">
    <path clip-path="url(#p641b0ce1f3)" d="M 117.498106 258.361667 
L 123.290417 258.361667 
L 123.290417 258.361667 
L 117.498106 258.361667 
z
" style="fill:#d95f02;opacity:0.6;stroke:#000000;stroke-linejoin:miter;stroke-width:0.5;"/>
   </g>
   <g id="patch_52">
    <path clip-path="url(#p641b0ce1f3)" d="M 123.290417 258.361667 
L 129.082727 258.361667 
L 129.082727 258.361667 
L 123.290417 258.361667 
z
" style="fill:#d95f02;opacity:0.6;stroke:#000000;stroke-linejoin:miter;stroke-width:0.5;"/>
   </g>
   <g id="patch_53">
    <path clip-path="url(#p641b0ce1f3)" d="M 129.082727 258.361667 
L 134.875038 258.361667 
L 134.875038 258.361667 
L 129.082727 258.361667 
z
" style="fill:#d95f02;opacity:0.6;stroke:#000000;stroke-linejoin:miter;stroke-width:0.5;"/>
   </g>
   <g id="patch_54">
    <path clip-path="url(#p641b0ce1f3)" d="M 134.875038 258.361667 
L 140.667348 258.361667 
L 140.667348 258.361667 
L 134.875038 258.361667 
z
" style="fill:#d95f02;opacity:0.6;stroke:#000000;stroke-linejoin:miter;stroke-width:0.5;"/>
   </g>
   <g id="patch_55">
    <path clip-path="url(#p641b0ce1f3)" d="M 140.667348 258.361667 
L 146.459659 258.361667 
L 146.459659 258.361667 
L 140.667348 258.361667 
z
" style="fill:#d95f02;opacity:0.6;stroke:#000000;stroke-linejoin:miter;stroke-width:0.5;"/>
   </g>
   <g id="patch_56">
    <path clip-path="url(#p641b0ce1f3)" d="M 146.459659 258.361667 
L 152.25197 258.361667 
L 152.25197 258.361667 
L 146.459659 258.361667 
z
" style="fill:#d95f02;opacity:0.6;stroke:#000000;stroke-linejoin:miter;stroke-width:0.5;"/>
   </g>
   <g id="patch_57">
    <path clip-path="url(#p641b0ce1f3)" d="M 152.25197 258.361667 
L 158.04428 258.361667 
L 158.04428 258.361667 
L 152.25197 258.361667 
z
" style="fill:#d95f02;opacity:0.6;stroke:#000000;stroke-linejoin:miter;stroke-width:0.5;"/>
   </g>
   <g id="patch_58">
    <path clip-path="url(#p641b0ce1f3)" d="M 158.04428 258.361667 
L 163.836591 258.361667 
L 163.836591 258.361667 
L 158.04428 258.361667 
z
" style="fill:#d95f02;opacity:0.6;stroke:#000000;stroke-linejoin:miter;stroke-width:0.5;"/>
   </g>
   <g id="patch_59">
    <path clip-path="url(#p641b0ce1f3)" d="M 163.836591 258.361667 
L 169.628902 258.361667 
L 169.628902 258.361667 
L 163.836591 258.361667 
z
" style="fill:#d95f02;opacity:0.6;stroke:#000000;stroke-linejoin:miter;stroke-width:0.5;"/>
   </g>
   <g id="patch_60">
    <path clip-path="url(#p641b0ce1f3)" d="M 169.628902 258.361667 
L 175.421212 258.361667 
L 175.421212 258.361667 
L 169.628902 258.361667 
z
" style="fill:#d95f02;opacity:0.6;stroke:#000000;stroke-linejoin:miter;stroke-width:0.5;"/>
   </g>
   <g id="patch_61">
    <path clip-path="url(#p641b0ce1f3)" d="M 175.421212 258.361667 
L 181.213523 258.361667 
L 181.213523 258.361667 
L 175.421212 258.361667 
z
" style="fill:#d95f02;opacity:0.6;stroke:#000000;stroke-linejoin:miter;stroke-width:0.5;"/>
   </g>
   <g id="patch_62">
    <path clip-path="url(#p641b0ce1f3)" d="M 181.213523 258.361667 
L 187.005833 258.361667 
L 187.005833 258.361667 
L 181.213523 258.361667 
z
" style="fill:#d95f02;opacity:0.6;stroke:#000000;stroke-linejoin:miter;stroke-width:0.5;"/>
   </g>
   <g id="patch_63">
    <path clip-path="url(#p641b0ce1f3)" d="M 187.005833 258.361667 
L 192.798144 258.361667 
L 192.798144 258.361667 
L 187.005833 258.361667 
z
" style="fill:#d95f02;opacity:0.6;stroke:#000000;stroke-linejoin:miter;stroke-width:0.5;"/>
   </g>
   <g id="patch_64">
    <path clip-path="url(#p641b0ce1f3)" d="M 192.798144 258.361667 
L 198.590455 258.361667 
L 198.590455 258.361667 
L 192.798144 258.361667 
z
" style="fill:#d95f02;opacity:0.6;stroke:#000000;stroke-linejoin:miter;stroke-width:0.5;"/>
   </g>
   <g id="patch_65">
    <path clip-path="url(#p641b0ce1f3)" d="M 198.590455 258.361667 
L 204.382765 258.361667 
L 204.382765 258.361667 
L 198.590455 258.361667 
z
" style="fill:#d95f02;opacity:0.6;stroke:#000000;stroke-linejoin:miter;stroke-width:0.5;"/>
   </g>
   <g id="patch_66">
    <path clip-path="url(#p641b0ce1f3)" d="M 204.382765 258.361667 
L 210.175076 258.361667 
L 210.175076 258.361667 
L 204.382765 258.361667 
z
" style="fill:#d95f02;opacity:0.6;stroke:#000000;stroke-linejoin:miter;stroke-width:0.5;"/>
   </g>
   <g id="patch_67">
    <path clip-path="url(#p641b0ce1f3)" d="M 210.175076 258.361667 
L 215.967386 258.361667 
L 215.967386 258.361667 
L 210.175076 258.361667 
z
" style="fill:#d95f02;opacity:0.6;stroke:#000000;stroke-linejoin:miter;stroke-width:0.5;"/>
   </g>
   <g id="patch_68">
    <path clip-path="url(#p641b0ce1f3)" d="M 215.967386 258.361667 
L 221.759697 258.361667 
L 221.759697 251.079905 
L 215.967386 251.079905 
z
" style="fill:#d95f02;opacity:0.6;stroke:#000000;stroke-linejoin:miter;stroke-width:0.5;"/>
   </g>
   <g id="patch_69">
    <path clip-path="url(#p641b0ce1f3)" d="M 221.759697 258.361667 
L 227.552008 258.361667 
L 227.552008 247.439024 
L 221.759697 247.439024 
z
" style="fill:#d95f02;opacity:0.6;stroke:#000000;stroke-linejoin:miter;stroke-width:0.5;"/>
   </g>
   <g id="patch_70">
    <path clip-path="url(#p641b0ce1f3)" d="M 227.552008 258.361667 
L 233.344318 258.361667 
L 233.344318 230.448246 
L 227.552008 230.448246 
z
" style="fill:#d95f02;opacity:0.6;stroke:#000000;stroke-linejoin:miter;stroke-width:0.5;"/>
   </g>
   <g id="patch_71">
    <path clip-path="url(#p641b0ce1f3)" d="M 233.344318 258.361667 
L 239.136629 258.361667 
L 239.136629 177.048659 
L 233.344318 177.048659 
z
" style="fill:#d95f02;opacity:0.6;stroke:#000000;stroke-linejoin:miter;stroke-width:0.5;"/>
   </g>
   <g id="patch_72">
    <path clip-path="url(#p641b0ce1f3)" d="M 239.136629 258.361667 
L 244.928939 258.361667 
L 244.928939 121.221817 
L 239.136629 121.221817 
z
" style="fill:#d95f02;opacity:0.6;stroke:#000000;stroke-linejoin:miter;stroke-width:0.5;"/>
   </g>
   <g id="patch_73">
    <path clip-path="url(#p641b0ce1f3)" d="M 244.928939 258.361667 
L 250.72125 258.361667 
L 250.72125 15.63627 
L 244.928939 15.63627 
z
" style="fill:#d95f02;opacity:0.6;stroke:#000000;stroke-linejoin:miter;stroke-width:0.5;"/>
   </g>
   <g id="patch_74">
    <path clip-path="url(#p641b0ce1f3)" d="M 250.72125 258.361667 
L 256.513561 258.361667 
L 256.513561 73.890365 
L 250.72125 73.890365 
z
" style="fill:#d95f02;opacity:0.6;stroke:#000000;stroke-linejoin:miter;stroke-width:0.5;"/>
   </g>
   <g id="patch_75">
    <path clip-path="url(#p641b0ce1f3)" d="M 256.513561 258.361667 
L 262.305871 258.361667 
L 262.305871 143.067103 
L 256.513561 143.067103 
z
" style="fill:#d95f02;opacity:0.6;stroke:#000000;stroke-linejoin:miter;stroke-width:0.5;"/>
   </g>
   <g id="patch_76">
    <path clip-path="url(#p641b0ce1f3)" d="M 262.305871 258.361667 
L 268.098182 258.361667 
L 268.098182 183.116794 
L 262.305871 183.116794 
z
" style="fill:#d95f02;opacity:0.6;stroke:#000000;stroke-linejoin:miter;stroke-width:0.5;"/>
   </g>
   <g id="patch_77">
    <path clip-path="url(#p641b0ce1f3)" d="M 268.098182 258.361667 
L 273.890492 258.361667 
L 273.890492 224.380111 
L 268.098182 224.380111 
z
" style="fill:#d95f02;opacity:0.6;stroke:#000000;stroke-linejoin:miter;stroke-width:0.5;"/>
   </g>
   <g id="patch_78">
    <path clip-path="url(#p641b0ce1f3)" d="M 273.890492 258.361667 
L 279.682803 258.361667 
L 279.682803 232.8755 
L 273.890492 232.8755 
z
" style="fill:#d95f02;opacity:0.6;stroke:#000000;stroke-linejoin:miter;stroke-width:0.5;"/>
   </g>
   <g id="patch_79">
    <path clip-path="url(#p641b0ce1f3)" d="M 279.682803 258.361667 
L 285.475114 258.361667 
L 285.475114 242.584516 
L 279.682803 242.584516 
z
" style="fill:#d95f02;opacity:0.6;stroke:#000000;stroke-linejoin:miter;stroke-width:0.5;"/>
   </g>
   <g id="patch_80">
    <path clip-path="url(#p641b0ce1f3)" d="M 285.475114 258.361667 
L 291.267424 258.361667 
L 291.267424 252.293532 
L 285.475114 252.293532 
z
" style="fill:#d95f02;opacity:0.6;stroke:#000000;stroke-linejoin:miter;stroke-width:0.5;"/>
   </g>
   <g id="patch_81">
    <path clip-path="url(#p641b0ce1f3)" d="M 291.267424 258.361667 
L 297.059735 258.361667 
L 297.059735 252.293532 
L 291.267424 252.293532 
z
" style="fill:#d95f02;opacity:0.6;stroke:#000000;stroke-linejoin:miter;stroke-width:0.5;"/>
   </g>
   <g id="patch_82">
    <path clip-path="url(#p641b0ce1f3)" d="M 297.059735 258.361667 
L 302.852045 258.361667 
L 302.852045 257.14804 
L 297.059735 257.14804 
z
" style="fill:#d95f02;opacity:0.6;stroke:#000000;stroke-linejoin:miter;stroke-width:0.5;"/>
   </g>
   <g id="matplotlib.axis_1">
    <g id="xtick_1">
     <g id="line2d_1">
      <defs>
       <path d="M 0 0 
L 0 3.5 
" id="m0a64a2c94d" style="stroke:#000000;stroke-width:1.6;"/>
      </defs>
      <g>
       <use style="stroke:#000000;stroke-width:1.6;" x="71.159621" xlink:href="#m0a64a2c94d" y="258.361667"/>
      </g>
     </g>
     <g id="text_1">
      <!-- 0.0 -->
      <defs>
       <path d="M 31.78125 66.40625 
Q 24.171875 66.40625 20.328125 58.90625 
Q 16.5 51.421875 16.5 36.375 
Q 16.5 21.390625 20.328125 13.890625 
Q 24.171875 6.390625 31.78125 6.390625 
Q 39.453125 6.390625 43.28125 13.890625 
Q 47.125 21.390625 47.125 36.375 
Q 47.125 51.421875 43.28125 58.90625 
Q 39.453125 66.40625 31.78125 66.40625 
z
M 31.78125 74.21875 
Q 44.046875 74.21875 50.515625 64.515625 
Q 56.984375 54.828125 56.984375 36.375 
Q 56.984375 17.96875 50.515625 8.265625 
Q 44.046875 -1.421875 31.78125 -1.421875 
Q 19.53125 -1.421875 13.0625 8.265625 
Q 6.59375 17.96875 6.59375 36.375 
Q 6.59375 54.828125 13.0625 64.515625 
Q 19.53125 74.21875 31.78125 74.21875 
z
" id="DejaVuSans-48"/>
       <path d="M 10.6875 12.40625 
L 21 12.40625 
L 21 0 
L 10.6875 0 
z
" id="DejaVuSans-46"/>
      </defs>
      <g transform="translate(55.256496 288.258542)scale(0.2 -0.2)">
       <use xlink:href="#DejaVuSans-48"/>
       <use x="63.623047" xlink:href="#DejaVuSans-46"/>
       <use x="95.410156" xlink:href="#DejaVuSans-48"/>
      </g>
     </g>
    </g>
    <g id="xtick_2">
     <g id="line2d_2">
      <g>
       <use style="stroke:#000000;stroke-width:1.6;" x="137.357457" xlink:href="#m0a64a2c94d" y="258.361667"/>
      </g>
     </g>
     <g id="text_2">
      <!-- 0.2 -->
      <defs>
       <path d="M 19.1875 8.296875 
L 53.609375 8.296875 
L 53.609375 0 
L 7.328125 0 
L 7.328125 8.296875 
Q 12.9375 14.109375 22.625 23.890625 
Q 32.328125 33.6875 34.8125 36.53125 
Q 39.546875 41.84375 41.421875 45.53125 
Q 43.3125 49.21875 43.3125 52.78125 
Q 43.3125 58.59375 39.234375 62.25 
Q 35.15625 65.921875 28.609375 65.921875 
Q 23.96875 65.921875 18.8125 64.3125 
Q 13.671875 62.703125 7.8125 59.421875 
L 7.8125 69.390625 
Q 13.765625 71.78125 18.9375 73 
Q 24.125 74.21875 28.421875 74.21875 
Q 39.75 74.21875 46.484375 68.546875 
Q 53.21875 62.890625 53.21875 53.421875 
Q 53.21875 48.921875 51.53125 44.890625 
Q 49.859375 40.875 45.40625 35.40625 
Q 44.1875 33.984375 37.640625 27.21875 
Q 31.109375 20.453125 19.1875 8.296875 
z
" id="DejaVuSans-50"/>
      </defs>
      <g transform="translate(121.454332 288.258542)scale(0.2 -0.2)">
       <use xlink:href="#DejaVuSans-48"/>
       <use x="63.623047" xlink:href="#DejaVuSans-46"/>
       <use x="95.410156" xlink:href="#DejaVuSans-50"/>
      </g>
     </g>
    </g>
    <g id="xtick_3">
     <g id="line2d_3">
      <g>
       <use style="stroke:#000000;stroke-width:1.6;" x="203.555292" xlink:href="#m0a64a2c94d" y="258.361667"/>
      </g>
     </g>
     <g id="text_3">
      <!-- 0.4 -->
      <defs>
       <path d="M 37.796875 64.3125 
L 12.890625 25.390625 
L 37.796875 25.390625 
z
M 35.203125 72.90625 
L 47.609375 72.90625 
L 47.609375 25.390625 
L 58.015625 25.390625 
L 58.015625 17.1875 
L 47.609375 17.1875 
L 47.609375 0 
L 37.796875 0 
L 37.796875 17.1875 
L 4.890625 17.1875 
L 4.890625 26.703125 
z
" id="DejaVuSans-52"/>
      </defs>
      <g transform="translate(187.652167 288.258542)scale(0.2 -0.2)">
       <use xlink:href="#DejaVuSans-48"/>
       <use x="63.623047" xlink:href="#DejaVuSans-46"/>
       <use x="95.410156" xlink:href="#DejaVuSans-52"/>
      </g>
     </g>
    </g>
    <g id="xtick_4">
     <g id="line2d_4">
      <g>
       <use style="stroke:#000000;stroke-width:1.6;" x="269.753128" xlink:href="#m0a64a2c94d" y="258.361667"/>
      </g>
     </g>
     <g id="text_4">
      <!-- 0.6 -->
      <defs>
       <path d="M 33.015625 40.375 
Q 26.375 40.375 22.484375 35.828125 
Q 18.609375 31.296875 18.609375 23.390625 
Q 18.609375 15.53125 22.484375 10.953125 
Q 26.375 6.390625 33.015625 6.390625 
Q 39.65625 6.390625 43.53125 10.953125 
Q 47.40625 15.53125 47.40625 23.390625 
Q 47.40625 31.296875 43.53125 35.828125 
Q 39.65625 40.375 33.015625 40.375 
z
M 52.59375 71.296875 
L 52.59375 62.3125 
Q 48.875 64.0625 45.09375 64.984375 
Q 41.3125 65.921875 37.59375 65.921875 
Q 27.828125 65.921875 22.671875 59.328125 
Q 17.53125 52.734375 16.796875 39.40625 
Q 19.671875 43.65625 24.015625 45.921875 
Q 28.375 48.1875 33.59375 48.1875 
Q 44.578125 48.1875 50.953125 41.515625 
Q 57.328125 34.859375 57.328125 23.390625 
Q 57.328125 12.15625 50.6875 5.359375 
Q 44.046875 -1.421875 33.015625 -1.421875 
Q 20.359375 -1.421875 13.671875 8.265625 
Q 6.984375 17.96875 6.984375 36.375 
Q 6.984375 53.65625 15.1875 63.9375 
Q 23.390625 74.21875 37.203125 74.21875 
Q 40.921875 74.21875 44.703125 73.484375 
Q 48.484375 72.75 52.59375 71.296875 
z
" id="DejaVuSans-54"/>
      </defs>
      <g transform="translate(253.850003 288.258542)scale(0.2 -0.2)">
       <use xlink:href="#DejaVuSans-48"/>
       <use x="63.623047" xlink:href="#DejaVuSans-46"/>
       <use x="95.410156" xlink:href="#DejaVuSans-54"/>
      </g>
     </g>
    </g>
    <g id="text_5">
     <!-- Max JS Divergence within $\epsilon$ -->
     <defs>
      <path d="M 9.8125 72.90625 
L 24.515625 72.90625 
L 43.109375 23.296875 
L 61.8125 72.90625 
L 76.515625 72.90625 
L 76.515625 0 
L 66.890625 0 
L 66.890625 64.015625 
L 48.09375 14.015625 
L 38.1875 14.015625 
L 19.390625 64.015625 
L 19.390625 0 
L 9.8125 0 
z
" id="DejaVuSans-77"/>
      <path d="M 34.28125 27.484375 
Q 23.390625 27.484375 19.1875 25 
Q 14.984375 22.515625 14.984375 16.5 
Q 14.984375 11.71875 18.140625 8.90625 
Q 21.296875 6.109375 26.703125 6.109375 
Q 34.1875 6.109375 38.703125 11.40625 
Q 43.21875 16.703125 43.21875 25.484375 
L 43.21875 27.484375 
z
M 52.203125 31.203125 
L 52.203125 0 
L 43.21875 0 
L 43.21875 8.296875 
Q 40.140625 3.328125 35.546875 0.953125 
Q 30.953125 -1.421875 24.3125 -1.421875 
Q 15.921875 -1.421875 10.953125 3.296875 
Q 6 8.015625 6 15.921875 
Q 6 25.140625 12.171875 29.828125 
Q 18.359375 34.515625 30.609375 34.515625 
L 43.21875 34.515625 
L 43.21875 35.40625 
Q 43.21875 41.609375 39.140625 45 
Q 35.0625 48.390625 27.6875 48.390625 
Q 23 48.390625 18.546875 47.265625 
Q 14.109375 46.140625 10.015625 43.890625 
L 10.015625 52.203125 
Q 14.9375 54.109375 19.578125 55.046875 
Q 24.21875 56 28.609375 56 
Q 40.484375 56 46.34375 49.84375 
Q 52.203125 43.703125 52.203125 31.203125 
z
" id="DejaVuSans-97"/>
      <path d="M 54.890625 54.6875 
L 35.109375 28.078125 
L 55.90625 0 
L 45.3125 0 
L 29.390625 21.484375 
L 13.484375 0 
L 2.875 0 
L 24.125 28.609375 
L 4.6875 54.6875 
L 15.28125 54.6875 
L 29.78125 35.203125 
L 44.28125 54.6875 
z
" id="DejaVuSans-120"/>
      <path id="DejaVuSans-32"/>
      <path d="M 9.8125 72.90625 
L 19.671875 72.90625 
L 19.671875 5.078125 
Q 19.671875 -8.109375 14.671875 -14.0625 
Q 9.671875 -20.015625 -1.421875 -20.015625 
L -5.171875 -20.015625 
L -5.171875 -11.71875 
L -2.09375 -11.71875 
Q 4.4375 -11.71875 7.125 -8.046875 
Q 9.8125 -4.390625 9.8125 5.078125 
z
" id="DejaVuSans-74"/>
      <path d="M 53.515625 70.515625 
L 53.515625 60.890625 
Q 47.90625 63.578125 42.921875 64.890625 
Q 37.9375 66.21875 33.296875 66.21875 
Q 25.25 66.21875 20.875 63.09375 
Q 16.5 59.96875 16.5 54.203125 
Q 16.5 49.359375 19.40625 46.890625 
Q 22.3125 44.4375 30.421875 42.921875 
L 36.375 41.703125 
Q 47.40625 39.59375 52.65625 34.296875 
Q 57.90625 29 57.90625 20.125 
Q 57.90625 9.515625 50.796875 4.046875 
Q 43.703125 -1.421875 29.984375 -1.421875 
Q 24.8125 -1.421875 18.96875 -0.25 
Q 13.140625 0.921875 6.890625 3.21875 
L 6.890625 13.375 
Q 12.890625 10.015625 18.65625 8.296875 
Q 24.421875 6.59375 29.984375 6.59375 
Q 38.421875 6.59375 43.015625 9.90625 
Q 47.609375 13.234375 47.609375 19.390625 
Q 47.609375 24.75 44.3125 27.78125 
Q 41.015625 30.8125 33.5 32.328125 
L 27.484375 33.5 
Q 16.453125 35.6875 11.515625 40.375 
Q 6.59375 45.0625 6.59375 53.421875 
Q 6.59375 63.09375 13.40625 68.65625 
Q 20.21875 74.21875 32.171875 74.21875 
Q 37.3125 74.21875 42.625 73.28125 
Q 47.953125 72.359375 53.515625 70.515625 
z
" id="DejaVuSans-83"/>
      <path d="M 19.671875 64.796875 
L 19.671875 8.109375 
L 31.59375 8.109375 
Q 46.6875 8.109375 53.6875 14.9375 
Q 60.6875 21.78125 60.6875 36.53125 
Q 60.6875 51.171875 53.6875 57.984375 
Q 46.6875 64.796875 31.59375 64.796875 
z
M 9.8125 72.90625 
L 30.078125 72.90625 
Q 51.265625 72.90625 61.171875 64.09375 
Q 71.09375 55.28125 71.09375 36.53125 
Q 71.09375 17.671875 61.125 8.828125 
Q 51.171875 0 30.078125 0 
L 9.8125 0 
z
" id="DejaVuSans-68"/>
      <path d="M 9.421875 54.6875 
L 18.40625 54.6875 
L 18.40625 0 
L 9.421875 0 
z
M 9.421875 75.984375 
L 18.40625 75.984375 
L 18.40625 64.59375 
L 9.421875 64.59375 
z
" id="DejaVuSans-105"/>
      <path d="M 2.984375 54.6875 
L 12.5 54.6875 
L 29.59375 8.796875 
L 46.6875 54.6875 
L 56.203125 54.6875 
L 35.6875 0 
L 23.484375 0 
z
" id="DejaVuSans-118"/>
      <path d="M 56.203125 29.59375 
L 56.203125 25.203125 
L 14.890625 25.203125 
Q 15.484375 15.921875 20.484375 11.0625 
Q 25.484375 6.203125 34.421875 6.203125 
Q 39.59375 6.203125 44.453125 7.46875 
Q 49.3125 8.734375 54.109375 11.28125 
L 54.109375 2.78125 
Q 49.265625 0.734375 44.1875 -0.34375 
Q 39.109375 -1.421875 33.890625 -1.421875 
Q 20.796875 -1.421875 13.15625 6.1875 
Q 5.515625 13.8125 5.515625 26.8125 
Q 5.515625 40.234375 12.765625 48.109375 
Q 20.015625 56 32.328125 56 
Q 43.359375 56 49.78125 48.890625 
Q 56.203125 41.796875 56.203125 29.59375 
z
M 47.21875 32.234375 
Q 47.125 39.59375 43.09375 43.984375 
Q 39.0625 48.390625 32.421875 48.390625 
Q 24.90625 48.390625 20.390625 44.140625 
Q 15.875 39.890625 15.1875 32.171875 
z
" id="DejaVuSans-101"/>
      <path d="M 41.109375 46.296875 
Q 39.59375 47.171875 37.8125 47.578125 
Q 36.03125 48 33.890625 48 
Q 26.265625 48 22.1875 43.046875 
Q 18.109375 38.09375 18.109375 28.8125 
L 18.109375 0 
L 9.078125 0 
L 9.078125 54.6875 
L 18.109375 54.6875 
L 18.109375 46.1875 
Q 20.953125 51.171875 25.484375 53.578125 
Q 30.03125 56 36.53125 56 
Q 37.453125 56 38.578125 55.875 
Q 39.703125 55.765625 41.0625 55.515625 
z
" id="DejaVuSans-114"/>
      <path d="M 45.40625 27.984375 
Q 45.40625 37.75 41.375 43.109375 
Q 37.359375 48.484375 30.078125 48.484375 
Q 22.859375 48.484375 18.828125 43.109375 
Q 14.796875 37.75 14.796875 27.984375 
Q 14.796875 18.265625 18.828125 12.890625 
Q 22.859375 7.515625 30.078125 7.515625 
Q 37.359375 7.515625 41.375 12.890625 
Q 45.40625 18.265625 45.40625 27.984375 
z
M 54.390625 6.78125 
Q 54.390625 -7.171875 48.1875 -13.984375 
Q 42 -20.796875 29.203125 -20.796875 
Q 24.46875 -20.796875 20.265625 -20.09375 
Q 16.0625 -19.390625 12.109375 -17.921875 
L 12.109375 -9.1875 
Q 16.0625 -11.328125 19.921875 -12.34375 
Q 23.78125 -13.375 27.78125 -13.375 
Q 36.625 -13.375 41.015625 -8.765625 
Q 45.40625 -4.15625 45.40625 5.171875 
L 45.40625 9.625 
Q 42.625 4.78125 38.28125 2.390625 
Q 33.9375 0 27.875 0 
Q 17.828125 0 11.671875 7.65625 
Q 5.515625 15.328125 5.515625 27.984375 
Q 5.515625 40.671875 11.671875 48.328125 
Q 17.828125 56 27.875 56 
Q 33.9375 56 38.28125 53.609375 
Q 42.625 51.21875 45.40625 46.390625 
L 45.40625 54.6875 
L 54.390625 54.6875 
z
" id="DejaVuSans-103"/>
      <path d="M 54.890625 33.015625 
L 54.890625 0 
L 45.90625 0 
L 45.90625 32.71875 
Q 45.90625 40.484375 42.875 44.328125 
Q 39.84375 48.1875 33.796875 48.1875 
Q 26.515625 48.1875 22.3125 43.546875 
Q 18.109375 38.921875 18.109375 30.90625 
L 18.109375 0 
L 9.078125 0 
L 9.078125 54.6875 
L 18.109375 54.6875 
L 18.109375 46.1875 
Q 21.34375 51.125 25.703125 53.5625 
Q 30.078125 56 35.796875 56 
Q 45.21875 56 50.046875 50.171875 
Q 54.890625 44.34375 54.890625 33.015625 
z
" id="DejaVuSans-110"/>
      <path d="M 48.78125 52.59375 
L 48.78125 44.1875 
Q 44.96875 46.296875 41.140625 47.34375 
Q 37.3125 48.390625 33.40625 48.390625 
Q 24.65625 48.390625 19.8125 42.84375 
Q 14.984375 37.3125 14.984375 27.296875 
Q 14.984375 17.28125 19.8125 11.734375 
Q 24.65625 6.203125 33.40625 6.203125 
Q 37.3125 6.203125 41.140625 7.25 
Q 44.96875 8.296875 48.78125 10.40625 
L 48.78125 2.09375 
Q 45.015625 0.34375 40.984375 -0.53125 
Q 36.96875 -1.421875 32.421875 -1.421875 
Q 20.0625 -1.421875 12.78125 6.34375 
Q 5.515625 14.109375 5.515625 27.296875 
Q 5.515625 40.671875 12.859375 48.328125 
Q 20.21875 56 33.015625 56 
Q 37.15625 56 41.109375 55.140625 
Q 45.0625 54.296875 48.78125 52.59375 
z
" id="DejaVuSans-99"/>
      <path d="M 4.203125 54.6875 
L 13.1875 54.6875 
L 24.421875 12.015625 
L 35.59375 54.6875 
L 46.1875 54.6875 
L 57.421875 12.015625 
L 68.609375 54.6875 
L 77.59375 54.6875 
L 63.28125 0 
L 52.6875 0 
L 40.921875 44.828125 
L 29.109375 0 
L 18.5 0 
z
" id="DejaVuSans-119"/>
      <path d="M 18.3125 70.21875 
L 18.3125 54.6875 
L 36.8125 54.6875 
L 36.8125 47.703125 
L 18.3125 47.703125 
L 18.3125 18.015625 
Q 18.3125 11.328125 20.140625 9.421875 
Q 21.96875 7.515625 27.59375 7.515625 
L 36.8125 7.515625 
L 36.8125 0 
L 27.59375 0 
Q 17.1875 0 13.234375 3.875 
Q 9.28125 7.765625 9.28125 18.015625 
L 9.28125 47.703125 
L 2.6875 47.703125 
L 2.6875 54.6875 
L 9.28125 54.6875 
L 9.28125 70.21875 
z
" id="DejaVuSans-116"/>
      <path d="M 54.890625 33.015625 
L 54.890625 0 
L 45.90625 0 
L 45.90625 32.71875 
Q 45.90625 40.484375 42.875 44.328125 
Q 39.84375 48.1875 33.796875 48.1875 
Q 26.515625 48.1875 22.3125 43.546875 
Q 18.109375 38.921875 18.109375 30.90625 
L 18.109375 0 
L 9.078125 0 
L 9.078125 75.984375 
L 18.109375 75.984375 
L 18.109375 46.1875 
Q 21.34375 51.125 25.703125 53.5625 
Q 30.078125 56 35.796875 56 
Q 45.21875 56 50.046875 50.171875 
Q 54.890625 44.34375 54.890625 33.015625 
z
" id="DejaVuSans-104"/>
      <path d="M 19.734375 29.5 
Q 14.453125 30.671875 12.15625 33.84375 
Q 10.453125 36.078125 10.453125 39.109375 
Q 10.453125 47.40625 18.359375 52.25 
Q 24.609375 56.0625 34.1875 56.0625 
Q 37.890625 56.0625 41.9375 55.46875 
Q 46 54.890625 50.53125 53.71875 
L 48.96875 45.5625 
Q 44.484375 46.96875 40.71875 47.609375 
Q 36.859375 48.25 33.40625 48.25 
Q 27.59375 48.25 23.78125 46 
Q 19.1875 43.3125 19.1875 39.40625 
Q 19.1875 36.8125 21.578125 35.015625 
Q 24.421875 32.859375 30.078125 32.859375 
L 37.640625 32.859375 
L 36.234375 25.4375 
L 29 25.4375 
Q 22.265625 25.4375 18.3125 22.953125 
Q 12.9375 19.578125 12.9375 14.3125 
Q 12.9375 10.984375 15.828125 8.796875 
Q 19.4375 6.0625 26.8125 6.0625 
Q 31.34375 6.0625 35.6875 6.9375 
Q 40.046875 7.859375 43.84375 9.671875 
L 42.1875 1.3125 
Q 37.546875 -0.046875 33.296875 -0.734375 
Q 29.046875 -1.421875 25.140625 -1.421875 
Q 13.53125 -1.421875 8.0625 3.03125 
Q 3.90625 6.453125 3.90625 12.203125 
Q 3.90625 19.96875 9.375 24.75 
Q 13.421875 28.328125 19.734375 29.5 
z
" id="DejaVuSans-Oblique-949"/>
     </defs>
     <g transform="translate(51.405833 311.617917)scale(0.2 -0.2)">
      <use transform="translate(0 0.015625)" xlink:href="#DejaVuSans-77"/>
      <use transform="translate(86.279297 0.015625)" xlink:href="#DejaVuSans-97"/>
      <use transform="translate(147.558594 0.015625)" xlink:href="#DejaVuSans-120"/>
      <use transform="translate(206.738281 0.015625)" xlink:href="#DejaVuSans-32"/>
      <use transform="translate(238.525391 0.015625)" xlink:href="#DejaVuSans-74"/>
      <use transform="translate(268.017578 0.015625)" xlink:href="#DejaVuSans-83"/>
      <use transform="translate(331.494141 0.015625)" xlink:href="#DejaVuSans-32"/>
      <use transform="translate(363.28125 0.015625)" xlink:href="#DejaVuSans-68"/>
      <use transform="translate(440.283203 0.015625)" xlink:href="#DejaVuSans-105"/>
      <use transform="translate(468.066406 0.015625)" xlink:href="#DejaVuSans-118"/>
      <use transform="translate(527.246094 0.015625)" xlink:href="#DejaVuSans-101"/>
      <use transform="translate(588.769531 0.015625)" xlink:href="#DejaVuSans-114"/>
      <use transform="translate(629.882812 0.015625)" xlink:href="#DejaVuSans-103"/>
      <use transform="translate(693.359375 0.015625)" xlink:href="#DejaVuSans-101"/>
      <use transform="translate(754.882812 0.015625)" xlink:href="#DejaVuSans-110"/>
      <use transform="translate(818.261719 0.015625)" xlink:href="#DejaVuSans-99"/>
      <use transform="translate(873.242188 0.015625)" xlink:href="#DejaVuSans-101"/>
      <use transform="translate(934.765625 0.015625)" xlink:href="#DejaVuSans-32"/>
      <use transform="translate(966.552734 0.015625)" xlink:href="#DejaVuSans-119"/>
      <use transform="translate(1048.339844 0.015625)" xlink:href="#DejaVuSans-105"/>
      <use transform="translate(1076.123047 0.015625)" xlink:href="#DejaVuSans-116"/>
      <use transform="translate(1115.332031 0.015625)" xlink:href="#DejaVuSans-104"/>
      <use transform="translate(1178.710938 0.015625)" xlink:href="#DejaVuSans-105"/>
      <use transform="translate(1206.494141 0.015625)" xlink:href="#DejaVuSans-110"/>
      <use transform="translate(1269.873047 0.015625)" xlink:href="#DejaVuSans-32"/>
      <use transform="translate(1301.660156 0.015625)" xlink:href="#DejaVuSans-Oblique-949"/>
     </g>
    </g>
   </g>
   <g id="matplotlib.axis_2">
    <g id="ytick_1">
     <g id="line2d_5">
      <defs>
       <path d="M 0 0 
L -3.5 0 
" id="m24ce2ad8bd" style="stroke:#000000;stroke-width:1.6;"/>
      </defs>
      <g>
       <use style="stroke:#000000;stroke-width:1.6;" x="59.575" xlink:href="#m24ce2ad8bd" y="258.361667"/>
      </g>
     </g>
     <g id="text_6">
      <!-- 0.00 -->
      <g transform="translate(0.34375 265.960104)scale(0.2 -0.2)">
       <use xlink:href="#DejaVuSans-48"/>
       <use x="63.623047" xlink:href="#DejaVuSans-46"/>
       <use x="95.410156" xlink:href="#DejaVuSans-48"/>
       <use x="159.033203" xlink:href="#DejaVuSans-48"/>
      </g>
     </g>
    </g>
    <g id="ytick_2">
     <g id="line2d_6">
      <g>
       <use style="stroke:#000000;stroke-width:1.6;" x="59.575" xlink:href="#m24ce2ad8bd" y="209.816587"/>
      </g>
     </g>
     <g id="text_7">
      <!-- 0.05 -->
      <defs>
       <path d="M 10.796875 72.90625 
L 49.515625 72.90625 
L 49.515625 64.59375 
L 19.828125 64.59375 
L 19.828125 46.734375 
Q 21.96875 47.46875 24.109375 47.828125 
Q 26.265625 48.1875 28.421875 48.1875 
Q 40.625 48.1875 47.75 41.5 
Q 54.890625 34.8125 54.890625 23.390625 
Q 54.890625 11.625 47.5625 5.09375 
Q 40.234375 -1.421875 26.90625 -1.421875 
Q 22.3125 -1.421875 17.546875 -0.640625 
Q 12.796875 0.140625 7.71875 1.703125 
L 7.71875 11.625 
Q 12.109375 9.234375 16.796875 8.0625 
Q 21.484375 6.890625 26.703125 6.890625 
Q 35.15625 6.890625 40.078125 11.328125 
Q 45.015625 15.765625 45.015625 23.390625 
Q 45.015625 31 40.078125 35.4375 
Q 35.15625 39.890625 26.703125 39.890625 
Q 22.75 39.890625 18.8125 39.015625 
Q 14.890625 38.140625 10.796875 36.28125 
z
" id="DejaVuSans-53"/>
      </defs>
      <g transform="translate(0.34375 217.415025)scale(0.2 -0.2)">
       <use xlink:href="#DejaVuSans-48"/>
       <use x="63.623047" xlink:href="#DejaVuSans-46"/>
       <use x="95.410156" xlink:href="#DejaVuSans-48"/>
       <use x="159.033203" xlink:href="#DejaVuSans-53"/>
      </g>
     </g>
    </g>
    <g id="ytick_3">
     <g id="line2d_7">
      <g>
       <use style="stroke:#000000;stroke-width:1.6;" x="59.575" xlink:href="#m24ce2ad8bd" y="161.271508"/>
      </g>
     </g>
     <g id="text_8">
      <!-- 0.10 -->
      <defs>
       <path d="M 12.40625 8.296875 
L 28.515625 8.296875 
L 28.515625 63.921875 
L 10.984375 60.40625 
L 10.984375 69.390625 
L 28.421875 72.90625 
L 38.28125 72.90625 
L 38.28125 8.296875 
L 54.390625 8.296875 
L 54.390625 0 
L 12.40625 0 
z
" id="DejaVuSans-49"/>
      </defs>
      <g transform="translate(0.34375 168.869945)scale(0.2 -0.2)">
       <use xlink:href="#DejaVuSans-48"/>
       <use x="63.623047" xlink:href="#DejaVuSans-46"/>
       <use x="95.410156" xlink:href="#DejaVuSans-49"/>
       <use x="159.033203" xlink:href="#DejaVuSans-48"/>
      </g>
     </g>
    </g>
    <g id="ytick_4">
     <g id="line2d_8">
      <g>
       <use style="stroke:#000000;stroke-width:1.6;" x="59.575" xlink:href="#m24ce2ad8bd" y="112.726429"/>
      </g>
     </g>
     <g id="text_9">
      <!-- 0.15 -->
      <g transform="translate(0.34375 120.324866)scale(0.2 -0.2)">
       <use xlink:href="#DejaVuSans-48"/>
       <use x="63.623047" xlink:href="#DejaVuSans-46"/>
       <use x="95.410156" xlink:href="#DejaVuSans-49"/>
       <use x="159.033203" xlink:href="#DejaVuSans-53"/>
      </g>
     </g>
    </g>
    <g id="ytick_5">
     <g id="line2d_9">
      <g>
       <use style="stroke:#000000;stroke-width:1.6;" x="59.575" xlink:href="#m24ce2ad8bd" y="64.181349"/>
      </g>
     </g>
     <g id="text_10">
      <!-- 0.20 -->
      <g transform="translate(0.34375 71.779787)scale(0.2 -0.2)">
       <use xlink:href="#DejaVuSans-48"/>
       <use x="63.623047" xlink:href="#DejaVuSans-46"/>
       <use x="95.410156" xlink:href="#DejaVuSans-50"/>
       <use x="159.033203" xlink:href="#DejaVuSans-48"/>
      </g>
     </g>
    </g>
    <g id="ytick_6">
     <g id="line2d_10">
      <g>
       <use style="stroke:#000000;stroke-width:1.6;" x="59.575" xlink:href="#m24ce2ad8bd" y="15.63627"/>
      </g>
     </g>
     <g id="text_11">
      <!-- 0.25 -->
      <g transform="translate(0.34375 23.234707)scale(0.2 -0.2)">
       <use xlink:href="#DejaVuSans-48"/>
       <use x="63.623047" xlink:href="#DejaVuSans-46"/>
       <use x="95.410156" xlink:href="#DejaVuSans-50"/>
       <use x="159.033203" xlink:href="#DejaVuSans-53"/>
      </g>
     </g>
    </g>
   </g>
   <g id="patch_83">
    <path d="M 59.575 258.361667 
L 59.575 3.5 
" style="fill:none;stroke:#000000;stroke-linecap:square;stroke-linejoin:miter;stroke-width:0.8;"/>
   </g>
   <g id="patch_84">
    <path d="M 59.575 258.361667 
L 314.436667 258.361667 
" style="fill:none;stroke:#000000;stroke-linecap:square;stroke-linejoin:miter;stroke-width:0.8;"/>
   </g>
  </g>
  <g id="axes_2">
   <g id="patch_85">
    <path d="M 425.796667 258.361667 
L 680.658333 258.361667 
L 680.658333 3.5 
L 425.796667 3.5 
z
" style="fill:#ffffff;"/>
   </g>
   <g id="PolyCollection_1">
    <defs>
     <path d="M 582.520317 -296.436112 
L 582.520317 -296.457971 
L 583.469606 -296.457764 
L 584.418896 -296.456916 
L 585.368186 -296.456012 
L 586.317475 -296.455767 
L 587.266765 -296.456814 
L 588.216054 -296.459561 
L 589.165344 -296.464195 
L 590.114634 -296.470838 
L 591.063923 -296.479778 
L 592.013213 -296.491639 
L 592.962503 -296.507317 
L 593.911792 -296.527659 
L 594.861082 -296.553046 
L 595.810372 -296.583225 
L 596.759661 -296.6176 
L 597.708951 -296.655977 
L 598.65824 -296.699376 
L 599.60753 -296.750501 
L 600.55682 -296.813584 
L 601.506109 -296.893663 
L 602.455399 -296.995558 
L 603.404689 -297.123014 
L 604.353978 -297.278526 
L 605.303268 -297.46408 
L 606.252558 -297.682489 
L 607.201847 -297.938385 
L 608.151137 -298.237962 
L 609.100426 -298.58732 
L 610.049716 -298.990396 
L 610.999006 -299.44787 
L 611.948295 -299.957757 
L 612.897585 -300.516967 
L 613.846875 -301.122074 
L 614.796164 -301.767792 
L 615.745454 -302.443411 
L 616.694744 -303.129571 
L 617.644033 -303.798539 
L 618.593323 -304.4194 
L 619.542613 -304.966215 
L 620.491902 -305.424731 
L 621.441192 -305.793799 
L 622.390481 -306.081016 
L 623.339771 -306.295591 
L 624.289061 -306.44252 
L 625.23835 -306.520489 
L 626.18764 -306.523436 
L 627.13693 -306.444298 
L 628.086219 -306.279433 
L 629.035509 -306.032439 
L 629.984799 -305.715948 
L 630.934088 -305.350024 
L 631.883378 -304.957174 
L 632.832667 -304.556114 
L 633.781957 -304.157629 
L 634.731247 -303.764618 
L 635.680536 -303.375706 
L 636.629826 -302.989765 
L 637.579116 -302.608849 
L 638.528405 -302.238742 
L 639.477695 -301.887756 
L 640.426985 -301.564668 
L 641.376274 -301.276344 
L 642.325564 -301.025512 
L 643.274854 -300.809514 
L 644.224143 -300.620936 
L 645.173433 -300.450185 
L 646.122722 -300.288959 
L 647.072012 -300.132915 
L 648.021302 -299.982344 
L 648.970591 -299.840836 
L 649.919881 -299.712908 
L 650.869171 -299.601818 
L 651.81846 -299.508433 
L 652.76775 -299.431387 
L 653.71704 -299.368216 
L 654.666329 -299.316805 
L 655.615619 -299.276436 
L 656.564908 -299.24796 
L 657.514198 -299.233079 
L 658.463488 -299.232944 
L 659.412777 -299.246416 
L 660.362067 -299.268457 
L 661.311357 -299.289358 
L 662.260646 -299.295588 
L 663.209936 -299.272431 
L 664.159226 -299.207583 
L 665.108515 -299.094158 
L 666.057805 -298.931895 
L 667.007094 -298.726459 
L 667.956384 -298.48778 
L 668.905674 -298.228408 
L 669.854963 -297.962209 
L 670.804253 -297.703007 
L 671.753543 -297.462852 
L 672.702832 -297.250211 
L 673.652122 -297.068929 
L 674.601412 -296.918608 
L 675.550701 -296.796191 
L 676.499991 -296.697875 
L 676.499991 -296.196208 
L 676.499991 -296.196208 
L 675.550701 -296.097892 
L 674.601412 -295.975475 
L 673.652122 -295.825154 
L 672.702832 -295.643873 
L 671.753543 -295.431231 
L 670.804253 -295.191076 
L 669.854963 -294.931875 
L 668.905674 -294.665675 
L 667.956384 -294.406303 
L 667.007094 -294.167624 
L 666.057805 -293.962188 
L 665.108515 -293.799925 
L 664.159226 -293.686501 
L 663.209936 -293.621652 
L 662.260646 -293.598495 
L 661.311357 -293.604725 
L 660.362067 -293.625627 
L 659.412777 -293.647667 
L 658.463488 -293.661139 
L 657.514198 -293.661004 
L 656.564908 -293.646124 
L 655.615619 -293.617648 
L 654.666329 -293.577278 
L 653.71704 -293.525868 
L 652.76775 -293.462696 
L 651.81846 -293.38565 
L 650.869171 -293.292265 
L 649.919881 -293.181175 
L 648.970591 -293.053247 
L 648.021302 -292.911739 
L 647.072012 -292.761168 
L 646.122722 -292.605124 
L 645.173433 -292.443899 
L 644.224143 -292.273148 
L 643.274854 -292.084569 
L 642.325564 -291.868572 
L 641.376274 -291.617739 
L 640.426985 -291.329415 
L 639.477695 -291.006327 
L 638.528405 -290.655341 
L 637.579116 -290.285234 
L 636.629826 -289.904318 
L 635.680536 -289.518377 
L 634.731247 -289.129466 
L 633.781957 -288.736455 
L 632.832667 -288.33797 
L 631.883378 -287.93691 
L 630.934088 -287.544059 
L 629.984799 -287.178135 
L 629.035509 -286.861644 
L 628.086219 -286.614651 
L 627.13693 -286.449785 
L 626.18764 -286.370647 
L 625.23835 -286.373594 
L 624.289061 -286.451563 
L 623.339771 -286.598493 
L 622.390481 -286.813068 
L 621.441192 -287.100284 
L 620.491902 -287.469352 
L 619.542613 -287.927868 
L 618.593323 -288.474683 
L 617.644033 -289.095544 
L 616.694744 -289.764513 
L 615.745454 -290.450673 
L 614.796164 -291.126291 
L 613.846875 -291.772009 
L 612.897585 -292.377116 
L 611.948295 -292.936327 
L 610.999006 -293.446213 
L 610.049716 -293.903687 
L 609.100426 -294.306763 
L 608.151137 -294.656122 
L 607.201847 -294.955698 
L 606.252558 -295.211594 
L 605.303268 -295.430003 
L 604.353978 -295.615558 
L 603.404689 -295.77107 
L 602.455399 -295.898526 
L 601.506109 -296.00042 
L 600.55682 -296.080499 
L 599.60753 -296.143583 
L 598.65824 -296.194707 
L 597.708951 -296.238107 
L 596.759661 -296.276483 
L 595.810372 -296.310859 
L 594.861082 -296.341037 
L 593.911792 -296.366425 
L 592.962503 -296.386766 
L 592.013213 -296.402444 
L 591.063923 -296.414305 
L 590.114634 -296.423246 
L 589.165344 -296.429888 
L 588.216054 -296.434522 
L 587.266765 -296.437269 
L 586.317475 -296.438316 
L 585.368186 -296.438071 
L 584.418896 -296.437167 
L 583.469606 -296.436319 
L 582.520317 -296.436112 
z
" id="m6dd706fc16" style="stroke:#424242;"/>
    </defs>
    <g clip-path="url(#p48806ca054)">
     <use style="fill:#7c78ab;stroke:#424242;" x="0" xlink:href="#m6dd706fc16" y="319.061667"/>
    </g>
   </g>
   <g id="PolyCollection_2">
    <defs>
     <path d="M 591.622605 -270.748338 
L 591.622605 -271.173412 
L 592.470901 -271.232861 
L 593.319198 -271.297576 
L 594.167494 -271.364138 
L 595.01579 -271.428449 
L 595.864087 -271.486534 
L 596.712383 -271.535574 
L 597.56068 -271.574923 
L 598.408976 -271.606831 
L 599.257272 -271.636643 
L 600.105569 -271.672401 
L 600.953865 -271.723911 
L 601.802162 -271.801523 
L 602.650458 -271.914873 
L 603.498755 -272.071815 
L 604.347051 -272.277587 
L 605.195347 -272.534188 
L 606.043644 -272.839878 
L 606.89194 -273.188898 
L 607.740237 -273.571664 
L 608.588533 -273.975779 
L 609.436829 -274.38803 
L 610.285126 -274.797135 
L 611.133422 -275.196575 
L 611.981719 -275.586641 
L 612.830015 -275.975034 
L 613.678311 -276.375766 
L 614.526608 -276.806645 
L 615.374904 -277.28585 
L 616.223201 -277.828195 
L 617.071497 -278.441568 
L 617.919793 -279.124007 
L 618.76809 -279.861898 
L 619.616386 -280.629746 
L 620.464683 -281.391829 
L 621.312979 -282.105764 
L 622.161276 -282.727664 
L 623.009572 -283.218168 
L 623.857868 -283.548306 
L 624.706165 -283.703958 
L 625.554461 -283.687732 
L 626.402758 -283.517579 
L 627.251054 -283.222298 
L 628.09935 -282.835064 
L 628.947647 -282.386805 
L 629.795943 -281.901297 
L 630.64424 -281.393247 
L 631.492536 -280.869496 
L 632.340832 -280.332405 
L 633.189129 -279.783812 
L 634.037425 -279.228055 
L 634.885722 -278.673136 
L 635.734018 -278.130034 
L 636.582314 -277.610817 
L 637.430611 -277.126409 
L 638.278907 -276.684656 
L 639.127204 -276.288993 
L 639.9755 -275.937807 
L 640.823796 -275.624634 
L 641.672093 -275.33935 
L 642.520389 -275.070419 
L 643.368686 -274.807794 
L 644.216982 -274.545624 
L 645.065279 -274.283706 
L 645.913575 -274.02702 
L 646.761871 -273.78343 
L 647.610168 -273.560467 
L 648.458464 -273.36251 
L 649.306761 -273.189442 
L 650.155057 -273.037196 
L 651.003353 -272.899716 
L 651.85165 -272.771338 
L 652.699946 -272.648536 
L 653.548243 -272.530361 
L 654.396539 -272.41761 
L 655.244835 -272.311308 
L 656.093132 -272.211356 
L 656.941428 -272.116022 
L 657.789725 -272.022503 
L 658.638021 -271.928244 
L 659.486317 -271.832343 
L 660.334614 -271.736381 
L 661.18291 -271.644261 
L 662.031207 -271.56111 
L 662.879503 -271.491664 
L 663.7278 -271.438741 
L 664.576096 -271.402367 
L 665.424392 -271.379816 
L 666.272689 -271.366518 
L 667.120985 -271.357443 
L 667.969282 -271.348454 
L 668.817578 -271.337133 
L 669.665874 -271.322862 
L 670.514171 -271.306215 
L 671.362467 -271.288039 
L 672.210764 -271.268662 
L 673.05906 -271.247609 
L 673.907356 -271.223886 
L 674.755653 -271.196634 
L 675.603949 -271.16577 
L 675.603949 -270.75598 
L 675.603949 -270.75598 
L 674.755653 -270.725116 
L 673.907356 -270.697864 
L 673.05906 -270.674141 
L 672.210764 -270.653088 
L 671.362467 -270.633711 
L 670.514171 -270.615535 
L 669.665874 -270.598888 
L 668.817578 -270.584617 
L 667.969282 -270.573296 
L 667.120985 -270.564307 
L 666.272689 -270.555232 
L 665.424392 -270.541934 
L 664.576096 -270.519383 
L 663.7278 -270.483009 
L 662.879503 -270.430086 
L 662.031207 -270.36064 
L 661.18291 -270.277489 
L 660.334614 -270.185369 
L 659.486317 -270.089407 
L 658.638021 -269.993506 
L 657.789725 -269.899247 
L 656.941428 -269.805728 
L 656.093132 -269.710394 
L 655.244835 -269.610442 
L 654.396539 -269.50414 
L 653.548243 -269.391389 
L 652.699946 -269.273214 
L 651.85165 -269.150412 
L 651.003353 -269.022034 
L 650.155057 -268.884554 
L 649.306761 -268.732308 
L 648.458464 -268.55924 
L 647.610168 -268.361283 
L 646.761871 -268.13832 
L 645.913575 -267.89473 
L 645.065279 -267.638044 
L 644.216982 -267.376126 
L 643.368686 -267.113956 
L 642.520389 -266.851331 
L 641.672093 -266.5824 
L 640.823796 -266.297116 
L 639.9755 -265.983943 
L 639.127204 -265.632757 
L 638.278907 -265.237094 
L 637.430611 -264.795341 
L 636.582314 -264.310933 
L 635.734018 -263.791716 
L 634.885722 -263.248614 
L 634.037425 -262.693695 
L 633.189129 -262.137938 
L 632.340832 -261.589345 
L 631.492536 -261.052254 
L 630.64424 -260.528503 
L 629.795943 -260.020453 
L 628.947647 -259.534945 
L 628.09935 -259.086686 
L 627.251054 -258.699452 
L 626.402758 -258.404171 
L 625.554461 -258.234018 
L 624.706165 -258.217792 
L 623.857868 -258.373444 
L 623.009572 -258.703582 
L 622.161276 -259.194086 
L 621.312979 -259.815986 
L 620.464683 -260.529921 
L 619.616386 -261.292004 
L 618.76809 -262.059852 
L 617.919793 -262.797743 
L 617.071497 -263.480182 
L 616.223201 -264.093555 
L 615.374904 -264.6359 
L 614.526608 -265.115105 
L 613.678311 -265.545984 
L 612.830015 -265.946716 
L 611.981719 -266.335109 
L 611.133422 -266.725175 
L 610.285126 -267.124615 
L 609.436829 -267.53372 
L 608.588533 -267.945971 
L 607.740237 -268.350086 
L 606.89194 -268.732852 
L 606.043644 -269.081872 
L 605.195347 -269.387562 
L 604.347051 -269.644163 
L 603.498755 -269.849935 
L 602.650458 -270.006877 
L 601.802162 -270.120227 
L 600.953865 -270.197839 
L 600.105569 -270.249349 
L 599.257272 -270.285107 
L 598.408976 -270.314919 
L 597.56068 -270.346827 
L 596.712383 -270.386176 
L 595.864087 -270.435216 
L 595.01579 -270.493301 
L 594.167494 -270.557612 
L 593.319198 -270.624174 
L 592.470901 -270.688889 
L 591.622605 -270.748338 
z
" id="m44e8d989ad" style="stroke:#424242;"/>
    </defs>
    <g clip-path="url(#p48806ca054)">
     <use style="fill:#be631d;stroke:#424242;" x="0" xlink:href="#m44e8d989ad" y="319.061667"/>
    </g>
   </g>
   <g id="patch_86">
    <path clip-path="url(#p48806ca054)" d="M 442.787444 35.357708 
L 442.787444 35.357708 
L 442.787444 35.357708 
L 442.787444 35.357708 
z
" style="fill:#7c78ab;stroke:#424242;stroke-linejoin:miter;stroke-width:0.5;"/>
   </g>
   <g id="patch_87">
    <path clip-path="url(#p48806ca054)" d="M 442.787444 35.357708 
L 442.787444 35.357708 
L 442.787444 35.357708 
L 442.787444 35.357708 
z
" style="fill:#be631d;stroke:#424242;stroke-linejoin:miter;stroke-width:0.5;"/>
   </g>
   <g id="matplotlib.axis_3">
    <g id="xtick_5">
     <g id="line2d_11">
      <g>
       <use style="stroke:#000000;stroke-width:1.6;" x="442.787444" xlink:href="#m0a64a2c94d" y="258.361667"/>
      </g>
     </g>
     <g id="text_12">
      <!-- 0.0 -->
      <g transform="translate(426.884319 288.258542)scale(0.2 -0.2)">
       <use xlink:href="#DejaVuSans-48"/>
       <use x="63.623047" xlink:href="#DejaVuSans-46"/>
       <use x="95.410156" xlink:href="#DejaVuSans-48"/>
      </g>
     </g>
    </g>
    <g id="xtick_6">
     <g id="line2d_12">
      <g>
       <use style="stroke:#000000;stroke-width:1.6;" x="510.750556" xlink:href="#m0a64a2c94d" y="258.361667"/>
      </g>
     </g>
     <g id="text_13">
      <!-- 0.2 -->
      <g transform="translate(494.847431 288.258542)scale(0.2 -0.2)">
       <use xlink:href="#DejaVuSans-48"/>
       <use x="63.623047" xlink:href="#DejaVuSans-46"/>
       <use x="95.410156" xlink:href="#DejaVuSans-50"/>
      </g>
     </g>
    </g>
    <g id="xtick_7">
     <g id="line2d_13">
      <g>
       <use style="stroke:#000000;stroke-width:1.6;" x="578.713667" xlink:href="#m0a64a2c94d" y="258.361667"/>
      </g>
     </g>
     <g id="text_14">
      <!-- 0.4 -->
      <g transform="translate(562.810542 288.258542)scale(0.2 -0.2)">
       <use xlink:href="#DejaVuSans-48"/>
       <use x="63.623047" xlink:href="#DejaVuSans-46"/>
       <use x="95.410156" xlink:href="#DejaVuSans-52"/>
      </g>
     </g>
    </g>
    <g id="xtick_8">
     <g id="line2d_14">
      <g>
       <use style="stroke:#000000;stroke-width:1.6;" x="646.676778" xlink:href="#m0a64a2c94d" y="258.361667"/>
      </g>
     </g>
     <g id="text_15">
      <!-- 0.6 -->
      <g transform="translate(630.773653 288.258542)scale(0.2 -0.2)">
       <use xlink:href="#DejaVuSans-48"/>
       <use x="63.623047" xlink:href="#DejaVuSans-46"/>
       <use x="95.410156" xlink:href="#DejaVuSans-54"/>
      </g>
     </g>
    </g>
    <g id="text_16">
     <!-- Max JS Divergence within $\epsilon$ -->
     <g transform="translate(417.6275 311.617917)scale(0.2 -0.2)">
      <use transform="translate(0 0.015625)" xlink:href="#DejaVuSans-77"/>
      <use transform="translate(86.279297 0.015625)" xlink:href="#DejaVuSans-97"/>
      <use transform="translate(147.558594 0.015625)" xlink:href="#DejaVuSans-120"/>
      <use transform="translate(206.738281 0.015625)" xlink:href="#DejaVuSans-32"/>
      <use transform="translate(238.525391 0.015625)" xlink:href="#DejaVuSans-74"/>
      <use transform="translate(268.017578 0.015625)" xlink:href="#DejaVuSans-83"/>
      <use transform="translate(331.494141 0.015625)" xlink:href="#DejaVuSans-32"/>
      <use transform="translate(363.28125 0.015625)" xlink:href="#DejaVuSans-68"/>
      <use transform="translate(440.283203 0.015625)" xlink:href="#DejaVuSans-105"/>
      <use transform="translate(468.066406 0.015625)" xlink:href="#DejaVuSans-118"/>
      <use transform="translate(527.246094 0.015625)" xlink:href="#DejaVuSans-101"/>
      <use transform="translate(588.769531 0.015625)" xlink:href="#DejaVuSans-114"/>
      <use transform="translate(629.882812 0.015625)" xlink:href="#DejaVuSans-103"/>
      <use transform="translate(693.359375 0.015625)" xlink:href="#DejaVuSans-101"/>
      <use transform="translate(754.882812 0.015625)" xlink:href="#DejaVuSans-110"/>
      <use transform="translate(818.261719 0.015625)" xlink:href="#DejaVuSans-99"/>
      <use transform="translate(873.242188 0.015625)" xlink:href="#DejaVuSans-101"/>
      <use transform="translate(934.765625 0.015625)" xlink:href="#DejaVuSans-32"/>
      <use transform="translate(966.552734 0.015625)" xlink:href="#DejaVuSans-119"/>
      <use transform="translate(1048.339844 0.015625)" xlink:href="#DejaVuSans-105"/>
      <use transform="translate(1076.123047 0.015625)" xlink:href="#DejaVuSans-116"/>
      <use transform="translate(1115.332031 0.015625)" xlink:href="#DejaVuSans-104"/>
      <use transform="translate(1178.710938 0.015625)" xlink:href="#DejaVuSans-105"/>
      <use transform="translate(1206.494141 0.015625)" xlink:href="#DejaVuSans-110"/>
      <use transform="translate(1269.873047 0.015625)" xlink:href="#DejaVuSans-32"/>
      <use transform="translate(1301.660156 0.015625)" xlink:href="#DejaVuSans-Oblique-949"/>
     </g>
    </g>
   </g>
   <g id="matplotlib.axis_4">
    <g id="ytick_7">
     <g id="line2d_15">
      <g>
       <use style="stroke:#000000;stroke-width:1.6;" x="425.796667" xlink:href="#m24ce2ad8bd" y="35.357708"/>
      </g>
     </g>
     <g id="text_17">
      <!-- [0.00, -->
      <defs>
       <path d="M 8.59375 75.984375 
L 29.296875 75.984375 
L 29.296875 69 
L 17.578125 69 
L 17.578125 -6.203125 
L 29.296875 -6.203125 
L 29.296875 -13.1875 
L 8.59375 -13.1875 
z
" id="DejaVuSans-91"/>
       <path d="M 11.71875 12.40625 
L 22.015625 12.40625 
L 22.015625 4 
L 14.015625 -11.625 
L 7.71875 -11.625 
L 11.71875 4 
z
" id="DejaVuSans-44"/>
      </defs>
      <g transform="translate(352.406042 31.758333)scale(0.2 -0.2)">
       <use xlink:href="#DejaVuSans-91"/>
       <use x="39.013672" xlink:href="#DejaVuSans-48"/>
       <use x="102.636719" xlink:href="#DejaVuSans-46"/>
       <use x="134.423828" xlink:href="#DejaVuSans-48"/>
       <use x="198.046875" xlink:href="#DejaVuSans-48"/>
       <use x="261.669922" xlink:href="#DejaVuSans-44"/>
      </g>
      <!-- 0.25) -->
      <defs>
       <path d="M 8.015625 75.875 
L 15.828125 75.875 
Q 23.140625 64.359375 26.78125 53.3125 
Q 30.421875 42.28125 30.421875 31.390625 
Q 30.421875 20.453125 26.78125 9.375 
Q 23.140625 -1.703125 15.828125 -13.1875 
L 8.015625 -13.1875 
Q 14.5 -2 17.703125 9.0625 
Q 20.90625 20.125 20.90625 31.390625 
Q 20.90625 42.671875 17.703125 53.65625 
Q 14.5 64.65625 8.015625 75.875 
z
" id="DejaVuSans-41"/>
      </defs>
      <g transform="translate(358.762292 54.153958)scale(0.2 -0.2)">
       <use xlink:href="#DejaVuSans-48"/>
       <use x="63.623047" xlink:href="#DejaVuSans-46"/>
       <use x="95.410156" xlink:href="#DejaVuSans-50"/>
       <use x="159.033203" xlink:href="#DejaVuSans-53"/>
       <use x="222.65625" xlink:href="#DejaVuSans-41"/>
      </g>
     </g>
    </g>
    <g id="ytick_8">
     <g id="line2d_16">
      <g>
       <use style="stroke:#000000;stroke-width:1.6;" x="425.796667" xlink:href="#m24ce2ad8bd" y="99.073125"/>
      </g>
     </g>
     <g id="text_18">
      <!-- [0.25, -->
      <g transform="translate(352.406042 95.47375)scale(0.2 -0.2)">
       <use xlink:href="#DejaVuSans-91"/>
       <use x="39.013672" xlink:href="#DejaVuSans-48"/>
       <use x="102.636719" xlink:href="#DejaVuSans-46"/>
       <use x="134.423828" xlink:href="#DejaVuSans-50"/>
       <use x="198.046875" xlink:href="#DejaVuSans-53"/>
       <use x="261.669922" xlink:href="#DejaVuSans-44"/>
      </g>
      <!-- 0.50) -->
      <g transform="translate(358.762292 117.869375)scale(0.2 -0.2)">
       <use xlink:href="#DejaVuSans-48"/>
       <use x="63.623047" xlink:href="#DejaVuSans-46"/>
       <use x="95.410156" xlink:href="#DejaVuSans-53"/>
       <use x="159.033203" xlink:href="#DejaVuSans-48"/>
       <use x="222.65625" xlink:href="#DejaVuSans-41"/>
      </g>
     </g>
    </g>
    <g id="ytick_9">
     <g id="line2d_17">
      <g>
       <use style="stroke:#000000;stroke-width:1.6;" x="425.796667" xlink:href="#m24ce2ad8bd" y="162.788542"/>
      </g>
     </g>
     <g id="text_19">
      <!-- [0.50, -->
      <g transform="translate(352.406042 159.189167)scale(0.2 -0.2)">
       <use xlink:href="#DejaVuSans-91"/>
       <use x="39.013672" xlink:href="#DejaVuSans-48"/>
       <use x="102.636719" xlink:href="#DejaVuSans-46"/>
       <use x="134.423828" xlink:href="#DejaVuSans-53"/>
       <use x="198.046875" xlink:href="#DejaVuSans-48"/>
       <use x="261.669922" xlink:href="#DejaVuSans-44"/>
      </g>
      <!-- 0.75) -->
      <defs>
       <path d="M 8.203125 72.90625 
L 55.078125 72.90625 
L 55.078125 68.703125 
L 28.609375 0 
L 18.3125 0 
L 43.21875 64.59375 
L 8.203125 64.59375 
z
" id="DejaVuSans-55"/>
      </defs>
      <g transform="translate(358.762292 181.584792)scale(0.2 -0.2)">
       <use xlink:href="#DejaVuSans-48"/>
       <use x="63.623047" xlink:href="#DejaVuSans-46"/>
       <use x="95.410156" xlink:href="#DejaVuSans-55"/>
       <use x="159.033203" xlink:href="#DejaVuSans-53"/>
       <use x="222.65625" xlink:href="#DejaVuSans-41"/>
      </g>
     </g>
    </g>
    <g id="ytick_10">
     <g id="line2d_18">
      <g>
       <use style="stroke:#000000;stroke-width:1.6;" x="425.796667" xlink:href="#m24ce2ad8bd" y="226.503958"/>
      </g>
     </g>
     <g id="text_20">
      <!-- [0.75, -->
      <g transform="translate(352.406042 222.904583)scale(0.2 -0.2)">
       <use xlink:href="#DejaVuSans-91"/>
       <use x="39.013672" xlink:href="#DejaVuSans-48"/>
       <use x="102.636719" xlink:href="#DejaVuSans-46"/>
       <use x="134.423828" xlink:href="#DejaVuSans-55"/>
       <use x="198.046875" xlink:href="#DejaVuSans-53"/>
       <use x="261.669922" xlink:href="#DejaVuSans-44"/>
      </g>
      <!-- 1.00) -->
      <g transform="translate(358.762292 245.300208)scale(0.2 -0.2)">
       <use xlink:href="#DejaVuSans-49"/>
       <use x="63.623047" xlink:href="#DejaVuSans-46"/>
       <use x="95.410156" xlink:href="#DejaVuSans-48"/>
       <use x="159.033203" xlink:href="#DejaVuSans-48"/>
       <use x="222.65625" xlink:href="#DejaVuSans-41"/>
      </g>
     </g>
    </g>
    <g id="text_21">
     <!-- Max Attention -->
     <defs>
      <path d="M 34.1875 63.1875 
L 20.796875 26.90625 
L 47.609375 26.90625 
z
M 28.609375 72.90625 
L 39.796875 72.90625 
L 67.578125 0 
L 57.328125 0 
L 50.6875 18.703125 
L 17.828125 18.703125 
L 11.1875 0 
L 0.78125 0 
z
" id="DejaVuSans-65"/>
      <path d="M 30.609375 48.390625 
Q 23.390625 48.390625 19.1875 42.75 
Q 14.984375 37.109375 14.984375 27.296875 
Q 14.984375 17.484375 19.15625 11.84375 
Q 23.34375 6.203125 30.609375 6.203125 
Q 37.796875 6.203125 41.984375 11.859375 
Q 46.1875 17.53125 46.1875 27.296875 
Q 46.1875 37.015625 41.984375 42.703125 
Q 37.796875 48.390625 30.609375 48.390625 
z
M 30.609375 56 
Q 42.328125 56 49.015625 48.375 
Q 55.71875 40.765625 55.71875 27.296875 
Q 55.71875 13.875 49.015625 6.21875 
Q 42.328125 -1.421875 30.609375 -1.421875 
Q 18.84375 -1.421875 12.171875 6.21875 
Q 5.515625 13.875 5.515625 27.296875 
Q 5.515625 40.765625 12.171875 48.375 
Q 18.84375 56 30.609375 56 
z
" id="DejaVuSans-111"/>
     </defs>
     <g transform="translate(344.246667 201.108958)rotate(-90)scale(0.2 -0.2)">
      <use xlink:href="#DejaVuSans-77"/>
      <use x="86.279297" xlink:href="#DejaVuSans-97"/>
      <use x="147.558594" xlink:href="#DejaVuSans-120"/>
      <use x="206.738281" xlink:href="#DejaVuSans-32"/>
      <use x="238.525391" xlink:href="#DejaVuSans-65"/>
      <use x="306.917969" xlink:href="#DejaVuSans-116"/>
      <use x="346.126953" xlink:href="#DejaVuSans-116"/>
      <use x="385.335938" xlink:href="#DejaVuSans-101"/>
      <use x="446.859375" xlink:href="#DejaVuSans-110"/>
      <use x="510.238281" xlink:href="#DejaVuSans-116"/>
      <use x="549.447266" xlink:href="#DejaVuSans-105"/>
      <use x="577.230469" xlink:href="#DejaVuSans-111"/>
      <use x="638.412109" xlink:href="#DejaVuSans-110"/>
     </g>
    </g>
   </g>
   <g id="line2d_19">
    <path clip-path="url(#p48806ca054)" style="fill:none;stroke:#424242;stroke-dasharray:1.5,1.5;stroke-dashoffset:0;"/>
   </g>
   <g id="line2d_20">
    <path clip-path="url(#p48806ca054)" style="fill:none;stroke:#424242;stroke-dasharray:3,3;stroke-dashoffset:0;"/>
   </g>
   <g id="line2d_21">
    <path clip-path="url(#p48806ca054)" style="fill:none;stroke:#424242;stroke-dasharray:1.5,1.5;stroke-dashoffset:0;"/>
   </g>
   <g id="line2d_22">
    <path clip-path="url(#p48806ca054)" style="fill:none;stroke:#424242;stroke-dasharray:1.5,1.5;stroke-dashoffset:0;"/>
   </g>
   <g id="line2d_23">
    <path clip-path="url(#p48806ca054)" style="fill:none;stroke:#424242;stroke-dasharray:3,3;stroke-dashoffset:0;"/>
   </g>
   <g id="line2d_24">
    <path clip-path="url(#p48806ca054)" style="fill:none;stroke:#424242;stroke-dasharray:1.5,1.5;stroke-dashoffset:0;"/>
   </g>
   <g id="patch_88">
    <path style="fill:none;stroke:#000000;stroke-linecap:square;stroke-linejoin:miter;stroke-width:0.8;"/>
   </g>
   <g id="patch_89">
    <path style="fill:none;stroke:#000000;stroke-linecap:square;stroke-linejoin:miter;stroke-width:0.8;"/>
   </g>
  </g>
 </g>
 <defs>
  <clipPath id="p641b0ce1f3">
   <rect height="254.861667" width="254.861667" x="59.575" y="3.5"/>
  </clipPath>
  <clipPath id="p48806ca054">
   <rect height="254.861667" width="254.861667" x="425.796667" y="3.5"/>
  </clipPath>
 </defs>
</svg>
