<?xml version="1.0" encoding="utf-8" standalone="no"?>
<!DOCTYPE svg PUBLIC "-//W3C//DTD SVG 1.1//EN"
  "http://www.w3.org/Graphics/SVG/1.1/DTD/svg11.dtd">
<!-- Created with matplotlib (https://matplotlib.org/) -->
<svg height="319.061667pt" version="1.1" viewBox="0 0 323.226536 319.061667" width="323.226536pt" xmlns="http://www.w3.org/2000/svg" xmlns:xlink="http://www.w3.org/1999/xlink">
 <defs>
  <style type="text/css">
*{stroke-linecap:butt;stroke-linejoin:round;}
  </style>
 </defs>
 <g id="figure_1">
  <g id="patch_1">
   <path d="M 0 319.061667 
L 323.226536 319.061667 
L 323.226536 0 
L 0 0 
z
" style="fill:#ffffff;"/>
  </g>
  <g id="axes_1">
   <g id="patch_2">
    <path d="M 59.575 258.361667 
L 314.436667 258.361667 
L 314.436667 3.5 
L 59.575 3.5 
z
" style="fill:#ffffff;"/>
   </g>
   <g id="patch_3">
    <path clip-path="url(#p898a0018e0)" d="M 71.159621 258.361667 
L 76.951932 258.361667 
L 76.951932 258.361667 
L 71.159621 258.361667 
z
" style="fill:#7570b3;opacity:0.6;stroke:#000000;stroke-linejoin:miter;stroke-width:0.5;"/>
   </g>
   <g id="patch_4">
    <path clip-path="url(#p898a0018e0)" d="M 76.951932 258.361667 
L 82.744242 258.361667 
L 82.744242 258.361667 
L 76.951932 258.361667 
z
" style="fill:#7570b3;opacity:0.6;stroke:#000000;stroke-linejoin:miter;stroke-width:0.5;"/>
   </g>
   <g id="patch_5">
    <path clip-path="url(#p898a0018e0)" d="M 82.744242 258.361667 
L 88.536553 258.361667 
L 88.536553 258.361667 
L 82.744242 258.361667 
z
" style="fill:#7570b3;opacity:0.6;stroke:#000000;stroke-linejoin:miter;stroke-width:0.5;"/>
   </g>
   <g id="patch_6">
    <path clip-path="url(#p898a0018e0)" d="M 88.536553 258.361667 
L 94.328864 258.361667 
L 94.328864 258.361667 
L 88.536553 258.361667 
z
" style="fill:#7570b3;opacity:0.6;stroke:#000000;stroke-linejoin:miter;stroke-width:0.5;"/>
   </g>
   <g id="patch_7">
    <path clip-path="url(#p898a0018e0)" d="M 94.328864 258.361667 
L 100.121174 258.361667 
L 100.121174 258.361667 
L 94.328864 258.361667 
z
" style="fill:#7570b3;opacity:0.6;stroke:#000000;stroke-linejoin:miter;stroke-width:0.5;"/>
   </g>
   <g id="patch_8">
    <path clip-path="url(#p898a0018e0)" d="M 100.121174 258.361667 
L 105.913485 258.361667 
L 105.913485 258.361667 
L 100.121174 258.361667 
z
" style="fill:#7570b3;opacity:0.6;stroke:#000000;stroke-linejoin:miter;stroke-width:0.5;"/>
   </g>
   <g id="patch_9">
    <path clip-path="url(#p898a0018e0)" d="M 105.913485 258.361667 
L 111.705795 258.361667 
L 111.705795 258.361667 
L 105.913485 258.361667 
z
" style="fill:#7570b3;opacity:0.6;stroke:#000000;stroke-linejoin:miter;stroke-width:0.5;"/>
   </g>
   <g id="patch_10">
    <path clip-path="url(#p898a0018e0)" d="M 111.705795 258.361667 
L 117.498106 258.361667 
L 117.498106 258.361667 
L 111.705795 258.361667 
z
" style="fill:#7570b3;opacity:0.6;stroke:#000000;stroke-linejoin:miter;stroke-width:0.5;"/>
   </g>
   <g id="patch_11">
    <path clip-path="url(#p898a0018e0)" d="M 117.498106 258.361667 
L 123.290417 258.361667 
L 123.290417 258.361667 
L 117.498106 258.361667 
z
" style="fill:#7570b3;opacity:0.6;stroke:#000000;stroke-linejoin:miter;stroke-width:0.5;"/>
   </g>
   <g id="patch_12">
    <path clip-path="url(#p898a0018e0)" d="M 123.290417 258.361667 
L 129.082727 258.361667 
L 129.082727 258.361667 
L 123.290417 258.361667 
z
" style="fill:#7570b3;opacity:0.6;stroke:#000000;stroke-linejoin:miter;stroke-width:0.5;"/>
   </g>
   <g id="patch_13">
    <path clip-path="url(#p898a0018e0)" d="M 129.082727 258.361667 
L 134.875038 258.361667 
L 134.875038 258.361667 
L 129.082727 258.361667 
z
" style="fill:#7570b3;opacity:0.6;stroke:#000000;stroke-linejoin:miter;stroke-width:0.5;"/>
   </g>
   <g id="patch_14">
    <path clip-path="url(#p898a0018e0)" d="M 134.875038 258.361667 
L 140.667348 258.361667 
L 140.667348 258.361667 
L 134.875038 258.361667 
z
" style="fill:#7570b3;opacity:0.6;stroke:#000000;stroke-linejoin:miter;stroke-width:0.5;"/>
   </g>
   <g id="patch_15">
    <path clip-path="url(#p898a0018e0)" d="M 140.667348 258.361667 
L 146.459659 258.361667 
L 146.459659 258.361667 
L 140.667348 258.361667 
z
" style="fill:#7570b3;opacity:0.6;stroke:#000000;stroke-linejoin:miter;stroke-width:0.5;"/>
   </g>
   <g id="patch_16">
    <path clip-path="url(#p898a0018e0)" d="M 146.459659 258.361667 
L 152.25197 258.361667 
L 152.25197 258.361667 
L 146.459659 258.361667 
z
" style="fill:#7570b3;opacity:0.6;stroke:#000000;stroke-linejoin:miter;stroke-width:0.5;"/>
   </g>
   <g id="patch_17">
    <path clip-path="url(#p898a0018e0)" d="M 152.25197 258.361667 
L 158.04428 258.361667 
L 158.04428 258.361667 
L 152.25197 258.361667 
z
" style="fill:#7570b3;opacity:0.6;stroke:#000000;stroke-linejoin:miter;stroke-width:0.5;"/>
   </g>
   <g id="patch_18">
    <path clip-path="url(#p898a0018e0)" d="M 158.04428 258.361667 
L 163.836591 258.361667 
L 163.836591 258.361667 
L 158.04428 258.361667 
z
" style="fill:#7570b3;opacity:0.6;stroke:#000000;stroke-linejoin:miter;stroke-width:0.5;"/>
   </g>
   <g id="patch_19">
    <path clip-path="url(#p898a0018e0)" d="M 163.836591 258.361667 
L 169.628902 258.361667 
L 169.628902 258.361667 
L 163.836591 258.361667 
z
" style="fill:#7570b3;opacity:0.6;stroke:#000000;stroke-linejoin:miter;stroke-width:0.5;"/>
   </g>
   <g id="patch_20">
    <path clip-path="url(#p898a0018e0)" d="M 169.628902 258.361667 
L 175.421212 258.361667 
L 175.421212 258.361667 
L 169.628902 258.361667 
z
" style="fill:#7570b3;opacity:0.6;stroke:#000000;stroke-linejoin:miter;stroke-width:0.5;"/>
   </g>
   <g id="patch_21">
    <path clip-path="url(#p898a0018e0)" d="M 175.421212 258.361667 
L 181.213523 258.361667 
L 181.213523 258.361667 
L 175.421212 258.361667 
z
" style="fill:#7570b3;opacity:0.6;stroke:#000000;stroke-linejoin:miter;stroke-width:0.5;"/>
   </g>
   <g id="patch_22">
    <path clip-path="url(#p898a0018e0)" d="M 181.213523 258.361667 
L 187.005833 258.361667 
L 187.005833 258.361667 
L 181.213523 258.361667 
z
" style="fill:#7570b3;opacity:0.6;stroke:#000000;stroke-linejoin:miter;stroke-width:0.5;"/>
   </g>
   <g id="patch_23">
    <path clip-path="url(#p898a0018e0)" d="M 187.005833 258.361667 
L 192.798144 258.361667 
L 192.798144 258.361667 
L 187.005833 258.361667 
z
" style="fill:#7570b3;opacity:0.6;stroke:#000000;stroke-linejoin:miter;stroke-width:0.5;"/>
   </g>
   <g id="patch_24">
    <path clip-path="url(#p898a0018e0)" d="M 192.798144 258.361667 
L 198.590455 258.361667 
L 198.590455 258.361667 
L 192.798144 258.361667 
z
" style="fill:#7570b3;opacity:0.6;stroke:#000000;stroke-linejoin:miter;stroke-width:0.5;"/>
   </g>
   <g id="patch_25">
    <path clip-path="url(#p898a0018e0)" d="M 198.590455 258.361667 
L 204.382765 258.361667 
L 204.382765 258.361667 
L 198.590455 258.361667 
z
" style="fill:#7570b3;opacity:0.6;stroke:#000000;stroke-linejoin:miter;stroke-width:0.5;"/>
   </g>
   <g id="patch_26">
    <path clip-path="url(#p898a0018e0)" d="M 204.382765 258.361667 
L 210.175076 258.361667 
L 210.175076 258.361667 
L 204.382765 258.361667 
z
" style="fill:#7570b3;opacity:0.6;stroke:#000000;stroke-linejoin:miter;stroke-width:0.5;"/>
   </g>
   <g id="patch_27">
    <path clip-path="url(#p898a0018e0)" d="M 210.175076 258.361667 
L 215.967386 258.361667 
L 215.967386 258.361667 
L 210.175076 258.361667 
z
" style="fill:#7570b3;opacity:0.6;stroke:#000000;stroke-linejoin:miter;stroke-width:0.5;"/>
   </g>
   <g id="patch_28">
    <path clip-path="url(#p898a0018e0)" d="M 215.967386 258.361667 
L 221.759697 258.361667 
L 221.759697 255.706769 
L 215.967386 255.706769 
z
" style="fill:#7570b3;opacity:0.6;stroke:#000000;stroke-linejoin:miter;stroke-width:0.5;"/>
   </g>
   <g id="patch_29">
    <path clip-path="url(#p898a0018e0)" d="M 221.759697 258.361667 
L 227.552008 258.361667 
L 227.552008 248.405799 
L 221.759697 248.405799 
z
" style="fill:#7570b3;opacity:0.6;stroke:#000000;stroke-linejoin:miter;stroke-width:0.5;"/>
   </g>
   <g id="patch_30">
    <path clip-path="url(#p898a0018e0)" d="M 227.552008 258.361667 
L 233.344318 258.361667 
L 233.344318 234.135722 
L 227.552008 234.135722 
z
" style="fill:#7570b3;opacity:0.6;stroke:#000000;stroke-linejoin:miter;stroke-width:0.5;"/>
   </g>
   <g id="patch_31">
    <path clip-path="url(#p898a0018e0)" d="M 233.344318 258.361667 
L 239.136629 258.361667 
L 239.136629 180.705898 
L 233.344318 180.705898 
z
" style="fill:#7570b3;opacity:0.6;stroke:#000000;stroke-linejoin:miter;stroke-width:0.5;"/>
   </g>
   <g id="patch_32">
    <path clip-path="url(#p898a0018e0)" d="M 239.136629 258.361667 
L 244.928939 258.361667 
L 244.928939 81.810945 
L 239.136629 81.810945 
z
" style="fill:#7570b3;opacity:0.6;stroke:#000000;stroke-linejoin:miter;stroke-width:0.5;"/>
   </g>
   <g id="patch_33">
    <path clip-path="url(#p898a0018e0)" d="M 244.928939 258.361667 
L 250.72125 258.361667 
L 250.72125 26.389948 
L 244.928939 26.389948 
z
" style="fill:#7570b3;opacity:0.6;stroke:#000000;stroke-linejoin:miter;stroke-width:0.5;"/>
   </g>
   <g id="patch_34">
    <path clip-path="url(#p898a0018e0)" d="M 250.72125 258.361667 
L 256.513561 258.361667 
L 256.513561 43.314923 
L 250.72125 43.314923 
z
" style="fill:#7570b3;opacity:0.6;stroke:#000000;stroke-linejoin:miter;stroke-width:0.5;"/>
   </g>
   <g id="patch_35">
    <path clip-path="url(#p898a0018e0)" d="M 256.513561 258.361667 
L 262.305871 258.361667 
L 262.305871 98.072196 
L 256.513561 98.072196 
z
" style="fill:#7570b3;opacity:0.6;stroke:#000000;stroke-linejoin:miter;stroke-width:0.5;"/>
   </g>
   <g id="patch_36">
    <path clip-path="url(#p898a0018e0)" d="M 262.305871 258.361667 
L 268.098182 258.361667 
L 268.098182 152.497606 
L 262.305871 152.497606 
z
" style="fill:#7570b3;opacity:0.6;stroke:#000000;stroke-linejoin:miter;stroke-width:0.5;"/>
   </g>
   <g id="patch_37">
    <path clip-path="url(#p898a0018e0)" d="M 268.098182 258.361667 
L 273.890492 258.361667 
L 273.890492 202.276945 
L 268.098182 202.276945 
z
" style="fill:#7570b3;opacity:0.6;stroke:#000000;stroke-linejoin:miter;stroke-width:0.5;"/>
   </g>
   <g id="patch_38">
    <path clip-path="url(#p898a0018e0)" d="M 273.890492 258.361667 
L 279.682803 258.361667 
L 279.682803 212.896537 
L 273.890492 212.896537 
z
" style="fill:#7570b3;opacity:0.6;stroke:#000000;stroke-linejoin:miter;stroke-width:0.5;"/>
   </g>
   <g id="patch_39">
    <path clip-path="url(#p898a0018e0)" d="M 279.682803 258.361667 
L 285.475114 258.361667 
L 285.475114 229.157788 
L 279.682803 229.157788 
z
" style="fill:#7570b3;opacity:0.6;stroke:#000000;stroke-linejoin:miter;stroke-width:0.5;"/>
   </g>
   <g id="patch_40">
    <path clip-path="url(#p898a0018e0)" d="M 285.475114 258.361667 
L 291.267424 258.361667 
L 291.267424 234.135722 
L 285.475114 234.135722 
z
" style="fill:#7570b3;opacity:0.6;stroke:#000000;stroke-linejoin:miter;stroke-width:0.5;"/>
   </g>
   <g id="patch_41">
    <path clip-path="url(#p898a0018e0)" d="M 291.267424 258.361667 
L 297.059735 258.361667 
L 297.059735 252.056284 
L 291.267424 252.056284 
z
" style="fill:#7570b3;opacity:0.6;stroke:#000000;stroke-linejoin:miter;stroke-width:0.5;"/>
   </g>
   <g id="patch_42">
    <path clip-path="url(#p898a0018e0)" d="M 297.059735 258.361667 
L 302.852045 258.361667 
L 302.852045 257.36608 
L 297.059735 257.36608 
z
" style="fill:#7570b3;opacity:0.6;stroke:#000000;stroke-linejoin:miter;stroke-width:0.5;"/>
   </g>
   <g id="patch_43">
    <path clip-path="url(#p898a0018e0)" d="M 71.159621 258.361667 
L 76.951932 258.361667 
L 76.951932 258.361667 
L 71.159621 258.361667 
z
" style="fill:#d95f02;opacity:0.6;stroke:#000000;stroke-linejoin:miter;stroke-width:0.5;"/>
   </g>
   <g id="patch_44">
    <path clip-path="url(#p898a0018e0)" d="M 76.951932 258.361667 
L 82.744242 258.361667 
L 82.744242 258.361667 
L 76.951932 258.361667 
z
" style="fill:#d95f02;opacity:0.6;stroke:#000000;stroke-linejoin:miter;stroke-width:0.5;"/>
   </g>
   <g id="patch_45">
    <path clip-path="url(#p898a0018e0)" d="M 82.744242 258.361667 
L 88.536553 258.361667 
L 88.536553 258.361667 
L 82.744242 258.361667 
z
" style="fill:#d95f02;opacity:0.6;stroke:#000000;stroke-linejoin:miter;stroke-width:0.5;"/>
   </g>
   <g id="patch_46">
    <path clip-path="url(#p898a0018e0)" d="M 88.536553 258.361667 
L 94.328864 258.361667 
L 94.328864 258.361667 
L 88.536553 258.361667 
z
" style="fill:#d95f02;opacity:0.6;stroke:#000000;stroke-linejoin:miter;stroke-width:0.5;"/>
   </g>
   <g id="patch_47">
    <path clip-path="url(#p898a0018e0)" d="M 94.328864 258.361667 
L 100.121174 258.361667 
L 100.121174 258.361667 
L 94.328864 258.361667 
z
" style="fill:#d95f02;opacity:0.6;stroke:#000000;stroke-linejoin:miter;stroke-width:0.5;"/>
   </g>
   <g id="patch_48">
    <path clip-path="url(#p898a0018e0)" d="M 100.121174 258.361667 
L 105.913485 258.361667 
L 105.913485 258.361667 
L 100.121174 258.361667 
z
" style="fill:#d95f02;opacity:0.6;stroke:#000000;stroke-linejoin:miter;stroke-width:0.5;"/>
   </g>
   <g id="patch_49">
    <path clip-path="url(#p898a0018e0)" d="M 105.913485 258.361667 
L 111.705795 258.361667 
L 111.705795 258.361667 
L 105.913485 258.361667 
z
" style="fill:#d95f02;opacity:0.6;stroke:#000000;stroke-linejoin:miter;stroke-width:0.5;"/>
   </g>
   <g id="patch_50">
    <path clip-path="url(#p898a0018e0)" d="M 111.705795 258.361667 
L 117.498106 258.361667 
L 117.498106 258.361667 
L 111.705795 258.361667 
z
" style="fill:#d95f02;opacity:0.6;stroke:#000000;stroke-linejoin:miter;stroke-width:0.5;"/>
   </g>
   <g id="patch_51">
    <path clip-path="url(#p898a0018e0)" d="M 117.498106 258.361667 
L 123.290417 258.361667 
L 123.290417 258.361667 
L 117.498106 258.361667 
z
" style="fill:#d95f02;opacity:0.6;stroke:#000000;stroke-linejoin:miter;stroke-width:0.5;"/>
   </g>
   <g id="patch_52">
    <path clip-path="url(#p898a0018e0)" d="M 123.290417 258.361667 
L 129.082727 258.361667 
L 129.082727 258.361667 
L 123.290417 258.361667 
z
" style="fill:#d95f02;opacity:0.6;stroke:#000000;stroke-linejoin:miter;stroke-width:0.5;"/>
   </g>
   <g id="patch_53">
    <path clip-path="url(#p898a0018e0)" d="M 129.082727 258.361667 
L 134.875038 258.361667 
L 134.875038 258.361667 
L 129.082727 258.361667 
z
" style="fill:#d95f02;opacity:0.6;stroke:#000000;stroke-linejoin:miter;stroke-width:0.5;"/>
   </g>
   <g id="patch_54">
    <path clip-path="url(#p898a0018e0)" d="M 134.875038 258.361667 
L 140.667348 258.361667 
L 140.667348 258.361667 
L 134.875038 258.361667 
z
" style="fill:#d95f02;opacity:0.6;stroke:#000000;stroke-linejoin:miter;stroke-width:0.5;"/>
   </g>
   <g id="patch_55">
    <path clip-path="url(#p898a0018e0)" d="M 140.667348 258.361667 
L 146.459659 258.361667 
L 146.459659 258.361667 
L 140.667348 258.361667 
z
" style="fill:#d95f02;opacity:0.6;stroke:#000000;stroke-linejoin:miter;stroke-width:0.5;"/>
   </g>
   <g id="patch_56">
    <path clip-path="url(#p898a0018e0)" d="M 146.459659 258.361667 
L 152.25197 258.361667 
L 152.25197 258.361667 
L 146.459659 258.361667 
z
" style="fill:#d95f02;opacity:0.6;stroke:#000000;stroke-linejoin:miter;stroke-width:0.5;"/>
   </g>
   <g id="patch_57">
    <path clip-path="url(#p898a0018e0)" d="M 152.25197 258.361667 
L 158.04428 258.361667 
L 158.04428 258.361667 
L 152.25197 258.361667 
z
" style="fill:#d95f02;opacity:0.6;stroke:#000000;stroke-linejoin:miter;stroke-width:0.5;"/>
   </g>
   <g id="patch_58">
    <path clip-path="url(#p898a0018e0)" d="M 158.04428 258.361667 
L 163.836591 258.361667 
L 163.836591 258.361667 
L 158.04428 258.361667 
z
" style="fill:#d95f02;opacity:0.6;stroke:#000000;stroke-linejoin:miter;stroke-width:0.5;"/>
   </g>
   <g id="patch_59">
    <path clip-path="url(#p898a0018e0)" d="M 163.836591 258.361667 
L 169.628902 258.361667 
L 169.628902 258.361667 
L 163.836591 258.361667 
z
" style="fill:#d95f02;opacity:0.6;stroke:#000000;stroke-linejoin:miter;stroke-width:0.5;"/>
   </g>
   <g id="patch_60">
    <path clip-path="url(#p898a0018e0)" d="M 169.628902 258.361667 
L 175.421212 258.361667 
L 175.421212 258.361667 
L 169.628902 258.361667 
z
" style="fill:#d95f02;opacity:0.6;stroke:#000000;stroke-linejoin:miter;stroke-width:0.5;"/>
   </g>
   <g id="patch_61">
    <path clip-path="url(#p898a0018e0)" d="M 175.421212 258.361667 
L 181.213523 258.361667 
L 181.213523 258.361667 
L 175.421212 258.361667 
z
" style="fill:#d95f02;opacity:0.6;stroke:#000000;stroke-linejoin:miter;stroke-width:0.5;"/>
   </g>
   <g id="patch_62">
    <path clip-path="url(#p898a0018e0)" d="M 181.213523 258.361667 
L 187.005833 258.361667 
L 187.005833 258.361667 
L 181.213523 258.361667 
z
" style="fill:#d95f02;opacity:0.6;stroke:#000000;stroke-linejoin:miter;stroke-width:0.5;"/>
   </g>
   <g id="patch_63">
    <path clip-path="url(#p898a0018e0)" d="M 187.005833 258.361667 
L 192.798144 258.361667 
L 192.798144 258.361667 
L 187.005833 258.361667 
z
" style="fill:#d95f02;opacity:0.6;stroke:#000000;stroke-linejoin:miter;stroke-width:0.5;"/>
   </g>
   <g id="patch_64">
    <path clip-path="url(#p898a0018e0)" d="M 192.798144 258.361667 
L 198.590455 258.361667 
L 198.590455 258.361667 
L 192.798144 258.361667 
z
" style="fill:#d95f02;opacity:0.6;stroke:#000000;stroke-linejoin:miter;stroke-width:0.5;"/>
   </g>
   <g id="patch_65">
    <path clip-path="url(#p898a0018e0)" d="M 198.590455 258.361667 
L 204.382765 258.361667 
L 204.382765 258.361667 
L 198.590455 258.361667 
z
" style="fill:#d95f02;opacity:0.6;stroke:#000000;stroke-linejoin:miter;stroke-width:0.5;"/>
   </g>
   <g id="patch_66">
    <path clip-path="url(#p898a0018e0)" d="M 204.382765 258.361667 
L 210.175076 258.361667 
L 210.175076 258.361667 
L 204.382765 258.361667 
z
" style="fill:#d95f02;opacity:0.6;stroke:#000000;stroke-linejoin:miter;stroke-width:0.5;"/>
   </g>
   <g id="patch_67">
    <path clip-path="url(#p898a0018e0)" d="M 210.175076 258.361667 
L 215.967386 258.361667 
L 215.967386 257.576148 
L 210.175076 257.576148 
z
" style="fill:#d95f02;opacity:0.6;stroke:#000000;stroke-linejoin:miter;stroke-width:0.5;"/>
   </g>
   <g id="patch_68">
    <path clip-path="url(#p898a0018e0)" d="M 215.967386 258.361667 
L 221.759697 258.361667 
L 221.759697 257.576148 
L 215.967386 257.576148 
z
" style="fill:#d95f02;opacity:0.6;stroke:#000000;stroke-linejoin:miter;stroke-width:0.5;"/>
   </g>
   <g id="patch_69">
    <path clip-path="url(#p898a0018e0)" d="M 221.759697 258.361667 
L 227.552008 258.361667 
L 227.552008 248.935438 
L 221.759697 248.935438 
z
" style="fill:#d95f02;opacity:0.6;stroke:#000000;stroke-linejoin:miter;stroke-width:0.5;"/>
   </g>
   <g id="patch_70">
    <path clip-path="url(#p898a0018e0)" d="M 227.552008 258.361667 
L 233.344318 258.361667 
L 233.344318 227.726422 
L 227.552008 227.726422 
z
" style="fill:#d95f02;opacity:0.6;stroke:#000000;stroke-linejoin:miter;stroke-width:0.5;"/>
   </g>
   <g id="patch_71">
    <path clip-path="url(#p898a0018e0)" d="M 233.344318 258.361667 
L 239.136629 258.361667 
L 239.136629 181.380796 
L 233.344318 181.380796 
z
" style="fill:#d95f02;opacity:0.6;stroke:#000000;stroke-linejoin:miter;stroke-width:0.5;"/>
   </g>
   <g id="patch_72">
    <path clip-path="url(#p898a0018e0)" d="M 239.136629 258.361667 
L 244.928939 258.361667 
L 244.928939 100.472331 
L 239.136629 100.472331 
z
" style="fill:#d95f02;opacity:0.6;stroke:#000000;stroke-linejoin:miter;stroke-width:0.5;"/>
   </g>
   <g id="patch_73">
    <path clip-path="url(#p898a0018e0)" d="M 244.928939 258.361667 
L 250.72125 258.361667 
L 250.72125 15.63627 
L 244.928939 15.63627 
z
" style="fill:#d95f02;opacity:0.6;stroke:#000000;stroke-linejoin:miter;stroke-width:0.5;"/>
   </g>
   <g id="patch_74">
    <path clip-path="url(#p898a0018e0)" d="M 250.72125 258.361667 
L 256.513561 258.361667 
L 256.513561 25.848018 
L 250.72125 25.848018 
z
" style="fill:#d95f02;opacity:0.6;stroke:#000000;stroke-linejoin:miter;stroke-width:0.5;"/>
   </g>
   <g id="patch_75">
    <path clip-path="url(#p898a0018e0)" d="M 256.513561 258.361667 
L 262.305871 258.361667 
L 262.305871 88.689545 
L 256.513561 88.689545 
z
" style="fill:#d95f02;opacity:0.6;stroke:#000000;stroke-linejoin:miter;stroke-width:0.5;"/>
   </g>
   <g id="patch_76">
    <path clip-path="url(#p898a0018e0)" d="M 262.305871 258.361667 
L 268.098182 258.361667 
L 268.098182 153.102109 
L 262.305871 153.102109 
z
" style="fill:#d95f02;opacity:0.6;stroke:#000000;stroke-linejoin:miter;stroke-width:0.5;"/>
   </g>
   <g id="patch_77">
    <path clip-path="url(#p898a0018e0)" d="M 268.098182 258.361667 
L 273.890492 258.361667 
L 273.890492 197.091178 
L 268.098182 197.091178 
z
" style="fill:#d95f02;opacity:0.6;stroke:#000000;stroke-linejoin:miter;stroke-width:0.5;"/>
   </g>
   <g id="patch_78">
    <path clip-path="url(#p898a0018e0)" d="M 273.890492 258.361667 
L 279.682803 258.361667 
L 279.682803 218.300193 
L 273.890492 218.300193 
z
" style="fill:#d95f02;opacity:0.6;stroke:#000000;stroke-linejoin:miter;stroke-width:0.5;"/>
   </g>
   <g id="patch_79">
    <path clip-path="url(#p898a0018e0)" d="M 279.682803 258.361667 
L 285.475114 258.361667 
L 285.475114 245.007842 
L 279.682803 245.007842 
z
" style="fill:#d95f02;opacity:0.6;stroke:#000000;stroke-linejoin:miter;stroke-width:0.5;"/>
   </g>
   <g id="patch_80">
    <path clip-path="url(#p898a0018e0)" d="M 285.475114 258.361667 
L 291.267424 258.361667 
L 291.267424 239.509209 
L 285.475114 239.509209 
z
" style="fill:#d95f02;opacity:0.6;stroke:#000000;stroke-linejoin:miter;stroke-width:0.5;"/>
   </g>
   <g id="patch_81">
    <path clip-path="url(#p898a0018e0)" d="M 291.267424 258.361667 
L 297.059735 258.361667 
L 297.059735 254.434071 
L 291.267424 254.434071 
z
" style="fill:#d95f02;opacity:0.6;stroke:#000000;stroke-linejoin:miter;stroke-width:0.5;"/>
   </g>
   <g id="patch_82">
    <path clip-path="url(#p898a0018e0)" d="M 297.059735 258.361667 
L 302.852045 258.361667 
L 302.852045 256.005109 
L 297.059735 256.005109 
z
" style="fill:#d95f02;opacity:0.6;stroke:#000000;stroke-linejoin:miter;stroke-width:0.5;"/>
   </g>
   <g id="matplotlib.axis_1">
    <g id="xtick_1">
     <g id="line2d_1">
      <defs>
       <path d="M 0 0 
L 0 3.5 
" id="m02485c0a12" style="stroke:#000000;stroke-width:1.6;"/>
      </defs>
      <g>
       <use style="stroke:#000000;stroke-width:1.6;" x="71.159621" xlink:href="#m02485c0a12" y="258.361667"/>
      </g>
     </g>
     <g id="text_1">
      <!-- 0.0 -->
      <defs>
       <path d="M 31.78125 66.40625 
Q 24.171875 66.40625 20.328125 58.90625 
Q 16.5 51.421875 16.5 36.375 
Q 16.5 21.390625 20.328125 13.890625 
Q 24.171875 6.390625 31.78125 6.390625 
Q 39.453125 6.390625 43.28125 13.890625 
Q 47.125 21.390625 47.125 36.375 
Q 47.125 51.421875 43.28125 58.90625 
Q 39.453125 66.40625 31.78125 66.40625 
z
M 31.78125 74.21875 
Q 44.046875 74.21875 50.515625 64.515625 
Q 56.984375 54.828125 56.984375 36.375 
Q 56.984375 17.96875 50.515625 8.265625 
Q 44.046875 -1.421875 31.78125 -1.421875 
Q 19.53125 -1.421875 13.0625 8.265625 
Q 6.59375 17.96875 6.59375 36.375 
Q 6.59375 54.828125 13.0625 64.515625 
Q 19.53125 74.21875 31.78125 74.21875 
z
" id="DejaVuSans-48"/>
       <path d="M 10.6875 12.40625 
L 21 12.40625 
L 21 0 
L 10.6875 0 
z
" id="DejaVuSans-46"/>
      </defs>
      <g transform="translate(55.256496 288.258542)scale(0.2 -0.2)">
       <use xlink:href="#DejaVuSans-48"/>
       <use x="63.623047" xlink:href="#DejaVuSans-46"/>
       <use x="95.410156" xlink:href="#DejaVuSans-48"/>
      </g>
     </g>
    </g>
    <g id="xtick_2">
     <g id="line2d_2">
      <g>
       <use style="stroke:#000000;stroke-width:1.6;" x="137.357457" xlink:href="#m02485c0a12" y="258.361667"/>
      </g>
     </g>
     <g id="text_2">
      <!-- 0.2 -->
      <defs>
       <path d="M 19.1875 8.296875 
L 53.609375 8.296875 
L 53.609375 0 
L 7.328125 0 
L 7.328125 8.296875 
Q 12.9375 14.109375 22.625 23.890625 
Q 32.328125 33.6875 34.8125 36.53125 
Q 39.546875 41.84375 41.421875 45.53125 
Q 43.3125 49.21875 43.3125 52.78125 
Q 43.3125 58.59375 39.234375 62.25 
Q 35.15625 65.921875 28.609375 65.921875 
Q 23.96875 65.921875 18.8125 64.3125 
Q 13.671875 62.703125 7.8125 59.421875 
L 7.8125 69.390625 
Q 13.765625 71.78125 18.9375 73 
Q 24.125 74.21875 28.421875 74.21875 
Q 39.75 74.21875 46.484375 68.546875 
Q 53.21875 62.890625 53.21875 53.421875 
Q 53.21875 48.921875 51.53125 44.890625 
Q 49.859375 40.875 45.40625 35.40625 
Q 44.1875 33.984375 37.640625 27.21875 
Q 31.109375 20.453125 19.1875 8.296875 
z
" id="DejaVuSans-50"/>
      </defs>
      <g transform="translate(121.454332 288.258542)scale(0.2 -0.2)">
       <use xlink:href="#DejaVuSans-48"/>
       <use x="63.623047" xlink:href="#DejaVuSans-46"/>
       <use x="95.410156" xlink:href="#DejaVuSans-50"/>
      </g>
     </g>
    </g>
    <g id="xtick_3">
     <g id="line2d_3">
      <g>
       <use style="stroke:#000000;stroke-width:1.6;" x="203.555292" xlink:href="#m02485c0a12" y="258.361667"/>
      </g>
     </g>
     <g id="text_3">
      <!-- 0.4 -->
      <defs>
       <path d="M 37.796875 64.3125 
L 12.890625 25.390625 
L 37.796875 25.390625 
z
M 35.203125 72.90625 
L 47.609375 72.90625 
L 47.609375 25.390625 
L 58.015625 25.390625 
L 58.015625 17.1875 
L 47.609375 17.1875 
L 47.609375 0 
L 37.796875 0 
L 37.796875 17.1875 
L 4.890625 17.1875 
L 4.890625 26.703125 
z
" id="DejaVuSans-52"/>
      </defs>
      <g transform="translate(187.652167 288.258542)scale(0.2 -0.2)">
       <use xlink:href="#DejaVuSans-48"/>
       <use x="63.623047" xlink:href="#DejaVuSans-46"/>
       <use x="95.410156" xlink:href="#DejaVuSans-52"/>
      </g>
     </g>
    </g>
    <g id="xtick_4">
     <g id="line2d_4">
      <g>
       <use style="stroke:#000000;stroke-width:1.6;" x="269.753128" xlink:href="#m02485c0a12" y="258.361667"/>
      </g>
     </g>
     <g id="text_4">
      <!-- 0.6 -->
      <defs>
       <path d="M 33.015625 40.375 
Q 26.375 40.375 22.484375 35.828125 
Q 18.609375 31.296875 18.609375 23.390625 
Q 18.609375 15.53125 22.484375 10.953125 
Q 26.375 6.390625 33.015625 6.390625 
Q 39.65625 6.390625 43.53125 10.953125 
Q 47.40625 15.53125 47.40625 23.390625 
Q 47.40625 31.296875 43.53125 35.828125 
Q 39.65625 40.375 33.015625 40.375 
z
M 52.59375 71.296875 
L 52.59375 62.3125 
Q 48.875 64.0625 45.09375 64.984375 
Q 41.3125 65.921875 37.59375 65.921875 
Q 27.828125 65.921875 22.671875 59.328125 
Q 17.53125 52.734375 16.796875 39.40625 
Q 19.671875 43.65625 24.015625 45.921875 
Q 28.375 48.1875 33.59375 48.1875 
Q 44.578125 48.1875 50.953125 41.515625 
Q 57.328125 34.859375 57.328125 23.390625 
Q 57.328125 12.15625 50.6875 5.359375 
Q 44.046875 -1.421875 33.015625 -1.421875 
Q 20.359375 -1.421875 13.671875 8.265625 
Q 6.984375 17.96875 6.984375 36.375 
Q 6.984375 53.65625 15.1875 63.9375 
Q 23.390625 74.21875 37.203125 74.21875 
Q 40.921875 74.21875 44.703125 73.484375 
Q 48.484375 72.75 52.59375 71.296875 
z
" id="DejaVuSans-54"/>
      </defs>
      <g transform="translate(253.850003 288.258542)scale(0.2 -0.2)">
       <use xlink:href="#DejaVuSans-48"/>
       <use x="63.623047" xlink:href="#DejaVuSans-46"/>
       <use x="95.410156" xlink:href="#DejaVuSans-54"/>
      </g>
     </g>
    </g>
    <g id="text_5">
     <!-- Max JS Divergence within $\epsilon$ -->
     <defs>
      <path d="M 9.8125 72.90625 
L 24.515625 72.90625 
L 43.109375 23.296875 
L 61.8125 72.90625 
L 76.515625 72.90625 
L 76.515625 0 
L 66.890625 0 
L 66.890625 64.015625 
L 48.09375 14.015625 
L 38.1875 14.015625 
L 19.390625 64.015625 
L 19.390625 0 
L 9.8125 0 
z
" id="DejaVuSans-77"/>
      <path d="M 34.28125 27.484375 
Q 23.390625 27.484375 19.1875 25 
Q 14.984375 22.515625 14.984375 16.5 
Q 14.984375 11.71875 18.140625 8.90625 
Q 21.296875 6.109375 26.703125 6.109375 
Q 34.1875 6.109375 38.703125 11.40625 
Q 43.21875 16.703125 43.21875 25.484375 
L 43.21875 27.484375 
z
M 52.203125 31.203125 
L 52.203125 0 
L 43.21875 0 
L 43.21875 8.296875 
Q 40.140625 3.328125 35.546875 0.953125 
Q 30.953125 -1.421875 24.3125 -1.421875 
Q 15.921875 -1.421875 10.953125 3.296875 
Q 6 8.015625 6 15.921875 
Q 6 25.140625 12.171875 29.828125 
Q 18.359375 34.515625 30.609375 34.515625 
L 43.21875 34.515625 
L 43.21875 35.40625 
Q 43.21875 41.609375 39.140625 45 
Q 35.0625 48.390625 27.6875 48.390625 
Q 23 48.390625 18.546875 47.265625 
Q 14.109375 46.140625 10.015625 43.890625 
L 10.015625 52.203125 
Q 14.9375 54.109375 19.578125 55.046875 
Q 24.21875 56 28.609375 56 
Q 40.484375 56 46.34375 49.84375 
Q 52.203125 43.703125 52.203125 31.203125 
z
" id="DejaVuSans-97"/>
      <path d="M 54.890625 54.6875 
L 35.109375 28.078125 
L 55.90625 0 
L 45.3125 0 
L 29.390625 21.484375 
L 13.484375 0 
L 2.875 0 
L 24.125 28.609375 
L 4.6875 54.6875 
L 15.28125 54.6875 
L 29.78125 35.203125 
L 44.28125 54.6875 
z
" id="DejaVuSans-120"/>
      <path id="DejaVuSans-32"/>
      <path d="M 9.8125 72.90625 
L 19.671875 72.90625 
L 19.671875 5.078125 
Q 19.671875 -8.109375 14.671875 -14.0625 
Q 9.671875 -20.015625 -1.421875 -20.015625 
L -5.171875 -20.015625 
L -5.171875 -11.71875 
L -2.09375 -11.71875 
Q 4.4375 -11.71875 7.125 -8.046875 
Q 9.8125 -4.390625 9.8125 5.078125 
z
" id="DejaVuSans-74"/>
      <path d="M 53.515625 70.515625 
L 53.515625 60.890625 
Q 47.90625 63.578125 42.921875 64.890625 
Q 37.9375 66.21875 33.296875 66.21875 
Q 25.25 66.21875 20.875 63.09375 
Q 16.5 59.96875 16.5 54.203125 
Q 16.5 49.359375 19.40625 46.890625 
Q 22.3125 44.4375 30.421875 42.921875 
L 36.375 41.703125 
Q 47.40625 39.59375 52.65625 34.296875 
Q 57.90625 29 57.90625 20.125 
Q 57.90625 9.515625 50.796875 4.046875 
Q 43.703125 -1.421875 29.984375 -1.421875 
Q 24.8125 -1.421875 18.96875 -0.25 
Q 13.140625 0.921875 6.890625 3.21875 
L 6.890625 13.375 
Q 12.890625 10.015625 18.65625 8.296875 
Q 24.421875 6.59375 29.984375 6.59375 
Q 38.421875 6.59375 43.015625 9.90625 
Q 47.609375 13.234375 47.609375 19.390625 
Q 47.609375 24.75 44.3125 27.78125 
Q 41.015625 30.8125 33.5 32.328125 
L 27.484375 33.5 
Q 16.453125 35.6875 11.515625 40.375 
Q 6.59375 45.0625 6.59375 53.421875 
Q 6.59375 63.09375 13.40625 68.65625 
Q 20.21875 74.21875 32.171875 74.21875 
Q 37.3125 74.21875 42.625 73.28125 
Q 47.953125 72.359375 53.515625 70.515625 
z
" id="DejaVuSans-83"/>
      <path d="M 19.671875 64.796875 
L 19.671875 8.109375 
L 31.59375 8.109375 
Q 46.6875 8.109375 53.6875 14.9375 
Q 60.6875 21.78125 60.6875 36.53125 
Q 60.6875 51.171875 53.6875 57.984375 
Q 46.6875 64.796875 31.59375 64.796875 
z
M 9.8125 72.90625 
L 30.078125 72.90625 
Q 51.265625 72.90625 61.171875 64.09375 
Q 71.09375 55.28125 71.09375 36.53125 
Q 71.09375 17.671875 61.125 8.828125 
Q 51.171875 0 30.078125 0 
L 9.8125 0 
z
" id="DejaVuSans-68"/>
      <path d="M 9.421875 54.6875 
L 18.40625 54.6875 
L 18.40625 0 
L 9.421875 0 
z
M 9.421875 75.984375 
L 18.40625 75.984375 
L 18.40625 64.59375 
L 9.421875 64.59375 
z
" id="DejaVuSans-105"/>
      <path d="M 2.984375 54.6875 
L 12.5 54.6875 
L 29.59375 8.796875 
L 46.6875 54.6875 
L 56.203125 54.6875 
L 35.6875 0 
L 23.484375 0 
z
" id="DejaVuSans-118"/>
      <path d="M 56.203125 29.59375 
L 56.203125 25.203125 
L 14.890625 25.203125 
Q 15.484375 15.921875 20.484375 11.0625 
Q 25.484375 6.203125 34.421875 6.203125 
Q 39.59375 6.203125 44.453125 7.46875 
Q 49.3125 8.734375 54.109375 11.28125 
L 54.109375 2.78125 
Q 49.265625 0.734375 44.1875 -0.34375 
Q 39.109375 -1.421875 33.890625 -1.421875 
Q 20.796875 -1.421875 13.15625 6.1875 
Q 5.515625 13.8125 5.515625 26.8125 
Q 5.515625 40.234375 12.765625 48.109375 
Q 20.015625 56 32.328125 56 
Q 43.359375 56 49.78125 48.890625 
Q 56.203125 41.796875 56.203125 29.59375 
z
M 47.21875 32.234375 
Q 47.125 39.59375 43.09375 43.984375 
Q 39.0625 48.390625 32.421875 48.390625 
Q 24.90625 48.390625 20.390625 44.140625 
Q 15.875 39.890625 15.1875 32.171875 
z
" id="DejaVuSans-101"/>
      <path d="M 41.109375 46.296875 
Q 39.59375 47.171875 37.8125 47.578125 
Q 36.03125 48 33.890625 48 
Q 26.265625 48 22.1875 43.046875 
Q 18.109375 38.09375 18.109375 28.8125 
L 18.109375 0 
L 9.078125 0 
L 9.078125 54.6875 
L 18.109375 54.6875 
L 18.109375 46.1875 
Q 20.953125 51.171875 25.484375 53.578125 
Q 30.03125 56 36.53125 56 
Q 37.453125 56 38.578125 55.875 
Q 39.703125 55.765625 41.0625 55.515625 
z
" id="DejaVuSans-114"/>
      <path d="M 45.40625 27.984375 
Q 45.40625 37.75 41.375 43.109375 
Q 37.359375 48.484375 30.078125 48.484375 
Q 22.859375 48.484375 18.828125 43.109375 
Q 14.796875 37.75 14.796875 27.984375 
Q 14.796875 18.265625 18.828125 12.890625 
Q 22.859375 7.515625 30.078125 7.515625 
Q 37.359375 7.515625 41.375 12.890625 
Q 45.40625 18.265625 45.40625 27.984375 
z
M 54.390625 6.78125 
Q 54.390625 -7.171875 48.1875 -13.984375 
Q 42 -20.796875 29.203125 -20.796875 
Q 24.46875 -20.796875 20.265625 -20.09375 
Q 16.0625 -19.390625 12.109375 -17.921875 
L 12.109375 -9.1875 
Q 16.0625 -11.328125 19.921875 -12.34375 
Q 23.78125 -13.375 27.78125 -13.375 
Q 36.625 -13.375 41.015625 -8.765625 
Q 45.40625 -4.15625 45.40625 5.171875 
L 45.40625 9.625 
Q 42.625 4.78125 38.28125 2.390625 
Q 33.9375 0 27.875 0 
Q 17.828125 0 11.671875 7.65625 
Q 5.515625 15.328125 5.515625 27.984375 
Q 5.515625 40.671875 11.671875 48.328125 
Q 17.828125 56 27.875 56 
Q 33.9375 56 38.28125 53.609375 
Q 42.625 51.21875 45.40625 46.390625 
L 45.40625 54.6875 
L 54.390625 54.6875 
z
" id="DejaVuSans-103"/>
      <path d="M 54.890625 33.015625 
L 54.890625 0 
L 45.90625 0 
L 45.90625 32.71875 
Q 45.90625 40.484375 42.875 44.328125 
Q 39.84375 48.1875 33.796875 48.1875 
Q 26.515625 48.1875 22.3125 43.546875 
Q 18.109375 38.921875 18.109375 30.90625 
L 18.109375 0 
L 9.078125 0 
L 9.078125 54.6875 
L 18.109375 54.6875 
L 18.109375 46.1875 
Q 21.34375 51.125 25.703125 53.5625 
Q 30.078125 56 35.796875 56 
Q 45.21875 56 50.046875 50.171875 
Q 54.890625 44.34375 54.890625 33.015625 
z
" id="DejaVuSans-110"/>
      <path d="M 48.78125 52.59375 
L 48.78125 44.1875 
Q 44.96875 46.296875 41.140625 47.34375 
Q 37.3125 48.390625 33.40625 48.390625 
Q 24.65625 48.390625 19.8125 42.84375 
Q 14.984375 37.3125 14.984375 27.296875 
Q 14.984375 17.28125 19.8125 11.734375 
Q 24.65625 6.203125 33.40625 6.203125 
Q 37.3125 6.203125 41.140625 7.25 
Q 44.96875 8.296875 48.78125 10.40625 
L 48.78125 2.09375 
Q 45.015625 0.34375 40.984375 -0.53125 
Q 36.96875 -1.421875 32.421875 -1.421875 
Q 20.0625 -1.421875 12.78125 6.34375 
Q 5.515625 14.109375 5.515625 27.296875 
Q 5.515625 40.671875 12.859375 48.328125 
Q 20.21875 56 33.015625 56 
Q 37.15625 56 41.109375 55.140625 
Q 45.0625 54.296875 48.78125 52.59375 
z
" id="DejaVuSans-99"/>
      <path d="M 4.203125 54.6875 
L 13.1875 54.6875 
L 24.421875 12.015625 
L 35.59375 54.6875 
L 46.1875 54.6875 
L 57.421875 12.015625 
L 68.609375 54.6875 
L 77.59375 54.6875 
L 63.28125 0 
L 52.6875 0 
L 40.921875 44.828125 
L 29.109375 0 
L 18.5 0 
z
" id="DejaVuSans-119"/>
      <path d="M 18.3125 70.21875 
L 18.3125 54.6875 
L 36.8125 54.6875 
L 36.8125 47.703125 
L 18.3125 47.703125 
L 18.3125 18.015625 
Q 18.3125 11.328125 20.140625 9.421875 
Q 21.96875 7.515625 27.59375 7.515625 
L 36.8125 7.515625 
L 36.8125 0 
L 27.59375 0 
Q 17.1875 0 13.234375 3.875 
Q 9.28125 7.765625 9.28125 18.015625 
L 9.28125 47.703125 
L 2.6875 47.703125 
L 2.6875 54.6875 
L 9.28125 54.6875 
L 9.28125 70.21875 
z
" id="DejaVuSans-116"/>
      <path d="M 54.890625 33.015625 
L 54.890625 0 
L 45.90625 0 
L 45.90625 32.71875 
Q 45.90625 40.484375 42.875 44.328125 
Q 39.84375 48.1875 33.796875 48.1875 
Q 26.515625 48.1875 22.3125 43.546875 
Q 18.109375 38.921875 18.109375 30.90625 
L 18.109375 0 
L 9.078125 0 
L 9.078125 75.984375 
L 18.109375 75.984375 
L 18.109375 46.1875 
Q 21.34375 51.125 25.703125 53.5625 
Q 30.078125 56 35.796875 56 
Q 45.21875 56 50.046875 50.171875 
Q 54.890625 44.34375 54.890625 33.015625 
z
" id="DejaVuSans-104"/>
      <path d="M 19.734375 29.5 
Q 14.453125 30.671875 12.15625 33.84375 
Q 10.453125 36.078125 10.453125 39.109375 
Q 10.453125 47.40625 18.359375 52.25 
Q 24.609375 56.0625 34.1875 56.0625 
Q 37.890625 56.0625 41.9375 55.46875 
Q 46 54.890625 50.53125 53.71875 
L 48.96875 45.5625 
Q 44.484375 46.96875 40.71875 47.609375 
Q 36.859375 48.25 33.40625 48.25 
Q 27.59375 48.25 23.78125 46 
Q 19.1875 43.3125 19.1875 39.40625 
Q 19.1875 36.8125 21.578125 35.015625 
Q 24.421875 32.859375 30.078125 32.859375 
L 37.640625 32.859375 
L 36.234375 25.4375 
L 29 25.4375 
Q 22.265625 25.4375 18.3125 22.953125 
Q 12.9375 19.578125 12.9375 14.3125 
Q 12.9375 10.984375 15.828125 8.796875 
Q 19.4375 6.0625 26.8125 6.0625 
Q 31.34375 6.0625 35.6875 6.9375 
Q 40.046875 7.859375 43.84375 9.671875 
L 42.1875 1.3125 
Q 37.546875 -0.046875 33.296875 -0.734375 
Q 29.046875 -1.421875 25.140625 -1.421875 
Q 13.53125 -1.421875 8.0625 3.03125 
Q 3.90625 6.453125 3.90625 12.203125 
Q 3.90625 19.96875 9.375 24.75 
Q 13.421875 28.328125 19.734375 29.5 
z
" id="DejaVuSans-Oblique-949"/>
     </defs>
     <g transform="translate(51.405833 311.617917)scale(0.2 -0.2)">
      <use transform="translate(0 0.015625)" xlink:href="#DejaVuSans-77"/>
      <use transform="translate(86.279297 0.015625)" xlink:href="#DejaVuSans-97"/>
      <use transform="translate(147.558594 0.015625)" xlink:href="#DejaVuSans-120"/>
      <use transform="translate(206.738281 0.015625)" xlink:href="#DejaVuSans-32"/>
      <use transform="translate(238.525391 0.015625)" xlink:href="#DejaVuSans-74"/>
      <use transform="translate(268.017578 0.015625)" xlink:href="#DejaVuSans-83"/>
      <use transform="translate(331.494141 0.015625)" xlink:href="#DejaVuSans-32"/>
      <use transform="translate(363.28125 0.015625)" xlink:href="#DejaVuSans-68"/>
      <use transform="translate(440.283203 0.015625)" xlink:href="#DejaVuSans-105"/>
      <use transform="translate(468.066406 0.015625)" xlink:href="#DejaVuSans-118"/>
      <use transform="translate(527.246094 0.015625)" xlink:href="#DejaVuSans-101"/>
      <use transform="translate(588.769531 0.015625)" xlink:href="#DejaVuSans-114"/>
      <use transform="translate(629.882812 0.015625)" xlink:href="#DejaVuSans-103"/>
      <use transform="translate(693.359375 0.015625)" xlink:href="#DejaVuSans-101"/>
      <use transform="translate(754.882812 0.015625)" xlink:href="#DejaVuSans-110"/>
      <use transform="translate(818.261719 0.015625)" xlink:href="#DejaVuSans-99"/>
      <use transform="translate(873.242188 0.015625)" xlink:href="#DejaVuSans-101"/>
      <use transform="translate(934.765625 0.015625)" xlink:href="#DejaVuSans-32"/>
      <use transform="translate(966.552734 0.015625)" xlink:href="#DejaVuSans-119"/>
      <use transform="translate(1048.339844 0.015625)" xlink:href="#DejaVuSans-105"/>
      <use transform="translate(1076.123047 0.015625)" xlink:href="#DejaVuSans-116"/>
      <use transform="translate(1115.332031 0.015625)" xlink:href="#DejaVuSans-104"/>
      <use transform="translate(1178.710938 0.015625)" xlink:href="#DejaVuSans-105"/>
      <use transform="translate(1206.494141 0.015625)" xlink:href="#DejaVuSans-110"/>
      <use transform="translate(1269.873047 0.015625)" xlink:href="#DejaVuSans-32"/>
      <use transform="translate(1301.660156 0.015625)" xlink:href="#DejaVuSans-Oblique-949"/>
     </g>
    </g>
   </g>
   <g id="matplotlib.axis_2">
    <g id="ytick_1">
     <g id="line2d_5">
      <defs>
       <path d="M 0 0 
L -3.5 0 
" id="m372ecdeb7e" style="stroke:#000000;stroke-width:1.6;"/>
      </defs>
      <g>
       <use style="stroke:#000000;stroke-width:1.6;" x="59.575" xlink:href="#m372ecdeb7e" y="258.361667"/>
      </g>
     </g>
     <g id="text_6">
      <!-- 0.00 -->
      <g transform="translate(0.34375 265.960104)scale(0.2 -0.2)">
       <use xlink:href="#DejaVuSans-48"/>
       <use x="63.623047" xlink:href="#DejaVuSans-46"/>
       <use x="95.410156" xlink:href="#DejaVuSans-48"/>
       <use x="159.033203" xlink:href="#DejaVuSans-48"/>
      </g>
     </g>
    </g>
    <g id="ytick_2">
     <g id="line2d_6">
      <g>
       <use style="stroke:#000000;stroke-width:1.6;" x="59.575" xlink:href="#m372ecdeb7e" y="200.036875"/>
      </g>
     </g>
     <g id="text_7">
      <!-- 0.05 -->
      <defs>
       <path d="M 10.796875 72.90625 
L 49.515625 72.90625 
L 49.515625 64.59375 
L 19.828125 64.59375 
L 19.828125 46.734375 
Q 21.96875 47.46875 24.109375 47.828125 
Q 26.265625 48.1875 28.421875 48.1875 
Q 40.625 48.1875 47.75 41.5 
Q 54.890625 34.8125 54.890625 23.390625 
Q 54.890625 11.625 47.5625 5.09375 
Q 40.234375 -1.421875 26.90625 -1.421875 
Q 22.3125 -1.421875 17.546875 -0.640625 
Q 12.796875 0.140625 7.71875 1.703125 
L 7.71875 11.625 
Q 12.109375 9.234375 16.796875 8.0625 
Q 21.484375 6.890625 26.703125 6.890625 
Q 35.15625 6.890625 40.078125 11.328125 
Q 45.015625 15.765625 45.015625 23.390625 
Q 45.015625 31 40.078125 35.4375 
Q 35.15625 39.890625 26.703125 39.890625 
Q 22.75 39.890625 18.8125 39.015625 
Q 14.890625 38.140625 10.796875 36.28125 
z
" id="DejaVuSans-53"/>
      </defs>
      <g transform="translate(0.34375 207.635312)scale(0.2 -0.2)">
       <use xlink:href="#DejaVuSans-48"/>
       <use x="63.623047" xlink:href="#DejaVuSans-46"/>
       <use x="95.410156" xlink:href="#DejaVuSans-48"/>
       <use x="159.033203" xlink:href="#DejaVuSans-53"/>
      </g>
     </g>
    </g>
    <g id="ytick_3">
     <g id="line2d_7">
      <g>
       <use style="stroke:#000000;stroke-width:1.6;" x="59.575" xlink:href="#m372ecdeb7e" y="141.712083"/>
      </g>
     </g>
     <g id="text_8">
      <!-- 0.10 -->
      <defs>
       <path d="M 12.40625 8.296875 
L 28.515625 8.296875 
L 28.515625 63.921875 
L 10.984375 60.40625 
L 10.984375 69.390625 
L 28.421875 72.90625 
L 38.28125 72.90625 
L 38.28125 8.296875 
L 54.390625 8.296875 
L 54.390625 0 
L 12.40625 0 
z
" id="DejaVuSans-49"/>
      </defs>
      <g transform="translate(0.34375 149.31052)scale(0.2 -0.2)">
       <use xlink:href="#DejaVuSans-48"/>
       <use x="63.623047" xlink:href="#DejaVuSans-46"/>
       <use x="95.410156" xlink:href="#DejaVuSans-49"/>
       <use x="159.033203" xlink:href="#DejaVuSans-48"/>
      </g>
     </g>
    </g>
    <g id="ytick_4">
     <g id="line2d_8">
      <g>
       <use style="stroke:#000000;stroke-width:1.6;" x="59.575" xlink:href="#m372ecdeb7e" y="83.387291"/>
      </g>
     </g>
     <g id="text_9">
      <!-- 0.15 -->
      <g transform="translate(0.34375 90.985728)scale(0.2 -0.2)">
       <use xlink:href="#DejaVuSans-48"/>
       <use x="63.623047" xlink:href="#DejaVuSans-46"/>
       <use x="95.410156" xlink:href="#DejaVuSans-49"/>
       <use x="159.033203" xlink:href="#DejaVuSans-53"/>
      </g>
     </g>
    </g>
    <g id="ytick_5">
     <g id="line2d_9">
      <g>
       <use style="stroke:#000000;stroke-width:1.6;" x="59.575" xlink:href="#m372ecdeb7e" y="25.062499"/>
      </g>
     </g>
     <g id="text_10">
      <!-- 0.20 -->
      <g transform="translate(0.34375 32.660936)scale(0.2 -0.2)">
       <use xlink:href="#DejaVuSans-48"/>
       <use x="63.623047" xlink:href="#DejaVuSans-46"/>
       <use x="95.410156" xlink:href="#DejaVuSans-50"/>
       <use x="159.033203" xlink:href="#DejaVuSans-48"/>
      </g>
     </g>
    </g>
   </g>
   <g id="patch_83">
    <path d="M 59.575 258.361667 
L 59.575 3.5 
" style="fill:none;stroke:#000000;stroke-linecap:square;stroke-linejoin:miter;stroke-width:0.8;"/>
   </g>
   <g id="patch_84">
    <path d="M 59.575 258.361667 
L 314.436667 258.361667 
" style="fill:none;stroke:#000000;stroke-linecap:square;stroke-linejoin:miter;stroke-width:0.8;"/>
   </g>
  </g>
  <g id="axes_2">
   <g id="patch_85">
    <path d="M 425.796667 258.361667 
L 680.658333 258.361667 
L 680.658333 3.5 
L 425.796667 3.5 
z
" style="fill:#ffffff;"/>
   </g>
   <g id="PolyCollection_1">
    <defs>
     <path d="M 592.339156 -296.35831 
L 592.339156 -296.535773 
L 593.189633 -296.568814 
L 594.040109 -296.607183 
L 594.890586 -296.650012 
L 595.741062 -296.696052 
L 596.591539 -296.743556 
L 597.442015 -296.790393 
L 598.292491 -296.834681 
L 599.142968 -296.875898 
L 599.993444 -296.915917 
L 600.843921 -296.95932 
L 601.694397 -297.012748 
L 602.544874 -297.083672 
L 603.39535 -297.179188 
L 604.245826 -297.305142 
L 605.096303 -297.465641 
L 605.946779 -297.663 
L 606.797256 -297.898441 
L 607.647732 -298.173592 
L 608.498209 -298.492127 
L 609.348685 -298.860407 
L 610.199162 -299.28631 
L 611.049638 -299.776581 
L 611.900114 -300.333978 
L 612.750591 -300.955596 
L 613.601067 -301.632975 
L 614.451544 -302.353492 
L 615.30202 -303.101888 
L 616.152497 -303.860947 
L 617.002973 -304.611289 
L 617.853449 -305.331114 
L 618.703926 -305.99691 
L 619.554402 -306.585605 
L 620.404879 -307.078088 
L 621.255355 -307.463594 
L 622.105832 -307.743652 
L 622.956308 -307.933187 
L 623.806784 -308.056353 
L 624.657261 -308.137158 
L 625.507737 -308.188829 
L 626.358214 -308.207873 
L 627.20869 -308.176672 
L 628.059167 -308.073371 
L 628.909643 -307.883684 
L 629.76012 -307.608584 
L 630.610596 -307.264517 
L 631.461072 -306.876724 
L 632.311549 -306.469555 
L 633.162025 -306.058872 
L 634.012502 -305.6501 
L 634.862978 -305.241846 
L 635.713455 -304.831669 
L 636.563931 -304.419974 
L 637.414407 -304.010236 
L 638.264884 -303.60664 
L 639.11536 -303.211483 
L 639.965837 -302.823972 
L 640.816313 -302.440684 
L 641.66679 -302.057229 
L 642.517266 -301.670499 
L 643.367743 -301.280857 
L 644.218219 -300.893509 
L 645.068695 -300.518406 
L 645.919172 -300.168481 
L 646.769648 -299.856613 
L 647.620125 -299.592166 
L 648.470601 -299.37826 
L 649.321078 -299.210912 
L 650.171554 -299.080552 
L 651.02203 -298.975278 
L 651.872507 -298.884254 
L 652.722983 -298.79971 
L 653.57346 -298.716988 
L 654.423936 -298.633323 
L 655.274413 -298.546656 
L 656.124889 -298.455492 
L 656.975365 -298.359862 
L 657.825842 -298.262481 
L 658.676318 -298.168845 
L 659.526795 -298.085563 
L 660.377271 -298.017404 
L 661.227748 -297.964503 
L 662.078224 -297.921304 
L 662.928701 -297.877931 
L 663.779177 -297.823447 
L 664.629653 -297.749475 
L 665.48013 -297.652641 
L 666.330606 -297.535098 
L 667.181083 -297.403411 
L 668.031559 -297.266624 
L 668.882036 -297.134235 
L 669.732512 -297.01437 
L 670.582988 -296.912315 
L 671.433465 -296.829694 
L 672.283941 -296.764625 
L 673.134418 -296.712879 
L 673.984894 -296.669619 
L 674.835371 -296.630971 
L 675.685847 -296.594895 
L 676.536323 -296.561165 
L 676.536323 -296.332918 
L 676.536323 -296.332918 
L 675.685847 -296.299189 
L 674.835371 -296.263112 
L 673.984894 -296.224465 
L 673.134418 -296.181204 
L 672.283941 -296.129459 
L 671.433465 -296.064389 
L 670.582988 -295.981768 
L 669.732512 -295.879713 
L 668.882036 -295.759848 
L 668.031559 -295.627459 
L 667.181083 -295.490673 
L 666.330606 -295.358985 
L 665.48013 -295.241443 
L 664.629653 -295.144608 
L 663.779177 -295.070636 
L 662.928701 -295.016153 
L 662.078224 -294.97278 
L 661.227748 -294.92958 
L 660.377271 -294.87668 
L 659.526795 -294.808521 
L 658.676318 -294.725239 
L 657.825842 -294.631602 
L 656.975365 -294.534221 
L 656.124889 -294.438591 
L 655.274413 -294.347427 
L 654.423936 -294.26076 
L 653.57346 -294.177095 
L 652.722983 -294.094373 
L 651.872507 -294.009829 
L 651.02203 -293.918806 
L 650.171554 -293.813532 
L 649.321078 -293.683172 
L 648.470601 -293.515823 
L 647.620125 -293.301917 
L 646.769648 -293.037471 
L 645.919172 -292.725603 
L 645.068695 -292.375677 
L 644.218219 -292.000574 
L 643.367743 -291.613226 
L 642.517266 -291.223584 
L 641.66679 -290.836854 
L 640.816313 -290.4534 
L 639.965837 -290.070111 
L 639.11536 -289.6826 
L 638.264884 -289.287444 
L 637.414407 -288.883848 
L 636.563931 -288.474109 
L 635.713455 -288.062414 
L 634.862978 -287.652237 
L 634.012502 -287.243984 
L 633.162025 -286.835212 
L 632.311549 -286.424528 
L 631.461072 -286.01736 
L 630.610596 -285.629567 
L 629.76012 -285.285499 
L 628.909643 -285.010399 
L 628.059167 -284.820713 
L 627.20869 -284.717412 
L 626.358214 -284.68621 
L 625.507737 -284.705255 
L 624.657261 -284.756925 
L 623.806784 -284.83773 
L 622.956308 -284.960896 
L 622.105832 -285.150431 
L 621.255355 -285.43049 
L 620.404879 -285.815996 
L 619.554402 -286.308479 
L 618.703926 -286.897173 
L 617.853449 -287.562969 
L 617.002973 -288.282794 
L 616.152497 -289.033137 
L 615.30202 -289.792196 
L 614.451544 -290.540591 
L 613.601067 -291.261108 
L 612.750591 -291.938487 
L 611.900114 -292.560105 
L 611.049638 -293.117502 
L 610.199162 -293.607774 
L 609.348685 -294.033676 
L 608.498209 -294.401956 
L 607.647732 -294.720492 
L 606.797256 -294.995642 
L 605.946779 -295.231084 
L 605.096303 -295.428442 
L 604.245826 -295.588941 
L 603.39535 -295.714896 
L 602.544874 -295.810411 
L 601.694397 -295.881336 
L 600.843921 -295.934764 
L 599.993444 -295.978167 
L 599.142968 -296.018186 
L 598.292491 -296.059402 
L 597.442015 -296.10369 
L 596.591539 -296.150527 
L 595.741062 -296.198031 
L 594.890586 -296.244071 
L 594.040109 -296.2869 
L 593.189633 -296.325269 
L 592.339156 -296.35831 
z
" id="m05950fdbbf" style="stroke:#424242;"/>
    </defs>
    <g clip-path="url(#pba35c27d19)">
     <use style="fill:#7c78ab;stroke:#424242;" x="0" xlink:href="#m05950fdbbf" y="319.061667"/>
    </g>
   </g>
   <g id="PolyCollection_2">
    <defs>
     <path d="M 590.578252 -270.906305 
L 590.578252 -271.015445 
L 591.44226 -271.023226 
L 592.306268 -271.030649 
L 593.170276 -271.039346 
L 594.034284 -271.051902 
L 594.898292 -271.071389 
L 595.762301 -271.100647 
L 596.626309 -271.141615 
L 597.490317 -271.195015 
L 598.354325 -271.260618 
L 599.218333 -271.338004 
L 600.082341 -271.427453 
L 600.94635 -271.530527 
L 601.810358 -271.650052 
L 602.674366 -271.789484 
L 603.538374 -271.951952 
L 604.402382 -272.139384 
L 605.26639 -272.352181 
L 606.130399 -272.589699 
L 606.994407 -272.851502 
L 607.858415 -273.138817 
L 608.722423 -273.455335 
L 609.586431 -273.806643 
L 610.450439 -274.19826 
L 611.314448 -274.633147 
L 612.178456 -275.110017 
L 613.042464 -275.623412 
L 613.906472 -276.165471 
L 614.77048 -276.728354 
L 615.634488 -277.306014 
L 616.498497 -277.894555 
L 617.362505 -278.491406 
L 618.226513 -279.094103 
L 619.090521 -279.699334 
L 619.954529 -280.302348 
L 620.818537 -280.896487 
L 621.682546 -281.472661 
L 622.546554 -282.018887 
L 623.410562 -282.520077 
L 624.27457 -282.958255 
L 625.138578 -283.313488 
L 626.002586 -283.565946 
L 626.866595 -283.699191 
L 627.730603 -283.703958 
L 628.594611 -283.580951 
L 629.458619 -283.341239 
L 630.322627 -283.003918 
L 631.186635 -282.591984 
L 632.050644 -282.128004 
L 632.914652 -281.631015 
L 633.77866 -281.11526 
L 634.642668 -280.590585 
L 635.506676 -280.063744 
L 636.370684 -279.539738 
L 637.234693 -279.022547 
L 638.098701 -278.51524 
L 638.962709 -278.019993 
L 639.826717 -277.538625 
L 640.690725 -277.073684 
L 641.554733 -276.629248 
L 642.418742 -276.210414 
L 643.28275 -275.821162 
L 644.146758 -275.461691 
L 645.010766 -275.127179 
L 645.874774 -274.809457 
L 646.738782 -274.501322 
L 647.602791 -274.201268 
L 648.466799 -273.915668 
L 649.330807 -273.656695 
L 650.194815 -273.436682 
L 651.058823 -273.261771 
L 651.922831 -273.128103 
L 652.786839 -273.022297 
L 653.650848 -272.9257 
L 654.514856 -272.820316 
L 655.378864 -272.694087 
L 656.242872 -272.543979 
L 657.10688 -272.376352 
L 657.970888 -272.204801 
L 658.834897 -272.046168 
L 659.698905 -271.915793 
L 660.562913 -271.823388 
L 661.426921 -271.770758 
L 662.290929 -271.751948 
L 663.154937 -271.755433 
L 664.018946 -271.767306 
L 664.882954 -271.774324 
L 665.746962 -271.766168 
L 666.61097 -271.736825 
L 667.474978 -271.685234 
L 668.338986 -271.615174 
L 669.202995 -271.534202 
L 670.067003 -271.451578 
L 670.931011 -271.375638 
L 671.795019 -271.311517 
L 672.659027 -271.260168 
L 673.523035 -271.219012 
L 674.387044 -271.183791 
L 675.251052 -271.150649 
L 676.11506 -271.117557 
L 676.11506 -270.804193 
L 676.11506 -270.804193 
L 675.251052 -270.771101 
L 674.387044 -270.737959 
L 673.523035 -270.702738 
L 672.659027 -270.661582 
L 671.795019 -270.610233 
L 670.931011 -270.546112 
L 670.067003 -270.470172 
L 669.202995 -270.387548 
L 668.338986 -270.306576 
L 667.474978 -270.236516 
L 666.61097 -270.184925 
L 665.746962 -270.155582 
L 664.882954 -270.147426 
L 664.018946 -270.154444 
L 663.154937 -270.166317 
L 662.290929 -270.169802 
L 661.426921 -270.150992 
L 660.562913 -270.098362 
L 659.698905 -270.005957 
L 658.834897 -269.875582 
L 657.970888 -269.716949 
L 657.10688 -269.545398 
L 656.242872 -269.377771 
L 655.378864 -269.227663 
L 654.514856 -269.101434 
L 653.650848 -268.99605 
L 652.786839 -268.899453 
L 651.922831 -268.793647 
L 651.058823 -268.659979 
L 650.194815 -268.485068 
L 649.330807 -268.265055 
L 648.466799 -268.006082 
L 647.602791 -267.720482 
L 646.738782 -267.420428 
L 645.874774 -267.112293 
L 645.010766 -266.794571 
L 644.146758 -266.460059 
L 643.28275 -266.100588 
L 642.418742 -265.711336 
L 641.554733 -265.292502 
L 640.690725 -264.848066 
L 639.826717 -264.383125 
L 638.962709 -263.901757 
L 638.098701 -263.40651 
L 637.234693 -262.899203 
L 636.370684 -262.382012 
L 635.506676 -261.858006 
L 634.642668 -261.331165 
L 633.77866 -260.80649 
L 632.914652 -260.290735 
L 632.050644 -259.793746 
L 631.186635 -259.329766 
L 630.322627 -258.917832 
L 629.458619 -258.580511 
L 628.594611 -258.340799 
L 627.730603 -258.217792 
L 626.866595 -258.222559 
L 626.002586 -258.355804 
L 625.138578 -258.608262 
L 624.27457 -258.963495 
L 623.410562 -259.401673 
L 622.546554 -259.902863 
L 621.682546 -260.449089 
L 620.818537 -261.025263 
L 619.954529 -261.619402 
L 619.090521 -262.222416 
L 618.226513 -262.827647 
L 617.362505 -263.430344 
L 616.498497 -264.027195 
L 615.634488 -264.615736 
L 614.77048 -265.193396 
L 613.906472 -265.756279 
L 613.042464 -266.298338 
L 612.178456 -266.811733 
L 611.314448 -267.288603 
L 610.450439 -267.72349 
L 609.586431 -268.115107 
L 608.722423 -268.466415 
L 607.858415 -268.782933 
L 606.994407 -269.070248 
L 606.130399 -269.332051 
L 605.26639 -269.569569 
L 604.402382 -269.782366 
L 603.538374 -269.969798 
L 602.674366 -270.132266 
L 601.810358 -270.271698 
L 600.94635 -270.391223 
L 600.082341 -270.494297 
L 599.218333 -270.583746 
L 598.354325 -270.661132 
L 597.490317 -270.726735 
L 596.626309 -270.780135 
L 595.762301 -270.821103 
L 594.898292 -270.850361 
L 594.034284 -270.869848 
L 593.170276 -270.882404 
L 592.306268 -270.891101 
L 591.44226 -270.898524 
L 590.578252 -270.906305 
z
" id="mf0f8063f7d" style="stroke:#424242;"/>
    </defs>
    <g clip-path="url(#pba35c27d19)">
     <use style="fill:#be631d;stroke:#424242;" x="0" xlink:href="#mf0f8063f7d" y="319.061667"/>
    </g>
   </g>
   <g id="patch_86">
    <path clip-path="url(#pba35c27d19)" d="M 442.787444 35.357708 
L 442.787444 35.357708 
L 442.787444 35.357708 
L 442.787444 35.357708 
z
" style="fill:#7c78ab;stroke:#424242;stroke-linejoin:miter;stroke-width:0.5;"/>
   </g>
   <g id="patch_87">
    <path clip-path="url(#pba35c27d19)" d="M 442.787444 35.357708 
L 442.787444 35.357708 
L 442.787444 35.357708 
L 442.787444 35.357708 
z
" style="fill:#be631d;stroke:#424242;stroke-linejoin:miter;stroke-width:0.5;"/>
   </g>
   <g id="matplotlib.axis_3">
    <g id="xtick_5">
     <g id="line2d_10">
      <g>
       <use style="stroke:#000000;stroke-width:1.6;" x="442.787444" xlink:href="#m02485c0a12" y="258.361667"/>
      </g>
     </g>
     <g id="text_11">
      <!-- 0.0 -->
      <g transform="translate(426.884319 288.258542)scale(0.2 -0.2)">
       <use xlink:href="#DejaVuSans-48"/>
       <use x="63.623047" xlink:href="#DejaVuSans-46"/>
       <use x="95.410156" xlink:href="#DejaVuSans-48"/>
      </g>
     </g>
    </g>
    <g id="xtick_6">
     <g id="line2d_11">
      <g>
       <use style="stroke:#000000;stroke-width:1.6;" x="510.750556" xlink:href="#m02485c0a12" y="258.361667"/>
      </g>
     </g>
     <g id="text_12">
      <!-- 0.2 -->
      <g transform="translate(494.847431 288.258542)scale(0.2 -0.2)">
       <use xlink:href="#DejaVuSans-48"/>
       <use x="63.623047" xlink:href="#DejaVuSans-46"/>
       <use x="95.410156" xlink:href="#DejaVuSans-50"/>
      </g>
     </g>
    </g>
    <g id="xtick_7">
     <g id="line2d_12">
      <g>
       <use style="stroke:#000000;stroke-width:1.6;" x="578.713667" xlink:href="#m02485c0a12" y="258.361667"/>
      </g>
     </g>
     <g id="text_13">
      <!-- 0.4 -->
      <g transform="translate(562.810542 288.258542)scale(0.2 -0.2)">
       <use xlink:href="#DejaVuSans-48"/>
       <use x="63.623047" xlink:href="#DejaVuSans-46"/>
       <use x="95.410156" xlink:href="#DejaVuSans-52"/>
      </g>
     </g>
    </g>
    <g id="xtick_8">
     <g id="line2d_13">
      <g>
       <use style="stroke:#000000;stroke-width:1.6;" x="646.676778" xlink:href="#m02485c0a12" y="258.361667"/>
      </g>
     </g>
     <g id="text_14">
      <!-- 0.6 -->
      <g transform="translate(630.773653 288.258542)scale(0.2 -0.2)">
       <use xlink:href="#DejaVuSans-48"/>
       <use x="63.623047" xlink:href="#DejaVuSans-46"/>
       <use x="95.410156" xlink:href="#DejaVuSans-54"/>
      </g>
     </g>
    </g>
    <g id="text_15">
     <!-- Max JS Divergence within $\epsilon$ -->
     <g transform="translate(417.6275 311.617917)scale(0.2 -0.2)">
      <use transform="translate(0 0.015625)" xlink:href="#DejaVuSans-77"/>
      <use transform="translate(86.279297 0.015625)" xlink:href="#DejaVuSans-97"/>
      <use transform="translate(147.558594 0.015625)" xlink:href="#DejaVuSans-120"/>
      <use transform="translate(206.738281 0.015625)" xlink:href="#DejaVuSans-32"/>
      <use transform="translate(238.525391 0.015625)" xlink:href="#DejaVuSans-74"/>
      <use transform="translate(268.017578 0.015625)" xlink:href="#DejaVuSans-83"/>
      <use transform="translate(331.494141 0.015625)" xlink:href="#DejaVuSans-32"/>
      <use transform="translate(363.28125 0.015625)" xlink:href="#DejaVuSans-68"/>
      <use transform="translate(440.283203 0.015625)" xlink:href="#DejaVuSans-105"/>
      <use transform="translate(468.066406 0.015625)" xlink:href="#DejaVuSans-118"/>
      <use transform="translate(527.246094 0.015625)" xlink:href="#DejaVuSans-101"/>
      <use transform="translate(588.769531 0.015625)" xlink:href="#DejaVuSans-114"/>
      <use transform="translate(629.882812 0.015625)" xlink:href="#DejaVuSans-103"/>
      <use transform="translate(693.359375 0.015625)" xlink:href="#DejaVuSans-101"/>
      <use transform="translate(754.882812 0.015625)" xlink:href="#DejaVuSans-110"/>
      <use transform="translate(818.261719 0.015625)" xlink:href="#DejaVuSans-99"/>
      <use transform="translate(873.242188 0.015625)" xlink:href="#DejaVuSans-101"/>
      <use transform="translate(934.765625 0.015625)" xlink:href="#DejaVuSans-32"/>
      <use transform="translate(966.552734 0.015625)" xlink:href="#DejaVuSans-119"/>
      <use transform="translate(1048.339844 0.015625)" xlink:href="#DejaVuSans-105"/>
      <use transform="translate(1076.123047 0.015625)" xlink:href="#DejaVuSans-116"/>
      <use transform="translate(1115.332031 0.015625)" xlink:href="#DejaVuSans-104"/>
      <use transform="translate(1178.710938 0.015625)" xlink:href="#DejaVuSans-105"/>
      <use transform="translate(1206.494141 0.015625)" xlink:href="#DejaVuSans-110"/>
      <use transform="translate(1269.873047 0.015625)" xlink:href="#DejaVuSans-32"/>
      <use transform="translate(1301.660156 0.015625)" xlink:href="#DejaVuSans-Oblique-949"/>
     </g>
    </g>
   </g>
   <g id="matplotlib.axis_4">
    <g id="ytick_6">
     <g id="line2d_14">
      <g>
       <use style="stroke:#000000;stroke-width:1.6;" x="425.796667" xlink:href="#m372ecdeb7e" y="35.357708"/>
      </g>
     </g>
     <g id="text_16">
      <!-- [0.00, -->
      <defs>
       <path d="M 8.59375 75.984375 
L 29.296875 75.984375 
L 29.296875 69 
L 17.578125 69 
L 17.578125 -6.203125 
L 29.296875 -6.203125 
L 29.296875 -13.1875 
L 8.59375 -13.1875 
z
" id="DejaVuSans-91"/>
       <path d="M 11.71875 12.40625 
L 22.015625 12.40625 
L 22.015625 4 
L 14.015625 -11.625 
L 7.71875 -11.625 
L 11.71875 4 
z
" id="DejaVuSans-44"/>
      </defs>
      <g transform="translate(352.406042 31.758333)scale(0.2 -0.2)">
       <use xlink:href="#DejaVuSans-91"/>
       <use x="39.013672" xlink:href="#DejaVuSans-48"/>
       <use x="102.636719" xlink:href="#DejaVuSans-46"/>
       <use x="134.423828" xlink:href="#DejaVuSans-48"/>
       <use x="198.046875" xlink:href="#DejaVuSans-48"/>
       <use x="261.669922" xlink:href="#DejaVuSans-44"/>
      </g>
      <!-- 0.25) -->
      <defs>
       <path d="M 8.015625 75.875 
L 15.828125 75.875 
Q 23.140625 64.359375 26.78125 53.3125 
Q 30.421875 42.28125 30.421875 31.390625 
Q 30.421875 20.453125 26.78125 9.375 
Q 23.140625 -1.703125 15.828125 -13.1875 
L 8.015625 -13.1875 
Q 14.5 -2 17.703125 9.0625 
Q 20.90625 20.125 20.90625 31.390625 
Q 20.90625 42.671875 17.703125 53.65625 
Q 14.5 64.65625 8.015625 75.875 
z
" id="DejaVuSans-41"/>
      </defs>
      <g transform="translate(358.762292 54.153958)scale(0.2 -0.2)">
       <use xlink:href="#DejaVuSans-48"/>
       <use x="63.623047" xlink:href="#DejaVuSans-46"/>
       <use x="95.410156" xlink:href="#DejaVuSans-50"/>
       <use x="159.033203" xlink:href="#DejaVuSans-53"/>
       <use x="222.65625" xlink:href="#DejaVuSans-41"/>
      </g>
     </g>
    </g>
    <g id="ytick_7">
     <g id="line2d_15">
      <g>
       <use style="stroke:#000000;stroke-width:1.6;" x="425.796667" xlink:href="#m372ecdeb7e" y="99.073125"/>
      </g>
     </g>
     <g id="text_17">
      <!-- [0.25, -->
      <g transform="translate(352.406042 95.47375)scale(0.2 -0.2)">
       <use xlink:href="#DejaVuSans-91"/>
       <use x="39.013672" xlink:href="#DejaVuSans-48"/>
       <use x="102.636719" xlink:href="#DejaVuSans-46"/>
       <use x="134.423828" xlink:href="#DejaVuSans-50"/>
       <use x="198.046875" xlink:href="#DejaVuSans-53"/>
       <use x="261.669922" xlink:href="#DejaVuSans-44"/>
      </g>
      <!-- 0.50) -->
      <g transform="translate(358.762292 117.869375)scale(0.2 -0.2)">
       <use xlink:href="#DejaVuSans-48"/>
       <use x="63.623047" xlink:href="#DejaVuSans-46"/>
       <use x="95.410156" xlink:href="#DejaVuSans-53"/>
       <use x="159.033203" xlink:href="#DejaVuSans-48"/>
       <use x="222.65625" xlink:href="#DejaVuSans-41"/>
      </g>
     </g>
    </g>
    <g id="ytick_8">
     <g id="line2d_16">
      <g>
       <use style="stroke:#000000;stroke-width:1.6;" x="425.796667" xlink:href="#m372ecdeb7e" y="162.788542"/>
      </g>
     </g>
     <g id="text_18">
      <!-- [0.50, -->
      <g transform="translate(352.406042 159.189167)scale(0.2 -0.2)">
       <use xlink:href="#DejaVuSans-91"/>
       <use x="39.013672" xlink:href="#DejaVuSans-48"/>
       <use x="102.636719" xlink:href="#DejaVuSans-46"/>
       <use x="134.423828" xlink:href="#DejaVuSans-53"/>
       <use x="198.046875" xlink:href="#DejaVuSans-48"/>
       <use x="261.669922" xlink:href="#DejaVuSans-44"/>
      </g>
      <!-- 0.75) -->
      <defs>
       <path d="M 8.203125 72.90625 
L 55.078125 72.90625 
L 55.078125 68.703125 
L 28.609375 0 
L 18.3125 0 
L 43.21875 64.59375 
L 8.203125 64.59375 
z
" id="DejaVuSans-55"/>
      </defs>
      <g transform="translate(358.762292 181.584792)scale(0.2 -0.2)">
       <use xlink:href="#DejaVuSans-48"/>
       <use x="63.623047" xlink:href="#DejaVuSans-46"/>
       <use x="95.410156" xlink:href="#DejaVuSans-55"/>
       <use x="159.033203" xlink:href="#DejaVuSans-53"/>
       <use x="222.65625" xlink:href="#DejaVuSans-41"/>
      </g>
     </g>
    </g>
    <g id="ytick_9">
     <g id="line2d_17">
      <g>
       <use style="stroke:#000000;stroke-width:1.6;" x="425.796667" xlink:href="#m372ecdeb7e" y="226.503958"/>
      </g>
     </g>
     <g id="text_19">
      <!-- [0.75, -->
      <g transform="translate(352.406042 222.904583)scale(0.2 -0.2)">
       <use xlink:href="#DejaVuSans-91"/>
       <use x="39.013672" xlink:href="#DejaVuSans-48"/>
       <use x="102.636719" xlink:href="#DejaVuSans-46"/>
       <use x="134.423828" xlink:href="#DejaVuSans-55"/>
       <use x="198.046875" xlink:href="#DejaVuSans-53"/>
       <use x="261.669922" xlink:href="#DejaVuSans-44"/>
      </g>
      <!-- 1.00) -->
      <g transform="translate(358.762292 245.300208)scale(0.2 -0.2)">
       <use xlink:href="#DejaVuSans-49"/>
       <use x="63.623047" xlink:href="#DejaVuSans-46"/>
       <use x="95.410156" xlink:href="#DejaVuSans-48"/>
       <use x="159.033203" xlink:href="#DejaVuSans-48"/>
       <use x="222.65625" xlink:href="#DejaVuSans-41"/>
      </g>
     </g>
    </g>
    <g id="text_20">
     <!-- Max Attention -->
     <defs>
      <path d="M 34.1875 63.1875 
L 20.796875 26.90625 
L 47.609375 26.90625 
z
M 28.609375 72.90625 
L 39.796875 72.90625 
L 67.578125 0 
L 57.328125 0 
L 50.6875 18.703125 
L 17.828125 18.703125 
L 11.1875 0 
L 0.78125 0 
z
" id="DejaVuSans-65"/>
      <path d="M 30.609375 48.390625 
Q 23.390625 48.390625 19.1875 42.75 
Q 14.984375 37.109375 14.984375 27.296875 
Q 14.984375 17.484375 19.15625 11.84375 
Q 23.34375 6.203125 30.609375 6.203125 
Q 37.796875 6.203125 41.984375 11.859375 
Q 46.1875 17.53125 46.1875 27.296875 
Q 46.1875 37.015625 41.984375 42.703125 
Q 37.796875 48.390625 30.609375 48.390625 
z
M 30.609375 56 
Q 42.328125 56 49.015625 48.375 
Q 55.71875 40.765625 55.71875 27.296875 
Q 55.71875 13.875 49.015625 6.21875 
Q 42.328125 -1.421875 30.609375 -1.421875 
Q 18.84375 -1.421875 12.171875 6.21875 
Q 5.515625 13.875 5.515625 27.296875 
Q 5.515625 40.765625 12.171875 48.375 
Q 18.84375 56 30.609375 56 
z
" id="DejaVuSans-111"/>
     </defs>
     <g transform="translate(344.246667 201.108958)rotate(-90)scale(0.2 -0.2)">
      <use xlink:href="#DejaVuSans-77"/>
      <use x="86.279297" xlink:href="#DejaVuSans-97"/>
      <use x="147.558594" xlink:href="#DejaVuSans-120"/>
      <use x="206.738281" xlink:href="#DejaVuSans-32"/>
      <use x="238.525391" xlink:href="#DejaVuSans-65"/>
      <use x="306.917969" xlink:href="#DejaVuSans-116"/>
      <use x="346.126953" xlink:href="#DejaVuSans-116"/>
      <use x="385.335938" xlink:href="#DejaVuSans-101"/>
      <use x="446.859375" xlink:href="#DejaVuSans-110"/>
      <use x="510.238281" xlink:href="#DejaVuSans-116"/>
      <use x="549.447266" xlink:href="#DejaVuSans-105"/>
      <use x="577.230469" xlink:href="#DejaVuSans-111"/>
      <use x="638.412109" xlink:href="#DejaVuSans-110"/>
     </g>
    </g>
   </g>
   <g id="line2d_18">
    <path clip-path="url(#pba35c27d19)" style="fill:none;stroke:#424242;stroke-dasharray:1.5,1.5;stroke-dashoffset:0;"/>
   </g>
   <g id="line2d_19">
    <path clip-path="url(#pba35c27d19)" style="fill:none;stroke:#424242;stroke-dasharray:3,3;stroke-dashoffset:0;"/>
   </g>
   <g id="line2d_20">
    <path clip-path="url(#pba35c27d19)" style="fill:none;stroke:#424242;stroke-dasharray:1.5,1.5;stroke-dashoffset:0;"/>
   </g>
   <g id="line2d_21">
    <path clip-path="url(#pba35c27d19)" style="fill:none;stroke:#424242;stroke-dasharray:1.5,1.5;stroke-dashoffset:0;"/>
   </g>
   <g id="line2d_22">
    <path clip-path="url(#pba35c27d19)" style="fill:none;stroke:#424242;stroke-dasharray:3,3;stroke-dashoffset:0;"/>
   </g>
   <g id="line2d_23">
    <path clip-path="url(#pba35c27d19)" style="fill:none;stroke:#424242;stroke-dasharray:1.5,1.5;stroke-dashoffset:0;"/>
   </g>
   <g id="patch_88">
    <path style="fill:none;stroke:#000000;stroke-linecap:square;stroke-linejoin:miter;stroke-width:0.8;"/>
   </g>
   <g id="patch_89">
    <path style="fill:none;stroke:#000000;stroke-linecap:square;stroke-linejoin:miter;stroke-width:0.8;"/>
   </g>
  </g>
 </g>
 <defs>
  <clipPath id="p898a0018e0">
   <rect height="254.861667" width="254.861667" x="59.575" y="3.5"/>
  </clipPath>
  <clipPath id="pba35c27d19">
   <rect height="254.861667" width="254.861667" x="425.796667" y="3.5"/>
  </clipPath>
 </defs>
</svg>
