<?xml version="1.0" encoding="utf-8" standalone="no"?>
<!DOCTYPE svg PUBLIC "-//W3C//DTD SVG 1.1//EN"
  "http://www.w3.org/Graphics/SVG/1.1/DTD/svg11.dtd">
<!-- Created with matplotlib (https://matplotlib.org/) -->
<svg height="314.743333pt" version="1.1" viewBox="0 0 320.526817 314.743333" width="320.526817pt" xmlns="http://www.w3.org/2000/svg" xmlns:xlink="http://www.w3.org/1999/xlink">
 <defs>
  <style type="text/css">
*{stroke-linecap:butt;stroke-linejoin:round;}
  </style>
 </defs>
 <g id="figure_1">
  <g id="patch_1">
   <path d="M 0 314.743333 
L 320.526817 314.743333 
L 320.526817 0 
L 0 0 
z
" style="fill:#ffffff;"/>
  </g>
  <g id="axes_1">
   <g id="patch_2">
    <path d="M 59.43 252.843333 
L 309.753333 252.843333 
L 309.753333 2.52 
L 59.43 2.52 
z
" style="fill:#ffffff;"/>
   </g>
   <g id="patch_3">
    <path clip-path="url(#pb4b7e0d1e6)" d="M 70.808333 252.843333 
L 76.4975 252.843333 
L 76.4975 252.843333 
L 70.808333 252.843333 
z
" style="fill:#7570b3;opacity:0.6;stroke:#000000;stroke-linejoin:miter;stroke-width:0.5;"/>
   </g>
   <g id="patch_4">
    <path clip-path="url(#pb4b7e0d1e6)" d="M 76.4975 252.843333 
L 82.186667 252.843333 
L 82.186667 252.843333 
L 76.4975 252.843333 
z
" style="fill:#7570b3;opacity:0.6;stroke:#000000;stroke-linejoin:miter;stroke-width:0.5;"/>
   </g>
   <g id="patch_5">
    <path clip-path="url(#pb4b7e0d1e6)" d="M 82.186667 252.843333 
L 87.875833 252.843333 
L 87.875833 252.843333 
L 82.186667 252.843333 
z
" style="fill:#7570b3;opacity:0.6;stroke:#000000;stroke-linejoin:miter;stroke-width:0.5;"/>
   </g>
   <g id="patch_6">
    <path clip-path="url(#pb4b7e0d1e6)" d="M 87.875833 252.843333 
L 93.565 252.843333 
L 93.565 252.843333 
L 87.875833 252.843333 
z
" style="fill:#7570b3;opacity:0.6;stroke:#000000;stroke-linejoin:miter;stroke-width:0.5;"/>
   </g>
   <g id="patch_7">
    <path clip-path="url(#pb4b7e0d1e6)" d="M 93.565 252.843333 
L 99.254167 252.843333 
L 99.254167 252.843333 
L 93.565 252.843333 
z
" style="fill:#7570b3;opacity:0.6;stroke:#000000;stroke-linejoin:miter;stroke-width:0.5;"/>
   </g>
   <g id="patch_8">
    <path clip-path="url(#pb4b7e0d1e6)" d="M 99.254167 252.843333 
L 104.943333 252.843333 
L 104.943333 252.843333 
L 99.254167 252.843333 
z
" style="fill:#7570b3;opacity:0.6;stroke:#000000;stroke-linejoin:miter;stroke-width:0.5;"/>
   </g>
   <g id="patch_9">
    <path clip-path="url(#pb4b7e0d1e6)" d="M 104.943333 252.843333 
L 110.6325 252.843333 
L 110.6325 252.843333 
L 104.943333 252.843333 
z
" style="fill:#7570b3;opacity:0.6;stroke:#000000;stroke-linejoin:miter;stroke-width:0.5;"/>
   </g>
   <g id="patch_10">
    <path clip-path="url(#pb4b7e0d1e6)" d="M 110.6325 252.843333 
L 116.321667 252.843333 
L 116.321667 252.843333 
L 110.6325 252.843333 
z
" style="fill:#7570b3;opacity:0.6;stroke:#000000;stroke-linejoin:miter;stroke-width:0.5;"/>
   </g>
   <g id="patch_11">
    <path clip-path="url(#pb4b7e0d1e6)" d="M 116.321667 252.843333 
L 122.010833 252.843333 
L 122.010833 252.843333 
L 116.321667 252.843333 
z
" style="fill:#7570b3;opacity:0.6;stroke:#000000;stroke-linejoin:miter;stroke-width:0.5;"/>
   </g>
   <g id="patch_12">
    <path clip-path="url(#pb4b7e0d1e6)" d="M 122.010833 252.843333 
L 127.7 252.843333 
L 127.7 249.971006 
L 122.010833 249.971006 
z
" style="fill:#7570b3;opacity:0.6;stroke:#000000;stroke-linejoin:miter;stroke-width:0.5;"/>
   </g>
   <g id="patch_13">
    <path clip-path="url(#pb4b7e0d1e6)" d="M 127.7 252.843333 
L 133.389167 252.843333 
L 133.389167 252.843333 
L 127.7 252.843333 
z
" style="fill:#7570b3;opacity:0.6;stroke:#000000;stroke-linejoin:miter;stroke-width:0.5;"/>
   </g>
   <g id="patch_14">
    <path clip-path="url(#pb4b7e0d1e6)" d="M 133.389167 252.843333 
L 139.078333 252.843333 
L 139.078333 252.843333 
L 133.389167 252.843333 
z
" style="fill:#7570b3;opacity:0.6;stroke:#000000;stroke-linejoin:miter;stroke-width:0.5;"/>
   </g>
   <g id="patch_15">
    <path clip-path="url(#pb4b7e0d1e6)" d="M 139.078333 252.843333 
L 144.7675 252.843333 
L 144.7675 244.226351 
L 139.078333 244.226351 
z
" style="fill:#7570b3;opacity:0.6;stroke:#000000;stroke-linejoin:miter;stroke-width:0.5;"/>
   </g>
   <g id="patch_16">
    <path clip-path="url(#pb4b7e0d1e6)" d="M 144.7675 252.843333 
L 150.456667 252.843333 
L 150.456667 244.226351 
L 144.7675 244.226351 
z
" style="fill:#7570b3;opacity:0.6;stroke:#000000;stroke-linejoin:miter;stroke-width:0.5;"/>
   </g>
   <g id="patch_17">
    <path clip-path="url(#pb4b7e0d1e6)" d="M 150.456667 252.843333 
L 156.145833 252.843333 
L 156.145833 241.354024 
L 150.456667 241.354024 
z
" style="fill:#7570b3;opacity:0.6;stroke:#000000;stroke-linejoin:miter;stroke-width:0.5;"/>
   </g>
   <g id="patch_18">
    <path clip-path="url(#pb4b7e0d1e6)" d="M 156.145833 252.843333 
L 161.835 252.843333 
L 161.835 235.609369 
L 156.145833 235.609369 
z
" style="fill:#7570b3;opacity:0.6;stroke:#000000;stroke-linejoin:miter;stroke-width:0.5;"/>
   </g>
   <g id="patch_19">
    <path clip-path="url(#pb4b7e0d1e6)" d="M 161.835 252.843333 
L 167.524167 252.843333 
L 167.524167 244.226351 
L 161.835 244.226351 
z
" style="fill:#7570b3;opacity:0.6;stroke:#000000;stroke-linejoin:miter;stroke-width:0.5;"/>
   </g>
   <g id="patch_20">
    <path clip-path="url(#pb4b7e0d1e6)" d="M 167.524167 252.843333 
L 173.213333 252.843333 
L 173.213333 212.63075 
L 167.524167 212.63075 
z
" style="fill:#7570b3;opacity:0.6;stroke:#000000;stroke-linejoin:miter;stroke-width:0.5;"/>
   </g>
   <g id="patch_21">
    <path clip-path="url(#pb4b7e0d1e6)" d="M 173.213333 252.843333 
L 178.9025 252.843333 
L 178.9025 209.758422 
L 173.213333 209.758422 
z
" style="fill:#7570b3;opacity:0.6;stroke:#000000;stroke-linejoin:miter;stroke-width:0.5;"/>
   </g>
   <g id="patch_22">
    <path clip-path="url(#pb4b7e0d1e6)" d="M 178.9025 252.843333 
L 184.591667 252.843333 
L 184.591667 221.247732 
L 178.9025 221.247732 
z
" style="fill:#7570b3;opacity:0.6;stroke:#000000;stroke-linejoin:miter;stroke-width:0.5;"/>
   </g>
   <g id="patch_23">
    <path clip-path="url(#pb4b7e0d1e6)" d="M 184.591667 252.843333 
L 190.280833 252.843333 
L 190.280833 201.14144 
L 184.591667 201.14144 
z
" style="fill:#7570b3;opacity:0.6;stroke:#000000;stroke-linejoin:miter;stroke-width:0.5;"/>
   </g>
   <g id="patch_24">
    <path clip-path="url(#pb4b7e0d1e6)" d="M 190.280833 252.843333 
L 195.97 252.843333 
L 195.97 189.65213 
L 190.280833 189.65213 
z
" style="fill:#7570b3;opacity:0.6;stroke:#000000;stroke-linejoin:miter;stroke-width:0.5;"/>
   </g>
   <g id="patch_25">
    <path clip-path="url(#pb4b7e0d1e6)" d="M 195.97 252.843333 
L 201.659167 252.843333 
L 201.659167 126.460928 
L 195.97 126.460928 
z
" style="fill:#7570b3;opacity:0.6;stroke:#000000;stroke-linejoin:miter;stroke-width:0.5;"/>
   </g>
   <g id="patch_26">
    <path clip-path="url(#pb4b7e0d1e6)" d="M 201.659167 252.843333 
L 207.348333 252.843333 
L 207.348333 123.5886 
L 201.659167 123.5886 
z
" style="fill:#7570b3;opacity:0.6;stroke:#000000;stroke-linejoin:miter;stroke-width:0.5;"/>
   </g>
   <g id="patch_27">
    <path clip-path="url(#pb4b7e0d1e6)" d="M 207.348333 252.843333 
L 213.0375 252.843333 
L 213.0375 123.5886 
L 207.348333 123.5886 
z
" style="fill:#7570b3;opacity:0.6;stroke:#000000;stroke-linejoin:miter;stroke-width:0.5;"/>
   </g>
   <g id="patch_28">
    <path clip-path="url(#pb4b7e0d1e6)" d="M 213.0375 252.843333 
L 218.726667 252.843333 
L 218.726667 80.503689 
L 213.0375 80.503689 
z
" style="fill:#7570b3;opacity:0.6;stroke:#000000;stroke-linejoin:miter;stroke-width:0.5;"/>
   </g>
   <g id="patch_29">
    <path clip-path="url(#pb4b7e0d1e6)" d="M 218.726667 252.843333 
L 224.415833 252.843333 
L 224.415833 57.52507 
L 218.726667 57.52507 
z
" style="fill:#7570b3;opacity:0.6;stroke:#000000;stroke-linejoin:miter;stroke-width:0.5;"/>
   </g>
   <g id="patch_30">
    <path clip-path="url(#pb4b7e0d1e6)" d="M 224.415833 252.843333 
L 230.105 252.843333 
L 230.105 80.503689 
L 224.415833 80.503689 
z
" style="fill:#7570b3;opacity:0.6;stroke:#000000;stroke-linejoin:miter;stroke-width:0.5;"/>
   </g>
   <g id="patch_31">
    <path clip-path="url(#pb4b7e0d1e6)" d="M 230.105 252.843333 
L 235.794167 252.843333 
L 235.794167 34.546451 
L 230.105 34.546451 
z
" style="fill:#7570b3;opacity:0.6;stroke:#000000;stroke-linejoin:miter;stroke-width:0.5;"/>
   </g>
   <g id="patch_32">
    <path clip-path="url(#pb4b7e0d1e6)" d="M 235.794167 252.843333 
L 241.483333 252.843333 
L 241.483333 14.440159 
L 235.794167 14.440159 
z
" style="fill:#7570b3;opacity:0.6;stroke:#000000;stroke-linejoin:miter;stroke-width:0.5;"/>
   </g>
   <g id="patch_33">
    <path clip-path="url(#pb4b7e0d1e6)" d="M 241.483333 252.843333 
L 247.1725 252.843333 
L 247.1725 71.886707 
L 241.483333 71.886707 
z
" style="fill:#7570b3;opacity:0.6;stroke:#000000;stroke-linejoin:miter;stroke-width:0.5;"/>
   </g>
   <g id="patch_34">
    <path clip-path="url(#pb4b7e0d1e6)" d="M 247.1725 252.843333 
L 252.861667 252.843333 
L 252.861667 97.737653 
L 247.1725 97.737653 
z
" style="fill:#7570b3;opacity:0.6;stroke:#000000;stroke-linejoin:miter;stroke-width:0.5;"/>
   </g>
   <g id="patch_35">
    <path clip-path="url(#pb4b7e0d1e6)" d="M 252.861667 252.843333 
L 258.550833 252.843333 
L 258.550833 132.205582 
L 252.861667 132.205582 
z
" style="fill:#7570b3;opacity:0.6;stroke:#000000;stroke-linejoin:miter;stroke-width:0.5;"/>
   </g>
   <g id="patch_36">
    <path clip-path="url(#pb4b7e0d1e6)" d="M 258.550833 252.843333 
L 264.24 252.843333 
L 264.24 155.184202 
L 258.550833 155.184202 
z
" style="fill:#7570b3;opacity:0.6;stroke:#000000;stroke-linejoin:miter;stroke-width:0.5;"/>
   </g>
   <g id="patch_37">
    <path clip-path="url(#pb4b7e0d1e6)" d="M 264.24 252.843333 
L 269.929167 252.843333 
L 269.929167 206.886095 
L 264.24 206.886095 
z
" style="fill:#7570b3;opacity:0.6;stroke:#000000;stroke-linejoin:miter;stroke-width:0.5;"/>
   </g>
   <g id="patch_38">
    <path clip-path="url(#pb4b7e0d1e6)" d="M 269.929167 252.843333 
L 275.618333 252.843333 
L 275.618333 206.886095 
L 269.929167 206.886095 
z
" style="fill:#7570b3;opacity:0.6;stroke:#000000;stroke-linejoin:miter;stroke-width:0.5;"/>
   </g>
   <g id="patch_39">
    <path clip-path="url(#pb4b7e0d1e6)" d="M 275.618333 252.843333 
L 281.3075 252.843333 
L 281.3075 218.375404 
L 275.618333 218.375404 
z
" style="fill:#7570b3;opacity:0.6;stroke:#000000;stroke-linejoin:miter;stroke-width:0.5;"/>
   </g>
   <g id="patch_40">
    <path clip-path="url(#pb4b7e0d1e6)" d="M 281.3075 252.843333 
L 286.996667 252.843333 
L 286.996667 226.992387 
L 281.3075 226.992387 
z
" style="fill:#7570b3;opacity:0.6;stroke:#000000;stroke-linejoin:miter;stroke-width:0.5;"/>
   </g>
   <g id="patch_41">
    <path clip-path="url(#pb4b7e0d1e6)" d="M 286.996667 252.843333 
L 292.685833 252.843333 
L 292.685833 241.354024 
L 286.996667 241.354024 
z
" style="fill:#7570b3;opacity:0.6;stroke:#000000;stroke-linejoin:miter;stroke-width:0.5;"/>
   </g>
   <g id="patch_42">
    <path clip-path="url(#pb4b7e0d1e6)" d="M 292.685833 252.843333 
L 298.375 252.843333 
L 298.375 252.843333 
L 292.685833 252.843333 
z
" style="fill:#7570b3;opacity:0.6;stroke:#000000;stroke-linejoin:miter;stroke-width:0.5;"/>
   </g>
   <g id="patch_43">
    <path clip-path="url(#pb4b7e0d1e6)" d="M 70.808333 252.843333 
L 76.4975 252.843333 
L 76.4975 252.843333 
L 70.808333 252.843333 
z
" style="fill:#d95f02;opacity:0.6;stroke:#000000;stroke-linejoin:miter;stroke-width:0.5;"/>
   </g>
   <g id="patch_44">
    <path clip-path="url(#pb4b7e0d1e6)" d="M 76.4975 252.843333 
L 82.186667 252.843333 
L 82.186667 252.843333 
L 76.4975 252.843333 
z
" style="fill:#d95f02;opacity:0.6;stroke:#000000;stroke-linejoin:miter;stroke-width:0.5;"/>
   </g>
   <g id="patch_45">
    <path clip-path="url(#pb4b7e0d1e6)" d="M 82.186667 252.843333 
L 87.875833 252.843333 
L 87.875833 252.843333 
L 82.186667 252.843333 
z
" style="fill:#d95f02;opacity:0.6;stroke:#000000;stroke-linejoin:miter;stroke-width:0.5;"/>
   </g>
   <g id="patch_46">
    <path clip-path="url(#pb4b7e0d1e6)" d="M 87.875833 252.843333 
L 93.565 252.843333 
L 93.565 252.843333 
L 87.875833 252.843333 
z
" style="fill:#d95f02;opacity:0.6;stroke:#000000;stroke-linejoin:miter;stroke-width:0.5;"/>
   </g>
   <g id="patch_47">
    <path clip-path="url(#pb4b7e0d1e6)" d="M 93.565 252.843333 
L 99.254167 252.843333 
L 99.254167 252.843333 
L 93.565 252.843333 
z
" style="fill:#d95f02;opacity:0.6;stroke:#000000;stroke-linejoin:miter;stroke-width:0.5;"/>
   </g>
   <g id="patch_48">
    <path clip-path="url(#pb4b7e0d1e6)" d="M 99.254167 252.843333 
L 104.943333 252.843333 
L 104.943333 252.843333 
L 99.254167 252.843333 
z
" style="fill:#d95f02;opacity:0.6;stroke:#000000;stroke-linejoin:miter;stroke-width:0.5;"/>
   </g>
   <g id="patch_49">
    <path clip-path="url(#pb4b7e0d1e6)" d="M 104.943333 252.843333 
L 110.6325 252.843333 
L 110.6325 252.843333 
L 104.943333 252.843333 
z
" style="fill:#d95f02;opacity:0.6;stroke:#000000;stroke-linejoin:miter;stroke-width:0.5;"/>
   </g>
   <g id="patch_50">
    <path clip-path="url(#pb4b7e0d1e6)" d="M 110.6325 252.843333 
L 116.321667 252.843333 
L 116.321667 252.843333 
L 110.6325 252.843333 
z
" style="fill:#d95f02;opacity:0.6;stroke:#000000;stroke-linejoin:miter;stroke-width:0.5;"/>
   </g>
   <g id="patch_51">
    <path clip-path="url(#pb4b7e0d1e6)" d="M 116.321667 252.843333 
L 122.010833 252.843333 
L 122.010833 252.843333 
L 116.321667 252.843333 
z
" style="fill:#d95f02;opacity:0.6;stroke:#000000;stroke-linejoin:miter;stroke-width:0.5;"/>
   </g>
   <g id="patch_52">
    <path clip-path="url(#pb4b7e0d1e6)" d="M 122.010833 252.843333 
L 127.7 252.843333 
L 127.7 252.843333 
L 122.010833 252.843333 
z
" style="fill:#d95f02;opacity:0.6;stroke:#000000;stroke-linejoin:miter;stroke-width:0.5;"/>
   </g>
   <g id="patch_53">
    <path clip-path="url(#pb4b7e0d1e6)" d="M 127.7 252.843333 
L 133.389167 252.843333 
L 133.389167 250.173418 
L 127.7 250.173418 
z
" style="fill:#d95f02;opacity:0.6;stroke:#000000;stroke-linejoin:miter;stroke-width:0.5;"/>
   </g>
   <g id="patch_54">
    <path clip-path="url(#pb4b7e0d1e6)" d="M 133.389167 252.843333 
L 139.078333 252.843333 
L 139.078333 250.173418 
L 133.389167 250.173418 
z
" style="fill:#d95f02;opacity:0.6;stroke:#000000;stroke-linejoin:miter;stroke-width:0.5;"/>
   </g>
   <g id="patch_55">
    <path clip-path="url(#pb4b7e0d1e6)" d="M 139.078333 252.843333 
L 144.7675 252.843333 
L 144.7675 247.503503 
L 139.078333 247.503503 
z
" style="fill:#d95f02;opacity:0.6;stroke:#000000;stroke-linejoin:miter;stroke-width:0.5;"/>
   </g>
   <g id="patch_56">
    <path clip-path="url(#pb4b7e0d1e6)" d="M 144.7675 252.843333 
L 150.456667 252.843333 
L 150.456667 250.173418 
L 144.7675 250.173418 
z
" style="fill:#d95f02;opacity:0.6;stroke:#000000;stroke-linejoin:miter;stroke-width:0.5;"/>
   </g>
   <g id="patch_57">
    <path clip-path="url(#pb4b7e0d1e6)" d="M 150.456667 252.843333 
L 156.145833 252.843333 
L 156.145833 244.833588 
L 150.456667 244.833588 
z
" style="fill:#d95f02;opacity:0.6;stroke:#000000;stroke-linejoin:miter;stroke-width:0.5;"/>
   </g>
   <g id="patch_58">
    <path clip-path="url(#pb4b7e0d1e6)" d="M 156.145833 252.843333 
L 161.835 252.843333 
L 161.835 244.833588 
L 156.145833 244.833588 
z
" style="fill:#d95f02;opacity:0.6;stroke:#000000;stroke-linejoin:miter;stroke-width:0.5;"/>
   </g>
   <g id="patch_59">
    <path clip-path="url(#pb4b7e0d1e6)" d="M 161.835 252.843333 
L 167.524167 252.843333 
L 167.524167 244.833588 
L 161.835 244.833588 
z
" style="fill:#d95f02;opacity:0.6;stroke:#000000;stroke-linejoin:miter;stroke-width:0.5;"/>
   </g>
   <g id="patch_60">
    <path clip-path="url(#pb4b7e0d1e6)" d="M 167.524167 252.843333 
L 173.213333 252.843333 
L 173.213333 234.153928 
L 167.524167 234.153928 
z
" style="fill:#d95f02;opacity:0.6;stroke:#000000;stroke-linejoin:miter;stroke-width:0.5;"/>
   </g>
   <g id="patch_61">
    <path clip-path="url(#pb4b7e0d1e6)" d="M 173.213333 252.843333 
L 178.9025 252.843333 
L 178.9025 226.144183 
L 173.213333 226.144183 
z
" style="fill:#d95f02;opacity:0.6;stroke:#000000;stroke-linejoin:miter;stroke-width:0.5;"/>
   </g>
   <g id="patch_62">
    <path clip-path="url(#pb4b7e0d1e6)" d="M 178.9025 252.843333 
L 184.591667 252.843333 
L 184.591667 231.484013 
L 178.9025 231.484013 
z
" style="fill:#d95f02;opacity:0.6;stroke:#000000;stroke-linejoin:miter;stroke-width:0.5;"/>
   </g>
   <g id="patch_63">
    <path clip-path="url(#pb4b7e0d1e6)" d="M 184.591667 252.843333 
L 190.280833 252.843333 
L 190.280833 223.474268 
L 184.591667 223.474268 
z
" style="fill:#d95f02;opacity:0.6;stroke:#000000;stroke-linejoin:miter;stroke-width:0.5;"/>
   </g>
   <g id="patch_64">
    <path clip-path="url(#pb4b7e0d1e6)" d="M 190.280833 252.843333 
L 195.97 252.843333 
L 195.97 202.114947 
L 190.280833 202.114947 
z
" style="fill:#d95f02;opacity:0.6;stroke:#000000;stroke-linejoin:miter;stroke-width:0.5;"/>
   </g>
   <g id="patch_65">
    <path clip-path="url(#pb4b7e0d1e6)" d="M 195.97 252.843333 
L 201.659167 252.843333 
L 201.659167 183.425541 
L 195.97 183.425541 
z
" style="fill:#d95f02;opacity:0.6;stroke:#000000;stroke-linejoin:miter;stroke-width:0.5;"/>
   </g>
   <g id="patch_66">
    <path clip-path="url(#pb4b7e0d1e6)" d="M 201.659167 252.843333 
L 207.348333 252.843333 
L 207.348333 175.415796 
L 201.659167 175.415796 
z
" style="fill:#d95f02;opacity:0.6;stroke:#000000;stroke-linejoin:miter;stroke-width:0.5;"/>
   </g>
   <g id="patch_67">
    <path clip-path="url(#pb4b7e0d1e6)" d="M 207.348333 252.843333 
L 213.0375 252.843333 
L 213.0375 97.988259 
L 207.348333 97.988259 
z
" style="fill:#d95f02;opacity:0.6;stroke:#000000;stroke-linejoin:miter;stroke-width:0.5;"/>
   </g>
   <g id="patch_68">
    <path clip-path="url(#pb4b7e0d1e6)" d="M 213.0375 252.843333 
L 218.726667 252.843333 
L 218.726667 103.328089 
L 213.0375 103.328089 
z
" style="fill:#d95f02;opacity:0.6;stroke:#000000;stroke-linejoin:miter;stroke-width:0.5;"/>
   </g>
   <g id="patch_69">
    <path clip-path="url(#pb4b7e0d1e6)" d="M 218.726667 252.843333 
L 224.415833 252.843333 
L 224.415833 81.968769 
L 218.726667 81.968769 
z
" style="fill:#d95f02;opacity:0.6;stroke:#000000;stroke-linejoin:miter;stroke-width:0.5;"/>
   </g>
   <g id="patch_70">
    <path clip-path="url(#pb4b7e0d1e6)" d="M 224.415833 252.843333 
L 230.105 252.843333 
L 230.105 52.599703 
L 224.415833 52.599703 
z
" style="fill:#d95f02;opacity:0.6;stroke:#000000;stroke-linejoin:miter;stroke-width:0.5;"/>
   </g>
   <g id="patch_71">
    <path clip-path="url(#pb4b7e0d1e6)" d="M 230.105 252.843333 
L 235.794167 252.843333 
L 235.794167 33.910298 
L 230.105 33.910298 
z
" style="fill:#d95f02;opacity:0.6;stroke:#000000;stroke-linejoin:miter;stroke-width:0.5;"/>
   </g>
   <g id="patch_72">
    <path clip-path="url(#pb4b7e0d1e6)" d="M 235.794167 252.843333 
L 241.483333 252.843333 
L 241.483333 33.910298 
L 235.794167 33.910298 
z
" style="fill:#d95f02;opacity:0.6;stroke:#000000;stroke-linejoin:miter;stroke-width:0.5;"/>
   </g>
   <g id="patch_73">
    <path clip-path="url(#pb4b7e0d1e6)" d="M 241.483333 252.843333 
L 247.1725 252.843333 
L 247.1725 65.949278 
L 241.483333 65.949278 
z
" style="fill:#d95f02;opacity:0.6;stroke:#000000;stroke-linejoin:miter;stroke-width:0.5;"/>
   </g>
   <g id="patch_74">
    <path clip-path="url(#pb4b7e0d1e6)" d="M 247.1725 252.843333 
L 252.861667 252.843333 
L 252.861667 65.949278 
L 247.1725 65.949278 
z
" style="fill:#d95f02;opacity:0.6;stroke:#000000;stroke-linejoin:miter;stroke-width:0.5;"/>
   </g>
   <g id="patch_75">
    <path clip-path="url(#pb4b7e0d1e6)" d="M 252.861667 252.843333 
L 258.550833 252.843333 
L 258.550833 100.658174 
L 252.861667 100.658174 
z
" style="fill:#d95f02;opacity:0.6;stroke:#000000;stroke-linejoin:miter;stroke-width:0.5;"/>
   </g>
   <g id="patch_76">
    <path clip-path="url(#pb4b7e0d1e6)" d="M 258.550833 252.843333 
L 264.24 252.843333 
L 264.24 167.406051 
L 258.550833 167.406051 
z
" style="fill:#d95f02;opacity:0.6;stroke:#000000;stroke-linejoin:miter;stroke-width:0.5;"/>
   </g>
   <g id="patch_77">
    <path clip-path="url(#pb4b7e0d1e6)" d="M 264.24 252.843333 
L 269.929167 252.843333 
L 269.929167 124.68741 
L 264.24 124.68741 
z
" style="fill:#d95f02;opacity:0.6;stroke:#000000;stroke-linejoin:miter;stroke-width:0.5;"/>
   </g>
   <g id="patch_78">
    <path clip-path="url(#pb4b7e0d1e6)" d="M 269.929167 252.843333 
L 275.618333 252.843333 
L 275.618333 186.095457 
L 269.929167 186.095457 
z
" style="fill:#d95f02;opacity:0.6;stroke:#000000;stroke-linejoin:miter;stroke-width:0.5;"/>
   </g>
   <g id="patch_79">
    <path clip-path="url(#pb4b7e0d1e6)" d="M 275.618333 252.843333 
L 281.3075 252.843333 
L 281.3075 170.075966 
L 275.618333 170.075966 
z
" style="fill:#d95f02;opacity:0.6;stroke:#000000;stroke-linejoin:miter;stroke-width:0.5;"/>
   </g>
   <g id="patch_80">
    <path clip-path="url(#pb4b7e0d1e6)" d="M 281.3075 252.843333 
L 286.996667 252.843333 
L 286.996667 215.464522 
L 281.3075 215.464522 
z
" style="fill:#d95f02;opacity:0.6;stroke:#000000;stroke-linejoin:miter;stroke-width:0.5;"/>
   </g>
   <g id="patch_81">
    <path clip-path="url(#pb4b7e0d1e6)" d="M 286.996667 252.843333 
L 292.685833 252.843333 
L 292.685833 236.823843 
L 286.996667 236.823843 
z
" style="fill:#d95f02;opacity:0.6;stroke:#000000;stroke-linejoin:miter;stroke-width:0.5;"/>
   </g>
   <g id="patch_82">
    <path clip-path="url(#pb4b7e0d1e6)" d="M 292.685833 252.843333 
L 298.375 252.843333 
L 298.375 252.843333 
L 292.685833 252.843333 
z
" style="fill:#d95f02;opacity:0.6;stroke:#000000;stroke-linejoin:miter;stroke-width:0.5;"/>
   </g>
   <g id="matplotlib.axis_1">
    <g id="xtick_1">
     <g id="line2d_1">
      <defs>
       <path d="M 0 0 
L 0 3.5 
" id="m3ddac9a930" style="stroke:#000000;stroke-width:1.6;"/>
      </defs>
      <g>
       <use style="stroke:#000000;stroke-width:1.6;" x="70.808333" xlink:href="#m3ddac9a930" y="252.843333"/>
      </g>
     </g>
     <g id="text_1">
      <!-- 0.0 -->
      <defs>
       <path d="M 31.78125 66.40625 
Q 24.171875 66.40625 20.328125 58.90625 
Q 16.5 51.421875 16.5 36.375 
Q 16.5 21.390625 20.328125 13.890625 
Q 24.171875 6.390625 31.78125 6.390625 
Q 39.453125 6.390625 43.28125 13.890625 
Q 47.125 21.390625 47.125 36.375 
Q 47.125 51.421875 43.28125 58.90625 
Q 39.453125 66.40625 31.78125 66.40625 
z
M 31.78125 74.21875 
Q 44.046875 74.21875 50.515625 64.515625 
Q 56.984375 54.828125 56.984375 36.375 
Q 56.984375 17.96875 50.515625 8.265625 
Q 44.046875 -1.421875 31.78125 -1.421875 
Q 19.53125 -1.421875 13.0625 8.265625 
Q 6.59375 17.96875 6.59375 36.375 
Q 6.59375 54.828125 13.0625 64.515625 
Q 19.53125 74.21875 31.78125 74.21875 
z
" id="DejaVuSans-48"/>
       <path d="M 10.6875 12.40625 
L 21 12.40625 
L 21 0 
L 10.6875 0 
z
" id="DejaVuSans-46"/>
      </defs>
      <g transform="translate(54.905208 282.740208)scale(0.2 -0.2)">
       <use xlink:href="#DejaVuSans-48"/>
       <use x="63.623047" xlink:href="#DejaVuSans-46"/>
       <use x="95.410156" xlink:href="#DejaVuSans-48"/>
      </g>
     </g>
    </g>
    <g id="xtick_2">
     <g id="line2d_2">
      <g>
       <use style="stroke:#000000;stroke-width:1.6;" x="135.827381" xlink:href="#m3ddac9a930" y="252.843333"/>
      </g>
     </g>
     <g id="text_2">
      <!-- 0.2 -->
      <defs>
       <path d="M 19.1875 8.296875 
L 53.609375 8.296875 
L 53.609375 0 
L 7.328125 0 
L 7.328125 8.296875 
Q 12.9375 14.109375 22.625 23.890625 
Q 32.328125 33.6875 34.8125 36.53125 
Q 39.546875 41.84375 41.421875 45.53125 
Q 43.3125 49.21875 43.3125 52.78125 
Q 43.3125 58.59375 39.234375 62.25 
Q 35.15625 65.921875 28.609375 65.921875 
Q 23.96875 65.921875 18.8125 64.3125 
Q 13.671875 62.703125 7.8125 59.421875 
L 7.8125 69.390625 
Q 13.765625 71.78125 18.9375 73 
Q 24.125 74.21875 28.421875 74.21875 
Q 39.75 74.21875 46.484375 68.546875 
Q 53.21875 62.890625 53.21875 53.421875 
Q 53.21875 48.921875 51.53125 44.890625 
Q 49.859375 40.875 45.40625 35.40625 
Q 44.1875 33.984375 37.640625 27.21875 
Q 31.109375 20.453125 19.1875 8.296875 
z
" id="DejaVuSans-50"/>
      </defs>
      <g transform="translate(119.924256 282.740208)scale(0.2 -0.2)">
       <use xlink:href="#DejaVuSans-48"/>
       <use x="63.623047" xlink:href="#DejaVuSans-46"/>
       <use x="95.410156" xlink:href="#DejaVuSans-50"/>
      </g>
     </g>
    </g>
    <g id="xtick_3">
     <g id="line2d_3">
      <g>
       <use style="stroke:#000000;stroke-width:1.6;" x="200.846429" xlink:href="#m3ddac9a930" y="252.843333"/>
      </g>
     </g>
     <g id="text_3">
      <!-- 0.4 -->
      <defs>
       <path d="M 37.796875 64.3125 
L 12.890625 25.390625 
L 37.796875 25.390625 
z
M 35.203125 72.90625 
L 47.609375 72.90625 
L 47.609375 25.390625 
L 58.015625 25.390625 
L 58.015625 17.1875 
L 47.609375 17.1875 
L 47.609375 0 
L 37.796875 0 
L 37.796875 17.1875 
L 4.890625 17.1875 
L 4.890625 26.703125 
z
" id="DejaVuSans-52"/>
      </defs>
      <g transform="translate(184.943304 282.740208)scale(0.2 -0.2)">
       <use xlink:href="#DejaVuSans-48"/>
       <use x="63.623047" xlink:href="#DejaVuSans-46"/>
       <use x="95.410156" xlink:href="#DejaVuSans-52"/>
      </g>
     </g>
    </g>
    <g id="xtick_4">
     <g id="line2d_4">
      <g>
       <use style="stroke:#000000;stroke-width:1.6;" x="265.865476" xlink:href="#m3ddac9a930" y="252.843333"/>
      </g>
     </g>
     <g id="text_4">
      <!-- 0.6 -->
      <defs>
       <path d="M 33.015625 40.375 
Q 26.375 40.375 22.484375 35.828125 
Q 18.609375 31.296875 18.609375 23.390625 
Q 18.609375 15.53125 22.484375 10.953125 
Q 26.375 6.390625 33.015625 6.390625 
Q 39.65625 6.390625 43.53125 10.953125 
Q 47.40625 15.53125 47.40625 23.390625 
Q 47.40625 31.296875 43.53125 35.828125 
Q 39.65625 40.375 33.015625 40.375 
z
M 52.59375 71.296875 
L 52.59375 62.3125 
Q 48.875 64.0625 45.09375 64.984375 
Q 41.3125 65.921875 37.59375 65.921875 
Q 27.828125 65.921875 22.671875 59.328125 
Q 17.53125 52.734375 16.796875 39.40625 
Q 19.671875 43.65625 24.015625 45.921875 
Q 28.375 48.1875 33.59375 48.1875 
Q 44.578125 48.1875 50.953125 41.515625 
Q 57.328125 34.859375 57.328125 23.390625 
Q 57.328125 12.15625 50.6875 5.359375 
Q 44.046875 -1.421875 33.015625 -1.421875 
Q 20.359375 -1.421875 13.671875 8.265625 
Q 6.984375 17.96875 6.984375 36.375 
Q 6.984375 53.65625 15.1875 63.9375 
Q 23.390625 74.21875 37.203125 74.21875 
Q 40.921875 74.21875 44.703125 73.484375 
Q 48.484375 72.75 52.59375 71.296875 
z
" id="DejaVuSans-54"/>
      </defs>
      <g transform="translate(249.962351 282.740208)scale(0.2 -0.2)">
       <use xlink:href="#DejaVuSans-48"/>
       <use x="63.623047" xlink:href="#DejaVuSans-46"/>
       <use x="95.410156" xlink:href="#DejaVuSans-54"/>
      </g>
     </g>
    </g>
    <g id="text_5">
     <!-- Max JS Divergence within $\epsilon$ -->
     <defs>
      <path d="M 9.8125 72.90625 
L 24.515625 72.90625 
L 43.109375 23.296875 
L 61.8125 72.90625 
L 76.515625 72.90625 
L 76.515625 0 
L 66.890625 0 
L 66.890625 64.015625 
L 48.09375 14.015625 
L 38.1875 14.015625 
L 19.390625 64.015625 
L 19.390625 0 
L 9.8125 0 
z
" id="DejaVuSans-77"/>
      <path d="M 34.28125 27.484375 
Q 23.390625 27.484375 19.1875 25 
Q 14.984375 22.515625 14.984375 16.5 
Q 14.984375 11.71875 18.140625 8.90625 
Q 21.296875 6.109375 26.703125 6.109375 
Q 34.1875 6.109375 38.703125 11.40625 
Q 43.21875 16.703125 43.21875 25.484375 
L 43.21875 27.484375 
z
M 52.203125 31.203125 
L 52.203125 0 
L 43.21875 0 
L 43.21875 8.296875 
Q 40.140625 3.328125 35.546875 0.953125 
Q 30.953125 -1.421875 24.3125 -1.421875 
Q 15.921875 -1.421875 10.953125 3.296875 
Q 6 8.015625 6 15.921875 
Q 6 25.140625 12.171875 29.828125 
Q 18.359375 34.515625 30.609375 34.515625 
L 43.21875 34.515625 
L 43.21875 35.40625 
Q 43.21875 41.609375 39.140625 45 
Q 35.0625 48.390625 27.6875 48.390625 
Q 23 48.390625 18.546875 47.265625 
Q 14.109375 46.140625 10.015625 43.890625 
L 10.015625 52.203125 
Q 14.9375 54.109375 19.578125 55.046875 
Q 24.21875 56 28.609375 56 
Q 40.484375 56 46.34375 49.84375 
Q 52.203125 43.703125 52.203125 31.203125 
z
" id="DejaVuSans-97"/>
      <path d="M 54.890625 54.6875 
L 35.109375 28.078125 
L 55.90625 0 
L 45.3125 0 
L 29.390625 21.484375 
L 13.484375 0 
L 2.875 0 
L 24.125 28.609375 
L 4.6875 54.6875 
L 15.28125 54.6875 
L 29.78125 35.203125 
L 44.28125 54.6875 
z
" id="DejaVuSans-120"/>
      <path id="DejaVuSans-32"/>
      <path d="M 9.8125 72.90625 
L 19.671875 72.90625 
L 19.671875 5.078125 
Q 19.671875 -8.109375 14.671875 -14.0625 
Q 9.671875 -20.015625 -1.421875 -20.015625 
L -5.171875 -20.015625 
L -5.171875 -11.71875 
L -2.09375 -11.71875 
Q 4.4375 -11.71875 7.125 -8.046875 
Q 9.8125 -4.390625 9.8125 5.078125 
z
" id="DejaVuSans-74"/>
      <path d="M 53.515625 70.515625 
L 53.515625 60.890625 
Q 47.90625 63.578125 42.921875 64.890625 
Q 37.9375 66.21875 33.296875 66.21875 
Q 25.25 66.21875 20.875 63.09375 
Q 16.5 59.96875 16.5 54.203125 
Q 16.5 49.359375 19.40625 46.890625 
Q 22.3125 44.4375 30.421875 42.921875 
L 36.375 41.703125 
Q 47.40625 39.59375 52.65625 34.296875 
Q 57.90625 29 57.90625 20.125 
Q 57.90625 9.515625 50.796875 4.046875 
Q 43.703125 -1.421875 29.984375 -1.421875 
Q 24.8125 -1.421875 18.96875 -0.25 
Q 13.140625 0.921875 6.890625 3.21875 
L 6.890625 13.375 
Q 12.890625 10.015625 18.65625 8.296875 
Q 24.421875 6.59375 29.984375 6.59375 
Q 38.421875 6.59375 43.015625 9.90625 
Q 47.609375 13.234375 47.609375 19.390625 
Q 47.609375 24.75 44.3125 27.78125 
Q 41.015625 30.8125 33.5 32.328125 
L 27.484375 33.5 
Q 16.453125 35.6875 11.515625 40.375 
Q 6.59375 45.0625 6.59375 53.421875 
Q 6.59375 63.09375 13.40625 68.65625 
Q 20.21875 74.21875 32.171875 74.21875 
Q 37.3125 74.21875 42.625 73.28125 
Q 47.953125 72.359375 53.515625 70.515625 
z
" id="DejaVuSans-83"/>
      <path d="M 19.671875 64.796875 
L 19.671875 8.109375 
L 31.59375 8.109375 
Q 46.6875 8.109375 53.6875 14.9375 
Q 60.6875 21.78125 60.6875 36.53125 
Q 60.6875 51.171875 53.6875 57.984375 
Q 46.6875 64.796875 31.59375 64.796875 
z
M 9.8125 72.90625 
L 30.078125 72.90625 
Q 51.265625 72.90625 61.171875 64.09375 
Q 71.09375 55.28125 71.09375 36.53125 
Q 71.09375 17.671875 61.125 8.828125 
Q 51.171875 0 30.078125 0 
L 9.8125 0 
z
" id="DejaVuSans-68"/>
      <path d="M 9.421875 54.6875 
L 18.40625 54.6875 
L 18.40625 0 
L 9.421875 0 
z
M 9.421875 75.984375 
L 18.40625 75.984375 
L 18.40625 64.59375 
L 9.421875 64.59375 
z
" id="DejaVuSans-105"/>
      <path d="M 2.984375 54.6875 
L 12.5 54.6875 
L 29.59375 8.796875 
L 46.6875 54.6875 
L 56.203125 54.6875 
L 35.6875 0 
L 23.484375 0 
z
" id="DejaVuSans-118"/>
      <path d="M 56.203125 29.59375 
L 56.203125 25.203125 
L 14.890625 25.203125 
Q 15.484375 15.921875 20.484375 11.0625 
Q 25.484375 6.203125 34.421875 6.203125 
Q 39.59375 6.203125 44.453125 7.46875 
Q 49.3125 8.734375 54.109375 11.28125 
L 54.109375 2.78125 
Q 49.265625 0.734375 44.1875 -0.34375 
Q 39.109375 -1.421875 33.890625 -1.421875 
Q 20.796875 -1.421875 13.15625 6.1875 
Q 5.515625 13.8125 5.515625 26.8125 
Q 5.515625 40.234375 12.765625 48.109375 
Q 20.015625 56 32.328125 56 
Q 43.359375 56 49.78125 48.890625 
Q 56.203125 41.796875 56.203125 29.59375 
z
M 47.21875 32.234375 
Q 47.125 39.59375 43.09375 43.984375 
Q 39.0625 48.390625 32.421875 48.390625 
Q 24.90625 48.390625 20.390625 44.140625 
Q 15.875 39.890625 15.1875 32.171875 
z
" id="DejaVuSans-101"/>
      <path d="M 41.109375 46.296875 
Q 39.59375 47.171875 37.8125 47.578125 
Q 36.03125 48 33.890625 48 
Q 26.265625 48 22.1875 43.046875 
Q 18.109375 38.09375 18.109375 28.8125 
L 18.109375 0 
L 9.078125 0 
L 9.078125 54.6875 
L 18.109375 54.6875 
L 18.109375 46.1875 
Q 20.953125 51.171875 25.484375 53.578125 
Q 30.03125 56 36.53125 56 
Q 37.453125 56 38.578125 55.875 
Q 39.703125 55.765625 41.0625 55.515625 
z
" id="DejaVuSans-114"/>
      <path d="M 45.40625 27.984375 
Q 45.40625 37.75 41.375 43.109375 
Q 37.359375 48.484375 30.078125 48.484375 
Q 22.859375 48.484375 18.828125 43.109375 
Q 14.796875 37.75 14.796875 27.984375 
Q 14.796875 18.265625 18.828125 12.890625 
Q 22.859375 7.515625 30.078125 7.515625 
Q 37.359375 7.515625 41.375 12.890625 
Q 45.40625 18.265625 45.40625 27.984375 
z
M 54.390625 6.78125 
Q 54.390625 -7.171875 48.1875 -13.984375 
Q 42 -20.796875 29.203125 -20.796875 
Q 24.46875 -20.796875 20.265625 -20.09375 
Q 16.0625 -19.390625 12.109375 -17.921875 
L 12.109375 -9.1875 
Q 16.0625 -11.328125 19.921875 -12.34375 
Q 23.78125 -13.375 27.78125 -13.375 
Q 36.625 -13.375 41.015625 -8.765625 
Q 45.40625 -4.15625 45.40625 5.171875 
L 45.40625 9.625 
Q 42.625 4.78125 38.28125 2.390625 
Q 33.9375 0 27.875 0 
Q 17.828125 0 11.671875 7.65625 
Q 5.515625 15.328125 5.515625 27.984375 
Q 5.515625 40.671875 11.671875 48.328125 
Q 17.828125 56 27.875 56 
Q 33.9375 56 38.28125 53.609375 
Q 42.625 51.21875 45.40625 46.390625 
L 45.40625 54.6875 
L 54.390625 54.6875 
z
" id="DejaVuSans-103"/>
      <path d="M 54.890625 33.015625 
L 54.890625 0 
L 45.90625 0 
L 45.90625 32.71875 
Q 45.90625 40.484375 42.875 44.328125 
Q 39.84375 48.1875 33.796875 48.1875 
Q 26.515625 48.1875 22.3125 43.546875 
Q 18.109375 38.921875 18.109375 30.90625 
L 18.109375 0 
L 9.078125 0 
L 9.078125 54.6875 
L 18.109375 54.6875 
L 18.109375 46.1875 
Q 21.34375 51.125 25.703125 53.5625 
Q 30.078125 56 35.796875 56 
Q 45.21875 56 50.046875 50.171875 
Q 54.890625 44.34375 54.890625 33.015625 
z
" id="DejaVuSans-110"/>
      <path d="M 48.78125 52.59375 
L 48.78125 44.1875 
Q 44.96875 46.296875 41.140625 47.34375 
Q 37.3125 48.390625 33.40625 48.390625 
Q 24.65625 48.390625 19.8125 42.84375 
Q 14.984375 37.3125 14.984375 27.296875 
Q 14.984375 17.28125 19.8125 11.734375 
Q 24.65625 6.203125 33.40625 6.203125 
Q 37.3125 6.203125 41.140625 7.25 
Q 44.96875 8.296875 48.78125 10.40625 
L 48.78125 2.09375 
Q 45.015625 0.34375 40.984375 -0.53125 
Q 36.96875 -1.421875 32.421875 -1.421875 
Q 20.0625 -1.421875 12.78125 6.34375 
Q 5.515625 14.109375 5.515625 27.296875 
Q 5.515625 40.671875 12.859375 48.328125 
Q 20.21875 56 33.015625 56 
Q 37.15625 56 41.109375 55.140625 
Q 45.0625 54.296875 48.78125 52.59375 
z
" id="DejaVuSans-99"/>
      <path d="M 4.203125 54.6875 
L 13.1875 54.6875 
L 24.421875 12.015625 
L 35.59375 54.6875 
L 46.1875 54.6875 
L 57.421875 12.015625 
L 68.609375 54.6875 
L 77.59375 54.6875 
L 63.28125 0 
L 52.6875 0 
L 40.921875 44.828125 
L 29.109375 0 
L 18.5 0 
z
" id="DejaVuSans-119"/>
      <path d="M 18.3125 70.21875 
L 18.3125 54.6875 
L 36.8125 54.6875 
L 36.8125 47.703125 
L 18.3125 47.703125 
L 18.3125 18.015625 
Q 18.3125 11.328125 20.140625 9.421875 
Q 21.96875 7.515625 27.59375 7.515625 
L 36.8125 7.515625 
L 36.8125 0 
L 27.59375 0 
Q 17.1875 0 13.234375 3.875 
Q 9.28125 7.765625 9.28125 18.015625 
L 9.28125 47.703125 
L 2.6875 47.703125 
L 2.6875 54.6875 
L 9.28125 54.6875 
L 9.28125 70.21875 
z
" id="DejaVuSans-116"/>
      <path d="M 54.890625 33.015625 
L 54.890625 0 
L 45.90625 0 
L 45.90625 32.71875 
Q 45.90625 40.484375 42.875 44.328125 
Q 39.84375 48.1875 33.796875 48.1875 
Q 26.515625 48.1875 22.3125 43.546875 
Q 18.109375 38.921875 18.109375 30.90625 
L 18.109375 0 
L 9.078125 0 
L 9.078125 75.984375 
L 18.109375 75.984375 
L 18.109375 46.1875 
Q 21.34375 51.125 25.703125 53.5625 
Q 30.078125 56 35.796875 56 
Q 45.21875 56 50.046875 50.171875 
Q 54.890625 44.34375 54.890625 33.015625 
z
" id="DejaVuSans-104"/>
      <path d="M 19.734375 29.5 
Q 14.453125 30.671875 12.15625 33.84375 
Q 10.453125 36.078125 10.453125 39.109375 
Q 10.453125 47.40625 18.359375 52.25 
Q 24.609375 56.0625 34.1875 56.0625 
Q 37.890625 56.0625 41.9375 55.46875 
Q 46 54.890625 50.53125 53.71875 
L 48.96875 45.5625 
Q 44.484375 46.96875 40.71875 47.609375 
Q 36.859375 48.25 33.40625 48.25 
Q 27.59375 48.25 23.78125 46 
Q 19.1875 43.3125 19.1875 39.40625 
Q 19.1875 36.8125 21.578125 35.015625 
Q 24.421875 32.859375 30.078125 32.859375 
L 37.640625 32.859375 
L 36.234375 25.4375 
L 29 25.4375 
Q 22.265625 25.4375 18.3125 22.953125 
Q 12.9375 19.578125 12.9375 14.3125 
Q 12.9375 10.984375 15.828125 8.796875 
Q 19.4375 6.0625 26.8125 6.0625 
Q 31.34375 6.0625 35.6875 6.9375 
Q 40.046875 7.859375 43.84375 9.671875 
L 42.1875 1.3125 
Q 37.546875 -0.046875 33.296875 -0.734375 
Q 29.046875 -1.421875 25.140625 -1.421875 
Q 13.53125 -1.421875 8.0625 3.03125 
Q 3.90625 6.453125 3.90625 12.203125 
Q 3.90625 19.96875 9.375 24.75 
Q 13.421875 28.328125 19.734375 29.5 
z
" id="DejaVuSans-Oblique-949"/>
     </defs>
     <g transform="translate(48.991667 306.099583)scale(0.2 -0.2)">
      <use transform="translate(0 0.015625)" xlink:href="#DejaVuSans-77"/>
      <use transform="translate(86.279297 0.015625)" xlink:href="#DejaVuSans-97"/>
      <use transform="translate(147.558594 0.015625)" xlink:href="#DejaVuSans-120"/>
      <use transform="translate(206.738281 0.015625)" xlink:href="#DejaVuSans-32"/>
      <use transform="translate(238.525391 0.015625)" xlink:href="#DejaVuSans-74"/>
      <use transform="translate(268.017578 0.015625)" xlink:href="#DejaVuSans-83"/>
      <use transform="translate(331.494141 0.015625)" xlink:href="#DejaVuSans-32"/>
      <use transform="translate(363.28125 0.015625)" xlink:href="#DejaVuSans-68"/>
      <use transform="translate(440.283203 0.015625)" xlink:href="#DejaVuSans-105"/>
      <use transform="translate(468.066406 0.015625)" xlink:href="#DejaVuSans-118"/>
      <use transform="translate(527.246094 0.015625)" xlink:href="#DejaVuSans-101"/>
      <use transform="translate(588.769531 0.015625)" xlink:href="#DejaVuSans-114"/>
      <use transform="translate(629.882812 0.015625)" xlink:href="#DejaVuSans-103"/>
      <use transform="translate(693.359375 0.015625)" xlink:href="#DejaVuSans-101"/>
      <use transform="translate(754.882812 0.015625)" xlink:href="#DejaVuSans-110"/>
      <use transform="translate(818.261719 0.015625)" xlink:href="#DejaVuSans-99"/>
      <use transform="translate(873.242188 0.015625)" xlink:href="#DejaVuSans-101"/>
      <use transform="translate(934.765625 0.015625)" xlink:href="#DejaVuSans-32"/>
      <use transform="translate(966.552734 0.015625)" xlink:href="#DejaVuSans-119"/>
      <use transform="translate(1048.339844 0.015625)" xlink:href="#DejaVuSans-105"/>
      <use transform="translate(1076.123047 0.015625)" xlink:href="#DejaVuSans-116"/>
      <use transform="translate(1115.332031 0.015625)" xlink:href="#DejaVuSans-104"/>
      <use transform="translate(1178.710938 0.015625)" xlink:href="#DejaVuSans-105"/>
      <use transform="translate(1206.494141 0.015625)" xlink:href="#DejaVuSans-110"/>
      <use transform="translate(1269.873047 0.015625)" xlink:href="#DejaVuSans-32"/>
      <use transform="translate(1301.660156 0.015625)" xlink:href="#DejaVuSans-Oblique-949"/>
     </g>
    </g>
   </g>
   <g id="matplotlib.axis_2">
    <g id="ytick_1">
     <g id="line2d_5">
      <defs>
       <path d="M 0 0 
L -3.5 0 
" id="m98bc0b50af" style="stroke:#000000;stroke-width:1.6;"/>
      </defs>
      <g>
       <use style="stroke:#000000;stroke-width:1.6;" x="59.43" xlink:href="#m98bc0b50af" y="252.843333"/>
      </g>
     </g>
     <g id="text_6">
      <!-- 0.00 -->
      <g transform="translate(0.19875 260.441771)scale(0.2 -0.2)">
       <use xlink:href="#DejaVuSans-48"/>
       <use x="63.623047" xlink:href="#DejaVuSans-46"/>
       <use x="95.410156" xlink:href="#DejaVuSans-48"/>
       <use x="159.033203" xlink:href="#DejaVuSans-48"/>
      </g>
     </g>
    </g>
    <g id="ytick_2">
     <g id="line2d_6">
      <g>
       <use style="stroke:#000000;stroke-width:1.6;" x="59.43" xlink:href="#m98bc0b50af" y="205.105252"/>
      </g>
     </g>
     <g id="text_7">
      <!-- 0.02 -->
      <g transform="translate(0.19875 212.703689)scale(0.2 -0.2)">
       <use xlink:href="#DejaVuSans-48"/>
       <use x="63.623047" xlink:href="#DejaVuSans-46"/>
       <use x="95.410156" xlink:href="#DejaVuSans-48"/>
       <use x="159.033203" xlink:href="#DejaVuSans-50"/>
      </g>
     </g>
    </g>
    <g id="ytick_3">
     <g id="line2d_7">
      <g>
       <use style="stroke:#000000;stroke-width:1.6;" x="59.43" xlink:href="#m98bc0b50af" y="157.36717"/>
      </g>
     </g>
     <g id="text_8">
      <!-- 0.04 -->
      <g transform="translate(0.19875 164.965608)scale(0.2 -0.2)">
       <use xlink:href="#DejaVuSans-48"/>
       <use x="63.623047" xlink:href="#DejaVuSans-46"/>
       <use x="95.410156" xlink:href="#DejaVuSans-48"/>
       <use x="159.033203" xlink:href="#DejaVuSans-52"/>
      </g>
     </g>
    </g>
    <g id="ytick_4">
     <g id="line2d_8">
      <g>
       <use style="stroke:#000000;stroke-width:1.6;" x="59.43" xlink:href="#m98bc0b50af" y="109.629089"/>
      </g>
     </g>
     <g id="text_9">
      <!-- 0.06 -->
      <g transform="translate(0.19875 117.227526)scale(0.2 -0.2)">
       <use xlink:href="#DejaVuSans-48"/>
       <use x="63.623047" xlink:href="#DejaVuSans-46"/>
       <use x="95.410156" xlink:href="#DejaVuSans-48"/>
       <use x="159.033203" xlink:href="#DejaVuSans-54"/>
      </g>
     </g>
    </g>
    <g id="ytick_5">
     <g id="line2d_9">
      <g>
       <use style="stroke:#000000;stroke-width:1.6;" x="59.43" xlink:href="#m98bc0b50af" y="61.891007"/>
      </g>
     </g>
     <g id="text_10">
      <!-- 0.08 -->
      <defs>
       <path d="M 31.78125 34.625 
Q 24.75 34.625 20.71875 30.859375 
Q 16.703125 27.09375 16.703125 20.515625 
Q 16.703125 13.921875 20.71875 10.15625 
Q 24.75 6.390625 31.78125 6.390625 
Q 38.8125 6.390625 42.859375 10.171875 
Q 46.921875 13.96875 46.921875 20.515625 
Q 46.921875 27.09375 42.890625 30.859375 
Q 38.875 34.625 31.78125 34.625 
z
M 21.921875 38.8125 
Q 15.578125 40.375 12.03125 44.71875 
Q 8.5 49.078125 8.5 55.328125 
Q 8.5 64.0625 14.71875 69.140625 
Q 20.953125 74.21875 31.78125 74.21875 
Q 42.671875 74.21875 48.875 69.140625 
Q 55.078125 64.0625 55.078125 55.328125 
Q 55.078125 49.078125 51.53125 44.71875 
Q 48 40.375 41.703125 38.8125 
Q 48.828125 37.15625 52.796875 32.3125 
Q 56.78125 27.484375 56.78125 20.515625 
Q 56.78125 9.90625 50.3125 4.234375 
Q 43.84375 -1.421875 31.78125 -1.421875 
Q 19.734375 -1.421875 13.25 4.234375 
Q 6.78125 9.90625 6.78125 20.515625 
Q 6.78125 27.484375 10.78125 32.3125 
Q 14.796875 37.15625 21.921875 38.8125 
z
M 18.3125 54.390625 
Q 18.3125 48.734375 21.84375 45.5625 
Q 25.390625 42.390625 31.78125 42.390625 
Q 38.140625 42.390625 41.71875 45.5625 
Q 45.3125 48.734375 45.3125 54.390625 
Q 45.3125 60.0625 41.71875 63.234375 
Q 38.140625 66.40625 31.78125 66.40625 
Q 25.390625 66.40625 21.84375 63.234375 
Q 18.3125 60.0625 18.3125 54.390625 
z
" id="DejaVuSans-56"/>
      </defs>
      <g transform="translate(0.19875 69.489445)scale(0.2 -0.2)">
       <use xlink:href="#DejaVuSans-48"/>
       <use x="63.623047" xlink:href="#DejaVuSans-46"/>
       <use x="95.410156" xlink:href="#DejaVuSans-48"/>
       <use x="159.033203" xlink:href="#DejaVuSans-56"/>
      </g>
     </g>
    </g>
    <g id="ytick_6">
     <g id="line2d_10">
      <g>
       <use style="stroke:#000000;stroke-width:1.6;" x="59.43" xlink:href="#m98bc0b50af" y="14.152926"/>
      </g>
     </g>
     <g id="text_11">
      <!-- 0.10 -->
      <defs>
       <path d="M 12.40625 8.296875 
L 28.515625 8.296875 
L 28.515625 63.921875 
L 10.984375 60.40625 
L 10.984375 69.390625 
L 28.421875 72.90625 
L 38.28125 72.90625 
L 38.28125 8.296875 
L 54.390625 8.296875 
L 54.390625 0 
L 12.40625 0 
z
" id="DejaVuSans-49"/>
      </defs>
      <g transform="translate(0.19875 21.751363)scale(0.2 -0.2)">
       <use xlink:href="#DejaVuSans-48"/>
       <use x="63.623047" xlink:href="#DejaVuSans-46"/>
       <use x="95.410156" xlink:href="#DejaVuSans-49"/>
       <use x="159.033203" xlink:href="#DejaVuSans-48"/>
      </g>
     </g>
    </g>
   </g>
   <g id="patch_83">
    <path d="M 59.43 252.843333 
L 59.43 2.52 
" style="fill:none;stroke:#000000;stroke-linecap:square;stroke-linejoin:miter;stroke-width:0.8;"/>
   </g>
   <g id="patch_84">
    <path d="M 59.43 252.843333 
L 309.753333 252.843333 
" style="fill:none;stroke:#000000;stroke-linecap:square;stroke-linejoin:miter;stroke-width:0.8;"/>
   </g>
  </g>
  <g id="axes_2">
   <g id="patch_85">
    <path d="M 426.643333 252.843333 
L 676.966667 252.843333 
L 676.966667 2.52 
L 426.643333 2.52 
z
" style="fill:#ffffff;"/>
   </g>
   <g id="PolyCollection_1">
    <defs>
     <path d="M 516.244651 -293.357641 
L 516.244651 -293.540526 
L 517.767045 -293.542776 
L 519.289438 -293.542904 
L 520.811831 -293.541829 
L 522.334224 -293.540633 
L 523.856617 -293.540296 
L 525.37901 -293.541469 
L 526.901404 -293.544383 
L 528.423797 -293.548926 
L 529.94619 -293.554862 
L 531.468583 -293.562139 
L 532.990976 -293.571158 
L 534.513369 -293.582926 
L 536.035763 -293.599018 
L 537.558156 -293.621372 
L 539.080549 -293.651955 
L 540.602942 -293.692458 
L 542.125335 -293.744084 
L 543.647729 -293.807551 
L 545.170122 -293.883272 
L 546.692515 -293.97166 
L 548.214908 -294.073421 
L 549.737301 -294.189711 
L 551.259694 -294.322076 
L 552.782088 -294.472203 
L 554.304481 -294.641574 
L 555.826874 -294.831166 
L 557.349267 -295.041326 
L 558.87166 -295.271838 
L 560.394053 -295.522121 
L 561.916447 -295.791394 
L 563.43884 -296.078649 
L 564.961233 -296.38237 
L 566.483626 -296.700054 
L 568.006019 -297.027749 
L 569.528412 -297.359878 
L 571.050806 -297.689575 
L 572.573199 -298.009602 
L 574.095592 -298.313693 
L 575.617985 -298.598015 
L 577.140378 -298.862312 
L 578.662771 -299.110403 
L 580.185165 -299.349805 
L 581.707558 -299.590533 
L 583.229951 -299.8433 
L 584.752344 -300.117518 
L 586.274737 -300.419556 
L 587.79713 -300.751668 
L 589.319524 -301.111861 
L 590.841917 -301.494724 
L 592.36431 -301.893011 
L 593.886703 -302.299495 
L 595.409096 -302.708544 
L 596.93149 -303.116887 
L 598.453883 -303.523295 
L 599.976276 -303.92718 
L 601.498669 -304.326509 
L 603.021062 -304.715633 
L 604.543455 -305.083721 
L 606.065849 -305.414358 
L 607.588242 -305.686613 
L 609.110635 -305.877476 
L 610.633028 -305.96525 
L 612.155421 -305.933215 
L 613.677814 -305.772779 
L 615.200208 -305.485433 
L 616.722601 -305.083056 
L 618.244994 -304.586468 
L 619.767387 -304.022516 
L 621.28978 -303.420297 
L 622.812173 -302.807307 
L 624.334567 -302.206288 
L 625.85696 -301.633328 
L 627.379353 -301.097435 
L 628.901746 -300.60141 
L 630.424139 -300.143576 
L 631.946532 -299.719773 
L 633.468926 -299.325104 
L 634.991319 -298.955098 
L 636.513712 -298.606211 
L 638.036105 -298.275777 
L 639.558498 -297.96165 
L 641.080891 -297.661796 
L 642.603285 -297.374061 
L 644.125678 -297.096235 
L 645.648071 -296.826424 
L 647.170464 -296.563618 
L 648.692857 -296.308232 
L 650.215251 -296.062346 
L 651.737644 -295.829449 
L 653.260037 -295.613618 
L 654.78243 -295.418324 
L 656.304823 -295.245196 
L 657.827216 -295.093196 
L 659.34961 -294.958508 
L 660.872003 -294.835245 
L 662.394396 -294.716789 
L 663.916789 -294.597354 
L 665.439182 -294.473313 
L 666.961575 -294.343925 
L 666.961575 -292.554242 
L 666.961575 -292.554242 
L 665.439182 -292.424853 
L 663.916789 -292.300812 
L 662.394396 -292.181377 
L 660.872003 -292.062922 
L 659.34961 -291.939659 
L 657.827216 -291.804971 
L 656.304823 -291.652971 
L 654.78243 -291.479843 
L 653.260037 -291.284549 
L 651.737644 -291.068718 
L 650.215251 -290.835821 
L 648.692857 -290.589935 
L 647.170464 -290.334549 
L 645.648071 -290.071743 
L 644.125678 -289.801932 
L 642.603285 -289.524106 
L 641.080891 -289.236371 
L 639.558498 -288.936517 
L 638.036105 -288.622389 
L 636.513712 -288.291955 
L 634.991319 -287.943068 
L 633.468926 -287.573062 
L 631.946532 -287.178393 
L 630.424139 -286.754591 
L 628.901746 -286.296757 
L 627.379353 -285.800732 
L 625.85696 -285.264838 
L 624.334567 -284.691879 
L 622.812173 -284.09086 
L 621.28978 -283.47787 
L 619.767387 -282.87565 
L 618.244994 -282.311698 
L 616.722601 -281.81511 
L 615.200208 -281.412733 
L 613.677814 -281.125388 
L 612.155421 -280.964952 
L 610.633028 -280.932917 
L 609.110635 -281.020691 
L 607.588242 -281.211554 
L 606.065849 -281.483808 
L 604.543455 -281.814446 
L 603.021062 -282.182533 
L 601.498669 -282.571658 
L 599.976276 -282.970987 
L 598.453883 -283.374871 
L 596.93149 -283.781279 
L 595.409096 -284.189623 
L 593.886703 -284.598671 
L 592.36431 -285.005155 
L 590.841917 -285.403442 
L 589.319524 -285.786306 
L 587.79713 -286.146498 
L 586.274737 -286.478611 
L 584.752344 -286.780649 
L 583.229951 -287.054867 
L 581.707558 -287.307634 
L 580.185165 -287.548362 
L 578.662771 -287.787764 
L 577.140378 -288.035855 
L 575.617985 -288.300152 
L 574.095592 -288.584473 
L 572.573199 -288.888565 
L 571.050806 -289.208592 
L 569.528412 -289.538289 
L 568.006019 -289.870418 
L 566.483626 -290.198112 
L 564.961233 -290.515797 
L 563.43884 -290.819518 
L 561.916447 -291.106773 
L 560.394053 -291.376045 
L 558.87166 -291.626329 
L 557.349267 -291.856841 
L 555.826874 -292.067 
L 554.304481 -292.256593 
L 552.782088 -292.425964 
L 551.259694 -292.576091 
L 549.737301 -292.708456 
L 548.214908 -292.824746 
L 546.692515 -292.926507 
L 545.170122 -293.014895 
L 543.647729 -293.090616 
L 542.125335 -293.154083 
L 540.602942 -293.205709 
L 539.080549 -293.246211 
L 537.558156 -293.276795 
L 536.035763 -293.299148 
L 534.513369 -293.315241 
L 532.990976 -293.327008 
L 531.468583 -293.336027 
L 529.94619 -293.343304 
L 528.423797 -293.349241 
L 526.901404 -293.353784 
L 525.37901 -293.356698 
L 523.856617 -293.357871 
L 522.334224 -293.357534 
L 520.811831 -293.356338 
L 519.289438 -293.355263 
L 517.767045 -293.355391 
L 516.244651 -293.357641 
z
" id="mc3c3fcf467" style="stroke:#424242;"/>
    </defs>
    <g clip-path="url(#p1bc8041493)">
     <use style="fill:#7c78ab;stroke:#424242;" x="0" xlink:href="#mc3c3fcf467" y="314.743333"/>
    </g>
   </g>
   <g id="PolyCollection_2">
    <defs>
     <path d="M 509.980036 -268.343034 
L 509.980036 -268.490466 
L 511.589528 -268.489241 
L 513.199021 -268.484709 
L 514.808513 -268.477923 
L 516.418005 -268.470389 
L 518.027497 -268.463791 
L 519.63699 -268.459713 
L 521.246482 -268.459421 
L 522.855974 -268.463715 
L 524.465467 -268.472876 
L 526.074959 -268.486675 
L 527.684451 -268.50442 
L 529.293943 -268.525036 
L 530.903436 -268.54717 
L 532.512928 -268.569326 
L 534.12242 -268.590042 
L 535.731913 -268.608133 
L 537.341405 -268.62298 
L 538.950897 -268.634822 
L 540.56039 -268.644963 
L 542.169882 -268.655791 
L 543.779374 -268.67053 
L 545.388866 -268.69275 
L 546.998359 -268.725733 
L 548.607851 -268.771899 
L 550.217343 -268.832442 
L 551.826836 -268.907319 
L 553.436328 -268.995557 
L 555.04582 -269.095773 
L 556.655312 -269.206759 
L 558.264805 -269.32793 
L 559.874297 -269.459539 
L 561.483789 -269.602601 
L 563.093282 -269.758596 
L 564.702774 -269.929112 
L 566.312266 -270.115633 
L 567.921758 -270.319681 
L 569.531251 -270.543322 
L 571.140743 -270.789841 
L 572.750235 -271.064163 
L 574.359728 -271.372583 
L 575.96922 -271.721533 
L 577.578712 -272.115606 
L 579.188204 -272.555445 
L 580.797697 -273.036397 
L 582.407189 -273.548623 
L 584.016681 -274.078846 
L 585.626174 -274.613185 
L 587.235666 -275.139997 
L 588.845158 -275.651541 
L 590.454651 -276.1438 
L 592.064143 -276.614625 
L 593.673635 -277.061216 
L 595.283127 -277.478354 
L 596.89262 -277.858496 
L 598.502112 -278.193907 
L 600.111604 -278.479914 
L 601.721097 -278.717619 
L 603.330589 -278.914482 
L 604.940081 -279.082125 
L 606.549573 -279.232048 
L 608.159066 -279.371032 
L 609.768558 -279.498232 
L 611.37805 -279.605201 
L 612.987543 -279.678705 
L 614.597035 -279.704969 
L 616.206527 -279.673453 
L 617.816019 -279.57875 
L 619.425512 -279.420227 
L 621.035004 -279.200193 
L 622.644496 -278.92186 
L 624.253989 -278.588287 
L 625.863481 -278.202751 
L 627.472973 -277.770219 
L 629.082465 -277.299019 
L 630.691958 -276.80176 
L 632.30145 -276.294821 
L 633.910942 -275.796299 
L 635.520435 -275.322918 
L 637.129927 -274.886796 
L 638.739419 -274.493196 
L 640.348911 -274.140076 
L 641.958404 -273.819743 
L 643.567896 -273.522081 
L 645.177388 -273.238235 
L 646.786881 -272.963366 
L 648.396373 -272.697471 
L 650.005865 -272.444013 
L 651.615358 -272.207048 
L 653.22485 -271.988113 
L 654.834342 -271.784222 
L 656.443834 -271.587773 
L 658.053327 -271.388357 
L 659.662819 -271.17572 
L 661.272311 -270.942731 
L 662.881804 -270.687372 
L 664.491296 -270.413231 
L 666.100788 -270.128571 
L 667.71028 -269.844452 
L 669.319773 -269.572564 
L 669.319773 -267.260936 
L 669.319773 -267.260936 
L 667.71028 -266.989048 
L 666.100788 -266.704929 
L 664.491296 -266.420269 
L 662.881804 -266.146128 
L 661.272311 -265.890769 
L 659.662819 -265.65778 
L 658.053327 -265.445143 
L 656.443834 -265.245727 
L 654.834342 -265.049278 
L 653.22485 -264.845387 
L 651.615358 -264.626452 
L 650.005865 -264.389487 
L 648.396373 -264.136029 
L 646.786881 -263.870134 
L 645.177388 -263.595265 
L 643.567896 -263.311419 
L 641.958404 -263.013757 
L 640.348911 -262.693424 
L 638.739419 -262.340304 
L 637.129927 -261.946704 
L 635.520435 -261.510582 
L 633.910942 -261.037201 
L 632.30145 -260.538679 
L 630.691958 -260.03174 
L 629.082465 -259.534481 
L 627.472973 -259.063281 
L 625.863481 -258.630749 
L 624.253989 -258.245213 
L 622.644496 -257.91164 
L 621.035004 -257.633307 
L 619.425512 -257.413273 
L 617.816019 -257.25475 
L 616.206527 -257.160047 
L 614.597035 -257.128531 
L 612.987543 -257.154795 
L 611.37805 -257.228299 
L 609.768558 -257.335268 
L 608.159066 -257.462468 
L 606.549573 -257.601452 
L 604.940081 -257.751375 
L 603.330589 -257.919018 
L 601.721097 -258.115881 
L 600.111604 -258.353586 
L 598.502112 -258.639593 
L 596.89262 -258.975004 
L 595.283127 -259.355146 
L 593.673635 -259.772284 
L 592.064143 -260.218875 
L 590.454651 -260.6897 
L 588.845158 -261.181959 
L 587.235666 -261.693503 
L 585.626174 -262.220315 
L 584.016681 -262.754654 
L 582.407189 -263.284877 
L 580.797697 -263.797103 
L 579.188204 -264.278055 
L 577.578712 -264.717894 
L 575.96922 -265.111967 
L 574.359728 -265.460917 
L 572.750235 -265.769337 
L 571.140743 -266.043659 
L 569.531251 -266.290178 
L 567.921758 -266.513819 
L 566.312266 -266.717867 
L 564.702774 -266.904388 
L 563.093282 -267.074904 
L 561.483789 -267.230899 
L 559.874297 -267.373961 
L 558.264805 -267.50557 
L 556.655312 -267.626741 
L 555.04582 -267.737727 
L 553.436328 -267.837943 
L 551.826836 -267.926181 
L 550.217343 -268.001058 
L 548.607851 -268.061601 
L 546.998359 -268.107767 
L 545.388866 -268.14075 
L 543.779374 -268.16297 
L 542.169882 -268.177709 
L 540.56039 -268.188537 
L 538.950897 -268.198678 
L 537.341405 -268.21052 
L 535.731913 -268.225367 
L 534.12242 -268.243458 
L 532.512928 -268.264174 
L 530.903436 -268.28633 
L 529.293943 -268.308464 
L 527.684451 -268.32908 
L 526.074959 -268.346825 
L 524.465467 -268.360624 
L 522.855974 -268.369785 
L 521.246482 -268.374079 
L 519.63699 -268.373787 
L 518.027497 -268.369709 
L 516.418005 -268.363111 
L 514.808513 -268.355577 
L 513.199021 -268.348791 
L 511.589528 -268.344259 
L 509.980036 -268.343034 
z
" id="m030ed2f5ec" style="stroke:#424242;"/>
    </defs>
    <g clip-path="url(#p1bc8041493)">
     <use style="fill:#be631d;stroke:#424242;" x="0" xlink:href="#m030ed2f5ec" y="314.743333"/>
    </g>
   </g>
   <g id="PolyCollection_3">
    <defs>
     <path d="M 524.578199 -230.066764 
L 524.578199 -231.669736 
L 525.959135 -231.775043 
L 527.340071 -231.88671 
L 528.721007 -232.005295 
L 530.101943 -232.131558 
L 531.482879 -232.266325 
L 532.863815 -232.410291 
L 534.244751 -232.563797 
L 535.625687 -232.726611 
L 537.006624 -232.897746 
L 538.38756 -233.075368 
L 539.768496 -233.256817 
L 541.149432 -233.438748 
L 542.530368 -233.617414 
L 543.911304 -233.789047 
L 545.29224 -233.950294 
L 546.673176 -234.098677 
L 548.054112 -234.232984 
L 549.435048 -234.353565 
L 550.815984 -234.46247 
L 552.19692 -234.563423 
L 553.577856 -234.661625 
L 554.958792 -234.7634 
L 556.339728 -234.875742 
L 557.720664 -235.005775 
L 559.1016 -235.160212 
L 560.482536 -235.344816 
L 561.863472 -235.563939 
L 563.244408 -235.820142 
L 564.625344 -236.113933 
L 566.00628 -236.443644 
L 567.387217 -236.805454 
L 568.768153 -237.193583 
L 570.149089 -237.600629 
L 571.530025 -238.018063 
L 572.910961 -238.43683 
L 574.291897 -238.848008 
L 575.672833 -239.243472 
L 577.053769 -239.616477 
L 578.434705 -239.962098 
L 579.815641 -240.277472 
L 581.196577 -240.561803 
L 582.577513 -240.816136 
L 583.958449 -241.042932 
L 585.339385 -241.245507 
L 586.720321 -241.427422 
L 588.101257 -241.59191 
L 589.482193 -241.741433 
L 590.863129 -241.877429 
L 592.244065 -242.000285 
L 593.625001 -242.109521 
L 595.005937 -242.204165 
L 596.386873 -242.283218 
L 597.767809 -242.346155 
L 599.148746 -242.393339 
L 600.529682 -242.426298 
L 601.910618 -242.447783 
L 603.291554 -242.461624 
L 604.67249 -242.472355 
L 606.053426 -242.484695 
L 607.434362 -242.502932 
L 608.815298 -242.530293 
L 610.196234 -242.568394 
L 611.57717 -242.616827 
L 612.958106 -242.672936 
L 614.339042 -242.731832 
L 615.719978 -242.786608 
L 617.100914 -242.828779 
L 618.48185 -242.848871 
L 619.862786 -242.837119 
L 621.243722 -242.784207 
L 622.624658 -242.681981 
L 624.005594 -242.524075 
L 625.38653 -242.306396 
L 626.767466 -242.027443 
L 628.148402 -241.68843 
L 629.529338 -241.293225 
L 630.910275 -240.848109 
L 632.291211 -240.361396 
L 633.672147 -239.842941 
L 635.053083 -239.303567 
L 636.434019 -238.754466 
L 637.814955 -238.206596 
L 639.195891 -237.670121 
L 640.576827 -237.153915 
L 641.957763 -236.665168 
L 643.338699 -236.209113 
L 644.719635 -235.788884 
L 646.100571 -235.405522 
L 647.481507 -235.058119 
L 648.862443 -234.74408 
L 650.243379 -234.459498 
L 651.624315 -234.199588 
L 653.005251 -233.959164 
L 654.386187 -233.733109 
L 655.767123 -233.516808 
L 657.148059 -233.306499 
L 658.528995 -233.099529 
L 659.909931 -232.89448 
L 661.290867 -232.691172 
L 661.290867 -229.045328 
L 661.290867 -229.045328 
L 659.909931 -228.84202 
L 658.528995 -228.636971 
L 657.148059 -228.430001 
L 655.767123 -228.219692 
L 654.386187 -228.003391 
L 653.005251 -227.777336 
L 651.624315 -227.536912 
L 650.243379 -227.277002 
L 648.862443 -226.99242 
L 647.481507 -226.678381 
L 646.100571 -226.330978 
L 644.719635 -225.947616 
L 643.338699 -225.527387 
L 641.957763 -225.071332 
L 640.576827 -224.582585 
L 639.195891 -224.066379 
L 637.814955 -223.529904 
L 636.434019 -222.982034 
L 635.053083 -222.432933 
L 633.672147 -221.893559 
L 632.291211 -221.375104 
L 630.910275 -220.888391 
L 629.529338 -220.443275 
L 628.148402 -220.04807 
L 626.767466 -219.709057 
L 625.38653 -219.430104 
L 624.005594 -219.212425 
L 622.624658 -219.054519 
L 621.243722 -218.952293 
L 619.862786 -218.899381 
L 618.48185 -218.887629 
L 617.100914 -218.907721 
L 615.719978 -218.949892 
L 614.339042 -219.004668 
L 612.958106 -219.063564 
L 611.57717 -219.119673 
L 610.196234 -219.168106 
L 608.815298 -219.206207 
L 607.434362 -219.233568 
L 606.053426 -219.251805 
L 604.67249 -219.264145 
L 603.291554 -219.274876 
L 601.910618 -219.288717 
L 600.529682 -219.310202 
L 599.148746 -219.343161 
L 597.767809 -219.390345 
L 596.386873 -219.453282 
L 595.005937 -219.532335 
L 593.625001 -219.626979 
L 592.244065 -219.736215 
L 590.863129 -219.859071 
L 589.482193 -219.995067 
L 588.101257 -220.14459 
L 586.720321 -220.309078 
L 585.339385 -220.490993 
L 583.958449 -220.693568 
L 582.577513 -220.920364 
L 581.196577 -221.174697 
L 579.815641 -221.459028 
L 578.434705 -221.774402 
L 577.053769 -222.120023 
L 575.672833 -222.493028 
L 574.291897 -222.888492 
L 572.910961 -223.29967 
L 571.530025 -223.718437 
L 570.149089 -224.135871 
L 568.768153 -224.542917 
L 567.387217 -224.931046 
L 566.00628 -225.292856 
L 564.625344 -225.622567 
L 563.244408 -225.916358 
L 561.863472 -226.172561 
L 560.482536 -226.391684 
L 559.1016 -226.576288 
L 557.720664 -226.730725 
L 556.339728 -226.860758 
L 554.958792 -226.9731 
L 553.577856 -227.074875 
L 552.19692 -227.173077 
L 550.815984 -227.27403 
L 549.435048 -227.382935 
L 548.054112 -227.503516 
L 546.673176 -227.637823 
L 545.29224 -227.786206 
L 543.911304 -227.947453 
L 542.530368 -228.119086 
L 541.149432 -228.297752 
L 539.768496 -228.479683 
L 538.38756 -228.661132 
L 537.006624 -228.838754 
L 535.625687 -229.009889 
L 534.244751 -229.172703 
L 532.863815 -229.326209 
L 531.482879 -229.470175 
L 530.101943 -229.604942 
L 528.721007 -229.731205 
L 527.340071 -229.84979 
L 525.959135 -229.961457 
L 524.578199 -230.066764 
z
" id="m1d5afd231d" style="stroke:#424242;"/>
    </defs>
    <g clip-path="url(#p1bc8041493)">
     <use style="fill:#7c78ab;stroke:#424242;" x="0" xlink:href="#m1d5afd231d" y="314.743333"/>
    </g>
   </g>
   <g id="PolyCollection_4">
    <defs>
     <path d="M 522.215659 -205.24192 
L 522.215659 -206.429913 
L 523.619217 -206.478611 
L 525.022775 -206.522358 
L 526.426334 -206.561417 
L 527.829892 -206.596973 
L 529.23345 -206.631128 
L 530.637009 -206.666785 
L 532.040567 -206.70741 
L 533.444125 -206.756704 
L 534.847684 -206.818204 
L 536.251242 -206.894872 
L 537.6548 -206.988724 
L 539.058359 -207.100557 
L 540.461917 -207.229806 
L 541.865475 -207.374572 
L 543.269034 -207.53182 
L 544.672592 -207.69772 
L 546.07615 -207.868103 
L 547.479709 -208.038958 
L 548.883267 -208.206911 
L 550.286825 -208.36962 
L 551.690383 -208.526028 
L 553.093942 -208.676459 
L 554.4975 -208.822527 
L 555.901058 -208.966909 
L 557.304617 -209.112996 
L 558.708175 -209.264498 
L 560.111733 -209.42505 
L 561.515292 -209.597881 
L 562.91885 -209.785569 
L 564.322408 -209.989917 
L 565.725967 -210.211925 
L 567.129525 -210.451841 
L 568.533083 -210.709264 
L 569.936642 -210.983248 
L 571.3402 -211.272389 
L 572.743758 -211.574868 
L 574.147317 -211.888469 
L 575.550875 -212.210573 
L 576.954433 -212.538172 
L 578.357991 -212.867918 
L 579.76155 -213.196253 
L 581.165108 -213.519601 
L 582.568666 -213.834638 
L 583.972225 -214.138584 
L 585.375783 -214.429491 
L 586.779341 -214.706459 
L 588.1829 -214.969753 
L 589.586458 -215.220763 
L 590.990016 -215.461823 
L 592.393575 -215.695876 
L 593.797133 -215.926041 
L 595.200691 -216.155134 
L 596.60425 -216.385191 
L 598.007808 -216.617078 
L 599.411366 -216.850231 
L 600.814925 -217.08256 
L 602.218483 -217.31053 
L 603.622041 -217.52941 
L 605.0256 -217.733649 
L 606.429158 -217.917334 
L 607.832716 -218.074675 
L 609.236274 -218.200456 
L 610.639833 -218.290413 
L 612.043391 -218.341509 
L 613.446949 -218.352083 
L 614.850508 -218.321889 
L 616.254066 -218.252024 
L 617.657624 -218.144776 
L 619.061183 -218.003417 
L 620.464741 -217.83196 
L 621.868299 -217.634921 
L 623.271858 -217.41708 
L 624.675416 -217.183278 
L 626.078974 -216.938243 
L 627.482533 -216.686436 
L 628.886091 -216.431934 
L 630.289649 -216.178303 
L 631.693208 -215.928487 
L 633.096766 -215.684678 
L 634.500324 -215.448186 
L 635.903882 -215.219323 
L 637.307441 -214.997311 
L 638.710999 -214.780253 
L 640.114557 -214.565176 
L 641.518116 -214.348175 
L 642.921674 -214.124642 
L 644.325232 -213.889588 
L 645.728791 -213.638012 
L 647.132349 -213.365298 
L 648.535907 -213.067605 
L 649.939466 -212.742214 
L 651.343024 -212.387806 
L 652.746582 -212.004664 
L 654.150141 -211.594765 
L 655.553699 -211.161775 
L 656.957257 -210.710922 
L 658.360816 -210.248768 
L 659.764374 -209.782862 
L 661.167932 -209.321324 
L 661.167932 -202.350509 
L 661.167932 -202.350509 
L 659.764374 -201.888971 
L 658.360816 -201.423066 
L 656.957257 -200.960911 
L 655.553699 -200.510059 
L 654.150141 -200.077068 
L 652.746582 -199.667169 
L 651.343024 -199.284027 
L 649.939466 -198.92962 
L 648.535907 -198.604228 
L 647.132349 -198.306536 
L 645.728791 -198.033822 
L 644.325232 -197.782245 
L 642.921674 -197.547191 
L 641.518116 -197.323659 
L 640.114557 -197.106657 
L 638.710999 -196.89158 
L 637.307441 -196.674522 
L 635.903882 -196.452511 
L 634.500324 -196.223648 
L 633.096766 -195.987156 
L 631.693208 -195.743346 
L 630.289649 -195.49353 
L 628.886091 -195.2399 
L 627.482533 -194.985397 
L 626.078974 -194.733591 
L 624.675416 -194.488555 
L 623.271858 -194.254754 
L 621.868299 -194.036913 
L 620.464741 -193.839873 
L 619.061183 -193.668417 
L 617.657624 -193.527057 
L 616.254066 -193.419809 
L 614.850508 -193.349944 
L 613.446949 -193.31975 
L 612.043391 -193.330324 
L 610.639833 -193.38142 
L 609.236274 -193.471377 
L 607.832716 -193.597158 
L 606.429158 -193.7545 
L 605.0256 -193.938185 
L 603.622041 -194.142423 
L 602.218483 -194.361303 
L 600.814925 -194.589273 
L 599.411366 -194.821602 
L 598.007808 -195.054755 
L 596.60425 -195.286642 
L 595.200691 -195.516699 
L 593.797133 -195.745792 
L 592.393575 -195.975958 
L 590.990016 -196.21001 
L 589.586458 -196.45107 
L 588.1829 -196.702081 
L 586.779341 -196.965374 
L 585.375783 -197.242343 
L 583.972225 -197.533249 
L 582.568666 -197.837195 
L 581.165108 -198.152232 
L 579.76155 -198.475581 
L 578.357991 -198.803915 
L 576.954433 -199.133662 
L 575.550875 -199.46126 
L 574.147317 -199.783365 
L 572.743758 -200.096966 
L 571.3402 -200.399445 
L 569.936642 -200.688585 
L 568.533083 -200.96257 
L 567.129525 -201.219993 
L 565.725967 -201.459909 
L 564.322408 -201.681916 
L 562.91885 -201.886265 
L 561.515292 -202.073953 
L 560.111733 -202.246783 
L 558.708175 -202.407335 
L 557.304617 -202.558837 
L 555.901058 -202.704924 
L 554.4975 -202.849306 
L 553.093942 -202.995375 
L 551.690383 -203.145805 
L 550.286825 -203.302214 
L 548.883267 -203.464922 
L 547.479709 -203.632876 
L 546.07615 -203.803731 
L 544.672592 -203.974114 
L 543.269034 -204.140013 
L 541.865475 -204.297261 
L 540.461917 -204.442027 
L 539.058359 -204.571276 
L 537.6548 -204.683109 
L 536.251242 -204.776961 
L 534.847684 -204.853629 
L 533.444125 -204.915129 
L 532.040567 -204.964424 
L 530.637009 -205.005049 
L 529.23345 -205.040705 
L 527.829892 -205.07486 
L 526.426334 -205.110416 
L 525.022775 -205.149476 
L 523.619217 -205.193222 
L 522.215659 -205.24192 
z
" id="m9c9001fb75" style="stroke:#424242;"/>
    </defs>
    <g clip-path="url(#p1bc8041493)">
     <use style="fill:#be631d;stroke:#424242;" x="0" xlink:href="#m9c9001fb75" y="314.743333"/>
    </g>
   </g>
   <g id="PolyCollection_5">
    <defs>
     <path d="M 498.665434 -165.585155 
L 498.665434 -170.989678 
L 500.307779 -171.249668 
L 501.950124 -171.522495 
L 503.59247 -171.807547 
L 505.234815 -172.104094 
L 506.87716 -172.411283 
L 508.519505 -172.728145 
L 510.16185 -173.053599 
L 511.804196 -173.386454 
L 513.446541 -173.725412 
L 515.088886 -174.069076 
L 516.731231 -174.415945 
L 518.373577 -174.764423 
L 520.015922 -175.112814 
L 521.658267 -175.459334 
L 523.300612 -175.802109 
L 524.942957 -176.139185 
L 526.585303 -176.468544 
L 528.227648 -176.788119 
L 529.869993 -177.095823 
L 531.512338 -177.38958 
L 533.154684 -177.667368 
L 534.797029 -177.927271 
L 536.439374 -178.167531 
L 538.081719 -178.386618 
L 539.724064 -178.583285 
L 541.36641 -178.756642 
L 543.008755 -178.906209 
L 544.6511 -179.031968 
L 546.293445 -179.134405 
L 547.935791 -179.214533 
L 549.578136 -179.273888 
L 551.220481 -179.314522 
L 552.862826 -179.338952 
L 554.505171 -179.350102 
L 556.147517 -179.351215 
L 557.789862 -179.345755 
L 559.432207 -179.337282 
L 561.074552 -179.329333 
L 562.716898 -179.325286 
L 564.359243 -179.328233 
L 566.001588 -179.340865 
L 567.643933 -179.365359 
L 569.286278 -179.403299 
L 570.928624 -179.455608 
L 572.570969 -179.522512 
L 574.213314 -179.603532 
L 575.855659 -179.697499 
L 577.498005 -179.802601 
L 579.14035 -179.916445 
L 580.782695 -180.036155 
L 582.42504 -180.158464 
L 584.067385 -180.279837 
L 585.709731 -180.396589 
L 587.352076 -180.505002 
L 588.994421 -180.601449 
L 590.636766 -180.68249 
L 592.279112 -180.744978 
L 593.921457 -180.786128 
L 595.563802 -180.803583 
L 597.206147 -180.795458 
L 598.848492 -180.760358 
L 600.490838 -180.697394 
L 602.133183 -180.606165 
L 603.775528 -180.486743 
L 605.417873 -180.33963 
L 607.060219 -180.165727 
L 608.702564 -179.966276 
L 610.344909 -179.742815 
L 611.987254 -179.497122 
L 613.629599 -179.231169 
L 615.271945 -178.94707 
L 616.91429 -178.647039 
L 618.556635 -178.333346 
L 620.19898 -178.008283 
L 621.841326 -177.674131 
L 623.483671 -177.333129 
L 625.126016 -176.987447 
L 626.768361 -176.639167 
L 628.410706 -176.290252 
L 630.053052 -175.942537 
L 631.695397 -175.5977 
L 633.337742 -175.257255 
L 634.980087 -174.922535 
L 636.622433 -174.594681 
L 638.264778 -174.274638 
L 639.907123 -173.963152 
L 641.549468 -173.660776 
L 643.191813 -173.367873 
L 644.834159 -173.084635 
L 646.476504 -172.811099 
L 648.118849 -172.54717 
L 649.761194 -172.29265 
L 651.40354 -172.047264 
L 653.045885 -171.810694 
L 654.68823 -171.582602 
L 656.330575 -171.362667 
L 657.97292 -171.150598 
L 659.615266 -170.946164 
L 661.257611 -170.749199 
L 661.257611 -165.825635 
L 661.257611 -165.825635 
L 659.615266 -165.628669 
L 657.97292 -165.424235 
L 656.330575 -165.212167 
L 654.68823 -164.992231 
L 653.045885 -164.76414 
L 651.40354 -164.527569 
L 649.761194 -164.282184 
L 648.118849 -164.027664 
L 646.476504 -163.763735 
L 644.834159 -163.490198 
L 643.191813 -163.20696 
L 641.549468 -162.914057 
L 639.907123 -162.611681 
L 638.264778 -162.300196 
L 636.622433 -161.980153 
L 634.980087 -161.652299 
L 633.337742 -161.317578 
L 631.695397 -160.977133 
L 630.053052 -160.632297 
L 628.410706 -160.284581 
L 626.768361 -159.935667 
L 625.126016 -159.587386 
L 623.483671 -159.241705 
L 621.841326 -158.900702 
L 620.19898 -158.56655 
L 618.556635 -158.241487 
L 616.91429 -157.927794 
L 615.271945 -157.627763 
L 613.629599 -157.343664 
L 611.987254 -157.077712 
L 610.344909 -156.832019 
L 608.702564 -156.608557 
L 607.060219 -156.409106 
L 605.417873 -156.235203 
L 603.775528 -156.088091 
L 602.133183 -155.968668 
L 600.490838 -155.877439 
L 598.848492 -155.814475 
L 597.206147 -155.779376 
L 595.563802 -155.77125 
L 593.921457 -155.788705 
L 592.279112 -155.829855 
L 590.636766 -155.892343 
L 588.994421 -155.973385 
L 587.352076 -156.069831 
L 585.709731 -156.178245 
L 584.067385 -156.294996 
L 582.42504 -156.41637 
L 580.782695 -156.538679 
L 579.14035 -156.658388 
L 577.498005 -156.772233 
L 575.855659 -156.877334 
L 574.213314 -156.971301 
L 572.570969 -157.052321 
L 570.928624 -157.119226 
L 569.286278 -157.171534 
L 567.643933 -157.209474 
L 566.001588 -157.233969 
L 564.359243 -157.2466 
L 562.716898 -157.249548 
L 561.074552 -157.2455 
L 559.432207 -157.237551 
L 557.789862 -157.229078 
L 556.147517 -157.223618 
L 554.505171 -157.224732 
L 552.862826 -157.235881 
L 551.220481 -157.260311 
L 549.578136 -157.300945 
L 547.935791 -157.360301 
L 546.293445 -157.440428 
L 544.6511 -157.542866 
L 543.008755 -157.668625 
L 541.36641 -157.818191 
L 539.724064 -157.991548 
L 538.081719 -158.188216 
L 536.439374 -158.407302 
L 534.797029 -158.647563 
L 533.154684 -158.907465 
L 531.512338 -159.185253 
L 529.869993 -159.47901 
L 528.227648 -159.786714 
L 526.585303 -160.10629 
L 524.942957 -160.435649 
L 523.300612 -160.772725 
L 521.658267 -161.115499 
L 520.015922 -161.462019 
L 518.373577 -161.810411 
L 516.731231 -162.158888 
L 515.088886 -162.505757 
L 513.446541 -162.849421 
L 511.804196 -163.18838 
L 510.16185 -163.521234 
L 508.519505 -163.846688 
L 506.87716 -164.16355 
L 505.234815 -164.470739 
L 503.59247 -164.767286 
L 501.950124 -165.052339 
L 500.307779 -165.325165 
L 498.665434 -165.585155 
z
" id="me6d3007194" style="stroke:#424242;"/>
    </defs>
    <g clip-path="url(#p1bc8041493)">
     <use style="fill:#7c78ab;stroke:#424242;" x="0" xlink:href="#me6d3007194" y="314.743333"/>
    </g>
   </g>
   <g id="PolyCollection_6">
    <defs>
     <path d="M 501.965678 -140.141824 
L 501.965678 -146.368343 
L 503.491774 -146.544075 
L 505.017869 -146.721432 
L 506.543965 -146.900153 
L 508.07006 -147.080022 
L 509.596156 -147.260872 
L 511.122251 -147.44257 
L 512.648346 -147.62502 
L 514.174442 -147.808144 
L 515.700537 -147.991875 
L 517.226633 -148.176148 
L 518.752728 -148.360881 
L 520.278824 -148.545969 
L 521.804919 -148.731268 
L 523.331014 -148.916591 
L 524.85711 -149.1017 
L 526.383205 -149.286303 
L 527.909301 -149.470051 
L 529.435396 -149.652547 
L 530.961492 -149.833348 
L 532.487587 -150.011982 
L 534.013682 -150.187955 
L 535.539778 -150.360771 
L 537.065873 -150.529951 
L 538.591969 -150.69505 
L 540.118064 -150.855677 
L 541.64416 -151.011514 
L 543.170255 -151.162332 
L 544.69635 -151.308009 
L 546.222446 -151.448534 
L 547.748541 -151.584023 
L 549.274637 -151.714711 
L 550.800732 -151.840962 
L 552.326827 -151.96325 
L 553.852923 -152.082155 
L 555.379018 -152.198346 
L 556.905114 -152.312557 
L 558.431209 -152.425566 
L 559.957305 -152.53817 
L 561.4834 -152.651153 
L 563.009495 -152.765264 
L 564.535591 -152.881183 
L 566.061686 -152.999497 
L 567.587782 -153.120674 
L 569.113877 -153.245046 
L 570.639973 -153.372785 
L 572.166068 -153.503894 
L 573.692163 -153.638199 
L 575.218259 -153.775344 
L 576.744354 -153.914794 
L 578.27045 -154.055847 
L 579.796545 -154.197639 
L 581.322641 -154.339169 
L 582.848736 -154.479314 
L 584.374831 -154.616858 
L 585.900927 -154.750519 
L 587.427022 -154.878972 
L 588.953118 -155.000884 
L 590.479213 -155.114939 
L 592.005309 -155.219869 
L 593.531404 -155.314473 
L 595.057499 -155.397645 
L 596.583595 -155.468387 
L 598.10969 -155.525828 
L 599.635786 -155.569232 
L 601.161881 -155.598004 
L 602.687977 -155.611689 
L 604.214072 -155.609971 
L 605.740167 -155.592668 
L 607.266263 -155.559716 
L 608.792358 -155.511161 
L 610.318454 -155.447144 
L 611.844549 -155.367884 
L 613.370645 -155.273662 
L 614.89674 -155.164805 
L 616.422835 -155.041672 
L 617.948931 -154.904643 
L 619.475026 -154.754105 
L 621.001122 -154.590445 
L 622.527217 -154.414047 
L 624.053313 -154.225287 
L 625.579408 -154.024532 
L 627.105503 -153.812148 
L 628.631599 -153.5885 
L 630.157694 -153.353962 
L 631.68379 -153.108924 
L 633.209885 -152.853803 
L 634.735981 -152.589051 
L 636.262076 -152.315166 
L 637.788171 -152.032701 
L 639.314267 -151.742272 
L 640.840362 -151.444562 
L 642.366458 -151.140328 
L 643.892553 -150.830404 
L 645.418649 -150.515697 
L 646.944744 -150.197188 
L 648.470839 -149.875924 
L 649.996935 -149.553015 
L 651.52303 -149.229617 
L 653.049126 -148.906926 
L 653.049126 -137.60324 
L 653.049126 -137.60324 
L 651.52303 -137.28055 
L 649.996935 -136.957152 
L 648.470839 -136.634242 
L 646.944744 -136.312979 
L 645.418649 -135.99447 
L 643.892553 -135.679763 
L 642.366458 -135.369838 
L 640.840362 -135.065605 
L 639.314267 -134.767895 
L 637.788171 -134.477465 
L 636.262076 -134.195001 
L 634.735981 -133.921116 
L 633.209885 -133.656364 
L 631.68379 -133.401243 
L 630.157694 -133.156205 
L 628.631599 -132.921667 
L 627.105503 -132.698019 
L 625.579408 -132.485635 
L 624.053313 -132.28488 
L 622.527217 -132.09612 
L 621.001122 -131.919722 
L 619.475026 -131.756062 
L 617.948931 -131.605524 
L 616.422835 -131.468495 
L 614.89674 -131.345362 
L 613.370645 -131.236505 
L 611.844549 -131.142282 
L 610.318454 -131.063022 
L 608.792358 -130.999006 
L 607.266263 -130.950451 
L 605.740167 -130.917499 
L 604.214072 -130.900195 
L 602.687977 -130.898478 
L 601.161881 -130.912163 
L 599.635786 -130.940934 
L 598.10969 -130.984339 
L 596.583595 -131.04178 
L 595.057499 -131.112522 
L 593.531404 -131.195693 
L 592.005309 -131.290298 
L 590.479213 -131.395227 
L 588.953118 -131.509283 
L 587.427022 -131.631195 
L 585.900927 -131.759648 
L 584.374831 -131.893308 
L 582.848736 -132.030853 
L 581.322641 -132.170998 
L 579.796545 -132.312528 
L 578.27045 -132.45432 
L 576.744354 -132.595372 
L 575.218259 -132.734823 
L 573.692163 -132.871968 
L 572.166068 -133.006272 
L 570.639973 -133.137381 
L 569.113877 -133.26512 
L 567.587782 -133.389492 
L 566.061686 -133.51067 
L 564.535591 -133.628984 
L 563.009495 -133.744902 
L 561.4834 -133.859013 
L 559.957305 -133.971997 
L 558.431209 -134.0846 
L 556.905114 -134.19761 
L 555.379018 -134.311821 
L 553.852923 -134.428011 
L 552.326827 -134.546917 
L 550.800732 -134.669205 
L 549.274637 -134.795455 
L 547.748541 -134.926144 
L 546.222446 -135.061632 
L 544.69635 -135.202158 
L 543.170255 -135.347835 
L 541.64416 -135.498653 
L 540.118064 -135.65449 
L 538.591969 -135.815116 
L 537.065873 -135.980215 
L 535.539778 -136.149395 
L 534.013682 -136.322212 
L 532.487587 -136.498184 
L 530.961492 -136.676818 
L 529.435396 -136.85762 
L 527.909301 -137.040116 
L 526.383205 -137.223864 
L 524.85711 -137.408466 
L 523.331014 -137.593576 
L 521.804919 -137.778899 
L 520.278824 -137.964198 
L 518.752728 -138.149285 
L 517.226633 -138.334018 
L 515.700537 -138.518291 
L 514.174442 -138.702023 
L 512.648346 -138.885147 
L 511.122251 -139.067596 
L 509.596156 -139.249295 
L 508.07006 -139.430144 
L 506.543965 -139.610014 
L 505.017869 -139.788734 
L 503.491774 -139.966091 
L 501.965678 -140.141824 
z
" id="m885379df95" style="stroke:#424242;"/>
    </defs>
    <g clip-path="url(#p1bc8041493)">
     <use style="fill:#be631d;stroke:#424242;" x="0" xlink:href="#m885379df95" y="314.743333"/>
    </g>
   </g>
   <g id="patch_86">
    <path clip-path="url(#p1bc8041493)" d="M 443.331556 33.810417 
L 443.331556 33.810417 
L 443.331556 33.810417 
L 443.331556 33.810417 
z
" style="fill:#7c78ab;stroke:#424242;stroke-linejoin:miter;stroke-width:0.5;"/>
   </g>
   <g id="patch_87">
    <path clip-path="url(#p1bc8041493)" d="M 443.331556 33.810417 
L 443.331556 33.810417 
L 443.331556 33.810417 
L 443.331556 33.810417 
z
" style="fill:#be631d;stroke:#424242;stroke-linejoin:miter;stroke-width:0.5;"/>
   </g>
   <g id="matplotlib.axis_3">
    <g id="xtick_5">
     <g id="line2d_11">
      <g>
       <use style="stroke:#000000;stroke-width:1.6;" x="443.331556" xlink:href="#m3ddac9a930" y="252.843333"/>
      </g>
     </g>
     <g id="text_12">
      <!-- 0.0 -->
      <g transform="translate(427.428431 282.740208)scale(0.2 -0.2)">
       <use xlink:href="#DejaVuSans-48"/>
       <use x="63.623047" xlink:href="#DejaVuSans-46"/>
       <use x="95.410156" xlink:href="#DejaVuSans-48"/>
      </g>
     </g>
    </g>
    <g id="xtick_6">
     <g id="line2d_12">
      <g>
       <use style="stroke:#000000;stroke-width:1.6;" x="510.084444" xlink:href="#m3ddac9a930" y="252.843333"/>
      </g>
     </g>
     <g id="text_13">
      <!-- 0.2 -->
      <g transform="translate(494.181319 282.740208)scale(0.2 -0.2)">
       <use xlink:href="#DejaVuSans-48"/>
       <use x="63.623047" xlink:href="#DejaVuSans-46"/>
       <use x="95.410156" xlink:href="#DejaVuSans-50"/>
      </g>
     </g>
    </g>
    <g id="xtick_7">
     <g id="line2d_13">
      <g>
       <use style="stroke:#000000;stroke-width:1.6;" x="576.837333" xlink:href="#m3ddac9a930" y="252.843333"/>
      </g>
     </g>
     <g id="text_14">
      <!-- 0.4 -->
      <g transform="translate(560.934208 282.740208)scale(0.2 -0.2)">
       <use xlink:href="#DejaVuSans-48"/>
       <use x="63.623047" xlink:href="#DejaVuSans-46"/>
       <use x="95.410156" xlink:href="#DejaVuSans-52"/>
      </g>
     </g>
    </g>
    <g id="xtick_8">
     <g id="line2d_14">
      <g>
       <use style="stroke:#000000;stroke-width:1.6;" x="643.590222" xlink:href="#m3ddac9a930" y="252.843333"/>
      </g>
     </g>
     <g id="text_15">
      <!-- 0.6 -->
      <g transform="translate(627.687097 282.740208)scale(0.2 -0.2)">
       <use xlink:href="#DejaVuSans-48"/>
       <use x="63.623047" xlink:href="#DejaVuSans-46"/>
       <use x="95.410156" xlink:href="#DejaVuSans-54"/>
      </g>
     </g>
    </g>
    <g id="text_16">
     <!-- Max JS Divergence within $\epsilon$ -->
     <g transform="translate(416.205 306.099583)scale(0.2 -0.2)">
      <use transform="translate(0 0.015625)" xlink:href="#DejaVuSans-77"/>
      <use transform="translate(86.279297 0.015625)" xlink:href="#DejaVuSans-97"/>
      <use transform="translate(147.558594 0.015625)" xlink:href="#DejaVuSans-120"/>
      <use transform="translate(206.738281 0.015625)" xlink:href="#DejaVuSans-32"/>
      <use transform="translate(238.525391 0.015625)" xlink:href="#DejaVuSans-74"/>
      <use transform="translate(268.017578 0.015625)" xlink:href="#DejaVuSans-83"/>
      <use transform="translate(331.494141 0.015625)" xlink:href="#DejaVuSans-32"/>
      <use transform="translate(363.28125 0.015625)" xlink:href="#DejaVuSans-68"/>
      <use transform="translate(440.283203 0.015625)" xlink:href="#DejaVuSans-105"/>
      <use transform="translate(468.066406 0.015625)" xlink:href="#DejaVuSans-118"/>
      <use transform="translate(527.246094 0.015625)" xlink:href="#DejaVuSans-101"/>
      <use transform="translate(588.769531 0.015625)" xlink:href="#DejaVuSans-114"/>
      <use transform="translate(629.882812 0.015625)" xlink:href="#DejaVuSans-103"/>
      <use transform="translate(693.359375 0.015625)" xlink:href="#DejaVuSans-101"/>
      <use transform="translate(754.882812 0.015625)" xlink:href="#DejaVuSans-110"/>
      <use transform="translate(818.261719 0.015625)" xlink:href="#DejaVuSans-99"/>
      <use transform="translate(873.242188 0.015625)" xlink:href="#DejaVuSans-101"/>
      <use transform="translate(934.765625 0.015625)" xlink:href="#DejaVuSans-32"/>
      <use transform="translate(966.552734 0.015625)" xlink:href="#DejaVuSans-119"/>
      <use transform="translate(1048.339844 0.015625)" xlink:href="#DejaVuSans-105"/>
      <use transform="translate(1076.123047 0.015625)" xlink:href="#DejaVuSans-116"/>
      <use transform="translate(1115.332031 0.015625)" xlink:href="#DejaVuSans-104"/>
      <use transform="translate(1178.710938 0.015625)" xlink:href="#DejaVuSans-105"/>
      <use transform="translate(1206.494141 0.015625)" xlink:href="#DejaVuSans-110"/>
      <use transform="translate(1269.873047 0.015625)" xlink:href="#DejaVuSans-32"/>
      <use transform="translate(1301.660156 0.015625)" xlink:href="#DejaVuSans-Oblique-949"/>
     </g>
    </g>
   </g>
   <g id="matplotlib.axis_4">
    <g id="ytick_7">
     <g id="line2d_15">
      <g>
       <use style="stroke:#000000;stroke-width:1.6;" x="426.643333" xlink:href="#m98bc0b50af" y="33.810417"/>
      </g>
     </g>
     <g id="text_17">
      <!-- [0.00, -->
      <defs>
       <path d="M 8.59375 75.984375 
L 29.296875 75.984375 
L 29.296875 69 
L 17.578125 69 
L 17.578125 -6.203125 
L 29.296875 -6.203125 
L 29.296875 -13.1875 
L 8.59375 -13.1875 
z
" id="DejaVuSans-91"/>
       <path d="M 11.71875 12.40625 
L 22.015625 12.40625 
L 22.015625 4 
L 14.015625 -11.625 
L 7.71875 -11.625 
L 11.71875 4 
z
" id="DejaVuSans-44"/>
      </defs>
      <g transform="translate(353.252708 30.211042)scale(0.2 -0.2)">
       <use xlink:href="#DejaVuSans-91"/>
       <use x="39.013672" xlink:href="#DejaVuSans-48"/>
       <use x="102.636719" xlink:href="#DejaVuSans-46"/>
       <use x="134.423828" xlink:href="#DejaVuSans-48"/>
       <use x="198.046875" xlink:href="#DejaVuSans-48"/>
       <use x="261.669922" xlink:href="#DejaVuSans-44"/>
      </g>
      <!-- 0.25) -->
      <defs>
       <path d="M 10.796875 72.90625 
L 49.515625 72.90625 
L 49.515625 64.59375 
L 19.828125 64.59375 
L 19.828125 46.734375 
Q 21.96875 47.46875 24.109375 47.828125 
Q 26.265625 48.1875 28.421875 48.1875 
Q 40.625 48.1875 47.75 41.5 
Q 54.890625 34.8125 54.890625 23.390625 
Q 54.890625 11.625 47.5625 5.09375 
Q 40.234375 -1.421875 26.90625 -1.421875 
Q 22.3125 -1.421875 17.546875 -0.640625 
Q 12.796875 0.140625 7.71875 1.703125 
L 7.71875 11.625 
Q 12.109375 9.234375 16.796875 8.0625 
Q 21.484375 6.890625 26.703125 6.890625 
Q 35.15625 6.890625 40.078125 11.328125 
Q 45.015625 15.765625 45.015625 23.390625 
Q 45.015625 31 40.078125 35.4375 
Q 35.15625 39.890625 26.703125 39.890625 
Q 22.75 39.890625 18.8125 39.015625 
Q 14.890625 38.140625 10.796875 36.28125 
z
" id="DejaVuSans-53"/>
       <path d="M 8.015625 75.875 
L 15.828125 75.875 
Q 23.140625 64.359375 26.78125 53.3125 
Q 30.421875 42.28125 30.421875 31.390625 
Q 30.421875 20.453125 26.78125 9.375 
Q 23.140625 -1.703125 15.828125 -13.1875 
L 8.015625 -13.1875 
Q 14.5 -2 17.703125 9.0625 
Q 20.90625 20.125 20.90625 31.390625 
Q 20.90625 42.671875 17.703125 53.65625 
Q 14.5 64.65625 8.015625 75.875 
z
" id="DejaVuSans-41"/>
      </defs>
      <g transform="translate(359.608958 52.606667)scale(0.2 -0.2)">
       <use xlink:href="#DejaVuSans-48"/>
       <use x="63.623047" xlink:href="#DejaVuSans-46"/>
       <use x="95.410156" xlink:href="#DejaVuSans-50"/>
       <use x="159.033203" xlink:href="#DejaVuSans-53"/>
       <use x="222.65625" xlink:href="#DejaVuSans-41"/>
      </g>
     </g>
    </g>
    <g id="ytick_8">
     <g id="line2d_16">
      <g>
       <use style="stroke:#000000;stroke-width:1.6;" x="426.643333" xlink:href="#m98bc0b50af" y="96.39125"/>
      </g>
     </g>
     <g id="text_18">
      <!-- [0.25, -->
      <g transform="translate(353.252708 92.791875)scale(0.2 -0.2)">
       <use xlink:href="#DejaVuSans-91"/>
       <use x="39.013672" xlink:href="#DejaVuSans-48"/>
       <use x="102.636719" xlink:href="#DejaVuSans-46"/>
       <use x="134.423828" xlink:href="#DejaVuSans-50"/>
       <use x="198.046875" xlink:href="#DejaVuSans-53"/>
       <use x="261.669922" xlink:href="#DejaVuSans-44"/>
      </g>
      <!-- 0.50) -->
      <g transform="translate(359.608958 115.1875)scale(0.2 -0.2)">
       <use xlink:href="#DejaVuSans-48"/>
       <use x="63.623047" xlink:href="#DejaVuSans-46"/>
       <use x="95.410156" xlink:href="#DejaVuSans-53"/>
       <use x="159.033203" xlink:href="#DejaVuSans-48"/>
       <use x="222.65625" xlink:href="#DejaVuSans-41"/>
      </g>
     </g>
    </g>
    <g id="ytick_9">
     <g id="line2d_17">
      <g>
       <use style="stroke:#000000;stroke-width:1.6;" x="426.643333" xlink:href="#m98bc0b50af" y="158.972083"/>
      </g>
     </g>
     <g id="text_19">
      <!-- [0.50, -->
      <g transform="translate(353.252708 155.372708)scale(0.2 -0.2)">
       <use xlink:href="#DejaVuSans-91"/>
       <use x="39.013672" xlink:href="#DejaVuSans-48"/>
       <use x="102.636719" xlink:href="#DejaVuSans-46"/>
       <use x="134.423828" xlink:href="#DejaVuSans-53"/>
       <use x="198.046875" xlink:href="#DejaVuSans-48"/>
       <use x="261.669922" xlink:href="#DejaVuSans-44"/>
      </g>
      <!-- 0.75) -->
      <defs>
       <path d="M 8.203125 72.90625 
L 55.078125 72.90625 
L 55.078125 68.703125 
L 28.609375 0 
L 18.3125 0 
L 43.21875 64.59375 
L 8.203125 64.59375 
z
" id="DejaVuSans-55"/>
      </defs>
      <g transform="translate(359.608958 177.768333)scale(0.2 -0.2)">
       <use xlink:href="#DejaVuSans-48"/>
       <use x="63.623047" xlink:href="#DejaVuSans-46"/>
       <use x="95.410156" xlink:href="#DejaVuSans-55"/>
       <use x="159.033203" xlink:href="#DejaVuSans-53"/>
       <use x="222.65625" xlink:href="#DejaVuSans-41"/>
      </g>
     </g>
    </g>
    <g id="ytick_10">
     <g id="line2d_18">
      <g>
       <use style="stroke:#000000;stroke-width:1.6;" x="426.643333" xlink:href="#m98bc0b50af" y="221.552917"/>
      </g>
     </g>
     <g id="text_20">
      <!-- [0.75, -->
      <g transform="translate(353.252708 217.953542)scale(0.2 -0.2)">
       <use xlink:href="#DejaVuSans-91"/>
       <use x="39.013672" xlink:href="#DejaVuSans-48"/>
       <use x="102.636719" xlink:href="#DejaVuSans-46"/>
       <use x="134.423828" xlink:href="#DejaVuSans-55"/>
       <use x="198.046875" xlink:href="#DejaVuSans-53"/>
       <use x="261.669922" xlink:href="#DejaVuSans-44"/>
      </g>
      <!-- 1.00) -->
      <g transform="translate(359.608958 240.349167)scale(0.2 -0.2)">
       <use xlink:href="#DejaVuSans-49"/>
       <use x="63.623047" xlink:href="#DejaVuSans-46"/>
       <use x="95.410156" xlink:href="#DejaVuSans-48"/>
       <use x="159.033203" xlink:href="#DejaVuSans-48"/>
       <use x="222.65625" xlink:href="#DejaVuSans-41"/>
      </g>
     </g>
    </g>
    <g id="text_21">
     <!-- Max Attention -->
     <defs>
      <path d="M 34.1875 63.1875 
L 20.796875 26.90625 
L 47.609375 26.90625 
z
M 28.609375 72.90625 
L 39.796875 72.90625 
L 67.578125 0 
L 57.328125 0 
L 50.6875 18.703125 
L 17.828125 18.703125 
L 11.1875 0 
L 0.78125 0 
z
" id="DejaVuSans-65"/>
      <path d="M 30.609375 48.390625 
Q 23.390625 48.390625 19.1875 42.75 
Q 14.984375 37.109375 14.984375 27.296875 
Q 14.984375 17.484375 19.15625 11.84375 
Q 23.34375 6.203125 30.609375 6.203125 
Q 37.796875 6.203125 41.984375 11.859375 
Q 46.1875 17.53125 46.1875 27.296875 
Q 46.1875 37.015625 41.984375 42.703125 
Q 37.796875 48.390625 30.609375 48.390625 
z
M 30.609375 56 
Q 42.328125 56 49.015625 48.375 
Q 55.71875 40.765625 55.71875 27.296875 
Q 55.71875 13.875 49.015625 6.21875 
Q 42.328125 -1.421875 30.609375 -1.421875 
Q 18.84375 -1.421875 12.171875 6.21875 
Q 5.515625 13.875 5.515625 27.296875 
Q 5.515625 40.765625 12.171875 48.375 
Q 18.84375 56 30.609375 56 
z
" id="DejaVuSans-111"/>
     </defs>
     <g transform="translate(345.093333 197.859792)rotate(-90)scale(0.2 -0.2)">
      <use xlink:href="#DejaVuSans-77"/>
      <use x="86.279297" xlink:href="#DejaVuSans-97"/>
      <use x="147.558594" xlink:href="#DejaVuSans-120"/>
      <use x="206.738281" xlink:href="#DejaVuSans-32"/>
      <use x="238.525391" xlink:href="#DejaVuSans-65"/>
      <use x="306.917969" xlink:href="#DejaVuSans-116"/>
      <use x="346.126953" xlink:href="#DejaVuSans-116"/>
      <use x="385.335938" xlink:href="#DejaVuSans-101"/>
      <use x="446.859375" xlink:href="#DejaVuSans-110"/>
      <use x="510.238281" xlink:href="#DejaVuSans-116"/>
      <use x="549.447266" xlink:href="#DejaVuSans-105"/>
      <use x="577.230469" xlink:href="#DejaVuSans-111"/>
      <use x="638.412109" xlink:href="#DejaVuSans-110"/>
     </g>
    </g>
   </g>
   <g id="line2d_19">
    <path clip-path="url(#p1bc8041493)" style="fill:none;stroke:#424242;stroke-dasharray:1.5,1.5;stroke-dashoffset:0;"/>
   </g>
   <g id="line2d_20">
    <path clip-path="url(#p1bc8041493)" style="fill:none;stroke:#424242;stroke-dasharray:3,3;stroke-dashoffset:0;"/>
   </g>
   <g id="line2d_21">
    <path clip-path="url(#p1bc8041493)" style="fill:none;stroke:#424242;stroke-dasharray:1.5,1.5;stroke-dashoffset:0;"/>
   </g>
   <g id="line2d_22">
    <path clip-path="url(#p1bc8041493)" style="fill:none;stroke:#424242;stroke-dasharray:1.5,1.5;stroke-dashoffset:0;"/>
   </g>
   <g id="line2d_23">
    <path clip-path="url(#p1bc8041493)" style="fill:none;stroke:#424242;stroke-dasharray:3,3;stroke-dashoffset:0;"/>
   </g>
   <g id="line2d_24">
    <path clip-path="url(#p1bc8041493)" style="fill:none;stroke:#424242;stroke-dasharray:1.5,1.5;stroke-dashoffset:0;"/>
   </g>
   <g id="line2d_25">
    <path clip-path="url(#p1bc8041493)" style="fill:none;stroke:#424242;stroke-dasharray:1.5,1.5;stroke-dashoffset:0;"/>
   </g>
   <g id="line2d_26">
    <path clip-path="url(#p1bc8041493)" style="fill:none;stroke:#424242;stroke-dasharray:3,3;stroke-dashoffset:0;"/>
   </g>
   <g id="line2d_27">
    <path clip-path="url(#p1bc8041493)" style="fill:none;stroke:#424242;stroke-dasharray:1.5,1.5;stroke-dashoffset:0;"/>
   </g>
   <g id="line2d_28">
    <path clip-path="url(#p1bc8041493)" style="fill:none;stroke:#424242;stroke-dasharray:1.5,1.5;stroke-dashoffset:0;"/>
   </g>
   <g id="line2d_29">
    <path clip-path="url(#p1bc8041493)" style="fill:none;stroke:#424242;stroke-dasharray:3,3;stroke-dashoffset:0;"/>
   </g>
   <g id="line2d_30">
    <path clip-path="url(#p1bc8041493)" style="fill:none;stroke:#424242;stroke-dasharray:1.5,1.5;stroke-dashoffset:0;"/>
   </g>
   <g id="line2d_31">
    <path clip-path="url(#p1bc8041493)" style="fill:none;stroke:#424242;stroke-dasharray:1.5,1.5;stroke-dashoffset:0;"/>
   </g>
   <g id="line2d_32">
    <path clip-path="url(#p1bc8041493)" style="fill:none;stroke:#424242;stroke-dasharray:3,3;stroke-dashoffset:0;"/>
   </g>
   <g id="line2d_33">
    <path clip-path="url(#p1bc8041493)" style="fill:none;stroke:#424242;stroke-dasharray:1.5,1.5;stroke-dashoffset:0;"/>
   </g>
   <g id="line2d_34">
    <path clip-path="url(#p1bc8041493)" style="fill:none;stroke:#424242;stroke-dasharray:1.5,1.5;stroke-dashoffset:0;"/>
   </g>
   <g id="line2d_35">
    <path clip-path="url(#p1bc8041493)" style="fill:none;stroke:#424242;stroke-dasharray:3,3;stroke-dashoffset:0;"/>
   </g>
   <g id="line2d_36">
    <path clip-path="url(#p1bc8041493)" style="fill:none;stroke:#424242;stroke-dasharray:1.5,1.5;stroke-dashoffset:0;"/>
   </g>
   <g id="patch_88">
    <path style="fill:none;stroke:#000000;stroke-linecap:square;stroke-linejoin:miter;stroke-width:0.8;"/>
   </g>
   <g id="patch_89">
    <path style="fill:none;stroke:#000000;stroke-linecap:square;stroke-linejoin:miter;stroke-width:0.8;"/>
   </g>
  </g>
 </g>
 <defs>
  <clipPath id="pb4b7e0d1e6">
   <rect height="250.323333" width="250.323333" x="59.43" y="2.52"/>
  </clipPath>
  <clipPath id="p1bc8041493">
   <rect height="250.323333" width="250.323333" x="426.643333" y="2.52"/>
  </clipPath>
 </defs>
</svg>
