<?xml version="1.0" encoding="utf-8" standalone="no"?>
<!DOCTYPE svg PUBLIC "-//W3C//DTD SVG 1.1//EN"
  "http://www.w3.org/Graphics/SVG/1.1/DTD/svg11.dtd">
<!-- Created with matplotlib (https://matplotlib.org/) -->
<svg height="319.061667pt" version="1.1" viewBox="0 0 323.226536 319.061667" width="323.226536pt" xmlns="http://www.w3.org/2000/svg" xmlns:xlink="http://www.w3.org/1999/xlink">
 <defs>
  <style type="text/css">
*{stroke-linecap:butt;stroke-linejoin:round;}
  </style>
 </defs>
 <g id="figure_1">
  <g id="patch_1">
   <path d="M 0 319.061667 
L 323.226536 319.061667 
L 323.226536 0 
L 0 0 
z
" style="fill:#ffffff;"/>
  </g>
  <g id="axes_1">
   <g id="patch_2">
    <path d="M 59.575 258.361667 
L 314.436667 258.361667 
L 314.436667 3.5 
L 59.575 3.5 
z
" style="fill:#ffffff;"/>
   </g>
   <g id="patch_3">
    <path clip-path="url(#p9f6d4f52d0)" d="M 71.159621 258.361667 
L 76.951932 258.361667 
L 76.951932 258.361667 
L 71.159621 258.361667 
z
" style="fill:#7570b3;opacity:0.6;stroke:#000000;stroke-linejoin:miter;stroke-width:0.5;"/>
   </g>
   <g id="patch_4">
    <path clip-path="url(#p9f6d4f52d0)" d="M 76.951932 258.361667 
L 82.744242 258.361667 
L 82.744242 258.361667 
L 76.951932 258.361667 
z
" style="fill:#7570b3;opacity:0.6;stroke:#000000;stroke-linejoin:miter;stroke-width:0.5;"/>
   </g>
   <g id="patch_5">
    <path clip-path="url(#p9f6d4f52d0)" d="M 82.744242 258.361667 
L 88.536553 258.361667 
L 88.536553 258.361667 
L 82.744242 258.361667 
z
" style="fill:#7570b3;opacity:0.6;stroke:#000000;stroke-linejoin:miter;stroke-width:0.5;"/>
   </g>
   <g id="patch_6">
    <path clip-path="url(#p9f6d4f52d0)" d="M 88.536553 258.361667 
L 94.328864 258.361667 
L 94.328864 258.361667 
L 88.536553 258.361667 
z
" style="fill:#7570b3;opacity:0.6;stroke:#000000;stroke-linejoin:miter;stroke-width:0.5;"/>
   </g>
   <g id="patch_7">
    <path clip-path="url(#p9f6d4f52d0)" d="M 94.328864 258.361667 
L 100.121174 258.361667 
L 100.121174 258.361667 
L 94.328864 258.361667 
z
" style="fill:#7570b3;opacity:0.6;stroke:#000000;stroke-linejoin:miter;stroke-width:0.5;"/>
   </g>
   <g id="patch_8">
    <path clip-path="url(#p9f6d4f52d0)" d="M 100.121174 258.361667 
L 105.913485 258.361667 
L 105.913485 255.954358 
L 100.121174 255.954358 
z
" style="fill:#7570b3;opacity:0.6;stroke:#000000;stroke-linejoin:miter;stroke-width:0.5;"/>
   </g>
   <g id="patch_9">
    <path clip-path="url(#p9f6d4f52d0)" d="M 105.913485 258.361667 
L 111.705795 258.361667 
L 111.705795 258.361667 
L 105.913485 258.361667 
z
" style="fill:#7570b3;opacity:0.6;stroke:#000000;stroke-linejoin:miter;stroke-width:0.5;"/>
   </g>
   <g id="patch_10">
    <path clip-path="url(#p9f6d4f52d0)" d="M 111.705795 258.361667 
L 117.498106 258.361667 
L 117.498106 258.361667 
L 111.705795 258.361667 
z
" style="fill:#7570b3;opacity:0.6;stroke:#000000;stroke-linejoin:miter;stroke-width:0.5;"/>
   </g>
   <g id="patch_11">
    <path clip-path="url(#p9f6d4f52d0)" d="M 117.498106 258.361667 
L 123.290417 258.361667 
L 123.290417 258.361667 
L 117.498106 258.361667 
z
" style="fill:#7570b3;opacity:0.6;stroke:#000000;stroke-linejoin:miter;stroke-width:0.5;"/>
   </g>
   <g id="patch_12">
    <path clip-path="url(#p9f6d4f52d0)" d="M 123.290417 258.361667 
L 129.082727 258.361667 
L 129.082727 253.54705 
L 123.290417 253.54705 
z
" style="fill:#7570b3;opacity:0.6;stroke:#000000;stroke-linejoin:miter;stroke-width:0.5;"/>
   </g>
   <g id="patch_13">
    <path clip-path="url(#p9f6d4f52d0)" d="M 129.082727 258.361667 
L 134.875038 258.361667 
L 134.875038 253.54705 
L 129.082727 253.54705 
z
" style="fill:#7570b3;opacity:0.6;stroke:#000000;stroke-linejoin:miter;stroke-width:0.5;"/>
   </g>
   <g id="patch_14">
    <path clip-path="url(#p9f6d4f52d0)" d="M 134.875038 258.361667 
L 140.667348 258.361667 
L 140.667348 255.954358 
L 134.875038 255.954358 
z
" style="fill:#7570b3;opacity:0.6;stroke:#000000;stroke-linejoin:miter;stroke-width:0.5;"/>
   </g>
   <g id="patch_15">
    <path clip-path="url(#p9f6d4f52d0)" d="M 140.667348 258.361667 
L 146.459659 258.361667 
L 146.459659 253.54705 
L 140.667348 253.54705 
z
" style="fill:#7570b3;opacity:0.6;stroke:#000000;stroke-linejoin:miter;stroke-width:0.5;"/>
   </g>
   <g id="patch_16">
    <path clip-path="url(#p9f6d4f52d0)" d="M 146.459659 258.361667 
L 152.25197 258.361667 
L 152.25197 255.954358 
L 146.459659 255.954358 
z
" style="fill:#7570b3;opacity:0.6;stroke:#000000;stroke-linejoin:miter;stroke-width:0.5;"/>
   </g>
   <g id="patch_17">
    <path clip-path="url(#p9f6d4f52d0)" d="M 152.25197 258.361667 
L 158.04428 258.361667 
L 158.04428 241.510507 
L 152.25197 241.510507 
z
" style="fill:#7570b3;opacity:0.6;stroke:#000000;stroke-linejoin:miter;stroke-width:0.5;"/>
   </g>
   <g id="patch_18">
    <path clip-path="url(#p9f6d4f52d0)" d="M 158.04428 258.361667 
L 163.836591 258.361667 
L 163.836591 241.510507 
L 158.04428 241.510507 
z
" style="fill:#7570b3;opacity:0.6;stroke:#000000;stroke-linejoin:miter;stroke-width:0.5;"/>
   </g>
   <g id="patch_19">
    <path clip-path="url(#p9f6d4f52d0)" d="M 163.836591 258.361667 
L 169.628902 258.361667 
L 169.628902 231.881273 
L 163.836591 231.881273 
z
" style="fill:#7570b3;opacity:0.6;stroke:#000000;stroke-linejoin:miter;stroke-width:0.5;"/>
   </g>
   <g id="patch_20">
    <path clip-path="url(#p9f6d4f52d0)" d="M 169.628902 258.361667 
L 175.421212 258.361667 
L 175.421212 224.659347 
L 169.628902 224.659347 
z
" style="fill:#7570b3;opacity:0.6;stroke:#000000;stroke-linejoin:miter;stroke-width:0.5;"/>
   </g>
   <g id="patch_21">
    <path clip-path="url(#p9f6d4f52d0)" d="M 175.421212 258.361667 
L 181.213523 258.361667 
L 181.213523 222.252038 
L 175.421212 222.252038 
z
" style="fill:#7570b3;opacity:0.6;stroke:#000000;stroke-linejoin:miter;stroke-width:0.5;"/>
   </g>
   <g id="patch_22">
    <path clip-path="url(#p9f6d4f52d0)" d="M 181.213523 258.361667 
L 187.005833 258.361667 
L 187.005833 195.771644 
L 181.213523 195.771644 
z
" style="fill:#7570b3;opacity:0.6;stroke:#000000;stroke-linejoin:miter;stroke-width:0.5;"/>
   </g>
   <g id="patch_23">
    <path clip-path="url(#p9f6d4f52d0)" d="M 187.005833 258.361667 
L 192.798144 258.361667 
L 192.798144 212.622804 
L 187.005833 212.622804 
z
" style="fill:#7570b3;opacity:0.6;stroke:#000000;stroke-linejoin:miter;stroke-width:0.5;"/>
   </g>
   <g id="patch_24">
    <path clip-path="url(#p9f6d4f52d0)" d="M 192.798144 258.361667 
L 198.590455 258.361667 
L 198.590455 186.14241 
L 192.798144 186.14241 
z
" style="fill:#7570b3;opacity:0.6;stroke:#000000;stroke-linejoin:miter;stroke-width:0.5;"/>
   </g>
   <g id="patch_25">
    <path clip-path="url(#p9f6d4f52d0)" d="M 198.590455 258.361667 
L 204.382765 258.361667 
L 204.382765 135.58893 
L 198.590455 135.58893 
z
" style="fill:#7570b3;opacity:0.6;stroke:#000000;stroke-linejoin:miter;stroke-width:0.5;"/>
   </g>
   <g id="patch_26">
    <path clip-path="url(#p9f6d4f52d0)" d="M 204.382765 258.361667 
L 210.175076 258.361667 
L 210.175076 135.58893 
L 204.382765 135.58893 
z
" style="fill:#7570b3;opacity:0.6;stroke:#000000;stroke-linejoin:miter;stroke-width:0.5;"/>
   </g>
   <g id="patch_27">
    <path clip-path="url(#p9f6d4f52d0)" d="M 210.175076 258.361667 
L 215.967386 258.361667 
L 215.967386 101.88661 
L 210.175076 101.88661 
z
" style="fill:#7570b3;opacity:0.6;stroke:#000000;stroke-linejoin:miter;stroke-width:0.5;"/>
   </g>
   <g id="patch_28">
    <path clip-path="url(#p9f6d4f52d0)" d="M 215.967386 258.361667 
L 221.759697 258.361667 
L 221.759697 56.147748 
L 215.967386 56.147748 
z
" style="fill:#7570b3;opacity:0.6;stroke:#000000;stroke-linejoin:miter;stroke-width:0.5;"/>
   </g>
   <g id="patch_29">
    <path clip-path="url(#p9f6d4f52d0)" d="M 221.759697 258.361667 
L 227.552008 258.361667 
L 227.552008 94.664685 
L 221.759697 94.664685 
z
" style="fill:#7570b3;opacity:0.6;stroke:#000000;stroke-linejoin:miter;stroke-width:0.5;"/>
   </g>
   <g id="patch_30">
    <path clip-path="url(#p9f6d4f52d0)" d="M 227.552008 258.361667 
L 233.344318 258.361667 
L 233.344318 82.628142 
L 227.552008 82.628142 
z
" style="fill:#7570b3;opacity:0.6;stroke:#000000;stroke-linejoin:miter;stroke-width:0.5;"/>
   </g>
   <g id="patch_31">
    <path clip-path="url(#p9f6d4f52d0)" d="M 233.344318 258.361667 
L 239.136629 258.361667 
L 239.136629 75.406216 
L 233.344318 75.406216 
z
" style="fill:#7570b3;opacity:0.6;stroke:#000000;stroke-linejoin:miter;stroke-width:0.5;"/>
   </g>
   <g id="patch_32">
    <path clip-path="url(#p9f6d4f52d0)" d="M 239.136629 258.361667 
L 244.928939 258.361667 
L 244.928939 82.628142 
L 239.136629 82.628142 
z
" style="fill:#7570b3;opacity:0.6;stroke:#000000;stroke-linejoin:miter;stroke-width:0.5;"/>
   </g>
   <g id="patch_33">
    <path clip-path="url(#p9f6d4f52d0)" d="M 244.928939 258.361667 
L 250.72125 258.361667 
L 250.72125 68.184291 
L 244.928939 68.184291 
z
" style="fill:#7570b3;opacity:0.6;stroke:#000000;stroke-linejoin:miter;stroke-width:0.5;"/>
   </g>
   <g id="patch_34">
    <path clip-path="url(#p9f6d4f52d0)" d="M 250.72125 258.361667 
L 256.513561 258.361667 
L 256.513561 142.810856 
L 250.72125 142.810856 
z
" style="fill:#7570b3;opacity:0.6;stroke:#000000;stroke-linejoin:miter;stroke-width:0.5;"/>
   </g>
   <g id="patch_35">
    <path clip-path="url(#p9f6d4f52d0)" d="M 256.513561 258.361667 
L 262.305871 258.361667 
L 262.305871 157.254707 
L 256.513561 157.254707 
z
" style="fill:#7570b3;opacity:0.6;stroke:#000000;stroke-linejoin:miter;stroke-width:0.5;"/>
   </g>
   <g id="patch_36">
    <path clip-path="url(#p9f6d4f52d0)" d="M 262.305871 258.361667 
L 268.098182 258.361667 
L 268.098182 186.14241 
L 262.305871 186.14241 
z
" style="fill:#7570b3;opacity:0.6;stroke:#000000;stroke-linejoin:miter;stroke-width:0.5;"/>
   </g>
   <g id="patch_37">
    <path clip-path="url(#p9f6d4f52d0)" d="M 268.098182 258.361667 
L 273.890492 258.361667 
L 273.890492 200.586261 
L 268.098182 200.586261 
z
" style="fill:#7570b3;opacity:0.6;stroke:#000000;stroke-linejoin:miter;stroke-width:0.5;"/>
   </g>
   <g id="patch_38">
    <path clip-path="url(#p9f6d4f52d0)" d="M 273.890492 258.361667 
L 279.682803 258.361667 
L 279.682803 229.473964 
L 273.890492 229.473964 
z
" style="fill:#7570b3;opacity:0.6;stroke:#000000;stroke-linejoin:miter;stroke-width:0.5;"/>
   </g>
   <g id="patch_39">
    <path clip-path="url(#p9f6d4f52d0)" d="M 279.682803 258.361667 
L 285.475114 258.361667 
L 285.475114 251.139741 
L 279.682803 251.139741 
z
" style="fill:#7570b3;opacity:0.6;stroke:#000000;stroke-linejoin:miter;stroke-width:0.5;"/>
   </g>
   <g id="patch_40">
    <path clip-path="url(#p9f6d4f52d0)" d="M 285.475114 258.361667 
L 291.267424 258.361667 
L 291.267424 236.69589 
L 285.475114 236.69589 
z
" style="fill:#7570b3;opacity:0.6;stroke:#000000;stroke-linejoin:miter;stroke-width:0.5;"/>
   </g>
   <g id="patch_41">
    <path clip-path="url(#p9f6d4f52d0)" d="M 291.267424 258.361667 
L 297.059735 258.361667 
L 297.059735 258.361667 
L 291.267424 258.361667 
z
" style="fill:#7570b3;opacity:0.6;stroke:#000000;stroke-linejoin:miter;stroke-width:0.5;"/>
   </g>
   <g id="patch_42">
    <path clip-path="url(#p9f6d4f52d0)" d="M 297.059735 258.361667 
L 302.852045 258.361667 
L 302.852045 258.361667 
L 297.059735 258.361667 
z
" style="fill:#7570b3;opacity:0.6;stroke:#000000;stroke-linejoin:miter;stroke-width:0.5;"/>
   </g>
   <g id="patch_43">
    <path clip-path="url(#p9f6d4f52d0)" d="M 71.159621 258.361667 
L 76.951932 258.361667 
L 76.951932 258.361667 
L 71.159621 258.361667 
z
" style="fill:#d95f02;opacity:0.6;stroke:#000000;stroke-linejoin:miter;stroke-width:0.5;"/>
   </g>
   <g id="patch_44">
    <path clip-path="url(#p9f6d4f52d0)" d="M 76.951932 258.361667 
L 82.744242 258.361667 
L 82.744242 258.361667 
L 76.951932 258.361667 
z
" style="fill:#d95f02;opacity:0.6;stroke:#000000;stroke-linejoin:miter;stroke-width:0.5;"/>
   </g>
   <g id="patch_45">
    <path clip-path="url(#p9f6d4f52d0)" d="M 82.744242 258.361667 
L 88.536553 258.361667 
L 88.536553 258.361667 
L 82.744242 258.361667 
z
" style="fill:#d95f02;opacity:0.6;stroke:#000000;stroke-linejoin:miter;stroke-width:0.5;"/>
   </g>
   <g id="patch_46">
    <path clip-path="url(#p9f6d4f52d0)" d="M 88.536553 258.361667 
L 94.328864 258.361667 
L 94.328864 258.361667 
L 88.536553 258.361667 
z
" style="fill:#d95f02;opacity:0.6;stroke:#000000;stroke-linejoin:miter;stroke-width:0.5;"/>
   </g>
   <g id="patch_47">
    <path clip-path="url(#p9f6d4f52d0)" d="M 94.328864 258.361667 
L 100.121174 258.361667 
L 100.121174 258.361667 
L 94.328864 258.361667 
z
" style="fill:#d95f02;opacity:0.6;stroke:#000000;stroke-linejoin:miter;stroke-width:0.5;"/>
   </g>
   <g id="patch_48">
    <path clip-path="url(#p9f6d4f52d0)" d="M 100.121174 258.361667 
L 105.913485 258.361667 
L 105.913485 258.361667 
L 100.121174 258.361667 
z
" style="fill:#d95f02;opacity:0.6;stroke:#000000;stroke-linejoin:miter;stroke-width:0.5;"/>
   </g>
   <g id="patch_49">
    <path clip-path="url(#p9f6d4f52d0)" d="M 105.913485 258.361667 
L 111.705795 258.361667 
L 111.705795 258.361667 
L 105.913485 258.361667 
z
" style="fill:#d95f02;opacity:0.6;stroke:#000000;stroke-linejoin:miter;stroke-width:0.5;"/>
   </g>
   <g id="patch_50">
    <path clip-path="url(#p9f6d4f52d0)" d="M 111.705795 258.361667 
L 117.498106 258.361667 
L 117.498106 258.361667 
L 111.705795 258.361667 
z
" style="fill:#d95f02;opacity:0.6;stroke:#000000;stroke-linejoin:miter;stroke-width:0.5;"/>
   </g>
   <g id="patch_51">
    <path clip-path="url(#p9f6d4f52d0)" d="M 117.498106 258.361667 
L 123.290417 258.361667 
L 123.290417 255.57172 
L 117.498106 255.57172 
z
" style="fill:#d95f02;opacity:0.6;stroke:#000000;stroke-linejoin:miter;stroke-width:0.5;"/>
   </g>
   <g id="patch_52">
    <path clip-path="url(#p9f6d4f52d0)" d="M 123.290417 258.361667 
L 129.082727 258.361667 
L 129.082727 255.57172 
L 123.290417 255.57172 
z
" style="fill:#d95f02;opacity:0.6;stroke:#000000;stroke-linejoin:miter;stroke-width:0.5;"/>
   </g>
   <g id="patch_53">
    <path clip-path="url(#p9f6d4f52d0)" d="M 129.082727 258.361667 
L 134.875038 258.361667 
L 134.875038 255.57172 
L 129.082727 255.57172 
z
" style="fill:#d95f02;opacity:0.6;stroke:#000000;stroke-linejoin:miter;stroke-width:0.5;"/>
   </g>
   <g id="patch_54">
    <path clip-path="url(#p9f6d4f52d0)" d="M 134.875038 258.361667 
L 140.667348 258.361667 
L 140.667348 255.57172 
L 134.875038 255.57172 
z
" style="fill:#d95f02;opacity:0.6;stroke:#000000;stroke-linejoin:miter;stroke-width:0.5;"/>
   </g>
   <g id="patch_55">
    <path clip-path="url(#p9f6d4f52d0)" d="M 140.667348 258.361667 
L 146.459659 258.361667 
L 146.459659 255.57172 
L 140.667348 255.57172 
z
" style="fill:#d95f02;opacity:0.6;stroke:#000000;stroke-linejoin:miter;stroke-width:0.5;"/>
   </g>
   <g id="patch_56">
    <path clip-path="url(#p9f6d4f52d0)" d="M 146.459659 258.361667 
L 152.25197 258.361667 
L 152.25197 249.991825 
L 146.459659 249.991825 
z
" style="fill:#d95f02;opacity:0.6;stroke:#000000;stroke-linejoin:miter;stroke-width:0.5;"/>
   </g>
   <g id="patch_57">
    <path clip-path="url(#p9f6d4f52d0)" d="M 152.25197 258.361667 
L 158.04428 258.361667 
L 158.04428 247.201878 
L 152.25197 247.201878 
z
" style="fill:#d95f02;opacity:0.6;stroke:#000000;stroke-linejoin:miter;stroke-width:0.5;"/>
   </g>
   <g id="patch_58">
    <path clip-path="url(#p9f6d4f52d0)" d="M 158.04428 258.361667 
L 163.836591 258.361667 
L 163.836591 244.411931 
L 158.04428 244.411931 
z
" style="fill:#d95f02;opacity:0.6;stroke:#000000;stroke-linejoin:miter;stroke-width:0.5;"/>
   </g>
   <g id="patch_59">
    <path clip-path="url(#p9f6d4f52d0)" d="M 163.836591 258.361667 
L 169.628902 258.361667 
L 169.628902 255.57172 
L 163.836591 255.57172 
z
" style="fill:#d95f02;opacity:0.6;stroke:#000000;stroke-linejoin:miter;stroke-width:0.5;"/>
   </g>
   <g id="patch_60">
    <path clip-path="url(#p9f6d4f52d0)" d="M 169.628902 258.361667 
L 175.421212 258.361667 
L 175.421212 233.252143 
L 169.628902 233.252143 
z
" style="fill:#d95f02;opacity:0.6;stroke:#000000;stroke-linejoin:miter;stroke-width:0.5;"/>
   </g>
   <g id="patch_61">
    <path clip-path="url(#p9f6d4f52d0)" d="M 175.421212 258.361667 
L 181.213523 258.361667 
L 181.213523 233.252143 
L 175.421212 233.252143 
z
" style="fill:#d95f02;opacity:0.6;stroke:#000000;stroke-linejoin:miter;stroke-width:0.5;"/>
   </g>
   <g id="patch_62">
    <path clip-path="url(#p9f6d4f52d0)" d="M 181.213523 258.361667 
L 187.005833 258.361667 
L 187.005833 236.04209 
L 181.213523 236.04209 
z
" style="fill:#d95f02;opacity:0.6;stroke:#000000;stroke-linejoin:miter;stroke-width:0.5;"/>
   </g>
   <g id="patch_63">
    <path clip-path="url(#p9f6d4f52d0)" d="M 187.005833 258.361667 
L 192.798144 258.361667 
L 192.798144 216.51246 
L 187.005833 216.51246 
z
" style="fill:#d95f02;opacity:0.6;stroke:#000000;stroke-linejoin:miter;stroke-width:0.5;"/>
   </g>
   <g id="patch_64">
    <path clip-path="url(#p9f6d4f52d0)" d="M 192.798144 258.361667 
L 198.590455 258.361667 
L 198.590455 216.51246 
L 192.798144 216.51246 
z
" style="fill:#d95f02;opacity:0.6;stroke:#000000;stroke-linejoin:miter;stroke-width:0.5;"/>
   </g>
   <g id="patch_65">
    <path clip-path="url(#p9f6d4f52d0)" d="M 198.590455 258.361667 
L 204.382765 258.361667 
L 204.382765 183.033095 
L 198.590455 183.033095 
z
" style="fill:#d95f02;opacity:0.6;stroke:#000000;stroke-linejoin:miter;stroke-width:0.5;"/>
   </g>
   <g id="patch_66">
    <path clip-path="url(#p9f6d4f52d0)" d="M 204.382765 258.361667 
L 210.175076 258.361667 
L 210.175076 157.923571 
L 204.382765 157.923571 
z
" style="fill:#d95f02;opacity:0.6;stroke:#000000;stroke-linejoin:miter;stroke-width:0.5;"/>
   </g>
   <g id="patch_67">
    <path clip-path="url(#p9f6d4f52d0)" d="M 210.175076 258.361667 
L 215.967386 258.361667 
L 215.967386 113.284418 
L 210.175076 113.284418 
z
" style="fill:#d95f02;opacity:0.6;stroke:#000000;stroke-linejoin:miter;stroke-width:0.5;"/>
   </g>
   <g id="patch_68">
    <path clip-path="url(#p9f6d4f52d0)" d="M 215.967386 258.361667 
L 221.759697 258.361667 
L 221.759697 82.595 
L 215.967386 82.595 
z
" style="fill:#d95f02;opacity:0.6;stroke:#000000;stroke-linejoin:miter;stroke-width:0.5;"/>
   </g>
   <g id="patch_69">
    <path clip-path="url(#p9f6d4f52d0)" d="M 221.759697 258.361667 
L 227.552008 258.361667 
L 227.552008 99.334683 
L 221.759697 99.334683 
z
" style="fill:#d95f02;opacity:0.6;stroke:#000000;stroke-linejoin:miter;stroke-width:0.5;"/>
   </g>
   <g id="patch_70">
    <path clip-path="url(#p9f6d4f52d0)" d="M 227.552008 258.361667 
L 233.344318 258.361667 
L 233.344318 82.595 
L 227.552008 82.595 
z
" style="fill:#d95f02;opacity:0.6;stroke:#000000;stroke-linejoin:miter;stroke-width:0.5;"/>
   </g>
   <g id="patch_71">
    <path clip-path="url(#p9f6d4f52d0)" d="M 233.344318 258.361667 
L 239.136629 258.361667 
L 239.136629 68.645265 
L 233.344318 68.645265 
z
" style="fill:#d95f02;opacity:0.6;stroke:#000000;stroke-linejoin:miter;stroke-width:0.5;"/>
   </g>
   <g id="patch_72">
    <path clip-path="url(#p9f6d4f52d0)" d="M 239.136629 258.361667 
L 244.928939 258.361667 
L 244.928939 15.63627 
L 239.136629 15.63627 
z
" style="fill:#d95f02;opacity:0.6;stroke:#000000;stroke-linejoin:miter;stroke-width:0.5;"/>
   </g>
   <g id="patch_73">
    <path clip-path="url(#p9f6d4f52d0)" d="M 244.928939 258.361667 
L 250.72125 258.361667 
L 250.72125 68.645265 
L 244.928939 68.645265 
z
" style="fill:#d95f02;opacity:0.6;stroke:#000000;stroke-linejoin:miter;stroke-width:0.5;"/>
   </g>
   <g id="patch_74">
    <path clip-path="url(#p9f6d4f52d0)" d="M 250.72125 258.361667 
L 256.513561 258.361667 
L 256.513561 118.864312 
L 250.72125 118.864312 
z
" style="fill:#d95f02;opacity:0.6;stroke:#000000;stroke-linejoin:miter;stroke-width:0.5;"/>
   </g>
   <g id="patch_75">
    <path clip-path="url(#p9f6d4f52d0)" d="M 256.513561 258.361667 
L 262.305871 258.361667 
L 262.305871 132.814048 
L 256.513561 132.814048 
z
" style="fill:#d95f02;opacity:0.6;stroke:#000000;stroke-linejoin:miter;stroke-width:0.5;"/>
   </g>
   <g id="patch_76">
    <path clip-path="url(#p9f6d4f52d0)" d="M 262.305871 258.361667 
L 268.098182 258.361667 
L 268.098182 160.713519 
L 262.305871 160.713519 
z
" style="fill:#d95f02;opacity:0.6;stroke:#000000;stroke-linejoin:miter;stroke-width:0.5;"/>
   </g>
   <g id="patch_77">
    <path clip-path="url(#p9f6d4f52d0)" d="M 268.098182 258.361667 
L 273.890492 258.361667 
L 273.890492 196.982831 
L 268.098182 196.982831 
z
" style="fill:#d95f02;opacity:0.6;stroke:#000000;stroke-linejoin:miter;stroke-width:0.5;"/>
   </g>
   <g id="patch_78">
    <path clip-path="url(#p9f6d4f52d0)" d="M 273.890492 258.361667 
L 279.682803 258.361667 
L 279.682803 208.142619 
L 273.890492 208.142619 
z
" style="fill:#d95f02;opacity:0.6;stroke:#000000;stroke-linejoin:miter;stroke-width:0.5;"/>
   </g>
   <g id="patch_79">
    <path clip-path="url(#p9f6d4f52d0)" d="M 279.682803 258.361667 
L 285.475114 258.361667 
L 285.475114 191.402937 
L 279.682803 191.402937 
z
" style="fill:#d95f02;opacity:0.6;stroke:#000000;stroke-linejoin:miter;stroke-width:0.5;"/>
   </g>
   <g id="patch_80">
    <path clip-path="url(#p9f6d4f52d0)" d="M 285.475114 258.361667 
L 291.267424 258.361667 
L 291.267424 230.462196 
L 285.475114 230.462196 
z
" style="fill:#d95f02;opacity:0.6;stroke:#000000;stroke-linejoin:miter;stroke-width:0.5;"/>
   </g>
   <g id="patch_81">
    <path clip-path="url(#p9f6d4f52d0)" d="M 291.267424 258.361667 
L 297.059735 258.361667 
L 297.059735 258.361667 
L 291.267424 258.361667 
z
" style="fill:#d95f02;opacity:0.6;stroke:#000000;stroke-linejoin:miter;stroke-width:0.5;"/>
   </g>
   <g id="patch_82">
    <path clip-path="url(#p9f6d4f52d0)" d="M 297.059735 258.361667 
L 302.852045 258.361667 
L 302.852045 258.361667 
L 297.059735 258.361667 
z
" style="fill:#d95f02;opacity:0.6;stroke:#000000;stroke-linejoin:miter;stroke-width:0.5;"/>
   </g>
   <g id="matplotlib.axis_1">
    <g id="xtick_1">
     <g id="line2d_1">
      <defs>
       <path d="M 0 0 
L 0 3.5 
" id="me1d23ce8ad" style="stroke:#000000;stroke-width:1.6;"/>
      </defs>
      <g>
       <use style="stroke:#000000;stroke-width:1.6;" x="71.159621" xlink:href="#me1d23ce8ad" y="258.361667"/>
      </g>
     </g>
     <g id="text_1">
      <!-- 0.0 -->
      <defs>
       <path d="M 31.78125 66.40625 
Q 24.171875 66.40625 20.328125 58.90625 
Q 16.5 51.421875 16.5 36.375 
Q 16.5 21.390625 20.328125 13.890625 
Q 24.171875 6.390625 31.78125 6.390625 
Q 39.453125 6.390625 43.28125 13.890625 
Q 47.125 21.390625 47.125 36.375 
Q 47.125 51.421875 43.28125 58.90625 
Q 39.453125 66.40625 31.78125 66.40625 
z
M 31.78125 74.21875 
Q 44.046875 74.21875 50.515625 64.515625 
Q 56.984375 54.828125 56.984375 36.375 
Q 56.984375 17.96875 50.515625 8.265625 
Q 44.046875 -1.421875 31.78125 -1.421875 
Q 19.53125 -1.421875 13.0625 8.265625 
Q 6.59375 17.96875 6.59375 36.375 
Q 6.59375 54.828125 13.0625 64.515625 
Q 19.53125 74.21875 31.78125 74.21875 
z
" id="DejaVuSans-48"/>
       <path d="M 10.6875 12.40625 
L 21 12.40625 
L 21 0 
L 10.6875 0 
z
" id="DejaVuSans-46"/>
      </defs>
      <g transform="translate(55.256496 288.258542)scale(0.2 -0.2)">
       <use xlink:href="#DejaVuSans-48"/>
       <use x="63.623047" xlink:href="#DejaVuSans-46"/>
       <use x="95.410156" xlink:href="#DejaVuSans-48"/>
      </g>
     </g>
    </g>
    <g id="xtick_2">
     <g id="line2d_2">
      <g>
       <use style="stroke:#000000;stroke-width:1.6;" x="137.357457" xlink:href="#me1d23ce8ad" y="258.361667"/>
      </g>
     </g>
     <g id="text_2">
      <!-- 0.2 -->
      <defs>
       <path d="M 19.1875 8.296875 
L 53.609375 8.296875 
L 53.609375 0 
L 7.328125 0 
L 7.328125 8.296875 
Q 12.9375 14.109375 22.625 23.890625 
Q 32.328125 33.6875 34.8125 36.53125 
Q 39.546875 41.84375 41.421875 45.53125 
Q 43.3125 49.21875 43.3125 52.78125 
Q 43.3125 58.59375 39.234375 62.25 
Q 35.15625 65.921875 28.609375 65.921875 
Q 23.96875 65.921875 18.8125 64.3125 
Q 13.671875 62.703125 7.8125 59.421875 
L 7.8125 69.390625 
Q 13.765625 71.78125 18.9375 73 
Q 24.125 74.21875 28.421875 74.21875 
Q 39.75 74.21875 46.484375 68.546875 
Q 53.21875 62.890625 53.21875 53.421875 
Q 53.21875 48.921875 51.53125 44.890625 
Q 49.859375 40.875 45.40625 35.40625 
Q 44.1875 33.984375 37.640625 27.21875 
Q 31.109375 20.453125 19.1875 8.296875 
z
" id="DejaVuSans-50"/>
      </defs>
      <g transform="translate(121.454332 288.258542)scale(0.2 -0.2)">
       <use xlink:href="#DejaVuSans-48"/>
       <use x="63.623047" xlink:href="#DejaVuSans-46"/>
       <use x="95.410156" xlink:href="#DejaVuSans-50"/>
      </g>
     </g>
    </g>
    <g id="xtick_3">
     <g id="line2d_3">
      <g>
       <use style="stroke:#000000;stroke-width:1.6;" x="203.555292" xlink:href="#me1d23ce8ad" y="258.361667"/>
      </g>
     </g>
     <g id="text_3">
      <!-- 0.4 -->
      <defs>
       <path d="M 37.796875 64.3125 
L 12.890625 25.390625 
L 37.796875 25.390625 
z
M 35.203125 72.90625 
L 47.609375 72.90625 
L 47.609375 25.390625 
L 58.015625 25.390625 
L 58.015625 17.1875 
L 47.609375 17.1875 
L 47.609375 0 
L 37.796875 0 
L 37.796875 17.1875 
L 4.890625 17.1875 
L 4.890625 26.703125 
z
" id="DejaVuSans-52"/>
      </defs>
      <g transform="translate(187.652167 288.258542)scale(0.2 -0.2)">
       <use xlink:href="#DejaVuSans-48"/>
       <use x="63.623047" xlink:href="#DejaVuSans-46"/>
       <use x="95.410156" xlink:href="#DejaVuSans-52"/>
      </g>
     </g>
    </g>
    <g id="xtick_4">
     <g id="line2d_4">
      <g>
       <use style="stroke:#000000;stroke-width:1.6;" x="269.753128" xlink:href="#me1d23ce8ad" y="258.361667"/>
      </g>
     </g>
     <g id="text_4">
      <!-- 0.6 -->
      <defs>
       <path d="M 33.015625 40.375 
Q 26.375 40.375 22.484375 35.828125 
Q 18.609375 31.296875 18.609375 23.390625 
Q 18.609375 15.53125 22.484375 10.953125 
Q 26.375 6.390625 33.015625 6.390625 
Q 39.65625 6.390625 43.53125 10.953125 
Q 47.40625 15.53125 47.40625 23.390625 
Q 47.40625 31.296875 43.53125 35.828125 
Q 39.65625 40.375 33.015625 40.375 
z
M 52.59375 71.296875 
L 52.59375 62.3125 
Q 48.875 64.0625 45.09375 64.984375 
Q 41.3125 65.921875 37.59375 65.921875 
Q 27.828125 65.921875 22.671875 59.328125 
Q 17.53125 52.734375 16.796875 39.40625 
Q 19.671875 43.65625 24.015625 45.921875 
Q 28.375 48.1875 33.59375 48.1875 
Q 44.578125 48.1875 50.953125 41.515625 
Q 57.328125 34.859375 57.328125 23.390625 
Q 57.328125 12.15625 50.6875 5.359375 
Q 44.046875 -1.421875 33.015625 -1.421875 
Q 20.359375 -1.421875 13.671875 8.265625 
Q 6.984375 17.96875 6.984375 36.375 
Q 6.984375 53.65625 15.1875 63.9375 
Q 23.390625 74.21875 37.203125 74.21875 
Q 40.921875 74.21875 44.703125 73.484375 
Q 48.484375 72.75 52.59375 71.296875 
z
" id="DejaVuSans-54"/>
      </defs>
      <g transform="translate(253.850003 288.258542)scale(0.2 -0.2)">
       <use xlink:href="#DejaVuSans-48"/>
       <use x="63.623047" xlink:href="#DejaVuSans-46"/>
       <use x="95.410156" xlink:href="#DejaVuSans-54"/>
      </g>
     </g>
    </g>
    <g id="text_5">
     <!-- Max JS Divergence within $\epsilon$ -->
     <defs>
      <path d="M 9.8125 72.90625 
L 24.515625 72.90625 
L 43.109375 23.296875 
L 61.8125 72.90625 
L 76.515625 72.90625 
L 76.515625 0 
L 66.890625 0 
L 66.890625 64.015625 
L 48.09375 14.015625 
L 38.1875 14.015625 
L 19.390625 64.015625 
L 19.390625 0 
L 9.8125 0 
z
" id="DejaVuSans-77"/>
      <path d="M 34.28125 27.484375 
Q 23.390625 27.484375 19.1875 25 
Q 14.984375 22.515625 14.984375 16.5 
Q 14.984375 11.71875 18.140625 8.90625 
Q 21.296875 6.109375 26.703125 6.109375 
Q 34.1875 6.109375 38.703125 11.40625 
Q 43.21875 16.703125 43.21875 25.484375 
L 43.21875 27.484375 
z
M 52.203125 31.203125 
L 52.203125 0 
L 43.21875 0 
L 43.21875 8.296875 
Q 40.140625 3.328125 35.546875 0.953125 
Q 30.953125 -1.421875 24.3125 -1.421875 
Q 15.921875 -1.421875 10.953125 3.296875 
Q 6 8.015625 6 15.921875 
Q 6 25.140625 12.171875 29.828125 
Q 18.359375 34.515625 30.609375 34.515625 
L 43.21875 34.515625 
L 43.21875 35.40625 
Q 43.21875 41.609375 39.140625 45 
Q 35.0625 48.390625 27.6875 48.390625 
Q 23 48.390625 18.546875 47.265625 
Q 14.109375 46.140625 10.015625 43.890625 
L 10.015625 52.203125 
Q 14.9375 54.109375 19.578125 55.046875 
Q 24.21875 56 28.609375 56 
Q 40.484375 56 46.34375 49.84375 
Q 52.203125 43.703125 52.203125 31.203125 
z
" id="DejaVuSans-97"/>
      <path d="M 54.890625 54.6875 
L 35.109375 28.078125 
L 55.90625 0 
L 45.3125 0 
L 29.390625 21.484375 
L 13.484375 0 
L 2.875 0 
L 24.125 28.609375 
L 4.6875 54.6875 
L 15.28125 54.6875 
L 29.78125 35.203125 
L 44.28125 54.6875 
z
" id="DejaVuSans-120"/>
      <path id="DejaVuSans-32"/>
      <path d="M 9.8125 72.90625 
L 19.671875 72.90625 
L 19.671875 5.078125 
Q 19.671875 -8.109375 14.671875 -14.0625 
Q 9.671875 -20.015625 -1.421875 -20.015625 
L -5.171875 -20.015625 
L -5.171875 -11.71875 
L -2.09375 -11.71875 
Q 4.4375 -11.71875 7.125 -8.046875 
Q 9.8125 -4.390625 9.8125 5.078125 
z
" id="DejaVuSans-74"/>
      <path d="M 53.515625 70.515625 
L 53.515625 60.890625 
Q 47.90625 63.578125 42.921875 64.890625 
Q 37.9375 66.21875 33.296875 66.21875 
Q 25.25 66.21875 20.875 63.09375 
Q 16.5 59.96875 16.5 54.203125 
Q 16.5 49.359375 19.40625 46.890625 
Q 22.3125 44.4375 30.421875 42.921875 
L 36.375 41.703125 
Q 47.40625 39.59375 52.65625 34.296875 
Q 57.90625 29 57.90625 20.125 
Q 57.90625 9.515625 50.796875 4.046875 
Q 43.703125 -1.421875 29.984375 -1.421875 
Q 24.8125 -1.421875 18.96875 -0.25 
Q 13.140625 0.921875 6.890625 3.21875 
L 6.890625 13.375 
Q 12.890625 10.015625 18.65625 8.296875 
Q 24.421875 6.59375 29.984375 6.59375 
Q 38.421875 6.59375 43.015625 9.90625 
Q 47.609375 13.234375 47.609375 19.390625 
Q 47.609375 24.75 44.3125 27.78125 
Q 41.015625 30.8125 33.5 32.328125 
L 27.484375 33.5 
Q 16.453125 35.6875 11.515625 40.375 
Q 6.59375 45.0625 6.59375 53.421875 
Q 6.59375 63.09375 13.40625 68.65625 
Q 20.21875 74.21875 32.171875 74.21875 
Q 37.3125 74.21875 42.625 73.28125 
Q 47.953125 72.359375 53.515625 70.515625 
z
" id="DejaVuSans-83"/>
      <path d="M 19.671875 64.796875 
L 19.671875 8.109375 
L 31.59375 8.109375 
Q 46.6875 8.109375 53.6875 14.9375 
Q 60.6875 21.78125 60.6875 36.53125 
Q 60.6875 51.171875 53.6875 57.984375 
Q 46.6875 64.796875 31.59375 64.796875 
z
M 9.8125 72.90625 
L 30.078125 72.90625 
Q 51.265625 72.90625 61.171875 64.09375 
Q 71.09375 55.28125 71.09375 36.53125 
Q 71.09375 17.671875 61.125 8.828125 
Q 51.171875 0 30.078125 0 
L 9.8125 0 
z
" id="DejaVuSans-68"/>
      <path d="M 9.421875 54.6875 
L 18.40625 54.6875 
L 18.40625 0 
L 9.421875 0 
z
M 9.421875 75.984375 
L 18.40625 75.984375 
L 18.40625 64.59375 
L 9.421875 64.59375 
z
" id="DejaVuSans-105"/>
      <path d="M 2.984375 54.6875 
L 12.5 54.6875 
L 29.59375 8.796875 
L 46.6875 54.6875 
L 56.203125 54.6875 
L 35.6875 0 
L 23.484375 0 
z
" id="DejaVuSans-118"/>
      <path d="M 56.203125 29.59375 
L 56.203125 25.203125 
L 14.890625 25.203125 
Q 15.484375 15.921875 20.484375 11.0625 
Q 25.484375 6.203125 34.421875 6.203125 
Q 39.59375 6.203125 44.453125 7.46875 
Q 49.3125 8.734375 54.109375 11.28125 
L 54.109375 2.78125 
Q 49.265625 0.734375 44.1875 -0.34375 
Q 39.109375 -1.421875 33.890625 -1.421875 
Q 20.796875 -1.421875 13.15625 6.1875 
Q 5.515625 13.8125 5.515625 26.8125 
Q 5.515625 40.234375 12.765625 48.109375 
Q 20.015625 56 32.328125 56 
Q 43.359375 56 49.78125 48.890625 
Q 56.203125 41.796875 56.203125 29.59375 
z
M 47.21875 32.234375 
Q 47.125 39.59375 43.09375 43.984375 
Q 39.0625 48.390625 32.421875 48.390625 
Q 24.90625 48.390625 20.390625 44.140625 
Q 15.875 39.890625 15.1875 32.171875 
z
" id="DejaVuSans-101"/>
      <path d="M 41.109375 46.296875 
Q 39.59375 47.171875 37.8125 47.578125 
Q 36.03125 48 33.890625 48 
Q 26.265625 48 22.1875 43.046875 
Q 18.109375 38.09375 18.109375 28.8125 
L 18.109375 0 
L 9.078125 0 
L 9.078125 54.6875 
L 18.109375 54.6875 
L 18.109375 46.1875 
Q 20.953125 51.171875 25.484375 53.578125 
Q 30.03125 56 36.53125 56 
Q 37.453125 56 38.578125 55.875 
Q 39.703125 55.765625 41.0625 55.515625 
z
" id="DejaVuSans-114"/>
      <path d="M 45.40625 27.984375 
Q 45.40625 37.75 41.375 43.109375 
Q 37.359375 48.484375 30.078125 48.484375 
Q 22.859375 48.484375 18.828125 43.109375 
Q 14.796875 37.75 14.796875 27.984375 
Q 14.796875 18.265625 18.828125 12.890625 
Q 22.859375 7.515625 30.078125 7.515625 
Q 37.359375 7.515625 41.375 12.890625 
Q 45.40625 18.265625 45.40625 27.984375 
z
M 54.390625 6.78125 
Q 54.390625 -7.171875 48.1875 -13.984375 
Q 42 -20.796875 29.203125 -20.796875 
Q 24.46875 -20.796875 20.265625 -20.09375 
Q 16.0625 -19.390625 12.109375 -17.921875 
L 12.109375 -9.1875 
Q 16.0625 -11.328125 19.921875 -12.34375 
Q 23.78125 -13.375 27.78125 -13.375 
Q 36.625 -13.375 41.015625 -8.765625 
Q 45.40625 -4.15625 45.40625 5.171875 
L 45.40625 9.625 
Q 42.625 4.78125 38.28125 2.390625 
Q 33.9375 0 27.875 0 
Q 17.828125 0 11.671875 7.65625 
Q 5.515625 15.328125 5.515625 27.984375 
Q 5.515625 40.671875 11.671875 48.328125 
Q 17.828125 56 27.875 56 
Q 33.9375 56 38.28125 53.609375 
Q 42.625 51.21875 45.40625 46.390625 
L 45.40625 54.6875 
L 54.390625 54.6875 
z
" id="DejaVuSans-103"/>
      <path d="M 54.890625 33.015625 
L 54.890625 0 
L 45.90625 0 
L 45.90625 32.71875 
Q 45.90625 40.484375 42.875 44.328125 
Q 39.84375 48.1875 33.796875 48.1875 
Q 26.515625 48.1875 22.3125 43.546875 
Q 18.109375 38.921875 18.109375 30.90625 
L 18.109375 0 
L 9.078125 0 
L 9.078125 54.6875 
L 18.109375 54.6875 
L 18.109375 46.1875 
Q 21.34375 51.125 25.703125 53.5625 
Q 30.078125 56 35.796875 56 
Q 45.21875 56 50.046875 50.171875 
Q 54.890625 44.34375 54.890625 33.015625 
z
" id="DejaVuSans-110"/>
      <path d="M 48.78125 52.59375 
L 48.78125 44.1875 
Q 44.96875 46.296875 41.140625 47.34375 
Q 37.3125 48.390625 33.40625 48.390625 
Q 24.65625 48.390625 19.8125 42.84375 
Q 14.984375 37.3125 14.984375 27.296875 
Q 14.984375 17.28125 19.8125 11.734375 
Q 24.65625 6.203125 33.40625 6.203125 
Q 37.3125 6.203125 41.140625 7.25 
Q 44.96875 8.296875 48.78125 10.40625 
L 48.78125 2.09375 
Q 45.015625 0.34375 40.984375 -0.53125 
Q 36.96875 -1.421875 32.421875 -1.421875 
Q 20.0625 -1.421875 12.78125 6.34375 
Q 5.515625 14.109375 5.515625 27.296875 
Q 5.515625 40.671875 12.859375 48.328125 
Q 20.21875 56 33.015625 56 
Q 37.15625 56 41.109375 55.140625 
Q 45.0625 54.296875 48.78125 52.59375 
z
" id="DejaVuSans-99"/>
      <path d="M 4.203125 54.6875 
L 13.1875 54.6875 
L 24.421875 12.015625 
L 35.59375 54.6875 
L 46.1875 54.6875 
L 57.421875 12.015625 
L 68.609375 54.6875 
L 77.59375 54.6875 
L 63.28125 0 
L 52.6875 0 
L 40.921875 44.828125 
L 29.109375 0 
L 18.5 0 
z
" id="DejaVuSans-119"/>
      <path d="M 18.3125 70.21875 
L 18.3125 54.6875 
L 36.8125 54.6875 
L 36.8125 47.703125 
L 18.3125 47.703125 
L 18.3125 18.015625 
Q 18.3125 11.328125 20.140625 9.421875 
Q 21.96875 7.515625 27.59375 7.515625 
L 36.8125 7.515625 
L 36.8125 0 
L 27.59375 0 
Q 17.1875 0 13.234375 3.875 
Q 9.28125 7.765625 9.28125 18.015625 
L 9.28125 47.703125 
L 2.6875 47.703125 
L 2.6875 54.6875 
L 9.28125 54.6875 
L 9.28125 70.21875 
z
" id="DejaVuSans-116"/>
      <path d="M 54.890625 33.015625 
L 54.890625 0 
L 45.90625 0 
L 45.90625 32.71875 
Q 45.90625 40.484375 42.875 44.328125 
Q 39.84375 48.1875 33.796875 48.1875 
Q 26.515625 48.1875 22.3125 43.546875 
Q 18.109375 38.921875 18.109375 30.90625 
L 18.109375 0 
L 9.078125 0 
L 9.078125 75.984375 
L 18.109375 75.984375 
L 18.109375 46.1875 
Q 21.34375 51.125 25.703125 53.5625 
Q 30.078125 56 35.796875 56 
Q 45.21875 56 50.046875 50.171875 
Q 54.890625 44.34375 54.890625 33.015625 
z
" id="DejaVuSans-104"/>
      <path d="M 19.734375 29.5 
Q 14.453125 30.671875 12.15625 33.84375 
Q 10.453125 36.078125 10.453125 39.109375 
Q 10.453125 47.40625 18.359375 52.25 
Q 24.609375 56.0625 34.1875 56.0625 
Q 37.890625 56.0625 41.9375 55.46875 
Q 46 54.890625 50.53125 53.71875 
L 48.96875 45.5625 
Q 44.484375 46.96875 40.71875 47.609375 
Q 36.859375 48.25 33.40625 48.25 
Q 27.59375 48.25 23.78125 46 
Q 19.1875 43.3125 19.1875 39.40625 
Q 19.1875 36.8125 21.578125 35.015625 
Q 24.421875 32.859375 30.078125 32.859375 
L 37.640625 32.859375 
L 36.234375 25.4375 
L 29 25.4375 
Q 22.265625 25.4375 18.3125 22.953125 
Q 12.9375 19.578125 12.9375 14.3125 
Q 12.9375 10.984375 15.828125 8.796875 
Q 19.4375 6.0625 26.8125 6.0625 
Q 31.34375 6.0625 35.6875 6.9375 
Q 40.046875 7.859375 43.84375 9.671875 
L 42.1875 1.3125 
Q 37.546875 -0.046875 33.296875 -0.734375 
Q 29.046875 -1.421875 25.140625 -1.421875 
Q 13.53125 -1.421875 8.0625 3.03125 
Q 3.90625 6.453125 3.90625 12.203125 
Q 3.90625 19.96875 9.375 24.75 
Q 13.421875 28.328125 19.734375 29.5 
z
" id="DejaVuSans-Oblique-949"/>
     </defs>
     <g transform="translate(51.405833 311.617917)scale(0.2 -0.2)">
      <use transform="translate(0 0.015625)" xlink:href="#DejaVuSans-77"/>
      <use transform="translate(86.279297 0.015625)" xlink:href="#DejaVuSans-97"/>
      <use transform="translate(147.558594 0.015625)" xlink:href="#DejaVuSans-120"/>
      <use transform="translate(206.738281 0.015625)" xlink:href="#DejaVuSans-32"/>
      <use transform="translate(238.525391 0.015625)" xlink:href="#DejaVuSans-74"/>
      <use transform="translate(268.017578 0.015625)" xlink:href="#DejaVuSans-83"/>
      <use transform="translate(331.494141 0.015625)" xlink:href="#DejaVuSans-32"/>
      <use transform="translate(363.28125 0.015625)" xlink:href="#DejaVuSans-68"/>
      <use transform="translate(440.283203 0.015625)" xlink:href="#DejaVuSans-105"/>
      <use transform="translate(468.066406 0.015625)" xlink:href="#DejaVuSans-118"/>
      <use transform="translate(527.246094 0.015625)" xlink:href="#DejaVuSans-101"/>
      <use transform="translate(588.769531 0.015625)" xlink:href="#DejaVuSans-114"/>
      <use transform="translate(629.882812 0.015625)" xlink:href="#DejaVuSans-103"/>
      <use transform="translate(693.359375 0.015625)" xlink:href="#DejaVuSans-101"/>
      <use transform="translate(754.882812 0.015625)" xlink:href="#DejaVuSans-110"/>
      <use transform="translate(818.261719 0.015625)" xlink:href="#DejaVuSans-99"/>
      <use transform="translate(873.242188 0.015625)" xlink:href="#DejaVuSans-101"/>
      <use transform="translate(934.765625 0.015625)" xlink:href="#DejaVuSans-32"/>
      <use transform="translate(966.552734 0.015625)" xlink:href="#DejaVuSans-119"/>
      <use transform="translate(1048.339844 0.015625)" xlink:href="#DejaVuSans-105"/>
      <use transform="translate(1076.123047 0.015625)" xlink:href="#DejaVuSans-116"/>
      <use transform="translate(1115.332031 0.015625)" xlink:href="#DejaVuSans-104"/>
      <use transform="translate(1178.710938 0.015625)" xlink:href="#DejaVuSans-105"/>
      <use transform="translate(1206.494141 0.015625)" xlink:href="#DejaVuSans-110"/>
      <use transform="translate(1269.873047 0.015625)" xlink:href="#DejaVuSans-32"/>
      <use transform="translate(1301.660156 0.015625)" xlink:href="#DejaVuSans-Oblique-949"/>
     </g>
    </g>
   </g>
   <g id="matplotlib.axis_2">
    <g id="ytick_1">
     <g id="line2d_5">
      <defs>
       <path d="M 0 0 
L -3.5 0 
" id="m50ef67e96e" style="stroke:#000000;stroke-width:1.6;"/>
      </defs>
      <g>
       <use style="stroke:#000000;stroke-width:1.6;" x="59.575" xlink:href="#m50ef67e96e" y="258.361667"/>
      </g>
     </g>
     <g id="text_6">
      <!-- 0.00 -->
      <g transform="translate(0.34375 265.960104)scale(0.2 -0.2)">
       <use xlink:href="#DejaVuSans-48"/>
       <use x="63.623047" xlink:href="#DejaVuSans-46"/>
       <use x="95.410156" xlink:href="#DejaVuSans-48"/>
       <use x="159.033203" xlink:href="#DejaVuSans-48"/>
      </g>
     </g>
    </g>
    <g id="ytick_2">
     <g id="line2d_6">
      <g>
       <use style="stroke:#000000;stroke-width:1.6;" x="59.575" xlink:href="#m50ef67e96e" y="213.778312"/>
      </g>
     </g>
     <g id="text_7">
      <!-- 0.02 -->
      <g transform="translate(0.34375 221.37675)scale(0.2 -0.2)">
       <use xlink:href="#DejaVuSans-48"/>
       <use x="63.623047" xlink:href="#DejaVuSans-46"/>
       <use x="95.410156" xlink:href="#DejaVuSans-48"/>
       <use x="159.033203" xlink:href="#DejaVuSans-50"/>
      </g>
     </g>
    </g>
    <g id="ytick_3">
     <g id="line2d_7">
      <g>
       <use style="stroke:#000000;stroke-width:1.6;" x="59.575" xlink:href="#m50ef67e96e" y="169.194958"/>
      </g>
     </g>
     <g id="text_8">
      <!-- 0.04 -->
      <g transform="translate(0.34375 176.793395)scale(0.2 -0.2)">
       <use xlink:href="#DejaVuSans-48"/>
       <use x="63.623047" xlink:href="#DejaVuSans-46"/>
       <use x="95.410156" xlink:href="#DejaVuSans-48"/>
       <use x="159.033203" xlink:href="#DejaVuSans-52"/>
      </g>
     </g>
    </g>
    <g id="ytick_4">
     <g id="line2d_8">
      <g>
       <use style="stroke:#000000;stroke-width:1.6;" x="59.575" xlink:href="#m50ef67e96e" y="124.611603"/>
      </g>
     </g>
     <g id="text_9">
      <!-- 0.06 -->
      <g transform="translate(0.34375 132.210041)scale(0.2 -0.2)">
       <use xlink:href="#DejaVuSans-48"/>
       <use x="63.623047" xlink:href="#DejaVuSans-46"/>
       <use x="95.410156" xlink:href="#DejaVuSans-48"/>
       <use x="159.033203" xlink:href="#DejaVuSans-54"/>
      </g>
     </g>
    </g>
    <g id="ytick_5">
     <g id="line2d_9">
      <g>
       <use style="stroke:#000000;stroke-width:1.6;" x="59.575" xlink:href="#m50ef67e96e" y="80.028249"/>
      </g>
     </g>
     <g id="text_10">
      <!-- 0.08 -->
      <defs>
       <path d="M 31.78125 34.625 
Q 24.75 34.625 20.71875 30.859375 
Q 16.703125 27.09375 16.703125 20.515625 
Q 16.703125 13.921875 20.71875 10.15625 
Q 24.75 6.390625 31.78125 6.390625 
Q 38.8125 6.390625 42.859375 10.171875 
Q 46.921875 13.96875 46.921875 20.515625 
Q 46.921875 27.09375 42.890625 30.859375 
Q 38.875 34.625 31.78125 34.625 
z
M 21.921875 38.8125 
Q 15.578125 40.375 12.03125 44.71875 
Q 8.5 49.078125 8.5 55.328125 
Q 8.5 64.0625 14.71875 69.140625 
Q 20.953125 74.21875 31.78125 74.21875 
Q 42.671875 74.21875 48.875 69.140625 
Q 55.078125 64.0625 55.078125 55.328125 
Q 55.078125 49.078125 51.53125 44.71875 
Q 48 40.375 41.703125 38.8125 
Q 48.828125 37.15625 52.796875 32.3125 
Q 56.78125 27.484375 56.78125 20.515625 
Q 56.78125 9.90625 50.3125 4.234375 
Q 43.84375 -1.421875 31.78125 -1.421875 
Q 19.734375 -1.421875 13.25 4.234375 
Q 6.78125 9.90625 6.78125 20.515625 
Q 6.78125 27.484375 10.78125 32.3125 
Q 14.796875 37.15625 21.921875 38.8125 
z
M 18.3125 54.390625 
Q 18.3125 48.734375 21.84375 45.5625 
Q 25.390625 42.390625 31.78125 42.390625 
Q 38.140625 42.390625 41.71875 45.5625 
Q 45.3125 48.734375 45.3125 54.390625 
Q 45.3125 60.0625 41.71875 63.234375 
Q 38.140625 66.40625 31.78125 66.40625 
Q 25.390625 66.40625 21.84375 63.234375 
Q 18.3125 60.0625 18.3125 54.390625 
z
" id="DejaVuSans-56"/>
      </defs>
      <g transform="translate(0.34375 87.626686)scale(0.2 -0.2)">
       <use xlink:href="#DejaVuSans-48"/>
       <use x="63.623047" xlink:href="#DejaVuSans-46"/>
       <use x="95.410156" xlink:href="#DejaVuSans-48"/>
       <use x="159.033203" xlink:href="#DejaVuSans-56"/>
      </g>
     </g>
    </g>
    <g id="ytick_6">
     <g id="line2d_10">
      <g>
       <use style="stroke:#000000;stroke-width:1.6;" x="59.575" xlink:href="#m50ef67e96e" y="35.444894"/>
      </g>
     </g>
     <g id="text_11">
      <!-- 0.10 -->
      <defs>
       <path d="M 12.40625 8.296875 
L 28.515625 8.296875 
L 28.515625 63.921875 
L 10.984375 60.40625 
L 10.984375 69.390625 
L 28.421875 72.90625 
L 38.28125 72.90625 
L 38.28125 8.296875 
L 54.390625 8.296875 
L 54.390625 0 
L 12.40625 0 
z
" id="DejaVuSans-49"/>
      </defs>
      <g transform="translate(0.34375 43.043332)scale(0.2 -0.2)">
       <use xlink:href="#DejaVuSans-48"/>
       <use x="63.623047" xlink:href="#DejaVuSans-46"/>
       <use x="95.410156" xlink:href="#DejaVuSans-49"/>
       <use x="159.033203" xlink:href="#DejaVuSans-48"/>
      </g>
     </g>
    </g>
   </g>
   <g id="patch_83">
    <path d="M 59.575 258.361667 
L 59.575 3.5 
" style="fill:none;stroke:#000000;stroke-linecap:square;stroke-linejoin:miter;stroke-width:0.8;"/>
   </g>
   <g id="patch_84">
    <path d="M 59.575 258.361667 
L 314.436667 258.361667 
" style="fill:none;stroke:#000000;stroke-linecap:square;stroke-linejoin:miter;stroke-width:0.8;"/>
   </g>
  </g>
  <g id="axes_2">
   <g id="patch_85">
    <path d="M 425.796667 258.361667 
L 680.658333 258.361667 
L 680.658333 3.5 
L 425.796667 3.5 
z
" style="fill:#ffffff;"/>
   </g>
   <g id="PolyCollection_1">
    <defs>
     <path d="M 536.499447 -296.170013 
L 536.499447 -296.72407 
L 537.834786 -296.776746 
L 539.170124 -296.83044 
L 540.505463 -296.882656 
L 541.840802 -296.930814 
L 543.17614 -296.972713 
L 544.511479 -297.007058 
L 545.846817 -297.03392 
L 547.182156 -297.054998 
L 548.517494 -297.07358 
L 549.852833 -297.094187 
L 551.188172 -297.121957 
L 552.52351 -297.161931 
L 553.858849 -297.218426 
L 555.194187 -297.294659 
L 556.529526 -297.392714 
L 557.864864 -297.513817 
L 559.200203 -297.65878 
L 560.535541 -297.828415 
L 561.87088 -298.023732 
L 563.206219 -298.245818 
L 564.541557 -298.49542 
L 565.876896 -298.772397 
L 567.212234 -299.07525 
L 568.547573 -299.400967 
L 569.882911 -299.745296 
L 571.21825 -300.103463 
L 572.553589 -300.471161 
L 573.888927 -300.845568 
L 575.224266 -301.226093 
L 576.559604 -301.614608 
L 577.894943 -302.01504 
L 579.230281 -302.432354 
L 580.56562 -302.871144 
L 581.900959 -303.334128 
L 583.236297 -303.82092 
L 584.571636 -304.327382 
L 585.906974 -304.84571 
L 587.242313 -305.365258 
L 588.577651 -305.873896 
L 589.91299 -306.359617 
L 591.248329 -306.812032 
L 592.583667 -307.223482 
L 593.919006 -307.589582 
L 595.254344 -307.909148 
L 596.589683 -308.183622 
L 597.925021 -308.416137 
L 599.26036 -308.61047 
L 600.595698 -308.770105 
L 601.931037 -308.89757 
L 603.266376 -308.994175 
L 604.601714 -309.060151 
L 605.937053 -309.095096 
L 607.272391 -309.098549 
L 608.60773 -309.070494 
L 609.943068 -309.011629 
L 611.278407 -308.923316 
L 612.613746 -308.807254 
L 613.949084 -308.665015 
L 615.284423 -308.49759 
L 616.619761 -308.305107 
L 617.9551 -308.086795 
L 619.290438 -307.8412 
L 620.625777 -307.566619 
L 621.961116 -307.261669 
L 623.296454 -306.925909 
L 624.631793 -306.560411 
L 625.967131 -306.168174 
L 627.30247 -305.754245 
L 628.637808 -305.325482 
L 629.973147 -304.889919 
L 631.308486 -304.455835 
L 632.643824 -304.030695 
L 633.979163 -303.620206 
L 635.314501 -303.227667 
L 636.64984 -302.853749 
L 637.985178 -302.49668 
L 639.320517 -302.152762 
L 640.655855 -301.817091 
L 641.991194 -301.484383 
L 643.326533 -301.149825 
L 644.661871 -300.809908 
L 645.99721 -300.463139 
L 647.332548 -300.110552 
L 648.667887 -299.755862 
L 650.003225 -299.405202 
L 651.338564 -299.066408 
L 652.673903 -298.747961 
L 654.009241 -298.457752 
L 655.34458 -298.201897 
L 656.679918 -297.98381 
L 658.015257 -297.803705 
L 659.350595 -297.658592 
L 660.685934 -297.542781 
L 662.021273 -297.448791 
L 663.356611 -297.368512 
L 664.69195 -297.294405 
L 666.027288 -297.220538 
L 667.362627 -297.143263 
L 668.697965 -297.06143 
L 668.697965 -295.832653 
L 668.697965 -295.832653 
L 667.362627 -295.750821 
L 666.027288 -295.673546 
L 664.69195 -295.599679 
L 663.356611 -295.525571 
L 662.021273 -295.445292 
L 660.685934 -295.351303 
L 659.350595 -295.235492 
L 658.015257 -295.090379 
L 656.679918 -294.910273 
L 655.34458 -294.692187 
L 654.009241 -294.436331 
L 652.673903 -294.146123 
L 651.338564 -293.827676 
L 650.003225 -293.488882 
L 648.667887 -293.138221 
L 647.332548 -292.783532 
L 645.99721 -292.430944 
L 644.661871 -292.084176 
L 643.326533 -291.744258 
L 641.991194 -291.409701 
L 640.655855 -291.076992 
L 639.320517 -290.741321 
L 637.985178 -290.397403 
L 636.64984 -290.040334 
L 635.314501 -289.666416 
L 633.979163 -289.273877 
L 632.643824 -288.863388 
L 631.308486 -288.438249 
L 629.973147 -288.004164 
L 628.637808 -287.568601 
L 627.30247 -287.139838 
L 625.967131 -286.725909 
L 624.631793 -286.333672 
L 623.296454 -285.968175 
L 621.961116 -285.632414 
L 620.625777 -285.327465 
L 619.290438 -285.052884 
L 617.9551 -284.807289 
L 616.619761 -284.588976 
L 615.284423 -284.396494 
L 613.949084 -284.229069 
L 612.613746 -284.086829 
L 611.278407 -283.970768 
L 609.943068 -283.882454 
L 608.60773 -283.823589 
L 607.272391 -283.795535 
L 605.937053 -283.798987 
L 604.601714 -283.833932 
L 603.266376 -283.899909 
L 601.931037 -283.996514 
L 600.595698 -284.123978 
L 599.26036 -284.283613 
L 597.925021 -284.477947 
L 596.589683 -284.710461 
L 595.254344 -284.984935 
L 593.919006 -285.304502 
L 592.583667 -285.670601 
L 591.248329 -286.082051 
L 589.91299 -286.534466 
L 588.577651 -287.020187 
L 587.242313 -287.528825 
L 585.906974 -288.048373 
L 584.571636 -288.566701 
L 583.236297 -289.073163 
L 581.900959 -289.559955 
L 580.56562 -290.022939 
L 579.230281 -290.461729 
L 577.894943 -290.879044 
L 576.559604 -291.279475 
L 575.224266 -291.66799 
L 573.888927 -292.048515 
L 572.553589 -292.422922 
L 571.21825 -292.79062 
L 569.882911 -293.148787 
L 568.547573 -293.493116 
L 567.212234 -293.818833 
L 565.876896 -294.121687 
L 564.541557 -294.398663 
L 563.206219 -294.648266 
L 561.87088 -294.870351 
L 560.535541 -295.065668 
L 559.200203 -295.235303 
L 557.864864 -295.380266 
L 556.529526 -295.501369 
L 555.194187 -295.599424 
L 553.858849 -295.675657 
L 552.52351 -295.732152 
L 551.188172 -295.772126 
L 549.852833 -295.799896 
L 548.517494 -295.820503 
L 547.182156 -295.839085 
L 545.846817 -295.860163 
L 544.511479 -295.887025 
L 543.17614 -295.92137 
L 541.840802 -295.963269 
L 540.505463 -296.011427 
L 539.170124 -296.063643 
L 537.834786 -296.117337 
L 536.499447 -296.170013 
z
" id="mccd395f1f2" style="stroke:#424242;"/>
    </defs>
    <g clip-path="url(#p3a342ff6a4)">
     <use style="fill:#7c78ab;stroke:#424242;" x="0" xlink:href="#mccd395f1f2" y="319.061667"/>
    </g>
   </g>
   <g id="PolyCollection_2">
    <defs>
     <path d="M 551.250603 -270.343601 
L 551.250603 -271.578149 
L 552.437 -271.648327 
L 553.623398 -271.715575 
L 554.809796 -271.779458 
L 555.996194 -271.840261 
L 557.182591 -271.899051 
L 558.368989 -271.957716 
L 559.555387 -272.018988 
L 560.741784 -272.086435 
L 561.928182 -272.164408 
L 563.11458 -272.257907 
L 564.300978 -272.37232 
L 565.487375 -272.513034 
L 566.673773 -272.684945 
L 567.860171 -272.891902 
L 569.046568 -273.136198 
L 570.232966 -273.418192 
L 571.419364 -273.736148 
L 572.605762 -274.08635 
L 573.792159 -274.463468 
L 574.978557 -274.861135 
L 576.164955 -275.272617 
L 577.351352 -275.691474 
L 578.53775 -276.112098 
L 579.724148 -276.530044 
L 580.910546 -276.942125 
L 582.096943 -277.346275 
L 583.283341 -277.741224 
L 584.469739 -278.126049 
L 585.656137 -278.499708 
L 586.842534 -278.86063 
L 588.028932 -279.206441 
L 589.21533 -279.533905 
L 590.401727 -279.839081 
L 591.588125 -280.117704 
L 592.774523 -280.365738 
L 593.960921 -280.580018 
L 595.147318 -280.75888 
L 596.333716 -280.902699 
L 597.520114 -281.014226 
L 598.706511 -281.098703 
L 599.892909 -281.163687 
L 601.079307 -281.218628 
L 602.265705 -281.27419 
L 603.452102 -281.341377 
L 604.6385 -281.430502 
L 605.824898 -281.550094 
L 607.011295 -281.705815 
L 608.197693 -281.899514 
L 609.384091 -282.128559 
L 610.570489 -282.385569 
L 611.756886 -282.658669 
L 612.943284 -282.932309 
L 614.129682 -283.188628 
L 615.31608 -283.409215 
L 616.502477 -283.577055 
L 617.688875 -283.678352 
L 618.875273 -283.703958 
L 620.06167 -283.650162 
L 621.248068 -283.518729 
L 622.434466 -283.31623 
L 623.620864 -283.052814 
L 624.807261 -282.740696 
L 625.993659 -282.392634 
L 627.180057 -282.020641 
L 628.366454 -281.635072 
L 629.552852 -281.244118 
L 630.73925 -280.853666 
L 631.925648 -280.467412 
L 633.112045 -280.087119 
L 634.298443 -279.712948 
L 635.484841 -279.343825 
L 636.671238 -278.97783 
L 637.857636 -278.612623 
L 639.044034 -278.245895 
L 640.230432 -277.875817 
L 641.416829 -277.501426 
L 642.603227 -277.122903 
L 643.789625 -276.741695 
L 644.976023 -276.360451 
L 646.16242 -275.982808 
L 647.348818 -275.613058 
L 648.535216 -275.255756 
L 649.721613 -274.915326 
L 650.908011 -274.59569 
L 652.094409 -274.29997 
L 653.280807 -274.030236 
L 654.467204 -273.787337 
L 655.653602 -273.570797 
L 656.84 -273.378809 
L 658.026397 -273.208339 
L 659.212795 -273.055359 
L 660.399193 -272.915202 
L 661.585591 -272.783022 
L 662.771988 -272.654296 
L 663.958386 -272.525323 
L 665.144784 -272.393608 
L 666.331181 -272.258103 
L 667.517579 -272.119243 
L 668.703977 -271.978773 
L 668.703977 -269.942977 
L 668.703977 -269.942977 
L 667.517579 -269.802507 
L 666.331181 -269.663647 
L 665.144784 -269.528142 
L 663.958386 -269.396427 
L 662.771988 -269.267454 
L 661.585591 -269.138728 
L 660.399193 -269.006548 
L 659.212795 -268.866391 
L 658.026397 -268.713411 
L 656.84 -268.542941 
L 655.653602 -268.350953 
L 654.467204 -268.134413 
L 653.280807 -267.891514 
L 652.094409 -267.62178 
L 650.908011 -267.32606 
L 649.721613 -267.006424 
L 648.535216 -266.665994 
L 647.348818 -266.308692 
L 646.16242 -265.938942 
L 644.976023 -265.561299 
L 643.789625 -265.180055 
L 642.603227 -264.798847 
L 641.416829 -264.420324 
L 640.230432 -264.045933 
L 639.044034 -263.675855 
L 637.857636 -263.309127 
L 636.671238 -262.94392 
L 635.484841 -262.577925 
L 634.298443 -262.208802 
L 633.112045 -261.834631 
L 631.925648 -261.454338 
L 630.73925 -261.068084 
L 629.552852 -260.677632 
L 628.366454 -260.286678 
L 627.180057 -259.901109 
L 625.993659 -259.529116 
L 624.807261 -259.181054 
L 623.620864 -258.868936 
L 622.434466 -258.60552 
L 621.248068 -258.403021 
L 620.06167 -258.271588 
L 618.875273 -258.217792 
L 617.688875 -258.243398 
L 616.502477 -258.344695 
L 615.31608 -258.512535 
L 614.129682 -258.733122 
L 612.943284 -258.989441 
L 611.756886 -259.263081 
L 610.570489 -259.536181 
L 609.384091 -259.793191 
L 608.197693 -260.022236 
L 607.011295 -260.215935 
L 605.824898 -260.371656 
L 604.6385 -260.491248 
L 603.452102 -260.580373 
L 602.265705 -260.64756 
L 601.079307 -260.703122 
L 599.892909 -260.758063 
L 598.706511 -260.823047 
L 597.520114 -260.907524 
L 596.333716 -261.019051 
L 595.147318 -261.16287 
L 593.960921 -261.341732 
L 592.774523 -261.556012 
L 591.588125 -261.804046 
L 590.401727 -262.082669 
L 589.21533 -262.387845 
L 588.028932 -262.715309 
L 586.842534 -263.06112 
L 585.656137 -263.422042 
L 584.469739 -263.795701 
L 583.283341 -264.180526 
L 582.096943 -264.575475 
L 580.910546 -264.979625 
L 579.724148 -265.391706 
L 578.53775 -265.809652 
L 577.351352 -266.230276 
L 576.164955 -266.649133 
L 574.978557 -267.060615 
L 573.792159 -267.458282 
L 572.605762 -267.8354 
L 571.419364 -268.185602 
L 570.232966 -268.503558 
L 569.046568 -268.785552 
L 567.860171 -269.029848 
L 566.673773 -269.236805 
L 565.487375 -269.408716 
L 564.300978 -269.54943 
L 563.11458 -269.663843 
L 561.928182 -269.757342 
L 560.741784 -269.835315 
L 559.555387 -269.902762 
L 558.368989 -269.964034 
L 557.182591 -270.022699 
L 555.996194 -270.081489 
L 554.809796 -270.142292 
L 553.623398 -270.206175 
L 552.437 -270.273423 
L 551.250603 -270.343601 
z
" id="mdebb818df8" style="stroke:#424242;"/>
    </defs>
    <g clip-path="url(#p3a342ff6a4)">
     <use style="fill:#be631d;stroke:#424242;" x="0" xlink:href="#mdebb818df8" y="319.061667"/>
    </g>
   </g>
   <g id="PolyCollection_3">
    <defs>
     <path d="M 518.006787 -232.110872 
L 518.006787 -233.352378 
L 519.505005 -233.459383 
L 521.003223 -233.574593 
L 522.501441 -233.697008 
L 523.999659 -233.825622 
L 525.497877 -233.959602 
L 526.996095 -234.098461 
L 528.494313 -234.242229 
L 529.992531 -234.391557 
L 531.490749 -234.547751 
L 532.988967 -234.712697 
L 534.487185 -234.888681 
L 535.985403 -235.078113 
L 537.483621 -235.28318 
L 538.981839 -235.505476 
L 540.480057 -235.745656 
L 541.978274 -236.003166 
L 543.476492 -236.276098 
L 544.97471 -236.561193 
L 546.472928 -236.854014 
L 547.971146 -237.149278 
L 549.469364 -237.441319 
L 550.967582 -237.724626 
L 552.4658 -237.994416 
L 553.964018 -238.247142 
L 555.462236 -238.480896 
L 556.960454 -238.695634 
L 558.458672 -238.8932 
L 559.95689 -239.07713 
L 561.455108 -239.252275 
L 562.953326 -239.424272 
L 564.451544 -239.598946 
L 565.949762 -239.781711 
L 567.44798 -239.977032 
L 568.946198 -240.18802 
L 570.444416 -240.416178 
L 571.942634 -240.661303 
L 573.440852 -240.92155 
L 574.93907 -241.193597 
L 576.437288 -241.472897 
L 577.935506 -241.753965 
L 579.433724 -242.030673 
L 580.931942 -242.296558 
L 582.43016 -242.545119 
L 583.928378 -242.770139 
L 585.426596 -242.966029 
L 586.924814 -243.128207 
L 588.423032 -243.253485 
L 589.92125 -243.340426 
L 591.419468 -243.389623 
L 592.917686 -243.403818 
L 594.415904 -243.387827 
L 595.914122 -243.34823 
L 597.41234 -243.292833 
L 598.910558 -243.22997 
L 600.408776 -243.167713 
L 601.906994 -243.113095 
L 603.405212 -243.07145 
L 604.90343 -243.045946 
L 606.401648 -243.037349 
L 607.899866 -243.044017 
L 609.398084 -243.062114 
L 610.896302 -243.085963 
L 612.39452 -243.108512 
L 613.892738 -243.121841 
L 615.390956 -243.1177 
L 616.889174 -243.088037 
L 618.387392 -243.025517 
L 619.88561 -242.924021 
L 621.383828 -242.77908 
L 622.882046 -242.588232 
L 624.380264 -242.351226 
L 625.878482 -242.070065 
L 627.3767 -241.748829 
L 628.874918 -241.39331 
L 630.373136 -241.010467 
L 631.871354 -240.607795 
L 633.369572 -240.192664 
L 634.86779 -239.77174 
L 636.366008 -239.350556 
L 637.864226 -238.933285 
L 639.362444 -238.522726 
L 640.860662 -238.120495 
L 642.35888 -237.727361 
L 643.857098 -237.343662 
L 645.355316 -236.969709 
L 646.853534 -236.606129 
L 648.351752 -236.25407 
L 649.84997 -235.915246 
L 651.348188 -235.591829 
L 652.846406 -235.286214 
L 654.344624 -235.000707 
L 655.842842 -234.737197 
L 657.34106 -234.496889 
L 658.839278 -234.280131 
L 660.337496 -234.08637 
L 661.835714 -233.914248 
L 663.333932 -233.761795 
L 664.83215 -233.626704 
L 666.330368 -233.506604 
L 666.330368 -231.956646 
L 666.330368 -231.956646 
L 664.83215 -231.836546 
L 663.333932 -231.701455 
L 661.835714 -231.549002 
L 660.337496 -231.37688 
L 658.839278 -231.183119 
L 657.34106 -230.966361 
L 655.842842 -230.726053 
L 654.344624 -230.462543 
L 652.846406 -230.177036 
L 651.348188 -229.871421 
L 649.84997 -229.548004 
L 648.351752 -229.20918 
L 646.853534 -228.857121 
L 645.355316 -228.493541 
L 643.857098 -228.119588 
L 642.35888 -227.735889 
L 640.860662 -227.342755 
L 639.362444 -226.940524 
L 637.864226 -226.529965 
L 636.366008 -226.112694 
L 634.86779 -225.69151 
L 633.369572 -225.270586 
L 631.871354 -224.855455 
L 630.373136 -224.452783 
L 628.874918 -224.06994 
L 627.3767 -223.714421 
L 625.878482 -223.393185 
L 624.380264 -223.112024 
L 622.882046 -222.875018 
L 621.383828 -222.68417 
L 619.88561 -222.539229 
L 618.387392 -222.437733 
L 616.889174 -222.375213 
L 615.390956 -222.34555 
L 613.892738 -222.341409 
L 612.39452 -222.354738 
L 610.896302 -222.377287 
L 609.398084 -222.401136 
L 607.899866 -222.419233 
L 606.401648 -222.425901 
L 604.90343 -222.417304 
L 603.405212 -222.3918 
L 601.906994 -222.350155 
L 600.408776 -222.295537 
L 598.910558 -222.23328 
L 597.41234 -222.170417 
L 595.914122 -222.11502 
L 594.415904 -222.075423 
L 592.917686 -222.059432 
L 591.419468 -222.073627 
L 589.92125 -222.122824 
L 588.423032 -222.209765 
L 586.924814 -222.335043 
L 585.426596 -222.497221 
L 583.928378 -222.693111 
L 582.43016 -222.918131 
L 580.931942 -223.166692 
L 579.433724 -223.432577 
L 577.935506 -223.709285 
L 576.437288 -223.990353 
L 574.93907 -224.269653 
L 573.440852 -224.5417 
L 571.942634 -224.801947 
L 570.444416 -225.047072 
L 568.946198 -225.27523 
L 567.44798 -225.486218 
L 565.949762 -225.681539 
L 564.451544 -225.864304 
L 562.953326 -226.038978 
L 561.455108 -226.210975 
L 559.95689 -226.38612 
L 558.458672 -226.57005 
L 556.960454 -226.767616 
L 555.462236 -226.982354 
L 553.964018 -227.216108 
L 552.4658 -227.468834 
L 550.967582 -227.738624 
L 549.469364 -228.021931 
L 547.971146 -228.313972 
L 546.472928 -228.609236 
L 544.97471 -228.902057 
L 543.476492 -229.187152 
L 541.978274 -229.460084 
L 540.480057 -229.717594 
L 538.981839 -229.957774 
L 537.483621 -230.18007 
L 535.985403 -230.385137 
L 534.487185 -230.574569 
L 532.988967 -230.750553 
L 531.490749 -230.915499 
L 529.992531 -231.071693 
L 528.494313 -231.221021 
L 526.996095 -231.364789 
L 525.497877 -231.503648 
L 523.999659 -231.637628 
L 522.501441 -231.766242 
L 521.003223 -231.888657 
L 519.505005 -232.003867 
L 518.006787 -232.110872 
z
" id="md0e4e6dab7" style="stroke:#424242;"/>
    </defs>
    <g clip-path="url(#p3a342ff6a4)">
     <use style="fill:#7c78ab;stroke:#424242;" x="0" xlink:href="#md0e4e6dab7" y="319.061667"/>
    </g>
   </g>
   <g id="PolyCollection_4">
    <defs>
     <path d="M 518.7222 -206.615879 
L 518.7222 -207.875038 
L 520.211749 -207.969203 
L 521.701298 -208.06673 
L 523.190847 -208.165838 
L 524.680397 -208.264729 
L 526.169946 -208.361751 
L 527.659495 -208.455567 
L 529.149044 -208.545296 
L 530.638593 -208.630616 
L 532.128143 -208.711793 
L 533.617692 -208.789633 
L 535.107241 -208.865373 
L 536.59679 -208.940506 
L 538.086339 -209.016582 
L 539.575889 -209.095027 
L 541.065438 -209.176994 
L 542.554987 -209.263291 
L 544.044536 -209.354389 
L 545.534086 -209.450507 
L 547.023635 -209.551752 
L 548.513184 -209.65828 
L 550.002733 -209.770442 
L 551.492282 -209.888875 
L 552.981832 -210.014518 
L 554.471381 -210.148541 
L 555.96093 -210.292205 
L 557.450479 -210.446674 
L 558.940028 -210.612824 
L 560.429578 -210.791103 
L 561.919127 -210.981457 
L 563.408676 -211.183371 
L 564.898225 -211.396008 
L 566.387775 -211.618434 
L 567.877324 -211.849891 
L 569.366873 -212.090047 
L 570.856422 -212.339189 
L 572.345971 -212.598297 
L 573.835521 -212.868971 
L 575.32507 -213.153219 
L 576.814619 -213.453134 
L 578.304168 -213.770491 
L 579.793718 -214.106361 
L 581.283267 -214.460774 
L 582.772816 -214.832514 
L 584.262365 -215.219067 
L 585.751914 -215.616726 
L 587.241464 -216.020841 
L 588.731013 -216.426171 
L 590.220562 -216.82726 
L 591.710111 -217.218809 
L 593.19966 -217.595964 
L 594.68921 -217.954507 
L 596.178759 -218.290925 
L 597.668308 -218.602378 
L 599.157857 -218.886593 
L 600.647407 -219.141708 
L 602.136956 -219.366128 
L 603.626505 -219.558389 
L 605.116054 -219.717082 
L 606.605603 -219.840808 
L 608.095153 -219.928181 
L 609.584702 -219.977852 
L 611.074251 -219.988542 
L 612.5638 -219.959078 
L 614.053349 -219.888432 
L 615.542899 -219.775756 
L 617.032448 -219.620443 
L 618.521997 -219.422213 
L 620.011546 -219.181228 
L 621.501096 -218.898244 
L 622.990645 -218.574774 
L 624.480194 -218.213249 
L 625.969743 -217.817143 
L 627.459292 -217.391038 
L 628.948842 -216.94061 
L 630.438391 -216.472523 
L 631.92794 -215.994243 
L 633.417489 -215.51378 
L 634.907039 -215.039391 
L 636.396588 -214.579244 
L 637.886137 -214.141091 
L 639.375686 -213.73192 
L 640.865235 -213.357624 
L 642.354785 -213.022662 
L 643.844334 -212.729731 
L 645.333883 -212.479472 
L 646.823432 -212.270241 
L 648.312981 -212.097996 
L 649.802531 -211.956358 
L 651.29208 -211.836889 
L 652.781629 -211.7296 
L 654.271178 -211.623693 
L 655.760728 -211.508461 
L 657.250277 -211.374261 
L 658.739826 -211.213439 
L 660.229375 -211.021087 
L 661.718924 -210.79551 
L 663.208474 -210.538349 
L 664.698023 -210.254336 
L 666.187572 -209.950713 
L 666.187572 -204.540204 
L 666.187572 -204.540204 
L 664.698023 -204.236581 
L 663.208474 -203.952567 
L 661.718924 -203.695407 
L 660.229375 -203.46983 
L 658.739826 -203.277478 
L 657.250277 -203.116656 
L 655.760728 -202.982456 
L 654.271178 -202.867224 
L 652.781629 -202.761317 
L 651.29208 -202.654028 
L 649.802531 -202.534558 
L 648.312981 -202.392921 
L 646.823432 -202.220676 
L 645.333883 -202.011445 
L 643.844334 -201.761186 
L 642.354785 -201.468255 
L 640.865235 -201.133293 
L 639.375686 -200.758997 
L 637.886137 -200.349826 
L 636.396588 -199.911672 
L 634.907039 -199.451526 
L 633.417489 -198.977136 
L 631.92794 -198.496674 
L 630.438391 -198.018394 
L 628.948842 -197.550307 
L 627.459292 -197.099879 
L 625.969743 -196.673774 
L 624.480194 -196.277668 
L 622.990645 -195.916143 
L 621.501096 -195.592673 
L 620.011546 -195.309689 
L 618.521997 -195.068704 
L 617.032448 -194.870474 
L 615.542899 -194.715161 
L 614.053349 -194.602484 
L 612.5638 -194.531838 
L 611.074251 -194.502375 
L 609.584702 -194.513065 
L 608.095153 -194.562736 
L 606.605603 -194.650109 
L 605.116054 -194.773835 
L 603.626505 -194.932527 
L 602.136956 -195.124789 
L 600.647407 -195.349208 
L 599.157857 -195.604324 
L 597.668308 -195.888538 
L 596.178759 -196.199992 
L 594.68921 -196.536409 
L 593.19966 -196.894952 
L 591.710111 -197.272108 
L 590.220562 -197.663657 
L 588.731013 -198.064746 
L 587.241464 -198.470075 
L 585.751914 -198.874191 
L 584.262365 -199.27185 
L 582.772816 -199.658402 
L 581.283267 -200.030143 
L 579.793718 -200.384556 
L 578.304168 -200.720425 
L 576.814619 -201.037783 
L 575.32507 -201.337697 
L 573.835521 -201.621946 
L 572.345971 -201.892619 
L 570.856422 -202.151727 
L 569.366873 -202.40087 
L 567.877324 -202.641026 
L 566.387775 -202.872482 
L 564.898225 -203.094909 
L 563.408676 -203.307545 
L 561.919127 -203.509459 
L 560.429578 -203.699814 
L 558.940028 -203.878093 
L 557.450479 -204.044243 
L 555.96093 -204.198711 
L 554.471381 -204.342376 
L 552.981832 -204.476399 
L 551.492282 -204.602042 
L 550.002733 -204.720475 
L 548.513184 -204.832637 
L 547.023635 -204.939165 
L 545.534086 -205.04041 
L 544.044536 -205.136528 
L 542.554987 -205.227626 
L 541.065438 -205.313923 
L 539.575889 -205.395889 
L 538.086339 -205.474334 
L 536.59679 -205.550411 
L 535.107241 -205.625543 
L 533.617692 -205.701284 
L 532.128143 -205.779124 
L 530.638593 -205.8603 
L 529.149044 -205.945621 
L 527.659495 -206.03535 
L 526.169946 -206.129165 
L 524.680397 -206.226188 
L 523.190847 -206.325079 
L 521.701298 -206.424187 
L 520.211749 -206.521713 
L 518.7222 -206.615879 
z
" id="m68f7efdc7e" style="stroke:#424242;"/>
    </defs>
    <g clip-path="url(#p3a342ff6a4)">
     <use style="fill:#be631d;stroke:#424242;" x="0" xlink:href="#m68f7efdc7e" y="319.061667"/>
    </g>
   </g>
   <g id="PolyCollection_5">
    <defs>
     <path d="M 477.117482 -167.324198 
L 477.117482 -170.708219 
L 478.88776 -170.877538 
L 480.658037 -171.056189 
L 482.428315 -171.243575 
L 484.198593 -171.438886 
L 485.968871 -171.641113 
L 487.739148 -171.849062 
L 489.509426 -172.061392 
L 491.279704 -172.276669 
L 493.049981 -172.493424 
L 494.820259 -172.710231 
L 496.590537 -172.925781 
L 498.360815 -173.138959 
L 500.131092 -173.348914 
L 501.90137 -173.555117 
L 503.671648 -173.757396 
L 505.441926 -173.955955 
L 507.212203 -174.151366 
L 508.982481 -174.344532 
L 510.752759 -174.536635 
L 512.523036 -174.729055 
L 514.293314 -174.923277 
L 516.063592 -175.120798 
L 517.83387 -175.323022 
L 519.604147 -175.531169 
L 521.374425 -175.746199 
L 523.144703 -175.968749 
L 524.914981 -176.199103 
L 526.685258 -176.437179 
L 528.455536 -176.682542 
L 530.225814 -176.934443 
L 531.996091 -177.191871 
L 533.766369 -177.453618 
L 535.536647 -177.718346 
L 537.306925 -177.98466 
L 539.077202 -178.251168 
L 540.84748 -178.516526 
L 542.617758 -178.779475 
L 544.388035 -179.038856 
L 546.158313 -179.293604 
L 547.928591 -179.542737 
L 549.698869 -179.785314 
L 551.469146 -180.020404 
L 553.239424 -180.247031 
L 555.009702 -180.464131 
L 556.77998 -180.670509 
L 558.550257 -180.864801 
L 560.320535 -181.045449 
L 562.090813 -181.210696 
L 563.86109 -181.358583 
L 565.631368 -181.486976 
L 567.401646 -181.593603 
L 569.171924 -181.676106 
L 570.942201 -181.732108 
L 572.712479 -181.759292 
L 574.482757 -181.755491 
L 576.253035 -181.718777 
L 578.023312 -181.647557 
L 579.79359 -181.540659 
L 581.563868 -181.397415 
L 583.334145 -181.217729 
L 585.104423 -181.002122 
L 586.874701 -180.751769 
L 588.644979 -180.468494 
L 590.415256 -180.154757 
L 592.185534 -179.813603 
L 593.955812 -179.448595 
L 595.72609 -179.063721 
L 597.496367 -178.663285 
L 599.266645 -178.251786 
L 601.036923 -177.833795 
L 602.8072 -177.413824 
L 604.577478 -176.996207 
L 606.347756 -176.584988 
L 608.118034 -176.183829 
L 609.888311 -175.795934 
L 611.658589 -175.423988 
L 613.428867 -175.070128 
L 615.199145 -174.735927 
L 616.969422 -174.422395 
L 618.7397 -174.130002 
L 620.509978 -173.858712 
L 622.280255 -173.608026 
L 624.050533 -173.377038 
L 625.820811 -173.164492 
L 627.591089 -172.968847 
L 629.361366 -172.78834 
L 631.131644 -172.621055 
L 632.901922 -172.464988 
L 634.672199 -172.318114 
L 636.442477 -172.178445 
L 638.212755 -172.044097 
L 639.983033 -171.91334 
L 641.75331 -171.784647 
L 643.523588 -171.656735 
L 645.293866 -171.528598 
L 647.064144 -171.399522 
L 648.834421 -171.269097 
L 650.604699 -171.137211 
L 652.374977 -171.004037 
L 652.374977 -167.02838 
L 652.374977 -167.02838 
L 650.604699 -166.895205 
L 648.834421 -166.76332 
L 647.064144 -166.632895 
L 645.293866 -166.503819 
L 643.523588 -166.375681 
L 641.75331 -166.24777 
L 639.983033 -166.119077 
L 638.212755 -165.98832 
L 636.442477 -165.853972 
L 634.672199 -165.714303 
L 632.901922 -165.567428 
L 631.131644 -165.411362 
L 629.361366 -165.244077 
L 627.591089 -165.06357 
L 625.820811 -164.867925 
L 624.050533 -164.655379 
L 622.280255 -164.424391 
L 620.509978 -164.173705 
L 618.7397 -163.902414 
L 616.969422 -163.610021 
L 615.199145 -163.296489 
L 613.428867 -162.962288 
L 611.658589 -162.608429 
L 609.888311 -162.236483 
L 608.118034 -161.848587 
L 606.347756 -161.447429 
L 604.577478 -161.03621 
L 602.8072 -160.618592 
L 601.036923 -160.198621 
L 599.266645 -159.780631 
L 597.496367 -159.369132 
L 595.72609 -158.968695 
L 593.955812 -158.583821 
L 592.185534 -158.218813 
L 590.415256 -157.87766 
L 588.644979 -157.563922 
L 586.874701 -157.280648 
L 585.104423 -157.030294 
L 583.334145 -156.814688 
L 581.563868 -156.635002 
L 579.79359 -156.491758 
L 578.023312 -156.38486 
L 576.253035 -156.31364 
L 574.482757 -156.276926 
L 572.712479 -156.273125 
L 570.942201 -156.300309 
L 569.171924 -156.356311 
L 567.401646 -156.438813 
L 565.631368 -156.54544 
L 563.86109 -156.673834 
L 562.090813 -156.821721 
L 560.320535 -156.986967 
L 558.550257 -157.167616 
L 556.77998 -157.361907 
L 555.009702 -157.568285 
L 553.239424 -157.785386 
L 551.469146 -158.012013 
L 549.698869 -158.247102 
L 547.928591 -158.48968 
L 546.158313 -158.738812 
L 544.388035 -158.993561 
L 542.617758 -159.252942 
L 540.84748 -159.515891 
L 539.077202 -159.781249 
L 537.306925 -160.047756 
L 535.536647 -160.314071 
L 533.766369 -160.578799 
L 531.996091 -160.840545 
L 530.225814 -161.097974 
L 528.455536 -161.349875 
L 526.685258 -161.595238 
L 524.914981 -161.833314 
L 523.144703 -162.063668 
L 521.374425 -162.286218 
L 519.604147 -162.501247 
L 517.83387 -162.709395 
L 516.063592 -162.911619 
L 514.293314 -163.10914 
L 512.523036 -163.303362 
L 510.752759 -163.495781 
L 508.982481 -163.687884 
L 507.212203 -163.881051 
L 505.441926 -164.076461 
L 503.671648 -164.275021 
L 501.90137 -164.4773 
L 500.131092 -164.683503 
L 498.360815 -164.893458 
L 496.590537 -165.106636 
L 494.820259 -165.322186 
L 493.049981 -165.538993 
L 491.279704 -165.755748 
L 489.509426 -165.971024 
L 487.739148 -166.183355 
L 485.968871 -166.391303 
L 484.198593 -166.59353 
L 482.428315 -166.788842 
L 480.658037 -166.976227 
L 478.88776 -167.154878 
L 477.117482 -167.324198 
z
" id="m84f3e75951" style="stroke:#424242;"/>
    </defs>
    <g clip-path="url(#p3a342ff6a4)">
     <use style="fill:#7c78ab;stroke:#424242;" x="0" xlink:href="#m84f3e75951" y="319.061667"/>
    </g>
   </g>
   <g id="PolyCollection_6">
    <defs>
     <path d="M 493.72077 -139.237563 
L 493.72077 -147.82252 
L 495.350683 -148.005263 
L 496.980595 -148.184765 
L 498.610507 -148.360218 
L 500.24042 -148.530843 
L 501.870332 -148.695896 
L 503.500244 -148.854676 
L 505.130157 -149.006532 
L 506.760069 -149.150872 
L 508.389981 -149.28717 
L 510.019894 -149.414968 
L 511.649806 -149.533882 
L 513.279718 -149.643607 
L 514.909631 -149.743919 
L 516.539543 -149.834672 
L 518.169456 -149.915805 
L 519.799368 -149.987337 
L 521.42928 -150.049366 
L 523.059193 -150.102066 
L 524.689105 -150.145686 
L 526.319017 -150.18054 
L 527.94893 -150.20701 
L 529.578842 -150.225534 
L 531.208754 -150.236602 
L 532.838667 -150.240752 
L 534.468579 -150.238559 
L 536.098492 -150.230632 
L 537.728404 -150.217607 
L 539.358316 -150.200138 
L 540.988229 -150.178893 
L 542.618141 -150.154548 
L 544.248053 -150.127778 
L 545.877966 -150.099255 
L 547.507878 -150.069641 
L 549.13779 -150.039584 
L 550.767703 -150.009713 
L 552.397615 -149.980636 
L 554.027527 -149.952932 
L 555.65744 -149.927155 
L 557.287352 -149.903823 
L 558.917265 -149.883422 
L 560.547177 -149.866399 
L 562.177089 -149.853166 
L 563.807002 -149.844091 
L 565.436914 -149.839501 
L 567.066826 -149.839679 
L 568.696739 -149.844864 
L 570.326651 -149.855248 
L 571.956563 -149.870975 
L 573.586476 -149.892139 
L 575.216388 -149.918787 
L 576.846301 -149.950912 
L 578.476213 -149.988459 
L 580.106125 -150.031316 
L 581.736038 -150.079323 
L 583.36595 -150.132264 
L 584.995862 -150.189871 
L 586.625775 -150.251826 
L 588.255687 -150.317755 
L 589.885599 -150.387238 
L 591.515512 -150.459804 
L 593.145424 -150.534936 
L 594.775336 -150.612073 
L 596.405249 -150.690612 
L 598.035161 -150.769913 
L 599.665074 -150.849302 
L 601.294986 -150.928077 
L 602.924898 -151.005507 
L 604.554811 -151.080844 
L 606.184723 -151.153326 
L 607.814635 -151.22218 
L 609.444548 -151.286631 
L 611.07446 -151.345906 
L 612.704372 -151.399241 
L 614.334285 -151.445889 
L 615.964197 -151.485123 
L 617.59411 -151.516244 
L 619.224022 -151.538588 
L 620.853934 -151.551531 
L 622.483847 -151.554494 
L 624.113759 -151.546952 
L 625.743671 -151.528435 
L 627.373584 -151.49854 
L 629.003496 -151.456927 
L 630.633408 -151.403332 
L 632.263321 -151.337566 
L 633.893233 -151.259517 
L 635.523146 -151.16916 
L 637.153058 -151.066551 
L 638.78297 -150.951833 
L 640.412883 -150.825238 
L 642.042795 -150.68708 
L 643.672707 -150.537761 
L 645.30262 -150.377766 
L 646.932532 -150.20766 
L 648.562444 -150.028082 
L 650.192357 -149.839746 
L 651.822269 -149.643428 
L 653.452181 -149.439962 
L 655.082094 -149.230236 
L 655.082094 -137.829847 
L 655.082094 -137.829847 
L 653.452181 -137.620121 
L 651.822269 -137.416656 
L 650.192357 -137.220337 
L 648.562444 -137.032001 
L 646.932532 -136.852424 
L 645.30262 -136.682317 
L 643.672707 -136.522322 
L 642.042795 -136.373004 
L 640.412883 -136.234846 
L 638.78297 -136.10825 
L 637.153058 -135.993533 
L 635.523146 -135.890924 
L 633.893233 -135.800566 
L 632.263321 -135.722518 
L 630.633408 -135.656751 
L 629.003496 -135.603156 
L 627.373584 -135.561544 
L 625.743671 -135.531648 
L 624.113759 -135.513132 
L 622.483847 -135.505589 
L 620.853934 -135.508552 
L 619.224022 -135.521495 
L 617.59411 -135.543839 
L 615.964197 -135.57496 
L 614.334285 -135.614194 
L 612.704372 -135.660842 
L 611.07446 -135.714178 
L 609.444548 -135.773453 
L 607.814635 -135.837903 
L 606.184723 -135.906757 
L 604.554811 -135.979239 
L 602.924898 -136.054577 
L 601.294986 -136.132007 
L 599.665074 -136.210781 
L 598.035161 -136.29017 
L 596.405249 -136.369472 
L 594.775336 -136.448011 
L 593.145424 -136.525147 
L 591.515512 -136.600279 
L 589.885599 -136.672845 
L 588.255687 -136.742328 
L 586.625775 -136.808258 
L 584.995862 -136.870212 
L 583.36595 -136.92782 
L 581.736038 -136.980761 
L 580.106125 -137.028767 
L 578.476213 -137.071625 
L 576.846301 -137.109171 
L 575.216388 -137.141297 
L 573.586476 -137.167944 
L 571.956563 -137.189109 
L 570.326651 -137.204835 
L 568.696739 -137.215219 
L 567.066826 -137.220404 
L 565.436914 -137.220583 
L 563.807002 -137.215993 
L 562.177089 -137.206917 
L 560.547177 -137.193684 
L 558.917265 -137.176662 
L 557.287352 -137.15626 
L 555.65744 -137.132928 
L 554.027527 -137.107151 
L 552.397615 -137.079448 
L 550.767703 -137.05037 
L 549.13779 -137.0205 
L 547.507878 -136.990443 
L 545.877966 -136.960829 
L 544.248053 -136.932305 
L 542.618141 -136.905535 
L 540.988229 -136.88119 
L 539.358316 -136.859945 
L 537.728404 -136.842476 
L 536.098492 -136.829451 
L 534.468579 -136.821525 
L 532.838667 -136.819332 
L 531.208754 -136.823481 
L 529.578842 -136.834549 
L 527.94893 -136.853073 
L 526.319017 -136.879543 
L 524.689105 -136.914398 
L 523.059193 -136.958017 
L 521.42928 -137.010717 
L 519.799368 -137.072746 
L 518.169456 -137.144278 
L 516.539543 -137.225411 
L 514.909631 -137.316165 
L 513.279718 -137.416476 
L 511.649806 -137.526201 
L 510.019894 -137.645116 
L 508.389981 -137.772913 
L 506.760069 -137.909211 
L 505.130157 -138.053552 
L 503.500244 -138.205407 
L 501.870332 -138.364187 
L 500.24042 -138.52924 
L 498.610507 -138.699866 
L 496.980595 -138.875319 
L 495.350683 -139.05482 
L 493.72077 -139.237563 
z
" id="mac9d0bd260" style="stroke:#424242;"/>
    </defs>
    <g clip-path="url(#p3a342ff6a4)">
     <use style="fill:#be631d;stroke:#424242;" x="0" xlink:href="#mac9d0bd260" y="319.061667"/>
    </g>
   </g>
   <g id="patch_86">
    <path clip-path="url(#p3a342ff6a4)" d="M 442.787444 35.357708 
L 442.787444 35.357708 
L 442.787444 35.357708 
L 442.787444 35.357708 
z
" style="fill:#7c78ab;stroke:#424242;stroke-linejoin:miter;stroke-width:0.5;"/>
   </g>
   <g id="patch_87">
    <path clip-path="url(#p3a342ff6a4)" d="M 442.787444 35.357708 
L 442.787444 35.357708 
L 442.787444 35.357708 
L 442.787444 35.357708 
z
" style="fill:#be631d;stroke:#424242;stroke-linejoin:miter;stroke-width:0.5;"/>
   </g>
   <g id="matplotlib.axis_3">
    <g id="xtick_5">
     <g id="line2d_11">
      <g>
       <use style="stroke:#000000;stroke-width:1.6;" x="442.787444" xlink:href="#me1d23ce8ad" y="258.361667"/>
      </g>
     </g>
     <g id="text_12">
      <!-- 0.0 -->
      <g transform="translate(426.884319 288.258542)scale(0.2 -0.2)">
       <use xlink:href="#DejaVuSans-48"/>
       <use x="63.623047" xlink:href="#DejaVuSans-46"/>
       <use x="95.410156" xlink:href="#DejaVuSans-48"/>
      </g>
     </g>
    </g>
    <g id="xtick_6">
     <g id="line2d_12">
      <g>
       <use style="stroke:#000000;stroke-width:1.6;" x="510.750556" xlink:href="#me1d23ce8ad" y="258.361667"/>
      </g>
     </g>
     <g id="text_13">
      <!-- 0.2 -->
      <g transform="translate(494.847431 288.258542)scale(0.2 -0.2)">
       <use xlink:href="#DejaVuSans-48"/>
       <use x="63.623047" xlink:href="#DejaVuSans-46"/>
       <use x="95.410156" xlink:href="#DejaVuSans-50"/>
      </g>
     </g>
    </g>
    <g id="xtick_7">
     <g id="line2d_13">
      <g>
       <use style="stroke:#000000;stroke-width:1.6;" x="578.713667" xlink:href="#me1d23ce8ad" y="258.361667"/>
      </g>
     </g>
     <g id="text_14">
      <!-- 0.4 -->
      <g transform="translate(562.810542 288.258542)scale(0.2 -0.2)">
       <use xlink:href="#DejaVuSans-48"/>
       <use x="63.623047" xlink:href="#DejaVuSans-46"/>
       <use x="95.410156" xlink:href="#DejaVuSans-52"/>
      </g>
     </g>
    </g>
    <g id="xtick_8">
     <g id="line2d_14">
      <g>
       <use style="stroke:#000000;stroke-width:1.6;" x="646.676778" xlink:href="#me1d23ce8ad" y="258.361667"/>
      </g>
     </g>
     <g id="text_15">
      <!-- 0.6 -->
      <g transform="translate(630.773653 288.258542)scale(0.2 -0.2)">
       <use xlink:href="#DejaVuSans-48"/>
       <use x="63.623047" xlink:href="#DejaVuSans-46"/>
       <use x="95.410156" xlink:href="#DejaVuSans-54"/>
      </g>
     </g>
    </g>
    <g id="text_16">
     <!-- Max JS Divergence within $\epsilon$ -->
     <g transform="translate(417.6275 311.617917)scale(0.2 -0.2)">
      <use transform="translate(0 0.015625)" xlink:href="#DejaVuSans-77"/>
      <use transform="translate(86.279297 0.015625)" xlink:href="#DejaVuSans-97"/>
      <use transform="translate(147.558594 0.015625)" xlink:href="#DejaVuSans-120"/>
      <use transform="translate(206.738281 0.015625)" xlink:href="#DejaVuSans-32"/>
      <use transform="translate(238.525391 0.015625)" xlink:href="#DejaVuSans-74"/>
      <use transform="translate(268.017578 0.015625)" xlink:href="#DejaVuSans-83"/>
      <use transform="translate(331.494141 0.015625)" xlink:href="#DejaVuSans-32"/>
      <use transform="translate(363.28125 0.015625)" xlink:href="#DejaVuSans-68"/>
      <use transform="translate(440.283203 0.015625)" xlink:href="#DejaVuSans-105"/>
      <use transform="translate(468.066406 0.015625)" xlink:href="#DejaVuSans-118"/>
      <use transform="translate(527.246094 0.015625)" xlink:href="#DejaVuSans-101"/>
      <use transform="translate(588.769531 0.015625)" xlink:href="#DejaVuSans-114"/>
      <use transform="translate(629.882812 0.015625)" xlink:href="#DejaVuSans-103"/>
      <use transform="translate(693.359375 0.015625)" xlink:href="#DejaVuSans-101"/>
      <use transform="translate(754.882812 0.015625)" xlink:href="#DejaVuSans-110"/>
      <use transform="translate(818.261719 0.015625)" xlink:href="#DejaVuSans-99"/>
      <use transform="translate(873.242188 0.015625)" xlink:href="#DejaVuSans-101"/>
      <use transform="translate(934.765625 0.015625)" xlink:href="#DejaVuSans-32"/>
      <use transform="translate(966.552734 0.015625)" xlink:href="#DejaVuSans-119"/>
      <use transform="translate(1048.339844 0.015625)" xlink:href="#DejaVuSans-105"/>
      <use transform="translate(1076.123047 0.015625)" xlink:href="#DejaVuSans-116"/>
      <use transform="translate(1115.332031 0.015625)" xlink:href="#DejaVuSans-104"/>
      <use transform="translate(1178.710938 0.015625)" xlink:href="#DejaVuSans-105"/>
      <use transform="translate(1206.494141 0.015625)" xlink:href="#DejaVuSans-110"/>
      <use transform="translate(1269.873047 0.015625)" xlink:href="#DejaVuSans-32"/>
      <use transform="translate(1301.660156 0.015625)" xlink:href="#DejaVuSans-Oblique-949"/>
     </g>
    </g>
   </g>
   <g id="matplotlib.axis_4">
    <g id="ytick_7">
     <g id="line2d_15">
      <g>
       <use style="stroke:#000000;stroke-width:1.6;" x="425.796667" xlink:href="#m50ef67e96e" y="35.357708"/>
      </g>
     </g>
     <g id="text_17">
      <!-- [0.00, -->
      <defs>
       <path d="M 8.59375 75.984375 
L 29.296875 75.984375 
L 29.296875 69 
L 17.578125 69 
L 17.578125 -6.203125 
L 29.296875 -6.203125 
L 29.296875 -13.1875 
L 8.59375 -13.1875 
z
" id="DejaVuSans-91"/>
       <path d="M 11.71875 12.40625 
L 22.015625 12.40625 
L 22.015625 4 
L 14.015625 -11.625 
L 7.71875 -11.625 
L 11.71875 4 
z
" id="DejaVuSans-44"/>
      </defs>
      <g transform="translate(352.406042 31.758333)scale(0.2 -0.2)">
       <use xlink:href="#DejaVuSans-91"/>
       <use x="39.013672" xlink:href="#DejaVuSans-48"/>
       <use x="102.636719" xlink:href="#DejaVuSans-46"/>
       <use x="134.423828" xlink:href="#DejaVuSans-48"/>
       <use x="198.046875" xlink:href="#DejaVuSans-48"/>
       <use x="261.669922" xlink:href="#DejaVuSans-44"/>
      </g>
      <!-- 0.25) -->
      <defs>
       <path d="M 10.796875 72.90625 
L 49.515625 72.90625 
L 49.515625 64.59375 
L 19.828125 64.59375 
L 19.828125 46.734375 
Q 21.96875 47.46875 24.109375 47.828125 
Q 26.265625 48.1875 28.421875 48.1875 
Q 40.625 48.1875 47.75 41.5 
Q 54.890625 34.8125 54.890625 23.390625 
Q 54.890625 11.625 47.5625 5.09375 
Q 40.234375 -1.421875 26.90625 -1.421875 
Q 22.3125 -1.421875 17.546875 -0.640625 
Q 12.796875 0.140625 7.71875 1.703125 
L 7.71875 11.625 
Q 12.109375 9.234375 16.796875 8.0625 
Q 21.484375 6.890625 26.703125 6.890625 
Q 35.15625 6.890625 40.078125 11.328125 
Q 45.015625 15.765625 45.015625 23.390625 
Q 45.015625 31 40.078125 35.4375 
Q 35.15625 39.890625 26.703125 39.890625 
Q 22.75 39.890625 18.8125 39.015625 
Q 14.890625 38.140625 10.796875 36.28125 
z
" id="DejaVuSans-53"/>
       <path d="M 8.015625 75.875 
L 15.828125 75.875 
Q 23.140625 64.359375 26.78125 53.3125 
Q 30.421875 42.28125 30.421875 31.390625 
Q 30.421875 20.453125 26.78125 9.375 
Q 23.140625 -1.703125 15.828125 -13.1875 
L 8.015625 -13.1875 
Q 14.5 -2 17.703125 9.0625 
Q 20.90625 20.125 20.90625 31.390625 
Q 20.90625 42.671875 17.703125 53.65625 
Q 14.5 64.65625 8.015625 75.875 
z
" id="DejaVuSans-41"/>
      </defs>
      <g transform="translate(358.762292 54.153958)scale(0.2 -0.2)">
       <use xlink:href="#DejaVuSans-48"/>
       <use x="63.623047" xlink:href="#DejaVuSans-46"/>
       <use x="95.410156" xlink:href="#DejaVuSans-50"/>
       <use x="159.033203" xlink:href="#DejaVuSans-53"/>
       <use x="222.65625" xlink:href="#DejaVuSans-41"/>
      </g>
     </g>
    </g>
    <g id="ytick_8">
     <g id="line2d_16">
      <g>
       <use style="stroke:#000000;stroke-width:1.6;" x="425.796667" xlink:href="#m50ef67e96e" y="99.073125"/>
      </g>
     </g>
     <g id="text_18">
      <!-- [0.25, -->
      <g transform="translate(352.406042 95.47375)scale(0.2 -0.2)">
       <use xlink:href="#DejaVuSans-91"/>
       <use x="39.013672" xlink:href="#DejaVuSans-48"/>
       <use x="102.636719" xlink:href="#DejaVuSans-46"/>
       <use x="134.423828" xlink:href="#DejaVuSans-50"/>
       <use x="198.046875" xlink:href="#DejaVuSans-53"/>
       <use x="261.669922" xlink:href="#DejaVuSans-44"/>
      </g>
      <!-- 0.50) -->
      <g transform="translate(358.762292 117.869375)scale(0.2 -0.2)">
       <use xlink:href="#DejaVuSans-48"/>
       <use x="63.623047" xlink:href="#DejaVuSans-46"/>
       <use x="95.410156" xlink:href="#DejaVuSans-53"/>
       <use x="159.033203" xlink:href="#DejaVuSans-48"/>
       <use x="222.65625" xlink:href="#DejaVuSans-41"/>
      </g>
     </g>
    </g>
    <g id="ytick_9">
     <g id="line2d_17">
      <g>
       <use style="stroke:#000000;stroke-width:1.6;" x="425.796667" xlink:href="#m50ef67e96e" y="162.788542"/>
      </g>
     </g>
     <g id="text_19">
      <!-- [0.50, -->
      <g transform="translate(352.406042 159.189167)scale(0.2 -0.2)">
       <use xlink:href="#DejaVuSans-91"/>
       <use x="39.013672" xlink:href="#DejaVuSans-48"/>
       <use x="102.636719" xlink:href="#DejaVuSans-46"/>
       <use x="134.423828" xlink:href="#DejaVuSans-53"/>
       <use x="198.046875" xlink:href="#DejaVuSans-48"/>
       <use x="261.669922" xlink:href="#DejaVuSans-44"/>
      </g>
      <!-- 0.75) -->
      <defs>
       <path d="M 8.203125 72.90625 
L 55.078125 72.90625 
L 55.078125 68.703125 
L 28.609375 0 
L 18.3125 0 
L 43.21875 64.59375 
L 8.203125 64.59375 
z
" id="DejaVuSans-55"/>
      </defs>
      <g transform="translate(358.762292 181.584792)scale(0.2 -0.2)">
       <use xlink:href="#DejaVuSans-48"/>
       <use x="63.623047" xlink:href="#DejaVuSans-46"/>
       <use x="95.410156" xlink:href="#DejaVuSans-55"/>
       <use x="159.033203" xlink:href="#DejaVuSans-53"/>
       <use x="222.65625" xlink:href="#DejaVuSans-41"/>
      </g>
     </g>
    </g>
    <g id="ytick_10">
     <g id="line2d_18">
      <g>
       <use style="stroke:#000000;stroke-width:1.6;" x="425.796667" xlink:href="#m50ef67e96e" y="226.503958"/>
      </g>
     </g>
     <g id="text_20">
      <!-- [0.75, -->
      <g transform="translate(352.406042 222.904583)scale(0.2 -0.2)">
       <use xlink:href="#DejaVuSans-91"/>
       <use x="39.013672" xlink:href="#DejaVuSans-48"/>
       <use x="102.636719" xlink:href="#DejaVuSans-46"/>
       <use x="134.423828" xlink:href="#DejaVuSans-55"/>
       <use x="198.046875" xlink:href="#DejaVuSans-53"/>
       <use x="261.669922" xlink:href="#DejaVuSans-44"/>
      </g>
      <!-- 1.00) -->
      <g transform="translate(358.762292 245.300208)scale(0.2 -0.2)">
       <use xlink:href="#DejaVuSans-49"/>
       <use x="63.623047" xlink:href="#DejaVuSans-46"/>
       <use x="95.410156" xlink:href="#DejaVuSans-48"/>
       <use x="159.033203" xlink:href="#DejaVuSans-48"/>
       <use x="222.65625" xlink:href="#DejaVuSans-41"/>
      </g>
     </g>
    </g>
    <g id="text_21">
     <!-- Max Attention -->
     <defs>
      <path d="M 34.1875 63.1875 
L 20.796875 26.90625 
L 47.609375 26.90625 
z
M 28.609375 72.90625 
L 39.796875 72.90625 
L 67.578125 0 
L 57.328125 0 
L 50.6875 18.703125 
L 17.828125 18.703125 
L 11.1875 0 
L 0.78125 0 
z
" id="DejaVuSans-65"/>
      <path d="M 30.609375 48.390625 
Q 23.390625 48.390625 19.1875 42.75 
Q 14.984375 37.109375 14.984375 27.296875 
Q 14.984375 17.484375 19.15625 11.84375 
Q 23.34375 6.203125 30.609375 6.203125 
Q 37.796875 6.203125 41.984375 11.859375 
Q 46.1875 17.53125 46.1875 27.296875 
Q 46.1875 37.015625 41.984375 42.703125 
Q 37.796875 48.390625 30.609375 48.390625 
z
M 30.609375 56 
Q 42.328125 56 49.015625 48.375 
Q 55.71875 40.765625 55.71875 27.296875 
Q 55.71875 13.875 49.015625 6.21875 
Q 42.328125 -1.421875 30.609375 -1.421875 
Q 18.84375 -1.421875 12.171875 6.21875 
Q 5.515625 13.875 5.515625 27.296875 
Q 5.515625 40.765625 12.171875 48.375 
Q 18.84375 56 30.609375 56 
z
" id="DejaVuSans-111"/>
     </defs>
     <g transform="translate(344.246667 201.108958)rotate(-90)scale(0.2 -0.2)">
      <use xlink:href="#DejaVuSans-77"/>
      <use x="86.279297" xlink:href="#DejaVuSans-97"/>
      <use x="147.558594" xlink:href="#DejaVuSans-120"/>
      <use x="206.738281" xlink:href="#DejaVuSans-32"/>
      <use x="238.525391" xlink:href="#DejaVuSans-65"/>
      <use x="306.917969" xlink:href="#DejaVuSans-116"/>
      <use x="346.126953" xlink:href="#DejaVuSans-116"/>
      <use x="385.335938" xlink:href="#DejaVuSans-101"/>
      <use x="446.859375" xlink:href="#DejaVuSans-110"/>
      <use x="510.238281" xlink:href="#DejaVuSans-116"/>
      <use x="549.447266" xlink:href="#DejaVuSans-105"/>
      <use x="577.230469" xlink:href="#DejaVuSans-111"/>
      <use x="638.412109" xlink:href="#DejaVuSans-110"/>
     </g>
    </g>
   </g>
   <g id="line2d_19">
    <path clip-path="url(#p3a342ff6a4)" style="fill:none;stroke:#424242;stroke-dasharray:1.5,1.5;stroke-dashoffset:0;"/>
   </g>
   <g id="line2d_20">
    <path clip-path="url(#p3a342ff6a4)" style="fill:none;stroke:#424242;stroke-dasharray:3,3;stroke-dashoffset:0;"/>
   </g>
   <g id="line2d_21">
    <path clip-path="url(#p3a342ff6a4)" style="fill:none;stroke:#424242;stroke-dasharray:1.5,1.5;stroke-dashoffset:0;"/>
   </g>
   <g id="line2d_22">
    <path clip-path="url(#p3a342ff6a4)" style="fill:none;stroke:#424242;stroke-dasharray:1.5,1.5;stroke-dashoffset:0;"/>
   </g>
   <g id="line2d_23">
    <path clip-path="url(#p3a342ff6a4)" style="fill:none;stroke:#424242;stroke-dasharray:3,3;stroke-dashoffset:0;"/>
   </g>
   <g id="line2d_24">
    <path clip-path="url(#p3a342ff6a4)" style="fill:none;stroke:#424242;stroke-dasharray:1.5,1.5;stroke-dashoffset:0;"/>
   </g>
   <g id="line2d_25">
    <path clip-path="url(#p3a342ff6a4)" style="fill:none;stroke:#424242;stroke-dasharray:1.5,1.5;stroke-dashoffset:0;"/>
   </g>
   <g id="line2d_26">
    <path clip-path="url(#p3a342ff6a4)" style="fill:none;stroke:#424242;stroke-dasharray:3,3;stroke-dashoffset:0;"/>
   </g>
   <g id="line2d_27">
    <path clip-path="url(#p3a342ff6a4)" style="fill:none;stroke:#424242;stroke-dasharray:1.5,1.5;stroke-dashoffset:0;"/>
   </g>
   <g id="line2d_28">
    <path clip-path="url(#p3a342ff6a4)" style="fill:none;stroke:#424242;stroke-dasharray:1.5,1.5;stroke-dashoffset:0;"/>
   </g>
   <g id="line2d_29">
    <path clip-path="url(#p3a342ff6a4)" style="fill:none;stroke:#424242;stroke-dasharray:3,3;stroke-dashoffset:0;"/>
   </g>
   <g id="line2d_30">
    <path clip-path="url(#p3a342ff6a4)" style="fill:none;stroke:#424242;stroke-dasharray:1.5,1.5;stroke-dashoffset:0;"/>
   </g>
   <g id="line2d_31">
    <path clip-path="url(#p3a342ff6a4)" style="fill:none;stroke:#424242;stroke-dasharray:1.5,1.5;stroke-dashoffset:0;"/>
   </g>
   <g id="line2d_32">
    <path clip-path="url(#p3a342ff6a4)" style="fill:none;stroke:#424242;stroke-dasharray:3,3;stroke-dashoffset:0;"/>
   </g>
   <g id="line2d_33">
    <path clip-path="url(#p3a342ff6a4)" style="fill:none;stroke:#424242;stroke-dasharray:1.5,1.5;stroke-dashoffset:0;"/>
   </g>
   <g id="line2d_34">
    <path clip-path="url(#p3a342ff6a4)" style="fill:none;stroke:#424242;stroke-dasharray:1.5,1.5;stroke-dashoffset:0;"/>
   </g>
   <g id="line2d_35">
    <path clip-path="url(#p3a342ff6a4)" style="fill:none;stroke:#424242;stroke-dasharray:3,3;stroke-dashoffset:0;"/>
   </g>
   <g id="line2d_36">
    <path clip-path="url(#p3a342ff6a4)" style="fill:none;stroke:#424242;stroke-dasharray:1.5,1.5;stroke-dashoffset:0;"/>
   </g>
   <g id="patch_88">
    <path style="fill:none;stroke:#000000;stroke-linecap:square;stroke-linejoin:miter;stroke-width:0.8;"/>
   </g>
   <g id="patch_89">
    <path style="fill:none;stroke:#000000;stroke-linecap:square;stroke-linejoin:miter;stroke-width:0.8;"/>
   </g>
  </g>
 </g>
 <defs>
  <clipPath id="p9f6d4f52d0">
   <rect height="254.861667" width="254.861667" x="59.575" y="3.5"/>
  </clipPath>
  <clipPath id="p3a342ff6a4">
   <rect height="254.861667" width="254.861667" x="425.796667" y="3.5"/>
  </clipPath>
 </defs>
</svg>
