<?xml version="1.0" encoding="utf-8" standalone="no"?>
<!DOCTYPE svg PUBLIC "-//W3C//DTD SVG 1.1//EN"
  "http://www.w3.org/Graphics/SVG/1.1/DTD/svg11.dtd">
<!-- Created with matplotlib (https://matplotlib.org/) -->
<svg height="333.433333pt" version="1.1" viewBox="0 0 369.433333 333.433333" width="369.433333pt" xmlns="http://www.w3.org/2000/svg" xmlns:xlink="http://www.w3.org/1999/xlink">
 <defs>
  <style type="text/css">
*{stroke-linecap:butt;stroke-linejoin:round;}
  </style>
 </defs>
 <g id="figure_1">
  <g id="patch_1">
   <path d="M 0 333.433333 
L 369.433333 333.433333 
L 369.433333 -0 
L 0 -0 
z
" style="fill:#ffffff;"/>
  </g>
  <g id="axes_1">
   <g id="patch_2">
    <path d="M -276.333333 272.733333 
L -7.1 272.733333 
L -7.1 3.5 
L -276.333333 3.5 
z
" style="fill:#ffffff;"/>
   </g>
   <g id="patch_3">
    <path clip-path="url(#p5be9310aa0)" d="M -264.095455 272.733333 
L -257.976515 272.733333 
L -257.976515 272.733333 
L -264.095455 272.733333 
z
" style="fill:#7570b3;opacity:0.6;stroke:#000000;stroke-linejoin:miter;stroke-width:0.5;"/>
   </g>
   <g id="patch_4">
    <path clip-path="url(#p5be9310aa0)" d="M -257.976515 272.733333 
L -251.857576 272.733333 
L -251.857576 272.733333 
L -257.976515 272.733333 
z
" style="fill:#7570b3;opacity:0.6;stroke:#000000;stroke-linejoin:miter;stroke-width:0.5;"/>
   </g>
   <g id="patch_5">
    <path clip-path="url(#p5be9310aa0)" d="M -251.857576 272.733333 
L -245.738636 272.733333 
L -245.738636 272.733333 
L -251.857576 272.733333 
z
" style="fill:#7570b3;opacity:0.6;stroke:#000000;stroke-linejoin:miter;stroke-width:0.5;"/>
   </g>
   <g id="patch_6">
    <path clip-path="url(#p5be9310aa0)" d="M -245.738636 272.733333 
L -239.619697 272.733333 
L -239.619697 272.733333 
L -245.738636 272.733333 
z
" style="fill:#7570b3;opacity:0.6;stroke:#000000;stroke-linejoin:miter;stroke-width:0.5;"/>
   </g>
   <g id="patch_7">
    <path clip-path="url(#p5be9310aa0)" d="M -239.619697 272.733333 
L -233.500758 272.733333 
L -233.500758 272.733333 
L -239.619697 272.733333 
z
" style="fill:#7570b3;opacity:0.6;stroke:#000000;stroke-linejoin:miter;stroke-width:0.5;"/>
   </g>
   <g id="patch_8">
    <path clip-path="url(#p5be9310aa0)" d="M -233.500758 272.733333 
L -227.381818 272.733333 
L -227.381818 272.733333 
L -233.500758 272.733333 
z
" style="fill:#7570b3;opacity:0.6;stroke:#000000;stroke-linejoin:miter;stroke-width:0.5;"/>
   </g>
   <g id="patch_9">
    <path clip-path="url(#p5be9310aa0)" d="M -227.381818 272.733333 
L -221.262879 272.733333 
L -221.262879 272.733333 
L -227.381818 272.733333 
z
" style="fill:#7570b3;opacity:0.6;stroke:#000000;stroke-linejoin:miter;stroke-width:0.5;"/>
   </g>
   <g id="patch_10">
    <path clip-path="url(#p5be9310aa0)" d="M -221.262879 272.733333 
L -215.143939 272.733333 
L -215.143939 272.733333 
L -221.262879 272.733333 
z
" style="fill:#7570b3;opacity:0.6;stroke:#000000;stroke-linejoin:miter;stroke-width:0.5;"/>
   </g>
   <g id="patch_11">
    <path clip-path="url(#p5be9310aa0)" d="M -215.143939 272.733333 
L -209.025 272.733333 
L -209.025 272.733333 
L -215.143939 272.733333 
z
" style="fill:#7570b3;opacity:0.6;stroke:#000000;stroke-linejoin:miter;stroke-width:0.5;"/>
   </g>
   <g id="patch_12">
    <path clip-path="url(#p5be9310aa0)" d="M -209.025 272.733333 
L -202.906061 272.733333 
L -202.906061 272.733333 
L -209.025 272.733333 
z
" style="fill:#7570b3;opacity:0.6;stroke:#000000;stroke-linejoin:miter;stroke-width:0.5;"/>
   </g>
   <g id="patch_13">
    <path clip-path="url(#p5be9310aa0)" d="M -202.906061 272.733333 
L -196.787121 272.733333 
L -196.787121 272.733333 
L -202.906061 272.733333 
z
" style="fill:#7570b3;opacity:0.6;stroke:#000000;stroke-linejoin:miter;stroke-width:0.5;"/>
   </g>
   <g id="patch_14">
    <path clip-path="url(#p5be9310aa0)" d="M -196.787121 272.733333 
L -190.668182 272.733333 
L -190.668182 272.733333 
L -196.787121 272.733333 
z
" style="fill:#7570b3;opacity:0.6;stroke:#000000;stroke-linejoin:miter;stroke-width:0.5;"/>
   </g>
   <g id="patch_15">
    <path clip-path="url(#p5be9310aa0)" d="M -190.668182 272.733333 
L -184.549242 272.733333 
L -184.549242 272.733333 
L -190.668182 272.733333 
z
" style="fill:#7570b3;opacity:0.6;stroke:#000000;stroke-linejoin:miter;stroke-width:0.5;"/>
   </g>
   <g id="patch_16">
    <path clip-path="url(#p5be9310aa0)" d="M -184.549242 272.733333 
L -178.430303 272.733333 
L -178.430303 272.733333 
L -184.549242 272.733333 
z
" style="fill:#7570b3;opacity:0.6;stroke:#000000;stroke-linejoin:miter;stroke-width:0.5;"/>
   </g>
   <g id="patch_17">
    <path clip-path="url(#p5be9310aa0)" d="M -178.430303 272.733333 
L -172.311364 272.733333 
L -172.311364 272.733333 
L -178.430303 272.733333 
z
" style="fill:#7570b3;opacity:0.6;stroke:#000000;stroke-linejoin:miter;stroke-width:0.5;"/>
   </g>
   <g id="patch_18">
    <path clip-path="url(#p5be9310aa0)" d="M -172.311364 272.733333 
L -166.192424 272.733333 
L -166.192424 272.733333 
L -172.311364 272.733333 
z
" style="fill:#7570b3;opacity:0.6;stroke:#000000;stroke-linejoin:miter;stroke-width:0.5;"/>
   </g>
   <g id="patch_19">
    <path clip-path="url(#p5be9310aa0)" d="M -166.192424 272.733333 
L -160.073485 272.733333 
L -160.073485 272.733333 
L -166.192424 272.733333 
z
" style="fill:#7570b3;opacity:0.6;stroke:#000000;stroke-linejoin:miter;stroke-width:0.5;"/>
   </g>
   <g id="patch_20">
    <path clip-path="url(#p5be9310aa0)" d="M -160.073485 272.733333 
L -153.954545 272.733333 
L -153.954545 272.407351 
L -160.073485 272.407351 
z
" style="fill:#7570b3;opacity:0.6;stroke:#000000;stroke-linejoin:miter;stroke-width:0.5;"/>
   </g>
   <g id="patch_21">
    <path clip-path="url(#p5be9310aa0)" d="M -153.954545 272.733333 
L -147.835606 272.733333 
L -147.835606 272.407351 
L -153.954545 272.407351 
z
" style="fill:#7570b3;opacity:0.6;stroke:#000000;stroke-linejoin:miter;stroke-width:0.5;"/>
   </g>
   <g id="patch_22">
    <path clip-path="url(#p5be9310aa0)" d="M -147.835606 272.733333 
L -141.716667 272.733333 
L -141.716667 272.733333 
L -147.835606 272.733333 
z
" style="fill:#7570b3;opacity:0.6;stroke:#000000;stroke-linejoin:miter;stroke-width:0.5;"/>
   </g>
   <g id="patch_23">
    <path clip-path="url(#p5be9310aa0)" d="M -141.716667 272.733333 
L -135.597727 272.733333 
L -135.597727 272.407351 
L -141.716667 272.407351 
z
" style="fill:#7570b3;opacity:0.6;stroke:#000000;stroke-linejoin:miter;stroke-width:0.5;"/>
   </g>
   <g id="patch_24">
    <path clip-path="url(#p5be9310aa0)" d="M -135.597727 272.733333 
L -129.478788 272.733333 
L -129.478788 272.407351 
L -135.597727 272.407351 
z
" style="fill:#7570b3;opacity:0.6;stroke:#000000;stroke-linejoin:miter;stroke-width:0.5;"/>
   </g>
   <g id="patch_25">
    <path clip-path="url(#p5be9310aa0)" d="M -129.478788 272.733333 
L -123.359848 272.733333 
L -123.359848 271.429404 
L -129.478788 271.429404 
z
" style="fill:#7570b3;opacity:0.6;stroke:#000000;stroke-linejoin:miter;stroke-width:0.5;"/>
   </g>
   <g id="patch_26">
    <path clip-path="url(#p5be9310aa0)" d="M -123.359848 272.733333 
L -117.240909 272.733333 
L -117.240909 269.799492 
L -123.359848 269.799492 
z
" style="fill:#7570b3;opacity:0.6;stroke:#000000;stroke-linejoin:miter;stroke-width:0.5;"/>
   </g>
   <g id="patch_27">
    <path clip-path="url(#p5be9310aa0)" d="M -117.240909 272.733333 
L -111.12197 272.733333 
L -111.12197 264.909757 
L -117.240909 264.909757 
z
" style="fill:#7570b3;opacity:0.6;stroke:#000000;stroke-linejoin:miter;stroke-width:0.5;"/>
   </g>
   <g id="patch_28">
    <path clip-path="url(#p5be9310aa0)" d="M -111.12197 272.733333 
L -105.00303 272.733333 
L -105.00303 262.953863 
L -111.12197 262.953863 
z
" style="fill:#7570b3;opacity:0.6;stroke:#000000;stroke-linejoin:miter;stroke-width:0.5;"/>
   </g>
   <g id="patch_29">
    <path clip-path="url(#p5be9310aa0)" d="M -105.00303 272.733333 
L -98.884091 272.733333 
L -98.884091 268.495563 
L -105.00303 268.495563 
z
" style="fill:#7570b3;opacity:0.6;stroke:#000000;stroke-linejoin:miter;stroke-width:0.5;"/>
   </g>
   <g id="patch_30">
    <path clip-path="url(#p5be9310aa0)" d="M -98.884091 272.733333 
L -92.765152 272.733333 
L -92.765152 264.583775 
L -98.884091 264.583775 
z
" style="fill:#7570b3;opacity:0.6;stroke:#000000;stroke-linejoin:miter;stroke-width:0.5;"/>
   </g>
   <g id="patch_31">
    <path clip-path="url(#p5be9310aa0)" d="M -92.765152 272.733333 
L -86.646212 272.733333 
L -86.646212 264.257792 
L -92.765152 264.257792 
z
" style="fill:#7570b3;opacity:0.6;stroke:#000000;stroke-linejoin:miter;stroke-width:0.5;"/>
   </g>
   <g id="patch_32">
    <path clip-path="url(#p5be9310aa0)" d="M -86.646212 272.733333 
L -80.527273 272.733333 
L -80.527273 262.953863 
L -86.646212 262.953863 
z
" style="fill:#7570b3;opacity:0.6;stroke:#000000;stroke-linejoin:miter;stroke-width:0.5;"/>
   </g>
   <g id="patch_33">
    <path clip-path="url(#p5be9310aa0)" d="M -80.527273 272.733333 
L -74.408333 272.733333 
L -74.408333 265.235739 
L -80.527273 265.235739 
z
" style="fill:#7570b3;opacity:0.6;stroke:#000000;stroke-linejoin:miter;stroke-width:0.5;"/>
   </g>
   <g id="patch_34">
    <path clip-path="url(#p5be9310aa0)" d="M -74.408333 272.733333 
L -68.289394 272.733333 
L -68.289394 259.694039 
L -74.408333 259.694039 
z
" style="fill:#7570b3;opacity:0.6;stroke:#000000;stroke-linejoin:miter;stroke-width:0.5;"/>
   </g>
   <g id="patch_35">
    <path clip-path="url(#p5be9310aa0)" d="M -68.289394 272.733333 
L -62.170455 272.733333 
L -62.170455 253.500375 
L -68.289394 253.500375 
z
" style="fill:#7570b3;opacity:0.6;stroke:#000000;stroke-linejoin:miter;stroke-width:0.5;"/>
   </g>
   <g id="patch_36">
    <path clip-path="url(#p5be9310aa0)" d="M -62.170455 272.733333 
L -56.051515 272.733333 
L -56.051515 229.703664 
L -62.170455 229.703664 
z
" style="fill:#7570b3;opacity:0.6;stroke:#000000;stroke-linejoin:miter;stroke-width:0.5;"/>
   </g>
   <g id="patch_37">
    <path clip-path="url(#p5be9310aa0)" d="M -56.051515 272.733333 
L -49.932576 272.733333 
L -49.932576 179.828365 
L -56.051515 179.828365 
z
" style="fill:#7570b3;opacity:0.6;stroke:#000000;stroke-linejoin:miter;stroke-width:0.5;"/>
   </g>
   <g id="patch_38">
    <path clip-path="url(#p5be9310aa0)" d="M -49.932576 272.733333 
L -43.813636 272.733333 
L -43.813636 31.180415 
L -49.932576 31.180415 
z
" style="fill:#7570b3;opacity:0.6;stroke:#000000;stroke-linejoin:miter;stroke-width:0.5;"/>
   </g>
   <g id="patch_39">
    <path clip-path="url(#p5be9310aa0)" d="M -43.813636 272.733333 
L -37.694697 272.733333 
L -37.694697 150.163971 
L -43.813636 150.163971 
z
" style="fill:#7570b3;opacity:0.6;stroke:#000000;stroke-linejoin:miter;stroke-width:0.5;"/>
   </g>
   <g id="patch_40">
    <path clip-path="url(#p5be9310aa0)" d="M -37.694697 272.733333 
L -31.575758 272.733333 
L -31.575758 263.93181 
L -37.694697 263.93181 
z
" style="fill:#7570b3;opacity:0.6;stroke:#000000;stroke-linejoin:miter;stroke-width:0.5;"/>
   </g>
   <g id="patch_41">
    <path clip-path="url(#p5be9310aa0)" d="M -31.575758 272.733333 
L -25.456818 272.733333 
L -25.456818 272.733333 
L -31.575758 272.733333 
z
" style="fill:#7570b3;opacity:0.6;stroke:#000000;stroke-linejoin:miter;stroke-width:0.5;"/>
   </g>
   <g id="patch_42">
    <path clip-path="url(#p5be9310aa0)" d="M -25.456818 272.733333 
L -19.337879 272.733333 
L -19.337879 272.733333 
L -25.456818 272.733333 
z
" style="fill:#7570b3;opacity:0.6;stroke:#000000;stroke-linejoin:miter;stroke-width:0.5;"/>
   </g>
   <g id="patch_43">
    <path clip-path="url(#p5be9310aa0)" d="M -264.095455 272.733333 
L -257.976515 272.733333 
L -257.976515 272.733333 
L -264.095455 272.733333 
z
" style="fill:#d95f02;opacity:0.6;stroke:#000000;stroke-linejoin:miter;stroke-width:0.5;"/>
   </g>
   <g id="patch_44">
    <path clip-path="url(#p5be9310aa0)" d="M -257.976515 272.733333 
L -251.857576 272.733333 
L -251.857576 272.733333 
L -257.976515 272.733333 
z
" style="fill:#d95f02;opacity:0.6;stroke:#000000;stroke-linejoin:miter;stroke-width:0.5;"/>
   </g>
   <g id="patch_45">
    <path clip-path="url(#p5be9310aa0)" d="M -251.857576 272.733333 
L -245.738636 272.733333 
L -245.738636 272.733333 
L -251.857576 272.733333 
z
" style="fill:#d95f02;opacity:0.6;stroke:#000000;stroke-linejoin:miter;stroke-width:0.5;"/>
   </g>
   <g id="patch_46">
    <path clip-path="url(#p5be9310aa0)" d="M -245.738636 272.733333 
L -239.619697 272.733333 
L -239.619697 272.733333 
L -245.738636 272.733333 
z
" style="fill:#d95f02;opacity:0.6;stroke:#000000;stroke-linejoin:miter;stroke-width:0.5;"/>
   </g>
   <g id="patch_47">
    <path clip-path="url(#p5be9310aa0)" d="M -239.619697 272.733333 
L -233.500758 272.733333 
L -233.500758 272.733333 
L -239.619697 272.733333 
z
" style="fill:#d95f02;opacity:0.6;stroke:#000000;stroke-linejoin:miter;stroke-width:0.5;"/>
   </g>
   <g id="patch_48">
    <path clip-path="url(#p5be9310aa0)" d="M -233.500758 272.733333 
L -227.381818 272.733333 
L -227.381818 272.733333 
L -233.500758 272.733333 
z
" style="fill:#d95f02;opacity:0.6;stroke:#000000;stroke-linejoin:miter;stroke-width:0.5;"/>
   </g>
   <g id="patch_49">
    <path clip-path="url(#p5be9310aa0)" d="M -227.381818 272.733333 
L -221.262879 272.733333 
L -221.262879 272.733333 
L -227.381818 272.733333 
z
" style="fill:#d95f02;opacity:0.6;stroke:#000000;stroke-linejoin:miter;stroke-width:0.5;"/>
   </g>
   <g id="patch_50">
    <path clip-path="url(#p5be9310aa0)" d="M -221.262879 272.733333 
L -215.143939 272.733333 
L -215.143939 272.733333 
L -221.262879 272.733333 
z
" style="fill:#d95f02;opacity:0.6;stroke:#000000;stroke-linejoin:miter;stroke-width:0.5;"/>
   </g>
   <g id="patch_51">
    <path clip-path="url(#p5be9310aa0)" d="M -215.143939 272.733333 
L -209.025 272.733333 
L -209.025 272.733333 
L -215.143939 272.733333 
z
" style="fill:#d95f02;opacity:0.6;stroke:#000000;stroke-linejoin:miter;stroke-width:0.5;"/>
   </g>
   <g id="patch_52">
    <path clip-path="url(#p5be9310aa0)" d="M -209.025 272.733333 
L -202.906061 272.733333 
L -202.906061 272.733333 
L -209.025 272.733333 
z
" style="fill:#d95f02;opacity:0.6;stroke:#000000;stroke-linejoin:miter;stroke-width:0.5;"/>
   </g>
   <g id="patch_53">
    <path clip-path="url(#p5be9310aa0)" d="M -202.906061 272.733333 
L -196.787121 272.733333 
L -196.787121 272.733333 
L -202.906061 272.733333 
z
" style="fill:#d95f02;opacity:0.6;stroke:#000000;stroke-linejoin:miter;stroke-width:0.5;"/>
   </g>
   <g id="patch_54">
    <path clip-path="url(#p5be9310aa0)" d="M -196.787121 272.733333 
L -190.668182 272.733333 
L -190.668182 272.733333 
L -196.787121 272.733333 
z
" style="fill:#d95f02;opacity:0.6;stroke:#000000;stroke-linejoin:miter;stroke-width:0.5;"/>
   </g>
   <g id="patch_55">
    <path clip-path="url(#p5be9310aa0)" d="M -190.668182 272.733333 
L -184.549242 272.733333 
L -184.549242 272.733333 
L -190.668182 272.733333 
z
" style="fill:#d95f02;opacity:0.6;stroke:#000000;stroke-linejoin:miter;stroke-width:0.5;"/>
   </g>
   <g id="patch_56">
    <path clip-path="url(#p5be9310aa0)" d="M -184.549242 272.733333 
L -178.430303 272.733333 
L -178.430303 272.733333 
L -184.549242 272.733333 
z
" style="fill:#d95f02;opacity:0.6;stroke:#000000;stroke-linejoin:miter;stroke-width:0.5;"/>
   </g>
   <g id="patch_57">
    <path clip-path="url(#p5be9310aa0)" d="M -178.430303 272.733333 
L -172.311364 272.733333 
L -172.311364 272.733333 
L -178.430303 272.733333 
z
" style="fill:#d95f02;opacity:0.6;stroke:#000000;stroke-linejoin:miter;stroke-width:0.5;"/>
   </g>
   <g id="patch_58">
    <path clip-path="url(#p5be9310aa0)" d="M -172.311364 272.733333 
L -166.192424 272.733333 
L -166.192424 272.733333 
L -172.311364 272.733333 
z
" style="fill:#d95f02;opacity:0.6;stroke:#000000;stroke-linejoin:miter;stroke-width:0.5;"/>
   </g>
   <g id="patch_59">
    <path clip-path="url(#p5be9310aa0)" d="M -166.192424 272.733333 
L -160.073485 272.733333 
L -160.073485 272.733333 
L -166.192424 272.733333 
z
" style="fill:#d95f02;opacity:0.6;stroke:#000000;stroke-linejoin:miter;stroke-width:0.5;"/>
   </g>
   <g id="patch_60">
    <path clip-path="url(#p5be9310aa0)" d="M -160.073485 272.733333 
L -153.954545 272.733333 
L -153.954545 272.733333 
L -160.073485 272.733333 
z
" style="fill:#d95f02;opacity:0.6;stroke:#000000;stroke-linejoin:miter;stroke-width:0.5;"/>
   </g>
   <g id="patch_61">
    <path clip-path="url(#p5be9310aa0)" d="M -153.954545 272.733333 
L -147.835606 272.733333 
L -147.835606 272.733333 
L -153.954545 272.733333 
z
" style="fill:#d95f02;opacity:0.6;stroke:#000000;stroke-linejoin:miter;stroke-width:0.5;"/>
   </g>
   <g id="patch_62">
    <path clip-path="url(#p5be9310aa0)" d="M -147.835606 272.733333 
L -141.716667 272.733333 
L -141.716667 272.424402 
L -147.835606 272.424402 
z
" style="fill:#d95f02;opacity:0.6;stroke:#000000;stroke-linejoin:miter;stroke-width:0.5;"/>
   </g>
   <g id="patch_63">
    <path clip-path="url(#p5be9310aa0)" d="M -141.716667 272.733333 
L -135.597727 272.733333 
L -135.597727 272.733333 
L -141.716667 272.733333 
z
" style="fill:#d95f02;opacity:0.6;stroke:#000000;stroke-linejoin:miter;stroke-width:0.5;"/>
   </g>
   <g id="patch_64">
    <path clip-path="url(#p5be9310aa0)" d="M -135.597727 272.733333 
L -129.478788 272.733333 
L -129.478788 270.570817 
L -135.597727 270.570817 
z
" style="fill:#d95f02;opacity:0.6;stroke:#000000;stroke-linejoin:miter;stroke-width:0.5;"/>
   </g>
   <g id="patch_65">
    <path clip-path="url(#p5be9310aa0)" d="M -129.478788 272.733333 
L -123.359848 272.733333 
L -123.359848 270.261886 
L -129.478788 270.261886 
z
" style="fill:#d95f02;opacity:0.6;stroke:#000000;stroke-linejoin:miter;stroke-width:0.5;"/>
   </g>
   <g id="patch_66">
    <path clip-path="url(#p5be9310aa0)" d="M -123.359848 272.733333 
L -117.240909 272.733333 
L -117.240909 266.863645 
L -123.359848 266.863645 
z
" style="fill:#d95f02;opacity:0.6;stroke:#000000;stroke-linejoin:miter;stroke-width:0.5;"/>
   </g>
   <g id="patch_67">
    <path clip-path="url(#p5be9310aa0)" d="M -117.240909 272.733333 
L -111.12197 272.733333 
L -111.12197 262.847543 
L -117.240909 262.847543 
z
" style="fill:#d95f02;opacity:0.6;stroke:#000000;stroke-linejoin:miter;stroke-width:0.5;"/>
   </g>
   <g id="patch_68">
    <path clip-path="url(#p5be9310aa0)" d="M -111.12197 272.733333 
L -105.00303 272.733333 
L -105.00303 265.936852 
L -111.12197 265.936852 
z
" style="fill:#d95f02;opacity:0.6;stroke:#000000;stroke-linejoin:miter;stroke-width:0.5;"/>
   </g>
   <g id="patch_69">
    <path clip-path="url(#p5be9310aa0)" d="M -105.00303 272.733333 
L -98.884091 272.733333 
L -98.884091 264.701128 
L -105.00303 264.701128 
z
" style="fill:#d95f02;opacity:0.6;stroke:#000000;stroke-linejoin:miter;stroke-width:0.5;"/>
   </g>
   <g id="patch_70">
    <path clip-path="url(#p5be9310aa0)" d="M -98.884091 272.733333 
L -92.765152 272.733333 
L -92.765152 266.245783 
L -98.884091 266.245783 
z
" style="fill:#d95f02;opacity:0.6;stroke:#000000;stroke-linejoin:miter;stroke-width:0.5;"/>
   </g>
   <g id="patch_71">
    <path clip-path="url(#p5be9310aa0)" d="M -92.765152 272.733333 
L -86.646212 272.733333 
L -86.646212 265.010059 
L -92.765152 265.010059 
z
" style="fill:#d95f02;opacity:0.6;stroke:#000000;stroke-linejoin:miter;stroke-width:0.5;"/>
   </g>
   <g id="patch_72">
    <path clip-path="url(#p5be9310aa0)" d="M -86.646212 272.733333 
L -80.527273 272.733333 
L -80.527273 264.392197 
L -86.646212 264.392197 
z
" style="fill:#d95f02;opacity:0.6;stroke:#000000;stroke-linejoin:miter;stroke-width:0.5;"/>
   </g>
   <g id="patch_73">
    <path clip-path="url(#p5be9310aa0)" d="M -80.527273 272.733333 
L -74.408333 272.733333 
L -74.408333 266.554714 
L -80.527273 266.554714 
z
" style="fill:#d95f02;opacity:0.6;stroke:#000000;stroke-linejoin:miter;stroke-width:0.5;"/>
   </g>
   <g id="patch_74">
    <path clip-path="url(#p5be9310aa0)" d="M -74.408333 272.733333 
L -68.289394 272.733333 
L -68.289394 263.774335 
L -74.408333 263.774335 
z
" style="fill:#d95f02;opacity:0.6;stroke:#000000;stroke-linejoin:miter;stroke-width:0.5;"/>
   </g>
   <g id="patch_75">
    <path clip-path="url(#p5be9310aa0)" d="M -68.289394 272.733333 
L -62.170455 272.733333 
L -62.170455 260.993957 
L -68.289394 260.993957 
z
" style="fill:#d95f02;opacity:0.6;stroke:#000000;stroke-linejoin:miter;stroke-width:0.5;"/>
   </g>
   <g id="patch_76">
    <path clip-path="url(#p5be9310aa0)" d="M -62.170455 272.733333 
L -56.051515 272.733333 
L -56.051515 253.579614 
L -62.170455 253.579614 
z
" style="fill:#d95f02;opacity:0.6;stroke:#000000;stroke-linejoin:miter;stroke-width:0.5;"/>
   </g>
   <g id="patch_77">
    <path clip-path="url(#p5be9310aa0)" d="M -56.051515 272.733333 
L -49.932576 272.733333 
L -49.932576 176.037942 
L -56.051515 176.037942 
z
" style="fill:#d95f02;opacity:0.6;stroke:#000000;stroke-linejoin:miter;stroke-width:0.5;"/>
   </g>
   <g id="patch_78">
    <path clip-path="url(#p5be9310aa0)" d="M -49.932576 272.733333 
L -43.813636 272.733333 
L -43.813636 16.320635 
L -49.932576 16.320635 
z
" style="fill:#d95f02;opacity:0.6;stroke:#000000;stroke-linejoin:miter;stroke-width:0.5;"/>
   </g>
   <g id="patch_79">
    <path clip-path="url(#p5be9310aa0)" d="M -43.813636 272.733333 
L -37.694697 272.733333 
L -37.694697 133.405469 
L -43.813636 133.405469 
z
" style="fill:#d95f02;opacity:0.6;stroke:#000000;stroke-linejoin:miter;stroke-width:0.5;"/>
   </g>
   <g id="patch_80">
    <path clip-path="url(#p5be9310aa0)" d="M -37.694697 272.733333 
L -31.575758 272.733333 
L -31.575758 266.863645 
L -37.694697 266.863645 
z
" style="fill:#d95f02;opacity:0.6;stroke:#000000;stroke-linejoin:miter;stroke-width:0.5;"/>
   </g>
   <g id="patch_81">
    <path clip-path="url(#p5be9310aa0)" d="M -31.575758 272.733333 
L -25.456818 272.733333 
L -25.456818 272.733333 
L -31.575758 272.733333 
z
" style="fill:#d95f02;opacity:0.6;stroke:#000000;stroke-linejoin:miter;stroke-width:0.5;"/>
   </g>
   <g id="patch_82">
    <path clip-path="url(#p5be9310aa0)" d="M -25.456818 272.733333 
L -19.337879 272.733333 
L -19.337879 272.733333 
L -25.456818 272.733333 
z
" style="fill:#d95f02;opacity:0.6;stroke:#000000;stroke-linejoin:miter;stroke-width:0.5;"/>
   </g>
   <g id="matplotlib.axis_1">
    <g id="xtick_1">
     <g id="line2d_1">
      <defs>
       <path d="M 0 0 
L 0 3.5 
" id="mc25bde6e22" style="stroke:#000000;stroke-width:1.6;"/>
      </defs>
      <g/>
     </g>
     <g id="text_1">
      <!-- 0.0 -->
      <defs>
       <path d="M 31.78125 66.40625 
Q 24.171875 66.40625 20.328125 58.90625 
Q 16.5 51.421875 16.5 36.375 
Q 16.5 21.390625 20.328125 13.890625 
Q 24.171875 6.390625 31.78125 6.390625 
Q 39.453125 6.390625 43.28125 13.890625 
Q 47.125 21.390625 47.125 36.375 
Q 47.125 51.421875 43.28125 58.90625 
Q 39.453125 66.40625 31.78125 66.40625 
z
M 31.78125 74.21875 
Q 44.046875 74.21875 50.515625 64.515625 
Q 56.984375 54.828125 56.984375 36.375 
Q 56.984375 17.96875 50.515625 8.265625 
Q 44.046875 -1.421875 31.78125 -1.421875 
Q 19.53125 -1.421875 13.0625 8.265625 
Q 6.59375 17.96875 6.59375 36.375 
Q 6.59375 54.828125 13.0625 64.515625 
Q 19.53125 74.21875 31.78125 74.21875 
z
" id="DejaVuSans-48"/>
       <path d="M 10.6875 12.40625 
L 21 12.40625 
L 21 0 
L 10.6875 0 
z
" id="DejaVuSans-46"/>
      </defs>
      <g transform="translate(-279.99858 302.630208)scale(0.2 -0.2)">
       <use xlink:href="#DejaVuSans-48"/>
       <use x="63.623047" xlink:href="#DejaVuSans-46"/>
       <use x="95.410156" xlink:href="#DejaVuSans-48"/>
      </g>
     </g>
    </g>
    <g id="xtick_2">
     <g id="line2d_2">
      <g/>
     </g>
     <g id="text_2">
      <!-- 0.2 -->
      <defs>
       <path d="M 19.1875 8.296875 
L 53.609375 8.296875 
L 53.609375 0 
L 7.328125 0 
L 7.328125 8.296875 
Q 12.9375 14.109375 22.625 23.890625 
Q 32.328125 33.6875 34.8125 36.53125 
Q 39.546875 41.84375 41.421875 45.53125 
Q 43.3125 49.21875 43.3125 52.78125 
Q 43.3125 58.59375 39.234375 62.25 
Q 35.15625 65.921875 28.609375 65.921875 
Q 23.96875 65.921875 18.8125 64.3125 
Q 13.671875 62.703125 7.8125 59.421875 
L 7.8125 69.390625 
Q 13.765625 71.78125 18.9375 73 
Q 24.125 74.21875 28.421875 74.21875 
Q 39.75 74.21875 46.484375 68.546875 
Q 53.21875 62.890625 53.21875 53.421875 
Q 53.21875 48.921875 51.53125 44.890625 
Q 49.859375 40.875 45.40625 35.40625 
Q 44.1875 33.984375 37.640625 27.21875 
Q 31.109375 20.453125 19.1875 8.296875 
z
" id="DejaVuSans-50"/>
      </defs>
      <g transform="translate(-210.067844 302.630208)scale(0.2 -0.2)">
       <use xlink:href="#DejaVuSans-48"/>
       <use x="63.623047" xlink:href="#DejaVuSans-46"/>
       <use x="95.410156" xlink:href="#DejaVuSans-50"/>
      </g>
     </g>
    </g>
    <g id="xtick_3">
     <g id="line2d_3">
      <g/>
     </g>
     <g id="text_3">
      <!-- 0.4 -->
      <defs>
       <path d="M 37.796875 64.3125 
L 12.890625 25.390625 
L 37.796875 25.390625 
z
M 35.203125 72.90625 
L 47.609375 72.90625 
L 47.609375 25.390625 
L 58.015625 25.390625 
L 58.015625 17.1875 
L 47.609375 17.1875 
L 47.609375 0 
L 37.796875 0 
L 37.796875 17.1875 
L 4.890625 17.1875 
L 4.890625 26.703125 
z
" id="DejaVuSans-52"/>
      </defs>
      <g transform="translate(-140.137108 302.630208)scale(0.2 -0.2)">
       <use xlink:href="#DejaVuSans-48"/>
       <use x="63.623047" xlink:href="#DejaVuSans-46"/>
       <use x="95.410156" xlink:href="#DejaVuSans-52"/>
      </g>
     </g>
    </g>
    <g id="xtick_4">
     <g id="line2d_4">
      <g/>
     </g>
     <g id="text_4">
      <!-- 0.6 -->
      <defs>
       <path d="M 33.015625 40.375 
Q 26.375 40.375 22.484375 35.828125 
Q 18.609375 31.296875 18.609375 23.390625 
Q 18.609375 15.53125 22.484375 10.953125 
Q 26.375 6.390625 33.015625 6.390625 
Q 39.65625 6.390625 43.53125 10.953125 
Q 47.40625 15.53125 47.40625 23.390625 
Q 47.40625 31.296875 43.53125 35.828125 
Q 39.65625 40.375 33.015625 40.375 
z
M 52.59375 71.296875 
L 52.59375 62.3125 
Q 48.875 64.0625 45.09375 64.984375 
Q 41.3125 65.921875 37.59375 65.921875 
Q 27.828125 65.921875 22.671875 59.328125 
Q 17.53125 52.734375 16.796875 39.40625 
Q 19.671875 43.65625 24.015625 45.921875 
Q 28.375 48.1875 33.59375 48.1875 
Q 44.578125 48.1875 50.953125 41.515625 
Q 57.328125 34.859375 57.328125 23.390625 
Q 57.328125 12.15625 50.6875 5.359375 
Q 44.046875 -1.421875 33.015625 -1.421875 
Q 20.359375 -1.421875 13.671875 8.265625 
Q 6.984375 17.96875 6.984375 36.375 
Q 6.984375 53.65625 15.1875 63.9375 
Q 23.390625 74.21875 37.203125 74.21875 
Q 40.921875 74.21875 44.703125 73.484375 
Q 48.484375 72.75 52.59375 71.296875 
z
" id="DejaVuSans-54"/>
      </defs>
      <g transform="translate(-70.206372 302.630208)scale(0.2 -0.2)">
       <use xlink:href="#DejaVuSans-48"/>
       <use x="63.623047" xlink:href="#DejaVuSans-46"/>
       <use x="95.410156" xlink:href="#DejaVuSans-54"/>
      </g>
     </g>
    </g>
    <g id="text_5">
     <!--   -->
     <defs>
      <path id="DejaVuSans-32"/>
     </defs>
     <g transform="translate(-144.894792 325.986458)scale(0.2 -0.2)">
      <use xlink:href="#DejaVuSans-32"/>
     </g>
    </g>
   </g>
   <g id="matplotlib.axis_2">
    <g id="ytick_1">
     <g id="line2d_5">
      <defs>
       <path d="M 0 0 
L -3.5 0 
" id="me7ef953c7e" style="stroke:#000000;stroke-width:1.6;"/>
      </defs>
      <g/>
     </g>
     <g id="text_6">
      <!-- 0.0 -->
      <g transform="translate(-322.839583 280.331771)scale(0.2 -0.2)">
       <use xlink:href="#DejaVuSans-48"/>
       <use x="63.623047" xlink:href="#DejaVuSans-46"/>
       <use x="95.410156" xlink:href="#DejaVuSans-48"/>
      </g>
     </g>
    </g>
    <g id="ytick_2">
     <g id="line2d_6">
      <g/>
     </g>
     <g id="text_7">
      <!-- 0.1 -->
      <defs>
       <path d="M 12.40625 8.296875 
L 28.515625 8.296875 
L 28.515625 63.921875 
L 10.984375 60.40625 
L 10.984375 69.390625 
L 28.421875 72.90625 
L 38.28125 72.90625 
L 38.28125 8.296875 
L 54.390625 8.296875 
L 54.390625 0 
L 12.40625 0 
z
" id="DejaVuSans-49"/>
      </defs>
      <g transform="translate(-322.839583 220.090233)scale(0.2 -0.2)">
       <use xlink:href="#DejaVuSans-48"/>
       <use x="63.623047" xlink:href="#DejaVuSans-46"/>
       <use x="95.410156" xlink:href="#DejaVuSans-49"/>
      </g>
     </g>
    </g>
    <g id="ytick_3">
     <g id="line2d_7">
      <g/>
     </g>
     <g id="text_8">
      <!-- 0.2 -->
      <g transform="translate(-322.839583 159.848696)scale(0.2 -0.2)">
       <use xlink:href="#DejaVuSans-48"/>
       <use x="63.623047" xlink:href="#DejaVuSans-46"/>
       <use x="95.410156" xlink:href="#DejaVuSans-50"/>
      </g>
     </g>
    </g>
    <g id="ytick_4">
     <g id="line2d_8">
      <g/>
     </g>
     <g id="text_9">
      <!-- 0.3 -->
      <defs>
       <path d="M 40.578125 39.3125 
Q 47.65625 37.796875 51.625 33 
Q 55.609375 28.21875 55.609375 21.1875 
Q 55.609375 10.40625 48.1875 4.484375 
Q 40.765625 -1.421875 27.09375 -1.421875 
Q 22.515625 -1.421875 17.65625 -0.515625 
Q 12.796875 0.390625 7.625 2.203125 
L 7.625 11.71875 
Q 11.71875 9.328125 16.59375 8.109375 
Q 21.484375 6.890625 26.8125 6.890625 
Q 36.078125 6.890625 40.9375 10.546875 
Q 45.796875 14.203125 45.796875 21.1875 
Q 45.796875 27.640625 41.28125 31.265625 
Q 36.765625 34.90625 28.71875 34.90625 
L 20.21875 34.90625 
L 20.21875 43.015625 
L 29.109375 43.015625 
Q 36.375 43.015625 40.234375 45.921875 
Q 44.09375 48.828125 44.09375 54.296875 
Q 44.09375 59.90625 40.109375 62.90625 
Q 36.140625 65.921875 28.71875 65.921875 
Q 24.65625 65.921875 20.015625 65.03125 
Q 15.375 64.15625 9.8125 62.3125 
L 9.8125 71.09375 
Q 15.4375 72.65625 20.34375 73.4375 
Q 25.25 74.21875 29.59375 74.21875 
Q 40.828125 74.21875 47.359375 69.109375 
Q 53.90625 64.015625 53.90625 55.328125 
Q 53.90625 49.265625 50.4375 45.09375 
Q 46.96875 40.921875 40.578125 39.3125 
z
" id="DejaVuSans-51"/>
      </defs>
      <g transform="translate(-322.839583 99.607158)scale(0.2 -0.2)">
       <use xlink:href="#DejaVuSans-48"/>
       <use x="63.623047" xlink:href="#DejaVuSans-46"/>
       <use x="95.410156" xlink:href="#DejaVuSans-51"/>
      </g>
     </g>
    </g>
    <g id="ytick_5">
     <g id="line2d_9">
      <g/>
     </g>
     <g id="text_10">
      <!-- 0.4 -->
      <g transform="translate(-322.839583 39.365621)scale(0.2 -0.2)">
       <use xlink:href="#DejaVuSans-48"/>
       <use x="63.623047" xlink:href="#DejaVuSans-46"/>
       <use x="95.410156" xlink:href="#DejaVuSans-52"/>
      </g>
     </g>
    </g>
    <g id="text_11">
     <!--   -->
     <g transform="translate(-330.499833 140.913417)rotate(-90)scale(0.176 -0.176)">
      <use xlink:href="#DejaVuSans-32"/>
     </g>
    </g>
   </g>
   <g id="patch_83">
    <path style="fill:none;stroke:#000000;stroke-linecap:square;stroke-linejoin:miter;stroke-width:0.8;"/>
   </g>
   <g id="patch_84">
    <path style="fill:none;stroke:#000000;stroke-linecap:square;stroke-linejoin:miter;stroke-width:0.8;"/>
   </g>
  </g>
  <g id="axes_2">
   <g id="patch_85">
    <path d="M 96.7 272.733333 
L 365.933333 272.733333 
L 365.933333 3.5 
L 96.7 3.5 
z
" style="fill:#ffffff;"/>
   </g>
   <g id="PolyCollection_1">
    <defs>
     <path d="M 226.116287 -309.721081 
L 226.116287 -309.760586 
L 227.37717 -309.762575 
L 228.638053 -309.76319 
L 229.898936 -309.762341 
L 231.159819 -309.760182 
L 232.420702 -309.757109 
L 233.681585 -309.753706 
L 234.942468 -309.750638 
L 236.203351 -309.748506 
L 237.464234 -309.747698 
L 238.725117 -309.748292 
L 239.986 -309.750039 
L 241.246883 -309.752442 
L 242.507766 -309.754933 
L 243.768649 -309.757113 
L 245.029532 -309.758947 
L 246.290415 -309.760799 
L 247.551298 -309.76327 
L 248.812181 -309.766954 
L 250.073064 -309.772255 
L 251.333947 -309.779366 
L 252.59483 -309.788381 
L 253.855713 -309.799439 
L 255.116596 -309.812873 
L 256.377479 -309.829359 
L 257.638362 -309.850049 
L 258.899245 -309.876539 
L 260.160128 -309.910495 
L 261.421011 -309.952876 
L 262.681894 -310.003059 
L 263.942777 -310.058353 
L 265.203661 -310.114336 
L 266.464544 -310.165971 
L 267.725427 -310.208944 
L 268.98631 -310.24054 
L 270.247193 -310.259705 
L 271.508076 -310.266555 
L 272.768959 -310.261857 
L 274.029842 -310.246899 
L 275.290725 -310.223749 
L 276.551608 -310.195594 
L 277.812491 -310.166781 
L 279.073374 -310.142299 
L 280.334257 -310.126751 
L 281.59514 -310.12313 
L 282.856023 -310.131934 
L 284.116906 -310.151008 
L 285.377789 -310.17625 
L 286.638672 -310.202927 
L 287.899555 -310.227134 
L 289.160438 -310.246873 
L 290.421321 -310.26234 
L 291.682204 -310.275295 
L 292.943087 -310.287777 
L 294.20397 -310.300763 
L 295.464853 -310.313469 
L 296.725736 -310.323678 
L 297.986619 -310.328948 
L 299.247502 -310.328076 
L 300.508385 -310.322079 
L 301.769268 -310.314251 
L 303.030151 -310.309323 
L 304.291034 -310.312054 
L 305.551917 -310.325663 
L 306.8128 -310.350547 
L 308.073683 -310.383916 
L 309.334566 -310.420916 
L 310.595449 -310.457293 
L 311.856332 -310.492663 
L 313.117215 -310.532654 
L 314.378098 -310.58843 
L 315.638981 -310.673417 
L 316.899864 -310.798731 
L 318.160747 -310.969748 
L 319.42163 -311.185698 
L 320.682513 -311.442483 
L 321.943396 -311.737227 
L 323.204279 -312.072657 
L 324.465162 -312.460185 
L 325.726045 -312.921482 
L 326.986928 -313.488008 
L 328.247811 -314.196917 
L 329.508694 -315.081608 
L 330.769577 -316.157265 
L 332.030461 -317.404966 
L 333.291344 -318.760004 
L 334.552227 -320.109595 
L 335.81311 -321.302866 
L 337.073993 -322.173322 
L 338.334876 -322.571148 
L 339.595759 -322.39909 
L 340.856642 -321.641738 
L 342.117525 -320.376808 
L 343.378408 -318.761275 
L 344.639291 -316.994741 
L 345.900174 -315.272464 
L 347.161057 -313.744903 
L 348.42194 -312.49663 
L 349.682823 -311.54772 
L 350.943706 -310.871193 
L 350.943706 -308.610474 
L 350.943706 -308.610474 
L 349.682823 -307.933947 
L 348.42194 -306.985036 
L 347.161057 -305.736763 
L 345.900174 -304.209203 
L 344.639291 -302.486926 
L 343.378408 -300.720392 
L 342.117525 -299.104859 
L 340.856642 -297.839929 
L 339.595759 -297.082577 
L 338.334876 -296.910518 
L 337.073993 -297.308345 
L 335.81311 -298.1788 
L 334.552227 -299.372072 
L 333.291344 -300.721663 
L 332.030461 -302.076701 
L 330.769577 -303.324402 
L 329.508694 -304.400059 
L 328.247811 -305.28475 
L 326.986928 -305.993659 
L 325.726045 -306.560185 
L 324.465162 -307.021481 
L 323.204279 -307.40901 
L 321.943396 -307.74444 
L 320.682513 -308.039184 
L 319.42163 -308.295968 
L 318.160747 -308.511919 
L 316.899864 -308.682936 
L 315.638981 -308.80825 
L 314.378098 -308.893237 
L 313.117215 -308.949013 
L 311.856332 -308.989003 
L 310.595449 -309.024373 
L 309.334566 -309.060751 
L 308.073683 -309.09775 
L 306.8128 -309.13112 
L 305.551917 -309.156004 
L 304.291034 -309.169612 
L 303.030151 -309.172344 
L 301.769268 -309.167416 
L 300.508385 -309.159588 
L 299.247502 -309.153591 
L 297.986619 -309.152719 
L 296.725736 -309.157988 
L 295.464853 -309.168197 
L 294.20397 -309.180904 
L 292.943087 -309.19389 
L 291.682204 -309.206371 
L 290.421321 -309.219327 
L 289.160438 -309.234794 
L 287.899555 -309.254533 
L 286.638672 -309.27874 
L 285.377789 -309.305417 
L 284.116906 -309.330659 
L 282.856023 -309.349733 
L 281.59514 -309.358536 
L 280.334257 -309.354916 
L 279.073374 -309.339368 
L 277.812491 -309.314886 
L 276.551608 -309.286072 
L 275.290725 -309.257917 
L 274.029842 -309.234767 
L 272.768959 -309.21981 
L 271.508076 -309.215112 
L 270.247193 -309.221961 
L 268.98631 -309.241127 
L 267.725427 -309.272722 
L 266.464544 -309.315696 
L 265.203661 -309.367331 
L 263.942777 -309.423314 
L 262.681894 -309.478607 
L 261.421011 -309.52879 
L 260.160128 -309.571172 
L 258.899245 -309.605127 
L 257.638362 -309.631618 
L 256.377479 -309.652308 
L 255.116596 -309.668794 
L 253.855713 -309.682228 
L 252.59483 -309.693286 
L 251.333947 -309.7023 
L 250.073064 -309.709412 
L 248.812181 -309.714713 
L 247.551298 -309.718397 
L 246.290415 -309.720868 
L 245.029532 -309.722719 
L 243.768649 -309.724554 
L 242.507766 -309.726734 
L 241.246883 -309.729225 
L 239.986 -309.731627 
L 238.725117 -309.733375 
L 237.464234 -309.733969 
L 236.203351 -309.73316 
L 234.942468 -309.731029 
L 233.681585 -309.727961 
L 232.420702 -309.724557 
L 231.159819 -309.721484 
L 229.898936 -309.719326 
L 228.638053 -309.718476 
L 227.37717 -309.719092 
L 226.116287 -309.721081 
z
" id="mb12aad3e9a" style="stroke:#424242;"/>
    </defs>
    <g clip-path="url(#pde47498b50)">
     <use style="fill:#7c78ab;stroke:#424242;" x="0" xlink:href="#mb12aad3e9a" y="333.433333"/>
    </g>
   </g>
   <g id="PolyCollection_2">
    <defs>
     <path d="M 238.777967 -282.802945 
L 238.777967 -282.832055 
L 239.91688 -282.833926 
L 241.055793 -282.836395 
L 242.194706 -282.840184 
L 243.333619 -282.846022 
L 244.472531 -282.854426 
L 245.611444 -282.865512 
L 246.750357 -282.878928 
L 247.88927 -282.893943 
L 249.028183 -282.909698 
L 250.167096 -282.925522 
L 251.306009 -282.941225 
L 252.444922 -282.957218 
L 253.583835 -282.974403 
L 254.722747 -282.993855 
L 255.86166 -283.01643 
L 257.000573 -283.042479 
L 258.139486 -283.071814 
L 259.278399 -283.103911 
L 260.417312 -283.138214 
L 261.556225 -283.174311 
L 262.695138 -283.211853 
L 263.834051 -283.250188 
L 264.972963 -283.287938 
L 266.111876 -283.322769 
L 267.250789 -283.351615 
L 268.389702 -283.371399 
L 269.528615 -283.380051 
L 270.667528 -283.377411 
L 271.806441 -283.365598 
L 272.945354 -283.348582 
L 274.084267 -283.331061 
L 275.22318 -283.317058 
L 276.362092 -283.308798 
L 277.501005 -283.306276 
L 278.639918 -283.307632 
L 279.778831 -283.310077 
L 280.917744 -283.310953 
L 282.056657 -283.308524 
L 283.19557 -283.302307 
L 284.334483 -283.292969 
L 285.473396 -283.281956 
L 286.612308 -283.271029 
L 287.751221 -283.261847 
L 288.890134 -283.255642 
L 290.029047 -283.25306 
L 291.16796 -283.254153 
L 292.306873 -283.258519 
L 293.445786 -283.265482 
L 294.584699 -283.274245 
L 295.723612 -283.283922 
L 296.862525 -283.293503 
L 298.001437 -283.301853 
L 299.14035 -283.30786 
L 300.279263 -283.310782 
L 301.418176 -283.310652 
L 302.557089 -283.308526 
L 303.696002 -283.306331 
L 304.834915 -283.306289 
L 305.973828 -283.310125 
L 307.112741 -283.318441 
L 308.251653 -283.330599 
L 309.390566 -283.345202 
L 310.529479 -283.360974 
L 311.668392 -283.377594 
L 312.807305 -283.396107 
L 313.946218 -283.41874 
L 315.085131 -283.448316 
L 316.224044 -283.487659 
L 317.362957 -283.539423 
L 318.501869 -283.606626 
L 319.640782 -283.693885 
L 320.779695 -283.809112 
L 321.918608 -283.96521 
L 323.057521 -284.181161 
L 324.196434 -284.481857 
L 325.335347 -284.89618 
L 326.47426 -285.453215 
L 327.613173 -286.177024 
L 328.752086 -287.080924 
L 329.890998 -288.162288 
L 331.029911 -289.398665 
L 332.168824 -290.745473 
L 333.307737 -292.135375 
L 334.44665 -293.479758 
L 335.585563 -294.673421 
L 336.724476 -295.603885 
L 337.863389 -296.165833 
L 339.002302 -296.279167 
L 340.141214 -295.906667 
L 341.280127 -295.065848 
L 342.41904 -293.830348 
L 343.557953 -292.319108 
L 344.696866 -290.675583 
L 345.835779 -289.042547 
L 346.974692 -287.539278 
L 348.113605 -286.246666 
L 349.252518 -285.202724 
L 350.39143 -284.407552 
L 351.530343 -283.834305 
L 351.530343 -281.800695 
L 351.530343 -281.800695 
L 350.39143 -281.227448 
L 349.252518 -280.432276 
L 348.113605 -279.388334 
L 346.974692 -278.095722 
L 345.835779 -276.592453 
L 344.696866 -274.959417 
L 343.557953 -273.315892 
L 342.41904 -271.804652 
L 341.280127 -270.569152 
L 340.141214 -269.728333 
L 339.002302 -269.355833 
L 337.863389 -269.469167 
L 336.724476 -270.031115 
L 335.585563 -270.961579 
L 334.44665 -272.155242 
L 333.307737 -273.499625 
L 332.168824 -274.889527 
L 331.029911 -276.236335 
L 329.890998 -277.472712 
L 328.752086 -278.554076 
L 327.613173 -279.457976 
L 326.47426 -280.181785 
L 325.335347 -280.73882 
L 324.196434 -281.153143 
L 323.057521 -281.453839 
L 321.918608 -281.66979 
L 320.779695 -281.825888 
L 319.640782 -281.941115 
L 318.501869 -282.028374 
L 317.362957 -282.095577 
L 316.224044 -282.147341 
L 315.085131 -282.186684 
L 313.946218 -282.21626 
L 312.807305 -282.238893 
L 311.668392 -282.257406 
L 310.529479 -282.274026 
L 309.390566 -282.289798 
L 308.251653 -282.304401 
L 307.112741 -282.316559 
L 305.973828 -282.324875 
L 304.834915 -282.328711 
L 303.696002 -282.328669 
L 302.557089 -282.326474 
L 301.418176 -282.324348 
L 300.279263 -282.324218 
L 299.14035 -282.32714 
L 298.001437 -282.333147 
L 296.862525 -282.341497 
L 295.723612 -282.351078 
L 294.584699 -282.360755 
L 293.445786 -282.369518 
L 292.306873 -282.376481 
L 291.16796 -282.380847 
L 290.029047 -282.38194 
L 288.890134 -282.379358 
L 287.751221 -282.373153 
L 286.612308 -282.363971 
L 285.473396 -282.353044 
L 284.334483 -282.342031 
L 283.19557 -282.332693 
L 282.056657 -282.326476 
L 280.917744 -282.324047 
L 279.778831 -282.324923 
L 278.639918 -282.327368 
L 277.501005 -282.328724 
L 276.362092 -282.326202 
L 275.22318 -282.317942 
L 274.084267 -282.303939 
L 272.945354 -282.286418 
L 271.806441 -282.269402 
L 270.667528 -282.257589 
L 269.528615 -282.254949 
L 268.389702 -282.263601 
L 267.250789 -282.283385 
L 266.111876 -282.312231 
L 264.972963 -282.347062 
L 263.834051 -282.384812 
L 262.695138 -282.423147 
L 261.556225 -282.460689 
L 260.417312 -282.496786 
L 259.278399 -282.531089 
L 258.139486 -282.563186 
L 257.000573 -282.592521 
L 255.86166 -282.61857 
L 254.722747 -282.641145 
L 253.583835 -282.660597 
L 252.444922 -282.677782 
L 251.306009 -282.693775 
L 250.167096 -282.709478 
L 249.028183 -282.725302 
L 247.88927 -282.741057 
L 246.750357 -282.756072 
L 245.611444 -282.769488 
L 244.472531 -282.780574 
L 243.333619 -282.788978 
L 242.194706 -282.794816 
L 241.055793 -282.798605 
L 239.91688 -282.801074 
L 238.777967 -282.802945 
z
" id="m514259366a" style="stroke:#424242;"/>
    </defs>
    <g clip-path="url(#pde47498b50)">
     <use style="fill:#be631d;stroke:#424242;" x="0" xlink:href="#m514259366a" y="333.433333"/>
    </g>
   </g>
   <g id="patch_86">
    <path clip-path="url(#pde47498b50)" d="M 114.648889 37.154167 
L 114.648889 37.154167 
L 114.648889 37.154167 
L 114.648889 37.154167 
z
" style="fill:#7c78ab;stroke:#424242;stroke-linejoin:miter;stroke-width:0.5;"/>
   </g>
   <g id="patch_87">
    <path clip-path="url(#pde47498b50)" d="M 114.648889 37.154167 
L 114.648889 37.154167 
L 114.648889 37.154167 
L 114.648889 37.154167 
z
" style="fill:#be631d;stroke:#424242;stroke-linejoin:miter;stroke-width:0.5;"/>
   </g>
   <g id="matplotlib.axis_3">
    <g id="xtick_5">
     <g id="line2d_10">
      <g>
       <use style="stroke:#000000;stroke-width:1.6;" x="114.648889" xlink:href="#mc25bde6e22" y="272.733333"/>
      </g>
     </g>
     <g id="text_12">
      <!-- 0.0 -->
      <g transform="translate(98.745764 302.630208)scale(0.2 -0.2)">
       <use xlink:href="#DejaVuSans-48"/>
       <use x="63.623047" xlink:href="#DejaVuSans-46"/>
       <use x="95.410156" xlink:href="#DejaVuSans-48"/>
      </g>
     </g>
    </g>
    <g id="xtick_6">
     <g id="line2d_11">
      <g>
       <use style="stroke:#000000;stroke-width:1.6;" x="186.444444" xlink:href="#mc25bde6e22" y="272.733333"/>
      </g>
     </g>
     <g id="text_13">
      <!-- 0.2 -->
      <g transform="translate(170.541319 302.630208)scale(0.2 -0.2)">
       <use xlink:href="#DejaVuSans-48"/>
       <use x="63.623047" xlink:href="#DejaVuSans-46"/>
       <use x="95.410156" xlink:href="#DejaVuSans-50"/>
      </g>
     </g>
    </g>
    <g id="xtick_7">
     <g id="line2d_12">
      <g>
       <use style="stroke:#000000;stroke-width:1.6;" x="258.24" xlink:href="#mc25bde6e22" y="272.733333"/>
      </g>
     </g>
     <g id="text_14">
      <!-- 0.4 -->
      <g transform="translate(242.336875 302.630208)scale(0.2 -0.2)">
       <use xlink:href="#DejaVuSans-48"/>
       <use x="63.623047" xlink:href="#DejaVuSans-46"/>
       <use x="95.410156" xlink:href="#DejaVuSans-52"/>
      </g>
     </g>
    </g>
    <g id="xtick_8">
     <g id="line2d_13">
      <g>
       <use style="stroke:#000000;stroke-width:1.6;" x="330.035556" xlink:href="#mc25bde6e22" y="272.733333"/>
      </g>
     </g>
     <g id="text_15">
      <!-- 0.6 -->
      <g transform="translate(314.132431 302.630208)scale(0.2 -0.2)">
       <use xlink:href="#DejaVuSans-48"/>
       <use x="63.623047" xlink:href="#DejaVuSans-46"/>
       <use x="95.410156" xlink:href="#DejaVuSans-54"/>
      </g>
     </g>
    </g>
    <g id="text_16">
     <!-- Max JS Divergence within $\epsilon$ -->
     <defs>
      <path d="M 9.8125 72.90625 
L 24.515625 72.90625 
L 43.109375 23.296875 
L 61.8125 72.90625 
L 76.515625 72.90625 
L 76.515625 0 
L 66.890625 0 
L 66.890625 64.015625 
L 48.09375 14.015625 
L 38.1875 14.015625 
L 19.390625 64.015625 
L 19.390625 0 
L 9.8125 0 
z
" id="DejaVuSans-77"/>
      <path d="M 34.28125 27.484375 
Q 23.390625 27.484375 19.1875 25 
Q 14.984375 22.515625 14.984375 16.5 
Q 14.984375 11.71875 18.140625 8.90625 
Q 21.296875 6.109375 26.703125 6.109375 
Q 34.1875 6.109375 38.703125 11.40625 
Q 43.21875 16.703125 43.21875 25.484375 
L 43.21875 27.484375 
z
M 52.203125 31.203125 
L 52.203125 0 
L 43.21875 0 
L 43.21875 8.296875 
Q 40.140625 3.328125 35.546875 0.953125 
Q 30.953125 -1.421875 24.3125 -1.421875 
Q 15.921875 -1.421875 10.953125 3.296875 
Q 6 8.015625 6 15.921875 
Q 6 25.140625 12.171875 29.828125 
Q 18.359375 34.515625 30.609375 34.515625 
L 43.21875 34.515625 
L 43.21875 35.40625 
Q 43.21875 41.609375 39.140625 45 
Q 35.0625 48.390625 27.6875 48.390625 
Q 23 48.390625 18.546875 47.265625 
Q 14.109375 46.140625 10.015625 43.890625 
L 10.015625 52.203125 
Q 14.9375 54.109375 19.578125 55.046875 
Q 24.21875 56 28.609375 56 
Q 40.484375 56 46.34375 49.84375 
Q 52.203125 43.703125 52.203125 31.203125 
z
" id="DejaVuSans-97"/>
      <path d="M 54.890625 54.6875 
L 35.109375 28.078125 
L 55.90625 0 
L 45.3125 0 
L 29.390625 21.484375 
L 13.484375 0 
L 2.875 0 
L 24.125 28.609375 
L 4.6875 54.6875 
L 15.28125 54.6875 
L 29.78125 35.203125 
L 44.28125 54.6875 
z
" id="DejaVuSans-120"/>
      <path d="M 9.8125 72.90625 
L 19.671875 72.90625 
L 19.671875 5.078125 
Q 19.671875 -8.109375 14.671875 -14.0625 
Q 9.671875 -20.015625 -1.421875 -20.015625 
L -5.171875 -20.015625 
L -5.171875 -11.71875 
L -2.09375 -11.71875 
Q 4.4375 -11.71875 7.125 -8.046875 
Q 9.8125 -4.390625 9.8125 5.078125 
z
" id="DejaVuSans-74"/>
      <path d="M 53.515625 70.515625 
L 53.515625 60.890625 
Q 47.90625 63.578125 42.921875 64.890625 
Q 37.9375 66.21875 33.296875 66.21875 
Q 25.25 66.21875 20.875 63.09375 
Q 16.5 59.96875 16.5 54.203125 
Q 16.5 49.359375 19.40625 46.890625 
Q 22.3125 44.4375 30.421875 42.921875 
L 36.375 41.703125 
Q 47.40625 39.59375 52.65625 34.296875 
Q 57.90625 29 57.90625 20.125 
Q 57.90625 9.515625 50.796875 4.046875 
Q 43.703125 -1.421875 29.984375 -1.421875 
Q 24.8125 -1.421875 18.96875 -0.25 
Q 13.140625 0.921875 6.890625 3.21875 
L 6.890625 13.375 
Q 12.890625 10.015625 18.65625 8.296875 
Q 24.421875 6.59375 29.984375 6.59375 
Q 38.421875 6.59375 43.015625 9.90625 
Q 47.609375 13.234375 47.609375 19.390625 
Q 47.609375 24.75 44.3125 27.78125 
Q 41.015625 30.8125 33.5 32.328125 
L 27.484375 33.5 
Q 16.453125 35.6875 11.515625 40.375 
Q 6.59375 45.0625 6.59375 53.421875 
Q 6.59375 63.09375 13.40625 68.65625 
Q 20.21875 74.21875 32.171875 74.21875 
Q 37.3125 74.21875 42.625 73.28125 
Q 47.953125 72.359375 53.515625 70.515625 
z
" id="DejaVuSans-83"/>
      <path d="M 19.671875 64.796875 
L 19.671875 8.109375 
L 31.59375 8.109375 
Q 46.6875 8.109375 53.6875 14.9375 
Q 60.6875 21.78125 60.6875 36.53125 
Q 60.6875 51.171875 53.6875 57.984375 
Q 46.6875 64.796875 31.59375 64.796875 
z
M 9.8125 72.90625 
L 30.078125 72.90625 
Q 51.265625 72.90625 61.171875 64.09375 
Q 71.09375 55.28125 71.09375 36.53125 
Q 71.09375 17.671875 61.125 8.828125 
Q 51.171875 0 30.078125 0 
L 9.8125 0 
z
" id="DejaVuSans-68"/>
      <path d="M 9.421875 54.6875 
L 18.40625 54.6875 
L 18.40625 0 
L 9.421875 0 
z
M 9.421875 75.984375 
L 18.40625 75.984375 
L 18.40625 64.59375 
L 9.421875 64.59375 
z
" id="DejaVuSans-105"/>
      <path d="M 2.984375 54.6875 
L 12.5 54.6875 
L 29.59375 8.796875 
L 46.6875 54.6875 
L 56.203125 54.6875 
L 35.6875 0 
L 23.484375 0 
z
" id="DejaVuSans-118"/>
      <path d="M 56.203125 29.59375 
L 56.203125 25.203125 
L 14.890625 25.203125 
Q 15.484375 15.921875 20.484375 11.0625 
Q 25.484375 6.203125 34.421875 6.203125 
Q 39.59375 6.203125 44.453125 7.46875 
Q 49.3125 8.734375 54.109375 11.28125 
L 54.109375 2.78125 
Q 49.265625 0.734375 44.1875 -0.34375 
Q 39.109375 -1.421875 33.890625 -1.421875 
Q 20.796875 -1.421875 13.15625 6.1875 
Q 5.515625 13.8125 5.515625 26.8125 
Q 5.515625 40.234375 12.765625 48.109375 
Q 20.015625 56 32.328125 56 
Q 43.359375 56 49.78125 48.890625 
Q 56.203125 41.796875 56.203125 29.59375 
z
M 47.21875 32.234375 
Q 47.125 39.59375 43.09375 43.984375 
Q 39.0625 48.390625 32.421875 48.390625 
Q 24.90625 48.390625 20.390625 44.140625 
Q 15.875 39.890625 15.1875 32.171875 
z
" id="DejaVuSans-101"/>
      <path d="M 41.109375 46.296875 
Q 39.59375 47.171875 37.8125 47.578125 
Q 36.03125 48 33.890625 48 
Q 26.265625 48 22.1875 43.046875 
Q 18.109375 38.09375 18.109375 28.8125 
L 18.109375 0 
L 9.078125 0 
L 9.078125 54.6875 
L 18.109375 54.6875 
L 18.109375 46.1875 
Q 20.953125 51.171875 25.484375 53.578125 
Q 30.03125 56 36.53125 56 
Q 37.453125 56 38.578125 55.875 
Q 39.703125 55.765625 41.0625 55.515625 
z
" id="DejaVuSans-114"/>
      <path d="M 45.40625 27.984375 
Q 45.40625 37.75 41.375 43.109375 
Q 37.359375 48.484375 30.078125 48.484375 
Q 22.859375 48.484375 18.828125 43.109375 
Q 14.796875 37.75 14.796875 27.984375 
Q 14.796875 18.265625 18.828125 12.890625 
Q 22.859375 7.515625 30.078125 7.515625 
Q 37.359375 7.515625 41.375 12.890625 
Q 45.40625 18.265625 45.40625 27.984375 
z
M 54.390625 6.78125 
Q 54.390625 -7.171875 48.1875 -13.984375 
Q 42 -20.796875 29.203125 -20.796875 
Q 24.46875 -20.796875 20.265625 -20.09375 
Q 16.0625 -19.390625 12.109375 -17.921875 
L 12.109375 -9.1875 
Q 16.0625 -11.328125 19.921875 -12.34375 
Q 23.78125 -13.375 27.78125 -13.375 
Q 36.625 -13.375 41.015625 -8.765625 
Q 45.40625 -4.15625 45.40625 5.171875 
L 45.40625 9.625 
Q 42.625 4.78125 38.28125 2.390625 
Q 33.9375 0 27.875 0 
Q 17.828125 0 11.671875 7.65625 
Q 5.515625 15.328125 5.515625 27.984375 
Q 5.515625 40.671875 11.671875 48.328125 
Q 17.828125 56 27.875 56 
Q 33.9375 56 38.28125 53.609375 
Q 42.625 51.21875 45.40625 46.390625 
L 45.40625 54.6875 
L 54.390625 54.6875 
z
" id="DejaVuSans-103"/>
      <path d="M 54.890625 33.015625 
L 54.890625 0 
L 45.90625 0 
L 45.90625 32.71875 
Q 45.90625 40.484375 42.875 44.328125 
Q 39.84375 48.1875 33.796875 48.1875 
Q 26.515625 48.1875 22.3125 43.546875 
Q 18.109375 38.921875 18.109375 30.90625 
L 18.109375 0 
L 9.078125 0 
L 9.078125 54.6875 
L 18.109375 54.6875 
L 18.109375 46.1875 
Q 21.34375 51.125 25.703125 53.5625 
Q 30.078125 56 35.796875 56 
Q 45.21875 56 50.046875 50.171875 
Q 54.890625 44.34375 54.890625 33.015625 
z
" id="DejaVuSans-110"/>
      <path d="M 48.78125 52.59375 
L 48.78125 44.1875 
Q 44.96875 46.296875 41.140625 47.34375 
Q 37.3125 48.390625 33.40625 48.390625 
Q 24.65625 48.390625 19.8125 42.84375 
Q 14.984375 37.3125 14.984375 27.296875 
Q 14.984375 17.28125 19.8125 11.734375 
Q 24.65625 6.203125 33.40625 6.203125 
Q 37.3125 6.203125 41.140625 7.25 
Q 44.96875 8.296875 48.78125 10.40625 
L 48.78125 2.09375 
Q 45.015625 0.34375 40.984375 -0.53125 
Q 36.96875 -1.421875 32.421875 -1.421875 
Q 20.0625 -1.421875 12.78125 6.34375 
Q 5.515625 14.109375 5.515625 27.296875 
Q 5.515625 40.671875 12.859375 48.328125 
Q 20.21875 56 33.015625 56 
Q 37.15625 56 41.109375 55.140625 
Q 45.0625 54.296875 48.78125 52.59375 
z
" id="DejaVuSans-99"/>
      <path d="M 4.203125 54.6875 
L 13.1875 54.6875 
L 24.421875 12.015625 
L 35.59375 54.6875 
L 46.1875 54.6875 
L 57.421875 12.015625 
L 68.609375 54.6875 
L 77.59375 54.6875 
L 63.28125 0 
L 52.6875 0 
L 40.921875 44.828125 
L 29.109375 0 
L 18.5 0 
z
" id="DejaVuSans-119"/>
      <path d="M 18.3125 70.21875 
L 18.3125 54.6875 
L 36.8125 54.6875 
L 36.8125 47.703125 
L 18.3125 47.703125 
L 18.3125 18.015625 
Q 18.3125 11.328125 20.140625 9.421875 
Q 21.96875 7.515625 27.59375 7.515625 
L 36.8125 7.515625 
L 36.8125 0 
L 27.59375 0 
Q 17.1875 0 13.234375 3.875 
Q 9.28125 7.765625 9.28125 18.015625 
L 9.28125 47.703125 
L 2.6875 47.703125 
L 2.6875 54.6875 
L 9.28125 54.6875 
L 9.28125 70.21875 
z
" id="DejaVuSans-116"/>
      <path d="M 54.890625 33.015625 
L 54.890625 0 
L 45.90625 0 
L 45.90625 32.71875 
Q 45.90625 40.484375 42.875 44.328125 
Q 39.84375 48.1875 33.796875 48.1875 
Q 26.515625 48.1875 22.3125 43.546875 
Q 18.109375 38.921875 18.109375 30.90625 
L 18.109375 0 
L 9.078125 0 
L 9.078125 75.984375 
L 18.109375 75.984375 
L 18.109375 46.1875 
Q 21.34375 51.125 25.703125 53.5625 
Q 30.078125 56 35.796875 56 
Q 45.21875 56 50.046875 50.171875 
Q 54.890625 44.34375 54.890625 33.015625 
z
" id="DejaVuSans-104"/>
      <path d="M 19.734375 29.5 
Q 14.453125 30.671875 12.15625 33.84375 
Q 10.453125 36.078125 10.453125 39.109375 
Q 10.453125 47.40625 18.359375 52.25 
Q 24.609375 56.0625 34.1875 56.0625 
Q 37.890625 56.0625 41.9375 55.46875 
Q 46 54.890625 50.53125 53.71875 
L 48.96875 45.5625 
Q 44.484375 46.96875 40.71875 47.609375 
Q 36.859375 48.25 33.40625 48.25 
Q 27.59375 48.25 23.78125 46 
Q 19.1875 43.3125 19.1875 39.40625 
Q 19.1875 36.8125 21.578125 35.015625 
Q 24.421875 32.859375 30.078125 32.859375 
L 37.640625 32.859375 
L 36.234375 25.4375 
L 29 25.4375 
Q 22.265625 25.4375 18.3125 22.953125 
Q 12.9375 19.578125 12.9375 14.3125 
Q 12.9375 10.984375 15.828125 8.796875 
Q 19.4375 6.0625 26.8125 6.0625 
Q 31.34375 6.0625 35.6875 6.9375 
Q 40.046875 7.859375 43.84375 9.671875 
L 42.1875 1.3125 
Q 37.546875 -0.046875 33.296875 -0.734375 
Q 29.046875 -1.421875 25.140625 -1.421875 
Q 13.53125 -1.421875 8.0625 3.03125 
Q 3.90625 6.453125 3.90625 12.203125 
Q 3.90625 19.96875 9.375 24.75 
Q 13.421875 28.328125 19.734375 29.5 
z
" id="DejaVuSans-Oblique-949"/>
     </defs>
     <g transform="translate(95.716667 325.989583)scale(0.2 -0.2)">
      <use transform="translate(0 0.015625)" xlink:href="#DejaVuSans-77"/>
      <use transform="translate(86.279297 0.015625)" xlink:href="#DejaVuSans-97"/>
      <use transform="translate(147.558594 0.015625)" xlink:href="#DejaVuSans-120"/>
      <use transform="translate(206.738281 0.015625)" xlink:href="#DejaVuSans-32"/>
      <use transform="translate(238.525391 0.015625)" xlink:href="#DejaVuSans-74"/>
      <use transform="translate(268.017578 0.015625)" xlink:href="#DejaVuSans-83"/>
      <use transform="translate(331.494141 0.015625)" xlink:href="#DejaVuSans-32"/>
      <use transform="translate(363.28125 0.015625)" xlink:href="#DejaVuSans-68"/>
      <use transform="translate(440.283203 0.015625)" xlink:href="#DejaVuSans-105"/>
      <use transform="translate(468.066406 0.015625)" xlink:href="#DejaVuSans-118"/>
      <use transform="translate(527.246094 0.015625)" xlink:href="#DejaVuSans-101"/>
      <use transform="translate(588.769531 0.015625)" xlink:href="#DejaVuSans-114"/>
      <use transform="translate(629.882812 0.015625)" xlink:href="#DejaVuSans-103"/>
      <use transform="translate(693.359375 0.015625)" xlink:href="#DejaVuSans-101"/>
      <use transform="translate(754.882812 0.015625)" xlink:href="#DejaVuSans-110"/>
      <use transform="translate(818.261719 0.015625)" xlink:href="#DejaVuSans-99"/>
      <use transform="translate(873.242188 0.015625)" xlink:href="#DejaVuSans-101"/>
      <use transform="translate(934.765625 0.015625)" xlink:href="#DejaVuSans-32"/>
      <use transform="translate(966.552734 0.015625)" xlink:href="#DejaVuSans-119"/>
      <use transform="translate(1048.339844 0.015625)" xlink:href="#DejaVuSans-105"/>
      <use transform="translate(1076.123047 0.015625)" xlink:href="#DejaVuSans-116"/>
      <use transform="translate(1115.332031 0.015625)" xlink:href="#DejaVuSans-104"/>
      <use transform="translate(1178.710938 0.015625)" xlink:href="#DejaVuSans-105"/>
      <use transform="translate(1206.494141 0.015625)" xlink:href="#DejaVuSans-110"/>
      <use transform="translate(1269.873047 0.015625)" xlink:href="#DejaVuSans-32"/>
      <use transform="translate(1301.660156 0.015625)" xlink:href="#DejaVuSans-Oblique-949"/>
     </g>
    </g>
   </g>
   <g id="matplotlib.axis_4">
    <g id="ytick_6">
     <g id="line2d_14">
      <g>
       <use style="stroke:#000000;stroke-width:1.6;" x="96.7" xlink:href="#me7ef953c7e" y="37.154167"/>
      </g>
     </g>
     <g id="text_17">
      <!-- [0.00, -->
      <defs>
       <path d="M 8.59375 75.984375 
L 29.296875 75.984375 
L 29.296875 69 
L 17.578125 69 
L 17.578125 -6.203125 
L 29.296875 -6.203125 
L 29.296875 -13.1875 
L 8.59375 -13.1875 
z
" id="DejaVuSans-91"/>
       <path d="M 11.71875 12.40625 
L 22.015625 12.40625 
L 22.015625 4 
L 14.015625 -11.625 
L 7.71875 -11.625 
L 11.71875 4 
z
" id="DejaVuSans-44"/>
      </defs>
      <g transform="translate(23.309375 33.554792)scale(0.2 -0.2)">
       <use xlink:href="#DejaVuSans-91"/>
       <use x="39.013672" xlink:href="#DejaVuSans-48"/>
       <use x="102.636719" xlink:href="#DejaVuSans-46"/>
       <use x="134.423828" xlink:href="#DejaVuSans-48"/>
       <use x="198.046875" xlink:href="#DejaVuSans-48"/>
       <use x="261.669922" xlink:href="#DejaVuSans-44"/>
      </g>
      <!-- 0.25) -->
      <defs>
       <path d="M 10.796875 72.90625 
L 49.515625 72.90625 
L 49.515625 64.59375 
L 19.828125 64.59375 
L 19.828125 46.734375 
Q 21.96875 47.46875 24.109375 47.828125 
Q 26.265625 48.1875 28.421875 48.1875 
Q 40.625 48.1875 47.75 41.5 
Q 54.890625 34.8125 54.890625 23.390625 
Q 54.890625 11.625 47.5625 5.09375 
Q 40.234375 -1.421875 26.90625 -1.421875 
Q 22.3125 -1.421875 17.546875 -0.640625 
Q 12.796875 0.140625 7.71875 1.703125 
L 7.71875 11.625 
Q 12.109375 9.234375 16.796875 8.0625 
Q 21.484375 6.890625 26.703125 6.890625 
Q 35.15625 6.890625 40.078125 11.328125 
Q 45.015625 15.765625 45.015625 23.390625 
Q 45.015625 31 40.078125 35.4375 
Q 35.15625 39.890625 26.703125 39.890625 
Q 22.75 39.890625 18.8125 39.015625 
Q 14.890625 38.140625 10.796875 36.28125 
z
" id="DejaVuSans-53"/>
       <path d="M 8.015625 75.875 
L 15.828125 75.875 
Q 23.140625 64.359375 26.78125 53.3125 
Q 30.421875 42.28125 30.421875 31.390625 
Q 30.421875 20.453125 26.78125 9.375 
Q 23.140625 -1.703125 15.828125 -13.1875 
L 8.015625 -13.1875 
Q 14.5 -2 17.703125 9.0625 
Q 20.90625 20.125 20.90625 31.390625 
Q 20.90625 42.671875 17.703125 53.65625 
Q 14.5 64.65625 8.015625 75.875 
z
" id="DejaVuSans-41"/>
      </defs>
      <g transform="translate(29.665625 55.950417)scale(0.2 -0.2)">
       <use xlink:href="#DejaVuSans-48"/>
       <use x="63.623047" xlink:href="#DejaVuSans-46"/>
       <use x="95.410156" xlink:href="#DejaVuSans-50"/>
       <use x="159.033203" xlink:href="#DejaVuSans-53"/>
       <use x="222.65625" xlink:href="#DejaVuSans-41"/>
      </g>
     </g>
    </g>
    <g id="ytick_7">
     <g id="line2d_15">
      <g>
       <use style="stroke:#000000;stroke-width:1.6;" x="96.7" xlink:href="#me7ef953c7e" y="104.4625"/>
      </g>
     </g>
     <g id="text_18">
      <!-- [0.25, -->
      <g transform="translate(23.309375 100.863125)scale(0.2 -0.2)">
       <use xlink:href="#DejaVuSans-91"/>
       <use x="39.013672" xlink:href="#DejaVuSans-48"/>
       <use x="102.636719" xlink:href="#DejaVuSans-46"/>
       <use x="134.423828" xlink:href="#DejaVuSans-50"/>
       <use x="198.046875" xlink:href="#DejaVuSans-53"/>
       <use x="261.669922" xlink:href="#DejaVuSans-44"/>
      </g>
      <!-- 0.50) -->
      <g transform="translate(29.665625 123.25875)scale(0.2 -0.2)">
       <use xlink:href="#DejaVuSans-48"/>
       <use x="63.623047" xlink:href="#DejaVuSans-46"/>
       <use x="95.410156" xlink:href="#DejaVuSans-53"/>
       <use x="159.033203" xlink:href="#DejaVuSans-48"/>
       <use x="222.65625" xlink:href="#DejaVuSans-41"/>
      </g>
     </g>
    </g>
    <g id="ytick_8">
     <g id="line2d_16">
      <g>
       <use style="stroke:#000000;stroke-width:1.6;" x="96.7" xlink:href="#me7ef953c7e" y="171.770833"/>
      </g>
     </g>
     <g id="text_19">
      <!-- [0.50, -->
      <g transform="translate(23.309375 168.171458)scale(0.2 -0.2)">
       <use xlink:href="#DejaVuSans-91"/>
       <use x="39.013672" xlink:href="#DejaVuSans-48"/>
       <use x="102.636719" xlink:href="#DejaVuSans-46"/>
       <use x="134.423828" xlink:href="#DejaVuSans-53"/>
       <use x="198.046875" xlink:href="#DejaVuSans-48"/>
       <use x="261.669922" xlink:href="#DejaVuSans-44"/>
      </g>
      <!-- 0.75) -->
      <defs>
       <path d="M 8.203125 72.90625 
L 55.078125 72.90625 
L 55.078125 68.703125 
L 28.609375 0 
L 18.3125 0 
L 43.21875 64.59375 
L 8.203125 64.59375 
z
" id="DejaVuSans-55"/>
      </defs>
      <g transform="translate(29.665625 190.567083)scale(0.2 -0.2)">
       <use xlink:href="#DejaVuSans-48"/>
       <use x="63.623047" xlink:href="#DejaVuSans-46"/>
       <use x="95.410156" xlink:href="#DejaVuSans-55"/>
       <use x="159.033203" xlink:href="#DejaVuSans-53"/>
       <use x="222.65625" xlink:href="#DejaVuSans-41"/>
      </g>
     </g>
    </g>
    <g id="ytick_9">
     <g id="line2d_17">
      <g>
       <use style="stroke:#000000;stroke-width:1.6;" x="96.7" xlink:href="#me7ef953c7e" y="239.079167"/>
      </g>
     </g>
     <g id="text_20">
      <!-- [0.75, -->
      <g transform="translate(23.309375 235.479792)scale(0.2 -0.2)">
       <use xlink:href="#DejaVuSans-91"/>
       <use x="39.013672" xlink:href="#DejaVuSans-48"/>
       <use x="102.636719" xlink:href="#DejaVuSans-46"/>
       <use x="134.423828" xlink:href="#DejaVuSans-55"/>
       <use x="198.046875" xlink:href="#DejaVuSans-53"/>
       <use x="261.669922" xlink:href="#DejaVuSans-44"/>
      </g>
      <!-- 1.00) -->
      <g transform="translate(29.665625 257.875417)scale(0.2 -0.2)">
       <use xlink:href="#DejaVuSans-49"/>
       <use x="63.623047" xlink:href="#DejaVuSans-46"/>
       <use x="95.410156" xlink:href="#DejaVuSans-48"/>
       <use x="159.033203" xlink:href="#DejaVuSans-48"/>
       <use x="222.65625" xlink:href="#DejaVuSans-41"/>
      </g>
     </g>
    </g>
    <g id="text_21">
     <!-- Max Attention -->
     <defs>
      <path d="M 34.1875 63.1875 
L 20.796875 26.90625 
L 47.609375 26.90625 
z
M 28.609375 72.90625 
L 39.796875 72.90625 
L 67.578125 0 
L 57.328125 0 
L 50.6875 18.703125 
L 17.828125 18.703125 
L 11.1875 0 
L 0.78125 0 
z
" id="DejaVuSans-65"/>
      <path d="M 30.609375 48.390625 
Q 23.390625 48.390625 19.1875 42.75 
Q 14.984375 37.109375 14.984375 27.296875 
Q 14.984375 17.484375 19.15625 11.84375 
Q 23.34375 6.203125 30.609375 6.203125 
Q 37.796875 6.203125 41.984375 11.859375 
Q 46.1875 17.53125 46.1875 27.296875 
Q 46.1875 37.015625 41.984375 42.703125 
Q 37.796875 48.390625 30.609375 48.390625 
z
M 30.609375 56 
Q 42.328125 56 49.015625 48.375 
Q 55.71875 40.765625 55.71875 27.296875 
Q 55.71875 13.875 49.015625 6.21875 
Q 42.328125 -1.421875 30.609375 -1.421875 
Q 18.84375 -1.421875 12.171875 6.21875 
Q 5.515625 13.875 5.515625 27.296875 
Q 5.515625 40.765625 12.171875 48.375 
Q 18.84375 56 30.609375 56 
z
" id="DejaVuSans-111"/>
     </defs>
     <g transform="translate(15.15 208.294792)rotate(-90)scale(0.2 -0.2)">
      <use xlink:href="#DejaVuSans-77"/>
      <use x="86.279297" xlink:href="#DejaVuSans-97"/>
      <use x="147.558594" xlink:href="#DejaVuSans-120"/>
      <use x="206.738281" xlink:href="#DejaVuSans-32"/>
      <use x="238.525391" xlink:href="#DejaVuSans-65"/>
      <use x="306.917969" xlink:href="#DejaVuSans-116"/>
      <use x="346.126953" xlink:href="#DejaVuSans-116"/>
      <use x="385.335938" xlink:href="#DejaVuSans-101"/>
      <use x="446.859375" xlink:href="#DejaVuSans-110"/>
      <use x="510.238281" xlink:href="#DejaVuSans-116"/>
      <use x="549.447266" xlink:href="#DejaVuSans-105"/>
      <use x="577.230469" xlink:href="#DejaVuSans-111"/>
      <use x="638.412109" xlink:href="#DejaVuSans-110"/>
     </g>
    </g>
   </g>
   <g id="line2d_18">
    <path clip-path="url(#pde47498b50)" d="M 329.96388 18.405134 
L 329.96388 28.979866 
" style="fill:none;stroke:#424242;stroke-dasharray:1.5,1.5;stroke-dashoffset:0;"/>
   </g>
   <g id="line2d_19">
    <path clip-path="url(#pde47498b50)" d="M 336.787691 11.384337 
L 336.787691 36.000663 
" style="fill:none;stroke:#424242;stroke-dasharray:3,3;stroke-dashoffset:0;"/>
   </g>
   <g id="line2d_20">
    <path clip-path="url(#pde47498b50)" d="M 340.376936 11.910605 
L 340.376936 35.474395 
" style="fill:none;stroke:#424242;stroke-dasharray:1.5,1.5;stroke-dashoffset:0;"/>
   </g>
   <g id="line2d_21">
    <path clip-path="url(#pde47498b50)" d="M 332.315451 42.76714 
L 332.315451 58.464527 
" style="fill:none;stroke:#424242;stroke-dasharray:1.5,1.5;stroke-dashoffset:0;"/>
   </g>
   <g id="line2d_22">
    <path clip-path="url(#pde47498b50)" d="M 337.518722 37.400984 
L 337.518722 63.830683 
" style="fill:none;stroke:#424242;stroke-dasharray:3,3;stroke-dashoffset:0;"/>
   </g>
   <g id="line2d_23">
    <path clip-path="url(#pde47498b50)" d="M 340.716497 38.489969 
L 340.716497 62.741698 
" style="fill:none;stroke:#424242;stroke-dasharray:1.5,1.5;stroke-dashoffset:0;"/>
   </g>
   <g id="patch_88">
    <path d="M 96.7 272.733333 
L 96.7 3.5 
" style="fill:none;stroke:#000000;stroke-linecap:square;stroke-linejoin:miter;stroke-width:0.8;"/>
   </g>
   <g id="patch_89">
    <path d="M 96.7 272.733333 
L 365.933333 272.733333 
" style="fill:none;stroke:#000000;stroke-linecap:square;stroke-linejoin:miter;stroke-width:0.8;"/>
   </g>
  </g>
 </g>
 <defs>
  <clipPath id="p5be9310aa0">
   <rect height="269.233333" width="269.233333" x="-276.333333" y="3.5"/>
  </clipPath>
  <clipPath id="pde47498b50">
   <rect height="269.233333" width="269.233333" x="96.7" y="3.5"/>
  </clipPath>
 </defs>
</svg>
