<?xml version="1.0" encoding="utf-8" standalone="no"?>
<!DOCTYPE svg PUBLIC "-//W3C//DTD SVG 1.1//EN"
  "http://www.w3.org/Graphics/SVG/1.1/DTD/svg11.dtd">
<!-- Created with matplotlib (https://matplotlib.org/) -->
<svg height="329.141667pt" version="1.1" viewBox="0 0 365.391536 329.141667" width="365.391536pt" xmlns="http://www.w3.org/2000/svg" xmlns:xlink="http://www.w3.org/1999/xlink">
 <defs>
  <style type="text/css">
*{stroke-linecap:butt;stroke-linejoin:round;}
  </style>
 </defs>
 <g id="figure_1">
  <g id="patch_1">
   <path d="M 0 329.141667 
L 365.391536 329.141667 
L 365.391536 -0 
L 0 -0 
z
" style="fill:#ffffff;"/>
  </g>
  <g id="axes_1">
   <g id="patch_2">
    <path d="M -272.041667 268.441667 
L -7.1 268.441667 
L -7.1 3.5 
L -272.041667 3.5 
z
" style="fill:#ffffff;"/>
   </g>
   <g id="patch_3">
    <path clip-path="url(#padce25c456)" d="M -259.998864 268.441667 
L -253.977462 268.441667 
L -253.977462 268.441667 
L -259.998864 268.441667 
z
" style="fill:#7570b3;opacity:0.6;stroke:#000000;stroke-linejoin:miter;stroke-width:0.5;"/>
   </g>
   <g id="patch_4">
    <path clip-path="url(#padce25c456)" d="M -253.977462 268.441667 
L -247.956061 268.441667 
L -247.956061 268.441667 
L -253.977462 268.441667 
z
" style="fill:#7570b3;opacity:0.6;stroke:#000000;stroke-linejoin:miter;stroke-width:0.5;"/>
   </g>
   <g id="patch_5">
    <path clip-path="url(#padce25c456)" d="M -247.956061 268.441667 
L -241.934659 268.441667 
L -241.934659 268.441667 
L -247.956061 268.441667 
z
" style="fill:#7570b3;opacity:0.6;stroke:#000000;stroke-linejoin:miter;stroke-width:0.5;"/>
   </g>
   <g id="patch_6">
    <path clip-path="url(#padce25c456)" d="M -241.934659 268.441667 
L -235.913258 268.441667 
L -235.913258 268.441667 
L -241.934659 268.441667 
z
" style="fill:#7570b3;opacity:0.6;stroke:#000000;stroke-linejoin:miter;stroke-width:0.5;"/>
   </g>
   <g id="patch_7">
    <path clip-path="url(#padce25c456)" d="M -235.913258 268.441667 
L -229.891856 268.441667 
L -229.891856 268.441667 
L -235.913258 268.441667 
z
" style="fill:#7570b3;opacity:0.6;stroke:#000000;stroke-linejoin:miter;stroke-width:0.5;"/>
   </g>
   <g id="patch_8">
    <path clip-path="url(#padce25c456)" d="M -229.891856 268.441667 
L -223.870455 268.441667 
L -223.870455 268.441667 
L -229.891856 268.441667 
z
" style="fill:#7570b3;opacity:0.6;stroke:#000000;stroke-linejoin:miter;stroke-width:0.5;"/>
   </g>
   <g id="patch_9">
    <path clip-path="url(#padce25c456)" d="M -223.870455 268.441667 
L -217.849053 268.441667 
L -217.849053 268.441667 
L -223.870455 268.441667 
z
" style="fill:#7570b3;opacity:0.6;stroke:#000000;stroke-linejoin:miter;stroke-width:0.5;"/>
   </g>
   <g id="patch_10">
    <path clip-path="url(#padce25c456)" d="M -217.849053 268.441667 
L -211.827652 268.441667 
L -211.827652 268.441667 
L -217.849053 268.441667 
z
" style="fill:#7570b3;opacity:0.6;stroke:#000000;stroke-linejoin:miter;stroke-width:0.5;"/>
   </g>
   <g id="patch_11">
    <path clip-path="url(#padce25c456)" d="M -211.827652 268.441667 
L -205.80625 268.441667 
L -205.80625 268.441667 
L -211.827652 268.441667 
z
" style="fill:#7570b3;opacity:0.6;stroke:#000000;stroke-linejoin:miter;stroke-width:0.5;"/>
   </g>
   <g id="patch_12">
    <path clip-path="url(#padce25c456)" d="M -205.80625 268.441667 
L -199.784848 268.441667 
L -199.784848 268.441667 
L -205.80625 268.441667 
z
" style="fill:#7570b3;opacity:0.6;stroke:#000000;stroke-linejoin:miter;stroke-width:0.5;"/>
   </g>
   <g id="patch_13">
    <path clip-path="url(#padce25c456)" d="M -199.784848 268.441667 
L -193.763447 268.441667 
L -193.763447 268.441667 
L -199.784848 268.441667 
z
" style="fill:#7570b3;opacity:0.6;stroke:#000000;stroke-linejoin:miter;stroke-width:0.5;"/>
   </g>
   <g id="patch_14">
    <path clip-path="url(#padce25c456)" d="M -193.763447 268.441667 
L -187.742045 268.441667 
L -187.742045 268.441667 
L -193.763447 268.441667 
z
" style="fill:#7570b3;opacity:0.6;stroke:#000000;stroke-linejoin:miter;stroke-width:0.5;"/>
   </g>
   <g id="patch_15">
    <path clip-path="url(#padce25c456)" d="M -187.742045 268.441667 
L -181.720644 268.441667 
L -181.720644 268.441667 
L -187.742045 268.441667 
z
" style="fill:#7570b3;opacity:0.6;stroke:#000000;stroke-linejoin:miter;stroke-width:0.5;"/>
   </g>
   <g id="patch_16">
    <path clip-path="url(#padce25c456)" d="M -181.720644 268.441667 
L -175.699242 268.441667 
L -175.699242 268.441667 
L -181.720644 268.441667 
z
" style="fill:#7570b3;opacity:0.6;stroke:#000000;stroke-linejoin:miter;stroke-width:0.5;"/>
   </g>
   <g id="patch_17">
    <path clip-path="url(#padce25c456)" d="M -175.699242 268.441667 
L -169.677841 268.441667 
L -169.677841 268.441667 
L -175.699242 268.441667 
z
" style="fill:#7570b3;opacity:0.6;stroke:#000000;stroke-linejoin:miter;stroke-width:0.5;"/>
   </g>
   <g id="patch_18">
    <path clip-path="url(#padce25c456)" d="M -169.677841 268.441667 
L -163.656439 268.441667 
L -163.656439 268.441667 
L -169.677841 268.441667 
z
" style="fill:#7570b3;opacity:0.6;stroke:#000000;stroke-linejoin:miter;stroke-width:0.5;"/>
   </g>
   <g id="patch_19">
    <path clip-path="url(#padce25c456)" d="M -163.656439 268.441667 
L -157.635038 268.441667 
L -157.635038 268.441667 
L -163.656439 268.441667 
z
" style="fill:#7570b3;opacity:0.6;stroke:#000000;stroke-linejoin:miter;stroke-width:0.5;"/>
   </g>
   <g id="patch_20">
    <path clip-path="url(#padce25c456)" d="M -157.635038 268.441667 
L -151.613636 268.441667 
L -151.613636 268.441667 
L -157.635038 268.441667 
z
" style="fill:#7570b3;opacity:0.6;stroke:#000000;stroke-linejoin:miter;stroke-width:0.5;"/>
   </g>
   <g id="patch_21">
    <path clip-path="url(#padce25c456)" d="M -151.613636 268.441667 
L -145.592235 268.441667 
L -145.592235 267.748368 
L -151.613636 267.748368 
z
" style="fill:#7570b3;opacity:0.6;stroke:#000000;stroke-linejoin:miter;stroke-width:0.5;"/>
   </g>
   <g id="patch_22">
    <path clip-path="url(#padce25c456)" d="M -145.592235 268.441667 
L -139.570833 268.441667 
L -139.570833 267.748368 
L -145.592235 267.748368 
z
" style="fill:#7570b3;opacity:0.6;stroke:#000000;stroke-linejoin:miter;stroke-width:0.5;"/>
   </g>
   <g id="patch_23">
    <path clip-path="url(#padce25c456)" d="M -139.570833 268.441667 
L -133.549432 268.441667 
L -133.549432 268.441667 
L -139.570833 268.441667 
z
" style="fill:#7570b3;opacity:0.6;stroke:#000000;stroke-linejoin:miter;stroke-width:0.5;"/>
   </g>
   <g id="patch_24">
    <path clip-path="url(#padce25c456)" d="M -133.549432 268.441667 
L -127.52803 268.441667 
L -127.52803 264.975174 
L -133.549432 264.975174 
z
" style="fill:#7570b3;opacity:0.6;stroke:#000000;stroke-linejoin:miter;stroke-width:0.5;"/>
   </g>
   <g id="patch_25">
    <path clip-path="url(#padce25c456)" d="M -127.52803 268.441667 
L -121.506629 268.441667 
L -121.506629 257.348889 
L -127.52803 257.348889 
z
" style="fill:#7570b3;opacity:0.6;stroke:#000000;stroke-linejoin:miter;stroke-width:0.5;"/>
   </g>
   <g id="patch_26">
    <path clip-path="url(#padce25c456)" d="M -121.506629 268.441667 
L -115.485227 268.441667 
L -115.485227 245.562813 
L -121.506629 245.562813 
z
" style="fill:#7570b3;opacity:0.6;stroke:#000000;stroke-linejoin:miter;stroke-width:0.5;"/>
   </g>
   <g id="patch_27">
    <path clip-path="url(#padce25c456)" d="M -115.485227 268.441667 
L -109.463826 268.441667 
L -109.463826 237.936529 
L -115.485227 237.936529 
z
" style="fill:#7570b3;opacity:0.6;stroke:#000000;stroke-linejoin:miter;stroke-width:0.5;"/>
   </g>
   <g id="patch_28">
    <path clip-path="url(#padce25c456)" d="M -109.463826 268.441667 
L -103.442424 268.441667 
L -103.442424 219.910765 
L -109.463826 219.910765 
z
" style="fill:#7570b3;opacity:0.6;stroke:#000000;stroke-linejoin:miter;stroke-width:0.5;"/>
   </g>
   <g id="patch_29">
    <path clip-path="url(#padce25c456)" d="M -103.442424 268.441667 
L -97.421023 268.441667 
L -97.421023 212.284481 
L -103.442424 212.284481 
z
" style="fill:#7570b3;opacity:0.6;stroke:#000000;stroke-linejoin:miter;stroke-width:0.5;"/>
   </g>
   <g id="patch_30">
    <path clip-path="url(#padce25c456)" d="M -97.421023 268.441667 
L -91.399621 268.441667 
L -91.399621 208.124689 
L -97.421023 208.124689 
z
" style="fill:#7570b3;opacity:0.6;stroke:#000000;stroke-linejoin:miter;stroke-width:0.5;"/>
   </g>
   <g id="patch_31">
    <path clip-path="url(#padce25c456)" d="M -91.399621 268.441667 
L -85.37822 268.441667 
L -85.37822 209.511287 
L -91.399621 209.511287 
z
" style="fill:#7570b3;opacity:0.6;stroke:#000000;stroke-linejoin:miter;stroke-width:0.5;"/>
   </g>
   <g id="patch_32">
    <path clip-path="url(#padce25c456)" d="M -85.37822 268.441667 
L -79.356818 268.441667 
L -79.356818 190.792225 
L -85.37822 190.792225 
z
" style="fill:#7570b3;opacity:0.6;stroke:#000000;stroke-linejoin:miter;stroke-width:0.5;"/>
   </g>
   <g id="patch_33">
    <path clip-path="url(#padce25c456)" d="M -79.356818 268.441667 
L -73.335417 268.441667 
L -73.335417 183.859239 
L -79.356818 183.859239 
z
" style="fill:#7570b3;opacity:0.6;stroke:#000000;stroke-linejoin:miter;stroke-width:0.5;"/>
   </g>
   <g id="patch_34">
    <path clip-path="url(#padce25c456)" d="M -73.335417 268.441667 
L -67.314015 268.441667 
L -67.314015 190.098926 
L -73.335417 190.098926 
z
" style="fill:#7570b3;opacity:0.6;stroke:#000000;stroke-linejoin:miter;stroke-width:0.5;"/>
   </g>
   <g id="patch_35">
    <path clip-path="url(#padce25c456)" d="M -67.314015 268.441667 
L -61.292614 268.441667 
L -61.292614 149.887608 
L -67.314015 149.887608 
z
" style="fill:#7570b3;opacity:0.6;stroke:#000000;stroke-linejoin:miter;stroke-width:0.5;"/>
   </g>
   <g id="patch_36">
    <path clip-path="url(#padce25c456)" d="M -61.292614 268.441667 
L -55.271212 268.441667 
L -55.271212 154.740698 
L -61.292614 154.740698 
z
" style="fill:#7570b3;opacity:0.6;stroke:#000000;stroke-linejoin:miter;stroke-width:0.5;"/>
   </g>
   <g id="patch_37">
    <path clip-path="url(#padce25c456)" d="M -55.271212 268.441667 
L -49.249811 268.441667 
L -49.249811 131.861844 
L -55.271212 131.861844 
z
" style="fill:#7570b3;opacity:0.6;stroke:#000000;stroke-linejoin:miter;stroke-width:0.5;"/>
   </g>
   <g id="patch_38">
    <path clip-path="url(#padce25c456)" d="M -49.249811 268.441667 
L -43.228409 268.441667 
L -43.228409 106.903095 
L -49.249811 106.903095 
z
" style="fill:#7570b3;opacity:0.6;stroke:#000000;stroke-linejoin:miter;stroke-width:0.5;"/>
   </g>
   <g id="patch_39">
    <path clip-path="url(#padce25c456)" d="M -43.228409 268.441667 
L -37.207008 268.441667 
L -37.207008 87.490735 
L -43.228409 87.490735 
z
" style="fill:#7570b3;opacity:0.6;stroke:#000000;stroke-linejoin:miter;stroke-width:0.5;"/>
   </g>
   <g id="patch_40">
    <path clip-path="url(#padce25c456)" d="M -37.207008 268.441667 
L -31.185606 268.441667 
L -31.185606 191.485523 
L -37.207008 191.485523 
z
" style="fill:#7570b3;opacity:0.6;stroke:#000000;stroke-linejoin:miter;stroke-width:0.5;"/>
   </g>
   <g id="patch_41">
    <path clip-path="url(#padce25c456)" d="M -31.185606 268.441667 
L -25.164205 268.441667 
L -25.164205 264.975174 
L -31.185606 264.975174 
z
" style="fill:#7570b3;opacity:0.6;stroke:#000000;stroke-linejoin:miter;stroke-width:0.5;"/>
   </g>
   <g id="patch_42">
    <path clip-path="url(#padce25c456)" d="M -25.164205 268.441667 
L -19.142803 268.441667 
L -19.142803 268.441667 
L -25.164205 268.441667 
z
" style="fill:#7570b3;opacity:0.6;stroke:#000000;stroke-linejoin:miter;stroke-width:0.5;"/>
   </g>
   <g id="patch_43">
    <path clip-path="url(#padce25c456)" d="M -259.998864 268.441667 
L -253.977462 268.441667 
L -253.977462 268.441667 
L -259.998864 268.441667 
z
" style="fill:#d95f02;opacity:0.6;stroke:#000000;stroke-linejoin:miter;stroke-width:0.5;"/>
   </g>
   <g id="patch_44">
    <path clip-path="url(#padce25c456)" d="M -253.977462 268.441667 
L -247.956061 268.441667 
L -247.956061 268.441667 
L -253.977462 268.441667 
z
" style="fill:#d95f02;opacity:0.6;stroke:#000000;stroke-linejoin:miter;stroke-width:0.5;"/>
   </g>
   <g id="patch_45">
    <path clip-path="url(#padce25c456)" d="M -247.956061 268.441667 
L -241.934659 268.441667 
L -241.934659 268.441667 
L -247.956061 268.441667 
z
" style="fill:#d95f02;opacity:0.6;stroke:#000000;stroke-linejoin:miter;stroke-width:0.5;"/>
   </g>
   <g id="patch_46">
    <path clip-path="url(#padce25c456)" d="M -241.934659 268.441667 
L -235.913258 268.441667 
L -235.913258 268.441667 
L -241.934659 268.441667 
z
" style="fill:#d95f02;opacity:0.6;stroke:#000000;stroke-linejoin:miter;stroke-width:0.5;"/>
   </g>
   <g id="patch_47">
    <path clip-path="url(#padce25c456)" d="M -235.913258 268.441667 
L -229.891856 268.441667 
L -229.891856 268.441667 
L -235.913258 268.441667 
z
" style="fill:#d95f02;opacity:0.6;stroke:#000000;stroke-linejoin:miter;stroke-width:0.5;"/>
   </g>
   <g id="patch_48">
    <path clip-path="url(#padce25c456)" d="M -229.891856 268.441667 
L -223.870455 268.441667 
L -223.870455 268.441667 
L -229.891856 268.441667 
z
" style="fill:#d95f02;opacity:0.6;stroke:#000000;stroke-linejoin:miter;stroke-width:0.5;"/>
   </g>
   <g id="patch_49">
    <path clip-path="url(#padce25c456)" d="M -223.870455 268.441667 
L -217.849053 268.441667 
L -217.849053 268.441667 
L -223.870455 268.441667 
z
" style="fill:#d95f02;opacity:0.6;stroke:#000000;stroke-linejoin:miter;stroke-width:0.5;"/>
   </g>
   <g id="patch_50">
    <path clip-path="url(#padce25c456)" d="M -217.849053 268.441667 
L -211.827652 268.441667 
L -211.827652 268.441667 
L -217.849053 268.441667 
z
" style="fill:#d95f02;opacity:0.6;stroke:#000000;stroke-linejoin:miter;stroke-width:0.5;"/>
   </g>
   <g id="patch_51">
    <path clip-path="url(#padce25c456)" d="M -211.827652 268.441667 
L -205.80625 268.441667 
L -205.80625 268.441667 
L -211.827652 268.441667 
z
" style="fill:#d95f02;opacity:0.6;stroke:#000000;stroke-linejoin:miter;stroke-width:0.5;"/>
   </g>
   <g id="patch_52">
    <path clip-path="url(#padce25c456)" d="M -205.80625 268.441667 
L -199.784848 268.441667 
L -199.784848 268.441667 
L -205.80625 268.441667 
z
" style="fill:#d95f02;opacity:0.6;stroke:#000000;stroke-linejoin:miter;stroke-width:0.5;"/>
   </g>
   <g id="patch_53">
    <path clip-path="url(#padce25c456)" d="M -199.784848 268.441667 
L -193.763447 268.441667 
L -193.763447 268.441667 
L -199.784848 268.441667 
z
" style="fill:#d95f02;opacity:0.6;stroke:#000000;stroke-linejoin:miter;stroke-width:0.5;"/>
   </g>
   <g id="patch_54">
    <path clip-path="url(#padce25c456)" d="M -193.763447 268.441667 
L -187.742045 268.441667 
L -187.742045 268.441667 
L -193.763447 268.441667 
z
" style="fill:#d95f02;opacity:0.6;stroke:#000000;stroke-linejoin:miter;stroke-width:0.5;"/>
   </g>
   <g id="patch_55">
    <path clip-path="url(#padce25c456)" d="M -187.742045 268.441667 
L -181.720644 268.441667 
L -181.720644 268.441667 
L -187.742045 268.441667 
z
" style="fill:#d95f02;opacity:0.6;stroke:#000000;stroke-linejoin:miter;stroke-width:0.5;"/>
   </g>
   <g id="patch_56">
    <path clip-path="url(#padce25c456)" d="M -181.720644 268.441667 
L -175.699242 268.441667 
L -175.699242 268.441667 
L -181.720644 268.441667 
z
" style="fill:#d95f02;opacity:0.6;stroke:#000000;stroke-linejoin:miter;stroke-width:0.5;"/>
   </g>
   <g id="patch_57">
    <path clip-path="url(#padce25c456)" d="M -175.699242 268.441667 
L -169.677841 268.441667 
L -169.677841 268.441667 
L -175.699242 268.441667 
z
" style="fill:#d95f02;opacity:0.6;stroke:#000000;stroke-linejoin:miter;stroke-width:0.5;"/>
   </g>
   <g id="patch_58">
    <path clip-path="url(#padce25c456)" d="M -169.677841 268.441667 
L -163.656439 268.441667 
L -163.656439 268.441667 
L -169.677841 268.441667 
z
" style="fill:#d95f02;opacity:0.6;stroke:#000000;stroke-linejoin:miter;stroke-width:0.5;"/>
   </g>
   <g id="patch_59">
    <path clip-path="url(#padce25c456)" d="M -163.656439 268.441667 
L -157.635038 268.441667 
L -157.635038 268.441667 
L -163.656439 268.441667 
z
" style="fill:#d95f02;opacity:0.6;stroke:#000000;stroke-linejoin:miter;stroke-width:0.5;"/>
   </g>
   <g id="patch_60">
    <path clip-path="url(#padce25c456)" d="M -157.635038 268.441667 
L -151.613636 268.441667 
L -151.613636 268.441667 
L -157.635038 268.441667 
z
" style="fill:#d95f02;opacity:0.6;stroke:#000000;stroke-linejoin:miter;stroke-width:0.5;"/>
   </g>
   <g id="patch_61">
    <path clip-path="url(#padce25c456)" d="M -151.613636 268.441667 
L -145.592235 268.441667 
L -145.592235 268.441667 
L -151.613636 268.441667 
z
" style="fill:#d95f02;opacity:0.6;stroke:#000000;stroke-linejoin:miter;stroke-width:0.5;"/>
   </g>
   <g id="patch_62">
    <path clip-path="url(#padce25c456)" d="M -145.592235 268.441667 
L -139.570833 268.441667 
L -139.570833 264.927385 
L -145.592235 264.927385 
z
" style="fill:#d95f02;opacity:0.6;stroke:#000000;stroke-linejoin:miter;stroke-width:0.5;"/>
   </g>
   <g id="patch_63">
    <path clip-path="url(#padce25c456)" d="M -139.570833 268.441667 
L -133.549432 268.441667 
L -133.549432 262.818817 
L -139.570833 262.818817 
z
" style="fill:#d95f02;opacity:0.6;stroke:#000000;stroke-linejoin:miter;stroke-width:0.5;"/>
   </g>
   <g id="patch_64">
    <path clip-path="url(#padce25c456)" d="M -133.549432 268.441667 
L -127.52803 268.441667 
L -127.52803 258.601679 
L -133.549432 258.601679 
z
" style="fill:#d95f02;opacity:0.6;stroke:#000000;stroke-linejoin:miter;stroke-width:0.5;"/>
   </g>
   <g id="patch_65">
    <path clip-path="url(#padce25c456)" d="M -127.52803 268.441667 
L -121.506629 268.441667 
L -121.506629 254.384541 
L -127.52803 254.384541 
z
" style="fill:#d95f02;opacity:0.6;stroke:#000000;stroke-linejoin:miter;stroke-width:0.5;"/>
   </g>
   <g id="patch_66">
    <path clip-path="url(#padce25c456)" d="M -121.506629 268.441667 
L -115.485227 268.441667 
L -115.485227 247.355979 
L -121.506629 247.355979 
z
" style="fill:#d95f02;opacity:0.6;stroke:#000000;stroke-linejoin:miter;stroke-width:0.5;"/>
   </g>
   <g id="patch_67">
    <path clip-path="url(#padce25c456)" d="M -115.485227 268.441667 
L -109.463826 268.441667 
L -109.463826 229.081716 
L -115.485227 229.081716 
z
" style="fill:#d95f02;opacity:0.6;stroke:#000000;stroke-linejoin:miter;stroke-width:0.5;"/>
   </g>
   <g id="patch_68">
    <path clip-path="url(#padce25c456)" d="M -109.463826 268.441667 
L -103.442424 268.441667 
L -103.442424 218.538872 
L -109.463826 218.538872 
z
" style="fill:#d95f02;opacity:0.6;stroke:#000000;stroke-linejoin:miter;stroke-width:0.5;"/>
   </g>
   <g id="patch_69">
    <path clip-path="url(#padce25c456)" d="M -103.442424 268.441667 
L -97.421023 268.441667 
L -97.421023 216.430304 
L -103.442424 216.430304 
z
" style="fill:#d95f02;opacity:0.6;stroke:#000000;stroke-linejoin:miter;stroke-width:0.5;"/>
   </g>
   <g id="patch_70">
    <path clip-path="url(#padce25c456)" d="M -97.421023 268.441667 
L -91.399621 268.441667 
L -91.399621 186.910341 
L -97.421023 186.910341 
z
" style="fill:#d95f02;opacity:0.6;stroke:#000000;stroke-linejoin:miter;stroke-width:0.5;"/>
   </g>
   <g id="patch_71">
    <path clip-path="url(#padce25c456)" d="M -91.399621 268.441667 
L -85.37822 268.441667 
L -85.37822 191.127478 
L -91.399621 191.127478 
z
" style="fill:#d95f02;opacity:0.6;stroke:#000000;stroke-linejoin:miter;stroke-width:0.5;"/>
   </g>
   <g id="patch_72">
    <path clip-path="url(#padce25c456)" d="M -85.37822 268.441667 
L -79.356818 268.441667 
L -79.356818 201.670322 
L -85.37822 201.670322 
z
" style="fill:#d95f02;opacity:0.6;stroke:#000000;stroke-linejoin:miter;stroke-width:0.5;"/>
   </g>
   <g id="patch_73">
    <path clip-path="url(#padce25c456)" d="M -79.356818 268.441667 
L -73.335417 268.441667 
L -73.335417 208.698885 
L -79.356818 208.698885 
z
" style="fill:#d95f02;opacity:0.6;stroke:#000000;stroke-linejoin:miter;stroke-width:0.5;"/>
   </g>
   <g id="patch_74">
    <path clip-path="url(#padce25c456)" d="M -73.335417 268.441667 
L -67.314015 268.441667 
L -67.314015 215.024591 
L -73.335417 215.024591 
z
" style="fill:#d95f02;opacity:0.6;stroke:#000000;stroke-linejoin:miter;stroke-width:0.5;"/>
   </g>
   <g id="patch_75">
    <path clip-path="url(#padce25c456)" d="M -67.314015 268.441667 
L -61.292614 268.441667 
L -61.292614 212.916022 
L -67.314015 212.916022 
z
" style="fill:#d95f02;opacity:0.6;stroke:#000000;stroke-linejoin:miter;stroke-width:0.5;"/>
   </g>
   <g id="patch_76">
    <path clip-path="url(#padce25c456)" d="M -61.292614 268.441667 
L -55.271212 268.441667 
L -55.271212 193.938903 
L -61.292614 193.938903 
z
" style="fill:#d95f02;opacity:0.6;stroke:#000000;stroke-linejoin:miter;stroke-width:0.5;"/>
   </g>
   <g id="patch_77">
    <path clip-path="url(#padce25c456)" d="M -55.271212 268.441667 
L -49.249811 268.441667 
L -49.249811 153.876097 
L -55.271212 153.876097 
z
" style="fill:#d95f02;opacity:0.6;stroke:#000000;stroke-linejoin:miter;stroke-width:0.5;"/>
   </g>
   <g id="patch_78">
    <path clip-path="url(#padce25c456)" d="M -49.249811 268.441667 
L -43.228409 268.441667 
L -43.228409 106.784727 
L -49.249811 106.784727 
z
" style="fill:#d95f02;opacity:0.6;stroke:#000000;stroke-linejoin:miter;stroke-width:0.5;"/>
   </g>
   <g id="patch_79">
    <path clip-path="url(#padce25c456)" d="M -43.228409 268.441667 
L -37.207008 268.441667 
L -37.207008 16.11627 
L -43.228409 16.11627 
z
" style="fill:#d95f02;opacity:0.6;stroke:#000000;stroke-linejoin:miter;stroke-width:0.5;"/>
   </g>
   <g id="patch_80">
    <path clip-path="url(#padce25c456)" d="M -37.207008 268.441667 
L -31.185606 268.441667 
L -31.185606 137.710403 
L -37.207008 137.710403 
z
" style="fill:#d95f02;opacity:0.6;stroke:#000000;stroke-linejoin:miter;stroke-width:0.5;"/>
   </g>
   <g id="patch_81">
    <path clip-path="url(#padce25c456)" d="M -31.185606 268.441667 
L -25.164205 268.441667 
L -25.164205 266.333098 
L -31.185606 266.333098 
z
" style="fill:#d95f02;opacity:0.6;stroke:#000000;stroke-linejoin:miter;stroke-width:0.5;"/>
   </g>
   <g id="patch_82">
    <path clip-path="url(#padce25c456)" d="M -25.164205 268.441667 
L -19.142803 268.441667 
L -19.142803 268.441667 
L -25.164205 268.441667 
z
" style="fill:#d95f02;opacity:0.6;stroke:#000000;stroke-linejoin:miter;stroke-width:0.5;"/>
   </g>
   <g id="matplotlib.axis_1">
    <g id="xtick_1">
     <g id="line2d_1">
      <defs>
       <path d="M 0 0 
L 0 3.5 
" id="md5d544f45a" style="stroke:#000000;stroke-width:1.6;"/>
      </defs>
      <g/>
     </g>
     <g id="text_1">
      <!-- 0.0 -->
      <defs>
       <path d="M 31.78125 66.40625 
Q 24.171875 66.40625 20.328125 58.90625 
Q 16.5 51.421875 16.5 36.375 
Q 16.5 21.390625 20.328125 13.890625 
Q 24.171875 6.390625 31.78125 6.390625 
Q 39.453125 6.390625 43.28125 13.890625 
Q 47.125 21.390625 47.125 36.375 
Q 47.125 51.421875 43.28125 58.90625 
Q 39.453125 66.40625 31.78125 66.40625 
z
M 31.78125 74.21875 
Q 44.046875 74.21875 50.515625 64.515625 
Q 56.984375 54.828125 56.984375 36.375 
Q 56.984375 17.96875 50.515625 8.265625 
Q 44.046875 -1.421875 31.78125 -1.421875 
Q 19.53125 -1.421875 13.0625 8.265625 
Q 6.59375 17.96875 6.59375 36.375 
Q 6.59375 54.828125 13.0625 64.515625 
Q 19.53125 74.21875 31.78125 74.21875 
z
" id="DejaVuSans-48"/>
       <path d="M 10.6875 12.40625 
L 21 12.40625 
L 21 0 
L 10.6875 0 
z
" id="DejaVuSans-46"/>
      </defs>
      <g transform="translate(-275.901989 298.338542)scale(0.2 -0.2)">
       <use xlink:href="#DejaVuSans-48"/>
       <use x="63.623047" xlink:href="#DejaVuSans-46"/>
       <use x="95.410156" xlink:href="#DejaVuSans-48"/>
      </g>
     </g>
    </g>
    <g id="xtick_2">
     <g id="line2d_2">
      <g/>
     </g>
     <g id="text_2">
      <!-- 0.2 -->
      <defs>
       <path d="M 19.1875 8.296875 
L 53.609375 8.296875 
L 53.609375 0 
L 7.328125 0 
L 7.328125 8.296875 
Q 12.9375 14.109375 22.625 23.890625 
Q 32.328125 33.6875 34.8125 36.53125 
Q 39.546875 41.84375 41.421875 45.53125 
Q 43.3125 49.21875 43.3125 52.78125 
Q 43.3125 58.59375 39.234375 62.25 
Q 35.15625 65.921875 28.609375 65.921875 
Q 23.96875 65.921875 18.8125 64.3125 
Q 13.671875 62.703125 7.8125 59.421875 
L 7.8125 69.390625 
Q 13.765625 71.78125 18.9375 73 
Q 24.125 74.21875 28.421875 74.21875 
Q 39.75 74.21875 46.484375 68.546875 
Q 53.21875 62.890625 53.21875 53.421875 
Q 53.21875 48.921875 51.53125 44.890625 
Q 49.859375 40.875 45.40625 35.40625 
Q 44.1875 33.984375 37.640625 27.21875 
Q 31.109375 20.453125 19.1875 8.296875 
z
" id="DejaVuSans-50"/>
      </defs>
      <g transform="translate(-207.085971 298.338542)scale(0.2 -0.2)">
       <use xlink:href="#DejaVuSans-48"/>
       <use x="63.623047" xlink:href="#DejaVuSans-46"/>
       <use x="95.410156" xlink:href="#DejaVuSans-50"/>
      </g>
     </g>
    </g>
    <g id="xtick_3">
     <g id="line2d_3">
      <g/>
     </g>
     <g id="text_3">
      <!-- 0.4 -->
      <defs>
       <path d="M 37.796875 64.3125 
L 12.890625 25.390625 
L 37.796875 25.390625 
z
M 35.203125 72.90625 
L 47.609375 72.90625 
L 47.609375 25.390625 
L 58.015625 25.390625 
L 58.015625 17.1875 
L 47.609375 17.1875 
L 47.609375 0 
L 37.796875 0 
L 37.796875 17.1875 
L 4.890625 17.1875 
L 4.890625 26.703125 
z
" id="DejaVuSans-52"/>
      </defs>
      <g transform="translate(-138.269954 298.338542)scale(0.2 -0.2)">
       <use xlink:href="#DejaVuSans-48"/>
       <use x="63.623047" xlink:href="#DejaVuSans-46"/>
       <use x="95.410156" xlink:href="#DejaVuSans-52"/>
      </g>
     </g>
    </g>
    <g id="xtick_4">
     <g id="line2d_4">
      <g/>
     </g>
     <g id="text_4">
      <!-- 0.6 -->
      <defs>
       <path d="M 33.015625 40.375 
Q 26.375 40.375 22.484375 35.828125 
Q 18.609375 31.296875 18.609375 23.390625 
Q 18.609375 15.53125 22.484375 10.953125 
Q 26.375 6.390625 33.015625 6.390625 
Q 39.65625 6.390625 43.53125 10.953125 
Q 47.40625 15.53125 47.40625 23.390625 
Q 47.40625 31.296875 43.53125 35.828125 
Q 39.65625 40.375 33.015625 40.375 
z
M 52.59375 71.296875 
L 52.59375 62.3125 
Q 48.875 64.0625 45.09375 64.984375 
Q 41.3125 65.921875 37.59375 65.921875 
Q 27.828125 65.921875 22.671875 59.328125 
Q 17.53125 52.734375 16.796875 39.40625 
Q 19.671875 43.65625 24.015625 45.921875 
Q 28.375 48.1875 33.59375 48.1875 
Q 44.578125 48.1875 50.953125 41.515625 
Q 57.328125 34.859375 57.328125 23.390625 
Q 57.328125 12.15625 50.6875 5.359375 
Q 44.046875 -1.421875 33.015625 -1.421875 
Q 20.359375 -1.421875 13.671875 8.265625 
Q 6.984375 17.96875 6.984375 36.375 
Q 6.984375 53.65625 15.1875 63.9375 
Q 23.390625 74.21875 37.203125 74.21875 
Q 40.921875 74.21875 44.703125 73.484375 
Q 48.484375 72.75 52.59375 71.296875 
z
" id="DejaVuSans-54"/>
      </defs>
      <g transform="translate(-69.453937 298.338542)scale(0.2 -0.2)">
       <use xlink:href="#DejaVuSans-48"/>
       <use x="63.623047" xlink:href="#DejaVuSans-46"/>
       <use x="95.410156" xlink:href="#DejaVuSans-54"/>
      </g>
     </g>
    </g>
    <g id="text_5">
     <!--   -->
     <defs>
      <path id="DejaVuSans-32"/>
     </defs>
     <g transform="translate(-142.748958 321.694792)scale(0.2 -0.2)">
      <use xlink:href="#DejaVuSans-32"/>
     </g>
    </g>
   </g>
   <g id="matplotlib.axis_2">
    <g id="ytick_1">
     <g id="line2d_5">
      <defs>
       <path d="M 0 0 
L -3.5 0 
" id="mf46fbd0795" style="stroke:#000000;stroke-width:1.6;"/>
      </defs>
      <g/>
     </g>
     <g id="text_6">
      <!-- 0.00 -->
      <g transform="translate(-331.272917 276.040104)scale(0.2 -0.2)">
       <use xlink:href="#DejaVuSans-48"/>
       <use x="63.623047" xlink:href="#DejaVuSans-46"/>
       <use x="95.410156" xlink:href="#DejaVuSans-48"/>
       <use x="159.033203" xlink:href="#DejaVuSans-48"/>
      </g>
     </g>
    </g>
    <g id="ytick_2">
     <g id="line2d_6">
      <g/>
     </g>
     <g id="text_7">
      <!-- 0.05 -->
      <defs>
       <path d="M 10.796875 72.90625 
L 49.515625 72.90625 
L 49.515625 64.59375 
L 19.828125 64.59375 
L 19.828125 46.734375 
Q 21.96875 47.46875 24.109375 47.828125 
Q 26.265625 48.1875 28.421875 48.1875 
Q 40.625 48.1875 47.75 41.5 
Q 54.890625 34.8125 54.890625 23.390625 
Q 54.890625 11.625 47.5625 5.09375 
Q 40.234375 -1.421875 26.90625 -1.421875 
Q 22.3125 -1.421875 17.546875 -0.640625 
Q 12.796875 0.140625 7.71875 1.703125 
L 7.71875 11.625 
Q 12.109375 9.234375 16.796875 8.0625 
Q 21.484375 6.890625 26.703125 6.890625 
Q 35.15625 6.890625 40.078125 11.328125 
Q 45.015625 15.765625 45.015625 23.390625 
Q 45.015625 31 40.078125 35.4375 
Q 35.15625 39.890625 26.703125 39.890625 
Q 22.75 39.890625 18.8125 39.015625 
Q 14.890625 38.140625 10.796875 36.28125 
z
" id="DejaVuSans-53"/>
      </defs>
      <g transform="translate(-331.272917 209.760759)scale(0.2 -0.2)">
       <use xlink:href="#DejaVuSans-48"/>
       <use x="63.623047" xlink:href="#DejaVuSans-46"/>
       <use x="95.410156" xlink:href="#DejaVuSans-48"/>
       <use x="159.033203" xlink:href="#DejaVuSans-53"/>
      </g>
     </g>
    </g>
    <g id="ytick_3">
     <g id="line2d_7">
      <g/>
     </g>
     <g id="text_8">
      <!-- 0.10 -->
      <defs>
       <path d="M 12.40625 8.296875 
L 28.515625 8.296875 
L 28.515625 63.921875 
L 10.984375 60.40625 
L 10.984375 69.390625 
L 28.421875 72.90625 
L 38.28125 72.90625 
L 38.28125 8.296875 
L 54.390625 8.296875 
L 54.390625 0 
L 12.40625 0 
z
" id="DejaVuSans-49"/>
      </defs>
      <g transform="translate(-331.272917 143.481414)scale(0.2 -0.2)">
       <use xlink:href="#DejaVuSans-48"/>
       <use x="63.623047" xlink:href="#DejaVuSans-46"/>
       <use x="95.410156" xlink:href="#DejaVuSans-49"/>
       <use x="159.033203" xlink:href="#DejaVuSans-48"/>
      </g>
     </g>
    </g>
    <g id="ytick_4">
     <g id="line2d_8">
      <g/>
     </g>
     <g id="text_9">
      <!-- 0.15 -->
      <g transform="translate(-331.272917 77.202069)scale(0.2 -0.2)">
       <use xlink:href="#DejaVuSans-48"/>
       <use x="63.623047" xlink:href="#DejaVuSans-46"/>
       <use x="95.410156" xlink:href="#DejaVuSans-49"/>
       <use x="159.033203" xlink:href="#DejaVuSans-53"/>
      </g>
     </g>
    </g>
    <g id="ytick_5">
     <g id="line2d_9">
      <g/>
     </g>
     <g id="text_10">
      <!-- 0.20 -->
      <g transform="translate(-331.272917 10.922723)scale(0.2 -0.2)">
       <use xlink:href="#DejaVuSans-48"/>
       <use x="63.623047" xlink:href="#DejaVuSans-46"/>
       <use x="95.410156" xlink:href="#DejaVuSans-50"/>
       <use x="159.033203" xlink:href="#DejaVuSans-48"/>
      </g>
     </g>
    </g>
    <g id="text_11">
     <!--   -->
     <g transform="translate(-338.933167 138.767583)rotate(-90)scale(0.176 -0.176)">
      <use xlink:href="#DejaVuSans-32"/>
     </g>
    </g>
   </g>
   <g id="patch_83">
    <path style="fill:none;stroke:#000000;stroke-linecap:square;stroke-linejoin:miter;stroke-width:0.8;"/>
   </g>
   <g id="patch_84">
    <path style="fill:none;stroke:#000000;stroke-linecap:square;stroke-linejoin:miter;stroke-width:0.8;"/>
   </g>
  </g>
  <g id="axes_2">
   <g id="patch_85">
    <path d="M 96.7 268.441667 
L 361.641667 268.441667 
L 361.641667 3.5 
L 96.7 3.5 
z
" style="fill:#ffffff;"/>
   </g>
   <g id="PolyCollection_1">
    <defs>
     <path d="M 230.749903 -305.728143 
L 230.749903 -305.813941 
L 231.967262 -305.816566 
L 233.184621 -305.817775 
L 234.401981 -305.817913 
L 235.61934 -305.817731 
L 236.836699 -305.818367 
L 238.054059 -305.82129 
L 239.271418 -305.828217 
L 240.488777 -305.841025 
L 241.706137 -305.861654 
L 242.923496 -305.891988 
L 244.140855 -305.933716 
L 245.358215 -305.988155 
L 246.575574 -306.056057 
L 247.792933 -306.137439 
L 249.010293 -306.231483 
L 250.227652 -306.33655 
L 251.445011 -306.450339 
L 252.662371 -306.570183 
L 253.87973 -306.693463 
L 255.097089 -306.818064 
L 256.314449 -306.94279 
L 257.531808 -307.067633 
L 258.749167 -307.193808 
L 259.966527 -307.323507 
L 261.183886 -307.459392 
L 262.401245 -307.603943 
L 263.618605 -307.758792 
L 264.835964 -307.924228 
L 266.053323 -308.098946 
L 267.270683 -308.280105 
L 268.488042 -308.463629 
L 269.705401 -308.644713 
L 270.922761 -308.818435 
L 272.14012 -308.980399 
L 273.357479 -309.127322 
L 274.574839 -309.257459 
L 275.792198 -309.370774 
L 277.009557 -309.4688 
L 278.226917 -309.554223 
L 279.444276 -309.630328 
L 280.661635 -309.700477 
L 281.878995 -309.767777 
L 283.096354 -309.835018 
L 284.313713 -309.904799 
L 285.531073 -309.9797 
L 286.748432 -310.062306 
L 287.965791 -310.154983 
L 289.183151 -310.259402 
L 290.40051 -310.375939 
L 291.617869 -310.503177 
L 292.835229 -310.637682 
L 294.052588 -310.774219 
L 295.269948 -310.906402 
L 296.487307 -311.027718 
L 297.704666 -311.132759 
L 298.922026 -311.218457 
L 300.139385 -311.285114 
L 301.356744 -311.336955 
L 302.574104 -311.382004 
L 303.791463 -311.431145 
L 305.008822 -311.496408 
L 306.226182 -311.588763 
L 307.443541 -311.715892 
L 308.6609 -311.880499 
L 309.87826 -312.079653 
L 311.095619 -312.305383 
L 312.312978 -312.546426 
L 313.530338 -312.790718 
L 314.747697 -313.027965 
L 315.965056 -313.251677 
L 317.182416 -313.460159 
L 318.399775 -313.656287 
L 319.617134 -313.846275 
L 320.834494 -314.037869 
L 322.051853 -314.238586 
L 323.269212 -314.454447 
L 324.486572 -314.689438 
L 325.703931 -314.945552 
L 326.92129 -315.222998 
L 328.13865 -315.520115 
L 329.356009 -315.83263 
L 330.573368 -316.152298 
L 331.790728 -316.465336 
L 333.008087 -316.751333 
L 334.225446 -316.983366 
L 335.442806 -317.129739 
L 336.660165 -317.157344 
L 337.877524 -317.036116 
L 339.094884 -316.743751 
L 340.312243 -316.269759 
L 341.529602 -315.618065 
L 342.746962 -314.807693 
L 343.964321 -313.871368 
L 345.18168 -312.852252 
L 346.39904 -311.799268 
L 347.616399 -310.761723 
L 348.833758 -309.784065 
L 350.051118 -308.901587 
L 351.268477 -308.137733 
L 351.268477 -303.40435 
L 351.268477 -303.40435 
L 350.051118 -302.640496 
L 348.833758 -301.758019 
L 347.616399 -300.780361 
L 346.39904 -299.742816 
L 345.18168 -298.689831 
L 343.964321 -297.670715 
L 342.746962 -296.73439 
L 341.529602 -295.924018 
L 340.312243 -295.272325 
L 339.094884 -294.798332 
L 337.877524 -294.505967 
L 336.660165 -294.384739 
L 335.442806 -294.412344 
L 334.225446 -294.558717 
L 333.008087 -294.79075 
L 331.790728 -295.076748 
L 330.573368 -295.389785 
L 329.356009 -295.709453 
L 328.13865 -296.021968 
L 326.92129 -296.319085 
L 325.703931 -296.596532 
L 324.486572 -296.852645 
L 323.269212 -297.087637 
L 322.051853 -297.303498 
L 320.834494 -297.504214 
L 319.617134 -297.695809 
L 318.399775 -297.885796 
L 317.182416 -298.081924 
L 315.965056 -298.290406 
L 314.747697 -298.514119 
L 313.530338 -298.751366 
L 312.312978 -298.995657 
L 311.095619 -299.236701 
L 309.87826 -299.46243 
L 308.6609 -299.661584 
L 307.443541 -299.826192 
L 306.226182 -299.95332 
L 305.008822 -300.045675 
L 303.791463 -300.110938 
L 302.574104 -300.160079 
L 301.356744 -300.205128 
L 300.139385 -300.256969 
L 298.922026 -300.323626 
L 297.704666 -300.409325 
L 296.487307 -300.514365 
L 295.269948 -300.635682 
L 294.052588 -300.767865 
L 292.835229 -300.904401 
L 291.617869 -301.038906 
L 290.40051 -301.166144 
L 289.183151 -301.282682 
L 287.965791 -301.3871 
L 286.748432 -301.479778 
L 285.531073 -301.562383 
L 284.313713 -301.637284 
L 283.096354 -301.707065 
L 281.878995 -301.774306 
L 280.661635 -301.841606 
L 279.444276 -301.911755 
L 278.226917 -301.987861 
L 277.009557 -302.073284 
L 275.792198 -302.171309 
L 274.574839 -302.284624 
L 273.357479 -302.414761 
L 272.14012 -302.561684 
L 270.922761 -302.723648 
L 269.705401 -302.89737 
L 268.488042 -303.078455 
L 267.270683 -303.261978 
L 266.053323 -303.443137 
L 264.835964 -303.617856 
L 263.618605 -303.783291 
L 262.401245 -303.938141 
L 261.183886 -304.082691 
L 259.966527 -304.218577 
L 258.749167 -304.348275 
L 257.531808 -304.474451 
L 256.314449 -304.599294 
L 255.097089 -304.724019 
L 253.87973 -304.848621 
L 252.662371 -304.971901 
L 251.445011 -305.091744 
L 250.227652 -305.205533 
L 249.010293 -305.310601 
L 247.792933 -305.404645 
L 246.575574 -305.486027 
L 245.358215 -305.553928 
L 244.140855 -305.608367 
L 242.923496 -305.650095 
L 241.706137 -305.680429 
L 240.488777 -305.701058 
L 239.271418 -305.713866 
L 238.054059 -305.720794 
L 236.836699 -305.723716 
L 235.61934 -305.724352 
L 234.401981 -305.72417 
L 233.184621 -305.724308 
L 231.967262 -305.725517 
L 230.749903 -305.728143 
z
" id="m35e2b8b7a3" style="stroke:#424242;"/>
    </defs>
    <g clip-path="url(#pf987b5b93e)">
     <use style="fill:#7c78ab;stroke:#424242;" x="0" xlink:href="#m35e2b8b7a3" y="329.141667"/>
    </g>
   </g>
   <g id="PolyCollection_2">
    <defs>
     <path d="M 234.283063 -279.056913 
L 234.283063 -279.496837 
L 235.455694 -279.53489 
L 236.628325 -279.573705 
L 237.800955 -279.612622 
L 238.973586 -279.651259 
L 240.146217 -279.689572 
L 241.318848 -279.727851 
L 242.491478 -279.766677 
L 243.664109 -279.806846 
L 244.83674 -279.849285 
L 246.009371 -279.894976 
L 247.182002 -279.944911 
L 248.354632 -280.000061 
L 249.527263 -280.061376 
L 250.699894 -280.129786 
L 251.872525 -280.206214 
L 253.045155 -280.291571 
L 254.217786 -280.386733 
L 255.390417 -280.492485 
L 256.563048 -280.609431 
L 257.735678 -280.737866 
L 258.908309 -280.877635 
L 260.08094 -281.027996 
L 261.253571 -281.187535 
L 262.426201 -281.354165 
L 263.598832 -281.525242 
L 264.771463 -281.697796 
L 265.944094 -281.868854 
L 267.116724 -282.035807 
L 268.289355 -282.196747 
L 269.461986 -282.350717 
L 270.634617 -282.497806 
L 271.807247 -282.639081 
L 272.979878 -282.776359 
L 274.152509 -282.911852 
L 275.32514 -283.047743 
L 276.49777 -283.185764 
L 277.670401 -283.326825 
L 278.843032 -283.470755 
L 280.015663 -283.616184 
L 281.188293 -283.760586 
L 282.360924 -283.900473 
L 283.533555 -284.03172 
L 284.706186 -284.149974 
L 285.878816 -284.251087 
L 287.051447 -284.331535 
L 288.224078 -284.388747 
L 289.396709 -284.421337 
L 290.569339 -284.429198 
L 291.74197 -284.413474 
L 292.914601 -284.376394 
L 294.087232 -284.321019 
L 295.259862 -284.250907 
L 296.432493 -284.169764 
L 297.605124 -284.081124 
L 298.777755 -283.988115 
L 299.950385 -283.893356 
L 301.123016 -283.799001 
L 302.295647 -283.706912 
L 303.468278 -283.618921 
L 304.640908 -283.537093 
L 305.813539 -283.463944 
L 306.98617 -283.40254 
L 308.158801 -283.356475 
L 309.331431 -283.329727 
L 310.504062 -283.326454 
L 311.676693 -283.350769 
L 312.849324 -283.406539 
L 314.021955 -283.497235 
L 315.194585 -283.625839 
L 316.367216 -283.794804 
L 317.539847 -284.006051 
L 318.712478 -284.261007 
L 319.885108 -284.56067 
L 321.057739 -284.905698 
L 322.23037 -285.296489 
L 323.403001 -285.733221 
L 324.575631 -286.215782 
L 325.748262 -286.743521 
L 326.920893 -287.314756 
L 328.093524 -287.925994 
L 329.266154 -288.570882 
L 330.438785 -289.238986 
L 331.611416 -289.914585 
L 332.784047 -290.575781 
L 333.956677 -291.194248 
L 335.129308 -291.735968 
L 336.301939 -292.163169 
L 337.47457 -292.437464 
L 338.6472 -292.523958 
L 339.819831 -292.395772 
L 340.992462 -292.038253 
L 342.165093 -291.452088 
L 343.337723 -290.654628 
L 344.510354 -289.679057 
L 345.682985 -288.571413 
L 346.855616 -287.385881 
L 348.028246 -286.179144 
L 349.200877 -285.00468 
L 350.373508 -283.9079 
L 350.373508 -274.64585 
L 350.373508 -274.64585 
L 349.200877 -273.54907 
L 348.028246 -272.374606 
L 346.855616 -271.167869 
L 345.682985 -269.982337 
L 344.510354 -268.874693 
L 343.337723 -267.899122 
L 342.165093 -267.101662 
L 340.992462 -266.515497 
L 339.819831 -266.157978 
L 338.6472 -266.029792 
L 337.47457 -266.116286 
L 336.301939 -266.390581 
L 335.129308 -266.817782 
L 333.956677 -267.359502 
L 332.784047 -267.977969 
L 331.611416 -268.639165 
L 330.438785 -269.314764 
L 329.266154 -269.982868 
L 328.093524 -270.627756 
L 326.920893 -271.238994 
L 325.748262 -271.810229 
L 324.575631 -272.337968 
L 323.403001 -272.820529 
L 322.23037 -273.257261 
L 321.057739 -273.648052 
L 319.885108 -273.99308 
L 318.712478 -274.292743 
L 317.539847 -274.547699 
L 316.367216 -274.758946 
L 315.194585 -274.927911 
L 314.021955 -275.056515 
L 312.849324 -275.147211 
L 311.676693 -275.202981 
L 310.504062 -275.227296 
L 309.331431 -275.224023 
L 308.158801 -275.197275 
L 306.98617 -275.15121 
L 305.813539 -275.089806 
L 304.640908 -275.016657 
L 303.468278 -274.934829 
L 302.295647 -274.846838 
L 301.123016 -274.754749 
L 299.950385 -274.660394 
L 298.777755 -274.565635 
L 297.605124 -274.472626 
L 296.432493 -274.383986 
L 295.259862 -274.302843 
L 294.087232 -274.232731 
L 292.914601 -274.177356 
L 291.74197 -274.140276 
L 290.569339 -274.124552 
L 289.396709 -274.132413 
L 288.224078 -274.165003 
L 287.051447 -274.222215 
L 285.878816 -274.302663 
L 284.706186 -274.403776 
L 283.533555 -274.52203 
L 282.360924 -274.653277 
L 281.188293 -274.793164 
L 280.015663 -274.937566 
L 278.843032 -275.082995 
L 277.670401 -275.226925 
L 276.49777 -275.367986 
L 275.32514 -275.506007 
L 274.152509 -275.641898 
L 272.979878 -275.777391 
L 271.807247 -275.914669 
L 270.634617 -276.055944 
L 269.461986 -276.203033 
L 268.289355 -276.357003 
L 267.116724 -276.517943 
L 265.944094 -276.684896 
L 264.771463 -276.855954 
L 263.598832 -277.028508 
L 262.426201 -277.199585 
L 261.253571 -277.366215 
L 260.08094 -277.525754 
L 258.908309 -277.676115 
L 257.735678 -277.815884 
L 256.563048 -277.944319 
L 255.390417 -278.061265 
L 254.217786 -278.167017 
L 253.045155 -278.262179 
L 251.872525 -278.347536 
L 250.699894 -278.423964 
L 249.527263 -278.492374 
L 248.354632 -278.553689 
L 247.182002 -278.608839 
L 246.009371 -278.658774 
L 244.83674 -278.704465 
L 243.664109 -278.746904 
L 242.491478 -278.787073 
L 241.318848 -278.825899 
L 240.146217 -278.864178 
L 238.973586 -278.902491 
L 237.800955 -278.941128 
L 236.628325 -278.980045 
L 235.455694 -279.01886 
L 234.283063 -279.056913 
z
" id="ma08d7d14b3" style="stroke:#424242;"/>
    </defs>
    <g clip-path="url(#pf987b5b93e)">
     <use style="fill:#be631d;stroke:#424242;" x="0" xlink:href="#ma08d7d14b3" y="329.141667"/>
    </g>
   </g>
   <g id="PolyCollection_3">
    <defs>
     <path d="M 245.797008 -237.919869 
L 245.797008 -241.151381 
L 246.744431 -241.231516 
L 247.691853 -241.309763 
L 248.639275 -241.386563 
L 249.586698 -241.462586 
L 250.53412 -241.538719 
L 251.481542 -241.616044 
L 252.428965 -241.695802 
L 253.376387 -241.779353 
L 254.323809 -241.868125 
L 255.271231 -241.963554 
L 256.218654 -242.067031 
L 257.166076 -242.179838 
L 258.113498 -242.30309 
L 259.060921 -242.437684 
L 260.008343 -242.584248 
L 260.955765 -242.743105 
L 261.903187 -242.914243 
L 262.85061 -243.0973 
L 263.798032 -243.291556 
L 264.745454 -243.495945 
L 265.692877 -243.709072 
L 266.640299 -243.929248 
L 267.587721 -244.154529 
L 268.535144 -244.382771 
L 269.482566 -244.611687 
L 270.429988 -244.838912 
L 271.37741 -245.062069 
L 272.324833 -245.278838 
L 273.272255 -245.487025 
L 274.219677 -245.68462 
L 275.1671 -245.869857 
L 276.114522 -246.041264 
L 277.061944 -246.197701 
L 278.009367 -246.338392 
L 278.956789 -246.462939 
L 279.904211 -246.571337 
L 280.851633 -246.663957 
L 281.799056 -246.741541 
L 282.746478 -246.805167 
L 283.6939 -246.856215 
L 284.641323 -246.896324 
L 285.588745 -246.927338 
L 286.536167 -246.951257 
L 287.483589 -246.970181 
L 288.431012 -246.986249 
L 289.378434 -247.001596 
L 290.325856 -247.018298 
L 291.273279 -247.038333 
L 292.220701 -247.06355 
L 293.168123 -247.095636 
L 294.115546 -247.136105 
L 295.062968 -247.186287 
L 296.01039 -247.247323 
L 296.957812 -247.320176 
L 297.905235 -247.405637 
L 298.852657 -247.504338 
L 299.800079 -247.616766 
L 300.747502 -247.743279 
L 301.694924 -247.884112 
L 302.642346 -248.039384 
L 303.589769 -248.209098 
L 304.537191 -248.393128 
L 305.484613 -248.591207 
L 306.432035 -248.802902 
L 307.379458 -249.027583 
L 308.32688 -249.264393 
L 309.274302 -249.512206 
L 310.221725 -249.769595 
L 311.169147 -250.034795 
L 312.116569 -250.305683 
L 313.063991 -250.579754 
L 314.011414 -250.854117 
L 314.958836 -251.125506 
L 315.906258 -251.390303 
L 316.853681 -251.644578 
L 317.801103 -251.884144 
L 318.748525 -252.104633 
L 319.695948 -252.301577 
L 320.64337 -252.470509 
L 321.590792 -252.607063 
L 322.538214 -252.707091 
L 323.485637 -252.766769 
L 324.433059 -252.782708 
L 325.380481 -252.752059 
L 326.327904 -252.672601 
L 327.275326 -252.542824 
L 328.222748 -252.361989 
L 329.17017 -252.130176 
L 330.117593 -251.848302 
L 331.065015 -251.518127 
L 332.012437 -251.142229 
L 332.95986 -250.723961 
L 333.907282 -250.267385 
L 334.854704 -249.777185 
L 335.802127 -249.258566 
L 336.749549 -248.717134 
L 337.696971 -248.158771 
L 338.644393 -247.589494 
L 339.591816 -247.015324 
L 339.591816 -232.055926 
L 339.591816 -232.055926 
L 338.644393 -231.481756 
L 337.696971 -230.912479 
L 336.749549 -230.354116 
L 335.802127 -229.812684 
L 334.854704 -229.294065 
L 333.907282 -228.803865 
L 332.95986 -228.347289 
L 332.012437 -227.929021 
L 331.065015 -227.553123 
L 330.117593 -227.222948 
L 329.17017 -226.941074 
L 328.222748 -226.709261 
L 327.275326 -226.528426 
L 326.327904 -226.398649 
L 325.380481 -226.319191 
L 324.433059 -226.288542 
L 323.485637 -226.304481 
L 322.538214 -226.364159 
L 321.590792 -226.464187 
L 320.64337 -226.600741 
L 319.695948 -226.769673 
L 318.748525 -226.966617 
L 317.801103 -227.187106 
L 316.853681 -227.426672 
L 315.906258 -227.680947 
L 314.958836 -227.945744 
L 314.011414 -228.217133 
L 313.063991 -228.491496 
L 312.116569 -228.765567 
L 311.169147 -229.036455 
L 310.221725 -229.301655 
L 309.274302 -229.559044 
L 308.32688 -229.806857 
L 307.379458 -230.043667 
L 306.432035 -230.268348 
L 305.484613 -230.480043 
L 304.537191 -230.678122 
L 303.589769 -230.862152 
L 302.642346 -231.031866 
L 301.694924 -231.187138 
L 300.747502 -231.327971 
L 299.800079 -231.454484 
L 298.852657 -231.566912 
L 297.905235 -231.665613 
L 296.957812 -231.751074 
L 296.01039 -231.823927 
L 295.062968 -231.884963 
L 294.115546 -231.935145 
L 293.168123 -231.975614 
L 292.220701 -232.0077 
L 291.273279 -232.032917 
L 290.325856 -232.052952 
L 289.378434 -232.069654 
L 288.431012 -232.085001 
L 287.483589 -232.101069 
L 286.536167 -232.119993 
L 285.588745 -232.143912 
L 284.641323 -232.174926 
L 283.6939 -232.215035 
L 282.746478 -232.266083 
L 281.799056 -232.329709 
L 280.851633 -232.407293 
L 279.904211 -232.499913 
L 278.956789 -232.608311 
L 278.009367 -232.732858 
L 277.061944 -232.873549 
L 276.114522 -233.029986 
L 275.1671 -233.201393 
L 274.219677 -233.38663 
L 273.272255 -233.584225 
L 272.324833 -233.792412 
L 271.37741 -234.009181 
L 270.429988 -234.232338 
L 269.482566 -234.459563 
L 268.535144 -234.688479 
L 267.587721 -234.916721 
L 266.640299 -235.142002 
L 265.692877 -235.362178 
L 264.745454 -235.575305 
L 263.798032 -235.779694 
L 262.85061 -235.97395 
L 261.903187 -236.157007 
L 260.955765 -236.328145 
L 260.008343 -236.487002 
L 259.060921 -236.633566 
L 258.113498 -236.76816 
L 257.166076 -236.891412 
L 256.218654 -237.004219 
L 255.271231 -237.107696 
L 254.323809 -237.203125 
L 253.376387 -237.291897 
L 252.428965 -237.375448 
L 251.481542 -237.455206 
L 250.53412 -237.532531 
L 249.586698 -237.608664 
L 248.639275 -237.684687 
L 247.691853 -237.761487 
L 246.744431 -237.839734 
L 245.797008 -237.919869 
z
" id="mac96ea7d44" style="stroke:#424242;"/>
    </defs>
    <g clip-path="url(#pf987b5b93e)">
     <use style="fill:#7c78ab;stroke:#424242;" x="0" xlink:href="#mac96ea7d44" y="329.141667"/>
    </g>
   </g>
   <g id="PolyCollection_4">
    <defs>
     <path d="M 245.685426 -209.433002 
L 245.685426 -216.649914 
L 246.6018 -216.828003 
L 247.518175 -217.008398 
L 248.43455 -217.190785 
L 249.350924 -217.374844 
L 250.267299 -217.560247 
L 251.183674 -217.746664 
L 252.100049 -217.933758 
L 253.016423 -218.121183 
L 253.932798 -218.30859 
L 254.849173 -218.49562 
L 255.765547 -218.681907 
L 256.681922 -218.867074 
L 257.598297 -219.050733 
L 258.514672 -219.232486 
L 259.431046 -219.411921 
L 260.347421 -219.588614 
L 261.263796 -219.762126 
L 262.18017 -219.932006 
L 263.096545 -220.097788 
L 264.01292 -220.258995 
L 264.929295 -220.415139 
L 265.845669 -220.565722 
L 266.762044 -220.710238 
L 267.678419 -220.848181 
L 268.594794 -220.979039 
L 269.511168 -221.102308 
L 270.427543 -221.217489 
L 271.343918 -221.324098 
L 272.260292 -221.421668 
L 273.176667 -221.509757 
L 274.093042 -221.587953 
L 275.009417 -221.65588 
L 275.925791 -221.713205 
L 276.842166 -221.759645 
L 277.758541 -221.794971 
L 278.674915 -221.819015 
L 279.59129 -221.831677 
L 280.507665 -221.832931 
L 281.42404 -221.822824 
L 282.340414 -221.801487 
L 283.256789 -221.769136 
L 284.173164 -221.726071 
L 285.089538 -221.672685 
L 286.005913 -221.609455 
L 286.922288 -221.536952 
L 287.838663 -221.45583 
L 288.755037 -221.366829 
L 289.671412 -221.270769 
L 290.587787 -221.168546 
L 291.504161 -221.061123 
L 292.420536 -220.949526 
L 293.336911 -220.834831 
L 294.253286 -220.718158 
L 295.16966 -220.600658 
L 296.086035 -220.4835 
L 297.00241 -220.367862 
L 297.918784 -220.254915 
L 298.835159 -220.145808 
L 299.751534 -220.041657 
L 300.667909 -219.943526 
L 301.584283 -219.852418 
L 302.500658 -219.769254 
L 303.417033 -219.694866 
L 304.333407 -219.629978 
L 305.249782 -219.575197 
L 306.166157 -219.530998 
L 307.082532 -219.497718 
L 307.998906 -219.475548 
L 308.915281 -219.464519 
L 309.831656 -219.464506 
L 310.748031 -219.475222 
L 311.664405 -219.496214 
L 312.58078 -219.526871 
L 313.497155 -219.566426 
L 314.413529 -219.61396 
L 315.329904 -219.668416 
L 316.246279 -219.728608 
L 317.162654 -219.793235 
L 318.079028 -219.860898 
L 318.995403 -219.930117 
L 319.911778 -219.999354 
L 320.828152 -220.067028 
L 321.744527 -220.131543 
L 322.660902 -220.191305 
L 323.577277 -220.24475 
L 324.493651 -220.290365 
L 325.410026 -220.32671 
L 326.326401 -220.352438 
L 327.242775 -220.366316 
L 328.15915 -220.367247 
L 329.075525 -220.354277 
L 329.9919 -220.32662 
L 330.908274 -220.283658 
L 331.824649 -220.224959 
L 332.741024 -220.150275 
L 333.657398 -220.059548 
L 334.573773 -219.952909 
L 335.490148 -219.830671 
L 336.406523 -219.693326 
L 336.406523 -206.389591 
L 336.406523 -206.389591 
L 335.490148 -206.252246 
L 334.573773 -206.130008 
L 333.657398 -206.023369 
L 332.741024 -205.932642 
L 331.824649 -205.857958 
L 330.908274 -205.799258 
L 329.9919 -205.756297 
L 329.075525 -205.728639 
L 328.15915 -205.71567 
L 327.242775 -205.7166 
L 326.326401 -205.730479 
L 325.410026 -205.756207 
L 324.493651 -205.792551 
L 323.577277 -205.838167 
L 322.660902 -205.891612 
L 321.744527 -205.951374 
L 320.828152 -206.015888 
L 319.911778 -206.083562 
L 318.995403 -206.152799 
L 318.079028 -206.222019 
L 317.162654 -206.289682 
L 316.246279 -206.354309 
L 315.329904 -206.4145 
L 314.413529 -206.468956 
L 313.497155 -206.516491 
L 312.58078 -206.556045 
L 311.664405 -206.586703 
L 310.748031 -206.607695 
L 309.831656 -206.61841 
L 308.915281 -206.618398 
L 307.998906 -206.607369 
L 307.082532 -206.585198 
L 306.166157 -206.551919 
L 305.249782 -206.50772 
L 304.333407 -206.452938 
L 303.417033 -206.38805 
L 302.500658 -206.313662 
L 301.584283 -206.230499 
L 300.667909 -206.139391 
L 299.751534 -206.04126 
L 298.835159 -205.937108 
L 297.918784 -205.828002 
L 297.00241 -205.715054 
L 296.086035 -205.599417 
L 295.16966 -205.482259 
L 294.253286 -205.364759 
L 293.336911 -205.248085 
L 292.420536 -205.133391 
L 291.504161 -205.021793 
L 290.587787 -204.914371 
L 289.671412 -204.812148 
L 288.755037 -204.716088 
L 287.838663 -204.627087 
L 286.922288 -204.545965 
L 286.005913 -204.473461 
L 285.089538 -204.410232 
L 284.173164 -204.356845 
L 283.256789 -204.313781 
L 282.340414 -204.281429 
L 281.42404 -204.260093 
L 280.507665 -204.249986 
L 279.59129 -204.251239 
L 278.674915 -204.263902 
L 277.758541 -204.287946 
L 276.842166 -204.323272 
L 275.925791 -204.369711 
L 275.009417 -204.427037 
L 274.093042 -204.494964 
L 273.176667 -204.57316 
L 272.260292 -204.661249 
L 271.343918 -204.758819 
L 270.427543 -204.865428 
L 269.511168 -204.980609 
L 268.594794 -205.103878 
L 267.678419 -205.234736 
L 266.762044 -205.372678 
L 265.845669 -205.517195 
L 264.929295 -205.667778 
L 264.01292 -205.823922 
L 263.096545 -205.985129 
L 262.18017 -206.150911 
L 261.263796 -206.32079 
L 260.347421 -206.494302 
L 259.431046 -206.670995 
L 258.514672 -206.85043 
L 257.598297 -207.032184 
L 256.681922 -207.215843 
L 255.765547 -207.40101 
L 254.849173 -207.587297 
L 253.932798 -207.774327 
L 253.016423 -207.961734 
L 252.100049 -208.149159 
L 251.183674 -208.336252 
L 250.267299 -208.522669 
L 249.350924 -208.708073 
L 248.43455 -208.892132 
L 247.518175 -209.074519 
L 246.6018 -209.254914 
L 245.685426 -209.433002 
z
" id="m53e6a20e16" style="stroke:#424242;"/>
    </defs>
    <g clip-path="url(#pf987b5b93e)">
     <use style="fill:#be631d;stroke:#424242;" x="0" xlink:href="#m53e6a20e16" y="329.141667"/>
    </g>
   </g>
   <g id="patch_86">
    <path clip-path="url(#pf987b5b93e)" d="M 114.362778 36.617708 
L 114.362778 36.617708 
L 114.362778 36.617708 
L 114.362778 36.617708 
z
" style="fill:#7c78ab;stroke:#424242;stroke-linejoin:miter;stroke-width:0.5;"/>
   </g>
   <g id="patch_87">
    <path clip-path="url(#pf987b5b93e)" d="M 114.362778 36.617708 
L 114.362778 36.617708 
L 114.362778 36.617708 
L 114.362778 36.617708 
z
" style="fill:#be631d;stroke:#424242;stroke-linejoin:miter;stroke-width:0.5;"/>
   </g>
   <g id="matplotlib.axis_3">
    <g id="xtick_5">
     <g id="line2d_10">
      <g>
       <use style="stroke:#000000;stroke-width:1.6;" x="114.362778" xlink:href="#md5d544f45a" y="268.441667"/>
      </g>
     </g>
     <g id="text_12">
      <!-- 0.0 -->
      <g transform="translate(98.459653 298.338542)scale(0.2 -0.2)">
       <use xlink:href="#DejaVuSans-48"/>
       <use x="63.623047" xlink:href="#DejaVuSans-46"/>
       <use x="95.410156" xlink:href="#DejaVuSans-48"/>
      </g>
     </g>
    </g>
    <g id="xtick_6">
     <g id="line2d_11">
      <g>
       <use style="stroke:#000000;stroke-width:1.6;" x="185.013889" xlink:href="#md5d544f45a" y="268.441667"/>
      </g>
     </g>
     <g id="text_13">
      <!-- 0.2 -->
      <g transform="translate(169.110764 298.338542)scale(0.2 -0.2)">
       <use xlink:href="#DejaVuSans-48"/>
       <use x="63.623047" xlink:href="#DejaVuSans-46"/>
       <use x="95.410156" xlink:href="#DejaVuSans-50"/>
      </g>
     </g>
    </g>
    <g id="xtick_7">
     <g id="line2d_12">
      <g>
       <use style="stroke:#000000;stroke-width:1.6;" x="255.665" xlink:href="#md5d544f45a" y="268.441667"/>
      </g>
     </g>
     <g id="text_14">
      <!-- 0.4 -->
      <g transform="translate(239.761875 298.338542)scale(0.2 -0.2)">
       <use xlink:href="#DejaVuSans-48"/>
       <use x="63.623047" xlink:href="#DejaVuSans-46"/>
       <use x="95.410156" xlink:href="#DejaVuSans-52"/>
      </g>
     </g>
    </g>
    <g id="xtick_8">
     <g id="line2d_13">
      <g>
       <use style="stroke:#000000;stroke-width:1.6;" x="326.316111" xlink:href="#md5d544f45a" y="268.441667"/>
      </g>
     </g>
     <g id="text_15">
      <!-- 0.6 -->
      <g transform="translate(310.412986 298.338542)scale(0.2 -0.2)">
       <use xlink:href="#DejaVuSans-48"/>
       <use x="63.623047" xlink:href="#DejaVuSans-46"/>
       <use x="95.410156" xlink:href="#DejaVuSans-54"/>
      </g>
     </g>
    </g>
    <g id="text_16">
     <!-- Max JS Divergence within $\epsilon$ -->
     <defs>
      <path d="M 9.8125 72.90625 
L 24.515625 72.90625 
L 43.109375 23.296875 
L 61.8125 72.90625 
L 76.515625 72.90625 
L 76.515625 0 
L 66.890625 0 
L 66.890625 64.015625 
L 48.09375 14.015625 
L 38.1875 14.015625 
L 19.390625 64.015625 
L 19.390625 0 
L 9.8125 0 
z
" id="DejaVuSans-77"/>
      <path d="M 34.28125 27.484375 
Q 23.390625 27.484375 19.1875 25 
Q 14.984375 22.515625 14.984375 16.5 
Q 14.984375 11.71875 18.140625 8.90625 
Q 21.296875 6.109375 26.703125 6.109375 
Q 34.1875 6.109375 38.703125 11.40625 
Q 43.21875 16.703125 43.21875 25.484375 
L 43.21875 27.484375 
z
M 52.203125 31.203125 
L 52.203125 0 
L 43.21875 0 
L 43.21875 8.296875 
Q 40.140625 3.328125 35.546875 0.953125 
Q 30.953125 -1.421875 24.3125 -1.421875 
Q 15.921875 -1.421875 10.953125 3.296875 
Q 6 8.015625 6 15.921875 
Q 6 25.140625 12.171875 29.828125 
Q 18.359375 34.515625 30.609375 34.515625 
L 43.21875 34.515625 
L 43.21875 35.40625 
Q 43.21875 41.609375 39.140625 45 
Q 35.0625 48.390625 27.6875 48.390625 
Q 23 48.390625 18.546875 47.265625 
Q 14.109375 46.140625 10.015625 43.890625 
L 10.015625 52.203125 
Q 14.9375 54.109375 19.578125 55.046875 
Q 24.21875 56 28.609375 56 
Q 40.484375 56 46.34375 49.84375 
Q 52.203125 43.703125 52.203125 31.203125 
z
" id="DejaVuSans-97"/>
      <path d="M 54.890625 54.6875 
L 35.109375 28.078125 
L 55.90625 0 
L 45.3125 0 
L 29.390625 21.484375 
L 13.484375 0 
L 2.875 0 
L 24.125 28.609375 
L 4.6875 54.6875 
L 15.28125 54.6875 
L 29.78125 35.203125 
L 44.28125 54.6875 
z
" id="DejaVuSans-120"/>
      <path d="M 9.8125 72.90625 
L 19.671875 72.90625 
L 19.671875 5.078125 
Q 19.671875 -8.109375 14.671875 -14.0625 
Q 9.671875 -20.015625 -1.421875 -20.015625 
L -5.171875 -20.015625 
L -5.171875 -11.71875 
L -2.09375 -11.71875 
Q 4.4375 -11.71875 7.125 -8.046875 
Q 9.8125 -4.390625 9.8125 5.078125 
z
" id="DejaVuSans-74"/>
      <path d="M 53.515625 70.515625 
L 53.515625 60.890625 
Q 47.90625 63.578125 42.921875 64.890625 
Q 37.9375 66.21875 33.296875 66.21875 
Q 25.25 66.21875 20.875 63.09375 
Q 16.5 59.96875 16.5 54.203125 
Q 16.5 49.359375 19.40625 46.890625 
Q 22.3125 44.4375 30.421875 42.921875 
L 36.375 41.703125 
Q 47.40625 39.59375 52.65625 34.296875 
Q 57.90625 29 57.90625 20.125 
Q 57.90625 9.515625 50.796875 4.046875 
Q 43.703125 -1.421875 29.984375 -1.421875 
Q 24.8125 -1.421875 18.96875 -0.25 
Q 13.140625 0.921875 6.890625 3.21875 
L 6.890625 13.375 
Q 12.890625 10.015625 18.65625 8.296875 
Q 24.421875 6.59375 29.984375 6.59375 
Q 38.421875 6.59375 43.015625 9.90625 
Q 47.609375 13.234375 47.609375 19.390625 
Q 47.609375 24.75 44.3125 27.78125 
Q 41.015625 30.8125 33.5 32.328125 
L 27.484375 33.5 
Q 16.453125 35.6875 11.515625 40.375 
Q 6.59375 45.0625 6.59375 53.421875 
Q 6.59375 63.09375 13.40625 68.65625 
Q 20.21875 74.21875 32.171875 74.21875 
Q 37.3125 74.21875 42.625 73.28125 
Q 47.953125 72.359375 53.515625 70.515625 
z
" id="DejaVuSans-83"/>
      <path d="M 19.671875 64.796875 
L 19.671875 8.109375 
L 31.59375 8.109375 
Q 46.6875 8.109375 53.6875 14.9375 
Q 60.6875 21.78125 60.6875 36.53125 
Q 60.6875 51.171875 53.6875 57.984375 
Q 46.6875 64.796875 31.59375 64.796875 
z
M 9.8125 72.90625 
L 30.078125 72.90625 
Q 51.265625 72.90625 61.171875 64.09375 
Q 71.09375 55.28125 71.09375 36.53125 
Q 71.09375 17.671875 61.125 8.828125 
Q 51.171875 0 30.078125 0 
L 9.8125 0 
z
" id="DejaVuSans-68"/>
      <path d="M 9.421875 54.6875 
L 18.40625 54.6875 
L 18.40625 0 
L 9.421875 0 
z
M 9.421875 75.984375 
L 18.40625 75.984375 
L 18.40625 64.59375 
L 9.421875 64.59375 
z
" id="DejaVuSans-105"/>
      <path d="M 2.984375 54.6875 
L 12.5 54.6875 
L 29.59375 8.796875 
L 46.6875 54.6875 
L 56.203125 54.6875 
L 35.6875 0 
L 23.484375 0 
z
" id="DejaVuSans-118"/>
      <path d="M 56.203125 29.59375 
L 56.203125 25.203125 
L 14.890625 25.203125 
Q 15.484375 15.921875 20.484375 11.0625 
Q 25.484375 6.203125 34.421875 6.203125 
Q 39.59375 6.203125 44.453125 7.46875 
Q 49.3125 8.734375 54.109375 11.28125 
L 54.109375 2.78125 
Q 49.265625 0.734375 44.1875 -0.34375 
Q 39.109375 -1.421875 33.890625 -1.421875 
Q 20.796875 -1.421875 13.15625 6.1875 
Q 5.515625 13.8125 5.515625 26.8125 
Q 5.515625 40.234375 12.765625 48.109375 
Q 20.015625 56 32.328125 56 
Q 43.359375 56 49.78125 48.890625 
Q 56.203125 41.796875 56.203125 29.59375 
z
M 47.21875 32.234375 
Q 47.125 39.59375 43.09375 43.984375 
Q 39.0625 48.390625 32.421875 48.390625 
Q 24.90625 48.390625 20.390625 44.140625 
Q 15.875 39.890625 15.1875 32.171875 
z
" id="DejaVuSans-101"/>
      <path d="M 41.109375 46.296875 
Q 39.59375 47.171875 37.8125 47.578125 
Q 36.03125 48 33.890625 48 
Q 26.265625 48 22.1875 43.046875 
Q 18.109375 38.09375 18.109375 28.8125 
L 18.109375 0 
L 9.078125 0 
L 9.078125 54.6875 
L 18.109375 54.6875 
L 18.109375 46.1875 
Q 20.953125 51.171875 25.484375 53.578125 
Q 30.03125 56 36.53125 56 
Q 37.453125 56 38.578125 55.875 
Q 39.703125 55.765625 41.0625 55.515625 
z
" id="DejaVuSans-114"/>
      <path d="M 45.40625 27.984375 
Q 45.40625 37.75 41.375 43.109375 
Q 37.359375 48.484375 30.078125 48.484375 
Q 22.859375 48.484375 18.828125 43.109375 
Q 14.796875 37.75 14.796875 27.984375 
Q 14.796875 18.265625 18.828125 12.890625 
Q 22.859375 7.515625 30.078125 7.515625 
Q 37.359375 7.515625 41.375 12.890625 
Q 45.40625 18.265625 45.40625 27.984375 
z
M 54.390625 6.78125 
Q 54.390625 -7.171875 48.1875 -13.984375 
Q 42 -20.796875 29.203125 -20.796875 
Q 24.46875 -20.796875 20.265625 -20.09375 
Q 16.0625 -19.390625 12.109375 -17.921875 
L 12.109375 -9.1875 
Q 16.0625 -11.328125 19.921875 -12.34375 
Q 23.78125 -13.375 27.78125 -13.375 
Q 36.625 -13.375 41.015625 -8.765625 
Q 45.40625 -4.15625 45.40625 5.171875 
L 45.40625 9.625 
Q 42.625 4.78125 38.28125 2.390625 
Q 33.9375 0 27.875 0 
Q 17.828125 0 11.671875 7.65625 
Q 5.515625 15.328125 5.515625 27.984375 
Q 5.515625 40.671875 11.671875 48.328125 
Q 17.828125 56 27.875 56 
Q 33.9375 56 38.28125 53.609375 
Q 42.625 51.21875 45.40625 46.390625 
L 45.40625 54.6875 
L 54.390625 54.6875 
z
" id="DejaVuSans-103"/>
      <path d="M 54.890625 33.015625 
L 54.890625 0 
L 45.90625 0 
L 45.90625 32.71875 
Q 45.90625 40.484375 42.875 44.328125 
Q 39.84375 48.1875 33.796875 48.1875 
Q 26.515625 48.1875 22.3125 43.546875 
Q 18.109375 38.921875 18.109375 30.90625 
L 18.109375 0 
L 9.078125 0 
L 9.078125 54.6875 
L 18.109375 54.6875 
L 18.109375 46.1875 
Q 21.34375 51.125 25.703125 53.5625 
Q 30.078125 56 35.796875 56 
Q 45.21875 56 50.046875 50.171875 
Q 54.890625 44.34375 54.890625 33.015625 
z
" id="DejaVuSans-110"/>
      <path d="M 48.78125 52.59375 
L 48.78125 44.1875 
Q 44.96875 46.296875 41.140625 47.34375 
Q 37.3125 48.390625 33.40625 48.390625 
Q 24.65625 48.390625 19.8125 42.84375 
Q 14.984375 37.3125 14.984375 27.296875 
Q 14.984375 17.28125 19.8125 11.734375 
Q 24.65625 6.203125 33.40625 6.203125 
Q 37.3125 6.203125 41.140625 7.25 
Q 44.96875 8.296875 48.78125 10.40625 
L 48.78125 2.09375 
Q 45.015625 0.34375 40.984375 -0.53125 
Q 36.96875 -1.421875 32.421875 -1.421875 
Q 20.0625 -1.421875 12.78125 6.34375 
Q 5.515625 14.109375 5.515625 27.296875 
Q 5.515625 40.671875 12.859375 48.328125 
Q 20.21875 56 33.015625 56 
Q 37.15625 56 41.109375 55.140625 
Q 45.0625 54.296875 48.78125 52.59375 
z
" id="DejaVuSans-99"/>
      <path d="M 4.203125 54.6875 
L 13.1875 54.6875 
L 24.421875 12.015625 
L 35.59375 54.6875 
L 46.1875 54.6875 
L 57.421875 12.015625 
L 68.609375 54.6875 
L 77.59375 54.6875 
L 63.28125 0 
L 52.6875 0 
L 40.921875 44.828125 
L 29.109375 0 
L 18.5 0 
z
" id="DejaVuSans-119"/>
      <path d="M 18.3125 70.21875 
L 18.3125 54.6875 
L 36.8125 54.6875 
L 36.8125 47.703125 
L 18.3125 47.703125 
L 18.3125 18.015625 
Q 18.3125 11.328125 20.140625 9.421875 
Q 21.96875 7.515625 27.59375 7.515625 
L 36.8125 7.515625 
L 36.8125 0 
L 27.59375 0 
Q 17.1875 0 13.234375 3.875 
Q 9.28125 7.765625 9.28125 18.015625 
L 9.28125 47.703125 
L 2.6875 47.703125 
L 2.6875 54.6875 
L 9.28125 54.6875 
L 9.28125 70.21875 
z
" id="DejaVuSans-116"/>
      <path d="M 54.890625 33.015625 
L 54.890625 0 
L 45.90625 0 
L 45.90625 32.71875 
Q 45.90625 40.484375 42.875 44.328125 
Q 39.84375 48.1875 33.796875 48.1875 
Q 26.515625 48.1875 22.3125 43.546875 
Q 18.109375 38.921875 18.109375 30.90625 
L 18.109375 0 
L 9.078125 0 
L 9.078125 75.984375 
L 18.109375 75.984375 
L 18.109375 46.1875 
Q 21.34375 51.125 25.703125 53.5625 
Q 30.078125 56 35.796875 56 
Q 45.21875 56 50.046875 50.171875 
Q 54.890625 44.34375 54.890625 33.015625 
z
" id="DejaVuSans-104"/>
      <path d="M 19.734375 29.5 
Q 14.453125 30.671875 12.15625 33.84375 
Q 10.453125 36.078125 10.453125 39.109375 
Q 10.453125 47.40625 18.359375 52.25 
Q 24.609375 56.0625 34.1875 56.0625 
Q 37.890625 56.0625 41.9375 55.46875 
Q 46 54.890625 50.53125 53.71875 
L 48.96875 45.5625 
Q 44.484375 46.96875 40.71875 47.609375 
Q 36.859375 48.25 33.40625 48.25 
Q 27.59375 48.25 23.78125 46 
Q 19.1875 43.3125 19.1875 39.40625 
Q 19.1875 36.8125 21.578125 35.015625 
Q 24.421875 32.859375 30.078125 32.859375 
L 37.640625 32.859375 
L 36.234375 25.4375 
L 29 25.4375 
Q 22.265625 25.4375 18.3125 22.953125 
Q 12.9375 19.578125 12.9375 14.3125 
Q 12.9375 10.984375 15.828125 8.796875 
Q 19.4375 6.0625 26.8125 6.0625 
Q 31.34375 6.0625 35.6875 6.9375 
Q 40.046875 7.859375 43.84375 9.671875 
L 42.1875 1.3125 
Q 37.546875 -0.046875 33.296875 -0.734375 
Q 29.046875 -1.421875 25.140625 -1.421875 
Q 13.53125 -1.421875 8.0625 3.03125 
Q 3.90625 6.453125 3.90625 12.203125 
Q 3.90625 19.96875 9.375 24.75 
Q 13.421875 28.328125 19.734375 29.5 
z
" id="DejaVuSans-Oblique-949"/>
     </defs>
     <g transform="translate(93.570833 321.697917)scale(0.2 -0.2)">
      <use transform="translate(0 0.015625)" xlink:href="#DejaVuSans-77"/>
      <use transform="translate(86.279297 0.015625)" xlink:href="#DejaVuSans-97"/>
      <use transform="translate(147.558594 0.015625)" xlink:href="#DejaVuSans-120"/>
      <use transform="translate(206.738281 0.015625)" xlink:href="#DejaVuSans-32"/>
      <use transform="translate(238.525391 0.015625)" xlink:href="#DejaVuSans-74"/>
      <use transform="translate(268.017578 0.015625)" xlink:href="#DejaVuSans-83"/>
      <use transform="translate(331.494141 0.015625)" xlink:href="#DejaVuSans-32"/>
      <use transform="translate(363.28125 0.015625)" xlink:href="#DejaVuSans-68"/>
      <use transform="translate(440.283203 0.015625)" xlink:href="#DejaVuSans-105"/>
      <use transform="translate(468.066406 0.015625)" xlink:href="#DejaVuSans-118"/>
      <use transform="translate(527.246094 0.015625)" xlink:href="#DejaVuSans-101"/>
      <use transform="translate(588.769531 0.015625)" xlink:href="#DejaVuSans-114"/>
      <use transform="translate(629.882812 0.015625)" xlink:href="#DejaVuSans-103"/>
      <use transform="translate(693.359375 0.015625)" xlink:href="#DejaVuSans-101"/>
      <use transform="translate(754.882812 0.015625)" xlink:href="#DejaVuSans-110"/>
      <use transform="translate(818.261719 0.015625)" xlink:href="#DejaVuSans-99"/>
      <use transform="translate(873.242188 0.015625)" xlink:href="#DejaVuSans-101"/>
      <use transform="translate(934.765625 0.015625)" xlink:href="#DejaVuSans-32"/>
      <use transform="translate(966.552734 0.015625)" xlink:href="#DejaVuSans-119"/>
      <use transform="translate(1048.339844 0.015625)" xlink:href="#DejaVuSans-105"/>
      <use transform="translate(1076.123047 0.015625)" xlink:href="#DejaVuSans-116"/>
      <use transform="translate(1115.332031 0.015625)" xlink:href="#DejaVuSans-104"/>
      <use transform="translate(1178.710938 0.015625)" xlink:href="#DejaVuSans-105"/>
      <use transform="translate(1206.494141 0.015625)" xlink:href="#DejaVuSans-110"/>
      <use transform="translate(1269.873047 0.015625)" xlink:href="#DejaVuSans-32"/>
      <use transform="translate(1301.660156 0.015625)" xlink:href="#DejaVuSans-Oblique-949"/>
     </g>
    </g>
   </g>
   <g id="matplotlib.axis_4">
    <g id="ytick_6">
     <g id="line2d_14">
      <g>
       <use style="stroke:#000000;stroke-width:1.6;" x="96.7" xlink:href="#mf46fbd0795" y="36.617708"/>
      </g>
     </g>
     <g id="text_17">
      <!-- [0.00, -->
      <defs>
       <path d="M 8.59375 75.984375 
L 29.296875 75.984375 
L 29.296875 69 
L 17.578125 69 
L 17.578125 -6.203125 
L 29.296875 -6.203125 
L 29.296875 -13.1875 
L 8.59375 -13.1875 
z
" id="DejaVuSans-91"/>
       <path d="M 11.71875 12.40625 
L 22.015625 12.40625 
L 22.015625 4 
L 14.015625 -11.625 
L 7.71875 -11.625 
L 11.71875 4 
z
" id="DejaVuSans-44"/>
      </defs>
      <g transform="translate(23.309375 33.018333)scale(0.2 -0.2)">
       <use xlink:href="#DejaVuSans-91"/>
       <use x="39.013672" xlink:href="#DejaVuSans-48"/>
       <use x="102.636719" xlink:href="#DejaVuSans-46"/>
       <use x="134.423828" xlink:href="#DejaVuSans-48"/>
       <use x="198.046875" xlink:href="#DejaVuSans-48"/>
       <use x="261.669922" xlink:href="#DejaVuSans-44"/>
      </g>
      <!-- 0.25) -->
      <defs>
       <path d="M 8.015625 75.875 
L 15.828125 75.875 
Q 23.140625 64.359375 26.78125 53.3125 
Q 30.421875 42.28125 30.421875 31.390625 
Q 30.421875 20.453125 26.78125 9.375 
Q 23.140625 -1.703125 15.828125 -13.1875 
L 8.015625 -13.1875 
Q 14.5 -2 17.703125 9.0625 
Q 20.90625 20.125 20.90625 31.390625 
Q 20.90625 42.671875 17.703125 53.65625 
Q 14.5 64.65625 8.015625 75.875 
z
" id="DejaVuSans-41"/>
      </defs>
      <g transform="translate(29.665625 55.413958)scale(0.2 -0.2)">
       <use xlink:href="#DejaVuSans-48"/>
       <use x="63.623047" xlink:href="#DejaVuSans-46"/>
       <use x="95.410156" xlink:href="#DejaVuSans-50"/>
       <use x="159.033203" xlink:href="#DejaVuSans-53"/>
       <use x="222.65625" xlink:href="#DejaVuSans-41"/>
      </g>
     </g>
    </g>
    <g id="ytick_7">
     <g id="line2d_15">
      <g>
       <use style="stroke:#000000;stroke-width:1.6;" x="96.7" xlink:href="#mf46fbd0795" y="102.853125"/>
      </g>
     </g>
     <g id="text_18">
      <!-- [0.25, -->
      <g transform="translate(23.309375 99.25375)scale(0.2 -0.2)">
       <use xlink:href="#DejaVuSans-91"/>
       <use x="39.013672" xlink:href="#DejaVuSans-48"/>
       <use x="102.636719" xlink:href="#DejaVuSans-46"/>
       <use x="134.423828" xlink:href="#DejaVuSans-50"/>
       <use x="198.046875" xlink:href="#DejaVuSans-53"/>
       <use x="261.669922" xlink:href="#DejaVuSans-44"/>
      </g>
      <!-- 0.50) -->
      <g transform="translate(29.665625 121.649375)scale(0.2 -0.2)">
       <use xlink:href="#DejaVuSans-48"/>
       <use x="63.623047" xlink:href="#DejaVuSans-46"/>
       <use x="95.410156" xlink:href="#DejaVuSans-53"/>
       <use x="159.033203" xlink:href="#DejaVuSans-48"/>
       <use x="222.65625" xlink:href="#DejaVuSans-41"/>
      </g>
     </g>
    </g>
    <g id="ytick_8">
     <g id="line2d_16">
      <g>
       <use style="stroke:#000000;stroke-width:1.6;" x="96.7" xlink:href="#mf46fbd0795" y="169.088542"/>
      </g>
     </g>
     <g id="text_19">
      <!-- [0.50, -->
      <g transform="translate(23.309375 165.489167)scale(0.2 -0.2)">
       <use xlink:href="#DejaVuSans-91"/>
       <use x="39.013672" xlink:href="#DejaVuSans-48"/>
       <use x="102.636719" xlink:href="#DejaVuSans-46"/>
       <use x="134.423828" xlink:href="#DejaVuSans-53"/>
       <use x="198.046875" xlink:href="#DejaVuSans-48"/>
       <use x="261.669922" xlink:href="#DejaVuSans-44"/>
      </g>
      <!-- 0.75) -->
      <defs>
       <path d="M 8.203125 72.90625 
L 55.078125 72.90625 
L 55.078125 68.703125 
L 28.609375 0 
L 18.3125 0 
L 43.21875 64.59375 
L 8.203125 64.59375 
z
" id="DejaVuSans-55"/>
      </defs>
      <g transform="translate(29.665625 187.884792)scale(0.2 -0.2)">
       <use xlink:href="#DejaVuSans-48"/>
       <use x="63.623047" xlink:href="#DejaVuSans-46"/>
       <use x="95.410156" xlink:href="#DejaVuSans-55"/>
       <use x="159.033203" xlink:href="#DejaVuSans-53"/>
       <use x="222.65625" xlink:href="#DejaVuSans-41"/>
      </g>
     </g>
    </g>
    <g id="ytick_9">
     <g id="line2d_17">
      <g>
       <use style="stroke:#000000;stroke-width:1.6;" x="96.7" xlink:href="#mf46fbd0795" y="235.323958"/>
      </g>
     </g>
     <g id="text_20">
      <!-- [0.75, -->
      <g transform="translate(23.309375 231.724583)scale(0.2 -0.2)">
       <use xlink:href="#DejaVuSans-91"/>
       <use x="39.013672" xlink:href="#DejaVuSans-48"/>
       <use x="102.636719" xlink:href="#DejaVuSans-46"/>
       <use x="134.423828" xlink:href="#DejaVuSans-55"/>
       <use x="198.046875" xlink:href="#DejaVuSans-53"/>
       <use x="261.669922" xlink:href="#DejaVuSans-44"/>
      </g>
      <!-- 1.00) -->
      <g transform="translate(29.665625 254.120208)scale(0.2 -0.2)">
       <use xlink:href="#DejaVuSans-49"/>
       <use x="63.623047" xlink:href="#DejaVuSans-46"/>
       <use x="95.410156" xlink:href="#DejaVuSans-48"/>
       <use x="159.033203" xlink:href="#DejaVuSans-48"/>
       <use x="222.65625" xlink:href="#DejaVuSans-41"/>
      </g>
     </g>
    </g>
    <g id="text_21">
     <!-- Max Attention -->
     <defs>
      <path d="M 34.1875 63.1875 
L 20.796875 26.90625 
L 47.609375 26.90625 
z
M 28.609375 72.90625 
L 39.796875 72.90625 
L 67.578125 0 
L 57.328125 0 
L 50.6875 18.703125 
L 17.828125 18.703125 
L 11.1875 0 
L 0.78125 0 
z
" id="DejaVuSans-65"/>
      <path d="M 30.609375 48.390625 
Q 23.390625 48.390625 19.1875 42.75 
Q 14.984375 37.109375 14.984375 27.296875 
Q 14.984375 17.484375 19.15625 11.84375 
Q 23.34375 6.203125 30.609375 6.203125 
Q 37.796875 6.203125 41.984375 11.859375 
Q 46.1875 17.53125 46.1875 27.296875 
Q 46.1875 37.015625 41.984375 42.703125 
Q 37.796875 48.390625 30.609375 48.390625 
z
M 30.609375 56 
Q 42.328125 56 49.015625 48.375 
Q 55.71875 40.765625 55.71875 27.296875 
Q 55.71875 13.875 49.015625 6.21875 
Q 42.328125 -1.421875 30.609375 -1.421875 
Q 18.84375 -1.421875 12.171875 6.21875 
Q 5.515625 13.875 5.515625 27.296875 
Q 5.515625 40.765625 12.171875 48.375 
Q 18.84375 56 30.609375 56 
z
" id="DejaVuSans-111"/>
     </defs>
     <g transform="translate(15.15 206.148958)rotate(-90)scale(0.2 -0.2)">
      <use xlink:href="#DejaVuSans-77"/>
      <use x="86.279297" xlink:href="#DejaVuSans-97"/>
      <use x="147.558594" xlink:href="#DejaVuSans-120"/>
      <use x="206.738281" xlink:href="#DejaVuSans-32"/>
      <use x="238.525391" xlink:href="#DejaVuSans-65"/>
      <use x="306.917969" xlink:href="#DejaVuSans-116"/>
      <use x="346.126953" xlink:href="#DejaVuSans-116"/>
      <use x="385.335938" xlink:href="#DejaVuSans-101"/>
      <use x="446.859375" xlink:href="#DejaVuSans-110"/>
      <use x="510.238281" xlink:href="#DejaVuSans-116"/>
      <use x="549.447266" xlink:href="#DejaVuSans-105"/>
      <use x="577.230469" xlink:href="#DejaVuSans-111"/>
      <use x="638.412109" xlink:href="#DejaVuSans-110"/>
     </g>
    </g>
   </g>
   <g id="line2d_18">
    <path clip-path="url(#pf987b5b93e)" d="M 296.832483 18.166515 
L 296.832483 28.574735 
" style="fill:none;stroke:#424242;stroke-dasharray:1.5,1.5;stroke-dashoffset:0;"/>
   </g>
   <g id="line2d_19">
    <path clip-path="url(#pf987b5b93e)" d="M 319.492524 15.376144 
L 319.492524 31.365106 
" style="fill:none;stroke:#424242;stroke-dasharray:3,3;stroke-dashoffset:0;"/>
   </g>
   <g id="line2d_20">
    <path clip-path="url(#pf987b5b93e)" d="M 335.017002 12.125514 
L 335.017002 34.615736 
" style="fill:none;stroke:#424242;stroke-dasharray:1.5,1.5;stroke-dashoffset:0;"/>
   </g>
   <g id="line2d_21">
    <path clip-path="url(#pf987b5b93e)" d="M 292.509859 44.816268 
L 292.509859 54.913316 
" style="fill:none;stroke:#424242;stroke-dasharray:1.5,1.5;stroke-dashoffset:0;"/>
   </g>
   <g id="line2d_22">
    <path clip-path="url(#pf987b5b93e)" d="M 324.569825 42.995273 
L 324.569825 56.73431 
" style="fill:none;stroke:#424242;stroke-dasharray:3,3;stroke-dashoffset:0;"/>
   </g>
   <g id="line2d_23">
    <path clip-path="url(#pf987b5b93e)" d="M 338.488077 36.750179 
L 338.488077 62.979404 
" style="fill:none;stroke:#424242;stroke-dasharray:1.5,1.5;stroke-dashoffset:0;"/>
   </g>
   <g id="line2d_24">
    <path clip-path="url(#pf987b5b93e)" d="M 285.686558 82.288246 
L 285.686558 96.923837 
" style="fill:none;stroke:#424242;stroke-dasharray:1.5,1.5;stroke-dashoffset:0;"/>
   </g>
   <g id="line2d_25">
    <path clip-path="url(#pf987b5b93e)" d="M 311.858116 78.943684 
L 311.858116 100.2684 
" style="fill:none;stroke:#424242;stroke-dasharray:3,3;stroke-dashoffset:0;"/>
   </g>
   <g id="line2d_26">
    <path clip-path="url(#pf987b5b93e)" d="M 326.432399 76.600435 
L 326.432399 102.611648 
" style="fill:none;stroke:#424242;stroke-dasharray:1.5,1.5;stroke-dashoffset:0;"/>
   </g>
   <g id="line2d_27">
    <path clip-path="url(#pf987b5b93e)" d="M 273.225701 107.716593 
L 273.225701 124.483824 
" style="fill:none;stroke:#424242;stroke-dasharray:1.5,1.5;stroke-dashoffset:0;"/>
   </g>
   <g id="line2d_28">
    <path clip-path="url(#pf987b5b93e)" d="M 287.939083 107.769981 
L 287.939083 124.430436 
" style="fill:none;stroke:#424242;stroke-dasharray:3,3;stroke-dashoffset:0;"/>
   </g>
   <g id="line2d_29">
    <path clip-path="url(#pf987b5b93e)" d="M 326.597592 108.862339 
L 326.597592 123.338078 
" style="fill:none;stroke:#424242;stroke-dasharray:1.5,1.5;stroke-dashoffset:0;"/>
   </g>
   <g id="patch_88">
    <path d="M 96.7 268.441667 
L 96.7 3.5 
" style="fill:none;stroke:#000000;stroke-linecap:square;stroke-linejoin:miter;stroke-width:0.8;"/>
   </g>
   <g id="patch_89">
    <path d="M 96.7 268.441667 
L 361.641667 268.441667 
" style="fill:none;stroke:#000000;stroke-linecap:square;stroke-linejoin:miter;stroke-width:0.8;"/>
   </g>
  </g>
 </g>
 <defs>
  <clipPath id="padce25c456">
   <rect height="264.941667" width="264.941667" x="-272.041667" y="3.5"/>
  </clipPath>
  <clipPath id="pf987b5b93e">
   <rect height="264.941667" width="264.941667" x="96.7" y="3.5"/>
  </clipPath>
 </defs>
</svg>
