<?xml version="1.0" encoding="utf-8" standalone="no"?>
<!DOCTYPE svg PUBLIC "-//W3C//DTD SVG 1.1//EN"
  "http://www.w3.org/Graphics/SVG/1.1/DTD/svg11.dtd">
<!-- Created with matplotlib (https://matplotlib.org/) -->
<svg height="329.141667pt" version="1.1" viewBox="0 0 365.391536 329.141667" width="365.391536pt" xmlns="http://www.w3.org/2000/svg" xmlns:xlink="http://www.w3.org/1999/xlink">
 <defs>
  <style type="text/css">
*{stroke-linecap:butt;stroke-linejoin:round;}
  </style>
 </defs>
 <g id="figure_1">
  <g id="patch_1">
   <path d="M 0 329.141667 
L 365.391536 329.141667 
L 365.391536 0 
L 0 0 
z
" style="fill:#ffffff;"/>
  </g>
  <g id="axes_1">
   <g id="patch_2">
    <path d="M -272.041667 268.441667 
L -7.1 268.441667 
L -7.1 3.5 
L -272.041667 3.5 
z
" style="fill:#ffffff;"/>
   </g>
   <g id="patch_3">
    <path clip-path="url(#p4c2117d477)" d="M -259.998864 268.441667 
L -253.977462 268.441667 
L -253.977462 268.441667 
L -259.998864 268.441667 
z
" style="fill:#7570b3;opacity:0.6;stroke:#000000;stroke-linejoin:miter;stroke-width:0.5;"/>
   </g>
   <g id="patch_4">
    <path clip-path="url(#p4c2117d477)" d="M -253.977462 268.441667 
L -247.956061 268.441667 
L -247.956061 268.441667 
L -253.977462 268.441667 
z
" style="fill:#7570b3;opacity:0.6;stroke:#000000;stroke-linejoin:miter;stroke-width:0.5;"/>
   </g>
   <g id="patch_5">
    <path clip-path="url(#p4c2117d477)" d="M -247.956061 268.441667 
L -241.934659 268.441667 
L -241.934659 268.441667 
L -247.956061 268.441667 
z
" style="fill:#7570b3;opacity:0.6;stroke:#000000;stroke-linejoin:miter;stroke-width:0.5;"/>
   </g>
   <g id="patch_6">
    <path clip-path="url(#p4c2117d477)" d="M -241.934659 268.441667 
L -235.913258 268.441667 
L -235.913258 268.441667 
L -241.934659 268.441667 
z
" style="fill:#7570b3;opacity:0.6;stroke:#000000;stroke-linejoin:miter;stroke-width:0.5;"/>
   </g>
   <g id="patch_7">
    <path clip-path="url(#p4c2117d477)" d="M -235.913258 268.441667 
L -229.891856 268.441667 
L -229.891856 268.441667 
L -235.913258 268.441667 
z
" style="fill:#7570b3;opacity:0.6;stroke:#000000;stroke-linejoin:miter;stroke-width:0.5;"/>
   </g>
   <g id="patch_8">
    <path clip-path="url(#p4c2117d477)" d="M -229.891856 268.441667 
L -223.870455 268.441667 
L -223.870455 268.441667 
L -229.891856 268.441667 
z
" style="fill:#7570b3;opacity:0.6;stroke:#000000;stroke-linejoin:miter;stroke-width:0.5;"/>
   </g>
   <g id="patch_9">
    <path clip-path="url(#p4c2117d477)" d="M -223.870455 268.441667 
L -217.849053 268.441667 
L -217.849053 268.441667 
L -223.870455 268.441667 
z
" style="fill:#7570b3;opacity:0.6;stroke:#000000;stroke-linejoin:miter;stroke-width:0.5;"/>
   </g>
   <g id="patch_10">
    <path clip-path="url(#p4c2117d477)" d="M -217.849053 268.441667 
L -211.827652 268.441667 
L -211.827652 268.441667 
L -217.849053 268.441667 
z
" style="fill:#7570b3;opacity:0.6;stroke:#000000;stroke-linejoin:miter;stroke-width:0.5;"/>
   </g>
   <g id="patch_11">
    <path clip-path="url(#p4c2117d477)" d="M -211.827652 268.441667 
L -205.80625 268.441667 
L -205.80625 268.441667 
L -211.827652 268.441667 
z
" style="fill:#7570b3;opacity:0.6;stroke:#000000;stroke-linejoin:miter;stroke-width:0.5;"/>
   </g>
   <g id="patch_12">
    <path clip-path="url(#p4c2117d477)" d="M -205.80625 268.441667 
L -199.784848 268.441667 
L -199.784848 268.441667 
L -205.80625 268.441667 
z
" style="fill:#7570b3;opacity:0.6;stroke:#000000;stroke-linejoin:miter;stroke-width:0.5;"/>
   </g>
   <g id="patch_13">
    <path clip-path="url(#p4c2117d477)" d="M -199.784848 268.441667 
L -193.763447 268.441667 
L -193.763447 268.441667 
L -199.784848 268.441667 
z
" style="fill:#7570b3;opacity:0.6;stroke:#000000;stroke-linejoin:miter;stroke-width:0.5;"/>
   </g>
   <g id="patch_14">
    <path clip-path="url(#p4c2117d477)" d="M -193.763447 268.441667 
L -187.742045 268.441667 
L -187.742045 268.441667 
L -193.763447 268.441667 
z
" style="fill:#7570b3;opacity:0.6;stroke:#000000;stroke-linejoin:miter;stroke-width:0.5;"/>
   </g>
   <g id="patch_15">
    <path clip-path="url(#p4c2117d477)" d="M -187.742045 268.441667 
L -181.720644 268.441667 
L -181.720644 268.441667 
L -187.742045 268.441667 
z
" style="fill:#7570b3;opacity:0.6;stroke:#000000;stroke-linejoin:miter;stroke-width:0.5;"/>
   </g>
   <g id="patch_16">
    <path clip-path="url(#p4c2117d477)" d="M -181.720644 268.441667 
L -175.699242 268.441667 
L -175.699242 268.441667 
L -181.720644 268.441667 
z
" style="fill:#7570b3;opacity:0.6;stroke:#000000;stroke-linejoin:miter;stroke-width:0.5;"/>
   </g>
   <g id="patch_17">
    <path clip-path="url(#p4c2117d477)" d="M -175.699242 268.441667 
L -169.677841 268.441667 
L -169.677841 268.441667 
L -175.699242 268.441667 
z
" style="fill:#7570b3;opacity:0.6;stroke:#000000;stroke-linejoin:miter;stroke-width:0.5;"/>
   </g>
   <g id="patch_18">
    <path clip-path="url(#p4c2117d477)" d="M -169.677841 268.441667 
L -163.656439 268.441667 
L -163.656439 268.441667 
L -169.677841 268.441667 
z
" style="fill:#7570b3;opacity:0.6;stroke:#000000;stroke-linejoin:miter;stroke-width:0.5;"/>
   </g>
   <g id="patch_19">
    <path clip-path="url(#p4c2117d477)" d="M -163.656439 268.441667 
L -157.635038 268.441667 
L -157.635038 268.441667 
L -163.656439 268.441667 
z
" style="fill:#7570b3;opacity:0.6;stroke:#000000;stroke-linejoin:miter;stroke-width:0.5;"/>
   </g>
   <g id="patch_20">
    <path clip-path="url(#p4c2117d477)" d="M -157.635038 268.441667 
L -151.613636 268.441667 
L -151.613636 268.441667 
L -157.635038 268.441667 
z
" style="fill:#7570b3;opacity:0.6;stroke:#000000;stroke-linejoin:miter;stroke-width:0.5;"/>
   </g>
   <g id="patch_21">
    <path clip-path="url(#p4c2117d477)" d="M -151.613636 268.441667 
L -145.592235 268.441667 
L -145.592235 268.441667 
L -151.613636 268.441667 
z
" style="fill:#7570b3;opacity:0.6;stroke:#000000;stroke-linejoin:miter;stroke-width:0.5;"/>
   </g>
   <g id="patch_22">
    <path clip-path="url(#p4c2117d477)" d="M -145.592235 268.441667 
L -139.570833 268.441667 
L -139.570833 268.441667 
L -145.592235 268.441667 
z
" style="fill:#7570b3;opacity:0.6;stroke:#000000;stroke-linejoin:miter;stroke-width:0.5;"/>
   </g>
   <g id="patch_23">
    <path clip-path="url(#p4c2117d477)" d="M -139.570833 268.441667 
L -133.549432 268.441667 
L -133.549432 268.441667 
L -139.570833 268.441667 
z
" style="fill:#7570b3;opacity:0.6;stroke:#000000;stroke-linejoin:miter;stroke-width:0.5;"/>
   </g>
   <g id="patch_24">
    <path clip-path="url(#p4c2117d477)" d="M -133.549432 268.441667 
L -127.52803 268.441667 
L -127.52803 268.441667 
L -133.549432 268.441667 
z
" style="fill:#7570b3;opacity:0.6;stroke:#000000;stroke-linejoin:miter;stroke-width:0.5;"/>
   </g>
   <g id="patch_25">
    <path clip-path="url(#p4c2117d477)" d="M -127.52803 268.441667 
L -121.506629 268.441667 
L -121.506629 268.441667 
L -127.52803 268.441667 
z
" style="fill:#7570b3;opacity:0.6;stroke:#000000;stroke-linejoin:miter;stroke-width:0.5;"/>
   </g>
   <g id="patch_26">
    <path clip-path="url(#p4c2117d477)" d="M -121.506629 268.441667 
L -115.485227 268.441667 
L -115.485227 268.441667 
L -121.506629 268.441667 
z
" style="fill:#7570b3;opacity:0.6;stroke:#000000;stroke-linejoin:miter;stroke-width:0.5;"/>
   </g>
   <g id="patch_27">
    <path clip-path="url(#p4c2117d477)" d="M -115.485227 268.441667 
L -109.463826 268.441667 
L -109.463826 268.441667 
L -115.485227 268.441667 
z
" style="fill:#7570b3;opacity:0.6;stroke:#000000;stroke-linejoin:miter;stroke-width:0.5;"/>
   </g>
   <g id="patch_28">
    <path clip-path="url(#p4c2117d477)" d="M -109.463826 268.441667 
L -103.442424 268.441667 
L -103.442424 268.441667 
L -109.463826 268.441667 
z
" style="fill:#7570b3;opacity:0.6;stroke:#000000;stroke-linejoin:miter;stroke-width:0.5;"/>
   </g>
   <g id="patch_29">
    <path clip-path="url(#p4c2117d477)" d="M -103.442424 268.441667 
L -97.421023 268.441667 
L -97.421023 268.441667 
L -103.442424 268.441667 
z
" style="fill:#7570b3;opacity:0.6;stroke:#000000;stroke-linejoin:miter;stroke-width:0.5;"/>
   </g>
   <g id="patch_30">
    <path clip-path="url(#p4c2117d477)" d="M -97.421023 268.441667 
L -91.399621 268.441667 
L -91.399621 268.441667 
L -97.421023 268.441667 
z
" style="fill:#7570b3;opacity:0.6;stroke:#000000;stroke-linejoin:miter;stroke-width:0.5;"/>
   </g>
   <g id="patch_31">
    <path clip-path="url(#p4c2117d477)" d="M -91.399621 268.441667 
L -85.37822 268.441667 
L -85.37822 263.250591 
L -91.399621 263.250591 
z
" style="fill:#7570b3;opacity:0.6;stroke:#000000;stroke-linejoin:miter;stroke-width:0.5;"/>
   </g>
   <g id="patch_32">
    <path clip-path="url(#p4c2117d477)" d="M -85.37822 268.441667 
L -79.356818 268.441667 
L -79.356818 236.430035 
L -85.37822 236.430035 
z
" style="fill:#7570b3;opacity:0.6;stroke:#000000;stroke-linejoin:miter;stroke-width:0.5;"/>
   </g>
   <g id="patch_33">
    <path clip-path="url(#p4c2117d477)" d="M -79.356818 268.441667 
L -73.335417 268.441667 
L -73.335417 184.519282 
L -79.356818 184.519282 
z
" style="fill:#7570b3;opacity:0.6;stroke:#000000;stroke-linejoin:miter;stroke-width:0.5;"/>
   </g>
   <g id="patch_34">
    <path clip-path="url(#p4c2117d477)" d="M -73.335417 268.441667 
L -67.314015 268.441667 
L -67.314015 154.238009 
L -73.335417 154.238009 
z
" style="fill:#7570b3;opacity:0.6;stroke:#000000;stroke-linejoin:miter;stroke-width:0.5;"/>
   </g>
   <g id="patch_35">
    <path clip-path="url(#p4c2117d477)" d="M -67.314015 268.441667 
L -61.292614 268.441667 
L -61.292614 163.75498 
L -67.314015 163.75498 
z
" style="fill:#7570b3;opacity:0.6;stroke:#000000;stroke-linejoin:miter;stroke-width:0.5;"/>
   </g>
   <g id="patch_36">
    <path clip-path="url(#p4c2117d477)" d="M -61.292614 268.441667 
L -55.271212 268.441667 
L -55.271212 199.227329 
L -61.292614 199.227329 
z
" style="fill:#7570b3;opacity:0.6;stroke:#000000;stroke-linejoin:miter;stroke-width:0.5;"/>
   </g>
   <g id="patch_37">
    <path clip-path="url(#p4c2117d477)" d="M -55.271212 268.441667 
L -49.249811 268.441667 
L -49.249811 204.418404 
L -55.271212 204.418404 
z
" style="fill:#7570b3;opacity:0.6;stroke:#000000;stroke-linejoin:miter;stroke-width:0.5;"/>
   </g>
   <g id="patch_38">
    <path clip-path="url(#p4c2117d477)" d="M -49.249811 268.441667 
L -43.228409 268.441667 
L -43.228409 209.609479 
L -49.249811 209.609479 
z
" style="fill:#7570b3;opacity:0.6;stroke:#000000;stroke-linejoin:miter;stroke-width:0.5;"/>
   </g>
   <g id="patch_39">
    <path clip-path="url(#p4c2117d477)" d="M -43.228409 268.441667 
L -37.207008 268.441667 
L -37.207008 173.271952 
L -43.228409 173.271952 
z
" style="fill:#7570b3;opacity:0.6;stroke:#000000;stroke-linejoin:miter;stroke-width:0.5;"/>
   </g>
   <g id="patch_40">
    <path clip-path="url(#p4c2117d477)" d="M -37.207008 268.441667 
L -31.185606 268.441667 
L -31.185606 66.854907 
L -37.207008 66.854907 
z
" style="fill:#7570b3;opacity:0.6;stroke:#000000;stroke-linejoin:miter;stroke-width:0.5;"/>
   </g>
   <g id="patch_41">
    <path clip-path="url(#p4c2117d477)" d="M -31.185606 268.441667 
L -25.164205 268.441667 
L -25.164205 95.405821 
L -31.185606 95.405821 
z
" style="fill:#7570b3;opacity:0.6;stroke:#000000;stroke-linejoin:miter;stroke-width:0.5;"/>
   </g>
   <g id="patch_42">
    <path clip-path="url(#p4c2117d477)" d="M -25.164205 268.441667 
L -19.142803 268.441667 
L -19.142803 263.250591 
L -25.164205 263.250591 
z
" style="fill:#7570b3;opacity:0.6;stroke:#000000;stroke-linejoin:miter;stroke-width:0.5;"/>
   </g>
   <g id="patch_43">
    <path clip-path="url(#p4c2117d477)" d="M -259.998864 268.441667 
L -253.977462 268.441667 
L -253.977462 268.441667 
L -259.998864 268.441667 
z
" style="fill:#d95f02;opacity:0.6;stroke:#000000;stroke-linejoin:miter;stroke-width:0.5;"/>
   </g>
   <g id="patch_44">
    <path clip-path="url(#p4c2117d477)" d="M -253.977462 268.441667 
L -247.956061 268.441667 
L -247.956061 268.441667 
L -253.977462 268.441667 
z
" style="fill:#d95f02;opacity:0.6;stroke:#000000;stroke-linejoin:miter;stroke-width:0.5;"/>
   </g>
   <g id="patch_45">
    <path clip-path="url(#p4c2117d477)" d="M -247.956061 268.441667 
L -241.934659 268.441667 
L -241.934659 268.441667 
L -247.956061 268.441667 
z
" style="fill:#d95f02;opacity:0.6;stroke:#000000;stroke-linejoin:miter;stroke-width:0.5;"/>
   </g>
   <g id="patch_46">
    <path clip-path="url(#p4c2117d477)" d="M -241.934659 268.441667 
L -235.913258 268.441667 
L -235.913258 268.441667 
L -241.934659 268.441667 
z
" style="fill:#d95f02;opacity:0.6;stroke:#000000;stroke-linejoin:miter;stroke-width:0.5;"/>
   </g>
   <g id="patch_47">
    <path clip-path="url(#p4c2117d477)" d="M -235.913258 268.441667 
L -229.891856 268.441667 
L -229.891856 268.441667 
L -235.913258 268.441667 
z
" style="fill:#d95f02;opacity:0.6;stroke:#000000;stroke-linejoin:miter;stroke-width:0.5;"/>
   </g>
   <g id="patch_48">
    <path clip-path="url(#p4c2117d477)" d="M -229.891856 268.441667 
L -223.870455 268.441667 
L -223.870455 268.441667 
L -229.891856 268.441667 
z
" style="fill:#d95f02;opacity:0.6;stroke:#000000;stroke-linejoin:miter;stroke-width:0.5;"/>
   </g>
   <g id="patch_49">
    <path clip-path="url(#p4c2117d477)" d="M -223.870455 268.441667 
L -217.849053 268.441667 
L -217.849053 268.441667 
L -223.870455 268.441667 
z
" style="fill:#d95f02;opacity:0.6;stroke:#000000;stroke-linejoin:miter;stroke-width:0.5;"/>
   </g>
   <g id="patch_50">
    <path clip-path="url(#p4c2117d477)" d="M -217.849053 268.441667 
L -211.827652 268.441667 
L -211.827652 268.441667 
L -217.849053 268.441667 
z
" style="fill:#d95f02;opacity:0.6;stroke:#000000;stroke-linejoin:miter;stroke-width:0.5;"/>
   </g>
   <g id="patch_51">
    <path clip-path="url(#p4c2117d477)" d="M -211.827652 268.441667 
L -205.80625 268.441667 
L -205.80625 268.441667 
L -211.827652 268.441667 
z
" style="fill:#d95f02;opacity:0.6;stroke:#000000;stroke-linejoin:miter;stroke-width:0.5;"/>
   </g>
   <g id="patch_52">
    <path clip-path="url(#p4c2117d477)" d="M -205.80625 268.441667 
L -199.784848 268.441667 
L -199.784848 268.441667 
L -205.80625 268.441667 
z
" style="fill:#d95f02;opacity:0.6;stroke:#000000;stroke-linejoin:miter;stroke-width:0.5;"/>
   </g>
   <g id="patch_53">
    <path clip-path="url(#p4c2117d477)" d="M -199.784848 268.441667 
L -193.763447 268.441667 
L -193.763447 268.441667 
L -199.784848 268.441667 
z
" style="fill:#d95f02;opacity:0.6;stroke:#000000;stroke-linejoin:miter;stroke-width:0.5;"/>
   </g>
   <g id="patch_54">
    <path clip-path="url(#p4c2117d477)" d="M -193.763447 268.441667 
L -187.742045 268.441667 
L -187.742045 268.441667 
L -193.763447 268.441667 
z
" style="fill:#d95f02;opacity:0.6;stroke:#000000;stroke-linejoin:miter;stroke-width:0.5;"/>
   </g>
   <g id="patch_55">
    <path clip-path="url(#p4c2117d477)" d="M -187.742045 268.441667 
L -181.720644 268.441667 
L -181.720644 268.441667 
L -187.742045 268.441667 
z
" style="fill:#d95f02;opacity:0.6;stroke:#000000;stroke-linejoin:miter;stroke-width:0.5;"/>
   </g>
   <g id="patch_56">
    <path clip-path="url(#p4c2117d477)" d="M -181.720644 268.441667 
L -175.699242 268.441667 
L -175.699242 268.441667 
L -181.720644 268.441667 
z
" style="fill:#d95f02;opacity:0.6;stroke:#000000;stroke-linejoin:miter;stroke-width:0.5;"/>
   </g>
   <g id="patch_57">
    <path clip-path="url(#p4c2117d477)" d="M -175.699242 268.441667 
L -169.677841 268.441667 
L -169.677841 268.441667 
L -175.699242 268.441667 
z
" style="fill:#d95f02;opacity:0.6;stroke:#000000;stroke-linejoin:miter;stroke-width:0.5;"/>
   </g>
   <g id="patch_58">
    <path clip-path="url(#p4c2117d477)" d="M -169.677841 268.441667 
L -163.656439 268.441667 
L -163.656439 268.441667 
L -169.677841 268.441667 
z
" style="fill:#d95f02;opacity:0.6;stroke:#000000;stroke-linejoin:miter;stroke-width:0.5;"/>
   </g>
   <g id="patch_59">
    <path clip-path="url(#p4c2117d477)" d="M -163.656439 268.441667 
L -157.635038 268.441667 
L -157.635038 268.441667 
L -163.656439 268.441667 
z
" style="fill:#d95f02;opacity:0.6;stroke:#000000;stroke-linejoin:miter;stroke-width:0.5;"/>
   </g>
   <g id="patch_60">
    <path clip-path="url(#p4c2117d477)" d="M -157.635038 268.441667 
L -151.613636 268.441667 
L -151.613636 268.441667 
L -157.635038 268.441667 
z
" style="fill:#d95f02;opacity:0.6;stroke:#000000;stroke-linejoin:miter;stroke-width:0.5;"/>
   </g>
   <g id="patch_61">
    <path clip-path="url(#p4c2117d477)" d="M -151.613636 268.441667 
L -145.592235 268.441667 
L -145.592235 268.441667 
L -151.613636 268.441667 
z
" style="fill:#d95f02;opacity:0.6;stroke:#000000;stroke-linejoin:miter;stroke-width:0.5;"/>
   </g>
   <g id="patch_62">
    <path clip-path="url(#p4c2117d477)" d="M -145.592235 268.441667 
L -139.570833 268.441667 
L -139.570833 268.441667 
L -145.592235 268.441667 
z
" style="fill:#d95f02;opacity:0.6;stroke:#000000;stroke-linejoin:miter;stroke-width:0.5;"/>
   </g>
   <g id="patch_63">
    <path clip-path="url(#p4c2117d477)" d="M -139.570833 268.441667 
L -133.549432 268.441667 
L -133.549432 268.441667 
L -139.570833 268.441667 
z
" style="fill:#d95f02;opacity:0.6;stroke:#000000;stroke-linejoin:miter;stroke-width:0.5;"/>
   </g>
   <g id="patch_64">
    <path clip-path="url(#p4c2117d477)" d="M -133.549432 268.441667 
L -127.52803 268.441667 
L -127.52803 268.441667 
L -133.549432 268.441667 
z
" style="fill:#d95f02;opacity:0.6;stroke:#000000;stroke-linejoin:miter;stroke-width:0.5;"/>
   </g>
   <g id="patch_65">
    <path clip-path="url(#p4c2117d477)" d="M -127.52803 268.441667 
L -121.506629 268.441667 
L -121.506629 268.441667 
L -127.52803 268.441667 
z
" style="fill:#d95f02;opacity:0.6;stroke:#000000;stroke-linejoin:miter;stroke-width:0.5;"/>
   </g>
   <g id="patch_66">
    <path clip-path="url(#p4c2117d477)" d="M -121.506629 268.441667 
L -115.485227 268.441667 
L -115.485227 268.441667 
L -121.506629 268.441667 
z
" style="fill:#d95f02;opacity:0.6;stroke:#000000;stroke-linejoin:miter;stroke-width:0.5;"/>
   </g>
   <g id="patch_67">
    <path clip-path="url(#p4c2117d477)" d="M -115.485227 268.441667 
L -109.463826 268.441667 
L -109.463826 268.441667 
L -115.485227 268.441667 
z
" style="fill:#d95f02;opacity:0.6;stroke:#000000;stroke-linejoin:miter;stroke-width:0.5;"/>
   </g>
   <g id="patch_68">
    <path clip-path="url(#p4c2117d477)" d="M -109.463826 268.441667 
L -103.442424 268.441667 
L -103.442424 268.441667 
L -109.463826 268.441667 
z
" style="fill:#d95f02;opacity:0.6;stroke:#000000;stroke-linejoin:miter;stroke-width:0.5;"/>
   </g>
   <g id="patch_69">
    <path clip-path="url(#p4c2117d477)" d="M -103.442424 268.441667 
L -97.421023 268.441667 
L -97.421023 266.208699 
L -103.442424 266.208699 
z
" style="fill:#d95f02;opacity:0.6;stroke:#000000;stroke-linejoin:miter;stroke-width:0.5;"/>
   </g>
   <g id="patch_70">
    <path clip-path="url(#p4c2117d477)" d="M -97.421023 268.441667 
L -91.399621 268.441667 
L -91.399621 268.441667 
L -97.421023 268.441667 
z
" style="fill:#d95f02;opacity:0.6;stroke:#000000;stroke-linejoin:miter;stroke-width:0.5;"/>
   </g>
   <g id="patch_71">
    <path clip-path="url(#p4c2117d477)" d="M -91.399621 268.441667 
L -85.37822 268.441667 
L -85.37822 232.714177 
L -91.399621 232.714177 
z
" style="fill:#d95f02;opacity:0.6;stroke:#000000;stroke-linejoin:miter;stroke-width:0.5;"/>
   </g>
   <g id="patch_72">
    <path clip-path="url(#p4c2117d477)" d="M -85.37822 268.441667 
L -79.356818 268.441667 
L -79.356818 134.46358 
L -85.37822 134.46358 
z
" style="fill:#d95f02;opacity:0.6;stroke:#000000;stroke-linejoin:miter;stroke-width:0.5;"/>
   </g>
   <g id="patch_73">
    <path clip-path="url(#p4c2117d477)" d="M -79.356818 268.441667 
L -73.335417 268.441667 
L -73.335417 51.84376 
L -79.356818 51.84376 
z
" style="fill:#d95f02;opacity:0.6;stroke:#000000;stroke-linejoin:miter;stroke-width:0.5;"/>
   </g>
   <g id="patch_74">
    <path clip-path="url(#p4c2117d477)" d="M -73.335417 268.441667 
L -67.314015 268.441667 
L -67.314015 16.11627 
L -73.335417 16.11627 
z
" style="fill:#d95f02;opacity:0.6;stroke:#000000;stroke-linejoin:miter;stroke-width:0.5;"/>
   </g>
   <g id="patch_75">
    <path clip-path="url(#p4c2117d477)" d="M -67.314015 268.441667 
L -61.292614 268.441667 
L -61.292614 118.832803 
L -67.314015 118.832803 
z
" style="fill:#d95f02;opacity:0.6;stroke:#000000;stroke-linejoin:miter;stroke-width:0.5;"/>
   </g>
   <g id="patch_76">
    <path clip-path="url(#p4c2117d477)" d="M -61.292614 268.441667 
L -55.271212 268.441667 
L -55.271212 192.520751 
L -61.292614 192.520751 
z
" style="fill:#d95f02;opacity:0.6;stroke:#000000;stroke-linejoin:miter;stroke-width:0.5;"/>
   </g>
   <g id="patch_77">
    <path clip-path="url(#p4c2117d477)" d="M -55.271212 268.441667 
L -49.249811 268.441667 
L -49.249811 237.180113 
L -55.271212 237.180113 
z
" style="fill:#d95f02;opacity:0.6;stroke:#000000;stroke-linejoin:miter;stroke-width:0.5;"/>
   </g>
   <g id="patch_78">
    <path clip-path="url(#p4c2117d477)" d="M -49.249811 268.441667 
L -43.228409 268.441667 
L -43.228409 255.043858 
L -49.249811 255.043858 
z
" style="fill:#d95f02;opacity:0.6;stroke:#000000;stroke-linejoin:miter;stroke-width:0.5;"/>
   </g>
   <g id="patch_79">
    <path clip-path="url(#p4c2117d477)" d="M -43.228409 268.441667 
L -37.207008 268.441667 
L -37.207008 255.043858 
L -43.228409 255.043858 
z
" style="fill:#d95f02;opacity:0.6;stroke:#000000;stroke-linejoin:miter;stroke-width:0.5;"/>
   </g>
   <g id="patch_80">
    <path clip-path="url(#p4c2117d477)" d="M -37.207008 268.441667 
L -31.185606 268.441667 
L -31.185606 237.180113 
L -37.207008 237.180113 
z
" style="fill:#d95f02;opacity:0.6;stroke:#000000;stroke-linejoin:miter;stroke-width:0.5;"/>
   </g>
   <g id="patch_81">
    <path clip-path="url(#p4c2117d477)" d="M -31.185606 268.441667 
L -25.164205 268.441667 
L -25.164205 221.549336 
L -31.185606 221.549336 
z
" style="fill:#d95f02;opacity:0.6;stroke:#000000;stroke-linejoin:miter;stroke-width:0.5;"/>
   </g>
   <g id="patch_82">
    <path clip-path="url(#p4c2117d477)" d="M -25.164205 268.441667 
L -19.142803 268.441667 
L -19.142803 263.97573 
L -25.164205 263.97573 
z
" style="fill:#d95f02;opacity:0.6;stroke:#000000;stroke-linejoin:miter;stroke-width:0.5;"/>
   </g>
   <g id="matplotlib.axis_1">
    <g id="xtick_1">
     <g id="line2d_1">
      <defs>
       <path d="M 0 0 
L 0 3.5 
" id="mcec904bfd3" style="stroke:#000000;stroke-width:1.6;"/>
      </defs>
      <g/>
     </g>
     <g id="text_1">
      <!-- 0.0 -->
      <defs>
       <path d="M 31.78125 66.40625 
Q 24.171875 66.40625 20.328125 58.90625 
Q 16.5 51.421875 16.5 36.375 
Q 16.5 21.390625 20.328125 13.890625 
Q 24.171875 6.390625 31.78125 6.390625 
Q 39.453125 6.390625 43.28125 13.890625 
Q 47.125 21.390625 47.125 36.375 
Q 47.125 51.421875 43.28125 58.90625 
Q 39.453125 66.40625 31.78125 66.40625 
z
M 31.78125 74.21875 
Q 44.046875 74.21875 50.515625 64.515625 
Q 56.984375 54.828125 56.984375 36.375 
Q 56.984375 17.96875 50.515625 8.265625 
Q 44.046875 -1.421875 31.78125 -1.421875 
Q 19.53125 -1.421875 13.0625 8.265625 
Q 6.59375 17.96875 6.59375 36.375 
Q 6.59375 54.828125 13.0625 64.515625 
Q 19.53125 74.21875 31.78125 74.21875 
z
" id="DejaVuSans-48"/>
       <path d="M 10.6875 12.40625 
L 21 12.40625 
L 21 0 
L 10.6875 0 
z
" id="DejaVuSans-46"/>
      </defs>
      <g transform="translate(-275.901989 298.338542)scale(0.2 -0.2)">
       <use xlink:href="#DejaVuSans-48"/>
       <use x="63.623047" xlink:href="#DejaVuSans-46"/>
       <use x="95.410156" xlink:href="#DejaVuSans-48"/>
      </g>
     </g>
    </g>
    <g id="xtick_2">
     <g id="line2d_2">
      <g/>
     </g>
     <g id="text_2">
      <!-- 0.2 -->
      <defs>
       <path d="M 19.1875 8.296875 
L 53.609375 8.296875 
L 53.609375 0 
L 7.328125 0 
L 7.328125 8.296875 
Q 12.9375 14.109375 22.625 23.890625 
Q 32.328125 33.6875 34.8125 36.53125 
Q 39.546875 41.84375 41.421875 45.53125 
Q 43.3125 49.21875 43.3125 52.78125 
Q 43.3125 58.59375 39.234375 62.25 
Q 35.15625 65.921875 28.609375 65.921875 
Q 23.96875 65.921875 18.8125 64.3125 
Q 13.671875 62.703125 7.8125 59.421875 
L 7.8125 69.390625 
Q 13.765625 71.78125 18.9375 73 
Q 24.125 74.21875 28.421875 74.21875 
Q 39.75 74.21875 46.484375 68.546875 
Q 53.21875 62.890625 53.21875 53.421875 
Q 53.21875 48.921875 51.53125 44.890625 
Q 49.859375 40.875 45.40625 35.40625 
Q 44.1875 33.984375 37.640625 27.21875 
Q 31.109375 20.453125 19.1875 8.296875 
z
" id="DejaVuSans-50"/>
      </defs>
      <g transform="translate(-207.085971 298.338542)scale(0.2 -0.2)">
       <use xlink:href="#DejaVuSans-48"/>
       <use x="63.623047" xlink:href="#DejaVuSans-46"/>
       <use x="95.410156" xlink:href="#DejaVuSans-50"/>
      </g>
     </g>
    </g>
    <g id="xtick_3">
     <g id="line2d_3">
      <g/>
     </g>
     <g id="text_3">
      <!-- 0.4 -->
      <defs>
       <path d="M 37.796875 64.3125 
L 12.890625 25.390625 
L 37.796875 25.390625 
z
M 35.203125 72.90625 
L 47.609375 72.90625 
L 47.609375 25.390625 
L 58.015625 25.390625 
L 58.015625 17.1875 
L 47.609375 17.1875 
L 47.609375 0 
L 37.796875 0 
L 37.796875 17.1875 
L 4.890625 17.1875 
L 4.890625 26.703125 
z
" id="DejaVuSans-52"/>
      </defs>
      <g transform="translate(-138.269954 298.338542)scale(0.2 -0.2)">
       <use xlink:href="#DejaVuSans-48"/>
       <use x="63.623047" xlink:href="#DejaVuSans-46"/>
       <use x="95.410156" xlink:href="#DejaVuSans-52"/>
      </g>
     </g>
    </g>
    <g id="xtick_4">
     <g id="line2d_4">
      <g/>
     </g>
     <g id="text_4">
      <!-- 0.6 -->
      <defs>
       <path d="M 33.015625 40.375 
Q 26.375 40.375 22.484375 35.828125 
Q 18.609375 31.296875 18.609375 23.390625 
Q 18.609375 15.53125 22.484375 10.953125 
Q 26.375 6.390625 33.015625 6.390625 
Q 39.65625 6.390625 43.53125 10.953125 
Q 47.40625 15.53125 47.40625 23.390625 
Q 47.40625 31.296875 43.53125 35.828125 
Q 39.65625 40.375 33.015625 40.375 
z
M 52.59375 71.296875 
L 52.59375 62.3125 
Q 48.875 64.0625 45.09375 64.984375 
Q 41.3125 65.921875 37.59375 65.921875 
Q 27.828125 65.921875 22.671875 59.328125 
Q 17.53125 52.734375 16.796875 39.40625 
Q 19.671875 43.65625 24.015625 45.921875 
Q 28.375 48.1875 33.59375 48.1875 
Q 44.578125 48.1875 50.953125 41.515625 
Q 57.328125 34.859375 57.328125 23.390625 
Q 57.328125 12.15625 50.6875 5.359375 
Q 44.046875 -1.421875 33.015625 -1.421875 
Q 20.359375 -1.421875 13.671875 8.265625 
Q 6.984375 17.96875 6.984375 36.375 
Q 6.984375 53.65625 15.1875 63.9375 
Q 23.390625 74.21875 37.203125 74.21875 
Q 40.921875 74.21875 44.703125 73.484375 
Q 48.484375 72.75 52.59375 71.296875 
z
" id="DejaVuSans-54"/>
      </defs>
      <g transform="translate(-69.453937 298.338542)scale(0.2 -0.2)">
       <use xlink:href="#DejaVuSans-48"/>
       <use x="63.623047" xlink:href="#DejaVuSans-46"/>
       <use x="95.410156" xlink:href="#DejaVuSans-54"/>
      </g>
     </g>
    </g>
    <g id="text_5">
     <!--   -->
     <defs>
      <path id="DejaVuSans-32"/>
     </defs>
     <g transform="translate(-142.748958 321.694792)scale(0.2 -0.2)">
      <use xlink:href="#DejaVuSans-32"/>
     </g>
    </g>
   </g>
   <g id="matplotlib.axis_2">
    <g id="ytick_1">
     <g id="line2d_5">
      <defs>
       <path d="M 0 0 
L -3.5 0 
" id="m3412109495" style="stroke:#000000;stroke-width:1.6;"/>
      </defs>
      <g/>
     </g>
     <g id="text_6">
      <!-- 0.00 -->
      <g transform="translate(-331.272917 276.040104)scale(0.2 -0.2)">
       <use xlink:href="#DejaVuSans-48"/>
       <use x="63.623047" xlink:href="#DejaVuSans-46"/>
       <use x="95.410156" xlink:href="#DejaVuSans-48"/>
       <use x="159.033203" xlink:href="#DejaVuSans-48"/>
      </g>
     </g>
    </g>
    <g id="ytick_2">
     <g id="line2d_6">
      <g/>
     </g>
     <g id="text_7">
      <!-- 0.05 -->
      <defs>
       <path d="M 10.796875 72.90625 
L 49.515625 72.90625 
L 49.515625 64.59375 
L 19.828125 64.59375 
L 19.828125 46.734375 
Q 21.96875 47.46875 24.109375 47.828125 
Q 26.265625 48.1875 28.421875 48.1875 
Q 40.625 48.1875 47.75 41.5 
Q 54.890625 34.8125 54.890625 23.390625 
Q 54.890625 11.625 47.5625 5.09375 
Q 40.234375 -1.421875 26.90625 -1.421875 
Q 22.3125 -1.421875 17.546875 -0.640625 
Q 12.796875 0.140625 7.71875 1.703125 
L 7.71875 11.625 
Q 12.109375 9.234375 16.796875 8.0625 
Q 21.484375 6.890625 26.703125 6.890625 
Q 35.15625 6.890625 40.078125 11.328125 
Q 45.015625 15.765625 45.015625 23.390625 
Q 45.015625 31 40.078125 35.4375 
Q 35.15625 39.890625 26.703125 39.890625 
Q 22.75 39.890625 18.8125 39.015625 
Q 14.890625 38.140625 10.796875 36.28125 
z
" id="DejaVuSans-53"/>
      </defs>
      <g transform="translate(-331.272917 225.686673)scale(0.2 -0.2)">
       <use xlink:href="#DejaVuSans-48"/>
       <use x="63.623047" xlink:href="#DejaVuSans-46"/>
       <use x="95.410156" xlink:href="#DejaVuSans-48"/>
       <use x="159.033203" xlink:href="#DejaVuSans-53"/>
      </g>
     </g>
    </g>
    <g id="ytick_3">
     <g id="line2d_7">
      <g/>
     </g>
     <g id="text_8">
      <!-- 0.10 -->
      <defs>
       <path d="M 12.40625 8.296875 
L 28.515625 8.296875 
L 28.515625 63.921875 
L 10.984375 60.40625 
L 10.984375 69.390625 
L 28.421875 72.90625 
L 38.28125 72.90625 
L 38.28125 8.296875 
L 54.390625 8.296875 
L 54.390625 0 
L 12.40625 0 
z
" id="DejaVuSans-49"/>
      </defs>
      <g transform="translate(-331.272917 175.333242)scale(0.2 -0.2)">
       <use xlink:href="#DejaVuSans-48"/>
       <use x="63.623047" xlink:href="#DejaVuSans-46"/>
       <use x="95.410156" xlink:href="#DejaVuSans-49"/>
       <use x="159.033203" xlink:href="#DejaVuSans-48"/>
      </g>
     </g>
    </g>
    <g id="ytick_4">
     <g id="line2d_8">
      <g/>
     </g>
     <g id="text_9">
      <!-- 0.15 -->
      <g transform="translate(-331.272917 124.979811)scale(0.2 -0.2)">
       <use xlink:href="#DejaVuSans-48"/>
       <use x="63.623047" xlink:href="#DejaVuSans-46"/>
       <use x="95.410156" xlink:href="#DejaVuSans-49"/>
       <use x="159.033203" xlink:href="#DejaVuSans-53"/>
      </g>
     </g>
    </g>
    <g id="ytick_5">
     <g id="line2d_9">
      <g/>
     </g>
     <g id="text_10">
      <!-- 0.20 -->
      <g transform="translate(-331.272917 74.62638)scale(0.2 -0.2)">
       <use xlink:href="#DejaVuSans-48"/>
       <use x="63.623047" xlink:href="#DejaVuSans-46"/>
       <use x="95.410156" xlink:href="#DejaVuSans-50"/>
       <use x="159.033203" xlink:href="#DejaVuSans-48"/>
      </g>
     </g>
    </g>
    <g id="ytick_6">
     <g id="line2d_10">
      <g/>
     </g>
     <g id="text_11">
      <!-- 0.25 -->
      <g transform="translate(-331.272917 24.272949)scale(0.2 -0.2)">
       <use xlink:href="#DejaVuSans-48"/>
       <use x="63.623047" xlink:href="#DejaVuSans-46"/>
       <use x="95.410156" xlink:href="#DejaVuSans-50"/>
       <use x="159.033203" xlink:href="#DejaVuSans-53"/>
      </g>
     </g>
    </g>
    <g id="text_12">
     <!--   -->
     <g transform="translate(-338.933167 138.767583)rotate(-90)scale(0.176 -0.176)">
      <use xlink:href="#DejaVuSans-32"/>
     </g>
    </g>
   </g>
   <g id="patch_83">
    <path style="fill:none;stroke:#000000;stroke-linecap:square;stroke-linejoin:miter;stroke-width:0.8;"/>
   </g>
   <g id="patch_84">
    <path style="fill:none;stroke:#000000;stroke-linecap:square;stroke-linejoin:miter;stroke-width:0.8;"/>
   </g>
  </g>
  <g id="axes_2">
   <g id="patch_85">
    <path d="M 96.7 268.441667 
L 361.641667 268.441667 
L 361.641667 3.5 
L 96.7 3.5 
z
" style="fill:#ffffff;"/>
   </g>
   <g id="PolyCollection_1">
    <defs>
     <path d="M 289.163724 -305.374349 
L 289.163724 -306.167734 
L 289.845534 -306.255206 
L 290.527343 -306.355429 
L 291.209153 -306.469031 
L 291.890963 -306.596532 
L 292.572773 -306.738349 
L 293.254582 -306.894793 
L 293.936392 -307.06606 
L 294.618202 -307.252207 
L 295.300012 -307.45311 
L 295.981821 -307.66842 
L 296.663631 -307.897509 
L 297.345441 -308.139409 
L 298.027251 -308.392781 
L 298.70906 -308.655884 
L 299.39087 -308.926577 
L 300.07268 -309.202352 
L 300.75449 -309.480384 
L 301.4363 -309.757608 
L 302.118109 -310.030811 
L 302.799919 -310.296727 
L 303.481729 -310.552134 
L 304.163539 -310.793937 
L 304.845348 -311.019246 
L 305.527158 -311.225431 
L 306.208968 -311.410171 
L 306.890778 -311.571494 
L 307.572587 -311.707814 
L 308.254397 -311.817968 
L 308.936207 -311.901253 
L 309.618017 -311.957467 
L 310.299826 -311.986927 
L 310.981636 -311.990482 
L 311.663446 -311.969492 
L 312.345256 -311.925773 
L 313.027066 -311.861513 
L 313.708875 -311.779168 
L 314.390685 -311.681336 
L 315.072495 -311.570649 
L 315.754305 -311.449671 
L 316.436114 -311.320836 
L 317.117924 -311.186412 
L 317.799734 -311.048493 
L 318.481544 -310.909012 
L 319.163353 -310.769749 
L 319.845163 -310.632336 
L 320.526973 -310.498244 
L 321.208783 -310.36876 
L 321.890592 -310.244955 
L 322.572402 -310.127656 
L 323.254212 -310.017453 
L 323.936022 -309.914726 
L 324.617832 -309.819712 
L 325.299641 -309.732608 
L 325.981451 -309.653684 
L 326.663261 -309.583398 
L 327.345071 -309.522483 
L 328.02688 -309.472006 
L 328.70869 -309.433359 
L 329.3905 -309.408223 
L 330.07231 -309.398479 
L 330.754119 -309.406105 
L 331.435929 -309.433078 
L 332.117739 -309.481293 
L 332.799549 -309.55253 
L 333.481358 -309.648458 
L 334.163168 -309.770681 
L 334.844978 -309.920809 
L 335.526788 -310.10052 
L 336.208598 -310.3116 
L 336.890407 -310.555921 
L 337.572217 -310.835327 
L 338.254027 -311.151437 
L 338.935837 -311.505331 
L 339.617646 -311.897158 
L 340.299456 -312.325666 
L 340.981266 -312.787715 
L 341.663076 -313.277801 
L 342.344885 -313.787678 
L 343.026695 -314.306122 
L 343.708505 -314.818924 
L 344.390315 -315.309161 
L 345.072125 -315.757784 
L 345.753934 -316.144538 
L 346.435744 -316.449162 
L 347.117554 -316.652807 
L 347.799364 -316.739521 
L 348.481173 -316.69767 
L 349.162983 -316.521104 
L 349.844793 -316.209922 
L 350.526603 -315.770734 
L 351.208412 -315.216349 
L 351.890222 -314.564933 
L 352.572032 -313.838713 
L 353.253842 -313.062383 
L 353.935651 -312.261385 
L 354.617461 -311.460254 
L 355.299271 -310.681184 
L 355.981081 -309.942925 
L 356.662891 -309.26009 
L 356.662891 -302.281993 
L 356.662891 -302.281993 
L 355.981081 -301.599158 
L 355.299271 -300.8609 
L 354.617461 -300.081829 
L 353.935651 -299.280698 
L 353.253842 -298.4797 
L 352.572032 -297.70337 
L 351.890222 -296.977151 
L 351.208412 -296.325735 
L 350.526603 -295.771349 
L 349.844793 -295.332161 
L 349.162983 -295.020979 
L 348.481173 -294.844413 
L 347.799364 -294.802563 
L 347.117554 -294.889277 
L 346.435744 -295.092921 
L 345.753934 -295.397545 
L 345.072125 -295.784299 
L 344.390315 -296.232922 
L 343.708505 -296.723159 
L 343.026695 -297.235961 
L 342.344885 -297.754405 
L 341.663076 -298.264282 
L 340.981266 -298.754368 
L 340.299456 -299.216417 
L 339.617646 -299.644925 
L 338.935837 -300.036752 
L 338.254027 -300.390646 
L 337.572217 -300.706756 
L 336.890407 -300.986162 
L 336.208598 -301.230483 
L 335.526788 -301.441564 
L 334.844978 -301.621275 
L 334.163168 -301.771402 
L 333.481358 -301.893626 
L 332.799549 -301.989553 
L 332.117739 -302.06079 
L 331.435929 -302.109005 
L 330.754119 -302.135978 
L 330.07231 -302.143604 
L 329.3905 -302.13386 
L 328.70869 -302.108725 
L 328.02688 -302.070078 
L 327.345071 -302.0196 
L 326.663261 -301.958686 
L 325.981451 -301.888399 
L 325.299641 -301.809475 
L 324.617832 -301.722372 
L 323.936022 -301.627358 
L 323.254212 -301.52463 
L 322.572402 -301.414427 
L 321.890592 -301.297129 
L 321.208783 -301.173323 
L 320.526973 -301.043839 
L 319.845163 -300.909748 
L 319.163353 -300.772334 
L 318.481544 -300.633071 
L 317.799734 -300.49359 
L 317.117924 -300.355671 
L 316.436114 -300.221247 
L 315.754305 -300.092412 
L 315.072495 -299.971434 
L 314.390685 -299.860747 
L 313.708875 -299.762915 
L 313.027066 -299.68057 
L 312.345256 -299.61631 
L 311.663446 -299.572591 
L 310.981636 -299.551601 
L 310.299826 -299.555157 
L 309.618017 -299.584617 
L 308.936207 -299.64083 
L 308.254397 -299.724116 
L 307.572587 -299.834269 
L 306.890778 -299.970589 
L 306.208968 -300.131912 
L 305.527158 -300.316652 
L 304.845348 -300.522837 
L 304.163539 -300.748146 
L 303.481729 -300.98995 
L 302.799919 -301.245356 
L 302.118109 -301.511272 
L 301.4363 -301.784475 
L 300.75449 -302.0617 
L 300.07268 -302.339731 
L 299.39087 -302.615506 
L 298.70906 -302.8862 
L 298.027251 -303.149302 
L 297.345441 -303.402674 
L 296.663631 -303.644575 
L 295.981821 -303.873663 
L 295.300012 -304.088974 
L 294.618202 -304.289877 
L 293.936392 -304.476023 
L 293.254582 -304.64729 
L 292.572773 -304.803735 
L 291.890963 -304.945551 
L 291.209153 -305.073052 
L 290.527343 -305.186654 
L 289.845534 -305.286878 
L 289.163724 -305.374349 
z
" id="ma598711313" style="stroke:#424242;"/>
    </defs>
    <g clip-path="url(#p6ddf891df6)">
     <use style="fill:#7c78ab;stroke:#424242;" x="0" xlink:href="#ma598711313" y="329.141667"/>
    </g>
   </g>
   <g id="PolyCollection_2">
    <defs>
     <path d="M 279.913457 -279.151368 
L 279.913457 -279.402382 
L 280.704938 -279.42971 
L 281.496418 -279.46698 
L 282.287899 -279.518259 
L 283.079379 -279.588314 
L 283.870859 -279.682433 
L 284.66234 -279.806169 
L 285.45382 -279.965071 
L 286.2453 -280.164406 
L 287.036781 -280.408884 
L 287.828261 -280.702427 
L 288.619741 -281.047933 
L 289.411222 -281.447067 
L 290.202702 -281.900041 
L 290.994182 -282.40541 
L 291.785663 -282.95988 
L 292.577143 -283.558184 
L 293.368623 -284.193063 
L 294.160104 -284.855392 
L 294.951584 -285.534508 
L 295.743064 -286.218727 
L 296.534545 -286.896058 
L 297.326025 -287.555023 
L 298.117505 -288.185517 
L 298.908986 -288.779567 
L 299.700466 -289.331851 
L 300.491946 -289.839876 
L 301.283427 -290.303709 
L 302.074907 -290.725264 
L 302.866387 -291.107211 
L 303.657868 -291.451654 
L 304.449348 -291.758811 
L 305.240828 -292.025949 
L 306.032309 -292.246817 
L 306.823789 -292.411759 
L 307.615269 -292.508561 
L 308.40675 -292.523958 
L 309.19823 -292.445593 
L 309.98971 -292.264081 
L 310.781191 -291.974844 
L 311.572671 -291.579354 
L 312.364151 -291.085556 
L 313.155632 -290.507393 
L 313.947112 -289.863502 
L 314.738592 -289.175328 
L 315.530073 -288.464971 
L 316.321553 -287.753129 
L 317.113033 -287.057438 
L 317.904514 -286.3914 
L 318.695994 -285.763991 
L 319.487474 -285.179876 
L 320.278955 -284.6401 
L 321.070435 -284.143043 
L 321.861915 -283.685475 
L 322.653396 -283.263517 
L 323.444876 -282.873431 
L 324.236356 -282.512162 
L 325.027837 -282.177632 
L 325.819317 -281.868796 
L 326.610797 -281.585507 
L 327.402278 -281.328236 
L 328.193758 -281.097717 
L 328.985239 -280.894575 
L 329.776719 -280.719025 
L 330.568199 -280.570661 
L 331.35968 -280.44839 
L 332.15116 -280.350508 
L 332.94264 -280.274877 
L 333.734121 -280.219181 
L 334.525601 -280.181205 
L 335.317081 -280.159064 
L 336.108562 -280.151381 
L 336.900042 -280.157346 
L 337.691522 -280.176682 
L 338.483003 -280.209502 
L 339.274483 -280.256099 
L 340.065963 -280.316692 
L 340.857444 -280.391172 
L 341.648924 -280.478891 
L 342.440404 -280.578501 
L 343.231885 -280.687871 
L 344.023365 -280.804054 
L 344.814845 -280.923311 
L 345.606326 -281.041162 
L 346.397806 -281.152488 
L 347.189286 -281.251685 
L 347.980767 -281.332913 
L 348.772247 -281.390453 
L 349.563727 -281.419175 
L 350.355208 -281.415076 
L 351.146688 -281.37581 
L 351.938168 -281.30111 
L 352.729649 -281.193008 
L 353.521129 -281.055777 
L 354.312609 -280.895588 
L 355.10409 -280.719911 
L 355.89557 -280.536782 
L 356.68705 -280.354023 
L 357.478531 -280.178566 
L 358.270011 -280.015954 
L 358.270011 -278.537796 
L 358.270011 -278.537796 
L 357.478531 -278.375184 
L 356.68705 -278.199727 
L 355.89557 -278.016968 
L 355.10409 -277.833839 
L 354.312609 -277.658162 
L 353.521129 -277.497973 
L 352.729649 -277.360742 
L 351.938168 -277.25264 
L 351.146688 -277.17794 
L 350.355208 -277.138674 
L 349.563727 -277.134575 
L 348.772247 -277.163297 
L 347.980767 -277.220837 
L 347.189286 -277.302065 
L 346.397806 -277.401262 
L 345.606326 -277.512588 
L 344.814845 -277.630439 
L 344.023365 -277.749696 
L 343.231885 -277.865879 
L 342.440404 -277.975249 
L 341.648924 -278.074859 
L 340.857444 -278.162578 
L 340.065963 -278.237058 
L 339.274483 -278.297651 
L 338.483003 -278.344248 
L 337.691522 -278.377068 
L 336.900042 -278.396404 
L 336.108562 -278.402369 
L 335.317081 -278.394686 
L 334.525601 -278.372545 
L 333.734121 -278.334569 
L 332.94264 -278.278873 
L 332.15116 -278.203242 
L 331.35968 -278.10536 
L 330.568199 -277.983089 
L 329.776719 -277.834725 
L 328.985239 -277.659175 
L 328.193758 -277.456033 
L 327.402278 -277.225514 
L 326.610797 -276.968243 
L 325.819317 -276.684954 
L 325.027837 -276.376118 
L 324.236356 -276.041588 
L 323.444876 -275.680319 
L 322.653396 -275.290233 
L 321.861915 -274.868275 
L 321.070435 -274.410707 
L 320.278955 -273.91365 
L 319.487474 -273.373874 
L 318.695994 -272.789759 
L 317.904514 -272.16235 
L 317.113033 -271.496312 
L 316.321553 -270.800621 
L 315.530073 -270.088779 
L 314.738592 -269.378422 
L 313.947112 -268.690248 
L 313.155632 -268.046357 
L 312.364151 -267.468194 
L 311.572671 -266.974396 
L 310.781191 -266.578906 
L 309.98971 -266.289669 
L 309.19823 -266.108157 
L 308.40675 -266.029792 
L 307.615269 -266.045189 
L 306.823789 -266.141991 
L 306.032309 -266.306933 
L 305.240828 -266.527801 
L 304.449348 -266.794939 
L 303.657868 -267.102096 
L 302.866387 -267.446539 
L 302.074907 -267.828486 
L 301.283427 -268.250041 
L 300.491946 -268.713874 
L 299.700466 -269.221899 
L 298.908986 -269.774183 
L 298.117505 -270.368233 
L 297.326025 -270.998727 
L 296.534545 -271.657692 
L 295.743064 -272.335023 
L 294.951584 -273.019242 
L 294.160104 -273.698358 
L 293.368623 -274.360687 
L 292.577143 -274.995566 
L 291.785663 -275.59387 
L 290.994182 -276.14834 
L 290.202702 -276.653709 
L 289.411222 -277.106683 
L 288.619741 -277.505817 
L 287.828261 -277.851323 
L 287.036781 -278.144866 
L 286.2453 -278.389344 
L 285.45382 -278.588679 
L 284.66234 -278.747581 
L 283.870859 -278.871317 
L 283.079379 -278.965436 
L 282.287899 -279.035491 
L 281.496418 -279.08677 
L 280.704938 -279.12404 
L 279.913457 -279.151368 
z
" id="m018689d02c" style="stroke:#424242;"/>
    </defs>
    <g clip-path="url(#p6ddf891df6)">
     <use style="fill:#be631d;stroke:#424242;" x="0" xlink:href="#m018689d02c" y="329.141667"/>
    </g>
   </g>
   <g id="patch_86">
    <path clip-path="url(#p6ddf891df6)" d="M 114.362778 36.617708 
L 114.362778 36.617708 
L 114.362778 36.617708 
L 114.362778 36.617708 
z
" style="fill:#7c78ab;stroke:#424242;stroke-linejoin:miter;stroke-width:0.5;"/>
   </g>
   <g id="patch_87">
    <path clip-path="url(#p6ddf891df6)" d="M 114.362778 36.617708 
L 114.362778 36.617708 
L 114.362778 36.617708 
L 114.362778 36.617708 
z
" style="fill:#be631d;stroke:#424242;stroke-linejoin:miter;stroke-width:0.5;"/>
   </g>
   <g id="matplotlib.axis_3">
    <g id="xtick_5">
     <g id="line2d_11">
      <g>
       <use style="stroke:#000000;stroke-width:1.6;" x="114.362778" xlink:href="#mcec904bfd3" y="268.441667"/>
      </g>
     </g>
     <g id="text_13">
      <!-- 0.0 -->
      <g transform="translate(98.459653 298.338542)scale(0.2 -0.2)">
       <use xlink:href="#DejaVuSans-48"/>
       <use x="63.623047" xlink:href="#DejaVuSans-46"/>
       <use x="95.410156" xlink:href="#DejaVuSans-48"/>
      </g>
     </g>
    </g>
    <g id="xtick_6">
     <g id="line2d_12">
      <g>
       <use style="stroke:#000000;stroke-width:1.6;" x="185.013889" xlink:href="#mcec904bfd3" y="268.441667"/>
      </g>
     </g>
     <g id="text_14">
      <!-- 0.2 -->
      <g transform="translate(169.110764 298.338542)scale(0.2 -0.2)">
       <use xlink:href="#DejaVuSans-48"/>
       <use x="63.623047" xlink:href="#DejaVuSans-46"/>
       <use x="95.410156" xlink:href="#DejaVuSans-50"/>
      </g>
     </g>
    </g>
    <g id="xtick_7">
     <g id="line2d_13">
      <g>
       <use style="stroke:#000000;stroke-width:1.6;" x="255.665" xlink:href="#mcec904bfd3" y="268.441667"/>
      </g>
     </g>
     <g id="text_15">
      <!-- 0.4 -->
      <g transform="translate(239.761875 298.338542)scale(0.2 -0.2)">
       <use xlink:href="#DejaVuSans-48"/>
       <use x="63.623047" xlink:href="#DejaVuSans-46"/>
       <use x="95.410156" xlink:href="#DejaVuSans-52"/>
      </g>
     </g>
    </g>
    <g id="xtick_8">
     <g id="line2d_14">
      <g>
       <use style="stroke:#000000;stroke-width:1.6;" x="326.316111" xlink:href="#mcec904bfd3" y="268.441667"/>
      </g>
     </g>
     <g id="text_16">
      <!-- 0.6 -->
      <g transform="translate(310.412986 298.338542)scale(0.2 -0.2)">
       <use xlink:href="#DejaVuSans-48"/>
       <use x="63.623047" xlink:href="#DejaVuSans-46"/>
       <use x="95.410156" xlink:href="#DejaVuSans-54"/>
      </g>
     </g>
    </g>
    <g id="text_17">
     <!-- Max JS Divergence within $\epsilon$ -->
     <defs>
      <path d="M 9.8125 72.90625 
L 24.515625 72.90625 
L 43.109375 23.296875 
L 61.8125 72.90625 
L 76.515625 72.90625 
L 76.515625 0 
L 66.890625 0 
L 66.890625 64.015625 
L 48.09375 14.015625 
L 38.1875 14.015625 
L 19.390625 64.015625 
L 19.390625 0 
L 9.8125 0 
z
" id="DejaVuSans-77"/>
      <path d="M 34.28125 27.484375 
Q 23.390625 27.484375 19.1875 25 
Q 14.984375 22.515625 14.984375 16.5 
Q 14.984375 11.71875 18.140625 8.90625 
Q 21.296875 6.109375 26.703125 6.109375 
Q 34.1875 6.109375 38.703125 11.40625 
Q 43.21875 16.703125 43.21875 25.484375 
L 43.21875 27.484375 
z
M 52.203125 31.203125 
L 52.203125 0 
L 43.21875 0 
L 43.21875 8.296875 
Q 40.140625 3.328125 35.546875 0.953125 
Q 30.953125 -1.421875 24.3125 -1.421875 
Q 15.921875 -1.421875 10.953125 3.296875 
Q 6 8.015625 6 15.921875 
Q 6 25.140625 12.171875 29.828125 
Q 18.359375 34.515625 30.609375 34.515625 
L 43.21875 34.515625 
L 43.21875 35.40625 
Q 43.21875 41.609375 39.140625 45 
Q 35.0625 48.390625 27.6875 48.390625 
Q 23 48.390625 18.546875 47.265625 
Q 14.109375 46.140625 10.015625 43.890625 
L 10.015625 52.203125 
Q 14.9375 54.109375 19.578125 55.046875 
Q 24.21875 56 28.609375 56 
Q 40.484375 56 46.34375 49.84375 
Q 52.203125 43.703125 52.203125 31.203125 
z
" id="DejaVuSans-97"/>
      <path d="M 54.890625 54.6875 
L 35.109375 28.078125 
L 55.90625 0 
L 45.3125 0 
L 29.390625 21.484375 
L 13.484375 0 
L 2.875 0 
L 24.125 28.609375 
L 4.6875 54.6875 
L 15.28125 54.6875 
L 29.78125 35.203125 
L 44.28125 54.6875 
z
" id="DejaVuSans-120"/>
      <path d="M 9.8125 72.90625 
L 19.671875 72.90625 
L 19.671875 5.078125 
Q 19.671875 -8.109375 14.671875 -14.0625 
Q 9.671875 -20.015625 -1.421875 -20.015625 
L -5.171875 -20.015625 
L -5.171875 -11.71875 
L -2.09375 -11.71875 
Q 4.4375 -11.71875 7.125 -8.046875 
Q 9.8125 -4.390625 9.8125 5.078125 
z
" id="DejaVuSans-74"/>
      <path d="M 53.515625 70.515625 
L 53.515625 60.890625 
Q 47.90625 63.578125 42.921875 64.890625 
Q 37.9375 66.21875 33.296875 66.21875 
Q 25.25 66.21875 20.875 63.09375 
Q 16.5 59.96875 16.5 54.203125 
Q 16.5 49.359375 19.40625 46.890625 
Q 22.3125 44.4375 30.421875 42.921875 
L 36.375 41.703125 
Q 47.40625 39.59375 52.65625 34.296875 
Q 57.90625 29 57.90625 20.125 
Q 57.90625 9.515625 50.796875 4.046875 
Q 43.703125 -1.421875 29.984375 -1.421875 
Q 24.8125 -1.421875 18.96875 -0.25 
Q 13.140625 0.921875 6.890625 3.21875 
L 6.890625 13.375 
Q 12.890625 10.015625 18.65625 8.296875 
Q 24.421875 6.59375 29.984375 6.59375 
Q 38.421875 6.59375 43.015625 9.90625 
Q 47.609375 13.234375 47.609375 19.390625 
Q 47.609375 24.75 44.3125 27.78125 
Q 41.015625 30.8125 33.5 32.328125 
L 27.484375 33.5 
Q 16.453125 35.6875 11.515625 40.375 
Q 6.59375 45.0625 6.59375 53.421875 
Q 6.59375 63.09375 13.40625 68.65625 
Q 20.21875 74.21875 32.171875 74.21875 
Q 37.3125 74.21875 42.625 73.28125 
Q 47.953125 72.359375 53.515625 70.515625 
z
" id="DejaVuSans-83"/>
      <path d="M 19.671875 64.796875 
L 19.671875 8.109375 
L 31.59375 8.109375 
Q 46.6875 8.109375 53.6875 14.9375 
Q 60.6875 21.78125 60.6875 36.53125 
Q 60.6875 51.171875 53.6875 57.984375 
Q 46.6875 64.796875 31.59375 64.796875 
z
M 9.8125 72.90625 
L 30.078125 72.90625 
Q 51.265625 72.90625 61.171875 64.09375 
Q 71.09375 55.28125 71.09375 36.53125 
Q 71.09375 17.671875 61.125 8.828125 
Q 51.171875 0 30.078125 0 
L 9.8125 0 
z
" id="DejaVuSans-68"/>
      <path d="M 9.421875 54.6875 
L 18.40625 54.6875 
L 18.40625 0 
L 9.421875 0 
z
M 9.421875 75.984375 
L 18.40625 75.984375 
L 18.40625 64.59375 
L 9.421875 64.59375 
z
" id="DejaVuSans-105"/>
      <path d="M 2.984375 54.6875 
L 12.5 54.6875 
L 29.59375 8.796875 
L 46.6875 54.6875 
L 56.203125 54.6875 
L 35.6875 0 
L 23.484375 0 
z
" id="DejaVuSans-118"/>
      <path d="M 56.203125 29.59375 
L 56.203125 25.203125 
L 14.890625 25.203125 
Q 15.484375 15.921875 20.484375 11.0625 
Q 25.484375 6.203125 34.421875 6.203125 
Q 39.59375 6.203125 44.453125 7.46875 
Q 49.3125 8.734375 54.109375 11.28125 
L 54.109375 2.78125 
Q 49.265625 0.734375 44.1875 -0.34375 
Q 39.109375 -1.421875 33.890625 -1.421875 
Q 20.796875 -1.421875 13.15625 6.1875 
Q 5.515625 13.8125 5.515625 26.8125 
Q 5.515625 40.234375 12.765625 48.109375 
Q 20.015625 56 32.328125 56 
Q 43.359375 56 49.78125 48.890625 
Q 56.203125 41.796875 56.203125 29.59375 
z
M 47.21875 32.234375 
Q 47.125 39.59375 43.09375 43.984375 
Q 39.0625 48.390625 32.421875 48.390625 
Q 24.90625 48.390625 20.390625 44.140625 
Q 15.875 39.890625 15.1875 32.171875 
z
" id="DejaVuSans-101"/>
      <path d="M 41.109375 46.296875 
Q 39.59375 47.171875 37.8125 47.578125 
Q 36.03125 48 33.890625 48 
Q 26.265625 48 22.1875 43.046875 
Q 18.109375 38.09375 18.109375 28.8125 
L 18.109375 0 
L 9.078125 0 
L 9.078125 54.6875 
L 18.109375 54.6875 
L 18.109375 46.1875 
Q 20.953125 51.171875 25.484375 53.578125 
Q 30.03125 56 36.53125 56 
Q 37.453125 56 38.578125 55.875 
Q 39.703125 55.765625 41.0625 55.515625 
z
" id="DejaVuSans-114"/>
      <path d="M 45.40625 27.984375 
Q 45.40625 37.75 41.375 43.109375 
Q 37.359375 48.484375 30.078125 48.484375 
Q 22.859375 48.484375 18.828125 43.109375 
Q 14.796875 37.75 14.796875 27.984375 
Q 14.796875 18.265625 18.828125 12.890625 
Q 22.859375 7.515625 30.078125 7.515625 
Q 37.359375 7.515625 41.375 12.890625 
Q 45.40625 18.265625 45.40625 27.984375 
z
M 54.390625 6.78125 
Q 54.390625 -7.171875 48.1875 -13.984375 
Q 42 -20.796875 29.203125 -20.796875 
Q 24.46875 -20.796875 20.265625 -20.09375 
Q 16.0625 -19.390625 12.109375 -17.921875 
L 12.109375 -9.1875 
Q 16.0625 -11.328125 19.921875 -12.34375 
Q 23.78125 -13.375 27.78125 -13.375 
Q 36.625 -13.375 41.015625 -8.765625 
Q 45.40625 -4.15625 45.40625 5.171875 
L 45.40625 9.625 
Q 42.625 4.78125 38.28125 2.390625 
Q 33.9375 0 27.875 0 
Q 17.828125 0 11.671875 7.65625 
Q 5.515625 15.328125 5.515625 27.984375 
Q 5.515625 40.671875 11.671875 48.328125 
Q 17.828125 56 27.875 56 
Q 33.9375 56 38.28125 53.609375 
Q 42.625 51.21875 45.40625 46.390625 
L 45.40625 54.6875 
L 54.390625 54.6875 
z
" id="DejaVuSans-103"/>
      <path d="M 54.890625 33.015625 
L 54.890625 0 
L 45.90625 0 
L 45.90625 32.71875 
Q 45.90625 40.484375 42.875 44.328125 
Q 39.84375 48.1875 33.796875 48.1875 
Q 26.515625 48.1875 22.3125 43.546875 
Q 18.109375 38.921875 18.109375 30.90625 
L 18.109375 0 
L 9.078125 0 
L 9.078125 54.6875 
L 18.109375 54.6875 
L 18.109375 46.1875 
Q 21.34375 51.125 25.703125 53.5625 
Q 30.078125 56 35.796875 56 
Q 45.21875 56 50.046875 50.171875 
Q 54.890625 44.34375 54.890625 33.015625 
z
" id="DejaVuSans-110"/>
      <path d="M 48.78125 52.59375 
L 48.78125 44.1875 
Q 44.96875 46.296875 41.140625 47.34375 
Q 37.3125 48.390625 33.40625 48.390625 
Q 24.65625 48.390625 19.8125 42.84375 
Q 14.984375 37.3125 14.984375 27.296875 
Q 14.984375 17.28125 19.8125 11.734375 
Q 24.65625 6.203125 33.40625 6.203125 
Q 37.3125 6.203125 41.140625 7.25 
Q 44.96875 8.296875 48.78125 10.40625 
L 48.78125 2.09375 
Q 45.015625 0.34375 40.984375 -0.53125 
Q 36.96875 -1.421875 32.421875 -1.421875 
Q 20.0625 -1.421875 12.78125 6.34375 
Q 5.515625 14.109375 5.515625 27.296875 
Q 5.515625 40.671875 12.859375 48.328125 
Q 20.21875 56 33.015625 56 
Q 37.15625 56 41.109375 55.140625 
Q 45.0625 54.296875 48.78125 52.59375 
z
" id="DejaVuSans-99"/>
      <path d="M 4.203125 54.6875 
L 13.1875 54.6875 
L 24.421875 12.015625 
L 35.59375 54.6875 
L 46.1875 54.6875 
L 57.421875 12.015625 
L 68.609375 54.6875 
L 77.59375 54.6875 
L 63.28125 0 
L 52.6875 0 
L 40.921875 44.828125 
L 29.109375 0 
L 18.5 0 
z
" id="DejaVuSans-119"/>
      <path d="M 18.3125 70.21875 
L 18.3125 54.6875 
L 36.8125 54.6875 
L 36.8125 47.703125 
L 18.3125 47.703125 
L 18.3125 18.015625 
Q 18.3125 11.328125 20.140625 9.421875 
Q 21.96875 7.515625 27.59375 7.515625 
L 36.8125 7.515625 
L 36.8125 0 
L 27.59375 0 
Q 17.1875 0 13.234375 3.875 
Q 9.28125 7.765625 9.28125 18.015625 
L 9.28125 47.703125 
L 2.6875 47.703125 
L 2.6875 54.6875 
L 9.28125 54.6875 
L 9.28125 70.21875 
z
" id="DejaVuSans-116"/>
      <path d="M 54.890625 33.015625 
L 54.890625 0 
L 45.90625 0 
L 45.90625 32.71875 
Q 45.90625 40.484375 42.875 44.328125 
Q 39.84375 48.1875 33.796875 48.1875 
Q 26.515625 48.1875 22.3125 43.546875 
Q 18.109375 38.921875 18.109375 30.90625 
L 18.109375 0 
L 9.078125 0 
L 9.078125 75.984375 
L 18.109375 75.984375 
L 18.109375 46.1875 
Q 21.34375 51.125 25.703125 53.5625 
Q 30.078125 56 35.796875 56 
Q 45.21875 56 50.046875 50.171875 
Q 54.890625 44.34375 54.890625 33.015625 
z
" id="DejaVuSans-104"/>
      <path d="M 19.734375 29.5 
Q 14.453125 30.671875 12.15625 33.84375 
Q 10.453125 36.078125 10.453125 39.109375 
Q 10.453125 47.40625 18.359375 52.25 
Q 24.609375 56.0625 34.1875 56.0625 
Q 37.890625 56.0625 41.9375 55.46875 
Q 46 54.890625 50.53125 53.71875 
L 48.96875 45.5625 
Q 44.484375 46.96875 40.71875 47.609375 
Q 36.859375 48.25 33.40625 48.25 
Q 27.59375 48.25 23.78125 46 
Q 19.1875 43.3125 19.1875 39.40625 
Q 19.1875 36.8125 21.578125 35.015625 
Q 24.421875 32.859375 30.078125 32.859375 
L 37.640625 32.859375 
L 36.234375 25.4375 
L 29 25.4375 
Q 22.265625 25.4375 18.3125 22.953125 
Q 12.9375 19.578125 12.9375 14.3125 
Q 12.9375 10.984375 15.828125 8.796875 
Q 19.4375 6.0625 26.8125 6.0625 
Q 31.34375 6.0625 35.6875 6.9375 
Q 40.046875 7.859375 43.84375 9.671875 
L 42.1875 1.3125 
Q 37.546875 -0.046875 33.296875 -0.734375 
Q 29.046875 -1.421875 25.140625 -1.421875 
Q 13.53125 -1.421875 8.0625 3.03125 
Q 3.90625 6.453125 3.90625 12.203125 
Q 3.90625 19.96875 9.375 24.75 
Q 13.421875 28.328125 19.734375 29.5 
z
" id="DejaVuSans-Oblique-949"/>
     </defs>
     <g transform="translate(93.570833 321.697917)scale(0.2 -0.2)">
      <use transform="translate(0 0.015625)" xlink:href="#DejaVuSans-77"/>
      <use transform="translate(86.279297 0.015625)" xlink:href="#DejaVuSans-97"/>
      <use transform="translate(147.558594 0.015625)" xlink:href="#DejaVuSans-120"/>
      <use transform="translate(206.738281 0.015625)" xlink:href="#DejaVuSans-32"/>
      <use transform="translate(238.525391 0.015625)" xlink:href="#DejaVuSans-74"/>
      <use transform="translate(268.017578 0.015625)" xlink:href="#DejaVuSans-83"/>
      <use transform="translate(331.494141 0.015625)" xlink:href="#DejaVuSans-32"/>
      <use transform="translate(363.28125 0.015625)" xlink:href="#DejaVuSans-68"/>
      <use transform="translate(440.283203 0.015625)" xlink:href="#DejaVuSans-105"/>
      <use transform="translate(468.066406 0.015625)" xlink:href="#DejaVuSans-118"/>
      <use transform="translate(527.246094 0.015625)" xlink:href="#DejaVuSans-101"/>
      <use transform="translate(588.769531 0.015625)" xlink:href="#DejaVuSans-114"/>
      <use transform="translate(629.882812 0.015625)" xlink:href="#DejaVuSans-103"/>
      <use transform="translate(693.359375 0.015625)" xlink:href="#DejaVuSans-101"/>
      <use transform="translate(754.882812 0.015625)" xlink:href="#DejaVuSans-110"/>
      <use transform="translate(818.261719 0.015625)" xlink:href="#DejaVuSans-99"/>
      <use transform="translate(873.242188 0.015625)" xlink:href="#DejaVuSans-101"/>
      <use transform="translate(934.765625 0.015625)" xlink:href="#DejaVuSans-32"/>
      <use transform="translate(966.552734 0.015625)" xlink:href="#DejaVuSans-119"/>
      <use transform="translate(1048.339844 0.015625)" xlink:href="#DejaVuSans-105"/>
      <use transform="translate(1076.123047 0.015625)" xlink:href="#DejaVuSans-116"/>
      <use transform="translate(1115.332031 0.015625)" xlink:href="#DejaVuSans-104"/>
      <use transform="translate(1178.710938 0.015625)" xlink:href="#DejaVuSans-105"/>
      <use transform="translate(1206.494141 0.015625)" xlink:href="#DejaVuSans-110"/>
      <use transform="translate(1269.873047 0.015625)" xlink:href="#DejaVuSans-32"/>
      <use transform="translate(1301.660156 0.015625)" xlink:href="#DejaVuSans-Oblique-949"/>
     </g>
    </g>
   </g>
   <g id="matplotlib.axis_4">
    <g id="ytick_7">
     <g id="line2d_15">
      <g>
       <use style="stroke:#000000;stroke-width:1.6;" x="96.7" xlink:href="#m3412109495" y="36.617708"/>
      </g>
     </g>
     <g id="text_18">
      <!-- [0.00, -->
      <defs>
       <path d="M 8.59375 75.984375 
L 29.296875 75.984375 
L 29.296875 69 
L 17.578125 69 
L 17.578125 -6.203125 
L 29.296875 -6.203125 
L 29.296875 -13.1875 
L 8.59375 -13.1875 
z
" id="DejaVuSans-91"/>
       <path d="M 11.71875 12.40625 
L 22.015625 12.40625 
L 22.015625 4 
L 14.015625 -11.625 
L 7.71875 -11.625 
L 11.71875 4 
z
" id="DejaVuSans-44"/>
      </defs>
      <g transform="translate(23.309375 33.018333)scale(0.2 -0.2)">
       <use xlink:href="#DejaVuSans-91"/>
       <use x="39.013672" xlink:href="#DejaVuSans-48"/>
       <use x="102.636719" xlink:href="#DejaVuSans-46"/>
       <use x="134.423828" xlink:href="#DejaVuSans-48"/>
       <use x="198.046875" xlink:href="#DejaVuSans-48"/>
       <use x="261.669922" xlink:href="#DejaVuSans-44"/>
      </g>
      <!-- 0.25) -->
      <defs>
       <path d="M 8.015625 75.875 
L 15.828125 75.875 
Q 23.140625 64.359375 26.78125 53.3125 
Q 30.421875 42.28125 30.421875 31.390625 
Q 30.421875 20.453125 26.78125 9.375 
Q 23.140625 -1.703125 15.828125 -13.1875 
L 8.015625 -13.1875 
Q 14.5 -2 17.703125 9.0625 
Q 20.90625 20.125 20.90625 31.390625 
Q 20.90625 42.671875 17.703125 53.65625 
Q 14.5 64.65625 8.015625 75.875 
z
" id="DejaVuSans-41"/>
      </defs>
      <g transform="translate(29.665625 55.413958)scale(0.2 -0.2)">
       <use xlink:href="#DejaVuSans-48"/>
       <use x="63.623047" xlink:href="#DejaVuSans-46"/>
       <use x="95.410156" xlink:href="#DejaVuSans-50"/>
       <use x="159.033203" xlink:href="#DejaVuSans-53"/>
       <use x="222.65625" xlink:href="#DejaVuSans-41"/>
      </g>
     </g>
    </g>
    <g id="ytick_8">
     <g id="line2d_16">
      <g>
       <use style="stroke:#000000;stroke-width:1.6;" x="96.7" xlink:href="#m3412109495" y="102.853125"/>
      </g>
     </g>
     <g id="text_19">
      <!-- [0.25, -->
      <g transform="translate(23.309375 99.25375)scale(0.2 -0.2)">
       <use xlink:href="#DejaVuSans-91"/>
       <use x="39.013672" xlink:href="#DejaVuSans-48"/>
       <use x="102.636719" xlink:href="#DejaVuSans-46"/>
       <use x="134.423828" xlink:href="#DejaVuSans-50"/>
       <use x="198.046875" xlink:href="#DejaVuSans-53"/>
       <use x="261.669922" xlink:href="#DejaVuSans-44"/>
      </g>
      <!-- 0.50) -->
      <g transform="translate(29.665625 121.649375)scale(0.2 -0.2)">
       <use xlink:href="#DejaVuSans-48"/>
       <use x="63.623047" xlink:href="#DejaVuSans-46"/>
       <use x="95.410156" xlink:href="#DejaVuSans-53"/>
       <use x="159.033203" xlink:href="#DejaVuSans-48"/>
       <use x="222.65625" xlink:href="#DejaVuSans-41"/>
      </g>
     </g>
    </g>
    <g id="ytick_9">
     <g id="line2d_17">
      <g>
       <use style="stroke:#000000;stroke-width:1.6;" x="96.7" xlink:href="#m3412109495" y="169.088542"/>
      </g>
     </g>
     <g id="text_20">
      <!-- [0.50, -->
      <g transform="translate(23.309375 165.489167)scale(0.2 -0.2)">
       <use xlink:href="#DejaVuSans-91"/>
       <use x="39.013672" xlink:href="#DejaVuSans-48"/>
       <use x="102.636719" xlink:href="#DejaVuSans-46"/>
       <use x="134.423828" xlink:href="#DejaVuSans-53"/>
       <use x="198.046875" xlink:href="#DejaVuSans-48"/>
       <use x="261.669922" xlink:href="#DejaVuSans-44"/>
      </g>
      <!-- 0.75) -->
      <defs>
       <path d="M 8.203125 72.90625 
L 55.078125 72.90625 
L 55.078125 68.703125 
L 28.609375 0 
L 18.3125 0 
L 43.21875 64.59375 
L 8.203125 64.59375 
z
" id="DejaVuSans-55"/>
      </defs>
      <g transform="translate(29.665625 187.884792)scale(0.2 -0.2)">
       <use xlink:href="#DejaVuSans-48"/>
       <use x="63.623047" xlink:href="#DejaVuSans-46"/>
       <use x="95.410156" xlink:href="#DejaVuSans-55"/>
       <use x="159.033203" xlink:href="#DejaVuSans-53"/>
       <use x="222.65625" xlink:href="#DejaVuSans-41"/>
      </g>
     </g>
    </g>
    <g id="ytick_10">
     <g id="line2d_18">
      <g>
       <use style="stroke:#000000;stroke-width:1.6;" x="96.7" xlink:href="#m3412109495" y="235.323958"/>
      </g>
     </g>
     <g id="text_21">
      <!-- [0.75, -->
      <g transform="translate(23.309375 231.724583)scale(0.2 -0.2)">
       <use xlink:href="#DejaVuSans-91"/>
       <use x="39.013672" xlink:href="#DejaVuSans-48"/>
       <use x="102.636719" xlink:href="#DejaVuSans-46"/>
       <use x="134.423828" xlink:href="#DejaVuSans-55"/>
       <use x="198.046875" xlink:href="#DejaVuSans-53"/>
       <use x="261.669922" xlink:href="#DejaVuSans-44"/>
      </g>
      <!-- 1.00) -->
      <g transform="translate(29.665625 254.120208)scale(0.2 -0.2)">
       <use xlink:href="#DejaVuSans-49"/>
       <use x="63.623047" xlink:href="#DejaVuSans-46"/>
       <use x="95.410156" xlink:href="#DejaVuSans-48"/>
       <use x="159.033203" xlink:href="#DejaVuSans-48"/>
       <use x="222.65625" xlink:href="#DejaVuSans-41"/>
      </g>
     </g>
    </g>
    <g id="text_22">
     <!-- Max Attention -->
     <defs>
      <path d="M 34.1875 63.1875 
L 20.796875 26.90625 
L 47.609375 26.90625 
z
M 28.609375 72.90625 
L 39.796875 72.90625 
L 67.578125 0 
L 57.328125 0 
L 50.6875 18.703125 
L 17.828125 18.703125 
L 11.1875 0 
L 0.78125 0 
z
" id="DejaVuSans-65"/>
      <path d="M 30.609375 48.390625 
Q 23.390625 48.390625 19.1875 42.75 
Q 14.984375 37.109375 14.984375 27.296875 
Q 14.984375 17.484375 19.15625 11.84375 
Q 23.34375 6.203125 30.609375 6.203125 
Q 37.796875 6.203125 41.984375 11.859375 
Q 46.1875 17.53125 46.1875 27.296875 
Q 46.1875 37.015625 41.984375 42.703125 
Q 37.796875 48.390625 30.609375 48.390625 
z
M 30.609375 56 
Q 42.328125 56 49.015625 48.375 
Q 55.71875 40.765625 55.71875 27.296875 
Q 55.71875 13.875 49.015625 6.21875 
Q 42.328125 -1.421875 30.609375 -1.421875 
Q 18.84375 -1.421875 12.171875 6.21875 
Q 5.515625 13.875 5.515625 27.296875 
Q 5.515625 40.765625 12.171875 48.375 
Q 18.84375 56 30.609375 56 
z
" id="DejaVuSans-111"/>
     </defs>
     <g transform="translate(15.15 206.148958)rotate(-90)scale(0.2 -0.2)">
      <use xlink:href="#DejaVuSans-77"/>
      <use x="86.279297" xlink:href="#DejaVuSans-97"/>
      <use x="147.558594" xlink:href="#DejaVuSans-120"/>
      <use x="206.738281" xlink:href="#DejaVuSans-32"/>
      <use x="238.525391" xlink:href="#DejaVuSans-65"/>
      <use x="306.917969" xlink:href="#DejaVuSans-116"/>
      <use x="346.126953" xlink:href="#DejaVuSans-116"/>
      <use x="385.335938" xlink:href="#DejaVuSans-101"/>
      <use x="446.859375" xlink:href="#DejaVuSans-110"/>
      <use x="510.238281" xlink:href="#DejaVuSans-116"/>
      <use x="549.447266" xlink:href="#DejaVuSans-105"/>
      <use x="577.230469" xlink:href="#DejaVuSans-111"/>
      <use x="638.412109" xlink:href="#DejaVuSans-110"/>
     </g>
    </g>
   </g>
   <g id="line2d_19">
    <path clip-path="url(#p6ddf891df6)" d="M 312.90592 17.341058 
L 312.90592 29.400192 
" style="fill:none;stroke:#424242;stroke-dasharray:1.5,1.5;stroke-dashoffset:0;"/>
   </g>
   <g id="line2d_20">
    <path clip-path="url(#p6ddf891df6)" d="M 334.285365 19.410982 
L 334.285365 27.330268 
" style="fill:none;stroke:#424242;stroke-dasharray:3,3;stroke-dashoffset:0;"/>
   </g>
   <g id="line2d_21">
    <path clip-path="url(#p6ddf891df6)" d="M 347.633034 12.511831 
L 347.633034 34.229419 
" style="fill:none;stroke:#424242;stroke-dasharray:1.5,1.5;stroke-dashoffset:0;"/>
   </g>
   <g id="line2d_22">
    <path clip-path="url(#p6ddf891df6)" d="M 302.094201 38.530887 
L 302.094201 61.198697 
" style="fill:none;stroke:#424242;stroke-dasharray:1.5,1.5;stroke-dashoffset:0;"/>
   </g>
   <g id="line2d_23">
    <path clip-path="url(#p6ddf891df6)" d="M 309.083568 36.827761 
L 309.083568 62.901822 
" style="fill:none;stroke:#424242;stroke-dasharray:3,3;stroke-dashoffset:0;"/>
   </g>
   <g id="line2d_24">
    <path clip-path="url(#p6ddf891df6)" d="M 315.856114 40.768577 
L 315.856114 58.961006 
" style="fill:none;stroke:#424242;stroke-dasharray:1.5,1.5;stroke-dashoffset:0;"/>
   </g>
   <g id="patch_88">
    <path d="M 96.7 268.441667 
L 96.7 3.5 
" style="fill:none;stroke:#000000;stroke-linecap:square;stroke-linejoin:miter;stroke-width:0.8;"/>
   </g>
   <g id="patch_89">
    <path d="M 96.7 268.441667 
L 361.641667 268.441667 
" style="fill:none;stroke:#000000;stroke-linecap:square;stroke-linejoin:miter;stroke-width:0.8;"/>
   </g>
  </g>
 </g>
 <defs>
  <clipPath id="p4c2117d477">
   <rect height="264.941667" width="264.941667" x="-272.041667" y="3.5"/>
  </clipPath>
  <clipPath id="p6ddf891df6">
   <rect height="264.941667" width="264.941667" x="96.7" y="3.5"/>
  </clipPath>
 </defs>
</svg>
