<?xml version="1.0" encoding="utf-8" standalone="no"?>
<!DOCTYPE svg PUBLIC "-//W3C//DTD SVG 1.1//EN"
  "http://www.w3.org/Graphics/SVG/1.1/DTD/svg11.dtd">
<!-- Created with matplotlib (https://matplotlib.org/) -->
<svg height="359.680807pt" version="1.1" viewBox="0 0 397.916667 359.680807" width="397.916667pt" xmlns="http://www.w3.org/2000/svg" xmlns:xlink="http://www.w3.org/1999/xlink">
 <defs>
  <style type="text/css">
*{stroke-linecap:butt;stroke-linejoin:round;}
  </style>
 </defs>
 <g id="figure_1">
  <g id="patch_1">
   <path d="M 0 359.680807 
L 397.916667 359.680807 
L 397.916667 0 
L 0 0 
z
" style="fill:#ffffff;"/>
  </g>
  <g id="axes_1">
   <g id="patch_2">
    <path d="M 72.45 325.980807 
L 394.416667 325.980807 
L 394.416667 4.01414 
L 72.45 4.01414 
z
" style="fill:#ffffff;"/>
   </g>
   <g id="patch_3">
    <path clip-path="url(#p76332108f9)" d="M 87.084848 325.980807 
L 96.841414 325.980807 
L 96.841414 325.398442 
L 87.084848 325.398442 
z
" style="fill:#7570b3;opacity:0.6;stroke:#000000;stroke-linejoin:miter;stroke-width:0.5;"/>
   </g>
   <g id="patch_4">
    <path clip-path="url(#p76332108f9)" d="M 96.841414 325.980807 
L 106.59798 325.980807 
L 106.59798 325.980807 
L 96.841414 325.980807 
z
" style="fill:#7570b3;opacity:0.6;stroke:#000000;stroke-linejoin:miter;stroke-width:0.5;"/>
   </g>
   <g id="patch_5">
    <path clip-path="url(#p76332108f9)" d="M 106.59798 325.980807 
L 116.354545 325.980807 
L 116.354545 325.980807 
L 106.59798 325.980807 
z
" style="fill:#7570b3;opacity:0.6;stroke:#000000;stroke-linejoin:miter;stroke-width:0.5;"/>
   </g>
   <g id="patch_6">
    <path clip-path="url(#p76332108f9)" d="M 116.354545 325.980807 
L 126.111111 325.980807 
L 126.111111 325.980807 
L 116.354545 325.980807 
z
" style="fill:#7570b3;opacity:0.6;stroke:#000000;stroke-linejoin:miter;stroke-width:0.5;"/>
   </g>
   <g id="patch_7">
    <path clip-path="url(#p76332108f9)" d="M 126.111111 325.980807 
L 135.867677 325.980807 
L 135.867677 325.980807 
L 126.111111 325.980807 
z
" style="fill:#7570b3;opacity:0.6;stroke:#000000;stroke-linejoin:miter;stroke-width:0.5;"/>
   </g>
   <g id="patch_8">
    <path clip-path="url(#p76332108f9)" d="M 135.867677 325.980807 
L 145.624242 325.980807 
L 145.624242 325.398442 
L 135.867677 325.398442 
z
" style="fill:#7570b3;opacity:0.6;stroke:#000000;stroke-linejoin:miter;stroke-width:0.5;"/>
   </g>
   <g id="patch_9">
    <path clip-path="url(#p76332108f9)" d="M 145.624242 325.980807 
L 155.380808 325.980807 
L 155.380808 325.980807 
L 145.624242 325.980807 
z
" style="fill:#7570b3;opacity:0.6;stroke:#000000;stroke-linejoin:miter;stroke-width:0.5;"/>
   </g>
   <g id="patch_10">
    <path clip-path="url(#p76332108f9)" d="M 155.380808 325.980807 
L 165.137374 325.980807 
L 165.137374 325.980807 
L 155.380808 325.980807 
z
" style="fill:#7570b3;opacity:0.6;stroke:#000000;stroke-linejoin:miter;stroke-width:0.5;"/>
   </g>
   <g id="patch_11">
    <path clip-path="url(#p76332108f9)" d="M 165.137374 325.980807 
L 174.893939 325.980807 
L 174.893939 325.398442 
L 165.137374 325.398442 
z
" style="fill:#7570b3;opacity:0.6;stroke:#000000;stroke-linejoin:miter;stroke-width:0.5;"/>
   </g>
   <g id="patch_12">
    <path clip-path="url(#p76332108f9)" d="M 174.893939 325.980807 
L 184.650505 325.980807 
L 184.650505 325.398442 
L 174.893939 325.398442 
z
" style="fill:#7570b3;opacity:0.6;stroke:#000000;stroke-linejoin:miter;stroke-width:0.5;"/>
   </g>
   <g id="patch_13">
    <path clip-path="url(#p76332108f9)" d="M 184.650505 325.980807 
L 194.407071 325.980807 
L 194.407071 324.233712 
L 184.650505 324.233712 
z
" style="fill:#7570b3;opacity:0.6;stroke:#000000;stroke-linejoin:miter;stroke-width:0.5;"/>
   </g>
   <g id="patch_14">
    <path clip-path="url(#p76332108f9)" d="M 194.407071 325.980807 
L 204.163636 325.980807 
L 204.163636 324.816077 
L 194.407071 324.816077 
z
" style="fill:#7570b3;opacity:0.6;stroke:#000000;stroke-linejoin:miter;stroke-width:0.5;"/>
   </g>
   <g id="patch_15">
    <path clip-path="url(#p76332108f9)" d="M 204.163636 325.980807 
L 213.920202 325.980807 
L 213.920202 322.486618 
L 204.163636 322.486618 
z
" style="fill:#7570b3;opacity:0.6;stroke:#000000;stroke-linejoin:miter;stroke-width:0.5;"/>
   </g>
   <g id="patch_16">
    <path clip-path="url(#p76332108f9)" d="M 213.920202 325.980807 
L 223.676768 325.980807 
L 223.676768 323.068983 
L 213.920202 323.068983 
z
" style="fill:#7570b3;opacity:0.6;stroke:#000000;stroke-linejoin:miter;stroke-width:0.5;"/>
   </g>
   <g id="patch_17">
    <path clip-path="url(#p76332108f9)" d="M 223.676768 325.980807 
L 233.433333 325.980807 
L 233.433333 321.321888 
L 223.676768 321.321888 
z
" style="fill:#7570b3;opacity:0.6;stroke:#000000;stroke-linejoin:miter;stroke-width:0.5;"/>
   </g>
   <g id="patch_18">
    <path clip-path="url(#p76332108f9)" d="M 233.433333 325.980807 
L 243.189899 325.980807 
L 243.189899 308.50986 
L 233.433333 308.50986 
z
" style="fill:#7570b3;opacity:0.6;stroke:#000000;stroke-linejoin:miter;stroke-width:0.5;"/>
   </g>
   <g id="patch_19">
    <path clip-path="url(#p76332108f9)" d="M 243.189899 325.980807 
L 252.946465 325.980807 
L 252.946465 314.333509 
L 243.189899 314.333509 
z
" style="fill:#7570b3;opacity:0.6;stroke:#000000;stroke-linejoin:miter;stroke-width:0.5;"/>
   </g>
   <g id="patch_20">
    <path clip-path="url(#p76332108f9)" d="M 252.946465 325.980807 
L 262.70303 325.980807 
L 262.70303 300.356751 
L 252.946465 300.356751 
z
" style="fill:#7570b3;opacity:0.6;stroke:#000000;stroke-linejoin:miter;stroke-width:0.5;"/>
   </g>
   <g id="patch_21">
    <path clip-path="url(#p76332108f9)" d="M 262.70303 325.980807 
L 272.459596 325.980807 
L 272.459596 268.326682 
L 262.70303 268.326682 
z
" style="fill:#7570b3;opacity:0.6;stroke:#000000;stroke-linejoin:miter;stroke-width:0.5;"/>
   </g>
   <g id="patch_22">
    <path clip-path="url(#p76332108f9)" d="M 272.459596 325.980807 
L 282.216162 325.980807 
L 282.216162 257.844113 
L 272.459596 257.844113 
z
" style="fill:#7570b3;opacity:0.6;stroke:#000000;stroke-linejoin:miter;stroke-width:0.5;"/>
   </g>
   <g id="patch_23">
    <path clip-path="url(#p76332108f9)" d="M 282.216162 325.980807 
L 291.972727 325.980807 
L 291.972727 209.507826 
L 282.216162 209.507826 
z
" style="fill:#7570b3;opacity:0.6;stroke:#000000;stroke-linejoin:miter;stroke-width:0.5;"/>
   </g>
   <g id="patch_24">
    <path clip-path="url(#p76332108f9)" d="M 291.972727 325.980807 
L 301.729293 325.980807 
L 301.729293 175.148297 
L 291.972727 175.148297 
z
" style="fill:#7570b3;opacity:0.6;stroke:#000000;stroke-linejoin:miter;stroke-width:0.5;"/>
   </g>
   <g id="patch_25">
    <path clip-path="url(#p76332108f9)" d="M 301.729293 325.980807 
L 311.485859 325.980807 
L 311.485859 124.48255 
L 301.729293 124.48255 
z
" style="fill:#7570b3;opacity:0.6;stroke:#000000;stroke-linejoin:miter;stroke-width:0.5;"/>
   </g>
   <g id="patch_26">
    <path clip-path="url(#p76332108f9)" d="M 311.485859 325.980807 
L 321.242424 325.980807 
L 321.242424 49.939842 
L 311.485859 49.939842 
z
" style="fill:#7570b3;opacity:0.6;stroke:#000000;stroke-linejoin:miter;stroke-width:0.5;"/>
   </g>
   <g id="patch_27">
    <path clip-path="url(#p76332108f9)" d="M 321.242424 325.980807 
L 330.99899 325.980807 
L 330.99899 58.092951 
L 321.242424 58.092951 
z
" style="fill:#7570b3;opacity:0.6;stroke:#000000;stroke-linejoin:miter;stroke-width:0.5;"/>
   </g>
   <g id="patch_28">
    <path clip-path="url(#p76332108f9)" d="M 330.99899 325.980807 
L 340.755556 325.980807 
L 340.755556 58.092951 
L 330.99899 58.092951 
z
" style="fill:#7570b3;opacity:0.6;stroke:#000000;stroke-linejoin:miter;stroke-width:0.5;"/>
   </g>
   <g id="patch_29">
    <path clip-path="url(#p76332108f9)" d="M 340.755556 325.980807 
L 350.512121 325.980807 
L 350.512121 141.953497 
L 340.755556 141.953497 
z
" style="fill:#7570b3;opacity:0.6;stroke:#000000;stroke-linejoin:miter;stroke-width:0.5;"/>
   </g>
   <g id="patch_30">
    <path clip-path="url(#p76332108f9)" d="M 350.512121 325.980807 
L 360.268687 325.980807 
L 360.268687 221.155124 
L 350.512121 221.155124 
z
" style="fill:#7570b3;opacity:0.6;stroke:#000000;stroke-linejoin:miter;stroke-width:0.5;"/>
   </g>
   <g id="patch_31">
    <path clip-path="url(#p76332108f9)" d="M 360.268687 325.980807 
L 370.025253 325.980807 
L 370.025253 285.215264 
L 360.268687 285.215264 
z
" style="fill:#7570b3;opacity:0.6;stroke:#000000;stroke-linejoin:miter;stroke-width:0.5;"/>
   </g>
   <g id="patch_32">
    <path clip-path="url(#p76332108f9)" d="M 370.025253 325.980807 
L 379.781818 325.980807 
L 379.781818 313.168779 
L 370.025253 313.168779 
z
" style="fill:#7570b3;opacity:0.6;stroke:#000000;stroke-linejoin:miter;stroke-width:0.5;"/>
   </g>
   <g id="patch_33">
    <path clip-path="url(#p76332108f9)" d="M 87.084848 325.980807 
L 96.841414 325.980807 
L 96.841414 325.980807 
L 87.084848 325.980807 
z
" style="fill:#d95f02;opacity:0.6;stroke:#000000;stroke-linejoin:miter;stroke-width:0.5;"/>
   </g>
   <g id="patch_34">
    <path clip-path="url(#p76332108f9)" d="M 96.841414 325.980807 
L 106.59798 325.980807 
L 106.59798 325.980807 
L 96.841414 325.980807 
z
" style="fill:#d95f02;opacity:0.6;stroke:#000000;stroke-linejoin:miter;stroke-width:0.5;"/>
   </g>
   <g id="patch_35">
    <path clip-path="url(#p76332108f9)" d="M 106.59798 325.980807 
L 116.354545 325.980807 
L 116.354545 325.980807 
L 106.59798 325.980807 
z
" style="fill:#d95f02;opacity:0.6;stroke:#000000;stroke-linejoin:miter;stroke-width:0.5;"/>
   </g>
   <g id="patch_36">
    <path clip-path="url(#p76332108f9)" d="M 116.354545 325.980807 
L 126.111111 325.980807 
L 126.111111 325.980807 
L 116.354545 325.980807 
z
" style="fill:#d95f02;opacity:0.6;stroke:#000000;stroke-linejoin:miter;stroke-width:0.5;"/>
   </g>
   <g id="patch_37">
    <path clip-path="url(#p76332108f9)" d="M 126.111111 325.980807 
L 135.867677 325.980807 
L 135.867677 325.980807 
L 126.111111 325.980807 
z
" style="fill:#d95f02;opacity:0.6;stroke:#000000;stroke-linejoin:miter;stroke-width:0.5;"/>
   </g>
   <g id="patch_38">
    <path clip-path="url(#p76332108f9)" d="M 135.867677 325.980807 
L 145.624242 325.980807 
L 145.624242 325.980807 
L 135.867677 325.980807 
z
" style="fill:#d95f02;opacity:0.6;stroke:#000000;stroke-linejoin:miter;stroke-width:0.5;"/>
   </g>
   <g id="patch_39">
    <path clip-path="url(#p76332108f9)" d="M 145.624242 325.980807 
L 155.380808 325.980807 
L 155.380808 325.980807 
L 145.624242 325.980807 
z
" style="fill:#d95f02;opacity:0.6;stroke:#000000;stroke-linejoin:miter;stroke-width:0.5;"/>
   </g>
   <g id="patch_40">
    <path clip-path="url(#p76332108f9)" d="M 155.380808 325.980807 
L 165.137374 325.980807 
L 165.137374 325.980807 
L 155.380808 325.980807 
z
" style="fill:#d95f02;opacity:0.6;stroke:#000000;stroke-linejoin:miter;stroke-width:0.5;"/>
   </g>
   <g id="patch_41">
    <path clip-path="url(#p76332108f9)" d="M 165.137374 325.980807 
L 174.893939 325.980807 
L 174.893939 324.773583 
L 165.137374 324.773583 
z
" style="fill:#d95f02;opacity:0.6;stroke:#000000;stroke-linejoin:miter;stroke-width:0.5;"/>
   </g>
   <g id="patch_42">
    <path clip-path="url(#p76332108f9)" d="M 174.893939 325.980807 
L 184.650505 325.980807 
L 184.650505 325.980807 
L 174.893939 325.980807 
z
" style="fill:#d95f02;opacity:0.6;stroke:#000000;stroke-linejoin:miter;stroke-width:0.5;"/>
   </g>
   <g id="patch_43">
    <path clip-path="url(#p76332108f9)" d="M 184.650505 325.980807 
L 194.407071 325.980807 
L 194.407071 325.980807 
L 184.650505 325.980807 
z
" style="fill:#d95f02;opacity:0.6;stroke:#000000;stroke-linejoin:miter;stroke-width:0.5;"/>
   </g>
   <g id="patch_44">
    <path clip-path="url(#p76332108f9)" d="M 194.407071 325.980807 
L 204.163636 325.980807 
L 204.163636 324.773583 
L 194.407071 324.773583 
z
" style="fill:#d95f02;opacity:0.6;stroke:#000000;stroke-linejoin:miter;stroke-width:0.5;"/>
   </g>
   <g id="patch_45">
    <path clip-path="url(#p76332108f9)" d="M 204.163636 325.980807 
L 213.920202 325.980807 
L 213.920202 324.773583 
L 204.163636 324.773583 
z
" style="fill:#d95f02;opacity:0.6;stroke:#000000;stroke-linejoin:miter;stroke-width:0.5;"/>
   </g>
   <g id="patch_46">
    <path clip-path="url(#p76332108f9)" d="M 213.920202 325.980807 
L 223.676768 325.980807 
L 223.676768 323.566359 
L 213.920202 323.566359 
z
" style="fill:#d95f02;opacity:0.6;stroke:#000000;stroke-linejoin:miter;stroke-width:0.5;"/>
   </g>
   <g id="patch_47">
    <path clip-path="url(#p76332108f9)" d="M 223.676768 325.980807 
L 233.433333 325.980807 
L 233.433333 324.773583 
L 223.676768 324.773583 
z
" style="fill:#d95f02;opacity:0.6;stroke:#000000;stroke-linejoin:miter;stroke-width:0.5;"/>
   </g>
   <g id="patch_48">
    <path clip-path="url(#p76332108f9)" d="M 233.433333 325.980807 
L 243.189899 325.980807 
L 243.189899 319.944687 
L 233.433333 319.944687 
z
" style="fill:#d95f02;opacity:0.6;stroke:#000000;stroke-linejoin:miter;stroke-width:0.5;"/>
   </g>
   <g id="patch_49">
    <path clip-path="url(#p76332108f9)" d="M 243.189899 325.980807 
L 252.946465 325.980807 
L 252.946465 318.13385 
L 243.189899 318.13385 
z
" style="fill:#d95f02;opacity:0.6;stroke:#000000;stroke-linejoin:miter;stroke-width:0.5;"/>
   </g>
   <g id="patch_50">
    <path clip-path="url(#p76332108f9)" d="M 252.946465 325.980807 
L 262.70303 325.980807 
L 262.70303 306.061609 
L 252.946465 306.061609 
z
" style="fill:#d95f02;opacity:0.6;stroke:#000000;stroke-linejoin:miter;stroke-width:0.5;"/>
   </g>
   <g id="patch_51">
    <path clip-path="url(#p76332108f9)" d="M 262.70303 325.980807 
L 272.459596 325.980807 
L 272.459596 288.55686 
L 262.70303 288.55686 
z
" style="fill:#d95f02;opacity:0.6;stroke:#000000;stroke-linejoin:miter;stroke-width:0.5;"/>
   </g>
   <g id="patch_52">
    <path clip-path="url(#p76332108f9)" d="M 272.459596 325.980807 
L 282.216162 325.980807 
L 282.216162 274.070171 
L 272.459596 274.070171 
z
" style="fill:#d95f02;opacity:0.6;stroke:#000000;stroke-linejoin:miter;stroke-width:0.5;"/>
   </g>
   <g id="patch_53">
    <path clip-path="url(#p76332108f9)" d="M 282.216162 325.980807 
L 291.972727 325.980807 
L 291.972727 226.988431 
L 282.216162 226.988431 
z
" style="fill:#d95f02;opacity:0.6;stroke:#000000;stroke-linejoin:miter;stroke-width:0.5;"/>
   </g>
   <g id="patch_54">
    <path clip-path="url(#p76332108f9)" d="M 291.972727 325.980807 
L 301.729293 325.980807 
L 301.729293 206.465621 
L 291.972727 206.465621 
z
" style="fill:#d95f02;opacity:0.6;stroke:#000000;stroke-linejoin:miter;stroke-width:0.5;"/>
   </g>
   <g id="patch_55">
    <path clip-path="url(#p76332108f9)" d="M 301.729293 325.980807 
L 311.485859 325.980807 
L 311.485859 119.545487 
L 301.729293 119.545487 
z
" style="fill:#d95f02;opacity:0.6;stroke:#000000;stroke-linejoin:miter;stroke-width:0.5;"/>
   </g>
   <g id="patch_56">
    <path clip-path="url(#p76332108f9)" d="M 311.485859 325.980807 
L 321.242424 325.980807 
L 321.242424 62.202342 
L 311.485859 62.202342 
z
" style="fill:#d95f02;opacity:0.6;stroke:#000000;stroke-linejoin:miter;stroke-width:0.5;"/>
   </g>
   <g id="patch_57">
    <path clip-path="url(#p76332108f9)" d="M 321.242424 325.980807 
L 330.99899 325.980807 
L 330.99899 19.345886 
L 321.242424 19.345886 
z
" style="fill:#d95f02;opacity:0.6;stroke:#000000;stroke-linejoin:miter;stroke-width:0.5;"/>
   </g>
   <g id="patch_58">
    <path clip-path="url(#p76332108f9)" d="M 330.99899 325.980807 
L 340.755556 325.980807 
L 340.755556 25.382007 
L 330.99899 25.382007 
z
" style="fill:#d95f02;opacity:0.6;stroke:#000000;stroke-linejoin:miter;stroke-width:0.5;"/>
   </g>
   <g id="patch_59">
    <path clip-path="url(#p76332108f9)" d="M 340.755556 325.980807 
L 350.512121 325.980807 
L 350.512121 114.71659 
L 340.755556 114.71659 
z
" style="fill:#d95f02;opacity:0.6;stroke:#000000;stroke-linejoin:miter;stroke-width:0.5;"/>
   </g>
   <g id="patch_60">
    <path clip-path="url(#p76332108f9)" d="M 350.512121 325.980807 
L 360.268687 325.980807 
L 360.268687 198.618665 
L 350.512121 198.618665 
z
" style="fill:#d95f02;opacity:0.6;stroke:#000000;stroke-linejoin:miter;stroke-width:0.5;"/>
   </g>
   <g id="patch_61">
    <path clip-path="url(#p76332108f9)" d="M 360.268687 325.980807 
L 370.025253 325.980807 
L 370.025253 285.5388 
L 360.268687 285.5388 
z
" style="fill:#d95f02;opacity:0.6;stroke:#000000;stroke-linejoin:miter;stroke-width:0.5;"/>
   </g>
   <g id="patch_62">
    <path clip-path="url(#p76332108f9)" d="M 370.025253 325.980807 
L 379.781818 325.980807 
L 379.781818 311.494118 
L 370.025253 311.494118 
z
" style="fill:#d95f02;opacity:0.6;stroke:#000000;stroke-linejoin:miter;stroke-width:0.5;"/>
   </g>
   <g id="patch_63">
    <path clip-path="url(#p76332108f9)" d="M 87.084848 325.980807 
L 96.841414 325.980807 
L 96.841414 324.99281 
L 87.084848 324.99281 
z
" style="fill:#1b9e77;opacity:0.6;stroke:#000000;stroke-linejoin:miter;stroke-width:0.5;"/>
   </g>
   <g id="patch_64">
    <path clip-path="url(#p76332108f9)" d="M 96.841414 325.980807 
L 106.59798 325.980807 
L 106.59798 325.980807 
L 96.841414 325.980807 
z
" style="fill:#1b9e77;opacity:0.6;stroke:#000000;stroke-linejoin:miter;stroke-width:0.5;"/>
   </g>
   <g id="patch_65">
    <path clip-path="url(#p76332108f9)" d="M 106.59798 325.980807 
L 116.354545 325.980807 
L 116.354545 325.980807 
L 106.59798 325.980807 
z
" style="fill:#1b9e77;opacity:0.6;stroke:#000000;stroke-linejoin:miter;stroke-width:0.5;"/>
   </g>
   <g id="patch_66">
    <path clip-path="url(#p76332108f9)" d="M 116.354545 325.980807 
L 126.111111 325.980807 
L 126.111111 325.980807 
L 116.354545 325.980807 
z
" style="fill:#1b9e77;opacity:0.6;stroke:#000000;stroke-linejoin:miter;stroke-width:0.5;"/>
   </g>
   <g id="patch_67">
    <path clip-path="url(#p76332108f9)" d="M 126.111111 325.980807 
L 135.867677 325.980807 
L 135.867677 325.980807 
L 126.111111 325.980807 
z
" style="fill:#1b9e77;opacity:0.6;stroke:#000000;stroke-linejoin:miter;stroke-width:0.5;"/>
   </g>
   <g id="patch_68">
    <path clip-path="url(#p76332108f9)" d="M 135.867677 325.980807 
L 145.624242 325.980807 
L 145.624242 325.980807 
L 135.867677 325.980807 
z
" style="fill:#1b9e77;opacity:0.6;stroke:#000000;stroke-linejoin:miter;stroke-width:0.5;"/>
   </g>
   <g id="patch_69">
    <path clip-path="url(#p76332108f9)" d="M 145.624242 325.980807 
L 155.380808 325.980807 
L 155.380808 325.980807 
L 145.624242 325.980807 
z
" style="fill:#1b9e77;opacity:0.6;stroke:#000000;stroke-linejoin:miter;stroke-width:0.5;"/>
   </g>
   <g id="patch_70">
    <path clip-path="url(#p76332108f9)" d="M 155.380808 325.980807 
L 165.137374 325.980807 
L 165.137374 325.980807 
L 155.380808 325.980807 
z
" style="fill:#1b9e77;opacity:0.6;stroke:#000000;stroke-linejoin:miter;stroke-width:0.5;"/>
   </g>
   <g id="patch_71">
    <path clip-path="url(#p76332108f9)" d="M 165.137374 325.980807 
L 174.893939 325.980807 
L 174.893939 325.980807 
L 165.137374 325.980807 
z
" style="fill:#1b9e77;opacity:0.6;stroke:#000000;stroke-linejoin:miter;stroke-width:0.5;"/>
   </g>
   <g id="patch_72">
    <path clip-path="url(#p76332108f9)" d="M 174.893939 325.980807 
L 184.650505 325.980807 
L 184.650505 325.486809 
L 174.893939 325.486809 
z
" style="fill:#1b9e77;opacity:0.6;stroke:#000000;stroke-linejoin:miter;stroke-width:0.5;"/>
   </g>
   <g id="patch_73">
    <path clip-path="url(#p76332108f9)" d="M 184.650505 325.980807 
L 194.407071 325.980807 
L 194.407071 324.004813 
L 184.650505 324.004813 
z
" style="fill:#1b9e77;opacity:0.6;stroke:#000000;stroke-linejoin:miter;stroke-width:0.5;"/>
   </g>
   <g id="patch_74">
    <path clip-path="url(#p76332108f9)" d="M 194.407071 325.980807 
L 204.163636 325.980807 
L 204.163636 324.498812 
L 194.407071 324.498812 
z
" style="fill:#1b9e77;opacity:0.6;stroke:#000000;stroke-linejoin:miter;stroke-width:0.5;"/>
   </g>
   <g id="patch_75">
    <path clip-path="url(#p76332108f9)" d="M 204.163636 325.980807 
L 213.920202 325.980807 
L 213.920202 324.99281 
L 204.163636 324.99281 
z
" style="fill:#1b9e77;opacity:0.6;stroke:#000000;stroke-linejoin:miter;stroke-width:0.5;"/>
   </g>
   <g id="patch_76">
    <path clip-path="url(#p76332108f9)" d="M 213.920202 325.980807 
L 223.676768 325.980807 
L 223.676768 320.546824 
L 213.920202 320.546824 
z
" style="fill:#1b9e77;opacity:0.6;stroke:#000000;stroke-linejoin:miter;stroke-width:0.5;"/>
   </g>
   <g id="patch_77">
    <path clip-path="url(#p76332108f9)" d="M 223.676768 325.980807 
L 233.433333 325.980807 
L 233.433333 321.534821 
L 223.676768 321.534821 
z
" style="fill:#1b9e77;opacity:0.6;stroke:#000000;stroke-linejoin:miter;stroke-width:0.5;"/>
   </g>
   <g id="patch_78">
    <path clip-path="url(#p76332108f9)" d="M 233.433333 325.980807 
L 243.189899 325.980807 
L 243.189899 311.160853 
L 233.433333 311.160853 
z
" style="fill:#1b9e77;opacity:0.6;stroke:#000000;stroke-linejoin:miter;stroke-width:0.5;"/>
   </g>
   <g id="patch_79">
    <path clip-path="url(#p76332108f9)" d="M 243.189899 325.980807 
L 252.946465 325.980807 
L 252.946465 302.762879 
L 243.189899 302.762879 
z
" style="fill:#1b9e77;opacity:0.6;stroke:#000000;stroke-linejoin:miter;stroke-width:0.5;"/>
   </g>
   <g id="patch_80">
    <path clip-path="url(#p76332108f9)" d="M 252.946465 325.980807 
L 262.70303 325.980807 
L 262.70303 297.822895 
L 252.946465 297.822895 
z
" style="fill:#1b9e77;opacity:0.6;stroke:#000000;stroke-linejoin:miter;stroke-width:0.5;"/>
   </g>
   <g id="patch_81">
    <path clip-path="url(#p76332108f9)" d="M 262.70303 325.980807 
L 272.459596 325.980807 
L 272.459596 275.592964 
L 262.70303 275.592964 
z
" style="fill:#1b9e77;opacity:0.6;stroke:#000000;stroke-linejoin:miter;stroke-width:0.5;"/>
   </g>
   <g id="patch_82">
    <path clip-path="url(#p76332108f9)" d="M 272.459596 325.980807 
L 282.216162 325.980807 
L 282.216162 250.893041 
L 272.459596 250.893041 
z
" style="fill:#1b9e77;opacity:0.6;stroke:#000000;stroke-linejoin:miter;stroke-width:0.5;"/>
   </g>
   <g id="patch_83">
    <path clip-path="url(#p76332108f9)" d="M 282.216162 325.980807 
L 291.972727 325.980807 
L 291.972727 216.313149 
L 282.216162 216.313149 
z
" style="fill:#1b9e77;opacity:0.6;stroke:#000000;stroke-linejoin:miter;stroke-width:0.5;"/>
   </g>
   <g id="patch_84">
    <path clip-path="url(#p76332108f9)" d="M 291.972727 325.980807 
L 301.729293 325.980807 
L 301.729293 152.093349 
L 291.972727 152.093349 
z
" style="fill:#1b9e77;opacity:0.6;stroke:#000000;stroke-linejoin:miter;stroke-width:0.5;"/>
   </g>
   <g id="patch_85">
    <path clip-path="url(#p76332108f9)" d="M 301.729293 325.980807 
L 311.485859 325.980807 
L 311.485859 110.597479 
L 301.729293 110.597479 
z
" style="fill:#1b9e77;opacity:0.6;stroke:#000000;stroke-linejoin:miter;stroke-width:0.5;"/>
   </g>
   <g id="patch_86">
    <path clip-path="url(#p76332108f9)" d="M 311.485859 325.980807 
L 321.242424 325.980807 
L 321.242424 25.629743 
L 311.485859 25.629743 
z
" style="fill:#1b9e77;opacity:0.6;stroke:#000000;stroke-linejoin:miter;stroke-width:0.5;"/>
   </g>
   <g id="patch_87">
    <path clip-path="url(#p76332108f9)" d="M 321.242424 325.980807 
L 330.99899 325.980807 
L 330.99899 62.679628 
L 321.242424 62.679628 
z
" style="fill:#1b9e77;opacity:0.6;stroke:#000000;stroke-linejoin:miter;stroke-width:0.5;"/>
   </g>
   <g id="patch_88">
    <path clip-path="url(#p76332108f9)" d="M 330.99899 325.980807 
L 340.755556 325.980807 
L 340.755556 68.113611 
L 330.99899 68.113611 
z
" style="fill:#1b9e77;opacity:0.6;stroke:#000000;stroke-linejoin:miter;stroke-width:0.5;"/>
   </g>
   <g id="patch_89">
    <path clip-path="url(#p76332108f9)" d="M 340.755556 325.980807 
L 350.512121 325.980807 
L 350.512121 170.371292 
L 340.755556 170.371292 
z
" style="fill:#1b9e77;opacity:0.6;stroke:#000000;stroke-linejoin:miter;stroke-width:0.5;"/>
   </g>
   <g id="patch_90">
    <path clip-path="url(#p76332108f9)" d="M 350.512121 325.980807 
L 360.268687 325.980807 
L 360.268687 235.579089 
L 350.512121 235.579089 
z
" style="fill:#1b9e77;opacity:0.6;stroke:#000000;stroke-linejoin:miter;stroke-width:0.5;"/>
   </g>
   <g id="patch_91">
    <path clip-path="url(#p76332108f9)" d="M 360.268687 325.980807 
L 370.025253 325.980807 
L 370.025253 292.388912 
L 360.268687 292.388912 
z
" style="fill:#1b9e77;opacity:0.6;stroke:#000000;stroke-linejoin:miter;stroke-width:0.5;"/>
   </g>
   <g id="patch_92">
    <path clip-path="url(#p76332108f9)" d="M 370.025253 325.980807 
L 379.781818 325.980807 
L 379.781818 313.630846 
L 370.025253 313.630846 
z
" style="fill:#1b9e77;opacity:0.6;stroke:#000000;stroke-linejoin:miter;stroke-width:0.5;"/>
   </g>
   <g id="matplotlib.axis_1">
    <g id="xtick_1">
     <g id="line2d_1">
      <defs>
       <path d="M 0 0 
L 0 3.5 
" id="m6cd3de2f0c" style="stroke:#000000;stroke-width:1.6;"/>
      </defs>
      <g>
       <use style="stroke:#000000;stroke-width:1.6;" x="87.084848" xlink:href="#m6cd3de2f0c" y="325.980807"/>
      </g>
     </g>
     <g id="text_1">
      <!-- −1.0 -->
      <defs>
       <path d="M 10.59375 35.5 
L 73.1875 35.5 
L 73.1875 27.203125 
L 10.59375 27.203125 
z
" id="DejaVuSans-8722"/>
       <path d="M 12.40625 8.296875 
L 28.515625 8.296875 
L 28.515625 63.921875 
L 10.984375 60.40625 
L 10.984375 69.390625 
L 28.421875 72.90625 
L 38.28125 72.90625 
L 38.28125 8.296875 
L 54.390625 8.296875 
L 54.390625 0 
L 12.40625 0 
z
" id="DejaVuSans-49"/>
       <path d="M 10.6875 12.40625 
L 21 12.40625 
L 21 0 
L 10.6875 0 
z
" id="DejaVuSans-46"/>
       <path d="M 31.78125 66.40625 
Q 24.171875 66.40625 20.328125 58.90625 
Q 16.5 51.421875 16.5 36.375 
Q 16.5 21.390625 20.328125 13.890625 
Q 24.171875 6.390625 31.78125 6.390625 
Q 39.453125 6.390625 43.28125 13.890625 
Q 47.125 21.390625 47.125 36.375 
Q 47.125 51.421875 43.28125 58.90625 
Q 39.453125 66.40625 31.78125 66.40625 
z
M 31.78125 74.21875 
Q 44.046875 74.21875 50.515625 64.515625 
Q 56.984375 54.828125 56.984375 36.375 
Q 56.984375 17.96875 50.515625 8.265625 
Q 44.046875 -1.421875 31.78125 -1.421875 
Q 19.53125 -1.421875 13.0625 8.265625 
Q 6.59375 17.96875 6.59375 36.375 
Q 6.59375 54.828125 13.0625 64.515625 
Q 19.53125 74.21875 31.78125 74.21875 
z
" id="DejaVuSans-48"/>
      </defs>
      <g transform="translate(62.802036 355.877682)scale(0.2 -0.2)">
       <use xlink:href="#DejaVuSans-8722"/>
       <use x="83.789062" xlink:href="#DejaVuSans-49"/>
       <use x="147.412109" xlink:href="#DejaVuSans-46"/>
       <use x="179.199219" xlink:href="#DejaVuSans-48"/>
      </g>
     </g>
    </g>
    <g id="xtick_2">
     <g id="line2d_2">
      <g>
       <use style="stroke:#000000;stroke-width:1.6;" x="160.259091" xlink:href="#m6cd3de2f0c" y="325.980807"/>
      </g>
     </g>
     <g id="text_2">
      <!-- −0.5 -->
      <defs>
       <path d="M 10.796875 72.90625 
L 49.515625 72.90625 
L 49.515625 64.59375 
L 19.828125 64.59375 
L 19.828125 46.734375 
Q 21.96875 47.46875 24.109375 47.828125 
Q 26.265625 48.1875 28.421875 48.1875 
Q 40.625 48.1875 47.75 41.5 
Q 54.890625 34.8125 54.890625 23.390625 
Q 54.890625 11.625 47.5625 5.09375 
Q 40.234375 -1.421875 26.90625 -1.421875 
Q 22.3125 -1.421875 17.546875 -0.640625 
Q 12.796875 0.140625 7.71875 1.703125 
L 7.71875 11.625 
Q 12.109375 9.234375 16.796875 8.0625 
Q 21.484375 6.890625 26.703125 6.890625 
Q 35.15625 6.890625 40.078125 11.328125 
Q 45.015625 15.765625 45.015625 23.390625 
Q 45.015625 31 40.078125 35.4375 
Q 35.15625 39.890625 26.703125 39.890625 
Q 22.75 39.890625 18.8125 39.015625 
Q 14.890625 38.140625 10.796875 36.28125 
z
" id="DejaVuSans-53"/>
      </defs>
      <g transform="translate(135.976278 355.877682)scale(0.2 -0.2)">
       <use xlink:href="#DejaVuSans-8722"/>
       <use x="83.789062" xlink:href="#DejaVuSans-48"/>
       <use x="147.412109" xlink:href="#DejaVuSans-46"/>
       <use x="179.199219" xlink:href="#DejaVuSans-53"/>
      </g>
     </g>
    </g>
    <g id="xtick_3">
     <g id="line2d_3">
      <g>
       <use style="stroke:#000000;stroke-width:1.6;" x="233.433333" xlink:href="#m6cd3de2f0c" y="325.980807"/>
      </g>
     </g>
     <g id="text_3">
      <!-- 0.0 -->
      <g transform="translate(217.530208 355.877682)scale(0.2 -0.2)">
       <use xlink:href="#DejaVuSans-48"/>
       <use x="63.623047" xlink:href="#DejaVuSans-46"/>
       <use x="95.410156" xlink:href="#DejaVuSans-48"/>
      </g>
     </g>
    </g>
    <g id="xtick_4">
     <g id="line2d_4">
      <g>
       <use style="stroke:#000000;stroke-width:1.6;" x="306.607576" xlink:href="#m6cd3de2f0c" y="325.980807"/>
      </g>
     </g>
     <g id="text_4">
      <!-- 0.5 -->
      <g transform="translate(290.704451 355.877682)scale(0.2 -0.2)">
       <use xlink:href="#DejaVuSans-48"/>
       <use x="63.623047" xlink:href="#DejaVuSans-46"/>
       <use x="95.410156" xlink:href="#DejaVuSans-53"/>
      </g>
     </g>
    </g>
    <g id="xtick_5">
     <g id="line2d_5">
      <g>
       <use style="stroke:#000000;stroke-width:1.6;" x="379.781818" xlink:href="#m6cd3de2f0c" y="325.980807"/>
      </g>
     </g>
     <g id="text_5">
      <!-- 1.0 -->
      <g transform="translate(363.878693 355.877682)scale(0.2 -0.2)">
       <use xlink:href="#DejaVuSans-49"/>
       <use x="63.623047" xlink:href="#DejaVuSans-46"/>
       <use x="95.410156" xlink:href="#DejaVuSans-48"/>
      </g>
     </g>
    </g>
   </g>
   <g id="matplotlib.axis_2">
    <g id="ytick_1">
     <g id="line2d_6">
      <defs>
       <path d="M 0 0 
L -3.5 0 
" id="m11fe4fa3e7" style="stroke:#000000;stroke-width:1.6;"/>
      </defs>
      <g>
       <use style="stroke:#000000;stroke-width:1.6;" x="72.45" xlink:href="#m11fe4fa3e7" y="325.980807"/>
      </g>
     </g>
     <g id="text_6">
      <!-- 0.000 -->
      <g transform="translate(0.49375 333.579245)scale(0.2 -0.2)">
       <use xlink:href="#DejaVuSans-48"/>
       <use x="63.623047" xlink:href="#DejaVuSans-46"/>
       <use x="95.410156" xlink:href="#DejaVuSans-48"/>
       <use x="159.033203" xlink:href="#DejaVuSans-48"/>
       <use x="222.65625" xlink:href="#DejaVuSans-48"/>
      </g>
     </g>
    </g>
    <g id="ytick_2">
     <g id="line2d_7">
      <g>
       <use style="stroke:#000000;stroke-width:1.6;" x="72.45" xlink:href="#m11fe4fa3e7" y="280.483549"/>
      </g>
     </g>
     <g id="text_7">
      <!-- 0.025 -->
      <defs>
       <path d="M 19.1875 8.296875 
L 53.609375 8.296875 
L 53.609375 0 
L 7.328125 0 
L 7.328125 8.296875 
Q 12.9375 14.109375 22.625 23.890625 
Q 32.328125 33.6875 34.8125 36.53125 
Q 39.546875 41.84375 41.421875 45.53125 
Q 43.3125 49.21875 43.3125 52.78125 
Q 43.3125 58.59375 39.234375 62.25 
Q 35.15625 65.921875 28.609375 65.921875 
Q 23.96875 65.921875 18.8125 64.3125 
Q 13.671875 62.703125 7.8125 59.421875 
L 7.8125 69.390625 
Q 13.765625 71.78125 18.9375 73 
Q 24.125 74.21875 28.421875 74.21875 
Q 39.75 74.21875 46.484375 68.546875 
Q 53.21875 62.890625 53.21875 53.421875 
Q 53.21875 48.921875 51.53125 44.890625 
Q 49.859375 40.875 45.40625 35.40625 
Q 44.1875 33.984375 37.640625 27.21875 
Q 31.109375 20.453125 19.1875 8.296875 
z
" id="DejaVuSans-50"/>
      </defs>
      <g transform="translate(0.49375 288.081986)scale(0.2 -0.2)">
       <use xlink:href="#DejaVuSans-48"/>
       <use x="63.623047" xlink:href="#DejaVuSans-46"/>
       <use x="95.410156" xlink:href="#DejaVuSans-48"/>
       <use x="159.033203" xlink:href="#DejaVuSans-50"/>
       <use x="222.65625" xlink:href="#DejaVuSans-53"/>
      </g>
     </g>
    </g>
    <g id="ytick_3">
     <g id="line2d_8">
      <g>
       <use style="stroke:#000000;stroke-width:1.6;" x="72.45" xlink:href="#m11fe4fa3e7" y="234.986291"/>
      </g>
     </g>
     <g id="text_8">
      <!-- 0.050 -->
      <g transform="translate(0.49375 242.584728)scale(0.2 -0.2)">
       <use xlink:href="#DejaVuSans-48"/>
       <use x="63.623047" xlink:href="#DejaVuSans-46"/>
       <use x="95.410156" xlink:href="#DejaVuSans-48"/>
       <use x="159.033203" xlink:href="#DejaVuSans-53"/>
       <use x="222.65625" xlink:href="#DejaVuSans-48"/>
      </g>
     </g>
    </g>
    <g id="ytick_4">
     <g id="line2d_9">
      <g>
       <use style="stroke:#000000;stroke-width:1.6;" x="72.45" xlink:href="#m11fe4fa3e7" y="189.489033"/>
      </g>
     </g>
     <g id="text_9">
      <!-- 0.075 -->
      <defs>
       <path d="M 8.203125 72.90625 
L 55.078125 72.90625 
L 55.078125 68.703125 
L 28.609375 0 
L 18.3125 0 
L 43.21875 64.59375 
L 8.203125 64.59375 
z
" id="DejaVuSans-55"/>
      </defs>
      <g transform="translate(0.49375 197.08747)scale(0.2 -0.2)">
       <use xlink:href="#DejaVuSans-48"/>
       <use x="63.623047" xlink:href="#DejaVuSans-46"/>
       <use x="95.410156" xlink:href="#DejaVuSans-48"/>
       <use x="159.033203" xlink:href="#DejaVuSans-55"/>
       <use x="222.65625" xlink:href="#DejaVuSans-53"/>
      </g>
     </g>
    </g>
    <g id="ytick_5">
     <g id="line2d_10">
      <g>
       <use style="stroke:#000000;stroke-width:1.6;" x="72.45" xlink:href="#m11fe4fa3e7" y="143.991774"/>
      </g>
     </g>
     <g id="text_10">
      <!-- 0.100 -->
      <g transform="translate(0.49375 151.590212)scale(0.2 -0.2)">
       <use xlink:href="#DejaVuSans-48"/>
       <use x="63.623047" xlink:href="#DejaVuSans-46"/>
       <use x="95.410156" xlink:href="#DejaVuSans-49"/>
       <use x="159.033203" xlink:href="#DejaVuSans-48"/>
       <use x="222.65625" xlink:href="#DejaVuSans-48"/>
      </g>
     </g>
    </g>
    <g id="ytick_6">
     <g id="line2d_11">
      <g>
       <use style="stroke:#000000;stroke-width:1.6;" x="72.45" xlink:href="#m11fe4fa3e7" y="98.494516"/>
      </g>
     </g>
     <g id="text_11">
      <!-- 0.125 -->
      <g transform="translate(0.49375 106.092954)scale(0.2 -0.2)">
       <use xlink:href="#DejaVuSans-48"/>
       <use x="63.623047" xlink:href="#DejaVuSans-46"/>
       <use x="95.410156" xlink:href="#DejaVuSans-49"/>
       <use x="159.033203" xlink:href="#DejaVuSans-50"/>
       <use x="222.65625" xlink:href="#DejaVuSans-53"/>
      </g>
     </g>
    </g>
    <g id="ytick_7">
     <g id="line2d_12">
      <g>
       <use style="stroke:#000000;stroke-width:1.6;" x="72.45" xlink:href="#m11fe4fa3e7" y="52.997258"/>
      </g>
     </g>
     <g id="text_12">
      <!-- 0.150 -->
      <g transform="translate(0.49375 60.595696)scale(0.2 -0.2)">
       <use xlink:href="#DejaVuSans-48"/>
       <use x="63.623047" xlink:href="#DejaVuSans-46"/>
       <use x="95.410156" xlink:href="#DejaVuSans-49"/>
       <use x="159.033203" xlink:href="#DejaVuSans-53"/>
       <use x="222.65625" xlink:href="#DejaVuSans-48"/>
      </g>
     </g>
    </g>
    <g id="ytick_8">
     <g id="line2d_13">
      <g>
       <use style="stroke:#000000;stroke-width:1.6;" x="72.45" xlink:href="#m11fe4fa3e7" y="7.5"/>
      </g>
     </g>
     <g id="text_13">
      <!-- 0.175 -->
      <g transform="translate(0.49375 15.098437)scale(0.2 -0.2)">
       <use xlink:href="#DejaVuSans-48"/>
       <use x="63.623047" xlink:href="#DejaVuSans-46"/>
       <use x="95.410156" xlink:href="#DejaVuSans-49"/>
       <use x="159.033203" xlink:href="#DejaVuSans-55"/>
       <use x="222.65625" xlink:href="#DejaVuSans-53"/>
      </g>
     </g>
    </g>
   </g>
   <g id="patch_93">
    <path d="M 72.45 325.980807 
L 72.45 4.01414 
" style="fill:none;stroke:#000000;stroke-linecap:square;stroke-linejoin:miter;stroke-width:0.8;"/>
   </g>
   <g id="patch_94">
    <path d="M 72.45 325.980807 
L 394.416667 325.980807 
" style="fill:none;stroke:#000000;stroke-linecap:square;stroke-linejoin:miter;stroke-width:0.8;"/>
   </g>
  </g>
 </g>
 <defs>
  <clipPath id="p76332108f9">
   <rect height="321.966667" width="321.966667" x="72.45" y="4.01414"/>
  </clipPath>
 </defs>
</svg>
