<?xml version="1.0" encoding="utf-8" standalone="no"?>
<!DOCTYPE svg PUBLIC "-//W3C//DTD SVG 1.1//EN"
  "http://www.w3.org/Graphics/SVG/1.1/DTD/svg11.dtd">
<!-- Created with matplotlib (https://matplotlib.org/) -->
<svg height="358.896718pt" version="1.1" viewBox="0 0 371.891667 358.896718" width="371.891667pt" xmlns="http://www.w3.org/2000/svg" xmlns:xlink="http://www.w3.org/1999/xlink">
 <defs>
  <style type="text/css">
*{stroke-linecap:butt;stroke-linejoin:round;}
  </style>
 </defs>
 <g id="figure_1">
  <g id="patch_1">
   <path d="M -0 358.896718 
L 371.891667 358.896718 
L 371.891667 0 
L -0 0 
z
" style="fill:#ffffff;"/>
  </g>
  <g id="axes_1">
   <g id="patch_2">
    <path d="M -309.666667 325.196718 
L 12.025 325.196718 
L 12.025 3.505051 
L -309.666667 3.505051 
z
" style="fill:#ffffff;"/>
   </g>
   <g id="matplotlib.axis_1">
    <g id="xtick_1">
     <g id="line2d_1">
      <defs>
       <path d="M 0 0 
L 0 3.5 
" id="md97f4600bf" style="stroke:#000000;stroke-width:1.6;"/>
      </defs>
      <g/>
     </g>
     <g id="text_1">
      <!-- 0.0 -->
      <defs>
       <path d="M 31.78125 66.40625 
Q 24.171875 66.40625 20.328125 58.90625 
Q 16.5 51.421875 16.5 36.375 
Q 16.5 21.390625 20.328125 13.890625 
Q 24.171875 6.390625 31.78125 6.390625 
Q 39.453125 6.390625 43.28125 13.890625 
Q 47.125 21.390625 47.125 36.375 
Q 47.125 51.421875 43.28125 58.90625 
Q 39.453125 66.40625 31.78125 66.40625 
z
M 31.78125 74.21875 
Q 44.046875 74.21875 50.515625 64.515625 
Q 56.984375 54.828125 56.984375 36.375 
Q 56.984375 17.96875 50.515625 8.265625 
Q 44.046875 -1.421875 31.78125 -1.421875 
Q 19.53125 -1.421875 13.0625 8.265625 
Q 6.59375 17.96875 6.59375 36.375 
Q 6.59375 54.828125 13.0625 64.515625 
Q 19.53125 74.21875 31.78125 74.21875 
z
" id="DejaVuSans-48"/>
       <path d="M 10.6875 12.40625 
L 21 12.40625 
L 21 0 
L 10.6875 0 
z
" id="DejaVuSans-46"/>
      </defs>
      <g transform="translate(-247.600746 355.093593)scale(0.2 -0.2)">
       <use xlink:href="#DejaVuSans-48"/>
       <use x="63.623047" xlink:href="#DejaVuSans-46"/>
       <use x="95.410156" xlink:href="#DejaVuSans-48"/>
      </g>
     </g>
    </g>
    <g id="xtick_2">
     <g id="line2d_2">
      <g/>
     </g>
     <g id="text_2">
      <!-- 0.5 -->
      <defs>
       <path d="M 10.796875 72.90625 
L 49.515625 72.90625 
L 49.515625 64.59375 
L 19.828125 64.59375 
L 19.828125 46.734375 
Q 21.96875 47.46875 24.109375 47.828125 
Q 26.265625 48.1875 28.421875 48.1875 
Q 40.625 48.1875 47.75 41.5 
Q 54.890625 34.8125 54.890625 23.390625 
Q 54.890625 11.625 47.5625 5.09375 
Q 40.234375 -1.421875 26.90625 -1.421875 
Q 22.3125 -1.421875 17.546875 -0.640625 
Q 12.796875 0.140625 7.71875 1.703125 
L 7.71875 11.625 
Q 12.109375 9.234375 16.796875 8.0625 
Q 21.484375 6.890625 26.703125 6.890625 
Q 35.15625 6.890625 40.078125 11.328125 
Q 45.015625 15.765625 45.015625 23.390625 
Q 45.015625 31 40.078125 35.4375 
Q 35.15625 39.890625 26.703125 39.890625 
Q 22.75 39.890625 18.8125 39.015625 
Q 14.890625 38.140625 10.796875 36.28125 
z
" id="DejaVuSans-53"/>
      </defs>
      <g transform="translate(-119.243011 355.093593)scale(0.2 -0.2)">
       <use xlink:href="#DejaVuSans-48"/>
       <use x="63.623047" xlink:href="#DejaVuSans-46"/>
       <use x="95.410156" xlink:href="#DejaVuSans-53"/>
      </g>
     </g>
    </g>
    <g id="text_3">
     <!--   -->
     <defs>
      <path id="DejaVuSans-32"/>
     </defs>
     <g transform="translate(-151.617583 376.626218)scale(0.176 -0.176)">
      <use xlink:href="#DejaVuSans-32"/>
     </g>
    </g>
   </g>
   <g id="matplotlib.axis_2">
    <g id="ytick_1">
     <g id="line2d_3">
      <defs>
       <path d="M 0 0 
L -3.5 0 
" id="m08beac3dc3" style="stroke:#000000;stroke-width:1.6;"/>
      </defs>
      <g/>
     </g>
     <g id="text_4">
      <!-- 0 -->
      <g transform="translate(-337.091667 332.795155)scale(0.2 -0.2)">
       <use xlink:href="#DejaVuSans-48"/>
      </g>
     </g>
    </g>
    <g id="ytick_2">
     <g id="line2d_4">
      <g/>
     </g>
     <g id="text_5">
      <!-- 1 -->
      <defs>
       <path d="M 12.40625 8.296875 
L 28.515625 8.296875 
L 28.515625 63.921875 
L 10.984375 60.40625 
L 10.984375 69.390625 
L 28.421875 72.90625 
L 38.28125 72.90625 
L 38.28125 8.296875 
L 54.390625 8.296875 
L 54.390625 0 
L 12.40625 0 
z
" id="DejaVuSans-49"/>
      </defs>
      <g transform="translate(-337.091667 288.872033)scale(0.2 -0.2)">
       <use xlink:href="#DejaVuSans-49"/>
      </g>
     </g>
    </g>
    <g id="ytick_3">
     <g id="line2d_5">
      <g/>
     </g>
     <g id="text_6">
      <!-- 2 -->
      <defs>
       <path d="M 19.1875 8.296875 
L 53.609375 8.296875 
L 53.609375 0 
L 7.328125 0 
L 7.328125 8.296875 
Q 12.9375 14.109375 22.625 23.890625 
Q 32.328125 33.6875 34.8125 36.53125 
Q 39.546875 41.84375 41.421875 45.53125 
Q 43.3125 49.21875 43.3125 52.78125 
Q 43.3125 58.59375 39.234375 62.25 
Q 35.15625 65.921875 28.609375 65.921875 
Q 23.96875 65.921875 18.8125 64.3125 
Q 13.671875 62.703125 7.8125 59.421875 
L 7.8125 69.390625 
Q 13.765625 71.78125 18.9375 73 
Q 24.125 74.21875 28.421875 74.21875 
Q 39.75 74.21875 46.484375 68.546875 
Q 53.21875 62.890625 53.21875 53.421875 
Q 53.21875 48.921875 51.53125 44.890625 
Q 49.859375 40.875 45.40625 35.40625 
Q 44.1875 33.984375 37.640625 27.21875 
Q 31.109375 20.453125 19.1875 8.296875 
z
" id="DejaVuSans-50"/>
      </defs>
      <g transform="translate(-337.091667 244.94891)scale(0.2 -0.2)">
       <use xlink:href="#DejaVuSans-50"/>
      </g>
     </g>
    </g>
    <g id="ytick_4">
     <g id="line2d_6">
      <g/>
     </g>
     <g id="text_7">
      <!-- 3 -->
      <defs>
       <path d="M 40.578125 39.3125 
Q 47.65625 37.796875 51.625 33 
Q 55.609375 28.21875 55.609375 21.1875 
Q 55.609375 10.40625 48.1875 4.484375 
Q 40.765625 -1.421875 27.09375 -1.421875 
Q 22.515625 -1.421875 17.65625 -0.515625 
Q 12.796875 0.390625 7.625 2.203125 
L 7.625 11.71875 
Q 11.71875 9.328125 16.59375 8.109375 
Q 21.484375 6.890625 26.8125 6.890625 
Q 36.078125 6.890625 40.9375 10.546875 
Q 45.796875 14.203125 45.796875 21.1875 
Q 45.796875 27.640625 41.28125 31.265625 
Q 36.765625 34.90625 28.71875 34.90625 
L 20.21875 34.90625 
L 20.21875 43.015625 
L 29.109375 43.015625 
Q 36.375 43.015625 40.234375 45.921875 
Q 44.09375 48.828125 44.09375 54.296875 
Q 44.09375 59.90625 40.109375 62.90625 
Q 36.140625 65.921875 28.71875 65.921875 
Q 24.65625 65.921875 20.015625 65.03125 
Q 15.375 64.15625 9.8125 62.3125 
L 9.8125 71.09375 
Q 15.4375 72.65625 20.34375 73.4375 
Q 25.25 74.21875 29.59375 74.21875 
Q 40.828125 74.21875 47.359375 69.109375 
Q 53.90625 64.015625 53.90625 55.328125 
Q 53.90625 49.265625 50.4375 45.09375 
Q 46.96875 40.921875 40.578125 39.3125 
z
" id="DejaVuSans-51"/>
      </defs>
      <g transform="translate(-337.091667 201.025788)scale(0.2 -0.2)">
       <use xlink:href="#DejaVuSans-51"/>
      </g>
     </g>
    </g>
    <g id="ytick_5">
     <g id="line2d_7">
      <g/>
     </g>
     <g id="text_8">
      <!-- 4 -->
      <defs>
       <path d="M 37.796875 64.3125 
L 12.890625 25.390625 
L 37.796875 25.390625 
z
M 35.203125 72.90625 
L 47.609375 72.90625 
L 47.609375 25.390625 
L 58.015625 25.390625 
L 58.015625 17.1875 
L 47.609375 17.1875 
L 47.609375 0 
L 37.796875 0 
L 37.796875 17.1875 
L 4.890625 17.1875 
L 4.890625 26.703125 
z
" id="DejaVuSans-52"/>
      </defs>
      <g transform="translate(-337.091667 157.102665)scale(0.2 -0.2)">
       <use xlink:href="#DejaVuSans-52"/>
      </g>
     </g>
    </g>
    <g id="ytick_6">
     <g id="line2d_8">
      <g/>
     </g>
     <g id="text_9">
      <!-- 5 -->
      <g transform="translate(-337.091667 113.179543)scale(0.2 -0.2)">
       <use xlink:href="#DejaVuSans-53"/>
      </g>
     </g>
    </g>
    <g id="ytick_7">
     <g id="line2d_9">
      <g/>
     </g>
     <g id="text_10">
      <!-- 6 -->
      <defs>
       <path d="M 33.015625 40.375 
Q 26.375 40.375 22.484375 35.828125 
Q 18.609375 31.296875 18.609375 23.390625 
Q 18.609375 15.53125 22.484375 10.953125 
Q 26.375 6.390625 33.015625 6.390625 
Q 39.65625 6.390625 43.53125 10.953125 
Q 47.40625 15.53125 47.40625 23.390625 
Q 47.40625 31.296875 43.53125 35.828125 
Q 39.65625 40.375 33.015625 40.375 
z
M 52.59375 71.296875 
L 52.59375 62.3125 
Q 48.875 64.0625 45.09375 64.984375 
Q 41.3125 65.921875 37.59375 65.921875 
Q 27.828125 65.921875 22.671875 59.328125 
Q 17.53125 52.734375 16.796875 39.40625 
Q 19.671875 43.65625 24.015625 45.921875 
Q 28.375 48.1875 33.59375 48.1875 
Q 44.578125 48.1875 50.953125 41.515625 
Q 57.328125 34.859375 57.328125 23.390625 
Q 57.328125 12.15625 50.6875 5.359375 
Q 44.046875 -1.421875 33.015625 -1.421875 
Q 20.359375 -1.421875 13.671875 8.265625 
Q 6.984375 17.96875 6.984375 36.375 
Q 6.984375 53.65625 15.1875 63.9375 
Q 23.390625 74.21875 37.203125 74.21875 
Q 40.921875 74.21875 44.703125 73.484375 
Q 48.484375 72.75 52.59375 71.296875 
z
" id="DejaVuSans-54"/>
      </defs>
      <g transform="translate(-337.091667 69.25642)scale(0.2 -0.2)">
       <use xlink:href="#DejaVuSans-54"/>
      </g>
     </g>
    </g>
    <g id="ytick_8">
     <g id="line2d_10">
      <g/>
     </g>
     <g id="text_11">
      <!-- 7 -->
      <defs>
       <path d="M 8.203125 72.90625 
L 55.078125 72.90625 
L 55.078125 68.703125 
L 28.609375 0 
L 18.3125 0 
L 43.21875 64.59375 
L 8.203125 64.59375 
z
" id="DejaVuSans-55"/>
      </defs>
      <g transform="translate(-337.091667 25.333298)scale(0.2 -0.2)">
       <use xlink:href="#DejaVuSans-55"/>
      </g>
     </g>
    </g>
    <g id="text_12">
     <!--   -->
     <g transform="translate(-344.751917 167.147635)rotate(-90)scale(0.176 -0.176)">
      <use xlink:href="#DejaVuSans-32"/>
     </g>
    </g>
   </g>
   <g id="line2d_11">
    <path clip-path="url(#pc3e0e0e2db)" d="M 0 0 
" style="fill:none;stroke:#000000;stroke-linecap:square;stroke-width:2;"/>
   </g>
   <g id="line2d_12">
    <path clip-path="url(#pc3e0e0e2db)" d="M 0 0 
" style="fill:none;stroke:#000000;stroke-dasharray:7.4,3.2;stroke-dashoffset:0;stroke-width:2;"/>
   </g>
   <g id="line2d_13">
    <path clip-path="url(#pc3e0e0e2db)" d="M 0 0 
" style="fill:none;stroke:#000000;stroke-dasharray:2,3.3;stroke-dashoffset:0;stroke-width:2;"/>
   </g>
   <g id="patch_3">
    <path style="fill:none;stroke:#000000;stroke-linecap:square;stroke-linejoin:miter;stroke-width:0.8;"/>
   </g>
   <g id="patch_4">
    <path d="M -1 325.196718 
L 12.025 325.196718 
" style="fill:none;stroke:#000000;stroke-linecap:square;stroke-linejoin:miter;stroke-width:0.8;"/>
   </g>
  </g>
  <g id="axes_2">
   <g id="patch_5">
    <path d="M 46.7 325.196718 
L 368.391667 325.196718 
L 368.391667 3.505051 
L 46.7 3.505051 
z
" style="fill:#ffffff;"/>
   </g>
   <g id="matplotlib.axis_3">
    <g id="xtick_3">
     <g id="line2d_14">
      <g>
       <use style="stroke:#000000;stroke-width:1.6;" x="73.364071" xlink:href="#md97f4600bf" y="325.196718"/>
      </g>
     </g>
     <g id="text_13">
      <!-- −0.25 -->
      <defs>
       <path d="M 10.59375 35.5 
L 73.1875 35.5 
L 73.1875 27.203125 
L 10.59375 27.203125 
z
" id="DejaVuSans-8722"/>
      </defs>
      <g transform="translate(42.718759 355.093593)scale(0.2 -0.2)">
       <use xlink:href="#DejaVuSans-8722"/>
       <use x="83.789062" xlink:href="#DejaVuSans-48"/>
       <use x="147.412109" xlink:href="#DejaVuSans-46"/>
       <use x="179.199219" xlink:href="#DejaVuSans-50"/>
       <use x="242.822266" xlink:href="#DejaVuSans-53"/>
      </g>
     </g>
    </g>
    <g id="xtick_4">
     <g id="line2d_15">
      <g>
       <use style="stroke:#000000;stroke-width:1.6;" x="138.824645" xlink:href="#md97f4600bf" y="325.196718"/>
      </g>
     </g>
     <g id="text_14">
      <!-- 0.00 -->
      <g transform="translate(116.55902 355.093593)scale(0.2 -0.2)">
       <use xlink:href="#DejaVuSans-48"/>
       <use x="63.623047" xlink:href="#DejaVuSans-46"/>
       <use x="95.410156" xlink:href="#DejaVuSans-48"/>
       <use x="159.033203" xlink:href="#DejaVuSans-48"/>
      </g>
     </g>
    </g>
    <g id="xtick_5">
     <g id="line2d_16">
      <g>
       <use style="stroke:#000000;stroke-width:1.6;" x="204.285218" xlink:href="#md97f4600bf" y="325.196718"/>
      </g>
     </g>
     <g id="text_15">
      <!-- 0.25 -->
      <g transform="translate(182.019593 355.093593)scale(0.2 -0.2)">
       <use xlink:href="#DejaVuSans-48"/>
       <use x="63.623047" xlink:href="#DejaVuSans-46"/>
       <use x="95.410156" xlink:href="#DejaVuSans-50"/>
       <use x="159.033203" xlink:href="#DejaVuSans-53"/>
      </g>
     </g>
    </g>
    <g id="xtick_6">
     <g id="line2d_17">
      <g>
       <use style="stroke:#000000;stroke-width:1.6;" x="269.745791" xlink:href="#md97f4600bf" y="325.196718"/>
      </g>
     </g>
     <g id="text_16">
      <!-- 0.50 -->
      <g transform="translate(247.480166 355.093593)scale(0.2 -0.2)">
       <use xlink:href="#DejaVuSans-48"/>
       <use x="63.623047" xlink:href="#DejaVuSans-46"/>
       <use x="95.410156" xlink:href="#DejaVuSans-53"/>
       <use x="159.033203" xlink:href="#DejaVuSans-48"/>
      </g>
     </g>
    </g>
    <g id="xtick_7">
     <g id="line2d_18">
      <g>
       <use style="stroke:#000000;stroke-width:1.6;" x="335.206364" xlink:href="#md97f4600bf" y="325.196718"/>
      </g>
     </g>
     <g id="text_17">
      <!-- 0.75 -->
      <g transform="translate(312.940739 355.093593)scale(0.2 -0.2)">
       <use xlink:href="#DejaVuSans-48"/>
       <use x="63.623047" xlink:href="#DejaVuSans-46"/>
       <use x="95.410156" xlink:href="#DejaVuSans-55"/>
       <use x="159.033203" xlink:href="#DejaVuSans-53"/>
      </g>
     </g>
    </g>
   </g>
   <g id="matplotlib.axis_4">
    <g id="ytick_9">
     <g id="line2d_19">
      <g>
       <use style="stroke:#000000;stroke-width:1.6;" x="46.7" xlink:href="#m08beac3dc3" y="325.196718"/>
      </g>
     </g>
     <g id="text_18">
      <!-- 0.0 -->
      <g transform="translate(0.19375 332.795155)scale(0.2 -0.2)">
       <use xlink:href="#DejaVuSans-48"/>
       <use x="63.623047" xlink:href="#DejaVuSans-46"/>
       <use x="95.410156" xlink:href="#DejaVuSans-48"/>
      </g>
     </g>
    </g>
    <g id="ytick_10">
     <g id="line2d_20">
      <g>
       <use style="stroke:#000000;stroke-width:1.6;" x="46.7" xlink:href="#m08beac3dc3" y="279.811472"/>
      </g>
     </g>
     <g id="text_19">
      <!-- 0.5 -->
      <g transform="translate(0.19375 287.40991)scale(0.2 -0.2)">
       <use xlink:href="#DejaVuSans-48"/>
       <use x="63.623047" xlink:href="#DejaVuSans-46"/>
       <use x="95.410156" xlink:href="#DejaVuSans-53"/>
      </g>
     </g>
    </g>
    <g id="ytick_11">
     <g id="line2d_21">
      <g>
       <use style="stroke:#000000;stroke-width:1.6;" x="46.7" xlink:href="#m08beac3dc3" y="234.426227"/>
      </g>
     </g>
     <g id="text_20">
      <!-- 1.0 -->
      <g transform="translate(0.19375 242.024665)scale(0.2 -0.2)">
       <use xlink:href="#DejaVuSans-49"/>
       <use x="63.623047" xlink:href="#DejaVuSans-46"/>
       <use x="95.410156" xlink:href="#DejaVuSans-48"/>
      </g>
     </g>
    </g>
    <g id="ytick_12">
     <g id="line2d_22">
      <g>
       <use style="stroke:#000000;stroke-width:1.6;" x="46.7" xlink:href="#m08beac3dc3" y="189.040982"/>
      </g>
     </g>
     <g id="text_21">
      <!-- 1.5 -->
      <g transform="translate(0.19375 196.639419)scale(0.2 -0.2)">
       <use xlink:href="#DejaVuSans-49"/>
       <use x="63.623047" xlink:href="#DejaVuSans-46"/>
       <use x="95.410156" xlink:href="#DejaVuSans-53"/>
      </g>
     </g>
    </g>
    <g id="ytick_13">
     <g id="line2d_23">
      <g>
       <use style="stroke:#000000;stroke-width:1.6;" x="46.7" xlink:href="#m08beac3dc3" y="143.655736"/>
      </g>
     </g>
     <g id="text_22">
      <!-- 2.0 -->
      <g transform="translate(0.19375 151.254174)scale(0.2 -0.2)">
       <use xlink:href="#DejaVuSans-50"/>
       <use x="63.623047" xlink:href="#DejaVuSans-46"/>
       <use x="95.410156" xlink:href="#DejaVuSans-48"/>
      </g>
     </g>
    </g>
    <g id="ytick_14">
     <g id="line2d_24">
      <g>
       <use style="stroke:#000000;stroke-width:1.6;" x="46.7" xlink:href="#m08beac3dc3" y="98.270491"/>
      </g>
     </g>
     <g id="text_23">
      <!-- 2.5 -->
      <g transform="translate(0.19375 105.868928)scale(0.2 -0.2)">
       <use xlink:href="#DejaVuSans-50"/>
       <use x="63.623047" xlink:href="#DejaVuSans-46"/>
       <use x="95.410156" xlink:href="#DejaVuSans-53"/>
      </g>
     </g>
    </g>
    <g id="ytick_15">
     <g id="line2d_25">
      <g>
       <use style="stroke:#000000;stroke-width:1.6;" x="46.7" xlink:href="#m08beac3dc3" y="52.885245"/>
      </g>
     </g>
     <g id="text_24">
      <!-- 3.0 -->
      <g transform="translate(0.19375 60.483683)scale(0.2 -0.2)">
       <use xlink:href="#DejaVuSans-51"/>
       <use x="63.623047" xlink:href="#DejaVuSans-46"/>
       <use x="95.410156" xlink:href="#DejaVuSans-48"/>
      </g>
     </g>
    </g>
    <g id="ytick_16">
     <g id="line2d_26">
      <g>
       <use style="stroke:#000000;stroke-width:1.6;" x="46.7" xlink:href="#m08beac3dc3" y="7.5"/>
      </g>
     </g>
     <g id="text_25">
      <!-- 3.5 -->
      <g transform="translate(0.19375 15.098437)scale(0.2 -0.2)">
       <use xlink:href="#DejaVuSans-51"/>
       <use x="63.623047" xlink:href="#DejaVuSans-46"/>
       <use x="95.410156" xlink:href="#DejaVuSans-53"/>
      </g>
     </g>
    </g>
   </g>
   <g id="line2d_27">
    <path clip-path="url(#pf74dd73606)" d="M 61.322348 325.176799 
L 67.857952 325.088468 
L 72.215022 324.891389 
L 76.572091 324.517593 
L 80.92916 323.957442 
L 85.28623 323.20598 
L 89.643299 322.150947 
L 91.821834 321.44109 
L 94.000368 320.568757 
L 96.178903 319.503676 
L 98.357438 318.212037 
L 100.535972 316.651917 
L 102.714507 314.773038 
L 104.893041 312.523607 
L 107.071576 309.862059 
L 109.250111 306.76734 
L 111.428645 303.241151 
L 113.60718 299.299536 
L 115.785715 294.956609 
L 117.964249 290.20643 
L 120.142784 285.008646 
L 122.321319 279.280861 
L 124.499853 272.898619 
L 126.678388 265.704083 
L 128.856923 257.525966 
L 131.035457 248.213545 
L 133.213992 237.684128 
L 135.392527 225.975715 
L 139.749596 199.98656 
L 144.106665 173.529481 
L 146.2852 161.30923 
L 148.463734 150.118744 
L 150.642269 139.923616 
L 154.999338 121.344498 
L 159.356408 102.551445 
L 161.534942 92.370423 
L 165.892012 70.469146 
L 170.249081 48.56865 
L 172.427616 38.835846 
L 174.60615 30.627184 
L 176.784685 24.385673 
L 178.963219 20.408992 
L 181.141754 18.822756 
L 183.320289 19.585339 
L 185.498823 22.517955 
L 187.677358 27.350994 
L 189.855893 33.776188 
L 192.034427 41.491387 
L 194.212962 50.223972 
L 196.391497 59.726865 
L 200.748566 80.072148 
L 211.641239 131.889483 
L 213.819774 143.1909 
L 218.176843 167.881613 
L 222.533912 193.289495 
L 224.712447 205.004585 
L 226.890982 215.524392 
L 229.069516 224.725774 
L 231.248051 232.733022 
L 233.426586 239.857624 
L 242.140724 266.691205 
L 246.497794 280.929354 
L 248.676328 287.686522 
L 250.854863 293.811936 
L 253.033398 299.092773 
L 255.211932 303.435231 
L 257.390467 306.869733 
L 259.569001 309.526642 
L 261.747536 311.595092 
L 263.926071 313.277798 
L 268.28314 316.139095 
L 272.640209 318.818749 
L 274.818744 320.05182 
L 276.997279 321.124249 
L 279.175813 321.971746 
L 281.354348 322.559381 
L 283.532883 322.892559 
L 285.711417 323.015908 
L 296.60409 322.982039 
L 307.496764 323.71801 
L 316.210902 324.047358 
L 331.460645 325.090645 
L 337.996249 325.176856 
L 337.996249 325.176856 
" style="fill:none;stroke:#000000;stroke-linecap:square;stroke-width:2;"/>
   </g>
   <g id="line2d_28">
    <path clip-path="url(#pf74dd73606)" d="M 101.553602 325.164319 
L 107.511454 325.013718 
L 111.483355 324.619511 
L 113.469305 324.237307 
L 115.455256 323.669004 
L 117.441206 322.861935 
L 119.427157 321.764915 
L 121.413107 320.334195 
L 123.399058 318.538549 
L 125.385008 316.361689 
L 127.370959 313.800544 
L 129.356909 310.85916 
L 131.34286 307.539934 
L 133.32881 303.836012 
L 135.314761 299.729743 
L 137.300711 295.200824 
L 139.286662 290.243694 
L 141.272612 284.888118 
L 145.244513 273.33986 
L 151.202365 255.761277 
L 155.174266 244.086923 
L 157.160217 237.721666 
L 159.146167 230.60024 
L 161.132118 222.45087 
L 163.118068 213.110427 
L 165.104019 202.573659 
L 167.089969 191.01047 
L 175.033771 142.073809 
L 177.019722 131.119405 
L 179.005672 121.050841 
L 182.977573 102.816777 
L 186.949474 84.747966 
L 190.921375 64.898276 
L 194.893276 44.87598 
L 196.879227 36.221634 
L 198.865178 29.292618 
L 200.851128 24.494937 
L 202.837079 21.959387 
L 204.823029 21.538932 
L 206.80898 22.87795 
L 208.79493 25.525802 
L 210.780881 29.056659 
L 212.766831 33.161176 
L 214.752782 37.690271 
L 216.738732 42.649731 
L 218.724683 48.15903 
L 220.710633 54.39373 
L 222.696584 61.528437 
L 224.682534 69.690257 
L 226.668485 78.926213 
L 228.654435 89.184946 
L 232.626336 112.069512 
L 238.584188 148.110618 
L 242.556089 170.4532 
L 246.52799 191.006924 
L 252.485842 220.155854 
L 256.457743 238.70998 
L 260.429644 255.851526 
L 262.415594 263.72063 
L 264.401545 271.082002 
L 266.387495 277.917562 
L 268.373446 284.198518 
L 270.359396 289.879236 
L 272.345347 294.90509 
L 274.331297 299.230709 
L 276.317248 302.840441 
L 278.303198 305.762301 
L 280.289149 308.069894 
L 282.275099 309.871817 
L 284.26105 311.292596 
L 286.247 312.451593 
L 290.218902 314.342373 
L 294.190803 315.959345 
L 298.162704 317.369699 
L 302.134605 318.567489 
L 306.106506 319.583266 
L 310.078407 320.409497 
L 314.050308 320.982367 
L 318.022209 321.291645 
L 325.966011 321.73634 
L 329.937912 322.277613 
L 335.895763 323.498996 
L 339.867665 324.262492 
L 343.839566 324.779471 
L 347.811467 325.04626 
L 353.769318 325.165384 
L 353.769318 325.165384 
" style="fill:none;stroke:#000000;stroke-dasharray:7.4,3.2;stroke-dashoffset:0;stroke-width:2;"/>
   </g>
   <g id="patch_6">
    <path d="M 46.7 325.196718 
L 46.7 3.505051 
" style="fill:none;stroke:#000000;stroke-linecap:square;stroke-linejoin:miter;stroke-width:0.8;"/>
   </g>
   <g id="patch_7">
    <path d="M 46.7 325.196718 
L 368.391667 325.196718 
" style="fill:none;stroke:#000000;stroke-linecap:square;stroke-linejoin:miter;stroke-width:0.8;"/>
   </g>
  </g>
 </g>
 <defs>
  <clipPath id="pc3e0e0e2db">
   <rect height="321.691667" width="321.691667" x="-309.666667" y="3.505051"/>
  </clipPath>
  <clipPath id="pf74dd73606">
   <rect height="321.691667" width="321.691667" x="46.7" y="3.505051"/>
  </clipPath>
 </defs>
</svg>
