<?xml version="1.0" encoding="utf-8" standalone="no"?>
<!DOCTYPE svg PUBLIC "-//W3C//DTD SVG 1.1//EN"
  "http://www.w3.org/Graphics/SVG/1.1/DTD/svg11.dtd">
<!-- Created with matplotlib (https://matplotlib.org/) -->
<svg height="336.061667pt" version="1.1" viewBox="0 0 349.061667 336.061667" width="349.061667pt" xmlns="http://www.w3.org/2000/svg" xmlns:xlink="http://www.w3.org/1999/xlink">
 <defs>
  <style type="text/css">
*{stroke-linecap:butt;stroke-linejoin:round;}
  </style>
 </defs>
 <g id="figure_1">
  <g id="patch_1">
   <path d="M 0 336.061667 
L 349.061667 336.061667 
L 349.061667 0 
L 0 0 
z
" style="fill:#ffffff;"/>
  </g>
  <g id="axes_1">
   <g id="patch_2">
    <path d="M -313.521667 302.361667 
L -14.66 302.361667 
L -14.66 3.5 
L -313.521667 3.5 
z
" style="fill:#ffffff;"/>
   </g>
   <g id="matplotlib.axis_1">
    <g id="xtick_1">
     <g id="line2d_1">
      <defs>
       <path d="M 0 0 
L 0 3.5 
" id="m5247b4fa1b" style="stroke:#000000;stroke-width:1.6;"/>
      </defs>
      <g/>
     </g>
     <g id="text_1">
      <!-- 0 -->
      <defs>
       <path d="M 31.78125 66.40625 
Q 24.171875 66.40625 20.328125 58.90625 
Q 16.5 51.421875 16.5 36.375 
Q 16.5 21.390625 20.328125 13.890625 
Q 24.171875 6.390625 31.78125 6.390625 
Q 39.453125 6.390625 43.28125 13.890625 
Q 47.125 21.390625 47.125 36.375 
Q 47.125 51.421875 43.28125 58.90625 
Q 39.453125 66.40625 31.78125 66.40625 
z
M 31.78125 74.21875 
Q 44.046875 74.21875 50.515625 64.515625 
Q 56.984375 54.828125 56.984375 36.375 
Q 56.984375 17.96875 50.515625 8.265625 
Q 44.046875 -1.421875 31.78125 -1.421875 
Q 19.53125 -1.421875 13.0625 8.265625 
Q 6.59375 17.96875 6.59375 36.375 
Q 6.59375 54.828125 13.0625 64.515625 
Q 19.53125 74.21875 31.78125 74.21875 
z
" id="DejaVuSans-48"/>
      </defs>
      <g transform="translate(-189.872156 332.258542)scale(0.2 -0.2)">
       <use xlink:href="#DejaVuSans-48"/>
      </g>
     </g>
    </g>
    <g id="xtick_2">
     <g id="line2d_2">
      <g/>
     </g>
     <g id="text_2">
      <!-- 1 -->
      <defs>
       <path d="M 12.40625 8.296875 
L 28.515625 8.296875 
L 28.515625 63.921875 
L 10.984375 60.40625 
L 10.984375 69.390625 
L 28.421875 72.90625 
L 38.28125 72.90625 
L 38.28125 8.296875 
L 54.390625 8.296875 
L 54.390625 0 
L 12.40625 0 
z
" id="DejaVuSans-49"/>
      </defs>
      <g transform="translate(-53.940398 332.258542)scale(0.2 -0.2)">
       <use xlink:href="#DejaVuSans-49"/>
      </g>
     </g>
    </g>
   </g>
   <g id="matplotlib.axis_2">
    <g id="ytick_1">
     <g id="line2d_3">
      <defs>
       <path d="M 0 0 
L -3.5 0 
" id="ma7190bd7fd" style="stroke:#000000;stroke-width:1.6;"/>
      </defs>
      <g/>
     </g>
     <g id="text_3">
      <!-- 0.0 -->
      <defs>
       <path d="M 10.6875 12.40625 
L 21 12.40625 
L 21 0 
L 10.6875 0 
z
" id="DejaVuSans-46"/>
      </defs>
      <g transform="translate(-360.027917 309.960104)scale(0.2 -0.2)">
       <use xlink:href="#DejaVuSans-48"/>
       <use x="63.623047" xlink:href="#DejaVuSans-46"/>
       <use x="95.410156" xlink:href="#DejaVuSans-48"/>
      </g>
     </g>
    </g>
    <g id="ytick_2">
     <g id="line2d_4">
      <g/>
     </g>
     <g id="text_4">
      <!-- 0.5 -->
      <defs>
       <path d="M 10.796875 72.90625 
L 49.515625 72.90625 
L 49.515625 64.59375 
L 19.828125 64.59375 
L 19.828125 46.734375 
Q 21.96875 47.46875 24.109375 47.828125 
Q 26.265625 48.1875 28.421875 48.1875 
Q 40.625 48.1875 47.75 41.5 
Q 54.890625 34.8125 54.890625 23.390625 
Q 54.890625 11.625 47.5625 5.09375 
Q 40.234375 -1.421875 26.90625 -1.421875 
Q 22.3125 -1.421875 17.546875 -0.640625 
Q 12.796875 0.140625 7.71875 1.703125 
L 7.71875 11.625 
Q 12.109375 9.234375 16.796875 8.0625 
Q 21.484375 6.890625 26.703125 6.890625 
Q 35.15625 6.890625 40.078125 11.328125 
Q 45.015625 15.765625 45.015625 23.390625 
Q 45.015625 31 40.078125 35.4375 
Q 35.15625 39.890625 26.703125 39.890625 
Q 22.75 39.890625 18.8125 39.015625 
Q 14.890625 38.140625 10.796875 36.28125 
z
" id="DejaVuSans-53"/>
      </defs>
      <g transform="translate(-360.027917 261.374685)scale(0.2 -0.2)">
       <use xlink:href="#DejaVuSans-48"/>
       <use x="63.623047" xlink:href="#DejaVuSans-46"/>
       <use x="95.410156" xlink:href="#DejaVuSans-53"/>
      </g>
     </g>
    </g>
    <g id="ytick_3">
     <g id="line2d_5">
      <g/>
     </g>
     <g id="text_5">
      <!-- 1.0 -->
      <g transform="translate(-360.027917 212.789266)scale(0.2 -0.2)">
       <use xlink:href="#DejaVuSans-49"/>
       <use x="63.623047" xlink:href="#DejaVuSans-46"/>
       <use x="95.410156" xlink:href="#DejaVuSans-48"/>
      </g>
     </g>
    </g>
    <g id="ytick_4">
     <g id="line2d_6">
      <g/>
     </g>
     <g id="text_6">
      <!-- 1.5 -->
      <g transform="translate(-360.027917 164.203847)scale(0.2 -0.2)">
       <use xlink:href="#DejaVuSans-49"/>
       <use x="63.623047" xlink:href="#DejaVuSans-46"/>
       <use x="95.410156" xlink:href="#DejaVuSans-53"/>
      </g>
     </g>
    </g>
    <g id="ytick_5">
     <g id="line2d_7">
      <g/>
     </g>
     <g id="text_7">
      <!-- 2.0 -->
      <defs>
       <path d="M 19.1875 8.296875 
L 53.609375 8.296875 
L 53.609375 0 
L 7.328125 0 
L 7.328125 8.296875 
Q 12.9375 14.109375 22.625 23.890625 
Q 32.328125 33.6875 34.8125 36.53125 
Q 39.546875 41.84375 41.421875 45.53125 
Q 43.3125 49.21875 43.3125 52.78125 
Q 43.3125 58.59375 39.234375 62.25 
Q 35.15625 65.921875 28.609375 65.921875 
Q 23.96875 65.921875 18.8125 64.3125 
Q 13.671875 62.703125 7.8125 59.421875 
L 7.8125 69.390625 
Q 13.765625 71.78125 18.9375 73 
Q 24.125 74.21875 28.421875 74.21875 
Q 39.75 74.21875 46.484375 68.546875 
Q 53.21875 62.890625 53.21875 53.421875 
Q 53.21875 48.921875 51.53125 44.890625 
Q 49.859375 40.875 45.40625 35.40625 
Q 44.1875 33.984375 37.640625 27.21875 
Q 31.109375 20.453125 19.1875 8.296875 
z
" id="DejaVuSans-50"/>
      </defs>
      <g transform="translate(-360.027917 115.618428)scale(0.2 -0.2)">
       <use xlink:href="#DejaVuSans-50"/>
       <use x="63.623047" xlink:href="#DejaVuSans-46"/>
       <use x="95.410156" xlink:href="#DejaVuSans-48"/>
      </g>
     </g>
    </g>
    <g id="ytick_6">
     <g id="line2d_8">
      <g/>
     </g>
     <g id="text_8">
      <!-- 2.5 -->
      <g transform="translate(-360.027917 67.033009)scale(0.2 -0.2)">
       <use xlink:href="#DejaVuSans-50"/>
       <use x="63.623047" xlink:href="#DejaVuSans-46"/>
       <use x="95.410156" xlink:href="#DejaVuSans-53"/>
      </g>
     </g>
    </g>
    <g id="ytick_7">
     <g id="line2d_9">
      <g/>
     </g>
     <g id="text_9">
      <!-- 3.0 -->
      <defs>
       <path d="M 40.578125 39.3125 
Q 47.65625 37.796875 51.625 33 
Q 55.609375 28.21875 55.609375 21.1875 
Q 55.609375 10.40625 48.1875 4.484375 
Q 40.765625 -1.421875 27.09375 -1.421875 
Q 22.515625 -1.421875 17.65625 -0.515625 
Q 12.796875 0.390625 7.625 2.203125 
L 7.625 11.71875 
Q 11.71875 9.328125 16.59375 8.109375 
Q 21.484375 6.890625 26.8125 6.890625 
Q 36.078125 6.890625 40.9375 10.546875 
Q 45.796875 14.203125 45.796875 21.1875 
Q 45.796875 27.640625 41.28125 31.265625 
Q 36.765625 34.90625 28.71875 34.90625 
L 20.21875 34.90625 
L 20.21875 43.015625 
L 29.109375 43.015625 
Q 36.375 43.015625 40.234375 45.921875 
Q 44.09375 48.828125 44.09375 54.296875 
Q 44.09375 59.90625 40.109375 62.90625 
Q 36.140625 65.921875 28.71875 65.921875 
Q 24.65625 65.921875 20.015625 65.03125 
Q 15.375 64.15625 9.8125 62.3125 
L 9.8125 71.09375 
Q 15.4375 72.65625 20.34375 73.4375 
Q 25.25 74.21875 29.59375 74.21875 
Q 40.828125 74.21875 47.359375 69.109375 
Q 53.90625 64.015625 53.90625 55.328125 
Q 53.90625 49.265625 50.4375 45.09375 
Q 46.96875 40.921875 40.578125 39.3125 
z
" id="DejaVuSans-51"/>
      </defs>
      <g transform="translate(-360.027917 18.447589)scale(0.2 -0.2)">
       <use xlink:href="#DejaVuSans-51"/>
       <use x="63.623047" xlink:href="#DejaVuSans-46"/>
       <use x="95.410156" xlink:href="#DejaVuSans-48"/>
      </g>
     </g>
    </g>
   </g>
   <g id="line2d_10">
    <path clip-path="url(#pc1596e0589)" d="M 0 0 
" style="fill:none;stroke:#000000;stroke-linecap:square;stroke-width:2;"/>
   </g>
   <g id="line2d_11">
    <path clip-path="url(#pc1596e0589)" d="M 0 0 
" style="fill:none;stroke:#000000;stroke-dasharray:7.4,3.2;stroke-dashoffset:0;stroke-width:2;"/>
   </g>
   <g id="line2d_12">
    <path clip-path="url(#pc1596e0589)" d="M 0 0 
" style="fill:none;stroke:#000000;stroke-dasharray:2,3.3;stroke-dashoffset:0;stroke-width:2;"/>
   </g>
   <g id="patch_3">
    <path style="fill:none;stroke:#000000;stroke-linecap:square;stroke-linejoin:miter;stroke-width:0.8;"/>
   </g>
   <g id="patch_4">
    <path style="fill:none;stroke:#000000;stroke-linecap:square;stroke-linejoin:miter;stroke-width:0.8;"/>
   </g>
  </g>
  <g id="axes_2">
   <g id="patch_5">
    <path d="M 46.7 302.361667 
L 345.561667 302.361667 
L 345.561667 3.5 
L 46.7 3.5 
z
" style="fill:#ffffff;"/>
   </g>
   <g id="matplotlib.axis_3">
    <g id="xtick_3">
     <g id="line2d_13">
      <g>
       <use style="stroke:#000000;stroke-width:1.6;" x="79.416309" xlink:href="#m5247b4fa1b" y="302.361667"/>
      </g>
     </g>
     <g id="text_10">
      <!-- −1 -->
      <defs>
       <path d="M 10.59375 35.5 
L 73.1875 35.5 
L 73.1875 27.203125 
L 10.59375 27.203125 
z
" id="DejaVuSans-8722"/>
      </defs>
      <g transform="translate(64.674122 332.258542)scale(0.2 -0.2)">
       <use xlink:href="#DejaVuSans-8722"/>
       <use x="83.789062" xlink:href="#DejaVuSans-49"/>
      </g>
     </g>
    </g>
    <g id="xtick_4">
     <g id="line2d_14">
      <g>
       <use style="stroke:#000000;stroke-width:1.6;" x="169.306468" xlink:href="#m5247b4fa1b" y="302.361667"/>
      </g>
     </g>
     <g id="text_11">
      <!-- 0 -->
      <g transform="translate(162.943968 332.258542)scale(0.2 -0.2)">
       <use xlink:href="#DejaVuSans-48"/>
      </g>
     </g>
    </g>
    <g id="xtick_5">
     <g id="line2d_15">
      <g>
       <use style="stroke:#000000;stroke-width:1.6;" x="259.196628" xlink:href="#m5247b4fa1b" y="302.361667"/>
      </g>
     </g>
     <g id="text_12">
      <!-- 1 -->
      <g transform="translate(252.834128 332.258542)scale(0.2 -0.2)">
       <use xlink:href="#DejaVuSans-49"/>
      </g>
     </g>
    </g>
   </g>
   <g id="matplotlib.axis_4">
    <g id="ytick_8">
     <g id="line2d_16">
      <g>
       <use style="stroke:#000000;stroke-width:1.6;" x="46.7" xlink:href="#ma7190bd7fd" y="302.361667"/>
      </g>
     </g>
     <g id="text_13">
      <!-- 0.0 -->
      <g transform="translate(0.19375 309.960104)scale(0.2 -0.2)">
       <use xlink:href="#DejaVuSans-48"/>
       <use x="63.623047" xlink:href="#DejaVuSans-46"/>
       <use x="95.410156" xlink:href="#DejaVuSans-48"/>
      </g>
     </g>
    </g>
    <g id="ytick_9">
     <g id="line2d_17">
      <g>
       <use style="stroke:#000000;stroke-width:1.6;" x="46.7" xlink:href="#ma7190bd7fd" y="221.762229"/>
      </g>
     </g>
     <g id="text_14">
      <!-- 0.5 -->
      <g transform="translate(0.19375 229.360667)scale(0.2 -0.2)">
       <use xlink:href="#DejaVuSans-48"/>
       <use x="63.623047" xlink:href="#DejaVuSans-46"/>
       <use x="95.410156" xlink:href="#DejaVuSans-53"/>
      </g>
     </g>
    </g>
    <g id="ytick_10">
     <g id="line2d_18">
      <g>
       <use style="stroke:#000000;stroke-width:1.6;" x="46.7" xlink:href="#ma7190bd7fd" y="141.162792"/>
      </g>
     </g>
     <g id="text_15">
      <!-- 1.0 -->
      <g transform="translate(0.19375 148.761229)scale(0.2 -0.2)">
       <use xlink:href="#DejaVuSans-49"/>
       <use x="63.623047" xlink:href="#DejaVuSans-46"/>
       <use x="95.410156" xlink:href="#DejaVuSans-48"/>
      </g>
     </g>
    </g>
    <g id="ytick_11">
     <g id="line2d_19">
      <g>
       <use style="stroke:#000000;stroke-width:1.6;" x="46.7" xlink:href="#ma7190bd7fd" y="60.563354"/>
      </g>
     </g>
     <g id="text_16">
      <!-- 1.5 -->
      <g transform="translate(0.19375 68.161792)scale(0.2 -0.2)">
       <use xlink:href="#DejaVuSans-49"/>
       <use x="63.623047" xlink:href="#DejaVuSans-46"/>
       <use x="95.410156" xlink:href="#DejaVuSans-53"/>
      </g>
     </g>
    </g>
   </g>
   <g id="line2d_20">
    <path clip-path="url(#p168b2e1958)" d="M 88.607989 302.350982 
L 94.089067 302.23487 
L 103.224198 301.662735 
L 106.878251 301.835087 
L 110.532303 302.018978 
L 114.186355 301.852317 
L 121.49446 301.109396 
L 128.802565 301.002399 
L 132.456617 300.552192 
L 136.110669 299.931589 
L 137.937695 299.531219 
L 139.764722 298.963474 
L 141.591748 298.148717 
L 143.418774 297.043399 
L 145.2458 295.612315 
L 147.072826 293.776924 
L 148.899852 291.408715 
L 150.726879 288.406485 
L 152.553905 284.807585 
L 156.207957 276.643615 
L 158.034983 272.2933 
L 159.862009 267.381185 
L 161.689036 261.268183 
L 163.516062 253.403631 
L 165.343088 243.676823 
L 168.99714 220.734833 
L 178.132271 161.65904 
L 187.267402 95.834644 
L 192.748481 51.438822 
L 194.575507 39.083152 
L 196.402533 29.916832 
L 198.229559 23.739903 
L 200.056585 19.795043 
L 201.883611 17.731114 
L 203.710638 17.973669 
L 205.537664 21.219244 
L 207.36469 27.65628 
L 209.191716 36.669178 
L 211.018742 47.219849 
L 214.672795 70.383649 
L 216.499821 83.253832 
L 218.326847 97.625158 
L 220.153873 113.611827 
L 225.634952 164.951161 
L 227.461978 180.637031 
L 229.289004 194.955148 
L 231.11603 207.773318 
L 232.943056 218.965504 
L 234.770082 228.532577 
L 236.597109 236.770078 
L 240.251161 251.424511 
L 243.905213 265.454574 
L 245.732239 271.760964 
L 247.559266 277.240086 
L 249.386292 281.875857 
L 251.213318 285.78184 
L 253.040344 289.030266 
L 254.86737 291.57018 
L 256.694397 293.295249 
L 258.521423 294.192478 
L 260.348449 294.45162 
L 262.175475 294.452935 
L 264.002501 294.630351 
L 265.829527 295.282271 
L 267.656554 296.440907 
L 271.310606 299.265635 
L 273.137632 300.308436 
L 274.964658 300.891299 
L 276.791684 301.064427 
L 284.099789 300.759649 
L 287.753841 301.078077 
L 295.061946 301.955234 
L 298.715998 302.058772 
L 307.851129 301.700793 
L 318.813286 302.337466 
L 320.640312 302.350982 
L 320.640312 302.350982 
" style="fill:none;stroke:#000000;stroke-linecap:square;stroke-width:2;"/>
   </g>
   <g id="line2d_21">
    <path clip-path="url(#p168b2e1958)" d="M 60.284621 302.353389 
L 66.702552 302.261575 
L 79.538415 301.811999 
L 90.234967 302.225816 
L 94.513588 302.066748 
L 100.931519 301.722978 
L 109.488761 301.510579 
L 111.628071 301.292666 
L 113.767382 300.921618 
L 115.906692 300.348784 
L 118.046003 299.536278 
L 120.185313 298.48152 
L 122.324624 297.219584 
L 124.463934 295.790523 
L 126.603244 294.201232 
L 128.742555 292.424212 
L 130.881865 290.43506 
L 133.021176 288.243381 
L 137.299797 283.362404 
L 139.439107 280.673658 
L 141.578417 277.784794 
L 143.717728 274.66949 
L 145.857038 271.295469 
L 147.996349 267.602881 
L 150.135659 263.498637 
L 152.27497 258.868309 
L 154.41428 253.576916 
L 156.55359 247.434187 
L 158.692901 240.149866 
L 160.832211 231.367238 
L 162.971522 220.850225 
L 165.110832 208.752848 
L 169.389453 182.72205 
L 171.528763 170.437648 
L 175.807384 148.129178 
L 180.086005 125.938081 
L 186.503936 91.512424 
L 188.643247 81.362042 
L 190.782557 73.143855 
L 192.921868 67.728778 
L 195.061178 65.58468 
L 197.200489 66.437393 
L 199.339799 69.325472 
L 205.75773 80.763571 
L 207.897041 84.885888 
L 210.036351 89.809475 
L 212.175662 96.01601 
L 214.314972 104.001951 
L 216.454282 114.295405 
L 218.593593 127.275272 
L 220.732903 142.85646 
L 227.150835 195.593339 
L 229.290145 211.017095 
L 231.429455 224.104151 
L 233.568766 234.874723 
L 235.708076 243.699827 
L 237.847387 251.10494 
L 239.986697 257.604809 
L 244.265318 269.237702 
L 246.404628 274.580843 
L 248.543939 279.512897 
L 250.683249 283.898497 
L 252.82256 287.626897 
L 254.96187 290.634092 
L 257.101181 292.903522 
L 259.240491 294.473153 
L 261.379801 295.453757 
L 263.519112 296.031581 
L 267.797733 296.842378 
L 269.937043 297.375619 
L 274.215664 298.773879 
L 278.494285 300.099583 
L 280.633595 300.544243 
L 282.772906 300.805054 
L 287.051526 300.956094 
L 291.330147 301.164477 
L 299.887389 302.106785 
L 304.16601 302.212735 
L 308.444631 302.043196 
L 312.723252 301.812042 
L 317.001872 301.81374 
L 329.837735 302.342818 
L 331.977045 302.353389 
L 331.977045 302.353389 
" style="fill:none;stroke:#000000;stroke-dasharray:7.4,3.2;stroke-dashoffset:0;stroke-width:2;"/>
   </g>
   <g id="patch_6">
    <path d="M 46.7 302.361667 
L 46.7 3.5 
" style="fill:none;stroke:#000000;stroke-linecap:square;stroke-linejoin:miter;stroke-width:0.8;"/>
   </g>
   <g id="patch_7">
    <path d="M 46.7 302.361667 
L 345.561667 302.361667 
" style="fill:none;stroke:#000000;stroke-linecap:square;stroke-linejoin:miter;stroke-width:0.8;"/>
   </g>
  </g>
 </g>
 <defs>
  <clipPath id="pc1596e0589">
   <rect height="298.861667" width="298.861667" x="-313.521667" y="3.5"/>
  </clipPath>
  <clipPath id="p168b2e1958">
   <rect height="298.861667" width="298.861667" x="46.7" y="3.5"/>
  </clipPath>
 </defs>
</svg>
