<?xml version="1.0" encoding="utf-8" standalone="no"?>
<!DOCTYPE svg PUBLIC "-//W3C//DTD SVG 1.1//EN"
  "http://www.w3.org/Graphics/SVG/1.1/DTD/svg11.dtd">
<!-- Created with matplotlib (https://matplotlib.org/) -->
<svg height="329.686667pt" version="1.1" viewBox="0 0 342.686667 329.686667" width="342.686667pt" xmlns="http://www.w3.org/2000/svg" xmlns:xlink="http://www.w3.org/1999/xlink">
 <defs>
  <style type="text/css">
*{stroke-linecap:butt;stroke-linejoin:round;}
  </style>
 </defs>
 <g id="figure_1">
  <g id="patch_1">
   <path d="M 0 329.686667 
L 342.686667 329.686667 
L 342.686667 0 
L 0 0 
z
" style="fill:#ffffff;"/>
  </g>
  <g id="axes_1">
   <g id="patch_2">
    <path d="M -307.146667 295.986667 
L -14.66 295.986667 
L -14.66 3.5 
L -307.146667 3.5 
z
" style="fill:#ffffff;"/>
   </g>
   <g id="matplotlib.axis_1">
    <g id="xtick_1">
     <g id="line2d_1">
      <defs>
       <path d="M 0 0 
L 0 3.5 
" id="mf6df39013e" style="stroke:#000000;stroke-width:1.6;"/>
      </defs>
      <g/>
     </g>
     <g id="text_1">
      <!-- −1 -->
      <defs>
       <path d="M 10.59375 35.5 
L 73.1875 35.5 
L 73.1875 27.203125 
L 10.59375 27.203125 
z
" id="DejaVuSans-8722"/>
       <path d="M 12.40625 8.296875 
L 28.515625 8.296875 
L 28.515625 63.921875 
L 10.984375 60.40625 
L 10.984375 69.390625 
L 28.421875 72.90625 
L 38.28125 72.90625 
L 38.28125 8.296875 
L 54.390625 8.296875 
L 54.390625 0 
L 12.40625 0 
z
" id="DejaVuSans-49"/>
      </defs>
      <g transform="translate(-289.411516 325.883542)scale(0.2 -0.2)">
       <use xlink:href="#DejaVuSans-8722"/>
       <use x="83.789062" xlink:href="#DejaVuSans-49"/>
      </g>
     </g>
    </g>
    <g id="xtick_2">
     <g id="line2d_2">
      <g/>
     </g>
     <g id="text_2">
      <!-- 0 -->
      <defs>
       <path d="M 31.78125 66.40625 
Q 24.171875 66.40625 20.328125 58.90625 
Q 16.5 51.421875 16.5 36.375 
Q 16.5 21.390625 20.328125 13.890625 
Q 24.171875 6.390625 31.78125 6.390625 
Q 39.453125 6.390625 43.28125 13.890625 
Q 47.125 21.390625 47.125 36.375 
Q 47.125 51.421875 43.28125 58.90625 
Q 39.453125 66.40625 31.78125 66.40625 
z
M 31.78125 74.21875 
Q 44.046875 74.21875 50.515625 64.515625 
Q 56.984375 54.828125 56.984375 36.375 
Q 56.984375 17.96875 50.515625 8.265625 
Q 44.046875 -1.421875 31.78125 -1.421875 
Q 19.53125 -1.421875 13.0625 8.265625 
Q 6.59375 17.96875 6.59375 36.375 
Q 6.59375 54.828125 13.0625 64.515625 
Q 19.53125 74.21875 31.78125 74.21875 
z
" id="DejaVuSans-48"/>
      </defs>
      <g transform="translate(-164.314726 325.883542)scale(0.2 -0.2)">
       <use xlink:href="#DejaVuSans-48"/>
      </g>
     </g>
    </g>
    <g id="xtick_3">
     <g id="line2d_3">
      <g/>
     </g>
     <g id="text_3">
      <!-- 1 -->
      <g transform="translate(-47.597624 325.883542)scale(0.2 -0.2)">
       <use xlink:href="#DejaVuSans-49"/>
      </g>
     </g>
    </g>
    <g id="text_4">
     <!--   -->
     <defs>
      <path id="DejaVuSans-32"/>
     </defs>
     <g transform="translate(-163.700083 347.416167)scale(0.176 -0.176)">
      <use xlink:href="#DejaVuSans-32"/>
     </g>
    </g>
   </g>
   <g id="matplotlib.axis_2">
    <g id="ytick_1">
     <g id="line2d_4">
      <defs>
       <path d="M 0 0 
L -3.5 0 
" id="m34876cc69b" style="stroke:#000000;stroke-width:1.6;"/>
      </defs>
      <g/>
     </g>
     <g id="text_5">
      <!-- 0.0 -->
      <defs>
       <path d="M 10.6875 12.40625 
L 21 12.40625 
L 21 0 
L 10.6875 0 
z
" id="DejaVuSans-46"/>
      </defs>
      <g transform="translate(-353.652917 303.585104)scale(0.2 -0.2)">
       <use xlink:href="#DejaVuSans-48"/>
       <use x="63.623047" xlink:href="#DejaVuSans-46"/>
       <use x="95.410156" xlink:href="#DejaVuSans-48"/>
      </g>
     </g>
    </g>
    <g id="ytick_2">
     <g id="line2d_5">
      <g/>
     </g>
     <g id="text_6">
      <!-- 0.5 -->
      <defs>
       <path d="M 10.796875 72.90625 
L 49.515625 72.90625 
L 49.515625 64.59375 
L 19.828125 64.59375 
L 19.828125 46.734375 
Q 21.96875 47.46875 24.109375 47.828125 
Q 26.265625 48.1875 28.421875 48.1875 
Q 40.625 48.1875 47.75 41.5 
Q 54.890625 34.8125 54.890625 23.390625 
Q 54.890625 11.625 47.5625 5.09375 
Q 40.234375 -1.421875 26.90625 -1.421875 
Q 22.3125 -1.421875 17.546875 -0.640625 
Q 12.796875 0.140625 7.71875 1.703125 
L 7.71875 11.625 
Q 12.109375 9.234375 16.796875 8.0625 
Q 21.484375 6.890625 26.703125 6.890625 
Q 35.15625 6.890625 40.078125 11.328125 
Q 45.015625 15.765625 45.015625 23.390625 
Q 45.015625 31 40.078125 35.4375 
Q 35.15625 39.890625 26.703125 39.890625 
Q 22.75 39.890625 18.8125 39.015625 
Q 14.890625 38.140625 10.796875 36.28125 
z
" id="DejaVuSans-53"/>
      </defs>
      <g transform="translate(-353.652917 237.299119)scale(0.2 -0.2)">
       <use xlink:href="#DejaVuSans-48"/>
       <use x="63.623047" xlink:href="#DejaVuSans-46"/>
       <use x="95.410156" xlink:href="#DejaVuSans-53"/>
      </g>
     </g>
    </g>
    <g id="ytick_3">
     <g id="line2d_6">
      <g/>
     </g>
     <g id="text_7">
      <!-- 1.0 -->
      <g transform="translate(-353.652917 171.013133)scale(0.2 -0.2)">
       <use xlink:href="#DejaVuSans-49"/>
       <use x="63.623047" xlink:href="#DejaVuSans-46"/>
       <use x="95.410156" xlink:href="#DejaVuSans-48"/>
      </g>
     </g>
    </g>
    <g id="ytick_4">
     <g id="line2d_7">
      <g/>
     </g>
     <g id="text_8">
      <!-- 1.5 -->
      <g transform="translate(-353.652917 104.727148)scale(0.2 -0.2)">
       <use xlink:href="#DejaVuSans-49"/>
       <use x="63.623047" xlink:href="#DejaVuSans-46"/>
       <use x="95.410156" xlink:href="#DejaVuSans-53"/>
      </g>
     </g>
    </g>
    <g id="ytick_5">
     <g id="line2d_8">
      <g/>
     </g>
     <g id="text_9">
      <!-- 2.0 -->
      <defs>
       <path d="M 19.1875 8.296875 
L 53.609375 8.296875 
L 53.609375 0 
L 7.328125 0 
L 7.328125 8.296875 
Q 12.9375 14.109375 22.625 23.890625 
Q 32.328125 33.6875 34.8125 36.53125 
Q 39.546875 41.84375 41.421875 45.53125 
Q 43.3125 49.21875 43.3125 52.78125 
Q 43.3125 58.59375 39.234375 62.25 
Q 35.15625 65.921875 28.609375 65.921875 
Q 23.96875 65.921875 18.8125 64.3125 
Q 13.671875 62.703125 7.8125 59.421875 
L 7.8125 69.390625 
Q 13.765625 71.78125 18.9375 73 
Q 24.125 74.21875 28.421875 74.21875 
Q 39.75 74.21875 46.484375 68.546875 
Q 53.21875 62.890625 53.21875 53.421875 
Q 53.21875 48.921875 51.53125 44.890625 
Q 49.859375 40.875 45.40625 35.40625 
Q 44.1875 33.984375 37.640625 27.21875 
Q 31.109375 20.453125 19.1875 8.296875 
z
" id="DejaVuSans-50"/>
      </defs>
      <g transform="translate(-353.652917 38.441163)scale(0.2 -0.2)">
       <use xlink:href="#DejaVuSans-50"/>
       <use x="63.623047" xlink:href="#DejaVuSans-46"/>
       <use x="95.410156" xlink:href="#DejaVuSans-48"/>
      </g>
     </g>
    </g>
    <g id="text_10">
     <!--   -->
     <g transform="translate(-361.313167 152.540083)rotate(-90)scale(0.176 -0.176)">
      <use xlink:href="#DejaVuSans-32"/>
     </g>
    </g>
   </g>
   <g id="line2d_9">
    <path clip-path="url(#p0d76cfe608)" d="M 0 0 
" style="fill:none;stroke:#000000;stroke-linecap:square;stroke-width:2;"/>
   </g>
   <g id="line2d_10">
    <path clip-path="url(#p0d76cfe608)" d="M 0 0 
" style="fill:none;stroke:#000000;stroke-dasharray:7.4,3.2;stroke-dashoffset:0;stroke-width:2;"/>
   </g>
   <g id="line2d_11">
    <path clip-path="url(#p0d76cfe608)" d="M 0 0 
" style="fill:none;stroke:#000000;stroke-dasharray:2,3.3;stroke-dashoffset:0;stroke-width:2;"/>
   </g>
   <g id="patch_3">
    <path style="fill:none;stroke:#000000;stroke-linecap:square;stroke-linejoin:miter;stroke-width:0.8;"/>
   </g>
   <g id="patch_4">
    <path style="fill:none;stroke:#000000;stroke-linecap:square;stroke-linejoin:miter;stroke-width:0.8;"/>
   </g>
  </g>
  <g id="axes_2">
   <g id="patch_5">
    <path d="M 46.7 295.986667 
L 339.186667 295.986667 
L 339.186667 3.5 
L 46.7 3.5 
z
" style="fill:#ffffff;"/>
   </g>
   <g id="matplotlib.axis_3">
    <g id="xtick_4">
     <g id="line2d_12">
      <g>
       <use style="stroke:#000000;stroke-width:1.6;" x="138.831577" xlink:href="#mf6df39013e" y="295.986667"/>
      </g>
     </g>
     <g id="text_11">
      <!-- 0 -->
      <g transform="translate(132.469077 325.883542)scale(0.2 -0.2)">
       <use xlink:href="#DejaVuSans-48"/>
      </g>
     </g>
    </g>
    <g id="xtick_5">
     <g id="line2d_13">
      <g>
       <use style="stroke:#000000;stroke-width:1.6;" x="232.61522" xlink:href="#mf6df39013e" y="295.986667"/>
      </g>
     </g>
     <g id="text_12">
      <!-- 1 -->
      <g transform="translate(226.25272 325.883542)scale(0.2 -0.2)">
       <use xlink:href="#DejaVuSans-49"/>
      </g>
     </g>
    </g>
    <g id="xtick_6">
     <g id="line2d_14">
      <g>
       <use style="stroke:#000000;stroke-width:1.6;" x="326.398864" xlink:href="#mf6df39013e" y="295.986667"/>
      </g>
     </g>
     <g id="text_13">
      <!-- 2 -->
      <g transform="translate(320.036364 325.883542)scale(0.2 -0.2)">
       <use xlink:href="#DejaVuSans-50"/>
      </g>
     </g>
    </g>
   </g>
   <g id="matplotlib.axis_4">
    <g id="ytick_6">
     <g id="line2d_15">
      <g>
       <use style="stroke:#000000;stroke-width:1.6;" x="46.7" xlink:href="#m34876cc69b" y="295.986667"/>
      </g>
     </g>
     <g id="text_14">
      <!-- 0.0 -->
      <g transform="translate(0.19375 303.585104)scale(0.2 -0.2)">
       <use xlink:href="#DejaVuSans-48"/>
       <use x="63.623047" xlink:href="#DejaVuSans-46"/>
       <use x="95.410156" xlink:href="#DejaVuSans-48"/>
      </g>
     </g>
    </g>
    <g id="ytick_7">
     <g id="line2d_16">
      <g>
       <use style="stroke:#000000;stroke-width:1.6;" x="46.7" xlink:href="#m34876cc69b" y="218.902734"/>
      </g>
     </g>
     <g id="text_15">
      <!-- 0.5 -->
      <g transform="translate(0.19375 226.501171)scale(0.2 -0.2)">
       <use xlink:href="#DejaVuSans-48"/>
       <use x="63.623047" xlink:href="#DejaVuSans-46"/>
       <use x="95.410156" xlink:href="#DejaVuSans-53"/>
      </g>
     </g>
    </g>
    <g id="ytick_8">
     <g id="line2d_17">
      <g>
       <use style="stroke:#000000;stroke-width:1.6;" x="46.7" xlink:href="#m34876cc69b" y="141.818801"/>
      </g>
     </g>
     <g id="text_16">
      <!-- 1.0 -->
      <g transform="translate(0.19375 149.417239)scale(0.2 -0.2)">
       <use xlink:href="#DejaVuSans-49"/>
       <use x="63.623047" xlink:href="#DejaVuSans-46"/>
       <use x="95.410156" xlink:href="#DejaVuSans-48"/>
      </g>
     </g>
    </g>
    <g id="ytick_9">
     <g id="line2d_18">
      <g>
       <use style="stroke:#000000;stroke-width:1.6;" x="46.7" xlink:href="#m34876cc69b" y="64.734868"/>
      </g>
     </g>
     <g id="text_17">
      <!-- 1.5 -->
      <g transform="translate(0.19375 72.333306)scale(0.2 -0.2)">
       <use xlink:href="#DejaVuSans-49"/>
       <use x="63.623047" xlink:href="#DejaVuSans-46"/>
       <use x="95.410156" xlink:href="#DejaVuSans-53"/>
      </g>
     </g>
    </g>
   </g>
   <g id="line2d_19">
    <path clip-path="url(#p8fa803537a)" d="M 59.994848 295.981257 
L 66.275879 295.843696 
L 74.650587 295.388656 
L 78.837941 295.61542 
L 83.025295 295.848117 
L 85.118972 295.825335 
L 93.493679 295.248232 
L 97.681033 295.249851 
L 101.868387 294.888444 
L 103.962064 294.630914 
L 106.055741 294.252808 
L 108.149418 293.610968 
L 114.430449 291.005257 
L 116.524126 290.310716 
L 118.617802 289.450256 
L 120.711479 288.20407 
L 122.805156 286.447438 
L 124.898833 284.070155 
L 126.99251 281.039181 
L 131.179864 274.225158 
L 133.273541 271.161246 
L 137.460895 265.677174 
L 141.648249 260.543995 
L 143.741926 256.957228 
L 145.835602 251.695997 
L 147.929279 244.59697 
L 150.022956 236.194886 
L 154.21031 218.17994 
L 156.303987 208.011061 
L 158.397664 195.25237 
L 160.491341 178.8008 
L 162.585018 159.132472 
L 166.772372 117.421304 
L 168.866049 97.782277 
L 170.959726 79.723198 
L 173.053403 64.351623 
L 175.147079 52.56552 
L 177.240756 43.983261 
L 179.334433 37.254702 
L 181.42811 31.331902 
L 183.521787 26.036106 
L 185.615464 21.550659 
L 187.709141 18.247918 
L 189.802818 17.427922 
L 191.896495 21.314972 
L 193.990172 31.559455 
L 196.083849 47.994064 
L 202.36488 109.924328 
L 204.458556 127.190637 
L 210.739587 175.762548 
L 212.833264 192.145265 
L 214.926941 207.379333 
L 217.020618 220.198774 
L 219.114295 230.026301 
L 221.207972 237.543628 
L 229.58268 263.213853 
L 231.676356 268.903708 
L 233.770033 273.444743 
L 235.86371 276.723075 
L 237.957387 279.033877 
L 240.051064 280.766266 
L 242.144741 282.174964 
L 248.425772 285.939983 
L 254.706803 289.343687 
L 258.894157 292.372799 
L 260.987833 293.488477 
L 263.08151 294.124486 
L 267.268864 294.702071 
L 271.456218 295.023275 
L 275.643572 294.83187 
L 277.737249 294.741024 
L 279.830926 294.824383 
L 288.205634 295.865431 
L 292.392987 295.976796 
L 304.955049 295.956816 
L 315.423434 295.665491 
L 323.798141 295.968937 
L 325.891818 295.981354 
L 325.891818 295.981354 
" style="fill:none;stroke:#000000;stroke-linecap:square;stroke-width:2;"/>
   </g>
   <g id="line2d_20">
    <path clip-path="url(#p8fa803537a)" d="M 72.732478 295.980033 
L 78.429309 295.84765 
L 86.025084 295.289122 
L 99.317691 295.220784 
L 103.115578 294.991166 
L 110.711354 294.164308 
L 112.610297 294.131256 
L 118.307129 294.487331 
L 120.206072 294.351291 
L 122.105016 293.932002 
L 124.00396 293.224048 
L 129.700791 290.525779 
L 131.599735 290.010494 
L 133.498679 289.632095 
L 135.397623 289.058206 
L 137.296566 288.011074 
L 139.19551 286.415331 
L 141.094454 284.311728 
L 142.993398 281.683108 
L 144.892342 278.388177 
L 146.791285 274.243076 
L 148.690229 269.200626 
L 156.286004 246.155477 
L 158.184948 239.600474 
L 160.083892 231.581729 
L 161.982835 221.85266 
L 165.780723 199.221691 
L 169.578611 177.400125 
L 173.376498 156.706436 
L 175.275442 145.08216 
L 177.174386 131.393012 
L 179.073329 115.077529 
L 182.871217 78.378819 
L 184.770161 62.375169 
L 186.669105 50.175798 
L 188.568048 41.677587 
L 190.466992 35.73444 
L 192.365936 31.152707 
L 194.26488 27.412759 
L 196.163823 24.78918 
L 198.062767 24.066595 
L 199.961711 26.161104 
L 201.860655 31.721541 
L 203.759599 40.74982 
L 205.658542 52.520975 
L 207.557486 66.007365 
L 211.355374 95.535506 
L 215.153261 125.959076 
L 217.052205 140.159217 
L 218.951149 153.363712 
L 222.749036 177.523239 
L 228.445868 212.287247 
L 230.344811 223.945579 
L 232.243755 234.147257 
L 234.142699 242.088527 
L 236.041643 248.219043 
L 239.83953 259.718598 
L 241.738474 265.758395 
L 243.637418 271.052497 
L 245.536362 274.914637 
L 247.435305 277.258284 
L 249.334249 278.464592 
L 253.132137 279.801517 
L 255.03108 280.88419 
L 264.525799 288.266486 
L 268.323687 291.46709 
L 270.222631 292.696013 
L 272.121574 293.443943 
L 274.020518 293.827428 
L 277.818406 294.406889 
L 281.616293 295.142394 
L 285.414181 295.523601 
L 293.009956 295.848627 
L 296.807843 295.787949 
L 302.504675 295.66756 
L 313.898337 295.981115 
L 313.898337 295.981115 
" style="fill:none;stroke:#000000;stroke-dasharray:7.4,3.2;stroke-dashoffset:0;stroke-width:2;"/>
   </g>
   <g id="patch_6">
    <path d="M 46.7 295.986667 
L 46.7 3.5 
" style="fill:none;stroke:#000000;stroke-linecap:square;stroke-linejoin:miter;stroke-width:0.8;"/>
   </g>
   <g id="patch_7">
    <path d="M 46.7 295.986667 
L 339.186667 295.986667 
" style="fill:none;stroke:#000000;stroke-linecap:square;stroke-linejoin:miter;stroke-width:0.8;"/>
   </g>
  </g>
 </g>
 <defs>
  <clipPath id="p0d76cfe608">
   <rect height="292.486667" width="292.486667" x="-307.146667" y="3.5"/>
  </clipPath>
  <clipPath id="p8fa803537a">
   <rect height="292.486667" width="292.486667" x="46.7" y="3.5"/>
  </clipPath>
 </defs>
</svg>
