<?xml version="1.0" encoding="utf-8" standalone="no"?>
<!DOCTYPE svg PUBLIC "-//W3C//DTD SVG 1.1//EN"
  "http://www.w3.org/Graphics/SVG/1.1/DTD/svg11.dtd">
<!-- Created with matplotlib (https://matplotlib.org/) -->
<svg height="348.811667pt" version="1.1" viewBox="0 0 342.686667 348.811667" width="342.686667pt" xmlns="http://www.w3.org/2000/svg" xmlns:xlink="http://www.w3.org/1999/xlink">
 <defs>
  <style type="text/css">
*{stroke-linecap:butt;stroke-linejoin:round;}
  </style>
 </defs>
 <g id="figure_1">
  <g id="patch_1">
   <path d="M 0 348.811667 
L 342.686667 348.811667 
L 342.686667 0 
L 0 0 
z
" style="fill:#ffffff;"/>
  </g>
  <g id="axes_1">
   <g id="patch_2">
    <path d="M 27.575 315.111667 
L 339.186667 315.111667 
L 339.186667 3.5 
L 27.575 3.5 
z
" style="fill:#ffffff;"/>
   </g>
   <g id="matplotlib.axis_1">
    <g id="xtick_1">
     <g id="line2d_1">
      <defs>
       <path d="M 0 0 
L 0 3.5 
" id="mdea5f5677d" style="stroke:#000000;stroke-width:1.6;"/>
      </defs>
      <g>
       <use style="stroke:#000000;stroke-width:1.6;" x="60.531023" xlink:href="#mdea5f5677d" y="315.111667"/>
      </g>
     </g>
     <g id="text_1">
      <!-- 0.0 -->
      <defs>
       <path d="M 31.78125 66.40625 
Q 24.171875 66.40625 20.328125 58.90625 
Q 16.5 51.421875 16.5 36.375 
Q 16.5 21.390625 20.328125 13.890625 
Q 24.171875 6.390625 31.78125 6.390625 
Q 39.453125 6.390625 43.28125 13.890625 
Q 47.125 21.390625 47.125 36.375 
Q 47.125 51.421875 43.28125 58.90625 
Q 39.453125 66.40625 31.78125 66.40625 
z
M 31.78125 74.21875 
Q 44.046875 74.21875 50.515625 64.515625 
Q 56.984375 54.828125 56.984375 36.375 
Q 56.984375 17.96875 50.515625 8.265625 
Q 44.046875 -1.421875 31.78125 -1.421875 
Q 19.53125 -1.421875 13.0625 8.265625 
Q 6.59375 17.96875 6.59375 36.375 
Q 6.59375 54.828125 13.0625 64.515625 
Q 19.53125 74.21875 31.78125 74.21875 
z
" id="DejaVuSans-48"/>
       <path d="M 10.6875 12.40625 
L 21 12.40625 
L 21 0 
L 10.6875 0 
z
" id="DejaVuSans-46"/>
      </defs>
      <g transform="translate(44.627898 345.008542)scale(0.2 -0.2)">
       <use xlink:href="#DejaVuSans-48"/>
       <use x="63.623047" xlink:href="#DejaVuSans-46"/>
       <use x="95.410156" xlink:href="#DejaVuSans-48"/>
      </g>
     </g>
    </g>
    <g id="xtick_2">
     <g id="line2d_2">
      <g>
       <use style="stroke:#000000;stroke-width:1.6;" x="140.941808" xlink:href="#mdea5f5677d" y="315.111667"/>
      </g>
     </g>
     <g id="text_2">
      <!-- 0.2 -->
      <defs>
       <path d="M 19.1875 8.296875 
L 53.609375 8.296875 
L 53.609375 0 
L 7.328125 0 
L 7.328125 8.296875 
Q 12.9375 14.109375 22.625 23.890625 
Q 32.328125 33.6875 34.8125 36.53125 
Q 39.546875 41.84375 41.421875 45.53125 
Q 43.3125 49.21875 43.3125 52.78125 
Q 43.3125 58.59375 39.234375 62.25 
Q 35.15625 65.921875 28.609375 65.921875 
Q 23.96875 65.921875 18.8125 64.3125 
Q 13.671875 62.703125 7.8125 59.421875 
L 7.8125 69.390625 
Q 13.765625 71.78125 18.9375 73 
Q 24.125 74.21875 28.421875 74.21875 
Q 39.75 74.21875 46.484375 68.546875 
Q 53.21875 62.890625 53.21875 53.421875 
Q 53.21875 48.921875 51.53125 44.890625 
Q 49.859375 40.875 45.40625 35.40625 
Q 44.1875 33.984375 37.640625 27.21875 
Q 31.109375 20.453125 19.1875 8.296875 
z
" id="DejaVuSans-50"/>
      </defs>
      <g transform="translate(125.038683 345.008542)scale(0.2 -0.2)">
       <use xlink:href="#DejaVuSans-48"/>
       <use x="63.623047" xlink:href="#DejaVuSans-46"/>
       <use x="95.410156" xlink:href="#DejaVuSans-50"/>
      </g>
     </g>
    </g>
    <g id="xtick_3">
     <g id="line2d_3">
      <g>
       <use style="stroke:#000000;stroke-width:1.6;" x="221.352593" xlink:href="#mdea5f5677d" y="315.111667"/>
      </g>
     </g>
     <g id="text_3">
      <!-- 0.4 -->
      <defs>
       <path d="M 37.796875 64.3125 
L 12.890625 25.390625 
L 37.796875 25.390625 
z
M 35.203125 72.90625 
L 47.609375 72.90625 
L 47.609375 25.390625 
L 58.015625 25.390625 
L 58.015625 17.1875 
L 47.609375 17.1875 
L 47.609375 0 
L 37.796875 0 
L 37.796875 17.1875 
L 4.890625 17.1875 
L 4.890625 26.703125 
z
" id="DejaVuSans-52"/>
      </defs>
      <g transform="translate(205.449468 345.008542)scale(0.2 -0.2)">
       <use xlink:href="#DejaVuSans-48"/>
       <use x="63.623047" xlink:href="#DejaVuSans-46"/>
       <use x="95.410156" xlink:href="#DejaVuSans-52"/>
      </g>
     </g>
    </g>
    <g id="xtick_4">
     <g id="line2d_4">
      <g>
       <use style="stroke:#000000;stroke-width:1.6;" x="301.763378" xlink:href="#mdea5f5677d" y="315.111667"/>
      </g>
     </g>
     <g id="text_4">
      <!-- 0.6 -->
      <defs>
       <path d="M 33.015625 40.375 
Q 26.375 40.375 22.484375 35.828125 
Q 18.609375 31.296875 18.609375 23.390625 
Q 18.609375 15.53125 22.484375 10.953125 
Q 26.375 6.390625 33.015625 6.390625 
Q 39.65625 6.390625 43.53125 10.953125 
Q 47.40625 15.53125 47.40625 23.390625 
Q 47.40625 31.296875 43.53125 35.828125 
Q 39.65625 40.375 33.015625 40.375 
z
M 52.59375 71.296875 
L 52.59375 62.3125 
Q 48.875 64.0625 45.09375 64.984375 
Q 41.3125 65.921875 37.59375 65.921875 
Q 27.828125 65.921875 22.671875 59.328125 
Q 17.53125 52.734375 16.796875 39.40625 
Q 19.671875 43.65625 24.015625 45.921875 
Q 28.375 48.1875 33.59375 48.1875 
Q 44.578125 48.1875 50.953125 41.515625 
Q 57.328125 34.859375 57.328125 23.390625 
Q 57.328125 12.15625 50.6875 5.359375 
Q 44.046875 -1.421875 33.015625 -1.421875 
Q 20.359375 -1.421875 13.671875 8.265625 
Q 6.984375 17.96875 6.984375 36.375 
Q 6.984375 53.65625 15.1875 63.9375 
Q 23.390625 74.21875 37.203125 74.21875 
Q 40.921875 74.21875 44.703125 73.484375 
Q 48.484375 72.75 52.59375 71.296875 
z
" id="DejaVuSans-54"/>
      </defs>
      <g transform="translate(285.860253 345.008542)scale(0.2 -0.2)">
       <use xlink:href="#DejaVuSans-48"/>
       <use x="63.623047" xlink:href="#DejaVuSans-46"/>
       <use x="95.410156" xlink:href="#DejaVuSans-54"/>
      </g>
     </g>
    </g>
   </g>
   <g id="matplotlib.axis_2">
    <g id="ytick_1">
     <g id="line2d_5">
      <defs>
       <path d="M 0 0 
L -3.5 0 
" id="m68c080aa7e" style="stroke:#000000;stroke-width:1.6;"/>
      </defs>
      <g>
       <use style="stroke:#000000;stroke-width:1.6;" x="27.575" xlink:href="#m68c080aa7e" y="315.111667"/>
      </g>
     </g>
     <g id="text_5">
      <!-- 0 -->
      <g transform="translate(0.15 322.710104)scale(0.2 -0.2)">
       <use xlink:href="#DejaVuSans-48"/>
      </g>
     </g>
    </g>
    <g id="ytick_2">
     <g id="line2d_6">
      <g>
       <use style="stroke:#000000;stroke-width:1.6;" x="27.575" xlink:href="#m68c080aa7e" y="250.419287"/>
      </g>
     </g>
     <g id="text_6">
      <!-- 2 -->
      <g transform="translate(0.15 258.017724)scale(0.2 -0.2)">
       <use xlink:href="#DejaVuSans-50"/>
      </g>
     </g>
    </g>
    <g id="ytick_3">
     <g id="line2d_7">
      <g>
       <use style="stroke:#000000;stroke-width:1.6;" x="27.575" xlink:href="#m68c080aa7e" y="185.726906"/>
      </g>
     </g>
     <g id="text_7">
      <!-- 4 -->
      <g transform="translate(0.15 193.325344)scale(0.2 -0.2)">
       <use xlink:href="#DejaVuSans-52"/>
      </g>
     </g>
    </g>
    <g id="ytick_4">
     <g id="line2d_8">
      <g>
       <use style="stroke:#000000;stroke-width:1.6;" x="27.575" xlink:href="#m68c080aa7e" y="121.034526"/>
      </g>
     </g>
     <g id="text_8">
      <!-- 6 -->
      <g transform="translate(0.15 128.632964)scale(0.2 -0.2)">
       <use xlink:href="#DejaVuSans-54"/>
      </g>
     </g>
    </g>
    <g id="ytick_5">
     <g id="line2d_9">
      <g>
       <use style="stroke:#000000;stroke-width:1.6;" x="27.575" xlink:href="#m68c080aa7e" y="56.342146"/>
      </g>
     </g>
     <g id="text_9">
      <!-- 8 -->
      <defs>
       <path d="M 31.78125 34.625 
Q 24.75 34.625 20.71875 30.859375 
Q 16.703125 27.09375 16.703125 20.515625 
Q 16.703125 13.921875 20.71875 10.15625 
Q 24.75 6.390625 31.78125 6.390625 
Q 38.8125 6.390625 42.859375 10.171875 
Q 46.921875 13.96875 46.921875 20.515625 
Q 46.921875 27.09375 42.890625 30.859375 
Q 38.875 34.625 31.78125 34.625 
z
M 21.921875 38.8125 
Q 15.578125 40.375 12.03125 44.71875 
Q 8.5 49.078125 8.5 55.328125 
Q 8.5 64.0625 14.71875 69.140625 
Q 20.953125 74.21875 31.78125 74.21875 
Q 42.671875 74.21875 48.875 69.140625 
Q 55.078125 64.0625 55.078125 55.328125 
Q 55.078125 49.078125 51.53125 44.71875 
Q 48 40.375 41.703125 38.8125 
Q 48.828125 37.15625 52.796875 32.3125 
Q 56.78125 27.484375 56.78125 20.515625 
Q 56.78125 9.90625 50.3125 4.234375 
Q 43.84375 -1.421875 31.78125 -1.421875 
Q 19.734375 -1.421875 13.25 4.234375 
Q 6.78125 9.90625 6.78125 20.515625 
Q 6.78125 27.484375 10.78125 32.3125 
Q 14.796875 37.15625 21.921875 38.8125 
z
M 18.3125 54.390625 
Q 18.3125 48.734375 21.84375 45.5625 
Q 25.390625 42.390625 31.78125 42.390625 
Q 38.140625 42.390625 41.71875 45.5625 
Q 45.3125 48.734375 45.3125 54.390625 
Q 45.3125 60.0625 41.71875 63.234375 
Q 38.140625 66.40625 31.78125 66.40625 
Q 25.390625 66.40625 21.84375 63.234375 
Q 18.3125 60.0625 18.3125 54.390625 
z
" id="DejaVuSans-56"/>
      </defs>
      <g transform="translate(0.15 63.940584)scale(0.2 -0.2)">
       <use xlink:href="#DejaVuSans-56"/>
      </g>
     </g>
    </g>
   </g>
   <g id="line2d_10">
    <path clip-path="url(#pd90ffeecb6)" d="M 60.284616 315.053606 
L 64.445732 314.838388 
L 66.526289 314.5416 
L 68.606847 314.012922 
L 70.687404 313.149206 
L 72.767962 311.839366 
L 74.848519 309.964574 
L 76.929077 307.374013 
L 79.009635 303.829952 
L 81.090192 298.936322 
L 83.17075 292.08588 
L 85.251307 282.467728 
L 87.331865 269.162701 
L 89.412422 251.325408 
L 91.49298 228.422961 
L 93.573537 200.483169 
L 95.654095 168.301108 
L 99.81521 98.761715 
L 101.895768 67.04008 
L 103.976325 41.5816 
L 106.056883 24.943552 
L 108.13744 18.338574 
L 110.217998 21.244254 
L 112.298556 31.573021 
L 114.379113 46.389164 
L 118.540228 79.059041 
L 120.620786 94.172756 
L 131.023574 165.425346 
L 135.184689 194.469254 
L 137.265246 207.234146 
L 139.345804 217.729261 
L 141.426361 225.38777 
L 143.506919 230.164546 
L 145.587476 232.633782 
L 149.748592 234.953976 
L 151.829149 236.919745 
L 153.909707 240.219459 
L 155.990264 244.864149 
L 158.070822 250.5457 
L 162.231937 263.405771 
L 166.393052 276.400401 
L 168.47361 282.566876 
L 170.554167 288.343837 
L 172.634725 293.57339 
L 174.715282 298.084829 
L 176.79584 301.728827 
L 178.876397 304.418494 
L 180.956955 306.162636 
L 183.037513 307.073411 
L 185.11807 307.338274 
L 187.198628 307.167137 
L 191.359743 306.207952 
L 195.520858 305.217745 
L 197.601416 304.955715 
L 199.681973 304.957947 
L 201.762531 305.259123 
L 203.843088 305.833798 
L 208.004203 307.444564 
L 212.165318 309.0046 
L 228.809779 314.184491 
L 230.890337 314.563383 
L 235.051452 314.964026 
L 241.293124 315.101212 
L 253.77647 315.073806 
L 257.937585 314.925776 
L 262.0987 314.490292 
L 266.259815 313.679362 
L 270.42093 312.754936 
L 274.582045 312.10591 
L 280.823718 311.407547 
L 284.984833 310.652637 
L 289.145948 309.811073 
L 291.226506 309.537539 
L 293.307063 309.458352 
L 295.387621 309.59963 
L 297.468179 309.935604 
L 301.629294 310.948186 
L 312.032081 313.827773 
L 316.193197 314.6049 
L 320.354312 314.969273 
L 324.515427 315.067236 
L 324.515427 315.067236 
" style="fill:none;stroke:#000000;stroke-linecap:square;stroke-width:2;"/>
   </g>
   <g id="line2d_11">
    <path clip-path="url(#pd90ffeecb6)" d="M 41.739167 315.072924 
L 46.200322 314.926758 
L 48.430899 314.7196 
L 50.661476 314.364196 
L 52.892054 313.821807 
L 55.122631 313.068302 
L 57.353209 312.080094 
L 59.583786 310.799297 
L 61.814364 309.104585 
L 64.044941 306.822558 
L 66.275518 303.785849 
L 68.506096 299.899901 
L 70.736673 295.16558 
L 72.967251 289.634771 
L 75.197828 283.318972 
L 77.428406 276.093323 
L 79.658983 267.642901 
L 81.88956 257.493454 
L 84.120138 245.137797 
L 86.350715 230.2068 
L 88.581293 212.594432 
L 90.81187 192.487967 
L 93.042448 170.343389 
L 99.73418 100.347438 
L 101.964757 80.026843 
L 104.195335 63.464591 
L 106.425912 51.537304 
L 108.65649 44.58565 
L 110.887067 42.608956 
L 113.117644 45.594034 
L 115.348222 53.654526 
L 117.578799 66.811052 
L 119.809377 84.59792 
L 122.039954 105.866604 
L 126.501109 152.152437 
L 128.731686 173.903767 
L 130.962264 193.088331 
L 133.192841 209.015436 
L 135.423419 221.502867 
L 137.653996 230.897801 
L 139.884573 237.9381 
L 142.115151 243.456359 
L 144.345728 248.08982 
L 146.576306 252.171552 
L 148.806883 255.823438 
L 151.037461 259.113971 
L 155.498615 264.996316 
L 162.190348 273.302295 
L 164.420925 276.275691 
L 166.651503 279.538849 
L 168.88208 283.144507 
L 173.343235 291.10369 
L 175.573812 295.097494 
L 177.80439 298.800204 
L 180.034967 302.01964 
L 182.265545 304.623278 
L 184.496122 306.532023 
L 186.726699 307.712038 
L 188.957277 308.186524 
L 191.187854 308.055706 
L 193.418432 307.492756 
L 200.110164 305.240564 
L 202.340741 304.933645 
L 204.571319 305.155286 
L 206.801896 306.017186 
L 209.032474 307.470243 
L 213.493629 311.105251 
L 215.724206 312.651756 
L 217.954783 313.767752 
L 220.185361 314.460194 
L 222.415938 314.831214 
L 226.877093 315.061469 
L 231.338248 314.988184 
L 233.568825 314.822897 
L 235.799403 314.502334 
L 238.02998 313.969732 
L 240.260558 313.212723 
L 244.721713 311.434362 
L 246.95229 310.823552 
L 249.182867 310.663386 
L 251.413445 311.003844 
L 253.644022 311.730126 
L 258.105177 313.437269 
L 260.335755 314.019248 
L 262.566332 314.291286 
L 264.796909 314.256405 
L 267.027487 313.973826 
L 271.488642 313.129744 
L 273.719219 312.861844 
L 275.949797 312.847438 
L 278.180374 313.094892 
L 284.872106 314.361189 
L 287.102684 314.561568 
L 289.333261 314.533488 
L 291.563839 314.249719 
L 293.794416 313.707925 
L 300.486148 311.34707 
L 302.716726 310.882102 
L 304.947303 310.847257 
L 307.177881 311.253668 
L 309.408458 311.981332 
L 313.869613 313.630726 
L 316.10019 314.250428 
L 318.330768 314.664606 
L 320.561345 314.904332 
L 325.0225 315.07116 
L 325.0225 315.07116 
" style="fill:none;stroke:#000000;stroke-dasharray:7.4,3.2;stroke-dashoffset:0;stroke-width:2;"/>
   </g>
   <g id="line2d_12">
    <path clip-path="url(#pd90ffeecb6)" d="M 43.767141 315.05182 
L 48.331955 314.867223 
L 51.375164 314.461072 
L 52.896769 314.094838 
L 54.418374 313.568071 
L 55.939978 312.83371 
L 57.461583 311.840121 
L 58.983188 310.53386 
L 60.504793 308.863273 
L 62.026397 306.782657 
L 63.548002 304.256548 
L 65.069607 301.263567 
L 66.591211 297.799087 
L 68.112816 293.875914 
L 69.634421 289.522197 
L 72.67763 279.676908 
L 75.72084 268.51494 
L 78.764049 255.943262 
L 80.285654 248.939653 
L 81.807259 241.286878 
L 83.328863 232.837782 
L 84.850468 223.460053 
L 86.372073 213.066878 
L 87.893677 201.646518 
L 90.936887 176.17495 
L 95.501701 135.662548 
L 97.023306 123.110694 
L 98.54491 111.689065 
L 100.066515 101.699551 
L 101.58812 93.351821 
L 103.109725 86.762123 
L 104.631329 81.967162 
L 106.152934 78.947681 
L 107.674539 77.6544 
L 109.196143 78.028924 
L 110.717748 80.014073 
L 112.239353 83.551278 
L 113.760958 88.566306 
L 115.282562 94.947941 
L 116.804167 102.526541 
L 118.325772 111.060163 
L 124.412191 147.898117 
L 125.933795 156.041976 
L 127.4554 163.310718 
L 128.977005 169.709488 
L 130.49861 175.386634 
L 136.585028 196.477739 
L 138.106633 202.582686 
L 141.149843 216.172491 
L 145.714657 237.28276 
L 147.236261 243.662681 
L 148.757866 249.476171 
L 150.279471 254.677124 
L 151.801076 259.273534 
L 153.32268 263.308062 
L 154.844285 266.83805 
L 156.36589 269.920407 
L 157.887494 272.604126 
L 159.409099 274.930435 
L 160.930704 276.938293 
L 162.452309 278.671829 
L 165.495518 281.550485 
L 170.060332 285.540102 
L 171.581937 287.078864 
L 173.103542 288.796991 
L 176.146751 292.742982 
L 180.711565 299.083413 
L 182.23317 300.969082 
L 183.754775 302.599331 
L 185.276379 303.911123 
L 186.797984 304.864069 
L 188.319589 305.442915 
L 189.841193 305.65819 
L 191.362798 305.54545 
L 192.884403 305.163232 
L 195.927612 303.915665 
L 198.970822 302.655049 
L 200.492426 302.243098 
L 202.014031 302.062683 
L 203.535636 302.145688 
L 205.057241 302.495701 
L 206.578845 303.091182 
L 208.10045 303.891931 
L 211.143659 305.902866 
L 217.230078 310.213486 
L 220.273288 311.976962 
L 223.316497 313.30278 
L 226.359707 314.182958 
L 229.402916 314.69179 
L 232.446125 314.943832 
L 237.01094 315.057748 
L 237.01094 315.057748 
" style="fill:none;stroke:#000000;stroke-dasharray:2,3.3;stroke-dashoffset:0;stroke-width:2;"/>
   </g>
   <g id="patch_3">
    <path d="M 27.575 315.111667 
L 27.575 3.5 
" style="fill:none;stroke:#000000;stroke-linecap:square;stroke-linejoin:miter;stroke-width:0.8;"/>
   </g>
   <g id="patch_4">
    <path d="M 27.575 315.111667 
L 339.186667 315.111667 
" style="fill:none;stroke:#000000;stroke-linecap:square;stroke-linejoin:miter;stroke-width:0.8;"/>
   </g>
  </g>
  <g id="axes_2">
   <g id="patch_5">
    <path d="M 381.421667 315.111667 
L 693.033333 315.111667 
L 693.033333 3.5 
L 381.421667 3.5 
z
" style="fill:#ffffff;"/>
   </g>
   <g id="matplotlib.axis_3">
    <g id="xtick_5">
     <g id="line2d_13">
      <g>
       <use style="stroke:#000000;stroke-width:1.6;" x="441.355365" xlink:href="#mdea5f5677d" y="315.111667"/>
      </g>
     </g>
     <g id="text_10">
      <!-- −0.4 -->
      <defs>
       <path d="M 10.59375 35.5 
L 73.1875 35.5 
L 73.1875 27.203125 
L 10.59375 27.203125 
z
" id="DejaVuSans-8722"/>
      </defs>
      <g transform="translate(417.072552 345.008542)scale(0.2 -0.2)">
       <use xlink:href="#DejaVuSans-8722"/>
       <use x="83.789062" xlink:href="#DejaVuSans-48"/>
       <use x="147.412109" xlink:href="#DejaVuSans-46"/>
       <use x="179.199219" xlink:href="#DejaVuSans-52"/>
      </g>
     </g>
    </g>
    <g id="xtick_6">
     <g id="line2d_14">
      <g>
       <use style="stroke:#000000;stroke-width:1.6;" x="503.745797" xlink:href="#mdea5f5677d" y="315.111667"/>
      </g>
     </g>
     <g id="text_11">
      <!-- −0.2 -->
      <g transform="translate(479.462984 345.008542)scale(0.2 -0.2)">
       <use xlink:href="#DejaVuSans-8722"/>
       <use x="83.789062" xlink:href="#DejaVuSans-48"/>
       <use x="147.412109" xlink:href="#DejaVuSans-46"/>
       <use x="179.199219" xlink:href="#DejaVuSans-50"/>
      </g>
     </g>
    </g>
    <g id="xtick_7">
     <g id="line2d_15">
      <g>
       <use style="stroke:#000000;stroke-width:1.6;" x="566.136229" xlink:href="#mdea5f5677d" y="315.111667"/>
      </g>
     </g>
     <g id="text_12">
      <!-- 0.0 -->
      <g transform="translate(550.233104 345.008542)scale(0.2 -0.2)">
       <use xlink:href="#DejaVuSans-48"/>
       <use x="63.623047" xlink:href="#DejaVuSans-46"/>
       <use x="95.410156" xlink:href="#DejaVuSans-48"/>
      </g>
     </g>
    </g>
    <g id="xtick_8">
     <g id="line2d_16">
      <g>
       <use style="stroke:#000000;stroke-width:1.6;" x="628.526662" xlink:href="#mdea5f5677d" y="315.111667"/>
      </g>
     </g>
     <g id="text_13">
      <!-- 0.2 -->
      <g transform="translate(612.623537 345.008542)scale(0.2 -0.2)">
       <use xlink:href="#DejaVuSans-48"/>
       <use x="63.623047" xlink:href="#DejaVuSans-46"/>
       <use x="95.410156" xlink:href="#DejaVuSans-50"/>
      </g>
     </g>
    </g>
    <g id="xtick_9">
     <g id="line2d_17">
      <g>
       <use style="stroke:#000000;stroke-width:1.6;" x="690.917094" xlink:href="#mdea5f5677d" y="315.111667"/>
      </g>
     </g>
     <g id="text_14">
      <!-- 0.4 -->
      <g transform="translate(675.013969 345.008542)scale(0.2 -0.2)">
       <use xlink:href="#DejaVuSans-48"/>
       <use x="63.623047" xlink:href="#DejaVuSans-46"/>
       <use x="95.410156" xlink:href="#DejaVuSans-52"/>
      </g>
     </g>
    </g>
   </g>
   <g id="matplotlib.axis_4">
    <g id="ytick_6">
     <g id="line2d_18">
      <g>
       <use style="stroke:#000000;stroke-width:1.6;" x="381.421667" xlink:href="#m68c080aa7e" y="315.111667"/>
      </g>
     </g>
     <g id="text_15">
      <!-- 0 -->
      <g transform="translate(353.996667 322.710104)scale(0.2 -0.2)">
       <use xlink:href="#DejaVuSans-48"/>
      </g>
     </g>
    </g>
    <g id="ytick_7">
     <g id="line2d_19">
      <g>
       <use style="stroke:#000000;stroke-width:1.6;" x="381.421667" xlink:href="#m68c080aa7e" y="264.08494"/>
      </g>
     </g>
     <g id="text_16">
      <!-- 1 -->
      <defs>
       <path d="M 12.40625 8.296875 
L 28.515625 8.296875 
L 28.515625 63.921875 
L 10.984375 60.40625 
L 10.984375 69.390625 
L 28.421875 72.90625 
L 38.28125 72.90625 
L 38.28125 8.296875 
L 54.390625 8.296875 
L 54.390625 0 
L 12.40625 0 
z
" id="DejaVuSans-49"/>
      </defs>
      <g transform="translate(353.996667 271.683378)scale(0.2 -0.2)">
       <use xlink:href="#DejaVuSans-49"/>
      </g>
     </g>
    </g>
    <g id="ytick_8">
     <g id="line2d_20">
      <g>
       <use style="stroke:#000000;stroke-width:1.6;" x="381.421667" xlink:href="#m68c080aa7e" y="213.058213"/>
      </g>
     </g>
     <g id="text_17">
      <!-- 2 -->
      <g transform="translate(353.996667 220.656651)scale(0.2 -0.2)">
       <use xlink:href="#DejaVuSans-50"/>
      </g>
     </g>
    </g>
    <g id="ytick_9">
     <g id="line2d_21">
      <g>
       <use style="stroke:#000000;stroke-width:1.6;" x="381.421667" xlink:href="#m68c080aa7e" y="162.031487"/>
      </g>
     </g>
     <g id="text_18">
      <!-- 3 -->
      <defs>
       <path d="M 40.578125 39.3125 
Q 47.65625 37.796875 51.625 33 
Q 55.609375 28.21875 55.609375 21.1875 
Q 55.609375 10.40625 48.1875 4.484375 
Q 40.765625 -1.421875 27.09375 -1.421875 
Q 22.515625 -1.421875 17.65625 -0.515625 
Q 12.796875 0.390625 7.625 2.203125 
L 7.625 11.71875 
Q 11.71875 9.328125 16.59375 8.109375 
Q 21.484375 6.890625 26.8125 6.890625 
Q 36.078125 6.890625 40.9375 10.546875 
Q 45.796875 14.203125 45.796875 21.1875 
Q 45.796875 27.640625 41.28125 31.265625 
Q 36.765625 34.90625 28.71875 34.90625 
L 20.21875 34.90625 
L 20.21875 43.015625 
L 29.109375 43.015625 
Q 36.375 43.015625 40.234375 45.921875 
Q 44.09375 48.828125 44.09375 54.296875 
Q 44.09375 59.90625 40.109375 62.90625 
Q 36.140625 65.921875 28.71875 65.921875 
Q 24.65625 65.921875 20.015625 65.03125 
Q 15.375 64.15625 9.8125 62.3125 
L 9.8125 71.09375 
Q 15.4375 72.65625 20.34375 73.4375 
Q 25.25 74.21875 29.59375 74.21875 
Q 40.828125 74.21875 47.359375 69.109375 
Q 53.90625 64.015625 53.90625 55.328125 
Q 53.90625 49.265625 50.4375 45.09375 
Q 46.96875 40.921875 40.578125 39.3125 
z
" id="DejaVuSans-51"/>
      </defs>
      <g transform="translate(353.996667 169.629924)scale(0.2 -0.2)">
       <use xlink:href="#DejaVuSans-51"/>
      </g>
     </g>
    </g>
    <g id="ytick_10">
     <g id="line2d_22">
      <g>
       <use style="stroke:#000000;stroke-width:1.6;" x="381.421667" xlink:href="#m68c080aa7e" y="111.00476"/>
      </g>
     </g>
     <g id="text_19">
      <!-- 4 -->
      <g transform="translate(353.996667 118.603198)scale(0.2 -0.2)">
       <use xlink:href="#DejaVuSans-52"/>
      </g>
     </g>
    </g>
    <g id="ytick_11">
     <g id="line2d_23">
      <g>
       <use style="stroke:#000000;stroke-width:1.6;" x="381.421667" xlink:href="#m68c080aa7e" y="59.978034"/>
      </g>
     </g>
     <g id="text_20">
      <!-- 5 -->
      <defs>
       <path d="M 10.796875 72.90625 
L 49.515625 72.90625 
L 49.515625 64.59375 
L 19.828125 64.59375 
L 19.828125 46.734375 
Q 21.96875 47.46875 24.109375 47.828125 
Q 26.265625 48.1875 28.421875 48.1875 
Q 40.625 48.1875 47.75 41.5 
Q 54.890625 34.8125 54.890625 23.390625 
Q 54.890625 11.625 47.5625 5.09375 
Q 40.234375 -1.421875 26.90625 -1.421875 
Q 22.3125 -1.421875 17.546875 -0.640625 
Q 12.796875 0.140625 7.71875 1.703125 
L 7.71875 11.625 
Q 12.109375 9.234375 16.796875 8.0625 
Q 21.484375 6.890625 26.703125 6.890625 
Q 35.15625 6.890625 40.078125 11.328125 
Q 45.015625 15.765625 45.015625 23.390625 
Q 45.015625 31 40.078125 35.4375 
Q 35.15625 39.890625 26.703125 39.890625 
Q 22.75 39.890625 18.8125 39.015625 
Q 14.890625 38.140625 10.796875 36.28125 
z
" id="DejaVuSans-53"/>
      </defs>
      <g transform="translate(353.996667 67.576471)scale(0.2 -0.2)">
       <use xlink:href="#DejaVuSans-53"/>
      </g>
     </g>
    </g>
    <g id="ytick_12">
     <g id="line2d_24">
      <g>
       <use style="stroke:#000000;stroke-width:1.6;" x="381.421667" xlink:href="#m68c080aa7e" y="8.951307"/>
      </g>
     </g>
     <g id="text_21">
      <!-- 6 -->
      <g transform="translate(353.996667 16.549745)scale(0.2 -0.2)">
       <use xlink:href="#DejaVuSans-54"/>
      </g>
     </g>
    </g>
   </g>
   <g id="line2d_25">
    <path clip-path="url(#p76ebd83065)" d="M 0 0 
" style="fill:none;stroke:#000000;stroke-linecap:square;stroke-width:2;"/>
   </g>
   <g id="line2d_26">
    <path clip-path="url(#p76ebd83065)" d="M 0 0 
" style="fill:none;stroke:#000000;stroke-dasharray:7.4,3.2;stroke-dashoffset:0;stroke-width:2;"/>
   </g>
   <g id="patch_6">
    <path style="fill:none;stroke:#000000;stroke-linecap:square;stroke-linejoin:miter;stroke-width:0.8;"/>
   </g>
   <g id="patch_7">
    <path style="fill:none;stroke:#000000;stroke-linecap:square;stroke-linejoin:miter;stroke-width:0.8;"/>
   </g>
  </g>
 </g>
 <defs>
  <clipPath id="pd90ffeecb6">
   <rect height="311.611667" width="311.611667" x="27.575" y="3.5"/>
  </clipPath>
  <clipPath id="p76ebd83065">
   <rect height="311.611667" width="311.611667" x="381.421667" y="3.5"/>
  </clipPath>
 </defs>
</svg>
