<?xml version="1.0" encoding="utf-8" standalone="no"?>
<!DOCTYPE svg PUBLIC "-//W3C//DTD SVG 1.1//EN"
  "http://www.w3.org/Graphics/SVG/1.1/DTD/svg11.dtd">
<!-- Created with matplotlib (https://matplotlib.org/) -->
<svg height="336.061667pt" version="1.1" viewBox="0 0 342.686667 336.061667" width="342.686667pt" xmlns="http://www.w3.org/2000/svg" xmlns:xlink="http://www.w3.org/1999/xlink">
 <defs>
  <style type="text/css">
*{stroke-linecap:butt;stroke-linejoin:round;}
  </style>
 </defs>
 <g id="figure_1">
  <g id="patch_1">
   <path d="M 0 336.061667 
L 342.686667 336.061667 
L 342.686667 0 
L 0 0 
z
" style="fill:#ffffff;"/>
  </g>
  <g id="axes_1">
   <g id="patch_2">
    <path d="M 40.325 302.361667 
L 339.186667 302.361667 
L 339.186667 3.5 
L 40.325 3.5 
z
" style="fill:#ffffff;"/>
   </g>
   <g id="matplotlib.axis_1">
    <g id="xtick_1">
     <g id="line2d_1">
      <defs>
       <path d="M 0 0 
L 0 3.5 
" id="m88c10705e5" style="stroke:#000000;stroke-width:1.6;"/>
      </defs>
      <g>
       <use style="stroke:#000000;stroke-width:1.6;" x="81.530421" xlink:href="#m88c10705e5" y="302.361667"/>
      </g>
     </g>
     <g id="text_1">
      <!-- 0.0 -->
      <defs>
       <path d="M 31.78125 66.40625 
Q 24.171875 66.40625 20.328125 58.90625 
Q 16.5 51.421875 16.5 36.375 
Q 16.5 21.390625 20.328125 13.890625 
Q 24.171875 6.390625 31.78125 6.390625 
Q 39.453125 6.390625 43.28125 13.890625 
Q 47.125 21.390625 47.125 36.375 
Q 47.125 51.421875 43.28125 58.90625 
Q 39.453125 66.40625 31.78125 66.40625 
z
M 31.78125 74.21875 
Q 44.046875 74.21875 50.515625 64.515625 
Q 56.984375 54.828125 56.984375 36.375 
Q 56.984375 17.96875 50.515625 8.265625 
Q 44.046875 -1.421875 31.78125 -1.421875 
Q 19.53125 -1.421875 13.0625 8.265625 
Q 6.59375 17.96875 6.59375 36.375 
Q 6.59375 54.828125 13.0625 64.515625 
Q 19.53125 74.21875 31.78125 74.21875 
z
" id="DejaVuSans-48"/>
       <path d="M 10.6875 12.40625 
L 21 12.40625 
L 21 0 
L 10.6875 0 
z
" id="DejaVuSans-46"/>
      </defs>
      <g transform="translate(65.627296 332.258542)scale(0.2 -0.2)">
       <use xlink:href="#DejaVuSans-48"/>
       <use x="63.623047" xlink:href="#DejaVuSans-46"/>
       <use x="95.410156" xlink:href="#DejaVuSans-48"/>
      </g>
     </g>
    </g>
    <g id="xtick_2">
     <g id="line2d_2">
      <g>
       <use style="stroke:#000000;stroke-width:1.6;" x="216.389609" xlink:href="#m88c10705e5" y="302.361667"/>
      </g>
     </g>
     <g id="text_2">
      <!-- 0.5 -->
      <defs>
       <path d="M 10.796875 72.90625 
L 49.515625 72.90625 
L 49.515625 64.59375 
L 19.828125 64.59375 
L 19.828125 46.734375 
Q 21.96875 47.46875 24.109375 47.828125 
Q 26.265625 48.1875 28.421875 48.1875 
Q 40.625 48.1875 47.75 41.5 
Q 54.890625 34.8125 54.890625 23.390625 
Q 54.890625 11.625 47.5625 5.09375 
Q 40.234375 -1.421875 26.90625 -1.421875 
Q 22.3125 -1.421875 17.546875 -0.640625 
Q 12.796875 0.140625 7.71875 1.703125 
L 7.71875 11.625 
Q 12.109375 9.234375 16.796875 8.0625 
Q 21.484375 6.890625 26.703125 6.890625 
Q 35.15625 6.890625 40.078125 11.328125 
Q 45.015625 15.765625 45.015625 23.390625 
Q 45.015625 31 40.078125 35.4375 
Q 35.15625 39.890625 26.703125 39.890625 
Q 22.75 39.890625 18.8125 39.015625 
Q 14.890625 38.140625 10.796875 36.28125 
z
" id="DejaVuSans-53"/>
      </defs>
      <g transform="translate(200.486484 332.258542)scale(0.2 -0.2)">
       <use xlink:href="#DejaVuSans-48"/>
       <use x="63.623047" xlink:href="#DejaVuSans-46"/>
       <use x="95.410156" xlink:href="#DejaVuSans-53"/>
      </g>
     </g>
    </g>
   </g>
   <g id="matplotlib.axis_2">
    <g id="ytick_1">
     <g id="line2d_3">
      <defs>
       <path d="M 0 0 
L -3.5 0 
" id="mb1f724be60" style="stroke:#000000;stroke-width:1.6;"/>
      </defs>
      <g>
       <use style="stroke:#000000;stroke-width:1.6;" x="40.325" xlink:href="#mb1f724be60" y="302.361667"/>
      </g>
     </g>
     <g id="text_3">
      <!-- 0 -->
      <g transform="translate(12.9 309.960104)scale(0.2 -0.2)">
       <use xlink:href="#DejaVuSans-48"/>
      </g>
     </g>
    </g>
    <g id="ytick_2">
     <g id="line2d_4">
      <g>
       <use style="stroke:#000000;stroke-width:1.6;" x="40.325" xlink:href="#mb1f724be60" y="249.517819"/>
      </g>
     </g>
     <g id="text_4">
      <!-- 2 -->
      <defs>
       <path d="M 19.1875 8.296875 
L 53.609375 8.296875 
L 53.609375 0 
L 7.328125 0 
L 7.328125 8.296875 
Q 12.9375 14.109375 22.625 23.890625 
Q 32.328125 33.6875 34.8125 36.53125 
Q 39.546875 41.84375 41.421875 45.53125 
Q 43.3125 49.21875 43.3125 52.78125 
Q 43.3125 58.59375 39.234375 62.25 
Q 35.15625 65.921875 28.609375 65.921875 
Q 23.96875 65.921875 18.8125 64.3125 
Q 13.671875 62.703125 7.8125 59.421875 
L 7.8125 69.390625 
Q 13.765625 71.78125 18.9375 73 
Q 24.125 74.21875 28.421875 74.21875 
Q 39.75 74.21875 46.484375 68.546875 
Q 53.21875 62.890625 53.21875 53.421875 
Q 53.21875 48.921875 51.53125 44.890625 
Q 49.859375 40.875 45.40625 35.40625 
Q 44.1875 33.984375 37.640625 27.21875 
Q 31.109375 20.453125 19.1875 8.296875 
z
" id="DejaVuSans-50"/>
      </defs>
      <g transform="translate(12.9 257.116257)scale(0.2 -0.2)">
       <use xlink:href="#DejaVuSans-50"/>
      </g>
     </g>
    </g>
    <g id="ytick_3">
     <g id="line2d_5">
      <g>
       <use style="stroke:#000000;stroke-width:1.6;" x="40.325" xlink:href="#mb1f724be60" y="196.673972"/>
      </g>
     </g>
     <g id="text_5">
      <!-- 4 -->
      <defs>
       <path d="M 37.796875 64.3125 
L 12.890625 25.390625 
L 37.796875 25.390625 
z
M 35.203125 72.90625 
L 47.609375 72.90625 
L 47.609375 25.390625 
L 58.015625 25.390625 
L 58.015625 17.1875 
L 47.609375 17.1875 
L 47.609375 0 
L 37.796875 0 
L 37.796875 17.1875 
L 4.890625 17.1875 
L 4.890625 26.703125 
z
" id="DejaVuSans-52"/>
      </defs>
      <g transform="translate(12.9 204.272409)scale(0.2 -0.2)">
       <use xlink:href="#DejaVuSans-52"/>
      </g>
     </g>
    </g>
    <g id="ytick_4">
     <g id="line2d_6">
      <g>
       <use style="stroke:#000000;stroke-width:1.6;" x="40.325" xlink:href="#mb1f724be60" y="143.830124"/>
      </g>
     </g>
     <g id="text_6">
      <!-- 6 -->
      <defs>
       <path d="M 33.015625 40.375 
Q 26.375 40.375 22.484375 35.828125 
Q 18.609375 31.296875 18.609375 23.390625 
Q 18.609375 15.53125 22.484375 10.953125 
Q 26.375 6.390625 33.015625 6.390625 
Q 39.65625 6.390625 43.53125 10.953125 
Q 47.40625 15.53125 47.40625 23.390625 
Q 47.40625 31.296875 43.53125 35.828125 
Q 39.65625 40.375 33.015625 40.375 
z
M 52.59375 71.296875 
L 52.59375 62.3125 
Q 48.875 64.0625 45.09375 64.984375 
Q 41.3125 65.921875 37.59375 65.921875 
Q 27.828125 65.921875 22.671875 59.328125 
Q 17.53125 52.734375 16.796875 39.40625 
Q 19.671875 43.65625 24.015625 45.921875 
Q 28.375 48.1875 33.59375 48.1875 
Q 44.578125 48.1875 50.953125 41.515625 
Q 57.328125 34.859375 57.328125 23.390625 
Q 57.328125 12.15625 50.6875 5.359375 
Q 44.046875 -1.421875 33.015625 -1.421875 
Q 20.359375 -1.421875 13.671875 8.265625 
Q 6.984375 17.96875 6.984375 36.375 
Q 6.984375 53.65625 15.1875 63.9375 
Q 23.390625 74.21875 37.203125 74.21875 
Q 40.921875 74.21875 44.703125 73.484375 
Q 48.484375 72.75 52.59375 71.296875 
z
" id="DejaVuSans-54"/>
      </defs>
      <g transform="translate(12.9 151.428562)scale(0.2 -0.2)">
       <use xlink:href="#DejaVuSans-54"/>
      </g>
     </g>
    </g>
    <g id="ytick_5">
     <g id="line2d_7">
      <g>
       <use style="stroke:#000000;stroke-width:1.6;" x="40.325" xlink:href="#mb1f724be60" y="90.986277"/>
      </g>
     </g>
     <g id="text_7">
      <!-- 8 -->
      <defs>
       <path d="M 31.78125 34.625 
Q 24.75 34.625 20.71875 30.859375 
Q 16.703125 27.09375 16.703125 20.515625 
Q 16.703125 13.921875 20.71875 10.15625 
Q 24.75 6.390625 31.78125 6.390625 
Q 38.8125 6.390625 42.859375 10.171875 
Q 46.921875 13.96875 46.921875 20.515625 
Q 46.921875 27.09375 42.890625 30.859375 
Q 38.875 34.625 31.78125 34.625 
z
M 21.921875 38.8125 
Q 15.578125 40.375 12.03125 44.71875 
Q 8.5 49.078125 8.5 55.328125 
Q 8.5 64.0625 14.71875 69.140625 
Q 20.953125 74.21875 31.78125 74.21875 
Q 42.671875 74.21875 48.875 69.140625 
Q 55.078125 64.0625 55.078125 55.328125 
Q 55.078125 49.078125 51.53125 44.71875 
Q 48 40.375 41.703125 38.8125 
Q 48.828125 37.15625 52.796875 32.3125 
Q 56.78125 27.484375 56.78125 20.515625 
Q 56.78125 9.90625 50.3125 4.234375 
Q 43.84375 -1.421875 31.78125 -1.421875 
Q 19.734375 -1.421875 13.25 4.234375 
Q 6.78125 9.90625 6.78125 20.515625 
Q 6.78125 27.484375 10.78125 32.3125 
Q 14.796875 37.15625 21.921875 38.8125 
z
M 18.3125 54.390625 
Q 18.3125 48.734375 21.84375 45.5625 
Q 25.390625 42.390625 31.78125 42.390625 
Q 38.140625 42.390625 41.71875 45.5625 
Q 45.3125 48.734375 45.3125 54.390625 
Q 45.3125 60.0625 41.71875 63.234375 
Q 38.140625 66.40625 31.78125 66.40625 
Q 25.390625 66.40625 21.84375 63.234375 
Q 18.3125 60.0625 18.3125 54.390625 
z
" id="DejaVuSans-56"/>
      </defs>
      <g transform="translate(12.9 98.584714)scale(0.2 -0.2)">
       <use xlink:href="#DejaVuSans-56"/>
      </g>
     </g>
    </g>
    <g id="ytick_6">
     <g id="line2d_8">
      <g>
       <use style="stroke:#000000;stroke-width:1.6;" x="40.325" xlink:href="#mb1f724be60" y="38.142429"/>
      </g>
     </g>
     <g id="text_8">
      <!-- 10 -->
      <defs>
       <path d="M 12.40625 8.296875 
L 28.515625 8.296875 
L 28.515625 63.921875 
L 10.984375 60.40625 
L 10.984375 69.390625 
L 28.421875 72.90625 
L 38.28125 72.90625 
L 38.28125 8.296875 
L 54.390625 8.296875 
L 54.390625 0 
L 12.40625 0 
z
" id="DejaVuSans-49"/>
      </defs>
      <g transform="translate(0.175 45.740867)scale(0.2 -0.2)">
       <use xlink:href="#DejaVuSans-49"/>
       <use x="63.623047" xlink:href="#DejaVuSans-48"/>
      </g>
     </g>
    </g>
   </g>
   <g id="line2d_9">
    <path clip-path="url(#p8171772629)" d="M 71.402115 300.625032 
L 73.154441 295.292021 
L 74.906767 279.7456 
L 76.659093 245.440617 
L 78.411419 188.781922 
L 80.163745 120.028083 
L 81.916071 60.690808 
L 83.668397 26.898061 
L 85.420723 17.731508 
L 87.173049 21.949574 
L 88.925374 30.711687 
L 90.6777 41.608117 
L 92.430026 55.672596 
L 94.182352 73.731258 
L 97.687004 115.341499 
L 102.943982 172.897987 
L 108.20096 242.426315 
L 109.953286 258.401655 
L 111.705612 268.903084 
L 113.457938 275.579478 
L 115.210264 280.215501 
L 116.962589 283.769537 
L 118.714915 286.106245 
L 120.467241 286.770862 
L 122.219567 286.171541 
L 123.971893 285.710542 
L 125.724219 286.687578 
L 127.476545 289.298171 
L 129.228871 292.673624 
L 130.981197 295.733383 
L 132.733523 297.937709 
L 134.485849 299.252202 
L 136.238175 299.687763 
L 137.990501 299.209896 
L 139.742827 298.009658 
L 141.495153 296.607639 
L 143.247479 295.636978 
L 144.999805 295.501366 
L 146.75213 296.14203 
L 148.504456 297.08496 
L 150.256782 297.696632 
L 152.009108 297.476451 
L 153.761434 296.358916 
L 155.51376 294.836403 
L 157.266086 293.654576 
L 159.018412 293.373242 
L 160.770738 294.203611 
L 162.523064 295.983961 
L 164.27539 298.155175 
L 166.027716 299.965595 
L 167.780042 300.858893 
L 169.532368 300.677954 
L 171.284694 299.664939 
L 173.03702 298.445248 
L 174.789346 297.823893 
L 176.541671 298.252077 
L 180.046323 300.767691 
L 181.798649 301.678266 
L 183.550975 302.124253 
L 185.303301 302.249499 
L 187.055627 302.137696 
L 188.807953 301.700327 
L 190.560279 300.747935 
L 192.312605 299.232692 
L 194.064931 297.501875 
L 195.817257 296.220078 
L 197.569583 295.888109 
L 199.321909 296.439074 
L 208.083538 301.087079 
L 209.835864 301.760836 
L 211.58819 302.106346 
L 213.340516 302.150888 
L 215.092842 301.914467 
L 216.845168 301.392172 
L 218.597494 300.696707 
L 220.34982 300.149454 
L 222.102146 300.09314 
L 223.854472 300.567959 
L 225.606798 301.266645 
L 227.359124 301.829881 
L 229.11145 302.080455 
L 230.863776 301.956768 
L 232.616102 301.356423 
L 234.368427 300.196278 
L 236.120753 298.676397 
L 237.873079 297.327145 
L 239.625405 296.565079 
L 241.377731 296.31043 
L 243.130057 296.333028 
L 244.882383 296.772236 
L 246.634709 297.880839 
L 250.139361 300.859228 
L 251.891687 301.760536 
L 253.644013 302.175134 
L 257.148665 302.353274 
L 272.919598 302.348267 
L 276.42425 302.142557 
L 278.176576 301.769689 
L 281.681228 300.433572 
L 283.433554 300.034165 
L 285.18588 300.208498 
L 290.442858 302.002363 
L 292.195183 302.196666 
L 293.947509 302.001157 
L 293.947509 302.001157 
" style="fill:none;stroke:#000000;stroke-linecap:square;stroke-width:2;"/>
   </g>
   <g id="line2d_10">
    <path clip-path="url(#p8171772629)" d="M 55.862185 302.120441 
L 57.970746 301.862756 
L 60.079307 301.37125 
L 62.187869 300.492853 
L 64.29643 299.014335 
L 66.404992 296.666726 
L 68.513553 293.147612 
L 70.622114 288.163817 
L 72.730676 281.490056 
L 74.839237 273.030998 
L 76.947799 262.868709 
L 79.05636 251.278486 
L 83.273483 225.703993 
L 85.382044 212.869559 
L 87.490606 200.767794 
L 89.599167 189.896839 
L 91.707728 180.675177 
L 93.81629 173.447663 
L 95.924851 168.491052 
L 98.033413 166.004618 
L 100.141974 166.083238 
L 102.250535 168.682716 
L 104.359097 173.593646 
L 106.467658 180.438324 
L 108.57622 188.697735 
L 114.901904 215.941565 
L 117.010465 224.096133 
L 119.119027 231.271409 
L 121.227588 237.430453 
L 123.336149 242.683484 
L 125.444711 247.221329 
L 127.553272 251.24325 
L 129.661834 254.902503 
L 131.770395 258.283514 
L 133.878956 261.409932 
L 135.987518 264.270775 
L 138.096079 266.84806 
L 140.204641 269.134225 
L 142.313202 271.136848 
L 144.421763 272.875819 
L 146.530325 274.380245 
L 148.638886 275.688994 
L 152.856009 277.93517 
L 157.073132 280.100477 
L 165.507377 284.750687 
L 167.615939 285.70674 
L 169.7245 286.469087 
L 171.833061 287.025587 
L 173.941623 287.393103 
L 176.050184 287.606293 
L 180.267307 287.725405 
L 188.701553 287.642028 
L 190.810114 287.747801 
L 192.918675 287.97547 
L 195.027237 288.349274 
L 197.135798 288.878331 
L 199.24436 289.555524 
L 203.461482 291.2602 
L 211.895728 295.026457 
L 214.004289 295.803475 
L 216.112851 296.451524 
L 218.221412 296.960585 
L 220.329974 297.334974 
L 224.547096 297.7469 
L 230.872781 297.890272 
L 235.089903 298.013623 
L 239.307026 298.403949 
L 249.849833 299.92413 
L 254.066956 300.151518 
L 260.39264 300.292326 
L 264.609763 300.601904 
L 273.044008 301.457037 
L 277.261131 301.563947 
L 281.478254 301.39082 
L 289.9125 300.867903 
L 294.129622 300.832506 
L 298.346745 301.015826 
L 315.215236 302.228873 
L 321.540921 302.294149 
L 323.649482 302.244425 
L 323.649482 302.244425 
" style="fill:none;stroke:#000000;stroke-dasharray:7.4,3.2;stroke-dashoffset:0;stroke-width:2;"/>
   </g>
   <g id="line2d_11">
    <path clip-path="url(#p8171772629)" d="M 53.909621 302.007743 
L 56.048932 301.657722 
L 58.188242 301.018453 
L 60.327552 299.917259 
L 62.466863 298.12317 
L 64.606173 295.357008 
L 66.745484 291.321023 
L 68.884794 285.749706 
L 71.024105 278.475978 
L 73.163415 269.498334 
L 75.302725 259.028557 
L 79.581346 235.527384 
L 81.720657 223.81808 
L 83.859967 213.063838 
L 85.999278 203.83504 
L 88.138588 196.510365 
L 90.277898 191.25524 
L 92.417209 188.046208 
L 94.556519 186.723319 
L 96.69583 187.047307 
L 98.83514 188.743482 
L 100.974451 191.525819 
L 103.113761 195.106014 
L 107.392382 203.527325 
L 111.671003 211.964762 
L 113.810313 215.751824 
L 115.949624 219.163515 
L 118.088934 222.23164 
L 122.367555 227.75796 
L 126.646176 233.427051 
L 128.785486 236.641953 
L 130.924797 240.212983 
L 133.064107 244.150432 
L 137.342728 252.880793 
L 141.621349 261.90122 
L 143.760659 266.132563 
L 145.89997 270.000892 
L 148.03928 273.428003 
L 150.17859 276.390379 
L 152.317901 278.914177 
L 154.457211 281.059282 
L 156.596522 282.896962 
L 158.735832 284.48749 
L 160.875143 285.864238 
L 163.014453 287.02895 
L 165.153763 287.959536 
L 167.293074 288.62773 
L 169.432384 289.020586 
L 171.571695 289.158285 
L 175.850316 288.947008 
L 177.989626 288.807386 
L 180.128936 288.789047 
L 182.268247 288.966872 
L 184.407557 289.36787 
L 186.546868 289.966744 
L 192.964799 292.167683 
L 195.104109 292.752259 
L 197.24342 293.182887 
L 201.522041 293.660492 
L 207.939972 294.187778 
L 212.218593 294.799258 
L 220.775835 296.378904 
L 227.193766 297.516382 
L 231.472387 298.050402 
L 235.751008 298.324008 
L 242.168939 298.599133 
L 246.44756 299.005786 
L 265.701353 301.477433 
L 272.119285 301.95009 
L 278.537216 302.146427 
L 284.955147 302.018291 
L 297.79101 301.501404 
L 302.069631 301.58148 
L 319.184114 302.286252 
L 323.462735 302.267887 
L 325.602045 302.186497 
L 325.602045 302.186497 
" style="fill:none;stroke:#000000;stroke-dasharray:2,3.3;stroke-dashoffset:0;stroke-width:2;"/>
   </g>
   <g id="patch_3">
    <path d="M 40.325 302.361667 
L 40.325 3.5 
" style="fill:none;stroke:#000000;stroke-linecap:square;stroke-linejoin:miter;stroke-width:0.8;"/>
   </g>
   <g id="patch_4">
    <path d="M 40.325 302.361667 
L 339.186667 302.361667 
" style="fill:none;stroke:#000000;stroke-linecap:square;stroke-linejoin:miter;stroke-width:0.8;"/>
   </g>
  </g>
  <g id="axes_2">
   <g id="patch_5">
    <path d="M 394.171667 302.361667 
L 693.033333 302.361667 
L 693.033333 3.5 
L 394.171667 3.5 
z
" style="fill:#ffffff;"/>
   </g>
   <g id="matplotlib.axis_3">
    <g id="xtick_3">
     <g id="line2d_12">
      <g>
       <use style="stroke:#000000;stroke-width:1.6;" x="412.792357" xlink:href="#m88c10705e5" y="302.361667"/>
      </g>
     </g>
     <g id="text_9">
      <!-- −0.5 -->
      <defs>
       <path d="M 10.59375 35.5 
L 73.1875 35.5 
L 73.1875 27.203125 
L 10.59375 27.203125 
z
" id="DejaVuSans-8722"/>
      </defs>
      <g transform="translate(388.509545 332.258542)scale(0.2 -0.2)">
       <use xlink:href="#DejaVuSans-8722"/>
       <use x="83.789062" xlink:href="#DejaVuSans-48"/>
       <use x="147.412109" xlink:href="#DejaVuSans-46"/>
       <use x="179.199219" xlink:href="#DejaVuSans-53"/>
      </g>
     </g>
    </g>
    <g id="xtick_4">
     <g id="line2d_13">
      <g>
       <use style="stroke:#000000;stroke-width:1.6;" x="508.084823" xlink:href="#m88c10705e5" y="302.361667"/>
      </g>
     </g>
     <g id="text_10">
      <!-- 0.0 -->
      <g transform="translate(492.181698 332.258542)scale(0.2 -0.2)">
       <use xlink:href="#DejaVuSans-48"/>
       <use x="63.623047" xlink:href="#DejaVuSans-46"/>
       <use x="95.410156" xlink:href="#DejaVuSans-48"/>
      </g>
     </g>
    </g>
    <g id="xtick_5">
     <g id="line2d_14">
      <g>
       <use style="stroke:#000000;stroke-width:1.6;" x="603.377289" xlink:href="#m88c10705e5" y="302.361667"/>
      </g>
     </g>
     <g id="text_11">
      <!-- 0.5 -->
      <g transform="translate(587.474164 332.258542)scale(0.2 -0.2)">
       <use xlink:href="#DejaVuSans-48"/>
       <use x="63.623047" xlink:href="#DejaVuSans-46"/>
       <use x="95.410156" xlink:href="#DejaVuSans-53"/>
      </g>
     </g>
    </g>
   </g>
   <g id="matplotlib.axis_4">
    <g id="ytick_7">
     <g id="line2d_15">
      <g>
       <use style="stroke:#000000;stroke-width:1.6;" x="394.171667" xlink:href="#mb1f724be60" y="302.361667"/>
      </g>
     </g>
     <g id="text_12">
      <!-- 0 -->
      <g transform="translate(366.746667 309.960104)scale(0.2 -0.2)">
       <use xlink:href="#DejaVuSans-48"/>
      </g>
     </g>
    </g>
    <g id="ytick_8">
     <g id="line2d_16">
      <g>
       <use style="stroke:#000000;stroke-width:1.6;" x="394.171667" xlink:href="#mb1f724be60" y="251.749558"/>
      </g>
     </g>
     <g id="text_13">
      <!-- 5 -->
      <g transform="translate(366.746667 259.347996)scale(0.2 -0.2)">
       <use xlink:href="#DejaVuSans-53"/>
      </g>
     </g>
    </g>
    <g id="ytick_9">
     <g id="line2d_17">
      <g>
       <use style="stroke:#000000;stroke-width:1.6;" x="394.171667" xlink:href="#mb1f724be60" y="201.13745"/>
      </g>
     </g>
     <g id="text_14">
      <!-- 10 -->
      <g transform="translate(354.021667 208.735887)scale(0.2 -0.2)">
       <use xlink:href="#DejaVuSans-49"/>
       <use x="63.623047" xlink:href="#DejaVuSans-48"/>
      </g>
     </g>
    </g>
    <g id="ytick_10">
     <g id="line2d_18">
      <g>
       <use style="stroke:#000000;stroke-width:1.6;" x="394.171667" xlink:href="#mb1f724be60" y="150.525341"/>
      </g>
     </g>
     <g id="text_15">
      <!-- 15 -->
      <g transform="translate(354.021667 158.123779)scale(0.2 -0.2)">
       <use xlink:href="#DejaVuSans-49"/>
       <use x="63.623047" xlink:href="#DejaVuSans-53"/>
      </g>
     </g>
    </g>
    <g id="ytick_11">
     <g id="line2d_19">
      <g>
       <use style="stroke:#000000;stroke-width:1.6;" x="394.171667" xlink:href="#mb1f724be60" y="99.913233"/>
      </g>
     </g>
     <g id="text_16">
      <!-- 20 -->
      <g transform="translate(354.021667 107.51167)scale(0.2 -0.2)">
       <use xlink:href="#DejaVuSans-50"/>
       <use x="63.623047" xlink:href="#DejaVuSans-48"/>
      </g>
     </g>
    </g>
    <g id="ytick_12">
     <g id="line2d_20">
      <g>
       <use style="stroke:#000000;stroke-width:1.6;" x="394.171667" xlink:href="#mb1f724be60" y="49.301124"/>
      </g>
     </g>
     <g id="text_17">
      <!-- 25 -->
      <g transform="translate(354.021667 56.899562)scale(0.2 -0.2)">
       <use xlink:href="#DejaVuSans-50"/>
       <use x="63.623047" xlink:href="#DejaVuSans-53"/>
      </g>
     </g>
    </g>
   </g>
   <g id="line2d_21">
    <path clip-path="url(#p6595a99415)" d="M 0 0 
" style="fill:none;stroke:#000000;stroke-linecap:square;stroke-width:2;"/>
   </g>
   <g id="line2d_22">
    <path clip-path="url(#p6595a99415)" d="M 0 0 
" style="fill:none;stroke:#000000;stroke-dasharray:7.4,3.2;stroke-dashoffset:0;stroke-width:2;"/>
   </g>
   <g id="patch_6">
    <path style="fill:none;stroke:#000000;stroke-linecap:square;stroke-linejoin:miter;stroke-width:0.8;"/>
   </g>
   <g id="patch_7">
    <path style="fill:none;stroke:#000000;stroke-linecap:square;stroke-linejoin:miter;stroke-width:0.8;"/>
   </g>
  </g>
 </g>
 <defs>
  <clipPath id="p8171772629">
   <rect height="298.861667" width="298.861667" x="40.325" y="3.5"/>
  </clipPath>
  <clipPath id="p6595a99415">
   <rect height="298.861667" width="298.861667" x="394.171667" y="3.5"/>
  </clipPath>
 </defs>
</svg>
