<?xml version="1.0" encoding="utf-8" standalone="no"?>
<!DOCTYPE svg PUBLIC "-//W3C//DTD SVG 1.1//EN"
  "http://www.w3.org/Graphics/SVG/1.1/DTD/svg11.dtd">
<!-- Created with matplotlib (https://matplotlib.org/) -->
<svg height="351.597277pt" version="1.1" viewBox="0 0 341.692595 351.597277" width="341.692595pt" xmlns="http://www.w3.org/2000/svg" xmlns:xlink="http://www.w3.org/1999/xlink">
 <defs>
  <style type="text/css">
*{stroke-linecap:butt;stroke-linejoin:round;}
  </style>
 </defs>
 <g id="figure_1">
  <g id="patch_1">
   <path d="M 0 351.597277 
L 341.692595 351.597277 
L 341.692595 -0 
L 0 -0 
z
" style="fill:#ffffff;"/>
  </g>
  <g id="axes_1">
   <g id="patch_2">
    <path d="M 27.575 317.897277 
L 338.192595 317.897277 
L 338.192595 7.279682 
L 27.575 7.279682 
z
" style="fill:#ffffff;"/>
   </g>
   <g id="matplotlib.axis_1">
    <g id="xtick_1">
     <g id="line2d_1">
      <defs>
       <path d="M 0 0 
L 0 3.5 
" id="m61fa582846" style="stroke:#000000;stroke-width:1.6;"/>
      </defs>
      <g>
       <use style="stroke:#000000;stroke-width:1.6;" x="53.40911" xlink:href="#m61fa582846" y="317.897277"/>
      </g>
     </g>
     <g id="text_1">
      <!-- 0.00 -->
      <defs>
       <path d="M 31.78125 66.40625 
Q 24.171875 66.40625 20.328125 58.90625 
Q 16.5 51.421875 16.5 36.375 
Q 16.5 21.390625 20.328125 13.890625 
Q 24.171875 6.390625 31.78125 6.390625 
Q 39.453125 6.390625 43.28125 13.890625 
Q 47.125 21.390625 47.125 36.375 
Q 47.125 51.421875 43.28125 58.90625 
Q 39.453125 66.40625 31.78125 66.40625 
z
M 31.78125 74.21875 
Q 44.046875 74.21875 50.515625 64.515625 
Q 56.984375 54.828125 56.984375 36.375 
Q 56.984375 17.96875 50.515625 8.265625 
Q 44.046875 -1.421875 31.78125 -1.421875 
Q 19.53125 -1.421875 13.0625 8.265625 
Q 6.59375 17.96875 6.59375 36.375 
Q 6.59375 54.828125 13.0625 64.515625 
Q 19.53125 74.21875 31.78125 74.21875 
z
" id="DejaVuSans-48"/>
       <path d="M 10.6875 12.40625 
L 21 12.40625 
L 21 0 
L 10.6875 0 
z
" id="DejaVuSans-46"/>
      </defs>
      <g transform="translate(31.143485 347.794152)scale(0.2 -0.2)">
       <use xlink:href="#DejaVuSans-48"/>
       <use x="63.623047" xlink:href="#DejaVuSans-46"/>
       <use x="95.410156" xlink:href="#DejaVuSans-48"/>
       <use x="159.033203" xlink:href="#DejaVuSans-48"/>
      </g>
     </g>
    </g>
    <g id="xtick_2">
     <g id="line2d_2">
      <g>
       <use style="stroke:#000000;stroke-width:1.6;" x="119.725413" xlink:href="#m61fa582846" y="317.897277"/>
      </g>
     </g>
     <g id="text_2">
      <!-- 0.25 -->
      <defs>
       <path d="M 19.1875 8.296875 
L 53.609375 8.296875 
L 53.609375 0 
L 7.328125 0 
L 7.328125 8.296875 
Q 12.9375 14.109375 22.625 23.890625 
Q 32.328125 33.6875 34.8125 36.53125 
Q 39.546875 41.84375 41.421875 45.53125 
Q 43.3125 49.21875 43.3125 52.78125 
Q 43.3125 58.59375 39.234375 62.25 
Q 35.15625 65.921875 28.609375 65.921875 
Q 23.96875 65.921875 18.8125 64.3125 
Q 13.671875 62.703125 7.8125 59.421875 
L 7.8125 69.390625 
Q 13.765625 71.78125 18.9375 73 
Q 24.125 74.21875 28.421875 74.21875 
Q 39.75 74.21875 46.484375 68.546875 
Q 53.21875 62.890625 53.21875 53.421875 
Q 53.21875 48.921875 51.53125 44.890625 
Q 49.859375 40.875 45.40625 35.40625 
Q 44.1875 33.984375 37.640625 27.21875 
Q 31.109375 20.453125 19.1875 8.296875 
z
" id="DejaVuSans-50"/>
       <path d="M 10.796875 72.90625 
L 49.515625 72.90625 
L 49.515625 64.59375 
L 19.828125 64.59375 
L 19.828125 46.734375 
Q 21.96875 47.46875 24.109375 47.828125 
Q 26.265625 48.1875 28.421875 48.1875 
Q 40.625 48.1875 47.75 41.5 
Q 54.890625 34.8125 54.890625 23.390625 
Q 54.890625 11.625 47.5625 5.09375 
Q 40.234375 -1.421875 26.90625 -1.421875 
Q 22.3125 -1.421875 17.546875 -0.640625 
Q 12.796875 0.140625 7.71875 1.703125 
L 7.71875 11.625 
Q 12.109375 9.234375 16.796875 8.0625 
Q 21.484375 6.890625 26.703125 6.890625 
Q 35.15625 6.890625 40.078125 11.328125 
Q 45.015625 15.765625 45.015625 23.390625 
Q 45.015625 31 40.078125 35.4375 
Q 35.15625 39.890625 26.703125 39.890625 
Q 22.75 39.890625 18.8125 39.015625 
Q 14.890625 38.140625 10.796875 36.28125 
z
" id="DejaVuSans-53"/>
      </defs>
      <g transform="translate(97.459788 347.794152)scale(0.2 -0.2)">
       <use xlink:href="#DejaVuSans-48"/>
       <use x="63.623047" xlink:href="#DejaVuSans-46"/>
       <use x="95.410156" xlink:href="#DejaVuSans-50"/>
       <use x="159.033203" xlink:href="#DejaVuSans-53"/>
      </g>
     </g>
    </g>
    <g id="xtick_3">
     <g id="line2d_3">
      <g>
       <use style="stroke:#000000;stroke-width:1.6;" x="186.041717" xlink:href="#m61fa582846" y="317.897277"/>
      </g>
     </g>
     <g id="text_3">
      <!-- 0.50 -->
      <g transform="translate(163.776092 347.794152)scale(0.2 -0.2)">
       <use xlink:href="#DejaVuSans-48"/>
       <use x="63.623047" xlink:href="#DejaVuSans-46"/>
       <use x="95.410156" xlink:href="#DejaVuSans-53"/>
       <use x="159.033203" xlink:href="#DejaVuSans-48"/>
      </g>
     </g>
    </g>
    <g id="xtick_4">
     <g id="line2d_4">
      <g>
       <use style="stroke:#000000;stroke-width:1.6;" x="252.35802" xlink:href="#m61fa582846" y="317.897277"/>
      </g>
     </g>
     <g id="text_4">
      <!-- 0.75 -->
      <defs>
       <path d="M 8.203125 72.90625 
L 55.078125 72.90625 
L 55.078125 68.703125 
L 28.609375 0 
L 18.3125 0 
L 43.21875 64.59375 
L 8.203125 64.59375 
z
" id="DejaVuSans-55"/>
      </defs>
      <g transform="translate(230.092395 347.794152)scale(0.2 -0.2)">
       <use xlink:href="#DejaVuSans-48"/>
       <use x="63.623047" xlink:href="#DejaVuSans-46"/>
       <use x="95.410156" xlink:href="#DejaVuSans-55"/>
       <use x="159.033203" xlink:href="#DejaVuSans-53"/>
      </g>
     </g>
    </g>
    <g id="xtick_5">
     <g id="line2d_5">
      <g>
       <use style="stroke:#000000;stroke-width:1.6;" x="318.674323" xlink:href="#m61fa582846" y="317.897277"/>
      </g>
     </g>
     <g id="text_5">
      <!-- 1.00 -->
      <defs>
       <path d="M 12.40625 8.296875 
L 28.515625 8.296875 
L 28.515625 63.921875 
L 10.984375 60.40625 
L 10.984375 69.390625 
L 28.421875 72.90625 
L 38.28125 72.90625 
L 38.28125 8.296875 
L 54.390625 8.296875 
L 54.390625 0 
L 12.40625 0 
z
" id="DejaVuSans-49"/>
      </defs>
      <g transform="translate(296.408698 347.794152)scale(0.2 -0.2)">
       <use xlink:href="#DejaVuSans-49"/>
       <use x="63.623047" xlink:href="#DejaVuSans-46"/>
       <use x="95.410156" xlink:href="#DejaVuSans-48"/>
       <use x="159.033203" xlink:href="#DejaVuSans-48"/>
      </g>
     </g>
    </g>
   </g>
   <g id="matplotlib.axis_2">
    <g id="ytick_1">
     <g id="line2d_6">
      <defs>
       <path d="M 0 0 
L -3.5 0 
" id="m0f02d173c8" style="stroke:#000000;stroke-width:1.6;"/>
      </defs>
      <g>
       <use style="stroke:#000000;stroke-width:1.6;" x="27.575" xlink:href="#m0f02d173c8" y="317.897277"/>
      </g>
     </g>
     <g id="text_6">
      <!-- 0 -->
      <g transform="translate(0.15 325.495715)scale(0.2 -0.2)">
       <use xlink:href="#DejaVuSans-48"/>
      </g>
     </g>
    </g>
    <g id="ytick_2">
     <g id="line2d_7">
      <g>
       <use style="stroke:#000000;stroke-width:1.6;" x="27.575" xlink:href="#m0f02d173c8" y="240.297958"/>
      </g>
     </g>
     <g id="text_7">
      <!-- 2 -->
      <g transform="translate(0.15 247.896395)scale(0.2 -0.2)">
       <use xlink:href="#DejaVuSans-50"/>
      </g>
     </g>
    </g>
    <g id="ytick_3">
     <g id="line2d_8">
      <g>
       <use style="stroke:#000000;stroke-width:1.6;" x="27.575" xlink:href="#m0f02d173c8" y="162.698639"/>
      </g>
     </g>
     <g id="text_8">
      <!-- 4 -->
      <defs>
       <path d="M 37.796875 64.3125 
L 12.890625 25.390625 
L 37.796875 25.390625 
z
M 35.203125 72.90625 
L 47.609375 72.90625 
L 47.609375 25.390625 
L 58.015625 25.390625 
L 58.015625 17.1875 
L 47.609375 17.1875 
L 47.609375 0 
L 37.796875 0 
L 37.796875 17.1875 
L 4.890625 17.1875 
L 4.890625 26.703125 
z
" id="DejaVuSans-52"/>
      </defs>
      <g transform="translate(0.15 170.297076)scale(0.2 -0.2)">
       <use xlink:href="#DejaVuSans-52"/>
      </g>
     </g>
    </g>
    <g id="ytick_4">
     <g id="line2d_9">
      <g>
       <use style="stroke:#000000;stroke-width:1.6;" x="27.575" xlink:href="#m0f02d173c8" y="85.099319"/>
      </g>
     </g>
     <g id="text_9">
      <!-- 6 -->
      <defs>
       <path d="M 33.015625 40.375 
Q 26.375 40.375 22.484375 35.828125 
Q 18.609375 31.296875 18.609375 23.390625 
Q 18.609375 15.53125 22.484375 10.953125 
Q 26.375 6.390625 33.015625 6.390625 
Q 39.65625 6.390625 43.53125 10.953125 
Q 47.40625 15.53125 47.40625 23.390625 
Q 47.40625 31.296875 43.53125 35.828125 
Q 39.65625 40.375 33.015625 40.375 
z
M 52.59375 71.296875 
L 52.59375 62.3125 
Q 48.875 64.0625 45.09375 64.984375 
Q 41.3125 65.921875 37.59375 65.921875 
Q 27.828125 65.921875 22.671875 59.328125 
Q 17.53125 52.734375 16.796875 39.40625 
Q 19.671875 43.65625 24.015625 45.921875 
Q 28.375 48.1875 33.59375 48.1875 
Q 44.578125 48.1875 50.953125 41.515625 
Q 57.328125 34.859375 57.328125 23.390625 
Q 57.328125 12.15625 50.6875 5.359375 
Q 44.046875 -1.421875 33.015625 -1.421875 
Q 20.359375 -1.421875 13.671875 8.265625 
Q 6.984375 17.96875 6.984375 36.375 
Q 6.984375 53.65625 15.1875 63.9375 
Q 23.390625 74.21875 37.203125 74.21875 
Q 40.921875 74.21875 44.703125 73.484375 
Q 48.484375 72.75 52.59375 71.296875 
z
" id="DejaVuSans-54"/>
      </defs>
      <g transform="translate(0.15 92.697757)scale(0.2 -0.2)">
       <use xlink:href="#DejaVuSans-54"/>
      </g>
     </g>
    </g>
    <g id="ytick_5">
     <g id="line2d_10">
      <g>
       <use style="stroke:#000000;stroke-width:1.6;" x="27.575" xlink:href="#m0f02d173c8" y="7.5"/>
      </g>
     </g>
     <g id="text_10">
      <!-- 8 -->
      <defs>
       <path d="M 31.78125 34.625 
Q 24.75 34.625 20.71875 30.859375 
Q 16.703125 27.09375 16.703125 20.515625 
Q 16.703125 13.921875 20.71875 10.15625 
Q 24.75 6.390625 31.78125 6.390625 
Q 38.8125 6.390625 42.859375 10.171875 
Q 46.921875 13.96875 46.921875 20.515625 
Q 46.921875 27.09375 42.890625 30.859375 
Q 38.875 34.625 31.78125 34.625 
z
M 21.921875 38.8125 
Q 15.578125 40.375 12.03125 44.71875 
Q 8.5 49.078125 8.5 55.328125 
Q 8.5 64.0625 14.71875 69.140625 
Q 20.953125 74.21875 31.78125 74.21875 
Q 42.671875 74.21875 48.875 69.140625 
Q 55.078125 64.0625 55.078125 55.328125 
Q 55.078125 49.078125 51.53125 44.71875 
Q 48 40.375 41.703125 38.8125 
Q 48.828125 37.15625 52.796875 32.3125 
Q 56.78125 27.484375 56.78125 20.515625 
Q 56.78125 9.90625 50.3125 4.234375 
Q 43.84375 -1.421875 31.78125 -1.421875 
Q 19.734375 -1.421875 13.25 4.234375 
Q 6.78125 9.90625 6.78125 20.515625 
Q 6.78125 27.484375 10.78125 32.3125 
Q 14.796875 37.15625 21.921875 38.8125 
z
M 18.3125 54.390625 
Q 18.3125 48.734375 21.84375 45.5625 
Q 25.390625 42.390625 31.78125 42.390625 
Q 38.140625 42.390625 41.71875 45.5625 
Q 45.3125 48.734375 45.3125 54.390625 
Q 45.3125 60.0625 41.71875 63.234375 
Q 38.140625 66.40625 31.78125 66.40625 
Q 25.390625 66.40625 21.84375 63.234375 
Q 18.3125 60.0625 18.3125 54.390625 
z
" id="DejaVuSans-56"/>
      </defs>
      <g transform="translate(0.15 15.098437)scale(0.2 -0.2)">
       <use xlink:href="#DejaVuSans-56"/>
      </g>
     </g>
    </g>
   </g>
   <g id="line2d_11">
    <path clip-path="url(#pfa7da012d5)" d="M 44.177713 317.868067 
L 45.593943 317.792061 
L 47.010172 317.569008 
L 48.426402 317.028687 
L 49.842632 315.924409 
L 51.258862 313.977084 
L 52.675092 310.905772 
L 54.091321 306.353952 
L 55.507551 299.720696 
L 56.923781 290.081568 
L 58.340011 276.381958 
L 59.756241 257.836074 
L 61.172471 234.275987 
L 62.5887 206.297076 
L 66.83739 112.443557 
L 68.25362 85.613929 
L 69.669849 64.285304 
L 71.086079 48.652256 
L 72.502309 37.626044 
L 73.918539 29.810997 
L 75.334769 24.525095 
L 76.750999 22.070996 
L 78.167228 23.181051 
L 79.583458 28.229502 
L 80.999688 36.899546 
L 82.415918 48.477334 
L 83.832148 62.252915 
L 88.080837 108.21519 
L 89.497067 121.918322 
L 90.913297 134.186951 
L 95.161986 168.15393 
L 99.410676 205.33683 
L 100.826905 216.013316 
L 102.243135 225.439243 
L 103.659365 233.884522 
L 105.075595 241.463246 
L 106.491825 248.095524 
L 107.908055 253.667213 
L 109.324284 258.239364 
L 112.156744 266.182815 
L 116.405433 278.813128 
L 122.070353 292.363839 
L 123.486583 296.02077 
L 124.902812 299.215457 
L 126.319042 301.789467 
L 127.735272 303.768832 
L 129.151502 305.184746 
L 130.567732 306.015876 
L 131.983961 306.279063 
L 134.816421 306.142582 
L 136.232651 306.661419 
L 137.648881 307.911774 
L 140.48134 311.125933 
L 141.89757 312.068555 
L 143.3138 312.370116 
L 146.14626 312.320994 
L 147.562489 312.579087 
L 153.227409 314.505486 
L 156.059868 315.35728 
L 158.892328 316.24711 
L 160.308558 316.53823 
L 161.724788 316.678314 
L 163.141017 316.66491 
L 167.389707 316.270055 
L 170.222167 316.33041 
L 174.470856 316.608452 
L 175.887086 316.5706 
L 180.135775 316.116152 
L 181.552005 316.223669 
L 190.049384 317.75776 
L 194.298073 317.886659 
L 198.546763 317.799283 
L 204.211682 317.559094 
L 209.876602 317.753741 
L 215.541521 317.56095 
L 224.0389 317.886556 
L 224.0389 317.886556 
" style="fill:none;stroke:#000000;stroke-linecap:square;stroke-width:2;"/>
   </g>
   <g id="line2d_12">
    <path clip-path="url(#pfa7da012d5)" d="M 41.693982 317.89045 
L 46.140905 317.750717 
L 48.364367 317.383111 
L 50.587828 316.426891 
L 52.81129 314.368855 
L 55.034752 310.575386 
L 57.258213 304.370831 
L 59.481675 295.071934 
L 61.705137 282.072484 
L 63.928598 265.20691 
L 66.15206 245.1564 
L 68.375522 223.090802 
L 70.598983 199.664595 
L 77.269368 126.57845 
L 79.49283 108.709537 
L 81.716292 97.398042 
L 83.939753 91.835025 
L 86.163215 90.724678 
L 88.386677 93.547557 
L 90.610138 99.961046 
L 92.8336 108.870302 
L 95.057062 119.026284 
L 97.280523 129.877808 
L 99.503985 141.464498 
L 101.727447 154.090732 
L 110.621293 208.820396 
L 112.844755 220.486377 
L 115.068217 230.944212 
L 117.291678 240.012283 
L 121.738602 256.284431 
L 123.962063 263.985753 
L 126.185525 270.409708 
L 128.408987 275.055272 
L 130.632448 278.433211 
L 137.302833 287.449226 
L 141.749757 292.734025 
L 143.973218 295.990166 
L 148.420142 303.013713 
L 150.643603 305.859884 
L 152.867065 307.892614 
L 155.090527 309.005664 
L 157.313988 309.427675 
L 159.53745 309.67412 
L 161.760912 310.172698 
L 168.431297 312.602423 
L 170.654758 313.125177 
L 181.772067 314.757676 
L 188.442452 314.488034 
L 190.665913 314.830003 
L 195.112837 315.852471 
L 201.783222 316.833938 
L 204.006683 317.118433 
L 206.230145 317.251984 
L 210.677068 317.084523 
L 215.123992 316.809134 
L 217.347453 316.81611 
L 224.017838 317.354384 
L 228.464762 317.124592 
L 230.688223 317.048049 
L 239.58207 317.467548 
L 250.699378 317.493317 
L 259.593225 317.851356 
L 264.040148 317.722404 
L 270.710533 317.453822 
L 275.157457 317.594466 
L 281.827842 317.86898 
L 295.168612 317.897221 
L 304.062458 317.833246 
L 308.509382 317.552349 
L 310.732843 317.39331 
L 312.956305 317.358684 
L 324.073613 317.890207 
L 324.073613 317.890207 
" style="fill:none;stroke:#000000;stroke-dasharray:7.4,3.2;stroke-dashoffset:0;stroke-width:2;"/>
   </g>
   <g id="line2d_13">
    <path clip-path="url(#pfa7da012d5)" d="M 42.582824 317.884873 
L 46.538966 317.751363 
L 48.517037 317.493245 
L 50.495108 316.931191 
L 52.473179 315.868472 
L 54.45125 314.080997 
L 56.429321 311.335908 
L 58.407392 307.39209 
L 60.385464 301.973468 
L 62.363535 294.709904 
L 64.341606 285.110305 
L 66.319677 272.717794 
L 68.297748 257.45829 
L 70.275819 239.874524 
L 76.210032 183.248812 
L 78.188104 166.473176 
L 80.166175 152.438076 
L 82.144246 141.781269 
L 84.122317 134.459003 
L 86.100388 129.815512 
L 88.078459 126.920696 
L 90.05653 124.963885 
L 92.034601 123.613411 
L 94.012672 123.122719 
L 95.990743 123.955862 
L 97.968815 126.27056 
L 99.946886 129.900621 
L 101.924957 134.80573 
L 103.903028 141.309732 
L 105.881099 149.807251 
L 107.85917 160.284227 
L 113.793383 195.577942 
L 115.771454 206.022713 
L 119.727597 225.076589 
L 121.705668 233.808252 
L 123.683739 241.610957 
L 125.66181 248.331105 
L 127.639881 254.093088 
L 129.617952 259.095401 
L 131.596023 263.505155 
L 137.530237 275.637237 
L 143.46445 288.604131 
L 145.442521 292.156348 
L 147.420592 294.868694 
L 149.398663 296.695432 
L 151.376734 297.779602 
L 155.332877 298.926916 
L 157.310948 299.770142 
L 159.289019 301.200509 
L 161.26709 303.178982 
L 163.245161 305.369523 
L 165.223232 307.349922 
L 167.201303 308.825228 
L 169.179374 309.719169 
L 171.157445 310.157845 
L 177.091659 310.795044 
L 179.06973 311.144254 
L 181.047801 311.648655 
L 185.003943 313.139252 
L 186.982014 313.897637 
L 188.960085 314.4541 
L 190.938156 314.75725 
L 194.894299 314.89506 
L 198.850441 315.008567 
L 202.806583 315.503416 
L 206.762725 316.053046 
L 208.740796 316.116851 
L 214.67501 315.977517 
L 216.653081 316.163656 
L 222.587294 317.126218 
L 224.565365 317.271889 
L 234.455721 317.432724 
L 240.389934 317.772182 
L 244.346076 317.711954 
L 250.280289 317.43411 
L 254.236432 317.536636 
L 260.170645 317.836429 
L 268.082929 317.893066 
L 275.995214 317.760994 
L 281.929427 317.660373 
L 293.797854 317.891592 
L 293.797854 317.891592 
" style="fill:none;stroke:#000000;stroke-dasharray:2,3.3;stroke-dashoffset:0;stroke-width:2;"/>
   </g>
   <g id="patch_3">
    <path d="M 27.575 317.897277 
L 27.575 7.279682 
" style="fill:none;stroke:#000000;stroke-linecap:square;stroke-linejoin:miter;stroke-width:0.8;"/>
   </g>
   <g id="patch_4">
    <path d="M 27.575 317.897277 
L 338.192595 317.897277 
" style="fill:none;stroke:#000000;stroke-linecap:square;stroke-linejoin:miter;stroke-width:0.8;"/>
   </g>
  </g>
  <g id="axes_2">
   <g id="patch_5">
    <path d="M 381.421667 317.897277 
L 692.039262 317.897277 
L 692.039262 7.279682 
L 381.421667 7.279682 
z
" style="fill:#ffffff;"/>
   </g>
   <g id="matplotlib.axis_3">
    <g id="xtick_6">
     <g id="line2d_14">
      <g>
       <use style="stroke:#000000;stroke-width:1.6;" x="436.230072" xlink:href="#m61fa582846" y="317.897277"/>
      </g>
     </g>
     <g id="text_11">
      <!-- −0.25 -->
      <defs>
       <path d="M 10.59375 35.5 
L 73.1875 35.5 
L 73.1875 27.203125 
L 10.59375 27.203125 
z
" id="DejaVuSans-8722"/>
      </defs>
      <g transform="translate(405.58476 347.794152)scale(0.2 -0.2)">
       <use xlink:href="#DejaVuSans-8722"/>
       <use x="83.789062" xlink:href="#DejaVuSans-48"/>
       <use x="147.412109" xlink:href="#DejaVuSans-46"/>
       <use x="179.199219" xlink:href="#DejaVuSans-50"/>
       <use x="242.822266" xlink:href="#DejaVuSans-53"/>
      </g>
     </g>
    </g>
    <g id="xtick_7">
     <g id="line2d_15">
      <g>
       <use style="stroke:#000000;stroke-width:1.6;" x="498.954713" xlink:href="#m61fa582846" y="317.897277"/>
      </g>
     </g>
     <g id="text_12">
      <!-- 0.00 -->
      <g transform="translate(476.689088 347.794152)scale(0.2 -0.2)">
       <use xlink:href="#DejaVuSans-48"/>
       <use x="63.623047" xlink:href="#DejaVuSans-46"/>
       <use x="95.410156" xlink:href="#DejaVuSans-48"/>
       <use x="159.033203" xlink:href="#DejaVuSans-48"/>
      </g>
     </g>
    </g>
    <g id="xtick_8">
     <g id="line2d_16">
      <g>
       <use style="stroke:#000000;stroke-width:1.6;" x="561.679354" xlink:href="#m61fa582846" y="317.897277"/>
      </g>
     </g>
     <g id="text_13">
      <!-- 0.25 -->
      <g transform="translate(539.413729 347.794152)scale(0.2 -0.2)">
       <use xlink:href="#DejaVuSans-48"/>
       <use x="63.623047" xlink:href="#DejaVuSans-46"/>
       <use x="95.410156" xlink:href="#DejaVuSans-50"/>
       <use x="159.033203" xlink:href="#DejaVuSans-53"/>
      </g>
     </g>
    </g>
    <g id="xtick_9">
     <g id="line2d_17">
      <g>
       <use style="stroke:#000000;stroke-width:1.6;" x="624.403994" xlink:href="#m61fa582846" y="317.897277"/>
      </g>
     </g>
     <g id="text_14">
      <!-- 0.50 -->
      <g transform="translate(602.138369 347.794152)scale(0.2 -0.2)">
       <use xlink:href="#DejaVuSans-48"/>
       <use x="63.623047" xlink:href="#DejaVuSans-46"/>
       <use x="95.410156" xlink:href="#DejaVuSans-53"/>
       <use x="159.033203" xlink:href="#DejaVuSans-48"/>
      </g>
     </g>
    </g>
    <g id="xtick_10">
     <g id="line2d_18">
      <g>
       <use style="stroke:#000000;stroke-width:1.6;" x="687.128635" xlink:href="#m61fa582846" y="317.897277"/>
      </g>
     </g>
     <g id="text_15">
      <!-- 0.75 -->
      <g transform="translate(664.86301 347.794152)scale(0.2 -0.2)">
       <use xlink:href="#DejaVuSans-48"/>
       <use x="63.623047" xlink:href="#DejaVuSans-46"/>
       <use x="95.410156" xlink:href="#DejaVuSans-55"/>
       <use x="159.033203" xlink:href="#DejaVuSans-53"/>
      </g>
     </g>
    </g>
   </g>
   <g id="matplotlib.axis_4">
    <g id="ytick_6">
     <g id="line2d_19">
      <g>
       <use style="stroke:#000000;stroke-width:1.6;" x="381.421667" xlink:href="#m0f02d173c8" y="317.897277"/>
      </g>
     </g>
     <g id="text_16">
      <!-- 0 -->
      <g transform="translate(353.996667 325.495715)scale(0.2 -0.2)">
       <use xlink:href="#DejaVuSans-48"/>
      </g>
     </g>
    </g>
    <g id="ytick_7">
     <g id="line2d_20">
      <g>
       <use style="stroke:#000000;stroke-width:1.6;" x="381.421667" xlink:href="#m0f02d173c8" y="269.104991"/>
      </g>
     </g>
     <g id="text_17">
      <!-- 1 -->
      <g transform="translate(353.996667 276.703429)scale(0.2 -0.2)">
       <use xlink:href="#DejaVuSans-49"/>
      </g>
     </g>
    </g>
    <g id="ytick_8">
     <g id="line2d_21">
      <g>
       <use style="stroke:#000000;stroke-width:1.6;" x="381.421667" xlink:href="#m0f02d173c8" y="220.312706"/>
      </g>
     </g>
     <g id="text_18">
      <!-- 2 -->
      <g transform="translate(353.996667 227.911143)scale(0.2 -0.2)">
       <use xlink:href="#DejaVuSans-50"/>
      </g>
     </g>
    </g>
    <g id="ytick_9">
     <g id="line2d_22">
      <g>
       <use style="stroke:#000000;stroke-width:1.6;" x="381.421667" xlink:href="#m0f02d173c8" y="171.52042"/>
      </g>
     </g>
     <g id="text_19">
      <!-- 3 -->
      <defs>
       <path d="M 40.578125 39.3125 
Q 47.65625 37.796875 51.625 33 
Q 55.609375 28.21875 55.609375 21.1875 
Q 55.609375 10.40625 48.1875 4.484375 
Q 40.765625 -1.421875 27.09375 -1.421875 
Q 22.515625 -1.421875 17.65625 -0.515625 
Q 12.796875 0.390625 7.625 2.203125 
L 7.625 11.71875 
Q 11.71875 9.328125 16.59375 8.109375 
Q 21.484375 6.890625 26.8125 6.890625 
Q 36.078125 6.890625 40.9375 10.546875 
Q 45.796875 14.203125 45.796875 21.1875 
Q 45.796875 27.640625 41.28125 31.265625 
Q 36.765625 34.90625 28.71875 34.90625 
L 20.21875 34.90625 
L 20.21875 43.015625 
L 29.109375 43.015625 
Q 36.375 43.015625 40.234375 45.921875 
Q 44.09375 48.828125 44.09375 54.296875 
Q 44.09375 59.90625 40.109375 62.90625 
Q 36.140625 65.921875 28.71875 65.921875 
Q 24.65625 65.921875 20.015625 65.03125 
Q 15.375 64.15625 9.8125 62.3125 
L 9.8125 71.09375 
Q 15.4375 72.65625 20.34375 73.4375 
Q 25.25 74.21875 29.59375 74.21875 
Q 40.828125 74.21875 47.359375 69.109375 
Q 53.90625 64.015625 53.90625 55.328125 
Q 53.90625 49.265625 50.4375 45.09375 
Q 46.96875 40.921875 40.578125 39.3125 
z
" id="DejaVuSans-51"/>
      </defs>
      <g transform="translate(353.996667 179.118857)scale(0.2 -0.2)">
       <use xlink:href="#DejaVuSans-51"/>
      </g>
     </g>
    </g>
    <g id="ytick_10">
     <g id="line2d_23">
      <g>
       <use style="stroke:#000000;stroke-width:1.6;" x="381.421667" xlink:href="#m0f02d173c8" y="122.728134"/>
      </g>
     </g>
     <g id="text_20">
      <!-- 4 -->
      <g transform="translate(353.996667 130.326572)scale(0.2 -0.2)">
       <use xlink:href="#DejaVuSans-52"/>
      </g>
     </g>
    </g>
    <g id="ytick_11">
     <g id="line2d_24">
      <g>
       <use style="stroke:#000000;stroke-width:1.6;" x="381.421667" xlink:href="#m0f02d173c8" y="73.935848"/>
      </g>
     </g>
     <g id="text_21">
      <!-- 5 -->
      <g transform="translate(353.996667 81.534286)scale(0.2 -0.2)">
       <use xlink:href="#DejaVuSans-53"/>
      </g>
     </g>
    </g>
    <g id="ytick_12">
     <g id="line2d_25">
      <g>
       <use style="stroke:#000000;stroke-width:1.6;" x="381.421667" xlink:href="#m0f02d173c8" y="25.143563"/>
      </g>
     </g>
     <g id="text_22">
      <!-- 6 -->
      <g transform="translate(353.996667 32.742)scale(0.2 -0.2)">
       <use xlink:href="#DejaVuSans-54"/>
      </g>
     </g>
    </g>
   </g>
   <g id="line2d_26">
    <path clip-path="url(#p77b6e1202c)" d="M 0 0 
" style="fill:none;stroke:#000000;stroke-linecap:square;stroke-width:2;"/>
   </g>
   <g id="line2d_27">
    <path clip-path="url(#p77b6e1202c)" d="M 0 0 
" style="fill:none;stroke:#000000;stroke-dasharray:7.4,3.2;stroke-dashoffset:0;stroke-width:2;"/>
   </g>
   <g id="patch_6">
    <path style="fill:none;stroke:#000000;stroke-linecap:square;stroke-linejoin:miter;stroke-width:0.8;"/>
   </g>
   <g id="patch_7">
    <path style="fill:none;stroke:#000000;stroke-linecap:square;stroke-linejoin:miter;stroke-width:0.8;"/>
   </g>
  </g>
 </g>
 <defs>
  <clipPath id="pfa7da012d5">
   <rect height="310.617595" width="310.617595" x="27.575" y="7.279682"/>
  </clipPath>
  <clipPath id="p77b6e1202c">
   <rect height="310.617595" width="310.617595" x="381.421667" y="7.279682"/>
  </clipPath>
 </defs>
</svg>
