<?xml version="1.0" encoding="utf-8" standalone="no"?>
<!DOCTYPE svg PUBLIC "-//W3C//DTD SVG 1.1//EN"
  "http://www.w3.org/Graphics/SVG/1.1/DTD/svg11.dtd">
<!-- Created with matplotlib (https://matplotlib.org/) -->
<svg height="344.561667pt" version="1.1" viewBox="0 0 351.186667 344.561667" width="351.186667pt" xmlns="http://www.w3.org/2000/svg" xmlns:xlink="http://www.w3.org/1999/xlink">
 <defs>
  <style type="text/css">
*{stroke-linecap:butt;stroke-linejoin:round;}
  </style>
 </defs>
 <g id="figure_1">
  <g id="patch_1">
   <path d="M 0 344.561667 
L 351.186667 344.561667 
L 351.186667 -0 
L 0 -0 
z
" style="fill:#ffffff;"/>
  </g>
  <g id="axes_1">
   <g id="patch_2">
    <path d="M 40.325 310.861667 
L 347.686667 310.861667 
L 347.686667 3.5 
L 40.325 3.5 
z
" style="fill:#ffffff;"/>
   </g>
   <g id="matplotlib.axis_1">
    <g id="xtick_1">
     <g id="line2d_1">
      <defs>
       <path d="M 0 0 
L 0 3.5 
" id="mcfa8aae4e4" style="stroke:#000000;stroke-width:1.6;"/>
      </defs>
      <g>
       <use style="stroke:#000000;stroke-width:1.6;" x="66.905491" xlink:href="#mcfa8aae4e4" y="310.861667"/>
      </g>
     </g>
     <g id="text_1">
      <!-- 0.0 -->
      <defs>
       <path d="M 31.78125 66.40625 
Q 24.171875 66.40625 20.328125 58.90625 
Q 16.5 51.421875 16.5 36.375 
Q 16.5 21.390625 20.328125 13.890625 
Q 24.171875 6.390625 31.78125 6.390625 
Q 39.453125 6.390625 43.28125 13.890625 
Q 47.125 21.390625 47.125 36.375 
Q 47.125 51.421875 43.28125 58.90625 
Q 39.453125 66.40625 31.78125 66.40625 
z
M 31.78125 74.21875 
Q 44.046875 74.21875 50.515625 64.515625 
Q 56.984375 54.828125 56.984375 36.375 
Q 56.984375 17.96875 50.515625 8.265625 
Q 44.046875 -1.421875 31.78125 -1.421875 
Q 19.53125 -1.421875 13.0625 8.265625 
Q 6.59375 17.96875 6.59375 36.375 
Q 6.59375 54.828125 13.0625 64.515625 
Q 19.53125 74.21875 31.78125 74.21875 
z
" id="DejaVuSans-48"/>
       <path d="M 10.6875 12.40625 
L 21 12.40625 
L 21 0 
L 10.6875 0 
z
" id="DejaVuSans-46"/>
      </defs>
      <g transform="translate(51.002366 340.758542)scale(0.2 -0.2)">
       <use xlink:href="#DejaVuSans-48"/>
       <use x="63.623047" xlink:href="#DejaVuSans-46"/>
       <use x="95.410156" xlink:href="#DejaVuSans-48"/>
      </g>
     </g>
    </g>
    <g id="xtick_2">
     <g id="line2d_2">
      <g>
       <use style="stroke:#000000;stroke-width:1.6;" x="163.011802" xlink:href="#mcfa8aae4e4" y="310.861667"/>
      </g>
     </g>
     <g id="text_2">
      <!-- 0.2 -->
      <defs>
       <path d="M 19.1875 8.296875 
L 53.609375 8.296875 
L 53.609375 0 
L 7.328125 0 
L 7.328125 8.296875 
Q 12.9375 14.109375 22.625 23.890625 
Q 32.328125 33.6875 34.8125 36.53125 
Q 39.546875 41.84375 41.421875 45.53125 
Q 43.3125 49.21875 43.3125 52.78125 
Q 43.3125 58.59375 39.234375 62.25 
Q 35.15625 65.921875 28.609375 65.921875 
Q 23.96875 65.921875 18.8125 64.3125 
Q 13.671875 62.703125 7.8125 59.421875 
L 7.8125 69.390625 
Q 13.765625 71.78125 18.9375 73 
Q 24.125 74.21875 28.421875 74.21875 
Q 39.75 74.21875 46.484375 68.546875 
Q 53.21875 62.890625 53.21875 53.421875 
Q 53.21875 48.921875 51.53125 44.890625 
Q 49.859375 40.875 45.40625 35.40625 
Q 44.1875 33.984375 37.640625 27.21875 
Q 31.109375 20.453125 19.1875 8.296875 
z
" id="DejaVuSans-50"/>
      </defs>
      <g transform="translate(147.108677 340.758542)scale(0.2 -0.2)">
       <use xlink:href="#DejaVuSans-48"/>
       <use x="63.623047" xlink:href="#DejaVuSans-46"/>
       <use x="95.410156" xlink:href="#DejaVuSans-50"/>
      </g>
     </g>
    </g>
    <g id="xtick_3">
     <g id="line2d_3">
      <g>
       <use style="stroke:#000000;stroke-width:1.6;" x="259.118112" xlink:href="#mcfa8aae4e4" y="310.861667"/>
      </g>
     </g>
     <g id="text_3">
      <!-- 0.4 -->
      <defs>
       <path d="M 37.796875 64.3125 
L 12.890625 25.390625 
L 37.796875 25.390625 
z
M 35.203125 72.90625 
L 47.609375 72.90625 
L 47.609375 25.390625 
L 58.015625 25.390625 
L 58.015625 17.1875 
L 47.609375 17.1875 
L 47.609375 0 
L 37.796875 0 
L 37.796875 17.1875 
L 4.890625 17.1875 
L 4.890625 26.703125 
z
" id="DejaVuSans-52"/>
      </defs>
      <g transform="translate(243.214987 340.758542)scale(0.2 -0.2)">
       <use xlink:href="#DejaVuSans-48"/>
       <use x="63.623047" xlink:href="#DejaVuSans-46"/>
       <use x="95.410156" xlink:href="#DejaVuSans-52"/>
      </g>
     </g>
    </g>
   </g>
   <g id="matplotlib.axis_2">
    <g id="ytick_1">
     <g id="line2d_4">
      <defs>
       <path d="M 0 0 
L -3.5 0 
" id="mb275ac40c3" style="stroke:#000000;stroke-width:1.6;"/>
      </defs>
      <g>
       <use style="stroke:#000000;stroke-width:1.6;" x="40.325" xlink:href="#mb275ac40c3" y="310.861667"/>
      </g>
     </g>
     <g id="text_4">
      <!-- 0 -->
      <g transform="translate(12.9 318.460104)scale(0.2 -0.2)">
       <use xlink:href="#DejaVuSans-48"/>
      </g>
     </g>
    </g>
    <g id="ytick_2">
     <g id="line2d_5">
      <g>
       <use style="stroke:#000000;stroke-width:1.6;" x="40.325" xlink:href="#mb275ac40c3" y="252.983407"/>
      </g>
     </g>
     <g id="text_5">
      <!-- 2 -->
      <g transform="translate(12.9 260.581844)scale(0.2 -0.2)">
       <use xlink:href="#DejaVuSans-50"/>
      </g>
     </g>
    </g>
    <g id="ytick_3">
     <g id="line2d_6">
      <g>
       <use style="stroke:#000000;stroke-width:1.6;" x="40.325" xlink:href="#mb275ac40c3" y="195.105147"/>
      </g>
     </g>
     <g id="text_6">
      <!-- 4 -->
      <g transform="translate(12.9 202.703584)scale(0.2 -0.2)">
       <use xlink:href="#DejaVuSans-52"/>
      </g>
     </g>
    </g>
    <g id="ytick_4">
     <g id="line2d_7">
      <g>
       <use style="stroke:#000000;stroke-width:1.6;" x="40.325" xlink:href="#mb275ac40c3" y="137.226887"/>
      </g>
     </g>
     <g id="text_7">
      <!-- 6 -->
      <defs>
       <path d="M 33.015625 40.375 
Q 26.375 40.375 22.484375 35.828125 
Q 18.609375 31.296875 18.609375 23.390625 
Q 18.609375 15.53125 22.484375 10.953125 
Q 26.375 6.390625 33.015625 6.390625 
Q 39.65625 6.390625 43.53125 10.953125 
Q 47.40625 15.53125 47.40625 23.390625 
Q 47.40625 31.296875 43.53125 35.828125 
Q 39.65625 40.375 33.015625 40.375 
z
M 52.59375 71.296875 
L 52.59375 62.3125 
Q 48.875 64.0625 45.09375 64.984375 
Q 41.3125 65.921875 37.59375 65.921875 
Q 27.828125 65.921875 22.671875 59.328125 
Q 17.53125 52.734375 16.796875 39.40625 
Q 19.671875 43.65625 24.015625 45.921875 
Q 28.375 48.1875 33.59375 48.1875 
Q 44.578125 48.1875 50.953125 41.515625 
Q 57.328125 34.859375 57.328125 23.390625 
Q 57.328125 12.15625 50.6875 5.359375 
Q 44.046875 -1.421875 33.015625 -1.421875 
Q 20.359375 -1.421875 13.671875 8.265625 
Q 6.984375 17.96875 6.984375 36.375 
Q 6.984375 53.65625 15.1875 63.9375 
Q 23.390625 74.21875 37.203125 74.21875 
Q 40.921875 74.21875 44.703125 73.484375 
Q 48.484375 72.75 52.59375 71.296875 
z
" id="DejaVuSans-54"/>
      </defs>
      <g transform="translate(12.9 144.825324)scale(0.2 -0.2)">
       <use xlink:href="#DejaVuSans-54"/>
      </g>
     </g>
    </g>
    <g id="ytick_5">
     <g id="line2d_8">
      <g>
       <use style="stroke:#000000;stroke-width:1.6;" x="40.325" xlink:href="#mb275ac40c3" y="79.348627"/>
      </g>
     </g>
     <g id="text_8">
      <!-- 8 -->
      <defs>
       <path d="M 31.78125 34.625 
Q 24.75 34.625 20.71875 30.859375 
Q 16.703125 27.09375 16.703125 20.515625 
Q 16.703125 13.921875 20.71875 10.15625 
Q 24.75 6.390625 31.78125 6.390625 
Q 38.8125 6.390625 42.859375 10.171875 
Q 46.921875 13.96875 46.921875 20.515625 
Q 46.921875 27.09375 42.890625 30.859375 
Q 38.875 34.625 31.78125 34.625 
z
M 21.921875 38.8125 
Q 15.578125 40.375 12.03125 44.71875 
Q 8.5 49.078125 8.5 55.328125 
Q 8.5 64.0625 14.71875 69.140625 
Q 20.953125 74.21875 31.78125 74.21875 
Q 42.671875 74.21875 48.875 69.140625 
Q 55.078125 64.0625 55.078125 55.328125 
Q 55.078125 49.078125 51.53125 44.71875 
Q 48 40.375 41.703125 38.8125 
Q 48.828125 37.15625 52.796875 32.3125 
Q 56.78125 27.484375 56.78125 20.515625 
Q 56.78125 9.90625 50.3125 4.234375 
Q 43.84375 -1.421875 31.78125 -1.421875 
Q 19.734375 -1.421875 13.25 4.234375 
Q 6.78125 9.90625 6.78125 20.515625 
Q 6.78125 27.484375 10.78125 32.3125 
Q 14.796875 37.15625 21.921875 38.8125 
z
M 18.3125 54.390625 
Q 18.3125 48.734375 21.84375 45.5625 
Q 25.390625 42.390625 31.78125 42.390625 
Q 38.140625 42.390625 41.71875 45.5625 
Q 45.3125 48.734375 45.3125 54.390625 
Q 45.3125 60.0625 41.71875 63.234375 
Q 38.140625 66.40625 31.78125 66.40625 
Q 25.390625 66.40625 21.84375 63.234375 
Q 18.3125 60.0625 18.3125 54.390625 
z
" id="DejaVuSans-56"/>
      </defs>
      <g transform="translate(12.9 86.947064)scale(0.2 -0.2)">
       <use xlink:href="#DejaVuSans-56"/>
      </g>
     </g>
    </g>
    <g id="ytick_6">
     <g id="line2d_9">
      <g>
       <use style="stroke:#000000;stroke-width:1.6;" x="40.325" xlink:href="#mb275ac40c3" y="21.470367"/>
      </g>
     </g>
     <g id="text_9">
      <!-- 10 -->
      <defs>
       <path d="M 12.40625 8.296875 
L 28.515625 8.296875 
L 28.515625 63.921875 
L 10.984375 60.40625 
L 10.984375 69.390625 
L 28.421875 72.90625 
L 38.28125 72.90625 
L 38.28125 8.296875 
L 54.390625 8.296875 
L 54.390625 0 
L 12.40625 0 
z
" id="DejaVuSans-49"/>
      </defs>
      <g transform="translate(0.175 29.068804)scale(0.2 -0.2)">
       <use xlink:href="#DejaVuSans-49"/>
       <use x="63.623047" xlink:href="#DejaVuSans-48"/>
      </g>
     </g>
    </g>
   </g>
   <g id="line2d_10">
    <path clip-path="url(#p71ed043bcc)" d="M 65.37713 310.852441 
L 69.602934 310.787856 
L 71.715836 310.679386 
L 73.828738 310.45829 
L 75.94164 310.048923 
L 78.054542 309.344325 
L 80.167444 308.195621 
L 82.280346 306.404607 
L 84.393248 303.728898 
L 86.50615 299.896092 
L 88.619052 294.609788 
L 90.731954 287.546229 
L 92.844856 278.379524 
L 94.957757 266.877126 
L 97.070659 253.039605 
L 99.183561 237.185011 
L 103.409365 201.950394 
L 107.635169 167.207145 
L 109.748071 151.897192 
L 111.860973 138.581392 
L 113.973875 127.242032 
L 116.086777 117.522274 
L 118.199679 108.99565 
L 120.312581 101.505328 
L 122.425483 95.386368 
L 124.538385 91.384243 
L 126.651287 90.198858 
L 128.764189 91.88099 
L 130.877091 95.569892 
L 132.989993 99.895082 
L 135.102895 103.79388 
L 139.328699 110.496493 
L 141.441601 114.959877 
L 143.554503 121.22246 
L 145.667405 129.512305 
L 147.780307 139.593174 
L 152.006111 162.851089 
L 154.119013 174.631377 
L 156.231915 185.562257 
L 158.344817 195.07007 
L 160.457719 202.91593 
L 162.570621 209.328436 
L 168.909327 226.194963 
L 173.135131 239.09309 
L 175.248033 245.534866 
L 177.360935 251.44118 
L 179.473837 256.60755 
L 181.586739 261.066217 
L 183.699641 265.012184 
L 187.925445 272.15381 
L 192.151249 278.641166 
L 196.377053 284.407434 
L 200.602857 289.714711 
L 202.715759 292.212482 
L 204.828661 294.506451 
L 206.941563 296.441862 
L 209.054465 297.873698 
L 211.167367 298.772438 
L 213.280269 299.272376 
L 217.506073 300.037346 
L 219.618975 300.669098 
L 223.844779 302.476513 
L 225.957681 303.427087 
L 228.070583 304.245035 
L 230.183485 304.845015 
L 232.296387 305.186224 
L 234.409289 305.286575 
L 238.635092 305.193202 
L 240.747994 305.304124 
L 242.860896 305.645802 
L 247.0867 306.809354 
L 251.312504 307.884414 
L 255.538308 308.48745 
L 261.877014 309.010834 
L 268.21572 309.467227 
L 280.893132 310.659783 
L 287.231838 310.838787 
L 304.135054 310.852275 
L 312.586662 310.697196 
L 318.925368 310.591667 
L 333.715682 310.855987 
L 333.715682 310.855987 
" style="fill:none;stroke:#000000;stroke-linecap:square;stroke-width:2;"/>
   </g>
   <g id="line2d_11">
    <path clip-path="url(#p71ed043bcc)" d="M 65.715587 310.84561 
L 69.603605 310.752351 
L 71.547613 310.607083 
L 73.491622 310.328233 
L 75.435631 309.850154 
L 77.37964 309.108857 
L 79.323649 308.047443 
L 81.267657 306.60071 
L 83.211666 304.659199 
L 85.155675 302.038131 
L 87.099684 298.487588 
L 89.043693 293.756998 
L 90.987701 287.682383 
L 92.93171 280.238459 
L 94.875719 271.516902 
L 96.819728 261.644944 
L 98.763737 250.704613 
L 100.707745 238.715168 
L 102.651754 225.692019 
L 106.539772 197.041004 
L 112.371798 151.795607 
L 114.315807 137.700291 
L 116.259816 125.051297 
L 118.203824 114.470266 
L 120.147833 106.350781 
L 122.091842 100.70648 
L 124.035851 97.215555 
L 125.97986 95.440607 
L 127.923868 95.06724 
L 129.867877 96.000045 
L 131.811886 98.265586 
L 133.755895 101.802798 
L 135.699903 106.294985 
L 139.587921 115.879638 
L 141.53193 120.093811 
L 143.475939 124.004757 
L 145.419947 128.187505 
L 147.363956 133.295637 
L 149.307965 139.715131 
L 151.251974 147.40711 
L 155.139991 165.087925 
L 160.972018 192.568947 
L 162.916027 201.225685 
L 164.860035 209.208963 
L 166.804044 216.269456 
L 168.748053 222.319307 
L 170.692062 227.464761 
L 172.63607 231.934611 
L 176.524088 239.80787 
L 180.412106 247.57321 
L 184.300123 256.273937 
L 188.188141 265.382121 
L 190.13215 269.635177 
L 192.076158 273.547676 
L 194.020167 277.111056 
L 195.964176 280.3517 
L 197.908185 283.308427 
L 199.852194 286.027877 
L 203.740211 290.915214 
L 205.68422 293.09674 
L 207.628229 295.06439 
L 209.572237 296.786748 
L 211.516246 298.263898 
L 213.460255 299.532839 
L 217.348273 301.658147 
L 221.23629 303.397467 
L 223.180299 304.084458 
L 225.124308 304.612418 
L 227.068317 304.980163 
L 234.844352 306.000844 
L 242.620387 307.733469 
L 246.508404 308.040117 
L 254.28444 308.37846 
L 260.116466 308.539462 
L 264.004484 308.690776 
L 267.892501 309.075189 
L 275.668536 310.033144 
L 279.556554 310.21187 
L 287.332589 310.194555 
L 295.108624 310.033019 
L 298.996642 310.252534 
L 304.828668 310.697411 
L 310.660694 310.845327 
L 312.604703 310.851904 
L 312.604703 310.851904 
" style="fill:none;stroke:#000000;stroke-dasharray:7.4,3.2;stroke-dashoffset:0;stroke-width:2;"/>
   </g>
   <g id="line2d_12">
    <path clip-path="url(#p71ed043bcc)" d="M 54.295985 310.852143 
L 57.913981 310.77583 
L 59.722979 310.644057 
L 61.531978 310.381737 
L 63.340976 309.92164 
L 65.149974 309.179517 
L 66.958972 308.020961 
L 68.767971 306.206353 
L 70.576969 303.352539 
L 72.385967 298.9469 
L 74.194965 292.40767 
L 76.003963 283.166037 
L 77.812962 270.773937 
L 79.62196 255.02656 
L 81.430958 236.006454 
L 83.239956 213.984378 
L 85.048954 189.307883 
L 88.666951 134.412507 
L 90.475949 106.58261 
L 92.284947 80.870167 
L 94.093945 59.047307 
L 95.902944 42.20824 
L 97.711942 30.499557 
L 99.52094 23.267861 
L 101.329938 19.462109 
L 103.138936 18.13626 
L 104.947935 18.942117 
L 106.756933 22.324851 
L 108.565931 29.113802 
L 110.374929 39.679372 
L 112.183927 53.321466 
L 115.801924 83.149535 
L 117.610922 96.499827 
L 123.037917 132.560724 
L 128.464911 171.538778 
L 130.27391 183.377678 
L 132.082908 194.11217 
L 133.891906 203.548314 
L 135.700904 211.532883 
L 137.509902 218.220695 
L 141.127899 229.858152 
L 144.745895 240.994926 
L 153.790886 266.012903 
L 155.599884 270.180739 
L 157.408883 273.190876 
L 159.217881 275.168053 
L 161.026879 276.742045 
L 162.835877 278.708283 
L 164.644875 281.487897 
L 166.453874 284.792986 
L 168.262872 287.8438 
L 170.07187 289.992225 
L 171.880868 291.197326 
L 175.498865 292.743699 
L 179.116861 294.533558 
L 180.925859 295.071974 
L 182.734858 295.479914 
L 184.543856 296.171872 
L 186.352854 297.384869 
L 189.97085 300.372185 
L 191.779849 301.441183 
L 197.206843 303.879325 
L 199.015841 304.773626 
L 200.82484 305.442044 
L 202.633838 305.807021 
L 206.251834 306.340539 
L 211.678829 307.842602 
L 220.72382 309.382529 
L 222.532818 309.451059 
L 227.959813 309.174604 
L 229.768811 309.323714 
L 235.195806 310.090052 
L 238.813802 310.270064 
L 242.431798 310.121149 
L 246.049795 309.872929 
L 249.667791 309.960424 
L 255.094786 310.346698 
L 262.330779 310.618881 
L 265.948775 310.455666 
L 269.566771 310.195883 
L 273.184768 310.291436 
L 278.611762 310.742801 
L 284.038757 310.854698 
L 284.038757 310.854698 
" style="fill:none;stroke:#000000;stroke-dasharray:2,3.3;stroke-dashoffset:0;stroke-width:2;"/>
   </g>
   <g id="patch_3">
    <path d="M 40.325 310.861667 
L 40.325 3.5 
" style="fill:none;stroke:#000000;stroke-linecap:square;stroke-linejoin:miter;stroke-width:0.8;"/>
   </g>
   <g id="patch_4">
    <path d="M 40.325 310.861667 
L 347.686667 310.861667 
" style="fill:none;stroke:#000000;stroke-linecap:square;stroke-linejoin:miter;stroke-width:0.8;"/>
   </g>
  </g>
  <g id="axes_2">
   <g id="patch_5">
    <path d="M 389.921667 310.861667 
L 697.283333 310.861667 
L 697.283333 3.5 
L 389.921667 3.5 
z
" style="fill:#ffffff;"/>
   </g>
   <g id="matplotlib.axis_3">
    <g id="xtick_4">
     <g id="line2d_13">
      <g>
       <use style="stroke:#000000;stroke-width:1.6;" x="422.110181" xlink:href="#mcfa8aae4e4" y="310.861667"/>
      </g>
     </g>
     <g id="text_10">
      <!-- −0.4 -->
      <defs>
       <path d="M 10.59375 35.5 
L 73.1875 35.5 
L 73.1875 27.203125 
L 10.59375 27.203125 
z
" id="DejaVuSans-8722"/>
      </defs>
      <g transform="translate(397.827369 340.758542)scale(0.2 -0.2)">
       <use xlink:href="#DejaVuSans-8722"/>
       <use x="83.789062" xlink:href="#DejaVuSans-48"/>
       <use x="147.412109" xlink:href="#DejaVuSans-46"/>
       <use x="179.199219" xlink:href="#DejaVuSans-52"/>
      </g>
     </g>
    </g>
    <g id="xtick_5">
     <g id="line2d_14">
      <g>
       <use style="stroke:#000000;stroke-width:1.6;" x="495.758637" xlink:href="#mcfa8aae4e4" y="310.861667"/>
      </g>
     </g>
     <g id="text_11">
      <!-- −0.2 -->
      <g transform="translate(471.475824 340.758542)scale(0.2 -0.2)">
       <use xlink:href="#DejaVuSans-8722"/>
       <use x="83.789062" xlink:href="#DejaVuSans-48"/>
       <use x="147.412109" xlink:href="#DejaVuSans-46"/>
       <use x="179.199219" xlink:href="#DejaVuSans-50"/>
      </g>
     </g>
    </g>
    <g id="xtick_6">
     <g id="line2d_15">
      <g>
       <use style="stroke:#000000;stroke-width:1.6;" x="569.407092" xlink:href="#mcfa8aae4e4" y="310.861667"/>
      </g>
     </g>
     <g id="text_12">
      <!-- 0.0 -->
      <g transform="translate(553.503967 340.758542)scale(0.2 -0.2)">
       <use xlink:href="#DejaVuSans-48"/>
       <use x="63.623047" xlink:href="#DejaVuSans-46"/>
       <use x="95.410156" xlink:href="#DejaVuSans-48"/>
      </g>
     </g>
    </g>
    <g id="xtick_7">
     <g id="line2d_16">
      <g>
       <use style="stroke:#000000;stroke-width:1.6;" x="643.055548" xlink:href="#mcfa8aae4e4" y="310.861667"/>
      </g>
     </g>
     <g id="text_13">
      <!-- 0.2 -->
      <g transform="translate(627.152423 340.758542)scale(0.2 -0.2)">
       <use xlink:href="#DejaVuSans-48"/>
       <use x="63.623047" xlink:href="#DejaVuSans-46"/>
       <use x="95.410156" xlink:href="#DejaVuSans-50"/>
      </g>
     </g>
    </g>
   </g>
   <g id="matplotlib.axis_4">
    <g id="ytick_7">
     <g id="line2d_17">
      <g>
       <use style="stroke:#000000;stroke-width:1.6;" x="389.921667" xlink:href="#mb275ac40c3" y="310.861667"/>
      </g>
     </g>
     <g id="text_14">
      <!-- 0 -->
      <g transform="translate(362.496667 318.460104)scale(0.2 -0.2)">
       <use xlink:href="#DejaVuSans-48"/>
      </g>
     </g>
    </g>
    <g id="ytick_8">
     <g id="line2d_18">
      <g>
       <use style="stroke:#000000;stroke-width:1.6;" x="389.921667" xlink:href="#mb275ac40c3" y="265.714303"/>
      </g>
     </g>
     <g id="text_15">
      <!-- 1 -->
      <g transform="translate(362.496667 273.31274)scale(0.2 -0.2)">
       <use xlink:href="#DejaVuSans-49"/>
      </g>
     </g>
    </g>
    <g id="ytick_9">
     <g id="line2d_19">
      <g>
       <use style="stroke:#000000;stroke-width:1.6;" x="389.921667" xlink:href="#mb275ac40c3" y="220.566939"/>
      </g>
     </g>
     <g id="text_16">
      <!-- 2 -->
      <g transform="translate(362.496667 228.165376)scale(0.2 -0.2)">
       <use xlink:href="#DejaVuSans-50"/>
      </g>
     </g>
    </g>
    <g id="ytick_10">
     <g id="line2d_20">
      <g>
       <use style="stroke:#000000;stroke-width:1.6;" x="389.921667" xlink:href="#mb275ac40c3" y="175.419575"/>
      </g>
     </g>
     <g id="text_17">
      <!-- 3 -->
      <defs>
       <path d="M 40.578125 39.3125 
Q 47.65625 37.796875 51.625 33 
Q 55.609375 28.21875 55.609375 21.1875 
Q 55.609375 10.40625 48.1875 4.484375 
Q 40.765625 -1.421875 27.09375 -1.421875 
Q 22.515625 -1.421875 17.65625 -0.515625 
Q 12.796875 0.390625 7.625 2.203125 
L 7.625 11.71875 
Q 11.71875 9.328125 16.59375 8.109375 
Q 21.484375 6.890625 26.8125 6.890625 
Q 36.078125 6.890625 40.9375 10.546875 
Q 45.796875 14.203125 45.796875 21.1875 
Q 45.796875 27.640625 41.28125 31.265625 
Q 36.765625 34.90625 28.71875 34.90625 
L 20.21875 34.90625 
L 20.21875 43.015625 
L 29.109375 43.015625 
Q 36.375 43.015625 40.234375 45.921875 
Q 44.09375 48.828125 44.09375 54.296875 
Q 44.09375 59.90625 40.109375 62.90625 
Q 36.140625 65.921875 28.71875 65.921875 
Q 24.65625 65.921875 20.015625 65.03125 
Q 15.375 64.15625 9.8125 62.3125 
L 9.8125 71.09375 
Q 15.4375 72.65625 20.34375 73.4375 
Q 25.25 74.21875 29.59375 74.21875 
Q 40.828125 74.21875 47.359375 69.109375 
Q 53.90625 64.015625 53.90625 55.328125 
Q 53.90625 49.265625 50.4375 45.09375 
Q 46.96875 40.921875 40.578125 39.3125 
z
" id="DejaVuSans-51"/>
      </defs>
      <g transform="translate(362.496667 183.018012)scale(0.2 -0.2)">
       <use xlink:href="#DejaVuSans-51"/>
      </g>
     </g>
    </g>
    <g id="ytick_11">
     <g id="line2d_21">
      <g>
       <use style="stroke:#000000;stroke-width:1.6;" x="389.921667" xlink:href="#mb275ac40c3" y="130.272211"/>
      </g>
     </g>
     <g id="text_18">
      <!-- 4 -->
      <g transform="translate(362.496667 137.870648)scale(0.2 -0.2)">
       <use xlink:href="#DejaVuSans-52"/>
      </g>
     </g>
    </g>
    <g id="ytick_12">
     <g id="line2d_22">
      <g>
       <use style="stroke:#000000;stroke-width:1.6;" x="389.921667" xlink:href="#mb275ac40c3" y="85.124847"/>
      </g>
     </g>
     <g id="text_19">
      <!-- 5 -->
      <defs>
       <path d="M 10.796875 72.90625 
L 49.515625 72.90625 
L 49.515625 64.59375 
L 19.828125 64.59375 
L 19.828125 46.734375 
Q 21.96875 47.46875 24.109375 47.828125 
Q 26.265625 48.1875 28.421875 48.1875 
Q 40.625 48.1875 47.75 41.5 
Q 54.890625 34.8125 54.890625 23.390625 
Q 54.890625 11.625 47.5625 5.09375 
Q 40.234375 -1.421875 26.90625 -1.421875 
Q 22.3125 -1.421875 17.546875 -0.640625 
Q 12.796875 0.140625 7.71875 1.703125 
L 7.71875 11.625 
Q 12.109375 9.234375 16.796875 8.0625 
Q 21.484375 6.890625 26.703125 6.890625 
Q 35.15625 6.890625 40.078125 11.328125 
Q 45.015625 15.765625 45.015625 23.390625 
Q 45.015625 31 40.078125 35.4375 
Q 35.15625 39.890625 26.703125 39.890625 
Q 22.75 39.890625 18.8125 39.015625 
Q 14.890625 38.140625 10.796875 36.28125 
z
" id="DejaVuSans-53"/>
      </defs>
      <g transform="translate(362.496667 92.723284)scale(0.2 -0.2)">
       <use xlink:href="#DejaVuSans-53"/>
      </g>
     </g>
    </g>
    <g id="ytick_13">
     <g id="line2d_23">
      <g>
       <use style="stroke:#000000;stroke-width:1.6;" x="389.921667" xlink:href="#mb275ac40c3" y="39.977482"/>
      </g>
     </g>
     <g id="text_20">
      <!-- 6 -->
      <g transform="translate(362.496667 47.57592)scale(0.2 -0.2)">
       <use xlink:href="#DejaVuSans-54"/>
      </g>
     </g>
    </g>
   </g>
   <g id="line2d_24">
    <path clip-path="url(#pa962cc6f90)" d="M 0 0 
" style="fill:none;stroke:#000000;stroke-linecap:square;stroke-width:2;"/>
   </g>
   <g id="line2d_25">
    <path clip-path="url(#pa962cc6f90)" d="M 0 0 
" style="fill:none;stroke:#000000;stroke-dasharray:7.4,3.2;stroke-dashoffset:0;stroke-width:2;"/>
   </g>
   <g id="patch_6">
    <path style="fill:none;stroke:#000000;stroke-linecap:square;stroke-linejoin:miter;stroke-width:0.8;"/>
   </g>
   <g id="patch_7">
    <path style="fill:none;stroke:#000000;stroke-linecap:square;stroke-linejoin:miter;stroke-width:0.8;"/>
   </g>
  </g>
 </g>
 <defs>
  <clipPath id="p71ed043bcc">
   <rect height="307.361667" width="307.361667" x="40.325" y="3.5"/>
  </clipPath>
  <clipPath id="pa962cc6f90">
   <rect height="307.361667" width="307.361667" x="389.921667" y="3.5"/>
  </clipPath>
 </defs>
</svg>
