<?xml version="1.0" encoding="utf-8" standalone="no"?>
<!DOCTYPE svg PUBLIC "-//W3C//DTD SVG 1.1//EN"
  "http://www.w3.org/Graphics/SVG/1.1/DTD/svg11.dtd">
<!-- Created with matplotlib (https://matplotlib.org/) -->
<svg height="348.811667pt" version="1.1" viewBox="0 0 342.686667 348.811667" width="342.686667pt" xmlns="http://www.w3.org/2000/svg" xmlns:xlink="http://www.w3.org/1999/xlink">
 <defs>
  <style type="text/css">
*{stroke-linecap:butt;stroke-linejoin:round;}
  </style>
 </defs>
 <g id="figure_1">
  <g id="patch_1">
   <path d="M 0 348.811667 
L 342.686667 348.811667 
L 342.686667 -0 
L 0 -0 
z
" style="fill:#ffffff;"/>
  </g>
  <g id="axes_1">
   <g id="patch_2">
    <path d="M 27.575 315.111667 
L 339.186667 315.111667 
L 339.186667 3.5 
L 27.575 3.5 
z
" style="fill:#ffffff;"/>
   </g>
   <g id="matplotlib.axis_1">
    <g id="xtick_1">
     <g id="line2d_1">
      <defs>
       <path d="M 0 0 
L 0 3.5 
" id="mcf8f3c0959" style="stroke:#000000;stroke-width:1.6;"/>
      </defs>
      <g>
       <use style="stroke:#000000;stroke-width:1.6;" x="55.962279" xlink:href="#mcf8f3c0959" y="315.111667"/>
      </g>
     </g>
     <g id="text_1">
      <!-- 0.0 -->
      <defs>
       <path d="M 31.78125 66.40625 
Q 24.171875 66.40625 20.328125 58.90625 
Q 16.5 51.421875 16.5 36.375 
Q 16.5 21.390625 20.328125 13.890625 
Q 24.171875 6.390625 31.78125 6.390625 
Q 39.453125 6.390625 43.28125 13.890625 
Q 47.125 21.390625 47.125 36.375 
Q 47.125 51.421875 43.28125 58.90625 
Q 39.453125 66.40625 31.78125 66.40625 
z
M 31.78125 74.21875 
Q 44.046875 74.21875 50.515625 64.515625 
Q 56.984375 54.828125 56.984375 36.375 
Q 56.984375 17.96875 50.515625 8.265625 
Q 44.046875 -1.421875 31.78125 -1.421875 
Q 19.53125 -1.421875 13.0625 8.265625 
Q 6.59375 17.96875 6.59375 36.375 
Q 6.59375 54.828125 13.0625 64.515625 
Q 19.53125 74.21875 31.78125 74.21875 
z
" id="DejaVuSans-48"/>
       <path d="M 10.6875 12.40625 
L 21 12.40625 
L 21 0 
L 10.6875 0 
z
" id="DejaVuSans-46"/>
      </defs>
      <g transform="translate(40.059154 345.008542)scale(0.2 -0.2)">
       <use xlink:href="#DejaVuSans-48"/>
       <use x="63.623047" xlink:href="#DejaVuSans-46"/>
       <use x="95.410156" xlink:href="#DejaVuSans-48"/>
      </g>
     </g>
    </g>
    <g id="xtick_2">
     <g id="line2d_2">
      <g>
       <use style="stroke:#000000;stroke-width:1.6;" x="154.344434" xlink:href="#mcf8f3c0959" y="315.111667"/>
      </g>
     </g>
     <g id="text_2">
      <!-- 0.2 -->
      <defs>
       <path d="M 19.1875 8.296875 
L 53.609375 8.296875 
L 53.609375 0 
L 7.328125 0 
L 7.328125 8.296875 
Q 12.9375 14.109375 22.625 23.890625 
Q 32.328125 33.6875 34.8125 36.53125 
Q 39.546875 41.84375 41.421875 45.53125 
Q 43.3125 49.21875 43.3125 52.78125 
Q 43.3125 58.59375 39.234375 62.25 
Q 35.15625 65.921875 28.609375 65.921875 
Q 23.96875 65.921875 18.8125 64.3125 
Q 13.671875 62.703125 7.8125 59.421875 
L 7.8125 69.390625 
Q 13.765625 71.78125 18.9375 73 
Q 24.125 74.21875 28.421875 74.21875 
Q 39.75 74.21875 46.484375 68.546875 
Q 53.21875 62.890625 53.21875 53.421875 
Q 53.21875 48.921875 51.53125 44.890625 
Q 49.859375 40.875 45.40625 35.40625 
Q 44.1875 33.984375 37.640625 27.21875 
Q 31.109375 20.453125 19.1875 8.296875 
z
" id="DejaVuSans-50"/>
      </defs>
      <g transform="translate(138.441309 345.008542)scale(0.2 -0.2)">
       <use xlink:href="#DejaVuSans-48"/>
       <use x="63.623047" xlink:href="#DejaVuSans-46"/>
       <use x="95.410156" xlink:href="#DejaVuSans-50"/>
      </g>
     </g>
    </g>
    <g id="xtick_3">
     <g id="line2d_3">
      <g>
       <use style="stroke:#000000;stroke-width:1.6;" x="252.726588" xlink:href="#mcf8f3c0959" y="315.111667"/>
      </g>
     </g>
     <g id="text_3">
      <!-- 0.4 -->
      <defs>
       <path d="M 37.796875 64.3125 
L 12.890625 25.390625 
L 37.796875 25.390625 
z
M 35.203125 72.90625 
L 47.609375 72.90625 
L 47.609375 25.390625 
L 58.015625 25.390625 
L 58.015625 17.1875 
L 47.609375 17.1875 
L 47.609375 0 
L 37.796875 0 
L 37.796875 17.1875 
L 4.890625 17.1875 
L 4.890625 26.703125 
z
" id="DejaVuSans-52"/>
      </defs>
      <g transform="translate(236.823463 345.008542)scale(0.2 -0.2)">
       <use xlink:href="#DejaVuSans-48"/>
       <use x="63.623047" xlink:href="#DejaVuSans-46"/>
       <use x="95.410156" xlink:href="#DejaVuSans-52"/>
      </g>
     </g>
    </g>
   </g>
   <g id="matplotlib.axis_2">
    <g id="ytick_1">
     <g id="line2d_4">
      <defs>
       <path d="M 0 0 
L -3.5 0 
" id="mcf14442c79" style="stroke:#000000;stroke-width:1.6;"/>
      </defs>
      <g>
       <use style="stroke:#000000;stroke-width:1.6;" x="27.575" xlink:href="#mcf14442c79" y="315.111667"/>
      </g>
     </g>
     <g id="text_4">
      <!-- 0 -->
      <g transform="translate(0.15 322.710104)scale(0.2 -0.2)">
       <use xlink:href="#DejaVuSans-48"/>
      </g>
     </g>
    </g>
    <g id="ytick_2">
     <g id="line2d_5">
      <g>
       <use style="stroke:#000000;stroke-width:1.6;" x="27.575" xlink:href="#mcf14442c79" y="239.742114"/>
      </g>
     </g>
     <g id="text_5">
      <!-- 2 -->
      <g transform="translate(0.15 247.340551)scale(0.2 -0.2)">
       <use xlink:href="#DejaVuSans-50"/>
      </g>
     </g>
    </g>
    <g id="ytick_3">
     <g id="line2d_6">
      <g>
       <use style="stroke:#000000;stroke-width:1.6;" x="27.575" xlink:href="#mcf14442c79" y="164.372561"/>
      </g>
     </g>
     <g id="text_6">
      <!-- 4 -->
      <g transform="translate(0.15 171.970998)scale(0.2 -0.2)">
       <use xlink:href="#DejaVuSans-52"/>
      </g>
     </g>
    </g>
    <g id="ytick_4">
     <g id="line2d_7">
      <g>
       <use style="stroke:#000000;stroke-width:1.6;" x="27.575" xlink:href="#mcf14442c79" y="89.003008"/>
      </g>
     </g>
     <g id="text_7">
      <!-- 6 -->
      <defs>
       <path d="M 33.015625 40.375 
Q 26.375 40.375 22.484375 35.828125 
Q 18.609375 31.296875 18.609375 23.390625 
Q 18.609375 15.53125 22.484375 10.953125 
Q 26.375 6.390625 33.015625 6.390625 
Q 39.65625 6.390625 43.53125 10.953125 
Q 47.40625 15.53125 47.40625 23.390625 
Q 47.40625 31.296875 43.53125 35.828125 
Q 39.65625 40.375 33.015625 40.375 
z
M 52.59375 71.296875 
L 52.59375 62.3125 
Q 48.875 64.0625 45.09375 64.984375 
Q 41.3125 65.921875 37.59375 65.921875 
Q 27.828125 65.921875 22.671875 59.328125 
Q 17.53125 52.734375 16.796875 39.40625 
Q 19.671875 43.65625 24.015625 45.921875 
Q 28.375 48.1875 33.59375 48.1875 
Q 44.578125 48.1875 50.953125 41.515625 
Q 57.328125 34.859375 57.328125 23.390625 
Q 57.328125 12.15625 50.6875 5.359375 
Q 44.046875 -1.421875 33.015625 -1.421875 
Q 20.359375 -1.421875 13.671875 8.265625 
Q 6.984375 17.96875 6.984375 36.375 
Q 6.984375 53.65625 15.1875 63.9375 
Q 23.390625 74.21875 37.203125 74.21875 
Q 40.921875 74.21875 44.703125 73.484375 
Q 48.484375 72.75 52.59375 71.296875 
z
" id="DejaVuSans-54"/>
      </defs>
      <g transform="translate(0.15 96.601445)scale(0.2 -0.2)">
       <use xlink:href="#DejaVuSans-54"/>
      </g>
     </g>
    </g>
    <g id="ytick_5">
     <g id="line2d_8">
      <g>
       <use style="stroke:#000000;stroke-width:1.6;" x="27.575" xlink:href="#mcf14442c79" y="13.633455"/>
      </g>
     </g>
     <g id="text_8">
      <!-- 8 -->
      <defs>
       <path d="M 31.78125 34.625 
Q 24.75 34.625 20.71875 30.859375 
Q 16.703125 27.09375 16.703125 20.515625 
Q 16.703125 13.921875 20.71875 10.15625 
Q 24.75 6.390625 31.78125 6.390625 
Q 38.8125 6.390625 42.859375 10.171875 
Q 46.921875 13.96875 46.921875 20.515625 
Q 46.921875 27.09375 42.890625 30.859375 
Q 38.875 34.625 31.78125 34.625 
z
M 21.921875 38.8125 
Q 15.578125 40.375 12.03125 44.71875 
Q 8.5 49.078125 8.5 55.328125 
Q 8.5 64.0625 14.71875 69.140625 
Q 20.953125 74.21875 31.78125 74.21875 
Q 42.671875 74.21875 48.875 69.140625 
Q 55.078125 64.0625 55.078125 55.328125 
Q 55.078125 49.078125 51.53125 44.71875 
Q 48 40.375 41.703125 38.8125 
Q 48.828125 37.15625 52.796875 32.3125 
Q 56.78125 27.484375 56.78125 20.515625 
Q 56.78125 9.90625 50.3125 4.234375 
Q 43.84375 -1.421875 31.78125 -1.421875 
Q 19.734375 -1.421875 13.25 4.234375 
Q 6.78125 9.90625 6.78125 20.515625 
Q 6.78125 27.484375 10.78125 32.3125 
Q 14.796875 37.15625 21.921875 38.8125 
z
M 18.3125 54.390625 
Q 18.3125 48.734375 21.84375 45.5625 
Q 25.390625 42.390625 31.78125 42.390625 
Q 38.140625 42.390625 41.71875 45.5625 
Q 45.3125 48.734375 45.3125 54.390625 
Q 45.3125 60.0625 41.71875 63.234375 
Q 38.140625 66.40625 31.78125 66.40625 
Q 25.390625 66.40625 21.84375 63.234375 
Q 18.3125 60.0625 18.3125 54.390625 
z
" id="DejaVuSans-56"/>
      </defs>
      <g transform="translate(0.15 21.231893)scale(0.2 -0.2)">
       <use xlink:href="#DejaVuSans-56"/>
      </g>
     </g>
    </g>
   </g>
   <g id="line2d_9">
    <path clip-path="url(#p897ecaff85)" d="M 57.164551 315.096161 
L 60.875398 315.004004 
L 62.730822 314.850724 
L 64.586245 314.529187 
L 66.441668 313.909978 
L 68.297092 312.809949 
L 70.152515 310.998227 
L 72.007939 308.215974 
L 73.863362 304.203619 
L 75.718786 298.721558 
L 77.574209 291.551286 
L 79.429633 282.480214 
L 81.285056 271.297933 
L 83.14048 257.840417 
L 84.995903 242.089945 
L 86.851327 224.283635 
L 90.562174 184.829295 
L 94.27302 145.135014 
L 97.983867 108.938956 
L 101.694714 76.687624 
L 103.550138 62.066868 
L 105.405561 48.756539 
L 107.260985 37.203781 
L 109.116408 27.952269 
L 110.971832 21.53395 
L 112.827255 18.338303 
L 114.682679 18.469413 
L 116.538102 21.622948 
L 118.393526 27.054479 
L 123.959796 46.99496 
L 127.670643 58.788873 
L 129.526066 65.407032 
L 131.38149 73.366617 
L 133.236913 82.850518 
L 140.658607 125.121937 
L 142.514031 133.721646 
L 144.369454 141.373141 
L 149.935725 162.930975 
L 151.791148 170.71939 
L 153.646571 179.020541 
L 157.357418 197.128918 
L 161.068265 216.260223 
L 162.923689 225.281975 
L 164.779112 233.272326 
L 166.634536 239.887935 
L 168.489959 245.094692 
L 170.345383 249.189829 
L 175.911653 259.861718 
L 179.6225 268.441883 
L 181.477924 272.825736 
L 183.333347 276.847339 
L 185.18877 280.28569 
L 187.044194 283.077822 
L 188.899617 285.303441 
L 190.755041 287.124637 
L 198.176735 293.489594 
L 203.743005 298.794332 
L 205.598429 300.348972 
L 207.453852 301.666626 
L 209.309276 302.763238 
L 214.875546 305.532347 
L 218.586393 307.231015 
L 220.441816 307.885119 
L 222.29724 308.356031 
L 226.008087 308.873388 
L 231.574357 309.513123 
L 235.285204 310.207456 
L 244.562321 312.145008 
L 248.273168 312.730675 
L 251.984015 313.124429 
L 257.550286 313.448557 
L 266.827403 313.662701 
L 277.959944 314.648049 
L 285.381638 315.011993 
L 292.803332 315.102932 
L 292.803332 315.102932 
" style="fill:none;stroke:#000000;stroke-linecap:square;stroke-width:2;"/>
   </g>
   <g id="line2d_10">
    <path clip-path="url(#p897ecaff85)" d="M 50.619607 315.104372 
L 56.140738 315.032002 
L 59.821492 314.784594 
L 61.661869 314.510275 
L 63.502246 314.065441 
L 65.342623 313.37682 
L 67.183 312.350291 
L 69.023377 310.866506 
L 70.863754 308.778045 
L 72.704131 305.911887 
L 74.544508 302.080985 
L 76.384885 297.105987 
L 78.225262 290.842423 
L 80.065639 283.202578 
L 81.906016 274.15962 
L 83.746392 263.728666 
L 85.586769 251.934678 
L 87.427146 238.791037 
L 89.267523 224.311607 
L 91.1079 208.55704 
L 94.788654 173.978507 
L 100.309785 119.898428 
L 102.150162 103.245596 
L 103.990539 88.307316 
L 105.830916 75.685547 
L 107.671293 65.723764 
L 109.51167 58.316043 
L 111.352047 52.87402 
L 115.032801 44.42696 
L 118.713555 35.937866 
L 120.553931 32.362163 
L 122.394308 30.362515 
L 124.234685 30.750239 
L 126.075062 33.958923 
L 127.915439 39.91776 
L 129.755816 48.1104 
L 131.596193 57.78366 
L 137.117324 89.637957 
L 142.638455 121.325885 
L 144.478832 131.052964 
L 146.319209 139.955751 
L 149.999963 155.667359 
L 153.680717 171.0541 
L 157.36147 187.883206 
L 161.042224 204.698553 
L 162.882601 212.386488 
L 164.722978 219.378317 
L 166.563355 225.645834 
L 168.403732 231.252898 
L 172.084486 241.125937 
L 179.445994 259.499003 
L 181.286371 263.438045 
L 183.126748 266.726639 
L 184.967125 269.334704 
L 186.807502 271.413036 
L 190.488256 275.183281 
L 192.328633 277.491262 
L 194.169009 280.307919 
L 197.849763 287.070217 
L 199.69014 290.468537 
L 201.530517 293.467712 
L 203.370894 295.870959 
L 205.211271 297.631592 
L 207.051648 298.844038 
L 208.892025 299.700915 
L 212.572779 301.256491 
L 214.413156 302.295484 
L 216.253533 303.567174 
L 219.934287 306.37032 
L 221.774664 307.591484 
L 223.615041 308.542803 
L 225.455418 309.203182 
L 227.295795 309.618823 
L 230.976548 310.05006 
L 240.178433 310.753947 
L 245.699564 310.871372 
L 249.380318 310.994541 
L 251.220695 311.203108 
L 254.901449 312.007854 
L 258.582203 312.983262 
L 262.262957 313.651366 
L 269.624464 314.391334 
L 275.145595 314.879434 
L 280.666726 315.078538 
L 284.34748 315.104334 
L 284.34748 315.104334 
" style="fill:none;stroke:#000000;stroke-dasharray:7.4,3.2;stroke-dashoffset:0;stroke-width:2;"/>
   </g>
   <g id="line2d_11">
    <path clip-path="url(#p897ecaff85)" d="M 41.739167 315.100213 
L 46.200322 315.035557 
L 50.661476 314.708981 
L 52.892054 314.308707 
L 55.122631 313.632108 
L 57.353209 312.557437 
L 59.583786 310.927996 
L 61.814364 308.548419 
L 64.044941 305.200361 
L 66.275518 300.686872 
L 68.506096 294.887707 
L 70.736673 287.776656 
L 72.967251 279.357278 
L 75.197828 269.538664 
L 77.428406 258.053762 
L 79.658983 244.531832 
L 81.88956 228.739091 
L 84.120138 210.863224 
L 90.81187 153.453982 
L 93.042448 135.976932 
L 97.503602 103.988109 
L 99.73418 89.076617 
L 101.964757 75.374583 
L 104.195335 63.741752 
L 106.425912 54.986258 
L 108.65649 49.539483 
L 110.887067 47.343758 
L 113.117644 47.935885 
L 115.348222 50.668199 
L 117.578799 54.955748 
L 119.809377 60.381934 
L 122.039954 66.601734 
L 128.731686 86.748647 
L 130.962264 94.205729 
L 133.192841 103.004817 
L 135.423419 113.501191 
L 137.653996 125.399737 
L 142.115151 150.178649 
L 144.345728 161.576965 
L 146.576306 171.846343 
L 148.806883 181.057953 
L 153.268038 197.641469 
L 157.729193 213.359861 
L 159.95977 220.644584 
L 162.190348 227.282376 
L 164.420925 233.287357 
L 166.651503 238.790485 
L 168.88208 243.879824 
L 171.112657 248.54268 
L 173.343235 252.74148 
L 175.573812 256.504351 
L 177.80439 259.927846 
L 182.265545 266.138103 
L 186.726699 271.826935 
L 195.649009 282.64012 
L 197.879587 286.024124 
L 202.340741 293.668511 
L 204.571319 297.128944 
L 206.801896 299.91962 
L 209.032474 302.021787 
L 211.263051 303.57967 
L 213.493629 304.756873 
L 215.724206 305.676501 
L 220.185361 307.100108 
L 224.646516 308.251228 
L 231.338248 309.776768 
L 238.02998 311.695056 
L 240.260558 312.109482 
L 242.491135 312.319331 
L 246.95229 312.329115 
L 251.413445 312.387532 
L 255.8746 312.912875 
L 260.335755 313.600001 
L 264.796909 313.992561 
L 269.258064 314.026244 
L 273.719219 314.027388 
L 278.180374 314.286123 
L 282.641529 314.587443 
L 289.333261 314.744625 
L 298.255571 314.822323 
L 307.177881 314.448173 
L 311.639035 314.602798 
L 318.330768 314.994059 
L 325.0225 315.101443 
L 325.0225 315.101443 
" style="fill:none;stroke:#000000;stroke-dasharray:2,3.3;stroke-dashoffset:0;stroke-width:2;"/>
   </g>
   <g id="patch_3">
    <path d="M 27.575 315.111667 
L 27.575 3.5 
" style="fill:none;stroke:#000000;stroke-linecap:square;stroke-linejoin:miter;stroke-width:0.8;"/>
   </g>
   <g id="patch_4">
    <path d="M 27.575 315.111667 
L 339.186667 315.111667 
" style="fill:none;stroke:#000000;stroke-linecap:square;stroke-linejoin:miter;stroke-width:0.8;"/>
   </g>
  </g>
  <g id="axes_2">
   <g id="patch_5">
    <path d="M 381.421667 315.111667 
L 693.033333 315.111667 
L 693.033333 3.5 
L 381.421667 3.5 
z
" style="fill:#ffffff;"/>
   </g>
   <g id="matplotlib.axis_3">
    <g id="xtick_4">
     <g id="line2d_12">
      <g>
       <use style="stroke:#000000;stroke-width:1.6;" x="395.672343" xlink:href="#mcf8f3c0959" y="315.111667"/>
      </g>
     </g>
     <g id="text_9">
      <!-- −0.4 -->
      <defs>
       <path d="M 10.59375 35.5 
L 73.1875 35.5 
L 73.1875 27.203125 
L 10.59375 27.203125 
z
" id="DejaVuSans-8722"/>
      </defs>
      <g transform="translate(371.389531 345.008542)scale(0.2 -0.2)">
       <use xlink:href="#DejaVuSans-8722"/>
       <use x="83.789062" xlink:href="#DejaVuSans-48"/>
       <use x="147.412109" xlink:href="#DejaVuSans-46"/>
       <use x="179.199219" xlink:href="#DejaVuSans-52"/>
      </g>
     </g>
    </g>
    <g id="xtick_5">
     <g id="line2d_13">
      <g>
       <use style="stroke:#000000;stroke-width:1.6;" x="461.943241" xlink:href="#mcf8f3c0959" y="315.111667"/>
      </g>
     </g>
     <g id="text_10">
      <!-- −0.2 -->
      <g transform="translate(437.660429 345.008542)scale(0.2 -0.2)">
       <use xlink:href="#DejaVuSans-8722"/>
       <use x="83.789062" xlink:href="#DejaVuSans-48"/>
       <use x="147.412109" xlink:href="#DejaVuSans-46"/>
       <use x="179.199219" xlink:href="#DejaVuSans-50"/>
      </g>
     </g>
    </g>
    <g id="xtick_6">
     <g id="line2d_14">
      <g>
       <use style="stroke:#000000;stroke-width:1.6;" x="528.21414" xlink:href="#mcf8f3c0959" y="315.111667"/>
      </g>
     </g>
     <g id="text_11">
      <!-- 0.0 -->
      <g transform="translate(512.311015 345.008542)scale(0.2 -0.2)">
       <use xlink:href="#DejaVuSans-48"/>
       <use x="63.623047" xlink:href="#DejaVuSans-46"/>
       <use x="95.410156" xlink:href="#DejaVuSans-48"/>
      </g>
     </g>
    </g>
    <g id="xtick_7">
     <g id="line2d_15">
      <g>
       <use style="stroke:#000000;stroke-width:1.6;" x="594.485038" xlink:href="#mcf8f3c0959" y="315.111667"/>
      </g>
     </g>
     <g id="text_12">
      <!-- 0.2 -->
      <g transform="translate(578.581913 345.008542)scale(0.2 -0.2)">
       <use xlink:href="#DejaVuSans-48"/>
       <use x="63.623047" xlink:href="#DejaVuSans-46"/>
       <use x="95.410156" xlink:href="#DejaVuSans-50"/>
      </g>
     </g>
    </g>
    <g id="xtick_8">
     <g id="line2d_16">
      <g>
       <use style="stroke:#000000;stroke-width:1.6;" x="660.755936" xlink:href="#mcf8f3c0959" y="315.111667"/>
      </g>
     </g>
     <g id="text_13">
      <!-- 0.4 -->
      <g transform="translate(644.852811 345.008542)scale(0.2 -0.2)">
       <use xlink:href="#DejaVuSans-48"/>
       <use x="63.623047" xlink:href="#DejaVuSans-46"/>
       <use x="95.410156" xlink:href="#DejaVuSans-52"/>
      </g>
     </g>
    </g>
   </g>
   <g id="matplotlib.axis_4">
    <g id="ytick_6">
     <g id="line2d_17">
      <g>
       <use style="stroke:#000000;stroke-width:1.6;" x="381.421667" xlink:href="#mcf14442c79" y="315.111667"/>
      </g>
     </g>
     <g id="text_14">
      <!-- 0 -->
      <g transform="translate(353.996667 322.710104)scale(0.2 -0.2)">
       <use xlink:href="#DejaVuSans-48"/>
      </g>
     </g>
    </g>
    <g id="ytick_7">
     <g id="line2d_18">
      <g>
       <use style="stroke:#000000;stroke-width:1.6;" x="381.421667" xlink:href="#mcf14442c79" y="266.975982"/>
      </g>
     </g>
     <g id="text_15">
      <!-- 1 -->
      <defs>
       <path d="M 12.40625 8.296875 
L 28.515625 8.296875 
L 28.515625 63.921875 
L 10.984375 60.40625 
L 10.984375 69.390625 
L 28.421875 72.90625 
L 38.28125 72.90625 
L 38.28125 8.296875 
L 54.390625 8.296875 
L 54.390625 0 
L 12.40625 0 
z
" id="DejaVuSans-49"/>
      </defs>
      <g transform="translate(353.996667 274.574419)scale(0.2 -0.2)">
       <use xlink:href="#DejaVuSans-49"/>
      </g>
     </g>
    </g>
    <g id="ytick_8">
     <g id="line2d_19">
      <g>
       <use style="stroke:#000000;stroke-width:1.6;" x="381.421667" xlink:href="#mcf14442c79" y="218.840297"/>
      </g>
     </g>
     <g id="text_16">
      <!-- 2 -->
      <g transform="translate(353.996667 226.438735)scale(0.2 -0.2)">
       <use xlink:href="#DejaVuSans-50"/>
      </g>
     </g>
    </g>
    <g id="ytick_9">
     <g id="line2d_20">
      <g>
       <use style="stroke:#000000;stroke-width:1.6;" x="381.421667" xlink:href="#mcf14442c79" y="170.704613"/>
      </g>
     </g>
     <g id="text_17">
      <!-- 3 -->
      <defs>
       <path d="M 40.578125 39.3125 
Q 47.65625 37.796875 51.625 33 
Q 55.609375 28.21875 55.609375 21.1875 
Q 55.609375 10.40625 48.1875 4.484375 
Q 40.765625 -1.421875 27.09375 -1.421875 
Q 22.515625 -1.421875 17.65625 -0.515625 
Q 12.796875 0.390625 7.625 2.203125 
L 7.625 11.71875 
Q 11.71875 9.328125 16.59375 8.109375 
Q 21.484375 6.890625 26.8125 6.890625 
Q 36.078125 6.890625 40.9375 10.546875 
Q 45.796875 14.203125 45.796875 21.1875 
Q 45.796875 27.640625 41.28125 31.265625 
Q 36.765625 34.90625 28.71875 34.90625 
L 20.21875 34.90625 
L 20.21875 43.015625 
L 29.109375 43.015625 
Q 36.375 43.015625 40.234375 45.921875 
Q 44.09375 48.828125 44.09375 54.296875 
Q 44.09375 59.90625 40.109375 62.90625 
Q 36.140625 65.921875 28.71875 65.921875 
Q 24.65625 65.921875 20.015625 65.03125 
Q 15.375 64.15625 9.8125 62.3125 
L 9.8125 71.09375 
Q 15.4375 72.65625 20.34375 73.4375 
Q 25.25 74.21875 29.59375 74.21875 
Q 40.828125 74.21875 47.359375 69.109375 
Q 53.90625 64.015625 53.90625 55.328125 
Q 53.90625 49.265625 50.4375 45.09375 
Q 46.96875 40.921875 40.578125 39.3125 
z
" id="DejaVuSans-51"/>
      </defs>
      <g transform="translate(353.996667 178.30305)scale(0.2 -0.2)">
       <use xlink:href="#DejaVuSans-51"/>
      </g>
     </g>
    </g>
    <g id="ytick_10">
     <g id="line2d_21">
      <g>
       <use style="stroke:#000000;stroke-width:1.6;" x="381.421667" xlink:href="#mcf14442c79" y="122.568928"/>
      </g>
     </g>
     <g id="text_18">
      <!-- 4 -->
      <g transform="translate(353.996667 130.167365)scale(0.2 -0.2)">
       <use xlink:href="#DejaVuSans-52"/>
      </g>
     </g>
    </g>
    <g id="ytick_11">
     <g id="line2d_22">
      <g>
       <use style="stroke:#000000;stroke-width:1.6;" x="381.421667" xlink:href="#mcf14442c79" y="74.433243"/>
      </g>
     </g>
     <g id="text_19">
      <!-- 5 -->
      <defs>
       <path d="M 10.796875 72.90625 
L 49.515625 72.90625 
L 49.515625 64.59375 
L 19.828125 64.59375 
L 19.828125 46.734375 
Q 21.96875 47.46875 24.109375 47.828125 
Q 26.265625 48.1875 28.421875 48.1875 
Q 40.625 48.1875 47.75 41.5 
Q 54.890625 34.8125 54.890625 23.390625 
Q 54.890625 11.625 47.5625 5.09375 
Q 40.234375 -1.421875 26.90625 -1.421875 
Q 22.3125 -1.421875 17.546875 -0.640625 
Q 12.796875 0.140625 7.71875 1.703125 
L 7.71875 11.625 
Q 12.109375 9.234375 16.796875 8.0625 
Q 21.484375 6.890625 26.703125 6.890625 
Q 35.15625 6.890625 40.078125 11.328125 
Q 45.015625 15.765625 45.015625 23.390625 
Q 45.015625 31 40.078125 35.4375 
Q 35.15625 39.890625 26.703125 39.890625 
Q 22.75 39.890625 18.8125 39.015625 
Q 14.890625 38.140625 10.796875 36.28125 
z
" id="DejaVuSans-53"/>
      </defs>
      <g transform="translate(353.996667 82.031681)scale(0.2 -0.2)">
       <use xlink:href="#DejaVuSans-53"/>
      </g>
     </g>
    </g>
    <g id="ytick_12">
     <g id="line2d_23">
      <g>
       <use style="stroke:#000000;stroke-width:1.6;" x="381.421667" xlink:href="#mcf14442c79" y="26.297558"/>
      </g>
     </g>
     <g id="text_20">
      <!-- 6 -->
      <g transform="translate(353.996667 33.895996)scale(0.2 -0.2)">
       <use xlink:href="#DejaVuSans-54"/>
      </g>
     </g>
    </g>
   </g>
   <g id="line2d_24">
    <path clip-path="url(#p303c074088)" d="M 0 0 
" style="fill:none;stroke:#000000;stroke-linecap:square;stroke-width:2;"/>
   </g>
   <g id="line2d_25">
    <path clip-path="url(#p303c074088)" d="M 0 0 
" style="fill:none;stroke:#000000;stroke-dasharray:7.4,3.2;stroke-dashoffset:0;stroke-width:2;"/>
   </g>
   <g id="patch_6">
    <path style="fill:none;stroke:#000000;stroke-linecap:square;stroke-linejoin:miter;stroke-width:0.8;"/>
   </g>
   <g id="patch_7">
    <path style="fill:none;stroke:#000000;stroke-linecap:square;stroke-linejoin:miter;stroke-width:0.8;"/>
   </g>
  </g>
 </g>
 <defs>
  <clipPath id="p897ecaff85">
   <rect height="311.611667" width="311.611667" x="27.575" y="3.5"/>
  </clipPath>
  <clipPath id="p303c074088">
   <rect height="311.611667" width="311.611667" x="381.421667" y="3.5"/>
  </clipPath>
 </defs>
</svg>
