<?xml version="1.0" encoding="utf-8" standalone="no"?>
<!DOCTYPE svg PUBLIC "-//W3C//DTD SVG 1.1//EN"
  "http://www.w3.org/Graphics/SVG/1.1/DTD/svg11.dtd">
<!-- Created with matplotlib (https://matplotlib.org/) -->
<svg height="350.391667pt" version="1.1" viewBox="0 0 344.266667 350.391667" width="344.266667pt" xmlns="http://www.w3.org/2000/svg" xmlns:xlink="http://www.w3.org/1999/xlink">
 <defs>
  <style type="text/css">
*{stroke-linecap:butt;stroke-linejoin:round;}
  </style>
 </defs>
 <g id="figure_1">
  <g id="patch_1">
   <path d="M 0 350.391667 
L 344.266667 350.391667 
L 344.266667 0 
L 0 0 
z
" style="fill:#ffffff;"/>
  </g>
  <g id="axes_1">
   <g id="patch_2">
    <path d="M 27.575 316.691667 
L 340.766667 316.691667 
L 340.766667 3.5 
L 27.575 3.5 
z
" style="fill:#ffffff;"/>
   </g>
   <g id="matplotlib.axis_1">
    <g id="xtick_1">
     <g id="line2d_1">
      <defs>
       <path d="M 0 0 
L 0 3.5 
" id="m01814a5df5" style="stroke:#000000;stroke-width:1.6;"/>
      </defs>
      <g>
       <use style="stroke:#000000;stroke-width:1.6;" x="57.618981" xlink:href="#m01814a5df5" y="316.691667"/>
      </g>
     </g>
     <g id="text_1">
      <!-- 0.00 -->
      <defs>
       <path d="M 31.78125 66.40625 
Q 24.171875 66.40625 20.328125 58.90625 
Q 16.5 51.421875 16.5 36.375 
Q 16.5 21.390625 20.328125 13.890625 
Q 24.171875 6.390625 31.78125 6.390625 
Q 39.453125 6.390625 43.28125 13.890625 
Q 47.125 21.390625 47.125 36.375 
Q 47.125 51.421875 43.28125 58.90625 
Q 39.453125 66.40625 31.78125 66.40625 
z
M 31.78125 74.21875 
Q 44.046875 74.21875 50.515625 64.515625 
Q 56.984375 54.828125 56.984375 36.375 
Q 56.984375 17.96875 50.515625 8.265625 
Q 44.046875 -1.421875 31.78125 -1.421875 
Q 19.53125 -1.421875 13.0625 8.265625 
Q 6.59375 17.96875 6.59375 36.375 
Q 6.59375 54.828125 13.0625 64.515625 
Q 19.53125 74.21875 31.78125 74.21875 
z
" id="DejaVuSans-48"/>
       <path d="M 10.6875 12.40625 
L 21 12.40625 
L 21 0 
L 10.6875 0 
z
" id="DejaVuSans-46"/>
      </defs>
      <g transform="translate(35.353356 346.588542)scale(0.2 -0.2)">
       <use xlink:href="#DejaVuSans-48"/>
       <use x="63.623047" xlink:href="#DejaVuSans-46"/>
       <use x="95.410156" xlink:href="#DejaVuSans-48"/>
       <use x="159.033203" xlink:href="#DejaVuSans-48"/>
      </g>
     </g>
    </g>
    <g id="xtick_2">
     <g id="line2d_2">
      <g>
       <use style="stroke:#000000;stroke-width:1.6;" x="135.600022" xlink:href="#m01814a5df5" y="316.691667"/>
      </g>
     </g>
     <g id="text_2">
      <!-- 0.25 -->
      <defs>
       <path d="M 19.1875 8.296875 
L 53.609375 8.296875 
L 53.609375 0 
L 7.328125 0 
L 7.328125 8.296875 
Q 12.9375 14.109375 22.625 23.890625 
Q 32.328125 33.6875 34.8125 36.53125 
Q 39.546875 41.84375 41.421875 45.53125 
Q 43.3125 49.21875 43.3125 52.78125 
Q 43.3125 58.59375 39.234375 62.25 
Q 35.15625 65.921875 28.609375 65.921875 
Q 23.96875 65.921875 18.8125 64.3125 
Q 13.671875 62.703125 7.8125 59.421875 
L 7.8125 69.390625 
Q 13.765625 71.78125 18.9375 73 
Q 24.125 74.21875 28.421875 74.21875 
Q 39.75 74.21875 46.484375 68.546875 
Q 53.21875 62.890625 53.21875 53.421875 
Q 53.21875 48.921875 51.53125 44.890625 
Q 49.859375 40.875 45.40625 35.40625 
Q 44.1875 33.984375 37.640625 27.21875 
Q 31.109375 20.453125 19.1875 8.296875 
z
" id="DejaVuSans-50"/>
       <path d="M 10.796875 72.90625 
L 49.515625 72.90625 
L 49.515625 64.59375 
L 19.828125 64.59375 
L 19.828125 46.734375 
Q 21.96875 47.46875 24.109375 47.828125 
Q 26.265625 48.1875 28.421875 48.1875 
Q 40.625 48.1875 47.75 41.5 
Q 54.890625 34.8125 54.890625 23.390625 
Q 54.890625 11.625 47.5625 5.09375 
Q 40.234375 -1.421875 26.90625 -1.421875 
Q 22.3125 -1.421875 17.546875 -0.640625 
Q 12.796875 0.140625 7.71875 1.703125 
L 7.71875 11.625 
Q 12.109375 9.234375 16.796875 8.0625 
Q 21.484375 6.890625 26.703125 6.890625 
Q 35.15625 6.890625 40.078125 11.328125 
Q 45.015625 15.765625 45.015625 23.390625 
Q 45.015625 31 40.078125 35.4375 
Q 35.15625 39.890625 26.703125 39.890625 
Q 22.75 39.890625 18.8125 39.015625 
Q 14.890625 38.140625 10.796875 36.28125 
z
" id="DejaVuSans-53"/>
      </defs>
      <g transform="translate(113.334397 346.588542)scale(0.2 -0.2)">
       <use xlink:href="#DejaVuSans-48"/>
       <use x="63.623047" xlink:href="#DejaVuSans-46"/>
       <use x="95.410156" xlink:href="#DejaVuSans-50"/>
       <use x="159.033203" xlink:href="#DejaVuSans-53"/>
      </g>
     </g>
    </g>
    <g id="xtick_3">
     <g id="line2d_3">
      <g>
       <use style="stroke:#000000;stroke-width:1.6;" x="213.581063" xlink:href="#m01814a5df5" y="316.691667"/>
      </g>
     </g>
     <g id="text_3">
      <!-- 0.50 -->
      <g transform="translate(191.315438 346.588542)scale(0.2 -0.2)">
       <use xlink:href="#DejaVuSans-48"/>
       <use x="63.623047" xlink:href="#DejaVuSans-46"/>
       <use x="95.410156" xlink:href="#DejaVuSans-53"/>
       <use x="159.033203" xlink:href="#DejaVuSans-48"/>
      </g>
     </g>
    </g>
    <g id="xtick_4">
     <g id="line2d_4">
      <g>
       <use style="stroke:#000000;stroke-width:1.6;" x="291.562104" xlink:href="#m01814a5df5" y="316.691667"/>
      </g>
     </g>
     <g id="text_4">
      <!-- 0.75 -->
      <defs>
       <path d="M 8.203125 72.90625 
L 55.078125 72.90625 
L 55.078125 68.703125 
L 28.609375 0 
L 18.3125 0 
L 43.21875 64.59375 
L 8.203125 64.59375 
z
" id="DejaVuSans-55"/>
      </defs>
      <g transform="translate(269.296479 346.588542)scale(0.2 -0.2)">
       <use xlink:href="#DejaVuSans-48"/>
       <use x="63.623047" xlink:href="#DejaVuSans-46"/>
       <use x="95.410156" xlink:href="#DejaVuSans-55"/>
       <use x="159.033203" xlink:href="#DejaVuSans-53"/>
      </g>
     </g>
    </g>
   </g>
   <g id="matplotlib.axis_2">
    <g id="ytick_1">
     <g id="line2d_5">
      <defs>
       <path d="M 0 0 
L -3.5 0 
" id="m19d8f74363" style="stroke:#000000;stroke-width:1.6;"/>
      </defs>
      <g>
       <use style="stroke:#000000;stroke-width:1.6;" x="27.575" xlink:href="#m19d8f74363" y="316.691667"/>
      </g>
     </g>
     <g id="text_5">
      <!-- 0 -->
      <g transform="translate(0.15 324.290104)scale(0.2 -0.2)">
       <use xlink:href="#DejaVuSans-48"/>
      </g>
     </g>
    </g>
    <g id="ytick_2">
     <g id="line2d_6">
      <g>
       <use style="stroke:#000000;stroke-width:1.6;" x="27.575" xlink:href="#m19d8f74363" y="242.425406"/>
      </g>
     </g>
     <g id="text_6">
      <!-- 2 -->
      <g transform="translate(0.15 250.023843)scale(0.2 -0.2)">
       <use xlink:href="#DejaVuSans-50"/>
      </g>
     </g>
    </g>
    <g id="ytick_3">
     <g id="line2d_7">
      <g>
       <use style="stroke:#000000;stroke-width:1.6;" x="27.575" xlink:href="#m19d8f74363" y="168.159145"/>
      </g>
     </g>
     <g id="text_7">
      <!-- 4 -->
      <defs>
       <path d="M 37.796875 64.3125 
L 12.890625 25.390625 
L 37.796875 25.390625 
z
M 35.203125 72.90625 
L 47.609375 72.90625 
L 47.609375 25.390625 
L 58.015625 25.390625 
L 58.015625 17.1875 
L 47.609375 17.1875 
L 47.609375 0 
L 37.796875 0 
L 37.796875 17.1875 
L 4.890625 17.1875 
L 4.890625 26.703125 
z
" id="DejaVuSans-52"/>
      </defs>
      <g transform="translate(0.15 175.757582)scale(0.2 -0.2)">
       <use xlink:href="#DejaVuSans-52"/>
      </g>
     </g>
    </g>
    <g id="ytick_4">
     <g id="line2d_8">
      <g>
       <use style="stroke:#000000;stroke-width:1.6;" x="27.575" xlink:href="#m19d8f74363" y="93.892884"/>
      </g>
     </g>
     <g id="text_8">
      <!-- 6 -->
      <defs>
       <path d="M 33.015625 40.375 
Q 26.375 40.375 22.484375 35.828125 
Q 18.609375 31.296875 18.609375 23.390625 
Q 18.609375 15.53125 22.484375 10.953125 
Q 26.375 6.390625 33.015625 6.390625 
Q 39.65625 6.390625 43.53125 10.953125 
Q 47.40625 15.53125 47.40625 23.390625 
Q 47.40625 31.296875 43.53125 35.828125 
Q 39.65625 40.375 33.015625 40.375 
z
M 52.59375 71.296875 
L 52.59375 62.3125 
Q 48.875 64.0625 45.09375 64.984375 
Q 41.3125 65.921875 37.59375 65.921875 
Q 27.828125 65.921875 22.671875 59.328125 
Q 17.53125 52.734375 16.796875 39.40625 
Q 19.671875 43.65625 24.015625 45.921875 
Q 28.375 48.1875 33.59375 48.1875 
Q 44.578125 48.1875 50.953125 41.515625 
Q 57.328125 34.859375 57.328125 23.390625 
Q 57.328125 12.15625 50.6875 5.359375 
Q 44.046875 -1.421875 33.015625 -1.421875 
Q 20.359375 -1.421875 13.671875 8.265625 
Q 6.984375 17.96875 6.984375 36.375 
Q 6.984375 53.65625 15.1875 63.9375 
Q 23.390625 74.21875 37.203125 74.21875 
Q 40.921875 74.21875 44.703125 73.484375 
Q 48.484375 72.75 52.59375 71.296875 
z
" id="DejaVuSans-54"/>
      </defs>
      <g transform="translate(0.15 101.491322)scale(0.2 -0.2)">
       <use xlink:href="#DejaVuSans-54"/>
      </g>
     </g>
    </g>
    <g id="ytick_5">
     <g id="line2d_9">
      <g>
       <use style="stroke:#000000;stroke-width:1.6;" x="27.575" xlink:href="#m19d8f74363" y="19.626623"/>
      </g>
     </g>
     <g id="text_9">
      <!-- 8 -->
      <defs>
       <path d="M 31.78125 34.625 
Q 24.75 34.625 20.71875 30.859375 
Q 16.703125 27.09375 16.703125 20.515625 
Q 16.703125 13.921875 20.71875 10.15625 
Q 24.75 6.390625 31.78125 6.390625 
Q 38.8125 6.390625 42.859375 10.171875 
Q 46.921875 13.96875 46.921875 20.515625 
Q 46.921875 27.09375 42.890625 30.859375 
Q 38.875 34.625 31.78125 34.625 
z
M 21.921875 38.8125 
Q 15.578125 40.375 12.03125 44.71875 
Q 8.5 49.078125 8.5 55.328125 
Q 8.5 64.0625 14.71875 69.140625 
Q 20.953125 74.21875 31.78125 74.21875 
Q 42.671875 74.21875 48.875 69.140625 
Q 55.078125 64.0625 55.078125 55.328125 
Q 55.078125 49.078125 51.53125 44.71875 
Q 48 40.375 41.703125 38.8125 
Q 48.828125 37.15625 52.796875 32.3125 
Q 56.78125 27.484375 56.78125 20.515625 
Q 56.78125 9.90625 50.3125 4.234375 
Q 43.84375 -1.421875 31.78125 -1.421875 
Q 19.734375 -1.421875 13.25 4.234375 
Q 6.78125 9.90625 6.78125 20.515625 
Q 6.78125 27.484375 10.78125 32.3125 
Q 14.796875 37.15625 21.921875 38.8125 
z
M 18.3125 54.390625 
Q 18.3125 48.734375 21.84375 45.5625 
Q 25.390625 42.390625 31.78125 42.390625 
Q 38.140625 42.390625 41.71875 45.5625 
Q 45.3125 48.734375 45.3125 54.390625 
Q 45.3125 60.0625 41.71875 63.234375 
Q 38.140625 66.40625 31.78125 66.40625 
Q 25.390625 66.40625 21.84375 63.234375 
Q 18.3125 60.0625 18.3125 54.390625 
z
" id="DejaVuSans-56"/>
      </defs>
      <g transform="translate(0.15 27.225061)scale(0.2 -0.2)">
       <use xlink:href="#DejaVuSans-56"/>
      </g>
     </g>
    </g>
   </g>
   <g id="line2d_10">
    <path clip-path="url(#p2c8875a9ca)" d="M 41.810985 316.670203 
L 46.29476 316.556791 
L 48.536647 316.389132 
L 50.778534 316.082591 
L 53.020422 315.579525 
L 55.262309 314.819474 
L 57.504196 313.721069 
L 59.746084 312.132166 
L 61.987971 309.759962 
L 64.229859 306.124228 
L 66.471746 300.598052 
L 68.713633 292.585979 
L 70.955521 281.815328 
L 73.197408 268.597246 
L 93.374395 136.186673 
L 95.616282 124.45792 
L 97.858169 115.604836 
L 100.100057 110.067894 
L 102.341944 108.112355 
L 104.583831 109.757761 
L 106.825719 114.678725 
L 109.067606 122.191663 
L 111.309494 131.337802 
L 115.793268 150.48793 
L 120.277043 168.12106 
L 122.51893 177.804207 
L 124.760818 189.195607 
L 131.48648 227.822739 
L 133.728367 237.37935 
L 135.970255 243.972475 
L 138.212142 248.319443 
L 142.695917 255.178543 
L 144.937804 259.359124 
L 151.663466 273.600612 
L 153.905354 277.60664 
L 156.147241 281.126934 
L 160.631016 287.410882 
L 162.872903 290.230003 
L 165.114791 292.635094 
L 167.356678 294.45819 
L 169.598565 295.65509 
L 171.840453 296.337688 
L 176.324228 297.072121 
L 178.566115 297.617945 
L 180.808002 298.563521 
L 183.04989 300.010215 
L 189.775552 305.56259 
L 192.017439 306.727514 
L 194.259327 307.372208 
L 198.743101 308.302083 
L 205.468763 310.632131 
L 207.710651 310.773342 
L 209.952538 310.328507 
L 214.436313 308.807647 
L 216.6782 308.55047 
L 218.920088 308.950938 
L 221.161975 309.919102 
L 225.64575 312.279372 
L 227.887637 313.030732 
L 230.129525 313.319269 
L 232.371412 313.250639 
L 236.855187 312.925345 
L 239.097074 313.026314 
L 241.338961 313.366393 
L 245.822736 314.459746 
L 250.306511 315.497183 
L 252.548398 315.834919 
L 254.790286 315.999355 
L 257.032173 315.973035 
L 259.27406 315.770887 
L 265.999723 314.851272 
L 268.24161 314.751443 
L 270.483497 314.831557 
L 274.967272 315.379383 
L 279.451047 316.036726 
L 283.934822 316.468774 
L 288.418596 316.63851 
L 295.144259 316.609445 
L 299.628033 316.405558 
L 306.353695 315.974048 
L 310.83747 316.00764 
L 322.046907 316.632051 
L 326.530682 316.677122 
L 326.530682 316.677122 
" style="fill:none;stroke:#000000;stroke-linecap:square;stroke-width:2;"/>
   </g>
   <g id="line2d_11">
    <path clip-path="url(#p2c8875a9ca)" d="M 44.199806 316.484799 
L 45.860227 316.091903 
L 47.520648 315.146314 
L 49.181069 313.195626 
L 50.841489 309.747114 
L 52.50191 304.558383 
L 55.822752 291.157363 
L 57.483173 285.553647 
L 59.143593 282.332474 
L 60.804014 281.620119 
L 64.124856 283.331676 
L 65.785277 283.130065 
L 67.445698 281.492294 
L 69.106118 278.799656 
L 72.42696 272.785958 
L 74.087381 270.173842 
L 77.408223 265.25787 
L 79.068643 262.136115 
L 80.729064 257.671646 
L 82.389485 250.893616 
L 84.049906 240.672596 
L 85.710327 225.82276 
L 87.370747 205.244844 
L 89.031168 178.3089 
L 90.691589 145.59802 
L 94.012431 74.861919 
L 95.672852 46.207805 
L 97.333272 27.179579 
L 98.993693 18.501413 
L 100.654114 18.413196 
L 102.314535 24.189363 
L 103.974956 33.680344 
L 105.635377 45.93833 
L 107.295797 60.847688 
L 108.956218 78.3109 
L 115.597901 154.474017 
L 117.258322 170.315841 
L 118.918743 184.6473 
L 122.239585 210.245286 
L 123.900006 221.763637 
L 125.560426 232.206428 
L 127.220847 241.275581 
L 128.881268 248.782848 
L 130.541689 254.789672 
L 132.20211 259.603533 
L 133.862531 263.611553 
L 135.522951 267.06229 
L 137.183372 269.968066 
L 138.843793 272.210664 
L 140.504214 273.770069 
L 143.825055 276.160395 
L 145.485476 278.14844 
L 147.145897 281.245424 
L 148.806318 285.336006 
L 150.466739 289.79887 
L 152.12716 293.760654 
L 153.78758 296.483874 
L 155.448001 297.668631 
L 157.108422 297.516938 
L 158.768843 296.569259 
L 160.429264 295.447022 
L 162.089685 294.644046 
L 163.750105 294.430674 
L 165.410526 294.851466 
L 167.070947 295.770352 
L 170.391789 298.085566 
L 172.052209 299.012893 
L 173.71263 299.669154 
L 177.033472 300.667709 
L 178.693893 301.387033 
L 180.354314 302.398971 
L 183.675155 305.034768 
L 186.995997 307.642306 
L 190.316839 309.906701 
L 193.63768 312.014074 
L 195.298101 312.957318 
L 196.958522 313.743446 
L 198.618943 314.286797 
L 200.279363 314.493933 
L 201.939784 314.297943 
L 203.600205 313.710075 
L 208.581468 311.118559 
L 210.241888 310.555235 
L 211.902309 310.228481 
L 213.56273 310.075017 
L 215.223151 310.051293 
L 216.883572 310.177357 
L 218.543993 310.511969 
L 220.204413 311.082942 
L 225.185676 313.244465 
L 226.846097 313.633849 
L 228.506518 313.773844 
L 233.48778 313.798527 
L 236.808622 314.282695 
L 246.771147 316.11936 
L 250.091988 316.512777 
L 253.41283 316.642973 
L 255.073251 316.619643 
L 255.073251 316.619643 
" style="fill:none;stroke:#000000;stroke-dasharray:7.4,3.2;stroke-dashoffset:0;stroke-width:2;"/>
   </g>
   <g id="line2d_12">
    <path clip-path="url(#p2c8875a9ca)" d="M 45.266853 316.665589 
L 48.987594 316.542519 
L 50.847964 316.363636 
L 52.708335 316.059056 
L 56.429076 315.077713 
L 60.149817 313.984879 
L 63.870558 312.974377 
L 65.730928 312.192014 
L 67.591299 310.873476 
L 69.451669 308.668393 
L 71.31204 305.174545 
L 73.17241 299.942848 
L 75.032781 292.46586 
L 76.893151 282.170232 
L 78.753522 268.486454 
L 80.613892 251.058641 
L 82.474263 230.011389 
L 84.334633 206.019146 
L 88.055374 152.614213 
L 93.636486 67.905062 
L 95.496856 44.518485 
L 97.357227 28.395342 
L 99.217597 21.459403 
L 101.077968 23.492329 
L 102.938338 32.347873 
L 104.798709 45.157287 
L 106.659079 59.743295 
L 108.51945 75.356276 
L 110.37982 92.323305 
L 112.240191 110.98622 
L 115.960932 150.363962 
L 117.821302 168.071883 
L 119.681673 183.142929 
L 121.542043 195.870066 
L 125.262784 217.798109 
L 127.123155 227.830797 
L 128.983525 236.758296 
L 130.843896 243.940515 
L 132.704266 249.071097 
L 134.564637 252.380807 
L 136.425007 254.560713 
L 138.285378 256.517872 
L 140.145748 259.077871 
L 142.006119 262.71102 
L 143.866489 267.362553 
L 147.58723 277.310184 
L 149.447601 281.246201 
L 151.307971 284.166928 
L 156.889083 290.899184 
L 160.609824 296.566432 
L 162.470194 299.424756 
L 164.330565 302.011569 
L 166.190935 304.217902 
L 168.051306 305.967167 
L 169.911676 307.154151 
L 171.772047 307.663011 
L 173.632417 307.466601 
L 175.492788 306.724534 
L 177.353158 305.780974 
L 179.213529 305.041482 
L 181.073899 304.811025 
L 182.93427 305.196759 
L 184.79464 306.106031 
L 188.515381 308.457577 
L 190.375752 309.280176 
L 192.236122 309.590178 
L 194.096493 309.42202 
L 197.817234 308.707395 
L 199.677604 308.773556 
L 201.537975 309.31549 
L 203.398345 310.240526 
L 207.119086 312.347837 
L 208.979457 313.117733 
L 210.839827 313.575501 
L 212.700198 313.762833 
L 222.00205 314.000202 
L 227.583162 314.576656 
L 231.303903 315.176065 
L 236.885014 316.171394 
L 240.605755 316.533593 
L 244.326496 316.590696 
L 248.047237 316.360052 
L 251.767978 315.813813 
L 259.20946 314.489898 
L 262.930201 314.074314 
L 264.790572 314.061368 
L 266.650942 314.250409 
L 268.511313 314.63564 
L 274.092424 316.081691 
L 275.952795 316.37671 
L 279.673536 316.634087 
L 281.533906 316.66634 
L 281.533906 316.66634 
" style="fill:none;stroke:#000000;stroke-dasharray:2,3.3;stroke-dashoffset:0;stroke-width:2;"/>
   </g>
   <g id="patch_3">
    <path d="M 27.575 316.691667 
L 27.575 3.5 
" style="fill:none;stroke:#000000;stroke-linecap:square;stroke-linejoin:miter;stroke-width:0.8;"/>
   </g>
   <g id="patch_4">
    <path d="M 27.575 316.691667 
L 340.766667 316.691667 
" style="fill:none;stroke:#000000;stroke-linecap:square;stroke-linejoin:miter;stroke-width:0.8;"/>
   </g>
  </g>
  <g id="axes_2">
   <g id="patch_5">
    <path d="M 388.191667 316.691667 
L 701.383333 316.691667 
L 701.383333 3.5 
L 388.191667 3.5 
z
" style="fill:#ffffff;"/>
   </g>
   <g id="matplotlib.axis_3">
    <g id="xtick_5">
     <g id="line2d_13">
      <g>
       <use style="stroke:#000000;stroke-width:1.6;" x="446.200327" xlink:href="#m01814a5df5" y="316.691667"/>
      </g>
     </g>
     <g id="text_10">
      <!-- −0.5 -->
      <defs>
       <path d="M 10.59375 35.5 
L 73.1875 35.5 
L 73.1875 27.203125 
L 10.59375 27.203125 
z
" id="DejaVuSans-8722"/>
      </defs>
      <g transform="translate(421.917514 346.588542)scale(0.2 -0.2)">
       <use xlink:href="#DejaVuSans-8722"/>
       <use x="83.789062" xlink:href="#DejaVuSans-48"/>
       <use x="147.412109" xlink:href="#DejaVuSans-46"/>
       <use x="179.199219" xlink:href="#DejaVuSans-53"/>
      </g>
     </g>
    </g>
    <g id="xtick_6">
     <g id="line2d_14">
      <g>
       <use style="stroke:#000000;stroke-width:1.6;" x="546.083511" xlink:href="#m01814a5df5" y="316.691667"/>
      </g>
     </g>
     <g id="text_11">
      <!-- 0.0 -->
      <g transform="translate(530.180386 346.588542)scale(0.2 -0.2)">
       <use xlink:href="#DejaVuSans-48"/>
       <use x="63.623047" xlink:href="#DejaVuSans-46"/>
       <use x="95.410156" xlink:href="#DejaVuSans-48"/>
      </g>
     </g>
    </g>
    <g id="xtick_7">
     <g id="line2d_15">
      <g>
       <use style="stroke:#000000;stroke-width:1.6;" x="645.966695" xlink:href="#m01814a5df5" y="316.691667"/>
      </g>
     </g>
     <g id="text_12">
      <!-- 0.5 -->
      <g transform="translate(630.06357 346.588542)scale(0.2 -0.2)">
       <use xlink:href="#DejaVuSans-48"/>
       <use x="63.623047" xlink:href="#DejaVuSans-46"/>
       <use x="95.410156" xlink:href="#DejaVuSans-53"/>
      </g>
     </g>
    </g>
   </g>
   <g id="matplotlib.axis_4">
    <g id="ytick_6">
     <g id="line2d_16">
      <g>
       <use style="stroke:#000000;stroke-width:1.6;" x="388.191667" xlink:href="#m19d8f74363" y="316.691667"/>
      </g>
     </g>
     <g id="text_13">
      <!-- 0 -->
      <g transform="translate(360.766667 324.290104)scale(0.2 -0.2)">
       <use xlink:href="#DejaVuSans-48"/>
      </g>
     </g>
    </g>
    <g id="ytick_7">
     <g id="line2d_17">
      <g>
       <use style="stroke:#000000;stroke-width:1.6;" x="388.191667" xlink:href="#m19d8f74363" y="254.78343"/>
      </g>
     </g>
     <g id="text_14">
      <!-- 2 -->
      <g transform="translate(360.766667 262.381868)scale(0.2 -0.2)">
       <use xlink:href="#DejaVuSans-50"/>
      </g>
     </g>
    </g>
    <g id="ytick_8">
     <g id="line2d_18">
      <g>
       <use style="stroke:#000000;stroke-width:1.6;" x="388.191667" xlink:href="#m19d8f74363" y="192.875194"/>
      </g>
     </g>
     <g id="text_15">
      <!-- 4 -->
      <g transform="translate(360.766667 200.473631)scale(0.2 -0.2)">
       <use xlink:href="#DejaVuSans-52"/>
      </g>
     </g>
    </g>
    <g id="ytick_9">
     <g id="line2d_19">
      <g>
       <use style="stroke:#000000;stroke-width:1.6;" x="388.191667" xlink:href="#m19d8f74363" y="130.966957"/>
      </g>
     </g>
     <g id="text_16">
      <!-- 6 -->
      <g transform="translate(360.766667 138.565394)scale(0.2 -0.2)">
       <use xlink:href="#DejaVuSans-54"/>
      </g>
     </g>
    </g>
    <g id="ytick_10">
     <g id="line2d_20">
      <g>
       <use style="stroke:#000000;stroke-width:1.6;" x="388.191667" xlink:href="#m19d8f74363" y="69.05872"/>
      </g>
     </g>
     <g id="text_17">
      <!-- 8 -->
      <g transform="translate(360.766667 76.657158)scale(0.2 -0.2)">
       <use xlink:href="#DejaVuSans-56"/>
      </g>
     </g>
    </g>
    <g id="ytick_11">
     <g id="line2d_21">
      <g>
       <use style="stroke:#000000;stroke-width:1.6;" x="388.191667" xlink:href="#m19d8f74363" y="7.150484"/>
      </g>
     </g>
     <g id="text_18">
      <!-- 10 -->
      <defs>
       <path d="M 12.40625 8.296875 
L 28.515625 8.296875 
L 28.515625 63.921875 
L 10.984375 60.40625 
L 10.984375 69.390625 
L 28.421875 72.90625 
L 38.28125 72.90625 
L 38.28125 8.296875 
L 54.390625 8.296875 
L 54.390625 0 
L 12.40625 0 
z
" id="DejaVuSans-49"/>
      </defs>
      <g transform="translate(348.041667 14.748921)scale(0.2 -0.2)">
       <use xlink:href="#DejaVuSans-49"/>
       <use x="63.623047" xlink:href="#DejaVuSans-48"/>
      </g>
     </g>
    </g>
   </g>
   <g id="line2d_22">
    <path clip-path="url(#p998bd39898)" d="M 0 0 
" style="fill:none;stroke:#000000;stroke-linecap:square;stroke-width:2;"/>
   </g>
   <g id="line2d_23">
    <path clip-path="url(#p998bd39898)" d="M 0 0 
" style="fill:none;stroke:#000000;stroke-dasharray:7.4,3.2;stroke-dashoffset:0;stroke-width:2;"/>
   </g>
   <g id="patch_6">
    <path style="fill:none;stroke:#000000;stroke-linecap:square;stroke-linejoin:miter;stroke-width:0.8;"/>
   </g>
   <g id="patch_7">
    <path style="fill:none;stroke:#000000;stroke-linecap:square;stroke-linejoin:miter;stroke-width:0.8;"/>
   </g>
  </g>
 </g>
 <defs>
  <clipPath id="p2c8875a9ca">
   <rect height="313.191667" width="313.191667" x="27.575" y="3.5"/>
  </clipPath>
  <clipPath id="p998bd39898">
   <rect height="313.191667" width="313.191667" x="388.191667" y="3.5"/>
  </clipPath>
 </defs>
</svg>
