<?xml version="1.0" encoding="utf-8" standalone="no"?>
<!DOCTYPE svg PUBLIC "-//W3C//DTD SVG 1.1//EN"
  "http://www.w3.org/Graphics/SVG/1.1/DTD/svg11.dtd">
<!-- Created with matplotlib (https://matplotlib.org/) -->
<svg height="333.391667pt" version="1.1" viewBox="0 0 359.141667 333.391667" width="359.141667pt" xmlns="http://www.w3.org/2000/svg" xmlns:xlink="http://www.w3.org/1999/xlink">
 <defs>
  <style type="text/css">
*{stroke-linecap:butt;stroke-linejoin:round;}
  </style>
 </defs>
 <g id="figure_1">
  <g id="patch_1">
   <path d="M 0 333.391667 
L 359.141667 333.391667 
L 359.141667 0 
L 0 0 
z
" style="fill:#ffffff;"/>
  </g>
  <g id="axes_1">
   <g id="patch_2">
    <path d="M 59.45 299.691667 
L 355.641667 299.691667 
L 355.641667 3.5 
L 59.45 3.5 
z
" style="fill:#ffffff;"/>
   </g>
   <g id="matplotlib.axis_1">
    <g id="xtick_1">
     <g id="line2d_1">
      <defs>
       <path d="M 0 0 
L 0 3.5 
" id="m3cfd3398c7" style="stroke:#000000;stroke-width:1.6;"/>
      </defs>
      <g>
       <use style="stroke:#000000;stroke-width:1.6;" x="153.732919" xlink:href="#m3cfd3398c7" y="299.691667"/>
      </g>
     </g>
     <g id="text_1">
      <!-- 0.2 -->
      <defs>
       <path d="M 31.78125 66.40625 
Q 24.171875 66.40625 20.328125 58.90625 
Q 16.5 51.421875 16.5 36.375 
Q 16.5 21.390625 20.328125 13.890625 
Q 24.171875 6.390625 31.78125 6.390625 
Q 39.453125 6.390625 43.28125 13.890625 
Q 47.125 21.390625 47.125 36.375 
Q 47.125 51.421875 43.28125 58.90625 
Q 39.453125 66.40625 31.78125 66.40625 
z
M 31.78125 74.21875 
Q 44.046875 74.21875 50.515625 64.515625 
Q 56.984375 54.828125 56.984375 36.375 
Q 56.984375 17.96875 50.515625 8.265625 
Q 44.046875 -1.421875 31.78125 -1.421875 
Q 19.53125 -1.421875 13.0625 8.265625 
Q 6.59375 17.96875 6.59375 36.375 
Q 6.59375 54.828125 13.0625 64.515625 
Q 19.53125 74.21875 31.78125 74.21875 
z
" id="DejaVuSans-48"/>
       <path d="M 10.6875 12.40625 
L 21 12.40625 
L 21 0 
L 10.6875 0 
z
" id="DejaVuSans-46"/>
       <path d="M 19.1875 8.296875 
L 53.609375 8.296875 
L 53.609375 0 
L 7.328125 0 
L 7.328125 8.296875 
Q 12.9375 14.109375 22.625 23.890625 
Q 32.328125 33.6875 34.8125 36.53125 
Q 39.546875 41.84375 41.421875 45.53125 
Q 43.3125 49.21875 43.3125 52.78125 
Q 43.3125 58.59375 39.234375 62.25 
Q 35.15625 65.921875 28.609375 65.921875 
Q 23.96875 65.921875 18.8125 64.3125 
Q 13.671875 62.703125 7.8125 59.421875 
L 7.8125 69.390625 
Q 13.765625 71.78125 18.9375 73 
Q 24.125 74.21875 28.421875 74.21875 
Q 39.75 74.21875 46.484375 68.546875 
Q 53.21875 62.890625 53.21875 53.421875 
Q 53.21875 48.921875 51.53125 44.890625 
Q 49.859375 40.875 45.40625 35.40625 
Q 44.1875 33.984375 37.640625 27.21875 
Q 31.109375 20.453125 19.1875 8.296875 
z
" id="DejaVuSans-50"/>
      </defs>
      <g transform="translate(137.829794 329.588542)scale(0.2 -0.2)">
       <use xlink:href="#DejaVuSans-48"/>
       <use x="63.623047" xlink:href="#DejaVuSans-46"/>
       <use x="95.410156" xlink:href="#DejaVuSans-50"/>
      </g>
     </g>
    </g>
    <g id="xtick_2">
     <g id="line2d_2">
      <g>
       <use style="stroke:#000000;stroke-width:1.6;" x="275.391049" xlink:href="#m3cfd3398c7" y="299.691667"/>
      </g>
     </g>
     <g id="text_2">
      <!-- 0.4 -->
      <defs>
       <path d="M 37.796875 64.3125 
L 12.890625 25.390625 
L 37.796875 25.390625 
z
M 35.203125 72.90625 
L 47.609375 72.90625 
L 47.609375 25.390625 
L 58.015625 25.390625 
L 58.015625 17.1875 
L 47.609375 17.1875 
L 47.609375 0 
L 37.796875 0 
L 37.796875 17.1875 
L 4.890625 17.1875 
L 4.890625 26.703125 
z
" id="DejaVuSans-52"/>
      </defs>
      <g transform="translate(259.487924 329.588542)scale(0.2 -0.2)">
       <use xlink:href="#DejaVuSans-48"/>
       <use x="63.623047" xlink:href="#DejaVuSans-46"/>
       <use x="95.410156" xlink:href="#DejaVuSans-52"/>
      </g>
     </g>
    </g>
   </g>
   <g id="matplotlib.axis_2">
    <g id="ytick_1">
     <g id="line2d_3">
      <defs>
       <path d="M 0 0 
L -3.5 0 
" id="mec55649317" style="stroke:#000000;stroke-width:1.6;"/>
      </defs>
      <g>
       <use style="stroke:#000000;stroke-width:1.6;" x="59.45" xlink:href="#mec55649317" y="299.691667"/>
      </g>
     </g>
     <g id="text_3">
      <!-- 0.0 -->
      <g transform="translate(12.94375 307.290104)scale(0.2 -0.2)">
       <use xlink:href="#DejaVuSans-48"/>
       <use x="63.623047" xlink:href="#DejaVuSans-46"/>
       <use x="95.410156" xlink:href="#DejaVuSans-48"/>
      </g>
     </g>
    </g>
    <g id="ytick_2">
     <g id="line2d_4">
      <g>
       <use style="stroke:#000000;stroke-width:1.6;" x="59.45" xlink:href="#mec55649317" y="256.6978"/>
      </g>
     </g>
     <g id="text_4">
      <!-- 2.5 -->
      <defs>
       <path d="M 10.796875 72.90625 
L 49.515625 72.90625 
L 49.515625 64.59375 
L 19.828125 64.59375 
L 19.828125 46.734375 
Q 21.96875 47.46875 24.109375 47.828125 
Q 26.265625 48.1875 28.421875 48.1875 
Q 40.625 48.1875 47.75 41.5 
Q 54.890625 34.8125 54.890625 23.390625 
Q 54.890625 11.625 47.5625 5.09375 
Q 40.234375 -1.421875 26.90625 -1.421875 
Q 22.3125 -1.421875 17.546875 -0.640625 
Q 12.796875 0.140625 7.71875 1.703125 
L 7.71875 11.625 
Q 12.109375 9.234375 16.796875 8.0625 
Q 21.484375 6.890625 26.703125 6.890625 
Q 35.15625 6.890625 40.078125 11.328125 
Q 45.015625 15.765625 45.015625 23.390625 
Q 45.015625 31 40.078125 35.4375 
Q 35.15625 39.890625 26.703125 39.890625 
Q 22.75 39.890625 18.8125 39.015625 
Q 14.890625 38.140625 10.796875 36.28125 
z
" id="DejaVuSans-53"/>
      </defs>
      <g transform="translate(12.94375 264.296238)scale(0.2 -0.2)">
       <use xlink:href="#DejaVuSans-50"/>
       <use x="63.623047" xlink:href="#DejaVuSans-46"/>
       <use x="95.410156" xlink:href="#DejaVuSans-53"/>
      </g>
     </g>
    </g>
    <g id="ytick_3">
     <g id="line2d_5">
      <g>
       <use style="stroke:#000000;stroke-width:1.6;" x="59.45" xlink:href="#mec55649317" y="213.703933"/>
      </g>
     </g>
     <g id="text_5">
      <!-- 5.0 -->
      <g transform="translate(12.94375 221.302371)scale(0.2 -0.2)">
       <use xlink:href="#DejaVuSans-53"/>
       <use x="63.623047" xlink:href="#DejaVuSans-46"/>
       <use x="95.410156" xlink:href="#DejaVuSans-48"/>
      </g>
     </g>
    </g>
    <g id="ytick_4">
     <g id="line2d_6">
      <g>
       <use style="stroke:#000000;stroke-width:1.6;" x="59.45" xlink:href="#mec55649317" y="170.710067"/>
      </g>
     </g>
     <g id="text_6">
      <!-- 7.5 -->
      <defs>
       <path d="M 8.203125 72.90625 
L 55.078125 72.90625 
L 55.078125 68.703125 
L 28.609375 0 
L 18.3125 0 
L 43.21875 64.59375 
L 8.203125 64.59375 
z
" id="DejaVuSans-55"/>
      </defs>
      <g transform="translate(12.94375 178.308504)scale(0.2 -0.2)">
       <use xlink:href="#DejaVuSans-55"/>
       <use x="63.623047" xlink:href="#DejaVuSans-46"/>
       <use x="95.410156" xlink:href="#DejaVuSans-53"/>
      </g>
     </g>
    </g>
    <g id="ytick_5">
     <g id="line2d_7">
      <g>
       <use style="stroke:#000000;stroke-width:1.6;" x="59.45" xlink:href="#mec55649317" y="127.7162"/>
      </g>
     </g>
     <g id="text_7">
      <!-- 10.0 -->
      <defs>
       <path d="M 12.40625 8.296875 
L 28.515625 8.296875 
L 28.515625 63.921875 
L 10.984375 60.40625 
L 10.984375 69.390625 
L 28.421875 72.90625 
L 38.28125 72.90625 
L 38.28125 8.296875 
L 54.390625 8.296875 
L 54.390625 0 
L 12.40625 0 
z
" id="DejaVuSans-49"/>
      </defs>
      <g transform="translate(0.21875 135.314638)scale(0.2 -0.2)">
       <use xlink:href="#DejaVuSans-49"/>
       <use x="63.623047" xlink:href="#DejaVuSans-48"/>
       <use x="127.246094" xlink:href="#DejaVuSans-46"/>
       <use x="159.033203" xlink:href="#DejaVuSans-48"/>
      </g>
     </g>
    </g>
    <g id="ytick_6">
     <g id="line2d_8">
      <g>
       <use style="stroke:#000000;stroke-width:1.6;" x="59.45" xlink:href="#mec55649317" y="84.722333"/>
      </g>
     </g>
     <g id="text_8">
      <!-- 12.5 -->
      <g transform="translate(0.21875 92.320771)scale(0.2 -0.2)">
       <use xlink:href="#DejaVuSans-49"/>
       <use x="63.623047" xlink:href="#DejaVuSans-50"/>
       <use x="127.246094" xlink:href="#DejaVuSans-46"/>
       <use x="159.033203" xlink:href="#DejaVuSans-53"/>
      </g>
     </g>
    </g>
    <g id="ytick_7">
     <g id="line2d_9">
      <g>
       <use style="stroke:#000000;stroke-width:1.6;" x="59.45" xlink:href="#mec55649317" y="41.728467"/>
      </g>
     </g>
     <g id="text_9">
      <!-- 15.0 -->
      <g transform="translate(0.21875 49.326904)scale(0.2 -0.2)">
       <use xlink:href="#DejaVuSans-49"/>
       <use x="63.623047" xlink:href="#DejaVuSans-53"/>
       <use x="127.246094" xlink:href="#DejaVuSans-46"/>
       <use x="159.033203" xlink:href="#DejaVuSans-48"/>
      </g>
     </g>
    </g>
   </g>
   <g id="line2d_10">
    <path clip-path="url(#p5143ed5406)" d="M 83.526014 299.672958 
L 87.031272 299.526635 
L 88.783902 299.264824 
L 90.536531 298.72519 
L 92.28916 297.724675 
L 94.04179 295.963334 
L 95.794419 292.863779 
L 97.547049 287.346501 
L 99.299678 277.770574 
L 101.052307 262.3692 
L 102.804937 240.225954 
L 104.557566 212.24109 
L 108.062825 150.945357 
L 109.815454 124.19937 
L 111.568083 101.895709 
L 113.320713 83.09655 
L 115.073342 66.28348 
L 116.825972 50.670084 
L 118.578601 36.762289 
L 120.33123 25.940536 
L 122.08386 19.427683 
L 123.836489 17.604365 
L 125.589118 20.337047 
L 127.341748 27.548181 
L 129.094377 38.884596 
L 130.847006 53.045241 
L 134.352265 83.843276 
L 136.104895 100.427023 
L 141.362783 156.487074 
L 143.115412 171.722279 
L 144.868041 183.745404 
L 148.3733 204.64102 
L 153.631188 239.211142 
L 155.383817 249.021086 
L 157.136447 257.206908 
L 158.889076 263.945132 
L 160.641706 269.554657 
L 162.394335 274.233036 
L 164.146964 278.022911 
L 165.899594 281.048953 
L 169.404852 286.105732 
L 171.157482 288.385035 
L 172.910111 290.12009 
L 174.66274 291.00422 
L 176.41537 291.101653 
L 178.167999 290.833106 
L 179.920629 290.696112 
L 181.673258 291.00824 
L 183.425887 291.860717 
L 185.178517 293.192955 
L 188.683775 296.457909 
L 190.436405 297.773502 
L 192.189034 298.556085 
L 193.941663 298.760203 
L 195.694293 298.484286 
L 199.199551 297.362208 
L 200.952181 297.004481 
L 202.70481 296.939693 
L 214.973216 298.040587 
L 221.983733 299.101801 
L 223.736363 299.064416 
L 230.74688 298.38801 
L 234.252139 298.18636 
L 237.757397 297.79501 
L 239.510027 297.743488 
L 244.767915 297.87155 
L 248.273174 297.480148 
L 250.025803 297.498151 
L 251.778432 297.804243 
L 255.283691 298.601747 
L 257.03632 298.703289 
L 258.78895 298.578302 
L 262.294208 298.058659 
L 269.304726 296.75855 
L 271.057355 296.822241 
L 274.562614 297.467644 
L 278.067873 298.029044 
L 281.573131 298.367478 
L 285.07839 298.407399 
L 290.336278 298.225524 
L 293.841537 298.345334 
L 297.346796 298.84444 
L 300.852054 299.409603 
L 304.357313 299.646137 
L 306.109942 299.674613 
L 306.109942 299.674613 
" style="fill:none;stroke:#000000;stroke-linecap:square;stroke-width:2;"/>
   </g>
   <g id="line2d_11">
    <path clip-path="url(#p5143ed5406)" d="M 84.782219 299.644681 
L 86.80896 299.479085 
L 88.835702 298.880855 
L 90.862444 297.171357 
L 92.889185 293.216214 
L 94.915927 285.609917 
L 96.942669 272.940624 
L 98.96941 253.824099 
L 100.996152 227.159799 
L 103.022894 193.381609 
L 107.076377 119.16577 
L 109.103119 88.136455 
L 111.12986 64.56268 
L 113.156602 48.376961 
L 115.183344 38.572882 
L 117.210085 33.746281 
L 119.236827 32.147216 
L 121.263569 32.210418 
L 123.29031 33.586606 
L 125.317052 37.393824 
L 127.343794 45.24265 
L 129.370535 58.103101 
L 131.397277 75.928623 
L 133.424018 97.833025 
L 137.477502 146.612031 
L 139.504243 168.745657 
L 141.530985 187.032063 
L 143.557727 201.33227 
L 145.584468 212.943435 
L 149.637952 235.39699 
L 151.664693 246.949299 
L 153.691435 256.899762 
L 155.718177 263.949443 
L 157.744918 268.148961 
L 159.77166 270.937917 
L 161.798402 274.12011 
L 163.825143 278.411654 
L 165.851885 282.965213 
L 167.878627 286.424359 
L 169.905368 288.288958 
L 171.93211 289.107165 
L 180.039077 291.15739 
L 182.065818 291.980785 
L 184.09256 293.166639 
L 186.119302 294.505842 
L 188.146043 295.58826 
L 190.172785 296.149287 
L 192.199527 296.250742 
L 200.306493 295.839791 
L 208.41346 296.377679 
L 210.440201 296.790707 
L 216.520426 298.930025 
L 218.547168 299.345931 
L 220.57391 299.523098 
L 222.600651 299.505 
L 224.627393 299.319668 
L 230.707618 298.399719 
L 234.761101 298.047467 
L 236.787843 297.742651 
L 240.841326 296.799123 
L 242.868068 296.286595 
L 244.89481 295.933169 
L 246.921551 295.928504 
L 255.028518 297.211092 
L 259.082001 297.899477 
L 261.108743 298.220263 
L 267.188968 298.730563 
L 271.242451 299.368446 
L 275.295934 299.652021 
L 283.402901 299.691639 
L 303.670318 299.652216 
L 307.723801 299.371072 
L 311.777284 298.771671 
L 313.804026 298.638798 
L 315.830768 298.762992 
L 319.884251 299.324843 
L 321.910993 299.434798 
L 323.937734 299.337921 
L 330.017959 298.64428 
L 332.044701 298.759107 
L 338.124926 299.550644 
L 342.178409 299.67279 
L 342.178409 299.67279 
" style="fill:none;stroke:#000000;stroke-dasharray:7.4,3.2;stroke-dashoffset:0;stroke-width:2;"/>
   </g>
   <g id="line2d_12">
    <path clip-path="url(#p5143ed5406)" d="M 72.913258 299.666965 
L 75.78706 299.585014 
L 78.660863 299.262388 
L 80.097764 298.924795 
L 81.534665 298.415149 
L 82.971566 297.69517 
L 84.408467 296.7291 
L 85.845369 295.477283 
L 87.28227 293.885884 
L 88.719171 291.875715 
L 90.156072 289.330101 
L 91.592974 286.079476 
L 93.029875 281.885133 
L 94.466776 276.435073 
L 95.903677 269.370251 
L 97.340579 260.347932 
L 98.77748 249.124089 
L 100.214381 235.619325 
L 101.651282 219.943057 
L 103.088183 202.383291 
L 105.961986 163.583681 
L 108.835788 124.64844 
L 110.27269 107.174694 
L 111.709591 91.93136 
L 113.146492 79.307069 
L 114.583393 69.47272 
L 116.020295 62.459939 
L 117.457196 58.212606 
L 118.894097 56.570074 
L 120.330998 57.216125 
L 121.767899 59.667218 
L 123.204801 63.342375 
L 126.078603 72.316618 
L 128.952406 81.972796 
L 130.389307 87.356613 
L 131.826208 93.597009 
L 133.263109 101.074968 
L 134.700011 110.02114 
L 136.136912 120.416888 
L 139.010714 144.234397 
L 141.884517 168.838082 
L 144.758319 191.489809 
L 147.632122 211.295618 
L 149.069023 219.864272 
L 150.505924 227.331949 
L 151.942825 233.616645 
L 153.379727 238.803481 
L 154.816628 243.170047 
L 159.127332 255.328892 
L 163.438035 268.746223 
L 164.874936 272.336647 
L 166.311838 275.047761 
L 167.748739 276.928926 
L 169.18564 278.210772 
L 170.622541 279.165939 
L 173.496344 280.691537 
L 174.933245 281.26997 
L 177.807048 281.997893 
L 179.243949 282.32 
L 180.68085 282.770126 
L 182.117751 283.394076 
L 199.360566 292.614345 
L 203.67127 295.120008 
L 205.108171 295.832437 
L 206.545072 296.380723 
L 207.981973 296.734754 
L 209.418875 296.905882 
L 216.603381 297.127721 
L 219.477183 297.699041 
L 222.350986 298.350832 
L 225.224788 298.736962 
L 228.098591 298.747416 
L 235.283097 298.267961 
L 239.593801 297.815933 
L 241.030702 297.792633 
L 242.467603 297.905415 
L 245.341405 298.470045 
L 248.215208 299.114354 
L 251.08901 299.504992 
L 253.962813 299.64835 
L 255.399714 299.668212 
L 255.399714 299.668212 
" style="fill:none;stroke:#000000;stroke-dasharray:2,3.3;stroke-dashoffset:0;stroke-width:2;"/>
   </g>
   <g id="patch_3">
    <path d="M 59.45 299.691667 
L 59.45 3.5 
" style="fill:none;stroke:#000000;stroke-linecap:square;stroke-linejoin:miter;stroke-width:0.8;"/>
   </g>
   <g id="patch_4">
    <path d="M 59.45 299.691667 
L 355.641667 299.691667 
" style="fill:none;stroke:#000000;stroke-linecap:square;stroke-linejoin:miter;stroke-width:0.8;"/>
   </g>
  </g>
  <g id="axes_2">
   <g id="patch_5">
    <path d="M 422.191667 299.691667 
L 718.383333 299.691667 
L 718.383333 3.5 
L 422.191667 3.5 
z
" style="fill:#ffffff;"/>
   </g>
   <g id="matplotlib.axis_3">
    <g id="xtick_3">
     <g id="line2d_13">
      <g>
       <use style="stroke:#000000;stroke-width:1.6;" x="474.365675" xlink:href="#m3cfd3398c7" y="299.691667"/>
      </g>
     </g>
     <g id="text_10">
      <!-- −0.2 -->
      <defs>
       <path d="M 10.59375 35.5 
L 73.1875 35.5 
L 73.1875 27.203125 
L 10.59375 27.203125 
z
" id="DejaVuSans-8722"/>
      </defs>
      <g transform="translate(450.082862 329.588542)scale(0.2 -0.2)">
       <use xlink:href="#DejaVuSans-8722"/>
       <use x="83.789062" xlink:href="#DejaVuSans-48"/>
       <use x="147.412109" xlink:href="#DejaVuSans-46"/>
       <use x="179.199219" xlink:href="#DejaVuSans-50"/>
      </g>
     </g>
    </g>
    <g id="xtick_4">
     <g id="line2d_14">
      <g>
       <use style="stroke:#000000;stroke-width:1.6;" x="599.103773" xlink:href="#m3cfd3398c7" y="299.691667"/>
      </g>
     </g>
     <g id="text_11">
      <!-- 0.0 -->
      <g transform="translate(583.200648 329.588542)scale(0.2 -0.2)">
       <use xlink:href="#DejaVuSans-48"/>
       <use x="63.623047" xlink:href="#DejaVuSans-46"/>
       <use x="95.410156" xlink:href="#DejaVuSans-48"/>
      </g>
     </g>
    </g>
   </g>
   <g id="matplotlib.axis_4">
    <g id="ytick_8">
     <g id="line2d_15">
      <g>
       <use style="stroke:#000000;stroke-width:1.6;" x="422.191667" xlink:href="#mec55649317" y="299.691667"/>
      </g>
     </g>
     <g id="text_12">
      <!-- 0.0 -->
      <g transform="translate(375.685417 307.290104)scale(0.2 -0.2)">
       <use xlink:href="#DejaVuSans-48"/>
       <use x="63.623047" xlink:href="#DejaVuSans-46"/>
       <use x="95.410156" xlink:href="#DejaVuSans-48"/>
      </g>
     </g>
    </g>
    <g id="ytick_9">
     <g id="line2d_16">
      <g>
       <use style="stroke:#000000;stroke-width:1.6;" x="422.191667" xlink:href="#mec55649317" y="247.361243"/>
      </g>
     </g>
     <g id="text_13">
      <!-- 2.5 -->
      <g transform="translate(375.685417 254.95968)scale(0.2 -0.2)">
       <use xlink:href="#DejaVuSans-50"/>
       <use x="63.623047" xlink:href="#DejaVuSans-46"/>
       <use x="95.410156" xlink:href="#DejaVuSans-53"/>
      </g>
     </g>
    </g>
    <g id="ytick_10">
     <g id="line2d_17">
      <g>
       <use style="stroke:#000000;stroke-width:1.6;" x="422.191667" xlink:href="#mec55649317" y="195.030819"/>
      </g>
     </g>
     <g id="text_14">
      <!-- 5.0 -->
      <g transform="translate(375.685417 202.629257)scale(0.2 -0.2)">
       <use xlink:href="#DejaVuSans-53"/>
       <use x="63.623047" xlink:href="#DejaVuSans-46"/>
       <use x="95.410156" xlink:href="#DejaVuSans-48"/>
      </g>
     </g>
    </g>
    <g id="ytick_11">
     <g id="line2d_18">
      <g>
       <use style="stroke:#000000;stroke-width:1.6;" x="422.191667" xlink:href="#mec55649317" y="142.700395"/>
      </g>
     </g>
     <g id="text_15">
      <!-- 7.5 -->
      <g transform="translate(375.685417 150.298833)scale(0.2 -0.2)">
       <use xlink:href="#DejaVuSans-55"/>
       <use x="63.623047" xlink:href="#DejaVuSans-46"/>
       <use x="95.410156" xlink:href="#DejaVuSans-53"/>
      </g>
     </g>
    </g>
    <g id="ytick_12">
     <g id="line2d_19">
      <g>
       <use style="stroke:#000000;stroke-width:1.6;" x="422.191667" xlink:href="#mec55649317" y="90.369972"/>
      </g>
     </g>
     <g id="text_16">
      <!-- 10.0 -->
      <g transform="translate(362.960417 97.968409)scale(0.2 -0.2)">
       <use xlink:href="#DejaVuSans-49"/>
       <use x="63.623047" xlink:href="#DejaVuSans-48"/>
       <use x="127.246094" xlink:href="#DejaVuSans-46"/>
       <use x="159.033203" xlink:href="#DejaVuSans-48"/>
      </g>
     </g>
    </g>
    <g id="ytick_13">
     <g id="line2d_20">
      <g>
       <use style="stroke:#000000;stroke-width:1.6;" x="422.191667" xlink:href="#mec55649317" y="38.039548"/>
      </g>
     </g>
     <g id="text_17">
      <!-- 12.5 -->
      <g transform="translate(362.960417 45.637986)scale(0.2 -0.2)">
       <use xlink:href="#DejaVuSans-49"/>
       <use x="63.623047" xlink:href="#DejaVuSans-50"/>
       <use x="127.246094" xlink:href="#DejaVuSans-46"/>
       <use x="159.033203" xlink:href="#DejaVuSans-53"/>
      </g>
     </g>
    </g>
   </g>
   <g id="line2d_21">
    <path clip-path="url(#pc9fe518b96)" d="M 0 0 
" style="fill:none;stroke:#000000;stroke-linecap:square;stroke-width:2;"/>
   </g>
   <g id="line2d_22">
    <path clip-path="url(#pc9fe518b96)" d="M 0 0 
" style="fill:none;stroke:#000000;stroke-dasharray:7.4,3.2;stroke-dashoffset:0;stroke-width:2;"/>
   </g>
   <g id="patch_6">
    <path style="fill:none;stroke:#000000;stroke-linecap:square;stroke-linejoin:miter;stroke-width:0.8;"/>
   </g>
   <g id="patch_7">
    <path style="fill:none;stroke:#000000;stroke-linecap:square;stroke-linejoin:miter;stroke-width:0.8;"/>
   </g>
  </g>
 </g>
 <defs>
  <clipPath id="p5143ed5406">
   <rect height="296.191667" width="296.191667" x="59.45" y="3.5"/>
  </clipPath>
  <clipPath id="pc9fe518b96">
   <rect height="296.191667" width="296.191667" x="422.191667" y="3.5"/>
  </clipPath>
 </defs>
</svg>
