<?xml version="1.0" encoding="utf-8" standalone="no"?>
<!DOCTYPE svg PUBLIC "-//W3C//DTD SVG 1.1//EN"
  "http://www.w3.org/Graphics/SVG/1.1/DTD/svg11.dtd">
<!-- Created with matplotlib (https://matplotlib.org/) -->
<svg height="354.641667pt" version="1.1" viewBox="0 0 361.266667 354.641667" width="361.266667pt" xmlns="http://www.w3.org/2000/svg" xmlns:xlink="http://www.w3.org/1999/xlink">
 <defs>
  <style type="text/css">
*{stroke-linecap:butt;stroke-linejoin:round;}
  </style>
 </defs>
 <g id="figure_1">
  <g id="patch_1">
   <path d="M 0 354.641667 
L 361.266667 354.641667 
L 361.266667 0 
L 0 0 
z
" style="fill:#ffffff;"/>
  </g>
  <g id="axes_1">
   <g id="patch_2">
    <path d="M 40.325 320.941667 
L 357.766667 320.941667 
L 357.766667 3.5 
L 40.325 3.5 
z
" style="fill:#ffffff;"/>
   </g>
   <g id="matplotlib.axis_1">
    <g id="xtick_1">
     <g id="line2d_1">
      <defs>
       <path d="M 0 0 
L 0 3.5 
" id="m40b2d1e6fe" style="stroke:#000000;stroke-width:1.6;"/>
      </defs>
      <g>
       <use style="stroke:#000000;stroke-width:1.6;" x="68.300524" xlink:href="#m40b2d1e6fe" y="320.941667"/>
      </g>
     </g>
     <g id="text_1">
      <!-- 0.0 -->
      <defs>
       <path d="M 31.78125 66.40625 
Q 24.171875 66.40625 20.328125 58.90625 
Q 16.5 51.421875 16.5 36.375 
Q 16.5 21.390625 20.328125 13.890625 
Q 24.171875 6.390625 31.78125 6.390625 
Q 39.453125 6.390625 43.28125 13.890625 
Q 47.125 21.390625 47.125 36.375 
Q 47.125 51.421875 43.28125 58.90625 
Q 39.453125 66.40625 31.78125 66.40625 
z
M 31.78125 74.21875 
Q 44.046875 74.21875 50.515625 64.515625 
Q 56.984375 54.828125 56.984375 36.375 
Q 56.984375 17.96875 50.515625 8.265625 
Q 44.046875 -1.421875 31.78125 -1.421875 
Q 19.53125 -1.421875 13.0625 8.265625 
Q 6.59375 17.96875 6.59375 36.375 
Q 6.59375 54.828125 13.0625 64.515625 
Q 19.53125 74.21875 31.78125 74.21875 
z
" id="DejaVuSans-48"/>
       <path d="M 10.6875 12.40625 
L 21 12.40625 
L 21 0 
L 10.6875 0 
z
" id="DejaVuSans-46"/>
      </defs>
      <g transform="translate(52.397399 350.838542)scale(0.2 -0.2)">
       <use xlink:href="#DejaVuSans-48"/>
       <use x="63.623047" xlink:href="#DejaVuSans-46"/>
       <use x="95.410156" xlink:href="#DejaVuSans-48"/>
      </g>
     </g>
    </g>
    <g id="xtick_2">
     <g id="line2d_2">
      <g>
       <use style="stroke:#000000;stroke-width:1.6;" x="168.200681" xlink:href="#m40b2d1e6fe" y="320.941667"/>
      </g>
     </g>
     <g id="text_2">
      <!-- 0.2 -->
      <defs>
       <path d="M 19.1875 8.296875 
L 53.609375 8.296875 
L 53.609375 0 
L 7.328125 0 
L 7.328125 8.296875 
Q 12.9375 14.109375 22.625 23.890625 
Q 32.328125 33.6875 34.8125 36.53125 
Q 39.546875 41.84375 41.421875 45.53125 
Q 43.3125 49.21875 43.3125 52.78125 
Q 43.3125 58.59375 39.234375 62.25 
Q 35.15625 65.921875 28.609375 65.921875 
Q 23.96875 65.921875 18.8125 64.3125 
Q 13.671875 62.703125 7.8125 59.421875 
L 7.8125 69.390625 
Q 13.765625 71.78125 18.9375 73 
Q 24.125 74.21875 28.421875 74.21875 
Q 39.75 74.21875 46.484375 68.546875 
Q 53.21875 62.890625 53.21875 53.421875 
Q 53.21875 48.921875 51.53125 44.890625 
Q 49.859375 40.875 45.40625 35.40625 
Q 44.1875 33.984375 37.640625 27.21875 
Q 31.109375 20.453125 19.1875 8.296875 
z
" id="DejaVuSans-50"/>
      </defs>
      <g transform="translate(152.297556 350.838542)scale(0.2 -0.2)">
       <use xlink:href="#DejaVuSans-48"/>
       <use x="63.623047" xlink:href="#DejaVuSans-46"/>
       <use x="95.410156" xlink:href="#DejaVuSans-50"/>
      </g>
     </g>
    </g>
    <g id="xtick_3">
     <g id="line2d_3">
      <g>
       <use style="stroke:#000000;stroke-width:1.6;" x="268.100838" xlink:href="#m40b2d1e6fe" y="320.941667"/>
      </g>
     </g>
     <g id="text_3">
      <!-- 0.4 -->
      <defs>
       <path d="M 37.796875 64.3125 
L 12.890625 25.390625 
L 37.796875 25.390625 
z
M 35.203125 72.90625 
L 47.609375 72.90625 
L 47.609375 25.390625 
L 58.015625 25.390625 
L 58.015625 17.1875 
L 47.609375 17.1875 
L 47.609375 0 
L 37.796875 0 
L 37.796875 17.1875 
L 4.890625 17.1875 
L 4.890625 26.703125 
z
" id="DejaVuSans-52"/>
      </defs>
      <g transform="translate(252.197713 350.838542)scale(0.2 -0.2)">
       <use xlink:href="#DejaVuSans-48"/>
       <use x="63.623047" xlink:href="#DejaVuSans-46"/>
       <use x="95.410156" xlink:href="#DejaVuSans-52"/>
      </g>
     </g>
    </g>
   </g>
   <g id="matplotlib.axis_2">
    <g id="ytick_1">
     <g id="line2d_4">
      <defs>
       <path d="M 0 0 
L -3.5 0 
" id="mdbccd439f6" style="stroke:#000000;stroke-width:1.6;"/>
      </defs>
      <g>
       <use style="stroke:#000000;stroke-width:1.6;" x="40.325" xlink:href="#mdbccd439f6" y="320.941667"/>
      </g>
     </g>
     <g id="text_4">
      <!-- 0 -->
      <g transform="translate(12.9 328.540104)scale(0.2 -0.2)">
       <use xlink:href="#DejaVuSans-48"/>
      </g>
     </g>
    </g>
    <g id="ytick_2">
     <g id="line2d_5">
      <g>
       <use style="stroke:#000000;stroke-width:1.6;" x="40.325" xlink:href="#mdbccd439f6" y="266.174034"/>
      </g>
     </g>
     <g id="text_5">
      <!-- 2 -->
      <g transform="translate(12.9 273.772472)scale(0.2 -0.2)">
       <use xlink:href="#DejaVuSans-50"/>
      </g>
     </g>
    </g>
    <g id="ytick_3">
     <g id="line2d_6">
      <g>
       <use style="stroke:#000000;stroke-width:1.6;" x="40.325" xlink:href="#mdbccd439f6" y="211.406402"/>
      </g>
     </g>
     <g id="text_6">
      <!-- 4 -->
      <g transform="translate(12.9 219.004839)scale(0.2 -0.2)">
       <use xlink:href="#DejaVuSans-52"/>
      </g>
     </g>
    </g>
    <g id="ytick_4">
     <g id="line2d_7">
      <g>
       <use style="stroke:#000000;stroke-width:1.6;" x="40.325" xlink:href="#mdbccd439f6" y="156.63877"/>
      </g>
     </g>
     <g id="text_7">
      <!-- 6 -->
      <defs>
       <path d="M 33.015625 40.375 
Q 26.375 40.375 22.484375 35.828125 
Q 18.609375 31.296875 18.609375 23.390625 
Q 18.609375 15.53125 22.484375 10.953125 
Q 26.375 6.390625 33.015625 6.390625 
Q 39.65625 6.390625 43.53125 10.953125 
Q 47.40625 15.53125 47.40625 23.390625 
Q 47.40625 31.296875 43.53125 35.828125 
Q 39.65625 40.375 33.015625 40.375 
z
M 52.59375 71.296875 
L 52.59375 62.3125 
Q 48.875 64.0625 45.09375 64.984375 
Q 41.3125 65.921875 37.59375 65.921875 
Q 27.828125 65.921875 22.671875 59.328125 
Q 17.53125 52.734375 16.796875 39.40625 
Q 19.671875 43.65625 24.015625 45.921875 
Q 28.375 48.1875 33.59375 48.1875 
Q 44.578125 48.1875 50.953125 41.515625 
Q 57.328125 34.859375 57.328125 23.390625 
Q 57.328125 12.15625 50.6875 5.359375 
Q 44.046875 -1.421875 33.015625 -1.421875 
Q 20.359375 -1.421875 13.671875 8.265625 
Q 6.984375 17.96875 6.984375 36.375 
Q 6.984375 53.65625 15.1875 63.9375 
Q 23.390625 74.21875 37.203125 74.21875 
Q 40.921875 74.21875 44.703125 73.484375 
Q 48.484375 72.75 52.59375 71.296875 
z
" id="DejaVuSans-54"/>
      </defs>
      <g transform="translate(12.9 164.237207)scale(0.2 -0.2)">
       <use xlink:href="#DejaVuSans-54"/>
      </g>
     </g>
    </g>
    <g id="ytick_5">
     <g id="line2d_8">
      <g>
       <use style="stroke:#000000;stroke-width:1.6;" x="40.325" xlink:href="#mdbccd439f6" y="101.871137"/>
      </g>
     </g>
     <g id="text_8">
      <!-- 8 -->
      <defs>
       <path d="M 31.78125 34.625 
Q 24.75 34.625 20.71875 30.859375 
Q 16.703125 27.09375 16.703125 20.515625 
Q 16.703125 13.921875 20.71875 10.15625 
Q 24.75 6.390625 31.78125 6.390625 
Q 38.8125 6.390625 42.859375 10.171875 
Q 46.921875 13.96875 46.921875 20.515625 
Q 46.921875 27.09375 42.890625 30.859375 
Q 38.875 34.625 31.78125 34.625 
z
M 21.921875 38.8125 
Q 15.578125 40.375 12.03125 44.71875 
Q 8.5 49.078125 8.5 55.328125 
Q 8.5 64.0625 14.71875 69.140625 
Q 20.953125 74.21875 31.78125 74.21875 
Q 42.671875 74.21875 48.875 69.140625 
Q 55.078125 64.0625 55.078125 55.328125 
Q 55.078125 49.078125 51.53125 44.71875 
Q 48 40.375 41.703125 38.8125 
Q 48.828125 37.15625 52.796875 32.3125 
Q 56.78125 27.484375 56.78125 20.515625 
Q 56.78125 9.90625 50.3125 4.234375 
Q 43.84375 -1.421875 31.78125 -1.421875 
Q 19.734375 -1.421875 13.25 4.234375 
Q 6.78125 9.90625 6.78125 20.515625 
Q 6.78125 27.484375 10.78125 32.3125 
Q 14.796875 37.15625 21.921875 38.8125 
z
M 18.3125 54.390625 
Q 18.3125 48.734375 21.84375 45.5625 
Q 25.390625 42.390625 31.78125 42.390625 
Q 38.140625 42.390625 41.71875 45.5625 
Q 45.3125 48.734375 45.3125 54.390625 
Q 45.3125 60.0625 41.71875 63.234375 
Q 38.140625 66.40625 31.78125 66.40625 
Q 25.390625 66.40625 21.84375 63.234375 
Q 18.3125 60.0625 18.3125 54.390625 
z
" id="DejaVuSans-56"/>
      </defs>
      <g transform="translate(12.9 109.469575)scale(0.2 -0.2)">
       <use xlink:href="#DejaVuSans-56"/>
      </g>
     </g>
    </g>
    <g id="ytick_6">
     <g id="line2d_9">
      <g>
       <use style="stroke:#000000;stroke-width:1.6;" x="40.325" xlink:href="#mdbccd439f6" y="47.103505"/>
      </g>
     </g>
     <g id="text_9">
      <!-- 10 -->
      <defs>
       <path d="M 12.40625 8.296875 
L 28.515625 8.296875 
L 28.515625 63.921875 
L 10.984375 60.40625 
L 10.984375 69.390625 
L 28.421875 72.90625 
L 38.28125 72.90625 
L 38.28125 8.296875 
L 54.390625 8.296875 
L 54.390625 0 
L 12.40625 0 
z
" id="DejaVuSans-49"/>
      </defs>
      <g transform="translate(0.175 54.701942)scale(0.2 -0.2)">
       <use xlink:href="#DejaVuSans-49"/>
       <use x="63.623047" xlink:href="#DejaVuSans-48"/>
      </g>
     </g>
    </g>
   </g>
   <g id="line2d_10">
    <path clip-path="url(#p85cf9866c8)" d="M 88.623081 320.903666 
L 92.634332 320.730413 
L 94.639957 320.448614 
L 96.645582 319.849492 
L 98.651208 318.648973 
L 100.656833 316.380469 
L 102.662458 312.341297 
L 104.668084 305.573155 
L 106.673709 294.917683 
L 108.679334 279.185564 
L 110.68496 257.449906 
L 112.690585 229.420408 
L 114.69621 195.790798 
L 120.713086 84.500339 
L 122.718712 54.729814 
L 124.724337 33.318562 
L 126.729962 21.387392 
L 128.735588 18.615713 
L 130.741213 23.545406 
L 132.746838 34.138568 
L 134.752464 48.361765 
L 136.758089 64.599576 
L 140.76934 99.446713 
L 148.791841 170.012259 
L 150.797467 186.244251 
L 152.803092 201.053648 
L 154.808717 214.066541 
L 156.814343 225.120215 
L 158.819968 234.327541 
L 160.825593 242.058167 
L 162.831219 248.834337 
L 170.85372 273.879527 
L 172.859345 279.584424 
L 174.864971 284.482856 
L 176.870596 288.325627 
L 178.876221 291.043353 
L 180.881847 292.742757 
L 182.887472 293.641785 
L 184.893098 293.986641 
L 186.898723 293.992498 
L 192.915599 293.485651 
L 194.921224 293.519548 
L 196.92685 293.770238 
L 202.943726 295.182844 
L 204.949351 295.373316 
L 206.954976 295.19802 
L 208.960602 294.63891 
L 210.966227 293.771304 
L 216.983103 290.660861 
L 218.988728 289.83447 
L 220.994354 289.227923 
L 222.999979 288.882931 
L 225.005604 288.830313 
L 227.01123 289.078164 
L 229.016855 289.595875 
L 233.028106 291.105173 
L 235.033731 291.870444 
L 237.039357 292.505887 
L 239.044982 292.95042 
L 241.050607 293.182362 
L 243.056233 293.212581 
L 247.067483 292.844495 
L 249.073109 292.611188 
L 251.078734 292.515613 
L 253.084359 292.718058 
L 255.089985 293.367254 
L 257.09561 294.55482 
L 259.101235 296.277934 
L 261.106861 298.428835 
L 267.123737 305.448112 
L 269.129362 307.354953 
L 271.134987 308.892567 
L 273.140613 310.083218 
L 275.146238 310.999921 
L 279.157489 312.388718 
L 283.16874 313.707346 
L 287.17999 315.265092 
L 293.196866 317.801794 
L 295.202492 318.506331 
L 297.208117 319.0567 
L 299.213742 319.430316 
L 301.219368 319.631017 
L 303.224993 319.68382 
L 307.236244 319.486975 
L 317.26437 318.62234 
L 319.269996 318.627743 
L 321.275621 318.752154 
L 325.286872 319.305855 
L 331.303748 320.302784 
L 335.314999 320.702701 
L 339.326249 320.873935 
L 343.3375 320.916293 
L 343.3375 320.916293 
" style="fill:none;stroke:#000000;stroke-linecap:square;stroke-width:2;"/>
   </g>
   <g id="line2d_11">
    <path clip-path="url(#p85cf9866c8)" d="M 74.448373 320.916539 
L 78.624825 320.82553 
L 80.713052 320.677507 
L 82.801278 320.370494 
L 84.889504 319.77057 
L 86.977731 318.662046 
L 89.065957 316.722492 
L 91.154183 313.50688 
L 93.242409 308.453822 
L 95.330636 300.927694 
L 97.418862 290.305163 
L 99.507088 276.101301 
L 101.595315 258.111549 
L 103.683541 236.529032 
L 105.771767 211.993724 
L 112.036446 132.317506 
L 114.124672 108.355145 
L 116.212899 87.875251 
L 118.301125 71.919105 
L 120.389351 61.264495 
L 122.477578 56.359902 
L 124.565804 57.25636 
L 126.65403 63.56758 
L 128.742256 74.487131 
L 130.830483 88.870904 
L 135.006935 122.605719 
L 137.095162 139.319466 
L 139.183388 154.545077 
L 141.271614 167.707323 
L 143.35984 178.669064 
L 145.448067 187.701665 
L 147.536293 195.382327 
L 151.712746 209.534888 
L 153.800972 217.151896 
L 155.889198 225.430678 
L 162.153877 251.411914 
L 164.242103 258.928233 
L 166.33033 265.290417 
L 168.418556 270.418635 
L 170.506782 274.408087 
L 172.595009 277.471397 
L 174.683235 279.871506 
L 176.771461 281.863167 
L 180.947914 285.370759 
L 185.124366 288.749872 
L 187.212593 290.333632 
L 189.300819 291.751577 
L 191.389045 292.948991 
L 193.477271 293.910127 
L 195.565498 294.655152 
L 197.653724 295.220988 
L 199.74195 295.642091 
L 203.918403 296.157136 
L 218.535987 297.234976 
L 228.977118 297.109022 
L 231.065345 297.401276 
L 233.153571 297.958451 
L 235.241797 298.808129 
L 237.330024 299.909298 
L 241.506476 302.391134 
L 243.594702 303.503226 
L 245.682929 304.425148 
L 247.771155 305.162993 
L 251.947608 306.292319 
L 260.300513 308.285934 
L 268.653418 310.713226 
L 270.741644 311.075518 
L 272.829871 311.183365 
L 274.918097 311.031376 
L 281.182776 309.933655 
L 283.271002 309.820865 
L 285.359228 310.027114 
L 287.447455 310.583136 
L 289.535681 311.449673 
L 293.712133 313.697167 
L 295.80036 314.820549 
L 297.888586 315.796225 
L 299.976812 316.560718 
L 302.065039 317.093574 
L 304.153265 317.409736 
L 306.241491 317.549217 
L 314.594396 317.619555 
L 316.682623 317.836764 
L 320.859075 318.649976 
L 327.123754 320.064505 
L 331.300207 320.621479 
L 335.476659 320.854883 
L 339.653112 320.918005 
L 339.653112 320.918005 
" style="fill:none;stroke:#000000;stroke-dasharray:7.4,3.2;stroke-dashoffset:0;stroke-width:2;"/>
   </g>
   <g id="line2d_12">
    <path clip-path="url(#p85cf9866c8)" d="M 54.754167 320.928948 
L 63.688888 320.802104 
L 68.156249 320.552919 
L 72.62361 320.054748 
L 77.090971 319.243071 
L 81.558332 318.100521 
L 83.792012 317.387729 
L 86.025693 316.546737 
L 88.259373 315.528949 
L 90.493054 314.268808 
L 92.726734 312.691926 
L 94.960415 310.72719 
L 97.194095 308.318684 
L 99.427775 305.432255 
L 101.661456 302.052551 
L 103.895136 298.169429 
L 106.128817 293.757135 
L 108.362497 288.754153 
L 110.596178 283.054182 
L 112.829858 276.517448 
L 115.063539 269.005614 
L 117.297219 260.433962 
L 119.530899 250.824907 
L 121.76458 240.341961 
L 128.465621 207.073796 
L 130.699302 196.707445 
L 132.932982 187.23108 
L 135.166663 178.807981 
L 137.400343 171.513157 
L 139.634023 165.36543 
L 141.867704 160.348675 
L 144.101384 156.41396 
L 146.335065 153.47235 
L 148.568745 151.397888 
L 150.802426 150.054573 
L 153.036106 149.343773 
L 155.269787 149.25086 
L 157.503467 149.863834 
L 159.737147 151.346939 
L 161.970828 153.873637 
L 164.204508 157.544432 
L 166.438189 162.324435 
L 168.671869 168.028093 
L 173.13923 180.979795 
L 177.606591 194.051176 
L 182.073952 206.238349 
L 193.242354 235.287098 
L 195.476034 240.814554 
L 197.709715 246.010972 
L 199.943395 250.771768 
L 202.177076 255.043598 
L 204.410756 258.836707 
L 206.644437 262.219187 
L 208.878117 265.296063 
L 213.345478 270.9687 
L 222.2802 281.815278 
L 226.747561 286.856458 
L 231.214922 291.498186 
L 235.682282 295.826377 
L 240.149643 299.886864 
L 244.617004 303.582911 
L 249.084365 306.824587 
L 253.551726 309.641727 
L 258.019087 312.052694 
L 260.252767 313.068632 
L 262.486448 313.923315 
L 264.720128 314.59577 
L 266.953809 315.082051 
L 269.187489 315.40305 
L 278.122211 316.1937 
L 280.355891 316.576215 
L 284.823252 317.682282 
L 289.290613 318.938043 
L 293.757974 319.911928 
L 295.991654 320.21894 
L 300.459015 320.489711 
L 304.926376 320.456595 
L 313.861098 320.322468 
L 320.562139 320.533616 
L 329.496861 320.847549 
L 338.431583 320.92998 
L 338.431583 320.92998 
" style="fill:none;stroke:#000000;stroke-dasharray:2,3.3;stroke-dashoffset:0;stroke-width:2;"/>
   </g>
   <g id="patch_3">
    <path d="M 40.325 320.941667 
L 40.325 3.5 
" style="fill:none;stroke:#000000;stroke-linecap:square;stroke-linejoin:miter;stroke-width:0.8;"/>
   </g>
   <g id="patch_4">
    <path d="M 40.325 320.941667 
L 357.766667 320.941667 
" style="fill:none;stroke:#000000;stroke-linecap:square;stroke-linejoin:miter;stroke-width:0.8;"/>
   </g>
  </g>
  <g id="axes_2">
   <g id="patch_5">
    <path d="M 392.441667 320.941667 
L 709.883333 320.941667 
L 709.883333 3.5 
L 392.441667 3.5 
z
" style="fill:#ffffff;"/>
   </g>
   <g id="matplotlib.axis_3">
    <g id="xtick_4">
     <g id="line2d_13">
      <g>
       <use style="stroke:#000000;stroke-width:1.6;" x="410.129063" xlink:href="#m40b2d1e6fe" y="320.941667"/>
      </g>
     </g>
     <g id="text_10">
      <!-- −0.4 -->
      <defs>
       <path d="M 10.59375 35.5 
L 73.1875 35.5 
L 73.1875 27.203125 
L 10.59375 27.203125 
z
" id="DejaVuSans-8722"/>
      </defs>
      <g transform="translate(385.846251 350.838542)scale(0.2 -0.2)">
       <use xlink:href="#DejaVuSans-8722"/>
       <use x="83.789062" xlink:href="#DejaVuSans-48"/>
       <use x="147.412109" xlink:href="#DejaVuSans-46"/>
       <use x="179.199219" xlink:href="#DejaVuSans-52"/>
      </g>
     </g>
    </g>
    <g id="xtick_5">
     <g id="line2d_14">
      <g>
       <use style="stroke:#000000;stroke-width:1.6;" x="481.97536" xlink:href="#m40b2d1e6fe" y="320.941667"/>
      </g>
     </g>
     <g id="text_11">
      <!-- −0.2 -->
      <g transform="translate(457.692548 350.838542)scale(0.2 -0.2)">
       <use xlink:href="#DejaVuSans-8722"/>
       <use x="83.789062" xlink:href="#DejaVuSans-48"/>
       <use x="147.412109" xlink:href="#DejaVuSans-46"/>
       <use x="179.199219" xlink:href="#DejaVuSans-50"/>
      </g>
     </g>
    </g>
    <g id="xtick_6">
     <g id="line2d_15">
      <g>
       <use style="stroke:#000000;stroke-width:1.6;" x="553.821657" xlink:href="#m40b2d1e6fe" y="320.941667"/>
      </g>
     </g>
     <g id="text_12">
      <!-- 0.0 -->
      <g transform="translate(537.918532 350.838542)scale(0.2 -0.2)">
       <use xlink:href="#DejaVuSans-48"/>
       <use x="63.623047" xlink:href="#DejaVuSans-46"/>
       <use x="95.410156" xlink:href="#DejaVuSans-48"/>
      </g>
     </g>
    </g>
    <g id="xtick_7">
     <g id="line2d_16">
      <g>
       <use style="stroke:#000000;stroke-width:1.6;" x="625.667954" xlink:href="#m40b2d1e6fe" y="320.941667"/>
      </g>
     </g>
     <g id="text_13">
      <!-- 0.2 -->
      <g transform="translate(609.764829 350.838542)scale(0.2 -0.2)">
       <use xlink:href="#DejaVuSans-48"/>
       <use x="63.623047" xlink:href="#DejaVuSans-46"/>
       <use x="95.410156" xlink:href="#DejaVuSans-50"/>
      </g>
     </g>
    </g>
    <g id="xtick_8">
     <g id="line2d_17">
      <g>
       <use style="stroke:#000000;stroke-width:1.6;" x="697.514251" xlink:href="#m40b2d1e6fe" y="320.941667"/>
      </g>
     </g>
     <g id="text_14">
      <!-- 0.4 -->
      <g transform="translate(681.611126 350.838542)scale(0.2 -0.2)">
       <use xlink:href="#DejaVuSans-48"/>
       <use x="63.623047" xlink:href="#DejaVuSans-46"/>
       <use x="95.410156" xlink:href="#DejaVuSans-52"/>
      </g>
     </g>
    </g>
   </g>
   <g id="matplotlib.axis_4">
    <g id="ytick_7">
     <g id="line2d_18">
      <g>
       <use style="stroke:#000000;stroke-width:1.6;" x="392.441667" xlink:href="#mdbccd439f6" y="320.941667"/>
      </g>
     </g>
     <g id="text_15">
      <!-- 0 -->
      <g transform="translate(365.016667 328.540104)scale(0.2 -0.2)">
       <use xlink:href="#DejaVuSans-48"/>
      </g>
     </g>
    </g>
    <g id="ytick_8">
     <g id="line2d_19">
      <g>
       <use style="stroke:#000000;stroke-width:1.6;" x="392.441667" xlink:href="#mdbccd439f6" y="271.078703"/>
      </g>
     </g>
     <g id="text_16">
      <!-- 1 -->
      <g transform="translate(365.016667 278.677141)scale(0.2 -0.2)">
       <use xlink:href="#DejaVuSans-49"/>
      </g>
     </g>
    </g>
    <g id="ytick_9">
     <g id="line2d_20">
      <g>
       <use style="stroke:#000000;stroke-width:1.6;" x="392.441667" xlink:href="#mdbccd439f6" y="221.21574"/>
      </g>
     </g>
     <g id="text_17">
      <!-- 2 -->
      <g transform="translate(365.016667 228.814177)scale(0.2 -0.2)">
       <use xlink:href="#DejaVuSans-50"/>
      </g>
     </g>
    </g>
    <g id="ytick_10">
     <g id="line2d_21">
      <g>
       <use style="stroke:#000000;stroke-width:1.6;" x="392.441667" xlink:href="#mdbccd439f6" y="171.352776"/>
      </g>
     </g>
     <g id="text_18">
      <!-- 3 -->
      <defs>
       <path d="M 40.578125 39.3125 
Q 47.65625 37.796875 51.625 33 
Q 55.609375 28.21875 55.609375 21.1875 
Q 55.609375 10.40625 48.1875 4.484375 
Q 40.765625 -1.421875 27.09375 -1.421875 
Q 22.515625 -1.421875 17.65625 -0.515625 
Q 12.796875 0.390625 7.625 2.203125 
L 7.625 11.71875 
Q 11.71875 9.328125 16.59375 8.109375 
Q 21.484375 6.890625 26.8125 6.890625 
Q 36.078125 6.890625 40.9375 10.546875 
Q 45.796875 14.203125 45.796875 21.1875 
Q 45.796875 27.640625 41.28125 31.265625 
Q 36.765625 34.90625 28.71875 34.90625 
L 20.21875 34.90625 
L 20.21875 43.015625 
L 29.109375 43.015625 
Q 36.375 43.015625 40.234375 45.921875 
Q 44.09375 48.828125 44.09375 54.296875 
Q 44.09375 59.90625 40.109375 62.90625 
Q 36.140625 65.921875 28.71875 65.921875 
Q 24.65625 65.921875 20.015625 65.03125 
Q 15.375 64.15625 9.8125 62.3125 
L 9.8125 71.09375 
Q 15.4375 72.65625 20.34375 73.4375 
Q 25.25 74.21875 29.59375 74.21875 
Q 40.828125 74.21875 47.359375 69.109375 
Q 53.90625 64.015625 53.90625 55.328125 
Q 53.90625 49.265625 50.4375 45.09375 
Q 46.96875 40.921875 40.578125 39.3125 
z
" id="DejaVuSans-51"/>
      </defs>
      <g transform="translate(365.016667 178.951214)scale(0.2 -0.2)">
       <use xlink:href="#DejaVuSans-51"/>
      </g>
     </g>
    </g>
    <g id="ytick_11">
     <g id="line2d_22">
      <g>
       <use style="stroke:#000000;stroke-width:1.6;" x="392.441667" xlink:href="#mdbccd439f6" y="121.489813"/>
      </g>
     </g>
     <g id="text_19">
      <!-- 4 -->
      <g transform="translate(365.016667 129.08825)scale(0.2 -0.2)">
       <use xlink:href="#DejaVuSans-52"/>
      </g>
     </g>
    </g>
    <g id="ytick_12">
     <g id="line2d_23">
      <g>
       <use style="stroke:#000000;stroke-width:1.6;" x="392.441667" xlink:href="#mdbccd439f6" y="71.626849"/>
      </g>
     </g>
     <g id="text_20">
      <!-- 5 -->
      <defs>
       <path d="M 10.796875 72.90625 
L 49.515625 72.90625 
L 49.515625 64.59375 
L 19.828125 64.59375 
L 19.828125 46.734375 
Q 21.96875 47.46875 24.109375 47.828125 
Q 26.265625 48.1875 28.421875 48.1875 
Q 40.625 48.1875 47.75 41.5 
Q 54.890625 34.8125 54.890625 23.390625 
Q 54.890625 11.625 47.5625 5.09375 
Q 40.234375 -1.421875 26.90625 -1.421875 
Q 22.3125 -1.421875 17.546875 -0.640625 
Q 12.796875 0.140625 7.71875 1.703125 
L 7.71875 11.625 
Q 12.109375 9.234375 16.796875 8.0625 
Q 21.484375 6.890625 26.703125 6.890625 
Q 35.15625 6.890625 40.078125 11.328125 
Q 45.015625 15.765625 45.015625 23.390625 
Q 45.015625 31 40.078125 35.4375 
Q 35.15625 39.890625 26.703125 39.890625 
Q 22.75 39.890625 18.8125 39.015625 
Q 14.890625 38.140625 10.796875 36.28125 
z
" id="DejaVuSans-53"/>
      </defs>
      <g transform="translate(365.016667 79.225287)scale(0.2 -0.2)">
       <use xlink:href="#DejaVuSans-53"/>
      </g>
     </g>
    </g>
    <g id="ytick_13">
     <g id="line2d_24">
      <g>
       <use style="stroke:#000000;stroke-width:1.6;" x="392.441667" xlink:href="#mdbccd439f6" y="21.763886"/>
      </g>
     </g>
     <g id="text_21">
      <!-- 6 -->
      <g transform="translate(365.016667 29.362323)scale(0.2 -0.2)">
       <use xlink:href="#DejaVuSans-54"/>
      </g>
     </g>
    </g>
   </g>
   <g id="line2d_25">
    <path clip-path="url(#p24b8661ee3)" d="M 0 0 
" style="fill:none;stroke:#000000;stroke-linecap:square;stroke-width:2;"/>
   </g>
   <g id="line2d_26">
    <path clip-path="url(#p24b8661ee3)" d="M 0 0 
" style="fill:none;stroke:#000000;stroke-dasharray:7.4,3.2;stroke-dashoffset:0;stroke-width:2;"/>
   </g>
   <g id="patch_6">
    <path style="fill:none;stroke:#000000;stroke-linecap:square;stroke-linejoin:miter;stroke-width:0.8;"/>
   </g>
   <g id="patch_7">
    <path style="fill:none;stroke:#000000;stroke-linecap:square;stroke-linejoin:miter;stroke-width:0.8;"/>
   </g>
  </g>
 </g>
 <defs>
  <clipPath id="p85cf9866c8">
   <rect height="317.441667" width="317.441667" x="40.325" y="3.5"/>
  </clipPath>
  <clipPath id="p24b8661ee3">
   <rect height="317.441667" width="317.441667" x="392.441667" y="3.5"/>
  </clipPath>
 </defs>
</svg>
