<?xml version="1.0" encoding="utf-8" standalone="no"?>
<!DOCTYPE svg PUBLIC "-//W3C//DTD SVG 1.1//EN"
  "http://www.w3.org/Graphics/SVG/1.1/DTD/svg11.dtd">
<!-- Created with matplotlib (https://matplotlib.org/) -->
<svg height="358.891667pt" version="1.1" viewBox="0 0 352.766667 358.891667" width="352.766667pt" xmlns="http://www.w3.org/2000/svg" xmlns:xlink="http://www.w3.org/1999/xlink">
 <defs>
  <style type="text/css">
*{stroke-linecap:butt;stroke-linejoin:round;}
  </style>
 </defs>
 <g id="figure_1">
  <g id="patch_1">
   <path d="M 0 358.891667 
L 352.766667 358.891667 
L 352.766667 0 
L 0 0 
z
" style="fill:#ffffff;"/>
  </g>
  <g id="axes_1">
   <g id="patch_2">
    <path d="M 27.575 325.191667 
L 349.266667 325.191667 
L 349.266667 3.5 
L 27.575 3.5 
z
" style="fill:#ffffff;"/>
   </g>
   <g id="matplotlib.axis_1">
    <g id="xtick_1">
     <g id="line2d_1">
      <defs>
       <path d="M 0 0 
L 0 3.5 
" id="m622ec08a96" style="stroke:#000000;stroke-width:1.6;"/>
      </defs>
      <g>
       <use style="stroke:#000000;stroke-width:1.6;" x="70.251311" xlink:href="#m622ec08a96" y="325.191667"/>
      </g>
     </g>
     <g id="text_1">
      <!-- 0.0 -->
      <defs>
       <path d="M 31.78125 66.40625 
Q 24.171875 66.40625 20.328125 58.90625 
Q 16.5 51.421875 16.5 36.375 
Q 16.5 21.390625 20.328125 13.890625 
Q 24.171875 6.390625 31.78125 6.390625 
Q 39.453125 6.390625 43.28125 13.890625 
Q 47.125 21.390625 47.125 36.375 
Q 47.125 51.421875 43.28125 58.90625 
Q 39.453125 66.40625 31.78125 66.40625 
z
M 31.78125 74.21875 
Q 44.046875 74.21875 50.515625 64.515625 
Q 56.984375 54.828125 56.984375 36.375 
Q 56.984375 17.96875 50.515625 8.265625 
Q 44.046875 -1.421875 31.78125 -1.421875 
Q 19.53125 -1.421875 13.0625 8.265625 
Q 6.59375 17.96875 6.59375 36.375 
Q 6.59375 54.828125 13.0625 64.515625 
Q 19.53125 74.21875 31.78125 74.21875 
z
" id="DejaVuSans-48"/>
       <path d="M 10.6875 12.40625 
L 21 12.40625 
L 21 0 
L 10.6875 0 
z
" id="DejaVuSans-46"/>
      </defs>
      <g transform="translate(54.348186 355.088542)scale(0.2 -0.2)">
       <use xlink:href="#DejaVuSans-48"/>
       <use x="63.623047" xlink:href="#DejaVuSans-46"/>
       <use x="95.410156" xlink:href="#DejaVuSans-48"/>
      </g>
     </g>
    </g>
    <g id="xtick_2">
     <g id="line2d_2">
      <g>
       <use style="stroke:#000000;stroke-width:1.6;" x="188.420833" xlink:href="#m622ec08a96" y="325.191667"/>
      </g>
     </g>
     <g id="text_2">
      <!-- 0.5 -->
      <defs>
       <path d="M 10.796875 72.90625 
L 49.515625 72.90625 
L 49.515625 64.59375 
L 19.828125 64.59375 
L 19.828125 46.734375 
Q 21.96875 47.46875 24.109375 47.828125 
Q 26.265625 48.1875 28.421875 48.1875 
Q 40.625 48.1875 47.75 41.5 
Q 54.890625 34.8125 54.890625 23.390625 
Q 54.890625 11.625 47.5625 5.09375 
Q 40.234375 -1.421875 26.90625 -1.421875 
Q 22.3125 -1.421875 17.546875 -0.640625 
Q 12.796875 0.140625 7.71875 1.703125 
L 7.71875 11.625 
Q 12.109375 9.234375 16.796875 8.0625 
Q 21.484375 6.890625 26.703125 6.890625 
Q 35.15625 6.890625 40.078125 11.328125 
Q 45.015625 15.765625 45.015625 23.390625 
Q 45.015625 31 40.078125 35.4375 
Q 35.15625 39.890625 26.703125 39.890625 
Q 22.75 39.890625 18.8125 39.015625 
Q 14.890625 38.140625 10.796875 36.28125 
z
" id="DejaVuSans-53"/>
      </defs>
      <g transform="translate(172.517708 355.088542)scale(0.2 -0.2)">
       <use xlink:href="#DejaVuSans-48"/>
       <use x="63.623047" xlink:href="#DejaVuSans-46"/>
       <use x="95.410156" xlink:href="#DejaVuSans-53"/>
      </g>
     </g>
    </g>
    <g id="xtick_3">
     <g id="line2d_3">
      <g>
       <use style="stroke:#000000;stroke-width:1.6;" x="306.590356" xlink:href="#m622ec08a96" y="325.191667"/>
      </g>
     </g>
     <g id="text_3">
      <!-- 1.0 -->
      <defs>
       <path d="M 12.40625 8.296875 
L 28.515625 8.296875 
L 28.515625 63.921875 
L 10.984375 60.40625 
L 10.984375 69.390625 
L 28.421875 72.90625 
L 38.28125 72.90625 
L 38.28125 8.296875 
L 54.390625 8.296875 
L 54.390625 0 
L 12.40625 0 
z
" id="DejaVuSans-49"/>
      </defs>
      <g transform="translate(290.687231 355.088542)scale(0.2 -0.2)">
       <use xlink:href="#DejaVuSans-49"/>
       <use x="63.623047" xlink:href="#DejaVuSans-46"/>
       <use x="95.410156" xlink:href="#DejaVuSans-48"/>
      </g>
     </g>
    </g>
   </g>
   <g id="matplotlib.axis_2">
    <g id="ytick_1">
     <g id="line2d_4">
      <defs>
       <path d="M 0 0 
L -3.5 0 
" id="m3a18c6a7e2" style="stroke:#000000;stroke-width:1.6;"/>
      </defs>
      <g>
       <use style="stroke:#000000;stroke-width:1.6;" x="27.575" xlink:href="#m3a18c6a7e2" y="325.191667"/>
      </g>
     </g>
     <g id="text_4">
      <!-- 0 -->
      <g transform="translate(0.15 332.790104)scale(0.2 -0.2)">
       <use xlink:href="#DejaVuSans-48"/>
      </g>
     </g>
    </g>
    <g id="ytick_2">
     <g id="line2d_5">
      <g>
       <use style="stroke:#000000;stroke-width:1.6;" x="27.575" xlink:href="#m3a18c6a7e2" y="248.797156"/>
      </g>
     </g>
     <g id="text_5">
      <!-- 1 -->
      <g transform="translate(0.15 256.395593)scale(0.2 -0.2)">
       <use xlink:href="#DejaVuSans-49"/>
      </g>
     </g>
    </g>
    <g id="ytick_3">
     <g id="line2d_6">
      <g>
       <use style="stroke:#000000;stroke-width:1.6;" x="27.575" xlink:href="#m3a18c6a7e2" y="172.402644"/>
      </g>
     </g>
     <g id="text_6">
      <!-- 2 -->
      <defs>
       <path d="M 19.1875 8.296875 
L 53.609375 8.296875 
L 53.609375 0 
L 7.328125 0 
L 7.328125 8.296875 
Q 12.9375 14.109375 22.625 23.890625 
Q 32.328125 33.6875 34.8125 36.53125 
Q 39.546875 41.84375 41.421875 45.53125 
Q 43.3125 49.21875 43.3125 52.78125 
Q 43.3125 58.59375 39.234375 62.25 
Q 35.15625 65.921875 28.609375 65.921875 
Q 23.96875 65.921875 18.8125 64.3125 
Q 13.671875 62.703125 7.8125 59.421875 
L 7.8125 69.390625 
Q 13.765625 71.78125 18.9375 73 
Q 24.125 74.21875 28.421875 74.21875 
Q 39.75 74.21875 46.484375 68.546875 
Q 53.21875 62.890625 53.21875 53.421875 
Q 53.21875 48.921875 51.53125 44.890625 
Q 49.859375 40.875 45.40625 35.40625 
Q 44.1875 33.984375 37.640625 27.21875 
Q 31.109375 20.453125 19.1875 8.296875 
z
" id="DejaVuSans-50"/>
      </defs>
      <g transform="translate(0.15 180.001082)scale(0.2 -0.2)">
       <use xlink:href="#DejaVuSans-50"/>
      </g>
     </g>
    </g>
    <g id="ytick_4">
     <g id="line2d_7">
      <g>
       <use style="stroke:#000000;stroke-width:1.6;" x="27.575" xlink:href="#m3a18c6a7e2" y="96.008133"/>
      </g>
     </g>
     <g id="text_7">
      <!-- 3 -->
      <defs>
       <path d="M 40.578125 39.3125 
Q 47.65625 37.796875 51.625 33 
Q 55.609375 28.21875 55.609375 21.1875 
Q 55.609375 10.40625 48.1875 4.484375 
Q 40.765625 -1.421875 27.09375 -1.421875 
Q 22.515625 -1.421875 17.65625 -0.515625 
Q 12.796875 0.390625 7.625 2.203125 
L 7.625 11.71875 
Q 11.71875 9.328125 16.59375 8.109375 
Q 21.484375 6.890625 26.8125 6.890625 
Q 36.078125 6.890625 40.9375 10.546875 
Q 45.796875 14.203125 45.796875 21.1875 
Q 45.796875 27.640625 41.28125 31.265625 
Q 36.765625 34.90625 28.71875 34.90625 
L 20.21875 34.90625 
L 20.21875 43.015625 
L 29.109375 43.015625 
Q 36.375 43.015625 40.234375 45.921875 
Q 44.09375 48.828125 44.09375 54.296875 
Q 44.09375 59.90625 40.109375 62.90625 
Q 36.140625 65.921875 28.71875 65.921875 
Q 24.65625 65.921875 20.015625 65.03125 
Q 15.375 64.15625 9.8125 62.3125 
L 9.8125 71.09375 
Q 15.4375 72.65625 20.34375 73.4375 
Q 25.25 74.21875 29.59375 74.21875 
Q 40.828125 74.21875 47.359375 69.109375 
Q 53.90625 64.015625 53.90625 55.328125 
Q 53.90625 49.265625 50.4375 45.09375 
Q 46.96875 40.921875 40.578125 39.3125 
z
" id="DejaVuSans-51"/>
      </defs>
      <g transform="translate(0.15 103.606571)scale(0.2 -0.2)">
       <use xlink:href="#DejaVuSans-51"/>
      </g>
     </g>
    </g>
    <g id="ytick_5">
     <g id="line2d_8">
      <g>
       <use style="stroke:#000000;stroke-width:1.6;" x="27.575" xlink:href="#m3a18c6a7e2" y="19.613622"/>
      </g>
     </g>
     <g id="text_8">
      <!-- 4 -->
      <defs>
       <path d="M 37.796875 64.3125 
L 12.890625 25.390625 
L 37.796875 25.390625 
z
M 35.203125 72.90625 
L 47.609375 72.90625 
L 47.609375 25.390625 
L 58.015625 25.390625 
L 58.015625 17.1875 
L 47.609375 17.1875 
L 47.609375 0 
L 37.796875 0 
L 37.796875 17.1875 
L 4.890625 17.1875 
L 4.890625 26.703125 
z
" id="DejaVuSans-52"/>
      </defs>
      <g transform="translate(0.15 27.21206)scale(0.2 -0.2)">
       <use xlink:href="#DejaVuSans-52"/>
      </g>
     </g>
    </g>
   </g>
   <g id="line2d_9">
    <path clip-path="url(#pe5fcee856d)" d="M 44.718099 325.056981 
L 46.737862 324.919202 
L 48.757626 324.640836 
L 50.777389 324.117115 
L 52.797152 323.183706 
L 54.816915 321.600686 
L 56.836678 319.042069 
L 58.856441 315.097503 
L 60.876205 309.292603 
L 62.895968 301.131681 
L 64.915731 290.161368 
L 66.935494 276.047006 
L 68.955257 258.648053 
L 70.97502 238.076634 
L 72.994784 214.72622 
L 77.03431 162.592607 
L 81.073836 109.981392 
L 83.093599 86.351947 
L 85.113363 65.951197 
L 87.133126 49.652592 
L 89.152889 38.057829 
L 91.172652 31.431413 
L 93.192415 29.671368 
L 95.212178 32.329485 
L 97.231942 38.683973 
L 99.251705 47.852598 
L 101.271468 58.921543 
L 105.310994 83.599637 
L 109.350521 108.142879 
L 113.390047 130.627746 
L 115.40981 140.946973 
L 117.429573 150.641693 
L 119.449336 159.696009 
L 121.4691 168.066305 
L 123.488863 175.680465 
L 125.508626 182.454674 
L 127.528389 188.326401 
L 129.548152 193.294755 
L 131.567915 197.453502 
L 133.587679 201.001692 
L 137.627205 207.438536 
L 139.646968 210.938725 
L 141.666731 214.925529 
L 143.686494 219.470744 
L 145.706258 224.508872 
L 151.765547 240.569591 
L 153.78531 245.502138 
L 155.805073 250.001454 
L 157.824837 254.075762 
L 161.864363 261.366979 
L 165.903889 268.444891 
L 169.943415 275.945805 
L 173.982942 283.560495 
L 176.002705 287.13957 
L 178.022468 290.416811 
L 180.042231 293.312633 
L 182.061994 295.786385 
L 184.081758 297.837445 
L 186.101521 299.500031 
L 188.121284 300.834412 
L 190.141047 301.917101 
L 194.180573 303.661181 
L 198.2201 305.350651 
L 202.259626 307.378099 
L 212.358442 313.082322 
L 214.378205 313.886022 
L 216.397968 314.475968 
L 218.417731 314.860542 
L 222.457258 315.206874 
L 226.496784 315.509544 
L 228.516547 315.837715 
L 230.53631 316.343111 
L 232.556074 317.025149 
L 236.5956 318.740208 
L 240.635126 320.421868 
L 242.654889 321.065141 
L 244.674653 321.518653 
L 246.694416 321.778605 
L 248.714179 321.872843 
L 258.812995 321.803524 
L 262.852521 322.159151 
L 268.911811 322.754949 
L 279.010626 323.507831 
L 291.129205 324.855645 
L 297.188495 325.108607 
L 301.228021 325.115856 
L 301.228021 325.115856 
" style="fill:none;stroke:#000000;stroke-linecap:square;stroke-width:2;"/>
   </g>
   <g id="line2d_10">
    <path clip-path="url(#pe5fcee856d)" d="M 42.197348 325.049607 
L 44.500081 324.900754 
L 46.802813 324.603952 
L 49.105545 324.053501 
L 51.408277 323.089203 
L 53.711009 321.485738 
L 56.013741 318.948483 
L 58.316473 315.1201 
L 60.619205 309.601298 
L 62.921937 301.987305 
L 65.224669 291.91913 
L 67.527401 279.145688 
L 69.830133 263.589277 
L 72.132865 245.402768 
L 74.435597 225.0036 
L 83.646525 137.41217 
L 85.949257 118.809849 
L 88.251989 103.153244 
L 90.554721 90.895666 
L 92.857453 82.256 
L 95.160186 77.248538 
L 97.462918 75.718631 
L 99.76565 77.370273 
L 102.068382 81.783682 
L 104.371114 88.431353 
L 106.673846 96.704634 
L 111.27931 115.576123 
L 113.582042 125.035361 
L 115.884774 133.973246 
L 118.187506 142.219015 
L 120.490238 149.79166 
L 125.095702 163.65956 
L 129.701166 177.333803 
L 138.912094 205.540657 
L 141.214826 212.028532 
L 143.517558 218.061292 
L 145.820291 223.634626 
L 148.123023 228.792371 
L 150.425755 233.590564 
L 152.728487 238.06622 
L 155.031219 242.224066 
L 157.333951 246.044754 
L 159.636683 249.507964 
L 161.939415 252.61792 
L 164.242147 255.419236 
L 168.847611 260.45783 
L 173.453075 265.434756 
L 178.058539 270.80714 
L 184.966735 279.116375 
L 189.572199 284.143149 
L 191.874931 286.394903 
L 194.177663 288.464998 
L 196.480395 290.36436 
L 201.08586 293.732379 
L 205.691324 296.690361 
L 219.507716 305.008775 
L 224.11318 308.131552 
L 231.021376 312.938925 
L 233.324108 314.389823 
L 235.62684 315.687053 
L 237.929572 316.805896 
L 240.232304 317.74412 
L 242.535036 318.520134 
L 247.1405 319.716905 
L 251.745965 320.645815 
L 258.654161 321.75882 
L 265.562357 322.588593 
L 274.773285 323.515554 
L 279.378749 323.843889 
L 286.286945 324.052264 
L 293.195141 323.984128 
L 307.011534 323.584913 
L 311.616998 323.840147 
L 325.43339 324.983464 
L 332.341586 325.130655 
L 334.644318 325.114646 
L 334.644318 325.114646 
" style="fill:none;stroke:#000000;stroke-dasharray:7.4,3.2;stroke-dashoffset:0;stroke-width:2;"/>
   </g>
   <g id="line2d_11">
    <path clip-path="url(#pe5fcee856d)" d="M 46.920919 325.124544 
L 50.882227 324.864421 
L 52.86288 324.501567 
L 54.843534 323.809456 
L 56.824188 322.563511 
L 58.804842 320.443477 
L 60.785495 317.030389 
L 62.766149 311.826182 
L 64.746803 304.30229 
L 66.727457 293.976252 
L 68.708111 280.50529 
L 70.688764 263.776196 
L 72.669418 243.965947 
L 74.650072 221.550904 
L 78.611379 171.950427 
L 82.572687 121.824097 
L 84.553341 98.524556 
L 86.533995 77.225433 
L 88.514648 58.461619 
L 90.495302 42.758901 
L 92.475956 30.637074 
L 94.45661 22.554941 
L 96.437263 18.817118 
L 98.417917 19.484665 
L 100.398571 24.329981 
L 102.379225 32.854193 
L 104.359878 44.356869 
L 106.340532 58.029223 
L 110.30184 88.602644 
L 114.263147 118.664071 
L 116.243801 132.121729 
L 118.224455 144.115509 
L 120.205109 154.591614 
L 122.185762 163.710019 
L 124.166416 171.801271 
L 128.127724 186.510308 
L 134.069685 208.048938 
L 136.050339 214.68967 
L 138.030993 220.60972 
L 140.011646 225.643567 
L 141.9923 229.807646 
L 143.972954 233.299753 
L 147.934261 239.562206 
L 149.914915 242.948331 
L 151.895569 246.740124 
L 153.876223 250.934489 
L 159.818184 264.270848 
L 161.798838 268.212986 
L 163.779492 271.59798 
L 165.760145 274.358269 
L 167.740799 276.51781 
L 169.721453 278.175051 
L 171.702107 279.472568 
L 179.624722 283.949126 
L 181.605376 285.435747 
L 183.586029 287.180731 
L 187.547337 291.293124 
L 191.508644 295.507101 
L 193.489298 297.319253 
L 195.469952 298.805016 
L 197.450606 299.928053 
L 199.43126 300.702675 
L 201.411913 301.187572 
L 207.353875 301.990027 
L 209.334528 302.479847 
L 211.315182 303.265074 
L 213.295836 304.382646 
L 215.27649 305.799667 
L 223.199105 312.194902 
L 225.179759 313.421983 
L 227.160412 314.421808 
L 229.141066 315.238091 
L 233.102374 316.567183 
L 239.044335 318.304635 
L 243.005643 319.263164 
L 252.908911 321.468477 
L 256.870219 322.393799 
L 260.831526 323.083637 
L 264.792834 323.472118 
L 282.618718 324.563893 
L 288.560679 324.974311 
L 294.502641 325.144415 
L 298.463948 325.155691 
L 298.463948 325.155691 
" style="fill:none;stroke:#000000;stroke-dasharray:2,3.3;stroke-dashoffset:0;stroke-width:2;"/>
   </g>
   <g id="patch_3">
    <path d="M 27.575 325.191667 
L 27.575 3.5 
" style="fill:none;stroke:#000000;stroke-linecap:square;stroke-linejoin:miter;stroke-width:0.8;"/>
   </g>
   <g id="patch_4">
    <path d="M 27.575 325.191667 
L 349.266667 325.191667 
" style="fill:none;stroke:#000000;stroke-linecap:square;stroke-linejoin:miter;stroke-width:0.8;"/>
   </g>
  </g>
  <g id="axes_2">
   <g id="patch_5">
    <path d="M 383.941667 325.191667 
L 705.633333 325.191667 
L 705.633333 3.5 
L 383.941667 3.5 
z
" style="fill:#ffffff;"/>
   </g>
   <g id="matplotlib.axis_3">
    <g id="xtick_4">
     <g id="line2d_12">
      <g>
       <use style="stroke:#000000;stroke-width:1.6;" x="388.238945" xlink:href="#m622ec08a96" y="325.191667"/>
      </g>
     </g>
     <g id="text_9">
      <!-- −1.0 -->
      <defs>
       <path d="M 10.59375 35.5 
L 73.1875 35.5 
L 73.1875 27.203125 
L 10.59375 27.203125 
z
" id="DejaVuSans-8722"/>
      </defs>
      <g transform="translate(363.956133 355.088542)scale(0.2 -0.2)">
       <use xlink:href="#DejaVuSans-8722"/>
       <use x="83.789062" xlink:href="#DejaVuSans-49"/>
       <use x="147.412109" xlink:href="#DejaVuSans-46"/>
       <use x="179.199219" xlink:href="#DejaVuSans-48"/>
      </g>
     </g>
    </g>
    <g id="xtick_5">
     <g id="line2d_13">
      <g>
       <use style="stroke:#000000;stroke-width:1.6;" x="472.565206" xlink:href="#m622ec08a96" y="325.191667"/>
      </g>
     </g>
     <g id="text_10">
      <!-- −0.5 -->
      <g transform="translate(448.282394 355.088542)scale(0.2 -0.2)">
       <use xlink:href="#DejaVuSans-8722"/>
       <use x="83.789062" xlink:href="#DejaVuSans-48"/>
       <use x="147.412109" xlink:href="#DejaVuSans-46"/>
       <use x="179.199219" xlink:href="#DejaVuSans-53"/>
      </g>
     </g>
    </g>
    <g id="xtick_6">
     <g id="line2d_14">
      <g>
       <use style="stroke:#000000;stroke-width:1.6;" x="556.891467" xlink:href="#m622ec08a96" y="325.191667"/>
      </g>
     </g>
     <g id="text_11">
      <!-- 0.0 -->
      <g transform="translate(540.988342 355.088542)scale(0.2 -0.2)">
       <use xlink:href="#DejaVuSans-48"/>
       <use x="63.623047" xlink:href="#DejaVuSans-46"/>
       <use x="95.410156" xlink:href="#DejaVuSans-48"/>
      </g>
     </g>
    </g>
    <g id="xtick_7">
     <g id="line2d_15">
      <g>
       <use style="stroke:#000000;stroke-width:1.6;" x="641.217729" xlink:href="#m622ec08a96" y="325.191667"/>
      </g>
     </g>
     <g id="text_12">
      <!-- 0.5 -->
      <g transform="translate(625.314604 355.088542)scale(0.2 -0.2)">
       <use xlink:href="#DejaVuSans-48"/>
       <use x="63.623047" xlink:href="#DejaVuSans-46"/>
       <use x="95.410156" xlink:href="#DejaVuSans-53"/>
      </g>
     </g>
    </g>
   </g>
   <g id="matplotlib.axis_4">
    <g id="ytick_6">
     <g id="line2d_16">
      <g>
       <use style="stroke:#000000;stroke-width:1.6;" x="383.941667" xlink:href="#m3a18c6a7e2" y="325.191667"/>
      </g>
     </g>
     <g id="text_13">
      <!-- 0 -->
      <g transform="translate(356.516667 332.790104)scale(0.2 -0.2)">
       <use xlink:href="#DejaVuSans-48"/>
      </g>
     </g>
    </g>
    <g id="ytick_7">
     <g id="line2d_17">
      <g>
       <use style="stroke:#000000;stroke-width:1.6;" x="383.941667" xlink:href="#m3a18c6a7e2" y="264.480592"/>
      </g>
     </g>
     <g id="text_14">
      <!-- 1 -->
      <g transform="translate(356.516667 272.079029)scale(0.2 -0.2)">
       <use xlink:href="#DejaVuSans-49"/>
      </g>
     </g>
    </g>
    <g id="ytick_8">
     <g id="line2d_18">
      <g>
       <use style="stroke:#000000;stroke-width:1.6;" x="383.941667" xlink:href="#m3a18c6a7e2" y="203.769517"/>
      </g>
     </g>
     <g id="text_15">
      <!-- 2 -->
      <g transform="translate(356.516667 211.367955)scale(0.2 -0.2)">
       <use xlink:href="#DejaVuSans-50"/>
      </g>
     </g>
    </g>
    <g id="ytick_9">
     <g id="line2d_19">
      <g>
       <use style="stroke:#000000;stroke-width:1.6;" x="383.941667" xlink:href="#m3a18c6a7e2" y="143.058442"/>
      </g>
     </g>
     <g id="text_16">
      <!-- 3 -->
      <g transform="translate(356.516667 150.65688)scale(0.2 -0.2)">
       <use xlink:href="#DejaVuSans-51"/>
      </g>
     </g>
    </g>
    <g id="ytick_10">
     <g id="line2d_20">
      <g>
       <use style="stroke:#000000;stroke-width:1.6;" x="383.941667" xlink:href="#m3a18c6a7e2" y="82.347367"/>
      </g>
     </g>
     <g id="text_17">
      <!-- 4 -->
      <g transform="translate(356.516667 89.945805)scale(0.2 -0.2)">
       <use xlink:href="#DejaVuSans-52"/>
      </g>
     </g>
    </g>
    <g id="ytick_11">
     <g id="line2d_21">
      <g>
       <use style="stroke:#000000;stroke-width:1.6;" x="383.941667" xlink:href="#m3a18c6a7e2" y="21.636293"/>
      </g>
     </g>
     <g id="text_18">
      <!-- 5 -->
      <g transform="translate(356.516667 29.23473)scale(0.2 -0.2)">
       <use xlink:href="#DejaVuSans-53"/>
      </g>
     </g>
    </g>
   </g>
   <g id="line2d_22">
    <path clip-path="url(#p905f7c2328)" d="M 0 0 
" style="fill:none;stroke:#000000;stroke-linecap:square;stroke-width:2;"/>
   </g>
   <g id="line2d_23">
    <path clip-path="url(#p905f7c2328)" d="M 0 0 
" style="fill:none;stroke:#000000;stroke-dasharray:7.4,3.2;stroke-dashoffset:0;stroke-width:2;"/>
   </g>
   <g id="patch_6">
    <path style="fill:none;stroke:#000000;stroke-linecap:square;stroke-linejoin:miter;stroke-width:0.8;"/>
   </g>
   <g id="patch_7">
    <path style="fill:none;stroke:#000000;stroke-linecap:square;stroke-linejoin:miter;stroke-width:0.8;"/>
   </g>
  </g>
 </g>
 <defs>
  <clipPath id="pe5fcee856d">
   <rect height="321.691667" width="321.691667" x="27.575" y="3.5"/>
  </clipPath>
  <clipPath id="p905f7c2328">
   <rect height="321.691667" width="321.691667" x="383.941667" y="3.5"/>
  </clipPath>
 </defs>
</svg>
