<?xml version="1.0" encoding="utf-8" standalone="no"?>
<!DOCTYPE svg PUBLIC "-//W3C//DTD SVG 1.1//EN"
  "http://www.w3.org/Graphics/SVG/1.1/DTD/svg11.dtd">
<!-- Created with matplotlib (https://matplotlib.org/) -->
<svg height="346.141667pt" version="1.1" viewBox="0 0 352.766667 346.141667" width="352.766667pt" xmlns="http://www.w3.org/2000/svg" xmlns:xlink="http://www.w3.org/1999/xlink">
 <defs>
  <style type="text/css">
*{stroke-linecap:butt;stroke-linejoin:round;}
  </style>
 </defs>
 <g id="figure_1">
  <g id="patch_1">
   <path d="M 0 346.141667 
L 352.766667 346.141667 
L 352.766667 0 
L 0 0 
z
" style="fill:#ffffff;"/>
  </g>
  <g id="axes_1">
   <g id="patch_2">
    <path d="M 40.325 312.441667 
L 349.266667 312.441667 
L 349.266667 3.5 
L 40.325 3.5 
z
" style="fill:#ffffff;"/>
   </g>
   <g id="matplotlib.axis_1">
    <g id="xtick_1">
     <g id="line2d_1">
      <defs>
       <path d="M 0 0 
L 0 3.5 
" id="m5ea7c12e01" style="stroke:#000000;stroke-width:1.6;"/>
      </defs>
      <g>
       <use style="stroke:#000000;stroke-width:1.6;" x="76.034962" xlink:href="#m5ea7c12e01" y="312.441667"/>
      </g>
     </g>
     <g id="text_1">
      <!-- 0.0 -->
      <defs>
       <path d="M 31.78125 66.40625 
Q 24.171875 66.40625 20.328125 58.90625 
Q 16.5 51.421875 16.5 36.375 
Q 16.5 21.390625 20.328125 13.890625 
Q 24.171875 6.390625 31.78125 6.390625 
Q 39.453125 6.390625 43.28125 13.890625 
Q 47.125 21.390625 47.125 36.375 
Q 47.125 51.421875 43.28125 58.90625 
Q 39.453125 66.40625 31.78125 66.40625 
z
M 31.78125 74.21875 
Q 44.046875 74.21875 50.515625 64.515625 
Q 56.984375 54.828125 56.984375 36.375 
Q 56.984375 17.96875 50.515625 8.265625 
Q 44.046875 -1.421875 31.78125 -1.421875 
Q 19.53125 -1.421875 13.0625 8.265625 
Q 6.59375 17.96875 6.59375 36.375 
Q 6.59375 54.828125 13.0625 64.515625 
Q 19.53125 74.21875 31.78125 74.21875 
z
" id="DejaVuSans-48"/>
       <path d="M 10.6875 12.40625 
L 21 12.40625 
L 21 0 
L 10.6875 0 
z
" id="DejaVuSans-46"/>
      </defs>
      <g transform="translate(60.131837 342.338542)scale(0.2 -0.2)">
       <use xlink:href="#DejaVuSans-48"/>
       <use x="63.623047" xlink:href="#DejaVuSans-46"/>
       <use x="95.410156" xlink:href="#DejaVuSans-48"/>
      </g>
     </g>
    </g>
    <g id="xtick_2">
     <g id="line2d_2">
      <g>
       <use style="stroke:#000000;stroke-width:1.6;" x="153.406183" xlink:href="#m5ea7c12e01" y="312.441667"/>
      </g>
     </g>
     <g id="text_2">
      <!-- 0.1 -->
      <defs>
       <path d="M 12.40625 8.296875 
L 28.515625 8.296875 
L 28.515625 63.921875 
L 10.984375 60.40625 
L 10.984375 69.390625 
L 28.421875 72.90625 
L 38.28125 72.90625 
L 38.28125 8.296875 
L 54.390625 8.296875 
L 54.390625 0 
L 12.40625 0 
z
" id="DejaVuSans-49"/>
      </defs>
      <g transform="translate(137.503058 342.338542)scale(0.2 -0.2)">
       <use xlink:href="#DejaVuSans-48"/>
       <use x="63.623047" xlink:href="#DejaVuSans-46"/>
       <use x="95.410156" xlink:href="#DejaVuSans-49"/>
      </g>
     </g>
    </g>
    <g id="xtick_3">
     <g id="line2d_3">
      <g>
       <use style="stroke:#000000;stroke-width:1.6;" x="230.777404" xlink:href="#m5ea7c12e01" y="312.441667"/>
      </g>
     </g>
     <g id="text_3">
      <!-- 0.2 -->
      <defs>
       <path d="M 19.1875 8.296875 
L 53.609375 8.296875 
L 53.609375 0 
L 7.328125 0 
L 7.328125 8.296875 
Q 12.9375 14.109375 22.625 23.890625 
Q 32.328125 33.6875 34.8125 36.53125 
Q 39.546875 41.84375 41.421875 45.53125 
Q 43.3125 49.21875 43.3125 52.78125 
Q 43.3125 58.59375 39.234375 62.25 
Q 35.15625 65.921875 28.609375 65.921875 
Q 23.96875 65.921875 18.8125 64.3125 
Q 13.671875 62.703125 7.8125 59.421875 
L 7.8125 69.390625 
Q 13.765625 71.78125 18.9375 73 
Q 24.125 74.21875 28.421875 74.21875 
Q 39.75 74.21875 46.484375 68.546875 
Q 53.21875 62.890625 53.21875 53.421875 
Q 53.21875 48.921875 51.53125 44.890625 
Q 49.859375 40.875 45.40625 35.40625 
Q 44.1875 33.984375 37.640625 27.21875 
Q 31.109375 20.453125 19.1875 8.296875 
z
" id="DejaVuSans-50"/>
      </defs>
      <g transform="translate(214.874279 342.338542)scale(0.2 -0.2)">
       <use xlink:href="#DejaVuSans-48"/>
       <use x="63.623047" xlink:href="#DejaVuSans-46"/>
       <use x="95.410156" xlink:href="#DejaVuSans-50"/>
      </g>
     </g>
    </g>
    <g id="xtick_4">
     <g id="line2d_4">
      <g>
       <use style="stroke:#000000;stroke-width:1.6;" x="308.148625" xlink:href="#m5ea7c12e01" y="312.441667"/>
      </g>
     </g>
     <g id="text_4">
      <!-- 0.3 -->
      <defs>
       <path d="M 40.578125 39.3125 
Q 47.65625 37.796875 51.625 33 
Q 55.609375 28.21875 55.609375 21.1875 
Q 55.609375 10.40625 48.1875 4.484375 
Q 40.765625 -1.421875 27.09375 -1.421875 
Q 22.515625 -1.421875 17.65625 -0.515625 
Q 12.796875 0.390625 7.625 2.203125 
L 7.625 11.71875 
Q 11.71875 9.328125 16.59375 8.109375 
Q 21.484375 6.890625 26.8125 6.890625 
Q 36.078125 6.890625 40.9375 10.546875 
Q 45.796875 14.203125 45.796875 21.1875 
Q 45.796875 27.640625 41.28125 31.265625 
Q 36.765625 34.90625 28.71875 34.90625 
L 20.21875 34.90625 
L 20.21875 43.015625 
L 29.109375 43.015625 
Q 36.375 43.015625 40.234375 45.921875 
Q 44.09375 48.828125 44.09375 54.296875 
Q 44.09375 59.90625 40.109375 62.90625 
Q 36.140625 65.921875 28.71875 65.921875 
Q 24.65625 65.921875 20.015625 65.03125 
Q 15.375 64.15625 9.8125 62.3125 
L 9.8125 71.09375 
Q 15.4375 72.65625 20.34375 73.4375 
Q 25.25 74.21875 29.59375 74.21875 
Q 40.828125 74.21875 47.359375 69.109375 
Q 53.90625 64.015625 53.90625 55.328125 
Q 53.90625 49.265625 50.4375 45.09375 
Q 46.96875 40.921875 40.578125 39.3125 
z
" id="DejaVuSans-51"/>
      </defs>
      <g transform="translate(292.2455 342.338542)scale(0.2 -0.2)">
       <use xlink:href="#DejaVuSans-48"/>
       <use x="63.623047" xlink:href="#DejaVuSans-46"/>
       <use x="95.410156" xlink:href="#DejaVuSans-51"/>
      </g>
     </g>
    </g>
   </g>
   <g id="matplotlib.axis_2">
    <g id="ytick_1">
     <g id="line2d_5">
      <defs>
       <path d="M 0 0 
L -3.5 0 
" id="me68aff5294" style="stroke:#000000;stroke-width:1.6;"/>
      </defs>
      <g>
       <use style="stroke:#000000;stroke-width:1.6;" x="40.325" xlink:href="#me68aff5294" y="312.441667"/>
      </g>
     </g>
     <g id="text_5">
      <!-- 0 -->
      <g transform="translate(12.9 320.040104)scale(0.2 -0.2)">
       <use xlink:href="#DejaVuSans-48"/>
      </g>
     </g>
    </g>
    <g id="ytick_2">
     <g id="line2d_6">
      <g>
       <use style="stroke:#000000;stroke-width:1.6;" x="40.325" xlink:href="#me68aff5294" y="266.269588"/>
      </g>
     </g>
     <g id="text_6">
      <!-- 5 -->
      <defs>
       <path d="M 10.796875 72.90625 
L 49.515625 72.90625 
L 49.515625 64.59375 
L 19.828125 64.59375 
L 19.828125 46.734375 
Q 21.96875 47.46875 24.109375 47.828125 
Q 26.265625 48.1875 28.421875 48.1875 
Q 40.625 48.1875 47.75 41.5 
Q 54.890625 34.8125 54.890625 23.390625 
Q 54.890625 11.625 47.5625 5.09375 
Q 40.234375 -1.421875 26.90625 -1.421875 
Q 22.3125 -1.421875 17.546875 -0.640625 
Q 12.796875 0.140625 7.71875 1.703125 
L 7.71875 11.625 
Q 12.109375 9.234375 16.796875 8.0625 
Q 21.484375 6.890625 26.703125 6.890625 
Q 35.15625 6.890625 40.078125 11.328125 
Q 45.015625 15.765625 45.015625 23.390625 
Q 45.015625 31 40.078125 35.4375 
Q 35.15625 39.890625 26.703125 39.890625 
Q 22.75 39.890625 18.8125 39.015625 
Q 14.890625 38.140625 10.796875 36.28125 
z
" id="DejaVuSans-53"/>
      </defs>
      <g transform="translate(12.9 273.868026)scale(0.2 -0.2)">
       <use xlink:href="#DejaVuSans-53"/>
      </g>
     </g>
    </g>
    <g id="ytick_3">
     <g id="line2d_7">
      <g>
       <use style="stroke:#000000;stroke-width:1.6;" x="40.325" xlink:href="#me68aff5294" y="220.09751"/>
      </g>
     </g>
     <g id="text_7">
      <!-- 10 -->
      <g transform="translate(0.175 227.695948)scale(0.2 -0.2)">
       <use xlink:href="#DejaVuSans-49"/>
       <use x="63.623047" xlink:href="#DejaVuSans-48"/>
      </g>
     </g>
    </g>
    <g id="ytick_4">
     <g id="line2d_8">
      <g>
       <use style="stroke:#000000;stroke-width:1.6;" x="40.325" xlink:href="#me68aff5294" y="173.925432"/>
      </g>
     </g>
     <g id="text_8">
      <!-- 15 -->
      <g transform="translate(0.175 181.523869)scale(0.2 -0.2)">
       <use xlink:href="#DejaVuSans-49"/>
       <use x="63.623047" xlink:href="#DejaVuSans-53"/>
      </g>
     </g>
    </g>
    <g id="ytick_5">
     <g id="line2d_9">
      <g>
       <use style="stroke:#000000;stroke-width:1.6;" x="40.325" xlink:href="#me68aff5294" y="127.753354"/>
      </g>
     </g>
     <g id="text_9">
      <!-- 20 -->
      <g transform="translate(0.175 135.351791)scale(0.2 -0.2)">
       <use xlink:href="#DejaVuSans-50"/>
       <use x="63.623047" xlink:href="#DejaVuSans-48"/>
      </g>
     </g>
    </g>
    <g id="ytick_6">
     <g id="line2d_10">
      <g>
       <use style="stroke:#000000;stroke-width:1.6;" x="40.325" xlink:href="#me68aff5294" y="81.581275"/>
      </g>
     </g>
     <g id="text_10">
      <!-- 25 -->
      <g transform="translate(0.175 89.179713)scale(0.2 -0.2)">
       <use xlink:href="#DejaVuSans-50"/>
       <use x="63.623047" xlink:href="#DejaVuSans-53"/>
      </g>
     </g>
    </g>
    <g id="ytick_7">
     <g id="line2d_11">
      <g>
       <use style="stroke:#000000;stroke-width:1.6;" x="40.325" xlink:href="#me68aff5294" y="35.409197"/>
      </g>
     </g>
     <g id="text_11">
      <!-- 30 -->
      <g transform="translate(0.175 43.007635)scale(0.2 -0.2)">
       <use xlink:href="#DejaVuSans-51"/>
       <use x="63.623047" xlink:href="#DejaVuSans-48"/>
      </g>
     </g>
    </g>
   </g>
   <g id="line2d_12">
    <path clip-path="url(#pcd78a0f388)" d="M 54.367803 311.090793 
L 56.321665 309.508574 
L 58.275527 306.502991 
L 60.229389 301.233458 
L 62.183252 292.7164 
L 64.137114 280.050927 
L 66.090976 262.771626 
L 68.044838 241.234377 
L 71.952562 192.096077 
L 73.906424 169.904695 
L 75.860286 153.069236 
L 77.814149 143.403011 
L 79.768011 141.292277 
L 81.721873 145.728663 
L 83.675735 154.794108 
L 85.629597 166.348697 
L 89.537321 190.444533 
L 91.491184 201.302724 
L 93.445046 211.033127 
L 95.398908 219.643377 
L 97.35277 227.166634 
L 99.306632 233.623296 
L 101.260494 239.039695 
L 103.214356 243.480413 
L 105.168218 247.068674 
L 107.122081 249.982723 
L 109.075943 252.424738 
L 111.029805 254.572291 
L 114.937529 258.361847 
L 118.845253 261.608375 
L 122.752978 264.61104 
L 124.70684 266.228561 
L 126.660702 268.004511 
L 130.568426 272.018797 
L 136.430013 278.644717 
L 144.245461 287.818441 
L 150.107048 294.837087 
L 152.06091 296.941508 
L 154.014772 298.795042 
L 155.968634 300.350304 
L 157.922496 301.598272 
L 159.876358 302.564179 
L 161.83022 303.295035 
L 163.784082 303.845045 
L 167.691807 304.592265 
L 173.553393 305.293838 
L 181.368842 306.186596 
L 195.045877 308.056962 
L 204.815187 309.719536 
L 208.722911 310.109133 
L 212.630636 310.313653 
L 218.492222 310.385454 
L 224.353809 310.399881 
L 228.261533 310.580252 
L 239.984706 311.563994 
L 243.89243 311.587492 
L 253.661741 311.266718 
L 263.431051 311.011345 
L 269.292638 311.152335 
L 292.738983 312.331492 
L 298.60057 312.336147 
L 300.554432 312.201262 
L 302.508294 311.859201 
L 302.508294 311.859201 
" style="fill:none;stroke:#000000;stroke-linecap:square;stroke-width:2;"/>
   </g>
   <g id="line2d_13">
    <path clip-path="url(#pcd78a0f388)" d="M 62.023615 309.644185 
L 63.598093 305.239843 
L 65.172571 295.823294 
L 66.747049 278.0765 
L 68.321528 248.718747 
L 69.896006 206.373619 
L 74.619441 51.186016 
L 76.193919 22.690273 
L 77.768397 18.211284 
L 79.342876 36.016455 
L 80.917354 68.479124 
L 82.491832 105.689719 
L 84.06631 139.308806 
L 85.640789 164.933749 
L 87.215267 182.365781 
L 88.789745 194.106843 
L 90.364224 203.044138 
L 91.938702 210.619395 
L 93.51318 216.516682 
L 95.087658 219.882665 
L 96.662137 220.933283 
L 98.236615 221.507093 
L 99.811093 224.048908 
L 101.385571 229.879794 
L 104.534528 246.790824 
L 106.109006 253.434767 
L 107.683485 257.538875 
L 110.832441 262.960282 
L 112.406919 266.869762 
L 113.981398 271.490001 
L 115.555876 275.565997 
L 117.130354 278.035973 
L 118.704833 278.821118 
L 120.279311 278.822235 
L 121.853789 279.229358 
L 123.428267 280.722966 
L 125.002746 283.140525 
L 126.577224 285.767337 
L 128.151702 287.940515 
L 129.72618 289.481502 
L 132.875137 291.939768 
L 136.024094 294.844016 
L 137.598572 295.940088 
L 139.17305 296.52989 
L 142.322007 297.176504 
L 143.896485 298.029455 
L 145.470963 299.453841 
L 148.61992 302.984424 
L 150.194398 304.425757 
L 151.768876 305.457225 
L 153.343355 306.156466 
L 156.492311 307.062115 
L 159.641268 307.696876 
L 165.939181 308.871828 
L 180.109485 311.523026 
L 184.83292 311.727429 
L 191.130833 311.811905 
L 195.854268 311.82384 
L 206.875616 312.287766 
L 217.896964 311.790701 
L 228.918312 311.937206 
L 235.216225 312.341374 
L 238.365182 312.349244 
L 243.088616 312.087149 
L 247.812051 311.833737 
L 250.961008 311.945831 
L 257.258921 312.3352 
L 258.833399 312.315791 
L 260.407877 312.121152 
L 261.982356 311.46307 
L 261.982356 311.46307 
" style="fill:none;stroke:#000000;stroke-dasharray:7.4,3.2;stroke-dashoffset:0;stroke-width:2;"/>
   </g>
   <g id="line2d_14">
    <path clip-path="url(#pcd78a0f388)" d="M 55.692561 311.008172 
L 57.893595 308.86517 
L 60.094629 304.376269 
L 62.295663 296.003818 
L 64.496697 282.138687 
L 66.697731 261.844809 
L 68.898765 235.778057 
L 71.099799 206.73807 
L 73.300832 179.271089 
L 75.501866 158.203485 
L 77.7029 146.744271 
L 79.903934 145.24988 
L 82.104968 151.413944 
L 84.306002 161.698466 
L 86.507036 173.015745 
L 88.70807 183.657549 
L 90.909103 193.186627 
L 93.110137 201.76734 
L 95.311171 209.597854 
L 97.512205 216.728243 
L 99.713239 223.120043 
L 101.914273 228.722463 
L 104.115307 233.517937 
L 106.316341 237.589778 
L 115.120476 251.986456 
L 119.522544 259.417355 
L 121.723578 262.754439 
L 123.924612 265.776961 
L 126.125645 268.507101 
L 128.326679 270.976637 
L 132.728747 275.40616 
L 137.130815 279.931557 
L 139.331849 282.464 
L 145.93495 290.675193 
L 148.135984 293.107876 
L 150.337018 295.128588 
L 152.538052 296.70827 
L 154.739086 297.938425 
L 161.342187 301.139898 
L 170.146323 306.118893 
L 172.347357 307.09884 
L 174.548391 307.877865 
L 176.749425 308.476024 
L 181.151492 309.320153 
L 189.955628 310.608286 
L 196.558729 311.437477 
L 200.960797 311.815952 
L 205.362865 311.965785 
L 216.368034 312.125421 
L 225.17217 312.389753 
L 236.177339 312.4332 
L 244.981475 312.311144 
L 260.388712 311.709483 
L 271.393881 311.196898 
L 275.795949 311.354481 
L 286.801118 311.917109 
L 297.806288 312.336484 
L 304.409389 312.302966 
L 315.414559 312.026099 
L 322.01766 312.199479 
L 328.620762 312.373158 
L 333.02283 312.260698 
L 335.223864 311.919356 
L 335.223864 311.919356 
" style="fill:none;stroke:#000000;stroke-dasharray:2,3.3;stroke-dashoffset:0;stroke-width:2;"/>
   </g>
   <g id="patch_3">
    <path d="M 40.325 312.441667 
L 40.325 3.5 
" style="fill:none;stroke:#000000;stroke-linecap:square;stroke-linejoin:miter;stroke-width:0.8;"/>
   </g>
   <g id="patch_4">
    <path d="M 40.325 312.441667 
L 349.266667 312.441667 
" style="fill:none;stroke:#000000;stroke-linecap:square;stroke-linejoin:miter;stroke-width:0.8;"/>
   </g>
  </g>
  <g id="axes_2">
   <g id="patch_5">
    <path d="M 396.691667 312.441667 
L 705.633333 312.441667 
L 705.633333 3.5 
L 396.691667 3.5 
z
" style="fill:#ffffff;"/>
   </g>
   <g id="matplotlib.axis_3">
    <g id="xtick_5">
     <g id="line2d_15">
      <g>
       <use style="stroke:#000000;stroke-width:1.6;" x="418.258023" xlink:href="#m5ea7c12e01" y="312.441667"/>
      </g>
     </g>
     <g id="text_12">
      <!-- −0.2 -->
      <defs>
       <path d="M 10.59375 35.5 
L 73.1875 35.5 
L 73.1875 27.203125 
L 10.59375 27.203125 
z
" id="DejaVuSans-8722"/>
      </defs>
      <g transform="translate(393.975211 342.338542)scale(0.2 -0.2)">
       <use xlink:href="#DejaVuSans-8722"/>
       <use x="83.789062" xlink:href="#DejaVuSans-48"/>
       <use x="147.412109" xlink:href="#DejaVuSans-46"/>
       <use x="179.199219" xlink:href="#DejaVuSans-50"/>
      </g>
     </g>
    </g>
    <g id="xtick_6">
     <g id="line2d_16">
      <g>
       <use style="stroke:#000000;stroke-width:1.6;" x="537.595398" xlink:href="#m5ea7c12e01" y="312.441667"/>
      </g>
     </g>
     <g id="text_13">
      <!-- 0.0 -->
      <g transform="translate(521.692273 342.338542)scale(0.2 -0.2)">
       <use xlink:href="#DejaVuSans-48"/>
       <use x="63.623047" xlink:href="#DejaVuSans-46"/>
       <use x="95.410156" xlink:href="#DejaVuSans-48"/>
      </g>
     </g>
    </g>
    <g id="xtick_7">
     <g id="line2d_17">
      <g>
       <use style="stroke:#000000;stroke-width:1.6;" x="656.932773" xlink:href="#m5ea7c12e01" y="312.441667"/>
      </g>
     </g>
     <g id="text_14">
      <!-- 0.2 -->
      <g transform="translate(641.029648 342.338542)scale(0.2 -0.2)">
       <use xlink:href="#DejaVuSans-48"/>
       <use x="63.623047" xlink:href="#DejaVuSans-46"/>
       <use x="95.410156" xlink:href="#DejaVuSans-50"/>
      </g>
     </g>
    </g>
   </g>
   <g id="matplotlib.axis_4">
    <g id="ytick_8">
     <g id="line2d_18">
      <g>
       <use style="stroke:#000000;stroke-width:1.6;" x="396.691667" xlink:href="#me68aff5294" y="312.441667"/>
      </g>
     </g>
     <g id="text_15">
      <!-- 0 -->
      <g transform="translate(369.266667 320.040104)scale(0.2 -0.2)">
       <use xlink:href="#DejaVuSans-48"/>
      </g>
     </g>
    </g>
    <g id="ytick_9">
     <g id="line2d_19">
      <g>
       <use style="stroke:#000000;stroke-width:1.6;" x="396.691667" xlink:href="#me68aff5294" y="245.95022"/>
      </g>
     </g>
     <g id="text_16">
      <!-- 20 -->
      <g transform="translate(356.541667 253.548657)scale(0.2 -0.2)">
       <use xlink:href="#DejaVuSans-50"/>
       <use x="63.623047" xlink:href="#DejaVuSans-48"/>
      </g>
     </g>
    </g>
    <g id="ytick_10">
     <g id="line2d_20">
      <g>
       <use style="stroke:#000000;stroke-width:1.6;" x="396.691667" xlink:href="#me68aff5294" y="179.458772"/>
      </g>
     </g>
     <g id="text_17">
      <!-- 40 -->
      <defs>
       <path d="M 37.796875 64.3125 
L 12.890625 25.390625 
L 37.796875 25.390625 
z
M 35.203125 72.90625 
L 47.609375 72.90625 
L 47.609375 25.390625 
L 58.015625 25.390625 
L 58.015625 17.1875 
L 47.609375 17.1875 
L 47.609375 0 
L 37.796875 0 
L 37.796875 17.1875 
L 4.890625 17.1875 
L 4.890625 26.703125 
z
" id="DejaVuSans-52"/>
      </defs>
      <g transform="translate(356.541667 187.05721)scale(0.2 -0.2)">
       <use xlink:href="#DejaVuSans-52"/>
       <use x="63.623047" xlink:href="#DejaVuSans-48"/>
      </g>
     </g>
    </g>
    <g id="ytick_11">
     <g id="line2d_21">
      <g>
       <use style="stroke:#000000;stroke-width:1.6;" x="396.691667" xlink:href="#me68aff5294" y="112.967325"/>
      </g>
     </g>
     <g id="text_18">
      <!-- 60 -->
      <defs>
       <path d="M 33.015625 40.375 
Q 26.375 40.375 22.484375 35.828125 
Q 18.609375 31.296875 18.609375 23.390625 
Q 18.609375 15.53125 22.484375 10.953125 
Q 26.375 6.390625 33.015625 6.390625 
Q 39.65625 6.390625 43.53125 10.953125 
Q 47.40625 15.53125 47.40625 23.390625 
Q 47.40625 31.296875 43.53125 35.828125 
Q 39.65625 40.375 33.015625 40.375 
z
M 52.59375 71.296875 
L 52.59375 62.3125 
Q 48.875 64.0625 45.09375 64.984375 
Q 41.3125 65.921875 37.59375 65.921875 
Q 27.828125 65.921875 22.671875 59.328125 
Q 17.53125 52.734375 16.796875 39.40625 
Q 19.671875 43.65625 24.015625 45.921875 
Q 28.375 48.1875 33.59375 48.1875 
Q 44.578125 48.1875 50.953125 41.515625 
Q 57.328125 34.859375 57.328125 23.390625 
Q 57.328125 12.15625 50.6875 5.359375 
Q 44.046875 -1.421875 33.015625 -1.421875 
Q 20.359375 -1.421875 13.671875 8.265625 
Q 6.984375 17.96875 6.984375 36.375 
Q 6.984375 53.65625 15.1875 63.9375 
Q 23.390625 74.21875 37.203125 74.21875 
Q 40.921875 74.21875 44.703125 73.484375 
Q 48.484375 72.75 52.59375 71.296875 
z
" id="DejaVuSans-54"/>
      </defs>
      <g transform="translate(356.541667 120.565763)scale(0.2 -0.2)">
       <use xlink:href="#DejaVuSans-54"/>
       <use x="63.623047" xlink:href="#DejaVuSans-48"/>
      </g>
     </g>
    </g>
    <g id="ytick_12">
     <g id="line2d_22">
      <g>
       <use style="stroke:#000000;stroke-width:1.6;" x="396.691667" xlink:href="#me68aff5294" y="46.475878"/>
      </g>
     </g>
     <g id="text_19">
      <!-- 80 -->
      <defs>
       <path d="M 31.78125 34.625 
Q 24.75 34.625 20.71875 30.859375 
Q 16.703125 27.09375 16.703125 20.515625 
Q 16.703125 13.921875 20.71875 10.15625 
Q 24.75 6.390625 31.78125 6.390625 
Q 38.8125 6.390625 42.859375 10.171875 
Q 46.921875 13.96875 46.921875 20.515625 
Q 46.921875 27.09375 42.890625 30.859375 
Q 38.875 34.625 31.78125 34.625 
z
M 21.921875 38.8125 
Q 15.578125 40.375 12.03125 44.71875 
Q 8.5 49.078125 8.5 55.328125 
Q 8.5 64.0625 14.71875 69.140625 
Q 20.953125 74.21875 31.78125 74.21875 
Q 42.671875 74.21875 48.875 69.140625 
Q 55.078125 64.0625 55.078125 55.328125 
Q 55.078125 49.078125 51.53125 44.71875 
Q 48 40.375 41.703125 38.8125 
Q 48.828125 37.15625 52.796875 32.3125 
Q 56.78125 27.484375 56.78125 20.515625 
Q 56.78125 9.90625 50.3125 4.234375 
Q 43.84375 -1.421875 31.78125 -1.421875 
Q 19.734375 -1.421875 13.25 4.234375 
Q 6.78125 9.90625 6.78125 20.515625 
Q 6.78125 27.484375 10.78125 32.3125 
Q 14.796875 37.15625 21.921875 38.8125 
z
M 18.3125 54.390625 
Q 18.3125 48.734375 21.84375 45.5625 
Q 25.390625 42.390625 31.78125 42.390625 
Q 38.140625 42.390625 41.71875 45.5625 
Q 45.3125 48.734375 45.3125 54.390625 
Q 45.3125 60.0625 41.71875 63.234375 
Q 38.140625 66.40625 31.78125 66.40625 
Q 25.390625 66.40625 21.84375 63.234375 
Q 18.3125 60.0625 18.3125 54.390625 
z
" id="DejaVuSans-56"/>
      </defs>
      <g transform="translate(356.541667 54.074316)scale(0.2 -0.2)">
       <use xlink:href="#DejaVuSans-56"/>
       <use x="63.623047" xlink:href="#DejaVuSans-48"/>
      </g>
     </g>
    </g>
   </g>
   <g id="line2d_23">
    <path clip-path="url(#p2f3eeec851)" d="M 0 0 
" style="fill:none;stroke:#000000;stroke-linecap:square;stroke-width:2;"/>
   </g>
   <g id="line2d_24">
    <path clip-path="url(#p2f3eeec851)" d="M 0 0 
" style="fill:none;stroke:#000000;stroke-dasharray:7.4,3.2;stroke-dashoffset:0;stroke-width:2;"/>
   </g>
   <g id="patch_6">
    <path style="fill:none;stroke:#000000;stroke-linecap:square;stroke-linejoin:miter;stroke-width:0.8;"/>
   </g>
   <g id="patch_7">
    <path style="fill:none;stroke:#000000;stroke-linecap:square;stroke-linejoin:miter;stroke-width:0.8;"/>
   </g>
  </g>
 </g>
 <defs>
  <clipPath id="pcd78a0f388">
   <rect height="308.941667" width="308.941667" x="40.325" y="3.5"/>
  </clipPath>
  <clipPath id="p2f3eeec851">
   <rect height="308.941667" width="308.941667" x="396.691667" y="3.5"/>
  </clipPath>
 </defs>
</svg>
