<?xml version="1.0" encoding="utf-8" standalone="no"?>
<!DOCTYPE svg PUBLIC "-//W3C//DTD SVG 1.1//EN"
  "http://www.w3.org/Graphics/SVG/1.1/DTD/svg11.dtd">
<!-- Created with matplotlib (https://matplotlib.org/) -->
<svg height="337.172724pt" version="1.1" viewBox="0 0 342.686667 337.172724" width="342.686667pt" xmlns="http://www.w3.org/2000/svg" xmlns:xlink="http://www.w3.org/1999/xlink">
 <defs>
  <style type="text/css">
*{stroke-linecap:butt;stroke-linejoin:round;}
  </style>
 </defs>
 <g id="figure_1">
  <g id="patch_1">
   <path d="M 0 337.172724 
L 342.686667 337.172724 
L 342.686667 0 
L 0 0 
z
" style="fill:#ffffff;"/>
  </g>
  <g id="axes_1">
   <g id="patch_2">
    <path d="M 40.325 303.472724 
L 339.186667 303.472724 
L 339.186667 4.611057 
L 40.325 4.611057 
z
" style="fill:#ffffff;"/>
   </g>
   <g id="matplotlib.axis_1">
    <g id="xtick_1">
     <g id="line2d_1">
      <defs>
       <path d="M 0 0 
L 0 3.5 
" id="ma4eca8731f" style="stroke:#000000;stroke-width:1.6;"/>
      </defs>
      <g>
       <use style="stroke:#000000;stroke-width:1.6;" x="67.500977" xlink:href="#ma4eca8731f" y="303.472724"/>
      </g>
     </g>
     <g id="text_1">
      <!-- 0.10 -->
      <defs>
       <path d="M 31.78125 66.40625 
Q 24.171875 66.40625 20.328125 58.90625 
Q 16.5 51.421875 16.5 36.375 
Q 16.5 21.390625 20.328125 13.890625 
Q 24.171875 6.390625 31.78125 6.390625 
Q 39.453125 6.390625 43.28125 13.890625 
Q 47.125 21.390625 47.125 36.375 
Q 47.125 51.421875 43.28125 58.90625 
Q 39.453125 66.40625 31.78125 66.40625 
z
M 31.78125 74.21875 
Q 44.046875 74.21875 50.515625 64.515625 
Q 56.984375 54.828125 56.984375 36.375 
Q 56.984375 17.96875 50.515625 8.265625 
Q 44.046875 -1.421875 31.78125 -1.421875 
Q 19.53125 -1.421875 13.0625 8.265625 
Q 6.59375 17.96875 6.59375 36.375 
Q 6.59375 54.828125 13.0625 64.515625 
Q 19.53125 74.21875 31.78125 74.21875 
z
" id="DejaVuSans-48"/>
       <path d="M 10.6875 12.40625 
L 21 12.40625 
L 21 0 
L 10.6875 0 
z
" id="DejaVuSans-46"/>
       <path d="M 12.40625 8.296875 
L 28.515625 8.296875 
L 28.515625 63.921875 
L 10.984375 60.40625 
L 10.984375 69.390625 
L 28.421875 72.90625 
L 38.28125 72.90625 
L 38.28125 8.296875 
L 54.390625 8.296875 
L 54.390625 0 
L 12.40625 0 
z
" id="DejaVuSans-49"/>
      </defs>
      <g transform="translate(45.235352 333.369599)scale(0.2 -0.2)">
       <use xlink:href="#DejaVuSans-48"/>
       <use x="63.623047" xlink:href="#DejaVuSans-46"/>
       <use x="95.410156" xlink:href="#DejaVuSans-49"/>
       <use x="159.033203" xlink:href="#DejaVuSans-48"/>
      </g>
     </g>
    </g>
    <g id="xtick_2">
     <g id="line2d_2">
      <g>
       <use style="stroke:#000000;stroke-width:1.6;" x="149.351809" xlink:href="#ma4eca8731f" y="303.472724"/>
      </g>
     </g>
     <g id="text_2">
      <!-- 0.15 -->
      <defs>
       <path d="M 10.796875 72.90625 
L 49.515625 72.90625 
L 49.515625 64.59375 
L 19.828125 64.59375 
L 19.828125 46.734375 
Q 21.96875 47.46875 24.109375 47.828125 
Q 26.265625 48.1875 28.421875 48.1875 
Q 40.625 48.1875 47.75 41.5 
Q 54.890625 34.8125 54.890625 23.390625 
Q 54.890625 11.625 47.5625 5.09375 
Q 40.234375 -1.421875 26.90625 -1.421875 
Q 22.3125 -1.421875 17.546875 -0.640625 
Q 12.796875 0.140625 7.71875 1.703125 
L 7.71875 11.625 
Q 12.109375 9.234375 16.796875 8.0625 
Q 21.484375 6.890625 26.703125 6.890625 
Q 35.15625 6.890625 40.078125 11.328125 
Q 45.015625 15.765625 45.015625 23.390625 
Q 45.015625 31 40.078125 35.4375 
Q 35.15625 39.890625 26.703125 39.890625 
Q 22.75 39.890625 18.8125 39.015625 
Q 14.890625 38.140625 10.796875 36.28125 
z
" id="DejaVuSans-53"/>
      </defs>
      <g transform="translate(127.086184 333.369599)scale(0.2 -0.2)">
       <use xlink:href="#DejaVuSans-48"/>
       <use x="63.623047" xlink:href="#DejaVuSans-46"/>
       <use x="95.410156" xlink:href="#DejaVuSans-49"/>
       <use x="159.033203" xlink:href="#DejaVuSans-53"/>
      </g>
     </g>
    </g>
    <g id="xtick_3">
     <g id="line2d_3">
      <g>
       <use style="stroke:#000000;stroke-width:1.6;" x="231.20264" xlink:href="#ma4eca8731f" y="303.472724"/>
      </g>
     </g>
     <g id="text_3">
      <!-- 0.20 -->
      <defs>
       <path d="M 19.1875 8.296875 
L 53.609375 8.296875 
L 53.609375 0 
L 7.328125 0 
L 7.328125 8.296875 
Q 12.9375 14.109375 22.625 23.890625 
Q 32.328125 33.6875 34.8125 36.53125 
Q 39.546875 41.84375 41.421875 45.53125 
Q 43.3125 49.21875 43.3125 52.78125 
Q 43.3125 58.59375 39.234375 62.25 
Q 35.15625 65.921875 28.609375 65.921875 
Q 23.96875 65.921875 18.8125 64.3125 
Q 13.671875 62.703125 7.8125 59.421875 
L 7.8125 69.390625 
Q 13.765625 71.78125 18.9375 73 
Q 24.125 74.21875 28.421875 74.21875 
Q 39.75 74.21875 46.484375 68.546875 
Q 53.21875 62.890625 53.21875 53.421875 
Q 53.21875 48.921875 51.53125 44.890625 
Q 49.859375 40.875 45.40625 35.40625 
Q 44.1875 33.984375 37.640625 27.21875 
Q 31.109375 20.453125 19.1875 8.296875 
z
" id="DejaVuSans-50"/>
      </defs>
      <g transform="translate(208.937015 333.369599)scale(0.2 -0.2)">
       <use xlink:href="#DejaVuSans-48"/>
       <use x="63.623047" xlink:href="#DejaVuSans-46"/>
       <use x="95.410156" xlink:href="#DejaVuSans-50"/>
       <use x="159.033203" xlink:href="#DejaVuSans-48"/>
      </g>
     </g>
    </g>
    <g id="xtick_4">
     <g id="line2d_4">
      <g>
       <use style="stroke:#000000;stroke-width:1.6;" x="313.053472" xlink:href="#ma4eca8731f" y="303.472724"/>
      </g>
     </g>
     <g id="text_4">
      <!-- 0.25 -->
      <g transform="translate(290.787847 333.369599)scale(0.2 -0.2)">
       <use xlink:href="#DejaVuSans-48"/>
       <use x="63.623047" xlink:href="#DejaVuSans-46"/>
       <use x="95.410156" xlink:href="#DejaVuSans-50"/>
       <use x="159.033203" xlink:href="#DejaVuSans-53"/>
      </g>
     </g>
    </g>
   </g>
   <g id="matplotlib.axis_2">
    <g id="ytick_1">
     <g id="line2d_5">
      <defs>
       <path d="M 0 0 
L -3.5 0 
" id="mf0530c5b2d" style="stroke:#000000;stroke-width:1.6;"/>
      </defs>
      <g>
       <use style="stroke:#000000;stroke-width:1.6;" x="40.325" xlink:href="#mf0530c5b2d" y="303.472724"/>
      </g>
     </g>
     <g id="text_5">
      <!-- 0 -->
      <g transform="translate(12.9 311.071162)scale(0.2 -0.2)">
       <use xlink:href="#DejaVuSans-48"/>
      </g>
     </g>
    </g>
    <g id="ytick_2">
     <g id="line2d_6">
      <g>
       <use style="stroke:#000000;stroke-width:1.6;" x="40.325" xlink:href="#mf0530c5b2d" y="229.479543"/>
      </g>
     </g>
     <g id="text_6">
      <!-- 10 -->
      <g transform="translate(0.175 237.077981)scale(0.2 -0.2)">
       <use xlink:href="#DejaVuSans-49"/>
       <use x="63.623047" xlink:href="#DejaVuSans-48"/>
      </g>
     </g>
    </g>
    <g id="ytick_3">
     <g id="line2d_7">
      <g>
       <use style="stroke:#000000;stroke-width:1.6;" x="40.325" xlink:href="#mf0530c5b2d" y="155.486362"/>
      </g>
     </g>
     <g id="text_7">
      <!-- 20 -->
      <g transform="translate(0.175 163.0848)scale(0.2 -0.2)">
       <use xlink:href="#DejaVuSans-50"/>
       <use x="63.623047" xlink:href="#DejaVuSans-48"/>
      </g>
     </g>
    </g>
    <g id="ytick_4">
     <g id="line2d_8">
      <g>
       <use style="stroke:#000000;stroke-width:1.6;" x="40.325" xlink:href="#mf0530c5b2d" y="81.493181"/>
      </g>
     </g>
     <g id="text_8">
      <!-- 30 -->
      <defs>
       <path d="M 40.578125 39.3125 
Q 47.65625 37.796875 51.625 33 
Q 55.609375 28.21875 55.609375 21.1875 
Q 55.609375 10.40625 48.1875 4.484375 
Q 40.765625 -1.421875 27.09375 -1.421875 
Q 22.515625 -1.421875 17.65625 -0.515625 
Q 12.796875 0.390625 7.625 2.203125 
L 7.625 11.71875 
Q 11.71875 9.328125 16.59375 8.109375 
Q 21.484375 6.890625 26.8125 6.890625 
Q 36.078125 6.890625 40.9375 10.546875 
Q 45.796875 14.203125 45.796875 21.1875 
Q 45.796875 27.640625 41.28125 31.265625 
Q 36.765625 34.90625 28.71875 34.90625 
L 20.21875 34.90625 
L 20.21875 43.015625 
L 29.109375 43.015625 
Q 36.375 43.015625 40.234375 45.921875 
Q 44.09375 48.828125 44.09375 54.296875 
Q 44.09375 59.90625 40.109375 62.90625 
Q 36.140625 65.921875 28.71875 65.921875 
Q 24.65625 65.921875 20.015625 65.03125 
Q 15.375 64.15625 9.8125 62.3125 
L 9.8125 71.09375 
Q 15.4375 72.65625 20.34375 73.4375 
Q 25.25 74.21875 29.59375 74.21875 
Q 40.828125 74.21875 47.359375 69.109375 
Q 53.90625 64.015625 53.90625 55.328125 
Q 53.90625 49.265625 50.4375 45.09375 
Q 46.96875 40.921875 40.578125 39.3125 
z
" id="DejaVuSans-51"/>
      </defs>
      <g transform="translate(0.175 89.091619)scale(0.2 -0.2)">
       <use xlink:href="#DejaVuSans-51"/>
       <use x="63.623047" xlink:href="#DejaVuSans-48"/>
      </g>
     </g>
    </g>
    <g id="ytick_5">
     <g id="line2d_9">
      <g>
       <use style="stroke:#000000;stroke-width:1.6;" x="40.325" xlink:href="#mf0530c5b2d" y="7.5"/>
      </g>
     </g>
     <g id="text_9">
      <!-- 40 -->
      <defs>
       <path d="M 37.796875 64.3125 
L 12.890625 25.390625 
L 37.796875 25.390625 
z
M 35.203125 72.90625 
L 47.609375 72.90625 
L 47.609375 25.390625 
L 58.015625 25.390625 
L 58.015625 17.1875 
L 47.609375 17.1875 
L 47.609375 0 
L 37.796875 0 
L 37.796875 17.1875 
L 4.890625 17.1875 
L 4.890625 26.703125 
z
" id="DejaVuSans-52"/>
      </defs>
      <g transform="translate(0.175 15.098437)scale(0.2 -0.2)">
       <use xlink:href="#DejaVuSans-52"/>
       <use x="63.623047" xlink:href="#DejaVuSans-48"/>
      </g>
     </g>
    </g>
   </g>
   <g id="line2d_10">
    <path clip-path="url(#p29db22ce13)" d="M 107.209969 303.46154 
L 111.85886 303.323108 
L 114.958121 302.917989 
L 116.507752 302.551847 
L 118.057382 302.058188 
L 119.607013 301.413957 
L 121.156643 300.550834 
L 122.706274 299.31897 
L 124.255904 297.477149 
L 125.805534 294.735029 
L 127.355165 290.844296 
L 128.904795 285.691173 
L 130.454426 279.321927 
L 132.004056 271.870062 
L 133.553687 263.427149 
L 135.103317 253.939074 
L 136.652948 243.179514 
L 138.202578 230.799187 
L 139.752208 216.434723 
L 141.301839 199.870987 
L 142.851469 181.22802 
L 147.500361 120.614057 
L 149.049991 102.552836 
L 150.599622 86.824792 
L 152.149252 73.302817 
L 153.698882 61.401241 
L 155.248513 50.521355 
L 156.798143 40.468686 
L 158.347774 31.58392 
L 159.897404 24.561314 
L 161.447035 20.139538 
L 162.996665 18.842562 
L 164.546296 20.827211 
L 166.095926 25.861498 
L 167.645556 33.468707 
L 169.195187 43.165535 
L 170.744817 54.59198 
L 172.294448 67.421518 
L 181.59223 149.463959 
L 184.691491 174.923205 
L 186.241122 186.992453 
L 187.790752 198.154962 
L 189.340383 207.972159 
L 190.890013 216.162791 
L 192.439643 222.822866 
L 198.638165 245.49536 
L 200.187796 251.545395 
L 201.737426 257.142974 
L 203.287057 262.012607 
L 206.386317 270.199737 
L 211.035209 281.88374 
L 212.584839 285.175716 
L 214.13447 287.776931 
L 215.6841 289.667278 
L 217.233731 291.012369 
L 220.332991 293.205049 
L 221.882622 294.525767 
L 226.531513 299.027095 
L 228.081144 300.038509 
L 229.630774 300.631166 
L 231.180405 300.898983 
L 235.829296 301.254037 
L 238.928557 301.893844 
L 242.027818 302.68354 
L 245.127079 303.210355 
L 248.226339 303.370757 
L 251.3256 303.213494 
L 254.424861 302.722239 
L 257.524122 302.167435 
L 259.073753 302.063107 
L 260.623383 302.140564 
L 263.722644 302.675191 
L 266.821905 303.192398 
L 269.921166 303.414799 
L 276.119687 303.471337 
L 282.318209 303.407323 
L 285.41747 303.222374 
L 290.066361 302.797762 
L 293.165622 302.813259 
L 300.913774 303.416335 
L 304.013035 303.462075 
L 304.013035 303.462075 
" style="fill:none;stroke:#000000;stroke-linecap:square;stroke-width:2;"/>
   </g>
   <g id="line2d_11">
    <path clip-path="url(#p29db22ce13)" d="M 104.598814 303.444398 
L 108.07918 303.251513 
L 109.819363 302.943184 
L 111.559546 302.353159 
L 113.299729 301.373279 
L 115.039912 299.956348 
L 116.780095 298.15626 
L 120.26046 293.883169 
L 122.000643 291.424747 
L 123.740826 288.406522 
L 125.481009 284.328668 
L 127.221192 278.686418 
L 128.961375 271.183941 
L 130.701558 261.8845 
L 132.441741 251.207569 
L 135.922107 227.92589 
L 139.402473 203.172555 
L 141.142656 189.533383 
L 144.623021 159.189271 
L 148.103387 128.167287 
L 149.84357 114.033681 
L 151.583753 101.251949 
L 153.323936 89.747661 
L 155.064119 79.305016 
L 156.804302 69.809486 
L 158.544485 61.390526 
L 160.284668 54.396391 
L 162.024851 49.295528 
L 163.765034 46.623791 
L 165.505216 46.955495 
L 167.245399 50.772744 
L 168.985582 58.2071 
L 170.725765 68.822412 
L 172.465948 81.645918 
L 177.686497 122.233123 
L 181.166863 145.586076 
L 184.647229 167.788547 
L 189.867777 202.662971 
L 191.60796 213.070218 
L 193.348143 222.032279 
L 195.088326 229.496565 
L 196.828509 235.709315 
L 198.568692 241.04884 
L 202.049058 250.496341 
L 205.529424 259.860549 
L 210.749973 274.365933 
L 212.490155 278.745643 
L 214.230338 282.662861 
L 215.970521 286.057053 
L 217.710704 288.905921 
L 219.450887 291.21706 
L 221.19107 293.027455 
L 222.931253 294.39837 
L 224.671436 295.402667 
L 226.411619 296.114848 
L 228.151802 296.614643 
L 233.372351 297.84245 
L 240.333082 300.071742 
L 243.813448 300.528607 
L 247.293814 300.9589 
L 250.77418 301.779696 
L 254.254546 302.559689 
L 255.994729 302.75526 
L 259.475094 302.774402 
L 264.695643 302.628404 
L 269.916192 302.688283 
L 275.136741 303.082129 
L 280.357289 303.407353 
L 287.318021 303.471808 
L 301.239485 303.423154 
L 304.71985 303.266646 
L 311.680582 302.824688 
L 315.160948 302.982856 
L 320.381497 303.361566 
L 325.602045 303.458258 
L 325.602045 303.458258 
" style="fill:none;stroke:#000000;stroke-dasharray:7.4,3.2;stroke-dashoffset:0;stroke-width:2;"/>
   </g>
   <g id="line2d_12">
    <path clip-path="url(#p29db22ce13)" d="M 53.909621 303.463549 
L 61.381851 303.327691 
L 65.117967 303.05117 
L 68.854082 302.556962 
L 74.458254 301.738144 
L 78.194369 301.500501 
L 81.930485 301.399147 
L 83.798542 301.219121 
L 85.6666 300.834012 
L 87.534657 300.173882 
L 89.402715 299.199013 
L 91.270772 297.899217 
L 93.13883 296.282561 
L 95.006887 294.359504 
L 96.874945 292.130937 
L 98.743003 289.586289 
L 100.61106 286.711174 
L 102.479118 283.497442 
L 104.347175 279.948008 
L 106.215233 276.075485 
L 109.951348 267.460412 
L 115.555521 253.266835 
L 119.291636 244.008821 
L 123.027751 235.399672 
L 126.763866 227.424945 
L 132.368039 215.880643 
L 134.236096 211.527934 
L 136.104154 206.521202 
L 137.972211 200.705413 
L 139.840269 194.117587 
L 145.444441 172.912106 
L 147.312499 166.539281 
L 151.048614 155.112154 
L 158.520844 133.19631 
L 160.388902 128.610799 
L 162.256959 124.977084 
L 164.125017 122.445204 
L 165.993075 121.029221 
L 167.861132 120.667847 
L 169.72919 121.299269 
L 171.597247 122.910921 
L 173.465305 125.547965 
L 175.333362 129.28855 
L 177.20142 134.205763 
L 179.069477 140.332536 
L 180.937535 147.634455 
L 182.805593 155.988742 
L 186.541708 174.865914 
L 190.277823 194.312487 
L 192.14588 203.438821 
L 194.013938 211.952147 
L 197.750053 227.30704 
L 201.486168 241.264407 
L 205.222283 254.392141 
L 208.958398 266.434403 
L 210.826456 271.853746 
L 212.694514 276.755689 
L 214.562571 281.068442 
L 216.430629 284.757328 
L 218.298686 287.840163 
L 220.166744 290.384122 
L 222.034801 292.483025 
L 223.902859 294.22698 
L 225.770916 295.680487 
L 227.638974 296.878104 
L 229.507032 297.835555 
L 231.375089 298.566834 
L 233.243147 299.097687 
L 236.979262 299.739016 
L 242.583434 300.437071 
L 246.31955 301.079462 
L 253.79178 302.525692 
L 257.527895 303.008349 
L 261.26401 303.210496 
L 265.000125 303.18074 
L 272.472355 303.004778 
L 278.076528 303.17014 
L 285.548758 303.421324 
L 291.152931 303.464517 
L 291.152931 303.464517 
" style="fill:none;stroke:#000000;stroke-dasharray:2,3.3;stroke-dashoffset:0;stroke-width:2;"/>
   </g>
   <g id="patch_3">
    <path d="M 40.325 303.472724 
L 40.325 4.611057 
" style="fill:none;stroke:#000000;stroke-linecap:square;stroke-linejoin:miter;stroke-width:0.8;"/>
   </g>
   <g id="patch_4">
    <path d="M 40.325 303.472724 
L 339.186667 303.472724 
" style="fill:none;stroke:#000000;stroke-linecap:square;stroke-linejoin:miter;stroke-width:0.8;"/>
   </g>
  </g>
  <g id="axes_2">
   <g id="patch_5">
    <path d="M 394.171667 303.472724 
L 693.033333 303.472724 
L 693.033333 4.611057 
L 394.171667 4.611057 
z
" style="fill:#ffffff;"/>
   </g>
   <g id="matplotlib.axis_3">
    <g id="xtick_5">
     <g id="line2d_13">
      <g>
       <use style="stroke:#000000;stroke-width:1.6;" x="458.489198" xlink:href="#ma4eca8731f" y="303.472724"/>
      </g>
     </g>
     <g id="text_10">
      <!-- −0.05 -->
      <defs>
       <path d="M 10.59375 35.5 
L 73.1875 35.5 
L 73.1875 27.203125 
L 10.59375 27.203125 
z
" id="DejaVuSans-8722"/>
      </defs>
      <g transform="translate(427.843886 333.369599)scale(0.2 -0.2)">
       <use xlink:href="#DejaVuSans-8722"/>
       <use x="83.789062" xlink:href="#DejaVuSans-48"/>
       <use x="147.412109" xlink:href="#DejaVuSans-46"/>
       <use x="179.199219" xlink:href="#DejaVuSans-48"/>
       <use x="242.822266" xlink:href="#DejaVuSans-53"/>
      </g>
     </g>
    </g>
    <g id="xtick_6">
     <g id="line2d_14">
      <g>
       <use style="stroke:#000000;stroke-width:1.6;" x="547.840842" xlink:href="#ma4eca8731f" y="303.472724"/>
      </g>
     </g>
     <g id="text_11">
      <!-- 0.00 -->
      <g transform="translate(525.575217 333.369599)scale(0.2 -0.2)">
       <use xlink:href="#DejaVuSans-48"/>
       <use x="63.623047" xlink:href="#DejaVuSans-46"/>
       <use x="95.410156" xlink:href="#DejaVuSans-48"/>
       <use x="159.033203" xlink:href="#DejaVuSans-48"/>
      </g>
     </g>
    </g>
    <g id="xtick_7">
     <g id="line2d_15">
      <g>
       <use style="stroke:#000000;stroke-width:1.6;" x="637.192487" xlink:href="#ma4eca8731f" y="303.472724"/>
      </g>
     </g>
     <g id="text_12">
      <!-- 0.05 -->
      <g transform="translate(614.926862 333.369599)scale(0.2 -0.2)">
       <use xlink:href="#DejaVuSans-48"/>
       <use x="63.623047" xlink:href="#DejaVuSans-46"/>
       <use x="95.410156" xlink:href="#DejaVuSans-48"/>
       <use x="159.033203" xlink:href="#DejaVuSans-53"/>
      </g>
     </g>
    </g>
   </g>
   <g id="matplotlib.axis_4">
    <g id="ytick_6">
     <g id="line2d_16">
      <g>
       <use style="stroke:#000000;stroke-width:1.6;" x="394.171667" xlink:href="#mf0530c5b2d" y="303.472724"/>
      </g>
     </g>
     <g id="text_13">
      <!-- 0 -->
      <g transform="translate(366.746667 311.071162)scale(0.2 -0.2)">
       <use xlink:href="#DejaVuSans-48"/>
      </g>
     </g>
    </g>
    <g id="ytick_7">
     <g id="line2d_17">
      <g>
       <use style="stroke:#000000;stroke-width:1.6;" x="394.171667" xlink:href="#mf0530c5b2d" y="245.46975"/>
      </g>
     </g>
     <g id="text_14">
      <!-- 5 -->
      <g transform="translate(366.746667 253.068188)scale(0.2 -0.2)">
       <use xlink:href="#DejaVuSans-53"/>
      </g>
     </g>
    </g>
    <g id="ytick_8">
     <g id="line2d_18">
      <g>
       <use style="stroke:#000000;stroke-width:1.6;" x="394.171667" xlink:href="#mf0530c5b2d" y="187.466776"/>
      </g>
     </g>
     <g id="text_15">
      <!-- 10 -->
      <g transform="translate(354.021667 195.065213)scale(0.2 -0.2)">
       <use xlink:href="#DejaVuSans-49"/>
       <use x="63.623047" xlink:href="#DejaVuSans-48"/>
      </g>
     </g>
    </g>
    <g id="ytick_9">
     <g id="line2d_19">
      <g>
       <use style="stroke:#000000;stroke-width:1.6;" x="394.171667" xlink:href="#mf0530c5b2d" y="129.463802"/>
      </g>
     </g>
     <g id="text_16">
      <!-- 15 -->
      <g transform="translate(354.021667 137.062239)scale(0.2 -0.2)">
       <use xlink:href="#DejaVuSans-49"/>
       <use x="63.623047" xlink:href="#DejaVuSans-53"/>
      </g>
     </g>
    </g>
    <g id="ytick_10">
     <g id="line2d_20">
      <g>
       <use style="stroke:#000000;stroke-width:1.6;" x="394.171667" xlink:href="#mf0530c5b2d" y="71.460828"/>
      </g>
     </g>
     <g id="text_17">
      <!-- 20 -->
      <g transform="translate(354.021667 79.059265)scale(0.2 -0.2)">
       <use xlink:href="#DejaVuSans-50"/>
       <use x="63.623047" xlink:href="#DejaVuSans-48"/>
      </g>
     </g>
    </g>
    <g id="ytick_11">
     <g id="line2d_21">
      <g>
       <use style="stroke:#000000;stroke-width:1.6;" x="394.171667" xlink:href="#mf0530c5b2d" y="13.457854"/>
      </g>
     </g>
     <g id="text_18">
      <!-- 25 -->
      <g transform="translate(354.021667 21.056291)scale(0.2 -0.2)">
       <use xlink:href="#DejaVuSans-50"/>
       <use x="63.623047" xlink:href="#DejaVuSans-53"/>
      </g>
     </g>
    </g>
   </g>
   <g id="line2d_22">
    <path clip-path="url(#p7286f389e0)" d="M 0 0 
" style="fill:none;stroke:#000000;stroke-linecap:square;stroke-width:2;"/>
   </g>
   <g id="line2d_23">
    <path clip-path="url(#p7286f389e0)" d="M 0 0 
" style="fill:none;stroke:#000000;stroke-dasharray:7.4,3.2;stroke-dashoffset:0;stroke-width:2;"/>
   </g>
   <g id="patch_6">
    <path style="fill:none;stroke:#000000;stroke-linecap:square;stroke-linejoin:miter;stroke-width:0.8;"/>
   </g>
   <g id="patch_7">
    <path style="fill:none;stroke:#000000;stroke-linecap:square;stroke-linejoin:miter;stroke-width:0.8;"/>
   </g>
  </g>
 </g>
 <defs>
  <clipPath id="p29db22ce13">
   <rect height="298.861667" width="298.861667" x="40.325" y="4.611057"/>
  </clipPath>
  <clipPath id="p7286f389e0">
   <rect height="298.861667" width="298.861667" x="394.171667" y="4.611057"/>
  </clipPath>
 </defs>
</svg>
