<?xml version="1.0" encoding="utf-8" standalone="no"?>
<!DOCTYPE svg PUBLIC "-//W3C//DTD SVG 1.1//EN"
  "http://www.w3.org/Graphics/SVG/1.1/DTD/svg11.dtd">
<!-- Created with matplotlib (https://matplotlib.org/) -->
<svg height="316.936667pt" version="1.1" viewBox="0 0 342.686667 316.936667" width="342.686667pt" xmlns="http://www.w3.org/2000/svg" xmlns:xlink="http://www.w3.org/1999/xlink">
 <defs>
  <style type="text/css">
*{stroke-linecap:butt;stroke-linejoin:round;}
  </style>
 </defs>
 <g id="figure_1">
  <g id="patch_1">
   <path d="M 0 316.936667 
L 342.686667 316.936667 
L 342.686667 0 
L 0 0 
z
" style="fill:#ffffff;"/>
  </g>
  <g id="axes_1">
   <g id="patch_2">
    <path d="M 59.45 283.236667 
L 339.186667 283.236667 
L 339.186667 3.5 
L 59.45 3.5 
z
" style="fill:#ffffff;"/>
   </g>
   <g id="matplotlib.axis_1">
    <g id="xtick_1">
     <g id="line2d_1">
      <defs>
       <path d="M 0 0 
L 0 3.5 
" id="mbc674ff2ed" style="stroke:#000000;stroke-width:1.6;"/>
      </defs>
      <g>
       <use style="stroke:#000000;stroke-width:1.6;" x="65.109587" xlink:href="#mbc674ff2ed" y="283.236667"/>
      </g>
     </g>
     <g id="text_1">
      <!-- 0.0 -->
      <defs>
       <path d="M 31.78125 66.40625 
Q 24.171875 66.40625 20.328125 58.90625 
Q 16.5 51.421875 16.5 36.375 
Q 16.5 21.390625 20.328125 13.890625 
Q 24.171875 6.390625 31.78125 6.390625 
Q 39.453125 6.390625 43.28125 13.890625 
Q 47.125 21.390625 47.125 36.375 
Q 47.125 51.421875 43.28125 58.90625 
Q 39.453125 66.40625 31.78125 66.40625 
z
M 31.78125 74.21875 
Q 44.046875 74.21875 50.515625 64.515625 
Q 56.984375 54.828125 56.984375 36.375 
Q 56.984375 17.96875 50.515625 8.265625 
Q 44.046875 -1.421875 31.78125 -1.421875 
Q 19.53125 -1.421875 13.0625 8.265625 
Q 6.59375 17.96875 6.59375 36.375 
Q 6.59375 54.828125 13.0625 64.515625 
Q 19.53125 74.21875 31.78125 74.21875 
z
" id="DejaVuSans-48"/>
       <path d="M 10.6875 12.40625 
L 21 12.40625 
L 21 0 
L 10.6875 0 
z
" id="DejaVuSans-46"/>
      </defs>
      <g transform="translate(49.206462 313.133542)scale(0.2 -0.2)">
       <use xlink:href="#DejaVuSans-48"/>
       <use x="63.623047" xlink:href="#DejaVuSans-46"/>
       <use x="95.410156" xlink:href="#DejaVuSans-48"/>
      </g>
     </g>
    </g>
    <g id="xtick_2">
     <g id="line2d_2">
      <g>
       <use style="stroke:#000000;stroke-width:1.6;" x="162.939278" xlink:href="#mbc674ff2ed" y="283.236667"/>
      </g>
     </g>
     <g id="text_2">
      <!-- 0.2 -->
      <defs>
       <path d="M 19.1875 8.296875 
L 53.609375 8.296875 
L 53.609375 0 
L 7.328125 0 
L 7.328125 8.296875 
Q 12.9375 14.109375 22.625 23.890625 
Q 32.328125 33.6875 34.8125 36.53125 
Q 39.546875 41.84375 41.421875 45.53125 
Q 43.3125 49.21875 43.3125 52.78125 
Q 43.3125 58.59375 39.234375 62.25 
Q 35.15625 65.921875 28.609375 65.921875 
Q 23.96875 65.921875 18.8125 64.3125 
Q 13.671875 62.703125 7.8125 59.421875 
L 7.8125 69.390625 
Q 13.765625 71.78125 18.9375 73 
Q 24.125 74.21875 28.421875 74.21875 
Q 39.75 74.21875 46.484375 68.546875 
Q 53.21875 62.890625 53.21875 53.421875 
Q 53.21875 48.921875 51.53125 44.890625 
Q 49.859375 40.875 45.40625 35.40625 
Q 44.1875 33.984375 37.640625 27.21875 
Q 31.109375 20.453125 19.1875 8.296875 
z
" id="DejaVuSans-50"/>
      </defs>
      <g transform="translate(147.036153 313.133542)scale(0.2 -0.2)">
       <use xlink:href="#DejaVuSans-48"/>
       <use x="63.623047" xlink:href="#DejaVuSans-46"/>
       <use x="95.410156" xlink:href="#DejaVuSans-50"/>
      </g>
     </g>
    </g>
    <g id="xtick_3">
     <g id="line2d_3">
      <g>
       <use style="stroke:#000000;stroke-width:1.6;" x="260.768969" xlink:href="#mbc674ff2ed" y="283.236667"/>
      </g>
     </g>
     <g id="text_3">
      <!-- 0.4 -->
      <defs>
       <path d="M 37.796875 64.3125 
L 12.890625 25.390625 
L 37.796875 25.390625 
z
M 35.203125 72.90625 
L 47.609375 72.90625 
L 47.609375 25.390625 
L 58.015625 25.390625 
L 58.015625 17.1875 
L 47.609375 17.1875 
L 47.609375 0 
L 37.796875 0 
L 37.796875 17.1875 
L 4.890625 17.1875 
L 4.890625 26.703125 
z
" id="DejaVuSans-52"/>
      </defs>
      <g transform="translate(244.865844 313.133542)scale(0.2 -0.2)">
       <use xlink:href="#DejaVuSans-48"/>
       <use x="63.623047" xlink:href="#DejaVuSans-46"/>
       <use x="95.410156" xlink:href="#DejaVuSans-52"/>
      </g>
     </g>
    </g>
   </g>
   <g id="matplotlib.axis_2">
    <g id="ytick_1">
     <g id="line2d_4">
      <defs>
       <path d="M 0 0 
L -3.5 0 
" id="m502013eeae" style="stroke:#000000;stroke-width:1.6;"/>
      </defs>
      <g>
       <use style="stroke:#000000;stroke-width:1.6;" x="59.45" xlink:href="#m502013eeae" y="283.236667"/>
      </g>
     </g>
     <g id="text_4">
      <!-- 0.0 -->
      <g transform="translate(12.94375 290.835104)scale(0.2 -0.2)">
       <use xlink:href="#DejaVuSans-48"/>
       <use x="63.623047" xlink:href="#DejaVuSans-46"/>
       <use x="95.410156" xlink:href="#DejaVuSans-48"/>
      </g>
     </g>
    </g>
    <g id="ytick_2">
     <g id="line2d_5">
      <g>
       <use style="stroke:#000000;stroke-width:1.6;" x="59.45" xlink:href="#m502013eeae" y="230.90737"/>
      </g>
     </g>
     <g id="text_5">
      <!-- 2.5 -->
      <defs>
       <path d="M 10.796875 72.90625 
L 49.515625 72.90625 
L 49.515625 64.59375 
L 19.828125 64.59375 
L 19.828125 46.734375 
Q 21.96875 47.46875 24.109375 47.828125 
Q 26.265625 48.1875 28.421875 48.1875 
Q 40.625 48.1875 47.75 41.5 
Q 54.890625 34.8125 54.890625 23.390625 
Q 54.890625 11.625 47.5625 5.09375 
Q 40.234375 -1.421875 26.90625 -1.421875 
Q 22.3125 -1.421875 17.546875 -0.640625 
Q 12.796875 0.140625 7.71875 1.703125 
L 7.71875 11.625 
Q 12.109375 9.234375 16.796875 8.0625 
Q 21.484375 6.890625 26.703125 6.890625 
Q 35.15625 6.890625 40.078125 11.328125 
Q 45.015625 15.765625 45.015625 23.390625 
Q 45.015625 31 40.078125 35.4375 
Q 35.15625 39.890625 26.703125 39.890625 
Q 22.75 39.890625 18.8125 39.015625 
Q 14.890625 38.140625 10.796875 36.28125 
z
" id="DejaVuSans-53"/>
      </defs>
      <g transform="translate(12.94375 238.505807)scale(0.2 -0.2)">
       <use xlink:href="#DejaVuSans-50"/>
       <use x="63.623047" xlink:href="#DejaVuSans-46"/>
       <use x="95.410156" xlink:href="#DejaVuSans-53"/>
      </g>
     </g>
    </g>
    <g id="ytick_3">
     <g id="line2d_6">
      <g>
       <use style="stroke:#000000;stroke-width:1.6;" x="59.45" xlink:href="#m502013eeae" y="178.578072"/>
      </g>
     </g>
     <g id="text_6">
      <!-- 5.0 -->
      <g transform="translate(12.94375 186.17651)scale(0.2 -0.2)">
       <use xlink:href="#DejaVuSans-53"/>
       <use x="63.623047" xlink:href="#DejaVuSans-46"/>
       <use x="95.410156" xlink:href="#DejaVuSans-48"/>
      </g>
     </g>
    </g>
    <g id="ytick_4">
     <g id="line2d_7">
      <g>
       <use style="stroke:#000000;stroke-width:1.6;" x="59.45" xlink:href="#m502013eeae" y="126.248775"/>
      </g>
     </g>
     <g id="text_7">
      <!-- 7.5 -->
      <defs>
       <path d="M 8.203125 72.90625 
L 55.078125 72.90625 
L 55.078125 68.703125 
L 28.609375 0 
L 18.3125 0 
L 43.21875 64.59375 
L 8.203125 64.59375 
z
" id="DejaVuSans-55"/>
      </defs>
      <g transform="translate(12.94375 133.847213)scale(0.2 -0.2)">
       <use xlink:href="#DejaVuSans-55"/>
       <use x="63.623047" xlink:href="#DejaVuSans-46"/>
       <use x="95.410156" xlink:href="#DejaVuSans-53"/>
      </g>
     </g>
    </g>
    <g id="ytick_5">
     <g id="line2d_8">
      <g>
       <use style="stroke:#000000;stroke-width:1.6;" x="59.45" xlink:href="#m502013eeae" y="73.919478"/>
      </g>
     </g>
     <g id="text_8">
      <!-- 10.0 -->
      <defs>
       <path d="M 12.40625 8.296875 
L 28.515625 8.296875 
L 28.515625 63.921875 
L 10.984375 60.40625 
L 10.984375 69.390625 
L 28.421875 72.90625 
L 38.28125 72.90625 
L 38.28125 8.296875 
L 54.390625 8.296875 
L 54.390625 0 
L 12.40625 0 
z
" id="DejaVuSans-49"/>
      </defs>
      <g transform="translate(0.21875 81.517916)scale(0.2 -0.2)">
       <use xlink:href="#DejaVuSans-49"/>
       <use x="63.623047" xlink:href="#DejaVuSans-48"/>
       <use x="127.246094" xlink:href="#DejaVuSans-46"/>
       <use x="159.033203" xlink:href="#DejaVuSans-48"/>
      </g>
     </g>
    </g>
    <g id="ytick_6">
     <g id="line2d_9">
      <g>
       <use style="stroke:#000000;stroke-width:1.6;" x="59.45" xlink:href="#m502013eeae" y="21.590181"/>
      </g>
     </g>
     <g id="text_9">
      <!-- 12.5 -->
      <g transform="translate(0.21875 29.188619)scale(0.2 -0.2)">
       <use xlink:href="#DejaVuSans-49"/>
       <use x="63.623047" xlink:href="#DejaVuSans-50"/>
       <use x="127.246094" xlink:href="#DejaVuSans-46"/>
       <use x="159.033203" xlink:href="#DejaVuSans-53"/>
      </g>
     </g>
    </g>
   </g>
   <g id="line2d_10">
    <path clip-path="url(#p0371148dbc)" d="M 84.380424 283.231983 
L 89.342484 283.117312 
L 91.823515 282.894973 
L 94.304545 282.506978 
L 95.54506 282.19413 
L 96.785575 281.702748 
L 98.026091 280.905745 
L 99.266606 279.657266 
L 100.507121 277.828015 
L 101.747636 275.333005 
L 102.988151 272.128658 
L 104.228666 268.167388 
L 105.469182 263.326743 
L 106.709697 257.360765 
L 107.950212 249.919806 
L 109.190727 240.639481 
L 110.431242 229.251209 
L 111.671757 215.668092 
L 112.912273 200.039688 
L 115.393303 164.561363 
L 117.874333 128.322567 
L 120.355364 96.074208 
L 121.595879 82.201124 
L 122.836394 70.227726 
L 124.076909 60.474837 
L 125.317424 53.031618 
L 126.55794 47.587647 
L 127.798455 43.514444 
L 129.03897 40.169168 
L 130.279485 37.229102 
L 131.52 34.867678 
L 132.760515 33.690512 
L 134.001031 34.458458 
L 135.241546 37.706747 
L 136.482061 43.435071 
L 137.722576 51.050719 
L 143.925152 93.182804 
L 155.089789 168.565383 
L 160.051849 203.956722 
L 161.292364 211.297887 
L 162.53288 217.29285 
L 163.773395 221.955085 
L 165.01391 225.529707 
L 166.254425 228.390762 
L 168.735456 233.547202 
L 169.975971 236.412527 
L 172.457001 242.956578 
L 174.938031 249.686177 
L 177.419062 255.672254 
L 179.900092 260.744753 
L 181.140607 262.986298 
L 182.381122 264.996916 
L 183.621638 266.696236 
L 184.862153 268.008994 
L 186.102668 268.91952 
L 187.343183 269.501121 
L 189.824213 270.3221 
L 191.064729 270.900241 
L 192.305244 271.700278 
L 197.267305 275.568426 
L 199.748335 277.120736 
L 202.229365 278.401918 
L 204.710396 279.296555 
L 209.672456 280.668005 
L 210.912971 280.856235 
L 213.394002 280.885984 
L 215.875032 280.808293 
L 217.115547 280.90178 
L 219.596578 281.445601 
L 223.318123 282.431732 
L 225.799154 282.711794 
L 241.925851 283.232327 
L 241.925851 283.232327 
" style="fill:none;stroke:#000000;stroke-linecap:square;stroke-width:2;"/>
   </g>
   <g id="line2d_11">
    <path clip-path="url(#p0371148dbc)" d="M 72.165303 283.23325 
L 78.172533 283.162806 
L 82.177353 282.859646 
L 84.179763 282.485114 
L 86.182173 281.837073 
L 88.184582 280.780485 
L 90.186992 279.148699 
L 92.189402 276.754924 
L 94.191812 273.414704 
L 96.194222 268.976993 
L 98.196632 263.358017 
L 100.199042 256.562028 
L 102.201452 248.65394 
L 104.203862 239.664464 
L 106.206272 229.501399 
L 108.208682 218.01664 
L 110.211092 205.262157 
L 116.218321 165.127496 
L 118.220731 152.946845 
L 120.223141 141.488924 
L 122.225551 130.8232 
L 124.227961 121.409438 
L 126.230371 113.898282 
L 128.232781 108.748885 
L 130.235191 106.034191 
L 132.237601 105.52328 
L 134.240011 106.874151 
L 136.242421 109.770965 
L 138.244831 113.954718 
L 140.247241 119.1631 
L 156.26652 165.955049 
L 162.27375 182.79626 
L 164.27616 189.093534 
L 170.283389 210.268347 
L 172.285799 216.389226 
L 174.288209 221.591894 
L 176.290619 226.117546 
L 186.302669 246.984909 
L 188.305079 250.857503 
L 190.307489 254.43201 
L 192.309899 257.668086 
L 194.312309 260.535475 
L 196.314718 262.983116 
L 198.317128 264.953852 
L 200.319538 266.446818 
L 202.321948 267.5664 
L 206.326768 269.45727 
L 208.329178 270.559679 
L 212.333998 273.237815 
L 216.338818 275.964248 
L 218.341228 277.06071 
L 220.343638 277.878834 
L 222.346047 278.442612 
L 226.350867 279.311895 
L 228.353277 279.884634 
L 234.360507 281.985738 
L 236.362917 282.454772 
L 238.365327 282.730602 
L 242.370147 282.866535 
L 246.374967 282.615056 
L 252.382196 281.896788 
L 254.384606 281.829853 
L 256.387016 281.921726 
L 266.399066 282.976495 
L 272.406296 283.194581 
L 284.420755 283.236642 
L 306.447264 283.133766 
L 312.454494 283.046809 
L 326.471364 283.233655 
L 326.471364 283.233655 
" style="fill:none;stroke:#000000;stroke-dasharray:7.4,3.2;stroke-dashoffset:0;stroke-width:2;"/>
   </g>
   <g id="line2d_12">
    <path clip-path="url(#p0371148dbc)" d="M 79.812144 283.23086 
L 83.376059 283.14745 
L 85.752003 282.860798 
L 86.939975 282.562382 
L 88.127947 282.106912 
L 89.315919 281.435785 
L 90.50389 280.459326 
L 91.691862 279.046543 
L 92.879834 277.031794 
L 94.067806 274.241295 
L 95.255778 270.524735 
L 96.44375 265.769917 
L 97.631722 259.896115 
L 98.819694 252.847585 
L 100.007665 244.603224 
L 101.195637 235.178633 
L 102.383609 224.580922 
L 103.571581 212.730496 
L 104.759553 199.436839 
L 105.947525 184.503715 
L 108.323469 150.039661 
L 111.887384 95.601789 
L 113.075356 79.510391 
L 114.263328 65.227895 
L 115.4513 53.083982 
L 116.639272 43.348276 
L 117.827244 36.081825 
L 119.015215 30.965522 
L 120.203187 27.303585 
L 122.579131 21.367542 
L 123.767103 18.635146 
L 124.955075 16.820794 
L 126.143047 17.032955 
L 127.331019 20.219308 
L 128.51899 26.66009 
L 129.706962 35.784317 
L 134.45885 77.711686 
L 139.210737 116.701265 
L 148.714512 195.280932 
L 149.902484 202.313531 
L 151.090456 207.761007 
L 152.278428 212.007571 
L 155.842344 222.93211 
L 165.346119 254.842426 
L 166.534091 258.06595 
L 167.722062 260.669233 
L 168.910034 262.652991 
L 170.098006 264.119319 
L 171.285978 265.220849 
L 173.661922 266.921095 
L 176.037866 268.632853 
L 177.225837 269.664494 
L 178.413809 270.868242 
L 180.789753 273.721441 
L 183.165697 276.732038 
L 184.353669 278.090999 
L 185.541641 279.236917 
L 186.729612 280.108438 
L 187.917584 280.698637 
L 189.105556 281.056265 
L 191.4815 281.358259 
L 196.233387 281.622215 
L 200.985275 282.086728 
L 204.549191 282.163286 
L 209.301078 282.15753 
L 212.864994 282.468664 
L 216.428909 282.717187 
L 222.368769 282.713592 
L 227.120656 283.157381 
L 230.684572 283.230826 
L 230.684572 283.230826 
" style="fill:none;stroke:#000000;stroke-dasharray:2,3.3;stroke-dashoffset:0;stroke-width:2;"/>
   </g>
   <g id="patch_3">
    <path d="M 59.45 283.236667 
L 59.45 3.5 
" style="fill:none;stroke:#000000;stroke-linecap:square;stroke-linejoin:miter;stroke-width:0.8;"/>
   </g>
   <g id="patch_4">
    <path d="M 59.45 283.236667 
L 339.186667 283.236667 
" style="fill:none;stroke:#000000;stroke-linecap:square;stroke-linejoin:miter;stroke-width:0.8;"/>
   </g>
  </g>
  <g id="axes_2">
   <g id="patch_5">
    <path d="M 413.296667 283.236667 
L 693.033333 283.236667 
L 693.033333 3.5 
L 413.296667 3.5 
z
" style="fill:#ffffff;"/>
   </g>
   <g id="matplotlib.axis_3">
    <g id="xtick_4">
     <g id="line2d_13">
      <g>
       <use style="stroke:#000000;stroke-width:1.6;" x="419.919782" xlink:href="#mbc674ff2ed" y="283.236667"/>
      </g>
     </g>
     <g id="text_10">
      <!-- −0.4 -->
      <defs>
       <path d="M 10.59375 35.5 
L 73.1875 35.5 
L 73.1875 27.203125 
L 10.59375 27.203125 
z
" id="DejaVuSans-8722"/>
      </defs>
      <g transform="translate(395.636969 313.133542)scale(0.2 -0.2)">
       <use xlink:href="#DejaVuSans-8722"/>
       <use x="83.789062" xlink:href="#DejaVuSans-48"/>
       <use x="147.412109" xlink:href="#DejaVuSans-46"/>
       <use x="179.199219" xlink:href="#DejaVuSans-52"/>
      </g>
     </g>
    </g>
    <g id="xtick_5">
     <g id="line2d_14">
      <g>
       <use style="stroke:#000000;stroke-width:1.6;" x="501.546042" xlink:href="#mbc674ff2ed" y="283.236667"/>
      </g>
     </g>
     <g id="text_11">
      <!-- −0.2 -->
      <g transform="translate(477.263229 313.133542)scale(0.2 -0.2)">
       <use xlink:href="#DejaVuSans-8722"/>
       <use x="83.789062" xlink:href="#DejaVuSans-48"/>
       <use x="147.412109" xlink:href="#DejaVuSans-46"/>
       <use x="179.199219" xlink:href="#DejaVuSans-50"/>
      </g>
     </g>
    </g>
    <g id="xtick_6">
     <g id="line2d_15">
      <g>
       <use style="stroke:#000000;stroke-width:1.6;" x="583.172302" xlink:href="#mbc674ff2ed" y="283.236667"/>
      </g>
     </g>
     <g id="text_12">
      <!-- 0.0 -->
      <g transform="translate(567.269177 313.133542)scale(0.2 -0.2)">
       <use xlink:href="#DejaVuSans-48"/>
       <use x="63.623047" xlink:href="#DejaVuSans-46"/>
       <use x="95.410156" xlink:href="#DejaVuSans-48"/>
      </g>
     </g>
    </g>
    <g id="xtick_7">
     <g id="line2d_16">
      <g>
       <use style="stroke:#000000;stroke-width:1.6;" x="664.798562" xlink:href="#mbc674ff2ed" y="283.236667"/>
      </g>
     </g>
     <g id="text_13">
      <!-- 0.2 -->
      <g transform="translate(648.895437 313.133542)scale(0.2 -0.2)">
       <use xlink:href="#DejaVuSans-48"/>
       <use x="63.623047" xlink:href="#DejaVuSans-46"/>
       <use x="95.410156" xlink:href="#DejaVuSans-50"/>
      </g>
     </g>
    </g>
   </g>
   <g id="matplotlib.axis_4">
    <g id="ytick_7">
     <g id="line2d_17">
      <g>
       <use style="stroke:#000000;stroke-width:1.6;" x="413.296667" xlink:href="#m502013eeae" y="283.236667"/>
      </g>
     </g>
     <g id="text_14">
      <!-- 0.0 -->
      <g transform="translate(366.790417 290.835104)scale(0.2 -0.2)">
       <use xlink:href="#DejaVuSans-48"/>
       <use x="63.623047" xlink:href="#DejaVuSans-46"/>
       <use x="95.410156" xlink:href="#DejaVuSans-48"/>
      </g>
     </g>
    </g>
    <g id="ytick_8">
     <g id="line2d_18">
      <g>
       <use style="stroke:#000000;stroke-width:1.6;" x="413.296667" xlink:href="#m502013eeae" y="225.705076"/>
      </g>
     </g>
     <g id="text_15">
      <!-- 2.5 -->
      <g transform="translate(366.790417 233.303513)scale(0.2 -0.2)">
       <use xlink:href="#DejaVuSans-50"/>
       <use x="63.623047" xlink:href="#DejaVuSans-46"/>
       <use x="95.410156" xlink:href="#DejaVuSans-53"/>
      </g>
     </g>
    </g>
    <g id="ytick_9">
     <g id="line2d_19">
      <g>
       <use style="stroke:#000000;stroke-width:1.6;" x="413.296667" xlink:href="#m502013eeae" y="168.173484"/>
      </g>
     </g>
     <g id="text_16">
      <!-- 5.0 -->
      <g transform="translate(366.790417 175.771922)scale(0.2 -0.2)">
       <use xlink:href="#DejaVuSans-53"/>
       <use x="63.623047" xlink:href="#DejaVuSans-46"/>
       <use x="95.410156" xlink:href="#DejaVuSans-48"/>
      </g>
     </g>
    </g>
    <g id="ytick_10">
     <g id="line2d_20">
      <g>
       <use style="stroke:#000000;stroke-width:1.6;" x="413.296667" xlink:href="#m502013eeae" y="110.641893"/>
      </g>
     </g>
     <g id="text_17">
      <!-- 7.5 -->
      <g transform="translate(366.790417 118.240331)scale(0.2 -0.2)">
       <use xlink:href="#DejaVuSans-55"/>
       <use x="63.623047" xlink:href="#DejaVuSans-46"/>
       <use x="95.410156" xlink:href="#DejaVuSans-53"/>
      </g>
     </g>
    </g>
    <g id="ytick_11">
     <g id="line2d_21">
      <g>
       <use style="stroke:#000000;stroke-width:1.6;" x="413.296667" xlink:href="#m502013eeae" y="53.110302"/>
      </g>
     </g>
     <g id="text_18">
      <!-- 10.0 -->
      <g transform="translate(354.065417 60.70874)scale(0.2 -0.2)">
       <use xlink:href="#DejaVuSans-49"/>
       <use x="63.623047" xlink:href="#DejaVuSans-48"/>
       <use x="127.246094" xlink:href="#DejaVuSans-46"/>
       <use x="159.033203" xlink:href="#DejaVuSans-48"/>
      </g>
     </g>
    </g>
   </g>
   <g id="line2d_22">
    <path clip-path="url(#p9a586d563a)" d="M 0 0 
" style="fill:none;stroke:#000000;stroke-linecap:square;stroke-width:2;"/>
   </g>
   <g id="line2d_23">
    <path clip-path="url(#p9a586d563a)" d="M 0 0 
" style="fill:none;stroke:#000000;stroke-dasharray:7.4,3.2;stroke-dashoffset:0;stroke-width:2;"/>
   </g>
   <g id="patch_6">
    <path style="fill:none;stroke:#000000;stroke-linecap:square;stroke-linejoin:miter;stroke-width:0.8;"/>
   </g>
   <g id="patch_7">
    <path style="fill:none;stroke:#000000;stroke-linecap:square;stroke-linejoin:miter;stroke-width:0.8;"/>
   </g>
  </g>
 </g>
 <defs>
  <clipPath id="p0371148dbc">
   <rect height="279.736667" width="279.736667" x="59.45" y="3.5"/>
  </clipPath>
  <clipPath id="p9a586d563a">
   <rect height="279.736667" width="279.736667" x="413.296667" y="3.5"/>
  </clipPath>
 </defs>
</svg>
