<?xml version="1.0" encoding="utf-8" standalone="no"?>
<!DOCTYPE svg PUBLIC "-//W3C//DTD SVG 1.1//EN"
  "http://www.w3.org/Graphics/SVG/1.1/DTD/svg11.dtd">
<!-- Created with matplotlib (https://matplotlib.org/) -->
<svg height="338.186667pt" version="1.1" viewBox="0 0 344.811667 338.186667" width="344.811667pt" xmlns="http://www.w3.org/2000/svg" xmlns:xlink="http://www.w3.org/1999/xlink">
 <defs>
  <style type="text/css">
*{stroke-linecap:butt;stroke-linejoin:round;}
  </style>
 </defs>
 <g id="figure_1">
  <g id="patch_1">
   <path d="M 0 338.186667 
L 344.811667 338.186667 
L 344.811667 -0 
L 0 -0 
z
" style="fill:#ffffff;"/>
  </g>
  <g id="axes_1">
   <g id="patch_2">
    <path d="M 40.325 304.486667 
L 341.311667 304.486667 
L 341.311667 3.5 
L 40.325 3.5 
z
" style="fill:#ffffff;"/>
   </g>
   <g id="matplotlib.axis_1">
    <g id="xtick_1">
     <g id="line2d_1">
      <defs>
       <path d="M 0 0 
L 0 3.5 
" id="mc4a5ea2e55" style="stroke:#000000;stroke-width:1.6;"/>
      </defs>
      <g>
       <use style="stroke:#000000;stroke-width:1.6;" x="52.77862" xlink:href="#mc4a5ea2e55" y="304.486667"/>
      </g>
     </g>
     <g id="text_1">
      <!-- 0.0 -->
      <defs>
       <path d="M 31.78125 66.40625 
Q 24.171875 66.40625 20.328125 58.90625 
Q 16.5 51.421875 16.5 36.375 
Q 16.5 21.390625 20.328125 13.890625 
Q 24.171875 6.390625 31.78125 6.390625 
Q 39.453125 6.390625 43.28125 13.890625 
Q 47.125 21.390625 47.125 36.375 
Q 47.125 51.421875 43.28125 58.90625 
Q 39.453125 66.40625 31.78125 66.40625 
z
M 31.78125 74.21875 
Q 44.046875 74.21875 50.515625 64.515625 
Q 56.984375 54.828125 56.984375 36.375 
Q 56.984375 17.96875 50.515625 8.265625 
Q 44.046875 -1.421875 31.78125 -1.421875 
Q 19.53125 -1.421875 13.0625 8.265625 
Q 6.59375 17.96875 6.59375 36.375 
Q 6.59375 54.828125 13.0625 64.515625 
Q 19.53125 74.21875 31.78125 74.21875 
z
" id="DejaVuSans-48"/>
       <path d="M 10.6875 12.40625 
L 21 12.40625 
L 21 0 
L 10.6875 0 
z
" id="DejaVuSans-46"/>
      </defs>
      <g transform="translate(36.875495 334.383542)scale(0.2 -0.2)">
       <use xlink:href="#DejaVuSans-48"/>
       <use x="63.623047" xlink:href="#DejaVuSans-46"/>
       <use x="95.410156" xlink:href="#DejaVuSans-48"/>
      </g>
     </g>
    </g>
    <g id="xtick_2">
     <g id="line2d_2">
      <g>
       <use style="stroke:#000000;stroke-width:1.6;" x="114.148361" xlink:href="#mc4a5ea2e55" y="304.486667"/>
      </g>
     </g>
     <g id="text_2">
      <!-- 0.1 -->
      <defs>
       <path d="M 12.40625 8.296875 
L 28.515625 8.296875 
L 28.515625 63.921875 
L 10.984375 60.40625 
L 10.984375 69.390625 
L 28.421875 72.90625 
L 38.28125 72.90625 
L 38.28125 8.296875 
L 54.390625 8.296875 
L 54.390625 0 
L 12.40625 0 
z
" id="DejaVuSans-49"/>
      </defs>
      <g transform="translate(98.245236 334.383542)scale(0.2 -0.2)">
       <use xlink:href="#DejaVuSans-48"/>
       <use x="63.623047" xlink:href="#DejaVuSans-46"/>
       <use x="95.410156" xlink:href="#DejaVuSans-49"/>
      </g>
     </g>
    </g>
    <g id="xtick_3">
     <g id="line2d_3">
      <g>
       <use style="stroke:#000000;stroke-width:1.6;" x="175.518101" xlink:href="#mc4a5ea2e55" y="304.486667"/>
      </g>
     </g>
     <g id="text_3">
      <!-- 0.2 -->
      <defs>
       <path d="M 19.1875 8.296875 
L 53.609375 8.296875 
L 53.609375 0 
L 7.328125 0 
L 7.328125 8.296875 
Q 12.9375 14.109375 22.625 23.890625 
Q 32.328125 33.6875 34.8125 36.53125 
Q 39.546875 41.84375 41.421875 45.53125 
Q 43.3125 49.21875 43.3125 52.78125 
Q 43.3125 58.59375 39.234375 62.25 
Q 35.15625 65.921875 28.609375 65.921875 
Q 23.96875 65.921875 18.8125 64.3125 
Q 13.671875 62.703125 7.8125 59.421875 
L 7.8125 69.390625 
Q 13.765625 71.78125 18.9375 73 
Q 24.125 74.21875 28.421875 74.21875 
Q 39.75 74.21875 46.484375 68.546875 
Q 53.21875 62.890625 53.21875 53.421875 
Q 53.21875 48.921875 51.53125 44.890625 
Q 49.859375 40.875 45.40625 35.40625 
Q 44.1875 33.984375 37.640625 27.21875 
Q 31.109375 20.453125 19.1875 8.296875 
z
" id="DejaVuSans-50"/>
      </defs>
      <g transform="translate(159.614976 334.383542)scale(0.2 -0.2)">
       <use xlink:href="#DejaVuSans-48"/>
       <use x="63.623047" xlink:href="#DejaVuSans-46"/>
       <use x="95.410156" xlink:href="#DejaVuSans-50"/>
      </g>
     </g>
    </g>
    <g id="xtick_4">
     <g id="line2d_4">
      <g>
       <use style="stroke:#000000;stroke-width:1.6;" x="236.887842" xlink:href="#mc4a5ea2e55" y="304.486667"/>
      </g>
     </g>
     <g id="text_4">
      <!-- 0.3 -->
      <defs>
       <path d="M 40.578125 39.3125 
Q 47.65625 37.796875 51.625 33 
Q 55.609375 28.21875 55.609375 21.1875 
Q 55.609375 10.40625 48.1875 4.484375 
Q 40.765625 -1.421875 27.09375 -1.421875 
Q 22.515625 -1.421875 17.65625 -0.515625 
Q 12.796875 0.390625 7.625 2.203125 
L 7.625 11.71875 
Q 11.71875 9.328125 16.59375 8.109375 
Q 21.484375 6.890625 26.8125 6.890625 
Q 36.078125 6.890625 40.9375 10.546875 
Q 45.796875 14.203125 45.796875 21.1875 
Q 45.796875 27.640625 41.28125 31.265625 
Q 36.765625 34.90625 28.71875 34.90625 
L 20.21875 34.90625 
L 20.21875 43.015625 
L 29.109375 43.015625 
Q 36.375 43.015625 40.234375 45.921875 
Q 44.09375 48.828125 44.09375 54.296875 
Q 44.09375 59.90625 40.109375 62.90625 
Q 36.140625 65.921875 28.71875 65.921875 
Q 24.65625 65.921875 20.015625 65.03125 
Q 15.375 64.15625 9.8125 62.3125 
L 9.8125 71.09375 
Q 15.4375 72.65625 20.34375 73.4375 
Q 25.25 74.21875 29.59375 74.21875 
Q 40.828125 74.21875 47.359375 69.109375 
Q 53.90625 64.015625 53.90625 55.328125 
Q 53.90625 49.265625 50.4375 45.09375 
Q 46.96875 40.921875 40.578125 39.3125 
z
" id="DejaVuSans-51"/>
      </defs>
      <g transform="translate(220.984717 334.383542)scale(0.2 -0.2)">
       <use xlink:href="#DejaVuSans-48"/>
       <use x="63.623047" xlink:href="#DejaVuSans-46"/>
       <use x="95.410156" xlink:href="#DejaVuSans-51"/>
      </g>
     </g>
    </g>
    <g id="xtick_5">
     <g id="line2d_5">
      <g>
       <use style="stroke:#000000;stroke-width:1.6;" x="298.257583" xlink:href="#mc4a5ea2e55" y="304.486667"/>
      </g>
     </g>
     <g id="text_5">
      <!-- 0.4 -->
      <defs>
       <path d="M 37.796875 64.3125 
L 12.890625 25.390625 
L 37.796875 25.390625 
z
M 35.203125 72.90625 
L 47.609375 72.90625 
L 47.609375 25.390625 
L 58.015625 25.390625 
L 58.015625 17.1875 
L 47.609375 17.1875 
L 47.609375 0 
L 37.796875 0 
L 37.796875 17.1875 
L 4.890625 17.1875 
L 4.890625 26.703125 
z
" id="DejaVuSans-52"/>
      </defs>
      <g transform="translate(282.354458 334.383542)scale(0.2 -0.2)">
       <use xlink:href="#DejaVuSans-48"/>
       <use x="63.623047" xlink:href="#DejaVuSans-46"/>
       <use x="95.410156" xlink:href="#DejaVuSans-52"/>
      </g>
     </g>
    </g>
   </g>
   <g id="matplotlib.axis_2">
    <g id="ytick_1">
     <g id="line2d_6">
      <defs>
       <path d="M 0 0 
L -3.5 0 
" id="mae16009726" style="stroke:#000000;stroke-width:1.6;"/>
      </defs>
      <g>
       <use style="stroke:#000000;stroke-width:1.6;" x="40.325" xlink:href="#mae16009726" y="304.486667"/>
      </g>
     </g>
     <g id="text_6">
      <!-- 0 -->
      <g transform="translate(12.9 312.085104)scale(0.2 -0.2)">
       <use xlink:href="#DejaVuSans-48"/>
      </g>
     </g>
    </g>
    <g id="ytick_2">
     <g id="line2d_7">
      <g>
       <use style="stroke:#000000;stroke-width:1.6;" x="40.325" xlink:href="#mae16009726" y="259.655859"/>
      </g>
     </g>
     <g id="text_7">
      <!-- 2 -->
      <g transform="translate(12.9 267.254296)scale(0.2 -0.2)">
       <use xlink:href="#DejaVuSans-50"/>
      </g>
     </g>
    </g>
    <g id="ytick_3">
     <g id="line2d_8">
      <g>
       <use style="stroke:#000000;stroke-width:1.6;" x="40.325" xlink:href="#mae16009726" y="214.825051"/>
      </g>
     </g>
     <g id="text_8">
      <!-- 4 -->
      <g transform="translate(12.9 222.423488)scale(0.2 -0.2)">
       <use xlink:href="#DejaVuSans-52"/>
      </g>
     </g>
    </g>
    <g id="ytick_4">
     <g id="line2d_9">
      <g>
       <use style="stroke:#000000;stroke-width:1.6;" x="40.325" xlink:href="#mae16009726" y="169.994243"/>
      </g>
     </g>
     <g id="text_9">
      <!-- 6 -->
      <defs>
       <path d="M 33.015625 40.375 
Q 26.375 40.375 22.484375 35.828125 
Q 18.609375 31.296875 18.609375 23.390625 
Q 18.609375 15.53125 22.484375 10.953125 
Q 26.375 6.390625 33.015625 6.390625 
Q 39.65625 6.390625 43.53125 10.953125 
Q 47.40625 15.53125 47.40625 23.390625 
Q 47.40625 31.296875 43.53125 35.828125 
Q 39.65625 40.375 33.015625 40.375 
z
M 52.59375 71.296875 
L 52.59375 62.3125 
Q 48.875 64.0625 45.09375 64.984375 
Q 41.3125 65.921875 37.59375 65.921875 
Q 27.828125 65.921875 22.671875 59.328125 
Q 17.53125 52.734375 16.796875 39.40625 
Q 19.671875 43.65625 24.015625 45.921875 
Q 28.375 48.1875 33.59375 48.1875 
Q 44.578125 48.1875 50.953125 41.515625 
Q 57.328125 34.859375 57.328125 23.390625 
Q 57.328125 12.15625 50.6875 5.359375 
Q 44.046875 -1.421875 33.015625 -1.421875 
Q 20.359375 -1.421875 13.671875 8.265625 
Q 6.984375 17.96875 6.984375 36.375 
Q 6.984375 53.65625 15.1875 63.9375 
Q 23.390625 74.21875 37.203125 74.21875 
Q 40.921875 74.21875 44.703125 73.484375 
Q 48.484375 72.75 52.59375 71.296875 
z
" id="DejaVuSans-54"/>
      </defs>
      <g transform="translate(12.9 177.59268)scale(0.2 -0.2)">
       <use xlink:href="#DejaVuSans-54"/>
      </g>
     </g>
    </g>
    <g id="ytick_5">
     <g id="line2d_10">
      <g>
       <use style="stroke:#000000;stroke-width:1.6;" x="40.325" xlink:href="#mae16009726" y="125.163435"/>
      </g>
     </g>
     <g id="text_10">
      <!-- 8 -->
      <defs>
       <path d="M 31.78125 34.625 
Q 24.75 34.625 20.71875 30.859375 
Q 16.703125 27.09375 16.703125 20.515625 
Q 16.703125 13.921875 20.71875 10.15625 
Q 24.75 6.390625 31.78125 6.390625 
Q 38.8125 6.390625 42.859375 10.171875 
Q 46.921875 13.96875 46.921875 20.515625 
Q 46.921875 27.09375 42.890625 30.859375 
Q 38.875 34.625 31.78125 34.625 
z
M 21.921875 38.8125 
Q 15.578125 40.375 12.03125 44.71875 
Q 8.5 49.078125 8.5 55.328125 
Q 8.5 64.0625 14.71875 69.140625 
Q 20.953125 74.21875 31.78125 74.21875 
Q 42.671875 74.21875 48.875 69.140625 
Q 55.078125 64.0625 55.078125 55.328125 
Q 55.078125 49.078125 51.53125 44.71875 
Q 48 40.375 41.703125 38.8125 
Q 48.828125 37.15625 52.796875 32.3125 
Q 56.78125 27.484375 56.78125 20.515625 
Q 56.78125 9.90625 50.3125 4.234375 
Q 43.84375 -1.421875 31.78125 -1.421875 
Q 19.734375 -1.421875 13.25 4.234375 
Q 6.78125 9.90625 6.78125 20.515625 
Q 6.78125 27.484375 10.78125 32.3125 
Q 14.796875 37.15625 21.921875 38.8125 
z
M 18.3125 54.390625 
Q 18.3125 48.734375 21.84375 45.5625 
Q 25.390625 42.390625 31.78125 42.390625 
Q 38.140625 42.390625 41.71875 45.5625 
Q 45.3125 48.734375 45.3125 54.390625 
Q 45.3125 60.0625 41.71875 63.234375 
Q 38.140625 66.40625 31.78125 66.40625 
Q 25.390625 66.40625 21.84375 63.234375 
Q 18.3125 60.0625 18.3125 54.390625 
z
" id="DejaVuSans-56"/>
      </defs>
      <g transform="translate(12.9 132.761873)scale(0.2 -0.2)">
       <use xlink:href="#DejaVuSans-56"/>
      </g>
     </g>
    </g>
    <g id="ytick_6">
     <g id="line2d_11">
      <g>
       <use style="stroke:#000000;stroke-width:1.6;" x="40.325" xlink:href="#mae16009726" y="80.332627"/>
      </g>
     </g>
     <g id="text_11">
      <!-- 10 -->
      <g transform="translate(0.175 87.931065)scale(0.2 -0.2)">
       <use xlink:href="#DejaVuSans-49"/>
       <use x="63.623047" xlink:href="#DejaVuSans-48"/>
      </g>
     </g>
    </g>
    <g id="ytick_7">
     <g id="line2d_12">
      <g>
       <use style="stroke:#000000;stroke-width:1.6;" x="40.325" xlink:href="#mae16009726" y="35.501819"/>
      </g>
     </g>
     <g id="text_12">
      <!-- 12 -->
      <g transform="translate(0.175 43.100257)scale(0.2 -0.2)">
       <use xlink:href="#DejaVuSans-49"/>
       <use x="63.623047" xlink:href="#DejaVuSans-50"/>
      </g>
     </g>
    </g>
   </g>
   <g id="line2d_13">
    <path clip-path="url(#p19dd807b8a)" d="M 70.536513 304.482122 
L 76.609599 304.375529 
L 82.682684 304.012611 
L 84.707046 303.727553 
L 86.731407 303.03123 
L 88.755769 301.568335 
L 90.780131 299.063744 
L 92.804493 295.472937 
L 94.828854 290.980504 
L 96.853216 285.790851 
L 98.877578 279.838218 
L 100.90194 272.614642 
L 102.926301 263.284183 
L 104.950663 251.197465 
L 106.975025 236.432606 
L 108.999386 219.619623 
L 113.04811 181.993842 
L 117.096833 143.534796 
L 125.19428 69.150506 
L 127.218642 53.502662 
L 129.243004 40.819821 
L 131.267366 30.844213 
L 133.291727 23.273561 
L 135.316089 18.530001 
L 137.340451 17.832669 
L 139.364813 22.471185 
L 141.389174 32.826705 
L 143.413536 47.923609 
L 149.486621 100.538397 
L 151.510983 114.899039 
L 153.535345 127.438191 
L 157.584068 150.937834 
L 161.632792 176.060356 
L 165.681515 201.085635 
L 167.705877 212.627733 
L 169.730239 223.315578 
L 171.7546 232.804538 
L 173.778962 240.625277 
L 175.803324 246.785839 
L 177.827686 252.187518 
L 179.852047 258.006853 
L 181.876409 264.436655 
L 183.900771 270.3646 
L 185.925133 274.618573 
L 187.949494 277.229177 
L 189.973856 279.180592 
L 191.998218 281.372643 
L 194.02258 284.176811 
L 198.071303 290.816722 
L 200.095665 293.374977 
L 202.120027 294.734389 
L 204.144388 295.111427 
L 206.16875 295.215001 
L 208.193112 295.751599 
L 210.217474 296.98844 
L 214.266197 300.390601 
L 216.290559 301.723486 
L 218.314921 302.490996 
L 220.339282 302.702147 
L 224.388006 302.509727 
L 226.412367 302.662413 
L 230.461091 303.255925 
L 242.607261 304.16681 
L 254.753432 303.996348 
L 258.802155 303.862596 
L 266.899602 304.196043 
L 270.948326 304.180474 
L 279.045773 304.396692 
L 287.14322 304.183218 
L 299.28939 304.485152 
L 309.411199 304.399943 
L 315.484284 304.168817 
L 319.533008 304.283989 
L 325.606093 304.471584 
L 327.630455 304.482123 
L 327.630455 304.482123 
" style="fill:none;stroke:#000000;stroke-linecap:square;stroke-width:2;"/>
   </g>
   <g id="line2d_14">
    <path clip-path="url(#p19dd807b8a)" d="M 71.125902 304.481365 
L 76.402157 304.383274 
L 79.91966 304.096179 
L 81.678411 303.814788 
L 83.437163 303.339086 
L 85.195915 302.515915 
L 86.954666 301.204763 
L 88.713418 299.414673 
L 93.989672 293.052316 
L 95.748424 290.477801 
L 97.507176 287.088378 
L 99.265927 282.604627 
L 101.024679 276.855699 
L 102.78343 269.530194 
L 104.542182 260.091721 
L 106.300934 248.123852 
L 108.059685 233.830945 
L 111.577188 201.641093 
L 115.094692 166.698959 
L 116.853443 147.048386 
L 123.888449 62.252158 
L 125.647201 46.529981 
L 127.405953 35.694526 
L 129.164704 29.369345 
L 130.923456 25.909791 
L 132.682207 23.534302 
L 134.440959 21.521129 
L 136.199711 20.433551 
L 137.958462 21.40903 
L 139.717214 25.408307 
L 141.475965 32.994223 
L 143.234717 44.323723 
L 144.993469 58.902774 
L 148.510972 91.907095 
L 150.269723 107.072043 
L 152.028475 120.391352 
L 153.787226 132.213468 
L 162.580984 186.811813 
L 164.339736 196.495582 
L 166.098488 205.275056 
L 169.615991 221.007913 
L 173.133494 235.731871 
L 174.892246 242.548408 
L 176.650997 248.750385 
L 180.1685 259.762728 
L 183.686003 269.801827 
L 185.444755 274.084004 
L 187.203507 277.515569 
L 188.962258 280.028485 
L 190.72101 281.835922 
L 192.479761 283.392341 
L 194.238513 285.200066 
L 195.997265 287.529464 
L 199.514768 292.838696 
L 201.273519 294.837866 
L 203.032271 296.062699 
L 208.308526 298.227749 
L 213.58478 301.322131 
L 215.343532 302.076468 
L 217.102284 302.594459 
L 218.861035 302.85362 
L 220.619787 302.864617 
L 225.896042 302.464003 
L 227.654793 302.578205 
L 231.172296 303.224717 
L 234.6898 303.818302 
L 238.207303 304.05703 
L 243.483558 304.180742 
L 252.277315 303.98285 
L 259.312322 304.07517 
L 268.10608 303.756403 
L 271.623583 304.032925 
L 275.141086 304.307998 
L 278.658589 304.289801 
L 283.934844 304.175819 
L 294.487354 304.481505 
L 294.487354 304.481505 
" style="fill:none;stroke:#000000;stroke-dasharray:7.4,3.2;stroke-dashoffset:0;stroke-width:2;"/>
   </g>
   <g id="line2d_15">
    <path clip-path="url(#p19dd807b8a)" d="M 54.006212 304.475566 
L 57.552825 304.39544 
L 59.326131 304.256934 
L 61.099437 303.966905 
L 62.872743 303.42346 
L 64.64605 302.503379 
L 66.419356 301.077264 
L 68.192662 299.019279 
L 69.965968 296.201384 
L 71.739274 292.476234 
L 73.512581 287.66935 
L 75.285887 281.603423 
L 77.059193 274.158179 
L 78.832499 265.336485 
L 80.605806 255.285786 
L 82.379112 244.243996 
L 85.925724 220.025247 
L 89.472337 193.622594 
L 93.018949 165.366198 
L 98.338868 121.921458 
L 100.112174 108.815072 
L 101.88548 97.345187 
L 103.658787 87.944343 
L 105.432093 80.858151 
L 107.205399 76.138679 
L 108.978705 73.638504 
L 110.752012 73.0131 
L 112.525318 73.773775 
L 114.298624 75.409391 
L 116.07193 77.540226 
L 117.845237 80.028109 
L 119.618543 82.974307 
L 121.391849 86.603354 
L 123.165155 91.118308 
L 124.938462 96.631069 
L 126.711768 103.186485 
L 128.485074 110.801461 
L 130.25838 119.440656 
L 133.804993 138.968503 
L 137.351605 158.872765 
L 139.124911 168.08615 
L 140.898218 176.658582 
L 144.44483 192.207118 
L 147.991443 206.381764 
L 151.538055 219.491103 
L 153.311361 225.49255 
L 155.084668 231.044932 
L 156.857974 236.157343 
L 158.63128 240.869864 
L 160.404586 245.211709 
L 162.177893 249.195029 
L 163.951199 252.842613 
L 167.497811 259.397813 
L 171.044424 265.704237 
L 174.591036 272.541086 
L 178.137649 279.51356 
L 179.910955 282.627691 
L 181.684261 285.334355 
L 183.457567 287.633475 
L 185.230874 289.591922 
L 187.00418 291.284288 
L 188.777486 292.746709 
L 190.550792 293.968462 
L 192.324099 294.920809 
L 194.097405 295.60215 
L 197.644017 296.442056 
L 199.417323 296.845101 
L 202.963936 297.99618 
L 206.510548 299.312423 
L 208.283855 299.84531 
L 211.830467 300.569315 
L 217.150386 301.365683 
L 220.696998 302.160375 
L 224.243611 303.02742 
L 227.790223 303.598057 
L 231.336836 303.800965 
L 240.203367 303.819405 
L 254.389817 303.727126 
L 266.80296 304.217615 
L 275.669492 304.465769 
L 279.216104 304.480859 
L 279.216104 304.480859 
" style="fill:none;stroke:#000000;stroke-dasharray:2,3.3;stroke-dashoffset:0;stroke-width:2;"/>
   </g>
   <g id="patch_3">
    <path d="M 40.325 304.486667 
L 40.325 3.5 
" style="fill:none;stroke:#000000;stroke-linecap:square;stroke-linejoin:miter;stroke-width:0.8;"/>
   </g>
   <g id="patch_4">
    <path d="M 40.325 304.486667 
L 341.311667 304.486667 
" style="fill:none;stroke:#000000;stroke-linecap:square;stroke-linejoin:miter;stroke-width:0.8;"/>
   </g>
  </g>
  <g id="axes_2">
   <g id="patch_5">
    <path d="M 383.546667 304.486667 
L 684.533333 304.486667 
L 684.533333 3.5 
L 383.546667 3.5 
z
" style="fill:#ffffff;"/>
   </g>
   <g id="matplotlib.axis_3">
    <g id="xtick_6">
     <g id="line2d_16">
      <g>
       <use style="stroke:#000000;stroke-width:1.6;" x="460.407192" xlink:href="#mc4a5ea2e55" y="304.486667"/>
      </g>
     </g>
     <g id="text_13">
      <!-- −0.2 -->
      <defs>
       <path d="M 10.59375 35.5 
L 73.1875 35.5 
L 73.1875 27.203125 
L 10.59375 27.203125 
z
" id="DejaVuSans-8722"/>
      </defs>
      <g transform="translate(436.124379 334.383542)scale(0.2 -0.2)">
       <use xlink:href="#DejaVuSans-8722"/>
       <use x="83.789062" xlink:href="#DejaVuSans-48"/>
       <use x="147.412109" xlink:href="#DejaVuSans-46"/>
       <use x="179.199219" xlink:href="#DejaVuSans-50"/>
      </g>
     </g>
    </g>
    <g id="xtick_7">
     <g id="line2d_17">
      <g>
       <use style="stroke:#000000;stroke-width:1.6;" x="556.954384" xlink:href="#mc4a5ea2e55" y="304.486667"/>
      </g>
     </g>
     <g id="text_14">
      <!-- 0.0 -->
      <g transform="translate(541.051259 334.383542)scale(0.2 -0.2)">
       <use xlink:href="#DejaVuSans-48"/>
       <use x="63.623047" xlink:href="#DejaVuSans-46"/>
       <use x="95.410156" xlink:href="#DejaVuSans-48"/>
      </g>
     </g>
    </g>
    <g id="xtick_8">
     <g id="line2d_18">
      <g>
       <use style="stroke:#000000;stroke-width:1.6;" x="653.501577" xlink:href="#mc4a5ea2e55" y="304.486667"/>
      </g>
     </g>
     <g id="text_15">
      <!-- 0.2 -->
      <g transform="translate(637.598452 334.383542)scale(0.2 -0.2)">
       <use xlink:href="#DejaVuSans-48"/>
       <use x="63.623047" xlink:href="#DejaVuSans-46"/>
       <use x="95.410156" xlink:href="#DejaVuSans-50"/>
      </g>
     </g>
    </g>
   </g>
   <g id="matplotlib.axis_4">
    <g id="ytick_8">
     <g id="line2d_19">
      <g>
       <use style="stroke:#000000;stroke-width:1.6;" x="383.546667" xlink:href="#mae16009726" y="304.486667"/>
      </g>
     </g>
     <g id="text_16">
      <!-- 0 -->
      <g transform="translate(356.121667 312.085104)scale(0.2 -0.2)">
       <use xlink:href="#DejaVuSans-48"/>
      </g>
     </g>
    </g>
    <g id="ytick_9">
     <g id="line2d_20">
      <g>
       <use style="stroke:#000000;stroke-width:1.6;" x="383.546667" xlink:href="#mae16009726" y="238.547351"/>
      </g>
     </g>
     <g id="text_17">
      <!-- 2 -->
      <g transform="translate(356.121667 246.145788)scale(0.2 -0.2)">
       <use xlink:href="#DejaVuSans-50"/>
      </g>
     </g>
    </g>
    <g id="ytick_10">
     <g id="line2d_21">
      <g>
       <use style="stroke:#000000;stroke-width:1.6;" x="383.546667" xlink:href="#mae16009726" y="172.608035"/>
      </g>
     </g>
     <g id="text_18">
      <!-- 4 -->
      <g transform="translate(356.121667 180.206472)scale(0.2 -0.2)">
       <use xlink:href="#DejaVuSans-52"/>
      </g>
     </g>
    </g>
    <g id="ytick_11">
     <g id="line2d_22">
      <g>
       <use style="stroke:#000000;stroke-width:1.6;" x="383.546667" xlink:href="#mae16009726" y="106.668718"/>
      </g>
     </g>
     <g id="text_19">
      <!-- 6 -->
      <g transform="translate(356.121667 114.267156)scale(0.2 -0.2)">
       <use xlink:href="#DejaVuSans-54"/>
      </g>
     </g>
    </g>
    <g id="ytick_12">
     <g id="line2d_23">
      <g>
       <use style="stroke:#000000;stroke-width:1.6;" x="383.546667" xlink:href="#mae16009726" y="40.729402"/>
      </g>
     </g>
     <g id="text_20">
      <!-- 8 -->
      <g transform="translate(356.121667 48.32784)scale(0.2 -0.2)">
       <use xlink:href="#DejaVuSans-56"/>
      </g>
     </g>
    </g>
   </g>
   <g id="line2d_24">
    <path clip-path="url(#p3f8f853cd2)" d="M 0 0 
" style="fill:none;stroke:#000000;stroke-linecap:square;stroke-width:2;"/>
   </g>
   <g id="line2d_25">
    <path clip-path="url(#p3f8f853cd2)" d="M 0 0 
" style="fill:none;stroke:#000000;stroke-dasharray:7.4,3.2;stroke-dashoffset:0;stroke-width:2;"/>
   </g>
   <g id="patch_6">
    <path style="fill:none;stroke:#000000;stroke-linecap:square;stroke-linejoin:miter;stroke-width:0.8;"/>
   </g>
   <g id="patch_7">
    <path style="fill:none;stroke:#000000;stroke-linecap:square;stroke-linejoin:miter;stroke-width:0.8;"/>
   </g>
  </g>
 </g>
 <defs>
  <clipPath id="p19dd807b8a">
   <rect height="300.986667" width="300.986667" x="40.325" y="3.5"/>
  </clipPath>
  <clipPath id="p3f8f853cd2">
   <rect height="300.986667" width="300.986667" x="383.546667" y="3.5"/>
  </clipPath>
 </defs>
</svg>
