<?xml version="1.0" encoding="utf-8" standalone="no"?>
<!DOCTYPE svg PUBLIC "-//W3C//DTD SVG 1.1//EN"
  "http://www.w3.org/Graphics/SVG/1.1/DTD/svg11.dtd">
<!-- Created with matplotlib (https://matplotlib.org/) -->
<svg height="358.891667pt" version="1.1" viewBox="0 0 352.766667 358.891667" width="352.766667pt" xmlns="http://www.w3.org/2000/svg" xmlns:xlink="http://www.w3.org/1999/xlink">
 <defs>
  <style type="text/css">
*{stroke-linecap:butt;stroke-linejoin:round;}
  </style>
 </defs>
 <g id="figure_1">
  <g id="patch_1">
   <path d="M 0 358.891667 
L 352.766667 358.891667 
L 352.766667 0 
L 0 0 
z
" style="fill:#ffffff;"/>
  </g>
  <g id="axes_1">
   <g id="patch_2">
    <path d="M 27.575 325.191667 
L 349.266667 325.191667 
L 349.266667 3.5 
L 27.575 3.5 
z
" style="fill:#ffffff;"/>
   </g>
   <g id="matplotlib.axis_1">
    <g id="xtick_1">
     <g id="line2d_1">
      <defs>
       <path d="M 0 0 
L 0 3.5 
" id="m61cf15635c" style="stroke:#000000;stroke-width:1.6;"/>
      </defs>
      <g>
       <use style="stroke:#000000;stroke-width:1.6;" x="57.476116" xlink:href="#m61cf15635c" y="325.191667"/>
      </g>
     </g>
     <g id="text_1">
      <!-- 0.00 -->
      <defs>
       <path d="M 31.78125 66.40625 
Q 24.171875 66.40625 20.328125 58.90625 
Q 16.5 51.421875 16.5 36.375 
Q 16.5 21.390625 20.328125 13.890625 
Q 24.171875 6.390625 31.78125 6.390625 
Q 39.453125 6.390625 43.28125 13.890625 
Q 47.125 21.390625 47.125 36.375 
Q 47.125 51.421875 43.28125 58.90625 
Q 39.453125 66.40625 31.78125 66.40625 
z
M 31.78125 74.21875 
Q 44.046875 74.21875 50.515625 64.515625 
Q 56.984375 54.828125 56.984375 36.375 
Q 56.984375 17.96875 50.515625 8.265625 
Q 44.046875 -1.421875 31.78125 -1.421875 
Q 19.53125 -1.421875 13.0625 8.265625 
Q 6.59375 17.96875 6.59375 36.375 
Q 6.59375 54.828125 13.0625 64.515625 
Q 19.53125 74.21875 31.78125 74.21875 
z
" id="DejaVuSans-48"/>
       <path d="M 10.6875 12.40625 
L 21 12.40625 
L 21 0 
L 10.6875 0 
z
" id="DejaVuSans-46"/>
      </defs>
      <g transform="translate(35.210491 355.088542)scale(0.2 -0.2)">
       <use xlink:href="#DejaVuSans-48"/>
       <use x="63.623047" xlink:href="#DejaVuSans-46"/>
       <use x="95.410156" xlink:href="#DejaVuSans-48"/>
       <use x="159.033203" xlink:href="#DejaVuSans-48"/>
      </g>
     </g>
    </g>
    <g id="xtick_2">
     <g id="line2d_2">
      <g>
       <use style="stroke:#000000;stroke-width:1.6;" x="122.948475" xlink:href="#m61cf15635c" y="325.191667"/>
      </g>
     </g>
     <g id="text_2">
      <!-- 0.25 -->
      <defs>
       <path d="M 19.1875 8.296875 
L 53.609375 8.296875 
L 53.609375 0 
L 7.328125 0 
L 7.328125 8.296875 
Q 12.9375 14.109375 22.625 23.890625 
Q 32.328125 33.6875 34.8125 36.53125 
Q 39.546875 41.84375 41.421875 45.53125 
Q 43.3125 49.21875 43.3125 52.78125 
Q 43.3125 58.59375 39.234375 62.25 
Q 35.15625 65.921875 28.609375 65.921875 
Q 23.96875 65.921875 18.8125 64.3125 
Q 13.671875 62.703125 7.8125 59.421875 
L 7.8125 69.390625 
Q 13.765625 71.78125 18.9375 73 
Q 24.125 74.21875 28.421875 74.21875 
Q 39.75 74.21875 46.484375 68.546875 
Q 53.21875 62.890625 53.21875 53.421875 
Q 53.21875 48.921875 51.53125 44.890625 
Q 49.859375 40.875 45.40625 35.40625 
Q 44.1875 33.984375 37.640625 27.21875 
Q 31.109375 20.453125 19.1875 8.296875 
z
" id="DejaVuSans-50"/>
       <path d="M 10.796875 72.90625 
L 49.515625 72.90625 
L 49.515625 64.59375 
L 19.828125 64.59375 
L 19.828125 46.734375 
Q 21.96875 47.46875 24.109375 47.828125 
Q 26.265625 48.1875 28.421875 48.1875 
Q 40.625 48.1875 47.75 41.5 
Q 54.890625 34.8125 54.890625 23.390625 
Q 54.890625 11.625 47.5625 5.09375 
Q 40.234375 -1.421875 26.90625 -1.421875 
Q 22.3125 -1.421875 17.546875 -0.640625 
Q 12.796875 0.140625 7.71875 1.703125 
L 7.71875 11.625 
Q 12.109375 9.234375 16.796875 8.0625 
Q 21.484375 6.890625 26.703125 6.890625 
Q 35.15625 6.890625 40.078125 11.328125 
Q 45.015625 15.765625 45.015625 23.390625 
Q 45.015625 31 40.078125 35.4375 
Q 35.15625 39.890625 26.703125 39.890625 
Q 22.75 39.890625 18.8125 39.015625 
Q 14.890625 38.140625 10.796875 36.28125 
z
" id="DejaVuSans-53"/>
      </defs>
      <g transform="translate(100.68285 355.088542)scale(0.2 -0.2)">
       <use xlink:href="#DejaVuSans-48"/>
       <use x="63.623047" xlink:href="#DejaVuSans-46"/>
       <use x="95.410156" xlink:href="#DejaVuSans-50"/>
       <use x="159.033203" xlink:href="#DejaVuSans-53"/>
      </g>
     </g>
    </g>
    <g id="xtick_3">
     <g id="line2d_3">
      <g>
       <use style="stroke:#000000;stroke-width:1.6;" x="188.420833" xlink:href="#m61cf15635c" y="325.191667"/>
      </g>
     </g>
     <g id="text_3">
      <!-- 0.50 -->
      <g transform="translate(166.155208 355.088542)scale(0.2 -0.2)">
       <use xlink:href="#DejaVuSans-48"/>
       <use x="63.623047" xlink:href="#DejaVuSans-46"/>
       <use x="95.410156" xlink:href="#DejaVuSans-53"/>
       <use x="159.033203" xlink:href="#DejaVuSans-48"/>
      </g>
     </g>
    </g>
    <g id="xtick_4">
     <g id="line2d_4">
      <g>
       <use style="stroke:#000000;stroke-width:1.6;" x="253.893192" xlink:href="#m61cf15635c" y="325.191667"/>
      </g>
     </g>
     <g id="text_4">
      <!-- 0.75 -->
      <defs>
       <path d="M 8.203125 72.90625 
L 55.078125 72.90625 
L 55.078125 68.703125 
L 28.609375 0 
L 18.3125 0 
L 43.21875 64.59375 
L 8.203125 64.59375 
z
" id="DejaVuSans-55"/>
      </defs>
      <g transform="translate(231.627567 355.088542)scale(0.2 -0.2)">
       <use xlink:href="#DejaVuSans-48"/>
       <use x="63.623047" xlink:href="#DejaVuSans-46"/>
       <use x="95.410156" xlink:href="#DejaVuSans-55"/>
       <use x="159.033203" xlink:href="#DejaVuSans-53"/>
      </g>
     </g>
    </g>
    <g id="xtick_5">
     <g id="line2d_5">
      <g>
       <use style="stroke:#000000;stroke-width:1.6;" x="319.365551" xlink:href="#m61cf15635c" y="325.191667"/>
      </g>
     </g>
     <g id="text_5">
      <!-- 1.00 -->
      <defs>
       <path d="M 12.40625 8.296875 
L 28.515625 8.296875 
L 28.515625 63.921875 
L 10.984375 60.40625 
L 10.984375 69.390625 
L 28.421875 72.90625 
L 38.28125 72.90625 
L 38.28125 8.296875 
L 54.390625 8.296875 
L 54.390625 0 
L 12.40625 0 
z
" id="DejaVuSans-49"/>
      </defs>
      <g transform="translate(297.099926 355.088542)scale(0.2 -0.2)">
       <use xlink:href="#DejaVuSans-49"/>
       <use x="63.623047" xlink:href="#DejaVuSans-46"/>
       <use x="95.410156" xlink:href="#DejaVuSans-48"/>
       <use x="159.033203" xlink:href="#DejaVuSans-48"/>
      </g>
     </g>
    </g>
   </g>
   <g id="matplotlib.axis_2">
    <g id="ytick_1">
     <g id="line2d_6">
      <defs>
       <path d="M 0 0 
L -3.5 0 
" id="m2e4acc3b0f" style="stroke:#000000;stroke-width:1.6;"/>
      </defs>
      <g>
       <use style="stroke:#000000;stroke-width:1.6;" x="27.575" xlink:href="#m2e4acc3b0f" y="325.191667"/>
      </g>
     </g>
     <g id="text_6">
      <!-- 0 -->
      <g transform="translate(0.15 332.790104)scale(0.2 -0.2)">
       <use xlink:href="#DejaVuSans-48"/>
      </g>
     </g>
    </g>
    <g id="ytick_2">
     <g id="line2d_7">
      <g>
       <use style="stroke:#000000;stroke-width:1.6;" x="27.575" xlink:href="#m2e4acc3b0f" y="254.18027"/>
      </g>
     </g>
     <g id="text_7">
      <!-- 1 -->
      <g transform="translate(0.15 261.778708)scale(0.2 -0.2)">
       <use xlink:href="#DejaVuSans-49"/>
      </g>
     </g>
    </g>
    <g id="ytick_3">
     <g id="line2d_8">
      <g>
       <use style="stroke:#000000;stroke-width:1.6;" x="27.575" xlink:href="#m2e4acc3b0f" y="183.168874"/>
      </g>
     </g>
     <g id="text_8">
      <!-- 2 -->
      <g transform="translate(0.15 190.767311)scale(0.2 -0.2)">
       <use xlink:href="#DejaVuSans-50"/>
      </g>
     </g>
    </g>
    <g id="ytick_4">
     <g id="line2d_9">
      <g>
       <use style="stroke:#000000;stroke-width:1.6;" x="27.575" xlink:href="#m2e4acc3b0f" y="112.157477"/>
      </g>
     </g>
     <g id="text_9">
      <!-- 3 -->
      <defs>
       <path d="M 40.578125 39.3125 
Q 47.65625 37.796875 51.625 33 
Q 55.609375 28.21875 55.609375 21.1875 
Q 55.609375 10.40625 48.1875 4.484375 
Q 40.765625 -1.421875 27.09375 -1.421875 
Q 22.515625 -1.421875 17.65625 -0.515625 
Q 12.796875 0.390625 7.625 2.203125 
L 7.625 11.71875 
Q 11.71875 9.328125 16.59375 8.109375 
Q 21.484375 6.890625 26.8125 6.890625 
Q 36.078125 6.890625 40.9375 10.546875 
Q 45.796875 14.203125 45.796875 21.1875 
Q 45.796875 27.640625 41.28125 31.265625 
Q 36.765625 34.90625 28.71875 34.90625 
L 20.21875 34.90625 
L 20.21875 43.015625 
L 29.109375 43.015625 
Q 36.375 43.015625 40.234375 45.921875 
Q 44.09375 48.828125 44.09375 54.296875 
Q 44.09375 59.90625 40.109375 62.90625 
Q 36.140625 65.921875 28.71875 65.921875 
Q 24.65625 65.921875 20.015625 65.03125 
Q 15.375 64.15625 9.8125 62.3125 
L 9.8125 71.09375 
Q 15.4375 72.65625 20.34375 73.4375 
Q 25.25 74.21875 29.59375 74.21875 
Q 40.828125 74.21875 47.359375 69.109375 
Q 53.90625 64.015625 53.90625 55.328125 
Q 53.90625 49.265625 50.4375 45.09375 
Q 46.96875 40.921875 40.578125 39.3125 
z
" id="DejaVuSans-51"/>
      </defs>
      <g transform="translate(0.15 119.755915)scale(0.2 -0.2)">
       <use xlink:href="#DejaVuSans-51"/>
      </g>
     </g>
    </g>
    <g id="ytick_5">
     <g id="line2d_10">
      <g>
       <use style="stroke:#000000;stroke-width:1.6;" x="27.575" xlink:href="#m2e4acc3b0f" y="41.146081"/>
      </g>
     </g>
     <g id="text_10">
      <!-- 4 -->
      <defs>
       <path d="M 37.796875 64.3125 
L 12.890625 25.390625 
L 37.796875 25.390625 
z
M 35.203125 72.90625 
L 47.609375 72.90625 
L 47.609375 25.390625 
L 58.015625 25.390625 
L 58.015625 17.1875 
L 47.609375 17.1875 
L 47.609375 0 
L 37.796875 0 
L 37.796875 17.1875 
L 4.890625 17.1875 
L 4.890625 26.703125 
z
" id="DejaVuSans-52"/>
      </defs>
      <g transform="translate(0.15 48.744518)scale(0.2 -0.2)">
       <use xlink:href="#DejaVuSans-52"/>
      </g>
     </g>
    </g>
   </g>
   <g id="line2d_11">
    <path clip-path="url(#pfb419cc89b)" d="M 43.157886 325.178854 
L 47.733097 325.069582 
L 52.308308 324.651994 
L 56.883519 324.165786 
L 61.45873 323.957946 
L 63.746335 323.552648 
L 66.033941 322.450047 
L 68.321546 320.115926 
L 70.609152 315.819772 
L 72.896757 308.61487 
L 75.184363 297.45921 
L 77.471968 281.518347 
L 79.759574 260.553809 
L 82.047179 235.125967 
L 84.334785 206.424556 
L 91.197601 115.655502 
L 93.485206 89.043938 
L 95.772812 66.299411 
L 98.060417 47.790961 
L 100.348023 33.740061 
L 102.635628 24.670629 
L 104.923234 21.1564 
L 107.210839 23.305889 
L 109.498445 30.540507 
L 111.78605 41.513258 
L 114.073656 54.102629 
L 116.361261 65.923165 
L 118.648867 75.482956 
L 120.936472 83.087989 
L 123.224077 90.288515 
L 125.511683 98.291605 
L 127.799288 107.346362 
L 130.086894 117.604048 
L 132.374499 129.546304 
L 136.94971 156.846398 
L 139.237316 169.39837 
L 141.524921 180.380131 
L 148.387738 210.693678 
L 150.675343 219.55973 
L 152.962949 226.577308 
L 155.250554 231.505477 
L 159.825765 238.866004 
L 162.11337 243.760333 
L 168.976187 260.465083 
L 171.263792 265.883553 
L 173.551398 270.840967 
L 175.839003 274.487523 
L 178.126609 276.719543 
L 180.414214 278.562812 
L 182.70182 281.159894 
L 187.277031 288.27774 
L 189.564636 291.306661 
L 191.852242 293.626181 
L 194.139847 295.711256 
L 196.427452 298.196772 
L 201.002663 304.398043 
L 203.290269 306.765382 
L 205.577874 308.008851 
L 207.86548 308.388015 
L 210.153085 308.438086 
L 212.440691 308.678843 
L 214.728296 309.568748 
L 217.015902 311.366606 
L 221.591113 316.296813 
L 223.878718 318.047276 
L 226.166324 318.863542 
L 228.453929 318.978554 
L 230.741534 318.853602 
L 233.02914 318.946735 
L 235.316745 319.49598 
L 239.891956 321.323607 
L 242.179562 322.041795 
L 244.467167 322.531562 
L 249.042378 323.157365 
L 253.617589 323.454329 
L 262.768011 323.769313 
L 267.343222 323.921031 
L 276.493644 324.794252 
L 287.931671 324.877496 
L 294.794488 325.154809 
L 306.232515 325.175927 
L 310.807726 325.061838 
L 319.958148 324.569538 
L 324.533359 324.837795 
L 329.10857 325.110522 
L 333.683781 325.181789 
L 333.683781 325.181789 
" style="fill:none;stroke:#000000;stroke-linecap:square;stroke-width:2;"/>
   </g>
   <g id="line2d_12">
    <path clip-path="url(#pfb419cc89b)" d="M 42.197348 325.175766 
L 46.802813 325.05243 
L 51.408277 324.597155 
L 56.013741 323.967551 
L 60.619205 323.547496 
L 62.921937 323.039643 
L 65.224669 321.778037 
L 67.527401 319.173238 
L 69.830133 314.524612 
L 72.132865 307.057792 
L 74.435597 296.012885 
L 76.738329 280.792423 
L 79.041061 261.145622 
L 81.343793 237.264319 
L 83.646525 209.662448 
L 85.949257 179.003635 
L 90.554721 113.201101 
L 92.857453 82.519309 
L 95.160186 57.12306 
L 97.462918 38.917956 
L 99.76565 28.077111 
L 102.068382 23.338472 
L 104.371114 23.033974 
L 106.673846 26.043742 
L 108.976578 32.016355 
L 111.27931 40.878143 
L 113.582042 52.237716 
L 115.884774 65.228936 
L 122.79297 105.887446 
L 125.095702 118.649443 
L 127.398434 130.229292 
L 129.701166 140.378343 
L 132.003898 149.471871 
L 134.30663 157.984596 
L 136.609362 165.942654 
L 141.214826 180.414366 
L 143.517558 188.372081 
L 145.820291 197.684145 
L 150.425755 218.028872 
L 152.728487 226.965524 
L 155.031219 234.200005 
L 157.333951 239.854708 
L 159.636683 244.535882 
L 161.939415 248.768511 
L 164.242147 252.629894 
L 175.755807 269.803548 
L 180.361271 275.61406 
L 182.664003 279.180403 
L 184.966735 283.152355 
L 187.269467 286.864065 
L 189.572199 289.876799 
L 194.177663 294.7109 
L 196.480395 297.408736 
L 198.783128 300.355561 
L 201.08586 303.090405 
L 203.388592 305.180022 
L 205.691324 306.56729 
L 207.994056 307.484734 
L 212.59952 308.713794 
L 214.902252 309.373244 
L 217.204984 310.404787 
L 219.507716 311.885899 
L 221.810448 313.53996 
L 224.11318 314.921161 
L 226.415912 315.748436 
L 228.718644 316.085356 
L 231.021376 316.279115 
L 233.324108 316.72411 
L 235.62684 317.586758 
L 240.232304 319.72866 
L 242.535036 320.451085 
L 244.837768 320.874341 
L 254.048697 322.054876 
L 260.956893 323.396312 
L 263.259625 323.672726 
L 281.681481 324.816915 
L 295.497873 324.94089 
L 302.40607 325.007047 
L 309.314266 325.109782 
L 323.130658 324.967887 
L 332.341586 325.178354 
L 334.644318 325.184259 
L 334.644318 325.184259 
" style="fill:none;stroke:#000000;stroke-dasharray:7.4,3.2;stroke-dashoffset:0;stroke-width:2;"/>
   </g>
   <g id="line2d_13">
    <path clip-path="url(#pfb419cc89b)" d="M 42.870232 325.169646 
L 47.042078 324.993744 
L 49.128002 324.73304 
L 51.213925 324.306171 
L 55.385771 323.237175 
L 57.471695 322.867733 
L 59.557618 322.628008 
L 61.643541 322.26235 
L 63.729465 321.371536 
L 65.815388 319.553294 
L 67.901311 316.426269 
L 69.987235 311.510595 
L 72.073158 304.120967 
L 74.159081 293.44519 
L 76.245005 278.812655 
L 78.330928 259.968053 
L 80.416851 237.14963 
L 82.502774 210.965642 
L 86.674621 152.190869 
L 88.760544 122.235246 
L 90.846468 94.171021 
L 92.932391 69.644613 
L 95.018314 49.754399 
L 97.104238 34.913872 
L 99.190161 25.043224 
L 101.276084 19.82481 
L 103.362007 18.818583 
L 105.447931 21.49581 
L 107.533854 27.281168 
L 109.619777 35.549024 
L 111.705701 45.562734 
L 117.963471 78.81896 
L 122.135317 101.672219 
L 126.307164 125.273142 
L 130.47901 146.916573 
L 134.650857 166.79929 
L 136.73678 175.463762 
L 138.822704 182.972311 
L 140.908627 190.028346 
L 142.99455 197.804147 
L 145.080474 206.970153 
L 149.25232 226.62837 
L 151.338244 234.454564 
L 153.424167 239.967444 
L 155.51009 243.489924 
L 159.681937 248.316079 
L 165.939707 256.545611 
L 168.02563 258.934632 
L 170.111553 261.591273 
L 176.369323 271.158947 
L 184.713016 282.198828 
L 186.79894 284.482313 
L 193.05671 290.333299 
L 195.142633 292.795155 
L 197.228556 295.776155 
L 201.400403 302.329623 
L 203.486326 304.833999 
L 205.57225 306.44074 
L 207.658173 307.365372 
L 213.915943 309.221753 
L 216.001866 310.330858 
L 218.087789 311.909221 
L 222.259636 315.507204 
L 224.345559 316.730756 
L 226.431483 317.272007 
L 228.517406 317.271521 
L 230.603329 317.107964 
L 232.689253 317.194104 
L 234.775176 317.737183 
L 243.118869 321.267663 
L 245.204792 321.792235 
L 249.376639 322.454524 
L 255.634409 323.291695 
L 259.806256 323.905041 
L 263.978102 324.138348 
L 272.321795 324.301856 
L 282.751412 324.760519 
L 289.009182 324.860659 
L 295.266952 324.898927 
L 305.696568 325.179655 
L 307.782492 325.183137 
L 307.782492 325.183137 
" style="fill:none;stroke:#000000;stroke-dasharray:2,3.3;stroke-dashoffset:0;stroke-width:2;"/>
   </g>
   <g id="patch_3">
    <path d="M 27.575 325.191667 
L 27.575 3.5 
" style="fill:none;stroke:#000000;stroke-linecap:square;stroke-linejoin:miter;stroke-width:0.8;"/>
   </g>
   <g id="patch_4">
    <path d="M 27.575 325.191667 
L 349.266667 325.191667 
" style="fill:none;stroke:#000000;stroke-linecap:square;stroke-linejoin:miter;stroke-width:0.8;"/>
   </g>
  </g>
  <g id="axes_2">
   <g id="patch_5">
    <path d="M 383.941667 325.191667 
L 705.633333 325.191667 
L 705.633333 3.5 
L 383.941667 3.5 
z
" style="fill:#ffffff;"/>
   </g>
   <g id="matplotlib.axis_3">
    <g id="xtick_6">
     <g id="line2d_14">
      <g>
       <use style="stroke:#000000;stroke-width:1.6;" x="406.655463" xlink:href="#m61cf15635c" y="325.191667"/>
      </g>
     </g>
     <g id="text_11">
      <!-- −1.0 -->
      <defs>
       <path d="M 10.59375 35.5 
L 73.1875 35.5 
L 73.1875 27.203125 
L 10.59375 27.203125 
z
" id="DejaVuSans-8722"/>
      </defs>
      <g transform="translate(382.372651 355.088542)scale(0.2 -0.2)">
       <use xlink:href="#DejaVuSans-8722"/>
       <use x="83.789062" xlink:href="#DejaVuSans-49"/>
       <use x="147.412109" xlink:href="#DejaVuSans-46"/>
       <use x="179.199219" xlink:href="#DejaVuSans-48"/>
      </g>
     </g>
    </g>
    <g id="xtick_7">
     <g id="line2d_15">
      <g>
       <use style="stroke:#000000;stroke-width:1.6;" x="487.930357" xlink:href="#m61cf15635c" y="325.191667"/>
      </g>
     </g>
     <g id="text_12">
      <!-- −0.5 -->
      <g transform="translate(463.647545 355.088542)scale(0.2 -0.2)">
       <use xlink:href="#DejaVuSans-8722"/>
       <use x="83.789062" xlink:href="#DejaVuSans-48"/>
       <use x="147.412109" xlink:href="#DejaVuSans-46"/>
       <use x="179.199219" xlink:href="#DejaVuSans-53"/>
      </g>
     </g>
    </g>
    <g id="xtick_8">
     <g id="line2d_16">
      <g>
       <use style="stroke:#000000;stroke-width:1.6;" x="569.205251" xlink:href="#m61cf15635c" y="325.191667"/>
      </g>
     </g>
     <g id="text_13">
      <!-- 0.0 -->
      <g transform="translate(553.302126 355.088542)scale(0.2 -0.2)">
       <use xlink:href="#DejaVuSans-48"/>
       <use x="63.623047" xlink:href="#DejaVuSans-46"/>
       <use x="95.410156" xlink:href="#DejaVuSans-48"/>
      </g>
     </g>
    </g>
    <g id="xtick_9">
     <g id="line2d_17">
      <g>
       <use style="stroke:#000000;stroke-width:1.6;" x="650.480145" xlink:href="#m61cf15635c" y="325.191667"/>
      </g>
     </g>
     <g id="text_14">
      <!-- 0.5 -->
      <g transform="translate(634.57702 355.088542)scale(0.2 -0.2)">
       <use xlink:href="#DejaVuSans-48"/>
       <use x="63.623047" xlink:href="#DejaVuSans-46"/>
       <use x="95.410156" xlink:href="#DejaVuSans-53"/>
      </g>
     </g>
    </g>
   </g>
   <g id="matplotlib.axis_4">
    <g id="ytick_6">
     <g id="line2d_18">
      <g>
       <use style="stroke:#000000;stroke-width:1.6;" x="383.941667" xlink:href="#m2e4acc3b0f" y="325.191667"/>
      </g>
     </g>
     <g id="text_15">
      <!-- 0 -->
      <g transform="translate(356.516667 332.790104)scale(0.2 -0.2)">
       <use xlink:href="#DejaVuSans-48"/>
      </g>
     </g>
    </g>
    <g id="ytick_7">
     <g id="line2d_19">
      <g>
       <use style="stroke:#000000;stroke-width:1.6;" x="383.941667" xlink:href="#m2e4acc3b0f" y="254.595296"/>
      </g>
     </g>
     <g id="text_16">
      <!-- 1 -->
      <g transform="translate(356.516667 262.193733)scale(0.2 -0.2)">
       <use xlink:href="#DejaVuSans-49"/>
      </g>
     </g>
    </g>
    <g id="ytick_8">
     <g id="line2d_20">
      <g>
       <use style="stroke:#000000;stroke-width:1.6;" x="383.941667" xlink:href="#m2e4acc3b0f" y="183.998925"/>
      </g>
     </g>
     <g id="text_17">
      <!-- 2 -->
      <g transform="translate(356.516667 191.597362)scale(0.2 -0.2)">
       <use xlink:href="#DejaVuSans-50"/>
      </g>
     </g>
    </g>
    <g id="ytick_9">
     <g id="line2d_21">
      <g>
       <use style="stroke:#000000;stroke-width:1.6;" x="383.941667" xlink:href="#m2e4acc3b0f" y="113.402554"/>
      </g>
     </g>
     <g id="text_18">
      <!-- 3 -->
      <g transform="translate(356.516667 121.000991)scale(0.2 -0.2)">
       <use xlink:href="#DejaVuSans-51"/>
      </g>
     </g>
    </g>
    <g id="ytick_10">
     <g id="line2d_22">
      <g>
       <use style="stroke:#000000;stroke-width:1.6;" x="383.941667" xlink:href="#m2e4acc3b0f" y="42.806182"/>
      </g>
     </g>
     <g id="text_19">
      <!-- 4 -->
      <g transform="translate(356.516667 50.40462)scale(0.2 -0.2)">
       <use xlink:href="#DejaVuSans-52"/>
      </g>
     </g>
    </g>
   </g>
   <g id="line2d_23">
    <path clip-path="url(#pf6c232c27a)" d="M 0 0 
" style="fill:none;stroke:#000000;stroke-linecap:square;stroke-width:2;"/>
   </g>
   <g id="line2d_24">
    <path clip-path="url(#pf6c232c27a)" d="M 0 0 
" style="fill:none;stroke:#000000;stroke-dasharray:7.4,3.2;stroke-dashoffset:0;stroke-width:2;"/>
   </g>
   <g id="patch_6">
    <path style="fill:none;stroke:#000000;stroke-linecap:square;stroke-linejoin:miter;stroke-width:0.8;"/>
   </g>
   <g id="patch_7">
    <path style="fill:none;stroke:#000000;stroke-linecap:square;stroke-linejoin:miter;stroke-width:0.8;"/>
   </g>
  </g>
 </g>
 <defs>
  <clipPath id="pfb419cc89b">
   <rect height="321.691667" width="321.691667" x="27.575" y="3.5"/>
  </clipPath>
  <clipPath id="pf6c232c27a">
   <rect height="321.691667" width="321.691667" x="383.941667" y="3.5"/>
  </clipPath>
 </defs>
</svg>
