<?xml version="1.0" encoding="utf-8" standalone="no"?>
<!DOCTYPE svg PUBLIC "-//W3C//DTD SVG 1.1//EN"
  "http://www.w3.org/Graphics/SVG/1.1/DTD/svg11.dtd">
<!-- Created with matplotlib (https://matplotlib.org/) -->
<svg height="348.811667pt" version="1.1" viewBox="0 0 342.686667 348.811667" width="342.686667pt" xmlns="http://www.w3.org/2000/svg" xmlns:xlink="http://www.w3.org/1999/xlink">
 <defs>
  <style type="text/css">
*{stroke-linecap:butt;stroke-linejoin:round;}
  </style>
 </defs>
 <g id="figure_1">
  <g id="patch_1">
   <path d="M 0 348.811667 
L 342.686667 348.811667 
L 342.686667 0 
L 0 0 
z
" style="fill:#ffffff;"/>
  </g>
  <g id="axes_1">
   <g id="patch_2">
    <path d="M 27.575 315.111667 
L 339.186667 315.111667 
L 339.186667 3.5 
L 27.575 3.5 
z
" style="fill:#ffffff;"/>
   </g>
   <g id="matplotlib.axis_1">
    <g id="xtick_1">
     <g id="line2d_1">
      <defs>
       <path d="M 0 0 
L 0 3.5 
" id="m29dab7b34d" style="stroke:#000000;stroke-width:1.6;"/>
      </defs>
      <g>
       <use style="stroke:#000000;stroke-width:1.6;" x="58.782949" xlink:href="#m29dab7b34d" y="315.111667"/>
      </g>
     </g>
     <g id="text_1">
      <!-- 0.00 -->
      <defs>
       <path d="M 31.78125 66.40625 
Q 24.171875 66.40625 20.328125 58.90625 
Q 16.5 51.421875 16.5 36.375 
Q 16.5 21.390625 20.328125 13.890625 
Q 24.171875 6.390625 31.78125 6.390625 
Q 39.453125 6.390625 43.28125 13.890625 
Q 47.125 21.390625 47.125 36.375 
Q 47.125 51.421875 43.28125 58.90625 
Q 39.453125 66.40625 31.78125 66.40625 
z
M 31.78125 74.21875 
Q 44.046875 74.21875 50.515625 64.515625 
Q 56.984375 54.828125 56.984375 36.375 
Q 56.984375 17.96875 50.515625 8.265625 
Q 44.046875 -1.421875 31.78125 -1.421875 
Q 19.53125 -1.421875 13.0625 8.265625 
Q 6.59375 17.96875 6.59375 36.375 
Q 6.59375 54.828125 13.0625 64.515625 
Q 19.53125 74.21875 31.78125 74.21875 
z
" id="DejaVuSans-48"/>
       <path d="M 10.6875 12.40625 
L 21 12.40625 
L 21 0 
L 10.6875 0 
z
" id="DejaVuSans-46"/>
      </defs>
      <g transform="translate(36.517324 345.008542)scale(0.2 -0.2)">
       <use xlink:href="#DejaVuSans-48"/>
       <use x="63.623047" xlink:href="#DejaVuSans-46"/>
       <use x="95.410156" xlink:href="#DejaVuSans-48"/>
       <use x="159.033203" xlink:href="#DejaVuSans-48"/>
      </g>
     </g>
    </g>
    <g id="xtick_2">
     <g id="line2d_2">
      <g>
       <use style="stroke:#000000;stroke-width:1.6;" x="130.666344" xlink:href="#m29dab7b34d" y="315.111667"/>
      </g>
     </g>
     <g id="text_2">
      <!-- 0.25 -->
      <defs>
       <path d="M 19.1875 8.296875 
L 53.609375 8.296875 
L 53.609375 0 
L 7.328125 0 
L 7.328125 8.296875 
Q 12.9375 14.109375 22.625 23.890625 
Q 32.328125 33.6875 34.8125 36.53125 
Q 39.546875 41.84375 41.421875 45.53125 
Q 43.3125 49.21875 43.3125 52.78125 
Q 43.3125 58.59375 39.234375 62.25 
Q 35.15625 65.921875 28.609375 65.921875 
Q 23.96875 65.921875 18.8125 64.3125 
Q 13.671875 62.703125 7.8125 59.421875 
L 7.8125 69.390625 
Q 13.765625 71.78125 18.9375 73 
Q 24.125 74.21875 28.421875 74.21875 
Q 39.75 74.21875 46.484375 68.546875 
Q 53.21875 62.890625 53.21875 53.421875 
Q 53.21875 48.921875 51.53125 44.890625 
Q 49.859375 40.875 45.40625 35.40625 
Q 44.1875 33.984375 37.640625 27.21875 
Q 31.109375 20.453125 19.1875 8.296875 
z
" id="DejaVuSans-50"/>
       <path d="M 10.796875 72.90625 
L 49.515625 72.90625 
L 49.515625 64.59375 
L 19.828125 64.59375 
L 19.828125 46.734375 
Q 21.96875 47.46875 24.109375 47.828125 
Q 26.265625 48.1875 28.421875 48.1875 
Q 40.625 48.1875 47.75 41.5 
Q 54.890625 34.8125 54.890625 23.390625 
Q 54.890625 11.625 47.5625 5.09375 
Q 40.234375 -1.421875 26.90625 -1.421875 
Q 22.3125 -1.421875 17.546875 -0.640625 
Q 12.796875 0.140625 7.71875 1.703125 
L 7.71875 11.625 
Q 12.109375 9.234375 16.796875 8.0625 
Q 21.484375 6.890625 26.703125 6.890625 
Q 35.15625 6.890625 40.078125 11.328125 
Q 45.015625 15.765625 45.015625 23.390625 
Q 45.015625 31 40.078125 35.4375 
Q 35.15625 39.890625 26.703125 39.890625 
Q 22.75 39.890625 18.8125 39.015625 
Q 14.890625 38.140625 10.796875 36.28125 
z
" id="DejaVuSans-53"/>
      </defs>
      <g transform="translate(108.400719 345.008542)scale(0.2 -0.2)">
       <use xlink:href="#DejaVuSans-48"/>
       <use x="63.623047" xlink:href="#DejaVuSans-46"/>
       <use x="95.410156" xlink:href="#DejaVuSans-50"/>
       <use x="159.033203" xlink:href="#DejaVuSans-53"/>
      </g>
     </g>
    </g>
    <g id="xtick_3">
     <g id="line2d_3">
      <g>
       <use style="stroke:#000000;stroke-width:1.6;" x="202.549739" xlink:href="#m29dab7b34d" y="315.111667"/>
      </g>
     </g>
     <g id="text_3">
      <!-- 0.50 -->
      <g transform="translate(180.284114 345.008542)scale(0.2 -0.2)">
       <use xlink:href="#DejaVuSans-48"/>
       <use x="63.623047" xlink:href="#DejaVuSans-46"/>
       <use x="95.410156" xlink:href="#DejaVuSans-53"/>
       <use x="159.033203" xlink:href="#DejaVuSans-48"/>
      </g>
     </g>
    </g>
    <g id="xtick_4">
     <g id="line2d_4">
      <g>
       <use style="stroke:#000000;stroke-width:1.6;" x="274.433133" xlink:href="#m29dab7b34d" y="315.111667"/>
      </g>
     </g>
     <g id="text_4">
      <!-- 0.75 -->
      <defs>
       <path d="M 8.203125 72.90625 
L 55.078125 72.90625 
L 55.078125 68.703125 
L 28.609375 0 
L 18.3125 0 
L 43.21875 64.59375 
L 8.203125 64.59375 
z
" id="DejaVuSans-55"/>
      </defs>
      <g transform="translate(252.167508 345.008542)scale(0.2 -0.2)">
       <use xlink:href="#DejaVuSans-48"/>
       <use x="63.623047" xlink:href="#DejaVuSans-46"/>
       <use x="95.410156" xlink:href="#DejaVuSans-55"/>
       <use x="159.033203" xlink:href="#DejaVuSans-53"/>
      </g>
     </g>
    </g>
   </g>
   <g id="matplotlib.axis_2">
    <g id="ytick_1">
     <g id="line2d_5">
      <defs>
       <path d="M 0 0 
L -3.5 0 
" id="m1cc16d65c0" style="stroke:#000000;stroke-width:1.6;"/>
      </defs>
      <g>
       <use style="stroke:#000000;stroke-width:1.6;" x="27.575" xlink:href="#m1cc16d65c0" y="315.111667"/>
      </g>
     </g>
     <g id="text_5">
      <!-- 0 -->
      <g transform="translate(0.15 322.710104)scale(0.2 -0.2)">
       <use xlink:href="#DejaVuSans-48"/>
      </g>
     </g>
    </g>
    <g id="ytick_2">
     <g id="line2d_6">
      <g>
       <use style="stroke:#000000;stroke-width:1.6;" x="27.575" xlink:href="#m1cc16d65c0" y="266.300056"/>
      </g>
     </g>
     <g id="text_6">
      <!-- 1 -->
      <defs>
       <path d="M 12.40625 8.296875 
L 28.515625 8.296875 
L 28.515625 63.921875 
L 10.984375 60.40625 
L 10.984375 69.390625 
L 28.421875 72.90625 
L 38.28125 72.90625 
L 38.28125 8.296875 
L 54.390625 8.296875 
L 54.390625 0 
L 12.40625 0 
z
" id="DejaVuSans-49"/>
      </defs>
      <g transform="translate(0.15 273.898493)scale(0.2 -0.2)">
       <use xlink:href="#DejaVuSans-49"/>
      </g>
     </g>
    </g>
    <g id="ytick_3">
     <g id="line2d_7">
      <g>
       <use style="stroke:#000000;stroke-width:1.6;" x="27.575" xlink:href="#m1cc16d65c0" y="217.488445"/>
      </g>
     </g>
     <g id="text_7">
      <!-- 2 -->
      <g transform="translate(0.15 225.086882)scale(0.2 -0.2)">
       <use xlink:href="#DejaVuSans-50"/>
      </g>
     </g>
    </g>
    <g id="ytick_4">
     <g id="line2d_8">
      <g>
       <use style="stroke:#000000;stroke-width:1.6;" x="27.575" xlink:href="#m1cc16d65c0" y="168.676834"/>
      </g>
     </g>
     <g id="text_8">
      <!-- 3 -->
      <defs>
       <path d="M 40.578125 39.3125 
Q 47.65625 37.796875 51.625 33 
Q 55.609375 28.21875 55.609375 21.1875 
Q 55.609375 10.40625 48.1875 4.484375 
Q 40.765625 -1.421875 27.09375 -1.421875 
Q 22.515625 -1.421875 17.65625 -0.515625 
Q 12.796875 0.390625 7.625 2.203125 
L 7.625 11.71875 
Q 11.71875 9.328125 16.59375 8.109375 
Q 21.484375 6.890625 26.8125 6.890625 
Q 36.078125 6.890625 40.9375 10.546875 
Q 45.796875 14.203125 45.796875 21.1875 
Q 45.796875 27.640625 41.28125 31.265625 
Q 36.765625 34.90625 28.71875 34.90625 
L 20.21875 34.90625 
L 20.21875 43.015625 
L 29.109375 43.015625 
Q 36.375 43.015625 40.234375 45.921875 
Q 44.09375 48.828125 44.09375 54.296875 
Q 44.09375 59.90625 40.109375 62.90625 
Q 36.140625 65.921875 28.71875 65.921875 
Q 24.65625 65.921875 20.015625 65.03125 
Q 15.375 64.15625 9.8125 62.3125 
L 9.8125 71.09375 
Q 15.4375 72.65625 20.34375 73.4375 
Q 25.25 74.21875 29.59375 74.21875 
Q 40.828125 74.21875 47.359375 69.109375 
Q 53.90625 64.015625 53.90625 55.328125 
Q 53.90625 49.265625 50.4375 45.09375 
Q 46.96875 40.921875 40.578125 39.3125 
z
" id="DejaVuSans-51"/>
      </defs>
      <g transform="translate(0.15 176.275272)scale(0.2 -0.2)">
       <use xlink:href="#DejaVuSans-51"/>
      </g>
     </g>
    </g>
    <g id="ytick_5">
     <g id="line2d_9">
      <g>
       <use style="stroke:#000000;stroke-width:1.6;" x="27.575" xlink:href="#m1cc16d65c0" y="119.865223"/>
      </g>
     </g>
     <g id="text_9">
      <!-- 4 -->
      <defs>
       <path d="M 37.796875 64.3125 
L 12.890625 25.390625 
L 37.796875 25.390625 
z
M 35.203125 72.90625 
L 47.609375 72.90625 
L 47.609375 25.390625 
L 58.015625 25.390625 
L 58.015625 17.1875 
L 47.609375 17.1875 
L 47.609375 0 
L 37.796875 0 
L 37.796875 17.1875 
L 4.890625 17.1875 
L 4.890625 26.703125 
z
" id="DejaVuSans-52"/>
      </defs>
      <g transform="translate(0.15 127.463661)scale(0.2 -0.2)">
       <use xlink:href="#DejaVuSans-52"/>
      </g>
     </g>
    </g>
    <g id="ytick_6">
     <g id="line2d_10">
      <g>
       <use style="stroke:#000000;stroke-width:1.6;" x="27.575" xlink:href="#m1cc16d65c0" y="71.053612"/>
      </g>
     </g>
     <g id="text_10">
      <!-- 5 -->
      <g transform="translate(0.15 78.65205)scale(0.2 -0.2)">
       <use xlink:href="#DejaVuSans-53"/>
      </g>
     </g>
    </g>
    <g id="ytick_7">
     <g id="line2d_11">
      <g>
       <use style="stroke:#000000;stroke-width:1.6;" x="27.575" xlink:href="#m1cc16d65c0" y="22.242002"/>
      </g>
     </g>
     <g id="text_11">
      <!-- 6 -->
      <defs>
       <path d="M 33.015625 40.375 
Q 26.375 40.375 22.484375 35.828125 
Q 18.609375 31.296875 18.609375 23.390625 
Q 18.609375 15.53125 22.484375 10.953125 
Q 26.375 6.390625 33.015625 6.390625 
Q 39.65625 6.390625 43.53125 10.953125 
Q 47.40625 15.53125 47.40625 23.390625 
Q 47.40625 31.296875 43.53125 35.828125 
Q 39.65625 40.375 33.015625 40.375 
z
M 52.59375 71.296875 
L 52.59375 62.3125 
Q 48.875 64.0625 45.09375 64.984375 
Q 41.3125 65.921875 37.59375 65.921875 
Q 27.828125 65.921875 22.671875 59.328125 
Q 17.53125 52.734375 16.796875 39.40625 
Q 19.671875 43.65625 24.015625 45.921875 
Q 28.375 48.1875 33.59375 48.1875 
Q 44.578125 48.1875 50.953125 41.515625 
Q 57.328125 34.859375 57.328125 23.390625 
Q 57.328125 12.15625 50.6875 5.359375 
Q 44.046875 -1.421875 33.015625 -1.421875 
Q 20.359375 -1.421875 13.671875 8.265625 
Q 6.984375 17.96875 6.984375 36.375 
Q 6.984375 53.65625 15.1875 63.9375 
Q 23.390625 74.21875 37.203125 74.21875 
Q 40.921875 74.21875 44.703125 73.484375 
Q 48.484375 72.75 52.59375 71.296875 
z
" id="DejaVuSans-54"/>
      </defs>
      <g transform="translate(0.15 29.840439)scale(0.2 -0.2)">
       <use xlink:href="#DejaVuSans-54"/>
      </g>
     </g>
    </g>
   </g>
   <g id="line2d_12">
    <path clip-path="url(#p0ac44fa5b2)" d="M 41.739167 315.102483 
L 48.430899 314.999368 
L 55.122631 314.617841 
L 59.583786 314.236261 
L 61.814364 313.806305 
L 64.044941 312.860893 
L 66.275518 310.934179 
L 68.506096 307.412208 
L 70.736673 301.554116 
L 72.967251 292.527872 
L 75.197828 279.511552 
L 77.428406 261.925534 
L 79.658983 239.779591 
L 81.88956 213.953212 
L 86.350715 158.348078 
L 88.581293 132.291224 
L 90.81187 109.069885 
L 93.042448 89.394018 
L 95.273025 73.951848 
L 97.503602 63.439072 
L 99.73418 58.156777 
L 101.964757 57.594287 
L 104.195335 60.468339 
L 106.425912 65.285394 
L 108.65649 71.057058 
L 110.887067 77.677163 
L 113.117644 85.703055 
L 115.348222 95.713059 
L 117.578799 107.744056 
L 119.809377 121.233984 
L 128.731686 177.906927 
L 130.962264 190.94225 
L 133.192841 202.490584 
L 135.423419 212.157685 
L 137.653996 220.091221 
L 139.884573 226.840518 
L 142.115151 232.858606 
L 144.345728 238.150916 
L 146.576306 242.469669 
L 148.806883 245.866853 
L 151.037461 248.989358 
L 153.268038 252.741958 
L 155.498615 257.610673 
L 159.95977 268.887471 
L 162.190348 273.544286 
L 164.420925 276.840616 
L 166.651503 278.944113 
L 171.112657 282.059529 
L 173.343235 284.24727 
L 175.573812 287.059601 
L 180.034967 293.294044 
L 182.265545 296.073101 
L 184.496122 298.414072 
L 186.726699 300.285308 
L 188.957277 301.758501 
L 193.418432 304.357546 
L 197.879587 307.353122 
L 200.110164 308.608101 
L 202.340741 309.363465 
L 204.571319 309.579726 
L 211.263051 309.242233 
L 213.493629 309.570255 
L 215.724206 310.166772 
L 222.415938 312.238648 
L 224.646516 312.745065 
L 226.877093 313.073582 
L 229.107671 313.187025 
L 233.568825 312.945776 
L 235.799403 312.841921 
L 238.02998 312.896168 
L 246.95229 313.689592 
L 251.413445 313.891839 
L 260.335755 314.672067 
L 262.566332 314.656117 
L 271.488642 314.075752 
L 273.719219 314.111262 
L 278.180374 314.469973 
L 282.641529 314.865232 
L 287.102684 315.05553 
L 293.794416 315.082722 
L 300.486148 314.869755 
L 307.177881 314.552798 
L 311.639035 314.651376 
L 320.561345 315.05979 
L 325.0225 315.102484 
L 325.0225 315.102484 
" style="fill:none;stroke:#000000;stroke-linecap:square;stroke-width:2;"/>
   </g>
   <g id="line2d_13">
    <path clip-path="url(#p0ac44fa5b2)" d="M 43.500363 315.094168 
L 47.302302 315.010825 
L 51.104241 314.689707 
L 54.90618 313.996201 
L 56.80715 313.466065 
L 58.708119 312.656712 
L 60.609089 311.233705 
L 62.510058 308.668146 
L 64.411028 304.346279 
L 66.311997 297.745938 
L 68.212967 288.560419 
L 70.113936 276.686859 
L 72.014906 262.124367 
L 73.915875 244.908029 
L 75.816845 225.135013 
L 77.717814 203.009092 
L 79.618784 178.826577 
L 83.420723 125.990414 
L 87.222662 73.271942 
L 89.123632 50.97669 
L 91.024601 33.765266 
L 92.925571 22.762903 
L 94.82654 18.338638 
L 96.72751 20.246196 
L 98.628479 27.750932 
L 100.529449 39.574671 
L 104.331388 68.397783 
L 106.232357 81.446423 
L 108.133327 92.278526 
L 113.836236 119.536326 
L 115.737205 130.360397 
L 121.440114 166.764216 
L 123.341083 177.128188 
L 125.242053 185.537076 
L 127.143022 192.282443 
L 130.944961 204.373614 
L 132.845931 211.212058 
L 134.7469 218.746714 
L 138.548839 235.094587 
L 142.350778 252.397237 
L 144.251748 260.36715 
L 146.152718 266.842297 
L 148.053687 271.393026 
L 149.954657 274.255559 
L 155.657565 280.061184 
L 163.261443 289.832805 
L 165.162413 292.415203 
L 170.865321 300.819636 
L 172.766291 303.219716 
L 174.66726 305.133402 
L 176.56823 306.551303 
L 178.4692 307.605758 
L 182.271139 309.459742 
L 186.073078 311.429534 
L 187.974047 312.12845 
L 189.875017 312.449806 
L 191.775986 312.420101 
L 197.478895 311.822119 
L 201.280834 311.980645 
L 203.181803 312.080848 
L 205.082773 312.052259 
L 210.785682 311.484023 
L 212.686651 311.569312 
L 214.587621 311.935604 
L 220.290529 313.68199 
L 222.191499 313.985635 
L 224.092468 314.015888 
L 227.894407 313.508208 
L 229.795377 313.249193 
L 231.696346 313.165433 
L 233.597316 313.290118 
L 239.300225 313.981282 
L 241.201194 313.989219 
L 245.003133 313.64015 
L 248.805072 313.213234 
L 250.706042 313.132829 
L 252.607011 313.188763 
L 260.210889 313.771263 
L 264.012828 313.535989 
L 267.814768 313.368591 
L 269.715737 313.493935 
L 273.517676 314.108864 
L 277.319615 314.728832 
L 281.121554 315.024188 
L 284.923493 315.095754 
L 284.923493 315.095754 
" style="fill:none;stroke:#000000;stroke-dasharray:7.4,3.2;stroke-dashoffset:0;stroke-width:2;"/>
   </g>
   <g id="line2d_14">
    <path clip-path="url(#p0ac44fa5b2)" d="M 44.130928 315.077495 
L 47.826757 314.874658 
L 49.674672 314.584632 
L 51.522586 314.083608 
L 53.370501 313.342608 
L 55.218416 312.394979 
L 57.066331 311.306897 
L 58.914245 310.069026 
L 60.76216 308.457674 
L 62.610075 305.97182 
L 64.45799 301.924174 
L 66.305904 295.648522 
L 68.153819 286.676633 
L 70.001734 274.748692 
L 71.849649 259.667017 
L 73.697563 241.158481 
L 75.545478 218.920992 
L 77.393393 192.886883 
L 79.241307 163.589659 
L 82.937137 101.857522 
L 84.785052 74.619978 
L 86.632966 53.172044 
L 88.480881 38.551729 
L 90.328796 30.022603 
L 92.176711 25.651579 
L 94.024625 23.574812 
L 95.87254 23.115752 
L 97.720455 24.963705 
L 99.56837 30.300559 
L 101.416284 39.563221 
L 103.264199 51.789452 
L 105.112114 65.011211 
L 106.960028 77.359564 
L 108.807943 88.060724 
L 112.503773 107.388472 
L 114.351687 118.32821 
L 116.199602 130.824411 
L 119.895432 158.837378 
L 123.591261 186.274387 
L 125.439176 198.280203 
L 127.28709 208.787812 
L 129.135005 217.949727 
L 130.98292 226.155321 
L 136.526664 248.844125 
L 140.222494 263.704631 
L 142.070408 270.401937 
L 143.918323 275.911739 
L 145.766238 279.804929 
L 147.614153 282.012341 
L 149.462067 282.922116 
L 151.309982 283.250798 
L 153.157897 283.725355 
L 155.005811 284.745217 
L 160.549556 289.201384 
L 162.39747 290.155327 
L 167.941215 292.108981 
L 169.789129 293.285447 
L 171.637044 295.035417 
L 173.484959 297.30397 
L 177.180788 302.339972 
L 179.028703 304.540942 
L 180.876618 306.33606 
L 182.724532 307.704765 
L 184.572447 308.640528 
L 186.420362 309.130235 
L 188.268277 309.209402 
L 191.964106 308.842548 
L 193.812021 308.912102 
L 195.659936 309.367957 
L 197.50785 310.155977 
L 201.20368 311.965184 
L 203.051595 312.641437 
L 204.899509 313.072911 
L 206.747424 313.288685 
L 210.443253 313.363176 
L 215.986998 313.261077 
L 219.682827 313.125361 
L 221.530742 313.160547 
L 223.378657 313.338998 
L 227.074486 314.043522 
L 230.770315 314.717208 
L 234.466145 315.025853 
L 240.009889 315.108552 
L 252.945292 315.064142 
L 256.641122 314.90856 
L 264.032781 314.447535 
L 267.72861 314.603093 
L 273.272354 314.994601 
L 278.816099 315.094617 
L 278.816099 315.094617 
" style="fill:none;stroke:#000000;stroke-dasharray:2,3.3;stroke-dashoffset:0;stroke-width:2;"/>
   </g>
   <g id="patch_3">
    <path d="M 27.575 315.111667 
L 27.575 3.5 
" style="fill:none;stroke:#000000;stroke-linecap:square;stroke-linejoin:miter;stroke-width:0.8;"/>
   </g>
   <g id="patch_4">
    <path d="M 27.575 315.111667 
L 339.186667 315.111667 
" style="fill:none;stroke:#000000;stroke-linecap:square;stroke-linejoin:miter;stroke-width:0.8;"/>
   </g>
  </g>
  <g id="axes_2">
   <g id="patch_5">
    <path d="M 381.421667 315.111667 
L 693.033333 315.111667 
L 693.033333 3.5 
L 381.421667 3.5 
z
" style="fill:#ffffff;"/>
   </g>
   <g id="matplotlib.axis_3">
    <g id="xtick_5">
     <g id="line2d_15">
      <g>
       <use style="stroke:#000000;stroke-width:1.6;" x="450.703803" xlink:href="#m29dab7b34d" y="315.111667"/>
      </g>
     </g>
     <g id="text_12">
      <!-- −0.5 -->
      <defs>
       <path d="M 10.59375 35.5 
L 73.1875 35.5 
L 73.1875 27.203125 
L 10.59375 27.203125 
z
" id="DejaVuSans-8722"/>
      </defs>
      <g transform="translate(426.42099 345.008542)scale(0.2 -0.2)">
       <use xlink:href="#DejaVuSans-8722"/>
       <use x="83.789062" xlink:href="#DejaVuSans-48"/>
       <use x="147.412109" xlink:href="#DejaVuSans-46"/>
       <use x="179.199219" xlink:href="#DejaVuSans-53"/>
      </g>
     </g>
    </g>
    <g id="xtick_6">
     <g id="line2d_16">
      <g>
       <use style="stroke:#000000;stroke-width:1.6;" x="548.138619" xlink:href="#m29dab7b34d" y="315.111667"/>
      </g>
     </g>
     <g id="text_13">
      <!-- 0.0 -->
      <g transform="translate(532.235494 345.008542)scale(0.2 -0.2)">
       <use xlink:href="#DejaVuSans-48"/>
       <use x="63.623047" xlink:href="#DejaVuSans-46"/>
       <use x="95.410156" xlink:href="#DejaVuSans-48"/>
      </g>
     </g>
    </g>
    <g id="xtick_7">
     <g id="line2d_17">
      <g>
       <use style="stroke:#000000;stroke-width:1.6;" x="645.573436" xlink:href="#m29dab7b34d" y="315.111667"/>
      </g>
     </g>
     <g id="text_14">
      <!-- 0.5 -->
      <g transform="translate(629.670311 345.008542)scale(0.2 -0.2)">
       <use xlink:href="#DejaVuSans-48"/>
       <use x="63.623047" xlink:href="#DejaVuSans-46"/>
       <use x="95.410156" xlink:href="#DejaVuSans-53"/>
      </g>
     </g>
    </g>
   </g>
   <g id="matplotlib.axis_4">
    <g id="ytick_8">
     <g id="line2d_18">
      <g>
       <use style="stroke:#000000;stroke-width:1.6;" x="381.421667" xlink:href="#m1cc16d65c0" y="315.111667"/>
      </g>
     </g>
     <g id="text_15">
      <!-- 0 -->
      <g transform="translate(353.996667 322.710104)scale(0.2 -0.2)">
       <use xlink:href="#DejaVuSans-48"/>
      </g>
     </g>
    </g>
    <g id="ytick_9">
     <g id="line2d_19">
      <g>
       <use style="stroke:#000000;stroke-width:1.6;" x="381.421667" xlink:href="#m1cc16d65c0" y="264.14121"/>
      </g>
     </g>
     <g id="text_16">
      <!-- 1 -->
      <g transform="translate(353.996667 271.739648)scale(0.2 -0.2)">
       <use xlink:href="#DejaVuSans-49"/>
      </g>
     </g>
    </g>
    <g id="ytick_10">
     <g id="line2d_20">
      <g>
       <use style="stroke:#000000;stroke-width:1.6;" x="381.421667" xlink:href="#m1cc16d65c0" y="213.170753"/>
      </g>
     </g>
     <g id="text_17">
      <!-- 2 -->
      <g transform="translate(353.996667 220.769191)scale(0.2 -0.2)">
       <use xlink:href="#DejaVuSans-50"/>
      </g>
     </g>
    </g>
    <g id="ytick_11">
     <g id="line2d_21">
      <g>
       <use style="stroke:#000000;stroke-width:1.6;" x="381.421667" xlink:href="#m1cc16d65c0" y="162.200297"/>
      </g>
     </g>
     <g id="text_18">
      <!-- 3 -->
      <g transform="translate(353.996667 169.798734)scale(0.2 -0.2)">
       <use xlink:href="#DejaVuSans-51"/>
      </g>
     </g>
    </g>
    <g id="ytick_12">
     <g id="line2d_22">
      <g>
       <use style="stroke:#000000;stroke-width:1.6;" x="381.421667" xlink:href="#m1cc16d65c0" y="111.22984"/>
      </g>
     </g>
     <g id="text_19">
      <!-- 4 -->
      <g transform="translate(353.996667 118.828278)scale(0.2 -0.2)">
       <use xlink:href="#DejaVuSans-52"/>
      </g>
     </g>
    </g>
    <g id="ytick_13">
     <g id="line2d_23">
      <g>
       <use style="stroke:#000000;stroke-width:1.6;" x="381.421667" xlink:href="#m1cc16d65c0" y="60.259384"/>
      </g>
     </g>
     <g id="text_20">
      <!-- 5 -->
      <g transform="translate(353.996667 67.857821)scale(0.2 -0.2)">
       <use xlink:href="#DejaVuSans-53"/>
      </g>
     </g>
    </g>
    <g id="ytick_14">
     <g id="line2d_24">
      <g>
       <use style="stroke:#000000;stroke-width:1.6;" x="381.421667" xlink:href="#m1cc16d65c0" y="9.288927"/>
      </g>
     </g>
     <g id="text_21">
      <!-- 6 -->
      <g transform="translate(353.996667 16.887365)scale(0.2 -0.2)">
       <use xlink:href="#DejaVuSans-54"/>
      </g>
     </g>
    </g>
   </g>
   <g id="line2d_25">
    <path clip-path="url(#p2f0bd8ad0d)" d="M 0 0 
" style="fill:none;stroke:#000000;stroke-linecap:square;stroke-width:2;"/>
   </g>
   <g id="line2d_26">
    <path clip-path="url(#p2f0bd8ad0d)" d="M 0 0 
" style="fill:none;stroke:#000000;stroke-dasharray:7.4,3.2;stroke-dashoffset:0;stroke-width:2;"/>
   </g>
   <g id="patch_6">
    <path style="fill:none;stroke:#000000;stroke-linecap:square;stroke-linejoin:miter;stroke-width:0.8;"/>
   </g>
   <g id="patch_7">
    <path style="fill:none;stroke:#000000;stroke-linecap:square;stroke-linejoin:miter;stroke-width:0.8;"/>
   </g>
  </g>
 </g>
 <defs>
  <clipPath id="p0ac44fa5b2">
   <rect height="311.611667" width="311.611667" x="27.575" y="3.5"/>
  </clipPath>
  <clipPath id="p2f0bd8ad0d">
   <rect height="311.611667" width="311.611667" x="381.421667" y="3.5"/>
  </clipPath>
 </defs>
</svg>
