<?xml version="1.0" encoding="utf-8" standalone="no"?>
<!DOCTYPE svg PUBLIC "-//W3C//DTD SVG 1.1//EN"
  "http://www.w3.org/Graphics/SVG/1.1/DTD/svg11.dtd">
<!-- Created with matplotlib (https://matplotlib.org/) -->
<svg height="347.548443pt" version="1.1" viewBox="0 0 348.260549 347.548443" width="348.260549pt" xmlns="http://www.w3.org/2000/svg" xmlns:xlink="http://www.w3.org/1999/xlink">
 <defs>
  <style type="text/css">
*{stroke-linecap:butt;stroke-linejoin:round;}
  </style>
 </defs>
 <g id="figure_1">
  <g id="patch_1">
   <path d="M 0 347.548443 
L 348.260549 347.548443 
L 348.260549 0 
L 0 0 
z
" style="fill:#ffffff;"/>
  </g>
  <g id="axes_1">
   <g id="patch_2">
    <path d="M 27.575 313.848443 
L 337.923443 313.848443 
L 337.923443 3.5 
L 27.575 3.5 
z
" style="fill:#ffffff;"/>
   </g>
   <g id="matplotlib.axis_1">
    <g id="xtick_1">
     <g id="line2d_1">
      <defs>
       <path d="M 0 0 
L 0 3.5 
" id="m30efd57b68" style="stroke:#000000;stroke-width:1.6;"/>
      </defs>
      <g>
       <use style="stroke:#000000;stroke-width:1.6;" x="57.504935" xlink:href="#m30efd57b68" y="313.848443"/>
      </g>
     </g>
     <g id="text_1">
      <!-- 0.00 -->
      <defs>
       <path d="M 31.78125 66.40625 
Q 24.171875 66.40625 20.328125 58.90625 
Q 16.5 51.421875 16.5 36.375 
Q 16.5 21.390625 20.328125 13.890625 
Q 24.171875 6.390625 31.78125 6.390625 
Q 39.453125 6.390625 43.28125 13.890625 
Q 47.125 21.390625 47.125 36.375 
Q 47.125 51.421875 43.28125 58.90625 
Q 39.453125 66.40625 31.78125 66.40625 
z
M 31.78125 74.21875 
Q 44.046875 74.21875 50.515625 64.515625 
Q 56.984375 54.828125 56.984375 36.375 
Q 56.984375 17.96875 50.515625 8.265625 
Q 44.046875 -1.421875 31.78125 -1.421875 
Q 19.53125 -1.421875 13.0625 8.265625 
Q 6.59375 17.96875 6.59375 36.375 
Q 6.59375 54.828125 13.0625 64.515625 
Q 19.53125 74.21875 31.78125 74.21875 
z
" id="DejaVuSans-48"/>
       <path d="M 10.6875 12.40625 
L 21 12.40625 
L 21 0 
L 10.6875 0 
z
" id="DejaVuSans-46"/>
      </defs>
      <g transform="translate(35.23931 343.745318)scale(0.2 -0.2)">
       <use xlink:href="#DejaVuSans-48"/>
       <use x="63.623047" xlink:href="#DejaVuSans-46"/>
       <use x="95.410156" xlink:href="#DejaVuSans-48"/>
       <use x="159.033203" xlink:href="#DejaVuSans-48"/>
      </g>
     </g>
    </g>
    <g id="xtick_2">
     <g id="line2d_2">
      <g>
       <use style="stroke:#000000;stroke-width:1.6;" x="124.600089" xlink:href="#m30efd57b68" y="313.848443"/>
      </g>
     </g>
     <g id="text_2">
      <!-- 0.25 -->
      <defs>
       <path d="M 19.1875 8.296875 
L 53.609375 8.296875 
L 53.609375 0 
L 7.328125 0 
L 7.328125 8.296875 
Q 12.9375 14.109375 22.625 23.890625 
Q 32.328125 33.6875 34.8125 36.53125 
Q 39.546875 41.84375 41.421875 45.53125 
Q 43.3125 49.21875 43.3125 52.78125 
Q 43.3125 58.59375 39.234375 62.25 
Q 35.15625 65.921875 28.609375 65.921875 
Q 23.96875 65.921875 18.8125 64.3125 
Q 13.671875 62.703125 7.8125 59.421875 
L 7.8125 69.390625 
Q 13.765625 71.78125 18.9375 73 
Q 24.125 74.21875 28.421875 74.21875 
Q 39.75 74.21875 46.484375 68.546875 
Q 53.21875 62.890625 53.21875 53.421875 
Q 53.21875 48.921875 51.53125 44.890625 
Q 49.859375 40.875 45.40625 35.40625 
Q 44.1875 33.984375 37.640625 27.21875 
Q 31.109375 20.453125 19.1875 8.296875 
z
" id="DejaVuSans-50"/>
       <path d="M 10.796875 72.90625 
L 49.515625 72.90625 
L 49.515625 64.59375 
L 19.828125 64.59375 
L 19.828125 46.734375 
Q 21.96875 47.46875 24.109375 47.828125 
Q 26.265625 48.1875 28.421875 48.1875 
Q 40.625 48.1875 47.75 41.5 
Q 54.890625 34.8125 54.890625 23.390625 
Q 54.890625 11.625 47.5625 5.09375 
Q 40.234375 -1.421875 26.90625 -1.421875 
Q 22.3125 -1.421875 17.546875 -0.640625 
Q 12.796875 0.140625 7.71875 1.703125 
L 7.71875 11.625 
Q 12.109375 9.234375 16.796875 8.0625 
Q 21.484375 6.890625 26.703125 6.890625 
Q 35.15625 6.890625 40.078125 11.328125 
Q 45.015625 15.765625 45.015625 23.390625 
Q 45.015625 31 40.078125 35.4375 
Q 35.15625 39.890625 26.703125 39.890625 
Q 22.75 39.890625 18.8125 39.015625 
Q 14.890625 38.140625 10.796875 36.28125 
z
" id="DejaVuSans-53"/>
      </defs>
      <g transform="translate(102.334464 343.745318)scale(0.2 -0.2)">
       <use xlink:href="#DejaVuSans-48"/>
       <use x="63.623047" xlink:href="#DejaVuSans-46"/>
       <use x="95.410156" xlink:href="#DejaVuSans-50"/>
       <use x="159.033203" xlink:href="#DejaVuSans-53"/>
      </g>
     </g>
    </g>
    <g id="xtick_3">
     <g id="line2d_3">
      <g>
       <use style="stroke:#000000;stroke-width:1.6;" x="191.695242" xlink:href="#m30efd57b68" y="313.848443"/>
      </g>
     </g>
     <g id="text_3">
      <!-- 0.50 -->
      <g transform="translate(169.429617 343.745318)scale(0.2 -0.2)">
       <use xlink:href="#DejaVuSans-48"/>
       <use x="63.623047" xlink:href="#DejaVuSans-46"/>
       <use x="95.410156" xlink:href="#DejaVuSans-53"/>
       <use x="159.033203" xlink:href="#DejaVuSans-48"/>
      </g>
     </g>
    </g>
    <g id="xtick_4">
     <g id="line2d_4">
      <g>
       <use style="stroke:#000000;stroke-width:1.6;" x="258.790396" xlink:href="#m30efd57b68" y="313.848443"/>
      </g>
     </g>
     <g id="text_4">
      <!-- 0.75 -->
      <defs>
       <path d="M 8.203125 72.90625 
L 55.078125 72.90625 
L 55.078125 68.703125 
L 28.609375 0 
L 18.3125 0 
L 43.21875 64.59375 
L 8.203125 64.59375 
z
" id="DejaVuSans-55"/>
      </defs>
      <g transform="translate(236.524771 343.745318)scale(0.2 -0.2)">
       <use xlink:href="#DejaVuSans-48"/>
       <use x="63.623047" xlink:href="#DejaVuSans-46"/>
       <use x="95.410156" xlink:href="#DejaVuSans-55"/>
       <use x="159.033203" xlink:href="#DejaVuSans-53"/>
      </g>
     </g>
    </g>
    <g id="xtick_5">
     <g id="line2d_5">
      <g>
       <use style="stroke:#000000;stroke-width:1.6;" x="325.885549" xlink:href="#m30efd57b68" y="313.848443"/>
      </g>
     </g>
     <g id="text_5">
      <!-- 1.00 -->
      <defs>
       <path d="M 12.40625 8.296875 
L 28.515625 8.296875 
L 28.515625 63.921875 
L 10.984375 60.40625 
L 10.984375 69.390625 
L 28.421875 72.90625 
L 38.28125 72.90625 
L 38.28125 8.296875 
L 54.390625 8.296875 
L 54.390625 0 
L 12.40625 0 
z
" id="DejaVuSans-49"/>
      </defs>
      <g transform="translate(303.619924 343.745318)scale(0.2 -0.2)">
       <use xlink:href="#DejaVuSans-49"/>
       <use x="63.623047" xlink:href="#DejaVuSans-46"/>
       <use x="95.410156" xlink:href="#DejaVuSans-48"/>
       <use x="159.033203" xlink:href="#DejaVuSans-48"/>
      </g>
     </g>
    </g>
   </g>
   <g id="matplotlib.axis_2">
    <g id="ytick_1">
     <g id="line2d_6">
      <defs>
       <path d="M 0 0 
L -3.5 0 
" id="m855db1ef54" style="stroke:#000000;stroke-width:1.6;"/>
      </defs>
      <g>
       <use style="stroke:#000000;stroke-width:1.6;" x="27.575" xlink:href="#m855db1ef54" y="313.848443"/>
      </g>
     </g>
     <g id="text_6">
      <!-- 0 -->
      <g transform="translate(0.15 321.446881)scale(0.2 -0.2)">
       <use xlink:href="#DejaVuSans-48"/>
      </g>
     </g>
    </g>
    <g id="ytick_2">
     <g id="line2d_7">
      <g>
       <use style="stroke:#000000;stroke-width:1.6;" x="27.575" xlink:href="#m855db1ef54" y="239.083524"/>
      </g>
     </g>
     <g id="text_7">
      <!-- 2 -->
      <g transform="translate(0.15 246.681961)scale(0.2 -0.2)">
       <use xlink:href="#DejaVuSans-50"/>
      </g>
     </g>
    </g>
    <g id="ytick_3">
     <g id="line2d_8">
      <g>
       <use style="stroke:#000000;stroke-width:1.6;" x="27.575" xlink:href="#m855db1ef54" y="164.318604"/>
      </g>
     </g>
     <g id="text_8">
      <!-- 4 -->
      <defs>
       <path d="M 37.796875 64.3125 
L 12.890625 25.390625 
L 37.796875 25.390625 
z
M 35.203125 72.90625 
L 47.609375 72.90625 
L 47.609375 25.390625 
L 58.015625 25.390625 
L 58.015625 17.1875 
L 47.609375 17.1875 
L 47.609375 0 
L 37.796875 0 
L 37.796875 17.1875 
L 4.890625 17.1875 
L 4.890625 26.703125 
z
" id="DejaVuSans-52"/>
      </defs>
      <g transform="translate(0.15 171.917041)scale(0.2 -0.2)">
       <use xlink:href="#DejaVuSans-52"/>
      </g>
     </g>
    </g>
    <g id="ytick_4">
     <g id="line2d_9">
      <g>
       <use style="stroke:#000000;stroke-width:1.6;" x="27.575" xlink:href="#m855db1ef54" y="89.553684"/>
      </g>
     </g>
     <g id="text_9">
      <!-- 6 -->
      <defs>
       <path d="M 33.015625 40.375 
Q 26.375 40.375 22.484375 35.828125 
Q 18.609375 31.296875 18.609375 23.390625 
Q 18.609375 15.53125 22.484375 10.953125 
Q 26.375 6.390625 33.015625 6.390625 
Q 39.65625 6.390625 43.53125 10.953125 
Q 47.40625 15.53125 47.40625 23.390625 
Q 47.40625 31.296875 43.53125 35.828125 
Q 39.65625 40.375 33.015625 40.375 
z
M 52.59375 71.296875 
L 52.59375 62.3125 
Q 48.875 64.0625 45.09375 64.984375 
Q 41.3125 65.921875 37.59375 65.921875 
Q 27.828125 65.921875 22.671875 59.328125 
Q 17.53125 52.734375 16.796875 39.40625 
Q 19.671875 43.65625 24.015625 45.921875 
Q 28.375 48.1875 33.59375 48.1875 
Q 44.578125 48.1875 50.953125 41.515625 
Q 57.328125 34.859375 57.328125 23.390625 
Q 57.328125 12.15625 50.6875 5.359375 
Q 44.046875 -1.421875 33.015625 -1.421875 
Q 20.359375 -1.421875 13.671875 8.265625 
Q 6.984375 17.96875 6.984375 36.375 
Q 6.984375 53.65625 15.1875 63.9375 
Q 23.390625 74.21875 37.203125 74.21875 
Q 40.921875 74.21875 44.703125 73.484375 
Q 48.484375 72.75 52.59375 71.296875 
z
" id="DejaVuSans-54"/>
      </defs>
      <g transform="translate(0.15 97.152121)scale(0.2 -0.2)">
       <use xlink:href="#DejaVuSans-54"/>
      </g>
     </g>
    </g>
    <g id="ytick_5">
     <g id="line2d_10">
      <g>
       <use style="stroke:#000000;stroke-width:1.6;" x="27.575" xlink:href="#m855db1ef54" y="14.788764"/>
      </g>
     </g>
     <g id="text_10">
      <!-- 8 -->
      <defs>
       <path d="M 31.78125 34.625 
Q 24.75 34.625 20.71875 30.859375 
Q 16.703125 27.09375 16.703125 20.515625 
Q 16.703125 13.921875 20.71875 10.15625 
Q 24.75 6.390625 31.78125 6.390625 
Q 38.8125 6.390625 42.859375 10.171875 
Q 46.921875 13.96875 46.921875 20.515625 
Q 46.921875 27.09375 42.890625 30.859375 
Q 38.875 34.625 31.78125 34.625 
z
M 21.921875 38.8125 
Q 15.578125 40.375 12.03125 44.71875 
Q 8.5 49.078125 8.5 55.328125 
Q 8.5 64.0625 14.71875 69.140625 
Q 20.953125 74.21875 31.78125 74.21875 
Q 42.671875 74.21875 48.875 69.140625 
Q 55.078125 64.0625 55.078125 55.328125 
Q 55.078125 49.078125 51.53125 44.71875 
Q 48 40.375 41.703125 38.8125 
Q 48.828125 37.15625 52.796875 32.3125 
Q 56.78125 27.484375 56.78125 20.515625 
Q 56.78125 9.90625 50.3125 4.234375 
Q 43.84375 -1.421875 31.78125 -1.421875 
Q 19.734375 -1.421875 13.25 4.234375 
Q 6.78125 9.90625 6.78125 20.515625 
Q 6.78125 27.484375 10.78125 32.3125 
Q 14.796875 37.15625 21.921875 38.8125 
z
M 18.3125 54.390625 
Q 18.3125 48.734375 21.84375 45.5625 
Q 25.390625 42.390625 31.78125 42.390625 
Q 38.140625 42.390625 41.71875 45.5625 
Q 45.3125 48.734375 45.3125 54.390625 
Q 45.3125 60.0625 41.71875 63.234375 
Q 38.140625 66.40625 31.78125 66.40625 
Q 25.390625 66.40625 21.84375 63.234375 
Q 18.3125 60.0625 18.3125 54.390625 
z
" id="DejaVuSans-56"/>
      </defs>
      <g transform="translate(0.15 22.387201)scale(0.2 -0.2)">
       <use xlink:href="#DejaVuSans-56"/>
      </g>
     </g>
    </g>
   </g>
   <g id="line2d_11">
    <path clip-path="url(#p0258c08aa3)" d="M 41.681747 313.843784 
L 48.346353 313.765955 
L 59.454028 313.297696 
L 61.675563 313.101657 
L 63.897098 312.640905 
L 66.118633 311.643475 
L 68.340168 309.717366 
L 70.561703 306.371925 
L 72.783238 301.120501 
L 75.004773 293.633539 
L 77.226308 283.818178 
L 79.447843 271.72551 
L 81.669378 257.374391 
L 83.890913 240.741045 
L 86.112448 222.043097 
L 90.555518 182.388404 
L 92.777053 164.615648 
L 94.998588 150.129267 
L 97.220123 139.527376 
L 99.441658 132.691102 
L 101.663193 129.10918 
L 103.884728 128.254306 
L 106.106263 129.830986 
L 108.327798 133.802314 
L 110.549333 140.190454 
L 112.770868 148.797438 
L 114.992403 159.090736 
L 123.878543 203.985134 
L 126.100079 213.932305 
L 128.321614 222.938927 
L 130.543149 230.98825 
L 132.764684 238.15107 
L 134.986219 244.506314 
L 137.207754 250.039441 
L 139.429289 254.634961 
L 141.650824 258.236212 
L 143.872359 261.038873 
L 152.758499 270.851961 
L 154.980034 272.766886 
L 157.201569 274.11271 
L 161.644639 276.076703 
L 163.866174 277.468438 
L 166.087709 279.461571 
L 168.309244 282.009886 
L 172.752314 287.618754 
L 174.973849 289.910181 
L 177.195384 291.527672 
L 179.416919 292.596341 
L 181.638454 293.530803 
L 183.859989 294.776415 
L 186.081524 296.501174 
L 188.303059 298.479802 
L 190.524594 300.261113 
L 192.746129 301.482742 
L 194.967664 302.105952 
L 199.410734 302.846429 
L 201.632269 303.603341 
L 206.07534 305.534534 
L 208.296875 306.166964 
L 210.51841 306.456458 
L 212.739945 306.491568 
L 217.183015 306.125793 
L 219.40455 305.941653 
L 221.626085 306.009932 
L 223.84762 306.435206 
L 226.069155 307.073996 
L 228.29069 307.593846 
L 230.512225 307.723917 
L 234.955295 307.208915 
L 237.17683 307.277977 
L 239.398365 307.853284 
L 243.841435 309.690639 
L 246.06297 310.396889 
L 248.284505 310.860216 
L 252.727575 311.449401 
L 257.170645 311.889326 
L 261.613715 312.121941 
L 270.499855 312.458498 
L 277.16446 313.024025 
L 281.607531 313.381007 
L 288.272136 313.586176 
L 301.601346 313.742747 
L 310.487486 313.683822 
L 323.816696 313.845314 
L 323.816696 313.845314 
" style="fill:none;stroke:#000000;stroke-linecap:square;stroke-width:2;"/>
   </g>
   <g id="line2d_12">
    <path clip-path="url(#p0258c08aa3)" d="M 42.866895 313.843375 
L 49.052862 313.759479 
L 63.486786 313.28185 
L 65.548775 312.97892 
L 67.610764 312.317865 
L 69.672753 311.04519 
L 71.734742 308.749285 
L 73.796731 304.815529 
L 75.85872 298.446163 
L 77.920709 288.802254 
L 79.982698 275.289136 
L 82.044688 257.883818 
L 84.106677 237.282786 
L 92.354633 148.129111 
L 94.416622 130.543389 
L 96.478611 117.670375 
L 98.5406 110.532022 
L 100.602589 109.128791 
L 102.664578 112.423367 
L 104.726567 118.843892 
L 106.788556 126.905929 
L 115.036513 162.007936 
L 119.160491 179.944261 
L 123.284469 199.045522 
L 127.408447 219.042512 
L 129.470436 228.464408 
L 131.532425 236.856695 
L 133.594414 244.034401 
L 135.656403 250.127677 
L 137.718393 255.388908 
L 139.780382 259.999087 
L 141.842371 264.047346 
L 143.90436 267.627974 
L 148.028338 273.964122 
L 152.152316 279.825909 
L 154.214305 282.519233 
L 156.276294 284.816581 
L 158.338283 286.498198 
L 160.400272 287.520627 
L 162.462261 288.093685 
L 166.58624 289.064133 
L 168.648229 289.757976 
L 170.710218 290.622031 
L 174.834196 292.583114 
L 176.896185 293.289641 
L 178.958174 293.595943 
L 181.020163 293.659213 
L 183.082152 293.87321 
L 185.144141 294.540791 
L 189.268119 296.581977 
L 191.330108 297.106568 
L 193.392097 297.017156 
L 195.454087 296.571013 
L 197.516076 296.313124 
L 199.578065 296.782087 
L 201.640054 298.151435 
L 205.764032 301.987318 
L 207.826021 303.424622 
L 209.88801 304.343571 
L 211.949999 304.932263 
L 218.135966 306.274938 
L 220.197955 306.899767 
L 224.321934 308.434058 
L 226.383923 308.991489 
L 228.445912 309.213331 
L 230.507901 309.119162 
L 234.631879 308.643889 
L 236.693868 308.685647 
L 238.755857 309.049155 
L 242.879835 310.073101 
L 244.941824 310.308544 
L 249.065802 310.43256 
L 251.127792 310.71768 
L 257.313759 312.271812 
L 259.375748 312.557485 
L 261.437737 312.642035 
L 265.561715 312.421158 
L 269.685693 312.14506 
L 271.747682 312.140072 
L 273.809671 312.269212 
L 284.119617 313.400647 
L 292.367573 313.544099 
L 300.615529 313.82298 
L 304.739507 313.844657 
L 304.739507 313.844657 
" style="fill:none;stroke:#000000;stroke-dasharray:7.4,3.2;stroke-dashoffset:0;stroke-width:2;"/>
   </g>
   <g id="line2d_13">
    <path clip-path="url(#p0258c08aa3)" d="M 47.230072 313.799587 
L 49.367033 313.601177 
L 51.503995 312.942938 
L 53.640956 311.406183 
L 55.777918 308.67357 
L 57.91488 304.139926 
L 60.051841 295.665798 
L 62.188803 279.400576 
L 64.325764 251.906421 
L 66.462726 212.809366 
L 72.873611 70.782671 
L 75.010572 36.718779 
L 77.147534 19.113631 
L 79.284496 18.278348 
L 81.421457 29.754385 
L 83.558419 48.527997 
L 85.69538 71.37236 
L 87.832342 95.599026 
L 89.969304 118.223526 
L 98.51715 197.279591 
L 100.654111 213.956804 
L 102.791073 225.580574 
L 104.928035 233.762639 
L 111.338919 255.082176 
L 115.612843 270.620401 
L 117.749804 277.091639 
L 119.886766 281.987752 
L 122.023727 284.610173 
L 128.434612 287.775824 
L 130.571574 288.598887 
L 132.708535 289.194154 
L 134.845497 290.517464 
L 139.11942 295.592413 
L 141.256382 296.63601 
L 143.393343 295.80025 
L 145.530305 294.57115 
L 147.667266 295.2721 
L 151.94119 300.909301 
L 154.078151 301.992845 
L 156.215113 301.779988 
L 158.352074 301.225394 
L 160.489036 301.187326 
L 162.625998 302.092938 
L 164.762959 303.505727 
L 166.899921 304.457792 
L 169.036882 304.457796 
L 171.173844 304.175082 
L 173.310806 304.645921 
L 175.447767 305.887512 
L 177.584729 306.946922 
L 179.72169 307.132083 
L 181.858652 306.793314 
L 183.995613 306.864558 
L 186.132575 307.681894 
L 188.269537 308.718739 
L 190.406498 309.488597 
L 192.54346 309.965796 
L 194.680421 310.114371 
L 196.817383 309.76797 
L 198.954345 309.155658 
L 201.091306 308.942059 
L 203.228268 309.466478 
L 205.365229 310.322075 
L 207.502191 310.891646 
L 209.639153 311.041497 
L 213.913076 311.068848 
L 216.050037 310.87248 
L 220.323961 309.961926 
L 222.460922 309.712994 
L 224.597884 309.868819 
L 228.871807 310.926914 
L 231.008768 311.25757 
L 235.282692 311.361998 
L 237.419653 311.633881 
L 241.693576 312.893381 
L 243.830538 313.215126 
L 245.9675 313.142897 
L 250.241423 312.802139 
L 256.652308 312.684934 
L 260.926231 312.520276 
L 263.063192 312.5966 
L 267.337115 313.121992 
L 271.611039 313.680599 
L 275.884962 313.831683 
L 280.158885 313.677509 
L 282.295847 313.327534 
L 286.56977 312.264058 
L 288.706731 312.263656 
L 295.117616 313.677261 
L 299.391539 313.833216 
L 303.665463 313.736295 
L 307.939386 313.567613 
L 312.213309 313.699694 
L 316.487232 313.830057 
L 318.624194 313.838178 
L 318.624194 313.838178 
" style="fill:none;stroke:#000000;stroke-dasharray:2,3.3;stroke-dashoffset:0;stroke-width:2;"/>
   </g>
   <g id="patch_3">
    <path d="M 27.575 313.848443 
L 27.575 3.5 
" style="fill:none;stroke:#000000;stroke-linecap:square;stroke-linejoin:miter;stroke-width:0.8;"/>
   </g>
   <g id="patch_4">
    <path d="M 27.575 313.848443 
L 337.923443 313.848443 
" style="fill:none;stroke:#000000;stroke-linecap:square;stroke-linejoin:miter;stroke-width:0.8;"/>
   </g>
  </g>
  <g id="axes_2">
   <g id="patch_5">
    <path d="M 382.053278 313.848443 
L 692.401722 313.848443 
L 692.401722 3.5 
L 382.053278 3.5 
z
" style="fill:#ffffff;"/>
   </g>
   <g id="matplotlib.axis_3">
    <g id="xtick_6">
     <g id="line2d_14">
      <g>
       <use style="stroke:#000000;stroke-width:1.6;" x="453.135946" xlink:href="#m30efd57b68" y="313.848443"/>
      </g>
     </g>
     <g id="text_11">
      <!-- −0.5 -->
      <defs>
       <path d="M 10.59375 35.5 
L 73.1875 35.5 
L 73.1875 27.203125 
L 10.59375 27.203125 
z
" id="DejaVuSans-8722"/>
      </defs>
      <g transform="translate(428.853133 343.745318)scale(0.2 -0.2)">
       <use xlink:href="#DejaVuSans-8722"/>
       <use x="83.789062" xlink:href="#DejaVuSans-48"/>
       <use x="147.412109" xlink:href="#DejaVuSans-46"/>
       <use x="179.199219" xlink:href="#DejaVuSans-53"/>
      </g>
     </g>
    </g>
    <g id="xtick_7">
     <g id="line2d_15">
      <g>
       <use style="stroke:#000000;stroke-width:1.6;" x="552.566363" xlink:href="#m30efd57b68" y="313.848443"/>
      </g>
     </g>
     <g id="text_12">
      <!-- 0.0 -->
      <g transform="translate(536.663238 343.745318)scale(0.2 -0.2)">
       <use xlink:href="#DejaVuSans-48"/>
       <use x="63.623047" xlink:href="#DejaVuSans-46"/>
       <use x="95.410156" xlink:href="#DejaVuSans-48"/>
      </g>
     </g>
    </g>
    <g id="xtick_8">
     <g id="line2d_16">
      <g>
       <use style="stroke:#000000;stroke-width:1.6;" x="651.99678" xlink:href="#m30efd57b68" y="313.848443"/>
      </g>
     </g>
     <g id="text_13">
      <!-- 0.5 -->
      <g transform="translate(636.093655 343.745318)scale(0.2 -0.2)">
       <use xlink:href="#DejaVuSans-48"/>
       <use x="63.623047" xlink:href="#DejaVuSans-46"/>
       <use x="95.410156" xlink:href="#DejaVuSans-53"/>
      </g>
     </g>
    </g>
   </g>
   <g id="matplotlib.axis_4">
    <g id="ytick_6">
     <g id="line2d_17">
      <g>
       <use style="stroke:#000000;stroke-width:1.6;" x="382.053278" xlink:href="#m855db1ef54" y="313.848443"/>
      </g>
     </g>
     <g id="text_14">
      <!-- 0 -->
      <g transform="translate(354.628278 321.446881)scale(0.2 -0.2)">
       <use xlink:href="#DejaVuSans-48"/>
      </g>
     </g>
    </g>
    <g id="ytick_7">
     <g id="line2d_18">
      <g>
       <use style="stroke:#000000;stroke-width:1.6;" x="382.053278" xlink:href="#m855db1ef54" y="253.641191"/>
      </g>
     </g>
     <g id="text_15">
      <!-- 1 -->
      <g transform="translate(354.628278 261.239628)scale(0.2 -0.2)">
       <use xlink:href="#DejaVuSans-49"/>
      </g>
     </g>
    </g>
    <g id="ytick_8">
     <g id="line2d_19">
      <g>
       <use style="stroke:#000000;stroke-width:1.6;" x="382.053278" xlink:href="#m855db1ef54" y="193.433938"/>
      </g>
     </g>
     <g id="text_16">
      <!-- 2 -->
      <g transform="translate(354.628278 201.032375)scale(0.2 -0.2)">
       <use xlink:href="#DejaVuSans-50"/>
      </g>
     </g>
    </g>
    <g id="ytick_9">
     <g id="line2d_20">
      <g>
       <use style="stroke:#000000;stroke-width:1.6;" x="382.053278" xlink:href="#m855db1ef54" y="133.226685"/>
      </g>
     </g>
     <g id="text_17">
      <!-- 3 -->
      <defs>
       <path d="M 40.578125 39.3125 
Q 47.65625 37.796875 51.625 33 
Q 55.609375 28.21875 55.609375 21.1875 
Q 55.609375 10.40625 48.1875 4.484375 
Q 40.765625 -1.421875 27.09375 -1.421875 
Q 22.515625 -1.421875 17.65625 -0.515625 
Q 12.796875 0.390625 7.625 2.203125 
L 7.625 11.71875 
Q 11.71875 9.328125 16.59375 8.109375 
Q 21.484375 6.890625 26.8125 6.890625 
Q 36.078125 6.890625 40.9375 10.546875 
Q 45.796875 14.203125 45.796875 21.1875 
Q 45.796875 27.640625 41.28125 31.265625 
Q 36.765625 34.90625 28.71875 34.90625 
L 20.21875 34.90625 
L 20.21875 43.015625 
L 29.109375 43.015625 
Q 36.375 43.015625 40.234375 45.921875 
Q 44.09375 48.828125 44.09375 54.296875 
Q 44.09375 59.90625 40.109375 62.90625 
Q 36.140625 65.921875 28.71875 65.921875 
Q 24.65625 65.921875 20.015625 65.03125 
Q 15.375 64.15625 9.8125 62.3125 
L 9.8125 71.09375 
Q 15.4375 72.65625 20.34375 73.4375 
Q 25.25 74.21875 29.59375 74.21875 
Q 40.828125 74.21875 47.359375 69.109375 
Q 53.90625 64.015625 53.90625 55.328125 
Q 53.90625 49.265625 50.4375 45.09375 
Q 46.96875 40.921875 40.578125 39.3125 
z
" id="DejaVuSans-51"/>
      </defs>
      <g transform="translate(354.628278 140.825122)scale(0.2 -0.2)">
       <use xlink:href="#DejaVuSans-51"/>
      </g>
     </g>
    </g>
    <g id="ytick_10">
     <g id="line2d_21">
      <g>
       <use style="stroke:#000000;stroke-width:1.6;" x="382.053278" xlink:href="#m855db1ef54" y="73.019432"/>
      </g>
     </g>
     <g id="text_18">
      <!-- 4 -->
      <g transform="translate(354.628278 80.617869)scale(0.2 -0.2)">
       <use xlink:href="#DejaVuSans-52"/>
      </g>
     </g>
    </g>
    <g id="ytick_11">
     <g id="line2d_22">
      <g>
       <use style="stroke:#000000;stroke-width:1.6;" x="382.053278" xlink:href="#m855db1ef54" y="12.812179"/>
      </g>
     </g>
     <g id="text_19">
      <!-- 5 -->
      <g transform="translate(354.628278 20.410616)scale(0.2 -0.2)">
       <use xlink:href="#DejaVuSans-53"/>
      </g>
     </g>
    </g>
   </g>
   <g id="line2d_23">
    <path clip-path="url(#p9a5ebd7bea)" d="M 0 0 
" style="fill:none;stroke:#000000;stroke-linecap:square;stroke-width:2;"/>
   </g>
   <g id="line2d_24">
    <path clip-path="url(#p9a5ebd7bea)" d="M 0 0 
" style="fill:none;stroke:#000000;stroke-dasharray:7.4,3.2;stroke-dashoffset:0;stroke-width:2;"/>
   </g>
   <g id="patch_6">
    <path style="fill:none;stroke:#000000;stroke-linecap:square;stroke-linejoin:miter;stroke-width:0.8;"/>
   </g>
   <g id="patch_7">
    <path style="fill:none;stroke:#000000;stroke-linecap:square;stroke-linejoin:miter;stroke-width:0.8;"/>
   </g>
  </g>
 </g>
 <defs>
  <clipPath id="p0258c08aa3">
   <rect height="310.348443" width="310.348443" x="27.575" y="3.5"/>
  </clipPath>
  <clipPath id="p9a5ebd7bea">
   <rect height="310.348443" width="310.348443" x="382.053278" y="3.5"/>
  </clipPath>
 </defs>
</svg>
