<?xml version="1.0" encoding="utf-8" standalone="no"?>
<!DOCTYPE svg PUBLIC "-//W3C//DTD SVG 1.1//EN"
  "http://www.w3.org/Graphics/SVG/1.1/DTD/svg11.dtd">
<!-- Created with matplotlib (https://matplotlib.org/) -->
<svg height="329.141667pt" version="1.1" viewBox="0 0 365.391536 329.141667" width="365.391536pt" xmlns="http://www.w3.org/2000/svg" xmlns:xlink="http://www.w3.org/1999/xlink">
 <defs>
  <style type="text/css">
*{stroke-linecap:butt;stroke-linejoin:round;}
  </style>
 </defs>
 <g id="figure_1">
  <g id="patch_1">
   <path d="M 0 329.141667 
L 365.391536 329.141667 
L 365.391536 0 
L 0 0 
z
" style="fill:#ffffff;"/>
  </g>
  <g id="axes_1">
   <g id="patch_2">
    <path d="M -272.041667 268.441667 
L -7.1 268.441667 
L -7.1 3.5 
L -272.041667 3.5 
z
" style="fill:#ffffff;"/>
   </g>
   <g id="patch_3">
    <path clip-path="url(#pc2c5c549a3)" d="M -259.998864 268.441667 
L -253.977462 268.441667 
L -253.977462 268.441667 
L -259.998864 268.441667 
z
" style="fill:#7570b3;opacity:0.6;stroke:#000000;stroke-linejoin:miter;stroke-width:0.5;"/>
   </g>
   <g id="patch_4">
    <path clip-path="url(#pc2c5c549a3)" d="M -253.977462 268.441667 
L -247.956061 268.441667 
L -247.956061 268.441667 
L -253.977462 268.441667 
z
" style="fill:#7570b3;opacity:0.6;stroke:#000000;stroke-linejoin:miter;stroke-width:0.5;"/>
   </g>
   <g id="patch_5">
    <path clip-path="url(#pc2c5c549a3)" d="M -247.956061 268.441667 
L -241.934659 268.441667 
L -241.934659 268.441667 
L -247.956061 268.441667 
z
" style="fill:#7570b3;opacity:0.6;stroke:#000000;stroke-linejoin:miter;stroke-width:0.5;"/>
   </g>
   <g id="patch_6">
    <path clip-path="url(#pc2c5c549a3)" d="M -241.934659 268.441667 
L -235.913258 268.441667 
L -235.913258 268.441667 
L -241.934659 268.441667 
z
" style="fill:#7570b3;opacity:0.6;stroke:#000000;stroke-linejoin:miter;stroke-width:0.5;"/>
   </g>
   <g id="patch_7">
    <path clip-path="url(#pc2c5c549a3)" d="M -235.913258 268.441667 
L -229.891856 268.441667 
L -229.891856 268.441667 
L -235.913258 268.441667 
z
" style="fill:#7570b3;opacity:0.6;stroke:#000000;stroke-linejoin:miter;stroke-width:0.5;"/>
   </g>
   <g id="patch_8">
    <path clip-path="url(#pc2c5c549a3)" d="M -229.891856 268.441667 
L -223.870455 268.441667 
L -223.870455 268.441667 
L -229.891856 268.441667 
z
" style="fill:#7570b3;opacity:0.6;stroke:#000000;stroke-linejoin:miter;stroke-width:0.5;"/>
   </g>
   <g id="patch_9">
    <path clip-path="url(#pc2c5c549a3)" d="M -223.870455 268.441667 
L -217.849053 268.441667 
L -217.849053 268.441667 
L -223.870455 268.441667 
z
" style="fill:#7570b3;opacity:0.6;stroke:#000000;stroke-linejoin:miter;stroke-width:0.5;"/>
   </g>
   <g id="patch_10">
    <path clip-path="url(#pc2c5c549a3)" d="M -217.849053 268.441667 
L -211.827652 268.441667 
L -211.827652 268.441667 
L -217.849053 268.441667 
z
" style="fill:#7570b3;opacity:0.6;stroke:#000000;stroke-linejoin:miter;stroke-width:0.5;"/>
   </g>
   <g id="patch_11">
    <path clip-path="url(#pc2c5c549a3)" d="M -211.827652 268.441667 
L -205.80625 268.441667 
L -205.80625 268.441667 
L -211.827652 268.441667 
z
" style="fill:#7570b3;opacity:0.6;stroke:#000000;stroke-linejoin:miter;stroke-width:0.5;"/>
   </g>
   <g id="patch_12">
    <path clip-path="url(#pc2c5c549a3)" d="M -205.80625 268.441667 
L -199.784848 268.441667 
L -199.784848 268.441667 
L -205.80625 268.441667 
z
" style="fill:#7570b3;opacity:0.6;stroke:#000000;stroke-linejoin:miter;stroke-width:0.5;"/>
   </g>
   <g id="patch_13">
    <path clip-path="url(#pc2c5c549a3)" d="M -199.784848 268.441667 
L -193.763447 268.441667 
L -193.763447 268.441667 
L -199.784848 268.441667 
z
" style="fill:#7570b3;opacity:0.6;stroke:#000000;stroke-linejoin:miter;stroke-width:0.5;"/>
   </g>
   <g id="patch_14">
    <path clip-path="url(#pc2c5c549a3)" d="M -193.763447 268.441667 
L -187.742045 268.441667 
L -187.742045 268.441667 
L -193.763447 268.441667 
z
" style="fill:#7570b3;opacity:0.6;stroke:#000000;stroke-linejoin:miter;stroke-width:0.5;"/>
   </g>
   <g id="patch_15">
    <path clip-path="url(#pc2c5c549a3)" d="M -187.742045 268.441667 
L -181.720644 268.441667 
L -181.720644 268.441667 
L -187.742045 268.441667 
z
" style="fill:#7570b3;opacity:0.6;stroke:#000000;stroke-linejoin:miter;stroke-width:0.5;"/>
   </g>
   <g id="patch_16">
    <path clip-path="url(#pc2c5c549a3)" d="M -181.720644 268.441667 
L -175.699242 268.441667 
L -175.699242 268.441667 
L -181.720644 268.441667 
z
" style="fill:#7570b3;opacity:0.6;stroke:#000000;stroke-linejoin:miter;stroke-width:0.5;"/>
   </g>
   <g id="patch_17">
    <path clip-path="url(#pc2c5c549a3)" d="M -175.699242 268.441667 
L -169.677841 268.441667 
L -169.677841 268.441667 
L -175.699242 268.441667 
z
" style="fill:#7570b3;opacity:0.6;stroke:#000000;stroke-linejoin:miter;stroke-width:0.5;"/>
   </g>
   <g id="patch_18">
    <path clip-path="url(#pc2c5c549a3)" d="M -169.677841 268.441667 
L -163.656439 268.441667 
L -163.656439 260.556498 
L -169.677841 260.556498 
z
" style="fill:#7570b3;opacity:0.6;stroke:#000000;stroke-linejoin:miter;stroke-width:0.5;"/>
   </g>
   <g id="patch_19">
    <path clip-path="url(#pc2c5c549a3)" d="M -163.656439 268.441667 
L -157.635038 268.441667 
L -157.635038 268.441667 
L -163.656439 268.441667 
z
" style="fill:#7570b3;opacity:0.6;stroke:#000000;stroke-linejoin:miter;stroke-width:0.5;"/>
   </g>
   <g id="patch_20">
    <path clip-path="url(#pc2c5c549a3)" d="M -157.635038 268.441667 
L -151.613636 268.441667 
L -151.613636 268.441667 
L -157.635038 268.441667 
z
" style="fill:#7570b3;opacity:0.6;stroke:#000000;stroke-linejoin:miter;stroke-width:0.5;"/>
   </g>
   <g id="patch_21">
    <path clip-path="url(#pc2c5c549a3)" d="M -151.613636 268.441667 
L -145.592235 268.441667 
L -145.592235 260.556498 
L -151.613636 260.556498 
z
" style="fill:#7570b3;opacity:0.6;stroke:#000000;stroke-linejoin:miter;stroke-width:0.5;"/>
   </g>
   <g id="patch_22">
    <path clip-path="url(#pc2c5c549a3)" d="M -145.592235 268.441667 
L -139.570833 268.441667 
L -139.570833 268.441667 
L -145.592235 268.441667 
z
" style="fill:#7570b3;opacity:0.6;stroke:#000000;stroke-linejoin:miter;stroke-width:0.5;"/>
   </g>
   <g id="patch_23">
    <path clip-path="url(#pc2c5c549a3)" d="M -139.570833 268.441667 
L -133.549432 268.441667 
L -133.549432 260.556498 
L -139.570833 260.556498 
z
" style="fill:#7570b3;opacity:0.6;stroke:#000000;stroke-linejoin:miter;stroke-width:0.5;"/>
   </g>
   <g id="patch_24">
    <path clip-path="url(#pc2c5c549a3)" d="M -133.549432 268.441667 
L -127.52803 268.441667 
L -127.52803 260.556498 
L -133.549432 260.556498 
z
" style="fill:#7570b3;opacity:0.6;stroke:#000000;stroke-linejoin:miter;stroke-width:0.5;"/>
   </g>
   <g id="patch_25">
    <path clip-path="url(#pc2c5c549a3)" d="M -127.52803 268.441667 
L -121.506629 268.441667 
L -121.506629 229.015823 
L -127.52803 229.015823 
z
" style="fill:#7570b3;opacity:0.6;stroke:#000000;stroke-linejoin:miter;stroke-width:0.5;"/>
   </g>
   <g id="patch_26">
    <path clip-path="url(#pc2c5c549a3)" d="M -121.506629 268.441667 
L -115.485227 268.441667 
L -115.485227 244.786161 
L -121.506629 244.786161 
z
" style="fill:#7570b3;opacity:0.6;stroke:#000000;stroke-linejoin:miter;stroke-width:0.5;"/>
   </g>
   <g id="patch_27">
    <path clip-path="url(#pc2c5c549a3)" d="M -115.485227 268.441667 
L -109.463826 268.441667 
L -109.463826 229.015823 
L -115.485227 229.015823 
z
" style="fill:#7570b3;opacity:0.6;stroke:#000000;stroke-linejoin:miter;stroke-width:0.5;"/>
   </g>
   <g id="patch_28">
    <path clip-path="url(#pc2c5c549a3)" d="M -109.463826 268.441667 
L -103.442424 268.441667 
L -103.442424 205.360317 
L -109.463826 205.360317 
z
" style="fill:#7570b3;opacity:0.6;stroke:#000000;stroke-linejoin:miter;stroke-width:0.5;"/>
   </g>
   <g id="patch_29">
    <path clip-path="url(#pc2c5c549a3)" d="M -103.442424 268.441667 
L -97.421023 268.441667 
L -97.421023 236.900992 
L -103.442424 236.900992 
z
" style="fill:#7570b3;opacity:0.6;stroke:#000000;stroke-linejoin:miter;stroke-width:0.5;"/>
   </g>
   <g id="patch_30">
    <path clip-path="url(#pc2c5c549a3)" d="M -97.421023 268.441667 
L -91.399621 268.441667 
L -91.399621 142.278968 
L -97.421023 142.278968 
z
" style="fill:#7570b3;opacity:0.6;stroke:#000000;stroke-linejoin:miter;stroke-width:0.5;"/>
   </g>
   <g id="patch_31">
    <path clip-path="url(#pc2c5c549a3)" d="M -91.399621 268.441667 
L -85.37822 268.441667 
L -85.37822 197.475149 
L -91.399621 197.475149 
z
" style="fill:#7570b3;opacity:0.6;stroke:#000000;stroke-linejoin:miter;stroke-width:0.5;"/>
   </g>
   <g id="patch_32">
    <path clip-path="url(#pc2c5c549a3)" d="M -85.37822 268.441667 
L -79.356818 268.441667 
L -79.356818 150.164137 
L -85.37822 150.164137 
z
" style="fill:#7570b3;opacity:0.6;stroke:#000000;stroke-linejoin:miter;stroke-width:0.5;"/>
   </g>
   <g id="patch_33">
    <path clip-path="url(#pc2c5c549a3)" d="M -79.356818 268.441667 
L -73.335417 268.441667 
L -73.335417 189.58998 
L -79.356818 189.58998 
z
" style="fill:#7570b3;opacity:0.6;stroke:#000000;stroke-linejoin:miter;stroke-width:0.5;"/>
   </g>
   <g id="patch_34">
    <path clip-path="url(#pc2c5c549a3)" d="M -73.335417 268.441667 
L -67.314015 268.441667 
L -67.314015 165.934474 
L -73.335417 165.934474 
z
" style="fill:#7570b3;opacity:0.6;stroke:#000000;stroke-linejoin:miter;stroke-width:0.5;"/>
   </g>
   <g id="patch_35">
    <path clip-path="url(#pc2c5c549a3)" d="M -67.314015 268.441667 
L -61.292614 268.441667 
L -61.292614 213.245486 
L -67.314015 213.245486 
z
" style="fill:#7570b3;opacity:0.6;stroke:#000000;stroke-linejoin:miter;stroke-width:0.5;"/>
   </g>
   <g id="patch_36">
    <path clip-path="url(#pc2c5c549a3)" d="M -61.292614 268.441667 
L -55.271212 268.441667 
L -55.271212 197.475149 
L -61.292614 197.475149 
z
" style="fill:#7570b3;opacity:0.6;stroke:#000000;stroke-linejoin:miter;stroke-width:0.5;"/>
   </g>
   <g id="patch_37">
    <path clip-path="url(#pc2c5c549a3)" d="M -55.271212 268.441667 
L -49.249811 268.441667 
L -49.249811 189.58998 
L -55.271212 189.58998 
z
" style="fill:#7570b3;opacity:0.6;stroke:#000000;stroke-linejoin:miter;stroke-width:0.5;"/>
   </g>
   <g id="patch_38">
    <path clip-path="url(#pc2c5c549a3)" d="M -49.249811 268.441667 
L -43.228409 268.441667 
L -43.228409 189.58998 
L -49.249811 189.58998 
z
" style="fill:#7570b3;opacity:0.6;stroke:#000000;stroke-linejoin:miter;stroke-width:0.5;"/>
   </g>
   <g id="patch_39">
    <path clip-path="url(#pc2c5c549a3)" d="M -43.228409 268.441667 
L -37.207008 268.441667 
L -37.207008 110.738294 
L -43.228409 110.738294 
z
" style="fill:#7570b3;opacity:0.6;stroke:#000000;stroke-linejoin:miter;stroke-width:0.5;"/>
   </g>
   <g id="patch_40">
    <path clip-path="url(#pc2c5c549a3)" d="M -37.207008 268.441667 
L -31.185606 268.441667 
L -31.185606 16.11627 
L -37.207008 16.11627 
z
" style="fill:#7570b3;opacity:0.6;stroke:#000000;stroke-linejoin:miter;stroke-width:0.5;"/>
   </g>
   <g id="patch_41">
    <path clip-path="url(#pc2c5c549a3)" d="M -31.185606 268.441667 
L -25.164205 268.441667 
L -25.164205 181.704812 
L -31.185606 181.704812 
z
" style="fill:#7570b3;opacity:0.6;stroke:#000000;stroke-linejoin:miter;stroke-width:0.5;"/>
   </g>
   <g id="patch_42">
    <path clip-path="url(#pc2c5c549a3)" d="M -25.164205 268.441667 
L -19.142803 268.441667 
L -19.142803 268.441667 
L -25.164205 268.441667 
z
" style="fill:#7570b3;opacity:0.6;stroke:#000000;stroke-linejoin:miter;stroke-width:0.5;"/>
   </g>
   <g id="patch_43">
    <path clip-path="url(#pc2c5c549a3)" d="M -259.998864 268.441667 
L -253.977462 268.441667 
L -253.977462 268.441667 
L -259.998864 268.441667 
z
" style="fill:#d95f02;opacity:0.6;stroke:#000000;stroke-linejoin:miter;stroke-width:0.5;"/>
   </g>
   <g id="patch_44">
    <path clip-path="url(#pc2c5c549a3)" d="M -253.977462 268.441667 
L -247.956061 268.441667 
L -247.956061 268.441667 
L -253.977462 268.441667 
z
" style="fill:#d95f02;opacity:0.6;stroke:#000000;stroke-linejoin:miter;stroke-width:0.5;"/>
   </g>
   <g id="patch_45">
    <path clip-path="url(#pc2c5c549a3)" d="M -247.956061 268.441667 
L -241.934659 268.441667 
L -241.934659 268.441667 
L -247.956061 268.441667 
z
" style="fill:#d95f02;opacity:0.6;stroke:#000000;stroke-linejoin:miter;stroke-width:0.5;"/>
   </g>
   <g id="patch_46">
    <path clip-path="url(#pc2c5c549a3)" d="M -241.934659 268.441667 
L -235.913258 268.441667 
L -235.913258 268.441667 
L -241.934659 268.441667 
z
" style="fill:#d95f02;opacity:0.6;stroke:#000000;stroke-linejoin:miter;stroke-width:0.5;"/>
   </g>
   <g id="patch_47">
    <path clip-path="url(#pc2c5c549a3)" d="M -235.913258 268.441667 
L -229.891856 268.441667 
L -229.891856 268.441667 
L -235.913258 268.441667 
z
" style="fill:#d95f02;opacity:0.6;stroke:#000000;stroke-linejoin:miter;stroke-width:0.5;"/>
   </g>
   <g id="patch_48">
    <path clip-path="url(#pc2c5c549a3)" d="M -229.891856 268.441667 
L -223.870455 268.441667 
L -223.870455 268.441667 
L -229.891856 268.441667 
z
" style="fill:#d95f02;opacity:0.6;stroke:#000000;stroke-linejoin:miter;stroke-width:0.5;"/>
   </g>
   <g id="patch_49">
    <path clip-path="url(#pc2c5c549a3)" d="M -223.870455 268.441667 
L -217.849053 268.441667 
L -217.849053 268.441667 
L -223.870455 268.441667 
z
" style="fill:#d95f02;opacity:0.6;stroke:#000000;stroke-linejoin:miter;stroke-width:0.5;"/>
   </g>
   <g id="patch_50">
    <path clip-path="url(#pc2c5c549a3)" d="M -217.849053 268.441667 
L -211.827652 268.441667 
L -211.827652 268.441667 
L -217.849053 268.441667 
z
" style="fill:#d95f02;opacity:0.6;stroke:#000000;stroke-linejoin:miter;stroke-width:0.5;"/>
   </g>
   <g id="patch_51">
    <path clip-path="url(#pc2c5c549a3)" d="M -211.827652 268.441667 
L -205.80625 268.441667 
L -205.80625 268.441667 
L -211.827652 268.441667 
z
" style="fill:#d95f02;opacity:0.6;stroke:#000000;stroke-linejoin:miter;stroke-width:0.5;"/>
   </g>
   <g id="patch_52">
    <path clip-path="url(#pc2c5c549a3)" d="M -205.80625 268.441667 
L -199.784848 268.441667 
L -199.784848 268.441667 
L -205.80625 268.441667 
z
" style="fill:#d95f02;opacity:0.6;stroke:#000000;stroke-linejoin:miter;stroke-width:0.5;"/>
   </g>
   <g id="patch_53">
    <path clip-path="url(#pc2c5c549a3)" d="M -199.784848 268.441667 
L -193.763447 268.441667 
L -193.763447 268.441667 
L -199.784848 268.441667 
z
" style="fill:#d95f02;opacity:0.6;stroke:#000000;stroke-linejoin:miter;stroke-width:0.5;"/>
   </g>
   <g id="patch_54">
    <path clip-path="url(#pc2c5c549a3)" d="M -193.763447 268.441667 
L -187.742045 268.441667 
L -187.742045 268.441667 
L -193.763447 268.441667 
z
" style="fill:#d95f02;opacity:0.6;stroke:#000000;stroke-linejoin:miter;stroke-width:0.5;"/>
   </g>
   <g id="patch_55">
    <path clip-path="url(#pc2c5c549a3)" d="M -187.742045 268.441667 
L -181.720644 268.441667 
L -181.720644 268.441667 
L -187.742045 268.441667 
z
" style="fill:#d95f02;opacity:0.6;stroke:#000000;stroke-linejoin:miter;stroke-width:0.5;"/>
   </g>
   <g id="patch_56">
    <path clip-path="url(#pc2c5c549a3)" d="M -181.720644 268.441667 
L -175.699242 268.441667 
L -175.699242 268.441667 
L -181.720644 268.441667 
z
" style="fill:#d95f02;opacity:0.6;stroke:#000000;stroke-linejoin:miter;stroke-width:0.5;"/>
   </g>
   <g id="patch_57">
    <path clip-path="url(#pc2c5c549a3)" d="M -175.699242 268.441667 
L -169.677841 268.441667 
L -169.677841 268.441667 
L -175.699242 268.441667 
z
" style="fill:#d95f02;opacity:0.6;stroke:#000000;stroke-linejoin:miter;stroke-width:0.5;"/>
   </g>
   <g id="patch_58">
    <path clip-path="url(#pc2c5c549a3)" d="M -169.677841 268.441667 
L -163.656439 268.441667 
L -163.656439 268.441667 
L -169.677841 268.441667 
z
" style="fill:#d95f02;opacity:0.6;stroke:#000000;stroke-linejoin:miter;stroke-width:0.5;"/>
   </g>
   <g id="patch_59">
    <path clip-path="url(#pc2c5c549a3)" d="M -163.656439 268.441667 
L -157.635038 268.441667 
L -157.635038 268.441667 
L -163.656439 268.441667 
z
" style="fill:#d95f02;opacity:0.6;stroke:#000000;stroke-linejoin:miter;stroke-width:0.5;"/>
   </g>
   <g id="patch_60">
    <path clip-path="url(#pc2c5c549a3)" d="M -157.635038 268.441667 
L -151.613636 268.441667 
L -151.613636 268.441667 
L -157.635038 268.441667 
z
" style="fill:#d95f02;opacity:0.6;stroke:#000000;stroke-linejoin:miter;stroke-width:0.5;"/>
   </g>
   <g id="patch_61">
    <path clip-path="url(#pc2c5c549a3)" d="M -151.613636 268.441667 
L -145.592235 268.441667 
L -145.592235 268.441667 
L -151.613636 268.441667 
z
" style="fill:#d95f02;opacity:0.6;stroke:#000000;stroke-linejoin:miter;stroke-width:0.5;"/>
   </g>
   <g id="patch_62">
    <path clip-path="url(#pc2c5c549a3)" d="M -145.592235 268.441667 
L -139.570833 268.441667 
L -139.570833 259.201991 
L -145.592235 259.201991 
z
" style="fill:#d95f02;opacity:0.6;stroke:#000000;stroke-linejoin:miter;stroke-width:0.5;"/>
   </g>
   <g id="patch_63">
    <path clip-path="url(#pc2c5c549a3)" d="M -139.570833 268.441667 
L -133.549432 268.441667 
L -133.549432 249.962314 
L -139.570833 249.962314 
z
" style="fill:#d95f02;opacity:0.6;stroke:#000000;stroke-linejoin:miter;stroke-width:0.5;"/>
   </g>
   <g id="patch_64">
    <path clip-path="url(#pc2c5c549a3)" d="M -133.549432 268.441667 
L -127.52803 268.441667 
L -127.52803 249.962314 
L -133.549432 249.962314 
z
" style="fill:#d95f02;opacity:0.6;stroke:#000000;stroke-linejoin:miter;stroke-width:0.5;"/>
   </g>
   <g id="patch_65">
    <path clip-path="url(#pc2c5c549a3)" d="M -127.52803 268.441667 
L -121.506629 268.441667 
L -121.506629 240.722638 
L -127.52803 240.722638 
z
" style="fill:#d95f02;opacity:0.6;stroke:#000000;stroke-linejoin:miter;stroke-width:0.5;"/>
   </g>
   <g id="patch_66">
    <path clip-path="url(#pc2c5c549a3)" d="M -121.506629 268.441667 
L -115.485227 268.441667 
L -115.485227 166.805229 
L -121.506629 166.805229 
z
" style="fill:#d95f02;opacity:0.6;stroke:#000000;stroke-linejoin:miter;stroke-width:0.5;"/>
   </g>
   <g id="patch_67">
    <path clip-path="url(#pc2c5c549a3)" d="M -115.485227 268.441667 
L -109.463826 268.441667 
L -109.463826 213.00361 
L -115.485227 213.00361 
z
" style="fill:#d95f02;opacity:0.6;stroke:#000000;stroke-linejoin:miter;stroke-width:0.5;"/>
   </g>
   <g id="patch_68">
    <path clip-path="url(#pc2c5c549a3)" d="M -109.463826 268.441667 
L -103.442424 268.441667 
L -103.442424 148.325877 
L -109.463826 148.325877 
z
" style="fill:#d95f02;opacity:0.6;stroke:#000000;stroke-linejoin:miter;stroke-width:0.5;"/>
   </g>
   <g id="patch_69">
    <path clip-path="url(#pc2c5c549a3)" d="M -103.442424 268.441667 
L -97.421023 268.441667 
L -97.421023 120.606848 
L -103.442424 120.606848 
z
" style="fill:#d95f02;opacity:0.6;stroke:#000000;stroke-linejoin:miter;stroke-width:0.5;"/>
   </g>
   <g id="patch_70">
    <path clip-path="url(#pc2c5c549a3)" d="M -97.421023 268.441667 
L -91.399621 268.441667 
L -91.399621 120.606848 
L -97.421023 120.606848 
z
" style="fill:#d95f02;opacity:0.6;stroke:#000000;stroke-linejoin:miter;stroke-width:0.5;"/>
   </g>
   <g id="patch_71">
    <path clip-path="url(#pc2c5c549a3)" d="M -91.399621 268.441667 
L -85.37822 268.441667 
L -85.37822 65.168791 
L -91.399621 65.168791 
z
" style="fill:#d95f02;opacity:0.6;stroke:#000000;stroke-linejoin:miter;stroke-width:0.5;"/>
   </g>
   <g id="patch_72">
    <path clip-path="url(#pc2c5c549a3)" d="M -85.37822 268.441667 
L -79.356818 268.441667 
L -79.356818 139.086201 
L -85.37822 139.086201 
z
" style="fill:#d95f02;opacity:0.6;stroke:#000000;stroke-linejoin:miter;stroke-width:0.5;"/>
   </g>
   <g id="patch_73">
    <path clip-path="url(#pc2c5c549a3)" d="M -79.356818 268.441667 
L -73.335417 268.441667 
L -73.335417 166.805229 
L -79.356818 166.805229 
z
" style="fill:#d95f02;opacity:0.6;stroke:#000000;stroke-linejoin:miter;stroke-width:0.5;"/>
   </g>
   <g id="patch_74">
    <path clip-path="url(#pc2c5c549a3)" d="M -73.335417 268.441667 
L -67.314015 268.441667 
L -67.314015 157.565553 
L -73.335417 157.565553 
z
" style="fill:#d95f02;opacity:0.6;stroke:#000000;stroke-linejoin:miter;stroke-width:0.5;"/>
   </g>
   <g id="patch_75">
    <path clip-path="url(#pc2c5c549a3)" d="M -67.314015 268.441667 
L -61.292614 268.441667 
L -61.292614 185.284581 
L -67.314015 185.284581 
z
" style="fill:#d95f02;opacity:0.6;stroke:#000000;stroke-linejoin:miter;stroke-width:0.5;"/>
   </g>
   <g id="patch_76">
    <path clip-path="url(#pc2c5c549a3)" d="M -61.292614 268.441667 
L -55.271212 268.441667 
L -55.271212 213.00361 
L -61.292614 213.00361 
z
" style="fill:#d95f02;opacity:0.6;stroke:#000000;stroke-linejoin:miter;stroke-width:0.5;"/>
   </g>
   <g id="patch_77">
    <path clip-path="url(#pc2c5c549a3)" d="M -55.271212 268.441667 
L -49.249811 268.441667 
L -49.249811 222.243286 
L -55.271212 222.243286 
z
" style="fill:#d95f02;opacity:0.6;stroke:#000000;stroke-linejoin:miter;stroke-width:0.5;"/>
   </g>
   <g id="patch_78">
    <path clip-path="url(#pc2c5c549a3)" d="M -49.249811 268.441667 
L -43.228409 268.441667 
L -43.228409 240.722638 
L -49.249811 240.722638 
z
" style="fill:#d95f02;opacity:0.6;stroke:#000000;stroke-linejoin:miter;stroke-width:0.5;"/>
   </g>
   <g id="patch_79">
    <path clip-path="url(#pc2c5c549a3)" d="M -43.228409 268.441667 
L -37.207008 268.441667 
L -37.207008 222.243286 
L -43.228409 222.243286 
z
" style="fill:#d95f02;opacity:0.6;stroke:#000000;stroke-linejoin:miter;stroke-width:0.5;"/>
   </g>
   <g id="patch_80">
    <path clip-path="url(#pc2c5c549a3)" d="M -37.207008 268.441667 
L -31.185606 268.441667 
L -31.185606 231.482962 
L -37.207008 231.482962 
z
" style="fill:#d95f02;opacity:0.6;stroke:#000000;stroke-linejoin:miter;stroke-width:0.5;"/>
   </g>
   <g id="patch_81">
    <path clip-path="url(#pc2c5c549a3)" d="M -31.185606 268.441667 
L -25.164205 268.441667 
L -25.164205 249.962314 
L -31.185606 249.962314 
z
" style="fill:#d95f02;opacity:0.6;stroke:#000000;stroke-linejoin:miter;stroke-width:0.5;"/>
   </g>
   <g id="patch_82">
    <path clip-path="url(#pc2c5c549a3)" d="M -25.164205 268.441667 
L -19.142803 268.441667 
L -19.142803 268.441667 
L -25.164205 268.441667 
z
" style="fill:#d95f02;opacity:0.6;stroke:#000000;stroke-linejoin:miter;stroke-width:0.5;"/>
   </g>
   <g id="matplotlib.axis_1">
    <g id="xtick_1">
     <g id="line2d_1">
      <defs>
       <path d="M 0 0 
L 0 3.5 
" id="m602d959cf5" style="stroke:#000000;stroke-width:1.6;"/>
      </defs>
      <g/>
     </g>
     <g id="text_1">
      <!-- 0.0 -->
      <defs>
       <path d="M 31.78125 66.40625 
Q 24.171875 66.40625 20.328125 58.90625 
Q 16.5 51.421875 16.5 36.375 
Q 16.5 21.390625 20.328125 13.890625 
Q 24.171875 6.390625 31.78125 6.390625 
Q 39.453125 6.390625 43.28125 13.890625 
Q 47.125 21.390625 47.125 36.375 
Q 47.125 51.421875 43.28125 58.90625 
Q 39.453125 66.40625 31.78125 66.40625 
z
M 31.78125 74.21875 
Q 44.046875 74.21875 50.515625 64.515625 
Q 56.984375 54.828125 56.984375 36.375 
Q 56.984375 17.96875 50.515625 8.265625 
Q 44.046875 -1.421875 31.78125 -1.421875 
Q 19.53125 -1.421875 13.0625 8.265625 
Q 6.59375 17.96875 6.59375 36.375 
Q 6.59375 54.828125 13.0625 64.515625 
Q 19.53125 74.21875 31.78125 74.21875 
z
" id="DejaVuSans-48"/>
       <path d="M 10.6875 12.40625 
L 21 12.40625 
L 21 0 
L 10.6875 0 
z
" id="DejaVuSans-46"/>
      </defs>
      <g transform="translate(-275.901989 298.338542)scale(0.2 -0.2)">
       <use xlink:href="#DejaVuSans-48"/>
       <use x="63.623047" xlink:href="#DejaVuSans-46"/>
       <use x="95.410156" xlink:href="#DejaVuSans-48"/>
      </g>
     </g>
    </g>
    <g id="xtick_2">
     <g id="line2d_2">
      <g/>
     </g>
     <g id="text_2">
      <!-- 0.2 -->
      <defs>
       <path d="M 19.1875 8.296875 
L 53.609375 8.296875 
L 53.609375 0 
L 7.328125 0 
L 7.328125 8.296875 
Q 12.9375 14.109375 22.625 23.890625 
Q 32.328125 33.6875 34.8125 36.53125 
Q 39.546875 41.84375 41.421875 45.53125 
Q 43.3125 49.21875 43.3125 52.78125 
Q 43.3125 58.59375 39.234375 62.25 
Q 35.15625 65.921875 28.609375 65.921875 
Q 23.96875 65.921875 18.8125 64.3125 
Q 13.671875 62.703125 7.8125 59.421875 
L 7.8125 69.390625 
Q 13.765625 71.78125 18.9375 73 
Q 24.125 74.21875 28.421875 74.21875 
Q 39.75 74.21875 46.484375 68.546875 
Q 53.21875 62.890625 53.21875 53.421875 
Q 53.21875 48.921875 51.53125 44.890625 
Q 49.859375 40.875 45.40625 35.40625 
Q 44.1875 33.984375 37.640625 27.21875 
Q 31.109375 20.453125 19.1875 8.296875 
z
" id="DejaVuSans-50"/>
      </defs>
      <g transform="translate(-207.085971 298.338542)scale(0.2 -0.2)">
       <use xlink:href="#DejaVuSans-48"/>
       <use x="63.623047" xlink:href="#DejaVuSans-46"/>
       <use x="95.410156" xlink:href="#DejaVuSans-50"/>
      </g>
     </g>
    </g>
    <g id="xtick_3">
     <g id="line2d_3">
      <g/>
     </g>
     <g id="text_3">
      <!-- 0.4 -->
      <defs>
       <path d="M 37.796875 64.3125 
L 12.890625 25.390625 
L 37.796875 25.390625 
z
M 35.203125 72.90625 
L 47.609375 72.90625 
L 47.609375 25.390625 
L 58.015625 25.390625 
L 58.015625 17.1875 
L 47.609375 17.1875 
L 47.609375 0 
L 37.796875 0 
L 37.796875 17.1875 
L 4.890625 17.1875 
L 4.890625 26.703125 
z
" id="DejaVuSans-52"/>
      </defs>
      <g transform="translate(-138.269954 298.338542)scale(0.2 -0.2)">
       <use xlink:href="#DejaVuSans-48"/>
       <use x="63.623047" xlink:href="#DejaVuSans-46"/>
       <use x="95.410156" xlink:href="#DejaVuSans-52"/>
      </g>
     </g>
    </g>
    <g id="xtick_4">
     <g id="line2d_4">
      <g/>
     </g>
     <g id="text_4">
      <!-- 0.6 -->
      <defs>
       <path d="M 33.015625 40.375 
Q 26.375 40.375 22.484375 35.828125 
Q 18.609375 31.296875 18.609375 23.390625 
Q 18.609375 15.53125 22.484375 10.953125 
Q 26.375 6.390625 33.015625 6.390625 
Q 39.65625 6.390625 43.53125 10.953125 
Q 47.40625 15.53125 47.40625 23.390625 
Q 47.40625 31.296875 43.53125 35.828125 
Q 39.65625 40.375 33.015625 40.375 
z
M 52.59375 71.296875 
L 52.59375 62.3125 
Q 48.875 64.0625 45.09375 64.984375 
Q 41.3125 65.921875 37.59375 65.921875 
Q 27.828125 65.921875 22.671875 59.328125 
Q 17.53125 52.734375 16.796875 39.40625 
Q 19.671875 43.65625 24.015625 45.921875 
Q 28.375 48.1875 33.59375 48.1875 
Q 44.578125 48.1875 50.953125 41.515625 
Q 57.328125 34.859375 57.328125 23.390625 
Q 57.328125 12.15625 50.6875 5.359375 
Q 44.046875 -1.421875 33.015625 -1.421875 
Q 20.359375 -1.421875 13.671875 8.265625 
Q 6.984375 17.96875 6.984375 36.375 
Q 6.984375 53.65625 15.1875 63.9375 
Q 23.390625 74.21875 37.203125 74.21875 
Q 40.921875 74.21875 44.703125 73.484375 
Q 48.484375 72.75 52.59375 71.296875 
z
" id="DejaVuSans-54"/>
      </defs>
      <g transform="translate(-69.453937 298.338542)scale(0.2 -0.2)">
       <use xlink:href="#DejaVuSans-48"/>
       <use x="63.623047" xlink:href="#DejaVuSans-46"/>
       <use x="95.410156" xlink:href="#DejaVuSans-54"/>
      </g>
     </g>
    </g>
    <g id="text_5">
     <!--   -->
     <defs>
      <path id="DejaVuSans-32"/>
     </defs>
     <g transform="translate(-142.748958 321.694792)scale(0.2 -0.2)">
      <use xlink:href="#DejaVuSans-32"/>
     </g>
    </g>
   </g>
   <g id="matplotlib.axis_2">
    <g id="ytick_1">
     <g id="line2d_5">
      <defs>
       <path d="M 0 0 
L -3.5 0 
" id="m56b1c51dc7" style="stroke:#000000;stroke-width:1.6;"/>
      </defs>
      <g/>
     </g>
     <g id="text_6">
      <!-- 0.00 -->
      <g transform="translate(-331.272917 276.040104)scale(0.2 -0.2)">
       <use xlink:href="#DejaVuSans-48"/>
       <use x="63.623047" xlink:href="#DejaVuSans-46"/>
       <use x="95.410156" xlink:href="#DejaVuSans-48"/>
       <use x="159.033203" xlink:href="#DejaVuSans-48"/>
      </g>
     </g>
    </g>
    <g id="ytick_2">
     <g id="line2d_6">
      <g/>
     </g>
     <g id="text_7">
      <!-- 0.05 -->
      <defs>
       <path d="M 10.796875 72.90625 
L 49.515625 72.90625 
L 49.515625 64.59375 
L 19.828125 64.59375 
L 19.828125 46.734375 
Q 21.96875 47.46875 24.109375 47.828125 
Q 26.265625 48.1875 28.421875 48.1875 
Q 40.625 48.1875 47.75 41.5 
Q 54.890625 34.8125 54.890625 23.390625 
Q 54.890625 11.625 47.5625 5.09375 
Q 40.234375 -1.421875 26.90625 -1.421875 
Q 22.3125 -1.421875 17.546875 -0.640625 
Q 12.796875 0.140625 7.71875 1.703125 
L 7.71875 11.625 
Q 12.109375 9.234375 16.796875 8.0625 
Q 21.484375 6.890625 26.703125 6.890625 
Q 35.15625 6.890625 40.078125 11.328125 
Q 45.015625 15.765625 45.015625 23.390625 
Q 45.015625 31 40.078125 35.4375 
Q 35.15625 39.890625 26.703125 39.890625 
Q 22.75 39.890625 18.8125 39.015625 
Q 14.890625 38.140625 10.796875 36.28125 
z
" id="DejaVuSans-53"/>
      </defs>
      <g transform="translate(-331.272917 200.736744)scale(0.2 -0.2)">
       <use xlink:href="#DejaVuSans-48"/>
       <use x="63.623047" xlink:href="#DejaVuSans-46"/>
       <use x="95.410156" xlink:href="#DejaVuSans-48"/>
       <use x="159.033203" xlink:href="#DejaVuSans-53"/>
      </g>
     </g>
    </g>
    <g id="ytick_3">
     <g id="line2d_7">
      <g/>
     </g>
     <g id="text_8">
      <!-- 0.10 -->
      <defs>
       <path d="M 12.40625 8.296875 
L 28.515625 8.296875 
L 28.515625 63.921875 
L 10.984375 60.40625 
L 10.984375 69.390625 
L 28.421875 72.90625 
L 38.28125 72.90625 
L 38.28125 8.296875 
L 54.390625 8.296875 
L 54.390625 0 
L 12.40625 0 
z
" id="DejaVuSans-49"/>
      </defs>
      <g transform="translate(-331.272917 125.433383)scale(0.2 -0.2)">
       <use xlink:href="#DejaVuSans-48"/>
       <use x="63.623047" xlink:href="#DejaVuSans-46"/>
       <use x="95.410156" xlink:href="#DejaVuSans-49"/>
       <use x="159.033203" xlink:href="#DejaVuSans-48"/>
      </g>
     </g>
    </g>
    <g id="ytick_4">
     <g id="line2d_8">
      <g/>
     </g>
     <g id="text_9">
      <!-- 0.15 -->
      <g transform="translate(-331.272917 50.130022)scale(0.2 -0.2)">
       <use xlink:href="#DejaVuSans-48"/>
       <use x="63.623047" xlink:href="#DejaVuSans-46"/>
       <use x="95.410156" xlink:href="#DejaVuSans-49"/>
       <use x="159.033203" xlink:href="#DejaVuSans-53"/>
      </g>
     </g>
    </g>
    <g id="text_10">
     <!--   -->
     <g transform="translate(-338.933167 138.767583)rotate(-90)scale(0.176 -0.176)">
      <use xlink:href="#DejaVuSans-32"/>
     </g>
    </g>
   </g>
   <g id="patch_83">
    <path style="fill:none;stroke:#000000;stroke-linecap:square;stroke-linejoin:miter;stroke-width:0.8;"/>
   </g>
   <g id="patch_84">
    <path style="fill:none;stroke:#000000;stroke-linecap:square;stroke-linejoin:miter;stroke-width:0.8;"/>
   </g>
  </g>
  <g id="axes_2">
   <g id="patch_85">
    <path d="M 96.7 268.441667 
L 361.641667 268.441667 
L 361.641667 3.5 
L 96.7 3.5 
z
" style="fill:#ffffff;"/>
   </g>
   <g id="PolyCollection_1">
    <defs>
     <path d="M 240.171274 -305.093535 
L 240.171274 -306.448548 
L 241.324902 -306.53446 
L 242.478529 -306.626723 
L 243.632157 -306.725166 
L 244.785784 -306.829521 
L 245.939412 -306.939429 
L 247.093039 -307.054454 
L 248.246667 -307.174096 
L 249.400294 -307.297818 
L 250.553922 -307.425065 
L 251.707549 -307.555297 
L 252.861177 -307.688013 
L 254.014805 -307.822784 
L 255.168432 -307.959268 
L 256.32206 -308.097236 
L 257.475687 -308.236583 
L 258.629315 -308.377333 
L 259.782942 -308.519645 
L 260.93657 -308.663801 
L 262.090197 -308.810203 
L 263.243825 -308.959348 
L 264.397452 -309.111804 
L 265.55108 -309.268184 
L 266.704707 -309.429104 
L 267.858335 -309.59514 
L 269.011962 -309.766784 
L 270.16559 -309.944389 
L 271.319217 -310.128116 
L 272.472845 -310.317895 
L 273.626472 -310.513376 
L 274.7801 -310.713905 
L 275.933728 -310.918514 
L 277.087355 -311.125928 
L 278.240983 -311.334592 
L 279.39461 -311.542718 
L 280.548238 -311.748356 
L 281.701865 -311.949465 
L 282.855493 -312.144001 
L 284.00912 -312.330002 
L 285.162748 -312.505661 
L 286.316375 -312.669387 
L 287.470003 -312.819855 
L 288.62363 -312.956019 
L 289.777258 -313.077119 
L 290.930885 -313.182659 
L 292.084513 -313.272378 
L 293.23814 -313.346207 
L 294.391768 -313.404222 
L 295.545396 -313.446612 
L 296.699023 -313.473641 
L 297.852651 -313.485635 
L 299.006278 -313.482982 
L 300.159906 -313.466141 
L 301.313533 -313.435673 
L 302.467161 -313.392278 
L 303.620788 -313.336842 
L 304.774416 -313.27048 
L 305.928043 -313.194581 
L 307.081671 -313.110847 
L 308.235298 -313.021312 
L 309.388926 -312.928358 
L 310.542553 -312.834702 
L 311.696181 -312.743381 
L 312.849808 -312.6577 
L 314.003436 -312.58118 
L 315.157063 -312.51748 
L 316.310691 -312.470309 
L 317.464319 -312.443321 
L 318.617946 -312.440006 
L 319.771574 -312.463569 
L 320.925201 -312.516804 
L 322.078829 -312.601967 
L 323.232456 -312.720647 
L 324.386084 -312.87364 
L 325.539711 -313.060832 
L 326.693339 -313.281092 
L 327.846966 -313.532181 
L 329.000594 -313.81069 
L 330.154221 -314.111996 
L 331.307849 -314.430273 
L 332.461476 -314.758531 
L 333.615104 -315.08872 
L 334.768731 -315.411884 
L 335.922359 -315.718376 
L 337.075987 -315.998125 
L 338.229614 -316.240969 
L 339.383242 -316.43701 
L 340.536869 -316.577014 
L 341.690497 -316.65281 
L 342.844124 -316.657672 
L 343.997752 -316.58667 
L 345.151379 -316.436952 
L 346.305007 -316.207947 
L 347.458634 -315.901458 
L 348.612262 -315.52165 
L 349.765889 -315.074917 
L 350.919517 -314.569631 
L 352.073144 -314.015802 
L 353.226772 -313.424648 
L 354.380399 -312.808122 
L 354.380399 -298.733962 
L 354.380399 -298.733962 
L 353.226772 -298.117435 
L 352.073144 -297.526282 
L 350.919517 -296.972453 
L 349.765889 -296.467167 
L 348.612262 -296.020433 
L 347.458634 -295.640626 
L 346.305007 -295.334137 
L 345.151379 -295.105131 
L 343.997752 -294.955414 
L 342.844124 -294.884411 
L 341.690497 -294.889273 
L 340.536869 -294.965069 
L 339.383242 -295.105074 
L 338.229614 -295.301115 
L 337.075987 -295.543958 
L 335.922359 -295.823708 
L 334.768731 -296.130199 
L 333.615104 -296.453363 
L 332.461476 -296.783553 
L 331.307849 -297.111811 
L 330.154221 -297.430087 
L 329.000594 -297.731394 
L 327.846966 -298.009902 
L 326.693339 -298.260992 
L 325.539711 -298.481252 
L 324.386084 -298.668443 
L 323.232456 -298.821436 
L 322.078829 -298.940116 
L 320.925201 -299.025279 
L 319.771574 -299.078515 
L 318.617946 -299.102078 
L 317.464319 -299.098763 
L 316.310691 -299.071775 
L 315.157063 -299.024603 
L 314.003436 -298.960904 
L 312.849808 -298.884384 
L 311.696181 -298.798703 
L 310.542553 -298.707381 
L 309.388926 -298.613726 
L 308.235298 -298.520771 
L 307.081671 -298.431236 
L 305.928043 -298.347502 
L 304.774416 -298.271603 
L 303.620788 -298.205241 
L 302.467161 -298.149805 
L 301.313533 -298.106411 
L 300.159906 -298.075943 
L 299.006278 -298.059101 
L 297.852651 -298.056448 
L 296.699023 -298.068443 
L 295.545396 -298.095472 
L 294.391768 -298.137861 
L 293.23814 -298.195877 
L 292.084513 -298.269705 
L 290.930885 -298.359424 
L 289.777258 -298.464965 
L 288.62363 -298.586064 
L 287.470003 -298.722228 
L 286.316375 -298.872696 
L 285.162748 -299.036423 
L 284.00912 -299.212081 
L 282.855493 -299.398082 
L 281.701865 -299.592618 
L 280.548238 -299.793727 
L 279.39461 -299.999365 
L 278.240983 -300.207492 
L 277.087355 -300.416155 
L 275.933728 -300.623569 
L 274.7801 -300.828179 
L 273.626472 -301.028708 
L 272.472845 -301.224188 
L 271.319217 -301.413967 
L 270.16559 -301.597695 
L 269.011962 -301.775299 
L 267.858335 -301.946943 
L 266.704707 -302.11298 
L 265.55108 -302.273899 
L 264.397452 -302.430279 
L 263.243825 -302.582735 
L 262.090197 -302.73188 
L 260.93657 -302.878282 
L 259.782942 -303.022439 
L 258.629315 -303.16475 
L 257.475687 -303.3055 
L 256.32206 -303.444847 
L 255.168432 -303.582815 
L 254.014805 -303.7193 
L 252.861177 -303.85407 
L 251.707549 -303.986787 
L 250.553922 -304.117018 
L 249.400294 -304.244265 
L 248.246667 -304.367987 
L 247.093039 -304.48763 
L 245.939412 -304.602654 
L 244.785784 -304.712562 
L 243.632157 -304.816917 
L 242.478529 -304.91536 
L 241.324902 -305.007624 
L 240.171274 -305.093535 
z
" id="ma970efdddb" style="stroke:#424242;"/>
    </defs>
    <g clip-path="url(#p6d416f7faa)">
     <use style="fill:#7c78ab;stroke:#424242;" x="0" xlink:href="#ma970efdddb" y="329.141667"/>
    </g>
   </g>
   <g id="PolyCollection_2">
    <defs>
     <path d="M 236.297974 -278.475622 
L 236.297974 -280.078128 
L 237.491463 -280.169776 
L 238.684952 -280.267318 
L 239.87844 -280.372039 
L 241.071929 -280.48562 
L 242.265418 -280.610059 
L 243.458906 -280.747539 
L 244.652395 -280.900259 
L 245.845883 -281.070232 
L 247.039372 -281.259091 
L 248.232861 -281.467905 
L 249.426349 -281.697053 
L 250.619838 -281.946156 
L 251.813327 -282.214104 
L 253.006815 -282.49916 
L 254.200304 -282.799151 
L 255.393793 -283.111714 
L 256.587281 -283.434572 
L 257.78077 -283.765809 
L 258.974259 -284.10409 
L 260.167747 -284.448808 
L 261.361236 -284.800131 
L 262.554725 -285.158923 
L 263.748213 -285.526569 
L 264.941702 -285.904698 
L 266.135191 -286.294856 
L 267.328679 -286.698162 
L 268.522168 -287.114986 
L 269.715656 -287.544701 
L 270.909145 -287.98552 
L 272.102634 -288.434455 
L 273.296122 -288.887379 
L 274.489611 -289.339188 
L 275.6831 -289.784032 
L 276.876588 -290.215584 
L 278.070077 -290.627316 
L 279.263566 -291.012751 
L 280.457054 -291.365674 
L 281.650543 -291.680305 
L 282.844032 -291.951426 
L 284.03752 -292.174482 
L 285.231009 -292.345684 
L 286.424498 -292.462106 
L 287.617986 -292.521806 
L 288.811475 -292.523958 
L 290.004964 -292.468977 
L 291.198452 -292.358623 
L 292.391941 -292.196048 
L 293.585429 -291.985763 
L 294.778918 -291.733499 
L 295.972407 -291.44597 
L 297.165895 -291.130525 
L 298.359384 -290.794738 
L 299.552873 -290.445953 
L 300.746361 -290.090849 
L 301.93985 -289.735062 
L 303.133339 -289.382904 
L 304.326827 -289.037228 
L 305.520316 -288.699424 
L 306.713805 -288.369571 
L 307.907293 -288.046704 
L 309.100782 -287.729174 
L 310.294271 -287.415048 
L 311.487759 -287.102509 
L 312.681248 -286.790214 
L 313.874736 -286.477564 
L 315.068225 -286.16487 
L 316.261714 -285.8534 
L 317.455202 -285.54531 
L 318.648691 -285.243468 
L 319.84218 -284.951206 
L 321.035668 -284.67202 
L 322.229157 -284.409252 
L 323.422646 -284.165794 
L 324.616134 -283.943839 
L 325.809623 -283.744687 
L 327.003112 -283.568638 
L 328.1966 -283.414964 
L 329.390089 -283.281953 
L 330.583578 -283.167024 
L 331.777066 -283.066883 
L 332.970555 -282.977726 
L 334.164044 -282.895453 
L 335.357532 -282.815887 
L 336.551021 -282.734996 
L 337.744509 -282.649092 
L 338.937998 -282.555012 
L 340.131487 -282.450269 
L 341.324975 -282.333163 
L 342.518464 -282.202846 
L 343.711953 -282.05934 
L 344.905441 -281.9035 
L 346.09893 -281.736925 
L 347.292419 -281.561825 
L 348.485907 -281.380861 
L 349.679396 -281.196953 
L 350.872885 -281.013102 
L 352.066373 -280.832214 
L 353.259862 -280.656956 
L 354.453351 -280.489644 
L 354.453351 -278.064106 
L 354.453351 -278.064106 
L 353.259862 -277.896794 
L 352.066373 -277.721536 
L 350.872885 -277.540648 
L 349.679396 -277.356797 
L 348.485907 -277.172889 
L 347.292419 -276.991925 
L 346.09893 -276.816825 
L 344.905441 -276.65025 
L 343.711953 -276.49441 
L 342.518464 -276.350904 
L 341.324975 -276.220587 
L 340.131487 -276.103481 
L 338.937998 -275.998738 
L 337.744509 -275.904658 
L 336.551021 -275.818754 
L 335.357532 -275.737863 
L 334.164044 -275.658297 
L 332.970555 -275.576024 
L 331.777066 -275.486867 
L 330.583578 -275.386726 
L 329.390089 -275.271797 
L 328.1966 -275.138786 
L 327.003112 -274.985112 
L 325.809623 -274.809063 
L 324.616134 -274.609911 
L 323.422646 -274.387956 
L 322.229157 -274.144498 
L 321.035668 -273.88173 
L 319.84218 -273.602544 
L 318.648691 -273.310282 
L 317.455202 -273.00844 
L 316.261714 -272.70035 
L 315.068225 -272.38888 
L 313.874736 -272.076186 
L 312.681248 -271.763536 
L 311.487759 -271.451241 
L 310.294271 -271.138702 
L 309.100782 -270.824576 
L 307.907293 -270.507046 
L 306.713805 -270.184179 
L 305.520316 -269.854326 
L 304.326827 -269.516522 
L 303.133339 -269.170846 
L 301.93985 -268.818688 
L 300.746361 -268.462901 
L 299.552873 -268.107797 
L 298.359384 -267.759012 
L 297.165895 -267.423225 
L 295.972407 -267.10778 
L 294.778918 -266.820251 
L 293.585429 -266.567987 
L 292.391941 -266.357702 
L 291.198452 -266.195127 
L 290.004964 -266.084773 
L 288.811475 -266.029792 
L 287.617986 -266.031944 
L 286.424498 -266.091644 
L 285.231009 -266.208066 
L 284.03752 -266.379268 
L 282.844032 -266.602324 
L 281.650543 -266.873445 
L 280.457054 -267.188076 
L 279.263566 -267.540999 
L 278.070077 -267.926434 
L 276.876588 -268.338166 
L 275.6831 -268.769718 
L 274.489611 -269.214562 
L 273.296122 -269.666371 
L 272.102634 -270.119295 
L 270.909145 -270.56823 
L 269.715656 -271.009049 
L 268.522168 -271.438764 
L 267.328679 -271.855588 
L 266.135191 -272.258894 
L 264.941702 -272.649052 
L 263.748213 -273.027181 
L 262.554725 -273.394827 
L 261.361236 -273.753619 
L 260.167747 -274.104942 
L 258.974259 -274.44966 
L 257.78077 -274.787941 
L 256.587281 -275.119178 
L 255.393793 -275.442036 
L 254.200304 -275.754599 
L 253.006815 -276.05459 
L 251.813327 -276.339646 
L 250.619838 -276.607594 
L 249.426349 -276.856697 
L 248.232861 -277.085845 
L 247.039372 -277.294659 
L 245.845883 -277.483518 
L 244.652395 -277.653491 
L 243.458906 -277.806211 
L 242.265418 -277.943691 
L 241.071929 -278.06813 
L 239.87844 -278.181711 
L 238.684952 -278.286432 
L 237.491463 -278.383974 
L 236.297974 -278.475622 
z
" id="m45d5734e0e" style="stroke:#424242;"/>
    </defs>
    <g clip-path="url(#p6d416f7faa)">
     <use style="fill:#be631d;stroke:#424242;" x="0" xlink:href="#m45d5734e0e" y="329.141667"/>
    </g>
   </g>
   <g id="PolyCollection_3">
    <defs>
     <path d="M 207.748502 -234.754515 
L 207.748502 -244.316735 
L 208.183777 -244.371679 
L 208.619053 -244.425265 
L 209.054328 -244.477457 
L 209.489603 -244.528219 
L 209.924878 -244.57752 
L 210.360154 -244.625329 
L 210.795429 -244.67162 
L 211.230704 -244.716369 
L 211.665979 -244.759551 
L 212.101254 -244.801149 
L 212.53653 -244.841144 
L 212.971805 -244.879523 
L 213.40708 -244.916273 
L 213.842355 -244.951384 
L 214.277631 -244.98485 
L 214.712906 -245.016666 
L 215.148181 -245.046831 
L 215.583456 -245.075344 
L 216.018731 -245.102208 
L 216.454007 -245.127429 
L 216.889282 -245.151014 
L 217.324557 -245.172973 
L 217.759832 -245.193316 
L 218.195108 -245.212059 
L 218.630383 -245.229216 
L 219.065658 -245.244805 
L 219.500933 -245.258846 
L 219.936209 -245.27136 
L 220.371484 -245.282369 
L 220.806759 -245.291896 
L 221.242034 -245.299969 
L 221.677309 -245.306612 
L 222.112585 -245.311854 
L 222.54786 -245.315724 
L 222.983135 -245.318251 
L 223.41841 -245.319465 
L 223.853686 -245.319397 
L 224.288961 -245.318079 
L 224.724236 -245.315542 
L 225.159511 -245.311818 
L 225.594787 -245.30694 
L 226.030062 -245.300939 
L 226.465337 -245.293847 
L 226.900612 -245.285697 
L 227.335887 -245.276518 
L 227.771163 -245.266342 
L 228.206438 -245.2552 
L 228.641713 -245.243119 
L 229.076988 -245.23013 
L 229.512264 -245.21626 
L 229.947539 -245.201535 
L 230.382814 -245.185981 
L 230.818089 -245.169623 
L 231.253364 -245.152483 
L 231.68864 -245.134584 
L 232.123915 -245.115945 
L 232.55919 -245.096587 
L 232.994465 -245.076527 
L 233.429741 -245.055781 
L 233.865016 -245.034363 
L 234.300291 -245.012286 
L 234.735566 -244.989563 
L 235.170842 -244.966203 
L 235.606117 -244.942214 
L 236.041392 -244.917604 
L 236.476667 -244.892378 
L 236.911942 -244.866539 
L 237.347218 -244.84009 
L 237.782493 -244.813033 
L 238.217768 -244.785366 
L 238.653043 -244.75709 
L 239.088319 -244.7282 
L 239.523594 -244.698693 
L 239.958869 -244.668565 
L 240.394144 -244.637809 
L 240.829419 -244.606419 
L 241.264695 -244.574388 
L 241.69997 -244.541708 
L 242.135245 -244.50837 
L 242.57052 -244.474365 
L 243.005796 -244.439685 
L 243.441071 -244.404321 
L 243.876346 -244.368261 
L 244.311621 -244.331499 
L 244.746897 -244.294024 
L 245.182172 -244.255827 
L 245.617447 -244.216902 
L 246.052722 -244.177239 
L 246.487997 -244.136832 
L 246.923273 -244.095674 
L 247.358548 -244.053761 
L 247.793823 -244.011088 
L 248.229098 -243.967652 
L 248.664374 -243.923452 
L 249.099649 -243.878486 
L 249.534924 -243.832755 
L 249.970199 -243.786262 
L 250.405475 -243.739011 
L 250.84075 -243.691007 
L 250.84075 -235.380243 
L 250.84075 -235.380243 
L 250.405475 -235.332239 
L 249.970199 -235.284988 
L 249.534924 -235.238495 
L 249.099649 -235.192764 
L 248.664374 -235.147798 
L 248.229098 -235.103598 
L 247.793823 -235.060162 
L 247.358548 -235.017489 
L 246.923273 -234.975576 
L 246.487997 -234.934418 
L 246.052722 -234.894011 
L 245.617447 -234.854348 
L 245.182172 -234.815423 
L 244.746897 -234.777226 
L 244.311621 -234.739751 
L 243.876346 -234.702989 
L 243.441071 -234.666929 
L 243.005796 -234.631565 
L 242.57052 -234.596885 
L 242.135245 -234.56288 
L 241.69997 -234.529542 
L 241.264695 -234.496862 
L 240.829419 -234.464831 
L 240.394144 -234.433441 
L 239.958869 -234.402685 
L 239.523594 -234.372557 
L 239.088319 -234.34305 
L 238.653043 -234.31416 
L 238.217768 -234.285884 
L 237.782493 -234.258217 
L 237.347218 -234.23116 
L 236.911942 -234.204711 
L 236.476667 -234.178872 
L 236.041392 -234.153646 
L 235.606117 -234.129036 
L 235.170842 -234.105047 
L 234.735566 -234.081687 
L 234.300291 -234.058964 
L 233.865016 -234.036887 
L 233.429741 -234.015469 
L 232.994465 -233.994723 
L 232.55919 -233.974663 
L 232.123915 -233.955305 
L 231.68864 -233.936666 
L 231.253364 -233.918767 
L 230.818089 -233.901627 
L 230.382814 -233.885269 
L 229.947539 -233.869715 
L 229.512264 -233.85499 
L 229.076988 -233.84112 
L 228.641713 -233.828131 
L 228.206438 -233.81605 
L 227.771163 -233.804908 
L 227.335887 -233.794732 
L 226.900612 -233.785553 
L 226.465337 -233.777403 
L 226.030062 -233.770311 
L 225.594787 -233.76431 
L 225.159511 -233.759432 
L 224.724236 -233.755708 
L 224.288961 -233.753171 
L 223.853686 -233.751853 
L 223.41841 -233.751785 
L 222.983135 -233.752999 
L 222.54786 -233.755526 
L 222.112585 -233.759396 
L 221.677309 -233.764638 
L 221.242034 -233.771281 
L 220.806759 -233.779354 
L 220.371484 -233.788881 
L 219.936209 -233.79989 
L 219.500933 -233.812404 
L 219.065658 -233.826445 
L 218.630383 -233.842034 
L 218.195108 -233.859191 
L 217.759832 -233.877934 
L 217.324557 -233.898277 
L 216.889282 -233.920236 
L 216.454007 -233.943821 
L 216.018731 -233.969042 
L 215.583456 -233.995906 
L 215.148181 -234.024419 
L 214.712906 -234.054584 
L 214.277631 -234.0864 
L 213.842355 -234.119866 
L 213.40708 -234.154977 
L 212.971805 -234.191727 
L 212.53653 -234.230106 
L 212.101254 -234.270101 
L 211.665979 -234.311699 
L 211.230704 -234.354881 
L 210.795429 -234.39963 
L 210.360154 -234.445921 
L 209.924878 -234.49373 
L 209.489603 -234.543031 
L 209.054328 -234.593793 
L 208.619053 -234.645985 
L 208.183777 -234.699571 
L 207.748502 -234.754515 
z
" id="m3e43c8d28c" style="stroke:#424242;"/>
    </defs>
    <g clip-path="url(#p6d416f7faa)">
     <use style="fill:#7c78ab;stroke:#424242;" x="0" xlink:href="#m3e43c8d28c" y="329.141667"/>
    </g>
   </g>
   <g id="PolyCollection_4">
    <defs>
     <path d="M 240.328879 -206.080991 
L 240.328879 -220.001926 
L 240.555302 -220.098725 
L 240.781726 -220.194237 
L 241.008149 -220.288502 
L 241.234573 -220.381567 
L 241.460996 -220.473487 
L 241.68742 -220.564324 
L 241.913843 -220.654145 
L 242.140267 -220.743026 
L 242.36669 -220.831046 
L 242.593114 -220.918288 
L 242.819537 -221.004841 
L 243.045961 -221.090799 
L 243.272384 -221.176254 
L 243.498808 -221.261305 
L 243.725231 -221.346051 
L 243.951655 -221.43059 
L 244.178079 -221.515023 
L 244.404502 -221.599448 
L 244.630926 -221.683962 
L 244.857349 -221.768661 
L 245.083773 -221.853638 
L 245.310196 -221.93898 
L 245.53662 -222.024772 
L 245.763043 -222.111094 
L 245.989467 -222.19802 
L 246.21589 -222.285616 
L 246.442314 -222.373943 
L 246.668737 -222.463055 
L 246.895161 -222.552995 
L 247.121584 -222.6438 
L 247.348008 -222.735498 
L 247.574431 -222.828105 
L 247.800855 -222.921631 
L 248.027278 -223.016071 
L 248.253702 -223.111415 
L 248.480125 -223.207637 
L 248.706549 -223.304702 
L 248.932972 -223.402567 
L 249.159396 -223.501172 
L 249.385819 -223.60045 
L 249.612243 -223.700321 
L 249.838666 -223.800694 
L 250.06509 -223.901467 
L 250.291514 -224.002528 
L 250.517937 -224.103751 
L 250.744361 -224.205003 
L 250.970784 -224.306138 
L 251.197208 -224.407002 
L 251.423631 -224.50743 
L 251.650055 -224.607249 
L 251.876478 -224.706276 
L 252.102902 -224.80432 
L 252.329325 -224.901184 
L 252.555749 -224.996661 
L 252.782172 -225.09054 
L 253.008596 -225.182604 
L 253.235019 -225.272628 
L 253.461443 -225.360385 
L 253.687866 -225.445645 
L 253.91429 -225.528173 
L 254.140713 -225.607732 
L 254.367137 -225.684085 
L 254.59356 -225.756994 
L 254.819984 -225.82622 
L 255.046407 -225.891526 
L 255.272831 -225.952678 
L 255.499254 -226.009442 
L 255.725678 -226.061592 
L 255.952101 -226.108903 
L 256.178525 -226.151157 
L 256.404949 -226.188141 
L 256.631372 -226.219652 
L 256.857796 -226.245492 
L 257.084219 -226.265474 
L 257.310643 -226.27942 
L 257.537066 -226.287161 
L 257.76349 -226.288542 
L 257.989913 -226.283418 
L 258.216337 -226.271657 
L 258.44276 -226.253141 
L 258.669184 -226.227765 
L 258.895607 -226.195439 
L 259.122031 -226.156088 
L 259.348454 -226.109652 
L 259.574878 -226.056088 
L 259.801301 -225.995369 
L 260.027725 -225.927482 
L 260.254148 -225.852434 
L 260.480572 -225.770247 
L 260.706995 -225.680962 
L 260.933419 -225.584634 
L 261.159842 -225.481338 
L 261.386266 -225.371165 
L 261.612689 -225.254222 
L 261.839113 -225.130633 
L 262.065536 -225.000537 
L 262.29196 -224.864093 
L 262.518384 -224.72147 
L 262.744807 -224.572855 
L 262.744807 -201.510062 
L 262.744807 -201.510062 
L 262.518384 -201.361447 
L 262.29196 -201.218824 
L 262.065536 -201.082379 
L 261.839113 -200.952284 
L 261.612689 -200.828695 
L 261.386266 -200.711752 
L 261.159842 -200.601578 
L 260.933419 -200.498283 
L 260.706995 -200.401955 
L 260.480572 -200.31267 
L 260.254148 -200.230483 
L 260.027725 -200.155435 
L 259.801301 -200.087548 
L 259.574878 -200.026828 
L 259.348454 -199.973264 
L 259.122031 -199.926829 
L 258.895607 -199.887478 
L 258.669184 -199.855152 
L 258.44276 -199.829776 
L 258.216337 -199.81126 
L 257.989913 -199.799499 
L 257.76349 -199.794375 
L 257.537066 -199.795756 
L 257.310643 -199.803497 
L 257.084219 -199.817443 
L 256.857796 -199.837424 
L 256.631372 -199.863265 
L 256.404949 -199.894775 
L 256.178525 -199.93176 
L 255.952101 -199.974014 
L 255.725678 -200.021324 
L 255.499254 -200.073474 
L 255.272831 -200.130239 
L 255.046407 -200.191391 
L 254.819984 -200.256697 
L 254.59356 -200.325923 
L 254.367137 -200.398831 
L 254.140713 -200.475185 
L 253.91429 -200.554744 
L 253.687866 -200.637272 
L 253.461443 -200.722531 
L 253.235019 -200.810289 
L 253.008596 -200.900313 
L 252.782172 -200.992376 
L 252.555749 -201.086255 
L 252.329325 -201.181733 
L 252.102902 -201.278597 
L 251.876478 -201.376641 
L 251.650055 -201.475668 
L 251.423631 -201.575487 
L 251.197208 -201.675915 
L 250.970784 -201.776779 
L 250.744361 -201.877914 
L 250.517937 -201.979166 
L 250.291514 -202.080389 
L 250.06509 -202.181449 
L 249.838666 -202.282223 
L 249.612243 -202.382596 
L 249.385819 -202.482467 
L 249.159396 -202.581745 
L 248.932972 -202.68035 
L 248.706549 -202.778214 
L 248.480125 -202.87528 
L 248.253702 -202.971502 
L 248.027278 -203.066845 
L 247.800855 -203.161286 
L 247.574431 -203.254811 
L 247.348008 -203.347419 
L 247.121584 -203.439116 
L 246.895161 -203.529922 
L 246.668737 -203.619862 
L 246.442314 -203.708973 
L 246.21589 -203.797301 
L 245.989467 -203.884897 
L 245.763043 -203.971822 
L 245.53662 -204.058144 
L 245.310196 -204.143937 
L 245.083773 -204.229279 
L 244.857349 -204.314256 
L 244.630926 -204.398955 
L 244.404502 -204.483469 
L 244.178079 -204.567894 
L 243.951655 -204.652327 
L 243.725231 -204.736866 
L 243.498808 -204.821611 
L 243.272384 -204.906663 
L 243.045961 -204.992118 
L 242.819537 -205.078075 
L 242.593114 -205.164629 
L 242.36669 -205.251871 
L 242.140267 -205.33989 
L 241.913843 -205.428771 
L 241.68742 -205.518593 
L 241.460996 -205.60943 
L 241.234573 -205.70135 
L 241.008149 -205.794414 
L 240.781726 -205.888679 
L 240.555302 -205.984191 
L 240.328879 -206.080991 
z
" id="mca05325e3f" style="stroke:#424242;"/>
    </defs>
    <g clip-path="url(#p6d416f7faa)">
     <use style="fill:#be631d;stroke:#424242;" x="0" xlink:href="#mca05325e3f" y="329.141667"/>
    </g>
   </g>
   <g id="patch_86">
    <path clip-path="url(#p6d416f7faa)" d="M 114.362778 36.617708 
L 114.362778 36.617708 
L 114.362778 36.617708 
L 114.362778 36.617708 
z
" style="fill:#7c78ab;stroke:#424242;stroke-linejoin:miter;stroke-width:0.5;"/>
   </g>
   <g id="patch_87">
    <path clip-path="url(#p6d416f7faa)" d="M 114.362778 36.617708 
L 114.362778 36.617708 
L 114.362778 36.617708 
L 114.362778 36.617708 
z
" style="fill:#be631d;stroke:#424242;stroke-linejoin:miter;stroke-width:0.5;"/>
   </g>
   <g id="matplotlib.axis_3">
    <g id="xtick_5">
     <g id="line2d_9">
      <g>
       <use style="stroke:#000000;stroke-width:1.6;" x="114.362778" xlink:href="#m602d959cf5" y="268.441667"/>
      </g>
     </g>
     <g id="text_11">
      <!-- 0.0 -->
      <g transform="translate(98.459653 298.338542)scale(0.2 -0.2)">
       <use xlink:href="#DejaVuSans-48"/>
       <use x="63.623047" xlink:href="#DejaVuSans-46"/>
       <use x="95.410156" xlink:href="#DejaVuSans-48"/>
      </g>
     </g>
    </g>
    <g id="xtick_6">
     <g id="line2d_10">
      <g>
       <use style="stroke:#000000;stroke-width:1.6;" x="185.013889" xlink:href="#m602d959cf5" y="268.441667"/>
      </g>
     </g>
     <g id="text_12">
      <!-- 0.2 -->
      <g transform="translate(169.110764 298.338542)scale(0.2 -0.2)">
       <use xlink:href="#DejaVuSans-48"/>
       <use x="63.623047" xlink:href="#DejaVuSans-46"/>
       <use x="95.410156" xlink:href="#DejaVuSans-50"/>
      </g>
     </g>
    </g>
    <g id="xtick_7">
     <g id="line2d_11">
      <g>
       <use style="stroke:#000000;stroke-width:1.6;" x="255.665" xlink:href="#m602d959cf5" y="268.441667"/>
      </g>
     </g>
     <g id="text_13">
      <!-- 0.4 -->
      <g transform="translate(239.761875 298.338542)scale(0.2 -0.2)">
       <use xlink:href="#DejaVuSans-48"/>
       <use x="63.623047" xlink:href="#DejaVuSans-46"/>
       <use x="95.410156" xlink:href="#DejaVuSans-52"/>
      </g>
     </g>
    </g>
    <g id="xtick_8">
     <g id="line2d_12">
      <g>
       <use style="stroke:#000000;stroke-width:1.6;" x="326.316111" xlink:href="#m602d959cf5" y="268.441667"/>
      </g>
     </g>
     <g id="text_14">
      <!-- 0.6 -->
      <g transform="translate(310.412986 298.338542)scale(0.2 -0.2)">
       <use xlink:href="#DejaVuSans-48"/>
       <use x="63.623047" xlink:href="#DejaVuSans-46"/>
       <use x="95.410156" xlink:href="#DejaVuSans-54"/>
      </g>
     </g>
    </g>
    <g id="text_15">
     <!-- Max JS Divergence within $\epsilon$ -->
     <defs>
      <path d="M 9.8125 72.90625 
L 24.515625 72.90625 
L 43.109375 23.296875 
L 61.8125 72.90625 
L 76.515625 72.90625 
L 76.515625 0 
L 66.890625 0 
L 66.890625 64.015625 
L 48.09375 14.015625 
L 38.1875 14.015625 
L 19.390625 64.015625 
L 19.390625 0 
L 9.8125 0 
z
" id="DejaVuSans-77"/>
      <path d="M 34.28125 27.484375 
Q 23.390625 27.484375 19.1875 25 
Q 14.984375 22.515625 14.984375 16.5 
Q 14.984375 11.71875 18.140625 8.90625 
Q 21.296875 6.109375 26.703125 6.109375 
Q 34.1875 6.109375 38.703125 11.40625 
Q 43.21875 16.703125 43.21875 25.484375 
L 43.21875 27.484375 
z
M 52.203125 31.203125 
L 52.203125 0 
L 43.21875 0 
L 43.21875 8.296875 
Q 40.140625 3.328125 35.546875 0.953125 
Q 30.953125 -1.421875 24.3125 -1.421875 
Q 15.921875 -1.421875 10.953125 3.296875 
Q 6 8.015625 6 15.921875 
Q 6 25.140625 12.171875 29.828125 
Q 18.359375 34.515625 30.609375 34.515625 
L 43.21875 34.515625 
L 43.21875 35.40625 
Q 43.21875 41.609375 39.140625 45 
Q 35.0625 48.390625 27.6875 48.390625 
Q 23 48.390625 18.546875 47.265625 
Q 14.109375 46.140625 10.015625 43.890625 
L 10.015625 52.203125 
Q 14.9375 54.109375 19.578125 55.046875 
Q 24.21875 56 28.609375 56 
Q 40.484375 56 46.34375 49.84375 
Q 52.203125 43.703125 52.203125 31.203125 
z
" id="DejaVuSans-97"/>
      <path d="M 54.890625 54.6875 
L 35.109375 28.078125 
L 55.90625 0 
L 45.3125 0 
L 29.390625 21.484375 
L 13.484375 0 
L 2.875 0 
L 24.125 28.609375 
L 4.6875 54.6875 
L 15.28125 54.6875 
L 29.78125 35.203125 
L 44.28125 54.6875 
z
" id="DejaVuSans-120"/>
      <path d="M 9.8125 72.90625 
L 19.671875 72.90625 
L 19.671875 5.078125 
Q 19.671875 -8.109375 14.671875 -14.0625 
Q 9.671875 -20.015625 -1.421875 -20.015625 
L -5.171875 -20.015625 
L -5.171875 -11.71875 
L -2.09375 -11.71875 
Q 4.4375 -11.71875 7.125 -8.046875 
Q 9.8125 -4.390625 9.8125 5.078125 
z
" id="DejaVuSans-74"/>
      <path d="M 53.515625 70.515625 
L 53.515625 60.890625 
Q 47.90625 63.578125 42.921875 64.890625 
Q 37.9375 66.21875 33.296875 66.21875 
Q 25.25 66.21875 20.875 63.09375 
Q 16.5 59.96875 16.5 54.203125 
Q 16.5 49.359375 19.40625 46.890625 
Q 22.3125 44.4375 30.421875 42.921875 
L 36.375 41.703125 
Q 47.40625 39.59375 52.65625 34.296875 
Q 57.90625 29 57.90625 20.125 
Q 57.90625 9.515625 50.796875 4.046875 
Q 43.703125 -1.421875 29.984375 -1.421875 
Q 24.8125 -1.421875 18.96875 -0.25 
Q 13.140625 0.921875 6.890625 3.21875 
L 6.890625 13.375 
Q 12.890625 10.015625 18.65625 8.296875 
Q 24.421875 6.59375 29.984375 6.59375 
Q 38.421875 6.59375 43.015625 9.90625 
Q 47.609375 13.234375 47.609375 19.390625 
Q 47.609375 24.75 44.3125 27.78125 
Q 41.015625 30.8125 33.5 32.328125 
L 27.484375 33.5 
Q 16.453125 35.6875 11.515625 40.375 
Q 6.59375 45.0625 6.59375 53.421875 
Q 6.59375 63.09375 13.40625 68.65625 
Q 20.21875 74.21875 32.171875 74.21875 
Q 37.3125 74.21875 42.625 73.28125 
Q 47.953125 72.359375 53.515625 70.515625 
z
" id="DejaVuSans-83"/>
      <path d="M 19.671875 64.796875 
L 19.671875 8.109375 
L 31.59375 8.109375 
Q 46.6875 8.109375 53.6875 14.9375 
Q 60.6875 21.78125 60.6875 36.53125 
Q 60.6875 51.171875 53.6875 57.984375 
Q 46.6875 64.796875 31.59375 64.796875 
z
M 9.8125 72.90625 
L 30.078125 72.90625 
Q 51.265625 72.90625 61.171875 64.09375 
Q 71.09375 55.28125 71.09375 36.53125 
Q 71.09375 17.671875 61.125 8.828125 
Q 51.171875 0 30.078125 0 
L 9.8125 0 
z
" id="DejaVuSans-68"/>
      <path d="M 9.421875 54.6875 
L 18.40625 54.6875 
L 18.40625 0 
L 9.421875 0 
z
M 9.421875 75.984375 
L 18.40625 75.984375 
L 18.40625 64.59375 
L 9.421875 64.59375 
z
" id="DejaVuSans-105"/>
      <path d="M 2.984375 54.6875 
L 12.5 54.6875 
L 29.59375 8.796875 
L 46.6875 54.6875 
L 56.203125 54.6875 
L 35.6875 0 
L 23.484375 0 
z
" id="DejaVuSans-118"/>
      <path d="M 56.203125 29.59375 
L 56.203125 25.203125 
L 14.890625 25.203125 
Q 15.484375 15.921875 20.484375 11.0625 
Q 25.484375 6.203125 34.421875 6.203125 
Q 39.59375 6.203125 44.453125 7.46875 
Q 49.3125 8.734375 54.109375 11.28125 
L 54.109375 2.78125 
Q 49.265625 0.734375 44.1875 -0.34375 
Q 39.109375 -1.421875 33.890625 -1.421875 
Q 20.796875 -1.421875 13.15625 6.1875 
Q 5.515625 13.8125 5.515625 26.8125 
Q 5.515625 40.234375 12.765625 48.109375 
Q 20.015625 56 32.328125 56 
Q 43.359375 56 49.78125 48.890625 
Q 56.203125 41.796875 56.203125 29.59375 
z
M 47.21875 32.234375 
Q 47.125 39.59375 43.09375 43.984375 
Q 39.0625 48.390625 32.421875 48.390625 
Q 24.90625 48.390625 20.390625 44.140625 
Q 15.875 39.890625 15.1875 32.171875 
z
" id="DejaVuSans-101"/>
      <path d="M 41.109375 46.296875 
Q 39.59375 47.171875 37.8125 47.578125 
Q 36.03125 48 33.890625 48 
Q 26.265625 48 22.1875 43.046875 
Q 18.109375 38.09375 18.109375 28.8125 
L 18.109375 0 
L 9.078125 0 
L 9.078125 54.6875 
L 18.109375 54.6875 
L 18.109375 46.1875 
Q 20.953125 51.171875 25.484375 53.578125 
Q 30.03125 56 36.53125 56 
Q 37.453125 56 38.578125 55.875 
Q 39.703125 55.765625 41.0625 55.515625 
z
" id="DejaVuSans-114"/>
      <path d="M 45.40625 27.984375 
Q 45.40625 37.75 41.375 43.109375 
Q 37.359375 48.484375 30.078125 48.484375 
Q 22.859375 48.484375 18.828125 43.109375 
Q 14.796875 37.75 14.796875 27.984375 
Q 14.796875 18.265625 18.828125 12.890625 
Q 22.859375 7.515625 30.078125 7.515625 
Q 37.359375 7.515625 41.375 12.890625 
Q 45.40625 18.265625 45.40625 27.984375 
z
M 54.390625 6.78125 
Q 54.390625 -7.171875 48.1875 -13.984375 
Q 42 -20.796875 29.203125 -20.796875 
Q 24.46875 -20.796875 20.265625 -20.09375 
Q 16.0625 -19.390625 12.109375 -17.921875 
L 12.109375 -9.1875 
Q 16.0625 -11.328125 19.921875 -12.34375 
Q 23.78125 -13.375 27.78125 -13.375 
Q 36.625 -13.375 41.015625 -8.765625 
Q 45.40625 -4.15625 45.40625 5.171875 
L 45.40625 9.625 
Q 42.625 4.78125 38.28125 2.390625 
Q 33.9375 0 27.875 0 
Q 17.828125 0 11.671875 7.65625 
Q 5.515625 15.328125 5.515625 27.984375 
Q 5.515625 40.671875 11.671875 48.328125 
Q 17.828125 56 27.875 56 
Q 33.9375 56 38.28125 53.609375 
Q 42.625 51.21875 45.40625 46.390625 
L 45.40625 54.6875 
L 54.390625 54.6875 
z
" id="DejaVuSans-103"/>
      <path d="M 54.890625 33.015625 
L 54.890625 0 
L 45.90625 0 
L 45.90625 32.71875 
Q 45.90625 40.484375 42.875 44.328125 
Q 39.84375 48.1875 33.796875 48.1875 
Q 26.515625 48.1875 22.3125 43.546875 
Q 18.109375 38.921875 18.109375 30.90625 
L 18.109375 0 
L 9.078125 0 
L 9.078125 54.6875 
L 18.109375 54.6875 
L 18.109375 46.1875 
Q 21.34375 51.125 25.703125 53.5625 
Q 30.078125 56 35.796875 56 
Q 45.21875 56 50.046875 50.171875 
Q 54.890625 44.34375 54.890625 33.015625 
z
" id="DejaVuSans-110"/>
      <path d="M 48.78125 52.59375 
L 48.78125 44.1875 
Q 44.96875 46.296875 41.140625 47.34375 
Q 37.3125 48.390625 33.40625 48.390625 
Q 24.65625 48.390625 19.8125 42.84375 
Q 14.984375 37.3125 14.984375 27.296875 
Q 14.984375 17.28125 19.8125 11.734375 
Q 24.65625 6.203125 33.40625 6.203125 
Q 37.3125 6.203125 41.140625 7.25 
Q 44.96875 8.296875 48.78125 10.40625 
L 48.78125 2.09375 
Q 45.015625 0.34375 40.984375 -0.53125 
Q 36.96875 -1.421875 32.421875 -1.421875 
Q 20.0625 -1.421875 12.78125 6.34375 
Q 5.515625 14.109375 5.515625 27.296875 
Q 5.515625 40.671875 12.859375 48.328125 
Q 20.21875 56 33.015625 56 
Q 37.15625 56 41.109375 55.140625 
Q 45.0625 54.296875 48.78125 52.59375 
z
" id="DejaVuSans-99"/>
      <path d="M 4.203125 54.6875 
L 13.1875 54.6875 
L 24.421875 12.015625 
L 35.59375 54.6875 
L 46.1875 54.6875 
L 57.421875 12.015625 
L 68.609375 54.6875 
L 77.59375 54.6875 
L 63.28125 0 
L 52.6875 0 
L 40.921875 44.828125 
L 29.109375 0 
L 18.5 0 
z
" id="DejaVuSans-119"/>
      <path d="M 18.3125 70.21875 
L 18.3125 54.6875 
L 36.8125 54.6875 
L 36.8125 47.703125 
L 18.3125 47.703125 
L 18.3125 18.015625 
Q 18.3125 11.328125 20.140625 9.421875 
Q 21.96875 7.515625 27.59375 7.515625 
L 36.8125 7.515625 
L 36.8125 0 
L 27.59375 0 
Q 17.1875 0 13.234375 3.875 
Q 9.28125 7.765625 9.28125 18.015625 
L 9.28125 47.703125 
L 2.6875 47.703125 
L 2.6875 54.6875 
L 9.28125 54.6875 
L 9.28125 70.21875 
z
" id="DejaVuSans-116"/>
      <path d="M 54.890625 33.015625 
L 54.890625 0 
L 45.90625 0 
L 45.90625 32.71875 
Q 45.90625 40.484375 42.875 44.328125 
Q 39.84375 48.1875 33.796875 48.1875 
Q 26.515625 48.1875 22.3125 43.546875 
Q 18.109375 38.921875 18.109375 30.90625 
L 18.109375 0 
L 9.078125 0 
L 9.078125 75.984375 
L 18.109375 75.984375 
L 18.109375 46.1875 
Q 21.34375 51.125 25.703125 53.5625 
Q 30.078125 56 35.796875 56 
Q 45.21875 56 50.046875 50.171875 
Q 54.890625 44.34375 54.890625 33.015625 
z
" id="DejaVuSans-104"/>
      <path d="M 19.734375 29.5 
Q 14.453125 30.671875 12.15625 33.84375 
Q 10.453125 36.078125 10.453125 39.109375 
Q 10.453125 47.40625 18.359375 52.25 
Q 24.609375 56.0625 34.1875 56.0625 
Q 37.890625 56.0625 41.9375 55.46875 
Q 46 54.890625 50.53125 53.71875 
L 48.96875 45.5625 
Q 44.484375 46.96875 40.71875 47.609375 
Q 36.859375 48.25 33.40625 48.25 
Q 27.59375 48.25 23.78125 46 
Q 19.1875 43.3125 19.1875 39.40625 
Q 19.1875 36.8125 21.578125 35.015625 
Q 24.421875 32.859375 30.078125 32.859375 
L 37.640625 32.859375 
L 36.234375 25.4375 
L 29 25.4375 
Q 22.265625 25.4375 18.3125 22.953125 
Q 12.9375 19.578125 12.9375 14.3125 
Q 12.9375 10.984375 15.828125 8.796875 
Q 19.4375 6.0625 26.8125 6.0625 
Q 31.34375 6.0625 35.6875 6.9375 
Q 40.046875 7.859375 43.84375 9.671875 
L 42.1875 1.3125 
Q 37.546875 -0.046875 33.296875 -0.734375 
Q 29.046875 -1.421875 25.140625 -1.421875 
Q 13.53125 -1.421875 8.0625 3.03125 
Q 3.90625 6.453125 3.90625 12.203125 
Q 3.90625 19.96875 9.375 24.75 
Q 13.421875 28.328125 19.734375 29.5 
z
" id="DejaVuSans-Oblique-949"/>
     </defs>
     <g transform="translate(93.570833 321.697917)scale(0.2 -0.2)">
      <use transform="translate(0 0.015625)" xlink:href="#DejaVuSans-77"/>
      <use transform="translate(86.279297 0.015625)" xlink:href="#DejaVuSans-97"/>
      <use transform="translate(147.558594 0.015625)" xlink:href="#DejaVuSans-120"/>
      <use transform="translate(206.738281 0.015625)" xlink:href="#DejaVuSans-32"/>
      <use transform="translate(238.525391 0.015625)" xlink:href="#DejaVuSans-74"/>
      <use transform="translate(268.017578 0.015625)" xlink:href="#DejaVuSans-83"/>
      <use transform="translate(331.494141 0.015625)" xlink:href="#DejaVuSans-32"/>
      <use transform="translate(363.28125 0.015625)" xlink:href="#DejaVuSans-68"/>
      <use transform="translate(440.283203 0.015625)" xlink:href="#DejaVuSans-105"/>
      <use transform="translate(468.066406 0.015625)" xlink:href="#DejaVuSans-118"/>
      <use transform="translate(527.246094 0.015625)" xlink:href="#DejaVuSans-101"/>
      <use transform="translate(588.769531 0.015625)" xlink:href="#DejaVuSans-114"/>
      <use transform="translate(629.882812 0.015625)" xlink:href="#DejaVuSans-103"/>
      <use transform="translate(693.359375 0.015625)" xlink:href="#DejaVuSans-101"/>
      <use transform="translate(754.882812 0.015625)" xlink:href="#DejaVuSans-110"/>
      <use transform="translate(818.261719 0.015625)" xlink:href="#DejaVuSans-99"/>
      <use transform="translate(873.242188 0.015625)" xlink:href="#DejaVuSans-101"/>
      <use transform="translate(934.765625 0.015625)" xlink:href="#DejaVuSans-32"/>
      <use transform="translate(966.552734 0.015625)" xlink:href="#DejaVuSans-119"/>
      <use transform="translate(1048.339844 0.015625)" xlink:href="#DejaVuSans-105"/>
      <use transform="translate(1076.123047 0.015625)" xlink:href="#DejaVuSans-116"/>
      <use transform="translate(1115.332031 0.015625)" xlink:href="#DejaVuSans-104"/>
      <use transform="translate(1178.710938 0.015625)" xlink:href="#DejaVuSans-105"/>
      <use transform="translate(1206.494141 0.015625)" xlink:href="#DejaVuSans-110"/>
      <use transform="translate(1269.873047 0.015625)" xlink:href="#DejaVuSans-32"/>
      <use transform="translate(1301.660156 0.015625)" xlink:href="#DejaVuSans-Oblique-949"/>
     </g>
    </g>
   </g>
   <g id="matplotlib.axis_4">
    <g id="ytick_5">
     <g id="line2d_13">
      <g>
       <use style="stroke:#000000;stroke-width:1.6;" x="96.7" xlink:href="#m56b1c51dc7" y="36.617708"/>
      </g>
     </g>
     <g id="text_16">
      <!-- [0.00, -->
      <defs>
       <path d="M 8.59375 75.984375 
L 29.296875 75.984375 
L 29.296875 69 
L 17.578125 69 
L 17.578125 -6.203125 
L 29.296875 -6.203125 
L 29.296875 -13.1875 
L 8.59375 -13.1875 
z
" id="DejaVuSans-91"/>
       <path d="M 11.71875 12.40625 
L 22.015625 12.40625 
L 22.015625 4 
L 14.015625 -11.625 
L 7.71875 -11.625 
L 11.71875 4 
z
" id="DejaVuSans-44"/>
      </defs>
      <g transform="translate(23.309375 33.018333)scale(0.2 -0.2)">
       <use xlink:href="#DejaVuSans-91"/>
       <use x="39.013672" xlink:href="#DejaVuSans-48"/>
       <use x="102.636719" xlink:href="#DejaVuSans-46"/>
       <use x="134.423828" xlink:href="#DejaVuSans-48"/>
       <use x="198.046875" xlink:href="#DejaVuSans-48"/>
       <use x="261.669922" xlink:href="#DejaVuSans-44"/>
      </g>
      <!-- 0.25) -->
      <defs>
       <path d="M 8.015625 75.875 
L 15.828125 75.875 
Q 23.140625 64.359375 26.78125 53.3125 
Q 30.421875 42.28125 30.421875 31.390625 
Q 30.421875 20.453125 26.78125 9.375 
Q 23.140625 -1.703125 15.828125 -13.1875 
L 8.015625 -13.1875 
Q 14.5 -2 17.703125 9.0625 
Q 20.90625 20.125 20.90625 31.390625 
Q 20.90625 42.671875 17.703125 53.65625 
Q 14.5 64.65625 8.015625 75.875 
z
" id="DejaVuSans-41"/>
      </defs>
      <g transform="translate(29.665625 55.413958)scale(0.2 -0.2)">
       <use xlink:href="#DejaVuSans-48"/>
       <use x="63.623047" xlink:href="#DejaVuSans-46"/>
       <use x="95.410156" xlink:href="#DejaVuSans-50"/>
       <use x="159.033203" xlink:href="#DejaVuSans-53"/>
       <use x="222.65625" xlink:href="#DejaVuSans-41"/>
      </g>
     </g>
    </g>
    <g id="ytick_6">
     <g id="line2d_14">
      <g>
       <use style="stroke:#000000;stroke-width:1.6;" x="96.7" xlink:href="#m56b1c51dc7" y="102.853125"/>
      </g>
     </g>
     <g id="text_17">
      <!-- [0.25, -->
      <g transform="translate(23.309375 99.25375)scale(0.2 -0.2)">
       <use xlink:href="#DejaVuSans-91"/>
       <use x="39.013672" xlink:href="#DejaVuSans-48"/>
       <use x="102.636719" xlink:href="#DejaVuSans-46"/>
       <use x="134.423828" xlink:href="#DejaVuSans-50"/>
       <use x="198.046875" xlink:href="#DejaVuSans-53"/>
       <use x="261.669922" xlink:href="#DejaVuSans-44"/>
      </g>
      <!-- 0.50) -->
      <g transform="translate(29.665625 121.649375)scale(0.2 -0.2)">
       <use xlink:href="#DejaVuSans-48"/>
       <use x="63.623047" xlink:href="#DejaVuSans-46"/>
       <use x="95.410156" xlink:href="#DejaVuSans-53"/>
       <use x="159.033203" xlink:href="#DejaVuSans-48"/>
       <use x="222.65625" xlink:href="#DejaVuSans-41"/>
      </g>
     </g>
    </g>
    <g id="ytick_7">
     <g id="line2d_15">
      <g>
       <use style="stroke:#000000;stroke-width:1.6;" x="96.7" xlink:href="#m56b1c51dc7" y="169.088542"/>
      </g>
     </g>
     <g id="text_18">
      <!-- [0.50, -->
      <g transform="translate(23.309375 165.489167)scale(0.2 -0.2)">
       <use xlink:href="#DejaVuSans-91"/>
       <use x="39.013672" xlink:href="#DejaVuSans-48"/>
       <use x="102.636719" xlink:href="#DejaVuSans-46"/>
       <use x="134.423828" xlink:href="#DejaVuSans-53"/>
       <use x="198.046875" xlink:href="#DejaVuSans-48"/>
       <use x="261.669922" xlink:href="#DejaVuSans-44"/>
      </g>
      <!-- 0.75) -->
      <defs>
       <path d="M 8.203125 72.90625 
L 55.078125 72.90625 
L 55.078125 68.703125 
L 28.609375 0 
L 18.3125 0 
L 43.21875 64.59375 
L 8.203125 64.59375 
z
" id="DejaVuSans-55"/>
      </defs>
      <g transform="translate(29.665625 187.884792)scale(0.2 -0.2)">
       <use xlink:href="#DejaVuSans-48"/>
       <use x="63.623047" xlink:href="#DejaVuSans-46"/>
       <use x="95.410156" xlink:href="#DejaVuSans-55"/>
       <use x="159.033203" xlink:href="#DejaVuSans-53"/>
       <use x="222.65625" xlink:href="#DejaVuSans-41"/>
      </g>
     </g>
    </g>
    <g id="ytick_8">
     <g id="line2d_16">
      <g>
       <use style="stroke:#000000;stroke-width:1.6;" x="96.7" xlink:href="#m56b1c51dc7" y="235.323958"/>
      </g>
     </g>
     <g id="text_19">
      <!-- [0.75, -->
      <g transform="translate(23.309375 231.724583)scale(0.2 -0.2)">
       <use xlink:href="#DejaVuSans-91"/>
       <use x="39.013672" xlink:href="#DejaVuSans-48"/>
       <use x="102.636719" xlink:href="#DejaVuSans-46"/>
       <use x="134.423828" xlink:href="#DejaVuSans-55"/>
       <use x="198.046875" xlink:href="#DejaVuSans-53"/>
       <use x="261.669922" xlink:href="#DejaVuSans-44"/>
      </g>
      <!-- 1.00) -->
      <g transform="translate(29.665625 254.120208)scale(0.2 -0.2)">
       <use xlink:href="#DejaVuSans-49"/>
       <use x="63.623047" xlink:href="#DejaVuSans-46"/>
       <use x="95.410156" xlink:href="#DejaVuSans-48"/>
       <use x="159.033203" xlink:href="#DejaVuSans-48"/>
       <use x="222.65625" xlink:href="#DejaVuSans-41"/>
      </g>
     </g>
    </g>
    <g id="text_20">
     <!-- Max Attention -->
     <defs>
      <path d="M 34.1875 63.1875 
L 20.796875 26.90625 
L 47.609375 26.90625 
z
M 28.609375 72.90625 
L 39.796875 72.90625 
L 67.578125 0 
L 57.328125 0 
L 50.6875 18.703125 
L 17.828125 18.703125 
L 11.1875 0 
L 0.78125 0 
z
" id="DejaVuSans-65"/>
      <path d="M 30.609375 48.390625 
Q 23.390625 48.390625 19.1875 42.75 
Q 14.984375 37.109375 14.984375 27.296875 
Q 14.984375 17.484375 19.15625 11.84375 
Q 23.34375 6.203125 30.609375 6.203125 
Q 37.796875 6.203125 41.984375 11.859375 
Q 46.1875 17.53125 46.1875 27.296875 
Q 46.1875 37.015625 41.984375 42.703125 
Q 37.796875 48.390625 30.609375 48.390625 
z
M 30.609375 56 
Q 42.328125 56 49.015625 48.375 
Q 55.71875 40.765625 55.71875 27.296875 
Q 55.71875 13.875 49.015625 6.21875 
Q 42.328125 -1.421875 30.609375 -1.421875 
Q 18.84375 -1.421875 12.171875 6.21875 
Q 5.515625 13.875 5.515625 27.296875 
Q 5.515625 40.765625 12.171875 48.375 
Q 18.84375 56 30.609375 56 
z
" id="DejaVuSans-111"/>
     </defs>
     <g transform="translate(15.15 206.148958)rotate(-90)scale(0.2 -0.2)">
      <use xlink:href="#DejaVuSans-77"/>
      <use x="86.279297" xlink:href="#DejaVuSans-97"/>
      <use x="147.558594" xlink:href="#DejaVuSans-120"/>
      <use x="206.738281" xlink:href="#DejaVuSans-32"/>
      <use x="238.525391" xlink:href="#DejaVuSans-65"/>
      <use x="306.917969" xlink:href="#DejaVuSans-116"/>
      <use x="346.126953" xlink:href="#DejaVuSans-116"/>
      <use x="385.335938" xlink:href="#DejaVuSans-101"/>
      <use x="446.859375" xlink:href="#DejaVuSans-110"/>
      <use x="510.238281" xlink:href="#DejaVuSans-116"/>
      <use x="549.447266" xlink:href="#DejaVuSans-105"/>
      <use x="577.230469" xlink:href="#DejaVuSans-111"/>
      <use x="638.412109" xlink:href="#DejaVuSans-110"/>
     </g>
    </g>
   </g>
   <g id="line2d_17">
    <path clip-path="url(#p6d416f7faa)" d="M 291.449074 16.033124 
L 291.449074 30.708126 
" style="fill:none;stroke:#424242;stroke-dasharray:1.5,1.5;stroke-dashoffset:0;"/>
   </g>
   <g id="line2d_18">
    <path clip-path="url(#p6d416f7faa)" d="M 314.503456 16.628588 
L 314.503456 30.112662 
" style="fill:none;stroke:#424242;stroke-dasharray:3,3;stroke-dashoffset:0;"/>
   </g>
   <g id="line2d_19">
    <path clip-path="url(#p6d416f7faa)" d="M 341.684676 12.597674 
L 341.684676 34.143576 
" style="fill:none;stroke:#424242;stroke-dasharray:1.5,1.5;stroke-dashoffset:0;"/>
   </g>
   <g id="line2d_20">
    <path clip-path="url(#p6d416f7faa)" d="M 277.72225 38.627855 
L 277.72225 61.101729 
" style="fill:none;stroke:#424242;stroke-dasharray:1.5,1.5;stroke-dashoffset:0;"/>
   </g>
   <g id="line2d_21">
    <path clip-path="url(#p6d416f7faa)" d="M 291.433083 36.913861 
L 291.433083 62.815723 
" style="fill:none;stroke:#424242;stroke-dasharray:3,3;stroke-dashoffset:0;"/>
   </g>
   <g id="line2d_22">
    <path clip-path="url(#p6d416f7faa)" d="M 309.390497 41.497015 
L 309.390497 58.232568 
" style="fill:none;stroke:#424242;stroke-dasharray:1.5,1.5;stroke-dashoffset:0;"/>
   </g>
   <g id="line2d_23">
    <path clip-path="url(#p6d416f7faa)" d="M 217.104282 84.046806 
L 217.104282 95.165277 
" style="fill:none;stroke:#424242;stroke-dasharray:1.5,1.5;stroke-dashoffset:0;"/>
   </g>
   <g id="line2d_24">
    <path clip-path="url(#p6d416f7faa)" d="M 226.118357 83.898381 
L 226.118357 95.313703 
" style="fill:none;stroke:#424242;stroke-dasharray:3,3;stroke-dashoffset:0;"/>
   </g>
   <g id="line2d_25">
    <path clip-path="url(#p6d416f7faa)" d="M 238.308701 84.408798 
L 238.308701 94.803286 
" style="fill:none;stroke:#424242;stroke-dasharray:1.5,1.5;stroke-dashoffset:0;"/>
   </g>
   <g id="line2d_26">
    <path clip-path="url(#p6d416f7faa)" d="M 248.954415 105.842711 
L 248.954415 126.357705 
" style="fill:none;stroke:#424242;stroke-dasharray:1.5,1.5;stroke-dashoffset:0;"/>
   </g>
   <g id="line2d_27">
    <path clip-path="url(#p6d416f7faa)" d="M 255.530425 103.261904 
L 255.530425 128.938513 
" style="fill:none;stroke:#424242;stroke-dasharray:3,3;stroke-dashoffset:0;"/>
   </g>
   <g id="line2d_28">
    <path clip-path="url(#p6d416f7faa)" d="M 260.109644 103.343045 
L 260.109644 128.857371 
" style="fill:none;stroke:#424242;stroke-dasharray:1.5,1.5;stroke-dashoffset:0;"/>
   </g>
   <g id="patch_88">
    <path d="M 96.7 268.441667 
L 96.7 3.5 
" style="fill:none;stroke:#000000;stroke-linecap:square;stroke-linejoin:miter;stroke-width:0.8;"/>
   </g>
   <g id="patch_89">
    <path d="M 96.7 268.441667 
L 361.641667 268.441667 
" style="fill:none;stroke:#000000;stroke-linecap:square;stroke-linejoin:miter;stroke-width:0.8;"/>
   </g>
  </g>
 </g>
 <defs>
  <clipPath id="pc2c5c549a3">
   <rect height="264.941667" width="264.941667" x="-272.041667" y="3.5"/>
  </clipPath>
  <clipPath id="p6d416f7faa">
   <rect height="264.941667" width="264.941667" x="96.7" y="3.5"/>
  </clipPath>
 </defs>
</svg>
