<?xml version="1.0" encoding="utf-8" standalone="no"?>
<!DOCTYPE svg PUBLIC "-//W3C//DTD SVG 1.1//EN"
  "http://www.w3.org/Graphics/SVG/1.1/DTD/svg11.dtd">
<!-- Created with matplotlib (https://matplotlib.org/) -->
<svg height="323.353333pt" version="1.1" viewBox="0 0 362.49737 323.353333" width="362.49737pt" xmlns="http://www.w3.org/2000/svg" xmlns:xlink="http://www.w3.org/1999/xlink">
 <defs>
  <style type="text/css">
*{stroke-linecap:butt;stroke-linejoin:round;}
  </style>
 </defs>
 <g id="figure_1">
  <g id="patch_1">
   <path d="M 0 323.353333 
L 362.49737 323.353333 
L 362.49737 -0 
L 0 -0 
z
" style="fill:#ffffff;"/>
  </g>
  <g id="axes_1">
   <g id="patch_2">
    <path d="M -273.813333 262.653333 
L -14.66 262.653333 
L -14.66 3.5 
L -273.813333 3.5 
z
" style="fill:#ffffff;"/>
   </g>
   <g id="patch_3">
    <path clip-path="url(#pd33e7550ed)" d="M -262.033636 262.653333 
L -256.143788 262.653333 
L -256.143788 262.653333 
L -262.033636 262.653333 
z
" style="fill:#43406b;opacity:0.6;stroke:#000000;stroke-linejoin:miter;stroke-width:0.5;"/>
   </g>
   <g id="patch_4">
    <path clip-path="url(#pd33e7550ed)" d="M -256.143788 262.653333 
L -250.253939 262.653333 
L -250.253939 262.653333 
L -256.143788 262.653333 
z
" style="fill:#43406b;opacity:0.6;stroke:#000000;stroke-linejoin:miter;stroke-width:0.5;"/>
   </g>
   <g id="patch_5">
    <path clip-path="url(#pd33e7550ed)" d="M -250.253939 262.653333 
L -244.364091 262.653333 
L -244.364091 262.653333 
L -250.253939 262.653333 
z
" style="fill:#43406b;opacity:0.6;stroke:#000000;stroke-linejoin:miter;stroke-width:0.5;"/>
   </g>
   <g id="patch_6">
    <path clip-path="url(#pd33e7550ed)" d="M -244.364091 262.653333 
L -238.474242 262.653333 
L -238.474242 262.653333 
L -244.364091 262.653333 
z
" style="fill:#43406b;opacity:0.6;stroke:#000000;stroke-linejoin:miter;stroke-width:0.5;"/>
   </g>
   <g id="patch_7">
    <path clip-path="url(#pd33e7550ed)" d="M -238.474242 262.653333 
L -232.584394 262.653333 
L -232.584394 262.653333 
L -238.474242 262.653333 
z
" style="fill:#43406b;opacity:0.6;stroke:#000000;stroke-linejoin:miter;stroke-width:0.5;"/>
   </g>
   <g id="patch_8">
    <path clip-path="url(#pd33e7550ed)" d="M -232.584394 262.653333 
L -226.694545 262.653333 
L -226.694545 262.653333 
L -232.584394 262.653333 
z
" style="fill:#43406b;opacity:0.6;stroke:#000000;stroke-linejoin:miter;stroke-width:0.5;"/>
   </g>
   <g id="patch_9">
    <path clip-path="url(#pd33e7550ed)" d="M -226.694545 262.653333 
L -220.804697 262.653333 
L -220.804697 262.653333 
L -226.694545 262.653333 
z
" style="fill:#43406b;opacity:0.6;stroke:#000000;stroke-linejoin:miter;stroke-width:0.5;"/>
   </g>
   <g id="patch_10">
    <path clip-path="url(#pd33e7550ed)" d="M -220.804697 262.653333 
L -214.914848 262.653333 
L -214.914848 262.653333 
L -220.804697 262.653333 
z
" style="fill:#43406b;opacity:0.6;stroke:#000000;stroke-linejoin:miter;stroke-width:0.5;"/>
   </g>
   <g id="patch_11">
    <path clip-path="url(#pd33e7550ed)" d="M -214.914848 262.653333 
L -209.025 262.653333 
L -209.025 262.653333 
L -214.914848 262.653333 
z
" style="fill:#43406b;opacity:0.6;stroke:#000000;stroke-linejoin:miter;stroke-width:0.5;"/>
   </g>
   <g id="patch_12">
    <path clip-path="url(#pd33e7550ed)" d="M -209.025 262.653333 
L -203.135152 262.653333 
L -203.135152 262.653333 
L -209.025 262.653333 
z
" style="fill:#43406b;opacity:0.6;stroke:#000000;stroke-linejoin:miter;stroke-width:0.5;"/>
   </g>
   <g id="patch_13">
    <path clip-path="url(#pd33e7550ed)" d="M -203.135152 262.653333 
L -197.245303 262.653333 
L -197.245303 262.653333 
L -203.135152 262.653333 
z
" style="fill:#43406b;opacity:0.6;stroke:#000000;stroke-linejoin:miter;stroke-width:0.5;"/>
   </g>
   <g id="patch_14">
    <path clip-path="url(#pd33e7550ed)" d="M -197.245303 262.653333 
L -191.355455 262.653333 
L -191.355455 262.653333 
L -197.245303 262.653333 
z
" style="fill:#43406b;opacity:0.6;stroke:#000000;stroke-linejoin:miter;stroke-width:0.5;"/>
   </g>
   <g id="patch_15">
    <path clip-path="url(#pd33e7550ed)" d="M -191.355455 262.653333 
L -185.465606 262.653333 
L -185.465606 262.653333 
L -191.355455 262.653333 
z
" style="fill:#43406b;opacity:0.6;stroke:#000000;stroke-linejoin:miter;stroke-width:0.5;"/>
   </g>
   <g id="patch_16">
    <path clip-path="url(#pd33e7550ed)" d="M -185.465606 262.653333 
L -179.575758 262.653333 
L -179.575758 262.653333 
L -185.465606 262.653333 
z
" style="fill:#43406b;opacity:0.6;stroke:#000000;stroke-linejoin:miter;stroke-width:0.5;"/>
   </g>
   <g id="patch_17">
    <path clip-path="url(#pd33e7550ed)" d="M -179.575758 262.653333 
L -173.685909 262.653333 
L -173.685909 262.653333 
L -179.575758 262.653333 
z
" style="fill:#43406b;opacity:0.6;stroke:#000000;stroke-linejoin:miter;stroke-width:0.5;"/>
   </g>
   <g id="patch_18">
    <path clip-path="url(#pd33e7550ed)" d="M -173.685909 262.653333 
L -167.796061 262.653333 
L -167.796061 262.303123 
L -173.685909 262.303123 
z
" style="fill:#43406b;opacity:0.6;stroke:#000000;stroke-linejoin:miter;stroke-width:0.5;"/>
   </g>
   <g id="patch_19">
    <path clip-path="url(#pd33e7550ed)" d="M -167.796061 262.653333 
L -161.906212 262.653333 
L -161.906212 262.653333 
L -167.796061 262.653333 
z
" style="fill:#43406b;opacity:0.6;stroke:#000000;stroke-linejoin:miter;stroke-width:0.5;"/>
   </g>
   <g id="patch_20">
    <path clip-path="url(#pd33e7550ed)" d="M -161.906212 262.653333 
L -156.016364 262.653333 
L -156.016364 262.653333 
L -161.906212 262.653333 
z
" style="fill:#43406b;opacity:0.6;stroke:#000000;stroke-linejoin:miter;stroke-width:0.5;"/>
   </g>
   <g id="patch_21">
    <path clip-path="url(#pd33e7550ed)" d="M -156.016364 262.653333 
L -150.126515 262.653333 
L -150.126515 262.303123 
L -156.016364 262.303123 
z
" style="fill:#43406b;opacity:0.6;stroke:#000000;stroke-linejoin:miter;stroke-width:0.5;"/>
   </g>
   <g id="patch_22">
    <path clip-path="url(#pd33e7550ed)" d="M -150.126515 262.653333 
L -144.236667 262.653333 
L -144.236667 261.952912 
L -150.126515 261.952912 
z
" style="fill:#43406b;opacity:0.6;stroke:#000000;stroke-linejoin:miter;stroke-width:0.5;"/>
   </g>
   <g id="patch_23">
    <path clip-path="url(#pd33e7550ed)" d="M -144.236667 262.653333 
L -138.346818 262.653333 
L -138.346818 259.851648 
L -144.236667 259.851648 
z
" style="fill:#43406b;opacity:0.6;stroke:#000000;stroke-linejoin:miter;stroke-width:0.5;"/>
   </g>
   <g id="patch_24">
    <path clip-path="url(#pd33e7550ed)" d="M -138.346818 262.653333 
L -132.45697 262.653333 
L -132.45697 259.501437 
L -138.346818 259.501437 
z
" style="fill:#43406b;opacity:0.6;stroke:#000000;stroke-linejoin:miter;stroke-width:0.5;"/>
   </g>
   <g id="patch_25">
    <path clip-path="url(#pd33e7550ed)" d="M -132.45697 262.653333 
L -126.567121 262.653333 
L -126.567121 258.450805 
L -132.45697 258.450805 
z
" style="fill:#43406b;opacity:0.6;stroke:#000000;stroke-linejoin:miter;stroke-width:0.5;"/>
   </g>
   <g id="patch_26">
    <path clip-path="url(#pd33e7550ed)" d="M -126.567121 262.653333 
L -120.677273 262.653333 
L -120.677273 255.64912 
L -126.567121 255.64912 
z
" style="fill:#43406b;opacity:0.6;stroke:#000000;stroke-linejoin:miter;stroke-width:0.5;"/>
   </g>
   <g id="patch_27">
    <path clip-path="url(#pd33e7550ed)" d="M -120.677273 262.653333 
L -114.787424 262.653333 
L -114.787424 252.497224 
L -120.677273 252.497224 
z
" style="fill:#43406b;opacity:0.6;stroke:#000000;stroke-linejoin:miter;stroke-width:0.5;"/>
   </g>
   <g id="patch_28">
    <path clip-path="url(#pd33e7550ed)" d="M -114.787424 262.653333 
L -108.897576 262.653333 
L -108.897576 251.096381 
L -114.787424 251.096381 
z
" style="fill:#43406b;opacity:0.6;stroke:#000000;stroke-linejoin:miter;stroke-width:0.5;"/>
   </g>
   <g id="patch_29">
    <path clip-path="url(#pd33e7550ed)" d="M -108.897576 262.653333 
L -103.007727 262.653333 
L -103.007727 251.096381 
L -108.897576 251.096381 
z
" style="fill:#43406b;opacity:0.6;stroke:#000000;stroke-linejoin:miter;stroke-width:0.5;"/>
   </g>
   <g id="patch_30">
    <path clip-path="url(#pd33e7550ed)" d="M -103.007727 262.653333 
L -97.117879 262.653333 
L -97.117879 248.644907 
L -103.007727 248.644907 
z
" style="fill:#43406b;opacity:0.6;stroke:#000000;stroke-linejoin:miter;stroke-width:0.5;"/>
   </g>
   <g id="patch_31">
    <path clip-path="url(#pd33e7550ed)" d="M -97.117879 262.653333 
L -91.22803 262.653333 
L -91.22803 250.04575 
L -97.117879 250.04575 
z
" style="fill:#43406b;opacity:0.6;stroke:#000000;stroke-linejoin:miter;stroke-width:0.5;"/>
   </g>
   <g id="patch_32">
    <path clip-path="url(#pd33e7550ed)" d="M -91.22803 262.653333 
L -85.338182 262.653333 
L -85.338182 250.746171 
L -91.22803 250.746171 
z
" style="fill:#43406b;opacity:0.6;stroke:#000000;stroke-linejoin:miter;stroke-width:0.5;"/>
   </g>
   <g id="patch_33">
    <path clip-path="url(#pd33e7550ed)" d="M -85.338182 262.653333 
L -79.448333 262.653333 
L -79.448333 252.497224 
L -85.338182 252.497224 
z
" style="fill:#43406b;opacity:0.6;stroke:#000000;stroke-linejoin:miter;stroke-width:0.5;"/>
   </g>
   <g id="patch_34">
    <path clip-path="url(#pd33e7550ed)" d="M -79.448333 262.653333 
L -73.558485 262.653333 
L -73.558485 253.898067 
L -79.448333 253.898067 
z
" style="fill:#43406b;opacity:0.6;stroke:#000000;stroke-linejoin:miter;stroke-width:0.5;"/>
   </g>
   <g id="patch_35">
    <path clip-path="url(#pd33e7550ed)" d="M -73.558485 262.653333 
L -67.668636 262.653333 
L -67.668636 248.294696 
L -73.558485 248.294696 
z
" style="fill:#43406b;opacity:0.6;stroke:#000000;stroke-linejoin:miter;stroke-width:0.5;"/>
   </g>
   <g id="patch_36">
    <path clip-path="url(#pd33e7550ed)" d="M -67.668636 262.653333 
L -61.778788 262.653333 
L -61.778788 241.990904 
L -67.668636 241.990904 
z
" style="fill:#43406b;opacity:0.6;stroke:#000000;stroke-linejoin:miter;stroke-width:0.5;"/>
   </g>
   <g id="patch_37">
    <path clip-path="url(#pd33e7550ed)" d="M -61.778788 262.653333 
L -55.888939 262.653333 
L -55.888939 209.071102 
L -61.778788 209.071102 
z
" style="fill:#43406b;opacity:0.6;stroke:#000000;stroke-linejoin:miter;stroke-width:0.5;"/>
   </g>
   <g id="patch_38">
    <path clip-path="url(#pd33e7550ed)" d="M -55.888939 262.653333 
L -49.999091 262.653333 
L -49.999091 82.995264 
L -55.888939 82.995264 
z
" style="fill:#43406b;opacity:0.6;stroke:#000000;stroke-linejoin:miter;stroke-width:0.5;"/>
   </g>
   <g id="patch_39">
    <path clip-path="url(#pd33e7550ed)" d="M -49.999091 262.653333 
L -44.109242 262.653333 
L -44.109242 29.062822 
L -49.999091 29.062822 
z
" style="fill:#43406b;opacity:0.6;stroke:#000000;stroke-linejoin:miter;stroke-width:0.5;"/>
   </g>
   <g id="patch_40">
    <path clip-path="url(#pd33e7550ed)" d="M -44.109242 262.653333 
L -38.219394 262.653333 
L -38.219394 215.374894 
L -44.109242 215.374894 
z
" style="fill:#43406b;opacity:0.6;stroke:#000000;stroke-linejoin:miter;stroke-width:0.5;"/>
   </g>
   <g id="patch_41">
    <path clip-path="url(#pd33e7550ed)" d="M -38.219394 262.653333 
L -32.329545 262.653333 
L -32.329545 262.653333 
L -38.219394 262.653333 
z
" style="fill:#43406b;opacity:0.6;stroke:#000000;stroke-linejoin:miter;stroke-width:0.5;"/>
   </g>
   <g id="patch_42">
    <path clip-path="url(#pd33e7550ed)" d="M -32.329545 262.653333 
L -26.439697 262.653333 
L -26.439697 262.653333 
L -32.329545 262.653333 
z
" style="fill:#43406b;opacity:0.6;stroke:#000000;stroke-linejoin:miter;stroke-width:0.5;"/>
   </g>
   <g id="patch_43">
    <path clip-path="url(#pd33e7550ed)" d="M -262.033636 262.653333 
L -256.143788 262.653333 
L -256.143788 262.653333 
L -262.033636 262.653333 
z
" style="fill:#d15a00;opacity:0.6;stroke:#000000;stroke-linejoin:miter;stroke-width:0.5;"/>
   </g>
   <g id="patch_44">
    <path clip-path="url(#pd33e7550ed)" d="M -256.143788 262.653333 
L -250.253939 262.653333 
L -250.253939 262.653333 
L -256.143788 262.653333 
z
" style="fill:#d15a00;opacity:0.6;stroke:#000000;stroke-linejoin:miter;stroke-width:0.5;"/>
   </g>
   <g id="patch_45">
    <path clip-path="url(#pd33e7550ed)" d="M -250.253939 262.653333 
L -244.364091 262.653333 
L -244.364091 262.653333 
L -250.253939 262.653333 
z
" style="fill:#d15a00;opacity:0.6;stroke:#000000;stroke-linejoin:miter;stroke-width:0.5;"/>
   </g>
   <g id="patch_46">
    <path clip-path="url(#pd33e7550ed)" d="M -244.364091 262.653333 
L -238.474242 262.653333 
L -238.474242 262.653333 
L -244.364091 262.653333 
z
" style="fill:#d15a00;opacity:0.6;stroke:#000000;stroke-linejoin:miter;stroke-width:0.5;"/>
   </g>
   <g id="patch_47">
    <path clip-path="url(#pd33e7550ed)" d="M -238.474242 262.653333 
L -232.584394 262.653333 
L -232.584394 262.653333 
L -238.474242 262.653333 
z
" style="fill:#d15a00;opacity:0.6;stroke:#000000;stroke-linejoin:miter;stroke-width:0.5;"/>
   </g>
   <g id="patch_48">
    <path clip-path="url(#pd33e7550ed)" d="M -232.584394 262.653333 
L -226.694545 262.653333 
L -226.694545 262.653333 
L -232.584394 262.653333 
z
" style="fill:#d15a00;opacity:0.6;stroke:#000000;stroke-linejoin:miter;stroke-width:0.5;"/>
   </g>
   <g id="patch_49">
    <path clip-path="url(#pd33e7550ed)" d="M -226.694545 262.653333 
L -220.804697 262.653333 
L -220.804697 262.653333 
L -226.694545 262.653333 
z
" style="fill:#d15a00;opacity:0.6;stroke:#000000;stroke-linejoin:miter;stroke-width:0.5;"/>
   </g>
   <g id="patch_50">
    <path clip-path="url(#pd33e7550ed)" d="M -220.804697 262.653333 
L -214.914848 262.653333 
L -214.914848 262.653333 
L -220.804697 262.653333 
z
" style="fill:#d15a00;opacity:0.6;stroke:#000000;stroke-linejoin:miter;stroke-width:0.5;"/>
   </g>
   <g id="patch_51">
    <path clip-path="url(#pd33e7550ed)" d="M -214.914848 262.653333 
L -209.025 262.653333 
L -209.025 262.653333 
L -214.914848 262.653333 
z
" style="fill:#d15a00;opacity:0.6;stroke:#000000;stroke-linejoin:miter;stroke-width:0.5;"/>
   </g>
   <g id="patch_52">
    <path clip-path="url(#pd33e7550ed)" d="M -209.025 262.653333 
L -203.135152 262.653333 
L -203.135152 262.653333 
L -209.025 262.653333 
z
" style="fill:#d15a00;opacity:0.6;stroke:#000000;stroke-linejoin:miter;stroke-width:0.5;"/>
   </g>
   <g id="patch_53">
    <path clip-path="url(#pd33e7550ed)" d="M -203.135152 262.653333 
L -197.245303 262.653333 
L -197.245303 262.653333 
L -203.135152 262.653333 
z
" style="fill:#d15a00;opacity:0.6;stroke:#000000;stroke-linejoin:miter;stroke-width:0.5;"/>
   </g>
   <g id="patch_54">
    <path clip-path="url(#pd33e7550ed)" d="M -197.245303 262.653333 
L -191.355455 262.653333 
L -191.355455 262.653333 
L -197.245303 262.653333 
z
" style="fill:#d15a00;opacity:0.6;stroke:#000000;stroke-linejoin:miter;stroke-width:0.5;"/>
   </g>
   <g id="patch_55">
    <path clip-path="url(#pd33e7550ed)" d="M -191.355455 262.653333 
L -185.465606 262.653333 
L -185.465606 262.653333 
L -191.355455 262.653333 
z
" style="fill:#d15a00;opacity:0.6;stroke:#000000;stroke-linejoin:miter;stroke-width:0.5;"/>
   </g>
   <g id="patch_56">
    <path clip-path="url(#pd33e7550ed)" d="M -185.465606 262.653333 
L -179.575758 262.653333 
L -179.575758 262.653333 
L -185.465606 262.653333 
z
" style="fill:#d15a00;opacity:0.6;stroke:#000000;stroke-linejoin:miter;stroke-width:0.5;"/>
   </g>
   <g id="patch_57">
    <path clip-path="url(#pd33e7550ed)" d="M -179.575758 262.653333 
L -173.685909 262.653333 
L -173.685909 262.653333 
L -179.575758 262.653333 
z
" style="fill:#d15a00;opacity:0.6;stroke:#000000;stroke-linejoin:miter;stroke-width:0.5;"/>
   </g>
   <g id="patch_58">
    <path clip-path="url(#pd33e7550ed)" d="M -173.685909 262.653333 
L -167.796061 262.653333 
L -167.796061 262.653333 
L -173.685909 262.653333 
z
" style="fill:#d15a00;opacity:0.6;stroke:#000000;stroke-linejoin:miter;stroke-width:0.5;"/>
   </g>
   <g id="patch_59">
    <path clip-path="url(#pd33e7550ed)" d="M -167.796061 262.653333 
L -161.906212 262.653333 
L -161.906212 262.653333 
L -167.796061 262.653333 
z
" style="fill:#d15a00;opacity:0.6;stroke:#000000;stroke-linejoin:miter;stroke-width:0.5;"/>
   </g>
   <g id="patch_60">
    <path clip-path="url(#pd33e7550ed)" d="M -161.906212 262.653333 
L -156.016364 262.653333 
L -156.016364 262.653333 
L -161.906212 262.653333 
z
" style="fill:#d15a00;opacity:0.6;stroke:#000000;stroke-linejoin:miter;stroke-width:0.5;"/>
   </g>
   <g id="patch_61">
    <path clip-path="url(#pd33e7550ed)" d="M -156.016364 262.653333 
L -150.126515 262.653333 
L -150.126515 262.310061 
L -156.016364 262.310061 
z
" style="fill:#d15a00;opacity:0.6;stroke:#000000;stroke-linejoin:miter;stroke-width:0.5;"/>
   </g>
   <g id="patch_62">
    <path clip-path="url(#pd33e7550ed)" d="M -150.126515 262.653333 
L -144.236667 262.653333 
L -144.236667 261.966789 
L -150.126515 261.966789 
z
" style="fill:#d15a00;opacity:0.6;stroke:#000000;stroke-linejoin:miter;stroke-width:0.5;"/>
   </g>
   <g id="patch_63">
    <path clip-path="url(#pd33e7550ed)" d="M -144.236667 262.653333 
L -138.346818 262.653333 
L -138.346818 260.5937 
L -144.236667 260.5937 
z
" style="fill:#d15a00;opacity:0.6;stroke:#000000;stroke-linejoin:miter;stroke-width:0.5;"/>
   </g>
   <g id="patch_64">
    <path clip-path="url(#pd33e7550ed)" d="M -138.346818 262.653333 
L -132.45697 262.653333 
L -132.45697 257.504251 
L -138.346818 257.504251 
z
" style="fill:#d15a00;opacity:0.6;stroke:#000000;stroke-linejoin:miter;stroke-width:0.5;"/>
   </g>
   <g id="patch_65">
    <path clip-path="url(#pd33e7550ed)" d="M -132.45697 262.653333 
L -126.567121 262.653333 
L -126.567121 258.534067 
L -132.45697 258.534067 
z
" style="fill:#d15a00;opacity:0.6;stroke:#000000;stroke-linejoin:miter;stroke-width:0.5;"/>
   </g>
   <g id="patch_66">
    <path clip-path="url(#pd33e7550ed)" d="M -126.567121 262.653333 
L -120.677273 262.653333 
L -120.677273 255.101345 
L -126.567121 255.101345 
z
" style="fill:#d15a00;opacity:0.6;stroke:#000000;stroke-linejoin:miter;stroke-width:0.5;"/>
   </g>
   <g id="patch_67">
    <path clip-path="url(#pd33e7550ed)" d="M -120.677273 262.653333 
L -114.787424 262.653333 
L -114.787424 251.325351 
L -120.677273 251.325351 
z
" style="fill:#d15a00;opacity:0.6;stroke:#000000;stroke-linejoin:miter;stroke-width:0.5;"/>
   </g>
   <g id="patch_68">
    <path clip-path="url(#pd33e7550ed)" d="M -114.787424 262.653333 
L -108.897576 262.653333 
L -108.897576 247.549357 
L -114.787424 247.549357 
z
" style="fill:#d15a00;opacity:0.6;stroke:#000000;stroke-linejoin:miter;stroke-width:0.5;"/>
   </g>
   <g id="patch_69">
    <path clip-path="url(#pd33e7550ed)" d="M -108.897576 262.653333 
L -103.007727 262.653333 
L -103.007727 248.922446 
L -108.897576 248.922446 
z
" style="fill:#d15a00;opacity:0.6;stroke:#000000;stroke-linejoin:miter;stroke-width:0.5;"/>
   </g>
   <g id="patch_70">
    <path clip-path="url(#pd33e7550ed)" d="M -103.007727 262.653333 
L -97.117879 262.653333 
L -97.117879 250.638807 
L -103.007727 250.638807 
z
" style="fill:#d15a00;opacity:0.6;stroke:#000000;stroke-linejoin:miter;stroke-width:0.5;"/>
   </g>
   <g id="patch_71">
    <path clip-path="url(#pd33e7550ed)" d="M -97.117879 262.653333 
L -91.22803 262.653333 
L -91.22803 250.982079 
L -97.117879 250.982079 
z
" style="fill:#d15a00;opacity:0.6;stroke:#000000;stroke-linejoin:miter;stroke-width:0.5;"/>
   </g>
   <g id="patch_72">
    <path clip-path="url(#pd33e7550ed)" d="M -91.22803 262.653333 
L -85.338182 262.653333 
L -85.338182 248.922446 
L -91.22803 248.922446 
z
" style="fill:#d15a00;opacity:0.6;stroke:#000000;stroke-linejoin:miter;stroke-width:0.5;"/>
   </g>
   <g id="patch_73">
    <path clip-path="url(#pd33e7550ed)" d="M -85.338182 262.653333 
L -79.448333 262.653333 
L -79.448333 250.295535 
L -85.338182 250.295535 
z
" style="fill:#d15a00;opacity:0.6;stroke:#000000;stroke-linejoin:miter;stroke-width:0.5;"/>
   </g>
   <g id="patch_74">
    <path clip-path="url(#pd33e7550ed)" d="M -79.448333 262.653333 
L -73.558485 262.653333 
L -73.558485 253.384984 
L -79.448333 253.384984 
z
" style="fill:#d15a00;opacity:0.6;stroke:#000000;stroke-linejoin:miter;stroke-width:0.5;"/>
   </g>
   <g id="patch_75">
    <path clip-path="url(#pd33e7550ed)" d="M -73.558485 262.653333 
L -67.668636 262.653333 
L -67.668636 250.638807 
L -73.558485 250.638807 
z
" style="fill:#d15a00;opacity:0.6;stroke:#000000;stroke-linejoin:miter;stroke-width:0.5;"/>
   </g>
   <g id="patch_76">
    <path clip-path="url(#pd33e7550ed)" d="M -67.668636 262.653333 
L -61.778788 262.653333 
L -61.778788 232.102109 
L -67.668636 232.102109 
z
" style="fill:#d15a00;opacity:0.6;stroke:#000000;stroke-linejoin:miter;stroke-width:0.5;"/>
   </g>
   <g id="patch_77">
    <path clip-path="url(#pd33e7550ed)" d="M -61.778788 262.653333 
L -55.888939 262.653333 
L -55.888939 153.49278 
L -61.778788 153.49278 
z
" style="fill:#d15a00;opacity:0.6;stroke:#000000;stroke-linejoin:miter;stroke-width:0.5;"/>
   </g>
   <g id="patch_78">
    <path clip-path="url(#pd33e7550ed)" d="M -55.888939 262.653333 
L -49.999091 262.653333 
L -49.999091 15.840635 
L -55.888939 15.840635 
z
" style="fill:#d15a00;opacity:0.6;stroke:#000000;stroke-linejoin:miter;stroke-width:0.5;"/>
   </g>
   <g id="patch_79">
    <path clip-path="url(#pd33e7550ed)" d="M -49.999091 262.653333 
L -44.109242 262.653333 
L -44.109242 129.806999 
L -49.999091 129.806999 
z
" style="fill:#d15a00;opacity:0.6;stroke:#000000;stroke-linejoin:miter;stroke-width:0.5;"/>
   </g>
   <g id="patch_80">
    <path clip-path="url(#pd33e7550ed)" d="M -44.109242 262.653333 
L -38.219394 262.653333 
L -38.219394 254.758073 
L -44.109242 254.758073 
z
" style="fill:#d15a00;opacity:0.6;stroke:#000000;stroke-linejoin:miter;stroke-width:0.5;"/>
   </g>
   <g id="patch_81">
    <path clip-path="url(#pd33e7550ed)" d="M -38.219394 262.653333 
L -32.329545 262.653333 
L -32.329545 262.653333 
L -38.219394 262.653333 
z
" style="fill:#d15a00;opacity:0.6;stroke:#000000;stroke-linejoin:miter;stroke-width:0.5;"/>
   </g>
   <g id="patch_82">
    <path clip-path="url(#pd33e7550ed)" d="M -32.329545 262.653333 
L -26.439697 262.653333 
L -26.439697 262.653333 
L -32.329545 262.653333 
z
" style="fill:#d15a00;opacity:0.6;stroke:#000000;stroke-linejoin:miter;stroke-width:0.5;"/>
   </g>
   <g id="matplotlib.axis_1">
    <g id="xtick_1">
     <g id="line2d_1">
      <defs>
       <path d="M 0 0 
L 0 3.5 
" id="m0f81c67f59" style="stroke:#000000;stroke-width:1.6;"/>
      </defs>
      <g/>
     </g>
     <g id="text_1">
      <!-- 0.0 -->
      <defs>
       <path d="M 31.78125 66.40625 
Q 24.171875 66.40625 20.328125 58.90625 
Q 16.5 51.421875 16.5 36.375 
Q 16.5 21.390625 20.328125 13.890625 
Q 24.171875 6.390625 31.78125 6.390625 
Q 39.453125 6.390625 43.28125 13.890625 
Q 47.125 21.390625 47.125 36.375 
Q 47.125 51.421875 43.28125 58.90625 
Q 39.453125 66.40625 31.78125 66.40625 
z
M 31.78125 74.21875 
Q 44.046875 74.21875 50.515625 64.515625 
Q 56.984375 54.828125 56.984375 36.375 
Q 56.984375 17.96875 50.515625 8.265625 
Q 44.046875 -1.421875 31.78125 -1.421875 
Q 19.53125 -1.421875 13.0625 8.265625 
Q 6.59375 17.96875 6.59375 36.375 
Q 6.59375 54.828125 13.0625 64.515625 
Q 19.53125 74.21875 31.78125 74.21875 
z
" id="DejaVuSans-48"/>
       <path d="M 10.6875 12.40625 
L 21 12.40625 
L 21 0 
L 10.6875 0 
z
" id="DejaVuSans-46"/>
      </defs>
      <g transform="translate(-277.936761 292.550208)scale(0.2 -0.2)">
       <use xlink:href="#DejaVuSans-48"/>
       <use x="63.623047" xlink:href="#DejaVuSans-46"/>
       <use x="95.410156" xlink:href="#DejaVuSans-48"/>
      </g>
     </g>
    </g>
    <g id="xtick_2">
     <g id="line2d_2">
      <g/>
     </g>
     <g id="text_2">
      <!-- 0.2 -->
      <defs>
       <path d="M 19.1875 8.296875 
L 53.609375 8.296875 
L 53.609375 0 
L 7.328125 0 
L 7.328125 8.296875 
Q 12.9375 14.109375 22.625 23.890625 
Q 32.328125 33.6875 34.8125 36.53125 
Q 39.546875 41.84375 41.421875 45.53125 
Q 43.3125 49.21875 43.3125 52.78125 
Q 43.3125 58.59375 39.234375 62.25 
Q 35.15625 65.921875 28.609375 65.921875 
Q 23.96875 65.921875 18.8125 64.3125 
Q 13.671875 62.703125 7.8125 59.421875 
L 7.8125 69.390625 
Q 13.765625 71.78125 18.9375 73 
Q 24.125 74.21875 28.421875 74.21875 
Q 39.75 74.21875 46.484375 68.546875 
Q 53.21875 62.890625 53.21875 53.421875 
Q 53.21875 48.921875 51.53125 44.890625 
Q 49.859375 40.875 45.40625 35.40625 
Q 44.1875 33.984375 37.640625 27.21875 
Q 31.109375 20.453125 19.1875 8.296875 
z
" id="DejaVuSans-50"/>
      </defs>
      <g transform="translate(-210.624207 292.550208)scale(0.2 -0.2)">
       <use xlink:href="#DejaVuSans-48"/>
       <use x="63.623047" xlink:href="#DejaVuSans-46"/>
       <use x="95.410156" xlink:href="#DejaVuSans-50"/>
      </g>
     </g>
    </g>
    <g id="xtick_3">
     <g id="line2d_3">
      <g/>
     </g>
     <g id="text_3">
      <!-- 0.4 -->
      <defs>
       <path d="M 37.796875 64.3125 
L 12.890625 25.390625 
L 37.796875 25.390625 
z
M 35.203125 72.90625 
L 47.609375 72.90625 
L 47.609375 25.390625 
L 58.015625 25.390625 
L 58.015625 17.1875 
L 47.609375 17.1875 
L 47.609375 0 
L 37.796875 0 
L 37.796875 17.1875 
L 4.890625 17.1875 
L 4.890625 26.703125 
z
" id="DejaVuSans-52"/>
      </defs>
      <g transform="translate(-143.311653 292.550208)scale(0.2 -0.2)">
       <use xlink:href="#DejaVuSans-48"/>
       <use x="63.623047" xlink:href="#DejaVuSans-46"/>
       <use x="95.410156" xlink:href="#DejaVuSans-52"/>
      </g>
     </g>
    </g>
    <g id="xtick_4">
     <g id="line2d_4">
      <g/>
     </g>
     <g id="text_4">
      <!-- 0.6 -->
      <defs>
       <path d="M 33.015625 40.375 
Q 26.375 40.375 22.484375 35.828125 
Q 18.609375 31.296875 18.609375 23.390625 
Q 18.609375 15.53125 22.484375 10.953125 
Q 26.375 6.390625 33.015625 6.390625 
Q 39.65625 6.390625 43.53125 10.953125 
Q 47.40625 15.53125 47.40625 23.390625 
Q 47.40625 31.296875 43.53125 35.828125 
Q 39.65625 40.375 33.015625 40.375 
z
M 52.59375 71.296875 
L 52.59375 62.3125 
Q 48.875 64.0625 45.09375 64.984375 
Q 41.3125 65.921875 37.59375 65.921875 
Q 27.828125 65.921875 22.671875 59.328125 
Q 17.53125 52.734375 16.796875 39.40625 
Q 19.671875 43.65625 24.015625 45.921875 
Q 28.375 48.1875 33.59375 48.1875 
Q 44.578125 48.1875 50.953125 41.515625 
Q 57.328125 34.859375 57.328125 23.390625 
Q 57.328125 12.15625 50.6875 5.359375 
Q 44.046875 -1.421875 33.015625 -1.421875 
Q 20.359375 -1.421875 13.671875 8.265625 
Q 6.984375 17.96875 6.984375 36.375 
Q 6.984375 53.65625 15.1875 63.9375 
Q 23.390625 74.21875 37.203125 74.21875 
Q 40.921875 74.21875 44.703125 73.484375 
Q 48.484375 72.75 52.59375 71.296875 
z
" id="DejaVuSans-54"/>
      </defs>
      <g transform="translate(-75.999099 292.550208)scale(0.2 -0.2)">
       <use xlink:href="#DejaVuSans-48"/>
       <use x="63.623047" xlink:href="#DejaVuSans-46"/>
       <use x="95.410156" xlink:href="#DejaVuSans-54"/>
      </g>
     </g>
    </g>
    <g id="text_5">
     <!--   -->
     <defs>
      <path id="DejaVuSans-32"/>
     </defs>
     <g transform="translate(-147.414792 315.906458)scale(0.2 -0.2)">
      <use xlink:href="#DejaVuSans-32"/>
     </g>
    </g>
   </g>
   <g id="matplotlib.axis_2">
    <g id="ytick_1">
     <g id="line2d_5">
      <defs>
       <path d="M 0 0 
L -3.5 0 
" id="me05b2166e4" style="stroke:#000000;stroke-width:1.6;"/>
      </defs>
      <g/>
     </g>
     <g id="text_6">
      <!-- 0.0 -->
      <g transform="translate(-320.319583 270.251771)scale(0.2 -0.2)">
       <use xlink:href="#DejaVuSans-48"/>
       <use x="63.623047" xlink:href="#DejaVuSans-46"/>
       <use x="95.410156" xlink:href="#DejaVuSans-48"/>
      </g>
     </g>
    </g>
    <g id="ytick_2">
     <g id="line2d_6">
      <g/>
     </g>
     <g id="text_7">
      <!-- 0.1 -->
      <defs>
       <path d="M 12.40625 8.296875 
L 28.515625 8.296875 
L 28.515625 63.921875 
L 10.984375 60.40625 
L 10.984375 69.390625 
L 28.421875 72.90625 
L 38.28125 72.90625 
L 38.28125 8.296875 
L 54.390625 8.296875 
L 54.390625 0 
L 12.40625 0 
z
" id="DejaVuSans-49"/>
      </defs>
      <g transform="translate(-320.319583 204.412166)scale(0.2 -0.2)">
       <use xlink:href="#DejaVuSans-48"/>
       <use x="63.623047" xlink:href="#DejaVuSans-46"/>
       <use x="95.410156" xlink:href="#DejaVuSans-49"/>
      </g>
     </g>
    </g>
    <g id="ytick_3">
     <g id="line2d_7">
      <g/>
     </g>
     <g id="text_8">
      <!-- 0.2 -->
      <g transform="translate(-320.319583 138.572562)scale(0.2 -0.2)">
       <use xlink:href="#DejaVuSans-48"/>
       <use x="63.623047" xlink:href="#DejaVuSans-46"/>
       <use x="95.410156" xlink:href="#DejaVuSans-50"/>
      </g>
     </g>
    </g>
    <g id="ytick_4">
     <g id="line2d_8">
      <g/>
     </g>
     <g id="text_9">
      <!-- 0.3 -->
      <defs>
       <path d="M 40.578125 39.3125 
Q 47.65625 37.796875 51.625 33 
Q 55.609375 28.21875 55.609375 21.1875 
Q 55.609375 10.40625 48.1875 4.484375 
Q 40.765625 -1.421875 27.09375 -1.421875 
Q 22.515625 -1.421875 17.65625 -0.515625 
Q 12.796875 0.390625 7.625 2.203125 
L 7.625 11.71875 
Q 11.71875 9.328125 16.59375 8.109375 
Q 21.484375 6.890625 26.8125 6.890625 
Q 36.078125 6.890625 40.9375 10.546875 
Q 45.796875 14.203125 45.796875 21.1875 
Q 45.796875 27.640625 41.28125 31.265625 
Q 36.765625 34.90625 28.71875 34.90625 
L 20.21875 34.90625 
L 20.21875 43.015625 
L 29.109375 43.015625 
Q 36.375 43.015625 40.234375 45.921875 
Q 44.09375 48.828125 44.09375 54.296875 
Q 44.09375 59.90625 40.109375 62.90625 
Q 36.140625 65.921875 28.71875 65.921875 
Q 24.65625 65.921875 20.015625 65.03125 
Q 15.375 64.15625 9.8125 62.3125 
L 9.8125 71.09375 
Q 15.4375 72.65625 20.34375 73.4375 
Q 25.25 74.21875 29.59375 74.21875 
Q 40.828125 74.21875 47.359375 69.109375 
Q 53.90625 64.015625 53.90625 55.328125 
Q 53.90625 49.265625 50.4375 45.09375 
Q 46.96875 40.921875 40.578125 39.3125 
z
" id="DejaVuSans-51"/>
      </defs>
      <g transform="translate(-320.319583 72.732958)scale(0.2 -0.2)">
       <use xlink:href="#DejaVuSans-48"/>
       <use x="63.623047" xlink:href="#DejaVuSans-46"/>
       <use x="95.410156" xlink:href="#DejaVuSans-51"/>
      </g>
     </g>
    </g>
    <g id="text_10">
     <!--   -->
     <g transform="translate(-327.979833 135.873417)rotate(-90)scale(0.176 -0.176)">
      <use xlink:href="#DejaVuSans-32"/>
     </g>
    </g>
   </g>
   <g id="patch_83">
    <path style="fill:none;stroke:#000000;stroke-linecap:square;stroke-linejoin:miter;stroke-width:0.8;"/>
   </g>
   <g id="patch_84">
    <path style="fill:none;stroke:#000000;stroke-linecap:square;stroke-linejoin:miter;stroke-width:0.8;"/>
   </g>
  </g>
  <g id="axes_2">
   <g id="patch_85">
    <path d="M 96.7 262.653333 
L 355.853333 262.653333 
L 355.853333 3.5 
L 96.7 3.5 
z
" style="fill:#ffffff;"/>
   </g>
   <g id="PolyCollection_1">
    <defs>
     <path d="M 206.086494 -300.404916 
L 206.086494 -300.428751 
L 207.475507 -300.428352 
L 208.86452 -300.427119 
L 210.253533 -300.425331 
L 211.642546 -300.423361 
L 213.031559 -300.421578 
L 214.420572 -300.420276 
L 215.809585 -300.419673 
L 217.198598 -300.419938 
L 218.587611 -300.421236 
L 219.976624 -300.423723 
L 221.365637 -300.427511 
L 222.75465 -300.432585 
L 224.143663 -300.438753 
L 225.532676 -300.445679 
L 226.921689 -300.453024 
L 228.310701 -300.460677 
L 229.699714 -300.468948 
L 231.088727 -300.478617 
L 232.47774 -300.490713 
L 233.866753 -300.506096 
L 235.255766 -300.524994 
L 236.644779 -300.546739 
L 238.033792 -300.569882 
L 239.422805 -300.592685 
L 240.811818 -300.61381 
L 242.200831 -300.632921 
L 243.589844 -300.650921 
L 244.978857 -300.669714 
L 246.36787 -300.691532 
L 247.756883 -300.718063 
L 249.145896 -300.749739 
L 250.534909 -300.785491 
L 251.923922 -300.823149 
L 253.312935 -300.860326 
L 254.701948 -300.895386 
L 256.090961 -300.928036 
L 257.479974 -300.959231 
L 258.868987 -300.990489 
L 260.258 -301.022971 
L 261.647013 -301.056789 
L 263.036026 -301.090853 
L 264.425039 -301.123313 
L 265.814052 -301.152379 
L 267.203065 -301.17715 
L 268.592078 -301.198039 
L 269.981091 -301.21656 
L 271.370104 -301.234546 
L 272.759117 -301.253177 
L 274.14813 -301.27233 
L 275.537143 -301.29057 
L 276.926156 -301.30577 
L 278.315169 -301.315985 
L 279.704182 -301.32016 
L 281.093195 -301.318387 
L 282.482208 -301.311701 
L 283.871221 -301.301604 
L 285.260234 -301.289574 
L 286.649247 -301.276706 
L 288.03826 -301.263578 
L 289.427273 -301.250307 
L 290.816286 -301.236736 
L 292.205299 -301.22265 
L 293.594312 -301.207946 
L 294.983325 -301.192706 
L 296.372338 -301.177231 
L 297.761351 -301.16214 
L 299.150364 -301.148584 
L 300.539377 -301.138508 
L 301.92839 -301.134752 
L 303.317403 -301.140777 
L 304.706416 -301.160018 
L 306.095429 -301.19518 
L 307.484442 -301.247975 
L 308.873455 -301.319724 
L 310.262468 -301.41286 
L 311.651481 -301.532922 
L 313.040494 -301.690429 
L 314.429507 -301.902111 
L 315.81852 -302.19117 
L 317.207533 -302.586365 
L 318.596546 -303.119619 
L 319.985559 -303.82169 
L 321.374572 -304.715554 
L 322.763585 -305.807612 
L 324.152598 -307.077871 
L 325.541611 -308.471483 
L 326.930624 -309.895097 
L 328.319637 -311.22153 
L 329.708649 -312.304715 
L 331.097662 -313.003754 
L 332.486675 -313.211138 
L 333.875688 -312.877568 
L 335.264701 -312.025667 
L 336.653714 -310.747794 
L 338.042727 -309.188014 
L 339.43174 -307.513319 
L 340.820753 -305.882285 
L 342.209766 -304.4195 
L 343.598779 -303.201421 
L 343.598779 -297.632246 
L 343.598779 -297.632246 
L 342.209766 -296.414167 
L 340.820753 -294.951382 
L 339.43174 -293.320347 
L 338.042727 -291.645652 
L 336.653714 -290.085872 
L 335.264701 -288.807999 
L 333.875688 -287.956099 
L 332.486675 -287.622528 
L 331.097662 -287.829913 
L 329.708649 -288.528951 
L 328.319637 -289.612137 
L 326.930624 -290.93857 
L 325.541611 -292.362184 
L 324.152598 -293.755796 
L 322.763585 -295.026055 
L 321.374572 -296.118113 
L 319.985559 -297.011977 
L 318.596546 -297.714048 
L 317.207533 -298.247301 
L 315.81852 -298.642497 
L 314.429507 -298.931556 
L 313.040494 -299.143238 
L 311.651481 -299.300745 
L 310.262468 -299.420806 
L 308.873455 -299.513943 
L 307.484442 -299.585692 
L 306.095429 -299.638486 
L 304.706416 -299.673649 
L 303.317403 -299.69289 
L 301.92839 -299.698914 
L 300.539377 -299.695158 
L 299.150364 -299.685083 
L 297.761351 -299.671527 
L 296.372338 -299.656436 
L 294.983325 -299.640961 
L 293.594312 -299.62572 
L 292.205299 -299.611017 
L 290.816286 -299.596931 
L 289.427273 -299.583359 
L 288.03826 -299.570088 
L 286.649247 -299.556961 
L 285.260234 -299.544093 
L 283.871221 -299.532063 
L 282.482208 -299.521966 
L 281.093195 -299.515279 
L 279.704182 -299.513507 
L 278.315169 -299.517682 
L 276.926156 -299.527897 
L 275.537143 -299.543097 
L 274.14813 -299.561337 
L 272.759117 -299.580489 
L 271.370104 -299.59912 
L 269.981091 -299.617107 
L 268.592078 -299.635628 
L 267.203065 -299.656517 
L 265.814052 -299.681287 
L 264.425039 -299.710353 
L 263.036026 -299.742813 
L 261.647013 -299.776878 
L 260.258 -299.810696 
L 258.868987 -299.843178 
L 257.479974 -299.874436 
L 256.090961 -299.90563 
L 254.701948 -299.93828 
L 253.312935 -299.973341 
L 251.923922 -300.010517 
L 250.534909 -300.048176 
L 249.145896 -300.083928 
L 247.756883 -300.115603 
L 246.36787 -300.142135 
L 244.978857 -300.163952 
L 243.589844 -300.182746 
L 242.200831 -300.200746 
L 240.811818 -300.219856 
L 239.422805 -300.240982 
L 238.033792 -300.263785 
L 236.644779 -300.286928 
L 235.255766 -300.308673 
L 233.866753 -300.327571 
L 232.47774 -300.342954 
L 231.088727 -300.35505 
L 229.699714 -300.364719 
L 228.310701 -300.37299 
L 226.921689 -300.380642 
L 225.532676 -300.387988 
L 224.143663 -300.394914 
L 222.75465 -300.401082 
L 221.365637 -300.406155 
L 219.976624 -300.409943 
L 218.587611 -300.412431 
L 217.198598 -300.413728 
L 215.809585 -300.413994 
L 214.420572 -300.41339 
L 213.031559 -300.412089 
L 211.642546 -300.410305 
L 210.253533 -300.408336 
L 208.86452 -300.406547 
L 207.475507 -300.405314 
L 206.086494 -300.404916 
z
" id="mb4833359a1" style="stroke:#333333;"/>
    </defs>
    <g clip-path="url(#p4820d83c96)">
     <use style="fill:#484566;stroke:#333333;" x="0" xlink:href="#mb4833359a1" y="323.353333"/>
    </g>
   </g>
   <g id="PolyCollection_2">
    <defs>
     <path d="M 227.175529 -274.465662 
L 227.175529 -274.537338 
L 228.33083 -274.545307 
L 229.48613 -274.55407 
L 230.641431 -274.563691 
L 231.796732 -274.574304 
L 232.952032 -274.586119 
L 234.107333 -274.599417 
L 235.262634 -274.614524 
L 236.417934 -274.631746 
L 237.573235 -274.651277 
L 238.728536 -274.673077 
L 239.883836 -274.69677 
L 241.039137 -274.721622 
L 242.194438 -274.746622 
L 243.349738 -274.770698 
L 244.505039 -274.792985 
L 245.66034 -274.813095 
L 246.81564 -274.831258 
L 247.970941 -274.848317 
L 249.126242 -274.865562 
L 250.281542 -274.884477 
L 251.436843 -274.906475 
L 252.592144 -274.932702 
L 253.747444 -274.963915 
L 254.902745 -275.000431 
L 256.058046 -275.04211 
L 257.213346 -275.088353 
L 258.368647 -275.138124 
L 259.523948 -275.19 
L 260.679248 -275.242268 
L 261.834549 -275.293046 
L 262.98985 -275.340417 
L 264.14515 -275.38255 
L 265.300451 -275.417806 
L 266.455752 -275.444862 
L 267.611052 -275.462864 
L 268.766353 -275.471589 
L 269.921654 -275.471562 
L 271.076954 -275.464055 
L 272.232255 -275.45093 
L 273.387555 -275.434338 
L 274.542856 -275.416357 
L 275.698157 -275.398669 
L 276.853457 -275.382395 
L 278.008758 -275.368103 
L 279.164059 -275.355977 
L 280.319359 -275.346059 
L 281.47466 -275.338456 
L 282.629961 -275.33344 
L 283.785261 -275.331402 
L 284.940562 -275.332688 
L 286.095863 -275.337375 
L 287.251163 -275.345084 
L 288.406464 -275.354884 
L 289.561765 -275.365352 
L 290.717065 -275.374767 
L 291.872366 -275.381394 
L 293.027667 -275.383781 
L 294.182967 -275.380988 
L 295.338268 -275.372701 
L 296.493569 -275.359242 
L 297.648869 -275.341508 
L 298.80417 -275.320922 
L 299.959471 -275.299405 
L 301.114771 -275.27939 
L 302.270072 -275.263841 
L 303.425373 -275.256243 
L 304.580673 -275.260573 
L 305.735974 -275.281324 
L 306.891275 -275.323632 
L 308.046575 -275.393576 
L 309.201876 -275.498585 
L 310.357177 -275.647857 
L 311.512477 -275.852588 
L 312.667778 -276.125865 
L 313.823079 -276.48212 
L 314.978379 -276.936137 
L 316.13368 -277.501656 
L 317.288981 -278.189596 
L 318.444281 -279.005882 
L 319.599582 -279.948811 
L 320.754883 -281.005997 
L 321.910183 -282.151164 
L 323.065484 -283.3415 
L 324.220785 -284.516642 
L 325.376085 -285.600592 
L 326.531386 -286.507509 
L 327.686687 -287.151488 
L 328.841987 -287.459167 
L 329.997288 -287.382739 
L 331.152589 -286.910241 
L 332.307889 -286.070214 
L 333.46319 -284.929067 
L 334.618491 -283.581368 
L 335.773791 -282.135207 
L 336.929092 -280.696079 
L 338.084393 -279.352874 
L 339.239693 -278.168736 
L 340.394994 -277.177922 
L 341.550295 -276.38814 
L 341.550295 -272.61486 
L 341.550295 -272.61486 
L 340.394994 -271.825078 
L 339.239693 -270.834264 
L 338.084393 -269.650126 
L 336.929092 -268.306921 
L 335.773791 -266.867793 
L 334.618491 -265.421632 
L 333.46319 -264.073933 
L 332.307889 -262.932786 
L 331.152589 -262.092759 
L 329.997288 -261.620261 
L 328.841987 -261.543833 
L 327.686687 -261.851512 
L 326.531386 -262.495491 
L 325.376085 -263.402408 
L 324.220785 -264.486358 
L 323.065484 -265.6615 
L 321.910183 -266.851836 
L 320.754883 -267.997003 
L 319.599582 -269.054189 
L 318.444281 -269.997118 
L 317.288981 -270.813404 
L 316.13368 -271.501344 
L 314.978379 -272.066863 
L 313.823079 -272.52088 
L 312.667778 -272.877135 
L 311.512477 -273.150412 
L 310.357177 -273.355143 
L 309.201876 -273.504415 
L 308.046575 -273.609424 
L 306.891275 -273.679368 
L 305.735974 -273.721676 
L 304.580673 -273.742427 
L 303.425373 -273.746757 
L 302.270072 -273.739159 
L 301.114771 -273.72361 
L 299.959471 -273.703595 
L 298.80417 -273.682078 
L 297.648869 -273.661492 
L 296.493569 -273.643758 
L 295.338268 -273.630299 
L 294.182967 -273.622012 
L 293.027667 -273.619219 
L 291.872366 -273.621606 
L 290.717065 -273.628233 
L 289.561765 -273.637648 
L 288.406464 -273.648116 
L 287.251163 -273.657916 
L 286.095863 -273.665625 
L 284.940562 -273.670312 
L 283.785261 -273.671598 
L 282.629961 -273.66956 
L 281.47466 -273.664544 
L 280.319359 -273.656941 
L 279.164059 -273.647023 
L 278.008758 -273.634897 
L 276.853457 -273.620605 
L 275.698157 -273.604331 
L 274.542856 -273.586643 
L 273.387555 -273.568662 
L 272.232255 -273.55207 
L 271.076954 -273.538945 
L 269.921654 -273.531438 
L 268.766353 -273.531411 
L 267.611052 -273.540136 
L 266.455752 -273.558138 
L 265.300451 -273.585194 
L 264.14515 -273.62045 
L 262.98985 -273.662583 
L 261.834549 -273.709954 
L 260.679248 -273.760732 
L 259.523948 -273.813 
L 258.368647 -273.864876 
L 257.213346 -273.914647 
L 256.058046 -273.96089 
L 254.902745 -274.002569 
L 253.747444 -274.039085 
L 252.592144 -274.070298 
L 251.436843 -274.096525 
L 250.281542 -274.118523 
L 249.126242 -274.137438 
L 247.970941 -274.154683 
L 246.81564 -274.171742 
L 245.66034 -274.189905 
L 244.505039 -274.210015 
L 243.349738 -274.232302 
L 242.194438 -274.256378 
L 241.039137 -274.281378 
L 239.883836 -274.30623 
L 238.728536 -274.329923 
L 237.573235 -274.351723 
L 236.417934 -274.371254 
L 235.262634 -274.388476 
L 234.107333 -274.403583 
L 232.952032 -274.416881 
L 231.796732 -274.428696 
L 230.641431 -274.439309 
L 229.48613 -274.44893 
L 228.33083 -274.457693 
L 227.175529 -274.465662 
z
" id="m51f9501d22" style="stroke:#333333;"/>
    </defs>
    <g clip-path="url(#p4820d83c96)">
     <use style="fill:#b75e1a;stroke:#333333;" x="0" xlink:href="#m51f9501d22" y="323.353333"/>
    </g>
   </g>
   <g id="patch_86">
    <path clip-path="url(#p4820d83c96)" d="M 113.976889 35.894167 
L 113.976889 35.894167 
L 113.976889 35.894167 
L 113.976889 35.894167 
z
" style="fill:#484566;stroke:#333333;stroke-linejoin:miter;stroke-width:0.5;"/>
   </g>
   <g id="patch_87">
    <path clip-path="url(#p4820d83c96)" d="M 113.976889 35.894167 
L 113.976889 35.894167 
L 113.976889 35.894167 
L 113.976889 35.894167 
z
" style="fill:#b75e1a;stroke:#333333;stroke-linejoin:miter;stroke-width:0.5;"/>
   </g>
   <g id="matplotlib.axis_3">
    <g id="xtick_5">
     <g id="line2d_9">
      <g>
       <use style="stroke:#000000;stroke-width:1.6;" x="113.976889" xlink:href="#m0f81c67f59" y="262.653333"/>
      </g>
     </g>
     <g id="text_11">
      <!-- 0.0 -->
      <g transform="translate(98.073764 292.550208)scale(0.2 -0.2)">
       <use xlink:href="#DejaVuSans-48"/>
       <use x="63.623047" xlink:href="#DejaVuSans-46"/>
       <use x="95.410156" xlink:href="#DejaVuSans-48"/>
      </g>
     </g>
    </g>
    <g id="xtick_6">
     <g id="line2d_10">
      <g>
       <use style="stroke:#000000;stroke-width:1.6;" x="183.084444" xlink:href="#m0f81c67f59" y="262.653333"/>
      </g>
     </g>
     <g id="text_12">
      <!-- 0.2 -->
      <g transform="translate(167.181319 292.550208)scale(0.2 -0.2)">
       <use xlink:href="#DejaVuSans-48"/>
       <use x="63.623047" xlink:href="#DejaVuSans-46"/>
       <use x="95.410156" xlink:href="#DejaVuSans-50"/>
      </g>
     </g>
    </g>
    <g id="xtick_7">
     <g id="line2d_11">
      <g>
       <use style="stroke:#000000;stroke-width:1.6;" x="252.192" xlink:href="#m0f81c67f59" y="262.653333"/>
      </g>
     </g>
     <g id="text_13">
      <!-- 0.4 -->
      <g transform="translate(236.288875 292.550208)scale(0.2 -0.2)">
       <use xlink:href="#DejaVuSans-48"/>
       <use x="63.623047" xlink:href="#DejaVuSans-46"/>
       <use x="95.410156" xlink:href="#DejaVuSans-52"/>
      </g>
     </g>
    </g>
    <g id="xtick_8">
     <g id="line2d_12">
      <g>
       <use style="stroke:#000000;stroke-width:1.6;" x="321.299556" xlink:href="#m0f81c67f59" y="262.653333"/>
      </g>
     </g>
     <g id="text_14">
      <!-- 0.6 -->
      <g transform="translate(305.396431 292.550208)scale(0.2 -0.2)">
       <use xlink:href="#DejaVuSans-48"/>
       <use x="63.623047" xlink:href="#DejaVuSans-46"/>
       <use x="95.410156" xlink:href="#DejaVuSans-54"/>
      </g>
     </g>
    </g>
    <g id="text_15">
     <!-- Max JS Divergence within $\epsilon$ -->
     <defs>
      <path d="M 9.8125 72.90625 
L 24.515625 72.90625 
L 43.109375 23.296875 
L 61.8125 72.90625 
L 76.515625 72.90625 
L 76.515625 0 
L 66.890625 0 
L 66.890625 64.015625 
L 48.09375 14.015625 
L 38.1875 14.015625 
L 19.390625 64.015625 
L 19.390625 0 
L 9.8125 0 
z
" id="DejaVuSans-77"/>
      <path d="M 34.28125 27.484375 
Q 23.390625 27.484375 19.1875 25 
Q 14.984375 22.515625 14.984375 16.5 
Q 14.984375 11.71875 18.140625 8.90625 
Q 21.296875 6.109375 26.703125 6.109375 
Q 34.1875 6.109375 38.703125 11.40625 
Q 43.21875 16.703125 43.21875 25.484375 
L 43.21875 27.484375 
z
M 52.203125 31.203125 
L 52.203125 0 
L 43.21875 0 
L 43.21875 8.296875 
Q 40.140625 3.328125 35.546875 0.953125 
Q 30.953125 -1.421875 24.3125 -1.421875 
Q 15.921875 -1.421875 10.953125 3.296875 
Q 6 8.015625 6 15.921875 
Q 6 25.140625 12.171875 29.828125 
Q 18.359375 34.515625 30.609375 34.515625 
L 43.21875 34.515625 
L 43.21875 35.40625 
Q 43.21875 41.609375 39.140625 45 
Q 35.0625 48.390625 27.6875 48.390625 
Q 23 48.390625 18.546875 47.265625 
Q 14.109375 46.140625 10.015625 43.890625 
L 10.015625 52.203125 
Q 14.9375 54.109375 19.578125 55.046875 
Q 24.21875 56 28.609375 56 
Q 40.484375 56 46.34375 49.84375 
Q 52.203125 43.703125 52.203125 31.203125 
z
" id="DejaVuSans-97"/>
      <path d="M 54.890625 54.6875 
L 35.109375 28.078125 
L 55.90625 0 
L 45.3125 0 
L 29.390625 21.484375 
L 13.484375 0 
L 2.875 0 
L 24.125 28.609375 
L 4.6875 54.6875 
L 15.28125 54.6875 
L 29.78125 35.203125 
L 44.28125 54.6875 
z
" id="DejaVuSans-120"/>
      <path d="M 9.8125 72.90625 
L 19.671875 72.90625 
L 19.671875 5.078125 
Q 19.671875 -8.109375 14.671875 -14.0625 
Q 9.671875 -20.015625 -1.421875 -20.015625 
L -5.171875 -20.015625 
L -5.171875 -11.71875 
L -2.09375 -11.71875 
Q 4.4375 -11.71875 7.125 -8.046875 
Q 9.8125 -4.390625 9.8125 5.078125 
z
" id="DejaVuSans-74"/>
      <path d="M 53.515625 70.515625 
L 53.515625 60.890625 
Q 47.90625 63.578125 42.921875 64.890625 
Q 37.9375 66.21875 33.296875 66.21875 
Q 25.25 66.21875 20.875 63.09375 
Q 16.5 59.96875 16.5 54.203125 
Q 16.5 49.359375 19.40625 46.890625 
Q 22.3125 44.4375 30.421875 42.921875 
L 36.375 41.703125 
Q 47.40625 39.59375 52.65625 34.296875 
Q 57.90625 29 57.90625 20.125 
Q 57.90625 9.515625 50.796875 4.046875 
Q 43.703125 -1.421875 29.984375 -1.421875 
Q 24.8125 -1.421875 18.96875 -0.25 
Q 13.140625 0.921875 6.890625 3.21875 
L 6.890625 13.375 
Q 12.890625 10.015625 18.65625 8.296875 
Q 24.421875 6.59375 29.984375 6.59375 
Q 38.421875 6.59375 43.015625 9.90625 
Q 47.609375 13.234375 47.609375 19.390625 
Q 47.609375 24.75 44.3125 27.78125 
Q 41.015625 30.8125 33.5 32.328125 
L 27.484375 33.5 
Q 16.453125 35.6875 11.515625 40.375 
Q 6.59375 45.0625 6.59375 53.421875 
Q 6.59375 63.09375 13.40625 68.65625 
Q 20.21875 74.21875 32.171875 74.21875 
Q 37.3125 74.21875 42.625 73.28125 
Q 47.953125 72.359375 53.515625 70.515625 
z
" id="DejaVuSans-83"/>
      <path d="M 19.671875 64.796875 
L 19.671875 8.109375 
L 31.59375 8.109375 
Q 46.6875 8.109375 53.6875 14.9375 
Q 60.6875 21.78125 60.6875 36.53125 
Q 60.6875 51.171875 53.6875 57.984375 
Q 46.6875 64.796875 31.59375 64.796875 
z
M 9.8125 72.90625 
L 30.078125 72.90625 
Q 51.265625 72.90625 61.171875 64.09375 
Q 71.09375 55.28125 71.09375 36.53125 
Q 71.09375 17.671875 61.125 8.828125 
Q 51.171875 0 30.078125 0 
L 9.8125 0 
z
" id="DejaVuSans-68"/>
      <path d="M 9.421875 54.6875 
L 18.40625 54.6875 
L 18.40625 0 
L 9.421875 0 
z
M 9.421875 75.984375 
L 18.40625 75.984375 
L 18.40625 64.59375 
L 9.421875 64.59375 
z
" id="DejaVuSans-105"/>
      <path d="M 2.984375 54.6875 
L 12.5 54.6875 
L 29.59375 8.796875 
L 46.6875 54.6875 
L 56.203125 54.6875 
L 35.6875 0 
L 23.484375 0 
z
" id="DejaVuSans-118"/>
      <path d="M 56.203125 29.59375 
L 56.203125 25.203125 
L 14.890625 25.203125 
Q 15.484375 15.921875 20.484375 11.0625 
Q 25.484375 6.203125 34.421875 6.203125 
Q 39.59375 6.203125 44.453125 7.46875 
Q 49.3125 8.734375 54.109375 11.28125 
L 54.109375 2.78125 
Q 49.265625 0.734375 44.1875 -0.34375 
Q 39.109375 -1.421875 33.890625 -1.421875 
Q 20.796875 -1.421875 13.15625 6.1875 
Q 5.515625 13.8125 5.515625 26.8125 
Q 5.515625 40.234375 12.765625 48.109375 
Q 20.015625 56 32.328125 56 
Q 43.359375 56 49.78125 48.890625 
Q 56.203125 41.796875 56.203125 29.59375 
z
M 47.21875 32.234375 
Q 47.125 39.59375 43.09375 43.984375 
Q 39.0625 48.390625 32.421875 48.390625 
Q 24.90625 48.390625 20.390625 44.140625 
Q 15.875 39.890625 15.1875 32.171875 
z
" id="DejaVuSans-101"/>
      <path d="M 41.109375 46.296875 
Q 39.59375 47.171875 37.8125 47.578125 
Q 36.03125 48 33.890625 48 
Q 26.265625 48 22.1875 43.046875 
Q 18.109375 38.09375 18.109375 28.8125 
L 18.109375 0 
L 9.078125 0 
L 9.078125 54.6875 
L 18.109375 54.6875 
L 18.109375 46.1875 
Q 20.953125 51.171875 25.484375 53.578125 
Q 30.03125 56 36.53125 56 
Q 37.453125 56 38.578125 55.875 
Q 39.703125 55.765625 41.0625 55.515625 
z
" id="DejaVuSans-114"/>
      <path d="M 45.40625 27.984375 
Q 45.40625 37.75 41.375 43.109375 
Q 37.359375 48.484375 30.078125 48.484375 
Q 22.859375 48.484375 18.828125 43.109375 
Q 14.796875 37.75 14.796875 27.984375 
Q 14.796875 18.265625 18.828125 12.890625 
Q 22.859375 7.515625 30.078125 7.515625 
Q 37.359375 7.515625 41.375 12.890625 
Q 45.40625 18.265625 45.40625 27.984375 
z
M 54.390625 6.78125 
Q 54.390625 -7.171875 48.1875 -13.984375 
Q 42 -20.796875 29.203125 -20.796875 
Q 24.46875 -20.796875 20.265625 -20.09375 
Q 16.0625 -19.390625 12.109375 -17.921875 
L 12.109375 -9.1875 
Q 16.0625 -11.328125 19.921875 -12.34375 
Q 23.78125 -13.375 27.78125 -13.375 
Q 36.625 -13.375 41.015625 -8.765625 
Q 45.40625 -4.15625 45.40625 5.171875 
L 45.40625 9.625 
Q 42.625 4.78125 38.28125 2.390625 
Q 33.9375 0 27.875 0 
Q 17.828125 0 11.671875 7.65625 
Q 5.515625 15.328125 5.515625 27.984375 
Q 5.515625 40.671875 11.671875 48.328125 
Q 17.828125 56 27.875 56 
Q 33.9375 56 38.28125 53.609375 
Q 42.625 51.21875 45.40625 46.390625 
L 45.40625 54.6875 
L 54.390625 54.6875 
z
" id="DejaVuSans-103"/>
      <path d="M 54.890625 33.015625 
L 54.890625 0 
L 45.90625 0 
L 45.90625 32.71875 
Q 45.90625 40.484375 42.875 44.328125 
Q 39.84375 48.1875 33.796875 48.1875 
Q 26.515625 48.1875 22.3125 43.546875 
Q 18.109375 38.921875 18.109375 30.90625 
L 18.109375 0 
L 9.078125 0 
L 9.078125 54.6875 
L 18.109375 54.6875 
L 18.109375 46.1875 
Q 21.34375 51.125 25.703125 53.5625 
Q 30.078125 56 35.796875 56 
Q 45.21875 56 50.046875 50.171875 
Q 54.890625 44.34375 54.890625 33.015625 
z
" id="DejaVuSans-110"/>
      <path d="M 48.78125 52.59375 
L 48.78125 44.1875 
Q 44.96875 46.296875 41.140625 47.34375 
Q 37.3125 48.390625 33.40625 48.390625 
Q 24.65625 48.390625 19.8125 42.84375 
Q 14.984375 37.3125 14.984375 27.296875 
Q 14.984375 17.28125 19.8125 11.734375 
Q 24.65625 6.203125 33.40625 6.203125 
Q 37.3125 6.203125 41.140625 7.25 
Q 44.96875 8.296875 48.78125 10.40625 
L 48.78125 2.09375 
Q 45.015625 0.34375 40.984375 -0.53125 
Q 36.96875 -1.421875 32.421875 -1.421875 
Q 20.0625 -1.421875 12.78125 6.34375 
Q 5.515625 14.109375 5.515625 27.296875 
Q 5.515625 40.671875 12.859375 48.328125 
Q 20.21875 56 33.015625 56 
Q 37.15625 56 41.109375 55.140625 
Q 45.0625 54.296875 48.78125 52.59375 
z
" id="DejaVuSans-99"/>
      <path d="M 4.203125 54.6875 
L 13.1875 54.6875 
L 24.421875 12.015625 
L 35.59375 54.6875 
L 46.1875 54.6875 
L 57.421875 12.015625 
L 68.609375 54.6875 
L 77.59375 54.6875 
L 63.28125 0 
L 52.6875 0 
L 40.921875 44.828125 
L 29.109375 0 
L 18.5 0 
z
" id="DejaVuSans-119"/>
      <path d="M 18.3125 70.21875 
L 18.3125 54.6875 
L 36.8125 54.6875 
L 36.8125 47.703125 
L 18.3125 47.703125 
L 18.3125 18.015625 
Q 18.3125 11.328125 20.140625 9.421875 
Q 21.96875 7.515625 27.59375 7.515625 
L 36.8125 7.515625 
L 36.8125 0 
L 27.59375 0 
Q 17.1875 0 13.234375 3.875 
Q 9.28125 7.765625 9.28125 18.015625 
L 9.28125 47.703125 
L 2.6875 47.703125 
L 2.6875 54.6875 
L 9.28125 54.6875 
L 9.28125 70.21875 
z
" id="DejaVuSans-116"/>
      <path d="M 54.890625 33.015625 
L 54.890625 0 
L 45.90625 0 
L 45.90625 32.71875 
Q 45.90625 40.484375 42.875 44.328125 
Q 39.84375 48.1875 33.796875 48.1875 
Q 26.515625 48.1875 22.3125 43.546875 
Q 18.109375 38.921875 18.109375 30.90625 
L 18.109375 0 
L 9.078125 0 
L 9.078125 75.984375 
L 18.109375 75.984375 
L 18.109375 46.1875 
Q 21.34375 51.125 25.703125 53.5625 
Q 30.078125 56 35.796875 56 
Q 45.21875 56 50.046875 50.171875 
Q 54.890625 44.34375 54.890625 33.015625 
z
" id="DejaVuSans-104"/>
      <path d="M 19.734375 29.5 
Q 14.453125 30.671875 12.15625 33.84375 
Q 10.453125 36.078125 10.453125 39.109375 
Q 10.453125 47.40625 18.359375 52.25 
Q 24.609375 56.0625 34.1875 56.0625 
Q 37.890625 56.0625 41.9375 55.46875 
Q 46 54.890625 50.53125 53.71875 
L 48.96875 45.5625 
Q 44.484375 46.96875 40.71875 47.609375 
Q 36.859375 48.25 33.40625 48.25 
Q 27.59375 48.25 23.78125 46 
Q 19.1875 43.3125 19.1875 39.40625 
Q 19.1875 36.8125 21.578125 35.015625 
Q 24.421875 32.859375 30.078125 32.859375 
L 37.640625 32.859375 
L 36.234375 25.4375 
L 29 25.4375 
Q 22.265625 25.4375 18.3125 22.953125 
Q 12.9375 19.578125 12.9375 14.3125 
Q 12.9375 10.984375 15.828125 8.796875 
Q 19.4375 6.0625 26.8125 6.0625 
Q 31.34375 6.0625 35.6875 6.9375 
Q 40.046875 7.859375 43.84375 9.671875 
L 42.1875 1.3125 
Q 37.546875 -0.046875 33.296875 -0.734375 
Q 29.046875 -1.421875 25.140625 -1.421875 
Q 13.53125 -1.421875 8.0625 3.03125 
Q 3.90625 6.453125 3.90625 12.203125 
Q 3.90625 19.96875 9.375 24.75 
Q 13.421875 28.328125 19.734375 29.5 
z
" id="DejaVuSans-Oblique-949"/>
     </defs>
     <g transform="translate(90.676667 315.909583)scale(0.2 -0.2)">
      <use transform="translate(0 0.015625)" xlink:href="#DejaVuSans-77"/>
      <use transform="translate(86.279297 0.015625)" xlink:href="#DejaVuSans-97"/>
      <use transform="translate(147.558594 0.015625)" xlink:href="#DejaVuSans-120"/>
      <use transform="translate(206.738281 0.015625)" xlink:href="#DejaVuSans-32"/>
      <use transform="translate(238.525391 0.015625)" xlink:href="#DejaVuSans-74"/>
      <use transform="translate(268.017578 0.015625)" xlink:href="#DejaVuSans-83"/>
      <use transform="translate(331.494141 0.015625)" xlink:href="#DejaVuSans-32"/>
      <use transform="translate(363.28125 0.015625)" xlink:href="#DejaVuSans-68"/>
      <use transform="translate(440.283203 0.015625)" xlink:href="#DejaVuSans-105"/>
      <use transform="translate(468.066406 0.015625)" xlink:href="#DejaVuSans-118"/>
      <use transform="translate(527.246094 0.015625)" xlink:href="#DejaVuSans-101"/>
      <use transform="translate(588.769531 0.015625)" xlink:href="#DejaVuSans-114"/>
      <use transform="translate(629.882812 0.015625)" xlink:href="#DejaVuSans-103"/>
      <use transform="translate(693.359375 0.015625)" xlink:href="#DejaVuSans-101"/>
      <use transform="translate(754.882812 0.015625)" xlink:href="#DejaVuSans-110"/>
      <use transform="translate(818.261719 0.015625)" xlink:href="#DejaVuSans-99"/>
      <use transform="translate(873.242188 0.015625)" xlink:href="#DejaVuSans-101"/>
      <use transform="translate(934.765625 0.015625)" xlink:href="#DejaVuSans-32"/>
      <use transform="translate(966.552734 0.015625)" xlink:href="#DejaVuSans-119"/>
      <use transform="translate(1048.339844 0.015625)" xlink:href="#DejaVuSans-105"/>
      <use transform="translate(1076.123047 0.015625)" xlink:href="#DejaVuSans-116"/>
      <use transform="translate(1115.332031 0.015625)" xlink:href="#DejaVuSans-104"/>
      <use transform="translate(1178.710938 0.015625)" xlink:href="#DejaVuSans-105"/>
      <use transform="translate(1206.494141 0.015625)" xlink:href="#DejaVuSans-110"/>
      <use transform="translate(1269.873047 0.015625)" xlink:href="#DejaVuSans-32"/>
      <use transform="translate(1301.660156 0.015625)" xlink:href="#DejaVuSans-Oblique-949"/>
     </g>
    </g>
   </g>
   <g id="matplotlib.axis_4">
    <g id="ytick_5">
     <g id="line2d_13">
      <g>
       <use style="stroke:#000000;stroke-width:1.6;" x="96.7" xlink:href="#me05b2166e4" y="35.894167"/>
      </g>
     </g>
     <g id="text_16">
      <!-- [0.00, -->
      <defs>
       <path d="M 8.59375 75.984375 
L 29.296875 75.984375 
L 29.296875 69 
L 17.578125 69 
L 17.578125 -6.203125 
L 29.296875 -6.203125 
L 29.296875 -13.1875 
L 8.59375 -13.1875 
z
" id="DejaVuSans-91"/>
       <path d="M 11.71875 12.40625 
L 22.015625 12.40625 
L 22.015625 4 
L 14.015625 -11.625 
L 7.71875 -11.625 
L 11.71875 4 
z
" id="DejaVuSans-44"/>
      </defs>
      <g transform="translate(23.309375 32.294792)scale(0.2 -0.2)">
       <use xlink:href="#DejaVuSans-91"/>
       <use x="39.013672" xlink:href="#DejaVuSans-48"/>
       <use x="102.636719" xlink:href="#DejaVuSans-46"/>
       <use x="134.423828" xlink:href="#DejaVuSans-48"/>
       <use x="198.046875" xlink:href="#DejaVuSans-48"/>
       <use x="261.669922" xlink:href="#DejaVuSans-44"/>
      </g>
      <!-- 0.25) -->
      <defs>
       <path d="M 10.796875 72.90625 
L 49.515625 72.90625 
L 49.515625 64.59375 
L 19.828125 64.59375 
L 19.828125 46.734375 
Q 21.96875 47.46875 24.109375 47.828125 
Q 26.265625 48.1875 28.421875 48.1875 
Q 40.625 48.1875 47.75 41.5 
Q 54.890625 34.8125 54.890625 23.390625 
Q 54.890625 11.625 47.5625 5.09375 
Q 40.234375 -1.421875 26.90625 -1.421875 
Q 22.3125 -1.421875 17.546875 -0.640625 
Q 12.796875 0.140625 7.71875 1.703125 
L 7.71875 11.625 
Q 12.109375 9.234375 16.796875 8.0625 
Q 21.484375 6.890625 26.703125 6.890625 
Q 35.15625 6.890625 40.078125 11.328125 
Q 45.015625 15.765625 45.015625 23.390625 
Q 45.015625 31 40.078125 35.4375 
Q 35.15625 39.890625 26.703125 39.890625 
Q 22.75 39.890625 18.8125 39.015625 
Q 14.890625 38.140625 10.796875 36.28125 
z
" id="DejaVuSans-53"/>
       <path d="M 8.015625 75.875 
L 15.828125 75.875 
Q 23.140625 64.359375 26.78125 53.3125 
Q 30.421875 42.28125 30.421875 31.390625 
Q 30.421875 20.453125 26.78125 9.375 
Q 23.140625 -1.703125 15.828125 -13.1875 
L 8.015625 -13.1875 
Q 14.5 -2 17.703125 9.0625 
Q 20.90625 20.125 20.90625 31.390625 
Q 20.90625 42.671875 17.703125 53.65625 
Q 14.5 64.65625 8.015625 75.875 
z
" id="DejaVuSans-41"/>
      </defs>
      <g transform="translate(29.665625 54.690417)scale(0.2 -0.2)">
       <use xlink:href="#DejaVuSans-48"/>
       <use x="63.623047" xlink:href="#DejaVuSans-46"/>
       <use x="95.410156" xlink:href="#DejaVuSans-50"/>
       <use x="159.033203" xlink:href="#DejaVuSans-53"/>
       <use x="222.65625" xlink:href="#DejaVuSans-41"/>
      </g>
     </g>
    </g>
    <g id="ytick_6">
     <g id="line2d_14">
      <g>
       <use style="stroke:#000000;stroke-width:1.6;" x="96.7" xlink:href="#me05b2166e4" y="100.6825"/>
      </g>
     </g>
     <g id="text_17">
      <!-- [0.25, -->
      <g transform="translate(23.309375 97.083125)scale(0.2 -0.2)">
       <use xlink:href="#DejaVuSans-91"/>
       <use x="39.013672" xlink:href="#DejaVuSans-48"/>
       <use x="102.636719" xlink:href="#DejaVuSans-46"/>
       <use x="134.423828" xlink:href="#DejaVuSans-50"/>
       <use x="198.046875" xlink:href="#DejaVuSans-53"/>
       <use x="261.669922" xlink:href="#DejaVuSans-44"/>
      </g>
      <!-- 0.50) -->
      <g transform="translate(29.665625 119.47875)scale(0.2 -0.2)">
       <use xlink:href="#DejaVuSans-48"/>
       <use x="63.623047" xlink:href="#DejaVuSans-46"/>
       <use x="95.410156" xlink:href="#DejaVuSans-53"/>
       <use x="159.033203" xlink:href="#DejaVuSans-48"/>
       <use x="222.65625" xlink:href="#DejaVuSans-41"/>
      </g>
     </g>
    </g>
    <g id="ytick_7">
     <g id="line2d_15">
      <g>
       <use style="stroke:#000000;stroke-width:1.6;" x="96.7" xlink:href="#me05b2166e4" y="165.470833"/>
      </g>
     </g>
     <g id="text_18">
      <!-- [0.50, -->
      <g transform="translate(23.309375 161.871458)scale(0.2 -0.2)">
       <use xlink:href="#DejaVuSans-91"/>
       <use x="39.013672" xlink:href="#DejaVuSans-48"/>
       <use x="102.636719" xlink:href="#DejaVuSans-46"/>
       <use x="134.423828" xlink:href="#DejaVuSans-53"/>
       <use x="198.046875" xlink:href="#DejaVuSans-48"/>
       <use x="261.669922" xlink:href="#DejaVuSans-44"/>
      </g>
      <!-- 0.75) -->
      <defs>
       <path d="M 8.203125 72.90625 
L 55.078125 72.90625 
L 55.078125 68.703125 
L 28.609375 0 
L 18.3125 0 
L 43.21875 64.59375 
L 8.203125 64.59375 
z
" id="DejaVuSans-55"/>
      </defs>
      <g transform="translate(29.665625 184.267083)scale(0.2 -0.2)">
       <use xlink:href="#DejaVuSans-48"/>
       <use x="63.623047" xlink:href="#DejaVuSans-46"/>
       <use x="95.410156" xlink:href="#DejaVuSans-55"/>
       <use x="159.033203" xlink:href="#DejaVuSans-53"/>
       <use x="222.65625" xlink:href="#DejaVuSans-41"/>
      </g>
     </g>
    </g>
    <g id="ytick_8">
     <g id="line2d_16">
      <g>
       <use style="stroke:#000000;stroke-width:1.6;" x="96.7" xlink:href="#me05b2166e4" y="230.259167"/>
      </g>
     </g>
     <g id="text_19">
      <!-- [0.75, -->
      <g transform="translate(23.309375 226.659792)scale(0.2 -0.2)">
       <use xlink:href="#DejaVuSans-91"/>
       <use x="39.013672" xlink:href="#DejaVuSans-48"/>
       <use x="102.636719" xlink:href="#DejaVuSans-46"/>
       <use x="134.423828" xlink:href="#DejaVuSans-55"/>
       <use x="198.046875" xlink:href="#DejaVuSans-53"/>
       <use x="261.669922" xlink:href="#DejaVuSans-44"/>
      </g>
      <!-- 1.00) -->
      <g transform="translate(29.665625 249.055417)scale(0.2 -0.2)">
       <use xlink:href="#DejaVuSans-49"/>
       <use x="63.623047" xlink:href="#DejaVuSans-46"/>
       <use x="95.410156" xlink:href="#DejaVuSans-48"/>
       <use x="159.033203" xlink:href="#DejaVuSans-48"/>
       <use x="222.65625" xlink:href="#DejaVuSans-41"/>
      </g>
     </g>
    </g>
    <g id="text_20">
     <!-- Max Attention -->
     <defs>
      <path d="M 34.1875 63.1875 
L 20.796875 26.90625 
L 47.609375 26.90625 
z
M 28.609375 72.90625 
L 39.796875 72.90625 
L 67.578125 0 
L 57.328125 0 
L 50.6875 18.703125 
L 17.828125 18.703125 
L 11.1875 0 
L 0.78125 0 
z
" id="DejaVuSans-65"/>
      <path d="M 30.609375 48.390625 
Q 23.390625 48.390625 19.1875 42.75 
Q 14.984375 37.109375 14.984375 27.296875 
Q 14.984375 17.484375 19.15625 11.84375 
Q 23.34375 6.203125 30.609375 6.203125 
Q 37.796875 6.203125 41.984375 11.859375 
Q 46.1875 17.53125 46.1875 27.296875 
Q 46.1875 37.015625 41.984375 42.703125 
Q 37.796875 48.390625 30.609375 48.390625 
z
M 30.609375 56 
Q 42.328125 56 49.015625 48.375 
Q 55.71875 40.765625 55.71875 27.296875 
Q 55.71875 13.875 49.015625 6.21875 
Q 42.328125 -1.421875 30.609375 -1.421875 
Q 18.84375 -1.421875 12.171875 6.21875 
Q 5.515625 13.875 5.515625 27.296875 
Q 5.515625 40.765625 12.171875 48.375 
Q 18.84375 56 30.609375 56 
z
" id="DejaVuSans-111"/>
     </defs>
     <g transform="translate(15.15 203.254792)rotate(-90)scale(0.2 -0.2)">
      <use xlink:href="#DejaVuSans-77"/>
      <use x="86.279297" xlink:href="#DejaVuSans-97"/>
      <use x="147.558594" xlink:href="#DejaVuSans-120"/>
      <use x="206.738281" xlink:href="#DejaVuSans-32"/>
      <use x="238.525391" xlink:href="#DejaVuSans-65"/>
      <use x="306.917969" xlink:href="#DejaVuSans-116"/>
      <use x="346.126953" xlink:href="#DejaVuSans-116"/>
      <use x="385.335938" xlink:href="#DejaVuSans-101"/>
      <use x="446.859375" xlink:href="#DejaVuSans-110"/>
      <use x="510.238281" xlink:href="#DejaVuSans-116"/>
      <use x="549.447266" xlink:href="#DejaVuSans-105"/>
      <use x="577.230469" xlink:href="#DejaVuSans-111"/>
      <use x="638.412109" xlink:href="#DejaVuSans-110"/>
     </g>
    </g>
   </g>
   <g id="line2d_17">
    <path clip-path="url(#p4820d83c96)" d="M 322.938741 17.599629 
L 322.938741 28.273371 
" style="fill:none;stroke:#333333;stroke-dasharray:1.5,1.5;stroke-dashoffset:0;"/>
   </g>
   <g id="line2d_18">
    <path clip-path="url(#p4820d83c96)" d="M 330.543162 10.475448 
L 330.543162 35.397552 
" style="fill:none;stroke:#333333;stroke-dasharray:3,3;stroke-dashoffset:0;"/>
   </g>
   <g id="line2d_19">
    <path clip-path="url(#p4820d83c96)" d="M 334.332016 10.600373 
L 334.332016 35.272627 
" style="fill:none;stroke:#333333;stroke-dasharray:1.5,1.5;stroke-dashoffset:0;"/>
   </g>
   <g id="line2d_20">
    <path clip-path="url(#p4820d83c96)" d="M 319.996672 43.458995 
L 319.996672 54.244671 
" style="fill:none;stroke:#333333;stroke-dasharray:1.5,1.5;stroke-dashoffset:0;"/>
   </g>
   <g id="line2d_21">
    <path clip-path="url(#p4820d83c96)" d="M 327.393118 36.328345 
L 327.393118 61.375321 
" style="fill:none;stroke:#333333;stroke-dasharray:3,3;stroke-dashoffset:0;"/>
   </g>
   <g id="line2d_22">
    <path clip-path="url(#p4820d83c96)" d="M 331.116216 36.56718 
L 331.116216 61.136486 
" style="fill:none;stroke:#333333;stroke-dasharray:1.5,1.5;stroke-dashoffset:0;"/>
   </g>
   <g id="patch_88">
    <path d="M 96.7 262.653333 
L 96.7 3.5 
" style="fill:none;stroke:#000000;stroke-linecap:square;stroke-linejoin:miter;stroke-width:0.8;"/>
   </g>
   <g id="patch_89">
    <path d="M 96.7 262.653333 
L 355.853333 262.653333 
" style="fill:none;stroke:#000000;stroke-linecap:square;stroke-linejoin:miter;stroke-width:0.8;"/>
   </g>
  </g>
 </g>
 <defs>
  <clipPath id="pd33e7550ed">
   <rect height="259.153333" width="259.153333" x="-273.813333" y="3.5"/>
  </clipPath>
  <clipPath id="p4820d83c96">
   <rect height="259.153333" width="259.153333" x="96.7" y="3.5"/>
  </clipPath>
 </defs>
</svg>
