<?xml version="1.0" encoding="utf-8" standalone="no"?>
<!DOCTYPE svg PUBLIC "-//W3C//DTD SVG 1.1//EN"
  "http://www.w3.org/Graphics/SVG/1.1/DTD/svg11.dtd">
<!-- Created with matplotlib (https://matplotlib.org/) -->
<svg height="319.061667pt" version="1.1" viewBox="0 0 360.351536 319.061667" width="360.351536pt" xmlns="http://www.w3.org/2000/svg" xmlns:xlink="http://www.w3.org/1999/xlink">
 <defs>
  <style type="text/css">
*{stroke-linecap:butt;stroke-linejoin:round;}
  </style>
 </defs>
 <g id="figure_1">
  <g id="patch_1">
   <path d="M 0 319.061667 
L 360.351536 319.061667 
L 360.351536 0 
L 0 0 
z
" style="fill:#ffffff;"/>
  </g>
  <g id="axes_1">
   <g id="patch_2">
    <path d="M -269.521667 258.361667 
L -14.66 258.361667 
L -14.66 3.5 
L -269.521667 3.5 
z
" style="fill:#ffffff;"/>
   </g>
   <g id="patch_3">
    <path clip-path="url(#p0901cecc63)" d="M -257.937045 258.361667 
L -252.144735 258.361667 
L -252.144735 258.361667 
L -257.937045 258.361667 
z
" style="fill:#7570b3;opacity:0.6;stroke:#000000;stroke-linejoin:miter;stroke-width:0.5;"/>
   </g>
   <g id="patch_4">
    <path clip-path="url(#p0901cecc63)" d="M -252.144735 258.361667 
L -246.352424 258.361667 
L -246.352424 258.361667 
L -252.144735 258.361667 
z
" style="fill:#7570b3;opacity:0.6;stroke:#000000;stroke-linejoin:miter;stroke-width:0.5;"/>
   </g>
   <g id="patch_5">
    <path clip-path="url(#p0901cecc63)" d="M -246.352424 258.361667 
L -240.560114 258.361667 
L -240.560114 258.361667 
L -246.352424 258.361667 
z
" style="fill:#7570b3;opacity:0.6;stroke:#000000;stroke-linejoin:miter;stroke-width:0.5;"/>
   </g>
   <g id="patch_6">
    <path clip-path="url(#p0901cecc63)" d="M -240.560114 258.361667 
L -234.767803 258.361667 
L -234.767803 258.361667 
L -240.560114 258.361667 
z
" style="fill:#7570b3;opacity:0.6;stroke:#000000;stroke-linejoin:miter;stroke-width:0.5;"/>
   </g>
   <g id="patch_7">
    <path clip-path="url(#p0901cecc63)" d="M -234.767803 258.361667 
L -228.975492 258.361667 
L -228.975492 258.361667 
L -234.767803 258.361667 
z
" style="fill:#7570b3;opacity:0.6;stroke:#000000;stroke-linejoin:miter;stroke-width:0.5;"/>
   </g>
   <g id="patch_8">
    <path clip-path="url(#p0901cecc63)" d="M -228.975492 258.361667 
L -223.183182 258.361667 
L -223.183182 258.361667 
L -228.975492 258.361667 
z
" style="fill:#7570b3;opacity:0.6;stroke:#000000;stroke-linejoin:miter;stroke-width:0.5;"/>
   </g>
   <g id="patch_9">
    <path clip-path="url(#p0901cecc63)" d="M -223.183182 258.361667 
L -217.390871 258.361667 
L -217.390871 258.361667 
L -223.183182 258.361667 
z
" style="fill:#7570b3;opacity:0.6;stroke:#000000;stroke-linejoin:miter;stroke-width:0.5;"/>
   </g>
   <g id="patch_10">
    <path clip-path="url(#p0901cecc63)" d="M -217.390871 258.361667 
L -211.598561 258.361667 
L -211.598561 258.361667 
L -217.390871 258.361667 
z
" style="fill:#7570b3;opacity:0.6;stroke:#000000;stroke-linejoin:miter;stroke-width:0.5;"/>
   </g>
   <g id="patch_11">
    <path clip-path="url(#p0901cecc63)" d="M -211.598561 258.361667 
L -205.80625 258.361667 
L -205.80625 258.361667 
L -211.598561 258.361667 
z
" style="fill:#7570b3;opacity:0.6;stroke:#000000;stroke-linejoin:miter;stroke-width:0.5;"/>
   </g>
   <g id="patch_12">
    <path clip-path="url(#p0901cecc63)" d="M -205.80625 258.361667 
L -200.013939 258.361667 
L -200.013939 258.361667 
L -205.80625 258.361667 
z
" style="fill:#7570b3;opacity:0.6;stroke:#000000;stroke-linejoin:miter;stroke-width:0.5;"/>
   </g>
   <g id="patch_13">
    <path clip-path="url(#p0901cecc63)" d="M -200.013939 258.361667 
L -194.221629 258.361667 
L -194.221629 258.361667 
L -200.013939 258.361667 
z
" style="fill:#7570b3;opacity:0.6;stroke:#000000;stroke-linejoin:miter;stroke-width:0.5;"/>
   </g>
   <g id="patch_14">
    <path clip-path="url(#p0901cecc63)" d="M -194.221629 258.361667 
L -188.429318 258.361667 
L -188.429318 258.361667 
L -194.221629 258.361667 
z
" style="fill:#7570b3;opacity:0.6;stroke:#000000;stroke-linejoin:miter;stroke-width:0.5;"/>
   </g>
   <g id="patch_15">
    <path clip-path="url(#p0901cecc63)" d="M -188.429318 258.361667 
L -182.637008 258.361667 
L -182.637008 258.361667 
L -188.429318 258.361667 
z
" style="fill:#7570b3;opacity:0.6;stroke:#000000;stroke-linejoin:miter;stroke-width:0.5;"/>
   </g>
   <g id="patch_16">
    <path clip-path="url(#p0901cecc63)" d="M -182.637008 258.361667 
L -176.844697 258.361667 
L -176.844697 258.361667 
L -182.637008 258.361667 
z
" style="fill:#7570b3;opacity:0.6;stroke:#000000;stroke-linejoin:miter;stroke-width:0.5;"/>
   </g>
   <g id="patch_17">
    <path clip-path="url(#p0901cecc63)" d="M -176.844697 258.361667 
L -171.052386 258.361667 
L -171.052386 258.361667 
L -176.844697 258.361667 
z
" style="fill:#7570b3;opacity:0.6;stroke:#000000;stroke-linejoin:miter;stroke-width:0.5;"/>
   </g>
   <g id="patch_18">
    <path clip-path="url(#p0901cecc63)" d="M -171.052386 258.361667 
L -165.260076 258.361667 
L -165.260076 258.361667 
L -171.052386 258.361667 
z
" style="fill:#7570b3;opacity:0.6;stroke:#000000;stroke-linejoin:miter;stroke-width:0.5;"/>
   </g>
   <g id="patch_19">
    <path clip-path="url(#p0901cecc63)" d="M -165.260076 258.361667 
L -159.467765 258.361667 
L -159.467765 257.702156 
L -165.260076 257.702156 
z
" style="fill:#7570b3;opacity:0.6;stroke:#000000;stroke-linejoin:miter;stroke-width:0.5;"/>
   </g>
   <g id="patch_20">
    <path clip-path="url(#p0901cecc63)" d="M -159.467765 258.361667 
L -153.675455 258.361667 
L -153.675455 258.361667 
L -159.467765 258.361667 
z
" style="fill:#7570b3;opacity:0.6;stroke:#000000;stroke-linejoin:miter;stroke-width:0.5;"/>
   </g>
   <g id="patch_21">
    <path clip-path="url(#p0901cecc63)" d="M -153.675455 258.361667 
L -147.883144 258.361667 
L -147.883144 258.361667 
L -153.675455 258.361667 
z
" style="fill:#7570b3;opacity:0.6;stroke:#000000;stroke-linejoin:miter;stroke-width:0.5;"/>
   </g>
   <g id="patch_22">
    <path clip-path="url(#p0901cecc63)" d="M -147.883144 258.361667 
L -142.090833 258.361667 
L -142.090833 257.702156 
L -147.883144 257.702156 
z
" style="fill:#7570b3;opacity:0.6;stroke:#000000;stroke-linejoin:miter;stroke-width:0.5;"/>
   </g>
   <g id="patch_23">
    <path clip-path="url(#p0901cecc63)" d="M -142.090833 258.361667 
L -136.298523 258.361667 
L -136.298523 257.042646 
L -142.090833 257.042646 
z
" style="fill:#7570b3;opacity:0.6;stroke:#000000;stroke-linejoin:miter;stroke-width:0.5;"/>
   </g>
   <g id="patch_24">
    <path clip-path="url(#p0901cecc63)" d="M -136.298523 258.361667 
L -130.506212 258.361667 
L -130.506212 251.766564 
L -136.298523 251.766564 
z
" style="fill:#7570b3;opacity:0.6;stroke:#000000;stroke-linejoin:miter;stroke-width:0.5;"/>
   </g>
   <g id="patch_25">
    <path clip-path="url(#p0901cecc63)" d="M -130.506212 258.361667 
L -124.713902 258.361667 
L -124.713902 252.426074 
L -130.506212 252.426074 
z
" style="fill:#7570b3;opacity:0.6;stroke:#000000;stroke-linejoin:miter;stroke-width:0.5;"/>
   </g>
   <g id="patch_26">
    <path clip-path="url(#p0901cecc63)" d="M -124.713902 258.361667 
L -118.921591 258.361667 
L -118.921591 247.809502 
L -124.713902 247.809502 
z
" style="fill:#7570b3;opacity:0.6;stroke:#000000;stroke-linejoin:miter;stroke-width:0.5;"/>
   </g>
   <g id="patch_27">
    <path clip-path="url(#p0901cecc63)" d="M -118.921591 258.361667 
L -113.12928 258.361667 
L -113.12928 241.87391 
L -118.921591 241.87391 
z
" style="fill:#7570b3;opacity:0.6;stroke:#000000;stroke-linejoin:miter;stroke-width:0.5;"/>
   </g>
   <g id="patch_28">
    <path clip-path="url(#p0901cecc63)" d="M -113.12928 258.361667 
L -107.33697 258.361667 
L -107.33697 237.257338 
L -113.12928 237.257338 
z
" style="fill:#7570b3;opacity:0.6;stroke:#000000;stroke-linejoin:miter;stroke-width:0.5;"/>
   </g>
   <g id="patch_29">
    <path clip-path="url(#p0901cecc63)" d="M -107.33697 258.361667 
L -101.544659 258.361667 
L -101.544659 222.748111 
L -107.33697 222.748111 
z
" style="fill:#7570b3;opacity:0.6;stroke:#000000;stroke-linejoin:miter;stroke-width:0.5;"/>
   </g>
   <g id="patch_30">
    <path clip-path="url(#p0901cecc63)" d="M -101.544659 258.361667 
L -95.752348 258.361667 
L -95.752348 202.303292 
L -101.544659 202.303292 
z
" style="fill:#7570b3;opacity:0.6;stroke:#000000;stroke-linejoin:miter;stroke-width:0.5;"/>
   </g>
   <g id="patch_31">
    <path clip-path="url(#p0901cecc63)" d="M -95.752348 258.361667 
L -89.960038 258.361667 
L -89.960038 187.794066 
L -95.752348 187.794066 
z
" style="fill:#7570b3;opacity:0.6;stroke:#000000;stroke-linejoin:miter;stroke-width:0.5;"/>
   </g>
   <g id="patch_32">
    <path clip-path="url(#p0901cecc63)" d="M -89.960038 258.361667 
L -84.167727 258.361667 
L -84.167727 181.198963 
L -89.960038 181.198963 
z
" style="fill:#7570b3;opacity:0.6;stroke:#000000;stroke-linejoin:miter;stroke-width:0.5;"/>
   </g>
   <g id="patch_33">
    <path clip-path="url(#p0901cecc63)" d="M -84.167727 258.361667 
L -78.375417 258.361667 
L -78.375417 165.370717 
L -84.167727 165.370717 
z
" style="fill:#7570b3;opacity:0.6;stroke:#000000;stroke-linejoin:miter;stroke-width:0.5;"/>
   </g>
   <g id="patch_34">
    <path clip-path="url(#p0901cecc63)" d="M -78.375417 258.361667 
L -72.583106 258.361667 
L -72.583106 148.882959 
L -78.375417 148.882959 
z
" style="fill:#7570b3;opacity:0.6;stroke:#000000;stroke-linejoin:miter;stroke-width:0.5;"/>
   </g>
   <g id="patch_35">
    <path clip-path="url(#p0901cecc63)" d="M -72.583106 258.361667 
L -66.790795 258.361667 
L -66.790795 145.585408 
L -72.583106 145.585408 
z
" style="fill:#7570b3;opacity:0.6;stroke:#000000;stroke-linejoin:miter;stroke-width:0.5;"/>
   </g>
   <g id="patch_36">
    <path clip-path="url(#p0901cecc63)" d="M -66.790795 258.361667 
L -60.998485 258.361667 
L -60.998485 157.456593 
L -66.790795 157.456593 
z
" style="fill:#7570b3;opacity:0.6;stroke:#000000;stroke-linejoin:miter;stroke-width:0.5;"/>
   </g>
   <g id="patch_37">
    <path clip-path="url(#p0901cecc63)" d="M -60.998485 258.361667 
L -55.206174 258.361667 
L -55.206174 134.373733 
L -60.998485 134.373733 
z
" style="fill:#7570b3;opacity:0.6;stroke:#000000;stroke-linejoin:miter;stroke-width:0.5;"/>
   </g>
   <g id="patch_38">
    <path clip-path="url(#p0901cecc63)" d="M -55.206174 258.361667 
L -49.413864 258.361667 
L -49.413864 138.330795 
L -55.206174 138.330795 
z
" style="fill:#7570b3;opacity:0.6;stroke:#000000;stroke-linejoin:miter;stroke-width:0.5;"/>
   </g>
   <g id="patch_39">
    <path clip-path="url(#p0901cecc63)" d="M -49.413864 258.361667 
L -43.621553 258.361667 
L -43.621553 137.011774 
L -49.413864 137.011774 
z
" style="fill:#7570b3;opacity:0.6;stroke:#000000;stroke-linejoin:miter;stroke-width:0.5;"/>
   </g>
   <g id="patch_40">
    <path clip-path="url(#p0901cecc63)" d="M -43.621553 258.361667 
L -37.829242 258.361667 
L -37.829242 166.689737 
L -43.621553 166.689737 
z
" style="fill:#7570b3;opacity:0.6;stroke:#000000;stroke-linejoin:miter;stroke-width:0.5;"/>
   </g>
   <g id="patch_41">
    <path clip-path="url(#p0901cecc63)" d="M -37.829242 258.361667 
L -32.036932 258.361667 
L -32.036932 154.159042 
L -37.829242 154.159042 
z
" style="fill:#7570b3;opacity:0.6;stroke:#000000;stroke-linejoin:miter;stroke-width:0.5;"/>
   </g>
   <g id="patch_42">
    <path clip-path="url(#p0901cecc63)" d="M -32.036932 258.361667 
L -26.244621 258.361667 
L -26.244621 256.383136 
L -32.036932 256.383136 
z
" style="fill:#7570b3;opacity:0.6;stroke:#000000;stroke-linejoin:miter;stroke-width:0.5;"/>
   </g>
   <g id="patch_43">
    <path clip-path="url(#p0901cecc63)" d="M -257.937045 258.361667 
L -252.144735 258.361667 
L -252.144735 258.361667 
L -257.937045 258.361667 
z
" style="fill:#d95f02;opacity:0.6;stroke:#000000;stroke-linejoin:miter;stroke-width:0.5;"/>
   </g>
   <g id="patch_44">
    <path clip-path="url(#p0901cecc63)" d="M -252.144735 258.361667 
L -246.352424 258.361667 
L -246.352424 258.361667 
L -252.144735 258.361667 
z
" style="fill:#d95f02;opacity:0.6;stroke:#000000;stroke-linejoin:miter;stroke-width:0.5;"/>
   </g>
   <g id="patch_45">
    <path clip-path="url(#p0901cecc63)" d="M -246.352424 258.361667 
L -240.560114 258.361667 
L -240.560114 258.361667 
L -246.352424 258.361667 
z
" style="fill:#d95f02;opacity:0.6;stroke:#000000;stroke-linejoin:miter;stroke-width:0.5;"/>
   </g>
   <g id="patch_46">
    <path clip-path="url(#p0901cecc63)" d="M -240.560114 258.361667 
L -234.767803 258.361667 
L -234.767803 258.361667 
L -240.560114 258.361667 
z
" style="fill:#d95f02;opacity:0.6;stroke:#000000;stroke-linejoin:miter;stroke-width:0.5;"/>
   </g>
   <g id="patch_47">
    <path clip-path="url(#p0901cecc63)" d="M -234.767803 258.361667 
L -228.975492 258.361667 
L -228.975492 258.361667 
L -234.767803 258.361667 
z
" style="fill:#d95f02;opacity:0.6;stroke:#000000;stroke-linejoin:miter;stroke-width:0.5;"/>
   </g>
   <g id="patch_48">
    <path clip-path="url(#p0901cecc63)" d="M -228.975492 258.361667 
L -223.183182 258.361667 
L -223.183182 258.361667 
L -228.975492 258.361667 
z
" style="fill:#d95f02;opacity:0.6;stroke:#000000;stroke-linejoin:miter;stroke-width:0.5;"/>
   </g>
   <g id="patch_49">
    <path clip-path="url(#p0901cecc63)" d="M -223.183182 258.361667 
L -217.390871 258.361667 
L -217.390871 258.361667 
L -223.183182 258.361667 
z
" style="fill:#d95f02;opacity:0.6;stroke:#000000;stroke-linejoin:miter;stroke-width:0.5;"/>
   </g>
   <g id="patch_50">
    <path clip-path="url(#p0901cecc63)" d="M -217.390871 258.361667 
L -211.598561 258.361667 
L -211.598561 258.361667 
L -217.390871 258.361667 
z
" style="fill:#d95f02;opacity:0.6;stroke:#000000;stroke-linejoin:miter;stroke-width:0.5;"/>
   </g>
   <g id="patch_51">
    <path clip-path="url(#p0901cecc63)" d="M -211.598561 258.361667 
L -205.80625 258.361667 
L -205.80625 258.361667 
L -211.598561 258.361667 
z
" style="fill:#d95f02;opacity:0.6;stroke:#000000;stroke-linejoin:miter;stroke-width:0.5;"/>
   </g>
   <g id="patch_52">
    <path clip-path="url(#p0901cecc63)" d="M -205.80625 258.361667 
L -200.013939 258.361667 
L -200.013939 258.361667 
L -205.80625 258.361667 
z
" style="fill:#d95f02;opacity:0.6;stroke:#000000;stroke-linejoin:miter;stroke-width:0.5;"/>
   </g>
   <g id="patch_53">
    <path clip-path="url(#p0901cecc63)" d="M -200.013939 258.361667 
L -194.221629 258.361667 
L -194.221629 258.361667 
L -200.013939 258.361667 
z
" style="fill:#d95f02;opacity:0.6;stroke:#000000;stroke-linejoin:miter;stroke-width:0.5;"/>
   </g>
   <g id="patch_54">
    <path clip-path="url(#p0901cecc63)" d="M -194.221629 258.361667 
L -188.429318 258.361667 
L -188.429318 258.361667 
L -194.221629 258.361667 
z
" style="fill:#d95f02;opacity:0.6;stroke:#000000;stroke-linejoin:miter;stroke-width:0.5;"/>
   </g>
   <g id="patch_55">
    <path clip-path="url(#p0901cecc63)" d="M -188.429318 258.361667 
L -182.637008 258.361667 
L -182.637008 258.361667 
L -188.429318 258.361667 
z
" style="fill:#d95f02;opacity:0.6;stroke:#000000;stroke-linejoin:miter;stroke-width:0.5;"/>
   </g>
   <g id="patch_56">
    <path clip-path="url(#p0901cecc63)" d="M -182.637008 258.361667 
L -176.844697 258.361667 
L -176.844697 258.361667 
L -182.637008 258.361667 
z
" style="fill:#d95f02;opacity:0.6;stroke:#000000;stroke-linejoin:miter;stroke-width:0.5;"/>
   </g>
   <g id="patch_57">
    <path clip-path="url(#p0901cecc63)" d="M -176.844697 258.361667 
L -171.052386 258.361667 
L -171.052386 258.361667 
L -176.844697 258.361667 
z
" style="fill:#d95f02;opacity:0.6;stroke:#000000;stroke-linejoin:miter;stroke-width:0.5;"/>
   </g>
   <g id="patch_58">
    <path clip-path="url(#p0901cecc63)" d="M -171.052386 258.361667 
L -165.260076 258.361667 
L -165.260076 258.361667 
L -171.052386 258.361667 
z
" style="fill:#d95f02;opacity:0.6;stroke:#000000;stroke-linejoin:miter;stroke-width:0.5;"/>
   </g>
   <g id="patch_59">
    <path clip-path="url(#p0901cecc63)" d="M -165.260076 258.361667 
L -159.467765 258.361667 
L -159.467765 258.361667 
L -165.260076 258.361667 
z
" style="fill:#d95f02;opacity:0.6;stroke:#000000;stroke-linejoin:miter;stroke-width:0.5;"/>
   </g>
   <g id="patch_60">
    <path clip-path="url(#p0901cecc63)" d="M -159.467765 258.361667 
L -153.675455 258.361667 
L -153.675455 258.361667 
L -159.467765 258.361667 
z
" style="fill:#d95f02;opacity:0.6;stroke:#000000;stroke-linejoin:miter;stroke-width:0.5;"/>
   </g>
   <g id="patch_61">
    <path clip-path="url(#p0901cecc63)" d="M -153.675455 258.361667 
L -147.883144 258.361667 
L -147.883144 258.361667 
L -153.675455 258.361667 
z
" style="fill:#d95f02;opacity:0.6;stroke:#000000;stroke-linejoin:miter;stroke-width:0.5;"/>
   </g>
   <g id="patch_62">
    <path clip-path="url(#p0901cecc63)" d="M -147.883144 258.361667 
L -142.090833 258.361667 
L -142.090833 257.670141 
L -147.883144 257.670141 
z
" style="fill:#d95f02;opacity:0.6;stroke:#000000;stroke-linejoin:miter;stroke-width:0.5;"/>
   </g>
   <g id="patch_63">
    <path clip-path="url(#p0901cecc63)" d="M -142.090833 258.361667 
L -136.298523 258.361667 
L -136.298523 257.670141 
L -142.090833 257.670141 
z
" style="fill:#d95f02;opacity:0.6;stroke:#000000;stroke-linejoin:miter;stroke-width:0.5;"/>
   </g>
   <g id="patch_64">
    <path clip-path="url(#p0901cecc63)" d="M -136.298523 258.361667 
L -130.506212 258.361667 
L -130.506212 256.978616 
L -136.298523 256.978616 
z
" style="fill:#d95f02;opacity:0.6;stroke:#000000;stroke-linejoin:miter;stroke-width:0.5;"/>
   </g>
   <g id="patch_65">
    <path clip-path="url(#p0901cecc63)" d="M -130.506212 258.361667 
L -124.713902 258.361667 
L -124.713902 255.595565 
L -130.506212 255.595565 
z
" style="fill:#d95f02;opacity:0.6;stroke:#000000;stroke-linejoin:miter;stroke-width:0.5;"/>
   </g>
   <g id="patch_66">
    <path clip-path="url(#p0901cecc63)" d="M -124.713902 258.361667 
L -118.921591 258.361667 
L -118.921591 256.287091 
L -124.713902 256.287091 
z
" style="fill:#d95f02;opacity:0.6;stroke:#000000;stroke-linejoin:miter;stroke-width:0.5;"/>
   </g>
   <g id="patch_67">
    <path clip-path="url(#p0901cecc63)" d="M -118.921591 258.361667 
L -113.12928 258.361667 
L -113.12928 250.754888 
L -118.921591 250.754888 
z
" style="fill:#d95f02;opacity:0.6;stroke:#000000;stroke-linejoin:miter;stroke-width:0.5;"/>
   </g>
   <g id="patch_68">
    <path clip-path="url(#p0901cecc63)" d="M -113.12928 258.361667 
L -107.33697 258.361667 
L -107.33697 240.382008 
L -113.12928 240.382008 
z
" style="fill:#d95f02;opacity:0.6;stroke:#000000;stroke-linejoin:miter;stroke-width:0.5;"/>
   </g>
   <g id="patch_69">
    <path clip-path="url(#p0901cecc63)" d="M -107.33697 258.361667 
L -101.544659 258.361667 
L -101.544659 234.849805 
L -107.33697 234.849805 
z
" style="fill:#d95f02;opacity:0.6;stroke:#000000;stroke-linejoin:miter;stroke-width:0.5;"/>
   </g>
   <g id="patch_70">
    <path clip-path="url(#p0901cecc63)" d="M -101.544659 258.361667 
L -95.752348 258.361667 
L -95.752348 222.402349 
L -101.544659 222.402349 
z
" style="fill:#d95f02;opacity:0.6;stroke:#000000;stroke-linejoin:miter;stroke-width:0.5;"/>
   </g>
   <g id="patch_71">
    <path clip-path="url(#p0901cecc63)" d="M -95.752348 258.361667 
L -89.960038 258.361667 
L -89.960038 213.412519 
L -95.752348 213.412519 
z
" style="fill:#d95f02;opacity:0.6;stroke:#000000;stroke-linejoin:miter;stroke-width:0.5;"/>
   </g>
   <g id="patch_72">
    <path clip-path="url(#p0901cecc63)" d="M -89.960038 258.361667 
L -84.167727 258.361667 
L -84.167727 192.666759 
L -89.960038 192.666759 
z
" style="fill:#d95f02;opacity:0.6;stroke:#000000;stroke-linejoin:miter;stroke-width:0.5;"/>
   </g>
   <g id="patch_73">
    <path clip-path="url(#p0901cecc63)" d="M -84.167727 258.361667 
L -78.375417 258.361667 
L -78.375417 171.920998 
L -84.167727 171.920998 
z
" style="fill:#d95f02;opacity:0.6;stroke:#000000;stroke-linejoin:miter;stroke-width:0.5;"/>
   </g>
   <g id="patch_74">
    <path clip-path="url(#p0901cecc63)" d="M -78.375417 258.361667 
L -72.583106 258.361667 
L -72.583106 176.761676 
L -78.375417 176.761676 
z
" style="fill:#d95f02;opacity:0.6;stroke:#000000;stroke-linejoin:miter;stroke-width:0.5;"/>
   </g>
   <g id="patch_75">
    <path clip-path="url(#p0901cecc63)" d="M -72.583106 258.361667 
L -66.790795 258.361667 
L -66.790795 163.622694 
L -72.583106 163.622694 
z
" style="fill:#d95f02;opacity:0.6;stroke:#000000;stroke-linejoin:miter;stroke-width:0.5;"/>
   </g>
   <g id="patch_76">
    <path clip-path="url(#p0901cecc63)" d="M -66.790795 258.361667 
L -60.998485 258.361667 
L -60.998485 147.026086 
L -66.790795 147.026086 
z
" style="fill:#d95f02;opacity:0.6;stroke:#000000;stroke-linejoin:miter;stroke-width:0.5;"/>
   </g>
   <g id="patch_77">
    <path clip-path="url(#p0901cecc63)" d="M -60.998485 258.361667 
L -55.206174 258.361667 
L -55.206174 185.05998 
L -60.998485 185.05998 
z
" style="fill:#d95f02;opacity:0.6;stroke:#000000;stroke-linejoin:miter;stroke-width:0.5;"/>
   </g>
   <g id="patch_78">
    <path clip-path="url(#p0901cecc63)" d="M -55.206174 258.361667 
L -49.413864 258.361667 
L -49.413864 174.6871 
L -55.206174 174.6871 
z
" style="fill:#d95f02;opacity:0.6;stroke:#000000;stroke-linejoin:miter;stroke-width:0.5;"/>
   </g>
   <g id="patch_79">
    <path clip-path="url(#p0901cecc63)" d="M -49.413864 258.361667 
L -43.621553 258.361667 
L -43.621553 159.473542 
L -49.413864 159.473542 
z
" style="fill:#d95f02;opacity:0.6;stroke:#000000;stroke-linejoin:miter;stroke-width:0.5;"/>
   </g>
   <g id="patch_80">
    <path clip-path="url(#p0901cecc63)" d="M -43.621553 258.361667 
L -37.829242 258.361667 
L -37.829242 54.361689 
L -43.621553 54.361689 
z
" style="fill:#d95f02;opacity:0.6;stroke:#000000;stroke-linejoin:miter;stroke-width:0.5;"/>
   </g>
   <g id="patch_81">
    <path clip-path="url(#p0901cecc63)" d="M -37.829242 258.361667 
L -32.036932 258.361667 
L -32.036932 15.63627 
L -37.829242 15.63627 
z
" style="fill:#d95f02;opacity:0.6;stroke:#000000;stroke-linejoin:miter;stroke-width:0.5;"/>
   </g>
   <g id="patch_82">
    <path clip-path="url(#p0901cecc63)" d="M -32.036932 258.361667 
L -26.244621 258.361667 
L -26.244621 256.287091 
L -32.036932 256.287091 
z
" style="fill:#d95f02;opacity:0.6;stroke:#000000;stroke-linejoin:miter;stroke-width:0.5;"/>
   </g>
   <g id="matplotlib.axis_1">
    <g id="xtick_1">
     <g id="line2d_1">
      <defs>
       <path d="M 0 0 
L 0 3.5 
" id="m6903ad1912" style="stroke:#000000;stroke-width:1.6;"/>
      </defs>
      <g/>
     </g>
     <g id="text_1">
      <!-- 0.0 -->
      <defs>
       <path d="M 31.78125 66.40625 
Q 24.171875 66.40625 20.328125 58.90625 
Q 16.5 51.421875 16.5 36.375 
Q 16.5 21.390625 20.328125 13.890625 
Q 24.171875 6.390625 31.78125 6.390625 
Q 39.453125 6.390625 43.28125 13.890625 
Q 47.125 21.390625 47.125 36.375 
Q 47.125 51.421875 43.28125 58.90625 
Q 39.453125 66.40625 31.78125 66.40625 
z
M 31.78125 74.21875 
Q 44.046875 74.21875 50.515625 64.515625 
Q 56.984375 54.828125 56.984375 36.375 
Q 56.984375 17.96875 50.515625 8.265625 
Q 44.046875 -1.421875 31.78125 -1.421875 
Q 19.53125 -1.421875 13.0625 8.265625 
Q 6.59375 17.96875 6.59375 36.375 
Q 6.59375 54.828125 13.0625 64.515625 
Q 19.53125 74.21875 31.78125 74.21875 
z
" id="DejaVuSans-48"/>
       <path d="M 10.6875 12.40625 
L 21 12.40625 
L 21 0 
L 10.6875 0 
z
" id="DejaVuSans-46"/>
      </defs>
      <g transform="translate(-273.84017 288.258542)scale(0.2 -0.2)">
       <use xlink:href="#DejaVuSans-48"/>
       <use x="63.623047" xlink:href="#DejaVuSans-46"/>
       <use x="95.410156" xlink:href="#DejaVuSans-48"/>
      </g>
     </g>
    </g>
    <g id="xtick_2">
     <g id="line2d_2">
      <g/>
     </g>
     <g id="text_2">
      <!-- 0.2 -->
      <defs>
       <path d="M 19.1875 8.296875 
L 53.609375 8.296875 
L 53.609375 0 
L 7.328125 0 
L 7.328125 8.296875 
Q 12.9375 14.109375 22.625 23.890625 
Q 32.328125 33.6875 34.8125 36.53125 
Q 39.546875 41.84375 41.421875 45.53125 
Q 43.3125 49.21875 43.3125 52.78125 
Q 43.3125 58.59375 39.234375 62.25 
Q 35.15625 65.921875 28.609375 65.921875 
Q 23.96875 65.921875 18.8125 64.3125 
Q 13.671875 62.703125 7.8125 59.421875 
L 7.8125 69.390625 
Q 13.765625 71.78125 18.9375 73 
Q 24.125 74.21875 28.421875 74.21875 
Q 39.75 74.21875 46.484375 68.546875 
Q 53.21875 62.890625 53.21875 53.421875 
Q 53.21875 48.921875 51.53125 44.890625 
Q 49.859375 40.875 45.40625 35.40625 
Q 44.1875 33.984375 37.640625 27.21875 
Q 31.109375 20.453125 19.1875 8.296875 
z
" id="DejaVuSans-50"/>
      </defs>
      <g transform="translate(-207.642335 288.258542)scale(0.2 -0.2)">
       <use xlink:href="#DejaVuSans-48"/>
       <use x="63.623047" xlink:href="#DejaVuSans-46"/>
       <use x="95.410156" xlink:href="#DejaVuSans-50"/>
      </g>
     </g>
    </g>
    <g id="xtick_3">
     <g id="line2d_3">
      <g/>
     </g>
     <g id="text_3">
      <!-- 0.4 -->
      <defs>
       <path d="M 37.796875 64.3125 
L 12.890625 25.390625 
L 37.796875 25.390625 
z
M 35.203125 72.90625 
L 47.609375 72.90625 
L 47.609375 25.390625 
L 58.015625 25.390625 
L 58.015625 17.1875 
L 47.609375 17.1875 
L 47.609375 0 
L 37.796875 0 
L 37.796875 17.1875 
L 4.890625 17.1875 
L 4.890625 26.703125 
z
" id="DejaVuSans-52"/>
      </defs>
      <g transform="translate(-141.444499 288.258542)scale(0.2 -0.2)">
       <use xlink:href="#DejaVuSans-48"/>
       <use x="63.623047" xlink:href="#DejaVuSans-46"/>
       <use x="95.410156" xlink:href="#DejaVuSans-52"/>
      </g>
     </g>
    </g>
    <g id="xtick_4">
     <g id="line2d_4">
      <g/>
     </g>
     <g id="text_4">
      <!-- 0.6 -->
      <defs>
       <path d="M 33.015625 40.375 
Q 26.375 40.375 22.484375 35.828125 
Q 18.609375 31.296875 18.609375 23.390625 
Q 18.609375 15.53125 22.484375 10.953125 
Q 26.375 6.390625 33.015625 6.390625 
Q 39.65625 6.390625 43.53125 10.953125 
Q 47.40625 15.53125 47.40625 23.390625 
Q 47.40625 31.296875 43.53125 35.828125 
Q 39.65625 40.375 33.015625 40.375 
z
M 52.59375 71.296875 
L 52.59375 62.3125 
Q 48.875 64.0625 45.09375 64.984375 
Q 41.3125 65.921875 37.59375 65.921875 
Q 27.828125 65.921875 22.671875 59.328125 
Q 17.53125 52.734375 16.796875 39.40625 
Q 19.671875 43.65625 24.015625 45.921875 
Q 28.375 48.1875 33.59375 48.1875 
Q 44.578125 48.1875 50.953125 41.515625 
Q 57.328125 34.859375 57.328125 23.390625 
Q 57.328125 12.15625 50.6875 5.359375 
Q 44.046875 -1.421875 33.015625 -1.421875 
Q 20.359375 -1.421875 13.671875 8.265625 
Q 6.984375 17.96875 6.984375 36.375 
Q 6.984375 53.65625 15.1875 63.9375 
Q 23.390625 74.21875 37.203125 74.21875 
Q 40.921875 74.21875 44.703125 73.484375 
Q 48.484375 72.75 52.59375 71.296875 
z
" id="DejaVuSans-54"/>
      </defs>
      <g transform="translate(-75.246664 288.258542)scale(0.2 -0.2)">
       <use xlink:href="#DejaVuSans-48"/>
       <use x="63.623047" xlink:href="#DejaVuSans-46"/>
       <use x="95.410156" xlink:href="#DejaVuSans-54"/>
      </g>
     </g>
    </g>
    <g id="text_5">
     <!--   -->
     <defs>
      <path id="DejaVuSans-32"/>
     </defs>
     <g transform="translate(-145.268958 311.614792)scale(0.2 -0.2)">
      <use xlink:href="#DejaVuSans-32"/>
     </g>
    </g>
   </g>
   <g id="matplotlib.axis_2">
    <g id="ytick_1">
     <g id="line2d_5">
      <defs>
       <path d="M 0 0 
L -3.5 0 
" id="mb9de95fcef" style="stroke:#000000;stroke-width:1.6;"/>
      </defs>
      <g/>
     </g>
     <g id="text_6">
      <!-- 0.00 -->
      <g transform="translate(-328.752917 265.960104)scale(0.2 -0.2)">
       <use xlink:href="#DejaVuSans-48"/>
       <use x="63.623047" xlink:href="#DejaVuSans-46"/>
       <use x="95.410156" xlink:href="#DejaVuSans-48"/>
       <use x="159.033203" xlink:href="#DejaVuSans-48"/>
      </g>
     </g>
    </g>
    <g id="ytick_2">
     <g id="line2d_6">
      <g/>
     </g>
     <g id="text_7">
      <!-- 0.05 -->
      <defs>
       <path d="M 10.796875 72.90625 
L 49.515625 72.90625 
L 49.515625 64.59375 
L 19.828125 64.59375 
L 19.828125 46.734375 
Q 21.96875 47.46875 24.109375 47.828125 
Q 26.265625 48.1875 28.421875 48.1875 
Q 40.625 48.1875 47.75 41.5 
Q 54.890625 34.8125 54.890625 23.390625 
Q 54.890625 11.625 47.5625 5.09375 
Q 40.234375 -1.421875 26.90625 -1.421875 
Q 22.3125 -1.421875 17.546875 -0.640625 
Q 12.796875 0.140625 7.71875 1.703125 
L 7.71875 11.625 
Q 12.109375 9.234375 16.796875 8.0625 
Q 21.484375 6.890625 26.703125 6.890625 
Q 35.15625 6.890625 40.078125 11.328125 
Q 45.015625 15.765625 45.015625 23.390625 
Q 45.015625 31 40.078125 35.4375 
Q 35.15625 39.890625 26.703125 39.890625 
Q 22.75 39.890625 18.8125 39.015625 
Q 14.890625 38.140625 10.796875 36.28125 
z
" id="DejaVuSans-53"/>
      </defs>
      <g transform="translate(-328.752917 201.855704)scale(0.2 -0.2)">
       <use xlink:href="#DejaVuSans-48"/>
       <use x="63.623047" xlink:href="#DejaVuSans-46"/>
       <use x="95.410156" xlink:href="#DejaVuSans-48"/>
       <use x="159.033203" xlink:href="#DejaVuSans-53"/>
      </g>
     </g>
    </g>
    <g id="ytick_3">
     <g id="line2d_7">
      <g/>
     </g>
     <g id="text_8">
      <!-- 0.10 -->
      <defs>
       <path d="M 12.40625 8.296875 
L 28.515625 8.296875 
L 28.515625 63.921875 
L 10.984375 60.40625 
L 10.984375 69.390625 
L 28.421875 72.90625 
L 38.28125 72.90625 
L 38.28125 8.296875 
L 54.390625 8.296875 
L 54.390625 0 
L 12.40625 0 
z
" id="DejaVuSans-49"/>
      </defs>
      <g transform="translate(-328.752917 137.751305)scale(0.2 -0.2)">
       <use xlink:href="#DejaVuSans-48"/>
       <use x="63.623047" xlink:href="#DejaVuSans-46"/>
       <use x="95.410156" xlink:href="#DejaVuSans-49"/>
       <use x="159.033203" xlink:href="#DejaVuSans-48"/>
      </g>
     </g>
    </g>
    <g id="ytick_4">
     <g id="line2d_8">
      <g/>
     </g>
     <g id="text_9">
      <!-- 0.15 -->
      <g transform="translate(-328.752917 73.646905)scale(0.2 -0.2)">
       <use xlink:href="#DejaVuSans-48"/>
       <use x="63.623047" xlink:href="#DejaVuSans-46"/>
       <use x="95.410156" xlink:href="#DejaVuSans-49"/>
       <use x="159.033203" xlink:href="#DejaVuSans-53"/>
      </g>
     </g>
    </g>
    <g id="text_10">
     <!--   -->
     <g transform="translate(-336.413167 133.727583)rotate(-90)scale(0.176 -0.176)">
      <use xlink:href="#DejaVuSans-32"/>
     </g>
    </g>
   </g>
   <g id="patch_83">
    <path style="fill:none;stroke:#000000;stroke-linecap:square;stroke-linejoin:miter;stroke-width:0.8;"/>
   </g>
   <g id="patch_84">
    <path style="fill:none;stroke:#000000;stroke-linecap:square;stroke-linejoin:miter;stroke-width:0.8;"/>
   </g>
  </g>
  <g id="axes_2">
   <g id="patch_85">
    <path d="M 96.7 258.361667 
L 351.561667 258.361667 
L 351.561667 3.5 
L 96.7 3.5 
z
" style="fill:#ffffff;"/>
   </g>
   <g id="PolyCollection_1">
    <defs>
     <path d="M 236.594727 -296.263856 
L 236.594727 -296.630228 
L 237.702779 -296.6627 
L 238.81083 -296.695875 
L 239.918882 -296.728893 
L 241.026934 -296.761053 
L 242.134986 -296.791923 
L 243.243037 -296.821429 
L 244.351089 -296.849888 
L 245.459141 -296.877987 
L 246.567193 -296.906705 
L 247.675244 -296.937202 
L 248.783296 -296.970698 
L 249.891348 -297.008363 
L 250.9994 -297.051228 
L 252.107451 -297.100141 
L 253.215503 -297.155746 
L 254.323555 -297.21849 
L 255.431606 -297.288633 
L 256.539658 -297.366275 
L 257.64771 -297.451377 
L 258.755762 -297.543796 
L 259.863813 -297.643337 
L 260.971865 -297.749823 
L 262.079917 -297.863176 
L 263.187969 -297.983492 
L 264.29602 -298.111096 
L 265.404072 -298.246546 
L 266.512124 -298.390576 
L 267.620176 -298.543979 
L 268.728227 -298.707445 
L 269.836279 -298.881373 
L 270.944331 -299.0657 
L 272.052383 -299.259752 
L 273.160434 -299.462149 
L 274.268486 -299.670764 
L 275.376538 -299.882741 
L 276.48459 -300.09458 
L 277.592641 -300.302307 
L 278.700693 -300.501746 
L 279.808745 -300.688906 
L 280.916797 -300.860473 
L 282.024848 -301.014348 
L 283.1329 -301.150149 
L 284.240952 -301.269558 
L 285.349004 -301.376373 
L 286.457055 -301.476211 
L 287.565107 -301.575815 
L 288.673159 -301.682054 
L 289.781211 -301.800776 
L 290.889262 -301.935723 
L 291.997314 -302.087747 
L 293.105366 -302.254489 
L 294.213418 -302.430628 
L 295.321469 -302.608631 
L 296.429521 -302.779881 
L 297.537573 -302.935935 
L 298.645625 -303.069672 
L 299.753676 -303.176138 
L 300.861728 -303.252984 
L 301.96978 -303.300483 
L 303.077831 -303.321244 
L 304.185883 -303.319735 
L 305.293935 -303.301751 
L 306.401987 -303.273911 
L 307.510038 -303.243184 
L 308.61809 -303.216427 
L 309.726142 -303.199907 
L 310.834194 -303.198778 
L 311.942245 -303.216595 
L 313.050297 -303.254921 
L 314.158349 -303.313164 
L 315.266401 -303.388682 
L 316.374452 -303.477172 
L 317.482504 -303.573257 
L 318.590556 -303.671141 
L 319.698608 -303.765187 
L 320.806659 -303.850325 
L 321.914711 -303.922254 
L 323.022763 -303.977482 
L 324.130815 -304.013291 
L 325.238866 -304.027705 
L 326.346918 -304.01951 
L 327.45497 -303.988299 
L 328.563022 -303.934466 
L 329.671073 -303.859064 
L 330.779125 -303.763456 
L 331.887177 -303.648761 
L 332.995229 -303.515191 
L 334.10328 -303.361418 
L 335.211332 -303.184186 
L 336.319384 -302.978349 
L 337.427436 -302.737442 
L 338.535487 -302.454775 
L 339.643539 -302.124901 
L 340.751591 -301.745188 
L 341.859643 -301.317136 
L 342.967694 -300.84713 
L 344.075746 -300.346383 
L 345.183798 -299.830034 
L 346.291849 -299.315527 
L 346.291849 -293.578556 
L 346.291849 -293.578556 
L 345.183798 -293.064049 
L 344.075746 -292.5477 
L 342.967694 -292.046954 
L 341.859643 -291.576948 
L 340.751591 -291.148896 
L 339.643539 -290.769182 
L 338.535487 -290.439308 
L 337.427436 -290.156641 
L 336.319384 -289.915734 
L 335.211332 -289.709898 
L 334.10328 -289.532665 
L 332.995229 -289.378892 
L 331.887177 -289.245322 
L 330.779125 -289.130628 
L 329.671073 -289.035019 
L 328.563022 -288.959617 
L 327.45497 -288.905784 
L 326.346918 -288.874574 
L 325.238866 -288.866379 
L 324.130815 -288.880792 
L 323.022763 -288.916601 
L 321.914711 -288.97183 
L 320.806659 -289.043759 
L 319.698608 -289.128897 
L 318.590556 -289.222942 
L 317.482504 -289.320826 
L 316.374452 -289.416911 
L 315.266401 -289.505402 
L 314.158349 -289.58092 
L 313.050297 -289.639163 
L 311.942245 -289.677489 
L 310.834194 -289.695305 
L 309.726142 -289.694176 
L 308.61809 -289.677656 
L 307.510038 -289.6509 
L 306.401987 -289.620172 
L 305.293935 -289.592332 
L 304.185883 -289.574349 
L 303.077831 -289.572839 
L 301.96978 -289.5936 
L 300.861728 -289.641099 
L 299.753676 -289.717945 
L 298.645625 -289.824412 
L 297.537573 -289.958148 
L 296.429521 -290.114202 
L 295.321469 -290.285452 
L 294.213418 -290.463455 
L 293.105366 -290.639594 
L 291.997314 -290.806337 
L 290.889262 -290.95836 
L 289.781211 -291.093308 
L 288.673159 -291.212029 
L 287.565107 -291.318269 
L 286.457055 -291.417872 
L 285.349004 -291.517711 
L 284.240952 -291.624526 
L 283.1329 -291.743934 
L 282.024848 -291.879736 
L 280.916797 -292.03361 
L 279.808745 -292.205177 
L 278.700693 -292.392337 
L 277.592641 -292.591776 
L 276.48459 -292.799503 
L 275.376538 -293.011342 
L 274.268486 -293.223319 
L 273.160434 -293.431935 
L 272.052383 -293.634331 
L 270.944331 -293.828383 
L 269.836279 -294.01271 
L 268.728227 -294.186639 
L 267.620176 -294.350104 
L 266.512124 -294.503507 
L 265.404072 -294.647537 
L 264.29602 -294.782987 
L 263.187969 -294.910591 
L 262.079917 -295.030907 
L 260.971865 -295.14426 
L 259.863813 -295.250746 
L 258.755762 -295.350287 
L 257.64771 -295.442706 
L 256.539658 -295.527808 
L 255.431606 -295.60545 
L 254.323555 -295.675594 
L 253.215503 -295.738337 
L 252.107451 -295.793942 
L 250.9994 -295.842855 
L 249.891348 -295.88572 
L 248.783296 -295.923385 
L 247.675244 -295.956882 
L 246.567193 -295.987379 
L 245.459141 -296.016096 
L 244.351089 -296.044195 
L 243.243037 -296.072655 
L 242.134986 -296.10216 
L 241.026934 -296.13303 
L 239.918882 -296.16519 
L 238.81083 -296.198209 
L 237.702779 -296.231383 
L 236.594727 -296.263856 
z
" id="m643d2687db" style="stroke:#424242;"/>
    </defs>
    <g clip-path="url(#p3d36e70bed)">
     <use style="fill:#7c78ab;stroke:#424242;" x="0" xlink:href="#m643d2687db" y="319.061667"/>
    </g>
   </g>
   <g id="PolyCollection_2">
    <defs>
     <path d="M 233.510379 -270.925015 
L 233.510379 -270.996735 
L 234.649865 -271.000888 
L 235.789351 -271.005444 
L 236.928838 -271.010682 
L 238.068324 -271.01676 
L 239.207811 -271.023612 
L 240.347297 -271.030896 
L 241.486784 -271.03804 
L 242.62627 -271.044386 
L 243.765757 -271.049413 
L 244.905243 -271.052975 
L 246.04473 -271.055497 
L 247.184216 -271.058064 
L 248.323703 -271.062382 
L 249.463189 -271.070606 
L 250.602675 -271.085085 
L 251.742162 -271.108059 
L 252.881648 -271.141367 
L 254.021135 -271.186204 
L 255.160621 -271.242957 
L 256.300108 -271.311138 
L 257.439594 -271.389418 
L 258.579081 -271.475776 
L 259.718567 -271.567757 
L 260.858054 -271.662816 
L 261.99754 -271.758701 
L 263.137026 -271.85383 
L 264.276513 -271.947571 
L 265.415999 -272.040356 
L 266.555486 -272.133592 
L 267.694972 -272.229346 
L 268.834459 -272.329869 
L 269.973945 -272.437051 
L 271.113432 -272.551951 
L 272.252918 -272.674527 
L 273.392405 -272.803665 
L 274.531891 -272.937492 
L 275.671377 -273.07392 
L 276.810864 -273.211243 
L 277.95035 -273.348648 
L 279.089837 -273.486475 
L 280.229323 -273.626157 
L 281.36881 -273.769853 
L 282.508296 -273.919849 
L 283.647783 -274.077852 
L 284.787269 -274.24436 
L 285.926756 -274.418235 
L 287.066242 -274.596599 
L 288.205728 -274.775119 
L 289.345215 -274.948624 
L 290.484701 -275.111971 
L 291.624188 -275.260958 
L 292.763674 -275.393097 
L 293.903161 -275.508102 
L 295.042647 -275.607976 
L 296.182134 -275.696727 
L 297.32162 -275.779774 
L 298.461107 -275.863168 
L 299.600593 -275.95273 
L 300.740079 -276.053228 
L 301.879566 -276.167669 
L 303.019052 -276.296771 
L 304.158539 -276.438657 
L 305.298025 -276.588809 
L 306.437512 -276.740279 
L 307.576998 -276.884188 
L 308.716485 -277.010511 
L 309.855971 -277.109156 
L 310.995458 -277.171312 
L 312.134944 -277.19092 
L 313.274431 -277.166019 
L 314.413917 -277.099667 
L 315.553403 -277.000095 
L 316.69289 -276.879976 
L 317.832376 -276.754896 
L 318.971863 -276.641407 
L 320.111349 -276.555186 
L 321.250836 -276.509838 
L 322.390322 -276.516604 
L 323.529809 -276.584953 
L 324.669295 -276.723666 
L 325.808782 -276.941805 
L 326.948268 -277.248965 
L 328.087754 -277.654376 
L 329.227241 -278.164708 
L 330.366727 -278.780849 
L 331.506214 -279.494174 
L 332.6457 -280.283131 
L 333.785187 -281.111018 
L 334.924673 -281.925832 
L 336.06416 -282.662849 
L 337.203646 -283.250207 
L 338.343133 -283.617153 
L 339.482619 -283.703958 
L 340.622105 -283.471804 
L 341.761592 -282.910609 
L 342.901078 -282.042844 
L 344.040565 -280.922078 
L 345.180051 -279.62615 
L 346.319538 -278.246192 
L 346.319538 -263.675558 
L 346.319538 -263.675558 
L 345.180051 -262.2956 
L 344.040565 -260.999672 
L 342.901078 -259.878906 
L 341.761592 -259.011141 
L 340.622105 -258.449946 
L 339.482619 -258.217792 
L 338.343133 -258.304597 
L 337.203646 -258.671543 
L 336.06416 -259.258901 
L 334.924673 -259.995918 
L 333.785187 -260.810732 
L 332.6457 -261.638619 
L 331.506214 -262.427576 
L 330.366727 -263.140901 
L 329.227241 -263.757042 
L 328.087754 -264.267374 
L 326.948268 -264.672785 
L 325.808782 -264.979945 
L 324.669295 -265.198084 
L 323.529809 -265.336797 
L 322.390322 -265.405146 
L 321.250836 -265.411912 
L 320.111349 -265.366564 
L 318.971863 -265.280343 
L 317.832376 -265.166854 
L 316.69289 -265.041774 
L 315.553403 -264.921655 
L 314.413917 -264.822083 
L 313.274431 -264.755731 
L 312.134944 -264.73083 
L 310.995458 -264.750438 
L 309.855971 -264.812594 
L 308.716485 -264.911239 
L 307.576998 -265.037562 
L 306.437512 -265.181471 
L 305.298025 -265.332941 
L 304.158539 -265.483093 
L 303.019052 -265.624979 
L 301.879566 -265.754081 
L 300.740079 -265.868522 
L 299.600593 -265.96902 
L 298.461107 -266.058582 
L 297.32162 -266.141976 
L 296.182134 -266.225023 
L 295.042647 -266.313774 
L 293.903161 -266.413648 
L 292.763674 -266.528653 
L 291.624188 -266.660792 
L 290.484701 -266.809779 
L 289.345215 -266.973126 
L 288.205728 -267.146631 
L 287.066242 -267.325151 
L 285.926756 -267.503515 
L 284.787269 -267.67739 
L 283.647783 -267.843898 
L 282.508296 -268.001901 
L 281.36881 -268.151897 
L 280.229323 -268.295593 
L 279.089837 -268.435275 
L 277.95035 -268.573102 
L 276.810864 -268.710507 
L 275.671377 -268.84783 
L 274.531891 -268.984258 
L 273.392405 -269.118085 
L 272.252918 -269.247223 
L 271.113432 -269.369799 
L 269.973945 -269.484699 
L 268.834459 -269.591881 
L 267.694972 -269.692404 
L 266.555486 -269.788158 
L 265.415999 -269.881394 
L 264.276513 -269.974179 
L 263.137026 -270.06792 
L 261.99754 -270.163049 
L 260.858054 -270.258934 
L 259.718567 -270.353993 
L 258.579081 -270.445974 
L 257.439594 -270.532332 
L 256.300108 -270.610612 
L 255.160621 -270.678793 
L 254.021135 -270.735546 
L 252.881648 -270.780383 
L 251.742162 -270.813691 
L 250.602675 -270.836665 
L 249.463189 -270.851144 
L 248.323703 -270.859368 
L 247.184216 -270.863686 
L 246.04473 -270.866253 
L 244.905243 -270.868775 
L 243.765757 -270.872337 
L 242.62627 -270.877364 
L 241.486784 -270.88371 
L 240.347297 -270.890854 
L 239.207811 -270.898138 
L 238.068324 -270.90499 
L 236.928838 -270.911068 
L 235.789351 -270.916306 
L 234.649865 -270.920862 
L 233.510379 -270.925015 
z
" id="mfba0eefb60" style="stroke:#424242;"/>
    </defs>
    <g clip-path="url(#p3d36e70bed)">
     <use style="fill:#be631d;stroke:#424242;" x="0" xlink:href="#mfba0eefb60" y="319.061667"/>
    </g>
   </g>
   <g id="PolyCollection_3">
    <defs>
     <path d="M 213.194091 -232.679622 
L 213.194091 -232.783628 
L 214.524621 -232.783322 
L 215.855151 -232.781128 
L 217.18568 -232.777765 
L 218.51621 -232.774211 
L 219.84674 -232.771519 
L 221.177269 -232.770624 
L 222.507799 -232.772198 
L 223.838329 -232.776584 
L 225.168858 -232.783813 
L 226.499388 -232.793715 
L 227.829918 -232.806057 
L 229.160447 -232.820701 
L 230.490977 -232.837703 
L 231.821507 -232.857349 
L 233.152036 -232.880126 
L 234.482566 -232.906641 
L 235.813096 -232.937552 
L 237.143625 -232.973511 
L 238.474155 -233.015145 
L 239.804685 -233.063021 
L 241.135214 -233.117572 
L 242.465744 -233.178946 
L 243.796274 -233.246824 
L 245.126803 -233.320271 
L 246.457333 -233.397731 
L 247.787863 -233.477209 
L 249.118392 -233.556629 
L 250.448922 -233.634276 
L 251.779452 -233.709158 
L 253.109982 -233.781196 
L 254.440511 -233.851191 
L 255.771041 -233.92065 
L 257.101571 -233.991598 
L 258.4321 -234.066487 
L 259.76263 -234.148228 
L 261.09316 -234.240256 
L 262.423689 -234.3465 
L 263.754219 -234.471123 
L 265.084749 -234.618009 
L 266.415278 -234.790103 
L 267.745808 -234.988784 
L 269.076338 -235.213462 
L 270.406867 -235.461538 
L 271.737397 -235.728737 
L 273.067927 -236.009722 
L 274.398456 -236.298851 
L 275.728986 -236.590893 
L 277.059516 -236.881606 
L 278.390045 -237.168061 
L 279.720575 -237.448716 
L 281.051105 -237.72325 
L 282.381634 -237.992239 
L 283.712164 -238.256769 
L 285.042694 -238.518107 
L 286.373223 -238.7775 
L 287.703753 -239.036126 
L 289.034283 -239.295162 
L 290.364813 -239.555857 
L 291.695342 -239.819508 
L 293.025872 -240.087248 
L 294.356402 -240.359637 
L 295.686931 -240.636142 
L 297.017461 -240.91465 
L 298.347991 -241.191202 
L 299.67852 -241.460101 
L 301.00905 -241.714468 
L 302.33958 -241.947222 
L 303.670109 -242.152323 
L 305.000639 -242.326008 
L 306.331169 -242.467713 
L 307.661698 -242.580412 
L 308.992228 -242.670204 
L 310.322758 -242.745217 
L 311.653287 -242.814055 
L 312.983817 -242.884174 
L 314.314347 -242.960552 
L 315.644876 -243.044928 
L 316.975406 -243.135664 
L 318.305936 -243.228124 
L 319.636465 -243.315353 
L 320.966995 -243.388843 
L 322.297525 -243.439302 
L 323.628054 -243.457447 
L 324.958584 -243.434935 
L 326.289114 -243.365441 
L 327.619644 -243.245779 
L 328.950173 -243.076668 
L 330.280703 -242.862678 
L 331.611233 -242.610954 
L 332.941762 -242.328705 
L 334.272292 -242.019962 
L 335.602822 -241.682681 
L 336.933351 -241.307433 
L 338.263881 -240.878675 
L 339.594411 -240.378784 
L 340.92494 -239.793982 
L 342.25547 -239.120411 
L 343.586 -238.36829 
L 344.916529 -237.562581 
L 344.916529 -227.900669 
L 344.916529 -227.900669 
L 343.586 -227.09496 
L 342.25547 -226.342839 
L 340.92494 -225.669268 
L 339.594411 -225.084466 
L 338.263881 -224.584575 
L 336.933351 -224.155817 
L 335.602822 -223.780569 
L 334.272292 -223.443288 
L 332.941762 -223.134545 
L 331.611233 -222.852296 
L 330.280703 -222.600572 
L 328.950173 -222.386582 
L 327.619644 -222.217471 
L 326.289114 -222.097809 
L 324.958584 -222.028315 
L 323.628054 -222.005803 
L 322.297525 -222.023948 
L 320.966995 -222.074407 
L 319.636465 -222.147897 
L 318.305936 -222.235126 
L 316.975406 -222.327586 
L 315.644876 -222.418322 
L 314.314347 -222.502698 
L 312.983817 -222.579076 
L 311.653287 -222.649195 
L 310.322758 -222.718033 
L 308.992228 -222.793046 
L 307.661698 -222.882838 
L 306.331169 -222.995537 
L 305.000639 -223.137242 
L 303.670109 -223.310927 
L 302.33958 -223.516028 
L 301.00905 -223.748782 
L 299.67852 -224.003149 
L 298.347991 -224.272048 
L 297.017461 -224.5486 
L 295.686931 -224.827108 
L 294.356402 -225.103613 
L 293.025872 -225.376002 
L 291.695342 -225.643742 
L 290.364813 -225.907393 
L 289.034283 -226.168088 
L 287.703753 -226.427124 
L 286.373223 -226.68575 
L 285.042694 -226.945143 
L 283.712164 -227.206481 
L 282.381634 -227.471011 
L 281.051105 -227.74 
L 279.720575 -228.014534 
L 278.390045 -228.295189 
L 277.059516 -228.581644 
L 275.728986 -228.872357 
L 274.398456 -229.164399 
L 273.067927 -229.453528 
L 271.737397 -229.734513 
L 270.406867 -230.001712 
L 269.076338 -230.249788 
L 267.745808 -230.474466 
L 266.415278 -230.673147 
L 265.084749 -230.845241 
L 263.754219 -230.992127 
L 262.423689 -231.11675 
L 261.09316 -231.222994 
L 259.76263 -231.315022 
L 258.4321 -231.396763 
L 257.101571 -231.471652 
L 255.771041 -231.5426 
L 254.440511 -231.612059 
L 253.109982 -231.682054 
L 251.779452 -231.754092 
L 250.448922 -231.828974 
L 249.118392 -231.906621 
L 247.787863 -231.986041 
L 246.457333 -232.065519 
L 245.126803 -232.142979 
L 243.796274 -232.216426 
L 242.465744 -232.284304 
L 241.135214 -232.345678 
L 239.804685 -232.400229 
L 238.474155 -232.448105 
L 237.143625 -232.489739 
L 235.813096 -232.525698 
L 234.482566 -232.556609 
L 233.152036 -232.583124 
L 231.821507 -232.605901 
L 230.490977 -232.625547 
L 229.160447 -232.642549 
L 227.829918 -232.657193 
L 226.499388 -232.669535 
L 225.168858 -232.679437 
L 223.838329 -232.686666 
L 222.507799 -232.691052 
L 221.177269 -232.692626 
L 219.84674 -232.691731 
L 218.51621 -232.689039 
L 217.18568 -232.685485 
L 215.855151 -232.682122 
L 214.524621 -232.679928 
L 213.194091 -232.679622 
z
" id="m10e2fdbf13" style="stroke:#424242;"/>
    </defs>
    <g clip-path="url(#p3d36e70bed)">
     <use style="fill:#7c78ab;stroke:#424242;" x="0" xlink:href="#m10e2fdbf13" y="319.061667"/>
    </g>
   </g>
   <g id="PolyCollection_4">
    <defs>
     <path d="M 227.989976 -207.14896 
L 227.989976 -207.341957 
L 229.168317 -207.347333 
L 230.346658 -207.35264 
L 231.524999 -207.358719 
L 232.70334 -207.36652 
L 233.881681 -207.376948 
L 235.060022 -207.390695 
L 236.238363 -207.408091 
L 237.416704 -207.429019 
L 238.595045 -207.452888 
L 239.773386 -207.478706 
L 240.951727 -207.50523 
L 242.130068 -207.531171 
L 243.308409 -207.555419 
L 244.48675 -207.577256 
L 245.665091 -207.596505 
L 246.843432 -207.613597 
L 248.021773 -207.629551 
L 249.200114 -207.645875 
L 250.378455 -207.664411 
L 251.556796 -207.687164 
L 252.735137 -207.716142 
L 253.913478 -207.753236 
L 255.091819 -207.800137 
L 256.27016 -207.858307 
L 257.448501 -207.928963 
L 258.626842 -208.013074 
L 259.805183 -208.111346 
L 260.983524 -208.224181 
L 262.161865 -208.35162 
L 263.340206 -208.493285 
L 264.518547 -208.648329 
L 265.696888 -208.815442 
L 266.875229 -208.992907 
L 268.05357 -209.178721 
L 269.231911 -209.370784 
L 270.410252 -209.567116 
L 271.588593 -209.766093 
L 272.766934 -209.966664 
L 273.945275 -210.168538 
L 275.123616 -210.372305 
L 276.301957 -210.579494 
L 277.480298 -210.792546 
L 278.658639 -211.014671 
L 279.83698 -211.249593 
L 281.015321 -211.501143 
L 282.193662 -211.772741 
L 283.372003 -212.066779 
L 284.550344 -212.384013 
L 285.728685 -212.723044 
L 286.907026 -213.080027 
L 288.085367 -213.448698 
L 289.263708 -213.820771 
L 290.442049 -214.186697 
L 291.62039 -214.5367 
L 292.798731 -214.861921 
L 293.977072 -215.15549 
L 295.155413 -215.413317 
L 296.333754 -215.63445 
L 297.512095 -215.820899 
L 298.690436 -215.976957 
L 299.868777 -216.108108 
L 301.047118 -216.219738 
L 302.225459 -216.31588 
L 303.4038 -216.39824 
L 304.582141 -216.465704 
L 305.760482 -216.514421 
L 306.938823 -216.538464 
L 308.117164 -216.530956 
L 309.295505 -216.485465 
L 310.473846 -216.397437 
L 311.652187 -216.26546 
L 312.830528 -216.092158 
L 314.008869 -215.884619 
L 315.18721 -215.654321 
L 316.365551 -215.416586 
L 317.543892 -215.189639 
L 318.722233 -214.993396 
L 319.900574 -214.848103 
L 321.078915 -214.772924 
L 322.257256 -214.784578 
L 323.435597 -214.896057 
L 324.613938 -215.115438 
L 325.792279 -215.444787 
L 326.97062 -215.879163 
L 328.148961 -216.405773 
L 329.327302 -217.003414 
L 330.505643 -217.642399 
L 331.683984 -218.285206 
L 332.862325 -218.888073 
L 334.040666 -219.403665 
L 335.219007 -219.78474 
L 336.397348 -219.988542 
L 337.575689 -219.981412 
L 338.75403 -219.74294 
L 339.932371 -219.268958 
L 341.110712 -218.572795 
L 342.289053 -217.684435 
L 343.467394 -216.647616 
L 344.645735 -215.515251 
L 344.645735 -198.975665 
L 344.645735 -198.975665 
L 343.467394 -197.843301 
L 342.289053 -196.806482 
L 341.110712 -195.918121 
L 339.932371 -195.221958 
L 338.75403 -194.747977 
L 337.575689 -194.509505 
L 336.397348 -194.502375 
L 335.219007 -194.706177 
L 334.040666 -195.087251 
L 332.862325 -195.602843 
L 331.683984 -196.205711 
L 330.505643 -196.848518 
L 329.327302 -197.487503 
L 328.148961 -198.085144 
L 326.97062 -198.611753 
L 325.792279 -199.046129 
L 324.613938 -199.375479 
L 323.435597 -199.59486 
L 322.257256 -199.706339 
L 321.078915 -199.717993 
L 319.900574 -199.642814 
L 318.722233 -199.497521 
L 317.543892 -199.301278 
L 316.365551 -199.074331 
L 315.18721 -198.836596 
L 314.008869 -198.606298 
L 312.830528 -198.398759 
L 311.652187 -198.225456 
L 310.473846 -198.09348 
L 309.295505 -198.005452 
L 308.117164 -197.95996 
L 306.938823 -197.952453 
L 305.760482 -197.976496 
L 304.582141 -198.025212 
L 303.4038 -198.092676 
L 302.225459 -198.175037 
L 301.047118 -198.271179 
L 299.868777 -198.382809 
L 298.690436 -198.51396 
L 297.512095 -198.670017 
L 296.333754 -198.856467 
L 295.155413 -199.0776 
L 293.977072 -199.335427 
L 292.798731 -199.628996 
L 291.62039 -199.954217 
L 290.442049 -200.30422 
L 289.263708 -200.670146 
L 288.085367 -201.042218 
L 286.907026 -201.41089 
L 285.728685 -201.767873 
L 284.550344 -202.106904 
L 283.372003 -202.424138 
L 282.193662 -202.718176 
L 281.015321 -202.989774 
L 279.83698 -203.241324 
L 278.658639 -203.476245 
L 277.480298 -203.698371 
L 276.301957 -203.911422 
L 275.123616 -204.118612 
L 273.945275 -204.322378 
L 272.766934 -204.524252 
L 271.588593 -204.724824 
L 270.410252 -204.9238 
L 269.231911 -205.120132 
L 268.05357 -205.312195 
L 266.875229 -205.49801 
L 265.696888 -205.675474 
L 264.518547 -205.842588 
L 263.340206 -205.997632 
L 262.161865 -206.139296 
L 260.983524 -206.266736 
L 259.805183 -206.379571 
L 258.626842 -206.477843 
L 257.448501 -206.561954 
L 256.27016 -206.63261 
L 255.091819 -206.69078 
L 253.913478 -206.737681 
L 252.735137 -206.774775 
L 251.556796 -206.803753 
L 250.378455 -206.826506 
L 249.200114 -206.845042 
L 248.021773 -206.861366 
L 246.843432 -206.87732 
L 245.665091 -206.894412 
L 244.48675 -206.913661 
L 243.308409 -206.935498 
L 242.130068 -206.959746 
L 240.951727 -206.985686 
L 239.773386 -207.01221 
L 238.595045 -207.038029 
L 237.416704 -207.061898 
L 236.238363 -207.082825 
L 235.060022 -207.100222 
L 233.881681 -207.113968 
L 232.70334 -207.124396 
L 231.524999 -207.132198 
L 230.346658 -207.138277 
L 229.168317 -207.143584 
L 227.989976 -207.14896 
z
" id="m77ee6df045" style="stroke:#424242;"/>
    </defs>
    <g clip-path="url(#p3d36e70bed)">
     <use style="fill:#be631d;stroke:#424242;" x="0" xlink:href="#m77ee6df045" y="319.061667"/>
    </g>
   </g>
   <g id="PolyCollection_5">
    <defs>
     <path d="M 268.807681 -165.300697 
L 268.807681 -172.731719 
L 269.555544 -172.987022 
L 270.303407 -173.249371 
L 271.051269 -173.518415 
L 271.799132 -173.793792 
L 272.546995 -174.075121 
L 273.294858 -174.361998 
L 274.042721 -174.653979 
L 274.790583 -174.950577 
L 275.538446 -175.251247 
L 276.286309 -175.555373 
L 277.034172 -175.862263 
L 277.782035 -176.171134 
L 278.529897 -176.481108 
L 279.27776 -176.791207 
L 280.025623 -177.100348 
L 280.773486 -177.407348 
L 281.521349 -177.710927 
L 282.269211 -178.009715 
L 283.017074 -178.302266 
L 283.764937 -178.587075 
L 284.5128 -178.862593 
L 285.260663 -179.127253 
L 286.008525 -179.379496 
L 286.756388 -179.617794 
L 287.504251 -179.840686 
L 288.252114 -180.046801 
L 288.999977 -180.234895 
L 289.747839 -180.403881 
L 290.495702 -180.552856 
L 291.243565 -180.681132 
L 291.991428 -180.788259 
L 292.739291 -180.87405 
L 293.487153 -180.938597 
L 294.235016 -180.982286 
L 294.982879 -181.005806 
L 295.730742 -181.010147 
L 296.478605 -180.996601 
L 297.226467 -180.966746 
L 297.97433 -180.922432 
L 298.722193 -180.865753 
L 299.470056 -180.799018 
L 300.217919 -180.724708 
L 300.965781 -180.645435 
L 301.713644 -180.563891 
L 302.461507 -180.482792 
L 303.20937 -180.404824 
L 303.957233 -180.33258 
L 304.705095 -180.268503 
L 305.452958 -180.214827 
L 306.200821 -180.173521 
L 306.948684 -180.146239 
L 307.696547 -180.134273 
L 308.444409 -180.138521 
L 309.192272 -180.159456 
L 309.940135 -180.197111 
L 310.687998 -180.251073 
L 311.435861 -180.320486 
L 312.183723 -180.404075 
L 312.931586 -180.500172 
L 313.679449 -180.606754 
L 314.427312 -180.721502 
L 315.175175 -180.841849 
L 315.923037 -180.965054 
L 316.6709 -181.088264 
L 317.418763 -181.208592 
L 318.166626 -181.323179 
L 318.914489 -181.42927 
L 319.662351 -181.524268 
L 320.410214 -181.605792 
L 321.158077 -181.671724 
L 321.90594 -181.720236 
L 322.653803 -181.74982 
L 323.401665 -181.759292 
L 324.149528 -181.747795 
L 324.897391 -181.714789 
L 325.645254 -181.66002 
L 326.393117 -181.583503 
L 327.140979 -181.485474 
L 327.888842 -181.36636 
L 328.636705 -181.226731 
L 329.384568 -181.067264 
L 330.132431 -180.888704 
L 330.880293 -180.691831 
L 331.628156 -180.477435 
L 332.376019 -180.246297 
L 333.123882 -179.999175 
L 333.871745 -179.736805 
L 334.619607 -179.459902 
L 335.36747 -179.169174 
L 336.115333 -178.865335 
L 336.863196 -178.549131 
L 337.611059 -178.221353 
L 338.358921 -177.88287 
L 339.106784 -177.534642 
L 339.854647 -177.177742 
L 340.60251 -176.813367 
L 341.350373 -176.442844 
L 342.098235 -176.067633 
L 342.846098 -175.689317 
L 342.846098 -162.3431 
L 342.846098 -162.3431 
L 342.098235 -161.964784 
L 341.350373 -161.589572 
L 340.60251 -161.21905 
L 339.854647 -160.854674 
L 339.106784 -160.497775 
L 338.358921 -160.149547 
L 337.611059 -159.811064 
L 336.863196 -159.483286 
L 336.115333 -159.167081 
L 335.36747 -158.863243 
L 334.619607 -158.572515 
L 333.871745 -158.295612 
L 333.123882 -158.033241 
L 332.376019 -157.78612 
L 331.628156 -157.554981 
L 330.880293 -157.340586 
L 330.132431 -157.143713 
L 329.384568 -156.965153 
L 328.636705 -156.805686 
L 327.888842 -156.666057 
L 327.140979 -156.546942 
L 326.393117 -156.448914 
L 325.645254 -156.372396 
L 324.897391 -156.317628 
L 324.149528 -156.284621 
L 323.401665 -156.273125 
L 322.653803 -156.282597 
L 321.90594 -156.31218 
L 321.158077 -156.360693 
L 320.410214 -156.426624 
L 319.662351 -156.508149 
L 318.914489 -156.603147 
L 318.166626 -156.709238 
L 317.418763 -156.823825 
L 316.6709 -156.944152 
L 315.923037 -157.067363 
L 315.175175 -157.190567 
L 314.427312 -157.310915 
L 313.679449 -157.425662 
L 312.931586 -157.532245 
L 312.183723 -157.628341 
L 311.435861 -157.71193 
L 310.687998 -157.781344 
L 309.940135 -157.835305 
L 309.192272 -157.87296 
L 308.444409 -157.893896 
L 307.696547 -157.898144 
L 306.948684 -157.886178 
L 306.200821 -157.858895 
L 305.452958 -157.817589 
L 304.705095 -157.763913 
L 303.957233 -157.699837 
L 303.20937 -157.627593 
L 302.461507 -157.549625 
L 301.713644 -157.468526 
L 300.965781 -157.386982 
L 300.217919 -157.307709 
L 299.470056 -157.233399 
L 298.722193 -157.166663 
L 297.97433 -157.109985 
L 297.226467 -157.065671 
L 296.478605 -157.035816 
L 295.730742 -157.02227 
L 294.982879 -157.026611 
L 294.235016 -157.05013 
L 293.487153 -157.09382 
L 292.739291 -157.158367 
L 291.991428 -157.244158 
L 291.243565 -157.351285 
L 290.495702 -157.47956 
L 289.747839 -157.628535 
L 288.999977 -157.797521 
L 288.252114 -157.985616 
L 287.504251 -158.191731 
L 286.756388 -158.414622 
L 286.008525 -158.652921 
L 285.260663 -158.905163 
L 284.5128 -159.169824 
L 283.764937 -159.445342 
L 283.017074 -159.730151 
L 282.269211 -160.022702 
L 281.521349 -160.32149 
L 280.773486 -160.625069 
L 280.025623 -160.932069 
L 279.27776 -161.24121 
L 278.529897 -161.551308 
L 277.782035 -161.861282 
L 277.034172 -162.170153 
L 276.286309 -162.477043 
L 275.538446 -162.78117 
L 274.790583 -163.081839 
L 274.042721 -163.378438 
L 273.294858 -163.670419 
L 272.546995 -163.957295 
L 271.799132 -164.238625 
L 271.051269 -164.514002 
L 270.303407 -164.783046 
L 269.555544 -165.045395 
L 268.807681 -165.300697 
z
" id="m88aca205ec" style="stroke:#424242;"/>
    </defs>
    <g clip-path="url(#p3d36e70bed)">
     <use style="fill:#7c78ab;stroke:#424242;" x="0" xlink:href="#m88aca205ec" y="319.061667"/>
    </g>
   </g>
   <g id="PolyCollection_6">
    <defs>
     <path d="M 281.636741 -137.328385 
L 281.636741 -149.731698 
L 282.247778 -149.952074 
L 282.858816 -150.172037 
L 283.469854 -150.391074 
L 284.080891 -150.608659 
L 284.691929 -150.824265 
L 285.302967 -151.037359 
L 285.914005 -151.247409 
L 286.525042 -151.453888 
L 287.13608 -151.656277 
L 287.747118 -151.854066 
L 288.358155 -152.046761 
L 288.969193 -152.233887 
L 289.580231 -152.414989 
L 290.191268 -152.589641 
L 290.802306 -152.757445 
L 291.413344 -152.918033 
L 292.024382 -153.071079 
L 292.635419 -153.21629 
L 293.246457 -153.35342 
L 293.857495 -153.482266 
L 294.468532 -153.602671 
L 295.07957 -153.714527 
L 295.690608 -153.817776 
L 296.301646 -153.912412 
L 296.912683 -153.99848 
L 297.523721 -154.076075 
L 298.134759 -154.145347 
L 298.745796 -154.206493 
L 299.356834 -154.25976 
L 299.967872 -154.305443 
L 300.578909 -154.343881 
L 301.189947 -154.375456 
L 301.800985 -154.400588 
L 302.412023 -154.419735 
L 303.02306 -154.433384 
L 303.634098 -154.442053 
L 304.245136 -154.44628 
L 304.856173 -154.446625 
L 305.467211 -154.443662 
L 306.078249 -154.437971 
L 306.689286 -154.430141 
L 307.300324 -154.420758 
L 307.911362 -154.410403 
L 308.5224 -154.399648 
L 309.133437 -154.389048 
L 309.744475 -154.37914 
L 310.355513 -154.370437 
L 310.96655 -154.363423 
L 311.577588 -154.35855 
L 312.188626 -154.356235 
L 312.799663 -154.356853 
L 313.410701 -154.360738 
L 314.021739 -154.368178 
L 314.632777 -154.379413 
L 315.243814 -154.39463 
L 315.854852 -154.413966 
L 316.46589 -154.437502 
L 317.076927 -154.465265 
L 317.687965 -154.497225 
L 318.299003 -154.533294 
L 318.91004 -154.573327 
L 319.521078 -154.617124 
L 320.132116 -154.664427 
L 320.743154 -154.714922 
L 321.354191 -154.768242 
L 321.965229 -154.823967 
L 322.576267 -154.881629 
L 323.187304 -154.940709 
L 323.798342 -155.000646 
L 324.40938 -155.060836 
L 325.020417 -155.120639 
L 325.631455 -155.179382 
L 326.242493 -155.23636 
L 326.853531 -155.290849 
L 327.464568 -155.342101 
L 328.075606 -155.389358 
L 328.686644 -155.431855 
L 329.297681 -155.468823 
L 329.908719 -155.4995 
L 330.519757 -155.523133 
L 331.130794 -155.538988 
L 331.741832 -155.546356 
L 332.35287 -155.544555 
L 332.963908 -155.532942 
L 333.574945 -155.510918 
L 334.185983 -155.477931 
L 334.797021 -155.433483 
L 335.408058 -155.377137 
L 336.019096 -155.308521 
L 336.630134 -155.227329 
L 337.241172 -155.133332 
L 337.852209 -155.026372 
L 338.463247 -154.906372 
L 339.074285 -154.773334 
L 339.685322 -154.627341 
L 340.29636 -154.468557 
L 340.907398 -154.297227 
L 341.518435 -154.113674 
L 342.129473 -153.9183 
L 342.129473 -133.141783 
L 342.129473 -133.141783 
L 341.518435 -132.946409 
L 340.907398 -132.762856 
L 340.29636 -132.591526 
L 339.685322 -132.432742 
L 339.074285 -132.286749 
L 338.463247 -132.153712 
L 337.852209 -132.033712 
L 337.241172 -131.926752 
L 336.630134 -131.832754 
L 336.019096 -131.751563 
L 335.408058 -131.682946 
L 334.797021 -131.6266 
L 334.185983 -131.582153 
L 333.574945 -131.549165 
L 332.963908 -131.527141 
L 332.35287 -131.515529 
L 331.741832 -131.513728 
L 331.130794 -131.521095 
L 330.519757 -131.53695 
L 329.908719 -131.560584 
L 329.297681 -131.59126 
L 328.686644 -131.628228 
L 328.075606 -131.670725 
L 327.464568 -131.717983 
L 326.853531 -131.769235 
L 326.242493 -131.823723 
L 325.631455 -131.880702 
L 325.020417 -131.939444 
L 324.40938 -131.999247 
L 323.798342 -132.059438 
L 323.187304 -132.119374 
L 322.576267 -132.178455 
L 321.965229 -132.236116 
L 321.354191 -132.291842 
L 320.743154 -132.345162 
L 320.132116 -132.395657 
L 319.521078 -132.442959 
L 318.91004 -132.486756 
L 318.299003 -132.52679 
L 317.687965 -132.562859 
L 317.076927 -132.594818 
L 316.46589 -132.622581 
L 315.854852 -132.646118 
L 315.243814 -132.665454 
L 314.632777 -132.680671 
L 314.021739 -132.691905 
L 313.410701 -132.699345 
L 312.799663 -132.70323 
L 312.188626 -132.703848 
L 311.577588 -132.701533 
L 310.96655 -132.69666 
L 310.355513 -132.689646 
L 309.744475 -132.680943 
L 309.133437 -132.671036 
L 308.5224 -132.660436 
L 307.911362 -132.64968 
L 307.300324 -132.639325 
L 306.689286 -132.629942 
L 306.078249 -132.622112 
L 305.467211 -132.616422 
L 304.856173 -132.613458 
L 304.245136 -132.613803 
L 303.634098 -132.618031 
L 303.02306 -132.626699 
L 302.412023 -132.640349 
L 301.800985 -132.659495 
L 301.189947 -132.684628 
L 300.578909 -132.716203 
L 299.967872 -132.754641 
L 299.356834 -132.800323 
L 298.745796 -132.853591 
L 298.134759 -132.914736 
L 297.523721 -132.984008 
L 296.912683 -133.061604 
L 296.301646 -133.147671 
L 295.690608 -133.242307 
L 295.07957 -133.345557 
L 294.468532 -133.457413 
L 293.857495 -133.577817 
L 293.246457 -133.706663 
L 292.635419 -133.843793 
L 292.024382 -133.989005 
L 291.413344 -134.14205 
L 290.802306 -134.302639 
L 290.191268 -134.470442 
L 289.580231 -134.645094 
L 288.969193 -134.826197 
L 288.358155 -135.013323 
L 287.747118 -135.206018 
L 287.13608 -135.403807 
L 286.525042 -135.606195 
L 285.914005 -135.812675 
L 285.302967 -136.022725 
L 284.691929 -136.235818 
L 284.080891 -136.451424 
L 283.469854 -136.66901 
L 282.858816 -136.888046 
L 282.247778 -137.10801 
L 281.636741 -137.328385 
z
" id="m1e5e7e83d9" style="stroke:#424242;"/>
    </defs>
    <g clip-path="url(#p3d36e70bed)">
     <use style="fill:#be631d;stroke:#424242;" x="0" xlink:href="#m1e5e7e83d9" y="319.061667"/>
    </g>
   </g>
   <g id="patch_86">
    <path clip-path="url(#p3d36e70bed)" d="M 113.690778 35.357708 
L 113.690778 35.357708 
L 113.690778 35.357708 
L 113.690778 35.357708 
z
" style="fill:#7c78ab;stroke:#424242;stroke-linejoin:miter;stroke-width:0.5;"/>
   </g>
   <g id="patch_87">
    <path clip-path="url(#p3d36e70bed)" d="M 113.690778 35.357708 
L 113.690778 35.357708 
L 113.690778 35.357708 
L 113.690778 35.357708 
z
" style="fill:#be631d;stroke:#424242;stroke-linejoin:miter;stroke-width:0.5;"/>
   </g>
   <g id="matplotlib.axis_3">
    <g id="xtick_5">
     <g id="line2d_9">
      <g>
       <use style="stroke:#000000;stroke-width:1.6;" x="113.690778" xlink:href="#m6903ad1912" y="258.361667"/>
      </g>
     </g>
     <g id="text_11">
      <!-- 0.0 -->
      <g transform="translate(97.787653 288.258542)scale(0.2 -0.2)">
       <use xlink:href="#DejaVuSans-48"/>
       <use x="63.623047" xlink:href="#DejaVuSans-46"/>
       <use x="95.410156" xlink:href="#DejaVuSans-48"/>
      </g>
     </g>
    </g>
    <g id="xtick_6">
     <g id="line2d_10">
      <g>
       <use style="stroke:#000000;stroke-width:1.6;" x="181.653889" xlink:href="#m6903ad1912" y="258.361667"/>
      </g>
     </g>
     <g id="text_12">
      <!-- 0.2 -->
      <g transform="translate(165.750764 288.258542)scale(0.2 -0.2)">
       <use xlink:href="#DejaVuSans-48"/>
       <use x="63.623047" xlink:href="#DejaVuSans-46"/>
       <use x="95.410156" xlink:href="#DejaVuSans-50"/>
      </g>
     </g>
    </g>
    <g id="xtick_7">
     <g id="line2d_11">
      <g>
       <use style="stroke:#000000;stroke-width:1.6;" x="249.617" xlink:href="#m6903ad1912" y="258.361667"/>
      </g>
     </g>
     <g id="text_13">
      <!-- 0.4 -->
      <g transform="translate(233.713875 288.258542)scale(0.2 -0.2)">
       <use xlink:href="#DejaVuSans-48"/>
       <use x="63.623047" xlink:href="#DejaVuSans-46"/>
       <use x="95.410156" xlink:href="#DejaVuSans-52"/>
      </g>
     </g>
    </g>
    <g id="xtick_8">
     <g id="line2d_12">
      <g>
       <use style="stroke:#000000;stroke-width:1.6;" x="317.580111" xlink:href="#m6903ad1912" y="258.361667"/>
      </g>
     </g>
     <g id="text_14">
      <!-- 0.6 -->
      <g transform="translate(301.676986 288.258542)scale(0.2 -0.2)">
       <use xlink:href="#DejaVuSans-48"/>
       <use x="63.623047" xlink:href="#DejaVuSans-46"/>
       <use x="95.410156" xlink:href="#DejaVuSans-54"/>
      </g>
     </g>
    </g>
    <g id="text_15">
     <!-- Max JS Divergence within $\epsilon$ -->
     <defs>
      <path d="M 9.8125 72.90625 
L 24.515625 72.90625 
L 43.109375 23.296875 
L 61.8125 72.90625 
L 76.515625 72.90625 
L 76.515625 0 
L 66.890625 0 
L 66.890625 64.015625 
L 48.09375 14.015625 
L 38.1875 14.015625 
L 19.390625 64.015625 
L 19.390625 0 
L 9.8125 0 
z
" id="DejaVuSans-77"/>
      <path d="M 34.28125 27.484375 
Q 23.390625 27.484375 19.1875 25 
Q 14.984375 22.515625 14.984375 16.5 
Q 14.984375 11.71875 18.140625 8.90625 
Q 21.296875 6.109375 26.703125 6.109375 
Q 34.1875 6.109375 38.703125 11.40625 
Q 43.21875 16.703125 43.21875 25.484375 
L 43.21875 27.484375 
z
M 52.203125 31.203125 
L 52.203125 0 
L 43.21875 0 
L 43.21875 8.296875 
Q 40.140625 3.328125 35.546875 0.953125 
Q 30.953125 -1.421875 24.3125 -1.421875 
Q 15.921875 -1.421875 10.953125 3.296875 
Q 6 8.015625 6 15.921875 
Q 6 25.140625 12.171875 29.828125 
Q 18.359375 34.515625 30.609375 34.515625 
L 43.21875 34.515625 
L 43.21875 35.40625 
Q 43.21875 41.609375 39.140625 45 
Q 35.0625 48.390625 27.6875 48.390625 
Q 23 48.390625 18.546875 47.265625 
Q 14.109375 46.140625 10.015625 43.890625 
L 10.015625 52.203125 
Q 14.9375 54.109375 19.578125 55.046875 
Q 24.21875 56 28.609375 56 
Q 40.484375 56 46.34375 49.84375 
Q 52.203125 43.703125 52.203125 31.203125 
z
" id="DejaVuSans-97"/>
      <path d="M 54.890625 54.6875 
L 35.109375 28.078125 
L 55.90625 0 
L 45.3125 0 
L 29.390625 21.484375 
L 13.484375 0 
L 2.875 0 
L 24.125 28.609375 
L 4.6875 54.6875 
L 15.28125 54.6875 
L 29.78125 35.203125 
L 44.28125 54.6875 
z
" id="DejaVuSans-120"/>
      <path d="M 9.8125 72.90625 
L 19.671875 72.90625 
L 19.671875 5.078125 
Q 19.671875 -8.109375 14.671875 -14.0625 
Q 9.671875 -20.015625 -1.421875 -20.015625 
L -5.171875 -20.015625 
L -5.171875 -11.71875 
L -2.09375 -11.71875 
Q 4.4375 -11.71875 7.125 -8.046875 
Q 9.8125 -4.390625 9.8125 5.078125 
z
" id="DejaVuSans-74"/>
      <path d="M 53.515625 70.515625 
L 53.515625 60.890625 
Q 47.90625 63.578125 42.921875 64.890625 
Q 37.9375 66.21875 33.296875 66.21875 
Q 25.25 66.21875 20.875 63.09375 
Q 16.5 59.96875 16.5 54.203125 
Q 16.5 49.359375 19.40625 46.890625 
Q 22.3125 44.4375 30.421875 42.921875 
L 36.375 41.703125 
Q 47.40625 39.59375 52.65625 34.296875 
Q 57.90625 29 57.90625 20.125 
Q 57.90625 9.515625 50.796875 4.046875 
Q 43.703125 -1.421875 29.984375 -1.421875 
Q 24.8125 -1.421875 18.96875 -0.25 
Q 13.140625 0.921875 6.890625 3.21875 
L 6.890625 13.375 
Q 12.890625 10.015625 18.65625 8.296875 
Q 24.421875 6.59375 29.984375 6.59375 
Q 38.421875 6.59375 43.015625 9.90625 
Q 47.609375 13.234375 47.609375 19.390625 
Q 47.609375 24.75 44.3125 27.78125 
Q 41.015625 30.8125 33.5 32.328125 
L 27.484375 33.5 
Q 16.453125 35.6875 11.515625 40.375 
Q 6.59375 45.0625 6.59375 53.421875 
Q 6.59375 63.09375 13.40625 68.65625 
Q 20.21875 74.21875 32.171875 74.21875 
Q 37.3125 74.21875 42.625 73.28125 
Q 47.953125 72.359375 53.515625 70.515625 
z
" id="DejaVuSans-83"/>
      <path d="M 19.671875 64.796875 
L 19.671875 8.109375 
L 31.59375 8.109375 
Q 46.6875 8.109375 53.6875 14.9375 
Q 60.6875 21.78125 60.6875 36.53125 
Q 60.6875 51.171875 53.6875 57.984375 
Q 46.6875 64.796875 31.59375 64.796875 
z
M 9.8125 72.90625 
L 30.078125 72.90625 
Q 51.265625 72.90625 61.171875 64.09375 
Q 71.09375 55.28125 71.09375 36.53125 
Q 71.09375 17.671875 61.125 8.828125 
Q 51.171875 0 30.078125 0 
L 9.8125 0 
z
" id="DejaVuSans-68"/>
      <path d="M 9.421875 54.6875 
L 18.40625 54.6875 
L 18.40625 0 
L 9.421875 0 
z
M 9.421875 75.984375 
L 18.40625 75.984375 
L 18.40625 64.59375 
L 9.421875 64.59375 
z
" id="DejaVuSans-105"/>
      <path d="M 2.984375 54.6875 
L 12.5 54.6875 
L 29.59375 8.796875 
L 46.6875 54.6875 
L 56.203125 54.6875 
L 35.6875 0 
L 23.484375 0 
z
" id="DejaVuSans-118"/>
      <path d="M 56.203125 29.59375 
L 56.203125 25.203125 
L 14.890625 25.203125 
Q 15.484375 15.921875 20.484375 11.0625 
Q 25.484375 6.203125 34.421875 6.203125 
Q 39.59375 6.203125 44.453125 7.46875 
Q 49.3125 8.734375 54.109375 11.28125 
L 54.109375 2.78125 
Q 49.265625 0.734375 44.1875 -0.34375 
Q 39.109375 -1.421875 33.890625 -1.421875 
Q 20.796875 -1.421875 13.15625 6.1875 
Q 5.515625 13.8125 5.515625 26.8125 
Q 5.515625 40.234375 12.765625 48.109375 
Q 20.015625 56 32.328125 56 
Q 43.359375 56 49.78125 48.890625 
Q 56.203125 41.796875 56.203125 29.59375 
z
M 47.21875 32.234375 
Q 47.125 39.59375 43.09375 43.984375 
Q 39.0625 48.390625 32.421875 48.390625 
Q 24.90625 48.390625 20.390625 44.140625 
Q 15.875 39.890625 15.1875 32.171875 
z
" id="DejaVuSans-101"/>
      <path d="M 41.109375 46.296875 
Q 39.59375 47.171875 37.8125 47.578125 
Q 36.03125 48 33.890625 48 
Q 26.265625 48 22.1875 43.046875 
Q 18.109375 38.09375 18.109375 28.8125 
L 18.109375 0 
L 9.078125 0 
L 9.078125 54.6875 
L 18.109375 54.6875 
L 18.109375 46.1875 
Q 20.953125 51.171875 25.484375 53.578125 
Q 30.03125 56 36.53125 56 
Q 37.453125 56 38.578125 55.875 
Q 39.703125 55.765625 41.0625 55.515625 
z
" id="DejaVuSans-114"/>
      <path d="M 45.40625 27.984375 
Q 45.40625 37.75 41.375 43.109375 
Q 37.359375 48.484375 30.078125 48.484375 
Q 22.859375 48.484375 18.828125 43.109375 
Q 14.796875 37.75 14.796875 27.984375 
Q 14.796875 18.265625 18.828125 12.890625 
Q 22.859375 7.515625 30.078125 7.515625 
Q 37.359375 7.515625 41.375 12.890625 
Q 45.40625 18.265625 45.40625 27.984375 
z
M 54.390625 6.78125 
Q 54.390625 -7.171875 48.1875 -13.984375 
Q 42 -20.796875 29.203125 -20.796875 
Q 24.46875 -20.796875 20.265625 -20.09375 
Q 16.0625 -19.390625 12.109375 -17.921875 
L 12.109375 -9.1875 
Q 16.0625 -11.328125 19.921875 -12.34375 
Q 23.78125 -13.375 27.78125 -13.375 
Q 36.625 -13.375 41.015625 -8.765625 
Q 45.40625 -4.15625 45.40625 5.171875 
L 45.40625 9.625 
Q 42.625 4.78125 38.28125 2.390625 
Q 33.9375 0 27.875 0 
Q 17.828125 0 11.671875 7.65625 
Q 5.515625 15.328125 5.515625 27.984375 
Q 5.515625 40.671875 11.671875 48.328125 
Q 17.828125 56 27.875 56 
Q 33.9375 56 38.28125 53.609375 
Q 42.625 51.21875 45.40625 46.390625 
L 45.40625 54.6875 
L 54.390625 54.6875 
z
" id="DejaVuSans-103"/>
      <path d="M 54.890625 33.015625 
L 54.890625 0 
L 45.90625 0 
L 45.90625 32.71875 
Q 45.90625 40.484375 42.875 44.328125 
Q 39.84375 48.1875 33.796875 48.1875 
Q 26.515625 48.1875 22.3125 43.546875 
Q 18.109375 38.921875 18.109375 30.90625 
L 18.109375 0 
L 9.078125 0 
L 9.078125 54.6875 
L 18.109375 54.6875 
L 18.109375 46.1875 
Q 21.34375 51.125 25.703125 53.5625 
Q 30.078125 56 35.796875 56 
Q 45.21875 56 50.046875 50.171875 
Q 54.890625 44.34375 54.890625 33.015625 
z
" id="DejaVuSans-110"/>
      <path d="M 48.78125 52.59375 
L 48.78125 44.1875 
Q 44.96875 46.296875 41.140625 47.34375 
Q 37.3125 48.390625 33.40625 48.390625 
Q 24.65625 48.390625 19.8125 42.84375 
Q 14.984375 37.3125 14.984375 27.296875 
Q 14.984375 17.28125 19.8125 11.734375 
Q 24.65625 6.203125 33.40625 6.203125 
Q 37.3125 6.203125 41.140625 7.25 
Q 44.96875 8.296875 48.78125 10.40625 
L 48.78125 2.09375 
Q 45.015625 0.34375 40.984375 -0.53125 
Q 36.96875 -1.421875 32.421875 -1.421875 
Q 20.0625 -1.421875 12.78125 6.34375 
Q 5.515625 14.109375 5.515625 27.296875 
Q 5.515625 40.671875 12.859375 48.328125 
Q 20.21875 56 33.015625 56 
Q 37.15625 56 41.109375 55.140625 
Q 45.0625 54.296875 48.78125 52.59375 
z
" id="DejaVuSans-99"/>
      <path d="M 4.203125 54.6875 
L 13.1875 54.6875 
L 24.421875 12.015625 
L 35.59375 54.6875 
L 46.1875 54.6875 
L 57.421875 12.015625 
L 68.609375 54.6875 
L 77.59375 54.6875 
L 63.28125 0 
L 52.6875 0 
L 40.921875 44.828125 
L 29.109375 0 
L 18.5 0 
z
" id="DejaVuSans-119"/>
      <path d="M 18.3125 70.21875 
L 18.3125 54.6875 
L 36.8125 54.6875 
L 36.8125 47.703125 
L 18.3125 47.703125 
L 18.3125 18.015625 
Q 18.3125 11.328125 20.140625 9.421875 
Q 21.96875 7.515625 27.59375 7.515625 
L 36.8125 7.515625 
L 36.8125 0 
L 27.59375 0 
Q 17.1875 0 13.234375 3.875 
Q 9.28125 7.765625 9.28125 18.015625 
L 9.28125 47.703125 
L 2.6875 47.703125 
L 2.6875 54.6875 
L 9.28125 54.6875 
L 9.28125 70.21875 
z
" id="DejaVuSans-116"/>
      <path d="M 54.890625 33.015625 
L 54.890625 0 
L 45.90625 0 
L 45.90625 32.71875 
Q 45.90625 40.484375 42.875 44.328125 
Q 39.84375 48.1875 33.796875 48.1875 
Q 26.515625 48.1875 22.3125 43.546875 
Q 18.109375 38.921875 18.109375 30.90625 
L 18.109375 0 
L 9.078125 0 
L 9.078125 75.984375 
L 18.109375 75.984375 
L 18.109375 46.1875 
Q 21.34375 51.125 25.703125 53.5625 
Q 30.078125 56 35.796875 56 
Q 45.21875 56 50.046875 50.171875 
Q 54.890625 44.34375 54.890625 33.015625 
z
" id="DejaVuSans-104"/>
      <path d="M 19.734375 29.5 
Q 14.453125 30.671875 12.15625 33.84375 
Q 10.453125 36.078125 10.453125 39.109375 
Q 10.453125 47.40625 18.359375 52.25 
Q 24.609375 56.0625 34.1875 56.0625 
Q 37.890625 56.0625 41.9375 55.46875 
Q 46 54.890625 50.53125 53.71875 
L 48.96875 45.5625 
Q 44.484375 46.96875 40.71875 47.609375 
Q 36.859375 48.25 33.40625 48.25 
Q 27.59375 48.25 23.78125 46 
Q 19.1875 43.3125 19.1875 39.40625 
Q 19.1875 36.8125 21.578125 35.015625 
Q 24.421875 32.859375 30.078125 32.859375 
L 37.640625 32.859375 
L 36.234375 25.4375 
L 29 25.4375 
Q 22.265625 25.4375 18.3125 22.953125 
Q 12.9375 19.578125 12.9375 14.3125 
Q 12.9375 10.984375 15.828125 8.796875 
Q 19.4375 6.0625 26.8125 6.0625 
Q 31.34375 6.0625 35.6875 6.9375 
Q 40.046875 7.859375 43.84375 9.671875 
L 42.1875 1.3125 
Q 37.546875 -0.046875 33.296875 -0.734375 
Q 29.046875 -1.421875 25.140625 -1.421875 
Q 13.53125 -1.421875 8.0625 3.03125 
Q 3.90625 6.453125 3.90625 12.203125 
Q 3.90625 19.96875 9.375 24.75 
Q 13.421875 28.328125 19.734375 29.5 
z
" id="DejaVuSans-Oblique-949"/>
     </defs>
     <g transform="translate(88.530833 311.617917)scale(0.2 -0.2)">
      <use transform="translate(0 0.015625)" xlink:href="#DejaVuSans-77"/>
      <use transform="translate(86.279297 0.015625)" xlink:href="#DejaVuSans-97"/>
      <use transform="translate(147.558594 0.015625)" xlink:href="#DejaVuSans-120"/>
      <use transform="translate(206.738281 0.015625)" xlink:href="#DejaVuSans-32"/>
      <use transform="translate(238.525391 0.015625)" xlink:href="#DejaVuSans-74"/>
      <use transform="translate(268.017578 0.015625)" xlink:href="#DejaVuSans-83"/>
      <use transform="translate(331.494141 0.015625)" xlink:href="#DejaVuSans-32"/>
      <use transform="translate(363.28125 0.015625)" xlink:href="#DejaVuSans-68"/>
      <use transform="translate(440.283203 0.015625)" xlink:href="#DejaVuSans-105"/>
      <use transform="translate(468.066406 0.015625)" xlink:href="#DejaVuSans-118"/>
      <use transform="translate(527.246094 0.015625)" xlink:href="#DejaVuSans-101"/>
      <use transform="translate(588.769531 0.015625)" xlink:href="#DejaVuSans-114"/>
      <use transform="translate(629.882812 0.015625)" xlink:href="#DejaVuSans-103"/>
      <use transform="translate(693.359375 0.015625)" xlink:href="#DejaVuSans-101"/>
      <use transform="translate(754.882812 0.015625)" xlink:href="#DejaVuSans-110"/>
      <use transform="translate(818.261719 0.015625)" xlink:href="#DejaVuSans-99"/>
      <use transform="translate(873.242188 0.015625)" xlink:href="#DejaVuSans-101"/>
      <use transform="translate(934.765625 0.015625)" xlink:href="#DejaVuSans-32"/>
      <use transform="translate(966.552734 0.015625)" xlink:href="#DejaVuSans-119"/>
      <use transform="translate(1048.339844 0.015625)" xlink:href="#DejaVuSans-105"/>
      <use transform="translate(1076.123047 0.015625)" xlink:href="#DejaVuSans-116"/>
      <use transform="translate(1115.332031 0.015625)" xlink:href="#DejaVuSans-104"/>
      <use transform="translate(1178.710938 0.015625)" xlink:href="#DejaVuSans-105"/>
      <use transform="translate(1206.494141 0.015625)" xlink:href="#DejaVuSans-110"/>
      <use transform="translate(1269.873047 0.015625)" xlink:href="#DejaVuSans-32"/>
      <use transform="translate(1301.660156 0.015625)" xlink:href="#DejaVuSans-Oblique-949"/>
     </g>
    </g>
   </g>
   <g id="matplotlib.axis_4">
    <g id="ytick_5">
     <g id="line2d_13">
      <g>
       <use style="stroke:#000000;stroke-width:1.6;" x="96.7" xlink:href="#mb9de95fcef" y="35.357708"/>
      </g>
     </g>
     <g id="text_16">
      <!-- [0.00, -->
      <defs>
       <path d="M 8.59375 75.984375 
L 29.296875 75.984375 
L 29.296875 69 
L 17.578125 69 
L 17.578125 -6.203125 
L 29.296875 -6.203125 
L 29.296875 -13.1875 
L 8.59375 -13.1875 
z
" id="DejaVuSans-91"/>
       <path d="M 11.71875 12.40625 
L 22.015625 12.40625 
L 22.015625 4 
L 14.015625 -11.625 
L 7.71875 -11.625 
L 11.71875 4 
z
" id="DejaVuSans-44"/>
      </defs>
      <g transform="translate(23.309375 31.758333)scale(0.2 -0.2)">
       <use xlink:href="#DejaVuSans-91"/>
       <use x="39.013672" xlink:href="#DejaVuSans-48"/>
       <use x="102.636719" xlink:href="#DejaVuSans-46"/>
       <use x="134.423828" xlink:href="#DejaVuSans-48"/>
       <use x="198.046875" xlink:href="#DejaVuSans-48"/>
       <use x="261.669922" xlink:href="#DejaVuSans-44"/>
      </g>
      <!-- 0.25) -->
      <defs>
       <path d="M 8.015625 75.875 
L 15.828125 75.875 
Q 23.140625 64.359375 26.78125 53.3125 
Q 30.421875 42.28125 30.421875 31.390625 
Q 30.421875 20.453125 26.78125 9.375 
Q 23.140625 -1.703125 15.828125 -13.1875 
L 8.015625 -13.1875 
Q 14.5 -2 17.703125 9.0625 
Q 20.90625 20.125 20.90625 31.390625 
Q 20.90625 42.671875 17.703125 53.65625 
Q 14.5 64.65625 8.015625 75.875 
z
" id="DejaVuSans-41"/>
      </defs>
      <g transform="translate(29.665625 54.153958)scale(0.2 -0.2)">
       <use xlink:href="#DejaVuSans-48"/>
       <use x="63.623047" xlink:href="#DejaVuSans-46"/>
       <use x="95.410156" xlink:href="#DejaVuSans-50"/>
       <use x="159.033203" xlink:href="#DejaVuSans-53"/>
       <use x="222.65625" xlink:href="#DejaVuSans-41"/>
      </g>
     </g>
    </g>
    <g id="ytick_6">
     <g id="line2d_14">
      <g>
       <use style="stroke:#000000;stroke-width:1.6;" x="96.7" xlink:href="#mb9de95fcef" y="99.073125"/>
      </g>
     </g>
     <g id="text_17">
      <!-- [0.25, -->
      <g transform="translate(23.309375 95.47375)scale(0.2 -0.2)">
       <use xlink:href="#DejaVuSans-91"/>
       <use x="39.013672" xlink:href="#DejaVuSans-48"/>
       <use x="102.636719" xlink:href="#DejaVuSans-46"/>
       <use x="134.423828" xlink:href="#DejaVuSans-50"/>
       <use x="198.046875" xlink:href="#DejaVuSans-53"/>
       <use x="261.669922" xlink:href="#DejaVuSans-44"/>
      </g>
      <!-- 0.50) -->
      <g transform="translate(29.665625 117.869375)scale(0.2 -0.2)">
       <use xlink:href="#DejaVuSans-48"/>
       <use x="63.623047" xlink:href="#DejaVuSans-46"/>
       <use x="95.410156" xlink:href="#DejaVuSans-53"/>
       <use x="159.033203" xlink:href="#DejaVuSans-48"/>
       <use x="222.65625" xlink:href="#DejaVuSans-41"/>
      </g>
     </g>
    </g>
    <g id="ytick_7">
     <g id="line2d_15">
      <g>
       <use style="stroke:#000000;stroke-width:1.6;" x="96.7" xlink:href="#mb9de95fcef" y="162.788542"/>
      </g>
     </g>
     <g id="text_18">
      <!-- [0.50, -->
      <g transform="translate(23.309375 159.189167)scale(0.2 -0.2)">
       <use xlink:href="#DejaVuSans-91"/>
       <use x="39.013672" xlink:href="#DejaVuSans-48"/>
       <use x="102.636719" xlink:href="#DejaVuSans-46"/>
       <use x="134.423828" xlink:href="#DejaVuSans-53"/>
       <use x="198.046875" xlink:href="#DejaVuSans-48"/>
       <use x="261.669922" xlink:href="#DejaVuSans-44"/>
      </g>
      <!-- 0.75) -->
      <defs>
       <path d="M 8.203125 72.90625 
L 55.078125 72.90625 
L 55.078125 68.703125 
L 28.609375 0 
L 18.3125 0 
L 43.21875 64.59375 
L 8.203125 64.59375 
z
" id="DejaVuSans-55"/>
      </defs>
      <g transform="translate(29.665625 181.584792)scale(0.2 -0.2)">
       <use xlink:href="#DejaVuSans-48"/>
       <use x="63.623047" xlink:href="#DejaVuSans-46"/>
       <use x="95.410156" xlink:href="#DejaVuSans-55"/>
       <use x="159.033203" xlink:href="#DejaVuSans-53"/>
       <use x="222.65625" xlink:href="#DejaVuSans-41"/>
      </g>
     </g>
    </g>
    <g id="ytick_8">
     <g id="line2d_16">
      <g>
       <use style="stroke:#000000;stroke-width:1.6;" x="96.7" xlink:href="#mb9de95fcef" y="226.503958"/>
      </g>
     </g>
     <g id="text_19">
      <!-- [0.75, -->
      <g transform="translate(23.309375 222.904583)scale(0.2 -0.2)">
       <use xlink:href="#DejaVuSans-91"/>
       <use x="39.013672" xlink:href="#DejaVuSans-48"/>
       <use x="102.636719" xlink:href="#DejaVuSans-46"/>
       <use x="134.423828" xlink:href="#DejaVuSans-55"/>
       <use x="198.046875" xlink:href="#DejaVuSans-53"/>
       <use x="261.669922" xlink:href="#DejaVuSans-44"/>
      </g>
      <!-- 1.00) -->
      <g transform="translate(29.665625 245.300208)scale(0.2 -0.2)">
       <use xlink:href="#DejaVuSans-49"/>
       <use x="63.623047" xlink:href="#DejaVuSans-46"/>
       <use x="95.410156" xlink:href="#DejaVuSans-48"/>
       <use x="159.033203" xlink:href="#DejaVuSans-48"/>
       <use x="222.65625" xlink:href="#DejaVuSans-41"/>
      </g>
     </g>
    </g>
    <g id="text_20">
     <!-- Max Attention -->
     <defs>
      <path d="M 34.1875 63.1875 
L 20.796875 26.90625 
L 47.609375 26.90625 
z
M 28.609375 72.90625 
L 39.796875 72.90625 
L 67.578125 0 
L 57.328125 0 
L 50.6875 18.703125 
L 17.828125 18.703125 
L 11.1875 0 
L 0.78125 0 
z
" id="DejaVuSans-65"/>
      <path d="M 30.609375 48.390625 
Q 23.390625 48.390625 19.1875 42.75 
Q 14.984375 37.109375 14.984375 27.296875 
Q 14.984375 17.484375 19.15625 11.84375 
Q 23.34375 6.203125 30.609375 6.203125 
Q 37.796875 6.203125 41.984375 11.859375 
Q 46.1875 17.53125 46.1875 27.296875 
Q 46.1875 37.015625 41.984375 42.703125 
Q 37.796875 48.390625 30.609375 48.390625 
z
M 30.609375 56 
Q 42.328125 56 49.015625 48.375 
Q 55.71875 40.765625 55.71875 27.296875 
Q 55.71875 13.875 49.015625 6.21875 
Q 42.328125 -1.421875 30.609375 -1.421875 
Q 18.84375 -1.421875 12.171875 6.21875 
Q 5.515625 13.875 5.515625 27.296875 
Q 5.515625 40.765625 12.171875 48.375 
Q 18.84375 56 30.609375 56 
z
" id="DejaVuSans-111"/>
     </defs>
     <g transform="translate(15.15 201.108958)rotate(-90)scale(0.2 -0.2)">
      <use xlink:href="#DejaVuSans-77"/>
      <use x="86.279297" xlink:href="#DejaVuSans-97"/>
      <use x="147.558594" xlink:href="#DejaVuSans-120"/>
      <use x="206.738281" xlink:href="#DejaVuSans-32"/>
      <use x="238.525391" xlink:href="#DejaVuSans-65"/>
      <use x="306.917969" xlink:href="#DejaVuSans-116"/>
      <use x="346.126953" xlink:href="#DejaVuSans-116"/>
      <use x="385.335938" xlink:href="#DejaVuSans-101"/>
      <use x="446.859375" xlink:href="#DejaVuSans-110"/>
      <use x="510.238281" xlink:href="#DejaVuSans-116"/>
      <use x="549.447266" xlink:href="#DejaVuSans-105"/>
      <use x="577.230469" xlink:href="#DejaVuSans-111"/>
      <use x="638.412109" xlink:href="#DejaVuSans-110"/>
     </g>
    </g>
   </g>
   <g id="line2d_17">
    <path clip-path="url(#p3d36e70bed)" d="M 292.366928 17.030327 
L 292.366928 28.198923 
" style="fill:none;stroke:#424242;stroke-dasharray:1.5,1.5;stroke-dashoffset:0;"/>
   </g>
   <g id="line2d_18">
    <path clip-path="url(#p3d36e70bed)" d="M 310.141906 15.929288 
L 310.141906 29.299962 
" style="fill:none;stroke:#424242;stroke-dasharray:3,3;stroke-dashoffset:0;"/>
   </g>
   <g id="line2d_19">
    <path clip-path="url(#p3d36e70bed)" d="M 327.586816 15.14878 
L 327.586816 30.08047 
" style="fill:none;stroke:#424242;stroke-dasharray:1.5,1.5;stroke-dashoffset:0;"/>
   </g>
   <g id="line2d_20">
    <path clip-path="url(#p3d36e70bed)" d="M 301.954415 42.946066 
L 301.954415 53.255518 
" style="fill:none;stroke:#424242;stroke-dasharray:1.5,1.5;stroke-dashoffset:0;"/>
   </g>
   <g id="line2d_21">
    <path clip-path="url(#p3d36e70bed)" d="M 323.318385 42.532954 
L 323.318385 53.668629 
" style="fill:none;stroke:#424242;stroke-dasharray:3,3;stroke-dashoffset:0;"/>
   </g>
   <g id="line2d_22">
    <path clip-path="url(#p3d36e70bed)" d="M 338.531402 35.571076 
L 338.531402 60.630507 
" style="fill:none;stroke:#424242;stroke-dasharray:1.5,1.5;stroke-dashoffset:0;"/>
   </g>
   <g id="line2d_23">
    <path clip-path="url(#p3d36e70bed)" d="M 294.413856 78.778309 
L 294.413856 93.881774 
" style="fill:none;stroke:#424242;stroke-dasharray:1.5,1.5;stroke-dashoffset:0;"/>
   </g>
   <g id="line2d_24">
    <path clip-path="url(#p3d36e70bed)" d="M 312.268719 76.348436 
L 312.268719 96.311647 
" style="fill:none;stroke:#424242;stroke-dasharray:3,3;stroke-dashoffset:0;"/>
   </g>
   <g id="line2d_25">
    <path clip-path="url(#p3d36e70bed)" d="M 327.825739 75.921029 
L 327.825739 96.739055 
" style="fill:none;stroke:#424242;stroke-dasharray:1.5,1.5;stroke-dashoffset:0;"/>
   </g>
   <g id="line2d_26">
    <path clip-path="url(#p3d36e70bed)" d="M 297.242611 103.326522 
L 297.242611 120.305895 
" style="fill:none;stroke:#424242;stroke-dasharray:1.5,1.5;stroke-dashoffset:0;"/>
   </g>
   <g id="line2d_27">
    <path clip-path="url(#p3d36e70bed)" d="M 314.753187 103.491434 
L 314.753187 120.140983 
" style="fill:none;stroke:#424242;stroke-dasharray:3,3;stroke-dashoffset:0;"/>
   </g>
   <g id="line2d_28">
    <path clip-path="url(#p3d36e70bed)" d="M 335.60114 99.40232 
L 335.60114 124.230097 
" style="fill:none;stroke:#424242;stroke-dasharray:1.5,1.5;stroke-dashoffset:0;"/>
   </g>
   <g id="line2d_29">
    <path clip-path="url(#p3d36e70bed)" d="M 291.708856 138.391128 
L 291.708856 161.699788 
" style="fill:none;stroke:#424242;stroke-dasharray:1.5,1.5;stroke-dashoffset:0;"/>
   </g>
   <g id="line2d_30">
    <path clip-path="url(#p3d36e70bed)" d="M 309.809569 138.976364 
L 309.809569 161.114552 
" style="fill:none;stroke:#424242;stroke-dasharray:3,3;stroke-dashoffset:0;"/>
   </g>
   <g id="line2d_31">
    <path clip-path="url(#p3d36e70bed)" d="M 325.715434 137.528084 
L 325.715434 162.562832 
" style="fill:none;stroke:#424242;stroke-dasharray:1.5,1.5;stroke-dashoffset:0;"/>
   </g>
   <g id="line2d_32">
    <path clip-path="url(#p3d36e70bed)" d="M 298.224777 165.022473 
L 298.224777 186.040777 
" style="fill:none;stroke:#424242;stroke-dasharray:1.5,1.5;stroke-dashoffset:0;"/>
   </g>
   <g id="line2d_33">
    <path clip-path="url(#p3d36e70bed)" d="M 317.539894 164.674114 
L 317.539894 186.389136 
" style="fill:none;stroke:#424242;stroke-dasharray:3,3;stroke-dashoffset:0;"/>
   </g>
   <g id="line2d_34">
    <path clip-path="url(#p3d36e70bed)" d="M 335.968265 163.870931 
L 335.968265 187.192319 
" style="fill:none;stroke:#424242;stroke-dasharray:1.5,1.5;stroke-dashoffset:0;"/>
   </g>
   <g id="line2d_35">
    <path clip-path="url(#p3d36e70bed)" d="M 321.631198 201.017792 
L 321.631198 226.503958 
" style="fill:none;stroke:#424242;stroke-linecap:square;"/>
   </g>
   <g id="line2d_36">
    <path clip-path="url(#p3d36e70bed)" d="M 332.658504 226.503958 
L 332.658504 251.990125 
" style="fill:none;stroke:#424242;stroke-linecap:square;"/>
   </g>
   <g id="patch_88">
    <path d="M 96.7 258.361667 
L 96.7 3.5 
" style="fill:none;stroke:#000000;stroke-linecap:square;stroke-linejoin:miter;stroke-width:0.8;"/>
   </g>
   <g id="patch_89">
    <path d="M 96.7 258.361667 
L 351.561667 258.361667 
" style="fill:none;stroke:#000000;stroke-linecap:square;stroke-linejoin:miter;stroke-width:0.8;"/>
   </g>
  </g>
 </g>
 <defs>
  <clipPath id="p0901cecc63">
   <rect height="254.861667" width="254.861667" x="-269.521667" y="3.5"/>
  </clipPath>
  <clipPath id="p3d36e70bed">
   <rect height="254.861667" width="254.861667" x="96.7" y="3.5"/>
  </clipPath>
 </defs>
</svg>
