<?xml version="1.0" encoding="utf-8" standalone="no"?>
<!DOCTYPE svg PUBLIC "-//W3C//DTD SVG 1.1//EN"
  "http://www.w3.org/Graphics/SVG/1.1/DTD/svg11.dtd">
<!-- Created with matplotlib (https://matplotlib.org/) -->
<svg height="333.433333pt" version="1.1" viewBox="0 0 369.433333 333.433333" width="369.433333pt" xmlns="http://www.w3.org/2000/svg" xmlns:xlink="http://www.w3.org/1999/xlink">
 <defs>
  <style type="text/css">
*{stroke-linecap:butt;stroke-linejoin:round;}
  </style>
 </defs>
 <g id="figure_1">
  <g id="patch_1">
   <path d="M 0 333.433333 
L 369.433333 333.433333 
L 369.433333 -0 
L 0 -0 
z
" style="fill:#ffffff;"/>
  </g>
  <g id="axes_1">
   <g id="patch_2">
    <path d="M -276.333333 272.733333 
L -7.1 272.733333 
L -7.1 3.5 
L -276.333333 3.5 
z
" style="fill:#ffffff;"/>
   </g>
   <g id="patch_3">
    <path clip-path="url(#pa1adf35392)" d="M -264.095455 272.733333 
L -257.976515 272.733333 
L -257.976515 272.733333 
L -264.095455 272.733333 
z
" style="fill:#7570b3;opacity:0.6;stroke:#000000;stroke-linejoin:miter;stroke-width:0.5;"/>
   </g>
   <g id="patch_4">
    <path clip-path="url(#pa1adf35392)" d="M -257.976515 272.733333 
L -251.857576 272.733333 
L -251.857576 272.733333 
L -257.976515 272.733333 
z
" style="fill:#7570b3;opacity:0.6;stroke:#000000;stroke-linejoin:miter;stroke-width:0.5;"/>
   </g>
   <g id="patch_5">
    <path clip-path="url(#pa1adf35392)" d="M -251.857576 272.733333 
L -245.738636 272.733333 
L -245.738636 272.733333 
L -251.857576 272.733333 
z
" style="fill:#7570b3;opacity:0.6;stroke:#000000;stroke-linejoin:miter;stroke-width:0.5;"/>
   </g>
   <g id="patch_6">
    <path clip-path="url(#pa1adf35392)" d="M -245.738636 272.733333 
L -239.619697 272.733333 
L -239.619697 272.733333 
L -245.738636 272.733333 
z
" style="fill:#7570b3;opacity:0.6;stroke:#000000;stroke-linejoin:miter;stroke-width:0.5;"/>
   </g>
   <g id="patch_7">
    <path clip-path="url(#pa1adf35392)" d="M -239.619697 272.733333 
L -233.500758 272.733333 
L -233.500758 272.733333 
L -239.619697 272.733333 
z
" style="fill:#7570b3;opacity:0.6;stroke:#000000;stroke-linejoin:miter;stroke-width:0.5;"/>
   </g>
   <g id="patch_8">
    <path clip-path="url(#pa1adf35392)" d="M -233.500758 272.733333 
L -227.381818 272.733333 
L -227.381818 272.733333 
L -233.500758 272.733333 
z
" style="fill:#7570b3;opacity:0.6;stroke:#000000;stroke-linejoin:miter;stroke-width:0.5;"/>
   </g>
   <g id="patch_9">
    <path clip-path="url(#pa1adf35392)" d="M -227.381818 272.733333 
L -221.262879 272.733333 
L -221.262879 272.733333 
L -227.381818 272.733333 
z
" style="fill:#7570b3;opacity:0.6;stroke:#000000;stroke-linejoin:miter;stroke-width:0.5;"/>
   </g>
   <g id="patch_10">
    <path clip-path="url(#pa1adf35392)" d="M -221.262879 272.733333 
L -215.143939 272.733333 
L -215.143939 272.733333 
L -221.262879 272.733333 
z
" style="fill:#7570b3;opacity:0.6;stroke:#000000;stroke-linejoin:miter;stroke-width:0.5;"/>
   </g>
   <g id="patch_11">
    <path clip-path="url(#pa1adf35392)" d="M -215.143939 272.733333 
L -209.025 272.733333 
L -209.025 272.733333 
L -215.143939 272.733333 
z
" style="fill:#7570b3;opacity:0.6;stroke:#000000;stroke-linejoin:miter;stroke-width:0.5;"/>
   </g>
   <g id="patch_12">
    <path clip-path="url(#pa1adf35392)" d="M -209.025 272.733333 
L -202.906061 272.733333 
L -202.906061 272.733333 
L -209.025 272.733333 
z
" style="fill:#7570b3;opacity:0.6;stroke:#000000;stroke-linejoin:miter;stroke-width:0.5;"/>
   </g>
   <g id="patch_13">
    <path clip-path="url(#pa1adf35392)" d="M -202.906061 272.733333 
L -196.787121 272.733333 
L -196.787121 272.733333 
L -202.906061 272.733333 
z
" style="fill:#7570b3;opacity:0.6;stroke:#000000;stroke-linejoin:miter;stroke-width:0.5;"/>
   </g>
   <g id="patch_14">
    <path clip-path="url(#pa1adf35392)" d="M -196.787121 272.733333 
L -190.668182 272.733333 
L -190.668182 272.733333 
L -196.787121 272.733333 
z
" style="fill:#7570b3;opacity:0.6;stroke:#000000;stroke-linejoin:miter;stroke-width:0.5;"/>
   </g>
   <g id="patch_15">
    <path clip-path="url(#pa1adf35392)" d="M -190.668182 272.733333 
L -184.549242 272.733333 
L -184.549242 272.733333 
L -190.668182 272.733333 
z
" style="fill:#7570b3;opacity:0.6;stroke:#000000;stroke-linejoin:miter;stroke-width:0.5;"/>
   </g>
   <g id="patch_16">
    <path clip-path="url(#pa1adf35392)" d="M -184.549242 272.733333 
L -178.430303 272.733333 
L -178.430303 272.733333 
L -184.549242 272.733333 
z
" style="fill:#7570b3;opacity:0.6;stroke:#000000;stroke-linejoin:miter;stroke-width:0.5;"/>
   </g>
   <g id="patch_17">
    <path clip-path="url(#pa1adf35392)" d="M -178.430303 272.733333 
L -172.311364 272.733333 
L -172.311364 272.733333 
L -178.430303 272.733333 
z
" style="fill:#7570b3;opacity:0.6;stroke:#000000;stroke-linejoin:miter;stroke-width:0.5;"/>
   </g>
   <g id="patch_18">
    <path clip-path="url(#pa1adf35392)" d="M -172.311364 272.733333 
L -166.192424 272.733333 
L -166.192424 272.733333 
L -172.311364 272.733333 
z
" style="fill:#7570b3;opacity:0.6;stroke:#000000;stroke-linejoin:miter;stroke-width:0.5;"/>
   </g>
   <g id="patch_19">
    <path clip-path="url(#pa1adf35392)" d="M -166.192424 272.733333 
L -160.073485 272.733333 
L -160.073485 272.733333 
L -166.192424 272.733333 
z
" style="fill:#7570b3;opacity:0.6;stroke:#000000;stroke-linejoin:miter;stroke-width:0.5;"/>
   </g>
   <g id="patch_20">
    <path clip-path="url(#pa1adf35392)" d="M -160.073485 272.733333 
L -153.954545 272.733333 
L -153.954545 272.733333 
L -160.073485 272.733333 
z
" style="fill:#7570b3;opacity:0.6;stroke:#000000;stroke-linejoin:miter;stroke-width:0.5;"/>
   </g>
   <g id="patch_21">
    <path clip-path="url(#pa1adf35392)" d="M -153.954545 272.733333 
L -147.835606 272.733333 
L -147.835606 272.733333 
L -153.954545 272.733333 
z
" style="fill:#7570b3;opacity:0.6;stroke:#000000;stroke-linejoin:miter;stroke-width:0.5;"/>
   </g>
   <g id="patch_22">
    <path clip-path="url(#pa1adf35392)" d="M -147.835606 272.733333 
L -141.716667 272.733333 
L -141.716667 272.733333 
L -147.835606 272.733333 
z
" style="fill:#7570b3;opacity:0.6;stroke:#000000;stroke-linejoin:miter;stroke-width:0.5;"/>
   </g>
   <g id="patch_23">
    <path clip-path="url(#pa1adf35392)" d="M -141.716667 272.733333 
L -135.597727 272.733333 
L -135.597727 272.733333 
L -141.716667 272.733333 
z
" style="fill:#7570b3;opacity:0.6;stroke:#000000;stroke-linejoin:miter;stroke-width:0.5;"/>
   </g>
   <g id="patch_24">
    <path clip-path="url(#pa1adf35392)" d="M -135.597727 272.733333 
L -129.478788 272.733333 
L -129.478788 272.733333 
L -135.597727 272.733333 
z
" style="fill:#7570b3;opacity:0.6;stroke:#000000;stroke-linejoin:miter;stroke-width:0.5;"/>
   </g>
   <g id="patch_25">
    <path clip-path="url(#pa1adf35392)" d="M -129.478788 272.733333 
L -123.359848 272.733333 
L -123.359848 272.733333 
L -129.478788 272.733333 
z
" style="fill:#7570b3;opacity:0.6;stroke:#000000;stroke-linejoin:miter;stroke-width:0.5;"/>
   </g>
   <g id="patch_26">
    <path clip-path="url(#pa1adf35392)" d="M -123.359848 272.733333 
L -117.240909 272.733333 
L -117.240909 272.733333 
L -123.359848 272.733333 
z
" style="fill:#7570b3;opacity:0.6;stroke:#000000;stroke-linejoin:miter;stroke-width:0.5;"/>
   </g>
   <g id="patch_27">
    <path clip-path="url(#pa1adf35392)" d="M -117.240909 272.733333 
L -111.12197 272.733333 
L -111.12197 272.733333 
L -117.240909 272.733333 
z
" style="fill:#7570b3;opacity:0.6;stroke:#000000;stroke-linejoin:miter;stroke-width:0.5;"/>
   </g>
   <g id="patch_28">
    <path clip-path="url(#pa1adf35392)" d="M -111.12197 272.733333 
L -105.00303 272.733333 
L -105.00303 272.733333 
L -111.12197 272.733333 
z
" style="fill:#7570b3;opacity:0.6;stroke:#000000;stroke-linejoin:miter;stroke-width:0.5;"/>
   </g>
   <g id="patch_29">
    <path clip-path="url(#pa1adf35392)" d="M -105.00303 272.733333 
L -98.884091 272.733333 
L -98.884091 272.733333 
L -105.00303 272.733333 
z
" style="fill:#7570b3;opacity:0.6;stroke:#000000;stroke-linejoin:miter;stroke-width:0.5;"/>
   </g>
   <g id="patch_30">
    <path clip-path="url(#pa1adf35392)" d="M -98.884091 272.733333 
L -92.765152 272.733333 
L -92.765152 272.733333 
L -98.884091 272.733333 
z
" style="fill:#7570b3;opacity:0.6;stroke:#000000;stroke-linejoin:miter;stroke-width:0.5;"/>
   </g>
   <g id="patch_31">
    <path clip-path="url(#pa1adf35392)" d="M -92.765152 272.733333 
L -86.646212 272.733333 
L -86.646212 265.877379 
L -92.765152 265.877379 
z
" style="fill:#7570b3;opacity:0.6;stroke:#000000;stroke-linejoin:miter;stroke-width:0.5;"/>
   </g>
   <g id="patch_32">
    <path clip-path="url(#pa1adf35392)" d="M -86.646212 272.733333 
L -80.527273 272.733333 
L -80.527273 243.938324 
L -86.646212 243.938324 
z
" style="fill:#7570b3;opacity:0.6;stroke:#000000;stroke-linejoin:miter;stroke-width:0.5;"/>
   </g>
   <g id="patch_33">
    <path clip-path="url(#pa1adf35392)" d="M -80.527273 272.733333 
L -74.408333 272.733333 
L -74.408333 215.143316 
L -80.527273 215.143316 
z
" style="fill:#7570b3;opacity:0.6;stroke:#000000;stroke-linejoin:miter;stroke-width:0.5;"/>
   </g>
   <g id="patch_34">
    <path clip-path="url(#pa1adf35392)" d="M -74.408333 272.733333 
L -68.289394 272.733333 
L -68.289394 184.977116 
L -74.408333 184.977116 
z
" style="fill:#7570b3;opacity:0.6;stroke:#000000;stroke-linejoin:miter;stroke-width:0.5;"/>
   </g>
   <g id="patch_35">
    <path clip-path="url(#pa1adf35392)" d="M -68.289394 272.733333 
L -62.170455 272.733333 
L -62.170455 209.658552 
L -68.289394 209.658552 
z
" style="fill:#7570b3;opacity:0.6;stroke:#000000;stroke-linejoin:miter;stroke-width:0.5;"/>
   </g>
   <g id="patch_36">
    <path clip-path="url(#pa1adf35392)" d="M -62.170455 272.733333 
L -56.051515 272.733333 
L -56.051515 250.794279 
L -62.170455 250.794279 
z
" style="fill:#7570b3;opacity:0.6;stroke:#000000;stroke-linejoin:miter;stroke-width:0.5;"/>
   </g>
   <g id="patch_37">
    <path clip-path="url(#pa1adf35392)" d="M -56.051515 272.733333 
L -49.932576 272.733333 
L -49.932576 249.423088 
L -56.051515 249.423088 
z
" style="fill:#7570b3;opacity:0.6;stroke:#000000;stroke-linejoin:miter;stroke-width:0.5;"/>
   </g>
   <g id="patch_38">
    <path clip-path="url(#pa1adf35392)" d="M -49.932576 272.733333 
L -43.813636 272.733333 
L -43.813636 250.794279 
L -49.932576 250.794279 
z
" style="fill:#7570b3;opacity:0.6;stroke:#000000;stroke-linejoin:miter;stroke-width:0.5;"/>
   </g>
   <g id="patch_39">
    <path clip-path="url(#pa1adf35392)" d="M -43.813636 272.733333 
L -37.694697 272.733333 
L -37.694697 250.794279 
L -43.813636 250.794279 
z
" style="fill:#7570b3;opacity:0.6;stroke:#000000;stroke-linejoin:miter;stroke-width:0.5;"/>
   </g>
   <g id="patch_40">
    <path clip-path="url(#pa1adf35392)" d="M -37.694697 272.733333 
L -31.575758 272.733333 
L -31.575758 216.514506 
L -37.694697 216.514506 
z
" style="fill:#7570b3;opacity:0.6;stroke:#000000;stroke-linejoin:miter;stroke-width:0.5;"/>
   </g>
   <g id="patch_41">
    <path clip-path="url(#pa1adf35392)" d="M -31.575758 272.733333 
L -25.456818 272.733333 
L -25.456818 16.320635 
L -31.575758 16.320635 
z
" style="fill:#7570b3;opacity:0.6;stroke:#000000;stroke-linejoin:miter;stroke-width:0.5;"/>
   </g>
   <g id="patch_42">
    <path clip-path="url(#pa1adf35392)" d="M -25.456818 272.733333 
L -19.337879 272.733333 
L -19.337879 237.08237 
L -25.456818 237.08237 
z
" style="fill:#7570b3;opacity:0.6;stroke:#000000;stroke-linejoin:miter;stroke-width:0.5;"/>
   </g>
   <g id="patch_43">
    <path clip-path="url(#pa1adf35392)" d="M -264.095455 272.733333 
L -257.976515 272.733333 
L -257.976515 272.733333 
L -264.095455 272.733333 
z
" style="fill:#d95f02;opacity:0.6;stroke:#000000;stroke-linejoin:miter;stroke-width:0.5;"/>
   </g>
   <g id="patch_44">
    <path clip-path="url(#pa1adf35392)" d="M -257.976515 272.733333 
L -251.857576 272.733333 
L -251.857576 272.733333 
L -257.976515 272.733333 
z
" style="fill:#d95f02;opacity:0.6;stroke:#000000;stroke-linejoin:miter;stroke-width:0.5;"/>
   </g>
   <g id="patch_45">
    <path clip-path="url(#pa1adf35392)" d="M -251.857576 272.733333 
L -245.738636 272.733333 
L -245.738636 272.733333 
L -251.857576 272.733333 
z
" style="fill:#d95f02;opacity:0.6;stroke:#000000;stroke-linejoin:miter;stroke-width:0.5;"/>
   </g>
   <g id="patch_46">
    <path clip-path="url(#pa1adf35392)" d="M -245.738636 272.733333 
L -239.619697 272.733333 
L -239.619697 272.733333 
L -245.738636 272.733333 
z
" style="fill:#d95f02;opacity:0.6;stroke:#000000;stroke-linejoin:miter;stroke-width:0.5;"/>
   </g>
   <g id="patch_47">
    <path clip-path="url(#pa1adf35392)" d="M -239.619697 272.733333 
L -233.500758 272.733333 
L -233.500758 272.733333 
L -239.619697 272.733333 
z
" style="fill:#d95f02;opacity:0.6;stroke:#000000;stroke-linejoin:miter;stroke-width:0.5;"/>
   </g>
   <g id="patch_48">
    <path clip-path="url(#pa1adf35392)" d="M -233.500758 272.733333 
L -227.381818 272.733333 
L -227.381818 272.733333 
L -233.500758 272.733333 
z
" style="fill:#d95f02;opacity:0.6;stroke:#000000;stroke-linejoin:miter;stroke-width:0.5;"/>
   </g>
   <g id="patch_49">
    <path clip-path="url(#pa1adf35392)" d="M -227.381818 272.733333 
L -221.262879 272.733333 
L -221.262879 272.733333 
L -227.381818 272.733333 
z
" style="fill:#d95f02;opacity:0.6;stroke:#000000;stroke-linejoin:miter;stroke-width:0.5;"/>
   </g>
   <g id="patch_50">
    <path clip-path="url(#pa1adf35392)" d="M -221.262879 272.733333 
L -215.143939 272.733333 
L -215.143939 272.733333 
L -221.262879 272.733333 
z
" style="fill:#d95f02;opacity:0.6;stroke:#000000;stroke-linejoin:miter;stroke-width:0.5;"/>
   </g>
   <g id="patch_51">
    <path clip-path="url(#pa1adf35392)" d="M -215.143939 272.733333 
L -209.025 272.733333 
L -209.025 272.733333 
L -215.143939 272.733333 
z
" style="fill:#d95f02;opacity:0.6;stroke:#000000;stroke-linejoin:miter;stroke-width:0.5;"/>
   </g>
   <g id="patch_52">
    <path clip-path="url(#pa1adf35392)" d="M -209.025 272.733333 
L -202.906061 272.733333 
L -202.906061 272.733333 
L -209.025 272.733333 
z
" style="fill:#d95f02;opacity:0.6;stroke:#000000;stroke-linejoin:miter;stroke-width:0.5;"/>
   </g>
   <g id="patch_53">
    <path clip-path="url(#pa1adf35392)" d="M -202.906061 272.733333 
L -196.787121 272.733333 
L -196.787121 272.733333 
L -202.906061 272.733333 
z
" style="fill:#d95f02;opacity:0.6;stroke:#000000;stroke-linejoin:miter;stroke-width:0.5;"/>
   </g>
   <g id="patch_54">
    <path clip-path="url(#pa1adf35392)" d="M -196.787121 272.733333 
L -190.668182 272.733333 
L -190.668182 272.733333 
L -196.787121 272.733333 
z
" style="fill:#d95f02;opacity:0.6;stroke:#000000;stroke-linejoin:miter;stroke-width:0.5;"/>
   </g>
   <g id="patch_55">
    <path clip-path="url(#pa1adf35392)" d="M -190.668182 272.733333 
L -184.549242 272.733333 
L -184.549242 272.733333 
L -190.668182 272.733333 
z
" style="fill:#d95f02;opacity:0.6;stroke:#000000;stroke-linejoin:miter;stroke-width:0.5;"/>
   </g>
   <g id="patch_56">
    <path clip-path="url(#pa1adf35392)" d="M -184.549242 272.733333 
L -178.430303 272.733333 
L -178.430303 272.733333 
L -184.549242 272.733333 
z
" style="fill:#d95f02;opacity:0.6;stroke:#000000;stroke-linejoin:miter;stroke-width:0.5;"/>
   </g>
   <g id="patch_57">
    <path clip-path="url(#pa1adf35392)" d="M -178.430303 272.733333 
L -172.311364 272.733333 
L -172.311364 272.733333 
L -178.430303 272.733333 
z
" style="fill:#d95f02;opacity:0.6;stroke:#000000;stroke-linejoin:miter;stroke-width:0.5;"/>
   </g>
   <g id="patch_58">
    <path clip-path="url(#pa1adf35392)" d="M -172.311364 272.733333 
L -166.192424 272.733333 
L -166.192424 272.733333 
L -172.311364 272.733333 
z
" style="fill:#d95f02;opacity:0.6;stroke:#000000;stroke-linejoin:miter;stroke-width:0.5;"/>
   </g>
   <g id="patch_59">
    <path clip-path="url(#pa1adf35392)" d="M -166.192424 272.733333 
L -160.073485 272.733333 
L -160.073485 272.733333 
L -166.192424 272.733333 
z
" style="fill:#d95f02;opacity:0.6;stroke:#000000;stroke-linejoin:miter;stroke-width:0.5;"/>
   </g>
   <g id="patch_60">
    <path clip-path="url(#pa1adf35392)" d="M -160.073485 272.733333 
L -153.954545 272.733333 
L -153.954545 272.733333 
L -160.073485 272.733333 
z
" style="fill:#d95f02;opacity:0.6;stroke:#000000;stroke-linejoin:miter;stroke-width:0.5;"/>
   </g>
   <g id="patch_61">
    <path clip-path="url(#pa1adf35392)" d="M -153.954545 272.733333 
L -147.835606 272.733333 
L -147.835606 272.733333 
L -153.954545 272.733333 
z
" style="fill:#d95f02;opacity:0.6;stroke:#000000;stroke-linejoin:miter;stroke-width:0.5;"/>
   </g>
   <g id="patch_62">
    <path clip-path="url(#pa1adf35392)" d="M -147.835606 272.733333 
L -141.716667 272.733333 
L -141.716667 272.733333 
L -147.835606 272.733333 
z
" style="fill:#d95f02;opacity:0.6;stroke:#000000;stroke-linejoin:miter;stroke-width:0.5;"/>
   </g>
   <g id="patch_63">
    <path clip-path="url(#pa1adf35392)" d="M -141.716667 272.733333 
L -135.597727 272.733333 
L -135.597727 272.733333 
L -141.716667 272.733333 
z
" style="fill:#d95f02;opacity:0.6;stroke:#000000;stroke-linejoin:miter;stroke-width:0.5;"/>
   </g>
   <g id="patch_64">
    <path clip-path="url(#pa1adf35392)" d="M -135.597727 272.733333 
L -129.478788 272.733333 
L -129.478788 272.733333 
L -135.597727 272.733333 
z
" style="fill:#d95f02;opacity:0.6;stroke:#000000;stroke-linejoin:miter;stroke-width:0.5;"/>
   </g>
   <g id="patch_65">
    <path clip-path="url(#pa1adf35392)" d="M -129.478788 272.733333 
L -123.359848 272.733333 
L -123.359848 272.733333 
L -129.478788 272.733333 
z
" style="fill:#d95f02;opacity:0.6;stroke:#000000;stroke-linejoin:miter;stroke-width:0.5;"/>
   </g>
   <g id="patch_66">
    <path clip-path="url(#pa1adf35392)" d="M -123.359848 272.733333 
L -117.240909 272.733333 
L -117.240909 272.733333 
L -123.359848 272.733333 
z
" style="fill:#d95f02;opacity:0.6;stroke:#000000;stroke-linejoin:miter;stroke-width:0.5;"/>
   </g>
   <g id="patch_67">
    <path clip-path="url(#pa1adf35392)" d="M -117.240909 272.733333 
L -111.12197 272.733333 
L -111.12197 272.733333 
L -117.240909 272.733333 
z
" style="fill:#d95f02;opacity:0.6;stroke:#000000;stroke-linejoin:miter;stroke-width:0.5;"/>
   </g>
   <g id="patch_68">
    <path clip-path="url(#pa1adf35392)" d="M -111.12197 272.733333 
L -105.00303 272.733333 
L -105.00303 272.733333 
L -111.12197 272.733333 
z
" style="fill:#d95f02;opacity:0.6;stroke:#000000;stroke-linejoin:miter;stroke-width:0.5;"/>
   </g>
   <g id="patch_69">
    <path clip-path="url(#pa1adf35392)" d="M -105.00303 272.733333 
L -98.884091 272.733333 
L -98.884091 272.733333 
L -105.00303 272.733333 
z
" style="fill:#d95f02;opacity:0.6;stroke:#000000;stroke-linejoin:miter;stroke-width:0.5;"/>
   </g>
   <g id="patch_70">
    <path clip-path="url(#pa1adf35392)" d="M -98.884091 272.733333 
L -92.765152 272.733333 
L -92.765152 268.279203 
L -98.884091 268.279203 
z
" style="fill:#d95f02;opacity:0.6;stroke:#000000;stroke-linejoin:miter;stroke-width:0.5;"/>
   </g>
   <g id="patch_71">
    <path clip-path="url(#pa1adf35392)" d="M -92.765152 272.733333 
L -86.646212 272.733333 
L -86.646212 254.916814 
L -92.765152 254.916814 
z
" style="fill:#d95f02;opacity:0.6;stroke:#000000;stroke-linejoin:miter;stroke-width:0.5;"/>
   </g>
   <g id="patch_72">
    <path clip-path="url(#pa1adf35392)" d="M -86.646212 272.733333 
L -80.527273 272.733333 
L -80.527273 197.013125 
L -86.646212 197.013125 
z
" style="fill:#d95f02;opacity:0.6;stroke:#000000;stroke-linejoin:miter;stroke-width:0.5;"/>
   </g>
   <g id="patch_73">
    <path clip-path="url(#pa1adf35392)" d="M -80.527273 272.733333 
L -74.408333 272.733333 
L -74.408333 129.31035 
L -80.527273 129.31035 
z
" style="fill:#d95f02;opacity:0.6;stroke:#000000;stroke-linejoin:miter;stroke-width:0.5;"/>
   </g>
   <g id="patch_74">
    <path clip-path="url(#pa1adf35392)" d="M -74.408333 272.733333 
L -68.289394 272.733333 
L -68.289394 153.362652 
L -74.408333 153.362652 
z
" style="fill:#d95f02;opacity:0.6;stroke:#000000;stroke-linejoin:miter;stroke-width:0.5;"/>
   </g>
   <g id="patch_75">
    <path clip-path="url(#pa1adf35392)" d="M -68.289394 272.733333 
L -62.170455 272.733333 
L -62.170455 209.484688 
L -68.289394 209.484688 
z
" style="fill:#d95f02;opacity:0.6;stroke:#000000;stroke-linejoin:miter;stroke-width:0.5;"/>
   </g>
   <g id="patch_76">
    <path clip-path="url(#pa1adf35392)" d="M -62.170455 272.733333 
L -56.051515 272.733333 
L -56.051515 243.336076 
L -62.170455 243.336076 
z
" style="fill:#d95f02;opacity:0.6;stroke:#000000;stroke-linejoin:miter;stroke-width:0.5;"/>
   </g>
   <g id="patch_77">
    <path clip-path="url(#pa1adf35392)" d="M -56.051515 272.733333 
L -49.932576 272.733333 
L -49.932576 248.681032 
L -56.051515 248.681032 
z
" style="fill:#d95f02;opacity:0.6;stroke:#000000;stroke-linejoin:miter;stroke-width:0.5;"/>
   </g>
   <g id="patch_78">
    <path clip-path="url(#pa1adf35392)" d="M -49.932576 272.733333 
L -43.813636 272.733333 
L -43.813636 263.825073 
L -49.932576 263.825073 
z
" style="fill:#d95f02;opacity:0.6;stroke:#000000;stroke-linejoin:miter;stroke-width:0.5;"/>
   </g>
   <g id="patch_79">
    <path clip-path="url(#pa1adf35392)" d="M -43.813636 272.733333 
L -37.694697 272.733333 
L -37.694697 262.043422 
L -43.813636 262.043422 
z
" style="fill:#d95f02;opacity:0.6;stroke:#000000;stroke-linejoin:miter;stroke-width:0.5;"/>
   </g>
   <g id="patch_80">
    <path clip-path="url(#pa1adf35392)" d="M -37.694697 272.733333 
L -31.575758 272.733333 
L -31.575758 227.301208 
L -37.694697 227.301208 
z
" style="fill:#d95f02;opacity:0.6;stroke:#000000;stroke-linejoin:miter;stroke-width:0.5;"/>
   </g>
   <g id="patch_81">
    <path clip-path="url(#pa1adf35392)" d="M -31.575758 272.733333 
L -25.456818 272.733333 
L -25.456818 148.908522 
L -31.575758 148.908522 
z
" style="fill:#d95f02;opacity:0.6;stroke:#000000;stroke-linejoin:miter;stroke-width:0.5;"/>
   </g>
   <g id="patch_82">
    <path clip-path="url(#pa1adf35392)" d="M -25.456818 272.733333 
L -19.337879 272.733333 
L -19.337879 257.589292 
L -25.456818 257.589292 
z
" style="fill:#d95f02;opacity:0.6;stroke:#000000;stroke-linejoin:miter;stroke-width:0.5;"/>
   </g>
   <g id="matplotlib.axis_1">
    <g id="xtick_1">
     <g id="line2d_1">
      <defs>
       <path d="M 0 0 
L 0 3.5 
" id="m3da68ad477" style="stroke:#000000;stroke-width:1.6;"/>
      </defs>
      <g/>
     </g>
     <g id="text_1">
      <!-- 0.0 -->
      <defs>
       <path d="M 31.78125 66.40625 
Q 24.171875 66.40625 20.328125 58.90625 
Q 16.5 51.421875 16.5 36.375 
Q 16.5 21.390625 20.328125 13.890625 
Q 24.171875 6.390625 31.78125 6.390625 
Q 39.453125 6.390625 43.28125 13.890625 
Q 47.125 21.390625 47.125 36.375 
Q 47.125 51.421875 43.28125 58.90625 
Q 39.453125 66.40625 31.78125 66.40625 
z
M 31.78125 74.21875 
Q 44.046875 74.21875 50.515625 64.515625 
Q 56.984375 54.828125 56.984375 36.375 
Q 56.984375 17.96875 50.515625 8.265625 
Q 44.046875 -1.421875 31.78125 -1.421875 
Q 19.53125 -1.421875 13.0625 8.265625 
Q 6.59375 17.96875 6.59375 36.375 
Q 6.59375 54.828125 13.0625 64.515625 
Q 19.53125 74.21875 31.78125 74.21875 
z
" id="DejaVuSans-48"/>
       <path d="M 10.6875 12.40625 
L 21 12.40625 
L 21 0 
L 10.6875 0 
z
" id="DejaVuSans-46"/>
      </defs>
      <g transform="translate(-279.99858 302.630208)scale(0.2 -0.2)">
       <use xlink:href="#DejaVuSans-48"/>
       <use x="63.623047" xlink:href="#DejaVuSans-46"/>
       <use x="95.410156" xlink:href="#DejaVuSans-48"/>
      </g>
     </g>
    </g>
    <g id="xtick_2">
     <g id="line2d_2">
      <g/>
     </g>
     <g id="text_2">
      <!-- 0.2 -->
      <defs>
       <path d="M 19.1875 8.296875 
L 53.609375 8.296875 
L 53.609375 0 
L 7.328125 0 
L 7.328125 8.296875 
Q 12.9375 14.109375 22.625 23.890625 
Q 32.328125 33.6875 34.8125 36.53125 
Q 39.546875 41.84375 41.421875 45.53125 
Q 43.3125 49.21875 43.3125 52.78125 
Q 43.3125 58.59375 39.234375 62.25 
Q 35.15625 65.921875 28.609375 65.921875 
Q 23.96875 65.921875 18.8125 64.3125 
Q 13.671875 62.703125 7.8125 59.421875 
L 7.8125 69.390625 
Q 13.765625 71.78125 18.9375 73 
Q 24.125 74.21875 28.421875 74.21875 
Q 39.75 74.21875 46.484375 68.546875 
Q 53.21875 62.890625 53.21875 53.421875 
Q 53.21875 48.921875 51.53125 44.890625 
Q 49.859375 40.875 45.40625 35.40625 
Q 44.1875 33.984375 37.640625 27.21875 
Q 31.109375 20.453125 19.1875 8.296875 
z
" id="DejaVuSans-50"/>
      </defs>
      <g transform="translate(-210.067844 302.630208)scale(0.2 -0.2)">
       <use xlink:href="#DejaVuSans-48"/>
       <use x="63.623047" xlink:href="#DejaVuSans-46"/>
       <use x="95.410156" xlink:href="#DejaVuSans-50"/>
      </g>
     </g>
    </g>
    <g id="xtick_3">
     <g id="line2d_3">
      <g/>
     </g>
     <g id="text_3">
      <!-- 0.4 -->
      <defs>
       <path d="M 37.796875 64.3125 
L 12.890625 25.390625 
L 37.796875 25.390625 
z
M 35.203125 72.90625 
L 47.609375 72.90625 
L 47.609375 25.390625 
L 58.015625 25.390625 
L 58.015625 17.1875 
L 47.609375 17.1875 
L 47.609375 0 
L 37.796875 0 
L 37.796875 17.1875 
L 4.890625 17.1875 
L 4.890625 26.703125 
z
" id="DejaVuSans-52"/>
      </defs>
      <g transform="translate(-140.137108 302.630208)scale(0.2 -0.2)">
       <use xlink:href="#DejaVuSans-48"/>
       <use x="63.623047" xlink:href="#DejaVuSans-46"/>
       <use x="95.410156" xlink:href="#DejaVuSans-52"/>
      </g>
     </g>
    </g>
    <g id="xtick_4">
     <g id="line2d_4">
      <g/>
     </g>
     <g id="text_4">
      <!-- 0.6 -->
      <defs>
       <path d="M 33.015625 40.375 
Q 26.375 40.375 22.484375 35.828125 
Q 18.609375 31.296875 18.609375 23.390625 
Q 18.609375 15.53125 22.484375 10.953125 
Q 26.375 6.390625 33.015625 6.390625 
Q 39.65625 6.390625 43.53125 10.953125 
Q 47.40625 15.53125 47.40625 23.390625 
Q 47.40625 31.296875 43.53125 35.828125 
Q 39.65625 40.375 33.015625 40.375 
z
M 52.59375 71.296875 
L 52.59375 62.3125 
Q 48.875 64.0625 45.09375 64.984375 
Q 41.3125 65.921875 37.59375 65.921875 
Q 27.828125 65.921875 22.671875 59.328125 
Q 17.53125 52.734375 16.796875 39.40625 
Q 19.671875 43.65625 24.015625 45.921875 
Q 28.375 48.1875 33.59375 48.1875 
Q 44.578125 48.1875 50.953125 41.515625 
Q 57.328125 34.859375 57.328125 23.390625 
Q 57.328125 12.15625 50.6875 5.359375 
Q 44.046875 -1.421875 33.015625 -1.421875 
Q 20.359375 -1.421875 13.671875 8.265625 
Q 6.984375 17.96875 6.984375 36.375 
Q 6.984375 53.65625 15.1875 63.9375 
Q 23.390625 74.21875 37.203125 74.21875 
Q 40.921875 74.21875 44.703125 73.484375 
Q 48.484375 72.75 52.59375 71.296875 
z
" id="DejaVuSans-54"/>
      </defs>
      <g transform="translate(-70.206372 302.630208)scale(0.2 -0.2)">
       <use xlink:href="#DejaVuSans-48"/>
       <use x="63.623047" xlink:href="#DejaVuSans-46"/>
       <use x="95.410156" xlink:href="#DejaVuSans-54"/>
      </g>
     </g>
    </g>
    <g id="text_5">
     <!--   -->
     <defs>
      <path id="DejaVuSans-32"/>
     </defs>
     <g transform="translate(-144.894792 325.986458)scale(0.2 -0.2)">
      <use xlink:href="#DejaVuSans-32"/>
     </g>
    </g>
   </g>
   <g id="matplotlib.axis_2">
    <g id="ytick_1">
     <g id="line2d_5">
      <defs>
       <path d="M 0 0 
L -3.5 0 
" id="m0c44b36ca4" style="stroke:#000000;stroke-width:1.6;"/>
      </defs>
      <g/>
     </g>
     <g id="text_6">
      <!-- 0.0 -->
      <g transform="translate(-322.839583 280.331771)scale(0.2 -0.2)">
       <use xlink:href="#DejaVuSans-48"/>
       <use x="63.623047" xlink:href="#DejaVuSans-46"/>
       <use x="95.410156" xlink:href="#DejaVuSans-48"/>
      </g>
     </g>
    </g>
    <g id="ytick_2">
     <g id="line2d_6">
      <g/>
     </g>
     <g id="text_7">
      <!-- 0.1 -->
      <defs>
       <path d="M 12.40625 8.296875 
L 28.515625 8.296875 
L 28.515625 63.921875 
L 10.984375 60.40625 
L 10.984375 69.390625 
L 28.421875 72.90625 
L 38.28125 72.90625 
L 38.28125 8.296875 
L 54.390625 8.296875 
L 54.390625 0 
L 12.40625 0 
z
" id="DejaVuSans-49"/>
      </defs>
      <g transform="translate(-322.839583 212.183583)scale(0.2 -0.2)">
       <use xlink:href="#DejaVuSans-48"/>
       <use x="63.623047" xlink:href="#DejaVuSans-46"/>
       <use x="95.410156" xlink:href="#DejaVuSans-49"/>
      </g>
     </g>
    </g>
    <g id="ytick_3">
     <g id="line2d_7">
      <g/>
     </g>
     <g id="text_8">
      <!-- 0.2 -->
      <g transform="translate(-322.839583 144.035395)scale(0.2 -0.2)">
       <use xlink:href="#DejaVuSans-48"/>
       <use x="63.623047" xlink:href="#DejaVuSans-46"/>
       <use x="95.410156" xlink:href="#DejaVuSans-50"/>
      </g>
     </g>
    </g>
    <g id="ytick_4">
     <g id="line2d_8">
      <g/>
     </g>
     <g id="text_9">
      <!-- 0.3 -->
      <defs>
       <path d="M 40.578125 39.3125 
Q 47.65625 37.796875 51.625 33 
Q 55.609375 28.21875 55.609375 21.1875 
Q 55.609375 10.40625 48.1875 4.484375 
Q 40.765625 -1.421875 27.09375 -1.421875 
Q 22.515625 -1.421875 17.65625 -0.515625 
Q 12.796875 0.390625 7.625 2.203125 
L 7.625 11.71875 
Q 11.71875 9.328125 16.59375 8.109375 
Q 21.484375 6.890625 26.8125 6.890625 
Q 36.078125 6.890625 40.9375 10.546875 
Q 45.796875 14.203125 45.796875 21.1875 
Q 45.796875 27.640625 41.28125 31.265625 
Q 36.765625 34.90625 28.71875 34.90625 
L 20.21875 34.90625 
L 20.21875 43.015625 
L 29.109375 43.015625 
Q 36.375 43.015625 40.234375 45.921875 
Q 44.09375 48.828125 44.09375 54.296875 
Q 44.09375 59.90625 40.109375 62.90625 
Q 36.140625 65.921875 28.71875 65.921875 
Q 24.65625 65.921875 20.015625 65.03125 
Q 15.375 64.15625 9.8125 62.3125 
L 9.8125 71.09375 
Q 15.4375 72.65625 20.34375 73.4375 
Q 25.25 74.21875 29.59375 74.21875 
Q 40.828125 74.21875 47.359375 69.109375 
Q 53.90625 64.015625 53.90625 55.328125 
Q 53.90625 49.265625 50.4375 45.09375 
Q 46.96875 40.921875 40.578125 39.3125 
z
" id="DejaVuSans-51"/>
      </defs>
      <g transform="translate(-322.839583 75.887208)scale(0.2 -0.2)">
       <use xlink:href="#DejaVuSans-48"/>
       <use x="63.623047" xlink:href="#DejaVuSans-46"/>
       <use x="95.410156" xlink:href="#DejaVuSans-51"/>
      </g>
     </g>
    </g>
    <g id="text_10">
     <!--   -->
     <g transform="translate(-330.499833 140.913417)rotate(-90)scale(0.176 -0.176)">
      <use xlink:href="#DejaVuSans-32"/>
     </g>
    </g>
   </g>
   <g id="patch_83">
    <path style="fill:none;stroke:#000000;stroke-linecap:square;stroke-linejoin:miter;stroke-width:0.8;"/>
   </g>
   <g id="patch_84">
    <path style="fill:none;stroke:#000000;stroke-linecap:square;stroke-linejoin:miter;stroke-width:0.8;"/>
   </g>
  </g>
  <g id="axes_2">
   <g id="patch_85">
    <path d="M 96.7 272.733333 
L 365.933333 272.733333 
L 365.933333 3.5 
L 96.7 3.5 
z
" style="fill:#ffffff;"/>
   </g>
   <g id="PolyCollection_1">
    <defs>
     <path d="M 292.230016 -308.690332 
L 292.230016 -310.791335 
L 292.940158 -310.944573 
L 293.6503 -311.111893 
L 294.360441 -311.293316 
L 295.070583 -311.488662 
L 295.780725 -311.697544 
L 296.490867 -311.919353 
L 297.201009 -312.153271 
L 297.911151 -312.398268 
L 298.621292 -312.653126 
L 299.331434 -312.916447 
L 300.041576 -313.186684 
L 300.751718 -313.462152 
L 301.46186 -313.741056 
L 302.172002 -314.021498 
L 302.882143 -314.30149 
L 303.592285 -314.578961 
L 304.302427 -314.851751 
L 305.012569 -315.117612 
L 305.722711 -315.374204 
L 306.432852 -315.619095 
L 307.142994 -315.849768 
L 307.853136 -316.06364 
L 308.563278 -316.258089 
L 309.27342 -316.430501 
L 309.983562 -316.57833 
L 310.693703 -316.699164 
L 311.403845 -316.790817 
L 312.113987 -316.851407 
L 312.824129 -316.879455 
L 313.534271 -316.873964 
L 314.244413 -316.834498 
L 314.954554 -316.76124 
L 315.664696 -316.655029 
L 316.374838 -316.517377 
L 317.08498 -316.350454 
L 317.795122 -316.157049 
L 318.505264 -315.940502 
L 319.215405 -315.704611 
L 319.925547 -315.453525 
L 320.635689 -315.191609 
L 321.345831 -314.923316 
L 322.055973 -314.653044 
L 322.766114 -314.385004 
L 323.476256 -314.123101 
L 324.186398 -313.870829 
L 324.89654 -313.631191 
L 325.606682 -313.406647 
L 326.316824 -313.199086 
L 327.026965 -313.009833 
L 327.737107 -312.839674 
L 328.447249 -312.688915 
L 329.157391 -312.55745 
L 329.867533 -312.444851 
L 330.577675 -312.350467 
L 331.287816 -312.27352 
L 331.997958 -312.213216 
L 332.7081 -312.168832 
L 333.418242 -312.139817 
L 334.128384 -312.125867 
L 334.838526 -312.127002 
L 335.548667 -312.143622 
L 336.258809 -312.17656 
L 336.968951 -312.227116 
L 337.679093 -312.297075 
L 338.389235 -312.388709 
L 339.099376 -312.504762 
L 339.809518 -312.648395 
L 340.51966 -312.823122 
L 341.229802 -313.032689 
L 341.939944 -313.280927 
L 342.650086 -313.57156 
L 343.360227 -313.907969 
L 344.070369 -314.292915 
L 344.780511 -314.728238 
L 345.490653 -315.21453 
L 346.200795 -315.750808 
L 346.910937 -316.334212 
L 347.621078 -316.959741 
L 348.33122 -317.620069 
L 349.041362 -318.305465 
L 349.751504 -319.003836 
L 350.461646 -319.700915 
L 351.171788 -320.380613 
L 351.881929 -321.025516 
L 352.592071 -321.617529 
L 353.302213 -322.138631 
L 354.012355 -322.5717 
L 354.722497 -322.901365 
L 355.432638 -323.11481 
L 356.14278 -323.2025 
L 356.852922 -323.158746 
L 357.563064 -322.982076 
L 358.273206 -322.675384 
L 358.983348 -322.245835 
L 359.693489 -321.704528 
L 360.403631 -321.06595 
L 361.113773 -320.347251 
L 361.823915 -319.567399 
L 362.534057 -318.746271 
L 362.534057 -300.735396 
L 362.534057 -300.735396 
L 361.823915 -299.914268 
L 361.113773 -299.134416 
L 360.403631 -298.415717 
L 359.693489 -297.777139 
L 358.983348 -297.235831 
L 358.273206 -296.806282 
L 357.563064 -296.499591 
L 356.852922 -296.322921 
L 356.14278 -296.279167 
L 355.432638 -296.366857 
L 354.722497 -296.580302 
L 354.012355 -296.909966 
L 353.302213 -297.343036 
L 352.592071 -297.864138 
L 351.881929 -298.456151 
L 351.171788 -299.101054 
L 350.461646 -299.780752 
L 349.751504 -300.477831 
L 349.041362 -301.176202 
L 348.33122 -301.861598 
L 347.621078 -302.521926 
L 346.910937 -303.147454 
L 346.200795 -303.730858 
L 345.490653 -304.267137 
L 344.780511 -304.753429 
L 344.070369 -305.188752 
L 343.360227 -305.573698 
L 342.650086 -305.910106 
L 341.939944 -306.20074 
L 341.229802 -306.448978 
L 340.51966 -306.658545 
L 339.809518 -306.833271 
L 339.099376 -306.976905 
L 338.389235 -307.092957 
L 337.679093 -307.184592 
L 336.968951 -307.254551 
L 336.258809 -307.305106 
L 335.548667 -307.338045 
L 334.838526 -307.354665 
L 334.128384 -307.355799 
L 333.418242 -307.341849 
L 332.7081 -307.312834 
L 331.997958 -307.268451 
L 331.287816 -307.208146 
L 330.577675 -307.1312 
L 329.867533 -307.036815 
L 329.157391 -306.924216 
L 328.447249 -306.792751 
L 327.737107 -306.641992 
L 327.026965 -306.471834 
L 326.316824 -306.282581 
L 325.606682 -306.07502 
L 324.89654 -305.850475 
L 324.186398 -305.610837 
L 323.476256 -305.358565 
L 322.766114 -305.096662 
L 322.055973 -304.828623 
L 321.345831 -304.558351 
L 320.635689 -304.290058 
L 319.925547 -304.028142 
L 319.215405 -303.777055 
L 318.505264 -303.541165 
L 317.795122 -303.324617 
L 317.08498 -303.131212 
L 316.374838 -302.96429 
L 315.664696 -302.826638 
L 314.954554 -302.720427 
L 314.244413 -302.647169 
L 313.534271 -302.607703 
L 312.824129 -302.602212 
L 312.113987 -302.63026 
L 311.403845 -302.69085 
L 310.693703 -302.782502 
L 309.983562 -302.903337 
L 309.27342 -303.051165 
L 308.563278 -303.223578 
L 307.853136 -303.418027 
L 307.142994 -303.631898 
L 306.432852 -303.862572 
L 305.722711 -304.107462 
L 305.012569 -304.364054 
L 304.302427 -304.629915 
L 303.592285 -304.902705 
L 302.882143 -305.180176 
L 302.172002 -305.460169 
L 301.46186 -305.740611 
L 300.751718 -306.019514 
L 300.041576 -306.294983 
L 299.331434 -306.56522 
L 298.621292 -306.828541 
L 297.911151 -307.083398 
L 297.201009 -307.328396 
L 296.490867 -307.562313 
L 295.780725 -307.784123 
L 295.070583 -307.993004 
L 294.360441 -308.188351 
L 293.6503 -308.369773 
L 292.940158 -308.537093 
L 292.230016 -308.690332 
z
" id="madba620cae" style="stroke:#424242;"/>
    </defs>
    <g clip-path="url(#p4caed6f3f3)">
     <use style="fill:#7c78ab;stroke:#424242;" x="0" xlink:href="#madba620cae" y="333.433333"/>
    </g>
   </g>
   <g id="PolyCollection_2">
    <defs>
     <path d="M 286.426484 -282.055391 
L 286.426484 -283.579609 
L 287.192672 -283.733181 
L 287.958859 -283.911319 
L 288.725047 -284.116721 
L 289.491235 -284.35205 
L 290.257423 -284.619821 
L 291.023611 -284.922258 
L 291.789799 -285.261148 
L 292.555986 -285.637685 
L 293.322174 -286.05232 
L 294.088362 -286.504628 
L 294.85455 -286.993204 
L 295.620738 -287.515579 
L 296.386926 -288.068181 
L 297.153114 -288.646331 
L 297.919301 -289.244273 
L 298.685489 -289.855243 
L 299.451677 -290.471573 
L 300.217865 -291.084829 
L 300.984053 -291.685985 
L 301.750241 -292.265625 
L 302.516428 -292.814182 
L 303.282616 -293.3222 
L 304.048804 -293.780616 
L 304.814992 -294.181061 
L 305.58118 -294.516142 
L 306.347368 -294.779725 
L 307.113555 -294.967164 
L 307.879743 -295.075495 
L 308.645931 -295.103551 
L 309.412119 -295.052015 
L 310.178307 -294.923388 
L 310.944495 -294.721881 
L 311.710682 -294.453238 
L 312.47687 -294.124502 
L 313.243058 -293.743732 
L 314.009246 -293.319697 
L 314.775434 -292.861557 
L 315.541622 -292.378549 
L 316.307809 -291.879697 
L 317.073997 -291.373551 
L 317.840185 -290.867968 
L 318.606373 -290.369941 
L 319.372561 -289.885476 
L 320.138749 -289.419515 
L 320.904936 -288.975907 
L 321.671124 -288.557417 
L 322.437312 -288.165773 
L 323.2035 -287.80174 
L 323.969688 -287.46522 
L 324.735876 -287.155376 
L 325.502064 -286.87077 
L 326.268251 -286.609512 
L 327.034439 -286.369419 
L 327.800627 -286.148173 
L 328.566815 -285.943476 
L 329.333003 -285.753193 
L 330.099191 -285.57548 
L 330.865378 -285.408879 
L 331.631566 -285.252403 
L 332.397754 -285.105577 
L 333.163942 -284.968466 
L 333.93013 -284.84167 
L 334.696318 -284.726305 
L 335.462505 -284.623974 
L 336.228693 -284.536726 
L 336.994881 -284.467008 
L 337.761069 -284.417617 
L 338.527257 -284.391642 
L 339.293445 -284.392391 
L 340.059632 -284.423308 
L 340.82582 -284.48785 
L 341.592008 -284.589347 
L 342.358196 -284.730808 
L 343.124384 -284.914704 
L 343.890572 -285.14271 
L 344.656759 -285.415424 
L 345.422947 -285.732086 
L 346.189135 -286.090302 
L 346.955323 -286.485824 
L 347.721511 -286.912384 
L 348.487699 -287.36164 
L 349.253887 -287.823237 
L 350.020074 -288.285014 
L 350.786262 -288.733369 
L 351.55245 -289.153762 
L 352.318638 -289.531364 
L 353.084826 -289.851796 
L 353.851014 -290.101922 
L 354.617201 -290.270647 
L 355.383389 -290.34963 
L 356.149577 -290.333871 
L 356.915765 -290.222105 
L 357.681953 -290.016959 
L 358.448141 -289.724849 
L 359.214328 -289.355621 
L 359.980516 -288.921959 
L 360.746704 -288.438616 
L 361.512892 -287.921521 
L 362.27908 -287.386859 
L 362.27908 -278.248141 
L 362.27908 -278.248141 
L 361.512892 -277.713479 
L 360.746704 -277.196384 
L 359.980516 -276.713041 
L 359.214328 -276.279379 
L 358.448141 -275.910151 
L 357.681953 -275.618041 
L 356.915765 -275.412895 
L 356.149577 -275.301129 
L 355.383389 -275.28537 
L 354.617201 -275.364353 
L 353.851014 -275.533078 
L 353.084826 -275.783204 
L 352.318638 -276.103636 
L 351.55245 -276.481238 
L 350.786262 -276.901631 
L 350.020074 -277.349986 
L 349.253887 -277.811763 
L 348.487699 -278.27336 
L 347.721511 -278.722616 
L 346.955323 -279.149176 
L 346.189135 -279.544698 
L 345.422947 -279.902914 
L 344.656759 -280.219576 
L 343.890572 -280.49229 
L 343.124384 -280.720296 
L 342.358196 -280.904192 
L 341.592008 -281.045653 
L 340.82582 -281.14715 
L 340.059632 -281.211692 
L 339.293445 -281.242609 
L 338.527257 -281.243358 
L 337.761069 -281.217383 
L 336.994881 -281.167992 
L 336.228693 -281.098274 
L 335.462505 -281.011026 
L 334.696318 -280.908695 
L 333.93013 -280.79333 
L 333.163942 -280.666534 
L 332.397754 -280.529423 
L 331.631566 -280.382597 
L 330.865378 -280.226121 
L 330.099191 -280.05952 
L 329.333003 -279.881807 
L 328.566815 -279.691524 
L 327.800627 -279.486827 
L 327.034439 -279.265581 
L 326.268251 -279.025488 
L 325.502064 -278.76423 
L 324.735876 -278.479624 
L 323.969688 -278.16978 
L 323.2035 -277.83326 
L 322.437312 -277.469227 
L 321.671124 -277.077583 
L 320.904936 -276.659093 
L 320.138749 -276.215485 
L 319.372561 -275.749524 
L 318.606373 -275.265059 
L 317.840185 -274.767032 
L 317.073997 -274.261449 
L 316.307809 -273.755303 
L 315.541622 -273.256451 
L 314.775434 -272.773443 
L 314.009246 -272.315303 
L 313.243058 -271.891268 
L 312.47687 -271.510498 
L 311.710682 -271.181762 
L 310.944495 -270.913119 
L 310.178307 -270.711612 
L 309.412119 -270.582985 
L 308.645931 -270.531449 
L 307.879743 -270.559505 
L 307.113555 -270.667836 
L 306.347368 -270.855275 
L 305.58118 -271.118858 
L 304.814992 -271.453939 
L 304.048804 -271.854384 
L 303.282616 -272.3128 
L 302.516428 -272.820818 
L 301.750241 -273.369375 
L 300.984053 -273.949015 
L 300.217865 -274.550171 
L 299.451677 -275.163427 
L 298.685489 -275.779757 
L 297.919301 -276.390727 
L 297.153114 -276.988669 
L 296.386926 -277.566819 
L 295.620738 -278.119421 
L 294.85455 -278.641796 
L 294.088362 -279.130372 
L 293.322174 -279.58268 
L 292.555986 -279.997315 
L 291.789799 -280.373852 
L 291.023611 -280.712742 
L 290.257423 -281.015179 
L 289.491235 -281.28295 
L 288.725047 -281.518279 
L 287.958859 -281.723681 
L 287.192672 -281.901819 
L 286.426484 -282.055391 
z
" id="mf0801fecfe" style="stroke:#424242;"/>
    </defs>
    <g clip-path="url(#p4caed6f3f3)">
     <use style="fill:#be631d;stroke:#424242;" x="0" xlink:href="#mf0801fecfe" y="333.433333"/>
    </g>
   </g>
   <g id="patch_86">
    <path clip-path="url(#p4caed6f3f3)" d="M 114.648889 37.154167 
L 114.648889 37.154167 
L 114.648889 37.154167 
L 114.648889 37.154167 
z
" style="fill:#7c78ab;stroke:#424242;stroke-linejoin:miter;stroke-width:0.5;"/>
   </g>
   <g id="patch_87">
    <path clip-path="url(#p4caed6f3f3)" d="M 114.648889 37.154167 
L 114.648889 37.154167 
L 114.648889 37.154167 
L 114.648889 37.154167 
z
" style="fill:#be631d;stroke:#424242;stroke-linejoin:miter;stroke-width:0.5;"/>
   </g>
   <g id="matplotlib.axis_3">
    <g id="xtick_5">
     <g id="line2d_9">
      <g>
       <use style="stroke:#000000;stroke-width:1.6;" x="114.648889" xlink:href="#m3da68ad477" y="272.733333"/>
      </g>
     </g>
     <g id="text_11">
      <!-- 0.0 -->
      <g transform="translate(98.745764 302.630208)scale(0.2 -0.2)">
       <use xlink:href="#DejaVuSans-48"/>
       <use x="63.623047" xlink:href="#DejaVuSans-46"/>
       <use x="95.410156" xlink:href="#DejaVuSans-48"/>
      </g>
     </g>
    </g>
    <g id="xtick_6">
     <g id="line2d_10">
      <g>
       <use style="stroke:#000000;stroke-width:1.6;" x="186.444444" xlink:href="#m3da68ad477" y="272.733333"/>
      </g>
     </g>
     <g id="text_12">
      <!-- 0.2 -->
      <g transform="translate(170.541319 302.630208)scale(0.2 -0.2)">
       <use xlink:href="#DejaVuSans-48"/>
       <use x="63.623047" xlink:href="#DejaVuSans-46"/>
       <use x="95.410156" xlink:href="#DejaVuSans-50"/>
      </g>
     </g>
    </g>
    <g id="xtick_7">
     <g id="line2d_11">
      <g>
       <use style="stroke:#000000;stroke-width:1.6;" x="258.24" xlink:href="#m3da68ad477" y="272.733333"/>
      </g>
     </g>
     <g id="text_13">
      <!-- 0.4 -->
      <g transform="translate(242.336875 302.630208)scale(0.2 -0.2)">
       <use xlink:href="#DejaVuSans-48"/>
       <use x="63.623047" xlink:href="#DejaVuSans-46"/>
       <use x="95.410156" xlink:href="#DejaVuSans-52"/>
      </g>
     </g>
    </g>
    <g id="xtick_8">
     <g id="line2d_12">
      <g>
       <use style="stroke:#000000;stroke-width:1.6;" x="330.035556" xlink:href="#m3da68ad477" y="272.733333"/>
      </g>
     </g>
     <g id="text_14">
      <!-- 0.6 -->
      <g transform="translate(314.132431 302.630208)scale(0.2 -0.2)">
       <use xlink:href="#DejaVuSans-48"/>
       <use x="63.623047" xlink:href="#DejaVuSans-46"/>
       <use x="95.410156" xlink:href="#DejaVuSans-54"/>
      </g>
     </g>
    </g>
    <g id="text_15">
     <!-- Max JS Divergence within $\epsilon$ -->
     <defs>
      <path d="M 9.8125 72.90625 
L 24.515625 72.90625 
L 43.109375 23.296875 
L 61.8125 72.90625 
L 76.515625 72.90625 
L 76.515625 0 
L 66.890625 0 
L 66.890625 64.015625 
L 48.09375 14.015625 
L 38.1875 14.015625 
L 19.390625 64.015625 
L 19.390625 0 
L 9.8125 0 
z
" id="DejaVuSans-77"/>
      <path d="M 34.28125 27.484375 
Q 23.390625 27.484375 19.1875 25 
Q 14.984375 22.515625 14.984375 16.5 
Q 14.984375 11.71875 18.140625 8.90625 
Q 21.296875 6.109375 26.703125 6.109375 
Q 34.1875 6.109375 38.703125 11.40625 
Q 43.21875 16.703125 43.21875 25.484375 
L 43.21875 27.484375 
z
M 52.203125 31.203125 
L 52.203125 0 
L 43.21875 0 
L 43.21875 8.296875 
Q 40.140625 3.328125 35.546875 0.953125 
Q 30.953125 -1.421875 24.3125 -1.421875 
Q 15.921875 -1.421875 10.953125 3.296875 
Q 6 8.015625 6 15.921875 
Q 6 25.140625 12.171875 29.828125 
Q 18.359375 34.515625 30.609375 34.515625 
L 43.21875 34.515625 
L 43.21875 35.40625 
Q 43.21875 41.609375 39.140625 45 
Q 35.0625 48.390625 27.6875 48.390625 
Q 23 48.390625 18.546875 47.265625 
Q 14.109375 46.140625 10.015625 43.890625 
L 10.015625 52.203125 
Q 14.9375 54.109375 19.578125 55.046875 
Q 24.21875 56 28.609375 56 
Q 40.484375 56 46.34375 49.84375 
Q 52.203125 43.703125 52.203125 31.203125 
z
" id="DejaVuSans-97"/>
      <path d="M 54.890625 54.6875 
L 35.109375 28.078125 
L 55.90625 0 
L 45.3125 0 
L 29.390625 21.484375 
L 13.484375 0 
L 2.875 0 
L 24.125 28.609375 
L 4.6875 54.6875 
L 15.28125 54.6875 
L 29.78125 35.203125 
L 44.28125 54.6875 
z
" id="DejaVuSans-120"/>
      <path d="M 9.8125 72.90625 
L 19.671875 72.90625 
L 19.671875 5.078125 
Q 19.671875 -8.109375 14.671875 -14.0625 
Q 9.671875 -20.015625 -1.421875 -20.015625 
L -5.171875 -20.015625 
L -5.171875 -11.71875 
L -2.09375 -11.71875 
Q 4.4375 -11.71875 7.125 -8.046875 
Q 9.8125 -4.390625 9.8125 5.078125 
z
" id="DejaVuSans-74"/>
      <path d="M 53.515625 70.515625 
L 53.515625 60.890625 
Q 47.90625 63.578125 42.921875 64.890625 
Q 37.9375 66.21875 33.296875 66.21875 
Q 25.25 66.21875 20.875 63.09375 
Q 16.5 59.96875 16.5 54.203125 
Q 16.5 49.359375 19.40625 46.890625 
Q 22.3125 44.4375 30.421875 42.921875 
L 36.375 41.703125 
Q 47.40625 39.59375 52.65625 34.296875 
Q 57.90625 29 57.90625 20.125 
Q 57.90625 9.515625 50.796875 4.046875 
Q 43.703125 -1.421875 29.984375 -1.421875 
Q 24.8125 -1.421875 18.96875 -0.25 
Q 13.140625 0.921875 6.890625 3.21875 
L 6.890625 13.375 
Q 12.890625 10.015625 18.65625 8.296875 
Q 24.421875 6.59375 29.984375 6.59375 
Q 38.421875 6.59375 43.015625 9.90625 
Q 47.609375 13.234375 47.609375 19.390625 
Q 47.609375 24.75 44.3125 27.78125 
Q 41.015625 30.8125 33.5 32.328125 
L 27.484375 33.5 
Q 16.453125 35.6875 11.515625 40.375 
Q 6.59375 45.0625 6.59375 53.421875 
Q 6.59375 63.09375 13.40625 68.65625 
Q 20.21875 74.21875 32.171875 74.21875 
Q 37.3125 74.21875 42.625 73.28125 
Q 47.953125 72.359375 53.515625 70.515625 
z
" id="DejaVuSans-83"/>
      <path d="M 19.671875 64.796875 
L 19.671875 8.109375 
L 31.59375 8.109375 
Q 46.6875 8.109375 53.6875 14.9375 
Q 60.6875 21.78125 60.6875 36.53125 
Q 60.6875 51.171875 53.6875 57.984375 
Q 46.6875 64.796875 31.59375 64.796875 
z
M 9.8125 72.90625 
L 30.078125 72.90625 
Q 51.265625 72.90625 61.171875 64.09375 
Q 71.09375 55.28125 71.09375 36.53125 
Q 71.09375 17.671875 61.125 8.828125 
Q 51.171875 0 30.078125 0 
L 9.8125 0 
z
" id="DejaVuSans-68"/>
      <path d="M 9.421875 54.6875 
L 18.40625 54.6875 
L 18.40625 0 
L 9.421875 0 
z
M 9.421875 75.984375 
L 18.40625 75.984375 
L 18.40625 64.59375 
L 9.421875 64.59375 
z
" id="DejaVuSans-105"/>
      <path d="M 2.984375 54.6875 
L 12.5 54.6875 
L 29.59375 8.796875 
L 46.6875 54.6875 
L 56.203125 54.6875 
L 35.6875 0 
L 23.484375 0 
z
" id="DejaVuSans-118"/>
      <path d="M 56.203125 29.59375 
L 56.203125 25.203125 
L 14.890625 25.203125 
Q 15.484375 15.921875 20.484375 11.0625 
Q 25.484375 6.203125 34.421875 6.203125 
Q 39.59375 6.203125 44.453125 7.46875 
Q 49.3125 8.734375 54.109375 11.28125 
L 54.109375 2.78125 
Q 49.265625 0.734375 44.1875 -0.34375 
Q 39.109375 -1.421875 33.890625 -1.421875 
Q 20.796875 -1.421875 13.15625 6.1875 
Q 5.515625 13.8125 5.515625 26.8125 
Q 5.515625 40.234375 12.765625 48.109375 
Q 20.015625 56 32.328125 56 
Q 43.359375 56 49.78125 48.890625 
Q 56.203125 41.796875 56.203125 29.59375 
z
M 47.21875 32.234375 
Q 47.125 39.59375 43.09375 43.984375 
Q 39.0625 48.390625 32.421875 48.390625 
Q 24.90625 48.390625 20.390625 44.140625 
Q 15.875 39.890625 15.1875 32.171875 
z
" id="DejaVuSans-101"/>
      <path d="M 41.109375 46.296875 
Q 39.59375 47.171875 37.8125 47.578125 
Q 36.03125 48 33.890625 48 
Q 26.265625 48 22.1875 43.046875 
Q 18.109375 38.09375 18.109375 28.8125 
L 18.109375 0 
L 9.078125 0 
L 9.078125 54.6875 
L 18.109375 54.6875 
L 18.109375 46.1875 
Q 20.953125 51.171875 25.484375 53.578125 
Q 30.03125 56 36.53125 56 
Q 37.453125 56 38.578125 55.875 
Q 39.703125 55.765625 41.0625 55.515625 
z
" id="DejaVuSans-114"/>
      <path d="M 45.40625 27.984375 
Q 45.40625 37.75 41.375 43.109375 
Q 37.359375 48.484375 30.078125 48.484375 
Q 22.859375 48.484375 18.828125 43.109375 
Q 14.796875 37.75 14.796875 27.984375 
Q 14.796875 18.265625 18.828125 12.890625 
Q 22.859375 7.515625 30.078125 7.515625 
Q 37.359375 7.515625 41.375 12.890625 
Q 45.40625 18.265625 45.40625 27.984375 
z
M 54.390625 6.78125 
Q 54.390625 -7.171875 48.1875 -13.984375 
Q 42 -20.796875 29.203125 -20.796875 
Q 24.46875 -20.796875 20.265625 -20.09375 
Q 16.0625 -19.390625 12.109375 -17.921875 
L 12.109375 -9.1875 
Q 16.0625 -11.328125 19.921875 -12.34375 
Q 23.78125 -13.375 27.78125 -13.375 
Q 36.625 -13.375 41.015625 -8.765625 
Q 45.40625 -4.15625 45.40625 5.171875 
L 45.40625 9.625 
Q 42.625 4.78125 38.28125 2.390625 
Q 33.9375 0 27.875 0 
Q 17.828125 0 11.671875 7.65625 
Q 5.515625 15.328125 5.515625 27.984375 
Q 5.515625 40.671875 11.671875 48.328125 
Q 17.828125 56 27.875 56 
Q 33.9375 56 38.28125 53.609375 
Q 42.625 51.21875 45.40625 46.390625 
L 45.40625 54.6875 
L 54.390625 54.6875 
z
" id="DejaVuSans-103"/>
      <path d="M 54.890625 33.015625 
L 54.890625 0 
L 45.90625 0 
L 45.90625 32.71875 
Q 45.90625 40.484375 42.875 44.328125 
Q 39.84375 48.1875 33.796875 48.1875 
Q 26.515625 48.1875 22.3125 43.546875 
Q 18.109375 38.921875 18.109375 30.90625 
L 18.109375 0 
L 9.078125 0 
L 9.078125 54.6875 
L 18.109375 54.6875 
L 18.109375 46.1875 
Q 21.34375 51.125 25.703125 53.5625 
Q 30.078125 56 35.796875 56 
Q 45.21875 56 50.046875 50.171875 
Q 54.890625 44.34375 54.890625 33.015625 
z
" id="DejaVuSans-110"/>
      <path d="M 48.78125 52.59375 
L 48.78125 44.1875 
Q 44.96875 46.296875 41.140625 47.34375 
Q 37.3125 48.390625 33.40625 48.390625 
Q 24.65625 48.390625 19.8125 42.84375 
Q 14.984375 37.3125 14.984375 27.296875 
Q 14.984375 17.28125 19.8125 11.734375 
Q 24.65625 6.203125 33.40625 6.203125 
Q 37.3125 6.203125 41.140625 7.25 
Q 44.96875 8.296875 48.78125 10.40625 
L 48.78125 2.09375 
Q 45.015625 0.34375 40.984375 -0.53125 
Q 36.96875 -1.421875 32.421875 -1.421875 
Q 20.0625 -1.421875 12.78125 6.34375 
Q 5.515625 14.109375 5.515625 27.296875 
Q 5.515625 40.671875 12.859375 48.328125 
Q 20.21875 56 33.015625 56 
Q 37.15625 56 41.109375 55.140625 
Q 45.0625 54.296875 48.78125 52.59375 
z
" id="DejaVuSans-99"/>
      <path d="M 4.203125 54.6875 
L 13.1875 54.6875 
L 24.421875 12.015625 
L 35.59375 54.6875 
L 46.1875 54.6875 
L 57.421875 12.015625 
L 68.609375 54.6875 
L 77.59375 54.6875 
L 63.28125 0 
L 52.6875 0 
L 40.921875 44.828125 
L 29.109375 0 
L 18.5 0 
z
" id="DejaVuSans-119"/>
      <path d="M 18.3125 70.21875 
L 18.3125 54.6875 
L 36.8125 54.6875 
L 36.8125 47.703125 
L 18.3125 47.703125 
L 18.3125 18.015625 
Q 18.3125 11.328125 20.140625 9.421875 
Q 21.96875 7.515625 27.59375 7.515625 
L 36.8125 7.515625 
L 36.8125 0 
L 27.59375 0 
Q 17.1875 0 13.234375 3.875 
Q 9.28125 7.765625 9.28125 18.015625 
L 9.28125 47.703125 
L 2.6875 47.703125 
L 2.6875 54.6875 
L 9.28125 54.6875 
L 9.28125 70.21875 
z
" id="DejaVuSans-116"/>
      <path d="M 54.890625 33.015625 
L 54.890625 0 
L 45.90625 0 
L 45.90625 32.71875 
Q 45.90625 40.484375 42.875 44.328125 
Q 39.84375 48.1875 33.796875 48.1875 
Q 26.515625 48.1875 22.3125 43.546875 
Q 18.109375 38.921875 18.109375 30.90625 
L 18.109375 0 
L 9.078125 0 
L 9.078125 75.984375 
L 18.109375 75.984375 
L 18.109375 46.1875 
Q 21.34375 51.125 25.703125 53.5625 
Q 30.078125 56 35.796875 56 
Q 45.21875 56 50.046875 50.171875 
Q 54.890625 44.34375 54.890625 33.015625 
z
" id="DejaVuSans-104"/>
      <path d="M 19.734375 29.5 
Q 14.453125 30.671875 12.15625 33.84375 
Q 10.453125 36.078125 10.453125 39.109375 
Q 10.453125 47.40625 18.359375 52.25 
Q 24.609375 56.0625 34.1875 56.0625 
Q 37.890625 56.0625 41.9375 55.46875 
Q 46 54.890625 50.53125 53.71875 
L 48.96875 45.5625 
Q 44.484375 46.96875 40.71875 47.609375 
Q 36.859375 48.25 33.40625 48.25 
Q 27.59375 48.25 23.78125 46 
Q 19.1875 43.3125 19.1875 39.40625 
Q 19.1875 36.8125 21.578125 35.015625 
Q 24.421875 32.859375 30.078125 32.859375 
L 37.640625 32.859375 
L 36.234375 25.4375 
L 29 25.4375 
Q 22.265625 25.4375 18.3125 22.953125 
Q 12.9375 19.578125 12.9375 14.3125 
Q 12.9375 10.984375 15.828125 8.796875 
Q 19.4375 6.0625 26.8125 6.0625 
Q 31.34375 6.0625 35.6875 6.9375 
Q 40.046875 7.859375 43.84375 9.671875 
L 42.1875 1.3125 
Q 37.546875 -0.046875 33.296875 -0.734375 
Q 29.046875 -1.421875 25.140625 -1.421875 
Q 13.53125 -1.421875 8.0625 3.03125 
Q 3.90625 6.453125 3.90625 12.203125 
Q 3.90625 19.96875 9.375 24.75 
Q 13.421875 28.328125 19.734375 29.5 
z
" id="DejaVuSans-Oblique-949"/>
     </defs>
     <g transform="translate(95.716667 325.989583)scale(0.2 -0.2)">
      <use transform="translate(0 0.015625)" xlink:href="#DejaVuSans-77"/>
      <use transform="translate(86.279297 0.015625)" xlink:href="#DejaVuSans-97"/>
      <use transform="translate(147.558594 0.015625)" xlink:href="#DejaVuSans-120"/>
      <use transform="translate(206.738281 0.015625)" xlink:href="#DejaVuSans-32"/>
      <use transform="translate(238.525391 0.015625)" xlink:href="#DejaVuSans-74"/>
      <use transform="translate(268.017578 0.015625)" xlink:href="#DejaVuSans-83"/>
      <use transform="translate(331.494141 0.015625)" xlink:href="#DejaVuSans-32"/>
      <use transform="translate(363.28125 0.015625)" xlink:href="#DejaVuSans-68"/>
      <use transform="translate(440.283203 0.015625)" xlink:href="#DejaVuSans-105"/>
      <use transform="translate(468.066406 0.015625)" xlink:href="#DejaVuSans-118"/>
      <use transform="translate(527.246094 0.015625)" xlink:href="#DejaVuSans-101"/>
      <use transform="translate(588.769531 0.015625)" xlink:href="#DejaVuSans-114"/>
      <use transform="translate(629.882812 0.015625)" xlink:href="#DejaVuSans-103"/>
      <use transform="translate(693.359375 0.015625)" xlink:href="#DejaVuSans-101"/>
      <use transform="translate(754.882812 0.015625)" xlink:href="#DejaVuSans-110"/>
      <use transform="translate(818.261719 0.015625)" xlink:href="#DejaVuSans-99"/>
      <use transform="translate(873.242188 0.015625)" xlink:href="#DejaVuSans-101"/>
      <use transform="translate(934.765625 0.015625)" xlink:href="#DejaVuSans-32"/>
      <use transform="translate(966.552734 0.015625)" xlink:href="#DejaVuSans-119"/>
      <use transform="translate(1048.339844 0.015625)" xlink:href="#DejaVuSans-105"/>
      <use transform="translate(1076.123047 0.015625)" xlink:href="#DejaVuSans-116"/>
      <use transform="translate(1115.332031 0.015625)" xlink:href="#DejaVuSans-104"/>
      <use transform="translate(1178.710938 0.015625)" xlink:href="#DejaVuSans-105"/>
      <use transform="translate(1206.494141 0.015625)" xlink:href="#DejaVuSans-110"/>
      <use transform="translate(1269.873047 0.015625)" xlink:href="#DejaVuSans-32"/>
      <use transform="translate(1301.660156 0.015625)" xlink:href="#DejaVuSans-Oblique-949"/>
     </g>
    </g>
   </g>
   <g id="matplotlib.axis_4">
    <g id="ytick_5">
     <g id="line2d_13">
      <g>
       <use style="stroke:#000000;stroke-width:1.6;" x="96.7" xlink:href="#m0c44b36ca4" y="37.154167"/>
      </g>
     </g>
     <g id="text_16">
      <!-- [0.00, -->
      <defs>
       <path d="M 8.59375 75.984375 
L 29.296875 75.984375 
L 29.296875 69 
L 17.578125 69 
L 17.578125 -6.203125 
L 29.296875 -6.203125 
L 29.296875 -13.1875 
L 8.59375 -13.1875 
z
" id="DejaVuSans-91"/>
       <path d="M 11.71875 12.40625 
L 22.015625 12.40625 
L 22.015625 4 
L 14.015625 -11.625 
L 7.71875 -11.625 
L 11.71875 4 
z
" id="DejaVuSans-44"/>
      </defs>
      <g transform="translate(23.309375 33.554792)scale(0.2 -0.2)">
       <use xlink:href="#DejaVuSans-91"/>
       <use x="39.013672" xlink:href="#DejaVuSans-48"/>
       <use x="102.636719" xlink:href="#DejaVuSans-46"/>
       <use x="134.423828" xlink:href="#DejaVuSans-48"/>
       <use x="198.046875" xlink:href="#DejaVuSans-48"/>
       <use x="261.669922" xlink:href="#DejaVuSans-44"/>
      </g>
      <!-- 0.25) -->
      <defs>
       <path d="M 10.796875 72.90625 
L 49.515625 72.90625 
L 49.515625 64.59375 
L 19.828125 64.59375 
L 19.828125 46.734375 
Q 21.96875 47.46875 24.109375 47.828125 
Q 26.265625 48.1875 28.421875 48.1875 
Q 40.625 48.1875 47.75 41.5 
Q 54.890625 34.8125 54.890625 23.390625 
Q 54.890625 11.625 47.5625 5.09375 
Q 40.234375 -1.421875 26.90625 -1.421875 
Q 22.3125 -1.421875 17.546875 -0.640625 
Q 12.796875 0.140625 7.71875 1.703125 
L 7.71875 11.625 
Q 12.109375 9.234375 16.796875 8.0625 
Q 21.484375 6.890625 26.703125 6.890625 
Q 35.15625 6.890625 40.078125 11.328125 
Q 45.015625 15.765625 45.015625 23.390625 
Q 45.015625 31 40.078125 35.4375 
Q 35.15625 39.890625 26.703125 39.890625 
Q 22.75 39.890625 18.8125 39.015625 
Q 14.890625 38.140625 10.796875 36.28125 
z
" id="DejaVuSans-53"/>
       <path d="M 8.015625 75.875 
L 15.828125 75.875 
Q 23.140625 64.359375 26.78125 53.3125 
Q 30.421875 42.28125 30.421875 31.390625 
Q 30.421875 20.453125 26.78125 9.375 
Q 23.140625 -1.703125 15.828125 -13.1875 
L 8.015625 -13.1875 
Q 14.5 -2 17.703125 9.0625 
Q 20.90625 20.125 20.90625 31.390625 
Q 20.90625 42.671875 17.703125 53.65625 
Q 14.5 64.65625 8.015625 75.875 
z
" id="DejaVuSans-41"/>
      </defs>
      <g transform="translate(29.665625 55.950417)scale(0.2 -0.2)">
       <use xlink:href="#DejaVuSans-48"/>
       <use x="63.623047" xlink:href="#DejaVuSans-46"/>
       <use x="95.410156" xlink:href="#DejaVuSans-50"/>
       <use x="159.033203" xlink:href="#DejaVuSans-53"/>
       <use x="222.65625" xlink:href="#DejaVuSans-41"/>
      </g>
     </g>
    </g>
    <g id="ytick_6">
     <g id="line2d_14">
      <g>
       <use style="stroke:#000000;stroke-width:1.6;" x="96.7" xlink:href="#m0c44b36ca4" y="104.4625"/>
      </g>
     </g>
     <g id="text_17">
      <!-- [0.25, -->
      <g transform="translate(23.309375 100.863125)scale(0.2 -0.2)">
       <use xlink:href="#DejaVuSans-91"/>
       <use x="39.013672" xlink:href="#DejaVuSans-48"/>
       <use x="102.636719" xlink:href="#DejaVuSans-46"/>
       <use x="134.423828" xlink:href="#DejaVuSans-50"/>
       <use x="198.046875" xlink:href="#DejaVuSans-53"/>
       <use x="261.669922" xlink:href="#DejaVuSans-44"/>
      </g>
      <!-- 0.50) -->
      <g transform="translate(29.665625 123.25875)scale(0.2 -0.2)">
       <use xlink:href="#DejaVuSans-48"/>
       <use x="63.623047" xlink:href="#DejaVuSans-46"/>
       <use x="95.410156" xlink:href="#DejaVuSans-53"/>
       <use x="159.033203" xlink:href="#DejaVuSans-48"/>
       <use x="222.65625" xlink:href="#DejaVuSans-41"/>
      </g>
     </g>
    </g>
    <g id="ytick_7">
     <g id="line2d_15">
      <g>
       <use style="stroke:#000000;stroke-width:1.6;" x="96.7" xlink:href="#m0c44b36ca4" y="171.770833"/>
      </g>
     </g>
     <g id="text_18">
      <!-- [0.50, -->
      <g transform="translate(23.309375 168.171458)scale(0.2 -0.2)">
       <use xlink:href="#DejaVuSans-91"/>
       <use x="39.013672" xlink:href="#DejaVuSans-48"/>
       <use x="102.636719" xlink:href="#DejaVuSans-46"/>
       <use x="134.423828" xlink:href="#DejaVuSans-53"/>
       <use x="198.046875" xlink:href="#DejaVuSans-48"/>
       <use x="261.669922" xlink:href="#DejaVuSans-44"/>
      </g>
      <!-- 0.75) -->
      <defs>
       <path d="M 8.203125 72.90625 
L 55.078125 72.90625 
L 55.078125 68.703125 
L 28.609375 0 
L 18.3125 0 
L 43.21875 64.59375 
L 8.203125 64.59375 
z
" id="DejaVuSans-55"/>
      </defs>
      <g transform="translate(29.665625 190.567083)scale(0.2 -0.2)">
       <use xlink:href="#DejaVuSans-48"/>
       <use x="63.623047" xlink:href="#DejaVuSans-46"/>
       <use x="95.410156" xlink:href="#DejaVuSans-55"/>
       <use x="159.033203" xlink:href="#DejaVuSans-53"/>
       <use x="222.65625" xlink:href="#DejaVuSans-41"/>
      </g>
     </g>
    </g>
    <g id="ytick_8">
     <g id="line2d_16">
      <g>
       <use style="stroke:#000000;stroke-width:1.6;" x="96.7" xlink:href="#m0c44b36ca4" y="239.079167"/>
      </g>
     </g>
     <g id="text_19">
      <!-- [0.75, -->
      <g transform="translate(23.309375 235.479792)scale(0.2 -0.2)">
       <use xlink:href="#DejaVuSans-91"/>
       <use x="39.013672" xlink:href="#DejaVuSans-48"/>
       <use x="102.636719" xlink:href="#DejaVuSans-46"/>
       <use x="134.423828" xlink:href="#DejaVuSans-55"/>
       <use x="198.046875" xlink:href="#DejaVuSans-53"/>
       <use x="261.669922" xlink:href="#DejaVuSans-44"/>
      </g>
      <!-- 1.00) -->
      <g transform="translate(29.665625 257.875417)scale(0.2 -0.2)">
       <use xlink:href="#DejaVuSans-49"/>
       <use x="63.623047" xlink:href="#DejaVuSans-46"/>
       <use x="95.410156" xlink:href="#DejaVuSans-48"/>
       <use x="159.033203" xlink:href="#DejaVuSans-48"/>
       <use x="222.65625" xlink:href="#DejaVuSans-41"/>
      </g>
     </g>
    </g>
    <g id="text_20">
     <!-- Max Attention -->
     <defs>
      <path d="M 34.1875 63.1875 
L 20.796875 26.90625 
L 47.609375 26.90625 
z
M 28.609375 72.90625 
L 39.796875 72.90625 
L 67.578125 0 
L 57.328125 0 
L 50.6875 18.703125 
L 17.828125 18.703125 
L 11.1875 0 
L 0.78125 0 
z
" id="DejaVuSans-65"/>
      <path d="M 30.609375 48.390625 
Q 23.390625 48.390625 19.1875 42.75 
Q 14.984375 37.109375 14.984375 27.296875 
Q 14.984375 17.484375 19.15625 11.84375 
Q 23.34375 6.203125 30.609375 6.203125 
Q 37.796875 6.203125 41.984375 11.859375 
Q 46.1875 17.53125 46.1875 27.296875 
Q 46.1875 37.015625 41.984375 42.703125 
Q 37.796875 48.390625 30.609375 48.390625 
z
M 30.609375 56 
Q 42.328125 56 49.015625 48.375 
Q 55.71875 40.765625 55.71875 27.296875 
Q 55.71875 13.875 49.015625 6.21875 
Q 42.328125 -1.421875 30.609375 -1.421875 
Q 18.84375 -1.421875 12.171875 6.21875 
Q 5.515625 13.875 5.515625 27.296875 
Q 5.515625 40.765625 12.171875 48.375 
Q 18.84375 56 30.609375 56 
z
" id="DejaVuSans-111"/>
     </defs>
     <g transform="translate(15.15 208.294792)rotate(-90)scale(0.2 -0.2)">
      <use xlink:href="#DejaVuSans-77"/>
      <use x="86.279297" xlink:href="#DejaVuSans-97"/>
      <use x="147.558594" xlink:href="#DejaVuSans-120"/>
      <use x="206.738281" xlink:href="#DejaVuSans-32"/>
      <use x="238.525391" xlink:href="#DejaVuSans-65"/>
      <use x="306.917969" xlink:href="#DejaVuSans-116"/>
      <use x="346.126953" xlink:href="#DejaVuSans-116"/>
      <use x="385.335938" xlink:href="#DejaVuSans-101"/>
      <use x="446.859375" xlink:href="#DejaVuSans-110"/>
      <use x="510.238281" xlink:href="#DejaVuSans-116"/>
      <use x="549.447266" xlink:href="#DejaVuSans-105"/>
      <use x="577.230469" xlink:href="#DejaVuSans-111"/>
      <use x="638.412109" xlink:href="#DejaVuSans-110"/>
     </g>
    </g>
   </g>
   <g id="line2d_17">
    <path clip-path="url(#p4caed6f3f3)" d="M 314.921846 16.742298 
L 314.921846 30.642702 
" style="fill:none;stroke:#424242;stroke-dasharray:1.5,1.5;stroke-dashoffset:0;"/>
   </g>
   <g id="line2d_18">
    <path clip-path="url(#p4caed6f3f3)" d="M 348.419432 15.892057 
L 348.419432 31.492943 
" style="fill:none;stroke:#424242;stroke-dasharray:3,3;stroke-dashoffset:0;"/>
   </g>
   <g id="line2d_19">
    <path clip-path="url(#p4caed6f3f3)" d="M 356.555458 10.408767 
L 356.555458 36.976233 
" style="fill:none;stroke:#424242;stroke-dasharray:1.5,1.5;stroke-dashoffset:0;"/>
   </g>
   <g id="line2d_20">
    <path clip-path="url(#p4caed6f3f3)" d="M 306.625623 38.773231 
L 306.625623 62.458436 
" style="fill:none;stroke:#424242;stroke-dasharray:1.5,1.5;stroke-dashoffset:0;"/>
   </g>
   <g id="line2d_21">
    <path clip-path="url(#p4caed6f3f3)" d="M 314.156827 40.218658 
L 314.156827 61.013009 
" style="fill:none;stroke:#424242;stroke-dasharray:3,3;stroke-dashoffset:0;"/>
   </g>
   <g id="line2d_22">
    <path clip-path="url(#p4caed6f3f3)" d="M 350.730152 44.759123 
L 350.730152 56.472543 
" style="fill:none;stroke:#424242;stroke-dasharray:1.5,1.5;stroke-dashoffset:0;"/>
   </g>
   <g id="patch_88">
    <path d="M 96.7 272.733333 
L 96.7 3.5 
" style="fill:none;stroke:#000000;stroke-linecap:square;stroke-linejoin:miter;stroke-width:0.8;"/>
   </g>
   <g id="patch_89">
    <path d="M 96.7 272.733333 
L 365.933333 272.733333 
" style="fill:none;stroke:#000000;stroke-linecap:square;stroke-linejoin:miter;stroke-width:0.8;"/>
   </g>
  </g>
 </g>
 <defs>
  <clipPath id="pa1adf35392">
   <rect height="269.233333" width="269.233333" x="-276.333333" y="3.5"/>
  </clipPath>
  <clipPath id="p4caed6f3f3">
   <rect height="269.233333" width="269.233333" x="96.7" y="3.5"/>
  </clipPath>
 </defs>
</svg>
