<?xml version="1.0" encoding="utf-8" standalone="no"?>
<!DOCTYPE svg PUBLIC "-//W3C//DTD SVG 1.1//EN"
  "http://www.w3.org/Graphics/SVG/1.1/DTD/svg11.dtd">
<!-- Created with matplotlib (https://matplotlib.org/) -->
<svg height="323.353333pt" version="1.1" viewBox="0 0 362.49737 323.353333" width="362.49737pt" xmlns="http://www.w3.org/2000/svg" xmlns:xlink="http://www.w3.org/1999/xlink">
 <defs>
  <style type="text/css">
*{stroke-linecap:butt;stroke-linejoin:round;}
  </style>
 </defs>
 <g id="figure_1">
  <g id="patch_1">
   <path d="M 0 323.353333 
L 362.49737 323.353333 
L 362.49737 -0 
L 0 -0 
z
" style="fill:#ffffff;"/>
  </g>
  <g id="axes_1">
   <g id="patch_2">
    <path d="M -273.813333 262.653333 
L -14.66 262.653333 
L -14.66 3.5 
L -273.813333 3.5 
z
" style="fill:#ffffff;"/>
   </g>
   <g id="patch_3">
    <path clip-path="url(#pe6f31738cb)" d="M -262.033636 262.653333 
L -256.143788 262.653333 
L -256.143788 262.653333 
L -262.033636 262.653333 
z
" style="fill:#7570b3;opacity:0.6;stroke:#000000;stroke-linejoin:miter;stroke-width:0.5;"/>
   </g>
   <g id="patch_4">
    <path clip-path="url(#pe6f31738cb)" d="M -256.143788 262.653333 
L -250.253939 262.653333 
L -250.253939 262.653333 
L -256.143788 262.653333 
z
" style="fill:#7570b3;opacity:0.6;stroke:#000000;stroke-linejoin:miter;stroke-width:0.5;"/>
   </g>
   <g id="patch_5">
    <path clip-path="url(#pe6f31738cb)" d="M -250.253939 262.653333 
L -244.364091 262.653333 
L -244.364091 262.653333 
L -250.253939 262.653333 
z
" style="fill:#7570b3;opacity:0.6;stroke:#000000;stroke-linejoin:miter;stroke-width:0.5;"/>
   </g>
   <g id="patch_6">
    <path clip-path="url(#pe6f31738cb)" d="M -244.364091 262.653333 
L -238.474242 262.653333 
L -238.474242 262.653333 
L -244.364091 262.653333 
z
" style="fill:#7570b3;opacity:0.6;stroke:#000000;stroke-linejoin:miter;stroke-width:0.5;"/>
   </g>
   <g id="patch_7">
    <path clip-path="url(#pe6f31738cb)" d="M -238.474242 262.653333 
L -232.584394 262.653333 
L -232.584394 262.653333 
L -238.474242 262.653333 
z
" style="fill:#7570b3;opacity:0.6;stroke:#000000;stroke-linejoin:miter;stroke-width:0.5;"/>
   </g>
   <g id="patch_8">
    <path clip-path="url(#pe6f31738cb)" d="M -232.584394 262.653333 
L -226.694545 262.653333 
L -226.694545 262.653333 
L -232.584394 262.653333 
z
" style="fill:#7570b3;opacity:0.6;stroke:#000000;stroke-linejoin:miter;stroke-width:0.5;"/>
   </g>
   <g id="patch_9">
    <path clip-path="url(#pe6f31738cb)" d="M -226.694545 262.653333 
L -220.804697 262.653333 
L -220.804697 262.653333 
L -226.694545 262.653333 
z
" style="fill:#7570b3;opacity:0.6;stroke:#000000;stroke-linejoin:miter;stroke-width:0.5;"/>
   </g>
   <g id="patch_10">
    <path clip-path="url(#pe6f31738cb)" d="M -220.804697 262.653333 
L -214.914848 262.653333 
L -214.914848 262.653333 
L -220.804697 262.653333 
z
" style="fill:#7570b3;opacity:0.6;stroke:#000000;stroke-linejoin:miter;stroke-width:0.5;"/>
   </g>
   <g id="patch_11">
    <path clip-path="url(#pe6f31738cb)" d="M -214.914848 262.653333 
L -209.025 262.653333 
L -209.025 262.653333 
L -214.914848 262.653333 
z
" style="fill:#7570b3;opacity:0.6;stroke:#000000;stroke-linejoin:miter;stroke-width:0.5;"/>
   </g>
   <g id="patch_12">
    <path clip-path="url(#pe6f31738cb)" d="M -209.025 262.653333 
L -203.135152 262.653333 
L -203.135152 262.653333 
L -209.025 262.653333 
z
" style="fill:#7570b3;opacity:0.6;stroke:#000000;stroke-linejoin:miter;stroke-width:0.5;"/>
   </g>
   <g id="patch_13">
    <path clip-path="url(#pe6f31738cb)" d="M -203.135152 262.653333 
L -197.245303 262.653333 
L -197.245303 262.653333 
L -203.135152 262.653333 
z
" style="fill:#7570b3;opacity:0.6;stroke:#000000;stroke-linejoin:miter;stroke-width:0.5;"/>
   </g>
   <g id="patch_14">
    <path clip-path="url(#pe6f31738cb)" d="M -197.245303 262.653333 
L -191.355455 262.653333 
L -191.355455 262.653333 
L -197.245303 262.653333 
z
" style="fill:#7570b3;opacity:0.6;stroke:#000000;stroke-linejoin:miter;stroke-width:0.5;"/>
   </g>
   <g id="patch_15">
    <path clip-path="url(#pe6f31738cb)" d="M -191.355455 262.653333 
L -185.465606 262.653333 
L -185.465606 262.653333 
L -191.355455 262.653333 
z
" style="fill:#7570b3;opacity:0.6;stroke:#000000;stroke-linejoin:miter;stroke-width:0.5;"/>
   </g>
   <g id="patch_16">
    <path clip-path="url(#pe6f31738cb)" d="M -185.465606 262.653333 
L -179.575758 262.653333 
L -179.575758 262.653333 
L -185.465606 262.653333 
z
" style="fill:#7570b3;opacity:0.6;stroke:#000000;stroke-linejoin:miter;stroke-width:0.5;"/>
   </g>
   <g id="patch_17">
    <path clip-path="url(#pe6f31738cb)" d="M -179.575758 262.653333 
L -173.685909 262.653333 
L -173.685909 262.653333 
L -179.575758 262.653333 
z
" style="fill:#7570b3;opacity:0.6;stroke:#000000;stroke-linejoin:miter;stroke-width:0.5;"/>
   </g>
   <g id="patch_18">
    <path clip-path="url(#pe6f31738cb)" d="M -173.685909 262.653333 
L -167.796061 262.653333 
L -167.796061 262.653333 
L -173.685909 262.653333 
z
" style="fill:#7570b3;opacity:0.6;stroke:#000000;stroke-linejoin:miter;stroke-width:0.5;"/>
   </g>
   <g id="patch_19">
    <path clip-path="url(#pe6f31738cb)" d="M -167.796061 262.653333 
L -161.906212 262.653333 
L -161.906212 262.653333 
L -167.796061 262.653333 
z
" style="fill:#7570b3;opacity:0.6;stroke:#000000;stroke-linejoin:miter;stroke-width:0.5;"/>
   </g>
   <g id="patch_20">
    <path clip-path="url(#pe6f31738cb)" d="M -161.906212 262.653333 
L -156.016364 262.653333 
L -156.016364 262.653333 
L -161.906212 262.653333 
z
" style="fill:#7570b3;opacity:0.6;stroke:#000000;stroke-linejoin:miter;stroke-width:0.5;"/>
   </g>
   <g id="patch_21">
    <path clip-path="url(#pe6f31738cb)" d="M -156.016364 262.653333 
L -150.126515 262.653333 
L -150.126515 262.653333 
L -156.016364 262.653333 
z
" style="fill:#7570b3;opacity:0.6;stroke:#000000;stroke-linejoin:miter;stroke-width:0.5;"/>
   </g>
   <g id="patch_22">
    <path clip-path="url(#pe6f31738cb)" d="M -150.126515 262.653333 
L -144.236667 262.653333 
L -144.236667 262.653333 
L -150.126515 262.653333 
z
" style="fill:#7570b3;opacity:0.6;stroke:#000000;stroke-linejoin:miter;stroke-width:0.5;"/>
   </g>
   <g id="patch_23">
    <path clip-path="url(#pe6f31738cb)" d="M -144.236667 262.653333 
L -138.346818 262.653333 
L -138.346818 262.653333 
L -144.236667 262.653333 
z
" style="fill:#7570b3;opacity:0.6;stroke:#000000;stroke-linejoin:miter;stroke-width:0.5;"/>
   </g>
   <g id="patch_24">
    <path clip-path="url(#pe6f31738cb)" d="M -138.346818 262.653333 
L -132.45697 262.653333 
L -132.45697 262.653333 
L -138.346818 262.653333 
z
" style="fill:#7570b3;opacity:0.6;stroke:#000000;stroke-linejoin:miter;stroke-width:0.5;"/>
   </g>
   <g id="patch_25">
    <path clip-path="url(#pe6f31738cb)" d="M -132.45697 262.653333 
L -126.567121 262.653333 
L -126.567121 262.653333 
L -132.45697 262.653333 
z
" style="fill:#7570b3;opacity:0.6;stroke:#000000;stroke-linejoin:miter;stroke-width:0.5;"/>
   </g>
   <g id="patch_26">
    <path clip-path="url(#pe6f31738cb)" d="M -126.567121 262.653333 
L -120.677273 262.653333 
L -120.677273 262.653333 
L -126.567121 262.653333 
z
" style="fill:#7570b3;opacity:0.6;stroke:#000000;stroke-linejoin:miter;stroke-width:0.5;"/>
   </g>
   <g id="patch_27">
    <path clip-path="url(#pe6f31738cb)" d="M -120.677273 262.653333 
L -114.787424 262.653333 
L -114.787424 262.653333 
L -120.677273 262.653333 
z
" style="fill:#7570b3;opacity:0.6;stroke:#000000;stroke-linejoin:miter;stroke-width:0.5;"/>
   </g>
   <g id="patch_28">
    <path clip-path="url(#pe6f31738cb)" d="M -114.787424 262.653333 
L -108.897576 262.653333 
L -108.897576 262.653333 
L -114.787424 262.653333 
z
" style="fill:#7570b3;opacity:0.6;stroke:#000000;stroke-linejoin:miter;stroke-width:0.5;"/>
   </g>
   <g id="patch_29">
    <path clip-path="url(#pe6f31738cb)" d="M -108.897576 262.653333 
L -103.007727 262.653333 
L -103.007727 262.653333 
L -108.897576 262.653333 
z
" style="fill:#7570b3;opacity:0.6;stroke:#000000;stroke-linejoin:miter;stroke-width:0.5;"/>
   </g>
   <g id="patch_30">
    <path clip-path="url(#pe6f31738cb)" d="M -103.007727 262.653333 
L -97.117879 262.653333 
L -97.117879 262.653333 
L -103.007727 262.653333 
z
" style="fill:#7570b3;opacity:0.6;stroke:#000000;stroke-linejoin:miter;stroke-width:0.5;"/>
   </g>
   <g id="patch_31">
    <path clip-path="url(#pe6f31738cb)" d="M -97.117879 262.653333 
L -91.22803 262.653333 
L -91.22803 262.653333 
L -97.117879 262.653333 
z
" style="fill:#7570b3;opacity:0.6;stroke:#000000;stroke-linejoin:miter;stroke-width:0.5;"/>
   </g>
   <g id="patch_32">
    <path clip-path="url(#pe6f31738cb)" d="M -91.22803 262.653333 
L -85.338182 262.653333 
L -85.338182 262.653333 
L -91.22803 262.653333 
z
" style="fill:#7570b3;opacity:0.6;stroke:#000000;stroke-linejoin:miter;stroke-width:0.5;"/>
   </g>
   <g id="patch_33">
    <path clip-path="url(#pe6f31738cb)" d="M -85.338182 262.653333 
L -79.448333 262.653333 
L -79.448333 262.653333 
L -85.338182 262.653333 
z
" style="fill:#7570b3;opacity:0.6;stroke:#000000;stroke-linejoin:miter;stroke-width:0.5;"/>
   </g>
   <g id="patch_34">
    <path clip-path="url(#pe6f31738cb)" d="M -79.448333 262.653333 
L -73.558485 262.653333 
L -73.558485 262.653333 
L -79.448333 262.653333 
z
" style="fill:#7570b3;opacity:0.6;stroke:#000000;stroke-linejoin:miter;stroke-width:0.5;"/>
   </g>
   <g id="patch_35">
    <path clip-path="url(#pe6f31738cb)" d="M -73.558485 262.653333 
L -67.668636 262.653333 
L -67.668636 262.653333 
L -73.558485 262.653333 
z
" style="fill:#7570b3;opacity:0.6;stroke:#000000;stroke-linejoin:miter;stroke-width:0.5;"/>
   </g>
   <g id="patch_36">
    <path clip-path="url(#pe6f31738cb)" d="M -67.668636 262.653333 
L -61.778788 262.653333 
L -61.778788 260.877702 
L -67.668636 260.877702 
z
" style="fill:#7570b3;opacity:0.6;stroke:#000000;stroke-linejoin:miter;stroke-width:0.5;"/>
   </g>
   <g id="patch_37">
    <path clip-path="url(#pe6f31738cb)" d="M -61.778788 262.653333 
L -55.888939 262.653333 
L -55.888939 234.243239 
L -61.778788 234.243239 
z
" style="fill:#7570b3;opacity:0.6;stroke:#000000;stroke-linejoin:miter;stroke-width:0.5;"/>
   </g>
   <g id="patch_38">
    <path clip-path="url(#pe6f31738cb)" d="M -55.888939 262.653333 
L -49.999091 262.653333 
L -49.999091 145.461692 
L -55.888939 145.461692 
z
" style="fill:#7570b3;opacity:0.6;stroke:#000000;stroke-linejoin:miter;stroke-width:0.5;"/>
   </g>
   <g id="patch_39">
    <path clip-path="url(#pe6f31738cb)" d="M -49.999091 262.653333 
L -44.109242 262.653333 
L -44.109242 31.821313 
L -49.999091 31.821313 
z
" style="fill:#7570b3;opacity:0.6;stroke:#000000;stroke-linejoin:miter;stroke-width:0.5;"/>
   </g>
   <g id="patch_40">
    <path clip-path="url(#pe6f31738cb)" d="M -44.109242 262.653333 
L -38.219394 262.653333 
L -38.219394 173.871787 
L -44.109242 173.871787 
z
" style="fill:#7570b3;opacity:0.6;stroke:#000000;stroke-linejoin:miter;stroke-width:0.5;"/>
   </g>
   <g id="patch_41">
    <path clip-path="url(#pe6f31738cb)" d="M -38.219394 262.653333 
L -32.329545 262.653333 
L -32.329545 147.237323 
L -38.219394 147.237323 
z
" style="fill:#7570b3;opacity:0.6;stroke:#000000;stroke-linejoin:miter;stroke-width:0.5;"/>
   </g>
   <g id="patch_42">
    <path clip-path="url(#pe6f31738cb)" d="M -32.329545 262.653333 
L -26.439697 262.653333 
L -26.439697 15.840635 
L -32.329545 15.840635 
z
" style="fill:#7570b3;opacity:0.6;stroke:#000000;stroke-linejoin:miter;stroke-width:0.5;"/>
   </g>
   <g id="patch_43">
    <path clip-path="url(#pe6f31738cb)" d="M -262.033636 262.653333 
L -256.143788 262.653333 
L -256.143788 262.653333 
L -262.033636 262.653333 
z
" style="fill:#d95f02;opacity:0.6;stroke:#000000;stroke-linejoin:miter;stroke-width:0.5;"/>
   </g>
   <g id="patch_44">
    <path clip-path="url(#pe6f31738cb)" d="M -256.143788 262.653333 
L -250.253939 262.653333 
L -250.253939 262.653333 
L -256.143788 262.653333 
z
" style="fill:#d95f02;opacity:0.6;stroke:#000000;stroke-linejoin:miter;stroke-width:0.5;"/>
   </g>
   <g id="patch_45">
    <path clip-path="url(#pe6f31738cb)" d="M -250.253939 262.653333 
L -244.364091 262.653333 
L -244.364091 262.653333 
L -250.253939 262.653333 
z
" style="fill:#d95f02;opacity:0.6;stroke:#000000;stroke-linejoin:miter;stroke-width:0.5;"/>
   </g>
   <g id="patch_46">
    <path clip-path="url(#pe6f31738cb)" d="M -244.364091 262.653333 
L -238.474242 262.653333 
L -238.474242 262.653333 
L -244.364091 262.653333 
z
" style="fill:#d95f02;opacity:0.6;stroke:#000000;stroke-linejoin:miter;stroke-width:0.5;"/>
   </g>
   <g id="patch_47">
    <path clip-path="url(#pe6f31738cb)" d="M -238.474242 262.653333 
L -232.584394 262.653333 
L -232.584394 262.653333 
L -238.474242 262.653333 
z
" style="fill:#d95f02;opacity:0.6;stroke:#000000;stroke-linejoin:miter;stroke-width:0.5;"/>
   </g>
   <g id="patch_48">
    <path clip-path="url(#pe6f31738cb)" d="M -232.584394 262.653333 
L -226.694545 262.653333 
L -226.694545 262.653333 
L -232.584394 262.653333 
z
" style="fill:#d95f02;opacity:0.6;stroke:#000000;stroke-linejoin:miter;stroke-width:0.5;"/>
   </g>
   <g id="patch_49">
    <path clip-path="url(#pe6f31738cb)" d="M -226.694545 262.653333 
L -220.804697 262.653333 
L -220.804697 262.653333 
L -226.694545 262.653333 
z
" style="fill:#d95f02;opacity:0.6;stroke:#000000;stroke-linejoin:miter;stroke-width:0.5;"/>
   </g>
   <g id="patch_50">
    <path clip-path="url(#pe6f31738cb)" d="M -220.804697 262.653333 
L -214.914848 262.653333 
L -214.914848 262.653333 
L -220.804697 262.653333 
z
" style="fill:#d95f02;opacity:0.6;stroke:#000000;stroke-linejoin:miter;stroke-width:0.5;"/>
   </g>
   <g id="patch_51">
    <path clip-path="url(#pe6f31738cb)" d="M -214.914848 262.653333 
L -209.025 262.653333 
L -209.025 262.653333 
L -214.914848 262.653333 
z
" style="fill:#d95f02;opacity:0.6;stroke:#000000;stroke-linejoin:miter;stroke-width:0.5;"/>
   </g>
   <g id="patch_52">
    <path clip-path="url(#pe6f31738cb)" d="M -209.025 262.653333 
L -203.135152 262.653333 
L -203.135152 262.653333 
L -209.025 262.653333 
z
" style="fill:#d95f02;opacity:0.6;stroke:#000000;stroke-linejoin:miter;stroke-width:0.5;"/>
   </g>
   <g id="patch_53">
    <path clip-path="url(#pe6f31738cb)" d="M -203.135152 262.653333 
L -197.245303 262.653333 
L -197.245303 262.653333 
L -203.135152 262.653333 
z
" style="fill:#d95f02;opacity:0.6;stroke:#000000;stroke-linejoin:miter;stroke-width:0.5;"/>
   </g>
   <g id="patch_54">
    <path clip-path="url(#pe6f31738cb)" d="M -197.245303 262.653333 
L -191.355455 262.653333 
L -191.355455 262.653333 
L -197.245303 262.653333 
z
" style="fill:#d95f02;opacity:0.6;stroke:#000000;stroke-linejoin:miter;stroke-width:0.5;"/>
   </g>
   <g id="patch_55">
    <path clip-path="url(#pe6f31738cb)" d="M -191.355455 262.653333 
L -185.465606 262.653333 
L -185.465606 262.653333 
L -191.355455 262.653333 
z
" style="fill:#d95f02;opacity:0.6;stroke:#000000;stroke-linejoin:miter;stroke-width:0.5;"/>
   </g>
   <g id="patch_56">
    <path clip-path="url(#pe6f31738cb)" d="M -185.465606 262.653333 
L -179.575758 262.653333 
L -179.575758 262.653333 
L -185.465606 262.653333 
z
" style="fill:#d95f02;opacity:0.6;stroke:#000000;stroke-linejoin:miter;stroke-width:0.5;"/>
   </g>
   <g id="patch_57">
    <path clip-path="url(#pe6f31738cb)" d="M -179.575758 262.653333 
L -173.685909 262.653333 
L -173.685909 262.653333 
L -179.575758 262.653333 
z
" style="fill:#d95f02;opacity:0.6;stroke:#000000;stroke-linejoin:miter;stroke-width:0.5;"/>
   </g>
   <g id="patch_58">
    <path clip-path="url(#pe6f31738cb)" d="M -173.685909 262.653333 
L -167.796061 262.653333 
L -167.796061 262.653333 
L -173.685909 262.653333 
z
" style="fill:#d95f02;opacity:0.6;stroke:#000000;stroke-linejoin:miter;stroke-width:0.5;"/>
   </g>
   <g id="patch_59">
    <path clip-path="url(#pe6f31738cb)" d="M -167.796061 262.653333 
L -161.906212 262.653333 
L -161.906212 262.653333 
L -167.796061 262.653333 
z
" style="fill:#d95f02;opacity:0.6;stroke:#000000;stroke-linejoin:miter;stroke-width:0.5;"/>
   </g>
   <g id="patch_60">
    <path clip-path="url(#pe6f31738cb)" d="M -161.906212 262.653333 
L -156.016364 262.653333 
L -156.016364 262.653333 
L -161.906212 262.653333 
z
" style="fill:#d95f02;opacity:0.6;stroke:#000000;stroke-linejoin:miter;stroke-width:0.5;"/>
   </g>
   <g id="patch_61">
    <path clip-path="url(#pe6f31738cb)" d="M -156.016364 262.653333 
L -150.126515 262.653333 
L -150.126515 262.653333 
L -156.016364 262.653333 
z
" style="fill:#d95f02;opacity:0.6;stroke:#000000;stroke-linejoin:miter;stroke-width:0.5;"/>
   </g>
   <g id="patch_62">
    <path clip-path="url(#pe6f31738cb)" d="M -150.126515 262.653333 
L -144.236667 262.653333 
L -144.236667 262.653333 
L -150.126515 262.653333 
z
" style="fill:#d95f02;opacity:0.6;stroke:#000000;stroke-linejoin:miter;stroke-width:0.5;"/>
   </g>
   <g id="patch_63">
    <path clip-path="url(#pe6f31738cb)" d="M -144.236667 262.653333 
L -138.346818 262.653333 
L -138.346818 262.653333 
L -144.236667 262.653333 
z
" style="fill:#d95f02;opacity:0.6;stroke:#000000;stroke-linejoin:miter;stroke-width:0.5;"/>
   </g>
   <g id="patch_64">
    <path clip-path="url(#pe6f31738cb)" d="M -138.346818 262.653333 
L -132.45697 262.653333 
L -132.45697 262.653333 
L -138.346818 262.653333 
z
" style="fill:#d95f02;opacity:0.6;stroke:#000000;stroke-linejoin:miter;stroke-width:0.5;"/>
   </g>
   <g id="patch_65">
    <path clip-path="url(#pe6f31738cb)" d="M -132.45697 262.653333 
L -126.567121 262.653333 
L -126.567121 262.653333 
L -132.45697 262.653333 
z
" style="fill:#d95f02;opacity:0.6;stroke:#000000;stroke-linejoin:miter;stroke-width:0.5;"/>
   </g>
   <g id="patch_66">
    <path clip-path="url(#pe6f31738cb)" d="M -126.567121 262.653333 
L -120.677273 262.653333 
L -120.677273 262.653333 
L -126.567121 262.653333 
z
" style="fill:#d95f02;opacity:0.6;stroke:#000000;stroke-linejoin:miter;stroke-width:0.5;"/>
   </g>
   <g id="patch_67">
    <path clip-path="url(#pe6f31738cb)" d="M -120.677273 262.653333 
L -114.787424 262.653333 
L -114.787424 262.653333 
L -120.677273 262.653333 
z
" style="fill:#d95f02;opacity:0.6;stroke:#000000;stroke-linejoin:miter;stroke-width:0.5;"/>
   </g>
   <g id="patch_68">
    <path clip-path="url(#pe6f31738cb)" d="M -114.787424 262.653333 
L -108.897576 262.653333 
L -108.897576 262.653333 
L -114.787424 262.653333 
z
" style="fill:#d95f02;opacity:0.6;stroke:#000000;stroke-linejoin:miter;stroke-width:0.5;"/>
   </g>
   <g id="patch_69">
    <path clip-path="url(#pe6f31738cb)" d="M -108.897576 262.653333 
L -103.007727 262.653333 
L -103.007727 262.653333 
L -108.897576 262.653333 
z
" style="fill:#d95f02;opacity:0.6;stroke:#000000;stroke-linejoin:miter;stroke-width:0.5;"/>
   </g>
   <g id="patch_70">
    <path clip-path="url(#pe6f31738cb)" d="M -103.007727 262.653333 
L -97.117879 262.653333 
L -97.117879 261.61029 
L -103.007727 261.61029 
z
" style="fill:#d95f02;opacity:0.6;stroke:#000000;stroke-linejoin:miter;stroke-width:0.5;"/>
   </g>
   <g id="patch_71">
    <path clip-path="url(#pe6f31738cb)" d="M -97.117879 262.653333 
L -91.22803 262.653333 
L -91.22803 262.653333 
L -97.117879 262.653333 
z
" style="fill:#d95f02;opacity:0.6;stroke:#000000;stroke-linejoin:miter;stroke-width:0.5;"/>
   </g>
   <g id="patch_72">
    <path clip-path="url(#pe6f31738cb)" d="M -91.22803 262.653333 
L -85.338182 262.653333 
L -85.338182 261.61029 
L -91.22803 261.61029 
z
" style="fill:#d95f02;opacity:0.6;stroke:#000000;stroke-linejoin:miter;stroke-width:0.5;"/>
   </g>
   <g id="patch_73">
    <path clip-path="url(#pe6f31738cb)" d="M -85.338182 262.653333 
L -79.448333 262.653333 
L -79.448333 253.265941 
L -85.338182 253.265941 
z
" style="fill:#d95f02;opacity:0.6;stroke:#000000;stroke-linejoin:miter;stroke-width:0.5;"/>
   </g>
   <g id="patch_74">
    <path clip-path="url(#pe6f31738cb)" d="M -79.448333 262.653333 
L -73.558485 262.653333 
L -73.558485 216.759416 
L -79.448333 216.759416 
z
" style="fill:#d95f02;opacity:0.6;stroke:#000000;stroke-linejoin:miter;stroke-width:0.5;"/>
   </g>
   <g id="patch_75">
    <path clip-path="url(#pe6f31738cb)" d="M -73.558485 262.653333 
L -67.668636 262.653333 
L -67.668636 156.262889 
L -73.558485 156.262889 
z
" style="fill:#d95f02;opacity:0.6;stroke:#000000;stroke-linejoin:miter;stroke-width:0.5;"/>
   </g>
   <g id="patch_76">
    <path clip-path="url(#pe6f31738cb)" d="M -67.668636 262.653333 
L -61.778788 262.653333 
L -61.778788 79.077664 
L -67.668636 79.077664 
z
" style="fill:#d95f02;opacity:0.6;stroke:#000000;stroke-linejoin:miter;stroke-width:0.5;"/>
   </g>
   <g id="patch_77">
    <path clip-path="url(#pe6f31738cb)" d="M -61.778788 262.653333 
L -55.888939 262.653333 
L -55.888939 58.216793 
L -61.778788 58.216793 
z
" style="fill:#d95f02;opacity:0.6;stroke:#000000;stroke-linejoin:miter;stroke-width:0.5;"/>
   </g>
   <g id="patch_78">
    <path clip-path="url(#pe6f31738cb)" d="M -55.888939 262.653333 
L -49.999091 262.653333 
L -49.999091 97.852449 
L -55.888939 97.852449 
z
" style="fill:#d95f02;opacity:0.6;stroke:#000000;stroke-linejoin:miter;stroke-width:0.5;"/>
   </g>
   <g id="patch_79">
    <path clip-path="url(#pe6f31738cb)" d="M -49.999091 262.653333 
L -44.109242 262.653333 
L -44.109242 176.080717 
L -49.999091 176.080717 
z
" style="fill:#d95f02;opacity:0.6;stroke:#000000;stroke-linejoin:miter;stroke-width:0.5;"/>
   </g>
   <g id="patch_80">
    <path clip-path="url(#pe6f31738cb)" d="M -44.109242 262.653333 
L -38.219394 262.653333 
L -38.219394 241.792462 
L -44.109242 241.792462 
z
" style="fill:#d95f02;opacity:0.6;stroke:#000000;stroke-linejoin:miter;stroke-width:0.5;"/>
   </g>
   <g id="patch_81">
    <path clip-path="url(#pe6f31738cb)" d="M -38.219394 262.653333 
L -32.329545 262.653333 
L -32.329545 259.524203 
L -38.219394 259.524203 
z
" style="fill:#d95f02;opacity:0.6;stroke:#000000;stroke-linejoin:miter;stroke-width:0.5;"/>
   </g>
   <g id="patch_82">
    <path clip-path="url(#pe6f31738cb)" d="M -32.329545 262.653333 
L -26.439697 262.653333 
L -26.439697 260.567246 
L -32.329545 260.567246 
z
" style="fill:#d95f02;opacity:0.6;stroke:#000000;stroke-linejoin:miter;stroke-width:0.5;"/>
   </g>
   <g id="matplotlib.axis_1">
    <g id="xtick_1">
     <g id="line2d_1">
      <defs>
       <path d="M 0 0 
L 0 3.5 
" id="m9b6e32efac" style="stroke:#000000;stroke-width:1.6;"/>
      </defs>
      <g/>
     </g>
     <g id="text_1">
      <!-- 0.0 -->
      <defs>
       <path d="M 31.78125 66.40625 
Q 24.171875 66.40625 20.328125 58.90625 
Q 16.5 51.421875 16.5 36.375 
Q 16.5 21.390625 20.328125 13.890625 
Q 24.171875 6.390625 31.78125 6.390625 
Q 39.453125 6.390625 43.28125 13.890625 
Q 47.125 21.390625 47.125 36.375 
Q 47.125 51.421875 43.28125 58.90625 
Q 39.453125 66.40625 31.78125 66.40625 
z
M 31.78125 74.21875 
Q 44.046875 74.21875 50.515625 64.515625 
Q 56.984375 54.828125 56.984375 36.375 
Q 56.984375 17.96875 50.515625 8.265625 
Q 44.046875 -1.421875 31.78125 -1.421875 
Q 19.53125 -1.421875 13.0625 8.265625 
Q 6.59375 17.96875 6.59375 36.375 
Q 6.59375 54.828125 13.0625 64.515625 
Q 19.53125 74.21875 31.78125 74.21875 
z
" id="DejaVuSans-48"/>
       <path d="M 10.6875 12.40625 
L 21 12.40625 
L 21 0 
L 10.6875 0 
z
" id="DejaVuSans-46"/>
      </defs>
      <g transform="translate(-277.936761 292.550208)scale(0.2 -0.2)">
       <use xlink:href="#DejaVuSans-48"/>
       <use x="63.623047" xlink:href="#DejaVuSans-46"/>
       <use x="95.410156" xlink:href="#DejaVuSans-48"/>
      </g>
     </g>
    </g>
    <g id="xtick_2">
     <g id="line2d_2">
      <g/>
     </g>
     <g id="text_2">
      <!-- 0.2 -->
      <defs>
       <path d="M 19.1875 8.296875 
L 53.609375 8.296875 
L 53.609375 0 
L 7.328125 0 
L 7.328125 8.296875 
Q 12.9375 14.109375 22.625 23.890625 
Q 32.328125 33.6875 34.8125 36.53125 
Q 39.546875 41.84375 41.421875 45.53125 
Q 43.3125 49.21875 43.3125 52.78125 
Q 43.3125 58.59375 39.234375 62.25 
Q 35.15625 65.921875 28.609375 65.921875 
Q 23.96875 65.921875 18.8125 64.3125 
Q 13.671875 62.703125 7.8125 59.421875 
L 7.8125 69.390625 
Q 13.765625 71.78125 18.9375 73 
Q 24.125 74.21875 28.421875 74.21875 
Q 39.75 74.21875 46.484375 68.546875 
Q 53.21875 62.890625 53.21875 53.421875 
Q 53.21875 48.921875 51.53125 44.890625 
Q 49.859375 40.875 45.40625 35.40625 
Q 44.1875 33.984375 37.640625 27.21875 
Q 31.109375 20.453125 19.1875 8.296875 
z
" id="DejaVuSans-50"/>
      </defs>
      <g transform="translate(-210.624207 292.550208)scale(0.2 -0.2)">
       <use xlink:href="#DejaVuSans-48"/>
       <use x="63.623047" xlink:href="#DejaVuSans-46"/>
       <use x="95.410156" xlink:href="#DejaVuSans-50"/>
      </g>
     </g>
    </g>
    <g id="xtick_3">
     <g id="line2d_3">
      <g/>
     </g>
     <g id="text_3">
      <!-- 0.4 -->
      <defs>
       <path d="M 37.796875 64.3125 
L 12.890625 25.390625 
L 37.796875 25.390625 
z
M 35.203125 72.90625 
L 47.609375 72.90625 
L 47.609375 25.390625 
L 58.015625 25.390625 
L 58.015625 17.1875 
L 47.609375 17.1875 
L 47.609375 0 
L 37.796875 0 
L 37.796875 17.1875 
L 4.890625 17.1875 
L 4.890625 26.703125 
z
" id="DejaVuSans-52"/>
      </defs>
      <g transform="translate(-143.311653 292.550208)scale(0.2 -0.2)">
       <use xlink:href="#DejaVuSans-48"/>
       <use x="63.623047" xlink:href="#DejaVuSans-46"/>
       <use x="95.410156" xlink:href="#DejaVuSans-52"/>
      </g>
     </g>
    </g>
    <g id="xtick_4">
     <g id="line2d_4">
      <g/>
     </g>
     <g id="text_4">
      <!-- 0.6 -->
      <defs>
       <path d="M 33.015625 40.375 
Q 26.375 40.375 22.484375 35.828125 
Q 18.609375 31.296875 18.609375 23.390625 
Q 18.609375 15.53125 22.484375 10.953125 
Q 26.375 6.390625 33.015625 6.390625 
Q 39.65625 6.390625 43.53125 10.953125 
Q 47.40625 15.53125 47.40625 23.390625 
Q 47.40625 31.296875 43.53125 35.828125 
Q 39.65625 40.375 33.015625 40.375 
z
M 52.59375 71.296875 
L 52.59375 62.3125 
Q 48.875 64.0625 45.09375 64.984375 
Q 41.3125 65.921875 37.59375 65.921875 
Q 27.828125 65.921875 22.671875 59.328125 
Q 17.53125 52.734375 16.796875 39.40625 
Q 19.671875 43.65625 24.015625 45.921875 
Q 28.375 48.1875 33.59375 48.1875 
Q 44.578125 48.1875 50.953125 41.515625 
Q 57.328125 34.859375 57.328125 23.390625 
Q 57.328125 12.15625 50.6875 5.359375 
Q 44.046875 -1.421875 33.015625 -1.421875 
Q 20.359375 -1.421875 13.671875 8.265625 
Q 6.984375 17.96875 6.984375 36.375 
Q 6.984375 53.65625 15.1875 63.9375 
Q 23.390625 74.21875 37.203125 74.21875 
Q 40.921875 74.21875 44.703125 73.484375 
Q 48.484375 72.75 52.59375 71.296875 
z
" id="DejaVuSans-54"/>
      </defs>
      <g transform="translate(-75.999099 292.550208)scale(0.2 -0.2)">
       <use xlink:href="#DejaVuSans-48"/>
       <use x="63.623047" xlink:href="#DejaVuSans-46"/>
       <use x="95.410156" xlink:href="#DejaVuSans-54"/>
      </g>
     </g>
    </g>
    <g id="text_5">
     <!--   -->
     <defs>
      <path id="DejaVuSans-32"/>
     </defs>
     <g transform="translate(-147.414792 315.906458)scale(0.2 -0.2)">
      <use xlink:href="#DejaVuSans-32"/>
     </g>
    </g>
   </g>
   <g id="matplotlib.axis_2">
    <g id="ytick_1">
     <g id="line2d_5">
      <defs>
       <path d="M 0 0 
L -3.5 0 
" id="m1cfc657fcf" style="stroke:#000000;stroke-width:1.6;"/>
      </defs>
      <g/>
     </g>
     <g id="text_6">
      <!-- 0.0 -->
      <g transform="translate(-320.319583 270.251771)scale(0.2 -0.2)">
       <use xlink:href="#DejaVuSans-48"/>
       <use x="63.623047" xlink:href="#DejaVuSans-46"/>
       <use x="95.410156" xlink:href="#DejaVuSans-48"/>
      </g>
     </g>
    </g>
    <g id="ytick_2">
     <g id="line2d_6">
      <g/>
     </g>
     <g id="text_7">
      <!-- 0.1 -->
      <defs>
       <path d="M 12.40625 8.296875 
L 28.515625 8.296875 
L 28.515625 63.921875 
L 10.984375 60.40625 
L 10.984375 69.390625 
L 28.421875 72.90625 
L 38.28125 72.90625 
L 38.28125 8.296875 
L 54.390625 8.296875 
L 54.390625 0 
L 12.40625 0 
z
" id="DejaVuSans-49"/>
      </defs>
      <g transform="translate(-320.319583 187.329807)scale(0.2 -0.2)">
       <use xlink:href="#DejaVuSans-48"/>
       <use x="63.623047" xlink:href="#DejaVuSans-46"/>
       <use x="95.410156" xlink:href="#DejaVuSans-49"/>
      </g>
     </g>
    </g>
    <g id="ytick_3">
     <g id="line2d_7">
      <g/>
     </g>
     <g id="text_8">
      <!-- 0.2 -->
      <g transform="translate(-320.319583 104.407843)scale(0.2 -0.2)">
       <use xlink:href="#DejaVuSans-48"/>
       <use x="63.623047" xlink:href="#DejaVuSans-46"/>
       <use x="95.410156" xlink:href="#DejaVuSans-50"/>
      </g>
     </g>
    </g>
    <g id="ytick_4">
     <g id="line2d_8">
      <g/>
     </g>
     <g id="text_9">
      <!-- 0.3 -->
      <defs>
       <path d="M 40.578125 39.3125 
Q 47.65625 37.796875 51.625 33 
Q 55.609375 28.21875 55.609375 21.1875 
Q 55.609375 10.40625 48.1875 4.484375 
Q 40.765625 -1.421875 27.09375 -1.421875 
Q 22.515625 -1.421875 17.65625 -0.515625 
Q 12.796875 0.390625 7.625 2.203125 
L 7.625 11.71875 
Q 11.71875 9.328125 16.59375 8.109375 
Q 21.484375 6.890625 26.8125 6.890625 
Q 36.078125 6.890625 40.9375 10.546875 
Q 45.796875 14.203125 45.796875 21.1875 
Q 45.796875 27.640625 41.28125 31.265625 
Q 36.765625 34.90625 28.71875 34.90625 
L 20.21875 34.90625 
L 20.21875 43.015625 
L 29.109375 43.015625 
Q 36.375 43.015625 40.234375 45.921875 
Q 44.09375 48.828125 44.09375 54.296875 
Q 44.09375 59.90625 40.109375 62.90625 
Q 36.140625 65.921875 28.71875 65.921875 
Q 24.65625 65.921875 20.015625 65.03125 
Q 15.375 64.15625 9.8125 62.3125 
L 9.8125 71.09375 
Q 15.4375 72.65625 20.34375 73.4375 
Q 25.25 74.21875 29.59375 74.21875 
Q 40.828125 74.21875 47.359375 69.109375 
Q 53.90625 64.015625 53.90625 55.328125 
Q 53.90625 49.265625 50.4375 45.09375 
Q 46.96875 40.921875 40.578125 39.3125 
z
" id="DejaVuSans-51"/>
      </defs>
      <g transform="translate(-320.319583 21.485878)scale(0.2 -0.2)">
       <use xlink:href="#DejaVuSans-48"/>
       <use x="63.623047" xlink:href="#DejaVuSans-46"/>
       <use x="95.410156" xlink:href="#DejaVuSans-51"/>
      </g>
     </g>
    </g>
    <g id="text_10">
     <!--   -->
     <g transform="translate(-327.979833 135.873417)rotate(-90)scale(0.176 -0.176)">
      <use xlink:href="#DejaVuSans-32"/>
     </g>
    </g>
   </g>
   <g id="patch_83">
    <path style="fill:none;stroke:#000000;stroke-linecap:square;stroke-linejoin:miter;stroke-width:0.8;"/>
   </g>
   <g id="patch_84">
    <path style="fill:none;stroke:#000000;stroke-linecap:square;stroke-linejoin:miter;stroke-width:0.8;"/>
   </g>
  </g>
  <g id="axes_2">
   <g id="patch_85">
    <path d="M 96.7 262.653333 
L 355.853333 262.653333 
L 355.853333 3.5 
L 96.7 3.5 
z
" style="fill:#ffffff;"/>
   </g>
   <g id="PolyCollection_1">
    <defs>
     <path d="M 316.968488 -300.251749 
L 316.968488 -300.581918 
L 317.33407 -300.607737 
L 317.699652 -300.637965 
L 318.065234 -300.673424 
L 318.430816 -300.714952 
L 318.796398 -300.763359 
L 319.161981 -300.819378 
L 319.527563 -300.883626 
L 319.893145 -300.956584 
L 320.258727 -301.038577 
L 320.624309 -301.129797 
L 320.989891 -301.230326 
L 321.355474 -301.340197 
L 321.721056 -301.459448 
L 322.086638 -301.588203 
L 322.45222 -301.726734 
L 322.817802 -301.875521 
L 323.183384 -302.035281 
L 323.548967 -302.206978 
L 323.914549 -302.391785 
L 324.280131 -302.591032 
L 324.645713 -302.80611 
L 325.011295 -303.038362 
L 325.376877 -303.288971 
L 325.74246 -303.558844 
L 326.108042 -303.848514 
L 326.473624 -304.158065 
L 326.839206 -304.48708 
L 327.204788 -304.834609 
L 327.57037 -305.199156 
L 327.935953 -305.578679 
L 328.301535 -305.970588 
L 328.667117 -306.371752 
L 329.032699 -306.778506 
L 329.398281 -307.186668 
L 329.763863 -307.591579 
L 330.129445 -307.988163 
L 330.495028 -308.371027 
L 330.86061 -308.734595 
L 331.226192 -309.073267 
L 331.591774 -309.381606 
L 331.957356 -309.654513 
L 332.322938 -309.887404 
L 332.688521 -310.076349 
L 333.054103 -310.218174 
L 333.419685 -310.310529 
L 333.785267 -310.351921 
L 334.150849 -310.341723 
L 334.516431 -310.280179 
L 334.882014 -310.16841 
L 335.247596 -310.008424 
L 335.613178 -309.803141 
L 335.97876 -309.55641 
L 336.344342 -309.273004 
L 336.709924 -308.958581 
L 337.075507 -308.619581 
L 337.441089 -308.263062 
L 337.806671 -307.896459 
L 338.172253 -307.527292 
L 338.537835 -307.162842 
L 338.903417 -306.809826 
L 339.269 -306.474109 
L 339.634582 -306.160502 
L 340.000164 -305.872656 
L 340.365746 -305.613087 
L 340.731328 -305.383322 
L 341.09691 -305.18416 
L 341.462493 -305.016012 
L 341.828075 -304.879292 
L 342.193657 -304.774804 
L 342.559239 -304.704087 
L 342.924821 -304.669666 
L 343.290403 -304.675193 
L 343.655986 -304.725433 
L 344.021568 -304.826087 
L 344.38715 -304.983465 
L 344.752732 -305.203982 
L 345.118314 -305.493536 
L 345.483896 -305.856756 
L 345.849478 -306.296204 
L 346.215061 -306.81154 
L 346.580643 -307.398764 
L 346.946225 -308.049571 
L 347.311807 -308.750935 
L 347.677389 -309.484991 
L 348.042971 -310.229291 
L 348.408554 -310.957487 
L 348.774136 -311.640447 
L 349.139718 -312.247775 
L 349.5053 -312.749639 
L 349.870882 -313.118778 
L 350.236464 -313.332504 
L 350.602047 -313.3745 
L 350.967629 -313.236223 
L 351.333211 -312.917737 
L 351.698793 -312.427884 
L 352.064375 -311.783738 
L 352.429957 -311.009399 
L 352.79554 -310.134247 
L 353.161122 -309.190835 
L 353.161122 -291.642831 
L 353.161122 -291.642831 
L 352.79554 -290.69942 
L 352.429957 -289.824268 
L 352.064375 -289.049929 
L 351.698793 -288.405783 
L 351.333211 -287.91593 
L 350.967629 -287.597444 
L 350.602047 -287.459167 
L 350.236464 -287.501163 
L 349.870882 -287.714889 
L 349.5053 -288.084028 
L 349.139718 -288.585892 
L 348.774136 -289.193219 
L 348.408554 -289.87618 
L 348.042971 -290.604376 
L 347.677389 -291.348676 
L 347.311807 -292.082731 
L 346.946225 -292.784095 
L 346.580643 -293.434902 
L 346.215061 -294.022126 
L 345.849478 -294.537463 
L 345.483896 -294.97691 
L 345.118314 -295.340131 
L 344.752732 -295.629684 
L 344.38715 -295.850202 
L 344.021568 -296.00758 
L 343.655986 -296.108234 
L 343.290403 -296.158473 
L 342.924821 -296.164 
L 342.559239 -296.12958 
L 342.193657 -296.058862 
L 341.828075 -295.954375 
L 341.462493 -295.817655 
L 341.09691 -295.649507 
L 340.731328 -295.450344 
L 340.365746 -295.22058 
L 340.000164 -294.961011 
L 339.634582 -294.673165 
L 339.269 -294.359558 
L 338.903417 -294.023841 
L 338.537835 -293.670824 
L 338.172253 -293.306375 
L 337.806671 -292.937208 
L 337.441089 -292.570605 
L 337.075507 -292.214085 
L 336.709924 -291.875086 
L 336.344342 -291.560663 
L 335.97876 -291.277257 
L 335.613178 -291.030526 
L 335.247596 -290.825243 
L 334.882014 -290.665257 
L 334.516431 -290.553487 
L 334.150849 -290.491944 
L 333.785267 -290.481746 
L 333.419685 -290.523137 
L 333.054103 -290.615492 
L 332.688521 -290.757317 
L 332.322938 -290.946262 
L 331.957356 -291.179154 
L 331.591774 -291.452061 
L 331.226192 -291.760399 
L 330.86061 -292.099072 
L 330.495028 -292.46264 
L 330.129445 -292.845504 
L 329.763863 -293.242088 
L 329.398281 -293.646999 
L 329.032699 -294.055161 
L 328.667117 -294.461915 
L 328.301535 -294.863079 
L 327.935953 -295.254988 
L 327.57037 -295.634511 
L 327.204788 -295.999058 
L 326.839206 -296.346587 
L 326.473624 -296.675601 
L 326.108042 -296.985153 
L 325.74246 -297.274823 
L 325.376877 -297.544696 
L 325.011295 -297.795305 
L 324.645713 -298.027557 
L 324.280131 -298.242634 
L 323.914549 -298.441881 
L 323.548967 -298.626689 
L 323.183384 -298.798385 
L 322.817802 -298.958146 
L 322.45222 -299.106933 
L 322.086638 -299.245464 
L 321.721056 -299.374219 
L 321.355474 -299.49347 
L 320.989891 -299.60334 
L 320.624309 -299.70387 
L 320.258727 -299.79509 
L 319.893145 -299.877083 
L 319.527563 -299.95004 
L 319.161981 -300.014289 
L 318.796398 -300.070308 
L 318.430816 -300.118715 
L 318.065234 -300.160243 
L 317.699652 -300.195702 
L 317.33407 -300.225929 
L 316.968488 -300.251749 
z
" id="m79af1d91ad" style="stroke:#424242;"/>
    </defs>
    <g clip-path="url(#p9bdcb2f952)">
     <use style="fill:#7c78ab;stroke:#424242;" x="0" xlink:href="#m79af1d91ad" y="323.353333"/>
    </g>
   </g>
   <g id="PolyCollection_2">
    <defs>
     <path d="M 281.117702 -274.451884 
L 281.117702 -274.551116 
L 281.833387 -274.549274 
L 282.549073 -274.543649 
L 283.264759 -274.535582 
L 283.980445 -274.526783 
L 284.696131 -274.518782 
L 285.411817 -274.512576 
L 286.127502 -274.5086 
L 286.843188 -274.506932 
L 287.558874 -274.507547 
L 288.27456 -274.510472 
L 288.990246 -274.515733 
L 289.705932 -274.523164 
L 290.421617 -274.532196 
L 291.137303 -274.541837 
L 291.852989 -274.550985 
L 292.568675 -274.559058 
L 293.284361 -274.566722 
L 294.000047 -274.576394 
L 294.715732 -274.592263 
L 295.431418 -274.619746 
L 296.147104 -274.664532 
L 296.86279 -274.731403 
L 297.578476 -274.823115 
L 298.294162 -274.939674 
L 299.009847 -275.078419 
L 299.725533 -275.235193 
L 300.441219 -275.406429 
L 301.156905 -275.591313 
L 301.872591 -275.792802 
L 302.588277 -276.016616 
L 303.303962 -276.268376 
L 304.019648 -276.550237 
L 304.735334 -276.858872 
L 305.45102 -277.186075 
L 306.166706 -277.52178 
L 306.882392 -277.857934 
L 307.598077 -278.1912 
L 308.313763 -278.523207 
L 309.029449 -278.858571 
L 309.745135 -279.202084 
L 310.460821 -279.556701 
L 311.176507 -279.923145 
L 311.892192 -280.300816 
L 312.607878 -280.689088 
L 313.323564 -281.088143 
L 314.03925 -281.49884 
L 314.754936 -281.921312 
L 315.470622 -282.352144 
L 316.186307 -282.780686 
L 316.901993 -283.186424 
L 317.617679 -283.540245 
L 318.333365 -283.811586 
L 319.049051 -283.980378 
L 319.764737 -284.048775 
L 320.480422 -284.045691 
L 321.196108 -284.019126 
L 321.911794 -284.017165 
L 322.62748 -284.065481 
L 323.343166 -284.15277 
L 324.058852 -284.232742 
L 324.774537 -284.242884 
L 325.490223 -284.131018 
L 326.205909 -283.876495 
L 326.921595 -283.496361 
L 327.637281 -283.035326 
L 328.352967 -282.546356 
L 329.068652 -282.071698 
L 329.784338 -281.631742 
L 330.500024 -281.224036 
L 331.21571 -280.830333 
L 331.931396 -280.427408 
L 332.647081 -279.997323 
L 333.362767 -279.534025 
L 334.078453 -279.044849 
L 334.794139 -278.547281 
L 335.509825 -278.062777 
L 336.225511 -277.610114 
L 336.941196 -277.200559 
L 337.656882 -276.836206 
L 338.372568 -276.511628 
L 339.088254 -276.21783 
L 339.80394 -275.946824 
L 340.519626 -275.695004 
L 341.235311 -275.46409 
L 341.950997 -275.259479 
L 342.666683 -275.08703 
L 343.382369 -274.949938 
L 344.098055 -274.847181 
L 344.813741 -274.774 
L 345.529426 -274.723794 
L 346.245112 -274.690207 
L 346.960798 -274.668367 
L 347.676484 -274.654962 
L 348.39217 -274.647537 
L 349.107856 -274.643706 
L 349.823541 -274.640796 
L 350.539227 -274.63609 
L 351.254913 -274.627466 
L 351.970599 -274.614037 
L 351.970599 -274.388963 
L 351.970599 -274.388963 
L 351.254913 -274.375534 
L 350.539227 -274.36691 
L 349.823541 -274.362204 
L 349.107856 -274.359294 
L 348.39217 -274.355463 
L 347.676484 -274.348038 
L 346.960798 -274.334633 
L 346.245112 -274.312793 
L 345.529426 -274.279206 
L 344.813741 -274.229 
L 344.098055 -274.155819 
L 343.382369 -274.053062 
L 342.666683 -273.91597 
L 341.950997 -273.743521 
L 341.235311 -273.53891 
L 340.519626 -273.307996 
L 339.80394 -273.056176 
L 339.088254 -272.78517 
L 338.372568 -272.491372 
L 337.656882 -272.166794 
L 336.941196 -271.802441 
L 336.225511 -271.392886 
L 335.509825 -270.940223 
L 334.794139 -270.455719 
L 334.078453 -269.958151 
L 333.362767 -269.468975 
L 332.647081 -269.005677 
L 331.931396 -268.575592 
L 331.21571 -268.172667 
L 330.500024 -267.778964 
L 329.784338 -267.371258 
L 329.068652 -266.931302 
L 328.352967 -266.456644 
L 327.637281 -265.967674 
L 326.921595 -265.506639 
L 326.205909 -265.126505 
L 325.490223 -264.871982 
L 324.774537 -264.760116 
L 324.058852 -264.770258 
L 323.343166 -264.85023 
L 322.62748 -264.937519 
L 321.911794 -264.985835 
L 321.196108 -264.983874 
L 320.480422 -264.957309 
L 319.764737 -264.954225 
L 319.049051 -265.022622 
L 318.333365 -265.191414 
L 317.617679 -265.462755 
L 316.901993 -265.816576 
L 316.186307 -266.222314 
L 315.470622 -266.650856 
L 314.754936 -267.081688 
L 314.03925 -267.50416 
L 313.323564 -267.914857 
L 312.607878 -268.313912 
L 311.892192 -268.702184 
L 311.176507 -269.079855 
L 310.460821 -269.446299 
L 309.745135 -269.800916 
L 309.029449 -270.144429 
L 308.313763 -270.479793 
L 307.598077 -270.8118 
L 306.882392 -271.145066 
L 306.166706 -271.48122 
L 305.45102 -271.816925 
L 304.735334 -272.144128 
L 304.019648 -272.452763 
L 303.303962 -272.734624 
L 302.588277 -272.986384 
L 301.872591 -273.210198 
L 301.156905 -273.411687 
L 300.441219 -273.596571 
L 299.725533 -273.767807 
L 299.009847 -273.924581 
L 298.294162 -274.063326 
L 297.578476 -274.179885 
L 296.86279 -274.271597 
L 296.147104 -274.338468 
L 295.431418 -274.383254 
L 294.715732 -274.410737 
L 294.000047 -274.426606 
L 293.284361 -274.436278 
L 292.568675 -274.443942 
L 291.852989 -274.452015 
L 291.137303 -274.461163 
L 290.421617 -274.470804 
L 289.705932 -274.479836 
L 288.990246 -274.487267 
L 288.27456 -274.492528 
L 287.558874 -274.495453 
L 286.843188 -274.496068 
L 286.127502 -274.4944 
L 285.411817 -274.490424 
L 284.696131 -274.484218 
L 283.980445 -274.476217 
L 283.264759 -274.467418 
L 282.549073 -274.459351 
L 281.833387 -274.453726 
L 281.117702 -274.451884 
z
" id="mb4d6cb7b04" style="stroke:#424242;"/>
    </defs>
    <g clip-path="url(#p9bdcb2f952)">
     <use style="fill:#be631d;stroke:#424242;" x="0" xlink:href="#mb4d6cb7b04" y="323.353333"/>
    </g>
   </g>
   <g id="patch_86">
    <path clip-path="url(#p9bdcb2f952)" d="M 113.976889 35.894167 
L 113.976889 35.894167 
L 113.976889 35.894167 
L 113.976889 35.894167 
z
" style="fill:#7c78ab;stroke:#424242;stroke-linejoin:miter;stroke-width:0.5;"/>
   </g>
   <g id="patch_87">
    <path clip-path="url(#p9bdcb2f952)" d="M 113.976889 35.894167 
L 113.976889 35.894167 
L 113.976889 35.894167 
L 113.976889 35.894167 
z
" style="fill:#be631d;stroke:#424242;stroke-linejoin:miter;stroke-width:0.5;"/>
   </g>
   <g id="matplotlib.axis_3">
    <g id="xtick_5">
     <g id="line2d_9">
      <g>
       <use style="stroke:#000000;stroke-width:1.6;" x="113.976889" xlink:href="#m9b6e32efac" y="262.653333"/>
      </g>
     </g>
     <g id="text_11">
      <!-- 0.0 -->
      <g transform="translate(98.073764 292.550208)scale(0.2 -0.2)">
       <use xlink:href="#DejaVuSans-48"/>
       <use x="63.623047" xlink:href="#DejaVuSans-46"/>
       <use x="95.410156" xlink:href="#DejaVuSans-48"/>
      </g>
     </g>
    </g>
    <g id="xtick_6">
     <g id="line2d_10">
      <g>
       <use style="stroke:#000000;stroke-width:1.6;" x="183.084444" xlink:href="#m9b6e32efac" y="262.653333"/>
      </g>
     </g>
     <g id="text_12">
      <!-- 0.2 -->
      <g transform="translate(167.181319 292.550208)scale(0.2 -0.2)">
       <use xlink:href="#DejaVuSans-48"/>
       <use x="63.623047" xlink:href="#DejaVuSans-46"/>
       <use x="95.410156" xlink:href="#DejaVuSans-50"/>
      </g>
     </g>
    </g>
    <g id="xtick_7">
     <g id="line2d_11">
      <g>
       <use style="stroke:#000000;stroke-width:1.6;" x="252.192" xlink:href="#m9b6e32efac" y="262.653333"/>
      </g>
     </g>
     <g id="text_13">
      <!-- 0.4 -->
      <g transform="translate(236.288875 292.550208)scale(0.2 -0.2)">
       <use xlink:href="#DejaVuSans-48"/>
       <use x="63.623047" xlink:href="#DejaVuSans-46"/>
       <use x="95.410156" xlink:href="#DejaVuSans-52"/>
      </g>
     </g>
    </g>
    <g id="xtick_8">
     <g id="line2d_12">
      <g>
       <use style="stroke:#000000;stroke-width:1.6;" x="321.299556" xlink:href="#m9b6e32efac" y="262.653333"/>
      </g>
     </g>
     <g id="text_14">
      <!-- 0.6 -->
      <g transform="translate(305.396431 292.550208)scale(0.2 -0.2)">
       <use xlink:href="#DejaVuSans-48"/>
       <use x="63.623047" xlink:href="#DejaVuSans-46"/>
       <use x="95.410156" xlink:href="#DejaVuSans-54"/>
      </g>
     </g>
    </g>
    <g id="text_15">
     <!-- Max JS Divergence within $\epsilon$ -->
     <defs>
      <path d="M 9.8125 72.90625 
L 24.515625 72.90625 
L 43.109375 23.296875 
L 61.8125 72.90625 
L 76.515625 72.90625 
L 76.515625 0 
L 66.890625 0 
L 66.890625 64.015625 
L 48.09375 14.015625 
L 38.1875 14.015625 
L 19.390625 64.015625 
L 19.390625 0 
L 9.8125 0 
z
" id="DejaVuSans-77"/>
      <path d="M 34.28125 27.484375 
Q 23.390625 27.484375 19.1875 25 
Q 14.984375 22.515625 14.984375 16.5 
Q 14.984375 11.71875 18.140625 8.90625 
Q 21.296875 6.109375 26.703125 6.109375 
Q 34.1875 6.109375 38.703125 11.40625 
Q 43.21875 16.703125 43.21875 25.484375 
L 43.21875 27.484375 
z
M 52.203125 31.203125 
L 52.203125 0 
L 43.21875 0 
L 43.21875 8.296875 
Q 40.140625 3.328125 35.546875 0.953125 
Q 30.953125 -1.421875 24.3125 -1.421875 
Q 15.921875 -1.421875 10.953125 3.296875 
Q 6 8.015625 6 15.921875 
Q 6 25.140625 12.171875 29.828125 
Q 18.359375 34.515625 30.609375 34.515625 
L 43.21875 34.515625 
L 43.21875 35.40625 
Q 43.21875 41.609375 39.140625 45 
Q 35.0625 48.390625 27.6875 48.390625 
Q 23 48.390625 18.546875 47.265625 
Q 14.109375 46.140625 10.015625 43.890625 
L 10.015625 52.203125 
Q 14.9375 54.109375 19.578125 55.046875 
Q 24.21875 56 28.609375 56 
Q 40.484375 56 46.34375 49.84375 
Q 52.203125 43.703125 52.203125 31.203125 
z
" id="DejaVuSans-97"/>
      <path d="M 54.890625 54.6875 
L 35.109375 28.078125 
L 55.90625 0 
L 45.3125 0 
L 29.390625 21.484375 
L 13.484375 0 
L 2.875 0 
L 24.125 28.609375 
L 4.6875 54.6875 
L 15.28125 54.6875 
L 29.78125 35.203125 
L 44.28125 54.6875 
z
" id="DejaVuSans-120"/>
      <path d="M 9.8125 72.90625 
L 19.671875 72.90625 
L 19.671875 5.078125 
Q 19.671875 -8.109375 14.671875 -14.0625 
Q 9.671875 -20.015625 -1.421875 -20.015625 
L -5.171875 -20.015625 
L -5.171875 -11.71875 
L -2.09375 -11.71875 
Q 4.4375 -11.71875 7.125 -8.046875 
Q 9.8125 -4.390625 9.8125 5.078125 
z
" id="DejaVuSans-74"/>
      <path d="M 53.515625 70.515625 
L 53.515625 60.890625 
Q 47.90625 63.578125 42.921875 64.890625 
Q 37.9375 66.21875 33.296875 66.21875 
Q 25.25 66.21875 20.875 63.09375 
Q 16.5 59.96875 16.5 54.203125 
Q 16.5 49.359375 19.40625 46.890625 
Q 22.3125 44.4375 30.421875 42.921875 
L 36.375 41.703125 
Q 47.40625 39.59375 52.65625 34.296875 
Q 57.90625 29 57.90625 20.125 
Q 57.90625 9.515625 50.796875 4.046875 
Q 43.703125 -1.421875 29.984375 -1.421875 
Q 24.8125 -1.421875 18.96875 -0.25 
Q 13.140625 0.921875 6.890625 3.21875 
L 6.890625 13.375 
Q 12.890625 10.015625 18.65625 8.296875 
Q 24.421875 6.59375 29.984375 6.59375 
Q 38.421875 6.59375 43.015625 9.90625 
Q 47.609375 13.234375 47.609375 19.390625 
Q 47.609375 24.75 44.3125 27.78125 
Q 41.015625 30.8125 33.5 32.328125 
L 27.484375 33.5 
Q 16.453125 35.6875 11.515625 40.375 
Q 6.59375 45.0625 6.59375 53.421875 
Q 6.59375 63.09375 13.40625 68.65625 
Q 20.21875 74.21875 32.171875 74.21875 
Q 37.3125 74.21875 42.625 73.28125 
Q 47.953125 72.359375 53.515625 70.515625 
z
" id="DejaVuSans-83"/>
      <path d="M 19.671875 64.796875 
L 19.671875 8.109375 
L 31.59375 8.109375 
Q 46.6875 8.109375 53.6875 14.9375 
Q 60.6875 21.78125 60.6875 36.53125 
Q 60.6875 51.171875 53.6875 57.984375 
Q 46.6875 64.796875 31.59375 64.796875 
z
M 9.8125 72.90625 
L 30.078125 72.90625 
Q 51.265625 72.90625 61.171875 64.09375 
Q 71.09375 55.28125 71.09375 36.53125 
Q 71.09375 17.671875 61.125 8.828125 
Q 51.171875 0 30.078125 0 
L 9.8125 0 
z
" id="DejaVuSans-68"/>
      <path d="M 9.421875 54.6875 
L 18.40625 54.6875 
L 18.40625 0 
L 9.421875 0 
z
M 9.421875 75.984375 
L 18.40625 75.984375 
L 18.40625 64.59375 
L 9.421875 64.59375 
z
" id="DejaVuSans-105"/>
      <path d="M 2.984375 54.6875 
L 12.5 54.6875 
L 29.59375 8.796875 
L 46.6875 54.6875 
L 56.203125 54.6875 
L 35.6875 0 
L 23.484375 0 
z
" id="DejaVuSans-118"/>
      <path d="M 56.203125 29.59375 
L 56.203125 25.203125 
L 14.890625 25.203125 
Q 15.484375 15.921875 20.484375 11.0625 
Q 25.484375 6.203125 34.421875 6.203125 
Q 39.59375 6.203125 44.453125 7.46875 
Q 49.3125 8.734375 54.109375 11.28125 
L 54.109375 2.78125 
Q 49.265625 0.734375 44.1875 -0.34375 
Q 39.109375 -1.421875 33.890625 -1.421875 
Q 20.796875 -1.421875 13.15625 6.1875 
Q 5.515625 13.8125 5.515625 26.8125 
Q 5.515625 40.234375 12.765625 48.109375 
Q 20.015625 56 32.328125 56 
Q 43.359375 56 49.78125 48.890625 
Q 56.203125 41.796875 56.203125 29.59375 
z
M 47.21875 32.234375 
Q 47.125 39.59375 43.09375 43.984375 
Q 39.0625 48.390625 32.421875 48.390625 
Q 24.90625 48.390625 20.390625 44.140625 
Q 15.875 39.890625 15.1875 32.171875 
z
" id="DejaVuSans-101"/>
      <path d="M 41.109375 46.296875 
Q 39.59375 47.171875 37.8125 47.578125 
Q 36.03125 48 33.890625 48 
Q 26.265625 48 22.1875 43.046875 
Q 18.109375 38.09375 18.109375 28.8125 
L 18.109375 0 
L 9.078125 0 
L 9.078125 54.6875 
L 18.109375 54.6875 
L 18.109375 46.1875 
Q 20.953125 51.171875 25.484375 53.578125 
Q 30.03125 56 36.53125 56 
Q 37.453125 56 38.578125 55.875 
Q 39.703125 55.765625 41.0625 55.515625 
z
" id="DejaVuSans-114"/>
      <path d="M 45.40625 27.984375 
Q 45.40625 37.75 41.375 43.109375 
Q 37.359375 48.484375 30.078125 48.484375 
Q 22.859375 48.484375 18.828125 43.109375 
Q 14.796875 37.75 14.796875 27.984375 
Q 14.796875 18.265625 18.828125 12.890625 
Q 22.859375 7.515625 30.078125 7.515625 
Q 37.359375 7.515625 41.375 12.890625 
Q 45.40625 18.265625 45.40625 27.984375 
z
M 54.390625 6.78125 
Q 54.390625 -7.171875 48.1875 -13.984375 
Q 42 -20.796875 29.203125 -20.796875 
Q 24.46875 -20.796875 20.265625 -20.09375 
Q 16.0625 -19.390625 12.109375 -17.921875 
L 12.109375 -9.1875 
Q 16.0625 -11.328125 19.921875 -12.34375 
Q 23.78125 -13.375 27.78125 -13.375 
Q 36.625 -13.375 41.015625 -8.765625 
Q 45.40625 -4.15625 45.40625 5.171875 
L 45.40625 9.625 
Q 42.625 4.78125 38.28125 2.390625 
Q 33.9375 0 27.875 0 
Q 17.828125 0 11.671875 7.65625 
Q 5.515625 15.328125 5.515625 27.984375 
Q 5.515625 40.671875 11.671875 48.328125 
Q 17.828125 56 27.875 56 
Q 33.9375 56 38.28125 53.609375 
Q 42.625 51.21875 45.40625 46.390625 
L 45.40625 54.6875 
L 54.390625 54.6875 
z
" id="DejaVuSans-103"/>
      <path d="M 54.890625 33.015625 
L 54.890625 0 
L 45.90625 0 
L 45.90625 32.71875 
Q 45.90625 40.484375 42.875 44.328125 
Q 39.84375 48.1875 33.796875 48.1875 
Q 26.515625 48.1875 22.3125 43.546875 
Q 18.109375 38.921875 18.109375 30.90625 
L 18.109375 0 
L 9.078125 0 
L 9.078125 54.6875 
L 18.109375 54.6875 
L 18.109375 46.1875 
Q 21.34375 51.125 25.703125 53.5625 
Q 30.078125 56 35.796875 56 
Q 45.21875 56 50.046875 50.171875 
Q 54.890625 44.34375 54.890625 33.015625 
z
" id="DejaVuSans-110"/>
      <path d="M 48.78125 52.59375 
L 48.78125 44.1875 
Q 44.96875 46.296875 41.140625 47.34375 
Q 37.3125 48.390625 33.40625 48.390625 
Q 24.65625 48.390625 19.8125 42.84375 
Q 14.984375 37.3125 14.984375 27.296875 
Q 14.984375 17.28125 19.8125 11.734375 
Q 24.65625 6.203125 33.40625 6.203125 
Q 37.3125 6.203125 41.140625 7.25 
Q 44.96875 8.296875 48.78125 10.40625 
L 48.78125 2.09375 
Q 45.015625 0.34375 40.984375 -0.53125 
Q 36.96875 -1.421875 32.421875 -1.421875 
Q 20.0625 -1.421875 12.78125 6.34375 
Q 5.515625 14.109375 5.515625 27.296875 
Q 5.515625 40.671875 12.859375 48.328125 
Q 20.21875 56 33.015625 56 
Q 37.15625 56 41.109375 55.140625 
Q 45.0625 54.296875 48.78125 52.59375 
z
" id="DejaVuSans-99"/>
      <path d="M 4.203125 54.6875 
L 13.1875 54.6875 
L 24.421875 12.015625 
L 35.59375 54.6875 
L 46.1875 54.6875 
L 57.421875 12.015625 
L 68.609375 54.6875 
L 77.59375 54.6875 
L 63.28125 0 
L 52.6875 0 
L 40.921875 44.828125 
L 29.109375 0 
L 18.5 0 
z
" id="DejaVuSans-119"/>
      <path d="M 18.3125 70.21875 
L 18.3125 54.6875 
L 36.8125 54.6875 
L 36.8125 47.703125 
L 18.3125 47.703125 
L 18.3125 18.015625 
Q 18.3125 11.328125 20.140625 9.421875 
Q 21.96875 7.515625 27.59375 7.515625 
L 36.8125 7.515625 
L 36.8125 0 
L 27.59375 0 
Q 17.1875 0 13.234375 3.875 
Q 9.28125 7.765625 9.28125 18.015625 
L 9.28125 47.703125 
L 2.6875 47.703125 
L 2.6875 54.6875 
L 9.28125 54.6875 
L 9.28125 70.21875 
z
" id="DejaVuSans-116"/>
      <path d="M 54.890625 33.015625 
L 54.890625 0 
L 45.90625 0 
L 45.90625 32.71875 
Q 45.90625 40.484375 42.875 44.328125 
Q 39.84375 48.1875 33.796875 48.1875 
Q 26.515625 48.1875 22.3125 43.546875 
Q 18.109375 38.921875 18.109375 30.90625 
L 18.109375 0 
L 9.078125 0 
L 9.078125 75.984375 
L 18.109375 75.984375 
L 18.109375 46.1875 
Q 21.34375 51.125 25.703125 53.5625 
Q 30.078125 56 35.796875 56 
Q 45.21875 56 50.046875 50.171875 
Q 54.890625 44.34375 54.890625 33.015625 
z
" id="DejaVuSans-104"/>
      <path d="M 19.734375 29.5 
Q 14.453125 30.671875 12.15625 33.84375 
Q 10.453125 36.078125 10.453125 39.109375 
Q 10.453125 47.40625 18.359375 52.25 
Q 24.609375 56.0625 34.1875 56.0625 
Q 37.890625 56.0625 41.9375 55.46875 
Q 46 54.890625 50.53125 53.71875 
L 48.96875 45.5625 
Q 44.484375 46.96875 40.71875 47.609375 
Q 36.859375 48.25 33.40625 48.25 
Q 27.59375 48.25 23.78125 46 
Q 19.1875 43.3125 19.1875 39.40625 
Q 19.1875 36.8125 21.578125 35.015625 
Q 24.421875 32.859375 30.078125 32.859375 
L 37.640625 32.859375 
L 36.234375 25.4375 
L 29 25.4375 
Q 22.265625 25.4375 18.3125 22.953125 
Q 12.9375 19.578125 12.9375 14.3125 
Q 12.9375 10.984375 15.828125 8.796875 
Q 19.4375 6.0625 26.8125 6.0625 
Q 31.34375 6.0625 35.6875 6.9375 
Q 40.046875 7.859375 43.84375 9.671875 
L 42.1875 1.3125 
Q 37.546875 -0.046875 33.296875 -0.734375 
Q 29.046875 -1.421875 25.140625 -1.421875 
Q 13.53125 -1.421875 8.0625 3.03125 
Q 3.90625 6.453125 3.90625 12.203125 
Q 3.90625 19.96875 9.375 24.75 
Q 13.421875 28.328125 19.734375 29.5 
z
" id="DejaVuSans-Oblique-949"/>
     </defs>
     <g transform="translate(90.676667 315.909583)scale(0.2 -0.2)">
      <use transform="translate(0 0.015625)" xlink:href="#DejaVuSans-77"/>
      <use transform="translate(86.279297 0.015625)" xlink:href="#DejaVuSans-97"/>
      <use transform="translate(147.558594 0.015625)" xlink:href="#DejaVuSans-120"/>
      <use transform="translate(206.738281 0.015625)" xlink:href="#DejaVuSans-32"/>
      <use transform="translate(238.525391 0.015625)" xlink:href="#DejaVuSans-74"/>
      <use transform="translate(268.017578 0.015625)" xlink:href="#DejaVuSans-83"/>
      <use transform="translate(331.494141 0.015625)" xlink:href="#DejaVuSans-32"/>
      <use transform="translate(363.28125 0.015625)" xlink:href="#DejaVuSans-68"/>
      <use transform="translate(440.283203 0.015625)" xlink:href="#DejaVuSans-105"/>
      <use transform="translate(468.066406 0.015625)" xlink:href="#DejaVuSans-118"/>
      <use transform="translate(527.246094 0.015625)" xlink:href="#DejaVuSans-101"/>
      <use transform="translate(588.769531 0.015625)" xlink:href="#DejaVuSans-114"/>
      <use transform="translate(629.882812 0.015625)" xlink:href="#DejaVuSans-103"/>
      <use transform="translate(693.359375 0.015625)" xlink:href="#DejaVuSans-101"/>
      <use transform="translate(754.882812 0.015625)" xlink:href="#DejaVuSans-110"/>
      <use transform="translate(818.261719 0.015625)" xlink:href="#DejaVuSans-99"/>
      <use transform="translate(873.242188 0.015625)" xlink:href="#DejaVuSans-101"/>
      <use transform="translate(934.765625 0.015625)" xlink:href="#DejaVuSans-32"/>
      <use transform="translate(966.552734 0.015625)" xlink:href="#DejaVuSans-119"/>
      <use transform="translate(1048.339844 0.015625)" xlink:href="#DejaVuSans-105"/>
      <use transform="translate(1076.123047 0.015625)" xlink:href="#DejaVuSans-116"/>
      <use transform="translate(1115.332031 0.015625)" xlink:href="#DejaVuSans-104"/>
      <use transform="translate(1178.710938 0.015625)" xlink:href="#DejaVuSans-105"/>
      <use transform="translate(1206.494141 0.015625)" xlink:href="#DejaVuSans-110"/>
      <use transform="translate(1269.873047 0.015625)" xlink:href="#DejaVuSans-32"/>
      <use transform="translate(1301.660156 0.015625)" xlink:href="#DejaVuSans-Oblique-949"/>
     </g>
    </g>
   </g>
   <g id="matplotlib.axis_4">
    <g id="ytick_5">
     <g id="line2d_13">
      <g>
       <use style="stroke:#000000;stroke-width:1.6;" x="96.7" xlink:href="#m1cfc657fcf" y="35.894167"/>
      </g>
     </g>
     <g id="text_16">
      <!-- [0.00, -->
      <defs>
       <path d="M 8.59375 75.984375 
L 29.296875 75.984375 
L 29.296875 69 
L 17.578125 69 
L 17.578125 -6.203125 
L 29.296875 -6.203125 
L 29.296875 -13.1875 
L 8.59375 -13.1875 
z
" id="DejaVuSans-91"/>
       <path d="M 11.71875 12.40625 
L 22.015625 12.40625 
L 22.015625 4 
L 14.015625 -11.625 
L 7.71875 -11.625 
L 11.71875 4 
z
" id="DejaVuSans-44"/>
      </defs>
      <g transform="translate(23.309375 32.294792)scale(0.2 -0.2)">
       <use xlink:href="#DejaVuSans-91"/>
       <use x="39.013672" xlink:href="#DejaVuSans-48"/>
       <use x="102.636719" xlink:href="#DejaVuSans-46"/>
       <use x="134.423828" xlink:href="#DejaVuSans-48"/>
       <use x="198.046875" xlink:href="#DejaVuSans-48"/>
       <use x="261.669922" xlink:href="#DejaVuSans-44"/>
      </g>
      <!-- 0.25) -->
      <defs>
       <path d="M 10.796875 72.90625 
L 49.515625 72.90625 
L 49.515625 64.59375 
L 19.828125 64.59375 
L 19.828125 46.734375 
Q 21.96875 47.46875 24.109375 47.828125 
Q 26.265625 48.1875 28.421875 48.1875 
Q 40.625 48.1875 47.75 41.5 
Q 54.890625 34.8125 54.890625 23.390625 
Q 54.890625 11.625 47.5625 5.09375 
Q 40.234375 -1.421875 26.90625 -1.421875 
Q 22.3125 -1.421875 17.546875 -0.640625 
Q 12.796875 0.140625 7.71875 1.703125 
L 7.71875 11.625 
Q 12.109375 9.234375 16.796875 8.0625 
Q 21.484375 6.890625 26.703125 6.890625 
Q 35.15625 6.890625 40.078125 11.328125 
Q 45.015625 15.765625 45.015625 23.390625 
Q 45.015625 31 40.078125 35.4375 
Q 35.15625 39.890625 26.703125 39.890625 
Q 22.75 39.890625 18.8125 39.015625 
Q 14.890625 38.140625 10.796875 36.28125 
z
" id="DejaVuSans-53"/>
       <path d="M 8.015625 75.875 
L 15.828125 75.875 
Q 23.140625 64.359375 26.78125 53.3125 
Q 30.421875 42.28125 30.421875 31.390625 
Q 30.421875 20.453125 26.78125 9.375 
Q 23.140625 -1.703125 15.828125 -13.1875 
L 8.015625 -13.1875 
Q 14.5 -2 17.703125 9.0625 
Q 20.90625 20.125 20.90625 31.390625 
Q 20.90625 42.671875 17.703125 53.65625 
Q 14.5 64.65625 8.015625 75.875 
z
" id="DejaVuSans-41"/>
      </defs>
      <g transform="translate(29.665625 54.690417)scale(0.2 -0.2)">
       <use xlink:href="#DejaVuSans-48"/>
       <use x="63.623047" xlink:href="#DejaVuSans-46"/>
       <use x="95.410156" xlink:href="#DejaVuSans-50"/>
       <use x="159.033203" xlink:href="#DejaVuSans-53"/>
       <use x="222.65625" xlink:href="#DejaVuSans-41"/>
      </g>
     </g>
    </g>
    <g id="ytick_6">
     <g id="line2d_14">
      <g>
       <use style="stroke:#000000;stroke-width:1.6;" x="96.7" xlink:href="#m1cfc657fcf" y="100.6825"/>
      </g>
     </g>
     <g id="text_17">
      <!-- [0.25, -->
      <g transform="translate(23.309375 97.083125)scale(0.2 -0.2)">
       <use xlink:href="#DejaVuSans-91"/>
       <use x="39.013672" xlink:href="#DejaVuSans-48"/>
       <use x="102.636719" xlink:href="#DejaVuSans-46"/>
       <use x="134.423828" xlink:href="#DejaVuSans-50"/>
       <use x="198.046875" xlink:href="#DejaVuSans-53"/>
       <use x="261.669922" xlink:href="#DejaVuSans-44"/>
      </g>
      <!-- 0.50) -->
      <g transform="translate(29.665625 119.47875)scale(0.2 -0.2)">
       <use xlink:href="#DejaVuSans-48"/>
       <use x="63.623047" xlink:href="#DejaVuSans-46"/>
       <use x="95.410156" xlink:href="#DejaVuSans-53"/>
       <use x="159.033203" xlink:href="#DejaVuSans-48"/>
       <use x="222.65625" xlink:href="#DejaVuSans-41"/>
      </g>
     </g>
    </g>
    <g id="ytick_7">
     <g id="line2d_15">
      <g>
       <use style="stroke:#000000;stroke-width:1.6;" x="96.7" xlink:href="#m1cfc657fcf" y="165.470833"/>
      </g>
     </g>
     <g id="text_18">
      <!-- [0.50, -->
      <g transform="translate(23.309375 161.871458)scale(0.2 -0.2)">
       <use xlink:href="#DejaVuSans-91"/>
       <use x="39.013672" xlink:href="#DejaVuSans-48"/>
       <use x="102.636719" xlink:href="#DejaVuSans-46"/>
       <use x="134.423828" xlink:href="#DejaVuSans-53"/>
       <use x="198.046875" xlink:href="#DejaVuSans-48"/>
       <use x="261.669922" xlink:href="#DejaVuSans-44"/>
      </g>
      <!-- 0.75) -->
      <defs>
       <path d="M 8.203125 72.90625 
L 55.078125 72.90625 
L 55.078125 68.703125 
L 28.609375 0 
L 18.3125 0 
L 43.21875 64.59375 
L 8.203125 64.59375 
z
" id="DejaVuSans-55"/>
      </defs>
      <g transform="translate(29.665625 184.267083)scale(0.2 -0.2)">
       <use xlink:href="#DejaVuSans-48"/>
       <use x="63.623047" xlink:href="#DejaVuSans-46"/>
       <use x="95.410156" xlink:href="#DejaVuSans-55"/>
       <use x="159.033203" xlink:href="#DejaVuSans-53"/>
       <use x="222.65625" xlink:href="#DejaVuSans-41"/>
      </g>
     </g>
    </g>
    <g id="ytick_8">
     <g id="line2d_16">
      <g>
       <use style="stroke:#000000;stroke-width:1.6;" x="96.7" xlink:href="#m1cfc657fcf" y="230.259167"/>
      </g>
     </g>
     <g id="text_19">
      <!-- [0.75, -->
      <g transform="translate(23.309375 226.659792)scale(0.2 -0.2)">
       <use xlink:href="#DejaVuSans-91"/>
       <use x="39.013672" xlink:href="#DejaVuSans-48"/>
       <use x="102.636719" xlink:href="#DejaVuSans-46"/>
       <use x="134.423828" xlink:href="#DejaVuSans-55"/>
       <use x="198.046875" xlink:href="#DejaVuSans-53"/>
       <use x="261.669922" xlink:href="#DejaVuSans-44"/>
      </g>
      <!-- 1.00) -->
      <g transform="translate(29.665625 249.055417)scale(0.2 -0.2)">
       <use xlink:href="#DejaVuSans-49"/>
       <use x="63.623047" xlink:href="#DejaVuSans-46"/>
       <use x="95.410156" xlink:href="#DejaVuSans-48"/>
       <use x="159.033203" xlink:href="#DejaVuSans-48"/>
       <use x="222.65625" xlink:href="#DejaVuSans-41"/>
      </g>
     </g>
    </g>
    <g id="text_20">
     <!-- Max Attention -->
     <defs>
      <path d="M 34.1875 63.1875 
L 20.796875 26.90625 
L 47.609375 26.90625 
z
M 28.609375 72.90625 
L 39.796875 72.90625 
L 67.578125 0 
L 57.328125 0 
L 50.6875 18.703125 
L 17.828125 18.703125 
L 11.1875 0 
L 0.78125 0 
z
" id="DejaVuSans-65"/>
      <path d="M 30.609375 48.390625 
Q 23.390625 48.390625 19.1875 42.75 
Q 14.984375 37.109375 14.984375 27.296875 
Q 14.984375 17.484375 19.15625 11.84375 
Q 23.34375 6.203125 30.609375 6.203125 
Q 37.796875 6.203125 41.984375 11.859375 
Q 46.1875 17.53125 46.1875 27.296875 
Q 46.1875 37.015625 41.984375 42.703125 
Q 37.796875 48.390625 30.609375 48.390625 
z
M 30.609375 56 
Q 42.328125 56 49.015625 48.375 
Q 55.71875 40.765625 55.71875 27.296875 
Q 55.71875 13.875 49.015625 6.21875 
Q 42.328125 -1.421875 30.609375 -1.421875 
Q 18.84375 -1.421875 12.171875 6.21875 
Q 5.515625 13.875 5.515625 27.296875 
Q 5.515625 40.765625 12.171875 48.375 
Q 18.84375 56 30.609375 56 
z
" id="DejaVuSans-111"/>
     </defs>
     <g transform="translate(15.15 203.254792)rotate(-90)scale(0.2 -0.2)">
      <use xlink:href="#DejaVuSans-77"/>
      <use x="86.279297" xlink:href="#DejaVuSans-97"/>
      <use x="147.558594" xlink:href="#DejaVuSans-120"/>
      <use x="206.738281" xlink:href="#DejaVuSans-32"/>
      <use x="238.525391" xlink:href="#DejaVuSans-65"/>
      <use x="306.917969" xlink:href="#DejaVuSans-116"/>
      <use x="346.126953" xlink:href="#DejaVuSans-116"/>
      <use x="385.335938" xlink:href="#DejaVuSans-101"/>
      <use x="446.859375" xlink:href="#DejaVuSans-110"/>
      <use x="510.238281" xlink:href="#DejaVuSans-116"/>
      <use x="549.447266" xlink:href="#DejaVuSans-105"/>
      <use x="577.230469" xlink:href="#DejaVuSans-111"/>
      <use x="638.412109" xlink:href="#DejaVuSans-110"/>
     </g>
    </g>
   </g>
   <g id="line2d_17">
    <path clip-path="url(#p9bdcb2f952)" d="M 333.329075 13.141741 
L 333.329075 32.731259 
" style="fill:none;stroke:#424242;stroke-dasharray:1.5,1.5;stroke-dashoffset:0;"/>
   </g>
   <g id="line2d_18">
    <path clip-path="url(#p9bdcb2f952)" d="M 340.142365 17.535236 
L 340.142365 28.337764 
" style="fill:none;stroke:#424242;stroke-dasharray:3,3;stroke-dashoffset:0;"/>
   </g>
   <g id="line2d_19">
    <path clip-path="url(#p9bdcb2f952)" d="M 350.345247 10.149986 
L 350.345247 35.723014 
" style="fill:none;stroke:#424242;stroke-dasharray:1.5,1.5;stroke-dashoffset:0;"/>
   </g>
   <g id="line2d_20">
    <path clip-path="url(#p9bdcb2f952)" d="M 315.292768 41.079696 
L 315.292768 56.623971 
" style="fill:none;stroke:#424242;stroke-dasharray:1.5,1.5;stroke-dashoffset:0;"/>
   </g>
   <g id="line2d_21">
    <path clip-path="url(#p9bdcb2f952)" d="M 321.358931 39.429384 
L 321.358931 58.274283 
" style="fill:none;stroke:#424242;stroke-dasharray:3,3;stroke-dashoffset:0;"/>
   </g>
   <g id="line2d_22">
    <path clip-path="url(#p9bdcb2f952)" d="M 327.785079 40.403345 
L 327.785079 57.300321 
" style="fill:none;stroke:#424242;stroke-dasharray:1.5,1.5;stroke-dashoffset:0;"/>
   </g>
   <g id="line2d_23">
    <path clip-path="url(#p9bdcb2f952)" d="M 321.367035 100.6825 
L 321.367035 126.597833 
" style="fill:none;stroke:#424242;stroke-linecap:square;"/>
   </g>
   <g id="patch_88">
    <path d="M 96.7 262.653333 
L 96.7 3.5 
" style="fill:none;stroke:#000000;stroke-linecap:square;stroke-linejoin:miter;stroke-width:0.8;"/>
   </g>
   <g id="patch_89">
    <path d="M 96.7 262.653333 
L 355.853333 262.653333 
" style="fill:none;stroke:#000000;stroke-linecap:square;stroke-linejoin:miter;stroke-width:0.8;"/>
   </g>
  </g>
 </g>
 <defs>
  <clipPath id="pe6f31738cb">
   <rect height="259.153333" width="259.153333" x="-273.813333" y="3.5"/>
  </clipPath>
  <clipPath id="p9bdcb2f952">
   <rect height="259.153333" width="259.153333" x="96.7" y="3.5"/>
  </clipPath>
 </defs>
</svg>
