<?xml version="1.0" encoding="utf-8" standalone="no"?>
<!DOCTYPE svg PUBLIC "-//W3C//DTD SVG 1.1//EN"
  "http://www.w3.org/Graphics/SVG/1.1/DTD/svg11.dtd">
<!-- Created with matplotlib (https://matplotlib.org/) -->
<svg height="321.91237pt" version="1.1" viewBox="0 0 362.183333 321.91237" width="362.183333pt" xmlns="http://www.w3.org/2000/svg" xmlns:xlink="http://www.w3.org/1999/xlink">
 <defs>
  <style type="text/css">
*{stroke-linecap:butt;stroke-linejoin:round;}
  </style>
 </defs>
 <g id="figure_1">
  <g id="patch_1">
   <path d="M 0 321.91237 
L 362.183333 321.91237 
L 362.183333 0 
L 0 0 
z
" style="fill:#ffffff;"/>
  </g>
  <g id="axes_1">
   <g id="patch_2">
    <path d="M -265.083333 265.21237 
L -7.1 265.21237 
L -7.1 7.229036 
L -265.083333 7.229036 
z
" style="fill:#ffffff;"/>
   </g>
   <g id="patch_3">
    <path clip-path="url(#p89305e672b)" d="M -253.356818 265.21237 
L -247.493561 265.21237 
L -247.493561 19.513957 
L -253.356818 19.513957 
z
" style="fill:#7570b3;opacity:0.6;stroke:#000000;stroke-linejoin:miter;stroke-width:0.5;"/>
   </g>
   <g id="patch_4">
    <path clip-path="url(#p89305e672b)" d="M -247.493561 265.21237 
L -241.630303 265.21237 
L -241.630303 265.21237 
L -247.493561 265.21237 
z
" style="fill:#7570b3;opacity:0.6;stroke:#000000;stroke-linejoin:miter;stroke-width:0.5;"/>
   </g>
   <g id="patch_5">
    <path clip-path="url(#p89305e672b)" d="M -241.630303 265.21237 
L -235.767045 265.21237 
L -235.767045 265.21237 
L -241.630303 265.21237 
z
" style="fill:#7570b3;opacity:0.6;stroke:#000000;stroke-linejoin:miter;stroke-width:0.5;"/>
   </g>
   <g id="patch_6">
    <path clip-path="url(#p89305e672b)" d="M -235.767045 265.21237 
L -229.903788 265.21237 
L -229.903788 265.21237 
L -235.767045 265.21237 
z
" style="fill:#7570b3;opacity:0.6;stroke:#000000;stroke-linejoin:miter;stroke-width:0.5;"/>
   </g>
   <g id="patch_7">
    <path clip-path="url(#p89305e672b)" d="M -229.903788 265.21237 
L -224.04053 265.21237 
L -224.04053 265.21237 
L -229.903788 265.21237 
z
" style="fill:#7570b3;opacity:0.6;stroke:#000000;stroke-linejoin:miter;stroke-width:0.5;"/>
   </g>
   <g id="patch_8">
    <path clip-path="url(#p89305e672b)" d="M -224.04053 265.21237 
L -218.177273 265.21237 
L -218.177273 265.21237 
L -224.04053 265.21237 
z
" style="fill:#7570b3;opacity:0.6;stroke:#000000;stroke-linejoin:miter;stroke-width:0.5;"/>
   </g>
   <g id="patch_9">
    <path clip-path="url(#p89305e672b)" d="M -218.177273 265.21237 
L -212.314015 265.21237 
L -212.314015 265.21237 
L -218.177273 265.21237 
z
" style="fill:#7570b3;opacity:0.6;stroke:#000000;stroke-linejoin:miter;stroke-width:0.5;"/>
   </g>
   <g id="patch_10">
    <path clip-path="url(#p89305e672b)" d="M -212.314015 265.21237 
L -206.450758 265.21237 
L -206.450758 265.21237 
L -212.314015 265.21237 
z
" style="fill:#7570b3;opacity:0.6;stroke:#000000;stroke-linejoin:miter;stroke-width:0.5;"/>
   </g>
   <g id="patch_11">
    <path clip-path="url(#p89305e672b)" d="M -206.450758 265.21237 
L -200.5875 265.21237 
L -200.5875 265.21237 
L -206.450758 265.21237 
z
" style="fill:#7570b3;opacity:0.6;stroke:#000000;stroke-linejoin:miter;stroke-width:0.5;"/>
   </g>
   <g id="patch_12">
    <path clip-path="url(#p89305e672b)" d="M -200.5875 265.21237 
L -194.724242 265.21237 
L -194.724242 265.21237 
L -200.5875 265.21237 
z
" style="fill:#7570b3;opacity:0.6;stroke:#000000;stroke-linejoin:miter;stroke-width:0.5;"/>
   </g>
   <g id="patch_13">
    <path clip-path="url(#p89305e672b)" d="M -194.724242 265.21237 
L -188.860985 265.21237 
L -188.860985 263.164883 
L -194.724242 263.164883 
z
" style="fill:#7570b3;opacity:0.6;stroke:#000000;stroke-linejoin:miter;stroke-width:0.5;"/>
   </g>
   <g id="patch_14">
    <path clip-path="url(#p89305e672b)" d="M -188.860985 265.21237 
L -182.997727 265.21237 
L -182.997727 265.21237 
L -188.860985 265.21237 
z
" style="fill:#7570b3;opacity:0.6;stroke:#000000;stroke-linejoin:miter;stroke-width:0.5;"/>
   </g>
   <g id="patch_15">
    <path clip-path="url(#p89305e672b)" d="M -182.997727 265.21237 
L -177.13447 265.21237 
L -177.13447 265.21237 
L -182.997727 265.21237 
z
" style="fill:#7570b3;opacity:0.6;stroke:#000000;stroke-linejoin:miter;stroke-width:0.5;"/>
   </g>
   <g id="patch_16">
    <path clip-path="url(#p89305e672b)" d="M -177.13447 265.21237 
L -171.271212 265.21237 
L -171.271212 265.21237 
L -177.13447 265.21237 
z
" style="fill:#7570b3;opacity:0.6;stroke:#000000;stroke-linejoin:miter;stroke-width:0.5;"/>
   </g>
   <g id="patch_17">
    <path clip-path="url(#p89305e672b)" d="M -171.271212 265.21237 
L -165.407955 265.21237 
L -165.407955 263.164883 
L -171.271212 263.164883 
z
" style="fill:#7570b3;opacity:0.6;stroke:#000000;stroke-linejoin:miter;stroke-width:0.5;"/>
   </g>
   <g id="patch_18">
    <path clip-path="url(#p89305e672b)" d="M -165.407955 265.21237 
L -159.544697 265.21237 
L -159.544697 263.164883 
L -165.407955 263.164883 
z
" style="fill:#7570b3;opacity:0.6;stroke:#000000;stroke-linejoin:miter;stroke-width:0.5;"/>
   </g>
   <g id="patch_19">
    <path clip-path="url(#p89305e672b)" d="M -159.544697 265.21237 
L -153.681439 265.21237 
L -153.681439 263.164883 
L -159.544697 263.164883 
z
" style="fill:#7570b3;opacity:0.6;stroke:#000000;stroke-linejoin:miter;stroke-width:0.5;"/>
   </g>
   <g id="patch_20">
    <path clip-path="url(#p89305e672b)" d="M -153.681439 265.21237 
L -147.818182 265.21237 
L -147.818182 257.022423 
L -153.681439 257.022423 
z
" style="fill:#7570b3;opacity:0.6;stroke:#000000;stroke-linejoin:miter;stroke-width:0.5;"/>
   </g>
   <g id="patch_21">
    <path clip-path="url(#p89305e672b)" d="M -147.818182 265.21237 
L -141.954924 265.21237 
L -141.954924 263.164883 
L -147.818182 263.164883 
z
" style="fill:#7570b3;opacity:0.6;stroke:#000000;stroke-linejoin:miter;stroke-width:0.5;"/>
   </g>
   <g id="patch_22">
    <path clip-path="url(#p89305e672b)" d="M -141.954924 265.21237 
L -136.091667 265.21237 
L -136.091667 261.117396 
L -141.954924 261.117396 
z
" style="fill:#7570b3;opacity:0.6;stroke:#000000;stroke-linejoin:miter;stroke-width:0.5;"/>
   </g>
   <g id="patch_23">
    <path clip-path="url(#p89305e672b)" d="M -136.091667 265.21237 
L -130.228409 265.21237 
L -130.228409 248.832476 
L -136.091667 248.832476 
z
" style="fill:#7570b3;opacity:0.6;stroke:#000000;stroke-linejoin:miter;stroke-width:0.5;"/>
   </g>
   <g id="patch_24">
    <path clip-path="url(#p89305e672b)" d="M -130.228409 265.21237 
L -124.365152 265.21237 
L -124.365152 259.069909 
L -130.228409 259.069909 
z
" style="fill:#7570b3;opacity:0.6;stroke:#000000;stroke-linejoin:miter;stroke-width:0.5;"/>
   </g>
   <g id="patch_25">
    <path clip-path="url(#p89305e672b)" d="M -124.365152 265.21237 
L -118.501894 265.21237 
L -118.501894 257.022423 
L -124.365152 257.022423 
z
" style="fill:#7570b3;opacity:0.6;stroke:#000000;stroke-linejoin:miter;stroke-width:0.5;"/>
   </g>
   <g id="patch_26">
    <path clip-path="url(#p89305e672b)" d="M -118.501894 265.21237 
L -112.638636 265.21237 
L -112.638636 226.310121 
L -118.501894 226.310121 
z
" style="fill:#7570b3;opacity:0.6;stroke:#000000;stroke-linejoin:miter;stroke-width:0.5;"/>
   </g>
   <g id="patch_27">
    <path clip-path="url(#p89305e672b)" d="M -112.638636 265.21237 
L -106.775379 265.21237 
L -106.775379 214.0252 
L -112.638636 214.0252 
z
" style="fill:#7570b3;opacity:0.6;stroke:#000000;stroke-linejoin:miter;stroke-width:0.5;"/>
   </g>
   <g id="patch_28">
    <path clip-path="url(#p89305e672b)" d="M -106.775379 265.21237 
L -100.912121 265.21237 
L -100.912121 216.072687 
L -106.775379 216.072687 
z
" style="fill:#7570b3;opacity:0.6;stroke:#000000;stroke-linejoin:miter;stroke-width:0.5;"/>
   </g>
   <g id="patch_29">
    <path clip-path="url(#p89305e672b)" d="M -100.912121 265.21237 
L -95.048864 265.21237 
L -95.048864 193.550333 
L -100.912121 193.550333 
z
" style="fill:#7570b3;opacity:0.6;stroke:#000000;stroke-linejoin:miter;stroke-width:0.5;"/>
   </g>
   <g id="patch_30">
    <path clip-path="url(#p89305e672b)" d="M -95.048864 265.21237 
L -89.185606 265.21237 
L -89.185606 166.933005 
L -95.048864 166.933005 
z
" style="fill:#7570b3;opacity:0.6;stroke:#000000;stroke-linejoin:miter;stroke-width:0.5;"/>
   </g>
   <g id="patch_31">
    <path clip-path="url(#p89305e672b)" d="M -89.185606 265.21237 
L -83.322348 265.21237 
L -83.322348 140.315677 
L -89.185606 140.315677 
z
" style="fill:#7570b3;opacity:0.6;stroke:#000000;stroke-linejoin:miter;stroke-width:0.5;"/>
   </g>
   <g id="patch_32">
    <path clip-path="url(#p89305e672b)" d="M -83.322348 265.21237 
L -77.459091 265.21237 
L -77.459091 93.223481 
L -83.322348 93.223481 
z
" style="fill:#7570b3;opacity:0.6;stroke:#000000;stroke-linejoin:miter;stroke-width:0.5;"/>
   </g>
   <g id="patch_33">
    <path clip-path="url(#p89305e672b)" d="M -77.459091 265.21237 
L -71.595833 265.21237 
L -71.595833 29.751391 
L -77.459091 29.751391 
z
" style="fill:#7570b3;opacity:0.6;stroke:#000000;stroke-linejoin:miter;stroke-width:0.5;"/>
   </g>
   <g id="patch_34">
    <path clip-path="url(#p89305e672b)" d="M -71.595833 265.21237 
L -65.732576 265.21237 
L -65.732576 23.608931 
L -71.595833 23.608931 
z
" style="fill:#7570b3;opacity:0.6;stroke:#000000;stroke-linejoin:miter;stroke-width:0.5;"/>
   </g>
   <g id="patch_35">
    <path clip-path="url(#p89305e672b)" d="M -65.732576 265.21237 
L -59.869318 265.21237 
L -59.869318 31.798878 
L -65.732576 31.798878 
z
" style="fill:#7570b3;opacity:0.6;stroke:#000000;stroke-linejoin:miter;stroke-width:0.5;"/>
   </g>
   <g id="patch_36">
    <path clip-path="url(#p89305e672b)" d="M -59.869318 265.21237 
L -54.006061 265.21237 
L -54.006061 91.175994 
L -59.869318 91.175994 
z
" style="fill:#7570b3;opacity:0.6;stroke:#000000;stroke-linejoin:miter;stroke-width:0.5;"/>
   </g>
   <g id="patch_37">
    <path clip-path="url(#p89305e672b)" d="M -54.006061 265.21237 
L -48.142803 265.21237 
L -48.142803 138.26819 
L -54.006061 138.26819 
z
" style="fill:#7570b3;opacity:0.6;stroke:#000000;stroke-linejoin:miter;stroke-width:0.5;"/>
   </g>
   <g id="patch_38">
    <path clip-path="url(#p89305e672b)" d="M -48.142803 265.21237 
L -42.279545 265.21237 
L -42.279545 189.455359 
L -48.142803 189.455359 
z
" style="fill:#7570b3;opacity:0.6;stroke:#000000;stroke-linejoin:miter;stroke-width:0.5;"/>
   </g>
   <g id="patch_39">
    <path clip-path="url(#p89305e672b)" d="M -42.279545 265.21237 
L -36.416288 265.21237 
L -36.416288 234.500068 
L -42.279545 234.500068 
z
" style="fill:#7570b3;opacity:0.6;stroke:#000000;stroke-linejoin:miter;stroke-width:0.5;"/>
   </g>
   <g id="patch_40">
    <path clip-path="url(#p89305e672b)" d="M -36.416288 265.21237 
L -30.55303 265.21237 
L -30.55303 248.832476 
L -36.416288 248.832476 
z
" style="fill:#7570b3;opacity:0.6;stroke:#000000;stroke-linejoin:miter;stroke-width:0.5;"/>
   </g>
   <g id="patch_41">
    <path clip-path="url(#p89305e672b)" d="M -30.55303 265.21237 
L -24.689773 265.21237 
L -24.689773 257.022423 
L -30.55303 257.022423 
z
" style="fill:#7570b3;opacity:0.6;stroke:#000000;stroke-linejoin:miter;stroke-width:0.5;"/>
   </g>
   <g id="patch_42">
    <path clip-path="url(#p89305e672b)" d="M -24.689773 265.21237 
L -18.826515 265.21237 
L -18.826515 265.21237 
L -24.689773 265.21237 
z
" style="fill:#7570b3;opacity:0.6;stroke:#000000;stroke-linejoin:miter;stroke-width:0.5;"/>
   </g>
   <g id="matplotlib.axis_1">
    <g id="xtick_1">
     <g id="line2d_1">
      <defs>
       <path d="M 0 0 
L 0 3.5 
" id="mcc08ff0510" style="stroke:#000000;stroke-width:1.6;"/>
      </defs>
      <g/>
     </g>
     <g id="text_1">
      <!-- 0.0 -->
      <defs>
       <path d="M 31.78125 66.40625 
Q 24.171875 66.40625 20.328125 58.90625 
Q 16.5 51.421875 16.5 36.375 
Q 16.5 21.390625 20.328125 13.890625 
Q 24.171875 6.390625 31.78125 6.390625 
Q 39.453125 6.390625 43.28125 13.890625 
Q 47.125 21.390625 47.125 36.375 
Q 47.125 51.421875 43.28125 58.90625 
Q 39.453125 66.40625 31.78125 66.40625 
z
M 31.78125 74.21875 
Q 44.046875 74.21875 50.515625 64.515625 
Q 56.984375 54.828125 56.984375 36.375 
Q 56.984375 17.96875 50.515625 8.265625 
Q 44.046875 -1.421875 31.78125 -1.421875 
Q 19.53125 -1.421875 13.0625 8.265625 
Q 6.59375 17.96875 6.59375 36.375 
Q 6.59375 54.828125 13.0625 64.515625 
Q 19.53125 74.21875 31.78125 74.21875 
z
" id="DejaVuSans-48"/>
       <path d="M 10.6875 12.40625 
L 21 12.40625 
L 21 0 
L 10.6875 0 
z
" id="DejaVuSans-46"/>
      </defs>
      <g transform="translate(-269.259943 295.109245)scale(0.2 -0.2)">
       <use xlink:href="#DejaVuSans-48"/>
       <use x="63.623047" xlink:href="#DejaVuSans-46"/>
       <use x="95.410156" xlink:href="#DejaVuSans-48"/>
      </g>
     </g>
    </g>
    <g id="xtick_2">
     <g id="line2d_2">
      <g/>
     </g>
     <g id="text_2">
      <!-- 0.2 -->
      <defs>
       <path d="M 19.1875 8.296875 
L 53.609375 8.296875 
L 53.609375 0 
L 7.328125 0 
L 7.328125 8.296875 
Q 12.9375 14.109375 22.625 23.890625 
Q 32.328125 33.6875 34.8125 36.53125 
Q 39.546875 41.84375 41.421875 45.53125 
Q 43.3125 49.21875 43.3125 52.78125 
Q 43.3125 58.59375 39.234375 62.25 
Q 35.15625 65.921875 28.609375 65.921875 
Q 23.96875 65.921875 18.8125 64.3125 
Q 13.671875 62.703125 7.8125 59.421875 
L 7.8125 69.390625 
Q 13.765625 71.78125 18.9375 73 
Q 24.125 74.21875 28.421875 74.21875 
Q 39.75 74.21875 46.484375 68.546875 
Q 53.21875 62.890625 53.21875 53.421875 
Q 53.21875 48.921875 51.53125 44.890625 
Q 49.859375 40.875 45.40625 35.40625 
Q 44.1875 33.984375 37.640625 27.21875 
Q 31.109375 20.453125 19.1875 8.296875 
z
" id="DejaVuSans-50"/>
      </defs>
      <g transform="translate(-202.251285 295.109245)scale(0.2 -0.2)">
       <use xlink:href="#DejaVuSans-48"/>
       <use x="63.623047" xlink:href="#DejaVuSans-46"/>
       <use x="95.410156" xlink:href="#DejaVuSans-50"/>
      </g>
     </g>
    </g>
    <g id="xtick_3">
     <g id="line2d_3">
      <g/>
     </g>
     <g id="text_3">
      <!-- 0.4 -->
      <defs>
       <path d="M 37.796875 64.3125 
L 12.890625 25.390625 
L 37.796875 25.390625 
z
M 35.203125 72.90625 
L 47.609375 72.90625 
L 47.609375 25.390625 
L 58.015625 25.390625 
L 58.015625 17.1875 
L 47.609375 17.1875 
L 47.609375 0 
L 37.796875 0 
L 37.796875 17.1875 
L 4.890625 17.1875 
L 4.890625 26.703125 
z
" id="DejaVuSans-52"/>
      </defs>
      <g transform="translate(-135.242627 295.109245)scale(0.2 -0.2)">
       <use xlink:href="#DejaVuSans-48"/>
       <use x="63.623047" xlink:href="#DejaVuSans-46"/>
       <use x="95.410156" xlink:href="#DejaVuSans-52"/>
      </g>
     </g>
    </g>
    <g id="xtick_4">
     <g id="line2d_4">
      <g/>
     </g>
     <g id="text_4">
      <!-- 0.6 -->
      <defs>
       <path d="M 33.015625 40.375 
Q 26.375 40.375 22.484375 35.828125 
Q 18.609375 31.296875 18.609375 23.390625 
Q 18.609375 15.53125 22.484375 10.953125 
Q 26.375 6.390625 33.015625 6.390625 
Q 39.65625 6.390625 43.53125 10.953125 
Q 47.40625 15.53125 47.40625 23.390625 
Q 47.40625 31.296875 43.53125 35.828125 
Q 39.65625 40.375 33.015625 40.375 
z
M 52.59375 71.296875 
L 52.59375 62.3125 
Q 48.875 64.0625 45.09375 64.984375 
Q 41.3125 65.921875 37.59375 65.921875 
Q 27.828125 65.921875 22.671875 59.328125 
Q 17.53125 52.734375 16.796875 39.40625 
Q 19.671875 43.65625 24.015625 45.921875 
Q 28.375 48.1875 33.59375 48.1875 
Q 44.578125 48.1875 50.953125 41.515625 
Q 57.328125 34.859375 57.328125 23.390625 
Q 57.328125 12.15625 50.6875 5.359375 
Q 44.046875 -1.421875 33.015625 -1.421875 
Q 20.359375 -1.421875 13.671875 8.265625 
Q 6.984375 17.96875 6.984375 36.375 
Q 6.984375 53.65625 15.1875 63.9375 
Q 23.390625 74.21875 37.203125 74.21875 
Q 40.921875 74.21875 44.703125 73.484375 
Q 48.484375 72.75 52.59375 71.296875 
z
" id="DejaVuSans-54"/>
      </defs>
      <g transform="translate(-68.233969 295.109245)scale(0.2 -0.2)">
       <use xlink:href="#DejaVuSans-48"/>
       <use x="63.623047" xlink:href="#DejaVuSans-46"/>
       <use x="95.410156" xlink:href="#DejaVuSans-54"/>
      </g>
     </g>
    </g>
    <g id="text_5">
     <!--   -->
     <defs>
      <path id="DejaVuSans-32"/>
     </defs>
     <g transform="translate(-139.269792 318.465495)scale(0.2 -0.2)">
      <use xlink:href="#DejaVuSans-32"/>
     </g>
    </g>
   </g>
   <g id="matplotlib.axis_2">
    <g id="ytick_1">
     <g id="line2d_5">
      <defs>
       <path d="M 0 0 
L -3.5 0 
" id="mbb41fb33a3" style="stroke:#000000;stroke-width:1.6;"/>
      </defs>
      <g/>
     </g>
     <g id="text_6">
      <!-- 0.000 -->
      <g transform="translate(-337.039583 272.810807)scale(0.2 -0.2)">
       <use xlink:href="#DejaVuSans-48"/>
       <use x="63.623047" xlink:href="#DejaVuSans-46"/>
       <use x="95.410156" xlink:href="#DejaVuSans-48"/>
       <use x="159.033203" xlink:href="#DejaVuSans-48"/>
       <use x="222.65625" xlink:href="#DejaVuSans-48"/>
      </g>
     </g>
    </g>
    <g id="ytick_2">
     <g id="line2d_6">
      <g/>
     </g>
     <g id="text_7">
      <!-- 0.025 -->
      <defs>
       <path d="M 10.796875 72.90625 
L 49.515625 72.90625 
L 49.515625 64.59375 
L 19.828125 64.59375 
L 19.828125 46.734375 
Q 21.96875 47.46875 24.109375 47.828125 
Q 26.265625 48.1875 28.421875 48.1875 
Q 40.625 48.1875 47.75 41.5 
Q 54.890625 34.8125 54.890625 23.390625 
Q 54.890625 11.625 47.5625 5.09375 
Q 40.234375 -1.421875 26.90625 -1.421875 
Q 22.3125 -1.421875 17.546875 -0.640625 
Q 12.796875 0.140625 7.71875 1.703125 
L 7.71875 11.625 
Q 12.109375 9.234375 16.796875 8.0625 
Q 21.484375 6.890625 26.703125 6.890625 
Q 35.15625 6.890625 40.078125 11.328125 
Q 45.015625 15.765625 45.015625 23.390625 
Q 45.015625 31 40.078125 35.4375 
Q 35.15625 39.890625 26.703125 39.890625 
Q 22.75 39.890625 18.8125 39.015625 
Q 14.890625 38.140625 10.796875 36.28125 
z
" id="DejaVuSans-53"/>
      </defs>
      <g transform="translate(-337.039583 221.623638)scale(0.2 -0.2)">
       <use xlink:href="#DejaVuSans-48"/>
       <use x="63.623047" xlink:href="#DejaVuSans-46"/>
       <use x="95.410156" xlink:href="#DejaVuSans-48"/>
       <use x="159.033203" xlink:href="#DejaVuSans-50"/>
       <use x="222.65625" xlink:href="#DejaVuSans-53"/>
      </g>
     </g>
    </g>
    <g id="ytick_3">
     <g id="line2d_7">
      <g/>
     </g>
     <g id="text_8">
      <!-- 0.050 -->
      <g transform="translate(-337.039583 170.436469)scale(0.2 -0.2)">
       <use xlink:href="#DejaVuSans-48"/>
       <use x="63.623047" xlink:href="#DejaVuSans-46"/>
       <use x="95.410156" xlink:href="#DejaVuSans-48"/>
       <use x="159.033203" xlink:href="#DejaVuSans-53"/>
       <use x="222.65625" xlink:href="#DejaVuSans-48"/>
      </g>
     </g>
    </g>
    <g id="ytick_4">
     <g id="line2d_8">
      <g/>
     </g>
     <g id="text_9">
      <!-- 0.075 -->
      <defs>
       <path d="M 8.203125 72.90625 
L 55.078125 72.90625 
L 55.078125 68.703125 
L 28.609375 0 
L 18.3125 0 
L 43.21875 64.59375 
L 8.203125 64.59375 
z
" id="DejaVuSans-55"/>
      </defs>
      <g transform="translate(-337.039583 119.249299)scale(0.2 -0.2)">
       <use xlink:href="#DejaVuSans-48"/>
       <use x="63.623047" xlink:href="#DejaVuSans-46"/>
       <use x="95.410156" xlink:href="#DejaVuSans-48"/>
       <use x="159.033203" xlink:href="#DejaVuSans-55"/>
       <use x="222.65625" xlink:href="#DejaVuSans-53"/>
      </g>
     </g>
    </g>
    <g id="ytick_5">
     <g id="line2d_9">
      <g/>
     </g>
     <g id="text_10">
      <!-- 0.100 -->
      <defs>
       <path d="M 12.40625 8.296875 
L 28.515625 8.296875 
L 28.515625 63.921875 
L 10.984375 60.40625 
L 10.984375 69.390625 
L 28.421875 72.90625 
L 38.28125 72.90625 
L 38.28125 8.296875 
L 54.390625 8.296875 
L 54.390625 0 
L 12.40625 0 
z
" id="DejaVuSans-49"/>
      </defs>
      <g transform="translate(-337.039583 68.06213)scale(0.2 -0.2)">
       <use xlink:href="#DejaVuSans-48"/>
       <use x="63.623047" xlink:href="#DejaVuSans-46"/>
       <use x="95.410156" xlink:href="#DejaVuSans-49"/>
       <use x="159.033203" xlink:href="#DejaVuSans-48"/>
       <use x="222.65625" xlink:href="#DejaVuSans-48"/>
      </g>
     </g>
    </g>
    <g id="ytick_6">
     <g id="line2d_10">
      <g/>
     </g>
     <g id="text_11">
      <!-- 0.125 -->
      <g transform="translate(-337.039583 16.874961)scale(0.2 -0.2)">
       <use xlink:href="#DejaVuSans-48"/>
       <use x="63.623047" xlink:href="#DejaVuSans-46"/>
       <use x="95.410156" xlink:href="#DejaVuSans-49"/>
       <use x="159.033203" xlink:href="#DejaVuSans-50"/>
       <use x="222.65625" xlink:href="#DejaVuSans-53"/>
      </g>
     </g>
    </g>
    <g id="text_12">
     <!--   -->
     <g transform="translate(-344.699833 139.017453)rotate(-90)scale(0.176 -0.176)">
      <use xlink:href="#DejaVuSans-32"/>
     </g>
    </g>
   </g>
   <g id="patch_43">
    <path style="fill:none;stroke:#000000;stroke-linecap:square;stroke-linejoin:miter;stroke-width:0.8;"/>
   </g>
   <g id="patch_44">
    <path style="fill:none;stroke:#000000;stroke-linecap:square;stroke-linejoin:miter;stroke-width:0.8;"/>
   </g>
  </g>
  <g id="axes_2">
   <g id="patch_45">
    <path d="M 100.7 265.21237 
L 358.683333 265.21237 
L 358.683333 7.229036 
L 100.7 7.229036 
z
" style="fill:#ffffff;"/>
   </g>
   <g id="PolyCollection_1">
    <defs>
     <path d="M 117.580732 -276.994476 
L 117.580732 -287.876357 
L 119.915071 -287.833931 
L 122.249409 -287.677743 
L 124.583747 -287.417652 
L 126.918085 -287.069633 
L 129.252423 -286.654161 
L 131.586762 -286.194221 
L 133.9211 -285.713233 
L 136.255438 -285.233128 
L 138.589776 -284.77281 
L 140.924114 -284.347111 
L 143.258453 -283.966316 
L 145.592791 -283.636197 
L 147.927129 -283.358476 
L 150.261467 -283.131563 
L 152.595805 -282.951446 
L 154.930144 -282.812579 
L 157.264482 -282.708688 
L 159.59882 -282.633416 
L 161.933158 -282.5808 
L 164.267496 -282.545561 
L 166.601835 -282.523253 
L 168.936173 -282.510295 
L 171.270511 -282.503925 
L 173.604849 -282.502111 
L 175.939187 -282.503437 
L 178.273526 -282.506995 
L 180.607864 -282.512274 
L 182.942202 -282.519065 
L 185.27654 -282.527381 
L 187.610878 -282.537381 
L 189.945217 -282.549308 
L 192.279555 -282.563443 
L 194.613893 -282.580064 
L 196.948231 -282.599423 
L 199.282569 -282.621732 
L 201.616908 -282.647167 
L 203.951246 -282.675889 
L 206.285584 -282.708067 
L 208.619922 -282.743924 
L 210.954261 -282.78378 
L 213.288599 -282.828108 
L 215.622937 -282.877589 
L 217.957275 -282.933169 
L 220.291613 -282.996115 
L 222.625952 -283.068069 
L 224.96029 -283.15109 
L 227.294628 -283.247692 
L 229.628966 -283.360855 
L 231.963304 -283.494019 
L 234.297643 -283.651049 
L 236.631981 -283.836159 
L 238.966319 -284.053819 
L 241.300657 -284.308629 
L 243.634995 -284.605185 
L 245.969334 -284.947951 
L 248.303672 -285.341153 
L 250.63801 -285.788708 
L 252.972348 -286.294204 
L 255.306686 -286.860915 
L 257.641025 -287.491846 
L 259.975363 -288.189782 
L 262.309701 -288.957294 
L 264.644039 -289.796675 
L 266.978377 -290.709761 
L 269.312716 -291.697612 
L 271.647054 -292.760057 
L 273.981392 -293.8951 
L 276.31573 -295.098242 
L 278.650068 -296.361775 
L 280.984407 -297.674142 
L 283.318745 -299.019436 
L 285.653083 -300.377153 
L 287.987421 -301.722265 
L 290.321759 -303.025679 
L 292.656098 -304.255098 
L 294.990436 -305.376267 
L 297.324774 -306.354542 
L 299.659112 -307.156683 
L 301.99345 -307.752727 
L 304.327789 -308.117807 
L 306.662127 -308.23375 
L 308.996465 -308.090324 
L 311.330803 -307.686022 
L 313.665141 -307.028316 
L 315.99948 -306.133366 
L 318.333818 -305.025207 
L 320.668156 -303.734475 
L 323.002494 -302.296802 
L 325.336832 -300.750973 
L 327.671171 -299.137015 
L 330.005509 -297.494329 
L 332.339847 -295.859996 
L 334.674185 -294.267358 
L 337.008523 -292.744933 
L 339.342862 -291.315711 
L 341.6772 -289.996834 
L 344.011538 -288.799627 
L 346.345876 -287.729949 
L 348.680215 -286.788772 
L 348.680215 -278.082062 
L 348.680215 -278.082062 
L 346.345876 -277.140885 
L 344.011538 -276.071206 
L 341.6772 -274.874 
L 339.342862 -273.555122 
L 337.008523 -272.125901 
L 334.674185 -270.603475 
L 332.339847 -269.010837 
L 330.005509 -267.376505 
L 327.671171 -265.733818 
L 325.336832 -264.119861 
L 323.002494 -262.574032 
L 320.668156 -261.136358 
L 318.333818 -259.845627 
L 315.99948 -258.737467 
L 313.665141 -257.842518 
L 311.330803 -257.184811 
L 308.996465 -256.780509 
L 306.662127 -256.637083 
L 304.327789 -256.753027 
L 301.99345 -257.118107 
L 299.659112 -257.71415 
L 297.324774 -258.516291 
L 294.990436 -259.494567 
L 292.656098 -260.615736 
L 290.321759 -261.845155 
L 287.987421 -263.148569 
L 285.653083 -264.49368 
L 283.318745 -265.851397 
L 280.984407 -267.196691 
L 278.650068 -268.509058 
L 276.31573 -269.772592 
L 273.981392 -270.975733 
L 271.647054 -272.110776 
L 269.312716 -273.173221 
L 266.978377 -274.161073 
L 264.644039 -275.074158 
L 262.309701 -275.913539 
L 259.975363 -276.681052 
L 257.641025 -277.378987 
L 255.306686 -278.009918 
L 252.972348 -278.576629 
L 250.63801 -279.082125 
L 248.303672 -279.529681 
L 245.969334 -279.922882 
L 243.634995 -280.265648 
L 241.300657 -280.562204 
L 238.966319 -280.817014 
L 236.631981 -281.034675 
L 234.297643 -281.219785 
L 231.963304 -281.376814 
L 229.628966 -281.509979 
L 227.294628 -281.623142 
L 224.96029 -281.719743 
L 222.625952 -281.802765 
L 220.291613 -281.874718 
L 217.957275 -281.937664 
L 215.622937 -281.993244 
L 213.288599 -282.042725 
L 210.954261 -282.087053 
L 208.619922 -282.126909 
L 206.285584 -282.162766 
L 203.951246 -282.194945 
L 201.616908 -282.223666 
L 199.282569 -282.249102 
L 196.948231 -282.27141 
L 194.613893 -282.290769 
L 192.279555 -282.307391 
L 189.945217 -282.321526 
L 187.610878 -282.333453 
L 185.27654 -282.343452 
L 182.942202 -282.351768 
L 180.607864 -282.35856 
L 178.273526 -282.363838 
L 175.939187 -282.367396 
L 173.604849 -282.368722 
L 171.270511 -282.366908 
L 168.936173 -282.360538 
L 166.601835 -282.34758 
L 164.267496 -282.325272 
L 161.933158 -282.290033 
L 159.59882 -282.237417 
L 157.264482 -282.162146 
L 154.930144 -282.058254 
L 152.595805 -281.919387 
L 150.261467 -281.73927 
L 147.927129 -281.512357 
L 145.592791 -281.234636 
L 143.258453 -280.904517 
L 140.924114 -280.523722 
L 138.589776 -280.098023 
L 136.255438 -279.637705 
L 133.9211 -279.157601 
L 131.586762 -278.676612 
L 129.252423 -278.216672 
L 126.918085 -277.8012 
L 124.583747 -277.453182 
L 122.249409 -277.19309 
L 119.915071 -277.036902 
L 117.580732 -276.994476 
z
" id="m8decfd3cc7" style="stroke:#575757;"/>
    </defs>
    <g clip-path="url(#p6fb2638801)">
     <use style="fill:#7c78ab;stroke:#575757;" x="0" xlink:href="#m8decfd3cc7" y="321.91237"/>
    </g>
   </g>
   <g id="PolyCollection_2">
    <defs>
     <path d="M 117.18341 -212.547954 
L 117.18341 -223.331213 
L 119.384045 -223.344794 
L 121.58468 -223.34146 
L 123.785315 -223.321953 
L 125.98595 -223.287287 
L 128.186585 -223.238751 
L 130.38722 -223.177891 
L 132.587855 -223.106497 
L 134.78849 -223.026589 
L 136.989125 -222.94039 
L 139.189759 -222.850305 
L 141.390394 -222.75889 
L 143.591029 -222.668828 
L 145.791664 -222.582893 
L 147.992299 -222.503921 
L 150.192934 -222.434779 
L 152.393569 -222.378328 
L 154.594204 -222.337393 
L 156.794839 -222.314735 
L 158.995474 -222.313013 
L 161.196108 -222.334763 
L 163.396743 -222.382362 
L 165.597378 -222.458011 
L 167.798013 -222.563703 
L 169.998648 -222.701208 
L 172.199283 -222.872048 
L 174.399918 -223.077483 
L 176.600553 -223.318495 
L 178.801188 -223.595777 
L 181.001823 -223.909721 
L 183.202457 -224.260412 
L 185.403092 -224.647622 
L 187.603727 -225.070813 
L 189.804362 -225.52913 
L 192.004997 -226.021412 
L 194.205632 -226.546196 
L 196.406267 -227.101724 
L 198.606902 -227.68596 
L 200.807537 -228.296602 
L 203.008172 -228.931103 
L 205.208806 -229.586689 
L 207.409441 -230.260383 
L 209.610076 -230.949031 
L 211.810711 -231.649329 
L 214.011346 -232.357855 
L 216.211981 -233.071095 
L 218.412616 -233.785478 
L 220.613251 -234.49741 
L 222.813886 -235.203301 
L 225.01452 -235.899603 
L 227.215155 -236.582837 
L 229.41579 -237.249626 
L 231.616425 -237.896723 
L 233.81706 -238.521036 
L 236.017695 -239.119652 
L 238.21833 -239.689861 
L 240.418965 -240.22917 
L 242.6196 -240.735319 
L 244.820235 -241.206291 
L 247.020869 -241.640323 
L 249.221504 -242.035903 
L 251.422139 -242.391777 
L 253.622774 -242.706944 
L 255.823409 -242.980645 
L 258.024044 -243.212361 
L 260.224679 -243.401797 
L 262.425314 -243.54887 
L 264.625949 -243.653693 
L 266.826584 -243.716556 
L 269.027218 -243.737917 
L 271.227853 -243.718373 
L 273.428488 -243.658652 
L 275.629123 -243.559593 
L 277.829758 -243.422129 
L 280.030393 -243.247275 
L 282.231028 -243.036113 
L 284.431663 -242.789785 
L 286.632298 -242.509481 
L 288.832933 -242.196433 
L 291.033567 -241.85191 
L 293.234202 -241.477217 
L 295.434837 -241.073691 
L 297.635472 -240.642706 
L 299.836107 -240.185668 
L 302.036742 -239.704027 
L 304.237377 -239.199269 
L 306.438012 -238.672932 
L 308.638647 -238.126598 
L 310.839282 -237.561905 
L 313.039916 -236.980544 
L 315.240551 -236.384261 
L 317.441186 -235.774857 
L 319.641821 -235.154187 
L 321.842456 -234.524156 
L 324.043091 -233.886712 
L 326.243726 -233.243839 
L 328.444361 -232.597551 
L 330.644996 -231.949877 
L 332.845631 -231.30285 
L 335.046265 -230.658496 
L 335.046265 -205.220671 
L 335.046265 -205.220671 
L 332.845631 -204.576316 
L 330.644996 -203.92929 
L 328.444361 -203.281615 
L 326.243726 -202.635327 
L 324.043091 -201.992455 
L 321.842456 -201.355011 
L 319.641821 -200.72498 
L 317.441186 -200.10431 
L 315.240551 -199.494906 
L 313.039916 -198.898623 
L 310.839282 -198.317261 
L 308.638647 -197.752568 
L 306.438012 -197.206235 
L 304.237377 -196.679897 
L 302.036742 -196.17514 
L 299.836107 -195.693498 
L 297.635472 -195.236461 
L 295.434837 -194.805476 
L 293.234202 -194.40195 
L 291.033567 -194.027257 
L 288.832933 -193.682734 
L 286.632298 -193.369686 
L 284.431663 -193.089381 
L 282.231028 -192.843054 
L 280.030393 -192.631892 
L 277.829758 -192.457038 
L 275.629123 -192.319573 
L 273.428488 -192.220514 
L 271.227853 -192.160794 
L 269.027218 -192.14125 
L 266.826584 -192.16261 
L 264.625949 -192.225474 
L 262.425314 -192.330296 
L 260.224679 -192.477369 
L 258.024044 -192.666806 
L 255.823409 -192.898522 
L 253.622774 -193.172223 
L 251.422139 -193.487389 
L 249.221504 -193.843264 
L 247.020869 -194.238844 
L 244.820235 -194.672875 
L 242.6196 -195.143848 
L 240.418965 -195.649996 
L 238.21833 -196.189305 
L 236.017695 -196.759514 
L 233.81706 -197.358131 
L 231.616425 -197.982444 
L 229.41579 -198.62954 
L 227.215155 -199.29633 
L 225.01452 -199.979564 
L 222.813886 -200.675865 
L 220.613251 -201.381757 
L 218.412616 -202.093688 
L 216.211981 -202.808072 
L 214.011346 -203.521312 
L 211.810711 -204.229838 
L 209.610076 -204.930136 
L 207.409441 -205.618784 
L 205.208806 -206.292477 
L 203.008172 -206.948063 
L 200.807537 -207.582564 
L 198.606902 -208.193207 
L 196.406267 -208.777443 
L 194.205632 -209.332971 
L 192.004997 -209.857754 
L 189.804362 -210.350037 
L 187.603727 -210.808354 
L 185.403092 -211.231544 
L 183.202457 -211.618755 
L 181.001823 -211.969446 
L 178.801188 -212.28339 
L 176.600553 -212.560672 
L 174.399918 -212.801684 
L 172.199283 -213.007119 
L 169.998648 -213.177959 
L 167.798013 -213.315464 
L 165.597378 -213.421156 
L 163.396743 -213.496805 
L 161.196108 -213.544404 
L 158.995474 -213.566153 
L 156.794839 -213.564432 
L 154.594204 -213.541773 
L 152.393569 -213.500839 
L 150.192934 -213.444388 
L 147.992299 -213.375245 
L 145.791664 -213.296274 
L 143.591029 -213.210339 
L 141.390394 -213.120277 
L 139.189759 -213.028862 
L 136.989125 -212.938776 
L 134.78849 -212.852577 
L 132.587855 -212.772669 
L 130.38722 -212.701276 
L 128.186585 -212.640416 
L 125.98595 -212.59188 
L 123.785315 -212.557214 
L 121.58468 -212.537706 
L 119.384045 -212.534373 
L 117.18341 -212.547954 
z
" id="m9c337a0b00" style="stroke:#575757;"/>
    </defs>
    <g clip-path="url(#p6fb2638801)">
     <use style="fill:#7c78ab;stroke:#575757;" x="0" xlink:href="#m9c337a0b00" y="321.91237"/>
    </g>
   </g>
   <g id="patch_46">
    <path clip-path="url(#p6fb2638801)" d="M 117.898889 39.476953 
L 117.898889 39.476953 
L 117.898889 39.476953 
L 117.898889 39.476953 
z
" style="fill:#7c78ab;stroke:#575757;stroke-linejoin:miter;stroke-width:0.5;"/>
   </g>
   <g id="matplotlib.axis_3">
    <g id="xtick_5">
     <g id="line2d_11">
      <g>
       <use style="stroke:#000000;stroke-width:1.6;" x="117.898889" xlink:href="#mcc08ff0510" y="265.21237"/>
      </g>
     </g>
     <g id="text_13">
      <!-- 0.0 -->
      <g transform="translate(101.995764 295.109245)scale(0.2 -0.2)">
       <use xlink:href="#DejaVuSans-48"/>
       <use x="63.623047" xlink:href="#DejaVuSans-46"/>
       <use x="95.410156" xlink:href="#DejaVuSans-48"/>
      </g>
     </g>
    </g>
    <g id="xtick_6">
     <g id="line2d_12">
      <g>
       <use style="stroke:#000000;stroke-width:1.6;" x="186.694444" xlink:href="#mcc08ff0510" y="265.21237"/>
      </g>
     </g>
     <g id="text_14">
      <!-- 0.2 -->
      <g transform="translate(170.791319 295.109245)scale(0.2 -0.2)">
       <use xlink:href="#DejaVuSans-48"/>
       <use x="63.623047" xlink:href="#DejaVuSans-46"/>
       <use x="95.410156" xlink:href="#DejaVuSans-50"/>
      </g>
     </g>
    </g>
    <g id="xtick_7">
     <g id="line2d_13">
      <g>
       <use style="stroke:#000000;stroke-width:1.6;" x="255.49" xlink:href="#mcc08ff0510" y="265.21237"/>
      </g>
     </g>
     <g id="text_15">
      <!-- 0.4 -->
      <g transform="translate(239.586875 295.109245)scale(0.2 -0.2)">
       <use xlink:href="#DejaVuSans-48"/>
       <use x="63.623047" xlink:href="#DejaVuSans-46"/>
       <use x="95.410156" xlink:href="#DejaVuSans-52"/>
      </g>
     </g>
    </g>
    <g id="xtick_8">
     <g id="line2d_14">
      <g>
       <use style="stroke:#000000;stroke-width:1.6;" x="324.285556" xlink:href="#mcc08ff0510" y="265.21237"/>
      </g>
     </g>
     <g id="text_16">
      <!-- 0.6 -->
      <g transform="translate(308.382431 295.109245)scale(0.2 -0.2)">
       <use xlink:href="#DejaVuSans-48"/>
       <use x="63.623047" xlink:href="#DejaVuSans-46"/>
       <use x="95.410156" xlink:href="#DejaVuSans-54"/>
      </g>
     </g>
    </g>
    <g id="text_17">
     <!-- Max Attention -->
     <defs>
      <path d="M 9.8125 72.90625 
L 24.515625 72.90625 
L 43.109375 23.296875 
L 61.8125 72.90625 
L 76.515625 72.90625 
L 76.515625 0 
L 66.890625 0 
L 66.890625 64.015625 
L 48.09375 14.015625 
L 38.1875 14.015625 
L 19.390625 64.015625 
L 19.390625 0 
L 9.8125 0 
z
" id="DejaVuSans-77"/>
      <path d="M 34.28125 27.484375 
Q 23.390625 27.484375 19.1875 25 
Q 14.984375 22.515625 14.984375 16.5 
Q 14.984375 11.71875 18.140625 8.90625 
Q 21.296875 6.109375 26.703125 6.109375 
Q 34.1875 6.109375 38.703125 11.40625 
Q 43.21875 16.703125 43.21875 25.484375 
L 43.21875 27.484375 
z
M 52.203125 31.203125 
L 52.203125 0 
L 43.21875 0 
L 43.21875 8.296875 
Q 40.140625 3.328125 35.546875 0.953125 
Q 30.953125 -1.421875 24.3125 -1.421875 
Q 15.921875 -1.421875 10.953125 3.296875 
Q 6 8.015625 6 15.921875 
Q 6 25.140625 12.171875 29.828125 
Q 18.359375 34.515625 30.609375 34.515625 
L 43.21875 34.515625 
L 43.21875 35.40625 
Q 43.21875 41.609375 39.140625 45 
Q 35.0625 48.390625 27.6875 48.390625 
Q 23 48.390625 18.546875 47.265625 
Q 14.109375 46.140625 10.015625 43.890625 
L 10.015625 52.203125 
Q 14.9375 54.109375 19.578125 55.046875 
Q 24.21875 56 28.609375 56 
Q 40.484375 56 46.34375 49.84375 
Q 52.203125 43.703125 52.203125 31.203125 
z
" id="DejaVuSans-97"/>
      <path d="M 54.890625 54.6875 
L 35.109375 28.078125 
L 55.90625 0 
L 45.3125 0 
L 29.390625 21.484375 
L 13.484375 0 
L 2.875 0 
L 24.125 28.609375 
L 4.6875 54.6875 
L 15.28125 54.6875 
L 29.78125 35.203125 
L 44.28125 54.6875 
z
" id="DejaVuSans-120"/>
      <path d="M 34.1875 63.1875 
L 20.796875 26.90625 
L 47.609375 26.90625 
z
M 28.609375 72.90625 
L 39.796875 72.90625 
L 67.578125 0 
L 57.328125 0 
L 50.6875 18.703125 
L 17.828125 18.703125 
L 11.1875 0 
L 0.78125 0 
z
" id="DejaVuSans-65"/>
      <path d="M 18.3125 70.21875 
L 18.3125 54.6875 
L 36.8125 54.6875 
L 36.8125 47.703125 
L 18.3125 47.703125 
L 18.3125 18.015625 
Q 18.3125 11.328125 20.140625 9.421875 
Q 21.96875 7.515625 27.59375 7.515625 
L 36.8125 7.515625 
L 36.8125 0 
L 27.59375 0 
Q 17.1875 0 13.234375 3.875 
Q 9.28125 7.765625 9.28125 18.015625 
L 9.28125 47.703125 
L 2.6875 47.703125 
L 2.6875 54.6875 
L 9.28125 54.6875 
L 9.28125 70.21875 
z
" id="DejaVuSans-116"/>
      <path d="M 56.203125 29.59375 
L 56.203125 25.203125 
L 14.890625 25.203125 
Q 15.484375 15.921875 20.484375 11.0625 
Q 25.484375 6.203125 34.421875 6.203125 
Q 39.59375 6.203125 44.453125 7.46875 
Q 49.3125 8.734375 54.109375 11.28125 
L 54.109375 2.78125 
Q 49.265625 0.734375 44.1875 -0.34375 
Q 39.109375 -1.421875 33.890625 -1.421875 
Q 20.796875 -1.421875 13.15625 6.1875 
Q 5.515625 13.8125 5.515625 26.8125 
Q 5.515625 40.234375 12.765625 48.109375 
Q 20.015625 56 32.328125 56 
Q 43.359375 56 49.78125 48.890625 
Q 56.203125 41.796875 56.203125 29.59375 
z
M 47.21875 32.234375 
Q 47.125 39.59375 43.09375 43.984375 
Q 39.0625 48.390625 32.421875 48.390625 
Q 24.90625 48.390625 20.390625 44.140625 
Q 15.875 39.890625 15.1875 32.171875 
z
" id="DejaVuSans-101"/>
      <path d="M 54.890625 33.015625 
L 54.890625 0 
L 45.90625 0 
L 45.90625 32.71875 
Q 45.90625 40.484375 42.875 44.328125 
Q 39.84375 48.1875 33.796875 48.1875 
Q 26.515625 48.1875 22.3125 43.546875 
Q 18.109375 38.921875 18.109375 30.90625 
L 18.109375 0 
L 9.078125 0 
L 9.078125 54.6875 
L 18.109375 54.6875 
L 18.109375 46.1875 
Q 21.34375 51.125 25.703125 53.5625 
Q 30.078125 56 35.796875 56 
Q 45.21875 56 50.046875 50.171875 
Q 54.890625 44.34375 54.890625 33.015625 
z
" id="DejaVuSans-110"/>
      <path d="M 9.421875 54.6875 
L 18.40625 54.6875 
L 18.40625 0 
L 9.421875 0 
z
M 9.421875 75.984375 
L 18.40625 75.984375 
L 18.40625 64.59375 
L 9.421875 64.59375 
z
" id="DejaVuSans-105"/>
      <path d="M 30.609375 48.390625 
Q 23.390625 48.390625 19.1875 42.75 
Q 14.984375 37.109375 14.984375 27.296875 
Q 14.984375 17.484375 19.15625 11.84375 
Q 23.34375 6.203125 30.609375 6.203125 
Q 37.796875 6.203125 41.984375 11.859375 
Q 46.1875 17.53125 46.1875 27.296875 
Q 46.1875 37.015625 41.984375 42.703125 
Q 37.796875 48.390625 30.609375 48.390625 
z
M 30.609375 56 
Q 42.328125 56 49.015625 48.375 
Q 55.71875 40.765625 55.71875 27.296875 
Q 55.71875 13.875 49.015625 6.21875 
Q 42.328125 -1.421875 30.609375 -1.421875 
Q 18.84375 -1.421875 12.171875 6.21875 
Q 5.515625 13.875 5.515625 27.296875 
Q 5.515625 40.765625 12.171875 48.375 
Q 18.84375 56 30.609375 56 
z
" id="DejaVuSans-111"/>
     </defs>
     <g transform="translate(159.513542 318.465495)scale(0.2 -0.2)">
      <use xlink:href="#DejaVuSans-77"/>
      <use x="86.279297" xlink:href="#DejaVuSans-97"/>
      <use x="147.558594" xlink:href="#DejaVuSans-120"/>
      <use x="206.738281" xlink:href="#DejaVuSans-32"/>
      <use x="238.525391" xlink:href="#DejaVuSans-65"/>
      <use x="306.917969" xlink:href="#DejaVuSans-116"/>
      <use x="346.126953" xlink:href="#DejaVuSans-116"/>
      <use x="385.335938" xlink:href="#DejaVuSans-101"/>
      <use x="446.859375" xlink:href="#DejaVuSans-110"/>
      <use x="510.238281" xlink:href="#DejaVuSans-116"/>
      <use x="549.447266" xlink:href="#DejaVuSans-105"/>
      <use x="577.230469" xlink:href="#DejaVuSans-111"/>
      <use x="638.412109" xlink:href="#DejaVuSans-110"/>
     </g>
    </g>
   </g>
   <g id="matplotlib.axis_4">
    <g id="ytick_7">
     <g id="line2d_15">
      <g>
       <use style="stroke:#000000;stroke-width:1.6;" x="100.7" xlink:href="#mbb41fb33a3" y="39.476953"/>
      </g>
     </g>
     <g id="text_18">
      <!-- [0.00, -->
      <defs>
       <path d="M 8.59375 75.984375 
L 29.296875 75.984375 
L 29.296875 69 
L 17.578125 69 
L 17.578125 -6.203125 
L 29.296875 -6.203125 
L 29.296875 -13.1875 
L 8.59375 -13.1875 
z
" id="DejaVuSans-91"/>
       <path d="M 11.71875 12.40625 
L 22.015625 12.40625 
L 22.015625 4 
L 14.015625 -11.625 
L 7.71875 -11.625 
L 11.71875 4 
z
" id="DejaVuSans-44"/>
      </defs>
      <g transform="translate(27.309375 35.877578)scale(0.2 -0.2)">
       <use xlink:href="#DejaVuSans-91"/>
       <use x="39.013672" xlink:href="#DejaVuSans-48"/>
       <use x="102.636719" xlink:href="#DejaVuSans-46"/>
       <use x="134.423828" xlink:href="#DejaVuSans-48"/>
       <use x="198.046875" xlink:href="#DejaVuSans-48"/>
       <use x="261.669922" xlink:href="#DejaVuSans-44"/>
      </g>
      <!-- 0.25) -->
      <defs>
       <path d="M 8.015625 75.875 
L 15.828125 75.875 
Q 23.140625 64.359375 26.78125 53.3125 
Q 30.421875 42.28125 30.421875 31.390625 
Q 30.421875 20.453125 26.78125 9.375 
Q 23.140625 -1.703125 15.828125 -13.1875 
L 8.015625 -13.1875 
Q 14.5 -2 17.703125 9.0625 
Q 20.90625 20.125 20.90625 31.390625 
Q 20.90625 42.671875 17.703125 53.65625 
Q 14.5 64.65625 8.015625 75.875 
z
" id="DejaVuSans-41"/>
      </defs>
      <g transform="translate(33.665625 58.273203)scale(0.2 -0.2)">
       <use xlink:href="#DejaVuSans-48"/>
       <use x="63.623047" xlink:href="#DejaVuSans-46"/>
       <use x="95.410156" xlink:href="#DejaVuSans-50"/>
       <use x="159.033203" xlink:href="#DejaVuSans-53"/>
       <use x="222.65625" xlink:href="#DejaVuSans-41"/>
      </g>
     </g>
    </g>
    <g id="ytick_8">
     <g id="line2d_16">
      <g>
       <use style="stroke:#000000;stroke-width:1.6;" x="100.7" xlink:href="#mbb41fb33a3" y="103.972786"/>
      </g>
     </g>
     <g id="text_19">
      <!-- [0.25, -->
      <g transform="translate(27.309375 100.373411)scale(0.2 -0.2)">
       <use xlink:href="#DejaVuSans-91"/>
       <use x="39.013672" xlink:href="#DejaVuSans-48"/>
       <use x="102.636719" xlink:href="#DejaVuSans-46"/>
       <use x="134.423828" xlink:href="#DejaVuSans-50"/>
       <use x="198.046875" xlink:href="#DejaVuSans-53"/>
       <use x="261.669922" xlink:href="#DejaVuSans-44"/>
      </g>
      <!-- 0.50) -->
      <g transform="translate(33.665625 122.769036)scale(0.2 -0.2)">
       <use xlink:href="#DejaVuSans-48"/>
       <use x="63.623047" xlink:href="#DejaVuSans-46"/>
       <use x="95.410156" xlink:href="#DejaVuSans-53"/>
       <use x="159.033203" xlink:href="#DejaVuSans-48"/>
       <use x="222.65625" xlink:href="#DejaVuSans-41"/>
      </g>
     </g>
    </g>
    <g id="ytick_9">
     <g id="line2d_17">
      <g>
       <use style="stroke:#000000;stroke-width:1.6;" x="100.7" xlink:href="#mbb41fb33a3" y="168.46862"/>
      </g>
     </g>
     <g id="text_20">
      <!-- [0.50, -->
      <g transform="translate(27.309375 164.869245)scale(0.2 -0.2)">
       <use xlink:href="#DejaVuSans-91"/>
       <use x="39.013672" xlink:href="#DejaVuSans-48"/>
       <use x="102.636719" xlink:href="#DejaVuSans-46"/>
       <use x="134.423828" xlink:href="#DejaVuSans-53"/>
       <use x="198.046875" xlink:href="#DejaVuSans-48"/>
       <use x="261.669922" xlink:href="#DejaVuSans-44"/>
      </g>
      <!-- 0.75) -->
      <g transform="translate(33.665625 187.26487)scale(0.2 -0.2)">
       <use xlink:href="#DejaVuSans-48"/>
       <use x="63.623047" xlink:href="#DejaVuSans-46"/>
       <use x="95.410156" xlink:href="#DejaVuSans-55"/>
       <use x="159.033203" xlink:href="#DejaVuSans-53"/>
       <use x="222.65625" xlink:href="#DejaVuSans-41"/>
      </g>
     </g>
    </g>
    <g id="ytick_10">
     <g id="line2d_18">
      <g>
       <use style="stroke:#000000;stroke-width:1.6;" x="100.7" xlink:href="#mbb41fb33a3" y="232.964453"/>
      </g>
     </g>
     <g id="text_21">
      <!-- [0.75, -->
      <g transform="translate(27.309375 229.365078)scale(0.2 -0.2)">
       <use xlink:href="#DejaVuSans-91"/>
       <use x="39.013672" xlink:href="#DejaVuSans-48"/>
       <use x="102.636719" xlink:href="#DejaVuSans-46"/>
       <use x="134.423828" xlink:href="#DejaVuSans-55"/>
       <use x="198.046875" xlink:href="#DejaVuSans-53"/>
       <use x="261.669922" xlink:href="#DejaVuSans-44"/>
      </g>
      <!-- 1.00) -->
      <g transform="translate(33.665625 251.760703)scale(0.2 -0.2)">
       <use xlink:href="#DejaVuSans-49"/>
       <use x="63.623047" xlink:href="#DejaVuSans-46"/>
       <use x="95.410156" xlink:href="#DejaVuSans-48"/>
       <use x="159.033203" xlink:href="#DejaVuSans-48"/>
       <use x="222.65625" xlink:href="#DejaVuSans-41"/>
      </g>
     </g>
    </g>
    <g id="text_22">
     <!-- Max JS Divergence within $\epsilon$ -->
     <defs>
      <path d="M 9.8125 72.90625 
L 19.671875 72.90625 
L 19.671875 5.078125 
Q 19.671875 -8.109375 14.671875 -14.0625 
Q 9.671875 -20.015625 -1.421875 -20.015625 
L -5.171875 -20.015625 
L -5.171875 -11.71875 
L -2.09375 -11.71875 
Q 4.4375 -11.71875 7.125 -8.046875 
Q 9.8125 -4.390625 9.8125 5.078125 
z
" id="DejaVuSans-74"/>
      <path d="M 53.515625 70.515625 
L 53.515625 60.890625 
Q 47.90625 63.578125 42.921875 64.890625 
Q 37.9375 66.21875 33.296875 66.21875 
Q 25.25 66.21875 20.875 63.09375 
Q 16.5 59.96875 16.5 54.203125 
Q 16.5 49.359375 19.40625 46.890625 
Q 22.3125 44.4375 30.421875 42.921875 
L 36.375 41.703125 
Q 47.40625 39.59375 52.65625 34.296875 
Q 57.90625 29 57.90625 20.125 
Q 57.90625 9.515625 50.796875 4.046875 
Q 43.703125 -1.421875 29.984375 -1.421875 
Q 24.8125 -1.421875 18.96875 -0.25 
Q 13.140625 0.921875 6.890625 3.21875 
L 6.890625 13.375 
Q 12.890625 10.015625 18.65625 8.296875 
Q 24.421875 6.59375 29.984375 6.59375 
Q 38.421875 6.59375 43.015625 9.90625 
Q 47.609375 13.234375 47.609375 19.390625 
Q 47.609375 24.75 44.3125 27.78125 
Q 41.015625 30.8125 33.5 32.328125 
L 27.484375 33.5 
Q 16.453125 35.6875 11.515625 40.375 
Q 6.59375 45.0625 6.59375 53.421875 
Q 6.59375 63.09375 13.40625 68.65625 
Q 20.21875 74.21875 32.171875 74.21875 
Q 37.3125 74.21875 42.625 73.28125 
Q 47.953125 72.359375 53.515625 70.515625 
z
" id="DejaVuSans-83"/>
      <path d="M 19.671875 64.796875 
L 19.671875 8.109375 
L 31.59375 8.109375 
Q 46.6875 8.109375 53.6875 14.9375 
Q 60.6875 21.78125 60.6875 36.53125 
Q 60.6875 51.171875 53.6875 57.984375 
Q 46.6875 64.796875 31.59375 64.796875 
z
M 9.8125 72.90625 
L 30.078125 72.90625 
Q 51.265625 72.90625 61.171875 64.09375 
Q 71.09375 55.28125 71.09375 36.53125 
Q 71.09375 17.671875 61.125 8.828125 
Q 51.171875 0 30.078125 0 
L 9.8125 0 
z
" id="DejaVuSans-68"/>
      <path d="M 2.984375 54.6875 
L 12.5 54.6875 
L 29.59375 8.796875 
L 46.6875 54.6875 
L 56.203125 54.6875 
L 35.6875 0 
L 23.484375 0 
z
" id="DejaVuSans-118"/>
      <path d="M 41.109375 46.296875 
Q 39.59375 47.171875 37.8125 47.578125 
Q 36.03125 48 33.890625 48 
Q 26.265625 48 22.1875 43.046875 
Q 18.109375 38.09375 18.109375 28.8125 
L 18.109375 0 
L 9.078125 0 
L 9.078125 54.6875 
L 18.109375 54.6875 
L 18.109375 46.1875 
Q 20.953125 51.171875 25.484375 53.578125 
Q 30.03125 56 36.53125 56 
Q 37.453125 56 38.578125 55.875 
Q 39.703125 55.765625 41.0625 55.515625 
z
" id="DejaVuSans-114"/>
      <path d="M 45.40625 27.984375 
Q 45.40625 37.75 41.375 43.109375 
Q 37.359375 48.484375 30.078125 48.484375 
Q 22.859375 48.484375 18.828125 43.109375 
Q 14.796875 37.75 14.796875 27.984375 
Q 14.796875 18.265625 18.828125 12.890625 
Q 22.859375 7.515625 30.078125 7.515625 
Q 37.359375 7.515625 41.375 12.890625 
Q 45.40625 18.265625 45.40625 27.984375 
z
M 54.390625 6.78125 
Q 54.390625 -7.171875 48.1875 -13.984375 
Q 42 -20.796875 29.203125 -20.796875 
Q 24.46875 -20.796875 20.265625 -20.09375 
Q 16.0625 -19.390625 12.109375 -17.921875 
L 12.109375 -9.1875 
Q 16.0625 -11.328125 19.921875 -12.34375 
Q 23.78125 -13.375 27.78125 -13.375 
Q 36.625 -13.375 41.015625 -8.765625 
Q 45.40625 -4.15625 45.40625 5.171875 
L 45.40625 9.625 
Q 42.625 4.78125 38.28125 2.390625 
Q 33.9375 0 27.875 0 
Q 17.828125 0 11.671875 7.65625 
Q 5.515625 15.328125 5.515625 27.984375 
Q 5.515625 40.671875 11.671875 48.328125 
Q 17.828125 56 27.875 56 
Q 33.9375 56 38.28125 53.609375 
Q 42.625 51.21875 45.40625 46.390625 
L 45.40625 54.6875 
L 54.390625 54.6875 
z
" id="DejaVuSans-103"/>
      <path d="M 48.78125 52.59375 
L 48.78125 44.1875 
Q 44.96875 46.296875 41.140625 47.34375 
Q 37.3125 48.390625 33.40625 48.390625 
Q 24.65625 48.390625 19.8125 42.84375 
Q 14.984375 37.3125 14.984375 27.296875 
Q 14.984375 17.28125 19.8125 11.734375 
Q 24.65625 6.203125 33.40625 6.203125 
Q 37.3125 6.203125 41.140625 7.25 
Q 44.96875 8.296875 48.78125 10.40625 
L 48.78125 2.09375 
Q 45.015625 0.34375 40.984375 -0.53125 
Q 36.96875 -1.421875 32.421875 -1.421875 
Q 20.0625 -1.421875 12.78125 6.34375 
Q 5.515625 14.109375 5.515625 27.296875 
Q 5.515625 40.671875 12.859375 48.328125 
Q 20.21875 56 33.015625 56 
Q 37.15625 56 41.109375 55.140625 
Q 45.0625 54.296875 48.78125 52.59375 
z
" id="DejaVuSans-99"/>
      <path d="M 4.203125 54.6875 
L 13.1875 54.6875 
L 24.421875 12.015625 
L 35.59375 54.6875 
L 46.1875 54.6875 
L 57.421875 12.015625 
L 68.609375 54.6875 
L 77.59375 54.6875 
L 63.28125 0 
L 52.6875 0 
L 40.921875 44.828125 
L 29.109375 0 
L 18.5 0 
z
" id="DejaVuSans-119"/>
      <path d="M 54.890625 33.015625 
L 54.890625 0 
L 45.90625 0 
L 45.90625 32.71875 
Q 45.90625 40.484375 42.875 44.328125 
Q 39.84375 48.1875 33.796875 48.1875 
Q 26.515625 48.1875 22.3125 43.546875 
Q 18.109375 38.921875 18.109375 30.90625 
L 18.109375 0 
L 9.078125 0 
L 9.078125 75.984375 
L 18.109375 75.984375 
L 18.109375 46.1875 
Q 21.34375 51.125 25.703125 53.5625 
Q 30.078125 56 35.796875 56 
Q 45.21875 56 50.046875 50.171875 
Q 54.890625 44.34375 54.890625 33.015625 
z
" id="DejaVuSans-104"/>
      <path d="M 19.734375 29.5 
Q 14.453125 30.671875 12.15625 33.84375 
Q 10.453125 36.078125 10.453125 39.109375 
Q 10.453125 47.40625 18.359375 52.25 
Q 24.609375 56.0625 34.1875 56.0625 
Q 37.890625 56.0625 41.9375 55.46875 
Q 46 54.890625 50.53125 53.71875 
L 48.96875 45.5625 
Q 44.484375 46.96875 40.71875 47.609375 
Q 36.859375 48.25 33.40625 48.25 
Q 27.59375 48.25 23.78125 46 
Q 19.1875 43.3125 19.1875 39.40625 
Q 19.1875 36.8125 21.578125 35.015625 
Q 24.421875 32.859375 30.078125 32.859375 
L 37.640625 32.859375 
L 36.234375 25.4375 
L 29 25.4375 
Q 22.265625 25.4375 18.3125 22.953125 
Q 12.9375 19.578125 12.9375 14.3125 
Q 12.9375 10.984375 15.828125 8.796875 
Q 19.4375 6.0625 26.8125 6.0625 
Q 31.34375 6.0625 35.6875 6.9375 
Q 40.046875 7.859375 43.84375 9.671875 
L 42.1875 1.3125 
Q 37.546875 -0.046875 33.296875 -0.734375 
Q 29.046875 -1.421875 25.140625 -1.421875 
Q 13.53125 -1.421875 8.0625 3.03125 
Q 3.90625 6.453125 3.90625 12.203125 
Q 3.90625 19.96875 9.375 24.75 
Q 13.421875 28.328125 19.734375 29.5 
z
" id="DejaVuSans-Oblique-949"/>
     </defs>
     <g transform="translate(19.109375 271.820703)rotate(-90)scale(0.2 -0.2)">
      <use transform="translate(0 0.015625)" xlink:href="#DejaVuSans-77"/>
      <use transform="translate(86.279297 0.015625)" xlink:href="#DejaVuSans-97"/>
      <use transform="translate(147.558594 0.015625)" xlink:href="#DejaVuSans-120"/>
      <use transform="translate(206.738281 0.015625)" xlink:href="#DejaVuSans-32"/>
      <use transform="translate(238.525391 0.015625)" xlink:href="#DejaVuSans-74"/>
      <use transform="translate(268.017578 0.015625)" xlink:href="#DejaVuSans-83"/>
      <use transform="translate(331.494141 0.015625)" xlink:href="#DejaVuSans-32"/>
      <use transform="translate(363.28125 0.015625)" xlink:href="#DejaVuSans-68"/>
      <use transform="translate(440.283203 0.015625)" xlink:href="#DejaVuSans-105"/>
      <use transform="translate(468.066406 0.015625)" xlink:href="#DejaVuSans-118"/>
      <use transform="translate(527.246094 0.015625)" xlink:href="#DejaVuSans-101"/>
      <use transform="translate(588.769531 0.015625)" xlink:href="#DejaVuSans-114"/>
      <use transform="translate(629.882812 0.015625)" xlink:href="#DejaVuSans-103"/>
      <use transform="translate(693.359375 0.015625)" xlink:href="#DejaVuSans-101"/>
      <use transform="translate(754.882812 0.015625)" xlink:href="#DejaVuSans-110"/>
      <use transform="translate(818.261719 0.015625)" xlink:href="#DejaVuSans-99"/>
      <use transform="translate(873.242188 0.015625)" xlink:href="#DejaVuSans-101"/>
      <use transform="translate(934.765625 0.015625)" xlink:href="#DejaVuSans-32"/>
      <use transform="translate(966.552734 0.015625)" xlink:href="#DejaVuSans-119"/>
      <use transform="translate(1048.339844 0.015625)" xlink:href="#DejaVuSans-105"/>
      <use transform="translate(1076.123047 0.015625)" xlink:href="#DejaVuSans-116"/>
      <use transform="translate(1115.332031 0.015625)" xlink:href="#DejaVuSans-104"/>
      <use transform="translate(1178.710938 0.015625)" xlink:href="#DejaVuSans-105"/>
      <use transform="translate(1206.494141 0.015625)" xlink:href="#DejaVuSans-110"/>
      <use transform="translate(1269.873047 0.015625)" xlink:href="#DejaVuSans-32"/>
      <use transform="translate(1301.660156 0.015625)" xlink:href="#DejaVuSans-Oblique-949"/>
     </g>
    </g>
   </g>
   <g id="line2d_19">
    <path clip-path="url(#p6fb2638801)" d="M 281.396591 24.390615 
L 281.396591 54.563292 
" style="fill:none;stroke:#575757;stroke-dasharray:1.5,1.5;stroke-dashoffset:0;"/>
   </g>
   <g id="line2d_20">
    <path clip-path="url(#p6fb2638801)" d="M 301.796427 14.412816 
L 301.796427 64.54109 
" style="fill:none;stroke:#575757;stroke-dasharray:3,3;stroke-dashoffset:0;"/>
   </g>
   <g id="line2d_21">
    <path clip-path="url(#p6fb2638801)" d="M 314.522109 15.129983 
L 314.522109 63.823923 
" style="fill:none;stroke:#575757;stroke-dasharray:1.5,1.5;stroke-dashoffset:0;"/>
   </g>
   <g id="line2d_22">
    <path clip-path="url(#p6fb2638801)" d="M 236.727393 83.004518 
L 236.727393 124.941055 
" style="fill:none;stroke:#575757;stroke-dasharray:1.5,1.5;stroke-dashoffset:0;"/>
   </g>
   <g id="line2d_23">
    <path clip-path="url(#p6fb2638801)" d="M 261.313545 78.765195 
L 261.313545 129.180378 
" style="fill:none;stroke:#575757;stroke-dasharray:3,3;stroke-dashoffset:0;"/>
   </g>
   <g id="line2d_24">
    <path clip-path="url(#p6fb2638801)" d="M 299.786884 81.949162 
L 299.786884 125.996411 
" style="fill:none;stroke:#575757;stroke-dasharray:1.5,1.5;stroke-dashoffset:0;"/>
   </g>
   <g id="line2d_25">
    <path clip-path="url(#p6fb2638801)" d="M 347.597657 142.670286 
L 347.597657 194.266953 
" style="fill:none;stroke:#575757;stroke-linecap:square;"/>
   </g>
   <g id="patch_47">
    <path d="M 100.7 265.21237 
L 100.7 7.229036 
" style="fill:none;stroke:#000000;stroke-linecap:square;stroke-linejoin:miter;stroke-width:0.8;"/>
   </g>
   <g id="patch_48">
    <path d="M 100.7 265.21237 
L 358.683333 265.21237 
" style="fill:none;stroke:#000000;stroke-linecap:square;stroke-linejoin:miter;stroke-width:0.8;"/>
   </g>
  </g>
 </g>
 <defs>
  <clipPath id="p89305e672b">
   <rect height="257.983333" width="257.983333" x="-265.083333" y="7.229036"/>
  </clipPath>
  <clipPath id="p6fb2638801">
   <rect height="257.983333" width="257.983333" x="100.7" y="7.229036"/>
  </clipPath>
 </defs>
</svg>
