<?xml version="1.0" encoding="utf-8" standalone="no"?>
<!DOCTYPE svg PUBLIC "-//W3C//DTD SVG 1.1//EN"
  "http://www.w3.org/Graphics/SVG/1.1/DTD/svg11.dtd">
<!-- Created with matplotlib (https://matplotlib.org/) -->
<svg height="319.018203pt" version="1.1" viewBox="0 0 356.395 319.018203" width="356.395pt" xmlns="http://www.w3.org/2000/svg" xmlns:xlink="http://www.w3.org/1999/xlink">
 <defs>
  <style type="text/css">
*{stroke-linecap:butt;stroke-linejoin:round;}
  </style>
 </defs>
 <g id="figure_1">
  <g id="patch_1">
   <path d="M 0 319.018203 
L 356.395 319.018203 
L 356.395 -0 
L 0 -0 
z
" style="fill:#ffffff;"/>
  </g>
  <g id="axes_1">
   <g id="patch_2">
    <path d="M -266.855 262.318203 
L -14.66 262.318203 
L -14.66 10.123203 
L -266.855 10.123203 
z
" style="fill:#ffffff;"/>
   </g>
   <g id="patch_3">
    <path clip-path="url(#p6c2ddecd35)" d="M -255.391591 262.318203 
L -249.659886 262.318203 
L -249.659886 262.318203 
L -255.391591 262.318203 
z
" style="fill:#7570b3;opacity:0.6;stroke:#000000;stroke-linejoin:miter;stroke-width:0.5;"/>
   </g>
   <g id="patch_4">
    <path clip-path="url(#p6c2ddecd35)" d="M -249.659886 262.318203 
L -243.928182 262.318203 
L -243.928182 262.318203 
L -249.659886 262.318203 
z
" style="fill:#7570b3;opacity:0.6;stroke:#000000;stroke-linejoin:miter;stroke-width:0.5;"/>
   </g>
   <g id="patch_5">
    <path clip-path="url(#p6c2ddecd35)" d="M -243.928182 262.318203 
L -238.196477 262.318203 
L -238.196477 262.318203 
L -243.928182 262.318203 
z
" style="fill:#7570b3;opacity:0.6;stroke:#000000;stroke-linejoin:miter;stroke-width:0.5;"/>
   </g>
   <g id="patch_6">
    <path clip-path="url(#p6c2ddecd35)" d="M -238.196477 262.318203 
L -232.464773 262.318203 
L -232.464773 262.318203 
L -238.196477 262.318203 
z
" style="fill:#7570b3;opacity:0.6;stroke:#000000;stroke-linejoin:miter;stroke-width:0.5;"/>
   </g>
   <g id="patch_7">
    <path clip-path="url(#p6c2ddecd35)" d="M -232.464773 262.318203 
L -226.733068 262.318203 
L -226.733068 262.318203 
L -232.464773 262.318203 
z
" style="fill:#7570b3;opacity:0.6;stroke:#000000;stroke-linejoin:miter;stroke-width:0.5;"/>
   </g>
   <g id="patch_8">
    <path clip-path="url(#p6c2ddecd35)" d="M -226.733068 262.318203 
L -221.001364 262.318203 
L -221.001364 262.318203 
L -226.733068 262.318203 
z
" style="fill:#7570b3;opacity:0.6;stroke:#000000;stroke-linejoin:miter;stroke-width:0.5;"/>
   </g>
   <g id="patch_9">
    <path clip-path="url(#p6c2ddecd35)" d="M -221.001364 262.318203 
L -215.269659 262.318203 
L -215.269659 262.318203 
L -221.001364 262.318203 
z
" style="fill:#7570b3;opacity:0.6;stroke:#000000;stroke-linejoin:miter;stroke-width:0.5;"/>
   </g>
   <g id="patch_10">
    <path clip-path="url(#p6c2ddecd35)" d="M -215.269659 262.318203 
L -209.537955 262.318203 
L -209.537955 262.318203 
L -215.269659 262.318203 
z
" style="fill:#7570b3;opacity:0.6;stroke:#000000;stroke-linejoin:miter;stroke-width:0.5;"/>
   </g>
   <g id="patch_11">
    <path clip-path="url(#p6c2ddecd35)" d="M -209.537955 262.318203 
L -203.80625 262.318203 
L -203.80625 262.318203 
L -209.537955 262.318203 
z
" style="fill:#7570b3;opacity:0.6;stroke:#000000;stroke-linejoin:miter;stroke-width:0.5;"/>
   </g>
   <g id="patch_12">
    <path clip-path="url(#p6c2ddecd35)" d="M -203.80625 262.318203 
L -198.074545 262.318203 
L -198.074545 262.318203 
L -203.80625 262.318203 
z
" style="fill:#7570b3;opacity:0.6;stroke:#000000;stroke-linejoin:miter;stroke-width:0.5;"/>
   </g>
   <g id="patch_13">
    <path clip-path="url(#p6c2ddecd35)" d="M -198.074545 262.318203 
L -192.342841 262.318203 
L -192.342841 262.318203 
L -198.074545 262.318203 
z
" style="fill:#7570b3;opacity:0.6;stroke:#000000;stroke-linejoin:miter;stroke-width:0.5;"/>
   </g>
   <g id="patch_14">
    <path clip-path="url(#p6c2ddecd35)" d="M -192.342841 262.318203 
L -186.611136 262.318203 
L -186.611136 262.318203 
L -192.342841 262.318203 
z
" style="fill:#7570b3;opacity:0.6;stroke:#000000;stroke-linejoin:miter;stroke-width:0.5;"/>
   </g>
   <g id="patch_15">
    <path clip-path="url(#p6c2ddecd35)" d="M -186.611136 262.318203 
L -180.879432 262.318203 
L -180.879432 262.318203 
L -186.611136 262.318203 
z
" style="fill:#7570b3;opacity:0.6;stroke:#000000;stroke-linejoin:miter;stroke-width:0.5;"/>
   </g>
   <g id="patch_16">
    <path clip-path="url(#p6c2ddecd35)" d="M -180.879432 262.318203 
L -175.147727 262.318203 
L -175.147727 262.318203 
L -180.879432 262.318203 
z
" style="fill:#7570b3;opacity:0.6;stroke:#000000;stroke-linejoin:miter;stroke-width:0.5;"/>
   </g>
   <g id="patch_17">
    <path clip-path="url(#p6c2ddecd35)" d="M -175.147727 262.318203 
L -169.416023 262.318203 
L -169.416023 262.318203 
L -175.147727 262.318203 
z
" style="fill:#7570b3;opacity:0.6;stroke:#000000;stroke-linejoin:miter;stroke-width:0.5;"/>
   </g>
   <g id="patch_18">
    <path clip-path="url(#p6c2ddecd35)" d="M -169.416023 262.318203 
L -163.684318 262.318203 
L -163.684318 260.0523 
L -169.416023 260.0523 
z
" style="fill:#7570b3;opacity:0.6;stroke:#000000;stroke-linejoin:miter;stroke-width:0.5;"/>
   </g>
   <g id="patch_19">
    <path clip-path="url(#p6c2ddecd35)" d="M -163.684318 262.318203 
L -157.952614 262.318203 
L -157.952614 260.0523 
L -163.684318 260.0523 
z
" style="fill:#7570b3;opacity:0.6;stroke:#000000;stroke-linejoin:miter;stroke-width:0.5;"/>
   </g>
   <g id="patch_20">
    <path clip-path="url(#p6c2ddecd35)" d="M -157.952614 262.318203 
L -152.220909 262.318203 
L -152.220909 262.318203 
L -157.952614 262.318203 
z
" style="fill:#7570b3;opacity:0.6;stroke:#000000;stroke-linejoin:miter;stroke-width:0.5;"/>
   </g>
   <g id="patch_21">
    <path clip-path="url(#p6c2ddecd35)" d="M -152.220909 262.318203 
L -146.489205 262.318203 
L -146.489205 255.520494 
L -152.220909 255.520494 
z
" style="fill:#7570b3;opacity:0.6;stroke:#000000;stroke-linejoin:miter;stroke-width:0.5;"/>
   </g>
   <g id="patch_22">
    <path clip-path="url(#p6c2ddecd35)" d="M -146.489205 262.318203 
L -140.7575 262.318203 
L -140.7575 260.0523 
L -146.489205 260.0523 
z
" style="fill:#7570b3;opacity:0.6;stroke:#000000;stroke-linejoin:miter;stroke-width:0.5;"/>
   </g>
   <g id="patch_23">
    <path clip-path="url(#p6c2ddecd35)" d="M -140.7575 262.318203 
L -135.025795 262.318203 
L -135.025795 257.786397 
L -140.7575 257.786397 
z
" style="fill:#7570b3;opacity:0.6;stroke:#000000;stroke-linejoin:miter;stroke-width:0.5;"/>
   </g>
   <g id="patch_24">
    <path clip-path="url(#p6c2ddecd35)" d="M -135.025795 262.318203 
L -129.294091 262.318203 
L -129.294091 248.722785 
L -135.025795 248.722785 
z
" style="fill:#7570b3;opacity:0.6;stroke:#000000;stroke-linejoin:miter;stroke-width:0.5;"/>
   </g>
   <g id="patch_25">
    <path clip-path="url(#p6c2ddecd35)" d="M -129.294091 262.318203 
L -123.562386 262.318203 
L -123.562386 235.127368 
L -129.294091 235.127368 
z
" style="fill:#7570b3;opacity:0.6;stroke:#000000;stroke-linejoin:miter;stroke-width:0.5;"/>
   </g>
   <g id="patch_26">
    <path clip-path="url(#p6c2ddecd35)" d="M -123.562386 262.318203 
L -117.830682 262.318203 
L -117.830682 230.595562 
L -123.562386 230.595562 
z
" style="fill:#7570b3;opacity:0.6;stroke:#000000;stroke-linejoin:miter;stroke-width:0.5;"/>
   </g>
   <g id="patch_27">
    <path clip-path="url(#p6c2ddecd35)" d="M -117.830682 262.318203 
L -112.098977 262.318203 
L -112.098977 230.595562 
L -117.830682 230.595562 
z
" style="fill:#7570b3;opacity:0.6;stroke:#000000;stroke-linejoin:miter;stroke-width:0.5;"/>
   </g>
   <g id="patch_28">
    <path clip-path="url(#p6c2ddecd35)" d="M -112.098977 262.318203 
L -106.367273 262.318203 
L -106.367273 196.607017 
L -112.098977 196.607017 
z
" style="fill:#7570b3;opacity:0.6;stroke:#000000;stroke-linejoin:miter;stroke-width:0.5;"/>
   </g>
   <g id="patch_29">
    <path clip-path="url(#p6c2ddecd35)" d="M -106.367273 262.318203 
L -100.635568 262.318203 
L -100.635568 164.884376 
L -106.367273 164.884376 
z
" style="fill:#7570b3;opacity:0.6;stroke:#000000;stroke-linejoin:miter;stroke-width:0.5;"/>
   </g>
   <g id="patch_30">
    <path clip-path="url(#p6c2ddecd35)" d="M -100.635568 262.318203 
L -94.903864 262.318203 
L -94.903864 167.150279 
L -100.635568 167.150279 
z
" style="fill:#7570b3;opacity:0.6;stroke:#000000;stroke-linejoin:miter;stroke-width:0.5;"/>
   </g>
   <g id="patch_31">
    <path clip-path="url(#p6c2ddecd35)" d="M -94.903864 262.318203 
L -89.172159 262.318203 
L -89.172159 110.502704 
L -94.903864 110.502704 
z
" style="fill:#7570b3;opacity:0.6;stroke:#000000;stroke-linejoin:miter;stroke-width:0.5;"/>
   </g>
   <g id="patch_32">
    <path clip-path="url(#p6c2ddecd35)" d="M -89.172159 262.318203 
L -83.440455 262.318203 
L -83.440455 110.502704 
L -89.172159 110.502704 
z
" style="fill:#7570b3;opacity:0.6;stroke:#000000;stroke-linejoin:miter;stroke-width:0.5;"/>
   </g>
   <g id="patch_33">
    <path clip-path="url(#p6c2ddecd35)" d="M -83.440455 262.318203 
L -77.70875 262.318203 
L -77.70875 71.982354 
L -83.440455 71.982354 
z
" style="fill:#7570b3;opacity:0.6;stroke:#000000;stroke-linejoin:miter;stroke-width:0.5;"/>
   </g>
   <g id="patch_34">
    <path clip-path="url(#p6c2ddecd35)" d="M -77.70875 262.318203 
L -71.977045 262.318203 
L -71.977045 69.716451 
L -77.70875 69.716451 
z
" style="fill:#7570b3;opacity:0.6;stroke:#000000;stroke-linejoin:miter;stroke-width:0.5;"/>
   </g>
   <g id="patch_35">
    <path clip-path="url(#p6c2ddecd35)" d="M -71.977045 262.318203 
L -66.245341 262.318203 
L -66.245341 22.132489 
L -71.977045 22.132489 
z
" style="fill:#7570b3;opacity:0.6;stroke:#000000;stroke-linejoin:miter;stroke-width:0.5;"/>
   </g>
   <g id="patch_36">
    <path clip-path="url(#p6c2ddecd35)" d="M -66.245341 262.318203 
L -60.513636 262.318203 
L -60.513636 67.450548 
L -66.245341 67.450548 
z
" style="fill:#7570b3;opacity:0.6;stroke:#000000;stroke-linejoin:miter;stroke-width:0.5;"/>
   </g>
   <g id="patch_37">
    <path clip-path="url(#p6c2ddecd35)" d="M -60.513636 262.318203 
L -54.781932 262.318203 
L -54.781932 101.439093 
L -60.513636 101.439093 
z
" style="fill:#7570b3;opacity:0.6;stroke:#000000;stroke-linejoin:miter;stroke-width:0.5;"/>
   </g>
   <g id="patch_38">
    <path clip-path="url(#p6c2ddecd35)" d="M -54.781932 262.318203 
L -49.050227 262.318203 
L -49.050227 128.629928 
L -54.781932 128.629928 
z
" style="fill:#7570b3;opacity:0.6;stroke:#000000;stroke-linejoin:miter;stroke-width:0.5;"/>
   </g>
   <g id="patch_39">
    <path clip-path="url(#p6c2ddecd35)" d="M -49.050227 262.318203 
L -43.318523 262.318203 
L -43.318523 126.364025 
L -49.050227 126.364025 
z
" style="fill:#7570b3;opacity:0.6;stroke:#000000;stroke-linejoin:miter;stroke-width:0.5;"/>
   </g>
   <g id="patch_40">
    <path clip-path="url(#p6c2ddecd35)" d="M -43.318523 262.318203 
L -37.586818 262.318203 
L -37.586818 135.427637 
L -43.318523 135.427637 
z
" style="fill:#7570b3;opacity:0.6;stroke:#000000;stroke-linejoin:miter;stroke-width:0.5;"/>
   </g>
   <g id="patch_41">
    <path clip-path="url(#p6c2ddecd35)" d="M -37.586818 262.318203 
L -31.855114 262.318203 
L -31.855114 164.884376 
L -37.586818 164.884376 
z
" style="fill:#7570b3;opacity:0.6;stroke:#000000;stroke-linejoin:miter;stroke-width:0.5;"/>
   </g>
   <g id="patch_42">
    <path clip-path="url(#p6c2ddecd35)" d="M -31.855114 262.318203 
L -26.123409 262.318203 
L -26.123409 153.554861 
L -31.855114 153.554861 
z
" style="fill:#7570b3;opacity:0.6;stroke:#000000;stroke-linejoin:miter;stroke-width:0.5;"/>
   </g>
   <g id="matplotlib.axis_1">
    <g id="xtick_1">
     <g id="line2d_1">
      <defs>
       <path d="M 0 0 
L 0 3.5 
" id="mcd1e838929" style="stroke:#000000;stroke-width:1.6;"/>
      </defs>
      <g/>
     </g>
     <g id="text_1">
      <!-- 0.0 -->
      <defs>
       <path d="M 31.78125 66.40625 
Q 24.171875 66.40625 20.328125 58.90625 
Q 16.5 51.421875 16.5 36.375 
Q 16.5 21.390625 20.328125 13.890625 
Q 24.171875 6.390625 31.78125 6.390625 
Q 39.453125 6.390625 43.28125 13.890625 
Q 47.125 21.390625 47.125 36.375 
Q 47.125 51.421875 43.28125 58.90625 
Q 39.453125 66.40625 31.78125 66.40625 
z
M 31.78125 74.21875 
Q 44.046875 74.21875 50.515625 64.515625 
Q 56.984375 54.828125 56.984375 36.375 
Q 56.984375 17.96875 50.515625 8.265625 
Q 44.046875 -1.421875 31.78125 -1.421875 
Q 19.53125 -1.421875 13.0625 8.265625 
Q 6.59375 17.96875 6.59375 36.375 
Q 6.59375 54.828125 13.0625 64.515625 
Q 19.53125 74.21875 31.78125 74.21875 
z
" id="DejaVuSans-48"/>
       <path d="M 10.6875 12.40625 
L 21 12.40625 
L 21 0 
L 10.6875 0 
z
" id="DejaVuSans-46"/>
      </defs>
      <g transform="translate(-271.294716 292.215078)scale(0.2 -0.2)">
       <use xlink:href="#DejaVuSans-48"/>
       <use x="63.623047" xlink:href="#DejaVuSans-46"/>
       <use x="95.410156" xlink:href="#DejaVuSans-48"/>
      </g>
     </g>
    </g>
    <g id="xtick_2">
     <g id="line2d_2">
      <g/>
     </g>
     <g id="text_2">
      <!-- 0.2 -->
      <defs>
       <path d="M 19.1875 8.296875 
L 53.609375 8.296875 
L 53.609375 0 
L 7.328125 0 
L 7.328125 8.296875 
Q 12.9375 14.109375 22.625 23.890625 
Q 32.328125 33.6875 34.8125 36.53125 
Q 39.546875 41.84375 41.421875 45.53125 
Q 43.3125 49.21875 43.3125 52.78125 
Q 43.3125 58.59375 39.234375 62.25 
Q 35.15625 65.921875 28.609375 65.921875 
Q 23.96875 65.921875 18.8125 64.3125 
Q 13.671875 62.703125 7.8125 59.421875 
L 7.8125 69.390625 
Q 13.765625 71.78125 18.9375 73 
Q 24.125 74.21875 28.421875 74.21875 
Q 39.75 74.21875 46.484375 68.546875 
Q 53.21875 62.890625 53.21875 53.421875 
Q 53.21875 48.921875 51.53125 44.890625 
Q 49.859375 40.875 45.40625 35.40625 
Q 44.1875 33.984375 37.640625 27.21875 
Q 31.109375 20.453125 19.1875 8.296875 
z
" id="DejaVuSans-50"/>
      </defs>
      <g transform="translate(-205.789521 292.215078)scale(0.2 -0.2)">
       <use xlink:href="#DejaVuSans-48"/>
       <use x="63.623047" xlink:href="#DejaVuSans-46"/>
       <use x="95.410156" xlink:href="#DejaVuSans-50"/>
      </g>
     </g>
    </g>
    <g id="xtick_3">
     <g id="line2d_3">
      <g/>
     </g>
     <g id="text_3">
      <!-- 0.4 -->
      <defs>
       <path d="M 37.796875 64.3125 
L 12.890625 25.390625 
L 37.796875 25.390625 
z
M 35.203125 72.90625 
L 47.609375 72.90625 
L 47.609375 25.390625 
L 58.015625 25.390625 
L 58.015625 17.1875 
L 47.609375 17.1875 
L 47.609375 0 
L 37.796875 0 
L 37.796875 17.1875 
L 4.890625 17.1875 
L 4.890625 26.703125 
z
" id="DejaVuSans-52"/>
      </defs>
      <g transform="translate(-140.284326 292.215078)scale(0.2 -0.2)">
       <use xlink:href="#DejaVuSans-48"/>
       <use x="63.623047" xlink:href="#DejaVuSans-46"/>
       <use x="95.410156" xlink:href="#DejaVuSans-52"/>
      </g>
     </g>
    </g>
    <g id="xtick_4">
     <g id="line2d_4">
      <g/>
     </g>
     <g id="text_4">
      <!-- 0.6 -->
      <defs>
       <path d="M 33.015625 40.375 
Q 26.375 40.375 22.484375 35.828125 
Q 18.609375 31.296875 18.609375 23.390625 
Q 18.609375 15.53125 22.484375 10.953125 
Q 26.375 6.390625 33.015625 6.390625 
Q 39.65625 6.390625 43.53125 10.953125 
Q 47.40625 15.53125 47.40625 23.390625 
Q 47.40625 31.296875 43.53125 35.828125 
Q 39.65625 40.375 33.015625 40.375 
z
M 52.59375 71.296875 
L 52.59375 62.3125 
Q 48.875 64.0625 45.09375 64.984375 
Q 41.3125 65.921875 37.59375 65.921875 
Q 27.828125 65.921875 22.671875 59.328125 
Q 17.53125 52.734375 16.796875 39.40625 
Q 19.671875 43.65625 24.015625 45.921875 
Q 28.375 48.1875 33.59375 48.1875 
Q 44.578125 48.1875 50.953125 41.515625 
Q 57.328125 34.859375 57.328125 23.390625 
Q 57.328125 12.15625 50.6875 5.359375 
Q 44.046875 -1.421875 33.015625 -1.421875 
Q 20.359375 -1.421875 13.671875 8.265625 
Q 6.984375 17.96875 6.984375 36.375 
Q 6.984375 53.65625 15.1875 63.9375 
Q 23.390625 74.21875 37.203125 74.21875 
Q 40.921875 74.21875 44.703125 73.484375 
Q 48.484375 72.75 52.59375 71.296875 
z
" id="DejaVuSans-54"/>
      </defs>
      <g transform="translate(-74.779131 292.215078)scale(0.2 -0.2)">
       <use xlink:href="#DejaVuSans-48"/>
       <use x="63.623047" xlink:href="#DejaVuSans-46"/>
       <use x="95.410156" xlink:href="#DejaVuSans-54"/>
      </g>
     </g>
    </g>
    <g id="text_5">
     <!--   -->
     <defs>
      <path id="DejaVuSans-32"/>
     </defs>
     <g transform="translate(-143.935625 315.571328)scale(0.2 -0.2)">
      <use xlink:href="#DejaVuSans-32"/>
     </g>
    </g>
   </g>
   <g id="matplotlib.axis_2">
    <g id="ytick_1">
     <g id="line2d_5">
      <defs>
       <path d="M 0 0 
L -3.5 0 
" id="m3ecec8c3a2" style="stroke:#000000;stroke-width:1.6;"/>
      </defs>
      <g/>
     </g>
     <g id="text_6">
      <!-- 0.00 -->
      <g transform="translate(-326.08625 269.916641)scale(0.2 -0.2)">
       <use xlink:href="#DejaVuSans-48"/>
       <use x="63.623047" xlink:href="#DejaVuSans-46"/>
       <use x="95.410156" xlink:href="#DejaVuSans-48"/>
       <use x="159.033203" xlink:href="#DejaVuSans-48"/>
      </g>
     </g>
    </g>
    <g id="ytick_2">
     <g id="line2d_6">
      <g/>
     </g>
     <g id="text_7">
      <!-- 0.02 -->
      <g transform="translate(-326.08625 224.598581)scale(0.2 -0.2)">
       <use xlink:href="#DejaVuSans-48"/>
       <use x="63.623047" xlink:href="#DejaVuSans-46"/>
       <use x="95.410156" xlink:href="#DejaVuSans-48"/>
       <use x="159.033203" xlink:href="#DejaVuSans-50"/>
      </g>
     </g>
    </g>
    <g id="ytick_3">
     <g id="line2d_7">
      <g/>
     </g>
     <g id="text_8">
      <!-- 0.04 -->
      <g transform="translate(-326.08625 179.280522)scale(0.2 -0.2)">
       <use xlink:href="#DejaVuSans-48"/>
       <use x="63.623047" xlink:href="#DejaVuSans-46"/>
       <use x="95.410156" xlink:href="#DejaVuSans-48"/>
       <use x="159.033203" xlink:href="#DejaVuSans-52"/>
      </g>
     </g>
    </g>
    <g id="ytick_4">
     <g id="line2d_8">
      <g/>
     </g>
     <g id="text_9">
      <!-- 0.06 -->
      <g transform="translate(-326.08625 133.962463)scale(0.2 -0.2)">
       <use xlink:href="#DejaVuSans-48"/>
       <use x="63.623047" xlink:href="#DejaVuSans-46"/>
       <use x="95.410156" xlink:href="#DejaVuSans-48"/>
       <use x="159.033203" xlink:href="#DejaVuSans-54"/>
      </g>
     </g>
    </g>
    <g id="ytick_5">
     <g id="line2d_9">
      <g/>
     </g>
     <g id="text_10">
      <!-- 0.08 -->
      <defs>
       <path d="M 31.78125 34.625 
Q 24.75 34.625 20.71875 30.859375 
Q 16.703125 27.09375 16.703125 20.515625 
Q 16.703125 13.921875 20.71875 10.15625 
Q 24.75 6.390625 31.78125 6.390625 
Q 38.8125 6.390625 42.859375 10.171875 
Q 46.921875 13.96875 46.921875 20.515625 
Q 46.921875 27.09375 42.890625 30.859375 
Q 38.875 34.625 31.78125 34.625 
z
M 21.921875 38.8125 
Q 15.578125 40.375 12.03125 44.71875 
Q 8.5 49.078125 8.5 55.328125 
Q 8.5 64.0625 14.71875 69.140625 
Q 20.953125 74.21875 31.78125 74.21875 
Q 42.671875 74.21875 48.875 69.140625 
Q 55.078125 64.0625 55.078125 55.328125 
Q 55.078125 49.078125 51.53125 44.71875 
Q 48 40.375 41.703125 38.8125 
Q 48.828125 37.15625 52.796875 32.3125 
Q 56.78125 27.484375 56.78125 20.515625 
Q 56.78125 9.90625 50.3125 4.234375 
Q 43.84375 -1.421875 31.78125 -1.421875 
Q 19.734375 -1.421875 13.25 4.234375 
Q 6.78125 9.90625 6.78125 20.515625 
Q 6.78125 27.484375 10.78125 32.3125 
Q 14.796875 37.15625 21.921875 38.8125 
z
M 18.3125 54.390625 
Q 18.3125 48.734375 21.84375 45.5625 
Q 25.390625 42.390625 31.78125 42.390625 
Q 38.140625 42.390625 41.71875 45.5625 
Q 45.3125 48.734375 45.3125 54.390625 
Q 45.3125 60.0625 41.71875 63.234375 
Q 38.140625 66.40625 31.78125 66.40625 
Q 25.390625 66.40625 21.84375 63.234375 
Q 18.3125 60.0625 18.3125 54.390625 
z
" id="DejaVuSans-56"/>
      </defs>
      <g transform="translate(-326.08625 88.644403)scale(0.2 -0.2)">
       <use xlink:href="#DejaVuSans-48"/>
       <use x="63.623047" xlink:href="#DejaVuSans-46"/>
       <use x="95.410156" xlink:href="#DejaVuSans-48"/>
       <use x="159.033203" xlink:href="#DejaVuSans-56"/>
      </g>
     </g>
    </g>
    <g id="ytick_6">
     <g id="line2d_10">
      <g/>
     </g>
     <g id="text_11">
      <!-- 0.10 -->
      <defs>
       <path d="M 12.40625 8.296875 
L 28.515625 8.296875 
L 28.515625 63.921875 
L 10.984375 60.40625 
L 10.984375 69.390625 
L 28.421875 72.90625 
L 38.28125 72.90625 
L 38.28125 8.296875 
L 54.390625 8.296875 
L 54.390625 0 
L 12.40625 0 
z
" id="DejaVuSans-49"/>
      </defs>
      <g transform="translate(-326.08625 43.326344)scale(0.2 -0.2)">
       <use xlink:href="#DejaVuSans-48"/>
       <use x="63.623047" xlink:href="#DejaVuSans-46"/>
       <use x="95.410156" xlink:href="#DejaVuSans-49"/>
       <use x="159.033203" xlink:href="#DejaVuSans-48"/>
      </g>
     </g>
    </g>
    <g id="text_12">
     <!--   -->
     <g transform="translate(-333.7465 139.017453)rotate(-90)scale(0.176 -0.176)">
      <use xlink:href="#DejaVuSans-32"/>
     </g>
    </g>
   </g>
   <g id="patch_43">
    <path style="fill:none;stroke:#000000;stroke-linecap:square;stroke-linejoin:miter;stroke-width:0.8;"/>
   </g>
   <g id="patch_44">
    <path style="fill:none;stroke:#000000;stroke-linecap:square;stroke-linejoin:miter;stroke-width:0.8;"/>
   </g>
  </g>
  <g id="axes_2">
   <g id="patch_45">
    <path d="M 100.7 262.318203 
L 352.895 262.318203 
L 352.895 10.123203 
L 100.7 10.123203 
z
" style="fill:#ffffff;"/>
   </g>
   <g id="PolyCollection_1">
    <defs>
     <path d="M 223.563495 -213.727669 
L 223.563495 -214.916081 
L 224.841994 -214.961796 
L 226.120494 -215.005105 
L 227.398993 -215.047499 
L 228.677492 -215.09108 
L 229.955991 -215.138304 
L 231.234491 -215.191655 
L 232.51299 -215.253304 
L 233.791489 -215.32481 
L 235.069988 -215.406906 
L 236.348487 -215.499434 
L 237.626987 -215.601416 
L 238.905486 -215.711267 
L 240.183985 -215.82711 
L 241.462484 -215.947137 
L 242.740984 -216.069958 
L 244.019483 -216.194886 
L 245.297982 -216.322114 
L 246.576481 -216.452754 
L 247.854981 -216.588761 
L 249.13348 -216.732746 
L 250.411979 -216.887724 
L 251.690478 -217.056829 
L 252.968978 -217.243055 
L 254.247477 -217.449038 
L 255.525976 -217.676913 
L 256.804475 -217.928251 
L 258.082974 -218.204089 
L 259.361474 -218.505033 
L 260.639973 -218.831428 
L 261.918472 -219.183566 
L 263.196971 -219.561909 
L 264.475471 -219.967281 
L 265.75397 -220.400988 
L 267.032469 -220.864837 
L 268.310968 -221.361016 
L 269.589468 -221.891823 
L 270.867967 -222.459282 
L 272.146466 -223.06466 
L 273.424965 -223.707989 
L 274.703465 -224.387656 
L 275.981964 -225.100151 
L 277.260463 -225.840047 
L 278.538962 -226.60024 
L 279.817461 -227.372429 
L 281.095961 -228.147794 
L 282.37446 -228.91776 
L 283.652959 -229.674751 
L 284.931458 -230.412797 
L 286.209958 -231.12793 
L 287.488457 -231.818307 
L 288.766956 -232.48406 
L 290.045455 -233.126921 
L 291.323955 -233.74968 
L 292.602454 -234.355557 
L 293.880953 -234.94754 
L 295.159452 -235.527745 
L 296.437951 -236.096796 
L 297.716451 -236.653257 
L 298.99495 -237.193113 
L 300.273449 -237.709351 
L 301.551948 -238.191708 
L 302.830448 -238.626674 
L 304.108947 -238.997859 
L 305.387446 -239.286785 
L 306.665945 -239.474132 
L 307.944445 -239.541375 
L 309.222944 -239.472657 
L 310.501443 -239.256701 
L 311.779942 -238.888478 
L 313.058442 -238.370392 
L 314.336941 -237.71276 
L 315.61544 -236.933488 
L 316.893939 -236.056939 
L 318.172438 -235.11212 
L 319.450938 -234.130421 
L 320.729437 -233.143192 
L 322.007936 -232.179479 
L 323.286435 -231.264165 
L 324.564935 -230.416739 
L 325.843434 -229.650741 
L 327.121933 -228.973871 
L 328.400432 -228.388605 
L 329.678932 -227.893121 
L 330.957431 -227.482283 
L 332.23593 -227.148473 
L 333.514429 -226.882128 
L 334.792929 -226.671919 
L 336.071428 -226.504657 
L 337.349927 -226.365061 
L 338.628426 -226.235627 
L 339.906925 -226.096813 
L 341.185425 -225.927712 
L 342.463924 -225.707285 
L 343.742423 -225.416068 
L 345.020922 -225.03817 
L 346.299422 -224.563225 
L 347.577921 -223.987977 
L 348.85642 -223.31717 
L 350.134919 -222.563527 
L 350.134919 -206.080223 
L 350.134919 -206.080223 
L 348.85642 -205.32658 
L 347.577921 -204.655773 
L 346.299422 -204.080525 
L 345.020922 -203.60558 
L 343.742423 -203.227682 
L 342.463924 -202.936465 
L 341.185425 -202.716038 
L 339.906925 -202.546937 
L 338.628426 -202.408123 
L 337.349927 -202.278689 
L 336.071428 -202.139093 
L 334.792929 -201.971831 
L 333.514429 -201.761622 
L 332.23593 -201.495277 
L 330.957431 -201.161467 
L 329.678932 -200.750629 
L 328.400432 -200.255145 
L 327.121933 -199.669879 
L 325.843434 -198.993009 
L 324.564935 -198.227011 
L 323.286435 -197.379585 
L 322.007936 -196.464271 
L 320.729437 -195.500558 
L 319.450938 -194.513329 
L 318.172438 -193.53163 
L 316.893939 -192.586811 
L 315.61544 -191.710262 
L 314.336941 -190.93099 
L 313.058442 -190.273358 
L 311.779942 -189.755272 
L 310.501443 -189.387049 
L 309.222944 -189.171093 
L 307.944445 -189.102375 
L 306.665945 -189.169618 
L 305.387446 -189.356965 
L 304.108947 -189.645891 
L 302.830448 -190.017076 
L 301.551948 -190.452042 
L 300.273449 -190.934399 
L 298.99495 -191.450637 
L 297.716451 -191.990493 
L 296.437951 -192.546954 
L 295.159452 -193.116005 
L 293.880953 -193.69621 
L 292.602454 -194.288193 
L 291.323955 -194.89407 
L 290.045455 -195.516829 
L 288.766956 -196.15969 
L 287.488457 -196.825443 
L 286.209958 -197.51582 
L 284.931458 -198.230953 
L 283.652959 -198.968999 
L 282.37446 -199.72599 
L 281.095961 -200.495956 
L 279.817461 -201.271321 
L 278.538962 -202.04351 
L 277.260463 -202.803703 
L 275.981964 -203.543599 
L 274.703465 -204.256094 
L 273.424965 -204.935761 
L 272.146466 -205.57909 
L 270.867967 -206.184468 
L 269.589468 -206.751927 
L 268.310968 -207.282734 
L 267.032469 -207.778913 
L 265.75397 -208.242762 
L 264.475471 -208.676469 
L 263.196971 -209.081841 
L 261.918472 -209.460184 
L 260.639973 -209.812322 
L 259.361474 -210.138717 
L 258.082974 -210.439661 
L 256.804475 -210.715499 
L 255.525976 -210.966837 
L 254.247477 -211.194712 
L 252.968978 -211.400695 
L 251.690478 -211.586921 
L 250.411979 -211.756026 
L 249.13348 -211.911004 
L 247.854981 -212.054989 
L 246.576481 -212.190996 
L 245.297982 -212.321636 
L 244.019483 -212.448864 
L 242.740984 -212.573792 
L 241.462484 -212.696613 
L 240.183985 -212.81664 
L 238.905486 -212.932483 
L 237.626987 -213.042334 
L 236.348487 -213.144316 
L 235.069988 -213.236844 
L 233.791489 -213.31894 
L 232.51299 -213.390446 
L 231.234491 -213.452095 
L 229.955991 -213.505446 
L 228.677492 -213.55267 
L 227.398993 -213.596251 
L 226.120494 -213.638645 
L 224.841994 -213.681954 
L 223.563495 -213.727669 
z
" id="m4e333e7f0b" style="stroke:#575757;"/>
    </defs>
    <g clip-path="url(#p580e444251)">
     <use style="fill:#7c78ab;stroke:#575757;" x="0" xlink:href="#m4e333e7f0b" y="319.018203"/>
    </g>
   </g>
   <g id="PolyCollection_2">
    <defs>
     <path d="M 208.114001 -151.053983 
L 208.114001 -151.492267 
L 209.545817 -151.510566 
L 210.977632 -151.525626 
L 212.409447 -151.537717 
L 213.841262 -151.54751 
L 215.273078 -151.55598 
L 216.704893 -151.56427 
L 218.136708 -151.573536 
L 219.568524 -151.584785 
L 221.000339 -151.598726 
L 222.432154 -151.615681 
L 223.863969 -151.635609 
L 225.295785 -151.658281 
L 226.7276 -151.68362 
L 228.159415 -151.712165 
L 229.591231 -151.745542 
L 231.023046 -151.78684 
L 232.454861 -151.840723 
L 233.886676 -151.913202 
L 235.318492 -152.011026 
L 236.750307 -152.140746 
L 238.182122 -152.307601 
L 239.613937 -152.514407 
L 241.045753 -152.760726 
L 242.477568 -153.042504 
L 243.909383 -153.352379 
L 245.341199 -153.680673 
L 246.773014 -154.016989 
L 248.204829 -154.352144 
L 249.636644 -154.680092 
L 251.06846 -154.999444 
L 252.500275 -155.314239 
L 253.93209 -155.633765 
L 255.363906 -155.971362 
L 256.795721 -156.34236 
L 258.227536 -156.761454 
L 259.659351 -157.239937 
L 261.091167 -157.783303 
L 262.522982 -158.389678 
L 263.954797 -159.049477 
L 265.386612 -159.746459 
L 266.818428 -160.46012 
L 268.250243 -161.169074 
L 269.682058 -161.85484 
L 271.113874 -162.505313 
L 272.545689 -163.117184 
L 273.977504 -163.69675 
L 275.409319 -164.258862 
L 276.841135 -164.824146 
L 278.27295 -165.415027 
L 279.704765 -166.051362 
L 281.136581 -166.746569 
L 282.568396 -167.50501 
L 284.000211 -168.321067 
L 285.432026 -169.179958 
L 286.863842 -170.060007 
L 288.295657 -170.935823 
L 289.727472 -171.781818 
L 291.159288 -172.57547 
L 292.591103 -173.29986 
L 294.022918 -173.945107 
L 295.454733 -174.508456 
L 296.886549 -174.992968 
L 298.318364 -175.405051 
L 299.750179 -175.751381 
L 301.181994 -176.036005 
L 302.61381 -176.258453 
L 304.045625 -176.413489 
L 305.47744 -176.492625 
L 306.909256 -176.486971 
L 308.341071 -176.390519 
L 309.772886 -176.202775 
L 311.204701 -175.929862 
L 312.636517 -175.583738 
L 314.068332 -175.179829 
L 315.500147 -174.733925 
L 316.931963 -174.259394 
L 318.363778 -173.765617 
L 319.795593 -173.258028 
L 321.227408 -172.739556 
L 322.659224 -172.212741 
L 324.091039 -171.681621 
L 325.522854 -171.152661 
L 326.954669 -170.634379 
L 328.386485 -170.135889 
L 329.8183 -169.664892 
L 331.250115 -169.225787 
L 332.681931 -168.818387 
L 334.113746 -168.43738 
L 335.545561 -168.072343 
L 336.977376 -167.707977 
L 338.409192 -167.324377 
L 339.841007 -166.897435 
L 341.272822 -166.399843 
L 342.704638 -165.803255 
L 344.136453 -165.081917 
L 345.568268 -164.217521 
L 347.000083 -163.204321 
L 348.431899 -162.053102 
L 349.863714 -160.792556 
L 349.863714 -141.753694 
L 349.863714 -141.753694 
L 348.431899 -140.493148 
L 347.000083 -139.341929 
L 345.568268 -138.328729 
L 344.136453 -137.464333 
L 342.704638 -136.742995 
L 341.272822 -136.146407 
L 339.841007 -135.648815 
L 338.409192 -135.221873 
L 336.977376 -134.838273 
L 335.545561 -134.473907 
L 334.113746 -134.10887 
L 332.681931 -133.727863 
L 331.250115 -133.320463 
L 329.8183 -132.881358 
L 328.386485 -132.410361 
L 326.954669 -131.911871 
L 325.522854 -131.393589 
L 324.091039 -130.864629 
L 322.659224 -130.333509 
L 321.227408 -129.806694 
L 319.795593 -129.288222 
L 318.363778 -128.780633 
L 316.931963 -128.286856 
L 315.500147 -127.812325 
L 314.068332 -127.366421 
L 312.636517 -126.962512 
L 311.204701 -126.616388 
L 309.772886 -126.343475 
L 308.341071 -126.155731 
L 306.909256 -126.059279 
L 305.47744 -126.053625 
L 304.045625 -126.132761 
L 302.61381 -126.287797 
L 301.181994 -126.510245 
L 299.750179 -126.794869 
L 298.318364 -127.141199 
L 296.886549 -127.553282 
L 295.454733 -128.037794 
L 294.022918 -128.601143 
L 292.591103 -129.24639 
L 291.159288 -129.97078 
L 289.727472 -130.764432 
L 288.295657 -131.610427 
L 286.863842 -132.486243 
L 285.432026 -133.366292 
L 284.000211 -134.225183 
L 282.568396 -135.04124 
L 281.136581 -135.799681 
L 279.704765 -136.494888 
L 278.27295 -137.131223 
L 276.841135 -137.722104 
L 275.409319 -138.287388 
L 273.977504 -138.8495 
L 272.545689 -139.429066 
L 271.113874 -140.040937 
L 269.682058 -140.69141 
L 268.250243 -141.377176 
L 266.818428 -142.08613 
L 265.386612 -142.799791 
L 263.954797 -143.496773 
L 262.522982 -144.156572 
L 261.091167 -144.762947 
L 259.659351 -145.306313 
L 258.227536 -145.784796 
L 256.795721 -146.20389 
L 255.363906 -146.574888 
L 253.93209 -146.912485 
L 252.500275 -147.232011 
L 251.06846 -147.546806 
L 249.636644 -147.866158 
L 248.204829 -148.194106 
L 246.773014 -148.529261 
L 245.341199 -148.865577 
L 243.909383 -149.193871 
L 242.477568 -149.503746 
L 241.045753 -149.785524 
L 239.613937 -150.031843 
L 238.182122 -150.238649 
L 236.750307 -150.405504 
L 235.318492 -150.535224 
L 233.886676 -150.633048 
L 232.454861 -150.705527 
L 231.023046 -150.75941 
L 229.591231 -150.800708 
L 228.159415 -150.834085 
L 226.7276 -150.86263 
L 225.295785 -150.887969 
L 223.863969 -150.910641 
L 222.432154 -150.930569 
L 221.000339 -150.947524 
L 219.568524 -150.961465 
L 218.136708 -150.972714 
L 216.704893 -150.98198 
L 215.273078 -150.99027 
L 213.841262 -150.99874 
L 212.409447 -151.008533 
L 210.977632 -151.020624 
L 209.545817 -151.035684 
L 208.114001 -151.053983 
z
" id="m637d987fc8" style="stroke:#575757;"/>
    </defs>
    <g clip-path="url(#p580e444251)">
     <use style="fill:#7c78ab;stroke:#575757;" x="0" xlink:href="#m637d987fc8" y="319.018203"/>
    </g>
   </g>
   <g id="PolyCollection_3">
    <defs>
     <path d="M 263.910316 -85.543615 
L 263.910316 -90.905135 
L 264.764187 -91.203773 
L 265.618059 -91.528975 
L 266.47193 -91.881788 
L 267.325802 -92.262873 
L 268.179673 -92.672404 
L 269.033545 -93.109976 
L 269.887416 -93.574529 
L 270.741288 -94.064284 
L 271.595159 -94.576711 
L 272.449031 -95.108517 
L 273.302902 -95.655673 
L 274.156774 -96.213468 
L 275.010645 -96.776601 
L 275.864516 -97.339307 
L 276.718388 -97.895514 
L 277.572259 -98.43902 
L 278.426131 -98.963703 
L 279.280002 -99.463728 
L 280.133874 -99.933778 
L 280.987745 -100.36927 
L 281.841617 -100.766562 
L 282.695488 -101.123142 
L 283.54936 -101.437783 
L 284.403231 -101.71066 
L 285.257103 -101.943421 
L 286.110974 -102.139209 
L 286.964846 -102.30262 
L 287.818717 -102.43961 
L 288.672588 -102.557336 
L 289.52646 -102.663947 
L 290.380331 -102.768317 
L 291.234203 -102.879742 
L 292.088074 -103.007599 
L 292.941946 -103.160982 
L 293.795817 -103.348337 
L 294.649689 -103.577101 
L 295.50356 -103.853365 
L 296.357432 -104.181575 
L 297.211303 -104.564292 
L 298.065175 -105.002005 
L 298.919046 -105.493039 
L 299.772918 -106.033526 
L 300.626789 -106.617483 
L 301.48066 -107.236959 
L 302.334532 -107.882277 
L 303.188403 -108.542347 
L 304.042275 -109.205041 
L 304.896146 -109.857611 
L 305.750018 -110.487145 
L 306.603889 -111.081023 
L 307.457761 -111.627368 
L 308.311632 -112.115462 
L 309.165504 -112.536113 
L 310.019375 -112.881956 
L 310.873247 -113.147676 
L 311.727118 -113.330141 
L 312.580989 -113.428448 
L 313.434861 -113.443875 
L 314.288732 -113.379754 
L 315.142604 -113.241263 
L 315.996475 -113.03516 
L 316.850347 -112.769473 
L 317.704218 -112.453156 
L 318.55809 -112.095734 
L 319.411961 -111.706954 
L 320.265833 -111.296451 
L 321.119704 -110.873445 
L 321.973576 -110.446476 
L 322.827447 -110.023184 
L 323.681319 -109.610139 
L 324.53519 -109.212708 
L 325.389061 -108.834985 
L 326.242933 -108.479743 
L 327.096804 -108.148444 
L 327.950676 -107.84126 
L 328.804547 -107.557145 
L 329.658419 -107.293912 
L 330.51229 -107.048346 
L 331.366162 -106.816329 
L 332.220033 -106.592984 
L 333.073905 -106.372837 
L 333.927776 -106.149994 
L 334.781648 -105.918327 
L 335.635519 -105.671677 
L 336.489391 -105.404054 
L 337.343262 -105.109848 
L 338.197133 -104.784027 
L 339.051005 -104.422323 
L 339.904876 -104.021406 
L 340.758748 -103.579017 
L 341.612619 -103.094074 
L 342.466491 -102.56674 
L 343.320362 -101.998438 
L 344.174234 -101.391822 
L 345.028105 -100.750705 
L 345.881977 -100.079935 
L 346.735848 -99.385245 
L 347.58972 -98.673055 
L 348.443591 -97.950267 
L 348.443591 -78.498483 
L 348.443591 -78.498483 
L 347.58972 -77.775695 
L 346.735848 -77.063505 
L 345.881977 -76.368815 
L 345.028105 -75.698045 
L 344.174234 -75.056928 
L 343.320362 -74.450312 
L 342.466491 -73.88201 
L 341.612619 -73.354676 
L 340.758748 -72.869733 
L 339.904876 -72.427344 
L 339.051005 -72.026427 
L 338.197133 -71.664723 
L 337.343262 -71.338902 
L 336.489391 -71.044696 
L 335.635519 -70.777073 
L 334.781648 -70.530423 
L 333.927776 -70.298756 
L 333.073905 -70.075913 
L 332.220033 -69.855766 
L 331.366162 -69.632421 
L 330.51229 -69.400404 
L 329.658419 -69.154838 
L 328.804547 -68.891605 
L 327.950676 -68.60749 
L 327.096804 -68.300306 
L 326.242933 -67.969007 
L 325.389061 -67.613765 
L 324.53519 -67.236042 
L 323.681319 -66.838611 
L 322.827447 -66.425566 
L 321.973576 -66.002274 
L 321.119704 -65.575305 
L 320.265833 -65.152299 
L 319.411961 -64.741796 
L 318.55809 -64.353016 
L 317.704218 -63.995594 
L 316.850347 -63.679277 
L 315.996475 -63.41359 
L 315.142604 -63.207487 
L 314.288732 -63.068996 
L 313.434861 -63.004875 
L 312.580989 -63.020302 
L 311.727118 -63.118609 
L 310.873247 -63.301074 
L 310.019375 -63.566794 
L 309.165504 -63.912637 
L 308.311632 -64.333288 
L 307.457761 -64.821382 
L 306.603889 -65.367727 
L 305.750018 -65.961605 
L 304.896146 -66.591139 
L 304.042275 -67.243709 
L 303.188403 -67.906403 
L 302.334532 -68.566473 
L 301.48066 -69.211791 
L 300.626789 -69.831267 
L 299.772918 -70.415224 
L 298.919046 -70.955711 
L 298.065175 -71.446745 
L 297.211303 -71.884458 
L 296.357432 -72.267175 
L 295.50356 -72.595385 
L 294.649689 -72.871649 
L 293.795817 -73.100413 
L 292.941946 -73.287768 
L 292.088074 -73.441151 
L 291.234203 -73.569008 
L 290.380331 -73.680433 
L 289.52646 -73.784803 
L 288.672588 -73.891414 
L 287.818717 -74.00914 
L 286.964846 -74.14613 
L 286.110974 -74.309541 
L 285.257103 -74.505329 
L 284.403231 -74.73809 
L 283.54936 -75.010967 
L 282.695488 -75.325608 
L 281.841617 -75.682188 
L 280.987745 -76.07948 
L 280.133874 -76.514972 
L 279.280002 -76.985022 
L 278.426131 -77.485047 
L 277.572259 -78.00973 
L 276.718388 -78.553236 
L 275.864516 -79.109443 
L 275.010645 -79.672149 
L 274.156774 -80.235282 
L 273.302902 -80.793077 
L 272.449031 -81.340233 
L 271.595159 -81.872039 
L 270.741288 -82.384466 
L 269.887416 -82.874221 
L 269.033545 -83.338774 
L 268.179673 -83.776346 
L 267.325802 -84.185877 
L 266.47193 -84.566962 
L 265.618059 -84.919775 
L 264.764187 -85.244977 
L 263.910316 -85.543615 
z
" id="mc5fae0dd78" style="stroke:#575757;"/>
    </defs>
    <g clip-path="url(#p580e444251)">
     <use style="fill:#7c78ab;stroke:#575757;" x="0" xlink:href="#mc5fae0dd78" y="319.018203"/>
    </g>
   </g>
   <g id="patch_46">
    <path clip-path="url(#p580e444251)" d="M 117.513 41.647578 
L 117.513 41.647578 
L 117.513 41.647578 
L 117.513 41.647578 
z
" style="fill:#7c78ab;stroke:#575757;stroke-linejoin:miter;stroke-width:0.5;"/>
   </g>
   <g id="matplotlib.axis_3">
    <g id="xtick_5">
     <g id="line2d_11">
      <g>
       <use style="stroke:#000000;stroke-width:1.6;" x="117.513" xlink:href="#mcd1e838929" y="262.318203"/>
      </g>
     </g>
     <g id="text_13">
      <!-- 0.0 -->
      <g transform="translate(101.609875 292.215078)scale(0.2 -0.2)">
       <use xlink:href="#DejaVuSans-48"/>
       <use x="63.623047" xlink:href="#DejaVuSans-46"/>
       <use x="95.410156" xlink:href="#DejaVuSans-48"/>
      </g>
     </g>
    </g>
    <g id="xtick_6">
     <g id="line2d_12">
      <g>
       <use style="stroke:#000000;stroke-width:1.6;" x="184.765" xlink:href="#mcd1e838929" y="262.318203"/>
      </g>
     </g>
     <g id="text_14">
      <!-- 0.2 -->
      <g transform="translate(168.861875 292.215078)scale(0.2 -0.2)">
       <use xlink:href="#DejaVuSans-48"/>
       <use x="63.623047" xlink:href="#DejaVuSans-46"/>
       <use x="95.410156" xlink:href="#DejaVuSans-50"/>
      </g>
     </g>
    </g>
    <g id="xtick_7">
     <g id="line2d_13">
      <g>
       <use style="stroke:#000000;stroke-width:1.6;" x="252.017" xlink:href="#mcd1e838929" y="262.318203"/>
      </g>
     </g>
     <g id="text_15">
      <!-- 0.4 -->
      <g transform="translate(236.113875 292.215078)scale(0.2 -0.2)">
       <use xlink:href="#DejaVuSans-48"/>
       <use x="63.623047" xlink:href="#DejaVuSans-46"/>
       <use x="95.410156" xlink:href="#DejaVuSans-52"/>
      </g>
     </g>
    </g>
    <g id="xtick_8">
     <g id="line2d_14">
      <g>
       <use style="stroke:#000000;stroke-width:1.6;" x="319.269" xlink:href="#mcd1e838929" y="262.318203"/>
      </g>
     </g>
     <g id="text_16">
      <!-- 0.6 -->
      <g transform="translate(303.365875 292.215078)scale(0.2 -0.2)">
       <use xlink:href="#DejaVuSans-48"/>
       <use x="63.623047" xlink:href="#DejaVuSans-46"/>
       <use x="95.410156" xlink:href="#DejaVuSans-54"/>
      </g>
     </g>
    </g>
    <g id="text_17">
     <!-- Max Attention -->
     <defs>
      <path d="M 9.8125 72.90625 
L 24.515625 72.90625 
L 43.109375 23.296875 
L 61.8125 72.90625 
L 76.515625 72.90625 
L 76.515625 0 
L 66.890625 0 
L 66.890625 64.015625 
L 48.09375 14.015625 
L 38.1875 14.015625 
L 19.390625 64.015625 
L 19.390625 0 
L 9.8125 0 
z
" id="DejaVuSans-77"/>
      <path d="M 34.28125 27.484375 
Q 23.390625 27.484375 19.1875 25 
Q 14.984375 22.515625 14.984375 16.5 
Q 14.984375 11.71875 18.140625 8.90625 
Q 21.296875 6.109375 26.703125 6.109375 
Q 34.1875 6.109375 38.703125 11.40625 
Q 43.21875 16.703125 43.21875 25.484375 
L 43.21875 27.484375 
z
M 52.203125 31.203125 
L 52.203125 0 
L 43.21875 0 
L 43.21875 8.296875 
Q 40.140625 3.328125 35.546875 0.953125 
Q 30.953125 -1.421875 24.3125 -1.421875 
Q 15.921875 -1.421875 10.953125 3.296875 
Q 6 8.015625 6 15.921875 
Q 6 25.140625 12.171875 29.828125 
Q 18.359375 34.515625 30.609375 34.515625 
L 43.21875 34.515625 
L 43.21875 35.40625 
Q 43.21875 41.609375 39.140625 45 
Q 35.0625 48.390625 27.6875 48.390625 
Q 23 48.390625 18.546875 47.265625 
Q 14.109375 46.140625 10.015625 43.890625 
L 10.015625 52.203125 
Q 14.9375 54.109375 19.578125 55.046875 
Q 24.21875 56 28.609375 56 
Q 40.484375 56 46.34375 49.84375 
Q 52.203125 43.703125 52.203125 31.203125 
z
" id="DejaVuSans-97"/>
      <path d="M 54.890625 54.6875 
L 35.109375 28.078125 
L 55.90625 0 
L 45.3125 0 
L 29.390625 21.484375 
L 13.484375 0 
L 2.875 0 
L 24.125 28.609375 
L 4.6875 54.6875 
L 15.28125 54.6875 
L 29.78125 35.203125 
L 44.28125 54.6875 
z
" id="DejaVuSans-120"/>
      <path d="M 34.1875 63.1875 
L 20.796875 26.90625 
L 47.609375 26.90625 
z
M 28.609375 72.90625 
L 39.796875 72.90625 
L 67.578125 0 
L 57.328125 0 
L 50.6875 18.703125 
L 17.828125 18.703125 
L 11.1875 0 
L 0.78125 0 
z
" id="DejaVuSans-65"/>
      <path d="M 18.3125 70.21875 
L 18.3125 54.6875 
L 36.8125 54.6875 
L 36.8125 47.703125 
L 18.3125 47.703125 
L 18.3125 18.015625 
Q 18.3125 11.328125 20.140625 9.421875 
Q 21.96875 7.515625 27.59375 7.515625 
L 36.8125 7.515625 
L 36.8125 0 
L 27.59375 0 
Q 17.1875 0 13.234375 3.875 
Q 9.28125 7.765625 9.28125 18.015625 
L 9.28125 47.703125 
L 2.6875 47.703125 
L 2.6875 54.6875 
L 9.28125 54.6875 
L 9.28125 70.21875 
z
" id="DejaVuSans-116"/>
      <path d="M 56.203125 29.59375 
L 56.203125 25.203125 
L 14.890625 25.203125 
Q 15.484375 15.921875 20.484375 11.0625 
Q 25.484375 6.203125 34.421875 6.203125 
Q 39.59375 6.203125 44.453125 7.46875 
Q 49.3125 8.734375 54.109375 11.28125 
L 54.109375 2.78125 
Q 49.265625 0.734375 44.1875 -0.34375 
Q 39.109375 -1.421875 33.890625 -1.421875 
Q 20.796875 -1.421875 13.15625 6.1875 
Q 5.515625 13.8125 5.515625 26.8125 
Q 5.515625 40.234375 12.765625 48.109375 
Q 20.015625 56 32.328125 56 
Q 43.359375 56 49.78125 48.890625 
Q 56.203125 41.796875 56.203125 29.59375 
z
M 47.21875 32.234375 
Q 47.125 39.59375 43.09375 43.984375 
Q 39.0625 48.390625 32.421875 48.390625 
Q 24.90625 48.390625 20.390625 44.140625 
Q 15.875 39.890625 15.1875 32.171875 
z
" id="DejaVuSans-101"/>
      <path d="M 54.890625 33.015625 
L 54.890625 0 
L 45.90625 0 
L 45.90625 32.71875 
Q 45.90625 40.484375 42.875 44.328125 
Q 39.84375 48.1875 33.796875 48.1875 
Q 26.515625 48.1875 22.3125 43.546875 
Q 18.109375 38.921875 18.109375 30.90625 
L 18.109375 0 
L 9.078125 0 
L 9.078125 54.6875 
L 18.109375 54.6875 
L 18.109375 46.1875 
Q 21.34375 51.125 25.703125 53.5625 
Q 30.078125 56 35.796875 56 
Q 45.21875 56 50.046875 50.171875 
Q 54.890625 44.34375 54.890625 33.015625 
z
" id="DejaVuSans-110"/>
      <path d="M 9.421875 54.6875 
L 18.40625 54.6875 
L 18.40625 0 
L 9.421875 0 
z
M 9.421875 75.984375 
L 18.40625 75.984375 
L 18.40625 64.59375 
L 9.421875 64.59375 
z
" id="DejaVuSans-105"/>
      <path d="M 30.609375 48.390625 
Q 23.390625 48.390625 19.1875 42.75 
Q 14.984375 37.109375 14.984375 27.296875 
Q 14.984375 17.484375 19.15625 11.84375 
Q 23.34375 6.203125 30.609375 6.203125 
Q 37.796875 6.203125 41.984375 11.859375 
Q 46.1875 17.53125 46.1875 27.296875 
Q 46.1875 37.015625 41.984375 42.703125 
Q 37.796875 48.390625 30.609375 48.390625 
z
M 30.609375 56 
Q 42.328125 56 49.015625 48.375 
Q 55.71875 40.765625 55.71875 27.296875 
Q 55.71875 13.875 49.015625 6.21875 
Q 42.328125 -1.421875 30.609375 -1.421875 
Q 18.84375 -1.421875 12.171875 6.21875 
Q 5.515625 13.875 5.515625 27.296875 
Q 5.515625 40.765625 12.171875 48.375 
Q 18.84375 56 30.609375 56 
z
" id="DejaVuSans-111"/>
     </defs>
     <g transform="translate(156.619375 315.571328)scale(0.2 -0.2)">
      <use xlink:href="#DejaVuSans-77"/>
      <use x="86.279297" xlink:href="#DejaVuSans-97"/>
      <use x="147.558594" xlink:href="#DejaVuSans-120"/>
      <use x="206.738281" xlink:href="#DejaVuSans-32"/>
      <use x="238.525391" xlink:href="#DejaVuSans-65"/>
      <use x="306.917969" xlink:href="#DejaVuSans-116"/>
      <use x="346.126953" xlink:href="#DejaVuSans-116"/>
      <use x="385.335938" xlink:href="#DejaVuSans-101"/>
      <use x="446.859375" xlink:href="#DejaVuSans-110"/>
      <use x="510.238281" xlink:href="#DejaVuSans-116"/>
      <use x="549.447266" xlink:href="#DejaVuSans-105"/>
      <use x="577.230469" xlink:href="#DejaVuSans-111"/>
      <use x="638.412109" xlink:href="#DejaVuSans-110"/>
     </g>
    </g>
   </g>
   <g id="matplotlib.axis_4">
    <g id="ytick_7">
     <g id="line2d_15">
      <g>
       <use style="stroke:#000000;stroke-width:1.6;" x="100.7" xlink:href="#m3ecec8c3a2" y="41.647578"/>
      </g>
     </g>
     <g id="text_18">
      <!-- [0.00, -->
      <defs>
       <path d="M 8.59375 75.984375 
L 29.296875 75.984375 
L 29.296875 69 
L 17.578125 69 
L 17.578125 -6.203125 
L 29.296875 -6.203125 
L 29.296875 -13.1875 
L 8.59375 -13.1875 
z
" id="DejaVuSans-91"/>
       <path d="M 11.71875 12.40625 
L 22.015625 12.40625 
L 22.015625 4 
L 14.015625 -11.625 
L 7.71875 -11.625 
L 11.71875 4 
z
" id="DejaVuSans-44"/>
      </defs>
      <g transform="translate(27.309375 38.048203)scale(0.2 -0.2)">
       <use xlink:href="#DejaVuSans-91"/>
       <use x="39.013672" xlink:href="#DejaVuSans-48"/>
       <use x="102.636719" xlink:href="#DejaVuSans-46"/>
       <use x="134.423828" xlink:href="#DejaVuSans-48"/>
       <use x="198.046875" xlink:href="#DejaVuSans-48"/>
       <use x="261.669922" xlink:href="#DejaVuSans-44"/>
      </g>
      <!-- 0.25) -->
      <defs>
       <path d="M 10.796875 72.90625 
L 49.515625 72.90625 
L 49.515625 64.59375 
L 19.828125 64.59375 
L 19.828125 46.734375 
Q 21.96875 47.46875 24.109375 47.828125 
Q 26.265625 48.1875 28.421875 48.1875 
Q 40.625 48.1875 47.75 41.5 
Q 54.890625 34.8125 54.890625 23.390625 
Q 54.890625 11.625 47.5625 5.09375 
Q 40.234375 -1.421875 26.90625 -1.421875 
Q 22.3125 -1.421875 17.546875 -0.640625 
Q 12.796875 0.140625 7.71875 1.703125 
L 7.71875 11.625 
Q 12.109375 9.234375 16.796875 8.0625 
Q 21.484375 6.890625 26.703125 6.890625 
Q 35.15625 6.890625 40.078125 11.328125 
Q 45.015625 15.765625 45.015625 23.390625 
Q 45.015625 31 40.078125 35.4375 
Q 35.15625 39.890625 26.703125 39.890625 
Q 22.75 39.890625 18.8125 39.015625 
Q 14.890625 38.140625 10.796875 36.28125 
z
" id="DejaVuSans-53"/>
       <path d="M 8.015625 75.875 
L 15.828125 75.875 
Q 23.140625 64.359375 26.78125 53.3125 
Q 30.421875 42.28125 30.421875 31.390625 
Q 30.421875 20.453125 26.78125 9.375 
Q 23.140625 -1.703125 15.828125 -13.1875 
L 8.015625 -13.1875 
Q 14.5 -2 17.703125 9.0625 
Q 20.90625 20.125 20.90625 31.390625 
Q 20.90625 42.671875 17.703125 53.65625 
Q 14.5 64.65625 8.015625 75.875 
z
" id="DejaVuSans-41"/>
      </defs>
      <g transform="translate(33.665625 60.443828)scale(0.2 -0.2)">
       <use xlink:href="#DejaVuSans-48"/>
       <use x="63.623047" xlink:href="#DejaVuSans-46"/>
       <use x="95.410156" xlink:href="#DejaVuSans-50"/>
       <use x="159.033203" xlink:href="#DejaVuSans-53"/>
       <use x="222.65625" xlink:href="#DejaVuSans-41"/>
      </g>
     </g>
    </g>
    <g id="ytick_8">
     <g id="line2d_16">
      <g>
       <use style="stroke:#000000;stroke-width:1.6;" x="100.7" xlink:href="#m3ecec8c3a2" y="104.696328"/>
      </g>
     </g>
     <g id="text_19">
      <!-- [0.25, -->
      <g transform="translate(27.309375 101.096953)scale(0.2 -0.2)">
       <use xlink:href="#DejaVuSans-91"/>
       <use x="39.013672" xlink:href="#DejaVuSans-48"/>
       <use x="102.636719" xlink:href="#DejaVuSans-46"/>
       <use x="134.423828" xlink:href="#DejaVuSans-50"/>
       <use x="198.046875" xlink:href="#DejaVuSans-53"/>
       <use x="261.669922" xlink:href="#DejaVuSans-44"/>
      </g>
      <!-- 0.50) -->
      <g transform="translate(33.665625 123.492578)scale(0.2 -0.2)">
       <use xlink:href="#DejaVuSans-48"/>
       <use x="63.623047" xlink:href="#DejaVuSans-46"/>
       <use x="95.410156" xlink:href="#DejaVuSans-53"/>
       <use x="159.033203" xlink:href="#DejaVuSans-48"/>
       <use x="222.65625" xlink:href="#DejaVuSans-41"/>
      </g>
     </g>
    </g>
    <g id="ytick_9">
     <g id="line2d_17">
      <g>
       <use style="stroke:#000000;stroke-width:1.6;" x="100.7" xlink:href="#m3ecec8c3a2" y="167.745078"/>
      </g>
     </g>
     <g id="text_20">
      <!-- [0.50, -->
      <g transform="translate(27.309375 164.145703)scale(0.2 -0.2)">
       <use xlink:href="#DejaVuSans-91"/>
       <use x="39.013672" xlink:href="#DejaVuSans-48"/>
       <use x="102.636719" xlink:href="#DejaVuSans-46"/>
       <use x="134.423828" xlink:href="#DejaVuSans-53"/>
       <use x="198.046875" xlink:href="#DejaVuSans-48"/>
       <use x="261.669922" xlink:href="#DejaVuSans-44"/>
      </g>
      <!-- 0.75) -->
      <defs>
       <path d="M 8.203125 72.90625 
L 55.078125 72.90625 
L 55.078125 68.703125 
L 28.609375 0 
L 18.3125 0 
L 43.21875 64.59375 
L 8.203125 64.59375 
z
" id="DejaVuSans-55"/>
      </defs>
      <g transform="translate(33.665625 186.541328)scale(0.2 -0.2)">
       <use xlink:href="#DejaVuSans-48"/>
       <use x="63.623047" xlink:href="#DejaVuSans-46"/>
       <use x="95.410156" xlink:href="#DejaVuSans-55"/>
       <use x="159.033203" xlink:href="#DejaVuSans-53"/>
       <use x="222.65625" xlink:href="#DejaVuSans-41"/>
      </g>
     </g>
    </g>
    <g id="ytick_10">
     <g id="line2d_18">
      <g>
       <use style="stroke:#000000;stroke-width:1.6;" x="100.7" xlink:href="#m3ecec8c3a2" y="230.793828"/>
      </g>
     </g>
     <g id="text_21">
      <!-- [0.75, -->
      <g transform="translate(27.309375 227.194453)scale(0.2 -0.2)">
       <use xlink:href="#DejaVuSans-91"/>
       <use x="39.013672" xlink:href="#DejaVuSans-48"/>
       <use x="102.636719" xlink:href="#DejaVuSans-46"/>
       <use x="134.423828" xlink:href="#DejaVuSans-55"/>
       <use x="198.046875" xlink:href="#DejaVuSans-53"/>
       <use x="261.669922" xlink:href="#DejaVuSans-44"/>
      </g>
      <!-- 1.00) -->
      <g transform="translate(33.665625 249.590078)scale(0.2 -0.2)">
       <use xlink:href="#DejaVuSans-49"/>
       <use x="63.623047" xlink:href="#DejaVuSans-46"/>
       <use x="95.410156" xlink:href="#DejaVuSans-48"/>
       <use x="159.033203" xlink:href="#DejaVuSans-48"/>
       <use x="222.65625" xlink:href="#DejaVuSans-41"/>
      </g>
     </g>
    </g>
    <g id="text_22">
     <!-- Max JS Divergence within $\epsilon$ -->
     <defs>
      <path d="M 9.8125 72.90625 
L 19.671875 72.90625 
L 19.671875 5.078125 
Q 19.671875 -8.109375 14.671875 -14.0625 
Q 9.671875 -20.015625 -1.421875 -20.015625 
L -5.171875 -20.015625 
L -5.171875 -11.71875 
L -2.09375 -11.71875 
Q 4.4375 -11.71875 7.125 -8.046875 
Q 9.8125 -4.390625 9.8125 5.078125 
z
" id="DejaVuSans-74"/>
      <path d="M 53.515625 70.515625 
L 53.515625 60.890625 
Q 47.90625 63.578125 42.921875 64.890625 
Q 37.9375 66.21875 33.296875 66.21875 
Q 25.25 66.21875 20.875 63.09375 
Q 16.5 59.96875 16.5 54.203125 
Q 16.5 49.359375 19.40625 46.890625 
Q 22.3125 44.4375 30.421875 42.921875 
L 36.375 41.703125 
Q 47.40625 39.59375 52.65625 34.296875 
Q 57.90625 29 57.90625 20.125 
Q 57.90625 9.515625 50.796875 4.046875 
Q 43.703125 -1.421875 29.984375 -1.421875 
Q 24.8125 -1.421875 18.96875 -0.25 
Q 13.140625 0.921875 6.890625 3.21875 
L 6.890625 13.375 
Q 12.890625 10.015625 18.65625 8.296875 
Q 24.421875 6.59375 29.984375 6.59375 
Q 38.421875 6.59375 43.015625 9.90625 
Q 47.609375 13.234375 47.609375 19.390625 
Q 47.609375 24.75 44.3125 27.78125 
Q 41.015625 30.8125 33.5 32.328125 
L 27.484375 33.5 
Q 16.453125 35.6875 11.515625 40.375 
Q 6.59375 45.0625 6.59375 53.421875 
Q 6.59375 63.09375 13.40625 68.65625 
Q 20.21875 74.21875 32.171875 74.21875 
Q 37.3125 74.21875 42.625 73.28125 
Q 47.953125 72.359375 53.515625 70.515625 
z
" id="DejaVuSans-83"/>
      <path d="M 19.671875 64.796875 
L 19.671875 8.109375 
L 31.59375 8.109375 
Q 46.6875 8.109375 53.6875 14.9375 
Q 60.6875 21.78125 60.6875 36.53125 
Q 60.6875 51.171875 53.6875 57.984375 
Q 46.6875 64.796875 31.59375 64.796875 
z
M 9.8125 72.90625 
L 30.078125 72.90625 
Q 51.265625 72.90625 61.171875 64.09375 
Q 71.09375 55.28125 71.09375 36.53125 
Q 71.09375 17.671875 61.125 8.828125 
Q 51.171875 0 30.078125 0 
L 9.8125 0 
z
" id="DejaVuSans-68"/>
      <path d="M 2.984375 54.6875 
L 12.5 54.6875 
L 29.59375 8.796875 
L 46.6875 54.6875 
L 56.203125 54.6875 
L 35.6875 0 
L 23.484375 0 
z
" id="DejaVuSans-118"/>
      <path d="M 41.109375 46.296875 
Q 39.59375 47.171875 37.8125 47.578125 
Q 36.03125 48 33.890625 48 
Q 26.265625 48 22.1875 43.046875 
Q 18.109375 38.09375 18.109375 28.8125 
L 18.109375 0 
L 9.078125 0 
L 9.078125 54.6875 
L 18.109375 54.6875 
L 18.109375 46.1875 
Q 20.953125 51.171875 25.484375 53.578125 
Q 30.03125 56 36.53125 56 
Q 37.453125 56 38.578125 55.875 
Q 39.703125 55.765625 41.0625 55.515625 
z
" id="DejaVuSans-114"/>
      <path d="M 45.40625 27.984375 
Q 45.40625 37.75 41.375 43.109375 
Q 37.359375 48.484375 30.078125 48.484375 
Q 22.859375 48.484375 18.828125 43.109375 
Q 14.796875 37.75 14.796875 27.984375 
Q 14.796875 18.265625 18.828125 12.890625 
Q 22.859375 7.515625 30.078125 7.515625 
Q 37.359375 7.515625 41.375 12.890625 
Q 45.40625 18.265625 45.40625 27.984375 
z
M 54.390625 6.78125 
Q 54.390625 -7.171875 48.1875 -13.984375 
Q 42 -20.796875 29.203125 -20.796875 
Q 24.46875 -20.796875 20.265625 -20.09375 
Q 16.0625 -19.390625 12.109375 -17.921875 
L 12.109375 -9.1875 
Q 16.0625 -11.328125 19.921875 -12.34375 
Q 23.78125 -13.375 27.78125 -13.375 
Q 36.625 -13.375 41.015625 -8.765625 
Q 45.40625 -4.15625 45.40625 5.171875 
L 45.40625 9.625 
Q 42.625 4.78125 38.28125 2.390625 
Q 33.9375 0 27.875 0 
Q 17.828125 0 11.671875 7.65625 
Q 5.515625 15.328125 5.515625 27.984375 
Q 5.515625 40.671875 11.671875 48.328125 
Q 17.828125 56 27.875 56 
Q 33.9375 56 38.28125 53.609375 
Q 42.625 51.21875 45.40625 46.390625 
L 45.40625 54.6875 
L 54.390625 54.6875 
z
" id="DejaVuSans-103"/>
      <path d="M 48.78125 52.59375 
L 48.78125 44.1875 
Q 44.96875 46.296875 41.140625 47.34375 
Q 37.3125 48.390625 33.40625 48.390625 
Q 24.65625 48.390625 19.8125 42.84375 
Q 14.984375 37.3125 14.984375 27.296875 
Q 14.984375 17.28125 19.8125 11.734375 
Q 24.65625 6.203125 33.40625 6.203125 
Q 37.3125 6.203125 41.140625 7.25 
Q 44.96875 8.296875 48.78125 10.40625 
L 48.78125 2.09375 
Q 45.015625 0.34375 40.984375 -0.53125 
Q 36.96875 -1.421875 32.421875 -1.421875 
Q 20.0625 -1.421875 12.78125 6.34375 
Q 5.515625 14.109375 5.515625 27.296875 
Q 5.515625 40.671875 12.859375 48.328125 
Q 20.21875 56 33.015625 56 
Q 37.15625 56 41.109375 55.140625 
Q 45.0625 54.296875 48.78125 52.59375 
z
" id="DejaVuSans-99"/>
      <path d="M 4.203125 54.6875 
L 13.1875 54.6875 
L 24.421875 12.015625 
L 35.59375 54.6875 
L 46.1875 54.6875 
L 57.421875 12.015625 
L 68.609375 54.6875 
L 77.59375 54.6875 
L 63.28125 0 
L 52.6875 0 
L 40.921875 44.828125 
L 29.109375 0 
L 18.5 0 
z
" id="DejaVuSans-119"/>
      <path d="M 54.890625 33.015625 
L 54.890625 0 
L 45.90625 0 
L 45.90625 32.71875 
Q 45.90625 40.484375 42.875 44.328125 
Q 39.84375 48.1875 33.796875 48.1875 
Q 26.515625 48.1875 22.3125 43.546875 
Q 18.109375 38.921875 18.109375 30.90625 
L 18.109375 0 
L 9.078125 0 
L 9.078125 75.984375 
L 18.109375 75.984375 
L 18.109375 46.1875 
Q 21.34375 51.125 25.703125 53.5625 
Q 30.078125 56 35.796875 56 
Q 45.21875 56 50.046875 50.171875 
Q 54.890625 44.34375 54.890625 33.015625 
z
" id="DejaVuSans-104"/>
      <path d="M 19.734375 29.5 
Q 14.453125 30.671875 12.15625 33.84375 
Q 10.453125 36.078125 10.453125 39.109375 
Q 10.453125 47.40625 18.359375 52.25 
Q 24.609375 56.0625 34.1875 56.0625 
Q 37.890625 56.0625 41.9375 55.46875 
Q 46 54.890625 50.53125 53.71875 
L 48.96875 45.5625 
Q 44.484375 46.96875 40.71875 47.609375 
Q 36.859375 48.25 33.40625 48.25 
Q 27.59375 48.25 23.78125 46 
Q 19.1875 43.3125 19.1875 39.40625 
Q 19.1875 36.8125 21.578125 35.015625 
Q 24.421875 32.859375 30.078125 32.859375 
L 37.640625 32.859375 
L 36.234375 25.4375 
L 29 25.4375 
Q 22.265625 25.4375 18.3125 22.953125 
Q 12.9375 19.578125 12.9375 14.3125 
Q 12.9375 10.984375 15.828125 8.796875 
Q 19.4375 6.0625 26.8125 6.0625 
Q 31.34375 6.0625 35.6875 6.9375 
Q 40.046875 7.859375 43.84375 9.671875 
L 42.1875 1.3125 
Q 37.546875 -0.046875 33.296875 -0.734375 
Q 29.046875 -1.421875 25.140625 -1.421875 
Q 13.53125 -1.421875 8.0625 3.03125 
Q 3.90625 6.453125 3.90625 12.203125 
Q 3.90625 19.96875 9.375 24.75 
Q 13.421875 28.328125 19.734375 29.5 
z
" id="DejaVuSans-Oblique-949"/>
     </defs>
     <g transform="translate(19.109375 271.820703)rotate(-90)scale(0.2 -0.2)">
      <use transform="translate(0 0.015625)" xlink:href="#DejaVuSans-77"/>
      <use transform="translate(86.279297 0.015625)" xlink:href="#DejaVuSans-97"/>
      <use transform="translate(147.558594 0.015625)" xlink:href="#DejaVuSans-120"/>
      <use transform="translate(206.738281 0.015625)" xlink:href="#DejaVuSans-32"/>
      <use transform="translate(238.525391 0.015625)" xlink:href="#DejaVuSans-74"/>
      <use transform="translate(268.017578 0.015625)" xlink:href="#DejaVuSans-83"/>
      <use transform="translate(331.494141 0.015625)" xlink:href="#DejaVuSans-32"/>
      <use transform="translate(363.28125 0.015625)" xlink:href="#DejaVuSans-68"/>
      <use transform="translate(440.283203 0.015625)" xlink:href="#DejaVuSans-105"/>
      <use transform="translate(468.066406 0.015625)" xlink:href="#DejaVuSans-118"/>
      <use transform="translate(527.246094 0.015625)" xlink:href="#DejaVuSans-101"/>
      <use transform="translate(588.769531 0.015625)" xlink:href="#DejaVuSans-114"/>
      <use transform="translate(629.882812 0.015625)" xlink:href="#DejaVuSans-103"/>
      <use transform="translate(693.359375 0.015625)" xlink:href="#DejaVuSans-101"/>
      <use transform="translate(754.882812 0.015625)" xlink:href="#DejaVuSans-110"/>
      <use transform="translate(818.261719 0.015625)" xlink:href="#DejaVuSans-99"/>
      <use transform="translate(873.242188 0.015625)" xlink:href="#DejaVuSans-101"/>
      <use transform="translate(934.765625 0.015625)" xlink:href="#DejaVuSans-32"/>
      <use transform="translate(966.552734 0.015625)" xlink:href="#DejaVuSans-119"/>
      <use transform="translate(1048.339844 0.015625)" xlink:href="#DejaVuSans-105"/>
      <use transform="translate(1076.123047 0.015625)" xlink:href="#DejaVuSans-116"/>
      <use transform="translate(1115.332031 0.015625)" xlink:href="#DejaVuSans-104"/>
      <use transform="translate(1178.710938 0.015625)" xlink:href="#DejaVuSans-105"/>
      <use transform="translate(1206.494141 0.015625)" xlink:href="#DejaVuSans-110"/>
      <use transform="translate(1269.873047 0.015625)" xlink:href="#DejaVuSans-32"/>
      <use transform="translate(1301.660156 0.015625)" xlink:href="#DejaVuSans-Oblique-949"/>
     </g>
    </g>
   </g>
   <g id="line2d_19">
    <path clip-path="url(#p580e444251)" d="M 289.377118 86.715765 
L 289.377118 122.676891 
" style="fill:none;stroke:#575757;stroke-dasharray:1.5,1.5;stroke-dashoffset:0;"/>
   </g>
   <g id="line2d_20">
    <path clip-path="url(#p580e444251)" d="M 307.136065 79.795593 
L 307.136065 129.597063 
" style="fill:none;stroke:#575757;stroke-dasharray:3,3;stroke-dashoffset:0;"/>
   </g>
   <g id="line2d_21">
    <path clip-path="url(#p580e444251)" d="M 321.900238 87.0173 
L 321.900238 122.375356 
" style="fill:none;stroke:#575757;stroke-dasharray:1.5,1.5;stroke-dashoffset:0;"/>
   </g>
   <g id="line2d_22">
    <path clip-path="url(#p580e444251)" d="M 288.865018 148.279007 
L 288.865018 187.211149 
" style="fill:none;stroke:#575757;stroke-dasharray:1.5,1.5;stroke-dashoffset:0;"/>
   </g>
   <g id="line2d_23">
    <path clip-path="url(#p580e444251)" d="M 306.81915 142.783371 
L 306.81915 192.706785 
" style="fill:none;stroke:#575757;stroke-dasharray:3,3;stroke-dashoffset:0;"/>
   </g>
   <g id="line2d_24">
    <path clip-path="url(#p580e444251)" d="M 324.87975 148.064338 
L 324.87975 187.425819 
" style="fill:none;stroke:#575757;stroke-dasharray:1.5,1.5;stroke-dashoffset:0;"/>
   </g>
   <g id="line2d_25">
    <path clip-path="url(#p580e444251)" d="M 299.948267 213.162768 
L 299.948267 248.424888 
" style="fill:none;stroke:#575757;stroke-dasharray:1.5,1.5;stroke-dashoffset:0;"/>
   </g>
   <g id="line2d_26">
    <path clip-path="url(#p580e444251)" d="M 312.473635 205.841796 
L 312.473635 255.74586 
" style="fill:none;stroke:#575757;stroke-dasharray:3,3;stroke-dashoffset:0;"/>
   </g>
   <g id="line2d_27">
    <path clip-path="url(#p580e444251)" d="M 329.139185 211.654386 
L 329.139185 249.93327 
" style="fill:none;stroke:#575757;stroke-dasharray:1.5,1.5;stroke-dashoffset:0;"/>
   </g>
   <g id="patch_47">
    <path d="M 100.7 262.318203 
L 100.7 10.123203 
" style="fill:none;stroke:#000000;stroke-linecap:square;stroke-linejoin:miter;stroke-width:0.8;"/>
   </g>
   <g id="patch_48">
    <path d="M 100.7 262.318203 
L 352.895 262.318203 
" style="fill:none;stroke:#000000;stroke-linecap:square;stroke-linejoin:miter;stroke-width:0.8;"/>
   </g>
  </g>
 </g>
 <defs>
  <clipPath id="p6c2ddecd35">
   <rect height="252.195" width="252.195" x="-266.855" y="10.123203"/>
  </clipPath>
  <clipPath id="p580e444251">
   <rect height="252.195" width="252.195" x="100.7" y="10.123203"/>
  </clipPath>
 </defs>
</svg>
