<?xml version="1.0" encoding="utf-8" standalone="no"?>
<!DOCTYPE svg PUBLIC "-//W3C//DTD SVG 1.1//EN"
  "http://www.w3.org/Graphics/SVG/1.1/DTD/svg11.dtd">
<!-- Created with matplotlib (https://matplotlib.org/) -->
<svg height="324.058203pt" version="1.1" viewBox="0 0 366.475 324.058203" width="366.475pt" xmlns="http://www.w3.org/2000/svg" xmlns:xlink="http://www.w3.org/1999/xlink">
 <defs>
  <style type="text/css">
*{stroke-linecap:butt;stroke-linejoin:round;}
  </style>
 </defs>
 <g id="figure_1">
  <g id="patch_1">
   <path d="M 0 324.058203 
L 366.475 324.058203 
L 366.475 0 
L 0 0 
z
" style="fill:#ffffff;"/>
  </g>
  <g id="axes_1">
   <g id="patch_2">
    <path d="M -269.375 267.358203 
L -7.1 267.358203 
L -7.1 5.083203 
L -269.375 5.083203 
z
" style="fill:#ffffff;"/>
   </g>
   <g id="patch_3">
    <path clip-path="url(#p6a7ebe6385)" d="M -257.453409 267.358203 
L -251.492614 267.358203 
L -251.492614 267.358203 
L -257.453409 267.358203 
z
" style="fill:#7570b3;opacity:0.6;stroke:#000000;stroke-linejoin:miter;stroke-width:0.5;"/>
   </g>
   <g id="patch_4">
    <path clip-path="url(#p6a7ebe6385)" d="M -251.492614 267.358203 
L -245.531818 267.358203 
L -245.531818 267.358203 
L -251.492614 267.358203 
z
" style="fill:#7570b3;opacity:0.6;stroke:#000000;stroke-linejoin:miter;stroke-width:0.5;"/>
   </g>
   <g id="patch_5">
    <path clip-path="url(#p6a7ebe6385)" d="M -245.531818 267.358203 
L -239.571023 267.358203 
L -239.571023 267.358203 
L -245.531818 267.358203 
z
" style="fill:#7570b3;opacity:0.6;stroke:#000000;stroke-linejoin:miter;stroke-width:0.5;"/>
   </g>
   <g id="patch_6">
    <path clip-path="url(#p6a7ebe6385)" d="M -239.571023 267.358203 
L -233.610227 267.358203 
L -233.610227 267.358203 
L -239.571023 267.358203 
z
" style="fill:#7570b3;opacity:0.6;stroke:#000000;stroke-linejoin:miter;stroke-width:0.5;"/>
   </g>
   <g id="patch_7">
    <path clip-path="url(#p6a7ebe6385)" d="M -233.610227 267.358203 
L -227.649432 267.358203 
L -227.649432 267.358203 
L -233.610227 267.358203 
z
" style="fill:#7570b3;opacity:0.6;stroke:#000000;stroke-linejoin:miter;stroke-width:0.5;"/>
   </g>
   <g id="patch_8">
    <path clip-path="url(#p6a7ebe6385)" d="M -227.649432 267.358203 
L -221.688636 267.358203 
L -221.688636 267.358203 
L -227.649432 267.358203 
z
" style="fill:#7570b3;opacity:0.6;stroke:#000000;stroke-linejoin:miter;stroke-width:0.5;"/>
   </g>
   <g id="patch_9">
    <path clip-path="url(#p6a7ebe6385)" d="M -221.688636 267.358203 
L -215.727841 267.358203 
L -215.727841 267.358203 
L -221.688636 267.358203 
z
" style="fill:#7570b3;opacity:0.6;stroke:#000000;stroke-linejoin:miter;stroke-width:0.5;"/>
   </g>
   <g id="patch_10">
    <path clip-path="url(#p6a7ebe6385)" d="M -215.727841 267.358203 
L -209.767045 267.358203 
L -209.767045 267.358203 
L -215.727841 267.358203 
z
" style="fill:#7570b3;opacity:0.6;stroke:#000000;stroke-linejoin:miter;stroke-width:0.5;"/>
   </g>
   <g id="patch_11">
    <path clip-path="url(#p6a7ebe6385)" d="M -209.767045 267.358203 
L -203.80625 267.358203 
L -203.80625 267.358203 
L -209.767045 267.358203 
z
" style="fill:#7570b3;opacity:0.6;stroke:#000000;stroke-linejoin:miter;stroke-width:0.5;"/>
   </g>
   <g id="patch_12">
    <path clip-path="url(#p6a7ebe6385)" d="M -203.80625 267.358203 
L -197.845455 267.358203 
L -197.845455 267.358203 
L -203.80625 267.358203 
z
" style="fill:#7570b3;opacity:0.6;stroke:#000000;stroke-linejoin:miter;stroke-width:0.5;"/>
   </g>
   <g id="patch_13">
    <path clip-path="url(#p6a7ebe6385)" d="M -197.845455 267.358203 
L -191.884659 267.358203 
L -191.884659 267.358203 
L -197.845455 267.358203 
z
" style="fill:#7570b3;opacity:0.6;stroke:#000000;stroke-linejoin:miter;stroke-width:0.5;"/>
   </g>
   <g id="patch_14">
    <path clip-path="url(#p6a7ebe6385)" d="M -191.884659 267.358203 
L -185.923864 267.358203 
L -185.923864 267.358203 
L -191.884659 267.358203 
z
" style="fill:#7570b3;opacity:0.6;stroke:#000000;stroke-linejoin:miter;stroke-width:0.5;"/>
   </g>
   <g id="patch_15">
    <path clip-path="url(#p6a7ebe6385)" d="M -185.923864 267.358203 
L -179.963068 267.358203 
L -179.963068 267.358203 
L -185.923864 267.358203 
z
" style="fill:#7570b3;opacity:0.6;stroke:#000000;stroke-linejoin:miter;stroke-width:0.5;"/>
   </g>
   <g id="patch_16">
    <path clip-path="url(#p6a7ebe6385)" d="M -179.963068 267.358203 
L -174.002273 267.358203 
L -174.002273 267.358203 
L -179.963068 267.358203 
z
" style="fill:#7570b3;opacity:0.6;stroke:#000000;stroke-linejoin:miter;stroke-width:0.5;"/>
   </g>
   <g id="patch_17">
    <path clip-path="url(#p6a7ebe6385)" d="M -174.002273 267.358203 
L -168.041477 267.358203 
L -168.041477 267.358203 
L -174.002273 267.358203 
z
" style="fill:#7570b3;opacity:0.6;stroke:#000000;stroke-linejoin:miter;stroke-width:0.5;"/>
   </g>
   <g id="patch_18">
    <path clip-path="url(#p6a7ebe6385)" d="M -168.041477 267.358203 
L -162.080682 267.358203 
L -162.080682 267.358203 
L -168.041477 267.358203 
z
" style="fill:#7570b3;opacity:0.6;stroke:#000000;stroke-linejoin:miter;stroke-width:0.5;"/>
   </g>
   <g id="patch_19">
    <path clip-path="url(#p6a7ebe6385)" d="M -162.080682 267.358203 
L -156.119886 267.358203 
L -156.119886 267.358203 
L -162.080682 267.358203 
z
" style="fill:#7570b3;opacity:0.6;stroke:#000000;stroke-linejoin:miter;stroke-width:0.5;"/>
   </g>
   <g id="patch_20">
    <path clip-path="url(#p6a7ebe6385)" d="M -156.119886 267.358203 
L -150.159091 267.358203 
L -150.159091 266.00801 
L -156.119886 266.00801 
z
" style="fill:#7570b3;opacity:0.6;stroke:#000000;stroke-linejoin:miter;stroke-width:0.5;"/>
   </g>
   <g id="patch_21">
    <path clip-path="url(#p6a7ebe6385)" d="M -150.159091 267.358203 
L -144.198295 267.358203 
L -144.198295 266.00801 
L -150.159091 266.00801 
z
" style="fill:#7570b3;opacity:0.6;stroke:#000000;stroke-linejoin:miter;stroke-width:0.5;"/>
   </g>
   <g id="patch_22">
    <path clip-path="url(#p6a7ebe6385)" d="M -144.198295 267.358203 
L -138.2375 267.358203 
L -138.2375 266.00801 
L -144.198295 266.00801 
z
" style="fill:#7570b3;opacity:0.6;stroke:#000000;stroke-linejoin:miter;stroke-width:0.5;"/>
   </g>
   <g id="patch_23">
    <path clip-path="url(#p6a7ebe6385)" d="M -138.2375 267.358203 
L -132.276705 267.358203 
L -132.276705 261.957431 
L -138.2375 261.957431 
z
" style="fill:#7570b3;opacity:0.6;stroke:#000000;stroke-linejoin:miter;stroke-width:0.5;"/>
   </g>
   <g id="patch_24">
    <path clip-path="url(#p6a7ebe6385)" d="M -132.276705 267.358203 
L -126.315909 267.358203 
L -126.315909 261.957431 
L -132.276705 261.957431 
z
" style="fill:#7570b3;opacity:0.6;stroke:#000000;stroke-linejoin:miter;stroke-width:0.5;"/>
   </g>
   <g id="patch_25">
    <path clip-path="url(#p6a7ebe6385)" d="M -126.315909 267.358203 
L -120.355114 267.358203 
L -120.355114 251.155887 
L -126.315909 251.155887 
z
" style="fill:#7570b3;opacity:0.6;stroke:#000000;stroke-linejoin:miter;stroke-width:0.5;"/>
   </g>
   <g id="patch_26">
    <path clip-path="url(#p6a7ebe6385)" d="M -120.355114 267.358203 
L -114.394318 267.358203 
L -114.394318 252.50608 
L -120.355114 252.50608 
z
" style="fill:#7570b3;opacity:0.6;stroke:#000000;stroke-linejoin:miter;stroke-width:0.5;"/>
   </g>
   <g id="patch_27">
    <path clip-path="url(#p6a7ebe6385)" d="M -114.394318 267.358203 
L -108.433523 267.358203 
L -108.433523 237.653956 
L -114.394318 237.653956 
z
" style="fill:#7570b3;opacity:0.6;stroke:#000000;stroke-linejoin:miter;stroke-width:0.5;"/>
   </g>
   <g id="patch_28">
    <path clip-path="url(#p6a7ebe6385)" d="M -108.433523 267.358203 
L -102.472727 267.358203 
L -102.472727 214.700674 
L -108.433523 214.700674 
z
" style="fill:#7570b3;opacity:0.6;stroke:#000000;stroke-linejoin:miter;stroke-width:0.5;"/>
   </g>
   <g id="patch_29">
    <path clip-path="url(#p6a7ebe6385)" d="M -102.472727 267.358203 
L -96.511932 267.358203 
L -96.511932 189.047006 
L -102.472727 189.047006 
z
" style="fill:#7570b3;opacity:0.6;stroke:#000000;stroke-linejoin:miter;stroke-width:0.5;"/>
   </g>
   <g id="patch_30">
    <path clip-path="url(#p6a7ebe6385)" d="M -96.511932 267.358203 
L -90.551136 267.358203 
L -90.551136 152.591794 
L -96.511932 152.591794 
z
" style="fill:#7570b3;opacity:0.6;stroke:#000000;stroke-linejoin:miter;stroke-width:0.5;"/>
   </g>
   <g id="patch_31">
    <path clip-path="url(#p6a7ebe6385)" d="M -90.551136 267.358203 
L -84.590341 267.358203 
L -84.590341 116.136582 
L -90.551136 116.136582 
z
" style="fill:#7570b3;opacity:0.6;stroke:#000000;stroke-linejoin:miter;stroke-width:0.5;"/>
   </g>
   <g id="patch_32">
    <path clip-path="url(#p6a7ebe6385)" d="M -84.590341 267.358203 
L -78.629545 267.358203 
L -78.629545 64.829246 
L -84.590341 64.829246 
z
" style="fill:#7570b3;opacity:0.6;stroke:#000000;stroke-linejoin:miter;stroke-width:0.5;"/>
   </g>
   <g id="patch_33">
    <path clip-path="url(#p6a7ebe6385)" d="M -78.629545 267.358203 
L -72.66875 267.358203 
L -72.66875 17.572489 
L -78.629545 17.572489 
z
" style="fill:#7570b3;opacity:0.6;stroke:#000000;stroke-linejoin:miter;stroke-width:0.5;"/>
   </g>
   <g id="patch_34">
    <path clip-path="url(#p6a7ebe6385)" d="M -72.66875 267.358203 
L -66.707955 267.358203 
L -66.707955 72.930404 
L -72.66875 72.930404 
z
" style="fill:#7570b3;opacity:0.6;stroke:#000000;stroke-linejoin:miter;stroke-width:0.5;"/>
   </g>
   <g id="patch_35">
    <path clip-path="url(#p6a7ebe6385)" d="M -66.707955 267.358203 
L -60.747159 267.358203 
L -60.747159 143.140443 
L -66.707955 143.140443 
z
" style="fill:#7570b3;opacity:0.6;stroke:#000000;stroke-linejoin:miter;stroke-width:0.5;"/>
   </g>
   <g id="patch_36">
    <path clip-path="url(#p6a7ebe6385)" d="M -60.747159 267.358203 
L -54.786364 267.358203 
L -54.786364 212.000288 
L -60.747159 212.000288 
z
" style="fill:#7570b3;opacity:0.6;stroke:#000000;stroke-linejoin:miter;stroke-width:0.5;"/>
   </g>
   <g id="patch_37">
    <path clip-path="url(#p6a7ebe6385)" d="M -54.786364 267.358203 
L -48.825568 267.358203 
L -48.825568 228.202605 
L -54.786364 228.202605 
z
" style="fill:#7570b3;opacity:0.6;stroke:#000000;stroke-linejoin:miter;stroke-width:0.5;"/>
   </g>
   <g id="patch_38">
    <path clip-path="url(#p6a7ebe6385)" d="M -48.825568 267.358203 
L -42.864773 267.358203 
L -42.864773 259.257045 
L -48.825568 259.257045 
z
" style="fill:#7570b3;opacity:0.6;stroke:#000000;stroke-linejoin:miter;stroke-width:0.5;"/>
   </g>
   <g id="patch_39">
    <path clip-path="url(#p6a7ebe6385)" d="M -42.864773 267.358203 
L -36.903977 267.358203 
L -36.903977 264.657817 
L -42.864773 264.657817 
z
" style="fill:#7570b3;opacity:0.6;stroke:#000000;stroke-linejoin:miter;stroke-width:0.5;"/>
   </g>
   <g id="patch_40">
    <path clip-path="url(#p6a7ebe6385)" d="M -36.903977 267.358203 
L -30.943182 267.358203 
L -30.943182 266.00801 
L -36.903977 266.00801 
z
" style="fill:#7570b3;opacity:0.6;stroke:#000000;stroke-linejoin:miter;stroke-width:0.5;"/>
   </g>
   <g id="patch_41">
    <path clip-path="url(#p6a7ebe6385)" d="M -30.943182 267.358203 
L -24.982386 267.358203 
L -24.982386 267.358203 
L -30.943182 267.358203 
z
" style="fill:#7570b3;opacity:0.6;stroke:#000000;stroke-linejoin:miter;stroke-width:0.5;"/>
   </g>
   <g id="patch_42">
    <path clip-path="url(#p6a7ebe6385)" d="M -24.982386 267.358203 
L -19.021591 267.358203 
L -19.021591 267.358203 
L -24.982386 267.358203 
z
" style="fill:#7570b3;opacity:0.6;stroke:#000000;stroke-linejoin:miter;stroke-width:0.5;"/>
   </g>
   <g id="matplotlib.axis_1">
    <g id="xtick_1">
     <g id="line2d_1">
      <defs>
       <path d="M 0 0 
L 0 3.5 
" id="m1dddf685dd" style="stroke:#000000;stroke-width:1.6;"/>
      </defs>
      <g/>
     </g>
     <g id="text_1">
      <!-- 0.0 -->
      <defs>
       <path d="M 31.78125 66.40625 
Q 24.171875 66.40625 20.328125 58.90625 
Q 16.5 51.421875 16.5 36.375 
Q 16.5 21.390625 20.328125 13.890625 
Q 24.171875 6.390625 31.78125 6.390625 
Q 39.453125 6.390625 43.28125 13.890625 
Q 47.125 21.390625 47.125 36.375 
Q 47.125 51.421875 43.28125 58.90625 
Q 39.453125 66.40625 31.78125 66.40625 
z
M 31.78125 74.21875 
Q 44.046875 74.21875 50.515625 64.515625 
Q 56.984375 54.828125 56.984375 36.375 
Q 56.984375 17.96875 50.515625 8.265625 
Q 44.046875 -1.421875 31.78125 -1.421875 
Q 19.53125 -1.421875 13.0625 8.265625 
Q 6.59375 17.96875 6.59375 36.375 
Q 6.59375 54.828125 13.0625 64.515625 
Q 19.53125 74.21875 31.78125 74.21875 
z
" id="DejaVuSans-48"/>
       <path d="M 10.6875 12.40625 
L 21 12.40625 
L 21 0 
L 10.6875 0 
z
" id="DejaVuSans-46"/>
      </defs>
      <g transform="translate(-273.356534 297.255078)scale(0.2 -0.2)">
       <use xlink:href="#DejaVuSans-48"/>
       <use x="63.623047" xlink:href="#DejaVuSans-46"/>
       <use x="95.410156" xlink:href="#DejaVuSans-48"/>
      </g>
     </g>
    </g>
    <g id="xtick_2">
     <g id="line2d_2">
      <g/>
     </g>
     <g id="text_2">
      <!-- 0.2 -->
      <defs>
       <path d="M 19.1875 8.296875 
L 53.609375 8.296875 
L 53.609375 0 
L 7.328125 0 
L 7.328125 8.296875 
Q 12.9375 14.109375 22.625 23.890625 
Q 32.328125 33.6875 34.8125 36.53125 
Q 39.546875 41.84375 41.421875 45.53125 
Q 43.3125 49.21875 43.3125 52.78125 
Q 43.3125 58.59375 39.234375 62.25 
Q 35.15625 65.921875 28.609375 65.921875 
Q 23.96875 65.921875 18.8125 64.3125 
Q 13.671875 62.703125 7.8125 59.421875 
L 7.8125 69.390625 
Q 13.765625 71.78125 18.9375 73 
Q 24.125 74.21875 28.421875 74.21875 
Q 39.75 74.21875 46.484375 68.546875 
Q 53.21875 62.890625 53.21875 53.421875 
Q 53.21875 48.921875 51.53125 44.890625 
Q 49.859375 40.875 45.40625 35.40625 
Q 44.1875 33.984375 37.640625 27.21875 
Q 31.109375 20.453125 19.1875 8.296875 
z
" id="DejaVuSans-50"/>
      </defs>
      <g transform="translate(-205.233157 297.255078)scale(0.2 -0.2)">
       <use xlink:href="#DejaVuSans-48"/>
       <use x="63.623047" xlink:href="#DejaVuSans-46"/>
       <use x="95.410156" xlink:href="#DejaVuSans-50"/>
      </g>
     </g>
    </g>
    <g id="xtick_3">
     <g id="line2d_3">
      <g/>
     </g>
     <g id="text_3">
      <!-- 0.4 -->
      <defs>
       <path d="M 37.796875 64.3125 
L 12.890625 25.390625 
L 37.796875 25.390625 
z
M 35.203125 72.90625 
L 47.609375 72.90625 
L 47.609375 25.390625 
L 58.015625 25.390625 
L 58.015625 17.1875 
L 47.609375 17.1875 
L 47.609375 0 
L 37.796875 0 
L 37.796875 17.1875 
L 4.890625 17.1875 
L 4.890625 26.703125 
z
" id="DejaVuSans-52"/>
      </defs>
      <g transform="translate(-137.109781 297.255078)scale(0.2 -0.2)">
       <use xlink:href="#DejaVuSans-48"/>
       <use x="63.623047" xlink:href="#DejaVuSans-46"/>
       <use x="95.410156" xlink:href="#DejaVuSans-52"/>
      </g>
     </g>
    </g>
    <g id="xtick_4">
     <g id="line2d_4">
      <g/>
     </g>
     <g id="text_4">
      <!-- 0.6 -->
      <defs>
       <path d="M 33.015625 40.375 
Q 26.375 40.375 22.484375 35.828125 
Q 18.609375 31.296875 18.609375 23.390625 
Q 18.609375 15.53125 22.484375 10.953125 
Q 26.375 6.390625 33.015625 6.390625 
Q 39.65625 6.390625 43.53125 10.953125 
Q 47.40625 15.53125 47.40625 23.390625 
Q 47.40625 31.296875 43.53125 35.828125 
Q 39.65625 40.375 33.015625 40.375 
z
M 52.59375 71.296875 
L 52.59375 62.3125 
Q 48.875 64.0625 45.09375 64.984375 
Q 41.3125 65.921875 37.59375 65.921875 
Q 27.828125 65.921875 22.671875 59.328125 
Q 17.53125 52.734375 16.796875 39.40625 
Q 19.671875 43.65625 24.015625 45.921875 
Q 28.375 48.1875 33.59375 48.1875 
Q 44.578125 48.1875 50.953125 41.515625 
Q 57.328125 34.859375 57.328125 23.390625 
Q 57.328125 12.15625 50.6875 5.359375 
Q 44.046875 -1.421875 33.015625 -1.421875 
Q 20.359375 -1.421875 13.671875 8.265625 
Q 6.984375 17.96875 6.984375 36.375 
Q 6.984375 53.65625 15.1875 63.9375 
Q 23.390625 74.21875 37.203125 74.21875 
Q 40.921875 74.21875 44.703125 73.484375 
Q 48.484375 72.75 52.59375 71.296875 
z
" id="DejaVuSans-54"/>
      </defs>
      <g transform="translate(-68.986404 297.255078)scale(0.2 -0.2)">
       <use xlink:href="#DejaVuSans-48"/>
       <use x="63.623047" xlink:href="#DejaVuSans-46"/>
       <use x="95.410156" xlink:href="#DejaVuSans-54"/>
      </g>
     </g>
    </g>
    <g id="text_5">
     <!--   -->
     <defs>
      <path id="DejaVuSans-32"/>
     </defs>
     <g transform="translate(-141.415625 320.611328)scale(0.2 -0.2)">
      <use xlink:href="#DejaVuSans-32"/>
     </g>
    </g>
   </g>
   <g id="matplotlib.axis_2">
    <g id="ytick_1">
     <g id="line2d_5">
      <defs>
       <path d="M 0 0 
L -3.5 0 
" id="m9853950562" style="stroke:#000000;stroke-width:1.6;"/>
      </defs>
      <g/>
     </g>
     <g id="text_6">
      <!-- 0.00 -->
      <g transform="translate(-328.60625 274.956641)scale(0.2 -0.2)">
       <use xlink:href="#DejaVuSans-48"/>
       <use x="63.623047" xlink:href="#DejaVuSans-46"/>
       <use x="95.410156" xlink:href="#DejaVuSans-48"/>
       <use x="159.033203" xlink:href="#DejaVuSans-48"/>
      </g>
     </g>
    </g>
    <g id="ytick_2">
     <g id="line2d_6">
      <g/>
     </g>
     <g id="text_7">
      <!-- 0.05 -->
      <defs>
       <path d="M 10.796875 72.90625 
L 49.515625 72.90625 
L 49.515625 64.59375 
L 19.828125 64.59375 
L 19.828125 46.734375 
Q 21.96875 47.46875 24.109375 47.828125 
Q 26.265625 48.1875 28.421875 48.1875 
Q 40.625 48.1875 47.75 41.5 
Q 54.890625 34.8125 54.890625 23.390625 
Q 54.890625 11.625 47.5625 5.09375 
Q 40.234375 -1.421875 26.90625 -1.421875 
Q 22.3125 -1.421875 17.546875 -0.640625 
Q 12.796875 0.140625 7.71875 1.703125 
L 7.71875 11.625 
Q 12.109375 9.234375 16.796875 8.0625 
Q 21.484375 6.890625 26.703125 6.890625 
Q 35.15625 6.890625 40.078125 11.328125 
Q 45.015625 15.765625 45.015625 23.390625 
Q 45.015625 31 40.078125 35.4375 
Q 35.15625 39.890625 26.703125 39.890625 
Q 22.75 39.890625 18.8125 39.015625 
Q 14.890625 38.140625 10.796875 36.28125 
z
" id="DejaVuSans-53"/>
      </defs>
      <g transform="translate(-328.60625 207.446988)scale(0.2 -0.2)">
       <use xlink:href="#DejaVuSans-48"/>
       <use x="63.623047" xlink:href="#DejaVuSans-46"/>
       <use x="95.410156" xlink:href="#DejaVuSans-48"/>
       <use x="159.033203" xlink:href="#DejaVuSans-53"/>
      </g>
     </g>
    </g>
    <g id="ytick_3">
     <g id="line2d_7">
      <g/>
     </g>
     <g id="text_8">
      <!-- 0.10 -->
      <defs>
       <path d="M 12.40625 8.296875 
L 28.515625 8.296875 
L 28.515625 63.921875 
L 10.984375 60.40625 
L 10.984375 69.390625 
L 28.421875 72.90625 
L 38.28125 72.90625 
L 38.28125 8.296875 
L 54.390625 8.296875 
L 54.390625 0 
L 12.40625 0 
z
" id="DejaVuSans-49"/>
      </defs>
      <g transform="translate(-328.60625 139.937336)scale(0.2 -0.2)">
       <use xlink:href="#DejaVuSans-48"/>
       <use x="63.623047" xlink:href="#DejaVuSans-46"/>
       <use x="95.410156" xlink:href="#DejaVuSans-49"/>
       <use x="159.033203" xlink:href="#DejaVuSans-48"/>
      </g>
     </g>
    </g>
    <g id="ytick_4">
     <g id="line2d_8">
      <g/>
     </g>
     <g id="text_9">
      <!-- 0.15 -->
      <g transform="translate(-328.60625 72.427683)scale(0.2 -0.2)">
       <use xlink:href="#DejaVuSans-48"/>
       <use x="63.623047" xlink:href="#DejaVuSans-46"/>
       <use x="95.410156" xlink:href="#DejaVuSans-49"/>
       <use x="159.033203" xlink:href="#DejaVuSans-53"/>
      </g>
     </g>
    </g>
    <g id="text_10">
     <!--   -->
     <g transform="translate(-336.2665 139.017453)rotate(-90)scale(0.176 -0.176)">
      <use xlink:href="#DejaVuSans-32"/>
     </g>
    </g>
   </g>
   <g id="patch_43">
    <path style="fill:none;stroke:#000000;stroke-linecap:square;stroke-linejoin:miter;stroke-width:0.8;"/>
   </g>
   <g id="patch_44">
    <path style="fill:none;stroke:#000000;stroke-linecap:square;stroke-linejoin:miter;stroke-width:0.8;"/>
   </g>
  </g>
  <g id="axes_2">
   <g id="patch_45">
    <path d="M 100.7 267.358203 
L 362.975 267.358203 
L 362.975 5.083203 
L 100.7 5.083203 
z
" style="fill:#ffffff;"/>
   </g>
   <g id="PolyCollection_1">
    <defs>
     <path d="M 224.175244 -286.0724 
L 224.175244 -286.30885 
L 225.401006 -286.319466 
L 226.626768 -286.326836 
L 227.852529 -286.332444 
L 229.078291 -286.338021 
L 230.304052 -286.345309 
L 231.529814 -286.356266 
L 232.755576 -286.37335 
L 233.981337 -286.399277 
L 235.207099 -286.435967 
L 236.43286 -286.483003 
L 237.658622 -286.536466 
L 238.884384 -286.58911 
L 240.110145 -286.632395 
L 241.335907 -286.659943 
L 242.561668 -286.671043 
L 243.78743 -286.6724 
L 245.013192 -286.676972 
L 246.238953 -286.70018 
L 247.464715 -286.755157 
L 248.690476 -286.849091 
L 249.916238 -286.981847 
L 251.141999 -287.146648 
L 252.367761 -287.331861 
L 253.593523 -287.523127 
L 254.819284 -287.705936 
L 256.045046 -287.869002 
L 257.270807 -288.008077 
L 258.496569 -288.128627 
L 259.722331 -288.245337 
L 260.948092 -288.377625 
L 262.173854 -288.542701 
L 263.399615 -288.749585 
L 264.625377 -288.997408 
L 265.851139 -289.27893 
L 267.0769 -289.587123 
L 268.302662 -289.920943 
L 269.528423 -290.28705 
L 270.754185 -290.696803 
L 271.979947 -291.16053 
L 273.205708 -291.682401 
L 274.43147 -292.258753 
L 275.657231 -292.880663 
L 276.882993 -293.539064 
L 278.108755 -294.229036 
L 279.334516 -294.950268 
L 280.560278 -295.70327 
L 281.786039 -296.484145 
L 283.011801 -297.282283 
L 284.237562 -298.083786 
L 285.463324 -298.879591 
L 286.689086 -299.673749 
L 287.914847 -300.486561 
L 289.140609 -301.349733 
L 290.36637 -302.294838 
L 291.592132 -303.339678 
L 292.817894 -304.478136 
L 294.043655 -305.677609 
L 295.269417 -306.885259 
L 296.495178 -308.041192 
L 297.72094 -309.094063 
L 298.946702 -310.012999 
L 300.172463 -310.790062 
L 301.398225 -311.430605 
L 302.623986 -311.934898 
L 303.849748 -312.280661 
L 305.07551 -312.418125 
L 306.301271 -312.283669 
L 307.527033 -311.82667 
L 308.752794 -311.03467 
L 309.978556 -309.941993 
L 311.204317 -308.617354 
L 312.430079 -307.139053 
L 313.655841 -305.572355 
L 314.881602 -303.959536 
L 316.107364 -302.323843 
L 317.333125 -300.681584 
L 318.558887 -299.054802 
L 319.784649 -297.47851 
L 321.01041 -295.999114 
L 322.236172 -294.663895 
L 323.461933 -293.505697 
L 324.687695 -292.530364 
L 325.913457 -291.714138 
L 327.139218 -291.013177 
L 328.36498 -290.38061 
L 329.590741 -289.782646 
L 330.816503 -289.206734 
L 332.042265 -288.659747 
L 333.268026 -288.159284 
L 334.493788 -287.723348 
L 335.719549 -287.362831 
L 336.945311 -287.078732 
L 338.171072 -286.863576 
L 339.396834 -286.705074 
L 340.622596 -286.589873 
L 341.848357 -286.506002 
L 343.074119 -286.443787 
L 344.29988 -286.3958 
L 345.525642 -286.356611 
L 345.525642 -286.024639 
L 345.525642 -286.024639 
L 344.29988 -285.98545 
L 343.074119 -285.937463 
L 341.848357 -285.875248 
L 340.622596 -285.791377 
L 339.396834 -285.676176 
L 338.171072 -285.517674 
L 336.945311 -285.302518 
L 335.719549 -285.018419 
L 334.493788 -284.657902 
L 333.268026 -284.221966 
L 332.042265 -283.721503 
L 330.816503 -283.174516 
L 329.590741 -282.598604 
L 328.36498 -282.00064 
L 327.139218 -281.368073 
L 325.913457 -280.667112 
L 324.687695 -279.850886 
L 323.461933 -278.875553 
L 322.236172 -277.717355 
L 321.01041 -276.382136 
L 319.784649 -274.90274 
L 318.558887 -273.326448 
L 317.333125 -271.699666 
L 316.107364 -270.057407 
L 314.881602 -268.421714 
L 313.655841 -266.808895 
L 312.430079 -265.242197 
L 311.204317 -263.763896 
L 309.978556 -262.439257 
L 308.752794 -261.34658 
L 307.527033 -260.55458 
L 306.301271 -260.097581 
L 305.07551 -259.963125 
L 303.849748 -260.100589 
L 302.623986 -260.446352 
L 301.398225 -260.950645 
L 300.172463 -261.591188 
L 298.946702 -262.368251 
L 297.72094 -263.287187 
L 296.495178 -264.340058 
L 295.269417 -265.495991 
L 294.043655 -266.703641 
L 292.817894 -267.903114 
L 291.592132 -269.041572 
L 290.36637 -270.086412 
L 289.140609 -271.031517 
L 287.914847 -271.894689 
L 286.689086 -272.707501 
L 285.463324 -273.501659 
L 284.237562 -274.297464 
L 283.011801 -275.098967 
L 281.786039 -275.897105 
L 280.560278 -276.67798 
L 279.334516 -277.430982 
L 278.108755 -278.152214 
L 276.882993 -278.842186 
L 275.657231 -279.500587 
L 274.43147 -280.122497 
L 273.205708 -280.698849 
L 271.979947 -281.22072 
L 270.754185 -281.684447 
L 269.528423 -282.0942 
L 268.302662 -282.460307 
L 267.0769 -282.794127 
L 265.851139 -283.10232 
L 264.625377 -283.383842 
L 263.399615 -283.631665 
L 262.173854 -283.838549 
L 260.948092 -284.003625 
L 259.722331 -284.135913 
L 258.496569 -284.252623 
L 257.270807 -284.373173 
L 256.045046 -284.512248 
L 254.819284 -284.675314 
L 253.593523 -284.858123 
L 252.367761 -285.049389 
L 251.141999 -285.234602 
L 249.916238 -285.399403 
L 248.690476 -285.532159 
L 247.464715 -285.626093 
L 246.238953 -285.68107 
L 245.013192 -285.704278 
L 243.78743 -285.70885 
L 242.561668 -285.710207 
L 241.335907 -285.721307 
L 240.110145 -285.748855 
L 238.884384 -285.79214 
L 237.658622 -285.844784 
L 236.43286 -285.898247 
L 235.207099 -285.945283 
L 233.981337 -285.981973 
L 232.755576 -286.0079 
L 231.529814 -286.024984 
L 230.304052 -286.035941 
L 229.078291 -286.043229 
L 227.852529 -286.048806 
L 226.626768 -286.054414 
L 225.401006 -286.061784 
L 224.175244 -286.0724 
z
" id="m02bcbf6dc2" style="stroke:#575757;"/>
    </defs>
    <g clip-path="url(#p0dc4b243d0)">
     <use style="fill:#7c78ab;stroke:#575757;" x="0" xlink:href="#m02bcbf6dc2" y="324.058203"/>
    </g>
   </g>
   <g id="PolyCollection_2">
    <defs>
     <path d="M 271.040588 -213.986925 
L 271.040588 -227.256825 
L 271.783937 -227.412003 
L 272.527285 -227.5502 
L 273.270634 -227.67252 
L 274.013983 -227.780543 
L 274.757332 -227.876294 
L 275.50068 -227.962195 
L 276.244029 -228.041014 
L 276.987378 -228.115797 
L 277.730727 -228.189801 
L 278.474075 -228.266416 
L 279.217424 -228.349101 
L 279.960773 -228.441305 
L 280.704122 -228.546405 
L 281.44747 -228.667644 
L 282.190819 -228.808083 
L 282.934168 -228.970551 
L 283.677517 -229.157616 
L 284.420865 -229.371554 
L 285.164214 -229.614335 
L 285.907563 -229.887607 
L 286.650912 -230.192691 
L 287.39426 -230.530576 
L 288.137609 -230.901917 
L 288.880958 -231.307033 
L 289.624307 -231.745903 
L 290.367655 -232.21816 
L 291.111004 -232.723084 
L 291.854353 -233.259585 
L 292.597702 -233.826197 
L 293.34105 -234.421058 
L 294.084399 -235.041899 
L 294.827748 -235.68603 
L 295.571097 -236.350335 
L 296.314446 -237.031271 
L 297.057794 -237.72488 
L 297.801143 -238.426805 
L 298.544492 -239.132327 
L 299.287841 -239.83641 
L 300.031189 -240.533763 
L 300.774538 -241.218908 
L 301.517887 -241.886273 
L 302.261236 -242.530285 
L 303.004584 -243.14547 
L 303.747933 -243.726563 
L 304.491282 -244.268616 
L 305.234631 -244.767095 
L 305.977979 -245.217984 
L 306.721328 -245.617861 
L 307.464677 -245.963972 
L 308.208026 -246.254278 
L 308.951374 -246.487483 
L 309.694723 -246.663048 
L 310.438072 -246.781174 
L 311.181421 -246.842764 
L 311.924769 -246.849375 
L 312.668118 -246.803137 
L 313.411467 -246.706671 
L 314.154816 -246.562991 
L 314.898164 -246.375397 
L 315.641513 -246.147367 
L 316.384862 -245.882458 
L 317.128211 -245.584198 
L 317.871559 -245.256002 
L 318.614908 -244.901096 
L 319.358257 -244.522447 
L 320.101606 -244.122727 
L 320.844954 -243.704277 
L 321.588303 -243.269098 
L 322.331652 -242.81886 
L 323.075001 -242.354916 
L 323.81835 -241.878336 
L 324.561698 -241.389956 
L 325.305047 -240.89042 
L 326.048396 -240.380238 
L 326.791745 -239.859842 
L 327.535093 -239.329641 
L 328.278442 -238.790068 
L 329.021791 -238.241626 
L 329.76514 -237.684923 
L 330.508488 -237.120701 
L 331.251837 -236.549847 
L 331.995186 -235.973407 
L 332.738535 -235.39258 
L 333.481883 -234.808706 
L 334.225232 -234.22325 
L 334.968581 -233.63778 
L 335.71193 -233.053931 
L 336.455278 -232.473384 
L 337.198627 -231.897825 
L 337.941976 -231.32892 
L 338.685325 -230.768282 
L 339.428673 -230.217448 
L 340.172022 -229.677854 
L 340.915371 -229.150818 
L 341.65872 -228.63753 
L 342.402068 -228.13904 
L 343.145417 -227.656256 
L 343.888766 -227.189945 
L 344.632115 -226.740737 
L 344.632115 -214.503013 
L 344.632115 -214.503013 
L 343.888766 -214.053805 
L 343.145417 -213.587494 
L 342.402068 -213.10471 
L 341.65872 -212.60622 
L 340.915371 -212.092932 
L 340.172022 -211.565896 
L 339.428673 -211.026302 
L 338.685325 -210.475468 
L 337.941976 -209.91483 
L 337.198627 -209.345925 
L 336.455278 -208.770366 
L 335.71193 -208.189819 
L 334.968581 -207.60597 
L 334.225232 -207.0205 
L 333.481883 -206.435044 
L 332.738535 -205.85117 
L 331.995186 -205.270343 
L 331.251837 -204.693903 
L 330.508488 -204.123049 
L 329.76514 -203.558827 
L 329.021791 -203.002124 
L 328.278442 -202.453682 
L 327.535093 -201.914109 
L 326.791745 -201.383908 
L 326.048396 -200.863512 
L 325.305047 -200.35333 
L 324.561698 -199.853794 
L 323.81835 -199.365414 
L 323.075001 -198.888834 
L 322.331652 -198.42489 
L 321.588303 -197.974652 
L 320.844954 -197.539473 
L 320.101606 -197.121023 
L 319.358257 -196.721303 
L 318.614908 -196.342654 
L 317.871559 -195.987748 
L 317.128211 -195.659552 
L 316.384862 -195.361292 
L 315.641513 -195.096383 
L 314.898164 -194.868353 
L 314.154816 -194.680759 
L 313.411467 -194.537079 
L 312.668118 -194.440613 
L 311.924769 -194.394375 
L 311.181421 -194.400986 
L 310.438072 -194.462576 
L 309.694723 -194.580702 
L 308.951374 -194.756267 
L 308.208026 -194.989472 
L 307.464677 -195.279778 
L 306.721328 -195.625889 
L 305.977979 -196.025766 
L 305.234631 -196.476655 
L 304.491282 -196.975134 
L 303.747933 -197.517187 
L 303.004584 -198.09828 
L 302.261236 -198.713465 
L 301.517887 -199.357477 
L 300.774538 -200.024842 
L 300.031189 -200.709987 
L 299.287841 -201.40734 
L 298.544492 -202.111423 
L 297.801143 -202.816945 
L 297.057794 -203.51887 
L 296.314446 -204.212479 
L 295.571097 -204.893415 
L 294.827748 -205.55772 
L 294.084399 -206.201851 
L 293.34105 -206.822692 
L 292.597702 -207.417553 
L 291.854353 -207.984165 
L 291.111004 -208.520666 
L 290.367655 -209.02559 
L 289.624307 -209.497847 
L 288.880958 -209.936717 
L 288.137609 -210.341833 
L 287.39426 -210.713174 
L 286.650912 -211.051059 
L 285.907563 -211.356143 
L 285.164214 -211.629415 
L 284.420865 -211.872196 
L 283.677517 -212.086134 
L 282.934168 -212.273199 
L 282.190819 -212.435667 
L 281.44747 -212.576106 
L 280.704122 -212.697345 
L 279.960773 -212.802445 
L 279.217424 -212.894649 
L 278.474075 -212.977334 
L 277.730727 -213.053949 
L 276.987378 -213.127953 
L 276.244029 -213.202736 
L 275.50068 -213.281555 
L 274.757332 -213.367456 
L 274.013983 -213.463207 
L 273.270634 -213.57123 
L 272.527285 -213.69355 
L 271.783937 -213.831747 
L 271.040588 -213.986925 
z
" id="mca4c4575d7" style="stroke:#575757;"/>
    </defs>
    <g clip-path="url(#p0dc4b243d0)">
     <use style="fill:#7c78ab;stroke:#575757;" x="0" xlink:href="#mca4c4575d7" y="324.058203"/>
    </g>
   </g>
   <g id="patch_46">
    <path clip-path="url(#p0dc4b243d0)" d="M 118.185 37.867578 
L 118.185 37.867578 
L 118.185 37.867578 
L 118.185 37.867578 
z
" style="fill:#7c78ab;stroke:#575757;stroke-linejoin:miter;stroke-width:0.5;"/>
   </g>
   <g id="matplotlib.axis_3">
    <g id="xtick_5">
     <g id="line2d_9">
      <g>
       <use style="stroke:#000000;stroke-width:1.6;" x="118.185" xlink:href="#m1dddf685dd" y="267.358203"/>
      </g>
     </g>
     <g id="text_11">
      <!-- 0.0 -->
      <g transform="translate(102.281875 297.255078)scale(0.2 -0.2)">
       <use xlink:href="#DejaVuSans-48"/>
       <use x="63.623047" xlink:href="#DejaVuSans-46"/>
       <use x="95.410156" xlink:href="#DejaVuSans-48"/>
      </g>
     </g>
    </g>
    <g id="xtick_6">
     <g id="line2d_10">
      <g>
       <use style="stroke:#000000;stroke-width:1.6;" x="188.125" xlink:href="#m1dddf685dd" y="267.358203"/>
      </g>
     </g>
     <g id="text_12">
      <!-- 0.2 -->
      <g transform="translate(172.221875 297.255078)scale(0.2 -0.2)">
       <use xlink:href="#DejaVuSans-48"/>
       <use x="63.623047" xlink:href="#DejaVuSans-46"/>
       <use x="95.410156" xlink:href="#DejaVuSans-50"/>
      </g>
     </g>
    </g>
    <g id="xtick_7">
     <g id="line2d_11">
      <g>
       <use style="stroke:#000000;stroke-width:1.6;" x="258.065" xlink:href="#m1dddf685dd" y="267.358203"/>
      </g>
     </g>
     <g id="text_13">
      <!-- 0.4 -->
      <g transform="translate(242.161875 297.255078)scale(0.2 -0.2)">
       <use xlink:href="#DejaVuSans-48"/>
       <use x="63.623047" xlink:href="#DejaVuSans-46"/>
       <use x="95.410156" xlink:href="#DejaVuSans-52"/>
      </g>
     </g>
    </g>
    <g id="xtick_8">
     <g id="line2d_12">
      <g>
       <use style="stroke:#000000;stroke-width:1.6;" x="328.005" xlink:href="#m1dddf685dd" y="267.358203"/>
      </g>
     </g>
     <g id="text_14">
      <!-- 0.6 -->
      <g transform="translate(312.101875 297.255078)scale(0.2 -0.2)">
       <use xlink:href="#DejaVuSans-48"/>
       <use x="63.623047" xlink:href="#DejaVuSans-46"/>
       <use x="95.410156" xlink:href="#DejaVuSans-54"/>
      </g>
     </g>
    </g>
    <g id="text_15">
     <!-- Max Attention -->
     <defs>
      <path d="M 9.8125 72.90625 
L 24.515625 72.90625 
L 43.109375 23.296875 
L 61.8125 72.90625 
L 76.515625 72.90625 
L 76.515625 0 
L 66.890625 0 
L 66.890625 64.015625 
L 48.09375 14.015625 
L 38.1875 14.015625 
L 19.390625 64.015625 
L 19.390625 0 
L 9.8125 0 
z
" id="DejaVuSans-77"/>
      <path d="M 34.28125 27.484375 
Q 23.390625 27.484375 19.1875 25 
Q 14.984375 22.515625 14.984375 16.5 
Q 14.984375 11.71875 18.140625 8.90625 
Q 21.296875 6.109375 26.703125 6.109375 
Q 34.1875 6.109375 38.703125 11.40625 
Q 43.21875 16.703125 43.21875 25.484375 
L 43.21875 27.484375 
z
M 52.203125 31.203125 
L 52.203125 0 
L 43.21875 0 
L 43.21875 8.296875 
Q 40.140625 3.328125 35.546875 0.953125 
Q 30.953125 -1.421875 24.3125 -1.421875 
Q 15.921875 -1.421875 10.953125 3.296875 
Q 6 8.015625 6 15.921875 
Q 6 25.140625 12.171875 29.828125 
Q 18.359375 34.515625 30.609375 34.515625 
L 43.21875 34.515625 
L 43.21875 35.40625 
Q 43.21875 41.609375 39.140625 45 
Q 35.0625 48.390625 27.6875 48.390625 
Q 23 48.390625 18.546875 47.265625 
Q 14.109375 46.140625 10.015625 43.890625 
L 10.015625 52.203125 
Q 14.9375 54.109375 19.578125 55.046875 
Q 24.21875 56 28.609375 56 
Q 40.484375 56 46.34375 49.84375 
Q 52.203125 43.703125 52.203125 31.203125 
z
" id="DejaVuSans-97"/>
      <path d="M 54.890625 54.6875 
L 35.109375 28.078125 
L 55.90625 0 
L 45.3125 0 
L 29.390625 21.484375 
L 13.484375 0 
L 2.875 0 
L 24.125 28.609375 
L 4.6875 54.6875 
L 15.28125 54.6875 
L 29.78125 35.203125 
L 44.28125 54.6875 
z
" id="DejaVuSans-120"/>
      <path d="M 34.1875 63.1875 
L 20.796875 26.90625 
L 47.609375 26.90625 
z
M 28.609375 72.90625 
L 39.796875 72.90625 
L 67.578125 0 
L 57.328125 0 
L 50.6875 18.703125 
L 17.828125 18.703125 
L 11.1875 0 
L 0.78125 0 
z
" id="DejaVuSans-65"/>
      <path d="M 18.3125 70.21875 
L 18.3125 54.6875 
L 36.8125 54.6875 
L 36.8125 47.703125 
L 18.3125 47.703125 
L 18.3125 18.015625 
Q 18.3125 11.328125 20.140625 9.421875 
Q 21.96875 7.515625 27.59375 7.515625 
L 36.8125 7.515625 
L 36.8125 0 
L 27.59375 0 
Q 17.1875 0 13.234375 3.875 
Q 9.28125 7.765625 9.28125 18.015625 
L 9.28125 47.703125 
L 2.6875 47.703125 
L 2.6875 54.6875 
L 9.28125 54.6875 
L 9.28125 70.21875 
z
" id="DejaVuSans-116"/>
      <path d="M 56.203125 29.59375 
L 56.203125 25.203125 
L 14.890625 25.203125 
Q 15.484375 15.921875 20.484375 11.0625 
Q 25.484375 6.203125 34.421875 6.203125 
Q 39.59375 6.203125 44.453125 7.46875 
Q 49.3125 8.734375 54.109375 11.28125 
L 54.109375 2.78125 
Q 49.265625 0.734375 44.1875 -0.34375 
Q 39.109375 -1.421875 33.890625 -1.421875 
Q 20.796875 -1.421875 13.15625 6.1875 
Q 5.515625 13.8125 5.515625 26.8125 
Q 5.515625 40.234375 12.765625 48.109375 
Q 20.015625 56 32.328125 56 
Q 43.359375 56 49.78125 48.890625 
Q 56.203125 41.796875 56.203125 29.59375 
z
M 47.21875 32.234375 
Q 47.125 39.59375 43.09375 43.984375 
Q 39.0625 48.390625 32.421875 48.390625 
Q 24.90625 48.390625 20.390625 44.140625 
Q 15.875 39.890625 15.1875 32.171875 
z
" id="DejaVuSans-101"/>
      <path d="M 54.890625 33.015625 
L 54.890625 0 
L 45.90625 0 
L 45.90625 32.71875 
Q 45.90625 40.484375 42.875 44.328125 
Q 39.84375 48.1875 33.796875 48.1875 
Q 26.515625 48.1875 22.3125 43.546875 
Q 18.109375 38.921875 18.109375 30.90625 
L 18.109375 0 
L 9.078125 0 
L 9.078125 54.6875 
L 18.109375 54.6875 
L 18.109375 46.1875 
Q 21.34375 51.125 25.703125 53.5625 
Q 30.078125 56 35.796875 56 
Q 45.21875 56 50.046875 50.171875 
Q 54.890625 44.34375 54.890625 33.015625 
z
" id="DejaVuSans-110"/>
      <path d="M 9.421875 54.6875 
L 18.40625 54.6875 
L 18.40625 0 
L 9.421875 0 
z
M 9.421875 75.984375 
L 18.40625 75.984375 
L 18.40625 64.59375 
L 9.421875 64.59375 
z
" id="DejaVuSans-105"/>
      <path d="M 30.609375 48.390625 
Q 23.390625 48.390625 19.1875 42.75 
Q 14.984375 37.109375 14.984375 27.296875 
Q 14.984375 17.484375 19.15625 11.84375 
Q 23.34375 6.203125 30.609375 6.203125 
Q 37.796875 6.203125 41.984375 11.859375 
Q 46.1875 17.53125 46.1875 27.296875 
Q 46.1875 37.015625 41.984375 42.703125 
Q 37.796875 48.390625 30.609375 48.390625 
z
M 30.609375 56 
Q 42.328125 56 49.015625 48.375 
Q 55.71875 40.765625 55.71875 27.296875 
Q 55.71875 13.875 49.015625 6.21875 
Q 42.328125 -1.421875 30.609375 -1.421875 
Q 18.84375 -1.421875 12.171875 6.21875 
Q 5.515625 13.875 5.515625 27.296875 
Q 5.515625 40.765625 12.171875 48.375 
Q 18.84375 56 30.609375 56 
z
" id="DejaVuSans-111"/>
     </defs>
     <g transform="translate(161.659375 320.611328)scale(0.2 -0.2)">
      <use xlink:href="#DejaVuSans-77"/>
      <use x="86.279297" xlink:href="#DejaVuSans-97"/>
      <use x="147.558594" xlink:href="#DejaVuSans-120"/>
      <use x="206.738281" xlink:href="#DejaVuSans-32"/>
      <use x="238.525391" xlink:href="#DejaVuSans-65"/>
      <use x="306.917969" xlink:href="#DejaVuSans-116"/>
      <use x="346.126953" xlink:href="#DejaVuSans-116"/>
      <use x="385.335938" xlink:href="#DejaVuSans-101"/>
      <use x="446.859375" xlink:href="#DejaVuSans-110"/>
      <use x="510.238281" xlink:href="#DejaVuSans-116"/>
      <use x="549.447266" xlink:href="#DejaVuSans-105"/>
      <use x="577.230469" xlink:href="#DejaVuSans-111"/>
      <use x="638.412109" xlink:href="#DejaVuSans-110"/>
     </g>
    </g>
   </g>
   <g id="matplotlib.axis_4">
    <g id="ytick_5">
     <g id="line2d_13">
      <g>
       <use style="stroke:#000000;stroke-width:1.6;" x="100.7" xlink:href="#m9853950562" y="37.867578"/>
      </g>
     </g>
     <g id="text_16">
      <!-- [0.00, -->
      <defs>
       <path d="M 8.59375 75.984375 
L 29.296875 75.984375 
L 29.296875 69 
L 17.578125 69 
L 17.578125 -6.203125 
L 29.296875 -6.203125 
L 29.296875 -13.1875 
L 8.59375 -13.1875 
z
" id="DejaVuSans-91"/>
       <path d="M 11.71875 12.40625 
L 22.015625 12.40625 
L 22.015625 4 
L 14.015625 -11.625 
L 7.71875 -11.625 
L 11.71875 4 
z
" id="DejaVuSans-44"/>
      </defs>
      <g transform="translate(27.309375 34.268203)scale(0.2 -0.2)">
       <use xlink:href="#DejaVuSans-91"/>
       <use x="39.013672" xlink:href="#DejaVuSans-48"/>
       <use x="102.636719" xlink:href="#DejaVuSans-46"/>
       <use x="134.423828" xlink:href="#DejaVuSans-48"/>
       <use x="198.046875" xlink:href="#DejaVuSans-48"/>
       <use x="261.669922" xlink:href="#DejaVuSans-44"/>
      </g>
      <!-- 0.25) -->
      <defs>
       <path d="M 8.015625 75.875 
L 15.828125 75.875 
Q 23.140625 64.359375 26.78125 53.3125 
Q 30.421875 42.28125 30.421875 31.390625 
Q 30.421875 20.453125 26.78125 9.375 
Q 23.140625 -1.703125 15.828125 -13.1875 
L 8.015625 -13.1875 
Q 14.5 -2 17.703125 9.0625 
Q 20.90625 20.125 20.90625 31.390625 
Q 20.90625 42.671875 17.703125 53.65625 
Q 14.5 64.65625 8.015625 75.875 
z
" id="DejaVuSans-41"/>
      </defs>
      <g transform="translate(33.665625 56.663828)scale(0.2 -0.2)">
       <use xlink:href="#DejaVuSans-48"/>
       <use x="63.623047" xlink:href="#DejaVuSans-46"/>
       <use x="95.410156" xlink:href="#DejaVuSans-50"/>
       <use x="159.033203" xlink:href="#DejaVuSans-53"/>
       <use x="222.65625" xlink:href="#DejaVuSans-41"/>
      </g>
     </g>
    </g>
    <g id="ytick_6">
     <g id="line2d_14">
      <g>
       <use style="stroke:#000000;stroke-width:1.6;" x="100.7" xlink:href="#m9853950562" y="103.436328"/>
      </g>
     </g>
     <g id="text_17">
      <!-- [0.25, -->
      <g transform="translate(27.309375 99.836953)scale(0.2 -0.2)">
       <use xlink:href="#DejaVuSans-91"/>
       <use x="39.013672" xlink:href="#DejaVuSans-48"/>
       <use x="102.636719" xlink:href="#DejaVuSans-46"/>
       <use x="134.423828" xlink:href="#DejaVuSans-50"/>
       <use x="198.046875" xlink:href="#DejaVuSans-53"/>
       <use x="261.669922" xlink:href="#DejaVuSans-44"/>
      </g>
      <!-- 0.50) -->
      <g transform="translate(33.665625 122.232578)scale(0.2 -0.2)">
       <use xlink:href="#DejaVuSans-48"/>
       <use x="63.623047" xlink:href="#DejaVuSans-46"/>
       <use x="95.410156" xlink:href="#DejaVuSans-53"/>
       <use x="159.033203" xlink:href="#DejaVuSans-48"/>
       <use x="222.65625" xlink:href="#DejaVuSans-41"/>
      </g>
     </g>
    </g>
    <g id="ytick_7">
     <g id="line2d_15">
      <g>
       <use style="stroke:#000000;stroke-width:1.6;" x="100.7" xlink:href="#m9853950562" y="169.005078"/>
      </g>
     </g>
     <g id="text_18">
      <!-- [0.50, -->
      <g transform="translate(27.309375 165.405703)scale(0.2 -0.2)">
       <use xlink:href="#DejaVuSans-91"/>
       <use x="39.013672" xlink:href="#DejaVuSans-48"/>
       <use x="102.636719" xlink:href="#DejaVuSans-46"/>
       <use x="134.423828" xlink:href="#DejaVuSans-53"/>
       <use x="198.046875" xlink:href="#DejaVuSans-48"/>
       <use x="261.669922" xlink:href="#DejaVuSans-44"/>
      </g>
      <!-- 0.75) -->
      <defs>
       <path d="M 8.203125 72.90625 
L 55.078125 72.90625 
L 55.078125 68.703125 
L 28.609375 0 
L 18.3125 0 
L 43.21875 64.59375 
L 8.203125 64.59375 
z
" id="DejaVuSans-55"/>
      </defs>
      <g transform="translate(33.665625 187.801328)scale(0.2 -0.2)">
       <use xlink:href="#DejaVuSans-48"/>
       <use x="63.623047" xlink:href="#DejaVuSans-46"/>
       <use x="95.410156" xlink:href="#DejaVuSans-55"/>
       <use x="159.033203" xlink:href="#DejaVuSans-53"/>
       <use x="222.65625" xlink:href="#DejaVuSans-41"/>
      </g>
     </g>
    </g>
    <g id="ytick_8">
     <g id="line2d_16">
      <g>
       <use style="stroke:#000000;stroke-width:1.6;" x="100.7" xlink:href="#m9853950562" y="234.573828"/>
      </g>
     </g>
     <g id="text_19">
      <!-- [0.75, -->
      <g transform="translate(27.309375 230.974453)scale(0.2 -0.2)">
       <use xlink:href="#DejaVuSans-91"/>
       <use x="39.013672" xlink:href="#DejaVuSans-48"/>
       <use x="102.636719" xlink:href="#DejaVuSans-46"/>
       <use x="134.423828" xlink:href="#DejaVuSans-55"/>
       <use x="198.046875" xlink:href="#DejaVuSans-53"/>
       <use x="261.669922" xlink:href="#DejaVuSans-44"/>
      </g>
      <!-- 1.00) -->
      <g transform="translate(33.665625 253.370078)scale(0.2 -0.2)">
       <use xlink:href="#DejaVuSans-49"/>
       <use x="63.623047" xlink:href="#DejaVuSans-46"/>
       <use x="95.410156" xlink:href="#DejaVuSans-48"/>
       <use x="159.033203" xlink:href="#DejaVuSans-48"/>
       <use x="222.65625" xlink:href="#DejaVuSans-41"/>
      </g>
     </g>
    </g>
    <g id="text_20">
     <!-- Max JS Divergence within $\epsilon$ -->
     <defs>
      <path d="M 9.8125 72.90625 
L 19.671875 72.90625 
L 19.671875 5.078125 
Q 19.671875 -8.109375 14.671875 -14.0625 
Q 9.671875 -20.015625 -1.421875 -20.015625 
L -5.171875 -20.015625 
L -5.171875 -11.71875 
L -2.09375 -11.71875 
Q 4.4375 -11.71875 7.125 -8.046875 
Q 9.8125 -4.390625 9.8125 5.078125 
z
" id="DejaVuSans-74"/>
      <path d="M 53.515625 70.515625 
L 53.515625 60.890625 
Q 47.90625 63.578125 42.921875 64.890625 
Q 37.9375 66.21875 33.296875 66.21875 
Q 25.25 66.21875 20.875 63.09375 
Q 16.5 59.96875 16.5 54.203125 
Q 16.5 49.359375 19.40625 46.890625 
Q 22.3125 44.4375 30.421875 42.921875 
L 36.375 41.703125 
Q 47.40625 39.59375 52.65625 34.296875 
Q 57.90625 29 57.90625 20.125 
Q 57.90625 9.515625 50.796875 4.046875 
Q 43.703125 -1.421875 29.984375 -1.421875 
Q 24.8125 -1.421875 18.96875 -0.25 
Q 13.140625 0.921875 6.890625 3.21875 
L 6.890625 13.375 
Q 12.890625 10.015625 18.65625 8.296875 
Q 24.421875 6.59375 29.984375 6.59375 
Q 38.421875 6.59375 43.015625 9.90625 
Q 47.609375 13.234375 47.609375 19.390625 
Q 47.609375 24.75 44.3125 27.78125 
Q 41.015625 30.8125 33.5 32.328125 
L 27.484375 33.5 
Q 16.453125 35.6875 11.515625 40.375 
Q 6.59375 45.0625 6.59375 53.421875 
Q 6.59375 63.09375 13.40625 68.65625 
Q 20.21875 74.21875 32.171875 74.21875 
Q 37.3125 74.21875 42.625 73.28125 
Q 47.953125 72.359375 53.515625 70.515625 
z
" id="DejaVuSans-83"/>
      <path d="M 19.671875 64.796875 
L 19.671875 8.109375 
L 31.59375 8.109375 
Q 46.6875 8.109375 53.6875 14.9375 
Q 60.6875 21.78125 60.6875 36.53125 
Q 60.6875 51.171875 53.6875 57.984375 
Q 46.6875 64.796875 31.59375 64.796875 
z
M 9.8125 72.90625 
L 30.078125 72.90625 
Q 51.265625 72.90625 61.171875 64.09375 
Q 71.09375 55.28125 71.09375 36.53125 
Q 71.09375 17.671875 61.125 8.828125 
Q 51.171875 0 30.078125 0 
L 9.8125 0 
z
" id="DejaVuSans-68"/>
      <path d="M 2.984375 54.6875 
L 12.5 54.6875 
L 29.59375 8.796875 
L 46.6875 54.6875 
L 56.203125 54.6875 
L 35.6875 0 
L 23.484375 0 
z
" id="DejaVuSans-118"/>
      <path d="M 41.109375 46.296875 
Q 39.59375 47.171875 37.8125 47.578125 
Q 36.03125 48 33.890625 48 
Q 26.265625 48 22.1875 43.046875 
Q 18.109375 38.09375 18.109375 28.8125 
L 18.109375 0 
L 9.078125 0 
L 9.078125 54.6875 
L 18.109375 54.6875 
L 18.109375 46.1875 
Q 20.953125 51.171875 25.484375 53.578125 
Q 30.03125 56 36.53125 56 
Q 37.453125 56 38.578125 55.875 
Q 39.703125 55.765625 41.0625 55.515625 
z
" id="DejaVuSans-114"/>
      <path d="M 45.40625 27.984375 
Q 45.40625 37.75 41.375 43.109375 
Q 37.359375 48.484375 30.078125 48.484375 
Q 22.859375 48.484375 18.828125 43.109375 
Q 14.796875 37.75 14.796875 27.984375 
Q 14.796875 18.265625 18.828125 12.890625 
Q 22.859375 7.515625 30.078125 7.515625 
Q 37.359375 7.515625 41.375 12.890625 
Q 45.40625 18.265625 45.40625 27.984375 
z
M 54.390625 6.78125 
Q 54.390625 -7.171875 48.1875 -13.984375 
Q 42 -20.796875 29.203125 -20.796875 
Q 24.46875 -20.796875 20.265625 -20.09375 
Q 16.0625 -19.390625 12.109375 -17.921875 
L 12.109375 -9.1875 
Q 16.0625 -11.328125 19.921875 -12.34375 
Q 23.78125 -13.375 27.78125 -13.375 
Q 36.625 -13.375 41.015625 -8.765625 
Q 45.40625 -4.15625 45.40625 5.171875 
L 45.40625 9.625 
Q 42.625 4.78125 38.28125 2.390625 
Q 33.9375 0 27.875 0 
Q 17.828125 0 11.671875 7.65625 
Q 5.515625 15.328125 5.515625 27.984375 
Q 5.515625 40.671875 11.671875 48.328125 
Q 17.828125 56 27.875 56 
Q 33.9375 56 38.28125 53.609375 
Q 42.625 51.21875 45.40625 46.390625 
L 45.40625 54.6875 
L 54.390625 54.6875 
z
" id="DejaVuSans-103"/>
      <path d="M 48.78125 52.59375 
L 48.78125 44.1875 
Q 44.96875 46.296875 41.140625 47.34375 
Q 37.3125 48.390625 33.40625 48.390625 
Q 24.65625 48.390625 19.8125 42.84375 
Q 14.984375 37.3125 14.984375 27.296875 
Q 14.984375 17.28125 19.8125 11.734375 
Q 24.65625 6.203125 33.40625 6.203125 
Q 37.3125 6.203125 41.140625 7.25 
Q 44.96875 8.296875 48.78125 10.40625 
L 48.78125 2.09375 
Q 45.015625 0.34375 40.984375 -0.53125 
Q 36.96875 -1.421875 32.421875 -1.421875 
Q 20.0625 -1.421875 12.78125 6.34375 
Q 5.515625 14.109375 5.515625 27.296875 
Q 5.515625 40.671875 12.859375 48.328125 
Q 20.21875 56 33.015625 56 
Q 37.15625 56 41.109375 55.140625 
Q 45.0625 54.296875 48.78125 52.59375 
z
" id="DejaVuSans-99"/>
      <path d="M 4.203125 54.6875 
L 13.1875 54.6875 
L 24.421875 12.015625 
L 35.59375 54.6875 
L 46.1875 54.6875 
L 57.421875 12.015625 
L 68.609375 54.6875 
L 77.59375 54.6875 
L 63.28125 0 
L 52.6875 0 
L 40.921875 44.828125 
L 29.109375 0 
L 18.5 0 
z
" id="DejaVuSans-119"/>
      <path d="M 54.890625 33.015625 
L 54.890625 0 
L 45.90625 0 
L 45.90625 32.71875 
Q 45.90625 40.484375 42.875 44.328125 
Q 39.84375 48.1875 33.796875 48.1875 
Q 26.515625 48.1875 22.3125 43.546875 
Q 18.109375 38.921875 18.109375 30.90625 
L 18.109375 0 
L 9.078125 0 
L 9.078125 75.984375 
L 18.109375 75.984375 
L 18.109375 46.1875 
Q 21.34375 51.125 25.703125 53.5625 
Q 30.078125 56 35.796875 56 
Q 45.21875 56 50.046875 50.171875 
Q 54.890625 44.34375 54.890625 33.015625 
z
" id="DejaVuSans-104"/>
      <path d="M 19.734375 29.5 
Q 14.453125 30.671875 12.15625 33.84375 
Q 10.453125 36.078125 10.453125 39.109375 
Q 10.453125 47.40625 18.359375 52.25 
Q 24.609375 56.0625 34.1875 56.0625 
Q 37.890625 56.0625 41.9375 55.46875 
Q 46 54.890625 50.53125 53.71875 
L 48.96875 45.5625 
Q 44.484375 46.96875 40.71875 47.609375 
Q 36.859375 48.25 33.40625 48.25 
Q 27.59375 48.25 23.78125 46 
Q 19.1875 43.3125 19.1875 39.40625 
Q 19.1875 36.8125 21.578125 35.015625 
Q 24.421875 32.859375 30.078125 32.859375 
L 37.640625 32.859375 
L 36.234375 25.4375 
L 29 25.4375 
Q 22.265625 25.4375 18.3125 22.953125 
Q 12.9375 19.578125 12.9375 14.3125 
Q 12.9375 10.984375 15.828125 8.796875 
Q 19.4375 6.0625 26.8125 6.0625 
Q 31.34375 6.0625 35.6875 6.9375 
Q 40.046875 7.859375 43.84375 9.671875 
L 42.1875 1.3125 
Q 37.546875 -0.046875 33.296875 -0.734375 
Q 29.046875 -1.421875 25.140625 -1.421875 
Q 13.53125 -1.421875 8.0625 3.03125 
Q 3.90625 6.453125 3.90625 12.203125 
Q 3.90625 19.96875 9.375 24.75 
Q 13.421875 28.328125 19.734375 29.5 
z
" id="DejaVuSans-Oblique-949"/>
     </defs>
     <g transform="translate(19.109375 271.820703)rotate(-90)scale(0.2 -0.2)">
      <use transform="translate(0 0.015625)" xlink:href="#DejaVuSans-77"/>
      <use transform="translate(86.279297 0.015625)" xlink:href="#DejaVuSans-97"/>
      <use transform="translate(147.558594 0.015625)" xlink:href="#DejaVuSans-120"/>
      <use transform="translate(206.738281 0.015625)" xlink:href="#DejaVuSans-32"/>
      <use transform="translate(238.525391 0.015625)" xlink:href="#DejaVuSans-74"/>
      <use transform="translate(268.017578 0.015625)" xlink:href="#DejaVuSans-83"/>
      <use transform="translate(331.494141 0.015625)" xlink:href="#DejaVuSans-32"/>
      <use transform="translate(363.28125 0.015625)" xlink:href="#DejaVuSans-68"/>
      <use transform="translate(440.283203 0.015625)" xlink:href="#DejaVuSans-105"/>
      <use transform="translate(468.066406 0.015625)" xlink:href="#DejaVuSans-118"/>
      <use transform="translate(527.246094 0.015625)" xlink:href="#DejaVuSans-101"/>
      <use transform="translate(588.769531 0.015625)" xlink:href="#DejaVuSans-114"/>
      <use transform="translate(629.882812 0.015625)" xlink:href="#DejaVuSans-103"/>
      <use transform="translate(693.359375 0.015625)" xlink:href="#DejaVuSans-101"/>
      <use transform="translate(754.882812 0.015625)" xlink:href="#DejaVuSans-110"/>
      <use transform="translate(818.261719 0.015625)" xlink:href="#DejaVuSans-99"/>
      <use transform="translate(873.242188 0.015625)" xlink:href="#DejaVuSans-101"/>
      <use transform="translate(934.765625 0.015625)" xlink:href="#DejaVuSans-32"/>
      <use transform="translate(966.552734 0.015625)" xlink:href="#DejaVuSans-119"/>
      <use transform="translate(1048.339844 0.015625)" xlink:href="#DejaVuSans-105"/>
      <use transform="translate(1076.123047 0.015625)" xlink:href="#DejaVuSans-116"/>
      <use transform="translate(1115.332031 0.015625)" xlink:href="#DejaVuSans-104"/>
      <use transform="translate(1178.710938 0.015625)" xlink:href="#DejaVuSans-105"/>
      <use transform="translate(1206.494141 0.015625)" xlink:href="#DejaVuSans-110"/>
      <use transform="translate(1269.873047 0.015625)" xlink:href="#DejaVuSans-32"/>
      <use transform="translate(1301.660156 0.015625)" xlink:href="#DejaVuSans-Oblique-949"/>
     </g>
    </g>
   </g>
   <g id="line2d_17">
    <path clip-path="url(#p0dc4b243d0)" d="M 290.0843 21.924407 
L 290.0843 53.810749 
" style="fill:none;stroke:#575757;stroke-dasharray:1.5,1.5;stroke-dashoffset:0;"/>
   </g>
   <g id="line2d_18">
    <path clip-path="url(#p0dc4b243d0)" d="M 301.321378 12.879998 
L 301.321378 62.855158 
" style="fill:none;stroke:#575757;stroke-dasharray:3,3;stroke-dashoffset:0;"/>
   </g>
   <g id="line2d_19">
    <path clip-path="url(#p0dc4b243d0)" d="M 310.128637 14.353724 
L 310.128637 61.381432 
" style="fill:none;stroke:#575757;stroke-dasharray:1.5,1.5;stroke-dashoffset:0;"/>
   </g>
   <g id="line2d_20">
    <path clip-path="url(#p0dc4b243d0)" d="M 302.694137 81.137969 
L 302.694137 125.734687 
" style="fill:none;stroke:#575757;stroke-dasharray:1.5,1.5;stroke-dashoffset:0;"/>
   </g>
   <g id="line2d_21">
    <path clip-path="url(#p0dc4b243d0)" d="M 309.847606 77.655567 
L 309.847606 129.21709 
" style="fill:none;stroke:#575757;stroke-dasharray:3,3;stroke-dashoffset:0;"/>
   </g>
   <g id="line2d_22">
    <path clip-path="url(#p0dc4b243d0)" d="M 323.094347 81.920618 
L 323.094347 124.952038 
" style="fill:none;stroke:#575757;stroke-dasharray:1.5,1.5;stroke-dashoffset:0;"/>
   </g>
   <g id="line2d_23">
    <path clip-path="url(#p0dc4b243d0)" d="M 302.172481 142.777578 
L 302.172481 195.232578 
" style="fill:none;stroke:#575757;stroke-linecap:square;"/>
   </g>
   <g id="patch_47">
    <path d="M 100.7 267.358203 
L 100.7 5.083203 
" style="fill:none;stroke:#000000;stroke-linecap:square;stroke-linejoin:miter;stroke-width:0.8;"/>
   </g>
   <g id="patch_48">
    <path d="M 100.7 267.358203 
L 362.975 267.358203 
" style="fill:none;stroke:#000000;stroke-linecap:square;stroke-linejoin:miter;stroke-width:0.8;"/>
   </g>
  </g>
 </g>
 <defs>
  <clipPath id="p6a7ebe6385">
   <rect height="262.275" width="262.275" x="-269.375" y="5.083203"/>
  </clipPath>
  <clipPath id="p0dc4b243d0">
   <rect height="262.275" width="262.275" x="100.7" y="5.083203"/>
  </clipPath>
 </defs>
</svg>
