<?xml version="1.0" encoding="utf-8" standalone="no"?>
<!DOCTYPE svg PUBLIC "-//W3C//DTD SVG 1.1//EN"
  "http://www.w3.org/Graphics/SVG/1.1/DTD/svg11.dtd">
<!-- Created with matplotlib (https://matplotlib.org/) -->
<svg height="324.058203pt" version="1.1" viewBox="0 0 366.475 324.058203" width="366.475pt" xmlns="http://www.w3.org/2000/svg" xmlns:xlink="http://www.w3.org/1999/xlink">
 <defs>
  <style type="text/css">
*{stroke-linecap:butt;stroke-linejoin:round;}
  </style>
 </defs>
 <g id="figure_1">
  <g id="patch_1">
   <path d="M 0 324.058203 
L 366.475 324.058203 
L 366.475 -0 
L 0 -0 
z
" style="fill:#ffffff;"/>
  </g>
  <g id="axes_1">
   <g id="patch_2">
    <path d="M -269.375 267.358203 
L -7.1 267.358203 
L -7.1 5.083203 
L -269.375 5.083203 
z
" style="fill:#ffffff;"/>
   </g>
   <g id="patch_3">
    <path clip-path="url(#p0b49135922)" d="M -257.453409 267.358203 
L -251.492614 267.358203 
L -251.492614 265.725617 
L -257.453409 265.725617 
z
" style="fill:#7570b3;opacity:0.6;stroke:#000000;stroke-linejoin:miter;stroke-width:0.5;"/>
   </g>
   <g id="patch_4">
    <path clip-path="url(#p0b49135922)" d="M -251.492614 267.358203 
L -245.531818 267.358203 
L -245.531818 267.358203 
L -251.492614 267.358203 
z
" style="fill:#7570b3;opacity:0.6;stroke:#000000;stroke-linejoin:miter;stroke-width:0.5;"/>
   </g>
   <g id="patch_5">
    <path clip-path="url(#p0b49135922)" d="M -245.531818 267.358203 
L -239.571023 267.358203 
L -239.571023 267.358203 
L -245.531818 267.358203 
z
" style="fill:#7570b3;opacity:0.6;stroke:#000000;stroke-linejoin:miter;stroke-width:0.5;"/>
   </g>
   <g id="patch_6">
    <path clip-path="url(#p0b49135922)" d="M -239.571023 267.358203 
L -233.610227 267.358203 
L -233.610227 267.358203 
L -239.571023 267.358203 
z
" style="fill:#7570b3;opacity:0.6;stroke:#000000;stroke-linejoin:miter;stroke-width:0.5;"/>
   </g>
   <g id="patch_7">
    <path clip-path="url(#p0b49135922)" d="M -233.610227 267.358203 
L -227.649432 267.358203 
L -227.649432 267.358203 
L -233.610227 267.358203 
z
" style="fill:#7570b3;opacity:0.6;stroke:#000000;stroke-linejoin:miter;stroke-width:0.5;"/>
   </g>
   <g id="patch_8">
    <path clip-path="url(#p0b49135922)" d="M -227.649432 267.358203 
L -221.688636 267.358203 
L -221.688636 267.358203 
L -227.649432 267.358203 
z
" style="fill:#7570b3;opacity:0.6;stroke:#000000;stroke-linejoin:miter;stroke-width:0.5;"/>
   </g>
   <g id="patch_9">
    <path clip-path="url(#p0b49135922)" d="M -221.688636 267.358203 
L -215.727841 267.358203 
L -215.727841 267.358203 
L -221.688636 267.358203 
z
" style="fill:#7570b3;opacity:0.6;stroke:#000000;stroke-linejoin:miter;stroke-width:0.5;"/>
   </g>
   <g id="patch_10">
    <path clip-path="url(#p0b49135922)" d="M -215.727841 267.358203 
L -209.767045 267.358203 
L -209.767045 267.358203 
L -215.727841 267.358203 
z
" style="fill:#7570b3;opacity:0.6;stroke:#000000;stroke-linejoin:miter;stroke-width:0.5;"/>
   </g>
   <g id="patch_11">
    <path clip-path="url(#p0b49135922)" d="M -209.767045 267.358203 
L -203.80625 267.358203 
L -203.80625 265.725617 
L -209.767045 265.725617 
z
" style="fill:#7570b3;opacity:0.6;stroke:#000000;stroke-linejoin:miter;stroke-width:0.5;"/>
   </g>
   <g id="patch_12">
    <path clip-path="url(#p0b49135922)" d="M -203.80625 267.358203 
L -197.845455 267.358203 
L -197.845455 267.358203 
L -203.80625 267.358203 
z
" style="fill:#7570b3;opacity:0.6;stroke:#000000;stroke-linejoin:miter;stroke-width:0.5;"/>
   </g>
   <g id="patch_13">
    <path clip-path="url(#p0b49135922)" d="M -197.845455 267.358203 
L -191.884659 267.358203 
L -191.884659 264.09303 
L -197.845455 264.09303 
z
" style="fill:#7570b3;opacity:0.6;stroke:#000000;stroke-linejoin:miter;stroke-width:0.5;"/>
   </g>
   <g id="patch_14">
    <path clip-path="url(#p0b49135922)" d="M -191.884659 267.358203 
L -185.923864 267.358203 
L -185.923864 267.358203 
L -191.884659 267.358203 
z
" style="fill:#7570b3;opacity:0.6;stroke:#000000;stroke-linejoin:miter;stroke-width:0.5;"/>
   </g>
   <g id="patch_15">
    <path clip-path="url(#p0b49135922)" d="M -185.923864 267.358203 
L -179.963068 267.358203 
L -179.963068 264.09303 
L -185.923864 264.09303 
z
" style="fill:#7570b3;opacity:0.6;stroke:#000000;stroke-linejoin:miter;stroke-width:0.5;"/>
   </g>
   <g id="patch_16">
    <path clip-path="url(#p0b49135922)" d="M -179.963068 267.358203 
L -174.002273 267.358203 
L -174.002273 262.460444 
L -179.963068 262.460444 
z
" style="fill:#7570b3;opacity:0.6;stroke:#000000;stroke-linejoin:miter;stroke-width:0.5;"/>
   </g>
   <g id="patch_17">
    <path clip-path="url(#p0b49135922)" d="M -174.002273 267.358203 
L -168.041477 267.358203 
L -168.041477 265.725617 
L -174.002273 265.725617 
z
" style="fill:#7570b3;opacity:0.6;stroke:#000000;stroke-linejoin:miter;stroke-width:0.5;"/>
   </g>
   <g id="patch_18">
    <path clip-path="url(#p0b49135922)" d="M -168.041477 267.358203 
L -162.080682 267.358203 
L -162.080682 262.460444 
L -168.041477 262.460444 
z
" style="fill:#7570b3;opacity:0.6;stroke:#000000;stroke-linejoin:miter;stroke-width:0.5;"/>
   </g>
   <g id="patch_19">
    <path clip-path="url(#p0b49135922)" d="M -162.080682 267.358203 
L -156.119886 267.358203 
L -156.119886 257.562685 
L -162.080682 257.562685 
z
" style="fill:#7570b3;opacity:0.6;stroke:#000000;stroke-linejoin:miter;stroke-width:0.5;"/>
   </g>
   <g id="patch_20">
    <path clip-path="url(#p0b49135922)" d="M -156.119886 267.358203 
L -150.159091 267.358203 
L -150.159091 254.297512 
L -156.119886 254.297512 
z
" style="fill:#7570b3;opacity:0.6;stroke:#000000;stroke-linejoin:miter;stroke-width:0.5;"/>
   </g>
   <g id="patch_21">
    <path clip-path="url(#p0b49135922)" d="M -150.159091 267.358203 
L -144.198295 267.358203 
L -144.198295 254.297512 
L -150.159091 254.297512 
z
" style="fill:#7570b3;opacity:0.6;stroke:#000000;stroke-linejoin:miter;stroke-width:0.5;"/>
   </g>
   <g id="patch_22">
    <path clip-path="url(#p0b49135922)" d="M -144.198295 267.358203 
L -138.2375 267.358203 
L -138.2375 246.13458 
L -144.198295 246.13458 
z
" style="fill:#7570b3;opacity:0.6;stroke:#000000;stroke-linejoin:miter;stroke-width:0.5;"/>
   </g>
   <g id="patch_23">
    <path clip-path="url(#p0b49135922)" d="M -138.2375 267.358203 
L -132.276705 267.358203 
L -132.276705 249.399753 
L -138.2375 249.399753 
z
" style="fill:#7570b3;opacity:0.6;stroke:#000000;stroke-linejoin:miter;stroke-width:0.5;"/>
   </g>
   <g id="patch_24">
    <path clip-path="url(#p0b49135922)" d="M -132.276705 267.358203 
L -126.315909 267.358203 
L -126.315909 215.115439 
L -132.276705 215.115439 
z
" style="fill:#7570b3;opacity:0.6;stroke:#000000;stroke-linejoin:miter;stroke-width:0.5;"/>
   </g>
   <g id="patch_25">
    <path clip-path="url(#p0b49135922)" d="M -126.315909 267.358203 
L -120.355114 267.358203 
L -120.355114 198.789576 
L -126.315909 198.789576 
z
" style="fill:#7570b3;opacity:0.6;stroke:#000000;stroke-linejoin:miter;stroke-width:0.5;"/>
   </g>
   <g id="patch_26">
    <path clip-path="url(#p0b49135922)" d="M -120.355114 267.358203 
L -114.394318 267.358203 
L -114.394318 172.668194 
L -120.355114 172.668194 
z
" style="fill:#7570b3;opacity:0.6;stroke:#000000;stroke-linejoin:miter;stroke-width:0.5;"/>
   </g>
   <g id="patch_27">
    <path clip-path="url(#p0b49135922)" d="M -114.394318 267.358203 
L -108.433523 267.358203 
L -108.433523 74.713012 
L -114.394318 74.713012 
z
" style="fill:#7570b3;opacity:0.6;stroke:#000000;stroke-linejoin:miter;stroke-width:0.5;"/>
   </g>
   <g id="patch_28">
    <path clip-path="url(#p0b49135922)" d="M -108.433523 267.358203 
L -102.472727 267.358203 
L -102.472727 61.652321 
L -108.433523 61.652321 
z
" style="fill:#7570b3;opacity:0.6;stroke:#000000;stroke-linejoin:miter;stroke-width:0.5;"/>
   </g>
   <g id="patch_29">
    <path clip-path="url(#p0b49135922)" d="M -102.472727 267.358203 
L -96.511932 267.358203 
L -96.511932 33.898353 
L -102.472727 33.898353 
z
" style="fill:#7570b3;opacity:0.6;stroke:#000000;stroke-linejoin:miter;stroke-width:0.5;"/>
   </g>
   <g id="patch_30">
    <path clip-path="url(#p0b49135922)" d="M -96.511932 267.358203 
L -90.551136 267.358203 
L -90.551136 17.572489 
L -96.511932 17.572489 
z
" style="fill:#7570b3;opacity:0.6;stroke:#000000;stroke-linejoin:miter;stroke-width:0.5;"/>
   </g>
   <g id="patch_31">
    <path clip-path="url(#p0b49135922)" d="M -90.551136 267.358203 
L -84.590341 267.358203 
L -84.590341 86.141116 
L -90.551136 86.141116 
z
" style="fill:#7570b3;opacity:0.6;stroke:#000000;stroke-linejoin:miter;stroke-width:0.5;"/>
   </g>
   <g id="patch_32">
    <path clip-path="url(#p0b49135922)" d="M -84.590341 267.358203 
L -78.629545 267.358203 
L -78.629545 133.486121 
L -84.590341 133.486121 
z
" style="fill:#7570b3;opacity:0.6;stroke:#000000;stroke-linejoin:miter;stroke-width:0.5;"/>
   </g>
   <g id="patch_33">
    <path clip-path="url(#p0b49135922)" d="M -78.629545 267.358203 
L -72.66875 267.358203 
L -72.66875 187.361471 
L -78.629545 187.361471 
z
" style="fill:#7570b3;opacity:0.6;stroke:#000000;stroke-linejoin:miter;stroke-width:0.5;"/>
   </g>
   <g id="patch_34">
    <path clip-path="url(#p0b49135922)" d="M -72.66875 267.358203 
L -66.707955 267.358203 
L -66.707955 233.073889 
L -72.66875 233.073889 
z
" style="fill:#7570b3;opacity:0.6;stroke:#000000;stroke-linejoin:miter;stroke-width:0.5;"/>
   </g>
   <g id="patch_35">
    <path clip-path="url(#p0b49135922)" d="M -66.707955 267.358203 
L -60.747159 267.358203 
L -60.747159 259.195271 
L -66.707955 259.195271 
z
" style="fill:#7570b3;opacity:0.6;stroke:#000000;stroke-linejoin:miter;stroke-width:0.5;"/>
   </g>
   <g id="patch_36">
    <path clip-path="url(#p0b49135922)" d="M -60.747159 267.358203 
L -54.786364 267.358203 
L -54.786364 265.725617 
L -60.747159 265.725617 
z
" style="fill:#7570b3;opacity:0.6;stroke:#000000;stroke-linejoin:miter;stroke-width:0.5;"/>
   </g>
   <g id="patch_37">
    <path clip-path="url(#p0b49135922)" d="M -54.786364 267.358203 
L -48.825568 267.358203 
L -48.825568 267.358203 
L -54.786364 267.358203 
z
" style="fill:#7570b3;opacity:0.6;stroke:#000000;stroke-linejoin:miter;stroke-width:0.5;"/>
   </g>
   <g id="patch_38">
    <path clip-path="url(#p0b49135922)" d="M -48.825568 267.358203 
L -42.864773 267.358203 
L -42.864773 267.358203 
L -48.825568 267.358203 
z
" style="fill:#7570b3;opacity:0.6;stroke:#000000;stroke-linejoin:miter;stroke-width:0.5;"/>
   </g>
   <g id="patch_39">
    <path clip-path="url(#p0b49135922)" d="M -42.864773 267.358203 
L -36.903977 267.358203 
L -36.903977 267.358203 
L -42.864773 267.358203 
z
" style="fill:#7570b3;opacity:0.6;stroke:#000000;stroke-linejoin:miter;stroke-width:0.5;"/>
   </g>
   <g id="patch_40">
    <path clip-path="url(#p0b49135922)" d="M -36.903977 267.358203 
L -30.943182 267.358203 
L -30.943182 267.358203 
L -36.903977 267.358203 
z
" style="fill:#7570b3;opacity:0.6;stroke:#000000;stroke-linejoin:miter;stroke-width:0.5;"/>
   </g>
   <g id="patch_41">
    <path clip-path="url(#p0b49135922)" d="M -30.943182 267.358203 
L -24.982386 267.358203 
L -24.982386 267.358203 
L -30.943182 267.358203 
z
" style="fill:#7570b3;opacity:0.6;stroke:#000000;stroke-linejoin:miter;stroke-width:0.5;"/>
   </g>
   <g id="patch_42">
    <path clip-path="url(#p0b49135922)" d="M -24.982386 267.358203 
L -19.021591 267.358203 
L -19.021591 267.358203 
L -24.982386 267.358203 
z
" style="fill:#7570b3;opacity:0.6;stroke:#000000;stroke-linejoin:miter;stroke-width:0.5;"/>
   </g>
   <g id="matplotlib.axis_1">
    <g id="xtick_1">
     <g id="line2d_1">
      <defs>
       <path d="M 0 0 
L 0 3.5 
" id="m2e6ee9ada1" style="stroke:#000000;stroke-width:1.6;"/>
      </defs>
      <g/>
     </g>
     <g id="text_1">
      <!-- 0.0 -->
      <defs>
       <path d="M 31.78125 66.40625 
Q 24.171875 66.40625 20.328125 58.90625 
Q 16.5 51.421875 16.5 36.375 
Q 16.5 21.390625 20.328125 13.890625 
Q 24.171875 6.390625 31.78125 6.390625 
Q 39.453125 6.390625 43.28125 13.890625 
Q 47.125 21.390625 47.125 36.375 
Q 47.125 51.421875 43.28125 58.90625 
Q 39.453125 66.40625 31.78125 66.40625 
z
M 31.78125 74.21875 
Q 44.046875 74.21875 50.515625 64.515625 
Q 56.984375 54.828125 56.984375 36.375 
Q 56.984375 17.96875 50.515625 8.265625 
Q 44.046875 -1.421875 31.78125 -1.421875 
Q 19.53125 -1.421875 13.0625 8.265625 
Q 6.59375 17.96875 6.59375 36.375 
Q 6.59375 54.828125 13.0625 64.515625 
Q 19.53125 74.21875 31.78125 74.21875 
z
" id="DejaVuSans-48"/>
       <path d="M 10.6875 12.40625 
L 21 12.40625 
L 21 0 
L 10.6875 0 
z
" id="DejaVuSans-46"/>
      </defs>
      <g transform="translate(-273.356534 297.255078)scale(0.2 -0.2)">
       <use xlink:href="#DejaVuSans-48"/>
       <use x="63.623047" xlink:href="#DejaVuSans-46"/>
       <use x="95.410156" xlink:href="#DejaVuSans-48"/>
      </g>
     </g>
    </g>
    <g id="xtick_2">
     <g id="line2d_2">
      <g/>
     </g>
     <g id="text_2">
      <!-- 0.2 -->
      <defs>
       <path d="M 19.1875 8.296875 
L 53.609375 8.296875 
L 53.609375 0 
L 7.328125 0 
L 7.328125 8.296875 
Q 12.9375 14.109375 22.625 23.890625 
Q 32.328125 33.6875 34.8125 36.53125 
Q 39.546875 41.84375 41.421875 45.53125 
Q 43.3125 49.21875 43.3125 52.78125 
Q 43.3125 58.59375 39.234375 62.25 
Q 35.15625 65.921875 28.609375 65.921875 
Q 23.96875 65.921875 18.8125 64.3125 
Q 13.671875 62.703125 7.8125 59.421875 
L 7.8125 69.390625 
Q 13.765625 71.78125 18.9375 73 
Q 24.125 74.21875 28.421875 74.21875 
Q 39.75 74.21875 46.484375 68.546875 
Q 53.21875 62.890625 53.21875 53.421875 
Q 53.21875 48.921875 51.53125 44.890625 
Q 49.859375 40.875 45.40625 35.40625 
Q 44.1875 33.984375 37.640625 27.21875 
Q 31.109375 20.453125 19.1875 8.296875 
z
" id="DejaVuSans-50"/>
      </defs>
      <g transform="translate(-205.233157 297.255078)scale(0.2 -0.2)">
       <use xlink:href="#DejaVuSans-48"/>
       <use x="63.623047" xlink:href="#DejaVuSans-46"/>
       <use x="95.410156" xlink:href="#DejaVuSans-50"/>
      </g>
     </g>
    </g>
    <g id="xtick_3">
     <g id="line2d_3">
      <g/>
     </g>
     <g id="text_3">
      <!-- 0.4 -->
      <defs>
       <path d="M 37.796875 64.3125 
L 12.890625 25.390625 
L 37.796875 25.390625 
z
M 35.203125 72.90625 
L 47.609375 72.90625 
L 47.609375 25.390625 
L 58.015625 25.390625 
L 58.015625 17.1875 
L 47.609375 17.1875 
L 47.609375 0 
L 37.796875 0 
L 37.796875 17.1875 
L 4.890625 17.1875 
L 4.890625 26.703125 
z
" id="DejaVuSans-52"/>
      </defs>
      <g transform="translate(-137.109781 297.255078)scale(0.2 -0.2)">
       <use xlink:href="#DejaVuSans-48"/>
       <use x="63.623047" xlink:href="#DejaVuSans-46"/>
       <use x="95.410156" xlink:href="#DejaVuSans-52"/>
      </g>
     </g>
    </g>
    <g id="xtick_4">
     <g id="line2d_4">
      <g/>
     </g>
     <g id="text_4">
      <!-- 0.6 -->
      <defs>
       <path d="M 33.015625 40.375 
Q 26.375 40.375 22.484375 35.828125 
Q 18.609375 31.296875 18.609375 23.390625 
Q 18.609375 15.53125 22.484375 10.953125 
Q 26.375 6.390625 33.015625 6.390625 
Q 39.65625 6.390625 43.53125 10.953125 
Q 47.40625 15.53125 47.40625 23.390625 
Q 47.40625 31.296875 43.53125 35.828125 
Q 39.65625 40.375 33.015625 40.375 
z
M 52.59375 71.296875 
L 52.59375 62.3125 
Q 48.875 64.0625 45.09375 64.984375 
Q 41.3125 65.921875 37.59375 65.921875 
Q 27.828125 65.921875 22.671875 59.328125 
Q 17.53125 52.734375 16.796875 39.40625 
Q 19.671875 43.65625 24.015625 45.921875 
Q 28.375 48.1875 33.59375 48.1875 
Q 44.578125 48.1875 50.953125 41.515625 
Q 57.328125 34.859375 57.328125 23.390625 
Q 57.328125 12.15625 50.6875 5.359375 
Q 44.046875 -1.421875 33.015625 -1.421875 
Q 20.359375 -1.421875 13.671875 8.265625 
Q 6.984375 17.96875 6.984375 36.375 
Q 6.984375 53.65625 15.1875 63.9375 
Q 23.390625 74.21875 37.203125 74.21875 
Q 40.921875 74.21875 44.703125 73.484375 
Q 48.484375 72.75 52.59375 71.296875 
z
" id="DejaVuSans-54"/>
      </defs>
      <g transform="translate(-68.986404 297.255078)scale(0.2 -0.2)">
       <use xlink:href="#DejaVuSans-48"/>
       <use x="63.623047" xlink:href="#DejaVuSans-46"/>
       <use x="95.410156" xlink:href="#DejaVuSans-54"/>
      </g>
     </g>
    </g>
    <g id="text_5">
     <!--   -->
     <defs>
      <path id="DejaVuSans-32"/>
     </defs>
     <g transform="translate(-141.415625 320.611328)scale(0.2 -0.2)">
      <use xlink:href="#DejaVuSans-32"/>
     </g>
    </g>
   </g>
   <g id="matplotlib.axis_2">
    <g id="ytick_1">
     <g id="line2d_5">
      <defs>
       <path d="M 0 0 
L -3.5 0 
" id="m652b296d57" style="stroke:#000000;stroke-width:1.6;"/>
      </defs>
      <g/>
     </g>
     <g id="text_6">
      <!-- 0.00 -->
      <g transform="translate(-328.60625 274.956641)scale(0.2 -0.2)">
       <use xlink:href="#DejaVuSans-48"/>
       <use x="63.623047" xlink:href="#DejaVuSans-46"/>
       <use x="95.410156" xlink:href="#DejaVuSans-48"/>
       <use x="159.033203" xlink:href="#DejaVuSans-48"/>
      </g>
     </g>
    </g>
    <g id="ytick_2">
     <g id="line2d_6">
      <g/>
     </g>
     <g id="text_7">
      <!-- 0.05 -->
      <defs>
       <path d="M 10.796875 72.90625 
L 49.515625 72.90625 
L 49.515625 64.59375 
L 19.828125 64.59375 
L 19.828125 46.734375 
Q 21.96875 47.46875 24.109375 47.828125 
Q 26.265625 48.1875 28.421875 48.1875 
Q 40.625 48.1875 47.75 41.5 
Q 54.890625 34.8125 54.890625 23.390625 
Q 54.890625 11.625 47.5625 5.09375 
Q 40.234375 -1.421875 26.90625 -1.421875 
Q 22.3125 -1.421875 17.546875 -0.640625 
Q 12.796875 0.140625 7.71875 1.703125 
L 7.71875 11.625 
Q 12.109375 9.234375 16.796875 8.0625 
Q 21.484375 6.890625 26.703125 6.890625 
Q 35.15625 6.890625 40.078125 11.328125 
Q 45.015625 15.765625 45.015625 23.390625 
Q 45.015625 31 40.078125 35.4375 
Q 35.15625 39.890625 26.703125 39.890625 
Q 22.75 39.890625 18.8125 39.015625 
Q 14.890625 38.140625 10.796875 36.28125 
z
" id="DejaVuSans-53"/>
      </defs>
      <g transform="translate(-328.60625 193.327322)scale(0.2 -0.2)">
       <use xlink:href="#DejaVuSans-48"/>
       <use x="63.623047" xlink:href="#DejaVuSans-46"/>
       <use x="95.410156" xlink:href="#DejaVuSans-48"/>
       <use x="159.033203" xlink:href="#DejaVuSans-53"/>
      </g>
     </g>
    </g>
    <g id="ytick_3">
     <g id="line2d_7">
      <g/>
     </g>
     <g id="text_8">
      <!-- 0.10 -->
      <defs>
       <path d="M 12.40625 8.296875 
L 28.515625 8.296875 
L 28.515625 63.921875 
L 10.984375 60.40625 
L 10.984375 69.390625 
L 28.421875 72.90625 
L 38.28125 72.90625 
L 38.28125 8.296875 
L 54.390625 8.296875 
L 54.390625 0 
L 12.40625 0 
z
" id="DejaVuSans-49"/>
      </defs>
      <g transform="translate(-328.60625 111.698004)scale(0.2 -0.2)">
       <use xlink:href="#DejaVuSans-48"/>
       <use x="63.623047" xlink:href="#DejaVuSans-46"/>
       <use x="95.410156" xlink:href="#DejaVuSans-49"/>
       <use x="159.033203" xlink:href="#DejaVuSans-48"/>
      </g>
     </g>
    </g>
    <g id="ytick_4">
     <g id="line2d_8">
      <g/>
     </g>
     <g id="text_9">
      <!-- 0.15 -->
      <g transform="translate(-328.60625 30.068685)scale(0.2 -0.2)">
       <use xlink:href="#DejaVuSans-48"/>
       <use x="63.623047" xlink:href="#DejaVuSans-46"/>
       <use x="95.410156" xlink:href="#DejaVuSans-49"/>
       <use x="159.033203" xlink:href="#DejaVuSans-53"/>
      </g>
     </g>
    </g>
    <g id="text_10">
     <!--   -->
     <g transform="translate(-336.2665 139.017453)rotate(-90)scale(0.176 -0.176)">
      <use xlink:href="#DejaVuSans-32"/>
     </g>
    </g>
   </g>
   <g id="patch_43">
    <path style="fill:none;stroke:#000000;stroke-linecap:square;stroke-linejoin:miter;stroke-width:0.8;"/>
   </g>
   <g id="patch_44">
    <path style="fill:none;stroke:#000000;stroke-linecap:square;stroke-linejoin:miter;stroke-width:0.8;"/>
   </g>
  </g>
  <g id="axes_2">
   <g id="patch_45">
    <path d="M 100.7 267.358203 
L 362.975 267.358203 
L 362.975 5.083203 
L 100.7 5.083203 
z
" style="fill:#ffffff;"/>
   </g>
   <g id="PolyCollection_1">
    <defs>
     <path d="M 118.086511 -286.098785 
L 118.086511 -286.282465 
L 120.13446 -286.27556 
L 122.182409 -286.256699 
L 124.230359 -286.233863 
L 126.278308 -286.214426 
L 128.326257 -286.201646 
L 130.374206 -286.194917 
L 132.422156 -286.192031 
L 134.470105 -286.191013 
L 136.518054 -286.190715 
L 138.566004 -286.190643 
L 140.613953 -286.190628 
L 142.661902 -286.190625 
L 144.709852 -286.190625 
L 146.757801 -286.190625 
L 148.80575 -286.190625 
L 150.853699 -286.190625 
L 152.901649 -286.190625 
L 154.949598 -286.190625 
L 156.997547 -286.190625 
L 159.045497 -286.190626 
L 161.093446 -286.19063 
L 163.141395 -286.190656 
L 165.189345 -286.190774 
L 167.237294 -286.191231 
L 169.285243 -286.192702 
L 171.333192 -286.196613 
L 173.381142 -286.205152 
L 175.429091 -286.220304 
L 177.47704 -286.241791 
L 179.52499 -286.26544 
L 181.572939 -286.284645 
L 183.620888 -286.295536 
L 185.668838 -286.301979 
L 187.716787 -286.314931 
L 189.764736 -286.345437 
L 191.812685 -286.396926 
L 193.860635 -286.462887 
L 195.908584 -286.530291 
L 197.956533 -286.585013 
L 200.004483 -286.617245 
L 202.052432 -286.626734 
L 204.100381 -286.624719 
L 206.148331 -286.628249 
L 208.19628 -286.649998 
L 210.244229 -286.693709 
L 212.292179 -286.759157 
L 214.340128 -286.84799 
L 216.388077 -286.961683 
L 218.436026 -287.0951 
L 220.483976 -287.234996 
L 222.531925 -287.365322 
L 224.579874 -287.474189 
L 226.627824 -287.559198 
L 228.675773 -287.629996 
L 230.723722 -287.705616 
L 232.771672 -287.806006 
L 234.819621 -287.943239 
L 236.86757 -288.121094 
L 238.915519 -288.34659 
L 240.963469 -288.644627 
L 243.011418 -289.057609 
L 245.059367 -289.622226 
L 247.107317 -290.342507 
L 249.155266 -291.189039 
L 251.203215 -292.127432 
L 253.251165 -293.14662 
L 255.299114 -294.264961 
L 257.347063 -295.524702 
L 259.395012 -296.987957 
L 261.442962 -298.718565 
L 263.490911 -300.73257 
L 265.53886 -302.942931 
L 267.58681 -305.154719 
L 269.634759 -307.137228 
L 271.682708 -308.732256 
L 273.730658 -309.919099 
L 275.778607 -310.789258 
L 277.826556 -311.45932 
L 279.874505 -311.989702 
L 281.922455 -312.348171 
L 283.970404 -312.418125 
L 286.018353 -312.04876 
L 288.066303 -311.136883 
L 290.114252 -309.691606 
L 292.162201 -307.828523 
L 294.210151 -305.706638 
L 296.2581 -303.47627 
L 298.306049 -301.271254 
L 300.353999 -299.20791 
L 302.401948 -297.351183 
L 304.449897 -295.676677 
L 306.497846 -294.092931 
L 308.545796 -292.52917 
L 310.593745 -291.010577 
L 312.641694 -289.646641 
L 314.689644 -288.547256 
L 316.737593 -287.748574 
L 318.785542 -287.206435 
L 320.833492 -286.8429 
L 320.833492 -285.53835 
L 320.833492 -285.53835 
L 318.785542 -285.174815 
L 316.737593 -284.632676 
L 314.689644 -283.833994 
L 312.641694 -282.734609 
L 310.593745 -281.370673 
L 308.545796 -279.85208 
L 306.497846 -278.288319 
L 304.449897 -276.704573 
L 302.401948 -275.030067 
L 300.353999 -273.17334 
L 298.306049 -271.109996 
L 296.2581 -268.90498 
L 294.210151 -266.674612 
L 292.162201 -264.552727 
L 290.114252 -262.689644 
L 288.066303 -261.244367 
L 286.018353 -260.33249 
L 283.970404 -259.963125 
L 281.922455 -260.033079 
L 279.874505 -260.391548 
L 277.826556 -260.92193 
L 275.778607 -261.591992 
L 273.730658 -262.462151 
L 271.682708 -263.648994 
L 269.634759 -265.244022 
L 267.58681 -267.226531 
L 265.53886 -269.438319 
L 263.490911 -271.64868 
L 261.442962 -273.662685 
L 259.395012 -275.393293 
L 257.347063 -276.856548 
L 255.299114 -278.116289 
L 253.251165 -279.23463 
L 251.203215 -280.253818 
L 249.155266 -281.192211 
L 247.107317 -282.038743 
L 245.059367 -282.759024 
L 243.011418 -283.323641 
L 240.963469 -283.736623 
L 238.915519 -284.03466 
L 236.86757 -284.260156 
L 234.819621 -284.438011 
L 232.771672 -284.575244 
L 230.723722 -284.675634 
L 228.675773 -284.751254 
L 226.627824 -284.822052 
L 224.579874 -284.907061 
L 222.531925 -285.015928 
L 220.483976 -285.146254 
L 218.436026 -285.28615 
L 216.388077 -285.419567 
L 214.340128 -285.53326 
L 212.292179 -285.622093 
L 210.244229 -285.687541 
L 208.19628 -285.731252 
L 206.148331 -285.753001 
L 204.100381 -285.756531 
L 202.052432 -285.754516 
L 200.004483 -285.764005 
L 197.956533 -285.796237 
L 195.908584 -285.850959 
L 193.860635 -285.918363 
L 191.812685 -285.984324 
L 189.764736 -286.035813 
L 187.716787 -286.066319 
L 185.668838 -286.079271 
L 183.620888 -286.085714 
L 181.572939 -286.096605 
L 179.52499 -286.11581 
L 177.47704 -286.139459 
L 175.429091 -286.160946 
L 173.381142 -286.176098 
L 171.333192 -286.184637 
L 169.285243 -286.188548 
L 167.237294 -286.190019 
L 165.189345 -286.190476 
L 163.141395 -286.190594 
L 161.093446 -286.19062 
L 159.045497 -286.190624 
L 156.997547 -286.190625 
L 154.949598 -286.190625 
L 152.901649 -286.190625 
L 150.853699 -286.190625 
L 148.80575 -286.190625 
L 146.757801 -286.190625 
L 144.709852 -286.190625 
L 142.661902 -286.190625 
L 140.613953 -286.190622 
L 138.566004 -286.190607 
L 136.518054 -286.190535 
L 134.470105 -286.190237 
L 132.422156 -286.189219 
L 130.374206 -286.186333 
L 128.326257 -286.179604 
L 126.278308 -286.166824 
L 124.230359 -286.147387 
L 122.182409 -286.124551 
L 120.13446 -286.10569 
L 118.086511 -286.098785 
z
" id="mf3492605f1" style="stroke:#575757;"/>
    </defs>
    <g clip-path="url(#p5031465b41)">
     <use style="fill:#7c78ab;stroke:#575757;" x="0" xlink:href="#mf3492605f1" y="324.058203"/>
    </g>
   </g>
   <g id="PolyCollection_2">
    <defs>
     <path d="M 166.794779 -200.418668 
L 166.794779 -240.825082 
L 168.164541 -241.197982 
L 169.534303 -241.561326 
L 170.904065 -241.914675 
L 172.273827 -242.257618 
L 173.643589 -242.589778 
L 175.013351 -242.910808 
L 176.383113 -243.220394 
L 177.752875 -243.518254 
L 179.122636 -243.804134 
L 180.492398 -244.077811 
L 181.86216 -244.33909 
L 183.231922 -244.587803 
L 184.601684 -244.823807 
L 185.971446 -245.046986 
L 187.341208 -245.257242 
L 188.71097 -245.454501 
L 190.080732 -245.638709 
L 191.450494 -245.809826 
L 192.820256 -245.967831 
L 194.190018 -246.112717 
L 195.55978 -246.24449 
L 196.929541 -246.363167 
L 198.299303 -246.468777 
L 199.669065 -246.561355 
L 201.038827 -246.64095 
L 202.408589 -246.707614 
L 203.778351 -246.761409 
L 205.148113 -246.802404 
L 206.517875 -246.830673 
L 207.887637 -246.8463 
L 209.257399 -246.849375 
L 210.627161 -246.839995 
L 211.996923 -246.818266 
L 213.366685 -246.784304 
L 214.736447 -246.738233 
L 216.106208 -246.68019 
L 217.47597 -246.610323 
L 218.845732 -246.528793 
L 220.215494 -246.435775 
L 221.585256 -246.331461 
L 222.955018 -246.216058 
L 224.32478 -246.08979 
L 225.694542 -245.9529 
L 227.064304 -245.80565 
L 228.434066 -245.648322 
L 229.803828 -245.481218 
L 231.17359 -245.30466 
L 232.543352 -245.11899 
L 233.913113 -244.924573 
L 235.282875 -244.72179 
L 236.652637 -244.511044 
L 238.022399 -244.292754 
L 239.392161 -244.067359 
L 240.761923 -243.83531 
L 242.131685 -243.597074 
L 243.501447 -243.353129 
L 244.871209 -243.103962 
L 246.240971 -242.85007 
L 247.610733 -242.591952 
L 248.980495 -242.33011 
L 250.350257 -242.065044 
L 251.720018 -241.797253 
L 253.08978 -241.527227 
L 254.459542 -241.255448 
L 255.829304 -240.982383 
L 257.199066 -240.708487 
L 258.568828 -240.434193 
L 259.93859 -240.159915 
L 261.308352 -239.886044 
L 262.678114 -239.612943 
L 264.047876 -239.340948 
L 265.417638 -239.070364 
L 266.7874 -238.801467 
L 268.157162 -238.534496 
L 269.526924 -238.26966 
L 270.896685 -238.00713 
L 272.266447 -237.747043 
L 273.636209 -237.489503 
L 275.005971 -237.234576 
L 276.375733 -236.982296 
L 277.745495 -236.732663 
L 279.115257 -236.485645 
L 280.485019 -236.241181 
L 281.854781 -235.999181 
L 283.224543 -235.759528 
L 284.594305 -235.522082 
L 285.964067 -235.286684 
L 287.333829 -235.053154 
L 288.70359 -234.821297 
L 290.073352 -234.590908 
L 291.443114 -234.36177 
L 292.812876 -234.133663 
L 294.182638 -233.906361 
L 295.5524 -233.679642 
L 296.922162 -233.453284 
L 298.291924 -233.227076 
L 299.661686 -233.000812 
L 301.031448 -232.7743 
L 302.40121 -232.547364 
L 302.40121 -208.696386 
L 302.40121 -208.696386 
L 301.031448 -208.46945 
L 299.661686 -208.242938 
L 298.291924 -208.016674 
L 296.922162 -207.790466 
L 295.5524 -207.564108 
L 294.182638 -207.337389 
L 292.812876 -207.110087 
L 291.443114 -206.88198 
L 290.073352 -206.652842 
L 288.70359 -206.422453 
L 287.333829 -206.190596 
L 285.964067 -205.957066 
L 284.594305 -205.721668 
L 283.224543 -205.484222 
L 281.854781 -205.244569 
L 280.485019 -205.002569 
L 279.115257 -204.758105 
L 277.745495 -204.511087 
L 276.375733 -204.261454 
L 275.005971 -204.009174 
L 273.636209 -203.754247 
L 272.266447 -203.496707 
L 270.896685 -203.23662 
L 269.526924 -202.97409 
L 268.157162 -202.709254 
L 266.7874 -202.442283 
L 265.417638 -202.173386 
L 264.047876 -201.902802 
L 262.678114 -201.630807 
L 261.308352 -201.357706 
L 259.93859 -201.083835 
L 258.568828 -200.809557 
L 257.199066 -200.535263 
L 255.829304 -200.261367 
L 254.459542 -199.988302 
L 253.08978 -199.716523 
L 251.720018 -199.446497 
L 250.350257 -199.178706 
L 248.980495 -198.91364 
L 247.610733 -198.651798 
L 246.240971 -198.39368 
L 244.871209 -198.139788 
L 243.501447 -197.890621 
L 242.131685 -197.646676 
L 240.761923 -197.40844 
L 239.392161 -197.176391 
L 238.022399 -196.950996 
L 236.652637 -196.732706 
L 235.282875 -196.52196 
L 233.913113 -196.319177 
L 232.543352 -196.12476 
L 231.17359 -195.93909 
L 229.803828 -195.762532 
L 228.434066 -195.595428 
L 227.064304 -195.4381 
L 225.694542 -195.29085 
L 224.32478 -195.15396 
L 222.955018 -195.027692 
L 221.585256 -194.912289 
L 220.215494 -194.807975 
L 218.845732 -194.714957 
L 217.47597 -194.633427 
L 216.106208 -194.56356 
L 214.736447 -194.505517 
L 213.366685 -194.459446 
L 211.996923 -194.425484 
L 210.627161 -194.403755 
L 209.257399 -194.394375 
L 207.887637 -194.39745 
L 206.517875 -194.413077 
L 205.148113 -194.441346 
L 203.778351 -194.482341 
L 202.408589 -194.536136 
L 201.038827 -194.6028 
L 199.669065 -194.682395 
L 198.299303 -194.774973 
L 196.929541 -194.880583 
L 195.55978 -194.99926 
L 194.190018 -195.131033 
L 192.820256 -195.275919 
L 191.450494 -195.433924 
L 190.080732 -195.605041 
L 188.71097 -195.789249 
L 187.341208 -195.986508 
L 185.971446 -196.196764 
L 184.601684 -196.419943 
L 183.231922 -196.655947 
L 181.86216 -196.90466 
L 180.492398 -197.165939 
L 179.122636 -197.439616 
L 177.752875 -197.725496 
L 176.383113 -198.023356 
L 175.013351 -198.332942 
L 173.643589 -198.653972 
L 172.273827 -198.986132 
L 170.904065 -199.329075 
L 169.534303 -199.682424 
L 168.164541 -200.045768 
L 166.794779 -200.418668 
z
" id="m40a645f9d9" style="stroke:#575757;"/>
    </defs>
    <g clip-path="url(#p5031465b41)">
     <use style="fill:#7c78ab;stroke:#575757;" x="0" xlink:href="#m40a645f9d9" y="324.058203"/>
    </g>
   </g>
   <g id="patch_46">
    <path clip-path="url(#p5031465b41)" d="M 118.185 37.867578 
L 118.185 37.867578 
L 118.185 37.867578 
L 118.185 37.867578 
z
" style="fill:#7c78ab;stroke:#575757;stroke-linejoin:miter;stroke-width:0.5;"/>
   </g>
   <g id="matplotlib.axis_3">
    <g id="xtick_5">
     <g id="line2d_9">
      <g>
       <use style="stroke:#000000;stroke-width:1.6;" x="118.185" xlink:href="#m2e6ee9ada1" y="267.358203"/>
      </g>
     </g>
     <g id="text_11">
      <!-- 0.0 -->
      <g transform="translate(102.281875 297.255078)scale(0.2 -0.2)">
       <use xlink:href="#DejaVuSans-48"/>
       <use x="63.623047" xlink:href="#DejaVuSans-46"/>
       <use x="95.410156" xlink:href="#DejaVuSans-48"/>
      </g>
     </g>
    </g>
    <g id="xtick_6">
     <g id="line2d_10">
      <g>
       <use style="stroke:#000000;stroke-width:1.6;" x="188.125" xlink:href="#m2e6ee9ada1" y="267.358203"/>
      </g>
     </g>
     <g id="text_12">
      <!-- 0.2 -->
      <g transform="translate(172.221875 297.255078)scale(0.2 -0.2)">
       <use xlink:href="#DejaVuSans-48"/>
       <use x="63.623047" xlink:href="#DejaVuSans-46"/>
       <use x="95.410156" xlink:href="#DejaVuSans-50"/>
      </g>
     </g>
    </g>
    <g id="xtick_7">
     <g id="line2d_11">
      <g>
       <use style="stroke:#000000;stroke-width:1.6;" x="258.065" xlink:href="#m2e6ee9ada1" y="267.358203"/>
      </g>
     </g>
     <g id="text_13">
      <!-- 0.4 -->
      <g transform="translate(242.161875 297.255078)scale(0.2 -0.2)">
       <use xlink:href="#DejaVuSans-48"/>
       <use x="63.623047" xlink:href="#DejaVuSans-46"/>
       <use x="95.410156" xlink:href="#DejaVuSans-52"/>
      </g>
     </g>
    </g>
    <g id="xtick_8">
     <g id="line2d_12">
      <g>
       <use style="stroke:#000000;stroke-width:1.6;" x="328.005" xlink:href="#m2e6ee9ada1" y="267.358203"/>
      </g>
     </g>
     <g id="text_14">
      <!-- 0.6 -->
      <g transform="translate(312.101875 297.255078)scale(0.2 -0.2)">
       <use xlink:href="#DejaVuSans-48"/>
       <use x="63.623047" xlink:href="#DejaVuSans-46"/>
       <use x="95.410156" xlink:href="#DejaVuSans-54"/>
      </g>
     </g>
    </g>
    <g id="text_15">
     <!-- Max Attention -->
     <defs>
      <path d="M 9.8125 72.90625 
L 24.515625 72.90625 
L 43.109375 23.296875 
L 61.8125 72.90625 
L 76.515625 72.90625 
L 76.515625 0 
L 66.890625 0 
L 66.890625 64.015625 
L 48.09375 14.015625 
L 38.1875 14.015625 
L 19.390625 64.015625 
L 19.390625 0 
L 9.8125 0 
z
" id="DejaVuSans-77"/>
      <path d="M 34.28125 27.484375 
Q 23.390625 27.484375 19.1875 25 
Q 14.984375 22.515625 14.984375 16.5 
Q 14.984375 11.71875 18.140625 8.90625 
Q 21.296875 6.109375 26.703125 6.109375 
Q 34.1875 6.109375 38.703125 11.40625 
Q 43.21875 16.703125 43.21875 25.484375 
L 43.21875 27.484375 
z
M 52.203125 31.203125 
L 52.203125 0 
L 43.21875 0 
L 43.21875 8.296875 
Q 40.140625 3.328125 35.546875 0.953125 
Q 30.953125 -1.421875 24.3125 -1.421875 
Q 15.921875 -1.421875 10.953125 3.296875 
Q 6 8.015625 6 15.921875 
Q 6 25.140625 12.171875 29.828125 
Q 18.359375 34.515625 30.609375 34.515625 
L 43.21875 34.515625 
L 43.21875 35.40625 
Q 43.21875 41.609375 39.140625 45 
Q 35.0625 48.390625 27.6875 48.390625 
Q 23 48.390625 18.546875 47.265625 
Q 14.109375 46.140625 10.015625 43.890625 
L 10.015625 52.203125 
Q 14.9375 54.109375 19.578125 55.046875 
Q 24.21875 56 28.609375 56 
Q 40.484375 56 46.34375 49.84375 
Q 52.203125 43.703125 52.203125 31.203125 
z
" id="DejaVuSans-97"/>
      <path d="M 54.890625 54.6875 
L 35.109375 28.078125 
L 55.90625 0 
L 45.3125 0 
L 29.390625 21.484375 
L 13.484375 0 
L 2.875 0 
L 24.125 28.609375 
L 4.6875 54.6875 
L 15.28125 54.6875 
L 29.78125 35.203125 
L 44.28125 54.6875 
z
" id="DejaVuSans-120"/>
      <path d="M 34.1875 63.1875 
L 20.796875 26.90625 
L 47.609375 26.90625 
z
M 28.609375 72.90625 
L 39.796875 72.90625 
L 67.578125 0 
L 57.328125 0 
L 50.6875 18.703125 
L 17.828125 18.703125 
L 11.1875 0 
L 0.78125 0 
z
" id="DejaVuSans-65"/>
      <path d="M 18.3125 70.21875 
L 18.3125 54.6875 
L 36.8125 54.6875 
L 36.8125 47.703125 
L 18.3125 47.703125 
L 18.3125 18.015625 
Q 18.3125 11.328125 20.140625 9.421875 
Q 21.96875 7.515625 27.59375 7.515625 
L 36.8125 7.515625 
L 36.8125 0 
L 27.59375 0 
Q 17.1875 0 13.234375 3.875 
Q 9.28125 7.765625 9.28125 18.015625 
L 9.28125 47.703125 
L 2.6875 47.703125 
L 2.6875 54.6875 
L 9.28125 54.6875 
L 9.28125 70.21875 
z
" id="DejaVuSans-116"/>
      <path d="M 56.203125 29.59375 
L 56.203125 25.203125 
L 14.890625 25.203125 
Q 15.484375 15.921875 20.484375 11.0625 
Q 25.484375 6.203125 34.421875 6.203125 
Q 39.59375 6.203125 44.453125 7.46875 
Q 49.3125 8.734375 54.109375 11.28125 
L 54.109375 2.78125 
Q 49.265625 0.734375 44.1875 -0.34375 
Q 39.109375 -1.421875 33.890625 -1.421875 
Q 20.796875 -1.421875 13.15625 6.1875 
Q 5.515625 13.8125 5.515625 26.8125 
Q 5.515625 40.234375 12.765625 48.109375 
Q 20.015625 56 32.328125 56 
Q 43.359375 56 49.78125 48.890625 
Q 56.203125 41.796875 56.203125 29.59375 
z
M 47.21875 32.234375 
Q 47.125 39.59375 43.09375 43.984375 
Q 39.0625 48.390625 32.421875 48.390625 
Q 24.90625 48.390625 20.390625 44.140625 
Q 15.875 39.890625 15.1875 32.171875 
z
" id="DejaVuSans-101"/>
      <path d="M 54.890625 33.015625 
L 54.890625 0 
L 45.90625 0 
L 45.90625 32.71875 
Q 45.90625 40.484375 42.875 44.328125 
Q 39.84375 48.1875 33.796875 48.1875 
Q 26.515625 48.1875 22.3125 43.546875 
Q 18.109375 38.921875 18.109375 30.90625 
L 18.109375 0 
L 9.078125 0 
L 9.078125 54.6875 
L 18.109375 54.6875 
L 18.109375 46.1875 
Q 21.34375 51.125 25.703125 53.5625 
Q 30.078125 56 35.796875 56 
Q 45.21875 56 50.046875 50.171875 
Q 54.890625 44.34375 54.890625 33.015625 
z
" id="DejaVuSans-110"/>
      <path d="M 9.421875 54.6875 
L 18.40625 54.6875 
L 18.40625 0 
L 9.421875 0 
z
M 9.421875 75.984375 
L 18.40625 75.984375 
L 18.40625 64.59375 
L 9.421875 64.59375 
z
" id="DejaVuSans-105"/>
      <path d="M 30.609375 48.390625 
Q 23.390625 48.390625 19.1875 42.75 
Q 14.984375 37.109375 14.984375 27.296875 
Q 14.984375 17.484375 19.15625 11.84375 
Q 23.34375 6.203125 30.609375 6.203125 
Q 37.796875 6.203125 41.984375 11.859375 
Q 46.1875 17.53125 46.1875 27.296875 
Q 46.1875 37.015625 41.984375 42.703125 
Q 37.796875 48.390625 30.609375 48.390625 
z
M 30.609375 56 
Q 42.328125 56 49.015625 48.375 
Q 55.71875 40.765625 55.71875 27.296875 
Q 55.71875 13.875 49.015625 6.21875 
Q 42.328125 -1.421875 30.609375 -1.421875 
Q 18.84375 -1.421875 12.171875 6.21875 
Q 5.515625 13.875 5.515625 27.296875 
Q 5.515625 40.765625 12.171875 48.375 
Q 18.84375 56 30.609375 56 
z
" id="DejaVuSans-111"/>
     </defs>
     <g transform="translate(161.659375 320.611328)scale(0.2 -0.2)">
      <use xlink:href="#DejaVuSans-77"/>
      <use x="86.279297" xlink:href="#DejaVuSans-97"/>
      <use x="147.558594" xlink:href="#DejaVuSans-120"/>
      <use x="206.738281" xlink:href="#DejaVuSans-32"/>
      <use x="238.525391" xlink:href="#DejaVuSans-65"/>
      <use x="306.917969" xlink:href="#DejaVuSans-116"/>
      <use x="346.126953" xlink:href="#DejaVuSans-116"/>
      <use x="385.335938" xlink:href="#DejaVuSans-101"/>
      <use x="446.859375" xlink:href="#DejaVuSans-110"/>
      <use x="510.238281" xlink:href="#DejaVuSans-116"/>
      <use x="549.447266" xlink:href="#DejaVuSans-105"/>
      <use x="577.230469" xlink:href="#DejaVuSans-111"/>
      <use x="638.412109" xlink:href="#DejaVuSans-110"/>
     </g>
    </g>
   </g>
   <g id="matplotlib.axis_4">
    <g id="ytick_5">
     <g id="line2d_13">
      <g>
       <use style="stroke:#000000;stroke-width:1.6;" x="100.7" xlink:href="#m652b296d57" y="37.867578"/>
      </g>
     </g>
     <g id="text_16">
      <!-- [0.00, -->
      <defs>
       <path d="M 8.59375 75.984375 
L 29.296875 75.984375 
L 29.296875 69 
L 17.578125 69 
L 17.578125 -6.203125 
L 29.296875 -6.203125 
L 29.296875 -13.1875 
L 8.59375 -13.1875 
z
" id="DejaVuSans-91"/>
       <path d="M 11.71875 12.40625 
L 22.015625 12.40625 
L 22.015625 4 
L 14.015625 -11.625 
L 7.71875 -11.625 
L 11.71875 4 
z
" id="DejaVuSans-44"/>
      </defs>
      <g transform="translate(27.309375 34.268203)scale(0.2 -0.2)">
       <use xlink:href="#DejaVuSans-91"/>
       <use x="39.013672" xlink:href="#DejaVuSans-48"/>
       <use x="102.636719" xlink:href="#DejaVuSans-46"/>
       <use x="134.423828" xlink:href="#DejaVuSans-48"/>
       <use x="198.046875" xlink:href="#DejaVuSans-48"/>
       <use x="261.669922" xlink:href="#DejaVuSans-44"/>
      </g>
      <!-- 0.25) -->
      <defs>
       <path d="M 8.015625 75.875 
L 15.828125 75.875 
Q 23.140625 64.359375 26.78125 53.3125 
Q 30.421875 42.28125 30.421875 31.390625 
Q 30.421875 20.453125 26.78125 9.375 
Q 23.140625 -1.703125 15.828125 -13.1875 
L 8.015625 -13.1875 
Q 14.5 -2 17.703125 9.0625 
Q 20.90625 20.125 20.90625 31.390625 
Q 20.90625 42.671875 17.703125 53.65625 
Q 14.5 64.65625 8.015625 75.875 
z
" id="DejaVuSans-41"/>
      </defs>
      <g transform="translate(33.665625 56.663828)scale(0.2 -0.2)">
       <use xlink:href="#DejaVuSans-48"/>
       <use x="63.623047" xlink:href="#DejaVuSans-46"/>
       <use x="95.410156" xlink:href="#DejaVuSans-50"/>
       <use x="159.033203" xlink:href="#DejaVuSans-53"/>
       <use x="222.65625" xlink:href="#DejaVuSans-41"/>
      </g>
     </g>
    </g>
    <g id="ytick_6">
     <g id="line2d_14">
      <g>
       <use style="stroke:#000000;stroke-width:1.6;" x="100.7" xlink:href="#m652b296d57" y="103.436328"/>
      </g>
     </g>
     <g id="text_17">
      <!-- [0.25, -->
      <g transform="translate(27.309375 99.836953)scale(0.2 -0.2)">
       <use xlink:href="#DejaVuSans-91"/>
       <use x="39.013672" xlink:href="#DejaVuSans-48"/>
       <use x="102.636719" xlink:href="#DejaVuSans-46"/>
       <use x="134.423828" xlink:href="#DejaVuSans-50"/>
       <use x="198.046875" xlink:href="#DejaVuSans-53"/>
       <use x="261.669922" xlink:href="#DejaVuSans-44"/>
      </g>
      <!-- 0.50) -->
      <g transform="translate(33.665625 122.232578)scale(0.2 -0.2)">
       <use xlink:href="#DejaVuSans-48"/>
       <use x="63.623047" xlink:href="#DejaVuSans-46"/>
       <use x="95.410156" xlink:href="#DejaVuSans-53"/>
       <use x="159.033203" xlink:href="#DejaVuSans-48"/>
       <use x="222.65625" xlink:href="#DejaVuSans-41"/>
      </g>
     </g>
    </g>
    <g id="ytick_7">
     <g id="line2d_15">
      <g>
       <use style="stroke:#000000;stroke-width:1.6;" x="100.7" xlink:href="#m652b296d57" y="169.005078"/>
      </g>
     </g>
     <g id="text_18">
      <!-- [0.50, -->
      <g transform="translate(27.309375 165.405703)scale(0.2 -0.2)">
       <use xlink:href="#DejaVuSans-91"/>
       <use x="39.013672" xlink:href="#DejaVuSans-48"/>
       <use x="102.636719" xlink:href="#DejaVuSans-46"/>
       <use x="134.423828" xlink:href="#DejaVuSans-53"/>
       <use x="198.046875" xlink:href="#DejaVuSans-48"/>
       <use x="261.669922" xlink:href="#DejaVuSans-44"/>
      </g>
      <!-- 0.75) -->
      <defs>
       <path d="M 8.203125 72.90625 
L 55.078125 72.90625 
L 55.078125 68.703125 
L 28.609375 0 
L 18.3125 0 
L 43.21875 64.59375 
L 8.203125 64.59375 
z
" id="DejaVuSans-55"/>
      </defs>
      <g transform="translate(33.665625 187.801328)scale(0.2 -0.2)">
       <use xlink:href="#DejaVuSans-48"/>
       <use x="63.623047" xlink:href="#DejaVuSans-46"/>
       <use x="95.410156" xlink:href="#DejaVuSans-55"/>
       <use x="159.033203" xlink:href="#DejaVuSans-53"/>
       <use x="222.65625" xlink:href="#DejaVuSans-41"/>
      </g>
     </g>
    </g>
    <g id="ytick_8">
     <g id="line2d_16">
      <g>
       <use style="stroke:#000000;stroke-width:1.6;" x="100.7" xlink:href="#m652b296d57" y="234.573828"/>
      </g>
     </g>
     <g id="text_19">
      <!-- [0.75, -->
      <g transform="translate(27.309375 230.974453)scale(0.2 -0.2)">
       <use xlink:href="#DejaVuSans-91"/>
       <use x="39.013672" xlink:href="#DejaVuSans-48"/>
       <use x="102.636719" xlink:href="#DejaVuSans-46"/>
       <use x="134.423828" xlink:href="#DejaVuSans-55"/>
       <use x="198.046875" xlink:href="#DejaVuSans-53"/>
       <use x="261.669922" xlink:href="#DejaVuSans-44"/>
      </g>
      <!-- 1.00) -->
      <g transform="translate(33.665625 253.370078)scale(0.2 -0.2)">
       <use xlink:href="#DejaVuSans-49"/>
       <use x="63.623047" xlink:href="#DejaVuSans-46"/>
       <use x="95.410156" xlink:href="#DejaVuSans-48"/>
       <use x="159.033203" xlink:href="#DejaVuSans-48"/>
       <use x="222.65625" xlink:href="#DejaVuSans-41"/>
      </g>
     </g>
    </g>
    <g id="text_20">
     <!-- Max JS Divergence within $\epsilon$ -->
     <defs>
      <path d="M 9.8125 72.90625 
L 19.671875 72.90625 
L 19.671875 5.078125 
Q 19.671875 -8.109375 14.671875 -14.0625 
Q 9.671875 -20.015625 -1.421875 -20.015625 
L -5.171875 -20.015625 
L -5.171875 -11.71875 
L -2.09375 -11.71875 
Q 4.4375 -11.71875 7.125 -8.046875 
Q 9.8125 -4.390625 9.8125 5.078125 
z
" id="DejaVuSans-74"/>
      <path d="M 53.515625 70.515625 
L 53.515625 60.890625 
Q 47.90625 63.578125 42.921875 64.890625 
Q 37.9375 66.21875 33.296875 66.21875 
Q 25.25 66.21875 20.875 63.09375 
Q 16.5 59.96875 16.5 54.203125 
Q 16.5 49.359375 19.40625 46.890625 
Q 22.3125 44.4375 30.421875 42.921875 
L 36.375 41.703125 
Q 47.40625 39.59375 52.65625 34.296875 
Q 57.90625 29 57.90625 20.125 
Q 57.90625 9.515625 50.796875 4.046875 
Q 43.703125 -1.421875 29.984375 -1.421875 
Q 24.8125 -1.421875 18.96875 -0.25 
Q 13.140625 0.921875 6.890625 3.21875 
L 6.890625 13.375 
Q 12.890625 10.015625 18.65625 8.296875 
Q 24.421875 6.59375 29.984375 6.59375 
Q 38.421875 6.59375 43.015625 9.90625 
Q 47.609375 13.234375 47.609375 19.390625 
Q 47.609375 24.75 44.3125 27.78125 
Q 41.015625 30.8125 33.5 32.328125 
L 27.484375 33.5 
Q 16.453125 35.6875 11.515625 40.375 
Q 6.59375 45.0625 6.59375 53.421875 
Q 6.59375 63.09375 13.40625 68.65625 
Q 20.21875 74.21875 32.171875 74.21875 
Q 37.3125 74.21875 42.625 73.28125 
Q 47.953125 72.359375 53.515625 70.515625 
z
" id="DejaVuSans-83"/>
      <path d="M 19.671875 64.796875 
L 19.671875 8.109375 
L 31.59375 8.109375 
Q 46.6875 8.109375 53.6875 14.9375 
Q 60.6875 21.78125 60.6875 36.53125 
Q 60.6875 51.171875 53.6875 57.984375 
Q 46.6875 64.796875 31.59375 64.796875 
z
M 9.8125 72.90625 
L 30.078125 72.90625 
Q 51.265625 72.90625 61.171875 64.09375 
Q 71.09375 55.28125 71.09375 36.53125 
Q 71.09375 17.671875 61.125 8.828125 
Q 51.171875 0 30.078125 0 
L 9.8125 0 
z
" id="DejaVuSans-68"/>
      <path d="M 2.984375 54.6875 
L 12.5 54.6875 
L 29.59375 8.796875 
L 46.6875 54.6875 
L 56.203125 54.6875 
L 35.6875 0 
L 23.484375 0 
z
" id="DejaVuSans-118"/>
      <path d="M 41.109375 46.296875 
Q 39.59375 47.171875 37.8125 47.578125 
Q 36.03125 48 33.890625 48 
Q 26.265625 48 22.1875 43.046875 
Q 18.109375 38.09375 18.109375 28.8125 
L 18.109375 0 
L 9.078125 0 
L 9.078125 54.6875 
L 18.109375 54.6875 
L 18.109375 46.1875 
Q 20.953125 51.171875 25.484375 53.578125 
Q 30.03125 56 36.53125 56 
Q 37.453125 56 38.578125 55.875 
Q 39.703125 55.765625 41.0625 55.515625 
z
" id="DejaVuSans-114"/>
      <path d="M 45.40625 27.984375 
Q 45.40625 37.75 41.375 43.109375 
Q 37.359375 48.484375 30.078125 48.484375 
Q 22.859375 48.484375 18.828125 43.109375 
Q 14.796875 37.75 14.796875 27.984375 
Q 14.796875 18.265625 18.828125 12.890625 
Q 22.859375 7.515625 30.078125 7.515625 
Q 37.359375 7.515625 41.375 12.890625 
Q 45.40625 18.265625 45.40625 27.984375 
z
M 54.390625 6.78125 
Q 54.390625 -7.171875 48.1875 -13.984375 
Q 42 -20.796875 29.203125 -20.796875 
Q 24.46875 -20.796875 20.265625 -20.09375 
Q 16.0625 -19.390625 12.109375 -17.921875 
L 12.109375 -9.1875 
Q 16.0625 -11.328125 19.921875 -12.34375 
Q 23.78125 -13.375 27.78125 -13.375 
Q 36.625 -13.375 41.015625 -8.765625 
Q 45.40625 -4.15625 45.40625 5.171875 
L 45.40625 9.625 
Q 42.625 4.78125 38.28125 2.390625 
Q 33.9375 0 27.875 0 
Q 17.828125 0 11.671875 7.65625 
Q 5.515625 15.328125 5.515625 27.984375 
Q 5.515625 40.671875 11.671875 48.328125 
Q 17.828125 56 27.875 56 
Q 33.9375 56 38.28125 53.609375 
Q 42.625 51.21875 45.40625 46.390625 
L 45.40625 54.6875 
L 54.390625 54.6875 
z
" id="DejaVuSans-103"/>
      <path d="M 48.78125 52.59375 
L 48.78125 44.1875 
Q 44.96875 46.296875 41.140625 47.34375 
Q 37.3125 48.390625 33.40625 48.390625 
Q 24.65625 48.390625 19.8125 42.84375 
Q 14.984375 37.3125 14.984375 27.296875 
Q 14.984375 17.28125 19.8125 11.734375 
Q 24.65625 6.203125 33.40625 6.203125 
Q 37.3125 6.203125 41.140625 7.25 
Q 44.96875 8.296875 48.78125 10.40625 
L 48.78125 2.09375 
Q 45.015625 0.34375 40.984375 -0.53125 
Q 36.96875 -1.421875 32.421875 -1.421875 
Q 20.0625 -1.421875 12.78125 6.34375 
Q 5.515625 14.109375 5.515625 27.296875 
Q 5.515625 40.671875 12.859375 48.328125 
Q 20.21875 56 33.015625 56 
Q 37.15625 56 41.109375 55.140625 
Q 45.0625 54.296875 48.78125 52.59375 
z
" id="DejaVuSans-99"/>
      <path d="M 4.203125 54.6875 
L 13.1875 54.6875 
L 24.421875 12.015625 
L 35.59375 54.6875 
L 46.1875 54.6875 
L 57.421875 12.015625 
L 68.609375 54.6875 
L 77.59375 54.6875 
L 63.28125 0 
L 52.6875 0 
L 40.921875 44.828125 
L 29.109375 0 
L 18.5 0 
z
" id="DejaVuSans-119"/>
      <path d="M 54.890625 33.015625 
L 54.890625 0 
L 45.90625 0 
L 45.90625 32.71875 
Q 45.90625 40.484375 42.875 44.328125 
Q 39.84375 48.1875 33.796875 48.1875 
Q 26.515625 48.1875 22.3125 43.546875 
Q 18.109375 38.921875 18.109375 30.90625 
L 18.109375 0 
L 9.078125 0 
L 9.078125 75.984375 
L 18.109375 75.984375 
L 18.109375 46.1875 
Q 21.34375 51.125 25.703125 53.5625 
Q 30.078125 56 35.796875 56 
Q 45.21875 56 50.046875 50.171875 
Q 54.890625 44.34375 54.890625 33.015625 
z
" id="DejaVuSans-104"/>
      <path d="M 19.734375 29.5 
Q 14.453125 30.671875 12.15625 33.84375 
Q 10.453125 36.078125 10.453125 39.109375 
Q 10.453125 47.40625 18.359375 52.25 
Q 24.609375 56.0625 34.1875 56.0625 
Q 37.890625 56.0625 41.9375 55.46875 
Q 46 54.890625 50.53125 53.71875 
L 48.96875 45.5625 
Q 44.484375 46.96875 40.71875 47.609375 
Q 36.859375 48.25 33.40625 48.25 
Q 27.59375 48.25 23.78125 46 
Q 19.1875 43.3125 19.1875 39.40625 
Q 19.1875 36.8125 21.578125 35.015625 
Q 24.421875 32.859375 30.078125 32.859375 
L 37.640625 32.859375 
L 36.234375 25.4375 
L 29 25.4375 
Q 22.265625 25.4375 18.3125 22.953125 
Q 12.9375 19.578125 12.9375 14.3125 
Q 12.9375 10.984375 15.828125 8.796875 
Q 19.4375 6.0625 26.8125 6.0625 
Q 31.34375 6.0625 35.6875 6.9375 
Q 40.046875 7.859375 43.84375 9.671875 
L 42.1875 1.3125 
Q 37.546875 -0.046875 33.296875 -0.734375 
Q 29.046875 -1.421875 25.140625 -1.421875 
Q 13.53125 -1.421875 8.0625 3.03125 
Q 3.90625 6.453125 3.90625 12.203125 
Q 3.90625 19.96875 9.375 24.75 
Q 13.421875 28.328125 19.734375 29.5 
z
" id="DejaVuSans-Oblique-949"/>
     </defs>
     <g transform="translate(19.109375 271.820703)rotate(-90)scale(0.2 -0.2)">
      <use transform="translate(0 0.015625)" xlink:href="#DejaVuSans-77"/>
      <use transform="translate(86.279297 0.015625)" xlink:href="#DejaVuSans-97"/>
      <use transform="translate(147.558594 0.015625)" xlink:href="#DejaVuSans-120"/>
      <use transform="translate(206.738281 0.015625)" xlink:href="#DejaVuSans-32"/>
      <use transform="translate(238.525391 0.015625)" xlink:href="#DejaVuSans-74"/>
      <use transform="translate(268.017578 0.015625)" xlink:href="#DejaVuSans-83"/>
      <use transform="translate(331.494141 0.015625)" xlink:href="#DejaVuSans-32"/>
      <use transform="translate(363.28125 0.015625)" xlink:href="#DejaVuSans-68"/>
      <use transform="translate(440.283203 0.015625)" xlink:href="#DejaVuSans-105"/>
      <use transform="translate(468.066406 0.015625)" xlink:href="#DejaVuSans-118"/>
      <use transform="translate(527.246094 0.015625)" xlink:href="#DejaVuSans-101"/>
      <use transform="translate(588.769531 0.015625)" xlink:href="#DejaVuSans-114"/>
      <use transform="translate(629.882812 0.015625)" xlink:href="#DejaVuSans-103"/>
      <use transform="translate(693.359375 0.015625)" xlink:href="#DejaVuSans-101"/>
      <use transform="translate(754.882812 0.015625)" xlink:href="#DejaVuSans-110"/>
      <use transform="translate(818.261719 0.015625)" xlink:href="#DejaVuSans-99"/>
      <use transform="translate(873.242188 0.015625)" xlink:href="#DejaVuSans-101"/>
      <use transform="translate(934.765625 0.015625)" xlink:href="#DejaVuSans-32"/>
      <use transform="translate(966.552734 0.015625)" xlink:href="#DejaVuSans-119"/>
      <use transform="translate(1048.339844 0.015625)" xlink:href="#DejaVuSans-105"/>
      <use transform="translate(1076.123047 0.015625)" xlink:href="#DejaVuSans-116"/>
      <use transform="translate(1115.332031 0.015625)" xlink:href="#DejaVuSans-104"/>
      <use transform="translate(1178.710938 0.015625)" xlink:href="#DejaVuSans-105"/>
      <use transform="translate(1206.494141 0.015625)" xlink:href="#DejaVuSans-110"/>
      <use transform="translate(1269.873047 0.015625)" xlink:href="#DejaVuSans-32"/>
      <use transform="translate(1301.660156 0.015625)" xlink:href="#DejaVuSans-Oblique-949"/>
     </g>
    </g>
   </g>
   <g id="line2d_17">
    <path clip-path="url(#p5031465b41)" d="M 268.699991 17.130441 
L 268.699991 58.604715 
" style="fill:none;stroke:#575757;stroke-dasharray:1.5,1.5;stroke-dashoffset:0;"/>
   </g>
   <g id="line2d_18">
    <path clip-path="url(#p5031465b41)" d="M 279.977645 12.326492 
L 279.977645 63.408664 
" style="fill:none;stroke:#575757;stroke-dasharray:3,3;stroke-dashoffset:0;"/>
   </g>
   <g id="line2d_19">
    <path clip-path="url(#p5031465b41)" d="M 290.693706 14.601607 
L 290.693706 61.133549 
" style="fill:none;stroke:#575757;stroke-dasharray:1.5,1.5;stroke-dashoffset:0;"/>
   </g>
   <g id="line2d_20">
    <path clip-path="url(#p5031465b41)" d="M 184.599824 79.476415 
L 184.599824 127.396241 
" style="fill:none;stroke:#575757;stroke-dasharray:1.5,1.5;stroke-dashoffset:0;"/>
   </g>
   <g id="line2d_21">
    <path clip-path="url(#p5031465b41)" d="M 227.122182 78.504391 
L 227.122182 128.368265 
" style="fill:none;stroke:#575757;stroke-dasharray:3,3;stroke-dashoffset:0;"/>
   </g>
   <g id="line2d_22">
    <path clip-path="url(#p5031465b41)" d="M 238.11065 80.002157 
L 238.11065 126.870499 
" style="fill:none;stroke:#575757;stroke-dasharray:1.5,1.5;stroke-dashoffset:0;"/>
   </g>
   <g id="patch_47">
    <path d="M 100.7 267.358203 
L 100.7 5.083203 
" style="fill:none;stroke:#000000;stroke-linecap:square;stroke-linejoin:miter;stroke-width:0.8;"/>
   </g>
   <g id="patch_48">
    <path d="M 100.7 267.358203 
L 362.975 267.358203 
" style="fill:none;stroke:#000000;stroke-linecap:square;stroke-linejoin:miter;stroke-width:0.8;"/>
   </g>
  </g>
 </g>
 <defs>
  <clipPath id="p0b49135922">
   <rect height="262.275" width="262.275" x="-269.375" y="5.083203"/>
  </clipPath>
  <clipPath id="p5031465b41">
   <rect height="262.275" width="262.275" x="100.7" y="5.083203"/>
  </clipPath>
 </defs>
</svg>
