<?xml version="1.0" encoding="utf-8" standalone="no"?>
<!DOCTYPE svg PUBLIC "-//W3C//DTD SVG 1.1//EN"
  "http://www.w3.org/Graphics/SVG/1.1/DTD/svg11.dtd">
<!-- Created with matplotlib (https://matplotlib.org/) -->
<svg height="326.766667pt" version="1.1" viewBox="0 0 370.766667 326.766667" width="370.766667pt" xmlns="http://www.w3.org/2000/svg" xmlns:xlink="http://www.w3.org/1999/xlink">
 <defs>
  <style type="text/css">
*{stroke-linecap:butt;stroke-linejoin:round;}
  </style>
 </defs>
 <g id="figure_1">
  <g id="patch_1">
   <path d="M -0 326.766667 
L 370.766667 326.766667 
L 370.766667 -0 
L -0 -0 
z
" style="fill:#ffffff;"/>
  </g>
  <g id="axes_1">
   <g id="patch_2">
    <path d="M -273.666667 270.066667 
L -7.1 270.066667 
L -7.1 3.5 
L -273.666667 3.5 
z
" style="fill:#ffffff;"/>
   </g>
   <g id="patch_3">
    <path clip-path="url(#pa27475a636)" d="M -261.55 270.066667 
L -255.491667 270.066667 
L -255.491667 270.066667 
L -261.55 270.066667 
z
" style="fill:#7570b3;opacity:0.6;stroke:#000000;stroke-linejoin:miter;stroke-width:0.5;"/>
   </g>
   <g id="patch_4">
    <path clip-path="url(#pa27475a636)" d="M -255.491667 270.066667 
L -249.433333 270.066667 
L -249.433333 270.066667 
L -255.491667 270.066667 
z
" style="fill:#7570b3;opacity:0.6;stroke:#000000;stroke-linejoin:miter;stroke-width:0.5;"/>
   </g>
   <g id="patch_5">
    <path clip-path="url(#pa27475a636)" d="M -249.433333 270.066667 
L -243.375 270.066667 
L -243.375 270.066667 
L -249.433333 270.066667 
z
" style="fill:#7570b3;opacity:0.6;stroke:#000000;stroke-linejoin:miter;stroke-width:0.5;"/>
   </g>
   <g id="patch_6">
    <path clip-path="url(#pa27475a636)" d="M -243.375 270.066667 
L -237.316667 270.066667 
L -237.316667 270.066667 
L -243.375 270.066667 
z
" style="fill:#7570b3;opacity:0.6;stroke:#000000;stroke-linejoin:miter;stroke-width:0.5;"/>
   </g>
   <g id="patch_7">
    <path clip-path="url(#pa27475a636)" d="M -237.316667 270.066667 
L -231.258333 270.066667 
L -231.258333 270.066667 
L -237.316667 270.066667 
z
" style="fill:#7570b3;opacity:0.6;stroke:#000000;stroke-linejoin:miter;stroke-width:0.5;"/>
   </g>
   <g id="patch_8">
    <path clip-path="url(#pa27475a636)" d="M -231.258333 270.066667 
L -225.2 270.066667 
L -225.2 270.066667 
L -231.258333 270.066667 
z
" style="fill:#7570b3;opacity:0.6;stroke:#000000;stroke-linejoin:miter;stroke-width:0.5;"/>
   </g>
   <g id="patch_9">
    <path clip-path="url(#pa27475a636)" d="M -225.2 270.066667 
L -219.141667 270.066667 
L -219.141667 270.066667 
L -225.2 270.066667 
z
" style="fill:#7570b3;opacity:0.6;stroke:#000000;stroke-linejoin:miter;stroke-width:0.5;"/>
   </g>
   <g id="patch_10">
    <path clip-path="url(#pa27475a636)" d="M -219.141667 270.066667 
L -213.083333 270.066667 
L -213.083333 270.066667 
L -219.141667 270.066667 
z
" style="fill:#7570b3;opacity:0.6;stroke:#000000;stroke-linejoin:miter;stroke-width:0.5;"/>
   </g>
   <g id="patch_11">
    <path clip-path="url(#pa27475a636)" d="M -213.083333 270.066667 
L -207.025 270.066667 
L -207.025 270.066667 
L -213.083333 270.066667 
z
" style="fill:#7570b3;opacity:0.6;stroke:#000000;stroke-linejoin:miter;stroke-width:0.5;"/>
   </g>
   <g id="patch_12">
    <path clip-path="url(#pa27475a636)" d="M -207.025 270.066667 
L -200.966667 270.066667 
L -200.966667 270.066667 
L -207.025 270.066667 
z
" style="fill:#7570b3;opacity:0.6;stroke:#000000;stroke-linejoin:miter;stroke-width:0.5;"/>
   </g>
   <g id="patch_13">
    <path clip-path="url(#pa27475a636)" d="M -200.966667 270.066667 
L -194.908333 270.066667 
L -194.908333 270.066667 
L -200.966667 270.066667 
z
" style="fill:#7570b3;opacity:0.6;stroke:#000000;stroke-linejoin:miter;stroke-width:0.5;"/>
   </g>
   <g id="patch_14">
    <path clip-path="url(#pa27475a636)" d="M -194.908333 270.066667 
L -188.85 270.066667 
L -188.85 270.066667 
L -194.908333 270.066667 
z
" style="fill:#7570b3;opacity:0.6;stroke:#000000;stroke-linejoin:miter;stroke-width:0.5;"/>
   </g>
   <g id="patch_15">
    <path clip-path="url(#pa27475a636)" d="M -188.85 270.066667 
L -182.791667 270.066667 
L -182.791667 270.066667 
L -188.85 270.066667 
z
" style="fill:#7570b3;opacity:0.6;stroke:#000000;stroke-linejoin:miter;stroke-width:0.5;"/>
   </g>
   <g id="patch_16">
    <path clip-path="url(#pa27475a636)" d="M -182.791667 270.066667 
L -176.733333 270.066667 
L -176.733333 270.066667 
L -182.791667 270.066667 
z
" style="fill:#7570b3;opacity:0.6;stroke:#000000;stroke-linejoin:miter;stroke-width:0.5;"/>
   </g>
   <g id="patch_17">
    <path clip-path="url(#pa27475a636)" d="M -176.733333 270.066667 
L -170.675 270.066667 
L -170.675 270.066667 
L -176.733333 270.066667 
z
" style="fill:#7570b3;opacity:0.6;stroke:#000000;stroke-linejoin:miter;stroke-width:0.5;"/>
   </g>
   <g id="patch_18">
    <path clip-path="url(#pa27475a636)" d="M -170.675 270.066667 
L -164.616667 270.066667 
L -164.616667 270.066667 
L -170.675 270.066667 
z
" style="fill:#7570b3;opacity:0.6;stroke:#000000;stroke-linejoin:miter;stroke-width:0.5;"/>
   </g>
   <g id="patch_19">
    <path clip-path="url(#pa27475a636)" d="M -164.616667 270.066667 
L -158.558333 270.066667 
L -158.558333 270.066667 
L -164.616667 270.066667 
z
" style="fill:#7570b3;opacity:0.6;stroke:#000000;stroke-linejoin:miter;stroke-width:0.5;"/>
   </g>
   <g id="patch_20">
    <path clip-path="url(#pa27475a636)" d="M -158.558333 270.066667 
L -152.5 270.066667 
L -152.5 270.066667 
L -158.558333 270.066667 
z
" style="fill:#7570b3;opacity:0.6;stroke:#000000;stroke-linejoin:miter;stroke-width:0.5;"/>
   </g>
   <g id="patch_21">
    <path clip-path="url(#pa27475a636)" d="M -152.5 270.066667 
L -146.441667 270.066667 
L -146.441667 270.066667 
L -152.5 270.066667 
z
" style="fill:#7570b3;opacity:0.6;stroke:#000000;stroke-linejoin:miter;stroke-width:0.5;"/>
   </g>
   <g id="patch_22">
    <path clip-path="url(#pa27475a636)" d="M -146.441667 270.066667 
L -140.383333 270.066667 
L -140.383333 270.066667 
L -146.441667 270.066667 
z
" style="fill:#7570b3;opacity:0.6;stroke:#000000;stroke-linejoin:miter;stroke-width:0.5;"/>
   </g>
   <g id="patch_23">
    <path clip-path="url(#pa27475a636)" d="M -140.383333 270.066667 
L -134.325 270.066667 
L -134.325 270.066667 
L -140.383333 270.066667 
z
" style="fill:#7570b3;opacity:0.6;stroke:#000000;stroke-linejoin:miter;stroke-width:0.5;"/>
   </g>
   <g id="patch_24">
    <path clip-path="url(#pa27475a636)" d="M -134.325 270.066667 
L -128.266667 270.066667 
L -128.266667 270.066667 
L -134.325 270.066667 
z
" style="fill:#7570b3;opacity:0.6;stroke:#000000;stroke-linejoin:miter;stroke-width:0.5;"/>
   </g>
   <g id="patch_25">
    <path clip-path="url(#pa27475a636)" d="M -128.266667 270.066667 
L -122.208333 270.066667 
L -122.208333 270.066667 
L -128.266667 270.066667 
z
" style="fill:#7570b3;opacity:0.6;stroke:#000000;stroke-linejoin:miter;stroke-width:0.5;"/>
   </g>
   <g id="patch_26">
    <path clip-path="url(#pa27475a636)" d="M -122.208333 270.066667 
L -116.15 270.066667 
L -116.15 270.066667 
L -122.208333 270.066667 
z
" style="fill:#7570b3;opacity:0.6;stroke:#000000;stroke-linejoin:miter;stroke-width:0.5;"/>
   </g>
   <g id="patch_27">
    <path clip-path="url(#pa27475a636)" d="M -116.15 270.066667 
L -110.091667 270.066667 
L -110.091667 270.066667 
L -116.15 270.066667 
z
" style="fill:#7570b3;opacity:0.6;stroke:#000000;stroke-linejoin:miter;stroke-width:0.5;"/>
   </g>
   <g id="patch_28">
    <path clip-path="url(#pa27475a636)" d="M -110.091667 270.066667 
L -104.033333 270.066667 
L -104.033333 270.066667 
L -110.091667 270.066667 
z
" style="fill:#7570b3;opacity:0.6;stroke:#000000;stroke-linejoin:miter;stroke-width:0.5;"/>
   </g>
   <g id="patch_29">
    <path clip-path="url(#pa27475a636)" d="M -104.033333 270.066667 
L -97.975 270.066667 
L -97.975 270.066667 
L -104.033333 270.066667 
z
" style="fill:#7570b3;opacity:0.6;stroke:#000000;stroke-linejoin:miter;stroke-width:0.5;"/>
   </g>
   <g id="patch_30">
    <path clip-path="url(#pa27475a636)" d="M -97.975 270.066667 
L -91.916667 270.066667 
L -91.916667 270.066667 
L -97.975 270.066667 
z
" style="fill:#7570b3;opacity:0.6;stroke:#000000;stroke-linejoin:miter;stroke-width:0.5;"/>
   </g>
   <g id="patch_31">
    <path clip-path="url(#pa27475a636)" d="M -91.916667 270.066667 
L -85.858333 270.066667 
L -85.858333 270.066667 
L -91.916667 270.066667 
z
" style="fill:#7570b3;opacity:0.6;stroke:#000000;stroke-linejoin:miter;stroke-width:0.5;"/>
   </g>
   <g id="patch_32">
    <path clip-path="url(#pa27475a636)" d="M -85.858333 270.066667 
L -79.8 270.066667 
L -79.8 268.970023 
L -85.858333 268.970023 
z
" style="fill:#7570b3;opacity:0.6;stroke:#000000;stroke-linejoin:miter;stroke-width:0.5;"/>
   </g>
   <g id="patch_33">
    <path clip-path="url(#pa27475a636)" d="M -79.8 270.066667 
L -73.741667 270.066667 
L -73.741667 268.421701 
L -79.8 268.421701 
z
" style="fill:#7570b3;opacity:0.6;stroke:#000000;stroke-linejoin:miter;stroke-width:0.5;"/>
   </g>
   <g id="patch_34">
    <path clip-path="url(#pa27475a636)" d="M -73.741667 270.066667 
L -67.683333 270.066667 
L -67.683333 268.421701 
L -73.741667 268.421701 
z
" style="fill:#7570b3;opacity:0.6;stroke:#000000;stroke-linejoin:miter;stroke-width:0.5;"/>
   </g>
   <g id="patch_35">
    <path clip-path="url(#pa27475a636)" d="M -67.683333 270.066667 
L -61.625 270.066667 
L -61.625 264.583448 
L -67.683333 264.583448 
z
" style="fill:#7570b3;opacity:0.6;stroke:#000000;stroke-linejoin:miter;stroke-width:0.5;"/>
   </g>
   <g id="patch_36">
    <path clip-path="url(#pa27475a636)" d="M -61.625 270.066667 
L -55.566667 270.066667 
L -55.566667 262.390161 
L -61.625 262.390161 
z
" style="fill:#7570b3;opacity:0.6;stroke:#000000;stroke-linejoin:miter;stroke-width:0.5;"/>
   </g>
   <g id="patch_37">
    <path clip-path="url(#pa27475a636)" d="M -55.566667 270.066667 
L -49.508333 270.066667 
L -49.508333 259.10023 
L -55.566667 259.10023 
z
" style="fill:#7570b3;opacity:0.6;stroke:#000000;stroke-linejoin:miter;stroke-width:0.5;"/>
   </g>
   <g id="patch_38">
    <path clip-path="url(#pa27475a636)" d="M -49.508333 270.066667 
L -43.45 270.066667 
L -43.45 239.908965 
L -49.508333 239.908965 
z
" style="fill:#7570b3;opacity:0.6;stroke:#000000;stroke-linejoin:miter;stroke-width:0.5;"/>
   </g>
   <g id="patch_39">
    <path clip-path="url(#pa27475a636)" d="M -43.45 270.066667 
L -37.391667 270.066667 
L -37.391667 203.719723 
L -43.45 203.719723 
z
" style="fill:#7570b3;opacity:0.6;stroke:#000000;stroke-linejoin:miter;stroke-width:0.5;"/>
   </g>
   <g id="patch_40">
    <path clip-path="url(#pa27475a636)" d="M -37.391667 270.066667 
L -31.333333 270.066667 
L -31.333333 131.341239 
L -37.391667 131.341239 
z
" style="fill:#7570b3;opacity:0.6;stroke:#000000;stroke-linejoin:miter;stroke-width:0.5;"/>
   </g>
   <g id="patch_41">
    <path clip-path="url(#pa27475a636)" d="M -31.333333 270.066667 
L -25.275 270.066667 
L -25.275 16.193651 
L -31.333333 16.193651 
z
" style="fill:#7570b3;opacity:0.6;stroke:#000000;stroke-linejoin:miter;stroke-width:0.5;"/>
   </g>
   <g id="patch_42">
    <path clip-path="url(#pa27475a636)" d="M -25.275 270.066667 
L -19.216667 270.066667 
L -19.216667 239.360643 
L -25.275 239.360643 
z
" style="fill:#7570b3;opacity:0.6;stroke:#000000;stroke-linejoin:miter;stroke-width:0.5;"/>
   </g>
   <g id="matplotlib.axis_1">
    <g id="xtick_1">
     <g id="line2d_1">
      <defs>
       <path d="M 0 0 
L 0 3.5 
" id="m98446cfb8a" style="stroke:#000000;stroke-width:1.6;"/>
      </defs>
      <g/>
     </g>
     <g id="text_1">
      <!-- 0.0 -->
      <defs>
       <path d="M 31.78125 66.40625 
Q 24.171875 66.40625 20.328125 58.90625 
Q 16.5 51.421875 16.5 36.375 
Q 16.5 21.390625 20.328125 13.890625 
Q 24.171875 6.390625 31.78125 6.390625 
Q 39.453125 6.390625 43.28125 13.890625 
Q 47.125 21.390625 47.125 36.375 
Q 47.125 51.421875 43.28125 58.90625 
Q 39.453125 66.40625 31.78125 66.40625 
z
M 31.78125 74.21875 
Q 44.046875 74.21875 50.515625 64.515625 
Q 56.984375 54.828125 56.984375 36.375 
Q 56.984375 17.96875 50.515625 8.265625 
Q 44.046875 -1.421875 31.78125 -1.421875 
Q 19.53125 -1.421875 13.0625 8.265625 
Q 6.59375 17.96875 6.59375 36.375 
Q 6.59375 54.828125 13.0625 64.515625 
Q 19.53125 74.21875 31.78125 74.21875 
z
" id="DejaVuSans-48"/>
       <path d="M 10.6875 12.40625 
L 21 12.40625 
L 21 0 
L 10.6875 0 
z
" id="DejaVuSans-46"/>
      </defs>
      <g transform="translate(-277.453125 299.963542)scale(0.2 -0.2)">
       <use xlink:href="#DejaVuSans-48"/>
       <use x="63.623047" xlink:href="#DejaVuSans-46"/>
       <use x="95.410156" xlink:href="#DejaVuSans-48"/>
      </g>
     </g>
    </g>
    <g id="xtick_2">
     <g id="line2d_2">
      <g/>
     </g>
     <g id="text_2">
      <!-- 0.2 -->
      <defs>
       <path d="M 19.1875 8.296875 
L 53.609375 8.296875 
L 53.609375 0 
L 7.328125 0 
L 7.328125 8.296875 
Q 12.9375 14.109375 22.625 23.890625 
Q 32.328125 33.6875 34.8125 36.53125 
Q 39.546875 41.84375 41.421875 45.53125 
Q 43.3125 49.21875 43.3125 52.78125 
Q 43.3125 58.59375 39.234375 62.25 
Q 35.15625 65.921875 28.609375 65.921875 
Q 23.96875 65.921875 18.8125 64.3125 
Q 13.671875 62.703125 7.8125 59.421875 
L 7.8125 69.390625 
Q 13.765625 71.78125 18.9375 73 
Q 24.125 74.21875 28.421875 74.21875 
Q 39.75 74.21875 46.484375 68.546875 
Q 53.21875 62.890625 53.21875 53.421875 
Q 53.21875 48.921875 51.53125 44.890625 
Q 49.859375 40.875 45.40625 35.40625 
Q 44.1875 33.984375 37.640625 27.21875 
Q 31.109375 20.453125 19.1875 8.296875 
z
" id="DejaVuSans-50"/>
      </defs>
      <g transform="translate(-208.21503 299.963542)scale(0.2 -0.2)">
       <use xlink:href="#DejaVuSans-48"/>
       <use x="63.623047" xlink:href="#DejaVuSans-46"/>
       <use x="95.410156" xlink:href="#DejaVuSans-50"/>
      </g>
     </g>
    </g>
    <g id="xtick_3">
     <g id="line2d_3">
      <g/>
     </g>
     <g id="text_3">
      <!-- 0.4 -->
      <defs>
       <path d="M 37.796875 64.3125 
L 12.890625 25.390625 
L 37.796875 25.390625 
z
M 35.203125 72.90625 
L 47.609375 72.90625 
L 47.609375 25.390625 
L 58.015625 25.390625 
L 58.015625 17.1875 
L 47.609375 17.1875 
L 47.609375 0 
L 37.796875 0 
L 37.796875 17.1875 
L 4.890625 17.1875 
L 4.890625 26.703125 
z
" id="DejaVuSans-52"/>
      </defs>
      <g transform="translate(-138.976935 299.963542)scale(0.2 -0.2)">
       <use xlink:href="#DejaVuSans-48"/>
       <use x="63.623047" xlink:href="#DejaVuSans-46"/>
       <use x="95.410156" xlink:href="#DejaVuSans-52"/>
      </g>
     </g>
    </g>
    <g id="xtick_4">
     <g id="line2d_4">
      <g/>
     </g>
     <g id="text_4">
      <!-- 0.6 -->
      <defs>
       <path d="M 33.015625 40.375 
Q 26.375 40.375 22.484375 35.828125 
Q 18.609375 31.296875 18.609375 23.390625 
Q 18.609375 15.53125 22.484375 10.953125 
Q 26.375 6.390625 33.015625 6.390625 
Q 39.65625 6.390625 43.53125 10.953125 
Q 47.40625 15.53125 47.40625 23.390625 
Q 47.40625 31.296875 43.53125 35.828125 
Q 39.65625 40.375 33.015625 40.375 
z
M 52.59375 71.296875 
L 52.59375 62.3125 
Q 48.875 64.0625 45.09375 64.984375 
Q 41.3125 65.921875 37.59375 65.921875 
Q 27.828125 65.921875 22.671875 59.328125 
Q 17.53125 52.734375 16.796875 39.40625 
Q 19.671875 43.65625 24.015625 45.921875 
Q 28.375 48.1875 33.59375 48.1875 
Q 44.578125 48.1875 50.953125 41.515625 
Q 57.328125 34.859375 57.328125 23.390625 
Q 57.328125 12.15625 50.6875 5.359375 
Q 44.046875 -1.421875 33.015625 -1.421875 
Q 20.359375 -1.421875 13.671875 8.265625 
Q 6.984375 17.96875 6.984375 36.375 
Q 6.984375 53.65625 15.1875 63.9375 
Q 23.390625 74.21875 37.203125 74.21875 
Q 40.921875 74.21875 44.703125 73.484375 
Q 48.484375 72.75 52.59375 71.296875 
z
" id="DejaVuSans-54"/>
      </defs>
      <g transform="translate(-69.738839 299.963542)scale(0.2 -0.2)">
       <use xlink:href="#DejaVuSans-48"/>
       <use x="63.623047" xlink:href="#DejaVuSans-46"/>
       <use x="95.410156" xlink:href="#DejaVuSans-54"/>
      </g>
     </g>
    </g>
    <g id="text_5">
     <!--   -->
     <defs>
      <path id="DejaVuSans-32"/>
     </defs>
     <g transform="translate(-143.561458 323.319792)scale(0.2 -0.2)">
      <use xlink:href="#DejaVuSans-32"/>
     </g>
    </g>
   </g>
   <g id="matplotlib.axis_2">
    <g id="ytick_1">
     <g id="line2d_5">
      <defs>
       <path d="M 0 0 
L -3.5 0 
" id="m570741e8cf" style="stroke:#000000;stroke-width:1.6;"/>
      </defs>
      <g/>
     </g>
     <g id="text_6">
      <!-- 0.0 -->
      <g transform="translate(-320.172917 277.665104)scale(0.2 -0.2)">
       <use xlink:href="#DejaVuSans-48"/>
       <use x="63.623047" xlink:href="#DejaVuSans-46"/>
       <use x="95.410156" xlink:href="#DejaVuSans-48"/>
      </g>
     </g>
    </g>
    <g id="ytick_2">
     <g id="line2d_6">
      <g/>
     </g>
     <g id="text_7">
      <!-- 0.1 -->
      <defs>
       <path d="M 12.40625 8.296875 
L 28.515625 8.296875 
L 28.515625 63.921875 
L 10.984375 60.40625 
L 10.984375 69.390625 
L 28.421875 72.90625 
L 38.28125 72.90625 
L 38.28125 8.296875 
L 54.390625 8.296875 
L 54.390625 0 
L 12.40625 0 
z
" id="DejaVuSans-49"/>
      </defs>
      <g transform="translate(-320.172917 222.832919)scale(0.2 -0.2)">
       <use xlink:href="#DejaVuSans-48"/>
       <use x="63.623047" xlink:href="#DejaVuSans-46"/>
       <use x="95.410156" xlink:href="#DejaVuSans-49"/>
      </g>
     </g>
    </g>
    <g id="ytick_3">
     <g id="line2d_7">
      <g/>
     </g>
     <g id="text_8">
      <!-- 0.2 -->
      <g transform="translate(-320.172917 168.000734)scale(0.2 -0.2)">
       <use xlink:href="#DejaVuSans-48"/>
       <use x="63.623047" xlink:href="#DejaVuSans-46"/>
       <use x="95.410156" xlink:href="#DejaVuSans-50"/>
      </g>
     </g>
    </g>
    <g id="ytick_4">
     <g id="line2d_8">
      <g/>
     </g>
     <g id="text_9">
      <!-- 0.3 -->
      <defs>
       <path d="M 40.578125 39.3125 
Q 47.65625 37.796875 51.625 33 
Q 55.609375 28.21875 55.609375 21.1875 
Q 55.609375 10.40625 48.1875 4.484375 
Q 40.765625 -1.421875 27.09375 -1.421875 
Q 22.515625 -1.421875 17.65625 -0.515625 
Q 12.796875 0.390625 7.625 2.203125 
L 7.625 11.71875 
Q 11.71875 9.328125 16.59375 8.109375 
Q 21.484375 6.890625 26.8125 6.890625 
Q 36.078125 6.890625 40.9375 10.546875 
Q 45.796875 14.203125 45.796875 21.1875 
Q 45.796875 27.640625 41.28125 31.265625 
Q 36.765625 34.90625 28.71875 34.90625 
L 20.21875 34.90625 
L 20.21875 43.015625 
L 29.109375 43.015625 
Q 36.375 43.015625 40.234375 45.921875 
Q 44.09375 48.828125 44.09375 54.296875 
Q 44.09375 59.90625 40.109375 62.90625 
Q 36.140625 65.921875 28.71875 65.921875 
Q 24.65625 65.921875 20.015625 65.03125 
Q 15.375 64.15625 9.8125 62.3125 
L 9.8125 71.09375 
Q 15.4375 72.65625 20.34375 73.4375 
Q 25.25 74.21875 29.59375 74.21875 
Q 40.828125 74.21875 47.359375 69.109375 
Q 53.90625 64.015625 53.90625 55.328125 
Q 53.90625 49.265625 50.4375 45.09375 
Q 46.96875 40.921875 40.578125 39.3125 
z
" id="DejaVuSans-51"/>
      </defs>
      <g transform="translate(-320.172917 113.16855)scale(0.2 -0.2)">
       <use xlink:href="#DejaVuSans-48"/>
       <use x="63.623047" xlink:href="#DejaVuSans-46"/>
       <use x="95.410156" xlink:href="#DejaVuSans-51"/>
      </g>
     </g>
    </g>
    <g id="ytick_5">
     <g id="line2d_9">
      <g/>
     </g>
     <g id="text_10">
      <!-- 0.4 -->
      <g transform="translate(-320.172917 58.336365)scale(0.2 -0.2)">
       <use xlink:href="#DejaVuSans-48"/>
       <use x="63.623047" xlink:href="#DejaVuSans-46"/>
       <use x="95.410156" xlink:href="#DejaVuSans-52"/>
      </g>
     </g>
    </g>
    <g id="text_11">
     <!--   -->
     <g transform="translate(-327.833167 139.580083)rotate(-90)scale(0.176 -0.176)">
      <use xlink:href="#DejaVuSans-32"/>
     </g>
    </g>
   </g>
   <g id="patch_43">
    <path style="fill:none;stroke:#000000;stroke-linecap:square;stroke-linejoin:miter;stroke-width:0.8;"/>
   </g>
   <g id="patch_44">
    <path style="fill:none;stroke:#000000;stroke-linecap:square;stroke-linejoin:miter;stroke-width:0.8;"/>
   </g>
  </g>
  <g id="axes_2">
   <g id="patch_45">
    <path d="M 100.7 270.066667 
L 367.266667 270.066667 
L 367.266667 3.5 
L 100.7 3.5 
z
" style="fill:#ffffff;"/>
   </g>
   <g id="PolyCollection_1">
    <defs>
     <path d="M 305.480765 -289.825461 
L 305.480765 -290.066206 
L 306.068473 -290.076083 
L 306.656181 -290.07886 
L 307.243889 -290.074607 
L 307.831597 -290.064952 
L 308.419305 -290.052862 
L 309.007013 -290.042035 
L 309.594721 -290.036026 
L 310.182428 -290.037306 
L 310.770136 -290.046522 
L 311.357844 -290.062268 
L 311.945552 -290.081519 
L 312.53326 -290.100679 
L 313.120968 -290.116867 
L 313.708676 -290.128924 
L 314.296384 -290.137692 
L 314.884092 -290.145487 
L 315.4718 -290.155145 
L 316.059508 -290.169213 
L 316.647215 -290.18968 
L 317.234923 -290.218171 
L 317.822631 -290.256088 
L 318.410339 -290.304233 
L 318.998047 -290.361892 
L 319.585755 -290.425916 
L 320.173463 -290.490558 
L 320.761171 -290.548489 
L 321.348879 -290.592742 
L 321.936587 -290.618769 
L 322.524294 -290.625784 
L 323.112002 -290.616911 
L 323.69971 -290.598256 
L 324.287418 -290.577333 
L 324.875126 -290.561311 
L 325.462834 -290.555455 
L 326.050542 -290.562057 
L 326.63825 -290.58013 
L 327.225958 -290.60606 
L 327.813666 -290.635146 
L 328.401373 -290.663618 
L 328.989081 -290.69043 
L 329.576789 -290.718126 
L 330.164497 -290.752311 
L 330.752205 -290.799784 
L 331.339913 -290.865944 
L 331.927621 -290.952522 
L 332.515329 -291.056746 
L 333.103037 -291.172513 
L 333.690745 -291.293258 
L 334.278453 -291.415347 
L 334.86616 -291.540499 
L 335.453868 -291.676099 
L 336.041576 -291.833047 
L 336.629284 -292.021685 
L 337.216992 -292.247113 
L 337.8047 -292.505674 
L 338.392408 -292.784358 
L 338.980116 -293.0641 
L 339.567824 -293.326379 
L 340.155532 -293.560739 
L 340.743239 -293.769953 
L 341.330947 -293.970258 
L 341.918655 -294.186366 
L 342.506363 -294.443494 
L 343.094071 -294.76003 
L 343.681779 -295.143916 
L 344.269487 -295.593735 
L 344.857195 -296.10316 
L 345.444903 -296.666017 
L 346.032611 -297.279352 
L 346.620318 -297.943248 
L 347.208026 -298.657979 
L 347.795734 -299.420483 
L 348.383442 -300.222559 
L 348.97115 -301.052461 
L 349.558858 -301.899888 
L 350.146566 -302.762341 
L 350.734274 -303.649533 
L 351.321982 -304.582804 
L 351.90969 -305.58866 
L 352.497397 -306.688593 
L 353.085105 -307.88941 
L 353.672813 -309.178099 
L 354.260521 -310.52279 
L 354.848229 -311.877952 
L 355.435937 -313.189705 
L 356.023645 -314.397301 
L 356.611353 -315.429603 
L 357.199061 -316.199529 
L 357.786769 -316.6025 
L 358.374477 -316.52482 
L 358.962184 -315.864009 
L 359.549892 -314.55698 
L 360.1376 -312.606859 
L 360.725308 -310.097921 
L 361.313016 -307.191417 
L 361.900724 -304.101633 
L 362.488432 -301.058362 
L 363.07614 -298.266503 
L 363.663848 -295.873975 
L 363.663848 -284.017692 
L 363.663848 -284.017692 
L 363.07614 -281.625164 
L 362.488432 -278.833305 
L 361.900724 -275.790034 
L 361.313016 -272.700249 
L 360.725308 -269.793746 
L 360.1376 -267.284807 
L 359.549892 -265.334687 
L 358.962184 -264.027658 
L 358.374477 -263.366846 
L 357.786769 -263.289167 
L 357.199061 -263.692138 
L 356.611353 -264.462064 
L 356.023645 -265.494365 
L 355.435937 -266.701961 
L 354.848229 -268.013715 
L 354.260521 -269.368877 
L 353.672813 -270.713568 
L 353.085105 -272.002257 
L 352.497397 -273.203073 
L 351.90969 -274.303007 
L 351.321982 -275.308863 
L 350.734274 -276.242134 
L 350.146566 -277.129326 
L 349.558858 -277.991779 
L 348.97115 -278.839205 
L 348.383442 -279.669108 
L 347.795734 -280.471184 
L 347.208026 -281.233687 
L 346.620318 -281.948419 
L 346.032611 -282.612314 
L 345.444903 -283.225649 
L 344.857195 -283.788506 
L 344.269487 -284.297931 
L 343.681779 -284.747751 
L 343.094071 -285.131637 
L 342.506363 -285.448173 
L 341.918655 -285.7053 
L 341.330947 -285.921409 
L 340.743239 -286.121713 
L 340.155532 -286.330927 
L 339.567824 -286.565288 
L 338.980116 -286.827566 
L 338.392408 -287.107309 
L 337.8047 -287.385992 
L 337.216992 -287.644554 
L 336.629284 -287.869982 
L 336.041576 -288.058619 
L 335.453868 -288.215568 
L 334.86616 -288.351168 
L 334.278453 -288.47632 
L 333.690745 -288.598408 
L 333.103037 -288.719154 
L 332.515329 -288.834921 
L 331.927621 -288.939145 
L 331.339913 -289.025723 
L 330.752205 -289.091883 
L 330.164497 -289.139356 
L 329.576789 -289.17354 
L 328.989081 -289.201236 
L 328.401373 -289.228049 
L 327.813666 -289.256521 
L 327.225958 -289.285607 
L 326.63825 -289.311536 
L 326.050542 -289.329609 
L 325.462834 -289.336211 
L 324.875126 -289.330356 
L 324.287418 -289.314333 
L 323.69971 -289.293411 
L 323.112002 -289.274756 
L 322.524294 -289.265882 
L 321.936587 -289.272897 
L 321.348879 -289.298925 
L 320.761171 -289.343177 
L 320.173463 -289.401109 
L 319.585755 -289.46575 
L 318.998047 -289.529774 
L 318.410339 -289.587434 
L 317.822631 -289.635579 
L 317.234923 -289.673496 
L 316.647215 -289.701987 
L 316.059508 -289.722454 
L 315.4718 -289.736521 
L 314.884092 -289.746179 
L 314.296384 -289.753975 
L 313.708676 -289.762742 
L 313.120968 -289.7748 
L 312.53326 -289.790988 
L 311.945552 -289.810148 
L 311.357844 -289.829399 
L 310.770136 -289.845144 
L 310.182428 -289.85436 
L 309.594721 -289.85564 
L 309.007013 -289.849632 
L 308.419305 -289.838805 
L 307.831597 -289.826714 
L 307.243889 -289.81706 
L 306.656181 -289.812806 
L 306.068473 -289.815584 
L 305.480765 -289.825461 
z
" id="me7864c4d20" style="stroke:#575757;"/>
    </defs>
    <g clip-path="url(#pb41f5434ae)">
     <use style="fill:#7c78ab;stroke:#575757;" x="0" xlink:href="#me7864c4d20" y="326.766667"/>
    </g>
   </g>
   <g id="PolyCollection_2">
    <defs>
     <path d="M 325.832584 -220.071179 
L 325.832584 -226.537154 
L 326.137201 -226.644377 
L 326.441818 -226.745057 
L 326.746435 -226.839393 
L 327.051053 -226.927785 
L 327.35567 -227.010814 
L 327.660287 -227.089228 
L 327.964904 -227.163908 
L 328.269521 -227.235842 
L 328.574138 -227.306084 
L 328.878755 -227.375717 
L 329.183372 -227.445815 
L 329.48799 -227.517395 
L 329.792607 -227.591387 
L 330.097224 -227.668594 
L 330.401841 -227.749665 
L 330.706458 -227.835067 
L 331.011075 -227.925076 
L 331.315692 -228.019761 
L 331.620309 -228.11899 
L 331.924927 -228.222435 
L 332.229544 -228.329593 
L 332.534161 -228.439807 
L 332.838778 -228.552304 
L 333.143395 -228.666226 
L 333.448012 -228.780678 
L 333.752629 -228.89477 
L 334.057246 -229.007663 
L 334.361863 -229.118617 
L 334.666481 -229.227033 
L 334.971098 -229.33249 
L 335.275715 -229.434786 
L 335.580332 -229.533956 
L 335.884949 -229.630303 
L 336.189566 -229.724401 
L 336.494183 -229.817104 
L 336.7988 -229.909536 
L 337.103418 -230.003082 
L 337.408035 -230.099361 
L 337.712652 -230.200196 
L 338.017269 -230.307582 
L 338.321886 -230.423634 
L 338.626503 -230.550547 
L 338.93112 -230.690544 
L 339.235737 -230.84582 
L 339.540355 -231.018495 
L 339.844972 -231.210559 
L 340.149589 -231.423825 
L 340.454206 -231.659888 
L 340.758823 -231.920087 
L 341.06344 -232.205472 
L 341.368057 -232.516787 
L 341.672674 -232.854452 
L 341.977291 -233.218564 
L 342.281909 -233.608902 
L 342.586526 -234.024936 
L 342.891143 -234.465859 
L 343.19576 -234.93061 
L 343.500377 -235.417911 
L 343.804994 -235.926307 
L 344.109611 -236.454204 
L 344.414228 -236.99991 
L 344.718846 -237.561668 
L 345.023463 -238.137687 
L 345.32808 -238.726165 
L 345.632697 -239.325298 
L 345.937314 -239.933284 
L 346.241931 -240.548313 
L 346.546548 -241.168545 
L 346.851165 -241.792076 
L 347.155783 -242.4169 
L 347.4604 -243.040856 
L 347.765017 -243.661578 
L 348.069634 -244.276441 
L 348.374251 -244.882508 
L 348.678868 -245.476482 
L 348.983485 -246.054679 
L 349.288102 -246.612998 
L 349.592719 -247.146926 
L 349.897337 -247.651544 
L 350.201954 -248.121574 
L 350.506571 -248.551433 
L 350.811188 -248.935316 
L 351.115805 -249.267301 
L 351.420422 -249.541467 
L 351.725039 -249.752033 
L 352.029656 -249.893506 
L 352.334274 -249.960833 
L 352.638891 -249.949559 
L 352.943508 -249.855971 
L 353.248125 -249.67724 
L 353.552742 -249.41154 
L 353.857359 -249.058149 
L 354.161976 -248.617522 
L 354.466593 -248.091331 
L 354.771211 -247.48248 
L 355.075828 -246.79508 
L 355.380445 -246.034397 
L 355.685062 -245.206757 
L 355.989679 -244.319436 
L 355.989679 -202.288897 
L 355.989679 -202.288897 
L 355.685062 -201.401577 
L 355.380445 -200.573937 
L 355.075828 -199.813253 
L 354.771211 -199.125854 
L 354.466593 -198.517003 
L 354.161976 -197.990812 
L 353.857359 -197.550184 
L 353.552742 -197.196793 
L 353.248125 -196.931094 
L 352.943508 -196.752362 
L 352.638891 -196.658774 
L 352.334274 -196.6475 
L 352.029656 -196.714828 
L 351.725039 -196.856301 
L 351.420422 -197.066867 
L 351.115805 -197.341032 
L 350.811188 -197.673017 
L 350.506571 -198.0569 
L 350.201954 -198.486759 
L 349.897337 -198.956789 
L 349.592719 -199.461408 
L 349.288102 -199.995335 
L 348.983485 -200.553655 
L 348.678868 -201.131851 
L 348.374251 -201.725826 
L 348.069634 -202.331892 
L 347.765017 -202.946755 
L 347.4604 -203.567478 
L 347.155783 -204.191433 
L 346.851165 -204.816257 
L 346.546548 -205.439788 
L 346.241931 -206.06002 
L 345.937314 -206.675049 
L 345.632697 -207.283035 
L 345.32808 -207.882168 
L 345.023463 -208.470646 
L 344.718846 -209.046665 
L 344.414228 -209.608423 
L 344.109611 -210.154129 
L 343.804994 -210.682026 
L 343.500377 -211.190422 
L 343.19576 -211.677723 
L 342.891143 -212.142474 
L 342.586526 -212.583397 
L 342.281909 -212.999432 
L 341.977291 -213.389769 
L 341.672674 -213.753882 
L 341.368057 -214.091547 
L 341.06344 -214.402861 
L 340.758823 -214.688246 
L 340.454206 -214.948445 
L 340.149589 -215.184509 
L 339.844972 -215.397775 
L 339.540355 -215.589838 
L 339.235737 -215.762513 
L 338.93112 -215.917789 
L 338.626503 -216.057786 
L 338.321886 -216.1847 
L 338.017269 -216.300752 
L 337.712652 -216.408137 
L 337.408035 -216.508973 
L 337.103418 -216.605252 
L 336.7988 -216.698798 
L 336.494183 -216.79123 
L 336.189566 -216.883932 
L 335.884949 -216.97803 
L 335.580332 -217.074377 
L 335.275715 -217.173548 
L 334.971098 -217.275843 
L 334.666481 -217.381301 
L 334.361863 -217.489716 
L 334.057246 -217.600671 
L 333.752629 -217.713564 
L 333.448012 -217.827655 
L 333.143395 -217.942107 
L 332.838778 -218.056029 
L 332.534161 -218.168526 
L 332.229544 -218.278741 
L 331.924927 -218.385898 
L 331.620309 -218.489343 
L 331.315692 -218.588572 
L 331.011075 -218.683257 
L 330.706458 -218.773266 
L 330.401841 -218.858669 
L 330.097224 -218.939739 
L 329.792607 -219.016947 
L 329.48799 -219.090939 
L 329.183372 -219.162519 
L 328.878755 -219.232616 
L 328.574138 -219.30225 
L 328.269521 -219.372492 
L 327.964904 -219.444425 
L 327.660287 -219.519105 
L 327.35567 -219.597519 
L 327.051053 -219.680549 
L 326.746435 -219.76894 
L 326.441818 -219.863277 
L 326.137201 -219.963956 
L 325.832584 -220.071179 
z
" id="m4feefd9049" style="stroke:#575757;"/>
    </defs>
    <g clip-path="url(#pb41f5434ae)">
     <use style="fill:#7c78ab;stroke:#575757;" x="0" xlink:href="#m4feefd9049" y="326.766667"/>
    </g>
   </g>
   <g id="PolyCollection_3">
    <defs>
     <path d="M 302.379625 -152.170526 
L 302.379625 -161.154474 
L 302.821878 -161.156834 
L 303.264131 -161.151931 
L 303.706385 -161.13986 
L 304.148638 -161.120762 
L 304.590892 -161.094826 
L 305.033145 -161.062285 
L 305.475398 -161.023417 
L 305.917652 -160.978545 
L 306.359905 -160.928035 
L 306.802159 -160.872296 
L 307.244412 -160.811779 
L 307.686666 -160.74697 
L 308.128919 -160.678397 
L 308.571172 -160.606623 
L 309.013426 -160.532243 
L 309.455679 -160.455885 
L 309.897933 -160.378207 
L 310.340186 -160.299895 
L 310.782439 -160.22166 
L 311.224693 -160.144237 
L 311.666946 -160.068383 
L 312.1092 -159.994875 
L 312.551453 -159.924505 
L 312.993707 -159.858082 
L 313.43596 -159.796431 
L 313.878213 -159.740384 
L 314.320467 -159.690786 
L 314.76272 -159.648489 
L 315.204974 -159.61435 
L 315.647227 -159.589231 
L 316.089481 -159.573995 
L 316.531734 -159.569506 
L 316.973987 -159.576624 
L 317.416241 -159.596203 
L 317.858494 -159.629092 
L 318.300748 -159.676129 
L 318.743001 -159.738136 
L 319.185254 -159.815923 
L 319.627508 -159.910276 
L 320.069761 -160.021958 
L 320.512015 -160.151705 
L 320.954268 -160.30022 
L 321.396522 -160.468169 
L 321.838775 -160.656175 
L 322.281028 -160.864813 
L 322.723282 -161.094606 
L 323.165535 -161.346017 
L 323.607789 -161.619444 
L 324.050042 -161.915214 
L 324.492296 -162.233575 
L 324.934549 -162.57469 
L 325.376802 -162.938634 
L 325.819056 -163.325382 
L 326.261309 -163.734806 
L 326.703563 -164.166669 
L 327.145816 -164.62062 
L 327.588069 -165.096185 
L 328.030323 -165.592767 
L 328.472576 -166.109641 
L 328.91483 -166.645946 
L 329.357083 -167.20069 
L 329.799337 -167.772743 
L 330.24159 -168.360836 
L 330.683843 -168.963567 
L 331.126097 -169.579397 
L 331.56835 -170.206654 
L 332.010604 -170.843539 
L 332.452857 -171.48813 
L 332.895111 -172.138387 
L 333.337364 -172.792163 
L 333.779617 -173.447212 
L 334.221871 -174.101198 
L 334.664124 -174.751707 
L 335.106378 -175.396261 
L 335.548631 -176.032333 
L 335.990884 -176.657357 
L 336.433138 -177.268749 
L 336.875391 -177.863919 
L 337.317645 -178.440291 
L 337.759898 -178.995319 
L 338.202152 -179.526506 
L 338.644405 -180.031418 
L 339.086658 -180.507706 
L 339.528912 -180.953121 
L 339.971165 -181.365533 
L 340.413419 -181.742944 
L 340.855672 -182.083505 
L 341.297926 -182.385532 
L 341.740179 -182.647518 
L 342.182432 -182.868143 
L 342.624686 -183.04629 
L 343.066939 -183.181049 
L 343.509193 -183.271725 
L 343.951446 -183.317847 
L 344.393699 -183.319167 
L 344.835953 -183.275666 
L 345.278206 -183.187553 
L 345.72046 -183.055261 
L 346.162713 -182.879446 
L 346.162713 -130.445554 
L 346.162713 -130.445554 
L 345.72046 -130.269739 
L 345.278206 -130.137447 
L 344.835953 -130.049334 
L 344.393699 -130.005833 
L 343.951446 -130.007153 
L 343.509193 -130.053275 
L 343.066939 -130.143951 
L 342.624686 -130.27871 
L 342.182432 -130.456857 
L 341.740179 -130.677482 
L 341.297926 -130.939468 
L 340.855672 -131.241495 
L 340.413419 -131.582056 
L 339.971165 -131.959467 
L 339.528912 -132.371879 
L 339.086658 -132.817294 
L 338.644405 -133.293582 
L 338.202152 -133.798494 
L 337.759898 -134.329681 
L 337.317645 -134.884709 
L 336.875391 -135.461081 
L 336.433138 -136.056251 
L 335.990884 -136.667643 
L 335.548631 -137.292667 
L 335.106378 -137.928739 
L 334.664124 -138.573293 
L 334.221871 -139.223802 
L 333.779617 -139.877788 
L 333.337364 -140.532837 
L 332.895111 -141.186613 
L 332.452857 -141.83687 
L 332.010604 -142.481461 
L 331.56835 -143.118346 
L 331.126097 -143.745603 
L 330.683843 -144.361433 
L 330.24159 -144.964164 
L 329.799337 -145.552257 
L 329.357083 -146.12431 
L 328.91483 -146.679054 
L 328.472576 -147.215359 
L 328.030323 -147.732233 
L 327.588069 -148.228815 
L 327.145816 -148.70438 
L 326.703563 -149.158331 
L 326.261309 -149.590194 
L 325.819056 -149.999618 
L 325.376802 -150.386366 
L 324.934549 -150.75031 
L 324.492296 -151.091425 
L 324.050042 -151.409786 
L 323.607789 -151.705556 
L 323.165535 -151.978983 
L 322.723282 -152.230394 
L 322.281028 -152.460187 
L 321.838775 -152.668825 
L 321.396522 -152.856831 
L 320.954268 -153.02478 
L 320.512015 -153.173295 
L 320.069761 -153.303042 
L 319.627508 -153.414724 
L 319.185254 -153.509077 
L 318.743001 -153.586864 
L 318.300748 -153.648871 
L 317.858494 -153.695908 
L 317.416241 -153.728797 
L 316.973987 -153.748376 
L 316.531734 -153.755494 
L 316.089481 -153.751005 
L 315.647227 -153.735769 
L 315.204974 -153.71065 
L 314.76272 -153.676511 
L 314.320467 -153.634214 
L 313.878213 -153.584616 
L 313.43596 -153.528569 
L 312.993707 -153.466918 
L 312.551453 -153.400495 
L 312.1092 -153.330125 
L 311.666946 -153.256617 
L 311.224693 -153.180763 
L 310.782439 -153.10334 
L 310.340186 -153.025105 
L 309.897933 -152.946793 
L 309.455679 -152.869115 
L 309.013426 -152.792757 
L 308.571172 -152.718377 
L 308.128919 -152.646603 
L 307.686666 -152.57803 
L 307.244412 -152.513221 
L 306.802159 -152.452704 
L 306.359905 -152.396965 
L 305.917652 -152.346455 
L 305.475398 -152.301583 
L 305.033145 -152.262715 
L 304.590892 -152.230174 
L 304.148638 -152.204238 
L 303.706385 -152.18514 
L 303.264131 -152.173069 
L 302.821878 -152.168166 
L 302.379625 -152.170526 
z
" id="m1af508412b" style="stroke:#575757;"/>
    </defs>
    <g clip-path="url(#pb41f5434ae)">
     <use style="fill:#7c78ab;stroke:#575757;" x="0" xlink:href="#m1af508412b" y="326.766667"/>
    </g>
   </g>
   <g id="PolyCollection_4">
    <defs>
     <path d="M 301.397176 -66.692266 
L 301.397176 -113.3494 
L 301.472283 -113.486746 
L 301.547389 -113.621151 
L 301.622495 -113.7526 
L 301.697602 -113.881083 
L 301.772708 -114.006591 
L 301.847814 -114.129117 
L 301.92292 -114.248655 
L 301.998027 -114.365202 
L 302.073133 -114.478758 
L 302.148239 -114.589321 
L 302.223346 -114.696893 
L 302.298452 -114.801479 
L 302.373558 -114.903082 
L 302.448664 -115.00171 
L 302.523771 -115.097368 
L 302.598877 -115.190067 
L 302.673983 -115.279815 
L 302.74909 -115.366624 
L 302.824196 -115.450506 
L 302.899302 -115.531472 
L 302.974408 -115.609538 
L 303.049515 -115.684715 
L 303.124621 -115.75702 
L 303.199727 -115.826467 
L 303.274833 -115.893072 
L 303.34994 -115.956851 
L 303.425046 -116.017819 
L 303.500152 -116.075993 
L 303.575259 -116.131388 
L 303.650365 -116.184022 
L 303.725471 -116.233909 
L 303.800577 -116.281065 
L 303.875684 -116.325506 
L 303.95079 -116.367246 
L 304.025896 -116.406301 
L 304.101003 -116.442683 
L 304.176109 -116.476407 
L 304.251215 -116.507485 
L 304.326321 -116.53593 
L 304.401428 -116.561751 
L 304.476534 -116.584959 
L 304.55164 -116.605565 
L 304.626746 -116.623575 
L 304.701853 -116.638999 
L 304.776959 -116.651842 
L 304.852065 -116.66211 
L 304.927172 -116.669806 
L 305.002278 -116.674936 
L 305.077384 -116.6775 
L 305.15249 -116.6775 
L 305.227597 -116.674936 
L 305.302703 -116.669806 
L 305.377809 -116.66211 
L 305.452916 -116.651842 
L 305.528022 -116.638999 
L 305.603128 -116.623575 
L 305.678234 -116.605565 
L 305.753341 -116.584959 
L 305.828447 -116.561751 
L 305.903553 -116.53593 
L 305.97866 -116.507485 
L 306.053766 -116.476407 
L 306.128872 -116.442683 
L 306.203978 -116.406301 
L 306.279085 -116.367246 
L 306.354191 -116.325506 
L 306.429297 -116.281065 
L 306.504403 -116.233909 
L 306.57951 -116.184022 
L 306.654616 -116.131388 
L 306.729722 -116.075993 
L 306.804829 -116.017819 
L 306.879935 -115.956851 
L 306.955041 -115.893072 
L 307.030147 -115.826467 
L 307.105254 -115.75702 
L 307.18036 -115.684715 
L 307.255466 -115.609538 
L 307.330573 -115.531472 
L 307.405679 -115.450506 
L 307.480785 -115.366624 
L 307.555891 -115.279815 
L 307.630998 -115.190067 
L 307.706104 -115.097368 
L 307.78121 -115.00171 
L 307.856316 -114.903082 
L 307.931423 -114.801479 
L 308.006529 -114.696893 
L 308.081635 -114.589321 
L 308.156742 -114.478758 
L 308.231848 -114.365202 
L 308.306954 -114.248655 
L 308.38206 -114.129117 
L 308.457167 -114.006591 
L 308.532273 -113.881083 
L 308.607379 -113.7526 
L 308.682486 -113.621151 
L 308.757592 -113.486746 
L 308.832698 -113.3494 
L 308.832698 -66.692266 
L 308.832698 -66.692266 
L 308.757592 -66.55492 
L 308.682486 -66.420516 
L 308.607379 -66.289067 
L 308.532273 -66.160584 
L 308.457167 -66.035076 
L 308.38206 -65.91255 
L 308.306954 -65.793012 
L 308.231848 -65.676464 
L 308.156742 -65.562909 
L 308.081635 -65.452346 
L 308.006529 -65.344773 
L 307.931423 -65.240188 
L 307.856316 -65.138584 
L 307.78121 -65.039957 
L 307.706104 -64.944299 
L 307.630998 -64.8516 
L 307.555891 -64.761852 
L 307.480785 -64.675042 
L 307.405679 -64.591161 
L 307.330573 -64.510194 
L 307.255466 -64.432129 
L 307.18036 -64.356951 
L 307.105254 -64.284646 
L 307.030147 -64.215199 
L 306.955041 -64.148594 
L 306.879935 -64.084816 
L 306.804829 -64.023848 
L 306.729722 -63.965674 
L 306.654616 -63.910278 
L 306.57951 -63.857645 
L 306.504403 -63.807758 
L 306.429297 -63.760602 
L 306.354191 -63.716161 
L 306.279085 -63.674421 
L 306.203978 -63.635366 
L 306.128872 -63.598983 
L 306.053766 -63.565259 
L 305.97866 -63.534181 
L 305.903553 -63.505737 
L 305.828447 -63.479916 
L 305.753341 -63.456707 
L 305.678234 -63.436102 
L 305.603128 -63.418091 
L 305.528022 -63.402668 
L 305.452916 -63.389825 
L 305.377809 -63.379557 
L 305.302703 -63.37186 
L 305.227597 -63.366731 
L 305.15249 -63.364167 
L 305.077384 -63.364167 
L 305.002278 -63.366731 
L 304.927172 -63.37186 
L 304.852065 -63.379557 
L 304.776959 -63.389825 
L 304.701853 -63.402668 
L 304.626746 -63.418091 
L 304.55164 -63.436102 
L 304.476534 -63.456707 
L 304.401428 -63.479916 
L 304.326321 -63.505737 
L 304.251215 -63.534181 
L 304.176109 -63.565259 
L 304.101003 -63.598983 
L 304.025896 -63.635366 
L 303.95079 -63.674421 
L 303.875684 -63.716161 
L 303.800577 -63.760602 
L 303.725471 -63.807758 
L 303.650365 -63.857645 
L 303.575259 -63.910278 
L 303.500152 -63.965674 
L 303.425046 -64.023848 
L 303.34994 -64.084816 
L 303.274833 -64.148594 
L 303.199727 -64.215199 
L 303.124621 -64.284646 
L 303.049515 -64.356951 
L 302.974408 -64.432129 
L 302.899302 -64.510194 
L 302.824196 -64.591161 
L 302.74909 -64.675042 
L 302.673983 -64.761852 
L 302.598877 -64.8516 
L 302.523771 -64.944299 
L 302.448664 -65.039957 
L 302.373558 -65.138584 
L 302.298452 -65.240188 
L 302.223346 -65.344773 
L 302.148239 -65.452346 
L 302.073133 -65.562909 
L 301.998027 -65.676464 
L 301.92292 -65.793012 
L 301.847814 -65.91255 
L 301.772708 -66.035076 
L 301.697602 -66.160584 
L 301.622495 -66.289067 
L 301.547389 -66.420516 
L 301.472283 -66.55492 
L 301.397176 -66.692266 
z
" id="m491c6803f7" style="stroke:#575757;"/>
    </defs>
    <g clip-path="url(#pb41f5434ae)">
     <use style="fill:#7c78ab;stroke:#575757;" x="0" xlink:href="#m491c6803f7" y="326.766667"/>
    </g>
   </g>
   <g id="patch_46">
    <path clip-path="url(#pb41f5434ae)" d="M 118.471111 36.820833 
L 118.471111 36.820833 
L 118.471111 36.820833 
L 118.471111 36.820833 
z
" style="fill:#7c78ab;stroke:#575757;stroke-linejoin:miter;stroke-width:0.5;"/>
   </g>
   <g id="matplotlib.axis_3">
    <g id="xtick_5">
     <g id="line2d_10">
      <g>
       <use style="stroke:#000000;stroke-width:1.6;" x="118.471111" xlink:href="#m98446cfb8a" y="270.066667"/>
      </g>
     </g>
     <g id="text_12">
      <!-- 0.0 -->
      <g transform="translate(102.567986 299.963542)scale(0.2 -0.2)">
       <use xlink:href="#DejaVuSans-48"/>
       <use x="63.623047" xlink:href="#DejaVuSans-46"/>
       <use x="95.410156" xlink:href="#DejaVuSans-48"/>
      </g>
     </g>
    </g>
    <g id="xtick_6">
     <g id="line2d_11">
      <g>
       <use style="stroke:#000000;stroke-width:1.6;" x="189.555556" xlink:href="#m98446cfb8a" y="270.066667"/>
      </g>
     </g>
     <g id="text_13">
      <!-- 0.2 -->
      <g transform="translate(173.652431 299.963542)scale(0.2 -0.2)">
       <use xlink:href="#DejaVuSans-48"/>
       <use x="63.623047" xlink:href="#DejaVuSans-46"/>
       <use x="95.410156" xlink:href="#DejaVuSans-50"/>
      </g>
     </g>
    </g>
    <g id="xtick_7">
     <g id="line2d_12">
      <g>
       <use style="stroke:#000000;stroke-width:1.6;" x="260.64" xlink:href="#m98446cfb8a" y="270.066667"/>
      </g>
     </g>
     <g id="text_14">
      <!-- 0.4 -->
      <g transform="translate(244.736875 299.963542)scale(0.2 -0.2)">
       <use xlink:href="#DejaVuSans-48"/>
       <use x="63.623047" xlink:href="#DejaVuSans-46"/>
       <use x="95.410156" xlink:href="#DejaVuSans-52"/>
      </g>
     </g>
    </g>
    <g id="xtick_8">
     <g id="line2d_13">
      <g>
       <use style="stroke:#000000;stroke-width:1.6;" x="331.724444" xlink:href="#m98446cfb8a" y="270.066667"/>
      </g>
     </g>
     <g id="text_15">
      <!-- 0.6 -->
      <g transform="translate(315.821319 299.963542)scale(0.2 -0.2)">
       <use xlink:href="#DejaVuSans-48"/>
       <use x="63.623047" xlink:href="#DejaVuSans-46"/>
       <use x="95.410156" xlink:href="#DejaVuSans-54"/>
      </g>
     </g>
    </g>
    <g id="text_16">
     <!-- Max Attention -->
     <defs>
      <path d="M 9.8125 72.90625 
L 24.515625 72.90625 
L 43.109375 23.296875 
L 61.8125 72.90625 
L 76.515625 72.90625 
L 76.515625 0 
L 66.890625 0 
L 66.890625 64.015625 
L 48.09375 14.015625 
L 38.1875 14.015625 
L 19.390625 64.015625 
L 19.390625 0 
L 9.8125 0 
z
" id="DejaVuSans-77"/>
      <path d="M 34.28125 27.484375 
Q 23.390625 27.484375 19.1875 25 
Q 14.984375 22.515625 14.984375 16.5 
Q 14.984375 11.71875 18.140625 8.90625 
Q 21.296875 6.109375 26.703125 6.109375 
Q 34.1875 6.109375 38.703125 11.40625 
Q 43.21875 16.703125 43.21875 25.484375 
L 43.21875 27.484375 
z
M 52.203125 31.203125 
L 52.203125 0 
L 43.21875 0 
L 43.21875 8.296875 
Q 40.140625 3.328125 35.546875 0.953125 
Q 30.953125 -1.421875 24.3125 -1.421875 
Q 15.921875 -1.421875 10.953125 3.296875 
Q 6 8.015625 6 15.921875 
Q 6 25.140625 12.171875 29.828125 
Q 18.359375 34.515625 30.609375 34.515625 
L 43.21875 34.515625 
L 43.21875 35.40625 
Q 43.21875 41.609375 39.140625 45 
Q 35.0625 48.390625 27.6875 48.390625 
Q 23 48.390625 18.546875 47.265625 
Q 14.109375 46.140625 10.015625 43.890625 
L 10.015625 52.203125 
Q 14.9375 54.109375 19.578125 55.046875 
Q 24.21875 56 28.609375 56 
Q 40.484375 56 46.34375 49.84375 
Q 52.203125 43.703125 52.203125 31.203125 
z
" id="DejaVuSans-97"/>
      <path d="M 54.890625 54.6875 
L 35.109375 28.078125 
L 55.90625 0 
L 45.3125 0 
L 29.390625 21.484375 
L 13.484375 0 
L 2.875 0 
L 24.125 28.609375 
L 4.6875 54.6875 
L 15.28125 54.6875 
L 29.78125 35.203125 
L 44.28125 54.6875 
z
" id="DejaVuSans-120"/>
      <path d="M 34.1875 63.1875 
L 20.796875 26.90625 
L 47.609375 26.90625 
z
M 28.609375 72.90625 
L 39.796875 72.90625 
L 67.578125 0 
L 57.328125 0 
L 50.6875 18.703125 
L 17.828125 18.703125 
L 11.1875 0 
L 0.78125 0 
z
" id="DejaVuSans-65"/>
      <path d="M 18.3125 70.21875 
L 18.3125 54.6875 
L 36.8125 54.6875 
L 36.8125 47.703125 
L 18.3125 47.703125 
L 18.3125 18.015625 
Q 18.3125 11.328125 20.140625 9.421875 
Q 21.96875 7.515625 27.59375 7.515625 
L 36.8125 7.515625 
L 36.8125 0 
L 27.59375 0 
Q 17.1875 0 13.234375 3.875 
Q 9.28125 7.765625 9.28125 18.015625 
L 9.28125 47.703125 
L 2.6875 47.703125 
L 2.6875 54.6875 
L 9.28125 54.6875 
L 9.28125 70.21875 
z
" id="DejaVuSans-116"/>
      <path d="M 56.203125 29.59375 
L 56.203125 25.203125 
L 14.890625 25.203125 
Q 15.484375 15.921875 20.484375 11.0625 
Q 25.484375 6.203125 34.421875 6.203125 
Q 39.59375 6.203125 44.453125 7.46875 
Q 49.3125 8.734375 54.109375 11.28125 
L 54.109375 2.78125 
Q 49.265625 0.734375 44.1875 -0.34375 
Q 39.109375 -1.421875 33.890625 -1.421875 
Q 20.796875 -1.421875 13.15625 6.1875 
Q 5.515625 13.8125 5.515625 26.8125 
Q 5.515625 40.234375 12.765625 48.109375 
Q 20.015625 56 32.328125 56 
Q 43.359375 56 49.78125 48.890625 
Q 56.203125 41.796875 56.203125 29.59375 
z
M 47.21875 32.234375 
Q 47.125 39.59375 43.09375 43.984375 
Q 39.0625 48.390625 32.421875 48.390625 
Q 24.90625 48.390625 20.390625 44.140625 
Q 15.875 39.890625 15.1875 32.171875 
z
" id="DejaVuSans-101"/>
      <path d="M 54.890625 33.015625 
L 54.890625 0 
L 45.90625 0 
L 45.90625 32.71875 
Q 45.90625 40.484375 42.875 44.328125 
Q 39.84375 48.1875 33.796875 48.1875 
Q 26.515625 48.1875 22.3125 43.546875 
Q 18.109375 38.921875 18.109375 30.90625 
L 18.109375 0 
L 9.078125 0 
L 9.078125 54.6875 
L 18.109375 54.6875 
L 18.109375 46.1875 
Q 21.34375 51.125 25.703125 53.5625 
Q 30.078125 56 35.796875 56 
Q 45.21875 56 50.046875 50.171875 
Q 54.890625 44.34375 54.890625 33.015625 
z
" id="DejaVuSans-110"/>
      <path d="M 9.421875 54.6875 
L 18.40625 54.6875 
L 18.40625 0 
L 9.421875 0 
z
M 9.421875 75.984375 
L 18.40625 75.984375 
L 18.40625 64.59375 
L 9.421875 64.59375 
z
" id="DejaVuSans-105"/>
      <path d="M 30.609375 48.390625 
Q 23.390625 48.390625 19.1875 42.75 
Q 14.984375 37.109375 14.984375 27.296875 
Q 14.984375 17.484375 19.15625 11.84375 
Q 23.34375 6.203125 30.609375 6.203125 
Q 37.796875 6.203125 41.984375 11.859375 
Q 46.1875 17.53125 46.1875 27.296875 
Q 46.1875 37.015625 41.984375 42.703125 
Q 37.796875 48.390625 30.609375 48.390625 
z
M 30.609375 56 
Q 42.328125 56 49.015625 48.375 
Q 55.71875 40.765625 55.71875 27.296875 
Q 55.71875 13.875 49.015625 6.21875 
Q 42.328125 -1.421875 30.609375 -1.421875 
Q 18.84375 -1.421875 12.171875 6.21875 
Q 5.515625 13.875 5.515625 27.296875 
Q 5.515625 40.765625 12.171875 48.375 
Q 18.84375 56 30.609375 56 
z
" id="DejaVuSans-111"/>
     </defs>
     <g transform="translate(163.805208 323.319792)scale(0.2 -0.2)">
      <use xlink:href="#DejaVuSans-77"/>
      <use x="86.279297" xlink:href="#DejaVuSans-97"/>
      <use x="147.558594" xlink:href="#DejaVuSans-120"/>
      <use x="206.738281" xlink:href="#DejaVuSans-32"/>
      <use x="238.525391" xlink:href="#DejaVuSans-65"/>
      <use x="306.917969" xlink:href="#DejaVuSans-116"/>
      <use x="346.126953" xlink:href="#DejaVuSans-116"/>
      <use x="385.335938" xlink:href="#DejaVuSans-101"/>
      <use x="446.859375" xlink:href="#DejaVuSans-110"/>
      <use x="510.238281" xlink:href="#DejaVuSans-116"/>
      <use x="549.447266" xlink:href="#DejaVuSans-105"/>
      <use x="577.230469" xlink:href="#DejaVuSans-111"/>
      <use x="638.412109" xlink:href="#DejaVuSans-110"/>
     </g>
    </g>
   </g>
   <g id="matplotlib.axis_4">
    <g id="ytick_6">
     <g id="line2d_14">
      <g>
       <use style="stroke:#000000;stroke-width:1.6;" x="100.7" xlink:href="#m570741e8cf" y="36.820833"/>
      </g>
     </g>
     <g id="text_17">
      <!-- [0.00, -->
      <defs>
       <path d="M 8.59375 75.984375 
L 29.296875 75.984375 
L 29.296875 69 
L 17.578125 69 
L 17.578125 -6.203125 
L 29.296875 -6.203125 
L 29.296875 -13.1875 
L 8.59375 -13.1875 
z
" id="DejaVuSans-91"/>
       <path d="M 11.71875 12.40625 
L 22.015625 12.40625 
L 22.015625 4 
L 14.015625 -11.625 
L 7.71875 -11.625 
L 11.71875 4 
z
" id="DejaVuSans-44"/>
      </defs>
      <g transform="translate(27.309375 33.221458)scale(0.2 -0.2)">
       <use xlink:href="#DejaVuSans-91"/>
       <use x="39.013672" xlink:href="#DejaVuSans-48"/>
       <use x="102.636719" xlink:href="#DejaVuSans-46"/>
       <use x="134.423828" xlink:href="#DejaVuSans-48"/>
       <use x="198.046875" xlink:href="#DejaVuSans-48"/>
       <use x="261.669922" xlink:href="#DejaVuSans-44"/>
      </g>
      <!-- 0.25) -->
      <defs>
       <path d="M 10.796875 72.90625 
L 49.515625 72.90625 
L 49.515625 64.59375 
L 19.828125 64.59375 
L 19.828125 46.734375 
Q 21.96875 47.46875 24.109375 47.828125 
Q 26.265625 48.1875 28.421875 48.1875 
Q 40.625 48.1875 47.75 41.5 
Q 54.890625 34.8125 54.890625 23.390625 
Q 54.890625 11.625 47.5625 5.09375 
Q 40.234375 -1.421875 26.90625 -1.421875 
Q 22.3125 -1.421875 17.546875 -0.640625 
Q 12.796875 0.140625 7.71875 1.703125 
L 7.71875 11.625 
Q 12.109375 9.234375 16.796875 8.0625 
Q 21.484375 6.890625 26.703125 6.890625 
Q 35.15625 6.890625 40.078125 11.328125 
Q 45.015625 15.765625 45.015625 23.390625 
Q 45.015625 31 40.078125 35.4375 
Q 35.15625 39.890625 26.703125 39.890625 
Q 22.75 39.890625 18.8125 39.015625 
Q 14.890625 38.140625 10.796875 36.28125 
z
" id="DejaVuSans-53"/>
       <path d="M 8.015625 75.875 
L 15.828125 75.875 
Q 23.140625 64.359375 26.78125 53.3125 
Q 30.421875 42.28125 30.421875 31.390625 
Q 30.421875 20.453125 26.78125 9.375 
Q 23.140625 -1.703125 15.828125 -13.1875 
L 8.015625 -13.1875 
Q 14.5 -2 17.703125 9.0625 
Q 20.90625 20.125 20.90625 31.390625 
Q 20.90625 42.671875 17.703125 53.65625 
Q 14.5 64.65625 8.015625 75.875 
z
" id="DejaVuSans-41"/>
      </defs>
      <g transform="translate(33.665625 55.617083)scale(0.2 -0.2)">
       <use xlink:href="#DejaVuSans-48"/>
       <use x="63.623047" xlink:href="#DejaVuSans-46"/>
       <use x="95.410156" xlink:href="#DejaVuSans-50"/>
       <use x="159.033203" xlink:href="#DejaVuSans-53"/>
       <use x="222.65625" xlink:href="#DejaVuSans-41"/>
      </g>
     </g>
    </g>
    <g id="ytick_7">
     <g id="line2d_15">
      <g>
       <use style="stroke:#000000;stroke-width:1.6;" x="100.7" xlink:href="#m570741e8cf" y="103.4625"/>
      </g>
     </g>
     <g id="text_18">
      <!-- [0.25, -->
      <g transform="translate(27.309375 99.863125)scale(0.2 -0.2)">
       <use xlink:href="#DejaVuSans-91"/>
       <use x="39.013672" xlink:href="#DejaVuSans-48"/>
       <use x="102.636719" xlink:href="#DejaVuSans-46"/>
       <use x="134.423828" xlink:href="#DejaVuSans-50"/>
       <use x="198.046875" xlink:href="#DejaVuSans-53"/>
       <use x="261.669922" xlink:href="#DejaVuSans-44"/>
      </g>
      <!-- 0.50) -->
      <g transform="translate(33.665625 122.25875)scale(0.2 -0.2)">
       <use xlink:href="#DejaVuSans-48"/>
       <use x="63.623047" xlink:href="#DejaVuSans-46"/>
       <use x="95.410156" xlink:href="#DejaVuSans-53"/>
       <use x="159.033203" xlink:href="#DejaVuSans-48"/>
       <use x="222.65625" xlink:href="#DejaVuSans-41"/>
      </g>
     </g>
    </g>
    <g id="ytick_8">
     <g id="line2d_16">
      <g>
       <use style="stroke:#000000;stroke-width:1.6;" x="100.7" xlink:href="#m570741e8cf" y="170.104167"/>
      </g>
     </g>
     <g id="text_19">
      <!-- [0.50, -->
      <g transform="translate(27.309375 166.504792)scale(0.2 -0.2)">
       <use xlink:href="#DejaVuSans-91"/>
       <use x="39.013672" xlink:href="#DejaVuSans-48"/>
       <use x="102.636719" xlink:href="#DejaVuSans-46"/>
       <use x="134.423828" xlink:href="#DejaVuSans-53"/>
       <use x="198.046875" xlink:href="#DejaVuSans-48"/>
       <use x="261.669922" xlink:href="#DejaVuSans-44"/>
      </g>
      <!-- 0.75) -->
      <defs>
       <path d="M 8.203125 72.90625 
L 55.078125 72.90625 
L 55.078125 68.703125 
L 28.609375 0 
L 18.3125 0 
L 43.21875 64.59375 
L 8.203125 64.59375 
z
" id="DejaVuSans-55"/>
      </defs>
      <g transform="translate(33.665625 188.900417)scale(0.2 -0.2)">
       <use xlink:href="#DejaVuSans-48"/>
       <use x="63.623047" xlink:href="#DejaVuSans-46"/>
       <use x="95.410156" xlink:href="#DejaVuSans-55"/>
       <use x="159.033203" xlink:href="#DejaVuSans-53"/>
       <use x="222.65625" xlink:href="#DejaVuSans-41"/>
      </g>
     </g>
    </g>
    <g id="ytick_9">
     <g id="line2d_17">
      <g>
       <use style="stroke:#000000;stroke-width:1.6;" x="100.7" xlink:href="#m570741e8cf" y="236.745833"/>
      </g>
     </g>
     <g id="text_20">
      <!-- [0.75, -->
      <g transform="translate(27.309375 233.146458)scale(0.2 -0.2)">
       <use xlink:href="#DejaVuSans-91"/>
       <use x="39.013672" xlink:href="#DejaVuSans-48"/>
       <use x="102.636719" xlink:href="#DejaVuSans-46"/>
       <use x="134.423828" xlink:href="#DejaVuSans-55"/>
       <use x="198.046875" xlink:href="#DejaVuSans-53"/>
       <use x="261.669922" xlink:href="#DejaVuSans-44"/>
      </g>
      <!-- 1.00) -->
      <g transform="translate(33.665625 255.542083)scale(0.2 -0.2)">
       <use xlink:href="#DejaVuSans-49"/>
       <use x="63.623047" xlink:href="#DejaVuSans-46"/>
       <use x="95.410156" xlink:href="#DejaVuSans-48"/>
       <use x="159.033203" xlink:href="#DejaVuSans-48"/>
       <use x="222.65625" xlink:href="#DejaVuSans-41"/>
      </g>
     </g>
    </g>
    <g id="text_21">
     <!-- Max JS Divergence within $\epsilon$ -->
     <defs>
      <path d="M 9.8125 72.90625 
L 19.671875 72.90625 
L 19.671875 5.078125 
Q 19.671875 -8.109375 14.671875 -14.0625 
Q 9.671875 -20.015625 -1.421875 -20.015625 
L -5.171875 -20.015625 
L -5.171875 -11.71875 
L -2.09375 -11.71875 
Q 4.4375 -11.71875 7.125 -8.046875 
Q 9.8125 -4.390625 9.8125 5.078125 
z
" id="DejaVuSans-74"/>
      <path d="M 53.515625 70.515625 
L 53.515625 60.890625 
Q 47.90625 63.578125 42.921875 64.890625 
Q 37.9375 66.21875 33.296875 66.21875 
Q 25.25 66.21875 20.875 63.09375 
Q 16.5 59.96875 16.5 54.203125 
Q 16.5 49.359375 19.40625 46.890625 
Q 22.3125 44.4375 30.421875 42.921875 
L 36.375 41.703125 
Q 47.40625 39.59375 52.65625 34.296875 
Q 57.90625 29 57.90625 20.125 
Q 57.90625 9.515625 50.796875 4.046875 
Q 43.703125 -1.421875 29.984375 -1.421875 
Q 24.8125 -1.421875 18.96875 -0.25 
Q 13.140625 0.921875 6.890625 3.21875 
L 6.890625 13.375 
Q 12.890625 10.015625 18.65625 8.296875 
Q 24.421875 6.59375 29.984375 6.59375 
Q 38.421875 6.59375 43.015625 9.90625 
Q 47.609375 13.234375 47.609375 19.390625 
Q 47.609375 24.75 44.3125 27.78125 
Q 41.015625 30.8125 33.5 32.328125 
L 27.484375 33.5 
Q 16.453125 35.6875 11.515625 40.375 
Q 6.59375 45.0625 6.59375 53.421875 
Q 6.59375 63.09375 13.40625 68.65625 
Q 20.21875 74.21875 32.171875 74.21875 
Q 37.3125 74.21875 42.625 73.28125 
Q 47.953125 72.359375 53.515625 70.515625 
z
" id="DejaVuSans-83"/>
      <path d="M 19.671875 64.796875 
L 19.671875 8.109375 
L 31.59375 8.109375 
Q 46.6875 8.109375 53.6875 14.9375 
Q 60.6875 21.78125 60.6875 36.53125 
Q 60.6875 51.171875 53.6875 57.984375 
Q 46.6875 64.796875 31.59375 64.796875 
z
M 9.8125 72.90625 
L 30.078125 72.90625 
Q 51.265625 72.90625 61.171875 64.09375 
Q 71.09375 55.28125 71.09375 36.53125 
Q 71.09375 17.671875 61.125 8.828125 
Q 51.171875 0 30.078125 0 
L 9.8125 0 
z
" id="DejaVuSans-68"/>
      <path d="M 2.984375 54.6875 
L 12.5 54.6875 
L 29.59375 8.796875 
L 46.6875 54.6875 
L 56.203125 54.6875 
L 35.6875 0 
L 23.484375 0 
z
" id="DejaVuSans-118"/>
      <path d="M 41.109375 46.296875 
Q 39.59375 47.171875 37.8125 47.578125 
Q 36.03125 48 33.890625 48 
Q 26.265625 48 22.1875 43.046875 
Q 18.109375 38.09375 18.109375 28.8125 
L 18.109375 0 
L 9.078125 0 
L 9.078125 54.6875 
L 18.109375 54.6875 
L 18.109375 46.1875 
Q 20.953125 51.171875 25.484375 53.578125 
Q 30.03125 56 36.53125 56 
Q 37.453125 56 38.578125 55.875 
Q 39.703125 55.765625 41.0625 55.515625 
z
" id="DejaVuSans-114"/>
      <path d="M 45.40625 27.984375 
Q 45.40625 37.75 41.375 43.109375 
Q 37.359375 48.484375 30.078125 48.484375 
Q 22.859375 48.484375 18.828125 43.109375 
Q 14.796875 37.75 14.796875 27.984375 
Q 14.796875 18.265625 18.828125 12.890625 
Q 22.859375 7.515625 30.078125 7.515625 
Q 37.359375 7.515625 41.375 12.890625 
Q 45.40625 18.265625 45.40625 27.984375 
z
M 54.390625 6.78125 
Q 54.390625 -7.171875 48.1875 -13.984375 
Q 42 -20.796875 29.203125 -20.796875 
Q 24.46875 -20.796875 20.265625 -20.09375 
Q 16.0625 -19.390625 12.109375 -17.921875 
L 12.109375 -9.1875 
Q 16.0625 -11.328125 19.921875 -12.34375 
Q 23.78125 -13.375 27.78125 -13.375 
Q 36.625 -13.375 41.015625 -8.765625 
Q 45.40625 -4.15625 45.40625 5.171875 
L 45.40625 9.625 
Q 42.625 4.78125 38.28125 2.390625 
Q 33.9375 0 27.875 0 
Q 17.828125 0 11.671875 7.65625 
Q 5.515625 15.328125 5.515625 27.984375 
Q 5.515625 40.671875 11.671875 48.328125 
Q 17.828125 56 27.875 56 
Q 33.9375 56 38.28125 53.609375 
Q 42.625 51.21875 45.40625 46.390625 
L 45.40625 54.6875 
L 54.390625 54.6875 
z
" id="DejaVuSans-103"/>
      <path d="M 48.78125 52.59375 
L 48.78125 44.1875 
Q 44.96875 46.296875 41.140625 47.34375 
Q 37.3125 48.390625 33.40625 48.390625 
Q 24.65625 48.390625 19.8125 42.84375 
Q 14.984375 37.3125 14.984375 27.296875 
Q 14.984375 17.28125 19.8125 11.734375 
Q 24.65625 6.203125 33.40625 6.203125 
Q 37.3125 6.203125 41.140625 7.25 
Q 44.96875 8.296875 48.78125 10.40625 
L 48.78125 2.09375 
Q 45.015625 0.34375 40.984375 -0.53125 
Q 36.96875 -1.421875 32.421875 -1.421875 
Q 20.0625 -1.421875 12.78125 6.34375 
Q 5.515625 14.109375 5.515625 27.296875 
Q 5.515625 40.671875 12.859375 48.328125 
Q 20.21875 56 33.015625 56 
Q 37.15625 56 41.109375 55.140625 
Q 45.0625 54.296875 48.78125 52.59375 
z
" id="DejaVuSans-99"/>
      <path d="M 4.203125 54.6875 
L 13.1875 54.6875 
L 24.421875 12.015625 
L 35.59375 54.6875 
L 46.1875 54.6875 
L 57.421875 12.015625 
L 68.609375 54.6875 
L 77.59375 54.6875 
L 63.28125 0 
L 52.6875 0 
L 40.921875 44.828125 
L 29.109375 0 
L 18.5 0 
z
" id="DejaVuSans-119"/>
      <path d="M 54.890625 33.015625 
L 54.890625 0 
L 45.90625 0 
L 45.90625 32.71875 
Q 45.90625 40.484375 42.875 44.328125 
Q 39.84375 48.1875 33.796875 48.1875 
Q 26.515625 48.1875 22.3125 43.546875 
Q 18.109375 38.921875 18.109375 30.90625 
L 18.109375 0 
L 9.078125 0 
L 9.078125 75.984375 
L 18.109375 75.984375 
L 18.109375 46.1875 
Q 21.34375 51.125 25.703125 53.5625 
Q 30.078125 56 35.796875 56 
Q 45.21875 56 50.046875 50.171875 
Q 54.890625 44.34375 54.890625 33.015625 
z
" id="DejaVuSans-104"/>
      <path d="M 19.734375 29.5 
Q 14.453125 30.671875 12.15625 33.84375 
Q 10.453125 36.078125 10.453125 39.109375 
Q 10.453125 47.40625 18.359375 52.25 
Q 24.609375 56.0625 34.1875 56.0625 
Q 37.890625 56.0625 41.9375 55.46875 
Q 46 54.890625 50.53125 53.71875 
L 48.96875 45.5625 
Q 44.484375 46.96875 40.71875 47.609375 
Q 36.859375 48.25 33.40625 48.25 
Q 27.59375 48.25 23.78125 46 
Q 19.1875 43.3125 19.1875 39.40625 
Q 19.1875 36.8125 21.578125 35.015625 
Q 24.421875 32.859375 30.078125 32.859375 
L 37.640625 32.859375 
L 36.234375 25.4375 
L 29 25.4375 
Q 22.265625 25.4375 18.3125 22.953125 
Q 12.9375 19.578125 12.9375 14.3125 
Q 12.9375 10.984375 15.828125 8.796875 
Q 19.4375 6.0625 26.8125 6.0625 
Q 31.34375 6.0625 35.6875 6.9375 
Q 40.046875 7.859375 43.84375 9.671875 
L 42.1875 1.3125 
Q 37.546875 -0.046875 33.296875 -0.734375 
Q 29.046875 -1.421875 25.140625 -1.421875 
Q 13.53125 -1.421875 8.0625 3.03125 
Q 3.90625 6.453125 3.90625 12.203125 
Q 3.90625 19.96875 9.375 24.75 
Q 13.421875 28.328125 19.734375 29.5 
z
" id="DejaVuSans-Oblique-949"/>
     </defs>
     <g transform="translate(19.109375 272.383333)rotate(-90)scale(0.2 -0.2)">
      <use transform="translate(0 0.015625)" xlink:href="#DejaVuSans-77"/>
      <use transform="translate(86.279297 0.015625)" xlink:href="#DejaVuSans-97"/>
      <use transform="translate(147.558594 0.015625)" xlink:href="#DejaVuSans-120"/>
      <use transform="translate(206.738281 0.015625)" xlink:href="#DejaVuSans-32"/>
      <use transform="translate(238.525391 0.015625)" xlink:href="#DejaVuSans-74"/>
      <use transform="translate(268.017578 0.015625)" xlink:href="#DejaVuSans-83"/>
      <use transform="translate(331.494141 0.015625)" xlink:href="#DejaVuSans-32"/>
      <use transform="translate(363.28125 0.015625)" xlink:href="#DejaVuSans-68"/>
      <use transform="translate(440.283203 0.015625)" xlink:href="#DejaVuSans-105"/>
      <use transform="translate(468.066406 0.015625)" xlink:href="#DejaVuSans-118"/>
      <use transform="translate(527.246094 0.015625)" xlink:href="#DejaVuSans-101"/>
      <use transform="translate(588.769531 0.015625)" xlink:href="#DejaVuSans-114"/>
      <use transform="translate(629.882812 0.015625)" xlink:href="#DejaVuSans-103"/>
      <use transform="translate(693.359375 0.015625)" xlink:href="#DejaVuSans-101"/>
      <use transform="translate(754.882812 0.015625)" xlink:href="#DejaVuSans-110"/>
      <use transform="translate(818.261719 0.015625)" xlink:href="#DejaVuSans-99"/>
      <use transform="translate(873.242188 0.015625)" xlink:href="#DejaVuSans-101"/>
      <use transform="translate(934.765625 0.015625)" xlink:href="#DejaVuSans-32"/>
      <use transform="translate(966.552734 0.015625)" xlink:href="#DejaVuSans-119"/>
      <use transform="translate(1048.339844 0.015625)" xlink:href="#DejaVuSans-105"/>
      <use transform="translate(1076.123047 0.015625)" xlink:href="#DejaVuSans-116"/>
      <use transform="translate(1115.332031 0.015625)" xlink:href="#DejaVuSans-104"/>
      <use transform="translate(1178.710938 0.015625)" xlink:href="#DejaVuSans-105"/>
      <use transform="translate(1206.494141 0.015625)" xlink:href="#DejaVuSans-110"/>
      <use transform="translate(1269.873047 0.015625)" xlink:href="#DejaVuSans-32"/>
      <use transform="translate(1301.660156 0.015625)" xlink:href="#DejaVuSans-Oblique-949"/>
     </g>
    </g>
   </g>
   <g id="line2d_18">
    <path clip-path="url(#pb41f5434ae)" d="M 349.873399 24.132491 
L 349.873399 49.509176 
" style="fill:none;stroke:#575757;stroke-dasharray:1.5,1.5;stroke-dashoffset:0;"/>
   </g>
   <g id="line2d_19">
    <path clip-path="url(#pb41f5434ae)" d="M 355.336285 13.8094 
L 355.336285 59.832267 
" style="fill:none;stroke:#575757;stroke-dasharray:3,3;stroke-dashoffset:0;"/>
   </g>
   <g id="line2d_20">
    <path clip-path="url(#pb41f5434ae)" d="M 358.649336 10.507636 
L 358.649336 63.13403 
" style="fill:none;stroke:#575757;stroke-dasharray:1.5,1.5;stroke-dashoffset:0;"/>
   </g>
   <g id="line2d_21">
    <path clip-path="url(#pb41f5434ae)" d="M 345.155303 88.777314 
L 345.155303 118.147686 
" style="fill:none;stroke:#575757;stroke-dasharray:1.5,1.5;stroke-dashoffset:0;"/>
   </g>
   <g id="line2d_22">
    <path clip-path="url(#pb41f5434ae)" d="M 350.725675 78.087662 
L 350.725675 128.837338 
" style="fill:none;stroke:#575757;stroke-dasharray:3,3;stroke-dashoffset:0;"/>
   </g>
   <g id="line2d_23">
    <path clip-path="url(#pb41f5434ae)" d="M 353.788094 77.966057 
L 353.788094 128.958943 
" style="fill:none;stroke:#575757;stroke-dasharray:1.5,1.5;stroke-dashoffset:0;"/>
   </g>
   <g id="line2d_24">
    <path clip-path="url(#pb41f5434ae)" d="M 342.587094 143.984214 
L 342.587094 196.224119 
" style="fill:none;stroke:#575757;stroke-dasharray:1.5,1.5;stroke-dashoffset:0;"/>
   </g>
   <g id="line2d_25">
    <path clip-path="url(#pb41f5434ae)" d="M 344.543597 143.714067 
L 344.543597 196.494267 
" style="fill:none;stroke:#575757;stroke-dasharray:3,3;stroke-dashoffset:0;"/>
   </g>
   <g id="line2d_26">
    <path clip-path="url(#pb41f5434ae)" d="M 344.708923 143.757132 
L 344.708923 196.451201 
" style="fill:none;stroke:#575757;stroke-dasharray:1.5,1.5;stroke-dashoffset:0;"/>
   </g>
   <g id="line2d_27">
    <path clip-path="url(#pb41f5434ae)" d="M 303.300728 211.132317 
L 303.300728 262.35935 
" style="fill:none;stroke:#575757;stroke-dasharray:1.5,1.5;stroke-dashoffset:0;"/>
   </g>
   <g id="line2d_28">
    <path clip-path="url(#pb41f5434ae)" d="M 305.114937 210.355733 
L 305.114937 263.135933 
" style="fill:none;stroke:#575757;stroke-dasharray:3,3;stroke-dashoffset:0;"/>
   </g>
   <g id="line2d_29">
    <path clip-path="url(#pb41f5434ae)" d="M 306.929147 211.132317 
L 306.929147 262.35935 
" style="fill:none;stroke:#575757;stroke-dasharray:1.5,1.5;stroke-dashoffset:0;"/>
   </g>
   <g id="patch_47">
    <path d="M 100.7 270.066667 
L 100.7 3.5 
" style="fill:none;stroke:#000000;stroke-linecap:square;stroke-linejoin:miter;stroke-width:0.8;"/>
   </g>
   <g id="patch_48">
    <path d="M 100.7 270.066667 
L 367.266667 270.066667 
" style="fill:none;stroke:#000000;stroke-linecap:square;stroke-linejoin:miter;stroke-width:0.8;"/>
   </g>
  </g>
 </g>
 <defs>
  <clipPath id="pa27475a636">
   <rect height="266.566667" width="266.566667" x="-273.666667" y="3.5"/>
  </clipPath>
  <clipPath id="pb41f5434ae">
   <rect height="266.566667" width="266.566667" x="100.7" y="3.5"/>
  </clipPath>
 </defs>
</svg>
