<?xml version="1.0" encoding="utf-8" standalone="no"?>
<!DOCTYPE svg PUBLIC "-//W3C//DTD SVG 1.1//EN"
  "http://www.w3.org/Graphics/SVG/1.1/DTD/svg11.dtd">
<!-- Created with matplotlib (https://matplotlib.org/) -->
<svg height="316.87237pt" version="1.1" viewBox="0 0 352.103333 316.87237" width="352.103333pt" xmlns="http://www.w3.org/2000/svg" xmlns:xlink="http://www.w3.org/1999/xlink">
 <defs>
  <style type="text/css">
*{stroke-linecap:butt;stroke-linejoin:round;}
  </style>
 </defs>
 <g id="figure_1">
  <g id="patch_1">
   <path d="M -0 316.87237 
L 352.103333 316.87237 
L 352.103333 0 
L -0 0 
z
" style="fill:#ffffff;"/>
  </g>
  <g id="axes_1">
   <g id="patch_2">
    <path d="M -262.563333 260.17237 
L -14.66 260.17237 
L -14.66 12.269036 
L -262.563333 12.269036 
z
" style="fill:#ffffff;"/>
   </g>
   <g id="patch_3">
    <path clip-path="url(#p5d6355364c)" d="M -251.295 260.17237 
L -245.660833 260.17237 
L -245.660833 260.17237 
L -251.295 260.17237 
z
" style="fill:#7570b3;opacity:0.6;stroke:#000000;stroke-linejoin:miter;stroke-width:0.5;"/>
   </g>
   <g id="patch_4">
    <path clip-path="url(#p5d6355364c)" d="M -245.660833 260.17237 
L -240.026667 260.17237 
L -240.026667 260.17237 
L -245.660833 260.17237 
z
" style="fill:#7570b3;opacity:0.6;stroke:#000000;stroke-linejoin:miter;stroke-width:0.5;"/>
   </g>
   <g id="patch_5">
    <path clip-path="url(#p5d6355364c)" d="M -240.026667 260.17237 
L -234.3925 260.17237 
L -234.3925 260.17237 
L -240.026667 260.17237 
z
" style="fill:#7570b3;opacity:0.6;stroke:#000000;stroke-linejoin:miter;stroke-width:0.5;"/>
   </g>
   <g id="patch_6">
    <path clip-path="url(#p5d6355364c)" d="M -234.3925 260.17237 
L -228.758333 260.17237 
L -228.758333 258.204883 
L -234.3925 258.204883 
z
" style="fill:#7570b3;opacity:0.6;stroke:#000000;stroke-linejoin:miter;stroke-width:0.5;"/>
   </g>
   <g id="patch_7">
    <path clip-path="url(#p5d6355364c)" d="M -228.758333 260.17237 
L -223.124167 260.17237 
L -223.124167 260.17237 
L -228.758333 260.17237 
z
" style="fill:#7570b3;opacity:0.6;stroke:#000000;stroke-linejoin:miter;stroke-width:0.5;"/>
   </g>
   <g id="patch_8">
    <path clip-path="url(#p5d6355364c)" d="M -223.124167 260.17237 
L -217.49 260.17237 
L -217.49 260.17237 
L -223.124167 260.17237 
z
" style="fill:#7570b3;opacity:0.6;stroke:#000000;stroke-linejoin:miter;stroke-width:0.5;"/>
   </g>
   <g id="patch_9">
    <path clip-path="url(#p5d6355364c)" d="M -217.49 260.17237 
L -211.855833 260.17237 
L -211.855833 258.204883 
L -217.49 258.204883 
z
" style="fill:#7570b3;opacity:0.6;stroke:#000000;stroke-linejoin:miter;stroke-width:0.5;"/>
   </g>
   <g id="patch_10">
    <path clip-path="url(#p5d6355364c)" d="M -211.855833 260.17237 
L -206.221667 260.17237 
L -206.221667 260.17237 
L -211.855833 260.17237 
z
" style="fill:#7570b3;opacity:0.6;stroke:#000000;stroke-linejoin:miter;stroke-width:0.5;"/>
   </g>
   <g id="patch_11">
    <path clip-path="url(#p5d6355364c)" d="M -206.221667 260.17237 
L -200.5875 260.17237 
L -200.5875 258.204883 
L -206.221667 258.204883 
z
" style="fill:#7570b3;opacity:0.6;stroke:#000000;stroke-linejoin:miter;stroke-width:0.5;"/>
   </g>
   <g id="patch_12">
    <path clip-path="url(#p5d6355364c)" d="M -200.5875 260.17237 
L -194.953333 260.17237 
L -194.953333 250.334936 
L -200.5875 250.334936 
z
" style="fill:#7570b3;opacity:0.6;stroke:#000000;stroke-linejoin:miter;stroke-width:0.5;"/>
   </g>
   <g id="patch_13">
    <path clip-path="url(#p5d6355364c)" d="M -194.953333 260.17237 
L -189.319167 260.17237 
L -189.319167 260.17237 
L -194.953333 260.17237 
z
" style="fill:#7570b3;opacity:0.6;stroke:#000000;stroke-linejoin:miter;stroke-width:0.5;"/>
   </g>
   <g id="patch_14">
    <path clip-path="url(#p5d6355364c)" d="M -189.319167 260.17237 
L -183.685 260.17237 
L -183.685 254.269909 
L -189.319167 254.269909 
z
" style="fill:#7570b3;opacity:0.6;stroke:#000000;stroke-linejoin:miter;stroke-width:0.5;"/>
   </g>
   <g id="patch_15">
    <path clip-path="url(#p5d6355364c)" d="M -183.685 260.17237 
L -178.050833 260.17237 
L -178.050833 246.399962 
L -183.685 246.399962 
z
" style="fill:#7570b3;opacity:0.6;stroke:#000000;stroke-linejoin:miter;stroke-width:0.5;"/>
   </g>
   <g id="patch_16">
    <path clip-path="url(#p5d6355364c)" d="M -178.050833 260.17237 
L -172.416667 260.17237 
L -172.416667 254.269909 
L -178.050833 254.269909 
z
" style="fill:#7570b3;opacity:0.6;stroke:#000000;stroke-linejoin:miter;stroke-width:0.5;"/>
   </g>
   <g id="patch_17">
    <path clip-path="url(#p5d6355364c)" d="M -172.416667 260.17237 
L -166.7825 260.17237 
L -166.7825 252.302423 
L -172.416667 252.302423 
z
" style="fill:#7570b3;opacity:0.6;stroke:#000000;stroke-linejoin:miter;stroke-width:0.5;"/>
   </g>
   <g id="patch_18">
    <path clip-path="url(#p5d6355364c)" d="M -166.7825 260.17237 
L -161.148333 260.17237 
L -161.148333 252.302423 
L -166.7825 252.302423 
z
" style="fill:#7570b3;opacity:0.6;stroke:#000000;stroke-linejoin:miter;stroke-width:0.5;"/>
   </g>
   <g id="patch_19">
    <path clip-path="url(#p5d6355364c)" d="M -161.148333 260.17237 
L -155.514167 260.17237 
L -155.514167 250.334936 
L -161.148333 250.334936 
z
" style="fill:#7570b3;opacity:0.6;stroke:#000000;stroke-linejoin:miter;stroke-width:0.5;"/>
   </g>
   <g id="patch_20">
    <path clip-path="url(#p5d6355364c)" d="M -155.514167 260.17237 
L -149.88 260.17237 
L -149.88 240.497502 
L -155.514167 240.497502 
z
" style="fill:#7570b3;opacity:0.6;stroke:#000000;stroke-linejoin:miter;stroke-width:0.5;"/>
   </g>
   <g id="patch_21">
    <path clip-path="url(#p5d6355364c)" d="M -149.88 260.17237 
L -144.245833 260.17237 
L -144.245833 238.530015 
L -149.88 238.530015 
z
" style="fill:#7570b3;opacity:0.6;stroke:#000000;stroke-linejoin:miter;stroke-width:0.5;"/>
   </g>
   <g id="patch_22">
    <path clip-path="url(#p5d6355364c)" d="M -144.245833 260.17237 
L -138.611667 260.17237 
L -138.611667 224.757608 
L -144.245833 224.757608 
z
" style="fill:#7570b3;opacity:0.6;stroke:#000000;stroke-linejoin:miter;stroke-width:0.5;"/>
   </g>
   <g id="patch_23">
    <path clip-path="url(#p5d6355364c)" d="M -138.611667 260.17237 
L -132.9775 260.17237 
L -132.9775 214.920174 
L -138.611667 214.920174 
z
" style="fill:#7570b3;opacity:0.6;stroke:#000000;stroke-linejoin:miter;stroke-width:0.5;"/>
   </g>
   <g id="patch_24">
    <path clip-path="url(#p5d6355364c)" d="M -132.9775 260.17237 
L -127.343333 260.17237 
L -127.343333 214.920174 
L -132.9775 214.920174 
z
" style="fill:#7570b3;opacity:0.6;stroke:#000000;stroke-linejoin:miter;stroke-width:0.5;"/>
   </g>
   <g id="patch_25">
    <path clip-path="url(#p5d6355364c)" d="M -127.343333 260.17237 
L -121.709167 260.17237 
L -121.709167 203.115253 
L -127.343333 203.115253 
z
" style="fill:#7570b3;opacity:0.6;stroke:#000000;stroke-linejoin:miter;stroke-width:0.5;"/>
   </g>
   <g id="patch_26">
    <path clip-path="url(#p5d6355364c)" d="M -121.709167 260.17237 
L -116.075 260.17237 
L -116.075 155.895571 
L -121.709167 155.895571 
z
" style="fill:#7570b3;opacity:0.6;stroke:#000000;stroke-linejoin:miter;stroke-width:0.5;"/>
   </g>
   <g id="patch_27">
    <path clip-path="url(#p5d6355364c)" d="M -116.075 260.17237 
L -110.440833 260.17237 
L -110.440833 96.870968 
L -116.075 96.870968 
z
" style="fill:#7570b3;opacity:0.6;stroke:#000000;stroke-linejoin:miter;stroke-width:0.5;"/>
   </g>
   <g id="patch_28">
    <path clip-path="url(#p5d6355364c)" d="M -110.440833 260.17237 
L -104.806667 260.17237 
L -104.806667 85.066047 
L -110.440833 85.066047 
z
" style="fill:#7570b3;opacity:0.6;stroke:#000000;stroke-linejoin:miter;stroke-width:0.5;"/>
   </g>
   <g id="patch_29">
    <path clip-path="url(#p5d6355364c)" d="M -104.806667 260.17237 
L -99.1725 260.17237 
L -99.1725 49.651285 
L -104.806667 49.651285 
z
" style="fill:#7570b3;opacity:0.6;stroke:#000000;stroke-linejoin:miter;stroke-width:0.5;"/>
   </g>
   <g id="patch_30">
    <path clip-path="url(#p5d6355364c)" d="M -99.1725 260.17237 
L -93.538333 260.17237 
L -93.538333 49.651285 
L -99.1725 49.651285 
z
" style="fill:#7570b3;opacity:0.6;stroke:#000000;stroke-linejoin:miter;stroke-width:0.5;"/>
   </g>
   <g id="patch_31">
    <path clip-path="url(#p5d6355364c)" d="M -93.538333 260.17237 
L -87.904167 260.17237 
L -87.904167 24.073957 
L -93.538333 24.073957 
z
" style="fill:#7570b3;opacity:0.6;stroke:#000000;stroke-linejoin:miter;stroke-width:0.5;"/>
   </g>
   <g id="patch_32">
    <path clip-path="url(#p5d6355364c)" d="M -87.904167 260.17237 
L -82.27 260.17237 
L -82.27 28.008931 
L -87.904167 28.008931 
z
" style="fill:#7570b3;opacity:0.6;stroke:#000000;stroke-linejoin:miter;stroke-width:0.5;"/>
   </g>
   <g id="patch_33">
    <path clip-path="url(#p5d6355364c)" d="M -82.27 260.17237 
L -76.635833 260.17237 
L -76.635833 100.805941 
L -82.27 100.805941 
z
" style="fill:#7570b3;opacity:0.6;stroke:#000000;stroke-linejoin:miter;stroke-width:0.5;"/>
   </g>
   <g id="patch_34">
    <path clip-path="url(#p5d6355364c)" d="M -76.635833 260.17237 
L -71.001667 260.17237 
L -71.001667 167.700491 
L -76.635833 167.700491 
z
" style="fill:#7570b3;opacity:0.6;stroke:#000000;stroke-linejoin:miter;stroke-width:0.5;"/>
   </g>
   <g id="patch_35">
    <path clip-path="url(#p5d6355364c)" d="M -71.001667 260.17237 
L -65.3675 260.17237 
L -65.3675 220.822634 
L -71.001667 220.822634 
z
" style="fill:#7570b3;opacity:0.6;stroke:#000000;stroke-linejoin:miter;stroke-width:0.5;"/>
   </g>
   <g id="patch_36">
    <path clip-path="url(#p5d6355364c)" d="M -65.3675 260.17237 
L -59.733333 260.17237 
L -59.733333 222.790121 
L -65.3675 222.790121 
z
" style="fill:#7570b3;opacity:0.6;stroke:#000000;stroke-linejoin:miter;stroke-width:0.5;"/>
   </g>
   <g id="patch_37">
    <path clip-path="url(#p5d6355364c)" d="M -59.733333 260.17237 
L -54.099167 260.17237 
L -54.099167 248.367449 
L -59.733333 248.367449 
z
" style="fill:#7570b3;opacity:0.6;stroke:#000000;stroke-linejoin:miter;stroke-width:0.5;"/>
   </g>
   <g id="patch_38">
    <path clip-path="url(#p5d6355364c)" d="M -54.099167 260.17237 
L -48.465 260.17237 
L -48.465 256.237396 
L -54.099167 256.237396 
z
" style="fill:#7570b3;opacity:0.6;stroke:#000000;stroke-linejoin:miter;stroke-width:0.5;"/>
   </g>
   <g id="patch_39">
    <path clip-path="url(#p5d6355364c)" d="M -48.465 260.17237 
L -42.830833 260.17237 
L -42.830833 260.17237 
L -48.465 260.17237 
z
" style="fill:#7570b3;opacity:0.6;stroke:#000000;stroke-linejoin:miter;stroke-width:0.5;"/>
   </g>
   <g id="patch_40">
    <path clip-path="url(#p5d6355364c)" d="M -42.830833 260.17237 
L -37.196667 260.17237 
L -37.196667 260.17237 
L -42.830833 260.17237 
z
" style="fill:#7570b3;opacity:0.6;stroke:#000000;stroke-linejoin:miter;stroke-width:0.5;"/>
   </g>
   <g id="patch_41">
    <path clip-path="url(#p5d6355364c)" d="M -37.196667 260.17237 
L -31.5625 260.17237 
L -31.5625 260.17237 
L -37.196667 260.17237 
z
" style="fill:#7570b3;opacity:0.6;stroke:#000000;stroke-linejoin:miter;stroke-width:0.5;"/>
   </g>
   <g id="patch_42">
    <path clip-path="url(#p5d6355364c)" d="M -31.5625 260.17237 
L -25.928333 260.17237 
L -25.928333 260.17237 
L -31.5625 260.17237 
z
" style="fill:#7570b3;opacity:0.6;stroke:#000000;stroke-linejoin:miter;stroke-width:0.5;"/>
   </g>
   <g id="matplotlib.axis_1">
    <g id="xtick_1">
     <g id="line2d_1">
      <defs>
       <path d="M 0 0 
L 0 3.5 
" id="md70c8ddd21" style="stroke:#000000;stroke-width:1.6;"/>
      </defs>
      <g/>
     </g>
     <g id="text_1">
      <!-- 0.0 -->
      <defs>
       <path d="M 31.78125 66.40625 
Q 24.171875 66.40625 20.328125 58.90625 
Q 16.5 51.421875 16.5 36.375 
Q 16.5 21.390625 20.328125 13.890625 
Q 24.171875 6.390625 31.78125 6.390625 
Q 39.453125 6.390625 43.28125 13.890625 
Q 47.125 21.390625 47.125 36.375 
Q 47.125 51.421875 43.28125 58.90625 
Q 39.453125 66.40625 31.78125 66.40625 
z
M 31.78125 74.21875 
Q 44.046875 74.21875 50.515625 64.515625 
Q 56.984375 54.828125 56.984375 36.375 
Q 56.984375 17.96875 50.515625 8.265625 
Q 44.046875 -1.421875 31.78125 -1.421875 
Q 19.53125 -1.421875 13.0625 8.265625 
Q 6.59375 17.96875 6.59375 36.375 
Q 6.59375 54.828125 13.0625 64.515625 
Q 19.53125 74.21875 31.78125 74.21875 
z
" id="DejaVuSans-48"/>
       <path d="M 10.6875 12.40625 
L 21 12.40625 
L 21 0 
L 10.6875 0 
z
" id="DejaVuSans-46"/>
      </defs>
      <g transform="translate(-267.198125 290.069245)scale(0.2 -0.2)">
       <use xlink:href="#DejaVuSans-48"/>
       <use x="63.623047" xlink:href="#DejaVuSans-46"/>
       <use x="95.410156" xlink:href="#DejaVuSans-48"/>
      </g>
     </g>
    </g>
    <g id="xtick_2">
     <g id="line2d_2">
      <g/>
     </g>
     <g id="text_2">
      <!-- 0.2 -->
      <defs>
       <path d="M 19.1875 8.296875 
L 53.609375 8.296875 
L 53.609375 0 
L 7.328125 0 
L 7.328125 8.296875 
Q 12.9375 14.109375 22.625 23.890625 
Q 32.328125 33.6875 34.8125 36.53125 
Q 39.546875 41.84375 41.421875 45.53125 
Q 43.3125 49.21875 43.3125 52.78125 
Q 43.3125 58.59375 39.234375 62.25 
Q 35.15625 65.921875 28.609375 65.921875 
Q 23.96875 65.921875 18.8125 64.3125 
Q 13.671875 62.703125 7.8125 59.421875 
L 7.8125 69.390625 
Q 13.765625 71.78125 18.9375 73 
Q 24.125 74.21875 28.421875 74.21875 
Q 39.75 74.21875 46.484375 68.546875 
Q 53.21875 62.890625 53.21875 53.421875 
Q 53.21875 48.921875 51.53125 44.890625 
Q 49.859375 40.875 45.40625 35.40625 
Q 44.1875 33.984375 37.640625 27.21875 
Q 31.109375 20.453125 19.1875 8.296875 
z
" id="DejaVuSans-50"/>
      </defs>
      <g transform="translate(-202.807649 290.069245)scale(0.2 -0.2)">
       <use xlink:href="#DejaVuSans-48"/>
       <use x="63.623047" xlink:href="#DejaVuSans-46"/>
       <use x="95.410156" xlink:href="#DejaVuSans-50"/>
      </g>
     </g>
    </g>
    <g id="xtick_3">
     <g id="line2d_3">
      <g/>
     </g>
     <g id="text_3">
      <!-- 0.4 -->
      <defs>
       <path d="M 37.796875 64.3125 
L 12.890625 25.390625 
L 37.796875 25.390625 
z
M 35.203125 72.90625 
L 47.609375 72.90625 
L 47.609375 25.390625 
L 58.015625 25.390625 
L 58.015625 17.1875 
L 47.609375 17.1875 
L 47.609375 0 
L 37.796875 0 
L 37.796875 17.1875 
L 4.890625 17.1875 
L 4.890625 26.703125 
z
" id="DejaVuSans-52"/>
      </defs>
      <g transform="translate(-138.417173 290.069245)scale(0.2 -0.2)">
       <use xlink:href="#DejaVuSans-48"/>
       <use x="63.623047" xlink:href="#DejaVuSans-46"/>
       <use x="95.410156" xlink:href="#DejaVuSans-52"/>
      </g>
     </g>
    </g>
    <g id="xtick_4">
     <g id="line2d_4">
      <g/>
     </g>
     <g id="text_4">
      <!-- 0.6 -->
      <defs>
       <path d="M 33.015625 40.375 
Q 26.375 40.375 22.484375 35.828125 
Q 18.609375 31.296875 18.609375 23.390625 
Q 18.609375 15.53125 22.484375 10.953125 
Q 26.375 6.390625 33.015625 6.390625 
Q 39.65625 6.390625 43.53125 10.953125 
Q 47.40625 15.53125 47.40625 23.390625 
Q 47.40625 31.296875 43.53125 35.828125 
Q 39.65625 40.375 33.015625 40.375 
z
M 52.59375 71.296875 
L 52.59375 62.3125 
Q 48.875 64.0625 45.09375 64.984375 
Q 41.3125 65.921875 37.59375 65.921875 
Q 27.828125 65.921875 22.671875 59.328125 
Q 17.53125 52.734375 16.796875 39.40625 
Q 19.671875 43.65625 24.015625 45.921875 
Q 28.375 48.1875 33.59375 48.1875 
Q 44.578125 48.1875 50.953125 41.515625 
Q 57.328125 34.859375 57.328125 23.390625 
Q 57.328125 12.15625 50.6875 5.359375 
Q 44.046875 -1.421875 33.015625 -1.421875 
Q 20.359375 -1.421875 13.671875 8.265625 
Q 6.984375 17.96875 6.984375 36.375 
Q 6.984375 53.65625 15.1875 63.9375 
Q 23.390625 74.21875 37.203125 74.21875 
Q 40.921875 74.21875 44.703125 73.484375 
Q 48.484375 72.75 52.59375 71.296875 
z
" id="DejaVuSans-54"/>
      </defs>
      <g transform="translate(-74.026696 290.069245)scale(0.2 -0.2)">
       <use xlink:href="#DejaVuSans-48"/>
       <use x="63.623047" xlink:href="#DejaVuSans-46"/>
       <use x="95.410156" xlink:href="#DejaVuSans-54"/>
      </g>
     </g>
    </g>
    <g id="text_5">
     <!--   -->
     <defs>
      <path id="DejaVuSans-32"/>
     </defs>
     <g transform="translate(-141.789792 313.425495)scale(0.2 -0.2)">
      <use xlink:href="#DejaVuSans-32"/>
     </g>
    </g>
   </g>
   <g id="matplotlib.axis_2">
    <g id="ytick_1">
     <g id="line2d_5">
      <defs>
       <path d="M 0 0 
L -3.5 0 
" id="me0ea702b41" style="stroke:#000000;stroke-width:1.6;"/>
      </defs>
      <g/>
     </g>
     <g id="text_6">
      <!-- 0.000 -->
      <g transform="translate(-334.519583 267.770807)scale(0.2 -0.2)">
       <use xlink:href="#DejaVuSans-48"/>
       <use x="63.623047" xlink:href="#DejaVuSans-46"/>
       <use x="95.410156" xlink:href="#DejaVuSans-48"/>
       <use x="159.033203" xlink:href="#DejaVuSans-48"/>
       <use x="222.65625" xlink:href="#DejaVuSans-48"/>
      </g>
     </g>
    </g>
    <g id="ytick_2">
     <g id="line2d_6">
      <g/>
     </g>
     <g id="text_7">
      <!-- 0.025 -->
      <defs>
       <path d="M 10.796875 72.90625 
L 49.515625 72.90625 
L 49.515625 64.59375 
L 19.828125 64.59375 
L 19.828125 46.734375 
Q 21.96875 47.46875 24.109375 47.828125 
Q 26.265625 48.1875 28.421875 48.1875 
Q 40.625 48.1875 47.75 41.5 
Q 54.890625 34.8125 54.890625 23.390625 
Q 54.890625 11.625 47.5625 5.09375 
Q 40.234375 -1.421875 26.90625 -1.421875 
Q 22.3125 -1.421875 17.546875 -0.640625 
Q 12.796875 0.140625 7.71875 1.703125 
L 7.71875 11.625 
Q 12.109375 9.234375 16.796875 8.0625 
Q 21.484375 6.890625 26.703125 6.890625 
Q 35.15625 6.890625 40.078125 11.328125 
Q 45.015625 15.765625 45.015625 23.390625 
Q 45.015625 31 40.078125 35.4375 
Q 35.15625 39.890625 26.703125 39.890625 
Q 22.75 39.890625 18.8125 39.015625 
Q 14.890625 38.140625 10.796875 36.28125 
z
" id="DejaVuSans-53"/>
      </defs>
      <g transform="translate(-334.519583 218.583638)scale(0.2 -0.2)">
       <use xlink:href="#DejaVuSans-48"/>
       <use x="63.623047" xlink:href="#DejaVuSans-46"/>
       <use x="95.410156" xlink:href="#DejaVuSans-48"/>
       <use x="159.033203" xlink:href="#DejaVuSans-50"/>
       <use x="222.65625" xlink:href="#DejaVuSans-53"/>
      </g>
     </g>
    </g>
    <g id="ytick_3">
     <g id="line2d_7">
      <g/>
     </g>
     <g id="text_8">
      <!-- 0.050 -->
      <g transform="translate(-334.519583 169.396469)scale(0.2 -0.2)">
       <use xlink:href="#DejaVuSans-48"/>
       <use x="63.623047" xlink:href="#DejaVuSans-46"/>
       <use x="95.410156" xlink:href="#DejaVuSans-48"/>
       <use x="159.033203" xlink:href="#DejaVuSans-53"/>
       <use x="222.65625" xlink:href="#DejaVuSans-48"/>
      </g>
     </g>
    </g>
    <g id="ytick_4">
     <g id="line2d_8">
      <g/>
     </g>
     <g id="text_9">
      <!-- 0.075 -->
      <defs>
       <path d="M 8.203125 72.90625 
L 55.078125 72.90625 
L 55.078125 68.703125 
L 28.609375 0 
L 18.3125 0 
L 43.21875 64.59375 
L 8.203125 64.59375 
z
" id="DejaVuSans-55"/>
      </defs>
      <g transform="translate(-334.519583 120.209299)scale(0.2 -0.2)">
       <use xlink:href="#DejaVuSans-48"/>
       <use x="63.623047" xlink:href="#DejaVuSans-46"/>
       <use x="95.410156" xlink:href="#DejaVuSans-48"/>
       <use x="159.033203" xlink:href="#DejaVuSans-55"/>
       <use x="222.65625" xlink:href="#DejaVuSans-53"/>
      </g>
     </g>
    </g>
    <g id="ytick_5">
     <g id="line2d_9">
      <g/>
     </g>
     <g id="text_10">
      <!-- 0.100 -->
      <defs>
       <path d="M 12.40625 8.296875 
L 28.515625 8.296875 
L 28.515625 63.921875 
L 10.984375 60.40625 
L 10.984375 69.390625 
L 28.421875 72.90625 
L 38.28125 72.90625 
L 38.28125 8.296875 
L 54.390625 8.296875 
L 54.390625 0 
L 12.40625 0 
z
" id="DejaVuSans-49"/>
      </defs>
      <g transform="translate(-334.519583 71.02213)scale(0.2 -0.2)">
       <use xlink:href="#DejaVuSans-48"/>
       <use x="63.623047" xlink:href="#DejaVuSans-46"/>
       <use x="95.410156" xlink:href="#DejaVuSans-49"/>
       <use x="159.033203" xlink:href="#DejaVuSans-48"/>
       <use x="222.65625" xlink:href="#DejaVuSans-48"/>
      </g>
     </g>
    </g>
    <g id="ytick_6">
     <g id="line2d_10">
      <g/>
     </g>
     <g id="text_11">
      <!-- 0.125 -->
      <g transform="translate(-334.519583 21.834961)scale(0.2 -0.2)">
       <use xlink:href="#DejaVuSans-48"/>
       <use x="63.623047" xlink:href="#DejaVuSans-46"/>
       <use x="95.410156" xlink:href="#DejaVuSans-49"/>
       <use x="159.033203" xlink:href="#DejaVuSans-50"/>
       <use x="222.65625" xlink:href="#DejaVuSans-53"/>
      </g>
     </g>
    </g>
    <g id="text_12">
     <!--   -->
     <g transform="translate(-342.179833 139.017453)rotate(-90)scale(0.176 -0.176)">
      <use xlink:href="#DejaVuSans-32"/>
     </g>
    </g>
   </g>
   <g id="patch_43">
    <path style="fill:none;stroke:#000000;stroke-linecap:square;stroke-linejoin:miter;stroke-width:0.8;"/>
   </g>
   <g id="patch_44">
    <path style="fill:none;stroke:#000000;stroke-linecap:square;stroke-linejoin:miter;stroke-width:0.8;"/>
   </g>
  </g>
  <g id="axes_2">
   <g id="patch_45">
    <path d="M 100.7 260.17237 
L 348.603333 260.17237 
L 348.603333 12.269036 
L 100.7 12.269036 
z
" style="fill:#ffffff;"/>
   </g>
   <g id="PolyCollection_1">
    <defs>
     <path d="M 166.5096 -273.459933 
L 166.5096 -273.7709 
L 168.080905 -273.783606 
L 169.652209 -273.785618 
L 171.223514 -273.77685 
L 172.794818 -273.75952 
L 174.366123 -273.737791 
L 175.937427 -273.716973 
L 177.508732 -273.702529 
L 179.080036 -273.699098 
L 180.651341 -273.709717 
L 182.222645 -273.735266 
L 183.79395 -273.774204 
L 185.365254 -273.822656 
L 186.936559 -273.874994 
L 188.507863 -273.925 
L 190.079168 -273.967439 
L 191.650472 -273.999609 
L 193.221777 -274.022247 
L 194.793081 -274.039265 
L 196.364386 -274.05624 
L 197.93569 -274.078137 
L 199.506995 -274.107224 
L 201.078299 -274.14214 
L 202.649604 -274.178659 
L 204.220908 -274.211929 
L 205.792213 -274.239255 
L 207.363517 -274.262232 
L 208.934822 -274.287338 
L 210.506126 -274.324751 
L 212.077431 -274.38585 
L 213.648735 -274.480265 
L 215.22004 -274.613405 
L 216.791344 -274.78519 
L 218.362649 -274.990385 
L 219.933953 -275.220442 
L 221.505257 -275.466273 
L 223.076562 -275.720981 
L 224.647866 -275.981497 
L 226.219171 -276.248439 
L 227.790475 -276.524133 
L 229.36178 -276.809518 
L 230.933084 -277.101318 
L 232.504389 -277.391191 
L 234.075693 -277.66816 
L 235.646998 -277.924163 
L 237.218302 -278.160583 
L 238.789607 -278.39244 
L 240.360911 -278.64783 
L 241.932216 -278.963036 
L 243.50352 -279.376183 
L 245.074825 -279.922191 
L 246.646129 -280.628953 
L 248.217434 -281.512271 
L 249.788738 -282.56807 
L 251.360043 -283.764899 
L 252.931347 -285.04364 
L 254.502652 -286.3301 
L 256.073956 -287.558719 
L 257.645261 -288.696748 
L 259.216565 -289.754784 
L 260.78787 -290.775535 
L 262.359174 -291.805239 
L 263.930479 -292.86292 
L 265.501783 -293.92433 
L 267.073088 -294.928778 
L 268.644392 -295.804328 
L 270.215697 -296.498037 
L 271.787001 -296.997252 
L 273.358306 -297.333657 
L 274.92961 -297.569484 
L 276.500915 -297.771541 
L 278.072219 -297.982492 
L 279.643524 -298.199845 
L 281.214828 -298.370838 
L 282.786133 -298.40575 
L 284.357437 -298.204853 
L 285.928742 -297.688645 
L 287.500046 -296.820031 
L 289.071351 -295.611384 
L 290.642655 -294.116443 
L 292.21396 -292.413149 
L 293.785264 -290.585857 
L 295.356569 -288.713382 
L 296.927873 -286.864666 
L 298.499178 -285.099366 
L 300.070482 -283.468664 
L 301.641787 -282.012859 
L 303.213091 -280.755829 
L 304.784395 -279.69982 
L 306.3557 -278.82499 
L 307.927004 -278.095799 
L 309.498309 -277.472205 
L 311.069613 -276.920659 
L 312.640918 -276.420224 
L 314.212222 -275.96233 
L 315.783527 -275.546295 
L 317.354831 -275.174158 
L 318.926136 -274.847387 
L 320.49744 -274.565888 
L 322.068745 -274.328345 
L 322.068745 -272.902488 
L 322.068745 -272.902488 
L 320.49744 -272.664945 
L 318.926136 -272.383446 
L 317.354831 -272.056675 
L 315.783527 -271.684539 
L 314.212222 -271.268503 
L 312.640918 -270.81061 
L 311.069613 -270.310174 
L 309.498309 -269.758628 
L 307.927004 -269.135034 
L 306.3557 -268.405843 
L 304.784395 -267.531014 
L 303.213091 -266.475004 
L 301.641787 -265.217974 
L 300.070482 -263.762169 
L 298.499178 -262.131467 
L 296.927873 -260.366167 
L 295.356569 -258.517451 
L 293.785264 -256.644976 
L 292.21396 -254.817684 
L 290.642655 -253.11439 
L 289.071351 -251.61945 
L 287.500046 -250.410802 
L 285.928742 -249.542188 
L 284.357437 -249.02598 
L 282.786133 -248.825083 
L 281.214828 -248.859995 
L 279.643524 -249.030989 
L 278.072219 -249.248341 
L 276.500915 -249.459292 
L 274.92961 -249.661349 
L 273.358306 -249.897176 
L 271.787001 -250.233581 
L 270.215697 -250.732796 
L 268.644392 -251.426506 
L 267.073088 -252.302055 
L 265.501783 -253.306503 
L 263.930479 -254.367913 
L 262.359174 -255.425594 
L 260.78787 -256.455298 
L 259.216565 -257.47605 
L 257.645261 -258.534085 
L 256.073956 -259.672115 
L 254.502652 -260.900733 
L 252.931347 -262.187193 
L 251.360043 -263.465935 
L 249.788738 -264.662763 
L 248.217434 -265.718563 
L 246.646129 -266.60188 
L 245.074825 -267.308642 
L 243.50352 -267.85465 
L 241.932216 -268.267798 
L 240.360911 -268.583003 
L 238.789607 -268.838393 
L 237.218302 -269.07025 
L 235.646998 -269.306671 
L 234.075693 -269.562673 
L 232.504389 -269.839642 
L 230.933084 -270.129516 
L 229.36178 -270.421315 
L 227.790475 -270.7067 
L 226.219171 -270.982395 
L 224.647866 -271.249337 
L 223.076562 -271.509853 
L 221.505257 -271.76456 
L 219.933953 -272.010392 
L 218.362649 -272.240448 
L 216.791344 -272.445643 
L 215.22004 -272.617428 
L 213.648735 -272.750568 
L 212.077431 -272.844984 
L 210.506126 -272.906082 
L 208.934822 -272.943495 
L 207.363517 -272.968601 
L 205.792213 -272.991578 
L 204.220908 -273.018904 
L 202.649604 -273.052175 
L 201.078299 -273.088694 
L 199.506995 -273.123609 
L 197.93569 -273.152697 
L 196.364386 -273.174594 
L 194.793081 -273.191568 
L 193.221777 -273.208586 
L 191.650472 -273.231225 
L 190.079168 -273.263395 
L 188.507863 -273.305833 
L 186.936559 -273.355839 
L 185.365254 -273.408177 
L 183.79395 -273.456629 
L 182.222645 -273.495568 
L 180.651341 -273.521117 
L 179.080036 -273.531735 
L 177.508732 -273.528305 
L 175.937427 -273.51386 
L 174.366123 -273.493042 
L 172.794818 -273.471313 
L 171.223514 -273.453984 
L 169.652209 -273.445216 
L 168.080905 -273.447227 
L 166.5096 -273.459933 
z
" id="m234825df1b" style="stroke:#575757;"/>
    </defs>
    <g clip-path="url(#pcf40c809b6)">
     <use style="fill:#7c78ab;stroke:#575757;" x="0" xlink:href="#m234825df1b" y="316.87237"/>
    </g>
   </g>
   <g id="PolyCollection_2">
    <defs>
     <path d="M 171.716177 -203.624922 
L 171.716177 -219.654245 
L 173.149745 -220.254802 
L 174.583313 -220.873887 
L 176.016881 -221.509534 
L 177.450448 -222.159584 
L 178.884016 -222.821706 
L 180.317584 -223.493419 
L 181.751152 -224.172123 
L 183.18472 -224.855126 
L 184.618288 -225.539674 
L 186.051856 -226.222987 
L 187.485424 -226.902283 
L 188.918991 -227.574813 
L 190.352559 -228.237887 
L 191.786127 -228.888895 
L 193.219695 -229.525334 
L 194.653263 -230.14482 
L 196.086831 -230.745101 
L 197.520399 -231.324065 
L 198.953967 -231.879743 
L 200.387535 -232.410304 
L 201.821102 -232.914056 
L 203.25467 -233.389429 
L 204.688238 -233.834967 
L 206.121806 -234.249318 
L 207.555374 -234.631213 
L 208.988942 -234.979458 
L 210.42251 -235.292922 
L 211.856078 -235.570525 
L 213.289646 -235.811237 
L 214.723213 -236.014072 
L 216.156781 -236.178097 
L 217.590349 -236.302439 
L 219.023917 -236.386303 
L 220.457485 -236.428987 
L 221.891053 -236.429917 
L 223.324621 -236.388668 
L 224.758189 -236.305006 
L 226.191757 -236.178923 
L 227.625324 -236.010672 
L 229.058892 -235.800813 
L 230.49246 -235.550241 
L 231.926028 -235.26023 
L 233.359596 -234.932457 
L 234.793164 -234.569029 
L 236.226732 -234.172498 
L 237.6603 -233.745872 
L 239.093867 -233.292615 
L 240.527435 -232.816633 
L 241.961003 -232.322257 
L 243.394571 -231.814208 
L 244.828139 -231.297552 
L 246.261707 -230.777649 
L 247.695275 -230.26009 
L 249.128843 -229.750617 
L 250.562411 -229.255047 
L 251.995978 -228.779178 
L 253.429546 -228.328696 
L 254.863114 -227.90908 
L 256.296682 -227.525493 
L 257.73025 -227.182691 
L 259.163818 -226.884915 
L 260.597386 -226.635807 
L 262.030954 -226.438315 
L 263.464522 -226.294621 
L 264.898089 -226.206066 
L 266.331657 -226.173107 
L 267.765225 -226.195265 
L 269.198793 -226.271114 
L 270.632361 -226.398266 
L 272.065929 -226.573392 
L 273.499497 -226.79225 
L 274.933065 -227.049739 
L 276.366633 -227.339969 
L 277.8002 -227.65635 
L 279.233768 -227.991702 
L 280.667336 -228.338368 
L 282.100904 -228.688354 
L 283.534472 -229.033469 
L 284.96804 -229.365477 
L 286.401608 -229.67625 
L 287.835176 -229.95792 
L 289.268744 -230.203031 
L 290.702311 -230.404682 
L 292.135879 -230.556654 
L 293.569447 -230.653532 
L 295.003015 -230.690804 
L 296.436583 -230.664937 
L 297.870151 -230.573443 
L 299.303719 -230.414907 
L 300.737287 -230.189004 
L 302.170854 -229.896483 
L 303.604422 -229.539136 
L 305.03799 -229.119736 
L 306.471558 -228.641963 
L 307.905126 -228.110308 
L 309.338694 -227.529965 
L 310.772262 -226.906706 
L 312.20583 -226.246757 
L 313.639398 -225.556661 
L 313.639398 -197.722506 
L 313.639398 -197.722506 
L 312.20583 -197.03241 
L 310.772262 -196.372461 
L 309.338694 -195.749202 
L 307.905126 -195.168858 
L 306.471558 -194.637204 
L 305.03799 -194.159431 
L 303.604422 -193.740031 
L 302.170854 -193.382683 
L 300.737287 -193.090163 
L 299.303719 -192.864259 
L 297.870151 -192.705723 
L 296.436583 -192.614229 
L 295.003015 -192.588363 
L 293.569447 -192.625635 
L 292.135879 -192.722513 
L 290.702311 -192.874485 
L 289.268744 -193.076136 
L 287.835176 -193.321247 
L 286.401608 -193.602917 
L 284.96804 -193.91369 
L 283.534472 -194.245698 
L 282.100904 -194.590813 
L 280.667336 -194.940799 
L 279.233768 -195.287465 
L 277.8002 -195.622816 
L 276.366633 -195.939198 
L 274.933065 -196.229428 
L 273.499497 -196.486916 
L 272.065929 -196.705774 
L 270.632361 -196.8809 
L 269.198793 -197.008053 
L 267.765225 -197.083901 
L 266.331657 -197.10606 
L 264.898089 -197.0731 
L 263.464522 -196.984546 
L 262.030954 -196.840851 
L 260.597386 -196.64336 
L 259.163818 -196.394252 
L 257.73025 -196.096476 
L 256.296682 -195.753673 
L 254.863114 -195.370087 
L 253.429546 -194.95047 
L 251.995978 -194.499989 
L 250.562411 -194.02412 
L 249.128843 -193.528549 
L 247.695275 -193.019076 
L 246.261707 -192.501517 
L 244.828139 -191.981615 
L 243.394571 -191.464959 
L 241.961003 -190.956909 
L 240.527435 -190.462533 
L 239.093867 -189.986552 
L 237.6603 -189.533295 
L 236.226732 -189.106669 
L 234.793164 -188.710138 
L 233.359596 -188.346709 
L 231.926028 -188.018936 
L 230.49246 -187.728926 
L 229.058892 -187.478354 
L 227.625324 -187.268494 
L 226.191757 -187.100244 
L 224.758189 -186.97416 
L 223.324621 -186.890499 
L 221.891053 -186.84925 
L 220.457485 -186.850179 
L 219.023917 -186.892864 
L 217.590349 -186.976727 
L 216.156781 -187.10107 
L 214.723213 -187.265095 
L 213.289646 -187.46793 
L 211.856078 -187.708641 
L 210.42251 -187.986244 
L 208.988942 -188.299708 
L 207.555374 -188.647954 
L 206.121806 -189.029849 
L 204.688238 -189.444199 
L 203.25467 -189.889738 
L 201.821102 -190.365111 
L 200.387535 -190.868862 
L 198.953967 -191.399424 
L 197.520399 -191.955101 
L 196.086831 -192.534065 
L 194.653263 -193.134346 
L 193.219695 -193.753832 
L 191.786127 -194.390272 
L 190.352559 -195.04128 
L 188.918991 -195.704353 
L 187.485424 -196.376884 
L 186.051856 -197.05618 
L 184.618288 -197.739492 
L 183.18472 -198.424041 
L 181.751152 -199.107044 
L 180.317584 -199.785748 
L 178.884016 -200.457461 
L 177.450448 -201.119583 
L 176.016881 -201.769633 
L 174.583313 -202.40528 
L 173.149745 -203.024365 
L 171.716177 -203.624922 
z
" id="m47e4225110" style="stroke:#575757;"/>
    </defs>
    <g clip-path="url(#pcf40c809b6)">
     <use style="fill:#7c78ab;stroke:#575757;" x="0" xlink:href="#m47e4225110" y="316.87237"/>
    </g>
   </g>
   <g id="PolyCollection_3">
    <defs>
     <path d="M 134.314464 -139.17866 
L 134.314464 -160.14884 
L 135.900031 -160.733948 
L 137.485599 -161.335386 
L 139.071167 -161.951897 
L 140.656735 -162.581991 
L 142.242303 -163.223938 
L 143.827871 -163.875763 
L 145.413438 -164.535242 
L 146.999006 -165.199906 
L 148.584574 -165.867048 
L 150.170142 -166.533731 
L 151.75571 -167.196808 
L 153.341278 -167.852936 
L 154.926845 -168.498604 
L 156.512413 -169.130161 
L 158.097981 -169.743848 
L 159.683549 -170.335836 
L 161.269117 -170.902265 
L 162.854684 -171.439286 
L 164.440252 -171.943109 
L 166.02582 -172.410045 
L 167.611388 -172.836558 
L 169.196956 -173.219306 
L 170.782524 -173.555192 
L 172.368091 -173.841407 
L 173.953659 -174.075469 
L 175.539227 -174.255264 
L 177.124795 -174.379079 
L 178.710363 -174.445629 
L 180.295931 -174.454083 
L 181.881498 -174.404081 
L 183.467066 -174.295742 
L 185.052634 -174.129676 
L 186.638202 -173.906972 
L 188.22377 -173.629199 
L 189.809338 -173.298384 
L 191.394905 -172.916991 
L 192.980473 -172.4879 
L 194.566041 -172.014363 
L 196.151609 -171.499976 
L 197.737177 -170.948631 
L 199.322744 -170.364474 
L 200.908312 -169.751855 
L 202.49388 -169.115276 
L 204.079448 -168.459345 
L 205.665016 -167.788718 
L 207.250584 -167.108056 
L 208.836151 -166.421965 
L 210.421719 -165.734959 
L 212.007287 -165.051408 
L 213.592855 -164.375499 
L 215.178423 -163.711196 
L 216.763991 -163.062208 
L 218.349558 -162.431958 
L 219.935126 -161.82356 
L 221.520694 -161.239795 
L 223.106262 -160.683099 
L 224.69183 -160.155551 
L 226.277397 -159.658867 
L 227.862965 -159.194398 
L 229.448533 -158.763135 
L 231.034101 -158.365714 
L 232.619669 -158.002426 
L 234.205237 -157.673231 
L 235.790804 -157.377776 
L 237.376372 -157.115415 
L 238.96194 -156.885227 
L 240.547508 -156.686043 
L 242.133076 -156.516466 
L 243.718644 -156.374902 
L 245.304211 -156.259584 
L 246.889779 -156.168595 
L 248.475347 -156.099902 
L 250.060915 -156.051375 
L 251.646483 -156.020815 
L 253.232051 -156.005983 
L 254.817618 -156.004618 
L 256.403186 -156.014463 
L 257.988754 -156.033286 
L 259.574322 -156.058899 
L 261.15989 -156.08918 
L 262.745457 -156.122084 
L 264.331025 -156.155664 
L 265.916593 -156.188083 
L 267.502161 -156.217623 
L 269.087729 -156.242699 
L 270.673297 -156.261866 
L 272.258864 -156.273825 
L 273.844432 -156.277428 
L 275.43 -156.271684 
L 277.015568 -156.255758 
L 278.601136 -156.228971 
L 280.186704 -156.190802 
L 281.772271 -156.140882 
L 283.357839 -156.078992 
L 284.943407 -156.005057 
L 286.528975 -155.919141 
L 288.114543 -155.821439 
L 289.70011 -155.712266 
L 291.285678 -155.592054 
L 291.285678 -143.735446 
L 291.285678 -143.735446 
L 289.70011 -143.615234 
L 288.114543 -143.506061 
L 286.528975 -143.408359 
L 284.943407 -143.322443 
L 283.357839 -143.248508 
L 281.772271 -143.186618 
L 280.186704 -143.136698 
L 278.601136 -143.098529 
L 277.015568 -143.071742 
L 275.43 -143.055816 
L 273.844432 -143.050072 
L 272.258864 -143.053675 
L 270.673297 -143.065634 
L 269.087729 -143.084801 
L 267.502161 -143.109877 
L 265.916593 -143.139417 
L 264.331025 -143.171836 
L 262.745457 -143.205416 
L 261.15989 -143.23832 
L 259.574322 -143.268601 
L 257.988754 -143.294214 
L 256.403186 -143.313037 
L 254.817618 -143.322882 
L 253.232051 -143.321517 
L 251.646483 -143.306685 
L 250.060915 -143.276125 
L 248.475347 -143.227598 
L 246.889779 -143.158905 
L 245.304211 -143.067916 
L 243.718644 -142.952598 
L 242.133076 -142.811034 
L 240.547508 -142.641457 
L 238.96194 -142.442273 
L 237.376372 -142.212085 
L 235.790804 -141.949724 
L 234.205237 -141.654269 
L 232.619669 -141.325074 
L 231.034101 -140.961786 
L 229.448533 -140.564365 
L 227.862965 -140.133102 
L 226.277397 -139.668633 
L 224.69183 -139.171949 
L 223.106262 -138.644401 
L 221.520694 -138.087705 
L 219.935126 -137.50394 
L 218.349558 -136.895542 
L 216.763991 -136.265292 
L 215.178423 -135.616304 
L 213.592855 -134.952001 
L 212.007287 -134.276092 
L 210.421719 -133.592541 
L 208.836151 -132.905535 
L 207.250584 -132.219444 
L 205.665016 -131.538782 
L 204.079448 -130.868155 
L 202.49388 -130.212224 
L 200.908312 -129.575645 
L 199.322744 -128.963026 
L 197.737177 -128.378869 
L 196.151609 -127.827524 
L 194.566041 -127.313137 
L 192.980473 -126.8396 
L 191.394905 -126.410509 
L 189.809338 -126.029116 
L 188.22377 -125.698301 
L 186.638202 -125.420528 
L 185.052634 -125.197824 
L 183.467066 -125.031758 
L 181.881498 -124.923419 
L 180.295931 -124.873417 
L 178.710363 -124.881871 
L 177.124795 -124.948421 
L 175.539227 -125.072236 
L 173.953659 -125.252031 
L 172.368091 -125.486093 
L 170.782524 -125.772308 
L 169.196956 -126.108194 
L 167.611388 -126.490942 
L 166.02582 -126.917455 
L 164.440252 -127.384391 
L 162.854684 -127.888214 
L 161.269117 -128.425235 
L 159.683549 -128.991664 
L 158.097981 -129.583652 
L 156.512413 -130.197339 
L 154.926845 -130.828896 
L 153.341278 -131.474564 
L 151.75571 -132.130692 
L 150.170142 -132.793769 
L 148.584574 -133.460452 
L 146.999006 -134.127594 
L 145.413438 -134.792258 
L 143.827871 -135.451737 
L 142.242303 -136.103562 
L 140.656735 -136.745509 
L 139.071167 -137.375603 
L 137.485599 -137.992114 
L 135.900031 -138.593552 
L 134.314464 -139.17866 
z
" id="m991d06016d" style="stroke:#575757;"/>
    </defs>
    <g clip-path="url(#pcf40c809b6)">
     <use style="fill:#7c78ab;stroke:#575757;" x="0" xlink:href="#m991d06016d" y="316.87237"/>
    </g>
   </g>
   <g id="patch_46">
    <path clip-path="url(#pcf40c809b6)" d="M 117.226889 43.256953 
L 117.226889 43.256953 
L 117.226889 43.256953 
L 117.226889 43.256953 
z
" style="fill:#7c78ab;stroke:#575757;stroke-linejoin:miter;stroke-width:0.5;"/>
   </g>
   <g id="matplotlib.axis_3">
    <g id="xtick_5">
     <g id="line2d_11">
      <g>
       <use style="stroke:#000000;stroke-width:1.6;" x="117.226889" xlink:href="#md70c8ddd21" y="260.17237"/>
      </g>
     </g>
     <g id="text_13">
      <!-- 0.0 -->
      <g transform="translate(101.323764 290.069245)scale(0.2 -0.2)">
       <use xlink:href="#DejaVuSans-48"/>
       <use x="63.623047" xlink:href="#DejaVuSans-46"/>
       <use x="95.410156" xlink:href="#DejaVuSans-48"/>
      </g>
     </g>
    </g>
    <g id="xtick_6">
     <g id="line2d_12">
      <g>
       <use style="stroke:#000000;stroke-width:1.6;" x="183.334444" xlink:href="#md70c8ddd21" y="260.17237"/>
      </g>
     </g>
     <g id="text_14">
      <!-- 0.2 -->
      <g transform="translate(167.431319 290.069245)scale(0.2 -0.2)">
       <use xlink:href="#DejaVuSans-48"/>
       <use x="63.623047" xlink:href="#DejaVuSans-46"/>
       <use x="95.410156" xlink:href="#DejaVuSans-50"/>
      </g>
     </g>
    </g>
    <g id="xtick_7">
     <g id="line2d_13">
      <g>
       <use style="stroke:#000000;stroke-width:1.6;" x="249.442" xlink:href="#md70c8ddd21" y="260.17237"/>
      </g>
     </g>
     <g id="text_15">
      <!-- 0.4 -->
      <g transform="translate(233.538875 290.069245)scale(0.2 -0.2)">
       <use xlink:href="#DejaVuSans-48"/>
       <use x="63.623047" xlink:href="#DejaVuSans-46"/>
       <use x="95.410156" xlink:href="#DejaVuSans-52"/>
      </g>
     </g>
    </g>
    <g id="xtick_8">
     <g id="line2d_14">
      <g>
       <use style="stroke:#000000;stroke-width:1.6;" x="315.549556" xlink:href="#md70c8ddd21" y="260.17237"/>
      </g>
     </g>
     <g id="text_16">
      <!-- 0.6 -->
      <g transform="translate(299.646431 290.069245)scale(0.2 -0.2)">
       <use xlink:href="#DejaVuSans-48"/>
       <use x="63.623047" xlink:href="#DejaVuSans-46"/>
       <use x="95.410156" xlink:href="#DejaVuSans-54"/>
      </g>
     </g>
    </g>
    <g id="text_17">
     <!-- Max Attention -->
     <defs>
      <path d="M 9.8125 72.90625 
L 24.515625 72.90625 
L 43.109375 23.296875 
L 61.8125 72.90625 
L 76.515625 72.90625 
L 76.515625 0 
L 66.890625 0 
L 66.890625 64.015625 
L 48.09375 14.015625 
L 38.1875 14.015625 
L 19.390625 64.015625 
L 19.390625 0 
L 9.8125 0 
z
" id="DejaVuSans-77"/>
      <path d="M 34.28125 27.484375 
Q 23.390625 27.484375 19.1875 25 
Q 14.984375 22.515625 14.984375 16.5 
Q 14.984375 11.71875 18.140625 8.90625 
Q 21.296875 6.109375 26.703125 6.109375 
Q 34.1875 6.109375 38.703125 11.40625 
Q 43.21875 16.703125 43.21875 25.484375 
L 43.21875 27.484375 
z
M 52.203125 31.203125 
L 52.203125 0 
L 43.21875 0 
L 43.21875 8.296875 
Q 40.140625 3.328125 35.546875 0.953125 
Q 30.953125 -1.421875 24.3125 -1.421875 
Q 15.921875 -1.421875 10.953125 3.296875 
Q 6 8.015625 6 15.921875 
Q 6 25.140625 12.171875 29.828125 
Q 18.359375 34.515625 30.609375 34.515625 
L 43.21875 34.515625 
L 43.21875 35.40625 
Q 43.21875 41.609375 39.140625 45 
Q 35.0625 48.390625 27.6875 48.390625 
Q 23 48.390625 18.546875 47.265625 
Q 14.109375 46.140625 10.015625 43.890625 
L 10.015625 52.203125 
Q 14.9375 54.109375 19.578125 55.046875 
Q 24.21875 56 28.609375 56 
Q 40.484375 56 46.34375 49.84375 
Q 52.203125 43.703125 52.203125 31.203125 
z
" id="DejaVuSans-97"/>
      <path d="M 54.890625 54.6875 
L 35.109375 28.078125 
L 55.90625 0 
L 45.3125 0 
L 29.390625 21.484375 
L 13.484375 0 
L 2.875 0 
L 24.125 28.609375 
L 4.6875 54.6875 
L 15.28125 54.6875 
L 29.78125 35.203125 
L 44.28125 54.6875 
z
" id="DejaVuSans-120"/>
      <path d="M 34.1875 63.1875 
L 20.796875 26.90625 
L 47.609375 26.90625 
z
M 28.609375 72.90625 
L 39.796875 72.90625 
L 67.578125 0 
L 57.328125 0 
L 50.6875 18.703125 
L 17.828125 18.703125 
L 11.1875 0 
L 0.78125 0 
z
" id="DejaVuSans-65"/>
      <path d="M 18.3125 70.21875 
L 18.3125 54.6875 
L 36.8125 54.6875 
L 36.8125 47.703125 
L 18.3125 47.703125 
L 18.3125 18.015625 
Q 18.3125 11.328125 20.140625 9.421875 
Q 21.96875 7.515625 27.59375 7.515625 
L 36.8125 7.515625 
L 36.8125 0 
L 27.59375 0 
Q 17.1875 0 13.234375 3.875 
Q 9.28125 7.765625 9.28125 18.015625 
L 9.28125 47.703125 
L 2.6875 47.703125 
L 2.6875 54.6875 
L 9.28125 54.6875 
L 9.28125 70.21875 
z
" id="DejaVuSans-116"/>
      <path d="M 56.203125 29.59375 
L 56.203125 25.203125 
L 14.890625 25.203125 
Q 15.484375 15.921875 20.484375 11.0625 
Q 25.484375 6.203125 34.421875 6.203125 
Q 39.59375 6.203125 44.453125 7.46875 
Q 49.3125 8.734375 54.109375 11.28125 
L 54.109375 2.78125 
Q 49.265625 0.734375 44.1875 -0.34375 
Q 39.109375 -1.421875 33.890625 -1.421875 
Q 20.796875 -1.421875 13.15625 6.1875 
Q 5.515625 13.8125 5.515625 26.8125 
Q 5.515625 40.234375 12.765625 48.109375 
Q 20.015625 56 32.328125 56 
Q 43.359375 56 49.78125 48.890625 
Q 56.203125 41.796875 56.203125 29.59375 
z
M 47.21875 32.234375 
Q 47.125 39.59375 43.09375 43.984375 
Q 39.0625 48.390625 32.421875 48.390625 
Q 24.90625 48.390625 20.390625 44.140625 
Q 15.875 39.890625 15.1875 32.171875 
z
" id="DejaVuSans-101"/>
      <path d="M 54.890625 33.015625 
L 54.890625 0 
L 45.90625 0 
L 45.90625 32.71875 
Q 45.90625 40.484375 42.875 44.328125 
Q 39.84375 48.1875 33.796875 48.1875 
Q 26.515625 48.1875 22.3125 43.546875 
Q 18.109375 38.921875 18.109375 30.90625 
L 18.109375 0 
L 9.078125 0 
L 9.078125 54.6875 
L 18.109375 54.6875 
L 18.109375 46.1875 
Q 21.34375 51.125 25.703125 53.5625 
Q 30.078125 56 35.796875 56 
Q 45.21875 56 50.046875 50.171875 
Q 54.890625 44.34375 54.890625 33.015625 
z
" id="DejaVuSans-110"/>
      <path d="M 9.421875 54.6875 
L 18.40625 54.6875 
L 18.40625 0 
L 9.421875 0 
z
M 9.421875 75.984375 
L 18.40625 75.984375 
L 18.40625 64.59375 
L 9.421875 64.59375 
z
" id="DejaVuSans-105"/>
      <path d="M 30.609375 48.390625 
Q 23.390625 48.390625 19.1875 42.75 
Q 14.984375 37.109375 14.984375 27.296875 
Q 14.984375 17.484375 19.15625 11.84375 
Q 23.34375 6.203125 30.609375 6.203125 
Q 37.796875 6.203125 41.984375 11.859375 
Q 46.1875 17.53125 46.1875 27.296875 
Q 46.1875 37.015625 41.984375 42.703125 
Q 37.796875 48.390625 30.609375 48.390625 
z
M 30.609375 56 
Q 42.328125 56 49.015625 48.375 
Q 55.71875 40.765625 55.71875 27.296875 
Q 55.71875 13.875 49.015625 6.21875 
Q 42.328125 -1.421875 30.609375 -1.421875 
Q 18.84375 -1.421875 12.171875 6.21875 
Q 5.515625 13.875 5.515625 27.296875 
Q 5.515625 40.765625 12.171875 48.375 
Q 18.84375 56 30.609375 56 
z
" id="DejaVuSans-111"/>
     </defs>
     <g transform="translate(154.473542 313.425495)scale(0.2 -0.2)">
      <use xlink:href="#DejaVuSans-77"/>
      <use x="86.279297" xlink:href="#DejaVuSans-97"/>
      <use x="147.558594" xlink:href="#DejaVuSans-120"/>
      <use x="206.738281" xlink:href="#DejaVuSans-32"/>
      <use x="238.525391" xlink:href="#DejaVuSans-65"/>
      <use x="306.917969" xlink:href="#DejaVuSans-116"/>
      <use x="346.126953" xlink:href="#DejaVuSans-116"/>
      <use x="385.335938" xlink:href="#DejaVuSans-101"/>
      <use x="446.859375" xlink:href="#DejaVuSans-110"/>
      <use x="510.238281" xlink:href="#DejaVuSans-116"/>
      <use x="549.447266" xlink:href="#DejaVuSans-105"/>
      <use x="577.230469" xlink:href="#DejaVuSans-111"/>
      <use x="638.412109" xlink:href="#DejaVuSans-110"/>
     </g>
    </g>
   </g>
   <g id="matplotlib.axis_4">
    <g id="ytick_7">
     <g id="line2d_15">
      <g>
       <use style="stroke:#000000;stroke-width:1.6;" x="100.7" xlink:href="#me0ea702b41" y="43.256953"/>
      </g>
     </g>
     <g id="text_18">
      <!-- [0.00, -->
      <defs>
       <path d="M 8.59375 75.984375 
L 29.296875 75.984375 
L 29.296875 69 
L 17.578125 69 
L 17.578125 -6.203125 
L 29.296875 -6.203125 
L 29.296875 -13.1875 
L 8.59375 -13.1875 
z
" id="DejaVuSans-91"/>
       <path d="M 11.71875 12.40625 
L 22.015625 12.40625 
L 22.015625 4 
L 14.015625 -11.625 
L 7.71875 -11.625 
L 11.71875 4 
z
" id="DejaVuSans-44"/>
      </defs>
      <g transform="translate(27.309375 39.657578)scale(0.2 -0.2)">
       <use xlink:href="#DejaVuSans-91"/>
       <use x="39.013672" xlink:href="#DejaVuSans-48"/>
       <use x="102.636719" xlink:href="#DejaVuSans-46"/>
       <use x="134.423828" xlink:href="#DejaVuSans-48"/>
       <use x="198.046875" xlink:href="#DejaVuSans-48"/>
       <use x="261.669922" xlink:href="#DejaVuSans-44"/>
      </g>
      <!-- 0.25) -->
      <defs>
       <path d="M 8.015625 75.875 
L 15.828125 75.875 
Q 23.140625 64.359375 26.78125 53.3125 
Q 30.421875 42.28125 30.421875 31.390625 
Q 30.421875 20.453125 26.78125 9.375 
Q 23.140625 -1.703125 15.828125 -13.1875 
L 8.015625 -13.1875 
Q 14.5 -2 17.703125 9.0625 
Q 20.90625 20.125 20.90625 31.390625 
Q 20.90625 42.671875 17.703125 53.65625 
Q 14.5 64.65625 8.015625 75.875 
z
" id="DejaVuSans-41"/>
      </defs>
      <g transform="translate(33.665625 62.053203)scale(0.2 -0.2)">
       <use xlink:href="#DejaVuSans-48"/>
       <use x="63.623047" xlink:href="#DejaVuSans-46"/>
       <use x="95.410156" xlink:href="#DejaVuSans-50"/>
       <use x="159.033203" xlink:href="#DejaVuSans-53"/>
       <use x="222.65625" xlink:href="#DejaVuSans-41"/>
      </g>
     </g>
    </g>
    <g id="ytick_8">
     <g id="line2d_16">
      <g>
       <use style="stroke:#000000;stroke-width:1.6;" x="100.7" xlink:href="#me0ea702b41" y="105.232786"/>
      </g>
     </g>
     <g id="text_19">
      <!-- [0.25, -->
      <g transform="translate(27.309375 101.633411)scale(0.2 -0.2)">
       <use xlink:href="#DejaVuSans-91"/>
       <use x="39.013672" xlink:href="#DejaVuSans-48"/>
       <use x="102.636719" xlink:href="#DejaVuSans-46"/>
       <use x="134.423828" xlink:href="#DejaVuSans-50"/>
       <use x="198.046875" xlink:href="#DejaVuSans-53"/>
       <use x="261.669922" xlink:href="#DejaVuSans-44"/>
      </g>
      <!-- 0.50) -->
      <g transform="translate(33.665625 124.029036)scale(0.2 -0.2)">
       <use xlink:href="#DejaVuSans-48"/>
       <use x="63.623047" xlink:href="#DejaVuSans-46"/>
       <use x="95.410156" xlink:href="#DejaVuSans-53"/>
       <use x="159.033203" xlink:href="#DejaVuSans-48"/>
       <use x="222.65625" xlink:href="#DejaVuSans-41"/>
      </g>
     </g>
    </g>
    <g id="ytick_9">
     <g id="line2d_17">
      <g>
       <use style="stroke:#000000;stroke-width:1.6;" x="100.7" xlink:href="#me0ea702b41" y="167.20862"/>
      </g>
     </g>
     <g id="text_20">
      <!-- [0.50, -->
      <g transform="translate(27.309375 163.609245)scale(0.2 -0.2)">
       <use xlink:href="#DejaVuSans-91"/>
       <use x="39.013672" xlink:href="#DejaVuSans-48"/>
       <use x="102.636719" xlink:href="#DejaVuSans-46"/>
       <use x="134.423828" xlink:href="#DejaVuSans-53"/>
       <use x="198.046875" xlink:href="#DejaVuSans-48"/>
       <use x="261.669922" xlink:href="#DejaVuSans-44"/>
      </g>
      <!-- 0.75) -->
      <g transform="translate(33.665625 186.00487)scale(0.2 -0.2)">
       <use xlink:href="#DejaVuSans-48"/>
       <use x="63.623047" xlink:href="#DejaVuSans-46"/>
       <use x="95.410156" xlink:href="#DejaVuSans-55"/>
       <use x="159.033203" xlink:href="#DejaVuSans-53"/>
       <use x="222.65625" xlink:href="#DejaVuSans-41"/>
      </g>
     </g>
    </g>
    <g id="ytick_10">
     <g id="line2d_18">
      <g>
       <use style="stroke:#000000;stroke-width:1.6;" x="100.7" xlink:href="#me0ea702b41" y="229.184453"/>
      </g>
     </g>
     <g id="text_21">
      <!-- [0.75, -->
      <g transform="translate(27.309375 225.585078)scale(0.2 -0.2)">
       <use xlink:href="#DejaVuSans-91"/>
       <use x="39.013672" xlink:href="#DejaVuSans-48"/>
       <use x="102.636719" xlink:href="#DejaVuSans-46"/>
       <use x="134.423828" xlink:href="#DejaVuSans-55"/>
       <use x="198.046875" xlink:href="#DejaVuSans-53"/>
       <use x="261.669922" xlink:href="#DejaVuSans-44"/>
      </g>
      <!-- 1.00) -->
      <g transform="translate(33.665625 247.980703)scale(0.2 -0.2)">
       <use xlink:href="#DejaVuSans-49"/>
       <use x="63.623047" xlink:href="#DejaVuSans-46"/>
       <use x="95.410156" xlink:href="#DejaVuSans-48"/>
       <use x="159.033203" xlink:href="#DejaVuSans-48"/>
       <use x="222.65625" xlink:href="#DejaVuSans-41"/>
      </g>
     </g>
    </g>
    <g id="text_22">
     <!-- Max JS Divergence within $\epsilon$ -->
     <defs>
      <path d="M 9.8125 72.90625 
L 19.671875 72.90625 
L 19.671875 5.078125 
Q 19.671875 -8.109375 14.671875 -14.0625 
Q 9.671875 -20.015625 -1.421875 -20.015625 
L -5.171875 -20.015625 
L -5.171875 -11.71875 
L -2.09375 -11.71875 
Q 4.4375 -11.71875 7.125 -8.046875 
Q 9.8125 -4.390625 9.8125 5.078125 
z
" id="DejaVuSans-74"/>
      <path d="M 53.515625 70.515625 
L 53.515625 60.890625 
Q 47.90625 63.578125 42.921875 64.890625 
Q 37.9375 66.21875 33.296875 66.21875 
Q 25.25 66.21875 20.875 63.09375 
Q 16.5 59.96875 16.5 54.203125 
Q 16.5 49.359375 19.40625 46.890625 
Q 22.3125 44.4375 30.421875 42.921875 
L 36.375 41.703125 
Q 47.40625 39.59375 52.65625 34.296875 
Q 57.90625 29 57.90625 20.125 
Q 57.90625 9.515625 50.796875 4.046875 
Q 43.703125 -1.421875 29.984375 -1.421875 
Q 24.8125 -1.421875 18.96875 -0.25 
Q 13.140625 0.921875 6.890625 3.21875 
L 6.890625 13.375 
Q 12.890625 10.015625 18.65625 8.296875 
Q 24.421875 6.59375 29.984375 6.59375 
Q 38.421875 6.59375 43.015625 9.90625 
Q 47.609375 13.234375 47.609375 19.390625 
Q 47.609375 24.75 44.3125 27.78125 
Q 41.015625 30.8125 33.5 32.328125 
L 27.484375 33.5 
Q 16.453125 35.6875 11.515625 40.375 
Q 6.59375 45.0625 6.59375 53.421875 
Q 6.59375 63.09375 13.40625 68.65625 
Q 20.21875 74.21875 32.171875 74.21875 
Q 37.3125 74.21875 42.625 73.28125 
Q 47.953125 72.359375 53.515625 70.515625 
z
" id="DejaVuSans-83"/>
      <path d="M 19.671875 64.796875 
L 19.671875 8.109375 
L 31.59375 8.109375 
Q 46.6875 8.109375 53.6875 14.9375 
Q 60.6875 21.78125 60.6875 36.53125 
Q 60.6875 51.171875 53.6875 57.984375 
Q 46.6875 64.796875 31.59375 64.796875 
z
M 9.8125 72.90625 
L 30.078125 72.90625 
Q 51.265625 72.90625 61.171875 64.09375 
Q 71.09375 55.28125 71.09375 36.53125 
Q 71.09375 17.671875 61.125 8.828125 
Q 51.171875 0 30.078125 0 
L 9.8125 0 
z
" id="DejaVuSans-68"/>
      <path d="M 2.984375 54.6875 
L 12.5 54.6875 
L 29.59375 8.796875 
L 46.6875 54.6875 
L 56.203125 54.6875 
L 35.6875 0 
L 23.484375 0 
z
" id="DejaVuSans-118"/>
      <path d="M 41.109375 46.296875 
Q 39.59375 47.171875 37.8125 47.578125 
Q 36.03125 48 33.890625 48 
Q 26.265625 48 22.1875 43.046875 
Q 18.109375 38.09375 18.109375 28.8125 
L 18.109375 0 
L 9.078125 0 
L 9.078125 54.6875 
L 18.109375 54.6875 
L 18.109375 46.1875 
Q 20.953125 51.171875 25.484375 53.578125 
Q 30.03125 56 36.53125 56 
Q 37.453125 56 38.578125 55.875 
Q 39.703125 55.765625 41.0625 55.515625 
z
" id="DejaVuSans-114"/>
      <path d="M 45.40625 27.984375 
Q 45.40625 37.75 41.375 43.109375 
Q 37.359375 48.484375 30.078125 48.484375 
Q 22.859375 48.484375 18.828125 43.109375 
Q 14.796875 37.75 14.796875 27.984375 
Q 14.796875 18.265625 18.828125 12.890625 
Q 22.859375 7.515625 30.078125 7.515625 
Q 37.359375 7.515625 41.375 12.890625 
Q 45.40625 18.265625 45.40625 27.984375 
z
M 54.390625 6.78125 
Q 54.390625 -7.171875 48.1875 -13.984375 
Q 42 -20.796875 29.203125 -20.796875 
Q 24.46875 -20.796875 20.265625 -20.09375 
Q 16.0625 -19.390625 12.109375 -17.921875 
L 12.109375 -9.1875 
Q 16.0625 -11.328125 19.921875 -12.34375 
Q 23.78125 -13.375 27.78125 -13.375 
Q 36.625 -13.375 41.015625 -8.765625 
Q 45.40625 -4.15625 45.40625 5.171875 
L 45.40625 9.625 
Q 42.625 4.78125 38.28125 2.390625 
Q 33.9375 0 27.875 0 
Q 17.828125 0 11.671875 7.65625 
Q 5.515625 15.328125 5.515625 27.984375 
Q 5.515625 40.671875 11.671875 48.328125 
Q 17.828125 56 27.875 56 
Q 33.9375 56 38.28125 53.609375 
Q 42.625 51.21875 45.40625 46.390625 
L 45.40625 54.6875 
L 54.390625 54.6875 
z
" id="DejaVuSans-103"/>
      <path d="M 48.78125 52.59375 
L 48.78125 44.1875 
Q 44.96875 46.296875 41.140625 47.34375 
Q 37.3125 48.390625 33.40625 48.390625 
Q 24.65625 48.390625 19.8125 42.84375 
Q 14.984375 37.3125 14.984375 27.296875 
Q 14.984375 17.28125 19.8125 11.734375 
Q 24.65625 6.203125 33.40625 6.203125 
Q 37.3125 6.203125 41.140625 7.25 
Q 44.96875 8.296875 48.78125 10.40625 
L 48.78125 2.09375 
Q 45.015625 0.34375 40.984375 -0.53125 
Q 36.96875 -1.421875 32.421875 -1.421875 
Q 20.0625 -1.421875 12.78125 6.34375 
Q 5.515625 14.109375 5.515625 27.296875 
Q 5.515625 40.671875 12.859375 48.328125 
Q 20.21875 56 33.015625 56 
Q 37.15625 56 41.109375 55.140625 
Q 45.0625 54.296875 48.78125 52.59375 
z
" id="DejaVuSans-99"/>
      <path d="M 4.203125 54.6875 
L 13.1875 54.6875 
L 24.421875 12.015625 
L 35.59375 54.6875 
L 46.1875 54.6875 
L 57.421875 12.015625 
L 68.609375 54.6875 
L 77.59375 54.6875 
L 63.28125 0 
L 52.6875 0 
L 40.921875 44.828125 
L 29.109375 0 
L 18.5 0 
z
" id="DejaVuSans-119"/>
      <path d="M 54.890625 33.015625 
L 54.890625 0 
L 45.90625 0 
L 45.90625 32.71875 
Q 45.90625 40.484375 42.875 44.328125 
Q 39.84375 48.1875 33.796875 48.1875 
Q 26.515625 48.1875 22.3125 43.546875 
Q 18.109375 38.921875 18.109375 30.90625 
L 18.109375 0 
L 9.078125 0 
L 9.078125 75.984375 
L 18.109375 75.984375 
L 18.109375 46.1875 
Q 21.34375 51.125 25.703125 53.5625 
Q 30.078125 56 35.796875 56 
Q 45.21875 56 50.046875 50.171875 
Q 54.890625 44.34375 54.890625 33.015625 
z
" id="DejaVuSans-104"/>
      <path d="M 19.734375 29.5 
Q 14.453125 30.671875 12.15625 33.84375 
Q 10.453125 36.078125 10.453125 39.109375 
Q 10.453125 47.40625 18.359375 52.25 
Q 24.609375 56.0625 34.1875 56.0625 
Q 37.890625 56.0625 41.9375 55.46875 
Q 46 54.890625 50.53125 53.71875 
L 48.96875 45.5625 
Q 44.484375 46.96875 40.71875 47.609375 
Q 36.859375 48.25 33.40625 48.25 
Q 27.59375 48.25 23.78125 46 
Q 19.1875 43.3125 19.1875 39.40625 
Q 19.1875 36.8125 21.578125 35.015625 
Q 24.421875 32.859375 30.078125 32.859375 
L 37.640625 32.859375 
L 36.234375 25.4375 
L 29 25.4375 
Q 22.265625 25.4375 18.3125 22.953125 
Q 12.9375 19.578125 12.9375 14.3125 
Q 12.9375 10.984375 15.828125 8.796875 
Q 19.4375 6.0625 26.8125 6.0625 
Q 31.34375 6.0625 35.6875 6.9375 
Q 40.046875 7.859375 43.84375 9.671875 
L 42.1875 1.3125 
Q 37.546875 -0.046875 33.296875 -0.734375 
Q 29.046875 -1.421875 25.140625 -1.421875 
Q 13.53125 -1.421875 8.0625 3.03125 
Q 3.90625 6.453125 3.90625 12.203125 
Q 3.90625 19.96875 9.375 24.75 
Q 13.421875 28.328125 19.734375 29.5 
z
" id="DejaVuSans-Oblique-949"/>
     </defs>
     <g transform="translate(19.109375 271.820703)rotate(-90)scale(0.2 -0.2)">
      <use transform="translate(0 0.015625)" xlink:href="#DejaVuSans-77"/>
      <use transform="translate(86.279297 0.015625)" xlink:href="#DejaVuSans-97"/>
      <use transform="translate(147.558594 0.015625)" xlink:href="#DejaVuSans-120"/>
      <use transform="translate(206.738281 0.015625)" xlink:href="#DejaVuSans-32"/>
      <use transform="translate(238.525391 0.015625)" xlink:href="#DejaVuSans-74"/>
      <use transform="translate(268.017578 0.015625)" xlink:href="#DejaVuSans-83"/>
      <use transform="translate(331.494141 0.015625)" xlink:href="#DejaVuSans-32"/>
      <use transform="translate(363.28125 0.015625)" xlink:href="#DejaVuSans-68"/>
      <use transform="translate(440.283203 0.015625)" xlink:href="#DejaVuSans-105"/>
      <use transform="translate(468.066406 0.015625)" xlink:href="#DejaVuSans-118"/>
      <use transform="translate(527.246094 0.015625)" xlink:href="#DejaVuSans-101"/>
      <use transform="translate(588.769531 0.015625)" xlink:href="#DejaVuSans-114"/>
      <use transform="translate(629.882812 0.015625)" xlink:href="#DejaVuSans-103"/>
      <use transform="translate(693.359375 0.015625)" xlink:href="#DejaVuSans-101"/>
      <use transform="translate(754.882812 0.015625)" xlink:href="#DejaVuSans-110"/>
      <use transform="translate(818.261719 0.015625)" xlink:href="#DejaVuSans-99"/>
      <use transform="translate(873.242188 0.015625)" xlink:href="#DejaVuSans-101"/>
      <use transform="translate(934.765625 0.015625)" xlink:href="#DejaVuSans-32"/>
      <use transform="translate(966.552734 0.015625)" xlink:href="#DejaVuSans-119"/>
      <use transform="translate(1048.339844 0.015625)" xlink:href="#DejaVuSans-105"/>
      <use transform="translate(1076.123047 0.015625)" xlink:href="#DejaVuSans-116"/>
      <use transform="translate(1115.332031 0.015625)" xlink:href="#DejaVuSans-104"/>
      <use transform="translate(1178.710938 0.015625)" xlink:href="#DejaVuSans-105"/>
      <use transform="translate(1206.494141 0.015625)" xlink:href="#DejaVuSans-110"/>
      <use transform="translate(1269.873047 0.015625)" xlink:href="#DejaVuSans-32"/>
      <use transform="translate(1301.660156 0.015625)" xlink:href="#DejaVuSans-Oblique-949"/>
     </g>
    </g>
   </g>
   <g id="line2d_19">
    <path clip-path="url(#pcf40c809b6)" d="M 261.056447 26.268436 
L 261.056447 60.245471 
" style="fill:none;stroke:#575757;stroke-dasharray:1.5,1.5;stroke-dashoffset:0;"/>
   </g>
   <g id="line2d_20">
    <path clip-path="url(#pcf40c809b6)" d="M 274.762166 19.542427 
L 274.762166 66.97148 
" style="fill:none;stroke:#575757;stroke-dasharray:3,3;stroke-dashoffset:0;"/>
   </g>
   <g id="line2d_21">
    <path clip-path="url(#pcf40c809b6)" d="M 286.975195 20.284385 
L 286.975195 66.229521 
" style="fill:none;stroke:#575757;stroke-dasharray:1.5,1.5;stroke-dashoffset:0;"/>
   </g>
   <g id="line2d_22">
    <path clip-path="url(#pcf40c809b6)" d="M 211.873174 81.541154 
L 211.873174 128.924419 
" style="fill:none;stroke:#575757;stroke-dasharray:1.5,1.5;stroke-dashoffset:0;"/>
   </g>
   <g id="line2d_23">
    <path clip-path="url(#pcf40c809b6)" d="M 234.602599 82.532635 
L 234.602599 127.932938 
" style="fill:none;stroke:#575757;stroke-dasharray:3,3;stroke-dashoffset:0;"/>
   </g>
   <g id="line2d_24">
    <path clip-path="url(#pcf40c809b6)" d="M 289.782863 86.854973 
L 289.782863 123.6106 
" style="fill:none;stroke:#575757;stroke-dasharray:1.5,1.5;stroke-dashoffset:0;"/>
   </g>
   <g id="line2d_25">
    <path clip-path="url(#pcf40c809b6)" d="M 174.052205 143.041018 
L 174.052205 191.376221 
" style="fill:none;stroke:#575757;stroke-dasharray:1.5,1.5;stroke-dashoffset:0;"/>
   </g>
   <g id="line2d_26">
    <path clip-path="url(#pcf40c809b6)" d="M 183.53946 142.822947 
L 183.53946 191.594292 
" style="fill:none;stroke:#575757;stroke-dasharray:3,3;stroke-dashoffset:0;"/>
   </g>
   <g id="line2d_27">
    <path clip-path="url(#pcf40c809b6)" d="M 195.234248 145.081513 
L 195.234248 189.335726 
" style="fill:none;stroke:#575757;stroke-dasharray:1.5,1.5;stroke-dashoffset:0;"/>
   </g>
   <g id="line2d_28">
    <path clip-path="url(#pcf40c809b6)" d="M 157.079845 204.39412 
L 157.079845 253.974786 
" style="fill:none;stroke:#575757;stroke-linecap:square;"/>
   </g>
   <g id="patch_47">
    <path d="M 100.7 260.17237 
L 100.7 12.269036 
" style="fill:none;stroke:#000000;stroke-linecap:square;stroke-linejoin:miter;stroke-width:0.8;"/>
   </g>
   <g id="patch_48">
    <path d="M 100.7 260.17237 
L 348.603333 260.17237 
" style="fill:none;stroke:#000000;stroke-linecap:square;stroke-linejoin:miter;stroke-width:0.8;"/>
   </g>
  </g>
 </g>
 <defs>
  <clipPath id="p5d6355364c">
   <rect height="247.903333" width="247.903333" x="-262.563333" y="12.269036"/>
  </clipPath>
  <clipPath id="pcf40c809b6">
   <rect height="247.903333" width="247.903333" x="100.7" y="12.269036"/>
  </clipPath>
 </defs>
</svg>
