<?xml version="1.0" encoding="utf-8" standalone="no"?>
<!DOCTYPE svg PUBLIC "-//W3C//DTD SVG 1.1//EN"
  "http://www.w3.org/Graphics/SVG/1.1/DTD/svg11.dtd">
<!-- Created with matplotlib (https://matplotlib.org/) -->
<svg height="319.018203pt" version="1.1" viewBox="0 0 356.395 319.018203" width="356.395pt" xmlns="http://www.w3.org/2000/svg" xmlns:xlink="http://www.w3.org/1999/xlink">
 <defs>
  <style type="text/css">
*{stroke-linecap:butt;stroke-linejoin:round;}
  </style>
 </defs>
 <g id="figure_1">
  <g id="patch_1">
   <path d="M 0 319.018203 
L 356.395 319.018203 
L 356.395 -0 
L 0 -0 
z
" style="fill:#ffffff;"/>
  </g>
  <g id="axes_1">
   <g id="patch_2">
    <path d="M -266.855 262.318203 
L -14.66 262.318203 
L -14.66 10.123203 
L -266.855 10.123203 
z
" style="fill:#ffffff;"/>
   </g>
   <g id="patch_3">
    <path clip-path="url(#p0873f6282b)" d="M -255.391591 262.318203 
L -249.659886 262.318203 
L -249.659886 22.132489 
L -255.391591 22.132489 
z
" style="fill:#43406b;opacity:0.6;stroke:#000000;stroke-linejoin:miter;stroke-width:0.5;"/>
   </g>
   <g id="patch_4">
    <path clip-path="url(#p0873f6282b)" d="M -249.659886 262.318203 
L -243.928182 262.318203 
L -243.928182 262.318203 
L -249.659886 262.318203 
z
" style="fill:#43406b;opacity:0.6;stroke:#000000;stroke-linejoin:miter;stroke-width:0.5;"/>
   </g>
   <g id="patch_5">
    <path clip-path="url(#p0873f6282b)" d="M -243.928182 262.318203 
L -238.196477 262.318203 
L -238.196477 262.318203 
L -243.928182 262.318203 
z
" style="fill:#43406b;opacity:0.6;stroke:#000000;stroke-linejoin:miter;stroke-width:0.5;"/>
   </g>
   <g id="patch_6">
    <path clip-path="url(#p0873f6282b)" d="M -238.196477 262.318203 
L -232.464773 262.318203 
L -232.464773 262.318203 
L -238.196477 262.318203 
z
" style="fill:#43406b;opacity:0.6;stroke:#000000;stroke-linejoin:miter;stroke-width:0.5;"/>
   </g>
   <g id="patch_7">
    <path clip-path="url(#p0873f6282b)" d="M -232.464773 262.318203 
L -226.733068 262.318203 
L -226.733068 262.318203 
L -232.464773 262.318203 
z
" style="fill:#43406b;opacity:0.6;stroke:#000000;stroke-linejoin:miter;stroke-width:0.5;"/>
   </g>
   <g id="patch_8">
    <path clip-path="url(#p0873f6282b)" d="M -226.733068 262.318203 
L -221.001364 262.318203 
L -221.001364 262.318203 
L -226.733068 262.318203 
z
" style="fill:#43406b;opacity:0.6;stroke:#000000;stroke-linejoin:miter;stroke-width:0.5;"/>
   </g>
   <g id="patch_9">
    <path clip-path="url(#p0873f6282b)" d="M -221.001364 262.318203 
L -215.269659 262.318203 
L -215.269659 262.318203 
L -221.001364 262.318203 
z
" style="fill:#43406b;opacity:0.6;stroke:#000000;stroke-linejoin:miter;stroke-width:0.5;"/>
   </g>
   <g id="patch_10">
    <path clip-path="url(#p0873f6282b)" d="M -215.269659 262.318203 
L -209.537955 262.318203 
L -209.537955 262.318203 
L -215.269659 262.318203 
z
" style="fill:#43406b;opacity:0.6;stroke:#000000;stroke-linejoin:miter;stroke-width:0.5;"/>
   </g>
   <g id="patch_11">
    <path clip-path="url(#p0873f6282b)" d="M -209.537955 262.318203 
L -203.80625 262.318203 
L -203.80625 262.318203 
L -209.537955 262.318203 
z
" style="fill:#43406b;opacity:0.6;stroke:#000000;stroke-linejoin:miter;stroke-width:0.5;"/>
   </g>
   <g id="patch_12">
    <path clip-path="url(#p0873f6282b)" d="M -203.80625 262.318203 
L -198.074545 262.318203 
L -198.074545 261.418631 
L -203.80625 261.418631 
z
" style="fill:#43406b;opacity:0.6;stroke:#000000;stroke-linejoin:miter;stroke-width:0.5;"/>
   </g>
   <g id="patch_13">
    <path clip-path="url(#p0873f6282b)" d="M -198.074545 262.318203 
L -192.342841 262.318203 
L -192.342841 261.418631 
L -198.074545 261.418631 
z
" style="fill:#43406b;opacity:0.6;stroke:#000000;stroke-linejoin:miter;stroke-width:0.5;"/>
   </g>
   <g id="patch_14">
    <path clip-path="url(#p0873f6282b)" d="M -192.342841 262.318203 
L -186.611136 262.318203 
L -186.611136 262.318203 
L -192.342841 262.318203 
z
" style="fill:#43406b;opacity:0.6;stroke:#000000;stroke-linejoin:miter;stroke-width:0.5;"/>
   </g>
   <g id="patch_15">
    <path clip-path="url(#p0873f6282b)" d="M -186.611136 262.318203 
L -180.879432 262.318203 
L -180.879432 262.318203 
L -186.611136 262.318203 
z
" style="fill:#43406b;opacity:0.6;stroke:#000000;stroke-linejoin:miter;stroke-width:0.5;"/>
   </g>
   <g id="patch_16">
    <path clip-path="url(#p0873f6282b)" d="M -180.879432 262.318203 
L -175.147727 262.318203 
L -175.147727 262.318203 
L -180.879432 262.318203 
z
" style="fill:#43406b;opacity:0.6;stroke:#000000;stroke-linejoin:miter;stroke-width:0.5;"/>
   </g>
   <g id="patch_17">
    <path clip-path="url(#p0873f6282b)" d="M -175.147727 262.318203 
L -169.416023 262.318203 
L -169.416023 262.318203 
L -175.147727 262.318203 
z
" style="fill:#43406b;opacity:0.6;stroke:#000000;stroke-linejoin:miter;stroke-width:0.5;"/>
   </g>
   <g id="patch_18">
    <path clip-path="url(#p0873f6282b)" d="M -169.416023 262.318203 
L -163.684318 262.318203 
L -163.684318 259.619487 
L -169.416023 259.619487 
z
" style="fill:#43406b;opacity:0.6;stroke:#000000;stroke-linejoin:miter;stroke-width:0.5;"/>
   </g>
   <g id="patch_19">
    <path clip-path="url(#p0873f6282b)" d="M -163.684318 262.318203 
L -157.952614 262.318203 
L -157.952614 259.619487 
L -163.684318 259.619487 
z
" style="fill:#43406b;opacity:0.6;stroke:#000000;stroke-linejoin:miter;stroke-width:0.5;"/>
   </g>
   <g id="patch_20">
    <path clip-path="url(#p0873f6282b)" d="M -157.952614 262.318203 
L -152.220909 262.318203 
L -152.220909 260.519059 
L -157.952614 260.519059 
z
" style="fill:#43406b;opacity:0.6;stroke:#000000;stroke-linejoin:miter;stroke-width:0.5;"/>
   </g>
   <g id="patch_21">
    <path clip-path="url(#p0873f6282b)" d="M -152.220909 262.318203 
L -146.489205 262.318203 
L -146.489205 257.820343 
L -152.220909 257.820343 
z
" style="fill:#43406b;opacity:0.6;stroke:#000000;stroke-linejoin:miter;stroke-width:0.5;"/>
   </g>
   <g id="patch_22">
    <path clip-path="url(#p0873f6282b)" d="M -146.489205 262.318203 
L -140.7575 262.318203 
L -140.7575 251.52334 
L -146.489205 251.52334 
z
" style="fill:#43406b;opacity:0.6;stroke:#000000;stroke-linejoin:miter;stroke-width:0.5;"/>
   </g>
   <g id="patch_23">
    <path clip-path="url(#p0873f6282b)" d="M -140.7575 262.318203 
L -135.025795 262.318203 
L -135.025795 249.724196 
L -140.7575 249.724196 
z
" style="fill:#43406b;opacity:0.6;stroke:#000000;stroke-linejoin:miter;stroke-width:0.5;"/>
   </g>
   <g id="patch_24">
    <path clip-path="url(#p0873f6282b)" d="M -135.025795 262.318203 
L -129.294091 262.318203 
L -129.294091 234.431472 
L -135.025795 234.431472 
z
" style="fill:#43406b;opacity:0.6;stroke:#000000;stroke-linejoin:miter;stroke-width:0.5;"/>
   </g>
   <g id="patch_25">
    <path clip-path="url(#p0873f6282b)" d="M -129.294091 262.318203 
L -123.562386 262.318203 
L -123.562386 236.230616 
L -129.294091 236.230616 
z
" style="fill:#43406b;opacity:0.6;stroke:#000000;stroke-linejoin:miter;stroke-width:0.5;"/>
   </g>
   <g id="patch_26">
    <path clip-path="url(#p0873f6282b)" d="M -123.562386 262.318203 
L -117.830682 262.318203 
L -117.830682 214.640889 
L -123.562386 214.640889 
z
" style="fill:#43406b;opacity:0.6;stroke:#000000;stroke-linejoin:miter;stroke-width:0.5;"/>
   </g>
   <g id="patch_27">
    <path clip-path="url(#p0873f6282b)" d="M -117.830682 262.318203 
L -112.098977 262.318203 
L -112.098977 224.536181 
L -117.830682 224.536181 
z
" style="fill:#43406b;opacity:0.6;stroke:#000000;stroke-linejoin:miter;stroke-width:0.5;"/>
   </g>
   <g id="patch_28">
    <path clip-path="url(#p0873f6282b)" d="M -112.098977 262.318203 
L -106.367273 262.318203 
L -106.367273 202.946454 
L -112.098977 202.946454 
z
" style="fill:#43406b;opacity:0.6;stroke:#000000;stroke-linejoin:miter;stroke-width:0.5;"/>
   </g>
   <g id="patch_29">
    <path clip-path="url(#p0873f6282b)" d="M -106.367273 262.318203 
L -100.635568 262.318203 
L -100.635568 186.754158 
L -106.367273 186.754158 
z
" style="fill:#43406b;opacity:0.6;stroke:#000000;stroke-linejoin:miter;stroke-width:0.5;"/>
   </g>
   <g id="patch_30">
    <path clip-path="url(#p0873f6282b)" d="M -100.635568 262.318203 
L -94.903864 262.318203 
L -94.903864 171.461435 
L -100.635568 171.461435 
z
" style="fill:#43406b;opacity:0.6;stroke:#000000;stroke-linejoin:miter;stroke-width:0.5;"/>
   </g>
   <g id="patch_31">
    <path clip-path="url(#p0873f6282b)" d="M -94.903864 262.318203 
L -89.172159 262.318203 
L -89.172159 173.260579 
L -94.903864 173.260579 
z
" style="fill:#43406b;opacity:0.6;stroke:#000000;stroke-linejoin:miter;stroke-width:0.5;"/>
   </g>
   <g id="patch_32">
    <path clip-path="url(#p0873f6282b)" d="M -89.172159 262.318203 
L -83.440455 262.318203 
L -83.440455 188.553302 
L -89.172159 188.553302 
z
" style="fill:#43406b;opacity:0.6;stroke:#000000;stroke-linejoin:miter;stroke-width:0.5;"/>
   </g>
   <g id="patch_33">
    <path clip-path="url(#p0873f6282b)" d="M -83.440455 262.318203 
L -77.70875 262.318203 
L -77.70875 222.737037 
L -83.440455 222.737037 
z
" style="fill:#43406b;opacity:0.6;stroke:#000000;stroke-linejoin:miter;stroke-width:0.5;"/>
   </g>
   <g id="patch_34">
    <path clip-path="url(#p0873f6282b)" d="M -77.70875 262.318203 
L -71.977045 262.318203 
L -71.977045 225.435753 
L -77.70875 225.435753 
z
" style="fill:#43406b;opacity:0.6;stroke:#000000;stroke-linejoin:miter;stroke-width:0.5;"/>
   </g>
   <g id="patch_35">
    <path clip-path="url(#p0873f6282b)" d="M -71.977045 262.318203 
L -66.245341 262.318203 
L -66.245341 246.125908 
L -71.977045 246.125908 
z
" style="fill:#43406b;opacity:0.6;stroke:#000000;stroke-linejoin:miter;stroke-width:0.5;"/>
   </g>
   <g id="patch_36">
    <path clip-path="url(#p0873f6282b)" d="M -66.245341 262.318203 
L -60.513636 262.318203 
L -60.513636 260.519059 
L -66.245341 260.519059 
z
" style="fill:#43406b;opacity:0.6;stroke:#000000;stroke-linejoin:miter;stroke-width:0.5;"/>
   </g>
   <g id="patch_37">
    <path clip-path="url(#p0873f6282b)" d="M -60.513636 262.318203 
L -54.781932 262.318203 
L -54.781932 262.318203 
L -60.513636 262.318203 
z
" style="fill:#43406b;opacity:0.6;stroke:#000000;stroke-linejoin:miter;stroke-width:0.5;"/>
   </g>
   <g id="patch_38">
    <path clip-path="url(#p0873f6282b)" d="M -54.781932 262.318203 
L -49.050227 262.318203 
L -49.050227 262.318203 
L -54.781932 262.318203 
z
" style="fill:#43406b;opacity:0.6;stroke:#000000;stroke-linejoin:miter;stroke-width:0.5;"/>
   </g>
   <g id="patch_39">
    <path clip-path="url(#p0873f6282b)" d="M -49.050227 262.318203 
L -43.318523 262.318203 
L -43.318523 262.318203 
L -49.050227 262.318203 
z
" style="fill:#43406b;opacity:0.6;stroke:#000000;stroke-linejoin:miter;stroke-width:0.5;"/>
   </g>
   <g id="patch_40">
    <path clip-path="url(#p0873f6282b)" d="M -43.318523 262.318203 
L -37.586818 262.318203 
L -37.586818 262.318203 
L -43.318523 262.318203 
z
" style="fill:#43406b;opacity:0.6;stroke:#000000;stroke-linejoin:miter;stroke-width:0.5;"/>
   </g>
   <g id="patch_41">
    <path clip-path="url(#p0873f6282b)" d="M -37.586818 262.318203 
L -31.855114 262.318203 
L -31.855114 262.318203 
L -37.586818 262.318203 
z
" style="fill:#43406b;opacity:0.6;stroke:#000000;stroke-linejoin:miter;stroke-width:0.5;"/>
   </g>
   <g id="patch_42">
    <path clip-path="url(#p0873f6282b)" d="M -31.855114 262.318203 
L -26.123409 262.318203 
L -26.123409 262.318203 
L -31.855114 262.318203 
z
" style="fill:#43406b;opacity:0.6;stroke:#000000;stroke-linejoin:miter;stroke-width:0.5;"/>
   </g>
   <g id="matplotlib.axis_1">
    <g id="xtick_1">
     <g id="line2d_1">
      <defs>
       <path d="M 0 0 
L 0 3.5 
" id="m977ed55d55" style="stroke:#000000;stroke-width:1.6;"/>
      </defs>
      <g/>
     </g>
     <g id="text_1">
      <!-- 0.0 -->
      <defs>
       <path d="M 31.78125 66.40625 
Q 24.171875 66.40625 20.328125 58.90625 
Q 16.5 51.421875 16.5 36.375 
Q 16.5 21.390625 20.328125 13.890625 
Q 24.171875 6.390625 31.78125 6.390625 
Q 39.453125 6.390625 43.28125 13.890625 
Q 47.125 21.390625 47.125 36.375 
Q 47.125 51.421875 43.28125 58.90625 
Q 39.453125 66.40625 31.78125 66.40625 
z
M 31.78125 74.21875 
Q 44.046875 74.21875 50.515625 64.515625 
Q 56.984375 54.828125 56.984375 36.375 
Q 56.984375 17.96875 50.515625 8.265625 
Q 44.046875 -1.421875 31.78125 -1.421875 
Q 19.53125 -1.421875 13.0625 8.265625 
Q 6.59375 17.96875 6.59375 36.375 
Q 6.59375 54.828125 13.0625 64.515625 
Q 19.53125 74.21875 31.78125 74.21875 
z
" id="DejaVuSans-48"/>
       <path d="M 10.6875 12.40625 
L 21 12.40625 
L 21 0 
L 10.6875 0 
z
" id="DejaVuSans-46"/>
      </defs>
      <g transform="translate(-271.294716 292.215078)scale(0.2 -0.2)">
       <use xlink:href="#DejaVuSans-48"/>
       <use x="63.623047" xlink:href="#DejaVuSans-46"/>
       <use x="95.410156" xlink:href="#DejaVuSans-48"/>
      </g>
     </g>
    </g>
    <g id="xtick_2">
     <g id="line2d_2">
      <g/>
     </g>
     <g id="text_2">
      <!-- 0.2 -->
      <defs>
       <path d="M 19.1875 8.296875 
L 53.609375 8.296875 
L 53.609375 0 
L 7.328125 0 
L 7.328125 8.296875 
Q 12.9375 14.109375 22.625 23.890625 
Q 32.328125 33.6875 34.8125 36.53125 
Q 39.546875 41.84375 41.421875 45.53125 
Q 43.3125 49.21875 43.3125 52.78125 
Q 43.3125 58.59375 39.234375 62.25 
Q 35.15625 65.921875 28.609375 65.921875 
Q 23.96875 65.921875 18.8125 64.3125 
Q 13.671875 62.703125 7.8125 59.421875 
L 7.8125 69.390625 
Q 13.765625 71.78125 18.9375 73 
Q 24.125 74.21875 28.421875 74.21875 
Q 39.75 74.21875 46.484375 68.546875 
Q 53.21875 62.890625 53.21875 53.421875 
Q 53.21875 48.921875 51.53125 44.890625 
Q 49.859375 40.875 45.40625 35.40625 
Q 44.1875 33.984375 37.640625 27.21875 
Q 31.109375 20.453125 19.1875 8.296875 
z
" id="DejaVuSans-50"/>
      </defs>
      <g transform="translate(-205.789521 292.215078)scale(0.2 -0.2)">
       <use xlink:href="#DejaVuSans-48"/>
       <use x="63.623047" xlink:href="#DejaVuSans-46"/>
       <use x="95.410156" xlink:href="#DejaVuSans-50"/>
      </g>
     </g>
    </g>
    <g id="xtick_3">
     <g id="line2d_3">
      <g/>
     </g>
     <g id="text_3">
      <!-- 0.4 -->
      <defs>
       <path d="M 37.796875 64.3125 
L 12.890625 25.390625 
L 37.796875 25.390625 
z
M 35.203125 72.90625 
L 47.609375 72.90625 
L 47.609375 25.390625 
L 58.015625 25.390625 
L 58.015625 17.1875 
L 47.609375 17.1875 
L 47.609375 0 
L 37.796875 0 
L 37.796875 17.1875 
L 4.890625 17.1875 
L 4.890625 26.703125 
z
" id="DejaVuSans-52"/>
      </defs>
      <g transform="translate(-140.284326 292.215078)scale(0.2 -0.2)">
       <use xlink:href="#DejaVuSans-48"/>
       <use x="63.623047" xlink:href="#DejaVuSans-46"/>
       <use x="95.410156" xlink:href="#DejaVuSans-52"/>
      </g>
     </g>
    </g>
    <g id="xtick_4">
     <g id="line2d_4">
      <g/>
     </g>
     <g id="text_4">
      <!-- 0.6 -->
      <defs>
       <path d="M 33.015625 40.375 
Q 26.375 40.375 22.484375 35.828125 
Q 18.609375 31.296875 18.609375 23.390625 
Q 18.609375 15.53125 22.484375 10.953125 
Q 26.375 6.390625 33.015625 6.390625 
Q 39.65625 6.390625 43.53125 10.953125 
Q 47.40625 15.53125 47.40625 23.390625 
Q 47.40625 31.296875 43.53125 35.828125 
Q 39.65625 40.375 33.015625 40.375 
z
M 52.59375 71.296875 
L 52.59375 62.3125 
Q 48.875 64.0625 45.09375 64.984375 
Q 41.3125 65.921875 37.59375 65.921875 
Q 27.828125 65.921875 22.671875 59.328125 
Q 17.53125 52.734375 16.796875 39.40625 
Q 19.671875 43.65625 24.015625 45.921875 
Q 28.375 48.1875 33.59375 48.1875 
Q 44.578125 48.1875 50.953125 41.515625 
Q 57.328125 34.859375 57.328125 23.390625 
Q 57.328125 12.15625 50.6875 5.359375 
Q 44.046875 -1.421875 33.015625 -1.421875 
Q 20.359375 -1.421875 13.671875 8.265625 
Q 6.984375 17.96875 6.984375 36.375 
Q 6.984375 53.65625 15.1875 63.9375 
Q 23.390625 74.21875 37.203125 74.21875 
Q 40.921875 74.21875 44.703125 73.484375 
Q 48.484375 72.75 52.59375 71.296875 
z
" id="DejaVuSans-54"/>
      </defs>
      <g transform="translate(-74.779131 292.215078)scale(0.2 -0.2)">
       <use xlink:href="#DejaVuSans-48"/>
       <use x="63.623047" xlink:href="#DejaVuSans-46"/>
       <use x="95.410156" xlink:href="#DejaVuSans-54"/>
      </g>
     </g>
    </g>
    <g id="text_5">
     <!--   -->
     <defs>
      <path id="DejaVuSans-32"/>
     </defs>
     <g transform="translate(-143.935625 315.571328)scale(0.2 -0.2)">
      <use xlink:href="#DejaVuSans-32"/>
     </g>
    </g>
   </g>
   <g id="matplotlib.axis_2">
    <g id="ytick_1">
     <g id="line2d_5">
      <defs>
       <path d="M 0 0 
L -3.5 0 
" id="m286a0e144e" style="stroke:#000000;stroke-width:1.6;"/>
      </defs>
      <g/>
     </g>
     <g id="text_6">
      <!-- 0.00 -->
      <g transform="translate(-326.08625 269.916641)scale(0.2 -0.2)">
       <use xlink:href="#DejaVuSans-48"/>
       <use x="63.623047" xlink:href="#DejaVuSans-46"/>
       <use x="95.410156" xlink:href="#DejaVuSans-48"/>
       <use x="159.033203" xlink:href="#DejaVuSans-48"/>
      </g>
     </g>
    </g>
    <g id="ytick_2">
     <g id="line2d_6">
      <g/>
     </g>
     <g id="text_7">
      <!-- 0.05 -->
      <defs>
       <path d="M 10.796875 72.90625 
L 49.515625 72.90625 
L 49.515625 64.59375 
L 19.828125 64.59375 
L 19.828125 46.734375 
Q 21.96875 47.46875 24.109375 47.828125 
Q 26.265625 48.1875 28.421875 48.1875 
Q 40.625 48.1875 47.75 41.5 
Q 54.890625 34.8125 54.890625 23.390625 
Q 54.890625 11.625 47.5625 5.09375 
Q 40.234375 -1.421875 26.90625 -1.421875 
Q 22.3125 -1.421875 17.546875 -0.640625 
Q 12.796875 0.140625 7.71875 1.703125 
L 7.71875 11.625 
Q 12.109375 9.234375 16.796875 8.0625 
Q 21.484375 6.890625 26.703125 6.890625 
Q 35.15625 6.890625 40.078125 11.328125 
Q 45.015625 15.765625 45.015625 23.390625 
Q 45.015625 31 40.078125 35.4375 
Q 35.15625 39.890625 26.703125 39.890625 
Q 22.75 39.890625 18.8125 39.015625 
Q 14.890625 38.140625 10.796875 36.28125 
z
" id="DejaVuSans-53"/>
      </defs>
      <g transform="translate(-326.08625 224.938042)scale(0.2 -0.2)">
       <use xlink:href="#DejaVuSans-48"/>
       <use x="63.623047" xlink:href="#DejaVuSans-46"/>
       <use x="95.410156" xlink:href="#DejaVuSans-48"/>
       <use x="159.033203" xlink:href="#DejaVuSans-53"/>
      </g>
     </g>
    </g>
    <g id="ytick_3">
     <g id="line2d_7">
      <g/>
     </g>
     <g id="text_8">
      <!-- 0.10 -->
      <defs>
       <path d="M 12.40625 8.296875 
L 28.515625 8.296875 
L 28.515625 63.921875 
L 10.984375 60.40625 
L 10.984375 69.390625 
L 28.421875 72.90625 
L 38.28125 72.90625 
L 38.28125 8.296875 
L 54.390625 8.296875 
L 54.390625 0 
L 12.40625 0 
z
" id="DejaVuSans-49"/>
      </defs>
      <g transform="translate(-326.08625 179.959444)scale(0.2 -0.2)">
       <use xlink:href="#DejaVuSans-48"/>
       <use x="63.623047" xlink:href="#DejaVuSans-46"/>
       <use x="95.410156" xlink:href="#DejaVuSans-49"/>
       <use x="159.033203" xlink:href="#DejaVuSans-48"/>
      </g>
     </g>
    </g>
    <g id="ytick_4">
     <g id="line2d_8">
      <g/>
     </g>
     <g id="text_9">
      <!-- 0.15 -->
      <g transform="translate(-326.08625 134.980846)scale(0.2 -0.2)">
       <use xlink:href="#DejaVuSans-48"/>
       <use x="63.623047" xlink:href="#DejaVuSans-46"/>
       <use x="95.410156" xlink:href="#DejaVuSans-49"/>
       <use x="159.033203" xlink:href="#DejaVuSans-53"/>
      </g>
     </g>
    </g>
    <g id="ytick_5">
     <g id="line2d_9">
      <g/>
     </g>
     <g id="text_10">
      <!-- 0.20 -->
      <g transform="translate(-326.08625 90.002248)scale(0.2 -0.2)">
       <use xlink:href="#DejaVuSans-48"/>
       <use x="63.623047" xlink:href="#DejaVuSans-46"/>
       <use x="95.410156" xlink:href="#DejaVuSans-50"/>
       <use x="159.033203" xlink:href="#DejaVuSans-48"/>
      </g>
     </g>
    </g>
    <g id="ytick_6">
     <g id="line2d_10">
      <g/>
     </g>
     <g id="text_11">
      <!-- 0.25 -->
      <g transform="translate(-326.08625 45.02365)scale(0.2 -0.2)">
       <use xlink:href="#DejaVuSans-48"/>
       <use x="63.623047" xlink:href="#DejaVuSans-46"/>
       <use x="95.410156" xlink:href="#DejaVuSans-50"/>
       <use x="159.033203" xlink:href="#DejaVuSans-53"/>
      </g>
     </g>
    </g>
    <g id="text_12">
     <!--   -->
     <g transform="translate(-333.7465 139.017453)rotate(-90)scale(0.176 -0.176)">
      <use xlink:href="#DejaVuSans-32"/>
     </g>
    </g>
   </g>
   <g id="patch_43">
    <path style="fill:none;stroke:#000000;stroke-linecap:square;stroke-linejoin:miter;stroke-width:0.8;"/>
   </g>
   <g id="patch_44">
    <path style="fill:none;stroke:#000000;stroke-linecap:square;stroke-linejoin:miter;stroke-width:0.8;"/>
   </g>
  </g>
  <g id="axes_2">
   <g id="patch_45">
    <path d="M 100.7 262.318203 
L 352.895 262.318203 
L 352.895 10.123203 
L 100.7 10.123203 
z
" style="fill:#ffffff;"/>
   </g>
   <g id="PolyCollection_1">
    <defs>
     <path d="M 117.153055 -264.097181 
L 117.153055 -290.644069 
L 119.163423 -290.591209 
L 121.173791 -290.375348 
L 123.184158 -290.004485 
L 125.194526 -289.492142 
L 127.204893 -288.856546 
L 129.215261 -288.119561 
L 131.225629 -287.305443 
L 133.235996 -286.439528 
L 135.246364 -285.546946 
L 137.256732 -284.651452 
L 139.267099 -283.774441 
L 141.277467 -282.934211 
L 143.287835 -282.145484 
L 145.298202 -281.419193 
L 147.30857 -280.762521 
L 149.318937 -280.179142 
L 151.329305 -279.669629 
L 153.339673 -279.231967 
L 155.35004 -278.86212 
L 157.360408 -278.554608 
L 159.370776 -278.303053 
L 161.381143 -278.100663 
L 163.391511 -277.940633 
L 165.401879 -277.81647 
L 167.412246 -277.722216 
L 169.422614 -277.6526 
L 171.432981 -277.603119 
L 173.443349 -277.570056 
L 175.453717 -277.55046 
L 177.464084 -277.542095 
L 179.474452 -277.543372 
L 181.48482 -277.553269 
L 183.495187 -277.571259 
L 185.505555 -277.597229 
L 187.515922 -277.631428 
L 189.52629 -277.674406 
L 191.536658 -277.726978 
L 193.547025 -277.790198 
L 195.557393 -277.865335 
L 197.567761 -277.953863 
L 199.578128 -278.05746 
L 201.588496 -278.177999 
L 203.598864 -278.31755 
L 205.609231 -278.478367 
L 207.619599 -278.662881 
L 209.629966 -278.873673 
L 211.640334 -279.113447 
L 213.650702 -279.38499 
L 215.661069 -279.691122 
L 217.671437 -280.034635 
L 219.681805 -280.418233 
L 221.692172 -280.844461 
L 223.70254 -281.315635 
L 225.712907 -281.833775 
L 227.723275 -282.400536 
L 229.733643 -283.017142 
L 231.74401 -283.684334 
L 233.754378 -284.402303 
L 235.764746 -285.170637 
L 237.775113 -285.988263 
L 239.785481 -286.853378 
L 241.795849 -287.763378 
L 243.806216 -288.71478 
L 245.816584 -289.703136 
L 247.826951 -290.722936 
L 249.837319 -291.767522 
L 251.847687 -292.829009 
L 253.858054 -293.89822 
L 255.868422 -294.964666 
L 257.87879 -296.016561 
L 259.889157 -297.040902 
L 261.899525 -298.023616 
L 263.909892 -298.949788 
L 265.92026 -299.803959 
L 267.930628 -300.570508 
L 269.940995 -301.234098 
L 271.951363 -301.780165 
L 273.961731 -302.195439 
L 275.972098 -302.468472 
L 277.982466 -302.590125 
L 279.992834 -302.55401 
L 282.003201 -302.35684 
L 284.013569 -301.998674 
L 286.023936 -301.483031 
L 288.034304 -300.816875 
L 290.044672 -300.01045 
L 292.055039 -299.076993 
L 294.065407 -298.032324 
L 296.075775 -296.894333 
L 298.086142 -295.682407 
L 300.09651 -294.416805 
L 302.106878 -293.118026 
L 304.117245 -291.806195 
L 306.127613 -290.500497 
L 308.13798 -289.21867 
L 310.148348 -287.976596 
L 312.158716 -286.787983 
L 314.169083 -285.664154 
L 316.179451 -284.613937 
L 316.179451 -270.127313 
L 316.179451 -270.127313 
L 314.169083 -269.077096 
L 312.158716 -267.953267 
L 310.148348 -266.764654 
L 308.13798 -265.52258 
L 306.127613 -264.240753 
L 304.117245 -262.935055 
L 302.106878 -261.623224 
L 300.09651 -260.324445 
L 298.086142 -259.058843 
L 296.075775 -257.846917 
L 294.065407 -256.708926 
L 292.055039 -255.664257 
L 290.044672 -254.7308 
L 288.034304 -253.924375 
L 286.023936 -253.258219 
L 284.013569 -252.742576 
L 282.003201 -252.38441 
L 279.992834 -252.18724 
L 277.982466 -252.151125 
L 275.972098 -252.272778 
L 273.961731 -252.545811 
L 271.951363 -252.961085 
L 269.940995 -253.507152 
L 267.930628 -254.170742 
L 265.92026 -254.937291 
L 263.909892 -255.791462 
L 261.899525 -256.717634 
L 259.889157 -257.700348 
L 257.87879 -258.724689 
L 255.868422 -259.776584 
L 253.858054 -260.84303 
L 251.847687 -261.912241 
L 249.837319 -262.973728 
L 247.826951 -264.018314 
L 245.816584 -265.038114 
L 243.806216 -266.02647 
L 241.795849 -266.977872 
L 239.785481 -267.887872 
L 237.775113 -268.752987 
L 235.764746 -269.570613 
L 233.754378 -270.338947 
L 231.74401 -271.056916 
L 229.733643 -271.724108 
L 227.723275 -272.340714 
L 225.712907 -272.907475 
L 223.70254 -273.425615 
L 221.692172 -273.896789 
L 219.681805 -274.323017 
L 217.671437 -274.706615 
L 215.661069 -275.050128 
L 213.650702 -275.35626 
L 211.640334 -275.627803 
L 209.629966 -275.867577 
L 207.619599 -276.078369 
L 205.609231 -276.262883 
L 203.598864 -276.4237 
L 201.588496 -276.563251 
L 199.578128 -276.68379 
L 197.567761 -276.787387 
L 195.557393 -276.875915 
L 193.547025 -276.951052 
L 191.536658 -277.014272 
L 189.52629 -277.066844 
L 187.515922 -277.109822 
L 185.505555 -277.144021 
L 183.495187 -277.169991 
L 181.48482 -277.187981 
L 179.474452 -277.197878 
L 177.464084 -277.199155 
L 175.453717 -277.19079 
L 173.443349 -277.171194 
L 171.432981 -277.138131 
L 169.422614 -277.08865 
L 167.412246 -277.019034 
L 165.401879 -276.92478 
L 163.391511 -276.800617 
L 161.381143 -276.640587 
L 159.370776 -276.438197 
L 157.360408 -276.186642 
L 155.35004 -275.87913 
L 153.339673 -275.509283 
L 151.329305 -275.071621 
L 149.318937 -274.562108 
L 147.30857 -273.978729 
L 145.298202 -273.322057 
L 143.287835 -272.595766 
L 141.277467 -271.807039 
L 139.267099 -270.966809 
L 137.256732 -270.089798 
L 135.246364 -269.194304 
L 133.235996 -268.301722 
L 131.225629 -267.435807 
L 129.215261 -266.621689 
L 127.204893 -265.884704 
L 125.194526 -265.249108 
L 123.184158 -264.736765 
L 121.173791 -264.365902 
L 119.163423 -264.150041 
L 117.153055 -264.097181 
z
" id="m279779cbc1" style="stroke:#333333;"/>
    </defs>
    <g clip-path="url(#p734b1a059f)">
     <use style="fill:#484566;stroke:#333333;" x="0" xlink:href="#m279779cbc1" y="319.018203"/>
    </g>
   </g>
   <g id="PolyCollection_2">
    <defs>
     <path d="M 179.618266 -199.770753 
L 179.618266 -228.872997 
L 180.232158 -229.001066 
L 180.84605 -229.127225 
L 181.459942 -229.25158 
L 182.073834 -229.374244 
L 182.687725 -229.495338 
L 183.301617 -229.61499 
L 183.915509 -229.733335 
L 184.529401 -229.850513 
L 185.143293 -229.96667 
L 185.757184 -230.081956 
L 186.371076 -230.196526 
L 186.984968 -230.310538 
L 187.59886 -230.424153 
L 188.212752 -230.537534 
L 188.826643 -230.650844 
L 189.440535 -230.764249 
L 190.054427 -230.877911 
L 190.668319 -230.991995 
L 191.28221 -231.10666 
L 191.896102 -231.222065 
L 192.509994 -231.338365 
L 193.123886 -231.45571 
L 193.737778 -231.574244 
L 194.351669 -231.694106 
L 194.965561 -231.815428 
L 195.579453 -231.938334 
L 196.193345 -232.06294 
L 196.807237 -232.189353 
L 197.421128 -232.317668 
L 198.03502 -232.447973 
L 198.648912 -232.580342 
L 199.262804 -232.714837 
L 199.876696 -232.851508 
L 200.490587 -232.990394 
L 201.104479 -233.131517 
L 201.718371 -233.274888 
L 202.332263 -233.420501 
L 202.946154 -233.568336 
L 203.560046 -233.718359 
L 204.173938 -233.870519 
L 204.78783 -234.024751 
L 205.401722 -234.180972 
L 206.015613 -234.339086 
L 206.629505 -234.498979 
L 207.243397 -234.660522 
L 207.857289 -234.82357 
L 208.471181 -234.987962 
L 209.085072 -235.153524 
L 209.698964 -235.320063 
L 210.312856 -235.487375 
L 210.926748 -235.655239 
L 211.54064 -235.823423 
L 212.154531 -235.991679 
L 212.768423 -236.159747 
L 213.382315 -236.327357 
L 213.996207 -236.494223 
L 214.610098 -236.660054 
L 215.22399 -236.824544 
L 215.837882 -236.987381 
L 216.451774 -237.148245 
L 217.065666 -237.306807 
L 217.679557 -237.462733 
L 218.293449 -237.615682 
L 218.907341 -237.76531 
L 219.521233 -237.91127 
L 220.135125 -238.053213 
L 220.749016 -238.190786 
L 221.362908 -238.32364 
L 221.9768 -238.451424 
L 222.590692 -238.57379 
L 223.204584 -238.690393 
L 223.818475 -238.800893 
L 224.432367 -238.904955 
L 225.046259 -239.002249 
L 225.660151 -239.092456 
L 226.274043 -239.175262 
L 226.887934 -239.250364 
L 227.501826 -239.317469 
L 228.115718 -239.376297 
L 228.72961 -239.42658 
L 229.343501 -239.468061 
L 229.957393 -239.500499 
L 230.571285 -239.523668 
L 231.185177 -239.537358 
L 231.799069 -239.541375 
L 232.41296 -239.535541 
L 233.026852 -239.519696 
L 233.640744 -239.4937 
L 234.254636 -239.457429 
L 234.868528 -239.41078 
L 235.482419 -239.353668 
L 236.096311 -239.286028 
L 236.710203 -239.207816 
L 237.324095 -239.119007 
L 237.937987 -239.019596 
L 238.551878 -238.909599 
L 239.16577 -238.789051 
L 239.779662 -238.658008 
L 240.393554 -238.516545 
L 240.393554 -190.127205 
L 240.393554 -190.127205 
L 239.779662 -189.985742 
L 239.16577 -189.854699 
L 238.551878 -189.734151 
L 237.937987 -189.624154 
L 237.324095 -189.524743 
L 236.710203 -189.435934 
L 236.096311 -189.357722 
L 235.482419 -189.290082 
L 234.868528 -189.23297 
L 234.254636 -189.186321 
L 233.640744 -189.15005 
L 233.026852 -189.124054 
L 232.41296 -189.108209 
L 231.799069 -189.102375 
L 231.185177 -189.106392 
L 230.571285 -189.120082 
L 229.957393 -189.143251 
L 229.343501 -189.175689 
L 228.72961 -189.21717 
L 228.115718 -189.267453 
L 227.501826 -189.326281 
L 226.887934 -189.393386 
L 226.274043 -189.468488 
L 225.660151 -189.551294 
L 225.046259 -189.641501 
L 224.432367 -189.738795 
L 223.818475 -189.842857 
L 223.204584 -189.953357 
L 222.590692 -190.06996 
L 221.9768 -190.192326 
L 221.362908 -190.32011 
L 220.749016 -190.452964 
L 220.135125 -190.590537 
L 219.521233 -190.73248 
L 218.907341 -190.87844 
L 218.293449 -191.028068 
L 217.679557 -191.181017 
L 217.065666 -191.336943 
L 216.451774 -191.495505 
L 215.837882 -191.656369 
L 215.22399 -191.819206 
L 214.610098 -191.983696 
L 213.996207 -192.149527 
L 213.382315 -192.316393 
L 212.768423 -192.484003 
L 212.154531 -192.652071 
L 211.54064 -192.820327 
L 210.926748 -192.988511 
L 210.312856 -193.156375 
L 209.698964 -193.323687 
L 209.085072 -193.490226 
L 208.471181 -193.655788 
L 207.857289 -193.82018 
L 207.243397 -193.983228 
L 206.629505 -194.144771 
L 206.015613 -194.304664 
L 205.401722 -194.462778 
L 204.78783 -194.618999 
L 204.173938 -194.773231 
L 203.560046 -194.925391 
L 202.946154 -195.075414 
L 202.332263 -195.223249 
L 201.718371 -195.368862 
L 201.104479 -195.512233 
L 200.490587 -195.653356 
L 199.876696 -195.792242 
L 199.262804 -195.928913 
L 198.648912 -196.063408 
L 198.03502 -196.195777 
L 197.421128 -196.326082 
L 196.807237 -196.454397 
L 196.193345 -196.58081 
L 195.579453 -196.705416 
L 194.965561 -196.828322 
L 194.351669 -196.949644 
L 193.737778 -197.069506 
L 193.123886 -197.18804 
L 192.509994 -197.305385 
L 191.896102 -197.421685 
L 191.28221 -197.53709 
L 190.668319 -197.651755 
L 190.054427 -197.765839 
L 189.440535 -197.879501 
L 188.826643 -197.992906 
L 188.212752 -198.106216 
L 187.59886 -198.219597 
L 186.984968 -198.333212 
L 186.371076 -198.447224 
L 185.757184 -198.561794 
L 185.143293 -198.67708 
L 184.529401 -198.793237 
L 183.915509 -198.910415 
L 183.301617 -199.02876 
L 182.687725 -199.148412 
L 182.073834 -199.269506 
L 181.459942 -199.39217 
L 180.84605 -199.516525 
L 180.232158 -199.642684 
L 179.618266 -199.770753 
z
" id="m09fc2fcb59" style="stroke:#333333;"/>
    </defs>
    <g clip-path="url(#p734b1a059f)">
     <use style="fill:#484566;stroke:#333333;" x="0" xlink:href="#m09fc2fcb59" y="319.018203"/>
    </g>
   </g>
   <g id="patch_46">
    <path clip-path="url(#p734b1a059f)" d="M 117.513 41.647578 
L 117.513 41.647578 
L 117.513 41.647578 
L 117.513 41.647578 
z
" style="fill:#484566;stroke:#333333;stroke-linejoin:miter;stroke-width:0.5;"/>
   </g>
   <g id="matplotlib.axis_3">
    <g id="xtick_5">
     <g id="line2d_11">
      <g>
       <use style="stroke:#000000;stroke-width:1.6;" x="117.513" xlink:href="#m977ed55d55" y="262.318203"/>
      </g>
     </g>
     <g id="text_13">
      <!-- 0.0 -->
      <g transform="translate(101.609875 292.215078)scale(0.2 -0.2)">
       <use xlink:href="#DejaVuSans-48"/>
       <use x="63.623047" xlink:href="#DejaVuSans-46"/>
       <use x="95.410156" xlink:href="#DejaVuSans-48"/>
      </g>
     </g>
    </g>
    <g id="xtick_6">
     <g id="line2d_12">
      <g>
       <use style="stroke:#000000;stroke-width:1.6;" x="184.765" xlink:href="#m977ed55d55" y="262.318203"/>
      </g>
     </g>
     <g id="text_14">
      <!-- 0.2 -->
      <g transform="translate(168.861875 292.215078)scale(0.2 -0.2)">
       <use xlink:href="#DejaVuSans-48"/>
       <use x="63.623047" xlink:href="#DejaVuSans-46"/>
       <use x="95.410156" xlink:href="#DejaVuSans-50"/>
      </g>
     </g>
    </g>
    <g id="xtick_7">
     <g id="line2d_13">
      <g>
       <use style="stroke:#000000;stroke-width:1.6;" x="252.017" xlink:href="#m977ed55d55" y="262.318203"/>
      </g>
     </g>
     <g id="text_15">
      <!-- 0.4 -->
      <g transform="translate(236.113875 292.215078)scale(0.2 -0.2)">
       <use xlink:href="#DejaVuSans-48"/>
       <use x="63.623047" xlink:href="#DejaVuSans-46"/>
       <use x="95.410156" xlink:href="#DejaVuSans-52"/>
      </g>
     </g>
    </g>
    <g id="xtick_8">
     <g id="line2d_14">
      <g>
       <use style="stroke:#000000;stroke-width:1.6;" x="319.269" xlink:href="#m977ed55d55" y="262.318203"/>
      </g>
     </g>
     <g id="text_16">
      <!-- 0.6 -->
      <g transform="translate(303.365875 292.215078)scale(0.2 -0.2)">
       <use xlink:href="#DejaVuSans-48"/>
       <use x="63.623047" xlink:href="#DejaVuSans-46"/>
       <use x="95.410156" xlink:href="#DejaVuSans-54"/>
      </g>
     </g>
    </g>
    <g id="text_17">
     <!-- Max Attention -->
     <defs>
      <path d="M 9.8125 72.90625 
L 24.515625 72.90625 
L 43.109375 23.296875 
L 61.8125 72.90625 
L 76.515625 72.90625 
L 76.515625 0 
L 66.890625 0 
L 66.890625 64.015625 
L 48.09375 14.015625 
L 38.1875 14.015625 
L 19.390625 64.015625 
L 19.390625 0 
L 9.8125 0 
z
" id="DejaVuSans-77"/>
      <path d="M 34.28125 27.484375 
Q 23.390625 27.484375 19.1875 25 
Q 14.984375 22.515625 14.984375 16.5 
Q 14.984375 11.71875 18.140625 8.90625 
Q 21.296875 6.109375 26.703125 6.109375 
Q 34.1875 6.109375 38.703125 11.40625 
Q 43.21875 16.703125 43.21875 25.484375 
L 43.21875 27.484375 
z
M 52.203125 31.203125 
L 52.203125 0 
L 43.21875 0 
L 43.21875 8.296875 
Q 40.140625 3.328125 35.546875 0.953125 
Q 30.953125 -1.421875 24.3125 -1.421875 
Q 15.921875 -1.421875 10.953125 3.296875 
Q 6 8.015625 6 15.921875 
Q 6 25.140625 12.171875 29.828125 
Q 18.359375 34.515625 30.609375 34.515625 
L 43.21875 34.515625 
L 43.21875 35.40625 
Q 43.21875 41.609375 39.140625 45 
Q 35.0625 48.390625 27.6875 48.390625 
Q 23 48.390625 18.546875 47.265625 
Q 14.109375 46.140625 10.015625 43.890625 
L 10.015625 52.203125 
Q 14.9375 54.109375 19.578125 55.046875 
Q 24.21875 56 28.609375 56 
Q 40.484375 56 46.34375 49.84375 
Q 52.203125 43.703125 52.203125 31.203125 
z
" id="DejaVuSans-97"/>
      <path d="M 54.890625 54.6875 
L 35.109375 28.078125 
L 55.90625 0 
L 45.3125 0 
L 29.390625 21.484375 
L 13.484375 0 
L 2.875 0 
L 24.125 28.609375 
L 4.6875 54.6875 
L 15.28125 54.6875 
L 29.78125 35.203125 
L 44.28125 54.6875 
z
" id="DejaVuSans-120"/>
      <path d="M 34.1875 63.1875 
L 20.796875 26.90625 
L 47.609375 26.90625 
z
M 28.609375 72.90625 
L 39.796875 72.90625 
L 67.578125 0 
L 57.328125 0 
L 50.6875 18.703125 
L 17.828125 18.703125 
L 11.1875 0 
L 0.78125 0 
z
" id="DejaVuSans-65"/>
      <path d="M 18.3125 70.21875 
L 18.3125 54.6875 
L 36.8125 54.6875 
L 36.8125 47.703125 
L 18.3125 47.703125 
L 18.3125 18.015625 
Q 18.3125 11.328125 20.140625 9.421875 
Q 21.96875 7.515625 27.59375 7.515625 
L 36.8125 7.515625 
L 36.8125 0 
L 27.59375 0 
Q 17.1875 0 13.234375 3.875 
Q 9.28125 7.765625 9.28125 18.015625 
L 9.28125 47.703125 
L 2.6875 47.703125 
L 2.6875 54.6875 
L 9.28125 54.6875 
L 9.28125 70.21875 
z
" id="DejaVuSans-116"/>
      <path d="M 56.203125 29.59375 
L 56.203125 25.203125 
L 14.890625 25.203125 
Q 15.484375 15.921875 20.484375 11.0625 
Q 25.484375 6.203125 34.421875 6.203125 
Q 39.59375 6.203125 44.453125 7.46875 
Q 49.3125 8.734375 54.109375 11.28125 
L 54.109375 2.78125 
Q 49.265625 0.734375 44.1875 -0.34375 
Q 39.109375 -1.421875 33.890625 -1.421875 
Q 20.796875 -1.421875 13.15625 6.1875 
Q 5.515625 13.8125 5.515625 26.8125 
Q 5.515625 40.234375 12.765625 48.109375 
Q 20.015625 56 32.328125 56 
Q 43.359375 56 49.78125 48.890625 
Q 56.203125 41.796875 56.203125 29.59375 
z
M 47.21875 32.234375 
Q 47.125 39.59375 43.09375 43.984375 
Q 39.0625 48.390625 32.421875 48.390625 
Q 24.90625 48.390625 20.390625 44.140625 
Q 15.875 39.890625 15.1875 32.171875 
z
" id="DejaVuSans-101"/>
      <path d="M 54.890625 33.015625 
L 54.890625 0 
L 45.90625 0 
L 45.90625 32.71875 
Q 45.90625 40.484375 42.875 44.328125 
Q 39.84375 48.1875 33.796875 48.1875 
Q 26.515625 48.1875 22.3125 43.546875 
Q 18.109375 38.921875 18.109375 30.90625 
L 18.109375 0 
L 9.078125 0 
L 9.078125 54.6875 
L 18.109375 54.6875 
L 18.109375 46.1875 
Q 21.34375 51.125 25.703125 53.5625 
Q 30.078125 56 35.796875 56 
Q 45.21875 56 50.046875 50.171875 
Q 54.890625 44.34375 54.890625 33.015625 
z
" id="DejaVuSans-110"/>
      <path d="M 9.421875 54.6875 
L 18.40625 54.6875 
L 18.40625 0 
L 9.421875 0 
z
M 9.421875 75.984375 
L 18.40625 75.984375 
L 18.40625 64.59375 
L 9.421875 64.59375 
z
" id="DejaVuSans-105"/>
      <path d="M 30.609375 48.390625 
Q 23.390625 48.390625 19.1875 42.75 
Q 14.984375 37.109375 14.984375 27.296875 
Q 14.984375 17.484375 19.15625 11.84375 
Q 23.34375 6.203125 30.609375 6.203125 
Q 37.796875 6.203125 41.984375 11.859375 
Q 46.1875 17.53125 46.1875 27.296875 
Q 46.1875 37.015625 41.984375 42.703125 
Q 37.796875 48.390625 30.609375 48.390625 
z
M 30.609375 56 
Q 42.328125 56 49.015625 48.375 
Q 55.71875 40.765625 55.71875 27.296875 
Q 55.71875 13.875 49.015625 6.21875 
Q 42.328125 -1.421875 30.609375 -1.421875 
Q 18.84375 -1.421875 12.171875 6.21875 
Q 5.515625 13.875 5.515625 27.296875 
Q 5.515625 40.765625 12.171875 48.375 
Q 18.84375 56 30.609375 56 
z
" id="DejaVuSans-111"/>
     </defs>
     <g transform="translate(156.619375 315.571328)scale(0.2 -0.2)">
      <use xlink:href="#DejaVuSans-77"/>
      <use x="86.279297" xlink:href="#DejaVuSans-97"/>
      <use x="147.558594" xlink:href="#DejaVuSans-120"/>
      <use x="206.738281" xlink:href="#DejaVuSans-32"/>
      <use x="238.525391" xlink:href="#DejaVuSans-65"/>
      <use x="306.917969" xlink:href="#DejaVuSans-116"/>
      <use x="346.126953" xlink:href="#DejaVuSans-116"/>
      <use x="385.335938" xlink:href="#DejaVuSans-101"/>
      <use x="446.859375" xlink:href="#DejaVuSans-110"/>
      <use x="510.238281" xlink:href="#DejaVuSans-116"/>
      <use x="549.447266" xlink:href="#DejaVuSans-105"/>
      <use x="577.230469" xlink:href="#DejaVuSans-111"/>
      <use x="638.412109" xlink:href="#DejaVuSans-110"/>
     </g>
    </g>
   </g>
   <g id="matplotlib.axis_4">
    <g id="ytick_7">
     <g id="line2d_15">
      <g>
       <use style="stroke:#000000;stroke-width:1.6;" x="100.7" xlink:href="#m286a0e144e" y="41.647578"/>
      </g>
     </g>
     <g id="text_18">
      <!-- [0.00, -->
      <defs>
       <path d="M 8.59375 75.984375 
L 29.296875 75.984375 
L 29.296875 69 
L 17.578125 69 
L 17.578125 -6.203125 
L 29.296875 -6.203125 
L 29.296875 -13.1875 
L 8.59375 -13.1875 
z
" id="DejaVuSans-91"/>
       <path d="M 11.71875 12.40625 
L 22.015625 12.40625 
L 22.015625 4 
L 14.015625 -11.625 
L 7.71875 -11.625 
L 11.71875 4 
z
" id="DejaVuSans-44"/>
      </defs>
      <g transform="translate(27.309375 38.048203)scale(0.2 -0.2)">
       <use xlink:href="#DejaVuSans-91"/>
       <use x="39.013672" xlink:href="#DejaVuSans-48"/>
       <use x="102.636719" xlink:href="#DejaVuSans-46"/>
       <use x="134.423828" xlink:href="#DejaVuSans-48"/>
       <use x="198.046875" xlink:href="#DejaVuSans-48"/>
       <use x="261.669922" xlink:href="#DejaVuSans-44"/>
      </g>
      <!-- 0.25) -->
      <defs>
       <path d="M 8.015625 75.875 
L 15.828125 75.875 
Q 23.140625 64.359375 26.78125 53.3125 
Q 30.421875 42.28125 30.421875 31.390625 
Q 30.421875 20.453125 26.78125 9.375 
Q 23.140625 -1.703125 15.828125 -13.1875 
L 8.015625 -13.1875 
Q 14.5 -2 17.703125 9.0625 
Q 20.90625 20.125 20.90625 31.390625 
Q 20.90625 42.671875 17.703125 53.65625 
Q 14.5 64.65625 8.015625 75.875 
z
" id="DejaVuSans-41"/>
      </defs>
      <g transform="translate(33.665625 60.443828)scale(0.2 -0.2)">
       <use xlink:href="#DejaVuSans-48"/>
       <use x="63.623047" xlink:href="#DejaVuSans-46"/>
       <use x="95.410156" xlink:href="#DejaVuSans-50"/>
       <use x="159.033203" xlink:href="#DejaVuSans-53"/>
       <use x="222.65625" xlink:href="#DejaVuSans-41"/>
      </g>
     </g>
    </g>
    <g id="ytick_8">
     <g id="line2d_16">
      <g>
       <use style="stroke:#000000;stroke-width:1.6;" x="100.7" xlink:href="#m286a0e144e" y="104.696328"/>
      </g>
     </g>
     <g id="text_19">
      <!-- [0.25, -->
      <g transform="translate(27.309375 101.096953)scale(0.2 -0.2)">
       <use xlink:href="#DejaVuSans-91"/>
       <use x="39.013672" xlink:href="#DejaVuSans-48"/>
       <use x="102.636719" xlink:href="#DejaVuSans-46"/>
       <use x="134.423828" xlink:href="#DejaVuSans-50"/>
       <use x="198.046875" xlink:href="#DejaVuSans-53"/>
       <use x="261.669922" xlink:href="#DejaVuSans-44"/>
      </g>
      <!-- 0.50) -->
      <g transform="translate(33.665625 123.492578)scale(0.2 -0.2)">
       <use xlink:href="#DejaVuSans-48"/>
       <use x="63.623047" xlink:href="#DejaVuSans-46"/>
       <use x="95.410156" xlink:href="#DejaVuSans-53"/>
       <use x="159.033203" xlink:href="#DejaVuSans-48"/>
       <use x="222.65625" xlink:href="#DejaVuSans-41"/>
      </g>
     </g>
    </g>
    <g id="ytick_9">
     <g id="line2d_17">
      <g>
       <use style="stroke:#000000;stroke-width:1.6;" x="100.7" xlink:href="#m286a0e144e" y="167.745078"/>
      </g>
     </g>
     <g id="text_20">
      <!-- [0.50, -->
      <g transform="translate(27.309375 164.145703)scale(0.2 -0.2)">
       <use xlink:href="#DejaVuSans-91"/>
       <use x="39.013672" xlink:href="#DejaVuSans-48"/>
       <use x="102.636719" xlink:href="#DejaVuSans-46"/>
       <use x="134.423828" xlink:href="#DejaVuSans-53"/>
       <use x="198.046875" xlink:href="#DejaVuSans-48"/>
       <use x="261.669922" xlink:href="#DejaVuSans-44"/>
      </g>
      <!-- 0.75) -->
      <defs>
       <path d="M 8.203125 72.90625 
L 55.078125 72.90625 
L 55.078125 68.703125 
L 28.609375 0 
L 18.3125 0 
L 43.21875 64.59375 
L 8.203125 64.59375 
z
" id="DejaVuSans-55"/>
      </defs>
      <g transform="translate(33.665625 186.541328)scale(0.2 -0.2)">
       <use xlink:href="#DejaVuSans-48"/>
       <use x="63.623047" xlink:href="#DejaVuSans-46"/>
       <use x="95.410156" xlink:href="#DejaVuSans-55"/>
       <use x="159.033203" xlink:href="#DejaVuSans-53"/>
       <use x="222.65625" xlink:href="#DejaVuSans-41"/>
      </g>
     </g>
    </g>
    <g id="ytick_10">
     <g id="line2d_18">
      <g>
       <use style="stroke:#000000;stroke-width:1.6;" x="100.7" xlink:href="#m286a0e144e" y="230.793828"/>
      </g>
     </g>
     <g id="text_21">
      <!-- [0.75, -->
      <g transform="translate(27.309375 227.194453)scale(0.2 -0.2)">
       <use xlink:href="#DejaVuSans-91"/>
       <use x="39.013672" xlink:href="#DejaVuSans-48"/>
       <use x="102.636719" xlink:href="#DejaVuSans-46"/>
       <use x="134.423828" xlink:href="#DejaVuSans-55"/>
       <use x="198.046875" xlink:href="#DejaVuSans-53"/>
       <use x="261.669922" xlink:href="#DejaVuSans-44"/>
      </g>
      <!-- 1.00) -->
      <g transform="translate(33.665625 249.590078)scale(0.2 -0.2)">
       <use xlink:href="#DejaVuSans-49"/>
       <use x="63.623047" xlink:href="#DejaVuSans-46"/>
       <use x="95.410156" xlink:href="#DejaVuSans-48"/>
       <use x="159.033203" xlink:href="#DejaVuSans-48"/>
       <use x="222.65625" xlink:href="#DejaVuSans-41"/>
      </g>
     </g>
    </g>
    <g id="text_22">
     <!-- Max JS Divergence within $\epsilon$ -->
     <defs>
      <path d="M 9.8125 72.90625 
L 19.671875 72.90625 
L 19.671875 5.078125 
Q 19.671875 -8.109375 14.671875 -14.0625 
Q 9.671875 -20.015625 -1.421875 -20.015625 
L -5.171875 -20.015625 
L -5.171875 -11.71875 
L -2.09375 -11.71875 
Q 4.4375 -11.71875 7.125 -8.046875 
Q 9.8125 -4.390625 9.8125 5.078125 
z
" id="DejaVuSans-74"/>
      <path d="M 53.515625 70.515625 
L 53.515625 60.890625 
Q 47.90625 63.578125 42.921875 64.890625 
Q 37.9375 66.21875 33.296875 66.21875 
Q 25.25 66.21875 20.875 63.09375 
Q 16.5 59.96875 16.5 54.203125 
Q 16.5 49.359375 19.40625 46.890625 
Q 22.3125 44.4375 30.421875 42.921875 
L 36.375 41.703125 
Q 47.40625 39.59375 52.65625 34.296875 
Q 57.90625 29 57.90625 20.125 
Q 57.90625 9.515625 50.796875 4.046875 
Q 43.703125 -1.421875 29.984375 -1.421875 
Q 24.8125 -1.421875 18.96875 -0.25 
Q 13.140625 0.921875 6.890625 3.21875 
L 6.890625 13.375 
Q 12.890625 10.015625 18.65625 8.296875 
Q 24.421875 6.59375 29.984375 6.59375 
Q 38.421875 6.59375 43.015625 9.90625 
Q 47.609375 13.234375 47.609375 19.390625 
Q 47.609375 24.75 44.3125 27.78125 
Q 41.015625 30.8125 33.5 32.328125 
L 27.484375 33.5 
Q 16.453125 35.6875 11.515625 40.375 
Q 6.59375 45.0625 6.59375 53.421875 
Q 6.59375 63.09375 13.40625 68.65625 
Q 20.21875 74.21875 32.171875 74.21875 
Q 37.3125 74.21875 42.625 73.28125 
Q 47.953125 72.359375 53.515625 70.515625 
z
" id="DejaVuSans-83"/>
      <path d="M 19.671875 64.796875 
L 19.671875 8.109375 
L 31.59375 8.109375 
Q 46.6875 8.109375 53.6875 14.9375 
Q 60.6875 21.78125 60.6875 36.53125 
Q 60.6875 51.171875 53.6875 57.984375 
Q 46.6875 64.796875 31.59375 64.796875 
z
M 9.8125 72.90625 
L 30.078125 72.90625 
Q 51.265625 72.90625 61.171875 64.09375 
Q 71.09375 55.28125 71.09375 36.53125 
Q 71.09375 17.671875 61.125 8.828125 
Q 51.171875 0 30.078125 0 
L 9.8125 0 
z
" id="DejaVuSans-68"/>
      <path d="M 2.984375 54.6875 
L 12.5 54.6875 
L 29.59375 8.796875 
L 46.6875 54.6875 
L 56.203125 54.6875 
L 35.6875 0 
L 23.484375 0 
z
" id="DejaVuSans-118"/>
      <path d="M 41.109375 46.296875 
Q 39.59375 47.171875 37.8125 47.578125 
Q 36.03125 48 33.890625 48 
Q 26.265625 48 22.1875 43.046875 
Q 18.109375 38.09375 18.109375 28.8125 
L 18.109375 0 
L 9.078125 0 
L 9.078125 54.6875 
L 18.109375 54.6875 
L 18.109375 46.1875 
Q 20.953125 51.171875 25.484375 53.578125 
Q 30.03125 56 36.53125 56 
Q 37.453125 56 38.578125 55.875 
Q 39.703125 55.765625 41.0625 55.515625 
z
" id="DejaVuSans-114"/>
      <path d="M 45.40625 27.984375 
Q 45.40625 37.75 41.375 43.109375 
Q 37.359375 48.484375 30.078125 48.484375 
Q 22.859375 48.484375 18.828125 43.109375 
Q 14.796875 37.75 14.796875 27.984375 
Q 14.796875 18.265625 18.828125 12.890625 
Q 22.859375 7.515625 30.078125 7.515625 
Q 37.359375 7.515625 41.375 12.890625 
Q 45.40625 18.265625 45.40625 27.984375 
z
M 54.390625 6.78125 
Q 54.390625 -7.171875 48.1875 -13.984375 
Q 42 -20.796875 29.203125 -20.796875 
Q 24.46875 -20.796875 20.265625 -20.09375 
Q 16.0625 -19.390625 12.109375 -17.921875 
L 12.109375 -9.1875 
Q 16.0625 -11.328125 19.921875 -12.34375 
Q 23.78125 -13.375 27.78125 -13.375 
Q 36.625 -13.375 41.015625 -8.765625 
Q 45.40625 -4.15625 45.40625 5.171875 
L 45.40625 9.625 
Q 42.625 4.78125 38.28125 2.390625 
Q 33.9375 0 27.875 0 
Q 17.828125 0 11.671875 7.65625 
Q 5.515625 15.328125 5.515625 27.984375 
Q 5.515625 40.671875 11.671875 48.328125 
Q 17.828125 56 27.875 56 
Q 33.9375 56 38.28125 53.609375 
Q 42.625 51.21875 45.40625 46.390625 
L 45.40625 54.6875 
L 54.390625 54.6875 
z
" id="DejaVuSans-103"/>
      <path d="M 48.78125 52.59375 
L 48.78125 44.1875 
Q 44.96875 46.296875 41.140625 47.34375 
Q 37.3125 48.390625 33.40625 48.390625 
Q 24.65625 48.390625 19.8125 42.84375 
Q 14.984375 37.3125 14.984375 27.296875 
Q 14.984375 17.28125 19.8125 11.734375 
Q 24.65625 6.203125 33.40625 6.203125 
Q 37.3125 6.203125 41.140625 7.25 
Q 44.96875 8.296875 48.78125 10.40625 
L 48.78125 2.09375 
Q 45.015625 0.34375 40.984375 -0.53125 
Q 36.96875 -1.421875 32.421875 -1.421875 
Q 20.0625 -1.421875 12.78125 6.34375 
Q 5.515625 14.109375 5.515625 27.296875 
Q 5.515625 40.671875 12.859375 48.328125 
Q 20.21875 56 33.015625 56 
Q 37.15625 56 41.109375 55.140625 
Q 45.0625 54.296875 48.78125 52.59375 
z
" id="DejaVuSans-99"/>
      <path d="M 4.203125 54.6875 
L 13.1875 54.6875 
L 24.421875 12.015625 
L 35.59375 54.6875 
L 46.1875 54.6875 
L 57.421875 12.015625 
L 68.609375 54.6875 
L 77.59375 54.6875 
L 63.28125 0 
L 52.6875 0 
L 40.921875 44.828125 
L 29.109375 0 
L 18.5 0 
z
" id="DejaVuSans-119"/>
      <path d="M 54.890625 33.015625 
L 54.890625 0 
L 45.90625 0 
L 45.90625 32.71875 
Q 45.90625 40.484375 42.875 44.328125 
Q 39.84375 48.1875 33.796875 48.1875 
Q 26.515625 48.1875 22.3125 43.546875 
Q 18.109375 38.921875 18.109375 30.90625 
L 18.109375 0 
L 9.078125 0 
L 9.078125 75.984375 
L 18.109375 75.984375 
L 18.109375 46.1875 
Q 21.34375 51.125 25.703125 53.5625 
Q 30.078125 56 35.796875 56 
Q 45.21875 56 50.046875 50.171875 
Q 54.890625 44.34375 54.890625 33.015625 
z
" id="DejaVuSans-104"/>
      <path d="M 19.734375 29.5 
Q 14.453125 30.671875 12.15625 33.84375 
Q 10.453125 36.078125 10.453125 39.109375 
Q 10.453125 47.40625 18.359375 52.25 
Q 24.609375 56.0625 34.1875 56.0625 
Q 37.890625 56.0625 41.9375 55.46875 
Q 46 54.890625 50.53125 53.71875 
L 48.96875 45.5625 
Q 44.484375 46.96875 40.71875 47.609375 
Q 36.859375 48.25 33.40625 48.25 
Q 27.59375 48.25 23.78125 46 
Q 19.1875 43.3125 19.1875 39.40625 
Q 19.1875 36.8125 21.578125 35.015625 
Q 24.421875 32.859375 30.078125 32.859375 
L 37.640625 32.859375 
L 36.234375 25.4375 
L 29 25.4375 
Q 22.265625 25.4375 18.3125 22.953125 
Q 12.9375 19.578125 12.9375 14.3125 
Q 12.9375 10.984375 15.828125 8.796875 
Q 19.4375 6.0625 26.8125 6.0625 
Q 31.34375 6.0625 35.6875 6.9375 
Q 40.046875 7.859375 43.84375 9.671875 
L 42.1875 1.3125 
Q 37.546875 -0.046875 33.296875 -0.734375 
Q 29.046875 -1.421875 25.140625 -1.421875 
Q 13.53125 -1.421875 8.0625 3.03125 
Q 3.90625 6.453125 3.90625 12.203125 
Q 3.90625 19.96875 9.375 24.75 
Q 13.421875 28.328125 19.734375 29.5 
z
" id="DejaVuSans-Oblique-949"/>
     </defs>
     <g transform="translate(19.109375 271.820703)rotate(-90)scale(0.2 -0.2)">
      <use transform="translate(0 0.015625)" xlink:href="#DejaVuSans-77"/>
      <use transform="translate(86.279297 0.015625)" xlink:href="#DejaVuSans-97"/>
      <use transform="translate(147.558594 0.015625)" xlink:href="#DejaVuSans-120"/>
      <use transform="translate(206.738281 0.015625)" xlink:href="#DejaVuSans-32"/>
      <use transform="translate(238.525391 0.015625)" xlink:href="#DejaVuSans-74"/>
      <use transform="translate(268.017578 0.015625)" xlink:href="#DejaVuSans-83"/>
      <use transform="translate(331.494141 0.015625)" xlink:href="#DejaVuSans-32"/>
      <use transform="translate(363.28125 0.015625)" xlink:href="#DejaVuSans-68"/>
      <use transform="translate(440.283203 0.015625)" xlink:href="#DejaVuSans-105"/>
      <use transform="translate(468.066406 0.015625)" xlink:href="#DejaVuSans-118"/>
      <use transform="translate(527.246094 0.015625)" xlink:href="#DejaVuSans-101"/>
      <use transform="translate(588.769531 0.015625)" xlink:href="#DejaVuSans-114"/>
      <use transform="translate(629.882812 0.015625)" xlink:href="#DejaVuSans-103"/>
      <use transform="translate(693.359375 0.015625)" xlink:href="#DejaVuSans-101"/>
      <use transform="translate(754.882812 0.015625)" xlink:href="#DejaVuSans-110"/>
      <use transform="translate(818.261719 0.015625)" xlink:href="#DejaVuSans-99"/>
      <use transform="translate(873.242188 0.015625)" xlink:href="#DejaVuSans-101"/>
      <use transform="translate(934.765625 0.015625)" xlink:href="#DejaVuSans-32"/>
      <use transform="translate(966.552734 0.015625)" xlink:href="#DejaVuSans-119"/>
      <use transform="translate(1048.339844 0.015625)" xlink:href="#DejaVuSans-105"/>
      <use transform="translate(1076.123047 0.015625)" xlink:href="#DejaVuSans-116"/>
      <use transform="translate(1115.332031 0.015625)" xlink:href="#DejaVuSans-104"/>
      <use transform="translate(1178.710938 0.015625)" xlink:href="#DejaVuSans-105"/>
      <use transform="translate(1206.494141 0.015625)" xlink:href="#DejaVuSans-110"/>
      <use transform="translate(1269.873047 0.015625)" xlink:href="#DejaVuSans-32"/>
      <use transform="translate(1301.660156 0.015625)" xlink:href="#DejaVuSans-Oblique-949"/>
     </g>
    </g>
   </g>
   <g id="line2d_19">
    <path clip-path="url(#p734b1a059f)" d="M 117.513 28.506868 
L 117.513 54.788288 
" style="fill:none;stroke:#333333;stroke-dasharray:1.5,1.5;stroke-dashoffset:0;"/>
   </g>
   <g id="line2d_20">
    <path clip-path="url(#p734b1a059f)" d="M 267.741559 18.679694 
L 267.741559 64.615463 
" style="fill:none;stroke:#333333;stroke-dasharray:3,3;stroke-dashoffset:0;"/>
   </g>
   <g id="line2d_21">
    <path clip-path="url(#p734b1a059f)" d="M 284.053687 17.265809 
L 284.053687 66.029347 
" style="fill:none;stroke:#333333;stroke-dasharray:1.5,1.5;stroke-dashoffset:0;"/>
   </g>
   <g id="line2d_22">
    <path clip-path="url(#p734b1a059f)" d="M 205.609303 85.035822 
L 205.609303 124.356835 
" style="fill:none;stroke:#333333;stroke-dasharray:1.5,1.5;stroke-dashoffset:0;"/>
   </g>
   <g id="line2d_23">
    <path clip-path="url(#p734b1a059f)" d="M 231.082516 79.733 
L 231.082516 129.659657 
" style="fill:none;stroke:#333333;stroke-dasharray:3,3;stroke-dashoffset:0;"/>
   </g>
   <g id="line2d_24">
    <path clip-path="url(#p734b1a059f)" d="M 235.479124 79.914853 
L 235.479124 129.477803 
" style="fill:none;stroke:#333333;stroke-dasharray:1.5,1.5;stroke-dashoffset:0;"/>
   </g>
   <g id="patch_47">
    <path d="M 100.7 262.318203 
L 100.7 10.123203 
" style="fill:none;stroke:#000000;stroke-linecap:square;stroke-linejoin:miter;stroke-width:0.8;"/>
   </g>
   <g id="patch_48">
    <path d="M 100.7 262.318203 
L 352.895 262.318203 
" style="fill:none;stroke:#000000;stroke-linecap:square;stroke-linejoin:miter;stroke-width:0.8;"/>
   </g>
  </g>
 </g>
 <defs>
  <clipPath id="p0873f6282b">
   <rect height="252.195" width="252.195" x="-266.855" y="10.123203"/>
  </clipPath>
  <clipPath id="p734b1a059f">
   <rect height="252.195" width="252.195" x="100.7" y="10.123203"/>
  </clipPath>
 </defs>
</svg>
