<?xml version="1.0" encoding="utf-8" standalone="no"?>
<!DOCTYPE svg PUBLIC "-//W3C//DTD SVG 1.1//EN"
  "http://www.w3.org/Graphics/SVG/1.1/DTD/svg11.dtd">
<!-- Created with matplotlib (https://matplotlib.org/) -->
<svg height="316.87237pt" version="1.1" viewBox="0 0 352.103333 316.87237" width="352.103333pt" xmlns="http://www.w3.org/2000/svg" xmlns:xlink="http://www.w3.org/1999/xlink">
 <defs>
  <style type="text/css">
*{stroke-linecap:butt;stroke-linejoin:round;}
  </style>
 </defs>
 <g id="figure_1">
  <g id="patch_1">
   <path d="M -0 316.87237 
L 352.103333 316.87237 
L 352.103333 -0 
L -0 -0 
z
" style="fill:#ffffff;"/>
  </g>
  <g id="axes_1">
   <g id="patch_2">
    <path d="M -262.563333 260.17237 
L -14.66 260.17237 
L -14.66 12.269036 
L -262.563333 12.269036 
z
" style="fill:#ffffff;"/>
   </g>
   <g id="patch_3">
    <path clip-path="url(#p92eb2cbf51)" d="M -251.295 260.17237 
L -245.660833 260.17237 
L -245.660833 252.617221 
L -251.295 252.617221 
z
" style="fill:#7570b3;opacity:0.6;stroke:#000000;stroke-linejoin:miter;stroke-width:0.5;"/>
   </g>
   <g id="patch_4">
    <path clip-path="url(#p92eb2cbf51)" d="M -245.660833 260.17237 
L -240.026667 260.17237 
L -240.026667 260.17237 
L -245.660833 260.17237 
z
" style="fill:#7570b3;opacity:0.6;stroke:#000000;stroke-linejoin:miter;stroke-width:0.5;"/>
   </g>
   <g id="patch_5">
    <path clip-path="url(#p92eb2cbf51)" d="M -240.026667 260.17237 
L -234.3925 260.17237 
L -234.3925 258.283582 
L -240.026667 258.283582 
z
" style="fill:#7570b3;opacity:0.6;stroke:#000000;stroke-linejoin:miter;stroke-width:0.5;"/>
   </g>
   <g id="patch_6">
    <path clip-path="url(#p92eb2cbf51)" d="M -234.3925 260.17237 
L -228.758333 260.17237 
L -228.758333 250.728433 
L -234.3925 250.728433 
z
" style="fill:#7570b3;opacity:0.6;stroke:#000000;stroke-linejoin:miter;stroke-width:0.5;"/>
   </g>
   <g id="patch_7">
    <path clip-path="url(#p92eb2cbf51)" d="M -228.758333 260.17237 
L -223.124167 260.17237 
L -223.124167 256.394795 
L -228.758333 256.394795 
z
" style="fill:#7570b3;opacity:0.6;stroke:#000000;stroke-linejoin:miter;stroke-width:0.5;"/>
   </g>
   <g id="patch_8">
    <path clip-path="url(#p92eb2cbf51)" d="M -223.124167 260.17237 
L -217.49 260.17237 
L -217.49 250.728433 
L -223.124167 250.728433 
z
" style="fill:#7570b3;opacity:0.6;stroke:#000000;stroke-linejoin:miter;stroke-width:0.5;"/>
   </g>
   <g id="patch_9">
    <path clip-path="url(#p92eb2cbf51)" d="M -217.49 260.17237 
L -211.855833 260.17237 
L -211.855833 250.728433 
L -217.49 250.728433 
z
" style="fill:#7570b3;opacity:0.6;stroke:#000000;stroke-linejoin:miter;stroke-width:0.5;"/>
   </g>
   <g id="patch_10">
    <path clip-path="url(#p92eb2cbf51)" d="M -211.855833 260.17237 
L -206.221667 260.17237 
L -206.221667 243.173284 
L -211.855833 243.173284 
z
" style="fill:#7570b3;opacity:0.6;stroke:#000000;stroke-linejoin:miter;stroke-width:0.5;"/>
   </g>
   <g id="patch_11">
    <path clip-path="url(#p92eb2cbf51)" d="M -206.221667 260.17237 
L -200.5875 260.17237 
L -200.5875 252.617221 
L -206.221667 252.617221 
z
" style="fill:#7570b3;opacity:0.6;stroke:#000000;stroke-linejoin:miter;stroke-width:0.5;"/>
   </g>
   <g id="patch_12">
    <path clip-path="url(#p92eb2cbf51)" d="M -200.5875 260.17237 
L -194.953333 260.17237 
L -194.953333 250.728433 
L -200.5875 250.728433 
z
" style="fill:#7570b3;opacity:0.6;stroke:#000000;stroke-linejoin:miter;stroke-width:0.5;"/>
   </g>
   <g id="patch_13">
    <path clip-path="url(#p92eb2cbf51)" d="M -194.953333 260.17237 
L -189.319167 260.17237 
L -189.319167 256.394795 
L -194.953333 256.394795 
z
" style="fill:#7570b3;opacity:0.6;stroke:#000000;stroke-linejoin:miter;stroke-width:0.5;"/>
   </g>
   <g id="patch_14">
    <path clip-path="url(#p92eb2cbf51)" d="M -189.319167 260.17237 
L -183.685 260.17237 
L -183.685 250.728433 
L -189.319167 250.728433 
z
" style="fill:#7570b3;opacity:0.6;stroke:#000000;stroke-linejoin:miter;stroke-width:0.5;"/>
   </g>
   <g id="patch_15">
    <path clip-path="url(#p92eb2cbf51)" d="M -183.685 260.17237 
L -178.050833 260.17237 
L -178.050833 248.839646 
L -183.685 248.839646 
z
" style="fill:#7570b3;opacity:0.6;stroke:#000000;stroke-linejoin:miter;stroke-width:0.5;"/>
   </g>
   <g id="patch_16">
    <path clip-path="url(#p92eb2cbf51)" d="M -178.050833 260.17237 
L -172.416667 260.17237 
L -172.416667 246.950859 
L -178.050833 246.950859 
z
" style="fill:#7570b3;opacity:0.6;stroke:#000000;stroke-linejoin:miter;stroke-width:0.5;"/>
   </g>
   <g id="patch_17">
    <path clip-path="url(#p92eb2cbf51)" d="M -172.416667 260.17237 
L -166.7825 260.17237 
L -166.7825 248.839646 
L -172.416667 248.839646 
z
" style="fill:#7570b3;opacity:0.6;stroke:#000000;stroke-linejoin:miter;stroke-width:0.5;"/>
   </g>
   <g id="patch_18">
    <path clip-path="url(#p92eb2cbf51)" d="M -166.7825 260.17237 
L -161.148333 260.17237 
L -161.148333 245.062071 
L -166.7825 245.062071 
z
" style="fill:#7570b3;opacity:0.6;stroke:#000000;stroke-linejoin:miter;stroke-width:0.5;"/>
   </g>
   <g id="patch_19">
    <path clip-path="url(#p92eb2cbf51)" d="M -161.148333 260.17237 
L -155.514167 260.17237 
L -155.514167 243.173284 
L -161.148333 243.173284 
z
" style="fill:#7570b3;opacity:0.6;stroke:#000000;stroke-linejoin:miter;stroke-width:0.5;"/>
   </g>
   <g id="patch_20">
    <path clip-path="url(#p92eb2cbf51)" d="M -155.514167 260.17237 
L -149.88 260.17237 
L -149.88 243.173284 
L -155.514167 243.173284 
z
" style="fill:#7570b3;opacity:0.6;stroke:#000000;stroke-linejoin:miter;stroke-width:0.5;"/>
   </g>
   <g id="patch_21">
    <path clip-path="url(#p92eb2cbf51)" d="M -149.88 260.17237 
L -144.245833 260.17237 
L -144.245833 246.950859 
L -149.88 246.950859 
z
" style="fill:#7570b3;opacity:0.6;stroke:#000000;stroke-linejoin:miter;stroke-width:0.5;"/>
   </g>
   <g id="patch_22">
    <path clip-path="url(#p92eb2cbf51)" d="M -144.245833 260.17237 
L -138.611667 260.17237 
L -138.611667 235.618135 
L -144.245833 235.618135 
z
" style="fill:#7570b3;opacity:0.6;stroke:#000000;stroke-linejoin:miter;stroke-width:0.5;"/>
   </g>
   <g id="patch_23">
    <path clip-path="url(#p92eb2cbf51)" d="M -138.611667 260.17237 
L -132.9775 260.17237 
L -132.9775 239.395709 
L -138.611667 239.395709 
z
" style="fill:#7570b3;opacity:0.6;stroke:#000000;stroke-linejoin:miter;stroke-width:0.5;"/>
   </g>
   <g id="patch_24">
    <path clip-path="url(#p92eb2cbf51)" d="M -132.9775 260.17237 
L -127.343333 260.17237 
L -127.343333 231.84056 
L -132.9775 231.84056 
z
" style="fill:#7570b3;opacity:0.6;stroke:#000000;stroke-linejoin:miter;stroke-width:0.5;"/>
   </g>
   <g id="patch_25">
    <path clip-path="url(#p92eb2cbf51)" d="M -127.343333 260.17237 
L -121.709167 260.17237 
L -121.709167 246.950859 
L -127.343333 246.950859 
z
" style="fill:#7570b3;opacity:0.6;stroke:#000000;stroke-linejoin:miter;stroke-width:0.5;"/>
   </g>
   <g id="patch_26">
    <path clip-path="url(#p92eb2cbf51)" d="M -121.709167 260.17237 
L -116.075 260.17237 
L -116.075 224.285411 
L -121.709167 224.285411 
z
" style="fill:#7570b3;opacity:0.6;stroke:#000000;stroke-linejoin:miter;stroke-width:0.5;"/>
   </g>
   <g id="patch_27">
    <path clip-path="url(#p92eb2cbf51)" d="M -116.075 260.17237 
L -110.440833 260.17237 
L -110.440833 220.507836 
L -116.075 220.507836 
z
" style="fill:#7570b3;opacity:0.6;stroke:#000000;stroke-linejoin:miter;stroke-width:0.5;"/>
   </g>
   <g id="patch_28">
    <path clip-path="url(#p92eb2cbf51)" d="M -110.440833 260.17237 
L -104.806667 260.17237 
L -104.806667 186.509665 
L -110.440833 186.509665 
z
" style="fill:#7570b3;opacity:0.6;stroke:#000000;stroke-linejoin:miter;stroke-width:0.5;"/>
   </g>
   <g id="patch_29">
    <path clip-path="url(#p92eb2cbf51)" d="M -104.806667 260.17237 
L -99.1725 260.17237 
L -99.1725 175.176941 
L -104.806667 175.176941 
z
" style="fill:#7570b3;opacity:0.6;stroke:#000000;stroke-linejoin:miter;stroke-width:0.5;"/>
   </g>
   <g id="patch_30">
    <path clip-path="url(#p92eb2cbf51)" d="M -99.1725 260.17237 
L -93.538333 260.17237 
L -93.538333 167.621792 
L -99.1725 167.621792 
z
" style="fill:#7570b3;opacity:0.6;stroke:#000000;stroke-linejoin:miter;stroke-width:0.5;"/>
   </g>
   <g id="patch_31">
    <path clip-path="url(#p92eb2cbf51)" d="M -93.538333 260.17237 
L -87.904167 260.17237 
L -87.904167 133.623621 
L -93.538333 133.623621 
z
" style="fill:#7570b3;opacity:0.6;stroke:#000000;stroke-linejoin:miter;stroke-width:0.5;"/>
   </g>
   <g id="patch_32">
    <path clip-path="url(#p92eb2cbf51)" d="M -87.904167 260.17237 
L -82.27 260.17237 
L -82.27 90.181513 
L -87.904167 90.181513 
z
" style="fill:#7570b3;opacity:0.6;stroke:#000000;stroke-linejoin:miter;stroke-width:0.5;"/>
   </g>
   <g id="patch_33">
    <path clip-path="url(#p92eb2cbf51)" d="M -82.27 260.17237 
L -76.635833 260.17237 
L -76.635833 82.626363 
L -82.27 82.626363 
z
" style="fill:#7570b3;opacity:0.6;stroke:#000000;stroke-linejoin:miter;stroke-width:0.5;"/>
   </g>
   <g id="patch_34">
    <path clip-path="url(#p92eb2cbf51)" d="M -76.635833 260.17237 
L -71.001667 260.17237 
L -71.001667 24.073957 
L -76.635833 24.073957 
z
" style="fill:#7570b3;opacity:0.6;stroke:#000000;stroke-linejoin:miter;stroke-width:0.5;"/>
   </g>
   <g id="patch_35">
    <path clip-path="url(#p92eb2cbf51)" d="M -71.001667 260.17237 
L -65.3675 260.17237 
L -65.3675 35.406681 
L -71.001667 35.406681 
z
" style="fill:#7570b3;opacity:0.6;stroke:#000000;stroke-linejoin:miter;stroke-width:0.5;"/>
   </g>
   <g id="patch_36">
    <path clip-path="url(#p92eb2cbf51)" d="M -65.3675 260.17237 
L -59.733333 260.17237 
L -59.733333 73.182427 
L -65.3675 73.182427 
z
" style="fill:#7570b3;opacity:0.6;stroke:#000000;stroke-linejoin:miter;stroke-width:0.5;"/>
   </g>
   <g id="patch_37">
    <path clip-path="url(#p92eb2cbf51)" d="M -59.733333 260.17237 
L -54.099167 260.17237 
L -54.099167 150.622706 
L -59.733333 150.622706 
z
" style="fill:#7570b3;opacity:0.6;stroke:#000000;stroke-linejoin:miter;stroke-width:0.5;"/>
   </g>
   <g id="patch_38">
    <path clip-path="url(#p92eb2cbf51)" d="M -54.099167 260.17237 
L -48.465 260.17237 
L -48.465 209.175113 
L -54.099167 209.175113 
z
" style="fill:#7570b3;opacity:0.6;stroke:#000000;stroke-linejoin:miter;stroke-width:0.5;"/>
   </g>
   <g id="patch_39">
    <path clip-path="url(#p92eb2cbf51)" d="M -48.465 260.17237 
L -42.830833 260.17237 
L -42.830833 254.506008 
L -48.465 254.506008 
z
" style="fill:#7570b3;opacity:0.6;stroke:#000000;stroke-linejoin:miter;stroke-width:0.5;"/>
   </g>
   <g id="patch_40">
    <path clip-path="url(#p92eb2cbf51)" d="M -42.830833 260.17237 
L -37.196667 260.17237 
L -37.196667 260.17237 
L -42.830833 260.17237 
z
" style="fill:#7570b3;opacity:0.6;stroke:#000000;stroke-linejoin:miter;stroke-width:0.5;"/>
   </g>
   <g id="patch_41">
    <path clip-path="url(#p92eb2cbf51)" d="M -37.196667 260.17237 
L -31.5625 260.17237 
L -31.5625 260.17237 
L -37.196667 260.17237 
z
" style="fill:#7570b3;opacity:0.6;stroke:#000000;stroke-linejoin:miter;stroke-width:0.5;"/>
   </g>
   <g id="patch_42">
    <path clip-path="url(#p92eb2cbf51)" d="M -31.5625 260.17237 
L -25.928333 260.17237 
L -25.928333 260.17237 
L -31.5625 260.17237 
z
" style="fill:#7570b3;opacity:0.6;stroke:#000000;stroke-linejoin:miter;stroke-width:0.5;"/>
   </g>
   <g id="matplotlib.axis_1">
    <g id="xtick_1">
     <g id="line2d_1">
      <defs>
       <path d="M 0 0 
L 0 3.5 
" id="m8dfe3c74dc" style="stroke:#000000;stroke-width:1.6;"/>
      </defs>
      <g/>
     </g>
     <g id="text_1">
      <!-- 0.0 -->
      <defs>
       <path d="M 31.78125 66.40625 
Q 24.171875 66.40625 20.328125 58.90625 
Q 16.5 51.421875 16.5 36.375 
Q 16.5 21.390625 20.328125 13.890625 
Q 24.171875 6.390625 31.78125 6.390625 
Q 39.453125 6.390625 43.28125 13.890625 
Q 47.125 21.390625 47.125 36.375 
Q 47.125 51.421875 43.28125 58.90625 
Q 39.453125 66.40625 31.78125 66.40625 
z
M 31.78125 74.21875 
Q 44.046875 74.21875 50.515625 64.515625 
Q 56.984375 54.828125 56.984375 36.375 
Q 56.984375 17.96875 50.515625 8.265625 
Q 44.046875 -1.421875 31.78125 -1.421875 
Q 19.53125 -1.421875 13.0625 8.265625 
Q 6.59375 17.96875 6.59375 36.375 
Q 6.59375 54.828125 13.0625 64.515625 
Q 19.53125 74.21875 31.78125 74.21875 
z
" id="DejaVuSans-48"/>
       <path d="M 10.6875 12.40625 
L 21 12.40625 
L 21 0 
L 10.6875 0 
z
" id="DejaVuSans-46"/>
      </defs>
      <g transform="translate(-267.198125 290.069245)scale(0.2 -0.2)">
       <use xlink:href="#DejaVuSans-48"/>
       <use x="63.623047" xlink:href="#DejaVuSans-46"/>
       <use x="95.410156" xlink:href="#DejaVuSans-48"/>
      </g>
     </g>
    </g>
    <g id="xtick_2">
     <g id="line2d_2">
      <g/>
     </g>
     <g id="text_2">
      <!-- 0.2 -->
      <defs>
       <path d="M 19.1875 8.296875 
L 53.609375 8.296875 
L 53.609375 0 
L 7.328125 0 
L 7.328125 8.296875 
Q 12.9375 14.109375 22.625 23.890625 
Q 32.328125 33.6875 34.8125 36.53125 
Q 39.546875 41.84375 41.421875 45.53125 
Q 43.3125 49.21875 43.3125 52.78125 
Q 43.3125 58.59375 39.234375 62.25 
Q 35.15625 65.921875 28.609375 65.921875 
Q 23.96875 65.921875 18.8125 64.3125 
Q 13.671875 62.703125 7.8125 59.421875 
L 7.8125 69.390625 
Q 13.765625 71.78125 18.9375 73 
Q 24.125 74.21875 28.421875 74.21875 
Q 39.75 74.21875 46.484375 68.546875 
Q 53.21875 62.890625 53.21875 53.421875 
Q 53.21875 48.921875 51.53125 44.890625 
Q 49.859375 40.875 45.40625 35.40625 
Q 44.1875 33.984375 37.640625 27.21875 
Q 31.109375 20.453125 19.1875 8.296875 
z
" id="DejaVuSans-50"/>
      </defs>
      <g transform="translate(-202.807649 290.069245)scale(0.2 -0.2)">
       <use xlink:href="#DejaVuSans-48"/>
       <use x="63.623047" xlink:href="#DejaVuSans-46"/>
       <use x="95.410156" xlink:href="#DejaVuSans-50"/>
      </g>
     </g>
    </g>
    <g id="xtick_3">
     <g id="line2d_3">
      <g/>
     </g>
     <g id="text_3">
      <!-- 0.4 -->
      <defs>
       <path d="M 37.796875 64.3125 
L 12.890625 25.390625 
L 37.796875 25.390625 
z
M 35.203125 72.90625 
L 47.609375 72.90625 
L 47.609375 25.390625 
L 58.015625 25.390625 
L 58.015625 17.1875 
L 47.609375 17.1875 
L 47.609375 0 
L 37.796875 0 
L 37.796875 17.1875 
L 4.890625 17.1875 
L 4.890625 26.703125 
z
" id="DejaVuSans-52"/>
      </defs>
      <g transform="translate(-138.417173 290.069245)scale(0.2 -0.2)">
       <use xlink:href="#DejaVuSans-48"/>
       <use x="63.623047" xlink:href="#DejaVuSans-46"/>
       <use x="95.410156" xlink:href="#DejaVuSans-52"/>
      </g>
     </g>
    </g>
    <g id="xtick_4">
     <g id="line2d_4">
      <g/>
     </g>
     <g id="text_4">
      <!-- 0.6 -->
      <defs>
       <path d="M 33.015625 40.375 
Q 26.375 40.375 22.484375 35.828125 
Q 18.609375 31.296875 18.609375 23.390625 
Q 18.609375 15.53125 22.484375 10.953125 
Q 26.375 6.390625 33.015625 6.390625 
Q 39.65625 6.390625 43.53125 10.953125 
Q 47.40625 15.53125 47.40625 23.390625 
Q 47.40625 31.296875 43.53125 35.828125 
Q 39.65625 40.375 33.015625 40.375 
z
M 52.59375 71.296875 
L 52.59375 62.3125 
Q 48.875 64.0625 45.09375 64.984375 
Q 41.3125 65.921875 37.59375 65.921875 
Q 27.828125 65.921875 22.671875 59.328125 
Q 17.53125 52.734375 16.796875 39.40625 
Q 19.671875 43.65625 24.015625 45.921875 
Q 28.375 48.1875 33.59375 48.1875 
Q 44.578125 48.1875 50.953125 41.515625 
Q 57.328125 34.859375 57.328125 23.390625 
Q 57.328125 12.15625 50.6875 5.359375 
Q 44.046875 -1.421875 33.015625 -1.421875 
Q 20.359375 -1.421875 13.671875 8.265625 
Q 6.984375 17.96875 6.984375 36.375 
Q 6.984375 53.65625 15.1875 63.9375 
Q 23.390625 74.21875 37.203125 74.21875 
Q 40.921875 74.21875 44.703125 73.484375 
Q 48.484375 72.75 52.59375 71.296875 
z
" id="DejaVuSans-54"/>
      </defs>
      <g transform="translate(-74.026696 290.069245)scale(0.2 -0.2)">
       <use xlink:href="#DejaVuSans-48"/>
       <use x="63.623047" xlink:href="#DejaVuSans-46"/>
       <use x="95.410156" xlink:href="#DejaVuSans-54"/>
      </g>
     </g>
    </g>
    <g id="text_5">
     <!--   -->
     <defs>
      <path id="DejaVuSans-32"/>
     </defs>
     <g transform="translate(-141.789792 313.425495)scale(0.2 -0.2)">
      <use xlink:href="#DejaVuSans-32"/>
     </g>
    </g>
   </g>
   <g id="matplotlib.axis_2">
    <g id="ytick_1">
     <g id="line2d_5">
      <defs>
       <path d="M 0 0 
L -3.5 0 
" id="md8021b1ce1" style="stroke:#000000;stroke-width:1.6;"/>
      </defs>
      <g/>
     </g>
     <g id="text_6">
      <!-- 0.000 -->
      <g transform="translate(-334.519583 267.770807)scale(0.2 -0.2)">
       <use xlink:href="#DejaVuSans-48"/>
       <use x="63.623047" xlink:href="#DejaVuSans-46"/>
       <use x="95.410156" xlink:href="#DejaVuSans-48"/>
       <use x="159.033203" xlink:href="#DejaVuSans-48"/>
       <use x="222.65625" xlink:href="#DejaVuSans-48"/>
      </g>
     </g>
    </g>
    <g id="ytick_2">
     <g id="line2d_6">
      <g/>
     </g>
     <g id="text_7">
      <!-- 0.025 -->
      <defs>
       <path d="M 10.796875 72.90625 
L 49.515625 72.90625 
L 49.515625 64.59375 
L 19.828125 64.59375 
L 19.828125 46.734375 
Q 21.96875 47.46875 24.109375 47.828125 
Q 26.265625 48.1875 28.421875 48.1875 
Q 40.625 48.1875 47.75 41.5 
Q 54.890625 34.8125 54.890625 23.390625 
Q 54.890625 11.625 47.5625 5.09375 
Q 40.234375 -1.421875 26.90625 -1.421875 
Q 22.3125 -1.421875 17.546875 -0.640625 
Q 12.796875 0.140625 7.71875 1.703125 
L 7.71875 11.625 
Q 12.109375 9.234375 16.796875 8.0625 
Q 21.484375 6.890625 26.703125 6.890625 
Q 35.15625 6.890625 40.078125 11.328125 
Q 45.015625 15.765625 45.015625 23.390625 
Q 45.015625 31 40.078125 35.4375 
Q 35.15625 39.890625 26.703125 39.890625 
Q 22.75 39.890625 18.8125 39.015625 
Q 14.890625 38.140625 10.796875 36.28125 
z
" id="DejaVuSans-53"/>
      </defs>
      <g transform="translate(-334.519583 220.551125)scale(0.2 -0.2)">
       <use xlink:href="#DejaVuSans-48"/>
       <use x="63.623047" xlink:href="#DejaVuSans-46"/>
       <use x="95.410156" xlink:href="#DejaVuSans-48"/>
       <use x="159.033203" xlink:href="#DejaVuSans-50"/>
       <use x="222.65625" xlink:href="#DejaVuSans-53"/>
      </g>
     </g>
    </g>
    <g id="ytick_3">
     <g id="line2d_7">
      <g/>
     </g>
     <g id="text_8">
      <!-- 0.050 -->
      <g transform="translate(-334.519583 173.331442)scale(0.2 -0.2)">
       <use xlink:href="#DejaVuSans-48"/>
       <use x="63.623047" xlink:href="#DejaVuSans-46"/>
       <use x="95.410156" xlink:href="#DejaVuSans-48"/>
       <use x="159.033203" xlink:href="#DejaVuSans-53"/>
       <use x="222.65625" xlink:href="#DejaVuSans-48"/>
      </g>
     </g>
    </g>
    <g id="ytick_4">
     <g id="line2d_8">
      <g/>
     </g>
     <g id="text_9">
      <!-- 0.075 -->
      <defs>
       <path d="M 8.203125 72.90625 
L 55.078125 72.90625 
L 55.078125 68.703125 
L 28.609375 0 
L 18.3125 0 
L 43.21875 64.59375 
L 8.203125 64.59375 
z
" id="DejaVuSans-55"/>
      </defs>
      <g transform="translate(-334.519583 126.11176)scale(0.2 -0.2)">
       <use xlink:href="#DejaVuSans-48"/>
       <use x="63.623047" xlink:href="#DejaVuSans-46"/>
       <use x="95.410156" xlink:href="#DejaVuSans-48"/>
       <use x="159.033203" xlink:href="#DejaVuSans-55"/>
       <use x="222.65625" xlink:href="#DejaVuSans-53"/>
      </g>
     </g>
    </g>
    <g id="ytick_5">
     <g id="line2d_9">
      <g/>
     </g>
     <g id="text_10">
      <!-- 0.100 -->
      <defs>
       <path d="M 12.40625 8.296875 
L 28.515625 8.296875 
L 28.515625 63.921875 
L 10.984375 60.40625 
L 10.984375 69.390625 
L 28.421875 72.90625 
L 38.28125 72.90625 
L 38.28125 8.296875 
L 54.390625 8.296875 
L 54.390625 0 
L 12.40625 0 
z
" id="DejaVuSans-49"/>
      </defs>
      <g transform="translate(-334.519583 78.892077)scale(0.2 -0.2)">
       <use xlink:href="#DejaVuSans-48"/>
       <use x="63.623047" xlink:href="#DejaVuSans-46"/>
       <use x="95.410156" xlink:href="#DejaVuSans-49"/>
       <use x="159.033203" xlink:href="#DejaVuSans-48"/>
       <use x="222.65625" xlink:href="#DejaVuSans-48"/>
      </g>
     </g>
    </g>
    <g id="ytick_6">
     <g id="line2d_10">
      <g/>
     </g>
     <g id="text_11">
      <!-- 0.125 -->
      <g transform="translate(-334.519583 31.672395)scale(0.2 -0.2)">
       <use xlink:href="#DejaVuSans-48"/>
       <use x="63.623047" xlink:href="#DejaVuSans-46"/>
       <use x="95.410156" xlink:href="#DejaVuSans-49"/>
       <use x="159.033203" xlink:href="#DejaVuSans-50"/>
       <use x="222.65625" xlink:href="#DejaVuSans-53"/>
      </g>
     </g>
    </g>
    <g id="text_12">
     <!--   -->
     <g transform="translate(-342.179833 139.017453)rotate(-90)scale(0.176 -0.176)">
      <use xlink:href="#DejaVuSans-32"/>
     </g>
    </g>
   </g>
   <g id="patch_43">
    <path style="fill:none;stroke:#000000;stroke-linecap:square;stroke-linejoin:miter;stroke-width:0.8;"/>
   </g>
   <g id="patch_44">
    <path style="fill:none;stroke:#000000;stroke-linecap:square;stroke-linejoin:miter;stroke-width:0.8;"/>
   </g>
  </g>
  <g id="axes_2">
   <g id="patch_45">
    <path d="M 100.7 260.17237 
L 348.603333 260.17237 
L 348.603333 12.269036 
L 100.7 12.269036 
z
" style="fill:#ffffff;"/>
   </g>
   <g id="PolyCollection_1">
    <defs>
     <path d="M 208.407 -273.494422 
L 208.407 -273.736411 
L 209.630921 -273.745151 
L 210.854843 -273.753021 
L 212.078764 -273.762037 
L 213.302685 -273.774291 
L 214.526606 -273.791411 
L 215.750527 -273.814298 
L 216.974448 -273.843297 
L 218.198369 -273.878707 
L 219.42229 -273.921373 
L 220.646211 -273.972988 
L 221.870132 -274.035821 
L 223.094053 -274.111827 
L 224.317974 -274.2014 
L 225.541895 -274.30229 
L 226.765816 -274.409228 
L 227.989738 -274.51461 
L 229.213659 -274.610171 
L 230.43758 -274.689131 
L 231.661501 -274.748013 
L 232.885422 -274.787382 
L 234.109343 -274.81116 
L 235.333264 -274.824817 
L 236.557185 -274.833229 
L 237.781106 -274.839236 
L 239.005027 -274.843548 
L 240.228948 -274.846022 
L 241.452869 -274.847619 
L 242.67679 -274.85201 
L 243.900712 -274.865947 
L 245.124633 -274.898127 
L 246.348554 -274.95694 
L 247.572475 -275.047955 
L 248.796396 -275.172073 
L 250.020317 -275.325021 
L 251.244238 -275.498404 
L 252.468159 -275.682103 
L 253.69208 -275.867419 
L 254.916001 -276.050126 
L 256.139922 -276.232497 
L 257.363843 -276.423544 
L 258.587764 -276.637131 
L 259.811686 -276.888334 
L 261.035607 -277.189074 
L 262.259528 -277.544521 
L 263.483449 -277.951599 
L 264.70737 -278.400309 
L 265.931291 -278.87747 
L 267.155212 -279.37151 
L 268.379133 -279.876403 
L 269.603054 -280.393151 
L 270.826975 -280.928193 
L 272.050896 -281.489417 
L 273.274817 -282.081506 
L 274.498738 -282.702694 
L 275.72266 -283.344445 
L 276.946581 -283.994365 
L 278.170502 -284.641234 
L 279.394423 -285.280012 
L 280.618344 -285.914515 
L 281.842265 -286.556392 
L 283.066186 -287.220701 
L 284.290107 -287.920077 
L 285.514028 -288.660238 
L 286.737949 -289.438948 
L 287.96187 -290.248709 
L 289.185791 -291.081371 
L 290.409712 -291.931791 
L 291.633633 -292.798163 
L 292.857555 -293.678538 
L 294.081476 -294.565187 
L 295.305397 -295.43969 
L 296.529318 -296.271344 
L 297.753239 -297.019918 
L 298.97716 -297.641844 
L 300.201081 -298.097595 
L 301.425002 -298.35771 
L 302.648923 -298.40575 
L 303.872844 -298.23774 
L 305.096765 -297.858943 
L 306.320686 -297.279501 
L 307.544607 -296.51059 
L 308.768529 -295.562328 
L 309.99245 -294.444014 
L 311.216371 -293.166541 
L 312.440292 -291.746114 
L 313.664213 -290.207833 
L 314.888134 -288.587485 
L 316.112055 -286.930243 
L 317.335976 -285.286002 
L 318.559897 -283.702495 
L 319.783818 -282.218433 
L 321.007739 -280.859098 
L 322.23166 -279.635806 
L 323.455581 -278.548978 
L 324.679503 -277.593086 
L 325.903424 -276.761197 
L 327.127345 -276.047469 
L 328.351266 -275.447251 
L 329.575187 -274.955586 
L 329.575187 -272.275247 
L 329.575187 -272.275247 
L 328.351266 -271.783582 
L 327.127345 -271.183364 
L 325.903424 -270.469636 
L 324.679503 -269.637747 
L 323.455581 -268.681855 
L 322.23166 -267.595027 
L 321.007739 -266.371735 
L 319.783818 -265.012401 
L 318.559897 -263.528339 
L 317.335976 -261.944831 
L 316.112055 -260.30059 
L 314.888134 -258.643348 
L 313.664213 -257.023 
L 312.440292 -255.484719 
L 311.216371 -254.064292 
L 309.99245 -252.78682 
L 308.768529 -251.668505 
L 307.544607 -250.720243 
L 306.320686 -249.951332 
L 305.096765 -249.371891 
L 303.872844 -248.993094 
L 302.648923 -248.825083 
L 301.425002 -248.873123 
L 300.201081 -249.133239 
L 298.97716 -249.588989 
L 297.753239 -250.210915 
L 296.529318 -250.959489 
L 295.305397 -251.791144 
L 294.081476 -252.665646 
L 292.857555 -253.552295 
L 291.633633 -254.43267 
L 290.409712 -255.299042 
L 289.185791 -256.149463 
L 287.96187 -256.982125 
L 286.737949 -257.791885 
L 285.514028 -258.570596 
L 284.290107 -259.310756 
L 283.066186 -260.010133 
L 281.842265 -260.674442 
L 280.618344 -261.316318 
L 279.394423 -261.950821 
L 278.170502 -262.5896 
L 276.946581 -263.236469 
L 275.72266 -263.886388 
L 274.498738 -264.528139 
L 273.274817 -265.149327 
L 272.050896 -265.741416 
L 270.826975 -266.30264 
L 269.603054 -266.837683 
L 268.379133 -267.354431 
L 267.155212 -267.859323 
L 265.931291 -268.353363 
L 264.70737 -268.830525 
L 263.483449 -269.279234 
L 262.259528 -269.686312 
L 261.035607 -270.041759 
L 259.811686 -270.3425 
L 258.587764 -270.593702 
L 257.363843 -270.80729 
L 256.139922 -270.998336 
L 254.916001 -271.180708 
L 253.69208 -271.363414 
L 252.468159 -271.54873 
L 251.244238 -271.73243 
L 250.020317 -271.905813 
L 248.796396 -272.05876 
L 247.572475 -272.182878 
L 246.348554 -272.273893 
L 245.124633 -272.332707 
L 243.900712 -272.364887 
L 242.67679 -272.378823 
L 241.452869 -272.383214 
L 240.228948 -272.384812 
L 239.005027 -272.387285 
L 237.781106 -272.391597 
L 236.557185 -272.397604 
L 235.333264 -272.406017 
L 234.109343 -272.419673 
L 232.885422 -272.443452 
L 231.661501 -272.48282 
L 230.43758 -272.541702 
L 229.213659 -272.620662 
L 227.989738 -272.716223 
L 226.765816 -272.821605 
L 225.541895 -272.928543 
L 224.317974 -273.029433 
L 223.094053 -273.119006 
L 221.870132 -273.195012 
L 220.646211 -273.257846 
L 219.42229 -273.30946 
L 218.198369 -273.352126 
L 216.974448 -273.387536 
L 215.750527 -273.416535 
L 214.526606 -273.439423 
L 213.302685 -273.456542 
L 212.078764 -273.468796 
L 210.854843 -273.477812 
L 209.630921 -273.485682 
L 208.407 -273.494422 
z
" id="m53e34bd5bc" style="stroke:#575757;"/>
    </defs>
    <g clip-path="url(#p7fac34335d)">
     <use style="fill:#7c78ab;stroke:#575757;" x="0" xlink:href="#m53e34bd5bc" y="316.87237"/>
    </g>
   </g>
   <g id="PolyCollection_2">
    <defs>
     <path d="M 116.893827 -209.887509 
L 116.893827 -213.391657 
L 118.973841 -213.468126 
L 121.053855 -213.538116 
L 123.133868 -213.604638 
L 125.213882 -213.671584 
L 127.293896 -213.743507 
L 129.373909 -213.825327 
L 131.453923 -213.922002 
L 133.533937 -214.038185 
L 135.61395 -214.177898 
L 137.693964 -214.344246 
L 139.773978 -214.539203 
L 141.853991 -214.763479 
L 143.934005 -215.016494 
L 146.014019 -215.296438 
L 148.094032 -215.600437 
L 150.174046 -215.924784 
L 152.25406 -216.265242 
L 154.334073 -216.617363 
L 156.414087 -216.976822 
L 158.494101 -217.339711 
L 160.574114 -217.702794 
L 162.654128 -218.063673 
L 164.734142 -218.420876 
L 166.814155 -218.773849 
L 168.894169 -219.122855 
L 170.974183 -219.468805 
L 173.054196 -219.81302 
L 175.13421 -220.156972 
L 177.214224 -220.502007 
L 179.294237 -220.849101 
L 181.374251 -221.198644 
L 183.454265 -221.550292 
L 185.534278 -221.902886 
L 187.614292 -222.254454 
L 189.694306 -222.602276 
L 191.774319 -222.94303 
L 193.854333 -223.272991 
L 195.934347 -223.588276 
L 198.01436 -223.885119 
L 200.094374 -224.16016 
L 202.174387 -224.410732 
L 204.254401 -224.635122 
L 206.334415 -224.832793 
L 208.414428 -225.00455 
L 210.494442 -225.152638 
L 212.574456 -225.280753 
L 214.654469 -225.393983 
L 216.734483 -225.498646 
L 218.814497 -225.602076 
L 220.89451 -225.712328 
L 222.974524 -225.837851 
L 225.054538 -225.987134 
L 227.134551 -226.168343 
L 229.214565 -226.388966 
L 231.294579 -226.655481 
L 233.374592 -226.973055 
L 235.454606 -227.345265 
L 237.53462 -227.77387 
L 239.614633 -228.258605 
L 241.694647 -228.79704 
L 243.774661 -229.384481 
L 245.854674 -230.01396 
L 247.934688 -230.676302 
L 250.014702 -231.36031 
L 252.094715 -232.05306 
L 254.174729 -232.740322 
L 256.254743 -233.407086 
L 258.334756 -234.038169 
L 260.41477 -234.618875 
L 262.494784 -235.135644 
L 264.574797 -235.576649 
L 266.654811 -235.93228 
L 268.734825 -236.195486 
L 270.814838 -236.361922 
L 272.894852 -236.429917 
L 274.974866 -236.400246 
L 277.054879 -236.275764 
L 279.134893 -236.060913 
L 281.214907 -235.761184 
L 283.29492 -235.382574 
L 285.374934 -234.931102 
L 287.454948 -234.412415 
L 289.534961 -233.831536 
L 291.614975 -233.192743 
L 293.694989 -232.499597 
L 295.775002 -231.755094 
L 297.855016 -230.96191 
L 299.93503 -230.122712 
L 302.015043 -229.240488 
L 304.095057 -228.318854 
L 306.175071 -227.362322 
L 308.255084 -226.376472 
L 310.335098 -225.368042 
L 312.415112 -224.344896 
L 314.495125 -223.315896 
L 316.575139 -222.290673 
L 318.655153 -221.279316 
L 320.735166 -220.292011 
L 322.81518 -219.33865 
L 322.81518 -203.940517 
L 322.81518 -203.940517 
L 320.735166 -202.987156 
L 318.655153 -201.999851 
L 316.575139 -200.988494 
L 314.495125 -199.96327 
L 312.415112 -198.934271 
L 310.335098 -197.911125 
L 308.255084 -196.902695 
L 306.175071 -195.916845 
L 304.095057 -194.960313 
L 302.015043 -194.038679 
L 299.93503 -193.156454 
L 297.855016 -192.317257 
L 295.775002 -191.524073 
L 293.694989 -190.77957 
L 291.614975 -190.086424 
L 289.534961 -189.447631 
L 287.454948 -188.866752 
L 285.374934 -188.348065 
L 283.29492 -187.896592 
L 281.214907 -187.517982 
L 279.134893 -187.218253 
L 277.054879 -187.003402 
L 274.974866 -186.87892 
L 272.894852 -186.84925 
L 270.814838 -186.917244 
L 268.734825 -187.083681 
L 266.654811 -187.346887 
L 264.574797 -187.702518 
L 262.494784 -188.143522 
L 260.41477 -188.660291 
L 258.334756 -189.240998 
L 256.254743 -189.872081 
L 254.174729 -190.538845 
L 252.094715 -191.226107 
L 250.014702 -191.918857 
L 247.934688 -192.602865 
L 245.854674 -193.265207 
L 243.774661 -193.894686 
L 241.694647 -194.482127 
L 239.614633 -195.020562 
L 237.53462 -195.505297 
L 235.454606 -195.933901 
L 233.374592 -196.306112 
L 231.294579 -196.623685 
L 229.214565 -196.890201 
L 227.134551 -197.110823 
L 225.054538 -197.292032 
L 222.974524 -197.441316 
L 220.89451 -197.566839 
L 218.814497 -197.677091 
L 216.734483 -197.78052 
L 214.654469 -197.885184 
L 212.574456 -197.998413 
L 210.494442 -198.126529 
L 208.414428 -198.274616 
L 206.334415 -198.446373 
L 204.254401 -198.644044 
L 202.174387 -198.868435 
L 200.094374 -199.119007 
L 198.01436 -199.394048 
L 195.934347 -199.690891 
L 193.854333 -200.006175 
L 191.774319 -200.336137 
L 189.694306 -200.676891 
L 187.614292 -201.024713 
L 185.534278 -201.37628 
L 183.454265 -201.728875 
L 181.374251 -202.080522 
L 179.294237 -202.430065 
L 177.214224 -202.777159 
L 175.13421 -203.122195 
L 173.054196 -203.466146 
L 170.974183 -203.810361 
L 168.894169 -204.156311 
L 166.814155 -204.505318 
L 164.734142 -204.858291 
L 162.654128 -205.215494 
L 160.574114 -205.576373 
L 158.494101 -205.939455 
L 156.414087 -206.302345 
L 154.334073 -206.661803 
L 152.25406 -207.013925 
L 150.174046 -207.354382 
L 148.094032 -207.67873 
L 146.014019 -207.982728 
L 143.934005 -208.262673 
L 141.853991 -208.515688 
L 139.773978 -208.739964 
L 137.693964 -208.93492 
L 135.61395 -209.101268 
L 133.533937 -209.240982 
L 131.453923 -209.357165 
L 129.373909 -209.45384 
L 127.293896 -209.535659 
L 125.213882 -209.607582 
L 123.133868 -209.674529 
L 121.053855 -209.741051 
L 118.973841 -209.811041 
L 116.893827 -209.887509 
z
" id="m05be499128" style="stroke:#575757;"/>
    </defs>
    <g clip-path="url(#p7fac34335d)">
     <use style="fill:#7c78ab;stroke:#575757;" x="0" xlink:href="#m05be499128" y="316.87237"/>
    </g>
   </g>
   <g id="PolyCollection_3">
    <defs>
     <path d="M 141.239506 -131.758425 
L 141.239506 -167.569075 
L 142.657275 -168.457875 
L 144.075045 -169.306551 
L 145.492814 -170.107414 
L 146.910584 -170.853415 
L 148.328353 -171.538298 
L 149.746123 -172.156748 
L 151.163892 -172.704511 
L 152.581662 -173.178488 
L 153.999431 -173.5768 
L 155.417201 -173.898817 
L 156.83497 -174.14516 
L 158.25274 -174.31766 
L 159.670509 -174.419294 
L 161.088279 -174.454083 
L 162.506048 -174.426968 
L 163.923818 -174.343662 
L 165.341588 -174.210492 
L 166.759357 -174.034217 
L 168.177127 -173.82186 
L 169.594896 -173.580525 
L 171.012666 -173.317232 
L 172.430435 -173.038763 
L 173.848205 -172.751525 
L 175.265974 -172.461431 
L 176.683744 -172.173814 
L 178.101513 -171.893355 
L 179.519283 -171.624042 
L 180.937052 -171.369151 
L 182.354822 -171.131253 
L 183.772591 -170.91223 
L 185.190361 -170.713317 
L 186.60813 -170.535151 
L 188.0259 -170.37782 
L 189.443669 -170.240931 
L 190.861439 -170.123658 
L 192.279208 -170.024804 
L 193.696978 -169.942847 
L 195.114747 -169.875978 
L 196.532517 -169.822134 
L 197.950286 -169.779027 
L 199.368056 -169.744155 
L 200.785825 -169.714818 
L 202.203595 -169.688126 
L 203.621365 -169.661009 
L 205.039134 -169.630227 
L 206.456904 -169.592392 
L 207.874673 -169.543984 
L 209.292443 -169.481395 
L 210.710212 -169.400964 
L 212.127982 -169.299039 
L 213.545751 -169.172043 
L 214.963521 -169.016545 
L 216.38129 -168.829348 
L 217.79906 -168.60757 
L 219.216829 -168.348739 
L 220.634599 -168.050875 
L 222.052368 -167.71257 
L 223.470138 -167.333055 
L 224.887907 -166.912262 
L 226.305677 -166.450856 
L 227.723446 -165.950257 
L 229.141216 -165.412641 
L 230.558985 -164.840915 
L 231.976755 -164.238672 
L 233.394524 -163.610129 
L 234.812294 -162.960043 
L 236.230063 -162.293611 
L 237.647833 -161.616358 
L 239.065602 -160.934016 
L 240.483372 -160.2524 
L 241.901141 -159.577277 
L 243.318911 -158.914248 
L 244.736681 -158.268623 
L 246.15445 -157.645321 
L 247.57222 -157.048772 
L 248.989989 -156.482839 
L 250.407759 -155.950757 
L 251.825528 -155.455088 
L 253.243298 -154.997697 
L 254.661067 -154.579744 
L 256.078837 -154.201691 
L 257.496606 -153.863332 
L 258.914376 -153.563833 
L 260.332145 -153.301782 
L 261.749915 -153.075253 
L 263.167684 -152.881879 
L 264.585454 -152.718927 
L 266.003223 -152.583379 
L 267.420993 -152.472016 
L 268.838762 -152.381497 
L 270.256532 -152.308438 
L 271.674301 -152.249488 
L 273.092071 -152.201398 
L 274.50984 -152.161081 
L 275.92761 -152.125668 
L 277.345379 -152.092552 
L 278.763149 -152.059424 
L 280.180918 -152.024301 
L 281.598688 -151.98554 
L 281.598688 -147.34196 
L 281.598688 -147.34196 
L 280.180918 -147.303199 
L 278.763149 -147.268076 
L 277.345379 -147.234948 
L 275.92761 -147.201832 
L 274.50984 -147.166419 
L 273.092071 -147.126102 
L 271.674301 -147.078012 
L 270.256532 -147.019062 
L 268.838762 -146.946003 
L 267.420993 -146.855484 
L 266.003223 -146.744121 
L 264.585454 -146.608573 
L 263.167684 -146.445621 
L 261.749915 -146.252247 
L 260.332145 -146.025718 
L 258.914376 -145.763667 
L 257.496606 -145.464168 
L 256.078837 -145.125809 
L 254.661067 -144.747756 
L 253.243298 -144.329803 
L 251.825528 -143.872412 
L 250.407759 -143.376743 
L 248.989989 -142.844661 
L 247.57222 -142.278728 
L 246.15445 -141.682179 
L 244.736681 -141.058877 
L 243.318911 -140.413252 
L 241.901141 -139.750223 
L 240.483372 -139.0751 
L 239.065602 -138.393484 
L 237.647833 -137.711142 
L 236.230063 -137.033889 
L 234.812294 -136.367457 
L 233.394524 -135.717371 
L 231.976755 -135.088828 
L 230.558985 -134.486585 
L 229.141216 -133.914859 
L 227.723446 -133.377243 
L 226.305677 -132.876644 
L 224.887907 -132.415238 
L 223.470138 -131.994445 
L 222.052368 -131.61493 
L 220.634599 -131.276625 
L 219.216829 -130.978761 
L 217.79906 -130.71993 
L 216.38129 -130.498152 
L 214.963521 -130.310955 
L 213.545751 -130.155457 
L 212.127982 -130.028461 
L 210.710212 -129.926536 
L 209.292443 -129.846105 
L 207.874673 -129.783516 
L 206.456904 -129.735108 
L 205.039134 -129.697273 
L 203.621365 -129.666491 
L 202.203595 -129.639374 
L 200.785825 -129.612682 
L 199.368056 -129.583345 
L 197.950286 -129.548473 
L 196.532517 -129.505366 
L 195.114747 -129.451522 
L 193.696978 -129.384653 
L 192.279208 -129.302696 
L 190.861439 -129.203842 
L 189.443669 -129.086569 
L 188.0259 -128.94968 
L 186.60813 -128.792349 
L 185.190361 -128.614183 
L 183.772591 -128.41527 
L 182.354822 -128.196247 
L 180.937052 -127.958349 
L 179.519283 -127.703458 
L 178.101513 -127.434145 
L 176.683744 -127.153686 
L 175.265974 -126.866069 
L 173.848205 -126.575975 
L 172.430435 -126.288737 
L 171.012666 -126.010268 
L 169.594896 -125.746975 
L 168.177127 -125.50564 
L 166.759357 -125.293283 
L 165.341588 -125.117008 
L 163.923818 -124.983838 
L 162.506048 -124.900532 
L 161.088279 -124.873417 
L 159.670509 -124.908206 
L 158.25274 -125.00984 
L 156.83497 -125.18234 
L 155.417201 -125.428683 
L 153.999431 -125.7507 
L 152.581662 -126.149012 
L 151.163892 -126.622989 
L 149.746123 -127.170752 
L 148.328353 -127.789202 
L 146.910584 -128.474085 
L 145.492814 -129.220086 
L 144.075045 -130.020949 
L 142.657275 -130.869625 
L 141.239506 -131.758425 
z
" id="m18ec5db87e" style="stroke:#575757;"/>
    </defs>
    <g clip-path="url(#p7fac34335d)">
     <use style="fill:#7c78ab;stroke:#575757;" x="0" xlink:href="#m18ec5db87e" y="316.87237"/>
    </g>
   </g>
   <g id="PolyCollection_4">
    <defs>
     <path d="M 135.36714 -65.405711 
L 135.36714 -109.970122 
L 136.430779 -110.446228 
L 137.494418 -110.877239 
L 138.558057 -111.260684 
L 139.621696 -111.594422 
L 140.685335 -111.876656 
L 141.748974 -112.105951 
L 142.812613 -112.281248 
L 143.876253 -112.401865 
L 144.939892 -112.467504 
L 146.003531 -112.47825 
L 147.06717 -112.43456 
L 148.130809 -112.337256 
L 149.194448 -112.187513 
L 150.258087 -111.986838 
L 151.321726 -111.737051 
L 152.385366 -111.440264 
L 153.449005 -111.098852 
L 154.512644 -110.715433 
L 155.576283 -110.29283 
L 156.639922 -109.83405 
L 157.703561 -109.342251 
L 158.7672 -108.82071 
L 159.830839 -108.272797 
L 160.894479 -107.701941 
L 161.958118 -107.111603 
L 163.021757 -106.505247 
L 164.085396 -105.886314 
L 165.149035 -105.258196 
L 166.212674 -104.624208 
L 167.276313 -103.98757 
L 168.339952 -103.351385 
L 169.403592 -102.718614 
L 170.467231 -102.092066 
L 171.53087 -101.474377 
L 172.594509 -100.867999 
L 173.658148 -100.275188 
L 174.721787 -99.69799 
L 175.785426 -99.138242 
L 176.849065 -98.597558 
L 177.912705 -98.077331 
L 178.976344 -97.578728 
L 180.039983 -97.102694 
L 181.103622 -96.649955 
L 182.167261 -96.221019 
L 183.2309 -95.816187 
L 184.294539 -95.43556 
L 185.358178 -95.07905 
L 186.421818 -94.74639 
L 187.485457 -94.437152 
L 188.549096 -94.150757 
L 189.612735 -93.886495 
L 190.676374 -93.643537 
L 191.740013 -93.420959 
L 192.803652 -93.217752 
L 193.867291 -93.032845 
L 194.930931 -92.865122 
L 195.99457 -92.713436 
L 197.058209 -92.576629 
L 198.121848 -92.453545 
L 199.185487 -92.343046 
L 200.249126 -92.244024 
L 201.312765 -92.15541 
L 202.376404 -92.076189 
L 203.440043 -92.005403 
L 204.503683 -91.94216 
L 205.567322 -91.885636 
L 206.630961 -91.835076 
L 207.6946 -91.789801 
L 208.758239 -91.749198 
L 209.821878 -91.712724 
L 210.885517 -91.679896 
L 211.949156 -91.650292 
L 213.012796 -91.623539 
L 214.076435 -91.599307 
L 215.140074 -91.577305 
L 216.203713 -91.557266 
L 217.267352 -91.538947 
L 218.330991 -91.522116 
L 219.39463 -91.506547 
L 220.458269 -91.49201 
L 221.521909 -91.478271 
L 222.585548 -91.465084 
L 223.649187 -91.452186 
L 224.712826 -91.439299 
L 225.776465 -91.426126 
L 226.840104 -91.41235 
L 227.903743 -91.397639 
L 228.967382 -91.381647 
L 230.031022 -91.364015 
L 231.094661 -91.344382 
L 232.1583 -91.322383 
L 233.221939 -91.29766 
L 234.285578 -91.269866 
L 235.349217 -91.238673 
L 236.412856 -91.203776 
L 237.476495 -91.164903 
L 238.540135 -91.121818 
L 239.603774 -91.074328 
L 240.667413 -91.022288 
L 240.667413 -84.353546 
L 240.667413 -84.353546 
L 239.603774 -84.301505 
L 238.540135 -84.254015 
L 237.476495 -84.21093 
L 236.412856 -84.172058 
L 235.349217 -84.137161 
L 234.285578 -84.105967 
L 233.221939 -84.078173 
L 232.1583 -84.05345 
L 231.094661 -84.031451 
L 230.031022 -84.011818 
L 228.967382 -83.994187 
L 227.903743 -83.978194 
L 226.840104 -83.963483 
L 225.776465 -83.949707 
L 224.712826 -83.936534 
L 223.649187 -83.923647 
L 222.585548 -83.91075 
L 221.521909 -83.897562 
L 220.458269 -83.883824 
L 219.39463 -83.869287 
L 218.330991 -83.853717 
L 217.267352 -83.836886 
L 216.203713 -83.818567 
L 215.140074 -83.798529 
L 214.076435 -83.776526 
L 213.012796 -83.752294 
L 211.949156 -83.725541 
L 210.885517 -83.695937 
L 209.821878 -83.663109 
L 208.758239 -83.626635 
L 207.6946 -83.586032 
L 206.630961 -83.540757 
L 205.567322 -83.490198 
L 204.503683 -83.433673 
L 203.440043 -83.37043 
L 202.376404 -83.299644 
L 201.312765 -83.220423 
L 200.249126 -83.13181 
L 199.185487 -83.032787 
L 198.121848 -82.922288 
L 197.058209 -82.799204 
L 195.99457 -82.662397 
L 194.930931 -82.510711 
L 193.867291 -82.342988 
L 192.803652 -82.158081 
L 191.740013 -81.954874 
L 190.676374 -81.732296 
L 189.612735 -81.489339 
L 188.549096 -81.225076 
L 187.485457 -80.938682 
L 186.421818 -80.629443 
L 185.358178 -80.296784 
L 184.294539 -79.940273 
L 183.2309 -79.559646 
L 182.167261 -79.154814 
L 181.103622 -78.725878 
L 180.039983 -78.273139 
L 178.976344 -77.797106 
L 177.912705 -77.298503 
L 176.849065 -76.778275 
L 175.785426 -76.237591 
L 174.721787 -75.677843 
L 173.658148 -75.100646 
L 172.594509 -74.507834 
L 171.53087 -73.901456 
L 170.467231 -73.283768 
L 169.403592 -72.65722 
L 168.339952 -72.024449 
L 167.276313 -71.388263 
L 166.212674 -70.751626 
L 165.149035 -70.117638 
L 164.085396 -69.489519 
L 163.021757 -68.870587 
L 161.958118 -68.264231 
L 160.894479 -67.673892 
L 159.830839 -67.103036 
L 158.7672 -66.555123 
L 157.703561 -66.033583 
L 156.639922 -65.541783 
L 155.576283 -65.083004 
L 154.512644 -64.660401 
L 153.449005 -64.276981 
L 152.385366 -63.93557 
L 151.321726 -63.638782 
L 150.258087 -63.388995 
L 149.194448 -63.18832 
L 148.130809 -63.038577 
L 147.06717 -62.941274 
L 146.003531 -62.897583 
L 144.939892 -62.908329 
L 143.876253 -62.973969 
L 142.812613 -63.094585 
L 141.748974 -63.269882 
L 140.685335 -63.499178 
L 139.621696 -63.781411 
L 138.558057 -64.115149 
L 137.494418 -64.498595 
L 136.430779 -64.929605 
L 135.36714 -65.405711 
z
" id="mb0c376108e" style="stroke:#575757;"/>
    </defs>
    <g clip-path="url(#p7fac34335d)">
     <use style="fill:#7c78ab;stroke:#575757;" x="0" xlink:href="#mb0c376108e" y="316.87237"/>
    </g>
   </g>
   <g id="patch_46">
    <path clip-path="url(#p7fac34335d)" d="M 117.226889 43.256953 
L 117.226889 43.256953 
L 117.226889 43.256953 
L 117.226889 43.256953 
z
" style="fill:#7c78ab;stroke:#575757;stroke-linejoin:miter;stroke-width:0.5;"/>
   </g>
   <g id="matplotlib.axis_3">
    <g id="xtick_5">
     <g id="line2d_11">
      <g>
       <use style="stroke:#000000;stroke-width:1.6;" x="117.226889" xlink:href="#m8dfe3c74dc" y="260.17237"/>
      </g>
     </g>
     <g id="text_13">
      <!-- 0.0 -->
      <g transform="translate(101.323764 290.069245)scale(0.2 -0.2)">
       <use xlink:href="#DejaVuSans-48"/>
       <use x="63.623047" xlink:href="#DejaVuSans-46"/>
       <use x="95.410156" xlink:href="#DejaVuSans-48"/>
      </g>
     </g>
    </g>
    <g id="xtick_6">
     <g id="line2d_12">
      <g>
       <use style="stroke:#000000;stroke-width:1.6;" x="183.334444" xlink:href="#m8dfe3c74dc" y="260.17237"/>
      </g>
     </g>
     <g id="text_14">
      <!-- 0.2 -->
      <g transform="translate(167.431319 290.069245)scale(0.2 -0.2)">
       <use xlink:href="#DejaVuSans-48"/>
       <use x="63.623047" xlink:href="#DejaVuSans-46"/>
       <use x="95.410156" xlink:href="#DejaVuSans-50"/>
      </g>
     </g>
    </g>
    <g id="xtick_7">
     <g id="line2d_13">
      <g>
       <use style="stroke:#000000;stroke-width:1.6;" x="249.442" xlink:href="#m8dfe3c74dc" y="260.17237"/>
      </g>
     </g>
     <g id="text_15">
      <!-- 0.4 -->
      <g transform="translate(233.538875 290.069245)scale(0.2 -0.2)">
       <use xlink:href="#DejaVuSans-48"/>
       <use x="63.623047" xlink:href="#DejaVuSans-46"/>
       <use x="95.410156" xlink:href="#DejaVuSans-52"/>
      </g>
     </g>
    </g>
    <g id="xtick_8">
     <g id="line2d_14">
      <g>
       <use style="stroke:#000000;stroke-width:1.6;" x="315.549556" xlink:href="#m8dfe3c74dc" y="260.17237"/>
      </g>
     </g>
     <g id="text_16">
      <!-- 0.6 -->
      <g transform="translate(299.646431 290.069245)scale(0.2 -0.2)">
       <use xlink:href="#DejaVuSans-48"/>
       <use x="63.623047" xlink:href="#DejaVuSans-46"/>
       <use x="95.410156" xlink:href="#DejaVuSans-54"/>
      </g>
     </g>
    </g>
    <g id="text_17">
     <!-- Max Attention -->
     <defs>
      <path d="M 9.8125 72.90625 
L 24.515625 72.90625 
L 43.109375 23.296875 
L 61.8125 72.90625 
L 76.515625 72.90625 
L 76.515625 0 
L 66.890625 0 
L 66.890625 64.015625 
L 48.09375 14.015625 
L 38.1875 14.015625 
L 19.390625 64.015625 
L 19.390625 0 
L 9.8125 0 
z
" id="DejaVuSans-77"/>
      <path d="M 34.28125 27.484375 
Q 23.390625 27.484375 19.1875 25 
Q 14.984375 22.515625 14.984375 16.5 
Q 14.984375 11.71875 18.140625 8.90625 
Q 21.296875 6.109375 26.703125 6.109375 
Q 34.1875 6.109375 38.703125 11.40625 
Q 43.21875 16.703125 43.21875 25.484375 
L 43.21875 27.484375 
z
M 52.203125 31.203125 
L 52.203125 0 
L 43.21875 0 
L 43.21875 8.296875 
Q 40.140625 3.328125 35.546875 0.953125 
Q 30.953125 -1.421875 24.3125 -1.421875 
Q 15.921875 -1.421875 10.953125 3.296875 
Q 6 8.015625 6 15.921875 
Q 6 25.140625 12.171875 29.828125 
Q 18.359375 34.515625 30.609375 34.515625 
L 43.21875 34.515625 
L 43.21875 35.40625 
Q 43.21875 41.609375 39.140625 45 
Q 35.0625 48.390625 27.6875 48.390625 
Q 23 48.390625 18.546875 47.265625 
Q 14.109375 46.140625 10.015625 43.890625 
L 10.015625 52.203125 
Q 14.9375 54.109375 19.578125 55.046875 
Q 24.21875 56 28.609375 56 
Q 40.484375 56 46.34375 49.84375 
Q 52.203125 43.703125 52.203125 31.203125 
z
" id="DejaVuSans-97"/>
      <path d="M 54.890625 54.6875 
L 35.109375 28.078125 
L 55.90625 0 
L 45.3125 0 
L 29.390625 21.484375 
L 13.484375 0 
L 2.875 0 
L 24.125 28.609375 
L 4.6875 54.6875 
L 15.28125 54.6875 
L 29.78125 35.203125 
L 44.28125 54.6875 
z
" id="DejaVuSans-120"/>
      <path d="M 34.1875 63.1875 
L 20.796875 26.90625 
L 47.609375 26.90625 
z
M 28.609375 72.90625 
L 39.796875 72.90625 
L 67.578125 0 
L 57.328125 0 
L 50.6875 18.703125 
L 17.828125 18.703125 
L 11.1875 0 
L 0.78125 0 
z
" id="DejaVuSans-65"/>
      <path d="M 18.3125 70.21875 
L 18.3125 54.6875 
L 36.8125 54.6875 
L 36.8125 47.703125 
L 18.3125 47.703125 
L 18.3125 18.015625 
Q 18.3125 11.328125 20.140625 9.421875 
Q 21.96875 7.515625 27.59375 7.515625 
L 36.8125 7.515625 
L 36.8125 0 
L 27.59375 0 
Q 17.1875 0 13.234375 3.875 
Q 9.28125 7.765625 9.28125 18.015625 
L 9.28125 47.703125 
L 2.6875 47.703125 
L 2.6875 54.6875 
L 9.28125 54.6875 
L 9.28125 70.21875 
z
" id="DejaVuSans-116"/>
      <path d="M 56.203125 29.59375 
L 56.203125 25.203125 
L 14.890625 25.203125 
Q 15.484375 15.921875 20.484375 11.0625 
Q 25.484375 6.203125 34.421875 6.203125 
Q 39.59375 6.203125 44.453125 7.46875 
Q 49.3125 8.734375 54.109375 11.28125 
L 54.109375 2.78125 
Q 49.265625 0.734375 44.1875 -0.34375 
Q 39.109375 -1.421875 33.890625 -1.421875 
Q 20.796875 -1.421875 13.15625 6.1875 
Q 5.515625 13.8125 5.515625 26.8125 
Q 5.515625 40.234375 12.765625 48.109375 
Q 20.015625 56 32.328125 56 
Q 43.359375 56 49.78125 48.890625 
Q 56.203125 41.796875 56.203125 29.59375 
z
M 47.21875 32.234375 
Q 47.125 39.59375 43.09375 43.984375 
Q 39.0625 48.390625 32.421875 48.390625 
Q 24.90625 48.390625 20.390625 44.140625 
Q 15.875 39.890625 15.1875 32.171875 
z
" id="DejaVuSans-101"/>
      <path d="M 54.890625 33.015625 
L 54.890625 0 
L 45.90625 0 
L 45.90625 32.71875 
Q 45.90625 40.484375 42.875 44.328125 
Q 39.84375 48.1875 33.796875 48.1875 
Q 26.515625 48.1875 22.3125 43.546875 
Q 18.109375 38.921875 18.109375 30.90625 
L 18.109375 0 
L 9.078125 0 
L 9.078125 54.6875 
L 18.109375 54.6875 
L 18.109375 46.1875 
Q 21.34375 51.125 25.703125 53.5625 
Q 30.078125 56 35.796875 56 
Q 45.21875 56 50.046875 50.171875 
Q 54.890625 44.34375 54.890625 33.015625 
z
" id="DejaVuSans-110"/>
      <path d="M 9.421875 54.6875 
L 18.40625 54.6875 
L 18.40625 0 
L 9.421875 0 
z
M 9.421875 75.984375 
L 18.40625 75.984375 
L 18.40625 64.59375 
L 9.421875 64.59375 
z
" id="DejaVuSans-105"/>
      <path d="M 30.609375 48.390625 
Q 23.390625 48.390625 19.1875 42.75 
Q 14.984375 37.109375 14.984375 27.296875 
Q 14.984375 17.484375 19.15625 11.84375 
Q 23.34375 6.203125 30.609375 6.203125 
Q 37.796875 6.203125 41.984375 11.859375 
Q 46.1875 17.53125 46.1875 27.296875 
Q 46.1875 37.015625 41.984375 42.703125 
Q 37.796875 48.390625 30.609375 48.390625 
z
M 30.609375 56 
Q 42.328125 56 49.015625 48.375 
Q 55.71875 40.765625 55.71875 27.296875 
Q 55.71875 13.875 49.015625 6.21875 
Q 42.328125 -1.421875 30.609375 -1.421875 
Q 18.84375 -1.421875 12.171875 6.21875 
Q 5.515625 13.875 5.515625 27.296875 
Q 5.515625 40.765625 12.171875 48.375 
Q 18.84375 56 30.609375 56 
z
" id="DejaVuSans-111"/>
     </defs>
     <g transform="translate(154.473542 313.425495)scale(0.2 -0.2)">
      <use xlink:href="#DejaVuSans-77"/>
      <use x="86.279297" xlink:href="#DejaVuSans-97"/>
      <use x="147.558594" xlink:href="#DejaVuSans-120"/>
      <use x="206.738281" xlink:href="#DejaVuSans-32"/>
      <use x="238.525391" xlink:href="#DejaVuSans-65"/>
      <use x="306.917969" xlink:href="#DejaVuSans-116"/>
      <use x="346.126953" xlink:href="#DejaVuSans-116"/>
      <use x="385.335938" xlink:href="#DejaVuSans-101"/>
      <use x="446.859375" xlink:href="#DejaVuSans-110"/>
      <use x="510.238281" xlink:href="#DejaVuSans-116"/>
      <use x="549.447266" xlink:href="#DejaVuSans-105"/>
      <use x="577.230469" xlink:href="#DejaVuSans-111"/>
      <use x="638.412109" xlink:href="#DejaVuSans-110"/>
     </g>
    </g>
   </g>
   <g id="matplotlib.axis_4">
    <g id="ytick_7">
     <g id="line2d_15">
      <g>
       <use style="stroke:#000000;stroke-width:1.6;" x="100.7" xlink:href="#md8021b1ce1" y="43.256953"/>
      </g>
     </g>
     <g id="text_18">
      <!-- [0.00, -->
      <defs>
       <path d="M 8.59375 75.984375 
L 29.296875 75.984375 
L 29.296875 69 
L 17.578125 69 
L 17.578125 -6.203125 
L 29.296875 -6.203125 
L 29.296875 -13.1875 
L 8.59375 -13.1875 
z
" id="DejaVuSans-91"/>
       <path d="M 11.71875 12.40625 
L 22.015625 12.40625 
L 22.015625 4 
L 14.015625 -11.625 
L 7.71875 -11.625 
L 11.71875 4 
z
" id="DejaVuSans-44"/>
      </defs>
      <g transform="translate(27.309375 39.657578)scale(0.2 -0.2)">
       <use xlink:href="#DejaVuSans-91"/>
       <use x="39.013672" xlink:href="#DejaVuSans-48"/>
       <use x="102.636719" xlink:href="#DejaVuSans-46"/>
       <use x="134.423828" xlink:href="#DejaVuSans-48"/>
       <use x="198.046875" xlink:href="#DejaVuSans-48"/>
       <use x="261.669922" xlink:href="#DejaVuSans-44"/>
      </g>
      <!-- 0.25) -->
      <defs>
       <path d="M 8.015625 75.875 
L 15.828125 75.875 
Q 23.140625 64.359375 26.78125 53.3125 
Q 30.421875 42.28125 30.421875 31.390625 
Q 30.421875 20.453125 26.78125 9.375 
Q 23.140625 -1.703125 15.828125 -13.1875 
L 8.015625 -13.1875 
Q 14.5 -2 17.703125 9.0625 
Q 20.90625 20.125 20.90625 31.390625 
Q 20.90625 42.671875 17.703125 53.65625 
Q 14.5 64.65625 8.015625 75.875 
z
" id="DejaVuSans-41"/>
      </defs>
      <g transform="translate(33.665625 62.053203)scale(0.2 -0.2)">
       <use xlink:href="#DejaVuSans-48"/>
       <use x="63.623047" xlink:href="#DejaVuSans-46"/>
       <use x="95.410156" xlink:href="#DejaVuSans-50"/>
       <use x="159.033203" xlink:href="#DejaVuSans-53"/>
       <use x="222.65625" xlink:href="#DejaVuSans-41"/>
      </g>
     </g>
    </g>
    <g id="ytick_8">
     <g id="line2d_16">
      <g>
       <use style="stroke:#000000;stroke-width:1.6;" x="100.7" xlink:href="#md8021b1ce1" y="105.232786"/>
      </g>
     </g>
     <g id="text_19">
      <!-- [0.25, -->
      <g transform="translate(27.309375 101.633411)scale(0.2 -0.2)">
       <use xlink:href="#DejaVuSans-91"/>
       <use x="39.013672" xlink:href="#DejaVuSans-48"/>
       <use x="102.636719" xlink:href="#DejaVuSans-46"/>
       <use x="134.423828" xlink:href="#DejaVuSans-50"/>
       <use x="198.046875" xlink:href="#DejaVuSans-53"/>
       <use x="261.669922" xlink:href="#DejaVuSans-44"/>
      </g>
      <!-- 0.50) -->
      <g transform="translate(33.665625 124.029036)scale(0.2 -0.2)">
       <use xlink:href="#DejaVuSans-48"/>
       <use x="63.623047" xlink:href="#DejaVuSans-46"/>
       <use x="95.410156" xlink:href="#DejaVuSans-53"/>
       <use x="159.033203" xlink:href="#DejaVuSans-48"/>
       <use x="222.65625" xlink:href="#DejaVuSans-41"/>
      </g>
     </g>
    </g>
    <g id="ytick_9">
     <g id="line2d_17">
      <g>
       <use style="stroke:#000000;stroke-width:1.6;" x="100.7" xlink:href="#md8021b1ce1" y="167.20862"/>
      </g>
     </g>
     <g id="text_20">
      <!-- [0.50, -->
      <g transform="translate(27.309375 163.609245)scale(0.2 -0.2)">
       <use xlink:href="#DejaVuSans-91"/>
       <use x="39.013672" xlink:href="#DejaVuSans-48"/>
       <use x="102.636719" xlink:href="#DejaVuSans-46"/>
       <use x="134.423828" xlink:href="#DejaVuSans-53"/>
       <use x="198.046875" xlink:href="#DejaVuSans-48"/>
       <use x="261.669922" xlink:href="#DejaVuSans-44"/>
      </g>
      <!-- 0.75) -->
      <g transform="translate(33.665625 186.00487)scale(0.2 -0.2)">
       <use xlink:href="#DejaVuSans-48"/>
       <use x="63.623047" xlink:href="#DejaVuSans-46"/>
       <use x="95.410156" xlink:href="#DejaVuSans-55"/>
       <use x="159.033203" xlink:href="#DejaVuSans-53"/>
       <use x="222.65625" xlink:href="#DejaVuSans-41"/>
      </g>
     </g>
    </g>
    <g id="ytick_10">
     <g id="line2d_18">
      <g>
       <use style="stroke:#000000;stroke-width:1.6;" x="100.7" xlink:href="#md8021b1ce1" y="229.184453"/>
      </g>
     </g>
     <g id="text_21">
      <!-- [0.75, -->
      <g transform="translate(27.309375 225.585078)scale(0.2 -0.2)">
       <use xlink:href="#DejaVuSans-91"/>
       <use x="39.013672" xlink:href="#DejaVuSans-48"/>
       <use x="102.636719" xlink:href="#DejaVuSans-46"/>
       <use x="134.423828" xlink:href="#DejaVuSans-55"/>
       <use x="198.046875" xlink:href="#DejaVuSans-53"/>
       <use x="261.669922" xlink:href="#DejaVuSans-44"/>
      </g>
      <!-- 1.00) -->
      <g transform="translate(33.665625 247.980703)scale(0.2 -0.2)">
       <use xlink:href="#DejaVuSans-49"/>
       <use x="63.623047" xlink:href="#DejaVuSans-46"/>
       <use x="95.410156" xlink:href="#DejaVuSans-48"/>
       <use x="159.033203" xlink:href="#DejaVuSans-48"/>
       <use x="222.65625" xlink:href="#DejaVuSans-41"/>
      </g>
     </g>
    </g>
    <g id="text_22">
     <!-- Max JS Divergence within $\epsilon$ -->
     <defs>
      <path d="M 9.8125 72.90625 
L 19.671875 72.90625 
L 19.671875 5.078125 
Q 19.671875 -8.109375 14.671875 -14.0625 
Q 9.671875 -20.015625 -1.421875 -20.015625 
L -5.171875 -20.015625 
L -5.171875 -11.71875 
L -2.09375 -11.71875 
Q 4.4375 -11.71875 7.125 -8.046875 
Q 9.8125 -4.390625 9.8125 5.078125 
z
" id="DejaVuSans-74"/>
      <path d="M 53.515625 70.515625 
L 53.515625 60.890625 
Q 47.90625 63.578125 42.921875 64.890625 
Q 37.9375 66.21875 33.296875 66.21875 
Q 25.25 66.21875 20.875 63.09375 
Q 16.5 59.96875 16.5 54.203125 
Q 16.5 49.359375 19.40625 46.890625 
Q 22.3125 44.4375 30.421875 42.921875 
L 36.375 41.703125 
Q 47.40625 39.59375 52.65625 34.296875 
Q 57.90625 29 57.90625 20.125 
Q 57.90625 9.515625 50.796875 4.046875 
Q 43.703125 -1.421875 29.984375 -1.421875 
Q 24.8125 -1.421875 18.96875 -0.25 
Q 13.140625 0.921875 6.890625 3.21875 
L 6.890625 13.375 
Q 12.890625 10.015625 18.65625 8.296875 
Q 24.421875 6.59375 29.984375 6.59375 
Q 38.421875 6.59375 43.015625 9.90625 
Q 47.609375 13.234375 47.609375 19.390625 
Q 47.609375 24.75 44.3125 27.78125 
Q 41.015625 30.8125 33.5 32.328125 
L 27.484375 33.5 
Q 16.453125 35.6875 11.515625 40.375 
Q 6.59375 45.0625 6.59375 53.421875 
Q 6.59375 63.09375 13.40625 68.65625 
Q 20.21875 74.21875 32.171875 74.21875 
Q 37.3125 74.21875 42.625 73.28125 
Q 47.953125 72.359375 53.515625 70.515625 
z
" id="DejaVuSans-83"/>
      <path d="M 19.671875 64.796875 
L 19.671875 8.109375 
L 31.59375 8.109375 
Q 46.6875 8.109375 53.6875 14.9375 
Q 60.6875 21.78125 60.6875 36.53125 
Q 60.6875 51.171875 53.6875 57.984375 
Q 46.6875 64.796875 31.59375 64.796875 
z
M 9.8125 72.90625 
L 30.078125 72.90625 
Q 51.265625 72.90625 61.171875 64.09375 
Q 71.09375 55.28125 71.09375 36.53125 
Q 71.09375 17.671875 61.125 8.828125 
Q 51.171875 0 30.078125 0 
L 9.8125 0 
z
" id="DejaVuSans-68"/>
      <path d="M 2.984375 54.6875 
L 12.5 54.6875 
L 29.59375 8.796875 
L 46.6875 54.6875 
L 56.203125 54.6875 
L 35.6875 0 
L 23.484375 0 
z
" id="DejaVuSans-118"/>
      <path d="M 41.109375 46.296875 
Q 39.59375 47.171875 37.8125 47.578125 
Q 36.03125 48 33.890625 48 
Q 26.265625 48 22.1875 43.046875 
Q 18.109375 38.09375 18.109375 28.8125 
L 18.109375 0 
L 9.078125 0 
L 9.078125 54.6875 
L 18.109375 54.6875 
L 18.109375 46.1875 
Q 20.953125 51.171875 25.484375 53.578125 
Q 30.03125 56 36.53125 56 
Q 37.453125 56 38.578125 55.875 
Q 39.703125 55.765625 41.0625 55.515625 
z
" id="DejaVuSans-114"/>
      <path d="M 45.40625 27.984375 
Q 45.40625 37.75 41.375 43.109375 
Q 37.359375 48.484375 30.078125 48.484375 
Q 22.859375 48.484375 18.828125 43.109375 
Q 14.796875 37.75 14.796875 27.984375 
Q 14.796875 18.265625 18.828125 12.890625 
Q 22.859375 7.515625 30.078125 7.515625 
Q 37.359375 7.515625 41.375 12.890625 
Q 45.40625 18.265625 45.40625 27.984375 
z
M 54.390625 6.78125 
Q 54.390625 -7.171875 48.1875 -13.984375 
Q 42 -20.796875 29.203125 -20.796875 
Q 24.46875 -20.796875 20.265625 -20.09375 
Q 16.0625 -19.390625 12.109375 -17.921875 
L 12.109375 -9.1875 
Q 16.0625 -11.328125 19.921875 -12.34375 
Q 23.78125 -13.375 27.78125 -13.375 
Q 36.625 -13.375 41.015625 -8.765625 
Q 45.40625 -4.15625 45.40625 5.171875 
L 45.40625 9.625 
Q 42.625 4.78125 38.28125 2.390625 
Q 33.9375 0 27.875 0 
Q 17.828125 0 11.671875 7.65625 
Q 5.515625 15.328125 5.515625 27.984375 
Q 5.515625 40.671875 11.671875 48.328125 
Q 17.828125 56 27.875 56 
Q 33.9375 56 38.28125 53.609375 
Q 42.625 51.21875 45.40625 46.390625 
L 45.40625 54.6875 
L 54.390625 54.6875 
z
" id="DejaVuSans-103"/>
      <path d="M 48.78125 52.59375 
L 48.78125 44.1875 
Q 44.96875 46.296875 41.140625 47.34375 
Q 37.3125 48.390625 33.40625 48.390625 
Q 24.65625 48.390625 19.8125 42.84375 
Q 14.984375 37.3125 14.984375 27.296875 
Q 14.984375 17.28125 19.8125 11.734375 
Q 24.65625 6.203125 33.40625 6.203125 
Q 37.3125 6.203125 41.140625 7.25 
Q 44.96875 8.296875 48.78125 10.40625 
L 48.78125 2.09375 
Q 45.015625 0.34375 40.984375 -0.53125 
Q 36.96875 -1.421875 32.421875 -1.421875 
Q 20.0625 -1.421875 12.78125 6.34375 
Q 5.515625 14.109375 5.515625 27.296875 
Q 5.515625 40.671875 12.859375 48.328125 
Q 20.21875 56 33.015625 56 
Q 37.15625 56 41.109375 55.140625 
Q 45.0625 54.296875 48.78125 52.59375 
z
" id="DejaVuSans-99"/>
      <path d="M 4.203125 54.6875 
L 13.1875 54.6875 
L 24.421875 12.015625 
L 35.59375 54.6875 
L 46.1875 54.6875 
L 57.421875 12.015625 
L 68.609375 54.6875 
L 77.59375 54.6875 
L 63.28125 0 
L 52.6875 0 
L 40.921875 44.828125 
L 29.109375 0 
L 18.5 0 
z
" id="DejaVuSans-119"/>
      <path d="M 54.890625 33.015625 
L 54.890625 0 
L 45.90625 0 
L 45.90625 32.71875 
Q 45.90625 40.484375 42.875 44.328125 
Q 39.84375 48.1875 33.796875 48.1875 
Q 26.515625 48.1875 22.3125 43.546875 
Q 18.109375 38.921875 18.109375 30.90625 
L 18.109375 0 
L 9.078125 0 
L 9.078125 75.984375 
L 18.109375 75.984375 
L 18.109375 46.1875 
Q 21.34375 51.125 25.703125 53.5625 
Q 30.078125 56 35.796875 56 
Q 45.21875 56 50.046875 50.171875 
Q 54.890625 44.34375 54.890625 33.015625 
z
" id="DejaVuSans-104"/>
      <path d="M 19.734375 29.5 
Q 14.453125 30.671875 12.15625 33.84375 
Q 10.453125 36.078125 10.453125 39.109375 
Q 10.453125 47.40625 18.359375 52.25 
Q 24.609375 56.0625 34.1875 56.0625 
Q 37.890625 56.0625 41.9375 55.46875 
Q 46 54.890625 50.53125 53.71875 
L 48.96875 45.5625 
Q 44.484375 46.96875 40.71875 47.609375 
Q 36.859375 48.25 33.40625 48.25 
Q 27.59375 48.25 23.78125 46 
Q 19.1875 43.3125 19.1875 39.40625 
Q 19.1875 36.8125 21.578125 35.015625 
Q 24.421875 32.859375 30.078125 32.859375 
L 37.640625 32.859375 
L 36.234375 25.4375 
L 29 25.4375 
Q 22.265625 25.4375 18.3125 22.953125 
Q 12.9375 19.578125 12.9375 14.3125 
Q 12.9375 10.984375 15.828125 8.796875 
Q 19.4375 6.0625 26.8125 6.0625 
Q 31.34375 6.0625 35.6875 6.9375 
Q 40.046875 7.859375 43.84375 9.671875 
L 42.1875 1.3125 
Q 37.546875 -0.046875 33.296875 -0.734375 
Q 29.046875 -1.421875 25.140625 -1.421875 
Q 13.53125 -1.421875 8.0625 3.03125 
Q 3.90625 6.453125 3.90625 12.203125 
Q 3.90625 19.96875 9.375 24.75 
Q 13.421875 28.328125 19.734375 29.5 
z
" id="DejaVuSans-Oblique-949"/>
     </defs>
     <g transform="translate(19.109375 271.820703)rotate(-90)scale(0.2 -0.2)">
      <use transform="translate(0 0.015625)" xlink:href="#DejaVuSans-77"/>
      <use transform="translate(86.279297 0.015625)" xlink:href="#DejaVuSans-97"/>
      <use transform="translate(147.558594 0.015625)" xlink:href="#DejaVuSans-120"/>
      <use transform="translate(206.738281 0.015625)" xlink:href="#DejaVuSans-32"/>
      <use transform="translate(238.525391 0.015625)" xlink:href="#DejaVuSans-74"/>
      <use transform="translate(268.017578 0.015625)" xlink:href="#DejaVuSans-83"/>
      <use transform="translate(331.494141 0.015625)" xlink:href="#DejaVuSans-32"/>
      <use transform="translate(363.28125 0.015625)" xlink:href="#DejaVuSans-68"/>
      <use transform="translate(440.283203 0.015625)" xlink:href="#DejaVuSans-105"/>
      <use transform="translate(468.066406 0.015625)" xlink:href="#DejaVuSans-118"/>
      <use transform="translate(527.246094 0.015625)" xlink:href="#DejaVuSans-101"/>
      <use transform="translate(588.769531 0.015625)" xlink:href="#DejaVuSans-114"/>
      <use transform="translate(629.882812 0.015625)" xlink:href="#DejaVuSans-103"/>
      <use transform="translate(693.359375 0.015625)" xlink:href="#DejaVuSans-101"/>
      <use transform="translate(754.882812 0.015625)" xlink:href="#DejaVuSans-110"/>
      <use transform="translate(818.261719 0.015625)" xlink:href="#DejaVuSans-99"/>
      <use transform="translate(873.242188 0.015625)" xlink:href="#DejaVuSans-101"/>
      <use transform="translate(934.765625 0.015625)" xlink:href="#DejaVuSans-32"/>
      <use transform="translate(966.552734 0.015625)" xlink:href="#DejaVuSans-119"/>
      <use transform="translate(1048.339844 0.015625)" xlink:href="#DejaVuSans-105"/>
      <use transform="translate(1076.123047 0.015625)" xlink:href="#DejaVuSans-116"/>
      <use transform="translate(1115.332031 0.015625)" xlink:href="#DejaVuSans-104"/>
      <use transform="translate(1178.710938 0.015625)" xlink:href="#DejaVuSans-105"/>
      <use transform="translate(1206.494141 0.015625)" xlink:href="#DejaVuSans-110"/>
      <use transform="translate(1269.873047 0.015625)" xlink:href="#DejaVuSans-32"/>
      <use transform="translate(1301.660156 0.015625)" xlink:href="#DejaVuSans-Oblique-949"/>
     </g>
    </g>
   </g>
   <g id="line2d_19">
    <path clip-path="url(#p7fac34335d)" d="M 283.958729 29.095339 
L 283.958729 57.418567 
" style="fill:none;stroke:#575757;stroke-dasharray:1.5,1.5;stroke-dashoffset:0;"/>
   </g>
   <g id="line2d_20">
    <path clip-path="url(#p7fac34335d)" d="M 297.542392 20.086497 
L 297.542392 66.42741 
" style="fill:none;stroke:#575757;stroke-dasharray:3,3;stroke-dashoffset:0;"/>
   </g>
   <g id="line2d_21">
    <path clip-path="url(#p7fac34335d)" d="M 307.002188 20.590731 
L 307.002188 65.923175 
" style="fill:none;stroke:#575757;stroke-dasharray:1.5,1.5;stroke-dashoffset:0;"/>
   </g>
   <g id="line2d_22">
    <path clip-path="url(#p7fac34335d)" d="M 212.612924 91.728028 
L 212.612924 118.737545 
" style="fill:none;stroke:#575757;stroke-dasharray:1.5,1.5;stroke-dashoffset:0;"/>
   </g>
   <g id="line2d_23">
    <path clip-path="url(#p7fac34335d)" d="M 259.967885 82.483287 
L 259.967885 127.982286 
" style="fill:none;stroke:#575757;stroke-dasharray:3,3;stroke-dashoffset:0;"/>
   </g>
   <g id="line2d_24">
    <path clip-path="url(#p7fac34335d)" d="M 282.838324 81.727225 
L 282.838324 128.738348 
" style="fill:none;stroke:#575757;stroke-dasharray:1.5,1.5;stroke-dashoffset:0;"/>
   </g>
   <g id="line2d_25">
    <path clip-path="url(#p7fac34335d)" d="M 157.899505 142.801249 
L 157.899505 191.615991 
" style="fill:none;stroke:#575757;stroke-dasharray:1.5,1.5;stroke-dashoffset:0;"/>
   </g>
   <g id="line2d_26">
    <path clip-path="url(#p7fac34335d)" d="M 188.219321 146.70169 
L 188.219321 187.71555 
" style="fill:none;stroke:#575757;stroke-dasharray:3,3;stroke-dashoffset:0;"/>
   </g>
   <g id="line2d_27">
    <path clip-path="url(#p7fac34335d)" d="M 215.146455 148.049352 
L 215.146455 186.367887 
" style="fill:none;stroke:#575757;stroke-dasharray:1.5,1.5;stroke-dashoffset:0;"/>
   </g>
   <g id="line2d_28">
    <path clip-path="url(#p7fac34335d)" d="M 138.544487 205.847413 
L 138.544487 252.521493 
" style="fill:none;stroke:#575757;stroke-dasharray:1.5,1.5;stroke-dashoffset:0;"/>
   </g>
   <g id="line2d_29">
    <path clip-path="url(#p7fac34335d)" d="M 146.948732 204.685277 
L 146.948732 253.68363 
" style="fill:none;stroke:#575757;stroke-dasharray:3,3;stroke-dashoffset:0;"/>
   </g>
   <g id="line2d_30">
    <path clip-path="url(#p7fac34335d)" d="M 161.985486 209.955004 
L 161.985486 248.413902 
" style="fill:none;stroke:#575757;stroke-dasharray:1.5,1.5;stroke-dashoffset:0;"/>
   </g>
   <g id="patch_47">
    <path d="M 100.7 260.17237 
L 100.7 12.269036 
" style="fill:none;stroke:#000000;stroke-linecap:square;stroke-linejoin:miter;stroke-width:0.8;"/>
   </g>
   <g id="patch_48">
    <path d="M 100.7 260.17237 
L 348.603333 260.17237 
" style="fill:none;stroke:#000000;stroke-linecap:square;stroke-linejoin:miter;stroke-width:0.8;"/>
   </g>
  </g>
 </g>
 <defs>
  <clipPath id="p92eb2cbf51">
   <rect height="247.903333" width="247.903333" x="-262.563333" y="12.269036"/>
  </clipPath>
  <clipPath id="p7fac34335d">
   <rect height="247.903333" width="247.903333" x="100.7" y="12.269036"/>
  </clipPath>
 </defs>
</svg>
