<?xml version="1.0" encoding="utf-8" standalone="no"?>
<!DOCTYPE svg PUBLIC "-//W3C//DTD SVG 1.1//EN"
  "http://www.w3.org/Graphics/SVG/1.1/DTD/svg11.dtd">
<!-- Created with matplotlib (https://matplotlib.org/) -->
<svg height="319.018203pt" version="1.1" viewBox="0 0 356.395 319.018203" width="356.395pt" xmlns="http://www.w3.org/2000/svg" xmlns:xlink="http://www.w3.org/1999/xlink">
 <defs>
  <style type="text/css">
*{stroke-linecap:butt;stroke-linejoin:round;}
  </style>
 </defs>
 <g id="figure_1">
  <g id="patch_1">
   <path d="M 0 319.018203 
L 356.395 319.018203 
L 356.395 -0 
L 0 -0 
z
" style="fill:#ffffff;"/>
  </g>
  <g id="axes_1">
   <g id="patch_2">
    <path d="M -266.855 262.318203 
L -14.66 262.318203 
L -14.66 10.123203 
L -266.855 10.123203 
z
" style="fill:#ffffff;"/>
   </g>
   <g id="patch_3">
    <path clip-path="url(#p7f328ae61e)" d="M -255.391591 262.318203 
L -249.659886 262.318203 
L -249.659886 259.892085 
L -255.391591 259.892085 
z
" style="fill:#43406b;opacity:0.6;stroke:#000000;stroke-linejoin:miter;stroke-width:0.5;"/>
   </g>
   <g id="patch_4">
    <path clip-path="url(#p7f328ae61e)" d="M -249.659886 262.318203 
L -243.928182 262.318203 
L -243.928182 262.318203 
L -249.659886 262.318203 
z
" style="fill:#43406b;opacity:0.6;stroke:#000000;stroke-linejoin:miter;stroke-width:0.5;"/>
   </g>
   <g id="patch_5">
    <path clip-path="url(#p7f328ae61e)" d="M -243.928182 262.318203 
L -238.196477 262.318203 
L -238.196477 262.318203 
L -243.928182 262.318203 
z
" style="fill:#43406b;opacity:0.6;stroke:#000000;stroke-linejoin:miter;stroke-width:0.5;"/>
   </g>
   <g id="patch_6">
    <path clip-path="url(#p7f328ae61e)" d="M -238.196477 262.318203 
L -232.464773 262.318203 
L -232.464773 262.318203 
L -238.196477 262.318203 
z
" style="fill:#43406b;opacity:0.6;stroke:#000000;stroke-linejoin:miter;stroke-width:0.5;"/>
   </g>
   <g id="patch_7">
    <path clip-path="url(#p7f328ae61e)" d="M -232.464773 262.318203 
L -226.733068 262.318203 
L -226.733068 262.318203 
L -232.464773 262.318203 
z
" style="fill:#43406b;opacity:0.6;stroke:#000000;stroke-linejoin:miter;stroke-width:0.5;"/>
   </g>
   <g id="patch_8">
    <path clip-path="url(#p7f328ae61e)" d="M -226.733068 262.318203 
L -221.001364 262.318203 
L -221.001364 262.318203 
L -226.733068 262.318203 
z
" style="fill:#43406b;opacity:0.6;stroke:#000000;stroke-linejoin:miter;stroke-width:0.5;"/>
   </g>
   <g id="patch_9">
    <path clip-path="url(#p7f328ae61e)" d="M -221.001364 262.318203 
L -215.269659 262.318203 
L -215.269659 262.318203 
L -221.001364 262.318203 
z
" style="fill:#43406b;opacity:0.6;stroke:#000000;stroke-linejoin:miter;stroke-width:0.5;"/>
   </g>
   <g id="patch_10">
    <path clip-path="url(#p7f328ae61e)" d="M -215.269659 262.318203 
L -209.537955 262.318203 
L -209.537955 262.318203 
L -215.269659 262.318203 
z
" style="fill:#43406b;opacity:0.6;stroke:#000000;stroke-linejoin:miter;stroke-width:0.5;"/>
   </g>
   <g id="patch_11">
    <path clip-path="url(#p7f328ae61e)" d="M -209.537955 262.318203 
L -203.80625 262.318203 
L -203.80625 262.318203 
L -209.537955 262.318203 
z
" style="fill:#43406b;opacity:0.6;stroke:#000000;stroke-linejoin:miter;stroke-width:0.5;"/>
   </g>
   <g id="patch_12">
    <path clip-path="url(#p7f328ae61e)" d="M -203.80625 262.318203 
L -198.074545 262.318203 
L -198.074545 262.318203 
L -203.80625 262.318203 
z
" style="fill:#43406b;opacity:0.6;stroke:#000000;stroke-linejoin:miter;stroke-width:0.5;"/>
   </g>
   <g id="patch_13">
    <path clip-path="url(#p7f328ae61e)" d="M -198.074545 262.318203 
L -192.342841 262.318203 
L -192.342841 262.318203 
L -198.074545 262.318203 
z
" style="fill:#43406b;opacity:0.6;stroke:#000000;stroke-linejoin:miter;stroke-width:0.5;"/>
   </g>
   <g id="patch_14">
    <path clip-path="url(#p7f328ae61e)" d="M -192.342841 262.318203 
L -186.611136 262.318203 
L -186.611136 262.318203 
L -192.342841 262.318203 
z
" style="fill:#43406b;opacity:0.6;stroke:#000000;stroke-linejoin:miter;stroke-width:0.5;"/>
   </g>
   <g id="patch_15">
    <path clip-path="url(#p7f328ae61e)" d="M -186.611136 262.318203 
L -180.879432 262.318203 
L -180.879432 262.318203 
L -186.611136 262.318203 
z
" style="fill:#43406b;opacity:0.6;stroke:#000000;stroke-linejoin:miter;stroke-width:0.5;"/>
   </g>
   <g id="patch_16">
    <path clip-path="url(#p7f328ae61e)" d="M -180.879432 262.318203 
L -175.147727 262.318203 
L -175.147727 262.318203 
L -180.879432 262.318203 
z
" style="fill:#43406b;opacity:0.6;stroke:#000000;stroke-linejoin:miter;stroke-width:0.5;"/>
   </g>
   <g id="patch_17">
    <path clip-path="url(#p7f328ae61e)" d="M -175.147727 262.318203 
L -169.416023 262.318203 
L -169.416023 259.892085 
L -175.147727 259.892085 
z
" style="fill:#43406b;opacity:0.6;stroke:#000000;stroke-linejoin:miter;stroke-width:0.5;"/>
   </g>
   <g id="patch_18">
    <path clip-path="url(#p7f328ae61e)" d="M -169.416023 262.318203 
L -163.684318 262.318203 
L -163.684318 255.039848 
L -169.416023 255.039848 
z
" style="fill:#43406b;opacity:0.6;stroke:#000000;stroke-linejoin:miter;stroke-width:0.5;"/>
   </g>
   <g id="patch_19">
    <path clip-path="url(#p7f328ae61e)" d="M -163.684318 262.318203 
L -157.952614 262.318203 
L -157.952614 255.039848 
L -163.684318 255.039848 
z
" style="fill:#43406b;opacity:0.6;stroke:#000000;stroke-linejoin:miter;stroke-width:0.5;"/>
   </g>
   <g id="patch_20">
    <path clip-path="url(#p7f328ae61e)" d="M -157.952614 262.318203 
L -152.220909 262.318203 
L -152.220909 245.335375 
L -157.952614 245.335375 
z
" style="fill:#43406b;opacity:0.6;stroke:#000000;stroke-linejoin:miter;stroke-width:0.5;"/>
   </g>
   <g id="patch_21">
    <path clip-path="url(#p7f328ae61e)" d="M -152.220909 262.318203 
L -146.489205 262.318203 
L -146.489205 247.761493 
L -152.220909 247.761493 
z
" style="fill:#43406b;opacity:0.6;stroke:#000000;stroke-linejoin:miter;stroke-width:0.5;"/>
   </g>
   <g id="patch_22">
    <path clip-path="url(#p7f328ae61e)" d="M -146.489205 262.318203 
L -140.7575 262.318203 
L -140.7575 245.335375 
L -146.489205 245.335375 
z
" style="fill:#43406b;opacity:0.6;stroke:#000000;stroke-linejoin:miter;stroke-width:0.5;"/>
   </g>
   <g id="patch_23">
    <path clip-path="url(#p7f328ae61e)" d="M -140.7575 262.318203 
L -135.025795 262.318203 
L -135.025795 233.204783 
L -140.7575 233.204783 
z
" style="fill:#43406b;opacity:0.6;stroke:#000000;stroke-linejoin:miter;stroke-width:0.5;"/>
   </g>
   <g id="patch_24">
    <path clip-path="url(#p7f328ae61e)" d="M -135.025795 262.318203 
L -129.294091 262.318203 
L -129.294091 221.074192 
L -135.025795 221.074192 
z
" style="fill:#43406b;opacity:0.6;stroke:#000000;stroke-linejoin:miter;stroke-width:0.5;"/>
   </g>
   <g id="patch_25">
    <path clip-path="url(#p7f328ae61e)" d="M -129.294091 262.318203 
L -123.562386 262.318203 
L -123.562386 211.369718 
L -129.294091 211.369718 
z
" style="fill:#43406b;opacity:0.6;stroke:#000000;stroke-linejoin:miter;stroke-width:0.5;"/>
   </g>
   <g id="patch_26">
    <path clip-path="url(#p7f328ae61e)" d="M -123.562386 262.318203 
L -117.830682 262.318203 
L -117.830682 201.665245 
L -123.562386 201.665245 
z
" style="fill:#43406b;opacity:0.6;stroke:#000000;stroke-linejoin:miter;stroke-width:0.5;"/>
   </g>
   <g id="patch_27">
    <path clip-path="url(#p7f328ae61e)" d="M -117.830682 262.318203 
L -112.098977 262.318203 
L -112.098977 196.813008 
L -117.830682 196.813008 
z
" style="fill:#43406b;opacity:0.6;stroke:#000000;stroke-linejoin:miter;stroke-width:0.5;"/>
   </g>
   <g id="patch_28">
    <path clip-path="url(#p7f328ae61e)" d="M -112.098977 262.318203 
L -106.367273 262.318203 
L -106.367273 184.682417 
L -112.098977 184.682417 
z
" style="fill:#43406b;opacity:0.6;stroke:#000000;stroke-linejoin:miter;stroke-width:0.5;"/>
   </g>
   <g id="patch_29">
    <path clip-path="url(#p7f328ae61e)" d="M -106.367273 262.318203 
L -100.635568 262.318203 
L -100.635568 138.586168 
L -106.367273 138.586168 
z
" style="fill:#43406b;opacity:0.6;stroke:#000000;stroke-linejoin:miter;stroke-width:0.5;"/>
   </g>
   <g id="patch_30">
    <path clip-path="url(#p7f328ae61e)" d="M -100.635568 262.318203 
L -94.903864 262.318203 
L -94.903864 102.194394 
L -100.635568 102.194394 
z
" style="fill:#43406b;opacity:0.6;stroke:#000000;stroke-linejoin:miter;stroke-width:0.5;"/>
   </g>
   <g id="patch_31">
    <path clip-path="url(#p7f328ae61e)" d="M -94.903864 262.318203 
L -89.172159 262.318203 
L -89.172159 85.211565 
L -94.903864 85.211565 
z
" style="fill:#43406b;opacity:0.6;stroke:#000000;stroke-linejoin:miter;stroke-width:0.5;"/>
   </g>
   <g id="patch_32">
    <path clip-path="url(#p7f328ae61e)" d="M -89.172159 262.318203 
L -83.440455 262.318203 
L -83.440455 51.245909 
L -89.172159 51.245909 
z
" style="fill:#43406b;opacity:0.6;stroke:#000000;stroke-linejoin:miter;stroke-width:0.5;"/>
   </g>
   <g id="patch_33">
    <path clip-path="url(#p7f328ae61e)" d="M -83.440455 262.318203 
L -77.70875 262.318203 
L -77.70875 22.132489 
L -83.440455 22.132489 
z
" style="fill:#43406b;opacity:0.6;stroke:#000000;stroke-linejoin:miter;stroke-width:0.5;"/>
   </g>
   <g id="patch_34">
    <path clip-path="url(#p7f328ae61e)" d="M -77.70875 262.318203 
L -71.977045 262.318203 
L -71.977045 90.063802 
L -77.70875 90.063802 
z
" style="fill:#43406b;opacity:0.6;stroke:#000000;stroke-linejoin:miter;stroke-width:0.5;"/>
   </g>
   <g id="patch_35">
    <path clip-path="url(#p7f328ae61e)" d="M -71.977045 262.318203 
L -66.245341 262.318203 
L -66.245341 22.132489 
L -71.977045 22.132489 
z
" style="fill:#43406b;opacity:0.6;stroke:#000000;stroke-linejoin:miter;stroke-width:0.5;"/>
   </g>
   <g id="patch_36">
    <path clip-path="url(#p7f328ae61e)" d="M -66.245341 262.318203 
L -60.513636 262.318203 
L -60.513636 102.194394 
L -66.245341 102.194394 
z
" style="fill:#43406b;opacity:0.6;stroke:#000000;stroke-linejoin:miter;stroke-width:0.5;"/>
   </g>
   <g id="patch_37">
    <path clip-path="url(#p7f328ae61e)" d="M -60.513636 262.318203 
L -54.781932 262.318203 
L -54.781932 150.71676 
L -60.513636 150.71676 
z
" style="fill:#43406b;opacity:0.6;stroke:#000000;stroke-linejoin:miter;stroke-width:0.5;"/>
   </g>
   <g id="patch_38">
    <path clip-path="url(#p7f328ae61e)" d="M -54.781932 262.318203 
L -49.050227 262.318203 
L -49.050227 133.733932 
L -54.781932 133.733932 
z
" style="fill:#43406b;opacity:0.6;stroke:#000000;stroke-linejoin:miter;stroke-width:0.5;"/>
   </g>
   <g id="patch_39">
    <path clip-path="url(#p7f328ae61e)" d="M -49.050227 262.318203 
L -43.318523 262.318203 
L -43.318523 155.568997 
L -49.050227 155.568997 
z
" style="fill:#43406b;opacity:0.6;stroke:#000000;stroke-linejoin:miter;stroke-width:0.5;"/>
   </g>
   <g id="patch_40">
    <path clip-path="url(#p7f328ae61e)" d="M -43.318523 262.318203 
L -37.586818 262.318203 
L -37.586818 174.977943 
L -43.318523 174.977943 
z
" style="fill:#43406b;opacity:0.6;stroke:#000000;stroke-linejoin:miter;stroke-width:0.5;"/>
   </g>
   <g id="patch_41">
    <path clip-path="url(#p7f328ae61e)" d="M -37.586818 262.318203 
L -31.855114 262.318203 
L -31.855114 170.125707 
L -37.586818 170.125707 
z
" style="fill:#43406b;opacity:0.6;stroke:#000000;stroke-linejoin:miter;stroke-width:0.5;"/>
   </g>
   <g id="patch_42">
    <path clip-path="url(#p7f328ae61e)" d="M -31.855114 262.318203 
L -26.123409 262.318203 
L -26.123409 240.483138 
L -31.855114 240.483138 
z
" style="fill:#43406b;opacity:0.6;stroke:#000000;stroke-linejoin:miter;stroke-width:0.5;"/>
   </g>
   <g id="matplotlib.axis_1">
    <g id="xtick_1">
     <g id="line2d_1">
      <defs>
       <path d="M 0 0 
L 0 3.5 
" id="mffaffae3f7" style="stroke:#000000;stroke-width:1.6;"/>
      </defs>
      <g/>
     </g>
     <g id="text_1">
      <!-- 0.0 -->
      <defs>
       <path d="M 31.78125 66.40625 
Q 24.171875 66.40625 20.328125 58.90625 
Q 16.5 51.421875 16.5 36.375 
Q 16.5 21.390625 20.328125 13.890625 
Q 24.171875 6.390625 31.78125 6.390625 
Q 39.453125 6.390625 43.28125 13.890625 
Q 47.125 21.390625 47.125 36.375 
Q 47.125 51.421875 43.28125 58.90625 
Q 39.453125 66.40625 31.78125 66.40625 
z
M 31.78125 74.21875 
Q 44.046875 74.21875 50.515625 64.515625 
Q 56.984375 54.828125 56.984375 36.375 
Q 56.984375 17.96875 50.515625 8.265625 
Q 44.046875 -1.421875 31.78125 -1.421875 
Q 19.53125 -1.421875 13.0625 8.265625 
Q 6.59375 17.96875 6.59375 36.375 
Q 6.59375 54.828125 13.0625 64.515625 
Q 19.53125 74.21875 31.78125 74.21875 
z
" id="DejaVuSans-48"/>
       <path d="M 10.6875 12.40625 
L 21 12.40625 
L 21 0 
L 10.6875 0 
z
" id="DejaVuSans-46"/>
      </defs>
      <g transform="translate(-271.294716 292.215078)scale(0.2 -0.2)">
       <use xlink:href="#DejaVuSans-48"/>
       <use x="63.623047" xlink:href="#DejaVuSans-46"/>
       <use x="95.410156" xlink:href="#DejaVuSans-48"/>
      </g>
     </g>
    </g>
    <g id="xtick_2">
     <g id="line2d_2">
      <g/>
     </g>
     <g id="text_2">
      <!-- 0.2 -->
      <defs>
       <path d="M 19.1875 8.296875 
L 53.609375 8.296875 
L 53.609375 0 
L 7.328125 0 
L 7.328125 8.296875 
Q 12.9375 14.109375 22.625 23.890625 
Q 32.328125 33.6875 34.8125 36.53125 
Q 39.546875 41.84375 41.421875 45.53125 
Q 43.3125 49.21875 43.3125 52.78125 
Q 43.3125 58.59375 39.234375 62.25 
Q 35.15625 65.921875 28.609375 65.921875 
Q 23.96875 65.921875 18.8125 64.3125 
Q 13.671875 62.703125 7.8125 59.421875 
L 7.8125 69.390625 
Q 13.765625 71.78125 18.9375 73 
Q 24.125 74.21875 28.421875 74.21875 
Q 39.75 74.21875 46.484375 68.546875 
Q 53.21875 62.890625 53.21875 53.421875 
Q 53.21875 48.921875 51.53125 44.890625 
Q 49.859375 40.875 45.40625 35.40625 
Q 44.1875 33.984375 37.640625 27.21875 
Q 31.109375 20.453125 19.1875 8.296875 
z
" id="DejaVuSans-50"/>
      </defs>
      <g transform="translate(-205.789521 292.215078)scale(0.2 -0.2)">
       <use xlink:href="#DejaVuSans-48"/>
       <use x="63.623047" xlink:href="#DejaVuSans-46"/>
       <use x="95.410156" xlink:href="#DejaVuSans-50"/>
      </g>
     </g>
    </g>
    <g id="xtick_3">
     <g id="line2d_3">
      <g/>
     </g>
     <g id="text_3">
      <!-- 0.4 -->
      <defs>
       <path d="M 37.796875 64.3125 
L 12.890625 25.390625 
L 37.796875 25.390625 
z
M 35.203125 72.90625 
L 47.609375 72.90625 
L 47.609375 25.390625 
L 58.015625 25.390625 
L 58.015625 17.1875 
L 47.609375 17.1875 
L 47.609375 0 
L 37.796875 0 
L 37.796875 17.1875 
L 4.890625 17.1875 
L 4.890625 26.703125 
z
" id="DejaVuSans-52"/>
      </defs>
      <g transform="translate(-140.284326 292.215078)scale(0.2 -0.2)">
       <use xlink:href="#DejaVuSans-48"/>
       <use x="63.623047" xlink:href="#DejaVuSans-46"/>
       <use x="95.410156" xlink:href="#DejaVuSans-52"/>
      </g>
     </g>
    </g>
    <g id="xtick_4">
     <g id="line2d_4">
      <g/>
     </g>
     <g id="text_4">
      <!-- 0.6 -->
      <defs>
       <path d="M 33.015625 40.375 
Q 26.375 40.375 22.484375 35.828125 
Q 18.609375 31.296875 18.609375 23.390625 
Q 18.609375 15.53125 22.484375 10.953125 
Q 26.375 6.390625 33.015625 6.390625 
Q 39.65625 6.390625 43.53125 10.953125 
Q 47.40625 15.53125 47.40625 23.390625 
Q 47.40625 31.296875 43.53125 35.828125 
Q 39.65625 40.375 33.015625 40.375 
z
M 52.59375 71.296875 
L 52.59375 62.3125 
Q 48.875 64.0625 45.09375 64.984375 
Q 41.3125 65.921875 37.59375 65.921875 
Q 27.828125 65.921875 22.671875 59.328125 
Q 17.53125 52.734375 16.796875 39.40625 
Q 19.671875 43.65625 24.015625 45.921875 
Q 28.375 48.1875 33.59375 48.1875 
Q 44.578125 48.1875 50.953125 41.515625 
Q 57.328125 34.859375 57.328125 23.390625 
Q 57.328125 12.15625 50.6875 5.359375 
Q 44.046875 -1.421875 33.015625 -1.421875 
Q 20.359375 -1.421875 13.671875 8.265625 
Q 6.984375 17.96875 6.984375 36.375 
Q 6.984375 53.65625 15.1875 63.9375 
Q 23.390625 74.21875 37.203125 74.21875 
Q 40.921875 74.21875 44.703125 73.484375 
Q 48.484375 72.75 52.59375 71.296875 
z
" id="DejaVuSans-54"/>
      </defs>
      <g transform="translate(-74.779131 292.215078)scale(0.2 -0.2)">
       <use xlink:href="#DejaVuSans-48"/>
       <use x="63.623047" xlink:href="#DejaVuSans-46"/>
       <use x="95.410156" xlink:href="#DejaVuSans-54"/>
      </g>
     </g>
    </g>
    <g id="text_5">
     <!--   -->
     <defs>
      <path id="DejaVuSans-32"/>
     </defs>
     <g transform="translate(-143.935625 315.571328)scale(0.2 -0.2)">
      <use xlink:href="#DejaVuSans-32"/>
     </g>
    </g>
   </g>
   <g id="matplotlib.axis_2">
    <g id="ytick_1">
     <g id="line2d_5">
      <defs>
       <path d="M 0 0 
L -3.5 0 
" id="m5497b6f45d" style="stroke:#000000;stroke-width:1.6;"/>
      </defs>
      <g/>
     </g>
     <g id="text_6">
      <!-- 0.00 -->
      <g transform="translate(-326.08625 269.916641)scale(0.2 -0.2)">
       <use xlink:href="#DejaVuSans-48"/>
       <use x="63.623047" xlink:href="#DejaVuSans-46"/>
       <use x="95.410156" xlink:href="#DejaVuSans-48"/>
       <use x="159.033203" xlink:href="#DejaVuSans-48"/>
      </g>
     </g>
    </g>
    <g id="ytick_2">
     <g id="line2d_6">
      <g/>
     </g>
     <g id="text_7">
      <!-- 0.02 -->
      <g transform="translate(-326.08625 221.394274)scale(0.2 -0.2)">
       <use xlink:href="#DejaVuSans-48"/>
       <use x="63.623047" xlink:href="#DejaVuSans-46"/>
       <use x="95.410156" xlink:href="#DejaVuSans-48"/>
       <use x="159.033203" xlink:href="#DejaVuSans-50"/>
      </g>
     </g>
    </g>
    <g id="ytick_3">
     <g id="line2d_7">
      <g/>
     </g>
     <g id="text_8">
      <!-- 0.04 -->
      <g transform="translate(-326.08625 172.871908)scale(0.2 -0.2)">
       <use xlink:href="#DejaVuSans-48"/>
       <use x="63.623047" xlink:href="#DejaVuSans-46"/>
       <use x="95.410156" xlink:href="#DejaVuSans-48"/>
       <use x="159.033203" xlink:href="#DejaVuSans-52"/>
      </g>
     </g>
    </g>
    <g id="ytick_4">
     <g id="line2d_8">
      <g/>
     </g>
     <g id="text_9">
      <!-- 0.06 -->
      <g transform="translate(-326.08625 124.349541)scale(0.2 -0.2)">
       <use xlink:href="#DejaVuSans-48"/>
       <use x="63.623047" xlink:href="#DejaVuSans-46"/>
       <use x="95.410156" xlink:href="#DejaVuSans-48"/>
       <use x="159.033203" xlink:href="#DejaVuSans-54"/>
      </g>
     </g>
    </g>
    <g id="ytick_5">
     <g id="line2d_9">
      <g/>
     </g>
     <g id="text_10">
      <!-- 0.08 -->
      <defs>
       <path d="M 31.78125 34.625 
Q 24.75 34.625 20.71875 30.859375 
Q 16.703125 27.09375 16.703125 20.515625 
Q 16.703125 13.921875 20.71875 10.15625 
Q 24.75 6.390625 31.78125 6.390625 
Q 38.8125 6.390625 42.859375 10.171875 
Q 46.921875 13.96875 46.921875 20.515625 
Q 46.921875 27.09375 42.890625 30.859375 
Q 38.875 34.625 31.78125 34.625 
z
M 21.921875 38.8125 
Q 15.578125 40.375 12.03125 44.71875 
Q 8.5 49.078125 8.5 55.328125 
Q 8.5 64.0625 14.71875 69.140625 
Q 20.953125 74.21875 31.78125 74.21875 
Q 42.671875 74.21875 48.875 69.140625 
Q 55.078125 64.0625 55.078125 55.328125 
Q 55.078125 49.078125 51.53125 44.71875 
Q 48 40.375 41.703125 38.8125 
Q 48.828125 37.15625 52.796875 32.3125 
Q 56.78125 27.484375 56.78125 20.515625 
Q 56.78125 9.90625 50.3125 4.234375 
Q 43.84375 -1.421875 31.78125 -1.421875 
Q 19.734375 -1.421875 13.25 4.234375 
Q 6.78125 9.90625 6.78125 20.515625 
Q 6.78125 27.484375 10.78125 32.3125 
Q 14.796875 37.15625 21.921875 38.8125 
z
M 18.3125 54.390625 
Q 18.3125 48.734375 21.84375 45.5625 
Q 25.390625 42.390625 31.78125 42.390625 
Q 38.140625 42.390625 41.71875 45.5625 
Q 45.3125 48.734375 45.3125 54.390625 
Q 45.3125 60.0625 41.71875 63.234375 
Q 38.140625 66.40625 31.78125 66.40625 
Q 25.390625 66.40625 21.84375 63.234375 
Q 18.3125 60.0625 18.3125 54.390625 
z
" id="DejaVuSans-56"/>
      </defs>
      <g transform="translate(-326.08625 75.827175)scale(0.2 -0.2)">
       <use xlink:href="#DejaVuSans-48"/>
       <use x="63.623047" xlink:href="#DejaVuSans-46"/>
       <use x="95.410156" xlink:href="#DejaVuSans-48"/>
       <use x="159.033203" xlink:href="#DejaVuSans-56"/>
      </g>
     </g>
    </g>
    <g id="ytick_6">
     <g id="line2d_10">
      <g/>
     </g>
     <g id="text_11">
      <!-- 0.10 -->
      <defs>
       <path d="M 12.40625 8.296875 
L 28.515625 8.296875 
L 28.515625 63.921875 
L 10.984375 60.40625 
L 10.984375 69.390625 
L 28.421875 72.90625 
L 38.28125 72.90625 
L 38.28125 8.296875 
L 54.390625 8.296875 
L 54.390625 0 
L 12.40625 0 
z
" id="DejaVuSans-49"/>
      </defs>
      <g transform="translate(-326.08625 27.304808)scale(0.2 -0.2)">
       <use xlink:href="#DejaVuSans-48"/>
       <use x="63.623047" xlink:href="#DejaVuSans-46"/>
       <use x="95.410156" xlink:href="#DejaVuSans-49"/>
       <use x="159.033203" xlink:href="#DejaVuSans-48"/>
      </g>
     </g>
    </g>
    <g id="text_12">
     <!--   -->
     <g transform="translate(-333.7465 139.017453)rotate(-90)scale(0.176 -0.176)">
      <use xlink:href="#DejaVuSans-32"/>
     </g>
    </g>
   </g>
   <g id="patch_43">
    <path style="fill:none;stroke:#000000;stroke-linecap:square;stroke-linejoin:miter;stroke-width:0.8;"/>
   </g>
   <g id="patch_44">
    <path style="fill:none;stroke:#000000;stroke-linecap:square;stroke-linejoin:miter;stroke-width:0.8;"/>
   </g>
  </g>
  <g id="axes_2">
   <g id="patch_45">
    <path d="M 100.7 262.318203 
L 352.895 262.318203 
L 352.895 10.123203 
L 100.7 10.123203 
z
" style="fill:#ffffff;"/>
   </g>
   <g id="PolyCollection_1">
    <defs>
     <path d="M 294.088971 -255.338911 
L 294.088971 -299.402339 
L 294.217723 -299.717308 
L 294.346474 -300.018638 
L 294.475226 -300.3057 
L 294.603978 -300.577895 
L 294.73273 -300.834659 
L 294.861481 -301.07546 
L 294.990233 -301.299808 
L 295.118985 -301.507252 
L 295.247736 -301.697383 
L 295.376488 -301.869835 
L 295.50524 -302.024292 
L 295.633991 -302.16048 
L 295.762743 -302.27818 
L 295.891495 -302.377219 
L 296.020247 -302.457477 
L 296.148998 -302.518885 
L 296.27775 -302.561429 
L 296.406502 -302.585145 
L 296.535253 -302.590125 
L 296.664005 -302.576511 
L 296.792757 -302.544501 
L 296.921509 -302.494341 
L 297.05026 -302.426332 
L 297.179012 -302.340822 
L 297.307764 -302.238211 
L 297.436515 -302.118944 
L 297.565267 -301.983513 
L 297.694019 -301.832452 
L 297.82277 -301.666338 
L 297.951522 -301.485785 
L 298.080274 -301.291448 
L 298.209026 -301.08401 
L 298.337777 -300.86419 
L 298.466529 -300.632732 
L 298.595281 -300.390407 
L 298.724032 -300.138005 
L 298.852784 -299.876337 
L 298.981536 -299.606227 
L 299.110288 -299.328511 
L 299.239039 -299.044032 
L 299.367791 -298.75364 
L 299.496543 -298.458181 
L 299.625294 -298.158504 
L 299.754046 -297.855446 
L 299.882798 -297.549838 
L 300.011549 -297.242496 
L 300.140301 -296.93422 
L 300.269053 -296.625791 
L 300.397805 -296.317965 
L 300.526556 -296.011475 
L 300.655308 -295.707023 
L 300.78406 -295.405282 
L 300.912811 -295.106889 
L 301.041563 -294.812448 
L 301.170315 -294.522522 
L 301.299067 -294.237636 
L 301.427818 -293.958273 
L 301.55657 -293.684874 
L 301.685322 -293.417836 
L 301.814073 -293.15751 
L 301.942825 -292.904202 
L 302.071577 -292.658173 
L 302.200328 -292.419636 
L 302.32908 -292.18876 
L 302.457832 -291.965667 
L 302.586584 -291.750433 
L 302.715335 -291.543092 
L 302.844087 -291.343632 
L 302.972839 -291.151999 
L 303.10159 -290.9681 
L 303.230342 -290.791802 
L 303.359094 -290.622932 
L 303.487846 -290.461284 
L 303.616597 -290.306618 
L 303.745349 -290.158663 
L 303.874101 -290.017118 
L 304.002852 -289.881657 
L 304.131604 -289.751928 
L 304.260356 -289.627561 
L 304.389107 -289.508165 
L 304.517859 -289.393335 
L 304.646611 -289.282651 
L 304.775363 -289.175684 
L 304.904114 -289.072 
L 305.032866 -288.971156 
L 305.161618 -288.872711 
L 305.290369 -288.776222 
L 305.419121 -288.681252 
L 305.547873 -288.587368 
L 305.676625 -288.494147 
L 305.805376 -288.401175 
L 305.934128 -288.308052 
L 306.06288 -288.214393 
L 306.191631 -288.11983 
L 306.320383 -288.024013 
L 306.449135 -287.926613 
L 306.577886 -287.827323 
L 306.706638 -287.725857 
L 306.83539 -287.621956 
L 306.83539 -267.119294 
L 306.83539 -267.119294 
L 306.706638 -267.015393 
L 306.577886 -266.913927 
L 306.449135 -266.814637 
L 306.320383 -266.717237 
L 306.191631 -266.62142 
L 306.06288 -266.526857 
L 305.934128 -266.433198 
L 305.805376 -266.340075 
L 305.676625 -266.247103 
L 305.547873 -266.153882 
L 305.419121 -266.059998 
L 305.290369 -265.965028 
L 305.161618 -265.868539 
L 305.032866 -265.770094 
L 304.904114 -265.66925 
L 304.775363 -265.565566 
L 304.646611 -265.458599 
L 304.517859 -265.347915 
L 304.389107 -265.233085 
L 304.260356 -265.113689 
L 304.131604 -264.989322 
L 304.002852 -264.859593 
L 303.874101 -264.724132 
L 303.745349 -264.582587 
L 303.616597 -264.434632 
L 303.487846 -264.279966 
L 303.359094 -264.118318 
L 303.230342 -263.949448 
L 303.10159 -263.77315 
L 302.972839 -263.589251 
L 302.844087 -263.397618 
L 302.715335 -263.198158 
L 302.586584 -262.990817 
L 302.457832 -262.775583 
L 302.32908 -262.55249 
L 302.200328 -262.321614 
L 302.071577 -262.083077 
L 301.942825 -261.837048 
L 301.814073 -261.58374 
L 301.685322 -261.323414 
L 301.55657 -261.056376 
L 301.427818 -260.782977 
L 301.299067 -260.503614 
L 301.170315 -260.218728 
L 301.041563 -259.928802 
L 300.912811 -259.634361 
L 300.78406 -259.335968 
L 300.655308 -259.034227 
L 300.526556 -258.729775 
L 300.397805 -258.423285 
L 300.269053 -258.115459 
L 300.140301 -257.80703 
L 300.011549 -257.498754 
L 299.882798 -257.191412 
L 299.754046 -256.885804 
L 299.625294 -256.582746 
L 299.496543 -256.283069 
L 299.367791 -255.98761 
L 299.239039 -255.697218 
L 299.110288 -255.412739 
L 298.981536 -255.135023 
L 298.852784 -254.864913 
L 298.724032 -254.603245 
L 298.595281 -254.350843 
L 298.466529 -254.108518 
L 298.337777 -253.87706 
L 298.209026 -253.65724 
L 298.080274 -253.449802 
L 297.951522 -253.255465 
L 297.82277 -253.074912 
L 297.694019 -252.908798 
L 297.565267 -252.757737 
L 297.436515 -252.622306 
L 297.307764 -252.503039 
L 297.179012 -252.400428 
L 297.05026 -252.314918 
L 296.921509 -252.246909 
L 296.792757 -252.196749 
L 296.664005 -252.164739 
L 296.535253 -252.151125 
L 296.406502 -252.156105 
L 296.27775 -252.179821 
L 296.148998 -252.222365 
L 296.020247 -252.283773 
L 295.891495 -252.364031 
L 295.762743 -252.46307 
L 295.633991 -252.58077 
L 295.50524 -252.716958 
L 295.376488 -252.871415 
L 295.247736 -253.043867 
L 295.118985 -253.233998 
L 294.990233 -253.441442 
L 294.861481 -253.66579 
L 294.73273 -253.906591 
L 294.603978 -254.163355 
L 294.475226 -254.43555 
L 294.346474 -254.722612 
L 294.217723 -255.023942 
L 294.088971 -255.338911 
z
" id="m8a6dfc8bfa" style="stroke:#333333;"/>
    </defs>
    <g clip-path="url(#paea721c2b1)">
     <use style="fill:#484566;stroke:#333333;" x="0" xlink:href="#m8a6dfc8bfa" y="319.018203"/>
    </g>
   </g>
   <g id="PolyCollection_2">
    <defs>
     <path d="M 117.365012 -214.170176 
L 117.365012 -214.473574 
L 119.702209 -214.467107 
L 122.039407 -214.447713 
L 124.376604 -214.420555 
L 126.713801 -214.391911 
L 129.050998 -214.366862 
L 131.388196 -214.348028 
L 133.725393 -214.335635 
L 136.06259 -214.328427 
L 138.399788 -214.324699 
L 140.736985 -214.322976 
L 143.074182 -214.322264 
L 145.411379 -214.321999 
L 147.748577 -214.321911 
L 150.085774 -214.321884 
L 152.422971 -214.321877 
L 154.760168 -214.321875 
L 157.097366 -214.321875 
L 159.434563 -214.321875 
L 161.77176 -214.321875 
L 164.108957 -214.321875 
L 166.446155 -214.321875 
L 168.783352 -214.321875 
L 171.120549 -214.321875 
L 173.457747 -214.321877 
L 175.794944 -214.321885 
L 178.132141 -214.321912 
L 180.469338 -214.322005 
L 182.806536 -214.322289 
L 185.143733 -214.323072 
L 187.48093 -214.325018 
L 189.818127 -214.329385 
L 192.155325 -214.338222 
L 194.492522 -214.354337 
L 196.829719 -214.380813 
L 199.166917 -214.419972 
L 201.504114 -214.472087 
L 203.841311 -214.534497 
L 206.178508 -214.601856 
L 208.515706 -214.667756 
L 210.852903 -214.727151 
L 213.1901 -214.778402 
L 215.527297 -214.823961 
L 217.864495 -214.869441 
L 220.201692 -214.921656 
L 222.538889 -214.986541 
L 224.876086 -215.06774 
L 227.213284 -215.166495 
L 229.550481 -215.283249 
L 231.887678 -215.420923 
L 234.224876 -215.588738 
L 236.562073 -215.804317 
L 238.89927 -216.091585 
L 241.236467 -216.473511 
L 243.573665 -216.96171 
L 245.910862 -217.547626 
L 248.248059 -218.200568 
L 250.585256 -218.875419 
L 252.922454 -219.528473 
L 255.259651 -220.13579 
L 257.596848 -220.706925 
L 259.934045 -221.288138 
L 262.271243 -221.952438 
L 264.60844 -222.777782 
L 266.945637 -223.819224 
L 269.282835 -225.08518 
L 271.620032 -226.529671 
L 273.957229 -228.067678 
L 276.294426 -229.608808 
L 278.631624 -231.091641 
L 280.968821 -232.497745 
L 283.306018 -233.836327 
L 285.643215 -235.111301 
L 287.980413 -236.296407 
L 290.31761 -237.338147 
L 292.654807 -238.183941 
L 294.992004 -238.811723 
L 297.329202 -239.235231 
L 299.666399 -239.478858 
L 302.003596 -239.541375 
L 304.340794 -239.378442 
L 306.677991 -238.920629 
L 309.015188 -238.117211 
L 311.352385 -236.977064 
L 313.689583 -235.580623 
L 316.02678 -234.057018 
L 318.363977 -232.541304 
L 320.701174 -231.134478 
L 323.038372 -229.88288 
L 325.375569 -228.781807 
L 327.712766 -227.797316 
L 330.049963 -226.892859 
L 332.387161 -226.045556 
L 334.724358 -225.243155 
L 337.061555 -224.466176 
L 339.398753 -223.671975 
L 341.73595 -222.798161 
L 344.073147 -221.789255 
L 346.410344 -220.631785 
L 348.747542 -219.374193 
L 348.747542 -209.269557 
L 348.747542 -209.269557 
L 346.410344 -208.011965 
L 344.073147 -206.854495 
L 341.73595 -205.845589 
L 339.398753 -204.971775 
L 337.061555 -204.177574 
L 334.724358 -203.400595 
L 332.387161 -202.598194 
L 330.049963 -201.750891 
L 327.712766 -200.846434 
L 325.375569 -199.861943 
L 323.038372 -198.76087 
L 320.701174 -197.509272 
L 318.363977 -196.102446 
L 316.02678 -194.586732 
L 313.689583 -193.063127 
L 311.352385 -191.666686 
L 309.015188 -190.526539 
L 306.677991 -189.723121 
L 304.340794 -189.265308 
L 302.003596 -189.102375 
L 299.666399 -189.164892 
L 297.329202 -189.408519 
L 294.992004 -189.832027 
L 292.654807 -190.459809 
L 290.31761 -191.305603 
L 287.980413 -192.347343 
L 285.643215 -193.532449 
L 283.306018 -194.807423 
L 280.968821 -196.146005 
L 278.631624 -197.552109 
L 276.294426 -199.034942 
L 273.957229 -200.576072 
L 271.620032 -202.114079 
L 269.282835 -203.55857 
L 266.945637 -204.824526 
L 264.60844 -205.865968 
L 262.271243 -206.691312 
L 259.934045 -207.355612 
L 257.596848 -207.936825 
L 255.259651 -208.50796 
L 252.922454 -209.115277 
L 250.585256 -209.768331 
L 248.248059 -210.443182 
L 245.910862 -211.096124 
L 243.573665 -211.68204 
L 241.236467 -212.170239 
L 238.89927 -212.552165 
L 236.562073 -212.839433 
L 234.224876 -213.055012 
L 231.887678 -213.222827 
L 229.550481 -213.360501 
L 227.213284 -213.477255 
L 224.876086 -213.57601 
L 222.538889 -213.657209 
L 220.201692 -213.722094 
L 217.864495 -213.774309 
L 215.527297 -213.819789 
L 213.1901 -213.865348 
L 210.852903 -213.916599 
L 208.515706 -213.975994 
L 206.178508 -214.041894 
L 203.841311 -214.109253 
L 201.504114 -214.171663 
L 199.166917 -214.223778 
L 196.829719 -214.262937 
L 194.492522 -214.289413 
L 192.155325 -214.305528 
L 189.818127 -214.314365 
L 187.48093 -214.318732 
L 185.143733 -214.320678 
L 182.806536 -214.321461 
L 180.469338 -214.321745 
L 178.132141 -214.321838 
L 175.794944 -214.321865 
L 173.457747 -214.321873 
L 171.120549 -214.321875 
L 168.783352 -214.321875 
L 166.446155 -214.321875 
L 164.108957 -214.321875 
L 161.77176 -214.321875 
L 159.434563 -214.321875 
L 157.097366 -214.321875 
L 154.760168 -214.321875 
L 152.422971 -214.321873 
L 150.085774 -214.321866 
L 147.748577 -214.321839 
L 145.411379 -214.321751 
L 143.074182 -214.321486 
L 140.736985 -214.320774 
L 138.399788 -214.319051 
L 136.06259 -214.315323 
L 133.725393 -214.308115 
L 131.388196 -214.295722 
L 129.050998 -214.276888 
L 126.713801 -214.251839 
L 124.376604 -214.223195 
L 122.039407 -214.196037 
L 119.702209 -214.176643 
L 117.365012 -214.170176 
z
" id="m090614e2b9" style="stroke:#333333;"/>
    </defs>
    <g clip-path="url(#paea721c2b1)">
     <use style="fill:#484566;stroke:#333333;" x="0" xlink:href="#m090614e2b9" y="319.018203"/>
    </g>
   </g>
   <g id="PolyCollection_3">
    <defs>
     <path d="M 201.952243 -150.51408 
L 201.952243 -152.03217 
L 203.433317 -152.127384 
L 204.914392 -152.22221 
L 206.395466 -152.315634 
L 207.87654 -152.407219 
L 209.357614 -152.497209 
L 210.838688 -152.586581 
L 212.319763 -152.67703 
L 213.800837 -152.770922 
L 215.281911 -152.87119 
L 216.762985 -152.981208 
L 218.24406 -153.10463 
L 219.725134 -153.245197 
L 221.206208 -153.406514 
L 222.687282 -153.591798 
L 224.168357 -153.803601 
L 225.649431 -154.043539 
L 227.130505 -154.31205 
L 228.611579 -154.608218 
L 230.092654 -154.929698 
L 231.573728 -155.272769 
L 233.054802 -155.632525 
L 234.535876 -156.003195 
L 236.016951 -156.378569 
L 237.498025 -156.752489 
L 238.979099 -157.119341 
L 240.460173 -157.474521 
L 241.941247 -157.814801 
L 243.422322 -158.138574 
L 244.903396 -158.445955 
L 246.38447 -158.738734 
L 247.865544 -159.020196 
L 249.346619 -159.294842 
L 250.827693 -159.568043 
L 252.308767 -159.845672 
L 253.789841 -160.133753 
L 255.270916 -160.438153 
L 256.75199 -160.76434 
L 258.233064 -161.11722 
L 259.714138 -161.501036 
L 261.195213 -161.919341 
L 262.676287 -162.375002 
L 264.157361 -162.870209 
L 265.638435 -163.406482 
L 267.11951 -163.984612 
L 268.600584 -164.604558 
L 270.081658 -165.265272 
L 271.562732 -165.964501 
L 273.043806 -166.698587 
L 274.524881 -167.462339 
L 276.005955 -168.249018 
L 277.487029 -169.050471 
L 278.968103 -169.85741 
L 280.449178 -170.659814 
L 281.930252 -171.447363 
L 283.411326 -172.209835 
L 284.8924 -172.937397 
L 286.373475 -173.620723 
L 287.854549 -174.250975 
L 289.335623 -174.819669 
L 290.816697 -175.318526 
L 292.297772 -175.739394 
L 293.778846 -176.07431 
L 295.25992 -176.315743 
L 296.740994 -176.456981 
L 298.222069 -176.492625 
L 299.703143 -176.41908 
L 301.184217 -176.234999 
L 302.665291 -175.941606 
L 304.146365 -175.542896 
L 305.62744 -175.045722 
L 307.108514 -174.459803 
L 308.589588 -173.797664 
L 310.070662 -173.074498 
L 311.551737 -172.307907 
L 313.032811 -171.517454 
L 314.513885 -170.723956 
L 315.994959 -169.948478 
L 317.476034 -169.21105 
L 318.957108 -168.529194 
L 320.438182 -167.916428 
L 321.919256 -167.380921 
L 323.400331 -166.924528 
L 324.881405 -166.542362 
L 326.362479 -166.222994 
L 327.843553 -165.949299 
L 329.324628 -165.699859 
L 330.805702 -165.450768 
L 332.286776 -165.177644 
L 333.76785 -164.857638 
L 335.248925 -164.471259 
L 336.729999 -164.003871 
L 338.211073 -163.44676 
L 339.692147 -162.797722 
L 341.173221 -162.061144 
L 342.654296 -161.247609 
L 344.13537 -160.373045 
L 345.616444 -159.457497 
L 347.097518 -158.523612 
L 348.578593 -157.594964 
L 348.578593 -144.951286 
L 348.578593 -144.951286 
L 347.097518 -144.022638 
L 345.616444 -143.088753 
L 344.13537 -142.173205 
L 342.654296 -141.298641 
L 341.173221 -140.485106 
L 339.692147 -139.748528 
L 338.211073 -139.09949 
L 336.729999 -138.542379 
L 335.248925 -138.074991 
L 333.76785 -137.688612 
L 332.286776 -137.368606 
L 330.805702 -137.095482 
L 329.324628 -136.846391 
L 327.843553 -136.596951 
L 326.362479 -136.323256 
L 324.881405 -136.003888 
L 323.400331 -135.621722 
L 321.919256 -135.165329 
L 320.438182 -134.629822 
L 318.957108 -134.017056 
L 317.476034 -133.3352 
L 315.994959 -132.597772 
L 314.513885 -131.822294 
L 313.032811 -131.028796 
L 311.551737 -130.238343 
L 310.070662 -129.471752 
L 308.589588 -128.748586 
L 307.108514 -128.086447 
L 305.62744 -127.500528 
L 304.146365 -127.003354 
L 302.665291 -126.604644 
L 301.184217 -126.311251 
L 299.703143 -126.12717 
L 298.222069 -126.053625 
L 296.740994 -126.089269 
L 295.25992 -126.230507 
L 293.778846 -126.47194 
L 292.297772 -126.806856 
L 290.816697 -127.227724 
L 289.335623 -127.726581 
L 287.854549 -128.295275 
L 286.373475 -128.925527 
L 284.8924 -129.608853 
L 283.411326 -130.336415 
L 281.930252 -131.098887 
L 280.449178 -131.886436 
L 278.968103 -132.68884 
L 277.487029 -133.495779 
L 276.005955 -134.297232 
L 274.524881 -135.083911 
L 273.043806 -135.847663 
L 271.562732 -136.581749 
L 270.081658 -137.280978 
L 268.600584 -137.941692 
L 267.11951 -138.561638 
L 265.638435 -139.139768 
L 264.157361 -139.676041 
L 262.676287 -140.171248 
L 261.195213 -140.626909 
L 259.714138 -141.045214 
L 258.233064 -141.42903 
L 256.75199 -141.78191 
L 255.270916 -142.108097 
L 253.789841 -142.412497 
L 252.308767 -142.700578 
L 250.827693 -142.978207 
L 249.346619 -143.251408 
L 247.865544 -143.526054 
L 246.38447 -143.807516 
L 244.903396 -144.100295 
L 243.422322 -144.407676 
L 241.941247 -144.731449 
L 240.460173 -145.071729 
L 238.979099 -145.426909 
L 237.498025 -145.793761 
L 236.016951 -146.167681 
L 234.535876 -146.543055 
L 233.054802 -146.913725 
L 231.573728 -147.273481 
L 230.092654 -147.616552 
L 228.611579 -147.938032 
L 227.130505 -148.2342 
L 225.649431 -148.502711 
L 224.168357 -148.742649 
L 222.687282 -148.954452 
L 221.206208 -149.139736 
L 219.725134 -149.301053 
L 218.24406 -149.44162 
L 216.762985 -149.565042 
L 215.281911 -149.67506 
L 213.800837 -149.775328 
L 212.319763 -149.86922 
L 210.838688 -149.959669 
L 209.357614 -150.049041 
L 207.87654 -150.139031 
L 206.395466 -150.230616 
L 204.914392 -150.32404 
L 203.433317 -150.418866 
L 201.952243 -150.51408 
z
" id="m9aa5af0d63" style="stroke:#333333;"/>
    </defs>
    <g clip-path="url(#paea721c2b1)">
     <use style="fill:#484566;stroke:#333333;" x="0" xlink:href="#m9aa5af0d63" y="319.018203"/>
    </g>
   </g>
   <g id="PolyCollection_4">
    <defs>
     <path d="M 214.645325 -79.722588 
L 214.645325 -96.726162 
L 215.984137 -97.206224 
L 217.32295 -97.676199 
L 218.661762 -98.133213 
L 220.000575 -98.574665 
L 221.339387 -98.998271 
L 222.6782 -99.402112 
L 224.017012 -99.784664 
L 225.355824 -100.144826 
L 226.694637 -100.481937 
L 228.033449 -100.795784 
L 229.372262 -101.086613 
L 230.711074 -101.355118 
L 232.049887 -101.602445 
L 233.388699 -101.83017 
L 234.727512 -102.04029 
L 236.066324 -102.235199 
L 237.405136 -102.417659 
L 238.743949 -102.590771 
L 240.082761 -102.757929 
L 241.421574 -102.922777 
L 242.760386 -103.089144 
L 244.099199 -103.260984 
L 245.438011 -103.44229 
L 246.776823 -103.637009 
L 248.115636 -103.848946 
L 249.454448 -104.081659 
L 250.793261 -104.338346 
L 252.132073 -104.621739 
L 253.470886 -104.933988 
L 254.809698 -105.276561 
L 256.14851 -105.650145 
L 257.487323 -106.054568 
L 258.826135 -106.488733 
L 260.164948 -106.950577 
L 261.50376 -107.437054 
L 262.842573 -107.944148 
L 264.181385 -108.466905 
L 265.520197 -108.999505 
L 266.85901 -109.535357 
L 268.197822 -110.067219 
L 269.536635 -110.587345 
L 270.875447 -111.087649 
L 272.21426 -111.55989 
L 273.553072 -111.995858 
L 274.891884 -112.387579 
L 276.230697 -112.727509 
L 277.569509 -113.008726 
L 278.908322 -113.225111 
L 280.247134 -113.371509 
L 281.585947 -113.443875 
L 282.924759 -113.439384 
L 284.263572 -113.356519 
L 285.602384 -113.195127 
L 286.941196 -112.956433 
L 288.280009 -112.643027 
L 289.618821 -112.258811 
L 290.957634 -111.808915 
L 292.296446 -111.299581 
L 293.635259 -110.738017 
L 294.974071 -110.132227 
L 296.312883 -109.490826 
L 297.651696 -108.822832 
L 298.990508 -108.137456 
L 300.329321 -107.443891 
L 301.668133 -106.751099 
L 303.006946 -106.067612 
L 304.345758 -105.401347 
L 305.68457 -104.759443 
L 307.023383 -104.148117 
L 308.362195 -103.572555 
L 309.701008 -103.036828 
L 311.03982 -102.543845 
L 312.378633 -102.095329 
L 313.717445 -101.691835 
L 315.056257 -101.332789 
L 316.39507 -101.016559 
L 317.733882 -100.740549 
L 319.072695 -100.501313 
L 320.411507 -100.294683 
L 321.75032 -100.115915 
L 323.089132 -99.959837 
L 324.427944 -99.821 
L 325.766757 -99.693833 
L 327.105569 -99.572785 
L 328.444382 -99.45247 
L 329.783194 -99.327788 
L 331.122007 -99.194042 
L 332.460819 -99.047034 
L 333.799632 -98.883143 
L 335.138444 -98.699389 
L 336.477256 -98.493477 
L 337.816069 -98.263816 
L 339.154881 -98.009527 
L 340.493694 -97.73043 
L 341.832506 -97.427018 
L 343.171319 -97.100409 
L 344.510131 -96.752292 
L 345.848943 -96.38486 
L 347.187756 -96.000731 
L 347.187756 -80.448019 
L 347.187756 -80.448019 
L 345.848943 -80.06389 
L 344.510131 -79.696458 
L 343.171319 -79.348341 
L 341.832506 -79.021732 
L 340.493694 -78.71832 
L 339.154881 -78.439223 
L 337.816069 -78.184934 
L 336.477256 -77.955273 
L 335.138444 -77.749361 
L 333.799632 -77.565607 
L 332.460819 -77.401716 
L 331.122007 -77.254708 
L 329.783194 -77.120962 
L 328.444382 -76.99628 
L 327.105569 -76.875965 
L 325.766757 -76.754917 
L 324.427944 -76.62775 
L 323.089132 -76.488913 
L 321.75032 -76.332835 
L 320.411507 -76.154067 
L 319.072695 -75.947437 
L 317.733882 -75.708201 
L 316.39507 -75.432191 
L 315.056257 -75.115961 
L 313.717445 -74.756915 
L 312.378633 -74.353421 
L 311.03982 -73.904905 
L 309.701008 -73.411922 
L 308.362195 -72.876195 
L 307.023383 -72.300633 
L 305.68457 -71.689307 
L 304.345758 -71.047403 
L 303.006946 -70.381138 
L 301.668133 -69.697651 
L 300.329321 -69.004859 
L 298.990508 -68.311294 
L 297.651696 -67.625918 
L 296.312883 -66.957924 
L 294.974071 -66.316523 
L 293.635259 -65.710733 
L 292.296446 -65.149169 
L 290.957634 -64.639835 
L 289.618821 -64.189939 
L 288.280009 -63.805723 
L 286.941196 -63.492317 
L 285.602384 -63.253623 
L 284.263572 -63.092231 
L 282.924759 -63.009366 
L 281.585947 -63.004875 
L 280.247134 -63.077241 
L 278.908322 -63.223639 
L 277.569509 -63.440024 
L 276.230697 -63.721241 
L 274.891884 -64.061171 
L 273.553072 -64.452892 
L 272.21426 -64.88886 
L 270.875447 -65.361101 
L 269.536635 -65.861405 
L 268.197822 -66.381531 
L 266.85901 -66.913393 
L 265.520197 -67.449245 
L 264.181385 -67.981845 
L 262.842573 -68.504602 
L 261.50376 -69.011696 
L 260.164948 -69.498173 
L 258.826135 -69.960017 
L 257.487323 -70.394182 
L 256.14851 -70.798605 
L 254.809698 -71.172189 
L 253.470886 -71.514762 
L 252.132073 -71.827011 
L 250.793261 -72.110404 
L 249.454448 -72.367091 
L 248.115636 -72.599804 
L 246.776823 -72.811741 
L 245.438011 -73.00646 
L 244.099199 -73.187766 
L 242.760386 -73.359606 
L 241.421574 -73.525973 
L 240.082761 -73.690821 
L 238.743949 -73.857979 
L 237.405136 -74.031091 
L 236.066324 -74.213551 
L 234.727512 -74.40846 
L 233.388699 -74.61858 
L 232.049887 -74.846305 
L 230.711074 -75.093632 
L 229.372262 -75.362137 
L 228.033449 -75.652966 
L 226.694637 -75.966813 
L 225.355824 -76.303924 
L 224.017012 -76.664086 
L 222.6782 -77.046638 
L 221.339387 -77.450479 
L 220.000575 -77.874085 
L 218.661762 -78.315537 
L 217.32295 -78.772551 
L 215.984137 -79.242526 
L 214.645325 -79.722588 
z
" id="m8f378cc703" style="stroke:#333333;"/>
    </defs>
    <g clip-path="url(#paea721c2b1)">
     <use style="fill:#484566;stroke:#333333;" x="0" xlink:href="#m8f378cc703" y="319.018203"/>
    </g>
   </g>
   <g id="patch_46">
    <path clip-path="url(#paea721c2b1)" d="M 117.513 41.647578 
L 117.513 41.647578 
L 117.513 41.647578 
L 117.513 41.647578 
z
" style="fill:#484566;stroke:#333333;stroke-linejoin:miter;stroke-width:0.5;"/>
   </g>
   <g id="matplotlib.axis_3">
    <g id="xtick_5">
     <g id="line2d_11">
      <g>
       <use style="stroke:#000000;stroke-width:1.6;" x="117.513" xlink:href="#mffaffae3f7" y="262.318203"/>
      </g>
     </g>
     <g id="text_13">
      <!-- 0.0 -->
      <g transform="translate(101.609875 292.215078)scale(0.2 -0.2)">
       <use xlink:href="#DejaVuSans-48"/>
       <use x="63.623047" xlink:href="#DejaVuSans-46"/>
       <use x="95.410156" xlink:href="#DejaVuSans-48"/>
      </g>
     </g>
    </g>
    <g id="xtick_6">
     <g id="line2d_12">
      <g>
       <use style="stroke:#000000;stroke-width:1.6;" x="184.765" xlink:href="#mffaffae3f7" y="262.318203"/>
      </g>
     </g>
     <g id="text_14">
      <!-- 0.2 -->
      <g transform="translate(168.861875 292.215078)scale(0.2 -0.2)">
       <use xlink:href="#DejaVuSans-48"/>
       <use x="63.623047" xlink:href="#DejaVuSans-46"/>
       <use x="95.410156" xlink:href="#DejaVuSans-50"/>
      </g>
     </g>
    </g>
    <g id="xtick_7">
     <g id="line2d_13">
      <g>
       <use style="stroke:#000000;stroke-width:1.6;" x="252.017" xlink:href="#mffaffae3f7" y="262.318203"/>
      </g>
     </g>
     <g id="text_15">
      <!-- 0.4 -->
      <g transform="translate(236.113875 292.215078)scale(0.2 -0.2)">
       <use xlink:href="#DejaVuSans-48"/>
       <use x="63.623047" xlink:href="#DejaVuSans-46"/>
       <use x="95.410156" xlink:href="#DejaVuSans-52"/>
      </g>
     </g>
    </g>
    <g id="xtick_8">
     <g id="line2d_14">
      <g>
       <use style="stroke:#000000;stroke-width:1.6;" x="319.269" xlink:href="#mffaffae3f7" y="262.318203"/>
      </g>
     </g>
     <g id="text_16">
      <!-- 0.6 -->
      <g transform="translate(303.365875 292.215078)scale(0.2 -0.2)">
       <use xlink:href="#DejaVuSans-48"/>
       <use x="63.623047" xlink:href="#DejaVuSans-46"/>
       <use x="95.410156" xlink:href="#DejaVuSans-54"/>
      </g>
     </g>
    </g>
    <g id="text_17">
     <!-- Max Attention -->
     <defs>
      <path d="M 9.8125 72.90625 
L 24.515625 72.90625 
L 43.109375 23.296875 
L 61.8125 72.90625 
L 76.515625 72.90625 
L 76.515625 0 
L 66.890625 0 
L 66.890625 64.015625 
L 48.09375 14.015625 
L 38.1875 14.015625 
L 19.390625 64.015625 
L 19.390625 0 
L 9.8125 0 
z
" id="DejaVuSans-77"/>
      <path d="M 34.28125 27.484375 
Q 23.390625 27.484375 19.1875 25 
Q 14.984375 22.515625 14.984375 16.5 
Q 14.984375 11.71875 18.140625 8.90625 
Q 21.296875 6.109375 26.703125 6.109375 
Q 34.1875 6.109375 38.703125 11.40625 
Q 43.21875 16.703125 43.21875 25.484375 
L 43.21875 27.484375 
z
M 52.203125 31.203125 
L 52.203125 0 
L 43.21875 0 
L 43.21875 8.296875 
Q 40.140625 3.328125 35.546875 0.953125 
Q 30.953125 -1.421875 24.3125 -1.421875 
Q 15.921875 -1.421875 10.953125 3.296875 
Q 6 8.015625 6 15.921875 
Q 6 25.140625 12.171875 29.828125 
Q 18.359375 34.515625 30.609375 34.515625 
L 43.21875 34.515625 
L 43.21875 35.40625 
Q 43.21875 41.609375 39.140625 45 
Q 35.0625 48.390625 27.6875 48.390625 
Q 23 48.390625 18.546875 47.265625 
Q 14.109375 46.140625 10.015625 43.890625 
L 10.015625 52.203125 
Q 14.9375 54.109375 19.578125 55.046875 
Q 24.21875 56 28.609375 56 
Q 40.484375 56 46.34375 49.84375 
Q 52.203125 43.703125 52.203125 31.203125 
z
" id="DejaVuSans-97"/>
      <path d="M 54.890625 54.6875 
L 35.109375 28.078125 
L 55.90625 0 
L 45.3125 0 
L 29.390625 21.484375 
L 13.484375 0 
L 2.875 0 
L 24.125 28.609375 
L 4.6875 54.6875 
L 15.28125 54.6875 
L 29.78125 35.203125 
L 44.28125 54.6875 
z
" id="DejaVuSans-120"/>
      <path d="M 34.1875 63.1875 
L 20.796875 26.90625 
L 47.609375 26.90625 
z
M 28.609375 72.90625 
L 39.796875 72.90625 
L 67.578125 0 
L 57.328125 0 
L 50.6875 18.703125 
L 17.828125 18.703125 
L 11.1875 0 
L 0.78125 0 
z
" id="DejaVuSans-65"/>
      <path d="M 18.3125 70.21875 
L 18.3125 54.6875 
L 36.8125 54.6875 
L 36.8125 47.703125 
L 18.3125 47.703125 
L 18.3125 18.015625 
Q 18.3125 11.328125 20.140625 9.421875 
Q 21.96875 7.515625 27.59375 7.515625 
L 36.8125 7.515625 
L 36.8125 0 
L 27.59375 0 
Q 17.1875 0 13.234375 3.875 
Q 9.28125 7.765625 9.28125 18.015625 
L 9.28125 47.703125 
L 2.6875 47.703125 
L 2.6875 54.6875 
L 9.28125 54.6875 
L 9.28125 70.21875 
z
" id="DejaVuSans-116"/>
      <path d="M 56.203125 29.59375 
L 56.203125 25.203125 
L 14.890625 25.203125 
Q 15.484375 15.921875 20.484375 11.0625 
Q 25.484375 6.203125 34.421875 6.203125 
Q 39.59375 6.203125 44.453125 7.46875 
Q 49.3125 8.734375 54.109375 11.28125 
L 54.109375 2.78125 
Q 49.265625 0.734375 44.1875 -0.34375 
Q 39.109375 -1.421875 33.890625 -1.421875 
Q 20.796875 -1.421875 13.15625 6.1875 
Q 5.515625 13.8125 5.515625 26.8125 
Q 5.515625 40.234375 12.765625 48.109375 
Q 20.015625 56 32.328125 56 
Q 43.359375 56 49.78125 48.890625 
Q 56.203125 41.796875 56.203125 29.59375 
z
M 47.21875 32.234375 
Q 47.125 39.59375 43.09375 43.984375 
Q 39.0625 48.390625 32.421875 48.390625 
Q 24.90625 48.390625 20.390625 44.140625 
Q 15.875 39.890625 15.1875 32.171875 
z
" id="DejaVuSans-101"/>
      <path d="M 54.890625 33.015625 
L 54.890625 0 
L 45.90625 0 
L 45.90625 32.71875 
Q 45.90625 40.484375 42.875 44.328125 
Q 39.84375 48.1875 33.796875 48.1875 
Q 26.515625 48.1875 22.3125 43.546875 
Q 18.109375 38.921875 18.109375 30.90625 
L 18.109375 0 
L 9.078125 0 
L 9.078125 54.6875 
L 18.109375 54.6875 
L 18.109375 46.1875 
Q 21.34375 51.125 25.703125 53.5625 
Q 30.078125 56 35.796875 56 
Q 45.21875 56 50.046875 50.171875 
Q 54.890625 44.34375 54.890625 33.015625 
z
" id="DejaVuSans-110"/>
      <path d="M 9.421875 54.6875 
L 18.40625 54.6875 
L 18.40625 0 
L 9.421875 0 
z
M 9.421875 75.984375 
L 18.40625 75.984375 
L 18.40625 64.59375 
L 9.421875 64.59375 
z
" id="DejaVuSans-105"/>
      <path d="M 30.609375 48.390625 
Q 23.390625 48.390625 19.1875 42.75 
Q 14.984375 37.109375 14.984375 27.296875 
Q 14.984375 17.484375 19.15625 11.84375 
Q 23.34375 6.203125 30.609375 6.203125 
Q 37.796875 6.203125 41.984375 11.859375 
Q 46.1875 17.53125 46.1875 27.296875 
Q 46.1875 37.015625 41.984375 42.703125 
Q 37.796875 48.390625 30.609375 48.390625 
z
M 30.609375 56 
Q 42.328125 56 49.015625 48.375 
Q 55.71875 40.765625 55.71875 27.296875 
Q 55.71875 13.875 49.015625 6.21875 
Q 42.328125 -1.421875 30.609375 -1.421875 
Q 18.84375 -1.421875 12.171875 6.21875 
Q 5.515625 13.875 5.515625 27.296875 
Q 5.515625 40.765625 12.171875 48.375 
Q 18.84375 56 30.609375 56 
z
" id="DejaVuSans-111"/>
     </defs>
     <g transform="translate(156.619375 315.571328)scale(0.2 -0.2)">
      <use xlink:href="#DejaVuSans-77"/>
      <use x="86.279297" xlink:href="#DejaVuSans-97"/>
      <use x="147.558594" xlink:href="#DejaVuSans-120"/>
      <use x="206.738281" xlink:href="#DejaVuSans-32"/>
      <use x="238.525391" xlink:href="#DejaVuSans-65"/>
      <use x="306.917969" xlink:href="#DejaVuSans-116"/>
      <use x="346.126953" xlink:href="#DejaVuSans-116"/>
      <use x="385.335938" xlink:href="#DejaVuSans-101"/>
      <use x="446.859375" xlink:href="#DejaVuSans-110"/>
      <use x="510.238281" xlink:href="#DejaVuSans-116"/>
      <use x="549.447266" xlink:href="#DejaVuSans-105"/>
      <use x="577.230469" xlink:href="#DejaVuSans-111"/>
      <use x="638.412109" xlink:href="#DejaVuSans-110"/>
     </g>
    </g>
   </g>
   <g id="matplotlib.axis_4">
    <g id="ytick_7">
     <g id="line2d_15">
      <g>
       <use style="stroke:#000000;stroke-width:1.6;" x="100.7" xlink:href="#m5497b6f45d" y="41.647578"/>
      </g>
     </g>
     <g id="text_18">
      <!-- [0.00, -->
      <defs>
       <path d="M 8.59375 75.984375 
L 29.296875 75.984375 
L 29.296875 69 
L 17.578125 69 
L 17.578125 -6.203125 
L 29.296875 -6.203125 
L 29.296875 -13.1875 
L 8.59375 -13.1875 
z
" id="DejaVuSans-91"/>
       <path d="M 11.71875 12.40625 
L 22.015625 12.40625 
L 22.015625 4 
L 14.015625 -11.625 
L 7.71875 -11.625 
L 11.71875 4 
z
" id="DejaVuSans-44"/>
      </defs>
      <g transform="translate(27.309375 38.048203)scale(0.2 -0.2)">
       <use xlink:href="#DejaVuSans-91"/>
       <use x="39.013672" xlink:href="#DejaVuSans-48"/>
       <use x="102.636719" xlink:href="#DejaVuSans-46"/>
       <use x="134.423828" xlink:href="#DejaVuSans-48"/>
       <use x="198.046875" xlink:href="#DejaVuSans-48"/>
       <use x="261.669922" xlink:href="#DejaVuSans-44"/>
      </g>
      <!-- 0.25) -->
      <defs>
       <path d="M 10.796875 72.90625 
L 49.515625 72.90625 
L 49.515625 64.59375 
L 19.828125 64.59375 
L 19.828125 46.734375 
Q 21.96875 47.46875 24.109375 47.828125 
Q 26.265625 48.1875 28.421875 48.1875 
Q 40.625 48.1875 47.75 41.5 
Q 54.890625 34.8125 54.890625 23.390625 
Q 54.890625 11.625 47.5625 5.09375 
Q 40.234375 -1.421875 26.90625 -1.421875 
Q 22.3125 -1.421875 17.546875 -0.640625 
Q 12.796875 0.140625 7.71875 1.703125 
L 7.71875 11.625 
Q 12.109375 9.234375 16.796875 8.0625 
Q 21.484375 6.890625 26.703125 6.890625 
Q 35.15625 6.890625 40.078125 11.328125 
Q 45.015625 15.765625 45.015625 23.390625 
Q 45.015625 31 40.078125 35.4375 
Q 35.15625 39.890625 26.703125 39.890625 
Q 22.75 39.890625 18.8125 39.015625 
Q 14.890625 38.140625 10.796875 36.28125 
z
" id="DejaVuSans-53"/>
       <path d="M 8.015625 75.875 
L 15.828125 75.875 
Q 23.140625 64.359375 26.78125 53.3125 
Q 30.421875 42.28125 30.421875 31.390625 
Q 30.421875 20.453125 26.78125 9.375 
Q 23.140625 -1.703125 15.828125 -13.1875 
L 8.015625 -13.1875 
Q 14.5 -2 17.703125 9.0625 
Q 20.90625 20.125 20.90625 31.390625 
Q 20.90625 42.671875 17.703125 53.65625 
Q 14.5 64.65625 8.015625 75.875 
z
" id="DejaVuSans-41"/>
      </defs>
      <g transform="translate(33.665625 60.443828)scale(0.2 -0.2)">
       <use xlink:href="#DejaVuSans-48"/>
       <use x="63.623047" xlink:href="#DejaVuSans-46"/>
       <use x="95.410156" xlink:href="#DejaVuSans-50"/>
       <use x="159.033203" xlink:href="#DejaVuSans-53"/>
       <use x="222.65625" xlink:href="#DejaVuSans-41"/>
      </g>
     </g>
    </g>
    <g id="ytick_8">
     <g id="line2d_16">
      <g>
       <use style="stroke:#000000;stroke-width:1.6;" x="100.7" xlink:href="#m5497b6f45d" y="104.696328"/>
      </g>
     </g>
     <g id="text_19">
      <!-- [0.25, -->
      <g transform="translate(27.309375 101.096953)scale(0.2 -0.2)">
       <use xlink:href="#DejaVuSans-91"/>
       <use x="39.013672" xlink:href="#DejaVuSans-48"/>
       <use x="102.636719" xlink:href="#DejaVuSans-46"/>
       <use x="134.423828" xlink:href="#DejaVuSans-50"/>
       <use x="198.046875" xlink:href="#DejaVuSans-53"/>
       <use x="261.669922" xlink:href="#DejaVuSans-44"/>
      </g>
      <!-- 0.50) -->
      <g transform="translate(33.665625 123.492578)scale(0.2 -0.2)">
       <use xlink:href="#DejaVuSans-48"/>
       <use x="63.623047" xlink:href="#DejaVuSans-46"/>
       <use x="95.410156" xlink:href="#DejaVuSans-53"/>
       <use x="159.033203" xlink:href="#DejaVuSans-48"/>
       <use x="222.65625" xlink:href="#DejaVuSans-41"/>
      </g>
     </g>
    </g>
    <g id="ytick_9">
     <g id="line2d_17">
      <g>
       <use style="stroke:#000000;stroke-width:1.6;" x="100.7" xlink:href="#m5497b6f45d" y="167.745078"/>
      </g>
     </g>
     <g id="text_20">
      <!-- [0.50, -->
      <g transform="translate(27.309375 164.145703)scale(0.2 -0.2)">
       <use xlink:href="#DejaVuSans-91"/>
       <use x="39.013672" xlink:href="#DejaVuSans-48"/>
       <use x="102.636719" xlink:href="#DejaVuSans-46"/>
       <use x="134.423828" xlink:href="#DejaVuSans-53"/>
       <use x="198.046875" xlink:href="#DejaVuSans-48"/>
       <use x="261.669922" xlink:href="#DejaVuSans-44"/>
      </g>
      <!-- 0.75) -->
      <defs>
       <path d="M 8.203125 72.90625 
L 55.078125 72.90625 
L 55.078125 68.703125 
L 28.609375 0 
L 18.3125 0 
L 43.21875 64.59375 
L 8.203125 64.59375 
z
" id="DejaVuSans-55"/>
      </defs>
      <g transform="translate(33.665625 186.541328)scale(0.2 -0.2)">
       <use xlink:href="#DejaVuSans-48"/>
       <use x="63.623047" xlink:href="#DejaVuSans-46"/>
       <use x="95.410156" xlink:href="#DejaVuSans-55"/>
       <use x="159.033203" xlink:href="#DejaVuSans-53"/>
       <use x="222.65625" xlink:href="#DejaVuSans-41"/>
      </g>
     </g>
    </g>
    <g id="ytick_10">
     <g id="line2d_18">
      <g>
       <use style="stroke:#000000;stroke-width:1.6;" x="100.7" xlink:href="#m5497b6f45d" y="230.793828"/>
      </g>
     </g>
     <g id="text_21">
      <!-- [0.75, -->
      <g transform="translate(27.309375 227.194453)scale(0.2 -0.2)">
       <use xlink:href="#DejaVuSans-91"/>
       <use x="39.013672" xlink:href="#DejaVuSans-48"/>
       <use x="102.636719" xlink:href="#DejaVuSans-46"/>
       <use x="134.423828" xlink:href="#DejaVuSans-55"/>
       <use x="198.046875" xlink:href="#DejaVuSans-53"/>
       <use x="261.669922" xlink:href="#DejaVuSans-44"/>
      </g>
      <!-- 1.00) -->
      <g transform="translate(33.665625 249.590078)scale(0.2 -0.2)">
       <use xlink:href="#DejaVuSans-49"/>
       <use x="63.623047" xlink:href="#DejaVuSans-46"/>
       <use x="95.410156" xlink:href="#DejaVuSans-48"/>
       <use x="159.033203" xlink:href="#DejaVuSans-48"/>
       <use x="222.65625" xlink:href="#DejaVuSans-41"/>
      </g>
     </g>
    </g>
    <g id="text_22">
     <!-- Max JS Divergence within $\epsilon$ -->
     <defs>
      <path d="M 9.8125 72.90625 
L 19.671875 72.90625 
L 19.671875 5.078125 
Q 19.671875 -8.109375 14.671875 -14.0625 
Q 9.671875 -20.015625 -1.421875 -20.015625 
L -5.171875 -20.015625 
L -5.171875 -11.71875 
L -2.09375 -11.71875 
Q 4.4375 -11.71875 7.125 -8.046875 
Q 9.8125 -4.390625 9.8125 5.078125 
z
" id="DejaVuSans-74"/>
      <path d="M 53.515625 70.515625 
L 53.515625 60.890625 
Q 47.90625 63.578125 42.921875 64.890625 
Q 37.9375 66.21875 33.296875 66.21875 
Q 25.25 66.21875 20.875 63.09375 
Q 16.5 59.96875 16.5 54.203125 
Q 16.5 49.359375 19.40625 46.890625 
Q 22.3125 44.4375 30.421875 42.921875 
L 36.375 41.703125 
Q 47.40625 39.59375 52.65625 34.296875 
Q 57.90625 29 57.90625 20.125 
Q 57.90625 9.515625 50.796875 4.046875 
Q 43.703125 -1.421875 29.984375 -1.421875 
Q 24.8125 -1.421875 18.96875 -0.25 
Q 13.140625 0.921875 6.890625 3.21875 
L 6.890625 13.375 
Q 12.890625 10.015625 18.65625 8.296875 
Q 24.421875 6.59375 29.984375 6.59375 
Q 38.421875 6.59375 43.015625 9.90625 
Q 47.609375 13.234375 47.609375 19.390625 
Q 47.609375 24.75 44.3125 27.78125 
Q 41.015625 30.8125 33.5 32.328125 
L 27.484375 33.5 
Q 16.453125 35.6875 11.515625 40.375 
Q 6.59375 45.0625 6.59375 53.421875 
Q 6.59375 63.09375 13.40625 68.65625 
Q 20.21875 74.21875 32.171875 74.21875 
Q 37.3125 74.21875 42.625 73.28125 
Q 47.953125 72.359375 53.515625 70.515625 
z
" id="DejaVuSans-83"/>
      <path d="M 19.671875 64.796875 
L 19.671875 8.109375 
L 31.59375 8.109375 
Q 46.6875 8.109375 53.6875 14.9375 
Q 60.6875 21.78125 60.6875 36.53125 
Q 60.6875 51.171875 53.6875 57.984375 
Q 46.6875 64.796875 31.59375 64.796875 
z
M 9.8125 72.90625 
L 30.078125 72.90625 
Q 51.265625 72.90625 61.171875 64.09375 
Q 71.09375 55.28125 71.09375 36.53125 
Q 71.09375 17.671875 61.125 8.828125 
Q 51.171875 0 30.078125 0 
L 9.8125 0 
z
" id="DejaVuSans-68"/>
      <path d="M 2.984375 54.6875 
L 12.5 54.6875 
L 29.59375 8.796875 
L 46.6875 54.6875 
L 56.203125 54.6875 
L 35.6875 0 
L 23.484375 0 
z
" id="DejaVuSans-118"/>
      <path d="M 41.109375 46.296875 
Q 39.59375 47.171875 37.8125 47.578125 
Q 36.03125 48 33.890625 48 
Q 26.265625 48 22.1875 43.046875 
Q 18.109375 38.09375 18.109375 28.8125 
L 18.109375 0 
L 9.078125 0 
L 9.078125 54.6875 
L 18.109375 54.6875 
L 18.109375 46.1875 
Q 20.953125 51.171875 25.484375 53.578125 
Q 30.03125 56 36.53125 56 
Q 37.453125 56 38.578125 55.875 
Q 39.703125 55.765625 41.0625 55.515625 
z
" id="DejaVuSans-114"/>
      <path d="M 45.40625 27.984375 
Q 45.40625 37.75 41.375 43.109375 
Q 37.359375 48.484375 30.078125 48.484375 
Q 22.859375 48.484375 18.828125 43.109375 
Q 14.796875 37.75 14.796875 27.984375 
Q 14.796875 18.265625 18.828125 12.890625 
Q 22.859375 7.515625 30.078125 7.515625 
Q 37.359375 7.515625 41.375 12.890625 
Q 45.40625 18.265625 45.40625 27.984375 
z
M 54.390625 6.78125 
Q 54.390625 -7.171875 48.1875 -13.984375 
Q 42 -20.796875 29.203125 -20.796875 
Q 24.46875 -20.796875 20.265625 -20.09375 
Q 16.0625 -19.390625 12.109375 -17.921875 
L 12.109375 -9.1875 
Q 16.0625 -11.328125 19.921875 -12.34375 
Q 23.78125 -13.375 27.78125 -13.375 
Q 36.625 -13.375 41.015625 -8.765625 
Q 45.40625 -4.15625 45.40625 5.171875 
L 45.40625 9.625 
Q 42.625 4.78125 38.28125 2.390625 
Q 33.9375 0 27.875 0 
Q 17.828125 0 11.671875 7.65625 
Q 5.515625 15.328125 5.515625 27.984375 
Q 5.515625 40.671875 11.671875 48.328125 
Q 17.828125 56 27.875 56 
Q 33.9375 56 38.28125 53.609375 
Q 42.625 51.21875 45.40625 46.390625 
L 45.40625 54.6875 
L 54.390625 54.6875 
z
" id="DejaVuSans-103"/>
      <path d="M 48.78125 52.59375 
L 48.78125 44.1875 
Q 44.96875 46.296875 41.140625 47.34375 
Q 37.3125 48.390625 33.40625 48.390625 
Q 24.65625 48.390625 19.8125 42.84375 
Q 14.984375 37.3125 14.984375 27.296875 
Q 14.984375 17.28125 19.8125 11.734375 
Q 24.65625 6.203125 33.40625 6.203125 
Q 37.3125 6.203125 41.140625 7.25 
Q 44.96875 8.296875 48.78125 10.40625 
L 48.78125 2.09375 
Q 45.015625 0.34375 40.984375 -0.53125 
Q 36.96875 -1.421875 32.421875 -1.421875 
Q 20.0625 -1.421875 12.78125 6.34375 
Q 5.515625 14.109375 5.515625 27.296875 
Q 5.515625 40.671875 12.859375 48.328125 
Q 20.21875 56 33.015625 56 
Q 37.15625 56 41.109375 55.140625 
Q 45.0625 54.296875 48.78125 52.59375 
z
" id="DejaVuSans-99"/>
      <path d="M 4.203125 54.6875 
L 13.1875 54.6875 
L 24.421875 12.015625 
L 35.59375 54.6875 
L 46.1875 54.6875 
L 57.421875 12.015625 
L 68.609375 54.6875 
L 77.59375 54.6875 
L 63.28125 0 
L 52.6875 0 
L 40.921875 44.828125 
L 29.109375 0 
L 18.5 0 
z
" id="DejaVuSans-119"/>
      <path d="M 54.890625 33.015625 
L 54.890625 0 
L 45.90625 0 
L 45.90625 32.71875 
Q 45.90625 40.484375 42.875 44.328125 
Q 39.84375 48.1875 33.796875 48.1875 
Q 26.515625 48.1875 22.3125 43.546875 
Q 18.109375 38.921875 18.109375 30.90625 
L 18.109375 0 
L 9.078125 0 
L 9.078125 75.984375 
L 18.109375 75.984375 
L 18.109375 46.1875 
Q 21.34375 51.125 25.703125 53.5625 
Q 30.078125 56 35.796875 56 
Q 45.21875 56 50.046875 50.171875 
Q 54.890625 44.34375 54.890625 33.015625 
z
" id="DejaVuSans-104"/>
      <path d="M 19.734375 29.5 
Q 14.453125 30.671875 12.15625 33.84375 
Q 10.453125 36.078125 10.453125 39.109375 
Q 10.453125 47.40625 18.359375 52.25 
Q 24.609375 56.0625 34.1875 56.0625 
Q 37.890625 56.0625 41.9375 55.46875 
Q 46 54.890625 50.53125 53.71875 
L 48.96875 45.5625 
Q 44.484375 46.96875 40.71875 47.609375 
Q 36.859375 48.25 33.40625 48.25 
Q 27.59375 48.25 23.78125 46 
Q 19.1875 43.3125 19.1875 39.40625 
Q 19.1875 36.8125 21.578125 35.015625 
Q 24.421875 32.859375 30.078125 32.859375 
L 37.640625 32.859375 
L 36.234375 25.4375 
L 29 25.4375 
Q 22.265625 25.4375 18.3125 22.953125 
Q 12.9375 19.578125 12.9375 14.3125 
Q 12.9375 10.984375 15.828125 8.796875 
Q 19.4375 6.0625 26.8125 6.0625 
Q 31.34375 6.0625 35.6875 6.9375 
Q 40.046875 7.859375 43.84375 9.671875 
L 42.1875 1.3125 
Q 37.546875 -0.046875 33.296875 -0.734375 
Q 29.046875 -1.421875 25.140625 -1.421875 
Q 13.53125 -1.421875 8.0625 3.03125 
Q 3.90625 6.453125 3.90625 12.203125 
Q 3.90625 19.96875 9.375 24.75 
Q 13.421875 28.328125 19.734375 29.5 
z
" id="DejaVuSans-Oblique-949"/>
     </defs>
     <g transform="translate(19.109375 271.820703)rotate(-90)scale(0.2 -0.2)">
      <use transform="translate(0 0.015625)" xlink:href="#DejaVuSans-77"/>
      <use transform="translate(86.279297 0.015625)" xlink:href="#DejaVuSans-97"/>
      <use transform="translate(147.558594 0.015625)" xlink:href="#DejaVuSans-120"/>
      <use transform="translate(206.738281 0.015625)" xlink:href="#DejaVuSans-32"/>
      <use transform="translate(238.525391 0.015625)" xlink:href="#DejaVuSans-74"/>
      <use transform="translate(268.017578 0.015625)" xlink:href="#DejaVuSans-83"/>
      <use transform="translate(331.494141 0.015625)" xlink:href="#DejaVuSans-32"/>
      <use transform="translate(363.28125 0.015625)" xlink:href="#DejaVuSans-68"/>
      <use transform="translate(440.283203 0.015625)" xlink:href="#DejaVuSans-105"/>
      <use transform="translate(468.066406 0.015625)" xlink:href="#DejaVuSans-118"/>
      <use transform="translate(527.246094 0.015625)" xlink:href="#DejaVuSans-101"/>
      <use transform="translate(588.769531 0.015625)" xlink:href="#DejaVuSans-114"/>
      <use transform="translate(629.882812 0.015625)" xlink:href="#DejaVuSans-103"/>
      <use transform="translate(693.359375 0.015625)" xlink:href="#DejaVuSans-101"/>
      <use transform="translate(754.882812 0.015625)" xlink:href="#DejaVuSans-110"/>
      <use transform="translate(818.261719 0.015625)" xlink:href="#DejaVuSans-99"/>
      <use transform="translate(873.242188 0.015625)" xlink:href="#DejaVuSans-101"/>
      <use transform="translate(934.765625 0.015625)" xlink:href="#DejaVuSans-32"/>
      <use transform="translate(966.552734 0.015625)" xlink:href="#DejaVuSans-119"/>
      <use transform="translate(1048.339844 0.015625)" xlink:href="#DejaVuSans-105"/>
      <use transform="translate(1076.123047 0.015625)" xlink:href="#DejaVuSans-116"/>
      <use transform="translate(1115.332031 0.015625)" xlink:href="#DejaVuSans-104"/>
      <use transform="translate(1178.710938 0.015625)" xlink:href="#DejaVuSans-105"/>
      <use transform="translate(1206.494141 0.015625)" xlink:href="#DejaVuSans-110"/>
      <use transform="translate(1269.873047 0.015625)" xlink:href="#DejaVuSans-32"/>
      <use transform="translate(1301.660156 0.015625)" xlink:href="#DejaVuSans-Oblique-949"/>
     </g>
    </g>
   </g>
   <g id="line2d_19">
    <path clip-path="url(#paea721c2b1)" d="M 296.080886 16.811595 
L 296.080886 66.483561 
" style="fill:none;stroke:#333333;stroke-dasharray:1.5,1.5;stroke-dashoffset:0;"/>
   </g>
   <g id="line2d_20">
    <path clip-path="url(#paea721c2b1)" d="M 297.295501 17.028668 
L 297.295501 66.266489 
" style="fill:none;stroke:#333333;stroke-dasharray:3,3;stroke-dashoffset:0;"/>
   </g>
   <g id="line2d_21">
    <path clip-path="url(#paea721c2b1)" d="M 300.093456 22.279619 
L 300.093456 61.015538 
" style="fill:none;stroke:#333333;stroke-dasharray:1.5,1.5;stroke-dashoffset:0;"/>
   </g>
   <g id="line2d_22">
    <path clip-path="url(#paea721c2b1)" d="M 282.64174 85.377021 
L 282.64174 124.015635 
" style="fill:none;stroke:#333333;stroke-dasharray:1.5,1.5;stroke-dashoffset:0;"/>
   </g>
   <g id="line2d_23">
    <path clip-path="url(#paea721c2b1)" d="M 299.871824 79.790915 
L 299.871824 129.601741 
" style="fill:none;stroke:#333333;stroke-dasharray:3,3;stroke-dashoffset:0;"/>
   </g>
   <g id="line2d_24">
    <path clip-path="url(#paea721c2b1)" d="M 316.504705 85.158537 
L 316.504705 124.234119 
" style="fill:none;stroke:#333333;stroke-dasharray:1.5,1.5;stroke-dashoffset:0;"/>
   </g>
   <g id="line2d_25">
    <path clip-path="url(#paea721c2b1)" d="M 276.232361 150.938944 
L 276.232361 184.551213 
" style="fill:none;stroke:#333333;stroke-dasharray:1.5,1.5;stroke-dashoffset:0;"/>
   </g>
   <g id="line2d_26">
    <path clip-path="url(#paea721c2b1)" d="M 296.960708 142.81306 
L 296.960708 192.677096 
" style="fill:none;stroke:#333333;stroke-dasharray:3,3;stroke-dashoffset:0;"/>
   </g>
   <g id="line2d_27">
    <path clip-path="url(#paea721c2b1)" d="M 314.48206 148.488755 
L 314.48206 187.001401 
" style="fill:none;stroke:#333333;stroke-dasharray:1.5,1.5;stroke-dashoffset:0;"/>
   </g>
   <g id="line2d_28">
    <path clip-path="url(#paea721c2b1)" d="M 248.658875 215.325503 
L 248.658875 246.262154 
" style="fill:none;stroke:#333333;stroke-dasharray:1.5,1.5;stroke-dashoffset:0;"/>
   </g>
   <g id="line2d_29">
    <path clip-path="url(#paea721c2b1)" d="M 279.40835 206.0431 
L 279.40835 255.544557 
" style="fill:none;stroke:#333333;stroke-dasharray:3,3;stroke-dashoffset:0;"/>
   </g>
   <g id="line2d_30">
    <path clip-path="url(#paea721c2b1)" d="M 295.409306 209.105054 
L 295.409306 252.482602 
" style="fill:none;stroke:#333333;stroke-dasharray:1.5,1.5;stroke-dashoffset:0;"/>
   </g>
   <g id="patch_47">
    <path d="M 100.7 262.318203 
L 100.7 10.123203 
" style="fill:none;stroke:#000000;stroke-linecap:square;stroke-linejoin:miter;stroke-width:0.8;"/>
   </g>
   <g id="patch_48">
    <path d="M 100.7 262.318203 
L 352.895 262.318203 
" style="fill:none;stroke:#000000;stroke-linecap:square;stroke-linejoin:miter;stroke-width:0.8;"/>
   </g>
  </g>
 </g>
 <defs>
  <clipPath id="p7f328ae61e">
   <rect height="252.195" width="252.195" x="-266.855" y="10.123203"/>
  </clipPath>
  <clipPath id="paea721c2b1">
   <rect height="252.195" width="252.195" x="100.7" y="10.123203"/>
  </clipPath>
 </defs>
</svg>
