<?xml version="1.0" encoding="utf-8" standalone="no"?>
<!DOCTYPE svg PUBLIC "-//W3C//DTD SVG 1.1//EN"
  "http://www.w3.org/Graphics/SVG/1.1/DTD/svg11.dtd">
<!-- Created with matplotlib (https://matplotlib.org/) -->
<svg height="319.018203pt" version="1.1" viewBox="0 0 356.395 319.018203" width="356.395pt" xmlns="http://www.w3.org/2000/svg" xmlns:xlink="http://www.w3.org/1999/xlink">
 <defs>
  <style type="text/css">
*{stroke-linecap:butt;stroke-linejoin:round;}
  </style>
 </defs>
 <g id="figure_1">
  <g id="patch_1">
   <path d="M 0 319.018203 
L 356.395 319.018203 
L 356.395 -0 
L 0 -0 
z
" style="fill:#ffffff;"/>
  </g>
  <g id="axes_1">
   <g id="patch_2">
    <path d="M -266.855 262.318203 
L -14.66 262.318203 
L -14.66 10.123203 
L -266.855 10.123203 
z
" style="fill:#ffffff;"/>
   </g>
   <g id="patch_3">
    <path clip-path="url(#pf4c01b9e02)" d="M -255.391591 262.318203 
L -249.659886 262.318203 
L -249.659886 161.331028 
L -255.391591 161.331028 
z
" style="fill:#7570b3;opacity:0.6;stroke:#000000;stroke-linejoin:miter;stroke-width:0.5;"/>
   </g>
   <g id="patch_4">
    <path clip-path="url(#pf4c01b9e02)" d="M -249.659886 262.318203 
L -243.928182 262.318203 
L -243.928182 262.318203 
L -249.659886 262.318203 
z
" style="fill:#7570b3;opacity:0.6;stroke:#000000;stroke-linejoin:miter;stroke-width:0.5;"/>
   </g>
   <g id="patch_5">
    <path clip-path="url(#pf4c01b9e02)" d="M -243.928182 262.318203 
L -238.196477 262.318203 
L -238.196477 262.318203 
L -243.928182 262.318203 
z
" style="fill:#7570b3;opacity:0.6;stroke:#000000;stroke-linejoin:miter;stroke-width:0.5;"/>
   </g>
   <g id="patch_6">
    <path clip-path="url(#pf4c01b9e02)" d="M -238.196477 262.318203 
L -232.464773 262.318203 
L -232.464773 262.318203 
L -238.196477 262.318203 
z
" style="fill:#7570b3;opacity:0.6;stroke:#000000;stroke-linejoin:miter;stroke-width:0.5;"/>
   </g>
   <g id="patch_7">
    <path clip-path="url(#pf4c01b9e02)" d="M -232.464773 262.318203 
L -226.733068 262.318203 
L -226.733068 262.318203 
L -232.464773 262.318203 
z
" style="fill:#7570b3;opacity:0.6;stroke:#000000;stroke-linejoin:miter;stroke-width:0.5;"/>
   </g>
   <g id="patch_8">
    <path clip-path="url(#pf4c01b9e02)" d="M -226.733068 262.318203 
L -221.001364 262.318203 
L -221.001364 259.58882 
L -226.733068 259.58882 
z
" style="fill:#7570b3;opacity:0.6;stroke:#000000;stroke-linejoin:miter;stroke-width:0.5;"/>
   </g>
   <g id="patch_9">
    <path clip-path="url(#pf4c01b9e02)" d="M -221.001364 262.318203 
L -215.269659 262.318203 
L -215.269659 259.58882 
L -221.001364 259.58882 
z
" style="fill:#7570b3;opacity:0.6;stroke:#000000;stroke-linejoin:miter;stroke-width:0.5;"/>
   </g>
   <g id="patch_10">
    <path clip-path="url(#pf4c01b9e02)" d="M -215.269659 262.318203 
L -209.537955 262.318203 
L -209.537955 262.318203 
L -215.269659 262.318203 
z
" style="fill:#7570b3;opacity:0.6;stroke:#000000;stroke-linejoin:miter;stroke-width:0.5;"/>
   </g>
   <g id="patch_11">
    <path clip-path="url(#pf4c01b9e02)" d="M -209.537955 262.318203 
L -203.80625 262.318203 
L -203.80625 262.318203 
L -209.537955 262.318203 
z
" style="fill:#7570b3;opacity:0.6;stroke:#000000;stroke-linejoin:miter;stroke-width:0.5;"/>
   </g>
   <g id="patch_12">
    <path clip-path="url(#pf4c01b9e02)" d="M -203.80625 262.318203 
L -198.074545 262.318203 
L -198.074545 259.58882 
L -203.80625 259.58882 
z
" style="fill:#7570b3;opacity:0.6;stroke:#000000;stroke-linejoin:miter;stroke-width:0.5;"/>
   </g>
   <g id="patch_13">
    <path clip-path="url(#pf4c01b9e02)" d="M -198.074545 262.318203 
L -192.342841 262.318203 
L -192.342841 262.318203 
L -198.074545 262.318203 
z
" style="fill:#7570b3;opacity:0.6;stroke:#000000;stroke-linejoin:miter;stroke-width:0.5;"/>
   </g>
   <g id="patch_14">
    <path clip-path="url(#pf4c01b9e02)" d="M -192.342841 262.318203 
L -186.611136 262.318203 
L -186.611136 251.400671 
L -192.342841 251.400671 
z
" style="fill:#7570b3;opacity:0.6;stroke:#000000;stroke-linejoin:miter;stroke-width:0.5;"/>
   </g>
   <g id="patch_15">
    <path clip-path="url(#pf4c01b9e02)" d="M -186.611136 262.318203 
L -180.879432 262.318203 
L -180.879432 256.859437 
L -186.611136 256.859437 
z
" style="fill:#7570b3;opacity:0.6;stroke:#000000;stroke-linejoin:miter;stroke-width:0.5;"/>
   </g>
   <g id="patch_16">
    <path clip-path="url(#pf4c01b9e02)" d="M -180.879432 262.318203 
L -175.147727 262.318203 
L -175.147727 256.859437 
L -180.879432 256.859437 
z
" style="fill:#7570b3;opacity:0.6;stroke:#000000;stroke-linejoin:miter;stroke-width:0.5;"/>
   </g>
   <g id="patch_17">
    <path clip-path="url(#pf4c01b9e02)" d="M -175.147727 262.318203 
L -169.416023 262.318203 
L -169.416023 251.400671 
L -175.147727 251.400671 
z
" style="fill:#7570b3;opacity:0.6;stroke:#000000;stroke-linejoin:miter;stroke-width:0.5;"/>
   </g>
   <g id="patch_18">
    <path clip-path="url(#pf4c01b9e02)" d="M -169.416023 262.318203 
L -163.684318 262.318203 
L -163.684318 251.400671 
L -169.416023 251.400671 
z
" style="fill:#7570b3;opacity:0.6;stroke:#000000;stroke-linejoin:miter;stroke-width:0.5;"/>
   </g>
   <g id="patch_19">
    <path clip-path="url(#pf4c01b9e02)" d="M -163.684318 262.318203 
L -157.952614 262.318203 
L -157.952614 245.941904 
L -163.684318 245.941904 
z
" style="fill:#7570b3;opacity:0.6;stroke:#000000;stroke-linejoin:miter;stroke-width:0.5;"/>
   </g>
   <g id="patch_20">
    <path clip-path="url(#pf4c01b9e02)" d="M -157.952614 262.318203 
L -152.220909 262.318203 
L -152.220909 232.294989 
L -157.952614 232.294989 
z
" style="fill:#7570b3;opacity:0.6;stroke:#000000;stroke-linejoin:miter;stroke-width:0.5;"/>
   </g>
   <g id="patch_21">
    <path clip-path="url(#pf4c01b9e02)" d="M -152.220909 262.318203 
L -146.489205 262.318203 
L -146.489205 218.648073 
L -152.220909 218.648073 
z
" style="fill:#7570b3;opacity:0.6;stroke:#000000;stroke-linejoin:miter;stroke-width:0.5;"/>
   </g>
   <g id="patch_22">
    <path clip-path="url(#pf4c01b9e02)" d="M -146.489205 262.318203 
L -140.7575 262.318203 
L -140.7575 210.459924 
L -146.489205 210.459924 
z
" style="fill:#7570b3;opacity:0.6;stroke:#000000;stroke-linejoin:miter;stroke-width:0.5;"/>
   </g>
   <g id="patch_23">
    <path clip-path="url(#pf4c01b9e02)" d="M -140.7575 262.318203 
L -135.025795 262.318203 
L -135.025795 202.271775 
L -140.7575 202.271775 
z
" style="fill:#7570b3;opacity:0.6;stroke:#000000;stroke-linejoin:miter;stroke-width:0.5;"/>
   </g>
   <g id="patch_24">
    <path clip-path="url(#pf4c01b9e02)" d="M -135.025795 262.318203 
L -129.294091 262.318203 
L -129.294091 172.24856 
L -135.025795 172.24856 
z
" style="fill:#7570b3;opacity:0.6;stroke:#000000;stroke-linejoin:miter;stroke-width:0.5;"/>
   </g>
   <g id="patch_25">
    <path clip-path="url(#pf4c01b9e02)" d="M -129.294091 262.318203 
L -123.562386 262.318203 
L -123.562386 205.001158 
L -129.294091 205.001158 
z
" style="fill:#7570b3;opacity:0.6;stroke:#000000;stroke-linejoin:miter;stroke-width:0.5;"/>
   </g>
   <g id="patch_26">
    <path clip-path="url(#pf4c01b9e02)" d="M -123.562386 262.318203 
L -117.830682 262.318203 
L -117.830682 142.225346 
L -123.562386 142.225346 
z
" style="fill:#7570b3;opacity:0.6;stroke:#000000;stroke-linejoin:miter;stroke-width:0.5;"/>
   </g>
   <g id="patch_27">
    <path clip-path="url(#pf4c01b9e02)" d="M -117.830682 262.318203 
L -112.098977 262.318203 
L -112.098977 95.825833 
L -117.830682 95.825833 
z
" style="fill:#7570b3;opacity:0.6;stroke:#000000;stroke-linejoin:miter;stroke-width:0.5;"/>
   </g>
   <g id="patch_28">
    <path clip-path="url(#pf4c01b9e02)" d="M -112.098977 262.318203 
L -106.367273 262.318203 
L -106.367273 82.178917 
L -112.098977 82.178917 
z
" style="fill:#7570b3;opacity:0.6;stroke:#000000;stroke-linejoin:miter;stroke-width:0.5;"/>
   </g>
   <g id="patch_29">
    <path clip-path="url(#pf4c01b9e02)" d="M -106.367273 262.318203 
L -100.635568 262.318203 
L -100.635568 41.238171 
L -106.367273 41.238171 
z
" style="fill:#7570b3;opacity:0.6;stroke:#000000;stroke-linejoin:miter;stroke-width:0.5;"/>
   </g>
   <g id="patch_30">
    <path clip-path="url(#pf4c01b9e02)" d="M -100.635568 262.318203 
L -94.903864 262.318203 
L -94.903864 22.132489 
L -100.635568 22.132489 
z
" style="fill:#7570b3;opacity:0.6;stroke:#000000;stroke-linejoin:miter;stroke-width:0.5;"/>
   </g>
   <g id="patch_31">
    <path clip-path="url(#pf4c01b9e02)" d="M -94.903864 262.318203 
L -89.172159 262.318203 
L -89.172159 41.238171 
L -94.903864 41.238171 
z
" style="fill:#7570b3;opacity:0.6;stroke:#000000;stroke-linejoin:miter;stroke-width:0.5;"/>
   </g>
   <g id="patch_32">
    <path clip-path="url(#pf4c01b9e02)" d="M -89.172159 262.318203 
L -83.440455 262.318203 
L -83.440455 63.073236 
L -89.172159 63.073236 
z
" style="fill:#7570b3;opacity:0.6;stroke:#000000;stroke-linejoin:miter;stroke-width:0.5;"/>
   </g>
   <g id="patch_33">
    <path clip-path="url(#pf4c01b9e02)" d="M -83.440455 262.318203 
L -77.70875 262.318203 
L -77.70875 49.42632 
L -83.440455 49.42632 
z
" style="fill:#7570b3;opacity:0.6;stroke:#000000;stroke-linejoin:miter;stroke-width:0.5;"/>
   </g>
   <g id="patch_34">
    <path clip-path="url(#pf4c01b9e02)" d="M -77.70875 262.318203 
L -71.977045 262.318203 
L -71.977045 63.073236 
L -77.70875 63.073236 
z
" style="fill:#7570b3;opacity:0.6;stroke:#000000;stroke-linejoin:miter;stroke-width:0.5;"/>
   </g>
   <g id="patch_35">
    <path clip-path="url(#pf4c01b9e02)" d="M -71.977045 262.318203 
L -66.245341 262.318203 
L -66.245341 114.931515 
L -71.977045 114.931515 
z
" style="fill:#7570b3;opacity:0.6;stroke:#000000;stroke-linejoin:miter;stroke-width:0.5;"/>
   </g>
   <g id="patch_36">
    <path clip-path="url(#pf4c01b9e02)" d="M -66.245341 262.318203 
L -60.513636 262.318203 
L -60.513636 166.789794 
L -66.245341 166.789794 
z
" style="fill:#7570b3;opacity:0.6;stroke:#000000;stroke-linejoin:miter;stroke-width:0.5;"/>
   </g>
   <g id="patch_37">
    <path clip-path="url(#pf4c01b9e02)" d="M -60.513636 262.318203 
L -54.781932 262.318203 
L -54.781932 207.730541 
L -60.513636 207.730541 
z
" style="fill:#7570b3;opacity:0.6;stroke:#000000;stroke-linejoin:miter;stroke-width:0.5;"/>
   </g>
   <g id="patch_38">
    <path clip-path="url(#pf4c01b9e02)" d="M -54.781932 262.318203 
L -49.050227 262.318203 
L -49.050227 207.730541 
L -54.781932 207.730541 
z
" style="fill:#7570b3;opacity:0.6;stroke:#000000;stroke-linejoin:miter;stroke-width:0.5;"/>
   </g>
   <g id="patch_39">
    <path clip-path="url(#pf4c01b9e02)" d="M -49.050227 262.318203 
L -43.318523 262.318203 
L -43.318523 229.565606 
L -49.050227 229.565606 
z
" style="fill:#7570b3;opacity:0.6;stroke:#000000;stroke-linejoin:miter;stroke-width:0.5;"/>
   </g>
   <g id="patch_40">
    <path clip-path="url(#pf4c01b9e02)" d="M -43.318523 262.318203 
L -37.586818 262.318203 
L -37.586818 213.189307 
L -43.318523 213.189307 
z
" style="fill:#7570b3;opacity:0.6;stroke:#000000;stroke-linejoin:miter;stroke-width:0.5;"/>
   </g>
   <g id="patch_41">
    <path clip-path="url(#pf4c01b9e02)" d="M -37.586818 262.318203 
L -31.855114 262.318203 
L -31.855114 235.024372 
L -37.586818 235.024372 
z
" style="fill:#7570b3;opacity:0.6;stroke:#000000;stroke-linejoin:miter;stroke-width:0.5;"/>
   </g>
   <g id="patch_42">
    <path clip-path="url(#pf4c01b9e02)" d="M -31.855114 262.318203 
L -26.123409 262.318203 
L -26.123409 256.859437 
L -31.855114 256.859437 
z
" style="fill:#7570b3;opacity:0.6;stroke:#000000;stroke-linejoin:miter;stroke-width:0.5;"/>
   </g>
   <g id="matplotlib.axis_1">
    <g id="xtick_1">
     <g id="line2d_1">
      <defs>
       <path d="M 0 0 
L 0 3.5 
" id="m0ed7e37a8f" style="stroke:#000000;stroke-width:1.6;"/>
      </defs>
      <g/>
     </g>
     <g id="text_1">
      <!-- 0.0 -->
      <defs>
       <path d="M 31.78125 66.40625 
Q 24.171875 66.40625 20.328125 58.90625 
Q 16.5 51.421875 16.5 36.375 
Q 16.5 21.390625 20.328125 13.890625 
Q 24.171875 6.390625 31.78125 6.390625 
Q 39.453125 6.390625 43.28125 13.890625 
Q 47.125 21.390625 47.125 36.375 
Q 47.125 51.421875 43.28125 58.90625 
Q 39.453125 66.40625 31.78125 66.40625 
z
M 31.78125 74.21875 
Q 44.046875 74.21875 50.515625 64.515625 
Q 56.984375 54.828125 56.984375 36.375 
Q 56.984375 17.96875 50.515625 8.265625 
Q 44.046875 -1.421875 31.78125 -1.421875 
Q 19.53125 -1.421875 13.0625 8.265625 
Q 6.59375 17.96875 6.59375 36.375 
Q 6.59375 54.828125 13.0625 64.515625 
Q 19.53125 74.21875 31.78125 74.21875 
z
" id="DejaVuSans-48"/>
       <path d="M 10.6875 12.40625 
L 21 12.40625 
L 21 0 
L 10.6875 0 
z
" id="DejaVuSans-46"/>
      </defs>
      <g transform="translate(-271.294716 292.215078)scale(0.2 -0.2)">
       <use xlink:href="#DejaVuSans-48"/>
       <use x="63.623047" xlink:href="#DejaVuSans-46"/>
       <use x="95.410156" xlink:href="#DejaVuSans-48"/>
      </g>
     </g>
    </g>
    <g id="xtick_2">
     <g id="line2d_2">
      <g/>
     </g>
     <g id="text_2">
      <!-- 0.2 -->
      <defs>
       <path d="M 19.1875 8.296875 
L 53.609375 8.296875 
L 53.609375 0 
L 7.328125 0 
L 7.328125 8.296875 
Q 12.9375 14.109375 22.625 23.890625 
Q 32.328125 33.6875 34.8125 36.53125 
Q 39.546875 41.84375 41.421875 45.53125 
Q 43.3125 49.21875 43.3125 52.78125 
Q 43.3125 58.59375 39.234375 62.25 
Q 35.15625 65.921875 28.609375 65.921875 
Q 23.96875 65.921875 18.8125 64.3125 
Q 13.671875 62.703125 7.8125 59.421875 
L 7.8125 69.390625 
Q 13.765625 71.78125 18.9375 73 
Q 24.125 74.21875 28.421875 74.21875 
Q 39.75 74.21875 46.484375 68.546875 
Q 53.21875 62.890625 53.21875 53.421875 
Q 53.21875 48.921875 51.53125 44.890625 
Q 49.859375 40.875 45.40625 35.40625 
Q 44.1875 33.984375 37.640625 27.21875 
Q 31.109375 20.453125 19.1875 8.296875 
z
" id="DejaVuSans-50"/>
      </defs>
      <g transform="translate(-205.789521 292.215078)scale(0.2 -0.2)">
       <use xlink:href="#DejaVuSans-48"/>
       <use x="63.623047" xlink:href="#DejaVuSans-46"/>
       <use x="95.410156" xlink:href="#DejaVuSans-50"/>
      </g>
     </g>
    </g>
    <g id="xtick_3">
     <g id="line2d_3">
      <g/>
     </g>
     <g id="text_3">
      <!-- 0.4 -->
      <defs>
       <path d="M 37.796875 64.3125 
L 12.890625 25.390625 
L 37.796875 25.390625 
z
M 35.203125 72.90625 
L 47.609375 72.90625 
L 47.609375 25.390625 
L 58.015625 25.390625 
L 58.015625 17.1875 
L 47.609375 17.1875 
L 47.609375 0 
L 37.796875 0 
L 37.796875 17.1875 
L 4.890625 17.1875 
L 4.890625 26.703125 
z
" id="DejaVuSans-52"/>
      </defs>
      <g transform="translate(-140.284326 292.215078)scale(0.2 -0.2)">
       <use xlink:href="#DejaVuSans-48"/>
       <use x="63.623047" xlink:href="#DejaVuSans-46"/>
       <use x="95.410156" xlink:href="#DejaVuSans-52"/>
      </g>
     </g>
    </g>
    <g id="xtick_4">
     <g id="line2d_4">
      <g/>
     </g>
     <g id="text_4">
      <!-- 0.6 -->
      <defs>
       <path d="M 33.015625 40.375 
Q 26.375 40.375 22.484375 35.828125 
Q 18.609375 31.296875 18.609375 23.390625 
Q 18.609375 15.53125 22.484375 10.953125 
Q 26.375 6.390625 33.015625 6.390625 
Q 39.65625 6.390625 43.53125 10.953125 
Q 47.40625 15.53125 47.40625 23.390625 
Q 47.40625 31.296875 43.53125 35.828125 
Q 39.65625 40.375 33.015625 40.375 
z
M 52.59375 71.296875 
L 52.59375 62.3125 
Q 48.875 64.0625 45.09375 64.984375 
Q 41.3125 65.921875 37.59375 65.921875 
Q 27.828125 65.921875 22.671875 59.328125 
Q 17.53125 52.734375 16.796875 39.40625 
Q 19.671875 43.65625 24.015625 45.921875 
Q 28.375 48.1875 33.59375 48.1875 
Q 44.578125 48.1875 50.953125 41.515625 
Q 57.328125 34.859375 57.328125 23.390625 
Q 57.328125 12.15625 50.6875 5.359375 
Q 44.046875 -1.421875 33.015625 -1.421875 
Q 20.359375 -1.421875 13.671875 8.265625 
Q 6.984375 17.96875 6.984375 36.375 
Q 6.984375 53.65625 15.1875 63.9375 
Q 23.390625 74.21875 37.203125 74.21875 
Q 40.921875 74.21875 44.703125 73.484375 
Q 48.484375 72.75 52.59375 71.296875 
z
" id="DejaVuSans-54"/>
      </defs>
      <g transform="translate(-74.779131 292.215078)scale(0.2 -0.2)">
       <use xlink:href="#DejaVuSans-48"/>
       <use x="63.623047" xlink:href="#DejaVuSans-46"/>
       <use x="95.410156" xlink:href="#DejaVuSans-54"/>
      </g>
     </g>
    </g>
    <g id="text_5">
     <!--   -->
     <defs>
      <path id="DejaVuSans-32"/>
     </defs>
     <g transform="translate(-143.935625 315.571328)scale(0.2 -0.2)">
      <use xlink:href="#DejaVuSans-32"/>
     </g>
    </g>
   </g>
   <g id="matplotlib.axis_2">
    <g id="ytick_1">
     <g id="line2d_5">
      <defs>
       <path d="M 0 0 
L -3.5 0 
" id="md650a60c84" style="stroke:#000000;stroke-width:1.6;"/>
      </defs>
      <g/>
     </g>
     <g id="text_6">
      <!-- 0.00 -->
      <g transform="translate(-326.08625 269.916641)scale(0.2 -0.2)">
       <use xlink:href="#DejaVuSans-48"/>
       <use x="63.623047" xlink:href="#DejaVuSans-46"/>
       <use x="95.410156" xlink:href="#DejaVuSans-48"/>
       <use x="159.033203" xlink:href="#DejaVuSans-48"/>
      </g>
     </g>
    </g>
    <g id="ytick_2">
     <g id="line2d_6">
      <g/>
     </g>
     <g id="text_7">
      <!-- 0.02 -->
      <g transform="translate(-326.08625 215.328978)scale(0.2 -0.2)">
       <use xlink:href="#DejaVuSans-48"/>
       <use x="63.623047" xlink:href="#DejaVuSans-46"/>
       <use x="95.410156" xlink:href="#DejaVuSans-48"/>
       <use x="159.033203" xlink:href="#DejaVuSans-50"/>
      </g>
     </g>
    </g>
    <g id="ytick_3">
     <g id="line2d_7">
      <g/>
     </g>
     <g id="text_8">
      <!-- 0.04 -->
      <g transform="translate(-326.08625 160.741316)scale(0.2 -0.2)">
       <use xlink:href="#DejaVuSans-48"/>
       <use x="63.623047" xlink:href="#DejaVuSans-46"/>
       <use x="95.410156" xlink:href="#DejaVuSans-48"/>
       <use x="159.033203" xlink:href="#DejaVuSans-52"/>
      </g>
     </g>
    </g>
    <g id="ytick_4">
     <g id="line2d_8">
      <g/>
     </g>
     <g id="text_9">
      <!-- 0.06 -->
      <g transform="translate(-326.08625 106.153654)scale(0.2 -0.2)">
       <use xlink:href="#DejaVuSans-48"/>
       <use x="63.623047" xlink:href="#DejaVuSans-46"/>
       <use x="95.410156" xlink:href="#DejaVuSans-48"/>
       <use x="159.033203" xlink:href="#DejaVuSans-54"/>
      </g>
     </g>
    </g>
    <g id="ytick_5">
     <g id="line2d_9">
      <g/>
     </g>
     <g id="text_10">
      <!-- 0.08 -->
      <defs>
       <path d="M 31.78125 34.625 
Q 24.75 34.625 20.71875 30.859375 
Q 16.703125 27.09375 16.703125 20.515625 
Q 16.703125 13.921875 20.71875 10.15625 
Q 24.75 6.390625 31.78125 6.390625 
Q 38.8125 6.390625 42.859375 10.171875 
Q 46.921875 13.96875 46.921875 20.515625 
Q 46.921875 27.09375 42.890625 30.859375 
Q 38.875 34.625 31.78125 34.625 
z
M 21.921875 38.8125 
Q 15.578125 40.375 12.03125 44.71875 
Q 8.5 49.078125 8.5 55.328125 
Q 8.5 64.0625 14.71875 69.140625 
Q 20.953125 74.21875 31.78125 74.21875 
Q 42.671875 74.21875 48.875 69.140625 
Q 55.078125 64.0625 55.078125 55.328125 
Q 55.078125 49.078125 51.53125 44.71875 
Q 48 40.375 41.703125 38.8125 
Q 48.828125 37.15625 52.796875 32.3125 
Q 56.78125 27.484375 56.78125 20.515625 
Q 56.78125 9.90625 50.3125 4.234375 
Q 43.84375 -1.421875 31.78125 -1.421875 
Q 19.734375 -1.421875 13.25 4.234375 
Q 6.78125 9.90625 6.78125 20.515625 
Q 6.78125 27.484375 10.78125 32.3125 
Q 14.796875 37.15625 21.921875 38.8125 
z
M 18.3125 54.390625 
Q 18.3125 48.734375 21.84375 45.5625 
Q 25.390625 42.390625 31.78125 42.390625 
Q 38.140625 42.390625 41.71875 45.5625 
Q 45.3125 48.734375 45.3125 54.390625 
Q 45.3125 60.0625 41.71875 63.234375 
Q 38.140625 66.40625 31.78125 66.40625 
Q 25.390625 66.40625 21.84375 63.234375 
Q 18.3125 60.0625 18.3125 54.390625 
z
" id="DejaVuSans-56"/>
      </defs>
      <g transform="translate(-326.08625 51.565991)scale(0.2 -0.2)">
       <use xlink:href="#DejaVuSans-48"/>
       <use x="63.623047" xlink:href="#DejaVuSans-46"/>
       <use x="95.410156" xlink:href="#DejaVuSans-48"/>
       <use x="159.033203" xlink:href="#DejaVuSans-56"/>
      </g>
     </g>
    </g>
    <g id="text_11">
     <!--   -->
     <g transform="translate(-333.7465 139.017453)rotate(-90)scale(0.176 -0.176)">
      <use xlink:href="#DejaVuSans-32"/>
     </g>
    </g>
   </g>
   <g id="patch_43">
    <path style="fill:none;stroke:#000000;stroke-linecap:square;stroke-linejoin:miter;stroke-width:0.8;"/>
   </g>
   <g id="patch_44">
    <path style="fill:none;stroke:#000000;stroke-linecap:square;stroke-linejoin:miter;stroke-width:0.8;"/>
   </g>
  </g>
  <g id="axes_2">
   <g id="patch_45">
    <path d="M 100.7 262.318203 
L 352.895 262.318203 
L 352.895 10.123203 
L 100.7 10.123203 
z
" style="fill:#ffffff;"/>
   </g>
   <g id="PolyCollection_1">
    <defs>
     <path d="M 117.244488 -274.031835 
L 117.244488 -280.709415 
L 119.558763 -280.671539 
L 121.873037 -280.538549 
L 124.187312 -280.321909 
L 126.501586 -280.039594 
L 128.815861 -279.713633 
L 131.130135 -279.367288 
L 133.44441 -279.022373 
L 135.758684 -278.697128 
L 138.072959 -278.404907 
L 140.387233 -278.153751 
L 142.701508 -277.946746 
L 145.015782 -277.78293 
L 147.330057 -277.65849 
L 149.644331 -277.567996 
L 151.958605 -277.505466 
L 154.27288 -277.46516 
L 156.587154 -277.442073 
L 158.901429 -277.432137 
L 161.215703 -277.43222 
L 163.529978 -277.439967 
L 165.844252 -277.453585 
L 168.158527 -277.471621 
L 170.472801 -277.492778 
L 172.787076 -277.515817 
L 175.10135 -277.539532 
L 177.415625 -277.562828 
L 179.729899 -277.584849 
L 182.044174 -277.605161 
L 184.358448 -277.623925 
L 186.672723 -277.642044 
L 188.986997 -277.661242 
L 191.301272 -277.684067 
L 193.615546 -277.713804 
L 195.929821 -277.754329 
L 198.244095 -277.809912 
L 200.55837 -277.885007 
L 202.872644 -277.984052 
L 205.186919 -278.111294 
L 207.501193 -278.27065 
L 209.815468 -278.465595 
L 212.129742 -278.699082 
L 214.444017 -278.973468 
L 216.758291 -279.290474 
L 219.072566 -279.651179 
L 221.38684 -280.056071 
L 223.701115 -280.50519 
L 226.015389 -280.998372 
L 228.329664 -281.535597 
L 230.643938 -282.117409 
L 232.958213 -282.745337 
L 235.272487 -283.422235 
L 237.586762 -284.15244 
L 239.901036 -284.941647 
L 242.215311 -285.796444 
L 244.529585 -286.723501 
L 246.84386 -287.728427 
L 249.158134 -288.814424 
L 251.472409 -289.98085 
L 253.786683 -291.221878 
L 256.100958 -292.525435 
L 258.415232 -293.872596 
L 260.729506 -295.237589 
L 263.043781 -296.588492 
L 265.358055 -297.888665 
L 267.67233 -299.098825 
L 269.986604 -300.179602 
L 272.300879 -301.094325 
L 274.615153 -301.811707 
L 276.929428 -302.308115 
L 279.243702 -302.569115 
L 281.557977 -302.590125 
L 283.872251 -302.376095 
L 286.186526 -301.940324 
L 288.5008 -301.302644 
L 290.815075 -300.487293 
L 293.129349 -299.520819 
L 295.443624 -298.430332 
L 297.757898 -297.24226 
L 300.072173 -295.981694 
L 302.386447 -294.672199 
L 304.700722 -293.335934 
L 307.014996 -291.99385 
L 309.329271 -290.665776 
L 311.643545 -289.370291 
L 313.95782 -288.12436 
L 316.272094 -286.942799 
L 318.586369 -285.837705 
L 320.900643 -284.817964 
L 323.214918 -283.888961 
L 325.529192 -283.052541 
L 327.843467 -282.307237 
L 330.157741 -281.648733 
L 332.472016 -281.070504 
L 334.78629 -280.564548 
L 337.100565 -280.122162 
L 339.414839 -279.734658 
L 341.729114 -279.393976 
L 344.043388 -279.093133 
L 346.357663 -278.826477 
L 346.357663 -275.914773 
L 346.357663 -275.914773 
L 344.043388 -275.648117 
L 341.729114 -275.347274 
L 339.414839 -275.006592 
L 337.100565 -274.619088 
L 334.78629 -274.176702 
L 332.472016 -273.670746 
L 330.157741 -273.092517 
L 327.843467 -272.434013 
L 325.529192 -271.688709 
L 323.214918 -270.852289 
L 320.900643 -269.923286 
L 318.586369 -268.903545 
L 316.272094 -267.798451 
L 313.95782 -266.61689 
L 311.643545 -265.370959 
L 309.329271 -264.075474 
L 307.014996 -262.7474 
L 304.700722 -261.405316 
L 302.386447 -260.069051 
L 300.072173 -258.759556 
L 297.757898 -257.49899 
L 295.443624 -256.310918 
L 293.129349 -255.220431 
L 290.815075 -254.253957 
L 288.5008 -253.438606 
L 286.186526 -252.800926 
L 283.872251 -252.365155 
L 281.557977 -252.151125 
L 279.243702 -252.172135 
L 276.929428 -252.433135 
L 274.615153 -252.929543 
L 272.300879 -253.646925 
L 269.986604 -254.561648 
L 267.67233 -255.642425 
L 265.358055 -256.852585 
L 263.043781 -258.152758 
L 260.729506 -259.503661 
L 258.415232 -260.868654 
L 256.100958 -262.215815 
L 253.786683 -263.519372 
L 251.472409 -264.7604 
L 249.158134 -265.926826 
L 246.84386 -267.012823 
L 244.529585 -268.017749 
L 242.215311 -268.944806 
L 239.901036 -269.799603 
L 237.586762 -270.58881 
L 235.272487 -271.319015 
L 232.958213 -271.995913 
L 230.643938 -272.623841 
L 228.329664 -273.205653 
L 226.015389 -273.742878 
L 223.701115 -274.23606 
L 221.38684 -274.685179 
L 219.072566 -275.090071 
L 216.758291 -275.450776 
L 214.444017 -275.767782 
L 212.129742 -276.042168 
L 209.815468 -276.275655 
L 207.501193 -276.4706 
L 205.186919 -276.629956 
L 202.872644 -276.757198 
L 200.55837 -276.856243 
L 198.244095 -276.931338 
L 195.929821 -276.986921 
L 193.615546 -277.027446 
L 191.301272 -277.057183 
L 188.986997 -277.080008 
L 186.672723 -277.099206 
L 184.358448 -277.117325 
L 182.044174 -277.136089 
L 179.729899 -277.156401 
L 177.415625 -277.178422 
L 175.10135 -277.201718 
L 172.787076 -277.225433 
L 170.472801 -277.248472 
L 168.158527 -277.269629 
L 165.844252 -277.287665 
L 163.529978 -277.301283 
L 161.215703 -277.30903 
L 158.901429 -277.309113 
L 156.587154 -277.299177 
L 154.27288 -277.27609 
L 151.958605 -277.235784 
L 149.644331 -277.173254 
L 147.330057 -277.08276 
L 145.015782 -276.95832 
L 142.701508 -276.794504 
L 140.387233 -276.587499 
L 138.072959 -276.336343 
L 135.758684 -276.044122 
L 133.44441 -275.718877 
L 131.130135 -275.373962 
L 128.815861 -275.027617 
L 126.501586 -274.701656 
L 124.187312 -274.419341 
L 121.873037 -274.202701 
L 119.558763 -274.069711 
L 117.244488 -274.031835 
z
" id="mc41206957c" style="stroke:#575757;"/>
    </defs>
    <g clip-path="url(#p8451161fd0)">
     <use style="fill:#7c78ab;stroke:#575757;" x="0" xlink:href="#mc41206957c" y="319.018203"/>
    </g>
   </g>
   <g id="PolyCollection_2">
    <defs>
     <path d="M 117.273867 -213.164759 
L 117.273867 -215.478991 
L 119.608048 -215.464928 
L 121.942228 -215.410988 
L 124.276408 -215.324141 
L 126.610588 -215.21469 
L 128.944768 -215.094504 
L 131.278948 -214.975102 
L 133.613129 -214.866011 
L 135.947309 -214.773691 
L 138.281489 -214.701163 
L 140.615669 -214.648308 
L 142.949849 -214.612666 
L 145.284029 -214.590493 
L 147.618209 -214.577821 
L 149.95239 -214.571336 
L 152.28657 -214.568931 
L 154.62075 -214.569893 
L 156.95493 -214.574763 
L 159.28911 -214.58496 
L 161.62329 -214.602278 
L 163.957471 -214.628399 
L 166.291651 -214.664502 
L 168.625831 -214.711039 
L 170.960011 -214.767703 
L 173.294191 -214.83356 
L 175.628371 -214.907314 
L 177.962551 -214.987671 
L 180.296732 -215.073737 
L 182.630912 -215.165404 
L 184.965092 -215.263679 
L 187.299272 -215.370885 
L 189.633452 -215.490708 
L 191.967632 -215.628045 
L 194.301813 -215.788674 
L 196.635993 -215.978772 
L 198.970173 -216.204332 
L 201.304353 -216.470541 
L 203.638533 -216.781142 
L 205.972713 -217.137844 
L 208.306893 -217.539814 
L 210.641074 -217.983325 
L 212.975254 -218.461681 
L 215.309434 -218.965524 
L 217.643614 -219.483625 
L 219.977794 -220.004169 
L 222.311974 -220.516419 
L 224.646155 -221.012539 
L 226.980335 -221.489229 
L 229.314515 -221.948861 
L 231.648695 -222.399793 
L 233.982875 -222.855721 
L 236.317055 -223.334067 
L 238.651235 -223.853562 
L 240.985416 -224.43138 
L 243.319596 -225.080251 
L 245.653776 -225.80608 
L 247.987956 -226.606542 
L 250.322136 -227.471037 
L 252.656316 -228.382106 
L 254.990496 -229.318128 
L 257.324677 -230.256784 
L 259.658857 -231.178558 
L 261.993037 -232.069489 
L 264.327217 -232.922578 
L 266.661397 -233.737549 
L 268.995577 -234.519067 
L 271.329758 -235.273823 
L 273.663938 -236.007081 
L 275.998118 -236.719315 
L 278.332298 -237.403478 
L 280.666478 -238.043346 
L 283.000658 -238.613236 
L 285.334838 -239.079271 
L 287.669019 -239.402177 
L 290.003199 -239.541375 
L 292.337379 -239.459865 
L 294.671559 -239.129219 
L 297.005739 -238.533902 
L 299.339919 -237.674244 
L 301.6741 -236.567614 
L 304.00828 -235.24766 
L 306.34246 -233.761765 
L 308.67664 -232.167072 
L 311.01082 -230.525569 
L 313.345 -228.898761 
L 315.67918 -227.34248 
L 318.013361 -225.902368 
L 320.347541 -224.610507 
L 322.681721 -223.483589 
L 325.015901 -222.522814 
L 327.350081 -221.715509 
L 329.684261 -221.038216 
L 332.018442 -220.460788 
L 334.352622 -219.950933 
L 336.686802 -219.478575 
L 339.020982 -219.019452 
L 341.355162 -218.557523 
L 343.689342 -218.0859 
L 346.023522 -217.606315 
L 348.357703 -217.127329 
L 348.357703 -211.516421 
L 348.357703 -211.516421 
L 346.023522 -211.037435 
L 343.689342 -210.55785 
L 341.355162 -210.086227 
L 339.020982 -209.624298 
L 336.686802 -209.165175 
L 334.352622 -208.692817 
L 332.018442 -208.182962 
L 329.684261 -207.605534 
L 327.350081 -206.928241 
L 325.015901 -206.120936 
L 322.681721 -205.160161 
L 320.347541 -204.033243 
L 318.013361 -202.741382 
L 315.67918 -201.30127 
L 313.345 -199.744989 
L 311.01082 -198.118181 
L 308.67664 -196.476678 
L 306.34246 -194.881985 
L 304.00828 -193.39609 
L 301.6741 -192.076136 
L 299.339919 -190.969506 
L 297.005739 -190.109848 
L 294.671559 -189.514531 
L 292.337379 -189.183885 
L 290.003199 -189.102375 
L 287.669019 -189.241573 
L 285.334838 -189.564479 
L 283.000658 -190.030514 
L 280.666478 -190.600404 
L 278.332298 -191.240272 
L 275.998118 -191.924435 
L 273.663938 -192.636669 
L 271.329758 -193.369927 
L 268.995577 -194.124683 
L 266.661397 -194.906201 
L 264.327217 -195.721172 
L 261.993037 -196.574261 
L 259.658857 -197.465192 
L 257.324677 -198.386966 
L 254.990496 -199.325622 
L 252.656316 -200.261644 
L 250.322136 -201.172713 
L 247.987956 -202.037208 
L 245.653776 -202.83767 
L 243.319596 -203.563499 
L 240.985416 -204.21237 
L 238.651235 -204.790188 
L 236.317055 -205.309683 
L 233.982875 -205.788029 
L 231.648695 -206.243957 
L 229.314515 -206.694889 
L 226.980335 -207.154521 
L 224.646155 -207.631211 
L 222.311974 -208.127331 
L 219.977794 -208.639581 
L 217.643614 -209.160125 
L 215.309434 -209.678226 
L 212.975254 -210.182069 
L 210.641074 -210.660425 
L 208.306893 -211.103936 
L 205.972713 -211.505906 
L 203.638533 -211.862608 
L 201.304353 -212.173209 
L 198.970173 -212.439418 
L 196.635993 -212.664978 
L 194.301813 -212.855076 
L 191.967632 -213.015705 
L 189.633452 -213.153042 
L 187.299272 -213.272865 
L 184.965092 -213.380071 
L 182.630912 -213.478346 
L 180.296732 -213.570013 
L 177.962551 -213.656079 
L 175.628371 -213.736436 
L 173.294191 -213.81019 
L 170.960011 -213.876047 
L 168.625831 -213.932711 
L 166.291651 -213.979248 
L 163.957471 -214.015351 
L 161.62329 -214.041472 
L 159.28911 -214.05879 
L 156.95493 -214.068987 
L 154.62075 -214.073857 
L 152.28657 -214.074819 
L 149.95239 -214.072414 
L 147.618209 -214.065929 
L 145.284029 -214.053257 
L 142.949849 -214.031084 
L 140.615669 -213.995442 
L 138.281489 -213.942587 
L 135.947309 -213.870059 
L 133.613129 -213.777739 
L 131.278948 -213.668648 
L 128.944768 -213.549246 
L 126.610588 -213.42906 
L 124.276408 -213.319609 
L 121.942228 -213.232762 
L 119.608048 -213.178822 
L 117.273867 -213.164759 
z
" id="m2bfb41da8d" style="stroke:#575757;"/>
    </defs>
    <g clip-path="url(#p8451161fd0)">
     <use style="fill:#7c78ab;stroke:#575757;" x="0" xlink:href="#m2bfb41da8d" y="319.018203"/>
    </g>
   </g>
   <g id="PolyCollection_3">
    <defs>
     <path d="M 158.149485 -150.693714 
L 158.149485 -151.852536 
L 160.028715 -151.879865 
L 161.907945 -151.907966 
L 163.787175 -151.938996 
L 165.666405 -151.975507 
L 167.545635 -152.020301 
L 169.424865 -152.076251 
L 171.304095 -152.1461 
L 173.183325 -152.232257 
L 175.062554 -152.336595 
L 176.941784 -152.460294 
L 178.821014 -152.603723 
L 180.700244 -152.766389 
L 182.579474 -152.946955 
L 184.458704 -153.143336 
L 186.337934 -153.352864 
L 188.217164 -153.572512 
L 190.096394 -153.799162 
L 191.975624 -154.02989 
L 193.854854 -154.262245 
L 195.734084 -154.494488 
L 197.613314 -154.725772 
L 199.492544 -154.956234 
L 201.371774 -155.186993 
L 203.251004 -155.420047 
L 205.130234 -155.658069 
L 207.009464 -155.904133 
L 208.888693 -156.161382 
L 210.767923 -156.432683 
L 212.647153 -156.720293 
L 214.526383 -157.025577 
L 216.405613 -157.348801 
L 218.284843 -157.689031 
L 220.164073 -158.044129 
L 222.043303 -158.410865 
L 223.922533 -158.785127 
L 225.801763 -159.162203 
L 227.680993 -159.537119 
L 229.560223 -159.905001 
L 231.439453 -160.261428 
L 233.318683 -160.602754 
L 235.197913 -160.926369 
L 237.077143 -161.230875 
L 238.956373 -161.516182 
L 240.835603 -161.783485 
L 242.714832 -162.035166 
L 244.594062 -162.274592 
L 246.473292 -162.505863 
L 248.352522 -162.733517 
L 250.231752 -162.962238 
L 252.110982 -163.196595 
L 253.990212 -163.440848 
L 255.869442 -163.698838 
L 257.748672 -163.97398 
L 259.627902 -164.269337 
L 261.507132 -164.587765 
L 263.386362 -164.932089 
L 265.265592 -165.305255 
L 267.144822 -165.710422 
L 269.024052 -166.150943 
L 270.903282 -166.630214 
L 272.782512 -167.151367 
L 274.661741 -167.716842 
L 276.540971 -168.327847 
L 278.420201 -168.983776 
L 280.299431 -169.681642 
L 282.178661 -170.415596 
L 284.057891 -171.176597 
L 285.937121 -171.952289 
L 287.816351 -172.727122 
L 289.695581 -173.482746 
L 291.574811 -174.198656 
L 293.454041 -174.853073 
L 295.333271 -175.424017 
L 297.212501 -175.890481 
L 299.091731 -176.233656 
L 300.970961 -176.438075 
L 302.850191 -176.492625 
L 304.729421 -176.391298 
L 306.608651 -176.133633 
L 308.48788 -175.724786 
L 310.36711 -175.175212 
L 312.24634 -174.499966 
L 314.12557 -173.717683 
L 316.0048 -172.849315 
L 317.88403 -171.916742 
L 319.76326 -170.941371 
L 321.64249 -169.942872 
L 323.52172 -168.938138 
L 325.40095 -167.940584 
L 327.28018 -166.959814 
L 329.15941 -166.001681 
L 331.03864 -165.068694 
L 332.91787 -164.160708 
L 334.7971 -163.275791 
L 336.67633 -162.411171 
L 338.55556 -161.564131 
L 340.434789 -160.732772 
L 342.314019 -159.916558 
L 344.193249 -159.116611 
L 344.193249 -143.429639 
L 344.193249 -143.429639 
L 342.314019 -142.629692 
L 340.434789 -141.813478 
L 338.55556 -140.982119 
L 336.67633 -140.135079 
L 334.7971 -139.270459 
L 332.91787 -138.385542 
L 331.03864 -137.477556 
L 329.15941 -136.544569 
L 327.28018 -135.586436 
L 325.40095 -134.605666 
L 323.52172 -133.608112 
L 321.64249 -132.603378 
L 319.76326 -131.604879 
L 317.88403 -130.629508 
L 316.0048 -129.696935 
L 314.12557 -128.828567 
L 312.24634 -128.046284 
L 310.36711 -127.371038 
L 308.48788 -126.821464 
L 306.608651 -126.412617 
L 304.729421 -126.154952 
L 302.850191 -126.053625 
L 300.970961 -126.108175 
L 299.091731 -126.312594 
L 297.212501 -126.655769 
L 295.333271 -127.122233 
L 293.454041 -127.693177 
L 291.574811 -128.347594 
L 289.695581 -129.063504 
L 287.816351 -129.819128 
L 285.937121 -130.593961 
L 284.057891 -131.369653 
L 282.178661 -132.130654 
L 280.299431 -132.864608 
L 278.420201 -133.562474 
L 276.540971 -134.218403 
L 274.661741 -134.829408 
L 272.782512 -135.394883 
L 270.903282 -135.916036 
L 269.024052 -136.395307 
L 267.144822 -136.835828 
L 265.265592 -137.240995 
L 263.386362 -137.614161 
L 261.507132 -137.958485 
L 259.627902 -138.276913 
L 257.748672 -138.57227 
L 255.869442 -138.847412 
L 253.990212 -139.105402 
L 252.110982 -139.349655 
L 250.231752 -139.584012 
L 248.352522 -139.812733 
L 246.473292 -140.040387 
L 244.594062 -140.271658 
L 242.714832 -140.511084 
L 240.835603 -140.762765 
L 238.956373 -141.030068 
L 237.077143 -141.315375 
L 235.197913 -141.619881 
L 233.318683 -141.943496 
L 231.439453 -142.284822 
L 229.560223 -142.641249 
L 227.680993 -143.009131 
L 225.801763 -143.384047 
L 223.922533 -143.761123 
L 222.043303 -144.135385 
L 220.164073 -144.502121 
L 218.284843 -144.857219 
L 216.405613 -145.197449 
L 214.526383 -145.520673 
L 212.647153 -145.825957 
L 210.767923 -146.113567 
L 208.888693 -146.384868 
L 207.009464 -146.642117 
L 205.130234 -146.888181 
L 203.251004 -147.126203 
L 201.371774 -147.359257 
L 199.492544 -147.590016 
L 197.613314 -147.820478 
L 195.734084 -148.051762 
L 193.854854 -148.284005 
L 191.975624 -148.51636 
L 190.096394 -148.747088 
L 188.217164 -148.973738 
L 186.337934 -149.193386 
L 184.458704 -149.402914 
L 182.579474 -149.599295 
L 180.700244 -149.779861 
L 178.821014 -149.942527 
L 176.941784 -150.085956 
L 175.062554 -150.209655 
L 173.183325 -150.313993 
L 171.304095 -150.40015 
L 169.424865 -150.469999 
L 167.545635 -150.525949 
L 165.666405 -150.570743 
L 163.787175 -150.607254 
L 161.907945 -150.638284 
L 160.028715 -150.666385 
L 158.149485 -150.693714 
z
" id="mcad5bda0ff" style="stroke:#575757;"/>
    </defs>
    <g clip-path="url(#p8451161fd0)">
     <use style="fill:#7c78ab;stroke:#575757;" x="0" xlink:href="#mcad5bda0ff" y="319.018203"/>
    </g>
   </g>
   <g id="PolyCollection_4">
    <defs>
     <path d="M 254.034937 -76.865475 
L 254.034937 -99.583275 
L 254.804557 -100.342085 
L 255.574178 -101.107934 
L 256.343798 -101.876889 
L 257.113418 -102.644962 
L 257.883038 -103.408175 
L 258.652658 -104.162611 
L 259.422278 -104.904477 
L 260.191898 -105.630148 
L 260.961518 -106.336211 
L 261.731138 -107.019504 
L 262.500758 -107.677141 
L 263.270378 -108.306526 
L 264.039998 -108.905367 
L 264.809618 -109.471673 
L 265.579238 -110.003744 
L 266.348858 -110.500161 
L 267.118478 -110.959761 
L 267.888098 -111.381617 
L 268.657718 -111.765013 
L 269.427338 -112.109415 
L 270.196958 -112.414454 
L 270.966578 -112.679904 
L 271.736198 -112.905665 
L 272.505818 -113.091756 
L 273.275438 -113.23831 
L 274.045058 -113.345577 
L 274.814678 -113.41393 
L 275.584298 -113.443875 
L 276.353918 -113.43607 
L 277.123538 -113.391338 
L 277.893158 -113.310686 
L 278.662778 -113.195321 
L 279.432398 -113.046659 
L 280.202019 -112.866341 
L 280.971639 -112.656227 
L 281.741259 -112.418401 
L 282.510879 -112.155155 
L 283.280499 -111.868974 
L 284.050119 -111.562513 
L 284.819739 -111.238566 
L 285.589359 -110.900029 
L 286.358979 -110.549866 
L 287.128599 -110.191063 
L 287.898219 -109.826588 
L 288.667839 -109.459347 
L 289.437459 -109.092149 
L 290.207079 -108.727663 
L 290.976699 -108.368393 
L 291.746319 -108.016652 
L 292.515939 -107.674536 
L 293.285559 -107.343917 
L 294.055179 -107.026437 
L 294.824799 -106.723503 
L 295.594419 -106.436292 
L 296.364039 -106.165768 
L 297.133659 -105.912686 
L 297.903279 -105.677612 
L 298.672899 -105.460941 
L 299.442519 -105.26291 
L 300.212139 -105.083618 
L 300.981759 -104.923035 
L 301.751379 -104.781015 
L 302.520999 -104.657301 
L 303.290619 -104.55153 
L 304.06024 -104.463227 
L 304.82986 -104.391802 
L 305.59948 -104.33654 
L 306.3691 -104.296585 
L 307.13872 -104.27093 
L 307.90834 -104.258399 
L 308.67796 -104.257628 
L 309.44758 -104.267058 
L 310.2172 -104.284915 
L 310.98682 -104.309211 
L 311.75644 -104.337738 
L 312.52606 -104.368074 
L 313.29568 -104.397596 
L 314.0653 -104.423501 
L 314.83492 -104.442832 
L 315.60454 -104.452519 
L 316.37416 -104.449421 
L 317.14378 -104.430379 
L 317.9134 -104.392273 
L 318.68302 -104.332084 
L 319.45264 -104.246959 
L 320.22226 -104.134276 
L 320.99188 -103.991708 
L 321.7615 -103.817283 
L 322.53112 -103.609441 
L 323.30074 -103.367077 
L 324.07036 -103.089584 
L 324.83998 -102.776879 
L 325.6096 -102.429415 
L 326.37922 -102.048187 
L 327.14884 -101.63472 
L 327.918461 -101.191046 
L 328.688081 -100.719669 
L 329.457701 -100.223516 
L 330.227321 -99.705881 
L 330.227321 -76.742869 
L 330.227321 -76.742869 
L 329.457701 -76.225234 
L 328.688081 -75.729081 
L 327.918461 -75.257704 
L 327.14884 -74.81403 
L 326.37922 -74.400563 
L 325.6096 -74.019335 
L 324.83998 -73.671871 
L 324.07036 -73.359166 
L 323.30074 -73.081673 
L 322.53112 -72.839309 
L 321.7615 -72.631467 
L 320.99188 -72.457042 
L 320.22226 -72.314474 
L 319.45264 -72.201791 
L 318.68302 -72.116666 
L 317.9134 -72.056477 
L 317.14378 -72.018371 
L 316.37416 -71.999329 
L 315.60454 -71.996231 
L 314.83492 -72.005918 
L 314.0653 -72.025249 
L 313.29568 -72.051154 
L 312.52606 -72.080676 
L 311.75644 -72.111012 
L 310.98682 -72.139539 
L 310.2172 -72.163835 
L 309.44758 -72.181692 
L 308.67796 -72.191122 
L 307.90834 -72.190351 
L 307.13872 -72.17782 
L 306.3691 -72.152165 
L 305.59948 -72.11221 
L 304.82986 -72.056948 
L 304.06024 -71.985523 
L 303.290619 -71.89722 
L 302.520999 -71.791449 
L 301.751379 -71.667735 
L 300.981759 -71.525715 
L 300.212139 -71.365132 
L 299.442519 -71.18584 
L 298.672899 -70.987809 
L 297.903279 -70.771138 
L 297.133659 -70.536064 
L 296.364039 -70.282982 
L 295.594419 -70.012458 
L 294.824799 -69.725247 
L 294.055179 -69.422313 
L 293.285559 -69.104833 
L 292.515939 -68.774214 
L 291.746319 -68.432098 
L 290.976699 -68.080357 
L 290.207079 -67.721087 
L 289.437459 -67.356601 
L 288.667839 -66.989403 
L 287.898219 -66.622162 
L 287.128599 -66.257687 
L 286.358979 -65.898884 
L 285.589359 -65.548721 
L 284.819739 -65.210184 
L 284.050119 -64.886237 
L 283.280499 -64.579776 
L 282.510879 -64.293595 
L 281.741259 -64.030349 
L 280.971639 -63.792523 
L 280.202019 -63.582409 
L 279.432398 -63.402091 
L 278.662778 -63.253429 
L 277.893158 -63.138064 
L 277.123538 -63.057412 
L 276.353918 -63.01268 
L 275.584298 -63.004875 
L 274.814678 -63.03482 
L 274.045058 -63.103173 
L 273.275438 -63.21044 
L 272.505818 -63.356994 
L 271.736198 -63.543085 
L 270.966578 -63.768846 
L 270.196958 -64.034296 
L 269.427338 -64.339335 
L 268.657718 -64.683737 
L 267.888098 -65.067133 
L 267.118478 -65.488989 
L 266.348858 -65.948589 
L 265.579238 -66.445006 
L 264.809618 -66.977077 
L 264.039998 -67.543383 
L 263.270378 -68.142224 
L 262.500758 -68.771609 
L 261.731138 -69.429246 
L 260.961518 -70.112539 
L 260.191898 -70.818602 
L 259.422278 -71.544273 
L 258.652658 -72.286139 
L 257.883038 -73.040575 
L 257.113418 -73.803788 
L 256.343798 -74.571861 
L 255.574178 -75.340816 
L 254.804557 -76.106665 
L 254.034937 -76.865475 
z
" id="m33423efe86" style="stroke:#575757;"/>
    </defs>
    <g clip-path="url(#p8451161fd0)">
     <use style="fill:#7c78ab;stroke:#575757;" x="0" xlink:href="#m33423efe86" y="319.018203"/>
    </g>
   </g>
   <g id="patch_46">
    <path clip-path="url(#p8451161fd0)" d="M 117.513 41.647578 
L 117.513 41.647578 
L 117.513 41.647578 
L 117.513 41.647578 
z
" style="fill:#7c78ab;stroke:#575757;stroke-linejoin:miter;stroke-width:0.5;"/>
   </g>
   <g id="matplotlib.axis_3">
    <g id="xtick_5">
     <g id="line2d_10">
      <g>
       <use style="stroke:#000000;stroke-width:1.6;" x="117.513" xlink:href="#m0ed7e37a8f" y="262.318203"/>
      </g>
     </g>
     <g id="text_12">
      <!-- 0.0 -->
      <g transform="translate(101.609875 292.215078)scale(0.2 -0.2)">
       <use xlink:href="#DejaVuSans-48"/>
       <use x="63.623047" xlink:href="#DejaVuSans-46"/>
       <use x="95.410156" xlink:href="#DejaVuSans-48"/>
      </g>
     </g>
    </g>
    <g id="xtick_6">
     <g id="line2d_11">
      <g>
       <use style="stroke:#000000;stroke-width:1.6;" x="184.765" xlink:href="#m0ed7e37a8f" y="262.318203"/>
      </g>
     </g>
     <g id="text_13">
      <!-- 0.2 -->
      <g transform="translate(168.861875 292.215078)scale(0.2 -0.2)">
       <use xlink:href="#DejaVuSans-48"/>
       <use x="63.623047" xlink:href="#DejaVuSans-46"/>
       <use x="95.410156" xlink:href="#DejaVuSans-50"/>
      </g>
     </g>
    </g>
    <g id="xtick_7">
     <g id="line2d_12">
      <g>
       <use style="stroke:#000000;stroke-width:1.6;" x="252.017" xlink:href="#m0ed7e37a8f" y="262.318203"/>
      </g>
     </g>
     <g id="text_14">
      <!-- 0.4 -->
      <g transform="translate(236.113875 292.215078)scale(0.2 -0.2)">
       <use xlink:href="#DejaVuSans-48"/>
       <use x="63.623047" xlink:href="#DejaVuSans-46"/>
       <use x="95.410156" xlink:href="#DejaVuSans-52"/>
      </g>
     </g>
    </g>
    <g id="xtick_8">
     <g id="line2d_13">
      <g>
       <use style="stroke:#000000;stroke-width:1.6;" x="319.269" xlink:href="#m0ed7e37a8f" y="262.318203"/>
      </g>
     </g>
     <g id="text_15">
      <!-- 0.6 -->
      <g transform="translate(303.365875 292.215078)scale(0.2 -0.2)">
       <use xlink:href="#DejaVuSans-48"/>
       <use x="63.623047" xlink:href="#DejaVuSans-46"/>
       <use x="95.410156" xlink:href="#DejaVuSans-54"/>
      </g>
     </g>
    </g>
    <g id="text_16">
     <!-- Max Attention -->
     <defs>
      <path d="M 9.8125 72.90625 
L 24.515625 72.90625 
L 43.109375 23.296875 
L 61.8125 72.90625 
L 76.515625 72.90625 
L 76.515625 0 
L 66.890625 0 
L 66.890625 64.015625 
L 48.09375 14.015625 
L 38.1875 14.015625 
L 19.390625 64.015625 
L 19.390625 0 
L 9.8125 0 
z
" id="DejaVuSans-77"/>
      <path d="M 34.28125 27.484375 
Q 23.390625 27.484375 19.1875 25 
Q 14.984375 22.515625 14.984375 16.5 
Q 14.984375 11.71875 18.140625 8.90625 
Q 21.296875 6.109375 26.703125 6.109375 
Q 34.1875 6.109375 38.703125 11.40625 
Q 43.21875 16.703125 43.21875 25.484375 
L 43.21875 27.484375 
z
M 52.203125 31.203125 
L 52.203125 0 
L 43.21875 0 
L 43.21875 8.296875 
Q 40.140625 3.328125 35.546875 0.953125 
Q 30.953125 -1.421875 24.3125 -1.421875 
Q 15.921875 -1.421875 10.953125 3.296875 
Q 6 8.015625 6 15.921875 
Q 6 25.140625 12.171875 29.828125 
Q 18.359375 34.515625 30.609375 34.515625 
L 43.21875 34.515625 
L 43.21875 35.40625 
Q 43.21875 41.609375 39.140625 45 
Q 35.0625 48.390625 27.6875 48.390625 
Q 23 48.390625 18.546875 47.265625 
Q 14.109375 46.140625 10.015625 43.890625 
L 10.015625 52.203125 
Q 14.9375 54.109375 19.578125 55.046875 
Q 24.21875 56 28.609375 56 
Q 40.484375 56 46.34375 49.84375 
Q 52.203125 43.703125 52.203125 31.203125 
z
" id="DejaVuSans-97"/>
      <path d="M 54.890625 54.6875 
L 35.109375 28.078125 
L 55.90625 0 
L 45.3125 0 
L 29.390625 21.484375 
L 13.484375 0 
L 2.875 0 
L 24.125 28.609375 
L 4.6875 54.6875 
L 15.28125 54.6875 
L 29.78125 35.203125 
L 44.28125 54.6875 
z
" id="DejaVuSans-120"/>
      <path d="M 34.1875 63.1875 
L 20.796875 26.90625 
L 47.609375 26.90625 
z
M 28.609375 72.90625 
L 39.796875 72.90625 
L 67.578125 0 
L 57.328125 0 
L 50.6875 18.703125 
L 17.828125 18.703125 
L 11.1875 0 
L 0.78125 0 
z
" id="DejaVuSans-65"/>
      <path d="M 18.3125 70.21875 
L 18.3125 54.6875 
L 36.8125 54.6875 
L 36.8125 47.703125 
L 18.3125 47.703125 
L 18.3125 18.015625 
Q 18.3125 11.328125 20.140625 9.421875 
Q 21.96875 7.515625 27.59375 7.515625 
L 36.8125 7.515625 
L 36.8125 0 
L 27.59375 0 
Q 17.1875 0 13.234375 3.875 
Q 9.28125 7.765625 9.28125 18.015625 
L 9.28125 47.703125 
L 2.6875 47.703125 
L 2.6875 54.6875 
L 9.28125 54.6875 
L 9.28125 70.21875 
z
" id="DejaVuSans-116"/>
      <path d="M 56.203125 29.59375 
L 56.203125 25.203125 
L 14.890625 25.203125 
Q 15.484375 15.921875 20.484375 11.0625 
Q 25.484375 6.203125 34.421875 6.203125 
Q 39.59375 6.203125 44.453125 7.46875 
Q 49.3125 8.734375 54.109375 11.28125 
L 54.109375 2.78125 
Q 49.265625 0.734375 44.1875 -0.34375 
Q 39.109375 -1.421875 33.890625 -1.421875 
Q 20.796875 -1.421875 13.15625 6.1875 
Q 5.515625 13.8125 5.515625 26.8125 
Q 5.515625 40.234375 12.765625 48.109375 
Q 20.015625 56 32.328125 56 
Q 43.359375 56 49.78125 48.890625 
Q 56.203125 41.796875 56.203125 29.59375 
z
M 47.21875 32.234375 
Q 47.125 39.59375 43.09375 43.984375 
Q 39.0625 48.390625 32.421875 48.390625 
Q 24.90625 48.390625 20.390625 44.140625 
Q 15.875 39.890625 15.1875 32.171875 
z
" id="DejaVuSans-101"/>
      <path d="M 54.890625 33.015625 
L 54.890625 0 
L 45.90625 0 
L 45.90625 32.71875 
Q 45.90625 40.484375 42.875 44.328125 
Q 39.84375 48.1875 33.796875 48.1875 
Q 26.515625 48.1875 22.3125 43.546875 
Q 18.109375 38.921875 18.109375 30.90625 
L 18.109375 0 
L 9.078125 0 
L 9.078125 54.6875 
L 18.109375 54.6875 
L 18.109375 46.1875 
Q 21.34375 51.125 25.703125 53.5625 
Q 30.078125 56 35.796875 56 
Q 45.21875 56 50.046875 50.171875 
Q 54.890625 44.34375 54.890625 33.015625 
z
" id="DejaVuSans-110"/>
      <path d="M 9.421875 54.6875 
L 18.40625 54.6875 
L 18.40625 0 
L 9.421875 0 
z
M 9.421875 75.984375 
L 18.40625 75.984375 
L 18.40625 64.59375 
L 9.421875 64.59375 
z
" id="DejaVuSans-105"/>
      <path d="M 30.609375 48.390625 
Q 23.390625 48.390625 19.1875 42.75 
Q 14.984375 37.109375 14.984375 27.296875 
Q 14.984375 17.484375 19.15625 11.84375 
Q 23.34375 6.203125 30.609375 6.203125 
Q 37.796875 6.203125 41.984375 11.859375 
Q 46.1875 17.53125 46.1875 27.296875 
Q 46.1875 37.015625 41.984375 42.703125 
Q 37.796875 48.390625 30.609375 48.390625 
z
M 30.609375 56 
Q 42.328125 56 49.015625 48.375 
Q 55.71875 40.765625 55.71875 27.296875 
Q 55.71875 13.875 49.015625 6.21875 
Q 42.328125 -1.421875 30.609375 -1.421875 
Q 18.84375 -1.421875 12.171875 6.21875 
Q 5.515625 13.875 5.515625 27.296875 
Q 5.515625 40.765625 12.171875 48.375 
Q 18.84375 56 30.609375 56 
z
" id="DejaVuSans-111"/>
     </defs>
     <g transform="translate(156.619375 315.571328)scale(0.2 -0.2)">
      <use xlink:href="#DejaVuSans-77"/>
      <use x="86.279297" xlink:href="#DejaVuSans-97"/>
      <use x="147.558594" xlink:href="#DejaVuSans-120"/>
      <use x="206.738281" xlink:href="#DejaVuSans-32"/>
      <use x="238.525391" xlink:href="#DejaVuSans-65"/>
      <use x="306.917969" xlink:href="#DejaVuSans-116"/>
      <use x="346.126953" xlink:href="#DejaVuSans-116"/>
      <use x="385.335938" xlink:href="#DejaVuSans-101"/>
      <use x="446.859375" xlink:href="#DejaVuSans-110"/>
      <use x="510.238281" xlink:href="#DejaVuSans-116"/>
      <use x="549.447266" xlink:href="#DejaVuSans-105"/>
      <use x="577.230469" xlink:href="#DejaVuSans-111"/>
      <use x="638.412109" xlink:href="#DejaVuSans-110"/>
     </g>
    </g>
   </g>
   <g id="matplotlib.axis_4">
    <g id="ytick_6">
     <g id="line2d_14">
      <g>
       <use style="stroke:#000000;stroke-width:1.6;" x="100.7" xlink:href="#md650a60c84" y="41.647578"/>
      </g>
     </g>
     <g id="text_17">
      <!-- [0.00, -->
      <defs>
       <path d="M 8.59375 75.984375 
L 29.296875 75.984375 
L 29.296875 69 
L 17.578125 69 
L 17.578125 -6.203125 
L 29.296875 -6.203125 
L 29.296875 -13.1875 
L 8.59375 -13.1875 
z
" id="DejaVuSans-91"/>
       <path d="M 11.71875 12.40625 
L 22.015625 12.40625 
L 22.015625 4 
L 14.015625 -11.625 
L 7.71875 -11.625 
L 11.71875 4 
z
" id="DejaVuSans-44"/>
      </defs>
      <g transform="translate(27.309375 38.048203)scale(0.2 -0.2)">
       <use xlink:href="#DejaVuSans-91"/>
       <use x="39.013672" xlink:href="#DejaVuSans-48"/>
       <use x="102.636719" xlink:href="#DejaVuSans-46"/>
       <use x="134.423828" xlink:href="#DejaVuSans-48"/>
       <use x="198.046875" xlink:href="#DejaVuSans-48"/>
       <use x="261.669922" xlink:href="#DejaVuSans-44"/>
      </g>
      <!-- 0.25) -->
      <defs>
       <path d="M 10.796875 72.90625 
L 49.515625 72.90625 
L 49.515625 64.59375 
L 19.828125 64.59375 
L 19.828125 46.734375 
Q 21.96875 47.46875 24.109375 47.828125 
Q 26.265625 48.1875 28.421875 48.1875 
Q 40.625 48.1875 47.75 41.5 
Q 54.890625 34.8125 54.890625 23.390625 
Q 54.890625 11.625 47.5625 5.09375 
Q 40.234375 -1.421875 26.90625 -1.421875 
Q 22.3125 -1.421875 17.546875 -0.640625 
Q 12.796875 0.140625 7.71875 1.703125 
L 7.71875 11.625 
Q 12.109375 9.234375 16.796875 8.0625 
Q 21.484375 6.890625 26.703125 6.890625 
Q 35.15625 6.890625 40.078125 11.328125 
Q 45.015625 15.765625 45.015625 23.390625 
Q 45.015625 31 40.078125 35.4375 
Q 35.15625 39.890625 26.703125 39.890625 
Q 22.75 39.890625 18.8125 39.015625 
Q 14.890625 38.140625 10.796875 36.28125 
z
" id="DejaVuSans-53"/>
       <path d="M 8.015625 75.875 
L 15.828125 75.875 
Q 23.140625 64.359375 26.78125 53.3125 
Q 30.421875 42.28125 30.421875 31.390625 
Q 30.421875 20.453125 26.78125 9.375 
Q 23.140625 -1.703125 15.828125 -13.1875 
L 8.015625 -13.1875 
Q 14.5 -2 17.703125 9.0625 
Q 20.90625 20.125 20.90625 31.390625 
Q 20.90625 42.671875 17.703125 53.65625 
Q 14.5 64.65625 8.015625 75.875 
z
" id="DejaVuSans-41"/>
      </defs>
      <g transform="translate(33.665625 60.443828)scale(0.2 -0.2)">
       <use xlink:href="#DejaVuSans-48"/>
       <use x="63.623047" xlink:href="#DejaVuSans-46"/>
       <use x="95.410156" xlink:href="#DejaVuSans-50"/>
       <use x="159.033203" xlink:href="#DejaVuSans-53"/>
       <use x="222.65625" xlink:href="#DejaVuSans-41"/>
      </g>
     </g>
    </g>
    <g id="ytick_7">
     <g id="line2d_15">
      <g>
       <use style="stroke:#000000;stroke-width:1.6;" x="100.7" xlink:href="#md650a60c84" y="104.696328"/>
      </g>
     </g>
     <g id="text_18">
      <!-- [0.25, -->
      <g transform="translate(27.309375 101.096953)scale(0.2 -0.2)">
       <use xlink:href="#DejaVuSans-91"/>
       <use x="39.013672" xlink:href="#DejaVuSans-48"/>
       <use x="102.636719" xlink:href="#DejaVuSans-46"/>
       <use x="134.423828" xlink:href="#DejaVuSans-50"/>
       <use x="198.046875" xlink:href="#DejaVuSans-53"/>
       <use x="261.669922" xlink:href="#DejaVuSans-44"/>
      </g>
      <!-- 0.50) -->
      <g transform="translate(33.665625 123.492578)scale(0.2 -0.2)">
       <use xlink:href="#DejaVuSans-48"/>
       <use x="63.623047" xlink:href="#DejaVuSans-46"/>
       <use x="95.410156" xlink:href="#DejaVuSans-53"/>
       <use x="159.033203" xlink:href="#DejaVuSans-48"/>
       <use x="222.65625" xlink:href="#DejaVuSans-41"/>
      </g>
     </g>
    </g>
    <g id="ytick_8">
     <g id="line2d_16">
      <g>
       <use style="stroke:#000000;stroke-width:1.6;" x="100.7" xlink:href="#md650a60c84" y="167.745078"/>
      </g>
     </g>
     <g id="text_19">
      <!-- [0.50, -->
      <g transform="translate(27.309375 164.145703)scale(0.2 -0.2)">
       <use xlink:href="#DejaVuSans-91"/>
       <use x="39.013672" xlink:href="#DejaVuSans-48"/>
       <use x="102.636719" xlink:href="#DejaVuSans-46"/>
       <use x="134.423828" xlink:href="#DejaVuSans-53"/>
       <use x="198.046875" xlink:href="#DejaVuSans-48"/>
       <use x="261.669922" xlink:href="#DejaVuSans-44"/>
      </g>
      <!-- 0.75) -->
      <defs>
       <path d="M 8.203125 72.90625 
L 55.078125 72.90625 
L 55.078125 68.703125 
L 28.609375 0 
L 18.3125 0 
L 43.21875 64.59375 
L 8.203125 64.59375 
z
" id="DejaVuSans-55"/>
      </defs>
      <g transform="translate(33.665625 186.541328)scale(0.2 -0.2)">
       <use xlink:href="#DejaVuSans-48"/>
       <use x="63.623047" xlink:href="#DejaVuSans-46"/>
       <use x="95.410156" xlink:href="#DejaVuSans-55"/>
       <use x="159.033203" xlink:href="#DejaVuSans-53"/>
       <use x="222.65625" xlink:href="#DejaVuSans-41"/>
      </g>
     </g>
    </g>
    <g id="ytick_9">
     <g id="line2d_17">
      <g>
       <use style="stroke:#000000;stroke-width:1.6;" x="100.7" xlink:href="#md650a60c84" y="230.793828"/>
      </g>
     </g>
     <g id="text_20">
      <!-- [0.75, -->
      <g transform="translate(27.309375 227.194453)scale(0.2 -0.2)">
       <use xlink:href="#DejaVuSans-91"/>
       <use x="39.013672" xlink:href="#DejaVuSans-48"/>
       <use x="102.636719" xlink:href="#DejaVuSans-46"/>
       <use x="134.423828" xlink:href="#DejaVuSans-55"/>
       <use x="198.046875" xlink:href="#DejaVuSans-53"/>
       <use x="261.669922" xlink:href="#DejaVuSans-44"/>
      </g>
      <!-- 1.00) -->
      <defs>
       <path d="M 12.40625 8.296875 
L 28.515625 8.296875 
L 28.515625 63.921875 
L 10.984375 60.40625 
L 10.984375 69.390625 
L 28.421875 72.90625 
L 38.28125 72.90625 
L 38.28125 8.296875 
L 54.390625 8.296875 
L 54.390625 0 
L 12.40625 0 
z
" id="DejaVuSans-49"/>
      </defs>
      <g transform="translate(33.665625 249.590078)scale(0.2 -0.2)">
       <use xlink:href="#DejaVuSans-49"/>
       <use x="63.623047" xlink:href="#DejaVuSans-46"/>
       <use x="95.410156" xlink:href="#DejaVuSans-48"/>
       <use x="159.033203" xlink:href="#DejaVuSans-48"/>
       <use x="222.65625" xlink:href="#DejaVuSans-41"/>
      </g>
     </g>
    </g>
    <g id="text_21">
     <!-- Max JS Divergence within $\epsilon$ -->
     <defs>
      <path d="M 9.8125 72.90625 
L 19.671875 72.90625 
L 19.671875 5.078125 
Q 19.671875 -8.109375 14.671875 -14.0625 
Q 9.671875 -20.015625 -1.421875 -20.015625 
L -5.171875 -20.015625 
L -5.171875 -11.71875 
L -2.09375 -11.71875 
Q 4.4375 -11.71875 7.125 -8.046875 
Q 9.8125 -4.390625 9.8125 5.078125 
z
" id="DejaVuSans-74"/>
      <path d="M 53.515625 70.515625 
L 53.515625 60.890625 
Q 47.90625 63.578125 42.921875 64.890625 
Q 37.9375 66.21875 33.296875 66.21875 
Q 25.25 66.21875 20.875 63.09375 
Q 16.5 59.96875 16.5 54.203125 
Q 16.5 49.359375 19.40625 46.890625 
Q 22.3125 44.4375 30.421875 42.921875 
L 36.375 41.703125 
Q 47.40625 39.59375 52.65625 34.296875 
Q 57.90625 29 57.90625 20.125 
Q 57.90625 9.515625 50.796875 4.046875 
Q 43.703125 -1.421875 29.984375 -1.421875 
Q 24.8125 -1.421875 18.96875 -0.25 
Q 13.140625 0.921875 6.890625 3.21875 
L 6.890625 13.375 
Q 12.890625 10.015625 18.65625 8.296875 
Q 24.421875 6.59375 29.984375 6.59375 
Q 38.421875 6.59375 43.015625 9.90625 
Q 47.609375 13.234375 47.609375 19.390625 
Q 47.609375 24.75 44.3125 27.78125 
Q 41.015625 30.8125 33.5 32.328125 
L 27.484375 33.5 
Q 16.453125 35.6875 11.515625 40.375 
Q 6.59375 45.0625 6.59375 53.421875 
Q 6.59375 63.09375 13.40625 68.65625 
Q 20.21875 74.21875 32.171875 74.21875 
Q 37.3125 74.21875 42.625 73.28125 
Q 47.953125 72.359375 53.515625 70.515625 
z
" id="DejaVuSans-83"/>
      <path d="M 19.671875 64.796875 
L 19.671875 8.109375 
L 31.59375 8.109375 
Q 46.6875 8.109375 53.6875 14.9375 
Q 60.6875 21.78125 60.6875 36.53125 
Q 60.6875 51.171875 53.6875 57.984375 
Q 46.6875 64.796875 31.59375 64.796875 
z
M 9.8125 72.90625 
L 30.078125 72.90625 
Q 51.265625 72.90625 61.171875 64.09375 
Q 71.09375 55.28125 71.09375 36.53125 
Q 71.09375 17.671875 61.125 8.828125 
Q 51.171875 0 30.078125 0 
L 9.8125 0 
z
" id="DejaVuSans-68"/>
      <path d="M 2.984375 54.6875 
L 12.5 54.6875 
L 29.59375 8.796875 
L 46.6875 54.6875 
L 56.203125 54.6875 
L 35.6875 0 
L 23.484375 0 
z
" id="DejaVuSans-118"/>
      <path d="M 41.109375 46.296875 
Q 39.59375 47.171875 37.8125 47.578125 
Q 36.03125 48 33.890625 48 
Q 26.265625 48 22.1875 43.046875 
Q 18.109375 38.09375 18.109375 28.8125 
L 18.109375 0 
L 9.078125 0 
L 9.078125 54.6875 
L 18.109375 54.6875 
L 18.109375 46.1875 
Q 20.953125 51.171875 25.484375 53.578125 
Q 30.03125 56 36.53125 56 
Q 37.453125 56 38.578125 55.875 
Q 39.703125 55.765625 41.0625 55.515625 
z
" id="DejaVuSans-114"/>
      <path d="M 45.40625 27.984375 
Q 45.40625 37.75 41.375 43.109375 
Q 37.359375 48.484375 30.078125 48.484375 
Q 22.859375 48.484375 18.828125 43.109375 
Q 14.796875 37.75 14.796875 27.984375 
Q 14.796875 18.265625 18.828125 12.890625 
Q 22.859375 7.515625 30.078125 7.515625 
Q 37.359375 7.515625 41.375 12.890625 
Q 45.40625 18.265625 45.40625 27.984375 
z
M 54.390625 6.78125 
Q 54.390625 -7.171875 48.1875 -13.984375 
Q 42 -20.796875 29.203125 -20.796875 
Q 24.46875 -20.796875 20.265625 -20.09375 
Q 16.0625 -19.390625 12.109375 -17.921875 
L 12.109375 -9.1875 
Q 16.0625 -11.328125 19.921875 -12.34375 
Q 23.78125 -13.375 27.78125 -13.375 
Q 36.625 -13.375 41.015625 -8.765625 
Q 45.40625 -4.15625 45.40625 5.171875 
L 45.40625 9.625 
Q 42.625 4.78125 38.28125 2.390625 
Q 33.9375 0 27.875 0 
Q 17.828125 0 11.671875 7.65625 
Q 5.515625 15.328125 5.515625 27.984375 
Q 5.515625 40.671875 11.671875 48.328125 
Q 17.828125 56 27.875 56 
Q 33.9375 56 38.28125 53.609375 
Q 42.625 51.21875 45.40625 46.390625 
L 45.40625 54.6875 
L 54.390625 54.6875 
z
" id="DejaVuSans-103"/>
      <path d="M 48.78125 52.59375 
L 48.78125 44.1875 
Q 44.96875 46.296875 41.140625 47.34375 
Q 37.3125 48.390625 33.40625 48.390625 
Q 24.65625 48.390625 19.8125 42.84375 
Q 14.984375 37.3125 14.984375 27.296875 
Q 14.984375 17.28125 19.8125 11.734375 
Q 24.65625 6.203125 33.40625 6.203125 
Q 37.3125 6.203125 41.140625 7.25 
Q 44.96875 8.296875 48.78125 10.40625 
L 48.78125 2.09375 
Q 45.015625 0.34375 40.984375 -0.53125 
Q 36.96875 -1.421875 32.421875 -1.421875 
Q 20.0625 -1.421875 12.78125 6.34375 
Q 5.515625 14.109375 5.515625 27.296875 
Q 5.515625 40.671875 12.859375 48.328125 
Q 20.21875 56 33.015625 56 
Q 37.15625 56 41.109375 55.140625 
Q 45.0625 54.296875 48.78125 52.59375 
z
" id="DejaVuSans-99"/>
      <path d="M 4.203125 54.6875 
L 13.1875 54.6875 
L 24.421875 12.015625 
L 35.59375 54.6875 
L 46.1875 54.6875 
L 57.421875 12.015625 
L 68.609375 54.6875 
L 77.59375 54.6875 
L 63.28125 0 
L 52.6875 0 
L 40.921875 44.828125 
L 29.109375 0 
L 18.5 0 
z
" id="DejaVuSans-119"/>
      <path d="M 54.890625 33.015625 
L 54.890625 0 
L 45.90625 0 
L 45.90625 32.71875 
Q 45.90625 40.484375 42.875 44.328125 
Q 39.84375 48.1875 33.796875 48.1875 
Q 26.515625 48.1875 22.3125 43.546875 
Q 18.109375 38.921875 18.109375 30.90625 
L 18.109375 0 
L 9.078125 0 
L 9.078125 75.984375 
L 18.109375 75.984375 
L 18.109375 46.1875 
Q 21.34375 51.125 25.703125 53.5625 
Q 30.078125 56 35.796875 56 
Q 45.21875 56 50.046875 50.171875 
Q 54.890625 44.34375 54.890625 33.015625 
z
" id="DejaVuSans-104"/>
      <path d="M 19.734375 29.5 
Q 14.453125 30.671875 12.15625 33.84375 
Q 10.453125 36.078125 10.453125 39.109375 
Q 10.453125 47.40625 18.359375 52.25 
Q 24.609375 56.0625 34.1875 56.0625 
Q 37.890625 56.0625 41.9375 55.46875 
Q 46 54.890625 50.53125 53.71875 
L 48.96875 45.5625 
Q 44.484375 46.96875 40.71875 47.609375 
Q 36.859375 48.25 33.40625 48.25 
Q 27.59375 48.25 23.78125 46 
Q 19.1875 43.3125 19.1875 39.40625 
Q 19.1875 36.8125 21.578125 35.015625 
Q 24.421875 32.859375 30.078125 32.859375 
L 37.640625 32.859375 
L 36.234375 25.4375 
L 29 25.4375 
Q 22.265625 25.4375 18.3125 22.953125 
Q 12.9375 19.578125 12.9375 14.3125 
Q 12.9375 10.984375 15.828125 8.796875 
Q 19.4375 6.0625 26.8125 6.0625 
Q 31.34375 6.0625 35.6875 6.9375 
Q 40.046875 7.859375 43.84375 9.671875 
L 42.1875 1.3125 
Q 37.546875 -0.046875 33.296875 -0.734375 
Q 29.046875 -1.421875 25.140625 -1.421875 
Q 13.53125 -1.421875 8.0625 3.03125 
Q 3.90625 6.453125 3.90625 12.203125 
Q 3.90625 19.96875 9.375 24.75 
Q 13.421875 28.328125 19.734375 29.5 
z
" id="DejaVuSans-Oblique-949"/>
     </defs>
     <g transform="translate(19.109375 271.820703)rotate(-90)scale(0.2 -0.2)">
      <use transform="translate(0 0.015625)" xlink:href="#DejaVuSans-77"/>
      <use transform="translate(86.279297 0.015625)" xlink:href="#DejaVuSans-97"/>
      <use transform="translate(147.558594 0.015625)" xlink:href="#DejaVuSans-120"/>
      <use transform="translate(206.738281 0.015625)" xlink:href="#DejaVuSans-32"/>
      <use transform="translate(238.525391 0.015625)" xlink:href="#DejaVuSans-74"/>
      <use transform="translate(268.017578 0.015625)" xlink:href="#DejaVuSans-83"/>
      <use transform="translate(331.494141 0.015625)" xlink:href="#DejaVuSans-32"/>
      <use transform="translate(363.28125 0.015625)" xlink:href="#DejaVuSans-68"/>
      <use transform="translate(440.283203 0.015625)" xlink:href="#DejaVuSans-105"/>
      <use transform="translate(468.066406 0.015625)" xlink:href="#DejaVuSans-118"/>
      <use transform="translate(527.246094 0.015625)" xlink:href="#DejaVuSans-101"/>
      <use transform="translate(588.769531 0.015625)" xlink:href="#DejaVuSans-114"/>
      <use transform="translate(629.882812 0.015625)" xlink:href="#DejaVuSans-103"/>
      <use transform="translate(693.359375 0.015625)" xlink:href="#DejaVuSans-101"/>
      <use transform="translate(754.882812 0.015625)" xlink:href="#DejaVuSans-110"/>
      <use transform="translate(818.261719 0.015625)" xlink:href="#DejaVuSans-99"/>
      <use transform="translate(873.242188 0.015625)" xlink:href="#DejaVuSans-101"/>
      <use transform="translate(934.765625 0.015625)" xlink:href="#DejaVuSans-32"/>
      <use transform="translate(966.552734 0.015625)" xlink:href="#DejaVuSans-119"/>
      <use transform="translate(1048.339844 0.015625)" xlink:href="#DejaVuSans-105"/>
      <use transform="translate(1076.123047 0.015625)" xlink:href="#DejaVuSans-116"/>
      <use transform="translate(1115.332031 0.015625)" xlink:href="#DejaVuSans-104"/>
      <use transform="translate(1178.710938 0.015625)" xlink:href="#DejaVuSans-105"/>
      <use transform="translate(1206.494141 0.015625)" xlink:href="#DejaVuSans-110"/>
      <use transform="translate(1269.873047 0.015625)" xlink:href="#DejaVuSans-32"/>
      <use transform="translate(1301.660156 0.015625)" xlink:href="#DejaVuSans-Oblique-949"/>
     </g>
    </g>
   </g>
   <g id="line2d_18">
    <path clip-path="url(#p8451161fd0)" d="M 262.273281 22.62189 
L 262.273281 60.673266 
" style="fill:none;stroke:#575757;stroke-dasharray:1.5,1.5;stroke-dashoffset:0;"/>
   </g>
   <g id="line2d_19">
    <path clip-path="url(#p8451161fd0)" d="M 278.7831 16.701073 
L 278.7831 66.594083 
" style="fill:none;stroke:#575757;stroke-dasharray:3,3;stroke-dashoffset:0;"/>
   </g>
   <g id="line2d_20">
    <path clip-path="url(#p8451161fd0)" d="M 294.615176 20.798469 
L 294.615176 62.496688 
" style="fill:none;stroke:#575757;stroke-dasharray:1.5,1.5;stroke-dashoffset:0;"/>
   </g>
   <g id="line2d_21">
    <path clip-path="url(#p8451161fd0)" d="M 258.557733 88.008212 
L 258.557733 121.384444 
" style="fill:none;stroke:#575757;stroke-dasharray:1.5,1.5;stroke-dashoffset:0;"/>
   </g>
   <g id="line2d_22">
    <path clip-path="url(#p8451161fd0)" d="M 281.299536 81.212072 
L 281.299536 128.180584 
" style="fill:none;stroke:#575757;stroke-dasharray:3,3;stroke-dashoffset:0;"/>
   </g>
   <g id="line2d_23">
    <path clip-path="url(#p8451161fd0)" d="M 298.409051 81.577482 
L 298.409051 127.815174 
" style="fill:none;stroke:#575757;stroke-dasharray:1.5,1.5;stroke-dashoffset:0;"/>
   </g>
   <g id="line2d_24">
    <path clip-path="url(#p8451161fd0)" d="M 262.385139 154.563584 
L 262.385139 180.926572 
" style="fill:none;stroke:#575757;stroke-dasharray:1.5,1.5;stroke-dashoffset:0;"/>
   </g>
   <g id="line2d_25">
    <path clip-path="url(#p8451161fd0)" d="M 293.818601 144.40093 
L 293.818601 191.089227 
" style="fill:none;stroke:#575757;stroke-dasharray:3,3;stroke-dashoffset:0;"/>
   </g>
   <g id="line2d_26">
    <path clip-path="url(#p8451161fd0)" d="M 309.521382 144.082012 
L 309.521382 191.408145 
" style="fill:none;stroke:#575757;stroke-dasharray:1.5,1.5;stroke-dashoffset:0;"/>
   </g>
   <g id="line2d_27">
    <path clip-path="url(#p8451161fd0)" d="M 273.799984 205.923838 
L 273.799984 255.663818 
" style="fill:none;stroke:#575757;stroke-dasharray:1.5,1.5;stroke-dashoffset:0;"/>
   </g>
   <g id="line2d_28">
    <path clip-path="url(#p8451161fd0)" d="M 285.50222 208.344931 
L 285.50222 253.242726 
" style="fill:none;stroke:#575757;stroke-dasharray:3,3;stroke-dashoffset:0;"/>
   </g>
   <g id="line2d_29">
    <path clip-path="url(#p8451161fd0)" d="M 310.073397 214.893893 
L 310.073397 246.693763 
" style="fill:none;stroke:#575757;stroke-dasharray:1.5,1.5;stroke-dashoffset:0;"/>
   </g>
   <g id="patch_47">
    <path d="M 100.7 262.318203 
L 100.7 10.123203 
" style="fill:none;stroke:#000000;stroke-linecap:square;stroke-linejoin:miter;stroke-width:0.8;"/>
   </g>
   <g id="patch_48">
    <path d="M 100.7 262.318203 
L 352.895 262.318203 
" style="fill:none;stroke:#000000;stroke-linecap:square;stroke-linejoin:miter;stroke-width:0.8;"/>
   </g>
  </g>
 </g>
 <defs>
  <clipPath id="pf4c01b9e02">
   <rect height="252.195" width="252.195" x="-266.855" y="10.123203"/>
  </clipPath>
  <clipPath id="p8451161fd0">
   <rect height="252.195" width="252.195" x="100.7" y="10.123203"/>
  </clipPath>
 </defs>
</svg>
