<?xml version="1.0" encoding="utf-8" standalone="no"?>
<!DOCTYPE svg PUBLIC "-//W3C//DTD SVG 1.1//EN"
  "http://www.w3.org/Graphics/SVG/1.1/DTD/svg11.dtd">
<!-- Created with matplotlib (https://matplotlib.org/) -->
<svg height="319.018203pt" version="1.1" viewBox="0 0 356.395 319.018203" width="356.395pt" xmlns="http://www.w3.org/2000/svg" xmlns:xlink="http://www.w3.org/1999/xlink">
 <defs>
  <style type="text/css">
*{stroke-linecap:butt;stroke-linejoin:round;}
  </style>
 </defs>
 <g id="figure_1">
  <g id="patch_1">
   <path d="M 0 319.018203 
L 356.395 319.018203 
L 356.395 -0 
L 0 -0 
z
" style="fill:#ffffff;"/>
  </g>
  <g id="axes_1">
   <g id="patch_2">
    <path d="M -266.855 262.318203 
L -14.66 262.318203 
L -14.66 10.123203 
L -266.855 10.123203 
z
" style="fill:#ffffff;"/>
   </g>
   <g id="patch_3">
    <path clip-path="url(#p8e6fb9c9cc)" d="M -255.391591 262.318203 
L -249.659886 262.318203 
L -249.659886 177.928628 
L -255.391591 177.928628 
z
" style="fill:#7570b3;opacity:0.6;stroke:#000000;stroke-linejoin:miter;stroke-width:0.5;"/>
   </g>
   <g id="patch_4">
    <path clip-path="url(#p8e6fb9c9cc)" d="M -249.659886 262.318203 
L -243.928182 262.318203 
L -243.928182 262.318203 
L -249.659886 262.318203 
z
" style="fill:#7570b3;opacity:0.6;stroke:#000000;stroke-linejoin:miter;stroke-width:0.5;"/>
   </g>
   <g id="patch_5">
    <path clip-path="url(#p8e6fb9c9cc)" d="M -243.928182 262.318203 
L -238.196477 262.318203 
L -238.196477 262.318203 
L -243.928182 262.318203 
z
" style="fill:#7570b3;opacity:0.6;stroke:#000000;stroke-linejoin:miter;stroke-width:0.5;"/>
   </g>
   <g id="patch_6">
    <path clip-path="url(#p8e6fb9c9cc)" d="M -238.196477 262.318203 
L -232.464773 262.318203 
L -232.464773 262.318203 
L -238.196477 262.318203 
z
" style="fill:#7570b3;opacity:0.6;stroke:#000000;stroke-linejoin:miter;stroke-width:0.5;"/>
   </g>
   <g id="patch_7">
    <path clip-path="url(#p8e6fb9c9cc)" d="M -232.464773 262.318203 
L -226.733068 262.318203 
L -226.733068 262.318203 
L -232.464773 262.318203 
z
" style="fill:#7570b3;opacity:0.6;stroke:#000000;stroke-linejoin:miter;stroke-width:0.5;"/>
   </g>
   <g id="patch_8">
    <path clip-path="url(#p8e6fb9c9cc)" d="M -226.733068 262.318203 
L -221.001364 262.318203 
L -221.001364 262.318203 
L -226.733068 262.318203 
z
" style="fill:#7570b3;opacity:0.6;stroke:#000000;stroke-linejoin:miter;stroke-width:0.5;"/>
   </g>
   <g id="patch_9">
    <path clip-path="url(#p8e6fb9c9cc)" d="M -221.001364 262.318203 
L -215.269659 262.318203 
L -215.269659 260.695327 
L -221.001364 260.695327 
z
" style="fill:#7570b3;opacity:0.6;stroke:#000000;stroke-linejoin:miter;stroke-width:0.5;"/>
   </g>
   <g id="patch_10">
    <path clip-path="url(#p8e6fb9c9cc)" d="M -215.269659 262.318203 
L -209.537955 262.318203 
L -209.537955 261.506765 
L -215.269659 261.506765 
z
" style="fill:#7570b3;opacity:0.6;stroke:#000000;stroke-linejoin:miter;stroke-width:0.5;"/>
   </g>
   <g id="patch_11">
    <path clip-path="url(#p8e6fb9c9cc)" d="M -209.537955 262.318203 
L -203.80625 262.318203 
L -203.80625 258.261012 
L -209.537955 258.261012 
z
" style="fill:#7570b3;opacity:0.6;stroke:#000000;stroke-linejoin:miter;stroke-width:0.5;"/>
   </g>
   <g id="patch_12">
    <path clip-path="url(#p8e6fb9c9cc)" d="M -203.80625 262.318203 
L -198.074545 262.318203 
L -198.074545 260.695327 
L -203.80625 260.695327 
z
" style="fill:#7570b3;opacity:0.6;stroke:#000000;stroke-linejoin:miter;stroke-width:0.5;"/>
   </g>
   <g id="patch_13">
    <path clip-path="url(#p8e6fb9c9cc)" d="M -198.074545 262.318203 
L -192.342841 262.318203 
L -192.342841 259.07245 
L -198.074545 259.07245 
z
" style="fill:#7570b3;opacity:0.6;stroke:#000000;stroke-linejoin:miter;stroke-width:0.5;"/>
   </g>
   <g id="patch_14">
    <path clip-path="url(#p8e6fb9c9cc)" d="M -192.342841 262.318203 
L -186.611136 262.318203 
L -186.611136 255.826697 
L -192.342841 255.826697 
z
" style="fill:#7570b3;opacity:0.6;stroke:#000000;stroke-linejoin:miter;stroke-width:0.5;"/>
   </g>
   <g id="patch_15">
    <path clip-path="url(#p8e6fb9c9cc)" d="M -186.611136 262.318203 
L -180.879432 262.318203 
L -180.879432 259.07245 
L -186.611136 259.07245 
z
" style="fill:#7570b3;opacity:0.6;stroke:#000000;stroke-linejoin:miter;stroke-width:0.5;"/>
   </g>
   <g id="patch_16">
    <path clip-path="url(#p8e6fb9c9cc)" d="M -180.879432 262.318203 
L -175.147727 262.318203 
L -175.147727 251.769506 
L -180.879432 251.769506 
z
" style="fill:#7570b3;opacity:0.6;stroke:#000000;stroke-linejoin:miter;stroke-width:0.5;"/>
   </g>
   <g id="patch_17">
    <path clip-path="url(#p8e6fb9c9cc)" d="M -175.147727 262.318203 
L -169.416023 262.318203 
L -169.416023 255.826697 
L -175.147727 255.826697 
z
" style="fill:#7570b3;opacity:0.6;stroke:#000000;stroke-linejoin:miter;stroke-width:0.5;"/>
   </g>
   <g id="patch_18">
    <path clip-path="url(#p8e6fb9c9cc)" d="M -169.416023 262.318203 
L -163.684318 262.318203 
L -163.684318 248.523753 
L -169.416023 248.523753 
z
" style="fill:#7570b3;opacity:0.6;stroke:#000000;stroke-linejoin:miter;stroke-width:0.5;"/>
   </g>
   <g id="patch_19">
    <path clip-path="url(#p8e6fb9c9cc)" d="M -163.684318 262.318203 
L -157.952614 262.318203 
L -157.952614 250.14663 
L -163.684318 250.14663 
z
" style="fill:#7570b3;opacity:0.6;stroke:#000000;stroke-linejoin:miter;stroke-width:0.5;"/>
   </g>
   <g id="patch_20">
    <path clip-path="url(#p8e6fb9c9cc)" d="M -157.952614 262.318203 
L -152.220909 262.318203 
L -152.220909 246.900877 
L -157.952614 246.900877 
z
" style="fill:#7570b3;opacity:0.6;stroke:#000000;stroke-linejoin:miter;stroke-width:0.5;"/>
   </g>
   <g id="patch_21">
    <path clip-path="url(#p8e6fb9c9cc)" d="M -152.220909 262.318203 
L -146.489205 262.318203 
L -146.489205 242.032248 
L -152.220909 242.032248 
z
" style="fill:#7570b3;opacity:0.6;stroke:#000000;stroke-linejoin:miter;stroke-width:0.5;"/>
   </g>
   <g id="patch_22">
    <path clip-path="url(#p8e6fb9c9cc)" d="M -146.489205 262.318203 
L -140.7575 262.318203 
L -140.7575 232.294989 
L -146.489205 232.294989 
z
" style="fill:#7570b3;opacity:0.6;stroke:#000000;stroke-linejoin:miter;stroke-width:0.5;"/>
   </g>
   <g id="patch_23">
    <path clip-path="url(#p8e6fb9c9cc)" d="M -140.7575 262.318203 
L -135.025795 262.318203 
L -135.025795 232.294989 
L -140.7575 232.294989 
z
" style="fill:#7570b3;opacity:0.6;stroke:#000000;stroke-linejoin:miter;stroke-width:0.5;"/>
   </g>
   <g id="patch_24">
    <path clip-path="url(#p8e6fb9c9cc)" d="M -135.025795 262.318203 
L -129.294091 262.318203 
L -129.294091 227.426359 
L -135.025795 227.426359 
z
" style="fill:#7570b3;opacity:0.6;stroke:#000000;stroke-linejoin:miter;stroke-width:0.5;"/>
   </g>
   <g id="patch_25">
    <path clip-path="url(#p8e6fb9c9cc)" d="M -129.294091 262.318203 
L -123.562386 262.318203 
L -123.562386 211.197595 
L -129.294091 211.197595 
z
" style="fill:#7570b3;opacity:0.6;stroke:#000000;stroke-linejoin:miter;stroke-width:0.5;"/>
   </g>
   <g id="patch_26">
    <path clip-path="url(#p8e6fb9c9cc)" d="M -123.562386 262.318203 
L -117.830682 262.318203 
L -117.830682 191.723078 
L -123.562386 191.723078 
z
" style="fill:#7570b3;opacity:0.6;stroke:#000000;stroke-linejoin:miter;stroke-width:0.5;"/>
   </g>
   <g id="patch_27">
    <path clip-path="url(#p8e6fb9c9cc)" d="M -117.830682 262.318203 
L -112.098977 262.318203 
L -112.098977 184.420134 
L -117.830682 184.420134 
z
" style="fill:#7570b3;opacity:0.6;stroke:#000000;stroke-linejoin:miter;stroke-width:0.5;"/>
   </g>
   <g id="patch_28">
    <path clip-path="url(#p8e6fb9c9cc)" d="M -112.098977 262.318203 
L -106.367273 262.318203 
L -106.367273 152.774043 
L -112.098977 152.774043 
z
" style="fill:#7570b3;opacity:0.6;stroke:#000000;stroke-linejoin:miter;stroke-width:0.5;"/>
   </g>
   <g id="patch_29">
    <path clip-path="url(#p8e6fb9c9cc)" d="M -106.367273 262.318203 
L -100.635568 262.318203 
L -100.635568 128.430896 
L -106.367273 128.430896 
z
" style="fill:#7570b3;opacity:0.6;stroke:#000000;stroke-linejoin:miter;stroke-width:0.5;"/>
   </g>
   <g id="patch_30">
    <path clip-path="url(#p8e6fb9c9cc)" d="M -100.635568 262.318203 
L -94.903864 262.318203 
L -94.903864 91.104738 
L -100.635568 91.104738 
z
" style="fill:#7570b3;opacity:0.6;stroke:#000000;stroke-linejoin:miter;stroke-width:0.5;"/>
   </g>
   <g id="patch_31">
    <path clip-path="url(#p8e6fb9c9cc)" d="M -94.903864 262.318203 
L -89.172159 262.318203 
L -89.172159 65.138715 
L -94.903864 65.138715 
z
" style="fill:#7570b3;opacity:0.6;stroke:#000000;stroke-linejoin:miter;stroke-width:0.5;"/>
   </g>
   <g id="patch_32">
    <path clip-path="url(#p8e6fb9c9cc)" d="M -89.172159 262.318203 
L -83.440455 262.318203 
L -83.440455 65.950153 
L -89.172159 65.950153 
z
" style="fill:#7570b3;opacity:0.6;stroke:#000000;stroke-linejoin:miter;stroke-width:0.5;"/>
   </g>
   <g id="patch_33">
    <path clip-path="url(#p8e6fb9c9cc)" d="M -83.440455 262.318203 
L -77.70875 262.318203 
L -77.70875 22.132489 
L -83.440455 22.132489 
z
" style="fill:#7570b3;opacity:0.6;stroke:#000000;stroke-linejoin:miter;stroke-width:0.5;"/>
   </g>
   <g id="patch_34">
    <path clip-path="url(#p8e6fb9c9cc)" d="M -77.70875 262.318203 
L -71.977045 262.318203 
L -71.977045 24.566804 
L -77.70875 24.566804 
z
" style="fill:#7570b3;opacity:0.6;stroke:#000000;stroke-linejoin:miter;stroke-width:0.5;"/>
   </g>
   <g id="patch_35">
    <path clip-path="url(#p8e6fb9c9cc)" d="M -71.977045 262.318203 
L -66.245341 262.318203 
L -66.245341 45.664197 
L -71.977045 45.664197 
z
" style="fill:#7570b3;opacity:0.6;stroke:#000000;stroke-linejoin:miter;stroke-width:0.5;"/>
   </g>
   <g id="patch_36">
    <path clip-path="url(#p8e6fb9c9cc)" d="M -66.245341 262.318203 
L -60.513636 262.318203 
L -60.513636 61.081524 
L -66.245341 61.081524 
z
" style="fill:#7570b3;opacity:0.6;stroke:#000000;stroke-linejoin:miter;stroke-width:0.5;"/>
   </g>
   <g id="patch_37">
    <path clip-path="url(#p8e6fb9c9cc)" d="M -60.513636 262.318203 
L -54.781932 262.318203 
L -54.781932 106.522064 
L -60.513636 106.522064 
z
" style="fill:#7570b3;opacity:0.6;stroke:#000000;stroke-linejoin:miter;stroke-width:0.5;"/>
   </g>
   <g id="patch_38">
    <path clip-path="url(#p8e6fb9c9cc)" d="M -54.781932 262.318203 
L -49.050227 262.318203 
L -49.050227 155.208358 
L -54.781932 155.208358 
z
" style="fill:#7570b3;opacity:0.6;stroke:#000000;stroke-linejoin:miter;stroke-width:0.5;"/>
   </g>
   <g id="patch_39">
    <path clip-path="url(#p8e6fb9c9cc)" d="M -49.050227 262.318203 
L -43.318523 262.318203 
L -43.318523 179.551504 
L -49.050227 179.551504 
z
" style="fill:#7570b3;opacity:0.6;stroke:#000000;stroke-linejoin:miter;stroke-width:0.5;"/>
   </g>
   <g id="patch_40">
    <path clip-path="url(#p8e6fb9c9cc)" d="M -43.318523 262.318203 
L -37.586818 262.318203 
L -37.586818 207.951842 
L -43.318523 207.951842 
z
" style="fill:#7570b3;opacity:0.6;stroke:#000000;stroke-linejoin:miter;stroke-width:0.5;"/>
   </g>
   <g id="patch_41">
    <path clip-path="url(#p8e6fb9c9cc)" d="M -37.586818 262.318203 
L -31.855114 262.318203 
L -31.855114 250.14663 
L -37.586818 250.14663 
z
" style="fill:#7570b3;opacity:0.6;stroke:#000000;stroke-linejoin:miter;stroke-width:0.5;"/>
   </g>
   <g id="patch_42">
    <path clip-path="url(#p8e6fb9c9cc)" d="M -31.855114 262.318203 
L -26.123409 262.318203 
L -26.123409 262.318203 
L -31.855114 262.318203 
z
" style="fill:#7570b3;opacity:0.6;stroke:#000000;stroke-linejoin:miter;stroke-width:0.5;"/>
   </g>
   <g id="matplotlib.axis_1">
    <g id="xtick_1">
     <g id="line2d_1">
      <defs>
       <path d="M 0 0 
L 0 3.5 
" id="m1cb5b771ce" style="stroke:#000000;stroke-width:1.6;"/>
      </defs>
      <g/>
     </g>
     <g id="text_1">
      <!-- 0.0 -->
      <defs>
       <path d="M 31.78125 66.40625 
Q 24.171875 66.40625 20.328125 58.90625 
Q 16.5 51.421875 16.5 36.375 
Q 16.5 21.390625 20.328125 13.890625 
Q 24.171875 6.390625 31.78125 6.390625 
Q 39.453125 6.390625 43.28125 13.890625 
Q 47.125 21.390625 47.125 36.375 
Q 47.125 51.421875 43.28125 58.90625 
Q 39.453125 66.40625 31.78125 66.40625 
z
M 31.78125 74.21875 
Q 44.046875 74.21875 50.515625 64.515625 
Q 56.984375 54.828125 56.984375 36.375 
Q 56.984375 17.96875 50.515625 8.265625 
Q 44.046875 -1.421875 31.78125 -1.421875 
Q 19.53125 -1.421875 13.0625 8.265625 
Q 6.59375 17.96875 6.59375 36.375 
Q 6.59375 54.828125 13.0625 64.515625 
Q 19.53125 74.21875 31.78125 74.21875 
z
" id="DejaVuSans-48"/>
       <path d="M 10.6875 12.40625 
L 21 12.40625 
L 21 0 
L 10.6875 0 
z
" id="DejaVuSans-46"/>
      </defs>
      <g transform="translate(-271.294716 292.215078)scale(0.2 -0.2)">
       <use xlink:href="#DejaVuSans-48"/>
       <use x="63.623047" xlink:href="#DejaVuSans-46"/>
       <use x="95.410156" xlink:href="#DejaVuSans-48"/>
      </g>
     </g>
    </g>
    <g id="xtick_2">
     <g id="line2d_2">
      <g/>
     </g>
     <g id="text_2">
      <!-- 0.2 -->
      <defs>
       <path d="M 19.1875 8.296875 
L 53.609375 8.296875 
L 53.609375 0 
L 7.328125 0 
L 7.328125 8.296875 
Q 12.9375 14.109375 22.625 23.890625 
Q 32.328125 33.6875 34.8125 36.53125 
Q 39.546875 41.84375 41.421875 45.53125 
Q 43.3125 49.21875 43.3125 52.78125 
Q 43.3125 58.59375 39.234375 62.25 
Q 35.15625 65.921875 28.609375 65.921875 
Q 23.96875 65.921875 18.8125 64.3125 
Q 13.671875 62.703125 7.8125 59.421875 
L 7.8125 69.390625 
Q 13.765625 71.78125 18.9375 73 
Q 24.125 74.21875 28.421875 74.21875 
Q 39.75 74.21875 46.484375 68.546875 
Q 53.21875 62.890625 53.21875 53.421875 
Q 53.21875 48.921875 51.53125 44.890625 
Q 49.859375 40.875 45.40625 35.40625 
Q 44.1875 33.984375 37.640625 27.21875 
Q 31.109375 20.453125 19.1875 8.296875 
z
" id="DejaVuSans-50"/>
      </defs>
      <g transform="translate(-205.789521 292.215078)scale(0.2 -0.2)">
       <use xlink:href="#DejaVuSans-48"/>
       <use x="63.623047" xlink:href="#DejaVuSans-46"/>
       <use x="95.410156" xlink:href="#DejaVuSans-50"/>
      </g>
     </g>
    </g>
    <g id="xtick_3">
     <g id="line2d_3">
      <g/>
     </g>
     <g id="text_3">
      <!-- 0.4 -->
      <defs>
       <path d="M 37.796875 64.3125 
L 12.890625 25.390625 
L 37.796875 25.390625 
z
M 35.203125 72.90625 
L 47.609375 72.90625 
L 47.609375 25.390625 
L 58.015625 25.390625 
L 58.015625 17.1875 
L 47.609375 17.1875 
L 47.609375 0 
L 37.796875 0 
L 37.796875 17.1875 
L 4.890625 17.1875 
L 4.890625 26.703125 
z
" id="DejaVuSans-52"/>
      </defs>
      <g transform="translate(-140.284326 292.215078)scale(0.2 -0.2)">
       <use xlink:href="#DejaVuSans-48"/>
       <use x="63.623047" xlink:href="#DejaVuSans-46"/>
       <use x="95.410156" xlink:href="#DejaVuSans-52"/>
      </g>
     </g>
    </g>
    <g id="xtick_4">
     <g id="line2d_4">
      <g/>
     </g>
     <g id="text_4">
      <!-- 0.6 -->
      <defs>
       <path d="M 33.015625 40.375 
Q 26.375 40.375 22.484375 35.828125 
Q 18.609375 31.296875 18.609375 23.390625 
Q 18.609375 15.53125 22.484375 10.953125 
Q 26.375 6.390625 33.015625 6.390625 
Q 39.65625 6.390625 43.53125 10.953125 
Q 47.40625 15.53125 47.40625 23.390625 
Q 47.40625 31.296875 43.53125 35.828125 
Q 39.65625 40.375 33.015625 40.375 
z
M 52.59375 71.296875 
L 52.59375 62.3125 
Q 48.875 64.0625 45.09375 64.984375 
Q 41.3125 65.921875 37.59375 65.921875 
Q 27.828125 65.921875 22.671875 59.328125 
Q 17.53125 52.734375 16.796875 39.40625 
Q 19.671875 43.65625 24.015625 45.921875 
Q 28.375 48.1875 33.59375 48.1875 
Q 44.578125 48.1875 50.953125 41.515625 
Q 57.328125 34.859375 57.328125 23.390625 
Q 57.328125 12.15625 50.6875 5.359375 
Q 44.046875 -1.421875 33.015625 -1.421875 
Q 20.359375 -1.421875 13.671875 8.265625 
Q 6.984375 17.96875 6.984375 36.375 
Q 6.984375 53.65625 15.1875 63.9375 
Q 23.390625 74.21875 37.203125 74.21875 
Q 40.921875 74.21875 44.703125 73.484375 
Q 48.484375 72.75 52.59375 71.296875 
z
" id="DejaVuSans-54"/>
      </defs>
      <g transform="translate(-74.779131 292.215078)scale(0.2 -0.2)">
       <use xlink:href="#DejaVuSans-48"/>
       <use x="63.623047" xlink:href="#DejaVuSans-46"/>
       <use x="95.410156" xlink:href="#DejaVuSans-54"/>
      </g>
     </g>
    </g>
    <g id="text_5">
     <!--   -->
     <defs>
      <path id="DejaVuSans-32"/>
     </defs>
     <g transform="translate(-143.935625 315.571328)scale(0.2 -0.2)">
      <use xlink:href="#DejaVuSans-32"/>
     </g>
    </g>
   </g>
   <g id="matplotlib.axis_2">
    <g id="ytick_1">
     <g id="line2d_5">
      <defs>
       <path d="M 0 0 
L -3.5 0 
" id="mc4c78d7f44" style="stroke:#000000;stroke-width:1.6;"/>
      </defs>
      <g/>
     </g>
     <g id="text_6">
      <!-- 0.00 -->
      <g transform="translate(-326.08625 269.916641)scale(0.2 -0.2)">
       <use xlink:href="#DejaVuSans-48"/>
       <use x="63.623047" xlink:href="#DejaVuSans-46"/>
       <use x="95.410156" xlink:href="#DejaVuSans-48"/>
       <use x="159.033203" xlink:href="#DejaVuSans-48"/>
      </g>
     </g>
    </g>
    <g id="ytick_2">
     <g id="line2d_6">
      <g/>
     </g>
     <g id="text_7">
      <!-- 0.02 -->
      <g transform="translate(-326.08625 218.017052)scale(0.2 -0.2)">
       <use xlink:href="#DejaVuSans-48"/>
       <use x="63.623047" xlink:href="#DejaVuSans-46"/>
       <use x="95.410156" xlink:href="#DejaVuSans-48"/>
       <use x="159.033203" xlink:href="#DejaVuSans-50"/>
      </g>
     </g>
    </g>
    <g id="ytick_3">
     <g id="line2d_7">
      <g/>
     </g>
     <g id="text_8">
      <!-- 0.04 -->
      <g transform="translate(-326.08625 166.117463)scale(0.2 -0.2)">
       <use xlink:href="#DejaVuSans-48"/>
       <use x="63.623047" xlink:href="#DejaVuSans-46"/>
       <use x="95.410156" xlink:href="#DejaVuSans-48"/>
       <use x="159.033203" xlink:href="#DejaVuSans-52"/>
      </g>
     </g>
    </g>
    <g id="ytick_4">
     <g id="line2d_8">
      <g/>
     </g>
     <g id="text_9">
      <!-- 0.06 -->
      <g transform="translate(-326.08625 114.217874)scale(0.2 -0.2)">
       <use xlink:href="#DejaVuSans-48"/>
       <use x="63.623047" xlink:href="#DejaVuSans-46"/>
       <use x="95.410156" xlink:href="#DejaVuSans-48"/>
       <use x="159.033203" xlink:href="#DejaVuSans-54"/>
      </g>
     </g>
    </g>
    <g id="ytick_5">
     <g id="line2d_9">
      <g/>
     </g>
     <g id="text_10">
      <!-- 0.08 -->
      <defs>
       <path d="M 31.78125 34.625 
Q 24.75 34.625 20.71875 30.859375 
Q 16.703125 27.09375 16.703125 20.515625 
Q 16.703125 13.921875 20.71875 10.15625 
Q 24.75 6.390625 31.78125 6.390625 
Q 38.8125 6.390625 42.859375 10.171875 
Q 46.921875 13.96875 46.921875 20.515625 
Q 46.921875 27.09375 42.890625 30.859375 
Q 38.875 34.625 31.78125 34.625 
z
M 21.921875 38.8125 
Q 15.578125 40.375 12.03125 44.71875 
Q 8.5 49.078125 8.5 55.328125 
Q 8.5 64.0625 14.71875 69.140625 
Q 20.953125 74.21875 31.78125 74.21875 
Q 42.671875 74.21875 48.875 69.140625 
Q 55.078125 64.0625 55.078125 55.328125 
Q 55.078125 49.078125 51.53125 44.71875 
Q 48 40.375 41.703125 38.8125 
Q 48.828125 37.15625 52.796875 32.3125 
Q 56.78125 27.484375 56.78125 20.515625 
Q 56.78125 9.90625 50.3125 4.234375 
Q 43.84375 -1.421875 31.78125 -1.421875 
Q 19.734375 -1.421875 13.25 4.234375 
Q 6.78125 9.90625 6.78125 20.515625 
Q 6.78125 27.484375 10.78125 32.3125 
Q 14.796875 37.15625 21.921875 38.8125 
z
M 18.3125 54.390625 
Q 18.3125 48.734375 21.84375 45.5625 
Q 25.390625 42.390625 31.78125 42.390625 
Q 38.140625 42.390625 41.71875 45.5625 
Q 45.3125 48.734375 45.3125 54.390625 
Q 45.3125 60.0625 41.71875 63.234375 
Q 38.140625 66.40625 31.78125 66.40625 
Q 25.390625 66.40625 21.84375 63.234375 
Q 18.3125 60.0625 18.3125 54.390625 
z
" id="DejaVuSans-56"/>
      </defs>
      <g transform="translate(-326.08625 62.318285)scale(0.2 -0.2)">
       <use xlink:href="#DejaVuSans-48"/>
       <use x="63.623047" xlink:href="#DejaVuSans-46"/>
       <use x="95.410156" xlink:href="#DejaVuSans-48"/>
       <use x="159.033203" xlink:href="#DejaVuSans-56"/>
      </g>
     </g>
    </g>
    <g id="text_11">
     <!--   -->
     <g transform="translate(-333.7465 139.017453)rotate(-90)scale(0.176 -0.176)">
      <use xlink:href="#DejaVuSans-32"/>
     </g>
    </g>
   </g>
   <g id="patch_43">
    <path style="fill:none;stroke:#000000;stroke-linecap:square;stroke-linejoin:miter;stroke-width:0.8;"/>
   </g>
   <g id="patch_44">
    <path style="fill:none;stroke:#000000;stroke-linecap:square;stroke-linejoin:miter;stroke-width:0.8;"/>
   </g>
  </g>
  <g id="axes_2">
   <g id="patch_45">
    <path d="M 100.7 262.318203 
L 352.895 262.318203 
L 352.895 10.123203 
L 100.7 10.123203 
z
" style="fill:#ffffff;"/>
   </g>
   <g id="PolyCollection_1">
    <defs>
     <path d="M 117.360892 -275.50129 
L 117.360892 -279.23996 
L 119.640968 -279.168561 
L 121.921045 -278.951246 
L 124.201121 -278.640754 
L 126.481197 -278.303523 
L 128.761274 -277.996932 
L 131.04135 -277.754957 
L 133.321426 -277.586197 
L 135.601503 -277.481146 
L 137.881579 -277.422417 
L 140.161655 -277.392809 
L 142.441732 -277.379311 
L 144.721808 -277.373733 
L 147.001884 -277.371642 
L 149.281961 -277.370929 
L 151.562037 -277.370708 
L 153.842113 -277.370646 
L 156.12219 -277.37063 
L 158.402266 -277.370626 
L 160.682342 -277.370625 
L 162.962418 -277.370625 
L 165.242495 -277.370625 
L 167.522571 -277.370625 
L 169.802647 -277.370625 
L 172.082724 -277.370626 
L 174.3628 -277.370629 
L 176.642876 -277.370639 
L 178.922953 -277.370672 
L 181.203029 -277.370768 
L 183.483105 -277.37102 
L 185.763182 -277.371627 
L 188.043258 -277.372962 
L 190.323334 -277.375639 
L 192.603411 -277.380542 
L 194.883487 -277.388767 
L 197.163563 -277.401449 
L 199.44364 -277.419531 
L 201.723716 -277.44358 
L 204.003792 -277.473756 
L 206.283869 -277.509962 
L 208.563945 -277.552075 
L 210.844021 -277.600147 
L 213.124098 -277.654577 
L 215.404174 -277.716333 
L 217.68425 -277.787259 
L 219.964327 -277.870204 
L 222.244403 -277.968622 
L 224.524479 -278.0855 
L 226.804556 -278.222043 
L 229.084632 -278.377002 
L 231.364708 -278.547419 
L 233.644785 -278.730941 
L 235.924861 -278.928889 
L 238.204937 -279.148707 
L 240.485014 -279.404437 
L 242.76509 -279.714562 
L 245.045166 -280.097627 
L 247.325243 -280.567089 
L 249.605319 -281.127488 
L 251.885395 -281.773988 
L 254.165472 -282.496254 
L 256.445548 -283.285683 
L 258.725624 -284.142819 
L 261.005701 -285.080936 
L 263.285777 -286.123122 
L 265.565853 -287.293303 
L 267.84593 -288.604638 
L 270.126006 -290.049657 
L 272.406082 -291.595562 
L 274.686159 -293.186424 
L 276.966235 -294.752586 
L 279.246311 -296.22585 
L 281.526388 -297.556191 
L 283.806464 -298.722993 
L 286.08654 -299.733989 
L 288.366617 -300.610312 
L 290.646693 -301.364006 
L 292.926769 -301.979702 
L 295.206846 -302.410489 
L 297.486922 -302.590125 
L 299.766998 -302.455183 
L 302.047075 -301.966674 
L 304.327151 -301.122573 
L 306.607227 -299.957838 
L 308.887304 -298.53379 
L 311.16738 -296.922303 
L 313.447456 -295.191447 
L 315.727533 -293.397745 
L 318.007609 -291.586262 
L 320.287685 -289.795325 
L 322.567762 -288.060723 
L 324.847838 -286.415959 
L 327.127914 -284.88915 
L 329.407991 -283.499951 
L 331.688067 -282.259359 
L 333.968143 -281.172366 
L 336.24822 -280.240979 
L 338.528296 -279.465179 
L 340.808372 -278.841491 
L 343.088449 -278.360825 
L 343.088449 -276.380425 
L 343.088449 -276.380425 
L 340.808372 -275.899759 
L 338.528296 -275.276071 
L 336.24822 -274.500271 
L 333.968143 -273.568884 
L 331.688067 -272.481891 
L 329.407991 -271.241299 
L 327.127914 -269.8521 
L 324.847838 -268.325291 
L 322.567762 -266.680527 
L 320.287685 -264.945925 
L 318.007609 -263.154988 
L 315.727533 -261.343505 
L 313.447456 -259.549803 
L 311.16738 -257.818947 
L 308.887304 -256.20746 
L 306.607227 -254.783412 
L 304.327151 -253.618677 
L 302.047075 -252.774576 
L 299.766998 -252.286067 
L 297.486922 -252.151125 
L 295.206846 -252.330761 
L 292.926769 -252.761548 
L 290.646693 -253.377244 
L 288.366617 -254.130938 
L 286.08654 -255.007261 
L 283.806464 -256.018257 
L 281.526388 -257.185059 
L 279.246311 -258.5154 
L 276.966235 -259.988664 
L 274.686159 -261.554826 
L 272.406082 -263.145688 
L 270.126006 -264.691593 
L 267.84593 -266.136612 
L 265.565853 -267.447947 
L 263.285777 -268.618128 
L 261.005701 -269.660314 
L 258.725624 -270.598431 
L 256.445548 -271.455567 
L 254.165472 -272.244996 
L 251.885395 -272.967262 
L 249.605319 -273.613762 
L 247.325243 -274.174161 
L 245.045166 -274.643623 
L 242.76509 -275.026688 
L 240.485014 -275.336813 
L 238.204937 -275.592543 
L 235.924861 -275.812361 
L 233.644785 -276.010309 
L 231.364708 -276.193831 
L 229.084632 -276.364248 
L 226.804556 -276.519207 
L 224.524479 -276.65575 
L 222.244403 -276.772628 
L 219.964327 -276.871046 
L 217.68425 -276.953991 
L 215.404174 -277.024917 
L 213.124098 -277.086673 
L 210.844021 -277.141103 
L 208.563945 -277.189175 
L 206.283869 -277.231288 
L 204.003792 -277.267494 
L 201.723716 -277.29767 
L 199.44364 -277.321719 
L 197.163563 -277.339801 
L 194.883487 -277.352483 
L 192.603411 -277.360708 
L 190.323334 -277.365611 
L 188.043258 -277.368288 
L 185.763182 -277.369623 
L 183.483105 -277.37023 
L 181.203029 -277.370482 
L 178.922953 -277.370578 
L 176.642876 -277.370611 
L 174.3628 -277.370621 
L 172.082724 -277.370624 
L 169.802647 -277.370625 
L 167.522571 -277.370625 
L 165.242495 -277.370625 
L 162.962418 -277.370625 
L 160.682342 -277.370625 
L 158.402266 -277.370624 
L 156.12219 -277.37062 
L 153.842113 -277.370604 
L 151.562037 -277.370542 
L 149.281961 -277.370321 
L 147.001884 -277.369608 
L 144.721808 -277.367517 
L 142.441732 -277.361939 
L 140.161655 -277.348441 
L 137.881579 -277.318833 
L 135.601503 -277.260104 
L 133.321426 -277.155053 
L 131.04135 -276.986293 
L 128.761274 -276.744318 
L 126.481197 -276.437727 
L 124.201121 -276.100496 
L 121.921045 -275.790004 
L 119.640968 -275.572689 
L 117.360892 -275.50129 
z
" id="m3215dda7ae" style="stroke:#575757;"/>
    </defs>
    <g clip-path="url(#pbc8af75cc6)">
     <use style="fill:#7c78ab;stroke:#575757;" x="0" xlink:href="#m3215dda7ae" y="319.018203"/>
    </g>
   </g>
   <g id="PolyCollection_2">
    <defs>
     <path d="M 117.256194 -210.659479 
L 117.256194 -217.984271 
L 119.577218 -217.938031 
L 121.898242 -217.77765 
L 124.219266 -217.518317 
L 126.54029 -217.183574 
L 128.861314 -216.801823 
L 131.182338 -216.402399 
L 133.503362 -216.011976 
L 135.824386 -215.651888 
L 138.14541 -215.336675 
L 140.466434 -215.073883 
L 142.787458 -214.864874 
L 145.108482 -214.706275 
L 147.429506 -214.591653 
L 149.75053 -214.513098 
L 152.071554 -214.462491 
L 154.392578 -214.432383 
L 156.713602 -214.416502 
L 159.034626 -214.409977 
L 161.35565 -214.409369 
L 163.676674 -214.412615 
L 165.997698 -214.418913 
L 168.318722 -214.428606 
L 170.639746 -214.443038 
L 172.96077 -214.46438 
L 175.281794 -214.495407 
L 177.602818 -214.539221 
L 179.923842 -214.598913 
L 182.244866 -214.67721 
L 184.56589 -214.77613 
L 186.886914 -214.896705 
L 189.207938 -215.038834 
L 191.528962 -215.201298 
L 193.849986 -215.381966 
L 196.17101 -215.578175 
L 198.492034 -215.787218 
L 200.813058 -216.00686 
L 203.134082 -216.235775 
L 205.455106 -216.473819 
L 207.77613 -216.722065 
L 210.097154 -216.982603 
L 212.418178 -217.258162 
L 214.739202 -217.55163 
L 217.060226 -217.8656 
L 219.381249 -218.202044 
L 221.702273 -218.562177 
L 224.023297 -218.94652 
L 226.344321 -219.355123 
L 228.665345 -219.78785 
L 230.986369 -220.244646 
L 233.307393 -220.725685 
L 235.628417 -221.231367 
L 237.949441 -221.762149 
L 240.270465 -222.318245 
L 242.591489 -222.899259 
L 244.912513 -223.503802 
L 247.233537 -224.129176 
L 249.554561 -224.771177 
L 251.875585 -225.424068 
L 254.196609 -226.080779 
L 256.517633 -226.733347 
L 258.838657 -227.373611 
L 261.159681 -227.994096 
L 263.480705 -228.588992 
L 265.801729 -229.155088 
L 268.122753 -229.692484 
L 270.443777 -230.204948 
L 272.764801 -230.699818 
L 275.085825 -231.18742 
L 277.406849 -231.680082 
L 279.727873 -232.190808 
L 282.048897 -232.731781 
L 284.369921 -233.312783 
L 286.690945 -233.939658 
L 289.011969 -234.612898 
L 291.332993 -235.326478 
L 293.654017 -236.067045 
L 295.975041 -236.813639 
L 298.296065 -237.538072 
L 300.617089 -238.206086 
L 302.938113 -238.779287 
L 305.259137 -239.217747 
L 307.580161 -239.483037 
L 309.901185 -239.541375 
L 312.222209 -239.366508 
L 314.543233 -238.942019 
L 316.864257 -238.262797 
L 319.185281 -237.335566 
L 321.506305 -236.178452 
L 323.827329 -234.81972 
L 326.148353 -233.295856 
L 328.469377 -231.649209 
L 330.790401 -229.925436 
L 333.111425 -228.170926 
L 335.432448 -226.430404 
L 337.753472 -224.744815 
L 340.074496 -223.149607 
L 342.39552 -221.673455 
L 344.716544 -220.337475 
L 347.037568 -219.15494 
L 347.037568 -209.48881 
L 347.037568 -209.48881 
L 344.716544 -208.306275 
L 342.39552 -206.970295 
L 340.074496 -205.494143 
L 337.753472 -203.898935 
L 335.432448 -202.213346 
L 333.111425 -200.472824 
L 330.790401 -198.718314 
L 328.469377 -196.994541 
L 326.148353 -195.347894 
L 323.827329 -193.82403 
L 321.506305 -192.465298 
L 319.185281 -191.308184 
L 316.864257 -190.380953 
L 314.543233 -189.701731 
L 312.222209 -189.277242 
L 309.901185 -189.102375 
L 307.580161 -189.160713 
L 305.259137 -189.426003 
L 302.938113 -189.864463 
L 300.617089 -190.437664 
L 298.296065 -191.105678 
L 295.975041 -191.830111 
L 293.654017 -192.576705 
L 291.332993 -193.317272 
L 289.011969 -194.030852 
L 286.690945 -194.704092 
L 284.369921 -195.330967 
L 282.048897 -195.911969 
L 279.727873 -196.452942 
L 277.406849 -196.963668 
L 275.085825 -197.45633 
L 272.764801 -197.943932 
L 270.443777 -198.438802 
L 268.122753 -198.951266 
L 265.801729 -199.488662 
L 263.480705 -200.054758 
L 261.159681 -200.649654 
L 258.838657 -201.270139 
L 256.517633 -201.910403 
L 254.196609 -202.562971 
L 251.875585 -203.219682 
L 249.554561 -203.872573 
L 247.233537 -204.514574 
L 244.912513 -205.139948 
L 242.591489 -205.744491 
L 240.270465 -206.325505 
L 237.949441 -206.881601 
L 235.628417 -207.412383 
L 233.307393 -207.918065 
L 230.986369 -208.399104 
L 228.665345 -208.8559 
L 226.344321 -209.288627 
L 224.023297 -209.69723 
L 221.702273 -210.081573 
L 219.381249 -210.441706 
L 217.060226 -210.77815 
L 214.739202 -211.09212 
L 212.418178 -211.385588 
L 210.097154 -211.661147 
L 207.77613 -211.921685 
L 205.455106 -212.169931 
L 203.134082 -212.407975 
L 200.813058 -212.63689 
L 198.492034 -212.856532 
L 196.17101 -213.065575 
L 193.849986 -213.261784 
L 191.528962 -213.442452 
L 189.207938 -213.604916 
L 186.886914 -213.747045 
L 184.56589 -213.86762 
L 182.244866 -213.96654 
L 179.923842 -214.044837 
L 177.602818 -214.104529 
L 175.281794 -214.148343 
L 172.96077 -214.17937 
L 170.639746 -214.200712 
L 168.318722 -214.215144 
L 165.997698 -214.224837 
L 163.676674 -214.231135 
L 161.35565 -214.234381 
L 159.034626 -214.233773 
L 156.713602 -214.227248 
L 154.392578 -214.211367 
L 152.071554 -214.181259 
L 149.75053 -214.130652 
L 147.429506 -214.052097 
L 145.108482 -213.937475 
L 142.787458 -213.778876 
L 140.466434 -213.569867 
L 138.14541 -213.307075 
L 135.824386 -212.991862 
L 133.503362 -212.631774 
L 131.182338 -212.241351 
L 128.861314 -211.841927 
L 126.54029 -211.460176 
L 124.219266 -211.125433 
L 121.898242 -210.8661 
L 119.577218 -210.705719 
L 117.256194 -210.659479 
z
" id="m7fb12f7adb" style="stroke:#575757;"/>
    </defs>
    <g clip-path="url(#pbc8af75cc6)">
     <use style="fill:#7c78ab;stroke:#575757;" x="0" xlink:href="#m7fb12f7adb" y="319.018203"/>
    </g>
   </g>
   <g id="PolyCollection_3">
    <defs>
     <path d="M 117.187287 -150.296833 
L 117.187287 -152.249417 
L 119.466067 -152.242732 
L 121.744848 -152.217514 
L 124.023628 -152.175276 
L 126.302409 -152.118489 
L 128.58119 -152.050372 
L 130.85997 -151.974634 
L 133.138751 -151.895203 
L 135.417531 -151.815977 
L 137.696312 -151.740619 
L 139.975092 -151.672428 
L 142.253873 -151.614279 
L 144.532653 -151.568648 
L 146.811434 -151.537682 
L 149.090215 -151.523317 
L 151.368995 -151.527399 
L 153.647776 -151.551793 
L 155.926556 -151.598449 
L 158.205337 -151.669414 
L 160.484117 -151.766777 
L 162.762898 -151.892554 
L 165.041678 -152.048514 
L 167.320459 -152.235972 
L 169.59924 -152.455576 
L 171.87802 -152.70711 
L 174.156801 -152.989352 
L 176.435581 -153.300005 
L 178.714362 -153.635727 
L 180.993142 -153.992262 
L 183.271923 -154.364661 
L 185.550703 -154.747585 
L 187.829484 -155.135639 
L 190.108265 -155.523717 
L 192.387045 -155.907298 
L 194.665826 -156.282664 
L 196.944606 -156.647017 
L 199.223387 -156.998484 
L 201.502167 -157.336006 
L 203.780948 -157.659153 
L 206.059728 -157.967886 
L 208.338509 -158.262309 
L 210.61729 -158.542455 
L 212.89607 -158.808132 
L 215.174851 -159.058841 
L 217.453631 -159.293779 
L 219.732412 -159.511897 
L 222.011192 -159.712009 
L 224.289973 -159.892909 
L 226.568753 -160.053476 
L 228.847534 -160.192758 
L 231.126314 -160.310017 
L 233.405095 -160.404741 
L 235.683876 -160.476655 
L 237.962656 -160.525725 
L 240.241437 -160.552197 
L 242.520217 -160.556669 
L 244.798998 -160.540208 
L 247.077778 -160.5045 
L 249.356559 -160.452011 
L 251.635339 -160.386139 
L 253.91412 -160.311322 
L 256.192901 -160.233087 
L 258.471681 -160.158008 
L 260.750462 -160.093599 
L 263.029242 -160.048113 
L 265.308023 -160.030309 
L 267.586803 -160.049175 
L 269.865584 -160.113663 
L 272.144364 -160.232437 
L 274.423145 -160.413654 
L 276.701926 -160.664782 
L 278.980706 -160.99243 
L 281.259487 -161.402188 
L 283.538267 -161.898444 
L 285.817048 -162.484162 
L 288.095828 -163.160607 
L 290.374609 -163.927025 
L 292.653389 -164.780271 
L 294.93217 -165.71443 
L 297.210951 -166.720435 
L 299.489731 -167.785747 
L 301.768512 -168.894108 
L 304.047292 -170.025428 
L 306.326073 -171.15584 
L 308.604853 -172.257945 
L 310.883634 -173.301313 
L 313.162414 -174.253239 
L 315.441195 -175.079799 
L 317.719976 -175.747181 
L 319.998756 -176.223284 
L 322.277537 -176.479507 
L 324.556317 -176.492625 
L 326.835098 -176.246602 
L 329.113878 -175.734177 
L 331.392659 -174.958022 
L 333.671439 -173.931319 
L 335.95022 -172.677622 
L 338.229001 -171.229941 
L 340.507781 -169.62909 
L 342.786562 -167.921398 
L 342.786562 -134.624852 
L 342.786562 -134.624852 
L 340.507781 -132.91716 
L 338.229001 -131.316309 
L 335.95022 -129.868628 
L 333.671439 -128.614931 
L 331.392659 -127.588228 
L 329.113878 -126.812073 
L 326.835098 -126.299648 
L 324.556317 -126.053625 
L 322.277537 -126.066743 
L 319.998756 -126.322966 
L 317.719976 -126.799069 
L 315.441195 -127.466451 
L 313.162414 -128.293011 
L 310.883634 -129.244937 
L 308.604853 -130.288305 
L 306.326073 -131.39041 
L 304.047292 -132.520822 
L 301.768512 -133.652142 
L 299.489731 -134.760503 
L 297.210951 -135.825815 
L 294.93217 -136.83182 
L 292.653389 -137.765979 
L 290.374609 -138.619225 
L 288.095828 -139.385643 
L 285.817048 -140.062088 
L 283.538267 -140.647806 
L 281.259487 -141.144062 
L 278.980706 -141.55382 
L 276.701926 -141.881468 
L 274.423145 -142.132596 
L 272.144364 -142.313813 
L 269.865584 -142.432587 
L 267.586803 -142.497075 
L 265.308023 -142.515941 
L 263.029242 -142.498137 
L 260.750462 -142.452651 
L 258.471681 -142.388242 
L 256.192901 -142.313163 
L 253.91412 -142.234928 
L 251.635339 -142.160111 
L 249.356559 -142.094239 
L 247.077778 -142.04175 
L 244.798998 -142.006042 
L 242.520217 -141.989581 
L 240.241437 -141.994053 
L 237.962656 -142.020525 
L 235.683876 -142.069595 
L 233.405095 -142.141509 
L 231.126314 -142.236233 
L 228.847534 -142.353492 
L 226.568753 -142.492774 
L 224.289973 -142.653341 
L 222.011192 -142.834241 
L 219.732412 -143.034353 
L 217.453631 -143.252471 
L 215.174851 -143.487409 
L 212.89607 -143.738118 
L 210.61729 -144.003795 
L 208.338509 -144.283941 
L 206.059728 -144.578364 
L 203.780948 -144.887097 
L 201.502167 -145.210244 
L 199.223387 -145.547766 
L 196.944606 -145.899233 
L 194.665826 -146.263586 
L 192.387045 -146.638952 
L 190.108265 -147.022533 
L 187.829484 -147.410611 
L 185.550703 -147.798665 
L 183.271923 -148.181589 
L 180.993142 -148.553988 
L 178.714362 -148.910523 
L 176.435581 -149.246245 
L 174.156801 -149.556898 
L 171.87802 -149.83914 
L 169.59924 -150.090674 
L 167.320459 -150.310278 
L 165.041678 -150.497736 
L 162.762898 -150.653696 
L 160.484117 -150.779473 
L 158.205337 -150.876836 
L 155.926556 -150.947801 
L 153.647776 -150.994457 
L 151.368995 -151.018851 
L 149.090215 -151.022933 
L 146.811434 -151.008568 
L 144.532653 -150.977602 
L 142.253873 -150.931971 
L 139.975092 -150.873822 
L 137.696312 -150.805631 
L 135.417531 -150.730273 
L 133.138751 -150.651047 
L 130.85997 -150.571616 
L 128.58119 -150.495878 
L 126.302409 -150.427761 
L 124.023628 -150.370974 
L 121.744848 -150.328736 
L 119.466067 -150.303518 
L 117.187287 -150.296833 
z
" id="m44b770a1ba" style="stroke:#575757;"/>
    </defs>
    <g clip-path="url(#pbc8af75cc6)">
     <use style="fill:#7c78ab;stroke:#575757;" x="0" xlink:href="#m44b770a1ba" y="319.018203"/>
    </g>
   </g>
   <g id="PolyCollection_4">
    <defs>
     <path d="M 154.877673 -78.291911 
L 154.877673 -98.156839 
L 156.778238 -98.661645 
L 158.678803 -99.152889 
L 160.579368 -99.626781 
L 162.479933 -100.079637 
L 164.380497 -100.507933 
L 166.281062 -100.90837 
L 168.181627 -101.277921 
L 170.082192 -101.613885 
L 171.982757 -101.913934 
L 173.883322 -102.176143 
L 175.783887 -102.399025 
L 177.684452 -102.581554 
L 179.585017 -102.723172 
L 181.485581 -102.823796 
L 183.386146 -102.883817 
L 185.286711 -102.904077 
L 187.187276 -102.885857 
L 189.087841 -102.830842 
L 190.988406 -102.741087 
L 192.888971 -102.618975 
L 194.789536 -102.467174 
L 196.690101 -102.288584 
L 198.590666 -102.086288 
L 200.49123 -101.8635 
L 202.391795 -101.623513 
L 204.29236 -101.369646 
L 206.192925 -101.1052 
L 208.09349 -100.83341 
L 209.994055 -100.557404 
L 211.89462 -100.280172 
L 213.795185 -100.004527 
L 215.69575 -99.733088 
L 217.596314 -99.468257 
L 219.496879 -99.21221 
L 221.397444 -98.966888 
L 223.298009 -98.733997 
L 225.198574 -98.515016 
L 227.099139 -98.311208 
L 228.999704 -98.123632 
L 230.900269 -97.95317 
L 232.800834 -97.800546 
L 234.701398 -97.666357 
L 236.601963 -97.551097 
L 238.502528 -97.455193 
L 240.403093 -97.37903 
L 242.303658 -97.322984 
L 244.204223 -97.287447 
L 246.104788 -97.272857 
L 248.005353 -97.279712 
L 249.905918 -97.308595 
L 251.806482 -97.360179 
L 253.707047 -97.43524 
L 255.607612 -97.534652 
L 257.508177 -97.659381 
L 259.408742 -97.810476 
L 261.309307 -97.989043 
L 263.209872 -98.196219 
L 265.110437 -98.433141 
L 267.011002 -98.700905 
L 268.911566 -99.00052 
L 270.812131 -99.332857 
L 272.712696 -99.698603 
L 274.613261 -100.098197 
L 276.513826 -100.531781 
L 278.414391 -100.999143 
L 280.314956 -101.499664 
L 282.215521 -102.032267 
L 284.116086 -102.595381 
L 286.01665 -103.186895 
L 287.917215 -103.804138 
L 289.81778 -104.44386 
L 291.718345 -105.102226 
L 293.61891 -105.774822 
L 295.519475 -106.456675 
L 297.42004 -107.142289 
L 299.320605 -107.825692 
L 301.22117 -108.500498 
L 303.121734 -109.15998 
L 305.022299 -109.79716 
L 306.922864 -110.404907 
L 308.823429 -110.976045 
L 310.723994 -111.503463 
L 312.624559 -111.980242 
L 314.525124 -112.399771 
L 316.425689 -112.755873 
L 318.326254 -113.042915 
L 320.226818 -113.255928 
L 322.127383 -113.390701 
L 324.027948 -113.443875 
L 325.928513 -113.413015 
L 327.829078 -113.29667 
L 329.729643 -113.094408 
L 331.630208 -112.806843 
L 333.530773 -112.435624 
L 335.431338 -111.98342 
L 337.331902 -111.453874 
L 339.232467 -110.851542 
L 341.133032 -110.181811 
L 343.033597 -109.450806 
L 343.033597 -66.997944 
L 343.033597 -66.997944 
L 341.133032 -66.266939 
L 339.232467 -65.597208 
L 337.331902 -64.994876 
L 335.431338 -64.46533 
L 333.530773 -64.013126 
L 331.630208 -63.641907 
L 329.729643 -63.354342 
L 327.829078 -63.15208 
L 325.928513 -63.035735 
L 324.027948 -63.004875 
L 322.127383 -63.058049 
L 320.226818 -63.192822 
L 318.326254 -63.405835 
L 316.425689 -63.692877 
L 314.525124 -64.048979 
L 312.624559 -64.468508 
L 310.723994 -64.945287 
L 308.823429 -65.472705 
L 306.922864 -66.043843 
L 305.022299 -66.65159 
L 303.121734 -67.28877 
L 301.22117 -67.948252 
L 299.320605 -68.623058 
L 297.42004 -69.306461 
L 295.519475 -69.992075 
L 293.61891 -70.673928 
L 291.718345 -71.346524 
L 289.81778 -72.00489 
L 287.917215 -72.644612 
L 286.01665 -73.261855 
L 284.116086 -73.853369 
L 282.215521 -74.416483 
L 280.314956 -74.949086 
L 278.414391 -75.449607 
L 276.513826 -75.916969 
L 274.613261 -76.350553 
L 272.712696 -76.750147 
L 270.812131 -77.115893 
L 268.911566 -77.44823 
L 267.011002 -77.747845 
L 265.110437 -78.015609 
L 263.209872 -78.252531 
L 261.309307 -78.459707 
L 259.408742 -78.638274 
L 257.508177 -78.789369 
L 255.607612 -78.914098 
L 253.707047 -79.01351 
L 251.806482 -79.088571 
L 249.905918 -79.140155 
L 248.005353 -79.169038 
L 246.104788 -79.175893 
L 244.204223 -79.161303 
L 242.303658 -79.125766 
L 240.403093 -79.06972 
L 238.502528 -78.993557 
L 236.601963 -78.897653 
L 234.701398 -78.782393 
L 232.800834 -78.648204 
L 230.900269 -78.49558 
L 228.999704 -78.325118 
L 227.099139 -78.137542 
L 225.198574 -77.933734 
L 223.298009 -77.714753 
L 221.397444 -77.481862 
L 219.496879 -77.23654 
L 217.596314 -76.980493 
L 215.69575 -76.715662 
L 213.795185 -76.444223 
L 211.89462 -76.168578 
L 209.994055 -75.891346 
L 208.09349 -75.61534 
L 206.192925 -75.34355 
L 204.29236 -75.079104 
L 202.391795 -74.825237 
L 200.49123 -74.58525 
L 198.590666 -74.362462 
L 196.690101 -74.160166 
L 194.789536 -73.981576 
L 192.888971 -73.829775 
L 190.988406 -73.707663 
L 189.087841 -73.617908 
L 187.187276 -73.562893 
L 185.286711 -73.544673 
L 183.386146 -73.564933 
L 181.485581 -73.624954 
L 179.585017 -73.725578 
L 177.684452 -73.867196 
L 175.783887 -74.049725 
L 173.883322 -74.272607 
L 171.982757 -74.534816 
L 170.082192 -74.834865 
L 168.181627 -75.170829 
L 166.281062 -75.54038 
L 164.380497 -75.940817 
L 162.479933 -76.369113 
L 160.579368 -76.821969 
L 158.678803 -77.295861 
L 156.778238 -77.787105 
L 154.877673 -78.291911 
z
" id="m0bfe78243d" style="stroke:#575757;"/>
    </defs>
    <g clip-path="url(#pbc8af75cc6)">
     <use style="fill:#7c78ab;stroke:#575757;" x="0" xlink:href="#m0bfe78243d" y="319.018203"/>
    </g>
   </g>
   <g id="patch_46">
    <path clip-path="url(#pbc8af75cc6)" d="M 117.513 41.647578 
L 117.513 41.647578 
L 117.513 41.647578 
L 117.513 41.647578 
z
" style="fill:#7c78ab;stroke:#575757;stroke-linejoin:miter;stroke-width:0.5;"/>
   </g>
   <g id="matplotlib.axis_3">
    <g id="xtick_5">
     <g id="line2d_10">
      <g>
       <use style="stroke:#000000;stroke-width:1.6;" x="117.513" xlink:href="#m1cb5b771ce" y="262.318203"/>
      </g>
     </g>
     <g id="text_12">
      <!-- 0.0 -->
      <g transform="translate(101.609875 292.215078)scale(0.2 -0.2)">
       <use xlink:href="#DejaVuSans-48"/>
       <use x="63.623047" xlink:href="#DejaVuSans-46"/>
       <use x="95.410156" xlink:href="#DejaVuSans-48"/>
      </g>
     </g>
    </g>
    <g id="xtick_6">
     <g id="line2d_11">
      <g>
       <use style="stroke:#000000;stroke-width:1.6;" x="184.765" xlink:href="#m1cb5b771ce" y="262.318203"/>
      </g>
     </g>
     <g id="text_13">
      <!-- 0.2 -->
      <g transform="translate(168.861875 292.215078)scale(0.2 -0.2)">
       <use xlink:href="#DejaVuSans-48"/>
       <use x="63.623047" xlink:href="#DejaVuSans-46"/>
       <use x="95.410156" xlink:href="#DejaVuSans-50"/>
      </g>
     </g>
    </g>
    <g id="xtick_7">
     <g id="line2d_12">
      <g>
       <use style="stroke:#000000;stroke-width:1.6;" x="252.017" xlink:href="#m1cb5b771ce" y="262.318203"/>
      </g>
     </g>
     <g id="text_14">
      <!-- 0.4 -->
      <g transform="translate(236.113875 292.215078)scale(0.2 -0.2)">
       <use xlink:href="#DejaVuSans-48"/>
       <use x="63.623047" xlink:href="#DejaVuSans-46"/>
       <use x="95.410156" xlink:href="#DejaVuSans-52"/>
      </g>
     </g>
    </g>
    <g id="xtick_8">
     <g id="line2d_13">
      <g>
       <use style="stroke:#000000;stroke-width:1.6;" x="319.269" xlink:href="#m1cb5b771ce" y="262.318203"/>
      </g>
     </g>
     <g id="text_15">
      <!-- 0.6 -->
      <g transform="translate(303.365875 292.215078)scale(0.2 -0.2)">
       <use xlink:href="#DejaVuSans-48"/>
       <use x="63.623047" xlink:href="#DejaVuSans-46"/>
       <use x="95.410156" xlink:href="#DejaVuSans-54"/>
      </g>
     </g>
    </g>
    <g id="text_16">
     <!-- Max Attention -->
     <defs>
      <path d="M 9.8125 72.90625 
L 24.515625 72.90625 
L 43.109375 23.296875 
L 61.8125 72.90625 
L 76.515625 72.90625 
L 76.515625 0 
L 66.890625 0 
L 66.890625 64.015625 
L 48.09375 14.015625 
L 38.1875 14.015625 
L 19.390625 64.015625 
L 19.390625 0 
L 9.8125 0 
z
" id="DejaVuSans-77"/>
      <path d="M 34.28125 27.484375 
Q 23.390625 27.484375 19.1875 25 
Q 14.984375 22.515625 14.984375 16.5 
Q 14.984375 11.71875 18.140625 8.90625 
Q 21.296875 6.109375 26.703125 6.109375 
Q 34.1875 6.109375 38.703125 11.40625 
Q 43.21875 16.703125 43.21875 25.484375 
L 43.21875 27.484375 
z
M 52.203125 31.203125 
L 52.203125 0 
L 43.21875 0 
L 43.21875 8.296875 
Q 40.140625 3.328125 35.546875 0.953125 
Q 30.953125 -1.421875 24.3125 -1.421875 
Q 15.921875 -1.421875 10.953125 3.296875 
Q 6 8.015625 6 15.921875 
Q 6 25.140625 12.171875 29.828125 
Q 18.359375 34.515625 30.609375 34.515625 
L 43.21875 34.515625 
L 43.21875 35.40625 
Q 43.21875 41.609375 39.140625 45 
Q 35.0625 48.390625 27.6875 48.390625 
Q 23 48.390625 18.546875 47.265625 
Q 14.109375 46.140625 10.015625 43.890625 
L 10.015625 52.203125 
Q 14.9375 54.109375 19.578125 55.046875 
Q 24.21875 56 28.609375 56 
Q 40.484375 56 46.34375 49.84375 
Q 52.203125 43.703125 52.203125 31.203125 
z
" id="DejaVuSans-97"/>
      <path d="M 54.890625 54.6875 
L 35.109375 28.078125 
L 55.90625 0 
L 45.3125 0 
L 29.390625 21.484375 
L 13.484375 0 
L 2.875 0 
L 24.125 28.609375 
L 4.6875 54.6875 
L 15.28125 54.6875 
L 29.78125 35.203125 
L 44.28125 54.6875 
z
" id="DejaVuSans-120"/>
      <path d="M 34.1875 63.1875 
L 20.796875 26.90625 
L 47.609375 26.90625 
z
M 28.609375 72.90625 
L 39.796875 72.90625 
L 67.578125 0 
L 57.328125 0 
L 50.6875 18.703125 
L 17.828125 18.703125 
L 11.1875 0 
L 0.78125 0 
z
" id="DejaVuSans-65"/>
      <path d="M 18.3125 70.21875 
L 18.3125 54.6875 
L 36.8125 54.6875 
L 36.8125 47.703125 
L 18.3125 47.703125 
L 18.3125 18.015625 
Q 18.3125 11.328125 20.140625 9.421875 
Q 21.96875 7.515625 27.59375 7.515625 
L 36.8125 7.515625 
L 36.8125 0 
L 27.59375 0 
Q 17.1875 0 13.234375 3.875 
Q 9.28125 7.765625 9.28125 18.015625 
L 9.28125 47.703125 
L 2.6875 47.703125 
L 2.6875 54.6875 
L 9.28125 54.6875 
L 9.28125 70.21875 
z
" id="DejaVuSans-116"/>
      <path d="M 56.203125 29.59375 
L 56.203125 25.203125 
L 14.890625 25.203125 
Q 15.484375 15.921875 20.484375 11.0625 
Q 25.484375 6.203125 34.421875 6.203125 
Q 39.59375 6.203125 44.453125 7.46875 
Q 49.3125 8.734375 54.109375 11.28125 
L 54.109375 2.78125 
Q 49.265625 0.734375 44.1875 -0.34375 
Q 39.109375 -1.421875 33.890625 -1.421875 
Q 20.796875 -1.421875 13.15625 6.1875 
Q 5.515625 13.8125 5.515625 26.8125 
Q 5.515625 40.234375 12.765625 48.109375 
Q 20.015625 56 32.328125 56 
Q 43.359375 56 49.78125 48.890625 
Q 56.203125 41.796875 56.203125 29.59375 
z
M 47.21875 32.234375 
Q 47.125 39.59375 43.09375 43.984375 
Q 39.0625 48.390625 32.421875 48.390625 
Q 24.90625 48.390625 20.390625 44.140625 
Q 15.875 39.890625 15.1875 32.171875 
z
" id="DejaVuSans-101"/>
      <path d="M 54.890625 33.015625 
L 54.890625 0 
L 45.90625 0 
L 45.90625 32.71875 
Q 45.90625 40.484375 42.875 44.328125 
Q 39.84375 48.1875 33.796875 48.1875 
Q 26.515625 48.1875 22.3125 43.546875 
Q 18.109375 38.921875 18.109375 30.90625 
L 18.109375 0 
L 9.078125 0 
L 9.078125 54.6875 
L 18.109375 54.6875 
L 18.109375 46.1875 
Q 21.34375 51.125 25.703125 53.5625 
Q 30.078125 56 35.796875 56 
Q 45.21875 56 50.046875 50.171875 
Q 54.890625 44.34375 54.890625 33.015625 
z
" id="DejaVuSans-110"/>
      <path d="M 9.421875 54.6875 
L 18.40625 54.6875 
L 18.40625 0 
L 9.421875 0 
z
M 9.421875 75.984375 
L 18.40625 75.984375 
L 18.40625 64.59375 
L 9.421875 64.59375 
z
" id="DejaVuSans-105"/>
      <path d="M 30.609375 48.390625 
Q 23.390625 48.390625 19.1875 42.75 
Q 14.984375 37.109375 14.984375 27.296875 
Q 14.984375 17.484375 19.15625 11.84375 
Q 23.34375 6.203125 30.609375 6.203125 
Q 37.796875 6.203125 41.984375 11.859375 
Q 46.1875 17.53125 46.1875 27.296875 
Q 46.1875 37.015625 41.984375 42.703125 
Q 37.796875 48.390625 30.609375 48.390625 
z
M 30.609375 56 
Q 42.328125 56 49.015625 48.375 
Q 55.71875 40.765625 55.71875 27.296875 
Q 55.71875 13.875 49.015625 6.21875 
Q 42.328125 -1.421875 30.609375 -1.421875 
Q 18.84375 -1.421875 12.171875 6.21875 
Q 5.515625 13.875 5.515625 27.296875 
Q 5.515625 40.765625 12.171875 48.375 
Q 18.84375 56 30.609375 56 
z
" id="DejaVuSans-111"/>
     </defs>
     <g transform="translate(156.619375 315.571328)scale(0.2 -0.2)">
      <use xlink:href="#DejaVuSans-77"/>
      <use x="86.279297" xlink:href="#DejaVuSans-97"/>
      <use x="147.558594" xlink:href="#DejaVuSans-120"/>
      <use x="206.738281" xlink:href="#DejaVuSans-32"/>
      <use x="238.525391" xlink:href="#DejaVuSans-65"/>
      <use x="306.917969" xlink:href="#DejaVuSans-116"/>
      <use x="346.126953" xlink:href="#DejaVuSans-116"/>
      <use x="385.335938" xlink:href="#DejaVuSans-101"/>
      <use x="446.859375" xlink:href="#DejaVuSans-110"/>
      <use x="510.238281" xlink:href="#DejaVuSans-116"/>
      <use x="549.447266" xlink:href="#DejaVuSans-105"/>
      <use x="577.230469" xlink:href="#DejaVuSans-111"/>
      <use x="638.412109" xlink:href="#DejaVuSans-110"/>
     </g>
    </g>
   </g>
   <g id="matplotlib.axis_4">
    <g id="ytick_6">
     <g id="line2d_14">
      <g>
       <use style="stroke:#000000;stroke-width:1.6;" x="100.7" xlink:href="#mc4c78d7f44" y="41.647578"/>
      </g>
     </g>
     <g id="text_17">
      <!-- [0.00, -->
      <defs>
       <path d="M 8.59375 75.984375 
L 29.296875 75.984375 
L 29.296875 69 
L 17.578125 69 
L 17.578125 -6.203125 
L 29.296875 -6.203125 
L 29.296875 -13.1875 
L 8.59375 -13.1875 
z
" id="DejaVuSans-91"/>
       <path d="M 11.71875 12.40625 
L 22.015625 12.40625 
L 22.015625 4 
L 14.015625 -11.625 
L 7.71875 -11.625 
L 11.71875 4 
z
" id="DejaVuSans-44"/>
      </defs>
      <g transform="translate(27.309375 38.048203)scale(0.2 -0.2)">
       <use xlink:href="#DejaVuSans-91"/>
       <use x="39.013672" xlink:href="#DejaVuSans-48"/>
       <use x="102.636719" xlink:href="#DejaVuSans-46"/>
       <use x="134.423828" xlink:href="#DejaVuSans-48"/>
       <use x="198.046875" xlink:href="#DejaVuSans-48"/>
       <use x="261.669922" xlink:href="#DejaVuSans-44"/>
      </g>
      <!-- 0.25) -->
      <defs>
       <path d="M 10.796875 72.90625 
L 49.515625 72.90625 
L 49.515625 64.59375 
L 19.828125 64.59375 
L 19.828125 46.734375 
Q 21.96875 47.46875 24.109375 47.828125 
Q 26.265625 48.1875 28.421875 48.1875 
Q 40.625 48.1875 47.75 41.5 
Q 54.890625 34.8125 54.890625 23.390625 
Q 54.890625 11.625 47.5625 5.09375 
Q 40.234375 -1.421875 26.90625 -1.421875 
Q 22.3125 -1.421875 17.546875 -0.640625 
Q 12.796875 0.140625 7.71875 1.703125 
L 7.71875 11.625 
Q 12.109375 9.234375 16.796875 8.0625 
Q 21.484375 6.890625 26.703125 6.890625 
Q 35.15625 6.890625 40.078125 11.328125 
Q 45.015625 15.765625 45.015625 23.390625 
Q 45.015625 31 40.078125 35.4375 
Q 35.15625 39.890625 26.703125 39.890625 
Q 22.75 39.890625 18.8125 39.015625 
Q 14.890625 38.140625 10.796875 36.28125 
z
" id="DejaVuSans-53"/>
       <path d="M 8.015625 75.875 
L 15.828125 75.875 
Q 23.140625 64.359375 26.78125 53.3125 
Q 30.421875 42.28125 30.421875 31.390625 
Q 30.421875 20.453125 26.78125 9.375 
Q 23.140625 -1.703125 15.828125 -13.1875 
L 8.015625 -13.1875 
Q 14.5 -2 17.703125 9.0625 
Q 20.90625 20.125 20.90625 31.390625 
Q 20.90625 42.671875 17.703125 53.65625 
Q 14.5 64.65625 8.015625 75.875 
z
" id="DejaVuSans-41"/>
      </defs>
      <g transform="translate(33.665625 60.443828)scale(0.2 -0.2)">
       <use xlink:href="#DejaVuSans-48"/>
       <use x="63.623047" xlink:href="#DejaVuSans-46"/>
       <use x="95.410156" xlink:href="#DejaVuSans-50"/>
       <use x="159.033203" xlink:href="#DejaVuSans-53"/>
       <use x="222.65625" xlink:href="#DejaVuSans-41"/>
      </g>
     </g>
    </g>
    <g id="ytick_7">
     <g id="line2d_15">
      <g>
       <use style="stroke:#000000;stroke-width:1.6;" x="100.7" xlink:href="#mc4c78d7f44" y="104.696328"/>
      </g>
     </g>
     <g id="text_18">
      <!-- [0.25, -->
      <g transform="translate(27.309375 101.096953)scale(0.2 -0.2)">
       <use xlink:href="#DejaVuSans-91"/>
       <use x="39.013672" xlink:href="#DejaVuSans-48"/>
       <use x="102.636719" xlink:href="#DejaVuSans-46"/>
       <use x="134.423828" xlink:href="#DejaVuSans-50"/>
       <use x="198.046875" xlink:href="#DejaVuSans-53"/>
       <use x="261.669922" xlink:href="#DejaVuSans-44"/>
      </g>
      <!-- 0.50) -->
      <g transform="translate(33.665625 123.492578)scale(0.2 -0.2)">
       <use xlink:href="#DejaVuSans-48"/>
       <use x="63.623047" xlink:href="#DejaVuSans-46"/>
       <use x="95.410156" xlink:href="#DejaVuSans-53"/>
       <use x="159.033203" xlink:href="#DejaVuSans-48"/>
       <use x="222.65625" xlink:href="#DejaVuSans-41"/>
      </g>
     </g>
    </g>
    <g id="ytick_8">
     <g id="line2d_16">
      <g>
       <use style="stroke:#000000;stroke-width:1.6;" x="100.7" xlink:href="#mc4c78d7f44" y="167.745078"/>
      </g>
     </g>
     <g id="text_19">
      <!-- [0.50, -->
      <g transform="translate(27.309375 164.145703)scale(0.2 -0.2)">
       <use xlink:href="#DejaVuSans-91"/>
       <use x="39.013672" xlink:href="#DejaVuSans-48"/>
       <use x="102.636719" xlink:href="#DejaVuSans-46"/>
       <use x="134.423828" xlink:href="#DejaVuSans-53"/>
       <use x="198.046875" xlink:href="#DejaVuSans-48"/>
       <use x="261.669922" xlink:href="#DejaVuSans-44"/>
      </g>
      <!-- 0.75) -->
      <defs>
       <path d="M 8.203125 72.90625 
L 55.078125 72.90625 
L 55.078125 68.703125 
L 28.609375 0 
L 18.3125 0 
L 43.21875 64.59375 
L 8.203125 64.59375 
z
" id="DejaVuSans-55"/>
      </defs>
      <g transform="translate(33.665625 186.541328)scale(0.2 -0.2)">
       <use xlink:href="#DejaVuSans-48"/>
       <use x="63.623047" xlink:href="#DejaVuSans-46"/>
       <use x="95.410156" xlink:href="#DejaVuSans-55"/>
       <use x="159.033203" xlink:href="#DejaVuSans-53"/>
       <use x="222.65625" xlink:href="#DejaVuSans-41"/>
      </g>
     </g>
    </g>
    <g id="ytick_9">
     <g id="line2d_17">
      <g>
       <use style="stroke:#000000;stroke-width:1.6;" x="100.7" xlink:href="#mc4c78d7f44" y="230.793828"/>
      </g>
     </g>
     <g id="text_20">
      <!-- [0.75, -->
      <g transform="translate(27.309375 227.194453)scale(0.2 -0.2)">
       <use xlink:href="#DejaVuSans-91"/>
       <use x="39.013672" xlink:href="#DejaVuSans-48"/>
       <use x="102.636719" xlink:href="#DejaVuSans-46"/>
       <use x="134.423828" xlink:href="#DejaVuSans-55"/>
       <use x="198.046875" xlink:href="#DejaVuSans-53"/>
       <use x="261.669922" xlink:href="#DejaVuSans-44"/>
      </g>
      <!-- 1.00) -->
      <defs>
       <path d="M 12.40625 8.296875 
L 28.515625 8.296875 
L 28.515625 63.921875 
L 10.984375 60.40625 
L 10.984375 69.390625 
L 28.421875 72.90625 
L 38.28125 72.90625 
L 38.28125 8.296875 
L 54.390625 8.296875 
L 54.390625 0 
L 12.40625 0 
z
" id="DejaVuSans-49"/>
      </defs>
      <g transform="translate(33.665625 249.590078)scale(0.2 -0.2)">
       <use xlink:href="#DejaVuSans-49"/>
       <use x="63.623047" xlink:href="#DejaVuSans-46"/>
       <use x="95.410156" xlink:href="#DejaVuSans-48"/>
       <use x="159.033203" xlink:href="#DejaVuSans-48"/>
       <use x="222.65625" xlink:href="#DejaVuSans-41"/>
      </g>
     </g>
    </g>
    <g id="text_21">
     <!-- Max JS Divergence within $\epsilon$ -->
     <defs>
      <path d="M 9.8125 72.90625 
L 19.671875 72.90625 
L 19.671875 5.078125 
Q 19.671875 -8.109375 14.671875 -14.0625 
Q 9.671875 -20.015625 -1.421875 -20.015625 
L -5.171875 -20.015625 
L -5.171875 -11.71875 
L -2.09375 -11.71875 
Q 4.4375 -11.71875 7.125 -8.046875 
Q 9.8125 -4.390625 9.8125 5.078125 
z
" id="DejaVuSans-74"/>
      <path d="M 53.515625 70.515625 
L 53.515625 60.890625 
Q 47.90625 63.578125 42.921875 64.890625 
Q 37.9375 66.21875 33.296875 66.21875 
Q 25.25 66.21875 20.875 63.09375 
Q 16.5 59.96875 16.5 54.203125 
Q 16.5 49.359375 19.40625 46.890625 
Q 22.3125 44.4375 30.421875 42.921875 
L 36.375 41.703125 
Q 47.40625 39.59375 52.65625 34.296875 
Q 57.90625 29 57.90625 20.125 
Q 57.90625 9.515625 50.796875 4.046875 
Q 43.703125 -1.421875 29.984375 -1.421875 
Q 24.8125 -1.421875 18.96875 -0.25 
Q 13.140625 0.921875 6.890625 3.21875 
L 6.890625 13.375 
Q 12.890625 10.015625 18.65625 8.296875 
Q 24.421875 6.59375 29.984375 6.59375 
Q 38.421875 6.59375 43.015625 9.90625 
Q 47.609375 13.234375 47.609375 19.390625 
Q 47.609375 24.75 44.3125 27.78125 
Q 41.015625 30.8125 33.5 32.328125 
L 27.484375 33.5 
Q 16.453125 35.6875 11.515625 40.375 
Q 6.59375 45.0625 6.59375 53.421875 
Q 6.59375 63.09375 13.40625 68.65625 
Q 20.21875 74.21875 32.171875 74.21875 
Q 37.3125 74.21875 42.625 73.28125 
Q 47.953125 72.359375 53.515625 70.515625 
z
" id="DejaVuSans-83"/>
      <path d="M 19.671875 64.796875 
L 19.671875 8.109375 
L 31.59375 8.109375 
Q 46.6875 8.109375 53.6875 14.9375 
Q 60.6875 21.78125 60.6875 36.53125 
Q 60.6875 51.171875 53.6875 57.984375 
Q 46.6875 64.796875 31.59375 64.796875 
z
M 9.8125 72.90625 
L 30.078125 72.90625 
Q 51.265625 72.90625 61.171875 64.09375 
Q 71.09375 55.28125 71.09375 36.53125 
Q 71.09375 17.671875 61.125 8.828125 
Q 51.171875 0 30.078125 0 
L 9.8125 0 
z
" id="DejaVuSans-68"/>
      <path d="M 2.984375 54.6875 
L 12.5 54.6875 
L 29.59375 8.796875 
L 46.6875 54.6875 
L 56.203125 54.6875 
L 35.6875 0 
L 23.484375 0 
z
" id="DejaVuSans-118"/>
      <path d="M 41.109375 46.296875 
Q 39.59375 47.171875 37.8125 47.578125 
Q 36.03125 48 33.890625 48 
Q 26.265625 48 22.1875 43.046875 
Q 18.109375 38.09375 18.109375 28.8125 
L 18.109375 0 
L 9.078125 0 
L 9.078125 54.6875 
L 18.109375 54.6875 
L 18.109375 46.1875 
Q 20.953125 51.171875 25.484375 53.578125 
Q 30.03125 56 36.53125 56 
Q 37.453125 56 38.578125 55.875 
Q 39.703125 55.765625 41.0625 55.515625 
z
" id="DejaVuSans-114"/>
      <path d="M 45.40625 27.984375 
Q 45.40625 37.75 41.375 43.109375 
Q 37.359375 48.484375 30.078125 48.484375 
Q 22.859375 48.484375 18.828125 43.109375 
Q 14.796875 37.75 14.796875 27.984375 
Q 14.796875 18.265625 18.828125 12.890625 
Q 22.859375 7.515625 30.078125 7.515625 
Q 37.359375 7.515625 41.375 12.890625 
Q 45.40625 18.265625 45.40625 27.984375 
z
M 54.390625 6.78125 
Q 54.390625 -7.171875 48.1875 -13.984375 
Q 42 -20.796875 29.203125 -20.796875 
Q 24.46875 -20.796875 20.265625 -20.09375 
Q 16.0625 -19.390625 12.109375 -17.921875 
L 12.109375 -9.1875 
Q 16.0625 -11.328125 19.921875 -12.34375 
Q 23.78125 -13.375 27.78125 -13.375 
Q 36.625 -13.375 41.015625 -8.765625 
Q 45.40625 -4.15625 45.40625 5.171875 
L 45.40625 9.625 
Q 42.625 4.78125 38.28125 2.390625 
Q 33.9375 0 27.875 0 
Q 17.828125 0 11.671875 7.65625 
Q 5.515625 15.328125 5.515625 27.984375 
Q 5.515625 40.671875 11.671875 48.328125 
Q 17.828125 56 27.875 56 
Q 33.9375 56 38.28125 53.609375 
Q 42.625 51.21875 45.40625 46.390625 
L 45.40625 54.6875 
L 54.390625 54.6875 
z
" id="DejaVuSans-103"/>
      <path d="M 48.78125 52.59375 
L 48.78125 44.1875 
Q 44.96875 46.296875 41.140625 47.34375 
Q 37.3125 48.390625 33.40625 48.390625 
Q 24.65625 48.390625 19.8125 42.84375 
Q 14.984375 37.3125 14.984375 27.296875 
Q 14.984375 17.28125 19.8125 11.734375 
Q 24.65625 6.203125 33.40625 6.203125 
Q 37.3125 6.203125 41.140625 7.25 
Q 44.96875 8.296875 48.78125 10.40625 
L 48.78125 2.09375 
Q 45.015625 0.34375 40.984375 -0.53125 
Q 36.96875 -1.421875 32.421875 -1.421875 
Q 20.0625 -1.421875 12.78125 6.34375 
Q 5.515625 14.109375 5.515625 27.296875 
Q 5.515625 40.671875 12.859375 48.328125 
Q 20.21875 56 33.015625 56 
Q 37.15625 56 41.109375 55.140625 
Q 45.0625 54.296875 48.78125 52.59375 
z
" id="DejaVuSans-99"/>
      <path d="M 4.203125 54.6875 
L 13.1875 54.6875 
L 24.421875 12.015625 
L 35.59375 54.6875 
L 46.1875 54.6875 
L 57.421875 12.015625 
L 68.609375 54.6875 
L 77.59375 54.6875 
L 63.28125 0 
L 52.6875 0 
L 40.921875 44.828125 
L 29.109375 0 
L 18.5 0 
z
" id="DejaVuSans-119"/>
      <path d="M 54.890625 33.015625 
L 54.890625 0 
L 45.90625 0 
L 45.90625 32.71875 
Q 45.90625 40.484375 42.875 44.328125 
Q 39.84375 48.1875 33.796875 48.1875 
Q 26.515625 48.1875 22.3125 43.546875 
Q 18.109375 38.921875 18.109375 30.90625 
L 18.109375 0 
L 9.078125 0 
L 9.078125 75.984375 
L 18.109375 75.984375 
L 18.109375 46.1875 
Q 21.34375 51.125 25.703125 53.5625 
Q 30.078125 56 35.796875 56 
Q 45.21875 56 50.046875 50.171875 
Q 54.890625 44.34375 54.890625 33.015625 
z
" id="DejaVuSans-104"/>
      <path d="M 19.734375 29.5 
Q 14.453125 30.671875 12.15625 33.84375 
Q 10.453125 36.078125 10.453125 39.109375 
Q 10.453125 47.40625 18.359375 52.25 
Q 24.609375 56.0625 34.1875 56.0625 
Q 37.890625 56.0625 41.9375 55.46875 
Q 46 54.890625 50.53125 53.71875 
L 48.96875 45.5625 
Q 44.484375 46.96875 40.71875 47.609375 
Q 36.859375 48.25 33.40625 48.25 
Q 27.59375 48.25 23.78125 46 
Q 19.1875 43.3125 19.1875 39.40625 
Q 19.1875 36.8125 21.578125 35.015625 
Q 24.421875 32.859375 30.078125 32.859375 
L 37.640625 32.859375 
L 36.234375 25.4375 
L 29 25.4375 
Q 22.265625 25.4375 18.3125 22.953125 
Q 12.9375 19.578125 12.9375 14.3125 
Q 12.9375 10.984375 15.828125 8.796875 
Q 19.4375 6.0625 26.8125 6.0625 
Q 31.34375 6.0625 35.6875 6.9375 
Q 40.046875 7.859375 43.84375 9.671875 
L 42.1875 1.3125 
Q 37.546875 -0.046875 33.296875 -0.734375 
Q 29.046875 -1.421875 25.140625 -1.421875 
Q 13.53125 -1.421875 8.0625 3.03125 
Q 3.90625 6.453125 3.90625 12.203125 
Q 3.90625 19.96875 9.375 24.75 
Q 13.421875 28.328125 19.734375 29.5 
z
" id="DejaVuSans-Oblique-949"/>
     </defs>
     <g transform="translate(19.109375 271.820703)rotate(-90)scale(0.2 -0.2)">
      <use transform="translate(0 0.015625)" xlink:href="#DejaVuSans-77"/>
      <use transform="translate(86.279297 0.015625)" xlink:href="#DejaVuSans-97"/>
      <use transform="translate(147.558594 0.015625)" xlink:href="#DejaVuSans-120"/>
      <use transform="translate(206.738281 0.015625)" xlink:href="#DejaVuSans-32"/>
      <use transform="translate(238.525391 0.015625)" xlink:href="#DejaVuSans-74"/>
      <use transform="translate(268.017578 0.015625)" xlink:href="#DejaVuSans-83"/>
      <use transform="translate(331.494141 0.015625)" xlink:href="#DejaVuSans-32"/>
      <use transform="translate(363.28125 0.015625)" xlink:href="#DejaVuSans-68"/>
      <use transform="translate(440.283203 0.015625)" xlink:href="#DejaVuSans-105"/>
      <use transform="translate(468.066406 0.015625)" xlink:href="#DejaVuSans-118"/>
      <use transform="translate(527.246094 0.015625)" xlink:href="#DejaVuSans-101"/>
      <use transform="translate(588.769531 0.015625)" xlink:href="#DejaVuSans-114"/>
      <use transform="translate(629.882812 0.015625)" xlink:href="#DejaVuSans-103"/>
      <use transform="translate(693.359375 0.015625)" xlink:href="#DejaVuSans-101"/>
      <use transform="translate(754.882812 0.015625)" xlink:href="#DejaVuSans-110"/>
      <use transform="translate(818.261719 0.015625)" xlink:href="#DejaVuSans-99"/>
      <use transform="translate(873.242188 0.015625)" xlink:href="#DejaVuSans-101"/>
      <use transform="translate(934.765625 0.015625)" xlink:href="#DejaVuSans-32"/>
      <use transform="translate(966.552734 0.015625)" xlink:href="#DejaVuSans-119"/>
      <use transform="translate(1048.339844 0.015625)" xlink:href="#DejaVuSans-105"/>
      <use transform="translate(1076.123047 0.015625)" xlink:href="#DejaVuSans-116"/>
      <use transform="translate(1115.332031 0.015625)" xlink:href="#DejaVuSans-104"/>
      <use transform="translate(1178.710938 0.015625)" xlink:href="#DejaVuSans-105"/>
      <use transform="translate(1206.494141 0.015625)" xlink:href="#DejaVuSans-110"/>
      <use transform="translate(1269.873047 0.015625)" xlink:href="#DejaVuSans-32"/>
      <use transform="translate(1301.660156 0.015625)" xlink:href="#DejaVuSans-Oblique-949"/>
     </g>
    </g>
   </g>
   <g id="line2d_18">
    <path clip-path="url(#pbc8af75cc6)" d="M 278.660839 22.980906 
L 278.660839 60.31425 
" style="fill:none;stroke:#575757;stroke-dasharray:1.5,1.5;stroke-dashoffset:0;"/>
   </g>
   <g id="line2d_19">
    <path clip-path="url(#pbc8af75cc6)" d="M 293.85135 17.284592 
L 293.85135 66.010564 
" style="fill:none;stroke:#575757;stroke-dasharray:3,3;stroke-dashoffset:0;"/>
   </g>
   <g id="line2d_20">
    <path clip-path="url(#pbc8af75cc6)" d="M 306.431605 19.286238 
L 306.431605 64.008919 
" style="fill:none;stroke:#575757;stroke-dasharray:1.5,1.5;stroke-dashoffset:0;"/>
   </g>
   <g id="line2d_21">
    <path clip-path="url(#pbc8af75cc6)" d="M 262.855638 90.571882 
L 262.855638 118.820774 
" style="fill:none;stroke:#575757;stroke-dasharray:1.5,1.5;stroke-dashoffset:0;"/>
   </g>
   <g id="line2d_22">
    <path clip-path="url(#pbc8af75cc6)" d="M 293.042629 83.168609 
L 293.042629 126.224047 
" style="fill:none;stroke:#575757;stroke-dasharray:3,3;stroke-dashoffset:0;"/>
   </g>
   <g id="line2d_23">
    <path clip-path="url(#pbc8af75cc6)" d="M 314.076421 80.322386 
L 314.076421 129.07027 
" style="fill:none;stroke:#575757;stroke-dasharray:1.5,1.5;stroke-dashoffset:0;"/>
   </g>
   <g id="line2d_24">
    <path clip-path="url(#pbc8af75cc6)" d="M 249.096777 158.657981 
L 249.096777 176.832175 
" style="fill:none;stroke:#575757;stroke-dasharray:1.5,1.5;stroke-dashoffset:0;"/>
   </g>
   <g id="line2d_25">
    <path clip-path="url(#pbc8af75cc6)" d="M 307.06784 148.06119 
L 307.06784 187.428966 
" style="fill:none;stroke:#575757;stroke-dasharray:3,3;stroke-dashoffset:0;"/>
   </g>
   <g id="line2d_26">
    <path clip-path="url(#pbc8af75cc6)" d="M 327.606233 143.021335 
L 327.606233 192.468821 
" style="fill:none;stroke:#575757;stroke-dasharray:1.5,1.5;stroke-dashoffset:0;"/>
   </g>
   <g id="line2d_27">
    <path clip-path="url(#pbc8af75cc6)" d="M 200.382656 217.291094 
L 200.382656 244.296562 
" style="fill:none;stroke:#575757;stroke-dasharray:1.5,1.5;stroke-dashoffset:0;"/>
   </g>
   <g id="line2d_28">
    <path clip-path="url(#pbc8af75cc6)" d="M 300.684514 210.720467 
L 300.684514 250.86719 
" style="fill:none;stroke:#575757;stroke-dasharray:3,3;stroke-dashoffset:0;"/>
   </g>
   <g id="line2d_29">
    <path clip-path="url(#pbc8af75cc6)" d="M 327.103668 205.972256 
L 327.103668 255.6154 
" style="fill:none;stroke:#575757;stroke-dasharray:1.5,1.5;stroke-dashoffset:0;"/>
   </g>
   <g id="patch_47">
    <path d="M 100.7 262.318203 
L 100.7 10.123203 
" style="fill:none;stroke:#000000;stroke-linecap:square;stroke-linejoin:miter;stroke-width:0.8;"/>
   </g>
   <g id="patch_48">
    <path d="M 100.7 262.318203 
L 352.895 262.318203 
" style="fill:none;stroke:#000000;stroke-linecap:square;stroke-linejoin:miter;stroke-width:0.8;"/>
   </g>
  </g>
 </g>
 <defs>
  <clipPath id="p8e6fb9c9cc">
   <rect height="252.195" width="252.195" x="-266.855" y="10.123203"/>
  </clipPath>
  <clipPath id="pbc8af75cc6">
   <rect height="252.195" width="252.195" x="100.7" y="10.123203"/>
  </clipPath>
 </defs>
</svg>
