<?xml version="1.0" encoding="utf-8" standalone="no"?>
<!DOCTYPE svg PUBLIC "-//W3C//DTD SVG 1.1//EN"
  "http://www.w3.org/Graphics/SVG/1.1/DTD/svg11.dtd">
<!-- Created with matplotlib (https://matplotlib.org/) -->
<svg height="324.058203pt" version="1.1" viewBox="0 0 366.475 324.058203" width="366.475pt" xmlns="http://www.w3.org/2000/svg" xmlns:xlink="http://www.w3.org/1999/xlink">
 <defs>
  <style type="text/css">
*{stroke-linecap:butt;stroke-linejoin:round;}
  </style>
 </defs>
 <g id="figure_1">
  <g id="patch_1">
   <path d="M 0 324.058203 
L 366.475 324.058203 
L 366.475 0 
L 0 0 
z
" style="fill:#ffffff;"/>
  </g>
  <g id="axes_1">
   <g id="patch_2">
    <path d="M -269.375 267.358203 
L -7.1 267.358203 
L -7.1 5.083203 
L -269.375 5.083203 
z
" style="fill:#ffffff;"/>
   </g>
   <g id="patch_3">
    <path clip-path="url(#p0391b050ab)" d="M -257.453409 267.358203 
L -251.492614 267.358203 
L -251.492614 179.595655 
L -257.453409 179.595655 
z
" style="fill:#7570b3;opacity:0.6;stroke:#000000;stroke-linejoin:miter;stroke-width:0.5;"/>
   </g>
   <g id="patch_4">
    <path clip-path="url(#p0391b050ab)" d="M -251.492614 267.358203 
L -245.531818 267.358203 
L -245.531818 267.358203 
L -251.492614 267.358203 
z
" style="fill:#7570b3;opacity:0.6;stroke:#000000;stroke-linejoin:miter;stroke-width:0.5;"/>
   </g>
   <g id="patch_5">
    <path clip-path="url(#p0391b050ab)" d="M -245.531818 267.358203 
L -239.571023 267.358203 
L -239.571023 267.358203 
L -245.531818 267.358203 
z
" style="fill:#7570b3;opacity:0.6;stroke:#000000;stroke-linejoin:miter;stroke-width:0.5;"/>
   </g>
   <g id="patch_6">
    <path clip-path="url(#p0391b050ab)" d="M -239.571023 267.358203 
L -233.610227 267.358203 
L -233.610227 267.358203 
L -239.571023 267.358203 
z
" style="fill:#7570b3;opacity:0.6;stroke:#000000;stroke-linejoin:miter;stroke-width:0.5;"/>
   </g>
   <g id="patch_7">
    <path clip-path="url(#p0391b050ab)" d="M -233.610227 267.358203 
L -227.649432 267.358203 
L -227.649432 267.358203 
L -233.610227 267.358203 
z
" style="fill:#7570b3;opacity:0.6;stroke:#000000;stroke-linejoin:miter;stroke-width:0.5;"/>
   </g>
   <g id="patch_8">
    <path clip-path="url(#p0391b050ab)" d="M -227.649432 267.358203 
L -221.688636 267.358203 
L -221.688636 267.358203 
L -227.649432 267.358203 
z
" style="fill:#7570b3;opacity:0.6;stroke:#000000;stroke-linejoin:miter;stroke-width:0.5;"/>
   </g>
   <g id="patch_9">
    <path clip-path="url(#p0391b050ab)" d="M -221.688636 267.358203 
L -215.727841 267.358203 
L -215.727841 265.670462 
L -221.688636 265.670462 
z
" style="fill:#7570b3;opacity:0.6;stroke:#000000;stroke-linejoin:miter;stroke-width:0.5;"/>
   </g>
   <g id="patch_10">
    <path clip-path="url(#p0391b050ab)" d="M -215.727841 267.358203 
L -209.767045 267.358203 
L -209.767045 266.514332 
L -215.727841 266.514332 
z
" style="fill:#7570b3;opacity:0.6;stroke:#000000;stroke-linejoin:miter;stroke-width:0.5;"/>
   </g>
   <g id="patch_11">
    <path clip-path="url(#p0391b050ab)" d="M -209.767045 267.358203 
L -203.80625 267.358203 
L -203.80625 263.13885 
L -209.767045 263.13885 
z
" style="fill:#7570b3;opacity:0.6;stroke:#000000;stroke-linejoin:miter;stroke-width:0.5;"/>
   </g>
   <g id="patch_12">
    <path clip-path="url(#p0391b050ab)" d="M -203.80625 267.358203 
L -197.845455 267.358203 
L -197.845455 265.670462 
L -203.80625 265.670462 
z
" style="fill:#7570b3;opacity:0.6;stroke:#000000;stroke-linejoin:miter;stroke-width:0.5;"/>
   </g>
   <g id="patch_13">
    <path clip-path="url(#p0391b050ab)" d="M -197.845455 267.358203 
L -191.884659 267.358203 
L -191.884659 263.98272 
L -197.845455 263.98272 
z
" style="fill:#7570b3;opacity:0.6;stroke:#000000;stroke-linejoin:miter;stroke-width:0.5;"/>
   </g>
   <g id="patch_14">
    <path clip-path="url(#p0391b050ab)" d="M -191.884659 267.358203 
L -185.923864 267.358203 
L -185.923864 260.607238 
L -191.884659 260.607238 
z
" style="fill:#7570b3;opacity:0.6;stroke:#000000;stroke-linejoin:miter;stroke-width:0.5;"/>
   </g>
   <g id="patch_15">
    <path clip-path="url(#p0391b050ab)" d="M -185.923864 267.358203 
L -179.963068 267.358203 
L -179.963068 263.98272 
L -185.923864 263.98272 
z
" style="fill:#7570b3;opacity:0.6;stroke:#000000;stroke-linejoin:miter;stroke-width:0.5;"/>
   </g>
   <g id="patch_16">
    <path clip-path="url(#p0391b050ab)" d="M -179.963068 267.358203 
L -174.002273 267.358203 
L -174.002273 256.387885 
L -179.963068 256.387885 
z
" style="fill:#7570b3;opacity:0.6;stroke:#000000;stroke-linejoin:miter;stroke-width:0.5;"/>
   </g>
   <g id="patch_17">
    <path clip-path="url(#p0391b050ab)" d="M -174.002273 267.358203 
L -168.041477 267.358203 
L -168.041477 260.607238 
L -174.002273 260.607238 
z
" style="fill:#7570b3;opacity:0.6;stroke:#000000;stroke-linejoin:miter;stroke-width:0.5;"/>
   </g>
   <g id="patch_18">
    <path clip-path="url(#p0391b050ab)" d="M -168.041477 267.358203 
L -162.080682 267.358203 
L -162.080682 253.012402 
L -168.041477 253.012402 
z
" style="fill:#7570b3;opacity:0.6;stroke:#000000;stroke-linejoin:miter;stroke-width:0.5;"/>
   </g>
   <g id="patch_19">
    <path clip-path="url(#p0391b050ab)" d="M -162.080682 267.358203 
L -156.119886 267.358203 
L -156.119886 254.700143 
L -162.080682 254.700143 
z
" style="fill:#7570b3;opacity:0.6;stroke:#000000;stroke-linejoin:miter;stroke-width:0.5;"/>
   </g>
   <g id="patch_20">
    <path clip-path="url(#p0391b050ab)" d="M -156.119886 267.358203 
L -150.159091 267.358203 
L -150.159091 251.324661 
L -156.119886 251.324661 
z
" style="fill:#7570b3;opacity:0.6;stroke:#000000;stroke-linejoin:miter;stroke-width:0.5;"/>
   </g>
   <g id="patch_21">
    <path clip-path="url(#p0391b050ab)" d="M -150.159091 267.358203 
L -144.198295 267.358203 
L -144.198295 246.261437 
L -150.159091 246.261437 
z
" style="fill:#7570b3;opacity:0.6;stroke:#000000;stroke-linejoin:miter;stroke-width:0.5;"/>
   </g>
   <g id="patch_22">
    <path clip-path="url(#p0391b050ab)" d="M -144.198295 267.358203 
L -138.2375 267.358203 
L -138.2375 236.134989 
L -144.198295 236.134989 
z
" style="fill:#7570b3;opacity:0.6;stroke:#000000;stroke-linejoin:miter;stroke-width:0.5;"/>
   </g>
   <g id="patch_23">
    <path clip-path="url(#p0391b050ab)" d="M -138.2375 267.358203 
L -132.276705 267.358203 
L -132.276705 236.134989 
L -138.2375 236.134989 
z
" style="fill:#7570b3;opacity:0.6;stroke:#000000;stroke-linejoin:miter;stroke-width:0.5;"/>
   </g>
   <g id="patch_24">
    <path clip-path="url(#p0391b050ab)" d="M -132.276705 267.358203 
L -126.315909 267.358203 
L -126.315909 231.071765 
L -132.276705 231.071765 
z
" style="fill:#7570b3;opacity:0.6;stroke:#000000;stroke-linejoin:miter;stroke-width:0.5;"/>
   </g>
   <g id="patch_25">
    <path clip-path="url(#p0391b050ab)" d="M -126.315909 267.358203 
L -120.355114 267.358203 
L -120.355114 214.194352 
L -126.315909 214.194352 
z
" style="fill:#7570b3;opacity:0.6;stroke:#000000;stroke-linejoin:miter;stroke-width:0.5;"/>
   </g>
   <g id="patch_26">
    <path clip-path="url(#p0391b050ab)" d="M -120.355114 267.358203 
L -114.394318 267.358203 
L -114.394318 193.941456 
L -120.355114 193.941456 
z
" style="fill:#7570b3;opacity:0.6;stroke:#000000;stroke-linejoin:miter;stroke-width:0.5;"/>
   </g>
   <g id="patch_27">
    <path clip-path="url(#p0391b050ab)" d="M -114.394318 267.358203 
L -108.433523 267.358203 
L -108.433523 186.34662 
L -114.394318 186.34662 
z
" style="fill:#7570b3;opacity:0.6;stroke:#000000;stroke-linejoin:miter;stroke-width:0.5;"/>
   </g>
   <g id="patch_28">
    <path clip-path="url(#p0391b050ab)" d="M -108.433523 267.358203 
L -102.472727 267.358203 
L -102.472727 153.435665 
L -108.433523 153.435665 
z
" style="fill:#7570b3;opacity:0.6;stroke:#000000;stroke-linejoin:miter;stroke-width:0.5;"/>
   </g>
   <g id="patch_29">
    <path clip-path="url(#p0391b050ab)" d="M -102.472727 267.358203 
L -96.511932 267.358203 
L -96.511932 128.119545 
L -102.472727 128.119545 
z
" style="fill:#7570b3;opacity:0.6;stroke:#000000;stroke-linejoin:miter;stroke-width:0.5;"/>
   </g>
   <g id="patch_30">
    <path clip-path="url(#p0391b050ab)" d="M -96.511932 267.358203 
L -90.551136 267.358203 
L -90.551136 89.301495 
L -96.511932 89.301495 
z
" style="fill:#7570b3;opacity:0.6;stroke:#000000;stroke-linejoin:miter;stroke-width:0.5;"/>
   </g>
   <g id="patch_31">
    <path clip-path="url(#p0391b050ab)" d="M -90.551136 267.358203 
L -84.590341 267.358203 
L -84.590341 62.297634 
L -90.551136 62.297634 
z
" style="fill:#7570b3;opacity:0.6;stroke:#000000;stroke-linejoin:miter;stroke-width:0.5;"/>
   </g>
   <g id="patch_32">
    <path clip-path="url(#p0391b050ab)" d="M -84.590341 267.358203 
L -78.629545 267.358203 
L -78.629545 63.141504 
L -84.590341 63.141504 
z
" style="fill:#7570b3;opacity:0.6;stroke:#000000;stroke-linejoin:miter;stroke-width:0.5;"/>
   </g>
   <g id="patch_33">
    <path clip-path="url(#p0391b050ab)" d="M -78.629545 267.358203 
L -72.66875 267.358203 
L -72.66875 17.572489 
L -78.629545 17.572489 
z
" style="fill:#7570b3;opacity:0.6;stroke:#000000;stroke-linejoin:miter;stroke-width:0.5;"/>
   </g>
   <g id="patch_34">
    <path clip-path="url(#p0391b050ab)" d="M -72.66875 267.358203 
L -66.707955 267.358203 
L -66.707955 20.104101 
L -72.66875 20.104101 
z
" style="fill:#7570b3;opacity:0.6;stroke:#000000;stroke-linejoin:miter;stroke-width:0.5;"/>
   </g>
   <g id="patch_35">
    <path clip-path="url(#p0391b050ab)" d="M -66.707955 267.358203 
L -60.747159 267.358203 
L -60.747159 42.044738 
L -66.707955 42.044738 
z
" style="fill:#7570b3;opacity:0.6;stroke:#000000;stroke-linejoin:miter;stroke-width:0.5;"/>
   </g>
   <g id="patch_36">
    <path clip-path="url(#p0391b050ab)" d="M -60.747159 267.358203 
L -54.786364 267.358203 
L -54.786364 58.07828 
L -60.747159 58.07828 
z
" style="fill:#7570b3;opacity:0.6;stroke:#000000;stroke-linejoin:miter;stroke-width:0.5;"/>
   </g>
   <g id="patch_37">
    <path clip-path="url(#p0391b050ab)" d="M -54.786364 267.358203 
L -48.825568 267.358203 
L -48.825568 105.335037 
L -54.786364 105.335037 
z
" style="fill:#7570b3;opacity:0.6;stroke:#000000;stroke-linejoin:miter;stroke-width:0.5;"/>
   </g>
   <g id="patch_38">
    <path clip-path="url(#p0391b050ab)" d="M -48.825568 267.358203 
L -42.864773 267.358203 
L -42.864773 155.967276 
L -48.825568 155.967276 
z
" style="fill:#7570b3;opacity:0.6;stroke:#000000;stroke-linejoin:miter;stroke-width:0.5;"/>
   </g>
   <g id="patch_39">
    <path clip-path="url(#p0391b050ab)" d="M -42.864773 267.358203 
L -36.903977 267.358203 
L -36.903977 181.283396 
L -42.864773 181.283396 
z
" style="fill:#7570b3;opacity:0.6;stroke:#000000;stroke-linejoin:miter;stroke-width:0.5;"/>
   </g>
   <g id="patch_40">
    <path clip-path="url(#p0391b050ab)" d="M -36.903977 267.358203 
L -30.943182 267.358203 
L -30.943182 210.818869 
L -36.903977 210.818869 
z
" style="fill:#7570b3;opacity:0.6;stroke:#000000;stroke-linejoin:miter;stroke-width:0.5;"/>
   </g>
   <g id="patch_41">
    <path clip-path="url(#p0391b050ab)" d="M -30.943182 267.358203 
L -24.982386 267.358203 
L -24.982386 254.700143 
L -30.943182 254.700143 
z
" style="fill:#7570b3;opacity:0.6;stroke:#000000;stroke-linejoin:miter;stroke-width:0.5;"/>
   </g>
   <g id="patch_42">
    <path clip-path="url(#p0391b050ab)" d="M -24.982386 267.358203 
L -19.021591 267.358203 
L -19.021591 267.358203 
L -24.982386 267.358203 
z
" style="fill:#7570b3;opacity:0.6;stroke:#000000;stroke-linejoin:miter;stroke-width:0.5;"/>
   </g>
   <g id="matplotlib.axis_1">
    <g id="xtick_1">
     <g id="line2d_1">
      <defs>
       <path d="M 0 0 
L 0 3.5 
" id="m0fd7a36026" style="stroke:#000000;stroke-width:1.6;"/>
      </defs>
      <g/>
     </g>
     <g id="text_1">
      <!-- 0.0 -->
      <defs>
       <path d="M 31.78125 66.40625 
Q 24.171875 66.40625 20.328125 58.90625 
Q 16.5 51.421875 16.5 36.375 
Q 16.5 21.390625 20.328125 13.890625 
Q 24.171875 6.390625 31.78125 6.390625 
Q 39.453125 6.390625 43.28125 13.890625 
Q 47.125 21.390625 47.125 36.375 
Q 47.125 51.421875 43.28125 58.90625 
Q 39.453125 66.40625 31.78125 66.40625 
z
M 31.78125 74.21875 
Q 44.046875 74.21875 50.515625 64.515625 
Q 56.984375 54.828125 56.984375 36.375 
Q 56.984375 17.96875 50.515625 8.265625 
Q 44.046875 -1.421875 31.78125 -1.421875 
Q 19.53125 -1.421875 13.0625 8.265625 
Q 6.59375 17.96875 6.59375 36.375 
Q 6.59375 54.828125 13.0625 64.515625 
Q 19.53125 74.21875 31.78125 74.21875 
z
" id="DejaVuSans-48"/>
       <path d="M 10.6875 12.40625 
L 21 12.40625 
L 21 0 
L 10.6875 0 
z
" id="DejaVuSans-46"/>
      </defs>
      <g transform="translate(-273.356534 297.255078)scale(0.2 -0.2)">
       <use xlink:href="#DejaVuSans-48"/>
       <use x="63.623047" xlink:href="#DejaVuSans-46"/>
       <use x="95.410156" xlink:href="#DejaVuSans-48"/>
      </g>
     </g>
    </g>
    <g id="xtick_2">
     <g id="line2d_2">
      <g/>
     </g>
     <g id="text_2">
      <!-- 0.2 -->
      <defs>
       <path d="M 19.1875 8.296875 
L 53.609375 8.296875 
L 53.609375 0 
L 7.328125 0 
L 7.328125 8.296875 
Q 12.9375 14.109375 22.625 23.890625 
Q 32.328125 33.6875 34.8125 36.53125 
Q 39.546875 41.84375 41.421875 45.53125 
Q 43.3125 49.21875 43.3125 52.78125 
Q 43.3125 58.59375 39.234375 62.25 
Q 35.15625 65.921875 28.609375 65.921875 
Q 23.96875 65.921875 18.8125 64.3125 
Q 13.671875 62.703125 7.8125 59.421875 
L 7.8125 69.390625 
Q 13.765625 71.78125 18.9375 73 
Q 24.125 74.21875 28.421875 74.21875 
Q 39.75 74.21875 46.484375 68.546875 
Q 53.21875 62.890625 53.21875 53.421875 
Q 53.21875 48.921875 51.53125 44.890625 
Q 49.859375 40.875 45.40625 35.40625 
Q 44.1875 33.984375 37.640625 27.21875 
Q 31.109375 20.453125 19.1875 8.296875 
z
" id="DejaVuSans-50"/>
      </defs>
      <g transform="translate(-205.233157 297.255078)scale(0.2 -0.2)">
       <use xlink:href="#DejaVuSans-48"/>
       <use x="63.623047" xlink:href="#DejaVuSans-46"/>
       <use x="95.410156" xlink:href="#DejaVuSans-50"/>
      </g>
     </g>
    </g>
    <g id="xtick_3">
     <g id="line2d_3">
      <g/>
     </g>
     <g id="text_3">
      <!-- 0.4 -->
      <defs>
       <path d="M 37.796875 64.3125 
L 12.890625 25.390625 
L 37.796875 25.390625 
z
M 35.203125 72.90625 
L 47.609375 72.90625 
L 47.609375 25.390625 
L 58.015625 25.390625 
L 58.015625 17.1875 
L 47.609375 17.1875 
L 47.609375 0 
L 37.796875 0 
L 37.796875 17.1875 
L 4.890625 17.1875 
L 4.890625 26.703125 
z
" id="DejaVuSans-52"/>
      </defs>
      <g transform="translate(-137.109781 297.255078)scale(0.2 -0.2)">
       <use xlink:href="#DejaVuSans-48"/>
       <use x="63.623047" xlink:href="#DejaVuSans-46"/>
       <use x="95.410156" xlink:href="#DejaVuSans-52"/>
      </g>
     </g>
    </g>
    <g id="xtick_4">
     <g id="line2d_4">
      <g/>
     </g>
     <g id="text_4">
      <!-- 0.6 -->
      <defs>
       <path d="M 33.015625 40.375 
Q 26.375 40.375 22.484375 35.828125 
Q 18.609375 31.296875 18.609375 23.390625 
Q 18.609375 15.53125 22.484375 10.953125 
Q 26.375 6.390625 33.015625 6.390625 
Q 39.65625 6.390625 43.53125 10.953125 
Q 47.40625 15.53125 47.40625 23.390625 
Q 47.40625 31.296875 43.53125 35.828125 
Q 39.65625 40.375 33.015625 40.375 
z
M 52.59375 71.296875 
L 52.59375 62.3125 
Q 48.875 64.0625 45.09375 64.984375 
Q 41.3125 65.921875 37.59375 65.921875 
Q 27.828125 65.921875 22.671875 59.328125 
Q 17.53125 52.734375 16.796875 39.40625 
Q 19.671875 43.65625 24.015625 45.921875 
Q 28.375 48.1875 33.59375 48.1875 
Q 44.578125 48.1875 50.953125 41.515625 
Q 57.328125 34.859375 57.328125 23.390625 
Q 57.328125 12.15625 50.6875 5.359375 
Q 44.046875 -1.421875 33.015625 -1.421875 
Q 20.359375 -1.421875 13.671875 8.265625 
Q 6.984375 17.96875 6.984375 36.375 
Q 6.984375 53.65625 15.1875 63.9375 
Q 23.390625 74.21875 37.203125 74.21875 
Q 40.921875 74.21875 44.703125 73.484375 
Q 48.484375 72.75 52.59375 71.296875 
z
" id="DejaVuSans-54"/>
      </defs>
      <g transform="translate(-68.986404 297.255078)scale(0.2 -0.2)">
       <use xlink:href="#DejaVuSans-48"/>
       <use x="63.623047" xlink:href="#DejaVuSans-46"/>
       <use x="95.410156" xlink:href="#DejaVuSans-54"/>
      </g>
     </g>
    </g>
    <g id="text_5">
     <!--   -->
     <defs>
      <path id="DejaVuSans-32"/>
     </defs>
     <g transform="translate(-141.415625 320.611328)scale(0.2 -0.2)">
      <use xlink:href="#DejaVuSans-32"/>
     </g>
    </g>
   </g>
   <g id="matplotlib.axis_2">
    <g id="ytick_1">
     <g id="line2d_5">
      <defs>
       <path d="M 0 0 
L -3.5 0 
" id="m0b17eb8875" style="stroke:#000000;stroke-width:1.6;"/>
      </defs>
      <g/>
     </g>
     <g id="text_6">
      <!-- 0.00 -->
      <g transform="translate(-328.60625 274.956641)scale(0.2 -0.2)">
       <use xlink:href="#DejaVuSans-48"/>
       <use x="63.623047" xlink:href="#DejaVuSans-46"/>
       <use x="95.410156" xlink:href="#DejaVuSans-48"/>
       <use x="159.033203" xlink:href="#DejaVuSans-48"/>
      </g>
     </g>
    </g>
    <g id="ytick_2">
     <g id="line2d_6">
      <g/>
     </g>
     <g id="text_7">
      <!-- 0.02 -->
      <g transform="translate(-328.60625 220.982673)scale(0.2 -0.2)">
       <use xlink:href="#DejaVuSans-48"/>
       <use x="63.623047" xlink:href="#DejaVuSans-46"/>
       <use x="95.410156" xlink:href="#DejaVuSans-48"/>
       <use x="159.033203" xlink:href="#DejaVuSans-50"/>
      </g>
     </g>
    </g>
    <g id="ytick_3">
     <g id="line2d_7">
      <g/>
     </g>
     <g id="text_8">
      <!-- 0.04 -->
      <g transform="translate(-328.60625 167.008706)scale(0.2 -0.2)">
       <use xlink:href="#DejaVuSans-48"/>
       <use x="63.623047" xlink:href="#DejaVuSans-46"/>
       <use x="95.410156" xlink:href="#DejaVuSans-48"/>
       <use x="159.033203" xlink:href="#DejaVuSans-52"/>
      </g>
     </g>
    </g>
    <g id="ytick_4">
     <g id="line2d_8">
      <g/>
     </g>
     <g id="text_9">
      <!-- 0.06 -->
      <g transform="translate(-328.60625 113.034739)scale(0.2 -0.2)">
       <use xlink:href="#DejaVuSans-48"/>
       <use x="63.623047" xlink:href="#DejaVuSans-46"/>
       <use x="95.410156" xlink:href="#DejaVuSans-48"/>
       <use x="159.033203" xlink:href="#DejaVuSans-54"/>
      </g>
     </g>
    </g>
    <g id="ytick_5">
     <g id="line2d_9">
      <g/>
     </g>
     <g id="text_10">
      <!-- 0.08 -->
      <defs>
       <path d="M 31.78125 34.625 
Q 24.75 34.625 20.71875 30.859375 
Q 16.703125 27.09375 16.703125 20.515625 
Q 16.703125 13.921875 20.71875 10.15625 
Q 24.75 6.390625 31.78125 6.390625 
Q 38.8125 6.390625 42.859375 10.171875 
Q 46.921875 13.96875 46.921875 20.515625 
Q 46.921875 27.09375 42.890625 30.859375 
Q 38.875 34.625 31.78125 34.625 
z
M 21.921875 38.8125 
Q 15.578125 40.375 12.03125 44.71875 
Q 8.5 49.078125 8.5 55.328125 
Q 8.5 64.0625 14.71875 69.140625 
Q 20.953125 74.21875 31.78125 74.21875 
Q 42.671875 74.21875 48.875 69.140625 
Q 55.078125 64.0625 55.078125 55.328125 
Q 55.078125 49.078125 51.53125 44.71875 
Q 48 40.375 41.703125 38.8125 
Q 48.828125 37.15625 52.796875 32.3125 
Q 56.78125 27.484375 56.78125 20.515625 
Q 56.78125 9.90625 50.3125 4.234375 
Q 43.84375 -1.421875 31.78125 -1.421875 
Q 19.734375 -1.421875 13.25 4.234375 
Q 6.78125 9.90625 6.78125 20.515625 
Q 6.78125 27.484375 10.78125 32.3125 
Q 14.796875 37.15625 21.921875 38.8125 
z
M 18.3125 54.390625 
Q 18.3125 48.734375 21.84375 45.5625 
Q 25.390625 42.390625 31.78125 42.390625 
Q 38.140625 42.390625 41.71875 45.5625 
Q 45.3125 48.734375 45.3125 54.390625 
Q 45.3125 60.0625 41.71875 63.234375 
Q 38.140625 66.40625 31.78125 66.40625 
Q 25.390625 66.40625 21.84375 63.234375 
Q 18.3125 60.0625 18.3125 54.390625 
z
" id="DejaVuSans-56"/>
      </defs>
      <g transform="translate(-328.60625 59.060772)scale(0.2 -0.2)">
       <use xlink:href="#DejaVuSans-48"/>
       <use x="63.623047" xlink:href="#DejaVuSans-46"/>
       <use x="95.410156" xlink:href="#DejaVuSans-48"/>
       <use x="159.033203" xlink:href="#DejaVuSans-56"/>
      </g>
     </g>
    </g>
    <g id="text_11">
     <!--   -->
     <g transform="translate(-336.2665 139.017453)rotate(-90)scale(0.176 -0.176)">
      <use xlink:href="#DejaVuSans-32"/>
     </g>
    </g>
   </g>
   <g id="patch_43">
    <path style="fill:none;stroke:#000000;stroke-linecap:square;stroke-linejoin:miter;stroke-width:0.8;"/>
   </g>
   <g id="patch_44">
    <path style="fill:none;stroke:#000000;stroke-linecap:square;stroke-linejoin:miter;stroke-width:0.8;"/>
   </g>
  </g>
  <g id="axes_2">
   <g id="patch_45">
    <path d="M 100.7 267.358203 
L 362.975 267.358203 
L 362.975 5.083203 
L 100.7 5.083203 
z
" style="fill:#ffffff;"/>
   </g>
   <g id="PolyCollection_1">
    <defs>
     <path d="M 118.026812 -284.246575 
L 118.026812 -288.134675 
L 120.398021 -288.060423 
L 122.76923 -287.834422 
L 125.140439 -287.51152 
L 127.511648 -287.160811 
L 129.882857 -286.841965 
L 132.254065 -286.590318 
L 134.625274 -286.414813 
L 136.996483 -286.305563 
L 139.367692 -286.244487 
L 141.738901 -286.213696 
L 144.11011 -286.199658 
L 146.481319 -286.193857 
L 148.852528 -286.191682 
L 151.223736 -286.190941 
L 153.594945 -286.190711 
L 155.966154 -286.190647 
L 158.337363 -286.19063 
L 160.708572 -286.190626 
L 163.079781 -286.190625 
L 165.45099 -286.190625 
L 167.822198 -286.190625 
L 170.193407 -286.190625 
L 172.564616 -286.190625 
L 174.935825 -286.190626 
L 177.307034 -286.190629 
L 179.678243 -286.19064 
L 182.049452 -286.190674 
L 184.42066 -286.190773 
L 186.791869 -286.191036 
L 189.163078 -286.191667 
L 191.534287 -286.193056 
L 193.905496 -286.195839 
L 196.276705 -286.200938 
L 198.647914 -286.209492 
L 201.019123 -286.222681 
L 203.390331 -286.241486 
L 205.76154 -286.266496 
L 208.132749 -286.297878 
L 210.503958 -286.335531 
L 212.875167 -286.379327 
L 215.246376 -286.429321 
L 217.617585 -286.485926 
L 219.988793 -286.550151 
L 222.360002 -286.623912 
L 224.731211 -286.710172 
L 227.10242 -286.812524 
L 229.473629 -286.934073 
L 231.844838 -287.076074 
L 234.216047 -287.237226 
L 236.587255 -287.414455 
L 238.958464 -287.605312 
L 241.329673 -287.811171 
L 243.700882 -288.039775 
L 246.072091 -288.305727 
L 248.4433 -288.628247 
L 250.814509 -289.026623 
L 253.185718 -289.514849 
L 255.556926 -290.097646 
L 257.928135 -290.769986 
L 260.299344 -291.521121 
L 262.670553 -292.342103 
L 265.041762 -293.233497 
L 267.412971 -294.20911 
L 269.78418 -295.292951 
L 272.155388 -296.509903 
L 274.526597 -297.873651 
L 276.897806 -299.376426 
L 279.269015 -300.984119 
L 281.640224 -302.638567 
L 284.011433 -304.267327 
L 286.382642 -305.799475 
L 288.75385 -307.182989 
L 291.125059 -308.396427 
L 293.496268 -309.447832 
L 295.867477 -310.359181 
L 298.238686 -311.142999 
L 300.609895 -311.783304 
L 302.981104 -312.231309 
L 305.352313 -312.418125 
L 307.723521 -312.277789 
L 310.09473 -311.769755 
L 312.465939 -310.891917 
L 314.837148 -309.680627 
L 317.208357 -308.199662 
L 319.579566 -306.523766 
L 321.950775 -304.723729 
L 324.321983 -302.858334 
L 326.693192 -300.974447 
L 329.064401 -299.111929 
L 331.43561 -297.307996 
L 333.806819 -295.597492 
L 336.178028 -294.009659 
L 338.549237 -292.564935 
L 340.920445 -291.274757 
L 343.291654 -290.144318 
L 345.662863 -289.175704 
L 348.034072 -288.368896 
L 350.405281 -287.72028 
L 352.77649 -287.220402 
L 352.77649 -285.160848 
L 352.77649 -285.160848 
L 350.405281 -284.66097 
L 348.034072 -284.012354 
L 345.662863 -283.205546 
L 343.291654 -282.236932 
L 340.920445 -281.106493 
L 338.549237 -279.816315 
L 336.178028 -278.371591 
L 333.806819 -276.783758 
L 331.43561 -275.073254 
L 329.064401 -273.269321 
L 326.693192 -271.406803 
L 324.321983 -269.522916 
L 321.950775 -267.657521 
L 319.579566 -265.857484 
L 317.208357 -264.181588 
L 314.837148 -262.700623 
L 312.465939 -261.489333 
L 310.09473 -260.611495 
L 307.723521 -260.103461 
L 305.352313 -259.963125 
L 302.981104 -260.149941 
L 300.609895 -260.597946 
L 298.238686 -261.238251 
L 295.867477 -262.022069 
L 293.496268 -262.933418 
L 291.125059 -263.984823 
L 288.75385 -265.198261 
L 286.382642 -266.581775 
L 284.011433 -268.113923 
L 281.640224 -269.742683 
L 279.269015 -271.397131 
L 276.897806 -273.004824 
L 274.526597 -274.507599 
L 272.155388 -275.871347 
L 269.78418 -277.088299 
L 267.412971 -278.17214 
L 265.041762 -279.147753 
L 262.670553 -280.039147 
L 260.299344 -280.860129 
L 257.928135 -281.611264 
L 255.556926 -282.283604 
L 253.185718 -282.866401 
L 250.814509 -283.354627 
L 248.4433 -283.753003 
L 246.072091 -284.075523 
L 243.700882 -284.341475 
L 241.329673 -284.570079 
L 238.958464 -284.775938 
L 236.587255 -284.966795 
L 234.216047 -285.144024 
L 231.844838 -285.305176 
L 229.473629 -285.447177 
L 227.10242 -285.568726 
L 224.731211 -285.671078 
L 222.360002 -285.757338 
L 219.988793 -285.831099 
L 217.617585 -285.895324 
L 215.246376 -285.951929 
L 212.875167 -286.001923 
L 210.503958 -286.045719 
L 208.132749 -286.083372 
L 205.76154 -286.114754 
L 203.390331 -286.139764 
L 201.019123 -286.158569 
L 198.647914 -286.171758 
L 196.276705 -286.180312 
L 193.905496 -286.185411 
L 191.534287 -286.188194 
L 189.163078 -286.189583 
L 186.791869 -286.190214 
L 184.42066 -286.190477 
L 182.049452 -286.190576 
L 179.678243 -286.19061 
L 177.307034 -286.190621 
L 174.935825 -286.190624 
L 172.564616 -286.190625 
L 170.193407 -286.190625 
L 167.822198 -286.190625 
L 165.45099 -286.190625 
L 163.079781 -286.190625 
L 160.708572 -286.190624 
L 158.337363 -286.19062 
L 155.966154 -286.190603 
L 153.594945 -286.190539 
L 151.223736 -286.190309 
L 148.852528 -286.189568 
L 146.481319 -286.187393 
L 144.11011 -286.181592 
L 141.738901 -286.167554 
L 139.367692 -286.136763 
L 136.996483 -286.075687 
L 134.625274 -285.966437 
L 132.254065 -285.790932 
L 129.882857 -285.539285 
L 127.511648 -285.220439 
L 125.140439 -284.86973 
L 122.76923 -284.546828 
L 120.398021 -284.320827 
L 118.026812 -284.246575 
z
" id="m3c74ef180f" style="stroke:#575757;"/>
    </defs>
    <g clip-path="url(#pef36f47cee)">
     <use style="fill:#7c78ab;stroke:#575757;" x="0" xlink:href="#m3c74ef180f" y="324.058203"/>
    </g>
   </g>
   <g id="PolyCollection_2">
    <defs>
     <path d="M 117.91793 -216.813097 
L 117.91793 -224.430653 
L 120.331723 -224.382566 
L 122.745516 -224.215774 
L 125.15931 -223.946075 
L 127.573103 -223.597954 
L 129.986896 -223.200944 
L 132.400689 -222.785555 
L 134.814482 -222.379528 
L 137.228275 -222.005047 
L 139.642068 -221.677235 
L 142.055862 -221.40394 
L 144.469655 -221.186577 
L 146.883448 -221.021639 
L 149.297241 -220.902436 
L 151.711034 -220.820741 
L 154.124827 -220.768111 
L 156.538621 -220.7368 
L 158.952414 -220.720284 
L 161.366207 -220.713498 
L 163.78 -220.712867 
L 166.193793 -220.716242 
L 168.607586 -220.722791 
L 171.021379 -220.732872 
L 173.435173 -220.747881 
L 175.848966 -220.770076 
L 178.262759 -220.802343 
L 180.676552 -220.847908 
L 183.090345 -220.909985 
L 185.504138 -220.991412 
L 187.917932 -221.094286 
L 190.331725 -221.219681 
L 192.745518 -221.367491 
L 195.159311 -221.536447 
L 197.573104 -221.724337 
L 199.986897 -221.928388 
L 202.40069 -222.145787 
L 204.814484 -222.374207 
L 207.228277 -222.612272 
L 209.64207 -222.859831 
L 212.055863 -223.117998 
L 214.469656 -223.38895 
L 216.883449 -223.675523 
L 219.297243 -223.98072 
L 221.711036 -224.307239 
L 224.124829 -224.657131 
L 226.538622 -225.031658 
L 228.952415 -225.431363 
L 231.366208 -225.856297 
L 233.780001 -226.30632 
L 236.193795 -226.781374 
L 238.607588 -227.281639 
L 241.021381 -227.807533 
L 243.435174 -228.359529 
L 245.848967 -228.937853 
L 248.26276 -229.542089 
L 250.676554 -230.170795 
L 253.090347 -230.821165 
L 255.50414 -231.488826 
L 257.917933 -232.167813 
L 260.331726 -232.850771 
L 262.745519 -233.529422 
L 265.159312 -234.195277 
L 267.573106 -234.840562 
L 269.986899 -235.459235 
L 272.400692 -236.047958 
L 274.814485 -236.606833 
L 277.228278 -237.13978 
L 279.642071 -237.654429 
L 282.055865 -238.161521 
L 284.469658 -238.673873 
L 286.883451 -239.205013 
L 289.297244 -239.767608 
L 291.711037 -240.371832 
L 294.12483 -241.023762 
L 296.538623 -241.723912 
L 298.952417 -242.466013 
L 301.36621 -243.23618 
L 303.780003 -244.012614 
L 306.193796 -244.766001 
L 308.607589 -245.460716 
L 311.021382 -246.056827 
L 313.435176 -246.512811 
L 315.848969 -246.788705 
L 318.262762 -246.849375 
L 320.676555 -246.667519 
L 323.090348 -246.226063 
L 325.504141 -245.519694 
L 327.917934 -244.555402 
L 330.331728 -243.352039 
L 332.745521 -241.939 
L 335.159314 -240.354228 
L 337.573107 -238.641767 
L 339.9869 -236.849095 
L 342.400693 -235.024459 
L 344.814487 -233.21437 
L 347.22828 -231.461411 
L 349.642073 -229.802444 
L 352.055866 -228.267291 
L 354.469659 -226.877913 
L 356.883452 -225.648113 
L 356.883452 -215.595637 
L 356.883452 -215.595637 
L 354.469659 -214.365837 
L 352.055866 -212.976459 
L 349.642073 -211.441306 
L 347.22828 -209.782339 
L 344.814487 -208.02938 
L 342.400693 -206.219291 
L 339.9869 -204.394655 
L 337.573107 -202.601983 
L 335.159314 -200.889522 
L 332.745521 -199.30475 
L 330.331728 -197.891711 
L 327.917934 -196.688348 
L 325.504141 -195.724056 
L 323.090348 -195.017687 
L 320.676555 -194.576231 
L 318.262762 -194.394375 
L 315.848969 -194.455045 
L 313.435176 -194.730939 
L 311.021382 -195.186923 
L 308.607589 -195.783034 
L 306.193796 -196.477749 
L 303.780003 -197.231136 
L 301.36621 -198.00757 
L 298.952417 -198.777737 
L 296.538623 -199.519838 
L 294.12483 -200.219988 
L 291.711037 -200.871918 
L 289.297244 -201.476142 
L 286.883451 -202.038737 
L 284.469658 -202.569877 
L 282.055865 -203.082229 
L 279.642071 -203.589321 
L 277.228278 -204.10397 
L 274.814485 -204.636917 
L 272.400692 -205.195792 
L 269.986899 -205.784515 
L 267.573106 -206.403188 
L 265.159312 -207.048473 
L 262.745519 -207.714328 
L 260.331726 -208.392979 
L 257.917933 -209.075937 
L 255.50414 -209.754924 
L 253.090347 -210.422585 
L 250.676554 -211.072955 
L 248.26276 -211.701661 
L 245.848967 -212.305897 
L 243.435174 -212.884221 
L 241.021381 -213.436217 
L 238.607588 -213.962111 
L 236.193795 -214.462376 
L 233.780001 -214.93743 
L 231.366208 -215.387453 
L 228.952415 -215.812387 
L 226.538622 -216.212092 
L 224.124829 -216.586619 
L 221.711036 -216.936511 
L 219.297243 -217.26303 
L 216.883449 -217.568227 
L 214.469656 -217.8548 
L 212.055863 -218.125752 
L 209.64207 -218.383919 
L 207.228277 -218.631478 
L 204.814484 -218.869543 
L 202.40069 -219.097963 
L 199.986897 -219.315362 
L 197.573104 -219.519413 
L 195.159311 -219.707303 
L 192.745518 -219.876259 
L 190.331725 -220.024069 
L 187.917932 -220.149464 
L 185.504138 -220.252338 
L 183.090345 -220.333765 
L 180.676552 -220.395842 
L 178.262759 -220.441407 
L 175.848966 -220.473674 
L 173.435173 -220.495869 
L 171.021379 -220.510878 
L 168.607586 -220.520959 
L 166.193793 -220.527508 
L 163.78 -220.530883 
L 161.366207 -220.530252 
L 158.952414 -220.523466 
L 156.538621 -220.50695 
L 154.124827 -220.475639 
L 151.711034 -220.423009 
L 149.297241 -220.341314 
L 146.883448 -220.222111 
L 144.469655 -220.057173 
L 142.055862 -219.83981 
L 139.642068 -219.566515 
L 137.228275 -219.238703 
L 134.814482 -218.864222 
L 132.400689 -218.458195 
L 129.986896 -218.042806 
L 127.573103 -217.645796 
L 125.15931 -217.297675 
L 122.745516 -217.027976 
L 120.331723 -216.861184 
L 117.91793 -216.813097 
z
" id="mcaa28abc51" style="stroke:#575757;"/>
    </defs>
    <g clip-path="url(#pef36f47cee)">
     <use style="fill:#7c78ab;stroke:#575757;" x="0" xlink:href="#mcaa28abc51" y="324.058203"/>
    </g>
   </g>
   <g id="PolyCollection_3">
    <defs>
     <path d="M 117.846268 -154.037811 
L 117.846268 -156.068439 
L 120.21613 -156.061486 
L 122.585991 -156.03526 
L 124.955852 -155.991334 
L 127.325713 -155.932278 
L 129.695575 -155.861438 
L 132.065436 -155.782672 
L 134.435297 -155.700067 
L 136.805159 -155.617674 
L 139.17502 -155.539305 
L 141.544881 -155.468388 
L 143.914743 -155.407915 
L 146.284604 -155.36046 
L 148.654465 -155.328256 
L 151.024326 -155.313316 
L 153.394188 -155.317562 
L 155.764049 -155.342931 
L 158.13391 -155.391452 
L 160.503772 -155.465253 
L 162.873633 -155.566508 
L 165.243494 -155.697312 
L 167.613356 -155.859505 
L 169.983217 -156.054456 
L 172.353078 -156.282837 
L 174.722939 -156.544425 
L 177.092801 -156.837948 
L 179.462662 -157.161017 
L 181.832523 -157.510158 
L 184.202385 -157.880944 
L 186.572246 -158.268227 
L 188.942107 -158.666455 
L 191.311969 -159.07002 
L 193.68183 -159.47361 
L 196.051691 -159.872522 
L 198.421552 -160.26289 
L 200.791414 -160.641807 
L 203.161275 -161.007321 
L 205.531136 -161.358333 
L 207.900998 -161.694397 
L 210.270859 -162.015469 
L 212.64072 -162.32166 
L 215.010582 -162.613003 
L 217.380443 -162.889299 
L 219.750304 -163.150029 
L 222.120165 -163.394357 
L 224.490027 -163.621193 
L 226.859888 -163.829304 
L 229.229749 -164.017433 
L 231.599611 -164.184418 
L 233.969472 -164.329268 
L 236.339333 -164.451213 
L 238.709194 -164.549723 
L 241.079056 -164.624512 
L 243.448917 -164.675543 
L 245.818778 -164.703073 
L 248.18864 -164.707723 
L 250.558501 -164.690605 
L 252.928362 -164.65347 
L 255.298224 -164.598883 
L 257.668085 -164.530378 
L 260.037946 -164.452571 
L 262.407807 -164.371208 
L 264.777669 -164.293129 
L 267.14753 -164.226145 
L 269.517391 -164.178841 
L 271.887253 -164.160325 
L 274.257114 -164.179945 
L 276.626975 -164.247011 
L 278.996837 -164.370532 
L 281.366698 -164.558993 
L 283.736559 -164.820158 
L 286.10642 -165.160901 
L 288.476282 -165.587037 
L 290.846143 -166.103128 
L 293.216004 -166.712257 
L 295.585866 -167.415739 
L 297.955727 -168.21279 
L 300.325588 -169.10014 
L 302.69545 -170.071636 
L 305.065311 -171.11785 
L 307.435172 -172.225741 
L 309.805033 -173.378402 
L 312.174895 -174.554941 
L 314.544756 -175.730534 
L 316.914617 -176.876689 
L 319.284479 -177.961759 
L 321.65434 -178.951733 
L 324.024201 -179.81133 
L 326.394063 -180.505386 
L 328.763924 -181.000518 
L 331.133785 -181.266983 
L 333.503646 -181.280625 
L 335.873508 -181.024769 
L 338.243369 -180.491863 
L 340.61323 -179.684685 
L 342.983092 -178.616946 
L 345.352953 -177.31314 
L 347.722814 -175.807596 
L 350.092675 -174.142761 
L 352.462537 -172.366814 
L 352.462537 -137.739436 
L 352.462537 -137.739436 
L 350.092675 -135.963489 
L 347.722814 -134.298654 
L 345.352953 -132.79311 
L 342.983092 -131.489304 
L 340.61323 -130.421565 
L 338.243369 -129.614387 
L 335.873508 -129.081481 
L 333.503646 -128.825625 
L 331.133785 -128.839267 
L 328.763924 -129.105732 
L 326.394063 -129.600864 
L 324.024201 -130.29492 
L 321.65434 -131.154517 
L 319.284479 -132.144491 
L 316.914617 -133.229561 
L 314.544756 -134.375716 
L 312.174895 -135.551309 
L 309.805033 -136.727848 
L 307.435172 -137.880509 
L 305.065311 -138.9884 
L 302.69545 -140.034614 
L 300.325588 -141.00611 
L 297.955727 -141.89346 
L 295.585866 -142.690511 
L 293.216004 -143.393993 
L 290.846143 -144.003122 
L 288.476282 -144.519213 
L 286.10642 -144.945349 
L 283.736559 -145.286092 
L 281.366698 -145.547257 
L 278.996837 -145.735718 
L 276.626975 -145.859239 
L 274.257114 -145.926305 
L 271.887253 -145.945925 
L 269.517391 -145.927409 
L 267.14753 -145.880105 
L 264.777669 -145.813121 
L 262.407807 -145.735042 
L 260.037946 -145.653679 
L 257.668085 -145.575872 
L 255.298224 -145.507367 
L 252.928362 -145.45278 
L 250.558501 -145.415645 
L 248.18864 -145.398527 
L 245.818778 -145.403177 
L 243.448917 -145.430707 
L 241.079056 -145.481738 
L 238.709194 -145.556527 
L 236.339333 -145.655037 
L 233.969472 -145.776982 
L 231.599611 -145.921832 
L 229.229749 -146.088817 
L 226.859888 -146.276946 
L 224.490027 -146.485057 
L 222.120165 -146.711893 
L 219.750304 -146.956221 
L 217.380443 -147.216951 
L 215.010582 -147.493247 
L 212.64072 -147.78459 
L 210.270859 -148.090781 
L 207.900998 -148.411853 
L 205.531136 -148.747917 
L 203.161275 -149.098929 
L 200.791414 -149.464443 
L 198.421552 -149.84336 
L 196.051691 -150.233728 
L 193.68183 -150.63264 
L 191.311969 -151.03623 
L 188.942107 -151.439795 
L 186.572246 -151.838023 
L 184.202385 -152.225306 
L 181.832523 -152.596092 
L 179.462662 -152.945233 
L 177.092801 -153.268302 
L 174.722939 -153.561825 
L 172.353078 -153.823413 
L 169.983217 -154.051794 
L 167.613356 -154.246745 
L 165.243494 -154.408938 
L 162.873633 -154.539742 
L 160.503772 -154.640997 
L 158.13391 -154.714798 
L 155.764049 -154.763319 
L 153.394188 -154.788688 
L 151.024326 -154.792934 
L 148.654465 -154.777994 
L 146.284604 -154.74579 
L 143.914743 -154.698335 
L 141.544881 -154.637862 
L 139.17502 -154.566945 
L 136.805159 -154.488576 
L 134.435297 -154.406183 
L 132.065436 -154.323578 
L 129.695575 -154.244812 
L 127.325713 -154.173972 
L 124.955852 -154.114916 
L 122.585991 -154.07099 
L 120.21613 -154.044764 
L 117.846268 -154.037811 
z
" id="m3b83481b31" style="stroke:#575757;"/>
    </defs>
    <g clip-path="url(#pef36f47cee)">
     <use style="fill:#7c78ab;stroke:#575757;" x="0" xlink:href="#m3b83481b31" y="324.058203"/>
    </g>
   </g>
   <g id="PolyCollection_4">
    <defs>
     <path d="M 157.043104 -79.15492 
L 157.043104 -99.81383 
L 159.019633 -100.338813 
L 160.996162 -100.849692 
L 162.97269 -101.342525 
L 164.949219 -101.813481 
L 166.925748 -102.258896 
L 168.902277 -102.675337 
L 170.878805 -103.059659 
L 172.855334 -103.409052 
L 174.831863 -103.721093 
L 176.808391 -103.993782 
L 178.78492 -104.225573 
L 180.761449 -104.415397 
L 182.737977 -104.562675 
L 184.714506 -104.667322 
L 186.691035 -104.729741 
L 188.667564 -104.750811 
L 190.644092 -104.731863 
L 192.620621 -104.674649 
L 194.59715 -104.581307 
L 196.573678 -104.454314 
L 198.550207 -104.296446 
L 200.526736 -104.110717 
L 202.503265 -103.900336 
L 204.479793 -103.668643 
L 206.456322 -103.419064 
L 208.432851 -103.15505 
L 210.409379 -102.880034 
L 212.385908 -102.597381 
L 214.362437 -102.310344 
L 216.338965 -102.022031 
L 218.315494 -101.735368 
L 220.292023 -101.45308 
L 222.268552 -101.177665 
L 224.24508 -100.911384 
L 226.221609 -100.656256 
L 228.198138 -100.414057 
L 230.174666 -100.186324 
L 232.151195 -99.974369 
L 234.127724 -99.779296 
L 236.104252 -99.602021 
L 238.080781 -99.443297 
L 240.05731 -99.303744 
L 242.033839 -99.183878 
L 244.010367 -99.08414 
L 245.986896 -99.004933 
L 247.963425 -98.946647 
L 249.939953 -98.90969 
L 251.916482 -98.894516 
L 253.893011 -98.901646 
L 255.86954 -98.931683 
L 257.846068 -98.985329 
L 259.822597 -99.06339 
L 261.799126 -99.166775 
L 263.775654 -99.29649 
L 265.752183 -99.453624 
L 267.728712 -99.639327 
L 269.70524 -99.854784 
L 271.681769 -100.101176 
L 273.658298 -100.379642 
L 275.634827 -100.691232 
L 277.611355 -101.036853 
L 279.587884 -101.417217 
L 281.564413 -101.832783 
L 283.540941 -102.283697 
L 285.51747 -102.769739 
L 287.493999 -103.290265 
L 289.470527 -103.844156 
L 291.447056 -104.429777 
L 293.423585 -105.044933 
L 295.400114 -105.686847 
L 297.376642 -106.352138 
L 299.353171 -107.036818 
L 301.3297 -107.736297 
L 303.306228 -108.445403 
L 305.282757 -109.15842 
L 307.259286 -109.869139 
L 309.235815 -110.570916 
L 311.212343 -111.256756 
L 313.188872 -111.919404 
L 315.165401 -112.551443 
L 317.141929 -113.145408 
L 319.118458 -113.693906 
L 321.094987 -114.189742 
L 323.071515 -114.62604 
L 325.048044 -114.996374 
L 327.024573 -115.294889 
L 329.001102 -115.516416 
L 330.97763 -115.656576 
L 332.954159 -115.711875 
L 334.930688 -115.679782 
L 336.907216 -115.558786 
L 338.883745 -115.348441 
L 340.860274 -115.049381 
L 342.836802 -114.663325 
L 344.813331 -114.193047 
L 346.78986 -113.642335 
L 348.766389 -113.015929 
L 350.742917 -112.319429 
L 352.719446 -111.559206 
L 352.719446 -67.409544 
L 352.719446 -67.409544 
L 350.742917 -66.649321 
L 348.766389 -65.952821 
L 346.78986 -65.326415 
L 344.813331 -64.775703 
L 342.836802 -64.305425 
L 340.860274 -63.919369 
L 338.883745 -63.620309 
L 336.907216 -63.409964 
L 334.930688 -63.288968 
L 332.954159 -63.256875 
L 330.97763 -63.312174 
L 329.001102 -63.452334 
L 327.024573 -63.673861 
L 325.048044 -63.972376 
L 323.071515 -64.34271 
L 321.094987 -64.779008 
L 319.118458 -65.274844 
L 317.141929 -65.823342 
L 315.165401 -66.417307 
L 313.188872 -67.049346 
L 311.212343 -67.711994 
L 309.235815 -68.397834 
L 307.259286 -69.099611 
L 305.282757 -69.81033 
L 303.306228 -70.523347 
L 301.3297 -71.232453 
L 299.353171 -71.931932 
L 297.376642 -72.616612 
L 295.400114 -73.281903 
L 293.423585 -73.923817 
L 291.447056 -74.538973 
L 289.470527 -75.124594 
L 287.493999 -75.678485 
L 285.51747 -76.199011 
L 283.540941 -76.685053 
L 281.564413 -77.135967 
L 279.587884 -77.551533 
L 277.611355 -77.931897 
L 275.634827 -78.277518 
L 273.658298 -78.589108 
L 271.681769 -78.867574 
L 269.70524 -79.113966 
L 267.728712 -79.329423 
L 265.752183 -79.515126 
L 263.775654 -79.67226 
L 261.799126 -79.801975 
L 259.822597 -79.90536 
L 257.846068 -79.983421 
L 255.86954 -80.037067 
L 253.893011 -80.067104 
L 251.916482 -80.074234 
L 249.939953 -80.05906 
L 247.963425 -80.022103 
L 245.986896 -79.963817 
L 244.010367 -79.88461 
L 242.033839 -79.784872 
L 240.05731 -79.665006 
L 238.080781 -79.525453 
L 236.104252 -79.366729 
L 234.127724 -79.189454 
L 232.151195 -78.994381 
L 230.174666 -78.782426 
L 228.198138 -78.554693 
L 226.221609 -78.312494 
L 224.24508 -78.057366 
L 222.268552 -77.791085 
L 220.292023 -77.51567 
L 218.315494 -77.233382 
L 216.338965 -76.946719 
L 214.362437 -76.658406 
L 212.385908 -76.371369 
L 210.409379 -76.088716 
L 208.432851 -75.8137 
L 206.456322 -75.549686 
L 204.479793 -75.300107 
L 202.503265 -75.068414 
L 200.526736 -74.858033 
L 198.550207 -74.672304 
L 196.573678 -74.514436 
L 194.59715 -74.387443 
L 192.620621 -74.294101 
L 190.644092 -74.236887 
L 188.667564 -74.217939 
L 186.691035 -74.239009 
L 184.714506 -74.301428 
L 182.737977 -74.406075 
L 180.761449 -74.553353 
L 178.78492 -74.743177 
L 176.808391 -74.974968 
L 174.831863 -75.247657 
L 172.855334 -75.559698 
L 170.878805 -75.909091 
L 168.902277 -76.293413 
L 166.925748 -76.709854 
L 164.949219 -77.155269 
L 162.97269 -77.626225 
L 160.996162 -78.119058 
L 159.019633 -78.629937 
L 157.043104 -79.15492 
z
" id="m1d7f31c06c" style="stroke:#575757;"/>
    </defs>
    <g clip-path="url(#pef36f47cee)">
     <use style="fill:#7c78ab;stroke:#575757;" x="0" xlink:href="#m1d7f31c06c" y="324.058203"/>
    </g>
   </g>
   <g id="patch_46">
    <path clip-path="url(#pef36f47cee)" d="M 118.185 37.867578 
L 118.185 37.867578 
L 118.185 37.867578 
L 118.185 37.867578 
z
" style="fill:#7c78ab;stroke:#575757;stroke-linejoin:miter;stroke-width:0.5;"/>
   </g>
   <g id="matplotlib.axis_3">
    <g id="xtick_5">
     <g id="line2d_10">
      <g>
       <use style="stroke:#000000;stroke-width:1.6;" x="118.185" xlink:href="#m0fd7a36026" y="267.358203"/>
      </g>
     </g>
     <g id="text_12">
      <!-- 0.0 -->
      <g transform="translate(102.281875 297.255078)scale(0.2 -0.2)">
       <use xlink:href="#DejaVuSans-48"/>
       <use x="63.623047" xlink:href="#DejaVuSans-46"/>
       <use x="95.410156" xlink:href="#DejaVuSans-48"/>
      </g>
     </g>
    </g>
    <g id="xtick_6">
     <g id="line2d_11">
      <g>
       <use style="stroke:#000000;stroke-width:1.6;" x="188.125" xlink:href="#m0fd7a36026" y="267.358203"/>
      </g>
     </g>
     <g id="text_13">
      <!-- 0.2 -->
      <g transform="translate(172.221875 297.255078)scale(0.2 -0.2)">
       <use xlink:href="#DejaVuSans-48"/>
       <use x="63.623047" xlink:href="#DejaVuSans-46"/>
       <use x="95.410156" xlink:href="#DejaVuSans-50"/>
      </g>
     </g>
    </g>
    <g id="xtick_7">
     <g id="line2d_12">
      <g>
       <use style="stroke:#000000;stroke-width:1.6;" x="258.065" xlink:href="#m0fd7a36026" y="267.358203"/>
      </g>
     </g>
     <g id="text_14">
      <!-- 0.4 -->
      <g transform="translate(242.161875 297.255078)scale(0.2 -0.2)">
       <use xlink:href="#DejaVuSans-48"/>
       <use x="63.623047" xlink:href="#DejaVuSans-46"/>
       <use x="95.410156" xlink:href="#DejaVuSans-52"/>
      </g>
     </g>
    </g>
    <g id="xtick_8">
     <g id="line2d_13">
      <g>
       <use style="stroke:#000000;stroke-width:1.6;" x="328.005" xlink:href="#m0fd7a36026" y="267.358203"/>
      </g>
     </g>
     <g id="text_15">
      <!-- 0.6 -->
      <g transform="translate(312.101875 297.255078)scale(0.2 -0.2)">
       <use xlink:href="#DejaVuSans-48"/>
       <use x="63.623047" xlink:href="#DejaVuSans-46"/>
       <use x="95.410156" xlink:href="#DejaVuSans-54"/>
      </g>
     </g>
    </g>
    <g id="text_16">
     <!-- Max Attention -->
     <defs>
      <path d="M 9.8125 72.90625 
L 24.515625 72.90625 
L 43.109375 23.296875 
L 61.8125 72.90625 
L 76.515625 72.90625 
L 76.515625 0 
L 66.890625 0 
L 66.890625 64.015625 
L 48.09375 14.015625 
L 38.1875 14.015625 
L 19.390625 64.015625 
L 19.390625 0 
L 9.8125 0 
z
" id="DejaVuSans-77"/>
      <path d="M 34.28125 27.484375 
Q 23.390625 27.484375 19.1875 25 
Q 14.984375 22.515625 14.984375 16.5 
Q 14.984375 11.71875 18.140625 8.90625 
Q 21.296875 6.109375 26.703125 6.109375 
Q 34.1875 6.109375 38.703125 11.40625 
Q 43.21875 16.703125 43.21875 25.484375 
L 43.21875 27.484375 
z
M 52.203125 31.203125 
L 52.203125 0 
L 43.21875 0 
L 43.21875 8.296875 
Q 40.140625 3.328125 35.546875 0.953125 
Q 30.953125 -1.421875 24.3125 -1.421875 
Q 15.921875 -1.421875 10.953125 3.296875 
Q 6 8.015625 6 15.921875 
Q 6 25.140625 12.171875 29.828125 
Q 18.359375 34.515625 30.609375 34.515625 
L 43.21875 34.515625 
L 43.21875 35.40625 
Q 43.21875 41.609375 39.140625 45 
Q 35.0625 48.390625 27.6875 48.390625 
Q 23 48.390625 18.546875 47.265625 
Q 14.109375 46.140625 10.015625 43.890625 
L 10.015625 52.203125 
Q 14.9375 54.109375 19.578125 55.046875 
Q 24.21875 56 28.609375 56 
Q 40.484375 56 46.34375 49.84375 
Q 52.203125 43.703125 52.203125 31.203125 
z
" id="DejaVuSans-97"/>
      <path d="M 54.890625 54.6875 
L 35.109375 28.078125 
L 55.90625 0 
L 45.3125 0 
L 29.390625 21.484375 
L 13.484375 0 
L 2.875 0 
L 24.125 28.609375 
L 4.6875 54.6875 
L 15.28125 54.6875 
L 29.78125 35.203125 
L 44.28125 54.6875 
z
" id="DejaVuSans-120"/>
      <path d="M 34.1875 63.1875 
L 20.796875 26.90625 
L 47.609375 26.90625 
z
M 28.609375 72.90625 
L 39.796875 72.90625 
L 67.578125 0 
L 57.328125 0 
L 50.6875 18.703125 
L 17.828125 18.703125 
L 11.1875 0 
L 0.78125 0 
z
" id="DejaVuSans-65"/>
      <path d="M 18.3125 70.21875 
L 18.3125 54.6875 
L 36.8125 54.6875 
L 36.8125 47.703125 
L 18.3125 47.703125 
L 18.3125 18.015625 
Q 18.3125 11.328125 20.140625 9.421875 
Q 21.96875 7.515625 27.59375 7.515625 
L 36.8125 7.515625 
L 36.8125 0 
L 27.59375 0 
Q 17.1875 0 13.234375 3.875 
Q 9.28125 7.765625 9.28125 18.015625 
L 9.28125 47.703125 
L 2.6875 47.703125 
L 2.6875 54.6875 
L 9.28125 54.6875 
L 9.28125 70.21875 
z
" id="DejaVuSans-116"/>
      <path d="M 56.203125 29.59375 
L 56.203125 25.203125 
L 14.890625 25.203125 
Q 15.484375 15.921875 20.484375 11.0625 
Q 25.484375 6.203125 34.421875 6.203125 
Q 39.59375 6.203125 44.453125 7.46875 
Q 49.3125 8.734375 54.109375 11.28125 
L 54.109375 2.78125 
Q 49.265625 0.734375 44.1875 -0.34375 
Q 39.109375 -1.421875 33.890625 -1.421875 
Q 20.796875 -1.421875 13.15625 6.1875 
Q 5.515625 13.8125 5.515625 26.8125 
Q 5.515625 40.234375 12.765625 48.109375 
Q 20.015625 56 32.328125 56 
Q 43.359375 56 49.78125 48.890625 
Q 56.203125 41.796875 56.203125 29.59375 
z
M 47.21875 32.234375 
Q 47.125 39.59375 43.09375 43.984375 
Q 39.0625 48.390625 32.421875 48.390625 
Q 24.90625 48.390625 20.390625 44.140625 
Q 15.875 39.890625 15.1875 32.171875 
z
" id="DejaVuSans-101"/>
      <path d="M 54.890625 33.015625 
L 54.890625 0 
L 45.90625 0 
L 45.90625 32.71875 
Q 45.90625 40.484375 42.875 44.328125 
Q 39.84375 48.1875 33.796875 48.1875 
Q 26.515625 48.1875 22.3125 43.546875 
Q 18.109375 38.921875 18.109375 30.90625 
L 18.109375 0 
L 9.078125 0 
L 9.078125 54.6875 
L 18.109375 54.6875 
L 18.109375 46.1875 
Q 21.34375 51.125 25.703125 53.5625 
Q 30.078125 56 35.796875 56 
Q 45.21875 56 50.046875 50.171875 
Q 54.890625 44.34375 54.890625 33.015625 
z
" id="DejaVuSans-110"/>
      <path d="M 9.421875 54.6875 
L 18.40625 54.6875 
L 18.40625 0 
L 9.421875 0 
z
M 9.421875 75.984375 
L 18.40625 75.984375 
L 18.40625 64.59375 
L 9.421875 64.59375 
z
" id="DejaVuSans-105"/>
      <path d="M 30.609375 48.390625 
Q 23.390625 48.390625 19.1875 42.75 
Q 14.984375 37.109375 14.984375 27.296875 
Q 14.984375 17.484375 19.15625 11.84375 
Q 23.34375 6.203125 30.609375 6.203125 
Q 37.796875 6.203125 41.984375 11.859375 
Q 46.1875 17.53125 46.1875 27.296875 
Q 46.1875 37.015625 41.984375 42.703125 
Q 37.796875 48.390625 30.609375 48.390625 
z
M 30.609375 56 
Q 42.328125 56 49.015625 48.375 
Q 55.71875 40.765625 55.71875 27.296875 
Q 55.71875 13.875 49.015625 6.21875 
Q 42.328125 -1.421875 30.609375 -1.421875 
Q 18.84375 -1.421875 12.171875 6.21875 
Q 5.515625 13.875 5.515625 27.296875 
Q 5.515625 40.765625 12.171875 48.375 
Q 18.84375 56 30.609375 56 
z
" id="DejaVuSans-111"/>
     </defs>
     <g transform="translate(161.659375 320.611328)scale(0.2 -0.2)">
      <use xlink:href="#DejaVuSans-77"/>
      <use x="86.279297" xlink:href="#DejaVuSans-97"/>
      <use x="147.558594" xlink:href="#DejaVuSans-120"/>
      <use x="206.738281" xlink:href="#DejaVuSans-32"/>
      <use x="238.525391" xlink:href="#DejaVuSans-65"/>
      <use x="306.917969" xlink:href="#DejaVuSans-116"/>
      <use x="346.126953" xlink:href="#DejaVuSans-116"/>
      <use x="385.335938" xlink:href="#DejaVuSans-101"/>
      <use x="446.859375" xlink:href="#DejaVuSans-110"/>
      <use x="510.238281" xlink:href="#DejaVuSans-116"/>
      <use x="549.447266" xlink:href="#DejaVuSans-105"/>
      <use x="577.230469" xlink:href="#DejaVuSans-111"/>
      <use x="638.412109" xlink:href="#DejaVuSans-110"/>
     </g>
    </g>
   </g>
   <g id="matplotlib.axis_4">
    <g id="ytick_6">
     <g id="line2d_14">
      <g>
       <use style="stroke:#000000;stroke-width:1.6;" x="100.7" xlink:href="#m0b17eb8875" y="37.867578"/>
      </g>
     </g>
     <g id="text_17">
      <!-- [0.00, -->
      <defs>
       <path d="M 8.59375 75.984375 
L 29.296875 75.984375 
L 29.296875 69 
L 17.578125 69 
L 17.578125 -6.203125 
L 29.296875 -6.203125 
L 29.296875 -13.1875 
L 8.59375 -13.1875 
z
" id="DejaVuSans-91"/>
       <path d="M 11.71875 12.40625 
L 22.015625 12.40625 
L 22.015625 4 
L 14.015625 -11.625 
L 7.71875 -11.625 
L 11.71875 4 
z
" id="DejaVuSans-44"/>
      </defs>
      <g transform="translate(27.309375 34.268203)scale(0.2 -0.2)">
       <use xlink:href="#DejaVuSans-91"/>
       <use x="39.013672" xlink:href="#DejaVuSans-48"/>
       <use x="102.636719" xlink:href="#DejaVuSans-46"/>
       <use x="134.423828" xlink:href="#DejaVuSans-48"/>
       <use x="198.046875" xlink:href="#DejaVuSans-48"/>
       <use x="261.669922" xlink:href="#DejaVuSans-44"/>
      </g>
      <!-- 0.25) -->
      <defs>
       <path d="M 10.796875 72.90625 
L 49.515625 72.90625 
L 49.515625 64.59375 
L 19.828125 64.59375 
L 19.828125 46.734375 
Q 21.96875 47.46875 24.109375 47.828125 
Q 26.265625 48.1875 28.421875 48.1875 
Q 40.625 48.1875 47.75 41.5 
Q 54.890625 34.8125 54.890625 23.390625 
Q 54.890625 11.625 47.5625 5.09375 
Q 40.234375 -1.421875 26.90625 -1.421875 
Q 22.3125 -1.421875 17.546875 -0.640625 
Q 12.796875 0.140625 7.71875 1.703125 
L 7.71875 11.625 
Q 12.109375 9.234375 16.796875 8.0625 
Q 21.484375 6.890625 26.703125 6.890625 
Q 35.15625 6.890625 40.078125 11.328125 
Q 45.015625 15.765625 45.015625 23.390625 
Q 45.015625 31 40.078125 35.4375 
Q 35.15625 39.890625 26.703125 39.890625 
Q 22.75 39.890625 18.8125 39.015625 
Q 14.890625 38.140625 10.796875 36.28125 
z
" id="DejaVuSans-53"/>
       <path d="M 8.015625 75.875 
L 15.828125 75.875 
Q 23.140625 64.359375 26.78125 53.3125 
Q 30.421875 42.28125 30.421875 31.390625 
Q 30.421875 20.453125 26.78125 9.375 
Q 23.140625 -1.703125 15.828125 -13.1875 
L 8.015625 -13.1875 
Q 14.5 -2 17.703125 9.0625 
Q 20.90625 20.125 20.90625 31.390625 
Q 20.90625 42.671875 17.703125 53.65625 
Q 14.5 64.65625 8.015625 75.875 
z
" id="DejaVuSans-41"/>
      </defs>
      <g transform="translate(33.665625 56.663828)scale(0.2 -0.2)">
       <use xlink:href="#DejaVuSans-48"/>
       <use x="63.623047" xlink:href="#DejaVuSans-46"/>
       <use x="95.410156" xlink:href="#DejaVuSans-50"/>
       <use x="159.033203" xlink:href="#DejaVuSans-53"/>
       <use x="222.65625" xlink:href="#DejaVuSans-41"/>
      </g>
     </g>
    </g>
    <g id="ytick_7">
     <g id="line2d_15">
      <g>
       <use style="stroke:#000000;stroke-width:1.6;" x="100.7" xlink:href="#m0b17eb8875" y="103.436328"/>
      </g>
     </g>
     <g id="text_18">
      <!-- [0.25, -->
      <g transform="translate(27.309375 99.836953)scale(0.2 -0.2)">
       <use xlink:href="#DejaVuSans-91"/>
       <use x="39.013672" xlink:href="#DejaVuSans-48"/>
       <use x="102.636719" xlink:href="#DejaVuSans-46"/>
       <use x="134.423828" xlink:href="#DejaVuSans-50"/>
       <use x="198.046875" xlink:href="#DejaVuSans-53"/>
       <use x="261.669922" xlink:href="#DejaVuSans-44"/>
      </g>
      <!-- 0.50) -->
      <g transform="translate(33.665625 122.232578)scale(0.2 -0.2)">
       <use xlink:href="#DejaVuSans-48"/>
       <use x="63.623047" xlink:href="#DejaVuSans-46"/>
       <use x="95.410156" xlink:href="#DejaVuSans-53"/>
       <use x="159.033203" xlink:href="#DejaVuSans-48"/>
       <use x="222.65625" xlink:href="#DejaVuSans-41"/>
      </g>
     </g>
    </g>
    <g id="ytick_8">
     <g id="line2d_16">
      <g>
       <use style="stroke:#000000;stroke-width:1.6;" x="100.7" xlink:href="#m0b17eb8875" y="169.005078"/>
      </g>
     </g>
     <g id="text_19">
      <!-- [0.50, -->
      <g transform="translate(27.309375 165.405703)scale(0.2 -0.2)">
       <use xlink:href="#DejaVuSans-91"/>
       <use x="39.013672" xlink:href="#DejaVuSans-48"/>
       <use x="102.636719" xlink:href="#DejaVuSans-46"/>
       <use x="134.423828" xlink:href="#DejaVuSans-53"/>
       <use x="198.046875" xlink:href="#DejaVuSans-48"/>
       <use x="261.669922" xlink:href="#DejaVuSans-44"/>
      </g>
      <!-- 0.75) -->
      <defs>
       <path d="M 8.203125 72.90625 
L 55.078125 72.90625 
L 55.078125 68.703125 
L 28.609375 0 
L 18.3125 0 
L 43.21875 64.59375 
L 8.203125 64.59375 
z
" id="DejaVuSans-55"/>
      </defs>
      <g transform="translate(33.665625 187.801328)scale(0.2 -0.2)">
       <use xlink:href="#DejaVuSans-48"/>
       <use x="63.623047" xlink:href="#DejaVuSans-46"/>
       <use x="95.410156" xlink:href="#DejaVuSans-55"/>
       <use x="159.033203" xlink:href="#DejaVuSans-53"/>
       <use x="222.65625" xlink:href="#DejaVuSans-41"/>
      </g>
     </g>
    </g>
    <g id="ytick_9">
     <g id="line2d_17">
      <g>
       <use style="stroke:#000000;stroke-width:1.6;" x="100.7" xlink:href="#m0b17eb8875" y="234.573828"/>
      </g>
     </g>
     <g id="text_20">
      <!-- [0.75, -->
      <g transform="translate(27.309375 230.974453)scale(0.2 -0.2)">
       <use xlink:href="#DejaVuSans-91"/>
       <use x="39.013672" xlink:href="#DejaVuSans-48"/>
       <use x="102.636719" xlink:href="#DejaVuSans-46"/>
       <use x="134.423828" xlink:href="#DejaVuSans-55"/>
       <use x="198.046875" xlink:href="#DejaVuSans-53"/>
       <use x="261.669922" xlink:href="#DejaVuSans-44"/>
      </g>
      <!-- 1.00) -->
      <defs>
       <path d="M 12.40625 8.296875 
L 28.515625 8.296875 
L 28.515625 63.921875 
L 10.984375 60.40625 
L 10.984375 69.390625 
L 28.421875 72.90625 
L 38.28125 72.90625 
L 38.28125 8.296875 
L 54.390625 8.296875 
L 54.390625 0 
L 12.40625 0 
z
" id="DejaVuSans-49"/>
      </defs>
      <g transform="translate(33.665625 253.370078)scale(0.2 -0.2)">
       <use xlink:href="#DejaVuSans-49"/>
       <use x="63.623047" xlink:href="#DejaVuSans-46"/>
       <use x="95.410156" xlink:href="#DejaVuSans-48"/>
       <use x="159.033203" xlink:href="#DejaVuSans-48"/>
       <use x="222.65625" xlink:href="#DejaVuSans-41"/>
      </g>
     </g>
    </g>
    <g id="text_21">
     <!-- Max JS Divergence within $\epsilon$ -->
     <defs>
      <path d="M 9.8125 72.90625 
L 19.671875 72.90625 
L 19.671875 5.078125 
Q 19.671875 -8.109375 14.671875 -14.0625 
Q 9.671875 -20.015625 -1.421875 -20.015625 
L -5.171875 -20.015625 
L -5.171875 -11.71875 
L -2.09375 -11.71875 
Q 4.4375 -11.71875 7.125 -8.046875 
Q 9.8125 -4.390625 9.8125 5.078125 
z
" id="DejaVuSans-74"/>
      <path d="M 53.515625 70.515625 
L 53.515625 60.890625 
Q 47.90625 63.578125 42.921875 64.890625 
Q 37.9375 66.21875 33.296875 66.21875 
Q 25.25 66.21875 20.875 63.09375 
Q 16.5 59.96875 16.5 54.203125 
Q 16.5 49.359375 19.40625 46.890625 
Q 22.3125 44.4375 30.421875 42.921875 
L 36.375 41.703125 
Q 47.40625 39.59375 52.65625 34.296875 
Q 57.90625 29 57.90625 20.125 
Q 57.90625 9.515625 50.796875 4.046875 
Q 43.703125 -1.421875 29.984375 -1.421875 
Q 24.8125 -1.421875 18.96875 -0.25 
Q 13.140625 0.921875 6.890625 3.21875 
L 6.890625 13.375 
Q 12.890625 10.015625 18.65625 8.296875 
Q 24.421875 6.59375 29.984375 6.59375 
Q 38.421875 6.59375 43.015625 9.90625 
Q 47.609375 13.234375 47.609375 19.390625 
Q 47.609375 24.75 44.3125 27.78125 
Q 41.015625 30.8125 33.5 32.328125 
L 27.484375 33.5 
Q 16.453125 35.6875 11.515625 40.375 
Q 6.59375 45.0625 6.59375 53.421875 
Q 6.59375 63.09375 13.40625 68.65625 
Q 20.21875 74.21875 32.171875 74.21875 
Q 37.3125 74.21875 42.625 73.28125 
Q 47.953125 72.359375 53.515625 70.515625 
z
" id="DejaVuSans-83"/>
      <path d="M 19.671875 64.796875 
L 19.671875 8.109375 
L 31.59375 8.109375 
Q 46.6875 8.109375 53.6875 14.9375 
Q 60.6875 21.78125 60.6875 36.53125 
Q 60.6875 51.171875 53.6875 57.984375 
Q 46.6875 64.796875 31.59375 64.796875 
z
M 9.8125 72.90625 
L 30.078125 72.90625 
Q 51.265625 72.90625 61.171875 64.09375 
Q 71.09375 55.28125 71.09375 36.53125 
Q 71.09375 17.671875 61.125 8.828125 
Q 51.171875 0 30.078125 0 
L 9.8125 0 
z
" id="DejaVuSans-68"/>
      <path d="M 2.984375 54.6875 
L 12.5 54.6875 
L 29.59375 8.796875 
L 46.6875 54.6875 
L 56.203125 54.6875 
L 35.6875 0 
L 23.484375 0 
z
" id="DejaVuSans-118"/>
      <path d="M 41.109375 46.296875 
Q 39.59375 47.171875 37.8125 47.578125 
Q 36.03125 48 33.890625 48 
Q 26.265625 48 22.1875 43.046875 
Q 18.109375 38.09375 18.109375 28.8125 
L 18.109375 0 
L 9.078125 0 
L 9.078125 54.6875 
L 18.109375 54.6875 
L 18.109375 46.1875 
Q 20.953125 51.171875 25.484375 53.578125 
Q 30.03125 56 36.53125 56 
Q 37.453125 56 38.578125 55.875 
Q 39.703125 55.765625 41.0625 55.515625 
z
" id="DejaVuSans-114"/>
      <path d="M 45.40625 27.984375 
Q 45.40625 37.75 41.375 43.109375 
Q 37.359375 48.484375 30.078125 48.484375 
Q 22.859375 48.484375 18.828125 43.109375 
Q 14.796875 37.75 14.796875 27.984375 
Q 14.796875 18.265625 18.828125 12.890625 
Q 22.859375 7.515625 30.078125 7.515625 
Q 37.359375 7.515625 41.375 12.890625 
Q 45.40625 18.265625 45.40625 27.984375 
z
M 54.390625 6.78125 
Q 54.390625 -7.171875 48.1875 -13.984375 
Q 42 -20.796875 29.203125 -20.796875 
Q 24.46875 -20.796875 20.265625 -20.09375 
Q 16.0625 -19.390625 12.109375 -17.921875 
L 12.109375 -9.1875 
Q 16.0625 -11.328125 19.921875 -12.34375 
Q 23.78125 -13.375 27.78125 -13.375 
Q 36.625 -13.375 41.015625 -8.765625 
Q 45.40625 -4.15625 45.40625 5.171875 
L 45.40625 9.625 
Q 42.625 4.78125 38.28125 2.390625 
Q 33.9375 0 27.875 0 
Q 17.828125 0 11.671875 7.65625 
Q 5.515625 15.328125 5.515625 27.984375 
Q 5.515625 40.671875 11.671875 48.328125 
Q 17.828125 56 27.875 56 
Q 33.9375 56 38.28125 53.609375 
Q 42.625 51.21875 45.40625 46.390625 
L 45.40625 54.6875 
L 54.390625 54.6875 
z
" id="DejaVuSans-103"/>
      <path d="M 48.78125 52.59375 
L 48.78125 44.1875 
Q 44.96875 46.296875 41.140625 47.34375 
Q 37.3125 48.390625 33.40625 48.390625 
Q 24.65625 48.390625 19.8125 42.84375 
Q 14.984375 37.3125 14.984375 27.296875 
Q 14.984375 17.28125 19.8125 11.734375 
Q 24.65625 6.203125 33.40625 6.203125 
Q 37.3125 6.203125 41.140625 7.25 
Q 44.96875 8.296875 48.78125 10.40625 
L 48.78125 2.09375 
Q 45.015625 0.34375 40.984375 -0.53125 
Q 36.96875 -1.421875 32.421875 -1.421875 
Q 20.0625 -1.421875 12.78125 6.34375 
Q 5.515625 14.109375 5.515625 27.296875 
Q 5.515625 40.671875 12.859375 48.328125 
Q 20.21875 56 33.015625 56 
Q 37.15625 56 41.109375 55.140625 
Q 45.0625 54.296875 48.78125 52.59375 
z
" id="DejaVuSans-99"/>
      <path d="M 4.203125 54.6875 
L 13.1875 54.6875 
L 24.421875 12.015625 
L 35.59375 54.6875 
L 46.1875 54.6875 
L 57.421875 12.015625 
L 68.609375 54.6875 
L 77.59375 54.6875 
L 63.28125 0 
L 52.6875 0 
L 40.921875 44.828125 
L 29.109375 0 
L 18.5 0 
z
" id="DejaVuSans-119"/>
      <path d="M 54.890625 33.015625 
L 54.890625 0 
L 45.90625 0 
L 45.90625 32.71875 
Q 45.90625 40.484375 42.875 44.328125 
Q 39.84375 48.1875 33.796875 48.1875 
Q 26.515625 48.1875 22.3125 43.546875 
Q 18.109375 38.921875 18.109375 30.90625 
L 18.109375 0 
L 9.078125 0 
L 9.078125 75.984375 
L 18.109375 75.984375 
L 18.109375 46.1875 
Q 21.34375 51.125 25.703125 53.5625 
Q 30.078125 56 35.796875 56 
Q 45.21875 56 50.046875 50.171875 
Q 54.890625 44.34375 54.890625 33.015625 
z
" id="DejaVuSans-104"/>
      <path d="M 19.734375 29.5 
Q 14.453125 30.671875 12.15625 33.84375 
Q 10.453125 36.078125 10.453125 39.109375 
Q 10.453125 47.40625 18.359375 52.25 
Q 24.609375 56.0625 34.1875 56.0625 
Q 37.890625 56.0625 41.9375 55.46875 
Q 46 54.890625 50.53125 53.71875 
L 48.96875 45.5625 
Q 44.484375 46.96875 40.71875 47.609375 
Q 36.859375 48.25 33.40625 48.25 
Q 27.59375 48.25 23.78125 46 
Q 19.1875 43.3125 19.1875 39.40625 
Q 19.1875 36.8125 21.578125 35.015625 
Q 24.421875 32.859375 30.078125 32.859375 
L 37.640625 32.859375 
L 36.234375 25.4375 
L 29 25.4375 
Q 22.265625 25.4375 18.3125 22.953125 
Q 12.9375 19.578125 12.9375 14.3125 
Q 12.9375 10.984375 15.828125 8.796875 
Q 19.4375 6.0625 26.8125 6.0625 
Q 31.34375 6.0625 35.6875 6.9375 
Q 40.046875 7.859375 43.84375 9.671875 
L 42.1875 1.3125 
Q 37.546875 -0.046875 33.296875 -0.734375 
Q 29.046875 -1.421875 25.140625 -1.421875 
Q 13.53125 -1.421875 8.0625 3.03125 
Q 3.90625 6.453125 3.90625 12.203125 
Q 3.90625 19.96875 9.375 24.75 
Q 13.421875 28.328125 19.734375 29.5 
z
" id="DejaVuSans-Oblique-949"/>
     </defs>
     <g transform="translate(19.109375 271.820703)rotate(-90)scale(0.2 -0.2)">
      <use transform="translate(0 0.015625)" xlink:href="#DejaVuSans-77"/>
      <use transform="translate(86.279297 0.015625)" xlink:href="#DejaVuSans-97"/>
      <use transform="translate(147.558594 0.015625)" xlink:href="#DejaVuSans-120"/>
      <use transform="translate(206.738281 0.015625)" xlink:href="#DejaVuSans-32"/>
      <use transform="translate(238.525391 0.015625)" xlink:href="#DejaVuSans-74"/>
      <use transform="translate(268.017578 0.015625)" xlink:href="#DejaVuSans-83"/>
      <use transform="translate(331.494141 0.015625)" xlink:href="#DejaVuSans-32"/>
      <use transform="translate(363.28125 0.015625)" xlink:href="#DejaVuSans-68"/>
      <use transform="translate(440.283203 0.015625)" xlink:href="#DejaVuSans-105"/>
      <use transform="translate(468.066406 0.015625)" xlink:href="#DejaVuSans-118"/>
      <use transform="translate(527.246094 0.015625)" xlink:href="#DejaVuSans-101"/>
      <use transform="translate(588.769531 0.015625)" xlink:href="#DejaVuSans-114"/>
      <use transform="translate(629.882812 0.015625)" xlink:href="#DejaVuSans-103"/>
      <use transform="translate(693.359375 0.015625)" xlink:href="#DejaVuSans-101"/>
      <use transform="translate(754.882812 0.015625)" xlink:href="#DejaVuSans-110"/>
      <use transform="translate(818.261719 0.015625)" xlink:href="#DejaVuSans-99"/>
      <use transform="translate(873.242188 0.015625)" xlink:href="#DejaVuSans-101"/>
      <use transform="translate(934.765625 0.015625)" xlink:href="#DejaVuSans-32"/>
      <use transform="translate(966.552734 0.015625)" xlink:href="#DejaVuSans-119"/>
      <use transform="translate(1048.339844 0.015625)" xlink:href="#DejaVuSans-105"/>
      <use transform="translate(1076.123047 0.015625)" xlink:href="#DejaVuSans-116"/>
      <use transform="translate(1115.332031 0.015625)" xlink:href="#DejaVuSans-104"/>
      <use transform="translate(1178.710938 0.015625)" xlink:href="#DejaVuSans-105"/>
      <use transform="translate(1206.494141 0.015625)" xlink:href="#DejaVuSans-110"/>
      <use transform="translate(1269.873047 0.015625)" xlink:href="#DejaVuSans-32"/>
      <use transform="translate(1301.660156 0.015625)" xlink:href="#DejaVuSans-Oblique-949"/>
     </g>
    </g>
   </g>
   <g id="line2d_18">
    <path clip-path="url(#pef36f47cee)" d="M 285.773769 18.454816 
L 285.773769 57.28034 
" style="fill:none;stroke:#575757;stroke-dasharray:1.5,1.5;stroke-dashoffset:0;"/>
   </g>
   <g id="line2d_19">
    <path clip-path="url(#pef36f47cee)" d="M 301.57143 12.530826 
L 301.57143 63.20433 
" style="fill:none;stroke:#575757;stroke-dasharray:3,3;stroke-dashoffset:0;"/>
   </g>
   <g id="line2d_20">
    <path clip-path="url(#pef36f47cee)" d="M 314.654507 14.612476 
L 314.654507 61.122681 
" style="fill:none;stroke:#575757;stroke-dasharray:1.5,1.5;stroke-dashoffset:0;"/>
   </g>
   <g id="line2d_21">
    <path clip-path="url(#pef36f47cee)" d="M 269.336848 88.747341 
L 269.336848 118.125315 
" style="fill:none;stroke:#575757;stroke-dasharray:1.5,1.5;stroke-dashoffset:0;"/>
   </g>
   <g id="line2d_22">
    <path clip-path="url(#pef36f47cee)" d="M 300.730385 81.048166 
L 300.730385 125.82449 
" style="fill:none;stroke:#575757;stroke-dasharray:3,3;stroke-dashoffset:0;"/>
   </g>
   <g id="line2d_23">
    <path clip-path="url(#pef36f47cee)" d="M 322.604879 78.088182 
L 322.604879 128.784474 
" style="fill:none;stroke:#575757;stroke-dasharray:1.5,1.5;stroke-dashoffset:0;"/>
   </g>
   <g id="line2d_24">
    <path clip-path="url(#pef36f47cee)" d="M 255.028058 159.554778 
L 255.028058 178.455378 
" style="fill:none;stroke:#575757;stroke-dasharray:1.5,1.5;stroke-dashoffset:0;"/>
   </g>
   <g id="line2d_25">
    <path clip-path="url(#pef36f47cee)" d="M 315.316171 148.534444 
L 315.316171 189.475713 
" style="fill:none;stroke:#575757;stroke-dasharray:3,3;stroke-dashoffset:0;"/>
   </g>
   <g id="line2d_26">
    <path clip-path="url(#pef36f47cee)" d="M 336.675464 143.29315 
L 336.675464 194.717006 
" style="fill:none;stroke:#575757;stroke-dasharray:1.5,1.5;stroke-dashoffset:0;"/>
   </g>
   <g id="line2d_27">
    <path clip-path="url(#pef36f47cee)" d="M 204.366879 220.531403 
L 204.366879 248.616254 
" style="fill:none;stroke:#575757;stroke-dasharray:1.5,1.5;stroke-dashoffset:0;"/>
   </g>
   <g id="line2d_28">
    <path clip-path="url(#pef36f47cee)" d="M 308.677709 213.698153 
L 308.677709 255.449503 
" style="fill:none;stroke:#575757;stroke-dasharray:3,3;stroke-dashoffset:0;"/>
   </g>
   <g id="line2d_29">
    <path clip-path="url(#pef36f47cee)" d="M 336.152812 208.760161 
L 336.152812 260.387495 
" style="fill:none;stroke:#575757;stroke-dasharray:1.5,1.5;stroke-dashoffset:0;"/>
   </g>
   <g id="patch_47">
    <path d="M 100.7 267.358203 
L 100.7 5.083203 
" style="fill:none;stroke:#000000;stroke-linecap:square;stroke-linejoin:miter;stroke-width:0.8;"/>
   </g>
   <g id="patch_48">
    <path d="M 100.7 267.358203 
L 362.975 267.358203 
" style="fill:none;stroke:#000000;stroke-linecap:square;stroke-linejoin:miter;stroke-width:0.8;"/>
   </g>
  </g>
 </g>
 <defs>
  <clipPath id="p0391b050ab">
   <rect height="262.275" width="262.275" x="-269.375" y="5.083203"/>
  </clipPath>
  <clipPath id="pef36f47cee">
   <rect height="262.275" width="262.275" x="100.7" y="5.083203"/>
  </clipPath>
 </defs>
</svg>
