<?xml version="1.0" encoding="utf-8" standalone="no"?>
<!DOCTYPE svg PUBLIC "-//W3C//DTD SVG 1.1//EN"
  "http://www.w3.org/Graphics/SVG/1.1/DTD/svg11.dtd">
<!-- Created with matplotlib (https://matplotlib.org/) -->
<svg height="319.018203pt" version="1.1" viewBox="0 0 356.395 319.018203" width="356.395pt" xmlns="http://www.w3.org/2000/svg" xmlns:xlink="http://www.w3.org/1999/xlink">
 <defs>
  <style type="text/css">
*{stroke-linecap:butt;stroke-linejoin:round;}
  </style>
 </defs>
 <g id="figure_1">
  <g id="patch_1">
   <path d="M 0 319.018203 
L 356.395 319.018203 
L 356.395 -0 
L 0 -0 
z
" style="fill:#ffffff;"/>
  </g>
  <g id="axes_1">
   <g id="patch_2">
    <path d="M -266.855 262.318203 
L -14.66 262.318203 
L -14.66 10.123203 
L -266.855 10.123203 
z
" style="fill:#ffffff;"/>
   </g>
   <g id="patch_3">
    <path clip-path="url(#pf33733a940)" d="M -255.391591 262.318203 
L -249.659886 262.318203 
L -249.659886 208.191845 
L -255.391591 208.191845 
z
" style="fill:#43406b;opacity:0.6;stroke:#000000;stroke-linejoin:miter;stroke-width:0.5;"/>
   </g>
   <g id="patch_4">
    <path clip-path="url(#pf33733a940)" d="M -249.659886 262.318203 
L -243.928182 262.318203 
L -243.928182 262.318203 
L -249.659886 262.318203 
z
" style="fill:#43406b;opacity:0.6;stroke:#000000;stroke-linejoin:miter;stroke-width:0.5;"/>
   </g>
   <g id="patch_5">
    <path clip-path="url(#pf33733a940)" d="M -243.928182 262.318203 
L -238.196477 262.318203 
L -238.196477 262.318203 
L -243.928182 262.318203 
z
" style="fill:#43406b;opacity:0.6;stroke:#000000;stroke-linejoin:miter;stroke-width:0.5;"/>
   </g>
   <g id="patch_6">
    <path clip-path="url(#pf33733a940)" d="M -238.196477 262.318203 
L -232.464773 262.318203 
L -232.464773 262.318203 
L -238.196477 262.318203 
z
" style="fill:#43406b;opacity:0.6;stroke:#000000;stroke-linejoin:miter;stroke-width:0.5;"/>
   </g>
   <g id="patch_7">
    <path clip-path="url(#pf33733a940)" d="M -232.464773 262.318203 
L -226.733068 262.318203 
L -226.733068 260.626754 
L -232.464773 260.626754 
z
" style="fill:#43406b;opacity:0.6;stroke:#000000;stroke-linejoin:miter;stroke-width:0.5;"/>
   </g>
   <g id="patch_8">
    <path clip-path="url(#pf33733a940)" d="M -226.733068 262.318203 
L -221.001364 262.318203 
L -221.001364 260.626754 
L -226.733068 260.626754 
z
" style="fill:#43406b;opacity:0.6;stroke:#000000;stroke-linejoin:miter;stroke-width:0.5;"/>
   </g>
   <g id="patch_9">
    <path clip-path="url(#pf33733a940)" d="M -221.001364 262.318203 
L -215.269659 262.318203 
L -215.269659 258.935306 
L -221.001364 258.935306 
z
" style="fill:#43406b;opacity:0.6;stroke:#000000;stroke-linejoin:miter;stroke-width:0.5;"/>
   </g>
   <g id="patch_10">
    <path clip-path="url(#pf33733a940)" d="M -215.269659 262.318203 
L -209.537955 262.318203 
L -209.537955 258.089581 
L -215.269659 258.089581 
z
" style="fill:#43406b;opacity:0.6;stroke:#000000;stroke-linejoin:miter;stroke-width:0.5;"/>
   </g>
   <g id="patch_11">
    <path clip-path="url(#pf33733a940)" d="M -209.537955 262.318203 
L -203.80625 262.318203 
L -203.80625 257.243857 
L -209.537955 257.243857 
z
" style="fill:#43406b;opacity:0.6;stroke:#000000;stroke-linejoin:miter;stroke-width:0.5;"/>
   </g>
   <g id="patch_12">
    <path clip-path="url(#pf33733a940)" d="M -203.80625 262.318203 
L -198.074545 262.318203 
L -198.074545 253.86096 
L -203.80625 253.86096 
z
" style="fill:#43406b;opacity:0.6;stroke:#000000;stroke-linejoin:miter;stroke-width:0.5;"/>
   </g>
   <g id="patch_13">
    <path clip-path="url(#pf33733a940)" d="M -198.074545 262.318203 
L -192.342841 262.318203 
L -192.342841 258.089581 
L -198.074545 258.089581 
z
" style="fill:#43406b;opacity:0.6;stroke:#000000;stroke-linejoin:miter;stroke-width:0.5;"/>
   </g>
   <g id="patch_14">
    <path clip-path="url(#pf33733a940)" d="M -192.342841 262.318203 
L -186.611136 262.318203 
L -186.611136 252.169511 
L -192.342841 252.169511 
z
" style="fill:#43406b;opacity:0.6;stroke:#000000;stroke-linejoin:miter;stroke-width:0.5;"/>
   </g>
   <g id="patch_15">
    <path clip-path="url(#pf33733a940)" d="M -186.611136 262.318203 
L -180.879432 262.318203 
L -180.879432 250.478062 
L -186.611136 250.478062 
z
" style="fill:#43406b;opacity:0.6;stroke:#000000;stroke-linejoin:miter;stroke-width:0.5;"/>
   </g>
   <g id="patch_16">
    <path clip-path="url(#pf33733a940)" d="M -180.879432 262.318203 
L -175.147727 262.318203 
L -175.147727 244.557992 
L -180.879432 244.557992 
z
" style="fill:#43406b;opacity:0.6;stroke:#000000;stroke-linejoin:miter;stroke-width:0.5;"/>
   </g>
   <g id="patch_17">
    <path clip-path="url(#pf33733a940)" d="M -175.147727 262.318203 
L -169.416023 262.318203 
L -169.416023 248.786614 
L -175.147727 248.786614 
z
" style="fill:#43406b;opacity:0.6;stroke:#000000;stroke-linejoin:miter;stroke-width:0.5;"/>
   </g>
   <g id="patch_18">
    <path clip-path="url(#pf33733a940)" d="M -169.416023 262.318203 
L -163.684318 262.318203 
L -163.684318 250.478062 
L -169.416023 250.478062 
z
" style="fill:#43406b;opacity:0.6;stroke:#000000;stroke-linejoin:miter;stroke-width:0.5;"/>
   </g>
   <g id="patch_19">
    <path clip-path="url(#pf33733a940)" d="M -163.684318 262.318203 
L -157.952614 262.318203 
L -157.952614 241.175094 
L -163.684318 241.175094 
z
" style="fill:#43406b;opacity:0.6;stroke:#000000;stroke-linejoin:miter;stroke-width:0.5;"/>
   </g>
   <g id="patch_20">
    <path clip-path="url(#pf33733a940)" d="M -157.952614 262.318203 
L -152.220909 262.318203 
L -152.220909 242.020819 
L -157.952614 242.020819 
z
" style="fill:#43406b;opacity:0.6;stroke:#000000;stroke-linejoin:miter;stroke-width:0.5;"/>
   </g>
   <g id="patch_21">
    <path clip-path="url(#pf33733a940)" d="M -152.220909 262.318203 
L -146.489205 262.318203 
L -146.489205 231.026402 
L -152.220909 231.026402 
z
" style="fill:#43406b;opacity:0.6;stroke:#000000;stroke-linejoin:miter;stroke-width:0.5;"/>
   </g>
   <g id="patch_22">
    <path clip-path="url(#pf33733a940)" d="M -146.489205 262.318203 
L -140.7575 262.318203 
L -140.7575 226.797781 
L -146.489205 226.797781 
z
" style="fill:#43406b;opacity:0.6;stroke:#000000;stroke-linejoin:miter;stroke-width:0.5;"/>
   </g>
   <g id="patch_23">
    <path clip-path="url(#pf33733a940)" d="M -140.7575 262.318203 
L -135.025795 262.318203 
L -135.025795 222.569159 
L -140.7575 222.569159 
z
" style="fill:#43406b;opacity:0.6;stroke:#000000;stroke-linejoin:miter;stroke-width:0.5;"/>
   </g>
   <g id="patch_24">
    <path clip-path="url(#pf33733a940)" d="M -135.025795 262.318203 
L -129.294091 262.318203 
L -129.294091 203.117499 
L -135.025795 203.117499 
z
" style="fill:#43406b;opacity:0.6;stroke:#000000;stroke-linejoin:miter;stroke-width:0.5;"/>
   </g>
   <g id="patch_25">
    <path clip-path="url(#pf33733a940)" d="M -129.294091 262.318203 
L -123.562386 262.318203 
L -123.562386 189.585909 
L -129.294091 189.585909 
z
" style="fill:#43406b;opacity:0.6;stroke:#000000;stroke-linejoin:miter;stroke-width:0.5;"/>
   </g>
   <g id="patch_26">
    <path clip-path="url(#pf33733a940)" d="M -123.562386 262.318203 
L -117.830682 262.318203 
L -117.830682 170.979974 
L -123.562386 170.979974 
z
" style="fill:#43406b;opacity:0.6;stroke:#000000;stroke-linejoin:miter;stroke-width:0.5;"/>
   </g>
   <g id="patch_27">
    <path clip-path="url(#pf33733a940)" d="M -117.830682 262.318203 
L -112.098977 262.318203 
L -112.098977 152.374038 
L -117.830682 152.374038 
z
" style="fill:#43406b;opacity:0.6;stroke:#000000;stroke-linejoin:miter;stroke-width:0.5;"/>
   </g>
   <g id="patch_28">
    <path clip-path="url(#pf33733a940)" d="M -112.098977 262.318203 
L -106.367273 262.318203 
L -106.367273 119.390789 
L -112.098977 119.390789 
z
" style="fill:#43406b;opacity:0.6;stroke:#000000;stroke-linejoin:miter;stroke-width:0.5;"/>
   </g>
   <g id="patch_29">
    <path clip-path="url(#pf33733a940)" d="M -106.367273 262.318203 
L -100.635568 262.318203 
L -100.635568 94.864783 
L -106.367273 94.864783 
z
" style="fill:#43406b;opacity:0.6;stroke:#000000;stroke-linejoin:miter;stroke-width:0.5;"/>
   </g>
   <g id="patch_30">
    <path clip-path="url(#pf33733a940)" d="M -100.635568 262.318203 
L -94.903864 262.318203 
L -94.903864 50.041392 
L -100.635568 50.041392 
z
" style="fill:#43406b;opacity:0.6;stroke:#000000;stroke-linejoin:miter;stroke-width:0.5;"/>
   </g>
   <g id="patch_31">
    <path clip-path="url(#pf33733a940)" d="M -94.903864 262.318203 
L -89.172159 262.318203 
L -89.172159 58.498636 
L -94.903864 58.498636 
z
" style="fill:#43406b;opacity:0.6;stroke:#000000;stroke-linejoin:miter;stroke-width:0.5;"/>
   </g>
   <g id="patch_32">
    <path clip-path="url(#pf33733a940)" d="M -89.172159 262.318203 
L -83.440455 262.318203 
L -83.440455 22.132489 
L -89.172159 22.132489 
z
" style="fill:#43406b;opacity:0.6;stroke:#000000;stroke-linejoin:miter;stroke-width:0.5;"/>
   </g>
   <g id="patch_33">
    <path clip-path="url(#pf33733a940)" d="M -83.440455 262.318203 
L -77.70875 262.318203 
L -77.70875 28.052559 
L -83.440455 28.052559 
z
" style="fill:#43406b;opacity:0.6;stroke:#000000;stroke-linejoin:miter;stroke-width:0.5;"/>
   </g>
   <g id="patch_34">
    <path clip-path="url(#pf33733a940)" d="M -77.70875 262.318203 
L -71.977045 262.318203 
L -71.977045 36.509803 
L -77.70875 36.509803 
z
" style="fill:#43406b;opacity:0.6;stroke:#000000;stroke-linejoin:miter;stroke-width:0.5;"/>
   </g>
   <g id="patch_35">
    <path clip-path="url(#pf33733a940)" d="M -71.977045 262.318203 
L -66.245341 262.318203 
L -66.245341 67.801604 
L -71.977045 67.801604 
z
" style="fill:#43406b;opacity:0.6;stroke:#000000;stroke-linejoin:miter;stroke-width:0.5;"/>
   </g>
   <g id="patch_36">
    <path clip-path="url(#pf33733a940)" d="M -66.245341 262.318203 
L -60.513636 262.318203 
L -60.513636 111.77927 
L -66.245341 111.77927 
z
" style="fill:#43406b;opacity:0.6;stroke:#000000;stroke-linejoin:miter;stroke-width:0.5;"/>
   </g>
   <g id="patch_37">
    <path clip-path="url(#pf33733a940)" d="M -60.513636 262.318203 
L -54.781932 262.318203 
L -54.781932 136.305276 
L -60.513636 136.305276 
z
" style="fill:#43406b;opacity:0.6;stroke:#000000;stroke-linejoin:miter;stroke-width:0.5;"/>
   </g>
   <g id="patch_38">
    <path clip-path="url(#pf33733a940)" d="M -54.781932 262.318203 
L -49.050227 262.318203 
L -49.050227 190.431634 
L -54.781932 190.431634 
z
" style="fill:#43406b;opacity:0.6;stroke:#000000;stroke-linejoin:miter;stroke-width:0.5;"/>
   </g>
   <g id="patch_39">
    <path clip-path="url(#pf33733a940)" d="M -49.050227 262.318203 
L -43.318523 262.318203 
L -43.318523 204.808948 
L -49.050227 204.808948 
z
" style="fill:#43406b;opacity:0.6;stroke:#000000;stroke-linejoin:miter;stroke-width:0.5;"/>
   </g>
   <g id="patch_40">
    <path clip-path="url(#pf33733a940)" d="M -43.318523 262.318203 
L -37.586818 262.318203 
L -37.586818 231.026402 
L -43.318523 231.026402 
z
" style="fill:#43406b;opacity:0.6;stroke:#000000;stroke-linejoin:miter;stroke-width:0.5;"/>
   </g>
   <g id="patch_41">
    <path clip-path="url(#pf33733a940)" d="M -37.586818 262.318203 
L -31.855114 262.318203 
L -31.855114 246.249441 
L -37.586818 246.249441 
z
" style="fill:#43406b;opacity:0.6;stroke:#000000;stroke-linejoin:miter;stroke-width:0.5;"/>
   </g>
   <g id="patch_42">
    <path clip-path="url(#pf33733a940)" d="M -31.855114 262.318203 
L -26.123409 262.318203 
L -26.123409 261.472479 
L -31.855114 261.472479 
z
" style="fill:#43406b;opacity:0.6;stroke:#000000;stroke-linejoin:miter;stroke-width:0.5;"/>
   </g>
   <g id="matplotlib.axis_1">
    <g id="xtick_1">
     <g id="line2d_1">
      <defs>
       <path d="M 0 0 
L 0 3.5 
" id="ma947627d8e" style="stroke:#000000;stroke-width:1.6;"/>
      </defs>
      <g/>
     </g>
     <g id="text_1">
      <!-- 0.0 -->
      <defs>
       <path d="M 31.78125 66.40625 
Q 24.171875 66.40625 20.328125 58.90625 
Q 16.5 51.421875 16.5 36.375 
Q 16.5 21.390625 20.328125 13.890625 
Q 24.171875 6.390625 31.78125 6.390625 
Q 39.453125 6.390625 43.28125 13.890625 
Q 47.125 21.390625 47.125 36.375 
Q 47.125 51.421875 43.28125 58.90625 
Q 39.453125 66.40625 31.78125 66.40625 
z
M 31.78125 74.21875 
Q 44.046875 74.21875 50.515625 64.515625 
Q 56.984375 54.828125 56.984375 36.375 
Q 56.984375 17.96875 50.515625 8.265625 
Q 44.046875 -1.421875 31.78125 -1.421875 
Q 19.53125 -1.421875 13.0625 8.265625 
Q 6.59375 17.96875 6.59375 36.375 
Q 6.59375 54.828125 13.0625 64.515625 
Q 19.53125 74.21875 31.78125 74.21875 
z
" id="DejaVuSans-48"/>
       <path d="M 10.6875 12.40625 
L 21 12.40625 
L 21 0 
L 10.6875 0 
z
" id="DejaVuSans-46"/>
      </defs>
      <g transform="translate(-271.294716 292.215078)scale(0.2 -0.2)">
       <use xlink:href="#DejaVuSans-48"/>
       <use x="63.623047" xlink:href="#DejaVuSans-46"/>
       <use x="95.410156" xlink:href="#DejaVuSans-48"/>
      </g>
     </g>
    </g>
    <g id="xtick_2">
     <g id="line2d_2">
      <g/>
     </g>
     <g id="text_2">
      <!-- 0.2 -->
      <defs>
       <path d="M 19.1875 8.296875 
L 53.609375 8.296875 
L 53.609375 0 
L 7.328125 0 
L 7.328125 8.296875 
Q 12.9375 14.109375 22.625 23.890625 
Q 32.328125 33.6875 34.8125 36.53125 
Q 39.546875 41.84375 41.421875 45.53125 
Q 43.3125 49.21875 43.3125 52.78125 
Q 43.3125 58.59375 39.234375 62.25 
Q 35.15625 65.921875 28.609375 65.921875 
Q 23.96875 65.921875 18.8125 64.3125 
Q 13.671875 62.703125 7.8125 59.421875 
L 7.8125 69.390625 
Q 13.765625 71.78125 18.9375 73 
Q 24.125 74.21875 28.421875 74.21875 
Q 39.75 74.21875 46.484375 68.546875 
Q 53.21875 62.890625 53.21875 53.421875 
Q 53.21875 48.921875 51.53125 44.890625 
Q 49.859375 40.875 45.40625 35.40625 
Q 44.1875 33.984375 37.640625 27.21875 
Q 31.109375 20.453125 19.1875 8.296875 
z
" id="DejaVuSans-50"/>
      </defs>
      <g transform="translate(-205.789521 292.215078)scale(0.2 -0.2)">
       <use xlink:href="#DejaVuSans-48"/>
       <use x="63.623047" xlink:href="#DejaVuSans-46"/>
       <use x="95.410156" xlink:href="#DejaVuSans-50"/>
      </g>
     </g>
    </g>
    <g id="xtick_3">
     <g id="line2d_3">
      <g/>
     </g>
     <g id="text_3">
      <!-- 0.4 -->
      <defs>
       <path d="M 37.796875 64.3125 
L 12.890625 25.390625 
L 37.796875 25.390625 
z
M 35.203125 72.90625 
L 47.609375 72.90625 
L 47.609375 25.390625 
L 58.015625 25.390625 
L 58.015625 17.1875 
L 47.609375 17.1875 
L 47.609375 0 
L 37.796875 0 
L 37.796875 17.1875 
L 4.890625 17.1875 
L 4.890625 26.703125 
z
" id="DejaVuSans-52"/>
      </defs>
      <g transform="translate(-140.284326 292.215078)scale(0.2 -0.2)">
       <use xlink:href="#DejaVuSans-48"/>
       <use x="63.623047" xlink:href="#DejaVuSans-46"/>
       <use x="95.410156" xlink:href="#DejaVuSans-52"/>
      </g>
     </g>
    </g>
    <g id="xtick_4">
     <g id="line2d_4">
      <g/>
     </g>
     <g id="text_4">
      <!-- 0.6 -->
      <defs>
       <path d="M 33.015625 40.375 
Q 26.375 40.375 22.484375 35.828125 
Q 18.609375 31.296875 18.609375 23.390625 
Q 18.609375 15.53125 22.484375 10.953125 
Q 26.375 6.390625 33.015625 6.390625 
Q 39.65625 6.390625 43.53125 10.953125 
Q 47.40625 15.53125 47.40625 23.390625 
Q 47.40625 31.296875 43.53125 35.828125 
Q 39.65625 40.375 33.015625 40.375 
z
M 52.59375 71.296875 
L 52.59375 62.3125 
Q 48.875 64.0625 45.09375 64.984375 
Q 41.3125 65.921875 37.59375 65.921875 
Q 27.828125 65.921875 22.671875 59.328125 
Q 17.53125 52.734375 16.796875 39.40625 
Q 19.671875 43.65625 24.015625 45.921875 
Q 28.375 48.1875 33.59375 48.1875 
Q 44.578125 48.1875 50.953125 41.515625 
Q 57.328125 34.859375 57.328125 23.390625 
Q 57.328125 12.15625 50.6875 5.359375 
Q 44.046875 -1.421875 33.015625 -1.421875 
Q 20.359375 -1.421875 13.671875 8.265625 
Q 6.984375 17.96875 6.984375 36.375 
Q 6.984375 53.65625 15.1875 63.9375 
Q 23.390625 74.21875 37.203125 74.21875 
Q 40.921875 74.21875 44.703125 73.484375 
Q 48.484375 72.75 52.59375 71.296875 
z
" id="DejaVuSans-54"/>
      </defs>
      <g transform="translate(-74.779131 292.215078)scale(0.2 -0.2)">
       <use xlink:href="#DejaVuSans-48"/>
       <use x="63.623047" xlink:href="#DejaVuSans-46"/>
       <use x="95.410156" xlink:href="#DejaVuSans-54"/>
      </g>
     </g>
    </g>
    <g id="text_5">
     <!--   -->
     <defs>
      <path id="DejaVuSans-32"/>
     </defs>
     <g transform="translate(-143.935625 315.571328)scale(0.2 -0.2)">
      <use xlink:href="#DejaVuSans-32"/>
     </g>
    </g>
   </g>
   <g id="matplotlib.axis_2">
    <g id="ytick_1">
     <g id="line2d_5">
      <defs>
       <path d="M 0 0 
L -3.5 0 
" id="m951a142d8c" style="stroke:#000000;stroke-width:1.6;"/>
      </defs>
      <g/>
     </g>
     <g id="text_6">
      <!-- 0.00 -->
      <g transform="translate(-326.08625 269.916641)scale(0.2 -0.2)">
       <use xlink:href="#DejaVuSans-48"/>
       <use x="63.623047" xlink:href="#DejaVuSans-46"/>
       <use x="95.410156" xlink:href="#DejaVuSans-48"/>
       <use x="159.033203" xlink:href="#DejaVuSans-48"/>
      </g>
     </g>
    </g>
    <g id="ytick_2">
     <g id="line2d_6">
      <g/>
     </g>
     <g id="text_7">
      <!-- 0.02 -->
      <g transform="translate(-326.08625 215.824111)scale(0.2 -0.2)">
       <use xlink:href="#DejaVuSans-48"/>
       <use x="63.623047" xlink:href="#DejaVuSans-46"/>
       <use x="95.410156" xlink:href="#DejaVuSans-48"/>
       <use x="159.033203" xlink:href="#DejaVuSans-50"/>
      </g>
     </g>
    </g>
    <g id="ytick_3">
     <g id="line2d_7">
      <g/>
     </g>
     <g id="text_8">
      <!-- 0.04 -->
      <g transform="translate(-326.08625 161.731582)scale(0.2 -0.2)">
       <use xlink:href="#DejaVuSans-48"/>
       <use x="63.623047" xlink:href="#DejaVuSans-46"/>
       <use x="95.410156" xlink:href="#DejaVuSans-48"/>
       <use x="159.033203" xlink:href="#DejaVuSans-52"/>
      </g>
     </g>
    </g>
    <g id="ytick_4">
     <g id="line2d_8">
      <g/>
     </g>
     <g id="text_9">
      <!-- 0.06 -->
      <g transform="translate(-326.08625 107.639053)scale(0.2 -0.2)">
       <use xlink:href="#DejaVuSans-48"/>
       <use x="63.623047" xlink:href="#DejaVuSans-46"/>
       <use x="95.410156" xlink:href="#DejaVuSans-48"/>
       <use x="159.033203" xlink:href="#DejaVuSans-54"/>
      </g>
     </g>
    </g>
    <g id="ytick_5">
     <g id="line2d_9">
      <g/>
     </g>
     <g id="text_10">
      <!-- 0.08 -->
      <defs>
       <path d="M 31.78125 34.625 
Q 24.75 34.625 20.71875 30.859375 
Q 16.703125 27.09375 16.703125 20.515625 
Q 16.703125 13.921875 20.71875 10.15625 
Q 24.75 6.390625 31.78125 6.390625 
Q 38.8125 6.390625 42.859375 10.171875 
Q 46.921875 13.96875 46.921875 20.515625 
Q 46.921875 27.09375 42.890625 30.859375 
Q 38.875 34.625 31.78125 34.625 
z
M 21.921875 38.8125 
Q 15.578125 40.375 12.03125 44.71875 
Q 8.5 49.078125 8.5 55.328125 
Q 8.5 64.0625 14.71875 69.140625 
Q 20.953125 74.21875 31.78125 74.21875 
Q 42.671875 74.21875 48.875 69.140625 
Q 55.078125 64.0625 55.078125 55.328125 
Q 55.078125 49.078125 51.53125 44.71875 
Q 48 40.375 41.703125 38.8125 
Q 48.828125 37.15625 52.796875 32.3125 
Q 56.78125 27.484375 56.78125 20.515625 
Q 56.78125 9.90625 50.3125 4.234375 
Q 43.84375 -1.421875 31.78125 -1.421875 
Q 19.734375 -1.421875 13.25 4.234375 
Q 6.78125 9.90625 6.78125 20.515625 
Q 6.78125 27.484375 10.78125 32.3125 
Q 14.796875 37.15625 21.921875 38.8125 
z
M 18.3125 54.390625 
Q 18.3125 48.734375 21.84375 45.5625 
Q 25.390625 42.390625 31.78125 42.390625 
Q 38.140625 42.390625 41.71875 45.5625 
Q 45.3125 48.734375 45.3125 54.390625 
Q 45.3125 60.0625 41.71875 63.234375 
Q 38.140625 66.40625 31.78125 66.40625 
Q 25.390625 66.40625 21.84375 63.234375 
Q 18.3125 60.0625 18.3125 54.390625 
z
" id="DejaVuSans-56"/>
      </defs>
      <g transform="translate(-326.08625 53.546524)scale(0.2 -0.2)">
       <use xlink:href="#DejaVuSans-48"/>
       <use x="63.623047" xlink:href="#DejaVuSans-46"/>
       <use x="95.410156" xlink:href="#DejaVuSans-48"/>
       <use x="159.033203" xlink:href="#DejaVuSans-56"/>
      </g>
     </g>
    </g>
    <g id="text_11">
     <!--   -->
     <g transform="translate(-333.7465 139.017453)rotate(-90)scale(0.176 -0.176)">
      <use xlink:href="#DejaVuSans-32"/>
     </g>
    </g>
   </g>
   <g id="patch_43">
    <path style="fill:none;stroke:#000000;stroke-linecap:square;stroke-linejoin:miter;stroke-width:0.8;"/>
   </g>
   <g id="patch_44">
    <path style="fill:none;stroke:#000000;stroke-linecap:square;stroke-linejoin:miter;stroke-width:0.8;"/>
   </g>
  </g>
  <g id="axes_2">
   <g id="patch_45">
    <path d="M 100.7 262.318203 
L 352.895 262.318203 
L 352.895 10.123203 
L 100.7 10.123203 
z
" style="fill:#ffffff;"/>
   </g>
   <g id="PolyCollection_1">
    <defs>
     <path d="M 117.392022 -276.342766 
L 117.392022 -278.398484 
L 119.653991 -278.336267 
L 121.915959 -278.159428 
L 124.177928 -277.930886 
L 126.439896 -277.71663 
L 128.701864 -277.556424 
L 130.963833 -277.457376 
L 133.225801 -277.405844 
L 135.48777 -277.383057 
L 137.749738 -277.374441 
L 140.011706 -277.371643 
L 142.273675 -277.370861 
L 144.535643 -277.370673 
L 146.797612 -277.370633 
L 149.05958 -277.370626 
L 151.321548 -277.370625 
L 153.583517 -277.370625 
L 155.845485 -277.370625 
L 158.107454 -277.370625 
L 160.369422 -277.370625 
L 162.631391 -277.370625 
L 164.893359 -277.370625 
L 167.155327 -277.370626 
L 169.417296 -277.370629 
L 171.679264 -277.370644 
L 173.941233 -277.370708 
L 176.203201 -277.370931 
L 178.465169 -277.371617 
L 180.727138 -277.373432 
L 182.989106 -277.377579 
L 185.251075 -277.385723 
L 187.513043 -277.399438 
L 189.775012 -277.419163 
L 192.03698 -277.443288 
L 194.298948 -277.468233 
L 196.560917 -277.489806 
L 198.822885 -277.504864 
L 201.084854 -277.511941 
L 203.346822 -277.510811 
L 205.60879 -277.502388 
L 207.870759 -277.490023 
L 210.132727 -277.481251 
L 212.394696 -277.487952 
L 214.656664 -277.524028 
L 216.918632 -277.601566 
L 219.180601 -277.727083 
L 221.442569 -277.898841 
L 223.704538 -278.105955 
L 225.966506 -278.330668 
L 228.228475 -278.554996 
L 230.490443 -278.770159 
L 232.752411 -278.983558 
L 235.01438 -279.218107 
L 237.276348 -279.503985 
L 239.538317 -279.868746 
L 241.800285 -280.332298 
L 244.062253 -280.907976 
L 246.324222 -281.60506 
L 248.58619 -282.427359 
L 250.848159 -283.368375 
L 253.110127 -284.410224 
L 255.372096 -285.532195 
L 257.634064 -286.724586 
L 259.896032 -287.995001 
L 262.158001 -289.358856 
L 264.419969 -290.82012 
L 266.681938 -292.357262 
L 268.943906 -293.923381 
L 271.205874 -295.45619 
L 273.467843 -296.888661 
L 275.729811 -298.159243 
L 277.99178 -299.227756 
L 280.253748 -300.09456 
L 282.515716 -300.804144 
L 284.777685 -301.416063 
L 287.039653 -301.954981 
L 289.301622 -302.378327 
L 291.56359 -302.590125 
L 293.825559 -302.48979 
L 296.087527 -302.018156 
L 298.349495 -301.174637 
L 300.611464 -300.008219 
L 302.873432 -298.597825 
L 305.135401 -297.030734 
L 307.397369 -295.381546 
L 309.659337 -293.697971 
L 311.921306 -292.001596 
L 314.183274 -290.302407 
L 316.445243 -288.615271 
L 318.707211 -286.967848 
L 320.969179 -285.398986 
L 323.231148 -283.951583 
L 325.493116 -282.662696 
L 327.755085 -281.553952 
L 330.017053 -280.627426 
L 332.279022 -279.869392 
L 334.54099 -279.258051 
L 336.802958 -278.769575 
L 339.064927 -278.381364 
L 341.326895 -278.074567 
L 341.326895 -276.666683 
L 341.326895 -276.666683 
L 339.064927 -276.359886 
L 336.802958 -275.971675 
L 334.54099 -275.483199 
L 332.279022 -274.871858 
L 330.017053 -274.113824 
L 327.755085 -273.187298 
L 325.493116 -272.078554 
L 323.231148 -270.789667 
L 320.969179 -269.342264 
L 318.707211 -267.773402 
L 316.445243 -266.125979 
L 314.183274 -264.438843 
L 311.921306 -262.739654 
L 309.659337 -261.043279 
L 307.397369 -259.359704 
L 305.135401 -257.710516 
L 302.873432 -256.143425 
L 300.611464 -254.733031 
L 298.349495 -253.566613 
L 296.087527 -252.723094 
L 293.825559 -252.25146 
L 291.56359 -252.151125 
L 289.301622 -252.362923 
L 287.039653 -252.786269 
L 284.777685 -253.325187 
L 282.515716 -253.937106 
L 280.253748 -254.64669 
L 277.99178 -255.513494 
L 275.729811 -256.582007 
L 273.467843 -257.852589 
L 271.205874 -259.28506 
L 268.943906 -260.817869 
L 266.681938 -262.383988 
L 264.419969 -263.92113 
L 262.158001 -265.382394 
L 259.896032 -266.746249 
L 257.634064 -268.016664 
L 255.372096 -269.209055 
L 253.110127 -270.331026 
L 250.848159 -271.372875 
L 248.58619 -272.313891 
L 246.324222 -273.13619 
L 244.062253 -273.833274 
L 241.800285 -274.408952 
L 239.538317 -274.872504 
L 237.276348 -275.237265 
L 235.01438 -275.523143 
L 232.752411 -275.757692 
L 230.490443 -275.971091 
L 228.228475 -276.186254 
L 225.966506 -276.410582 
L 223.704538 -276.635295 
L 221.442569 -276.842409 
L 219.180601 -277.014167 
L 216.918632 -277.139684 
L 214.656664 -277.217222 
L 212.394696 -277.253298 
L 210.132727 -277.259999 
L 207.870759 -277.251227 
L 205.60879 -277.238862 
L 203.346822 -277.230439 
L 201.084854 -277.229309 
L 198.822885 -277.236386 
L 196.560917 -277.251444 
L 194.298948 -277.273017 
L 192.03698 -277.297962 
L 189.775012 -277.322087 
L 187.513043 -277.341812 
L 185.251075 -277.355527 
L 182.989106 -277.363671 
L 180.727138 -277.367818 
L 178.465169 -277.369633 
L 176.203201 -277.370319 
L 173.941233 -277.370542 
L 171.679264 -277.370606 
L 169.417296 -277.370621 
L 167.155327 -277.370624 
L 164.893359 -277.370625 
L 162.631391 -277.370625 
L 160.369422 -277.370625 
L 158.107454 -277.370625 
L 155.845485 -277.370625 
L 153.583517 -277.370625 
L 151.321548 -277.370625 
L 149.05958 -277.370624 
L 146.797612 -277.370617 
L 144.535643 -277.370577 
L 142.273675 -277.370389 
L 140.011706 -277.369607 
L 137.749738 -277.366809 
L 135.48777 -277.358193 
L 133.225801 -277.335406 
L 130.963833 -277.283874 
L 128.701864 -277.184826 
L 126.439896 -277.02462 
L 124.177928 -276.810364 
L 121.915959 -276.581822 
L 119.653991 -276.404983 
L 117.392022 -276.342766 
z
" id="m9c483ee097" style="stroke:#333333;"/>
    </defs>
    <g clip-path="url(#pd1046b31c6)">
     <use style="fill:#484566;stroke:#333333;" x="0" xlink:href="#m9c483ee097" y="319.018203"/>
    </g>
   </g>
   <g id="PolyCollection_2">
    <defs>
     <path d="M 117.264339 -211.471003 
L 117.264339 -217.172747 
L 119.562385 -217.135449 
L 121.860431 -217.00586 
L 124.158477 -216.797074 
L 126.456523 -216.529243 
L 128.754569 -216.22652 
L 131.052615 -215.913671 
L 133.350661 -215.613017 
L 135.648707 -215.342237 
L 137.946753 -215.113261 
L 140.244799 -214.932234 
L 142.542845 -214.800315 
L 144.840891 -214.714927 
L 147.138937 -214.671126 
L 149.436983 -214.662792 
L 151.735029 -214.683508 
L 154.033075 -214.727096 
L 156.331122 -214.787895 
L 158.629168 -214.860873 
L 160.927214 -214.941717 
L 163.22526 -215.026957 
L 165.523306 -215.114141 
L 167.821352 -215.202035 
L 170.119398 -215.290773 
L 172.417444 -215.381863 
L 174.71549 -215.47801 
L 177.013536 -215.582734 
L 179.311582 -215.699836 
L 181.609628 -215.832818 
L 183.907674 -215.98437 
L 186.20572 -216.156046 
L 188.503766 -216.348203 
L 190.801812 -216.560201 
L 193.099858 -216.790802 
L 195.397904 -217.038659 
L 197.69595 -217.30275 
L 199.993996 -217.58265 
L 202.292042 -217.878579 
L 204.590088 -218.191236 
L 206.888134 -218.521505 
L 209.18618 -218.870135 
L 211.484227 -219.237531 
L 213.782273 -219.623715 
L 216.080319 -220.028455 
L 218.378365 -220.451503 
L 220.676411 -220.892806 
L 222.974457 -221.352562 
L 225.272503 -221.831025 
L 227.570549 -222.328049 
L 229.868595 -222.842464 
L 232.166641 -223.371451 
L 234.464687 -223.910114 
L 236.762733 -224.451424 
L 239.060779 -224.986623 
L 241.358825 -225.506049 
L 243.656871 -226.000245 
L 245.954917 -226.461123 
L 248.252963 -226.882973 
L 250.551009 -227.263138 
L 252.849055 -227.602287 
L 255.147101 -227.904324 
L 257.445147 -228.176029 
L 259.743193 -228.426577 
L 262.041239 -228.667034 
L 264.339286 -228.909878 
L 266.637332 -229.168556 
L 268.935378 -229.457004 
L 271.233424 -229.789089 
L 273.53147 -230.177921 
L 275.829516 -230.635021 
L 278.127562 -231.169367 
L 280.425608 -231.78633 
L 282.723654 -232.486553 
L 285.0217 -233.264836 
L 287.319746 -234.109129 
L 289.617792 -234.999798 
L 291.915838 -235.909381 
L 294.213884 -236.803053 
L 296.51193 -237.639982 
L 298.809976 -238.37562 
L 301.108022 -238.964794 
L 303.406068 -239.365279 
L 305.704114 -239.541375 
L 308.00216 -239.466998 
L 310.300206 -239.127815 
L 312.598252 -238.522187 
L 314.896298 -237.66085 
L 317.194344 -236.565546 
L 319.492391 -235.266912 
L 321.790437 -233.802022 
L 324.088483 -232.211938 
L 326.386529 -230.539474 
L 328.684575 -228.827298 
L 330.982621 -227.116357 
L 333.280667 -225.444546 
L 335.578713 -223.845573 
L 337.876759 -222.347969 
L 340.174805 -220.97429 
L 342.472851 -219.740556 
L 344.770897 -218.656017 
L 344.770897 -209.987733 
L 344.770897 -209.987733 
L 342.472851 -208.903194 
L 340.174805 -207.66946 
L 337.876759 -206.295781 
L 335.578713 -204.798177 
L 333.280667 -203.199204 
L 330.982621 -201.527393 
L 328.684575 -199.816452 
L 326.386529 -198.104276 
L 324.088483 -196.431812 
L 321.790437 -194.841728 
L 319.492391 -193.376838 
L 317.194344 -192.078204 
L 314.896298 -190.9829 
L 312.598252 -190.121563 
L 310.300206 -189.515935 
L 308.00216 -189.176752 
L 305.704114 -189.102375 
L 303.406068 -189.278471 
L 301.108022 -189.678956 
L 298.809976 -190.26813 
L 296.51193 -191.003768 
L 294.213884 -191.840697 
L 291.915838 -192.734369 
L 289.617792 -193.643952 
L 287.319746 -194.534621 
L 285.0217 -195.378914 
L 282.723654 -196.157197 
L 280.425608 -196.85742 
L 278.127562 -197.474383 
L 275.829516 -198.008729 
L 273.53147 -198.465829 
L 271.233424 -198.854661 
L 268.935378 -199.186746 
L 266.637332 -199.475194 
L 264.339286 -199.733872 
L 262.041239 -199.976716 
L 259.743193 -200.217173 
L 257.445147 -200.467721 
L 255.147101 -200.739426 
L 252.849055 -201.041463 
L 250.551009 -201.380612 
L 248.252963 -201.760777 
L 245.954917 -202.182627 
L 243.656871 -202.643505 
L 241.358825 -203.137701 
L 239.060779 -203.657127 
L 236.762733 -204.192326 
L 234.464687 -204.733636 
L 232.166641 -205.272299 
L 229.868595 -205.801286 
L 227.570549 -206.315701 
L 225.272503 -206.812725 
L 222.974457 -207.291188 
L 220.676411 -207.750944 
L 218.378365 -208.192247 
L 216.080319 -208.615295 
L 213.782273 -209.020035 
L 211.484227 -209.406219 
L 209.18618 -209.773615 
L 206.888134 -210.122245 
L 204.590088 -210.452514 
L 202.292042 -210.765171 
L 199.993996 -211.0611 
L 197.69595 -211.341 
L 195.397904 -211.605091 
L 193.099858 -211.852948 
L 190.801812 -212.083549 
L 188.503766 -212.295547 
L 186.20572 -212.487704 
L 183.907674 -212.65938 
L 181.609628 -212.810932 
L 179.311582 -212.943914 
L 177.013536 -213.061016 
L 174.71549 -213.16574 
L 172.417444 -213.261887 
L 170.119398 -213.352977 
L 167.821352 -213.441715 
L 165.523306 -213.529609 
L 163.22526 -213.616793 
L 160.927214 -213.702033 
L 158.629168 -213.782877 
L 156.331122 -213.855855 
L 154.033075 -213.916654 
L 151.735029 -213.960242 
L 149.436983 -213.980958 
L 147.138937 -213.972624 
L 144.840891 -213.928823 
L 142.542845 -213.843435 
L 140.244799 -213.711516 
L 137.946753 -213.530489 
L 135.648707 -213.301513 
L 133.350661 -213.030733 
L 131.052615 -212.730079 
L 128.754569 -212.41723 
L 126.456523 -212.114507 
L 124.158477 -211.846676 
L 121.860431 -211.63789 
L 119.562385 -211.508301 
L 117.264339 -211.471003 
z
" id="m374f8d38d7" style="stroke:#333333;"/>
    </defs>
    <g clip-path="url(#pd1046b31c6)">
     <use style="fill:#484566;stroke:#333333;" x="0" xlink:href="#m374f8d38d7" y="319.018203"/>
    </g>
   </g>
   <g id="PolyCollection_3">
    <defs>
     <path d="M 117.153173 -149.606245 
L 117.153173 -152.940005 
L 119.482776 -152.943665 
L 121.812379 -152.924347 
L 124.141981 -152.884647 
L 126.471584 -152.828445 
L 128.801187 -152.760687 
L 131.130789 -152.687106 
L 133.460392 -152.613919 
L 135.789995 -152.547536 
L 138.119597 -152.494315 
L 140.4492 -152.460373 
L 142.778803 -152.451477 
L 145.108405 -152.472999 
L 147.438008 -152.529927 
L 149.767611 -152.626899 
L 152.097213 -152.768241 
L 154.426816 -152.957964 
L 156.756419 -153.199713 
L 159.086022 -153.496627 
L 161.415624 -153.851139 
L 163.745227 -154.264706 
L 166.07483 -154.7375 
L 168.404432 -155.268116 
L 170.734035 -155.853319 
L 173.063638 -156.4879 
L 175.39324 -157.164662 
L 177.722843 -157.874582 
L 180.052446 -158.607141 
L 182.382048 -159.350816 
L 184.711651 -160.093698 
L 187.041254 -160.824176 
L 189.370856 -161.531624 
L 191.700459 -162.207007 
L 194.030062 -162.843349 
L 196.359664 -163.435997 
L 198.689267 -163.982666 
L 201.01887 -164.483233 
L 203.348472 -164.939336 
L 205.678075 -165.353801 
L 208.007678 -165.72999 
L 210.33728 -166.071128 
L 212.666883 -166.379708 
L 214.996486 -166.657035 
L 217.326088 -166.902968 
L 219.655691 -167.115876 
L 221.985294 -167.292833 
L 224.314897 -167.429988 
L 226.644499 -167.523111 
L 228.974102 -167.568203 
L 231.303705 -167.562146 
L 233.633307 -167.503291 
L 235.96291 -167.391944 
L 238.292513 -167.230702 
L 240.622115 -167.024607 
L 242.951718 -166.781118 
L 245.281321 -166.509905 
L 247.610923 -166.222494 
L 249.940526 -165.931788 
L 252.270129 -165.651518 
L 254.599731 -165.395655 
L 256.929334 -165.177817 
L 259.258937 -165.010728 
L 261.588539 -164.90573 
L 263.918142 -164.872388 
L 266.247745 -164.918192 
L 268.577347 -165.048366 
L 270.90695 -165.26577 
L 273.236553 -165.570908 
L 275.566155 -165.962005 
L 277.895758 -166.435149 
L 280.225361 -166.984479 
L 282.554964 -167.602387 
L 284.884566 -168.279731 
L 287.214169 -169.006033 
L 289.543772 -169.769646 
L 291.873374 -170.557904 
L 294.202977 -171.357223 
L 296.53258 -172.153184 
L 298.862182 -172.930597 
L 301.191785 -173.673561 
L 303.521388 -174.36555 
L 305.85099 -174.989536 
L 308.180593 -175.528199 
L 310.510196 -175.964215 
L 312.839798 -176.280673 
L 315.169401 -176.461604 
L 317.499004 -176.492625 
L 319.828606 -176.361669 
L 322.158209 -176.059756 
L 324.487812 -175.581743 
L 326.817414 -174.926992 
L 329.147017 -174.099864 
L 331.47662 -173.109987 
L 333.806222 -171.972226 
L 336.135825 -170.706345 
L 338.465428 -169.336339 
L 340.79503 -167.88948 
L 343.124633 -166.395136 
L 345.454236 -164.883439 
L 347.783839 -163.38392 
L 347.783839 -139.16233 
L 347.783839 -139.16233 
L 345.454236 -137.662811 
L 343.124633 -136.151114 
L 340.79503 -134.65677 
L 338.465428 -133.209911 
L 336.135825 -131.839905 
L 333.806222 -130.574024 
L 331.47662 -129.436263 
L 329.147017 -128.446386 
L 326.817414 -127.619258 
L 324.487812 -126.964507 
L 322.158209 -126.486494 
L 319.828606 -126.184581 
L 317.499004 -126.053625 
L 315.169401 -126.084646 
L 312.839798 -126.265577 
L 310.510196 -126.582035 
L 308.180593 -127.018051 
L 305.85099 -127.556714 
L 303.521388 -128.1807 
L 301.191785 -128.872689 
L 298.862182 -129.615653 
L 296.53258 -130.393066 
L 294.202977 -131.189027 
L 291.873374 -131.988346 
L 289.543772 -132.776604 
L 287.214169 -133.540217 
L 284.884566 -134.266519 
L 282.554964 -134.943863 
L 280.225361 -135.561771 
L 277.895758 -136.111101 
L 275.566155 -136.584245 
L 273.236553 -136.975342 
L 270.90695 -137.28048 
L 268.577347 -137.497884 
L 266.247745 -137.628058 
L 263.918142 -137.673862 
L 261.588539 -137.64052 
L 259.258937 -137.535522 
L 256.929334 -137.368433 
L 254.599731 -137.150595 
L 252.270129 -136.894732 
L 249.940526 -136.614462 
L 247.610923 -136.323756 
L 245.281321 -136.036345 
L 242.951718 -135.765132 
L 240.622115 -135.521643 
L 238.292513 -135.315548 
L 235.96291 -135.154306 
L 233.633307 -135.042959 
L 231.303705 -134.984104 
L 228.974102 -134.978047 
L 226.644499 -135.023139 
L 224.314897 -135.116262 
L 221.985294 -135.253417 
L 219.655691 -135.430374 
L 217.326088 -135.643282 
L 214.996486 -135.889215 
L 212.666883 -136.166542 
L 210.33728 -136.475122 
L 208.007678 -136.81626 
L 205.678075 -137.192449 
L 203.348472 -137.606914 
L 201.01887 -138.063017 
L 198.689267 -138.563584 
L 196.359664 -139.110253 
L 194.030062 -139.702901 
L 191.700459 -140.339243 
L 189.370856 -141.014626 
L 187.041254 -141.722074 
L 184.711651 -142.452552 
L 182.382048 -143.195434 
L 180.052446 -143.939109 
L 177.722843 -144.671668 
L 175.39324 -145.381588 
L 173.063638 -146.05835 
L 170.734035 -146.692931 
L 168.404432 -147.278134 
L 166.07483 -147.80875 
L 163.745227 -148.281544 
L 161.415624 -148.695111 
L 159.086022 -149.049623 
L 156.756419 -149.346537 
L 154.426816 -149.588286 
L 152.097213 -149.778009 
L 149.767611 -149.919351 
L 147.438008 -150.016323 
L 145.108405 -150.073251 
L 142.778803 -150.094773 
L 140.4492 -150.085877 
L 138.119597 -150.051935 
L 135.789995 -149.998714 
L 133.460392 -149.932331 
L 131.130789 -149.859144 
L 128.801187 -149.785563 
L 126.471584 -149.717805 
L 124.141981 -149.661603 
L 121.812379 -149.621903 
L 119.482776 -149.602585 
L 117.153173 -149.606245 
z
" id="mfaac9839df" style="stroke:#333333;"/>
    </defs>
    <g clip-path="url(#pd1046b31c6)">
     <use style="fill:#484566;stroke:#333333;" x="0" xlink:href="#mfaac9839df" y="319.018203"/>
    </g>
   </g>
   <g id="PolyCollection_4">
    <defs>
     <path d="M 141.134324 -74.622977 
L 141.134324 -101.825773 
L 143.197753 -102.513723 
L 145.261181 -103.188939 
L 147.32461 -103.84673 
L 149.388039 -104.482411 
L 151.451467 -105.091365 
L 153.514896 -105.6691 
L 155.578325 -106.211317 
L 157.641753 -106.713965 
L 159.705182 -107.1733 
L 161.768611 -107.585934 
L 163.832039 -107.948886 
L 165.895468 -108.259623 
L 167.958896 -108.51609 
L 170.022325 -108.716739 
L 172.085754 -108.860548 
L 174.149182 -108.947027 
L 176.212611 -108.976224 
L 178.27604 -108.948714 
L 180.339468 -108.865587 
L 182.402897 -108.728421 
L 184.466325 -108.539258 
L 186.529754 -108.300568 
L 188.593183 -108.015203 
L 190.656611 -107.686363 
L 192.72004 -107.31754 
L 194.783469 -106.912476 
L 196.846897 -106.475112 
L 198.910326 -106.009538 
L 200.973754 -105.519949 
L 203.037183 -105.010596 
L 205.100612 -104.485749 
L 207.16404 -103.949656 
L 209.227469 -103.406509 
L 211.290898 -102.860412 
L 213.354326 -102.315362 
L 215.417755 -101.775221 
L 217.481184 -101.243701 
L 219.544612 -100.724357 
L 221.608041 -100.220568 
L 223.671469 -99.735541 
L 225.734898 -99.272303 
L 227.798327 -98.833701 
L 229.861755 -98.422405 
L 231.925184 -98.040909 
L 233.988613 -97.691537 
L 236.052041 -97.376442 
L 238.11547 -97.097612 
L 240.178898 -96.856875 
L 242.242327 -96.655894 
L 244.305756 -96.496176 
L 246.369184 -96.379063 
L 248.432613 -96.305737 
L 250.496042 -96.277209 
L 252.55947 -96.294318 
L 254.622899 -96.357721 
L 256.686327 -96.467882 
L 258.749756 -96.625066 
L 260.813185 -96.829321 
L 262.876613 -97.080466 
L 264.940042 -97.378078 
L 267.003471 -97.721473 
L 269.066899 -98.109691 
L 271.130328 -98.541479 
L 273.193757 -99.015277 
L 275.257185 -99.529199 
L 277.320614 -100.08102 
L 279.384042 -100.668167 
L 281.447471 -101.287705 
L 283.5109 -101.936333 
L 285.574328 -102.610379 
L 287.637757 -103.305807 
L 289.701186 -104.018218 
L 291.764614 -104.74287 
L 293.828043 -105.474692 
L 295.891471 -106.208315 
L 297.9549 -106.938105 
L 300.018329 -107.658202 
L 302.081757 -108.362574 
L 304.145186 -109.045069 
L 306.208615 -109.699481 
L 308.272043 -110.319618 
L 310.335472 -110.899377 
L 312.3989 -111.43282 
L 314.462329 -111.91426 
L 316.525758 -112.338338 
L 318.589186 -112.700107 
L 320.652615 -112.995112 
L 322.716044 -113.219463 
L 324.779472 -113.369905 
L 326.842901 -113.443875 
L 328.90633 -113.43956 
L 330.969758 -113.355929 
L 333.033187 -113.192765 
L 335.096615 -112.950677 
L 337.160044 -112.631101 
L 339.223473 -112.236283 
L 341.286901 -111.76925 
L 343.35033 -111.23377 
L 345.413759 -110.634291 
L 345.413759 -65.814459 
L 345.413759 -65.814459 
L 343.35033 -65.21498 
L 341.286901 -64.6795 
L 339.223473 -64.212467 
L 337.160044 -63.817649 
L 335.096615 -63.498073 
L 333.033187 -63.255985 
L 330.969758 -63.092821 
L 328.90633 -63.00919 
L 326.842901 -63.004875 
L 324.779472 -63.078845 
L 322.716044 -63.229287 
L 320.652615 -63.453638 
L 318.589186 -63.748643 
L 316.525758 -64.110412 
L 314.462329 -64.53449 
L 312.3989 -65.01593 
L 310.335472 -65.549373 
L 308.272043 -66.129132 
L 306.208615 -66.749269 
L 304.145186 -67.403681 
L 302.081757 -68.086176 
L 300.018329 -68.790548 
L 297.9549 -69.510645 
L 295.891471 -70.240435 
L 293.828043 -70.974058 
L 291.764614 -71.70588 
L 289.701186 -72.430532 
L 287.637757 -73.142943 
L 285.574328 -73.838371 
L 283.5109 -74.512417 
L 281.447471 -75.161045 
L 279.384042 -75.780583 
L 277.320614 -76.36773 
L 275.257185 -76.919551 
L 273.193757 -77.433473 
L 271.130328 -77.907271 
L 269.066899 -78.339059 
L 267.003471 -78.727277 
L 264.940042 -79.070672 
L 262.876613 -79.368284 
L 260.813185 -79.619429 
L 258.749756 -79.823684 
L 256.686327 -79.980868 
L 254.622899 -80.091029 
L 252.55947 -80.154432 
L 250.496042 -80.171541 
L 248.432613 -80.143013 
L 246.369184 -80.069687 
L 244.305756 -79.952574 
L 242.242327 -79.792856 
L 240.178898 -79.591875 
L 238.11547 -79.351138 
L 236.052041 -79.072308 
L 233.988613 -78.757213 
L 231.925184 -78.407841 
L 229.861755 -78.026345 
L 227.798327 -77.615049 
L 225.734898 -77.176447 
L 223.671469 -76.713209 
L 221.608041 -76.228182 
L 219.544612 -75.724393 
L 217.481184 -75.205049 
L 215.417755 -74.673529 
L 213.354326 -74.133388 
L 211.290898 -73.588338 
L 209.227469 -73.042241 
L 207.16404 -72.499094 
L 205.100612 -71.963001 
L 203.037183 -71.438154 
L 200.973754 -70.928801 
L 198.910326 -70.439212 
L 196.846897 -69.973638 
L 194.783469 -69.536274 
L 192.72004 -69.13121 
L 190.656611 -68.762387 
L 188.593183 -68.433547 
L 186.529754 -68.148182 
L 184.466325 -67.909492 
L 182.402897 -67.720329 
L 180.339468 -67.583163 
L 178.27604 -67.500036 
L 176.212611 -67.472526 
L 174.149182 -67.501723 
L 172.085754 -67.588202 
L 170.022325 -67.732011 
L 167.958896 -67.93266 
L 165.895468 -68.189127 
L 163.832039 -68.499864 
L 161.768611 -68.862816 
L 159.705182 -69.27545 
L 157.641753 -69.734785 
L 155.578325 -70.237433 
L 153.514896 -70.77965 
L 151.451467 -71.357385 
L 149.388039 -71.966339 
L 147.32461 -72.60202 
L 145.261181 -73.259811 
L 143.197753 -73.935027 
L 141.134324 -74.622977 
z
" id="mc877cdd180" style="stroke:#333333;"/>
    </defs>
    <g clip-path="url(#pd1046b31c6)">
     <use style="fill:#484566;stroke:#333333;" x="0" xlink:href="#mc877cdd180" y="319.018203"/>
    </g>
   </g>
   <g id="patch_46">
    <path clip-path="url(#pd1046b31c6)" d="M 117.513 41.647578 
L 117.513 41.647578 
L 117.513 41.647578 
L 117.513 41.647578 
z
" style="fill:#484566;stroke:#333333;stroke-linejoin:miter;stroke-width:0.5;"/>
   </g>
   <g id="matplotlib.axis_3">
    <g id="xtick_5">
     <g id="line2d_10">
      <g>
       <use style="stroke:#000000;stroke-width:1.6;" x="117.513" xlink:href="#ma947627d8e" y="262.318203"/>
      </g>
     </g>
     <g id="text_12">
      <!-- 0.0 -->
      <g transform="translate(101.609875 292.215078)scale(0.2 -0.2)">
       <use xlink:href="#DejaVuSans-48"/>
       <use x="63.623047" xlink:href="#DejaVuSans-46"/>
       <use x="95.410156" xlink:href="#DejaVuSans-48"/>
      </g>
     </g>
    </g>
    <g id="xtick_6">
     <g id="line2d_11">
      <g>
       <use style="stroke:#000000;stroke-width:1.6;" x="184.765" xlink:href="#ma947627d8e" y="262.318203"/>
      </g>
     </g>
     <g id="text_13">
      <!-- 0.2 -->
      <g transform="translate(168.861875 292.215078)scale(0.2 -0.2)">
       <use xlink:href="#DejaVuSans-48"/>
       <use x="63.623047" xlink:href="#DejaVuSans-46"/>
       <use x="95.410156" xlink:href="#DejaVuSans-50"/>
      </g>
     </g>
    </g>
    <g id="xtick_7">
     <g id="line2d_12">
      <g>
       <use style="stroke:#000000;stroke-width:1.6;" x="252.017" xlink:href="#ma947627d8e" y="262.318203"/>
      </g>
     </g>
     <g id="text_14">
      <!-- 0.4 -->
      <g transform="translate(236.113875 292.215078)scale(0.2 -0.2)">
       <use xlink:href="#DejaVuSans-48"/>
       <use x="63.623047" xlink:href="#DejaVuSans-46"/>
       <use x="95.410156" xlink:href="#DejaVuSans-52"/>
      </g>
     </g>
    </g>
    <g id="xtick_8">
     <g id="line2d_13">
      <g>
       <use style="stroke:#000000;stroke-width:1.6;" x="319.269" xlink:href="#ma947627d8e" y="262.318203"/>
      </g>
     </g>
     <g id="text_15">
      <!-- 0.6 -->
      <g transform="translate(303.365875 292.215078)scale(0.2 -0.2)">
       <use xlink:href="#DejaVuSans-48"/>
       <use x="63.623047" xlink:href="#DejaVuSans-46"/>
       <use x="95.410156" xlink:href="#DejaVuSans-54"/>
      </g>
     </g>
    </g>
    <g id="text_16">
     <!-- Max Attention -->
     <defs>
      <path d="M 9.8125 72.90625 
L 24.515625 72.90625 
L 43.109375 23.296875 
L 61.8125 72.90625 
L 76.515625 72.90625 
L 76.515625 0 
L 66.890625 0 
L 66.890625 64.015625 
L 48.09375 14.015625 
L 38.1875 14.015625 
L 19.390625 64.015625 
L 19.390625 0 
L 9.8125 0 
z
" id="DejaVuSans-77"/>
      <path d="M 34.28125 27.484375 
Q 23.390625 27.484375 19.1875 25 
Q 14.984375 22.515625 14.984375 16.5 
Q 14.984375 11.71875 18.140625 8.90625 
Q 21.296875 6.109375 26.703125 6.109375 
Q 34.1875 6.109375 38.703125 11.40625 
Q 43.21875 16.703125 43.21875 25.484375 
L 43.21875 27.484375 
z
M 52.203125 31.203125 
L 52.203125 0 
L 43.21875 0 
L 43.21875 8.296875 
Q 40.140625 3.328125 35.546875 0.953125 
Q 30.953125 -1.421875 24.3125 -1.421875 
Q 15.921875 -1.421875 10.953125 3.296875 
Q 6 8.015625 6 15.921875 
Q 6 25.140625 12.171875 29.828125 
Q 18.359375 34.515625 30.609375 34.515625 
L 43.21875 34.515625 
L 43.21875 35.40625 
Q 43.21875 41.609375 39.140625 45 
Q 35.0625 48.390625 27.6875 48.390625 
Q 23 48.390625 18.546875 47.265625 
Q 14.109375 46.140625 10.015625 43.890625 
L 10.015625 52.203125 
Q 14.9375 54.109375 19.578125 55.046875 
Q 24.21875 56 28.609375 56 
Q 40.484375 56 46.34375 49.84375 
Q 52.203125 43.703125 52.203125 31.203125 
z
" id="DejaVuSans-97"/>
      <path d="M 54.890625 54.6875 
L 35.109375 28.078125 
L 55.90625 0 
L 45.3125 0 
L 29.390625 21.484375 
L 13.484375 0 
L 2.875 0 
L 24.125 28.609375 
L 4.6875 54.6875 
L 15.28125 54.6875 
L 29.78125 35.203125 
L 44.28125 54.6875 
z
" id="DejaVuSans-120"/>
      <path d="M 34.1875 63.1875 
L 20.796875 26.90625 
L 47.609375 26.90625 
z
M 28.609375 72.90625 
L 39.796875 72.90625 
L 67.578125 0 
L 57.328125 0 
L 50.6875 18.703125 
L 17.828125 18.703125 
L 11.1875 0 
L 0.78125 0 
z
" id="DejaVuSans-65"/>
      <path d="M 18.3125 70.21875 
L 18.3125 54.6875 
L 36.8125 54.6875 
L 36.8125 47.703125 
L 18.3125 47.703125 
L 18.3125 18.015625 
Q 18.3125 11.328125 20.140625 9.421875 
Q 21.96875 7.515625 27.59375 7.515625 
L 36.8125 7.515625 
L 36.8125 0 
L 27.59375 0 
Q 17.1875 0 13.234375 3.875 
Q 9.28125 7.765625 9.28125 18.015625 
L 9.28125 47.703125 
L 2.6875 47.703125 
L 2.6875 54.6875 
L 9.28125 54.6875 
L 9.28125 70.21875 
z
" id="DejaVuSans-116"/>
      <path d="M 56.203125 29.59375 
L 56.203125 25.203125 
L 14.890625 25.203125 
Q 15.484375 15.921875 20.484375 11.0625 
Q 25.484375 6.203125 34.421875 6.203125 
Q 39.59375 6.203125 44.453125 7.46875 
Q 49.3125 8.734375 54.109375 11.28125 
L 54.109375 2.78125 
Q 49.265625 0.734375 44.1875 -0.34375 
Q 39.109375 -1.421875 33.890625 -1.421875 
Q 20.796875 -1.421875 13.15625 6.1875 
Q 5.515625 13.8125 5.515625 26.8125 
Q 5.515625 40.234375 12.765625 48.109375 
Q 20.015625 56 32.328125 56 
Q 43.359375 56 49.78125 48.890625 
Q 56.203125 41.796875 56.203125 29.59375 
z
M 47.21875 32.234375 
Q 47.125 39.59375 43.09375 43.984375 
Q 39.0625 48.390625 32.421875 48.390625 
Q 24.90625 48.390625 20.390625 44.140625 
Q 15.875 39.890625 15.1875 32.171875 
z
" id="DejaVuSans-101"/>
      <path d="M 54.890625 33.015625 
L 54.890625 0 
L 45.90625 0 
L 45.90625 32.71875 
Q 45.90625 40.484375 42.875 44.328125 
Q 39.84375 48.1875 33.796875 48.1875 
Q 26.515625 48.1875 22.3125 43.546875 
Q 18.109375 38.921875 18.109375 30.90625 
L 18.109375 0 
L 9.078125 0 
L 9.078125 54.6875 
L 18.109375 54.6875 
L 18.109375 46.1875 
Q 21.34375 51.125 25.703125 53.5625 
Q 30.078125 56 35.796875 56 
Q 45.21875 56 50.046875 50.171875 
Q 54.890625 44.34375 54.890625 33.015625 
z
" id="DejaVuSans-110"/>
      <path d="M 9.421875 54.6875 
L 18.40625 54.6875 
L 18.40625 0 
L 9.421875 0 
z
M 9.421875 75.984375 
L 18.40625 75.984375 
L 18.40625 64.59375 
L 9.421875 64.59375 
z
" id="DejaVuSans-105"/>
      <path d="M 30.609375 48.390625 
Q 23.390625 48.390625 19.1875 42.75 
Q 14.984375 37.109375 14.984375 27.296875 
Q 14.984375 17.484375 19.15625 11.84375 
Q 23.34375 6.203125 30.609375 6.203125 
Q 37.796875 6.203125 41.984375 11.859375 
Q 46.1875 17.53125 46.1875 27.296875 
Q 46.1875 37.015625 41.984375 42.703125 
Q 37.796875 48.390625 30.609375 48.390625 
z
M 30.609375 56 
Q 42.328125 56 49.015625 48.375 
Q 55.71875 40.765625 55.71875 27.296875 
Q 55.71875 13.875 49.015625 6.21875 
Q 42.328125 -1.421875 30.609375 -1.421875 
Q 18.84375 -1.421875 12.171875 6.21875 
Q 5.515625 13.875 5.515625 27.296875 
Q 5.515625 40.765625 12.171875 48.375 
Q 18.84375 56 30.609375 56 
z
" id="DejaVuSans-111"/>
     </defs>
     <g transform="translate(156.619375 315.571328)scale(0.2 -0.2)">
      <use xlink:href="#DejaVuSans-77"/>
      <use x="86.279297" xlink:href="#DejaVuSans-97"/>
      <use x="147.558594" xlink:href="#DejaVuSans-120"/>
      <use x="206.738281" xlink:href="#DejaVuSans-32"/>
      <use x="238.525391" xlink:href="#DejaVuSans-65"/>
      <use x="306.917969" xlink:href="#DejaVuSans-116"/>
      <use x="346.126953" xlink:href="#DejaVuSans-116"/>
      <use x="385.335938" xlink:href="#DejaVuSans-101"/>
      <use x="446.859375" xlink:href="#DejaVuSans-110"/>
      <use x="510.238281" xlink:href="#DejaVuSans-116"/>
      <use x="549.447266" xlink:href="#DejaVuSans-105"/>
      <use x="577.230469" xlink:href="#DejaVuSans-111"/>
      <use x="638.412109" xlink:href="#DejaVuSans-110"/>
     </g>
    </g>
   </g>
   <g id="matplotlib.axis_4">
    <g id="ytick_6">
     <g id="line2d_14">
      <g>
       <use style="stroke:#000000;stroke-width:1.6;" x="100.7" xlink:href="#m951a142d8c" y="41.647578"/>
      </g>
     </g>
     <g id="text_17">
      <!-- [0.00, -->
      <defs>
       <path d="M 8.59375 75.984375 
L 29.296875 75.984375 
L 29.296875 69 
L 17.578125 69 
L 17.578125 -6.203125 
L 29.296875 -6.203125 
L 29.296875 -13.1875 
L 8.59375 -13.1875 
z
" id="DejaVuSans-91"/>
       <path d="M 11.71875 12.40625 
L 22.015625 12.40625 
L 22.015625 4 
L 14.015625 -11.625 
L 7.71875 -11.625 
L 11.71875 4 
z
" id="DejaVuSans-44"/>
      </defs>
      <g transform="translate(27.309375 38.048203)scale(0.2 -0.2)">
       <use xlink:href="#DejaVuSans-91"/>
       <use x="39.013672" xlink:href="#DejaVuSans-48"/>
       <use x="102.636719" xlink:href="#DejaVuSans-46"/>
       <use x="134.423828" xlink:href="#DejaVuSans-48"/>
       <use x="198.046875" xlink:href="#DejaVuSans-48"/>
       <use x="261.669922" xlink:href="#DejaVuSans-44"/>
      </g>
      <!-- 0.25) -->
      <defs>
       <path d="M 10.796875 72.90625 
L 49.515625 72.90625 
L 49.515625 64.59375 
L 19.828125 64.59375 
L 19.828125 46.734375 
Q 21.96875 47.46875 24.109375 47.828125 
Q 26.265625 48.1875 28.421875 48.1875 
Q 40.625 48.1875 47.75 41.5 
Q 54.890625 34.8125 54.890625 23.390625 
Q 54.890625 11.625 47.5625 5.09375 
Q 40.234375 -1.421875 26.90625 -1.421875 
Q 22.3125 -1.421875 17.546875 -0.640625 
Q 12.796875 0.140625 7.71875 1.703125 
L 7.71875 11.625 
Q 12.109375 9.234375 16.796875 8.0625 
Q 21.484375 6.890625 26.703125 6.890625 
Q 35.15625 6.890625 40.078125 11.328125 
Q 45.015625 15.765625 45.015625 23.390625 
Q 45.015625 31 40.078125 35.4375 
Q 35.15625 39.890625 26.703125 39.890625 
Q 22.75 39.890625 18.8125 39.015625 
Q 14.890625 38.140625 10.796875 36.28125 
z
" id="DejaVuSans-53"/>
       <path d="M 8.015625 75.875 
L 15.828125 75.875 
Q 23.140625 64.359375 26.78125 53.3125 
Q 30.421875 42.28125 30.421875 31.390625 
Q 30.421875 20.453125 26.78125 9.375 
Q 23.140625 -1.703125 15.828125 -13.1875 
L 8.015625 -13.1875 
Q 14.5 -2 17.703125 9.0625 
Q 20.90625 20.125 20.90625 31.390625 
Q 20.90625 42.671875 17.703125 53.65625 
Q 14.5 64.65625 8.015625 75.875 
z
" id="DejaVuSans-41"/>
      </defs>
      <g transform="translate(33.665625 60.443828)scale(0.2 -0.2)">
       <use xlink:href="#DejaVuSans-48"/>
       <use x="63.623047" xlink:href="#DejaVuSans-46"/>
       <use x="95.410156" xlink:href="#DejaVuSans-50"/>
       <use x="159.033203" xlink:href="#DejaVuSans-53"/>
       <use x="222.65625" xlink:href="#DejaVuSans-41"/>
      </g>
     </g>
    </g>
    <g id="ytick_7">
     <g id="line2d_15">
      <g>
       <use style="stroke:#000000;stroke-width:1.6;" x="100.7" xlink:href="#m951a142d8c" y="104.696328"/>
      </g>
     </g>
     <g id="text_18">
      <!-- [0.25, -->
      <g transform="translate(27.309375 101.096953)scale(0.2 -0.2)">
       <use xlink:href="#DejaVuSans-91"/>
       <use x="39.013672" xlink:href="#DejaVuSans-48"/>
       <use x="102.636719" xlink:href="#DejaVuSans-46"/>
       <use x="134.423828" xlink:href="#DejaVuSans-50"/>
       <use x="198.046875" xlink:href="#DejaVuSans-53"/>
       <use x="261.669922" xlink:href="#DejaVuSans-44"/>
      </g>
      <!-- 0.50) -->
      <g transform="translate(33.665625 123.492578)scale(0.2 -0.2)">
       <use xlink:href="#DejaVuSans-48"/>
       <use x="63.623047" xlink:href="#DejaVuSans-46"/>
       <use x="95.410156" xlink:href="#DejaVuSans-53"/>
       <use x="159.033203" xlink:href="#DejaVuSans-48"/>
       <use x="222.65625" xlink:href="#DejaVuSans-41"/>
      </g>
     </g>
    </g>
    <g id="ytick_8">
     <g id="line2d_16">
      <g>
       <use style="stroke:#000000;stroke-width:1.6;" x="100.7" xlink:href="#m951a142d8c" y="167.745078"/>
      </g>
     </g>
     <g id="text_19">
      <!-- [0.50, -->
      <g transform="translate(27.309375 164.145703)scale(0.2 -0.2)">
       <use xlink:href="#DejaVuSans-91"/>
       <use x="39.013672" xlink:href="#DejaVuSans-48"/>
       <use x="102.636719" xlink:href="#DejaVuSans-46"/>
       <use x="134.423828" xlink:href="#DejaVuSans-53"/>
       <use x="198.046875" xlink:href="#DejaVuSans-48"/>
       <use x="261.669922" xlink:href="#DejaVuSans-44"/>
      </g>
      <!-- 0.75) -->
      <defs>
       <path d="M 8.203125 72.90625 
L 55.078125 72.90625 
L 55.078125 68.703125 
L 28.609375 0 
L 18.3125 0 
L 43.21875 64.59375 
L 8.203125 64.59375 
z
" id="DejaVuSans-55"/>
      </defs>
      <g transform="translate(33.665625 186.541328)scale(0.2 -0.2)">
       <use xlink:href="#DejaVuSans-48"/>
       <use x="63.623047" xlink:href="#DejaVuSans-46"/>
       <use x="95.410156" xlink:href="#DejaVuSans-55"/>
       <use x="159.033203" xlink:href="#DejaVuSans-53"/>
       <use x="222.65625" xlink:href="#DejaVuSans-41"/>
      </g>
     </g>
    </g>
    <g id="ytick_9">
     <g id="line2d_17">
      <g>
       <use style="stroke:#000000;stroke-width:1.6;" x="100.7" xlink:href="#m951a142d8c" y="230.793828"/>
      </g>
     </g>
     <g id="text_20">
      <!-- [0.75, -->
      <g transform="translate(27.309375 227.194453)scale(0.2 -0.2)">
       <use xlink:href="#DejaVuSans-91"/>
       <use x="39.013672" xlink:href="#DejaVuSans-48"/>
       <use x="102.636719" xlink:href="#DejaVuSans-46"/>
       <use x="134.423828" xlink:href="#DejaVuSans-55"/>
       <use x="198.046875" xlink:href="#DejaVuSans-53"/>
       <use x="261.669922" xlink:href="#DejaVuSans-44"/>
      </g>
      <!-- 1.00) -->
      <defs>
       <path d="M 12.40625 8.296875 
L 28.515625 8.296875 
L 28.515625 63.921875 
L 10.984375 60.40625 
L 10.984375 69.390625 
L 28.421875 72.90625 
L 38.28125 72.90625 
L 38.28125 8.296875 
L 54.390625 8.296875 
L 54.390625 0 
L 12.40625 0 
z
" id="DejaVuSans-49"/>
      </defs>
      <g transform="translate(33.665625 249.590078)scale(0.2 -0.2)">
       <use xlink:href="#DejaVuSans-49"/>
       <use x="63.623047" xlink:href="#DejaVuSans-46"/>
       <use x="95.410156" xlink:href="#DejaVuSans-48"/>
       <use x="159.033203" xlink:href="#DejaVuSans-48"/>
       <use x="222.65625" xlink:href="#DejaVuSans-41"/>
      </g>
     </g>
    </g>
    <g id="text_21">
     <!-- Max JS Divergence within $\epsilon$ -->
     <defs>
      <path d="M 9.8125 72.90625 
L 19.671875 72.90625 
L 19.671875 5.078125 
Q 19.671875 -8.109375 14.671875 -14.0625 
Q 9.671875 -20.015625 -1.421875 -20.015625 
L -5.171875 -20.015625 
L -5.171875 -11.71875 
L -2.09375 -11.71875 
Q 4.4375 -11.71875 7.125 -8.046875 
Q 9.8125 -4.390625 9.8125 5.078125 
z
" id="DejaVuSans-74"/>
      <path d="M 53.515625 70.515625 
L 53.515625 60.890625 
Q 47.90625 63.578125 42.921875 64.890625 
Q 37.9375 66.21875 33.296875 66.21875 
Q 25.25 66.21875 20.875 63.09375 
Q 16.5 59.96875 16.5 54.203125 
Q 16.5 49.359375 19.40625 46.890625 
Q 22.3125 44.4375 30.421875 42.921875 
L 36.375 41.703125 
Q 47.40625 39.59375 52.65625 34.296875 
Q 57.90625 29 57.90625 20.125 
Q 57.90625 9.515625 50.796875 4.046875 
Q 43.703125 -1.421875 29.984375 -1.421875 
Q 24.8125 -1.421875 18.96875 -0.25 
Q 13.140625 0.921875 6.890625 3.21875 
L 6.890625 13.375 
Q 12.890625 10.015625 18.65625 8.296875 
Q 24.421875 6.59375 29.984375 6.59375 
Q 38.421875 6.59375 43.015625 9.90625 
Q 47.609375 13.234375 47.609375 19.390625 
Q 47.609375 24.75 44.3125 27.78125 
Q 41.015625 30.8125 33.5 32.328125 
L 27.484375 33.5 
Q 16.453125 35.6875 11.515625 40.375 
Q 6.59375 45.0625 6.59375 53.421875 
Q 6.59375 63.09375 13.40625 68.65625 
Q 20.21875 74.21875 32.171875 74.21875 
Q 37.3125 74.21875 42.625 73.28125 
Q 47.953125 72.359375 53.515625 70.515625 
z
" id="DejaVuSans-83"/>
      <path d="M 19.671875 64.796875 
L 19.671875 8.109375 
L 31.59375 8.109375 
Q 46.6875 8.109375 53.6875 14.9375 
Q 60.6875 21.78125 60.6875 36.53125 
Q 60.6875 51.171875 53.6875 57.984375 
Q 46.6875 64.796875 31.59375 64.796875 
z
M 9.8125 72.90625 
L 30.078125 72.90625 
Q 51.265625 72.90625 61.171875 64.09375 
Q 71.09375 55.28125 71.09375 36.53125 
Q 71.09375 17.671875 61.125 8.828125 
Q 51.171875 0 30.078125 0 
L 9.8125 0 
z
" id="DejaVuSans-68"/>
      <path d="M 2.984375 54.6875 
L 12.5 54.6875 
L 29.59375 8.796875 
L 46.6875 54.6875 
L 56.203125 54.6875 
L 35.6875 0 
L 23.484375 0 
z
" id="DejaVuSans-118"/>
      <path d="M 41.109375 46.296875 
Q 39.59375 47.171875 37.8125 47.578125 
Q 36.03125 48 33.890625 48 
Q 26.265625 48 22.1875 43.046875 
Q 18.109375 38.09375 18.109375 28.8125 
L 18.109375 0 
L 9.078125 0 
L 9.078125 54.6875 
L 18.109375 54.6875 
L 18.109375 46.1875 
Q 20.953125 51.171875 25.484375 53.578125 
Q 30.03125 56 36.53125 56 
Q 37.453125 56 38.578125 55.875 
Q 39.703125 55.765625 41.0625 55.515625 
z
" id="DejaVuSans-114"/>
      <path d="M 45.40625 27.984375 
Q 45.40625 37.75 41.375 43.109375 
Q 37.359375 48.484375 30.078125 48.484375 
Q 22.859375 48.484375 18.828125 43.109375 
Q 14.796875 37.75 14.796875 27.984375 
Q 14.796875 18.265625 18.828125 12.890625 
Q 22.859375 7.515625 30.078125 7.515625 
Q 37.359375 7.515625 41.375 12.890625 
Q 45.40625 18.265625 45.40625 27.984375 
z
M 54.390625 6.78125 
Q 54.390625 -7.171875 48.1875 -13.984375 
Q 42 -20.796875 29.203125 -20.796875 
Q 24.46875 -20.796875 20.265625 -20.09375 
Q 16.0625 -19.390625 12.109375 -17.921875 
L 12.109375 -9.1875 
Q 16.0625 -11.328125 19.921875 -12.34375 
Q 23.78125 -13.375 27.78125 -13.375 
Q 36.625 -13.375 41.015625 -8.765625 
Q 45.40625 -4.15625 45.40625 5.171875 
L 45.40625 9.625 
Q 42.625 4.78125 38.28125 2.390625 
Q 33.9375 0 27.875 0 
Q 17.828125 0 11.671875 7.65625 
Q 5.515625 15.328125 5.515625 27.984375 
Q 5.515625 40.671875 11.671875 48.328125 
Q 17.828125 56 27.875 56 
Q 33.9375 56 38.28125 53.609375 
Q 42.625 51.21875 45.40625 46.390625 
L 45.40625 54.6875 
L 54.390625 54.6875 
z
" id="DejaVuSans-103"/>
      <path d="M 48.78125 52.59375 
L 48.78125 44.1875 
Q 44.96875 46.296875 41.140625 47.34375 
Q 37.3125 48.390625 33.40625 48.390625 
Q 24.65625 48.390625 19.8125 42.84375 
Q 14.984375 37.3125 14.984375 27.296875 
Q 14.984375 17.28125 19.8125 11.734375 
Q 24.65625 6.203125 33.40625 6.203125 
Q 37.3125 6.203125 41.140625 7.25 
Q 44.96875 8.296875 48.78125 10.40625 
L 48.78125 2.09375 
Q 45.015625 0.34375 40.984375 -0.53125 
Q 36.96875 -1.421875 32.421875 -1.421875 
Q 20.0625 -1.421875 12.78125 6.34375 
Q 5.515625 14.109375 5.515625 27.296875 
Q 5.515625 40.671875 12.859375 48.328125 
Q 20.21875 56 33.015625 56 
Q 37.15625 56 41.109375 55.140625 
Q 45.0625 54.296875 48.78125 52.59375 
z
" id="DejaVuSans-99"/>
      <path d="M 4.203125 54.6875 
L 13.1875 54.6875 
L 24.421875 12.015625 
L 35.59375 54.6875 
L 46.1875 54.6875 
L 57.421875 12.015625 
L 68.609375 54.6875 
L 77.59375 54.6875 
L 63.28125 0 
L 52.6875 0 
L 40.921875 44.828125 
L 29.109375 0 
L 18.5 0 
z
" id="DejaVuSans-119"/>
      <path d="M 54.890625 33.015625 
L 54.890625 0 
L 45.90625 0 
L 45.90625 32.71875 
Q 45.90625 40.484375 42.875 44.328125 
Q 39.84375 48.1875 33.796875 48.1875 
Q 26.515625 48.1875 22.3125 43.546875 
Q 18.109375 38.921875 18.109375 30.90625 
L 18.109375 0 
L 9.078125 0 
L 9.078125 75.984375 
L 18.109375 75.984375 
L 18.109375 46.1875 
Q 21.34375 51.125 25.703125 53.5625 
Q 30.078125 56 35.796875 56 
Q 45.21875 56 50.046875 50.171875 
Q 54.890625 44.34375 54.890625 33.015625 
z
" id="DejaVuSans-104"/>
      <path d="M 19.734375 29.5 
Q 14.453125 30.671875 12.15625 33.84375 
Q 10.453125 36.078125 10.453125 39.109375 
Q 10.453125 47.40625 18.359375 52.25 
Q 24.609375 56.0625 34.1875 56.0625 
Q 37.890625 56.0625 41.9375 55.46875 
Q 46 54.890625 50.53125 53.71875 
L 48.96875 45.5625 
Q 44.484375 46.96875 40.71875 47.609375 
Q 36.859375 48.25 33.40625 48.25 
Q 27.59375 48.25 23.78125 46 
Q 19.1875 43.3125 19.1875 39.40625 
Q 19.1875 36.8125 21.578125 35.015625 
Q 24.421875 32.859375 30.078125 32.859375 
L 37.640625 32.859375 
L 36.234375 25.4375 
L 29 25.4375 
Q 22.265625 25.4375 18.3125 22.953125 
Q 12.9375 19.578125 12.9375 14.3125 
Q 12.9375 10.984375 15.828125 8.796875 
Q 19.4375 6.0625 26.8125 6.0625 
Q 31.34375 6.0625 35.6875 6.9375 
Q 40.046875 7.859375 43.84375 9.671875 
L 42.1875 1.3125 
Q 37.546875 -0.046875 33.296875 -0.734375 
Q 29.046875 -1.421875 25.140625 -1.421875 
Q 13.53125 -1.421875 8.0625 3.03125 
Q 3.90625 6.453125 3.90625 12.203125 
Q 3.90625 19.96875 9.375 24.75 
Q 13.421875 28.328125 19.734375 29.5 
z
" id="DejaVuSans-Oblique-949"/>
     </defs>
     <g transform="translate(19.109375 271.820703)rotate(-90)scale(0.2 -0.2)">
      <use transform="translate(0 0.015625)" xlink:href="#DejaVuSans-77"/>
      <use transform="translate(86.279297 0.015625)" xlink:href="#DejaVuSans-97"/>
      <use transform="translate(147.558594 0.015625)" xlink:href="#DejaVuSans-120"/>
      <use transform="translate(206.738281 0.015625)" xlink:href="#DejaVuSans-32"/>
      <use transform="translate(238.525391 0.015625)" xlink:href="#DejaVuSans-74"/>
      <use transform="translate(268.017578 0.015625)" xlink:href="#DejaVuSans-83"/>
      <use transform="translate(331.494141 0.015625)" xlink:href="#DejaVuSans-32"/>
      <use transform="translate(363.28125 0.015625)" xlink:href="#DejaVuSans-68"/>
      <use transform="translate(440.283203 0.015625)" xlink:href="#DejaVuSans-105"/>
      <use transform="translate(468.066406 0.015625)" xlink:href="#DejaVuSans-118"/>
      <use transform="translate(527.246094 0.015625)" xlink:href="#DejaVuSans-101"/>
      <use transform="translate(588.769531 0.015625)" xlink:href="#DejaVuSans-114"/>
      <use transform="translate(629.882812 0.015625)" xlink:href="#DejaVuSans-103"/>
      <use transform="translate(693.359375 0.015625)" xlink:href="#DejaVuSans-101"/>
      <use transform="translate(754.882812 0.015625)" xlink:href="#DejaVuSans-110"/>
      <use transform="translate(818.261719 0.015625)" xlink:href="#DejaVuSans-99"/>
      <use transform="translate(873.242188 0.015625)" xlink:href="#DejaVuSans-101"/>
      <use transform="translate(934.765625 0.015625)" xlink:href="#DejaVuSans-32"/>
      <use transform="translate(966.552734 0.015625)" xlink:href="#DejaVuSans-119"/>
      <use transform="translate(1048.339844 0.015625)" xlink:href="#DejaVuSans-105"/>
      <use transform="translate(1076.123047 0.015625)" xlink:href="#DejaVuSans-116"/>
      <use transform="translate(1115.332031 0.015625)" xlink:href="#DejaVuSans-104"/>
      <use transform="translate(1178.710938 0.015625)" xlink:href="#DejaVuSans-105"/>
      <use transform="translate(1206.494141 0.015625)" xlink:href="#DejaVuSans-110"/>
      <use transform="translate(1269.873047 0.015625)" xlink:href="#DejaVuSans-32"/>
      <use transform="translate(1301.660156 0.015625)" xlink:href="#DejaVuSans-Oblique-949"/>
     </g>
    </g>
   </g>
   <g id="line2d_18">
    <path clip-path="url(#pd1046b31c6)" d="M 273.086375 22.324723 
L 273.086375 60.970433 
" style="fill:none;stroke:#333333;stroke-dasharray:1.5,1.5;stroke-dashoffset:0;"/>
   </g>
   <g id="line2d_19">
    <path clip-path="url(#pd1046b31c6)" d="M 288.340341 16.889953 
L 288.340341 66.405203 
" style="fill:none;stroke:#333333;stroke-dasharray:3,3;stroke-dashoffset:0;"/>
   </g>
   <g id="line2d_20">
    <path clip-path="url(#pd1046b31c6)" d="M 301.820151 20.63265 
L 301.820151 62.662506 
" style="fill:none;stroke:#333333;stroke-dasharray:1.5,1.5;stroke-dashoffset:0;"/>
   </g>
   <g id="line2d_21">
    <path clip-path="url(#pd1046b31c6)" d="M 251.497612 91.884478 
L 251.497612 117.508179 
" style="fill:none;stroke:#333333;stroke-dasharray:1.5,1.5;stroke-dashoffset:0;"/>
   </g>
   <g id="line2d_22">
    <path clip-path="url(#pd1046b31c6)" d="M 287.861963 85.106947 
L 287.861963 124.285709 
" style="fill:none;stroke:#333333;stroke-dasharray:3,3;stroke-dashoffset:0;"/>
   </g>
   <g id="line2d_23">
    <path clip-path="url(#pd1046b31c6)" d="M 309.420687 80.138447 
L 309.420687 129.254209 
" style="fill:none;stroke:#333333;stroke-dasharray:1.5,1.5;stroke-dashoffset:0;"/>
   </g>
   <g id="line2d_24">
    <path clip-path="url(#pd1046b31c6)" d="M 227.867749 151.612951 
L 227.867749 183.877205 
" style="fill:none;stroke:#333333;stroke-dasharray:1.5,1.5;stroke-dashoffset:0;"/>
   </g>
   <g id="line2d_25">
    <path clip-path="url(#pd1046b31c6)" d="M 283.111282 151.579109 
L 283.111282 183.911047 
" style="fill:none;stroke:#333333;stroke-dasharray:3,3;stroke-dashoffset:0;"/>
   </g>
   <g id="line2d_26">
    <path clip-path="url(#pd1046b31c6)" d="M 318.713841 142.907419 
L 318.713841 192.582737 
" style="fill:none;stroke:#333333;stroke-dasharray:1.5,1.5;stroke-dashoffset:0;"/>
   </g>
   <g id="line2d_27">
    <path clip-path="url(#pd1046b31c6)" d="M 177.70201 210.276732 
L 177.70201 251.310924 
" style="fill:none;stroke:#333333;stroke-dasharray:1.5,1.5;stroke-dashoffset:0;"/>
   </g>
   <g id="line2d_28">
    <path clip-path="url(#pd1046b31c6)" d="M 285.979847 216.551684 
L 285.979847 245.035972 
" style="fill:none;stroke:#333333;stroke-dasharray:3,3;stroke-dashoffset:0;"/>
   </g>
   <g id="line2d_29">
    <path clip-path="url(#pd1046b31c6)" d="M 332.795818 206.075122 
L 332.795818 255.512534 
" style="fill:none;stroke:#333333;stroke-dasharray:1.5,1.5;stroke-dashoffset:0;"/>
   </g>
   <g id="patch_47">
    <path d="M 100.7 262.318203 
L 100.7 10.123203 
" style="fill:none;stroke:#000000;stroke-linecap:square;stroke-linejoin:miter;stroke-width:0.8;"/>
   </g>
   <g id="patch_48">
    <path d="M 100.7 262.318203 
L 352.895 262.318203 
" style="fill:none;stroke:#000000;stroke-linecap:square;stroke-linejoin:miter;stroke-width:0.8;"/>
   </g>
  </g>
 </g>
 <defs>
  <clipPath id="pf33733a940">
   <rect height="252.195" width="252.195" x="-266.855" y="10.123203"/>
  </clipPath>
  <clipPath id="pd1046b31c6">
   <rect height="252.195" width="252.195" x="100.7" y="10.123203"/>
  </clipPath>
 </defs>
</svg>
