<?xml version="1.0" encoding="utf-8" standalone="no"?>
<!DOCTYPE svg PUBLIC "-//W3C//DTD SVG 1.1//EN"
  "http://www.w3.org/Graphics/SVG/1.1/DTD/svg11.dtd">
<!-- Created with matplotlib (https://matplotlib.org/) -->
<svg height="323.353333pt" version="1.1" viewBox="0 0 362.49737 323.353333" width="362.49737pt" xmlns="http://www.w3.org/2000/svg" xmlns:xlink="http://www.w3.org/1999/xlink">
 <defs>
  <style type="text/css">
*{stroke-linecap:butt;stroke-linejoin:round;}
  </style>
 </defs>
 <g id="figure_1">
  <g id="patch_1">
   <path d="M 0 323.353333 
L 362.49737 323.353333 
L 362.49737 -0 
L 0 -0 
z
" style="fill:#ffffff;"/>
  </g>
  <g id="axes_1">
   <g id="patch_2">
    <path d="M -273.813333 262.653333 
L -14.66 262.653333 
L -14.66 3.5 
L -273.813333 3.5 
z
" style="fill:#ffffff;"/>
   </g>
   <g id="patch_3">
    <path clip-path="url(#p7f3c82ff3e)" d="M -262.033636 262.653333 
L -256.143788 262.653333 
L -256.143788 262.653333 
L -262.033636 262.653333 
z
" style="fill:#43406b;opacity:0.6;stroke:#000000;stroke-linejoin:miter;stroke-width:0.5;"/>
   </g>
   <g id="patch_4">
    <path clip-path="url(#p7f3c82ff3e)" d="M -256.143788 262.653333 
L -250.253939 262.653333 
L -250.253939 262.653333 
L -256.143788 262.653333 
z
" style="fill:#43406b;opacity:0.6;stroke:#000000;stroke-linejoin:miter;stroke-width:0.5;"/>
   </g>
   <g id="patch_5">
    <path clip-path="url(#p7f3c82ff3e)" d="M -250.253939 262.653333 
L -244.364091 262.653333 
L -244.364091 262.653333 
L -250.253939 262.653333 
z
" style="fill:#43406b;opacity:0.6;stroke:#000000;stroke-linejoin:miter;stroke-width:0.5;"/>
   </g>
   <g id="patch_6">
    <path clip-path="url(#p7f3c82ff3e)" d="M -244.364091 262.653333 
L -238.474242 262.653333 
L -238.474242 262.653333 
L -244.364091 262.653333 
z
" style="fill:#43406b;opacity:0.6;stroke:#000000;stroke-linejoin:miter;stroke-width:0.5;"/>
   </g>
   <g id="patch_7">
    <path clip-path="url(#p7f3c82ff3e)" d="M -238.474242 262.653333 
L -232.584394 262.653333 
L -232.584394 262.653333 
L -238.474242 262.653333 
z
" style="fill:#43406b;opacity:0.6;stroke:#000000;stroke-linejoin:miter;stroke-width:0.5;"/>
   </g>
   <g id="patch_8">
    <path clip-path="url(#p7f3c82ff3e)" d="M -232.584394 262.653333 
L -226.694545 262.653333 
L -226.694545 262.653333 
L -232.584394 262.653333 
z
" style="fill:#43406b;opacity:0.6;stroke:#000000;stroke-linejoin:miter;stroke-width:0.5;"/>
   </g>
   <g id="patch_9">
    <path clip-path="url(#p7f3c82ff3e)" d="M -226.694545 262.653333 
L -220.804697 262.653333 
L -220.804697 262.653333 
L -226.694545 262.653333 
z
" style="fill:#43406b;opacity:0.6;stroke:#000000;stroke-linejoin:miter;stroke-width:0.5;"/>
   </g>
   <g id="patch_10">
    <path clip-path="url(#p7f3c82ff3e)" d="M -220.804697 262.653333 
L -214.914848 262.653333 
L -214.914848 262.653333 
L -220.804697 262.653333 
z
" style="fill:#43406b;opacity:0.6;stroke:#000000;stroke-linejoin:miter;stroke-width:0.5;"/>
   </g>
   <g id="patch_11">
    <path clip-path="url(#p7f3c82ff3e)" d="M -214.914848 262.653333 
L -209.025 262.653333 
L -209.025 262.653333 
L -214.914848 262.653333 
z
" style="fill:#43406b;opacity:0.6;stroke:#000000;stroke-linejoin:miter;stroke-width:0.5;"/>
   </g>
   <g id="patch_12">
    <path clip-path="url(#p7f3c82ff3e)" d="M -209.025 262.653333 
L -203.135152 262.653333 
L -203.135152 262.653333 
L -209.025 262.653333 
z
" style="fill:#43406b;opacity:0.6;stroke:#000000;stroke-linejoin:miter;stroke-width:0.5;"/>
   </g>
   <g id="patch_13">
    <path clip-path="url(#p7f3c82ff3e)" d="M -203.135152 262.653333 
L -197.245303 262.653333 
L -197.245303 262.653333 
L -203.135152 262.653333 
z
" style="fill:#43406b;opacity:0.6;stroke:#000000;stroke-linejoin:miter;stroke-width:0.5;"/>
   </g>
   <g id="patch_14">
    <path clip-path="url(#p7f3c82ff3e)" d="M -197.245303 262.653333 
L -191.355455 262.653333 
L -191.355455 262.653333 
L -197.245303 262.653333 
z
" style="fill:#43406b;opacity:0.6;stroke:#000000;stroke-linejoin:miter;stroke-width:0.5;"/>
   </g>
   <g id="patch_15">
    <path clip-path="url(#p7f3c82ff3e)" d="M -191.355455 262.653333 
L -185.465606 262.653333 
L -185.465606 262.653333 
L -191.355455 262.653333 
z
" style="fill:#43406b;opacity:0.6;stroke:#000000;stroke-linejoin:miter;stroke-width:0.5;"/>
   </g>
   <g id="patch_16">
    <path clip-path="url(#p7f3c82ff3e)" d="M -185.465606 262.653333 
L -179.575758 262.653333 
L -179.575758 262.653333 
L -185.465606 262.653333 
z
" style="fill:#43406b;opacity:0.6;stroke:#000000;stroke-linejoin:miter;stroke-width:0.5;"/>
   </g>
   <g id="patch_17">
    <path clip-path="url(#p7f3c82ff3e)" d="M -179.575758 262.653333 
L -173.685909 262.653333 
L -173.685909 262.653333 
L -179.575758 262.653333 
z
" style="fill:#43406b;opacity:0.6;stroke:#000000;stroke-linejoin:miter;stroke-width:0.5;"/>
   </g>
   <g id="patch_18">
    <path clip-path="url(#p7f3c82ff3e)" d="M -173.685909 262.653333 
L -167.796061 262.653333 
L -167.796061 262.653333 
L -173.685909 262.653333 
z
" style="fill:#43406b;opacity:0.6;stroke:#000000;stroke-linejoin:miter;stroke-width:0.5;"/>
   </g>
   <g id="patch_19">
    <path clip-path="url(#p7f3c82ff3e)" d="M -167.796061 262.653333 
L -161.906212 262.653333 
L -161.906212 262.653333 
L -167.796061 262.653333 
z
" style="fill:#43406b;opacity:0.6;stroke:#000000;stroke-linejoin:miter;stroke-width:0.5;"/>
   </g>
   <g id="patch_20">
    <path clip-path="url(#p7f3c82ff3e)" d="M -161.906212 262.653333 
L -156.016364 262.653333 
L -156.016364 262.653333 
L -161.906212 262.653333 
z
" style="fill:#43406b;opacity:0.6;stroke:#000000;stroke-linejoin:miter;stroke-width:0.5;"/>
   </g>
   <g id="patch_21">
    <path clip-path="url(#p7f3c82ff3e)" d="M -156.016364 262.653333 
L -150.126515 262.653333 
L -150.126515 262.653333 
L -156.016364 262.653333 
z
" style="fill:#43406b;opacity:0.6;stroke:#000000;stroke-linejoin:miter;stroke-width:0.5;"/>
   </g>
   <g id="patch_22">
    <path clip-path="url(#p7f3c82ff3e)" d="M -150.126515 262.653333 
L -144.236667 262.653333 
L -144.236667 262.653333 
L -150.126515 262.653333 
z
" style="fill:#43406b;opacity:0.6;stroke:#000000;stroke-linejoin:miter;stroke-width:0.5;"/>
   </g>
   <g id="patch_23">
    <path clip-path="url(#p7f3c82ff3e)" d="M -144.236667 262.653333 
L -138.346818 262.653333 
L -138.346818 262.653333 
L -144.236667 262.653333 
z
" style="fill:#43406b;opacity:0.6;stroke:#000000;stroke-linejoin:miter;stroke-width:0.5;"/>
   </g>
   <g id="patch_24">
    <path clip-path="url(#p7f3c82ff3e)" d="M -138.346818 262.653333 
L -132.45697 262.653333 
L -132.45697 262.653333 
L -138.346818 262.653333 
z
" style="fill:#43406b;opacity:0.6;stroke:#000000;stroke-linejoin:miter;stroke-width:0.5;"/>
   </g>
   <g id="patch_25">
    <path clip-path="url(#p7f3c82ff3e)" d="M -132.45697 262.653333 
L -126.567121 262.653333 
L -126.567121 262.653333 
L -132.45697 262.653333 
z
" style="fill:#43406b;opacity:0.6;stroke:#000000;stroke-linejoin:miter;stroke-width:0.5;"/>
   </g>
   <g id="patch_26">
    <path clip-path="url(#p7f3c82ff3e)" d="M -126.567121 262.653333 
L -120.677273 262.653333 
L -120.677273 262.653333 
L -126.567121 262.653333 
z
" style="fill:#43406b;opacity:0.6;stroke:#000000;stroke-linejoin:miter;stroke-width:0.5;"/>
   </g>
   <g id="patch_27">
    <path clip-path="url(#p7f3c82ff3e)" d="M -120.677273 262.653333 
L -114.787424 262.653333 
L -114.787424 262.653333 
L -120.677273 262.653333 
z
" style="fill:#43406b;opacity:0.6;stroke:#000000;stroke-linejoin:miter;stroke-width:0.5;"/>
   </g>
   <g id="patch_28">
    <path clip-path="url(#p7f3c82ff3e)" d="M -114.787424 262.653333 
L -108.897576 262.653333 
L -108.897576 262.653333 
L -114.787424 262.653333 
z
" style="fill:#43406b;opacity:0.6;stroke:#000000;stroke-linejoin:miter;stroke-width:0.5;"/>
   </g>
   <g id="patch_29">
    <path clip-path="url(#p7f3c82ff3e)" d="M -108.897576 262.653333 
L -103.007727 262.653333 
L -103.007727 262.653333 
L -108.897576 262.653333 
z
" style="fill:#43406b;opacity:0.6;stroke:#000000;stroke-linejoin:miter;stroke-width:0.5;"/>
   </g>
   <g id="patch_30">
    <path clip-path="url(#p7f3c82ff3e)" d="M -103.007727 262.653333 
L -97.117879 262.653333 
L -97.117879 262.653333 
L -103.007727 262.653333 
z
" style="fill:#43406b;opacity:0.6;stroke:#000000;stroke-linejoin:miter;stroke-width:0.5;"/>
   </g>
   <g id="patch_31">
    <path clip-path="url(#p7f3c82ff3e)" d="M -97.117879 262.653333 
L -91.22803 262.653333 
L -91.22803 262.653333 
L -97.117879 262.653333 
z
" style="fill:#43406b;opacity:0.6;stroke:#000000;stroke-linejoin:miter;stroke-width:0.5;"/>
   </g>
   <g id="patch_32">
    <path clip-path="url(#p7f3c82ff3e)" d="M -91.22803 262.653333 
L -85.338182 262.653333 
L -85.338182 262.653333 
L -91.22803 262.653333 
z
" style="fill:#43406b;opacity:0.6;stroke:#000000;stroke-linejoin:miter;stroke-width:0.5;"/>
   </g>
   <g id="patch_33">
    <path clip-path="url(#p7f3c82ff3e)" d="M -85.338182 262.653333 
L -79.448333 262.653333 
L -79.448333 262.653333 
L -85.338182 262.653333 
z
" style="fill:#43406b;opacity:0.6;stroke:#000000;stroke-linejoin:miter;stroke-width:0.5;"/>
   </g>
   <g id="patch_34">
    <path clip-path="url(#p7f3c82ff3e)" d="M -79.448333 262.653333 
L -73.558485 262.653333 
L -73.558485 262.653333 
L -79.448333 262.653333 
z
" style="fill:#43406b;opacity:0.6;stroke:#000000;stroke-linejoin:miter;stroke-width:0.5;"/>
   </g>
   <g id="patch_35">
    <path clip-path="url(#p7f3c82ff3e)" d="M -73.558485 262.653333 
L -67.668636 262.653333 
L -67.668636 261.136702 
L -73.558485 261.136702 
z
" style="fill:#43406b;opacity:0.6;stroke:#000000;stroke-linejoin:miter;stroke-width:0.5;"/>
   </g>
   <g id="patch_36">
    <path clip-path="url(#p7f3c82ff3e)" d="M -67.668636 262.653333 
L -61.778788 262.653333 
L -61.778788 253.856872 
L -67.668636 253.856872 
z
" style="fill:#43406b;opacity:0.6;stroke:#000000;stroke-linejoin:miter;stroke-width:0.5;"/>
   </g>
   <g id="patch_37">
    <path clip-path="url(#p7f3c82ff3e)" d="M -61.778788 262.653333 
L -55.888939 262.653333 
L -55.888939 225.040879 
L -61.778788 225.040879 
z
" style="fill:#43406b;opacity:0.6;stroke:#000000;stroke-linejoin:miter;stroke-width:0.5;"/>
   </g>
   <g id="patch_38">
    <path clip-path="url(#p7f3c82ff3e)" d="M -55.888939 262.653333 
L -49.999091 262.653333 
L -49.999091 185.001815 
L -55.888939 185.001815 
z
" style="fill:#43406b;opacity:0.6;stroke:#000000;stroke-linejoin:miter;stroke-width:0.5;"/>
   </g>
   <g id="patch_39">
    <path clip-path="url(#p7f3c82ff3e)" d="M -49.999091 262.653333 
L -44.109242 262.653333 
L -44.109242 164.37563 
L -49.999091 164.37563 
z
" style="fill:#43406b;opacity:0.6;stroke:#000000;stroke-linejoin:miter;stroke-width:0.5;"/>
   </g>
   <g id="patch_40">
    <path clip-path="url(#p7f3c82ff3e)" d="M -44.109242 262.653333 
L -38.219394 262.653333 
L -38.219394 182.575205 
L -44.109242 182.575205 
z
" style="fill:#43406b;opacity:0.6;stroke:#000000;stroke-linejoin:miter;stroke-width:0.5;"/>
   </g>
   <g id="patch_41">
    <path clip-path="url(#p7f3c82ff3e)" d="M -38.219394 262.653333 
L -32.329545 262.653333 
L -32.329545 231.714056 
L -38.219394 231.714056 
z
" style="fill:#43406b;opacity:0.6;stroke:#000000;stroke-linejoin:miter;stroke-width:0.5;"/>
   </g>
   <g id="patch_42">
    <path clip-path="url(#p7f3c82ff3e)" d="M -32.329545 262.653333 
L -26.439697 262.653333 
L -26.439697 259.923397 
L -32.329545 259.923397 
z
" style="fill:#43406b;opacity:0.6;stroke:#000000;stroke-linejoin:miter;stroke-width:0.5;"/>
   </g>
   <g id="patch_43">
    <path clip-path="url(#p7f3c82ff3e)" d="M -262.033636 262.653333 
L -256.143788 262.653333 
L -256.143788 262.653333 
L -262.033636 262.653333 
z
" style="fill:#d15a00;opacity:0.6;stroke:#000000;stroke-linejoin:miter;stroke-width:0.5;"/>
   </g>
   <g id="patch_44">
    <path clip-path="url(#p7f3c82ff3e)" d="M -256.143788 262.653333 
L -250.253939 262.653333 
L -250.253939 262.653333 
L -256.143788 262.653333 
z
" style="fill:#d15a00;opacity:0.6;stroke:#000000;stroke-linejoin:miter;stroke-width:0.5;"/>
   </g>
   <g id="patch_45">
    <path clip-path="url(#p7f3c82ff3e)" d="M -250.253939 262.653333 
L -244.364091 262.653333 
L -244.364091 262.653333 
L -250.253939 262.653333 
z
" style="fill:#d15a00;opacity:0.6;stroke:#000000;stroke-linejoin:miter;stroke-width:0.5;"/>
   </g>
   <g id="patch_46">
    <path clip-path="url(#p7f3c82ff3e)" d="M -244.364091 262.653333 
L -238.474242 262.653333 
L -238.474242 262.653333 
L -244.364091 262.653333 
z
" style="fill:#d15a00;opacity:0.6;stroke:#000000;stroke-linejoin:miter;stroke-width:0.5;"/>
   </g>
   <g id="patch_47">
    <path clip-path="url(#p7f3c82ff3e)" d="M -238.474242 262.653333 
L -232.584394 262.653333 
L -232.584394 262.653333 
L -238.474242 262.653333 
z
" style="fill:#d15a00;opacity:0.6;stroke:#000000;stroke-linejoin:miter;stroke-width:0.5;"/>
   </g>
   <g id="patch_48">
    <path clip-path="url(#p7f3c82ff3e)" d="M -232.584394 262.653333 
L -226.694545 262.653333 
L -226.694545 262.653333 
L -232.584394 262.653333 
z
" style="fill:#d15a00;opacity:0.6;stroke:#000000;stroke-linejoin:miter;stroke-width:0.5;"/>
   </g>
   <g id="patch_49">
    <path clip-path="url(#p7f3c82ff3e)" d="M -226.694545 262.653333 
L -220.804697 262.653333 
L -220.804697 262.653333 
L -226.694545 262.653333 
z
" style="fill:#d15a00;opacity:0.6;stroke:#000000;stroke-linejoin:miter;stroke-width:0.5;"/>
   </g>
   <g id="patch_50">
    <path clip-path="url(#p7f3c82ff3e)" d="M -220.804697 262.653333 
L -214.914848 262.653333 
L -214.914848 262.653333 
L -220.804697 262.653333 
z
" style="fill:#d15a00;opacity:0.6;stroke:#000000;stroke-linejoin:miter;stroke-width:0.5;"/>
   </g>
   <g id="patch_51">
    <path clip-path="url(#p7f3c82ff3e)" d="M -214.914848 262.653333 
L -209.025 262.653333 
L -209.025 262.653333 
L -214.914848 262.653333 
z
" style="fill:#d15a00;opacity:0.6;stroke:#000000;stroke-linejoin:miter;stroke-width:0.5;"/>
   </g>
   <g id="patch_52">
    <path clip-path="url(#p7f3c82ff3e)" d="M -209.025 262.653333 
L -203.135152 262.653333 
L -203.135152 262.653333 
L -209.025 262.653333 
z
" style="fill:#d15a00;opacity:0.6;stroke:#000000;stroke-linejoin:miter;stroke-width:0.5;"/>
   </g>
   <g id="patch_53">
    <path clip-path="url(#p7f3c82ff3e)" d="M -203.135152 262.653333 
L -197.245303 262.653333 
L -197.245303 262.653333 
L -203.135152 262.653333 
z
" style="fill:#d15a00;opacity:0.6;stroke:#000000;stroke-linejoin:miter;stroke-width:0.5;"/>
   </g>
   <g id="patch_54">
    <path clip-path="url(#p7f3c82ff3e)" d="M -197.245303 262.653333 
L -191.355455 262.653333 
L -191.355455 262.653333 
L -197.245303 262.653333 
z
" style="fill:#d15a00;opacity:0.6;stroke:#000000;stroke-linejoin:miter;stroke-width:0.5;"/>
   </g>
   <g id="patch_55">
    <path clip-path="url(#p7f3c82ff3e)" d="M -191.355455 262.653333 
L -185.465606 262.653333 
L -185.465606 262.653333 
L -191.355455 262.653333 
z
" style="fill:#d15a00;opacity:0.6;stroke:#000000;stroke-linejoin:miter;stroke-width:0.5;"/>
   </g>
   <g id="patch_56">
    <path clip-path="url(#p7f3c82ff3e)" d="M -185.465606 262.653333 
L -179.575758 262.653333 
L -179.575758 262.653333 
L -185.465606 262.653333 
z
" style="fill:#d15a00;opacity:0.6;stroke:#000000;stroke-linejoin:miter;stroke-width:0.5;"/>
   </g>
   <g id="patch_57">
    <path clip-path="url(#p7f3c82ff3e)" d="M -179.575758 262.653333 
L -173.685909 262.653333 
L -173.685909 262.653333 
L -179.575758 262.653333 
z
" style="fill:#d15a00;opacity:0.6;stroke:#000000;stroke-linejoin:miter;stroke-width:0.5;"/>
   </g>
   <g id="patch_58">
    <path clip-path="url(#p7f3c82ff3e)" d="M -173.685909 262.653333 
L -167.796061 262.653333 
L -167.796061 262.653333 
L -173.685909 262.653333 
z
" style="fill:#d15a00;opacity:0.6;stroke:#000000;stroke-linejoin:miter;stroke-width:0.5;"/>
   </g>
   <g id="patch_59">
    <path clip-path="url(#p7f3c82ff3e)" d="M -167.796061 262.653333 
L -161.906212 262.653333 
L -161.906212 262.653333 
L -167.796061 262.653333 
z
" style="fill:#d15a00;opacity:0.6;stroke:#000000;stroke-linejoin:miter;stroke-width:0.5;"/>
   </g>
   <g id="patch_60">
    <path clip-path="url(#p7f3c82ff3e)" d="M -161.906212 262.653333 
L -156.016364 262.653333 
L -156.016364 262.653333 
L -161.906212 262.653333 
z
" style="fill:#d15a00;opacity:0.6;stroke:#000000;stroke-linejoin:miter;stroke-width:0.5;"/>
   </g>
   <g id="patch_61">
    <path clip-path="url(#p7f3c82ff3e)" d="M -156.016364 262.653333 
L -150.126515 262.653333 
L -150.126515 262.653333 
L -156.016364 262.653333 
z
" style="fill:#d15a00;opacity:0.6;stroke:#000000;stroke-linejoin:miter;stroke-width:0.5;"/>
   </g>
   <g id="patch_62">
    <path clip-path="url(#p7f3c82ff3e)" d="M -150.126515 262.653333 
L -144.236667 262.653333 
L -144.236667 262.653333 
L -150.126515 262.653333 
z
" style="fill:#d15a00;opacity:0.6;stroke:#000000;stroke-linejoin:miter;stroke-width:0.5;"/>
   </g>
   <g id="patch_63">
    <path clip-path="url(#p7f3c82ff3e)" d="M -144.236667 262.653333 
L -138.346818 262.653333 
L -138.346818 262.653333 
L -144.236667 262.653333 
z
" style="fill:#d15a00;opacity:0.6;stroke:#000000;stroke-linejoin:miter;stroke-width:0.5;"/>
   </g>
   <g id="patch_64">
    <path clip-path="url(#p7f3c82ff3e)" d="M -138.346818 262.653333 
L -132.45697 262.653333 
L -132.45697 262.653333 
L -138.346818 262.653333 
z
" style="fill:#d15a00;opacity:0.6;stroke:#000000;stroke-linejoin:miter;stroke-width:0.5;"/>
   </g>
   <g id="patch_65">
    <path clip-path="url(#p7f3c82ff3e)" d="M -132.45697 262.653333 
L -126.567121 262.653333 
L -126.567121 262.653333 
L -132.45697 262.653333 
z
" style="fill:#d15a00;opacity:0.6;stroke:#000000;stroke-linejoin:miter;stroke-width:0.5;"/>
   </g>
   <g id="patch_66">
    <path clip-path="url(#p7f3c82ff3e)" d="M -126.567121 262.653333 
L -120.677273 262.653333 
L -120.677273 262.653333 
L -126.567121 262.653333 
z
" style="fill:#d15a00;opacity:0.6;stroke:#000000;stroke-linejoin:miter;stroke-width:0.5;"/>
   </g>
   <g id="patch_67">
    <path clip-path="url(#p7f3c82ff3e)" d="M -120.677273 262.653333 
L -114.787424 262.653333 
L -114.787424 262.653333 
L -120.677273 262.653333 
z
" style="fill:#d15a00;opacity:0.6;stroke:#000000;stroke-linejoin:miter;stroke-width:0.5;"/>
   </g>
   <g id="patch_68">
    <path clip-path="url(#p7f3c82ff3e)" d="M -114.787424 262.653333 
L -108.897576 262.653333 
L -108.897576 262.653333 
L -114.787424 262.653333 
z
" style="fill:#d15a00;opacity:0.6;stroke:#000000;stroke-linejoin:miter;stroke-width:0.5;"/>
   </g>
   <g id="patch_69">
    <path clip-path="url(#p7f3c82ff3e)" d="M -108.897576 262.653333 
L -103.007727 262.653333 
L -103.007727 262.653333 
L -108.897576 262.653333 
z
" style="fill:#d15a00;opacity:0.6;stroke:#000000;stroke-linejoin:miter;stroke-width:0.5;"/>
   </g>
   <g id="patch_70">
    <path clip-path="url(#p7f3c82ff3e)" d="M -103.007727 262.653333 
L -97.117879 262.653333 
L -97.117879 262.653333 
L -103.007727 262.653333 
z
" style="fill:#d15a00;opacity:0.6;stroke:#000000;stroke-linejoin:miter;stroke-width:0.5;"/>
   </g>
   <g id="patch_71">
    <path clip-path="url(#p7f3c82ff3e)" d="M -97.117879 262.653333 
L -91.22803 262.653333 
L -91.22803 262.653333 
L -97.117879 262.653333 
z
" style="fill:#d15a00;opacity:0.6;stroke:#000000;stroke-linejoin:miter;stroke-width:0.5;"/>
   </g>
   <g id="patch_72">
    <path clip-path="url(#p7f3c82ff3e)" d="M -91.22803 262.653333 
L -85.338182 262.653333 
L -85.338182 262.653333 
L -91.22803 262.653333 
z
" style="fill:#d15a00;opacity:0.6;stroke:#000000;stroke-linejoin:miter;stroke-width:0.5;"/>
   </g>
   <g id="patch_73">
    <path clip-path="url(#p7f3c82ff3e)" d="M -85.338182 262.653333 
L -79.448333 262.653333 
L -79.448333 262.653333 
L -85.338182 262.653333 
z
" style="fill:#d15a00;opacity:0.6;stroke:#000000;stroke-linejoin:miter;stroke-width:0.5;"/>
   </g>
   <g id="patch_74">
    <path clip-path="url(#p7f3c82ff3e)" d="M -79.448333 262.653333 
L -73.558485 262.653333 
L -73.558485 262.653333 
L -79.448333 262.653333 
z
" style="fill:#d15a00;opacity:0.6;stroke:#000000;stroke-linejoin:miter;stroke-width:0.5;"/>
   </g>
   <g id="patch_75">
    <path clip-path="url(#p7f3c82ff3e)" d="M -73.558485 262.653333 
L -67.668636 262.653333 
L -67.668636 262.653333 
L -73.558485 262.653333 
z
" style="fill:#d15a00;opacity:0.6;stroke:#000000;stroke-linejoin:miter;stroke-width:0.5;"/>
   </g>
   <g id="patch_76">
    <path clip-path="url(#p7f3c82ff3e)" d="M -67.668636 262.653333 
L -61.778788 262.653333 
L -61.778788 262.653333 
L -67.668636 262.653333 
z
" style="fill:#d15a00;opacity:0.6;stroke:#000000;stroke-linejoin:miter;stroke-width:0.5;"/>
   </g>
   <g id="patch_77">
    <path clip-path="url(#p7f3c82ff3e)" d="M -61.778788 262.653333 
L -55.888939 262.653333 
L -55.888939 262.653333 
L -61.778788 262.653333 
z
" style="fill:#d15a00;opacity:0.6;stroke:#000000;stroke-linejoin:miter;stroke-width:0.5;"/>
   </g>
   <g id="patch_78">
    <path clip-path="url(#p7f3c82ff3e)" d="M -55.888939 262.653333 
L -49.999091 262.653333 
L -49.999091 262.653333 
L -55.888939 262.653333 
z
" style="fill:#d15a00;opacity:0.6;stroke:#000000;stroke-linejoin:miter;stroke-width:0.5;"/>
   </g>
   <g id="patch_79">
    <path clip-path="url(#p7f3c82ff3e)" d="M -49.999091 262.653333 
L -44.109242 262.653333 
L -44.109242 261.980819 
L -49.999091 261.980819 
z
" style="fill:#d15a00;opacity:0.6;stroke:#000000;stroke-linejoin:miter;stroke-width:0.5;"/>
   </g>
   <g id="patch_80">
    <path clip-path="url(#p7f3c82ff3e)" d="M -44.109242 262.653333 
L -38.219394 262.653333 
L -38.219394 233.06271 
L -44.109242 233.06271 
z
" style="fill:#d15a00;opacity:0.6;stroke:#000000;stroke-linejoin:miter;stroke-width:0.5;"/>
   </g>
   <g id="patch_81">
    <path clip-path="url(#p7f3c82ff3e)" d="M -38.219394 262.653333 
L -32.329545 262.653333 
L -32.329545 15.840635 
L -38.219394 15.840635 
z
" style="fill:#d15a00;opacity:0.6;stroke:#000000;stroke-linejoin:miter;stroke-width:0.5;"/>
   </g>
   <g id="patch_82">
    <path clip-path="url(#p7f3c82ff3e)" d="M -32.329545 262.653333 
L -26.439697 262.653333 
L -26.439697 202.127059 
L -32.329545 202.127059 
z
" style="fill:#d15a00;opacity:0.6;stroke:#000000;stroke-linejoin:miter;stroke-width:0.5;"/>
   </g>
   <g id="matplotlib.axis_1">
    <g id="xtick_1">
     <g id="line2d_1">
      <defs>
       <path d="M 0 0 
L 0 3.5 
" id="m36299a078e" style="stroke:#000000;stroke-width:1.6;"/>
      </defs>
      <g/>
     </g>
     <g id="text_1">
      <!-- 0.0 -->
      <defs>
       <path d="M 31.78125 66.40625 
Q 24.171875 66.40625 20.328125 58.90625 
Q 16.5 51.421875 16.5 36.375 
Q 16.5 21.390625 20.328125 13.890625 
Q 24.171875 6.390625 31.78125 6.390625 
Q 39.453125 6.390625 43.28125 13.890625 
Q 47.125 21.390625 47.125 36.375 
Q 47.125 51.421875 43.28125 58.90625 
Q 39.453125 66.40625 31.78125 66.40625 
z
M 31.78125 74.21875 
Q 44.046875 74.21875 50.515625 64.515625 
Q 56.984375 54.828125 56.984375 36.375 
Q 56.984375 17.96875 50.515625 8.265625 
Q 44.046875 -1.421875 31.78125 -1.421875 
Q 19.53125 -1.421875 13.0625 8.265625 
Q 6.59375 17.96875 6.59375 36.375 
Q 6.59375 54.828125 13.0625 64.515625 
Q 19.53125 74.21875 31.78125 74.21875 
z
" id="DejaVuSans-48"/>
       <path d="M 10.6875 12.40625 
L 21 12.40625 
L 21 0 
L 10.6875 0 
z
" id="DejaVuSans-46"/>
      </defs>
      <g transform="translate(-277.936761 292.550208)scale(0.2 -0.2)">
       <use xlink:href="#DejaVuSans-48"/>
       <use x="63.623047" xlink:href="#DejaVuSans-46"/>
       <use x="95.410156" xlink:href="#DejaVuSans-48"/>
      </g>
     </g>
    </g>
    <g id="xtick_2">
     <g id="line2d_2">
      <g/>
     </g>
     <g id="text_2">
      <!-- 0.2 -->
      <defs>
       <path d="M 19.1875 8.296875 
L 53.609375 8.296875 
L 53.609375 0 
L 7.328125 0 
L 7.328125 8.296875 
Q 12.9375 14.109375 22.625 23.890625 
Q 32.328125 33.6875 34.8125 36.53125 
Q 39.546875 41.84375 41.421875 45.53125 
Q 43.3125 49.21875 43.3125 52.78125 
Q 43.3125 58.59375 39.234375 62.25 
Q 35.15625 65.921875 28.609375 65.921875 
Q 23.96875 65.921875 18.8125 64.3125 
Q 13.671875 62.703125 7.8125 59.421875 
L 7.8125 69.390625 
Q 13.765625 71.78125 18.9375 73 
Q 24.125 74.21875 28.421875 74.21875 
Q 39.75 74.21875 46.484375 68.546875 
Q 53.21875 62.890625 53.21875 53.421875 
Q 53.21875 48.921875 51.53125 44.890625 
Q 49.859375 40.875 45.40625 35.40625 
Q 44.1875 33.984375 37.640625 27.21875 
Q 31.109375 20.453125 19.1875 8.296875 
z
" id="DejaVuSans-50"/>
      </defs>
      <g transform="translate(-210.624207 292.550208)scale(0.2 -0.2)">
       <use xlink:href="#DejaVuSans-48"/>
       <use x="63.623047" xlink:href="#DejaVuSans-46"/>
       <use x="95.410156" xlink:href="#DejaVuSans-50"/>
      </g>
     </g>
    </g>
    <g id="xtick_3">
     <g id="line2d_3">
      <g/>
     </g>
     <g id="text_3">
      <!-- 0.4 -->
      <defs>
       <path d="M 37.796875 64.3125 
L 12.890625 25.390625 
L 37.796875 25.390625 
z
M 35.203125 72.90625 
L 47.609375 72.90625 
L 47.609375 25.390625 
L 58.015625 25.390625 
L 58.015625 17.1875 
L 47.609375 17.1875 
L 47.609375 0 
L 37.796875 0 
L 37.796875 17.1875 
L 4.890625 17.1875 
L 4.890625 26.703125 
z
" id="DejaVuSans-52"/>
      </defs>
      <g transform="translate(-143.311653 292.550208)scale(0.2 -0.2)">
       <use xlink:href="#DejaVuSans-48"/>
       <use x="63.623047" xlink:href="#DejaVuSans-46"/>
       <use x="95.410156" xlink:href="#DejaVuSans-52"/>
      </g>
     </g>
    </g>
    <g id="xtick_4">
     <g id="line2d_4">
      <g/>
     </g>
     <g id="text_4">
      <!-- 0.6 -->
      <defs>
       <path d="M 33.015625 40.375 
Q 26.375 40.375 22.484375 35.828125 
Q 18.609375 31.296875 18.609375 23.390625 
Q 18.609375 15.53125 22.484375 10.953125 
Q 26.375 6.390625 33.015625 6.390625 
Q 39.65625 6.390625 43.53125 10.953125 
Q 47.40625 15.53125 47.40625 23.390625 
Q 47.40625 31.296875 43.53125 35.828125 
Q 39.65625 40.375 33.015625 40.375 
z
M 52.59375 71.296875 
L 52.59375 62.3125 
Q 48.875 64.0625 45.09375 64.984375 
Q 41.3125 65.921875 37.59375 65.921875 
Q 27.828125 65.921875 22.671875 59.328125 
Q 17.53125 52.734375 16.796875 39.40625 
Q 19.671875 43.65625 24.015625 45.921875 
Q 28.375 48.1875 33.59375 48.1875 
Q 44.578125 48.1875 50.953125 41.515625 
Q 57.328125 34.859375 57.328125 23.390625 
Q 57.328125 12.15625 50.6875 5.359375 
Q 44.046875 -1.421875 33.015625 -1.421875 
Q 20.359375 -1.421875 13.671875 8.265625 
Q 6.984375 17.96875 6.984375 36.375 
Q 6.984375 53.65625 15.1875 63.9375 
Q 23.390625 74.21875 37.203125 74.21875 
Q 40.921875 74.21875 44.703125 73.484375 
Q 48.484375 72.75 52.59375 71.296875 
z
" id="DejaVuSans-54"/>
      </defs>
      <g transform="translate(-75.999099 292.550208)scale(0.2 -0.2)">
       <use xlink:href="#DejaVuSans-48"/>
       <use x="63.623047" xlink:href="#DejaVuSans-46"/>
       <use x="95.410156" xlink:href="#DejaVuSans-54"/>
      </g>
     </g>
    </g>
    <g id="text_5">
     <!--   -->
     <defs>
      <path id="DejaVuSans-32"/>
     </defs>
     <g transform="translate(-147.414792 315.906458)scale(0.2 -0.2)">
      <use xlink:href="#DejaVuSans-32"/>
     </g>
    </g>
   </g>
   <g id="matplotlib.axis_2">
    <g id="ytick_1">
     <g id="line2d_5">
      <defs>
       <path d="M 0 0 
L -3.5 0 
" id="m59204c7fb7" style="stroke:#000000;stroke-width:1.6;"/>
      </defs>
      <g/>
     </g>
     <g id="text_6">
      <!-- 0.0 -->
      <g transform="translate(-320.319583 270.251771)scale(0.2 -0.2)">
       <use xlink:href="#DejaVuSans-48"/>
       <use x="63.623047" xlink:href="#DejaVuSans-46"/>
       <use x="95.410156" xlink:href="#DejaVuSans-48"/>
      </g>
     </g>
    </g>
    <g id="ytick_2">
     <g id="line2d_6">
      <g/>
     </g>
     <g id="text_7">
      <!-- 0.2 -->
      <g transform="translate(-320.319583 202.731349)scale(0.2 -0.2)">
       <use xlink:href="#DejaVuSans-48"/>
       <use x="63.623047" xlink:href="#DejaVuSans-46"/>
       <use x="95.410156" xlink:href="#DejaVuSans-50"/>
      </g>
     </g>
    </g>
    <g id="ytick_3">
     <g id="line2d_7">
      <g/>
     </g>
     <g id="text_8">
      <!-- 0.4 -->
      <g transform="translate(-320.319583 135.210927)scale(0.2 -0.2)">
       <use xlink:href="#DejaVuSans-48"/>
       <use x="63.623047" xlink:href="#DejaVuSans-46"/>
       <use x="95.410156" xlink:href="#DejaVuSans-52"/>
      </g>
     </g>
    </g>
    <g id="ytick_4">
     <g id="line2d_8">
      <g/>
     </g>
     <g id="text_9">
      <!-- 0.6 -->
      <g transform="translate(-320.319583 67.690504)scale(0.2 -0.2)">
       <use xlink:href="#DejaVuSans-48"/>
       <use x="63.623047" xlink:href="#DejaVuSans-46"/>
       <use x="95.410156" xlink:href="#DejaVuSans-54"/>
      </g>
     </g>
    </g>
    <g id="text_10">
     <!--   -->
     <g transform="translate(-327.979833 135.873417)rotate(-90)scale(0.176 -0.176)">
      <use xlink:href="#DejaVuSans-32"/>
     </g>
    </g>
   </g>
   <g id="patch_83">
    <path style="fill:none;stroke:#000000;stroke-linecap:square;stroke-linejoin:miter;stroke-width:0.8;"/>
   </g>
   <g id="patch_84">
    <path style="fill:none;stroke:#000000;stroke-linecap:square;stroke-linejoin:miter;stroke-width:0.8;"/>
   </g>
  </g>
  <g id="axes_2">
   <g id="patch_85">
    <path d="M 96.7 262.653333 
L 355.853333 262.653333 
L 355.853333 3.5 
L 96.7 3.5 
z
" style="fill:#ffffff;"/>
   </g>
   <g id="PolyCollection_1">
    <defs>
     <path d="M 309.269712 -300.388645 
L 309.269712 -300.445022 
L 309.709794 -300.450778 
L 310.149876 -300.457172 
L 310.589959 -300.46425 
L 311.030041 -300.472075 
L 311.470123 -300.480725 
L 311.910205 -300.490294 
L 312.350287 -300.500879 
L 312.79037 -300.512579 
L 313.230452 -300.525478 
L 313.670534 -300.539648 
L 314.110616 -300.555154 
L 314.550698 -300.572077 
L 314.99078 -300.590549 
L 315.430863 -300.610776 
L 315.870945 -300.633068 
L 316.311027 -300.657847 
L 316.751109 -300.685639 
L 317.191191 -300.717052 
L 317.631273 -300.752733 
L 318.071356 -300.793308 
L 318.511438 -300.8393 
L 318.95152 -300.891041 
L 319.391602 -300.948592 
L 319.831684 -301.011704 
L 320.271767 -301.079817 
L 320.711849 -301.15213 
L 321.151931 -301.227706 
L 321.592013 -301.305592 
L 322.032095 -301.384936 
L 322.472177 -301.465061 
L 322.91226 -301.545499 
L 323.352342 -301.625971 
L 323.792424 -301.706352 
L 324.232506 -301.786612 
L 324.672588 -301.866764 
L 325.112671 -301.946826 
L 325.552753 -302.026796 
L 325.992835 -302.106613 
L 326.432917 -302.186104 
L 326.872999 -302.26489 
L 327.313081 -302.342274 
L 327.753164 -302.417166 
L 328.193246 -302.488075 
L 328.633328 -302.553244 
L 329.07341 -302.610902 
L 329.513492 -302.659599 
L 329.953575 -302.698513 
L 330.393657 -302.727637 
L 330.833739 -302.747772 
L 331.273821 -302.760347 
L 331.713903 -302.767106 
L 332.153985 -302.769792 
L 332.594068 -302.769874 
L 333.03415 -302.768374 
L 333.474232 -302.76577 
L 333.914314 -302.761923 
L 334.354396 -302.756014 
L 334.794479 -302.746502 
L 335.234561 -302.731185 
L 335.674643 -302.707428 
L 336.114725 -302.6726 
L 336.554807 -302.624668 
L 336.994889 -302.562818 
L 337.434972 -302.487918 
L 337.875054 -302.402656 
L 338.315136 -302.311281 
L 338.755218 -302.21896 
L 339.1953 -302.130919 
L 339.635382 -302.051541 
L 340.075465 -301.983638 
L 340.515547 -301.928048 
L 340.955629 -301.883628 
L 341.395711 -301.847633 
L 341.835793 -301.81638 
L 342.275876 -301.786057 
L 342.715958 -301.753461 
L 343.15604 -301.71652 
L 343.596122 -301.674432 
L 344.036204 -301.627445 
L 344.476286 -301.57634 
L 344.916369 -301.521855 
L 345.356451 -301.464233 
L 345.796533 -301.403093 
L 346.236615 -301.337651 
L 346.676697 -301.267187 
L 347.11678 -301.19157 
L 347.556862 -301.111627 
L 347.996944 -301.02921 
L 348.437026 -300.946945 
L 348.877108 -300.867758 
L 349.31719 -300.794333 
L 349.757273 -300.728672 
L 350.197355 -300.671856 
L 350.637437 -300.624028 
L 351.077519 -300.584575 
L 351.517601 -300.552402 
L 351.957684 -300.52622 
L 352.397766 -300.50479 
L 352.837848 -300.487073 
L 352.837848 -300.346594 
L 352.837848 -300.346594 
L 352.397766 -300.328877 
L 351.957684 -300.307447 
L 351.517601 -300.281265 
L 351.077519 -300.249091 
L 350.637437 -300.209639 
L 350.197355 -300.161811 
L 349.757273 -300.104994 
L 349.31719 -300.039334 
L 348.877108 -299.965909 
L 348.437026 -299.886722 
L 347.996944 -299.804457 
L 347.556862 -299.722039 
L 347.11678 -299.642097 
L 346.676697 -299.56648 
L 346.236615 -299.496016 
L 345.796533 -299.430574 
L 345.356451 -299.369434 
L 344.916369 -299.311812 
L 344.476286 -299.257326 
L 344.036204 -299.206222 
L 343.596122 -299.159234 
L 343.15604 -299.117147 
L 342.715958 -299.080205 
L 342.275876 -299.04761 
L 341.835793 -299.017286 
L 341.395711 -298.986034 
L 340.955629 -298.950039 
L 340.515547 -298.905619 
L 340.075465 -298.850029 
L 339.635382 -298.782126 
L 339.1953 -298.702747 
L 338.755218 -298.614706 
L 338.315136 -298.522386 
L 337.875054 -298.43101 
L 337.434972 -298.345749 
L 336.994889 -298.270849 
L 336.554807 -298.208999 
L 336.114725 -298.161066 
L 335.674643 -298.126238 
L 335.234561 -298.102482 
L 334.794479 -298.087165 
L 334.354396 -298.077653 
L 333.914314 -298.071743 
L 333.474232 -298.067897 
L 333.03415 -298.065293 
L 332.594068 -298.063793 
L 332.153985 -298.063874 
L 331.713903 -298.06656 
L 331.273821 -298.07332 
L 330.833739 -298.085894 
L 330.393657 -298.10603 
L 329.953575 -298.135154 
L 329.513492 -298.174068 
L 329.07341 -298.222765 
L 328.633328 -298.280423 
L 328.193246 -298.345591 
L 327.753164 -298.416501 
L 327.313081 -298.491392 
L 326.872999 -298.568777 
L 326.432917 -298.647562 
L 325.992835 -298.727054 
L 325.552753 -298.806871 
L 325.112671 -298.886841 
L 324.672588 -298.966903 
L 324.232506 -299.047054 
L 323.792424 -299.127314 
L 323.352342 -299.207696 
L 322.91226 -299.288168 
L 322.472177 -299.368605 
L 322.032095 -299.448731 
L 321.592013 -299.528075 
L 321.151931 -299.605961 
L 320.711849 -299.681536 
L 320.271767 -299.75385 
L 319.831684 -299.821963 
L 319.391602 -299.885074 
L 318.95152 -299.942626 
L 318.511438 -299.994367 
L 318.071356 -300.040359 
L 317.631273 -300.080934 
L 317.191191 -300.116615 
L 316.751109 -300.148027 
L 316.311027 -300.175819 
L 315.870945 -300.200599 
L 315.430863 -300.222891 
L 314.99078 -300.243118 
L 314.550698 -300.261589 
L 314.110616 -300.278513 
L 313.670534 -300.294019 
L 313.230452 -300.308188 
L 312.79037 -300.321088 
L 312.350287 -300.332787 
L 311.910205 -300.343373 
L 311.470123 -300.352941 
L 311.030041 -300.361592 
L 310.589959 -300.369417 
L 310.149876 -300.376495 
L 309.709794 -300.382888 
L 309.269712 -300.388645 
z
" id="mdd6efbcbac" style="stroke:#333333;"/>
    </defs>
    <g clip-path="url(#pdc95217c98)">
     <use style="fill:#484566;stroke:#333333;" x="0" xlink:href="#mdd6efbcbac" y="323.353333"/>
    </g>
   </g>
   <g id="PolyCollection_2">
    <defs>
     <path d="M 340.505245 -274.266099 
L 340.505245 -274.736901 
L 340.625809 -274.776448 
L 340.746372 -274.814852 
L 340.866936 -274.850278 
L 340.987499 -274.880899 
L 341.108063 -274.905047 
L 341.228627 -274.921394 
L 341.34919 -274.929116 
L 341.469754 -274.928026 
L 341.590317 -274.918629 
L 341.710881 -274.902095 
L 341.831444 -274.880143 
L 341.952008 -274.854855 
L 342.072571 -274.828454 
L 342.193135 -274.80309 
L 342.313698 -274.780656 
L 342.434262 -274.762674 
L 342.554825 -274.750248 
L 342.675389 -274.744096 
L 342.795953 -274.744639 
L 342.916516 -274.752128 
L 343.03708 -274.766813 
L 343.157643 -274.789098 
L 343.278207 -274.819672 
L 343.39877 -274.859552 
L 343.519334 -274.910003 
L 343.639897 -274.972309 
L 343.760461 -275.047429 
L 343.881024 -275.135641 
L 344.001588 -275.236309 
L 344.122151 -275.347911 
L 344.242715 -275.468359 
L 344.363279 -275.59554 
L 344.483842 -275.72787 
L 344.604406 -275.864628 
L 344.724969 -276.005899 
L 344.845533 -276.152144 
L 344.966096 -276.30355 
L 345.08666 -276.459472 
L 345.207223 -276.618234 
L 345.327787 -276.777452 
L 345.44835 -276.934824 
L 345.568914 -277.089196 
L 345.689477 -277.241555 
L 345.810041 -277.395653 
L 345.930605 -277.558014 
L 346.051168 -277.73726 
L 346.171732 -277.942856 
L 346.292295 -278.183538 
L 346.412859 -278.465796 
L 346.533422 -278.792764 
L 346.653986 -279.163822 
L 346.774549 -279.575018 
L 346.895113 -280.020226 
L 347.015676 -280.492756 
L 347.13624 -280.986994 
L 347.256803 -281.499602 
L 347.377367 -282.029891 
L 347.497931 -282.579139 
L 347.618494 -283.148938 
L 347.739058 -283.738873 
L 347.859621 -284.344133 
L 347.980185 -284.953687 
L 348.100748 -285.549646 
L 348.221312 -286.108148 
L 348.341875 -286.601769 
L 348.462439 -287.003081 
L 348.583002 -287.288649 
L 348.703566 -287.442629 
L 348.824129 -287.459167 
L 348.944693 -287.343057 
L 349.065256 -287.10852 
L 349.18582 -286.77635 
L 349.306384 -286.370096 
L 349.426947 -285.912091 
L 349.547511 -285.420206 
L 349.668074 -284.905982 
L 349.788638 -284.374472 
L 349.909201 -283.825669 
L 350.029765 -283.257025 
L 350.150328 -282.666302 
L 350.270892 -282.05395 
L 350.391455 -281.424418 
L 350.512019 -280.786156 
L 350.632582 -280.150459 
L 350.753146 -279.52963 
L 350.87371 -278.935059 
L 350.994273 -278.375752 
L 351.114837 -277.857632 
L 351.2354 -277.38365 
L 351.355964 -276.954476 
L 351.476527 -276.569437 
L 351.597091 -276.227319 
L 351.717654 -275.926802 
L 351.838218 -275.666478 
L 351.958781 -275.444568 
L 352.079345 -275.258579 
L 352.199908 -275.105132 
L 352.320472 -274.980072 
L 352.441036 -274.87884 
L 352.441036 -274.12416 
L 352.441036 -274.12416 
L 352.320472 -274.022928 
L 352.199908 -273.897868 
L 352.079345 -273.744421 
L 351.958781 -273.558432 
L 351.838218 -273.336522 
L 351.717654 -273.076198 
L 351.597091 -272.775681 
L 351.476527 -272.433563 
L 351.355964 -272.048524 
L 351.2354 -271.61935 
L 351.114837 -271.145368 
L 350.994273 -270.627248 
L 350.87371 -270.067941 
L 350.753146 -269.47337 
L 350.632582 -268.852541 
L 350.512019 -268.216844 
L 350.391455 -267.578582 
L 350.270892 -266.94905 
L 350.150328 -266.336698 
L 350.029765 -265.745975 
L 349.909201 -265.177331 
L 349.788638 -264.628528 
L 349.668074 -264.097018 
L 349.547511 -263.582794 
L 349.426947 -263.090909 
L 349.306384 -262.632904 
L 349.18582 -262.22665 
L 349.065256 -261.89448 
L 348.944693 -261.659943 
L 348.824129 -261.543833 
L 348.703566 -261.560371 
L 348.583002 -261.714351 
L 348.462439 -261.999919 
L 348.341875 -262.401231 
L 348.221312 -262.894852 
L 348.100748 -263.453354 
L 347.980185 -264.049313 
L 347.859621 -264.658867 
L 347.739058 -265.264127 
L 347.618494 -265.854062 
L 347.497931 -266.423861 
L 347.377367 -266.973109 
L 347.256803 -267.503398 
L 347.13624 -268.016006 
L 347.015676 -268.510244 
L 346.895113 -268.982774 
L 346.774549 -269.427982 
L 346.653986 -269.839178 
L 346.533422 -270.210236 
L 346.412859 -270.537204 
L 346.292295 -270.819462 
L 346.171732 -271.060144 
L 346.051168 -271.26574 
L 345.930605 -271.444986 
L 345.810041 -271.607347 
L 345.689477 -271.761445 
L 345.568914 -271.913804 
L 345.44835 -272.068176 
L 345.327787 -272.225548 
L 345.207223 -272.384766 
L 345.08666 -272.543528 
L 344.966096 -272.69945 
L 344.845533 -272.850856 
L 344.724969 -272.997101 
L 344.604406 -273.138372 
L 344.483842 -273.27513 
L 344.363279 -273.40746 
L 344.242715 -273.534641 
L 344.122151 -273.655089 
L 344.001588 -273.766691 
L 343.881024 -273.867359 
L 343.760461 -273.955571 
L 343.639897 -274.030691 
L 343.519334 -274.092997 
L 343.39877 -274.143448 
L 343.278207 -274.183328 
L 343.157643 -274.213902 
L 343.03708 -274.236187 
L 342.916516 -274.250872 
L 342.795953 -274.258361 
L 342.675389 -274.258904 
L 342.554825 -274.252752 
L 342.434262 -274.240326 
L 342.313698 -274.222344 
L 342.193135 -274.19991 
L 342.072571 -274.174546 
L 341.952008 -274.148145 
L 341.831444 -274.122857 
L 341.710881 -274.100905 
L 341.590317 -274.084371 
L 341.469754 -274.074974 
L 341.34919 -274.073884 
L 341.228627 -274.081606 
L 341.108063 -274.097953 
L 340.987499 -274.122101 
L 340.866936 -274.152722 
L 340.746372 -274.188148 
L 340.625809 -274.226552 
L 340.505245 -274.266099 
z
" id="mf047b1003e" style="stroke:#333333;"/>
    </defs>
    <g clip-path="url(#pdc95217c98)">
     <use style="fill:#b75e1a;stroke:#333333;" x="0" xlink:href="#mf047b1003e" y="323.353333"/>
    </g>
   </g>
   <g id="PolyCollection_3">
    <defs>
     <path d="M 310.671865 -235.534129 
L 310.671865 -235.722871 
L 311.092752 -235.725377 
L 311.513639 -235.726619 
L 311.934525 -235.727521 
L 312.355412 -235.729274 
L 312.776299 -235.733198 
L 313.197186 -235.740577 
L 313.618073 -235.752495 
L 314.038959 -235.769708 
L 314.459846 -235.792549 
L 314.880733 -235.820882 
L 315.30162 -235.854105 
L 315.722507 -235.891199 
L 316.143393 -235.930812 
L 316.56428 -235.971382 
L 316.985167 -236.011284 
L 317.406054 -236.049003 
L 317.826941 -236.083316 
L 318.247828 -236.11345 
L 318.668714 -236.139228 
L 319.089601 -236.161149 
L 319.510488 -236.180411 
L 319.931375 -236.198864 
L 320.352262 -236.218895 
L 320.773148 -236.243247 
L 321.194035 -236.274798 
L 321.614922 -236.316291 
L 322.035809 -236.370055 
L 322.456696 -236.437738 
L 322.877582 -236.520085 
L 323.298469 -236.616813 
L 323.719356 -236.726605 
L 324.140243 -236.84726 
L 324.56113 -236.975977 
L 324.982016 -237.109738 
L 325.402903 -237.245715 
L 325.82379 -237.381634 
L 326.244677 -237.51601 
L 326.665564 -237.648226 
L 327.08645 -237.778453 
L 327.507337 -237.907445 
L 327.928224 -238.036289 
L 328.349111 -238.166169 
L 328.769998 -238.298234 
L 329.190885 -238.433579 
L 329.611771 -238.573357 
L 330.032658 -238.718969 
L 330.453545 -238.872249 
L 330.874432 -239.035582 
L 331.295319 -239.21187 
L 331.716205 -239.40433 
L 332.137092 -239.61612 
L 332.557979 -239.849884 
L 332.978866 -240.107269 
L 333.399753 -240.388531 
L 333.820639 -240.692262 
L 334.241526 -241.01527 
L 334.662413 -241.352587 
L 335.0833 -241.697581 
L 335.504187 -242.04213 
L 335.925073 -242.376879 
L 336.34596 -242.691614 
L 336.766847 -242.975792 
L 337.187734 -243.219239 
L 337.608621 -243.412988 
L 338.029507 -243.550108 
L 338.450394 -243.62638 
L 338.871281 -243.640617 
L 339.292168 -243.594525 
L 339.713055 -243.492092 
L 340.133942 -243.338662 
L 340.554828 -243.139894 
L 340.975715 -242.900927 
L 341.396602 -242.62595 
L 341.817489 -242.318282 
L 342.238376 -241.980911 
L 342.659262 -241.61726 
L 343.080149 -241.231906 
L 343.501036 -240.83098 
L 343.921923 -240.422079 
L 344.34281 -240.013694 
L 344.763696 -239.614305 
L 345.184583 -239.2314 
L 345.60547 -238.870669 
L 346.026357 -238.535588 
L 346.447244 -238.227441 
L 346.86813 -237.945737 
L 347.289017 -237.688853 
L 347.709904 -237.454702 
L 348.130791 -237.241274 
L 348.551678 -237.046934 
L 348.972564 -236.870483 
L 349.393451 -236.711029 
L 349.814338 -236.567782 
L 350.235225 -236.439856 
L 350.656112 -236.326168 
L 351.076999 -236.225429 
L 351.497885 -236.136243 
L 351.918772 -236.05724 
L 352.339659 -235.987214 
L 352.339659 -235.269786 
L 352.339659 -235.269786 
L 351.918772 -235.19976 
L 351.497885 -235.120757 
L 351.076999 -235.031571 
L 350.656112 -234.930832 
L 350.235225 -234.817144 
L 349.814338 -234.689218 
L 349.393451 -234.545971 
L 348.972564 -234.386517 
L 348.551678 -234.210066 
L 348.130791 -234.015726 
L 347.709904 -233.802298 
L 347.289017 -233.568147 
L 346.86813 -233.311263 
L 346.447244 -233.029559 
L 346.026357 -232.721412 
L 345.60547 -232.386331 
L 345.184583 -232.0256 
L 344.763696 -231.642695 
L 344.34281 -231.243306 
L 343.921923 -230.834921 
L 343.501036 -230.42602 
L 343.080149 -230.025094 
L 342.659262 -229.63974 
L 342.238376 -229.276089 
L 341.817489 -228.938718 
L 341.396602 -228.63105 
L 340.975715 -228.356073 
L 340.554828 -228.117106 
L 340.133942 -227.918338 
L 339.713055 -227.764908 
L 339.292168 -227.662475 
L 338.871281 -227.616383 
L 338.450394 -227.63062 
L 338.029507 -227.706892 
L 337.608621 -227.844012 
L 337.187734 -228.037761 
L 336.766847 -228.281208 
L 336.34596 -228.565386 
L 335.925073 -228.880121 
L 335.504187 -229.21487 
L 335.0833 -229.559419 
L 334.662413 -229.904413 
L 334.241526 -230.24173 
L 333.820639 -230.564738 
L 333.399753 -230.868469 
L 332.978866 -231.149731 
L 332.557979 -231.407116 
L 332.137092 -231.64088 
L 331.716205 -231.85267 
L 331.295319 -232.04513 
L 330.874432 -232.221418 
L 330.453545 -232.384751 
L 330.032658 -232.538031 
L 329.611771 -232.683643 
L 329.190885 -232.823421 
L 328.769998 -232.958766 
L 328.349111 -233.090831 
L 327.928224 -233.220711 
L 327.507337 -233.349555 
L 327.08645 -233.478547 
L 326.665564 -233.608774 
L 326.244677 -233.74099 
L 325.82379 -233.875366 
L 325.402903 -234.011285 
L 324.982016 -234.147262 
L 324.56113 -234.281023 
L 324.140243 -234.40974 
L 323.719356 -234.530395 
L 323.298469 -234.640187 
L 322.877582 -234.736915 
L 322.456696 -234.819262 
L 322.035809 -234.886945 
L 321.614922 -234.940709 
L 321.194035 -234.982202 
L 320.773148 -235.013753 
L 320.352262 -235.038105 
L 319.931375 -235.058136 
L 319.510488 -235.076589 
L 319.089601 -235.095851 
L 318.668714 -235.117772 
L 318.247828 -235.14355 
L 317.826941 -235.173684 
L 317.406054 -235.207997 
L 316.985167 -235.245716 
L 316.56428 -235.285618 
L 316.143393 -235.326188 
L 315.722507 -235.365801 
L 315.30162 -235.402895 
L 314.880733 -235.436118 
L 314.459846 -235.464451 
L 314.038959 -235.487292 
L 313.618073 -235.504505 
L 313.197186 -235.516423 
L 312.776299 -235.523802 
L 312.355412 -235.527726 
L 311.934525 -235.529479 
L 311.513639 -235.530381 
L 311.092752 -235.531623 
L 310.671865 -235.534129 
z
" id="ma0949a3932" style="stroke:#333333;"/>
    </defs>
    <g clip-path="url(#pdc95217c98)">
     <use style="fill:#484566;stroke:#333333;" x="0" xlink:href="#ma0949a3932" y="323.353333"/>
    </g>
   </g>
   <g id="PolyCollection_4">
    <defs>
     <path d="M 339.254582 -204.39143 
L 339.254582 -215.034903 
L 339.370416 -215.390908 
L 339.48625 -215.750318 
L 339.602084 -216.111757 
L 339.717919 -216.473806 
L 339.833753 -216.83499 
L 339.949587 -217.193766 
L 340.065421 -217.548507 
L 340.181255 -217.897498 
L 340.297089 -218.23893 
L 340.412923 -218.570904 
L 340.528757 -218.891446 
L 340.644591 -219.198527 
L 340.760425 -219.490097 
L 340.876259 -219.764124 
L 340.992093 -220.018647 
L 341.107927 -220.25183 
L 341.223761 -220.462023 
L 341.339595 -220.647826 
L 341.45543 -220.808152 
L 341.571264 -220.94228 
L 341.687098 -221.049915 
L 341.802932 -221.131223 
L 341.918766 -221.186864 
L 342.0346 -221.218011 
L 342.150434 -221.226344 
L 342.266268 -221.214038 
L 342.382102 -221.183731 
L 342.497936 -221.138469 
L 342.61377 -221.081646 
L 342.729604 -221.016919 
L 342.845438 -220.948117 
L 342.961272 -220.87914 
L 343.077107 -220.813852 
L 343.192941 -220.755967 
L 343.308775 -220.708942 
L 343.424609 -220.675874 
L 343.540443 -220.659399 
L 343.656277 -220.661613 
L 343.772111 -220.684 
L 343.887945 -220.727382 
L 344.003779 -220.791887 
L 344.119613 -220.87694 
L 344.235447 -220.981273 
L 344.351281 -221.102955 
L 344.467115 -221.239447 
L 344.582949 -221.38767 
L 344.698783 -221.54409 
L 344.814618 -221.70482 
L 344.930452 -221.865723 
L 345.046286 -222.022531 
L 345.16212 -222.170957 
L 345.277954 -222.306813 
L 345.393788 -222.426117 
L 345.509622 -222.525198 
L 345.625456 -222.600784 
L 345.74129 -222.650081 
L 345.857124 -222.670833 
L 345.972958 -222.661371 
L 346.088792 -222.620634 
L 346.204626 -222.548185 
L 346.32046 -222.444198 
L 346.436295 -222.309433 
L 346.552129 -222.145199 
L 346.667963 -221.953294 
L 346.783797 -221.735942 
L 346.899631 -221.495714 
L 347.015465 -221.235447 
L 347.131299 -220.958161 
L 347.247133 -220.666964 
L 347.362967 -220.364974 
L 347.478801 -220.055235 
L 347.594635 -219.740644 
L 347.710469 -219.423887 
L 347.826303 -219.107385 
L 347.942137 -218.793254 
L 348.057971 -218.483274 
L 348.173806 -218.178876 
L 348.28964 -217.881135 
L 348.405474 -217.590782 
L 348.521308 -217.308222 
L 348.637142 -217.03356 
L 348.752976 -216.76664 
L 348.86881 -216.507082 
L 348.984644 -216.254333 
L 349.100478 -216.007705 
L 349.216312 -215.76643 
L 349.332146 -215.529701 
L 349.44798 -215.296714 
L 349.563814 -215.066709 
L 349.679648 -214.839002 
L 349.795483 -214.613016 
L 349.911317 -214.388298 
L 350.027151 -214.164544 
L 350.142985 -213.941601 
L 350.258819 -213.719476 
L 350.374653 -213.498334 
L 350.490487 -213.278489 
L 350.606321 -213.060393 
L 350.722155 -212.844623 
L 350.722155 -206.581711 
L 350.722155 -206.581711 
L 350.606321 -206.36594 
L 350.490487 -206.147845 
L 350.374653 -205.927999 
L 350.258819 -205.706857 
L 350.142985 -205.484732 
L 350.027151 -205.261789 
L 349.911317 -205.038035 
L 349.795483 -204.813318 
L 349.679648 -204.587331 
L 349.563814 -204.359625 
L 349.44798 -204.12962 
L 349.332146 -203.896633 
L 349.216312 -203.659903 
L 349.100478 -203.418628 
L 348.984644 -203.172001 
L 348.86881 -202.919251 
L 348.752976 -202.659694 
L 348.637142 -202.392773 
L 348.521308 -202.118111 
L 348.405474 -201.835551 
L 348.28964 -201.545199 
L 348.173806 -201.247458 
L 348.057971 -200.94306 
L 347.942137 -200.63308 
L 347.826303 -200.318949 
L 347.710469 -200.002447 
L 347.594635 -199.685689 
L 347.478801 -199.371098 
L 347.362967 -199.061359 
L 347.247133 -198.759369 
L 347.131299 -198.468172 
L 347.015465 -198.190886 
L 346.899631 -197.93062 
L 346.783797 -197.690391 
L 346.667963 -197.473039 
L 346.552129 -197.281134 
L 346.436295 -197.1169 
L 346.32046 -196.982135 
L 346.204626 -196.878148 
L 346.088792 -196.805699 
L 345.972958 -196.764962 
L 345.857124 -196.7555 
L 345.74129 -196.776253 
L 345.625456 -196.825549 
L 345.509622 -196.901135 
L 345.393788 -197.000216 
L 345.277954 -197.11952 
L 345.16212 -197.255376 
L 345.046286 -197.403802 
L 344.930452 -197.56061 
L 344.814618 -197.721513 
L 344.698783 -197.882243 
L 344.582949 -198.038664 
L 344.467115 -198.186887 
L 344.351281 -198.323379 
L 344.235447 -198.445061 
L 344.119613 -198.549393 
L 344.003779 -198.634447 
L 343.887945 -198.698952 
L 343.772111 -198.742333 
L 343.656277 -198.76472 
L 343.540443 -198.766934 
L 343.424609 -198.750459 
L 343.308775 -198.717391 
L 343.192941 -198.670367 
L 343.077107 -198.612482 
L 342.961272 -198.547193 
L 342.845438 -198.478217 
L 342.729604 -198.409415 
L 342.61377 -198.344687 
L 342.497936 -198.287864 
L 342.382102 -198.242603 
L 342.266268 -198.212295 
L 342.150434 -198.19999 
L 342.0346 -198.208322 
L 341.918766 -198.239469 
L 341.802932 -198.295111 
L 341.687098 -198.376419 
L 341.571264 -198.484053 
L 341.45543 -198.618182 
L 341.339595 -198.778507 
L 341.223761 -198.96431 
L 341.107927 -199.174503 
L 340.992093 -199.407686 
L 340.876259 -199.66221 
L 340.760425 -199.936237 
L 340.644591 -200.227806 
L 340.528757 -200.534887 
L 340.412923 -200.855429 
L 340.297089 -201.187404 
L 340.181255 -201.528835 
L 340.065421 -201.877826 
L 339.949587 -202.232568 
L 339.833753 -202.591343 
L 339.717919 -202.952528 
L 339.602084 -203.314577 
L 339.48625 -203.676015 
L 339.370416 -204.035425 
L 339.254582 -204.39143 
z
" id="mf5da5aca6c" style="stroke:#333333;"/>
    </defs>
    <g clip-path="url(#pdc95217c98)">
     <use style="fill:#b75e1a;stroke:#333333;" x="0" xlink:href="#mf5da5aca6c" y="323.353333"/>
    </g>
   </g>
   <g id="PolyCollection_5">
    <defs>
     <path d="M 328.338946 -169.36498 
L 328.338946 -172.315353 
L 328.506363 -172.353177 
L 328.67378 -172.389122 
L 328.841196 -172.423194 
L 329.008613 -172.455434 
L 329.176029 -172.485919 
L 329.343446 -172.514757 
L 329.510863 -172.542096 
L 329.678279 -172.568117 
L 329.845696 -172.593038 
L 330.013112 -172.617114 
L 330.180529 -172.640633 
L 330.347946 -172.663921 
L 330.515362 -172.687338 
L 330.682779 -172.711278 
L 330.850196 -172.736168 
L 331.017612 -172.762463 
L 331.185029 -172.790652 
L 331.352445 -172.821245 
L 331.519862 -172.854778 
L 331.687279 -172.891804 
L 331.854695 -172.932891 
L 332.022112 -172.978613 
L 332.189528 -173.029545 
L 332.356945 -173.086257 
L 332.524362 -173.149303 
L 332.691778 -173.219214 
L 332.859195 -173.296486 
L 333.026612 -173.381571 
L 333.194028 -173.474868 
L 333.361445 -173.576707 
L 333.528861 -173.687346 
L 333.696278 -173.806952 
L 333.863695 -173.935598 
L 334.031111 -174.073253 
L 334.198528 -174.219771 
L 334.365944 -174.374888 
L 334.533361 -174.538216 
L 334.700778 -174.709243 
L 334.868194 -174.887329 
L 335.035611 -175.071709 
L 335.203028 -175.2615 
L 335.370444 -175.455701 
L 335.537861 -175.653209 
L 335.705277 -175.852825 
L 335.872694 -176.053267 
L 336.040111 -176.253187 
L 336.207527 -176.451187 
L 336.374944 -176.645834 
L 336.54236 -176.83568 
L 336.709777 -177.019282 
L 336.877194 -177.19522 
L 337.04461 -177.362115 
L 337.212027 -177.51865 
L 337.379443 -177.663586 
L 337.54686 -177.795777 
L 337.714277 -177.914187 
L 337.881693 -178.017902 
L 338.04911 -178.106139 
L 338.216527 -178.178258 
L 338.383943 -178.233765 
L 338.55136 -178.272319 
L 338.718776 -178.293732 
L 338.886193 -178.297966 
L 339.05361 -178.285135 
L 339.221026 -178.255497 
L 339.388443 -178.209447 
L 339.555859 -178.147508 
L 339.723276 -178.070325 
L 339.890693 -177.978645 
L 340.058109 -177.873315 
L 340.225526 -177.75526 
L 340.392943 -177.625474 
L 340.560359 -177.485002 
L 340.727776 -177.334933 
L 340.895192 -177.176376 
L 341.062609 -177.010454 
L 341.230026 -176.838288 
L 341.397442 -176.660984 
L 341.564859 -176.479623 
L 341.732275 -176.29525 
L 341.899692 -176.108863 
L 342.067109 -175.921405 
L 342.234525 -175.73376 
L 342.401942 -175.546744 
L 342.569359 -175.361102 
L 342.736775 -175.177504 
L 342.904192 -174.996545 
L 343.071608 -174.818743 
L 343.239025 -174.644542 
L 343.406442 -174.47431 
L 343.573858 -174.308346 
L 343.741275 -174.146882 
L 343.908691 -173.990089 
L 344.076108 -173.83808 
L 344.243525 -173.690918 
L 344.410941 -173.548621 
L 344.578358 -173.411171 
L 344.745774 -173.278516 
L 344.913191 -173.150579 
L 344.913191 -168.529755 
L 344.913191 -168.529755 
L 344.745774 -168.401817 
L 344.578358 -168.269162 
L 344.410941 -168.131712 
L 344.243525 -167.989416 
L 344.076108 -167.842254 
L 343.908691 -167.690245 
L 343.741275 -167.533451 
L 343.573858 -167.371988 
L 343.406442 -167.206024 
L 343.239025 -167.035791 
L 343.071608 -166.86159 
L 342.904192 -166.683788 
L 342.736775 -166.502829 
L 342.569359 -166.319231 
L 342.401942 -166.133589 
L 342.234525 -165.946573 
L 342.067109 -165.758928 
L 341.899692 -165.571471 
L 341.732275 -165.385083 
L 341.564859 -165.20071 
L 341.397442 -165.019349 
L 341.230026 -164.842046 
L 341.062609 -164.66988 
L 340.895192 -164.503958 
L 340.727776 -164.345401 
L 340.560359 -164.195331 
L 340.392943 -164.05486 
L 340.225526 -163.925073 
L 340.058109 -163.807018 
L 339.890693 -163.701688 
L 339.723276 -163.610009 
L 339.555859 -163.532825 
L 339.388443 -163.470887 
L 339.221026 -163.424837 
L 339.05361 -163.395198 
L 338.886193 -163.382368 
L 338.718776 -163.386602 
L 338.55136 -163.408014 
L 338.383943 -163.446568 
L 338.216527 -163.502075 
L 338.04911 -163.574194 
L 337.881693 -163.662431 
L 337.714277 -163.766146 
L 337.54686 -163.884556 
L 337.379443 -164.016747 
L 337.212027 -164.161683 
L 337.04461 -164.318218 
L 336.877194 -164.485114 
L 336.709777 -164.661051 
L 336.54236 -164.844653 
L 336.374944 -165.0345 
L 336.207527 -165.229146 
L 336.040111 -165.427146 
L 335.872694 -165.627066 
L 335.705277 -165.827508 
L 335.537861 -166.027124 
L 335.370444 -166.224632 
L 335.203028 -166.418833 
L 335.035611 -166.608624 
L 334.868194 -166.793004 
L 334.700778 -166.97109 
L 334.533361 -167.142117 
L 334.365944 -167.305445 
L 334.198528 -167.460562 
L 334.031111 -167.60708 
L 333.863695 -167.744735 
L 333.696278 -167.873382 
L 333.528861 -167.992988 
L 333.361445 -168.103626 
L 333.194028 -168.205466 
L 333.026612 -168.298762 
L 332.859195 -168.383848 
L 332.691778 -168.46112 
L 332.524362 -168.53103 
L 332.356945 -168.594077 
L 332.189528 -168.650789 
L 332.022112 -168.701721 
L 331.854695 -168.747442 
L 331.687279 -168.788529 
L 331.519862 -168.825555 
L 331.352445 -168.859088 
L 331.185029 -168.889682 
L 331.017612 -168.91787 
L 330.850196 -168.944166 
L 330.682779 -168.969055 
L 330.515362 -168.992995 
L 330.347946 -169.016412 
L 330.180529 -169.0397 
L 330.013112 -169.06322 
L 329.845696 -169.087295 
L 329.678279 -169.112216 
L 329.510863 -169.138237 
L 329.343446 -169.165576 
L 329.176029 -169.194415 
L 329.008613 -169.224899 
L 328.841196 -169.257139 
L 328.67378 -169.291212 
L 328.506363 -169.327156 
L 328.338946 -169.36498 
z
" id="mc3c2993233" style="stroke:#333333;"/>
    </defs>
    <g clip-path="url(#pdc95217c98)">
     <use style="fill:#484566;stroke:#333333;" x="0" xlink:href="#mc3c2993233" y="323.353333"/>
    </g>
   </g>
   <g id="PolyCollection_6">
    <defs>
     <path d="M 335.564065 -144.103538 
L 335.564065 -145.746129 
L 335.705361 -145.74488 
L 335.846657 -145.735816 
L 335.987953 -145.719401 
L 336.129249 -145.696364 
L 336.270545 -145.667681 
L 336.41184 -145.634532 
L 336.553136 -145.59827 
L 336.694432 -145.560369 
L 336.835728 -145.522382 
L 336.977024 -145.485886 
L 337.11832 -145.452445 
L 337.259616 -145.423563 
L 337.400912 -145.400654 
L 337.542208 -145.385013 
L 337.683504 -145.377793 
L 337.8248 -145.379991 
L 337.966096 -145.392443 
L 338.107392 -145.415814 
L 338.248688 -145.450611 
L 338.389984 -145.497178 
L 338.53128 -145.555718 
L 338.672576 -145.626299 
L 338.813872 -145.708874 
L 338.955168 -145.803304 
L 339.096464 -145.909372 
L 339.23776 -146.026814 
L 339.379056 -146.155336 
L 339.520352 -146.29464 
L 339.661648 -146.444445 
L 339.802944 -146.6045 
L 339.94424 -146.774603 
L 340.085536 -146.954607 
L 340.226832 -147.14442 
L 340.368128 -147.34401 
L 340.509424 -147.553388 
L 340.65072 -147.772607 
L 340.792015 -148.001738 
L 340.933311 -148.240864 
L 341.074607 -148.490062 
L 341.215903 -148.749397 
L 341.357199 -149.01891 
L 341.498495 -149.298623 
L 341.639791 -149.588535 
L 341.781087 -149.888628 
L 341.922383 -150.198873 
L 342.063679 -150.519232 
L 342.204975 -150.849653 
L 342.346271 -151.19006 
L 342.487567 -151.540327 
L 342.628863 -151.900243 
L 342.770159 -152.269462 
L 342.911455 -152.647438 
L 343.052751 -153.033356 
L 343.194047 -153.42605 
L 343.335343 -153.823932 
L 343.476639 -154.224914 
L 343.617935 -154.626361 
L 343.759231 -155.025054 
L 343.900527 -155.417187 
L 344.041823 -155.798396 
L 344.183119 -156.163827 
L 344.324415 -156.508237 
L 344.465711 -156.826131 
L 344.607007 -157.111931 
L 344.748303 -157.36016 
L 344.889599 -157.565644 
L 345.030895 -157.72371 
L 345.17219 -157.830372 
L 345.313486 -157.8825 
L 345.454782 -157.877949 
L 345.596078 -157.815651 
L 345.737374 -157.695659 
L 345.87867 -157.519144 
L 346.019966 -157.28835 
L 346.161262 -157.006498 
L 346.302558 -156.677666 
L 346.443854 -156.306631 
L 346.58515 -155.89871 
L 346.726446 -155.45958 
L 346.867742 -154.995109 
L 347.009038 -154.511202 
L 347.150334 -154.013651 
L 347.29163 -153.508022 
L 347.432926 -152.999549 
L 347.574222 -152.493059 
L 347.715518 -151.992921 
L 347.856814 -151.503001 
L 347.99811 -151.02665 
L 348.139406 -150.566686 
L 348.280702 -150.125407 
L 348.421998 -149.704599 
L 348.563294 -149.305555 
L 348.70459 -148.92911 
L 348.845886 -148.575673 
L 348.987182 -148.245268 
L 349.128478 -147.937586 
L 349.269774 -147.652036 
L 349.41107 -147.387802 
L 349.552365 -147.143899 
L 349.552365 -142.705767 
L 349.552365 -142.705767 
L 349.41107 -142.461865 
L 349.269774 -142.197631 
L 349.128478 -141.912081 
L 348.987182 -141.604399 
L 348.845886 -141.273994 
L 348.70459 -140.920556 
L 348.563294 -140.544112 
L 348.421998 -140.145068 
L 348.280702 -139.724259 
L 348.139406 -139.282981 
L 347.99811 -138.823017 
L 347.856814 -138.346665 
L 347.715518 -137.856746 
L 347.574222 -137.356608 
L 347.432926 -136.850118 
L 347.29163 -136.341645 
L 347.150334 -135.836015 
L 347.009038 -135.338465 
L 346.867742 -134.854558 
L 346.726446 -134.390087 
L 346.58515 -133.950956 
L 346.443854 -133.543035 
L 346.302558 -133.172001 
L 346.161262 -132.843168 
L 346.019966 -132.561317 
L 345.87867 -132.330523 
L 345.737374 -132.154008 
L 345.596078 -132.034015 
L 345.454782 -131.971717 
L 345.313486 -131.967167 
L 345.17219 -132.019295 
L 345.030895 -132.125957 
L 344.889599 -132.284022 
L 344.748303 -132.489506 
L 344.607007 -132.737736 
L 344.465711 -133.023536 
L 344.324415 -133.34143 
L 344.183119 -133.68584 
L 344.041823 -134.051271 
L 343.900527 -134.43248 
L 343.759231 -134.824612 
L 343.617935 -135.223305 
L 343.476639 -135.624752 
L 343.335343 -136.025735 
L 343.194047 -136.423616 
L 343.052751 -136.816311 
L 342.911455 -137.202229 
L 342.770159 -137.580205 
L 342.628863 -137.949424 
L 342.487567 -138.30934 
L 342.346271 -138.659606 
L 342.204975 -139.000013 
L 342.063679 -139.330435 
L 341.922383 -139.650794 
L 341.781087 -139.961039 
L 341.639791 -140.261132 
L 341.498495 -140.551043 
L 341.357199 -140.830756 
L 341.215903 -141.10027 
L 341.074607 -141.359605 
L 340.933311 -141.608803 
L 340.792015 -141.847929 
L 340.65072 -142.07706 
L 340.509424 -142.296278 
L 340.368128 -142.505657 
L 340.226832 -142.705246 
L 340.085536 -142.89506 
L 339.94424 -143.075063 
L 339.802944 -143.245166 
L 339.661648 -143.405222 
L 339.520352 -143.555026 
L 339.379056 -143.694331 
L 339.23776 -143.822853 
L 339.096464 -143.940295 
L 338.955168 -144.046363 
L 338.813872 -144.140792 
L 338.672576 -144.223368 
L 338.53128 -144.293949 
L 338.389984 -144.352488 
L 338.248688 -144.399056 
L 338.107392 -144.433852 
L 337.966096 -144.457224 
L 337.8248 -144.469675 
L 337.683504 -144.471874 
L 337.542208 -144.464653 
L 337.400912 -144.449012 
L 337.259616 -144.426104 
L 337.11832 -144.397222 
L 336.977024 -144.36378 
L 336.835728 -144.327285 
L 336.694432 -144.289297 
L 336.553136 -144.251397 
L 336.41184 -144.215135 
L 336.270545 -144.181986 
L 336.129249 -144.153302 
L 335.987953 -144.130266 
L 335.846657 -144.113851 
L 335.705361 -144.104787 
L 335.564065 -144.103538 
z
" id="m259e5f3ce9" style="stroke:#333333;"/>
    </defs>
    <g clip-path="url(#pdc95217c98)">
     <use style="fill:#b75e1a;stroke:#333333;" x="0" xlink:href="#m259e5f3ce9" y="323.353333"/>
    </g>
   </g>
   <g id="patch_86">
    <path clip-path="url(#pdc95217c98)" d="M 113.976889 35.894167 
L 113.976889 35.894167 
L 113.976889 35.894167 
L 113.976889 35.894167 
z
" style="fill:#484566;stroke:#333333;stroke-linejoin:miter;stroke-width:0.5;"/>
   </g>
   <g id="patch_87">
    <path clip-path="url(#pdc95217c98)" d="M 113.976889 35.894167 
L 113.976889 35.894167 
L 113.976889 35.894167 
L 113.976889 35.894167 
z
" style="fill:#b75e1a;stroke:#333333;stroke-linejoin:miter;stroke-width:0.5;"/>
   </g>
   <g id="matplotlib.axis_3">
    <g id="xtick_5">
     <g id="line2d_9">
      <g>
       <use style="stroke:#000000;stroke-width:1.6;" x="113.976889" xlink:href="#m36299a078e" y="262.653333"/>
      </g>
     </g>
     <g id="text_11">
      <!-- 0.0 -->
      <g transform="translate(98.073764 292.550208)scale(0.2 -0.2)">
       <use xlink:href="#DejaVuSans-48"/>
       <use x="63.623047" xlink:href="#DejaVuSans-46"/>
       <use x="95.410156" xlink:href="#DejaVuSans-48"/>
      </g>
     </g>
    </g>
    <g id="xtick_6">
     <g id="line2d_10">
      <g>
       <use style="stroke:#000000;stroke-width:1.6;" x="183.084444" xlink:href="#m36299a078e" y="262.653333"/>
      </g>
     </g>
     <g id="text_12">
      <!-- 0.2 -->
      <g transform="translate(167.181319 292.550208)scale(0.2 -0.2)">
       <use xlink:href="#DejaVuSans-48"/>
       <use x="63.623047" xlink:href="#DejaVuSans-46"/>
       <use x="95.410156" xlink:href="#DejaVuSans-50"/>
      </g>
     </g>
    </g>
    <g id="xtick_7">
     <g id="line2d_11">
      <g>
       <use style="stroke:#000000;stroke-width:1.6;" x="252.192" xlink:href="#m36299a078e" y="262.653333"/>
      </g>
     </g>
     <g id="text_13">
      <!-- 0.4 -->
      <g transform="translate(236.288875 292.550208)scale(0.2 -0.2)">
       <use xlink:href="#DejaVuSans-48"/>
       <use x="63.623047" xlink:href="#DejaVuSans-46"/>
       <use x="95.410156" xlink:href="#DejaVuSans-52"/>
      </g>
     </g>
    </g>
    <g id="xtick_8">
     <g id="line2d_12">
      <g>
       <use style="stroke:#000000;stroke-width:1.6;" x="321.299556" xlink:href="#m36299a078e" y="262.653333"/>
      </g>
     </g>
     <g id="text_14">
      <!-- 0.6 -->
      <g transform="translate(305.396431 292.550208)scale(0.2 -0.2)">
       <use xlink:href="#DejaVuSans-48"/>
       <use x="63.623047" xlink:href="#DejaVuSans-46"/>
       <use x="95.410156" xlink:href="#DejaVuSans-54"/>
      </g>
     </g>
    </g>
    <g id="text_15">
     <!-- Max JS Divergence within $\epsilon$ -->
     <defs>
      <path d="M 9.8125 72.90625 
L 24.515625 72.90625 
L 43.109375 23.296875 
L 61.8125 72.90625 
L 76.515625 72.90625 
L 76.515625 0 
L 66.890625 0 
L 66.890625 64.015625 
L 48.09375 14.015625 
L 38.1875 14.015625 
L 19.390625 64.015625 
L 19.390625 0 
L 9.8125 0 
z
" id="DejaVuSans-77"/>
      <path d="M 34.28125 27.484375 
Q 23.390625 27.484375 19.1875 25 
Q 14.984375 22.515625 14.984375 16.5 
Q 14.984375 11.71875 18.140625 8.90625 
Q 21.296875 6.109375 26.703125 6.109375 
Q 34.1875 6.109375 38.703125 11.40625 
Q 43.21875 16.703125 43.21875 25.484375 
L 43.21875 27.484375 
z
M 52.203125 31.203125 
L 52.203125 0 
L 43.21875 0 
L 43.21875 8.296875 
Q 40.140625 3.328125 35.546875 0.953125 
Q 30.953125 -1.421875 24.3125 -1.421875 
Q 15.921875 -1.421875 10.953125 3.296875 
Q 6 8.015625 6 15.921875 
Q 6 25.140625 12.171875 29.828125 
Q 18.359375 34.515625 30.609375 34.515625 
L 43.21875 34.515625 
L 43.21875 35.40625 
Q 43.21875 41.609375 39.140625 45 
Q 35.0625 48.390625 27.6875 48.390625 
Q 23 48.390625 18.546875 47.265625 
Q 14.109375 46.140625 10.015625 43.890625 
L 10.015625 52.203125 
Q 14.9375 54.109375 19.578125 55.046875 
Q 24.21875 56 28.609375 56 
Q 40.484375 56 46.34375 49.84375 
Q 52.203125 43.703125 52.203125 31.203125 
z
" id="DejaVuSans-97"/>
      <path d="M 54.890625 54.6875 
L 35.109375 28.078125 
L 55.90625 0 
L 45.3125 0 
L 29.390625 21.484375 
L 13.484375 0 
L 2.875 0 
L 24.125 28.609375 
L 4.6875 54.6875 
L 15.28125 54.6875 
L 29.78125 35.203125 
L 44.28125 54.6875 
z
" id="DejaVuSans-120"/>
      <path d="M 9.8125 72.90625 
L 19.671875 72.90625 
L 19.671875 5.078125 
Q 19.671875 -8.109375 14.671875 -14.0625 
Q 9.671875 -20.015625 -1.421875 -20.015625 
L -5.171875 -20.015625 
L -5.171875 -11.71875 
L -2.09375 -11.71875 
Q 4.4375 -11.71875 7.125 -8.046875 
Q 9.8125 -4.390625 9.8125 5.078125 
z
" id="DejaVuSans-74"/>
      <path d="M 53.515625 70.515625 
L 53.515625 60.890625 
Q 47.90625 63.578125 42.921875 64.890625 
Q 37.9375 66.21875 33.296875 66.21875 
Q 25.25 66.21875 20.875 63.09375 
Q 16.5 59.96875 16.5 54.203125 
Q 16.5 49.359375 19.40625 46.890625 
Q 22.3125 44.4375 30.421875 42.921875 
L 36.375 41.703125 
Q 47.40625 39.59375 52.65625 34.296875 
Q 57.90625 29 57.90625 20.125 
Q 57.90625 9.515625 50.796875 4.046875 
Q 43.703125 -1.421875 29.984375 -1.421875 
Q 24.8125 -1.421875 18.96875 -0.25 
Q 13.140625 0.921875 6.890625 3.21875 
L 6.890625 13.375 
Q 12.890625 10.015625 18.65625 8.296875 
Q 24.421875 6.59375 29.984375 6.59375 
Q 38.421875 6.59375 43.015625 9.90625 
Q 47.609375 13.234375 47.609375 19.390625 
Q 47.609375 24.75 44.3125 27.78125 
Q 41.015625 30.8125 33.5 32.328125 
L 27.484375 33.5 
Q 16.453125 35.6875 11.515625 40.375 
Q 6.59375 45.0625 6.59375 53.421875 
Q 6.59375 63.09375 13.40625 68.65625 
Q 20.21875 74.21875 32.171875 74.21875 
Q 37.3125 74.21875 42.625 73.28125 
Q 47.953125 72.359375 53.515625 70.515625 
z
" id="DejaVuSans-83"/>
      <path d="M 19.671875 64.796875 
L 19.671875 8.109375 
L 31.59375 8.109375 
Q 46.6875 8.109375 53.6875 14.9375 
Q 60.6875 21.78125 60.6875 36.53125 
Q 60.6875 51.171875 53.6875 57.984375 
Q 46.6875 64.796875 31.59375 64.796875 
z
M 9.8125 72.90625 
L 30.078125 72.90625 
Q 51.265625 72.90625 61.171875 64.09375 
Q 71.09375 55.28125 71.09375 36.53125 
Q 71.09375 17.671875 61.125 8.828125 
Q 51.171875 0 30.078125 0 
L 9.8125 0 
z
" id="DejaVuSans-68"/>
      <path d="M 9.421875 54.6875 
L 18.40625 54.6875 
L 18.40625 0 
L 9.421875 0 
z
M 9.421875 75.984375 
L 18.40625 75.984375 
L 18.40625 64.59375 
L 9.421875 64.59375 
z
" id="DejaVuSans-105"/>
      <path d="M 2.984375 54.6875 
L 12.5 54.6875 
L 29.59375 8.796875 
L 46.6875 54.6875 
L 56.203125 54.6875 
L 35.6875 0 
L 23.484375 0 
z
" id="DejaVuSans-118"/>
      <path d="M 56.203125 29.59375 
L 56.203125 25.203125 
L 14.890625 25.203125 
Q 15.484375 15.921875 20.484375 11.0625 
Q 25.484375 6.203125 34.421875 6.203125 
Q 39.59375 6.203125 44.453125 7.46875 
Q 49.3125 8.734375 54.109375 11.28125 
L 54.109375 2.78125 
Q 49.265625 0.734375 44.1875 -0.34375 
Q 39.109375 -1.421875 33.890625 -1.421875 
Q 20.796875 -1.421875 13.15625 6.1875 
Q 5.515625 13.8125 5.515625 26.8125 
Q 5.515625 40.234375 12.765625 48.109375 
Q 20.015625 56 32.328125 56 
Q 43.359375 56 49.78125 48.890625 
Q 56.203125 41.796875 56.203125 29.59375 
z
M 47.21875 32.234375 
Q 47.125 39.59375 43.09375 43.984375 
Q 39.0625 48.390625 32.421875 48.390625 
Q 24.90625 48.390625 20.390625 44.140625 
Q 15.875 39.890625 15.1875 32.171875 
z
" id="DejaVuSans-101"/>
      <path d="M 41.109375 46.296875 
Q 39.59375 47.171875 37.8125 47.578125 
Q 36.03125 48 33.890625 48 
Q 26.265625 48 22.1875 43.046875 
Q 18.109375 38.09375 18.109375 28.8125 
L 18.109375 0 
L 9.078125 0 
L 9.078125 54.6875 
L 18.109375 54.6875 
L 18.109375 46.1875 
Q 20.953125 51.171875 25.484375 53.578125 
Q 30.03125 56 36.53125 56 
Q 37.453125 56 38.578125 55.875 
Q 39.703125 55.765625 41.0625 55.515625 
z
" id="DejaVuSans-114"/>
      <path d="M 45.40625 27.984375 
Q 45.40625 37.75 41.375 43.109375 
Q 37.359375 48.484375 30.078125 48.484375 
Q 22.859375 48.484375 18.828125 43.109375 
Q 14.796875 37.75 14.796875 27.984375 
Q 14.796875 18.265625 18.828125 12.890625 
Q 22.859375 7.515625 30.078125 7.515625 
Q 37.359375 7.515625 41.375 12.890625 
Q 45.40625 18.265625 45.40625 27.984375 
z
M 54.390625 6.78125 
Q 54.390625 -7.171875 48.1875 -13.984375 
Q 42 -20.796875 29.203125 -20.796875 
Q 24.46875 -20.796875 20.265625 -20.09375 
Q 16.0625 -19.390625 12.109375 -17.921875 
L 12.109375 -9.1875 
Q 16.0625 -11.328125 19.921875 -12.34375 
Q 23.78125 -13.375 27.78125 -13.375 
Q 36.625 -13.375 41.015625 -8.765625 
Q 45.40625 -4.15625 45.40625 5.171875 
L 45.40625 9.625 
Q 42.625 4.78125 38.28125 2.390625 
Q 33.9375 0 27.875 0 
Q 17.828125 0 11.671875 7.65625 
Q 5.515625 15.328125 5.515625 27.984375 
Q 5.515625 40.671875 11.671875 48.328125 
Q 17.828125 56 27.875 56 
Q 33.9375 56 38.28125 53.609375 
Q 42.625 51.21875 45.40625 46.390625 
L 45.40625 54.6875 
L 54.390625 54.6875 
z
" id="DejaVuSans-103"/>
      <path d="M 54.890625 33.015625 
L 54.890625 0 
L 45.90625 0 
L 45.90625 32.71875 
Q 45.90625 40.484375 42.875 44.328125 
Q 39.84375 48.1875 33.796875 48.1875 
Q 26.515625 48.1875 22.3125 43.546875 
Q 18.109375 38.921875 18.109375 30.90625 
L 18.109375 0 
L 9.078125 0 
L 9.078125 54.6875 
L 18.109375 54.6875 
L 18.109375 46.1875 
Q 21.34375 51.125 25.703125 53.5625 
Q 30.078125 56 35.796875 56 
Q 45.21875 56 50.046875 50.171875 
Q 54.890625 44.34375 54.890625 33.015625 
z
" id="DejaVuSans-110"/>
      <path d="M 48.78125 52.59375 
L 48.78125 44.1875 
Q 44.96875 46.296875 41.140625 47.34375 
Q 37.3125 48.390625 33.40625 48.390625 
Q 24.65625 48.390625 19.8125 42.84375 
Q 14.984375 37.3125 14.984375 27.296875 
Q 14.984375 17.28125 19.8125 11.734375 
Q 24.65625 6.203125 33.40625 6.203125 
Q 37.3125 6.203125 41.140625 7.25 
Q 44.96875 8.296875 48.78125 10.40625 
L 48.78125 2.09375 
Q 45.015625 0.34375 40.984375 -0.53125 
Q 36.96875 -1.421875 32.421875 -1.421875 
Q 20.0625 -1.421875 12.78125 6.34375 
Q 5.515625 14.109375 5.515625 27.296875 
Q 5.515625 40.671875 12.859375 48.328125 
Q 20.21875 56 33.015625 56 
Q 37.15625 56 41.109375 55.140625 
Q 45.0625 54.296875 48.78125 52.59375 
z
" id="DejaVuSans-99"/>
      <path d="M 4.203125 54.6875 
L 13.1875 54.6875 
L 24.421875 12.015625 
L 35.59375 54.6875 
L 46.1875 54.6875 
L 57.421875 12.015625 
L 68.609375 54.6875 
L 77.59375 54.6875 
L 63.28125 0 
L 52.6875 0 
L 40.921875 44.828125 
L 29.109375 0 
L 18.5 0 
z
" id="DejaVuSans-119"/>
      <path d="M 18.3125 70.21875 
L 18.3125 54.6875 
L 36.8125 54.6875 
L 36.8125 47.703125 
L 18.3125 47.703125 
L 18.3125 18.015625 
Q 18.3125 11.328125 20.140625 9.421875 
Q 21.96875 7.515625 27.59375 7.515625 
L 36.8125 7.515625 
L 36.8125 0 
L 27.59375 0 
Q 17.1875 0 13.234375 3.875 
Q 9.28125 7.765625 9.28125 18.015625 
L 9.28125 47.703125 
L 2.6875 47.703125 
L 2.6875 54.6875 
L 9.28125 54.6875 
L 9.28125 70.21875 
z
" id="DejaVuSans-116"/>
      <path d="M 54.890625 33.015625 
L 54.890625 0 
L 45.90625 0 
L 45.90625 32.71875 
Q 45.90625 40.484375 42.875 44.328125 
Q 39.84375 48.1875 33.796875 48.1875 
Q 26.515625 48.1875 22.3125 43.546875 
Q 18.109375 38.921875 18.109375 30.90625 
L 18.109375 0 
L 9.078125 0 
L 9.078125 75.984375 
L 18.109375 75.984375 
L 18.109375 46.1875 
Q 21.34375 51.125 25.703125 53.5625 
Q 30.078125 56 35.796875 56 
Q 45.21875 56 50.046875 50.171875 
Q 54.890625 44.34375 54.890625 33.015625 
z
" id="DejaVuSans-104"/>
      <path d="M 19.734375 29.5 
Q 14.453125 30.671875 12.15625 33.84375 
Q 10.453125 36.078125 10.453125 39.109375 
Q 10.453125 47.40625 18.359375 52.25 
Q 24.609375 56.0625 34.1875 56.0625 
Q 37.890625 56.0625 41.9375 55.46875 
Q 46 54.890625 50.53125 53.71875 
L 48.96875 45.5625 
Q 44.484375 46.96875 40.71875 47.609375 
Q 36.859375 48.25 33.40625 48.25 
Q 27.59375 48.25 23.78125 46 
Q 19.1875 43.3125 19.1875 39.40625 
Q 19.1875 36.8125 21.578125 35.015625 
Q 24.421875 32.859375 30.078125 32.859375 
L 37.640625 32.859375 
L 36.234375 25.4375 
L 29 25.4375 
Q 22.265625 25.4375 18.3125 22.953125 
Q 12.9375 19.578125 12.9375 14.3125 
Q 12.9375 10.984375 15.828125 8.796875 
Q 19.4375 6.0625 26.8125 6.0625 
Q 31.34375 6.0625 35.6875 6.9375 
Q 40.046875 7.859375 43.84375 9.671875 
L 42.1875 1.3125 
Q 37.546875 -0.046875 33.296875 -0.734375 
Q 29.046875 -1.421875 25.140625 -1.421875 
Q 13.53125 -1.421875 8.0625 3.03125 
Q 3.90625 6.453125 3.90625 12.203125 
Q 3.90625 19.96875 9.375 24.75 
Q 13.421875 28.328125 19.734375 29.5 
z
" id="DejaVuSans-Oblique-949"/>
     </defs>
     <g transform="translate(90.676667 315.909583)scale(0.2 -0.2)">
      <use transform="translate(0 0.015625)" xlink:href="#DejaVuSans-77"/>
      <use transform="translate(86.279297 0.015625)" xlink:href="#DejaVuSans-97"/>
      <use transform="translate(147.558594 0.015625)" xlink:href="#DejaVuSans-120"/>
      <use transform="translate(206.738281 0.015625)" xlink:href="#DejaVuSans-32"/>
      <use transform="translate(238.525391 0.015625)" xlink:href="#DejaVuSans-74"/>
      <use transform="translate(268.017578 0.015625)" xlink:href="#DejaVuSans-83"/>
      <use transform="translate(331.494141 0.015625)" xlink:href="#DejaVuSans-32"/>
      <use transform="translate(363.28125 0.015625)" xlink:href="#DejaVuSans-68"/>
      <use transform="translate(440.283203 0.015625)" xlink:href="#DejaVuSans-105"/>
      <use transform="translate(468.066406 0.015625)" xlink:href="#DejaVuSans-118"/>
      <use transform="translate(527.246094 0.015625)" xlink:href="#DejaVuSans-101"/>
      <use transform="translate(588.769531 0.015625)" xlink:href="#DejaVuSans-114"/>
      <use transform="translate(629.882812 0.015625)" xlink:href="#DejaVuSans-103"/>
      <use transform="translate(693.359375 0.015625)" xlink:href="#DejaVuSans-101"/>
      <use transform="translate(754.882812 0.015625)" xlink:href="#DejaVuSans-110"/>
      <use transform="translate(818.261719 0.015625)" xlink:href="#DejaVuSans-99"/>
      <use transform="translate(873.242188 0.015625)" xlink:href="#DejaVuSans-101"/>
      <use transform="translate(934.765625 0.015625)" xlink:href="#DejaVuSans-32"/>
      <use transform="translate(966.552734 0.015625)" xlink:href="#DejaVuSans-119"/>
      <use transform="translate(1048.339844 0.015625)" xlink:href="#DejaVuSans-105"/>
      <use transform="translate(1076.123047 0.015625)" xlink:href="#DejaVuSans-116"/>
      <use transform="translate(1115.332031 0.015625)" xlink:href="#DejaVuSans-104"/>
      <use transform="translate(1178.710938 0.015625)" xlink:href="#DejaVuSans-105"/>
      <use transform="translate(1206.494141 0.015625)" xlink:href="#DejaVuSans-110"/>
      <use transform="translate(1269.873047 0.015625)" xlink:href="#DejaVuSans-32"/>
      <use transform="translate(1301.660156 0.015625)" xlink:href="#DejaVuSans-Oblique-949"/>
     </g>
    </g>
   </g>
   <g id="matplotlib.axis_4">
    <g id="ytick_5">
     <g id="line2d_13">
      <g>
       <use style="stroke:#000000;stroke-width:1.6;" x="96.7" xlink:href="#m59204c7fb7" y="35.894167"/>
      </g>
     </g>
     <g id="text_16">
      <!-- [0.00, -->
      <defs>
       <path d="M 8.59375 75.984375 
L 29.296875 75.984375 
L 29.296875 69 
L 17.578125 69 
L 17.578125 -6.203125 
L 29.296875 -6.203125 
L 29.296875 -13.1875 
L 8.59375 -13.1875 
z
" id="DejaVuSans-91"/>
       <path d="M 11.71875 12.40625 
L 22.015625 12.40625 
L 22.015625 4 
L 14.015625 -11.625 
L 7.71875 -11.625 
L 11.71875 4 
z
" id="DejaVuSans-44"/>
      </defs>
      <g transform="translate(23.309375 32.294792)scale(0.2 -0.2)">
       <use xlink:href="#DejaVuSans-91"/>
       <use x="39.013672" xlink:href="#DejaVuSans-48"/>
       <use x="102.636719" xlink:href="#DejaVuSans-46"/>
       <use x="134.423828" xlink:href="#DejaVuSans-48"/>
       <use x="198.046875" xlink:href="#DejaVuSans-48"/>
       <use x="261.669922" xlink:href="#DejaVuSans-44"/>
      </g>
      <!-- 0.25) -->
      <defs>
       <path d="M 10.796875 72.90625 
L 49.515625 72.90625 
L 49.515625 64.59375 
L 19.828125 64.59375 
L 19.828125 46.734375 
Q 21.96875 47.46875 24.109375 47.828125 
Q 26.265625 48.1875 28.421875 48.1875 
Q 40.625 48.1875 47.75 41.5 
Q 54.890625 34.8125 54.890625 23.390625 
Q 54.890625 11.625 47.5625 5.09375 
Q 40.234375 -1.421875 26.90625 -1.421875 
Q 22.3125 -1.421875 17.546875 -0.640625 
Q 12.796875 0.140625 7.71875 1.703125 
L 7.71875 11.625 
Q 12.109375 9.234375 16.796875 8.0625 
Q 21.484375 6.890625 26.703125 6.890625 
Q 35.15625 6.890625 40.078125 11.328125 
Q 45.015625 15.765625 45.015625 23.390625 
Q 45.015625 31 40.078125 35.4375 
Q 35.15625 39.890625 26.703125 39.890625 
Q 22.75 39.890625 18.8125 39.015625 
Q 14.890625 38.140625 10.796875 36.28125 
z
" id="DejaVuSans-53"/>
       <path d="M 8.015625 75.875 
L 15.828125 75.875 
Q 23.140625 64.359375 26.78125 53.3125 
Q 30.421875 42.28125 30.421875 31.390625 
Q 30.421875 20.453125 26.78125 9.375 
Q 23.140625 -1.703125 15.828125 -13.1875 
L 8.015625 -13.1875 
Q 14.5 -2 17.703125 9.0625 
Q 20.90625 20.125 20.90625 31.390625 
Q 20.90625 42.671875 17.703125 53.65625 
Q 14.5 64.65625 8.015625 75.875 
z
" id="DejaVuSans-41"/>
      </defs>
      <g transform="translate(29.665625 54.690417)scale(0.2 -0.2)">
       <use xlink:href="#DejaVuSans-48"/>
       <use x="63.623047" xlink:href="#DejaVuSans-46"/>
       <use x="95.410156" xlink:href="#DejaVuSans-50"/>
       <use x="159.033203" xlink:href="#DejaVuSans-53"/>
       <use x="222.65625" xlink:href="#DejaVuSans-41"/>
      </g>
     </g>
    </g>
    <g id="ytick_6">
     <g id="line2d_14">
      <g>
       <use style="stroke:#000000;stroke-width:1.6;" x="96.7" xlink:href="#m59204c7fb7" y="100.6825"/>
      </g>
     </g>
     <g id="text_17">
      <!-- [0.25, -->
      <g transform="translate(23.309375 97.083125)scale(0.2 -0.2)">
       <use xlink:href="#DejaVuSans-91"/>
       <use x="39.013672" xlink:href="#DejaVuSans-48"/>
       <use x="102.636719" xlink:href="#DejaVuSans-46"/>
       <use x="134.423828" xlink:href="#DejaVuSans-50"/>
       <use x="198.046875" xlink:href="#DejaVuSans-53"/>
       <use x="261.669922" xlink:href="#DejaVuSans-44"/>
      </g>
      <!-- 0.50) -->
      <g transform="translate(29.665625 119.47875)scale(0.2 -0.2)">
       <use xlink:href="#DejaVuSans-48"/>
       <use x="63.623047" xlink:href="#DejaVuSans-46"/>
       <use x="95.410156" xlink:href="#DejaVuSans-53"/>
       <use x="159.033203" xlink:href="#DejaVuSans-48"/>
       <use x="222.65625" xlink:href="#DejaVuSans-41"/>
      </g>
     </g>
    </g>
    <g id="ytick_7">
     <g id="line2d_15">
      <g>
       <use style="stroke:#000000;stroke-width:1.6;" x="96.7" xlink:href="#m59204c7fb7" y="165.470833"/>
      </g>
     </g>
     <g id="text_18">
      <!-- [0.50, -->
      <g transform="translate(23.309375 161.871458)scale(0.2 -0.2)">
       <use xlink:href="#DejaVuSans-91"/>
       <use x="39.013672" xlink:href="#DejaVuSans-48"/>
       <use x="102.636719" xlink:href="#DejaVuSans-46"/>
       <use x="134.423828" xlink:href="#DejaVuSans-53"/>
       <use x="198.046875" xlink:href="#DejaVuSans-48"/>
       <use x="261.669922" xlink:href="#DejaVuSans-44"/>
      </g>
      <!-- 0.75) -->
      <defs>
       <path d="M 8.203125 72.90625 
L 55.078125 72.90625 
L 55.078125 68.703125 
L 28.609375 0 
L 18.3125 0 
L 43.21875 64.59375 
L 8.203125 64.59375 
z
" id="DejaVuSans-55"/>
      </defs>
      <g transform="translate(29.665625 184.267083)scale(0.2 -0.2)">
       <use xlink:href="#DejaVuSans-48"/>
       <use x="63.623047" xlink:href="#DejaVuSans-46"/>
       <use x="95.410156" xlink:href="#DejaVuSans-55"/>
       <use x="159.033203" xlink:href="#DejaVuSans-53"/>
       <use x="222.65625" xlink:href="#DejaVuSans-41"/>
      </g>
     </g>
    </g>
    <g id="ytick_8">
     <g id="line2d_16">
      <g>
       <use style="stroke:#000000;stroke-width:1.6;" x="96.7" xlink:href="#m59204c7fb7" y="230.259167"/>
      </g>
     </g>
     <g id="text_19">
      <!-- [0.75, -->
      <g transform="translate(23.309375 226.659792)scale(0.2 -0.2)">
       <use xlink:href="#DejaVuSans-91"/>
       <use x="39.013672" xlink:href="#DejaVuSans-48"/>
       <use x="102.636719" xlink:href="#DejaVuSans-46"/>
       <use x="134.423828" xlink:href="#DejaVuSans-55"/>
       <use x="198.046875" xlink:href="#DejaVuSans-53"/>
       <use x="261.669922" xlink:href="#DejaVuSans-44"/>
      </g>
      <!-- 1.00) -->
      <defs>
       <path d="M 12.40625 8.296875 
L 28.515625 8.296875 
L 28.515625 63.921875 
L 10.984375 60.40625 
L 10.984375 69.390625 
L 28.421875 72.90625 
L 38.28125 72.90625 
L 38.28125 8.296875 
L 54.390625 8.296875 
L 54.390625 0 
L 12.40625 0 
z
" id="DejaVuSans-49"/>
      </defs>
      <g transform="translate(29.665625 249.055417)scale(0.2 -0.2)">
       <use xlink:href="#DejaVuSans-49"/>
       <use x="63.623047" xlink:href="#DejaVuSans-46"/>
       <use x="95.410156" xlink:href="#DejaVuSans-48"/>
       <use x="159.033203" xlink:href="#DejaVuSans-48"/>
       <use x="222.65625" xlink:href="#DejaVuSans-41"/>
      </g>
     </g>
    </g>
    <g id="text_20">
     <!-- Max Attention -->
     <defs>
      <path d="M 34.1875 63.1875 
L 20.796875 26.90625 
L 47.609375 26.90625 
z
M 28.609375 72.90625 
L 39.796875 72.90625 
L 67.578125 0 
L 57.328125 0 
L 50.6875 18.703125 
L 17.828125 18.703125 
L 11.1875 0 
L 0.78125 0 
z
" id="DejaVuSans-65"/>
      <path d="M 30.609375 48.390625 
Q 23.390625 48.390625 19.1875 42.75 
Q 14.984375 37.109375 14.984375 27.296875 
Q 14.984375 17.484375 19.15625 11.84375 
Q 23.34375 6.203125 30.609375 6.203125 
Q 37.796875 6.203125 41.984375 11.859375 
Q 46.1875 17.53125 46.1875 27.296875 
Q 46.1875 37.015625 41.984375 42.703125 
Q 37.796875 48.390625 30.609375 48.390625 
z
M 30.609375 56 
Q 42.328125 56 49.015625 48.375 
Q 55.71875 40.765625 55.71875 27.296875 
Q 55.71875 13.875 49.015625 6.21875 
Q 42.328125 -1.421875 30.609375 -1.421875 
Q 18.84375 -1.421875 12.171875 6.21875 
Q 5.515625 13.875 5.515625 27.296875 
Q 5.515625 40.765625 12.171875 48.375 
Q 18.84375 56 30.609375 56 
z
" id="DejaVuSans-111"/>
     </defs>
     <g transform="translate(15.15 203.254792)rotate(-90)scale(0.2 -0.2)">
      <use xlink:href="#DejaVuSans-77"/>
      <use x="86.279297" xlink:href="#DejaVuSans-97"/>
      <use x="147.558594" xlink:href="#DejaVuSans-120"/>
      <use x="206.738281" xlink:href="#DejaVuSans-32"/>
      <use x="238.525391" xlink:href="#DejaVuSans-65"/>
      <use x="306.917969" xlink:href="#DejaVuSans-116"/>
      <use x="346.126953" xlink:href="#DejaVuSans-116"/>
      <use x="385.335938" xlink:href="#DejaVuSans-101"/>
      <use x="446.859375" xlink:href="#DejaVuSans-110"/>
      <use x="510.238281" xlink:href="#DejaVuSans-116"/>
      <use x="549.447266" xlink:href="#DejaVuSans-105"/>
      <use x="577.230469" xlink:href="#DejaVuSans-111"/>
      <use x="638.412109" xlink:href="#DejaVuSans-110"/>
     </g>
    </g>
   </g>
   <g id="line2d_17">
    <path clip-path="url(#pdc95217c98)" d="M 328.072142 20.88597 
L 328.072142 24.98703 
" style="fill:none;stroke:#333333;stroke-dasharray:1.5,1.5;stroke-dashoffset:0;"/>
   </g>
   <g id="line2d_18">
    <path clip-path="url(#pdc95217c98)" d="M 333.29469 20.611053 
L 333.29469 25.261947 
" style="fill:none;stroke:#333333;stroke-dasharray:3,3;stroke-dashoffset:0;"/>
   </g>
   <g id="line2d_19">
    <path clip-path="url(#pdc95217c98)" d="M 338.685897 21.152394 
L 338.685897 24.720606 
" style="fill:none;stroke:#333333;stroke-dasharray:1.5,1.5;stroke-dashoffset:0;"/>
   </g>
   <g id="line2d_20">
    <path clip-path="url(#pdc95217c98)" d="M 347.476314 40.854971 
L 347.476314 56.848696 
" style="fill:none;stroke:#333333;stroke-dasharray:1.5,1.5;stroke-dashoffset:0;"/>
   </g>
   <g id="line2d_21">
    <path clip-path="url(#pdc95217c98)" d="M 348.649648 36.040115 
L 348.649648 61.663551 
" style="fill:none;stroke:#333333;stroke-dasharray:3,3;stroke-dashoffset:0;"/>
   </g>
   <g id="line2d_22">
    <path clip-path="url(#pdc95217c98)" d="M 349.581272 38.042314 
L 349.581272 59.661352 
" style="fill:none;stroke:#333333;stroke-dasharray:1.5,1.5;stroke-dashoffset:0;"/>
   </g>
   <g id="line2d_23">
    <path clip-path="url(#pdc95217c98)" d="M 333.395305 83.012402 
L 333.395305 92.437264 
" style="fill:none;stroke:#333333;stroke-dasharray:1.5,1.5;stroke-dashoffset:0;"/>
   </g>
   <g id="line2d_24">
    <path clip-path="url(#pdc95217c98)" d="M 337.894977 79.882442 
L 337.894977 95.567225 
" style="fill:none;stroke:#333333;stroke-dasharray:3,3;stroke-dashoffset:0;"/>
   </g>
   <g id="line2d_25">
    <path clip-path="url(#pdc95217c98)" d="M 341.761714 81.101949 
L 341.761714 94.347718 
" style="fill:none;stroke:#333333;stroke-dasharray:1.5,1.5;stroke-dashoffset:0;"/>
   </g>
   <g id="line2d_26">
    <path clip-path="url(#pdc95217c98)" d="M 342.037454 102.250371 
L 342.037454 125.029963 
" style="fill:none;stroke:#333333;stroke-dasharray:1.5,1.5;stroke-dashoffset:0;"/>
   </g>
   <g id="line2d_27">
    <path clip-path="url(#pdc95217c98)" d="M 344.792041 101.76843 
L 344.792041 125.511903 
" style="fill:none;stroke:#333333;stroke-dasharray:3,3;stroke-dashoffset:0;"/>
   </g>
   <g id="line2d_28">
    <path clip-path="url(#pdc95217c98)" d="M 346.664721 101.52244 
L 346.664721 125.757893 
" style="fill:none;stroke:#333333;stroke-dasharray:1.5,1.5;stroke-dashoffset:0;"/>
   </g>
   <g id="line2d_29">
    <path clip-path="url(#pdc95217c98)" d="M 337.22946 145.901468 
L 337.22946 159.124865 
" style="fill:none;stroke:#333333;stroke-dasharray:1.5,1.5;stroke-dashoffset:0;"/>
   </g>
   <g id="line2d_30">
    <path clip-path="url(#pdc95217c98)" d="M 338.25535 145.248456 
L 338.25535 159.777877 
" style="fill:none;stroke:#333333;stroke-dasharray:3,3;stroke-dashoffset:0;"/>
   </g>
   <g id="line2d_31">
    <path clip-path="url(#pdc95217c98)" d="M 340.467756 145.795713 
L 340.467756 159.23062 
" style="fill:none;stroke:#333333;stroke-dasharray:1.5,1.5;stroke-dashoffset:0;"/>
   </g>
   <g id="line2d_32">
    <path clip-path="url(#pdc95217c98)" d="M 343.761769 168.429281 
L 343.761769 188.427719 
" style="fill:none;stroke:#333333;stroke-dasharray:1.5,1.5;stroke-dashoffset:0;"/>
   </g>
   <g id="line2d_33">
    <path clip-path="url(#pdc95217c98)" d="M 345.344262 165.60041 
L 345.344262 191.25659 
" style="fill:none;stroke:#333333;stroke-dasharray:3,3;stroke-dashoffset:0;"/>
   </g>
   <g id="line2d_34">
    <path clip-path="url(#pdc95217c98)" d="M 346.018944 166.188619 
L 346.018944 190.668381 
" style="fill:none;stroke:#333333;stroke-dasharray:1.5,1.5;stroke-dashoffset:0;"/>
   </g>
   <g id="patch_88">
    <path d="M 96.7 262.653333 
L 96.7 3.5 
" style="fill:none;stroke:#000000;stroke-linecap:square;stroke-linejoin:miter;stroke-width:0.8;"/>
   </g>
   <g id="patch_89">
    <path d="M 96.7 262.653333 
L 355.853333 262.653333 
" style="fill:none;stroke:#000000;stroke-linecap:square;stroke-linejoin:miter;stroke-width:0.8;"/>
   </g>
  </g>
 </g>
 <defs>
  <clipPath id="p7f3c82ff3e">
   <rect height="259.153333" width="259.153333" x="-273.813333" y="3.5"/>
  </clipPath>
  <clipPath id="pdc95217c98">
   <rect height="259.153333" width="259.153333" x="96.7" y="3.5"/>
  </clipPath>
 </defs>
</svg>
