<?xml version="1.0" encoding="utf-8" standalone="no"?>
<!DOCTYPE svg PUBLIC "-//W3C//DTD SVG 1.1//EN"
  "http://www.w3.org/Graphics/SVG/1.1/DTD/svg11.dtd">
<!-- Created with matplotlib (https://matplotlib.org/) -->
<svg height="319.061667pt" version="1.1" viewBox="0 0 360.351536 319.061667" width="360.351536pt" xmlns="http://www.w3.org/2000/svg" xmlns:xlink="http://www.w3.org/1999/xlink">
 <defs>
  <style type="text/css">
*{stroke-linecap:butt;stroke-linejoin:round;}
  </style>
 </defs>
 <g id="figure_1">
  <g id="patch_1">
   <path d="M 0 319.061667 
L 360.351536 319.061667 
L 360.351536 0 
L 0 0 
z
" style="fill:#ffffff;"/>
  </g>
  <g id="axes_1">
   <g id="patch_2">
    <path d="M -269.521667 258.361667 
L -14.66 258.361667 
L -14.66 3.5 
L -269.521667 3.5 
z
" style="fill:#ffffff;"/>
   </g>
   <g id="patch_3">
    <path clip-path="url(#pee72a8c435)" d="M -257.937045 258.361667 
L -252.144735 258.361667 
L -252.144735 258.361667 
L -257.937045 258.361667 
z
" style="fill:#7570b3;opacity:0.6;stroke:#000000;stroke-linejoin:miter;stroke-width:0.5;"/>
   </g>
   <g id="patch_4">
    <path clip-path="url(#pee72a8c435)" d="M -252.144735 258.361667 
L -246.352424 258.361667 
L -246.352424 258.361667 
L -252.144735 258.361667 
z
" style="fill:#7570b3;opacity:0.6;stroke:#000000;stroke-linejoin:miter;stroke-width:0.5;"/>
   </g>
   <g id="patch_5">
    <path clip-path="url(#pee72a8c435)" d="M -246.352424 258.361667 
L -240.560114 258.361667 
L -240.560114 258.361667 
L -246.352424 258.361667 
z
" style="fill:#7570b3;opacity:0.6;stroke:#000000;stroke-linejoin:miter;stroke-width:0.5;"/>
   </g>
   <g id="patch_6">
    <path clip-path="url(#pee72a8c435)" d="M -240.560114 258.361667 
L -234.767803 258.361667 
L -234.767803 258.361667 
L -240.560114 258.361667 
z
" style="fill:#7570b3;opacity:0.6;stroke:#000000;stroke-linejoin:miter;stroke-width:0.5;"/>
   </g>
   <g id="patch_7">
    <path clip-path="url(#pee72a8c435)" d="M -234.767803 258.361667 
L -228.975492 258.361667 
L -228.975492 258.361667 
L -234.767803 258.361667 
z
" style="fill:#7570b3;opacity:0.6;stroke:#000000;stroke-linejoin:miter;stroke-width:0.5;"/>
   </g>
   <g id="patch_8">
    <path clip-path="url(#pee72a8c435)" d="M -228.975492 258.361667 
L -223.183182 258.361667 
L -223.183182 258.361667 
L -228.975492 258.361667 
z
" style="fill:#7570b3;opacity:0.6;stroke:#000000;stroke-linejoin:miter;stroke-width:0.5;"/>
   </g>
   <g id="patch_9">
    <path clip-path="url(#pee72a8c435)" d="M -223.183182 258.361667 
L -217.390871 258.361667 
L -217.390871 258.361667 
L -223.183182 258.361667 
z
" style="fill:#7570b3;opacity:0.6;stroke:#000000;stroke-linejoin:miter;stroke-width:0.5;"/>
   </g>
   <g id="patch_10">
    <path clip-path="url(#pee72a8c435)" d="M -217.390871 258.361667 
L -211.598561 258.361667 
L -211.598561 258.361667 
L -217.390871 258.361667 
z
" style="fill:#7570b3;opacity:0.6;stroke:#000000;stroke-linejoin:miter;stroke-width:0.5;"/>
   </g>
   <g id="patch_11">
    <path clip-path="url(#pee72a8c435)" d="M -211.598561 258.361667 
L -205.80625 258.361667 
L -205.80625 258.361667 
L -211.598561 258.361667 
z
" style="fill:#7570b3;opacity:0.6;stroke:#000000;stroke-linejoin:miter;stroke-width:0.5;"/>
   </g>
   <g id="patch_12">
    <path clip-path="url(#pee72a8c435)" d="M -205.80625 258.361667 
L -200.013939 258.361667 
L -200.013939 258.361667 
L -205.80625 258.361667 
z
" style="fill:#7570b3;opacity:0.6;stroke:#000000;stroke-linejoin:miter;stroke-width:0.5;"/>
   </g>
   <g id="patch_13">
    <path clip-path="url(#pee72a8c435)" d="M -200.013939 258.361667 
L -194.221629 258.361667 
L -194.221629 258.361667 
L -200.013939 258.361667 
z
" style="fill:#7570b3;opacity:0.6;stroke:#000000;stroke-linejoin:miter;stroke-width:0.5;"/>
   </g>
   <g id="patch_14">
    <path clip-path="url(#pee72a8c435)" d="M -194.221629 258.361667 
L -188.429318 258.361667 
L -188.429318 258.361667 
L -194.221629 258.361667 
z
" style="fill:#7570b3;opacity:0.6;stroke:#000000;stroke-linejoin:miter;stroke-width:0.5;"/>
   </g>
   <g id="patch_15">
    <path clip-path="url(#pee72a8c435)" d="M -188.429318 258.361667 
L -182.637008 258.361667 
L -182.637008 258.361667 
L -188.429318 258.361667 
z
" style="fill:#7570b3;opacity:0.6;stroke:#000000;stroke-linejoin:miter;stroke-width:0.5;"/>
   </g>
   <g id="patch_16">
    <path clip-path="url(#pee72a8c435)" d="M -182.637008 258.361667 
L -176.844697 258.361667 
L -176.844697 258.361667 
L -182.637008 258.361667 
z
" style="fill:#7570b3;opacity:0.6;stroke:#000000;stroke-linejoin:miter;stroke-width:0.5;"/>
   </g>
   <g id="patch_17">
    <path clip-path="url(#pee72a8c435)" d="M -176.844697 258.361667 
L -171.052386 258.361667 
L -171.052386 258.361667 
L -176.844697 258.361667 
z
" style="fill:#7570b3;opacity:0.6;stroke:#000000;stroke-linejoin:miter;stroke-width:0.5;"/>
   </g>
   <g id="patch_18">
    <path clip-path="url(#pee72a8c435)" d="M -171.052386 258.361667 
L -165.260076 258.361667 
L -165.260076 258.361667 
L -171.052386 258.361667 
z
" style="fill:#7570b3;opacity:0.6;stroke:#000000;stroke-linejoin:miter;stroke-width:0.5;"/>
   </g>
   <g id="patch_19">
    <path clip-path="url(#pee72a8c435)" d="M -165.260076 258.361667 
L -159.467765 258.361667 
L -159.467765 258.361667 
L -165.260076 258.361667 
z
" style="fill:#7570b3;opacity:0.6;stroke:#000000;stroke-linejoin:miter;stroke-width:0.5;"/>
   </g>
   <g id="patch_20">
    <path clip-path="url(#pee72a8c435)" d="M -159.467765 258.361667 
L -153.675455 258.361667 
L -153.675455 258.361667 
L -159.467765 258.361667 
z
" style="fill:#7570b3;opacity:0.6;stroke:#000000;stroke-linejoin:miter;stroke-width:0.5;"/>
   </g>
   <g id="patch_21">
    <path clip-path="url(#pee72a8c435)" d="M -153.675455 258.361667 
L -147.883144 258.361667 
L -147.883144 258.361667 
L -153.675455 258.361667 
z
" style="fill:#7570b3;opacity:0.6;stroke:#000000;stroke-linejoin:miter;stroke-width:0.5;"/>
   </g>
   <g id="patch_22">
    <path clip-path="url(#pee72a8c435)" d="M -147.883144 258.361667 
L -142.090833 258.361667 
L -142.090833 258.361667 
L -147.883144 258.361667 
z
" style="fill:#7570b3;opacity:0.6;stroke:#000000;stroke-linejoin:miter;stroke-width:0.5;"/>
   </g>
   <g id="patch_23">
    <path clip-path="url(#pee72a8c435)" d="M -142.090833 258.361667 
L -136.298523 258.361667 
L -136.298523 258.361667 
L -142.090833 258.361667 
z
" style="fill:#7570b3;opacity:0.6;stroke:#000000;stroke-linejoin:miter;stroke-width:0.5;"/>
   </g>
   <g id="patch_24">
    <path clip-path="url(#pee72a8c435)" d="M -136.298523 258.361667 
L -130.506212 258.361667 
L -130.506212 258.361667 
L -136.298523 258.361667 
z
" style="fill:#7570b3;opacity:0.6;stroke:#000000;stroke-linejoin:miter;stroke-width:0.5;"/>
   </g>
   <g id="patch_25">
    <path clip-path="url(#pee72a8c435)" d="M -130.506212 258.361667 
L -124.713902 258.361667 
L -124.713902 258.361667 
L -130.506212 258.361667 
z
" style="fill:#7570b3;opacity:0.6;stroke:#000000;stroke-linejoin:miter;stroke-width:0.5;"/>
   </g>
   <g id="patch_26">
    <path clip-path="url(#pee72a8c435)" d="M -124.713902 258.361667 
L -118.921591 258.361667 
L -118.921591 258.361667 
L -124.713902 258.361667 
z
" style="fill:#7570b3;opacity:0.6;stroke:#000000;stroke-linejoin:miter;stroke-width:0.5;"/>
   </g>
   <g id="patch_27">
    <path clip-path="url(#pee72a8c435)" d="M -118.921591 258.361667 
L -113.12928 258.361667 
L -113.12928 258.361667 
L -118.921591 258.361667 
z
" style="fill:#7570b3;opacity:0.6;stroke:#000000;stroke-linejoin:miter;stroke-width:0.5;"/>
   </g>
   <g id="patch_28">
    <path clip-path="url(#pee72a8c435)" d="M -113.12928 258.361667 
L -107.33697 258.361667 
L -107.33697 258.361667 
L -113.12928 258.361667 
z
" style="fill:#7570b3;opacity:0.6;stroke:#000000;stroke-linejoin:miter;stroke-width:0.5;"/>
   </g>
   <g id="patch_29">
    <path clip-path="url(#pee72a8c435)" d="M -107.33697 258.361667 
L -101.544659 258.361667 
L -101.544659 258.361667 
L -107.33697 258.361667 
z
" style="fill:#7570b3;opacity:0.6;stroke:#000000;stroke-linejoin:miter;stroke-width:0.5;"/>
   </g>
   <g id="patch_30">
    <path clip-path="url(#pee72a8c435)" d="M -101.544659 258.361667 
L -95.752348 258.361667 
L -95.752348 258.361667 
L -101.544659 258.361667 
z
" style="fill:#7570b3;opacity:0.6;stroke:#000000;stroke-linejoin:miter;stroke-width:0.5;"/>
   </g>
   <g id="patch_31">
    <path clip-path="url(#pee72a8c435)" d="M -95.752348 258.361667 
L -89.960038 258.361667 
L -89.960038 257.66568 
L -95.752348 257.66568 
z
" style="fill:#7570b3;opacity:0.6;stroke:#000000;stroke-linejoin:miter;stroke-width:0.5;"/>
   </g>
   <g id="patch_32">
    <path clip-path="url(#pee72a8c435)" d="M -89.960038 258.361667 
L -84.167727 258.361667 
L -84.167727 250.009825 
L -89.960038 250.009825 
z
" style="fill:#7570b3;opacity:0.6;stroke:#000000;stroke-linejoin:miter;stroke-width:0.5;"/>
   </g>
   <g id="patch_33">
    <path clip-path="url(#pee72a8c435)" d="M -84.167727 258.361667 
L -78.375417 258.361667 
L -78.375417 218.690419 
L -84.167727 218.690419 
z
" style="fill:#7570b3;opacity:0.6;stroke:#000000;stroke-linejoin:miter;stroke-width:0.5;"/>
   </g>
   <g id="patch_34">
    <path clip-path="url(#pee72a8c435)" d="M -78.375417 258.361667 
L -72.583106 258.361667 
L -72.583106 130.300095 
L -78.375417 130.300095 
z
" style="fill:#7570b3;opacity:0.6;stroke:#000000;stroke-linejoin:miter;stroke-width:0.5;"/>
   </g>
   <g id="patch_35">
    <path clip-path="url(#pee72a8c435)" d="M -72.583106 258.361667 
L -66.790795 258.361667 
L -66.790795 92.020821 
L -72.583106 92.020821 
z
" style="fill:#7570b3;opacity:0.6;stroke:#000000;stroke-linejoin:miter;stroke-width:0.5;"/>
   </g>
   <g id="patch_36">
    <path clip-path="url(#pee72a8c435)" d="M -66.790795 258.361667 
L -60.998485 258.361667 
L -60.998485 144.915818 
L -66.790795 144.915818 
z
" style="fill:#7570b3;opacity:0.6;stroke:#000000;stroke-linejoin:miter;stroke-width:0.5;"/>
   </g>
   <g id="patch_37">
    <path clip-path="url(#pee72a8c435)" d="M -60.998485 258.361667 
L -55.206174 258.361667 
L -55.206174 195.722855 
L -60.998485 195.722855 
z
" style="fill:#7570b3;opacity:0.6;stroke:#000000;stroke-linejoin:miter;stroke-width:0.5;"/>
   </g>
   <g id="patch_38">
    <path clip-path="url(#pee72a8c435)" d="M -55.206174 258.361667 
L -49.413864 258.361667 
L -49.413864 219.386406 
L -55.206174 219.386406 
z
" style="fill:#7570b3;opacity:0.6;stroke:#000000;stroke-linejoin:miter;stroke-width:0.5;"/>
   </g>
   <g id="patch_39">
    <path clip-path="url(#pee72a8c435)" d="M -49.413864 258.361667 
L -43.621553 258.361667 
L -43.621553 231.218181 
L -49.413864 231.218181 
z
" style="fill:#7570b3;opacity:0.6;stroke:#000000;stroke-linejoin:miter;stroke-width:0.5;"/>
   </g>
   <g id="patch_40">
    <path clip-path="url(#pee72a8c435)" d="M -43.621553 258.361667 
L -37.829242 258.361667 
L -37.829242 231.218181 
L -43.621553 231.218181 
z
" style="fill:#7570b3;opacity:0.6;stroke:#000000;stroke-linejoin:miter;stroke-width:0.5;"/>
   </g>
   <g id="patch_41">
    <path clip-path="url(#pee72a8c435)" d="M -37.829242 258.361667 
L -32.036932 258.361667 
L -32.036932 41.909772 
L -37.829242 41.909772 
z
" style="fill:#7570b3;opacity:0.6;stroke:#000000;stroke-linejoin:miter;stroke-width:0.5;"/>
   </g>
   <g id="patch_42">
    <path clip-path="url(#pee72a8c435)" d="M -32.036932 258.361667 
L -26.244621 258.361667 
L -26.244621 199.898775 
L -32.036932 199.898775 
z
" style="fill:#7570b3;opacity:0.6;stroke:#000000;stroke-linejoin:miter;stroke-width:0.5;"/>
   </g>
   <g id="patch_43">
    <path clip-path="url(#pee72a8c435)" d="M -257.937045 258.361667 
L -252.144735 258.361667 
L -252.144735 258.361667 
L -257.937045 258.361667 
z
" style="fill:#d95f02;opacity:0.6;stroke:#000000;stroke-linejoin:miter;stroke-width:0.5;"/>
   </g>
   <g id="patch_44">
    <path clip-path="url(#pee72a8c435)" d="M -252.144735 258.361667 
L -246.352424 258.361667 
L -246.352424 258.361667 
L -252.144735 258.361667 
z
" style="fill:#d95f02;opacity:0.6;stroke:#000000;stroke-linejoin:miter;stroke-width:0.5;"/>
   </g>
   <g id="patch_45">
    <path clip-path="url(#pee72a8c435)" d="M -246.352424 258.361667 
L -240.560114 258.361667 
L -240.560114 258.361667 
L -246.352424 258.361667 
z
" style="fill:#d95f02;opacity:0.6;stroke:#000000;stroke-linejoin:miter;stroke-width:0.5;"/>
   </g>
   <g id="patch_46">
    <path clip-path="url(#pee72a8c435)" d="M -240.560114 258.361667 
L -234.767803 258.361667 
L -234.767803 258.361667 
L -240.560114 258.361667 
z
" style="fill:#d95f02;opacity:0.6;stroke:#000000;stroke-linejoin:miter;stroke-width:0.5;"/>
   </g>
   <g id="patch_47">
    <path clip-path="url(#pee72a8c435)" d="M -234.767803 258.361667 
L -228.975492 258.361667 
L -228.975492 258.361667 
L -234.767803 258.361667 
z
" style="fill:#d95f02;opacity:0.6;stroke:#000000;stroke-linejoin:miter;stroke-width:0.5;"/>
   </g>
   <g id="patch_48">
    <path clip-path="url(#pee72a8c435)" d="M -228.975492 258.361667 
L -223.183182 258.361667 
L -223.183182 258.361667 
L -228.975492 258.361667 
z
" style="fill:#d95f02;opacity:0.6;stroke:#000000;stroke-linejoin:miter;stroke-width:0.5;"/>
   </g>
   <g id="patch_49">
    <path clip-path="url(#pee72a8c435)" d="M -223.183182 258.361667 
L -217.390871 258.361667 
L -217.390871 258.361667 
L -223.183182 258.361667 
z
" style="fill:#d95f02;opacity:0.6;stroke:#000000;stroke-linejoin:miter;stroke-width:0.5;"/>
   </g>
   <g id="patch_50">
    <path clip-path="url(#pee72a8c435)" d="M -217.390871 258.361667 
L -211.598561 258.361667 
L -211.598561 258.361667 
L -217.390871 258.361667 
z
" style="fill:#d95f02;opacity:0.6;stroke:#000000;stroke-linejoin:miter;stroke-width:0.5;"/>
   </g>
   <g id="patch_51">
    <path clip-path="url(#pee72a8c435)" d="M -211.598561 258.361667 
L -205.80625 258.361667 
L -205.80625 258.361667 
L -211.598561 258.361667 
z
" style="fill:#d95f02;opacity:0.6;stroke:#000000;stroke-linejoin:miter;stroke-width:0.5;"/>
   </g>
   <g id="patch_52">
    <path clip-path="url(#pee72a8c435)" d="M -205.80625 258.361667 
L -200.013939 258.361667 
L -200.013939 258.361667 
L -205.80625 258.361667 
z
" style="fill:#d95f02;opacity:0.6;stroke:#000000;stroke-linejoin:miter;stroke-width:0.5;"/>
   </g>
   <g id="patch_53">
    <path clip-path="url(#pee72a8c435)" d="M -200.013939 258.361667 
L -194.221629 258.361667 
L -194.221629 258.361667 
L -200.013939 258.361667 
z
" style="fill:#d95f02;opacity:0.6;stroke:#000000;stroke-linejoin:miter;stroke-width:0.5;"/>
   </g>
   <g id="patch_54">
    <path clip-path="url(#pee72a8c435)" d="M -194.221629 258.361667 
L -188.429318 258.361667 
L -188.429318 258.361667 
L -194.221629 258.361667 
z
" style="fill:#d95f02;opacity:0.6;stroke:#000000;stroke-linejoin:miter;stroke-width:0.5;"/>
   </g>
   <g id="patch_55">
    <path clip-path="url(#pee72a8c435)" d="M -188.429318 258.361667 
L -182.637008 258.361667 
L -182.637008 258.361667 
L -188.429318 258.361667 
z
" style="fill:#d95f02;opacity:0.6;stroke:#000000;stroke-linejoin:miter;stroke-width:0.5;"/>
   </g>
   <g id="patch_56">
    <path clip-path="url(#pee72a8c435)" d="M -182.637008 258.361667 
L -176.844697 258.361667 
L -176.844697 258.361667 
L -182.637008 258.361667 
z
" style="fill:#d95f02;opacity:0.6;stroke:#000000;stroke-linejoin:miter;stroke-width:0.5;"/>
   </g>
   <g id="patch_57">
    <path clip-path="url(#pee72a8c435)" d="M -176.844697 258.361667 
L -171.052386 258.361667 
L -171.052386 258.361667 
L -176.844697 258.361667 
z
" style="fill:#d95f02;opacity:0.6;stroke:#000000;stroke-linejoin:miter;stroke-width:0.5;"/>
   </g>
   <g id="patch_58">
    <path clip-path="url(#pee72a8c435)" d="M -171.052386 258.361667 
L -165.260076 258.361667 
L -165.260076 258.361667 
L -171.052386 258.361667 
z
" style="fill:#d95f02;opacity:0.6;stroke:#000000;stroke-linejoin:miter;stroke-width:0.5;"/>
   </g>
   <g id="patch_59">
    <path clip-path="url(#pee72a8c435)" d="M -165.260076 258.361667 
L -159.467765 258.361667 
L -159.467765 258.361667 
L -165.260076 258.361667 
z
" style="fill:#d95f02;opacity:0.6;stroke:#000000;stroke-linejoin:miter;stroke-width:0.5;"/>
   </g>
   <g id="patch_60">
    <path clip-path="url(#pee72a8c435)" d="M -159.467765 258.361667 
L -153.675455 258.361667 
L -153.675455 258.361667 
L -159.467765 258.361667 
z
" style="fill:#d95f02;opacity:0.6;stroke:#000000;stroke-linejoin:miter;stroke-width:0.5;"/>
   </g>
   <g id="patch_61">
    <path clip-path="url(#pee72a8c435)" d="M -153.675455 258.361667 
L -147.883144 258.361667 
L -147.883144 258.361667 
L -153.675455 258.361667 
z
" style="fill:#d95f02;opacity:0.6;stroke:#000000;stroke-linejoin:miter;stroke-width:0.5;"/>
   </g>
   <g id="patch_62">
    <path clip-path="url(#pee72a8c435)" d="M -147.883144 258.361667 
L -142.090833 258.361667 
L -142.090833 258.361667 
L -147.883144 258.361667 
z
" style="fill:#d95f02;opacity:0.6;stroke:#000000;stroke-linejoin:miter;stroke-width:0.5;"/>
   </g>
   <g id="patch_63">
    <path clip-path="url(#pee72a8c435)" d="M -142.090833 258.361667 
L -136.298523 258.361667 
L -136.298523 258.361667 
L -142.090833 258.361667 
z
" style="fill:#d95f02;opacity:0.6;stroke:#000000;stroke-linejoin:miter;stroke-width:0.5;"/>
   </g>
   <g id="patch_64">
    <path clip-path="url(#pee72a8c435)" d="M -136.298523 258.361667 
L -130.506212 258.361667 
L -130.506212 258.361667 
L -136.298523 258.361667 
z
" style="fill:#d95f02;opacity:0.6;stroke:#000000;stroke-linejoin:miter;stroke-width:0.5;"/>
   </g>
   <g id="patch_65">
    <path clip-path="url(#pee72a8c435)" d="M -130.506212 258.361667 
L -124.713902 258.361667 
L -124.713902 258.361667 
L -130.506212 258.361667 
z
" style="fill:#d95f02;opacity:0.6;stroke:#000000;stroke-linejoin:miter;stroke-width:0.5;"/>
   </g>
   <g id="patch_66">
    <path clip-path="url(#pee72a8c435)" d="M -124.713902 258.361667 
L -118.921591 258.361667 
L -118.921591 258.361667 
L -124.713902 258.361667 
z
" style="fill:#d95f02;opacity:0.6;stroke:#000000;stroke-linejoin:miter;stroke-width:0.5;"/>
   </g>
   <g id="patch_67">
    <path clip-path="url(#pee72a8c435)" d="M -118.921591 258.361667 
L -113.12928 258.361667 
L -113.12928 258.361667 
L -118.921591 258.361667 
z
" style="fill:#d95f02;opacity:0.6;stroke:#000000;stroke-linejoin:miter;stroke-width:0.5;"/>
   </g>
   <g id="patch_68">
    <path clip-path="url(#pee72a8c435)" d="M -113.12928 258.361667 
L -107.33697 258.361667 
L -107.33697 258.361667 
L -113.12928 258.361667 
z
" style="fill:#d95f02;opacity:0.6;stroke:#000000;stroke-linejoin:miter;stroke-width:0.5;"/>
   </g>
   <g id="patch_69">
    <path clip-path="url(#pee72a8c435)" d="M -107.33697 258.361667 
L -101.544659 258.361667 
L -101.544659 258.361667 
L -107.33697 258.361667 
z
" style="fill:#d95f02;opacity:0.6;stroke:#000000;stroke-linejoin:miter;stroke-width:0.5;"/>
   </g>
   <g id="patch_70">
    <path clip-path="url(#pee72a8c435)" d="M -101.544659 258.361667 
L -95.752348 258.361667 
L -95.752348 258.361667 
L -101.544659 258.361667 
z
" style="fill:#d95f02;opacity:0.6;stroke:#000000;stroke-linejoin:miter;stroke-width:0.5;"/>
   </g>
   <g id="patch_71">
    <path clip-path="url(#pee72a8c435)" d="M -95.752348 258.361667 
L -89.960038 258.361667 
L -89.960038 258.361667 
L -95.752348 258.361667 
z
" style="fill:#d95f02;opacity:0.6;stroke:#000000;stroke-linejoin:miter;stroke-width:0.5;"/>
   </g>
   <g id="patch_72">
    <path clip-path="url(#pee72a8c435)" d="M -89.960038 258.361667 
L -84.167727 258.361667 
L -84.167727 247.921865 
L -89.960038 247.921865 
z
" style="fill:#d95f02;opacity:0.6;stroke:#000000;stroke-linejoin:miter;stroke-width:0.5;"/>
   </g>
   <g id="patch_73">
    <path clip-path="url(#pee72a8c435)" d="M -84.167727 258.361667 
L -78.375417 258.361667 
L -78.375417 195.722855 
L -84.167727 195.722855 
z
" style="fill:#d95f02;opacity:0.6;stroke:#000000;stroke-linejoin:miter;stroke-width:0.5;"/>
   </g>
   <g id="patch_74">
    <path clip-path="url(#pee72a8c435)" d="M -78.375417 258.361667 
L -72.583106 258.361667 
L -72.583106 46.955676 
L -78.375417 46.955676 
z
" style="fill:#d95f02;opacity:0.6;stroke:#000000;stroke-linejoin:miter;stroke-width:0.5;"/>
   </g>
   <g id="patch_75">
    <path clip-path="url(#pee72a8c435)" d="M -72.583106 258.361667 
L -66.790795 258.361667 
L -66.790795 15.63627 
L -72.583106 15.63627 
z
" style="fill:#d95f02;opacity:0.6;stroke:#000000;stroke-linejoin:miter;stroke-width:0.5;"/>
   </g>
   <g id="patch_76">
    <path clip-path="url(#pee72a8c435)" d="M -66.790795 258.361667 
L -60.998485 258.361667 
L -60.998485 67.83528 
L -66.790795 67.83528 
z
" style="fill:#d95f02;opacity:0.6;stroke:#000000;stroke-linejoin:miter;stroke-width:0.5;"/>
   </g>
   <g id="patch_77">
    <path clip-path="url(#pee72a8c435)" d="M -60.998485 258.361667 
L -55.206174 258.361667 
L -55.206174 174.843251 
L -60.998485 174.843251 
z
" style="fill:#d95f02;opacity:0.6;stroke:#000000;stroke-linejoin:miter;stroke-width:0.5;"/>
   </g>
   <g id="patch_78">
    <path clip-path="url(#pee72a8c435)" d="M -55.206174 258.361667 
L -49.413864 258.361667 
L -49.413864 219.212409 
L -55.206174 219.212409 
z
" style="fill:#d95f02;opacity:0.6;stroke:#000000;stroke-linejoin:miter;stroke-width:0.5;"/>
   </g>
   <g id="patch_79">
    <path clip-path="url(#pee72a8c435)" d="M -49.413864 258.361667 
L -43.621553 258.361667 
L -43.621553 247.921865 
L -49.413864 247.921865 
z
" style="fill:#d95f02;opacity:0.6;stroke:#000000;stroke-linejoin:miter;stroke-width:0.5;"/>
   </g>
   <g id="patch_80">
    <path clip-path="url(#pee72a8c435)" d="M -43.621553 258.361667 
L -37.829242 258.361667 
L -37.829242 245.311914 
L -43.621553 245.311914 
z
" style="fill:#d95f02;opacity:0.6;stroke:#000000;stroke-linejoin:miter;stroke-width:0.5;"/>
   </g>
   <g id="patch_81">
    <path clip-path="url(#pee72a8c435)" d="M -37.829242 258.361667 
L -32.036932 258.361667 
L -32.036932 234.872112 
L -37.829242 234.872112 
z
" style="fill:#d95f02;opacity:0.6;stroke:#000000;stroke-linejoin:miter;stroke-width:0.5;"/>
   </g>
   <g id="patch_82">
    <path clip-path="url(#pee72a8c435)" d="M -32.036932 258.361667 
L -26.244621 258.361667 
L -26.244621 258.361667 
L -32.036932 258.361667 
z
" style="fill:#d95f02;opacity:0.6;stroke:#000000;stroke-linejoin:miter;stroke-width:0.5;"/>
   </g>
   <g id="matplotlib.axis_1">
    <g id="xtick_1">
     <g id="line2d_1">
      <defs>
       <path d="M 0 0 
L 0 3.5 
" id="mab5f804901" style="stroke:#000000;stroke-width:1.6;"/>
      </defs>
      <g/>
     </g>
     <g id="text_1">
      <!-- 0.0 -->
      <defs>
       <path d="M 31.78125 66.40625 
Q 24.171875 66.40625 20.328125 58.90625 
Q 16.5 51.421875 16.5 36.375 
Q 16.5 21.390625 20.328125 13.890625 
Q 24.171875 6.390625 31.78125 6.390625 
Q 39.453125 6.390625 43.28125 13.890625 
Q 47.125 21.390625 47.125 36.375 
Q 47.125 51.421875 43.28125 58.90625 
Q 39.453125 66.40625 31.78125 66.40625 
z
M 31.78125 74.21875 
Q 44.046875 74.21875 50.515625 64.515625 
Q 56.984375 54.828125 56.984375 36.375 
Q 56.984375 17.96875 50.515625 8.265625 
Q 44.046875 -1.421875 31.78125 -1.421875 
Q 19.53125 -1.421875 13.0625 8.265625 
Q 6.59375 17.96875 6.59375 36.375 
Q 6.59375 54.828125 13.0625 64.515625 
Q 19.53125 74.21875 31.78125 74.21875 
z
" id="DejaVuSans-48"/>
       <path d="M 10.6875 12.40625 
L 21 12.40625 
L 21 0 
L 10.6875 0 
z
" id="DejaVuSans-46"/>
      </defs>
      <g transform="translate(-273.84017 288.258542)scale(0.2 -0.2)">
       <use xlink:href="#DejaVuSans-48"/>
       <use x="63.623047" xlink:href="#DejaVuSans-46"/>
       <use x="95.410156" xlink:href="#DejaVuSans-48"/>
      </g>
     </g>
    </g>
    <g id="xtick_2">
     <g id="line2d_2">
      <g/>
     </g>
     <g id="text_2">
      <!-- 0.2 -->
      <defs>
       <path d="M 19.1875 8.296875 
L 53.609375 8.296875 
L 53.609375 0 
L 7.328125 0 
L 7.328125 8.296875 
Q 12.9375 14.109375 22.625 23.890625 
Q 32.328125 33.6875 34.8125 36.53125 
Q 39.546875 41.84375 41.421875 45.53125 
Q 43.3125 49.21875 43.3125 52.78125 
Q 43.3125 58.59375 39.234375 62.25 
Q 35.15625 65.921875 28.609375 65.921875 
Q 23.96875 65.921875 18.8125 64.3125 
Q 13.671875 62.703125 7.8125 59.421875 
L 7.8125 69.390625 
Q 13.765625 71.78125 18.9375 73 
Q 24.125 74.21875 28.421875 74.21875 
Q 39.75 74.21875 46.484375 68.546875 
Q 53.21875 62.890625 53.21875 53.421875 
Q 53.21875 48.921875 51.53125 44.890625 
Q 49.859375 40.875 45.40625 35.40625 
Q 44.1875 33.984375 37.640625 27.21875 
Q 31.109375 20.453125 19.1875 8.296875 
z
" id="DejaVuSans-50"/>
      </defs>
      <g transform="translate(-207.642335 288.258542)scale(0.2 -0.2)">
       <use xlink:href="#DejaVuSans-48"/>
       <use x="63.623047" xlink:href="#DejaVuSans-46"/>
       <use x="95.410156" xlink:href="#DejaVuSans-50"/>
      </g>
     </g>
    </g>
    <g id="xtick_3">
     <g id="line2d_3">
      <g/>
     </g>
     <g id="text_3">
      <!-- 0.4 -->
      <defs>
       <path d="M 37.796875 64.3125 
L 12.890625 25.390625 
L 37.796875 25.390625 
z
M 35.203125 72.90625 
L 47.609375 72.90625 
L 47.609375 25.390625 
L 58.015625 25.390625 
L 58.015625 17.1875 
L 47.609375 17.1875 
L 47.609375 0 
L 37.796875 0 
L 37.796875 17.1875 
L 4.890625 17.1875 
L 4.890625 26.703125 
z
" id="DejaVuSans-52"/>
      </defs>
      <g transform="translate(-141.444499 288.258542)scale(0.2 -0.2)">
       <use xlink:href="#DejaVuSans-48"/>
       <use x="63.623047" xlink:href="#DejaVuSans-46"/>
       <use x="95.410156" xlink:href="#DejaVuSans-52"/>
      </g>
     </g>
    </g>
    <g id="xtick_4">
     <g id="line2d_4">
      <g/>
     </g>
     <g id="text_4">
      <!-- 0.6 -->
      <defs>
       <path d="M 33.015625 40.375 
Q 26.375 40.375 22.484375 35.828125 
Q 18.609375 31.296875 18.609375 23.390625 
Q 18.609375 15.53125 22.484375 10.953125 
Q 26.375 6.390625 33.015625 6.390625 
Q 39.65625 6.390625 43.53125 10.953125 
Q 47.40625 15.53125 47.40625 23.390625 
Q 47.40625 31.296875 43.53125 35.828125 
Q 39.65625 40.375 33.015625 40.375 
z
M 52.59375 71.296875 
L 52.59375 62.3125 
Q 48.875 64.0625 45.09375 64.984375 
Q 41.3125 65.921875 37.59375 65.921875 
Q 27.828125 65.921875 22.671875 59.328125 
Q 17.53125 52.734375 16.796875 39.40625 
Q 19.671875 43.65625 24.015625 45.921875 
Q 28.375 48.1875 33.59375 48.1875 
Q 44.578125 48.1875 50.953125 41.515625 
Q 57.328125 34.859375 57.328125 23.390625 
Q 57.328125 12.15625 50.6875 5.359375 
Q 44.046875 -1.421875 33.015625 -1.421875 
Q 20.359375 -1.421875 13.671875 8.265625 
Q 6.984375 17.96875 6.984375 36.375 
Q 6.984375 53.65625 15.1875 63.9375 
Q 23.390625 74.21875 37.203125 74.21875 
Q 40.921875 74.21875 44.703125 73.484375 
Q 48.484375 72.75 52.59375 71.296875 
z
" id="DejaVuSans-54"/>
      </defs>
      <g transform="translate(-75.246664 288.258542)scale(0.2 -0.2)">
       <use xlink:href="#DejaVuSans-48"/>
       <use x="63.623047" xlink:href="#DejaVuSans-46"/>
       <use x="95.410156" xlink:href="#DejaVuSans-54"/>
      </g>
     </g>
    </g>
    <g id="text_5">
     <!--   -->
     <defs>
      <path id="DejaVuSans-32"/>
     </defs>
     <g transform="translate(-145.268958 311.614792)scale(0.2 -0.2)">
      <use xlink:href="#DejaVuSans-32"/>
     </g>
    </g>
   </g>
   <g id="matplotlib.axis_2">
    <g id="ytick_1">
     <g id="line2d_5">
      <defs>
       <path d="M 0 0 
L -3.5 0 
" id="m72c920a9f8" style="stroke:#000000;stroke-width:1.6;"/>
      </defs>
      <g/>
     </g>
     <g id="text_6">
      <!-- 0.00 -->
      <g transform="translate(-328.752917 265.960104)scale(0.2 -0.2)">
       <use xlink:href="#DejaVuSans-48"/>
       <use x="63.623047" xlink:href="#DejaVuSans-46"/>
       <use x="95.410156" xlink:href="#DejaVuSans-48"/>
       <use x="159.033203" xlink:href="#DejaVuSans-48"/>
      </g>
     </g>
    </g>
    <g id="ytick_2">
     <g id="line2d_6">
      <g/>
     </g>
     <g id="text_7">
      <!-- 0.05 -->
      <defs>
       <path d="M 10.796875 72.90625 
L 49.515625 72.90625 
L 49.515625 64.59375 
L 19.828125 64.59375 
L 19.828125 46.734375 
Q 21.96875 47.46875 24.109375 47.828125 
Q 26.265625 48.1875 28.421875 48.1875 
Q 40.625 48.1875 47.75 41.5 
Q 54.890625 34.8125 54.890625 23.390625 
Q 54.890625 11.625 47.5625 5.09375 
Q 40.234375 -1.421875 26.90625 -1.421875 
Q 22.3125 -1.421875 17.546875 -0.640625 
Q 12.796875 0.140625 7.71875 1.703125 
L 7.71875 11.625 
Q 12.109375 9.234375 16.796875 8.0625 
Q 21.484375 6.890625 26.703125 6.890625 
Q 35.15625 6.890625 40.078125 11.328125 
Q 45.015625 15.765625 45.015625 23.390625 
Q 45.015625 31 40.078125 35.4375 
Q 35.15625 39.890625 26.703125 39.890625 
Q 22.75 39.890625 18.8125 39.015625 
Q 14.890625 38.140625 10.796875 36.28125 
z
" id="DejaVuSans-53"/>
      </defs>
      <g transform="translate(-328.752917 221.590946)scale(0.2 -0.2)">
       <use xlink:href="#DejaVuSans-48"/>
       <use x="63.623047" xlink:href="#DejaVuSans-46"/>
       <use x="95.410156" xlink:href="#DejaVuSans-48"/>
       <use x="159.033203" xlink:href="#DejaVuSans-53"/>
      </g>
     </g>
    </g>
    <g id="ytick_3">
     <g id="line2d_7">
      <g/>
     </g>
     <g id="text_8">
      <!-- 0.10 -->
      <defs>
       <path d="M 12.40625 8.296875 
L 28.515625 8.296875 
L 28.515625 63.921875 
L 10.984375 60.40625 
L 10.984375 69.390625 
L 28.421875 72.90625 
L 38.28125 72.90625 
L 38.28125 8.296875 
L 54.390625 8.296875 
L 54.390625 0 
L 12.40625 0 
z
" id="DejaVuSans-49"/>
      </defs>
      <g transform="translate(-328.752917 177.221787)scale(0.2 -0.2)">
       <use xlink:href="#DejaVuSans-48"/>
       <use x="63.623047" xlink:href="#DejaVuSans-46"/>
       <use x="95.410156" xlink:href="#DejaVuSans-49"/>
       <use x="159.033203" xlink:href="#DejaVuSans-48"/>
      </g>
     </g>
    </g>
    <g id="ytick_4">
     <g id="line2d_8">
      <g/>
     </g>
     <g id="text_9">
      <!-- 0.15 -->
      <g transform="translate(-328.752917 132.852628)scale(0.2 -0.2)">
       <use xlink:href="#DejaVuSans-48"/>
       <use x="63.623047" xlink:href="#DejaVuSans-46"/>
       <use x="95.410156" xlink:href="#DejaVuSans-49"/>
       <use x="159.033203" xlink:href="#DejaVuSans-53"/>
      </g>
     </g>
    </g>
    <g id="ytick_5">
     <g id="line2d_9">
      <g/>
     </g>
     <g id="text_10">
      <!-- 0.20 -->
      <g transform="translate(-328.752917 88.48347)scale(0.2 -0.2)">
       <use xlink:href="#DejaVuSans-48"/>
       <use x="63.623047" xlink:href="#DejaVuSans-46"/>
       <use x="95.410156" xlink:href="#DejaVuSans-50"/>
       <use x="159.033203" xlink:href="#DejaVuSans-48"/>
      </g>
     </g>
    </g>
    <g id="ytick_6">
     <g id="line2d_10">
      <g/>
     </g>
     <g id="text_11">
      <!-- 0.25 -->
      <g transform="translate(-328.752917 44.114311)scale(0.2 -0.2)">
       <use xlink:href="#DejaVuSans-48"/>
       <use x="63.623047" xlink:href="#DejaVuSans-46"/>
       <use x="95.410156" xlink:href="#DejaVuSans-50"/>
       <use x="159.033203" xlink:href="#DejaVuSans-53"/>
      </g>
     </g>
    </g>
    <g id="text_12">
     <!--   -->
     <g transform="translate(-336.413167 133.727583)rotate(-90)scale(0.176 -0.176)">
      <use xlink:href="#DejaVuSans-32"/>
     </g>
    </g>
   </g>
   <g id="patch_83">
    <path style="fill:none;stroke:#000000;stroke-linecap:square;stroke-linejoin:miter;stroke-width:0.8;"/>
   </g>
   <g id="patch_84">
    <path style="fill:none;stroke:#000000;stroke-linecap:square;stroke-linejoin:miter;stroke-width:0.8;"/>
   </g>
  </g>
  <g id="axes_2">
   <g id="patch_85">
    <path d="M 96.7 258.361667 
L 351.561667 258.361667 
L 351.561667 3.5 
L 96.7 3.5 
z
" style="fill:#ffffff;"/>
   </g>
   <g id="PolyCollection_1">
    <defs>
     <path d="M 284.345446 -296.275861 
L 284.345446 -296.618223 
L 284.991236 -296.662106 
L 285.637025 -296.715055 
L 286.282814 -296.778296 
L 286.928604 -296.853074 
L 287.574393 -296.94063 
L 288.220182 -297.042191 
L 288.865972 -297.158962 
L 289.511761 -297.292126 
L 290.157551 -297.442843 
L 290.80334 -297.612246 
L 291.449129 -297.801427 
L 292.094919 -298.011404 
L 292.740708 -298.243061 
L 293.386497 -298.49707 
L 294.032287 -298.773775 
L 294.678076 -299.073067 
L 295.323866 -299.394242 
L 295.969655 -299.735874 
L 296.615444 -300.095699 
L 297.261234 -300.47055 
L 297.907023 -300.856345 
L 298.552812 -301.248143 
L 299.198602 -301.640266 
L 299.844391 -302.026501 
L 300.490181 -302.400338 
L 301.13597 -302.755255 
L 301.781759 -303.085003 
L 302.427549 -303.383874 
L 303.073338 -303.646925 
L 303.719127 -303.870141 
L 304.364917 -304.050531 
L 305.010706 -304.186157 
L 305.656495 -304.276095 
L 306.302285 -304.320375 
L 306.948074 -304.319874 
L 307.593864 -304.276219 
L 308.239653 -304.191683 
L 308.885442 -304.069091 
L 309.531232 -303.911736 
L 310.177021 -303.723285 
L 310.82281 -303.507692 
L 311.4686 -303.269098 
L 312.114389 -303.011725 
L 312.760179 -302.739776 
L 313.405968 -302.457334 
L 314.051757 -302.168293 
L 314.697547 -301.876302 
L 315.343336 -301.584738 
L 315.989125 -301.296706 
L 316.634915 -301.015042 
L 317.280704 -300.74232 
L 317.926494 -300.48085 
L 318.572283 -300.232658 
L 319.218072 -299.999443 
L 319.863862 -299.782526 
L 320.509651 -299.582791 
L 321.15544 -299.40064 
L 321.80123 -299.23597 
L 322.447019 -299.088187 
L 323.092809 -298.956253 
L 323.738598 -298.838783 
L 324.384387 -298.734165 
L 325.030177 -298.640707 
L 325.675966 -298.556799 
L 326.321755 -298.481066 
L 326.967545 -298.412524 
L 327.613334 -298.350705 
L 328.259124 -298.295778 
L 328.904913 -298.248636 
L 329.550702 -298.210975 
L 330.196492 -298.185347 
L 330.842281 -298.175187 
L 331.48807 -298.18481 
L 332.13386 -298.219351 
L 332.779649 -298.284639 
L 333.425438 -298.386967 
L 334.071228 -298.53274 
L 334.717017 -298.727993 
L 335.362807 -298.977768 
L 336.008596 -299.285376 
L 336.654385 -299.651606 
L 337.300175 -300.073949 
L 337.945964 -300.545944 
L 338.591753 -301.056763 
L 339.237543 -301.591144 
L 339.883332 -302.129756 
L 340.529122 -302.650041 
L 341.174911 -303.12751 
L 341.8207 -303.537415 
L 342.46649 -303.85664 
L 343.112279 -304.06563 
L 343.758068 -304.150117 
L 344.403858 -304.102457 
L 345.049647 -303.922384 
L 345.695437 -303.617102 
L 346.341226 -303.20067 
L 346.987015 -302.692785 
L 347.632805 -302.117085 
L 348.278594 -301.499193 
L 348.278594 -291.394891 
L 348.278594 -291.394891 
L 347.632805 -290.776998 
L 346.987015 -290.201298 
L 346.341226 -289.693414 
L 345.695437 -289.276982 
L 345.049647 -288.971699 
L 344.403858 -288.791627 
L 343.758068 -288.743966 
L 343.112279 -288.828454 
L 342.46649 -289.037443 
L 341.8207 -289.356669 
L 341.174911 -289.766573 
L 340.529122 -290.244043 
L 339.883332 -290.764327 
L 339.237543 -291.30294 
L 338.591753 -291.83732 
L 337.945964 -292.348139 
L 337.300175 -292.820134 
L 336.654385 -293.242477 
L 336.008596 -293.608708 
L 335.362807 -293.916316 
L 334.717017 -294.16609 
L 334.071228 -294.361343 
L 333.425438 -294.507116 
L 332.779649 -294.609444 
L 332.13386 -294.674732 
L 331.48807 -294.709274 
L 330.842281 -294.718896 
L 330.196492 -294.708736 
L 329.550702 -294.683108 
L 328.904913 -294.645447 
L 328.259124 -294.598305 
L 327.613334 -294.543378 
L 326.967545 -294.48156 
L 326.321755 -294.413017 
L 325.675966 -294.337285 
L 325.030177 -294.253376 
L 324.384387 -294.159918 
L 323.738598 -294.0553 
L 323.092809 -293.93783 
L 322.447019 -293.805897 
L 321.80123 -293.658113 
L 321.15544 -293.493443 
L 320.509651 -293.311292 
L 319.863862 -293.111557 
L 319.218072 -292.89464 
L 318.572283 -292.661425 
L 317.926494 -292.413233 
L 317.280704 -292.151764 
L 316.634915 -291.879041 
L 315.989125 -291.597377 
L 315.343336 -291.309345 
L 314.697547 -291.017782 
L 314.051757 -290.72579 
L 313.405968 -290.436749 
L 312.760179 -290.154308 
L 312.114389 -289.882358 
L 311.4686 -289.624985 
L 310.82281 -289.386391 
L 310.177021 -289.170798 
L 309.531232 -288.982347 
L 308.885442 -288.824992 
L 308.239653 -288.702401 
L 307.593864 -288.617864 
L 306.948074 -288.574209 
L 306.302285 -288.573708 
L 305.656495 -288.617988 
L 305.010706 -288.707927 
L 304.364917 -288.843552 
L 303.719127 -289.023943 
L 303.073338 -289.247159 
L 302.427549 -289.510209 
L 301.781759 -289.80908 
L 301.13597 -290.138828 
L 300.490181 -290.493745 
L 299.844391 -290.867582 
L 299.198602 -291.253817 
L 298.552812 -291.645941 
L 297.907023 -292.037738 
L 297.261234 -292.423533 
L 296.615444 -292.798384 
L 295.969655 -293.158209 
L 295.323866 -293.499841 
L 294.678076 -293.821017 
L 294.032287 -294.120308 
L 293.386497 -294.397013 
L 292.740708 -294.651022 
L 292.094919 -294.88268 
L 291.449129 -295.092656 
L 290.80334 -295.281838 
L 290.157551 -295.451241 
L 289.511761 -295.601957 
L 288.865972 -295.735121 
L 288.220182 -295.851892 
L 287.574393 -295.953453 
L 286.928604 -296.041009 
L 286.282814 -296.115787 
L 285.637025 -296.179028 
L 284.991236 -296.231977 
L 284.345446 -296.275861 
z
" id="m1e64edca3c" style="stroke:#424242;"/>
    </defs>
    <g clip-path="url(#p5ef5b41cfd)">
     <use style="fill:#7c78ab;stroke:#424242;" x="0" xlink:href="#m1e64edca3c" y="319.061667"/>
    </g>
   </g>
   <g id="PolyCollection_2">
    <defs>
     <path d="M 287.388794 -270.587613 
L 287.388794 -271.334137 
L 287.976696 -271.422883 
L 288.564598 -271.530297 
L 289.1525 -271.660264 
L 289.740401 -271.817061 
L 290.328303 -272.0051 
L 290.916205 -272.228602 
L 291.504107 -272.491245 
L 292.092009 -272.795871 
L 292.679911 -273.144299 
L 293.267813 -273.537302 
L 293.855715 -273.974737 
L 294.443616 -274.455765 
L 295.031518 -274.979046 
L 295.61942 -275.542783 
L 296.207322 -276.144527 
L 296.795224 -276.780729 
L 297.383126 -277.446131 
L 297.971028 -278.133174 
L 298.558929 -278.831646 
L 299.146831 -279.528754 
L 299.734733 -280.209717 
L 300.322635 -280.858828 
L 300.910537 -281.460822 
L 301.498439 -282.002283 
L 302.086341 -282.472846 
L 302.674243 -282.865976 
L 303.262144 -283.179231 
L 303.850046 -283.414023 
L 304.437948 -283.574957 
L 305.02585 -283.668909 
L 305.613752 -283.703958 
L 306.201654 -283.688337 
L 306.789556 -283.629468 
L 307.377457 -283.533212 
L 307.965359 -283.40338 
L 308.553261 -283.241569 
L 309.141163 -283.047348 
L 309.729065 -282.818754 
L 310.316967 -282.553021 
L 310.904869 -282.247415 
L 311.492771 -281.90004 
L 312.080672 -281.510483 
L 312.668574 -281.080234 
L 313.256476 -280.612839 
L 313.844378 -280.113814 
L 314.43228 -279.590364 
L 315.020182 -279.050959 
L 315.608084 -278.504817 
L 316.195985 -277.96135 
L 316.783887 -277.429592 
L 317.371789 -276.917679 
L 317.959691 -276.432421 
L 318.547593 -275.979008 
L 319.135495 -275.560886 
L 319.723397 -275.179794 
L 320.311299 -274.835919 
L 320.8992 -274.528133 
L 321.487102 -274.254224 
L 322.075004 -274.011099 
L 322.662906 -273.794949 
L 323.250808 -273.601402 
L 323.83871 -273.425721 
L 324.426612 -273.263081 
L 325.014513 -273.108945 
L 325.602415 -272.959507 
L 326.190317 -272.812122 
L 326.778219 -272.665635 
L 327.366121 -272.520511 
L 327.954023 -272.378735 
L 328.541925 -272.243449 
L 329.129827 -272.118416 
L 329.717728 -272.007372 
L 330.30563 -271.913404 
L 330.893532 -271.83844 
L 331.481434 -271.782936 
L 332.069336 -271.745817 
L 332.657238 -271.724659 
L 333.24514 -271.716091 
L 333.833041 -271.716356 
L 334.420943 -271.72191 
L 335.008845 -271.729975 
L 335.596747 -271.738909 
L 336.184649 -271.748317 
L 336.772551 -271.758863 
L 337.360453 -271.771806 
L 337.948355 -271.788366 
L 338.536256 -271.809072 
L 339.124158 -271.833248 
L 339.71206 -271.858792 
L 340.299962 -271.882305 
L 340.887864 -271.899558 
L 341.475766 -271.906193 
L 342.063668 -271.898489 
L 342.651569 -271.874023 
L 343.239471 -271.832088 
L 343.827373 -271.773796 
L 344.415275 -271.701869 
L 345.003177 -271.620195 
L 345.591079 -271.533255 
L 345.591079 -270.388495 
L 345.591079 -270.388495 
L 345.003177 -270.301555 
L 344.415275 -270.219881 
L 343.827373 -270.147954 
L 343.239471 -270.089662 
L 342.651569 -270.047727 
L 342.063668 -270.023261 
L 341.475766 -270.015557 
L 340.887864 -270.022192 
L 340.299962 -270.039445 
L 339.71206 -270.062958 
L 339.124158 -270.088502 
L 338.536256 -270.112678 
L 337.948355 -270.133384 
L 337.360453 -270.149944 
L 336.772551 -270.162887 
L 336.184649 -270.173433 
L 335.596747 -270.182841 
L 335.008845 -270.191775 
L 334.420943 -270.19984 
L 333.833041 -270.205394 
L 333.24514 -270.205659 
L 332.657238 -270.197091 
L 332.069336 -270.175933 
L 331.481434 -270.138814 
L 330.893532 -270.08331 
L 330.30563 -270.008346 
L 329.717728 -269.914378 
L 329.129827 -269.803334 
L 328.541925 -269.678301 
L 327.954023 -269.543015 
L 327.366121 -269.401239 
L 326.778219 -269.256115 
L 326.190317 -269.109628 
L 325.602415 -268.962243 
L 325.014513 -268.812805 
L 324.426612 -268.658669 
L 323.83871 -268.496029 
L 323.250808 -268.320348 
L 322.662906 -268.126801 
L 322.075004 -267.910651 
L 321.487102 -267.667526 
L 320.8992 -267.393617 
L 320.311299 -267.085831 
L 319.723397 -266.741956 
L 319.135495 -266.360864 
L 318.547593 -265.942742 
L 317.959691 -265.489329 
L 317.371789 -265.004071 
L 316.783887 -264.492158 
L 316.195985 -263.9604 
L 315.608084 -263.416933 
L 315.020182 -262.870791 
L 314.43228 -262.331386 
L 313.844378 -261.807936 
L 313.256476 -261.308911 
L 312.668574 -260.841516 
L 312.080672 -260.411267 
L 311.492771 -260.02171 
L 310.904869 -259.674335 
L 310.316967 -259.368729 
L 309.729065 -259.102996 
L 309.141163 -258.874402 
L 308.553261 -258.680181 
L 307.965359 -258.51837 
L 307.377457 -258.388538 
L 306.789556 -258.292282 
L 306.201654 -258.233413 
L 305.613752 -258.217792 
L 305.02585 -258.252841 
L 304.437948 -258.346793 
L 303.850046 -258.507727 
L 303.262144 -258.742519 
L 302.674243 -259.055774 
L 302.086341 -259.448904 
L 301.498439 -259.919467 
L 300.910537 -260.460928 
L 300.322635 -261.062922 
L 299.734733 -261.712033 
L 299.146831 -262.392996 
L 298.558929 -263.090104 
L 297.971028 -263.788576 
L 297.383126 -264.475619 
L 296.795224 -265.141021 
L 296.207322 -265.777223 
L 295.61942 -266.378967 
L 295.031518 -266.942704 
L 294.443616 -267.465985 
L 293.855715 -267.947013 
L 293.267813 -268.384448 
L 292.679911 -268.777451 
L 292.092009 -269.125879 
L 291.504107 -269.430505 
L 290.916205 -269.693148 
L 290.328303 -269.91665 
L 289.740401 -270.104689 
L 289.1525 -270.261486 
L 288.564598 -270.391453 
L 287.976696 -270.498867 
L 287.388794 -270.587613 
z
" id="m233963c0a0" style="stroke:#424242;"/>
    </defs>
    <g clip-path="url(#p5ef5b41cfd)">
     <use style="fill:#be631d;stroke:#424242;" x="0" xlink:href="#m233963c0a0" y="319.061667"/>
    </g>
   </g>
   <g id="patch_86">
    <path clip-path="url(#p5ef5b41cfd)" d="M 113.690778 35.357708 
L 113.690778 35.357708 
L 113.690778 35.357708 
L 113.690778 35.357708 
z
" style="fill:#7c78ab;stroke:#424242;stroke-linejoin:miter;stroke-width:0.5;"/>
   </g>
   <g id="patch_87">
    <path clip-path="url(#p5ef5b41cfd)" d="M 113.690778 35.357708 
L 113.690778 35.357708 
L 113.690778 35.357708 
L 113.690778 35.357708 
z
" style="fill:#be631d;stroke:#424242;stroke-linejoin:miter;stroke-width:0.5;"/>
   </g>
   <g id="matplotlib.axis_3">
    <g id="xtick_5">
     <g id="line2d_11">
      <g>
       <use style="stroke:#000000;stroke-width:1.6;" x="113.690778" xlink:href="#mab5f804901" y="258.361667"/>
      </g>
     </g>
     <g id="text_13">
      <!-- 0.0 -->
      <g transform="translate(97.787653 288.258542)scale(0.2 -0.2)">
       <use xlink:href="#DejaVuSans-48"/>
       <use x="63.623047" xlink:href="#DejaVuSans-46"/>
       <use x="95.410156" xlink:href="#DejaVuSans-48"/>
      </g>
     </g>
    </g>
    <g id="xtick_6">
     <g id="line2d_12">
      <g>
       <use style="stroke:#000000;stroke-width:1.6;" x="181.653889" xlink:href="#mab5f804901" y="258.361667"/>
      </g>
     </g>
     <g id="text_14">
      <!-- 0.2 -->
      <g transform="translate(165.750764 288.258542)scale(0.2 -0.2)">
       <use xlink:href="#DejaVuSans-48"/>
       <use x="63.623047" xlink:href="#DejaVuSans-46"/>
       <use x="95.410156" xlink:href="#DejaVuSans-50"/>
      </g>
     </g>
    </g>
    <g id="xtick_7">
     <g id="line2d_13">
      <g>
       <use style="stroke:#000000;stroke-width:1.6;" x="249.617" xlink:href="#mab5f804901" y="258.361667"/>
      </g>
     </g>
     <g id="text_15">
      <!-- 0.4 -->
      <g transform="translate(233.713875 288.258542)scale(0.2 -0.2)">
       <use xlink:href="#DejaVuSans-48"/>
       <use x="63.623047" xlink:href="#DejaVuSans-46"/>
       <use x="95.410156" xlink:href="#DejaVuSans-52"/>
      </g>
     </g>
    </g>
    <g id="xtick_8">
     <g id="line2d_14">
      <g>
       <use style="stroke:#000000;stroke-width:1.6;" x="317.580111" xlink:href="#mab5f804901" y="258.361667"/>
      </g>
     </g>
     <g id="text_16">
      <!-- 0.6 -->
      <g transform="translate(301.676986 288.258542)scale(0.2 -0.2)">
       <use xlink:href="#DejaVuSans-48"/>
       <use x="63.623047" xlink:href="#DejaVuSans-46"/>
       <use x="95.410156" xlink:href="#DejaVuSans-54"/>
      </g>
     </g>
    </g>
    <g id="text_17">
     <!-- Max JS Divergence within $\epsilon$ -->
     <defs>
      <path d="M 9.8125 72.90625 
L 24.515625 72.90625 
L 43.109375 23.296875 
L 61.8125 72.90625 
L 76.515625 72.90625 
L 76.515625 0 
L 66.890625 0 
L 66.890625 64.015625 
L 48.09375 14.015625 
L 38.1875 14.015625 
L 19.390625 64.015625 
L 19.390625 0 
L 9.8125 0 
z
" id="DejaVuSans-77"/>
      <path d="M 34.28125 27.484375 
Q 23.390625 27.484375 19.1875 25 
Q 14.984375 22.515625 14.984375 16.5 
Q 14.984375 11.71875 18.140625 8.90625 
Q 21.296875 6.109375 26.703125 6.109375 
Q 34.1875 6.109375 38.703125 11.40625 
Q 43.21875 16.703125 43.21875 25.484375 
L 43.21875 27.484375 
z
M 52.203125 31.203125 
L 52.203125 0 
L 43.21875 0 
L 43.21875 8.296875 
Q 40.140625 3.328125 35.546875 0.953125 
Q 30.953125 -1.421875 24.3125 -1.421875 
Q 15.921875 -1.421875 10.953125 3.296875 
Q 6 8.015625 6 15.921875 
Q 6 25.140625 12.171875 29.828125 
Q 18.359375 34.515625 30.609375 34.515625 
L 43.21875 34.515625 
L 43.21875 35.40625 
Q 43.21875 41.609375 39.140625 45 
Q 35.0625 48.390625 27.6875 48.390625 
Q 23 48.390625 18.546875 47.265625 
Q 14.109375 46.140625 10.015625 43.890625 
L 10.015625 52.203125 
Q 14.9375 54.109375 19.578125 55.046875 
Q 24.21875 56 28.609375 56 
Q 40.484375 56 46.34375 49.84375 
Q 52.203125 43.703125 52.203125 31.203125 
z
" id="DejaVuSans-97"/>
      <path d="M 54.890625 54.6875 
L 35.109375 28.078125 
L 55.90625 0 
L 45.3125 0 
L 29.390625 21.484375 
L 13.484375 0 
L 2.875 0 
L 24.125 28.609375 
L 4.6875 54.6875 
L 15.28125 54.6875 
L 29.78125 35.203125 
L 44.28125 54.6875 
z
" id="DejaVuSans-120"/>
      <path d="M 9.8125 72.90625 
L 19.671875 72.90625 
L 19.671875 5.078125 
Q 19.671875 -8.109375 14.671875 -14.0625 
Q 9.671875 -20.015625 -1.421875 -20.015625 
L -5.171875 -20.015625 
L -5.171875 -11.71875 
L -2.09375 -11.71875 
Q 4.4375 -11.71875 7.125 -8.046875 
Q 9.8125 -4.390625 9.8125 5.078125 
z
" id="DejaVuSans-74"/>
      <path d="M 53.515625 70.515625 
L 53.515625 60.890625 
Q 47.90625 63.578125 42.921875 64.890625 
Q 37.9375 66.21875 33.296875 66.21875 
Q 25.25 66.21875 20.875 63.09375 
Q 16.5 59.96875 16.5 54.203125 
Q 16.5 49.359375 19.40625 46.890625 
Q 22.3125 44.4375 30.421875 42.921875 
L 36.375 41.703125 
Q 47.40625 39.59375 52.65625 34.296875 
Q 57.90625 29 57.90625 20.125 
Q 57.90625 9.515625 50.796875 4.046875 
Q 43.703125 -1.421875 29.984375 -1.421875 
Q 24.8125 -1.421875 18.96875 -0.25 
Q 13.140625 0.921875 6.890625 3.21875 
L 6.890625 13.375 
Q 12.890625 10.015625 18.65625 8.296875 
Q 24.421875 6.59375 29.984375 6.59375 
Q 38.421875 6.59375 43.015625 9.90625 
Q 47.609375 13.234375 47.609375 19.390625 
Q 47.609375 24.75 44.3125 27.78125 
Q 41.015625 30.8125 33.5 32.328125 
L 27.484375 33.5 
Q 16.453125 35.6875 11.515625 40.375 
Q 6.59375 45.0625 6.59375 53.421875 
Q 6.59375 63.09375 13.40625 68.65625 
Q 20.21875 74.21875 32.171875 74.21875 
Q 37.3125 74.21875 42.625 73.28125 
Q 47.953125 72.359375 53.515625 70.515625 
z
" id="DejaVuSans-83"/>
      <path d="M 19.671875 64.796875 
L 19.671875 8.109375 
L 31.59375 8.109375 
Q 46.6875 8.109375 53.6875 14.9375 
Q 60.6875 21.78125 60.6875 36.53125 
Q 60.6875 51.171875 53.6875 57.984375 
Q 46.6875 64.796875 31.59375 64.796875 
z
M 9.8125 72.90625 
L 30.078125 72.90625 
Q 51.265625 72.90625 61.171875 64.09375 
Q 71.09375 55.28125 71.09375 36.53125 
Q 71.09375 17.671875 61.125 8.828125 
Q 51.171875 0 30.078125 0 
L 9.8125 0 
z
" id="DejaVuSans-68"/>
      <path d="M 9.421875 54.6875 
L 18.40625 54.6875 
L 18.40625 0 
L 9.421875 0 
z
M 9.421875 75.984375 
L 18.40625 75.984375 
L 18.40625 64.59375 
L 9.421875 64.59375 
z
" id="DejaVuSans-105"/>
      <path d="M 2.984375 54.6875 
L 12.5 54.6875 
L 29.59375 8.796875 
L 46.6875 54.6875 
L 56.203125 54.6875 
L 35.6875 0 
L 23.484375 0 
z
" id="DejaVuSans-118"/>
      <path d="M 56.203125 29.59375 
L 56.203125 25.203125 
L 14.890625 25.203125 
Q 15.484375 15.921875 20.484375 11.0625 
Q 25.484375 6.203125 34.421875 6.203125 
Q 39.59375 6.203125 44.453125 7.46875 
Q 49.3125 8.734375 54.109375 11.28125 
L 54.109375 2.78125 
Q 49.265625 0.734375 44.1875 -0.34375 
Q 39.109375 -1.421875 33.890625 -1.421875 
Q 20.796875 -1.421875 13.15625 6.1875 
Q 5.515625 13.8125 5.515625 26.8125 
Q 5.515625 40.234375 12.765625 48.109375 
Q 20.015625 56 32.328125 56 
Q 43.359375 56 49.78125 48.890625 
Q 56.203125 41.796875 56.203125 29.59375 
z
M 47.21875 32.234375 
Q 47.125 39.59375 43.09375 43.984375 
Q 39.0625 48.390625 32.421875 48.390625 
Q 24.90625 48.390625 20.390625 44.140625 
Q 15.875 39.890625 15.1875 32.171875 
z
" id="DejaVuSans-101"/>
      <path d="M 41.109375 46.296875 
Q 39.59375 47.171875 37.8125 47.578125 
Q 36.03125 48 33.890625 48 
Q 26.265625 48 22.1875 43.046875 
Q 18.109375 38.09375 18.109375 28.8125 
L 18.109375 0 
L 9.078125 0 
L 9.078125 54.6875 
L 18.109375 54.6875 
L 18.109375 46.1875 
Q 20.953125 51.171875 25.484375 53.578125 
Q 30.03125 56 36.53125 56 
Q 37.453125 56 38.578125 55.875 
Q 39.703125 55.765625 41.0625 55.515625 
z
" id="DejaVuSans-114"/>
      <path d="M 45.40625 27.984375 
Q 45.40625 37.75 41.375 43.109375 
Q 37.359375 48.484375 30.078125 48.484375 
Q 22.859375 48.484375 18.828125 43.109375 
Q 14.796875 37.75 14.796875 27.984375 
Q 14.796875 18.265625 18.828125 12.890625 
Q 22.859375 7.515625 30.078125 7.515625 
Q 37.359375 7.515625 41.375 12.890625 
Q 45.40625 18.265625 45.40625 27.984375 
z
M 54.390625 6.78125 
Q 54.390625 -7.171875 48.1875 -13.984375 
Q 42 -20.796875 29.203125 -20.796875 
Q 24.46875 -20.796875 20.265625 -20.09375 
Q 16.0625 -19.390625 12.109375 -17.921875 
L 12.109375 -9.1875 
Q 16.0625 -11.328125 19.921875 -12.34375 
Q 23.78125 -13.375 27.78125 -13.375 
Q 36.625 -13.375 41.015625 -8.765625 
Q 45.40625 -4.15625 45.40625 5.171875 
L 45.40625 9.625 
Q 42.625 4.78125 38.28125 2.390625 
Q 33.9375 0 27.875 0 
Q 17.828125 0 11.671875 7.65625 
Q 5.515625 15.328125 5.515625 27.984375 
Q 5.515625 40.671875 11.671875 48.328125 
Q 17.828125 56 27.875 56 
Q 33.9375 56 38.28125 53.609375 
Q 42.625 51.21875 45.40625 46.390625 
L 45.40625 54.6875 
L 54.390625 54.6875 
z
" id="DejaVuSans-103"/>
      <path d="M 54.890625 33.015625 
L 54.890625 0 
L 45.90625 0 
L 45.90625 32.71875 
Q 45.90625 40.484375 42.875 44.328125 
Q 39.84375 48.1875 33.796875 48.1875 
Q 26.515625 48.1875 22.3125 43.546875 
Q 18.109375 38.921875 18.109375 30.90625 
L 18.109375 0 
L 9.078125 0 
L 9.078125 54.6875 
L 18.109375 54.6875 
L 18.109375 46.1875 
Q 21.34375 51.125 25.703125 53.5625 
Q 30.078125 56 35.796875 56 
Q 45.21875 56 50.046875 50.171875 
Q 54.890625 44.34375 54.890625 33.015625 
z
" id="DejaVuSans-110"/>
      <path d="M 48.78125 52.59375 
L 48.78125 44.1875 
Q 44.96875 46.296875 41.140625 47.34375 
Q 37.3125 48.390625 33.40625 48.390625 
Q 24.65625 48.390625 19.8125 42.84375 
Q 14.984375 37.3125 14.984375 27.296875 
Q 14.984375 17.28125 19.8125 11.734375 
Q 24.65625 6.203125 33.40625 6.203125 
Q 37.3125 6.203125 41.140625 7.25 
Q 44.96875 8.296875 48.78125 10.40625 
L 48.78125 2.09375 
Q 45.015625 0.34375 40.984375 -0.53125 
Q 36.96875 -1.421875 32.421875 -1.421875 
Q 20.0625 -1.421875 12.78125 6.34375 
Q 5.515625 14.109375 5.515625 27.296875 
Q 5.515625 40.671875 12.859375 48.328125 
Q 20.21875 56 33.015625 56 
Q 37.15625 56 41.109375 55.140625 
Q 45.0625 54.296875 48.78125 52.59375 
z
" id="DejaVuSans-99"/>
      <path d="M 4.203125 54.6875 
L 13.1875 54.6875 
L 24.421875 12.015625 
L 35.59375 54.6875 
L 46.1875 54.6875 
L 57.421875 12.015625 
L 68.609375 54.6875 
L 77.59375 54.6875 
L 63.28125 0 
L 52.6875 0 
L 40.921875 44.828125 
L 29.109375 0 
L 18.5 0 
z
" id="DejaVuSans-119"/>
      <path d="M 18.3125 70.21875 
L 18.3125 54.6875 
L 36.8125 54.6875 
L 36.8125 47.703125 
L 18.3125 47.703125 
L 18.3125 18.015625 
Q 18.3125 11.328125 20.140625 9.421875 
Q 21.96875 7.515625 27.59375 7.515625 
L 36.8125 7.515625 
L 36.8125 0 
L 27.59375 0 
Q 17.1875 0 13.234375 3.875 
Q 9.28125 7.765625 9.28125 18.015625 
L 9.28125 47.703125 
L 2.6875 47.703125 
L 2.6875 54.6875 
L 9.28125 54.6875 
L 9.28125 70.21875 
z
" id="DejaVuSans-116"/>
      <path d="M 54.890625 33.015625 
L 54.890625 0 
L 45.90625 0 
L 45.90625 32.71875 
Q 45.90625 40.484375 42.875 44.328125 
Q 39.84375 48.1875 33.796875 48.1875 
Q 26.515625 48.1875 22.3125 43.546875 
Q 18.109375 38.921875 18.109375 30.90625 
L 18.109375 0 
L 9.078125 0 
L 9.078125 75.984375 
L 18.109375 75.984375 
L 18.109375 46.1875 
Q 21.34375 51.125 25.703125 53.5625 
Q 30.078125 56 35.796875 56 
Q 45.21875 56 50.046875 50.171875 
Q 54.890625 44.34375 54.890625 33.015625 
z
" id="DejaVuSans-104"/>
      <path d="M 19.734375 29.5 
Q 14.453125 30.671875 12.15625 33.84375 
Q 10.453125 36.078125 10.453125 39.109375 
Q 10.453125 47.40625 18.359375 52.25 
Q 24.609375 56.0625 34.1875 56.0625 
Q 37.890625 56.0625 41.9375 55.46875 
Q 46 54.890625 50.53125 53.71875 
L 48.96875 45.5625 
Q 44.484375 46.96875 40.71875 47.609375 
Q 36.859375 48.25 33.40625 48.25 
Q 27.59375 48.25 23.78125 46 
Q 19.1875 43.3125 19.1875 39.40625 
Q 19.1875 36.8125 21.578125 35.015625 
Q 24.421875 32.859375 30.078125 32.859375 
L 37.640625 32.859375 
L 36.234375 25.4375 
L 29 25.4375 
Q 22.265625 25.4375 18.3125 22.953125 
Q 12.9375 19.578125 12.9375 14.3125 
Q 12.9375 10.984375 15.828125 8.796875 
Q 19.4375 6.0625 26.8125 6.0625 
Q 31.34375 6.0625 35.6875 6.9375 
Q 40.046875 7.859375 43.84375 9.671875 
L 42.1875 1.3125 
Q 37.546875 -0.046875 33.296875 -0.734375 
Q 29.046875 -1.421875 25.140625 -1.421875 
Q 13.53125 -1.421875 8.0625 3.03125 
Q 3.90625 6.453125 3.90625 12.203125 
Q 3.90625 19.96875 9.375 24.75 
Q 13.421875 28.328125 19.734375 29.5 
z
" id="DejaVuSans-Oblique-949"/>
     </defs>
     <g transform="translate(88.530833 311.617917)scale(0.2 -0.2)">
      <use transform="translate(0 0.015625)" xlink:href="#DejaVuSans-77"/>
      <use transform="translate(86.279297 0.015625)" xlink:href="#DejaVuSans-97"/>
      <use transform="translate(147.558594 0.015625)" xlink:href="#DejaVuSans-120"/>
      <use transform="translate(206.738281 0.015625)" xlink:href="#DejaVuSans-32"/>
      <use transform="translate(238.525391 0.015625)" xlink:href="#DejaVuSans-74"/>
      <use transform="translate(268.017578 0.015625)" xlink:href="#DejaVuSans-83"/>
      <use transform="translate(331.494141 0.015625)" xlink:href="#DejaVuSans-32"/>
      <use transform="translate(363.28125 0.015625)" xlink:href="#DejaVuSans-68"/>
      <use transform="translate(440.283203 0.015625)" xlink:href="#DejaVuSans-105"/>
      <use transform="translate(468.066406 0.015625)" xlink:href="#DejaVuSans-118"/>
      <use transform="translate(527.246094 0.015625)" xlink:href="#DejaVuSans-101"/>
      <use transform="translate(588.769531 0.015625)" xlink:href="#DejaVuSans-114"/>
      <use transform="translate(629.882812 0.015625)" xlink:href="#DejaVuSans-103"/>
      <use transform="translate(693.359375 0.015625)" xlink:href="#DejaVuSans-101"/>
      <use transform="translate(754.882812 0.015625)" xlink:href="#DejaVuSans-110"/>
      <use transform="translate(818.261719 0.015625)" xlink:href="#DejaVuSans-99"/>
      <use transform="translate(873.242188 0.015625)" xlink:href="#DejaVuSans-101"/>
      <use transform="translate(934.765625 0.015625)" xlink:href="#DejaVuSans-32"/>
      <use transform="translate(966.552734 0.015625)" xlink:href="#DejaVuSans-119"/>
      <use transform="translate(1048.339844 0.015625)" xlink:href="#DejaVuSans-105"/>
      <use transform="translate(1076.123047 0.015625)" xlink:href="#DejaVuSans-116"/>
      <use transform="translate(1115.332031 0.015625)" xlink:href="#DejaVuSans-104"/>
      <use transform="translate(1178.710938 0.015625)" xlink:href="#DejaVuSans-105"/>
      <use transform="translate(1206.494141 0.015625)" xlink:href="#DejaVuSans-110"/>
      <use transform="translate(1269.873047 0.015625)" xlink:href="#DejaVuSans-32"/>
      <use transform="translate(1301.660156 0.015625)" xlink:href="#DejaVuSans-Oblique-949"/>
     </g>
    </g>
   </g>
   <g id="matplotlib.axis_4">
    <g id="ytick_7">
     <g id="line2d_15">
      <g>
       <use style="stroke:#000000;stroke-width:1.6;" x="96.7" xlink:href="#m72c920a9f8" y="35.357708"/>
      </g>
     </g>
     <g id="text_18">
      <!-- [0.00, -->
      <defs>
       <path d="M 8.59375 75.984375 
L 29.296875 75.984375 
L 29.296875 69 
L 17.578125 69 
L 17.578125 -6.203125 
L 29.296875 -6.203125 
L 29.296875 -13.1875 
L 8.59375 -13.1875 
z
" id="DejaVuSans-91"/>
       <path d="M 11.71875 12.40625 
L 22.015625 12.40625 
L 22.015625 4 
L 14.015625 -11.625 
L 7.71875 -11.625 
L 11.71875 4 
z
" id="DejaVuSans-44"/>
      </defs>
      <g transform="translate(23.309375 31.758333)scale(0.2 -0.2)">
       <use xlink:href="#DejaVuSans-91"/>
       <use x="39.013672" xlink:href="#DejaVuSans-48"/>
       <use x="102.636719" xlink:href="#DejaVuSans-46"/>
       <use x="134.423828" xlink:href="#DejaVuSans-48"/>
       <use x="198.046875" xlink:href="#DejaVuSans-48"/>
       <use x="261.669922" xlink:href="#DejaVuSans-44"/>
      </g>
      <!-- 0.25) -->
      <defs>
       <path d="M 8.015625 75.875 
L 15.828125 75.875 
Q 23.140625 64.359375 26.78125 53.3125 
Q 30.421875 42.28125 30.421875 31.390625 
Q 30.421875 20.453125 26.78125 9.375 
Q 23.140625 -1.703125 15.828125 -13.1875 
L 8.015625 -13.1875 
Q 14.5 -2 17.703125 9.0625 
Q 20.90625 20.125 20.90625 31.390625 
Q 20.90625 42.671875 17.703125 53.65625 
Q 14.5 64.65625 8.015625 75.875 
z
" id="DejaVuSans-41"/>
      </defs>
      <g transform="translate(29.665625 54.153958)scale(0.2 -0.2)">
       <use xlink:href="#DejaVuSans-48"/>
       <use x="63.623047" xlink:href="#DejaVuSans-46"/>
       <use x="95.410156" xlink:href="#DejaVuSans-50"/>
       <use x="159.033203" xlink:href="#DejaVuSans-53"/>
       <use x="222.65625" xlink:href="#DejaVuSans-41"/>
      </g>
     </g>
    </g>
    <g id="ytick_8">
     <g id="line2d_16">
      <g>
       <use style="stroke:#000000;stroke-width:1.6;" x="96.7" xlink:href="#m72c920a9f8" y="99.073125"/>
      </g>
     </g>
     <g id="text_19">
      <!-- [0.25, -->
      <g transform="translate(23.309375 95.47375)scale(0.2 -0.2)">
       <use xlink:href="#DejaVuSans-91"/>
       <use x="39.013672" xlink:href="#DejaVuSans-48"/>
       <use x="102.636719" xlink:href="#DejaVuSans-46"/>
       <use x="134.423828" xlink:href="#DejaVuSans-50"/>
       <use x="198.046875" xlink:href="#DejaVuSans-53"/>
       <use x="261.669922" xlink:href="#DejaVuSans-44"/>
      </g>
      <!-- 0.50) -->
      <g transform="translate(29.665625 117.869375)scale(0.2 -0.2)">
       <use xlink:href="#DejaVuSans-48"/>
       <use x="63.623047" xlink:href="#DejaVuSans-46"/>
       <use x="95.410156" xlink:href="#DejaVuSans-53"/>
       <use x="159.033203" xlink:href="#DejaVuSans-48"/>
       <use x="222.65625" xlink:href="#DejaVuSans-41"/>
      </g>
     </g>
    </g>
    <g id="ytick_9">
     <g id="line2d_17">
      <g>
       <use style="stroke:#000000;stroke-width:1.6;" x="96.7" xlink:href="#m72c920a9f8" y="162.788542"/>
      </g>
     </g>
     <g id="text_20">
      <!-- [0.50, -->
      <g transform="translate(23.309375 159.189167)scale(0.2 -0.2)">
       <use xlink:href="#DejaVuSans-91"/>
       <use x="39.013672" xlink:href="#DejaVuSans-48"/>
       <use x="102.636719" xlink:href="#DejaVuSans-46"/>
       <use x="134.423828" xlink:href="#DejaVuSans-53"/>
       <use x="198.046875" xlink:href="#DejaVuSans-48"/>
       <use x="261.669922" xlink:href="#DejaVuSans-44"/>
      </g>
      <!-- 0.75) -->
      <defs>
       <path d="M 8.203125 72.90625 
L 55.078125 72.90625 
L 55.078125 68.703125 
L 28.609375 0 
L 18.3125 0 
L 43.21875 64.59375 
L 8.203125 64.59375 
z
" id="DejaVuSans-55"/>
      </defs>
      <g transform="translate(29.665625 181.584792)scale(0.2 -0.2)">
       <use xlink:href="#DejaVuSans-48"/>
       <use x="63.623047" xlink:href="#DejaVuSans-46"/>
       <use x="95.410156" xlink:href="#DejaVuSans-55"/>
       <use x="159.033203" xlink:href="#DejaVuSans-53"/>
       <use x="222.65625" xlink:href="#DejaVuSans-41"/>
      </g>
     </g>
    </g>
    <g id="ytick_10">
     <g id="line2d_18">
      <g>
       <use style="stroke:#000000;stroke-width:1.6;" x="96.7" xlink:href="#m72c920a9f8" y="226.503958"/>
      </g>
     </g>
     <g id="text_21">
      <!-- [0.75, -->
      <g transform="translate(23.309375 222.904583)scale(0.2 -0.2)">
       <use xlink:href="#DejaVuSans-91"/>
       <use x="39.013672" xlink:href="#DejaVuSans-48"/>
       <use x="102.636719" xlink:href="#DejaVuSans-46"/>
       <use x="134.423828" xlink:href="#DejaVuSans-55"/>
       <use x="198.046875" xlink:href="#DejaVuSans-53"/>
       <use x="261.669922" xlink:href="#DejaVuSans-44"/>
      </g>
      <!-- 1.00) -->
      <g transform="translate(29.665625 245.300208)scale(0.2 -0.2)">
       <use xlink:href="#DejaVuSans-49"/>
       <use x="63.623047" xlink:href="#DejaVuSans-46"/>
       <use x="95.410156" xlink:href="#DejaVuSans-48"/>
       <use x="159.033203" xlink:href="#DejaVuSans-48"/>
       <use x="222.65625" xlink:href="#DejaVuSans-41"/>
      </g>
     </g>
    </g>
    <g id="text_22">
     <!-- Max Attention -->
     <defs>
      <path d="M 34.1875 63.1875 
L 20.796875 26.90625 
L 47.609375 26.90625 
z
M 28.609375 72.90625 
L 39.796875 72.90625 
L 67.578125 0 
L 57.328125 0 
L 50.6875 18.703125 
L 17.828125 18.703125 
L 11.1875 0 
L 0.78125 0 
z
" id="DejaVuSans-65"/>
      <path d="M 30.609375 48.390625 
Q 23.390625 48.390625 19.1875 42.75 
Q 14.984375 37.109375 14.984375 27.296875 
Q 14.984375 17.484375 19.15625 11.84375 
Q 23.34375 6.203125 30.609375 6.203125 
Q 37.796875 6.203125 41.984375 11.859375 
Q 46.1875 17.53125 46.1875 27.296875 
Q 46.1875 37.015625 41.984375 42.703125 
Q 37.796875 48.390625 30.609375 48.390625 
z
M 30.609375 56 
Q 42.328125 56 49.015625 48.375 
Q 55.71875 40.765625 55.71875 27.296875 
Q 55.71875 13.875 49.015625 6.21875 
Q 42.328125 -1.421875 30.609375 -1.421875 
Q 18.84375 -1.421875 12.171875 6.21875 
Q 5.515625 13.875 5.515625 27.296875 
Q 5.515625 40.765625 12.171875 48.375 
Q 18.84375 56 30.609375 56 
z
" id="DejaVuSans-111"/>
     </defs>
     <g transform="translate(15.15 201.108958)rotate(-90)scale(0.2 -0.2)">
      <use xlink:href="#DejaVuSans-77"/>
      <use x="86.279297" xlink:href="#DejaVuSans-97"/>
      <use x="147.558594" xlink:href="#DejaVuSans-120"/>
      <use x="206.738281" xlink:href="#DejaVuSans-32"/>
      <use x="238.525391" xlink:href="#DejaVuSans-65"/>
      <use x="306.917969" xlink:href="#DejaVuSans-116"/>
      <use x="346.126953" xlink:href="#DejaVuSans-116"/>
      <use x="385.335938" xlink:href="#DejaVuSans-101"/>
      <use x="446.859375" xlink:href="#DejaVuSans-110"/>
      <use x="510.238281" xlink:href="#DejaVuSans-116"/>
      <use x="549.447266" xlink:href="#DejaVuSans-105"/>
      <use x="577.230469" xlink:href="#DejaVuSans-111"/>
      <use x="638.412109" xlink:href="#DejaVuSans-110"/>
     </g>
    </g>
   </g>
   <g id="line2d_19">
    <path clip-path="url(#p5ef5b41cfd)" d="M 305.295976 14.952901 
L 305.295976 30.276349 
" style="fill:none;stroke:#424242;stroke-dasharray:1.5,1.5;stroke-dashoffset:0;"/>
   </g>
   <g id="line2d_20">
    <path clip-path="url(#p5ef5b41cfd)" d="M 314.926262 17.239658 
L 314.926262 27.989592 
" style="fill:none;stroke:#424242;stroke-dasharray:3,3;stroke-dashoffset:0;"/>
   </g>
   <g id="line2d_21">
    <path clip-path="url(#p5ef5b41cfd)" d="M 342.312092 15.279123 
L 342.312092 29.950127 
" style="fill:none;stroke:#424242;stroke-dasharray:1.5,1.5;stroke-dashoffset:0;"/>
   </g>
   <g id="line2d_22">
    <path clip-path="url(#p5ef5b41cfd)" d="M 302.390254 36.314742 
L 302.390254 59.886841 
" style="fill:none;stroke:#424242;stroke-dasharray:1.5,1.5;stroke-dashoffset:0;"/>
   </g>
   <g id="line2d_23">
    <path clip-path="url(#p5ef5b41cfd)" d="M 307.813642 35.782712 
L 307.813642 60.418872 
" style="fill:none;stroke:#424242;stroke-dasharray:3,3;stroke-dashoffset:0;"/>
   </g>
   <g id="line2d_24">
    <path clip-path="url(#p5ef5b41cfd)" d="M 314.14121 39.557597 
L 314.14121 56.643986 
" style="fill:none;stroke:#424242;stroke-dasharray:1.5,1.5;stroke-dashoffset:0;"/>
   </g>
   <g id="patch_88">
    <path d="M 96.7 258.361667 
L 96.7 3.5 
" style="fill:none;stroke:#000000;stroke-linecap:square;stroke-linejoin:miter;stroke-width:0.8;"/>
   </g>
   <g id="patch_89">
    <path d="M 96.7 258.361667 
L 351.561667 258.361667 
" style="fill:none;stroke:#000000;stroke-linecap:square;stroke-linejoin:miter;stroke-width:0.8;"/>
   </g>
  </g>
 </g>
 <defs>
  <clipPath id="pee72a8c435">
   <rect height="254.861667" width="254.861667" x="-269.521667" y="3.5"/>
  </clipPath>
  <clipPath id="p5ef5b41cfd">
   <rect height="254.861667" width="254.861667" x="96.7" y="3.5"/>
  </clipPath>
 </defs>
</svg>
