<?xml version="1.0" encoding="utf-8" standalone="no"?>
<!DOCTYPE svg PUBLIC "-//W3C//DTD SVG 1.1//EN"
  "http://www.w3.org/Graphics/SVG/1.1/DTD/svg11.dtd">
<!-- Created with matplotlib (https://matplotlib.org/) -->
<svg height="333.433333pt" version="1.1" viewBox="0 0 369.433333 333.433333" width="369.433333pt" xmlns="http://www.w3.org/2000/svg" xmlns:xlink="http://www.w3.org/1999/xlink">
 <defs>
  <style type="text/css">
*{stroke-linecap:butt;stroke-linejoin:round;}
  </style>
 </defs>
 <g id="figure_1">
  <g id="patch_1">
   <path d="M 0 333.433333 
L 369.433333 333.433333 
L 369.433333 -0 
L 0 -0 
z
" style="fill:#ffffff;"/>
  </g>
  <g id="axes_1">
   <g id="patch_2">
    <path d="M -276.333333 272.733333 
L -7.1 272.733333 
L -7.1 3.5 
L -276.333333 3.5 
z
" style="fill:#ffffff;"/>
   </g>
   <g id="patch_3">
    <path clip-path="url(#p7afe8541d2)" d="M -264.095455 272.733333 
L -257.976515 272.733333 
L -257.976515 272.733333 
L -264.095455 272.733333 
z
" style="fill:#7570b3;opacity:0.6;stroke:#000000;stroke-linejoin:miter;stroke-width:0.5;"/>
   </g>
   <g id="patch_4">
    <path clip-path="url(#p7afe8541d2)" d="M -257.976515 272.733333 
L -251.857576 272.733333 
L -251.857576 272.733333 
L -257.976515 272.733333 
z
" style="fill:#7570b3;opacity:0.6;stroke:#000000;stroke-linejoin:miter;stroke-width:0.5;"/>
   </g>
   <g id="patch_5">
    <path clip-path="url(#p7afe8541d2)" d="M -251.857576 272.733333 
L -245.738636 272.733333 
L -245.738636 272.733333 
L -251.857576 272.733333 
z
" style="fill:#7570b3;opacity:0.6;stroke:#000000;stroke-linejoin:miter;stroke-width:0.5;"/>
   </g>
   <g id="patch_6">
    <path clip-path="url(#p7afe8541d2)" d="M -245.738636 272.733333 
L -239.619697 272.733333 
L -239.619697 272.733333 
L -245.738636 272.733333 
z
" style="fill:#7570b3;opacity:0.6;stroke:#000000;stroke-linejoin:miter;stroke-width:0.5;"/>
   </g>
   <g id="patch_7">
    <path clip-path="url(#p7afe8541d2)" d="M -239.619697 272.733333 
L -233.500758 272.733333 
L -233.500758 272.733333 
L -239.619697 272.733333 
z
" style="fill:#7570b3;opacity:0.6;stroke:#000000;stroke-linejoin:miter;stroke-width:0.5;"/>
   </g>
   <g id="patch_8">
    <path clip-path="url(#p7afe8541d2)" d="M -233.500758 272.733333 
L -227.381818 272.733333 
L -227.381818 272.733333 
L -233.500758 272.733333 
z
" style="fill:#7570b3;opacity:0.6;stroke:#000000;stroke-linejoin:miter;stroke-width:0.5;"/>
   </g>
   <g id="patch_9">
    <path clip-path="url(#p7afe8541d2)" d="M -227.381818 272.733333 
L -221.262879 272.733333 
L -221.262879 272.733333 
L -227.381818 272.733333 
z
" style="fill:#7570b3;opacity:0.6;stroke:#000000;stroke-linejoin:miter;stroke-width:0.5;"/>
   </g>
   <g id="patch_10">
    <path clip-path="url(#p7afe8541d2)" d="M -221.262879 272.733333 
L -215.143939 272.733333 
L -215.143939 272.733333 
L -221.262879 272.733333 
z
" style="fill:#7570b3;opacity:0.6;stroke:#000000;stroke-linejoin:miter;stroke-width:0.5;"/>
   </g>
   <g id="patch_11">
    <path clip-path="url(#p7afe8541d2)" d="M -215.143939 272.733333 
L -209.025 272.733333 
L -209.025 272.733333 
L -215.143939 272.733333 
z
" style="fill:#7570b3;opacity:0.6;stroke:#000000;stroke-linejoin:miter;stroke-width:0.5;"/>
   </g>
   <g id="patch_12">
    <path clip-path="url(#p7afe8541d2)" d="M -209.025 272.733333 
L -202.906061 272.733333 
L -202.906061 272.733333 
L -209.025 272.733333 
z
" style="fill:#7570b3;opacity:0.6;stroke:#000000;stroke-linejoin:miter;stroke-width:0.5;"/>
   </g>
   <g id="patch_13">
    <path clip-path="url(#p7afe8541d2)" d="M -202.906061 272.733333 
L -196.787121 272.733333 
L -196.787121 272.733333 
L -202.906061 272.733333 
z
" style="fill:#7570b3;opacity:0.6;stroke:#000000;stroke-linejoin:miter;stroke-width:0.5;"/>
   </g>
   <g id="patch_14">
    <path clip-path="url(#p7afe8541d2)" d="M -196.787121 272.733333 
L -190.668182 272.733333 
L -190.668182 272.733333 
L -196.787121 272.733333 
z
" style="fill:#7570b3;opacity:0.6;stroke:#000000;stroke-linejoin:miter;stroke-width:0.5;"/>
   </g>
   <g id="patch_15">
    <path clip-path="url(#p7afe8541d2)" d="M -190.668182 272.733333 
L -184.549242 272.733333 
L -184.549242 272.733333 
L -190.668182 272.733333 
z
" style="fill:#7570b3;opacity:0.6;stroke:#000000;stroke-linejoin:miter;stroke-width:0.5;"/>
   </g>
   <g id="patch_16">
    <path clip-path="url(#p7afe8541d2)" d="M -184.549242 272.733333 
L -178.430303 272.733333 
L -178.430303 272.733333 
L -184.549242 272.733333 
z
" style="fill:#7570b3;opacity:0.6;stroke:#000000;stroke-linejoin:miter;stroke-width:0.5;"/>
   </g>
   <g id="patch_17">
    <path clip-path="url(#p7afe8541d2)" d="M -178.430303 272.733333 
L -172.311364 272.733333 
L -172.311364 272.733333 
L -178.430303 272.733333 
z
" style="fill:#7570b3;opacity:0.6;stroke:#000000;stroke-linejoin:miter;stroke-width:0.5;"/>
   </g>
   <g id="patch_18">
    <path clip-path="url(#p7afe8541d2)" d="M -172.311364 272.733333 
L -166.192424 272.733333 
L -166.192424 272.733333 
L -172.311364 272.733333 
z
" style="fill:#7570b3;opacity:0.6;stroke:#000000;stroke-linejoin:miter;stroke-width:0.5;"/>
   </g>
   <g id="patch_19">
    <path clip-path="url(#p7afe8541d2)" d="M -166.192424 272.733333 
L -160.073485 272.733333 
L -160.073485 272.733333 
L -166.192424 272.733333 
z
" style="fill:#7570b3;opacity:0.6;stroke:#000000;stroke-linejoin:miter;stroke-width:0.5;"/>
   </g>
   <g id="patch_20">
    <path clip-path="url(#p7afe8541d2)" d="M -160.073485 272.733333 
L -153.954545 272.733333 
L -153.954545 272.733333 
L -160.073485 272.733333 
z
" style="fill:#7570b3;opacity:0.6;stroke:#000000;stroke-linejoin:miter;stroke-width:0.5;"/>
   </g>
   <g id="patch_21">
    <path clip-path="url(#p7afe8541d2)" d="M -153.954545 272.733333 
L -147.835606 272.733333 
L -147.835606 272.733333 
L -153.954545 272.733333 
z
" style="fill:#7570b3;opacity:0.6;stroke:#000000;stroke-linejoin:miter;stroke-width:0.5;"/>
   </g>
   <g id="patch_22">
    <path clip-path="url(#p7afe8541d2)" d="M -147.835606 272.733333 
L -141.716667 272.733333 
L -141.716667 272.733333 
L -147.835606 272.733333 
z
" style="fill:#7570b3;opacity:0.6;stroke:#000000;stroke-linejoin:miter;stroke-width:0.5;"/>
   </g>
   <g id="patch_23">
    <path clip-path="url(#p7afe8541d2)" d="M -141.716667 272.733333 
L -135.597727 272.733333 
L -135.597727 272.733333 
L -141.716667 272.733333 
z
" style="fill:#7570b3;opacity:0.6;stroke:#000000;stroke-linejoin:miter;stroke-width:0.5;"/>
   </g>
   <g id="patch_24">
    <path clip-path="url(#p7afe8541d2)" d="M -135.597727 272.733333 
L -129.478788 272.733333 
L -129.478788 272.733333 
L -135.597727 272.733333 
z
" style="fill:#7570b3;opacity:0.6;stroke:#000000;stroke-linejoin:miter;stroke-width:0.5;"/>
   </g>
   <g id="patch_25">
    <path clip-path="url(#p7afe8541d2)" d="M -129.478788 272.733333 
L -123.359848 272.733333 
L -123.359848 272.733333 
L -129.478788 272.733333 
z
" style="fill:#7570b3;opacity:0.6;stroke:#000000;stroke-linejoin:miter;stroke-width:0.5;"/>
   </g>
   <g id="patch_26">
    <path clip-path="url(#p7afe8541d2)" d="M -123.359848 272.733333 
L -117.240909 272.733333 
L -117.240909 272.733333 
L -123.359848 272.733333 
z
" style="fill:#7570b3;opacity:0.6;stroke:#000000;stroke-linejoin:miter;stroke-width:0.5;"/>
   </g>
   <g id="patch_27">
    <path clip-path="url(#p7afe8541d2)" d="M -117.240909 272.733333 
L -111.12197 272.733333 
L -111.12197 272.733333 
L -117.240909 272.733333 
z
" style="fill:#7570b3;opacity:0.6;stroke:#000000;stroke-linejoin:miter;stroke-width:0.5;"/>
   </g>
   <g id="patch_28">
    <path clip-path="url(#p7afe8541d2)" d="M -111.12197 272.733333 
L -105.00303 272.733333 
L -105.00303 272.733333 
L -111.12197 272.733333 
z
" style="fill:#7570b3;opacity:0.6;stroke:#000000;stroke-linejoin:miter;stroke-width:0.5;"/>
   </g>
   <g id="patch_29">
    <path clip-path="url(#p7afe8541d2)" d="M -105.00303 272.733333 
L -98.884091 272.733333 
L -98.884091 272.733333 
L -105.00303 272.733333 
z
" style="fill:#7570b3;opacity:0.6;stroke:#000000;stroke-linejoin:miter;stroke-width:0.5;"/>
   </g>
   <g id="patch_30">
    <path clip-path="url(#p7afe8541d2)" d="M -98.884091 272.733333 
L -92.765152 272.733333 
L -92.765152 272.733333 
L -98.884091 272.733333 
z
" style="fill:#7570b3;opacity:0.6;stroke:#000000;stroke-linejoin:miter;stroke-width:0.5;"/>
   </g>
   <g id="patch_31">
    <path clip-path="url(#p7afe8541d2)" d="M -92.765152 272.733333 
L -86.646212 272.733333 
L -86.646212 272.42418 
L -92.765152 272.42418 
z
" style="fill:#7570b3;opacity:0.6;stroke:#000000;stroke-linejoin:miter;stroke-width:0.5;"/>
   </g>
   <g id="patch_32">
    <path clip-path="url(#p7afe8541d2)" d="M -86.646212 272.733333 
L -80.527273 272.733333 
L -80.527273 272.733333 
L -86.646212 272.733333 
z
" style="fill:#7570b3;opacity:0.6;stroke:#000000;stroke-linejoin:miter;stroke-width:0.5;"/>
   </g>
   <g id="patch_33">
    <path clip-path="url(#p7afe8541d2)" d="M -80.527273 272.733333 
L -74.408333 272.733333 
L -74.408333 270.878416 
L -80.527273 270.878416 
z
" style="fill:#7570b3;opacity:0.6;stroke:#000000;stroke-linejoin:miter;stroke-width:0.5;"/>
   </g>
   <g id="patch_34">
    <path clip-path="url(#p7afe8541d2)" d="M -74.408333 272.733333 
L -68.289394 272.733333 
L -68.289394 271.187569 
L -74.408333 271.187569 
z
" style="fill:#7570b3;opacity:0.6;stroke:#000000;stroke-linejoin:miter;stroke-width:0.5;"/>
   </g>
   <g id="patch_35">
    <path clip-path="url(#p7afe8541d2)" d="M -68.289394 272.733333 
L -62.170455 272.733333 
L -62.170455 264.386207 
L -68.289394 264.386207 
z
" style="fill:#7570b3;opacity:0.6;stroke:#000000;stroke-linejoin:miter;stroke-width:0.5;"/>
   </g>
   <g id="patch_36">
    <path clip-path="url(#p7afe8541d2)" d="M -62.170455 272.733333 
L -56.051515 272.733333 
L -56.051515 248.619411 
L -62.170455 248.619411 
z
" style="fill:#7570b3;opacity:0.6;stroke:#000000;stroke-linejoin:miter;stroke-width:0.5;"/>
   </g>
   <g id="patch_37">
    <path clip-path="url(#p7afe8541d2)" d="M -56.051515 272.733333 
L -49.932576 272.733333 
L -49.932576 224.196337 
L -56.051515 224.196337 
z
" style="fill:#7570b3;opacity:0.6;stroke:#000000;stroke-linejoin:miter;stroke-width:0.5;"/>
   </g>
   <g id="patch_38">
    <path clip-path="url(#p7afe8541d2)" d="M -49.932576 272.733333 
L -43.813636 272.733333 
L -43.813636 199.154956 
L -49.932576 199.154956 
z
" style="fill:#7570b3;opacity:0.6;stroke:#000000;stroke-linejoin:miter;stroke-width:0.5;"/>
   </g>
   <g id="patch_39">
    <path clip-path="url(#p7afe8541d2)" d="M -43.813636 272.733333 
L -37.694697 272.733333 
L -37.694697 191.116982 
L -43.813636 191.116982 
z
" style="fill:#7570b3;opacity:0.6;stroke:#000000;stroke-linejoin:miter;stroke-width:0.5;"/>
   </g>
   <g id="patch_40">
    <path clip-path="url(#p7afe8541d2)" d="M -37.694697 272.733333 
L -31.575758 272.733333 
L -31.575758 201.009873 
L -37.694697 201.009873 
z
" style="fill:#7570b3;opacity:0.6;stroke:#000000;stroke-linejoin:miter;stroke-width:0.5;"/>
   </g>
   <g id="patch_41">
    <path clip-path="url(#p7afe8541d2)" d="M -31.575758 272.733333 
L -25.456818 272.733333 
L -25.456818 246.146189 
L -31.575758 246.146189 
z
" style="fill:#7570b3;opacity:0.6;stroke:#000000;stroke-linejoin:miter;stroke-width:0.5;"/>
   </g>
   <g id="patch_42">
    <path clip-path="url(#p7afe8541d2)" d="M -25.456818 272.733333 
L -19.337879 272.733333 
L -19.337879 269.950958 
L -25.456818 269.950958 
z
" style="fill:#7570b3;opacity:0.6;stroke:#000000;stroke-linejoin:miter;stroke-width:0.5;"/>
   </g>
   <g id="patch_43">
    <path clip-path="url(#p7afe8541d2)" d="M -264.095455 272.733333 
L -257.976515 272.733333 
L -257.976515 272.733333 
L -264.095455 272.733333 
z
" style="fill:#d95f02;opacity:0.6;stroke:#000000;stroke-linejoin:miter;stroke-width:0.5;"/>
   </g>
   <g id="patch_44">
    <path clip-path="url(#p7afe8541d2)" d="M -257.976515 272.733333 
L -251.857576 272.733333 
L -251.857576 272.733333 
L -257.976515 272.733333 
z
" style="fill:#d95f02;opacity:0.6;stroke:#000000;stroke-linejoin:miter;stroke-width:0.5;"/>
   </g>
   <g id="patch_45">
    <path clip-path="url(#p7afe8541d2)" d="M -251.857576 272.733333 
L -245.738636 272.733333 
L -245.738636 272.733333 
L -251.857576 272.733333 
z
" style="fill:#d95f02;opacity:0.6;stroke:#000000;stroke-linejoin:miter;stroke-width:0.5;"/>
   </g>
   <g id="patch_46">
    <path clip-path="url(#p7afe8541d2)" d="M -245.738636 272.733333 
L -239.619697 272.733333 
L -239.619697 272.733333 
L -245.738636 272.733333 
z
" style="fill:#d95f02;opacity:0.6;stroke:#000000;stroke-linejoin:miter;stroke-width:0.5;"/>
   </g>
   <g id="patch_47">
    <path clip-path="url(#p7afe8541d2)" d="M -239.619697 272.733333 
L -233.500758 272.733333 
L -233.500758 272.733333 
L -239.619697 272.733333 
z
" style="fill:#d95f02;opacity:0.6;stroke:#000000;stroke-linejoin:miter;stroke-width:0.5;"/>
   </g>
   <g id="patch_48">
    <path clip-path="url(#p7afe8541d2)" d="M -233.500758 272.733333 
L -227.381818 272.733333 
L -227.381818 272.733333 
L -233.500758 272.733333 
z
" style="fill:#d95f02;opacity:0.6;stroke:#000000;stroke-linejoin:miter;stroke-width:0.5;"/>
   </g>
   <g id="patch_49">
    <path clip-path="url(#p7afe8541d2)" d="M -227.381818 272.733333 
L -221.262879 272.733333 
L -221.262879 272.733333 
L -227.381818 272.733333 
z
" style="fill:#d95f02;opacity:0.6;stroke:#000000;stroke-linejoin:miter;stroke-width:0.5;"/>
   </g>
   <g id="patch_50">
    <path clip-path="url(#p7afe8541d2)" d="M -221.262879 272.733333 
L -215.143939 272.733333 
L -215.143939 272.733333 
L -221.262879 272.733333 
z
" style="fill:#d95f02;opacity:0.6;stroke:#000000;stroke-linejoin:miter;stroke-width:0.5;"/>
   </g>
   <g id="patch_51">
    <path clip-path="url(#p7afe8541d2)" d="M -215.143939 272.733333 
L -209.025 272.733333 
L -209.025 272.733333 
L -215.143939 272.733333 
z
" style="fill:#d95f02;opacity:0.6;stroke:#000000;stroke-linejoin:miter;stroke-width:0.5;"/>
   </g>
   <g id="patch_52">
    <path clip-path="url(#p7afe8541d2)" d="M -209.025 272.733333 
L -202.906061 272.733333 
L -202.906061 272.733333 
L -209.025 272.733333 
z
" style="fill:#d95f02;opacity:0.6;stroke:#000000;stroke-linejoin:miter;stroke-width:0.5;"/>
   </g>
   <g id="patch_53">
    <path clip-path="url(#p7afe8541d2)" d="M -202.906061 272.733333 
L -196.787121 272.733333 
L -196.787121 272.733333 
L -202.906061 272.733333 
z
" style="fill:#d95f02;opacity:0.6;stroke:#000000;stroke-linejoin:miter;stroke-width:0.5;"/>
   </g>
   <g id="patch_54">
    <path clip-path="url(#p7afe8541d2)" d="M -196.787121 272.733333 
L -190.668182 272.733333 
L -190.668182 272.733333 
L -196.787121 272.733333 
z
" style="fill:#d95f02;opacity:0.6;stroke:#000000;stroke-linejoin:miter;stroke-width:0.5;"/>
   </g>
   <g id="patch_55">
    <path clip-path="url(#p7afe8541d2)" d="M -190.668182 272.733333 
L -184.549242 272.733333 
L -184.549242 272.733333 
L -190.668182 272.733333 
z
" style="fill:#d95f02;opacity:0.6;stroke:#000000;stroke-linejoin:miter;stroke-width:0.5;"/>
   </g>
   <g id="patch_56">
    <path clip-path="url(#p7afe8541d2)" d="M -184.549242 272.733333 
L -178.430303 272.733333 
L -178.430303 272.733333 
L -184.549242 272.733333 
z
" style="fill:#d95f02;opacity:0.6;stroke:#000000;stroke-linejoin:miter;stroke-width:0.5;"/>
   </g>
   <g id="patch_57">
    <path clip-path="url(#p7afe8541d2)" d="M -178.430303 272.733333 
L -172.311364 272.733333 
L -172.311364 272.733333 
L -178.430303 272.733333 
z
" style="fill:#d95f02;opacity:0.6;stroke:#000000;stroke-linejoin:miter;stroke-width:0.5;"/>
   </g>
   <g id="patch_58">
    <path clip-path="url(#p7afe8541d2)" d="M -172.311364 272.733333 
L -166.192424 272.733333 
L -166.192424 272.733333 
L -172.311364 272.733333 
z
" style="fill:#d95f02;opacity:0.6;stroke:#000000;stroke-linejoin:miter;stroke-width:0.5;"/>
   </g>
   <g id="patch_59">
    <path clip-path="url(#p7afe8541d2)" d="M -166.192424 272.733333 
L -160.073485 272.733333 
L -160.073485 272.733333 
L -166.192424 272.733333 
z
" style="fill:#d95f02;opacity:0.6;stroke:#000000;stroke-linejoin:miter;stroke-width:0.5;"/>
   </g>
   <g id="patch_60">
    <path clip-path="url(#p7afe8541d2)" d="M -160.073485 272.733333 
L -153.954545 272.733333 
L -153.954545 272.733333 
L -160.073485 272.733333 
z
" style="fill:#d95f02;opacity:0.6;stroke:#000000;stroke-linejoin:miter;stroke-width:0.5;"/>
   </g>
   <g id="patch_61">
    <path clip-path="url(#p7afe8541d2)" d="M -153.954545 272.733333 
L -147.835606 272.733333 
L -147.835606 272.733333 
L -153.954545 272.733333 
z
" style="fill:#d95f02;opacity:0.6;stroke:#000000;stroke-linejoin:miter;stroke-width:0.5;"/>
   </g>
   <g id="patch_62">
    <path clip-path="url(#p7afe8541d2)" d="M -147.835606 272.733333 
L -141.716667 272.733333 
L -141.716667 272.733333 
L -147.835606 272.733333 
z
" style="fill:#d95f02;opacity:0.6;stroke:#000000;stroke-linejoin:miter;stroke-width:0.5;"/>
   </g>
   <g id="patch_63">
    <path clip-path="url(#p7afe8541d2)" d="M -141.716667 272.733333 
L -135.597727 272.733333 
L -135.597727 272.733333 
L -141.716667 272.733333 
z
" style="fill:#d95f02;opacity:0.6;stroke:#000000;stroke-linejoin:miter;stroke-width:0.5;"/>
   </g>
   <g id="patch_64">
    <path clip-path="url(#p7afe8541d2)" d="M -135.597727 272.733333 
L -129.478788 272.733333 
L -129.478788 272.733333 
L -135.597727 272.733333 
z
" style="fill:#d95f02;opacity:0.6;stroke:#000000;stroke-linejoin:miter;stroke-width:0.5;"/>
   </g>
   <g id="patch_65">
    <path clip-path="url(#p7afe8541d2)" d="M -129.478788 272.733333 
L -123.359848 272.733333 
L -123.359848 272.733333 
L -129.478788 272.733333 
z
" style="fill:#d95f02;opacity:0.6;stroke:#000000;stroke-linejoin:miter;stroke-width:0.5;"/>
   </g>
   <g id="patch_66">
    <path clip-path="url(#p7afe8541d2)" d="M -123.359848 272.733333 
L -117.240909 272.733333 
L -117.240909 272.733333 
L -123.359848 272.733333 
z
" style="fill:#d95f02;opacity:0.6;stroke:#000000;stroke-linejoin:miter;stroke-width:0.5;"/>
   </g>
   <g id="patch_67">
    <path clip-path="url(#p7afe8541d2)" d="M -117.240909 272.733333 
L -111.12197 272.733333 
L -111.12197 272.733333 
L -117.240909 272.733333 
z
" style="fill:#d95f02;opacity:0.6;stroke:#000000;stroke-linejoin:miter;stroke-width:0.5;"/>
   </g>
   <g id="patch_68">
    <path clip-path="url(#p7afe8541d2)" d="M -111.12197 272.733333 
L -105.00303 272.733333 
L -105.00303 272.733333 
L -111.12197 272.733333 
z
" style="fill:#d95f02;opacity:0.6;stroke:#000000;stroke-linejoin:miter;stroke-width:0.5;"/>
   </g>
   <g id="patch_69">
    <path clip-path="url(#p7afe8541d2)" d="M -105.00303 272.733333 
L -98.884091 272.733333 
L -98.884091 272.733333 
L -105.00303 272.733333 
z
" style="fill:#d95f02;opacity:0.6;stroke:#000000;stroke-linejoin:miter;stroke-width:0.5;"/>
   </g>
   <g id="patch_70">
    <path clip-path="url(#p7afe8541d2)" d="M -98.884091 272.733333 
L -92.765152 272.733333 
L -92.765152 272.733333 
L -98.884091 272.733333 
z
" style="fill:#d95f02;opacity:0.6;stroke:#000000;stroke-linejoin:miter;stroke-width:0.5;"/>
   </g>
   <g id="patch_71">
    <path clip-path="url(#p7afe8541d2)" d="M -92.765152 272.733333 
L -86.646212 272.733333 
L -86.646212 272.733333 
L -92.765152 272.733333 
z
" style="fill:#d95f02;opacity:0.6;stroke:#000000;stroke-linejoin:miter;stroke-width:0.5;"/>
   </g>
   <g id="patch_72">
    <path clip-path="url(#p7afe8541d2)" d="M -86.646212 272.733333 
L -80.527273 272.733333 
L -80.527273 272.733333 
L -86.646212 272.733333 
z
" style="fill:#d95f02;opacity:0.6;stroke:#000000;stroke-linejoin:miter;stroke-width:0.5;"/>
   </g>
   <g id="patch_73">
    <path clip-path="url(#p7afe8541d2)" d="M -80.527273 272.733333 
L -74.408333 272.733333 
L -74.408333 272.733333 
L -80.527273 272.733333 
z
" style="fill:#d95f02;opacity:0.6;stroke:#000000;stroke-linejoin:miter;stroke-width:0.5;"/>
   </g>
   <g id="patch_74">
    <path clip-path="url(#p7afe8541d2)" d="M -74.408333 272.733333 
L -68.289394 272.733333 
L -68.289394 272.733333 
L -74.408333 272.733333 
z
" style="fill:#d95f02;opacity:0.6;stroke:#000000;stroke-linejoin:miter;stroke-width:0.5;"/>
   </g>
   <g id="patch_75">
    <path clip-path="url(#p7afe8541d2)" d="M -68.289394 272.733333 
L -62.170455 272.733333 
L -62.170455 272.733333 
L -68.289394 272.733333 
z
" style="fill:#d95f02;opacity:0.6;stroke:#000000;stroke-linejoin:miter;stroke-width:0.5;"/>
   </g>
   <g id="patch_76">
    <path clip-path="url(#p7afe8541d2)" d="M -62.170455 272.733333 
L -56.051515 272.733333 
L -56.051515 272.733333 
L -62.170455 272.733333 
z
" style="fill:#d95f02;opacity:0.6;stroke:#000000;stroke-linejoin:miter;stroke-width:0.5;"/>
   </g>
   <g id="patch_77">
    <path clip-path="url(#p7afe8541d2)" d="M -56.051515 272.733333 
L -49.932576 272.733333 
L -49.932576 272.733333 
L -56.051515 272.733333 
z
" style="fill:#d95f02;opacity:0.6;stroke:#000000;stroke-linejoin:miter;stroke-width:0.5;"/>
   </g>
   <g id="patch_78">
    <path clip-path="url(#p7afe8541d2)" d="M -49.932576 272.733333 
L -43.813636 272.733333 
L -43.813636 270.735312 
L -49.932576 270.735312 
z
" style="fill:#d95f02;opacity:0.6;stroke:#000000;stroke-linejoin:miter;stroke-width:0.5;"/>
   </g>
   <g id="patch_79">
    <path clip-path="url(#p7afe8541d2)" d="M -43.813636 272.733333 
L -37.694697 272.733333 
L -37.694697 271.401319 
L -43.813636 271.401319 
z
" style="fill:#d95f02;opacity:0.6;stroke:#000000;stroke-linejoin:miter;stroke-width:0.5;"/>
   </g>
   <g id="patch_80">
    <path clip-path="url(#p7afe8541d2)" d="M -37.694697 272.733333 
L -31.575758 272.733333 
L -31.575758 242.763018 
L -37.694697 242.763018 
z
" style="fill:#d95f02;opacity:0.6;stroke:#000000;stroke-linejoin:miter;stroke-width:0.5;"/>
   </g>
   <g id="patch_81">
    <path clip-path="url(#p7afe8541d2)" d="M -31.575758 272.733333 
L -25.456818 272.733333 
L -25.456818 16.320635 
L -31.575758 16.320635 
z
" style="fill:#d95f02;opacity:0.6;stroke:#000000;stroke-linejoin:miter;stroke-width:0.5;"/>
   </g>
   <g id="patch_82">
    <path clip-path="url(#p7afe8541d2)" d="M -25.456818 272.733333 
L -19.337879 272.733333 
L -19.337879 221.450794 
L -25.456818 221.450794 
z
" style="fill:#d95f02;opacity:0.6;stroke:#000000;stroke-linejoin:miter;stroke-width:0.5;"/>
   </g>
   <g id="matplotlib.axis_1">
    <g id="xtick_1">
     <g id="line2d_1">
      <defs>
       <path d="M 0 0 
L 0 3.5 
" id="md01cc5be1a" style="stroke:#000000;stroke-width:1.6;"/>
      </defs>
      <g/>
     </g>
     <g id="text_1">
      <!-- 0.0 -->
      <defs>
       <path d="M 31.78125 66.40625 
Q 24.171875 66.40625 20.328125 58.90625 
Q 16.5 51.421875 16.5 36.375 
Q 16.5 21.390625 20.328125 13.890625 
Q 24.171875 6.390625 31.78125 6.390625 
Q 39.453125 6.390625 43.28125 13.890625 
Q 47.125 21.390625 47.125 36.375 
Q 47.125 51.421875 43.28125 58.90625 
Q 39.453125 66.40625 31.78125 66.40625 
z
M 31.78125 74.21875 
Q 44.046875 74.21875 50.515625 64.515625 
Q 56.984375 54.828125 56.984375 36.375 
Q 56.984375 17.96875 50.515625 8.265625 
Q 44.046875 -1.421875 31.78125 -1.421875 
Q 19.53125 -1.421875 13.0625 8.265625 
Q 6.59375 17.96875 6.59375 36.375 
Q 6.59375 54.828125 13.0625 64.515625 
Q 19.53125 74.21875 31.78125 74.21875 
z
" id="DejaVuSans-48"/>
       <path d="M 10.6875 12.40625 
L 21 12.40625 
L 21 0 
L 10.6875 0 
z
" id="DejaVuSans-46"/>
      </defs>
      <g transform="translate(-279.99858 302.630208)scale(0.2 -0.2)">
       <use xlink:href="#DejaVuSans-48"/>
       <use x="63.623047" xlink:href="#DejaVuSans-46"/>
       <use x="95.410156" xlink:href="#DejaVuSans-48"/>
      </g>
     </g>
    </g>
    <g id="xtick_2">
     <g id="line2d_2">
      <g/>
     </g>
     <g id="text_2">
      <!-- 0.2 -->
      <defs>
       <path d="M 19.1875 8.296875 
L 53.609375 8.296875 
L 53.609375 0 
L 7.328125 0 
L 7.328125 8.296875 
Q 12.9375 14.109375 22.625 23.890625 
Q 32.328125 33.6875 34.8125 36.53125 
Q 39.546875 41.84375 41.421875 45.53125 
Q 43.3125 49.21875 43.3125 52.78125 
Q 43.3125 58.59375 39.234375 62.25 
Q 35.15625 65.921875 28.609375 65.921875 
Q 23.96875 65.921875 18.8125 64.3125 
Q 13.671875 62.703125 7.8125 59.421875 
L 7.8125 69.390625 
Q 13.765625 71.78125 18.9375 73 
Q 24.125 74.21875 28.421875 74.21875 
Q 39.75 74.21875 46.484375 68.546875 
Q 53.21875 62.890625 53.21875 53.421875 
Q 53.21875 48.921875 51.53125 44.890625 
Q 49.859375 40.875 45.40625 35.40625 
Q 44.1875 33.984375 37.640625 27.21875 
Q 31.109375 20.453125 19.1875 8.296875 
z
" id="DejaVuSans-50"/>
      </defs>
      <g transform="translate(-210.067844 302.630208)scale(0.2 -0.2)">
       <use xlink:href="#DejaVuSans-48"/>
       <use x="63.623047" xlink:href="#DejaVuSans-46"/>
       <use x="95.410156" xlink:href="#DejaVuSans-50"/>
      </g>
     </g>
    </g>
    <g id="xtick_3">
     <g id="line2d_3">
      <g/>
     </g>
     <g id="text_3">
      <!-- 0.4 -->
      <defs>
       <path d="M 37.796875 64.3125 
L 12.890625 25.390625 
L 37.796875 25.390625 
z
M 35.203125 72.90625 
L 47.609375 72.90625 
L 47.609375 25.390625 
L 58.015625 25.390625 
L 58.015625 17.1875 
L 47.609375 17.1875 
L 47.609375 0 
L 37.796875 0 
L 37.796875 17.1875 
L 4.890625 17.1875 
L 4.890625 26.703125 
z
" id="DejaVuSans-52"/>
      </defs>
      <g transform="translate(-140.137108 302.630208)scale(0.2 -0.2)">
       <use xlink:href="#DejaVuSans-48"/>
       <use x="63.623047" xlink:href="#DejaVuSans-46"/>
       <use x="95.410156" xlink:href="#DejaVuSans-52"/>
      </g>
     </g>
    </g>
    <g id="xtick_4">
     <g id="line2d_4">
      <g/>
     </g>
     <g id="text_4">
      <!-- 0.6 -->
      <defs>
       <path d="M 33.015625 40.375 
Q 26.375 40.375 22.484375 35.828125 
Q 18.609375 31.296875 18.609375 23.390625 
Q 18.609375 15.53125 22.484375 10.953125 
Q 26.375 6.390625 33.015625 6.390625 
Q 39.65625 6.390625 43.53125 10.953125 
Q 47.40625 15.53125 47.40625 23.390625 
Q 47.40625 31.296875 43.53125 35.828125 
Q 39.65625 40.375 33.015625 40.375 
z
M 52.59375 71.296875 
L 52.59375 62.3125 
Q 48.875 64.0625 45.09375 64.984375 
Q 41.3125 65.921875 37.59375 65.921875 
Q 27.828125 65.921875 22.671875 59.328125 
Q 17.53125 52.734375 16.796875 39.40625 
Q 19.671875 43.65625 24.015625 45.921875 
Q 28.375 48.1875 33.59375 48.1875 
Q 44.578125 48.1875 50.953125 41.515625 
Q 57.328125 34.859375 57.328125 23.390625 
Q 57.328125 12.15625 50.6875 5.359375 
Q 44.046875 -1.421875 33.015625 -1.421875 
Q 20.359375 -1.421875 13.671875 8.265625 
Q 6.984375 17.96875 6.984375 36.375 
Q 6.984375 53.65625 15.1875 63.9375 
Q 23.390625 74.21875 37.203125 74.21875 
Q 40.921875 74.21875 44.703125 73.484375 
Q 48.484375 72.75 52.59375 71.296875 
z
" id="DejaVuSans-54"/>
      </defs>
      <g transform="translate(-70.206372 302.630208)scale(0.2 -0.2)">
       <use xlink:href="#DejaVuSans-48"/>
       <use x="63.623047" xlink:href="#DejaVuSans-46"/>
       <use x="95.410156" xlink:href="#DejaVuSans-54"/>
      </g>
     </g>
    </g>
    <g id="text_5">
     <!--   -->
     <defs>
      <path id="DejaVuSans-32"/>
     </defs>
     <g transform="translate(-144.894792 325.986458)scale(0.2 -0.2)">
      <use xlink:href="#DejaVuSans-32"/>
     </g>
    </g>
   </g>
   <g id="matplotlib.axis_2">
    <g id="ytick_1">
     <g id="line2d_5">
      <defs>
       <path d="M 0 0 
L -3.5 0 
" id="mf19707fb3d" style="stroke:#000000;stroke-width:1.6;"/>
      </defs>
      <g/>
     </g>
     <g id="text_6">
      <!-- 0.0 -->
      <g transform="translate(-322.839583 280.331771)scale(0.2 -0.2)">
       <use xlink:href="#DejaVuSans-48"/>
       <use x="63.623047" xlink:href="#DejaVuSans-46"/>
       <use x="95.410156" xlink:href="#DejaVuSans-48"/>
      </g>
     </g>
    </g>
    <g id="ytick_2">
     <g id="line2d_6">
      <g/>
     </g>
     <g id="text_7">
      <!-- 0.2 -->
      <g transform="translate(-322.839583 212.132653)scale(0.2 -0.2)">
       <use xlink:href="#DejaVuSans-48"/>
       <use x="63.623047" xlink:href="#DejaVuSans-46"/>
       <use x="95.410156" xlink:href="#DejaVuSans-50"/>
      </g>
     </g>
    </g>
    <g id="ytick_3">
     <g id="line2d_7">
      <g/>
     </g>
     <g id="text_8">
      <!-- 0.4 -->
      <g transform="translate(-322.839583 143.933535)scale(0.2 -0.2)">
       <use xlink:href="#DejaVuSans-48"/>
       <use x="63.623047" xlink:href="#DejaVuSans-46"/>
       <use x="95.410156" xlink:href="#DejaVuSans-52"/>
      </g>
     </g>
    </g>
    <g id="ytick_4">
     <g id="line2d_8">
      <g/>
     </g>
     <g id="text_9">
      <!-- 0.6 -->
      <g transform="translate(-322.839583 75.734418)scale(0.2 -0.2)">
       <use xlink:href="#DejaVuSans-48"/>
       <use x="63.623047" xlink:href="#DejaVuSans-46"/>
       <use x="95.410156" xlink:href="#DejaVuSans-54"/>
      </g>
     </g>
    </g>
    <g id="text_10">
     <!--   -->
     <g transform="translate(-330.499833 140.913417)rotate(-90)scale(0.176 -0.176)">
      <use xlink:href="#DejaVuSans-32"/>
     </g>
    </g>
   </g>
   <g id="patch_83">
    <path style="fill:none;stroke:#000000;stroke-linecap:square;stroke-linejoin:miter;stroke-width:0.8;"/>
   </g>
   <g id="patch_84">
    <path style="fill:none;stroke:#000000;stroke-linecap:square;stroke-linejoin:miter;stroke-width:0.8;"/>
   </g>
  </g>
  <g id="axes_2">
   <g id="patch_85">
    <path d="M 96.7 272.733333 
L 365.933333 272.733333 
L 365.933333 3.5 
L 96.7 3.5 
z
" style="fill:#ffffff;"/>
   </g>
   <g id="PolyCollection_1">
    <defs>
     <path d="M 296.641077 -309.728483 
L 296.641077 -309.753184 
L 297.297317 -309.753047 
L 297.953556 -309.752386 
L 298.609796 -309.751502 
L 299.266036 -309.750823 
L 299.922275 -309.750827 
L 300.578515 -309.751973 
L 301.234755 -309.754628 
L 301.890994 -309.759001 
L 302.547234 -309.765092 
L 303.203474 -309.772656 
L 303.859713 -309.781197 
L 304.515953 -309.790006 
L 305.172193 -309.798239 
L 305.828432 -309.80506 
L 306.484672 -309.809793 
L 307.140912 -309.812083 
L 307.797151 -309.812021 
L 308.453391 -309.810186 
L 309.109631 -309.807617 
L 309.76587 -309.805683 
L 310.42211 -309.805901 
L 311.078349 -309.809696 
L 311.734589 -309.818154 
L 312.390829 -309.831806 
L 313.047068 -309.850471 
L 313.703308 -309.87324 
L 314.359548 -309.89862 
L 315.015787 -309.924871 
L 315.672027 -309.950474 
L 316.328267 -309.974624 
L 316.984506 -309.997593 
L 317.640746 -310.020811 
L 318.296986 -310.046598 
L 318.953225 -310.077592 
L 319.609465 -310.116048 
L 320.265705 -310.163234 
L 320.921944 -310.219142 
L 321.578184 -310.28263 
L 322.234424 -310.351916 
L 322.890663 -310.425249 
L 323.546903 -310.501466 
L 324.203143 -310.580232 
L 324.859382 -310.661866 
L 325.515622 -310.74688 
L 326.171862 -310.835457 
L 326.828101 -310.927125 
L 327.484341 -311.020774 
L 328.140581 -311.114981 
L 328.79682 -311.208462 
L 329.45306 -311.300418 
L 330.1093 -311.390632 
L 330.765539 -311.479316 
L 331.421779 -311.566812 
L 332.078019 -311.653306 
L 332.734258 -311.738642 
L 333.390498 -311.82227 
L 334.046738 -311.903285 
L 334.702977 -311.980543 
L 335.359217 -312.052813 
L 336.015457 -312.118944 
L 336.671696 -312.17801 
L 337.327936 -312.229368 
L 337.984176 -312.272602 
L 338.640415 -312.307371 
L 339.296655 -312.333241 
L 339.952895 -312.349604 
L 340.609134 -312.355756 
L 341.265374 -312.351113 
L 341.921613 -312.335493 
L 342.577853 -312.309367 
L 343.234093 -312.273972 
L 343.890332 -312.231231 
L 344.546572 -312.183472 
L 345.202812 -312.132984 
L 345.859051 -312.081504 
L 346.515291 -312.029765 
L 347.171531 -311.977257 
L 347.82777 -311.922285 
L 348.48401 -311.86235 
L 349.14025 -311.794749 
L 349.796489 -311.717238 
L 350.452729 -311.628567 
L 351.108969 -311.528763 
L 351.765208 -311.419102 
L 352.421448 -311.301829 
L 353.077688 -311.179718 
L 353.733927 -311.055624 
L 354.390167 -310.932125 
L 355.046407 -310.811327 
L 355.702646 -310.69482 
L 356.358886 -310.583745 
L 357.015126 -310.478902 
L 357.671365 -310.380843 
L 358.327605 -310.289927 
L 358.983845 -310.206355 
L 359.640084 -310.130193 
L 360.296324 -310.061414 
L 360.952564 -309.999947 
L 361.608803 -309.945728 
L 361.608803 -309.535938 
L 361.608803 -309.535938 
L 360.952564 -309.48172 
L 360.296324 -309.420252 
L 359.640084 -309.351473 
L 358.983845 -309.275312 
L 358.327605 -309.19174 
L 357.671365 -309.100824 
L 357.015126 -309.002764 
L 356.358886 -308.897922 
L 355.702646 -308.786847 
L 355.046407 -308.670339 
L 354.390167 -308.549541 
L 353.733927 -308.426043 
L 353.077688 -308.301949 
L 352.421448 -308.179838 
L 351.765208 -308.062565 
L 351.108969 -307.952904 
L 350.452729 -307.8531 
L 349.796489 -307.764429 
L 349.14025 -307.686918 
L 348.48401 -307.619316 
L 347.82777 -307.559381 
L 347.171531 -307.504409 
L 346.515291 -307.451902 
L 345.859051 -307.400163 
L 345.202812 -307.348683 
L 344.546572 -307.298195 
L 343.890332 -307.250436 
L 343.234093 -307.207694 
L 342.577853 -307.172299 
L 341.921613 -307.146174 
L 341.265374 -307.130554 
L 340.609134 -307.12591 
L 339.952895 -307.132063 
L 339.296655 -307.148426 
L 338.640415 -307.174295 
L 337.984176 -307.209064 
L 337.327936 -307.252299 
L 336.671696 -307.303657 
L 336.015457 -307.362722 
L 335.359217 -307.428853 
L 334.702977 -307.501123 
L 334.046738 -307.578382 
L 333.390498 -307.659397 
L 332.734258 -307.743024 
L 332.078019 -307.828361 
L 331.421779 -307.914855 
L 330.765539 -308.002351 
L 330.1093 -308.091035 
L 329.45306 -308.181249 
L 328.79682 -308.273205 
L 328.140581 -308.366686 
L 327.484341 -308.460893 
L 326.828101 -308.554542 
L 326.171862 -308.64621 
L 325.515622 -308.734787 
L 324.859382 -308.819801 
L 324.203143 -308.901435 
L 323.546903 -308.9802 
L 322.890663 -309.056418 
L 322.234424 -309.129751 
L 321.578184 -309.199037 
L 320.921944 -309.262524 
L 320.265705 -309.318433 
L 319.609465 -309.365618 
L 318.953225 -309.404075 
L 318.296986 -309.435069 
L 317.640746 -309.460856 
L 316.984506 -309.484074 
L 316.328267 -309.507043 
L 315.672027 -309.531193 
L 315.015787 -309.556795 
L 314.359548 -309.583046 
L 313.703308 -309.608427 
L 313.047068 -309.631196 
L 312.390829 -309.649861 
L 311.734589 -309.663512 
L 311.078349 -309.671971 
L 310.42211 -309.675765 
L 309.76587 -309.675984 
L 309.109631 -309.67405 
L 308.453391 -309.67148 
L 307.797151 -309.669646 
L 307.140912 -309.669583 
L 306.484672 -309.671874 
L 305.828432 -309.676607 
L 305.172193 -309.683427 
L 304.515953 -309.691661 
L 303.859713 -309.700469 
L 303.203474 -309.709011 
L 302.547234 -309.716575 
L 301.890994 -309.722666 
L 301.234755 -309.727038 
L 300.578515 -309.729693 
L 299.922275 -309.73084 
L 299.266036 -309.730844 
L 298.609796 -309.730164 
L 297.953556 -309.729281 
L 297.297317 -309.728619 
L 296.641077 -309.728483 
z
" id="m5f612b2ac8" style="stroke:#424242;"/>
    </defs>
    <g clip-path="url(#p6680208f2d)">
     <use style="fill:#7c78ab;stroke:#424242;" x="0" xlink:href="#m5f612b2ac8" y="333.433333"/>
    </g>
   </g>
   <g id="PolyCollection_2">
    <defs>
     <path d="M 335.915332 -282.728888 
L 335.915332 -282.906112 
L 336.187912 -282.910813 
L 336.460492 -282.911832 
L 336.733071 -282.911758 
L 337.005651 -282.911836 
L 337.278231 -282.910924 
L 337.55081 -282.90646 
L 337.82339 -282.896638 
L 338.09597 -282.882028 
L 338.368549 -282.865523 
L 338.641129 -282.850954 
L 338.913709 -282.841568 
L 339.186288 -282.839249 
L 339.458868 -282.844386 
L 339.731447 -282.855864 
L 340.004027 -282.870939 
L 340.276607 -282.885447 
L 340.549186 -282.894833 
L 340.821766 -282.895881 
L 341.094346 -282.888154 
L 341.366925 -282.874124 
L 341.639505 -282.857842 
L 341.912085 -282.84305 
L 342.184664 -282.831885 
L 342.457244 -282.8247 
L 342.729824 -282.820704 
L 343.002403 -282.818767 
L 343.274983 -282.817946 
L 343.547563 -282.81764 
L 343.820142 -282.817543 
L 344.092722 -282.817526 
L 344.365302 -282.817567 
L 344.637881 -282.817724 
L 344.910461 -282.818184 
L 345.183041 -282.819356 
L 345.45562 -282.821979 
L 345.7282 -282.827108 
L 346.00078 -282.835822 
L 346.273359 -282.848561 
L 346.545939 -282.864318 
L 346.818519 -282.880265 
L 347.091098 -282.892417 
L 347.363678 -282.897367 
L 347.636258 -282.894262 
L 347.908837 -282.885828 
L 348.181417 -282.877772 
L 348.453997 -282.87691 
L 348.726576 -282.888992 
L 348.999156 -282.917098 
L 349.271736 -282.961112 
L 349.544315 -283.018392 
L 349.816895 -283.085201 
L 350.089475 -283.15788 
L 350.362054 -283.232732 
L 350.634634 -283.304937 
L 350.907214 -283.368363 
L 351.179793 -283.418206 
L 351.452373 -283.45598 
L 351.724952 -283.493435 
L 351.997532 -283.551421 
L 352.270112 -283.652655 
L 352.542691 -283.811728 
L 352.815271 -284.028084 
L 353.087851 -284.286344 
L 353.36043 -284.564596 
L 353.63301 -284.847463 
L 353.90559 -285.138224 
L 354.178169 -285.46345 
L 354.450749 -285.865682 
L 354.723329 -286.385653 
L 354.995908 -287.043195 
L 355.268488 -287.829134 
L 355.541068 -288.714339 
L 355.813647 -289.669368 
L 356.086227 -290.678729 
L 356.358807 -291.736531 
L 356.631386 -292.824873 
L 356.903966 -293.891932 
L 357.176546 -294.850329 
L 357.449125 -295.603054 
L 357.721705 -296.082928 
L 357.994285 -296.279167 
L 358.266864 -296.232116 
L 358.539444 -295.999492 
L 358.812024 -295.617205 
L 359.084603 -295.080426 
L 359.357183 -294.355308 
L 359.629763 -293.411159 
L 359.902342 -292.251578 
L 360.174922 -290.927256 
L 360.447502 -289.526882 
L 360.720081 -288.15452 
L 360.992661 -286.905189 
L 361.265241 -285.846572 
L 361.53782 -285.009832 
L 361.8104 -284.389674 
L 362.08298 -283.952593 
L 362.355559 -283.650698 
L 362.628139 -283.436662 
L 362.900718 -283.27475 
L 362.900718 -282.36025 
L 362.900718 -282.36025 
L 362.628139 -282.198338 
L 362.355559 -281.984302 
L 362.08298 -281.682407 
L 361.8104 -281.245326 
L 361.53782 -280.625168 
L 361.265241 -279.788428 
L 360.992661 -278.729811 
L 360.720081 -277.48048 
L 360.447502 -276.108118 
L 360.174922 -274.707744 
L 359.902342 -273.383422 
L 359.629763 -272.223841 
L 359.357183 -271.279692 
L 359.084603 -270.554574 
L 358.812024 -270.017795 
L 358.539444 -269.635508 
L 358.266864 -269.402884 
L 357.994285 -269.355833 
L 357.721705 -269.552072 
L 357.449125 -270.031946 
L 357.176546 -270.784671 
L 356.903966 -271.743068 
L 356.631386 -272.810127 
L 356.358807 -273.898469 
L 356.086227 -274.956271 
L 355.813647 -275.965632 
L 355.541068 -276.920661 
L 355.268488 -277.805866 
L 354.995908 -278.591805 
L 354.723329 -279.249347 
L 354.450749 -279.769318 
L 354.178169 -280.17155 
L 353.90559 -280.496776 
L 353.63301 -280.787537 
L 353.36043 -281.070404 
L 353.087851 -281.348656 
L 352.815271 -281.606916 
L 352.542691 -281.823272 
L 352.270112 -281.982345 
L 351.997532 -282.083579 
L 351.724952 -282.141565 
L 351.452373 -282.17902 
L 351.179793 -282.216794 
L 350.907214 -282.266637 
L 350.634634 -282.330063 
L 350.362054 -282.402268 
L 350.089475 -282.47712 
L 349.816895 -282.549799 
L 349.544315 -282.616608 
L 349.271736 -282.673888 
L 348.999156 -282.717902 
L 348.726576 -282.746008 
L 348.453997 -282.75809 
L 348.181417 -282.757228 
L 347.908837 -282.749172 
L 347.636258 -282.740738 
L 347.363678 -282.737633 
L 347.091098 -282.742583 
L 346.818519 -282.754735 
L 346.545939 -282.770682 
L 346.273359 -282.786439 
L 346.00078 -282.799178 
L 345.7282 -282.807892 
L 345.45562 -282.813021 
L 345.183041 -282.815644 
L 344.910461 -282.816816 
L 344.637881 -282.817276 
L 344.365302 -282.817433 
L 344.092722 -282.817474 
L 343.820142 -282.817457 
L 343.547563 -282.81736 
L 343.274983 -282.817054 
L 343.002403 -282.816233 
L 342.729824 -282.814296 
L 342.457244 -282.8103 
L 342.184664 -282.803115 
L 341.912085 -282.79195 
L 341.639505 -282.777158 
L 341.366925 -282.760876 
L 341.094346 -282.746846 
L 340.821766 -282.739119 
L 340.549186 -282.740167 
L 340.276607 -282.749553 
L 340.004027 -282.764061 
L 339.731447 -282.779136 
L 339.458868 -282.790614 
L 339.186288 -282.795751 
L 338.913709 -282.793432 
L 338.641129 -282.784046 
L 338.368549 -282.769477 
L 338.09597 -282.752972 
L 337.82339 -282.738362 
L 337.55081 -282.72854 
L 337.278231 -282.724076 
L 337.005651 -282.723164 
L 336.733071 -282.723242 
L 336.460492 -282.723168 
L 336.187912 -282.724187 
L 335.915332 -282.728888 
z
" id="m406ccd4d2f" style="stroke:#424242;"/>
    </defs>
    <g clip-path="url(#p6680208f2d)">
     <use style="fill:#be631d;stroke:#424242;" x="0" xlink:href="#m406ccd4d2f" y="333.433333"/>
    </g>
   </g>
   <g id="PolyCollection_3">
    <defs>
     <path d="M 321.530884 -242.157845 
L 321.530884 -242.707155 
L 321.940106 -242.723083 
L 322.349328 -242.734744 
L 322.758549 -242.742381 
L 323.167771 -242.746735 
L 323.576993 -242.748995 
L 323.986215 -242.750698 
L 324.395436 -242.753588 
L 324.804658 -242.759457 
L 325.21388 -242.769975 
L 325.623102 -242.786553 
L 326.032323 -242.810237 
L 326.441545 -242.841643 
L 326.850767 -242.880968 
L 327.259989 -242.928038 
L 327.669211 -242.982417 
L 328.078432 -243.043554 
L 328.487654 -243.110945 
L 328.896876 -243.184288 
L 329.306098 -243.263614 
L 329.715319 -243.349344 
L 330.124541 -243.442281 
L 330.533763 -243.543497 
L 330.942985 -243.654138 
L 331.352206 -243.775169 
L 331.761428 -243.907077 
L 332.17065 -244.04962 
L 332.579872 -244.201636 
L 332.989093 -244.360984 
L 333.398315 -244.524644 
L 333.807537 -244.68895 
L 334.216759 -244.849964 
L 334.625981 -245.003906 
L 335.035202 -245.147589 
L 335.444424 -245.278787 
L 335.853646 -245.396476 
L 336.262868 -245.500932 
L 336.672089 -245.593679 
L 337.081311 -245.677317 
L 337.490533 -245.755285 
L 337.899755 -245.831595 
L 338.308976 -245.910596 
L 338.718198 -245.996766 
L 339.12742 -246.094553 
L 339.536642 -246.208223 
L 339.945863 -246.341698 
L 340.355085 -246.498363 
L 340.764307 -246.680814 
L 341.173529 -246.890584 
L 341.582751 -247.127855 
L 341.991972 -247.391215 
L 342.401194 -247.677504 
L 342.810416 -247.981791 
L 343.219638 -248.297507 
L 343.628859 -248.616749 
L 344.038081 -248.930722 
L 344.447303 -249.230298 
L 344.856525 -249.506635 
L 345.265746 -249.751788 
L 345.674968 -249.959247 
L 346.08419 -250.124353 
L 346.493412 -250.24452 
L 346.902633 -250.319251 
L 347.311855 -250.34994 
L 347.721077 -250.339483 
L 348.130299 -250.291765 
L 348.539521 -250.211074 
L 348.948742 -250.101559 
L 349.357964 -249.966777 
L 349.767186 -249.809413 
L 350.176408 -249.631198 
L 350.585629 -249.433009 
L 350.994851 -249.215127 
L 351.404073 -248.977584 
L 351.813295 -248.720525 
L 352.222516 -248.444519 
L 352.631738 -248.150764 
L 353.04096 -247.841172 
L 353.450182 -247.51833 
L 353.859403 -247.185371 
L 354.268625 -246.845806 
L 354.677847 -246.50334 
L 355.087069 -246.161731 
L 355.496291 -245.824676 
L 355.905512 -245.495741 
L 356.314734 -245.178313 
L 356.723956 -244.875539 
L 357.133178 -244.590255 
L 357.542399 -244.324881 
L 357.951621 -244.081306 
L 358.360843 -243.860765 
L 358.770065 -243.663759 
L 359.179286 -243.49002 
L 359.588508 -243.338542 
L 359.99773 -243.20769 
L 360.406952 -243.095359 
L 360.816173 -242.99918 
L 361.225395 -242.916724 
L 361.634617 -242.84569 
L 362.043839 -242.784053 
L 362.043839 -242.080947 
L 362.043839 -242.080947 
L 361.634617 -242.01931 
L 361.225395 -241.948276 
L 360.816173 -241.86582 
L 360.406952 -241.769641 
L 359.99773 -241.65731 
L 359.588508 -241.526458 
L 359.179286 -241.37498 
L 358.770065 -241.201241 
L 358.360843 -241.004235 
L 357.951621 -240.783694 
L 357.542399 -240.540119 
L 357.133178 -240.274745 
L 356.723956 -239.989461 
L 356.314734 -239.686687 
L 355.905512 -239.369259 
L 355.496291 -239.040324 
L 355.087069 -238.703269 
L 354.677847 -238.36166 
L 354.268625 -238.019194 
L 353.859403 -237.679629 
L 353.450182 -237.34667 
L 353.04096 -237.023828 
L 352.631738 -236.714236 
L 352.222516 -236.420481 
L 351.813295 -236.144475 
L 351.404073 -235.887416 
L 350.994851 -235.649873 
L 350.585629 -235.431991 
L 350.176408 -235.233802 
L 349.767186 -235.055587 
L 349.357964 -234.898223 
L 348.948742 -234.763441 
L 348.539521 -234.653926 
L 348.130299 -234.573235 
L 347.721077 -234.525517 
L 347.311855 -234.51506 
L 346.902633 -234.545749 
L 346.493412 -234.62048 
L 346.08419 -234.740647 
L 345.674968 -234.905753 
L 345.265746 -235.113212 
L 344.856525 -235.358365 
L 344.447303 -235.634702 
L 344.038081 -235.934278 
L 343.628859 -236.248251 
L 343.219638 -236.567493 
L 342.810416 -236.883209 
L 342.401194 -237.187496 
L 341.991972 -237.473785 
L 341.582751 -237.737145 
L 341.173529 -237.974416 
L 340.764307 -238.184186 
L 340.355085 -238.366637 
L 339.945863 -238.523302 
L 339.536642 -238.656777 
L 339.12742 -238.770447 
L 338.718198 -238.868234 
L 338.308976 -238.954404 
L 337.899755 -239.033405 
L 337.490533 -239.109715 
L 337.081311 -239.187683 
L 336.672089 -239.271321 
L 336.262868 -239.364068 
L 335.853646 -239.468524 
L 335.444424 -239.586213 
L 335.035202 -239.717411 
L 334.625981 -239.861094 
L 334.216759 -240.015036 
L 333.807537 -240.17605 
L 333.398315 -240.340356 
L 332.989093 -240.504016 
L 332.579872 -240.663364 
L 332.17065 -240.81538 
L 331.761428 -240.957923 
L 331.352206 -241.089831 
L 330.942985 -241.210862 
L 330.533763 -241.321503 
L 330.124541 -241.422719 
L 329.715319 -241.515656 
L 329.306098 -241.601386 
L 328.896876 -241.680712 
L 328.487654 -241.754055 
L 328.078432 -241.821446 
L 327.669211 -241.882583 
L 327.259989 -241.936962 
L 326.850767 -241.984032 
L 326.441545 -242.023357 
L 326.032323 -242.054763 
L 325.623102 -242.078447 
L 325.21388 -242.095025 
L 324.804658 -242.105543 
L 324.395436 -242.111412 
L 323.986215 -242.114302 
L 323.576993 -242.116005 
L 323.167771 -242.118265 
L 322.758549 -242.122619 
L 322.349328 -242.130256 
L 321.940106 -242.141917 
L 321.530884 -242.157845 
z
" id="m9528607542" style="stroke:#424242;"/>
    </defs>
    <g clip-path="url(#p6680208f2d)">
     <use style="fill:#7c78ab;stroke:#424242;" x="0" xlink:href="#m9528607542" y="333.433333"/>
    </g>
   </g>
   <g id="PolyCollection_4">
    <defs>
     <path d="M 343.620822 -214.427101 
L 343.620822 -216.591233 
L 343.790575 -216.652905 
L 343.960329 -216.713651 
L 344.130083 -216.773885 
L 344.299836 -216.834246 
L 344.46959 -216.895583 
L 344.639344 -216.958935 
L 344.809097 -217.025497 
L 344.978851 -217.096577 
L 345.148605 -217.173538 
L 345.318358 -217.25774 
L 345.488112 -217.350476 
L 345.657865 -217.452909 
L 345.827619 -217.566011 
L 345.997373 -217.690511 
L 346.167126 -217.82686 
L 346.33688 -217.975204 
L 346.506634 -218.135376 
L 346.676387 -218.306907 
L 346.846141 -218.489056 
L 347.015895 -218.680859 
L 347.185648 -218.88118 
L 347.355402 -219.088793 
L 347.525156 -219.302452 
L 347.694909 -219.520972 
L 347.864663 -219.743305 
L 348.034417 -219.968609 
L 348.20417 -220.196297 
L 348.373924 -220.426081 
L 348.543678 -220.65799 
L 348.713431 -220.892366 
L 348.883185 -221.129847 
L 349.052939 -221.371323 
L 349.222692 -221.617882 
L 349.392446 -221.87073 
L 349.562199 -222.131114 
L 349.731953 -222.400226 
L 349.901707 -222.679112 
L 350.07146 -222.968579 
L 350.241214 -223.269112 
L 350.410968 -223.580798 
L 350.580721 -223.903272 
L 350.750475 -224.235674 
L 350.920229 -224.576631 
L 351.089982 -224.924264 
L 351.259736 -225.276213 
L 351.42949 -225.629686 
L 351.599243 -225.981533 
L 351.768997 -226.328334 
L 351.938751 -226.666498 
L 352.108504 -226.992377 
L 352.278258 -227.302379 
L 352.448012 -227.593083 
L 352.617765 -227.86134 
L 352.787519 -228.104373 
L 352.957273 -228.319848 
L 353.127026 -228.505936 
L 353.29678 -228.661347 
L 353.466533 -228.785347 
L 353.636287 -228.877743 
L 353.806041 -228.938861 
L 353.975794 -228.969492 
L 354.145548 -228.970833 
L 354.315302 -228.944407 
L 354.485055 -228.891979 
L 354.654809 -228.815474 
L 354.824563 -228.716888 
L 354.994316 -228.59821 
L 355.16407 -228.461352 
L 355.333824 -228.308089 
L 355.503577 -228.140021 
L 355.673331 -227.958544 
L 355.843085 -227.764841 
L 356.012838 -227.559882 
L 356.182592 -227.34445 
L 356.352346 -227.11916 
L 356.522099 -226.884491 
L 356.691853 -226.640826 
L 356.861607 -226.38848 
L 357.03136 -226.127727 
L 357.201114 -225.858823 
L 357.370867 -225.58202 
L 357.540621 -225.29757 
L 357.710375 -225.005725 
L 357.880128 -224.706738 
L 358.049882 -224.400853 
L 358.219636 -224.088312 
L 358.389389 -223.769351 
L 358.559143 -223.444216 
L 358.728897 -223.11318 
L 358.89865 -222.77657 
L 359.068404 -222.434801 
L 359.238158 -222.088408 
L 359.407911 -221.738081 
L 359.577665 -221.3847 
L 359.747419 -221.029352 
L 359.917172 -220.673348 
L 360.086926 -220.318213 
L 360.25668 -219.965672 
L 360.426433 -219.617613 
L 360.426433 -211.40072 
L 360.426433 -211.40072 
L 360.25668 -211.052661 
L 360.086926 -210.70012 
L 359.917172 -210.344985 
L 359.747419 -209.988981 
L 359.577665 -209.633634 
L 359.407911 -209.280253 
L 359.238158 -208.929926 
L 359.068404 -208.583532 
L 358.89865 -208.241763 
L 358.728897 -207.905154 
L 358.559143 -207.574118 
L 358.389389 -207.248982 
L 358.219636 -206.930021 
L 358.049882 -206.61748 
L 357.880128 -206.311596 
L 357.710375 -206.012608 
L 357.540621 -205.720764 
L 357.370867 -205.436313 
L 357.201114 -205.15951 
L 357.03136 -204.890607 
L 356.861607 -204.629854 
L 356.691853 -204.377507 
L 356.522099 -204.133842 
L 356.352346 -203.899174 
L 356.182592 -203.673883 
L 356.012838 -203.458451 
L 355.843085 -203.253493 
L 355.673331 -203.059789 
L 355.503577 -202.878312 
L 355.333824 -202.710244 
L 355.16407 -202.556982 
L 354.994316 -202.420123 
L 354.824563 -202.301445 
L 354.654809 -202.20286 
L 354.485055 -202.126355 
L 354.315302 -202.073927 
L 354.145548 -202.0475 
L 353.975794 -202.048841 
L 353.806041 -202.079473 
L 353.636287 -202.140591 
L 353.466533 -202.232987 
L 353.29678 -202.356986 
L 353.127026 -202.512397 
L 352.957273 -202.698485 
L 352.787519 -202.91396 
L 352.617765 -203.156993 
L 352.448012 -203.425251 
L 352.278258 -203.715954 
L 352.108504 -204.025956 
L 351.938751 -204.351835 
L 351.768997 -204.689999 
L 351.599243 -205.0368 
L 351.42949 -205.388648 
L 351.259736 -205.742121 
L 351.089982 -206.094069 
L 350.920229 -206.441702 
L 350.750475 -206.782659 
L 350.580721 -207.115061 
L 350.410968 -207.437535 
L 350.241214 -207.749222 
L 350.07146 -208.049754 
L 349.901707 -208.339221 
L 349.731953 -208.618107 
L 349.562199 -208.887219 
L 349.392446 -209.147603 
L 349.222692 -209.400452 
L 349.052939 -209.64701 
L 348.883185 -209.888486 
L 348.713431 -210.125967 
L 348.543678 -210.360343 
L 348.373924 -210.592252 
L 348.20417 -210.822037 
L 348.034417 -211.049725 
L 347.864663 -211.275028 
L 347.694909 -211.497362 
L 347.525156 -211.715881 
L 347.355402 -211.92954 
L 347.185648 -212.137153 
L 347.015895 -212.337475 
L 346.846141 -212.529277 
L 346.676387 -212.711427 
L 346.506634 -212.882958 
L 346.33688 -213.043129 
L 346.167126 -213.191473 
L 345.997373 -213.327822 
L 345.827619 -213.452323 
L 345.657865 -213.565424 
L 345.488112 -213.667857 
L 345.318358 -213.760593 
L 345.148605 -213.844795 
L 344.978851 -213.921756 
L 344.809097 -213.992836 
L 344.639344 -214.059398 
L 344.46959 -214.12275 
L 344.299836 -214.184087 
L 344.130083 -214.244448 
L 343.960329 -214.304682 
L 343.790575 -214.365428 
L 343.620822 -214.427101 
z
" id="m8171b9bccb" style="stroke:#424242;"/>
    </defs>
    <g clip-path="url(#p6680208f2d)">
     <use style="fill:#be631d;stroke:#424242;" x="0" xlink:href="#m8171b9bccb" y="333.433333"/>
    </g>
   </g>
   <g id="PolyCollection_5">
    <defs>
     <path d="M 332.667873 -172.769152 
L 332.667873 -177.479181 
L 332.912438 -177.523732 
L 333.157002 -177.566113 
L 333.401567 -177.606266 
L 333.646131 -177.64415 
L 333.890696 -177.679743 
L 334.13526 -177.713037 
L 334.379824 -177.744044 
L 334.624389 -177.772792 
L 334.868953 -177.799326 
L 335.113518 -177.82371 
L 335.358082 -177.846022 
L 335.602646 -177.866358 
L 335.847211 -177.884827 
L 336.091775 -177.901554 
L 336.33634 -177.916676 
L 336.580904 -177.930342 
L 336.825468 -177.942714 
L 337.070033 -177.953961 
L 337.314597 -177.96426 
L 337.559162 -177.973797 
L 337.803726 -177.98276 
L 338.048291 -177.991342 
L 338.292855 -177.999738 
L 338.537419 -178.008142 
L 338.781984 -178.016748 
L 339.026548 -178.025745 
L 339.271113 -178.035319 
L 339.515677 -178.045648 
L 339.760241 -178.056905 
L 340.004806 -178.06925 
L 340.24937 -178.082836 
L 340.493935 -178.097803 
L 340.738499 -178.114276 
L 340.983063 -178.132369 
L 341.227628 -178.152179 
L 341.472192 -178.173787 
L 341.716757 -178.197258 
L 341.961321 -178.22264 
L 342.205885 -178.249962 
L 342.45045 -178.279235 
L 342.695014 -178.310451 
L 342.939579 -178.343584 
L 343.184143 -178.37859 
L 343.428708 -178.415403 
L 343.673272 -178.453941 
L 343.917836 -178.494105 
L 344.162401 -178.535774 
L 344.406965 -178.578814 
L 344.65153 -178.623072 
L 344.896094 -178.668379 
L 345.140658 -178.714554 
L 345.385223 -178.761398 
L 345.629787 -178.808702 
L 345.874352 -178.856245 
L 346.118916 -178.903794 
L 346.36348 -178.951109 
L 346.608045 -178.99794 
L 346.852609 -179.044033 
L 347.097174 -179.089128 
L 347.341738 -179.132963 
L 347.586303 -179.175273 
L 347.830867 -179.215795 
L 348.075431 -179.254266 
L 348.319996 -179.290429 
L 348.56456 -179.32403 
L 348.809125 -179.354822 
L 349.053689 -179.38257 
L 349.298253 -179.407044 
L 349.542818 -179.42803 
L 349.787382 -179.445325 
L 350.031947 -179.458742 
L 350.276511 -179.468109 
L 350.521075 -179.473271 
L 350.76564 -179.474093 
L 351.010204 -179.470458 
L 351.254769 -179.462269 
L 351.499333 -179.449451 
L 351.743898 -179.431951 
L 351.988462 -179.409735 
L 352.233026 -179.382794 
L 352.477591 -179.351142 
L 352.722155 -179.314811 
L 352.96672 -179.27386 
L 353.211284 -179.228367 
L 353.455848 -179.17843 
L 353.700413 -179.124171 
L 353.944977 -179.065728 
L 354.189542 -179.00326 
L 354.434106 -178.936942 
L 354.67867 -178.866966 
L 354.923235 -178.793539 
L 355.167799 -178.71688 
L 355.412364 -178.637223 
L 355.656928 -178.554809 
L 355.901493 -178.469891 
L 356.146057 -178.382726 
L 356.390621 -178.29358 
L 356.635186 -178.202719 
L 356.87975 -178.110415 
L 356.87975 -172.137918 
L 356.87975 -172.137918 
L 356.635186 -172.045614 
L 356.390621 -171.954753 
L 356.146057 -171.865607 
L 355.901493 -171.778442 
L 355.656928 -171.693524 
L 355.412364 -171.61111 
L 355.167799 -171.531453 
L 354.923235 -171.454795 
L 354.67867 -171.381367 
L 354.434106 -171.311391 
L 354.189542 -171.245073 
L 353.944977 -171.182605 
L 353.700413 -171.124162 
L 353.455848 -171.069903 
L 353.211284 -171.019967 
L 352.96672 -170.974473 
L 352.722155 -170.933522 
L 352.477591 -170.897192 
L 352.233026 -170.865539 
L 351.988462 -170.838598 
L 351.743898 -170.816383 
L 351.499333 -170.798882 
L 351.254769 -170.786064 
L 351.010204 -170.777876 
L 350.76564 -170.77424 
L 350.521075 -170.775062 
L 350.276511 -170.780225 
L 350.031947 -170.789591 
L 349.787382 -170.803008 
L 349.542818 -170.820303 
L 349.298253 -170.841289 
L 349.053689 -170.865764 
L 348.809125 -170.893511 
L 348.56456 -170.924304 
L 348.319996 -170.957905 
L 348.075431 -170.994067 
L 347.830867 -171.032539 
L 347.586303 -171.073061 
L 347.341738 -171.115371 
L 347.097174 -171.159205 
L 346.852609 -171.204301 
L 346.608045 -171.250394 
L 346.36348 -171.297225 
L 346.118916 -171.344539 
L 345.874352 -171.392088 
L 345.629787 -171.439631 
L 345.385223 -171.486935 
L 345.140658 -171.533779 
L 344.896094 -171.579954 
L 344.65153 -171.625262 
L 344.406965 -171.669519 
L 344.162401 -171.712559 
L 343.917836 -171.754229 
L 343.673272 -171.794392 
L 343.428708 -171.83293 
L 343.184143 -171.869744 
L 342.939579 -171.904749 
L 342.695014 -171.937882 
L 342.45045 -171.969099 
L 342.205885 -171.998371 
L 341.961321 -172.025693 
L 341.716757 -172.051075 
L 341.472192 -172.074547 
L 341.227628 -172.096155 
L 340.983063 -172.115965 
L 340.738499 -172.134057 
L 340.493935 -172.150531 
L 340.24937 -172.165497 
L 340.004806 -172.179083 
L 339.760241 -172.191429 
L 339.515677 -172.202685 
L 339.271113 -172.213014 
L 339.026548 -172.222588 
L 338.781984 -172.231585 
L 338.537419 -172.240191 
L 338.292855 -172.248595 
L 338.048291 -172.256991 
L 337.803726 -172.265573 
L 337.559162 -172.274537 
L 337.314597 -172.284073 
L 337.070033 -172.294373 
L 336.825468 -172.305619 
L 336.580904 -172.317991 
L 336.33634 -172.331658 
L 336.091775 -172.34678 
L 335.847211 -172.363506 
L 335.602646 -172.381975 
L 335.358082 -172.402311 
L 335.113518 -172.424623 
L 334.868953 -172.449007 
L 334.624389 -172.475542 
L 334.379824 -172.50429 
L 334.13526 -172.535297 
L 333.890696 -172.568591 
L 333.646131 -172.604183 
L 333.401567 -172.642068 
L 333.157002 -172.68222 
L 332.912438 -172.724601 
L 332.667873 -172.769152 
z
" id="md688edade5" style="stroke:#424242;"/>
    </defs>
    <g clip-path="url(#p6680208f2d)">
     <use style="fill:#7c78ab;stroke:#424242;" x="0" xlink:href="#md688edade5" y="333.433333"/>
    </g>
   </g>
   <g id="PolyCollection_6">
    <defs>
     <path d="M 350.551165 -137.729918 
L 350.551165 -158.671749 
L 350.660382 -158.986047 
L 350.769599 -159.28563 
L 350.878816 -159.569472 
L 350.988033 -159.836691 
L 351.09725 -160.086553 
L 351.206467 -160.318473 
L 351.315684 -160.532011 
L 351.424901 -160.726867 
L 351.534118 -160.902877 
L 351.643335 -161.059997 
L 351.752552 -161.198295 
L 351.86177 -161.317941 
L 351.970987 -161.419187 
L 352.080204 -161.502357 
L 352.189421 -161.567834 
L 352.298638 -161.616042 
L 352.407855 -161.647439 
L 352.517072 -161.6625 
L 352.626289 -161.661711 
L 352.735506 -161.645559 
L 352.844723 -161.614526 
L 352.95394 -161.569087 
L 353.063157 -161.509702 
L 353.172374 -161.436821 
L 353.281591 -161.350885 
L 353.390808 -161.252323 
L 353.500025 -161.141561 
L 353.609242 -161.019026 
L 353.718459 -160.885149 
L 353.827676 -160.740372 
L 353.936893 -160.585154 
L 354.04611 -160.419972 
L 354.155327 -160.24533 
L 354.264544 -160.06176 
L 354.373761 -159.86982 
L 354.482978 -159.670103 
L 354.592195 -159.463227 
L 354.701412 -159.249842 
L 354.810629 -159.030617 
L 354.919846 -158.806243 
L 355.029063 -158.577426 
L 355.13828 -158.344877 
L 355.247497 -158.109308 
L 355.356714 -157.871426 
L 355.465931 -157.631923 
L 355.575148 -157.391468 
L 355.684365 -157.150708 
L 355.793582 -156.910252 
L 355.902799 -156.670673 
L 356.012016 -156.432505 
L 356.121233 -156.196234 
L 356.23045 -155.962303 
L 356.339668 -155.731111 
L 356.448885 -155.503012 
L 356.558102 -155.278317 
L 356.667319 -155.057302 
L 356.776536 -154.840206 
L 356.885753 -154.627241 
L 356.99497 -154.418591 
L 357.104187 -154.214426 
L 357.213404 -154.014897 
L 357.322621 -153.820147 
L 357.431838 -153.630316 
L 357.541055 -153.44554 
L 357.650272 -153.265956 
L 357.759489 -153.091704 
L 357.868706 -152.922927 
L 357.977923 -152.759771 
L 358.08714 -152.602381 
L 358.196357 -152.450903 
L 358.305574 -152.305477 
L 358.414791 -152.166232 
L 358.524008 -152.033286 
L 358.633225 -151.906734 
L 358.742442 -151.786649 
L 358.851659 -151.673073 
L 358.960876 -151.566011 
L 359.070093 -151.46543 
L 359.17931 -151.371251 
L 359.288527 -151.283349 
L 359.397744 -151.201549 
L 359.506961 -151.125624 
L 359.616178 -151.055299 
L 359.725395 -150.990246 
L 359.834612 -150.930094 
L 359.943829 -150.874427 
L 360.053046 -150.822791 
L 360.162263 -150.774699 
L 360.27148 -150.729642 
L 360.380697 -150.68709 
L 360.489914 -150.646505 
L 360.599131 -150.607349 
L 360.708348 -150.569089 
L 360.817565 -150.531212 
L 360.926783 -150.493225 
L 361.036 -150.454672 
L 361.145217 -150.415134 
L 361.254434 -150.374237 
L 361.363651 -150.331659 
L 361.363651 -146.070008 
L 361.363651 -146.070008 
L 361.254434 -146.02743 
L 361.145217 -145.986533 
L 361.036 -145.946994 
L 360.926783 -145.908441 
L 360.817565 -145.870455 
L 360.708348 -145.832577 
L 360.599131 -145.794318 
L 360.489914 -145.755161 
L 360.380697 -145.714577 
L 360.27148 -145.672025 
L 360.162263 -145.626967 
L 360.053046 -145.578876 
L 359.943829 -145.52724 
L 359.834612 -145.471572 
L 359.725395 -145.41142 
L 359.616178 -145.346368 
L 359.506961 -145.276042 
L 359.397744 -145.200118 
L 359.288527 -145.118318 
L 359.17931 -145.030416 
L 359.070093 -144.936237 
L 358.960876 -144.835656 
L 358.851659 -144.728594 
L 358.742442 -144.615017 
L 358.633225 -144.494933 
L 358.524008 -144.368381 
L 358.414791 -144.235435 
L 358.305574 -144.09619 
L 358.196357 -143.950764 
L 358.08714 -143.799286 
L 357.977923 -143.641896 
L 357.868706 -143.47874 
L 357.759489 -143.309963 
L 357.650272 -143.135711 
L 357.541055 -142.956127 
L 357.431838 -142.77135 
L 357.322621 -142.581519 
L 357.213404 -142.38677 
L 357.104187 -142.187241 
L 356.99497 -141.983075 
L 356.885753 -141.774426 
L 356.776536 -141.561461 
L 356.667319 -141.344365 
L 356.558102 -141.12335 
L 356.448885 -140.898655 
L 356.339668 -140.670556 
L 356.23045 -140.439364 
L 356.121233 -140.205433 
L 356.012016 -139.969162 
L 355.902799 -139.730993 
L 355.793582 -139.491415 
L 355.684365 -139.250959 
L 355.575148 -139.010198 
L 355.465931 -138.769744 
L 355.356714 -138.53024 
L 355.247497 -138.292358 
L 355.13828 -138.05679 
L 355.029063 -137.824241 
L 354.919846 -137.595423 
L 354.810629 -137.37105 
L 354.701412 -137.151825 
L 354.592195 -136.938439 
L 354.482978 -136.731564 
L 354.373761 -136.531847 
L 354.264544 -136.339907 
L 354.155327 -136.156336 
L 354.04611 -135.981695 
L 353.936893 -135.816513 
L 353.827676 -135.661295 
L 353.718459 -135.516518 
L 353.609242 -135.382641 
L 353.500025 -135.260106 
L 353.390808 -135.149344 
L 353.281591 -135.050782 
L 353.172374 -134.964845 
L 353.063157 -134.891965 
L 352.95394 -134.83258 
L 352.844723 -134.78714 
L 352.735506 -134.756108 
L 352.626289 -134.739956 
L 352.517072 -134.739167 
L 352.407855 -134.754228 
L 352.298638 -134.785624 
L 352.189421 -134.833833 
L 352.080204 -134.89931 
L 351.970987 -134.98248 
L 351.86177 -135.083726 
L 351.752552 -135.203371 
L 351.643335 -135.34167 
L 351.534118 -135.49879 
L 351.424901 -135.674799 
L 351.315684 -135.869656 
L 351.206467 -136.083194 
L 351.09725 -136.315114 
L 350.988033 -136.564976 
L 350.878816 -136.832195 
L 350.769599 -137.116036 
L 350.660382 -137.415619 
L 350.551165 -137.729918 
z
" id="m6c41ec433d" style="stroke:#424242;"/>
    </defs>
    <g clip-path="url(#p6680208f2d)">
     <use style="fill:#be631d;stroke:#424242;" x="0" xlink:href="#m6c41ec433d" y="333.433333"/>
    </g>
   </g>
   <g id="patch_86">
    <path clip-path="url(#p6680208f2d)" d="M 114.648889 37.154167 
L 114.648889 37.154167 
L 114.648889 37.154167 
L 114.648889 37.154167 
z
" style="fill:#7c78ab;stroke:#424242;stroke-linejoin:miter;stroke-width:0.5;"/>
   </g>
   <g id="patch_87">
    <path clip-path="url(#p6680208f2d)" d="M 114.648889 37.154167 
L 114.648889 37.154167 
L 114.648889 37.154167 
L 114.648889 37.154167 
z
" style="fill:#be631d;stroke:#424242;stroke-linejoin:miter;stroke-width:0.5;"/>
   </g>
   <g id="matplotlib.axis_3">
    <g id="xtick_5">
     <g id="line2d_9">
      <g>
       <use style="stroke:#000000;stroke-width:1.6;" x="114.648889" xlink:href="#md01cc5be1a" y="272.733333"/>
      </g>
     </g>
     <g id="text_11">
      <!-- 0.0 -->
      <g transform="translate(98.745764 302.630208)scale(0.2 -0.2)">
       <use xlink:href="#DejaVuSans-48"/>
       <use x="63.623047" xlink:href="#DejaVuSans-46"/>
       <use x="95.410156" xlink:href="#DejaVuSans-48"/>
      </g>
     </g>
    </g>
    <g id="xtick_6">
     <g id="line2d_10">
      <g>
       <use style="stroke:#000000;stroke-width:1.6;" x="186.444444" xlink:href="#md01cc5be1a" y="272.733333"/>
      </g>
     </g>
     <g id="text_12">
      <!-- 0.2 -->
      <g transform="translate(170.541319 302.630208)scale(0.2 -0.2)">
       <use xlink:href="#DejaVuSans-48"/>
       <use x="63.623047" xlink:href="#DejaVuSans-46"/>
       <use x="95.410156" xlink:href="#DejaVuSans-50"/>
      </g>
     </g>
    </g>
    <g id="xtick_7">
     <g id="line2d_11">
      <g>
       <use style="stroke:#000000;stroke-width:1.6;" x="258.24" xlink:href="#md01cc5be1a" y="272.733333"/>
      </g>
     </g>
     <g id="text_13">
      <!-- 0.4 -->
      <g transform="translate(242.336875 302.630208)scale(0.2 -0.2)">
       <use xlink:href="#DejaVuSans-48"/>
       <use x="63.623047" xlink:href="#DejaVuSans-46"/>
       <use x="95.410156" xlink:href="#DejaVuSans-52"/>
      </g>
     </g>
    </g>
    <g id="xtick_8">
     <g id="line2d_12">
      <g>
       <use style="stroke:#000000;stroke-width:1.6;" x="330.035556" xlink:href="#md01cc5be1a" y="272.733333"/>
      </g>
     </g>
     <g id="text_14">
      <!-- 0.6 -->
      <g transform="translate(314.132431 302.630208)scale(0.2 -0.2)">
       <use xlink:href="#DejaVuSans-48"/>
       <use x="63.623047" xlink:href="#DejaVuSans-46"/>
       <use x="95.410156" xlink:href="#DejaVuSans-54"/>
      </g>
     </g>
    </g>
    <g id="text_15">
     <!-- Max JS Divergence within $\epsilon$ -->
     <defs>
      <path d="M 9.8125 72.90625 
L 24.515625 72.90625 
L 43.109375 23.296875 
L 61.8125 72.90625 
L 76.515625 72.90625 
L 76.515625 0 
L 66.890625 0 
L 66.890625 64.015625 
L 48.09375 14.015625 
L 38.1875 14.015625 
L 19.390625 64.015625 
L 19.390625 0 
L 9.8125 0 
z
" id="DejaVuSans-77"/>
      <path d="M 34.28125 27.484375 
Q 23.390625 27.484375 19.1875 25 
Q 14.984375 22.515625 14.984375 16.5 
Q 14.984375 11.71875 18.140625 8.90625 
Q 21.296875 6.109375 26.703125 6.109375 
Q 34.1875 6.109375 38.703125 11.40625 
Q 43.21875 16.703125 43.21875 25.484375 
L 43.21875 27.484375 
z
M 52.203125 31.203125 
L 52.203125 0 
L 43.21875 0 
L 43.21875 8.296875 
Q 40.140625 3.328125 35.546875 0.953125 
Q 30.953125 -1.421875 24.3125 -1.421875 
Q 15.921875 -1.421875 10.953125 3.296875 
Q 6 8.015625 6 15.921875 
Q 6 25.140625 12.171875 29.828125 
Q 18.359375 34.515625 30.609375 34.515625 
L 43.21875 34.515625 
L 43.21875 35.40625 
Q 43.21875 41.609375 39.140625 45 
Q 35.0625 48.390625 27.6875 48.390625 
Q 23 48.390625 18.546875 47.265625 
Q 14.109375 46.140625 10.015625 43.890625 
L 10.015625 52.203125 
Q 14.9375 54.109375 19.578125 55.046875 
Q 24.21875 56 28.609375 56 
Q 40.484375 56 46.34375 49.84375 
Q 52.203125 43.703125 52.203125 31.203125 
z
" id="DejaVuSans-97"/>
      <path d="M 54.890625 54.6875 
L 35.109375 28.078125 
L 55.90625 0 
L 45.3125 0 
L 29.390625 21.484375 
L 13.484375 0 
L 2.875 0 
L 24.125 28.609375 
L 4.6875 54.6875 
L 15.28125 54.6875 
L 29.78125 35.203125 
L 44.28125 54.6875 
z
" id="DejaVuSans-120"/>
      <path d="M 9.8125 72.90625 
L 19.671875 72.90625 
L 19.671875 5.078125 
Q 19.671875 -8.109375 14.671875 -14.0625 
Q 9.671875 -20.015625 -1.421875 -20.015625 
L -5.171875 -20.015625 
L -5.171875 -11.71875 
L -2.09375 -11.71875 
Q 4.4375 -11.71875 7.125 -8.046875 
Q 9.8125 -4.390625 9.8125 5.078125 
z
" id="DejaVuSans-74"/>
      <path d="M 53.515625 70.515625 
L 53.515625 60.890625 
Q 47.90625 63.578125 42.921875 64.890625 
Q 37.9375 66.21875 33.296875 66.21875 
Q 25.25 66.21875 20.875 63.09375 
Q 16.5 59.96875 16.5 54.203125 
Q 16.5 49.359375 19.40625 46.890625 
Q 22.3125 44.4375 30.421875 42.921875 
L 36.375 41.703125 
Q 47.40625 39.59375 52.65625 34.296875 
Q 57.90625 29 57.90625 20.125 
Q 57.90625 9.515625 50.796875 4.046875 
Q 43.703125 -1.421875 29.984375 -1.421875 
Q 24.8125 -1.421875 18.96875 -0.25 
Q 13.140625 0.921875 6.890625 3.21875 
L 6.890625 13.375 
Q 12.890625 10.015625 18.65625 8.296875 
Q 24.421875 6.59375 29.984375 6.59375 
Q 38.421875 6.59375 43.015625 9.90625 
Q 47.609375 13.234375 47.609375 19.390625 
Q 47.609375 24.75 44.3125 27.78125 
Q 41.015625 30.8125 33.5 32.328125 
L 27.484375 33.5 
Q 16.453125 35.6875 11.515625 40.375 
Q 6.59375 45.0625 6.59375 53.421875 
Q 6.59375 63.09375 13.40625 68.65625 
Q 20.21875 74.21875 32.171875 74.21875 
Q 37.3125 74.21875 42.625 73.28125 
Q 47.953125 72.359375 53.515625 70.515625 
z
" id="DejaVuSans-83"/>
      <path d="M 19.671875 64.796875 
L 19.671875 8.109375 
L 31.59375 8.109375 
Q 46.6875 8.109375 53.6875 14.9375 
Q 60.6875 21.78125 60.6875 36.53125 
Q 60.6875 51.171875 53.6875 57.984375 
Q 46.6875 64.796875 31.59375 64.796875 
z
M 9.8125 72.90625 
L 30.078125 72.90625 
Q 51.265625 72.90625 61.171875 64.09375 
Q 71.09375 55.28125 71.09375 36.53125 
Q 71.09375 17.671875 61.125 8.828125 
Q 51.171875 0 30.078125 0 
L 9.8125 0 
z
" id="DejaVuSans-68"/>
      <path d="M 9.421875 54.6875 
L 18.40625 54.6875 
L 18.40625 0 
L 9.421875 0 
z
M 9.421875 75.984375 
L 18.40625 75.984375 
L 18.40625 64.59375 
L 9.421875 64.59375 
z
" id="DejaVuSans-105"/>
      <path d="M 2.984375 54.6875 
L 12.5 54.6875 
L 29.59375 8.796875 
L 46.6875 54.6875 
L 56.203125 54.6875 
L 35.6875 0 
L 23.484375 0 
z
" id="DejaVuSans-118"/>
      <path d="M 56.203125 29.59375 
L 56.203125 25.203125 
L 14.890625 25.203125 
Q 15.484375 15.921875 20.484375 11.0625 
Q 25.484375 6.203125 34.421875 6.203125 
Q 39.59375 6.203125 44.453125 7.46875 
Q 49.3125 8.734375 54.109375 11.28125 
L 54.109375 2.78125 
Q 49.265625 0.734375 44.1875 -0.34375 
Q 39.109375 -1.421875 33.890625 -1.421875 
Q 20.796875 -1.421875 13.15625 6.1875 
Q 5.515625 13.8125 5.515625 26.8125 
Q 5.515625 40.234375 12.765625 48.109375 
Q 20.015625 56 32.328125 56 
Q 43.359375 56 49.78125 48.890625 
Q 56.203125 41.796875 56.203125 29.59375 
z
M 47.21875 32.234375 
Q 47.125 39.59375 43.09375 43.984375 
Q 39.0625 48.390625 32.421875 48.390625 
Q 24.90625 48.390625 20.390625 44.140625 
Q 15.875 39.890625 15.1875 32.171875 
z
" id="DejaVuSans-101"/>
      <path d="M 41.109375 46.296875 
Q 39.59375 47.171875 37.8125 47.578125 
Q 36.03125 48 33.890625 48 
Q 26.265625 48 22.1875 43.046875 
Q 18.109375 38.09375 18.109375 28.8125 
L 18.109375 0 
L 9.078125 0 
L 9.078125 54.6875 
L 18.109375 54.6875 
L 18.109375 46.1875 
Q 20.953125 51.171875 25.484375 53.578125 
Q 30.03125 56 36.53125 56 
Q 37.453125 56 38.578125 55.875 
Q 39.703125 55.765625 41.0625 55.515625 
z
" id="DejaVuSans-114"/>
      <path d="M 45.40625 27.984375 
Q 45.40625 37.75 41.375 43.109375 
Q 37.359375 48.484375 30.078125 48.484375 
Q 22.859375 48.484375 18.828125 43.109375 
Q 14.796875 37.75 14.796875 27.984375 
Q 14.796875 18.265625 18.828125 12.890625 
Q 22.859375 7.515625 30.078125 7.515625 
Q 37.359375 7.515625 41.375 12.890625 
Q 45.40625 18.265625 45.40625 27.984375 
z
M 54.390625 6.78125 
Q 54.390625 -7.171875 48.1875 -13.984375 
Q 42 -20.796875 29.203125 -20.796875 
Q 24.46875 -20.796875 20.265625 -20.09375 
Q 16.0625 -19.390625 12.109375 -17.921875 
L 12.109375 -9.1875 
Q 16.0625 -11.328125 19.921875 -12.34375 
Q 23.78125 -13.375 27.78125 -13.375 
Q 36.625 -13.375 41.015625 -8.765625 
Q 45.40625 -4.15625 45.40625 5.171875 
L 45.40625 9.625 
Q 42.625 4.78125 38.28125 2.390625 
Q 33.9375 0 27.875 0 
Q 17.828125 0 11.671875 7.65625 
Q 5.515625 15.328125 5.515625 27.984375 
Q 5.515625 40.671875 11.671875 48.328125 
Q 17.828125 56 27.875 56 
Q 33.9375 56 38.28125 53.609375 
Q 42.625 51.21875 45.40625 46.390625 
L 45.40625 54.6875 
L 54.390625 54.6875 
z
" id="DejaVuSans-103"/>
      <path d="M 54.890625 33.015625 
L 54.890625 0 
L 45.90625 0 
L 45.90625 32.71875 
Q 45.90625 40.484375 42.875 44.328125 
Q 39.84375 48.1875 33.796875 48.1875 
Q 26.515625 48.1875 22.3125 43.546875 
Q 18.109375 38.921875 18.109375 30.90625 
L 18.109375 0 
L 9.078125 0 
L 9.078125 54.6875 
L 18.109375 54.6875 
L 18.109375 46.1875 
Q 21.34375 51.125 25.703125 53.5625 
Q 30.078125 56 35.796875 56 
Q 45.21875 56 50.046875 50.171875 
Q 54.890625 44.34375 54.890625 33.015625 
z
" id="DejaVuSans-110"/>
      <path d="M 48.78125 52.59375 
L 48.78125 44.1875 
Q 44.96875 46.296875 41.140625 47.34375 
Q 37.3125 48.390625 33.40625 48.390625 
Q 24.65625 48.390625 19.8125 42.84375 
Q 14.984375 37.3125 14.984375 27.296875 
Q 14.984375 17.28125 19.8125 11.734375 
Q 24.65625 6.203125 33.40625 6.203125 
Q 37.3125 6.203125 41.140625 7.25 
Q 44.96875 8.296875 48.78125 10.40625 
L 48.78125 2.09375 
Q 45.015625 0.34375 40.984375 -0.53125 
Q 36.96875 -1.421875 32.421875 -1.421875 
Q 20.0625 -1.421875 12.78125 6.34375 
Q 5.515625 14.109375 5.515625 27.296875 
Q 5.515625 40.671875 12.859375 48.328125 
Q 20.21875 56 33.015625 56 
Q 37.15625 56 41.109375 55.140625 
Q 45.0625 54.296875 48.78125 52.59375 
z
" id="DejaVuSans-99"/>
      <path d="M 4.203125 54.6875 
L 13.1875 54.6875 
L 24.421875 12.015625 
L 35.59375 54.6875 
L 46.1875 54.6875 
L 57.421875 12.015625 
L 68.609375 54.6875 
L 77.59375 54.6875 
L 63.28125 0 
L 52.6875 0 
L 40.921875 44.828125 
L 29.109375 0 
L 18.5 0 
z
" id="DejaVuSans-119"/>
      <path d="M 18.3125 70.21875 
L 18.3125 54.6875 
L 36.8125 54.6875 
L 36.8125 47.703125 
L 18.3125 47.703125 
L 18.3125 18.015625 
Q 18.3125 11.328125 20.140625 9.421875 
Q 21.96875 7.515625 27.59375 7.515625 
L 36.8125 7.515625 
L 36.8125 0 
L 27.59375 0 
Q 17.1875 0 13.234375 3.875 
Q 9.28125 7.765625 9.28125 18.015625 
L 9.28125 47.703125 
L 2.6875 47.703125 
L 2.6875 54.6875 
L 9.28125 54.6875 
L 9.28125 70.21875 
z
" id="DejaVuSans-116"/>
      <path d="M 54.890625 33.015625 
L 54.890625 0 
L 45.90625 0 
L 45.90625 32.71875 
Q 45.90625 40.484375 42.875 44.328125 
Q 39.84375 48.1875 33.796875 48.1875 
Q 26.515625 48.1875 22.3125 43.546875 
Q 18.109375 38.921875 18.109375 30.90625 
L 18.109375 0 
L 9.078125 0 
L 9.078125 75.984375 
L 18.109375 75.984375 
L 18.109375 46.1875 
Q 21.34375 51.125 25.703125 53.5625 
Q 30.078125 56 35.796875 56 
Q 45.21875 56 50.046875 50.171875 
Q 54.890625 44.34375 54.890625 33.015625 
z
" id="DejaVuSans-104"/>
      <path d="M 19.734375 29.5 
Q 14.453125 30.671875 12.15625 33.84375 
Q 10.453125 36.078125 10.453125 39.109375 
Q 10.453125 47.40625 18.359375 52.25 
Q 24.609375 56.0625 34.1875 56.0625 
Q 37.890625 56.0625 41.9375 55.46875 
Q 46 54.890625 50.53125 53.71875 
L 48.96875 45.5625 
Q 44.484375 46.96875 40.71875 47.609375 
Q 36.859375 48.25 33.40625 48.25 
Q 27.59375 48.25 23.78125 46 
Q 19.1875 43.3125 19.1875 39.40625 
Q 19.1875 36.8125 21.578125 35.015625 
Q 24.421875 32.859375 30.078125 32.859375 
L 37.640625 32.859375 
L 36.234375 25.4375 
L 29 25.4375 
Q 22.265625 25.4375 18.3125 22.953125 
Q 12.9375 19.578125 12.9375 14.3125 
Q 12.9375 10.984375 15.828125 8.796875 
Q 19.4375 6.0625 26.8125 6.0625 
Q 31.34375 6.0625 35.6875 6.9375 
Q 40.046875 7.859375 43.84375 9.671875 
L 42.1875 1.3125 
Q 37.546875 -0.046875 33.296875 -0.734375 
Q 29.046875 -1.421875 25.140625 -1.421875 
Q 13.53125 -1.421875 8.0625 3.03125 
Q 3.90625 6.453125 3.90625 12.203125 
Q 3.90625 19.96875 9.375 24.75 
Q 13.421875 28.328125 19.734375 29.5 
z
" id="DejaVuSans-Oblique-949"/>
     </defs>
     <g transform="translate(95.716667 325.989583)scale(0.2 -0.2)">
      <use transform="translate(0 0.015625)" xlink:href="#DejaVuSans-77"/>
      <use transform="translate(86.279297 0.015625)" xlink:href="#DejaVuSans-97"/>
      <use transform="translate(147.558594 0.015625)" xlink:href="#DejaVuSans-120"/>
      <use transform="translate(206.738281 0.015625)" xlink:href="#DejaVuSans-32"/>
      <use transform="translate(238.525391 0.015625)" xlink:href="#DejaVuSans-74"/>
      <use transform="translate(268.017578 0.015625)" xlink:href="#DejaVuSans-83"/>
      <use transform="translate(331.494141 0.015625)" xlink:href="#DejaVuSans-32"/>
      <use transform="translate(363.28125 0.015625)" xlink:href="#DejaVuSans-68"/>
      <use transform="translate(440.283203 0.015625)" xlink:href="#DejaVuSans-105"/>
      <use transform="translate(468.066406 0.015625)" xlink:href="#DejaVuSans-118"/>
      <use transform="translate(527.246094 0.015625)" xlink:href="#DejaVuSans-101"/>
      <use transform="translate(588.769531 0.015625)" xlink:href="#DejaVuSans-114"/>
      <use transform="translate(629.882812 0.015625)" xlink:href="#DejaVuSans-103"/>
      <use transform="translate(693.359375 0.015625)" xlink:href="#DejaVuSans-101"/>
      <use transform="translate(754.882812 0.015625)" xlink:href="#DejaVuSans-110"/>
      <use transform="translate(818.261719 0.015625)" xlink:href="#DejaVuSans-99"/>
      <use transform="translate(873.242188 0.015625)" xlink:href="#DejaVuSans-101"/>
      <use transform="translate(934.765625 0.015625)" xlink:href="#DejaVuSans-32"/>
      <use transform="translate(966.552734 0.015625)" xlink:href="#DejaVuSans-119"/>
      <use transform="translate(1048.339844 0.015625)" xlink:href="#DejaVuSans-105"/>
      <use transform="translate(1076.123047 0.015625)" xlink:href="#DejaVuSans-116"/>
      <use transform="translate(1115.332031 0.015625)" xlink:href="#DejaVuSans-104"/>
      <use transform="translate(1178.710938 0.015625)" xlink:href="#DejaVuSans-105"/>
      <use transform="translate(1206.494141 0.015625)" xlink:href="#DejaVuSans-110"/>
      <use transform="translate(1269.873047 0.015625)" xlink:href="#DejaVuSans-32"/>
      <use transform="translate(1301.660156 0.015625)" xlink:href="#DejaVuSans-Oblique-949"/>
     </g>
    </g>
   </g>
   <g id="matplotlib.axis_4">
    <g id="ytick_5">
     <g id="line2d_13">
      <g>
       <use style="stroke:#000000;stroke-width:1.6;" x="96.7" xlink:href="#mf19707fb3d" y="37.154167"/>
      </g>
     </g>
     <g id="text_16">
      <!-- [0.00, -->
      <defs>
       <path d="M 8.59375 75.984375 
L 29.296875 75.984375 
L 29.296875 69 
L 17.578125 69 
L 17.578125 -6.203125 
L 29.296875 -6.203125 
L 29.296875 -13.1875 
L 8.59375 -13.1875 
z
" id="DejaVuSans-91"/>
       <path d="M 11.71875 12.40625 
L 22.015625 12.40625 
L 22.015625 4 
L 14.015625 -11.625 
L 7.71875 -11.625 
L 11.71875 4 
z
" id="DejaVuSans-44"/>
      </defs>
      <g transform="translate(23.309375 33.554792)scale(0.2 -0.2)">
       <use xlink:href="#DejaVuSans-91"/>
       <use x="39.013672" xlink:href="#DejaVuSans-48"/>
       <use x="102.636719" xlink:href="#DejaVuSans-46"/>
       <use x="134.423828" xlink:href="#DejaVuSans-48"/>
       <use x="198.046875" xlink:href="#DejaVuSans-48"/>
       <use x="261.669922" xlink:href="#DejaVuSans-44"/>
      </g>
      <!-- 0.25) -->
      <defs>
       <path d="M 10.796875 72.90625 
L 49.515625 72.90625 
L 49.515625 64.59375 
L 19.828125 64.59375 
L 19.828125 46.734375 
Q 21.96875 47.46875 24.109375 47.828125 
Q 26.265625 48.1875 28.421875 48.1875 
Q 40.625 48.1875 47.75 41.5 
Q 54.890625 34.8125 54.890625 23.390625 
Q 54.890625 11.625 47.5625 5.09375 
Q 40.234375 -1.421875 26.90625 -1.421875 
Q 22.3125 -1.421875 17.546875 -0.640625 
Q 12.796875 0.140625 7.71875 1.703125 
L 7.71875 11.625 
Q 12.109375 9.234375 16.796875 8.0625 
Q 21.484375 6.890625 26.703125 6.890625 
Q 35.15625 6.890625 40.078125 11.328125 
Q 45.015625 15.765625 45.015625 23.390625 
Q 45.015625 31 40.078125 35.4375 
Q 35.15625 39.890625 26.703125 39.890625 
Q 22.75 39.890625 18.8125 39.015625 
Q 14.890625 38.140625 10.796875 36.28125 
z
" id="DejaVuSans-53"/>
       <path d="M 8.015625 75.875 
L 15.828125 75.875 
Q 23.140625 64.359375 26.78125 53.3125 
Q 30.421875 42.28125 30.421875 31.390625 
Q 30.421875 20.453125 26.78125 9.375 
Q 23.140625 -1.703125 15.828125 -13.1875 
L 8.015625 -13.1875 
Q 14.5 -2 17.703125 9.0625 
Q 20.90625 20.125 20.90625 31.390625 
Q 20.90625 42.671875 17.703125 53.65625 
Q 14.5 64.65625 8.015625 75.875 
z
" id="DejaVuSans-41"/>
      </defs>
      <g transform="translate(29.665625 55.950417)scale(0.2 -0.2)">
       <use xlink:href="#DejaVuSans-48"/>
       <use x="63.623047" xlink:href="#DejaVuSans-46"/>
       <use x="95.410156" xlink:href="#DejaVuSans-50"/>
       <use x="159.033203" xlink:href="#DejaVuSans-53"/>
       <use x="222.65625" xlink:href="#DejaVuSans-41"/>
      </g>
     </g>
    </g>
    <g id="ytick_6">
     <g id="line2d_14">
      <g>
       <use style="stroke:#000000;stroke-width:1.6;" x="96.7" xlink:href="#mf19707fb3d" y="104.4625"/>
      </g>
     </g>
     <g id="text_17">
      <!-- [0.25, -->
      <g transform="translate(23.309375 100.863125)scale(0.2 -0.2)">
       <use xlink:href="#DejaVuSans-91"/>
       <use x="39.013672" xlink:href="#DejaVuSans-48"/>
       <use x="102.636719" xlink:href="#DejaVuSans-46"/>
       <use x="134.423828" xlink:href="#DejaVuSans-50"/>
       <use x="198.046875" xlink:href="#DejaVuSans-53"/>
       <use x="261.669922" xlink:href="#DejaVuSans-44"/>
      </g>
      <!-- 0.50) -->
      <g transform="translate(29.665625 123.25875)scale(0.2 -0.2)">
       <use xlink:href="#DejaVuSans-48"/>
       <use x="63.623047" xlink:href="#DejaVuSans-46"/>
       <use x="95.410156" xlink:href="#DejaVuSans-53"/>
       <use x="159.033203" xlink:href="#DejaVuSans-48"/>
       <use x="222.65625" xlink:href="#DejaVuSans-41"/>
      </g>
     </g>
    </g>
    <g id="ytick_7">
     <g id="line2d_15">
      <g>
       <use style="stroke:#000000;stroke-width:1.6;" x="96.7" xlink:href="#mf19707fb3d" y="171.770833"/>
      </g>
     </g>
     <g id="text_18">
      <!-- [0.50, -->
      <g transform="translate(23.309375 168.171458)scale(0.2 -0.2)">
       <use xlink:href="#DejaVuSans-91"/>
       <use x="39.013672" xlink:href="#DejaVuSans-48"/>
       <use x="102.636719" xlink:href="#DejaVuSans-46"/>
       <use x="134.423828" xlink:href="#DejaVuSans-53"/>
       <use x="198.046875" xlink:href="#DejaVuSans-48"/>
       <use x="261.669922" xlink:href="#DejaVuSans-44"/>
      </g>
      <!-- 0.75) -->
      <defs>
       <path d="M 8.203125 72.90625 
L 55.078125 72.90625 
L 55.078125 68.703125 
L 28.609375 0 
L 18.3125 0 
L 43.21875 64.59375 
L 8.203125 64.59375 
z
" id="DejaVuSans-55"/>
      </defs>
      <g transform="translate(29.665625 190.567083)scale(0.2 -0.2)">
       <use xlink:href="#DejaVuSans-48"/>
       <use x="63.623047" xlink:href="#DejaVuSans-46"/>
       <use x="95.410156" xlink:href="#DejaVuSans-55"/>
       <use x="159.033203" xlink:href="#DejaVuSans-53"/>
       <use x="222.65625" xlink:href="#DejaVuSans-41"/>
      </g>
     </g>
    </g>
    <g id="ytick_8">
     <g id="line2d_16">
      <g>
       <use style="stroke:#000000;stroke-width:1.6;" x="96.7" xlink:href="#mf19707fb3d" y="239.079167"/>
      </g>
     </g>
     <g id="text_19">
      <!-- [0.75, -->
      <g transform="translate(23.309375 235.479792)scale(0.2 -0.2)">
       <use xlink:href="#DejaVuSans-91"/>
       <use x="39.013672" xlink:href="#DejaVuSans-48"/>
       <use x="102.636719" xlink:href="#DejaVuSans-46"/>
       <use x="134.423828" xlink:href="#DejaVuSans-55"/>
       <use x="198.046875" xlink:href="#DejaVuSans-53"/>
       <use x="261.669922" xlink:href="#DejaVuSans-44"/>
      </g>
      <!-- 1.00) -->
      <defs>
       <path d="M 12.40625 8.296875 
L 28.515625 8.296875 
L 28.515625 63.921875 
L 10.984375 60.40625 
L 10.984375 69.390625 
L 28.421875 72.90625 
L 38.28125 72.90625 
L 38.28125 8.296875 
L 54.390625 8.296875 
L 54.390625 0 
L 12.40625 0 
z
" id="DejaVuSans-49"/>
      </defs>
      <g transform="translate(29.665625 257.875417)scale(0.2 -0.2)">
       <use xlink:href="#DejaVuSans-49"/>
       <use x="63.623047" xlink:href="#DejaVuSans-46"/>
       <use x="95.410156" xlink:href="#DejaVuSans-48"/>
       <use x="159.033203" xlink:href="#DejaVuSans-48"/>
       <use x="222.65625" xlink:href="#DejaVuSans-41"/>
      </g>
     </g>
    </g>
    <g id="text_20">
     <!-- Max Attention -->
     <defs>
      <path d="M 34.1875 63.1875 
L 20.796875 26.90625 
L 47.609375 26.90625 
z
M 28.609375 72.90625 
L 39.796875 72.90625 
L 67.578125 0 
L 57.328125 0 
L 50.6875 18.703125 
L 17.828125 18.703125 
L 11.1875 0 
L 0.78125 0 
z
" id="DejaVuSans-65"/>
      <path d="M 30.609375 48.390625 
Q 23.390625 48.390625 19.1875 42.75 
Q 14.984375 37.109375 14.984375 27.296875 
Q 14.984375 17.484375 19.15625 11.84375 
Q 23.34375 6.203125 30.609375 6.203125 
Q 37.796875 6.203125 41.984375 11.859375 
Q 46.1875 17.53125 46.1875 27.296875 
Q 46.1875 37.015625 41.984375 42.703125 
Q 37.796875 48.390625 30.609375 48.390625 
z
M 30.609375 56 
Q 42.328125 56 49.015625 48.375 
Q 55.71875 40.765625 55.71875 27.296875 
Q 55.71875 13.875 49.015625 6.21875 
Q 42.328125 -1.421875 30.609375 -1.421875 
Q 18.84375 -1.421875 12.171875 6.21875 
Q 5.515625 13.875 5.515625 27.296875 
Q 5.515625 40.765625 12.171875 48.375 
Q 18.84375 56 30.609375 56 
z
" id="DejaVuSans-111"/>
     </defs>
     <g transform="translate(15.15 208.294792)rotate(-90)scale(0.2 -0.2)">
      <use xlink:href="#DejaVuSans-77"/>
      <use x="86.279297" xlink:href="#DejaVuSans-97"/>
      <use x="147.558594" xlink:href="#DejaVuSans-120"/>
      <use x="206.738281" xlink:href="#DejaVuSans-32"/>
      <use x="238.525391" xlink:href="#DejaVuSans-65"/>
      <use x="306.917969" xlink:href="#DejaVuSans-116"/>
      <use x="346.126953" xlink:href="#DejaVuSans-116"/>
      <use x="385.335938" xlink:href="#DejaVuSans-101"/>
      <use x="446.859375" xlink:href="#DejaVuSans-110"/>
      <use x="510.238281" xlink:href="#DejaVuSans-116"/>
      <use x="549.447266" xlink:href="#DejaVuSans-105"/>
      <use x="577.230469" xlink:href="#DejaVuSans-111"/>
      <use x="638.412109" xlink:href="#DejaVuSans-110"/>
     </g>
    </g>
   </g>
   <g id="line2d_17">
    <path clip-path="url(#p6680208f2d)" d="M 333.063118 21.631878 
L 333.063118 25.753122 
" style="fill:none;stroke:#424242;stroke-dasharray:1.5,1.5;stroke-dashoffset:0;"/>
   </g>
   <g id="line2d_18">
    <path clip-path="url(#p6680208f2d)" d="M 340.293869 21.103726 
L 340.293869 26.281274 
" style="fill:none;stroke:#424242;stroke-dasharray:3,3;stroke-dashoffset:0;"/>
   </g>
   <g id="line2d_19">
    <path clip-path="url(#p6680208f2d)" d="M 347.281574 21.47844 
L 347.281574 25.90656 
" style="fill:none;stroke:#424242;stroke-dasharray:1.5,1.5;stroke-dashoffset:0;"/>
   </g>
   <g id="line2d_20">
    <path clip-path="url(#p6680208f2d)" d="M 356.622322 40.708534 
L 356.622322 60.523132 
" style="fill:none;stroke:#424242;stroke-dasharray:1.5,1.5;stroke-dashoffset:0;"/>
   </g>
   <g id="line2d_21">
    <path clip-path="url(#p6680208f2d)" d="M 357.892626 37.288783 
L 357.892626 63.942883 
" style="fill:none;stroke:#424242;stroke-dasharray:3,3;stroke-dashoffset:0;"/>
   </g>
   <g id="line2d_22">
    <path clip-path="url(#p6680208f2d)" d="M 359.273871 39.193403 
L 359.273871 62.038263 
" style="fill:none;stroke:#424242;stroke-dasharray:1.5,1.5;stroke-dashoffset:0;"/>
   </g>
   <g id="line2d_23">
    <path clip-path="url(#p6680208f2d)" d="M 341.258883 86.58733 
L 341.258883 95.414336 
" style="fill:none;stroke:#424242;stroke-dasharray:1.5,1.5;stroke-dashoffset:0;"/>
   </g>
   <g id="line2d_24">
    <path clip-path="url(#p6680208f2d)" d="M 346.529115 83.266933 
L 346.529115 98.734734 
" style="fill:none;stroke:#424242;stroke-dasharray:3,3;stroke-dashoffset:0;"/>
   </g>
   <g id="line2d_25">
    <path clip-path="url(#p6680208f2d)" d="M 350.806581 84.286033 
L 350.806581 97.715634 
" style="fill:none;stroke:#424242;stroke-dasharray:1.5,1.5;stroke-dashoffset:0;"/>
   </g>
   <g id="line2d_26">
    <path clip-path="url(#p6680208f2d)" d="M 351.891647 106.878408 
L 351.891647 128.969925 
" style="fill:none;stroke:#424242;stroke-dasharray:1.5,1.5;stroke-dashoffset:0;"/>
   </g>
   <g id="line2d_27">
    <path clip-path="url(#p6680208f2d)" d="M 354.149565 104.597117 
L 354.149565 131.251217 
" style="fill:none;stroke:#424242;stroke-dasharray:3,3;stroke-dashoffset:0;"/>
   </g>
   <g id="line2d_28">
    <path clip-path="url(#p6680208f2d)" d="M 356.581845 106.662596 
L 356.581845 129.185738 
" style="fill:none;stroke:#424242;stroke-dasharray:1.5,1.5;stroke-dashoffset:0;"/>
   </g>
   <g id="line2d_29">
    <path clip-path="url(#p6680208f2d)" d="M 338.356287 155.462351 
L 338.356287 161.155982 
" style="fill:none;stroke:#424242;stroke-dasharray:1.5,1.5;stroke-dashoffset:0;"/>
   </g>
   <g id="line2d_30">
    <path clip-path="url(#p6680208f2d)" d="M 347.751575 154.258455 
L 347.751575 162.359878 
" style="fill:none;stroke:#424242;stroke-dasharray:3,3;stroke-dashoffset:0;"/>
   </g>
   <g id="line2d_31">
    <path clip-path="url(#p6680208f2d)" d="M 351.880012 154.066454 
L 351.880012 162.551879 
" style="fill:none;stroke:#424242;stroke-dasharray:1.5,1.5;stroke-dashoffset:0;"/>
   </g>
   <g id="line2d_32">
    <path clip-path="url(#p6680208f2d)" d="M 351.428028 172.831726 
L 351.428028 197.633274 
" style="fill:none;stroke:#424242;stroke-dasharray:1.5,1.5;stroke-dashoffset:0;"/>
   </g>
   <g id="line2d_33">
    <path clip-path="url(#p6680208f2d)" d="M 353.493455 172.42118 
L 353.493455 198.04382 
" style="fill:none;stroke:#424242;stroke-dasharray:3,3;stroke-dashoffset:0;"/>
   </g>
   <g id="line2d_34">
    <path clip-path="url(#p6680208f2d)" d="M 354.625215 174.08273 
L 354.625215 196.38227 
" style="fill:none;stroke:#424242;stroke-dasharray:1.5,1.5;stroke-dashoffset:0;"/>
   </g>
   <g id="patch_88">
    <path d="M 96.7 272.733333 
L 96.7 3.5 
" style="fill:none;stroke:#000000;stroke-linecap:square;stroke-linejoin:miter;stroke-width:0.8;"/>
   </g>
   <g id="patch_89">
    <path d="M 96.7 272.733333 
L 365.933333 272.733333 
" style="fill:none;stroke:#000000;stroke-linecap:square;stroke-linejoin:miter;stroke-width:0.8;"/>
   </g>
  </g>
 </g>
 <defs>
  <clipPath id="p7afe8541d2">
   <rect height="269.233333" width="269.233333" x="-276.333333" y="3.5"/>
  </clipPath>
  <clipPath id="p6680208f2d">
   <rect height="269.233333" width="269.233333" x="96.7" y="3.5"/>
  </clipPath>
 </defs>
</svg>
