<?xml version="1.0" encoding="utf-8" standalone="no"?>
<!DOCTYPE svg PUBLIC "-//W3C//DTD SVG 1.1//EN"
  "http://www.w3.org/Graphics/SVG/1.1/DTD/svg11.dtd">
<!-- Created with matplotlib (https://matplotlib.org/) -->
<svg height="319.061667pt" version="1.1" viewBox="0 0 360.351536 319.061667" width="360.351536pt" xmlns="http://www.w3.org/2000/svg" xmlns:xlink="http://www.w3.org/1999/xlink">
 <defs>
  <style type="text/css">
*{stroke-linecap:butt;stroke-linejoin:round;}
  </style>
 </defs>
 <g id="figure_1">
  <g id="patch_1">
   <path d="M 0 319.061667 
L 360.351536 319.061667 
L 360.351536 0 
L 0 0 
z
" style="fill:#ffffff;"/>
  </g>
  <g id="axes_1">
   <g id="patch_2">
    <path d="M -269.521667 258.361667 
L -14.66 258.361667 
L -14.66 3.5 
L -269.521667 3.5 
z
" style="fill:#ffffff;"/>
   </g>
   <g id="patch_3">
    <path clip-path="url(#p5364539f83)" d="M -257.937045 258.361667 
L -252.144735 258.361667 
L -252.144735 258.361667 
L -257.937045 258.361667 
z
" style="fill:#7570b3;opacity:0.6;stroke:#000000;stroke-linejoin:miter;stroke-width:0.5;"/>
   </g>
   <g id="patch_4">
    <path clip-path="url(#p5364539f83)" d="M -252.144735 258.361667 
L -246.352424 258.361667 
L -246.352424 258.361667 
L -252.144735 258.361667 
z
" style="fill:#7570b3;opacity:0.6;stroke:#000000;stroke-linejoin:miter;stroke-width:0.5;"/>
   </g>
   <g id="patch_5">
    <path clip-path="url(#p5364539f83)" d="M -246.352424 258.361667 
L -240.560114 258.361667 
L -240.560114 258.361667 
L -246.352424 258.361667 
z
" style="fill:#7570b3;opacity:0.6;stroke:#000000;stroke-linejoin:miter;stroke-width:0.5;"/>
   </g>
   <g id="patch_6">
    <path clip-path="url(#p5364539f83)" d="M -240.560114 258.361667 
L -234.767803 258.361667 
L -234.767803 258.361667 
L -240.560114 258.361667 
z
" style="fill:#7570b3;opacity:0.6;stroke:#000000;stroke-linejoin:miter;stroke-width:0.5;"/>
   </g>
   <g id="patch_7">
    <path clip-path="url(#p5364539f83)" d="M -234.767803 258.361667 
L -228.975492 258.361667 
L -228.975492 258.361667 
L -234.767803 258.361667 
z
" style="fill:#7570b3;opacity:0.6;stroke:#000000;stroke-linejoin:miter;stroke-width:0.5;"/>
   </g>
   <g id="patch_8">
    <path clip-path="url(#p5364539f83)" d="M -228.975492 258.361667 
L -223.183182 258.361667 
L -223.183182 258.361667 
L -228.975492 258.361667 
z
" style="fill:#7570b3;opacity:0.6;stroke:#000000;stroke-linejoin:miter;stroke-width:0.5;"/>
   </g>
   <g id="patch_9">
    <path clip-path="url(#p5364539f83)" d="M -223.183182 258.361667 
L -217.390871 258.361667 
L -217.390871 258.361667 
L -223.183182 258.361667 
z
" style="fill:#7570b3;opacity:0.6;stroke:#000000;stroke-linejoin:miter;stroke-width:0.5;"/>
   </g>
   <g id="patch_10">
    <path clip-path="url(#p5364539f83)" d="M -217.390871 258.361667 
L -211.598561 258.361667 
L -211.598561 258.361667 
L -217.390871 258.361667 
z
" style="fill:#7570b3;opacity:0.6;stroke:#000000;stroke-linejoin:miter;stroke-width:0.5;"/>
   </g>
   <g id="patch_11">
    <path clip-path="url(#p5364539f83)" d="M -211.598561 258.361667 
L -205.80625 258.361667 
L -205.80625 258.361667 
L -211.598561 258.361667 
z
" style="fill:#7570b3;opacity:0.6;stroke:#000000;stroke-linejoin:miter;stroke-width:0.5;"/>
   </g>
   <g id="patch_12">
    <path clip-path="url(#p5364539f83)" d="M -205.80625 258.361667 
L -200.013939 258.361667 
L -200.013939 258.361667 
L -205.80625 258.361667 
z
" style="fill:#7570b3;opacity:0.6;stroke:#000000;stroke-linejoin:miter;stroke-width:0.5;"/>
   </g>
   <g id="patch_13">
    <path clip-path="url(#p5364539f83)" d="M -200.013939 258.361667 
L -194.221629 258.361667 
L -194.221629 258.361667 
L -200.013939 258.361667 
z
" style="fill:#7570b3;opacity:0.6;stroke:#000000;stroke-linejoin:miter;stroke-width:0.5;"/>
   </g>
   <g id="patch_14">
    <path clip-path="url(#p5364539f83)" d="M -194.221629 258.361667 
L -188.429318 258.361667 
L -188.429318 258.361667 
L -194.221629 258.361667 
z
" style="fill:#7570b3;opacity:0.6;stroke:#000000;stroke-linejoin:miter;stroke-width:0.5;"/>
   </g>
   <g id="patch_15">
    <path clip-path="url(#p5364539f83)" d="M -188.429318 258.361667 
L -182.637008 258.361667 
L -182.637008 258.361667 
L -188.429318 258.361667 
z
" style="fill:#7570b3;opacity:0.6;stroke:#000000;stroke-linejoin:miter;stroke-width:0.5;"/>
   </g>
   <g id="patch_16">
    <path clip-path="url(#p5364539f83)" d="M -182.637008 258.361667 
L -176.844697 258.361667 
L -176.844697 258.361667 
L -182.637008 258.361667 
z
" style="fill:#7570b3;opacity:0.6;stroke:#000000;stroke-linejoin:miter;stroke-width:0.5;"/>
   </g>
   <g id="patch_17">
    <path clip-path="url(#p5364539f83)" d="M -176.844697 258.361667 
L -171.052386 258.361667 
L -171.052386 258.361667 
L -176.844697 258.361667 
z
" style="fill:#7570b3;opacity:0.6;stroke:#000000;stroke-linejoin:miter;stroke-width:0.5;"/>
   </g>
   <g id="patch_18">
    <path clip-path="url(#p5364539f83)" d="M -171.052386 258.361667 
L -165.260076 258.361667 
L -165.260076 258.361667 
L -171.052386 258.361667 
z
" style="fill:#7570b3;opacity:0.6;stroke:#000000;stroke-linejoin:miter;stroke-width:0.5;"/>
   </g>
   <g id="patch_19">
    <path clip-path="url(#p5364539f83)" d="M -165.260076 258.361667 
L -159.467765 258.361667 
L -159.467765 258.361667 
L -165.260076 258.361667 
z
" style="fill:#7570b3;opacity:0.6;stroke:#000000;stroke-linejoin:miter;stroke-width:0.5;"/>
   </g>
   <g id="patch_20">
    <path clip-path="url(#p5364539f83)" d="M -159.467765 258.361667 
L -153.675455 258.361667 
L -153.675455 258.361667 
L -159.467765 258.361667 
z
" style="fill:#7570b3;opacity:0.6;stroke:#000000;stroke-linejoin:miter;stroke-width:0.5;"/>
   </g>
   <g id="patch_21">
    <path clip-path="url(#p5364539f83)" d="M -153.675455 258.361667 
L -147.883144 258.361667 
L -147.883144 258.361667 
L -153.675455 258.361667 
z
" style="fill:#7570b3;opacity:0.6;stroke:#000000;stroke-linejoin:miter;stroke-width:0.5;"/>
   </g>
   <g id="patch_22">
    <path clip-path="url(#p5364539f83)" d="M -147.883144 258.361667 
L -142.090833 258.361667 
L -142.090833 258.361667 
L -147.883144 258.361667 
z
" style="fill:#7570b3;opacity:0.6;stroke:#000000;stroke-linejoin:miter;stroke-width:0.5;"/>
   </g>
   <g id="patch_23">
    <path clip-path="url(#p5364539f83)" d="M -142.090833 258.361667 
L -136.298523 258.361667 
L -136.298523 258.361667 
L -142.090833 258.361667 
z
" style="fill:#7570b3;opacity:0.6;stroke:#000000;stroke-linejoin:miter;stroke-width:0.5;"/>
   </g>
   <g id="patch_24">
    <path clip-path="url(#p5364539f83)" d="M -136.298523 258.361667 
L -130.506212 258.361667 
L -130.506212 258.361667 
L -136.298523 258.361667 
z
" style="fill:#7570b3;opacity:0.6;stroke:#000000;stroke-linejoin:miter;stroke-width:0.5;"/>
   </g>
   <g id="patch_25">
    <path clip-path="url(#p5364539f83)" d="M -130.506212 258.361667 
L -124.713902 258.361667 
L -124.713902 258.361667 
L -130.506212 258.361667 
z
" style="fill:#7570b3;opacity:0.6;stroke:#000000;stroke-linejoin:miter;stroke-width:0.5;"/>
   </g>
   <g id="patch_26">
    <path clip-path="url(#p5364539f83)" d="M -124.713902 258.361667 
L -118.921591 258.361667 
L -118.921591 258.361667 
L -124.713902 258.361667 
z
" style="fill:#7570b3;opacity:0.6;stroke:#000000;stroke-linejoin:miter;stroke-width:0.5;"/>
   </g>
   <g id="patch_27">
    <path clip-path="url(#p5364539f83)" d="M -118.921591 258.361667 
L -113.12928 258.361667 
L -113.12928 258.361667 
L -118.921591 258.361667 
z
" style="fill:#7570b3;opacity:0.6;stroke:#000000;stroke-linejoin:miter;stroke-width:0.5;"/>
   </g>
   <g id="patch_28">
    <path clip-path="url(#p5364539f83)" d="M -113.12928 258.361667 
L -107.33697 258.361667 
L -107.33697 258.361667 
L -113.12928 258.361667 
z
" style="fill:#7570b3;opacity:0.6;stroke:#000000;stroke-linejoin:miter;stroke-width:0.5;"/>
   </g>
   <g id="patch_29">
    <path clip-path="url(#p5364539f83)" d="M -107.33697 258.361667 
L -101.544659 258.361667 
L -101.544659 258.361667 
L -107.33697 258.361667 
z
" style="fill:#7570b3;opacity:0.6;stroke:#000000;stroke-linejoin:miter;stroke-width:0.5;"/>
   </g>
   <g id="patch_30">
    <path clip-path="url(#p5364539f83)" d="M -101.544659 258.361667 
L -95.752348 258.361667 
L -95.752348 258.361667 
L -101.544659 258.361667 
z
" style="fill:#7570b3;opacity:0.6;stroke:#000000;stroke-linejoin:miter;stroke-width:0.5;"/>
   </g>
   <g id="patch_31">
    <path clip-path="url(#p5364539f83)" d="M -95.752348 258.361667 
L -89.960038 258.361667 
L -89.960038 249.054608 
L -95.752348 249.054608 
z
" style="fill:#7570b3;opacity:0.6;stroke:#000000;stroke-linejoin:miter;stroke-width:0.5;"/>
   </g>
   <g id="patch_32">
    <path clip-path="url(#p5364539f83)" d="M -89.960038 258.361667 
L -84.167727 258.361667 
L -84.167727 202.519314 
L -89.960038 202.519314 
z
" style="fill:#7570b3;opacity:0.6;stroke:#000000;stroke-linejoin:miter;stroke-width:0.5;"/>
   </g>
   <g id="patch_33">
    <path clip-path="url(#p5364539f83)" d="M -84.167727 258.361667 
L -78.375417 258.361667 
L -78.375417 137.369902 
L -84.167727 137.369902 
z
" style="fill:#7570b3;opacity:0.6;stroke:#000000;stroke-linejoin:miter;stroke-width:0.5;"/>
   </g>
   <g id="patch_34">
    <path clip-path="url(#p5364539f83)" d="M -78.375417 258.361667 
L -72.583106 258.361667 
L -72.583106 69.118137 
L -78.375417 69.118137 
z
" style="fill:#7570b3;opacity:0.6;stroke:#000000;stroke-linejoin:miter;stroke-width:0.5;"/>
   </g>
   <g id="patch_35">
    <path clip-path="url(#p5364539f83)" d="M -72.583106 258.361667 
L -66.790795 258.361667 
L -66.790795 109.448725 
L -72.583106 109.448725 
z
" style="fill:#7570b3;opacity:0.6;stroke:#000000;stroke-linejoin:miter;stroke-width:0.5;"/>
   </g>
   <g id="patch_36">
    <path clip-path="url(#p5364539f83)" d="M -66.790795 258.361667 
L -60.998485 258.361667 
L -60.998485 168.393431 
L -66.790795 168.393431 
z
" style="fill:#7570b3;opacity:0.6;stroke:#000000;stroke-linejoin:miter;stroke-width:0.5;"/>
   </g>
   <g id="patch_37">
    <path clip-path="url(#p5364539f83)" d="M -60.998485 258.361667 
L -55.206174 258.361667 
L -55.206174 205.621667 
L -60.998485 205.621667 
z
" style="fill:#7570b3;opacity:0.6;stroke:#000000;stroke-linejoin:miter;stroke-width:0.5;"/>
   </g>
   <g id="patch_38">
    <path clip-path="url(#p5364539f83)" d="M -55.206174 258.361667 
L -49.413864 258.361667 
L -49.413864 193.212255 
L -55.206174 193.212255 
z
" style="fill:#7570b3;opacity:0.6;stroke:#000000;stroke-linejoin:miter;stroke-width:0.5;"/>
   </g>
   <g id="patch_39">
    <path clip-path="url(#p5364539f83)" d="M -49.413864 258.361667 
L -43.621553 258.361667 
L -43.621553 183.905196 
L -49.413864 183.905196 
z
" style="fill:#7570b3;opacity:0.6;stroke:#000000;stroke-linejoin:miter;stroke-width:0.5;"/>
   </g>
   <g id="patch_40">
    <path clip-path="url(#p5364539f83)" d="M -43.621553 258.361667 
L -37.829242 258.361667 
L -37.829242 75.322843 
L -43.621553 75.322843 
z
" style="fill:#7570b3;opacity:0.6;stroke:#000000;stroke-linejoin:miter;stroke-width:0.5;"/>
   </g>
   <g id="patch_41">
    <path clip-path="url(#p5364539f83)" d="M -37.829242 258.361667 
L -32.036932 258.361667 
L -32.036932 155.984019 
L -37.829242 155.984019 
z
" style="fill:#7570b3;opacity:0.6;stroke:#000000;stroke-linejoin:miter;stroke-width:0.5;"/>
   </g>
   <g id="patch_42">
    <path clip-path="url(#p5364539f83)" d="M -32.036932 258.361667 
L -26.244621 258.361667 
L -26.244621 252.156961 
L -32.036932 252.156961 
z
" style="fill:#7570b3;opacity:0.6;stroke:#000000;stroke-linejoin:miter;stroke-width:0.5;"/>
   </g>
   <g id="patch_43">
    <path clip-path="url(#p5364539f83)" d="M -257.937045 258.361667 
L -252.144735 258.361667 
L -252.144735 258.361667 
L -257.937045 258.361667 
z
" style="fill:#d95f02;opacity:0.6;stroke:#000000;stroke-linejoin:miter;stroke-width:0.5;"/>
   </g>
   <g id="patch_44">
    <path clip-path="url(#p5364539f83)" d="M -252.144735 258.361667 
L -246.352424 258.361667 
L -246.352424 258.361667 
L -252.144735 258.361667 
z
" style="fill:#d95f02;opacity:0.6;stroke:#000000;stroke-linejoin:miter;stroke-width:0.5;"/>
   </g>
   <g id="patch_45">
    <path clip-path="url(#p5364539f83)" d="M -246.352424 258.361667 
L -240.560114 258.361667 
L -240.560114 258.361667 
L -246.352424 258.361667 
z
" style="fill:#d95f02;opacity:0.6;stroke:#000000;stroke-linejoin:miter;stroke-width:0.5;"/>
   </g>
   <g id="patch_46">
    <path clip-path="url(#p5364539f83)" d="M -240.560114 258.361667 
L -234.767803 258.361667 
L -234.767803 258.361667 
L -240.560114 258.361667 
z
" style="fill:#d95f02;opacity:0.6;stroke:#000000;stroke-linejoin:miter;stroke-width:0.5;"/>
   </g>
   <g id="patch_47">
    <path clip-path="url(#p5364539f83)" d="M -234.767803 258.361667 
L -228.975492 258.361667 
L -228.975492 258.361667 
L -234.767803 258.361667 
z
" style="fill:#d95f02;opacity:0.6;stroke:#000000;stroke-linejoin:miter;stroke-width:0.5;"/>
   </g>
   <g id="patch_48">
    <path clip-path="url(#p5364539f83)" d="M -228.975492 258.361667 
L -223.183182 258.361667 
L -223.183182 258.361667 
L -228.975492 258.361667 
z
" style="fill:#d95f02;opacity:0.6;stroke:#000000;stroke-linejoin:miter;stroke-width:0.5;"/>
   </g>
   <g id="patch_49">
    <path clip-path="url(#p5364539f83)" d="M -223.183182 258.361667 
L -217.390871 258.361667 
L -217.390871 258.361667 
L -223.183182 258.361667 
z
" style="fill:#d95f02;opacity:0.6;stroke:#000000;stroke-linejoin:miter;stroke-width:0.5;"/>
   </g>
   <g id="patch_50">
    <path clip-path="url(#p5364539f83)" d="M -217.390871 258.361667 
L -211.598561 258.361667 
L -211.598561 258.361667 
L -217.390871 258.361667 
z
" style="fill:#d95f02;opacity:0.6;stroke:#000000;stroke-linejoin:miter;stroke-width:0.5;"/>
   </g>
   <g id="patch_51">
    <path clip-path="url(#p5364539f83)" d="M -211.598561 258.361667 
L -205.80625 258.361667 
L -205.80625 258.361667 
L -211.598561 258.361667 
z
" style="fill:#d95f02;opacity:0.6;stroke:#000000;stroke-linejoin:miter;stroke-width:0.5;"/>
   </g>
   <g id="patch_52">
    <path clip-path="url(#p5364539f83)" d="M -205.80625 258.361667 
L -200.013939 258.361667 
L -200.013939 258.361667 
L -205.80625 258.361667 
z
" style="fill:#d95f02;opacity:0.6;stroke:#000000;stroke-linejoin:miter;stroke-width:0.5;"/>
   </g>
   <g id="patch_53">
    <path clip-path="url(#p5364539f83)" d="M -200.013939 258.361667 
L -194.221629 258.361667 
L -194.221629 258.361667 
L -200.013939 258.361667 
z
" style="fill:#d95f02;opacity:0.6;stroke:#000000;stroke-linejoin:miter;stroke-width:0.5;"/>
   </g>
   <g id="patch_54">
    <path clip-path="url(#p5364539f83)" d="M -194.221629 258.361667 
L -188.429318 258.361667 
L -188.429318 258.361667 
L -194.221629 258.361667 
z
" style="fill:#d95f02;opacity:0.6;stroke:#000000;stroke-linejoin:miter;stroke-width:0.5;"/>
   </g>
   <g id="patch_55">
    <path clip-path="url(#p5364539f83)" d="M -188.429318 258.361667 
L -182.637008 258.361667 
L -182.637008 258.361667 
L -188.429318 258.361667 
z
" style="fill:#d95f02;opacity:0.6;stroke:#000000;stroke-linejoin:miter;stroke-width:0.5;"/>
   </g>
   <g id="patch_56">
    <path clip-path="url(#p5364539f83)" d="M -182.637008 258.361667 
L -176.844697 258.361667 
L -176.844697 258.361667 
L -182.637008 258.361667 
z
" style="fill:#d95f02;opacity:0.6;stroke:#000000;stroke-linejoin:miter;stroke-width:0.5;"/>
   </g>
   <g id="patch_57">
    <path clip-path="url(#p5364539f83)" d="M -176.844697 258.361667 
L -171.052386 258.361667 
L -171.052386 258.361667 
L -176.844697 258.361667 
z
" style="fill:#d95f02;opacity:0.6;stroke:#000000;stroke-linejoin:miter;stroke-width:0.5;"/>
   </g>
   <g id="patch_58">
    <path clip-path="url(#p5364539f83)" d="M -171.052386 258.361667 
L -165.260076 258.361667 
L -165.260076 258.361667 
L -171.052386 258.361667 
z
" style="fill:#d95f02;opacity:0.6;stroke:#000000;stroke-linejoin:miter;stroke-width:0.5;"/>
   </g>
   <g id="patch_59">
    <path clip-path="url(#p5364539f83)" d="M -165.260076 258.361667 
L -159.467765 258.361667 
L -159.467765 258.361667 
L -165.260076 258.361667 
z
" style="fill:#d95f02;opacity:0.6;stroke:#000000;stroke-linejoin:miter;stroke-width:0.5;"/>
   </g>
   <g id="patch_60">
    <path clip-path="url(#p5364539f83)" d="M -159.467765 258.361667 
L -153.675455 258.361667 
L -153.675455 258.361667 
L -159.467765 258.361667 
z
" style="fill:#d95f02;opacity:0.6;stroke:#000000;stroke-linejoin:miter;stroke-width:0.5;"/>
   </g>
   <g id="patch_61">
    <path clip-path="url(#p5364539f83)" d="M -153.675455 258.361667 
L -147.883144 258.361667 
L -147.883144 258.361667 
L -153.675455 258.361667 
z
" style="fill:#d95f02;opacity:0.6;stroke:#000000;stroke-linejoin:miter;stroke-width:0.5;"/>
   </g>
   <g id="patch_62">
    <path clip-path="url(#p5364539f83)" d="M -147.883144 258.361667 
L -142.090833 258.361667 
L -142.090833 258.361667 
L -147.883144 258.361667 
z
" style="fill:#d95f02;opacity:0.6;stroke:#000000;stroke-linejoin:miter;stroke-width:0.5;"/>
   </g>
   <g id="patch_63">
    <path clip-path="url(#p5364539f83)" d="M -142.090833 258.361667 
L -136.298523 258.361667 
L -136.298523 258.361667 
L -142.090833 258.361667 
z
" style="fill:#d95f02;opacity:0.6;stroke:#000000;stroke-linejoin:miter;stroke-width:0.5;"/>
   </g>
   <g id="patch_64">
    <path clip-path="url(#p5364539f83)" d="M -136.298523 258.361667 
L -130.506212 258.361667 
L -130.506212 258.361667 
L -136.298523 258.361667 
z
" style="fill:#d95f02;opacity:0.6;stroke:#000000;stroke-linejoin:miter;stroke-width:0.5;"/>
   </g>
   <g id="patch_65">
    <path clip-path="url(#p5364539f83)" d="M -130.506212 258.361667 
L -124.713902 258.361667 
L -124.713902 258.361667 
L -130.506212 258.361667 
z
" style="fill:#d95f02;opacity:0.6;stroke:#000000;stroke-linejoin:miter;stroke-width:0.5;"/>
   </g>
   <g id="patch_66">
    <path clip-path="url(#p5364539f83)" d="M -124.713902 258.361667 
L -118.921591 258.361667 
L -118.921591 258.361667 
L -124.713902 258.361667 
z
" style="fill:#d95f02;opacity:0.6;stroke:#000000;stroke-linejoin:miter;stroke-width:0.5;"/>
   </g>
   <g id="patch_67">
    <path clip-path="url(#p5364539f83)" d="M -118.921591 258.361667 
L -113.12928 258.361667 
L -113.12928 258.361667 
L -118.921591 258.361667 
z
" style="fill:#d95f02;opacity:0.6;stroke:#000000;stroke-linejoin:miter;stroke-width:0.5;"/>
   </g>
   <g id="patch_68">
    <path clip-path="url(#p5364539f83)" d="M -113.12928 258.361667 
L -107.33697 258.361667 
L -107.33697 258.361667 
L -113.12928 258.361667 
z
" style="fill:#d95f02;opacity:0.6;stroke:#000000;stroke-linejoin:miter;stroke-width:0.5;"/>
   </g>
   <g id="patch_69">
    <path clip-path="url(#p5364539f83)" d="M -107.33697 258.361667 
L -101.544659 258.361667 
L -101.544659 246.424352 
L -107.33697 246.424352 
z
" style="fill:#d95f02;opacity:0.6;stroke:#000000;stroke-linejoin:miter;stroke-width:0.5;"/>
   </g>
   <g id="patch_70">
    <path clip-path="url(#p5364539f83)" d="M -101.544659 258.361667 
L -95.752348 258.361667 
L -95.752348 250.403457 
L -101.544659 250.403457 
z
" style="fill:#d95f02;opacity:0.6;stroke:#000000;stroke-linejoin:miter;stroke-width:0.5;"/>
   </g>
   <g id="patch_71">
    <path clip-path="url(#p5364539f83)" d="M -95.752348 258.361667 
L -89.960038 258.361667 
L -89.960038 234.487037 
L -95.752348 234.487037 
z
" style="fill:#d95f02;opacity:0.6;stroke:#000000;stroke-linejoin:miter;stroke-width:0.5;"/>
   </g>
   <g id="patch_72">
    <path clip-path="url(#p5364539f83)" d="M -89.960038 258.361667 
L -84.167727 258.361667 
L -84.167727 107.155682 
L -89.960038 107.155682 
z
" style="fill:#d95f02;opacity:0.6;stroke:#000000;stroke-linejoin:miter;stroke-width:0.5;"/>
   </g>
   <g id="patch_73">
    <path clip-path="url(#p5364539f83)" d="M -84.167727 258.361667 
L -78.375417 258.361667 
L -78.375417 15.63627 
L -84.167727 15.63627 
z
" style="fill:#d95f02;opacity:0.6;stroke:#000000;stroke-linejoin:miter;stroke-width:0.5;"/>
   </g>
   <g id="patch_74">
    <path clip-path="url(#p5364539f83)" d="M -78.375417 258.361667 
L -72.583106 258.361667 
L -72.583106 39.510899 
L -78.375417 39.510899 
z
" style="fill:#d95f02;opacity:0.6;stroke:#000000;stroke-linejoin:miter;stroke-width:0.5;"/>
   </g>
   <g id="patch_75">
    <path clip-path="url(#p5364539f83)" d="M -72.583106 258.361667 
L -66.790795 258.361667 
L -66.790795 99.197472 
L -72.583106 99.197472 
z
" style="fill:#d95f02;opacity:0.6;stroke:#000000;stroke-linejoin:miter;stroke-width:0.5;"/>
   </g>
   <g id="patch_76">
    <path clip-path="url(#p5364539f83)" d="M -66.790795 258.361667 
L -60.998485 258.361667 
L -60.998485 174.800464 
L -66.790795 174.800464 
z
" style="fill:#d95f02;opacity:0.6;stroke:#000000;stroke-linejoin:miter;stroke-width:0.5;"/>
   </g>
   <g id="patch_77">
    <path clip-path="url(#p5364539f83)" d="M -60.998485 258.361667 
L -55.206174 258.361667 
L -55.206174 182.758674 
L -60.998485 182.758674 
z
" style="fill:#d95f02;opacity:0.6;stroke:#000000;stroke-linejoin:miter;stroke-width:0.5;"/>
   </g>
   <g id="patch_78">
    <path clip-path="url(#p5364539f83)" d="M -55.206174 258.361667 
L -49.413864 258.361667 
L -49.413864 222.549723 
L -55.206174 222.549723 
z
" style="fill:#d95f02;opacity:0.6;stroke:#000000;stroke-linejoin:miter;stroke-width:0.5;"/>
   </g>
   <g id="patch_79">
    <path clip-path="url(#p5364539f83)" d="M -49.413864 258.361667 
L -43.621553 258.361667 
L -43.621553 210.612408 
L -49.413864 210.612408 
z
" style="fill:#d95f02;opacity:0.6;stroke:#000000;stroke-linejoin:miter;stroke-width:0.5;"/>
   </g>
   <g id="patch_80">
    <path clip-path="url(#p5364539f83)" d="M -43.621553 258.361667 
L -37.829242 258.361667 
L -37.829242 230.507933 
L -43.621553 230.507933 
z
" style="fill:#d95f02;opacity:0.6;stroke:#000000;stroke-linejoin:miter;stroke-width:0.5;"/>
   </g>
   <g id="patch_81">
    <path clip-path="url(#p5364539f83)" d="M -37.829242 258.361667 
L -32.036932 258.361667 
L -32.036932 246.424352 
L -37.829242 246.424352 
z
" style="fill:#d95f02;opacity:0.6;stroke:#000000;stroke-linejoin:miter;stroke-width:0.5;"/>
   </g>
   <g id="patch_82">
    <path clip-path="url(#p5364539f83)" d="M -32.036932 258.361667 
L -26.244621 258.361667 
L -26.244621 258.361667 
L -32.036932 258.361667 
z
" style="fill:#d95f02;opacity:0.6;stroke:#000000;stroke-linejoin:miter;stroke-width:0.5;"/>
   </g>
   <g id="matplotlib.axis_1">
    <g id="xtick_1">
     <g id="line2d_1">
      <defs>
       <path d="M 0 0 
L 0 3.5 
" id="m7c39f9d2da" style="stroke:#000000;stroke-width:1.6;"/>
      </defs>
      <g/>
     </g>
     <g id="text_1">
      <!-- 0.0 -->
      <defs>
       <path d="M 31.78125 66.40625 
Q 24.171875 66.40625 20.328125 58.90625 
Q 16.5 51.421875 16.5 36.375 
Q 16.5 21.390625 20.328125 13.890625 
Q 24.171875 6.390625 31.78125 6.390625 
Q 39.453125 6.390625 43.28125 13.890625 
Q 47.125 21.390625 47.125 36.375 
Q 47.125 51.421875 43.28125 58.90625 
Q 39.453125 66.40625 31.78125 66.40625 
z
M 31.78125 74.21875 
Q 44.046875 74.21875 50.515625 64.515625 
Q 56.984375 54.828125 56.984375 36.375 
Q 56.984375 17.96875 50.515625 8.265625 
Q 44.046875 -1.421875 31.78125 -1.421875 
Q 19.53125 -1.421875 13.0625 8.265625 
Q 6.59375 17.96875 6.59375 36.375 
Q 6.59375 54.828125 13.0625 64.515625 
Q 19.53125 74.21875 31.78125 74.21875 
z
" id="DejaVuSans-48"/>
       <path d="M 10.6875 12.40625 
L 21 12.40625 
L 21 0 
L 10.6875 0 
z
" id="DejaVuSans-46"/>
      </defs>
      <g transform="translate(-273.84017 288.258542)scale(0.2 -0.2)">
       <use xlink:href="#DejaVuSans-48"/>
       <use x="63.623047" xlink:href="#DejaVuSans-46"/>
       <use x="95.410156" xlink:href="#DejaVuSans-48"/>
      </g>
     </g>
    </g>
    <g id="xtick_2">
     <g id="line2d_2">
      <g/>
     </g>
     <g id="text_2">
      <!-- 0.2 -->
      <defs>
       <path d="M 19.1875 8.296875 
L 53.609375 8.296875 
L 53.609375 0 
L 7.328125 0 
L 7.328125 8.296875 
Q 12.9375 14.109375 22.625 23.890625 
Q 32.328125 33.6875 34.8125 36.53125 
Q 39.546875 41.84375 41.421875 45.53125 
Q 43.3125 49.21875 43.3125 52.78125 
Q 43.3125 58.59375 39.234375 62.25 
Q 35.15625 65.921875 28.609375 65.921875 
Q 23.96875 65.921875 18.8125 64.3125 
Q 13.671875 62.703125 7.8125 59.421875 
L 7.8125 69.390625 
Q 13.765625 71.78125 18.9375 73 
Q 24.125 74.21875 28.421875 74.21875 
Q 39.75 74.21875 46.484375 68.546875 
Q 53.21875 62.890625 53.21875 53.421875 
Q 53.21875 48.921875 51.53125 44.890625 
Q 49.859375 40.875 45.40625 35.40625 
Q 44.1875 33.984375 37.640625 27.21875 
Q 31.109375 20.453125 19.1875 8.296875 
z
" id="DejaVuSans-50"/>
      </defs>
      <g transform="translate(-207.642335 288.258542)scale(0.2 -0.2)">
       <use xlink:href="#DejaVuSans-48"/>
       <use x="63.623047" xlink:href="#DejaVuSans-46"/>
       <use x="95.410156" xlink:href="#DejaVuSans-50"/>
      </g>
     </g>
    </g>
    <g id="xtick_3">
     <g id="line2d_3">
      <g/>
     </g>
     <g id="text_3">
      <!-- 0.4 -->
      <defs>
       <path d="M 37.796875 64.3125 
L 12.890625 25.390625 
L 37.796875 25.390625 
z
M 35.203125 72.90625 
L 47.609375 72.90625 
L 47.609375 25.390625 
L 58.015625 25.390625 
L 58.015625 17.1875 
L 47.609375 17.1875 
L 47.609375 0 
L 37.796875 0 
L 37.796875 17.1875 
L 4.890625 17.1875 
L 4.890625 26.703125 
z
" id="DejaVuSans-52"/>
      </defs>
      <g transform="translate(-141.444499 288.258542)scale(0.2 -0.2)">
       <use xlink:href="#DejaVuSans-48"/>
       <use x="63.623047" xlink:href="#DejaVuSans-46"/>
       <use x="95.410156" xlink:href="#DejaVuSans-52"/>
      </g>
     </g>
    </g>
    <g id="xtick_4">
     <g id="line2d_4">
      <g/>
     </g>
     <g id="text_4">
      <!-- 0.6 -->
      <defs>
       <path d="M 33.015625 40.375 
Q 26.375 40.375 22.484375 35.828125 
Q 18.609375 31.296875 18.609375 23.390625 
Q 18.609375 15.53125 22.484375 10.953125 
Q 26.375 6.390625 33.015625 6.390625 
Q 39.65625 6.390625 43.53125 10.953125 
Q 47.40625 15.53125 47.40625 23.390625 
Q 47.40625 31.296875 43.53125 35.828125 
Q 39.65625 40.375 33.015625 40.375 
z
M 52.59375 71.296875 
L 52.59375 62.3125 
Q 48.875 64.0625 45.09375 64.984375 
Q 41.3125 65.921875 37.59375 65.921875 
Q 27.828125 65.921875 22.671875 59.328125 
Q 17.53125 52.734375 16.796875 39.40625 
Q 19.671875 43.65625 24.015625 45.921875 
Q 28.375 48.1875 33.59375 48.1875 
Q 44.578125 48.1875 50.953125 41.515625 
Q 57.328125 34.859375 57.328125 23.390625 
Q 57.328125 12.15625 50.6875 5.359375 
Q 44.046875 -1.421875 33.015625 -1.421875 
Q 20.359375 -1.421875 13.671875 8.265625 
Q 6.984375 17.96875 6.984375 36.375 
Q 6.984375 53.65625 15.1875 63.9375 
Q 23.390625 74.21875 37.203125 74.21875 
Q 40.921875 74.21875 44.703125 73.484375 
Q 48.484375 72.75 52.59375 71.296875 
z
" id="DejaVuSans-54"/>
      </defs>
      <g transform="translate(-75.246664 288.258542)scale(0.2 -0.2)">
       <use xlink:href="#DejaVuSans-48"/>
       <use x="63.623047" xlink:href="#DejaVuSans-46"/>
       <use x="95.410156" xlink:href="#DejaVuSans-54"/>
      </g>
     </g>
    </g>
    <g id="text_5">
     <!--   -->
     <defs>
      <path id="DejaVuSans-32"/>
     </defs>
     <g transform="translate(-145.268958 311.614792)scale(0.2 -0.2)">
      <use xlink:href="#DejaVuSans-32"/>
     </g>
    </g>
   </g>
   <g id="matplotlib.axis_2">
    <g id="ytick_1">
     <g id="line2d_5">
      <defs>
       <path d="M 0 0 
L -3.5 0 
" id="m351ca8a7ae" style="stroke:#000000;stroke-width:1.6;"/>
      </defs>
      <g/>
     </g>
     <g id="text_6">
      <!-- 0.00 -->
      <g transform="translate(-328.752917 265.960104)scale(0.2 -0.2)">
       <use xlink:href="#DejaVuSans-48"/>
       <use x="63.623047" xlink:href="#DejaVuSans-46"/>
       <use x="95.410156" xlink:href="#DejaVuSans-48"/>
       <use x="159.033203" xlink:href="#DejaVuSans-48"/>
      </g>
     </g>
    </g>
    <g id="ytick_2">
     <g id="line2d_6">
      <g/>
     </g>
     <g id="text_7">
      <!-- 0.05 -->
      <defs>
       <path d="M 10.796875 72.90625 
L 49.515625 72.90625 
L 49.515625 64.59375 
L 19.828125 64.59375 
L 19.828125 46.734375 
Q 21.96875 47.46875 24.109375 47.828125 
Q 26.265625 48.1875 28.421875 48.1875 
Q 40.625 48.1875 47.75 41.5 
Q 54.890625 34.8125 54.890625 23.390625 
Q 54.890625 11.625 47.5625 5.09375 
Q 40.234375 -1.421875 26.90625 -1.421875 
Q 22.3125 -1.421875 17.546875 -0.640625 
Q 12.796875 0.140625 7.71875 1.703125 
L 7.71875 11.625 
Q 12.109375 9.234375 16.796875 8.0625 
Q 21.484375 6.890625 26.703125 6.890625 
Q 35.15625 6.890625 40.078125 11.328125 
Q 45.015625 15.765625 45.015625 23.390625 
Q 45.015625 31 40.078125 35.4375 
Q 35.15625 39.890625 26.703125 39.890625 
Q 22.75 39.890625 18.8125 39.015625 
Q 14.890625 38.140625 10.796875 36.28125 
z
" id="DejaVuSans-53"/>
      </defs>
      <g transform="translate(-328.752917 211.048457)scale(0.2 -0.2)">
       <use xlink:href="#DejaVuSans-48"/>
       <use x="63.623047" xlink:href="#DejaVuSans-46"/>
       <use x="95.410156" xlink:href="#DejaVuSans-48"/>
       <use x="159.033203" xlink:href="#DejaVuSans-53"/>
      </g>
     </g>
    </g>
    <g id="ytick_3">
     <g id="line2d_7">
      <g/>
     </g>
     <g id="text_8">
      <!-- 0.10 -->
      <defs>
       <path d="M 12.40625 8.296875 
L 28.515625 8.296875 
L 28.515625 63.921875 
L 10.984375 60.40625 
L 10.984375 69.390625 
L 28.421875 72.90625 
L 38.28125 72.90625 
L 38.28125 8.296875 
L 54.390625 8.296875 
L 54.390625 0 
L 12.40625 0 
z
" id="DejaVuSans-49"/>
      </defs>
      <g transform="translate(-328.752917 156.13681)scale(0.2 -0.2)">
       <use xlink:href="#DejaVuSans-48"/>
       <use x="63.623047" xlink:href="#DejaVuSans-46"/>
       <use x="95.410156" xlink:href="#DejaVuSans-49"/>
       <use x="159.033203" xlink:href="#DejaVuSans-48"/>
      </g>
     </g>
    </g>
    <g id="ytick_4">
     <g id="line2d_8">
      <g/>
     </g>
     <g id="text_9">
      <!-- 0.15 -->
      <g transform="translate(-328.752917 101.225163)scale(0.2 -0.2)">
       <use xlink:href="#DejaVuSans-48"/>
       <use x="63.623047" xlink:href="#DejaVuSans-46"/>
       <use x="95.410156" xlink:href="#DejaVuSans-49"/>
       <use x="159.033203" xlink:href="#DejaVuSans-53"/>
      </g>
     </g>
    </g>
    <g id="ytick_5">
     <g id="line2d_9">
      <g/>
     </g>
     <g id="text_10">
      <!-- 0.20 -->
      <g transform="translate(-328.752917 46.313516)scale(0.2 -0.2)">
       <use xlink:href="#DejaVuSans-48"/>
       <use x="63.623047" xlink:href="#DejaVuSans-46"/>
       <use x="95.410156" xlink:href="#DejaVuSans-50"/>
       <use x="159.033203" xlink:href="#DejaVuSans-48"/>
      </g>
     </g>
    </g>
    <g id="text_11">
     <!--   -->
     <g transform="translate(-336.413167 133.727583)rotate(-90)scale(0.176 -0.176)">
      <use xlink:href="#DejaVuSans-32"/>
     </g>
    </g>
   </g>
   <g id="patch_83">
    <path style="fill:none;stroke:#000000;stroke-linecap:square;stroke-linejoin:miter;stroke-width:0.8;"/>
   </g>
   <g id="patch_84">
    <path style="fill:none;stroke:#000000;stroke-linecap:square;stroke-linejoin:miter;stroke-width:0.8;"/>
   </g>
  </g>
  <g id="axes_2">
   <g id="patch_85">
    <path d="M 96.7 258.361667 
L 351.561667 258.361667 
L 351.561667 3.5 
L 96.7 3.5 
z
" style="fill:#ffffff;"/>
   </g>
   <g id="PolyCollection_1">
    <defs>
     <path d="M 280.377079 -295.830625 
L 280.377079 -297.063458 
L 281.054367 -297.175703 
L 281.731655 -297.302694 
L 282.408943 -297.445293 
L 283.086231 -297.604258 
L 283.763518 -297.780246 
L 284.440806 -297.973813 
L 285.118094 -298.18542 
L 285.795382 -298.415445 
L 286.47267 -298.664179 
L 287.149958 -298.931813 
L 287.827246 -299.218409 
L 288.504534 -299.523843 
L 289.181821 -299.847724 
L 289.859109 -300.189293 
L 290.536397 -300.547307 
L 291.213685 -300.919924 
L 291.890973 -301.304592 
L 292.568261 -301.697983 
L 293.245549 -302.095962 
L 293.922836 -302.493627 
L 294.600124 -302.885409 
L 295.277412 -303.265256 
L 295.9547 -303.626865 
L 296.631988 -303.963966 
L 297.309276 -304.27063 
L 297.986564 -304.541571 
L 298.663851 -304.772409 
L 299.341139 -304.959879 
L 300.018427 -305.101964 
L 300.695715 -305.19793 
L 301.373003 -305.248273 
L 302.050291 -305.254595 
L 302.727579 -305.219398 
L 303.404866 -305.14586 
L 304.082154 -305.037578 
L 304.759442 -304.898346 
L 305.43673 -304.731952 
L 306.114018 -304.542037 
L 306.791306 -304.332013 
L 307.468594 -304.105035 
L 308.145882 -303.864031 
L 308.823169 -303.611762 
L 309.500457 -303.350909 
L 310.177745 -303.084155 
L 310.855033 -302.814252 
L 311.532321 -302.544062 
L 312.209609 -302.276562 
L 312.886897 -302.014808 
L 313.564184 -301.761867 
L 314.241472 -301.520729 
L 314.91876 -301.2942 
L 315.596048 -301.084795 
L 316.273336 -300.89465 
L 316.950624 -300.725451 
L 317.627912 -300.578397 
L 318.305199 -300.4542 
L 318.982487 -300.353113 
L 319.659775 -300.274995 
L 320.337063 -300.219397 
L 321.014351 -300.185662 
L 321.691639 -300.173035 
L 322.368927 -300.180757 
L 323.046214 -300.208161 
L 323.723502 -300.254728 
L 324.40079 -300.320126 
L 325.078078 -300.404208 
L 325.755366 -300.506976 
L 326.432654 -300.628505 
L 327.109942 -300.768832 
L 327.787229 -300.927815 
L 328.464517 -301.104973 
L 329.141805 -301.299308 
L 329.819093 -301.509136 
L 330.496381 -301.731935 
L 331.173669 -301.964231 
L 331.850957 -302.201535 
L 332.528245 -302.438352 
L 333.205532 -302.668268 
L 333.88282 -302.884126 
L 334.560108 -303.078278 
L 335.237396 -303.242914 
L 335.914684 -303.370446 
L 336.591972 -303.453912 
L 337.26926 -303.487391 
L 337.946547 -303.466367 
L 338.623835 -303.388037 
L 339.301123 -303.251524 
L 339.978411 -303.057972 
L 340.655699 -302.810524 
L 341.332987 -302.514175 
L 342.010275 -302.175519 
L 342.687562 -301.8024 
L 343.36485 -301.403513 
L 344.042138 -300.987968 
L 344.719426 -300.564858 
L 345.396714 -300.142866 
L 346.074002 -299.729916 
L 346.75129 -299.332914 
L 347.428577 -298.957564 
L 347.428577 -293.936519 
L 347.428577 -293.936519 
L 346.75129 -293.561169 
L 346.074002 -293.164168 
L 345.396714 -292.751218 
L 344.719426 -292.329225 
L 344.042138 -291.906116 
L 343.36485 -291.49057 
L 342.687562 -291.091684 
L 342.010275 -290.718565 
L 341.332987 -290.379908 
L 340.655699 -290.083559 
L 339.978411 -289.836111 
L 339.301123 -289.64256 
L 338.623835 -289.506046 
L 337.946547 -289.427717 
L 337.26926 -289.406692 
L 336.591972 -289.440171 
L 335.914684 -289.523638 
L 335.237396 -289.651169 
L 334.560108 -289.815805 
L 333.88282 -290.009957 
L 333.205532 -290.225815 
L 332.528245 -290.455731 
L 331.850957 -290.692548 
L 331.173669 -290.929852 
L 330.496381 -291.162148 
L 329.819093 -291.384947 
L 329.141805 -291.594775 
L 328.464517 -291.78911 
L 327.787229 -291.966268 
L 327.109942 -292.125252 
L 326.432654 -292.265578 
L 325.755366 -292.387107 
L 325.078078 -292.489875 
L 324.40079 -292.573958 
L 323.723502 -292.639355 
L 323.046214 -292.685922 
L 322.368927 -292.713326 
L 321.691639 -292.721049 
L 321.014351 -292.708421 
L 320.337063 -292.674687 
L 319.659775 -292.619089 
L 318.982487 -292.540971 
L 318.305199 -292.439883 
L 317.627912 -292.315686 
L 316.950624 -292.168632 
L 316.273336 -291.999433 
L 315.596048 -291.809288 
L 314.91876 -291.599883 
L 314.241472 -291.373354 
L 313.564184 -291.132216 
L 312.886897 -290.879276 
L 312.209609 -290.617521 
L 311.532321 -290.350021 
L 310.855033 -290.079831 
L 310.177745 -289.809928 
L 309.500457 -289.543174 
L 308.823169 -289.282321 
L 308.145882 -289.030052 
L 307.468594 -288.789048 
L 306.791306 -288.56207 
L 306.114018 -288.352046 
L 305.43673 -288.162132 
L 304.759442 -287.995738 
L 304.082154 -287.856505 
L 303.404866 -287.748224 
L 302.727579 -287.674685 
L 302.050291 -287.639488 
L 301.373003 -287.64581 
L 300.695715 -287.696154 
L 300.018427 -287.792119 
L 299.341139 -287.934204 
L 298.663851 -288.121675 
L 297.986564 -288.352512 
L 297.309276 -288.623453 
L 296.631988 -288.930118 
L 295.9547 -289.267219 
L 295.277412 -289.628827 
L 294.600124 -290.008674 
L 293.922836 -290.400457 
L 293.245549 -290.798121 
L 292.568261 -291.1961 
L 291.890973 -291.589491 
L 291.213685 -291.974159 
L 290.536397 -292.346776 
L 289.859109 -292.704791 
L 289.181821 -293.04636 
L 288.504534 -293.37024 
L 287.827246 -293.675674 
L 287.149958 -293.962271 
L 286.47267 -294.229905 
L 285.795382 -294.478638 
L 285.118094 -294.708663 
L 284.440806 -294.92027 
L 283.763518 -295.113837 
L 283.086231 -295.289825 
L 282.408943 -295.448791 
L 281.731655 -295.591389 
L 281.054367 -295.71838 
L 280.377079 -295.830625 
z
" id="mffc5b8a399" style="stroke:#424242;"/>
    </defs>
    <g clip-path="url(#pe77af1509a)">
     <use style="fill:#7c78ab;stroke:#424242;" x="0" xlink:href="#mffc5b8a399" y="319.061667"/>
    </g>
   </g>
   <g id="PolyCollection_2">
    <defs>
     <path d="M 268.338756 -270.64725 
L 268.338756 -271.2745 
L 269.109479 -271.311325 
L 269.880201 -271.345453 
L 270.650924 -271.375754 
L 271.421647 -271.401439 
L 272.192369 -271.422238 
L 272.963092 -271.438594 
L 273.733815 -271.451841 
L 274.504537 -271.46437 
L 275.27526 -271.479747 
L 276.045983 -271.502786 
L 276.816706 -271.539556 
L 277.587428 -271.597303 
L 278.358151 -271.684286 
L 279.128874 -271.809491 
L 279.899596 -271.982234 
L 280.670319 -272.211618 
L 281.441042 -272.505868 
L 282.211764 -272.871571 
L 282.982487 -273.312879 
L 283.75321 -273.830776 
L 284.523932 -274.422519 
L 285.294655 -275.08138 
L 286.065378 -275.796775 
L 286.8361 -276.554819 
L 287.606823 -277.33926 
L 288.377546 -278.132672 
L 289.148268 -278.917715 
L 289.918991 -279.678236 
L 290.689714 -280.400034 
L 291.460436 -281.071179 
L 292.231159 -281.681884 
L 293.001882 -282.224068 
L 293.772604 -282.6908 
L 294.543327 -283.075864 
L 295.31405 -283.373633 
L 296.084772 -283.579348 
L 296.855495 -283.689755 
L 297.626218 -283.703958 
L 298.39694 -283.624255 
L 299.167663 -283.456687 
L 299.938386 -283.211118 
L 300.709108 -282.90073 
L 301.479831 -282.540955 
L 302.250554 -282.148005 
L 303.021276 -281.737231 
L 303.791999 -281.321625 
L 304.562722 -280.910709 
L 305.333445 -280.510032 
L 306.104167 -280.121323 
L 306.87489 -279.743255 
L 307.645613 -279.372633 
L 308.416335 -279.005745 
L 309.187058 -278.6396 
L 309.957781 -278.272826 
L 310.728503 -277.906072 
L 311.499226 -277.541911 
L 312.269949 -277.184298 
L 313.040671 -276.837777 
L 313.811394 -276.506618 
L 314.582117 -276.194083 
L 315.352839 -275.901972 
L 316.123562 -275.630501 
L 316.894285 -275.378531 
L 317.665007 -275.144047 
L 318.43573 -274.924779 
L 319.206453 -274.718811 
L 319.977175 -274.525044 
L 320.747898 -274.343417 
L 321.518621 -274.174844 
L 322.289343 -274.020891 
L 323.060066 -273.883264 
L 323.830789 -273.763235 
L 324.601511 -273.661127 
L 325.372234 -273.57597 
L 326.142957 -273.505413 
L 326.913679 -273.445882 
L 327.684402 -273.392971 
L 328.455125 -273.341976 
L 329.225847 -273.288458 
L 329.99657 -273.228753 
L 330.767293 -273.160323 
L 331.538015 -273.081929 
L 332.308738 -272.9936 
L 333.079461 -272.896451 
L 333.850183 -272.792383 
L 334.620906 -272.683753 
L 335.391629 -272.573046 
L 336.162352 -272.46261 
L 336.933074 -272.354455 
L 337.703797 -272.250134 
L 338.47452 -272.150677 
L 339.245242 -272.056586 
L 340.015965 -271.967871 
L 340.786688 -271.884121 
L 341.55741 -271.804625 
L 342.328133 -271.728516 
L 343.098856 -271.654944 
L 343.869578 -271.583245 
L 344.640301 -271.51308 
L 344.640301 -270.40867 
L 344.640301 -270.40867 
L 343.869578 -270.338505 
L 343.098856 -270.266806 
L 342.328133 -270.193234 
L 341.55741 -270.117125 
L 340.786688 -270.037629 
L 340.015965 -269.953879 
L 339.245242 -269.865164 
L 338.47452 -269.771073 
L 337.703797 -269.671616 
L 336.933074 -269.567295 
L 336.162352 -269.45914 
L 335.391629 -269.348704 
L 334.620906 -269.237997 
L 333.850183 -269.129367 
L 333.079461 -269.025299 
L 332.308738 -268.92815 
L 331.538015 -268.839821 
L 330.767293 -268.761427 
L 329.99657 -268.692997 
L 329.225847 -268.633292 
L 328.455125 -268.579774 
L 327.684402 -268.528779 
L 326.913679 -268.475868 
L 326.142957 -268.416337 
L 325.372234 -268.34578 
L 324.601511 -268.260623 
L 323.830789 -268.158515 
L 323.060066 -268.038486 
L 322.289343 -267.900859 
L 321.518621 -267.746906 
L 320.747898 -267.578333 
L 319.977175 -267.396706 
L 319.206453 -267.202939 
L 318.43573 -266.996971 
L 317.665007 -266.777703 
L 316.894285 -266.543219 
L 316.123562 -266.291249 
L 315.352839 -266.019778 
L 314.582117 -265.727667 
L 313.811394 -265.415132 
L 313.040671 -265.083973 
L 312.269949 -264.737452 
L 311.499226 -264.379839 
L 310.728503 -264.015678 
L 309.957781 -263.648924 
L 309.187058 -263.28215 
L 308.416335 -262.916005 
L 307.645613 -262.549117 
L 306.87489 -262.178495 
L 306.104167 -261.800427 
L 305.333445 -261.411718 
L 304.562722 -261.011041 
L 303.791999 -260.600125 
L 303.021276 -260.184519 
L 302.250554 -259.773745 
L 301.479831 -259.380795 
L 300.709108 -259.02102 
L 299.938386 -258.710632 
L 299.167663 -258.465063 
L 298.39694 -258.297495 
L 297.626218 -258.217792 
L 296.855495 -258.231995 
L 296.084772 -258.342402 
L 295.31405 -258.548117 
L 294.543327 -258.845886 
L 293.772604 -259.23095 
L 293.001882 -259.697682 
L 292.231159 -260.239866 
L 291.460436 -260.850571 
L 290.689714 -261.521716 
L 289.918991 -262.243514 
L 289.148268 -263.004035 
L 288.377546 -263.789078 
L 287.606823 -264.58249 
L 286.8361 -265.366931 
L 286.065378 -266.124975 
L 285.294655 -266.84037 
L 284.523932 -267.499231 
L 283.75321 -268.090974 
L 282.982487 -268.608871 
L 282.211764 -269.050179 
L 281.441042 -269.415882 
L 280.670319 -269.710132 
L 279.899596 -269.939516 
L 279.128874 -270.112259 
L 278.358151 -270.237464 
L 277.587428 -270.324447 
L 276.816706 -270.382194 
L 276.045983 -270.418964 
L 275.27526 -270.442003 
L 274.504537 -270.45738 
L 273.733815 -270.469909 
L 272.963092 -270.483156 
L 272.192369 -270.499512 
L 271.421647 -270.520311 
L 270.650924 -270.545996 
L 269.880201 -270.576297 
L 269.109479 -270.610425 
L 268.338756 -270.64725 
z
" id="m5569477301" style="stroke:#424242;"/>
    </defs>
    <g clip-path="url(#pe77af1509a)">
     <use style="fill:#be631d;stroke:#424242;" x="0" xlink:href="#m5569477301" y="319.061667"/>
    </g>
   </g>
   <g id="patch_86">
    <path clip-path="url(#pe77af1509a)" d="M 113.690778 35.357708 
L 113.690778 35.357708 
L 113.690778 35.357708 
L 113.690778 35.357708 
z
" style="fill:#7c78ab;stroke:#424242;stroke-linejoin:miter;stroke-width:0.5;"/>
   </g>
   <g id="patch_87">
    <path clip-path="url(#pe77af1509a)" d="M 113.690778 35.357708 
L 113.690778 35.357708 
L 113.690778 35.357708 
L 113.690778 35.357708 
z
" style="fill:#be631d;stroke:#424242;stroke-linejoin:miter;stroke-width:0.5;"/>
   </g>
   <g id="matplotlib.axis_3">
    <g id="xtick_5">
     <g id="line2d_10">
      <g>
       <use style="stroke:#000000;stroke-width:1.6;" x="113.690778" xlink:href="#m7c39f9d2da" y="258.361667"/>
      </g>
     </g>
     <g id="text_12">
      <!-- 0.0 -->
      <g transform="translate(97.787653 288.258542)scale(0.2 -0.2)">
       <use xlink:href="#DejaVuSans-48"/>
       <use x="63.623047" xlink:href="#DejaVuSans-46"/>
       <use x="95.410156" xlink:href="#DejaVuSans-48"/>
      </g>
     </g>
    </g>
    <g id="xtick_6">
     <g id="line2d_11">
      <g>
       <use style="stroke:#000000;stroke-width:1.6;" x="181.653889" xlink:href="#m7c39f9d2da" y="258.361667"/>
      </g>
     </g>
     <g id="text_13">
      <!-- 0.2 -->
      <g transform="translate(165.750764 288.258542)scale(0.2 -0.2)">
       <use xlink:href="#DejaVuSans-48"/>
       <use x="63.623047" xlink:href="#DejaVuSans-46"/>
       <use x="95.410156" xlink:href="#DejaVuSans-50"/>
      </g>
     </g>
    </g>
    <g id="xtick_7">
     <g id="line2d_12">
      <g>
       <use style="stroke:#000000;stroke-width:1.6;" x="249.617" xlink:href="#m7c39f9d2da" y="258.361667"/>
      </g>
     </g>
     <g id="text_14">
      <!-- 0.4 -->
      <g transform="translate(233.713875 288.258542)scale(0.2 -0.2)">
       <use xlink:href="#DejaVuSans-48"/>
       <use x="63.623047" xlink:href="#DejaVuSans-46"/>
       <use x="95.410156" xlink:href="#DejaVuSans-52"/>
      </g>
     </g>
    </g>
    <g id="xtick_8">
     <g id="line2d_13">
      <g>
       <use style="stroke:#000000;stroke-width:1.6;" x="317.580111" xlink:href="#m7c39f9d2da" y="258.361667"/>
      </g>
     </g>
     <g id="text_15">
      <!-- 0.6 -->
      <g transform="translate(301.676986 288.258542)scale(0.2 -0.2)">
       <use xlink:href="#DejaVuSans-48"/>
       <use x="63.623047" xlink:href="#DejaVuSans-46"/>
       <use x="95.410156" xlink:href="#DejaVuSans-54"/>
      </g>
     </g>
    </g>
    <g id="text_16">
     <!-- Max JS Divergence within $\epsilon$ -->
     <defs>
      <path d="M 9.8125 72.90625 
L 24.515625 72.90625 
L 43.109375 23.296875 
L 61.8125 72.90625 
L 76.515625 72.90625 
L 76.515625 0 
L 66.890625 0 
L 66.890625 64.015625 
L 48.09375 14.015625 
L 38.1875 14.015625 
L 19.390625 64.015625 
L 19.390625 0 
L 9.8125 0 
z
" id="DejaVuSans-77"/>
      <path d="M 34.28125 27.484375 
Q 23.390625 27.484375 19.1875 25 
Q 14.984375 22.515625 14.984375 16.5 
Q 14.984375 11.71875 18.140625 8.90625 
Q 21.296875 6.109375 26.703125 6.109375 
Q 34.1875 6.109375 38.703125 11.40625 
Q 43.21875 16.703125 43.21875 25.484375 
L 43.21875 27.484375 
z
M 52.203125 31.203125 
L 52.203125 0 
L 43.21875 0 
L 43.21875 8.296875 
Q 40.140625 3.328125 35.546875 0.953125 
Q 30.953125 -1.421875 24.3125 -1.421875 
Q 15.921875 -1.421875 10.953125 3.296875 
Q 6 8.015625 6 15.921875 
Q 6 25.140625 12.171875 29.828125 
Q 18.359375 34.515625 30.609375 34.515625 
L 43.21875 34.515625 
L 43.21875 35.40625 
Q 43.21875 41.609375 39.140625 45 
Q 35.0625 48.390625 27.6875 48.390625 
Q 23 48.390625 18.546875 47.265625 
Q 14.109375 46.140625 10.015625 43.890625 
L 10.015625 52.203125 
Q 14.9375 54.109375 19.578125 55.046875 
Q 24.21875 56 28.609375 56 
Q 40.484375 56 46.34375 49.84375 
Q 52.203125 43.703125 52.203125 31.203125 
z
" id="DejaVuSans-97"/>
      <path d="M 54.890625 54.6875 
L 35.109375 28.078125 
L 55.90625 0 
L 45.3125 0 
L 29.390625 21.484375 
L 13.484375 0 
L 2.875 0 
L 24.125 28.609375 
L 4.6875 54.6875 
L 15.28125 54.6875 
L 29.78125 35.203125 
L 44.28125 54.6875 
z
" id="DejaVuSans-120"/>
      <path d="M 9.8125 72.90625 
L 19.671875 72.90625 
L 19.671875 5.078125 
Q 19.671875 -8.109375 14.671875 -14.0625 
Q 9.671875 -20.015625 -1.421875 -20.015625 
L -5.171875 -20.015625 
L -5.171875 -11.71875 
L -2.09375 -11.71875 
Q 4.4375 -11.71875 7.125 -8.046875 
Q 9.8125 -4.390625 9.8125 5.078125 
z
" id="DejaVuSans-74"/>
      <path d="M 53.515625 70.515625 
L 53.515625 60.890625 
Q 47.90625 63.578125 42.921875 64.890625 
Q 37.9375 66.21875 33.296875 66.21875 
Q 25.25 66.21875 20.875 63.09375 
Q 16.5 59.96875 16.5 54.203125 
Q 16.5 49.359375 19.40625 46.890625 
Q 22.3125 44.4375 30.421875 42.921875 
L 36.375 41.703125 
Q 47.40625 39.59375 52.65625 34.296875 
Q 57.90625 29 57.90625 20.125 
Q 57.90625 9.515625 50.796875 4.046875 
Q 43.703125 -1.421875 29.984375 -1.421875 
Q 24.8125 -1.421875 18.96875 -0.25 
Q 13.140625 0.921875 6.890625 3.21875 
L 6.890625 13.375 
Q 12.890625 10.015625 18.65625 8.296875 
Q 24.421875 6.59375 29.984375 6.59375 
Q 38.421875 6.59375 43.015625 9.90625 
Q 47.609375 13.234375 47.609375 19.390625 
Q 47.609375 24.75 44.3125 27.78125 
Q 41.015625 30.8125 33.5 32.328125 
L 27.484375 33.5 
Q 16.453125 35.6875 11.515625 40.375 
Q 6.59375 45.0625 6.59375 53.421875 
Q 6.59375 63.09375 13.40625 68.65625 
Q 20.21875 74.21875 32.171875 74.21875 
Q 37.3125 74.21875 42.625 73.28125 
Q 47.953125 72.359375 53.515625 70.515625 
z
" id="DejaVuSans-83"/>
      <path d="M 19.671875 64.796875 
L 19.671875 8.109375 
L 31.59375 8.109375 
Q 46.6875 8.109375 53.6875 14.9375 
Q 60.6875 21.78125 60.6875 36.53125 
Q 60.6875 51.171875 53.6875 57.984375 
Q 46.6875 64.796875 31.59375 64.796875 
z
M 9.8125 72.90625 
L 30.078125 72.90625 
Q 51.265625 72.90625 61.171875 64.09375 
Q 71.09375 55.28125 71.09375 36.53125 
Q 71.09375 17.671875 61.125 8.828125 
Q 51.171875 0 30.078125 0 
L 9.8125 0 
z
" id="DejaVuSans-68"/>
      <path d="M 9.421875 54.6875 
L 18.40625 54.6875 
L 18.40625 0 
L 9.421875 0 
z
M 9.421875 75.984375 
L 18.40625 75.984375 
L 18.40625 64.59375 
L 9.421875 64.59375 
z
" id="DejaVuSans-105"/>
      <path d="M 2.984375 54.6875 
L 12.5 54.6875 
L 29.59375 8.796875 
L 46.6875 54.6875 
L 56.203125 54.6875 
L 35.6875 0 
L 23.484375 0 
z
" id="DejaVuSans-118"/>
      <path d="M 56.203125 29.59375 
L 56.203125 25.203125 
L 14.890625 25.203125 
Q 15.484375 15.921875 20.484375 11.0625 
Q 25.484375 6.203125 34.421875 6.203125 
Q 39.59375 6.203125 44.453125 7.46875 
Q 49.3125 8.734375 54.109375 11.28125 
L 54.109375 2.78125 
Q 49.265625 0.734375 44.1875 -0.34375 
Q 39.109375 -1.421875 33.890625 -1.421875 
Q 20.796875 -1.421875 13.15625 6.1875 
Q 5.515625 13.8125 5.515625 26.8125 
Q 5.515625 40.234375 12.765625 48.109375 
Q 20.015625 56 32.328125 56 
Q 43.359375 56 49.78125 48.890625 
Q 56.203125 41.796875 56.203125 29.59375 
z
M 47.21875 32.234375 
Q 47.125 39.59375 43.09375 43.984375 
Q 39.0625 48.390625 32.421875 48.390625 
Q 24.90625 48.390625 20.390625 44.140625 
Q 15.875 39.890625 15.1875 32.171875 
z
" id="DejaVuSans-101"/>
      <path d="M 41.109375 46.296875 
Q 39.59375 47.171875 37.8125 47.578125 
Q 36.03125 48 33.890625 48 
Q 26.265625 48 22.1875 43.046875 
Q 18.109375 38.09375 18.109375 28.8125 
L 18.109375 0 
L 9.078125 0 
L 9.078125 54.6875 
L 18.109375 54.6875 
L 18.109375 46.1875 
Q 20.953125 51.171875 25.484375 53.578125 
Q 30.03125 56 36.53125 56 
Q 37.453125 56 38.578125 55.875 
Q 39.703125 55.765625 41.0625 55.515625 
z
" id="DejaVuSans-114"/>
      <path d="M 45.40625 27.984375 
Q 45.40625 37.75 41.375 43.109375 
Q 37.359375 48.484375 30.078125 48.484375 
Q 22.859375 48.484375 18.828125 43.109375 
Q 14.796875 37.75 14.796875 27.984375 
Q 14.796875 18.265625 18.828125 12.890625 
Q 22.859375 7.515625 30.078125 7.515625 
Q 37.359375 7.515625 41.375 12.890625 
Q 45.40625 18.265625 45.40625 27.984375 
z
M 54.390625 6.78125 
Q 54.390625 -7.171875 48.1875 -13.984375 
Q 42 -20.796875 29.203125 -20.796875 
Q 24.46875 -20.796875 20.265625 -20.09375 
Q 16.0625 -19.390625 12.109375 -17.921875 
L 12.109375 -9.1875 
Q 16.0625 -11.328125 19.921875 -12.34375 
Q 23.78125 -13.375 27.78125 -13.375 
Q 36.625 -13.375 41.015625 -8.765625 
Q 45.40625 -4.15625 45.40625 5.171875 
L 45.40625 9.625 
Q 42.625 4.78125 38.28125 2.390625 
Q 33.9375 0 27.875 0 
Q 17.828125 0 11.671875 7.65625 
Q 5.515625 15.328125 5.515625 27.984375 
Q 5.515625 40.671875 11.671875 48.328125 
Q 17.828125 56 27.875 56 
Q 33.9375 56 38.28125 53.609375 
Q 42.625 51.21875 45.40625 46.390625 
L 45.40625 54.6875 
L 54.390625 54.6875 
z
" id="DejaVuSans-103"/>
      <path d="M 54.890625 33.015625 
L 54.890625 0 
L 45.90625 0 
L 45.90625 32.71875 
Q 45.90625 40.484375 42.875 44.328125 
Q 39.84375 48.1875 33.796875 48.1875 
Q 26.515625 48.1875 22.3125 43.546875 
Q 18.109375 38.921875 18.109375 30.90625 
L 18.109375 0 
L 9.078125 0 
L 9.078125 54.6875 
L 18.109375 54.6875 
L 18.109375 46.1875 
Q 21.34375 51.125 25.703125 53.5625 
Q 30.078125 56 35.796875 56 
Q 45.21875 56 50.046875 50.171875 
Q 54.890625 44.34375 54.890625 33.015625 
z
" id="DejaVuSans-110"/>
      <path d="M 48.78125 52.59375 
L 48.78125 44.1875 
Q 44.96875 46.296875 41.140625 47.34375 
Q 37.3125 48.390625 33.40625 48.390625 
Q 24.65625 48.390625 19.8125 42.84375 
Q 14.984375 37.3125 14.984375 27.296875 
Q 14.984375 17.28125 19.8125 11.734375 
Q 24.65625 6.203125 33.40625 6.203125 
Q 37.3125 6.203125 41.140625 7.25 
Q 44.96875 8.296875 48.78125 10.40625 
L 48.78125 2.09375 
Q 45.015625 0.34375 40.984375 -0.53125 
Q 36.96875 -1.421875 32.421875 -1.421875 
Q 20.0625 -1.421875 12.78125 6.34375 
Q 5.515625 14.109375 5.515625 27.296875 
Q 5.515625 40.671875 12.859375 48.328125 
Q 20.21875 56 33.015625 56 
Q 37.15625 56 41.109375 55.140625 
Q 45.0625 54.296875 48.78125 52.59375 
z
" id="DejaVuSans-99"/>
      <path d="M 4.203125 54.6875 
L 13.1875 54.6875 
L 24.421875 12.015625 
L 35.59375 54.6875 
L 46.1875 54.6875 
L 57.421875 12.015625 
L 68.609375 54.6875 
L 77.59375 54.6875 
L 63.28125 0 
L 52.6875 0 
L 40.921875 44.828125 
L 29.109375 0 
L 18.5 0 
z
" id="DejaVuSans-119"/>
      <path d="M 18.3125 70.21875 
L 18.3125 54.6875 
L 36.8125 54.6875 
L 36.8125 47.703125 
L 18.3125 47.703125 
L 18.3125 18.015625 
Q 18.3125 11.328125 20.140625 9.421875 
Q 21.96875 7.515625 27.59375 7.515625 
L 36.8125 7.515625 
L 36.8125 0 
L 27.59375 0 
Q 17.1875 0 13.234375 3.875 
Q 9.28125 7.765625 9.28125 18.015625 
L 9.28125 47.703125 
L 2.6875 47.703125 
L 2.6875 54.6875 
L 9.28125 54.6875 
L 9.28125 70.21875 
z
" id="DejaVuSans-116"/>
      <path d="M 54.890625 33.015625 
L 54.890625 0 
L 45.90625 0 
L 45.90625 32.71875 
Q 45.90625 40.484375 42.875 44.328125 
Q 39.84375 48.1875 33.796875 48.1875 
Q 26.515625 48.1875 22.3125 43.546875 
Q 18.109375 38.921875 18.109375 30.90625 
L 18.109375 0 
L 9.078125 0 
L 9.078125 75.984375 
L 18.109375 75.984375 
L 18.109375 46.1875 
Q 21.34375 51.125 25.703125 53.5625 
Q 30.078125 56 35.796875 56 
Q 45.21875 56 50.046875 50.171875 
Q 54.890625 44.34375 54.890625 33.015625 
z
" id="DejaVuSans-104"/>
      <path d="M 19.734375 29.5 
Q 14.453125 30.671875 12.15625 33.84375 
Q 10.453125 36.078125 10.453125 39.109375 
Q 10.453125 47.40625 18.359375 52.25 
Q 24.609375 56.0625 34.1875 56.0625 
Q 37.890625 56.0625 41.9375 55.46875 
Q 46 54.890625 50.53125 53.71875 
L 48.96875 45.5625 
Q 44.484375 46.96875 40.71875 47.609375 
Q 36.859375 48.25 33.40625 48.25 
Q 27.59375 48.25 23.78125 46 
Q 19.1875 43.3125 19.1875 39.40625 
Q 19.1875 36.8125 21.578125 35.015625 
Q 24.421875 32.859375 30.078125 32.859375 
L 37.640625 32.859375 
L 36.234375 25.4375 
L 29 25.4375 
Q 22.265625 25.4375 18.3125 22.953125 
Q 12.9375 19.578125 12.9375 14.3125 
Q 12.9375 10.984375 15.828125 8.796875 
Q 19.4375 6.0625 26.8125 6.0625 
Q 31.34375 6.0625 35.6875 6.9375 
Q 40.046875 7.859375 43.84375 9.671875 
L 42.1875 1.3125 
Q 37.546875 -0.046875 33.296875 -0.734375 
Q 29.046875 -1.421875 25.140625 -1.421875 
Q 13.53125 -1.421875 8.0625 3.03125 
Q 3.90625 6.453125 3.90625 12.203125 
Q 3.90625 19.96875 9.375 24.75 
Q 13.421875 28.328125 19.734375 29.5 
z
" id="DejaVuSans-Oblique-949"/>
     </defs>
     <g transform="translate(88.530833 311.617917)scale(0.2 -0.2)">
      <use transform="translate(0 0.015625)" xlink:href="#DejaVuSans-77"/>
      <use transform="translate(86.279297 0.015625)" xlink:href="#DejaVuSans-97"/>
      <use transform="translate(147.558594 0.015625)" xlink:href="#DejaVuSans-120"/>
      <use transform="translate(206.738281 0.015625)" xlink:href="#DejaVuSans-32"/>
      <use transform="translate(238.525391 0.015625)" xlink:href="#DejaVuSans-74"/>
      <use transform="translate(268.017578 0.015625)" xlink:href="#DejaVuSans-83"/>
      <use transform="translate(331.494141 0.015625)" xlink:href="#DejaVuSans-32"/>
      <use transform="translate(363.28125 0.015625)" xlink:href="#DejaVuSans-68"/>
      <use transform="translate(440.283203 0.015625)" xlink:href="#DejaVuSans-105"/>
      <use transform="translate(468.066406 0.015625)" xlink:href="#DejaVuSans-118"/>
      <use transform="translate(527.246094 0.015625)" xlink:href="#DejaVuSans-101"/>
      <use transform="translate(588.769531 0.015625)" xlink:href="#DejaVuSans-114"/>
      <use transform="translate(629.882812 0.015625)" xlink:href="#DejaVuSans-103"/>
      <use transform="translate(693.359375 0.015625)" xlink:href="#DejaVuSans-101"/>
      <use transform="translate(754.882812 0.015625)" xlink:href="#DejaVuSans-110"/>
      <use transform="translate(818.261719 0.015625)" xlink:href="#DejaVuSans-99"/>
      <use transform="translate(873.242188 0.015625)" xlink:href="#DejaVuSans-101"/>
      <use transform="translate(934.765625 0.015625)" xlink:href="#DejaVuSans-32"/>
      <use transform="translate(966.552734 0.015625)" xlink:href="#DejaVuSans-119"/>
      <use transform="translate(1048.339844 0.015625)" xlink:href="#DejaVuSans-105"/>
      <use transform="translate(1076.123047 0.015625)" xlink:href="#DejaVuSans-116"/>
      <use transform="translate(1115.332031 0.015625)" xlink:href="#DejaVuSans-104"/>
      <use transform="translate(1178.710938 0.015625)" xlink:href="#DejaVuSans-105"/>
      <use transform="translate(1206.494141 0.015625)" xlink:href="#DejaVuSans-110"/>
      <use transform="translate(1269.873047 0.015625)" xlink:href="#DejaVuSans-32"/>
      <use transform="translate(1301.660156 0.015625)" xlink:href="#DejaVuSans-Oblique-949"/>
     </g>
    </g>
   </g>
   <g id="matplotlib.axis_4">
    <g id="ytick_6">
     <g id="line2d_14">
      <g>
       <use style="stroke:#000000;stroke-width:1.6;" x="96.7" xlink:href="#m351ca8a7ae" y="35.357708"/>
      </g>
     </g>
     <g id="text_17">
      <!-- [0.00, -->
      <defs>
       <path d="M 8.59375 75.984375 
L 29.296875 75.984375 
L 29.296875 69 
L 17.578125 69 
L 17.578125 -6.203125 
L 29.296875 -6.203125 
L 29.296875 -13.1875 
L 8.59375 -13.1875 
z
" id="DejaVuSans-91"/>
       <path d="M 11.71875 12.40625 
L 22.015625 12.40625 
L 22.015625 4 
L 14.015625 -11.625 
L 7.71875 -11.625 
L 11.71875 4 
z
" id="DejaVuSans-44"/>
      </defs>
      <g transform="translate(23.309375 31.758333)scale(0.2 -0.2)">
       <use xlink:href="#DejaVuSans-91"/>
       <use x="39.013672" xlink:href="#DejaVuSans-48"/>
       <use x="102.636719" xlink:href="#DejaVuSans-46"/>
       <use x="134.423828" xlink:href="#DejaVuSans-48"/>
       <use x="198.046875" xlink:href="#DejaVuSans-48"/>
       <use x="261.669922" xlink:href="#DejaVuSans-44"/>
      </g>
      <!-- 0.25) -->
      <defs>
       <path d="M 8.015625 75.875 
L 15.828125 75.875 
Q 23.140625 64.359375 26.78125 53.3125 
Q 30.421875 42.28125 30.421875 31.390625 
Q 30.421875 20.453125 26.78125 9.375 
Q 23.140625 -1.703125 15.828125 -13.1875 
L 8.015625 -13.1875 
Q 14.5 -2 17.703125 9.0625 
Q 20.90625 20.125 20.90625 31.390625 
Q 20.90625 42.671875 17.703125 53.65625 
Q 14.5 64.65625 8.015625 75.875 
z
" id="DejaVuSans-41"/>
      </defs>
      <g transform="translate(29.665625 54.153958)scale(0.2 -0.2)">
       <use xlink:href="#DejaVuSans-48"/>
       <use x="63.623047" xlink:href="#DejaVuSans-46"/>
       <use x="95.410156" xlink:href="#DejaVuSans-50"/>
       <use x="159.033203" xlink:href="#DejaVuSans-53"/>
       <use x="222.65625" xlink:href="#DejaVuSans-41"/>
      </g>
     </g>
    </g>
    <g id="ytick_7">
     <g id="line2d_15">
      <g>
       <use style="stroke:#000000;stroke-width:1.6;" x="96.7" xlink:href="#m351ca8a7ae" y="99.073125"/>
      </g>
     </g>
     <g id="text_18">
      <!-- [0.25, -->
      <g transform="translate(23.309375 95.47375)scale(0.2 -0.2)">
       <use xlink:href="#DejaVuSans-91"/>
       <use x="39.013672" xlink:href="#DejaVuSans-48"/>
       <use x="102.636719" xlink:href="#DejaVuSans-46"/>
       <use x="134.423828" xlink:href="#DejaVuSans-50"/>
       <use x="198.046875" xlink:href="#DejaVuSans-53"/>
       <use x="261.669922" xlink:href="#DejaVuSans-44"/>
      </g>
      <!-- 0.50) -->
      <g transform="translate(29.665625 117.869375)scale(0.2 -0.2)">
       <use xlink:href="#DejaVuSans-48"/>
       <use x="63.623047" xlink:href="#DejaVuSans-46"/>
       <use x="95.410156" xlink:href="#DejaVuSans-53"/>
       <use x="159.033203" xlink:href="#DejaVuSans-48"/>
       <use x="222.65625" xlink:href="#DejaVuSans-41"/>
      </g>
     </g>
    </g>
    <g id="ytick_8">
     <g id="line2d_16">
      <g>
       <use style="stroke:#000000;stroke-width:1.6;" x="96.7" xlink:href="#m351ca8a7ae" y="162.788542"/>
      </g>
     </g>
     <g id="text_19">
      <!-- [0.50, -->
      <g transform="translate(23.309375 159.189167)scale(0.2 -0.2)">
       <use xlink:href="#DejaVuSans-91"/>
       <use x="39.013672" xlink:href="#DejaVuSans-48"/>
       <use x="102.636719" xlink:href="#DejaVuSans-46"/>
       <use x="134.423828" xlink:href="#DejaVuSans-53"/>
       <use x="198.046875" xlink:href="#DejaVuSans-48"/>
       <use x="261.669922" xlink:href="#DejaVuSans-44"/>
      </g>
      <!-- 0.75) -->
      <defs>
       <path d="M 8.203125 72.90625 
L 55.078125 72.90625 
L 55.078125 68.703125 
L 28.609375 0 
L 18.3125 0 
L 43.21875 64.59375 
L 8.203125 64.59375 
z
" id="DejaVuSans-55"/>
      </defs>
      <g transform="translate(29.665625 181.584792)scale(0.2 -0.2)">
       <use xlink:href="#DejaVuSans-48"/>
       <use x="63.623047" xlink:href="#DejaVuSans-46"/>
       <use x="95.410156" xlink:href="#DejaVuSans-55"/>
       <use x="159.033203" xlink:href="#DejaVuSans-53"/>
       <use x="222.65625" xlink:href="#DejaVuSans-41"/>
      </g>
     </g>
    </g>
    <g id="ytick_9">
     <g id="line2d_17">
      <g>
       <use style="stroke:#000000;stroke-width:1.6;" x="96.7" xlink:href="#m351ca8a7ae" y="226.503958"/>
      </g>
     </g>
     <g id="text_20">
      <!-- [0.75, -->
      <g transform="translate(23.309375 222.904583)scale(0.2 -0.2)">
       <use xlink:href="#DejaVuSans-91"/>
       <use x="39.013672" xlink:href="#DejaVuSans-48"/>
       <use x="102.636719" xlink:href="#DejaVuSans-46"/>
       <use x="134.423828" xlink:href="#DejaVuSans-55"/>
       <use x="198.046875" xlink:href="#DejaVuSans-53"/>
       <use x="261.669922" xlink:href="#DejaVuSans-44"/>
      </g>
      <!-- 1.00) -->
      <g transform="translate(29.665625 245.300208)scale(0.2 -0.2)">
       <use xlink:href="#DejaVuSans-49"/>
       <use x="63.623047" xlink:href="#DejaVuSans-46"/>
       <use x="95.410156" xlink:href="#DejaVuSans-48"/>
       <use x="159.033203" xlink:href="#DejaVuSans-48"/>
       <use x="222.65625" xlink:href="#DejaVuSans-41"/>
      </g>
     </g>
    </g>
    <g id="text_21">
     <!-- Max Attention -->
     <defs>
      <path d="M 34.1875 63.1875 
L 20.796875 26.90625 
L 47.609375 26.90625 
z
M 28.609375 72.90625 
L 39.796875 72.90625 
L 67.578125 0 
L 57.328125 0 
L 50.6875 18.703125 
L 17.828125 18.703125 
L 11.1875 0 
L 0.78125 0 
z
" id="DejaVuSans-65"/>
      <path d="M 30.609375 48.390625 
Q 23.390625 48.390625 19.1875 42.75 
Q 14.984375 37.109375 14.984375 27.296875 
Q 14.984375 17.484375 19.15625 11.84375 
Q 23.34375 6.203125 30.609375 6.203125 
Q 37.796875 6.203125 41.984375 11.859375 
Q 46.1875 17.53125 46.1875 27.296875 
Q 46.1875 37.015625 41.984375 42.703125 
Q 37.796875 48.390625 30.609375 48.390625 
z
M 30.609375 56 
Q 42.328125 56 49.015625 48.375 
Q 55.71875 40.765625 55.71875 27.296875 
Q 55.71875 13.875 49.015625 6.21875 
Q 42.328125 -1.421875 30.609375 -1.421875 
Q 18.84375 -1.421875 12.171875 6.21875 
Q 5.515625 13.875 5.515625 27.296875 
Q 5.515625 40.765625 12.171875 48.375 
Q 18.84375 56 30.609375 56 
z
" id="DejaVuSans-111"/>
     </defs>
     <g transform="translate(15.15 201.108958)rotate(-90)scale(0.2 -0.2)">
      <use xlink:href="#DejaVuSans-77"/>
      <use x="86.279297" xlink:href="#DejaVuSans-97"/>
      <use x="147.558594" xlink:href="#DejaVuSans-120"/>
      <use x="206.738281" xlink:href="#DejaVuSans-32"/>
      <use x="238.525391" xlink:href="#DejaVuSans-65"/>
      <use x="306.917969" xlink:href="#DejaVuSans-116"/>
      <use x="346.126953" xlink:href="#DejaVuSans-116"/>
      <use x="385.335938" xlink:href="#DejaVuSans-101"/>
      <use x="446.859375" xlink:href="#DejaVuSans-110"/>
      <use x="510.238281" xlink:href="#DejaVuSans-116"/>
      <use x="549.447266" xlink:href="#DejaVuSans-105"/>
      <use x="577.230469" xlink:href="#DejaVuSans-111"/>
      <use x="638.412109" xlink:href="#DejaVuSans-110"/>
     </g>
    </g>
   </g>
   <g id="line2d_18">
    <path clip-path="url(#pe77af1509a)" d="M 300.267487 14.046252 
L 300.267487 31.182998 
" style="fill:none;stroke:#424242;stroke-dasharray:1.5,1.5;stroke-dashoffset:0;"/>
   </g>
   <g id="line2d_19">
    <path clip-path="url(#pe77af1509a)" d="M 311.16376 16.311087 
L 311.16376 28.918163 
" style="fill:none;stroke:#424242;stroke-dasharray:3,3;stroke-dashoffset:0;"/>
   </g>
   <g id="line2d_20">
    <path clip-path="url(#pe77af1509a)" d="M 334.632551 16.049701 
L 334.632551 29.179549 
" style="fill:none;stroke:#424242;stroke-dasharray:1.5,1.5;stroke-dashoffset:0;"/>
   </g>
   <g id="line2d_21">
    <path clip-path="url(#pe77af1509a)" d="M 294.405258 36.106953 
L 294.405258 60.094631 
" style="fill:none;stroke:#424242;stroke-dasharray:1.5,1.5;stroke-dashoffset:0;"/>
   </g>
   <g id="line2d_22">
    <path clip-path="url(#pe77af1509a)" d="M 300.668837 36.280336 
L 300.668837 59.921248 
" style="fill:none;stroke:#424242;stroke-dasharray:3,3;stroke-dashoffset:0;"/>
   </g>
   <g id="line2d_23">
    <path clip-path="url(#pe77af1509a)" d="M 310.667791 41.225046 
L 310.667791 54.976537 
" style="fill:none;stroke:#424242;stroke-dasharray:1.5,1.5;stroke-dashoffset:0;"/>
   </g>
   <g id="patch_88">
    <path d="M 96.7 258.361667 
L 96.7 3.5 
" style="fill:none;stroke:#000000;stroke-linecap:square;stroke-linejoin:miter;stroke-width:0.8;"/>
   </g>
   <g id="patch_89">
    <path d="M 96.7 258.361667 
L 351.561667 258.361667 
" style="fill:none;stroke:#000000;stroke-linecap:square;stroke-linejoin:miter;stroke-width:0.8;"/>
   </g>
  </g>
 </g>
 <defs>
  <clipPath id="p5364539f83">
   <rect height="254.861667" width="254.861667" x="-269.521667" y="3.5"/>
  </clipPath>
  <clipPath id="pe77af1509a">
   <rect height="254.861667" width="254.861667" x="96.7" y="3.5"/>
  </clipPath>
 </defs>
</svg>
