<?xml version="1.0" encoding="utf-8" standalone="no"?>
<!DOCTYPE svg PUBLIC "-//W3C//DTD SVG 1.1//EN"
  "http://www.w3.org/Graphics/SVG/1.1/DTD/svg11.dtd">
<!-- Created with matplotlib (https://matplotlib.org/) -->
<svg height="329.141667pt" version="1.1" viewBox="0 0 365.391536 329.141667" width="365.391536pt" xmlns="http://www.w3.org/2000/svg" xmlns:xlink="http://www.w3.org/1999/xlink">
 <defs>
  <style type="text/css">
*{stroke-linecap:butt;stroke-linejoin:round;}
  </style>
 </defs>
 <g id="figure_1">
  <g id="patch_1">
   <path d="M 0 329.141667 
L 365.391536 329.141667 
L 365.391536 -0 
L 0 -0 
z
" style="fill:#ffffff;"/>
  </g>
  <g id="axes_1">
   <g id="patch_2">
    <path d="M -272.041667 268.441667 
L -7.1 268.441667 
L -7.1 3.5 
L -272.041667 3.5 
z
" style="fill:#ffffff;"/>
   </g>
   <g id="patch_3">
    <path clip-path="url(#p8245403594)" d="M -259.998864 268.441667 
L -253.977462 268.441667 
L -253.977462 268.441667 
L -259.998864 268.441667 
z
" style="fill:#7570b3;opacity:0.6;stroke:#000000;stroke-linejoin:miter;stroke-width:0.5;"/>
   </g>
   <g id="patch_4">
    <path clip-path="url(#p8245403594)" d="M -253.977462 268.441667 
L -247.956061 268.441667 
L -247.956061 268.441667 
L -253.977462 268.441667 
z
" style="fill:#7570b3;opacity:0.6;stroke:#000000;stroke-linejoin:miter;stroke-width:0.5;"/>
   </g>
   <g id="patch_5">
    <path clip-path="url(#p8245403594)" d="M -247.956061 268.441667 
L -241.934659 268.441667 
L -241.934659 268.441667 
L -247.956061 268.441667 
z
" style="fill:#7570b3;opacity:0.6;stroke:#000000;stroke-linejoin:miter;stroke-width:0.5;"/>
   </g>
   <g id="patch_6">
    <path clip-path="url(#p8245403594)" d="M -241.934659 268.441667 
L -235.913258 268.441667 
L -235.913258 268.441667 
L -241.934659 268.441667 
z
" style="fill:#7570b3;opacity:0.6;stroke:#000000;stroke-linejoin:miter;stroke-width:0.5;"/>
   </g>
   <g id="patch_7">
    <path clip-path="url(#p8245403594)" d="M -235.913258 268.441667 
L -229.891856 268.441667 
L -229.891856 268.441667 
L -235.913258 268.441667 
z
" style="fill:#7570b3;opacity:0.6;stroke:#000000;stroke-linejoin:miter;stroke-width:0.5;"/>
   </g>
   <g id="patch_8">
    <path clip-path="url(#p8245403594)" d="M -229.891856 268.441667 
L -223.870455 268.441667 
L -223.870455 268.441667 
L -229.891856 268.441667 
z
" style="fill:#7570b3;opacity:0.6;stroke:#000000;stroke-linejoin:miter;stroke-width:0.5;"/>
   </g>
   <g id="patch_9">
    <path clip-path="url(#p8245403594)" d="M -223.870455 268.441667 
L -217.849053 268.441667 
L -217.849053 268.441667 
L -223.870455 268.441667 
z
" style="fill:#7570b3;opacity:0.6;stroke:#000000;stroke-linejoin:miter;stroke-width:0.5;"/>
   </g>
   <g id="patch_10">
    <path clip-path="url(#p8245403594)" d="M -217.849053 268.441667 
L -211.827652 268.441667 
L -211.827652 268.441667 
L -217.849053 268.441667 
z
" style="fill:#7570b3;opacity:0.6;stroke:#000000;stroke-linejoin:miter;stroke-width:0.5;"/>
   </g>
   <g id="patch_11">
    <path clip-path="url(#p8245403594)" d="M -211.827652 268.441667 
L -205.80625 268.441667 
L -205.80625 268.441667 
L -211.827652 268.441667 
z
" style="fill:#7570b3;opacity:0.6;stroke:#000000;stroke-linejoin:miter;stroke-width:0.5;"/>
   </g>
   <g id="patch_12">
    <path clip-path="url(#p8245403594)" d="M -205.80625 268.441667 
L -199.784848 268.441667 
L -199.784848 268.441667 
L -205.80625 268.441667 
z
" style="fill:#7570b3;opacity:0.6;stroke:#000000;stroke-linejoin:miter;stroke-width:0.5;"/>
   </g>
   <g id="patch_13">
    <path clip-path="url(#p8245403594)" d="M -199.784848 268.441667 
L -193.763447 268.441667 
L -193.763447 268.441667 
L -199.784848 268.441667 
z
" style="fill:#7570b3;opacity:0.6;stroke:#000000;stroke-linejoin:miter;stroke-width:0.5;"/>
   </g>
   <g id="patch_14">
    <path clip-path="url(#p8245403594)" d="M -193.763447 268.441667 
L -187.742045 268.441667 
L -187.742045 268.441667 
L -193.763447 268.441667 
z
" style="fill:#7570b3;opacity:0.6;stroke:#000000;stroke-linejoin:miter;stroke-width:0.5;"/>
   </g>
   <g id="patch_15">
    <path clip-path="url(#p8245403594)" d="M -187.742045 268.441667 
L -181.720644 268.441667 
L -181.720644 268.441667 
L -187.742045 268.441667 
z
" style="fill:#7570b3;opacity:0.6;stroke:#000000;stroke-linejoin:miter;stroke-width:0.5;"/>
   </g>
   <g id="patch_16">
    <path clip-path="url(#p8245403594)" d="M -181.720644 268.441667 
L -175.699242 268.441667 
L -175.699242 268.441667 
L -181.720644 268.441667 
z
" style="fill:#7570b3;opacity:0.6;stroke:#000000;stroke-linejoin:miter;stroke-width:0.5;"/>
   </g>
   <g id="patch_17">
    <path clip-path="url(#p8245403594)" d="M -175.699242 268.441667 
L -169.677841 268.441667 
L -169.677841 268.441667 
L -175.699242 268.441667 
z
" style="fill:#7570b3;opacity:0.6;stroke:#000000;stroke-linejoin:miter;stroke-width:0.5;"/>
   </g>
   <g id="patch_18">
    <path clip-path="url(#p8245403594)" d="M -169.677841 268.441667 
L -163.656439 268.441667 
L -163.656439 268.441667 
L -169.677841 268.441667 
z
" style="fill:#7570b3;opacity:0.6;stroke:#000000;stroke-linejoin:miter;stroke-width:0.5;"/>
   </g>
   <g id="patch_19">
    <path clip-path="url(#p8245403594)" d="M -163.656439 268.441667 
L -157.635038 268.441667 
L -157.635038 268.441667 
L -163.656439 268.441667 
z
" style="fill:#7570b3;opacity:0.6;stroke:#000000;stroke-linejoin:miter;stroke-width:0.5;"/>
   </g>
   <g id="patch_20">
    <path clip-path="url(#p8245403594)" d="M -157.635038 268.441667 
L -151.613636 268.441667 
L -151.613636 268.441667 
L -157.635038 268.441667 
z
" style="fill:#7570b3;opacity:0.6;stroke:#000000;stroke-linejoin:miter;stroke-width:0.5;"/>
   </g>
   <g id="patch_21">
    <path clip-path="url(#p8245403594)" d="M -151.613636 268.441667 
L -145.592235 268.441667 
L -145.592235 268.441667 
L -151.613636 268.441667 
z
" style="fill:#7570b3;opacity:0.6;stroke:#000000;stroke-linejoin:miter;stroke-width:0.5;"/>
   </g>
   <g id="patch_22">
    <path clip-path="url(#p8245403594)" d="M -145.592235 268.441667 
L -139.570833 268.441667 
L -139.570833 268.441667 
L -145.592235 268.441667 
z
" style="fill:#7570b3;opacity:0.6;stroke:#000000;stroke-linejoin:miter;stroke-width:0.5;"/>
   </g>
   <g id="patch_23">
    <path clip-path="url(#p8245403594)" d="M -139.570833 268.441667 
L -133.549432 268.441667 
L -133.549432 268.441667 
L -139.570833 268.441667 
z
" style="fill:#7570b3;opacity:0.6;stroke:#000000;stroke-linejoin:miter;stroke-width:0.5;"/>
   </g>
   <g id="patch_24">
    <path clip-path="url(#p8245403594)" d="M -133.549432 268.441667 
L -127.52803 268.441667 
L -127.52803 268.441667 
L -133.549432 268.441667 
z
" style="fill:#7570b3;opacity:0.6;stroke:#000000;stroke-linejoin:miter;stroke-width:0.5;"/>
   </g>
   <g id="patch_25">
    <path clip-path="url(#p8245403594)" d="M -127.52803 268.441667 
L -121.506629 268.441667 
L -121.506629 268.441667 
L -127.52803 268.441667 
z
" style="fill:#7570b3;opacity:0.6;stroke:#000000;stroke-linejoin:miter;stroke-width:0.5;"/>
   </g>
   <g id="patch_26">
    <path clip-path="url(#p8245403594)" d="M -121.506629 268.441667 
L -115.485227 268.441667 
L -115.485227 267.853945 
L -121.506629 267.853945 
z
" style="fill:#7570b3;opacity:0.6;stroke:#000000;stroke-linejoin:miter;stroke-width:0.5;"/>
   </g>
   <g id="patch_27">
    <path clip-path="url(#p8245403594)" d="M -115.485227 268.441667 
L -109.463826 268.441667 
L -109.463826 268.441667 
L -115.485227 268.441667 
z
" style="fill:#7570b3;opacity:0.6;stroke:#000000;stroke-linejoin:miter;stroke-width:0.5;"/>
   </g>
   <g id="patch_28">
    <path clip-path="url(#p8245403594)" d="M -109.463826 268.441667 
L -103.442424 268.441667 
L -103.442424 268.441667 
L -109.463826 268.441667 
z
" style="fill:#7570b3;opacity:0.6;stroke:#000000;stroke-linejoin:miter;stroke-width:0.5;"/>
   </g>
   <g id="patch_29">
    <path clip-path="url(#p8245403594)" d="M -103.442424 268.441667 
L -97.421023 268.441667 
L -97.421023 267.266222 
L -103.442424 267.266222 
z
" style="fill:#7570b3;opacity:0.6;stroke:#000000;stroke-linejoin:miter;stroke-width:0.5;"/>
   </g>
   <g id="patch_30">
    <path clip-path="url(#p8245403594)" d="M -97.421023 268.441667 
L -91.399621 268.441667 
L -91.399621 265.503056 
L -97.421023 265.503056 
z
" style="fill:#7570b3;opacity:0.6;stroke:#000000;stroke-linejoin:miter;stroke-width:0.5;"/>
   </g>
   <g id="patch_31">
    <path clip-path="url(#p8245403594)" d="M -91.399621 268.441667 
L -85.37822 268.441667 
L -85.37822 259.625834 
L -91.399621 259.625834 
z
" style="fill:#7570b3;opacity:0.6;stroke:#000000;stroke-linejoin:miter;stroke-width:0.5;"/>
   </g>
   <g id="patch_32">
    <path clip-path="url(#p8245403594)" d="M -85.37822 268.441667 
L -79.356818 268.441667 
L -79.356818 239.643281 
L -85.37822 239.643281 
z
" style="fill:#7570b3;opacity:0.6;stroke:#000000;stroke-linejoin:miter;stroke-width:0.5;"/>
   </g>
   <g id="patch_33">
    <path clip-path="url(#p8245403594)" d="M -79.356818 268.441667 
L -73.335417 268.441667 
L -73.335417 191.450065 
L -79.356818 191.450065 
z
" style="fill:#7570b3;opacity:0.6;stroke:#000000;stroke-linejoin:miter;stroke-width:0.5;"/>
   </g>
   <g id="patch_34">
    <path clip-path="url(#p8245403594)" d="M -73.335417 268.441667 
L -67.314015 268.441667 
L -67.314015 139.730515 
L -73.335417 139.730515 
z
" style="fill:#7570b3;opacity:0.6;stroke:#000000;stroke-linejoin:miter;stroke-width:0.5;"/>
   </g>
   <g id="patch_35">
    <path clip-path="url(#p8245403594)" d="M -67.314015 268.441667 
L -61.292614 268.441667 
L -61.292614 78.019689 
L -67.314015 78.019689 
z
" style="fill:#7570b3;opacity:0.6;stroke:#000000;stroke-linejoin:miter;stroke-width:0.5;"/>
   </g>
   <g id="patch_36">
    <path clip-path="url(#p8245403594)" d="M -61.292614 268.441667 
L -55.271212 268.441667 
L -55.271212 39.817749 
L -61.292614 39.817749 
z
" style="fill:#7570b3;opacity:0.6;stroke:#000000;stroke-linejoin:miter;stroke-width:0.5;"/>
   </g>
   <g id="patch_37">
    <path clip-path="url(#p8245403594)" d="M -55.271212 268.441667 
L -49.249811 268.441667 
L -49.249811 62.738913 
L -55.271212 62.738913 
z
" style="fill:#7570b3;opacity:0.6;stroke:#000000;stroke-linejoin:miter;stroke-width:0.5;"/>
   </g>
   <g id="patch_38">
    <path clip-path="url(#p8245403594)" d="M -49.249811 268.441667 
L -43.228409 268.441667 
L -43.228409 129.151516 
L -49.249811 129.151516 
z
" style="fill:#7570b3;opacity:0.6;stroke:#000000;stroke-linejoin:miter;stroke-width:0.5;"/>
   </g>
   <g id="patch_39">
    <path clip-path="url(#p8245403594)" d="M -43.228409 268.441667 
L -37.207008 268.441667 
L -37.207008 187.336009 
L -43.228409 187.336009 
z
" style="fill:#7570b3;opacity:0.6;stroke:#000000;stroke-linejoin:miter;stroke-width:0.5;"/>
   </g>
   <g id="patch_40">
    <path clip-path="url(#p8245403594)" d="M -37.207008 268.441667 
L -31.185606 268.441667 
L -31.185606 223.774783 
L -37.207008 223.774783 
z
" style="fill:#7570b3;opacity:0.6;stroke:#000000;stroke-linejoin:miter;stroke-width:0.5;"/>
   </g>
   <g id="patch_41">
    <path clip-path="url(#p8245403594)" d="M -31.185606 268.441667 
L -25.164205 268.441667 
L -25.164205 199.678175 
L -31.185606 199.678175 
z
" style="fill:#7570b3;opacity:0.6;stroke:#000000;stroke-linejoin:miter;stroke-width:0.5;"/>
   </g>
   <g id="patch_42">
    <path clip-path="url(#p8245403594)" d="M -25.164205 268.441667 
L -19.142803 268.441667 
L -19.142803 234.941504 
L -25.164205 234.941504 
z
" style="fill:#7570b3;opacity:0.6;stroke:#000000;stroke-linejoin:miter;stroke-width:0.5;"/>
   </g>
   <g id="patch_43">
    <path clip-path="url(#p8245403594)" d="M -259.998864 268.441667 
L -253.977462 268.441667 
L -253.977462 268.441667 
L -259.998864 268.441667 
z
" style="fill:#d95f02;opacity:0.6;stroke:#000000;stroke-linejoin:miter;stroke-width:0.5;"/>
   </g>
   <g id="patch_44">
    <path clip-path="url(#p8245403594)" d="M -253.977462 268.441667 
L -247.956061 268.441667 
L -247.956061 268.441667 
L -253.977462 268.441667 
z
" style="fill:#d95f02;opacity:0.6;stroke:#000000;stroke-linejoin:miter;stroke-width:0.5;"/>
   </g>
   <g id="patch_45">
    <path clip-path="url(#p8245403594)" d="M -247.956061 268.441667 
L -241.934659 268.441667 
L -241.934659 268.441667 
L -247.956061 268.441667 
z
" style="fill:#d95f02;opacity:0.6;stroke:#000000;stroke-linejoin:miter;stroke-width:0.5;"/>
   </g>
   <g id="patch_46">
    <path clip-path="url(#p8245403594)" d="M -241.934659 268.441667 
L -235.913258 268.441667 
L -235.913258 268.441667 
L -241.934659 268.441667 
z
" style="fill:#d95f02;opacity:0.6;stroke:#000000;stroke-linejoin:miter;stroke-width:0.5;"/>
   </g>
   <g id="patch_47">
    <path clip-path="url(#p8245403594)" d="M -235.913258 268.441667 
L -229.891856 268.441667 
L -229.891856 268.441667 
L -235.913258 268.441667 
z
" style="fill:#d95f02;opacity:0.6;stroke:#000000;stroke-linejoin:miter;stroke-width:0.5;"/>
   </g>
   <g id="patch_48">
    <path clip-path="url(#p8245403594)" d="M -229.891856 268.441667 
L -223.870455 268.441667 
L -223.870455 268.441667 
L -229.891856 268.441667 
z
" style="fill:#d95f02;opacity:0.6;stroke:#000000;stroke-linejoin:miter;stroke-width:0.5;"/>
   </g>
   <g id="patch_49">
    <path clip-path="url(#p8245403594)" d="M -223.870455 268.441667 
L -217.849053 268.441667 
L -217.849053 268.441667 
L -223.870455 268.441667 
z
" style="fill:#d95f02;opacity:0.6;stroke:#000000;stroke-linejoin:miter;stroke-width:0.5;"/>
   </g>
   <g id="patch_50">
    <path clip-path="url(#p8245403594)" d="M -217.849053 268.441667 
L -211.827652 268.441667 
L -211.827652 268.441667 
L -217.849053 268.441667 
z
" style="fill:#d95f02;opacity:0.6;stroke:#000000;stroke-linejoin:miter;stroke-width:0.5;"/>
   </g>
   <g id="patch_51">
    <path clip-path="url(#p8245403594)" d="M -211.827652 268.441667 
L -205.80625 268.441667 
L -205.80625 268.441667 
L -211.827652 268.441667 
z
" style="fill:#d95f02;opacity:0.6;stroke:#000000;stroke-linejoin:miter;stroke-width:0.5;"/>
   </g>
   <g id="patch_52">
    <path clip-path="url(#p8245403594)" d="M -205.80625 268.441667 
L -199.784848 268.441667 
L -199.784848 268.441667 
L -205.80625 268.441667 
z
" style="fill:#d95f02;opacity:0.6;stroke:#000000;stroke-linejoin:miter;stroke-width:0.5;"/>
   </g>
   <g id="patch_53">
    <path clip-path="url(#p8245403594)" d="M -199.784848 268.441667 
L -193.763447 268.441667 
L -193.763447 268.441667 
L -199.784848 268.441667 
z
" style="fill:#d95f02;opacity:0.6;stroke:#000000;stroke-linejoin:miter;stroke-width:0.5;"/>
   </g>
   <g id="patch_54">
    <path clip-path="url(#p8245403594)" d="M -193.763447 268.441667 
L -187.742045 268.441667 
L -187.742045 268.441667 
L -193.763447 268.441667 
z
" style="fill:#d95f02;opacity:0.6;stroke:#000000;stroke-linejoin:miter;stroke-width:0.5;"/>
   </g>
   <g id="patch_55">
    <path clip-path="url(#p8245403594)" d="M -187.742045 268.441667 
L -181.720644 268.441667 
L -181.720644 268.441667 
L -187.742045 268.441667 
z
" style="fill:#d95f02;opacity:0.6;stroke:#000000;stroke-linejoin:miter;stroke-width:0.5;"/>
   </g>
   <g id="patch_56">
    <path clip-path="url(#p8245403594)" d="M -181.720644 268.441667 
L -175.699242 268.441667 
L -175.699242 268.441667 
L -181.720644 268.441667 
z
" style="fill:#d95f02;opacity:0.6;stroke:#000000;stroke-linejoin:miter;stroke-width:0.5;"/>
   </g>
   <g id="patch_57">
    <path clip-path="url(#p8245403594)" d="M -175.699242 268.441667 
L -169.677841 268.441667 
L -169.677841 268.441667 
L -175.699242 268.441667 
z
" style="fill:#d95f02;opacity:0.6;stroke:#000000;stroke-linejoin:miter;stroke-width:0.5;"/>
   </g>
   <g id="patch_58">
    <path clip-path="url(#p8245403594)" d="M -169.677841 268.441667 
L -163.656439 268.441667 
L -163.656439 268.441667 
L -169.677841 268.441667 
z
" style="fill:#d95f02;opacity:0.6;stroke:#000000;stroke-linejoin:miter;stroke-width:0.5;"/>
   </g>
   <g id="patch_59">
    <path clip-path="url(#p8245403594)" d="M -163.656439 268.441667 
L -157.635038 268.441667 
L -157.635038 268.441667 
L -163.656439 268.441667 
z
" style="fill:#d95f02;opacity:0.6;stroke:#000000;stroke-linejoin:miter;stroke-width:0.5;"/>
   </g>
   <g id="patch_60">
    <path clip-path="url(#p8245403594)" d="M -157.635038 268.441667 
L -151.613636 268.441667 
L -151.613636 268.441667 
L -157.635038 268.441667 
z
" style="fill:#d95f02;opacity:0.6;stroke:#000000;stroke-linejoin:miter;stroke-width:0.5;"/>
   </g>
   <g id="patch_61">
    <path clip-path="url(#p8245403594)" d="M -151.613636 268.441667 
L -145.592235 268.441667 
L -145.592235 268.441667 
L -151.613636 268.441667 
z
" style="fill:#d95f02;opacity:0.6;stroke:#000000;stroke-linejoin:miter;stroke-width:0.5;"/>
   </g>
   <g id="patch_62">
    <path clip-path="url(#p8245403594)" d="M -145.592235 268.441667 
L -139.570833 268.441667 
L -139.570833 268.441667 
L -145.592235 268.441667 
z
" style="fill:#d95f02;opacity:0.6;stroke:#000000;stroke-linejoin:miter;stroke-width:0.5;"/>
   </g>
   <g id="patch_63">
    <path clip-path="url(#p8245403594)" d="M -139.570833 268.441667 
L -133.549432 268.441667 
L -133.549432 268.441667 
L -139.570833 268.441667 
z
" style="fill:#d95f02;opacity:0.6;stroke:#000000;stroke-linejoin:miter;stroke-width:0.5;"/>
   </g>
   <g id="patch_64">
    <path clip-path="url(#p8245403594)" d="M -133.549432 268.441667 
L -127.52803 268.441667 
L -127.52803 268.441667 
L -133.549432 268.441667 
z
" style="fill:#d95f02;opacity:0.6;stroke:#000000;stroke-linejoin:miter;stroke-width:0.5;"/>
   </g>
   <g id="patch_65">
    <path clip-path="url(#p8245403594)" d="M -127.52803 268.441667 
L -121.506629 268.441667 
L -121.506629 268.441667 
L -127.52803 268.441667 
z
" style="fill:#d95f02;opacity:0.6;stroke:#000000;stroke-linejoin:miter;stroke-width:0.5;"/>
   </g>
   <g id="patch_66">
    <path clip-path="url(#p8245403594)" d="M -121.506629 268.441667 
L -115.485227 268.441667 
L -115.485227 268.441667 
L -121.506629 268.441667 
z
" style="fill:#d95f02;opacity:0.6;stroke:#000000;stroke-linejoin:miter;stroke-width:0.5;"/>
   </g>
   <g id="patch_67">
    <path clip-path="url(#p8245403594)" d="M -115.485227 268.441667 
L -109.463826 268.441667 
L -109.463826 268.441667 
L -115.485227 268.441667 
z
" style="fill:#d95f02;opacity:0.6;stroke:#000000;stroke-linejoin:miter;stroke-width:0.5;"/>
   </g>
   <g id="patch_68">
    <path clip-path="url(#p8245403594)" d="M -109.463826 268.441667 
L -103.442424 268.441667 
L -103.442424 268.441667 
L -109.463826 268.441667 
z
" style="fill:#d95f02;opacity:0.6;stroke:#000000;stroke-linejoin:miter;stroke-width:0.5;"/>
   </g>
   <g id="patch_69">
    <path clip-path="url(#p8245403594)" d="M -103.442424 268.441667 
L -97.421023 268.441667 
L -97.421023 267.889532 
L -103.442424 267.889532 
z
" style="fill:#d95f02;opacity:0.6;stroke:#000000;stroke-linejoin:miter;stroke-width:0.5;"/>
   </g>
   <g id="patch_70">
    <path clip-path="url(#p8245403594)" d="M -97.421023 268.441667 
L -91.399621 268.441667 
L -91.399621 267.337398 
L -97.421023 267.337398 
z
" style="fill:#d95f02;opacity:0.6;stroke:#000000;stroke-linejoin:miter;stroke-width:0.5;"/>
   </g>
   <g id="patch_71">
    <path clip-path="url(#p8245403594)" d="M -91.399621 268.441667 
L -85.37822 268.441667 
L -85.37822 267.337398 
L -91.399621 267.337398 
z
" style="fill:#d95f02;opacity:0.6;stroke:#000000;stroke-linejoin:miter;stroke-width:0.5;"/>
   </g>
   <g id="patch_72">
    <path clip-path="url(#p8245403594)" d="M -85.37822 268.441667 
L -79.356818 268.441667 
L -79.356818 264.576726 
L -85.37822 264.576726 
z
" style="fill:#d95f02;opacity:0.6;stroke:#000000;stroke-linejoin:miter;stroke-width:0.5;"/>
   </g>
   <g id="patch_73">
    <path clip-path="url(#p8245403594)" d="M -79.356818 268.441667 
L -73.335417 268.441667 
L -73.335417 244.147755 
L -79.356818 244.147755 
z
" style="fill:#d95f02;opacity:0.6;stroke:#000000;stroke-linejoin:miter;stroke-width:0.5;"/>
   </g>
   <g id="patch_74">
    <path clip-path="url(#p8245403594)" d="M -73.335417 268.441667 
L -67.314015 268.441667 
L -67.314015 211.019695 
L -73.335417 211.019695 
z
" style="fill:#d95f02;opacity:0.6;stroke:#000000;stroke-linejoin:miter;stroke-width:0.5;"/>
   </g>
   <g id="patch_75">
    <path clip-path="url(#p8245403594)" d="M -67.314015 268.441667 
L -61.292614 268.441667 
L -61.292614 137.033692 
L -67.314015 137.033692 
z
" style="fill:#d95f02;opacity:0.6;stroke:#000000;stroke-linejoin:miter;stroke-width:0.5;"/>
   </g>
   <g id="patch_76">
    <path clip-path="url(#p8245403594)" d="M -61.292614 268.441667 
L -55.271212 268.441667 
L -55.271212 105.0099 
L -61.292614 105.0099 
z
" style="fill:#d95f02;opacity:0.6;stroke:#000000;stroke-linejoin:miter;stroke-width:0.5;"/>
   </g>
   <g id="patch_77">
    <path clip-path="url(#p8245403594)" d="M -55.271212 268.441667 
L -49.249811 268.441667 
L -49.249811 93.415078 
L -55.271212 93.415078 
z
" style="fill:#d95f02;opacity:0.6;stroke:#000000;stroke-linejoin:miter;stroke-width:0.5;"/>
   </g>
   <g id="patch_78">
    <path clip-path="url(#p8245403594)" d="M -49.249811 268.441667 
L -43.228409 268.441667 
L -43.228409 135.929423 
L -49.249811 135.929423 
z
" style="fill:#d95f02;opacity:0.6;stroke:#000000;stroke-linejoin:miter;stroke-width:0.5;"/>
   </g>
   <g id="patch_79">
    <path clip-path="url(#p8245403594)" d="M -43.228409 268.441667 
L -37.207008 268.441667 
L -37.207008 177.891634 
L -43.228409 177.891634 
z
" style="fill:#d95f02;opacity:0.6;stroke:#000000;stroke-linejoin:miter;stroke-width:0.5;"/>
   </g>
   <g id="patch_80">
    <path clip-path="url(#p8245403594)" d="M -37.207008 268.441667 
L -31.185606 268.441667 
L -31.185606 154.701991 
L -37.207008 154.701991 
z
" style="fill:#d95f02;opacity:0.6;stroke:#000000;stroke-linejoin:miter;stroke-width:0.5;"/>
   </g>
   <g id="patch_81">
    <path clip-path="url(#p8245403594)" d="M -31.185606 268.441667 
L -25.164205 268.441667 
L -25.164205 16.11627 
L -31.185606 16.11627 
z
" style="fill:#d95f02;opacity:0.6;stroke:#000000;stroke-linejoin:miter;stroke-width:0.5;"/>
   </g>
   <g id="patch_82">
    <path clip-path="url(#p8245403594)" d="M -25.164205 268.441667 
L -19.142803 268.441667 
L -19.142803 175.683096 
L -25.164205 175.683096 
z
" style="fill:#d95f02;opacity:0.6;stroke:#000000;stroke-linejoin:miter;stroke-width:0.5;"/>
   </g>
   <g id="matplotlib.axis_1">
    <g id="xtick_1">
     <g id="line2d_1">
      <defs>
       <path d="M 0 0 
L 0 3.5 
" id="m3dd488cdd8" style="stroke:#000000;stroke-width:1.6;"/>
      </defs>
      <g/>
     </g>
     <g id="text_1">
      <!-- 0.0 -->
      <defs>
       <path d="M 31.78125 66.40625 
Q 24.171875 66.40625 20.328125 58.90625 
Q 16.5 51.421875 16.5 36.375 
Q 16.5 21.390625 20.328125 13.890625 
Q 24.171875 6.390625 31.78125 6.390625 
Q 39.453125 6.390625 43.28125 13.890625 
Q 47.125 21.390625 47.125 36.375 
Q 47.125 51.421875 43.28125 58.90625 
Q 39.453125 66.40625 31.78125 66.40625 
z
M 31.78125 74.21875 
Q 44.046875 74.21875 50.515625 64.515625 
Q 56.984375 54.828125 56.984375 36.375 
Q 56.984375 17.96875 50.515625 8.265625 
Q 44.046875 -1.421875 31.78125 -1.421875 
Q 19.53125 -1.421875 13.0625 8.265625 
Q 6.59375 17.96875 6.59375 36.375 
Q 6.59375 54.828125 13.0625 64.515625 
Q 19.53125 74.21875 31.78125 74.21875 
z
" id="DejaVuSans-48"/>
       <path d="M 10.6875 12.40625 
L 21 12.40625 
L 21 0 
L 10.6875 0 
z
" id="DejaVuSans-46"/>
      </defs>
      <g transform="translate(-275.901989 298.338542)scale(0.2 -0.2)">
       <use xlink:href="#DejaVuSans-48"/>
       <use x="63.623047" xlink:href="#DejaVuSans-46"/>
       <use x="95.410156" xlink:href="#DejaVuSans-48"/>
      </g>
     </g>
    </g>
    <g id="xtick_2">
     <g id="line2d_2">
      <g/>
     </g>
     <g id="text_2">
      <!-- 0.2 -->
      <defs>
       <path d="M 19.1875 8.296875 
L 53.609375 8.296875 
L 53.609375 0 
L 7.328125 0 
L 7.328125 8.296875 
Q 12.9375 14.109375 22.625 23.890625 
Q 32.328125 33.6875 34.8125 36.53125 
Q 39.546875 41.84375 41.421875 45.53125 
Q 43.3125 49.21875 43.3125 52.78125 
Q 43.3125 58.59375 39.234375 62.25 
Q 35.15625 65.921875 28.609375 65.921875 
Q 23.96875 65.921875 18.8125 64.3125 
Q 13.671875 62.703125 7.8125 59.421875 
L 7.8125 69.390625 
Q 13.765625 71.78125 18.9375 73 
Q 24.125 74.21875 28.421875 74.21875 
Q 39.75 74.21875 46.484375 68.546875 
Q 53.21875 62.890625 53.21875 53.421875 
Q 53.21875 48.921875 51.53125 44.890625 
Q 49.859375 40.875 45.40625 35.40625 
Q 44.1875 33.984375 37.640625 27.21875 
Q 31.109375 20.453125 19.1875 8.296875 
z
" id="DejaVuSans-50"/>
      </defs>
      <g transform="translate(-207.085971 298.338542)scale(0.2 -0.2)">
       <use xlink:href="#DejaVuSans-48"/>
       <use x="63.623047" xlink:href="#DejaVuSans-46"/>
       <use x="95.410156" xlink:href="#DejaVuSans-50"/>
      </g>
     </g>
    </g>
    <g id="xtick_3">
     <g id="line2d_3">
      <g/>
     </g>
     <g id="text_3">
      <!-- 0.4 -->
      <defs>
       <path d="M 37.796875 64.3125 
L 12.890625 25.390625 
L 37.796875 25.390625 
z
M 35.203125 72.90625 
L 47.609375 72.90625 
L 47.609375 25.390625 
L 58.015625 25.390625 
L 58.015625 17.1875 
L 47.609375 17.1875 
L 47.609375 0 
L 37.796875 0 
L 37.796875 17.1875 
L 4.890625 17.1875 
L 4.890625 26.703125 
z
" id="DejaVuSans-52"/>
      </defs>
      <g transform="translate(-138.269954 298.338542)scale(0.2 -0.2)">
       <use xlink:href="#DejaVuSans-48"/>
       <use x="63.623047" xlink:href="#DejaVuSans-46"/>
       <use x="95.410156" xlink:href="#DejaVuSans-52"/>
      </g>
     </g>
    </g>
    <g id="xtick_4">
     <g id="line2d_4">
      <g/>
     </g>
     <g id="text_4">
      <!-- 0.6 -->
      <defs>
       <path d="M 33.015625 40.375 
Q 26.375 40.375 22.484375 35.828125 
Q 18.609375 31.296875 18.609375 23.390625 
Q 18.609375 15.53125 22.484375 10.953125 
Q 26.375 6.390625 33.015625 6.390625 
Q 39.65625 6.390625 43.53125 10.953125 
Q 47.40625 15.53125 47.40625 23.390625 
Q 47.40625 31.296875 43.53125 35.828125 
Q 39.65625 40.375 33.015625 40.375 
z
M 52.59375 71.296875 
L 52.59375 62.3125 
Q 48.875 64.0625 45.09375 64.984375 
Q 41.3125 65.921875 37.59375 65.921875 
Q 27.828125 65.921875 22.671875 59.328125 
Q 17.53125 52.734375 16.796875 39.40625 
Q 19.671875 43.65625 24.015625 45.921875 
Q 28.375 48.1875 33.59375 48.1875 
Q 44.578125 48.1875 50.953125 41.515625 
Q 57.328125 34.859375 57.328125 23.390625 
Q 57.328125 12.15625 50.6875 5.359375 
Q 44.046875 -1.421875 33.015625 -1.421875 
Q 20.359375 -1.421875 13.671875 8.265625 
Q 6.984375 17.96875 6.984375 36.375 
Q 6.984375 53.65625 15.1875 63.9375 
Q 23.390625 74.21875 37.203125 74.21875 
Q 40.921875 74.21875 44.703125 73.484375 
Q 48.484375 72.75 52.59375 71.296875 
z
" id="DejaVuSans-54"/>
      </defs>
      <g transform="translate(-69.453937 298.338542)scale(0.2 -0.2)">
       <use xlink:href="#DejaVuSans-48"/>
       <use x="63.623047" xlink:href="#DejaVuSans-46"/>
       <use x="95.410156" xlink:href="#DejaVuSans-54"/>
      </g>
     </g>
    </g>
    <g id="text_5">
     <!--   -->
     <defs>
      <path id="DejaVuSans-32"/>
     </defs>
     <g transform="translate(-142.748958 321.694792)scale(0.2 -0.2)">
      <use xlink:href="#DejaVuSans-32"/>
     </g>
    </g>
   </g>
   <g id="matplotlib.axis_2">
    <g id="ytick_1">
     <g id="line2d_5">
      <defs>
       <path d="M 0 0 
L -3.5 0 
" id="m3e3068b9a1" style="stroke:#000000;stroke-width:1.6;"/>
      </defs>
      <g/>
     </g>
     <g id="text_6">
      <!-- 0.00 -->
      <g transform="translate(-331.272917 276.040104)scale(0.2 -0.2)">
       <use xlink:href="#DejaVuSans-48"/>
       <use x="63.623047" xlink:href="#DejaVuSans-46"/>
       <use x="95.410156" xlink:href="#DejaVuSans-48"/>
       <use x="159.033203" xlink:href="#DejaVuSans-48"/>
      </g>
     </g>
    </g>
    <g id="ytick_2">
     <g id="line2d_6">
      <g/>
     </g>
     <g id="text_7">
      <!-- 0.05 -->
      <defs>
       <path d="M 10.796875 72.90625 
L 49.515625 72.90625 
L 49.515625 64.59375 
L 19.828125 64.59375 
L 19.828125 46.734375 
Q 21.96875 47.46875 24.109375 47.828125 
Q 26.265625 48.1875 28.421875 48.1875 
Q 40.625 48.1875 47.75 41.5 
Q 54.890625 34.8125 54.890625 23.390625 
Q 54.890625 11.625 47.5625 5.09375 
Q 40.234375 -1.421875 26.90625 -1.421875 
Q 22.3125 -1.421875 17.546875 -0.640625 
Q 12.796875 0.140625 7.71875 1.703125 
L 7.71875 11.625 
Q 12.109375 9.234375 16.796875 8.0625 
Q 21.484375 6.890625 26.703125 6.890625 
Q 35.15625 6.890625 40.078125 11.328125 
Q 45.015625 15.765625 45.015625 23.390625 
Q 45.015625 31 40.078125 35.4375 
Q 35.15625 39.890625 26.703125 39.890625 
Q 22.75 39.890625 18.8125 39.015625 
Q 14.890625 38.140625 10.796875 36.28125 
z
" id="DejaVuSans-53"/>
      </defs>
      <g transform="translate(-331.272917 214.035417)scale(0.2 -0.2)">
       <use xlink:href="#DejaVuSans-48"/>
       <use x="63.623047" xlink:href="#DejaVuSans-46"/>
       <use x="95.410156" xlink:href="#DejaVuSans-48"/>
       <use x="159.033203" xlink:href="#DejaVuSans-53"/>
      </g>
     </g>
    </g>
    <g id="ytick_3">
     <g id="line2d_7">
      <g/>
     </g>
     <g id="text_8">
      <!-- 0.10 -->
      <defs>
       <path d="M 12.40625 8.296875 
L 28.515625 8.296875 
L 28.515625 63.921875 
L 10.984375 60.40625 
L 10.984375 69.390625 
L 28.421875 72.90625 
L 38.28125 72.90625 
L 38.28125 8.296875 
L 54.390625 8.296875 
L 54.390625 0 
L 12.40625 0 
z
" id="DejaVuSans-49"/>
      </defs>
      <g transform="translate(-331.272917 152.03073)scale(0.2 -0.2)">
       <use xlink:href="#DejaVuSans-48"/>
       <use x="63.623047" xlink:href="#DejaVuSans-46"/>
       <use x="95.410156" xlink:href="#DejaVuSans-49"/>
       <use x="159.033203" xlink:href="#DejaVuSans-48"/>
      </g>
     </g>
    </g>
    <g id="ytick_4">
     <g id="line2d_8">
      <g/>
     </g>
     <g id="text_9">
      <!-- 0.15 -->
      <g transform="translate(-331.272917 90.026042)scale(0.2 -0.2)">
       <use xlink:href="#DejaVuSans-48"/>
       <use x="63.623047" xlink:href="#DejaVuSans-46"/>
       <use x="95.410156" xlink:href="#DejaVuSans-49"/>
       <use x="159.033203" xlink:href="#DejaVuSans-53"/>
      </g>
     </g>
    </g>
    <g id="ytick_5">
     <g id="line2d_9">
      <g/>
     </g>
     <g id="text_10">
      <!-- 0.20 -->
      <g transform="translate(-331.272917 28.021355)scale(0.2 -0.2)">
       <use xlink:href="#DejaVuSans-48"/>
       <use x="63.623047" xlink:href="#DejaVuSans-46"/>
       <use x="95.410156" xlink:href="#DejaVuSans-50"/>
       <use x="159.033203" xlink:href="#DejaVuSans-48"/>
      </g>
     </g>
    </g>
    <g id="text_11">
     <!--   -->
     <g transform="translate(-338.933167 138.767583)rotate(-90)scale(0.176 -0.176)">
      <use xlink:href="#DejaVuSans-32"/>
     </g>
    </g>
   </g>
   <g id="patch_83">
    <path style="fill:none;stroke:#000000;stroke-linecap:square;stroke-linejoin:miter;stroke-width:0.8;"/>
   </g>
   <g id="patch_84">
    <path style="fill:none;stroke:#000000;stroke-linecap:square;stroke-linejoin:miter;stroke-width:0.8;"/>
   </g>
  </g>
  <g id="axes_2">
   <g id="patch_85">
    <path d="M 96.7 268.441667 
L 361.641667 268.441667 
L 361.641667 3.5 
L 96.7 3.5 
z
" style="fill:#ffffff;"/>
   </g>
   <g id="PolyCollection_1">
    <defs>
     <path d="M 257.93611 -305.744245 
L 257.93611 -305.797838 
L 258.948295 -305.796688 
L 259.96048 -305.793241 
L 260.972665 -305.788421 
L 261.98485 -305.783347 
L 262.997035 -305.778924 
L 264.00922 -305.775615 
L 265.021405 -305.773466 
L 266.03359 -305.77228 
L 267.045775 -305.771829 
L 268.05796 -305.77201 
L 269.070145 -305.772941 
L 270.08233 -305.774973 
L 271.094515 -305.778625 
L 272.1067 -305.784402 
L 273.118885 -305.792504 
L 274.13107 -305.802566 
L 275.143256 -305.813605 
L 276.155441 -305.824368 
L 277.167626 -305.833983 
L 278.179811 -305.842588 
L 279.191996 -305.851478 
L 280.204181 -305.862566 
L 281.216366 -305.87748 
L 282.228551 -305.896935 
L 283.240736 -305.920905 
L 284.252921 -305.949518 
L 285.265106 -305.984037 
L 286.277291 -306.027174 
L 287.289476 -306.082448 
L 288.301661 -306.15297 
L 289.313846 -306.240461 
L 290.326031 -306.345232 
L 291.338216 -306.467401 
L 292.350402 -306.608879 
L 293.362587 -306.77505 
L 294.374772 -306.974869 
L 295.386957 -307.218797 
L 296.399142 -307.515324 
L 297.411327 -307.867756 
L 298.423512 -308.27273 
L 299.435697 -308.720712 
L 300.447882 -309.197794 
L 301.460067 -309.688161 
L 302.472252 -310.177108 
L 303.484437 -310.654412 
L 304.496622 -311.117154 
L 305.508807 -311.570553 
L 306.520992 -312.02593 
L 307.533177 -312.496475 
L 308.545362 -312.992915 
L 309.557548 -313.521422 
L 310.569733 -314.08459 
L 311.581918 -314.683827 
L 312.594103 -315.31996 
L 313.606288 -315.989643 
L 314.618473 -316.678377 
L 315.630658 -317.354556 
L 316.642843 -317.970232 
L 317.655028 -318.471688 
L 318.667213 -318.81703 
L 319.679398 -318.992518 
L 320.691583 -319.018125 
L 321.703768 -318.93798 
L 322.715953 -318.80003 
L 323.728138 -318.635699 
L 324.740323 -318.449975 
L 325.752508 -318.225611 
L 326.764694 -317.936865 
L 327.776879 -317.563977 
L 328.789064 -317.101251 
L 329.801249 -316.556963 
L 330.813434 -315.948187 
L 331.825619 -315.295124 
L 332.837804 -314.617822 
L 333.849989 -313.935395 
L 334.862174 -313.266249 
L 335.874359 -312.627785 
L 336.886544 -312.034829 
L 337.898729 -311.496974 
L 338.910914 -311.01591 
L 339.923099 -310.584685 
L 340.935284 -310.190632 
L 341.947469 -309.821837 
L 342.959654 -309.474267 
L 343.97184 -309.155522 
L 344.984025 -308.883017 
L 345.99621 -308.678185 
L 347.008395 -308.560499 
L 348.02058 -308.543797 
L 349.032765 -308.633781 
L 350.04495 -308.823624 
L 351.057135 -309.086905 
L 352.06932 -309.372124 
L 353.081505 -309.605788 
L 354.09369 -309.708066 
L 355.105875 -309.617273 
L 356.11806 -309.312622 
L 357.130245 -308.82381 
L 358.14243 -308.222155 
L 358.14243 -303.319928 
L 358.14243 -303.319928 
L 357.130245 -302.718273 
L 356.11806 -302.229461 
L 355.105875 -301.92481 
L 354.09369 -301.834018 
L 353.081505 -301.936295 
L 352.06932 -302.169959 
L 351.057135 -302.455178 
L 350.04495 -302.71846 
L 349.032765 -302.908302 
L 348.02058 -302.998286 
L 347.008395 -302.981584 
L 345.99621 -302.863898 
L 344.984025 -302.659067 
L 343.97184 -302.386561 
L 342.959654 -302.067816 
L 341.947469 -301.720247 
L 340.935284 -301.351451 
L 339.923099 -300.957398 
L 338.910914 -300.526173 
L 337.898729 -300.04511 
L 336.886544 -299.507254 
L 335.874359 -298.914298 
L 334.862174 -298.275834 
L 333.849989 -297.606689 
L 332.837804 -296.924261 
L 331.825619 -296.246959 
L 330.813434 -295.593897 
L 329.801249 -294.98512 
L 328.789064 -294.440833 
L 327.776879 -293.978107 
L 326.764694 -293.605219 
L 325.752508 -293.316472 
L 324.740323 -293.092108 
L 323.728138 -292.906385 
L 322.715953 -292.742053 
L 321.703768 -292.604103 
L 320.691583 -292.523958 
L 319.679398 -292.549565 
L 318.667213 -292.725054 
L 317.655028 -293.070396 
L 316.642843 -293.571851 
L 315.630658 -294.187528 
L 314.618473 -294.863706 
L 313.606288 -295.55244 
L 312.594103 -296.222123 
L 311.581918 -296.858256 
L 310.569733 -297.457493 
L 309.557548 -298.020661 
L 308.545362 -298.549169 
L 307.533177 -299.045608 
L 306.520992 -299.516153 
L 305.508807 -299.97153 
L 304.496622 -300.424929 
L 303.484437 -300.887672 
L 302.472252 -301.364975 
L 301.460067 -301.853922 
L 300.447882 -302.34429 
L 299.435697 -302.821372 
L 298.423512 -303.269354 
L 297.411327 -303.674328 
L 296.399142 -304.026759 
L 295.386957 -304.323286 
L 294.374772 -304.567215 
L 293.362587 -304.767033 
L 292.350402 -304.933204 
L 291.338216 -305.074682 
L 290.326031 -305.196851 
L 289.313846 -305.301623 
L 288.301661 -305.389113 
L 287.289476 -305.459635 
L 286.277291 -305.514909 
L 285.265106 -305.558046 
L 284.252921 -305.592566 
L 283.240736 -305.621178 
L 282.228551 -305.645148 
L 281.216366 -305.664604 
L 280.204181 -305.679517 
L 279.191996 -305.690605 
L 278.179811 -305.699495 
L 277.167626 -305.7081 
L 276.155441 -305.717715 
L 275.143256 -305.728478 
L 274.13107 -305.739518 
L 273.118885 -305.749579 
L 272.1067 -305.757681 
L 271.094515 -305.763458 
L 270.08233 -305.767111 
L 269.070145 -305.769142 
L 268.05796 -305.770073 
L 267.045775 -305.770255 
L 266.03359 -305.769803 
L 265.021405 -305.768617 
L 264.00922 -305.766468 
L 262.997035 -305.763159 
L 261.98485 -305.758736 
L 260.972665 -305.753663 
L 259.96048 -305.748843 
L 258.948295 -305.745396 
L 257.93611 -305.744245 
z
" id="m950eb81230" style="stroke:#424242;"/>
    </defs>
    <g clip-path="url(#p52a1c6fca9)">
     <use style="fill:#7c78ab;stroke:#424242;" x="0" xlink:href="#m950eb81230" y="329.141667"/>
    </g>
   </g>
   <g id="PolyCollection_2">
    <defs>
     <path d="M 279.216672 -279.245023 
L 279.216672 -279.308727 
L 280.01737 -279.312301 
L 280.818068 -279.315816 
L 281.618766 -279.319403 
L 282.419464 -279.32308 
L 283.220162 -279.326697 
L 284.02086 -279.329968 
L 284.821558 -279.332607 
L 285.622256 -279.334518 
L 286.422954 -279.335962 
L 287.223652 -279.337605 
L 288.02435 -279.340425 
L 288.825048 -279.345474 
L 289.625746 -279.353606 
L 290.426444 -279.365265 
L 291.227142 -279.380473 
L 292.02784 -279.399047 
L 292.828537 -279.421016 
L 293.629235 -279.447108 
L 294.429933 -279.479123 
L 295.230631 -279.52001 
L 296.031329 -279.573547 
L 296.832027 -279.643674 
L 297.632725 -279.733641 
L 298.433423 -279.845243 
L 299.234121 -279.978398 
L 300.034819 -280.131245 
L 300.835517 -280.300751 
L 301.636215 -280.48366 
L 302.436913 -280.677525 
L 303.237611 -280.881527 
L 304.038309 -281.096914 
L 304.839007 -281.326999 
L 305.639705 -281.576761 
L 306.440402 -281.85215 
L 307.2411 -282.159183 
L 308.041798 -282.502871 
L 308.842496 -282.886094 
L 309.643194 -283.30856 
L 310.443892 -283.7661 
L 311.24459 -284.250553 
L 312.045288 -284.750431 
L 312.845986 -285.252309 
L 313.646684 -285.742683 
L 314.447382 -286.20985 
L 315.24808 -286.645324 
L 316.048778 -287.044483 
L 316.849476 -287.406343 
L 317.650174 -287.732658 
L 318.450872 -288.02667 
L 319.25157 -288.291844 
L 320.052268 -288.530856 
L 320.852965 -288.744939 
L 321.653663 -288.933611 
L 322.454361 -289.094703 
L 323.255059 -289.224636 
L 324.055757 -289.31883 
L 324.856455 -289.372228 
L 325.657153 -289.379884 
L 326.457851 -289.337632 
L 327.258549 -289.242828 
L 328.059247 -289.095068 
L 328.859945 -288.896729 
L 329.660643 -288.653122 
L 330.461341 -288.372108 
L 331.262039 -288.063233 
L 332.062737 -287.736603 
L 332.863435 -287.401857 
L 333.664133 -287.067566 
L 334.46483 -286.741153 
L 335.265528 -286.429223 
L 336.066226 -286.137984 
L 336.866924 -285.873495 
L 337.667622 -285.641618 
L 338.46832 -285.447792 
L 339.269018 -285.296862 
L 340.069716 -285.193193 
L 340.870414 -285.14109 
L 341.671112 -285.145398 
L 342.47181 -285.212051 
L 343.272508 -285.34836 
L 344.073206 -285.562962 
L 344.873904 -285.865349 
L 345.674602 -286.264886 
L 346.4753 -286.769041 
L 347.275998 -287.380577 
L 348.076695 -288.093615 
L 348.877393 -288.889017 
L 349.678091 -289.730213 
L 350.478789 -290.561133 
L 351.279487 -291.307986 
L 352.080185 -291.885932 
L 352.880883 -292.210449 
L 353.681581 -292.211567 
L 354.482279 -291.84787 
L 355.282977 -291.116692 
L 356.083675 -290.057572 
L 356.884373 -288.747604 
L 357.685071 -287.289502 
L 358.485769 -285.79507 
L 358.485769 -272.75868 
L 358.485769 -272.75868 
L 357.685071 -271.264248 
L 356.884373 -269.806146 
L 356.083675 -268.496178 
L 355.282977 -267.437058 
L 354.482279 -266.70588 
L 353.681581 -266.342183 
L 352.880883 -266.343301 
L 352.080185 -266.667818 
L 351.279487 -267.245764 
L 350.478789 -267.992617 
L 349.678091 -268.823537 
L 348.877393 -269.664733 
L 348.076695 -270.460135 
L 347.275998 -271.173173 
L 346.4753 -271.784709 
L 345.674602 -272.288864 
L 344.873904 -272.688401 
L 344.073206 -272.990788 
L 343.272508 -273.20539 
L 342.47181 -273.341699 
L 341.671112 -273.408352 
L 340.870414 -273.41266 
L 340.069716 -273.360557 
L 339.269018 -273.256888 
L 338.46832 -273.105958 
L 337.667622 -272.912132 
L 336.866924 -272.680255 
L 336.066226 -272.415766 
L 335.265528 -272.124527 
L 334.46483 -271.812597 
L 333.664133 -271.486184 
L 332.863435 -271.151893 
L 332.062737 -270.817147 
L 331.262039 -270.490517 
L 330.461341 -270.181642 
L 329.660643 -269.900628 
L 328.859945 -269.657021 
L 328.059247 -269.458682 
L 327.258549 -269.310922 
L 326.457851 -269.216118 
L 325.657153 -269.173866 
L 324.856455 -269.181522 
L 324.055757 -269.23492 
L 323.255059 -269.329114 
L 322.454361 -269.459047 
L 321.653663 -269.620139 
L 320.852965 -269.808811 
L 320.052268 -270.022894 
L 319.25157 -270.261906 
L 318.450872 -270.52708 
L 317.650174 -270.821092 
L 316.849476 -271.147407 
L 316.048778 -271.509267 
L 315.24808 -271.908426 
L 314.447382 -272.3439 
L 313.646684 -272.811067 
L 312.845986 -273.301441 
L 312.045288 -273.803319 
L 311.24459 -274.303197 
L 310.443892 -274.78765 
L 309.643194 -275.24519 
L 308.842496 -275.667656 
L 308.041798 -276.050879 
L 307.2411 -276.394567 
L 306.440402 -276.7016 
L 305.639705 -276.976989 
L 304.839007 -277.226751 
L 304.038309 -277.456836 
L 303.237611 -277.672223 
L 302.436913 -277.876225 
L 301.636215 -278.07009 
L 300.835517 -278.252999 
L 300.034819 -278.422505 
L 299.234121 -278.575352 
L 298.433423 -278.708507 
L 297.632725 -278.820109 
L 296.832027 -278.910076 
L 296.031329 -278.980203 
L 295.230631 -279.03374 
L 294.429933 -279.074627 
L 293.629235 -279.106642 
L 292.828537 -279.132734 
L 292.02784 -279.154703 
L 291.227142 -279.173277 
L 290.426444 -279.188485 
L 289.625746 -279.200144 
L 288.825048 -279.208276 
L 288.02435 -279.213325 
L 287.223652 -279.216145 
L 286.422954 -279.217788 
L 285.622256 -279.219232 
L 284.821558 -279.221143 
L 284.02086 -279.223782 
L 283.220162 -279.227053 
L 282.419464 -279.23067 
L 281.618766 -279.234347 
L 280.818068 -279.237934 
L 280.01737 -279.241449 
L 279.216672 -279.245023 
z
" id="m0e30b40b43" style="stroke:#424242;"/>
    </defs>
    <g clip-path="url(#p52a1c6fca9)">
     <use style="fill:#be631d;stroke:#424242;" x="0" xlink:href="#m0e30b40b43" y="329.141667"/>
    </g>
   </g>
   <g id="PolyCollection_3">
    <defs>
     <path d="M 330.453306 -234.615968 
L 330.453306 -244.455282 
L 330.687268 -244.49126 
L 330.921229 -244.525776 
L 331.15519 -244.558939 
L 331.389152 -244.590869 
L 331.623113 -244.621697 
L 331.857074 -244.651563 
L 332.091035 -244.680617 
L 332.324997 -244.709019 
L 332.558958 -244.736939 
L 332.792919 -244.764552 
L 333.02688 -244.792044 
L 333.260842 -244.819606 
L 333.494803 -244.847437 
L 333.728764 -244.87574 
L 333.962725 -244.904723 
L 334.196687 -244.934599 
L 334.430648 -244.965583 
L 334.664609 -244.997892 
L 334.898571 -245.031745 
L 335.132532 -245.06736 
L 335.366493 -245.104954 
L 335.600454 -245.144744 
L 335.834416 -245.186941 
L 336.068377 -245.231754 
L 336.302338 -245.279387 
L 336.536299 -245.330036 
L 336.770261 -245.383891 
L 337.004222 -245.441133 
L 337.238183 -245.501934 
L 337.472144 -245.566456 
L 337.706106 -245.634847 
L 337.940067 -245.707246 
L 338.174028 -245.783777 
L 338.40799 -245.864548 
L 338.641951 -245.949654 
L 338.875912 -246.039175 
L 339.109873 -246.13317 
L 339.343835 -246.231684 
L 339.577796 -246.334743 
L 339.811757 -246.442354 
L 340.045718 -246.554505 
L 340.27968 -246.671164 
L 340.513641 -246.79228 
L 340.747602 -246.917779 
L 340.981563 -247.04757 
L 341.215525 -247.181539 
L 341.449486 -247.319553 
L 341.683447 -247.461457 
L 341.917409 -247.607075 
L 342.15137 -247.756214 
L 342.385331 -247.908658 
L 342.619292 -248.064172 
L 342.853254 -248.222504 
L 343.087215 -248.383382 
L 343.321176 -248.546516 
L 343.555137 -248.711602 
L 343.789099 -248.878316 
L 344.02306 -249.046323 
L 344.257021 -249.21527 
L 344.490982 -249.384795 
L 344.724944 -249.554521 
L 344.958905 -249.724062 
L 345.192866 -249.893022 
L 345.426828 -250.060999 
L 345.660789 -250.227583 
L 345.89475 -250.392357 
L 346.128711 -250.554904 
L 346.362673 -250.714802 
L 346.596634 -250.871631 
L 346.830595 -251.024969 
L 347.064556 -251.174398 
L 347.298518 -251.319504 
L 347.532479 -251.459879 
L 347.76644 -251.595121 
L 348.000401 -251.724837 
L 348.234363 -251.848644 
L 348.468324 -251.966171 
L 348.702285 -252.077059 
L 348.936247 -252.180965 
L 349.170208 -252.27756 
L 349.404169 -252.366533 
L 349.63813 -252.447589 
L 349.872092 -252.520455 
L 350.106053 -252.584877 
L 350.340014 -252.640622 
L 350.573975 -252.687479 
L 350.807937 -252.725261 
L 351.041898 -252.753802 
L 351.275859 -252.772964 
L 351.50982 -252.782629 
L 351.743782 -252.782708 
L 351.977743 -252.773136 
L 352.211704 -252.753872 
L 352.445666 -252.724903 
L 352.679627 -252.686239 
L 352.913588 -252.637918 
L 353.147549 -252.580001 
L 353.381511 -252.512575 
L 353.615472 -252.435752 
L 353.615472 -226.635498 
L 353.615472 -226.635498 
L 353.381511 -226.558675 
L 353.147549 -226.491249 
L 352.913588 -226.433332 
L 352.679627 -226.385011 
L 352.445666 -226.346347 
L 352.211704 -226.317378 
L 351.977743 -226.298114 
L 351.743782 -226.288542 
L 351.50982 -226.288621 
L 351.275859 -226.298286 
L 351.041898 -226.317448 
L 350.807937 -226.345989 
L 350.573975 -226.383771 
L 350.340014 -226.430628 
L 350.106053 -226.486373 
L 349.872092 -226.550795 
L 349.63813 -226.623661 
L 349.404169 -226.704717 
L 349.170208 -226.79369 
L 348.936247 -226.890285 
L 348.702285 -226.994191 
L 348.468324 -227.105079 
L 348.234363 -227.222606 
L 348.000401 -227.346413 
L 347.76644 -227.476129 
L 347.532479 -227.611371 
L 347.298518 -227.751746 
L 347.064556 -227.896852 
L 346.830595 -228.046281 
L 346.596634 -228.199619 
L 346.362673 -228.356448 
L 346.128711 -228.516346 
L 345.89475 -228.678893 
L 345.660789 -228.843667 
L 345.426828 -229.010251 
L 345.192866 -229.178228 
L 344.958905 -229.347188 
L 344.724944 -229.516729 
L 344.490982 -229.686455 
L 344.257021 -229.85598 
L 344.02306 -230.024927 
L 343.789099 -230.192934 
L 343.555137 -230.359648 
L 343.321176 -230.524734 
L 343.087215 -230.687868 
L 342.853254 -230.848746 
L 342.619292 -231.007078 
L 342.385331 -231.162592 
L 342.15137 -231.315036 
L 341.917409 -231.464175 
L 341.683447 -231.609793 
L 341.449486 -231.751697 
L 341.215525 -231.889711 
L 340.981563 -232.02368 
L 340.747602 -232.153471 
L 340.513641 -232.27897 
L 340.27968 -232.400086 
L 340.045718 -232.516745 
L 339.811757 -232.628896 
L 339.577796 -232.736507 
L 339.343835 -232.839566 
L 339.109873 -232.93808 
L 338.875912 -233.032075 
L 338.641951 -233.121596 
L 338.40799 -233.206702 
L 338.174028 -233.287473 
L 337.940067 -233.364004 
L 337.706106 -233.436403 
L 337.472144 -233.504794 
L 337.238183 -233.569316 
L 337.004222 -233.630117 
L 336.770261 -233.687359 
L 336.536299 -233.741214 
L 336.302338 -233.791863 
L 336.068377 -233.839496 
L 335.834416 -233.884309 
L 335.600454 -233.926506 
L 335.366493 -233.966296 
L 335.132532 -234.00389 
L 334.898571 -234.039505 
L 334.664609 -234.073358 
L 334.430648 -234.105667 
L 334.196687 -234.136651 
L 333.962725 -234.166527 
L 333.728764 -234.19551 
L 333.494803 -234.223813 
L 333.260842 -234.251644 
L 333.02688 -234.279206 
L 332.792919 -234.306698 
L 332.558958 -234.334311 
L 332.324997 -234.362231 
L 332.091035 -234.390633 
L 331.857074 -234.419687 
L 331.623113 -234.449553 
L 331.389152 -234.480381 
L 331.15519 -234.512311 
L 330.921229 -234.545474 
L 330.687268 -234.57999 
L 330.453306 -234.615968 
z
" id="m2efec297b2" style="stroke:#424242;"/>
    </defs>
    <g clip-path="url(#p52a1c6fca9)">
     <use style="fill:#7c78ab;stroke:#424242;" x="0" xlink:href="#m2efec297b2" y="329.141667"/>
    </g>
   </g>
   <g id="PolyCollection_4">
    <defs>
     <path d="M 305.539538 -211.515969 
L 305.539538 -214.566948 
L 306.026214 -214.589071 
L 306.512889 -214.609575 
L 306.999565 -214.628666 
L 307.486241 -214.646582 
L 307.972917 -214.663593 
L 308.459592 -214.679994 
L 308.946268 -214.696099 
L 309.432944 -214.71224 
L 309.91962 -214.728757 
L 310.406295 -214.745993 
L 310.892971 -214.764291 
L 311.379647 -214.783981 
L 311.866323 -214.805381 
L 312.352998 -214.828784 
L 312.839674 -214.854456 
L 313.32635 -214.882629 
L 313.813026 -214.913498 
L 314.299701 -214.947213 
L 314.786377 -214.98388 
L 315.273053 -215.023555 
L 315.759729 -215.066246 
L 316.246404 -215.111908 
L 316.73308 -215.16045 
L 317.219756 -215.211734 
L 317.706432 -215.265575 
L 318.193107 -215.321753 
L 318.679783 -215.380012 
L 319.166459 -215.440071 
L 319.653135 -215.501629 
L 320.13981 -215.564375 
L 320.626486 -215.627995 
L 321.113162 -215.692185 
L 321.599838 -215.756659 
L 322.086513 -215.82116 
L 322.573189 -215.885466 
L 323.059865 -215.949407 
L 323.546541 -216.012868 
L 324.033216 -216.075798 
L 324.519892 -216.138221 
L 325.006568 -216.200239 
L 325.493244 -216.262037 
L 325.979919 -216.323888 
L 326.466595 -216.386151 
L 326.953271 -216.449276 
L 327.439947 -216.513796 
L 327.926622 -216.580328 
L 328.413298 -216.649563 
L 328.899974 -216.722259 
L 329.38665 -216.799233 
L 329.873325 -216.881346 
L 330.360001 -216.969492 
L 330.846677 -217.06458 
L 331.333353 -217.167523 
L 331.820028 -217.279213 
L 332.306704 -217.400511 
L 332.79338 -217.532222 
L 333.280056 -217.675079 
L 333.766731 -217.829722 
L 334.253407 -217.996684 
L 334.740083 -218.17637 
L 335.226759 -218.369039 
L 335.713434 -218.574795 
L 336.20011 -218.793569 
L 336.686786 -219.02511 
L 337.173462 -219.268976 
L 337.660137 -219.524528 
L 338.146813 -219.79093 
L 338.633489 -220.067143 
L 339.120165 -220.351936 
L 339.60684 -220.643884 
L 340.093516 -220.941384 
L 340.580192 -221.242665 
L 341.066868 -221.545804 
L 341.553543 -221.848745 
L 342.040219 -222.149321 
L 342.526895 -222.445275 
L 343.013571 -222.734288 
L 343.500246 -223.014005 
L 343.986922 -223.282068 
L 344.473598 -223.536136 
L 344.960274 -223.773924 
L 345.446949 -223.993228 
L 345.933625 -224.191957 
L 346.420301 -224.368154 
L 346.906977 -224.520031 
L 347.393652 -224.645987 
L 347.880328 -224.744631 
L 348.367004 -224.814804 
L 348.85368 -224.855589 
L 349.340355 -224.866328 
L 349.827031 -224.846626 
L 350.313707 -224.796361 
L 350.800383 -224.71568 
L 351.287058 -224.605001 
L 351.773734 -224.464999 
L 352.26041 -224.296604 
L 352.747086 -224.100982 
L 353.233761 -223.879519 
L 353.720437 -223.633802 
L 353.720437 -202.449115 
L 353.720437 -202.449115 
L 353.233761 -202.203398 
L 352.747086 -201.981935 
L 352.26041 -201.786312 
L 351.773734 -201.617918 
L 351.287058 -201.477916 
L 350.800383 -201.367236 
L 350.313707 -201.286556 
L 349.827031 -201.236291 
L 349.340355 -201.216589 
L 348.85368 -201.227327 
L 348.367004 -201.268112 
L 347.880328 -201.338285 
L 347.393652 -201.43693 
L 346.906977 -201.562886 
L 346.420301 -201.714763 
L 345.933625 -201.89096 
L 345.446949 -202.089688 
L 344.960274 -202.308993 
L 344.473598 -202.546781 
L 343.986922 -202.800849 
L 343.500246 -203.068911 
L 343.013571 -203.348629 
L 342.526895 -203.637642 
L 342.040219 -203.933596 
L 341.553543 -204.234171 
L 341.066868 -204.537113 
L 340.580192 -204.840252 
L 340.093516 -205.141533 
L 339.60684 -205.439033 
L 339.120165 -205.730981 
L 338.633489 -206.015773 
L 338.146813 -206.291987 
L 337.660137 -206.558389 
L 337.173462 -206.813941 
L 336.686786 -207.057807 
L 336.20011 -207.289347 
L 335.713434 -207.508121 
L 335.226759 -207.713877 
L 334.740083 -207.906547 
L 334.253407 -208.086232 
L 333.766731 -208.253194 
L 333.280056 -208.407838 
L 332.79338 -208.550695 
L 332.306704 -208.682405 
L 331.820028 -208.803703 
L 331.333353 -208.915394 
L 330.846677 -209.018337 
L 330.360001 -209.113425 
L 329.873325 -209.201571 
L 329.38665 -209.283684 
L 328.899974 -209.360658 
L 328.413298 -209.433354 
L 327.926622 -209.502589 
L 327.439947 -209.569121 
L 326.953271 -209.633641 
L 326.466595 -209.696766 
L 325.979919 -209.759029 
L 325.493244 -209.82088 
L 325.006568 -209.882678 
L 324.519892 -209.944696 
L 324.033216 -210.007119 
L 323.546541 -210.070049 
L 323.059865 -210.133509 
L 322.573189 -210.19745 
L 322.086513 -210.261757 
L 321.599838 -210.326257 
L 321.113162 -210.390732 
L 320.626486 -210.454922 
L 320.13981 -210.518542 
L 319.653135 -210.581287 
L 319.166459 -210.642845 
L 318.679783 -210.702904 
L 318.193107 -210.761164 
L 317.706432 -210.817341 
L 317.219756 -210.871183 
L 316.73308 -210.922466 
L 316.246404 -210.971009 
L 315.759729 -211.016671 
L 315.273053 -211.059362 
L 314.786377 -211.099037 
L 314.299701 -211.135704 
L 313.813026 -211.169419 
L 313.32635 -211.200288 
L 312.839674 -211.228461 
L 312.352998 -211.254133 
L 311.866323 -211.277536 
L 311.379647 -211.298935 
L 310.892971 -211.318626 
L 310.406295 -211.336923 
L 309.91962 -211.35416 
L 309.432944 -211.370677 
L 308.946268 -211.386817 
L 308.459592 -211.402923 
L 307.972917 -211.419323 
L 307.486241 -211.436335 
L 306.999565 -211.454251 
L 306.512889 -211.473341 
L 306.026214 -211.493845 
L 305.539538 -211.515969 
z
" id="m13e53b7f4d" style="stroke:#424242;"/>
    </defs>
    <g clip-path="url(#p52a1c6fca9)">
     <use style="fill:#be631d;stroke:#424242;" x="0" xlink:href="#m13e53b7f4d" y="329.141667"/>
    </g>
   </g>
   <g id="patch_86">
    <path clip-path="url(#p52a1c6fca9)" d="M 114.362778 36.617708 
L 114.362778 36.617708 
L 114.362778 36.617708 
L 114.362778 36.617708 
z
" style="fill:#7c78ab;stroke:#424242;stroke-linejoin:miter;stroke-width:0.5;"/>
   </g>
   <g id="patch_87">
    <path clip-path="url(#p52a1c6fca9)" d="M 114.362778 36.617708 
L 114.362778 36.617708 
L 114.362778 36.617708 
L 114.362778 36.617708 
z
" style="fill:#be631d;stroke:#424242;stroke-linejoin:miter;stroke-width:0.5;"/>
   </g>
   <g id="matplotlib.axis_3">
    <g id="xtick_5">
     <g id="line2d_10">
      <g>
       <use style="stroke:#000000;stroke-width:1.6;" x="114.362778" xlink:href="#m3dd488cdd8" y="268.441667"/>
      </g>
     </g>
     <g id="text_12">
      <!-- 0.0 -->
      <g transform="translate(98.459653 298.338542)scale(0.2 -0.2)">
       <use xlink:href="#DejaVuSans-48"/>
       <use x="63.623047" xlink:href="#DejaVuSans-46"/>
       <use x="95.410156" xlink:href="#DejaVuSans-48"/>
      </g>
     </g>
    </g>
    <g id="xtick_6">
     <g id="line2d_11">
      <g>
       <use style="stroke:#000000;stroke-width:1.6;" x="185.013889" xlink:href="#m3dd488cdd8" y="268.441667"/>
      </g>
     </g>
     <g id="text_13">
      <!-- 0.2 -->
      <g transform="translate(169.110764 298.338542)scale(0.2 -0.2)">
       <use xlink:href="#DejaVuSans-48"/>
       <use x="63.623047" xlink:href="#DejaVuSans-46"/>
       <use x="95.410156" xlink:href="#DejaVuSans-50"/>
      </g>
     </g>
    </g>
    <g id="xtick_7">
     <g id="line2d_12">
      <g>
       <use style="stroke:#000000;stroke-width:1.6;" x="255.665" xlink:href="#m3dd488cdd8" y="268.441667"/>
      </g>
     </g>
     <g id="text_14">
      <!-- 0.4 -->
      <g transform="translate(239.761875 298.338542)scale(0.2 -0.2)">
       <use xlink:href="#DejaVuSans-48"/>
       <use x="63.623047" xlink:href="#DejaVuSans-46"/>
       <use x="95.410156" xlink:href="#DejaVuSans-52"/>
      </g>
     </g>
    </g>
    <g id="xtick_8">
     <g id="line2d_13">
      <g>
       <use style="stroke:#000000;stroke-width:1.6;" x="326.316111" xlink:href="#m3dd488cdd8" y="268.441667"/>
      </g>
     </g>
     <g id="text_15">
      <!-- 0.6 -->
      <g transform="translate(310.412986 298.338542)scale(0.2 -0.2)">
       <use xlink:href="#DejaVuSans-48"/>
       <use x="63.623047" xlink:href="#DejaVuSans-46"/>
       <use x="95.410156" xlink:href="#DejaVuSans-54"/>
      </g>
     </g>
    </g>
    <g id="text_16">
     <!-- Max JS Divergence within $\epsilon$ -->
     <defs>
      <path d="M 9.8125 72.90625 
L 24.515625 72.90625 
L 43.109375 23.296875 
L 61.8125 72.90625 
L 76.515625 72.90625 
L 76.515625 0 
L 66.890625 0 
L 66.890625 64.015625 
L 48.09375 14.015625 
L 38.1875 14.015625 
L 19.390625 64.015625 
L 19.390625 0 
L 9.8125 0 
z
" id="DejaVuSans-77"/>
      <path d="M 34.28125 27.484375 
Q 23.390625 27.484375 19.1875 25 
Q 14.984375 22.515625 14.984375 16.5 
Q 14.984375 11.71875 18.140625 8.90625 
Q 21.296875 6.109375 26.703125 6.109375 
Q 34.1875 6.109375 38.703125 11.40625 
Q 43.21875 16.703125 43.21875 25.484375 
L 43.21875 27.484375 
z
M 52.203125 31.203125 
L 52.203125 0 
L 43.21875 0 
L 43.21875 8.296875 
Q 40.140625 3.328125 35.546875 0.953125 
Q 30.953125 -1.421875 24.3125 -1.421875 
Q 15.921875 -1.421875 10.953125 3.296875 
Q 6 8.015625 6 15.921875 
Q 6 25.140625 12.171875 29.828125 
Q 18.359375 34.515625 30.609375 34.515625 
L 43.21875 34.515625 
L 43.21875 35.40625 
Q 43.21875 41.609375 39.140625 45 
Q 35.0625 48.390625 27.6875 48.390625 
Q 23 48.390625 18.546875 47.265625 
Q 14.109375 46.140625 10.015625 43.890625 
L 10.015625 52.203125 
Q 14.9375 54.109375 19.578125 55.046875 
Q 24.21875 56 28.609375 56 
Q 40.484375 56 46.34375 49.84375 
Q 52.203125 43.703125 52.203125 31.203125 
z
" id="DejaVuSans-97"/>
      <path d="M 54.890625 54.6875 
L 35.109375 28.078125 
L 55.90625 0 
L 45.3125 0 
L 29.390625 21.484375 
L 13.484375 0 
L 2.875 0 
L 24.125 28.609375 
L 4.6875 54.6875 
L 15.28125 54.6875 
L 29.78125 35.203125 
L 44.28125 54.6875 
z
" id="DejaVuSans-120"/>
      <path d="M 9.8125 72.90625 
L 19.671875 72.90625 
L 19.671875 5.078125 
Q 19.671875 -8.109375 14.671875 -14.0625 
Q 9.671875 -20.015625 -1.421875 -20.015625 
L -5.171875 -20.015625 
L -5.171875 -11.71875 
L -2.09375 -11.71875 
Q 4.4375 -11.71875 7.125 -8.046875 
Q 9.8125 -4.390625 9.8125 5.078125 
z
" id="DejaVuSans-74"/>
      <path d="M 53.515625 70.515625 
L 53.515625 60.890625 
Q 47.90625 63.578125 42.921875 64.890625 
Q 37.9375 66.21875 33.296875 66.21875 
Q 25.25 66.21875 20.875 63.09375 
Q 16.5 59.96875 16.5 54.203125 
Q 16.5 49.359375 19.40625 46.890625 
Q 22.3125 44.4375 30.421875 42.921875 
L 36.375 41.703125 
Q 47.40625 39.59375 52.65625 34.296875 
Q 57.90625 29 57.90625 20.125 
Q 57.90625 9.515625 50.796875 4.046875 
Q 43.703125 -1.421875 29.984375 -1.421875 
Q 24.8125 -1.421875 18.96875 -0.25 
Q 13.140625 0.921875 6.890625 3.21875 
L 6.890625 13.375 
Q 12.890625 10.015625 18.65625 8.296875 
Q 24.421875 6.59375 29.984375 6.59375 
Q 38.421875 6.59375 43.015625 9.90625 
Q 47.609375 13.234375 47.609375 19.390625 
Q 47.609375 24.75 44.3125 27.78125 
Q 41.015625 30.8125 33.5 32.328125 
L 27.484375 33.5 
Q 16.453125 35.6875 11.515625 40.375 
Q 6.59375 45.0625 6.59375 53.421875 
Q 6.59375 63.09375 13.40625 68.65625 
Q 20.21875 74.21875 32.171875 74.21875 
Q 37.3125 74.21875 42.625 73.28125 
Q 47.953125 72.359375 53.515625 70.515625 
z
" id="DejaVuSans-83"/>
      <path d="M 19.671875 64.796875 
L 19.671875 8.109375 
L 31.59375 8.109375 
Q 46.6875 8.109375 53.6875 14.9375 
Q 60.6875 21.78125 60.6875 36.53125 
Q 60.6875 51.171875 53.6875 57.984375 
Q 46.6875 64.796875 31.59375 64.796875 
z
M 9.8125 72.90625 
L 30.078125 72.90625 
Q 51.265625 72.90625 61.171875 64.09375 
Q 71.09375 55.28125 71.09375 36.53125 
Q 71.09375 17.671875 61.125 8.828125 
Q 51.171875 0 30.078125 0 
L 9.8125 0 
z
" id="DejaVuSans-68"/>
      <path d="M 9.421875 54.6875 
L 18.40625 54.6875 
L 18.40625 0 
L 9.421875 0 
z
M 9.421875 75.984375 
L 18.40625 75.984375 
L 18.40625 64.59375 
L 9.421875 64.59375 
z
" id="DejaVuSans-105"/>
      <path d="M 2.984375 54.6875 
L 12.5 54.6875 
L 29.59375 8.796875 
L 46.6875 54.6875 
L 56.203125 54.6875 
L 35.6875 0 
L 23.484375 0 
z
" id="DejaVuSans-118"/>
      <path d="M 56.203125 29.59375 
L 56.203125 25.203125 
L 14.890625 25.203125 
Q 15.484375 15.921875 20.484375 11.0625 
Q 25.484375 6.203125 34.421875 6.203125 
Q 39.59375 6.203125 44.453125 7.46875 
Q 49.3125 8.734375 54.109375 11.28125 
L 54.109375 2.78125 
Q 49.265625 0.734375 44.1875 -0.34375 
Q 39.109375 -1.421875 33.890625 -1.421875 
Q 20.796875 -1.421875 13.15625 6.1875 
Q 5.515625 13.8125 5.515625 26.8125 
Q 5.515625 40.234375 12.765625 48.109375 
Q 20.015625 56 32.328125 56 
Q 43.359375 56 49.78125 48.890625 
Q 56.203125 41.796875 56.203125 29.59375 
z
M 47.21875 32.234375 
Q 47.125 39.59375 43.09375 43.984375 
Q 39.0625 48.390625 32.421875 48.390625 
Q 24.90625 48.390625 20.390625 44.140625 
Q 15.875 39.890625 15.1875 32.171875 
z
" id="DejaVuSans-101"/>
      <path d="M 41.109375 46.296875 
Q 39.59375 47.171875 37.8125 47.578125 
Q 36.03125 48 33.890625 48 
Q 26.265625 48 22.1875 43.046875 
Q 18.109375 38.09375 18.109375 28.8125 
L 18.109375 0 
L 9.078125 0 
L 9.078125 54.6875 
L 18.109375 54.6875 
L 18.109375 46.1875 
Q 20.953125 51.171875 25.484375 53.578125 
Q 30.03125 56 36.53125 56 
Q 37.453125 56 38.578125 55.875 
Q 39.703125 55.765625 41.0625 55.515625 
z
" id="DejaVuSans-114"/>
      <path d="M 45.40625 27.984375 
Q 45.40625 37.75 41.375 43.109375 
Q 37.359375 48.484375 30.078125 48.484375 
Q 22.859375 48.484375 18.828125 43.109375 
Q 14.796875 37.75 14.796875 27.984375 
Q 14.796875 18.265625 18.828125 12.890625 
Q 22.859375 7.515625 30.078125 7.515625 
Q 37.359375 7.515625 41.375 12.890625 
Q 45.40625 18.265625 45.40625 27.984375 
z
M 54.390625 6.78125 
Q 54.390625 -7.171875 48.1875 -13.984375 
Q 42 -20.796875 29.203125 -20.796875 
Q 24.46875 -20.796875 20.265625 -20.09375 
Q 16.0625 -19.390625 12.109375 -17.921875 
L 12.109375 -9.1875 
Q 16.0625 -11.328125 19.921875 -12.34375 
Q 23.78125 -13.375 27.78125 -13.375 
Q 36.625 -13.375 41.015625 -8.765625 
Q 45.40625 -4.15625 45.40625 5.171875 
L 45.40625 9.625 
Q 42.625 4.78125 38.28125 2.390625 
Q 33.9375 0 27.875 0 
Q 17.828125 0 11.671875 7.65625 
Q 5.515625 15.328125 5.515625 27.984375 
Q 5.515625 40.671875 11.671875 48.328125 
Q 17.828125 56 27.875 56 
Q 33.9375 56 38.28125 53.609375 
Q 42.625 51.21875 45.40625 46.390625 
L 45.40625 54.6875 
L 54.390625 54.6875 
z
" id="DejaVuSans-103"/>
      <path d="M 54.890625 33.015625 
L 54.890625 0 
L 45.90625 0 
L 45.90625 32.71875 
Q 45.90625 40.484375 42.875 44.328125 
Q 39.84375 48.1875 33.796875 48.1875 
Q 26.515625 48.1875 22.3125 43.546875 
Q 18.109375 38.921875 18.109375 30.90625 
L 18.109375 0 
L 9.078125 0 
L 9.078125 54.6875 
L 18.109375 54.6875 
L 18.109375 46.1875 
Q 21.34375 51.125 25.703125 53.5625 
Q 30.078125 56 35.796875 56 
Q 45.21875 56 50.046875 50.171875 
Q 54.890625 44.34375 54.890625 33.015625 
z
" id="DejaVuSans-110"/>
      <path d="M 48.78125 52.59375 
L 48.78125 44.1875 
Q 44.96875 46.296875 41.140625 47.34375 
Q 37.3125 48.390625 33.40625 48.390625 
Q 24.65625 48.390625 19.8125 42.84375 
Q 14.984375 37.3125 14.984375 27.296875 
Q 14.984375 17.28125 19.8125 11.734375 
Q 24.65625 6.203125 33.40625 6.203125 
Q 37.3125 6.203125 41.140625 7.25 
Q 44.96875 8.296875 48.78125 10.40625 
L 48.78125 2.09375 
Q 45.015625 0.34375 40.984375 -0.53125 
Q 36.96875 -1.421875 32.421875 -1.421875 
Q 20.0625 -1.421875 12.78125 6.34375 
Q 5.515625 14.109375 5.515625 27.296875 
Q 5.515625 40.671875 12.859375 48.328125 
Q 20.21875 56 33.015625 56 
Q 37.15625 56 41.109375 55.140625 
Q 45.0625 54.296875 48.78125 52.59375 
z
" id="DejaVuSans-99"/>
      <path d="M 4.203125 54.6875 
L 13.1875 54.6875 
L 24.421875 12.015625 
L 35.59375 54.6875 
L 46.1875 54.6875 
L 57.421875 12.015625 
L 68.609375 54.6875 
L 77.59375 54.6875 
L 63.28125 0 
L 52.6875 0 
L 40.921875 44.828125 
L 29.109375 0 
L 18.5 0 
z
" id="DejaVuSans-119"/>
      <path d="M 18.3125 70.21875 
L 18.3125 54.6875 
L 36.8125 54.6875 
L 36.8125 47.703125 
L 18.3125 47.703125 
L 18.3125 18.015625 
Q 18.3125 11.328125 20.140625 9.421875 
Q 21.96875 7.515625 27.59375 7.515625 
L 36.8125 7.515625 
L 36.8125 0 
L 27.59375 0 
Q 17.1875 0 13.234375 3.875 
Q 9.28125 7.765625 9.28125 18.015625 
L 9.28125 47.703125 
L 2.6875 47.703125 
L 2.6875 54.6875 
L 9.28125 54.6875 
L 9.28125 70.21875 
z
" id="DejaVuSans-116"/>
      <path d="M 54.890625 33.015625 
L 54.890625 0 
L 45.90625 0 
L 45.90625 32.71875 
Q 45.90625 40.484375 42.875 44.328125 
Q 39.84375 48.1875 33.796875 48.1875 
Q 26.515625 48.1875 22.3125 43.546875 
Q 18.109375 38.921875 18.109375 30.90625 
L 18.109375 0 
L 9.078125 0 
L 9.078125 75.984375 
L 18.109375 75.984375 
L 18.109375 46.1875 
Q 21.34375 51.125 25.703125 53.5625 
Q 30.078125 56 35.796875 56 
Q 45.21875 56 50.046875 50.171875 
Q 54.890625 44.34375 54.890625 33.015625 
z
" id="DejaVuSans-104"/>
      <path d="M 19.734375 29.5 
Q 14.453125 30.671875 12.15625 33.84375 
Q 10.453125 36.078125 10.453125 39.109375 
Q 10.453125 47.40625 18.359375 52.25 
Q 24.609375 56.0625 34.1875 56.0625 
Q 37.890625 56.0625 41.9375 55.46875 
Q 46 54.890625 50.53125 53.71875 
L 48.96875 45.5625 
Q 44.484375 46.96875 40.71875 47.609375 
Q 36.859375 48.25 33.40625 48.25 
Q 27.59375 48.25 23.78125 46 
Q 19.1875 43.3125 19.1875 39.40625 
Q 19.1875 36.8125 21.578125 35.015625 
Q 24.421875 32.859375 30.078125 32.859375 
L 37.640625 32.859375 
L 36.234375 25.4375 
L 29 25.4375 
Q 22.265625 25.4375 18.3125 22.953125 
Q 12.9375 19.578125 12.9375 14.3125 
Q 12.9375 10.984375 15.828125 8.796875 
Q 19.4375 6.0625 26.8125 6.0625 
Q 31.34375 6.0625 35.6875 6.9375 
Q 40.046875 7.859375 43.84375 9.671875 
L 42.1875 1.3125 
Q 37.546875 -0.046875 33.296875 -0.734375 
Q 29.046875 -1.421875 25.140625 -1.421875 
Q 13.53125 -1.421875 8.0625 3.03125 
Q 3.90625 6.453125 3.90625 12.203125 
Q 3.90625 19.96875 9.375 24.75 
Q 13.421875 28.328125 19.734375 29.5 
z
" id="DejaVuSans-Oblique-949"/>
     </defs>
     <g transform="translate(93.570833 321.697917)scale(0.2 -0.2)">
      <use transform="translate(0 0.015625)" xlink:href="#DejaVuSans-77"/>
      <use transform="translate(86.279297 0.015625)" xlink:href="#DejaVuSans-97"/>
      <use transform="translate(147.558594 0.015625)" xlink:href="#DejaVuSans-120"/>
      <use transform="translate(206.738281 0.015625)" xlink:href="#DejaVuSans-32"/>
      <use transform="translate(238.525391 0.015625)" xlink:href="#DejaVuSans-74"/>
      <use transform="translate(268.017578 0.015625)" xlink:href="#DejaVuSans-83"/>
      <use transform="translate(331.494141 0.015625)" xlink:href="#DejaVuSans-32"/>
      <use transform="translate(363.28125 0.015625)" xlink:href="#DejaVuSans-68"/>
      <use transform="translate(440.283203 0.015625)" xlink:href="#DejaVuSans-105"/>
      <use transform="translate(468.066406 0.015625)" xlink:href="#DejaVuSans-118"/>
      <use transform="translate(527.246094 0.015625)" xlink:href="#DejaVuSans-101"/>
      <use transform="translate(588.769531 0.015625)" xlink:href="#DejaVuSans-114"/>
      <use transform="translate(629.882812 0.015625)" xlink:href="#DejaVuSans-103"/>
      <use transform="translate(693.359375 0.015625)" xlink:href="#DejaVuSans-101"/>
      <use transform="translate(754.882812 0.015625)" xlink:href="#DejaVuSans-110"/>
      <use transform="translate(818.261719 0.015625)" xlink:href="#DejaVuSans-99"/>
      <use transform="translate(873.242188 0.015625)" xlink:href="#DejaVuSans-101"/>
      <use transform="translate(934.765625 0.015625)" xlink:href="#DejaVuSans-32"/>
      <use transform="translate(966.552734 0.015625)" xlink:href="#DejaVuSans-119"/>
      <use transform="translate(1048.339844 0.015625)" xlink:href="#DejaVuSans-105"/>
      <use transform="translate(1076.123047 0.015625)" xlink:href="#DejaVuSans-116"/>
      <use transform="translate(1115.332031 0.015625)" xlink:href="#DejaVuSans-104"/>
      <use transform="translate(1178.710938 0.015625)" xlink:href="#DejaVuSans-105"/>
      <use transform="translate(1206.494141 0.015625)" xlink:href="#DejaVuSans-110"/>
      <use transform="translate(1269.873047 0.015625)" xlink:href="#DejaVuSans-32"/>
      <use transform="translate(1301.660156 0.015625)" xlink:href="#DejaVuSans-Oblique-949"/>
     </g>
    </g>
   </g>
   <g id="matplotlib.axis_4">
    <g id="ytick_6">
     <g id="line2d_14">
      <g>
       <use style="stroke:#000000;stroke-width:1.6;" x="96.7" xlink:href="#m3e3068b9a1" y="36.617708"/>
      </g>
     </g>
     <g id="text_17">
      <!-- [0.00, -->
      <defs>
       <path d="M 8.59375 75.984375 
L 29.296875 75.984375 
L 29.296875 69 
L 17.578125 69 
L 17.578125 -6.203125 
L 29.296875 -6.203125 
L 29.296875 -13.1875 
L 8.59375 -13.1875 
z
" id="DejaVuSans-91"/>
       <path d="M 11.71875 12.40625 
L 22.015625 12.40625 
L 22.015625 4 
L 14.015625 -11.625 
L 7.71875 -11.625 
L 11.71875 4 
z
" id="DejaVuSans-44"/>
      </defs>
      <g transform="translate(23.309375 33.018333)scale(0.2 -0.2)">
       <use xlink:href="#DejaVuSans-91"/>
       <use x="39.013672" xlink:href="#DejaVuSans-48"/>
       <use x="102.636719" xlink:href="#DejaVuSans-46"/>
       <use x="134.423828" xlink:href="#DejaVuSans-48"/>
       <use x="198.046875" xlink:href="#DejaVuSans-48"/>
       <use x="261.669922" xlink:href="#DejaVuSans-44"/>
      </g>
      <!-- 0.25) -->
      <defs>
       <path d="M 8.015625 75.875 
L 15.828125 75.875 
Q 23.140625 64.359375 26.78125 53.3125 
Q 30.421875 42.28125 30.421875 31.390625 
Q 30.421875 20.453125 26.78125 9.375 
Q 23.140625 -1.703125 15.828125 -13.1875 
L 8.015625 -13.1875 
Q 14.5 -2 17.703125 9.0625 
Q 20.90625 20.125 20.90625 31.390625 
Q 20.90625 42.671875 17.703125 53.65625 
Q 14.5 64.65625 8.015625 75.875 
z
" id="DejaVuSans-41"/>
      </defs>
      <g transform="translate(29.665625 55.413958)scale(0.2 -0.2)">
       <use xlink:href="#DejaVuSans-48"/>
       <use x="63.623047" xlink:href="#DejaVuSans-46"/>
       <use x="95.410156" xlink:href="#DejaVuSans-50"/>
       <use x="159.033203" xlink:href="#DejaVuSans-53"/>
       <use x="222.65625" xlink:href="#DejaVuSans-41"/>
      </g>
     </g>
    </g>
    <g id="ytick_7">
     <g id="line2d_15">
      <g>
       <use style="stroke:#000000;stroke-width:1.6;" x="96.7" xlink:href="#m3e3068b9a1" y="102.853125"/>
      </g>
     </g>
     <g id="text_18">
      <!-- [0.25, -->
      <g transform="translate(23.309375 99.25375)scale(0.2 -0.2)">
       <use xlink:href="#DejaVuSans-91"/>
       <use x="39.013672" xlink:href="#DejaVuSans-48"/>
       <use x="102.636719" xlink:href="#DejaVuSans-46"/>
       <use x="134.423828" xlink:href="#DejaVuSans-50"/>
       <use x="198.046875" xlink:href="#DejaVuSans-53"/>
       <use x="261.669922" xlink:href="#DejaVuSans-44"/>
      </g>
      <!-- 0.50) -->
      <g transform="translate(29.665625 121.649375)scale(0.2 -0.2)">
       <use xlink:href="#DejaVuSans-48"/>
       <use x="63.623047" xlink:href="#DejaVuSans-46"/>
       <use x="95.410156" xlink:href="#DejaVuSans-53"/>
       <use x="159.033203" xlink:href="#DejaVuSans-48"/>
       <use x="222.65625" xlink:href="#DejaVuSans-41"/>
      </g>
     </g>
    </g>
    <g id="ytick_8">
     <g id="line2d_16">
      <g>
       <use style="stroke:#000000;stroke-width:1.6;" x="96.7" xlink:href="#m3e3068b9a1" y="169.088542"/>
      </g>
     </g>
     <g id="text_19">
      <!-- [0.50, -->
      <g transform="translate(23.309375 165.489167)scale(0.2 -0.2)">
       <use xlink:href="#DejaVuSans-91"/>
       <use x="39.013672" xlink:href="#DejaVuSans-48"/>
       <use x="102.636719" xlink:href="#DejaVuSans-46"/>
       <use x="134.423828" xlink:href="#DejaVuSans-53"/>
       <use x="198.046875" xlink:href="#DejaVuSans-48"/>
       <use x="261.669922" xlink:href="#DejaVuSans-44"/>
      </g>
      <!-- 0.75) -->
      <defs>
       <path d="M 8.203125 72.90625 
L 55.078125 72.90625 
L 55.078125 68.703125 
L 28.609375 0 
L 18.3125 0 
L 43.21875 64.59375 
L 8.203125 64.59375 
z
" id="DejaVuSans-55"/>
      </defs>
      <g transform="translate(29.665625 187.884792)scale(0.2 -0.2)">
       <use xlink:href="#DejaVuSans-48"/>
       <use x="63.623047" xlink:href="#DejaVuSans-46"/>
       <use x="95.410156" xlink:href="#DejaVuSans-55"/>
       <use x="159.033203" xlink:href="#DejaVuSans-53"/>
       <use x="222.65625" xlink:href="#DejaVuSans-41"/>
      </g>
     </g>
    </g>
    <g id="ytick_9">
     <g id="line2d_17">
      <g>
       <use style="stroke:#000000;stroke-width:1.6;" x="96.7" xlink:href="#m3e3068b9a1" y="235.323958"/>
      </g>
     </g>
     <g id="text_20">
      <!-- [0.75, -->
      <g transform="translate(23.309375 231.724583)scale(0.2 -0.2)">
       <use xlink:href="#DejaVuSans-91"/>
       <use x="39.013672" xlink:href="#DejaVuSans-48"/>
       <use x="102.636719" xlink:href="#DejaVuSans-46"/>
       <use x="134.423828" xlink:href="#DejaVuSans-55"/>
       <use x="198.046875" xlink:href="#DejaVuSans-53"/>
       <use x="261.669922" xlink:href="#DejaVuSans-44"/>
      </g>
      <!-- 1.00) -->
      <g transform="translate(29.665625 254.120208)scale(0.2 -0.2)">
       <use xlink:href="#DejaVuSans-49"/>
       <use x="63.623047" xlink:href="#DejaVuSans-46"/>
       <use x="95.410156" xlink:href="#DejaVuSans-48"/>
       <use x="159.033203" xlink:href="#DejaVuSans-48"/>
       <use x="222.65625" xlink:href="#DejaVuSans-41"/>
      </g>
     </g>
    </g>
    <g id="text_21">
     <!-- Max Attention -->
     <defs>
      <path d="M 34.1875 63.1875 
L 20.796875 26.90625 
L 47.609375 26.90625 
z
M 28.609375 72.90625 
L 39.796875 72.90625 
L 67.578125 0 
L 57.328125 0 
L 50.6875 18.703125 
L 17.828125 18.703125 
L 11.1875 0 
L 0.78125 0 
z
" id="DejaVuSans-65"/>
      <path d="M 30.609375 48.390625 
Q 23.390625 48.390625 19.1875 42.75 
Q 14.984375 37.109375 14.984375 27.296875 
Q 14.984375 17.484375 19.15625 11.84375 
Q 23.34375 6.203125 30.609375 6.203125 
Q 37.796875 6.203125 41.984375 11.859375 
Q 46.1875 17.53125 46.1875 27.296875 
Q 46.1875 37.015625 41.984375 42.703125 
Q 37.796875 48.390625 30.609375 48.390625 
z
M 30.609375 56 
Q 42.328125 56 49.015625 48.375 
Q 55.71875 40.765625 55.71875 27.296875 
Q 55.71875 13.875 49.015625 6.21875 
Q 42.328125 -1.421875 30.609375 -1.421875 
Q 18.84375 -1.421875 12.171875 6.21875 
Q 5.515625 13.875 5.515625 27.296875 
Q 5.515625 40.765625 12.171875 48.375 
Q 18.84375 56 30.609375 56 
z
" id="DejaVuSans-111"/>
     </defs>
     <g transform="translate(15.15 206.148958)rotate(-90)scale(0.2 -0.2)">
      <use xlink:href="#DejaVuSans-77"/>
      <use x="86.279297" xlink:href="#DejaVuSans-97"/>
      <use x="147.558594" xlink:href="#DejaVuSans-120"/>
      <use x="206.738281" xlink:href="#DejaVuSans-32"/>
      <use x="238.525391" xlink:href="#DejaVuSans-65"/>
      <use x="306.917969" xlink:href="#DejaVuSans-116"/>
      <use x="346.126953" xlink:href="#DejaVuSans-116"/>
      <use x="385.335938" xlink:href="#DejaVuSans-101"/>
      <use x="446.859375" xlink:href="#DejaVuSans-110"/>
      <use x="510.238281" xlink:href="#DejaVuSans-116"/>
      <use x="549.447266" xlink:href="#DejaVuSans-105"/>
      <use x="577.230469" xlink:href="#DejaVuSans-111"/>
      <use x="638.412109" xlink:href="#DejaVuSans-110"/>
     </g>
    </g>
   </g>
   <g id="line2d_18">
    <path clip-path="url(#p52a1c6fca9)" d="M 314.459976 12.572363 
L 314.459976 34.168887 
" style="fill:none;stroke:#424242;stroke-dasharray:1.5,1.5;stroke-dashoffset:0;"/>
   </g>
   <g id="line2d_19">
    <path clip-path="url(#p52a1c6fca9)" d="M 323.158169 10.471926 
L 323.158169 36.269324 
" style="fill:none;stroke:#424242;stroke-dasharray:3,3;stroke-dashoffset:0;"/>
   </g>
   <g id="line2d_20">
    <path clip-path="url(#p52a1c6fca9)" d="M 332.71538 14.612312 
L 332.71538 32.128938 
" style="fill:none;stroke:#424242;stroke-dasharray:1.5,1.5;stroke-dashoffset:0;"/>
   </g>
   <g id="line2d_21">
    <path clip-path="url(#p52a1c6fca9)" d="M 321.916437 40.304623 
L 321.916437 59.42496 
" style="fill:none;stroke:#424242;stroke-dasharray:1.5,1.5;stroke-dashoffset:0;"/>
   </g>
   <g id="line2d_22">
    <path clip-path="url(#p52a1c6fca9)" d="M 333.362811 42.152008 
L 333.362811 57.577576 
" style="fill:none;stroke:#424242;stroke-dasharray:3,3;stroke-dashoffset:0;"/>
   </g>
   <g id="line2d_23">
    <path clip-path="url(#p52a1c6fca9)" d="M 350.665235 38.693376 
L 350.665235 61.036207 
" style="fill:none;stroke:#424242;stroke-dasharray:1.5,1.5;stroke-dashoffset:0;"/>
   </g>
   <g id="line2d_24">
    <path clip-path="url(#p52a1c6fca9)" d="M 344.921738 79.519489 
L 344.921738 99.692594 
" style="fill:none;stroke:#424242;stroke-dasharray:1.5,1.5;stroke-dashoffset:0;"/>
   </g>
   <g id="line2d_25">
    <path clip-path="url(#p52a1c6fca9)" d="M 351.09256 76.520046 
L 351.09256 102.692037 
" style="fill:none;stroke:#424242;stroke-dasharray:3,3;stroke-dashoffset:0;"/>
   </g>
   <g id="line2d_26">
    <path clip-path="url(#p52a1c6fca9)" d="M 352.734297 76.586933 
L 352.734297 102.62515 
" style="fill:none;stroke:#424242;stroke-dasharray:1.5,1.5;stroke-dashoffset:0;"/>
   </g>
   <g id="line2d_27">
    <path clip-path="url(#p52a1c6fca9)" d="M 339.938776 108.279282 
L 339.938776 123.921134 
" style="fill:none;stroke:#424242;stroke-dasharray:1.5,1.5;stroke-dashoffset:0;"/>
   </g>
   <g id="line2d_28">
    <path clip-path="url(#p52a1c6fca9)" d="M 348.199153 104.444596 
L 348.199153 127.755821 
" style="fill:none;stroke:#424242;stroke-dasharray:3,3;stroke-dashoffset:0;"/>
   </g>
   <g id="line2d_29">
    <path clip-path="url(#p52a1c6fca9)" d="M 350.574149 104.542728 
L 350.574149 127.657688 
" style="fill:none;stroke:#424242;stroke-dasharray:1.5,1.5;stroke-dashoffset:0;"/>
   </g>
   <g id="patch_88">
    <path d="M 96.7 268.441667 
L 96.7 3.5 
" style="fill:none;stroke:#000000;stroke-linecap:square;stroke-linejoin:miter;stroke-width:0.8;"/>
   </g>
   <g id="patch_89">
    <path d="M 96.7 268.441667 
L 361.641667 268.441667 
" style="fill:none;stroke:#000000;stroke-linecap:square;stroke-linejoin:miter;stroke-width:0.8;"/>
   </g>
  </g>
 </g>
 <defs>
  <clipPath id="p8245403594">
   <rect height="264.941667" width="264.941667" x="-272.041667" y="3.5"/>
  </clipPath>
  <clipPath id="p52a1c6fca9">
   <rect height="264.941667" width="264.941667" x="96.7" y="3.5"/>
  </clipPath>
 </defs>
</svg>
