<?xml version="1.0" encoding="utf-8" standalone="no"?>
<!DOCTYPE svg PUBLIC "-//W3C//DTD SVG 1.1//EN"
  "http://www.w3.org/Graphics/SVG/1.1/DTD/svg11.dtd">
<!-- Created with matplotlib (https://matplotlib.org/) -->
<svg height="319.061667pt" version="1.1" viewBox="0 0 360.351536 319.061667" width="360.351536pt" xmlns="http://www.w3.org/2000/svg" xmlns:xlink="http://www.w3.org/1999/xlink">
 <defs>
  <style type="text/css">
*{stroke-linecap:butt;stroke-linejoin:round;}
  </style>
 </defs>
 <g id="figure_1">
  <g id="patch_1">
   <path d="M 0 319.061667 
L 360.351536 319.061667 
L 360.351536 0 
L 0 0 
z
" style="fill:#ffffff;"/>
  </g>
  <g id="axes_1">
   <g id="patch_2">
    <path d="M -269.521667 258.361667 
L -14.66 258.361667 
L -14.66 3.5 
L -269.521667 3.5 
z
" style="fill:#ffffff;"/>
   </g>
   <g id="patch_3">
    <path clip-path="url(#p36a1cb1c24)" d="M -257.937045 258.361667 
L -252.144735 258.361667 
L -252.144735 258.361667 
L -257.937045 258.361667 
z
" style="fill:#43406b;opacity:0.6;stroke:#000000;stroke-linejoin:miter;stroke-width:0.5;"/>
   </g>
   <g id="patch_4">
    <path clip-path="url(#p36a1cb1c24)" d="M -252.144735 258.361667 
L -246.352424 258.361667 
L -246.352424 258.361667 
L -252.144735 258.361667 
z
" style="fill:#43406b;opacity:0.6;stroke:#000000;stroke-linejoin:miter;stroke-width:0.5;"/>
   </g>
   <g id="patch_5">
    <path clip-path="url(#p36a1cb1c24)" d="M -246.352424 258.361667 
L -240.560114 258.361667 
L -240.560114 258.361667 
L -246.352424 258.361667 
z
" style="fill:#43406b;opacity:0.6;stroke:#000000;stroke-linejoin:miter;stroke-width:0.5;"/>
   </g>
   <g id="patch_6">
    <path clip-path="url(#p36a1cb1c24)" d="M -240.560114 258.361667 
L -234.767803 258.361667 
L -234.767803 258.361667 
L -240.560114 258.361667 
z
" style="fill:#43406b;opacity:0.6;stroke:#000000;stroke-linejoin:miter;stroke-width:0.5;"/>
   </g>
   <g id="patch_7">
    <path clip-path="url(#p36a1cb1c24)" d="M -234.767803 258.361667 
L -228.975492 258.361667 
L -228.975492 258.361667 
L -234.767803 258.361667 
z
" style="fill:#43406b;opacity:0.6;stroke:#000000;stroke-linejoin:miter;stroke-width:0.5;"/>
   </g>
   <g id="patch_8">
    <path clip-path="url(#p36a1cb1c24)" d="M -228.975492 258.361667 
L -223.183182 258.361667 
L -223.183182 258.361667 
L -228.975492 258.361667 
z
" style="fill:#43406b;opacity:0.6;stroke:#000000;stroke-linejoin:miter;stroke-width:0.5;"/>
   </g>
   <g id="patch_9">
    <path clip-path="url(#p36a1cb1c24)" d="M -223.183182 258.361667 
L -217.390871 258.361667 
L -217.390871 258.361667 
L -223.183182 258.361667 
z
" style="fill:#43406b;opacity:0.6;stroke:#000000;stroke-linejoin:miter;stroke-width:0.5;"/>
   </g>
   <g id="patch_10">
    <path clip-path="url(#p36a1cb1c24)" d="M -217.390871 258.361667 
L -211.598561 258.361667 
L -211.598561 258.361667 
L -217.390871 258.361667 
z
" style="fill:#43406b;opacity:0.6;stroke:#000000;stroke-linejoin:miter;stroke-width:0.5;"/>
   </g>
   <g id="patch_11">
    <path clip-path="url(#p36a1cb1c24)" d="M -211.598561 258.361667 
L -205.80625 258.361667 
L -205.80625 258.361667 
L -211.598561 258.361667 
z
" style="fill:#43406b;opacity:0.6;stroke:#000000;stroke-linejoin:miter;stroke-width:0.5;"/>
   </g>
   <g id="patch_12">
    <path clip-path="url(#p36a1cb1c24)" d="M -205.80625 258.361667 
L -200.013939 258.361667 
L -200.013939 258.361667 
L -205.80625 258.361667 
z
" style="fill:#43406b;opacity:0.6;stroke:#000000;stroke-linejoin:miter;stroke-width:0.5;"/>
   </g>
   <g id="patch_13">
    <path clip-path="url(#p36a1cb1c24)" d="M -200.013939 258.361667 
L -194.221629 258.361667 
L -194.221629 258.361667 
L -200.013939 258.361667 
z
" style="fill:#43406b;opacity:0.6;stroke:#000000;stroke-linejoin:miter;stroke-width:0.5;"/>
   </g>
   <g id="patch_14">
    <path clip-path="url(#p36a1cb1c24)" d="M -194.221629 258.361667 
L -188.429318 258.361667 
L -188.429318 258.361667 
L -194.221629 258.361667 
z
" style="fill:#43406b;opacity:0.6;stroke:#000000;stroke-linejoin:miter;stroke-width:0.5;"/>
   </g>
   <g id="patch_15">
    <path clip-path="url(#p36a1cb1c24)" d="M -188.429318 258.361667 
L -182.637008 258.361667 
L -182.637008 258.361667 
L -188.429318 258.361667 
z
" style="fill:#43406b;opacity:0.6;stroke:#000000;stroke-linejoin:miter;stroke-width:0.5;"/>
   </g>
   <g id="patch_16">
    <path clip-path="url(#p36a1cb1c24)" d="M -182.637008 258.361667 
L -176.844697 258.361667 
L -176.844697 258.361667 
L -182.637008 258.361667 
z
" style="fill:#43406b;opacity:0.6;stroke:#000000;stroke-linejoin:miter;stroke-width:0.5;"/>
   </g>
   <g id="patch_17">
    <path clip-path="url(#p36a1cb1c24)" d="M -176.844697 258.361667 
L -171.052386 258.361667 
L -171.052386 258.361667 
L -176.844697 258.361667 
z
" style="fill:#43406b;opacity:0.6;stroke:#000000;stroke-linejoin:miter;stroke-width:0.5;"/>
   </g>
   <g id="patch_18">
    <path clip-path="url(#p36a1cb1c24)" d="M -171.052386 258.361667 
L -165.260076 258.361667 
L -165.260076 258.361667 
L -171.052386 258.361667 
z
" style="fill:#43406b;opacity:0.6;stroke:#000000;stroke-linejoin:miter;stroke-width:0.5;"/>
   </g>
   <g id="patch_19">
    <path clip-path="url(#p36a1cb1c24)" d="M -165.260076 258.361667 
L -159.467765 258.361667 
L -159.467765 258.361667 
L -165.260076 258.361667 
z
" style="fill:#43406b;opacity:0.6;stroke:#000000;stroke-linejoin:miter;stroke-width:0.5;"/>
   </g>
   <g id="patch_20">
    <path clip-path="url(#p36a1cb1c24)" d="M -159.467765 258.361667 
L -153.675455 258.361667 
L -153.675455 258.361667 
L -159.467765 258.361667 
z
" style="fill:#43406b;opacity:0.6;stroke:#000000;stroke-linejoin:miter;stroke-width:0.5;"/>
   </g>
   <g id="patch_21">
    <path clip-path="url(#p36a1cb1c24)" d="M -153.675455 258.361667 
L -147.883144 258.361667 
L -147.883144 258.361667 
L -153.675455 258.361667 
z
" style="fill:#43406b;opacity:0.6;stroke:#000000;stroke-linejoin:miter;stroke-width:0.5;"/>
   </g>
   <g id="patch_22">
    <path clip-path="url(#p36a1cb1c24)" d="M -147.883144 258.361667 
L -142.090833 258.361667 
L -142.090833 258.361667 
L -147.883144 258.361667 
z
" style="fill:#43406b;opacity:0.6;stroke:#000000;stroke-linejoin:miter;stroke-width:0.5;"/>
   </g>
   <g id="patch_23">
    <path clip-path="url(#p36a1cb1c24)" d="M -142.090833 258.361667 
L -136.298523 258.361667 
L -136.298523 258.361667 
L -142.090833 258.361667 
z
" style="fill:#43406b;opacity:0.6;stroke:#000000;stroke-linejoin:miter;stroke-width:0.5;"/>
   </g>
   <g id="patch_24">
    <path clip-path="url(#p36a1cb1c24)" d="M -136.298523 258.361667 
L -130.506212 258.361667 
L -130.506212 258.361667 
L -136.298523 258.361667 
z
" style="fill:#43406b;opacity:0.6;stroke:#000000;stroke-linejoin:miter;stroke-width:0.5;"/>
   </g>
   <g id="patch_25">
    <path clip-path="url(#p36a1cb1c24)" d="M -130.506212 258.361667 
L -124.713902 258.361667 
L -124.713902 258.361667 
L -130.506212 258.361667 
z
" style="fill:#43406b;opacity:0.6;stroke:#000000;stroke-linejoin:miter;stroke-width:0.5;"/>
   </g>
   <g id="patch_26">
    <path clip-path="url(#p36a1cb1c24)" d="M -124.713902 258.361667 
L -118.921591 258.361667 
L -118.921591 256.863362 
L -124.713902 256.863362 
z
" style="fill:#43406b;opacity:0.6;stroke:#000000;stroke-linejoin:miter;stroke-width:0.5;"/>
   </g>
   <g id="patch_27">
    <path clip-path="url(#p36a1cb1c24)" d="M -118.921591 258.361667 
L -113.12928 258.361667 
L -113.12928 258.361667 
L -118.921591 258.361667 
z
" style="fill:#43406b;opacity:0.6;stroke:#000000;stroke-linejoin:miter;stroke-width:0.5;"/>
   </g>
   <g id="patch_28">
    <path clip-path="url(#p36a1cb1c24)" d="M -113.12928 258.361667 
L -107.33697 258.361667 
L -107.33697 256.863362 
L -113.12928 256.863362 
z
" style="fill:#43406b;opacity:0.6;stroke:#000000;stroke-linejoin:miter;stroke-width:0.5;"/>
   </g>
   <g id="patch_29">
    <path clip-path="url(#p36a1cb1c24)" d="M -107.33697 258.361667 
L -101.544659 258.361667 
L -101.544659 258.361667 
L -107.33697 258.361667 
z
" style="fill:#43406b;opacity:0.6;stroke:#000000;stroke-linejoin:miter;stroke-width:0.5;"/>
   </g>
   <g id="patch_30">
    <path clip-path="url(#p36a1cb1c24)" d="M -101.544659 258.361667 
L -95.752348 258.361667 
L -95.752348 253.866752 
L -101.544659 253.866752 
z
" style="fill:#43406b;opacity:0.6;stroke:#000000;stroke-linejoin:miter;stroke-width:0.5;"/>
   </g>
   <g id="patch_31">
    <path clip-path="url(#p36a1cb1c24)" d="M -95.752348 258.361667 
L -89.960038 258.361667 
L -89.960038 238.883703 
L -95.752348 238.883703 
z
" style="fill:#43406b;opacity:0.6;stroke:#000000;stroke-linejoin:miter;stroke-width:0.5;"/>
   </g>
   <g id="patch_32">
    <path clip-path="url(#p36a1cb1c24)" d="M -89.960038 258.361667 
L -84.167727 258.361667 
L -84.167727 207.419299 
L -89.960038 207.419299 
z
" style="fill:#43406b;opacity:0.6;stroke:#000000;stroke-linejoin:miter;stroke-width:0.5;"/>
   </g>
   <g id="patch_33">
    <path clip-path="url(#p36a1cb1c24)" d="M -84.167727 258.361667 
L -78.375417 258.361667 
L -78.375417 151.982017 
L -84.167727 151.982017 
z
" style="fill:#43406b;opacity:0.6;stroke:#000000;stroke-linejoin:miter;stroke-width:0.5;"/>
   </g>
   <g id="patch_34">
    <path clip-path="url(#p36a1cb1c24)" d="M -78.375417 258.361667 
L -72.583106 258.361667 
L -72.583106 26.124404 
L -78.375417 26.124404 
z
" style="fill:#43406b;opacity:0.6;stroke:#000000;stroke-linejoin:miter;stroke-width:0.5;"/>
   </g>
   <g id="patch_35">
    <path clip-path="url(#p36a1cb1c24)" d="M -72.583106 258.361667 
L -66.790795 258.361667 
L -66.790795 15.63627 
L -72.583106 15.63627 
z
" style="fill:#43406b;opacity:0.6;stroke:#000000;stroke-linejoin:miter;stroke-width:0.5;"/>
   </g>
   <g id="patch_36">
    <path clip-path="url(#p36a1cb1c24)" d="M -66.790795 258.361667 
L -60.998485 258.361667 
L -60.998485 123.514224 
L -66.790795 123.514224 
z
" style="fill:#43406b;opacity:0.6;stroke:#000000;stroke-linejoin:miter;stroke-width:0.5;"/>
   </g>
   <g id="patch_37">
    <path clip-path="url(#p36a1cb1c24)" d="M -60.998485 258.361667 
L -55.206174 258.361667 
L -55.206174 193.934555 
L -60.998485 193.934555 
z
" style="fill:#43406b;opacity:0.6;stroke:#000000;stroke-linejoin:miter;stroke-width:0.5;"/>
   </g>
   <g id="patch_38">
    <path clip-path="url(#p36a1cb1c24)" d="M -55.206174 258.361667 
L -49.413864 258.361667 
L -49.413864 217.907434 
L -55.206174 217.907434 
z
" style="fill:#43406b;opacity:0.6;stroke:#000000;stroke-linejoin:miter;stroke-width:0.5;"/>
   </g>
   <g id="patch_39">
    <path clip-path="url(#p36a1cb1c24)" d="M -49.413864 258.361667 
L -43.621553 258.361667 
L -43.621553 232.890483 
L -49.413864 232.890483 
z
" style="fill:#43406b;opacity:0.6;stroke:#000000;stroke-linejoin:miter;stroke-width:0.5;"/>
   </g>
   <g id="patch_40">
    <path clip-path="url(#p36a1cb1c24)" d="M -43.621553 258.361667 
L -37.829242 258.361667 
L -37.829242 241.880313 
L -43.621553 241.880313 
z
" style="fill:#43406b;opacity:0.6;stroke:#000000;stroke-linejoin:miter;stroke-width:0.5;"/>
   </g>
   <g id="patch_41">
    <path clip-path="url(#p36a1cb1c24)" d="M -37.829242 258.361667 
L -32.036932 258.361667 
L -32.036932 246.375227 
L -37.829242 246.375227 
z
" style="fill:#43406b;opacity:0.6;stroke:#000000;stroke-linejoin:miter;stroke-width:0.5;"/>
   </g>
   <g id="patch_42">
    <path clip-path="url(#p36a1cb1c24)" d="M -32.036932 258.361667 
L -26.244621 258.361667 
L -26.244621 258.361667 
L -32.036932 258.361667 
z
" style="fill:#43406b;opacity:0.6;stroke:#000000;stroke-linejoin:miter;stroke-width:0.5;"/>
   </g>
   <g id="patch_43">
    <path clip-path="url(#p36a1cb1c24)" d="M -257.937045 258.361667 
L -252.144735 258.361667 
L -252.144735 234.237061 
L -257.937045 234.237061 
z
" style="fill:#d15a00;opacity:0.6;stroke:#000000;stroke-linejoin:miter;stroke-width:0.5;"/>
   </g>
   <g id="patch_44">
    <path clip-path="url(#p36a1cb1c24)" d="M -252.144735 258.361667 
L -246.352424 258.361667 
L -246.352424 258.361667 
L -252.144735 258.361667 
z
" style="fill:#d15a00;opacity:0.6;stroke:#000000;stroke-linejoin:miter;stroke-width:0.5;"/>
   </g>
   <g id="patch_45">
    <path clip-path="url(#p36a1cb1c24)" d="M -246.352424 258.361667 
L -240.560114 258.361667 
L -240.560114 258.361667 
L -246.352424 258.361667 
z
" style="fill:#d15a00;opacity:0.6;stroke:#000000;stroke-linejoin:miter;stroke-width:0.5;"/>
   </g>
   <g id="patch_46">
    <path clip-path="url(#p36a1cb1c24)" d="M -240.560114 258.361667 
L -234.767803 258.361667 
L -234.767803 252.330515 
L -240.560114 252.330515 
z
" style="fill:#d15a00;opacity:0.6;stroke:#000000;stroke-linejoin:miter;stroke-width:0.5;"/>
   </g>
   <g id="patch_47">
    <path clip-path="url(#p36a1cb1c24)" d="M -234.767803 258.361667 
L -228.975492 258.361667 
L -228.975492 258.361667 
L -234.767803 258.361667 
z
" style="fill:#d15a00;opacity:0.6;stroke:#000000;stroke-linejoin:miter;stroke-width:0.5;"/>
   </g>
   <g id="patch_48">
    <path clip-path="url(#p36a1cb1c24)" d="M -228.975492 258.361667 
L -223.183182 258.361667 
L -223.183182 234.237061 
L -228.975492 234.237061 
z
" style="fill:#d15a00;opacity:0.6;stroke:#000000;stroke-linejoin:miter;stroke-width:0.5;"/>
   </g>
   <g id="patch_49">
    <path clip-path="url(#p36a1cb1c24)" d="M -223.183182 258.361667 
L -217.390871 258.361667 
L -217.390871 252.330515 
L -223.183182 252.330515 
z
" style="fill:#d15a00;opacity:0.6;stroke:#000000;stroke-linejoin:miter;stroke-width:0.5;"/>
   </g>
   <g id="patch_50">
    <path clip-path="url(#p36a1cb1c24)" d="M -217.390871 258.361667 
L -211.598561 258.361667 
L -211.598561 240.268212 
L -217.390871 240.268212 
z
" style="fill:#d15a00;opacity:0.6;stroke:#000000;stroke-linejoin:miter;stroke-width:0.5;"/>
   </g>
   <g id="patch_51">
    <path clip-path="url(#p36a1cb1c24)" d="M -211.598561 258.361667 
L -205.80625 258.361667 
L -205.80625 246.299364 
L -211.598561 246.299364 
z
" style="fill:#d15a00;opacity:0.6;stroke:#000000;stroke-linejoin:miter;stroke-width:0.5;"/>
   </g>
   <g id="patch_52">
    <path clip-path="url(#p36a1cb1c24)" d="M -205.80625 258.361667 
L -200.013939 258.361667 
L -200.013939 258.361667 
L -205.80625 258.361667 
z
" style="fill:#d15a00;opacity:0.6;stroke:#000000;stroke-linejoin:miter;stroke-width:0.5;"/>
   </g>
   <g id="patch_53">
    <path clip-path="url(#p36a1cb1c24)" d="M -200.013939 258.361667 
L -194.221629 258.361667 
L -194.221629 222.174758 
L -200.013939 222.174758 
z
" style="fill:#d15a00;opacity:0.6;stroke:#000000;stroke-linejoin:miter;stroke-width:0.5;"/>
   </g>
   <g id="patch_54">
    <path clip-path="url(#p36a1cb1c24)" d="M -194.221629 258.361667 
L -188.429318 258.361667 
L -188.429318 246.299364 
L -194.221629 246.299364 
z
" style="fill:#d15a00;opacity:0.6;stroke:#000000;stroke-linejoin:miter;stroke-width:0.5;"/>
   </g>
   <g id="patch_55">
    <path clip-path="url(#p36a1cb1c24)" d="M -188.429318 258.361667 
L -182.637008 258.361667 
L -182.637008 258.361667 
L -188.429318 258.361667 
z
" style="fill:#d15a00;opacity:0.6;stroke:#000000;stroke-linejoin:miter;stroke-width:0.5;"/>
   </g>
   <g id="patch_56">
    <path clip-path="url(#p36a1cb1c24)" d="M -182.637008 258.361667 
L -176.844697 258.361667 
L -176.844697 240.268212 
L -182.637008 240.268212 
z
" style="fill:#d15a00;opacity:0.6;stroke:#000000;stroke-linejoin:miter;stroke-width:0.5;"/>
   </g>
   <g id="patch_57">
    <path clip-path="url(#p36a1cb1c24)" d="M -176.844697 258.361667 
L -171.052386 258.361667 
L -171.052386 234.237061 
L -176.844697 234.237061 
z
" style="fill:#d15a00;opacity:0.6;stroke:#000000;stroke-linejoin:miter;stroke-width:0.5;"/>
   </g>
   <g id="patch_58">
    <path clip-path="url(#p36a1cb1c24)" d="M -171.052386 258.361667 
L -165.260076 258.361667 
L -165.260076 240.268212 
L -171.052386 240.268212 
z
" style="fill:#d15a00;opacity:0.6;stroke:#000000;stroke-linejoin:miter;stroke-width:0.5;"/>
   </g>
   <g id="patch_59">
    <path clip-path="url(#p36a1cb1c24)" d="M -165.260076 258.361667 
L -159.467765 258.361667 
L -159.467765 222.174758 
L -165.260076 222.174758 
z
" style="fill:#d15a00;opacity:0.6;stroke:#000000;stroke-linejoin:miter;stroke-width:0.5;"/>
   </g>
   <g id="patch_60">
    <path clip-path="url(#p36a1cb1c24)" d="M -159.467765 258.361667 
L -153.675455 258.361667 
L -153.675455 240.268212 
L -159.467765 240.268212 
z
" style="fill:#d15a00;opacity:0.6;stroke:#000000;stroke-linejoin:miter;stroke-width:0.5;"/>
   </g>
   <g id="patch_61">
    <path clip-path="url(#p36a1cb1c24)" d="M -153.675455 258.361667 
L -147.883144 258.361667 
L -147.883144 234.237061 
L -153.675455 234.237061 
z
" style="fill:#d15a00;opacity:0.6;stroke:#000000;stroke-linejoin:miter;stroke-width:0.5;"/>
   </g>
   <g id="patch_62">
    <path clip-path="url(#p36a1cb1c24)" d="M -147.883144 258.361667 
L -142.090833 258.361667 
L -142.090833 258.361667 
L -147.883144 258.361667 
z
" style="fill:#d15a00;opacity:0.6;stroke:#000000;stroke-linejoin:miter;stroke-width:0.5;"/>
   </g>
   <g id="patch_63">
    <path clip-path="url(#p36a1cb1c24)" d="M -142.090833 258.361667 
L -136.298523 258.361667 
L -136.298523 234.237061 
L -142.090833 234.237061 
z
" style="fill:#d15a00;opacity:0.6;stroke:#000000;stroke-linejoin:miter;stroke-width:0.5;"/>
   </g>
   <g id="patch_64">
    <path clip-path="url(#p36a1cb1c24)" d="M -136.298523 258.361667 
L -130.506212 258.361667 
L -130.506212 216.143607 
L -136.298523 216.143607 
z
" style="fill:#d15a00;opacity:0.6;stroke:#000000;stroke-linejoin:miter;stroke-width:0.5;"/>
   </g>
   <g id="patch_65">
    <path clip-path="url(#p36a1cb1c24)" d="M -130.506212 258.361667 
L -124.713902 258.361667 
L -124.713902 234.237061 
L -130.506212 234.237061 
z
" style="fill:#d15a00;opacity:0.6;stroke:#000000;stroke-linejoin:miter;stroke-width:0.5;"/>
   </g>
   <g id="patch_66">
    <path clip-path="url(#p36a1cb1c24)" d="M -124.713902 258.361667 
L -118.921591 258.361667 
L -118.921591 246.299364 
L -124.713902 246.299364 
z
" style="fill:#d15a00;opacity:0.6;stroke:#000000;stroke-linejoin:miter;stroke-width:0.5;"/>
   </g>
   <g id="patch_67">
    <path clip-path="url(#p36a1cb1c24)" d="M -118.921591 258.361667 
L -113.12928 258.361667 
L -113.12928 228.205909 
L -118.921591 228.205909 
z
" style="fill:#d15a00;opacity:0.6;stroke:#000000;stroke-linejoin:miter;stroke-width:0.5;"/>
   </g>
   <g id="patch_68">
    <path clip-path="url(#p36a1cb1c24)" d="M -113.12928 258.361667 
L -107.33697 258.361667 
L -107.33697 216.143607 
L -113.12928 216.143607 
z
" style="fill:#d15a00;opacity:0.6;stroke:#000000;stroke-linejoin:miter;stroke-width:0.5;"/>
   </g>
   <g id="patch_69">
    <path clip-path="url(#p36a1cb1c24)" d="M -107.33697 258.361667 
L -101.544659 258.361667 
L -101.544659 198.050152 
L -107.33697 198.050152 
z
" style="fill:#d15a00;opacity:0.6;stroke:#000000;stroke-linejoin:miter;stroke-width:0.5;"/>
   </g>
   <g id="patch_70">
    <path clip-path="url(#p36a1cb1c24)" d="M -101.544659 258.361667 
L -95.752348 258.361667 
L -95.752348 204.081304 
L -101.544659 204.081304 
z
" style="fill:#d15a00;opacity:0.6;stroke:#000000;stroke-linejoin:miter;stroke-width:0.5;"/>
   </g>
   <g id="patch_71">
    <path clip-path="url(#p36a1cb1c24)" d="M -95.752348 258.361667 
L -89.960038 258.361667 
L -89.960038 228.205909 
L -95.752348 228.205909 
z
" style="fill:#d15a00;opacity:0.6;stroke:#000000;stroke-linejoin:miter;stroke-width:0.5;"/>
   </g>
   <g id="patch_72">
    <path clip-path="url(#p36a1cb1c24)" d="M -89.960038 258.361667 
L -84.167727 258.361667 
L -84.167727 198.050152 
L -89.960038 198.050152 
z
" style="fill:#d15a00;opacity:0.6;stroke:#000000;stroke-linejoin:miter;stroke-width:0.5;"/>
   </g>
   <g id="patch_73">
    <path clip-path="url(#p36a1cb1c24)" d="M -84.167727 258.361667 
L -78.375417 258.361667 
L -78.375417 192.019001 
L -84.167727 192.019001 
z
" style="fill:#d15a00;opacity:0.6;stroke:#000000;stroke-linejoin:miter;stroke-width:0.5;"/>
   </g>
   <g id="patch_74">
    <path clip-path="url(#p36a1cb1c24)" d="M -78.375417 258.361667 
L -72.583106 258.361667 
L -72.583106 204.081304 
L -78.375417 204.081304 
z
" style="fill:#d15a00;opacity:0.6;stroke:#000000;stroke-linejoin:miter;stroke-width:0.5;"/>
   </g>
   <g id="patch_75">
    <path clip-path="url(#p36a1cb1c24)" d="M -72.583106 258.361667 
L -66.790795 258.361667 
L -66.790795 216.143607 
L -72.583106 216.143607 
z
" style="fill:#d15a00;opacity:0.6;stroke:#000000;stroke-linejoin:miter;stroke-width:0.5;"/>
   </g>
   <g id="patch_76">
    <path clip-path="url(#p36a1cb1c24)" d="M -66.790795 258.361667 
L -60.998485 258.361667 
L -60.998485 210.112455 
L -66.790795 210.112455 
z
" style="fill:#d15a00;opacity:0.6;stroke:#000000;stroke-linejoin:miter;stroke-width:0.5;"/>
   </g>
   <g id="patch_77">
    <path clip-path="url(#p36a1cb1c24)" d="M -60.998485 258.361667 
L -55.206174 258.361667 
L -55.206174 222.174758 
L -60.998485 222.174758 
z
" style="fill:#d15a00;opacity:0.6;stroke:#000000;stroke-linejoin:miter;stroke-width:0.5;"/>
   </g>
   <g id="patch_78">
    <path clip-path="url(#p36a1cb1c24)" d="M -55.206174 258.361667 
L -49.413864 258.361667 
L -49.413864 240.268212 
L -55.206174 240.268212 
z
" style="fill:#d15a00;opacity:0.6;stroke:#000000;stroke-linejoin:miter;stroke-width:0.5;"/>
   </g>
   <g id="patch_79">
    <path clip-path="url(#p36a1cb1c24)" d="M -49.413864 258.361667 
L -43.621553 258.361667 
L -43.621553 234.237061 
L -49.413864 234.237061 
z
" style="fill:#d15a00;opacity:0.6;stroke:#000000;stroke-linejoin:miter;stroke-width:0.5;"/>
   </g>
   <g id="patch_80">
    <path clip-path="url(#p36a1cb1c24)" d="M -43.621553 258.361667 
L -37.829242 258.361667 
L -37.829242 252.330515 
L -43.621553 252.330515 
z
" style="fill:#d15a00;opacity:0.6;stroke:#000000;stroke-linejoin:miter;stroke-width:0.5;"/>
   </g>
   <g id="patch_81">
    <path clip-path="url(#p36a1cb1c24)" d="M -37.829242 258.361667 
L -32.036932 258.361667 
L -32.036932 258.361667 
L -37.829242 258.361667 
z
" style="fill:#d15a00;opacity:0.6;stroke:#000000;stroke-linejoin:miter;stroke-width:0.5;"/>
   </g>
   <g id="patch_82">
    <path clip-path="url(#p36a1cb1c24)" d="M -32.036932 258.361667 
L -26.244621 258.361667 
L -26.244621 258.361667 
L -32.036932 258.361667 
z
" style="fill:#d15a00;opacity:0.6;stroke:#000000;stroke-linejoin:miter;stroke-width:0.5;"/>
   </g>
   <g id="matplotlib.axis_1">
    <g id="xtick_1">
     <g id="line2d_1">
      <defs>
       <path d="M 0 0 
L 0 3.5 
" id="md72a079150" style="stroke:#000000;stroke-width:1.6;"/>
      </defs>
      <g/>
     </g>
     <g id="text_1">
      <!-- 0.0 -->
      <defs>
       <path d="M 31.78125 66.40625 
Q 24.171875 66.40625 20.328125 58.90625 
Q 16.5 51.421875 16.5 36.375 
Q 16.5 21.390625 20.328125 13.890625 
Q 24.171875 6.390625 31.78125 6.390625 
Q 39.453125 6.390625 43.28125 13.890625 
Q 47.125 21.390625 47.125 36.375 
Q 47.125 51.421875 43.28125 58.90625 
Q 39.453125 66.40625 31.78125 66.40625 
z
M 31.78125 74.21875 
Q 44.046875 74.21875 50.515625 64.515625 
Q 56.984375 54.828125 56.984375 36.375 
Q 56.984375 17.96875 50.515625 8.265625 
Q 44.046875 -1.421875 31.78125 -1.421875 
Q 19.53125 -1.421875 13.0625 8.265625 
Q 6.59375 17.96875 6.59375 36.375 
Q 6.59375 54.828125 13.0625 64.515625 
Q 19.53125 74.21875 31.78125 74.21875 
z
" id="DejaVuSans-48"/>
       <path d="M 10.6875 12.40625 
L 21 12.40625 
L 21 0 
L 10.6875 0 
z
" id="DejaVuSans-46"/>
      </defs>
      <g transform="translate(-273.84017 288.258542)scale(0.2 -0.2)">
       <use xlink:href="#DejaVuSans-48"/>
       <use x="63.623047" xlink:href="#DejaVuSans-46"/>
       <use x="95.410156" xlink:href="#DejaVuSans-48"/>
      </g>
     </g>
    </g>
    <g id="xtick_2">
     <g id="line2d_2">
      <g/>
     </g>
     <g id="text_2">
      <!-- 0.2 -->
      <defs>
       <path d="M 19.1875 8.296875 
L 53.609375 8.296875 
L 53.609375 0 
L 7.328125 0 
L 7.328125 8.296875 
Q 12.9375 14.109375 22.625 23.890625 
Q 32.328125 33.6875 34.8125 36.53125 
Q 39.546875 41.84375 41.421875 45.53125 
Q 43.3125 49.21875 43.3125 52.78125 
Q 43.3125 58.59375 39.234375 62.25 
Q 35.15625 65.921875 28.609375 65.921875 
Q 23.96875 65.921875 18.8125 64.3125 
Q 13.671875 62.703125 7.8125 59.421875 
L 7.8125 69.390625 
Q 13.765625 71.78125 18.9375 73 
Q 24.125 74.21875 28.421875 74.21875 
Q 39.75 74.21875 46.484375 68.546875 
Q 53.21875 62.890625 53.21875 53.421875 
Q 53.21875 48.921875 51.53125 44.890625 
Q 49.859375 40.875 45.40625 35.40625 
Q 44.1875 33.984375 37.640625 27.21875 
Q 31.109375 20.453125 19.1875 8.296875 
z
" id="DejaVuSans-50"/>
      </defs>
      <g transform="translate(-207.642335 288.258542)scale(0.2 -0.2)">
       <use xlink:href="#DejaVuSans-48"/>
       <use x="63.623047" xlink:href="#DejaVuSans-46"/>
       <use x="95.410156" xlink:href="#DejaVuSans-50"/>
      </g>
     </g>
    </g>
    <g id="xtick_3">
     <g id="line2d_3">
      <g/>
     </g>
     <g id="text_3">
      <!-- 0.4 -->
      <defs>
       <path d="M 37.796875 64.3125 
L 12.890625 25.390625 
L 37.796875 25.390625 
z
M 35.203125 72.90625 
L 47.609375 72.90625 
L 47.609375 25.390625 
L 58.015625 25.390625 
L 58.015625 17.1875 
L 47.609375 17.1875 
L 47.609375 0 
L 37.796875 0 
L 37.796875 17.1875 
L 4.890625 17.1875 
L 4.890625 26.703125 
z
" id="DejaVuSans-52"/>
      </defs>
      <g transform="translate(-141.444499 288.258542)scale(0.2 -0.2)">
       <use xlink:href="#DejaVuSans-48"/>
       <use x="63.623047" xlink:href="#DejaVuSans-46"/>
       <use x="95.410156" xlink:href="#DejaVuSans-52"/>
      </g>
     </g>
    </g>
    <g id="xtick_4">
     <g id="line2d_4">
      <g/>
     </g>
     <g id="text_4">
      <!-- 0.6 -->
      <defs>
       <path d="M 33.015625 40.375 
Q 26.375 40.375 22.484375 35.828125 
Q 18.609375 31.296875 18.609375 23.390625 
Q 18.609375 15.53125 22.484375 10.953125 
Q 26.375 6.390625 33.015625 6.390625 
Q 39.65625 6.390625 43.53125 10.953125 
Q 47.40625 15.53125 47.40625 23.390625 
Q 47.40625 31.296875 43.53125 35.828125 
Q 39.65625 40.375 33.015625 40.375 
z
M 52.59375 71.296875 
L 52.59375 62.3125 
Q 48.875 64.0625 45.09375 64.984375 
Q 41.3125 65.921875 37.59375 65.921875 
Q 27.828125 65.921875 22.671875 59.328125 
Q 17.53125 52.734375 16.796875 39.40625 
Q 19.671875 43.65625 24.015625 45.921875 
Q 28.375 48.1875 33.59375 48.1875 
Q 44.578125 48.1875 50.953125 41.515625 
Q 57.328125 34.859375 57.328125 23.390625 
Q 57.328125 12.15625 50.6875 5.359375 
Q 44.046875 -1.421875 33.015625 -1.421875 
Q 20.359375 -1.421875 13.671875 8.265625 
Q 6.984375 17.96875 6.984375 36.375 
Q 6.984375 53.65625 15.1875 63.9375 
Q 23.390625 74.21875 37.203125 74.21875 
Q 40.921875 74.21875 44.703125 73.484375 
Q 48.484375 72.75 52.59375 71.296875 
z
" id="DejaVuSans-54"/>
      </defs>
      <g transform="translate(-75.246664 288.258542)scale(0.2 -0.2)">
       <use xlink:href="#DejaVuSans-48"/>
       <use x="63.623047" xlink:href="#DejaVuSans-46"/>
       <use x="95.410156" xlink:href="#DejaVuSans-54"/>
      </g>
     </g>
    </g>
    <g id="text_5">
     <!--   -->
     <defs>
      <path id="DejaVuSans-32"/>
     </defs>
     <g transform="translate(-145.268958 311.614792)scale(0.2 -0.2)">
      <use xlink:href="#DejaVuSans-32"/>
     </g>
    </g>
   </g>
   <g id="matplotlib.axis_2">
    <g id="ytick_1">
     <g id="line2d_5">
      <defs>
       <path d="M 0 0 
L -3.5 0 
" id="m229766a851" style="stroke:#000000;stroke-width:1.6;"/>
      </defs>
      <g/>
     </g>
     <g id="text_6">
      <!-- 0.00 -->
      <g transform="translate(-328.752917 265.960104)scale(0.2 -0.2)">
       <use xlink:href="#DejaVuSans-48"/>
       <use x="63.623047" xlink:href="#DejaVuSans-46"/>
       <use x="95.410156" xlink:href="#DejaVuSans-48"/>
       <use x="159.033203" xlink:href="#DejaVuSans-48"/>
      </g>
     </g>
    </g>
    <g id="ytick_2">
     <g id="line2d_6">
      <g/>
     </g>
     <g id="text_7">
      <!-- 0.05 -->
      <defs>
       <path d="M 10.796875 72.90625 
L 49.515625 72.90625 
L 49.515625 64.59375 
L 19.828125 64.59375 
L 19.828125 46.734375 
Q 21.96875 47.46875 24.109375 47.828125 
Q 26.265625 48.1875 28.421875 48.1875 
Q 40.625 48.1875 47.75 41.5 
Q 54.890625 34.8125 54.890625 23.390625 
Q 54.890625 11.625 47.5625 5.09375 
Q 40.234375 -1.421875 26.90625 -1.421875 
Q 22.3125 -1.421875 17.546875 -0.640625 
Q 12.796875 0.140625 7.71875 1.703125 
L 7.71875 11.625 
Q 12.109375 9.234375 16.796875 8.0625 
Q 21.484375 6.890625 26.703125 6.890625 
Q 35.15625 6.890625 40.078125 11.328125 
Q 45.015625 15.765625 45.015625 23.390625 
Q 45.015625 31 40.078125 35.4375 
Q 35.15625 39.890625 26.703125 39.890625 
Q 22.75 39.890625 18.8125 39.015625 
Q 14.890625 38.140625 10.796875 36.28125 
z
" id="DejaVuSans-53"/>
      </defs>
      <g transform="translate(-328.752917 218.314008)scale(0.2 -0.2)">
       <use xlink:href="#DejaVuSans-48"/>
       <use x="63.623047" xlink:href="#DejaVuSans-46"/>
       <use x="95.410156" xlink:href="#DejaVuSans-48"/>
       <use x="159.033203" xlink:href="#DejaVuSans-53"/>
      </g>
     </g>
    </g>
    <g id="ytick_3">
     <g id="line2d_7">
      <g/>
     </g>
     <g id="text_8">
      <!-- 0.10 -->
      <defs>
       <path d="M 12.40625 8.296875 
L 28.515625 8.296875 
L 28.515625 63.921875 
L 10.984375 60.40625 
L 10.984375 69.390625 
L 28.421875 72.90625 
L 38.28125 72.90625 
L 38.28125 8.296875 
L 54.390625 8.296875 
L 54.390625 0 
L 12.40625 0 
z
" id="DejaVuSans-49"/>
      </defs>
      <g transform="translate(-328.752917 170.667911)scale(0.2 -0.2)">
       <use xlink:href="#DejaVuSans-48"/>
       <use x="63.623047" xlink:href="#DejaVuSans-46"/>
       <use x="95.410156" xlink:href="#DejaVuSans-49"/>
       <use x="159.033203" xlink:href="#DejaVuSans-48"/>
      </g>
     </g>
    </g>
    <g id="ytick_4">
     <g id="line2d_8">
      <g/>
     </g>
     <g id="text_9">
      <!-- 0.15 -->
      <g transform="translate(-328.752917 123.021815)scale(0.2 -0.2)">
       <use xlink:href="#DejaVuSans-48"/>
       <use x="63.623047" xlink:href="#DejaVuSans-46"/>
       <use x="95.410156" xlink:href="#DejaVuSans-49"/>
       <use x="159.033203" xlink:href="#DejaVuSans-53"/>
      </g>
     </g>
    </g>
    <g id="ytick_5">
     <g id="line2d_9">
      <g/>
     </g>
     <g id="text_10">
      <!-- 0.20 -->
      <g transform="translate(-328.752917 75.375719)scale(0.2 -0.2)">
       <use xlink:href="#DejaVuSans-48"/>
       <use x="63.623047" xlink:href="#DejaVuSans-46"/>
       <use x="95.410156" xlink:href="#DejaVuSans-50"/>
       <use x="159.033203" xlink:href="#DejaVuSans-48"/>
      </g>
     </g>
    </g>
    <g id="ytick_6">
     <g id="line2d_10">
      <g/>
     </g>
     <g id="text_11">
      <!-- 0.25 -->
      <g transform="translate(-328.752917 27.729622)scale(0.2 -0.2)">
       <use xlink:href="#DejaVuSans-48"/>
       <use x="63.623047" xlink:href="#DejaVuSans-46"/>
       <use x="95.410156" xlink:href="#DejaVuSans-50"/>
       <use x="159.033203" xlink:href="#DejaVuSans-53"/>
      </g>
     </g>
    </g>
    <g id="text_12">
     <!--   -->
     <g transform="translate(-336.413167 133.727583)rotate(-90)scale(0.176 -0.176)">
      <use xlink:href="#DejaVuSans-32"/>
     </g>
    </g>
   </g>
   <g id="patch_83">
    <path style="fill:none;stroke:#000000;stroke-linecap:square;stroke-linejoin:miter;stroke-width:0.8;"/>
   </g>
   <g id="patch_84">
    <path style="fill:none;stroke:#000000;stroke-linecap:square;stroke-linejoin:miter;stroke-width:0.8;"/>
   </g>
  </g>
  <g id="axes_2">
   <g id="patch_85">
    <path d="M 96.7 258.361667 
L 351.561667 258.361667 
L 351.561667 3.5 
L 96.7 3.5 
z
" style="fill:#ffffff;"/>
   </g>
   <g id="PolyCollection_1">
    <defs>
     <path d="M 251.603458 -296.386619 
L 251.603458 -296.507465 
L 252.548509 -296.505286 
L 253.49356 -296.498605 
L 254.438612 -296.489149 
L 255.383663 -296.479187 
L 256.328714 -296.470879 
L 257.273766 -296.465833 
L 258.218817 -296.464928 
L 259.163868 -296.468315 
L 260.108919 -296.475419 
L 261.053971 -296.48493 
L 261.999022 -296.49488 
L 262.944073 -296.502974 
L 263.889125 -296.507181 
L 264.834176 -296.506385 
L 265.779227 -296.500778 
L 266.724278 -296.491782 
L 267.66933 -296.481563 
L 268.614381 -296.472404 
L 269.559432 -296.466304 
L 270.504484 -296.464938 
L 271.449535 -296.469892 
L 272.394586 -296.48293 
L 273.339637 -296.506045 
L 274.284689 -296.541222 
L 275.22974 -296.590075 
L 276.174791 -296.653591 
L 277.119843 -296.732152 
L 278.064894 -296.825779 
L 279.009945 -296.934336 
L 279.954996 -297.057555 
L 280.900048 -297.19502 
L 281.845099 -297.346522 
L 282.79015 -297.512991 
L 283.735202 -297.697623 
L 284.680253 -297.906278 
L 285.625304 -298.146346 
L 286.570355 -298.424209 
L 287.515407 -298.74256 
L 288.460458 -299.09934 
L 289.405509 -299.489595 
L 290.350561 -299.910196 
L 291.295612 -300.365587 
L 292.240663 -300.871345 
L 293.185714 -301.452158 
L 294.130766 -302.132879 
L 295.075817 -302.925129 
L 296.020868 -303.815621 
L 296.96592 -304.763051 
L 297.910971 -305.706676 
L 298.856022 -306.583443 
L 299.801073 -307.345613 
L 300.746125 -307.970525 
L 301.691176 -308.458518 
L 302.636227 -308.821214 
L 303.581279 -309.066841 
L 304.52633 -309.190125 
L 305.471381 -309.171663 
L 306.416433 -308.986988 
L 307.361484 -308.620747 
L 308.306535 -308.078712 
L 309.251586 -307.391381 
L 310.196638 -306.607394 
L 311.141689 -305.780293 
L 312.08674 -304.955101 
L 313.031792 -304.160308 
L 313.976843 -303.407337 
L 314.921894 -302.696039 
L 315.866945 -302.022845 
L 316.811997 -301.387911 
L 317.757048 -300.798476 
L 318.702099 -300.267306 
L 319.647151 -299.80732 
L 320.592202 -299.425413 
L 321.537253 -299.118941 
L 322.482304 -298.876654 
L 323.427356 -298.683179 
L 324.372407 -298.524129 
L 325.317458 -298.389042 
L 326.26251 -298.271192 
L 327.207561 -298.165467 
L 328.152612 -298.066474 
L 329.097663 -297.968416 
L 330.042715 -297.86682 
L 330.987766 -297.760825 
L 331.932817 -297.654314 
L 332.877869 -297.554824 
L 333.82292 -297.470479 
L 334.767971 -297.406426 
L 335.713022 -297.362541 
L 336.658074 -297.333484 
L 337.603125 -297.310836 
L 338.548176 -297.285996 
L 339.493228 -297.252399 
L 340.438279 -297.206296 
L 341.38333 -297.14643 
L 342.328381 -297.073427 
L 343.273433 -296.989536 
L 344.218484 -296.898667 
L 345.163535 -296.80623 
L 345.163535 -296.087854 
L 345.163535 -296.087854 
L 344.218484 -295.995417 
L 343.273433 -295.904547 
L 342.328381 -295.820656 
L 341.38333 -295.747654 
L 340.438279 -295.687787 
L 339.493228 -295.641684 
L 338.548176 -295.608087 
L 337.603125 -295.583248 
L 336.658074 -295.560599 
L 335.713022 -295.531542 
L 334.767971 -295.487657 
L 333.82292 -295.423604 
L 332.877869 -295.33926 
L 331.932817 -295.239769 
L 330.987766 -295.133258 
L 330.042715 -295.027263 
L 329.097663 -294.925667 
L 328.152612 -294.827609 
L 327.207561 -294.728616 
L 326.26251 -294.622891 
L 325.317458 -294.505041 
L 324.372407 -294.369954 
L 323.427356 -294.210905 
L 322.482304 -294.01743 
L 321.537253 -293.775143 
L 320.592202 -293.46867 
L 319.647151 -293.086763 
L 318.702099 -292.626777 
L 317.757048 -292.095607 
L 316.811997 -291.506172 
L 315.866945 -290.871238 
L 314.921894 -290.198045 
L 313.976843 -289.486747 
L 313.031792 -288.733775 
L 312.08674 -287.938983 
L 311.141689 -287.113791 
L 310.196638 -286.286689 
L 309.251586 -285.502703 
L 308.306535 -284.815372 
L 307.361484 -284.273336 
L 306.416433 -283.907095 
L 305.471381 -283.722421 
L 304.52633 -283.703958 
L 303.581279 -283.827242 
L 302.636227 -284.072869 
L 301.691176 -284.435565 
L 300.746125 -284.923558 
L 299.801073 -285.54847 
L 298.856022 -286.310641 
L 297.910971 -287.187407 
L 296.96592 -288.131032 
L 296.020868 -289.078462 
L 295.075817 -289.968954 
L 294.130766 -290.761204 
L 293.185714 -291.441925 
L 292.240663 -292.022739 
L 291.295612 -292.528496 
L 290.350561 -292.983888 
L 289.405509 -293.404488 
L 288.460458 -293.794743 
L 287.515407 -294.151523 
L 286.570355 -294.469875 
L 285.625304 -294.747738 
L 284.680253 -294.987805 
L 283.735202 -295.19646 
L 282.79015 -295.381093 
L 281.845099 -295.547561 
L 280.900048 -295.699063 
L 279.954996 -295.836529 
L 279.009945 -295.959748 
L 278.064894 -296.068305 
L 277.119843 -296.161931 
L 276.174791 -296.240493 
L 275.22974 -296.304008 
L 274.284689 -296.352862 
L 273.339637 -296.388039 
L 272.394586 -296.411153 
L 271.449535 -296.424191 
L 270.504484 -296.429145 
L 269.559432 -296.427779 
L 268.614381 -296.42168 
L 267.66933 -296.412521 
L 266.724278 -296.402301 
L 265.779227 -296.393306 
L 264.834176 -296.387698 
L 263.889125 -296.386902 
L 262.944073 -296.391109 
L 261.999022 -296.399203 
L 261.053971 -296.409153 
L 260.108919 -296.418664 
L 259.163868 -296.425769 
L 258.218817 -296.429155 
L 257.273766 -296.42825 
L 256.328714 -296.423204 
L 255.383663 -296.414896 
L 254.438612 -296.404934 
L 253.49356 -296.395478 
L 252.548509 -296.388798 
L 251.603458 -296.386619 
z
" id="mc9a1d431d3" style="stroke:#333333;"/>
    </defs>
    <g clip-path="url(#p37a9b9b5e3)">
     <use style="fill:#484566;stroke:#333333;" x="0" xlink:href="#mc9a1d431d3" y="319.061667"/>
    </g>
   </g>
   <g id="PolyCollection_2">
    <defs>
     <path d="M 237.250162 -270.127874 
L 237.250162 -271.793876 
L 238.24287 -271.845182 
L 239.235578 -271.89578 
L 240.228286 -271.945607 
L 241.220995 -271.994695 
L 242.213703 -272.043185 
L 243.206411 -272.091321 
L 244.199119 -272.139455 
L 245.191827 -272.188031 
L 246.184536 -272.237576 
L 247.177244 -272.288682 
L 248.169952 -272.34198 
L 249.16266 -272.398118 
L 250.155368 -272.457733 
L 251.148076 -272.521415 
L 252.140785 -272.589686 
L 253.133493 -272.662961 
L 254.126201 -272.741532 
L 255.118909 -272.82554 
L 256.111617 -272.914962 
L 257.104326 -273.009598 
L 258.097034 -273.109076 
L 259.089742 -273.212852 
L 260.08245 -273.320226 
L 261.075158 -273.430364 
L 262.067867 -273.542326 
L 263.060575 -273.6551 
L 264.053283 -273.767637 
L 265.045991 -273.878895 
L 266.038699 -273.987872 
L 267.031407 -274.093644 
L 268.024116 -274.1954 
L 269.016824 -274.292464 
L 270.009532 -274.384317 
L 271.00224 -274.470605 
L 271.994948 -274.551142 
L 272.987657 -274.6259 
L 273.980365 -274.694999 
L 274.973073 -274.758679 
L 275.965781 -274.81728 
L 276.958489 -274.871206 
L 277.951198 -274.920896 
L 278.943906 -274.96679 
L 279.936614 -275.009305 
L 280.929322 -275.048803 
L 281.92203 -275.085576 
L 282.914738 -275.11983 
L 283.907447 -275.151674 
L 284.900155 -275.181121 
L 285.892863 -275.208088 
L 286.885571 -275.232409 
L 287.878279 -275.253841 
L 288.870988 -275.272081 
L 289.863696 -275.286788 
L 290.856404 -275.297592 
L 291.849112 -275.304123 
L 292.84182 -275.306017 
L 293.834529 -275.302943 
L 294.827237 -275.294612 
L 295.819945 -275.280788 
L 296.812653 -275.261304 
L 297.805361 -275.236066 
L 298.798069 -275.205058 
L 299.790778 -275.168346 
L 300.783486 -275.126075 
L 301.776194 -275.078465 
L 302.768902 -275.02581 
L 303.76161 -274.96846 
L 304.754319 -274.906817 
L 305.747027 -274.84132 
L 306.739735 -274.772429 
L 307.732443 -274.70061 
L 308.725151 -274.626323 
L 309.71786 -274.550003 
L 310.710568 -274.472052 
L 311.703276 -274.392826 
L 312.695984 -274.312624 
L 313.688692 -274.231684 
L 314.681401 -274.150182 
L 315.674109 -274.068226 
L 316.666817 -273.985863 
L 317.659525 -273.903079 
L 318.652233 -273.819811 
L 319.644941 -273.73595 
L 320.63765 -273.651357 
L 321.630358 -273.565868 
L 322.623066 -273.479313 
L 323.615774 -273.391523 
L 324.608482 -273.302347 
L 325.601191 -273.211666 
L 326.593899 -273.1194 
L 327.586607 -273.025524 
L 328.579315 -272.930077 
L 329.572023 -272.833165 
L 330.564732 -272.734974 
L 331.55744 -272.635765 
L 332.550148 -272.535874 
L 333.542856 -272.435708 
L 334.535564 -272.335739 
L 335.528272 -272.236488 
L 335.528272 -269.685262 
L 335.528272 -269.685262 
L 334.535564 -269.586011 
L 333.542856 -269.486042 
L 332.550148 -269.385876 
L 331.55744 -269.285985 
L 330.564732 -269.186776 
L 329.572023 -269.088585 
L 328.579315 -268.991673 
L 327.586607 -268.896226 
L 326.593899 -268.80235 
L 325.601191 -268.710084 
L 324.608482 -268.619403 
L 323.615774 -268.530227 
L 322.623066 -268.442437 
L 321.630358 -268.355882 
L 320.63765 -268.270393 
L 319.644941 -268.1858 
L 318.652233 -268.101939 
L 317.659525 -268.018671 
L 316.666817 -267.935887 
L 315.674109 -267.853524 
L 314.681401 -267.771568 
L 313.688692 -267.690066 
L 312.695984 -267.609126 
L 311.703276 -267.528924 
L 310.710568 -267.449698 
L 309.71786 -267.371747 
L 308.725151 -267.295427 
L 307.732443 -267.22114 
L 306.739735 -267.149321 
L 305.747027 -267.08043 
L 304.754319 -267.014933 
L 303.76161 -266.95329 
L 302.768902 -266.89594 
L 301.776194 -266.843285 
L 300.783486 -266.795675 
L 299.790778 -266.753404 
L 298.798069 -266.716692 
L 297.805361 -266.685684 
L 296.812653 -266.660446 
L 295.819945 -266.640962 
L 294.827237 -266.627138 
L 293.834529 -266.618807 
L 292.84182 -266.615733 
L 291.849112 -266.617627 
L 290.856404 -266.624158 
L 289.863696 -266.634962 
L 288.870988 -266.649669 
L 287.878279 -266.667909 
L 286.885571 -266.689341 
L 285.892863 -266.713662 
L 284.900155 -266.740629 
L 283.907447 -266.770076 
L 282.914738 -266.80192 
L 281.92203 -266.836174 
L 280.929322 -266.872947 
L 279.936614 -266.912445 
L 278.943906 -266.95496 
L 277.951198 -267.000854 
L 276.958489 -267.050544 
L 275.965781 -267.10447 
L 274.973073 -267.163071 
L 273.980365 -267.226751 
L 272.987657 -267.29585 
L 271.994948 -267.370608 
L 271.00224 -267.451145 
L 270.009532 -267.537433 
L 269.016824 -267.629286 
L 268.024116 -267.72635 
L 267.031407 -267.828106 
L 266.038699 -267.933878 
L 265.045991 -268.042855 
L 264.053283 -268.154113 
L 263.060575 -268.26665 
L 262.067867 -268.379424 
L 261.075158 -268.491386 
L 260.08245 -268.601524 
L 259.089742 -268.708898 
L 258.097034 -268.812674 
L 257.104326 -268.912152 
L 256.111617 -269.006788 
L 255.118909 -269.09621 
L 254.126201 -269.180218 
L 253.133493 -269.258789 
L 252.140785 -269.332064 
L 251.148076 -269.400335 
L 250.155368 -269.464017 
L 249.16266 -269.523632 
L 248.169952 -269.57977 
L 247.177244 -269.633068 
L 246.184536 -269.684174 
L 245.191827 -269.733719 
L 244.199119 -269.782295 
L 243.206411 -269.830429 
L 242.213703 -269.878565 
L 241.220995 -269.927055 
L 240.228286 -269.976143 
L 239.235578 -270.02597 
L 238.24287 -270.076568 
L 237.250162 -270.127874 
z
" id="m69913401af" style="stroke:#333333;"/>
    </defs>
    <g clip-path="url(#p37a9b9b5e3)">
     <use style="fill:#b75e1a;stroke:#333333;" x="0" xlink:href="#m69913401af" y="319.061667"/>
    </g>
   </g>
   <g id="PolyCollection_3">
    <defs>
     <path d="M 308.377493 -220.993401 
L 308.377493 -244.469849 
L 308.459757 -244.568093 
L 308.542021 -244.661523 
L 308.624286 -244.750058 
L 308.70655 -244.833627 
L 308.788814 -244.912167 
L 308.871078 -244.985627 
L 308.953343 -245.053963 
L 309.035607 -245.117143 
L 309.117871 -245.175144 
L 309.200135 -245.227953 
L 309.282399 -245.275567 
L 309.364664 -245.317993 
L 309.446928 -245.355248 
L 309.529192 -245.387359 
L 309.611456 -245.414363 
L 309.693721 -245.436305 
L 309.775985 -245.453242 
L 309.858249 -245.465237 
L 309.940513 -245.472365 
L 310.022777 -245.474708 
L 310.105042 -245.472357 
L 310.187306 -245.465411 
L 310.26957 -245.453976 
L 310.351834 -245.438166 
L 310.434099 -245.418102 
L 310.516363 -245.393911 
L 310.598627 -245.365726 
L 310.680891 -245.333687 
L 310.763155 -245.297936 
L 310.84542 -245.258623 
L 310.927684 -245.215899 
L 311.009948 -245.169922 
L 311.092212 -245.120849 
L 311.174477 -245.068843 
L 311.256741 -245.014066 
L 311.339005 -244.956684 
L 311.421269 -244.896861 
L 311.503533 -244.834763 
L 311.585798 -244.770555 
L 311.668062 -244.704402 
L 311.750326 -244.636467 
L 311.83259 -244.566911 
L 311.914855 -244.495892 
L 311.997119 -244.423565 
L 312.079383 -244.350084 
L 312.161647 -244.275595 
L 312.243911 -244.200244 
L 312.326176 -244.124168 
L 312.40844 -244.047503 
L 312.490704 -243.970376 
L 312.572968 -243.892909 
L 312.655232 -243.81522 
L 312.737497 -243.737417 
L 312.819761 -243.659603 
L 312.902025 -243.581875 
L 312.984289 -243.50432 
L 313.066554 -243.427021 
L 313.148818 -243.350051 
L 313.231082 -243.273476 
L 313.313346 -243.197355 
L 313.39561 -243.121737 
L 313.477875 -243.046668 
L 313.560139 -242.97218 
L 313.642403 -242.898303 
L 313.724667 -242.825057 
L 313.806932 -242.752453 
L 313.889196 -242.680498 
L 313.97146 -242.60919 
L 314.053724 -242.53852 
L 314.135988 -242.468473 
L 314.218253 -242.399028 
L 314.300517 -242.330157 
L 314.382781 -242.261826 
L 314.465045 -242.193998 
L 314.54731 -242.126627 
L 314.629574 -242.059666 
L 314.711838 -241.993062 
L 314.794102 -241.926757 
L 314.876366 -241.860691 
L 314.958631 -241.794801 
L 315.040895 -241.72902 
L 315.123159 -241.66328 
L 315.205423 -241.59751 
L 315.287688 -241.531639 
L 315.369952 -241.465595 
L 315.452216 -241.399303 
L 315.53448 -241.332691 
L 315.616744 -241.265686 
L 315.699009 -241.198214 
L 315.781273 -241.130206 
L 315.863537 -241.061591 
L 315.945801 -240.992302 
L 316.028066 -240.922273 
L 316.11033 -240.851442 
L 316.192594 -240.779748 
L 316.274858 -240.707134 
L 316.357122 -240.633548 
L 316.439387 -240.558941 
L 316.521651 -240.483266 
L 316.521651 -224.979984 
L 316.521651 -224.979984 
L 316.439387 -224.904309 
L 316.357122 -224.829702 
L 316.274858 -224.756116 
L 316.192594 -224.683502 
L 316.11033 -224.611808 
L 316.028066 -224.540977 
L 315.945801 -224.470948 
L 315.863537 -224.401659 
L 315.781273 -224.333044 
L 315.699009 -224.265036 
L 315.616744 -224.197564 
L 315.53448 -224.130559 
L 315.452216 -224.063947 
L 315.369952 -223.997655 
L 315.287688 -223.931611 
L 315.205423 -223.86574 
L 315.123159 -223.79997 
L 315.040895 -223.73423 
L 314.958631 -223.668449 
L 314.876366 -223.602559 
L 314.794102 -223.536493 
L 314.711838 -223.470188 
L 314.629574 -223.403584 
L 314.54731 -223.336623 
L 314.465045 -223.269252 
L 314.382781 -223.201424 
L 314.300517 -223.133093 
L 314.218253 -223.064222 
L 314.135988 -222.994777 
L 314.053724 -222.92473 
L 313.97146 -222.85406 
L 313.889196 -222.782752 
L 313.806932 -222.710797 
L 313.724667 -222.638193 
L 313.642403 -222.564947 
L 313.560139 -222.49107 
L 313.477875 -222.416582 
L 313.39561 -222.341513 
L 313.313346 -222.265895 
L 313.231082 -222.189774 
L 313.148818 -222.113199 
L 313.066554 -222.036229 
L 312.984289 -221.95893 
L 312.902025 -221.881375 
L 312.819761 -221.803647 
L 312.737497 -221.725833 
L 312.655232 -221.64803 
L 312.572968 -221.570341 
L 312.490704 -221.492874 
L 312.40844 -221.415747 
L 312.326176 -221.339082 
L 312.243911 -221.263006 
L 312.161647 -221.187655 
L 312.079383 -221.113166 
L 311.997119 -221.039685 
L 311.914855 -220.967358 
L 311.83259 -220.896339 
L 311.750326 -220.826783 
L 311.668062 -220.758848 
L 311.585798 -220.692695 
L 311.503533 -220.628487 
L 311.421269 -220.566389 
L 311.339005 -220.506566 
L 311.256741 -220.449184 
L 311.174477 -220.394407 
L 311.092212 -220.342401 
L 311.009948 -220.293328 
L 310.927684 -220.247351 
L 310.84542 -220.204627 
L 310.763155 -220.165314 
L 310.680891 -220.129563 
L 310.598627 -220.097524 
L 310.516363 -220.069339 
L 310.434099 -220.045148 
L 310.351834 -220.025084 
L 310.26957 -220.009274 
L 310.187306 -219.997839 
L 310.105042 -219.990893 
L 310.022777 -219.988542 
L 309.940513 -219.990885 
L 309.858249 -219.998013 
L 309.775985 -220.010008 
L 309.693721 -220.026945 
L 309.611456 -220.048887 
L 309.529192 -220.075891 
L 309.446928 -220.108002 
L 309.364664 -220.145257 
L 309.282399 -220.187683 
L 309.200135 -220.235297 
L 309.117871 -220.288106 
L 309.035607 -220.346107 
L 308.953343 -220.409287 
L 308.871078 -220.477623 
L 308.788814 -220.551083 
L 308.70655 -220.629623 
L 308.624286 -220.713192 
L 308.542021 -220.801727 
L 308.459757 -220.895157 
L 308.377493 -220.993401 
z
" id="m50f1ab9435" style="stroke:#333333;"/>
    </defs>
    <g clip-path="url(#p37a9b9b5e3)">
     <use style="fill:#484566;stroke:#333333;" x="0" xlink:href="#m50f1ab9435" y="319.061667"/>
    </g>
   </g>
   <g id="PolyCollection_4">
    <defs>
     <path d="M 183.221999 -206.731022 
L 183.221999 -207.759894 
L 184.609846 -207.796801 
L 185.997692 -207.834264 
L 187.385539 -207.872069 
L 188.773386 -207.909993 
L 190.161233 -207.947805 
L 191.54908 -207.985268 
L 192.936927 -208.022148 
L 194.324773 -208.058211 
L 195.71262 -208.093234 
L 197.100467 -208.127006 
L 198.488314 -208.159331 
L 199.876161 -208.190032 
L 201.264008 -208.218958 
L 202.651854 -208.24598 
L 204.039701 -208.270998 
L 205.427548 -208.29394 
L 206.815395 -208.314763 
L 208.203242 -208.333453 
L 209.591089 -208.350023 
L 210.978935 -208.364512 
L 212.366782 -208.376983 
L 213.754629 -208.387517 
L 215.142476 -208.396213 
L 216.530323 -208.403183 
L 217.918169 -208.408546 
L 219.306016 -208.412426 
L 220.693863 -208.414948 
L 222.08171 -208.416236 
L 223.469557 -208.416404 
L 224.857404 -208.41556 
L 226.24525 -208.413801 
L 227.633097 -208.411215 
L 229.020944 -208.407873 
L 230.408791 -208.403839 
L 231.796638 -208.399165 
L 233.184485 -208.393894 
L 234.572331 -208.388062 
L 235.960178 -208.381701 
L 237.348025 -208.374842 
L 238.735872 -208.367517 
L 240.123719 -208.359761 
L 241.511566 -208.351619 
L 242.899412 -208.34314 
L 244.287259 -208.334387 
L 245.675106 -208.325434 
L 247.062953 -208.316366 
L 248.4508 -208.307283 
L 249.838647 -208.298295 
L 251.226493 -208.289522 
L 252.61434 -208.281092 
L 254.002187 -208.273143 
L 255.390034 -208.265812 
L 256.777881 -208.259238 
L 258.165728 -208.253558 
L 259.553574 -208.248899 
L 260.941421 -208.245381 
L 262.329268 -208.243107 
L 263.717115 -208.242166 
L 265.104962 -208.242624 
L 266.492808 -208.244523 
L 267.880655 -208.247882 
L 269.268502 -208.252688 
L 270.656349 -208.2589 
L 272.044196 -208.266448 
L 273.432043 -208.275227 
L 274.819889 -208.285105 
L 276.207736 -208.295916 
L 277.595583 -208.307468 
L 278.98343 -208.31954 
L 280.371277 -208.331889 
L 281.759124 -208.344249 
L 283.14697 -208.35634 
L 284.534817 -208.367869 
L 285.922664 -208.378534 
L 287.310511 -208.388034 
L 288.698358 -208.396069 
L 290.086205 -208.40235 
L 291.474051 -208.406602 
L 292.861898 -208.408573 
L 294.249745 -208.408032 
L 295.637592 -208.404784 
L 297.025439 -208.398665 
L 298.413286 -208.389551 
L 299.801132 -208.37736 
L 301.188979 -208.362052 
L 302.576826 -208.343631 
L 303.964673 -208.322147 
L 305.35252 -208.297692 
L 306.740367 -208.2704 
L 308.128213 -208.240443 
L 309.51606 -208.20803 
L 310.903907 -208.173399 
L 312.291754 -208.136817 
L 313.679601 -208.098571 
L 315.067447 -208.058962 
L 316.455294 -208.018303 
L 317.843141 -207.976911 
L 319.230988 -207.935101 
L 320.618835 -207.893184 
L 320.618835 -206.597733 
L 320.618835 -206.597733 
L 319.230988 -206.555816 
L 317.843141 -206.514006 
L 316.455294 -206.472614 
L 315.067447 -206.431955 
L 313.679601 -206.392346 
L 312.291754 -206.354099 
L 310.903907 -206.317518 
L 309.51606 -206.282887 
L 308.128213 -206.250474 
L 306.740367 -206.220517 
L 305.35252 -206.193225 
L 303.964673 -206.168769 
L 302.576826 -206.147285 
L 301.188979 -206.128865 
L 299.801132 -206.113556 
L 298.413286 -206.101365 
L 297.025439 -206.092252 
L 295.637592 -206.086133 
L 294.249745 -206.082884 
L 292.861898 -206.082344 
L 291.474051 -206.084314 
L 290.086205 -206.088567 
L 288.698358 -206.094848 
L 287.310511 -206.102883 
L 285.922664 -206.112383 
L 284.534817 -206.123048 
L 283.14697 -206.134576 
L 281.759124 -206.146668 
L 280.371277 -206.159028 
L 278.98343 -206.171377 
L 277.595583 -206.183449 
L 276.207736 -206.195 
L 274.819889 -206.205812 
L 273.432043 -206.215689 
L 272.044196 -206.224469 
L 270.656349 -206.232016 
L 269.268502 -206.238229 
L 267.880655 -206.243035 
L 266.492808 -206.246393 
L 265.104962 -206.248293 
L 263.717115 -206.24875 
L 262.329268 -206.247809 
L 260.941421 -206.245536 
L 259.553574 -206.242018 
L 258.165728 -206.237359 
L 256.777881 -206.231678 
L 255.390034 -206.225105 
L 254.002187 -206.217774 
L 252.61434 -206.209824 
L 251.226493 -206.201395 
L 249.838647 -206.192622 
L 248.4508 -206.183633 
L 247.062953 -206.17455 
L 245.675106 -206.165483 
L 244.287259 -206.15653 
L 242.899412 -206.147777 
L 241.511566 -206.139298 
L 240.123719 -206.131155 
L 238.735872 -206.1234 
L 237.348025 -206.116075 
L 235.960178 -206.109216 
L 234.572331 -206.102855 
L 233.184485 -206.097023 
L 231.796638 -206.091752 
L 230.408791 -206.087077 
L 229.020944 -206.083044 
L 227.633097 -206.079702 
L 226.24525 -206.077115 
L 224.857404 -206.075357 
L 223.469557 -206.074513 
L 222.08171 -206.074681 
L 220.693863 -206.075968 
L 219.306016 -206.078491 
L 217.918169 -206.082371 
L 216.530323 -206.087734 
L 215.142476 -206.094703 
L 213.754629 -206.1034 
L 212.366782 -206.113934 
L 210.978935 -206.126404 
L 209.591089 -206.140894 
L 208.203242 -206.157464 
L 206.815395 -206.176154 
L 205.427548 -206.196977 
L 204.039701 -206.219919 
L 202.651854 -206.244936 
L 201.264008 -206.271958 
L 199.876161 -206.300884 
L 198.488314 -206.331586 
L 197.100467 -206.363911 
L 195.71262 -206.397682 
L 194.324773 -206.432706 
L 192.936927 -206.468769 
L 191.54908 -206.505648 
L 190.161233 -206.543112 
L 188.773386 -206.580923 
L 187.385539 -206.618848 
L 185.997692 -206.656653 
L 184.609846 -206.694115 
L 183.221999 -206.731022 
z
" id="ma540f606eb" style="stroke:#333333;"/>
    </defs>
    <g clip-path="url(#p37a9b9b5e3)">
     <use style="fill:#b75e1a;stroke:#333333;" x="0" xlink:href="#ma540f606eb" y="319.061667"/>
    </g>
   </g>
   <g id="PolyCollection_5">
    <defs>
     <path d="M 113.075737 -140.570002 
L 113.075737 -146.490081 
L 115.226378 -146.573944 
L 117.377018 -146.654017 
L 119.527659 -146.730651 
L 121.6783 -146.80431 
L 123.82894 -146.875563 
L 125.979581 -146.945071 
L 128.130222 -147.013575 
L 130.280862 -147.081883 
L 132.431503 -147.150852 
L 134.582144 -147.221379 
L 136.732784 -147.294379 
L 138.883425 -147.370777 
L 141.034066 -147.451489 
L 143.184707 -147.537411 
L 145.335347 -147.629405 
L 147.485988 -147.728292 
L 149.636629 -147.834836 
L 151.787269 -147.949735 
L 153.93791 -148.073614 
L 156.088551 -148.207012 
L 158.239191 -148.350378 
L 160.389832 -148.504054 
L 162.540473 -148.668277 
L 164.691113 -148.843161 
L 166.841754 -149.028694 
L 168.992395 -149.22473 
L 171.143035 -149.430983 
L 173.293676 -149.647024 
L 175.444317 -149.872276 
L 177.594958 -150.106017 
L 179.745598 -150.347383 
L 181.896239 -150.595375 
L 184.04688 -150.848868 
L 186.19752 -151.106629 
L 188.348161 -151.367334 
L 190.498802 -151.629589 
L 192.649442 -151.891958 
L 194.800083 -152.152991 
L 196.950724 -152.411251 
L 199.101364 -152.665349 
L 201.252005 -152.913973 
L 203.402646 -153.155914 
L 205.553287 -153.3901 
L 207.703927 -153.615611 
L 209.854568 -153.8317 
L 212.005209 -154.037806 
L 214.155849 -154.233556 
L 216.30649 -154.418766 
L 218.457131 -154.593429 
L 220.607771 -154.757703 
L 222.758412 -154.911883 
L 224.909053 -155.056376 
L 227.059693 -155.191664 
L 229.210334 -155.318271 
L 231.360975 -155.43672 
L 233.511615 -155.547496 
L 235.662256 -155.651007 
L 237.812897 -155.747547 
L 239.963538 -155.837268 
L 242.114178 -155.920154 
L 244.264819 -155.996002 
L 246.41546 -156.064414 
L 248.5661 -156.124793 
L 250.716741 -156.176354 
L 252.867382 -156.218135 
L 255.018022 -156.249026 
L 257.168663 -156.267795 
L 259.319304 -156.273125 
L 261.469944 -156.263659 
L 263.620585 -156.238039 
L 265.771226 -156.194954 
L 267.921867 -156.133185 
L 270.072507 -156.051647 
L 272.223148 -155.949424 
L 274.373789 -155.825812 
L 276.524429 -155.680337 
L 278.67507 -155.512783 
L 280.825711 -155.3232 
L 282.976351 -155.111914 
L 285.126992 -154.879519 
L 287.277633 -154.626874 
L 289.428273 -154.35508 
L 291.578914 -154.065462 
L 293.729555 -153.75954 
L 295.880195 -153.438995 
L 298.030836 -153.105642 
L 300.181477 -152.761388 
L 302.332118 -152.408201 
L 304.482758 -152.048074 
L 306.633399 -151.682993 
L 308.78404 -151.314908 
L 310.93468 -150.945707 
L 313.085321 -150.57719 
L 315.235962 -150.211057 
L 317.386602 -149.848886 
L 319.537243 -149.49213 
L 321.687884 -149.142103 
L 323.838524 -148.799983 
L 325.989165 -148.46681 
L 325.989165 -138.593273 
L 325.989165 -138.593273 
L 323.838524 -138.2601 
L 321.687884 -137.91798 
L 319.537243 -137.567954 
L 317.386602 -137.211197 
L 315.235962 -136.849026 
L 313.085321 -136.482893 
L 310.93468 -136.114376 
L 308.78404 -135.745175 
L 306.633399 -135.37709 
L 304.482758 -135.01201 
L 302.332118 -134.651882 
L 300.181477 -134.298695 
L 298.030836 -133.954441 
L 295.880195 -133.621088 
L 293.729555 -133.300543 
L 291.578914 -132.994621 
L 289.428273 -132.705003 
L 287.277633 -132.433209 
L 285.126992 -132.180564 
L 282.976351 -131.94817 
L 280.825711 -131.736883 
L 278.67507 -131.5473 
L 276.524429 -131.379746 
L 274.373789 -131.234271 
L 272.223148 -131.110659 
L 270.072507 -131.008437 
L 267.921867 -130.926898 
L 265.771226 -130.865129 
L 263.620585 -130.822045 
L 261.469944 -130.796425 
L 259.319304 -130.786958 
L 257.168663 -130.792289 
L 255.018022 -130.811057 
L 252.867382 -130.841948 
L 250.716741 -130.88373 
L 248.5661 -130.93529 
L 246.41546 -130.99567 
L 244.264819 -131.064081 
L 242.114178 -131.139929 
L 239.963538 -131.222815 
L 237.812897 -131.312536 
L 235.662256 -131.409076 
L 233.511615 -131.512587 
L 231.360975 -131.623363 
L 229.210334 -131.741812 
L 227.059693 -131.868419 
L 224.909053 -132.003707 
L 222.758412 -132.1482 
L 220.607771 -132.30238 
L 218.457131 -132.466654 
L 216.30649 -132.641318 
L 214.155849 -132.826527 
L 212.005209 -133.022277 
L 209.854568 -133.228383 
L 207.703927 -133.444472 
L 205.553287 -133.669983 
L 203.402646 -133.904169 
L 201.252005 -134.146111 
L 199.101364 -134.394734 
L 196.950724 -134.648832 
L 194.800083 -134.907092 
L 192.649442 -135.168125 
L 190.498802 -135.430494 
L 188.348161 -135.692749 
L 186.19752 -135.953454 
L 184.04688 -136.211215 
L 181.896239 -136.464708 
L 179.745598 -136.7127 
L 177.594958 -136.954066 
L 175.444317 -137.187807 
L 173.293676 -137.413059 
L 171.143035 -137.6291 
L 168.992395 -137.835354 
L 166.841754 -138.03139 
L 164.691113 -138.216922 
L 162.540473 -138.391806 
L 160.389832 -138.556029 
L 158.239191 -138.709706 
L 156.088551 -138.853071 
L 153.93791 -138.98647 
L 151.787269 -139.110348 
L 149.636629 -139.225247 
L 147.485988 -139.331791 
L 145.335347 -139.430678 
L 143.184707 -139.522673 
L 141.034066 -139.608594 
L 138.883425 -139.689306 
L 136.732784 -139.765704 
L 134.582144 -139.838704 
L 132.431503 -139.909231 
L 130.280862 -139.978201 
L 128.130222 -140.046508 
L 125.979581 -140.115012 
L 123.82894 -140.18452 
L 121.6783 -140.255773 
L 119.527659 -140.329432 
L 117.377018 -140.406066 
L 115.226378 -140.486139 
L 113.075737 -140.570002 
z
" id="m9de8c872f5" style="stroke:#333333;"/>
    </defs>
    <g clip-path="url(#p37a9b9b5e3)">
     <use style="fill:#b75e1a;stroke:#333333;" x="0" xlink:href="#m9de8c872f5" y="319.061667"/>
    </g>
   </g>
   <g id="PolyCollection_6">
    <defs>
     <path d="M 113.193876 -74.916184 
L 113.193876 -84.713066 
L 115.223638 -85.084821 
L 117.2534 -85.468774 
L 119.283163 -85.863716 
L 121.312925 -86.268219 
L 123.342687 -86.680621 
L 125.372449 -87.099029 
L 127.402212 -87.521315 
L 129.431974 -87.945126 
L 131.461736 -88.367896 
L 133.491498 -88.786866 
L 135.521261 -89.199112 
L 137.551023 -89.601572 
L 139.580785 -89.991086 
L 141.610547 -90.364433 
L 143.64031 -90.718379 
L 145.670072 -91.049717 
L 147.699834 -91.355314 
L 149.729597 -91.632161 
L 151.759359 -91.877414 
L 153.789121 -92.08844 
L 155.818883 -92.262857 
L 157.848646 -92.398575 
L 159.878408 -92.49383 
L 161.90817 -92.547215 
L 163.937932 -92.557708 
L 165.967695 -92.524699 
L 167.997457 -92.448002 
L 170.027219 -92.327871 
L 172.056981 -92.165006 
L 174.086744 -91.960551 
L 176.116506 -91.716091 
L 178.146268 -91.433631 
L 180.176031 -91.11558 
L 182.205793 -90.764718 
L 184.235555 -90.384159 
L 186.265317 -89.977309 
L 188.29508 -89.547814 
L 190.324842 -89.099505 
L 192.354604 -88.636344 
L 194.384366 -88.162356 
L 196.414129 -87.681575 
L 198.443891 -87.197976 
L 200.473653 -86.715425 
L 202.503415 -86.237617 
L 204.533178 -85.768033 
L 206.56294 -85.309895 
L 208.592702 -84.86613 
L 210.622464 -84.439345 
L 212.652227 -84.031807 
L 214.681989 -83.645429 
L 216.711751 -83.281767 
L 218.741514 -82.942025 
L 220.771276 -82.627065 
L 222.801038 -82.337415 
L 224.8308 -82.073297 
L 226.860563 -81.834644 
L 228.890325 -81.621129 
L 230.920087 -81.432186 
L 232.949849 -81.267045 
L 234.979612 -81.124752 
L 237.009374 -81.004203 
L 239.039136 -80.904163 
L 241.068898 -80.823297 
L 243.098661 -80.760189 
L 245.128423 -80.713366 
L 247.158185 -80.681317 
L 249.187948 -80.662516 
L 251.21771 -80.655432 
L 253.247472 -80.658556 
L 255.277234 -80.670407 
L 257.306997 -80.689555 
L 259.336759 -80.714627 
L 261.366521 -80.744325 
L 263.396283 -80.777433 
L 265.426046 -80.812828 
L 267.455808 -80.849486 
L 269.48557 -80.886487 
L 271.515332 -80.923018 
L 273.545095 -80.958375 
L 275.574857 -80.991956 
L 277.604619 -81.023259 
L 279.634381 -81.051877 
L 281.664144 -81.077485 
L 283.693906 -81.09983 
L 285.723668 -81.118723 
L 287.753431 -81.134024 
L 289.783193 -81.145632 
L 291.812955 -81.153475 
L 293.842717 -81.157501 
L 295.87248 -81.157669 
L 297.902242 -81.153948 
L 299.932004 -81.146313 
L 301.961766 -81.134747 
L 303.991529 -81.119239 
L 306.021291 -81.099795 
L 308.051053 -81.07644 
L 310.080815 -81.049225 
L 312.110578 -81.018235 
L 314.14034 -80.983596 
L 314.14034 -78.645654 
L 314.14034 -78.645654 
L 312.110578 -78.611015 
L 310.080815 -78.580025 
L 308.051053 -78.55281 
L 306.021291 -78.529455 
L 303.991529 -78.510011 
L 301.961766 -78.494503 
L 299.932004 -78.482937 
L 297.902242 -78.475302 
L 295.87248 -78.471581 
L 293.842717 -78.471749 
L 291.812955 -78.475775 
L 289.783193 -78.483618 
L 287.753431 -78.495226 
L 285.723668 -78.510527 
L 283.693906 -78.52942 
L 281.664144 -78.551765 
L 279.634381 -78.577373 
L 277.604619 -78.605991 
L 275.574857 -78.637294 
L 273.545095 -78.670875 
L 271.515332 -78.706232 
L 269.48557 -78.742763 
L 267.455808 -78.779764 
L 265.426046 -78.816422 
L 263.396283 -78.851817 
L 261.366521 -78.884925 
L 259.336759 -78.914623 
L 257.306997 -78.939695 
L 255.277234 -78.958843 
L 253.247472 -78.970694 
L 251.21771 -78.973818 
L 249.187948 -78.966734 
L 247.158185 -78.947933 
L 245.128423 -78.915884 
L 243.098661 -78.869061 
L 241.068898 -78.805953 
L 239.039136 -78.725087 
L 237.009374 -78.625047 
L 234.979612 -78.504498 
L 232.949849 -78.362205 
L 230.920087 -78.197064 
L 228.890325 -78.008121 
L 226.860563 -77.794606 
L 224.8308 -77.555953 
L 222.801038 -77.291835 
L 220.771276 -77.002185 
L 218.741514 -76.687225 
L 216.711751 -76.347483 
L 214.681989 -75.983821 
L 212.652227 -75.597443 
L 210.622464 -75.189905 
L 208.592702 -74.76312 
L 206.56294 -74.319355 
L 204.533178 -73.861217 
L 202.503415 -73.391633 
L 200.473653 -72.913825 
L 198.443891 -72.431274 
L 196.414129 -71.947675 
L 194.384366 -71.466894 
L 192.354604 -70.992906 
L 190.324842 -70.529745 
L 188.29508 -70.081436 
L 186.265317 -69.651941 
L 184.235555 -69.245091 
L 182.205793 -68.864532 
L 180.176031 -68.51367 
L 178.146268 -68.195619 
L 176.116506 -67.913159 
L 174.086744 -67.668699 
L 172.056981 -67.464244 
L 170.027219 -67.301379 
L 167.997457 -67.181248 
L 165.967695 -67.104551 
L 163.937932 -67.071542 
L 161.90817 -67.082035 
L 159.878408 -67.13542 
L 157.848646 -67.230675 
L 155.818883 -67.366393 
L 153.789121 -67.54081 
L 151.759359 -67.751836 
L 149.729597 -67.997089 
L 147.699834 -68.273936 
L 145.670072 -68.579533 
L 143.64031 -68.910871 
L 141.610547 -69.264817 
L 139.580785 -69.638164 
L 137.551023 -70.027678 
L 135.521261 -70.430138 
L 133.491498 -70.842384 
L 131.461736 -71.261354 
L 129.431974 -71.684124 
L 127.402212 -72.107935 
L 125.372449 -72.530221 
L 123.342687 -72.948629 
L 121.312925 -73.361031 
L 119.283163 -73.765534 
L 117.2534 -74.160476 
L 115.223638 -74.544429 
L 113.193876 -74.916184 
z
" id="me7b43f3ec4" style="stroke:#333333;"/>
    </defs>
    <g clip-path="url(#p37a9b9b5e3)">
     <use style="fill:#b75e1a;stroke:#333333;" x="0" xlink:href="#me7b43f3ec4" y="319.061667"/>
    </g>
   </g>
   <g id="patch_86">
    <path clip-path="url(#p37a9b9b5e3)" d="M 113.690778 35.357708 
L 113.690778 35.357708 
L 113.690778 35.357708 
L 113.690778 35.357708 
z
" style="fill:#484566;stroke:#333333;stroke-linejoin:miter;stroke-width:0.5;"/>
   </g>
   <g id="patch_87">
    <path clip-path="url(#p37a9b9b5e3)" d="M 113.690778 35.357708 
L 113.690778 35.357708 
L 113.690778 35.357708 
L 113.690778 35.357708 
z
" style="fill:#b75e1a;stroke:#333333;stroke-linejoin:miter;stroke-width:0.5;"/>
   </g>
   <g id="matplotlib.axis_3">
    <g id="xtick_5">
     <g id="line2d_11">
      <g>
       <use style="stroke:#000000;stroke-width:1.6;" x="113.690778" xlink:href="#md72a079150" y="258.361667"/>
      </g>
     </g>
     <g id="text_13">
      <!-- 0.0 -->
      <g transform="translate(97.787653 288.258542)scale(0.2 -0.2)">
       <use xlink:href="#DejaVuSans-48"/>
       <use x="63.623047" xlink:href="#DejaVuSans-46"/>
       <use x="95.410156" xlink:href="#DejaVuSans-48"/>
      </g>
     </g>
    </g>
    <g id="xtick_6">
     <g id="line2d_12">
      <g>
       <use style="stroke:#000000;stroke-width:1.6;" x="181.653889" xlink:href="#md72a079150" y="258.361667"/>
      </g>
     </g>
     <g id="text_14">
      <!-- 0.2 -->
      <g transform="translate(165.750764 288.258542)scale(0.2 -0.2)">
       <use xlink:href="#DejaVuSans-48"/>
       <use x="63.623047" xlink:href="#DejaVuSans-46"/>
       <use x="95.410156" xlink:href="#DejaVuSans-50"/>
      </g>
     </g>
    </g>
    <g id="xtick_7">
     <g id="line2d_13">
      <g>
       <use style="stroke:#000000;stroke-width:1.6;" x="249.617" xlink:href="#md72a079150" y="258.361667"/>
      </g>
     </g>
     <g id="text_15">
      <!-- 0.4 -->
      <g transform="translate(233.713875 288.258542)scale(0.2 -0.2)">
       <use xlink:href="#DejaVuSans-48"/>
       <use x="63.623047" xlink:href="#DejaVuSans-46"/>
       <use x="95.410156" xlink:href="#DejaVuSans-52"/>
      </g>
     </g>
    </g>
    <g id="xtick_8">
     <g id="line2d_14">
      <g>
       <use style="stroke:#000000;stroke-width:1.6;" x="317.580111" xlink:href="#md72a079150" y="258.361667"/>
      </g>
     </g>
     <g id="text_16">
      <!-- 0.6 -->
      <g transform="translate(301.676986 288.258542)scale(0.2 -0.2)">
       <use xlink:href="#DejaVuSans-48"/>
       <use x="63.623047" xlink:href="#DejaVuSans-46"/>
       <use x="95.410156" xlink:href="#DejaVuSans-54"/>
      </g>
     </g>
    </g>
    <g id="text_17">
     <!-- Max JS Divergence within $\epsilon$ -->
     <defs>
      <path d="M 9.8125 72.90625 
L 24.515625 72.90625 
L 43.109375 23.296875 
L 61.8125 72.90625 
L 76.515625 72.90625 
L 76.515625 0 
L 66.890625 0 
L 66.890625 64.015625 
L 48.09375 14.015625 
L 38.1875 14.015625 
L 19.390625 64.015625 
L 19.390625 0 
L 9.8125 0 
z
" id="DejaVuSans-77"/>
      <path d="M 34.28125 27.484375 
Q 23.390625 27.484375 19.1875 25 
Q 14.984375 22.515625 14.984375 16.5 
Q 14.984375 11.71875 18.140625 8.90625 
Q 21.296875 6.109375 26.703125 6.109375 
Q 34.1875 6.109375 38.703125 11.40625 
Q 43.21875 16.703125 43.21875 25.484375 
L 43.21875 27.484375 
z
M 52.203125 31.203125 
L 52.203125 0 
L 43.21875 0 
L 43.21875 8.296875 
Q 40.140625 3.328125 35.546875 0.953125 
Q 30.953125 -1.421875 24.3125 -1.421875 
Q 15.921875 -1.421875 10.953125 3.296875 
Q 6 8.015625 6 15.921875 
Q 6 25.140625 12.171875 29.828125 
Q 18.359375 34.515625 30.609375 34.515625 
L 43.21875 34.515625 
L 43.21875 35.40625 
Q 43.21875 41.609375 39.140625 45 
Q 35.0625 48.390625 27.6875 48.390625 
Q 23 48.390625 18.546875 47.265625 
Q 14.109375 46.140625 10.015625 43.890625 
L 10.015625 52.203125 
Q 14.9375 54.109375 19.578125 55.046875 
Q 24.21875 56 28.609375 56 
Q 40.484375 56 46.34375 49.84375 
Q 52.203125 43.703125 52.203125 31.203125 
z
" id="DejaVuSans-97"/>
      <path d="M 54.890625 54.6875 
L 35.109375 28.078125 
L 55.90625 0 
L 45.3125 0 
L 29.390625 21.484375 
L 13.484375 0 
L 2.875 0 
L 24.125 28.609375 
L 4.6875 54.6875 
L 15.28125 54.6875 
L 29.78125 35.203125 
L 44.28125 54.6875 
z
" id="DejaVuSans-120"/>
      <path d="M 9.8125 72.90625 
L 19.671875 72.90625 
L 19.671875 5.078125 
Q 19.671875 -8.109375 14.671875 -14.0625 
Q 9.671875 -20.015625 -1.421875 -20.015625 
L -5.171875 -20.015625 
L -5.171875 -11.71875 
L -2.09375 -11.71875 
Q 4.4375 -11.71875 7.125 -8.046875 
Q 9.8125 -4.390625 9.8125 5.078125 
z
" id="DejaVuSans-74"/>
      <path d="M 53.515625 70.515625 
L 53.515625 60.890625 
Q 47.90625 63.578125 42.921875 64.890625 
Q 37.9375 66.21875 33.296875 66.21875 
Q 25.25 66.21875 20.875 63.09375 
Q 16.5 59.96875 16.5 54.203125 
Q 16.5 49.359375 19.40625 46.890625 
Q 22.3125 44.4375 30.421875 42.921875 
L 36.375 41.703125 
Q 47.40625 39.59375 52.65625 34.296875 
Q 57.90625 29 57.90625 20.125 
Q 57.90625 9.515625 50.796875 4.046875 
Q 43.703125 -1.421875 29.984375 -1.421875 
Q 24.8125 -1.421875 18.96875 -0.25 
Q 13.140625 0.921875 6.890625 3.21875 
L 6.890625 13.375 
Q 12.890625 10.015625 18.65625 8.296875 
Q 24.421875 6.59375 29.984375 6.59375 
Q 38.421875 6.59375 43.015625 9.90625 
Q 47.609375 13.234375 47.609375 19.390625 
Q 47.609375 24.75 44.3125 27.78125 
Q 41.015625 30.8125 33.5 32.328125 
L 27.484375 33.5 
Q 16.453125 35.6875 11.515625 40.375 
Q 6.59375 45.0625 6.59375 53.421875 
Q 6.59375 63.09375 13.40625 68.65625 
Q 20.21875 74.21875 32.171875 74.21875 
Q 37.3125 74.21875 42.625 73.28125 
Q 47.953125 72.359375 53.515625 70.515625 
z
" id="DejaVuSans-83"/>
      <path d="M 19.671875 64.796875 
L 19.671875 8.109375 
L 31.59375 8.109375 
Q 46.6875 8.109375 53.6875 14.9375 
Q 60.6875 21.78125 60.6875 36.53125 
Q 60.6875 51.171875 53.6875 57.984375 
Q 46.6875 64.796875 31.59375 64.796875 
z
M 9.8125 72.90625 
L 30.078125 72.90625 
Q 51.265625 72.90625 61.171875 64.09375 
Q 71.09375 55.28125 71.09375 36.53125 
Q 71.09375 17.671875 61.125 8.828125 
Q 51.171875 0 30.078125 0 
L 9.8125 0 
z
" id="DejaVuSans-68"/>
      <path d="M 9.421875 54.6875 
L 18.40625 54.6875 
L 18.40625 0 
L 9.421875 0 
z
M 9.421875 75.984375 
L 18.40625 75.984375 
L 18.40625 64.59375 
L 9.421875 64.59375 
z
" id="DejaVuSans-105"/>
      <path d="M 2.984375 54.6875 
L 12.5 54.6875 
L 29.59375 8.796875 
L 46.6875 54.6875 
L 56.203125 54.6875 
L 35.6875 0 
L 23.484375 0 
z
" id="DejaVuSans-118"/>
      <path d="M 56.203125 29.59375 
L 56.203125 25.203125 
L 14.890625 25.203125 
Q 15.484375 15.921875 20.484375 11.0625 
Q 25.484375 6.203125 34.421875 6.203125 
Q 39.59375 6.203125 44.453125 7.46875 
Q 49.3125 8.734375 54.109375 11.28125 
L 54.109375 2.78125 
Q 49.265625 0.734375 44.1875 -0.34375 
Q 39.109375 -1.421875 33.890625 -1.421875 
Q 20.796875 -1.421875 13.15625 6.1875 
Q 5.515625 13.8125 5.515625 26.8125 
Q 5.515625 40.234375 12.765625 48.109375 
Q 20.015625 56 32.328125 56 
Q 43.359375 56 49.78125 48.890625 
Q 56.203125 41.796875 56.203125 29.59375 
z
M 47.21875 32.234375 
Q 47.125 39.59375 43.09375 43.984375 
Q 39.0625 48.390625 32.421875 48.390625 
Q 24.90625 48.390625 20.390625 44.140625 
Q 15.875 39.890625 15.1875 32.171875 
z
" id="DejaVuSans-101"/>
      <path d="M 41.109375 46.296875 
Q 39.59375 47.171875 37.8125 47.578125 
Q 36.03125 48 33.890625 48 
Q 26.265625 48 22.1875 43.046875 
Q 18.109375 38.09375 18.109375 28.8125 
L 18.109375 0 
L 9.078125 0 
L 9.078125 54.6875 
L 18.109375 54.6875 
L 18.109375 46.1875 
Q 20.953125 51.171875 25.484375 53.578125 
Q 30.03125 56 36.53125 56 
Q 37.453125 56 38.578125 55.875 
Q 39.703125 55.765625 41.0625 55.515625 
z
" id="DejaVuSans-114"/>
      <path d="M 45.40625 27.984375 
Q 45.40625 37.75 41.375 43.109375 
Q 37.359375 48.484375 30.078125 48.484375 
Q 22.859375 48.484375 18.828125 43.109375 
Q 14.796875 37.75 14.796875 27.984375 
Q 14.796875 18.265625 18.828125 12.890625 
Q 22.859375 7.515625 30.078125 7.515625 
Q 37.359375 7.515625 41.375 12.890625 
Q 45.40625 18.265625 45.40625 27.984375 
z
M 54.390625 6.78125 
Q 54.390625 -7.171875 48.1875 -13.984375 
Q 42 -20.796875 29.203125 -20.796875 
Q 24.46875 -20.796875 20.265625 -20.09375 
Q 16.0625 -19.390625 12.109375 -17.921875 
L 12.109375 -9.1875 
Q 16.0625 -11.328125 19.921875 -12.34375 
Q 23.78125 -13.375 27.78125 -13.375 
Q 36.625 -13.375 41.015625 -8.765625 
Q 45.40625 -4.15625 45.40625 5.171875 
L 45.40625 9.625 
Q 42.625 4.78125 38.28125 2.390625 
Q 33.9375 0 27.875 0 
Q 17.828125 0 11.671875 7.65625 
Q 5.515625 15.328125 5.515625 27.984375 
Q 5.515625 40.671875 11.671875 48.328125 
Q 17.828125 56 27.875 56 
Q 33.9375 56 38.28125 53.609375 
Q 42.625 51.21875 45.40625 46.390625 
L 45.40625 54.6875 
L 54.390625 54.6875 
z
" id="DejaVuSans-103"/>
      <path d="M 54.890625 33.015625 
L 54.890625 0 
L 45.90625 0 
L 45.90625 32.71875 
Q 45.90625 40.484375 42.875 44.328125 
Q 39.84375 48.1875 33.796875 48.1875 
Q 26.515625 48.1875 22.3125 43.546875 
Q 18.109375 38.921875 18.109375 30.90625 
L 18.109375 0 
L 9.078125 0 
L 9.078125 54.6875 
L 18.109375 54.6875 
L 18.109375 46.1875 
Q 21.34375 51.125 25.703125 53.5625 
Q 30.078125 56 35.796875 56 
Q 45.21875 56 50.046875 50.171875 
Q 54.890625 44.34375 54.890625 33.015625 
z
" id="DejaVuSans-110"/>
      <path d="M 48.78125 52.59375 
L 48.78125 44.1875 
Q 44.96875 46.296875 41.140625 47.34375 
Q 37.3125 48.390625 33.40625 48.390625 
Q 24.65625 48.390625 19.8125 42.84375 
Q 14.984375 37.3125 14.984375 27.296875 
Q 14.984375 17.28125 19.8125 11.734375 
Q 24.65625 6.203125 33.40625 6.203125 
Q 37.3125 6.203125 41.140625 7.25 
Q 44.96875 8.296875 48.78125 10.40625 
L 48.78125 2.09375 
Q 45.015625 0.34375 40.984375 -0.53125 
Q 36.96875 -1.421875 32.421875 -1.421875 
Q 20.0625 -1.421875 12.78125 6.34375 
Q 5.515625 14.109375 5.515625 27.296875 
Q 5.515625 40.671875 12.859375 48.328125 
Q 20.21875 56 33.015625 56 
Q 37.15625 56 41.109375 55.140625 
Q 45.0625 54.296875 48.78125 52.59375 
z
" id="DejaVuSans-99"/>
      <path d="M 4.203125 54.6875 
L 13.1875 54.6875 
L 24.421875 12.015625 
L 35.59375 54.6875 
L 46.1875 54.6875 
L 57.421875 12.015625 
L 68.609375 54.6875 
L 77.59375 54.6875 
L 63.28125 0 
L 52.6875 0 
L 40.921875 44.828125 
L 29.109375 0 
L 18.5 0 
z
" id="DejaVuSans-119"/>
      <path d="M 18.3125 70.21875 
L 18.3125 54.6875 
L 36.8125 54.6875 
L 36.8125 47.703125 
L 18.3125 47.703125 
L 18.3125 18.015625 
Q 18.3125 11.328125 20.140625 9.421875 
Q 21.96875 7.515625 27.59375 7.515625 
L 36.8125 7.515625 
L 36.8125 0 
L 27.59375 0 
Q 17.1875 0 13.234375 3.875 
Q 9.28125 7.765625 9.28125 18.015625 
L 9.28125 47.703125 
L 2.6875 47.703125 
L 2.6875 54.6875 
L 9.28125 54.6875 
L 9.28125 70.21875 
z
" id="DejaVuSans-116"/>
      <path d="M 54.890625 33.015625 
L 54.890625 0 
L 45.90625 0 
L 45.90625 32.71875 
Q 45.90625 40.484375 42.875 44.328125 
Q 39.84375 48.1875 33.796875 48.1875 
Q 26.515625 48.1875 22.3125 43.546875 
Q 18.109375 38.921875 18.109375 30.90625 
L 18.109375 0 
L 9.078125 0 
L 9.078125 75.984375 
L 18.109375 75.984375 
L 18.109375 46.1875 
Q 21.34375 51.125 25.703125 53.5625 
Q 30.078125 56 35.796875 56 
Q 45.21875 56 50.046875 50.171875 
Q 54.890625 44.34375 54.890625 33.015625 
z
" id="DejaVuSans-104"/>
      <path d="M 19.734375 29.5 
Q 14.453125 30.671875 12.15625 33.84375 
Q 10.453125 36.078125 10.453125 39.109375 
Q 10.453125 47.40625 18.359375 52.25 
Q 24.609375 56.0625 34.1875 56.0625 
Q 37.890625 56.0625 41.9375 55.46875 
Q 46 54.890625 50.53125 53.71875 
L 48.96875 45.5625 
Q 44.484375 46.96875 40.71875 47.609375 
Q 36.859375 48.25 33.40625 48.25 
Q 27.59375 48.25 23.78125 46 
Q 19.1875 43.3125 19.1875 39.40625 
Q 19.1875 36.8125 21.578125 35.015625 
Q 24.421875 32.859375 30.078125 32.859375 
L 37.640625 32.859375 
L 36.234375 25.4375 
L 29 25.4375 
Q 22.265625 25.4375 18.3125 22.953125 
Q 12.9375 19.578125 12.9375 14.3125 
Q 12.9375 10.984375 15.828125 8.796875 
Q 19.4375 6.0625 26.8125 6.0625 
Q 31.34375 6.0625 35.6875 6.9375 
Q 40.046875 7.859375 43.84375 9.671875 
L 42.1875 1.3125 
Q 37.546875 -0.046875 33.296875 -0.734375 
Q 29.046875 -1.421875 25.140625 -1.421875 
Q 13.53125 -1.421875 8.0625 3.03125 
Q 3.90625 6.453125 3.90625 12.203125 
Q 3.90625 19.96875 9.375 24.75 
Q 13.421875 28.328125 19.734375 29.5 
z
" id="DejaVuSans-Oblique-949"/>
     </defs>
     <g transform="translate(88.530833 311.617917)scale(0.2 -0.2)">
      <use transform="translate(0 0.015625)" xlink:href="#DejaVuSans-77"/>
      <use transform="translate(86.279297 0.015625)" xlink:href="#DejaVuSans-97"/>
      <use transform="translate(147.558594 0.015625)" xlink:href="#DejaVuSans-120"/>
      <use transform="translate(206.738281 0.015625)" xlink:href="#DejaVuSans-32"/>
      <use transform="translate(238.525391 0.015625)" xlink:href="#DejaVuSans-74"/>
      <use transform="translate(268.017578 0.015625)" xlink:href="#DejaVuSans-83"/>
      <use transform="translate(331.494141 0.015625)" xlink:href="#DejaVuSans-32"/>
      <use transform="translate(363.28125 0.015625)" xlink:href="#DejaVuSans-68"/>
      <use transform="translate(440.283203 0.015625)" xlink:href="#DejaVuSans-105"/>
      <use transform="translate(468.066406 0.015625)" xlink:href="#DejaVuSans-118"/>
      <use transform="translate(527.246094 0.015625)" xlink:href="#DejaVuSans-101"/>
      <use transform="translate(588.769531 0.015625)" xlink:href="#DejaVuSans-114"/>
      <use transform="translate(629.882812 0.015625)" xlink:href="#DejaVuSans-103"/>
      <use transform="translate(693.359375 0.015625)" xlink:href="#DejaVuSans-101"/>
      <use transform="translate(754.882812 0.015625)" xlink:href="#DejaVuSans-110"/>
      <use transform="translate(818.261719 0.015625)" xlink:href="#DejaVuSans-99"/>
      <use transform="translate(873.242188 0.015625)" xlink:href="#DejaVuSans-101"/>
      <use transform="translate(934.765625 0.015625)" xlink:href="#DejaVuSans-32"/>
      <use transform="translate(966.552734 0.015625)" xlink:href="#DejaVuSans-119"/>
      <use transform="translate(1048.339844 0.015625)" xlink:href="#DejaVuSans-105"/>
      <use transform="translate(1076.123047 0.015625)" xlink:href="#DejaVuSans-116"/>
      <use transform="translate(1115.332031 0.015625)" xlink:href="#DejaVuSans-104"/>
      <use transform="translate(1178.710938 0.015625)" xlink:href="#DejaVuSans-105"/>
      <use transform="translate(1206.494141 0.015625)" xlink:href="#DejaVuSans-110"/>
      <use transform="translate(1269.873047 0.015625)" xlink:href="#DejaVuSans-32"/>
      <use transform="translate(1301.660156 0.015625)" xlink:href="#DejaVuSans-Oblique-949"/>
     </g>
    </g>
   </g>
   <g id="matplotlib.axis_4">
    <g id="ytick_7">
     <g id="line2d_15">
      <g>
       <use style="stroke:#000000;stroke-width:1.6;" x="96.7" xlink:href="#m229766a851" y="35.357708"/>
      </g>
     </g>
     <g id="text_18">
      <!-- [0.00, -->
      <defs>
       <path d="M 8.59375 75.984375 
L 29.296875 75.984375 
L 29.296875 69 
L 17.578125 69 
L 17.578125 -6.203125 
L 29.296875 -6.203125 
L 29.296875 -13.1875 
L 8.59375 -13.1875 
z
" id="DejaVuSans-91"/>
       <path d="M 11.71875 12.40625 
L 22.015625 12.40625 
L 22.015625 4 
L 14.015625 -11.625 
L 7.71875 -11.625 
L 11.71875 4 
z
" id="DejaVuSans-44"/>
      </defs>
      <g transform="translate(23.309375 31.758333)scale(0.2 -0.2)">
       <use xlink:href="#DejaVuSans-91"/>
       <use x="39.013672" xlink:href="#DejaVuSans-48"/>
       <use x="102.636719" xlink:href="#DejaVuSans-46"/>
       <use x="134.423828" xlink:href="#DejaVuSans-48"/>
       <use x="198.046875" xlink:href="#DejaVuSans-48"/>
       <use x="261.669922" xlink:href="#DejaVuSans-44"/>
      </g>
      <!-- 0.25) -->
      <defs>
       <path d="M 8.015625 75.875 
L 15.828125 75.875 
Q 23.140625 64.359375 26.78125 53.3125 
Q 30.421875 42.28125 30.421875 31.390625 
Q 30.421875 20.453125 26.78125 9.375 
Q 23.140625 -1.703125 15.828125 -13.1875 
L 8.015625 -13.1875 
Q 14.5 -2 17.703125 9.0625 
Q 20.90625 20.125 20.90625 31.390625 
Q 20.90625 42.671875 17.703125 53.65625 
Q 14.5 64.65625 8.015625 75.875 
z
" id="DejaVuSans-41"/>
      </defs>
      <g transform="translate(29.665625 54.153958)scale(0.2 -0.2)">
       <use xlink:href="#DejaVuSans-48"/>
       <use x="63.623047" xlink:href="#DejaVuSans-46"/>
       <use x="95.410156" xlink:href="#DejaVuSans-50"/>
       <use x="159.033203" xlink:href="#DejaVuSans-53"/>
       <use x="222.65625" xlink:href="#DejaVuSans-41"/>
      </g>
     </g>
    </g>
    <g id="ytick_8">
     <g id="line2d_16">
      <g>
       <use style="stroke:#000000;stroke-width:1.6;" x="96.7" xlink:href="#m229766a851" y="99.073125"/>
      </g>
     </g>
     <g id="text_19">
      <!-- [0.25, -->
      <g transform="translate(23.309375 95.47375)scale(0.2 -0.2)">
       <use xlink:href="#DejaVuSans-91"/>
       <use x="39.013672" xlink:href="#DejaVuSans-48"/>
       <use x="102.636719" xlink:href="#DejaVuSans-46"/>
       <use x="134.423828" xlink:href="#DejaVuSans-50"/>
       <use x="198.046875" xlink:href="#DejaVuSans-53"/>
       <use x="261.669922" xlink:href="#DejaVuSans-44"/>
      </g>
      <!-- 0.50) -->
      <g transform="translate(29.665625 117.869375)scale(0.2 -0.2)">
       <use xlink:href="#DejaVuSans-48"/>
       <use x="63.623047" xlink:href="#DejaVuSans-46"/>
       <use x="95.410156" xlink:href="#DejaVuSans-53"/>
       <use x="159.033203" xlink:href="#DejaVuSans-48"/>
       <use x="222.65625" xlink:href="#DejaVuSans-41"/>
      </g>
     </g>
    </g>
    <g id="ytick_9">
     <g id="line2d_17">
      <g>
       <use style="stroke:#000000;stroke-width:1.6;" x="96.7" xlink:href="#m229766a851" y="162.788542"/>
      </g>
     </g>
     <g id="text_20">
      <!-- [0.50, -->
      <g transform="translate(23.309375 159.189167)scale(0.2 -0.2)">
       <use xlink:href="#DejaVuSans-91"/>
       <use x="39.013672" xlink:href="#DejaVuSans-48"/>
       <use x="102.636719" xlink:href="#DejaVuSans-46"/>
       <use x="134.423828" xlink:href="#DejaVuSans-53"/>
       <use x="198.046875" xlink:href="#DejaVuSans-48"/>
       <use x="261.669922" xlink:href="#DejaVuSans-44"/>
      </g>
      <!-- 0.75) -->
      <defs>
       <path d="M 8.203125 72.90625 
L 55.078125 72.90625 
L 55.078125 68.703125 
L 28.609375 0 
L 18.3125 0 
L 43.21875 64.59375 
L 8.203125 64.59375 
z
" id="DejaVuSans-55"/>
      </defs>
      <g transform="translate(29.665625 181.584792)scale(0.2 -0.2)">
       <use xlink:href="#DejaVuSans-48"/>
       <use x="63.623047" xlink:href="#DejaVuSans-46"/>
       <use x="95.410156" xlink:href="#DejaVuSans-55"/>
       <use x="159.033203" xlink:href="#DejaVuSans-53"/>
       <use x="222.65625" xlink:href="#DejaVuSans-41"/>
      </g>
     </g>
    </g>
    <g id="ytick_10">
     <g id="line2d_18">
      <g>
       <use style="stroke:#000000;stroke-width:1.6;" x="96.7" xlink:href="#m229766a851" y="226.503958"/>
      </g>
     </g>
     <g id="text_21">
      <!-- [0.75, -->
      <g transform="translate(23.309375 222.904583)scale(0.2 -0.2)">
       <use xlink:href="#DejaVuSans-91"/>
       <use x="39.013672" xlink:href="#DejaVuSans-48"/>
       <use x="102.636719" xlink:href="#DejaVuSans-46"/>
       <use x="134.423828" xlink:href="#DejaVuSans-55"/>
       <use x="198.046875" xlink:href="#DejaVuSans-53"/>
       <use x="261.669922" xlink:href="#DejaVuSans-44"/>
      </g>
      <!-- 1.00) -->
      <g transform="translate(29.665625 245.300208)scale(0.2 -0.2)">
       <use xlink:href="#DejaVuSans-49"/>
       <use x="63.623047" xlink:href="#DejaVuSans-46"/>
       <use x="95.410156" xlink:href="#DejaVuSans-48"/>
       <use x="159.033203" xlink:href="#DejaVuSans-48"/>
       <use x="222.65625" xlink:href="#DejaVuSans-41"/>
      </g>
     </g>
    </g>
    <g id="text_22">
     <!-- Max Attention -->
     <defs>
      <path d="M 34.1875 63.1875 
L 20.796875 26.90625 
L 47.609375 26.90625 
z
M 28.609375 72.90625 
L 39.796875 72.90625 
L 67.578125 0 
L 57.328125 0 
L 50.6875 18.703125 
L 17.828125 18.703125 
L 11.1875 0 
L 0.78125 0 
z
" id="DejaVuSans-65"/>
      <path d="M 30.609375 48.390625 
Q 23.390625 48.390625 19.1875 42.75 
Q 14.984375 37.109375 14.984375 27.296875 
Q 14.984375 17.484375 19.15625 11.84375 
Q 23.34375 6.203125 30.609375 6.203125 
Q 37.796875 6.203125 41.984375 11.859375 
Q 46.1875 17.53125 46.1875 27.296875 
Q 46.1875 37.015625 41.984375 42.703125 
Q 37.796875 48.390625 30.609375 48.390625 
z
M 30.609375 56 
Q 42.328125 56 49.015625 48.375 
Q 55.71875 40.765625 55.71875 27.296875 
Q 55.71875 13.875 49.015625 6.21875 
Q 42.328125 -1.421875 30.609375 -1.421875 
Q 18.84375 -1.421875 12.171875 6.21875 
Q 5.515625 13.875 5.515625 27.296875 
Q 5.515625 40.765625 12.171875 48.375 
Q 18.84375 56 30.609375 56 
z
" id="DejaVuSans-111"/>
     </defs>
     <g transform="translate(15.15 201.108958)rotate(-90)scale(0.2 -0.2)">
      <use xlink:href="#DejaVuSans-77"/>
      <use x="86.279297" xlink:href="#DejaVuSans-97"/>
      <use x="147.558594" xlink:href="#DejaVuSans-120"/>
      <use x="206.738281" xlink:href="#DejaVuSans-32"/>
      <use x="238.525391" xlink:href="#DejaVuSans-65"/>
      <use x="306.917969" xlink:href="#DejaVuSans-116"/>
      <use x="346.126953" xlink:href="#DejaVuSans-116"/>
      <use x="385.335938" xlink:href="#DejaVuSans-101"/>
      <use x="446.859375" xlink:href="#DejaVuSans-110"/>
      <use x="510.238281" xlink:href="#DejaVuSans-116"/>
      <use x="549.447266" xlink:href="#DejaVuSans-105"/>
      <use x="577.230469" xlink:href="#DejaVuSans-111"/>
      <use x="638.412109" xlink:href="#DejaVuSans-110"/>
     </g>
    </g>
   </g>
   <g id="line2d_19">
    <path clip-path="url(#p37a9b9b5e3)" d="M 299.31106 12.579588 
L 299.31106 32.649662 
" style="fill:none;stroke:#333333;stroke-dasharray:1.5,1.5;stroke-dashoffset:0;"/>
   </g>
   <g id="line2d_20">
    <path clip-path="url(#p37a9b9b5e3)" d="M 305.584868 10.01725 
L 305.584868 35.212 
" style="fill:none;stroke:#333333;stroke-dasharray:3,3;stroke-dashoffset:0;"/>
   </g>
   <g id="line2d_21">
    <path clip-path="url(#p37a9b9b5e3)" d="M 311.996431 14.191647 
L 311.996431 31.037603 
" style="fill:none;stroke:#333333;stroke-dasharray:1.5,1.5;stroke-dashoffset:0;"/>
   </g>
   <g id="line2d_22">
    <path clip-path="url(#p37a9b9b5e3)" d="M 272.527612 44.472417 
L 272.527612 51.729167 
" style="fill:none;stroke:#333333;stroke-dasharray:1.5,1.5;stroke-dashoffset:0;"/>
   </g>
   <g id="line2d_23">
    <path clip-path="url(#p37a9b9b5e3)" d="M 289.857445 43.818138 
L 289.857445 52.383445 
" style="fill:none;stroke:#333333;stroke-dasharray:3,3;stroke-dashoffset:0;"/>
   </g>
   <g id="line2d_24">
    <path clip-path="url(#p37a9b9b5e3)" d="M 307.327299 44.398454 
L 307.327299 51.80313 
" style="fill:none;stroke:#333333;stroke-dasharray:1.5,1.5;stroke-dashoffset:0;"/>
   </g>
   <g id="line2d_25">
    <path clip-path="url(#p37a9b9b5e3)" d="M 309.431953 73.832655 
L 309.431953 98.827429 
" style="fill:none;stroke:#333333;stroke-dasharray:1.5,1.5;stroke-dashoffset:0;"/>
   </g>
   <g id="line2d_26">
    <path clip-path="url(#p37a9b9b5e3)" d="M 310.419414 73.770429 
L 310.419414 98.889654 
" style="fill:none;stroke:#333333;stroke-dasharray:3,3;stroke-dashoffset:0;"/>
   </g>
   <g id="line2d_27">
    <path clip-path="url(#p37a9b9b5e3)" d="M 313.437034 76.11815 
L 313.437034 96.541934 
" style="fill:none;stroke:#333333;stroke-dasharray:1.5,1.5;stroke-dashoffset:0;"/>
   </g>
   <g id="line2d_28">
    <path clip-path="url(#p37a9b9b5e3)" d="M 215.959889 110.670061 
L 215.959889 112.962356 
" style="fill:none;stroke:#333333;stroke-dasharray:1.5,1.5;stroke-dashoffset:0;"/>
   </g>
   <g id="line2d_29">
    <path clip-path="url(#p37a9b9b5e3)" d="M 248.39958 110.765002 
L 248.39958 112.867415 
" style="fill:none;stroke:#333333;stroke-dasharray:3,3;stroke-dashoffset:0;"/>
   </g>
   <g id="line2d_30">
    <path clip-path="url(#p37a9b9b5e3)" d="M 294.784525 110.66526 
L 294.784525 112.967157 
" style="fill:none;stroke:#333333;stroke-dasharray:1.5,1.5;stroke-dashoffset:0;"/>
   </g>
   <g id="line2d_31">
    <path clip-path="url(#p37a9b9b5e3)" d="M 331.978922 137.302375 
L 331.978922 162.788542 
" style="fill:none;stroke:#333333;stroke-linecap:square;"/>
   </g>
   <g id="line2d_32">
    <path clip-path="url(#p37a9b9b5e3)" d="M 210.805803 165.332983 
L 210.805803 185.730267 
" style="fill:none;stroke:#333333;stroke-dasharray:1.5,1.5;stroke-dashoffset:0;"/>
   </g>
   <g id="line2d_33">
    <path clip-path="url(#p37a9b9b5e3)" d="M 246.966902 163.122597 
L 246.966902 187.940653 
" style="fill:none;stroke:#333333;stroke-dasharray:3,3;stroke-dashoffset:0;"/>
   </g>
   <g id="line2d_34">
    <path clip-path="url(#p37a9b9b5e3)" d="M 276.390546 163.502832 
L 276.390546 187.560418 
" style="fill:none;stroke:#333333;stroke-dasharray:1.5,1.5;stroke-dashoffset:0;"/>
   </g>
   <g id="line2d_35">
    <path clip-path="url(#p37a9b9b5e3)" d="M 145.813641 228.124301 
L 145.813641 250.369782 
" style="fill:none;stroke:#333333;stroke-dasharray:1.5,1.5;stroke-dashoffset:0;"/>
   </g>
   <g id="line2d_36">
    <path clip-path="url(#p37a9b9b5e3)" d="M 170.168011 226.858928 
L 170.168011 251.635155 
" style="fill:none;stroke:#333333;stroke-dasharray:3,3;stroke-dashoffset:0;"/>
   </g>
   <g id="line2d_37">
    <path clip-path="url(#p37a9b9b5e3)" d="M 176.859776 227.464591 
L 176.859776 251.029493 
" style="fill:none;stroke:#333333;stroke-dasharray:1.5,1.5;stroke-dashoffset:0;"/>
   </g>
   <g id="patch_88">
    <path d="M 96.7 258.361667 
L 96.7 3.5 
" style="fill:none;stroke:#000000;stroke-linecap:square;stroke-linejoin:miter;stroke-width:0.8;"/>
   </g>
   <g id="patch_89">
    <path d="M 96.7 258.361667 
L 351.561667 258.361667 
" style="fill:none;stroke:#000000;stroke-linecap:square;stroke-linejoin:miter;stroke-width:0.8;"/>
   </g>
  </g>
 </g>
 <defs>
  <clipPath id="p36a1cb1c24">
   <rect height="254.861667" width="254.861667" x="-269.521667" y="3.5"/>
  </clipPath>
  <clipPath id="p37a9b9b5e3">
   <rect height="254.861667" width="254.861667" x="96.7" y="3.5"/>
  </clipPath>
 </defs>
</svg>
