<?xml version="1.0" encoding="utf-8" standalone="no"?>
<!DOCTYPE svg PUBLIC "-//W3C//DTD SVG 1.1//EN"
  "http://www.w3.org/Graphics/SVG/1.1/DTD/svg11.dtd">
<!-- Created with matplotlib (https://matplotlib.org/) -->
<svg height="314.77pt" version="1.1" viewBox="0 0 358.205703 314.77" width="358.205703pt" xmlns="http://www.w3.org/2000/svg" xmlns:xlink="http://www.w3.org/1999/xlink">
 <defs>
  <style type="text/css">
*{stroke-linecap:butt;stroke-linejoin:round;}
  </style>
 </defs>
 <g id="figure_1">
  <g id="patch_1">
   <path d="M 0 314.77 
L 358.205703 314.77 
L 358.205703 0 
L 0 0 
z
" style="fill:#ffffff;"/>
  </g>
  <g id="axes_1">
   <g id="patch_2">
    <path d="M -265.23 254.07 
L -14.66 254.07 
L -14.66 3.5 
L -265.23 3.5 
z
" style="fill:#ffffff;"/>
   </g>
   <g id="patch_3">
    <path clip-path="url(#p26198e26f9)" d="M -253.840455 254.07 
L -248.145682 254.07 
L -248.145682 254.07 
L -253.840455 254.07 
z
" style="fill:#43406b;opacity:0.6;stroke:#000000;stroke-linejoin:miter;stroke-width:0.5;"/>
   </g>
   <g id="patch_4">
    <path clip-path="url(#p26198e26f9)" d="M -248.145682 254.07 
L -242.450909 254.07 
L -242.450909 254.07 
L -248.145682 254.07 
z
" style="fill:#43406b;opacity:0.6;stroke:#000000;stroke-linejoin:miter;stroke-width:0.5;"/>
   </g>
   <g id="patch_5">
    <path clip-path="url(#p26198e26f9)" d="M -242.450909 254.07 
L -236.756136 254.07 
L -236.756136 254.07 
L -242.450909 254.07 
z
" style="fill:#43406b;opacity:0.6;stroke:#000000;stroke-linejoin:miter;stroke-width:0.5;"/>
   </g>
   <g id="patch_6">
    <path clip-path="url(#p26198e26f9)" d="M -236.756136 254.07 
L -231.061364 254.07 
L -231.061364 254.07 
L -236.756136 254.07 
z
" style="fill:#43406b;opacity:0.6;stroke:#000000;stroke-linejoin:miter;stroke-width:0.5;"/>
   </g>
   <g id="patch_7">
    <path clip-path="url(#p26198e26f9)" d="M -231.061364 254.07 
L -225.366591 254.07 
L -225.366591 254.07 
L -231.061364 254.07 
z
" style="fill:#43406b;opacity:0.6;stroke:#000000;stroke-linejoin:miter;stroke-width:0.5;"/>
   </g>
   <g id="patch_8">
    <path clip-path="url(#p26198e26f9)" d="M -225.366591 254.07 
L -219.671818 254.07 
L -219.671818 254.07 
L -225.366591 254.07 
z
" style="fill:#43406b;opacity:0.6;stroke:#000000;stroke-linejoin:miter;stroke-width:0.5;"/>
   </g>
   <g id="patch_9">
    <path clip-path="url(#p26198e26f9)" d="M -219.671818 254.07 
L -213.977045 254.07 
L -213.977045 254.07 
L -219.671818 254.07 
z
" style="fill:#43406b;opacity:0.6;stroke:#000000;stroke-linejoin:miter;stroke-width:0.5;"/>
   </g>
   <g id="patch_10">
    <path clip-path="url(#p26198e26f9)" d="M -213.977045 254.07 
L -208.282273 254.07 
L -208.282273 253.667575 
L -213.977045 253.667575 
z
" style="fill:#43406b;opacity:0.6;stroke:#000000;stroke-linejoin:miter;stroke-width:0.5;"/>
   </g>
   <g id="patch_11">
    <path clip-path="url(#p26198e26f9)" d="M -208.282273 254.07 
L -202.5875 254.07 
L -202.5875 253.667575 
L -208.282273 253.667575 
z
" style="fill:#43406b;opacity:0.6;stroke:#000000;stroke-linejoin:miter;stroke-width:0.5;"/>
   </g>
   <g id="patch_12">
    <path clip-path="url(#p26198e26f9)" d="M -202.5875 254.07 
L -196.892727 254.07 
L -196.892727 253.667575 
L -202.5875 253.667575 
z
" style="fill:#43406b;opacity:0.6;stroke:#000000;stroke-linejoin:miter;stroke-width:0.5;"/>
   </g>
   <g id="patch_13">
    <path clip-path="url(#p26198e26f9)" d="M -196.892727 254.07 
L -191.197955 254.07 
L -191.197955 252.057874 
L -196.892727 252.057874 
z
" style="fill:#43406b;opacity:0.6;stroke:#000000;stroke-linejoin:miter;stroke-width:0.5;"/>
   </g>
   <g id="patch_14">
    <path clip-path="url(#p26198e26f9)" d="M -191.197955 254.07 
L -185.503182 254.07 
L -185.503182 253.667575 
L -191.197955 253.667575 
z
" style="fill:#43406b;opacity:0.6;stroke:#000000;stroke-linejoin:miter;stroke-width:0.5;"/>
   </g>
   <g id="patch_15">
    <path clip-path="url(#p26198e26f9)" d="M -185.503182 254.07 
L -179.808409 254.07 
L -179.808409 251.655449 
L -185.503182 251.655449 
z
" style="fill:#43406b;opacity:0.6;stroke:#000000;stroke-linejoin:miter;stroke-width:0.5;"/>
   </g>
   <g id="patch_16">
    <path clip-path="url(#p26198e26f9)" d="M -179.808409 254.07 
L -174.113636 254.07 
L -174.113636 250.045749 
L -179.808409 250.045749 
z
" style="fill:#43406b;opacity:0.6;stroke:#000000;stroke-linejoin:miter;stroke-width:0.5;"/>
   </g>
   <g id="patch_17">
    <path clip-path="url(#p26198e26f9)" d="M -174.113636 254.07 
L -168.418864 254.07 
L -168.418864 248.436048 
L -174.113636 248.436048 
z
" style="fill:#43406b;opacity:0.6;stroke:#000000;stroke-linejoin:miter;stroke-width:0.5;"/>
   </g>
   <g id="patch_18">
    <path clip-path="url(#p26198e26f9)" d="M -168.418864 254.07 
L -162.724091 254.07 
L -162.724091 247.228773 
L -168.418864 247.228773 
z
" style="fill:#43406b;opacity:0.6;stroke:#000000;stroke-linejoin:miter;stroke-width:0.5;"/>
   </g>
   <g id="patch_19">
    <path clip-path="url(#p26198e26f9)" d="M -162.724091 254.07 
L -157.029318 254.07 
L -157.029318 246.826348 
L -162.724091 246.826348 
z
" style="fill:#43406b;opacity:0.6;stroke:#000000;stroke-linejoin:miter;stroke-width:0.5;"/>
   </g>
   <g id="patch_20">
    <path clip-path="url(#p26198e26f9)" d="M -157.029318 254.07 
L -151.334545 254.07 
L -151.334545 244.411797 
L -157.029318 244.411797 
z
" style="fill:#43406b;opacity:0.6;stroke:#000000;stroke-linejoin:miter;stroke-width:0.5;"/>
   </g>
   <g id="patch_21">
    <path clip-path="url(#p26198e26f9)" d="M -151.334545 254.07 
L -145.639773 254.07 
L -145.639773 235.558445 
L -151.334545 235.558445 
z
" style="fill:#43406b;opacity:0.6;stroke:#000000;stroke-linejoin:miter;stroke-width:0.5;"/>
   </g>
   <g id="patch_22">
    <path clip-path="url(#p26198e26f9)" d="M -145.639773 254.07 
L -139.945 254.07 
L -139.945 234.351169 
L -145.639773 234.351169 
z
" style="fill:#43406b;opacity:0.6;stroke:#000000;stroke-linejoin:miter;stroke-width:0.5;"/>
   </g>
   <g id="patch_23">
    <path clip-path="url(#p26198e26f9)" d="M -139.945 254.07 
L -134.250227 254.07 
L -134.250227 228.314792 
L -139.945 228.314792 
z
" style="fill:#43406b;opacity:0.6;stroke:#000000;stroke-linejoin:miter;stroke-width:0.5;"/>
   </g>
   <g id="patch_24">
    <path clip-path="url(#p26198e26f9)" d="M -134.250227 254.07 
L -128.555455 254.07 
L -128.555455 215.839614 
L -134.250227 215.839614 
z
" style="fill:#43406b;opacity:0.6;stroke:#000000;stroke-linejoin:miter;stroke-width:0.5;"/>
   </g>
   <g id="patch_25">
    <path clip-path="url(#p26198e26f9)" d="M -128.555455 254.07 
L -122.860682 254.07 
L -122.860682 213.827488 
L -128.555455 213.827488 
z
" style="fill:#43406b;opacity:0.6;stroke:#000000;stroke-linejoin:miter;stroke-width:0.5;"/>
   </g>
   <g id="patch_26">
    <path clip-path="url(#p26198e26f9)" d="M -122.860682 254.07 
L -117.165909 254.07 
L -117.165909 198.132909 
L -122.860682 198.132909 
z
" style="fill:#43406b;opacity:0.6;stroke:#000000;stroke-linejoin:miter;stroke-width:0.5;"/>
   </g>
   <g id="patch_27">
    <path clip-path="url(#p26198e26f9)" d="M -117.165909 254.07 
L -111.471136 254.07 
L -111.471136 163.926773 
L -117.165909 163.926773 
z
" style="fill:#43406b;opacity:0.6;stroke:#000000;stroke-linejoin:miter;stroke-width:0.5;"/>
   </g>
   <g id="patch_28">
    <path clip-path="url(#p26198e26f9)" d="M -111.471136 254.07 
L -105.776364 254.07 
L -105.776364 149.439469 
L -111.471136 149.439469 
z
" style="fill:#43406b;opacity:0.6;stroke:#000000;stroke-linejoin:miter;stroke-width:0.5;"/>
   </g>
   <g id="patch_29">
    <path clip-path="url(#p26198e26f9)" d="M -105.776364 254.07 
L -100.081591 254.07 
L -100.081591 105.977556 
L -105.776364 105.977556 
z
" style="fill:#43406b;opacity:0.6;stroke:#000000;stroke-linejoin:miter;stroke-width:0.5;"/>
   </g>
   <g id="patch_30">
    <path clip-path="url(#p26198e26f9)" d="M -100.081591 254.07 
L -94.386818 254.07 
L -94.386818 84.649025 
L -100.081591 84.649025 
z
" style="fill:#43406b;opacity:0.6;stroke:#000000;stroke-linejoin:miter;stroke-width:0.5;"/>
   </g>
   <g id="patch_31">
    <path clip-path="url(#p26198e26f9)" d="M -94.386818 254.07 
L -88.692045 254.07 
L -88.692045 52.052591 
L -94.386818 52.052591 
z
" style="fill:#43406b;opacity:0.6;stroke:#000000;stroke-linejoin:miter;stroke-width:0.5;"/>
   </g>
   <g id="patch_32">
    <path clip-path="url(#p26198e26f9)" d="M -88.692045 254.07 
L -82.997273 254.07 
L -82.997273 33.541035 
L -88.692045 33.541035 
z
" style="fill:#43406b;opacity:0.6;stroke:#000000;stroke-linejoin:miter;stroke-width:0.5;"/>
   </g>
   <g id="patch_33">
    <path clip-path="url(#p26198e26f9)" d="M -82.997273 254.07 
L -77.3025 254.07 
L -77.3025 17.041605 
L -82.997273 17.041605 
z
" style="fill:#43406b;opacity:0.6;stroke:#000000;stroke-linejoin:miter;stroke-width:0.5;"/>
   </g>
   <g id="patch_34">
    <path clip-path="url(#p26198e26f9)" d="M -77.3025 254.07 
L -71.607727 254.07 
L -71.607727 15.431905 
L -77.3025 15.431905 
z
" style="fill:#43406b;opacity:0.6;stroke:#000000;stroke-linejoin:miter;stroke-width:0.5;"/>
   </g>
   <g id="patch_35">
    <path clip-path="url(#p26198e26f9)" d="M -71.607727 254.07 
L -65.912955 254.07 
L -65.912955 65.332619 
L -71.607727 65.332619 
z
" style="fill:#43406b;opacity:0.6;stroke:#000000;stroke-linejoin:miter;stroke-width:0.5;"/>
   </g>
   <g id="patch_36">
    <path clip-path="url(#p26198e26f9)" d="M -65.912955 254.07 
L -60.218182 254.07 
L -60.218182 138.976416 
L -65.912955 138.976416 
z
" style="fill:#43406b;opacity:0.6;stroke:#000000;stroke-linejoin:miter;stroke-width:0.5;"/>
   </g>
   <g id="patch_37">
    <path clip-path="url(#p26198e26f9)" d="M -60.218182 254.07 
L -54.523409 254.07 
L -54.523409 208.998387 
L -60.218182 208.998387 
z
" style="fill:#43406b;opacity:0.6;stroke:#000000;stroke-linejoin:miter;stroke-width:0.5;"/>
   </g>
   <g id="patch_38">
    <path clip-path="url(#p26198e26f9)" d="M -54.523409 254.07 
L -48.828636 254.07 
L -48.828636 241.192396 
L -54.523409 241.192396 
z
" style="fill:#43406b;opacity:0.6;stroke:#000000;stroke-linejoin:miter;stroke-width:0.5;"/>
   </g>
   <g id="patch_39">
    <path clip-path="url(#p26198e26f9)" d="M -48.828636 254.07 
L -43.133864 254.07 
L -43.133864 252.057874 
L -48.828636 252.057874 
z
" style="fill:#43406b;opacity:0.6;stroke:#000000;stroke-linejoin:miter;stroke-width:0.5;"/>
   </g>
   <g id="patch_40">
    <path clip-path="url(#p26198e26f9)" d="M -43.133864 254.07 
L -37.439091 254.07 
L -37.439091 254.07 
L -43.133864 254.07 
z
" style="fill:#43406b;opacity:0.6;stroke:#000000;stroke-linejoin:miter;stroke-width:0.5;"/>
   </g>
   <g id="patch_41">
    <path clip-path="url(#p26198e26f9)" d="M -37.439091 254.07 
L -31.744318 254.07 
L -31.744318 254.07 
L -37.439091 254.07 
z
" style="fill:#43406b;opacity:0.6;stroke:#000000;stroke-linejoin:miter;stroke-width:0.5;"/>
   </g>
   <g id="patch_42">
    <path clip-path="url(#p26198e26f9)" d="M -31.744318 254.07 
L -26.049545 254.07 
L -26.049545 254.07 
L -31.744318 254.07 
z
" style="fill:#43406b;opacity:0.6;stroke:#000000;stroke-linejoin:miter;stroke-width:0.5;"/>
   </g>
   <g id="matplotlib.axis_1">
    <g id="xtick_1">
     <g id="line2d_1">
      <defs>
       <path d="M 0 0 
L 0 3.5 
" id="mb9ebff1b9c" style="stroke:#000000;stroke-width:1.6;"/>
      </defs>
      <g/>
     </g>
     <g id="text_1">
      <!-- 0.0 -->
      <defs>
       <path d="M 31.78125 66.40625 
Q 24.171875 66.40625 20.328125 58.90625 
Q 16.5 51.421875 16.5 36.375 
Q 16.5 21.390625 20.328125 13.890625 
Q 24.171875 6.390625 31.78125 6.390625 
Q 39.453125 6.390625 43.28125 13.890625 
Q 47.125 21.390625 47.125 36.375 
Q 47.125 51.421875 43.28125 58.90625 
Q 39.453125 66.40625 31.78125 66.40625 
z
M 31.78125 74.21875 
Q 44.046875 74.21875 50.515625 64.515625 
Q 56.984375 54.828125 56.984375 36.375 
Q 56.984375 17.96875 50.515625 8.265625 
Q 44.046875 -1.421875 31.78125 -1.421875 
Q 19.53125 -1.421875 13.0625 8.265625 
Q 6.59375 17.96875 6.59375 36.375 
Q 6.59375 54.828125 13.0625 64.515625 
Q 19.53125 74.21875 31.78125 74.21875 
z
" id="DejaVuSans-48"/>
       <path d="M 10.6875 12.40625 
L 21 12.40625 
L 21 0 
L 10.6875 0 
z
" id="DejaVuSans-46"/>
      </defs>
      <g transform="translate(-269.74358 283.966875)scale(0.2 -0.2)">
       <use xlink:href="#DejaVuSans-48"/>
       <use x="63.623047" xlink:href="#DejaVuSans-46"/>
       <use x="95.410156" xlink:href="#DejaVuSans-48"/>
      </g>
     </g>
    </g>
    <g id="xtick_2">
     <g id="line2d_2">
      <g/>
     </g>
     <g id="text_2">
      <!-- 0.2 -->
      <defs>
       <path d="M 19.1875 8.296875 
L 53.609375 8.296875 
L 53.609375 0 
L 7.328125 0 
L 7.328125 8.296875 
Q 12.9375 14.109375 22.625 23.890625 
Q 32.328125 33.6875 34.8125 36.53125 
Q 39.546875 41.84375 41.421875 45.53125 
Q 43.3125 49.21875 43.3125 52.78125 
Q 43.3125 58.59375 39.234375 62.25 
Q 35.15625 65.921875 28.609375 65.921875 
Q 23.96875 65.921875 18.8125 64.3125 
Q 13.671875 62.703125 7.8125 59.421875 
L 7.8125 69.390625 
Q 13.765625 71.78125 18.9375 73 
Q 24.125 74.21875 28.421875 74.21875 
Q 39.75 74.21875 46.484375 68.546875 
Q 53.21875 62.890625 53.21875 53.421875 
Q 53.21875 48.921875 51.53125 44.890625 
Q 49.859375 40.875 45.40625 35.40625 
Q 44.1875 33.984375 37.640625 27.21875 
Q 31.109375 20.453125 19.1875 8.296875 
z
" id="DejaVuSans-50"/>
      </defs>
      <g transform="translate(-204.660463 283.966875)scale(0.2 -0.2)">
       <use xlink:href="#DejaVuSans-48"/>
       <use x="63.623047" xlink:href="#DejaVuSans-46"/>
       <use x="95.410156" xlink:href="#DejaVuSans-50"/>
      </g>
     </g>
    </g>
    <g id="xtick_3">
     <g id="line2d_3">
      <g/>
     </g>
     <g id="text_3">
      <!-- 0.4 -->
      <defs>
       <path d="M 37.796875 64.3125 
L 12.890625 25.390625 
L 37.796875 25.390625 
z
M 35.203125 72.90625 
L 47.609375 72.90625 
L 47.609375 25.390625 
L 58.015625 25.390625 
L 58.015625 17.1875 
L 47.609375 17.1875 
L 47.609375 0 
L 37.796875 0 
L 37.796875 17.1875 
L 4.890625 17.1875 
L 4.890625 26.703125 
z
" id="DejaVuSans-52"/>
      </defs>
      <g transform="translate(-139.577346 283.966875)scale(0.2 -0.2)">
       <use xlink:href="#DejaVuSans-48"/>
       <use x="63.623047" xlink:href="#DejaVuSans-46"/>
       <use x="95.410156" xlink:href="#DejaVuSans-52"/>
      </g>
     </g>
    </g>
    <g id="xtick_4">
     <g id="line2d_4">
      <g/>
     </g>
     <g id="text_4">
      <!-- 0.6 -->
      <defs>
       <path d="M 33.015625 40.375 
Q 26.375 40.375 22.484375 35.828125 
Q 18.609375 31.296875 18.609375 23.390625 
Q 18.609375 15.53125 22.484375 10.953125 
Q 26.375 6.390625 33.015625 6.390625 
Q 39.65625 6.390625 43.53125 10.953125 
Q 47.40625 15.53125 47.40625 23.390625 
Q 47.40625 31.296875 43.53125 35.828125 
Q 39.65625 40.375 33.015625 40.375 
z
M 52.59375 71.296875 
L 52.59375 62.3125 
Q 48.875 64.0625 45.09375 64.984375 
Q 41.3125 65.921875 37.59375 65.921875 
Q 27.828125 65.921875 22.671875 59.328125 
Q 17.53125 52.734375 16.796875 39.40625 
Q 19.671875 43.65625 24.015625 45.921875 
Q 28.375 48.1875 33.59375 48.1875 
Q 44.578125 48.1875 50.953125 41.515625 
Q 57.328125 34.859375 57.328125 23.390625 
Q 57.328125 12.15625 50.6875 5.359375 
Q 44.046875 -1.421875 33.015625 -1.421875 
Q 20.359375 -1.421875 13.671875 8.265625 
Q 6.984375 17.96875 6.984375 36.375 
Q 6.984375 53.65625 15.1875 63.9375 
Q 23.390625 74.21875 37.203125 74.21875 
Q 40.921875 74.21875 44.703125 73.484375 
Q 48.484375 72.75 52.59375 71.296875 
z
" id="DejaVuSans-54"/>
      </defs>
      <g transform="translate(-74.494229 283.966875)scale(0.2 -0.2)">
       <use xlink:href="#DejaVuSans-48"/>
       <use x="63.623047" xlink:href="#DejaVuSans-46"/>
       <use x="95.410156" xlink:href="#DejaVuSans-54"/>
      </g>
     </g>
    </g>
    <g id="text_5">
     <!--   -->
     <defs>
      <path id="DejaVuSans-32"/>
     </defs>
     <g transform="translate(-143.123125 307.323125)scale(0.2 -0.2)">
      <use xlink:href="#DejaVuSans-32"/>
     </g>
    </g>
   </g>
   <g id="matplotlib.axis_2">
    <g id="ytick_1">
     <g id="line2d_5">
      <defs>
       <path d="M 0 0 
L -3.5 0 
" id="mb2f2a5ca49" style="stroke:#000000;stroke-width:1.6;"/>
      </defs>
      <g/>
     </g>
     <g id="text_6">
      <!-- 0.000 -->
      <g transform="translate(-337.18625 261.668438)scale(0.2 -0.2)">
       <use xlink:href="#DejaVuSans-48"/>
       <use x="63.623047" xlink:href="#DejaVuSans-46"/>
       <use x="95.410156" xlink:href="#DejaVuSans-48"/>
       <use x="159.033203" xlink:href="#DejaVuSans-48"/>
       <use x="222.65625" xlink:href="#DejaVuSans-48"/>
      </g>
     </g>
    </g>
    <g id="ytick_2">
     <g id="line2d_6">
      <g/>
     </g>
     <g id="text_7">
      <!-- 0.025 -->
      <defs>
       <path d="M 10.796875 72.90625 
L 49.515625 72.90625 
L 49.515625 64.59375 
L 19.828125 64.59375 
L 19.828125 46.734375 
Q 21.96875 47.46875 24.109375 47.828125 
Q 26.265625 48.1875 28.421875 48.1875 
Q 40.625 48.1875 47.75 41.5 
Q 54.890625 34.8125 54.890625 23.390625 
Q 54.890625 11.625 47.5625 5.09375 
Q 40.234375 -1.421875 26.90625 -1.421875 
Q 22.3125 -1.421875 17.546875 -0.640625 
Q 12.796875 0.140625 7.71875 1.703125 
L 7.71875 11.625 
Q 12.109375 9.234375 16.796875 8.0625 
Q 21.484375 6.890625 26.703125 6.890625 
Q 35.15625 6.890625 40.078125 11.328125 
Q 45.015625 15.765625 45.015625 23.390625 
Q 45.015625 31 40.078125 35.4375 
Q 35.15625 39.890625 26.703125 39.890625 
Q 22.75 39.890625 18.8125 39.015625 
Q 14.890625 38.140625 10.796875 36.28125 
z
" id="DejaVuSans-53"/>
      </defs>
      <g transform="translate(-337.18625 211.365298)scale(0.2 -0.2)">
       <use xlink:href="#DejaVuSans-48"/>
       <use x="63.623047" xlink:href="#DejaVuSans-46"/>
       <use x="95.410156" xlink:href="#DejaVuSans-48"/>
       <use x="159.033203" xlink:href="#DejaVuSans-50"/>
       <use x="222.65625" xlink:href="#DejaVuSans-53"/>
      </g>
     </g>
    </g>
    <g id="ytick_3">
     <g id="line2d_7">
      <g/>
     </g>
     <g id="text_8">
      <!-- 0.050 -->
      <g transform="translate(-337.18625 161.062158)scale(0.2 -0.2)">
       <use xlink:href="#DejaVuSans-48"/>
       <use x="63.623047" xlink:href="#DejaVuSans-46"/>
       <use x="95.410156" xlink:href="#DejaVuSans-48"/>
       <use x="159.033203" xlink:href="#DejaVuSans-53"/>
       <use x="222.65625" xlink:href="#DejaVuSans-48"/>
      </g>
     </g>
    </g>
    <g id="ytick_4">
     <g id="line2d_8">
      <g/>
     </g>
     <g id="text_9">
      <!-- 0.075 -->
      <defs>
       <path d="M 8.203125 72.90625 
L 55.078125 72.90625 
L 55.078125 68.703125 
L 28.609375 0 
L 18.3125 0 
L 43.21875 64.59375 
L 8.203125 64.59375 
z
" id="DejaVuSans-55"/>
      </defs>
      <g transform="translate(-337.18625 110.759018)scale(0.2 -0.2)">
       <use xlink:href="#DejaVuSans-48"/>
       <use x="63.623047" xlink:href="#DejaVuSans-46"/>
       <use x="95.410156" xlink:href="#DejaVuSans-48"/>
       <use x="159.033203" xlink:href="#DejaVuSans-55"/>
       <use x="222.65625" xlink:href="#DejaVuSans-53"/>
      </g>
     </g>
    </g>
    <g id="ytick_5">
     <g id="line2d_9">
      <g/>
     </g>
     <g id="text_10">
      <!-- 0.100 -->
      <defs>
       <path d="M 12.40625 8.296875 
L 28.515625 8.296875 
L 28.515625 63.921875 
L 10.984375 60.40625 
L 10.984375 69.390625 
L 28.421875 72.90625 
L 38.28125 72.90625 
L 38.28125 8.296875 
L 54.390625 8.296875 
L 54.390625 0 
L 12.40625 0 
z
" id="DejaVuSans-49"/>
      </defs>
      <g transform="translate(-337.18625 60.455878)scale(0.2 -0.2)">
       <use xlink:href="#DejaVuSans-48"/>
       <use x="63.623047" xlink:href="#DejaVuSans-46"/>
       <use x="95.410156" xlink:href="#DejaVuSans-49"/>
       <use x="159.033203" xlink:href="#DejaVuSans-48"/>
       <use x="222.65625" xlink:href="#DejaVuSans-48"/>
      </g>
     </g>
    </g>
    <g id="text_11">
     <!--   -->
     <g transform="translate(-344.8465 131.58175)rotate(-90)scale(0.176 -0.176)">
      <use xlink:href="#DejaVuSans-32"/>
     </g>
    </g>
   </g>
   <g id="patch_43">
    <path style="fill:none;stroke:#000000;stroke-linecap:square;stroke-linejoin:miter;stroke-width:0.8;"/>
   </g>
   <g id="patch_44">
    <path style="fill:none;stroke:#000000;stroke-linecap:square;stroke-linejoin:miter;stroke-width:0.8;"/>
   </g>
  </g>
  <g id="axes_2">
   <g id="patch_45">
    <path d="M 96.7 254.07 
L 347.27 254.07 
L 347.27 3.5 
L 96.7 3.5 
z
" style="fill:#ffffff;"/>
   </g>
   <g id="PolyCollection_1">
    <defs>
     <path d="M 174.29665 -279.922412 
L 174.29665 -279.975088 
L 175.855002 -279.974932 
L 177.413354 -279.973712 
L 178.971706 -279.974661 
L 180.530058 -279.980661 
L 182.088411 -279.992518 
L 183.646763 -280.008535 
L 185.205115 -280.025774 
L 186.763467 -280.042247 
L 188.321819 -280.058513 
L 189.880171 -280.077548 
L 191.438523 -280.103007 
L 192.996875 -280.137084 
L 194.555228 -280.179429 
L 196.11358 -280.227633 
L 197.671932 -280.278273 
L 199.230284 -280.327092 
L 200.788636 -280.368669 
L 202.346988 -280.397512 
L 203.90534 -280.411043 
L 205.463692 -280.412074 
L 207.022045 -280.408426 
L 208.580397 -280.410535 
L 210.138749 -280.42962 
L 211.697101 -280.476695 
L 213.255453 -280.560096 
L 214.813805 -280.680895 
L 216.372157 -280.829878 
L 217.930509 -280.990369 
L 219.488862 -281.146187 
L 221.047214 -281.289039 
L 222.605566 -281.420236 
L 224.163918 -281.546295 
L 225.72227 -281.672108 
L 227.280622 -281.797409 
L 228.838974 -281.920967 
L 230.397326 -282.050196 
L 231.955679 -282.205879 
L 233.514031 -282.413098 
L 235.072383 -282.682578 
L 236.630735 -282.998015 
L 238.189087 -283.321467 
L 239.747439 -283.613709 
L 241.305791 -283.854946 
L 242.864143 -284.053596 
L 244.422496 -284.242988 
L 245.980848 -284.473591 
L 247.5392 -284.803521 
L 249.097552 -285.281733 
L 250.655904 -285.92245 
L 252.214256 -286.685702 
L 253.772608 -287.486584 
L 255.33096 -288.238625 
L 256.889313 -288.905548 
L 258.447665 -289.521848 
L 260.006017 -290.164842 
L 261.564369 -290.900989 
L 263.122721 -291.747739 
L 264.681073 -292.672608 
L 266.239425 -293.6196 
L 267.797777 -294.541556 
L 269.35613 -295.423189 
L 270.914482 -296.284376 
L 272.472834 -297.158471 
L 274.031186 -298.058008 
L 275.589538 -298.956317 
L 277.14789 -299.802822 
L 278.706242 -300.558639 
L 280.264594 -301.221855 
L 281.822947 -301.824558 
L 283.381299 -302.408023 
L 284.939651 -302.995051 
L 286.498003 -303.575497 
L 288.056355 -304.110878 
L 289.614707 -304.552698 
L 291.173059 -304.860371 
L 292.731411 -305.00575 
L 294.289763 -304.964403 
L 295.848116 -304.705752 
L 297.406468 -304.192025 
L 298.96482 -303.386731 
L 300.523172 -302.269491 
L 302.081524 -300.851969 
L 303.639876 -299.184017 
L 305.198228 -297.341011 
L 306.75658 -295.399219 
L 308.314933 -293.418434 
L 309.873285 -291.443712 
L 311.431637 -289.519831 
L 312.989989 -287.702352 
L 314.548341 -286.053817 
L 316.106693 -284.62652 
L 317.665045 -283.444696 
L 319.223397 -282.500112 
L 320.78175 -281.763695 
L 322.340102 -281.202205 
L 323.898454 -280.787008 
L 325.456806 -280.492652 
L 327.015158 -280.293003 
L 328.57351 -280.16176 
L 328.57351 -279.73574 
L 328.57351 -279.73574 
L 327.015158 -279.604497 
L 325.456806 -279.404848 
L 323.898454 -279.110492 
L 322.340102 -278.695295 
L 320.78175 -278.133805 
L 319.223397 -277.397388 
L 317.665045 -276.452804 
L 316.106693 -275.27098 
L 314.548341 -273.843683 
L 312.989989 -272.195148 
L 311.431637 -270.377669 
L 309.873285 -268.453788 
L 308.314933 -266.479066 
L 306.75658 -264.498281 
L 305.198228 -262.556489 
L 303.639876 -260.713483 
L 302.081524 -259.045531 
L 300.523172 -257.628009 
L 298.96482 -256.510769 
L 297.406468 -255.705475 
L 295.848116 -255.191748 
L 294.289763 -254.933097 
L 292.731411 -254.89175 
L 291.173059 -255.037129 
L 289.614707 -255.344802 
L 288.056355 -255.786622 
L 286.498003 -256.322003 
L 284.939651 -256.902449 
L 283.381299 -257.489477 
L 281.822947 -258.072942 
L 280.264594 -258.675645 
L 278.706242 -259.338861 
L 277.14789 -260.094678 
L 275.589538 -260.941183 
L 274.031186 -261.839492 
L 272.472834 -262.739029 
L 270.914482 -263.613124 
L 269.35613 -264.474311 
L 267.797777 -265.355944 
L 266.239425 -266.2779 
L 264.681073 -267.224892 
L 263.122721 -268.149761 
L 261.564369 -268.996511 
L 260.006017 -269.732658 
L 258.447665 -270.375652 
L 256.889313 -270.991952 
L 255.33096 -271.658875 
L 253.772608 -272.410916 
L 252.214256 -273.211798 
L 250.655904 -273.97505 
L 249.097552 -274.615767 
L 247.5392 -275.093979 
L 245.980848 -275.423909 
L 244.422496 -275.654512 
L 242.864143 -275.843904 
L 241.305791 -276.042554 
L 239.747439 -276.283791 
L 238.189087 -276.576033 
L 236.630735 -276.899485 
L 235.072383 -277.214922 
L 233.514031 -277.484402 
L 231.955679 -277.691621 
L 230.397326 -277.847304 
L 228.838974 -277.976533 
L 227.280622 -278.100091 
L 225.72227 -278.225392 
L 224.163918 -278.351205 
L 222.605566 -278.477264 
L 221.047214 -278.608461 
L 219.488862 -278.751313 
L 217.930509 -278.907131 
L 216.372157 -279.067622 
L 214.813805 -279.216605 
L 213.255453 -279.337404 
L 211.697101 -279.420805 
L 210.138749 -279.46788 
L 208.580397 -279.486965 
L 207.022045 -279.489074 
L 205.463692 -279.485426 
L 203.90534 -279.486457 
L 202.346988 -279.499988 
L 200.788636 -279.528831 
L 199.230284 -279.570408 
L 197.671932 -279.619227 
L 196.11358 -279.669867 
L 194.555228 -279.718071 
L 192.996875 -279.760416 
L 191.438523 -279.794493 
L 189.880171 -279.819952 
L 188.321819 -279.838987 
L 186.763467 -279.855253 
L 185.205115 -279.871726 
L 183.646763 -279.888965 
L 182.088411 -279.904982 
L 180.530058 -279.916839 
L 178.971706 -279.922839 
L 177.413354 -279.923788 
L 175.855002 -279.922568 
L 174.29665 -279.922412 
z
" id="m8edd930a83" style="stroke:#333333;"/>
    </defs>
    <g clip-path="url(#p5ed5f2988f)">
     <use style="fill:#484566;stroke:#333333;" x="0" xlink:href="#m8edd930a83" y="314.77"/>
    </g>
   </g>
   <g id="PolyCollection_2">
    <defs>
     <path d="M 155.955208 -214.845316 
L 155.955208 -219.767184 
L 157.640406 -220.079678 
L 159.325605 -220.413224 
L 161.010804 -220.76805 
L 162.696002 -221.14456 
L 164.381201 -221.543348 
L 166.0664 -221.965172 
L 167.751599 -222.410905 
L 169.436797 -222.881452 
L 171.121996 -223.377636 
L 172.807195 -223.900073 
L 174.492393 -224.449036 
L 176.177592 -225.024338 
L 177.862791 -225.625238 
L 179.54799 -226.250396 
L 181.233188 -226.897881 
L 182.918387 -227.565242 
L 184.603586 -228.249632 
L 186.288784 -228.947975 
L 187.973983 -229.657156 
L 189.659182 -230.374202 
L 191.34438 -231.096432 
L 193.029579 -231.821546 
L 194.714778 -232.547637 
L 196.399977 -233.273122 
L 198.085175 -233.996586 
L 199.770374 -234.716572 
L 201.455573 -235.431324 
L 203.140771 -236.138538 
L 204.82597 -236.835137 
L 206.511169 -237.517112 
L 208.196367 -238.179461 
L 209.881566 -238.816231 
L 211.566765 -239.420678 
L 213.251964 -239.98554 
L 214.937162 -240.503398 
L 216.622361 -240.967114 
L 218.30756 -241.370303 
L 219.992758 -241.707805 
L 221.677957 -241.976122 
L 223.363156 -242.173791 
L 225.048354 -242.301638 
L 226.733553 -242.36291 
L 228.418752 -242.36325 
L 230.103951 -242.310508 
L 231.789149 -242.214393 
L 233.474348 -242.085991 
L 235.159547 -241.937151 
L 236.844745 -241.779819 
L 238.529944 -241.625337 
L 240.215143 -241.483771 
L 241.900341 -241.363327 
L 243.58554 -241.26988 
L 245.270739 -241.206667 
L 246.955938 -241.174129 
L 248.641136 -241.169941 
L 250.326335 -241.189168 
L 252.011534 -241.224562 
L 253.696732 -241.266941 
L 255.381931 -241.305635 
L 257.06713 -241.328971 
L 258.752328 -241.324766 
L 260.437527 -241.280837 
L 262.122726 -241.185493 
L 263.807925 -241.028027 
L 265.493123 -240.799179 
L 267.178322 -240.491559 
L 268.863521 -240.100024 
L 270.548719 -239.621963 
L 272.233918 -239.057481 
L 273.919117 -238.409453 
L 275.604315 -237.683442 
L 277.289514 -236.887464 
L 278.974713 -236.031626 
L 280.659912 -235.127655 
L 282.34511 -234.188352 
L 284.030309 -233.227013 
L 285.715508 -232.256856 
L 287.400706 -231.290507 
L 289.085905 -230.339558 
L 290.771104 -229.414232 
L 292.456302 -228.523152 
L 294.141501 -227.673226 
L 295.8267 -226.869615 
L 297.511899 -226.115788 
L 299.197097 -225.41363 
L 300.882296 -224.763581 
L 302.567495 -224.164809 
L 304.252693 -223.615381 
L 305.937892 -223.112452 
L 307.623091 -222.652452 
L 309.308289 -222.231282 
L 310.993488 -221.844517 
L 312.678687 -221.487617 
L 314.363886 -221.15614 
L 316.049084 -220.845939 
L 317.734283 -220.553351 
L 319.419482 -220.275345 
L 321.10468 -220.009625 
L 322.789879 -219.75468 
L 322.789879 -214.85782 
L 322.789879 -214.85782 
L 321.10468 -214.602875 
L 319.419482 -214.337155 
L 317.734283 -214.059149 
L 316.049084 -213.766561 
L 314.363886 -213.45636 
L 312.678687 -213.124883 
L 310.993488 -212.767983 
L 309.308289 -212.381218 
L 307.623091 -211.960048 
L 305.937892 -211.500048 
L 304.252693 -210.997119 
L 302.567495 -210.447691 
L 300.882296 -209.848919 
L 299.197097 -209.19887 
L 297.511899 -208.496712 
L 295.8267 -207.742885 
L 294.141501 -206.939274 
L 292.456302 -206.089348 
L 290.771104 -205.198268 
L 289.085905 -204.272942 
L 287.400706 -203.321993 
L 285.715508 -202.355644 
L 284.030309 -201.385487 
L 282.34511 -200.424148 
L 280.659912 -199.484845 
L 278.974713 -198.580874 
L 277.289514 -197.725036 
L 275.604315 -196.929058 
L 273.919117 -196.203047 
L 272.233918 -195.555019 
L 270.548719 -194.990537 
L 268.863521 -194.512476 
L 267.178322 -194.120941 
L 265.493123 -193.813321 
L 263.807925 -193.584473 
L 262.122726 -193.427007 
L 260.437527 -193.331663 
L 258.752328 -193.287734 
L 257.06713 -193.283529 
L 255.381931 -193.306865 
L 253.696732 -193.345559 
L 252.011534 -193.387938 
L 250.326335 -193.423332 
L 248.641136 -193.442559 
L 246.955938 -193.438371 
L 245.270739 -193.405833 
L 243.58554 -193.34262 
L 241.900341 -193.249173 
L 240.215143 -193.128729 
L 238.529944 -192.987163 
L 236.844745 -192.832681 
L 235.159547 -192.675349 
L 233.474348 -192.526509 
L 231.789149 -192.398107 
L 230.103951 -192.301992 
L 228.418752 -192.24925 
L 226.733553 -192.24959 
L 225.048354 -192.310862 
L 223.363156 -192.438709 
L 221.677957 -192.636378 
L 219.992758 -192.904695 
L 218.30756 -193.242197 
L 216.622361 -193.645386 
L 214.937162 -194.109102 
L 213.251964 -194.62696 
L 211.566765 -195.191822 
L 209.881566 -195.796269 
L 208.196367 -196.433039 
L 206.511169 -197.095388 
L 204.82597 -197.777363 
L 203.140771 -198.473962 
L 201.455573 -199.181176 
L 199.770374 -199.895928 
L 198.085175 -200.615914 
L 196.399977 -201.339378 
L 194.714778 -202.064863 
L 193.029579 -202.790954 
L 191.34438 -203.516068 
L 189.659182 -204.238298 
L 187.973983 -204.955344 
L 186.288784 -205.664525 
L 184.603586 -206.362868 
L 182.918387 -207.047258 
L 181.233188 -207.714619 
L 179.54799 -208.362104 
L 177.862791 -208.987262 
L 176.177592 -209.588162 
L 174.492393 -210.163464 
L 172.807195 -210.712427 
L 171.121996 -211.234864 
L 169.436797 -211.731048 
L 167.751599 -212.201595 
L 166.0664 -212.647328 
L 164.381201 -213.069152 
L 162.696002 -213.46794 
L 161.010804 -213.84445 
L 159.325605 -214.199276 
L 157.640406 -214.532822 
L 155.955208 -214.845316 
z
" id="me1564a9ec3" style="stroke:#333333;"/>
    </defs>
    <g clip-path="url(#p5ed5f2988f)">
     <use style="fill:#484566;stroke:#333333;" x="0" xlink:href="#me1564a9ec3" y="314.77"/>
    </g>
   </g>
   <g id="PolyCollection_3">
    <defs>
     <path d="M 173.020285 -139.348991 
L 173.020285 -169.978509 
L 174.215465 -170.502484 
L 175.410645 -171.02224 
L 176.605826 -171.536621 
L 177.801006 -172.044485 
L 178.996186 -172.544706 
L 180.191366 -173.036172 
L 181.386546 -173.517795 
L 182.581726 -173.988503 
L 183.776907 -174.447247 
L 184.972087 -174.893001 
L 186.167267 -175.324758 
L 187.362447 -175.741536 
L 188.557627 -176.142374 
L 189.752807 -176.526335 
L 190.947988 -176.892503 
L 192.143168 -177.23999 
L 193.338348 -177.567928 
L 194.533528 -177.875481 
L 195.728708 -178.161837 
L 196.923889 -178.426218 
L 198.119069 -178.667881 
L 199.314249 -178.886119 
L 200.509429 -179.08027 
L 201.704609 -179.249719 
L 202.899789 -179.393904 
L 204.09497 -179.512323 
L 205.29015 -179.60454 
L 206.48533 -179.670191 
L 207.68051 -179.708994 
L 208.87569 -179.72075 
L 210.07087 -179.705356 
L 211.266051 -179.662807 
L 212.461231 -179.593205 
L 213.656411 -179.496764 
L 214.851591 -179.373813 
L 216.046771 -179.224801 
L 217.241951 -179.050299 
L 218.437132 -178.851005 
L 219.632312 -178.627736 
L 220.827492 -178.381438 
L 222.022672 -178.113172 
L 223.217852 -177.824118 
L 224.413032 -177.515566 
L 225.608213 -177.188908 
L 226.803393 -176.845632 
L 227.998573 -176.487308 
L 229.193753 -176.115582 
L 230.388933 -175.732158 
L 231.584114 -175.338787 
L 232.779294 -174.937253 
L 233.974474 -174.529357 
L 235.169654 -174.116901 
L 236.364834 -173.701676 
L 237.560014 -173.285441 
L 238.755195 -172.86991 
L 239.950375 -172.456739 
L 241.145555 -172.047506 
L 242.340735 -171.643704 
L 243.535915 -171.246725 
L 244.731095 -170.857848 
L 245.926276 -170.478231 
L 247.121456 -170.108903 
L 248.316636 -169.750754 
L 249.511816 -169.404533 
L 250.706996 -169.070842 
L 251.902176 -168.750138 
L 253.097357 -168.442729 
L 254.292537 -168.148776 
L 255.487717 -167.868301 
L 256.682897 -167.601184 
L 257.878077 -167.347177 
L 259.073258 -167.105907 
L 260.268438 -166.876885 
L 261.463618 -166.65952 
L 262.658798 -166.453122 
L 263.853978 -166.256922 
L 265.049158 -166.070079 
L 266.244339 -165.891691 
L 267.439519 -165.720813 
L 268.634699 -165.556466 
L 269.829879 -165.397649 
L 271.025059 -165.243355 
L 272.220239 -165.092579 
L 273.41542 -164.944331 
L 274.6106 -164.797647 
L 275.80578 -164.651601 
L 277.00096 -164.50531 
L 278.19614 -164.357947 
L 279.39132 -164.208746 
L 280.586501 -164.057007 
L 281.781681 -163.902108 
L 282.976861 -163.743502 
L 284.172041 -163.580725 
L 285.367221 -163.413395 
L 286.562402 -163.24122 
L 287.757582 -163.063991 
L 288.952762 -162.881584 
L 290.147942 -162.693961 
L 291.343122 -162.501166 
L 291.343122 -146.826334 
L 291.343122 -146.826334 
L 290.147942 -146.633539 
L 288.952762 -146.445916 
L 287.757582 -146.263509 
L 286.562402 -146.08628 
L 285.367221 -145.914105 
L 284.172041 -145.746775 
L 282.976861 -145.583998 
L 281.781681 -145.425392 
L 280.586501 -145.270493 
L 279.39132 -145.118754 
L 278.19614 -144.969553 
L 277.00096 -144.82219 
L 275.80578 -144.675899 
L 274.6106 -144.529853 
L 273.41542 -144.383169 
L 272.220239 -144.234921 
L 271.025059 -144.084145 
L 269.829879 -143.929851 
L 268.634699 -143.771034 
L 267.439519 -143.606687 
L 266.244339 -143.435809 
L 265.049158 -143.257421 
L 263.853978 -143.070578 
L 262.658798 -142.874378 
L 261.463618 -142.66798 
L 260.268438 -142.450615 
L 259.073258 -142.221593 
L 257.878077 -141.980323 
L 256.682897 -141.726316 
L 255.487717 -141.459199 
L 254.292537 -141.178724 
L 253.097357 -140.884771 
L 251.902176 -140.577362 
L 250.706996 -140.256658 
L 249.511816 -139.922967 
L 248.316636 -139.576746 
L 247.121456 -139.218597 
L 245.926276 -138.849269 
L 244.731095 -138.469652 
L 243.535915 -138.080775 
L 242.340735 -137.683796 
L 241.145555 -137.279994 
L 239.950375 -136.870761 
L 238.755195 -136.45759 
L 237.560014 -136.042059 
L 236.364834 -135.625824 
L 235.169654 -135.210599 
L 233.974474 -134.798143 
L 232.779294 -134.390247 
L 231.584114 -133.988713 
L 230.388933 -133.595342 
L 229.193753 -133.211918 
L 227.998573 -132.840192 
L 226.803393 -132.481868 
L 225.608213 -132.138592 
L 224.413032 -131.811934 
L 223.217852 -131.503382 
L 222.022672 -131.214328 
L 220.827492 -130.946062 
L 219.632312 -130.699764 
L 218.437132 -130.476495 
L 217.241951 -130.277201 
L 216.046771 -130.102699 
L 214.851591 -129.953687 
L 213.656411 -129.830736 
L 212.461231 -129.734295 
L 211.266051 -129.664693 
L 210.07087 -129.622144 
L 208.87569 -129.60675 
L 207.68051 -129.618506 
L 206.48533 -129.657309 
L 205.29015 -129.72296 
L 204.09497 -129.815177 
L 202.899789 -129.933596 
L 201.704609 -130.077781 
L 200.509429 -130.24723 
L 199.314249 -130.441381 
L 198.119069 -130.659619 
L 196.923889 -130.901282 
L 195.728708 -131.165663 
L 194.533528 -131.452019 
L 193.338348 -131.759572 
L 192.143168 -132.08751 
L 190.947988 -132.434997 
L 189.752807 -132.801165 
L 188.557627 -133.185126 
L 187.362447 -133.585964 
L 186.167267 -134.002742 
L 184.972087 -134.434499 
L 183.776907 -134.880253 
L 182.581726 -135.338997 
L 181.386546 -135.809705 
L 180.191366 -136.291328 
L 178.996186 -136.782794 
L 177.801006 -137.283015 
L 176.605826 -137.790879 
L 175.410645 -138.30526 
L 174.215465 -138.825016 
L 173.020285 -139.348991 
z
" id="ma19646663d" style="stroke:#333333;"/>
    </defs>
    <g clip-path="url(#p5ed5f2988f)">
     <use style="fill:#484566;stroke:#333333;" x="0" xlink:href="#ma19646663d" y="314.77"/>
    </g>
   </g>
   <g id="patch_46">
    <path clip-path="url(#p5ed5f2988f)" d="M 113.404667 34.82125 
L 113.404667 34.82125 
L 113.404667 34.82125 
L 113.404667 34.82125 
z
" style="fill:#484566;stroke:#333333;stroke-linejoin:miter;stroke-width:0.5;"/>
   </g>
   <g id="matplotlib.axis_3">
    <g id="xtick_5">
     <g id="line2d_10">
      <g>
       <use style="stroke:#000000;stroke-width:1.6;" x="113.404667" xlink:href="#mb9ebff1b9c" y="254.07"/>
      </g>
     </g>
     <g id="text_12">
      <!-- 0.0 -->
      <g transform="translate(97.501542 283.966875)scale(0.2 -0.2)">
       <use xlink:href="#DejaVuSans-48"/>
       <use x="63.623047" xlink:href="#DejaVuSans-46"/>
       <use x="95.410156" xlink:href="#DejaVuSans-48"/>
      </g>
     </g>
    </g>
    <g id="xtick_6">
     <g id="line2d_11">
      <g>
       <use style="stroke:#000000;stroke-width:1.6;" x="180.223333" xlink:href="#mb9ebff1b9c" y="254.07"/>
      </g>
     </g>
     <g id="text_13">
      <!-- 0.2 -->
      <g transform="translate(164.320208 283.966875)scale(0.2 -0.2)">
       <use xlink:href="#DejaVuSans-48"/>
       <use x="63.623047" xlink:href="#DejaVuSans-46"/>
       <use x="95.410156" xlink:href="#DejaVuSans-50"/>
      </g>
     </g>
    </g>
    <g id="xtick_7">
     <g id="line2d_12">
      <g>
       <use style="stroke:#000000;stroke-width:1.6;" x="247.042" xlink:href="#mb9ebff1b9c" y="254.07"/>
      </g>
     </g>
     <g id="text_14">
      <!-- 0.4 -->
      <g transform="translate(231.138875 283.966875)scale(0.2 -0.2)">
       <use xlink:href="#DejaVuSans-48"/>
       <use x="63.623047" xlink:href="#DejaVuSans-46"/>
       <use x="95.410156" xlink:href="#DejaVuSans-52"/>
      </g>
     </g>
    </g>
    <g id="xtick_8">
     <g id="line2d_13">
      <g>
       <use style="stroke:#000000;stroke-width:1.6;" x="313.860667" xlink:href="#mb9ebff1b9c" y="254.07"/>
      </g>
     </g>
     <g id="text_15">
      <!-- 0.6 -->
      <g transform="translate(297.957542 283.966875)scale(0.2 -0.2)">
       <use xlink:href="#DejaVuSans-48"/>
       <use x="63.623047" xlink:href="#DejaVuSans-46"/>
       <use x="95.410156" xlink:href="#DejaVuSans-54"/>
      </g>
     </g>
    </g>
    <g id="text_16">
     <!-- Max JS Divergence within $\epsilon$ -->
     <defs>
      <path d="M 9.8125 72.90625 
L 24.515625 72.90625 
L 43.109375 23.296875 
L 61.8125 72.90625 
L 76.515625 72.90625 
L 76.515625 0 
L 66.890625 0 
L 66.890625 64.015625 
L 48.09375 14.015625 
L 38.1875 14.015625 
L 19.390625 64.015625 
L 19.390625 0 
L 9.8125 0 
z
" id="DejaVuSans-77"/>
      <path d="M 34.28125 27.484375 
Q 23.390625 27.484375 19.1875 25 
Q 14.984375 22.515625 14.984375 16.5 
Q 14.984375 11.71875 18.140625 8.90625 
Q 21.296875 6.109375 26.703125 6.109375 
Q 34.1875 6.109375 38.703125 11.40625 
Q 43.21875 16.703125 43.21875 25.484375 
L 43.21875 27.484375 
z
M 52.203125 31.203125 
L 52.203125 0 
L 43.21875 0 
L 43.21875 8.296875 
Q 40.140625 3.328125 35.546875 0.953125 
Q 30.953125 -1.421875 24.3125 -1.421875 
Q 15.921875 -1.421875 10.953125 3.296875 
Q 6 8.015625 6 15.921875 
Q 6 25.140625 12.171875 29.828125 
Q 18.359375 34.515625 30.609375 34.515625 
L 43.21875 34.515625 
L 43.21875 35.40625 
Q 43.21875 41.609375 39.140625 45 
Q 35.0625 48.390625 27.6875 48.390625 
Q 23 48.390625 18.546875 47.265625 
Q 14.109375 46.140625 10.015625 43.890625 
L 10.015625 52.203125 
Q 14.9375 54.109375 19.578125 55.046875 
Q 24.21875 56 28.609375 56 
Q 40.484375 56 46.34375 49.84375 
Q 52.203125 43.703125 52.203125 31.203125 
z
" id="DejaVuSans-97"/>
      <path d="M 54.890625 54.6875 
L 35.109375 28.078125 
L 55.90625 0 
L 45.3125 0 
L 29.390625 21.484375 
L 13.484375 0 
L 2.875 0 
L 24.125 28.609375 
L 4.6875 54.6875 
L 15.28125 54.6875 
L 29.78125 35.203125 
L 44.28125 54.6875 
z
" id="DejaVuSans-120"/>
      <path d="M 9.8125 72.90625 
L 19.671875 72.90625 
L 19.671875 5.078125 
Q 19.671875 -8.109375 14.671875 -14.0625 
Q 9.671875 -20.015625 -1.421875 -20.015625 
L -5.171875 -20.015625 
L -5.171875 -11.71875 
L -2.09375 -11.71875 
Q 4.4375 -11.71875 7.125 -8.046875 
Q 9.8125 -4.390625 9.8125 5.078125 
z
" id="DejaVuSans-74"/>
      <path d="M 53.515625 70.515625 
L 53.515625 60.890625 
Q 47.90625 63.578125 42.921875 64.890625 
Q 37.9375 66.21875 33.296875 66.21875 
Q 25.25 66.21875 20.875 63.09375 
Q 16.5 59.96875 16.5 54.203125 
Q 16.5 49.359375 19.40625 46.890625 
Q 22.3125 44.4375 30.421875 42.921875 
L 36.375 41.703125 
Q 47.40625 39.59375 52.65625 34.296875 
Q 57.90625 29 57.90625 20.125 
Q 57.90625 9.515625 50.796875 4.046875 
Q 43.703125 -1.421875 29.984375 -1.421875 
Q 24.8125 -1.421875 18.96875 -0.25 
Q 13.140625 0.921875 6.890625 3.21875 
L 6.890625 13.375 
Q 12.890625 10.015625 18.65625 8.296875 
Q 24.421875 6.59375 29.984375 6.59375 
Q 38.421875 6.59375 43.015625 9.90625 
Q 47.609375 13.234375 47.609375 19.390625 
Q 47.609375 24.75 44.3125 27.78125 
Q 41.015625 30.8125 33.5 32.328125 
L 27.484375 33.5 
Q 16.453125 35.6875 11.515625 40.375 
Q 6.59375 45.0625 6.59375 53.421875 
Q 6.59375 63.09375 13.40625 68.65625 
Q 20.21875 74.21875 32.171875 74.21875 
Q 37.3125 74.21875 42.625 73.28125 
Q 47.953125 72.359375 53.515625 70.515625 
z
" id="DejaVuSans-83"/>
      <path d="M 19.671875 64.796875 
L 19.671875 8.109375 
L 31.59375 8.109375 
Q 46.6875 8.109375 53.6875 14.9375 
Q 60.6875 21.78125 60.6875 36.53125 
Q 60.6875 51.171875 53.6875 57.984375 
Q 46.6875 64.796875 31.59375 64.796875 
z
M 9.8125 72.90625 
L 30.078125 72.90625 
Q 51.265625 72.90625 61.171875 64.09375 
Q 71.09375 55.28125 71.09375 36.53125 
Q 71.09375 17.671875 61.125 8.828125 
Q 51.171875 0 30.078125 0 
L 9.8125 0 
z
" id="DejaVuSans-68"/>
      <path d="M 9.421875 54.6875 
L 18.40625 54.6875 
L 18.40625 0 
L 9.421875 0 
z
M 9.421875 75.984375 
L 18.40625 75.984375 
L 18.40625 64.59375 
L 9.421875 64.59375 
z
" id="DejaVuSans-105"/>
      <path d="M 2.984375 54.6875 
L 12.5 54.6875 
L 29.59375 8.796875 
L 46.6875 54.6875 
L 56.203125 54.6875 
L 35.6875 0 
L 23.484375 0 
z
" id="DejaVuSans-118"/>
      <path d="M 56.203125 29.59375 
L 56.203125 25.203125 
L 14.890625 25.203125 
Q 15.484375 15.921875 20.484375 11.0625 
Q 25.484375 6.203125 34.421875 6.203125 
Q 39.59375 6.203125 44.453125 7.46875 
Q 49.3125 8.734375 54.109375 11.28125 
L 54.109375 2.78125 
Q 49.265625 0.734375 44.1875 -0.34375 
Q 39.109375 -1.421875 33.890625 -1.421875 
Q 20.796875 -1.421875 13.15625 6.1875 
Q 5.515625 13.8125 5.515625 26.8125 
Q 5.515625 40.234375 12.765625 48.109375 
Q 20.015625 56 32.328125 56 
Q 43.359375 56 49.78125 48.890625 
Q 56.203125 41.796875 56.203125 29.59375 
z
M 47.21875 32.234375 
Q 47.125 39.59375 43.09375 43.984375 
Q 39.0625 48.390625 32.421875 48.390625 
Q 24.90625 48.390625 20.390625 44.140625 
Q 15.875 39.890625 15.1875 32.171875 
z
" id="DejaVuSans-101"/>
      <path d="M 41.109375 46.296875 
Q 39.59375 47.171875 37.8125 47.578125 
Q 36.03125 48 33.890625 48 
Q 26.265625 48 22.1875 43.046875 
Q 18.109375 38.09375 18.109375 28.8125 
L 18.109375 0 
L 9.078125 0 
L 9.078125 54.6875 
L 18.109375 54.6875 
L 18.109375 46.1875 
Q 20.953125 51.171875 25.484375 53.578125 
Q 30.03125 56 36.53125 56 
Q 37.453125 56 38.578125 55.875 
Q 39.703125 55.765625 41.0625 55.515625 
z
" id="DejaVuSans-114"/>
      <path d="M 45.40625 27.984375 
Q 45.40625 37.75 41.375 43.109375 
Q 37.359375 48.484375 30.078125 48.484375 
Q 22.859375 48.484375 18.828125 43.109375 
Q 14.796875 37.75 14.796875 27.984375 
Q 14.796875 18.265625 18.828125 12.890625 
Q 22.859375 7.515625 30.078125 7.515625 
Q 37.359375 7.515625 41.375 12.890625 
Q 45.40625 18.265625 45.40625 27.984375 
z
M 54.390625 6.78125 
Q 54.390625 -7.171875 48.1875 -13.984375 
Q 42 -20.796875 29.203125 -20.796875 
Q 24.46875 -20.796875 20.265625 -20.09375 
Q 16.0625 -19.390625 12.109375 -17.921875 
L 12.109375 -9.1875 
Q 16.0625 -11.328125 19.921875 -12.34375 
Q 23.78125 -13.375 27.78125 -13.375 
Q 36.625 -13.375 41.015625 -8.765625 
Q 45.40625 -4.15625 45.40625 5.171875 
L 45.40625 9.625 
Q 42.625 4.78125 38.28125 2.390625 
Q 33.9375 0 27.875 0 
Q 17.828125 0 11.671875 7.65625 
Q 5.515625 15.328125 5.515625 27.984375 
Q 5.515625 40.671875 11.671875 48.328125 
Q 17.828125 56 27.875 56 
Q 33.9375 56 38.28125 53.609375 
Q 42.625 51.21875 45.40625 46.390625 
L 45.40625 54.6875 
L 54.390625 54.6875 
z
" id="DejaVuSans-103"/>
      <path d="M 54.890625 33.015625 
L 54.890625 0 
L 45.90625 0 
L 45.90625 32.71875 
Q 45.90625 40.484375 42.875 44.328125 
Q 39.84375 48.1875 33.796875 48.1875 
Q 26.515625 48.1875 22.3125 43.546875 
Q 18.109375 38.921875 18.109375 30.90625 
L 18.109375 0 
L 9.078125 0 
L 9.078125 54.6875 
L 18.109375 54.6875 
L 18.109375 46.1875 
Q 21.34375 51.125 25.703125 53.5625 
Q 30.078125 56 35.796875 56 
Q 45.21875 56 50.046875 50.171875 
Q 54.890625 44.34375 54.890625 33.015625 
z
" id="DejaVuSans-110"/>
      <path d="M 48.78125 52.59375 
L 48.78125 44.1875 
Q 44.96875 46.296875 41.140625 47.34375 
Q 37.3125 48.390625 33.40625 48.390625 
Q 24.65625 48.390625 19.8125 42.84375 
Q 14.984375 37.3125 14.984375 27.296875 
Q 14.984375 17.28125 19.8125 11.734375 
Q 24.65625 6.203125 33.40625 6.203125 
Q 37.3125 6.203125 41.140625 7.25 
Q 44.96875 8.296875 48.78125 10.40625 
L 48.78125 2.09375 
Q 45.015625 0.34375 40.984375 -0.53125 
Q 36.96875 -1.421875 32.421875 -1.421875 
Q 20.0625 -1.421875 12.78125 6.34375 
Q 5.515625 14.109375 5.515625 27.296875 
Q 5.515625 40.671875 12.859375 48.328125 
Q 20.21875 56 33.015625 56 
Q 37.15625 56 41.109375 55.140625 
Q 45.0625 54.296875 48.78125 52.59375 
z
" id="DejaVuSans-99"/>
      <path d="M 4.203125 54.6875 
L 13.1875 54.6875 
L 24.421875 12.015625 
L 35.59375 54.6875 
L 46.1875 54.6875 
L 57.421875 12.015625 
L 68.609375 54.6875 
L 77.59375 54.6875 
L 63.28125 0 
L 52.6875 0 
L 40.921875 44.828125 
L 29.109375 0 
L 18.5 0 
z
" id="DejaVuSans-119"/>
      <path d="M 18.3125 70.21875 
L 18.3125 54.6875 
L 36.8125 54.6875 
L 36.8125 47.703125 
L 18.3125 47.703125 
L 18.3125 18.015625 
Q 18.3125 11.328125 20.140625 9.421875 
Q 21.96875 7.515625 27.59375 7.515625 
L 36.8125 7.515625 
L 36.8125 0 
L 27.59375 0 
Q 17.1875 0 13.234375 3.875 
Q 9.28125 7.765625 9.28125 18.015625 
L 9.28125 47.703125 
L 2.6875 47.703125 
L 2.6875 54.6875 
L 9.28125 54.6875 
L 9.28125 70.21875 
z
" id="DejaVuSans-116"/>
      <path d="M 54.890625 33.015625 
L 54.890625 0 
L 45.90625 0 
L 45.90625 32.71875 
Q 45.90625 40.484375 42.875 44.328125 
Q 39.84375 48.1875 33.796875 48.1875 
Q 26.515625 48.1875 22.3125 43.546875 
Q 18.109375 38.921875 18.109375 30.90625 
L 18.109375 0 
L 9.078125 0 
L 9.078125 75.984375 
L 18.109375 75.984375 
L 18.109375 46.1875 
Q 21.34375 51.125 25.703125 53.5625 
Q 30.078125 56 35.796875 56 
Q 45.21875 56 50.046875 50.171875 
Q 54.890625 44.34375 54.890625 33.015625 
z
" id="DejaVuSans-104"/>
      <path d="M 19.734375 29.5 
Q 14.453125 30.671875 12.15625 33.84375 
Q 10.453125 36.078125 10.453125 39.109375 
Q 10.453125 47.40625 18.359375 52.25 
Q 24.609375 56.0625 34.1875 56.0625 
Q 37.890625 56.0625 41.9375 55.46875 
Q 46 54.890625 50.53125 53.71875 
L 48.96875 45.5625 
Q 44.484375 46.96875 40.71875 47.609375 
Q 36.859375 48.25 33.40625 48.25 
Q 27.59375 48.25 23.78125 46 
Q 19.1875 43.3125 19.1875 39.40625 
Q 19.1875 36.8125 21.578125 35.015625 
Q 24.421875 32.859375 30.078125 32.859375 
L 37.640625 32.859375 
L 36.234375 25.4375 
L 29 25.4375 
Q 22.265625 25.4375 18.3125 22.953125 
Q 12.9375 19.578125 12.9375 14.3125 
Q 12.9375 10.984375 15.828125 8.796875 
Q 19.4375 6.0625 26.8125 6.0625 
Q 31.34375 6.0625 35.6875 6.9375 
Q 40.046875 7.859375 43.84375 9.671875 
L 42.1875 1.3125 
Q 37.546875 -0.046875 33.296875 -0.734375 
Q 29.046875 -1.421875 25.140625 -1.421875 
Q 13.53125 -1.421875 8.0625 3.03125 
Q 3.90625 6.453125 3.90625 12.203125 
Q 3.90625 19.96875 9.375 24.75 
Q 13.421875 28.328125 19.734375 29.5 
z
" id="DejaVuSans-Oblique-949"/>
     </defs>
     <g transform="translate(86.385 307.32625)scale(0.2 -0.2)">
      <use transform="translate(0 0.015625)" xlink:href="#DejaVuSans-77"/>
      <use transform="translate(86.279297 0.015625)" xlink:href="#DejaVuSans-97"/>
      <use transform="translate(147.558594 0.015625)" xlink:href="#DejaVuSans-120"/>
      <use transform="translate(206.738281 0.015625)" xlink:href="#DejaVuSans-32"/>
      <use transform="translate(238.525391 0.015625)" xlink:href="#DejaVuSans-74"/>
      <use transform="translate(268.017578 0.015625)" xlink:href="#DejaVuSans-83"/>
      <use transform="translate(331.494141 0.015625)" xlink:href="#DejaVuSans-32"/>
      <use transform="translate(363.28125 0.015625)" xlink:href="#DejaVuSans-68"/>
      <use transform="translate(440.283203 0.015625)" xlink:href="#DejaVuSans-105"/>
      <use transform="translate(468.066406 0.015625)" xlink:href="#DejaVuSans-118"/>
      <use transform="translate(527.246094 0.015625)" xlink:href="#DejaVuSans-101"/>
      <use transform="translate(588.769531 0.015625)" xlink:href="#DejaVuSans-114"/>
      <use transform="translate(629.882812 0.015625)" xlink:href="#DejaVuSans-103"/>
      <use transform="translate(693.359375 0.015625)" xlink:href="#DejaVuSans-101"/>
      <use transform="translate(754.882812 0.015625)" xlink:href="#DejaVuSans-110"/>
      <use transform="translate(818.261719 0.015625)" xlink:href="#DejaVuSans-99"/>
      <use transform="translate(873.242188 0.015625)" xlink:href="#DejaVuSans-101"/>
      <use transform="translate(934.765625 0.015625)" xlink:href="#DejaVuSans-32"/>
      <use transform="translate(966.552734 0.015625)" xlink:href="#DejaVuSans-119"/>
      <use transform="translate(1048.339844 0.015625)" xlink:href="#DejaVuSans-105"/>
      <use transform="translate(1076.123047 0.015625)" xlink:href="#DejaVuSans-116"/>
      <use transform="translate(1115.332031 0.015625)" xlink:href="#DejaVuSans-104"/>
      <use transform="translate(1178.710938 0.015625)" xlink:href="#DejaVuSans-105"/>
      <use transform="translate(1206.494141 0.015625)" xlink:href="#DejaVuSans-110"/>
      <use transform="translate(1269.873047 0.015625)" xlink:href="#DejaVuSans-32"/>
      <use transform="translate(1301.660156 0.015625)" xlink:href="#DejaVuSans-Oblique-949"/>
     </g>
    </g>
   </g>
   <g id="matplotlib.axis_4">
    <g id="ytick_6">
     <g id="line2d_14">
      <g>
       <use style="stroke:#000000;stroke-width:1.6;" x="96.7" xlink:href="#mb2f2a5ca49" y="34.82125"/>
      </g>
     </g>
     <g id="text_17">
      <!-- [0.00, -->
      <defs>
       <path d="M 8.59375 75.984375 
L 29.296875 75.984375 
L 29.296875 69 
L 17.578125 69 
L 17.578125 -6.203125 
L 29.296875 -6.203125 
L 29.296875 -13.1875 
L 8.59375 -13.1875 
z
" id="DejaVuSans-91"/>
       <path d="M 11.71875 12.40625 
L 22.015625 12.40625 
L 22.015625 4 
L 14.015625 -11.625 
L 7.71875 -11.625 
L 11.71875 4 
z
" id="DejaVuSans-44"/>
      </defs>
      <g transform="translate(23.309375 31.221875)scale(0.2 -0.2)">
       <use xlink:href="#DejaVuSans-91"/>
       <use x="39.013672" xlink:href="#DejaVuSans-48"/>
       <use x="102.636719" xlink:href="#DejaVuSans-46"/>
       <use x="134.423828" xlink:href="#DejaVuSans-48"/>
       <use x="198.046875" xlink:href="#DejaVuSans-48"/>
       <use x="261.669922" xlink:href="#DejaVuSans-44"/>
      </g>
      <!-- 0.25) -->
      <defs>
       <path d="M 8.015625 75.875 
L 15.828125 75.875 
Q 23.140625 64.359375 26.78125 53.3125 
Q 30.421875 42.28125 30.421875 31.390625 
Q 30.421875 20.453125 26.78125 9.375 
Q 23.140625 -1.703125 15.828125 -13.1875 
L 8.015625 -13.1875 
Q 14.5 -2 17.703125 9.0625 
Q 20.90625 20.125 20.90625 31.390625 
Q 20.90625 42.671875 17.703125 53.65625 
Q 14.5 64.65625 8.015625 75.875 
z
" id="DejaVuSans-41"/>
      </defs>
      <g transform="translate(29.665625 53.6175)scale(0.2 -0.2)">
       <use xlink:href="#DejaVuSans-48"/>
       <use x="63.623047" xlink:href="#DejaVuSans-46"/>
       <use x="95.410156" xlink:href="#DejaVuSans-50"/>
       <use x="159.033203" xlink:href="#DejaVuSans-53"/>
       <use x="222.65625" xlink:href="#DejaVuSans-41"/>
      </g>
     </g>
    </g>
    <g id="ytick_7">
     <g id="line2d_15">
      <g>
       <use style="stroke:#000000;stroke-width:1.6;" x="96.7" xlink:href="#mb2f2a5ca49" y="97.46375"/>
      </g>
     </g>
     <g id="text_18">
      <!-- [0.25, -->
      <g transform="translate(23.309375 93.864375)scale(0.2 -0.2)">
       <use xlink:href="#DejaVuSans-91"/>
       <use x="39.013672" xlink:href="#DejaVuSans-48"/>
       <use x="102.636719" xlink:href="#DejaVuSans-46"/>
       <use x="134.423828" xlink:href="#DejaVuSans-50"/>
       <use x="198.046875" xlink:href="#DejaVuSans-53"/>
       <use x="261.669922" xlink:href="#DejaVuSans-44"/>
      </g>
      <!-- 0.50) -->
      <g transform="translate(29.665625 116.26)scale(0.2 -0.2)">
       <use xlink:href="#DejaVuSans-48"/>
       <use x="63.623047" xlink:href="#DejaVuSans-46"/>
       <use x="95.410156" xlink:href="#DejaVuSans-53"/>
       <use x="159.033203" xlink:href="#DejaVuSans-48"/>
       <use x="222.65625" xlink:href="#DejaVuSans-41"/>
      </g>
     </g>
    </g>
    <g id="ytick_8">
     <g id="line2d_16">
      <g>
       <use style="stroke:#000000;stroke-width:1.6;" x="96.7" xlink:href="#mb2f2a5ca49" y="160.10625"/>
      </g>
     </g>
     <g id="text_19">
      <!-- [0.50, -->
      <g transform="translate(23.309375 156.506875)scale(0.2 -0.2)">
       <use xlink:href="#DejaVuSans-91"/>
       <use x="39.013672" xlink:href="#DejaVuSans-48"/>
       <use x="102.636719" xlink:href="#DejaVuSans-46"/>
       <use x="134.423828" xlink:href="#DejaVuSans-53"/>
       <use x="198.046875" xlink:href="#DejaVuSans-48"/>
       <use x="261.669922" xlink:href="#DejaVuSans-44"/>
      </g>
      <!-- 0.75) -->
      <g transform="translate(29.665625 178.9025)scale(0.2 -0.2)">
       <use xlink:href="#DejaVuSans-48"/>
       <use x="63.623047" xlink:href="#DejaVuSans-46"/>
       <use x="95.410156" xlink:href="#DejaVuSans-55"/>
       <use x="159.033203" xlink:href="#DejaVuSans-53"/>
       <use x="222.65625" xlink:href="#DejaVuSans-41"/>
      </g>
     </g>
    </g>
    <g id="ytick_9">
     <g id="line2d_17">
      <g>
       <use style="stroke:#000000;stroke-width:1.6;" x="96.7" xlink:href="#mb2f2a5ca49" y="222.74875"/>
      </g>
     </g>
     <g id="text_20">
      <!-- [0.75, -->
      <g transform="translate(23.309375 219.149375)scale(0.2 -0.2)">
       <use xlink:href="#DejaVuSans-91"/>
       <use x="39.013672" xlink:href="#DejaVuSans-48"/>
       <use x="102.636719" xlink:href="#DejaVuSans-46"/>
       <use x="134.423828" xlink:href="#DejaVuSans-55"/>
       <use x="198.046875" xlink:href="#DejaVuSans-53"/>
       <use x="261.669922" xlink:href="#DejaVuSans-44"/>
      </g>
      <!-- 1.00) -->
      <g transform="translate(29.665625 241.545)scale(0.2 -0.2)">
       <use xlink:href="#DejaVuSans-49"/>
       <use x="63.623047" xlink:href="#DejaVuSans-46"/>
       <use x="95.410156" xlink:href="#DejaVuSans-48"/>
       <use x="159.033203" xlink:href="#DejaVuSans-48"/>
       <use x="222.65625" xlink:href="#DejaVuSans-41"/>
      </g>
     </g>
    </g>
    <g id="text_21">
     <!-- Max Attention -->
     <defs>
      <path d="M 34.1875 63.1875 
L 20.796875 26.90625 
L 47.609375 26.90625 
z
M 28.609375 72.90625 
L 39.796875 72.90625 
L 67.578125 0 
L 57.328125 0 
L 50.6875 18.703125 
L 17.828125 18.703125 
L 11.1875 0 
L 0.78125 0 
z
" id="DejaVuSans-65"/>
      <path d="M 30.609375 48.390625 
Q 23.390625 48.390625 19.1875 42.75 
Q 14.984375 37.109375 14.984375 27.296875 
Q 14.984375 17.484375 19.15625 11.84375 
Q 23.34375 6.203125 30.609375 6.203125 
Q 37.796875 6.203125 41.984375 11.859375 
Q 46.1875 17.53125 46.1875 27.296875 
Q 46.1875 37.015625 41.984375 42.703125 
Q 37.796875 48.390625 30.609375 48.390625 
z
M 30.609375 56 
Q 42.328125 56 49.015625 48.375 
Q 55.71875 40.765625 55.71875 27.296875 
Q 55.71875 13.875 49.015625 6.21875 
Q 42.328125 -1.421875 30.609375 -1.421875 
Q 18.84375 -1.421875 12.171875 6.21875 
Q 5.515625 13.875 5.515625 27.296875 
Q 5.515625 40.765625 12.171875 48.375 
Q 18.84375 56 30.609375 56 
z
" id="DejaVuSans-111"/>
     </defs>
     <g transform="translate(15.15 198.963125)rotate(-90)scale(0.2 -0.2)">
      <use xlink:href="#DejaVuSans-77"/>
      <use x="86.279297" xlink:href="#DejaVuSans-97"/>
      <use x="147.558594" xlink:href="#DejaVuSans-120"/>
      <use x="206.738281" xlink:href="#DejaVuSans-32"/>
      <use x="238.525391" xlink:href="#DejaVuSans-65"/>
      <use x="306.917969" xlink:href="#DejaVuSans-116"/>
      <use x="346.126953" xlink:href="#DejaVuSans-116"/>
      <use x="385.335938" xlink:href="#DejaVuSans-101"/>
      <use x="446.859375" xlink:href="#DejaVuSans-110"/>
      <use x="510.238281" xlink:href="#DejaVuSans-116"/>
      <use x="549.447266" xlink:href="#DejaVuSans-105"/>
      <use x="577.230469" xlink:href="#DejaVuSans-111"/>
      <use x="638.412109" xlink:href="#DejaVuSans-110"/>
     </g>
    </g>
   </g>
   <g id="line2d_18">
    <path clip-path="url(#p5ed5f2988f)" d="M 269.548276 19.501555 
L 269.548276 50.140945 
" style="fill:none;stroke:#333333;stroke-dasharray:1.5,1.5;stroke-dashoffset:0;"/>
   </g>
   <g id="line2d_19">
    <path clip-path="url(#p5ed5f2988f)" d="M 285.039865 12.005412 
L 285.039865 57.637088 
" style="fill:none;stroke:#333333;stroke-dasharray:3,3;stroke-dashoffset:0;"/>
   </g>
   <g id="line2d_20">
    <path clip-path="url(#p5ed5f2988f)" d="M 297.183584 10.820408 
L 297.183584 58.822092 
" style="fill:none;stroke:#333333;stroke-dasharray:1.5,1.5;stroke-dashoffset:0;"/>
   </g>
   <g id="line2d_21">
    <path clip-path="url(#p5ed5f2988f)" d="M 214.210949 74.498574 
L 214.210949 120.428926 
" style="fill:none;stroke:#333333;stroke-dasharray:1.5,1.5;stroke-dashoffset:0;"/>
   </g>
   <g id="line2d_22">
    <path clip-path="url(#p5ed5f2988f)" d="M 238.099898 73.387854 
L 238.099898 121.539646 
" style="fill:none;stroke:#333333;stroke-dasharray:3,3;stroke-dashoffset:0;"/>
   </g>
   <g id="line2d_23">
    <path clip-path="url(#p5ed5f2988f)" d="M 266.317453 74.20575 
L 266.317453 120.72175 
" style="fill:none;stroke:#333333;stroke-dasharray:1.5,1.5;stroke-dashoffset:0;"/>
   </g>
   <g id="line2d_24">
    <path clip-path="url(#p5ed5f2988f)" d="M 196.89112 136.581406 
L 196.89112 183.631094 
" style="fill:none;stroke:#333333;stroke-dasharray:1.5,1.5;stroke-dashoffset:0;"/>
   </g>
   <g id="line2d_25">
    <path clip-path="url(#p5ed5f2988f)" d="M 218.644623 136.160868 
L 218.644623 184.051632 
" style="fill:none;stroke:#333333;stroke-dasharray:3,3;stroke-dashoffset:0;"/>
   </g>
   <g id="line2d_26">
    <path clip-path="url(#p5ed5f2988f)" d="M 232.13811 139.637963 
L 232.13811 180.574537 
" style="fill:none;stroke:#333333;stroke-dasharray:1.5,1.5;stroke-dashoffset:0;"/>
   </g>
   <g id="patch_47">
    <path d="M 96.7 254.07 
L 96.7 3.5 
" style="fill:none;stroke:#000000;stroke-linecap:square;stroke-linejoin:miter;stroke-width:0.8;"/>
   </g>
   <g id="patch_48">
    <path d="M 96.7 254.07 
L 347.27 254.07 
" style="fill:none;stroke:#000000;stroke-linecap:square;stroke-linejoin:miter;stroke-width:0.8;"/>
   </g>
  </g>
 </g>
 <defs>
  <clipPath id="p26198e26f9">
   <rect height="250.57" width="250.57" x="-265.23" y="3.5"/>
  </clipPath>
  <clipPath id="p5ed5f2988f">
   <rect height="250.57" width="250.57" x="96.7" y="3.5"/>
  </clipPath>
 </defs>
</svg>
