<?xml version="1.0" encoding="utf-8" standalone="no"?>
<!DOCTYPE svg PUBLIC "-//W3C//DTD SVG 1.1//EN"
  "http://www.w3.org/Graphics/SVG/1.1/DTD/svg11.dtd">
<!-- Created with matplotlib (https://matplotlib.org/) -->
<svg height="323.353333pt" version="1.1" viewBox="0 0 362.49737 323.353333" width="362.49737pt" xmlns="http://www.w3.org/2000/svg" xmlns:xlink="http://www.w3.org/1999/xlink">
 <defs>
  <style type="text/css">
*{stroke-linecap:butt;stroke-linejoin:round;}
  </style>
 </defs>
 <g id="figure_1">
  <g id="patch_1">
   <path d="M 0 323.353333 
L 362.49737 323.353333 
L 362.49737 -0 
L 0 -0 
z
" style="fill:#ffffff;"/>
  </g>
  <g id="axes_1">
   <g id="patch_2">
    <path d="M -273.813333 262.653333 
L -14.66 262.653333 
L -14.66 3.5 
L -273.813333 3.5 
z
" style="fill:#ffffff;"/>
   </g>
   <g id="patch_3">
    <path clip-path="url(#p9d59004256)" d="M -262.033636 262.653333 
L -256.143788 262.653333 
L -256.143788 262.653333 
L -262.033636 262.653333 
z
" style="fill:#43406b;opacity:0.6;stroke:#000000;stroke-linejoin:miter;stroke-width:0.5;"/>
   </g>
   <g id="patch_4">
    <path clip-path="url(#p9d59004256)" d="M -256.143788 262.653333 
L -250.253939 262.653333 
L -250.253939 262.653333 
L -256.143788 262.653333 
z
" style="fill:#43406b;opacity:0.6;stroke:#000000;stroke-linejoin:miter;stroke-width:0.5;"/>
   </g>
   <g id="patch_5">
    <path clip-path="url(#p9d59004256)" d="M -250.253939 262.653333 
L -244.364091 262.653333 
L -244.364091 262.653333 
L -250.253939 262.653333 
z
" style="fill:#43406b;opacity:0.6;stroke:#000000;stroke-linejoin:miter;stroke-width:0.5;"/>
   </g>
   <g id="patch_6">
    <path clip-path="url(#p9d59004256)" d="M -244.364091 262.653333 
L -238.474242 262.653333 
L -238.474242 262.653333 
L -244.364091 262.653333 
z
" style="fill:#43406b;opacity:0.6;stroke:#000000;stroke-linejoin:miter;stroke-width:0.5;"/>
   </g>
   <g id="patch_7">
    <path clip-path="url(#p9d59004256)" d="M -238.474242 262.653333 
L -232.584394 262.653333 
L -232.584394 262.653333 
L -238.474242 262.653333 
z
" style="fill:#43406b;opacity:0.6;stroke:#000000;stroke-linejoin:miter;stroke-width:0.5;"/>
   </g>
   <g id="patch_8">
    <path clip-path="url(#p9d59004256)" d="M -232.584394 262.653333 
L -226.694545 262.653333 
L -226.694545 262.653333 
L -232.584394 262.653333 
z
" style="fill:#43406b;opacity:0.6;stroke:#000000;stroke-linejoin:miter;stroke-width:0.5;"/>
   </g>
   <g id="patch_9">
    <path clip-path="url(#p9d59004256)" d="M -226.694545 262.653333 
L -220.804697 262.653333 
L -220.804697 262.653333 
L -226.694545 262.653333 
z
" style="fill:#43406b;opacity:0.6;stroke:#000000;stroke-linejoin:miter;stroke-width:0.5;"/>
   </g>
   <g id="patch_10">
    <path clip-path="url(#p9d59004256)" d="M -220.804697 262.653333 
L -214.914848 262.653333 
L -214.914848 262.653333 
L -220.804697 262.653333 
z
" style="fill:#43406b;opacity:0.6;stroke:#000000;stroke-linejoin:miter;stroke-width:0.5;"/>
   </g>
   <g id="patch_11">
    <path clip-path="url(#p9d59004256)" d="M -214.914848 262.653333 
L -209.025 262.653333 
L -209.025 262.653333 
L -214.914848 262.653333 
z
" style="fill:#43406b;opacity:0.6;stroke:#000000;stroke-linejoin:miter;stroke-width:0.5;"/>
   </g>
   <g id="patch_12">
    <path clip-path="url(#p9d59004256)" d="M -209.025 262.653333 
L -203.135152 262.653333 
L -203.135152 262.653333 
L -209.025 262.653333 
z
" style="fill:#43406b;opacity:0.6;stroke:#000000;stroke-linejoin:miter;stroke-width:0.5;"/>
   </g>
   <g id="patch_13">
    <path clip-path="url(#p9d59004256)" d="M -203.135152 262.653333 
L -197.245303 262.653333 
L -197.245303 262.653333 
L -203.135152 262.653333 
z
" style="fill:#43406b;opacity:0.6;stroke:#000000;stroke-linejoin:miter;stroke-width:0.5;"/>
   </g>
   <g id="patch_14">
    <path clip-path="url(#p9d59004256)" d="M -197.245303 262.653333 
L -191.355455 262.653333 
L -191.355455 262.653333 
L -197.245303 262.653333 
z
" style="fill:#43406b;opacity:0.6;stroke:#000000;stroke-linejoin:miter;stroke-width:0.5;"/>
   </g>
   <g id="patch_15">
    <path clip-path="url(#p9d59004256)" d="M -191.355455 262.653333 
L -185.465606 262.653333 
L -185.465606 262.653333 
L -191.355455 262.653333 
z
" style="fill:#43406b;opacity:0.6;stroke:#000000;stroke-linejoin:miter;stroke-width:0.5;"/>
   </g>
   <g id="patch_16">
    <path clip-path="url(#p9d59004256)" d="M -185.465606 262.653333 
L -179.575758 262.653333 
L -179.575758 262.653333 
L -185.465606 262.653333 
z
" style="fill:#43406b;opacity:0.6;stroke:#000000;stroke-linejoin:miter;stroke-width:0.5;"/>
   </g>
   <g id="patch_17">
    <path clip-path="url(#p9d59004256)" d="M -179.575758 262.653333 
L -173.685909 262.653333 
L -173.685909 262.653333 
L -179.575758 262.653333 
z
" style="fill:#43406b;opacity:0.6;stroke:#000000;stroke-linejoin:miter;stroke-width:0.5;"/>
   </g>
   <g id="patch_18">
    <path clip-path="url(#p9d59004256)" d="M -173.685909 262.653333 
L -167.796061 262.653333 
L -167.796061 262.653333 
L -173.685909 262.653333 
z
" style="fill:#43406b;opacity:0.6;stroke:#000000;stroke-linejoin:miter;stroke-width:0.5;"/>
   </g>
   <g id="patch_19">
    <path clip-path="url(#p9d59004256)" d="M -167.796061 262.653333 
L -161.906212 262.653333 
L -161.906212 262.653333 
L -167.796061 262.653333 
z
" style="fill:#43406b;opacity:0.6;stroke:#000000;stroke-linejoin:miter;stroke-width:0.5;"/>
   </g>
   <g id="patch_20">
    <path clip-path="url(#p9d59004256)" d="M -161.906212 262.653333 
L -156.016364 262.653333 
L -156.016364 262.653333 
L -161.906212 262.653333 
z
" style="fill:#43406b;opacity:0.6;stroke:#000000;stroke-linejoin:miter;stroke-width:0.5;"/>
   </g>
   <g id="patch_21">
    <path clip-path="url(#p9d59004256)" d="M -156.016364 262.653333 
L -150.126515 262.653333 
L -150.126515 262.653333 
L -156.016364 262.653333 
z
" style="fill:#43406b;opacity:0.6;stroke:#000000;stroke-linejoin:miter;stroke-width:0.5;"/>
   </g>
   <g id="patch_22">
    <path clip-path="url(#p9d59004256)" d="M -150.126515 262.653333 
L -144.236667 262.653333 
L -144.236667 262.653333 
L -150.126515 262.653333 
z
" style="fill:#43406b;opacity:0.6;stroke:#000000;stroke-linejoin:miter;stroke-width:0.5;"/>
   </g>
   <g id="patch_23">
    <path clip-path="url(#p9d59004256)" d="M -144.236667 262.653333 
L -138.346818 262.653333 
L -138.346818 262.653333 
L -144.236667 262.653333 
z
" style="fill:#43406b;opacity:0.6;stroke:#000000;stroke-linejoin:miter;stroke-width:0.5;"/>
   </g>
   <g id="patch_24">
    <path clip-path="url(#p9d59004256)" d="M -138.346818 262.653333 
L -132.45697 262.653333 
L -132.45697 262.409447 
L -138.346818 262.409447 
z
" style="fill:#43406b;opacity:0.6;stroke:#000000;stroke-linejoin:miter;stroke-width:0.5;"/>
   </g>
   <g id="patch_25">
    <path clip-path="url(#p9d59004256)" d="M -132.45697 262.653333 
L -126.567121 262.653333 
L -126.567121 261.921675 
L -132.45697 261.921675 
z
" style="fill:#43406b;opacity:0.6;stroke:#000000;stroke-linejoin:miter;stroke-width:0.5;"/>
   </g>
   <g id="patch_26">
    <path clip-path="url(#p9d59004256)" d="M -126.567121 262.653333 
L -120.677273 262.653333 
L -120.677273 261.921675 
L -126.567121 261.921675 
z
" style="fill:#43406b;opacity:0.6;stroke:#000000;stroke-linejoin:miter;stroke-width:0.5;"/>
   </g>
   <g id="patch_27">
    <path clip-path="url(#p9d59004256)" d="M -120.677273 262.653333 
L -114.787424 262.653333 
L -114.787424 262.653333 
L -120.677273 262.653333 
z
" style="fill:#43406b;opacity:0.6;stroke:#000000;stroke-linejoin:miter;stroke-width:0.5;"/>
   </g>
   <g id="patch_28">
    <path clip-path="url(#p9d59004256)" d="M -114.787424 262.653333 
L -108.897576 262.653333 
L -108.897576 262.165561 
L -114.787424 262.165561 
z
" style="fill:#43406b;opacity:0.6;stroke:#000000;stroke-linejoin:miter;stroke-width:0.5;"/>
   </g>
   <g id="patch_29">
    <path clip-path="url(#p9d59004256)" d="M -108.897576 262.653333 
L -103.007727 262.653333 
L -103.007727 262.409447 
L -108.897576 262.409447 
z
" style="fill:#43406b;opacity:0.6;stroke:#000000;stroke-linejoin:miter;stroke-width:0.5;"/>
   </g>
   <g id="patch_30">
    <path clip-path="url(#p9d59004256)" d="M -103.007727 262.653333 
L -97.117879 262.653333 
L -97.117879 262.653333 
L -103.007727 262.653333 
z
" style="fill:#43406b;opacity:0.6;stroke:#000000;stroke-linejoin:miter;stroke-width:0.5;"/>
   </g>
   <g id="patch_31">
    <path clip-path="url(#p9d59004256)" d="M -97.117879 262.653333 
L -91.22803 262.653333 
L -91.22803 259.970587 
L -97.117879 259.970587 
z
" style="fill:#43406b;opacity:0.6;stroke:#000000;stroke-linejoin:miter;stroke-width:0.5;"/>
   </g>
   <g id="patch_32">
    <path clip-path="url(#p9d59004256)" d="M -91.22803 262.653333 
L -85.338182 262.653333 
L -85.338182 259.238928 
L -91.22803 259.238928 
z
" style="fill:#43406b;opacity:0.6;stroke:#000000;stroke-linejoin:miter;stroke-width:0.5;"/>
   </g>
   <g id="patch_33">
    <path clip-path="url(#p9d59004256)" d="M -85.338182 262.653333 
L -79.448333 262.653333 
L -79.448333 258.263384 
L -85.338182 258.263384 
z
" style="fill:#43406b;opacity:0.6;stroke:#000000;stroke-linejoin:miter;stroke-width:0.5;"/>
   </g>
   <g id="patch_34">
    <path clip-path="url(#p9d59004256)" d="M -79.448333 262.653333 
L -73.558485 262.653333 
L -73.558485 258.751156 
L -79.448333 258.751156 
z
" style="fill:#43406b;opacity:0.6;stroke:#000000;stroke-linejoin:miter;stroke-width:0.5;"/>
   </g>
   <g id="patch_35">
    <path clip-path="url(#p9d59004256)" d="M -73.558485 262.653333 
L -67.668636 262.653333 
L -67.668636 247.532397 
L -73.558485 247.532397 
z
" style="fill:#43406b;opacity:0.6;stroke:#000000;stroke-linejoin:miter;stroke-width:0.5;"/>
   </g>
   <g id="patch_36">
    <path clip-path="url(#p9d59004256)" d="M -67.668636 262.653333 
L -61.778788 262.653333 
L -61.778788 245.581309 
L -67.668636 245.581309 
z
" style="fill:#43406b;opacity:0.6;stroke:#000000;stroke-linejoin:miter;stroke-width:0.5;"/>
   </g>
   <g id="patch_37">
    <path clip-path="url(#p9d59004256)" d="M -61.778788 262.653333 
L -55.888939 262.653333 
L -55.888939 235.338094 
L -61.778788 235.338094 
z
" style="fill:#43406b;opacity:0.6;stroke:#000000;stroke-linejoin:miter;stroke-width:0.5;"/>
   </g>
   <g id="patch_38">
    <path clip-path="url(#p9d59004256)" d="M -55.888939 262.653333 
L -49.999091 262.653333 
L -49.999091 205.82788 
L -55.888939 205.82788 
z
" style="fill:#43406b;opacity:0.6;stroke:#000000;stroke-linejoin:miter;stroke-width:0.5;"/>
   </g>
   <g id="patch_39">
    <path clip-path="url(#p9d59004256)" d="M -49.999091 262.653333 
L -44.109242 262.653333 
L -44.109242 141.929731 
L -49.999091 141.929731 
z
" style="fill:#43406b;opacity:0.6;stroke:#000000;stroke-linejoin:miter;stroke-width:0.5;"/>
   </g>
   <g id="patch_40">
    <path clip-path="url(#p9d59004256)" d="M -44.109242 262.653333 
L -38.219394 262.653333 
L -38.219394 15.840635 
L -44.109242 15.840635 
z
" style="fill:#43406b;opacity:0.6;stroke:#000000;stroke-linejoin:miter;stroke-width:0.5;"/>
   </g>
   <g id="patch_41">
    <path clip-path="url(#p9d59004256)" d="M -38.219394 262.653333 
L -32.329545 262.653333 
L -32.329545 68.763911 
L -38.219394 68.763911 
z
" style="fill:#43406b;opacity:0.6;stroke:#000000;stroke-linejoin:miter;stroke-width:0.5;"/>
   </g>
   <g id="patch_42">
    <path clip-path="url(#p9d59004256)" d="M -32.329545 262.653333 
L -26.439697 262.653333 
L -26.439697 160.708958 
L -32.329545 160.708958 
z
" style="fill:#43406b;opacity:0.6;stroke:#000000;stroke-linejoin:miter;stroke-width:0.5;"/>
   </g>
   <g id="patch_43">
    <path clip-path="url(#p9d59004256)" d="M -262.033636 262.653333 
L -256.143788 262.653333 
L -256.143788 262.653333 
L -262.033636 262.653333 
z
" style="fill:#d15a00;opacity:0.6;stroke:#000000;stroke-linejoin:miter;stroke-width:0.5;"/>
   </g>
   <g id="patch_44">
    <path clip-path="url(#p9d59004256)" d="M -256.143788 262.653333 
L -250.253939 262.653333 
L -250.253939 262.653333 
L -256.143788 262.653333 
z
" style="fill:#d15a00;opacity:0.6;stroke:#000000;stroke-linejoin:miter;stroke-width:0.5;"/>
   </g>
   <g id="patch_45">
    <path clip-path="url(#p9d59004256)" d="M -250.253939 262.653333 
L -244.364091 262.653333 
L -244.364091 262.653333 
L -250.253939 262.653333 
z
" style="fill:#d15a00;opacity:0.6;stroke:#000000;stroke-linejoin:miter;stroke-width:0.5;"/>
   </g>
   <g id="patch_46">
    <path clip-path="url(#p9d59004256)" d="M -244.364091 262.653333 
L -238.474242 262.653333 
L -238.474242 262.653333 
L -244.364091 262.653333 
z
" style="fill:#d15a00;opacity:0.6;stroke:#000000;stroke-linejoin:miter;stroke-width:0.5;"/>
   </g>
   <g id="patch_47">
    <path clip-path="url(#p9d59004256)" d="M -238.474242 262.653333 
L -232.584394 262.653333 
L -232.584394 262.653333 
L -238.474242 262.653333 
z
" style="fill:#d15a00;opacity:0.6;stroke:#000000;stroke-linejoin:miter;stroke-width:0.5;"/>
   </g>
   <g id="patch_48">
    <path clip-path="url(#p9d59004256)" d="M -232.584394 262.653333 
L -226.694545 262.653333 
L -226.694545 262.653333 
L -232.584394 262.653333 
z
" style="fill:#d15a00;opacity:0.6;stroke:#000000;stroke-linejoin:miter;stroke-width:0.5;"/>
   </g>
   <g id="patch_49">
    <path clip-path="url(#p9d59004256)" d="M -226.694545 262.653333 
L -220.804697 262.653333 
L -220.804697 262.653333 
L -226.694545 262.653333 
z
" style="fill:#d15a00;opacity:0.6;stroke:#000000;stroke-linejoin:miter;stroke-width:0.5;"/>
   </g>
   <g id="patch_50">
    <path clip-path="url(#p9d59004256)" d="M -220.804697 262.653333 
L -214.914848 262.653333 
L -214.914848 262.653333 
L -220.804697 262.653333 
z
" style="fill:#d15a00;opacity:0.6;stroke:#000000;stroke-linejoin:miter;stroke-width:0.5;"/>
   </g>
   <g id="patch_51">
    <path clip-path="url(#p9d59004256)" d="M -214.914848 262.653333 
L -209.025 262.653333 
L -209.025 262.653333 
L -214.914848 262.653333 
z
" style="fill:#d15a00;opacity:0.6;stroke:#000000;stroke-linejoin:miter;stroke-width:0.5;"/>
   </g>
   <g id="patch_52">
    <path clip-path="url(#p9d59004256)" d="M -209.025 262.653333 
L -203.135152 262.653333 
L -203.135152 262.653333 
L -209.025 262.653333 
z
" style="fill:#d15a00;opacity:0.6;stroke:#000000;stroke-linejoin:miter;stroke-width:0.5;"/>
   </g>
   <g id="patch_53">
    <path clip-path="url(#p9d59004256)" d="M -203.135152 262.653333 
L -197.245303 262.653333 
L -197.245303 262.653333 
L -203.135152 262.653333 
z
" style="fill:#d15a00;opacity:0.6;stroke:#000000;stroke-linejoin:miter;stroke-width:0.5;"/>
   </g>
   <g id="patch_54">
    <path clip-path="url(#p9d59004256)" d="M -197.245303 262.653333 
L -191.355455 262.653333 
L -191.355455 262.193972 
L -197.245303 262.193972 
z
" style="fill:#d15a00;opacity:0.6;stroke:#000000;stroke-linejoin:miter;stroke-width:0.5;"/>
   </g>
   <g id="patch_55">
    <path clip-path="url(#p9d59004256)" d="M -191.355455 262.653333 
L -185.465606 262.653333 
L -185.465606 262.653333 
L -191.355455 262.653333 
z
" style="fill:#d15a00;opacity:0.6;stroke:#000000;stroke-linejoin:miter;stroke-width:0.5;"/>
   </g>
   <g id="patch_56">
    <path clip-path="url(#p9d59004256)" d="M -185.465606 262.653333 
L -179.575758 262.653333 
L -179.575758 262.193972 
L -185.465606 262.193972 
z
" style="fill:#d15a00;opacity:0.6;stroke:#000000;stroke-linejoin:miter;stroke-width:0.5;"/>
   </g>
   <g id="patch_57">
    <path clip-path="url(#p9d59004256)" d="M -179.575758 262.653333 
L -173.685909 262.653333 
L -173.685909 262.653333 
L -179.575758 262.653333 
z
" style="fill:#d15a00;opacity:0.6;stroke:#000000;stroke-linejoin:miter;stroke-width:0.5;"/>
   </g>
   <g id="patch_58">
    <path clip-path="url(#p9d59004256)" d="M -173.685909 262.653333 
L -167.796061 262.653333 
L -167.796061 262.653333 
L -173.685909 262.653333 
z
" style="fill:#d15a00;opacity:0.6;stroke:#000000;stroke-linejoin:miter;stroke-width:0.5;"/>
   </g>
   <g id="patch_59">
    <path clip-path="url(#p9d59004256)" d="M -167.796061 262.653333 
L -161.906212 262.653333 
L -161.906212 262.653333 
L -167.796061 262.653333 
z
" style="fill:#d15a00;opacity:0.6;stroke:#000000;stroke-linejoin:miter;stroke-width:0.5;"/>
   </g>
   <g id="patch_60">
    <path clip-path="url(#p9d59004256)" d="M -161.906212 262.653333 
L -156.016364 262.653333 
L -156.016364 262.653333 
L -161.906212 262.653333 
z
" style="fill:#d15a00;opacity:0.6;stroke:#000000;stroke-linejoin:miter;stroke-width:0.5;"/>
   </g>
   <g id="patch_61">
    <path clip-path="url(#p9d59004256)" d="M -156.016364 262.653333 
L -150.126515 262.653333 
L -150.126515 262.653333 
L -156.016364 262.653333 
z
" style="fill:#d15a00;opacity:0.6;stroke:#000000;stroke-linejoin:miter;stroke-width:0.5;"/>
   </g>
   <g id="patch_62">
    <path clip-path="url(#p9d59004256)" d="M -150.126515 262.653333 
L -144.236667 262.653333 
L -144.236667 262.193972 
L -150.126515 262.193972 
z
" style="fill:#d15a00;opacity:0.6;stroke:#000000;stroke-linejoin:miter;stroke-width:0.5;"/>
   </g>
   <g id="patch_63">
    <path clip-path="url(#p9d59004256)" d="M -144.236667 262.653333 
L -138.346818 262.653333 
L -138.346818 262.653333 
L -144.236667 262.653333 
z
" style="fill:#d15a00;opacity:0.6;stroke:#000000;stroke-linejoin:miter;stroke-width:0.5;"/>
   </g>
   <g id="patch_64">
    <path clip-path="url(#p9d59004256)" d="M -138.346818 262.653333 
L -132.45697 262.653333 
L -132.45697 262.653333 
L -138.346818 262.653333 
z
" style="fill:#d15a00;opacity:0.6;stroke:#000000;stroke-linejoin:miter;stroke-width:0.5;"/>
   </g>
   <g id="patch_65">
    <path clip-path="url(#p9d59004256)" d="M -132.45697 262.653333 
L -126.567121 262.653333 
L -126.567121 262.193972 
L -132.45697 262.193972 
z
" style="fill:#d15a00;opacity:0.6;stroke:#000000;stroke-linejoin:miter;stroke-width:0.5;"/>
   </g>
   <g id="patch_66">
    <path clip-path="url(#p9d59004256)" d="M -126.567121 262.653333 
L -120.677273 262.653333 
L -120.677273 261.734611 
L -126.567121 261.734611 
z
" style="fill:#d15a00;opacity:0.6;stroke:#000000;stroke-linejoin:miter;stroke-width:0.5;"/>
   </g>
   <g id="patch_67">
    <path clip-path="url(#p9d59004256)" d="M -120.677273 262.653333 
L -114.787424 262.653333 
L -114.787424 261.734611 
L -120.677273 261.734611 
z
" style="fill:#d15a00;opacity:0.6;stroke:#000000;stroke-linejoin:miter;stroke-width:0.5;"/>
   </g>
   <g id="patch_68">
    <path clip-path="url(#p9d59004256)" d="M -114.787424 262.653333 
L -108.897576 262.653333 
L -108.897576 261.27525 
L -114.787424 261.27525 
z
" style="fill:#d15a00;opacity:0.6;stroke:#000000;stroke-linejoin:miter;stroke-width:0.5;"/>
   </g>
   <g id="patch_69">
    <path clip-path="url(#p9d59004256)" d="M -108.897576 262.653333 
L -103.007727 262.653333 
L -103.007727 261.27525 
L -108.897576 261.27525 
z
" style="fill:#d15a00;opacity:0.6;stroke:#000000;stroke-linejoin:miter;stroke-width:0.5;"/>
   </g>
   <g id="patch_70">
    <path clip-path="url(#p9d59004256)" d="M -103.007727 262.653333 
L -97.117879 262.653333 
L -97.117879 257.600363 
L -103.007727 257.600363 
z
" style="fill:#d15a00;opacity:0.6;stroke:#000000;stroke-linejoin:miter;stroke-width:0.5;"/>
   </g>
   <g id="patch_71">
    <path clip-path="url(#p9d59004256)" d="M -97.117879 262.653333 
L -91.22803 262.653333 
L -91.22803 257.600363 
L -97.117879 257.600363 
z
" style="fill:#d15a00;opacity:0.6;stroke:#000000;stroke-linejoin:miter;stroke-width:0.5;"/>
   </g>
   <g id="patch_72">
    <path clip-path="url(#p9d59004256)" d="M -91.22803 262.653333 
L -85.338182 262.653333 
L -85.338182 250.709949 
L -91.22803 250.709949 
z
" style="fill:#d15a00;opacity:0.6;stroke:#000000;stroke-linejoin:miter;stroke-width:0.5;"/>
   </g>
   <g id="patch_73">
    <path clip-path="url(#p9d59004256)" d="M -85.338182 262.653333 
L -79.448333 262.653333 
L -79.448333 244.278895 
L -85.338182 244.278895 
z
" style="fill:#d15a00;opacity:0.6;stroke:#000000;stroke-linejoin:miter;stroke-width:0.5;"/>
   </g>
   <g id="patch_74">
    <path clip-path="url(#p9d59004256)" d="M -79.448333 262.653333 
L -73.558485 262.653333 
L -73.558485 233.713593 
L -79.448333 233.713593 
z
" style="fill:#d15a00;opacity:0.6;stroke:#000000;stroke-linejoin:miter;stroke-width:0.5;"/>
   </g>
   <g id="patch_75">
    <path clip-path="url(#p9d59004256)" d="M -73.558485 262.653333 
L -67.668636 262.653333 
L -67.668636 220.392126 
L -73.558485 220.392126 
z
" style="fill:#d15a00;opacity:0.6;stroke:#000000;stroke-linejoin:miter;stroke-width:0.5;"/>
   </g>
   <g id="patch_76">
    <path clip-path="url(#p9d59004256)" d="M -67.668636 262.653333 
L -61.778788 262.653333 
L -61.778788 202.477049 
L -67.668636 202.477049 
z
" style="fill:#d15a00;opacity:0.6;stroke:#000000;stroke-linejoin:miter;stroke-width:0.5;"/>
   </g>
   <g id="patch_77">
    <path clip-path="url(#p9d59004256)" d="M -61.778788 262.653333 
L -55.888939 262.653333 
L -55.888939 175.374753 
L -61.778788 175.374753 
z
" style="fill:#d15a00;opacity:0.6;stroke:#000000;stroke-linejoin:miter;stroke-width:0.5;"/>
   </g>
   <g id="patch_78">
    <path clip-path="url(#p9d59004256)" d="M -55.888939 262.653333 
L -49.999091 262.653333 
L -49.999091 134.491628 
L -55.888939 134.491628 
z
" style="fill:#d15a00;opacity:0.6;stroke:#000000;stroke-linejoin:miter;stroke-width:0.5;"/>
   </g>
   <g id="patch_79">
    <path clip-path="url(#p9d59004256)" d="M -49.999091 262.653333 
L -44.109242 262.653333 
L -44.109242 96.364669 
L -49.999091 96.364669 
z
" style="fill:#d15a00;opacity:0.6;stroke:#000000;stroke-linejoin:miter;stroke-width:0.5;"/>
   </g>
   <g id="patch_80">
    <path clip-path="url(#p9d59004256)" d="M -44.109242 262.653333 
L -38.219394 262.653333 
L -38.219394 93.608503 
L -44.109242 93.608503 
z
" style="fill:#d15a00;opacity:0.6;stroke:#000000;stroke-linejoin:miter;stroke-width:0.5;"/>
   </g>
   <g id="patch_81">
    <path clip-path="url(#p9d59004256)" d="M -38.219394 262.653333 
L -32.329545 262.653333 
L -32.329545 204.314492 
L -38.219394 204.314492 
z
" style="fill:#d15a00;opacity:0.6;stroke:#000000;stroke-linejoin:miter;stroke-width:0.5;"/>
   </g>
   <g id="patch_82">
    <path clip-path="url(#p9d59004256)" d="M -32.329545 262.653333 
L -26.439697 262.653333 
L -26.439697 253.466114 
L -32.329545 253.466114 
z
" style="fill:#d15a00;opacity:0.6;stroke:#000000;stroke-linejoin:miter;stroke-width:0.5;"/>
   </g>
   <g id="matplotlib.axis_1">
    <g id="xtick_1">
     <g id="line2d_1">
      <defs>
       <path d="M 0 0 
L 0 3.5 
" id="mc8856e1b57" style="stroke:#000000;stroke-width:1.6;"/>
      </defs>
      <g/>
     </g>
     <g id="text_1">
      <!-- 0.0 -->
      <defs>
       <path d="M 31.78125 66.40625 
Q 24.171875 66.40625 20.328125 58.90625 
Q 16.5 51.421875 16.5 36.375 
Q 16.5 21.390625 20.328125 13.890625 
Q 24.171875 6.390625 31.78125 6.390625 
Q 39.453125 6.390625 43.28125 13.890625 
Q 47.125 21.390625 47.125 36.375 
Q 47.125 51.421875 43.28125 58.90625 
Q 39.453125 66.40625 31.78125 66.40625 
z
M 31.78125 74.21875 
Q 44.046875 74.21875 50.515625 64.515625 
Q 56.984375 54.828125 56.984375 36.375 
Q 56.984375 17.96875 50.515625 8.265625 
Q 44.046875 -1.421875 31.78125 -1.421875 
Q 19.53125 -1.421875 13.0625 8.265625 
Q 6.59375 17.96875 6.59375 36.375 
Q 6.59375 54.828125 13.0625 64.515625 
Q 19.53125 74.21875 31.78125 74.21875 
z
" id="DejaVuSans-48"/>
       <path d="M 10.6875 12.40625 
L 21 12.40625 
L 21 0 
L 10.6875 0 
z
" id="DejaVuSans-46"/>
      </defs>
      <g transform="translate(-277.936761 292.550208)scale(0.2 -0.2)">
       <use xlink:href="#DejaVuSans-48"/>
       <use x="63.623047" xlink:href="#DejaVuSans-46"/>
       <use x="95.410156" xlink:href="#DejaVuSans-48"/>
      </g>
     </g>
    </g>
    <g id="xtick_2">
     <g id="line2d_2">
      <g/>
     </g>
     <g id="text_2">
      <!-- 0.2 -->
      <defs>
       <path d="M 19.1875 8.296875 
L 53.609375 8.296875 
L 53.609375 0 
L 7.328125 0 
L 7.328125 8.296875 
Q 12.9375 14.109375 22.625 23.890625 
Q 32.328125 33.6875 34.8125 36.53125 
Q 39.546875 41.84375 41.421875 45.53125 
Q 43.3125 49.21875 43.3125 52.78125 
Q 43.3125 58.59375 39.234375 62.25 
Q 35.15625 65.921875 28.609375 65.921875 
Q 23.96875 65.921875 18.8125 64.3125 
Q 13.671875 62.703125 7.8125 59.421875 
L 7.8125 69.390625 
Q 13.765625 71.78125 18.9375 73 
Q 24.125 74.21875 28.421875 74.21875 
Q 39.75 74.21875 46.484375 68.546875 
Q 53.21875 62.890625 53.21875 53.421875 
Q 53.21875 48.921875 51.53125 44.890625 
Q 49.859375 40.875 45.40625 35.40625 
Q 44.1875 33.984375 37.640625 27.21875 
Q 31.109375 20.453125 19.1875 8.296875 
z
" id="DejaVuSans-50"/>
      </defs>
      <g transform="translate(-210.624207 292.550208)scale(0.2 -0.2)">
       <use xlink:href="#DejaVuSans-48"/>
       <use x="63.623047" xlink:href="#DejaVuSans-46"/>
       <use x="95.410156" xlink:href="#DejaVuSans-50"/>
      </g>
     </g>
    </g>
    <g id="xtick_3">
     <g id="line2d_3">
      <g/>
     </g>
     <g id="text_3">
      <!-- 0.4 -->
      <defs>
       <path d="M 37.796875 64.3125 
L 12.890625 25.390625 
L 37.796875 25.390625 
z
M 35.203125 72.90625 
L 47.609375 72.90625 
L 47.609375 25.390625 
L 58.015625 25.390625 
L 58.015625 17.1875 
L 47.609375 17.1875 
L 47.609375 0 
L 37.796875 0 
L 37.796875 17.1875 
L 4.890625 17.1875 
L 4.890625 26.703125 
z
" id="DejaVuSans-52"/>
      </defs>
      <g transform="translate(-143.311653 292.550208)scale(0.2 -0.2)">
       <use xlink:href="#DejaVuSans-48"/>
       <use x="63.623047" xlink:href="#DejaVuSans-46"/>
       <use x="95.410156" xlink:href="#DejaVuSans-52"/>
      </g>
     </g>
    </g>
    <g id="xtick_4">
     <g id="line2d_4">
      <g/>
     </g>
     <g id="text_4">
      <!-- 0.6 -->
      <defs>
       <path d="M 33.015625 40.375 
Q 26.375 40.375 22.484375 35.828125 
Q 18.609375 31.296875 18.609375 23.390625 
Q 18.609375 15.53125 22.484375 10.953125 
Q 26.375 6.390625 33.015625 6.390625 
Q 39.65625 6.390625 43.53125 10.953125 
Q 47.40625 15.53125 47.40625 23.390625 
Q 47.40625 31.296875 43.53125 35.828125 
Q 39.65625 40.375 33.015625 40.375 
z
M 52.59375 71.296875 
L 52.59375 62.3125 
Q 48.875 64.0625 45.09375 64.984375 
Q 41.3125 65.921875 37.59375 65.921875 
Q 27.828125 65.921875 22.671875 59.328125 
Q 17.53125 52.734375 16.796875 39.40625 
Q 19.671875 43.65625 24.015625 45.921875 
Q 28.375 48.1875 33.59375 48.1875 
Q 44.578125 48.1875 50.953125 41.515625 
Q 57.328125 34.859375 57.328125 23.390625 
Q 57.328125 12.15625 50.6875 5.359375 
Q 44.046875 -1.421875 33.015625 -1.421875 
Q 20.359375 -1.421875 13.671875 8.265625 
Q 6.984375 17.96875 6.984375 36.375 
Q 6.984375 53.65625 15.1875 63.9375 
Q 23.390625 74.21875 37.203125 74.21875 
Q 40.921875 74.21875 44.703125 73.484375 
Q 48.484375 72.75 52.59375 71.296875 
z
" id="DejaVuSans-54"/>
      </defs>
      <g transform="translate(-75.999099 292.550208)scale(0.2 -0.2)">
       <use xlink:href="#DejaVuSans-48"/>
       <use x="63.623047" xlink:href="#DejaVuSans-46"/>
       <use x="95.410156" xlink:href="#DejaVuSans-54"/>
      </g>
     </g>
    </g>
    <g id="text_5">
     <!-- Max JS Divergence within $\epsilon$ -->
     <defs>
      <path d="M 9.8125 72.90625 
L 24.515625 72.90625 
L 43.109375 23.296875 
L 61.8125 72.90625 
L 76.515625 72.90625 
L 76.515625 0 
L 66.890625 0 
L 66.890625 64.015625 
L 48.09375 14.015625 
L 38.1875 14.015625 
L 19.390625 64.015625 
L 19.390625 0 
L 9.8125 0 
z
" id="DejaVuSans-77"/>
      <path d="M 34.28125 27.484375 
Q 23.390625 27.484375 19.1875 25 
Q 14.984375 22.515625 14.984375 16.5 
Q 14.984375 11.71875 18.140625 8.90625 
Q 21.296875 6.109375 26.703125 6.109375 
Q 34.1875 6.109375 38.703125 11.40625 
Q 43.21875 16.703125 43.21875 25.484375 
L 43.21875 27.484375 
z
M 52.203125 31.203125 
L 52.203125 0 
L 43.21875 0 
L 43.21875 8.296875 
Q 40.140625 3.328125 35.546875 0.953125 
Q 30.953125 -1.421875 24.3125 -1.421875 
Q 15.921875 -1.421875 10.953125 3.296875 
Q 6 8.015625 6 15.921875 
Q 6 25.140625 12.171875 29.828125 
Q 18.359375 34.515625 30.609375 34.515625 
L 43.21875 34.515625 
L 43.21875 35.40625 
Q 43.21875 41.609375 39.140625 45 
Q 35.0625 48.390625 27.6875 48.390625 
Q 23 48.390625 18.546875 47.265625 
Q 14.109375 46.140625 10.015625 43.890625 
L 10.015625 52.203125 
Q 14.9375 54.109375 19.578125 55.046875 
Q 24.21875 56 28.609375 56 
Q 40.484375 56 46.34375 49.84375 
Q 52.203125 43.703125 52.203125 31.203125 
z
" id="DejaVuSans-97"/>
      <path d="M 54.890625 54.6875 
L 35.109375 28.078125 
L 55.90625 0 
L 45.3125 0 
L 29.390625 21.484375 
L 13.484375 0 
L 2.875 0 
L 24.125 28.609375 
L 4.6875 54.6875 
L 15.28125 54.6875 
L 29.78125 35.203125 
L 44.28125 54.6875 
z
" id="DejaVuSans-120"/>
      <path id="DejaVuSans-32"/>
      <path d="M 9.8125 72.90625 
L 19.671875 72.90625 
L 19.671875 5.078125 
Q 19.671875 -8.109375 14.671875 -14.0625 
Q 9.671875 -20.015625 -1.421875 -20.015625 
L -5.171875 -20.015625 
L -5.171875 -11.71875 
L -2.09375 -11.71875 
Q 4.4375 -11.71875 7.125 -8.046875 
Q 9.8125 -4.390625 9.8125 5.078125 
z
" id="DejaVuSans-74"/>
      <path d="M 53.515625 70.515625 
L 53.515625 60.890625 
Q 47.90625 63.578125 42.921875 64.890625 
Q 37.9375 66.21875 33.296875 66.21875 
Q 25.25 66.21875 20.875 63.09375 
Q 16.5 59.96875 16.5 54.203125 
Q 16.5 49.359375 19.40625 46.890625 
Q 22.3125 44.4375 30.421875 42.921875 
L 36.375 41.703125 
Q 47.40625 39.59375 52.65625 34.296875 
Q 57.90625 29 57.90625 20.125 
Q 57.90625 9.515625 50.796875 4.046875 
Q 43.703125 -1.421875 29.984375 -1.421875 
Q 24.8125 -1.421875 18.96875 -0.25 
Q 13.140625 0.921875 6.890625 3.21875 
L 6.890625 13.375 
Q 12.890625 10.015625 18.65625 8.296875 
Q 24.421875 6.59375 29.984375 6.59375 
Q 38.421875 6.59375 43.015625 9.90625 
Q 47.609375 13.234375 47.609375 19.390625 
Q 47.609375 24.75 44.3125 27.78125 
Q 41.015625 30.8125 33.5 32.328125 
L 27.484375 33.5 
Q 16.453125 35.6875 11.515625 40.375 
Q 6.59375 45.0625 6.59375 53.421875 
Q 6.59375 63.09375 13.40625 68.65625 
Q 20.21875 74.21875 32.171875 74.21875 
Q 37.3125 74.21875 42.625 73.28125 
Q 47.953125 72.359375 53.515625 70.515625 
z
" id="DejaVuSans-83"/>
      <path d="M 19.671875 64.796875 
L 19.671875 8.109375 
L 31.59375 8.109375 
Q 46.6875 8.109375 53.6875 14.9375 
Q 60.6875 21.78125 60.6875 36.53125 
Q 60.6875 51.171875 53.6875 57.984375 
Q 46.6875 64.796875 31.59375 64.796875 
z
M 9.8125 72.90625 
L 30.078125 72.90625 
Q 51.265625 72.90625 61.171875 64.09375 
Q 71.09375 55.28125 71.09375 36.53125 
Q 71.09375 17.671875 61.125 8.828125 
Q 51.171875 0 30.078125 0 
L 9.8125 0 
z
" id="DejaVuSans-68"/>
      <path d="M 9.421875 54.6875 
L 18.40625 54.6875 
L 18.40625 0 
L 9.421875 0 
z
M 9.421875 75.984375 
L 18.40625 75.984375 
L 18.40625 64.59375 
L 9.421875 64.59375 
z
" id="DejaVuSans-105"/>
      <path d="M 2.984375 54.6875 
L 12.5 54.6875 
L 29.59375 8.796875 
L 46.6875 54.6875 
L 56.203125 54.6875 
L 35.6875 0 
L 23.484375 0 
z
" id="DejaVuSans-118"/>
      <path d="M 56.203125 29.59375 
L 56.203125 25.203125 
L 14.890625 25.203125 
Q 15.484375 15.921875 20.484375 11.0625 
Q 25.484375 6.203125 34.421875 6.203125 
Q 39.59375 6.203125 44.453125 7.46875 
Q 49.3125 8.734375 54.109375 11.28125 
L 54.109375 2.78125 
Q 49.265625 0.734375 44.1875 -0.34375 
Q 39.109375 -1.421875 33.890625 -1.421875 
Q 20.796875 -1.421875 13.15625 6.1875 
Q 5.515625 13.8125 5.515625 26.8125 
Q 5.515625 40.234375 12.765625 48.109375 
Q 20.015625 56 32.328125 56 
Q 43.359375 56 49.78125 48.890625 
Q 56.203125 41.796875 56.203125 29.59375 
z
M 47.21875 32.234375 
Q 47.125 39.59375 43.09375 43.984375 
Q 39.0625 48.390625 32.421875 48.390625 
Q 24.90625 48.390625 20.390625 44.140625 
Q 15.875 39.890625 15.1875 32.171875 
z
" id="DejaVuSans-101"/>
      <path d="M 41.109375 46.296875 
Q 39.59375 47.171875 37.8125 47.578125 
Q 36.03125 48 33.890625 48 
Q 26.265625 48 22.1875 43.046875 
Q 18.109375 38.09375 18.109375 28.8125 
L 18.109375 0 
L 9.078125 0 
L 9.078125 54.6875 
L 18.109375 54.6875 
L 18.109375 46.1875 
Q 20.953125 51.171875 25.484375 53.578125 
Q 30.03125 56 36.53125 56 
Q 37.453125 56 38.578125 55.875 
Q 39.703125 55.765625 41.0625 55.515625 
z
" id="DejaVuSans-114"/>
      <path d="M 45.40625 27.984375 
Q 45.40625 37.75 41.375 43.109375 
Q 37.359375 48.484375 30.078125 48.484375 
Q 22.859375 48.484375 18.828125 43.109375 
Q 14.796875 37.75 14.796875 27.984375 
Q 14.796875 18.265625 18.828125 12.890625 
Q 22.859375 7.515625 30.078125 7.515625 
Q 37.359375 7.515625 41.375 12.890625 
Q 45.40625 18.265625 45.40625 27.984375 
z
M 54.390625 6.78125 
Q 54.390625 -7.171875 48.1875 -13.984375 
Q 42 -20.796875 29.203125 -20.796875 
Q 24.46875 -20.796875 20.265625 -20.09375 
Q 16.0625 -19.390625 12.109375 -17.921875 
L 12.109375 -9.1875 
Q 16.0625 -11.328125 19.921875 -12.34375 
Q 23.78125 -13.375 27.78125 -13.375 
Q 36.625 -13.375 41.015625 -8.765625 
Q 45.40625 -4.15625 45.40625 5.171875 
L 45.40625 9.625 
Q 42.625 4.78125 38.28125 2.390625 
Q 33.9375 0 27.875 0 
Q 17.828125 0 11.671875 7.65625 
Q 5.515625 15.328125 5.515625 27.984375 
Q 5.515625 40.671875 11.671875 48.328125 
Q 17.828125 56 27.875 56 
Q 33.9375 56 38.28125 53.609375 
Q 42.625 51.21875 45.40625 46.390625 
L 45.40625 54.6875 
L 54.390625 54.6875 
z
" id="DejaVuSans-103"/>
      <path d="M 54.890625 33.015625 
L 54.890625 0 
L 45.90625 0 
L 45.90625 32.71875 
Q 45.90625 40.484375 42.875 44.328125 
Q 39.84375 48.1875 33.796875 48.1875 
Q 26.515625 48.1875 22.3125 43.546875 
Q 18.109375 38.921875 18.109375 30.90625 
L 18.109375 0 
L 9.078125 0 
L 9.078125 54.6875 
L 18.109375 54.6875 
L 18.109375 46.1875 
Q 21.34375 51.125 25.703125 53.5625 
Q 30.078125 56 35.796875 56 
Q 45.21875 56 50.046875 50.171875 
Q 54.890625 44.34375 54.890625 33.015625 
z
" id="DejaVuSans-110"/>
      <path d="M 48.78125 52.59375 
L 48.78125 44.1875 
Q 44.96875 46.296875 41.140625 47.34375 
Q 37.3125 48.390625 33.40625 48.390625 
Q 24.65625 48.390625 19.8125 42.84375 
Q 14.984375 37.3125 14.984375 27.296875 
Q 14.984375 17.28125 19.8125 11.734375 
Q 24.65625 6.203125 33.40625 6.203125 
Q 37.3125 6.203125 41.140625 7.25 
Q 44.96875 8.296875 48.78125 10.40625 
L 48.78125 2.09375 
Q 45.015625 0.34375 40.984375 -0.53125 
Q 36.96875 -1.421875 32.421875 -1.421875 
Q 20.0625 -1.421875 12.78125 6.34375 
Q 5.515625 14.109375 5.515625 27.296875 
Q 5.515625 40.671875 12.859375 48.328125 
Q 20.21875 56 33.015625 56 
Q 37.15625 56 41.109375 55.140625 
Q 45.0625 54.296875 48.78125 52.59375 
z
" id="DejaVuSans-99"/>
      <path d="M 4.203125 54.6875 
L 13.1875 54.6875 
L 24.421875 12.015625 
L 35.59375 54.6875 
L 46.1875 54.6875 
L 57.421875 12.015625 
L 68.609375 54.6875 
L 77.59375 54.6875 
L 63.28125 0 
L 52.6875 0 
L 40.921875 44.828125 
L 29.109375 0 
L 18.5 0 
z
" id="DejaVuSans-119"/>
      <path d="M 18.3125 70.21875 
L 18.3125 54.6875 
L 36.8125 54.6875 
L 36.8125 47.703125 
L 18.3125 47.703125 
L 18.3125 18.015625 
Q 18.3125 11.328125 20.140625 9.421875 
Q 21.96875 7.515625 27.59375 7.515625 
L 36.8125 7.515625 
L 36.8125 0 
L 27.59375 0 
Q 17.1875 0 13.234375 3.875 
Q 9.28125 7.765625 9.28125 18.015625 
L 9.28125 47.703125 
L 2.6875 47.703125 
L 2.6875 54.6875 
L 9.28125 54.6875 
L 9.28125 70.21875 
z
" id="DejaVuSans-116"/>
      <path d="M 54.890625 33.015625 
L 54.890625 0 
L 45.90625 0 
L 45.90625 32.71875 
Q 45.90625 40.484375 42.875 44.328125 
Q 39.84375 48.1875 33.796875 48.1875 
Q 26.515625 48.1875 22.3125 43.546875 
Q 18.109375 38.921875 18.109375 30.90625 
L 18.109375 0 
L 9.078125 0 
L 9.078125 75.984375 
L 18.109375 75.984375 
L 18.109375 46.1875 
Q 21.34375 51.125 25.703125 53.5625 
Q 30.078125 56 35.796875 56 
Q 45.21875 56 50.046875 50.171875 
Q 54.890625 44.34375 54.890625 33.015625 
z
" id="DejaVuSans-104"/>
      <path d="M 19.734375 29.5 
Q 14.453125 30.671875 12.15625 33.84375 
Q 10.453125 36.078125 10.453125 39.109375 
Q 10.453125 47.40625 18.359375 52.25 
Q 24.609375 56.0625 34.1875 56.0625 
Q 37.890625 56.0625 41.9375 55.46875 
Q 46 54.890625 50.53125 53.71875 
L 48.96875 45.5625 
Q 44.484375 46.96875 40.71875 47.609375 
Q 36.859375 48.25 33.40625 48.25 
Q 27.59375 48.25 23.78125 46 
Q 19.1875 43.3125 19.1875 39.40625 
Q 19.1875 36.8125 21.578125 35.015625 
Q 24.421875 32.859375 30.078125 32.859375 
L 37.640625 32.859375 
L 36.234375 25.4375 
L 29 25.4375 
Q 22.265625 25.4375 18.3125 22.953125 
Q 12.9375 19.578125 12.9375 14.3125 
Q 12.9375 10.984375 15.828125 8.796875 
Q 19.4375 6.0625 26.8125 6.0625 
Q 31.34375 6.0625 35.6875 6.9375 
Q 40.046875 7.859375 43.84375 9.671875 
L 42.1875 1.3125 
Q 37.546875 -0.046875 33.296875 -0.734375 
Q 29.046875 -1.421875 25.140625 -1.421875 
Q 13.53125 -1.421875 8.0625 3.03125 
Q 3.90625 6.453125 3.90625 12.203125 
Q 3.90625 19.96875 9.375 24.75 
Q 13.421875 28.328125 19.734375 29.5 
z
" id="DejaVuSans-Oblique-949"/>
     </defs>
     <g transform="translate(-279.836667 315.909583)scale(0.2 -0.2)">
      <use transform="translate(0 0.015625)" xlink:href="#DejaVuSans-77"/>
      <use transform="translate(86.279297 0.015625)" xlink:href="#DejaVuSans-97"/>
      <use transform="translate(147.558594 0.015625)" xlink:href="#DejaVuSans-120"/>
      <use transform="translate(206.738281 0.015625)" xlink:href="#DejaVuSans-32"/>
      <use transform="translate(238.525391 0.015625)" xlink:href="#DejaVuSans-74"/>
      <use transform="translate(268.017578 0.015625)" xlink:href="#DejaVuSans-83"/>
      <use transform="translate(331.494141 0.015625)" xlink:href="#DejaVuSans-32"/>
      <use transform="translate(363.28125 0.015625)" xlink:href="#DejaVuSans-68"/>
      <use transform="translate(440.283203 0.015625)" xlink:href="#DejaVuSans-105"/>
      <use transform="translate(468.066406 0.015625)" xlink:href="#DejaVuSans-118"/>
      <use transform="translate(527.246094 0.015625)" xlink:href="#DejaVuSans-101"/>
      <use transform="translate(588.769531 0.015625)" xlink:href="#DejaVuSans-114"/>
      <use transform="translate(629.882812 0.015625)" xlink:href="#DejaVuSans-103"/>
      <use transform="translate(693.359375 0.015625)" xlink:href="#DejaVuSans-101"/>
      <use transform="translate(754.882812 0.015625)" xlink:href="#DejaVuSans-110"/>
      <use transform="translate(818.261719 0.015625)" xlink:href="#DejaVuSans-99"/>
      <use transform="translate(873.242188 0.015625)" xlink:href="#DejaVuSans-101"/>
      <use transform="translate(934.765625 0.015625)" xlink:href="#DejaVuSans-32"/>
      <use transform="translate(966.552734 0.015625)" xlink:href="#DejaVuSans-119"/>
      <use transform="translate(1048.339844 0.015625)" xlink:href="#DejaVuSans-105"/>
      <use transform="translate(1076.123047 0.015625)" xlink:href="#DejaVuSans-116"/>
      <use transform="translate(1115.332031 0.015625)" xlink:href="#DejaVuSans-104"/>
      <use transform="translate(1178.710938 0.015625)" xlink:href="#DejaVuSans-105"/>
      <use transform="translate(1206.494141 0.015625)" xlink:href="#DejaVuSans-110"/>
      <use transform="translate(1269.873047 0.015625)" xlink:href="#DejaVuSans-32"/>
      <use transform="translate(1301.660156 0.015625)" xlink:href="#DejaVuSans-Oblique-949"/>
     </g>
    </g>
   </g>
   <g id="matplotlib.axis_2">
    <g id="ytick_1">
     <g id="line2d_5">
      <defs>
       <path d="M 0 0 
L -3.5 0 
" id="m1fdb2af870" style="stroke:#000000;stroke-width:1.6;"/>
      </defs>
      <g/>
     </g>
     <g id="text_6">
      <!-- 0.0 -->
      <g transform="translate(-320.319583 270.251771)scale(0.2 -0.2)">
       <use xlink:href="#DejaVuSans-48"/>
       <use x="63.623047" xlink:href="#DejaVuSans-46"/>
       <use x="95.410156" xlink:href="#DejaVuSans-48"/>
      </g>
     </g>
    </g>
    <g id="ytick_2">
     <g id="line2d_6">
      <g/>
     </g>
     <g id="text_7">
      <!-- 0.1 -->
      <defs>
       <path d="M 12.40625 8.296875 
L 28.515625 8.296875 
L 28.515625 63.921875 
L 10.984375 60.40625 
L 10.984375 69.390625 
L 28.421875 72.90625 
L 38.28125 72.90625 
L 38.28125 8.296875 
L 54.390625 8.296875 
L 54.390625 0 
L 12.40625 0 
z
" id="DejaVuSans-49"/>
      </defs>
      <g transform="translate(-320.319583 190.598582)scale(0.2 -0.2)">
       <use xlink:href="#DejaVuSans-48"/>
       <use x="63.623047" xlink:href="#DejaVuSans-46"/>
       <use x="95.410156" xlink:href="#DejaVuSans-49"/>
      </g>
     </g>
    </g>
    <g id="ytick_3">
     <g id="line2d_7">
      <g/>
     </g>
     <g id="text_8">
      <!-- 0.2 -->
      <g transform="translate(-320.319583 110.945393)scale(0.2 -0.2)">
       <use xlink:href="#DejaVuSans-48"/>
       <use x="63.623047" xlink:href="#DejaVuSans-46"/>
       <use x="95.410156" xlink:href="#DejaVuSans-50"/>
      </g>
     </g>
    </g>
    <g id="ytick_4">
     <g id="line2d_8">
      <g/>
     </g>
     <g id="text_9">
      <!-- 0.3 -->
      <defs>
       <path d="M 40.578125 39.3125 
Q 47.65625 37.796875 51.625 33 
Q 55.609375 28.21875 55.609375 21.1875 
Q 55.609375 10.40625 48.1875 4.484375 
Q 40.765625 -1.421875 27.09375 -1.421875 
Q 22.515625 -1.421875 17.65625 -0.515625 
Q 12.796875 0.390625 7.625 2.203125 
L 7.625 11.71875 
Q 11.71875 9.328125 16.59375 8.109375 
Q 21.484375 6.890625 26.8125 6.890625 
Q 36.078125 6.890625 40.9375 10.546875 
Q 45.796875 14.203125 45.796875 21.1875 
Q 45.796875 27.640625 41.28125 31.265625 
Q 36.765625 34.90625 28.71875 34.90625 
L 20.21875 34.90625 
L 20.21875 43.015625 
L 29.109375 43.015625 
Q 36.375 43.015625 40.234375 45.921875 
Q 44.09375 48.828125 44.09375 54.296875 
Q 44.09375 59.90625 40.109375 62.90625 
Q 36.140625 65.921875 28.71875 65.921875 
Q 24.65625 65.921875 20.015625 65.03125 
Q 15.375 64.15625 9.8125 62.3125 
L 9.8125 71.09375 
Q 15.4375 72.65625 20.34375 73.4375 
Q 25.25 74.21875 29.59375 74.21875 
Q 40.828125 74.21875 47.359375 69.109375 
Q 53.90625 64.015625 53.90625 55.328125 
Q 53.90625 49.265625 50.4375 45.09375 
Q 46.96875 40.921875 40.578125 39.3125 
z
" id="DejaVuSans-51"/>
      </defs>
      <g transform="translate(-320.319583 31.292204)scale(0.2 -0.2)">
       <use xlink:href="#DejaVuSans-48"/>
       <use x="63.623047" xlink:href="#DejaVuSans-46"/>
       <use x="95.410156" xlink:href="#DejaVuSans-51"/>
      </g>
     </g>
    </g>
   </g>
   <g id="patch_83">
    <path style="fill:none;stroke:#000000;stroke-linecap:square;stroke-linejoin:miter;stroke-width:0.8;"/>
   </g>
   <g id="patch_84">
    <path style="fill:none;stroke:#000000;stroke-linecap:square;stroke-linejoin:miter;stroke-width:0.8;"/>
   </g>
  </g>
  <g id="axes_2">
   <g id="patch_85">
    <path d="M 96.7 262.653333 
L 355.853333 262.653333 
L 355.853333 3.5 
L 96.7 3.5 
z
" style="fill:#ffffff;"/>
   </g>
   <g id="PolyCollection_1">
    <defs>
     <path d="M 246.248181 -300.395886 
L 246.248181 -300.437781 
L 247.329307 -300.442913 
L 248.410433 -300.446504 
L 249.49156 -300.447283 
L 250.572686 -300.444114 
L 251.653812 -300.437652 
L 252.734939 -300.43067 
L 253.816065 -300.426248 
L 254.897191 -300.425701 
L 255.978317 -300.427905 
L 257.059444 -300.430176 
L 258.14057 -300.430147 
L 259.221696 -300.42744 
L 260.302823 -300.423633 
L 261.383949 -300.42074 
L 262.465075 -300.419973 
L 263.546201 -300.421594 
L 264.627328 -300.425015 
L 265.708454 -300.428657 
L 266.78958 -300.430423 
L 267.870706 -300.429173 
L 268.951833 -300.425738 
L 270.032959 -300.422191 
L 271.114085 -300.420317 
L 272.195212 -300.420882 
L 273.276338 -300.423671 
L 274.357464 -300.427437 
L 275.43859 -300.430109 
L 276.519717 -300.430006 
L 277.600843 -300.427283 
L 278.681969 -300.423927 
L 279.763096 -300.422423 
L 280.844222 -300.424781 
L 281.925348 -300.432642 
L 283.006474 -300.447506 
L 284.087601 -300.469868 
L 285.168727 -300.497113 
L 286.249853 -300.522289 
L 287.33098 -300.537179 
L 288.412106 -300.539174 
L 289.493232 -300.535331 
L 290.574358 -300.537915 
L 291.655485 -300.55415 
L 292.736611 -300.579561 
L 293.817737 -300.60217 
L 294.898864 -300.613939 
L 295.97999 -300.616975 
L 297.061116 -300.618091 
L 298.142242 -300.620014 
L 299.223369 -300.620208 
L 300.304495 -300.616739 
L 301.385621 -300.612255 
L 302.466748 -300.612032 
L 303.547874 -300.621569 
L 304.629 -300.6489 
L 305.710126 -300.705902 
L 306.791253 -300.799339 
L 307.872379 -300.916831 
L 308.953505 -301.026456 
L 310.034632 -301.097398 
L 311.115758 -301.124115 
L 312.196884 -301.130032 
L 313.27801 -301.146154 
L 314.359137 -301.184701 
L 315.440263 -301.234346 
L 316.521389 -301.281312 
L 317.602515 -301.329718 
L 318.683642 -301.396013 
L 319.764768 -301.48724 
L 320.845894 -301.592247 
L 321.927021 -301.695431 
L 323.008147 -301.796567 
L 324.089273 -301.917765 
L 325.170399 -302.092862 
L 326.251526 -302.347413 
L 327.332652 -302.682424 
L 328.413778 -303.073862 
L 329.494905 -303.490798 
L 330.576031 -303.92159 
L 331.657157 -304.392896 
L 332.738283 -304.967585 
L 333.81941 -305.711117 
L 334.900536 -306.640862 
L 335.981662 -307.706955 
L 337.062789 -308.8349 
L 338.143915 -309.982664 
L 339.225041 -311.129125 
L 340.306167 -312.195688 
L 341.387294 -313.009253 
L 342.46842 -313.3745 
L 343.549546 -313.183302 
L 344.630673 -312.461801 
L 345.711799 -311.359566 
L 346.792925 -310.127352 
L 347.874051 -309.057647 
L 348.955178 -308.336933 
L 350.036304 -307.876421 
L 351.11743 -307.315196 
L 352.198557 -306.295298 
L 353.279683 -304.795818 
L 353.279683 -296.037849 
L 353.279683 -296.037849 
L 352.198557 -294.538369 
L 351.11743 -293.518471 
L 350.036304 -292.957246 
L 348.955178 -292.496734 
L 347.874051 -291.776019 
L 346.792925 -290.706315 
L 345.711799 -289.474101 
L 344.630673 -288.371866 
L 343.549546 -287.650364 
L 342.46842 -287.459167 
L 341.387294 -287.824414 
L 340.306167 -288.637979 
L 339.225041 -289.704542 
L 338.143915 -290.851003 
L 337.062789 -291.998766 
L 335.981662 -293.126712 
L 334.900536 -294.192805 
L 333.81941 -295.12255 
L 332.738283 -295.866081 
L 331.657157 -296.440771 
L 330.576031 -296.912077 
L 329.494905 -297.342869 
L 328.413778 -297.759804 
L 327.332652 -298.151243 
L 326.251526 -298.486254 
L 325.170399 -298.740805 
L 324.089273 -298.915902 
L 323.008147 -299.037099 
L 321.927021 -299.138236 
L 320.845894 -299.241419 
L 319.764768 -299.346427 
L 318.683642 -299.437654 
L 317.602515 -299.503949 
L 316.521389 -299.552355 
L 315.440263 -299.599321 
L 314.359137 -299.648966 
L 313.27801 -299.687513 
L 312.196884 -299.703634 
L 311.115758 -299.709552 
L 310.034632 -299.736269 
L 308.953505 -299.807211 
L 307.872379 -299.916836 
L 306.791253 -300.034328 
L 305.710126 -300.127765 
L 304.629 -300.184767 
L 303.547874 -300.212097 
L 302.466748 -300.221635 
L 301.385621 -300.221412 
L 300.304495 -300.216928 
L 299.223369 -300.213459 
L 298.142242 -300.213653 
L 297.061116 -300.215576 
L 295.97999 -300.216692 
L 294.898864 -300.219728 
L 293.817737 -300.231497 
L 292.736611 -300.254105 
L 291.655485 -300.279517 
L 290.574358 -300.295751 
L 289.493232 -300.298336 
L 288.412106 -300.294493 
L 287.33098 -300.296488 
L 286.249853 -300.311377 
L 285.168727 -300.336554 
L 284.087601 -300.363799 
L 283.006474 -300.38616 
L 281.925348 -300.401024 
L 280.844222 -300.408885 
L 279.763096 -300.411243 
L 278.681969 -300.40974 
L 277.600843 -300.406383 
L 276.519717 -300.40366 
L 275.43859 -300.403558 
L 274.357464 -300.40623 
L 273.276338 -300.409996 
L 272.195212 -300.412784 
L 271.114085 -300.41335 
L 270.032959 -300.411475 
L 268.951833 -300.407928 
L 267.870706 -300.404494 
L 266.78958 -300.403244 
L 265.708454 -300.40501 
L 264.627328 -300.408651 
L 263.546201 -300.412073 
L 262.465075 -300.413694 
L 261.383949 -300.412926 
L 260.302823 -300.410034 
L 259.221696 -300.406227 
L 258.14057 -300.403519 
L 257.059444 -300.403491 
L 255.978317 -300.405761 
L 254.897191 -300.407966 
L 253.816065 -300.407419 
L 252.734939 -300.402997 
L 251.653812 -300.396015 
L 250.572686 -300.389553 
L 249.49156 -300.386384 
L 248.410433 -300.387162 
L 247.329307 -300.390753 
L 246.248181 -300.395886 
z
" id="me484023acf" style="stroke:#333333;"/>
    </defs>
    <g clip-path="url(#p2db4c41cad)">
     <use style="fill:#484566;stroke:#333333;" x="0" xlink:href="#me484023acf" y="323.353333"/>
    </g>
   </g>
   <g id="PolyCollection_2">
    <defs>
     <path d="M 252.105676 -274.477695 
L 252.105676 -274.525305 
L 253.127818 -274.529026 
L 254.14996 -274.53273 
L 255.172102 -274.53662 
L 256.194244 -274.540646 
L 257.216386 -274.544375 
L 258.238528 -274.547084 
L 259.26067 -274.548071 
L 260.282812 -274.547039 
L 261.304954 -274.544378 
L 262.327097 -274.541179 
L 263.349239 -274.538935 
L 264.371381 -274.539016 
L 265.393523 -274.542125 
L 266.415665 -274.548004 
L 267.437807 -274.555572 
L 268.459949 -274.563469 
L 269.482091 -274.570768 
L 270.504233 -274.5775 
L 271.526375 -274.584725 
L 272.548517 -274.594071 
L 273.570659 -274.606966 
L 274.592801 -274.623878 
L 275.614943 -274.643933 
L 276.637085 -274.665041 
L 277.659227 -274.68451 
L 278.681369 -274.699868 
L 279.703511 -274.709594 
L 280.725653 -274.713568 
L 281.747795 -274.713223 
L 282.769937 -274.711461 
L 283.792079 -274.712297 
L 284.814221 -274.720178 
L 285.836363 -274.739017 
L 286.858505 -274.771245 
L 287.880647 -274.817273 
L 288.902789 -274.87554 
L 289.924931 -274.943022 
L 290.947073 -275.015853 
L 291.969215 -275.089851 
L 292.991357 -275.160929 
L 294.013499 -275.225532 
L 295.035641 -275.281217 
L 296.057783 -275.327386 
L 297.079925 -275.365985 
L 298.102067 -275.401806 
L 299.124209 -275.44189 
L 300.146352 -275.493843 
L 301.168494 -275.563477 
L 302.190636 -275.652858 
L 303.212778 -275.759897 
L 304.23492 -275.879809 
L 305.257062 -276.007533 
L 306.279204 -276.139537 
L 307.301346 -276.273916 
L 308.323488 -276.409141 
L 309.34563 -276.54293 
L 310.367772 -276.67257 
L 311.389914 -276.796675 
L 312.412056 -276.91709 
L 313.434198 -277.039456 
L 314.45634 -277.171862 
L 315.478482 -277.322222 
L 316.500624 -277.49563 
L 317.522766 -277.692869 
L 318.544908 -277.910715 
L 319.56705 -278.143936 
L 320.589192 -278.388137 
L 321.611334 -278.642098 
L 322.633476 -278.908346 
L 323.655618 -279.191519 
L 324.67776 -279.495324 
L 325.699902 -279.81978 
L 326.722044 -280.160377 
L 327.744186 -280.509604 
L 328.766328 -280.859701 
L 329.78847 -281.20468 
L 330.810612 -281.540242 
L 331.832754 -281.861843 
L 332.854896 -282.162385 
L 333.877038 -282.430903 
L 334.89918 -282.652381 
L 335.921322 -282.807987 
L 336.943464 -282.875426 
L 337.965606 -282.830352 
L 338.987749 -282.650121 
L 340.009891 -282.31995 
L 341.032033 -281.839398 
L 342.054175 -281.226059 
L 343.076317 -280.514244 
L 344.098459 -279.748784 
L 345.120601 -278.976249 
L 346.142743 -278.236748 
L 347.164885 -277.558798 
L 348.187027 -276.958114 
L 349.209169 -276.439563 
L 350.231311 -276.000692 
L 351.253453 -275.635259 
L 352.275595 -275.335878 
L 353.297737 -275.095469 
L 353.297737 -273.907531 
L 353.297737 -273.907531 
L 352.275595 -273.667122 
L 351.253453 -273.367741 
L 350.231311 -273.002308 
L 349.209169 -272.563437 
L 348.187027 -272.044886 
L 347.164885 -271.444202 
L 346.142743 -270.766252 
L 345.120601 -270.026751 
L 344.098459 -269.254216 
L 343.076317 -268.488756 
L 342.054175 -267.776941 
L 341.032033 -267.163602 
L 340.009891 -266.68305 
L 338.987749 -266.352879 
L 337.965606 -266.172648 
L 336.943464 -266.127574 
L 335.921322 -266.195013 
L 334.89918 -266.350619 
L 333.877038 -266.572097 
L 332.854896 -266.840615 
L 331.832754 -267.141157 
L 330.810612 -267.462758 
L 329.78847 -267.79832 
L 328.766328 -268.143299 
L 327.744186 -268.493396 
L 326.722044 -268.842623 
L 325.699902 -269.18322 
L 324.67776 -269.507676 
L 323.655618 -269.811481 
L 322.633476 -270.094654 
L 321.611334 -270.360902 
L 320.589192 -270.614863 
L 319.56705 -270.859064 
L 318.544908 -271.092285 
L 317.522766 -271.310131 
L 316.500624 -271.50737 
L 315.478482 -271.680778 
L 314.45634 -271.831138 
L 313.434198 -271.963544 
L 312.412056 -272.08591 
L 311.389914 -272.206325 
L 310.367772 -272.33043 
L 309.34563 -272.46007 
L 308.323488 -272.593859 
L 307.301346 -272.729084 
L 306.279204 -272.863463 
L 305.257062 -272.995467 
L 304.23492 -273.123191 
L 303.212778 -273.243103 
L 302.190636 -273.350142 
L 301.168494 -273.439523 
L 300.146352 -273.509157 
L 299.124209 -273.56111 
L 298.102067 -273.601194 
L 297.079925 -273.637015 
L 296.057783 -273.675614 
L 295.035641 -273.721783 
L 294.013499 -273.777468 
L 292.991357 -273.842071 
L 291.969215 -273.913149 
L 290.947073 -273.987147 
L 289.924931 -274.059978 
L 288.902789 -274.12746 
L 287.880647 -274.185727 
L 286.858505 -274.231755 
L 285.836363 -274.263983 
L 284.814221 -274.282822 
L 283.792079 -274.290703 
L 282.769937 -274.291539 
L 281.747795 -274.289777 
L 280.725653 -274.289432 
L 279.703511 -274.293406 
L 278.681369 -274.303132 
L 277.659227 -274.31849 
L 276.637085 -274.337959 
L 275.614943 -274.359067 
L 274.592801 -274.379122 
L 273.570659 -274.396034 
L 272.548517 -274.408929 
L 271.526375 -274.418275 
L 270.504233 -274.4255 
L 269.482091 -274.432232 
L 268.459949 -274.439531 
L 267.437807 -274.447428 
L 266.415665 -274.454996 
L 265.393523 -274.460875 
L 264.371381 -274.463984 
L 263.349239 -274.464065 
L 262.327097 -274.461821 
L 261.304954 -274.458622 
L 260.282812 -274.455961 
L 259.26067 -274.454929 
L 258.238528 -274.455916 
L 257.216386 -274.458625 
L 256.194244 -274.462354 
L 255.172102 -274.46638 
L 254.14996 -274.47027 
L 253.127818 -274.473974 
L 252.105676 -274.477695 
z
" id="mddec29339e" style="stroke:#333333;"/>
    </defs>
    <g clip-path="url(#p2db4c41cad)">
     <use style="fill:#b75e1a;stroke:#333333;" x="0" xlink:href="#mddec29339e" y="323.353333"/>
    </g>
   </g>
   <g id="PolyCollection_3">
    <defs>
     <path d="M 251.296894 -235.117587 
L 251.296894 -236.139413 
L 252.309288 -236.160246 
L 253.321683 -236.174095 
L 254.334077 -236.18068 
L 255.346472 -236.180101 
L 256.358866 -236.172817 
L 257.371261 -236.1596 
L 258.383655 -236.141458 
L 259.396049 -236.119536 
L 260.408444 -236.095024 
L 261.420838 -236.069052 
L 262.433233 -236.042622 
L 263.445627 -236.016545 
L 264.458022 -235.991426 
L 265.470416 -235.967663 
L 266.482811 -235.945485 
L 267.495205 -235.925001 
L 268.5076 -235.90627 
L 269.519994 -235.889359 
L 270.532389 -235.874408 
L 271.544783 -235.861665 
L 272.557178 -235.851512 
L 273.569572 -235.844459 
L 274.581967 -235.84112 
L 275.594361 -235.842165 
L 276.606756 -235.848258 
L 277.61915 -235.859987 
L 278.631545 -235.877788 
L 279.643939 -235.90188 
L 280.656334 -235.932206 
L 281.668728 -235.968401 
L 282.681123 -236.009779 
L 283.693517 -236.055351 
L 284.705912 -236.103872 
L 285.718306 -236.153916 
L 286.730701 -236.203975 
L 287.743095 -236.252572 
L 288.75549 -236.298382 
L 289.767884 -236.340345 
L 290.780279 -236.377763 
L 291.792673 -236.410368 
L 292.805068 -236.438351 
L 293.817462 -236.462349 
L 294.829857 -236.483397 
L 295.842251 -236.502836 
L 296.854646 -236.522202 
L 297.86704 -236.543097 
L 298.879434 -236.567073 
L 299.891829 -236.595517 
L 300.904223 -236.629582 
L 301.916618 -236.670142 
L 302.929012 -236.717795 
L 303.941407 -236.772888 
L 304.953801 -236.835588 
L 305.966196 -236.905951 
L 306.97859 -236.98401 
L 307.990985 -237.069837 
L 309.003379 -237.163608 
L 310.015774 -237.265622 
L 311.028168 -237.376316 
L 312.040563 -237.496243 
L 313.052957 -237.626045 
L 314.065352 -237.766416 
L 315.077746 -237.918069 
L 316.090141 -238.081718 
L 317.102535 -238.258075 
L 318.11493 -238.44787 
L 319.127324 -238.651896 
L 320.139719 -238.871072 
L 321.152113 -239.106518 
L 322.164508 -239.359637 
L 323.176902 -239.632177 
L 324.189297 -239.926277 
L 325.201691 -240.244457 
L 326.214086 -240.58955 
L 327.22648 -240.964546 
L 328.238875 -241.372344 
L 329.251269 -241.815397 
L 330.263664 -242.295278 
L 331.276058 -242.812167 
L 332.288453 -243.364312 
L 333.300847 -243.947514 
L 334.313242 -244.554693 
L 335.325636 -245.175622 
L 336.33803 -245.79687 
L 337.350425 -246.402018 
L 338.362819 -246.972182 
L 339.375214 -247.486821 
L 340.387608 -247.924817 
L 341.400003 -248.265739 
L 342.412397 -248.491195 
L 343.424792 -248.586167 
L 344.437186 -248.540178 
L 345.449581 -248.348202 
L 346.461975 -248.011195 
L 347.47437 -247.53621 
L 348.486764 -246.936064 
L 349.499159 -246.228587 
L 350.511553 -245.435532 
L 351.523948 -244.581228 
L 351.523948 -226.675772 
L 351.523948 -226.675772 
L 350.511553 -225.821468 
L 349.499159 -225.028413 
L 348.486764 -224.320936 
L 347.47437 -223.72079 
L 346.461975 -223.245805 
L 345.449581 -222.908798 
L 344.437186 -222.716822 
L 343.424792 -222.670833 
L 342.412397 -222.765805 
L 341.400003 -222.991261 
L 340.387608 -223.332183 
L 339.375214 -223.770179 
L 338.362819 -224.284818 
L 337.350425 -224.854982 
L 336.33803 -225.46013 
L 335.325636 -226.081378 
L 334.313242 -226.702307 
L 333.300847 -227.309486 
L 332.288453 -227.892688 
L 331.276058 -228.444833 
L 330.263664 -228.961722 
L 329.251269 -229.441603 
L 328.238875 -229.884656 
L 327.22648 -230.292454 
L 326.214086 -230.66745 
L 325.201691 -231.012543 
L 324.189297 -231.330723 
L 323.176902 -231.624823 
L 322.164508 -231.897363 
L 321.152113 -232.150482 
L 320.139719 -232.385928 
L 319.127324 -232.605104 
L 318.11493 -232.80913 
L 317.102535 -232.998925 
L 316.090141 -233.175282 
L 315.077746 -233.338931 
L 314.065352 -233.490584 
L 313.052957 -233.630955 
L 312.040563 -233.760757 
L 311.028168 -233.880684 
L 310.015774 -233.991378 
L 309.003379 -234.093392 
L 307.990985 -234.187163 
L 306.97859 -234.27299 
L 305.966196 -234.351049 
L 304.953801 -234.421412 
L 303.941407 -234.484112 
L 302.929012 -234.539205 
L 301.916618 -234.586858 
L 300.904223 -234.627418 
L 299.891829 -234.661483 
L 298.879434 -234.689927 
L 297.86704 -234.713903 
L 296.854646 -234.734798 
L 295.842251 -234.754164 
L 294.829857 -234.773603 
L 293.817462 -234.794651 
L 292.805068 -234.818649 
L 291.792673 -234.846632 
L 290.780279 -234.879237 
L 289.767884 -234.916655 
L 288.75549 -234.958618 
L 287.743095 -235.004428 
L 286.730701 -235.053025 
L 285.718306 -235.103084 
L 284.705912 -235.153128 
L 283.693517 -235.201649 
L 282.681123 -235.247221 
L 281.668728 -235.288599 
L 280.656334 -235.324794 
L 279.643939 -235.35512 
L 278.631545 -235.379212 
L 277.61915 -235.397013 
L 276.606756 -235.408742 
L 275.594361 -235.414835 
L 274.581967 -235.41588 
L 273.569572 -235.412541 
L 272.557178 -235.405488 
L 271.544783 -235.395335 
L 270.532389 -235.382592 
L 269.519994 -235.367641 
L 268.5076 -235.35073 
L 267.495205 -235.331999 
L 266.482811 -235.311515 
L 265.470416 -235.289337 
L 264.458022 -235.265574 
L 263.445627 -235.240455 
L 262.433233 -235.214378 
L 261.420838 -235.187948 
L 260.408444 -235.161976 
L 259.396049 -235.137464 
L 258.383655 -235.115542 
L 257.371261 -235.0974 
L 256.358866 -235.084183 
L 255.346472 -235.076899 
L 254.334077 -235.07632 
L 253.321683 -235.082905 
L 252.309288 -235.096754 
L 251.296894 -235.117587 
z
" id="m437f055031" style="stroke:#333333;"/>
    </defs>
    <g clip-path="url(#p2db4c41cad)">
     <use style="fill:#484566;stroke:#333333;" x="0" xlink:href="#m437f055031" y="323.353333"/>
    </g>
   </g>
   <g id="PolyCollection_4">
    <defs>
     <path d="M 232.303327 -209.138385 
L 232.303327 -210.287948 
L 233.480003 -210.303342 
L 234.656678 -210.317518 
L 235.833353 -210.330479 
L 237.010029 -210.342242 
L 238.186704 -210.352843 
L 239.363379 -210.362331 
L 240.540055 -210.370764 
L 241.71673 -210.37821 
L 242.893405 -210.384746 
L 244.070081 -210.390451 
L 245.246756 -210.39541 
L 246.423431 -210.399708 
L 247.600107 -210.403434 
L 248.776782 -210.406677 
L 249.953457 -210.409528 
L 251.130132 -210.412081 
L 252.306808 -210.414434 
L 253.483483 -210.416688 
L 254.660158 -210.418951 
L 255.836834 -210.421335 
L 257.013509 -210.423963 
L 258.190184 -210.426964 
L 259.36686 -210.430475 
L 260.543535 -210.434641 
L 261.72021 -210.439615 
L 262.896886 -210.445553 
L 264.073561 -210.452618 
L 265.250236 -210.460971 
L 266.426912 -210.470775 
L 267.603587 -210.482186 
L 268.780262 -210.495357 
L 269.956937 -210.510428 
L 271.133613 -210.52753 
L 272.310288 -210.546778 
L 273.486963 -210.568273 
L 274.663639 -210.5921 
L 275.840314 -210.618327 
L 277.016989 -210.647005 
L 278.193665 -210.678174 
L 279.37034 -210.711862 
L 280.547015 -210.748086 
L 281.723691 -210.786863 
L 282.900366 -210.828209 
L 284.077041 -210.872145 
L 285.253717 -210.918707 
L 286.430392 -210.967946 
L 287.607067 -211.019939 
L 288.783742 -211.074792 
L 289.960418 -211.132645 
L 291.137093 -211.193681 
L 292.313768 -211.258122 
L 293.490444 -211.326238 
L 294.667119 -211.398344 
L 295.843794 -211.474799 
L 297.02047 -211.556005 
L 298.197145 -211.642402 
L 299.37382 -211.734455 
L 300.550496 -211.83265 
L 301.727171 -211.93748 
L 302.903846 -212.049429 
L 304.080522 -212.168957 
L 305.257197 -212.296478 
L 306.433872 -212.432344 
L 307.610547 -212.576823 
L 308.787223 -212.730075 
L 309.963898 -212.892132 
L 311.140573 -213.062878 
L 312.317249 -213.242029 
L 313.493924 -213.429117 
L 314.670599 -213.623474 
L 315.847275 -213.824226 
L 317.02395 -214.030284 
L 318.200625 -214.240344 
L 319.377301 -214.452896 
L 320.553976 -214.666229 
L 321.730651 -214.878452 
L 322.907327 -215.087515 
L 324.084002 -215.291239 
L 325.260677 -215.487348 
L 326.437353 -215.673509 
L 327.614028 -215.847373 
L 328.790703 -216.00662 
L 329.967378 -216.149005 
L 331.144054 -216.27241 
L 332.320729 -216.374883 
L 333.497404 -216.454687 
L 334.67408 -216.510339 
L 335.850755 -216.540645 
L 337.02743 -216.544732 
L 338.204106 -216.522071 
L 339.380781 -216.472488 
L 340.557456 -216.396179 
L 341.734132 -216.293702 
L 342.910807 -216.165972 
L 344.087482 -216.014241 
L 345.264158 -215.840074 
L 346.440833 -215.645317 
L 347.617508 -215.432058 
L 348.794183 -215.202584 
L 348.794183 -204.223749 
L 348.794183 -204.223749 
L 347.617508 -203.994276 
L 346.440833 -203.781017 
L 345.264158 -203.586259 
L 344.087482 -203.412092 
L 342.910807 -203.260361 
L 341.734132 -203.132631 
L 340.557456 -203.030154 
L 339.380781 -202.953845 
L 338.204106 -202.904263 
L 337.02743 -202.881601 
L 335.850755 -202.885688 
L 334.67408 -202.915995 
L 333.497404 -202.971646 
L 332.320729 -203.05145 
L 331.144054 -203.153923 
L 329.967378 -203.277328 
L 328.790703 -203.419714 
L 327.614028 -203.57896 
L 326.437353 -203.752824 
L 325.260677 -203.938985 
L 324.084002 -204.135094 
L 322.907327 -204.338819 
L 321.730651 -204.547882 
L 320.553976 -204.760105 
L 319.377301 -204.973437 
L 318.200625 -205.185989 
L 317.02395 -205.396049 
L 315.847275 -205.602107 
L 314.670599 -205.802859 
L 313.493924 -205.997216 
L 312.317249 -206.184304 
L 311.140573 -206.363455 
L 309.963898 -206.534202 
L 308.787223 -206.696259 
L 307.610547 -206.84951 
L 306.433872 -206.993989 
L 305.257197 -207.129856 
L 304.080522 -207.257377 
L 302.903846 -207.376904 
L 301.727171 -207.488853 
L 300.550496 -207.593683 
L 299.37382 -207.691879 
L 298.197145 -207.783932 
L 297.02047 -207.870328 
L 295.843794 -207.951535 
L 294.667119 -208.02799 
L 293.490444 -208.100095 
L 292.313768 -208.168211 
L 291.137093 -208.232652 
L 289.960418 -208.293688 
L 288.783742 -208.351542 
L 287.607067 -208.406395 
L 286.430392 -208.458387 
L 285.253717 -208.507626 
L 284.077041 -208.554188 
L 282.900366 -208.598124 
L 281.723691 -208.63947 
L 280.547015 -208.678247 
L 279.37034 -208.714472 
L 278.193665 -208.748159 
L 277.016989 -208.779328 
L 275.840314 -208.808007 
L 274.663639 -208.834233 
L 273.486963 -208.85806 
L 272.310288 -208.879555 
L 271.133613 -208.898803 
L 269.956937 -208.915905 
L 268.780262 -208.930976 
L 267.603587 -208.944147 
L 266.426912 -208.955559 
L 265.250236 -208.965362 
L 264.073561 -208.973716 
L 262.896886 -208.98078 
L 261.72021 -208.986719 
L 260.543535 -208.991692 
L 259.36686 -208.995858 
L 258.190184 -208.999369 
L 257.013509 -209.00237 
L 255.836834 -209.004998 
L 254.660158 -209.007383 
L 253.483483 -209.009645 
L 252.306808 -209.011899 
L 251.130132 -209.014252 
L 249.953457 -209.016805 
L 248.776782 -209.019657 
L 247.600107 -209.022899 
L 246.423431 -209.026625 
L 245.246756 -209.030923 
L 244.070081 -209.035882 
L 242.893405 -209.041587 
L 241.71673 -209.048123 
L 240.540055 -209.05557 
L 239.363379 -209.064003 
L 238.186704 -209.07349 
L 237.010029 -209.084091 
L 235.833353 -209.095855 
L 234.656678 -209.108815 
L 233.480003 -209.122992 
L 232.303327 -209.138385 
z
" id="md6d9405eb7" style="stroke:#333333;"/>
    </defs>
    <g clip-path="url(#p2db4c41cad)">
     <use style="fill:#b75e1a;stroke:#333333;" x="0" xlink:href="#md6d9405eb7" y="323.353333"/>
    </g>
   </g>
   <g id="PolyCollection_5">
    <defs>
     <path d="M 283.65127 -167.85359 
L 283.65127 -173.826744 
L 284.341274 -173.882217 
L 285.031278 -173.933342 
L 285.721282 -173.979943 
L 286.411287 -174.021879 
L 287.101291 -174.059042 
L 287.791295 -174.091362 
L 288.481299 -174.118807 
L 289.171304 -174.141384 
L 289.861308 -174.159143 
L 290.551312 -174.172177 
L 291.241316 -174.18062 
L 291.93132 -174.184654 
L 292.621325 -174.184503 
L 293.311329 -174.180436 
L 294.001333 -174.172765 
L 294.691337 -174.161847 
L 295.381342 -174.14808 
L 296.071346 -174.131904 
L 296.76135 -174.113796 
L 297.451354 -174.094274 
L 298.141358 -174.073887 
L 298.831363 -174.05322 
L 299.521367 -174.032886 
L 300.211371 -174.013524 
L 300.901375 -173.995797 
L 301.591379 -173.980388 
L 302.281384 -173.967994 
L 302.971388 -173.959325 
L 303.661392 -173.955098 
L 304.351396 -173.956033 
L 305.041401 -173.962846 
L 305.731405 -173.97625 
L 306.421409 -173.996944 
L 307.111413 -174.025611 
L 307.801417 -174.062912 
L 308.491422 -174.109481 
L 309.181426 -174.165921 
L 309.87143 -174.232797 
L 310.561434 -174.310632 
L 311.251439 -174.399899 
L 311.941443 -174.501021 
L 312.631447 -174.614362 
L 313.321451 -174.740222 
L 314.011455 -174.878836 
L 314.70146 -175.030366 
L 315.391464 -175.194895 
L 316.081468 -175.37243 
L 316.771472 -175.562892 
L 317.461477 -175.766114 
L 318.151481 -175.981842 
L 318.841485 -176.209727 
L 319.531489 -176.449327 
L 320.221493 -176.700106 
L 320.911498 -176.961431 
L 321.601502 -177.232574 
L 322.291506 -177.512714 
L 322.98151 -177.800935 
L 323.671515 -178.096233 
L 324.361519 -178.397516 
L 325.051523 -178.703611 
L 325.741527 -179.013268 
L 326.431531 -179.325164 
L 327.121536 -179.637914 
L 327.81154 -179.950077 
L 328.501544 -180.260163 
L 329.191548 -180.566646 
L 329.881553 -180.86797 
L 330.571557 -181.162565 
L 331.261561 -181.448853 
L 331.951565 -181.725264 
L 332.641569 -181.990246 
L 333.331574 -182.242277 
L 334.021578 -182.479882 
L 334.711582 -182.701637 
L 335.401586 -182.90619 
L 336.09159 -183.092268 
L 336.781595 -183.25869 
L 337.471599 -183.404377 
L 338.161603 -183.528361 
L 338.851607 -183.629798 
L 339.541612 -183.707972 
L 340.231616 -183.762303 
L 340.92162 -183.792354 
L 341.611624 -183.797833 
L 342.301628 -183.778599 
L 342.991633 -183.734659 
L 343.681637 -183.666173 
L 344.371641 -183.573447 
L 345.061645 -183.456936 
L 345.75165 -183.317234 
L 346.441654 -183.155071 
L 347.131658 -182.971307 
L 347.821662 -182.766921 
L 348.511666 -182.543003 
L 349.201671 -182.300742 
L 349.891675 -182.041418 
L 350.581679 -181.766388 
L 351.271683 -181.477073 
L 351.961688 -181.174947 
L 351.961688 -160.505387 
L 351.961688 -160.505387 
L 351.271683 -160.20326 
L 350.581679 -159.913945 
L 349.891675 -159.638915 
L 349.201671 -159.379592 
L 348.511666 -159.137331 
L 347.821662 -158.913412 
L 347.131658 -158.709026 
L 346.441654 -158.525262 
L 345.75165 -158.3631 
L 345.061645 -158.223397 
L 344.371641 -158.106886 
L 343.681637 -158.01416 
L 342.991633 -157.945674 
L 342.301628 -157.901734 
L 341.611624 -157.8825 
L 340.92162 -157.887979 
L 340.231616 -157.91803 
L 339.541612 -157.972362 
L 338.851607 -158.050535 
L 338.161603 -158.151972 
L 337.471599 -158.275957 
L 336.781595 -158.421643 
L 336.09159 -158.588065 
L 335.401586 -158.774143 
L 334.711582 -158.978696 
L 334.021578 -159.200452 
L 333.331574 -159.438056 
L 332.641569 -159.690088 
L 331.951565 -159.955069 
L 331.261561 -160.23148 
L 330.571557 -160.517768 
L 329.881553 -160.812363 
L 329.191548 -161.113688 
L 328.501544 -161.42017 
L 327.81154 -161.730256 
L 327.121536 -162.042419 
L 326.431531 -162.355169 
L 325.741527 -162.667065 
L 325.051523 -162.976722 
L 324.361519 -163.282817 
L 323.671515 -163.584101 
L 322.98151 -163.879399 
L 322.291506 -164.16762 
L 321.601502 -164.447759 
L 320.911498 -164.718903 
L 320.221493 -164.980228 
L 319.531489 -165.231006 
L 318.841485 -165.470607 
L 318.151481 -165.698491 
L 317.461477 -165.914219 
L 316.771472 -166.117442 
L 316.081468 -166.307903 
L 315.391464 -166.485438 
L 314.70146 -166.649968 
L 314.011455 -166.801497 
L 313.321451 -166.940111 
L 312.631447 -167.065972 
L 311.941443 -167.179312 
L 311.251439 -167.280434 
L 310.561434 -167.369702 
L 309.87143 -167.447536 
L 309.181426 -167.514412 
L 308.491422 -167.570852 
L 307.801417 -167.617422 
L 307.111413 -167.654723 
L 306.421409 -167.683389 
L 305.731405 -167.704083 
L 305.041401 -167.717487 
L 304.351396 -167.724301 
L 303.661392 -167.725235 
L 302.971388 -167.721008 
L 302.281384 -167.712339 
L 301.591379 -167.699946 
L 300.901375 -167.684536 
L 300.211371 -167.666809 
L 299.521367 -167.647447 
L 298.831363 -167.627113 
L 298.141358 -167.606446 
L 297.451354 -167.58606 
L 296.76135 -167.566537 
L 296.071346 -167.54843 
L 295.381342 -167.532253 
L 294.691337 -167.518486 
L 294.001333 -167.507568 
L 293.311329 -167.499897 
L 292.621325 -167.49583 
L 291.93132 -167.495679 
L 291.241316 -167.499713 
L 290.551312 -167.508157 
L 289.861308 -167.52119 
L 289.171304 -167.538949 
L 288.481299 -167.561526 
L 287.791295 -167.588971 
L 287.101291 -167.621291 
L 286.411287 -167.658455 
L 285.721282 -167.700391 
L 285.031278 -167.746992 
L 284.341274 -167.798116 
L 283.65127 -167.85359 
z
" id="m0fcc780262" style="stroke:#333333;"/>
    </defs>
    <g clip-path="url(#p2db4c41cad)">
     <use style="fill:#484566;stroke:#333333;" x="0" xlink:href="#m0fcc780262" y="323.353333"/>
    </g>
   </g>
   <g id="PolyCollection_6">
    <defs>
     <path d="M 195.271811 -143.600937 
L 195.271811 -146.24873 
L 196.793113 -146.257854 
L 198.314414 -146.266556 
L 199.835716 -146.274867 
L 201.357017 -146.28282 
L 202.878319 -146.290451 
L 204.399621 -146.297801 
L 205.920922 -146.304912 
L 207.442224 -146.311829 
L 208.963526 -146.3186 
L 210.484827 -146.325274 
L 212.006129 -146.331904 
L 213.52743 -146.338545 
L 215.048732 -146.345253 
L 216.570034 -146.352087 
L 218.091335 -146.359104 
L 219.612637 -146.366367 
L 221.133938 -146.373937 
L 222.65524 -146.381876 
L 224.176542 -146.390246 
L 225.697843 -146.399111 
L 227.219145 -146.408534 
L 228.740447 -146.418576 
L 230.261748 -146.429299 
L 231.78305 -146.440763 
L 233.304351 -146.453027 
L 234.825653 -146.46615 
L 236.346955 -146.480185 
L 237.868256 -146.495187 
L 239.389558 -146.511205 
L 240.91086 -146.528287 
L 242.432161 -146.546478 
L 243.953463 -146.565818 
L 245.474764 -146.586345 
L 246.996066 -146.608091 
L 248.517368 -146.631086 
L 250.038669 -146.655353 
L 251.559971 -146.680912 
L 253.081273 -146.707777 
L 254.602574 -146.735958 
L 256.123876 -146.765459 
L 257.645177 -146.796278 
L 259.166479 -146.828409 
L 260.687781 -146.861837 
L 262.209082 -146.896545 
L 263.730384 -146.932508 
L 265.251685 -146.969694 
L 266.772987 -147.008069 
L 268.294289 -147.047588 
L 269.81559 -147.088204 
L 271.336892 -147.129862 
L 272.858194 -147.172502 
L 274.379495 -147.216059 
L 275.900797 -147.26046 
L 277.422098 -147.30563 
L 278.9434 -147.351486 
L 280.464702 -147.397942 
L 281.986003 -147.444906 
L 283.507305 -147.492283 
L 285.028607 -147.539971 
L 286.549908 -147.587868 
L 288.07121 -147.635866 
L 289.592511 -147.683855 
L 291.113813 -147.731721 
L 292.635115 -147.779348 
L 294.156416 -147.826618 
L 295.677718 -147.873413 
L 297.199019 -147.919612 
L 298.720321 -147.965094 
L 300.241623 -148.009738 
L 301.762924 -148.053421 
L 303.284226 -148.096025 
L 304.805528 -148.137429 
L 306.326829 -148.177515 
L 307.848131 -148.216167 
L 309.369432 -148.253272 
L 310.890734 -148.28872 
L 312.412036 -148.322403 
L 313.933337 -148.354217 
L 315.454639 -148.384064 
L 316.975941 -148.411847 
L 318.497242 -148.437478 
L 320.018544 -148.460871 
L 321.539845 -148.481948 
L 323.061147 -148.500634 
L 324.582449 -148.516863 
L 326.10375 -148.530574 
L 327.625052 -148.541713 
L 329.146354 -148.550233 
L 330.667655 -148.556094 
L 332.188957 -148.559262 
L 333.710258 -148.559711 
L 335.23156 -148.557424 
L 336.752862 -148.552389 
L 338.274163 -148.544603 
L 339.795465 -148.534069 
L 341.316766 -148.520799 
L 342.838068 -148.504811 
L 344.35937 -148.486131 
L 345.880671 -148.464792 
L 345.880671 -141.384875 
L 345.880671 -141.384875 
L 344.35937 -141.363536 
L 342.838068 -141.344856 
L 341.316766 -141.328868 
L 339.795465 -141.315598 
L 338.274163 -141.305064 
L 336.752862 -141.297278 
L 335.23156 -141.292243 
L 333.710258 -141.289956 
L 332.188957 -141.290405 
L 330.667655 -141.293573 
L 329.146354 -141.299433 
L 327.625052 -141.307953 
L 326.10375 -141.319092 
L 324.582449 -141.332804 
L 323.061147 -141.349033 
L 321.539845 -141.367719 
L 320.018544 -141.388796 
L 318.497242 -141.412189 
L 316.975941 -141.43782 
L 315.454639 -141.465603 
L 313.933337 -141.49545 
L 312.412036 -141.527264 
L 310.890734 -141.560947 
L 309.369432 -141.596394 
L 307.848131 -141.6335 
L 306.326829 -141.672152 
L 304.805528 -141.712238 
L 303.284226 -141.753642 
L 301.762924 -141.796245 
L 300.241623 -141.839929 
L 298.720321 -141.884572 
L 297.199019 -141.930054 
L 295.677718 -141.976253 
L 294.156416 -142.023048 
L 292.635115 -142.070319 
L 291.113813 -142.117946 
L 289.592511 -142.165812 
L 288.07121 -142.2138 
L 286.549908 -142.261798 
L 285.028607 -142.309695 
L 283.507305 -142.357384 
L 281.986003 -142.404761 
L 280.464702 -142.451725 
L 278.9434 -142.498181 
L 277.422098 -142.544037 
L 275.900797 -142.589207 
L 274.379495 -142.633608 
L 272.858194 -142.677165 
L 271.336892 -142.719805 
L 269.81559 -142.761463 
L 268.294289 -142.802079 
L 266.772987 -142.841598 
L 265.251685 -142.879972 
L 263.730384 -142.917159 
L 262.209082 -142.953122 
L 260.687781 -142.98783 
L 259.166479 -143.021258 
L 257.645177 -143.053388 
L 256.123876 -143.084208 
L 254.602574 -143.113709 
L 253.081273 -143.14189 
L 251.559971 -143.168755 
L 250.038669 -143.194314 
L 248.517368 -143.218581 
L 246.996066 -143.241575 
L 245.474764 -143.263322 
L 243.953463 -143.283848 
L 242.432161 -143.303188 
L 240.91086 -143.321379 
L 239.389558 -143.338462 
L 237.868256 -143.35448 
L 236.346955 -143.369481 
L 234.825653 -143.383517 
L 233.304351 -143.396639 
L 231.78305 -143.408904 
L 230.261748 -143.420368 
L 228.740447 -143.431091 
L 227.219145 -143.441133 
L 225.697843 -143.450555 
L 224.176542 -143.459421 
L 222.65524 -143.467791 
L 221.133938 -143.47573 
L 219.612637 -143.4833 
L 218.091335 -143.490562 
L 216.570034 -143.49758 
L 215.048732 -143.504413 
L 213.52743 -143.511121 
L 212.006129 -143.517763 
L 210.484827 -143.524393 
L 208.963526 -143.531067 
L 207.442224 -143.537838 
L 205.920922 -143.544754 
L 204.399621 -143.551865 
L 202.878319 -143.559215 
L 201.357017 -143.566847 
L 199.835716 -143.5748 
L 198.314414 -143.583111 
L 196.793113 -143.591813 
L 195.271811 -143.600937 
z
" id="m9f0482ccd2" style="stroke:#333333;"/>
    </defs>
    <g clip-path="url(#p2db4c41cad)">
     <use style="fill:#b75e1a;stroke:#333333;" x="0" xlink:href="#m9f0482ccd2" y="323.353333"/>
    </g>
   </g>
   <g id="PolyCollection_7">
    <defs>
     <path d="M 324.126139 -97.998838 
L 324.126139 -114.104829 
L 324.41073 -114.186024 
L 324.695322 -114.266088 
L 324.979913 -114.34506 
L 325.264505 -114.422986 
L 325.549096 -114.499914 
L 325.833688 -114.575897 
L 326.118279 -114.650989 
L 326.402871 -114.72525 
L 326.687462 -114.798739 
L 326.972054 -114.871521 
L 327.256645 -114.943659 
L 327.541237 -115.015221 
L 327.825828 -115.086274 
L 328.11042 -115.156886 
L 328.395011 -115.227126 
L 328.679603 -115.297061 
L 328.964194 -115.366761 
L 329.248786 -115.436291 
L 329.533377 -115.505716 
L 329.817969 -115.575101 
L 330.10256 -115.644506 
L 330.387151 -115.713989 
L 330.671743 -115.783606 
L 330.956334 -115.853409 
L 331.240926 -115.923445 
L 331.525517 -115.993756 
L 331.810109 -116.064383 
L 332.0947 -116.135358 
L 332.379292 -116.20671 
L 332.663883 -116.27846 
L 332.948475 -116.350626 
L 333.233066 -116.423216 
L 333.517658 -116.496235 
L 333.802249 -116.56968 
L 334.086841 -116.643539 
L 334.371432 -116.717795 
L 334.656024 -116.792424 
L 334.940615 -116.867394 
L 335.225207 -116.942665 
L 335.509798 -117.01819 
L 335.79439 -117.093914 
L 336.078981 -117.169776 
L 336.363573 -117.245707 
L 336.648164 -117.321629 
L 336.932756 -117.397459 
L 337.217347 -117.473105 
L 337.501938 -117.548471 
L 337.78653 -117.623451 
L 338.071121 -117.697935 
L 338.355713 -117.771806 
L 338.640304 -117.844941 
L 338.924896 -117.917213 
L 339.209487 -117.988488 
L 339.494079 -118.058628 
L 339.77867 -118.127492 
L 340.063262 -118.194932 
L 340.347853 -118.260801 
L 340.632445 -118.324945 
L 340.917036 -118.387209 
L 341.201628 -118.447438 
L 341.486219 -118.505473 
L 341.770811 -118.561154 
L 342.055402 -118.614324 
L 342.339994 -118.664823 
L 342.624585 -118.712491 
L 342.909177 -118.757173 
L 343.193768 -118.798713 
L 343.47836 -118.836958 
L 343.762951 -118.871758 
L 344.047542 -118.902966 
L 344.332134 -118.93044 
L 344.616725 -118.954042 
L 344.901317 -118.973638 
L 345.185908 -118.989101 
L 345.4705 -119.000308 
L 345.755091 -119.007144 
L 346.039683 -119.0095 
L 346.324274 -119.007275 
L 346.608866 -119.000374 
L 346.893457 -118.988711 
L 347.178049 -118.972207 
L 347.46264 -118.950794 
L 347.747232 -118.924411 
L 348.031823 -118.893005 
L 348.316415 -118.856534 
L 348.601006 -118.814965 
L 348.885598 -118.768274 
L 349.170189 -118.716447 
L 349.454781 -118.659479 
L 349.739372 -118.597377 
L 350.023964 -118.530154 
L 350.308555 -118.457837 
L 350.593147 -118.38046 
L 350.877738 -118.298066 
L 351.162329 -118.210711 
L 351.446921 -118.118456 
L 351.731512 -118.021376 
L 352.016104 -117.91955 
L 352.300695 -117.81307 
L 352.300695 -94.290596 
L 352.300695 -94.290596 
L 352.016104 -94.184116 
L 351.731512 -94.082291 
L 351.446921 -93.98521 
L 351.162329 -93.892956 
L 350.877738 -93.805601 
L 350.593147 -93.723207 
L 350.308555 -93.64583 
L 350.023964 -93.573512 
L 349.739372 -93.50629 
L 349.454781 -93.444187 
L 349.170189 -93.38722 
L 348.885598 -93.335393 
L 348.601006 -93.288701 
L 348.316415 -93.247132 
L 348.031823 -93.210662 
L 347.747232 -93.179256 
L 347.46264 -93.152872 
L 347.178049 -93.131459 
L 346.893457 -93.114956 
L 346.608866 -93.103293 
L 346.324274 -93.096392 
L 346.039683 -93.094167 
L 345.755091 -93.096523 
L 345.4705 -93.103359 
L 345.185908 -93.114566 
L 344.901317 -93.130029 
L 344.616725 -93.149625 
L 344.332134 -93.173226 
L 344.047542 -93.2007 
L 343.762951 -93.231909 
L 343.47836 -93.266709 
L 343.193768 -93.304954 
L 342.909177 -93.346493 
L 342.624585 -93.391175 
L 342.339994 -93.438844 
L 342.055402 -93.489342 
L 341.770811 -93.542512 
L 341.486219 -93.598194 
L 341.201628 -93.656229 
L 340.917036 -93.716458 
L 340.632445 -93.778722 
L 340.347853 -93.842866 
L 340.063262 -93.908734 
L 339.77867 -93.976175 
L 339.494079 -94.045038 
L 339.209487 -94.115179 
L 338.924896 -94.186453 
L 338.640304 -94.258725 
L 338.355713 -94.331861 
L 338.071121 -94.405732 
L 337.78653 -94.480216 
L 337.501938 -94.555196 
L 337.217347 -94.630562 
L 336.932756 -94.706208 
L 336.648164 -94.782038 
L 336.363573 -94.85796 
L 336.078981 -94.93389 
L 335.79439 -95.009753 
L 335.509798 -95.085477 
L 335.225207 -95.161002 
L 334.940615 -95.236273 
L 334.656024 -95.311243 
L 334.371432 -95.385872 
L 334.086841 -95.460128 
L 333.802249 -95.533987 
L 333.517658 -95.607431 
L 333.233066 -95.68045 
L 332.948475 -95.753041 
L 332.663883 -95.825206 
L 332.379292 -95.896957 
L 332.0947 -95.968308 
L 331.810109 -96.039283 
L 331.525517 -96.10991 
L 331.240926 -96.180222 
L 330.956334 -96.250258 
L 330.671743 -96.32006 
L 330.387151 -96.389677 
L 330.10256 -96.459161 
L 329.817969 -96.528566 
L 329.533377 -96.59795 
L 329.248786 -96.667376 
L 328.964194 -96.736906 
L 328.679603 -96.806605 
L 328.395011 -96.876541 
L 328.11042 -96.946781 
L 327.825828 -97.017393 
L 327.541237 -97.088446 
L 327.256645 -97.160007 
L 326.972054 -97.232146 
L 326.687462 -97.304927 
L 326.402871 -97.378417 
L 326.118279 -97.452677 
L 325.833688 -97.52777 
L 325.549096 -97.603753 
L 325.264505 -97.680681 
L 324.979913 -97.758607 
L 324.695322 -97.837579 
L 324.41073 -97.917643 
L 324.126139 -97.998838 
z
" id="m3970d05d01" style="stroke:#333333;"/>
    </defs>
    <g clip-path="url(#p2db4c41cad)">
     <use style="fill:#484566;stroke:#333333;" x="0" xlink:href="#m3970d05d01" y="323.353333"/>
    </g>
   </g>
   <g id="patch_86">
    <path clip-path="url(#p2db4c41cad)" d="M 113.976889 35.894167 
L 113.976889 35.894167 
L 113.976889 35.894167 
L 113.976889 35.894167 
z
" style="fill:#484566;stroke:#333333;stroke-linejoin:miter;stroke-width:0.5;"/>
   </g>
   <g id="patch_87">
    <path clip-path="url(#p2db4c41cad)" d="M 113.976889 35.894167 
L 113.976889 35.894167 
L 113.976889 35.894167 
L 113.976889 35.894167 
z
" style="fill:#b75e1a;stroke:#333333;stroke-linejoin:miter;stroke-width:0.5;"/>
   </g>
   <g id="matplotlib.axis_3">
    <g id="xtick_5">
     <g id="line2d_9">
      <g>
       <use style="stroke:#000000;stroke-width:1.6;" x="113.976889" xlink:href="#mc8856e1b57" y="262.653333"/>
      </g>
     </g>
     <g id="text_10">
      <!-- 0.0 -->
      <g transform="translate(98.073764 292.550208)scale(0.2 -0.2)">
       <use xlink:href="#DejaVuSans-48"/>
       <use x="63.623047" xlink:href="#DejaVuSans-46"/>
       <use x="95.410156" xlink:href="#DejaVuSans-48"/>
      </g>
     </g>
    </g>
    <g id="xtick_6">
     <g id="line2d_10">
      <g>
       <use style="stroke:#000000;stroke-width:1.6;" x="183.084444" xlink:href="#mc8856e1b57" y="262.653333"/>
      </g>
     </g>
     <g id="text_11">
      <!-- 0.2 -->
      <g transform="translate(167.181319 292.550208)scale(0.2 -0.2)">
       <use xlink:href="#DejaVuSans-48"/>
       <use x="63.623047" xlink:href="#DejaVuSans-46"/>
       <use x="95.410156" xlink:href="#DejaVuSans-50"/>
      </g>
     </g>
    </g>
    <g id="xtick_7">
     <g id="line2d_11">
      <g>
       <use style="stroke:#000000;stroke-width:1.6;" x="252.192" xlink:href="#mc8856e1b57" y="262.653333"/>
      </g>
     </g>
     <g id="text_12">
      <!-- 0.4 -->
      <g transform="translate(236.288875 292.550208)scale(0.2 -0.2)">
       <use xlink:href="#DejaVuSans-48"/>
       <use x="63.623047" xlink:href="#DejaVuSans-46"/>
       <use x="95.410156" xlink:href="#DejaVuSans-52"/>
      </g>
     </g>
    </g>
    <g id="xtick_8">
     <g id="line2d_12">
      <g>
       <use style="stroke:#000000;stroke-width:1.6;" x="321.299556" xlink:href="#mc8856e1b57" y="262.653333"/>
      </g>
     </g>
     <g id="text_13">
      <!-- 0.6 -->
      <g transform="translate(305.396431 292.550208)scale(0.2 -0.2)">
       <use xlink:href="#DejaVuSans-48"/>
       <use x="63.623047" xlink:href="#DejaVuSans-46"/>
       <use x="95.410156" xlink:href="#DejaVuSans-54"/>
      </g>
     </g>
    </g>
    <g id="text_14">
     <!-- Max JS Divergence within $\epsilon$ -->
     <g transform="translate(90.676667 315.909583)scale(0.2 -0.2)">
      <use transform="translate(0 0.015625)" xlink:href="#DejaVuSans-77"/>
      <use transform="translate(86.279297 0.015625)" xlink:href="#DejaVuSans-97"/>
      <use transform="translate(147.558594 0.015625)" xlink:href="#DejaVuSans-120"/>
      <use transform="translate(206.738281 0.015625)" xlink:href="#DejaVuSans-32"/>
      <use transform="translate(238.525391 0.015625)" xlink:href="#DejaVuSans-74"/>
      <use transform="translate(268.017578 0.015625)" xlink:href="#DejaVuSans-83"/>
      <use transform="translate(331.494141 0.015625)" xlink:href="#DejaVuSans-32"/>
      <use transform="translate(363.28125 0.015625)" xlink:href="#DejaVuSans-68"/>
      <use transform="translate(440.283203 0.015625)" xlink:href="#DejaVuSans-105"/>
      <use transform="translate(468.066406 0.015625)" xlink:href="#DejaVuSans-118"/>
      <use transform="translate(527.246094 0.015625)" xlink:href="#DejaVuSans-101"/>
      <use transform="translate(588.769531 0.015625)" xlink:href="#DejaVuSans-114"/>
      <use transform="translate(629.882812 0.015625)" xlink:href="#DejaVuSans-103"/>
      <use transform="translate(693.359375 0.015625)" xlink:href="#DejaVuSans-101"/>
      <use transform="translate(754.882812 0.015625)" xlink:href="#DejaVuSans-110"/>
      <use transform="translate(818.261719 0.015625)" xlink:href="#DejaVuSans-99"/>
      <use transform="translate(873.242188 0.015625)" xlink:href="#DejaVuSans-101"/>
      <use transform="translate(934.765625 0.015625)" xlink:href="#DejaVuSans-32"/>
      <use transform="translate(966.552734 0.015625)" xlink:href="#DejaVuSans-119"/>
      <use transform="translate(1048.339844 0.015625)" xlink:href="#DejaVuSans-105"/>
      <use transform="translate(1076.123047 0.015625)" xlink:href="#DejaVuSans-116"/>
      <use transform="translate(1115.332031 0.015625)" xlink:href="#DejaVuSans-104"/>
      <use transform="translate(1178.710938 0.015625)" xlink:href="#DejaVuSans-105"/>
      <use transform="translate(1206.494141 0.015625)" xlink:href="#DejaVuSans-110"/>
      <use transform="translate(1269.873047 0.015625)" xlink:href="#DejaVuSans-32"/>
      <use transform="translate(1301.660156 0.015625)" xlink:href="#DejaVuSans-Oblique-949"/>
     </g>
    </g>
   </g>
   <g id="matplotlib.axis_4">
    <g id="ytick_5">
     <g id="line2d_13">
      <g>
       <use style="stroke:#000000;stroke-width:1.6;" x="96.7" xlink:href="#m1fdb2af870" y="35.894167"/>
      </g>
     </g>
     <g id="text_15">
      <!-- [0.00, -->
      <defs>
       <path d="M 8.59375 75.984375 
L 29.296875 75.984375 
L 29.296875 69 
L 17.578125 69 
L 17.578125 -6.203125 
L 29.296875 -6.203125 
L 29.296875 -13.1875 
L 8.59375 -13.1875 
z
" id="DejaVuSans-91"/>
       <path d="M 11.71875 12.40625 
L 22.015625 12.40625 
L 22.015625 4 
L 14.015625 -11.625 
L 7.71875 -11.625 
L 11.71875 4 
z
" id="DejaVuSans-44"/>
      </defs>
      <g transform="translate(23.309375 32.294792)scale(0.2 -0.2)">
       <use xlink:href="#DejaVuSans-91"/>
       <use x="39.013672" xlink:href="#DejaVuSans-48"/>
       <use x="102.636719" xlink:href="#DejaVuSans-46"/>
       <use x="134.423828" xlink:href="#DejaVuSans-48"/>
       <use x="198.046875" xlink:href="#DejaVuSans-48"/>
       <use x="261.669922" xlink:href="#DejaVuSans-44"/>
      </g>
      <!-- 0.25) -->
      <defs>
       <path d="M 10.796875 72.90625 
L 49.515625 72.90625 
L 49.515625 64.59375 
L 19.828125 64.59375 
L 19.828125 46.734375 
Q 21.96875 47.46875 24.109375 47.828125 
Q 26.265625 48.1875 28.421875 48.1875 
Q 40.625 48.1875 47.75 41.5 
Q 54.890625 34.8125 54.890625 23.390625 
Q 54.890625 11.625 47.5625 5.09375 
Q 40.234375 -1.421875 26.90625 -1.421875 
Q 22.3125 -1.421875 17.546875 -0.640625 
Q 12.796875 0.140625 7.71875 1.703125 
L 7.71875 11.625 
Q 12.109375 9.234375 16.796875 8.0625 
Q 21.484375 6.890625 26.703125 6.890625 
Q 35.15625 6.890625 40.078125 11.328125 
Q 45.015625 15.765625 45.015625 23.390625 
Q 45.015625 31 40.078125 35.4375 
Q 35.15625 39.890625 26.703125 39.890625 
Q 22.75 39.890625 18.8125 39.015625 
Q 14.890625 38.140625 10.796875 36.28125 
z
" id="DejaVuSans-53"/>
       <path d="M 8.015625 75.875 
L 15.828125 75.875 
Q 23.140625 64.359375 26.78125 53.3125 
Q 30.421875 42.28125 30.421875 31.390625 
Q 30.421875 20.453125 26.78125 9.375 
Q 23.140625 -1.703125 15.828125 -13.1875 
L 8.015625 -13.1875 
Q 14.5 -2 17.703125 9.0625 
Q 20.90625 20.125 20.90625 31.390625 
Q 20.90625 42.671875 17.703125 53.65625 
Q 14.5 64.65625 8.015625 75.875 
z
" id="DejaVuSans-41"/>
      </defs>
      <g transform="translate(29.665625 54.690417)scale(0.2 -0.2)">
       <use xlink:href="#DejaVuSans-48"/>
       <use x="63.623047" xlink:href="#DejaVuSans-46"/>
       <use x="95.410156" xlink:href="#DejaVuSans-50"/>
       <use x="159.033203" xlink:href="#DejaVuSans-53"/>
       <use x="222.65625" xlink:href="#DejaVuSans-41"/>
      </g>
     </g>
    </g>
    <g id="ytick_6">
     <g id="line2d_14">
      <g>
       <use style="stroke:#000000;stroke-width:1.6;" x="96.7" xlink:href="#m1fdb2af870" y="100.6825"/>
      </g>
     </g>
     <g id="text_16">
      <!-- [0.25, -->
      <g transform="translate(23.309375 97.083125)scale(0.2 -0.2)">
       <use xlink:href="#DejaVuSans-91"/>
       <use x="39.013672" xlink:href="#DejaVuSans-48"/>
       <use x="102.636719" xlink:href="#DejaVuSans-46"/>
       <use x="134.423828" xlink:href="#DejaVuSans-50"/>
       <use x="198.046875" xlink:href="#DejaVuSans-53"/>
       <use x="261.669922" xlink:href="#DejaVuSans-44"/>
      </g>
      <!-- 0.50) -->
      <g transform="translate(29.665625 119.47875)scale(0.2 -0.2)">
       <use xlink:href="#DejaVuSans-48"/>
       <use x="63.623047" xlink:href="#DejaVuSans-46"/>
       <use x="95.410156" xlink:href="#DejaVuSans-53"/>
       <use x="159.033203" xlink:href="#DejaVuSans-48"/>
       <use x="222.65625" xlink:href="#DejaVuSans-41"/>
      </g>
     </g>
    </g>
    <g id="ytick_7">
     <g id="line2d_15">
      <g>
       <use style="stroke:#000000;stroke-width:1.6;" x="96.7" xlink:href="#m1fdb2af870" y="165.470833"/>
      </g>
     </g>
     <g id="text_17">
      <!-- [0.50, -->
      <g transform="translate(23.309375 161.871458)scale(0.2 -0.2)">
       <use xlink:href="#DejaVuSans-91"/>
       <use x="39.013672" xlink:href="#DejaVuSans-48"/>
       <use x="102.636719" xlink:href="#DejaVuSans-46"/>
       <use x="134.423828" xlink:href="#DejaVuSans-53"/>
       <use x="198.046875" xlink:href="#DejaVuSans-48"/>
       <use x="261.669922" xlink:href="#DejaVuSans-44"/>
      </g>
      <!-- 0.75) -->
      <defs>
       <path d="M 8.203125 72.90625 
L 55.078125 72.90625 
L 55.078125 68.703125 
L 28.609375 0 
L 18.3125 0 
L 43.21875 64.59375 
L 8.203125 64.59375 
z
" id="DejaVuSans-55"/>
      </defs>
      <g transform="translate(29.665625 184.267083)scale(0.2 -0.2)">
       <use xlink:href="#DejaVuSans-48"/>
       <use x="63.623047" xlink:href="#DejaVuSans-46"/>
       <use x="95.410156" xlink:href="#DejaVuSans-55"/>
       <use x="159.033203" xlink:href="#DejaVuSans-53"/>
       <use x="222.65625" xlink:href="#DejaVuSans-41"/>
      </g>
     </g>
    </g>
    <g id="ytick_8">
     <g id="line2d_16">
      <g>
       <use style="stroke:#000000;stroke-width:1.6;" x="96.7" xlink:href="#m1fdb2af870" y="230.259167"/>
      </g>
     </g>
     <g id="text_18">
      <!-- [0.75, -->
      <g transform="translate(23.309375 226.659792)scale(0.2 -0.2)">
       <use xlink:href="#DejaVuSans-91"/>
       <use x="39.013672" xlink:href="#DejaVuSans-48"/>
       <use x="102.636719" xlink:href="#DejaVuSans-46"/>
       <use x="134.423828" xlink:href="#DejaVuSans-55"/>
       <use x="198.046875" xlink:href="#DejaVuSans-53"/>
       <use x="261.669922" xlink:href="#DejaVuSans-44"/>
      </g>
      <!-- 1.00) -->
      <g transform="translate(29.665625 249.055417)scale(0.2 -0.2)">
       <use xlink:href="#DejaVuSans-49"/>
       <use x="63.623047" xlink:href="#DejaVuSans-46"/>
       <use x="95.410156" xlink:href="#DejaVuSans-48"/>
       <use x="159.033203" xlink:href="#DejaVuSans-48"/>
       <use x="222.65625" xlink:href="#DejaVuSans-41"/>
      </g>
     </g>
    </g>
    <g id="text_19">
     <!-- Max Attention -->
     <defs>
      <path d="M 34.1875 63.1875 
L 20.796875 26.90625 
L 47.609375 26.90625 
z
M 28.609375 72.90625 
L 39.796875 72.90625 
L 67.578125 0 
L 57.328125 0 
L 50.6875 18.703125 
L 17.828125 18.703125 
L 11.1875 0 
L 0.78125 0 
z
" id="DejaVuSans-65"/>
      <path d="M 30.609375 48.390625 
Q 23.390625 48.390625 19.1875 42.75 
Q 14.984375 37.109375 14.984375 27.296875 
Q 14.984375 17.484375 19.15625 11.84375 
Q 23.34375 6.203125 30.609375 6.203125 
Q 37.796875 6.203125 41.984375 11.859375 
Q 46.1875 17.53125 46.1875 27.296875 
Q 46.1875 37.015625 41.984375 42.703125 
Q 37.796875 48.390625 30.609375 48.390625 
z
M 30.609375 56 
Q 42.328125 56 49.015625 48.375 
Q 55.71875 40.765625 55.71875 27.296875 
Q 55.71875 13.875 49.015625 6.21875 
Q 42.328125 -1.421875 30.609375 -1.421875 
Q 18.84375 -1.421875 12.171875 6.21875 
Q 5.515625 13.875 5.515625 27.296875 
Q 5.515625 40.765625 12.171875 48.375 
Q 18.84375 56 30.609375 56 
z
" id="DejaVuSans-111"/>
     </defs>
     <g transform="translate(15.15 203.254792)rotate(-90)scale(0.2 -0.2)">
      <use xlink:href="#DejaVuSans-77"/>
      <use x="86.279297" xlink:href="#DejaVuSans-97"/>
      <use x="147.558594" xlink:href="#DejaVuSans-120"/>
      <use x="206.738281" xlink:href="#DejaVuSans-32"/>
      <use x="238.525391" xlink:href="#DejaVuSans-65"/>
      <use x="306.917969" xlink:href="#DejaVuSans-116"/>
      <use x="346.126953" xlink:href="#DejaVuSans-116"/>
      <use x="385.335938" xlink:href="#DejaVuSans-101"/>
      <use x="446.859375" xlink:href="#DejaVuSans-110"/>
      <use x="510.238281" xlink:href="#DejaVuSans-116"/>
      <use x="549.447266" xlink:href="#DejaVuSans-105"/>
      <use x="577.230469" xlink:href="#DejaVuSans-111"/>
      <use x="638.412109" xlink:href="#DejaVuSans-110"/>
     </g>
    </g>
   </g>
   <g id="line2d_17">
    <path clip-path="url(#p2db4c41cad)" d="M 335.975982 15.71928 
L 335.975982 30.15372 
" style="fill:none;stroke:#333333;stroke-dasharray:1.5,1.5;stroke-dashoffset:0;"/>
   </g>
   <g id="line2d_18">
    <path clip-path="url(#p2db4c41cad)" d="M 341.609054 10.470005 
L 341.609054 35.402995 
" style="fill:none;stroke:#333333;stroke-dasharray:3,3;stroke-dashoffset:0;"/>
   </g>
   <g id="line2d_19">
    <path clip-path="url(#p2db4c41cad)" d="M 346.042861 12.103195 
L 346.042861 33.769805 
" style="fill:none;stroke:#333333;stroke-dasharray:1.5,1.5;stroke-dashoffset:0;"/>
   </g>
   <g id="line2d_20">
    <path clip-path="url(#p2db4c41cad)" d="M 321.32605 44.752641 
L 321.32605 52.951025 
" style="fill:none;stroke:#333333;stroke-dasharray:1.5,1.5;stroke-dashoffset:0;"/>
   </g>
   <g id="line2d_21">
    <path clip-path="url(#p2db4c41cad)" d="M 331.881921 41.565094 
L 331.881921 56.138573 
" style="fill:none;stroke:#333333;stroke-dasharray:3,3;stroke-dashoffset:0;"/>
   </g>
   <g id="line2d_22">
    <path clip-path="url(#p2db4c41cad)" d="M 338.945304 40.784699 
L 338.945304 56.918968 
" style="fill:none;stroke:#333333;stroke-dasharray:1.5,1.5;stroke-dashoffset:0;"/>
   </g>
   <g id="line2d_23">
    <path clip-path="url(#p2db4c41cad)" d="M 329.74471 81.599806 
L 329.74471 93.849861 
" style="fill:none;stroke:#333333;stroke-dasharray:1.5,1.5;stroke-dashoffset:0;"/>
   </g>
   <g id="line2d_24">
    <path clip-path="url(#p2db4c41cad)" d="M 342.161357 74.990765 
L 342.161357 100.458901 
" style="fill:none;stroke:#333333;stroke-dasharray:3,3;stroke-dashoffset:0;"/>
   </g>
   <g id="line2d_25">
    <path clip-path="url(#p2db4c41cad)" d="M 346.09349 75.465965 
L 346.09349 99.983702 
" style="fill:none;stroke:#333333;stroke-dasharray:1.5,1.5;stroke-dashoffset:0;"/>
   </g>
   <g id="line2d_26">
    <path clip-path="url(#p2db4c41cad)" d="M 319.109509 108.947835 
L 319.109509 118.332499 
" style="fill:none;stroke:#333333;stroke-dasharray:1.5,1.5;stroke-dashoffset:0;"/>
   </g>
   <g id="line2d_27">
    <path clip-path="url(#p2db4c41cad)" d="M 335.232711 106.910966 
L 335.232711 120.369367 
" style="fill:none;stroke:#333333;stroke-dasharray:3,3;stroke-dashoffset:0;"/>
   </g>
   <g id="line2d_28">
    <path clip-path="url(#p2db4c41cad)" d="M 340.898102 107.023984 
L 340.898102 120.256349 
" style="fill:none;stroke:#333333;stroke-dasharray:1.5,1.5;stroke-dashoffset:0;"/>
   </g>
   <g id="line2d_29">
    <path clip-path="url(#p2db4c41cad)" d="M 329.65515 142.585641 
L 329.65515 162.440692 
" style="fill:none;stroke:#333333;stroke-dasharray:1.5,1.5;stroke-dashoffset:0;"/>
   </g>
   <g id="line2d_30">
    <path clip-path="url(#p2db4c41cad)" d="M 339.982914 139.720252 
L 339.982914 165.306082 
" style="fill:none;stroke:#333333;stroke-dasharray:3,3;stroke-dashoffset:0;"/>
   </g>
   <g id="line2d_31">
    <path clip-path="url(#p2db4c41cad)" d="M 341.784014 139.685077 
L 341.784014 165.341257 
" style="fill:none;stroke:#333333;stroke-dasharray:1.5,1.5;stroke-dashoffset:0;"/>
   </g>
   <g id="line2d_32">
    <path clip-path="url(#p2db4c41cad)" d="M 296.465872 175.463669 
L 296.465872 181.393331 
" style="fill:none;stroke:#333333;stroke-dasharray:1.5,1.5;stroke-dashoffset:0;"/>
   </g>
   <g id="line2d_33">
    <path clip-path="url(#p2db4c41cad)" d="M 329.888189 174.839354 
L 329.888189 182.017646 
" style="fill:none;stroke:#333333;stroke-dasharray:3,3;stroke-dashoffset:0;"/>
   </g>
   <g id="line2d_34">
    <path clip-path="url(#p2db4c41cad)" d="M 333.654533 174.829971 
L 333.654533 182.027029 
" style="fill:none;stroke:#333333;stroke-dasharray:1.5,1.5;stroke-dashoffset:0;"/>
   </g>
   <g id="line2d_35">
    <path clip-path="url(#p2db4c41cad)" d="M 334.392964 206.742198 
L 334.392964 227.860802 
" style="fill:none;stroke:#333333;stroke-dasharray:1.5,1.5;stroke-dashoffset:0;"/>
   </g>
   <g id="line2d_36">
    <path clip-path="url(#p2db4c41cad)" d="M 344.429969 204.551679 
L 344.429969 230.051321 
" style="fill:none;stroke:#333333;stroke-dasharray:3,3;stroke-dashoffset:0;"/>
   </g>
   <g id="line2d_37">
    <path clip-path="url(#p2db4c41cad)" d="M 348.250422 204.624846 
L 348.250422 229.978154 
" style="fill:none;stroke:#333333;stroke-dasharray:1.5,1.5;stroke-dashoffset:0;"/>
   </g>
   <g id="line2d_38">
    <path clip-path="url(#p2db4c41cad)" d="M 180.617328 230.259167 
L 180.617328 256.1745 
" style="fill:none;stroke:#333333;stroke-linecap:square;"/>
   </g>
   <g id="patch_88">
    <path d="M 96.7 262.653333 
L 96.7 3.5 
" style="fill:none;stroke:#000000;stroke-linecap:square;stroke-linejoin:miter;stroke-width:0.8;"/>
   </g>
   <g id="patch_89">
    <path d="M 96.7 262.653333 
L 355.853333 262.653333 
" style="fill:none;stroke:#000000;stroke-linecap:square;stroke-linejoin:miter;stroke-width:0.8;"/>
   </g>
  </g>
 </g>
 <defs>
  <clipPath id="p9d59004256">
   <rect height="259.153333" width="259.153333" x="-273.813333" y="3.5"/>
  </clipPath>
  <clipPath id="p2db4c41cad">
   <rect height="259.153333" width="259.153333" x="96.7" y="3.5"/>
  </clipPath>
 </defs>
</svg>
