<?xml version="1.0" encoding="utf-8" standalone="no"?>
<!DOCTYPE svg PUBLIC "-//W3C//DTD SVG 1.1//EN"
  "http://www.w3.org/Graphics/SVG/1.1/DTD/svg11.dtd">
<!-- Created with matplotlib (https://matplotlib.org/) -->
<svg height="314.77pt" version="1.1" viewBox="0 0 358.205703 314.77" width="358.205703pt" xmlns="http://www.w3.org/2000/svg" xmlns:xlink="http://www.w3.org/1999/xlink">
 <defs>
  <style type="text/css">
*{stroke-linecap:butt;stroke-linejoin:round;}
  </style>
 </defs>
 <g id="figure_1">
  <g id="patch_1">
   <path d="M 0 314.77 
L 358.205703 314.77 
L 358.205703 0 
L 0 0 
z
" style="fill:#ffffff;"/>
  </g>
  <g id="axes_1">
   <g id="patch_2">
    <path d="M -265.23 254.07 
L -14.66 254.07 
L -14.66 3.5 
L -265.23 3.5 
z
" style="fill:#ffffff;"/>
   </g>
   <g id="patch_3">
    <path clip-path="url(#p44fb9cd781)" d="M -253.840455 254.07 
L -248.145682 254.07 
L -248.145682 254.07 
L -253.840455 254.07 
z
" style="fill:#7570b3;opacity:0.6;stroke:#000000;stroke-linejoin:miter;stroke-width:0.5;"/>
   </g>
   <g id="patch_4">
    <path clip-path="url(#p44fb9cd781)" d="M -248.145682 254.07 
L -242.450909 254.07 
L -242.450909 254.07 
L -248.145682 254.07 
z
" style="fill:#7570b3;opacity:0.6;stroke:#000000;stroke-linejoin:miter;stroke-width:0.5;"/>
   </g>
   <g id="patch_5">
    <path clip-path="url(#p44fb9cd781)" d="M -242.450909 254.07 
L -236.756136 254.07 
L -236.756136 254.07 
L -242.450909 254.07 
z
" style="fill:#7570b3;opacity:0.6;stroke:#000000;stroke-linejoin:miter;stroke-width:0.5;"/>
   </g>
   <g id="patch_6">
    <path clip-path="url(#p44fb9cd781)" d="M -236.756136 254.07 
L -231.061364 254.07 
L -231.061364 254.07 
L -236.756136 254.07 
z
" style="fill:#7570b3;opacity:0.6;stroke:#000000;stroke-linejoin:miter;stroke-width:0.5;"/>
   </g>
   <g id="patch_7">
    <path clip-path="url(#p44fb9cd781)" d="M -231.061364 254.07 
L -225.366591 254.07 
L -225.366591 254.07 
L -231.061364 254.07 
z
" style="fill:#7570b3;opacity:0.6;stroke:#000000;stroke-linejoin:miter;stroke-width:0.5;"/>
   </g>
   <g id="patch_8">
    <path clip-path="url(#p44fb9cd781)" d="M -225.366591 254.07 
L -219.671818 254.07 
L -219.671818 254.07 
L -225.366591 254.07 
z
" style="fill:#7570b3;opacity:0.6;stroke:#000000;stroke-linejoin:miter;stroke-width:0.5;"/>
   </g>
   <g id="patch_9">
    <path clip-path="url(#p44fb9cd781)" d="M -219.671818 254.07 
L -213.977045 254.07 
L -213.977045 254.07 
L -219.671818 254.07 
z
" style="fill:#7570b3;opacity:0.6;stroke:#000000;stroke-linejoin:miter;stroke-width:0.5;"/>
   </g>
   <g id="patch_10">
    <path clip-path="url(#p44fb9cd781)" d="M -213.977045 254.07 
L -208.282273 254.07 
L -208.282273 254.07 
L -213.977045 254.07 
z
" style="fill:#7570b3;opacity:0.6;stroke:#000000;stroke-linejoin:miter;stroke-width:0.5;"/>
   </g>
   <g id="patch_11">
    <path clip-path="url(#p44fb9cd781)" d="M -208.282273 254.07 
L -202.5875 254.07 
L -202.5875 254.07 
L -208.282273 254.07 
z
" style="fill:#7570b3;opacity:0.6;stroke:#000000;stroke-linejoin:miter;stroke-width:0.5;"/>
   </g>
   <g id="patch_12">
    <path clip-path="url(#p44fb9cd781)" d="M -202.5875 254.07 
L -196.892727 254.07 
L -196.892727 254.07 
L -202.5875 254.07 
z
" style="fill:#7570b3;opacity:0.6;stroke:#000000;stroke-linejoin:miter;stroke-width:0.5;"/>
   </g>
   <g id="patch_13">
    <path clip-path="url(#p44fb9cd781)" d="M -196.892727 254.07 
L -191.197955 254.07 
L -191.197955 254.07 
L -196.892727 254.07 
z
" style="fill:#7570b3;opacity:0.6;stroke:#000000;stroke-linejoin:miter;stroke-width:0.5;"/>
   </g>
   <g id="patch_14">
    <path clip-path="url(#p44fb9cd781)" d="M -191.197955 254.07 
L -185.503182 254.07 
L -185.503182 254.07 
L -191.197955 254.07 
z
" style="fill:#7570b3;opacity:0.6;stroke:#000000;stroke-linejoin:miter;stroke-width:0.5;"/>
   </g>
   <g id="patch_15">
    <path clip-path="url(#p44fb9cd781)" d="M -185.503182 254.07 
L -179.808409 254.07 
L -179.808409 252.928191 
L -185.503182 252.928191 
z
" style="fill:#7570b3;opacity:0.6;stroke:#000000;stroke-linejoin:miter;stroke-width:0.5;"/>
   </g>
   <g id="patch_16">
    <path clip-path="url(#p44fb9cd781)" d="M -179.808409 254.07 
L -174.113636 254.07 
L -174.113636 250.644573 
L -179.808409 250.644573 
z
" style="fill:#7570b3;opacity:0.6;stroke:#000000;stroke-linejoin:miter;stroke-width:0.5;"/>
   </g>
   <g id="patch_17">
    <path clip-path="url(#p44fb9cd781)" d="M -174.113636 254.07 
L -168.418864 254.07 
L -168.418864 248.360955 
L -174.113636 248.360955 
z
" style="fill:#7570b3;opacity:0.6;stroke:#000000;stroke-linejoin:miter;stroke-width:0.5;"/>
   </g>
   <g id="patch_18">
    <path clip-path="url(#p44fb9cd781)" d="M -168.418864 254.07 
L -162.724091 254.07 
L -162.724091 246.648241 
L -168.418864 246.648241 
z
" style="fill:#7570b3;opacity:0.6;stroke:#000000;stroke-linejoin:miter;stroke-width:0.5;"/>
   </g>
   <g id="patch_19">
    <path clip-path="url(#p44fb9cd781)" d="M -162.724091 254.07 
L -157.029318 254.07 
L -157.029318 238.655578 
L -162.724091 238.655578 
z
" style="fill:#7570b3;opacity:0.6;stroke:#000000;stroke-linejoin:miter;stroke-width:0.5;"/>
   </g>
   <g id="patch_20">
    <path clip-path="url(#p44fb9cd781)" d="M -157.029318 254.07 
L -151.334545 254.07 
L -151.334545 240.368291 
L -157.029318 240.368291 
z
" style="fill:#7570b3;opacity:0.6;stroke:#000000;stroke-linejoin:miter;stroke-width:0.5;"/>
   </g>
   <g id="patch_21">
    <path clip-path="url(#p44fb9cd781)" d="M -151.334545 254.07 
L -145.639773 254.07 
L -145.639773 231.804723 
L -151.334545 231.804723 
z
" style="fill:#7570b3;opacity:0.6;stroke:#000000;stroke-linejoin:miter;stroke-width:0.5;"/>
   </g>
   <g id="patch_22">
    <path clip-path="url(#p44fb9cd781)" d="M -145.639773 254.07 
L -139.945 254.07 
L -139.945 216.961205 
L -145.639773 216.961205 
z
" style="fill:#7570b3;opacity:0.6;stroke:#000000;stroke-linejoin:miter;stroke-width:0.5;"/>
   </g>
   <g id="patch_23">
    <path clip-path="url(#p44fb9cd781)" d="M -139.945 254.07 
L -134.250227 254.07 
L -134.250227 208.968542 
L -139.945 208.968542 
z
" style="fill:#7570b3;opacity:0.6;stroke:#000000;stroke-linejoin:miter;stroke-width:0.5;"/>
   </g>
   <g id="patch_24">
    <path clip-path="url(#p44fb9cd781)" d="M -134.250227 254.07 
L -128.555455 254.07 
L -128.555455 191.270501 
L -134.250227 191.270501 
z
" style="fill:#7570b3;opacity:0.6;stroke:#000000;stroke-linejoin:miter;stroke-width:0.5;"/>
   </g>
   <g id="patch_25">
    <path clip-path="url(#p44fb9cd781)" d="M -128.555455 254.07 
L -122.860682 254.07 
L -122.860682 178.139697 
L -128.555455 178.139697 
z
" style="fill:#7570b3;opacity:0.6;stroke:#000000;stroke-linejoin:miter;stroke-width:0.5;"/>
   </g>
   <g id="patch_26">
    <path clip-path="url(#p44fb9cd781)" d="M -122.860682 254.07 
L -117.165909 254.07 
L -117.165909 172.430652 
L -122.860682 172.430652 
z
" style="fill:#7570b3;opacity:0.6;stroke:#000000;stroke-linejoin:miter;stroke-width:0.5;"/>
   </g>
   <g id="patch_27">
    <path clip-path="url(#p44fb9cd781)" d="M -117.165909 254.07 
L -111.471136 254.07 
L -111.471136 154.732611 
L -117.165909 154.732611 
z
" style="fill:#7570b3;opacity:0.6;stroke:#000000;stroke-linejoin:miter;stroke-width:0.5;"/>
   </g>
   <g id="patch_28">
    <path clip-path="url(#p44fb9cd781)" d="M -111.471136 254.07 
L -105.776364 254.07 
L -105.776364 138.747284 
L -111.471136 138.747284 
z
" style="fill:#7570b3;opacity:0.6;stroke:#000000;stroke-linejoin:miter;stroke-width:0.5;"/>
   </g>
   <g id="patch_29">
    <path clip-path="url(#p44fb9cd781)" d="M -105.776364 254.07 
L -100.081591 254.07 
L -100.081591 143.31452 
L -105.776364 143.31452 
z
" style="fill:#7570b3;opacity:0.6;stroke:#000000;stroke-linejoin:miter;stroke-width:0.5;"/>
   </g>
   <g id="patch_30">
    <path clip-path="url(#p44fb9cd781)" d="M -100.081591 254.07 
L -94.386818 254.07 
L -94.386818 149.59447 
L -100.081591 149.59447 
z
" style="fill:#7570b3;opacity:0.6;stroke:#000000;stroke-linejoin:miter;stroke-width:0.5;"/>
   </g>
   <g id="patch_31">
    <path clip-path="url(#p44fb9cd781)" d="M -94.386818 254.07 
L -88.692045 254.07 
L -88.692045 138.17638 
L -94.386818 138.17638 
z
" style="fill:#7570b3;opacity:0.6;stroke:#000000;stroke-linejoin:miter;stroke-width:0.5;"/>
   </g>
   <g id="patch_32">
    <path clip-path="url(#p44fb9cd781)" d="M -88.692045 254.07 
L -82.997273 254.07 
L -82.997273 146.169043 
L -88.692045 146.169043 
z
" style="fill:#7570b3;opacity:0.6;stroke:#000000;stroke-linejoin:miter;stroke-width:0.5;"/>
   </g>
   <g id="patch_33">
    <path clip-path="url(#p44fb9cd781)" d="M -82.997273 254.07 
L -77.3025 254.07 
L -77.3025 162.15437 
L -82.997273 162.15437 
z
" style="fill:#7570b3;opacity:0.6;stroke:#000000;stroke-linejoin:miter;stroke-width:0.5;"/>
   </g>
   <g id="patch_34">
    <path clip-path="url(#p44fb9cd781)" d="M -77.3025 254.07 
L -71.607727 254.07 
L -71.607727 151.878088 
L -77.3025 151.878088 
z
" style="fill:#7570b3;opacity:0.6;stroke:#000000;stroke-linejoin:miter;stroke-width:0.5;"/>
   </g>
   <g id="patch_35">
    <path clip-path="url(#p44fb9cd781)" d="M -71.607727 254.07 
L -65.912955 254.07 
L -65.912955 132.467334 
L -71.607727 132.467334 
z
" style="fill:#7570b3;opacity:0.6;stroke:#000000;stroke-linejoin:miter;stroke-width:0.5;"/>
   </g>
   <g id="patch_36">
    <path clip-path="url(#p44fb9cd781)" d="M -65.912955 254.07 
L -60.218182 254.07 
L -60.218182 91.362208 
L -65.912955 91.362208 
z
" style="fill:#7570b3;opacity:0.6;stroke:#000000;stroke-linejoin:miter;stroke-width:0.5;"/>
   </g>
   <g id="patch_37">
    <path clip-path="url(#p44fb9cd781)" d="M -60.218182 254.07 
L -54.523409 254.07 
L -54.523409 15.431905 
L -60.218182 15.431905 
z
" style="fill:#7570b3;opacity:0.6;stroke:#000000;stroke-linejoin:miter;stroke-width:0.5;"/>
   </g>
   <g id="patch_38">
    <path clip-path="url(#p44fb9cd781)" d="M -54.523409 254.07 
L -48.828636 254.07 
L -48.828636 138.747284 
L -54.523409 138.747284 
z
" style="fill:#7570b3;opacity:0.6;stroke:#000000;stroke-linejoin:miter;stroke-width:0.5;"/>
   </g>
   <g id="patch_39">
    <path clip-path="url(#p44fb9cd781)" d="M -48.828636 254.07 
L -43.133864 254.07 
L -43.133864 244.364623 
L -48.828636 244.364623 
z
" style="fill:#7570b3;opacity:0.6;stroke:#000000;stroke-linejoin:miter;stroke-width:0.5;"/>
   </g>
   <g id="patch_40">
    <path clip-path="url(#p44fb9cd781)" d="M -43.133864 254.07 
L -37.439091 254.07 
L -37.439091 254.07 
L -43.133864 254.07 
z
" style="fill:#7570b3;opacity:0.6;stroke:#000000;stroke-linejoin:miter;stroke-width:0.5;"/>
   </g>
   <g id="patch_41">
    <path clip-path="url(#p44fb9cd781)" d="M -37.439091 254.07 
L -31.744318 254.07 
L -31.744318 254.07 
L -37.439091 254.07 
z
" style="fill:#7570b3;opacity:0.6;stroke:#000000;stroke-linejoin:miter;stroke-width:0.5;"/>
   </g>
   <g id="patch_42">
    <path clip-path="url(#p44fb9cd781)" d="M -31.744318 254.07 
L -26.049545 254.07 
L -26.049545 254.07 
L -31.744318 254.07 
z
" style="fill:#7570b3;opacity:0.6;stroke:#000000;stroke-linejoin:miter;stroke-width:0.5;"/>
   </g>
   <g id="patch_43">
    <path clip-path="url(#p44fb9cd781)" d="M -253.840455 254.07 
L -248.145682 254.07 
L -248.145682 254.07 
L -253.840455 254.07 
z
" style="fill:#d95f02;opacity:0.6;stroke:#000000;stroke-linejoin:miter;stroke-width:0.5;"/>
   </g>
   <g id="patch_44">
    <path clip-path="url(#p44fb9cd781)" d="M -248.145682 254.07 
L -242.450909 254.07 
L -242.450909 254.07 
L -248.145682 254.07 
z
" style="fill:#d95f02;opacity:0.6;stroke:#000000;stroke-linejoin:miter;stroke-width:0.5;"/>
   </g>
   <g id="patch_45">
    <path clip-path="url(#p44fb9cd781)" d="M -242.450909 254.07 
L -236.756136 254.07 
L -236.756136 254.07 
L -242.450909 254.07 
z
" style="fill:#d95f02;opacity:0.6;stroke:#000000;stroke-linejoin:miter;stroke-width:0.5;"/>
   </g>
   <g id="patch_46">
    <path clip-path="url(#p44fb9cd781)" d="M -236.756136 254.07 
L -231.061364 254.07 
L -231.061364 254.07 
L -236.756136 254.07 
z
" style="fill:#d95f02;opacity:0.6;stroke:#000000;stroke-linejoin:miter;stroke-width:0.5;"/>
   </g>
   <g id="patch_47">
    <path clip-path="url(#p44fb9cd781)" d="M -231.061364 254.07 
L -225.366591 254.07 
L -225.366591 254.07 
L -231.061364 254.07 
z
" style="fill:#d95f02;opacity:0.6;stroke:#000000;stroke-linejoin:miter;stroke-width:0.5;"/>
   </g>
   <g id="patch_48">
    <path clip-path="url(#p44fb9cd781)" d="M -225.366591 254.07 
L -219.671818 254.07 
L -219.671818 254.07 
L -225.366591 254.07 
z
" style="fill:#d95f02;opacity:0.6;stroke:#000000;stroke-linejoin:miter;stroke-width:0.5;"/>
   </g>
   <g id="patch_49">
    <path clip-path="url(#p44fb9cd781)" d="M -219.671818 254.07 
L -213.977045 254.07 
L -213.977045 254.07 
L -219.671818 254.07 
z
" style="fill:#d95f02;opacity:0.6;stroke:#000000;stroke-linejoin:miter;stroke-width:0.5;"/>
   </g>
   <g id="patch_50">
    <path clip-path="url(#p44fb9cd781)" d="M -213.977045 254.07 
L -208.282273 254.07 
L -208.282273 254.07 
L -213.977045 254.07 
z
" style="fill:#d95f02;opacity:0.6;stroke:#000000;stroke-linejoin:miter;stroke-width:0.5;"/>
   </g>
   <g id="patch_51">
    <path clip-path="url(#p44fb9cd781)" d="M -208.282273 254.07 
L -202.5875 254.07 
L -202.5875 254.07 
L -208.282273 254.07 
z
" style="fill:#d95f02;opacity:0.6;stroke:#000000;stroke-linejoin:miter;stroke-width:0.5;"/>
   </g>
   <g id="patch_52">
    <path clip-path="url(#p44fb9cd781)" d="M -202.5875 254.07 
L -196.892727 254.07 
L -196.892727 254.07 
L -202.5875 254.07 
z
" style="fill:#d95f02;opacity:0.6;stroke:#000000;stroke-linejoin:miter;stroke-width:0.5;"/>
   </g>
   <g id="patch_53">
    <path clip-path="url(#p44fb9cd781)" d="M -196.892727 254.07 
L -191.197955 254.07 
L -191.197955 254.07 
L -196.892727 254.07 
z
" style="fill:#d95f02;opacity:0.6;stroke:#000000;stroke-linejoin:miter;stroke-width:0.5;"/>
   </g>
   <g id="patch_54">
    <path clip-path="url(#p44fb9cd781)" d="M -191.197955 254.07 
L -185.503182 254.07 
L -185.503182 254.07 
L -191.197955 254.07 
z
" style="fill:#d95f02;opacity:0.6;stroke:#000000;stroke-linejoin:miter;stroke-width:0.5;"/>
   </g>
   <g id="patch_55">
    <path clip-path="url(#p44fb9cd781)" d="M -185.503182 254.07 
L -179.808409 254.07 
L -179.808409 249.686364 
L -185.503182 249.686364 
z
" style="fill:#d95f02;opacity:0.6;stroke:#000000;stroke-linejoin:miter;stroke-width:0.5;"/>
   </g>
   <g id="patch_56">
    <path clip-path="url(#p44fb9cd781)" d="M -179.808409 254.07 
L -174.113636 254.07 
L -174.113636 251.878182 
L -179.808409 251.878182 
z
" style="fill:#d95f02;opacity:0.6;stroke:#000000;stroke-linejoin:miter;stroke-width:0.5;"/>
   </g>
   <g id="patch_57">
    <path clip-path="url(#p44fb9cd781)" d="M -174.113636 254.07 
L -168.418864 254.07 
L -168.418864 247.494547 
L -174.113636 247.494547 
z
" style="fill:#d95f02;opacity:0.6;stroke:#000000;stroke-linejoin:miter;stroke-width:0.5;"/>
   </g>
   <g id="patch_58">
    <path clip-path="url(#p44fb9cd781)" d="M -168.418864 254.07 
L -162.724091 254.07 
L -162.724091 249.686364 
L -168.418864 249.686364 
z
" style="fill:#d95f02;opacity:0.6;stroke:#000000;stroke-linejoin:miter;stroke-width:0.5;"/>
   </g>
   <g id="patch_59">
    <path clip-path="url(#p44fb9cd781)" d="M -162.724091 254.07 
L -157.029318 254.07 
L -157.029318 229.960005 
L -162.724091 229.960005 
z
" style="fill:#d95f02;opacity:0.6;stroke:#000000;stroke-linejoin:miter;stroke-width:0.5;"/>
   </g>
   <g id="patch_60">
    <path clip-path="url(#p44fb9cd781)" d="M -157.029318 254.07 
L -151.334545 254.07 
L -151.334545 219.000916 
L -157.029318 219.000916 
z
" style="fill:#d95f02;opacity:0.6;stroke:#000000;stroke-linejoin:miter;stroke-width:0.5;"/>
   </g>
   <g id="patch_61">
    <path clip-path="url(#p44fb9cd781)" d="M -151.334545 254.07 
L -145.639773 254.07 
L -145.639773 201.466374 
L -151.334545 201.466374 
z
" style="fill:#d95f02;opacity:0.6;stroke:#000000;stroke-linejoin:miter;stroke-width:0.5;"/>
   </g>
   <g id="patch_62">
    <path clip-path="url(#p44fb9cd781)" d="M -145.639773 254.07 
L -139.945 254.07 
L -139.945 181.740014 
L -145.639773 181.740014 
z
" style="fill:#d95f02;opacity:0.6;stroke:#000000;stroke-linejoin:miter;stroke-width:0.5;"/>
   </g>
   <g id="patch_63">
    <path clip-path="url(#p44fb9cd781)" d="M -139.945 254.07 
L -134.250227 254.07 
L -134.250227 170.780925 
L -139.945 170.780925 
z
" style="fill:#d95f02;opacity:0.6;stroke:#000000;stroke-linejoin:miter;stroke-width:0.5;"/>
   </g>
   <g id="patch_64">
    <path clip-path="url(#p44fb9cd781)" d="M -134.250227 254.07 
L -128.555455 254.07 
L -128.555455 120.369117 
L -134.250227 120.369117 
z
" style="fill:#d95f02;opacity:0.6;stroke:#000000;stroke-linejoin:miter;stroke-width:0.5;"/>
   </g>
   <g id="patch_65">
    <path clip-path="url(#p44fb9cd781)" d="M -128.555455 254.07 
L -122.860682 254.07 
L -122.860682 102.834575 
L -128.555455 102.834575 
z
" style="fill:#d95f02;opacity:0.6;stroke:#000000;stroke-linejoin:miter;stroke-width:0.5;"/>
   </g>
   <g id="patch_66">
    <path clip-path="url(#p44fb9cd781)" d="M -122.860682 254.07 
L -117.165909 254.07 
L -117.165909 69.957308 
L -122.860682 69.957308 
z
" style="fill:#d95f02;opacity:0.6;stroke:#000000;stroke-linejoin:miter;stroke-width:0.5;"/>
   </g>
   <g id="patch_67">
    <path clip-path="url(#p44fb9cd781)" d="M -117.165909 254.07 
L -111.471136 254.07 
L -111.471136 69.957308 
L -117.165909 69.957308 
z
" style="fill:#d95f02;opacity:0.6;stroke:#000000;stroke-linejoin:miter;stroke-width:0.5;"/>
   </g>
   <g id="patch_68">
    <path clip-path="url(#p44fb9cd781)" d="M -111.471136 254.07 
L -105.776364 254.07 
L -105.776364 76.532761 
L -111.471136 76.532761 
z
" style="fill:#d95f02;opacity:0.6;stroke:#000000;stroke-linejoin:miter;stroke-width:0.5;"/>
   </g>
   <g id="patch_69">
    <path clip-path="url(#p44fb9cd781)" d="M -105.776364 254.07 
L -100.081591 254.07 
L -100.081591 98.450939 
L -105.776364 98.450939 
z
" style="fill:#d95f02;opacity:0.6;stroke:#000000;stroke-linejoin:miter;stroke-width:0.5;"/>
   </g>
   <g id="patch_70">
    <path clip-path="url(#p44fb9cd781)" d="M -100.081591 254.07 
L -94.386818 254.07 
L -94.386818 94.067304 
L -100.081591 94.067304 
z
" style="fill:#d95f02;opacity:0.6;stroke:#000000;stroke-linejoin:miter;stroke-width:0.5;"/>
   </g>
   <g id="patch_71">
    <path clip-path="url(#p44fb9cd781)" d="M -94.386818 254.07 
L -88.692045 254.07 
L -88.692045 135.711841 
L -94.386818 135.711841 
z
" style="fill:#d95f02;opacity:0.6;stroke:#000000;stroke-linejoin:miter;stroke-width:0.5;"/>
   </g>
   <g id="patch_72">
    <path clip-path="url(#p44fb9cd781)" d="M -88.692045 254.07 
L -82.997273 254.07 
L -82.997273 172.972743 
L -88.692045 172.972743 
z
" style="fill:#d95f02;opacity:0.6;stroke:#000000;stroke-linejoin:miter;stroke-width:0.5;"/>
   </g>
   <g id="patch_73">
    <path clip-path="url(#p44fb9cd781)" d="M -82.997273 254.07 
L -77.3025 254.07 
L -77.3025 197.082738 
L -82.997273 197.082738 
z
" style="fill:#d95f02;opacity:0.6;stroke:#000000;stroke-linejoin:miter;stroke-width:0.5;"/>
   </g>
   <g id="patch_74">
    <path clip-path="url(#p44fb9cd781)" d="M -77.3025 254.07 
L -71.607727 254.07 
L -71.607727 194.89092 
L -77.3025 194.89092 
z
" style="fill:#d95f02;opacity:0.6;stroke:#000000;stroke-linejoin:miter;stroke-width:0.5;"/>
   </g>
   <g id="patch_75">
    <path clip-path="url(#p44fb9cd781)" d="M -71.607727 254.07 
L -65.912955 254.07 
L -65.912955 203.658192 
L -71.607727 203.658192 
z
" style="fill:#d95f02;opacity:0.6;stroke:#000000;stroke-linejoin:miter;stroke-width:0.5;"/>
   </g>
   <g id="patch_76">
    <path clip-path="url(#p44fb9cd781)" d="M -65.912955 254.07 
L -60.218182 254.07 
L -60.218182 229.960005 
L -65.912955 229.960005 
z
" style="fill:#d95f02;opacity:0.6;stroke:#000000;stroke-linejoin:miter;stroke-width:0.5;"/>
   </g>
   <g id="patch_77">
    <path clip-path="url(#p44fb9cd781)" d="M -60.218182 254.07 
L -54.523409 254.07 
L -54.523409 219.000916 
L -60.218182 219.000916 
z
" style="fill:#d95f02;opacity:0.6;stroke:#000000;stroke-linejoin:miter;stroke-width:0.5;"/>
   </g>
   <g id="patch_78">
    <path clip-path="url(#p44fb9cd781)" d="M -54.523409 254.07 
L -48.828636 254.07 
L -48.828636 243.110911 
L -54.523409 243.110911 
z
" style="fill:#d95f02;opacity:0.6;stroke:#000000;stroke-linejoin:miter;stroke-width:0.5;"/>
   </g>
   <g id="patch_79">
    <path clip-path="url(#p44fb9cd781)" d="M -48.828636 254.07 
L -43.133864 254.07 
L -43.133864 254.07 
L -48.828636 254.07 
z
" style="fill:#d95f02;opacity:0.6;stroke:#000000;stroke-linejoin:miter;stroke-width:0.5;"/>
   </g>
   <g id="patch_80">
    <path clip-path="url(#p44fb9cd781)" d="M -43.133864 254.07 
L -37.439091 254.07 
L -37.439091 254.07 
L -43.133864 254.07 
z
" style="fill:#d95f02;opacity:0.6;stroke:#000000;stroke-linejoin:miter;stroke-width:0.5;"/>
   </g>
   <g id="patch_81">
    <path clip-path="url(#p44fb9cd781)" d="M -37.439091 254.07 
L -31.744318 254.07 
L -31.744318 254.07 
L -37.439091 254.07 
z
" style="fill:#d95f02;opacity:0.6;stroke:#000000;stroke-linejoin:miter;stroke-width:0.5;"/>
   </g>
   <g id="patch_82">
    <path clip-path="url(#p44fb9cd781)" d="M -31.744318 254.07 
L -26.049545 254.07 
L -26.049545 254.07 
L -31.744318 254.07 
z
" style="fill:#d95f02;opacity:0.6;stroke:#000000;stroke-linejoin:miter;stroke-width:0.5;"/>
   </g>
   <g id="matplotlib.axis_1">
    <g id="xtick_1">
     <g id="line2d_1">
      <defs>
       <path d="M 0 0 
L 0 3.5 
" id="m25df03144d" style="stroke:#000000;stroke-width:1.6;"/>
      </defs>
      <g/>
     </g>
     <g id="text_1">
      <!-- 0.0 -->
      <defs>
       <path d="M 31.78125 66.40625 
Q 24.171875 66.40625 20.328125 58.90625 
Q 16.5 51.421875 16.5 36.375 
Q 16.5 21.390625 20.328125 13.890625 
Q 24.171875 6.390625 31.78125 6.390625 
Q 39.453125 6.390625 43.28125 13.890625 
Q 47.125 21.390625 47.125 36.375 
Q 47.125 51.421875 43.28125 58.90625 
Q 39.453125 66.40625 31.78125 66.40625 
z
M 31.78125 74.21875 
Q 44.046875 74.21875 50.515625 64.515625 
Q 56.984375 54.828125 56.984375 36.375 
Q 56.984375 17.96875 50.515625 8.265625 
Q 44.046875 -1.421875 31.78125 -1.421875 
Q 19.53125 -1.421875 13.0625 8.265625 
Q 6.59375 17.96875 6.59375 36.375 
Q 6.59375 54.828125 13.0625 64.515625 
Q 19.53125 74.21875 31.78125 74.21875 
z
" id="DejaVuSans-48"/>
       <path d="M 10.6875 12.40625 
L 21 12.40625 
L 21 0 
L 10.6875 0 
z
" id="DejaVuSans-46"/>
      </defs>
      <g transform="translate(-269.74358 283.966875)scale(0.2 -0.2)">
       <use xlink:href="#DejaVuSans-48"/>
       <use x="63.623047" xlink:href="#DejaVuSans-46"/>
       <use x="95.410156" xlink:href="#DejaVuSans-48"/>
      </g>
     </g>
    </g>
    <g id="xtick_2">
     <g id="line2d_2">
      <g/>
     </g>
     <g id="text_2">
      <!-- 0.2 -->
      <defs>
       <path d="M 19.1875 8.296875 
L 53.609375 8.296875 
L 53.609375 0 
L 7.328125 0 
L 7.328125 8.296875 
Q 12.9375 14.109375 22.625 23.890625 
Q 32.328125 33.6875 34.8125 36.53125 
Q 39.546875 41.84375 41.421875 45.53125 
Q 43.3125 49.21875 43.3125 52.78125 
Q 43.3125 58.59375 39.234375 62.25 
Q 35.15625 65.921875 28.609375 65.921875 
Q 23.96875 65.921875 18.8125 64.3125 
Q 13.671875 62.703125 7.8125 59.421875 
L 7.8125 69.390625 
Q 13.765625 71.78125 18.9375 73 
Q 24.125 74.21875 28.421875 74.21875 
Q 39.75 74.21875 46.484375 68.546875 
Q 53.21875 62.890625 53.21875 53.421875 
Q 53.21875 48.921875 51.53125 44.890625 
Q 49.859375 40.875 45.40625 35.40625 
Q 44.1875 33.984375 37.640625 27.21875 
Q 31.109375 20.453125 19.1875 8.296875 
z
" id="DejaVuSans-50"/>
      </defs>
      <g transform="translate(-204.660463 283.966875)scale(0.2 -0.2)">
       <use xlink:href="#DejaVuSans-48"/>
       <use x="63.623047" xlink:href="#DejaVuSans-46"/>
       <use x="95.410156" xlink:href="#DejaVuSans-50"/>
      </g>
     </g>
    </g>
    <g id="xtick_3">
     <g id="line2d_3">
      <g/>
     </g>
     <g id="text_3">
      <!-- 0.4 -->
      <defs>
       <path d="M 37.796875 64.3125 
L 12.890625 25.390625 
L 37.796875 25.390625 
z
M 35.203125 72.90625 
L 47.609375 72.90625 
L 47.609375 25.390625 
L 58.015625 25.390625 
L 58.015625 17.1875 
L 47.609375 17.1875 
L 47.609375 0 
L 37.796875 0 
L 37.796875 17.1875 
L 4.890625 17.1875 
L 4.890625 26.703125 
z
" id="DejaVuSans-52"/>
      </defs>
      <g transform="translate(-139.577346 283.966875)scale(0.2 -0.2)">
       <use xlink:href="#DejaVuSans-48"/>
       <use x="63.623047" xlink:href="#DejaVuSans-46"/>
       <use x="95.410156" xlink:href="#DejaVuSans-52"/>
      </g>
     </g>
    </g>
    <g id="xtick_4">
     <g id="line2d_4">
      <g/>
     </g>
     <g id="text_4">
      <!-- 0.6 -->
      <defs>
       <path d="M 33.015625 40.375 
Q 26.375 40.375 22.484375 35.828125 
Q 18.609375 31.296875 18.609375 23.390625 
Q 18.609375 15.53125 22.484375 10.953125 
Q 26.375 6.390625 33.015625 6.390625 
Q 39.65625 6.390625 43.53125 10.953125 
Q 47.40625 15.53125 47.40625 23.390625 
Q 47.40625 31.296875 43.53125 35.828125 
Q 39.65625 40.375 33.015625 40.375 
z
M 52.59375 71.296875 
L 52.59375 62.3125 
Q 48.875 64.0625 45.09375 64.984375 
Q 41.3125 65.921875 37.59375 65.921875 
Q 27.828125 65.921875 22.671875 59.328125 
Q 17.53125 52.734375 16.796875 39.40625 
Q 19.671875 43.65625 24.015625 45.921875 
Q 28.375 48.1875 33.59375 48.1875 
Q 44.578125 48.1875 50.953125 41.515625 
Q 57.328125 34.859375 57.328125 23.390625 
Q 57.328125 12.15625 50.6875 5.359375 
Q 44.046875 -1.421875 33.015625 -1.421875 
Q 20.359375 -1.421875 13.671875 8.265625 
Q 6.984375 17.96875 6.984375 36.375 
Q 6.984375 53.65625 15.1875 63.9375 
Q 23.390625 74.21875 37.203125 74.21875 
Q 40.921875 74.21875 44.703125 73.484375 
Q 48.484375 72.75 52.59375 71.296875 
z
" id="DejaVuSans-54"/>
      </defs>
      <g transform="translate(-74.494229 283.966875)scale(0.2 -0.2)">
       <use xlink:href="#DejaVuSans-48"/>
       <use x="63.623047" xlink:href="#DejaVuSans-46"/>
       <use x="95.410156" xlink:href="#DejaVuSans-54"/>
      </g>
     </g>
    </g>
    <g id="text_5">
     <!--   -->
     <defs>
      <path id="DejaVuSans-32"/>
     </defs>
     <g transform="translate(-143.123125 307.323125)scale(0.2 -0.2)">
      <use xlink:href="#DejaVuSans-32"/>
     </g>
    </g>
   </g>
   <g id="matplotlib.axis_2">
    <g id="ytick_1">
     <g id="line2d_5">
      <defs>
       <path d="M 0 0 
L -3.5 0 
" id="m534888919b" style="stroke:#000000;stroke-width:1.6;"/>
      </defs>
      <g/>
     </g>
     <g id="text_6">
      <!-- 0.000 -->
      <g transform="translate(-337.18625 261.668438)scale(0.2 -0.2)">
       <use xlink:href="#DejaVuSans-48"/>
       <use x="63.623047" xlink:href="#DejaVuSans-46"/>
       <use x="95.410156" xlink:href="#DejaVuSans-48"/>
       <use x="159.033203" xlink:href="#DejaVuSans-48"/>
       <use x="222.65625" xlink:href="#DejaVuSans-48"/>
      </g>
     </g>
    </g>
    <g id="ytick_2">
     <g id="line2d_6">
      <g/>
     </g>
     <g id="text_7">
      <!-- 0.025 -->
      <defs>
       <path d="M 10.796875 72.90625 
L 49.515625 72.90625 
L 49.515625 64.59375 
L 19.828125 64.59375 
L 19.828125 46.734375 
Q 21.96875 47.46875 24.109375 47.828125 
Q 26.265625 48.1875 28.421875 48.1875 
Q 40.625 48.1875 47.75 41.5 
Q 54.890625 34.8125 54.890625 23.390625 
Q 54.890625 11.625 47.5625 5.09375 
Q 40.234375 -1.421875 26.90625 -1.421875 
Q 22.3125 -1.421875 17.546875 -0.640625 
Q 12.796875 0.140625 7.71875 1.703125 
L 7.71875 11.625 
Q 12.109375 9.234375 16.796875 8.0625 
Q 21.484375 6.890625 26.703125 6.890625 
Q 35.15625 6.890625 40.078125 11.328125 
Q 45.015625 15.765625 45.015625 23.390625 
Q 45.015625 31 40.078125 35.4375 
Q 35.15625 39.890625 26.703125 39.890625 
Q 22.75 39.890625 18.8125 39.015625 
Q 14.890625 38.140625 10.796875 36.28125 
z
" id="DejaVuSans-53"/>
      </defs>
      <g transform="translate(-337.18625 214.982719)scale(0.2 -0.2)">
       <use xlink:href="#DejaVuSans-48"/>
       <use x="63.623047" xlink:href="#DejaVuSans-46"/>
       <use x="95.410156" xlink:href="#DejaVuSans-48"/>
       <use x="159.033203" xlink:href="#DejaVuSans-50"/>
       <use x="222.65625" xlink:href="#DejaVuSans-53"/>
      </g>
     </g>
    </g>
    <g id="ytick_3">
     <g id="line2d_7">
      <g/>
     </g>
     <g id="text_8">
      <!-- 0.050 -->
      <g transform="translate(-337.18625 168.297001)scale(0.2 -0.2)">
       <use xlink:href="#DejaVuSans-48"/>
       <use x="63.623047" xlink:href="#DejaVuSans-46"/>
       <use x="95.410156" xlink:href="#DejaVuSans-48"/>
       <use x="159.033203" xlink:href="#DejaVuSans-53"/>
       <use x="222.65625" xlink:href="#DejaVuSans-48"/>
      </g>
     </g>
    </g>
    <g id="ytick_4">
     <g id="line2d_8">
      <g/>
     </g>
     <g id="text_9">
      <!-- 0.075 -->
      <defs>
       <path d="M 8.203125 72.90625 
L 55.078125 72.90625 
L 55.078125 68.703125 
L 28.609375 0 
L 18.3125 0 
L 43.21875 64.59375 
L 8.203125 64.59375 
z
" id="DejaVuSans-55"/>
      </defs>
      <g transform="translate(-337.18625 121.611283)scale(0.2 -0.2)">
       <use xlink:href="#DejaVuSans-48"/>
       <use x="63.623047" xlink:href="#DejaVuSans-46"/>
       <use x="95.410156" xlink:href="#DejaVuSans-48"/>
       <use x="159.033203" xlink:href="#DejaVuSans-55"/>
       <use x="222.65625" xlink:href="#DejaVuSans-53"/>
      </g>
     </g>
    </g>
    <g id="ytick_5">
     <g id="line2d_9">
      <g/>
     </g>
     <g id="text_10">
      <!-- 0.100 -->
      <defs>
       <path d="M 12.40625 8.296875 
L 28.515625 8.296875 
L 28.515625 63.921875 
L 10.984375 60.40625 
L 10.984375 69.390625 
L 28.421875 72.90625 
L 38.28125 72.90625 
L 38.28125 8.296875 
L 54.390625 8.296875 
L 54.390625 0 
L 12.40625 0 
z
" id="DejaVuSans-49"/>
      </defs>
      <g transform="translate(-337.18625 74.925564)scale(0.2 -0.2)">
       <use xlink:href="#DejaVuSans-48"/>
       <use x="63.623047" xlink:href="#DejaVuSans-46"/>
       <use x="95.410156" xlink:href="#DejaVuSans-49"/>
       <use x="159.033203" xlink:href="#DejaVuSans-48"/>
       <use x="222.65625" xlink:href="#DejaVuSans-48"/>
      </g>
     </g>
    </g>
    <g id="ytick_6">
     <g id="line2d_10">
      <g/>
     </g>
     <g id="text_11">
      <!-- 0.125 -->
      <g transform="translate(-337.18625 28.239846)scale(0.2 -0.2)">
       <use xlink:href="#DejaVuSans-48"/>
       <use x="63.623047" xlink:href="#DejaVuSans-46"/>
       <use x="95.410156" xlink:href="#DejaVuSans-49"/>
       <use x="159.033203" xlink:href="#DejaVuSans-50"/>
       <use x="222.65625" xlink:href="#DejaVuSans-53"/>
      </g>
     </g>
    </g>
    <g id="text_12">
     <!--   -->
     <g transform="translate(-344.8465 131.58175)rotate(-90)scale(0.176 -0.176)">
      <use xlink:href="#DejaVuSans-32"/>
     </g>
    </g>
   </g>
   <g id="patch_83">
    <path style="fill:none;stroke:#000000;stroke-linecap:square;stroke-linejoin:miter;stroke-width:0.8;"/>
   </g>
   <g id="patch_84">
    <path style="fill:none;stroke:#000000;stroke-linecap:square;stroke-linejoin:miter;stroke-width:0.8;"/>
   </g>
  </g>
  <g id="axes_2">
   <g id="patch_85">
    <path d="M 96.7 254.07 
L 347.27 254.07 
L 347.27 3.5 
L 96.7 3.5 
z
" style="fill:#ffffff;"/>
   </g>
   <g id="PolyCollection_1">
    <defs>
     <path d="M 187.579537 -292.338445 
L 187.579537 -292.616055 
L 188.985409 -292.6489 
L 190.391281 -292.68349 
L 191.797153 -292.718916 
L 193.203025 -292.75461 
L 194.608897 -292.790533 
L 196.014769 -292.827263 
L 197.420641 -292.865918 
L 198.826513 -292.907917 
L 200.232385 -292.954603 
L 201.638257 -293.00682 
L 203.04413 -293.064572 
L 204.450002 -293.126904 
L 205.855874 -293.192088 
L 207.261746 -293.258129 
L 208.667618 -293.323467 
L 210.07349 -293.387699 
L 211.479362 -293.452057 
L 212.885234 -293.51947 
L 214.291106 -293.594121 
L 215.696978 -293.680584 
L 217.10285 -293.782766 
L 218.508722 -293.902961 
L 219.914595 -294.041317 
L 221.320467 -294.195907 
L 222.726339 -294.363416 
L 224.132211 -294.54025 
L 225.538083 -294.723685 
L 226.943955 -294.912649 
L 228.349827 -295.107805 
L 229.755699 -295.310886 
L 231.161571 -295.523505 
L 232.567443 -295.745936 
L 233.973315 -295.976358 
L 235.379187 -296.210888 
L 236.785059 -296.444407 
L 238.190932 -296.671858 
L 239.596804 -296.889566 
L 241.002676 -297.096167 
L 242.408548 -297.292917 
L 243.81442 -297.483365 
L 245.220292 -297.672499 
L 246.626164 -297.865568 
L 248.032036 -298.066808 
L 249.437908 -298.278339 
L 250.84378 -298.499498 
L 252.249652 -298.726784 
L 253.655524 -298.954454 
L 255.061397 -299.175579 
L 256.467269 -299.383229 
L 257.873141 -299.571468 
L 259.279013 -299.735964 
L 260.684885 -299.874203 
L 262.090757 -299.985448 
L 263.496629 -300.070631 
L 264.902501 -300.132226 
L 266.308373 -300.174089 
L 267.714245 -300.20112 
L 269.120117 -300.218664 
L 270.525989 -300.231658 
L 271.931861 -300.243683 
L 273.337734 -300.256178 
L 274.743606 -300.268075 
L 276.149478 -300.276011 
L 277.55535 -300.275084 
L 278.961222 -300.260005 
L 280.367094 -300.226383 
L 281.772966 -300.171895 
L 283.178838 -300.097145 
L 284.58471 -300.006076 
L 285.990582 -299.905846 
L 287.396454 -299.806171 
L 288.802326 -299.718222 
L 290.208198 -299.653333 
L 291.614071 -299.621851 
L 293.019943 -299.632477 
L 294.425815 -299.692257 
L 295.831687 -299.807184 
L 297.237559 -299.983038 
L 298.643431 -300.22598 
L 300.049303 -300.542362 
L 301.455175 -300.937362 
L 302.861047 -301.412345 
L 304.266919 -301.961243 
L 305.672791 -302.566692 
L 307.078663 -303.197053 
L 308.484536 -303.805601 
L 309.890408 -304.33293 
L 311.29628 -304.712981 
L 312.702152 -304.882066 
L 314.108024 -304.789296 
L 315.513896 -304.406124 
L 316.919768 -303.732696 
L 318.32564 -302.79939 
L 319.731512 -301.663054 
L 321.137384 -300.398809 
L 322.543256 -299.089209 
L 323.949128 -297.813078 
L 325.355 -296.636136 
L 326.760873 -295.604894 
L 326.760873 -289.349606 
L 326.760873 -289.349606 
L 325.355 -288.318364 
L 323.949128 -287.141422 
L 322.543256 -285.865291 
L 321.137384 -284.555691 
L 319.731512 -283.291446 
L 318.32564 -282.15511 
L 316.919768 -281.221804 
L 315.513896 -280.548376 
L 314.108024 -280.165204 
L 312.702152 -280.072434 
L 311.29628 -280.241519 
L 309.890408 -280.62157 
L 308.484536 -281.148899 
L 307.078663 -281.757447 
L 305.672791 -282.387808 
L 304.266919 -282.993257 
L 302.861047 -283.542155 
L 301.455175 -284.017138 
L 300.049303 -284.412138 
L 298.643431 -284.72852 
L 297.237559 -284.971462 
L 295.831687 -285.147316 
L 294.425815 -285.262243 
L 293.019943 -285.322023 
L 291.614071 -285.332649 
L 290.208198 -285.301167 
L 288.802326 -285.236278 
L 287.396454 -285.148329 
L 285.990582 -285.048654 
L 284.58471 -284.948424 
L 283.178838 -284.857355 
L 281.772966 -284.782605 
L 280.367094 -284.728117 
L 278.961222 -284.694495 
L 277.55535 -284.679416 
L 276.149478 -284.678489 
L 274.743606 -284.686425 
L 273.337734 -284.698322 
L 271.931861 -284.710817 
L 270.525989 -284.722842 
L 269.120117 -284.735836 
L 267.714245 -284.75338 
L 266.308373 -284.780411 
L 264.902501 -284.822274 
L 263.496629 -284.883869 
L 262.090757 -284.969052 
L 260.684885 -285.080297 
L 259.279013 -285.218536 
L 257.873141 -285.383032 
L 256.467269 -285.571271 
L 255.061397 -285.778921 
L 253.655524 -286.000046 
L 252.249652 -286.227716 
L 250.84378 -286.455002 
L 249.437908 -286.676161 
L 248.032036 -286.887692 
L 246.626164 -287.088932 
L 245.220292 -287.282001 
L 243.81442 -287.471135 
L 242.408548 -287.661583 
L 241.002676 -287.858333 
L 239.596804 -288.064934 
L 238.190932 -288.282642 
L 236.785059 -288.510093 
L 235.379187 -288.743612 
L 233.973315 -288.978142 
L 232.567443 -289.208564 
L 231.161571 -289.430995 
L 229.755699 -289.643614 
L 228.349827 -289.846695 
L 226.943955 -290.041851 
L 225.538083 -290.230815 
L 224.132211 -290.41425 
L 222.726339 -290.591084 
L 221.320467 -290.758593 
L 219.914595 -290.913183 
L 218.508722 -291.051539 
L 217.10285 -291.171734 
L 215.696978 -291.273916 
L 214.291106 -291.360379 
L 212.885234 -291.43503 
L 211.479362 -291.502443 
L 210.07349 -291.566801 
L 208.667618 -291.631033 
L 207.261746 -291.696371 
L 205.855874 -291.762412 
L 204.450002 -291.827596 
L 203.04413 -291.889928 
L 201.638257 -291.94768 
L 200.232385 -291.999897 
L 198.826513 -292.046583 
L 197.420641 -292.088582 
L 196.014769 -292.127237 
L 194.608897 -292.163967 
L 193.203025 -292.19989 
L 191.797153 -292.235584 
L 190.391281 -292.27101 
L 188.985409 -292.3056 
L 187.579537 -292.338445 
z
" id="m6691e1c415" style="stroke:#424242;"/>
    </defs>
    <g clip-path="url(#p6c9cc0aefe)">
     <use style="fill:#7c78ab;stroke:#424242;" x="0" xlink:href="#m6691e1c415" y="314.77"/>
    </g>
   </g>
   <g id="PolyCollection_2">
    <defs>
     <path d="M 187.515143 -267.217426 
L 187.515143 -267.623074 
L 188.879002 -267.650696 
L 190.242862 -267.678187 
L 191.606721 -267.705859 
L 192.97058 -267.734448 
L 194.334439 -267.76519 
L 195.698298 -267.799923 
L 197.062158 -267.841186 
L 198.426017 -267.892232 
L 199.789876 -267.956863 
L 201.153735 -268.039035 
L 202.517594 -268.14226 
L 203.881454 -268.268896 
L 205.245313 -268.419535 
L 206.609172 -268.592667 
L 207.973031 -268.784799 
L 209.33689 -268.991048 
L 210.70075 -269.206106 
L 212.064609 -269.425348 
L 213.428468 -269.645793 
L 214.792327 -269.86665 
L 216.156186 -270.089336 
L 217.520046 -270.316967 
L 218.883905 -270.553511 
L 220.247764 -270.80287 
L 221.611623 -271.068169 
L 222.975482 -271.351443 
L 224.339342 -271.653781 
L 225.703201 -271.975797 
L 227.06706 -272.318214 
L 228.430919 -272.682267 
L 229.794779 -273.069713 
L 231.158638 -273.482391 
L 232.522497 -273.921419 
L 233.886356 -274.386312 
L 235.250215 -274.874295 
L 236.614075 -275.380053 
L 237.977934 -275.895975 
L 239.341793 -276.412798 
L 240.705652 -276.920433 
L 242.069511 -277.408788 
L 243.433371 -277.868438 
L 244.79723 -278.291136 
L 246.161089 -278.670206 
L 247.524948 -279.000845 
L 248.888807 -279.280308 
L 250.252667 -279.507933 
L 251.616526 -279.684926 
L 252.980385 -279.813925 
L 254.344244 -279.898423 
L 255.708103 -279.942183 
L 257.071963 -279.94875 
L 258.435822 -279.921129 
L 259.799681 -279.861592 
L 261.16354 -279.771575 
L 262.527399 -279.651619 
L 263.891259 -279.501376 
L 265.255118 -279.319735 
L 266.618977 -279.105126 
L 267.982836 -278.856011 
L 269.346695 -278.571498 
L 270.710555 -278.251899 
L 272.074414 -277.899097 
L 273.438273 -277.516577 
L 274.802132 -277.109126 
L 276.165991 -276.68231 
L 277.529851 -276.241924 
L 278.89371 -275.79361 
L 280.257569 -275.34276 
L 281.621428 -274.894666 
L 282.985287 -274.45477 
L 284.349147 -274.028805 
L 285.713006 -273.622659 
L 287.076865 -273.241904 
L 288.440724 -272.891089 
L 289.804583 -272.573015 
L 291.168443 -272.288212 
L 292.532302 -272.034806 
L 293.896161 -271.808829 
L 295.26002 -271.6049 
L 296.623879 -271.417114 
L 297.987739 -271.239964 
L 299.351598 -271.069095 
L 300.715457 -270.901776 
L 302.079316 -270.736991 
L 303.443176 -270.57515 
L 304.807035 -270.417438 
L 306.170894 -270.26498 
L 307.534753 -270.117997 
L 308.898612 -269.975225 
L 310.262472 -269.833777 
L 311.626331 -269.689556 
L 312.99019 -269.538131 
L 314.354049 -269.375844 
L 315.717908 -269.200842 
L 317.081768 -269.013748 
L 318.445627 -268.817778 
L 319.809486 -268.618301 
L 321.173345 -268.421973 
L 322.537204 -268.235668 
L 322.537204 -266.604832 
L 322.537204 -266.604832 
L 321.173345 -266.418527 
L 319.809486 -266.222199 
L 318.445627 -266.022722 
L 317.081768 -265.826752 
L 315.717908 -265.639658 
L 314.354049 -265.464656 
L 312.99019 -265.302369 
L 311.626331 -265.150944 
L 310.262472 -265.006723 
L 308.898612 -264.865275 
L 307.534753 -264.722503 
L 306.170894 -264.57552 
L 304.807035 -264.423062 
L 303.443176 -264.26535 
L 302.079316 -264.103509 
L 300.715457 -263.938724 
L 299.351598 -263.771405 
L 297.987739 -263.600536 
L 296.623879 -263.423386 
L 295.26002 -263.2356 
L 293.896161 -263.031671 
L 292.532302 -262.805694 
L 291.168443 -262.552288 
L 289.804583 -262.267485 
L 288.440724 -261.949411 
L 287.076865 -261.598596 
L 285.713006 -261.217841 
L 284.349147 -260.811695 
L 282.985287 -260.38573 
L 281.621428 -259.945834 
L 280.257569 -259.49774 
L 278.89371 -259.04689 
L 277.529851 -258.598576 
L 276.165991 -258.15819 
L 274.802132 -257.731374 
L 273.438273 -257.323923 
L 272.074414 -256.941403 
L 270.710555 -256.588601 
L 269.346695 -256.269002 
L 267.982836 -255.984489 
L 266.618977 -255.735374 
L 265.255118 -255.520765 
L 263.891259 -255.339124 
L 262.527399 -255.188881 
L 261.16354 -255.068925 
L 259.799681 -254.978908 
L 258.435822 -254.919371 
L 257.071963 -254.89175 
L 255.708103 -254.898317 
L 254.344244 -254.942077 
L 252.980385 -255.026575 
L 251.616526 -255.155574 
L 250.252667 -255.332567 
L 248.888807 -255.560192 
L 247.524948 -255.839655 
L 246.161089 -256.170294 
L 244.79723 -256.549364 
L 243.433371 -256.972062 
L 242.069511 -257.431712 
L 240.705652 -257.920067 
L 239.341793 -258.427702 
L 237.977934 -258.944525 
L 236.614075 -259.460447 
L 235.250215 -259.966205 
L 233.886356 -260.454188 
L 232.522497 -260.919081 
L 231.158638 -261.358109 
L 229.794779 -261.770787 
L 228.430919 -262.158233 
L 227.06706 -262.522286 
L 225.703201 -262.864703 
L 224.339342 -263.186719 
L 222.975482 -263.489057 
L 221.611623 -263.772331 
L 220.247764 -264.03763 
L 218.883905 -264.286989 
L 217.520046 -264.523533 
L 216.156186 -264.751164 
L 214.792327 -264.97385 
L 213.428468 -265.194707 
L 212.064609 -265.415152 
L 210.70075 -265.634394 
L 209.33689 -265.849452 
L 207.973031 -266.055701 
L 206.609172 -266.247833 
L 205.245313 -266.420965 
L 203.881454 -266.571604 
L 202.517594 -266.69824 
L 201.153735 -266.801465 
L 199.789876 -266.883637 
L 198.426017 -266.948268 
L 197.062158 -266.999314 
L 195.698298 -267.040577 
L 194.334439 -267.07531 
L 192.97058 -267.106052 
L 191.606721 -267.134641 
L 190.242862 -267.162313 
L 188.879002 -267.189804 
L 187.515143 -267.217426 
z
" id="ma1588b035c" style="stroke:#424242;"/>
    </defs>
    <g clip-path="url(#p6c9cc0aefe)">
     <use style="fill:#be631d;stroke:#424242;" x="0" xlink:href="#ma1588b035c" y="314.77"/>
    </g>
   </g>
   <g id="PolyCollection_3">
    <defs>
     <path d="M 216.917501 -202.164735 
L 216.917501 -207.390765 
L 217.757982 -207.495958 
L 218.598462 -207.600069 
L 219.438943 -207.703408 
L 220.279424 -207.806392 
L 221.119905 -207.909533 
L 221.960386 -208.013431 
L 222.800867 -208.118753 
L 223.641347 -208.226215 
L 224.481828 -208.336566 
L 225.322309 -208.450561 
L 226.16279 -208.568944 
L 227.003271 -208.692419 
L 227.843752 -208.821629 
L 228.684232 -208.957137 
L 229.524713 -209.099402 
L 230.365194 -209.248762 
L 231.205675 -209.40542 
L 232.046156 -209.56943 
L 232.886637 -209.740688 
L 233.727117 -209.91893 
L 234.567598 -210.103729 
L 235.408079 -210.294499 
L 236.24856 -210.490507 
L 237.089041 -210.690885 
L 237.929521 -210.894647 
L 238.770002 -211.100712 
L 239.610483 -211.307931 
L 240.450964 -211.515116 
L 241.291445 -211.721069 
L 242.131926 -211.924622 
L 242.972406 -212.124665 
L 243.812887 -212.32018 
L 244.653368 -212.510278 
L 245.493849 -212.694224 
L 246.33433 -212.871461 
L 247.174811 -213.041635 
L 248.015291 -213.204601 
L 248.855772 -213.36044 
L 249.696253 -213.509449 
L 250.536734 -213.652136 
L 251.377215 -213.789205 
L 252.217696 -213.921529 
L 253.058176 -214.05012 
L 253.898657 -214.176091 
L 254.739138 -214.300613 
L 255.579619 -214.424868 
L 256.4201 -214.550002 
L 257.26058 -214.677073 
L 258.101061 -214.807008 
L 258.941542 -214.940551 
L 259.782023 -215.078231 
L 260.622504 -215.220323 
L 261.462985 -215.366824 
L 262.303465 -215.517432 
L 263.143946 -215.671544 
L 263.984427 -215.828252 
L 264.824908 -215.986357 
L 265.665389 -216.144389 
L 266.50587 -216.300635 
L 267.34635 -216.45318 
L 268.186831 -216.599949 
L 269.027312 -216.738756 
L 269.867793 -216.867357 
L 270.708274 -216.983508 
L 271.548755 -217.085015 
L 272.389235 -217.169791 
L 273.229716 -217.235907 
L 274.070197 -217.281634 
L 274.910678 -217.305486 
L 275.751159 -217.30625 
L 276.59164 -217.283011 
L 277.43212 -217.235168 
L 278.272601 -217.162442 
L 279.113082 -217.064871 
L 279.953563 -216.942806 
L 280.794044 -216.796886 
L 281.634524 -216.62802 
L 282.475005 -216.437352 
L 283.315486 -216.226231 
L 284.155967 -215.996169 
L 284.996448 -215.748803 
L 285.836929 -215.485857 
L 286.677409 -215.2091 
L 287.51789 -214.920311 
L 288.358371 -214.621247 
L 289.198852 -214.313612 
L 290.039333 -213.999032 
L 290.879814 -213.679041 
L 291.720294 -213.355062 
L 292.560775 -213.028405 
L 293.401256 -212.700259 
L 294.241737 -212.371702 
L 295.082218 -212.043698 
L 295.922699 -211.717116 
L 296.763179 -211.392738 
L 297.60366 -211.071271 
L 298.444141 -210.753367 
L 299.284622 -210.439633 
L 300.125103 -210.130643 
L 300.125103 -199.424857 
L 300.125103 -199.424857 
L 299.284622 -199.115867 
L 298.444141 -198.802133 
L 297.60366 -198.484229 
L 296.763179 -198.162762 
L 295.922699 -197.838384 
L 295.082218 -197.511802 
L 294.241737 -197.183798 
L 293.401256 -196.855241 
L 292.560775 -196.527095 
L 291.720294 -196.200438 
L 290.879814 -195.876459 
L 290.039333 -195.556468 
L 289.198852 -195.241888 
L 288.358371 -194.934253 
L 287.51789 -194.635189 
L 286.677409 -194.3464 
L 285.836929 -194.069643 
L 284.996448 -193.806697 
L 284.155967 -193.559331 
L 283.315486 -193.329269 
L 282.475005 -193.118148 
L 281.634524 -192.92748 
L 280.794044 -192.758614 
L 279.953563 -192.612694 
L 279.113082 -192.490629 
L 278.272601 -192.393058 
L 277.43212 -192.320332 
L 276.59164 -192.272489 
L 275.751159 -192.24925 
L 274.910678 -192.250014 
L 274.070197 -192.273866 
L 273.229716 -192.319593 
L 272.389235 -192.385709 
L 271.548755 -192.470485 
L 270.708274 -192.571992 
L 269.867793 -192.688143 
L 269.027312 -192.816744 
L 268.186831 -192.955551 
L 267.34635 -193.10232 
L 266.50587 -193.254865 
L 265.665389 -193.411111 
L 264.824908 -193.569143 
L 263.984427 -193.727248 
L 263.143946 -193.883956 
L 262.303465 -194.038068 
L 261.462985 -194.188676 
L 260.622504 -194.335177 
L 259.782023 -194.477269 
L 258.941542 -194.614949 
L 258.101061 -194.748492 
L 257.26058 -194.878427 
L 256.4201 -195.005498 
L 255.579619 -195.130632 
L 254.739138 -195.254887 
L 253.898657 -195.379409 
L 253.058176 -195.50538 
L 252.217696 -195.633971 
L 251.377215 -195.766295 
L 250.536734 -195.903364 
L 249.696253 -196.046051 
L 248.855772 -196.19506 
L 248.015291 -196.350899 
L 247.174811 -196.513865 
L 246.33433 -196.684039 
L 245.493849 -196.861276 
L 244.653368 -197.045222 
L 243.812887 -197.23532 
L 242.972406 -197.430835 
L 242.131926 -197.630878 
L 241.291445 -197.834431 
L 240.450964 -198.040384 
L 239.610483 -198.247569 
L 238.770002 -198.454788 
L 237.929521 -198.660853 
L 237.089041 -198.864615 
L 236.24856 -199.064993 
L 235.408079 -199.261001 
L 234.567598 -199.451771 
L 233.727117 -199.63657 
L 232.886637 -199.814812 
L 232.046156 -199.98607 
L 231.205675 -200.15008 
L 230.365194 -200.306738 
L 229.524713 -200.456098 
L 228.684232 -200.598363 
L 227.843752 -200.733871 
L 227.003271 -200.863081 
L 226.16279 -200.986556 
L 225.322309 -201.104939 
L 224.481828 -201.218934 
L 223.641347 -201.329285 
L 222.800867 -201.436747 
L 221.960386 -201.542069 
L 221.119905 -201.645967 
L 220.279424 -201.749108 
L 219.438943 -201.852092 
L 218.598462 -201.955431 
L 217.757982 -202.059542 
L 216.917501 -202.164735 
z
" id="mad144d02d8" style="stroke:#424242;"/>
    </defs>
    <g clip-path="url(#p6c9cc0aefe)">
     <use style="fill:#be631d;stroke:#424242;" x="0" xlink:href="#mad144d02d8" y="314.77"/>
    </g>
   </g>
   <g id="patch_86">
    <path clip-path="url(#p6c9cc0aefe)" d="M 113.404667 34.82125 
L 113.404667 34.82125 
L 113.404667 34.82125 
L 113.404667 34.82125 
z
" style="fill:#7c78ab;stroke:#424242;stroke-linejoin:miter;stroke-width:0.5;"/>
   </g>
   <g id="patch_87">
    <path clip-path="url(#p6c9cc0aefe)" d="M 113.404667 34.82125 
L 113.404667 34.82125 
L 113.404667 34.82125 
L 113.404667 34.82125 
z
" style="fill:#be631d;stroke:#424242;stroke-linejoin:miter;stroke-width:0.5;"/>
   </g>
   <g id="matplotlib.axis_3">
    <g id="xtick_5">
     <g id="line2d_11">
      <g>
       <use style="stroke:#000000;stroke-width:1.6;" x="113.404667" xlink:href="#m25df03144d" y="254.07"/>
      </g>
     </g>
     <g id="text_13">
      <!-- 0.0 -->
      <g transform="translate(97.501542 283.966875)scale(0.2 -0.2)">
       <use xlink:href="#DejaVuSans-48"/>
       <use x="63.623047" xlink:href="#DejaVuSans-46"/>
       <use x="95.410156" xlink:href="#DejaVuSans-48"/>
      </g>
     </g>
    </g>
    <g id="xtick_6">
     <g id="line2d_12">
      <g>
       <use style="stroke:#000000;stroke-width:1.6;" x="180.223333" xlink:href="#m25df03144d" y="254.07"/>
      </g>
     </g>
     <g id="text_14">
      <!-- 0.2 -->
      <g transform="translate(164.320208 283.966875)scale(0.2 -0.2)">
       <use xlink:href="#DejaVuSans-48"/>
       <use x="63.623047" xlink:href="#DejaVuSans-46"/>
       <use x="95.410156" xlink:href="#DejaVuSans-50"/>
      </g>
     </g>
    </g>
    <g id="xtick_7">
     <g id="line2d_13">
      <g>
       <use style="stroke:#000000;stroke-width:1.6;" x="247.042" xlink:href="#m25df03144d" y="254.07"/>
      </g>
     </g>
     <g id="text_15">
      <!-- 0.4 -->
      <g transform="translate(231.138875 283.966875)scale(0.2 -0.2)">
       <use xlink:href="#DejaVuSans-48"/>
       <use x="63.623047" xlink:href="#DejaVuSans-46"/>
       <use x="95.410156" xlink:href="#DejaVuSans-52"/>
      </g>
     </g>
    </g>
    <g id="xtick_8">
     <g id="line2d_14">
      <g>
       <use style="stroke:#000000;stroke-width:1.6;" x="313.860667" xlink:href="#m25df03144d" y="254.07"/>
      </g>
     </g>
     <g id="text_16">
      <!-- 0.6 -->
      <g transform="translate(297.957542 283.966875)scale(0.2 -0.2)">
       <use xlink:href="#DejaVuSans-48"/>
       <use x="63.623047" xlink:href="#DejaVuSans-46"/>
       <use x="95.410156" xlink:href="#DejaVuSans-54"/>
      </g>
     </g>
    </g>
    <g id="text_17">
     <!-- Max JS Divergence within $\epsilon$ -->
     <defs>
      <path d="M 9.8125 72.90625 
L 24.515625 72.90625 
L 43.109375 23.296875 
L 61.8125 72.90625 
L 76.515625 72.90625 
L 76.515625 0 
L 66.890625 0 
L 66.890625 64.015625 
L 48.09375 14.015625 
L 38.1875 14.015625 
L 19.390625 64.015625 
L 19.390625 0 
L 9.8125 0 
z
" id="DejaVuSans-77"/>
      <path d="M 34.28125 27.484375 
Q 23.390625 27.484375 19.1875 25 
Q 14.984375 22.515625 14.984375 16.5 
Q 14.984375 11.71875 18.140625 8.90625 
Q 21.296875 6.109375 26.703125 6.109375 
Q 34.1875 6.109375 38.703125 11.40625 
Q 43.21875 16.703125 43.21875 25.484375 
L 43.21875 27.484375 
z
M 52.203125 31.203125 
L 52.203125 0 
L 43.21875 0 
L 43.21875 8.296875 
Q 40.140625 3.328125 35.546875 0.953125 
Q 30.953125 -1.421875 24.3125 -1.421875 
Q 15.921875 -1.421875 10.953125 3.296875 
Q 6 8.015625 6 15.921875 
Q 6 25.140625 12.171875 29.828125 
Q 18.359375 34.515625 30.609375 34.515625 
L 43.21875 34.515625 
L 43.21875 35.40625 
Q 43.21875 41.609375 39.140625 45 
Q 35.0625 48.390625 27.6875 48.390625 
Q 23 48.390625 18.546875 47.265625 
Q 14.109375 46.140625 10.015625 43.890625 
L 10.015625 52.203125 
Q 14.9375 54.109375 19.578125 55.046875 
Q 24.21875 56 28.609375 56 
Q 40.484375 56 46.34375 49.84375 
Q 52.203125 43.703125 52.203125 31.203125 
z
" id="DejaVuSans-97"/>
      <path d="M 54.890625 54.6875 
L 35.109375 28.078125 
L 55.90625 0 
L 45.3125 0 
L 29.390625 21.484375 
L 13.484375 0 
L 2.875 0 
L 24.125 28.609375 
L 4.6875 54.6875 
L 15.28125 54.6875 
L 29.78125 35.203125 
L 44.28125 54.6875 
z
" id="DejaVuSans-120"/>
      <path d="M 9.8125 72.90625 
L 19.671875 72.90625 
L 19.671875 5.078125 
Q 19.671875 -8.109375 14.671875 -14.0625 
Q 9.671875 -20.015625 -1.421875 -20.015625 
L -5.171875 -20.015625 
L -5.171875 -11.71875 
L -2.09375 -11.71875 
Q 4.4375 -11.71875 7.125 -8.046875 
Q 9.8125 -4.390625 9.8125 5.078125 
z
" id="DejaVuSans-74"/>
      <path d="M 53.515625 70.515625 
L 53.515625 60.890625 
Q 47.90625 63.578125 42.921875 64.890625 
Q 37.9375 66.21875 33.296875 66.21875 
Q 25.25 66.21875 20.875 63.09375 
Q 16.5 59.96875 16.5 54.203125 
Q 16.5 49.359375 19.40625 46.890625 
Q 22.3125 44.4375 30.421875 42.921875 
L 36.375 41.703125 
Q 47.40625 39.59375 52.65625 34.296875 
Q 57.90625 29 57.90625 20.125 
Q 57.90625 9.515625 50.796875 4.046875 
Q 43.703125 -1.421875 29.984375 -1.421875 
Q 24.8125 -1.421875 18.96875 -0.25 
Q 13.140625 0.921875 6.890625 3.21875 
L 6.890625 13.375 
Q 12.890625 10.015625 18.65625 8.296875 
Q 24.421875 6.59375 29.984375 6.59375 
Q 38.421875 6.59375 43.015625 9.90625 
Q 47.609375 13.234375 47.609375 19.390625 
Q 47.609375 24.75 44.3125 27.78125 
Q 41.015625 30.8125 33.5 32.328125 
L 27.484375 33.5 
Q 16.453125 35.6875 11.515625 40.375 
Q 6.59375 45.0625 6.59375 53.421875 
Q 6.59375 63.09375 13.40625 68.65625 
Q 20.21875 74.21875 32.171875 74.21875 
Q 37.3125 74.21875 42.625 73.28125 
Q 47.953125 72.359375 53.515625 70.515625 
z
" id="DejaVuSans-83"/>
      <path d="M 19.671875 64.796875 
L 19.671875 8.109375 
L 31.59375 8.109375 
Q 46.6875 8.109375 53.6875 14.9375 
Q 60.6875 21.78125 60.6875 36.53125 
Q 60.6875 51.171875 53.6875 57.984375 
Q 46.6875 64.796875 31.59375 64.796875 
z
M 9.8125 72.90625 
L 30.078125 72.90625 
Q 51.265625 72.90625 61.171875 64.09375 
Q 71.09375 55.28125 71.09375 36.53125 
Q 71.09375 17.671875 61.125 8.828125 
Q 51.171875 0 30.078125 0 
L 9.8125 0 
z
" id="DejaVuSans-68"/>
      <path d="M 9.421875 54.6875 
L 18.40625 54.6875 
L 18.40625 0 
L 9.421875 0 
z
M 9.421875 75.984375 
L 18.40625 75.984375 
L 18.40625 64.59375 
L 9.421875 64.59375 
z
" id="DejaVuSans-105"/>
      <path d="M 2.984375 54.6875 
L 12.5 54.6875 
L 29.59375 8.796875 
L 46.6875 54.6875 
L 56.203125 54.6875 
L 35.6875 0 
L 23.484375 0 
z
" id="DejaVuSans-118"/>
      <path d="M 56.203125 29.59375 
L 56.203125 25.203125 
L 14.890625 25.203125 
Q 15.484375 15.921875 20.484375 11.0625 
Q 25.484375 6.203125 34.421875 6.203125 
Q 39.59375 6.203125 44.453125 7.46875 
Q 49.3125 8.734375 54.109375 11.28125 
L 54.109375 2.78125 
Q 49.265625 0.734375 44.1875 -0.34375 
Q 39.109375 -1.421875 33.890625 -1.421875 
Q 20.796875 -1.421875 13.15625 6.1875 
Q 5.515625 13.8125 5.515625 26.8125 
Q 5.515625 40.234375 12.765625 48.109375 
Q 20.015625 56 32.328125 56 
Q 43.359375 56 49.78125 48.890625 
Q 56.203125 41.796875 56.203125 29.59375 
z
M 47.21875 32.234375 
Q 47.125 39.59375 43.09375 43.984375 
Q 39.0625 48.390625 32.421875 48.390625 
Q 24.90625 48.390625 20.390625 44.140625 
Q 15.875 39.890625 15.1875 32.171875 
z
" id="DejaVuSans-101"/>
      <path d="M 41.109375 46.296875 
Q 39.59375 47.171875 37.8125 47.578125 
Q 36.03125 48 33.890625 48 
Q 26.265625 48 22.1875 43.046875 
Q 18.109375 38.09375 18.109375 28.8125 
L 18.109375 0 
L 9.078125 0 
L 9.078125 54.6875 
L 18.109375 54.6875 
L 18.109375 46.1875 
Q 20.953125 51.171875 25.484375 53.578125 
Q 30.03125 56 36.53125 56 
Q 37.453125 56 38.578125 55.875 
Q 39.703125 55.765625 41.0625 55.515625 
z
" id="DejaVuSans-114"/>
      <path d="M 45.40625 27.984375 
Q 45.40625 37.75 41.375 43.109375 
Q 37.359375 48.484375 30.078125 48.484375 
Q 22.859375 48.484375 18.828125 43.109375 
Q 14.796875 37.75 14.796875 27.984375 
Q 14.796875 18.265625 18.828125 12.890625 
Q 22.859375 7.515625 30.078125 7.515625 
Q 37.359375 7.515625 41.375 12.890625 
Q 45.40625 18.265625 45.40625 27.984375 
z
M 54.390625 6.78125 
Q 54.390625 -7.171875 48.1875 -13.984375 
Q 42 -20.796875 29.203125 -20.796875 
Q 24.46875 -20.796875 20.265625 -20.09375 
Q 16.0625 -19.390625 12.109375 -17.921875 
L 12.109375 -9.1875 
Q 16.0625 -11.328125 19.921875 -12.34375 
Q 23.78125 -13.375 27.78125 -13.375 
Q 36.625 -13.375 41.015625 -8.765625 
Q 45.40625 -4.15625 45.40625 5.171875 
L 45.40625 9.625 
Q 42.625 4.78125 38.28125 2.390625 
Q 33.9375 0 27.875 0 
Q 17.828125 0 11.671875 7.65625 
Q 5.515625 15.328125 5.515625 27.984375 
Q 5.515625 40.671875 11.671875 48.328125 
Q 17.828125 56 27.875 56 
Q 33.9375 56 38.28125 53.609375 
Q 42.625 51.21875 45.40625 46.390625 
L 45.40625 54.6875 
L 54.390625 54.6875 
z
" id="DejaVuSans-103"/>
      <path d="M 54.890625 33.015625 
L 54.890625 0 
L 45.90625 0 
L 45.90625 32.71875 
Q 45.90625 40.484375 42.875 44.328125 
Q 39.84375 48.1875 33.796875 48.1875 
Q 26.515625 48.1875 22.3125 43.546875 
Q 18.109375 38.921875 18.109375 30.90625 
L 18.109375 0 
L 9.078125 0 
L 9.078125 54.6875 
L 18.109375 54.6875 
L 18.109375 46.1875 
Q 21.34375 51.125 25.703125 53.5625 
Q 30.078125 56 35.796875 56 
Q 45.21875 56 50.046875 50.171875 
Q 54.890625 44.34375 54.890625 33.015625 
z
" id="DejaVuSans-110"/>
      <path d="M 48.78125 52.59375 
L 48.78125 44.1875 
Q 44.96875 46.296875 41.140625 47.34375 
Q 37.3125 48.390625 33.40625 48.390625 
Q 24.65625 48.390625 19.8125 42.84375 
Q 14.984375 37.3125 14.984375 27.296875 
Q 14.984375 17.28125 19.8125 11.734375 
Q 24.65625 6.203125 33.40625 6.203125 
Q 37.3125 6.203125 41.140625 7.25 
Q 44.96875 8.296875 48.78125 10.40625 
L 48.78125 2.09375 
Q 45.015625 0.34375 40.984375 -0.53125 
Q 36.96875 -1.421875 32.421875 -1.421875 
Q 20.0625 -1.421875 12.78125 6.34375 
Q 5.515625 14.109375 5.515625 27.296875 
Q 5.515625 40.671875 12.859375 48.328125 
Q 20.21875 56 33.015625 56 
Q 37.15625 56 41.109375 55.140625 
Q 45.0625 54.296875 48.78125 52.59375 
z
" id="DejaVuSans-99"/>
      <path d="M 4.203125 54.6875 
L 13.1875 54.6875 
L 24.421875 12.015625 
L 35.59375 54.6875 
L 46.1875 54.6875 
L 57.421875 12.015625 
L 68.609375 54.6875 
L 77.59375 54.6875 
L 63.28125 0 
L 52.6875 0 
L 40.921875 44.828125 
L 29.109375 0 
L 18.5 0 
z
" id="DejaVuSans-119"/>
      <path d="M 18.3125 70.21875 
L 18.3125 54.6875 
L 36.8125 54.6875 
L 36.8125 47.703125 
L 18.3125 47.703125 
L 18.3125 18.015625 
Q 18.3125 11.328125 20.140625 9.421875 
Q 21.96875 7.515625 27.59375 7.515625 
L 36.8125 7.515625 
L 36.8125 0 
L 27.59375 0 
Q 17.1875 0 13.234375 3.875 
Q 9.28125 7.765625 9.28125 18.015625 
L 9.28125 47.703125 
L 2.6875 47.703125 
L 2.6875 54.6875 
L 9.28125 54.6875 
L 9.28125 70.21875 
z
" id="DejaVuSans-116"/>
      <path d="M 54.890625 33.015625 
L 54.890625 0 
L 45.90625 0 
L 45.90625 32.71875 
Q 45.90625 40.484375 42.875 44.328125 
Q 39.84375 48.1875 33.796875 48.1875 
Q 26.515625 48.1875 22.3125 43.546875 
Q 18.109375 38.921875 18.109375 30.90625 
L 18.109375 0 
L 9.078125 0 
L 9.078125 75.984375 
L 18.109375 75.984375 
L 18.109375 46.1875 
Q 21.34375 51.125 25.703125 53.5625 
Q 30.078125 56 35.796875 56 
Q 45.21875 56 50.046875 50.171875 
Q 54.890625 44.34375 54.890625 33.015625 
z
" id="DejaVuSans-104"/>
      <path d="M 19.734375 29.5 
Q 14.453125 30.671875 12.15625 33.84375 
Q 10.453125 36.078125 10.453125 39.109375 
Q 10.453125 47.40625 18.359375 52.25 
Q 24.609375 56.0625 34.1875 56.0625 
Q 37.890625 56.0625 41.9375 55.46875 
Q 46 54.890625 50.53125 53.71875 
L 48.96875 45.5625 
Q 44.484375 46.96875 40.71875 47.609375 
Q 36.859375 48.25 33.40625 48.25 
Q 27.59375 48.25 23.78125 46 
Q 19.1875 43.3125 19.1875 39.40625 
Q 19.1875 36.8125 21.578125 35.015625 
Q 24.421875 32.859375 30.078125 32.859375 
L 37.640625 32.859375 
L 36.234375 25.4375 
L 29 25.4375 
Q 22.265625 25.4375 18.3125 22.953125 
Q 12.9375 19.578125 12.9375 14.3125 
Q 12.9375 10.984375 15.828125 8.796875 
Q 19.4375 6.0625 26.8125 6.0625 
Q 31.34375 6.0625 35.6875 6.9375 
Q 40.046875 7.859375 43.84375 9.671875 
L 42.1875 1.3125 
Q 37.546875 -0.046875 33.296875 -0.734375 
Q 29.046875 -1.421875 25.140625 -1.421875 
Q 13.53125 -1.421875 8.0625 3.03125 
Q 3.90625 6.453125 3.90625 12.203125 
Q 3.90625 19.96875 9.375 24.75 
Q 13.421875 28.328125 19.734375 29.5 
z
" id="DejaVuSans-Oblique-949"/>
     </defs>
     <g transform="translate(86.385 307.32625)scale(0.2 -0.2)">
      <use transform="translate(0 0.015625)" xlink:href="#DejaVuSans-77"/>
      <use transform="translate(86.279297 0.015625)" xlink:href="#DejaVuSans-97"/>
      <use transform="translate(147.558594 0.015625)" xlink:href="#DejaVuSans-120"/>
      <use transform="translate(206.738281 0.015625)" xlink:href="#DejaVuSans-32"/>
      <use transform="translate(238.525391 0.015625)" xlink:href="#DejaVuSans-74"/>
      <use transform="translate(268.017578 0.015625)" xlink:href="#DejaVuSans-83"/>
      <use transform="translate(331.494141 0.015625)" xlink:href="#DejaVuSans-32"/>
      <use transform="translate(363.28125 0.015625)" xlink:href="#DejaVuSans-68"/>
      <use transform="translate(440.283203 0.015625)" xlink:href="#DejaVuSans-105"/>
      <use transform="translate(468.066406 0.015625)" xlink:href="#DejaVuSans-118"/>
      <use transform="translate(527.246094 0.015625)" xlink:href="#DejaVuSans-101"/>
      <use transform="translate(588.769531 0.015625)" xlink:href="#DejaVuSans-114"/>
      <use transform="translate(629.882812 0.015625)" xlink:href="#DejaVuSans-103"/>
      <use transform="translate(693.359375 0.015625)" xlink:href="#DejaVuSans-101"/>
      <use transform="translate(754.882812 0.015625)" xlink:href="#DejaVuSans-110"/>
      <use transform="translate(818.261719 0.015625)" xlink:href="#DejaVuSans-99"/>
      <use transform="translate(873.242188 0.015625)" xlink:href="#DejaVuSans-101"/>
      <use transform="translate(934.765625 0.015625)" xlink:href="#DejaVuSans-32"/>
      <use transform="translate(966.552734 0.015625)" xlink:href="#DejaVuSans-119"/>
      <use transform="translate(1048.339844 0.015625)" xlink:href="#DejaVuSans-105"/>
      <use transform="translate(1076.123047 0.015625)" xlink:href="#DejaVuSans-116"/>
      <use transform="translate(1115.332031 0.015625)" xlink:href="#DejaVuSans-104"/>
      <use transform="translate(1178.710938 0.015625)" xlink:href="#DejaVuSans-105"/>
      <use transform="translate(1206.494141 0.015625)" xlink:href="#DejaVuSans-110"/>
      <use transform="translate(1269.873047 0.015625)" xlink:href="#DejaVuSans-32"/>
      <use transform="translate(1301.660156 0.015625)" xlink:href="#DejaVuSans-Oblique-949"/>
     </g>
    </g>
   </g>
   <g id="matplotlib.axis_4">
    <g id="ytick_7">
     <g id="line2d_15">
      <g>
       <use style="stroke:#000000;stroke-width:1.6;" x="96.7" xlink:href="#m534888919b" y="34.82125"/>
      </g>
     </g>
     <g id="text_18">
      <!-- [0.00, -->
      <defs>
       <path d="M 8.59375 75.984375 
L 29.296875 75.984375 
L 29.296875 69 
L 17.578125 69 
L 17.578125 -6.203125 
L 29.296875 -6.203125 
L 29.296875 -13.1875 
L 8.59375 -13.1875 
z
" id="DejaVuSans-91"/>
       <path d="M 11.71875 12.40625 
L 22.015625 12.40625 
L 22.015625 4 
L 14.015625 -11.625 
L 7.71875 -11.625 
L 11.71875 4 
z
" id="DejaVuSans-44"/>
      </defs>
      <g transform="translate(23.309375 31.221875)scale(0.2 -0.2)">
       <use xlink:href="#DejaVuSans-91"/>
       <use x="39.013672" xlink:href="#DejaVuSans-48"/>
       <use x="102.636719" xlink:href="#DejaVuSans-46"/>
       <use x="134.423828" xlink:href="#DejaVuSans-48"/>
       <use x="198.046875" xlink:href="#DejaVuSans-48"/>
       <use x="261.669922" xlink:href="#DejaVuSans-44"/>
      </g>
      <!-- 0.25) -->
      <defs>
       <path d="M 8.015625 75.875 
L 15.828125 75.875 
Q 23.140625 64.359375 26.78125 53.3125 
Q 30.421875 42.28125 30.421875 31.390625 
Q 30.421875 20.453125 26.78125 9.375 
Q 23.140625 -1.703125 15.828125 -13.1875 
L 8.015625 -13.1875 
Q 14.5 -2 17.703125 9.0625 
Q 20.90625 20.125 20.90625 31.390625 
Q 20.90625 42.671875 17.703125 53.65625 
Q 14.5 64.65625 8.015625 75.875 
z
" id="DejaVuSans-41"/>
      </defs>
      <g transform="translate(29.665625 53.6175)scale(0.2 -0.2)">
       <use xlink:href="#DejaVuSans-48"/>
       <use x="63.623047" xlink:href="#DejaVuSans-46"/>
       <use x="95.410156" xlink:href="#DejaVuSans-50"/>
       <use x="159.033203" xlink:href="#DejaVuSans-53"/>
       <use x="222.65625" xlink:href="#DejaVuSans-41"/>
      </g>
     </g>
    </g>
    <g id="ytick_8">
     <g id="line2d_16">
      <g>
       <use style="stroke:#000000;stroke-width:1.6;" x="96.7" xlink:href="#m534888919b" y="97.46375"/>
      </g>
     </g>
     <g id="text_19">
      <!-- [0.25, -->
      <g transform="translate(23.309375 93.864375)scale(0.2 -0.2)">
       <use xlink:href="#DejaVuSans-91"/>
       <use x="39.013672" xlink:href="#DejaVuSans-48"/>
       <use x="102.636719" xlink:href="#DejaVuSans-46"/>
       <use x="134.423828" xlink:href="#DejaVuSans-50"/>
       <use x="198.046875" xlink:href="#DejaVuSans-53"/>
       <use x="261.669922" xlink:href="#DejaVuSans-44"/>
      </g>
      <!-- 0.50) -->
      <g transform="translate(29.665625 116.26)scale(0.2 -0.2)">
       <use xlink:href="#DejaVuSans-48"/>
       <use x="63.623047" xlink:href="#DejaVuSans-46"/>
       <use x="95.410156" xlink:href="#DejaVuSans-53"/>
       <use x="159.033203" xlink:href="#DejaVuSans-48"/>
       <use x="222.65625" xlink:href="#DejaVuSans-41"/>
      </g>
     </g>
    </g>
    <g id="ytick_9">
     <g id="line2d_17">
      <g>
       <use style="stroke:#000000;stroke-width:1.6;" x="96.7" xlink:href="#m534888919b" y="160.10625"/>
      </g>
     </g>
     <g id="text_20">
      <!-- [0.50, -->
      <g transform="translate(23.309375 156.506875)scale(0.2 -0.2)">
       <use xlink:href="#DejaVuSans-91"/>
       <use x="39.013672" xlink:href="#DejaVuSans-48"/>
       <use x="102.636719" xlink:href="#DejaVuSans-46"/>
       <use x="134.423828" xlink:href="#DejaVuSans-53"/>
       <use x="198.046875" xlink:href="#DejaVuSans-48"/>
       <use x="261.669922" xlink:href="#DejaVuSans-44"/>
      </g>
      <!-- 0.75) -->
      <g transform="translate(29.665625 178.9025)scale(0.2 -0.2)">
       <use xlink:href="#DejaVuSans-48"/>
       <use x="63.623047" xlink:href="#DejaVuSans-46"/>
       <use x="95.410156" xlink:href="#DejaVuSans-55"/>
       <use x="159.033203" xlink:href="#DejaVuSans-53"/>
       <use x="222.65625" xlink:href="#DejaVuSans-41"/>
      </g>
     </g>
    </g>
    <g id="ytick_10">
     <g id="line2d_18">
      <g>
       <use style="stroke:#000000;stroke-width:1.6;" x="96.7" xlink:href="#m534888919b" y="222.74875"/>
      </g>
     </g>
     <g id="text_21">
      <!-- [0.75, -->
      <g transform="translate(23.309375 219.149375)scale(0.2 -0.2)">
       <use xlink:href="#DejaVuSans-91"/>
       <use x="39.013672" xlink:href="#DejaVuSans-48"/>
       <use x="102.636719" xlink:href="#DejaVuSans-46"/>
       <use x="134.423828" xlink:href="#DejaVuSans-55"/>
       <use x="198.046875" xlink:href="#DejaVuSans-53"/>
       <use x="261.669922" xlink:href="#DejaVuSans-44"/>
      </g>
      <!-- 1.00) -->
      <g transform="translate(29.665625 241.545)scale(0.2 -0.2)">
       <use xlink:href="#DejaVuSans-49"/>
       <use x="63.623047" xlink:href="#DejaVuSans-46"/>
       <use x="95.410156" xlink:href="#DejaVuSans-48"/>
       <use x="159.033203" xlink:href="#DejaVuSans-48"/>
       <use x="222.65625" xlink:href="#DejaVuSans-41"/>
      </g>
     </g>
    </g>
    <g id="text_22">
     <!-- Max Attention -->
     <defs>
      <path d="M 34.1875 63.1875 
L 20.796875 26.90625 
L 47.609375 26.90625 
z
M 28.609375 72.90625 
L 39.796875 72.90625 
L 67.578125 0 
L 57.328125 0 
L 50.6875 18.703125 
L 17.828125 18.703125 
L 11.1875 0 
L 0.78125 0 
z
" id="DejaVuSans-65"/>
      <path d="M 30.609375 48.390625 
Q 23.390625 48.390625 19.1875 42.75 
Q 14.984375 37.109375 14.984375 27.296875 
Q 14.984375 17.484375 19.15625 11.84375 
Q 23.34375 6.203125 30.609375 6.203125 
Q 37.796875 6.203125 41.984375 11.859375 
Q 46.1875 17.53125 46.1875 27.296875 
Q 46.1875 37.015625 41.984375 42.703125 
Q 37.796875 48.390625 30.609375 48.390625 
z
M 30.609375 56 
Q 42.328125 56 49.015625 48.375 
Q 55.71875 40.765625 55.71875 27.296875 
Q 55.71875 13.875 49.015625 6.21875 
Q 42.328125 -1.421875 30.609375 -1.421875 
Q 18.84375 -1.421875 12.171875 6.21875 
Q 5.515625 13.875 5.515625 27.296875 
Q 5.515625 40.765625 12.171875 48.375 
Q 18.84375 56 30.609375 56 
z
" id="DejaVuSans-111"/>
     </defs>
     <g transform="translate(15.15 198.963125)rotate(-90)scale(0.2 -0.2)">
      <use xlink:href="#DejaVuSans-77"/>
      <use x="86.279297" xlink:href="#DejaVuSans-97"/>
      <use x="147.558594" xlink:href="#DejaVuSans-120"/>
      <use x="206.738281" xlink:href="#DejaVuSans-32"/>
      <use x="238.525391" xlink:href="#DejaVuSans-65"/>
      <use x="306.917969" xlink:href="#DejaVuSans-116"/>
      <use x="346.126953" xlink:href="#DejaVuSans-116"/>
      <use x="385.335938" xlink:href="#DejaVuSans-101"/>
      <use x="446.859375" xlink:href="#DejaVuSans-110"/>
      <use x="510.238281" xlink:href="#DejaVuSans-116"/>
      <use x="549.447266" xlink:href="#DejaVuSans-105"/>
      <use x="577.230469" xlink:href="#DejaVuSans-111"/>
      <use x="638.412109" xlink:href="#DejaVuSans-110"/>
     </g>
    </g>
   </g>
   <g id="line2d_19">
    <path clip-path="url(#p6c9cc0aefe)" d="M 259.276099 15.106623 
L 259.276099 29.478877 
" style="fill:none;stroke:#424242;stroke-dasharray:1.5,1.5;stroke-dashoffset:0;"/>
   </g>
   <g id="line2d_20">
    <path clip-path="url(#p6c9cc0aefe)" d="M 283.94735 14.839212 
L 283.94735 29.746288 
" style="fill:none;stroke:#424242;stroke-dasharray:3,3;stroke-dashoffset:0;"/>
   </g>
   <g id="line2d_21">
    <path clip-path="url(#p6c9cc0aefe)" d="M 308.845755 11.077683 
L 308.845755 33.507817 
" style="fill:none;stroke:#424242;stroke-dasharray:1.5,1.5;stroke-dashoffset:0;"/>
   </g>
   <g id="line2d_22">
    <path clip-path="url(#p6c9cc0aefe)" d="M 243.981277 37.006044 
L 243.981277 57.693456 
" style="fill:none;stroke:#424242;stroke-dasharray:1.5,1.5;stroke-dashoffset:0;"/>
   </g>
   <g id="line2d_23">
    <path clip-path="url(#p6c9cc0aefe)" d="M 259.32868 35.032821 
L 259.32868 59.666679 
" style="fill:none;stroke:#424242;stroke-dasharray:3,3;stroke-dashoffset:0;"/>
   </g>
   <g id="line2d_24">
    <path clip-path="url(#p6c9cc0aefe)" d="M 275.638476 38.18031 
L 275.638476 56.51919 
" style="fill:none;stroke:#424242;stroke-dasharray:1.5,1.5;stroke-dashoffset:0;"/>
   </g>
   <g id="line2d_25">
    <path clip-path="url(#p6c9cc0aefe)" d="M 249.75598 101.347868 
L 249.75598 118.636632 
" style="fill:none;stroke:#424242;stroke-dasharray:1.5,1.5;stroke-dashoffset:0;"/>
   </g>
   <g id="line2d_26">
    <path clip-path="url(#p6c9cc0aefe)" d="M 270.612036 97.90855 
L 270.612036 122.07595 
" style="fill:none;stroke:#424242;stroke-dasharray:3,3;stroke-dashoffset:0;"/>
   </g>
   <g id="line2d_27">
    <path clip-path="url(#p6c9cc0aefe)" d="M 281.238017 98.260483 
L 281.238017 121.724017 
" style="fill:none;stroke:#424242;stroke-dasharray:1.5,1.5;stroke-dashoffset:0;"/>
   </g>
   <g id="patch_88">
    <path d="M 96.7 254.07 
L 96.7 3.5 
" style="fill:none;stroke:#000000;stroke-linecap:square;stroke-linejoin:miter;stroke-width:0.8;"/>
   </g>
   <g id="patch_89">
    <path d="M 96.7 254.07 
L 347.27 254.07 
" style="fill:none;stroke:#000000;stroke-linecap:square;stroke-linejoin:miter;stroke-width:0.8;"/>
   </g>
  </g>
 </g>
 <defs>
  <clipPath id="p44fb9cd781">
   <rect height="250.57" width="250.57" x="-265.23" y="3.5"/>
  </clipPath>
  <clipPath id="p6c9cc0aefe">
   <rect height="250.57" width="250.57" x="96.7" y="3.5"/>
  </clipPath>
 </defs>
</svg>
